<?xml version="1.0" encoding="UTF-8" standalone="no"?>
<!-- Created with Inkscape (http://www.inkscape.org/) -->

<svg
   width="37.229912mm"
   height="32.895329mm"
   viewBox="0 0 37.229912 32.895329"
   version="1.1"
   id="svg1"
   xml:space="preserve"
   xmlns="http://www.w3.org/2000/svg"
   xmlns:svg="http://www.w3.org/2000/svg"><defs
     id="defs1" /><g
     id="layer1"
     transform="translate(-145.40949,-115.00245)"><path
       style="fill:#4d4d4d;stroke-width:0.32768"
       d="m 160.8209,147.89662 c -0.39995,0.0116 -0.89633,-0.0633 -1.29589,-0.19549 -0.44792,-0.14824 -0.45547,-0.15318 -6.92787,-4.5461 -6.51202,-4.41983 -5.95605,-4.02459 -6.34579,-4.51112 -1.2096,-1.50997 -1.10455,-3.72097 0.24317,-5.11831 0.26139,-0.27102 0.86288,-0.69262 1.20108,-0.84187 1.03541,-0.45693 2.2377,-0.46016 3.26573,-0.009 0.17965,0.0789 1.90355,1.2065 4.49602,2.94088 l 4.20466,2.81295 5.854,-8.03599 c 3.21971,-4.41979 6.82054,-9.3646 8.00185,-10.98846 1.18133,-1.62386 2.25015,-3.05841 2.37517,-3.18789 0.99663,-1.03213 2.51865,-1.45562 3.87128,-1.07714 0.4452,0.12456 0.69088,0.23463 1.09423,0.4902 0.8641,0.54752 1.43453,1.37305 1.67035,2.41736 0.20859,0.92386 0.1252,1.69964 -0.278,2.58551 -0.16069,0.35305 -1.57017,2.29855 -14.39928,19.87526 l -4.68014,6.4121 -0.36704,0.26398 c -0.20186,0.1452 -0.50524,0.32453 -0.67417,0.39851 -0.36583,0.16016 -0.96664,0.30447 -1.30936,0.31444 z"
       id="path4" /></g></svg>
