<?xml version="1.0" encoding="UTF-8" standalone="no"?>
<!-- Created with Inkscape (http://www.inkscape.org/) -->

<svg
   width="60.274872mm"
   height="54.720951mm"
   viewBox="0 0 60.274878 54.720951"
   version="1.1"
   id="svg1"
   xml:space="preserve"
   xmlns="http://www.w3.org/2000/svg"
   xmlns:svg="http://www.w3.org/2000/svg"><defs
     id="defs1" /><g
     id="layer1"
     transform="translate(-108.21675,-2048.1812)"><path
       style="fill:#ffffff"
       d="m 139.21177,2102.7577 c -0.24698,-0.065 -0.94046,-1.0335 -1.54107,-2.1521 -1.53624,-2.8611 -2.38229,-3.6689 -4.20366,-4.0134 -0.81352,-0.1539 -2.19351,-0.4151 -3.06663,-0.5805 -1.95196,-0.3698 -6.38493,-1.8791 -8.18814,-2.7878 -5.42507,-2.7338 -9.57914,-6.859 -11.93293,-11.85 -1.54358,-3.2731 -2.05906,-5.4882 -2.06256,-8.8636 -0.011,-10.6102 8.19459,-19.958 20.33154,-23.1617 6.03736,-1.5936 14.26408,-1.5518 19.97604,0.1014 9.83321,2.846 16.70159,9.0606 19.35586,17.5134 0.53387,1.7002 0.6189,2.509 0.61096,5.8115 -0.008,3.2571 -0.10237,4.1362 -0.62594,5.8209 -1.84676,5.9422 -6.27417,11.6491 -11.94231,15.3934 -1.23155,0.8136 -3.90607,2.3391 -5.94336,3.3899 -2.03729,1.0509 -4.5376,2.5381 -5.55625,3.3048 -2.82461,2.1261 -3.69641,2.473 -5.21155,2.0738 z m -12.39498,-24.6851 c 1.92747,-0.9833 2.94052,-3.2098 2.37671,-5.2236 -1.35179,-4.8281 -7.88348,-4.8493 -9.19076,-0.03 -0.5533,2.0398 0.76067,4.7371 2.68613,5.514 1.02782,0.4147 3.0551,0.2868 4.12792,-0.2605 z m 13.98165,0.1499 c 2.42353,-1.2661 3.37747,-4.1384 2.16424,-6.5166 -1.24324,-2.4369 -4.77703,-3.2993 -6.81027,-1.6619 -1.23739,0.9965 -2.17009,2.5961 -2.17578,3.7316 -0.009,1.7699 1.23395,3.7623 2.77378,4.4467 1.04954,0.4664 3.15535,0.4666 4.04803,2e-4 z m 14.23745,-0.055 c 2.56699,-1.2181 3.45346,-4.4052 1.87626,-6.7456 -2.85338,-4.2341 -9.15354,-1.9534 -8.58314,3.1072 0.35336,3.1349 3.81288,5.0117 6.70688,3.6384 z"
       id="path77" /></g></svg>
