<?xml version="1.0" encoding="UTF-8" standalone="no"?>
<!-- Created with Inkscape (http://www.inkscape.org/) -->

<svg
   width="63.616077mm"
   height="53.293388mm"
   viewBox="0 0 63.616084 53.293388"
   version="1.1"
   id="svg1"
   xml:space="preserve"
   xmlns="http://www.w3.org/2000/svg"
   xmlns:svg="http://www.w3.org/2000/svg"><defs
     id="defs1" /><g
     id="layer1"
     transform="translate(-111.67613,-1971.9615)"><path
       style="fill:#666666;stroke-width:1.0424"
       d="m 145.83501,2024.5476 c -1.15672,-2.8639 -1.94081,-3.5192 -4.66295,-3.8972 -6.08282,-0.8445 -7.74221,-1.1611 -10.0188,-1.9113 -9.15557,-3.017 -15.85903,-8.899 -18.57014,-16.2943 -0.95374,-2.6017 -1.20463,-7.7693 -0.5155,-10.6181 2.27022,-9.3852 11.67609,-17.0196 23.85046,-19.3585 3.48992,-0.6706 11.62094,-0.6769 15.05401,-0.011 12.03798,2.3323 21.37622,9.7334 23.78444,18.8506 0.66225,2.5072 0.71975,7.0318 0.12064,9.4921 -1.12461,4.6184 -5.41591,10.9847 -10.17502,15.0953 -4.36912,3.7738 -9.84636,6.8499 -15.58974,8.7555 -2.49637,0.8284 -2.90672,0.8156 -3.2774,-0.1026 z m 5.48448,-2.6955 c 7.85058,-3.2439 13.89208,-7.931 17.94027,-13.918 3.29102,-4.8673 4.19786,-7.4214 4.1947,-11.8144 -0.006,-9.1555 -7.034,-17.039 -18.48476,-20.7365 -6.72563,-2.1718 -15.68332,-2.227 -22.60327,-0.1392 -7.63329,2.3029 -13.79118,6.9703 -16.74984,12.6957 -1.55422,3.0076 -2.10064,5.1821 -2.08956,8.3157 0.0157,4.4621 1.44686,8.1605 4.68246,12.101 4.57862,5.576 13.36504,9.673 22.10178,10.3058 3.11272,0.2254 4.93017,1.0462 6.0986,2.7542 0.47285,0.6913 0.85973,1.3676 0.85973,1.5032 0,0.3748 1.5453,-0.033 4.04989,-1.0675 z m -24.79092,-21.0306 c -4.38689,-1.207 -5.5339,-7.1859 -1.8714,-9.7548 2.56556,-1.7996 5.49366,-1.6311 7.63161,0.4391 2.40092,2.3247 2.40791,5.6475 0.0166,7.878 -1.69072,1.577 -3.57037,2.0448 -5.77675,1.4377 z m 4.00658,-2.2834 c 1.16813,-0.8319 1.70222,-2.0231 1.53831,-3.4312 -0.45463,-3.9055 -5.50575,-4.7524 -7.39336,-1.2396 -0.8786,1.635 -0.16362,3.7541 1.63569,4.8482 1.12143,0.6818 3.13152,0.5974 4.21936,-0.1774 z m 12.15115,2.3958 c -0.0725,-0.1136 0.0341,-0.4263 0.23684,-0.6947 0.41228,-0.546 0.86201,-0.1635 0.59625,0.5071 -0.16774,0.4232 -0.61795,0.5246 -0.83309,0.1876 z m 14.01128,-0.1911 c -4.11948,-1.4218 -5.10097,-6.7333 -1.76786,-9.5669 1.83597,-1.5609 4.76257,-1.7884 6.68583,-0.52 2.67585,1.7649 3.48019,4.5698 2.0918,7.2943 -1.33918,2.628 -4.19303,3.7649 -7.00977,2.7926 z m 3.97464,-2.0532 c 1.3361,-0.7886 2.13218,-2.6261 1.74344,-4.024 -0.58978,-2.1207 -2.1623,-3.2162 -4.23096,-2.9476 -2.11363,0.2745 -3.42655,1.7237 -3.39765,3.7505 0.0422,2.9584 3.30498,4.7443 5.88517,3.2211 z m -17.16387,1.4563 c 0.13566,-0.5256 1.48177,-1.051 2.00335,-1.4482 1.21664,-0.9267 1.75413,-1.924 1.75499,-3.2564 0.002,-3.4231 -4.03218,-5.0265 -6.657,-2.6457 -0.87608,0.7947 -1.28532,2.397 -0.93026,3.6421 0.32652,1.145 3.03179,3.5667 3.7458,3.5667 0.81146,0 1.72982,0.2023 0.94762,0.8609 -0.72398,0.6095 -0.97887,0.5963 -4.00479,-0.6738 -1.24219,-0.5214 -2.24411,-2.115 -2.6081,-3.7022 -0.83066,-3.6224 2.72958,-7.1829 6.6177,-6.6183 2.62012,0.3804 4.85837,3.0092 4.84931,5.6956 -0.005,1.7217 -0.83372,3.1984 -2.47127,4.4078 -1.51661,1.12 -3.64145,1.6989 -3.38008,0.6858 z"
       id="path73" /></g></svg>
