<?xml version="1.0" encoding="UTF-8" standalone="no"?>
<!-- Created with Inkscape (http://www.inkscape.org/) -->

<svg
   width="57.012989mm"
   height="54.704674mm"
   viewBox="0 0 57.012995 54.704674"
   version="1.1"
   id="svg1"
   xml:space="preserve"
   xmlns="http://www.w3.org/2000/svg"
   xmlns:svg="http://www.w3.org/2000/svg"><defs
     id="defs1" /><g
     id="layer1"
     transform="translate(-258.0928,-1972.1699)"><path
       style="fill:#666666;stroke-width:0.474039"
       d="m 259.76033,2026.6841 c -0.982,-0.414 -1.66749,-1.3169 -1.66749,-2.1961 0,-0.3841 0.53813,-1.7537 2.85108,-7.2566 0.47707,-1.135 1.31812,-3.142 1.86901,-4.46 l 1.00161,-2.3963 -0.52463,-0.7577 c -1.70518,-2.4627 -2.96901,-5.4713 -3.61556,-8.6069 -0.42356,-2.0541 -0.42477,-6.2101 -0.003,-8.2417 2.28262,-10.9794 11.8804,-19.0443 24.29533,-20.4152 13.72715,-1.5158 26.92381,6.5028 30.34664,18.4392 0.64293,2.2421 0.78684,3.3387 0.79236,6.0379 0.006,2.7805 -0.14278,3.8766 -0.8565,6.3236 -2.47641,8.4902 -10.29134,15.411 -19.88376,17.6089 -2.54342,0.5827 -4.28692,0.7685 -7.19207,0.7662 -3.35279,0 -5.59558,-0.3081 -8.73768,-1.1903 l -1.06719,-0.2996 -4.33549,1.8772 c -11.39026,4.9319 -11.32621,4.9055 -12.05048,4.9501 -0.48302,0.03 -0.8488,-0.025 -1.22278,-0.1827 z m 3.55565,-2.7759 c 1.27266,-0.5435 3.69462,-1.5849 5.38212,-2.314 7.40082,-3.1978 8.23567,-3.5373 8.69729,-3.5373 0.25406,0 0.95238,0.1523 1.55181,0.3384 5.45788,1.6952 12.03496,1.5718 17.56471,-0.3294 8.02792,-2.7601 14.17771,-9.147 15.8644,-16.4762 0.68778,-2.9887 0.71639,-6.3855 0.0768,-9.1222 -2.05173,-8.7796 -9.48997,-15.6051 -19.27623,-17.6884 -2.81253,-0.5987 -6.63988,-0.7644 -9.47137,-0.41 -5.68001,0.7109 -11.08055,3.1502 -14.96675,6.7602 -3.93743,3.6575 -6.34167,8.1342 -7.03765,13.104 -0.17973,1.2835 -0.17973,4.0293 0,5.3127 0.47296,3.3773 1.71346,6.456 3.84341,9.5387 0.3771,0.5458 0.68564,1.0373 0.68564,1.0923 0,0.1031 -0.9332,2.3862 -2.44964,5.9931 -3.56627,8.4826 -3.55396,8.4506 -3.33101,8.6477 0.20151,0.1781 0.66064,0.033 2.86642,-0.9096 z m 28.00628,-12.9403 c -3.9687,-0.7364 -7.85243,-2.8821 -11.95783,-6.6067 -3.0782,-2.7927 -5.11746,-5.5347 -6.17048,-8.297 -0.99301,-2.6048 -0.92365,-5.5947 0.18113,-7.8086 0.73949,-1.482 2.65233,-3.588 3.67959,-4.0513 0.60889,-0.2746 1.41578,-0.2916 2.08624,-0.044 0.59927,0.2212 6.16587,5.068 6.62921,5.772 0.82427,1.2523 0.61389,1.837 -1.27701,3.5493 l -1.45455,1.3172 v 0.5884 c 0,1.1508 0.73738,2.3386 2.38662,3.8445 2.15524,1.9679 3.92474,2.844 5.28782,2.618 0.36735,-0.061 0.74131,-0.3265 1.70085,-1.2078 1.3047,-1.1982 1.96252,-1.5637 2.822,-1.568 0.96687,0 1.49761,0.3581 4.69364,3.2088 2.7482,2.4512 3.09447,2.8033 3.24793,3.3027 0.31495,1.0248 -0.0433,1.7848 -1.30652,2.7716 -3.16539,2.4729 -6.64743,3.3348 -10.54864,2.611 z m 4.84866,-1.9894 c 0.56963,-0.1288 1.45681,-0.4339 1.97153,-0.6781 0.93547,-0.4437 2.55275,-1.5583 2.82548,-1.9471 0.12359,-0.1763 -0.27081,-0.5736 -2.72153,-2.7418 -1.57633,-1.3945 -2.92304,-2.5356 -2.99268,-2.5356 -0.0697,0 -0.70645,0.5036 -1.41511,1.1191 -1.77027,1.5375 -2.89818,1.9327 -4.5489,1.5942 -2.89252,-0.5932 -6.8879,-3.8217 -8.14333,-6.5803 -0.23982,-0.5269 -0.30658,-0.9034 -0.3076,-1.7343 -10e-4,-0.9575 0.0375,-1.1232 0.39502,-1.6939 0.23093,-0.3686 0.88508,-1.0392 1.56745,-1.6071 0.64411,-0.5359 1.17111,-1.0203 1.17111,-1.0763 0,-0.19 -5.66582,-5.1155 -5.8844,-5.1155 -0.11949,0 -0.56939,0.3737 -0.99979,0.8304 -2.86215,3.0374 -3.15674,6.4147 -0.90813,10.4112 1.27963,2.2743 2.75163,3.9768 5.47779,6.3355 3.09422,2.6772 5.76672,4.2597 8.65101,5.1226 1.935,0.5789 4.12452,0.6898 5.86208,0.297 z"
       id="path75" /></g></svg>
