<?xml version="1.0" encoding="UTF-8" standalone="no"?>
<!-- Created with Inkscape (http://www.inkscape.org/) -->

<svg
   width="45.622475mm"
   height="46.185036mm"
   viewBox="0 0 45.622479 46.185036"
   version="1.1"
   id="svg1"
   xml:space="preserve"
   xmlns="http://www.w3.org/2000/svg"
   xmlns:svg="http://www.w3.org/2000/svg"><defs
     id="defs1" /><g
     id="layer1"
     transform="translate(-258.701,-2050.8735)"><path
       style="fill:#ffffff"
       d="m 259.80661,2096.9657 c -0.61159,-0.195 -1.10417,-0.8938 -1.1056,-1.5684 -5.9e-4,-0.2772 0.1442,-0.6753 0.59106,-1.6252 0.20291,-0.4313 0.36893,-0.7948 0.36893,-0.8077 0,-0.013 0.16608,-0.378 0.36906,-0.8113 0.20298,-0.4333 0.45066,-0.9678 0.55039,-1.1879 0.0997,-0.2201 0.34357,-0.7424 0.54187,-1.1605 0.1983,-0.4182 0.5859,-1.2466 0.86133,-1.8409 0.27543,-0.5943 0.66217,-1.4226 0.85942,-1.8408 0.74517,-1.5799 0.89979,-1.9238 0.89979,-2.0019 0,-0.044 -0.2702,-0.5121 -0.60044,-1.0398 -1.68787,-2.6972 -2.69862,-5.4596 -3.08941,-8.4436 -0.14158,-1.081 -0.16158,-1.5549 -0.12832,-3.0413 0.0421,-1.881 0.17536,-2.8851 0.57896,-4.362 0.11429,-0.4182 0.23593,-0.8684 0.27033,-1.0005 0.19456,-0.747 1.39529,-3.4101 1.97721,-4.3852 1.69344,-2.8378 4.32299,-5.589 7.04175,-7.3674 2.73574,-1.7895 5.70449,-2.8878 9.25174,-3.4226 1.64478,-0.248 4.7292,-0.2465 6.34804,0 1.38406,0.2133 3.02486,0.5896 3.96496,0.9093 4.45952,1.5166 7.81266,3.933 10.68504,7.6999 0.88018,1.1543 1.9649,3.0927 2.62018,4.6822 1.28346,3.1132 1.8959,7.0228 1.57762,10.0709 -0.28667,2.7454 -0.64719,4.2618 -1.56312,6.5749 -1.0341,2.6115 -2.75131,5.2012 -4.83519,7.2919 -3.19475,3.2052 -7.033,5.133 -11.72916,5.8911 -1.12176,0.1811 -5.03595,0.2052 -6.16281,0.038 -0.90773,-0.1348 -2.09775,-0.371 -2.72124,-0.5403 -0.26412,-0.072 -0.58827,-0.1587 -0.72033,-0.1933 -0.45853,-0.1203 -1.526,-0.5036 -2.48113,-0.8909 -0.52824,-0.2141 -0.99516,-0.3894 -1.03759,-0.3895 -0.0424,0 -2.00533,0.771 -4.36199,1.7133 -2.35665,0.9424 -5.0751,2.0281 -6.04099,2.4127 -0.96589,0.3846 -1.90232,0.7114 -2.08095,0.7263 -0.17863,0.015 -0.49336,-0.027 -0.69941,-0.092 z m 30.6601,-11.1216 c 1.77129,-0.266 3.33353,-1.1264 4.88048,-2.6878 1.44623,-1.4597 1.53771,-2.3202 0.36982,-3.4784 -0.31191,-0.3094 -0.83559,-0.7924 -1.16374,-1.0734 -0.32816,-0.2811 -0.61466,-0.5323 -0.63667,-0.5583 -0.022,-0.026 -0.31014,-0.2632 -0.64029,-0.5271 -0.33015,-0.264 -0.61828,-0.5011 -0.64029,-0.527 -0.13221,-0.1556 -1.60603,-1.1797 -1.82838,-1.2704 -0.35143,-0.1434 -1.09755,-0.1288 -1.46737,0.029 -0.38885,0.1656 -1.11192,0.766 -2.17081,1.8026 -0.91931,0.9 -1.05335,0.9962 -1.50152,1.0769 -1.16952,0.2107 -3.32745,-1.1131 -5.71943,-3.5086 -2.33162,-2.335 -3.55271,-4.4956 -3.06937,-5.431 0.0497,-0.096 0.7299,-0.8051 1.51158,-1.5754 1.62807,-1.6045 1.80025,-1.8652 1.74418,-2.6404 -0.029,-0.4004 -0.0898,-0.5516 -0.4086,-1.016 -1.05726,-1.5399 -3.47489,-4.2816 -4.13661,-4.6911 -0.43098,-0.2666 -1.34336,-0.246 -1.89494,0.043 -1.19675,0.6268 -2.76359,2.4415 -3.61132,4.1828 -0.52948,1.0876 -0.61843,1.5104 -0.61457,2.9213 0.004,1.321 0.0428,1.545 0.52935,3.0277 0.5236,1.5956 2.12374,4.3552 3.52502,6.0792 4.75392,5.8489 11.05547,9.8075 15.81181,9.9328 0.18738,0 0.69663,-0.044 1.13167,-0.1098 z"
       id="path79" /></g></svg>
