<?xml version="1.0" encoding="UTF-8" standalone="no"?>
<!-- Created with Inkscape (http://www.inkscape.org/) -->

<svg
   width="39.709179mm"
   height="40.59362mm"
   viewBox="0 0 39.709179 40.59362"
   version="1.1"
   id="svg1"
   xml:space="preserve"
   xmlns="http://www.w3.org/2000/svg"
   xmlns:svg="http://www.w3.org/2000/svg"><defs
     id="defs1" /><g
     id="layer1"
     transform="translate(-12.348208,-170.827)"><path
       style="fill:#4d4d4d;stroke-width:0.25"
       d="m 30.593348,211.38693 c -2.904637,-0.25348 -5.960572,-1.29101 -8.590065,-2.91643 -1.379866,-0.85297 -3.335947,-2.46737 -4.313198,-3.55979 -3.00594,-3.36019 -4.677954,-6.93633 -5.228796,-11.18347 -0.133123,-1.02642 -0.153193,-3.51148 -0.03623,-4.48691 0.581818,-4.85242 2.634617,-9.13174 5.997462,-12.50245 5.017891,-5.02964 11.845231,-7.00319 18.421617,-5.32506 4.62431,1.18001 8.9282,4.29032 11.67159,8.4348 2.3842,3.60182 3.54234,7.36542 3.54166,11.50938 -5e-4,5.10872 -1.82339,9.71306 -5.39061,13.61825 -1.08925,1.19247 -2.81501,2.61418 -4.29948,3.54202 -0.82904,0.51817 -2.70329,1.44303 -3.56041,1.75689 -1.46984,0.53824 -3.17069,0.93488 -4.6652,1.08794 -0.62624,0.0641 -2.914429,0.0802 -3.548334,0.0248 z m 3.90556,-3.36147 c 3.00168,-0.4388 5.7117,-1.60576 8.03376,-3.45941 0.81536,-0.65088 2.09536,-1.9293 2.73047,-2.72708 1.66698,-2.09394 2.91088,-4.6529 3.45449,-7.10658 0.4807,-2.16973 0.49026,-4.45196 0.0274,-6.54583 -0.73124,-3.30807 -2.45573,-6.5339 -4.78886,-8.95804 -4.70633,-4.8899 -11.67,-6.40325 -17.839427,-3.87687 -5.939892,2.4324 -10.244018,8.38903 -10.776469,14.91394 -0.271135,3.32261 0.83866,7.17404 2.982805,10.35152 1.639291,2.42933 4.057678,4.57099 6.605167,5.84938 1.94046,0.97377 3.611899,1.42868 6.194254,1.68587 0.550643,0.0548 2.68085,-0.0252 3.3764,-0.1269 z m -3.260177,-4.9981 c -0.467665,-0.1845 -1.024335,-0.70538 -1.254303,-1.17367 l -0.18483,-0.37638 -0.03308,-3.80339 -0.03307,-3.80338 -3.836457,-0.0331 -3.836458,-0.0331 -0.363802,-0.17161 c -0.981359,-0.4629 -1.52138,-1.5589 -1.332283,-2.70392 0.148323,-0.89813 0.574205,-1.50187 1.317702,-1.868 l 0.441476,-0.21741 3.804911,-0.0331 3.804911,-0.0331 0.03327,-3.77031 c 0.03001,-3.40111 0.04471,-3.79901 0.150125,-4.06342 0.545723,-1.36881 2.245818,-1.91976 3.638855,-1.17924 0.45477,0.24175 0.73267,0.54056 0.96664,1.03938 l 0.17205,0.36682 0.0185,3.81739 0.0186,3.81739 3.81787,0.0191 c 3.73963,0.0187 3.82413,0.022 4.12362,0.16045 0.3644,0.16849 0.81229,0.55933 1.02241,0.89219 0.41245,0.65336 0.47871,1.85491 0.14275,2.58873 -0.21584,0.47147 -0.64572,0.93797 -1.07138,1.16266 l -0.33338,0.17598 -3.853,0.0186 -3.85299,0.0186 v 3.66316 c 0,3.41627 -0.009,3.69045 -0.12599,4.06796 -0.19786,0.63573 -0.59677,1.09619 -1.19693,1.38161 -0.31238,0.14856 -0.46665,0.17562 -1.09141,0.19146 -0.608895,0.0154 -0.784177,-0.004 -1.074402,-0.11837 z"
       id="path1" /></g></svg>
