<?xml version="1.0" encoding="UTF-8" standalone="no"?>
<!-- Created with Inkscape (http://www.inkscape.org/) -->

<svg
   width="39.230034mm"
   height="52.739159mm"
   viewBox="0 0 39.230038 52.739158"
   version="1.1"
   id="svg1"
   xml:space="preserve"
   xmlns="http://www.w3.org/2000/svg"
   xmlns:svg="http://www.w3.org/2000/svg"><defs
     id="defs1" /><g
     id="layer1"
     transform="translate(-194.19358,-1974.3075)"><path
       style="fill:#666666;stroke-width:0.653572"
       d="m 196.23064,2026.835 c -0.82108,-0.3283 -1.67643,-1.1961 -1.88738,-1.915 -0.12639,-0.4308 -0.1719,-8.179 -0.13979,-23.8034 l 0.0476,-23.1648 0.38797,-0.7702 c 0.49591,-0.9843 1.67141,-2.063 2.74418,-2.5181 0.83822,-0.3556 0.85869,-0.356 16.45412,-0.356 15.59543,0 15.61591,4e-4 16.45412,0.356 1.07278,0.4551 2.24828,1.5338 2.74419,2.5181 l 0.38796,0.7702 v 23.5222 c 0,23.1461 -0.005,23.5309 -0.35725,24.0644 -0.90642,1.3755 -2.88158,1.896 -4.42649,1.1666 -0.68776,-0.3247 -1.72984,-1.4505 -6.79507,-7.3408 -3.29051,-3.8265 -6.24724,-7.125 -6.5705,-7.33 -0.73791,-0.4679 -2.02076,-0.4994 -2.79088,-0.068 -0.29787,0.1667 -2.04263,2.0486 -3.87725,4.182 -8.51867,9.9061 -8.85311,10.274 -9.63618,10.6003 -0.87067,0.3628 -1.96248,0.3974 -2.73935,0.087 z m 7.64338,-9.1971 c 3.29413,-3.8194 6.28999,-7.1716 6.65745,-7.4496 1.7884,-1.3527 4.82352,-1.3526 6.61212,3e-4 0.36769,0.2781 3.36155,3.6304 6.65303,7.4496 3.52468,4.0897 6.10612,6.9439 6.28037,6.9439 0.16272,0 0.39334,-0.089 0.51248,-0.1988 0.16638,-0.1526 0.21662,-5.4835 0.21662,-22.9864 0,-21.872 -0.0134,-22.8109 -0.3347,-23.3649 -0.18408,-0.3175 -0.65118,-0.7436 -1.03798,-0.9472 l -0.70329,-0.3699 h -14.89278 -14.89279 l -0.70328,0.3699 c -0.3868,0.2036 -0.85389,0.6297 -1.03798,0.9472 -0.32125,0.554 -0.3347,1.4929 -0.3347,23.3649 0,17.5029 0.0502,22.8338 0.21662,22.9864 0.11915,0.1094 0.34776,0.1988 0.50805,0.1988 0.16833,0 2.82111,-2.933 6.28076,-6.9442 z"
       id="path74" /></g></svg>
