<?xml version="1.0" encoding="UTF-8" standalone="no"?>
<!-- Created with Inkscape (http://www.inkscape.org/) -->

<svg
   width="42.041618mm"
   height="50.927124mm"
   viewBox="0 0 42.041623 50.927124"
   version="1.1"
   id="svg1"
   xml:space="preserve"
   xmlns="http://www.w3.org/2000/svg"
   xmlns:svg="http://www.w3.org/2000/svg"><defs
     id="defs1" /><g
     id="layer1"
     transform="translate(-190.99291,-2115.1214)"><path
       style="fill:#ffff00;stroke-width:0.707132"
       d="m 192.47686,2165.7701 c -0.36404,-0.1509 -0.8461,-0.5249 -1.07126,-0.8312 -0.40436,-0.5501 -0.40938,-0.8337 -0.41037,-23.1814 -7.7e-4,-25.5911 -0.12895,-23.6258 1.63339,-25.117 1.84752,-1.5633 0.38784,-1.4461 18.77242,-1.5068 11.07426,-0.037 16.5459,0.01 17.24313,0.1316 1.50605,0.273 2.90591,1.2366 3.72201,2.562 l 0.66833,1.0854 -0.0533,22.8808 -0.0532,22.8806 -0.73263,0.616 c -0.90864,0.7639 -2.01407,0.9442 -3.10936,0.5072 -0.52306,-0.2086 -2.64241,-2.1629 -7.32313,-6.7527 -3.62289,-3.5525 -7.05137,-6.8644 -7.61885,-7.3598 -0.96095,-0.8388 -1.09846,-0.9007 -2.00288,-0.9007 -0.5341,0 -1.14491,0.078 -1.35733,0.1739 -0.21243,0.095 -2.29308,2.0448 -4.6237,4.3316 -2.33061,2.2869 -4.28676,4.1965 -4.34702,4.2437 -0.0603,0.047 -1.47374,1.4252 -3.14105,3.0623 -3.07179,3.0162 -3.71208,3.4613 -4.96572,3.4527 -0.31224,0 -0.86554,-0.1273 -1.22957,-0.2782 z"
       id="path78-3" /></g></svg>
