<?xml version="1.0" encoding="UTF-8" standalone="no"?>
<!-- Created with Inkscape (http://www.inkscape.org/) -->

<svg
   width="50mm"
   height="50.000011mm"
   viewBox="0 0 50 50.000011"
   version="1.1"
   id="svg1"
   xml:space="preserve"
   xmlns="http://www.w3.org/2000/svg"
   xmlns:svg="http://www.w3.org/2000/svg"><defs
     id="defs1" /><g
     id="layer1"
     transform="translate(-147.49138,-88.1981)"><path
       style="fill:#ffdd55;stroke-width:0.468173"
       d="m 168.18899,138.19633 c -0.53713,0.0176 -1.20377,-0.0962 -1.74039,-0.29714 -0.60155,-0.22532 -0.61169,-0.23283 -9.30417,-6.90994 -8.74568,-6.71802 -7.99901,-6.11727 -8.52243,-6.85678 -1.6245,-2.29511 -1.48342,-5.65577 0.32658,-7.77969 0.35105,-0.41194 1.15885,-1.05276 1.61306,-1.27962 1.39056,-0.69452 3.00524,-0.69943 4.38589,-0.0137 0.24127,0.11993 2.55648,1.83385 6.03818,4.47006 l 5.64689,4.2756 7.86195,-12.21448 c 4.32409,-6.71796 9.16003,-14.233931 10.74653,-16.702151 1.58654,-2.46823 3.02197,-4.6487 3.18987,-4.84551 1.33848,-1.56881 3.38256,-2.2125 5.19915,-1.63722 0.59791,0.18933 0.92786,0.35663 1.46956,0.74509 1.16049,0.83221 1.92658,2.087 2.24329,3.67432 0.28014,1.40424 0.16815,2.5834 -0.37335,3.9299 -0.21581,0.53663 -2.10875,3.493741 -19.33832,30.209851 l -6.28546,9.74621 -0.49294,0.40125 c -0.27109,0.2207 -0.67854,0.49327 -0.90541,0.60572 -0.49131,0.24344 -1.2982,0.46279 -1.75848,0.47794 z"
       id="path4" /></g></svg>
