<?xml version="1.0" encoding="UTF-8" standalone="no"?>
<!-- Created with Inkscape (http://www.inkscape.org/) -->

<svg
   width="128.9334mm"
   height="135.40527mm"
   viewBox="0 0 128.9334 135.40527"
   version="1.1"
   id="svg1"
   xml:space="preserve"
   xmlns="http://www.w3.org/2000/svg"
   xmlns:svg="http://www.w3.org/2000/svg"><defs
     id="defs1" /><g
     id="layer1"
     transform="translate(-50.199983,-67.080829)"><path
       style="fill:#4d4d4d"
       d="m 63.257712,202.06441 c -3.20572,-0.84048 -5.7267,-2.75746 -7.48698,-5.69318 -1.83737,-3.06428 -1.75195,-0.93982 -1.75195,-43.57656 v -38.40356 l -1.98241,-8.07265 c -1.13627,-4.62705 -1.91723,-8.332364 -1.8297,-8.681104 0.37957,-1.51234 0.57127,-1.57469 18.01661,-5.85961 26.11622,-6.41466 84.902288,-20.84252 93.160628,-22.8644 4.11672,-1.00789 7.71648,-1.83252 7.99948,-1.83252 0.28299,0 0.87315,0.32742 1.31146,0.7276 0.73837,0.67413 0.95044,1.35181 2.88547,9.22086 1.21256,4.93105 2.03209,8.78849 1.95396,9.19717 -0.22125,1.15741 -1.42464,1.92179 -3.96618,2.51928 -1.27781,0.3004 -14.22954,3.4703 -28.78162,7.04421 -14.55208,3.57392 -30.86365,7.579984 -36.24792,8.902384 -5.38427,1.32239 -13.778168,3.39424 -18.653118,4.60412 l -8.86354,2.19977 48.864538,0.0173 c 31.05972,0.011 49.11179,0.1113 49.54311,0.27529 0.37321,0.14189 0.91781,0.64791 1.21023,1.12448 0.52706,0.85899 0.53107,1.20763 0.46314,40.2894 l -0.0685,39.42292 -0.68468,1.75817 c -1.31736,3.38277 -3.96131,6.06063 -7.32564,7.41959 l -1.51468,0.61182 -52.2552,0.0529 c -48.735868,0.0493 -52.372478,0.0221 -53.996478,-0.40365 z m 105.372558,-5.08178 c 1.67671,-0.4657 3.40967,-1.84957 4.29645,-3.43098 l 0.81601,-1.45521 0.0717,-29.43489 0.0717,-29.4349 H 116.59382 59.301462 l 0.0706,29.4349 c 0.0689,28.71489 0.0834,29.46078 0.59384,30.49322 0.72124,1.45894 2.56535,3.18566 3.911,3.66204 0.98233,0.34777 7.51351,0.39965 52.451208,0.41664 34.18281,0.0129 51.65417,-0.0709 52.30212,-0.25082 z M 66.541172,191.31387 c -0.46148,-0.20075 -0.9675,-0.60498 -1.12448,-0.8983 -0.19832,-0.37057 -0.28542,-8.07635 -0.28542,-25.25315 v -24.71986 l 0.69754,-0.69754 0.69754,-0.69754 h 29.29659 29.296588 l 0.69754,0.69754 c 0.97846,0.97846 0.97902,2.65298 0.001,3.63078 l -0.69631,0.69632 -27.415658,0.0674 -27.41567,0.0674 v 21.03437 21.03438 l 46.235928,0.0669 46.23594,0.0669 v -21.16741 -21.1674 h -3.6453 c -4.08514,0 -4.5721,-0.1628 -5.07873,-1.69793 -0.35525,-1.0764 0.14414,-2.57918 1.01132,-3.04328 0.33395,-0.17872 2.61455,-0.28588 6.0843,-0.28588 h 5.55012 l 0.68498,0.81405 0.68498,0.81406 v 24.4412 c 0,17.71355 -0.0829,24.6232 -0.30125,25.10237 -0.71792,1.57566 2.56611,1.48137 -51.2002,1.47005 -41.200828,-0.009 -49.308528,-0.0695 -50.011568,-0.37534 z m 43.816788,-12.51274 c -0.93941,-0.47636 -1.70952,-1.12362 -2.23026,-1.87449 l -0.79539,-1.14688 -0.0752,-10.19406 c -0.0737,-9.99319 -0.0639,-10.2174 0.49814,-11.37846 1.09101,-2.25374 3.76949,-3.56453 6.16019,-3.01468 1.89009,0.43472 16.67072,8.97503 17.94181,10.36686 2.02826,2.22092 1.91983,5.63049 -0.24448,7.68748 -1.03438,0.9831 -15.3098,9.32182 -16.98136,9.91934 -1.48541,0.53099 -2.71315,0.42609 -4.27343,-0.36511 z m 10.1132,-8.87974 c 4.12426,-2.37361 7.49865,-4.46733 7.49865,-4.65269 0,-0.39583 -14.92401,-9.06995 -15.25408,-8.86595 -0.30606,0.18915 -0.28987,17.83432 0.0164,17.83432 0.13222,0 3.6148,-1.94206 7.73906,-4.31568 z m 19.08776,-26.31573 c -1.22655,-0.96385 -1.31282,-2.68394 -0.1951,-3.88997 0.48382,-0.52205 0.8773,-0.66821 1.79901,-0.66821 0.99254,0 1.28842,0.12917 1.86471,0.81405 0.4383,0.52089 0.68498,1.13293 0.68498,1.6995 0,0.56656 -0.24668,1.17861 -0.68498,1.69949 -0.56515,0.67165 -0.87757,0.81302 -1.78594,0.80816 -0.63434,-0.003 -1.3475,-0.19962 -1.68268,-0.46302 z M 65.925022,127.85878 c 0,-0.0419 -1.48828,-1.47938 -3.30729,-3.19437 l -3.30729,-3.11816 v 3.19437 3.19437 h 3.30729 c 1.81901,0 3.30729,-0.0343 3.30729,-0.0762 z m 13.62605,-5.48004 -5.55153,-5.55625 h -5.82083 -5.82083 l 5.55152,5.55625 5.55152,5.55625 h 5.82084 5.82083 z m 24.341658,0 -5.551518,-5.55625 h -8.46667 -8.46667 l 5.55153,5.55625 5.55152,5.55625 h 8.466668 8.46667 z m 19.05,0 -5.55152,-5.55625 h -5.82084 -5.82083 l 5.55152,5.55625 5.55153,5.55625 h 5.82083 5.82083 z m 24.60625,0 -5.55153,-5.55625 h -8.40288 c -4.62158,0 -8.40288,0.0882 -8.40288,0.19607 0,0.10784 2.40992,2.60815 5.35539,5.55625 l 5.35539,5.36018 h 8.59902 8.59901 z m 19.05,0 -5.55153,-5.55625 h -5.82083 -5.82083 l 5.55152,5.55625 5.55153,5.55625 h 5.82083 5.82083 z m 7.27604,-2.91042 v -2.64583 h -2.70702 -2.70701 l 2.6359,2.64583 c 1.44975,1.45521 2.66791,2.64583 2.70702,2.64583 0.0391,0 0.0711,-1.19062 0.0711,-2.64583 z M 61.633602,110.30346 c 1.55992,-0.38401 2.922,-0.7734 3.02684,-0.86531 0.10484,-0.0919 -1.53227,-1.20146 -3.63802,-2.46565 -2.10576,-1.2642 -3.82967,-2.21427 -3.83091,-2.11126 -0.005,0.38526 1.40379,6.14041 1.50274,6.14041 0.0567,0 1.37943,-0.31419 2.93935,-0.69819 z m 16.40849,-4.02535 c 2.80808,-0.69334 5.1298,-1.33926 5.15937,-1.43539 0.0296,-0.0961 -2.89693,-1.95957 -6.50335,-4.14099 l -6.55713,-3.966204 -5.55705,1.35565 c -3.36245,0.82028 -5.4614,1.45132 -5.31484,1.59787 0.53655,0.536554 12.90165,7.851584 13.27052,7.850664 0.21828,-5.4e-4 2.6944,-0.56826 5.50248,-1.2616 z m 20.77465,-5.09798 c 4.246998,-1.03622 7.869028,-1.962784 8.048948,-2.059034 0.19119,-0.10227 -2.44751,-1.8465 -6.35,-4.19746 l -6.677118,-4.02246 -8.1532,2.00729 c -4.48425,1.10401 -8.07875,2.0845 -7.98777,2.17888 0.2718,0.28196 12.94766,7.932054 13.18164,7.955344 0.11861,0.0118 3.69049,-0.82635 7.9375,-1.86256 z m 21.381798,-5.261664 c 2.94239,-0.72867 5.39669,-1.37175 5.45401,-1.42907 0.0573,-0.0573 -2.89956,-1.90856 -6.57085,-4.11387 l -6.67508,-4.00964 -5.05069,1.2149 c -2.77789,0.66819 -5.27833,1.30728 -5.55655,1.42018 -0.40268,0.16341 0.83863,1.02317 6.08541,4.21491 3.6252,2.20529 6.67513,4.01363 6.77762,4.01853 0.10249,0.005 2.59375,-0.58727 5.53613,-1.31594 z m 21.61987,-5.30675 c 4.26974,-1.04097 7.66303,-1.9805 7.54062,-2.08785 -0.1224,-0.10735 -3.13561,-1.95433 -6.69602,-4.10441 l -6.47346,-3.90923 -7.81404,1.91722 c -4.29771,1.05446 -7.96822,1.99941 -8.15668,2.09988 -0.48301,0.25749 12.61212,8.20388 13.30723,8.07509 0.29104,-0.0539 4.0226,-0.94974 8.29235,-1.9907 z m 20.80139,-5.09754 5.54583,-1.39556 -3.69374,-2.25234 c -2.03156,-1.23879 -5.05004,-3.06598 -6.70773,-4.06042 l -3.01399,-1.80807 -5.32039,1.26379 c -2.92621,0.69508 -5.41201,1.34618 -5.52399,1.44689 -0.1635,0.14704 12.56528,8.1425 13.0359,8.18837 0.0728,0.007 2.62791,-0.6151 5.67811,-1.38266 z m 5.12011,-10.20034 c -0.36606,-1.50097 -0.70516,-2.38219 -0.88945,-2.31147 -0.16382,0.0629 -1.26969,0.33273 -2.45748,0.5997 -1.1878,0.26697 -2.15963,0.54812 -2.15963,0.62477 0,0.17818 5.90326,3.70767 6.01477,3.59617 0.0459,-0.0459 -0.18283,-1.175 -0.50821,-2.50917 z"
       id="path1" /></g></svg>
