<?xml version="1.0" encoding="UTF-8" standalone="no"?>
<!-- Created with Inkscape (http://www.inkscape.org/) -->

<svg
   width="101.29863mm"
   height="89.209801mm"
   viewBox="0 0 101.29864 89.2098"
   version="1.1"
   id="svg1"
   xml:space="preserve"
   xmlns="http://www.w3.org/2000/svg"
   xmlns:svg="http://www.w3.org/2000/svg"><defs
     id="defs1" /><g
     id="layer1"
     transform="translate(230.63838,-1949.0509)"><path
       style="fill:#666666;stroke-width:0.512304"
       d="m -220.05076,2038.2063 c -6.52369,-0.098 -7.11132,-0.1478 -8.19493,-0.6917 -0.65087,-0.3267 -1.53095,-1.244 -1.87048,-1.9495 -0.40647,-0.8446 -0.5822,-2.0317 -0.50412,-3.4055 0.12043,-2.118 0.79507,-3.499 2.09839,-4.2954 1.44091,-0.8806 0.99407,-0.8503 13.37032,-0.9054 6.18818,-0.027 11.25122,-0.069 11.25122,-0.094 0,-0.056 -2.18631,-6.3483 -2.64748,-7.6203 -0.18976,-0.5234 -1.04471,-2.9398 -1.89986,-5.3699 -0.85515,-2.43 -1.79441,-5.0779 -2.08725,-5.8845 -0.29284,-0.8065 -0.59795,-1.9382 -0.67803,-2.515 -0.23168,-1.6687 -0.16396,-1.9988 3.39344,-16.5464 3.57861,-14.6344 4.21618,-17.135 4.55082,-17.8489 0.40827,-0.8709 1.53549,-2.0613 2.34556,-2.477 0.91039,-0.4672 2.24698,-0.7133 3.44243,-0.634 1.44066,0.096 2.55218,0.5029 3.52758,1.2929 0.85627,0.6935 2.08553,2.4757 5.38723,7.8105 0.88919,1.4367 2.56166,4.0927 3.71662,5.9022 1.15495,1.8095 3.01218,4.7308 4.12717,6.4917 1.11499,1.761 2.51379,3.9589 3.10845,4.8845 0.59466,0.9254 1.68937,2.6621 2.4327,3.8593 l 1.35149,2.1766 0.60818,0.101 c 0.33449,0.056 5.50397,0.1436 11.48774,0.1957 8.25821,0.072 11.00982,0.1369 11.42017,0.2691 2.17549,0.7012 3.70356,2.4099 4.11718,4.6037 0.28496,1.5114 0.4323,7.4228 0.4547,18.2427 0.0265,12.8067 0.0693,12.2657 -1.05895,13.3846 -0.80072,0.7939 -1.65844,1.0746 -3.24263,1.0608 -2.0791,-0.018 -3.2967,-0.7092 -4.01404,-2.2783 l -0.31075,-0.6797 -0.0374,-11.7933 c -0.0233,-7.3664 -0.0858,-11.7933 -0.16631,-11.7933 -0.0709,0 -0.44941,0.2056 -0.8411,0.4568 -0.96953,0.6219 -2.85287,1.5158 -3.73735,1.774 -3.19607,0.933 -6.22352,-0.3298 -7.65749,-3.194 -0.5639,-1.1264 -0.77652,-1.2214 -2.93766,-1.3137 -1.96808,-0.084 -2.87131,0.083 -4.48246,0.8276 -1.20251,0.5559 -1.24931,0.5656 -2.71029,0.5623 -1.40772,-0.01 -1.55481,-0.031 -2.77058,-0.5258 -2.01956,-0.8219 -4.25618,-1.2043 -5.53677,-0.9467 -0.54984,0.1106 -0.57844,-0.088 0.66154,4.6027 1.78578,6.7558 3.77698,14.8028 4.06929,16.4452 0.55609,3.1243 0.20798,5.0628 -1.14804,6.3932 -0.84033,0.8244 -1.92435,1.2408 -3.51959,1.3518 -1.7542,0.122 -27.96645,0.177 -34.86868,0.073 z m 29.38681,-8.7436 c 0.13099,-0.3466 -0.008,-1.2743 -0.59617,-3.9644 -0.64184,-2.9382 -1.96149,-7.9811 -3.71757,-14.2062 -1.04742,-3.7131 -1.26364,-4.836 -1.19069,-6.1832 0.0938,-1.7301 0.74668,-2.8887 2.06517,-3.6644 1.1042,-0.6495 1.82918,-0.7692 5.40723,-0.8922 1.85832,-0.064 3.39396,-0.1207 3.41254,-0.1261 0.0186,-0.01 0.0338,-0.1099 0.0338,-0.2322 0,-0.205 -0.51585,-1.0566 -3.36213,-5.5507 -0.56664,-0.8946 -1.09106,-1.736 -1.1654,-1.8695 -0.47054,-0.8455 -5.40166,-8.5333 -5.47356,-8.5335 -0.0372,-10e-5 -0.60695,2.2172 -1.2662,4.9272 -0.65923,2.71 -1.54958,6.365 -1.97854,8.1221 -1.31978,5.406 -1.40304,5.8288 -1.40529,7.1371 -0.002,1.0432 0.0735,1.464 0.5112,2.855 0.56764,1.804 2.3192,6.9925 3.60259,10.6716 1.29857,3.7228 3.32979,9.7554 3.65041,10.8417 l 0.2909,0.9856 h 0.53079 c 0.43202,0 0.55312,-0.059 0.65093,-0.3179 z m 51.97345,-23.2915 c -4.36999,-0.339 -7.74082,-3.8235 -8.00482,-8.2747 -0.14777,-2.4914 0.64012,-4.5911 2.36725,-6.3086 1.14307,-1.1368 2.20835,-1.778 3.65063,-2.1977 6.89484,-2.0061 13.18758,4.542 10.8351,11.2747 -1.23223,3.5265 -4.90522,5.8123 -8.84816,5.5063 z m -54.59419,-40.1642 c -1.79812,-0.2636 -3.26226,-1.0257 -4.68281,-2.4373 -1.68263,-1.6722 -2.46105,-3.5747 -2.47309,-6.0442 -0.0114,-2.3002 0.71255,-4.135 2.27068,-5.7567 1.61962,-1.6857 3.45264,-2.5445 5.7573,-2.6975 4.11012,-0.2728 7.75015,2.2018 8.93665,6.0752 0.43768,1.4289 0.44705,3.61 0.0213,4.962 -1.30694,4.1503 -5.32166,6.5593 -9.83004,5.8985 z"
       id="path70" /></g></svg>
