<?xml version="1.0" encoding="UTF-8" standalone="no"?>
<!-- Created with Inkscape (http://www.inkscape.org/) -->

<svg
   width="123.98706mm"
   height="91.455811mm"
   viewBox="0 0 123.98707 91.455812"
   version="1.1"
   id="svg1"
   xml:space="preserve"
   xmlns="http://www.w3.org/2000/svg"
   xmlns:svg="http://www.w3.org/2000/svg"><defs
     id="defs1" /><g
     id="layer1"
     transform="translate(-240.68907,97.905545)"><path
       style="fill:#4d4d4d"
       d="m 276.42281,-6.7264476 c -0.2587,-0.1544 -0.53914,-0.28302 -0.62319,-0.28583 -0.19527,-0.007 -0.96431,-0.74887 -0.96431,-0.93084 0,-0.0757 -0.12966,-0.19671 -0.28813,-0.26892 -0.40438,-0.18424 -0.57831,-0.73237 -0.36395,-1.14691 0.0914,-0.17677 0.25521,-0.39527 0.364,-0.48555 0.24916,-0.2067804 0.97029,-0.4613704 1.31344,-0.4637004 0.29037,-0.002 0.9361,-0.33483 1.56168,-0.805 1.09086,-0.81988 3.98132,-4.17339 4.17274,-4.84122 0.0463,-0.16169 0.21677,-0.58502 0.37873,-0.94074 0.16196,-0.35572 0.34801,-0.77905 0.41346,-0.94074 0.0654,-0.16169 0.16573,-0.38587 0.22286,-0.49817 0.0571,-0.11231 0.10387,-0.30762 0.10387,-0.43403 0,-0.12642 0.0529,-0.262549 0.1176,-0.302521 0.0647,-0.03997 0.11759,-0.198722 0.11759,-0.352778 0,-0.154056 0.0468,-0.309035 0.10403,-0.344399 0.0572,-0.03536 0.13334,-0.210465 0.16916,-0.389116 0.0358,-0.17865 0.12129,-0.549714 0.18994,-0.824587 0.0686,-0.274873 0.18064,-0.724665 0.24885,-0.999537 0.5845,-2.355322 1.02095,-5.606039 1.2828,-9.554399 0.0729,-1.099491 0.1776,-2.607616 0.23263,-3.351389 0.11359,-1.535376 0.0753,-2.736344 -0.13893,-4.350926 -0.0995,-0.749734 -0.14818,-2.770412 -0.14819,-6.144218 l -1e-5,-5.027087 -1.26412,4e-6 c -0.71566,2e-6 -1.26412,0.04824 -1.26412,0.111173 0,0.06114 -0.38365,0.298472 -0.85255,0.527399 -0.79229,0.386813 -1.47264,0.606321 -2.79283,0.901078 -0.29104,0.06498 -0.74083,0.170896 -0.99953,0.235367 -2.14226,0.533865 -3.2189,0.739492 -5.17408,0.988194 -1.87276,0.238219 -3.80188,0.529137 -3.99164,0.601956 -0.13883,0.05328 -0.52438,0.753337 -0.78576,1.426735 -0.0565,0.145521 -0.14891,0.383646 -0.20539,0.529167 -0.0565,0.145521 -0.22193,0.529166 -0.36767,0.852546 -0.14574,0.32338 -0.31827,0.720255 -0.38341,0.881945 -0.0651,0.161689 -0.16326,0.399814 -0.21804,0.529166 -0.12129,0.286348 -0.76071,2.035212 -1.01037,2.763426 -0.11178,0.32603 -0.16532,0.800017 -0.13947,1.234723 0.10148,1.706461 0.0266,2.641517 -0.25548,3.189958 -0.33124,0.644031 -1.00131,1.356569 -1.89729,2.017544 -0.46105,0.340118 -0.84646,0.772646 -1.23472,1.385689 -0.8165,1.28917 -1.22771,1.813923 -1.58904,2.027806 l -0.31902,0.188836 -0.29834,-0.280276 c -0.23458,-0.220375 -0.29834,-0.39458 -0.29834,-0.815109 v -0.534834 l -0.20228,0.290749 c -0.61248,0.880358 -1.33064,1.168481 -1.78356,0.71556 -0.13663,-0.136632 -0.24842,-0.327798 -0.24842,-0.424812 0,-0.223759 -0.16471,-0.226607 -0.34779,-0.006 -0.19726,0.237692 -0.89444,0.449716 -1.18036,0.35897 -0.13107,-0.0416 -0.31318,-0.220402 -0.40467,-0.397334 l -0.16636,-0.321693 0.27211,-0.66951 0.27211,-0.66951 h -0.57774 -0.57775 l -0.11954,-0.314411 c -0.0657,-0.172925 -0.0869,-0.462921 -0.047,-0.644435 0.086,-0.391447 1.35248,-1.592288 2.25483,-2.137928 0.33855,-0.204714 0.61704,-0.406719 0.61887,-0.448899 0.002,-0.04218 -0.15149,-0.130665 -0.34073,-0.196634 -0.48465,-0.168951 -0.75875,-0.628611 -0.66687,-1.118349 0.10282,-0.548083 0.38827,-0.660228 1.95184,-0.766802 1.44736,-0.09865 1.98271,-0.271761 2.54133,-0.821755 0.35669,-0.351187 1.10388,-1.871802 1.10388,-2.246528 0,-0.134469 0.0478,-0.336374 0.1061,-0.44868 0.0925,-0.178059 0.27578,-1.539786 0.45048,-3.347363 l 0.0537,-0.556135 -0.99052,0.457622 c -0.54478,0.251692 -1.51555,0.627768 -2.15725,0.835723 -0.6417,0.207956 -1.27256,0.417194 -1.40191,0.464973 -1.71366,0.63299 -3.21646,0.378004 -3.23006,-0.548054 -0.002,-0.140132 -0.0647,-0.275117 -0.13929,-0.299967 -0.17355,-0.05785 -0.19543,-2.475805 -0.0244,-2.698512 0.0663,-0.08631 0.18968,-0.474423 0.27424,-0.862479 0.1067,-0.489667 0.24693,-0.785453 0.4583,-0.966674 0.1908,-0.163597 0.26153,-0.299482 0.18937,-0.36384 -0.17941,-0.160005 -1.33908,-0.56901 -2.06811,-0.729402 -0.6218,-0.1368 -0.95245,-0.127931 -2.80435,0.07522 -0.62474,0.06853 -1.82529,-0.122469 -2.05721,-0.327293 -0.0614,-0.05426 -0.1842,-0.09866 -0.27279,-0.09866 -0.18047,0 -1.06668,-0.578372 -1.63446,-1.066705 -0.21711,-0.186729 -0.58524,-0.353479 -0.88194,-0.399479 -2.37281,-0.367881 -4.08733,-1.737653 -4.93548,-3.943075 -0.11144,-0.289777 -0.15409,-0.968362 -0.14412,-2.293056 l 0.0142,-1.881482 0.37401,-0.705555 c 0.47141,-0.889293 1.74446,-2.142201 2.59465,-2.553593 1.93076,-0.934261 3.65472,-1.097853 7.23194,-0.686264 2.68764,0.309235 3.2576,0.295468 4.90949,-0.118592 1.92656,-0.482904 2.1778,-0.595646 2.26972,-1.018501 0.22097,-1.01649 0.99344,-2.383965 1.81663,-3.215901 0.66794,-0.675043 0.86818,-0.803939 1.5875,-1.021899 0.45273,-0.137182 1.01803,-0.280777 1.25623,-0.319102 l 0.43309,-0.06968 -0.0475,-1.083882 -0.0475,-1.083882 0.16605,0.764351 c 0.269,1.23819 0.32001,1.411112 0.41627,1.411112 0.0503,0 0.12121,0.410104 0.15761,0.911342 0.0364,0.501239 0.11715,1.202385 0.17947,1.558102 0.61215,3.494571 0.84257,5.600425 0.88778,8.11389 0.0374,2.079386 -0.0283,2.494054 -0.78273,4.938889 -0.18959,0.614421 -0.39338,1.279637 -0.45285,1.478256 -0.0595,0.19862 -0.10813,0.651057 -0.10813,1.005417 0,0.35436 -0.0472,0.694561 -0.10481,0.756003 -0.11816,0.12595 -0.20042,0.876261 -0.3668,3.34551 -0.13159,1.953091 -0.29405,3.510431 -0.47227,4.527315 -0.068,0.388055 -0.15364,0.904324 -0.19028,1.147265 -0.0366,0.24294 -0.11394,0.470959 -0.17178,0.506708 -0.0579,0.03575 -0.10575,0.260314 -0.10645,0.499032 -0.002,0.539921 -0.2389,1.336772 -0.62509,2.098886 -0.52282,1.031728 -1.60126,1.565477 -3.18078,1.574246 -0.52544,0.0029 -1.10753,0.07029 -1.29352,0.149719 l -0.33817,0.144415 0.19954,0.165604 c 0.12582,0.104417 0.62007,0.190304 1.33771,0.232457 l 1.13816,0.06685 v 0.289161 c 0,0.226425 -0.0765,0.305241 -0.35278,0.363276 -0.43435,0.09126 -1.69919,0.72502 -2.41065,1.207886 -0.88659,0.601738 -1.72352,1.460877 -1.57134,1.613053 0.28207,0.282074 1.99349,-0.503988 3.09735,-1.422624 0.65254,-0.543057 1.06103,-0.68208 1.06103,-0.361109 0,0.181641 -0.82555,0.949056 -1.55066,1.441475 -0.93575,0.635456 -2.02641,2.099501 -1.76143,2.364472 0.29205,0.292051 0.81877,-0.07563 2.32236,-1.621129 0.84618,-0.869764 1.57379,-1.546115 1.6169,-1.503002 0.21915,0.219148 -0.002,0.625958 -0.78419,1.445069 -1.13234,1.185209 -1.55267,2.004306 -1.02852,2.004306 0.40541,0 0.60023,-0.137781 0.97608,-0.690306 0.20368,-0.299429 0.40283,-0.570875 0.44255,-0.603213 0.0397,-0.03234 0.19853,-0.244004 0.35291,-0.47037 0.59046,-0.865818 1.20795,-1.528704 1.42403,-1.528704 0.35537,0 0.26536,0.340655 -0.23284,0.881132 -0.45643,0.495168 -0.83645,1.452061 -0.83645,2.10618 0,0.241136 0.0575,0.305281 0.27349,0.305281 0.35086,0 0.67582,-0.360192 1.0804,-1.19754 0.35512,-0.734964 1.00671,-1.455462 1.82111,-2.013699 0.93478,-0.640747 1.28768,-1.112706 1.63468,-2.18617 0.16149,-0.499591 0.16956,-1.854516 0.0116,-1.952128 -0.33603,-0.207676 0.1006,-1.629052 1.60748,-5.232871 1.11381,-2.663793 1.13099,-2.706231 1.33233,-3.292593 0.0777,-0.226366 0.18624,-0.517407 0.24113,-0.646759 0.13363,-0.314898 0.46749,-1.319472 0.59598,-1.793287 0.057,-0.210197 0.16054,-0.580614 0.2301,-0.823149 0.52533,-1.831831 0.83207,-3.94901 0.8799,-6.073283 0.0202,-0.898789 0.10351,-1.904205 0.18504,-2.234259 0.15777,-0.638648 0.20871,-8.497686 0.0611,-9.419542 -0.19099,-1.192465 -0.21802,-2.189982 -0.0793,-2.925395 0.0808,-0.428325 0.19257,-0.778772 0.24833,-0.778772 0.0558,0 0.0895,0.765705 0.0749,1.701568 l -0.0265,1.701568 1.88643,1.855608 c 1.03754,1.020585 2.04296,1.988145 2.23426,2.150135 0.1913,0.16199 0.77232,0.664699 1.29116,1.11713 1.99004,1.735354 3.66678,2.998897 4.64231,3.498311 0.49233,0.252045 1.74486,0.955481 2.70463,1.518957 0.22637,0.132898 0.43803,0.27789 0.47037,0.322205 0.0323,0.04431 0.24401,0.207765 0.47037,0.363223 0.22637,0.155457 0.43803,0.312998 0.47037,0.350091 0.1357,0.155644 1.84922,1.375294 2.45734,1.74908 1.05506,0.648507 1.62195,0.896124 3.2459,1.417831 0.84079,0.270108 1.661,0.548862 1.82269,0.619452 0.16169,0.07059 0.39981,0.167704 0.52917,0.215809 0.67416,0.250716 2.12297,0.997638 3.99814,2.061211 0.73022,0.414171 2.32102,1.204892 3.41019,1.695062 0.45273,0.203747 2.06669,0.985192 3.58657,1.736543 3.23552,1.59947 2.72242,1.383388 5.26796,2.218498 1.29667,0.425397 2.27724,0.82344 2.70463,1.097893 0.8965,0.575696 1.48455,0.838142 3.02232,1.348849 0.71144,0.236273 1.41258,0.481234 1.5581,0.544357 0.14552,0.06312 0.39688,0.167686 0.55857,0.232362 0.16169,0.06468 0.42627,0.170509 0.58796,0.235185 0.16169,0.06468 0.42627,0.170509 0.58796,0.235185 0.16169,0.06468 0.41305,0.165236 0.55857,0.223466 0.14552,0.05823 0.51536,0.21698 0.82186,0.352778 0.30651,0.135797 0.58835,0.246904 0.62632,0.246904 0.038,0 0.97781,0.445159 2.08855,0.989241 2.62112,1.283928 3.03332,1.415796 4.13455,1.322707 0.85236,-0.07205 1.77958,-0.254461 2.23589,-0.439861 0.12936,-0.05256 1.92852,-0.125414 3.99815,-0.161907 4.51608,-0.07963 9.04131,-0.37155 12.6412,-0.815481 3.71027,-0.457542 8.75678,-0.287709 10.40695,0.350231 0.98393,0.380379 1.73564,1.273965 2.71175,3.223589 0.93047,1.858466 1.30589,2.335524 2.64672,3.3633 0.63858,0.489483 1.26573,1.059328 1.39366,1.266322 0.30299,0.490253 0.6232,1.86122 0.60371,2.58482 -0.0144,0.535196 0.13008,0.899447 0.35678,0.899447 0.18742,0 0.92163,-0.722427 1.10231,-1.08462 0.20405,-0.409014 0.25868,-2.703043 0.0756,-3.172578 -0.058,-0.148564 -0.1634,-0.481783 -0.23434,-0.740487 -0.0709,-0.258704 -0.29245,-0.973079 -0.49222,-1.5875 -0.26754,-0.822838 -0.37973,-1.426911 -0.42585,-2.293056 -0.0621,-1.165634 -0.0306,-1.372477 0.45585,-2.998611 0.0677,-0.226366 0.17912,-0.87268 0.24756,-1.436254 0.14304,-1.177944 -2e-4,-1.847933 -0.45938,-2.1488 -0.37081,-0.242964 -1.93519,-0.234272 -2.63165,0.01462 -0.29104,0.104009 -0.68791,0.230945 -0.88194,0.28208 -0.19403,0.05114 -0.67028,0.181454 -1.05834,0.289596 -0.88741,0.247303 -1.71327,0.189704 -4.05694,-0.282946 -0.29104,-0.05869 -0.84667,-0.169428 -1.23472,-0.246075 -0.38806,-0.07665 -0.93045,-0.187377 -1.20533,-0.246068 -0.27487,-0.05869 -0.72466,-0.15473 -0.99953,-0.21342 -4.89969,-1.046176 -7.26019,-1.317582 -11.42964,-1.314162 -1.8075,0.0015 -3.95062,0.05998 -4.7625,0.129986 -0.81188,0.07001 -2.32282,0.202302 -3.35763,0.293982 -1.03482,0.09168 -2.30482,0.199425 -2.82222,0.239432 l -0.94074,0.07274 -0.6849,-0.392587 c -0.8891,-0.509643 -3.37873,-2.124136 -3.61014,-2.341129 -0.0986,-0.09247 -0.41611,-0.352606 -0.70555,-0.578082 -0.28945,-0.225477 -0.60564,-0.476064 -0.70266,-0.55686 -0.63182,-0.526203 -3.61088,-2.569846 -4.66896,-3.202915 -1.55799,-0.932178 -1.81703,-1.182343 -2.07499,-2.00388 -1.00283,-3.193738 -3.22362,-5.693929 -5.76459,-6.489862 -0.80619,-0.252527 -2.07982,-0.45279 -3.34268,-0.525591 -1.09166,-0.06293 -1.34807,-0.113068 -1.43804,-0.281183 -0.22611,-0.422481 0.11047,-0.490652 1.78961,-0.362474 3.05293,0.233046 4.87526,0.991762 6.44503,2.683344 0.98104,1.057173 0.98844,1.06745 1.74189,2.418127 0.24687,0.442566 0.91163,2.125941 1.01,2.557639 0.0419,0.183715 0.28764,0.437328 0.65526,0.676158 0.32354,0.210196 0.61362,0.382176 0.6446,0.382176 0.11301,0 3.18134,2.031243 3.21939,2.131235 0.0216,0.05666 0.0871,0.103024 0.14567,0.103024 0.1188,0 1.15406,0.762972 2.40217,1.770348 1.24546,1.005246 3.30126,2.368357 4.31246,2.859405 l 0.90228,0.438156 1.50837,-0.12538 c 0.8296,-0.06896 1.79941,-0.151389 2.15513,-0.183179 0.35571,-0.03179 1.22884,-0.109388 1.94027,-0.172441 6.6036,-0.585261 9.66601,-0.424695 16.16899,0.847762 1.32585,0.259434 2.64877,0.521028 2.93981,0.58132 3.42405,0.709325 4.47573,0.847971 5.29642,0.698242 1.00584,-0.183509 1.32966,-0.2571 1.58275,-0.359687 0.22613,-0.09166 0.71801,-0.22846 1.58287,-0.440221 0.35187,-0.08615 0.42078,-0.162892 0.50912,-0.566937 0.12243,-0.559961 0.0289,-1.83104 -0.16192,-2.201136 -0.32333,-0.627004 -0.58833,-0.7944 -1.25759,-0.7944 h -0.63885 l -1.07515,0.743004 c -0.59133,0.408652 -1.31327,0.849771 -1.60432,0.980265 -0.77462,0.347314 -2.09027,0.55698 -2.95894,0.471545 -1.40964,-0.13864 -1.92213,-0.20673 -2.33272,-0.309933 -0.22637,-0.0569 -0.72908,-0.167796 -1.11713,-0.246441 -0.38806,-0.07865 -1.07597,-0.236587 -1.52871,-0.35098 -1.77291,-0.447965 -4.76826,-1.037337 -6.58518,-1.295716 -2.46856,-0.351045 -6.74694,-0.402347 -8.17269,-0.098 -0.29104,0.06213 -0.79375,0.166578 -1.11713,0.232114 -0.84301,0.170841 -1.42251,0.335805 -2.29555,0.653457 -0.42176,0.153459 -0.8392,0.279016 -0.92763,0.279016 -0.16741,0 -1.89147,-1.113529 -2.30624,-1.489548 -1.57873,-1.431217 -2.94772,-2.551017 -3.87798,-3.172103 -1.41964,-0.947814 -2.76277,-1.805942 -2.82664,-1.805942 -0.135,0 -2.81709,-1.79805 -2.9577,-1.982817 -0.0806,-0.105955 -0.14829,-0.430791 -0.15035,-0.721856 -0.002,-0.291066 -0.0871,-0.899608 -0.18905,-1.352315 -0.10192,-0.452708 -0.21523,-0.955396 -0.25179,-1.117086 -0.13088,-0.578752 -0.93062,-2.305675 -1.38408,-2.988718 -0.93129,-1.402793 -2.39275,-2.515724 -3.76447,-2.866725 -1.67898,-0.429627 -1.76022,-0.435787 -5.40473,-0.409862 l -3.64084,0.0259 -0.76888,-0.280708 c -1.51768,-0.554086 -2.30575,-0.914142 -3.27974,-1.498441 -0.41084,-0.246462 -0.77319,-0.448112 -0.80524,-0.448112 -0.0667,0 -1.94513,-1.303932 -2.03436,-1.4122 -0.0323,-0.03924 -0.17472,-0.150431 -0.3164,-0.247096 -1.06392,-0.72588 -4.41689,-4.011435 -6.26111,-6.135215 -0.60566,-0.697467 -1.15942,-1.306009 -1.23059,-1.352315 -0.20442,-0.133002 -0.77548,-0.908405 -1.82578,-2.479088 -1.18049,-1.765369 -1.5268,-2.39704 -1.94274,-3.543532 -0.87042,-2.399256 -1.70937,-3.614314 -2.89596,-4.194251 -1.42924,-0.698528 -2.1735,-0.689951 -4.45983,0.05139 -3.17842,1.030605 -4.23333,1.214912 -4.23333,0.739613 0,-0.125535 -0.0529,-0.26095 -0.1176,-0.300922 -0.0647,-0.03997 -0.11759,-0.203505 -0.11759,-0.363408 0,-0.608654 -0.4533,-0.503216 -1.68863,0.392773 -0.56545,0.410125 -0.7831,0.499802 -1.21305,0.499802 -0.28818,0 -0.63131,-0.05745 -0.76251,-0.127668 -0.19072,-0.102066 -0.28939,-0.08143 -0.49205,0.102898 -0.47641,0.433328 -0.7816,0.535444 -1.09654,0.366893 -0.43916,-0.23503 -0.32596,-0.635033 0.1811,-0.639943 0.52174,-0.0051 0.96053,-0.523938 0.94144,-1.113291 -0.0116,-0.356803 -0.0232,-0.372452 -0.0876,-0.117593 -0.11803,0.467122 -0.32315,0.74732 -0.47732,0.652038 -0.077,-0.0476 -0.13103,-0.200546 -0.12006,-0.33989 0.011,-0.139343 0.0141,-0.319497 0.007,-0.400342 -0.0205,-0.230971 -0.54209,-0.171791 -0.77737,0.08819 -0.14189,0.156787 -0.36218,0.235185 -0.66085,0.235185 -0.56375,0 -0.73565,-0.271819 -0.62759,-0.992401 0.11369,-0.758156 0.009,-0.96503 -0.5345,-1.05187 -0.53419,-0.08542 -1.29326,-0.68816 -1.29326,-1.026913 0,-0.226968 -0.1955,-0.637912 -0.41158,-0.865145 -0.52126,-0.548173 -1.39361,-0.673756 -2.5519,-0.367371 -0.63747,0.168619 -2.83377,0.8506 -3.15134,0.978534 -0.097,0.03908 -0.20285,0.07644 -0.23518,0.08301 -0.25758,0.05238 -0.35278,0.273364 -0.35278,0.818844 0,0.657107 0.0738,0.834503 0.28316,0.680516 0.0706,-0.05195 0.41233,-0.163779 0.75934,-0.248509 0.51515,-0.125786 0.71475,-0.12639 1.08773,-0.0033 0.25124,0.08292 0.4568,0.195205 0.4568,0.249529 0,0.05432 -0.3851,0.09877 -0.85577,0.09877 -1.28648,0 -1.71831,0.422131 -1.10681,1.08195 0.1733,0.186996 0.37556,0.281923 0.55857,0.262156 0.15779,-0.01704 0.34305,-0.0354 0.4117,-0.04079 0.0687,-0.0054 0.24504,-0.121804 0.39198,-0.258699 0.1711,-0.159405 0.30785,-0.208219 0.38031,-0.135759 0.20151,0.201512 -0.5194,0.838861 -1.04366,0.922694 l -0.4709,0.0753 -0.0856,0.898656 c -0.15798,1.658749 -0.14161,2.315867 0.0563,2.259769 0.097,-0.0275 0.4669,-0.08042 0.82198,-0.117592 0.49223,-0.05154 0.65504,-0.117175 0.68535,-0.276298 0.0277,-0.14531 -0.0718,-0.247595 -0.32757,-0.336746 -0.42179,-0.147038 -0.41643,-0.415306 0.007,-0.354964 0.67522,0.0962 0.88527,0.685129 0.44431,1.245719 -0.1859,0.236338 -0.21616,0.35238 -0.11759,0.450951 0.073,0.073 0.13272,0.273924 0.13272,0.4465 0,0.332512 -0.0526,0.311762 1.37759,0.543452 0.65449,0.106027 0.68211,0.303421 0.11553,0.825679 l -0.5082,0.468434 0.2719,0.396799 c 0.14953,0.218239 0.27189,0.542453 0.27189,0.720476 0,0.38786 0.47463,0.682496 1.09943,0.682496 0.32734,0 0.5519,-0.130397 1.16439,-0.676158 1.05068,-0.936203 1.13612,-1.001958 2.29286,-1.764457 1.62744,-1.072782 2.01265,-1.542889 2.07062,-2.526939 0.0385,-0.652893 0.12587,-0.786991 0.3004,-0.460873 0.0791,0.147816 0.0981,0.57089 0.0508,1.130964 l -0.0756,0.894804 -0.54099,0.448428 c -0.29754,0.246636 -0.69974,0.547991 -0.89377,0.669678 -0.19403,0.121688 -0.37923,0.252902 -0.41157,0.291588 -0.0323,0.03869 -0.3763,0.287349 -0.76435,0.552584 -1.34606,0.920024 -2.22922,1.949614 -2.4964,2.910288 -0.33463,1.203211 -0.38539,1.491065 -0.39634,2.247903 -0.0181,1.251979 -0.16279,1.572063 -0.25956,0.57432 -0.14389,-1.483662 -0.0961,-2.667864 0.1328,-3.294253 l 0.2143,-0.586303 h -0.49966 c -0.67981,0 -1.11214,-0.341995 -1.33353,-1.054889 -0.13133,-0.422895 -0.28542,-0.636018 -0.61982,-0.857316 -0.33189,-0.219637 -0.44504,-0.375014 -0.44504,-0.611164 0,-0.186858 -0.12214,-0.431406 -0.29799,-0.596605 -0.23113,-0.217137 -0.28197,-0.352926 -0.22656,-0.605183 0.0553,-0.251927 0.002,-0.394398 -0.23544,-0.632106 -0.26035,-0.260345 -0.37392,-0.295547 -0.74906,-0.232169 -0.35685,0.06029 -0.48447,0.02798 -0.66134,-0.167464 l -0.21916,-0.242171 0.14974,-1.087041 c 0.0823,-0.597872 0.17582,-1.285993 0.2077,-1.529158 0.0813,-0.619813 -0.008,-0.87855 -0.55533,-1.604051 l -0.47881,-0.635057 0.01,-1.305221 c 0.005,-0.717871 -0.0451,-1.622721 -0.11249,-2.010776 -0.32363,-1.864801 0.12036,-3.337916 1.16957,-3.880486 0.52098,-0.269408 1.32738,-0.525675 1.65998,-0.527525 0.16913,-9.42e-4 0.43372,-0.09789 0.58796,-0.215443 0.15424,-0.117553 0.73225,-0.432098 1.28445,-0.69899 2.26724,-1.095802 3.11304,-1.258242 4.75803,-0.913805 2.46673,0.516498 3.83877,1.266883 4.92194,2.691862 0.79701,1.04852 1.09629,1.888919 1.26224,3.544387 0.0584,0.582083 0.16638,1.322916 0.24008,1.646296 0.13386,0.587437 0.28781,1.464589 0.41276,2.351852 0.0364,0.258704 0.11373,0.520641 0.17179,0.582083 0.058,0.06144 0.10554,0.205955 0.10554,0.32114 0,0.295806 0.49097,0.387271 1.15131,0.214482 0.79283,-0.207459 1.93031,-0.58067 2.16909,-0.711685 0.1123,-0.06162 0.30762,-0.112038 0.43403,-0.112038 0.12641,0 0.25893,-0.04707 0.29449,-0.1046 0.1699,-0.274912 3.05188,-0.466092 3.63882,-0.241387 0.82606,0.316252 1.01412,0.407542 1.01412,0.492285 0,0.04889 0.0704,0.08889 0.15639,0.08889 0.086,0 0.42171,0.262535 0.74597,0.583411 0.61324,0.606833 1.1208,1.521736 1.56819,2.826774 0.67099,1.957241 2.10515,4.207286 4.44668,6.976356 4.99656,5.908906 9.03048,9.112695 13.39272,10.636675 l 0.91551,0.319841 3.7182,-0.0336 c 4.69393,-0.04241 5.41628,0.07984 7.04152,1.191696 2.03586,1.392769 3.69588,4.587894 3.96004,7.622105 0.0497,0.571049 0.11498,0.718162 0.4565,1.028935 0.21917,0.199441 0.41927,0.36262 0.44468,0.36262 0.067,0 3.35397,2.066064 4.66378,2.931458 1.16148,0.767392 1.84672,1.290596 2.64583,2.020187 1.48727,1.357873 3.29138,2.691874 3.64052,2.691874 0.10144,0 0.27632,-0.05125 0.38863,-0.113887 0.59816,-0.333622 2.48946,-0.81848 4.26113,-1.092395 2.38678,-0.369015 6.5683,-0.08055 10.64213,0.734167 3.99216,0.79838 4.95616,0.9845 6.76158,1.305463 0.35571,0.06324 1.23634,0.146171 1.95694,0.184293 1.14556,0.0606 1.41008,0.03704 2.10514,-0.187509 0.74222,-0.239788 1.54396,-0.617974 2.5231,-1.190164 0.22637,-0.132284 0.51741,-0.302258 0.64676,-0.377719 0.33772,-0.197023 1.02402,-0.434336 1.26206,-0.436405 0.11204,-9.74e-4 0.43778,0.223126 0.72387,0.497998 0.67325,0.646881 0.92887,1.463762 0.87459,2.794995 l -0.0383,0.939123 0.47037,0.0017 c 0.68744,0.0024 1.37069,0.427231 1.50172,0.933684 0.10655,0.411819 -0.0218,1.779118 -0.26547,2.827069 -0.30857,1.327319 -0.38708,1.919768 -0.43476,3.280792 -0.0281,0.801959 -10e-4,1.595709 0.0598,1.763889 0.061,0.16818 0.17602,0.543907 0.25557,0.834949 0.0795,0.291041 0.18549,0.635 0.23542,0.764352 0.0499,0.129351 0.15524,0.47331 0.23402,0.764351 0.0788,0.291042 0.19065,0.65072 0.24859,0.799284 0.0579,0.148564 0.10535,0.951156 0.10535,1.783538 0,1.746214 -0.18743,2.374183 -0.9047,3.03118 -0.5031,0.460819 -0.84086,0.484267 -1.21647,0.08445 -0.23964,-0.255093 -0.27773,-0.405296 -0.26048,-1.027417 0.02,-0.722408 -0.12313,-1.305435 -0.55133,-2.245379 -0.22533,-0.494641 -0.55748,-0.84401 -1.30035,-1.367772 -1.30792,-0.922135 -1.67134,-1.375744 -2.64962,-3.307119 -0.88218,-1.741668 -1.60232,-2.682258 -2.29482,-2.997332 -1.03315,-0.470059 -1.209,-0.508155 -2.93389,-0.635568 -1.38862,-0.102574 -6.23718,0.03513 -8.17312,0.232118 -0.58209,0.05923 -1.61396,0.165137 -2.29306,0.235349 -3.08306,0.318759 -8.11707,0.579065 -11.37253,0.588068 -1.47733,0.0041 -2.1333,0.0582 -2.91497,0.240457 -0.59244,0.13814 -1.42325,0.235185 -2.01343,0.235185 -1.11773,0 -1.6104,-0.158801 -3.92499,-1.26515 -2.28153,-1.090543 -2.75499,-1.283777 -4.93889,-2.015725 -1.19651,-0.401016 -2.30776,-0.786451 -2.46945,-0.856522 -0.16169,-0.07007 -0.39981,-0.17145 -0.52916,-0.225285 -1.46004,-0.607656 -2.63032,-1.264272 -2.74383,-1.539501 -0.0216,-0.05227 -0.13004,-0.09504 -0.24107,-0.09504 -0.11102,0 -0.25213,-0.04848 -0.31358,-0.107737 -0.0614,-0.05925 -0.92239,-0.378987 -1.91323,-0.710517 -2.47289,-0.827416 -2.66486,-0.907969 -5.66561,-2.377282 -1.45521,-0.712541 -2.88396,-1.402081 -3.175,-1.532311 -0.29104,-0.130229 -0.62692,-0.287573 -0.7464,-0.349652 -0.11948,-0.06208 -0.23305,-0.09598 -0.25237,-0.07533 -0.0193,0.02065 -0.12351,0.566712 -0.23152,1.213471 -0.36013,2.156438 -0.8576,3.878264 -1.60493,5.554969 -0.1222,0.274168 -0.22219,0.526479 -0.22219,0.56069 0,0.03421 -0.21166,0.410613 -0.47037,0.836448 -0.2587,0.425835 -0.47037,0.821754 -0.47037,0.87982 0,0.05807 -0.0529,0.105574 -0.11759,0.105574 -0.0647,0 -0.11759,0.05661 -0.11759,0.125803 0,0.06919 -0.14928,0.347005 -0.33173,0.617362 -1.08432,1.606763 -1.76956,3.824941 -1.85922,6.01841 -0.0573,1.40096 -0.24384,2.55659 -0.63599,3.939352 -0.13756,0.485069 -0.27825,1.028113 -0.31265,1.206763 -0.0344,0.178651 -0.10934,0.353753 -0.16656,0.389116 -0.0572,0.03536 -0.10404,0.269718 -0.10404,0.520787 0,0.25107 -0.0529,0.489195 -0.11759,0.529167 -0.0647,0.03997 -0.11759,0.191262 -0.11759,0.336199 0,0.144938 -0.0421,0.313794 -0.0936,0.375236 -0.0515,0.06144 -0.16081,0.32338 -0.24296,0.582084 -0.0822,0.258703 -0.19879,0.589433 -0.25919,0.734954 -0.26926,0.6487 -0.38253,0.927195 -0.46634,1.146527 -0.35093,0.918364 -0.79231,1.843544 -1.43255,3.002798 -1.16078,2.10177 -1.35611,3.03979 -1.14999,5.52267 0.0725,0.87312 0.097,1.99098 0.0546,2.48413 l -0.0772,0.89663 -0.40119,0.41304 c -0.42852,0.44119 -1.68843,1.1450904 -2.04958,1.1450904 -0.11996,0 -0.24704,0.0468 -0.2824,0.10403 -0.0354,0.0572 -0.21047,0.13423 -0.38912,0.17112 -0.17865,0.0369 -0.5894,0.12214 -0.91278,0.18942 -0.32338,0.0673 -0.89351,0.17165 -1.26696,0.23192 -0.43939,0.0709 -0.97883,0.28472 -1.5287,0.60589 -1.26825,0.74076 -2.4348,1.33 -2.99169,1.51115 -0.27263,0.0887 -0.61259,0.28566 -0.75546,0.43774 -0.3269,0.34797 -0.72882,0.34179 -1.33589,-0.0205 z m 0.99954,-0.46732 c 0,-0.0323 -0.0265,-0.0588 -0.0588,-0.0588 -0.0323,0 -0.0588,0.0265 -0.0588,0.0588 0,0.0323 0.0265,0.0588 0.0588,0.0588 0.0323,0 0.0588,-0.0265 0.0588,-0.0588 z m 0.23518,-0.23518 c 0,-0.0323 -0.0265,-0.0588 -0.0588,-0.0588 -0.0323,0 -0.0588,0.0265 -0.0588,0.0588 0,0.0323 0.0265,0.0588 0.0588,0.0588 0.0323,0 0.0588,-0.0265 0.0588,-0.0588 z m -1.64629,-0.23519 c 0,-0.0323 -0.0265,-0.0588 -0.0588,-0.0588 -0.0323,0 -0.0588,0.0265 -0.0588,0.0588 0,0.0323 0.0265,0.0588 0.0588,0.0588 0.0323,0 0.0588,-0.0265 0.0588,-0.0588 z m 2.24534,-0.17639 c 0.42094,0 1.1432,-0.32841 2.45836,-1.11783 1.3506,-0.81069 1.27046,-0.76755 2.99274,-1.6112804 l 1.52284,-0.74602 0.27045,-0.69822 c 0.14875,-0.38402 0.27664,-0.9118 0.2842,-1.17285 l 0.0138,-0.47463 0.10895,0.64676 c 0.10242,0.60798 0.084,0.77094 -0.21552,1.91018 -0.0297,0.1128 -0.13361,0.28478 -0.23101,0.38218 -0.26539,0.26539 0.007,0.21547 0.67706,-0.12409 0.32689,-0.16565 0.82277,-0.52961 1.10197,-0.80881 0.41726,-0.41725 0.52598,-0.62007 0.61077,-1.13933 0.0567,-0.34744 0.065,-0.86983 0.0183,-1.16087 -0.0467,-0.29104 -0.088,-1.1219 -0.0919,-1.84635 -0.01,-1.88875 0.22468,-2.69345 1.61516,-5.537012 0.49834,-1.019125 1.00279,-2.089887 1.121,-2.379474 0.11822,-0.289586 0.27082,-0.658812 0.33912,-0.820501 0.1272,-0.301125 0.27078,-0.656625 0.47494,-1.175926 0.0636,-0.16169 0.16232,-0.385868 0.21945,-0.498173 0.0571,-0.112306 0.10388,-0.390836 0.10388,-0.618957 0,-0.228121 0.0529,-0.519881 0.11759,-0.648355 0.0647,-0.128474 0.17051,-0.338705 0.23518,-0.467179 0.0647,-0.128474 0.1176,-0.314401 0.1176,-0.41317 0,-0.09877 0.0478,-0.271466 0.10613,-0.383771 0.0584,-0.112306 0.16779,-0.442317 0.24315,-0.733359 0.0754,-0.291041 0.18636,-0.691673 0.24665,-0.890293 0.0603,-0.19862 0.10956,-0.595495 0.10947,-0.881944 -1.5e-4,-0.541106 0.15307,-1.92454 0.37027,-3.343041 0.28288,-1.847484 0.86818,-3.575261 1.64729,-4.862713 0.24862,-0.410835 0.45204,-0.773082 0.45204,-0.804995 0,-0.03191 0.0996,-0.198484 0.22141,-0.370158 1.06726,-1.504525 2.10877,-4.267528 2.67956,-7.108557 0.16628,-0.827615 0.28273,-1.520544 0.25878,-1.539841 -0.28027,-0.225815 -1.90563,-1.001878 -1.98961,-0.949979 -0.0615,0.03801 -0.11181,0.382721 -0.11181,0.766032 0,0.631863 -0.0833,1.152487 -0.34712,2.17021 -0.19425,0.749273 -0.38906,1.420843 -0.47756,1.646297 -0.0508,0.129352 -0.15685,0.420393 -0.23571,0.646759 -0.0789,0.226366 -0.23637,0.623241 -0.35003,0.881945 -0.11367,0.258703 -0.24122,0.655578 -0.28346,0.881944 -0.0422,0.226366 -0.56005,1.390533 -1.15068,2.587037 -0.59063,1.196505 -1.11119,2.281297 -1.15679,2.410649 -0.0456,0.129352 -0.15,0.393935 -0.23198,0.587963 -0.2962,0.701008 -0.3349,0.826162 -0.69995,2.263657 -0.1761,0.693427 -0.25821,1.763627 -0.35863,4.674306 -0.0513,1.487547 -0.1488,2.942755 -0.21661,3.233797 -0.0678,0.291041 -0.15657,0.687916 -0.19726,0.881944 -0.0407,0.194028 -0.11687,0.458611 -0.1693,0.587963 -0.0524,0.129352 -0.16381,0.47331 -0.24751,0.764352 -0.0837,0.291042 -0.18453,0.582083 -0.22406,0.646759 -0.0395,0.06468 -0.14296,0.32926 -0.22982,0.587963 -0.14459,0.430673 -1.24732,3.065858 -1.78378,4.262732 -0.41548,0.926949 -0.71827,1.614699 -0.89306,2.028469 -0.0956,0.22637 -0.22234,0.50346 -0.28157,0.61577 -0.0592,0.1123 -0.10771,0.285 -0.10771,0.38377 0,0.0988 -0.0478,0.27147 -0.10613,0.38377 -0.0584,0.11231 -0.16421,0.42909 -0.23519,0.70396 -0.071,0.27487 -0.18759,0.72467 -0.25913,0.99954 -0.26218,1.00729 -0.34701,0.9964 -0.29138,-0.0374 0.0298,-0.55414 0.10361,-1.13622 0.164,-1.29352 0.0604,-0.1573 0.17297,-0.49767 0.25019,-0.75637 0.0772,-0.2587 0.19691,-0.60266 0.26596,-0.76435 0.0691,-0.16169 0.16469,-0.39982 0.21251,-0.52917 0.0953,-0.25772 0.37383,-0.88283 0.91693,-2.057869 0.77396,-1.674514 0.96947,-2.119555 1.50025,-3.415171 0.30359,-0.741031 0.67855,-1.770662 0.83326,-2.28807 0.15471,-0.517407 0.33313,-1.103247 0.39649,-1.301867 0.0634,-0.19862 0.1155,-0.648411 0.11586,-0.999537 3.6e-4,-0.351126 0.0486,-0.823619 0.10711,-1.049985 0.0585,-0.226366 0.14176,-1.364074 0.1849,-2.528241 0.1316,-3.550873 0.34408,-4.932332 0.99478,-6.467593 0.0548,-0.129352 0.18924,-0.446852 0.29871,-0.705555 0.10946,-0.258704 0.45609,-0.999537 0.77028,-1.646297 0.61643,-1.268879 1.86379,-4.174869 2.11997,-4.938889 0.0867,-0.258704 0.19983,-0.520641 0.2513,-0.582083 0.0515,-0.06144 0.0936,-0.230299 0.0936,-0.375236 0,-0.144938 0.0471,-0.292614 0.1046,-0.32817 0.0575,-0.03556 0.13368,-0.237116 0.16921,-0.447912 0.0355,-0.210796 0.1301,-0.674307 0.21014,-1.030025 0.08,-0.355718 0.14941,-1.069855 0.15416,-1.586972 l 0.009,-0.940213 -1.29351,-0.672269 c -0.71144,-0.369748 -1.63748,-0.812728 -2.05788,-0.984401 -0.42039,-0.171672 -0.87018,-0.35537 -0.99953,-0.408217 -0.12935,-0.05285 -0.44685,-0.158996 -0.70556,-0.235887 -0.2587,-0.07689 -0.56225,-0.186221 -0.67456,-0.242958 -0.1123,-0.05674 -0.285,-0.103157 -0.38377,-0.103157 -0.0988,0 -0.27147,-0.04881 -0.38377,-0.108463 -0.11231,-0.05965 -0.64137,-0.277515 -1.17569,-0.484136 -0.53433,-0.206621 -1.19579,-0.540628 -1.46991,-0.742239 -0.27412,-0.201611 -0.61088,-0.426982 -0.74834,-0.500825 l -0.24993,-0.13426 -0.0859,0.602785 c -0.48212,3.382412 -0.66001,12.020253 -0.29938,14.537509 0.16429,1.14681 0.22163,4.005694 0.10967,5.468056 -0.0545,0.711435 -0.15621,2.140185 -0.22608,3.175 -0.28871,4.275802 -0.66385,7.280994 -1.18167,9.466204 -0.33733,1.423495 -0.60965,2.43021 -0.70734,2.61484 -0.0594,0.112305 -0.10803,0.30762 -0.10803,0.434032 0,0.126411 -0.0529,0.262541 -0.11759,0.302521 -0.0647,0.04 -0.1176,0.1761 -0.1176,0.30251 0,0.12642 -0.0467,0.32173 -0.10387,0.43404 -0.0571,0.1123 -0.15769,0.33648 -0.22347,0.49817 -0.0658,0.16169 -0.2307,0.54476 -0.36649,0.85126 -0.1358,0.30651 -0.24691,0.67377 -0.24691,0.81613 0,0.62151 -3.46646,4.65229 -4.7037,5.46945 -0.59999,0.3962704 -0.67208,0.4290404 -1.87247,0.8511704 -0.48011,0.16884 -0.89462,0.37204 -0.92112,0.45155 -0.0907,0.27222 0.34137,0.29592 0.79072,0.0434 0.55845,-0.31387 0.70935,-0.31623 0.70935,-0.0111 0,0.16366 0.0657,0.22932 0.20579,0.20579 0.25481,-0.0428 0.36123,0.47859 0.12788,0.6265 -0.1252,0.0794 -0.1201,0.10006 0.025,0.1015 0.10025,9.9e-4 0.24577,-0.0617 0.32338,-0.13931 0.10975,-0.10976 0.17247,-0.10976 0.28222,0 0.0776,0.0776 0.24132,0.14111 0.36379,0.14111 0.13126,0 0.25075,0.10737 0.29107,0.26155 0.0376,0.14385 0.09,0.19677 0.11638,0.11759 0.0264,-0.0792 0.20291,-0.14396 0.39225,-0.14396 z m -1.93176,-0.0784 c -0.0431,-0.0431 -0.11368,-0.0431 -0.15679,0 -0.0431,0.0431 -0.008,0.0784 0.0784,0.0784 0.0862,0 0.12151,-0.0353 0.0784,-0.0784 z M 258.68875,-45.013574 c 1.46919,-0.467242 1.83196,-0.6035 2.7998,-1.051614 0.2587,-0.119782 0.60266,-0.23334 0.76435,-0.25235 0.25729,-0.03025 0.3037,-0.107947 0.37187,-0.622528 0.0428,-0.323379 0.0825,-0.923343 0.0882,-1.333253 l 0.0103,-0.74529 -0.45023,0.07607 c -0.5148,0.08697 -1.27066,0.332777 -1.38986,0.451978 -0.11944,0.119439 -2.36869,0.09786 -2.44366,-0.02344 -0.0354,-0.05722 -0.21047,-0.13191 -0.38912,-0.16598 -0.17865,-0.03407 -0.68754,-0.144399 -1.13088,-0.245177 -0.69357,-0.157662 -0.8601,-0.160653 -1.19331,-0.02143 -0.47715,0.199367 -0.67111,0.506022 -0.51021,0.806668 0.0771,0.144026 0.0756,0.402853 -0.005,0.767389 -0.3008,1.369431 -0.33791,1.928078 -0.15843,2.384994 0.10813,0.275274 0.27043,0.467034 0.42429,0.501299 0.56405,0.125619 1.7926,-0.07612 3.2114,-0.527332 z m 12.03082,-3.041766 c 0.48507,-0.07018 1.27882,-0.182084 1.76389,-0.248685 0.48507,-0.0666 1.17298,-0.165926 1.5287,-0.220721 0.35572,-0.05479 0.88489,-0.133356 1.17593,-0.17458 0.29104,-0.04122 0.71437,-0.121328 0.94074,-0.17801 0.22636,-0.05668 0.72907,-0.167218 1.11713,-0.245636 2.99031,-0.604281 5.18934,-1.655022 5.2506,-2.50884 0.0508,-0.707511 -0.0451,-0.966232 -0.53516,-1.444944 -0.35903,-0.350688 -0.73753,-0.570497 -1.31618,-0.764352 -1.62286,-0.543678 -4.25185,-0.299362 -6.45667,0.600027 -0.12935,0.05277 -0.38071,0.155934 -0.55856,0.229263 -0.17786,0.07333 -0.44245,0.180969 -0.58797,0.239199 -0.14552,0.05823 -0.50271,0.209107 -0.79375,0.335282 -0.29104,0.126174 -0.92604,0.375399 -1.41111,0.553834 -0.94855,0.348928 -1.29352,0.634388 -1.29352,1.070376 0,0.151481 -0.0474,0.396973 -0.10534,0.545537 -0.0579,0.148564 -0.16894,0.508242 -0.24665,0.799283 -0.0777,0.291042 -0.18906,0.621053 -0.24743,0.733359 -0.0584,0.112305 -0.10614,0.300159 -0.10614,0.417453 0,0.117295 -0.0661,0.282737 -0.14699,0.36765 -0.1615,0.169628 0.28855,0.146223 2.02848,-0.105495 z m -9.59405,-1.296715 c 0.64112,-0.19329 1.25672,-0.351437 1.36799,-0.351437 0.11128,0 0.23424,-0.119062 0.27323,-0.264583 0.0903,-0.337092 0.0948,-0.911343 0.007,-0.911343 -0.0369,0 -0.2882,0.149052 -0.55856,0.331228 -0.68309,0.460289 -1.25518,0.710085 -2.23605,0.97634 -1.13441,0.307935 -1.16219,0.319667 -1.07824,0.455491 0.13379,0.216483 1.04488,0.11995 2.22452,-0.235696 z m -2.94584,-0.292641 c 0.0372,-0.09701 0.14258,-0.176388 0.23411,-0.176388 0.0942,0 0.27897,-0.293611 0.4256,-0.676158 0.14255,-0.371886 0.30744,-0.79771 0.36644,-0.946274 0.20108,-0.506407 0.12414,-1.498544 -0.15733,-2.028661 -0.31302,-0.589544 -0.97203,-1.243144 -1.62451,-1.611176 -0.37688,-0.212582 -0.65198,-0.264584 -1.39972,-0.264584 -0.51369,0 -0.96429,-0.05445 -1.00575,-0.121532 -0.0438,-0.07086 -0.1747,0.0051 -0.31396,0.182117 l -0.23885,0.30365 0.19869,0.219556 c 0.16207,0.179088 0.18885,0.389355 0.14529,1.140799 -0.0879,1.51731 -0.16917,1.683951 -1.05443,2.163599 l -0.33965,0.184021 0.50869,0.152762 c 0.92465,0.277675 1.55183,0.559525 2.18894,0.983691 0.85086,0.566467 1.93893,0.826882 2.06644,0.494578 z m 1.43924,-0.519444 c 0.18751,-0.05933 0.48832,-0.140182 0.66846,-0.179673 0.35316,-0.07742 0.46045,-0.272015 0.74747,-1.355782 0.31536,-1.190803 -0.23079,-2.637108 -1.54538,-4.092432 -0.47811,-0.529295 -1.64144,-1.402977 -2.17546,-1.633811 -0.75682,-0.327137 -0.9798,-0.391543 -1.35561,-0.391543 -0.41746,0 -0.52116,0.160156 -0.49488,0.764352 0.006,0.129351 -0.0268,0.393935 -0.0721,0.587963 l -0.0823,0.352777 0.79664,0.0012 c 1.2291,0.0018 2.15549,0.541728 2.92368,1.703903 0.49877,0.754567 0.63638,1.245113 0.63638,2.26843 0,0.681446 -0.057,1.000894 -0.23518,1.318144 -0.20881,0.371766 -0.30842,0.764352 -0.19394,0.764352 0.0227,0 0.19467,-0.04854 0.38218,-0.10787 z m 2.89839,-1.316305 c 0.34314,-0.224934 0.42276,-0.36763 0.54552,-0.977701 0.23352,-1.160595 0.72957,-2.851303 0.95951,-3.270371 0.0616,-0.112305 0.11204,-0.334078 0.11204,-0.492829 0,-0.15875 0.0456,-0.31684 0.10141,-0.351311 0.1183,-0.07312 0.28166,-1.945746 0.28811,-3.302595 0.005,-0.969923 -0.18733,-3.226556 -0.38007,-4.468519 -0.0602,-0.388055 -0.16645,-1.075972 -0.23606,-1.528703 -0.0696,-0.452732 -0.17542,-1.087732 -0.23514,-1.411112 -0.0597,-0.323379 -0.14229,-0.826088 -0.18349,-1.117129 -0.13883,-0.980697 -0.17045,-1.058334 -0.43109,-1.058334 -0.24013,0 -0.72365,0.111328 -1.66542,0.383459 -0.7968,0.230239 -1.99717,1.523023 -2.53741,2.732745 -0.0866,0.194028 -0.20428,0.444664 -0.26141,0.556969 -0.24106,0.473877 -0.15624,0.511714 1.04265,0.465099 0.95243,-0.03703 1.25769,-0.0027 1.80315,0.202771 1.03107,0.388401 2.10681,1.652419 2.10681,2.475544 0,0.188475 0.0529,0.375386 0.11759,0.415358 0.0647,0.03997 0.11759,0.228303 0.11759,0.418514 0,0.468469 -0.27767,0.44765 -0.50817,-0.0381 -0.38515,-0.81165 -1.04818,-1.172913 -2.27395,-1.238999 -1.15925,-0.0625 -3.03992,0.317945 -4.56741,0.923955 -0.76679,0.304208 -2.3453,0.363264 -3.52778,0.131982 -1.40251,-0.274318 -1.61553,-0.287093 -2.27248,-0.136287 -0.36703,0.08425 -0.71761,0.197587 -0.77905,0.251851 -0.0614,0.05426 -0.18874,0.09866 -0.28288,0.09866 -0.32972,0 -0.95772,0.586069 -0.95772,0.893769 0,0.16161 -0.0837,0.455783 -0.1861,0.653718 -0.10236,0.197934 -0.13247,0.326735 -0.0669,0.286223 0.17474,-0.107992 0.30212,0.163311 0.14871,0.316722 -0.17085,0.170844 -0.16783,0.853365 0.005,1.176667 l 0.13606,0.25423 0.0909,-0.232562 c 0.05,-0.12791 0.0946,-0.483917 0.0991,-0.791128 0.0101,-0.683372 0.15355,-0.7169 0.36221,-0.08466 0.11941,0.361833 0.12386,0.506437 0.0188,0.611482 -0.0757,0.07567 -0.13758,0.234139 -0.13758,0.352157 0,0.235282 -0.48527,0.475968 -0.75272,0.373337 -0.21604,-0.0829 -0.29865,-0.451873 -0.2409,-1.075924 0.0254,-0.274872 0.005,-0.499768 -0.045,-0.499768 -0.0502,0 -0.27357,0.192087 -0.49646,0.426861 -0.54927,0.57857 -1.3842,1.101843 -1.7581,1.101843 -0.16901,0 -0.40264,0.06973 -0.51919,0.154948 -0.18019,0.131762 -0.18775,0.180154 -0.0505,0.32338 0.0888,0.09264 0.34428,0.538848 0.56785,0.991579 0.83019,1.681142 1.09588,1.947926 2.10739,2.116087 l 0.51746,0.08603 -0.092,-0.219112 c -0.18614,-0.443215 -0.32268,-1.332077 -0.24943,-1.623908 0.12874,-0.512927 0.30599,-0.330368 0.30784,0.317063 9.8e-4,0.339549 0.0753,0.829028 0.16509,1.087732 0.19066,0.549149 0.36167,0.611644 1.73164,0.632846 0.96794,0.01498 2.30594,-0.314643 2.57033,-0.633219 0.0803,-0.09681 0.27189,-0.176016 0.42566,-0.176016 0.15377,0 0.27959,-0.05292 0.27959,-0.117592 0,-0.06468 0.0667,-0.117593 0.14827,-0.117593 0.0815,0 0.33808,-0.171979 0.57007,-0.382176 1.03713,-0.939722 0.81551,-2.221404 -0.84344,-4.877803 -0.0839,-0.134346 -0.10975,-0.330919 -0.0601,-0.457083 l 0.0871,-0.221364 0.31365,0.372143 c 0.41626,0.493882 1.31319,1.999018 1.31319,2.203654 0,0.12364 0.2021,0.15983 0.85255,0.152667 1.14926,-0.01266 2.1046,0.445071 3.22435,1.544866 0.98884,0.971221 1.16327,1.190545 1.58608,1.994319 0.56142,1.067277 0.72385,1.813621 0.66007,3.033 l -0.0567,1.083192 0.3847,-0.216071 c 0.21158,-0.118839 0.56549,-0.33459 0.78647,-0.479445 z m -13.62018,-3.55443 c 0.0425,-0.283679 0.0202,-0.658042 -0.0502,-0.843426 -0.0697,-0.183338 -0.0948,-0.416475 -0.0558,-0.518082 0.0585,-0.152412 0.11032,-0.13343 0.29617,0.108473 0.26542,0.345464 0.304,1.244872 0.0668,1.557334 -0.25508,0.336031 -0.33816,0.237629 -0.25689,-0.304299 z m 3.06138,-1.195006 c -0.22025,-0.4815 -0.35827,-0.646759 -0.54016,-0.646759 -0.17386,0 -0.22386,0.05332 -0.17336,0.184907 0.0988,0.257543 -0.12915,0.638241 -0.38221,0.638241 -0.24601,0 -0.78804,-0.533217 -0.63695,-0.626595 0.0565,-0.03489 0.1795,-0.01483 0.27342,0.04459 0.31403,0.198652 0.3554,0.116065 0.32702,-0.652718 -0.0189,-0.51301 -0.076,-0.764351 -0.17349,-0.764351 -0.0799,0 -0.1785,0.05378 -0.21912,0.11951 -0.0406,0.06573 -0.12569,0.08748 -0.18904,0.04833 -0.20343,-0.125726 0.14166,-0.403024 0.50154,-0.403024 0.28517,0 0.35293,0.05804 0.41188,0.352778 0.0797,0.398673 0.46861,0.495303 0.59154,0.146991 0.10309,-0.292115 0.52201,-0.734954 0.69524,-0.734954 0.0805,0 0.25753,0.179972 0.39348,0.399938 0.16848,0.272602 0.31313,0.382689 0.45434,0.345763 0.177,-0.04629 0.20071,0.01344 0.16288,0.410184 -0.0244,0.255397 0.0179,0.580585 0.094,0.722641 0.16313,0.304819 0.0759,0.446211 -0.15637,0.253448 -0.18175,-0.150837 -0.25941,-0.08154 -0.54295,0.484461 -0.25994,0.5189 -0.55539,0.411747 -0.89164,-0.323379 z m 0.82043,-0.352778 c 0.0798,-0.425591 -0.0201,-1.235068 -0.15232,-1.234268 -0.0413,2.49e-4 -0.0853,0.370666 -0.0977,0.823148 -0.0239,0.86874 0.11986,1.105083 0.25005,0.41112 z m -0.52141,-0.587963 c 0,-0.355718 -0.0529,-0.646759 -0.11759,-0.646759 -0.12955,0 -0.1647,1.089625 -0.0392,1.215123 0.14141,0.141411 0.15679,0.08566 0.15679,-0.568364 z m -0.58796,-0.176389 c 0,-0.06468 -0.0794,-0.117592 -0.17639,-0.117592 -0.097,0 -0.17639,0.05292 -0.17639,0.117592 0,0.06468 0.0794,0.117593 0.17639,0.117593 0.097,0 0.17639,-0.05292 0.17639,-0.117593 z m 33.04352,6.244786 0.29398,-0.08177 0.19794,-2.052572 c 0.10886,-1.128915 0.20147,-2.133197 0.20578,-2.231739 0.004,-0.09854 -0.50033,-0.548333 -1.12145,-0.999537 -0.62111,-0.451204 -1.19941,-0.886516 -1.28512,-0.967361 -0.22845,-0.215512 -0.42898,-0.180776 -0.69804,0.120918 -0.39053,0.437899 -1.59572,1.425502 -2.41439,1.978494 -0.67937,0.458898 -0.73167,0.520504 -0.47037,0.554104 0.43102,0.05542 1.89304,0.493828 2.23729,0.670874 0.42204,0.217061 1.09098,0.878499 1.29408,1.279575 0.10498,0.207313 0.16654,0.634203 0.15686,1.087731 l -0.0159,0.746499 0.6627,-0.01172 c 0.36448,-0.0064 0.79499,-0.04852 0.95668,-0.09349 z m -32.44665,-0.410076 c 1.77186,-0.642678 1.99016,-0.855654 1.99016,-1.941573 0,-0.630653 -0.0413,-0.82641 -0.186,-0.881944 -0.34448,-0.132189 -0.40196,-0.07322 -0.40196,0.41238 0,0.676395 -0.4136,1.35433 -1.05707,1.732634 -0.47336,0.278296 -0.65063,0.311849 -1.64756,0.311849 h -1.11713 l -0.88194,-0.425308 c -1.09218,-0.526692 -2.62293,-1.857813 -2.82399,-2.455711 -0.23392,-0.695637 -0.40436,-1.058333 -0.49731,-1.058333 -0.0489,0 -0.0889,-0.105833 -0.0889,-0.235185 0,-0.129352 -0.04,-0.235185 -0.0889,-0.235185 -0.0489,0 -0.15936,-0.159213 -0.24549,-0.353806 -0.18918,-0.427378 -1.14817,-1.410083 -1.37606,-1.410083 -0.10304,0 0.0217,0.270827 0.33863,0.734953 0.27599,0.404225 0.61159,0.973079 0.74579,1.264121 1.44913,3.14279 1.99404,3.853397 3.46844,4.523137 0.90791,0.412413 2.75823,0.421047 3.86927,0.01805 z m 18.29178,-0.966798 c 0.25043,-0.103713 0.69346,-0.294507 0.9845,-0.423985 0.29104,-0.129478 0.71437,-0.315483 0.94074,-0.413343 0.22636,-0.09786 0.57032,-0.246543 0.76435,-0.330405 1.11761,-0.483046 3.31284,-1.113142 3.87816,-1.113142 0.28133,0 1.79994,-0.644851 1.94267,-0.824922 0.0323,-0.0408 0.13817,-0.103406 0.23519,-0.13913 0.19946,-0.07345 1.88852,-1.330407 2.38125,-1.772061 0.17786,-0.159424 0.32338,-0.342495 0.32338,-0.406825 0,-0.06433 -0.50357,-0.375674 -1.11904,-0.691874 -1.01955,-0.523795 -1.68477,-0.962962 -2.86443,-1.891041 -0.8888,-0.699254 -1.72226,-1.374361 -1.77857,-1.440656 -0.0323,-0.03807 -0.244,-0.219917 -0.47037,-0.404102 -0.87992,-0.715959 -2.59055,-2.294709 -3.93935,-3.635658 l -1.41111,-1.402894 -0.0369,0.568231 c -0.0203,0.312527 0.0194,0.791771 0.0882,1.064987 0.0688,0.273216 0.12508,0.83968 0.12508,1.25881 0,0.99162 0.0951,1.10095 2.36573,2.718643 0.98787,0.703813 1.95773,1.444973 2.15525,1.647022 l 0.35911,0.367363 0.58797,-0.448939 c 0.62986,-0.480929 0.92115,-0.526242 0.97328,-0.151401 0.0233,0.167353 -0.1192,0.329238 -0.50028,0.568485 -0.29305,0.183975 -0.86332,0.709828 -1.26726,1.168563 -1.74107,1.977221 -2.71613,2.823979 -4.34745,3.775374 l -0.78384,0.457142 -0.0702,0.659988 c -0.0386,0.362993 -0.0968,0.831967 -0.12936,1.042164 -0.0676,0.436578 -0.0142,0.453449 0.61327,0.193606 z m -18.3244,-0.296893 c 0.7276,-0.388372 1.24465,-0.873899 1.16148,-1.090658 -0.0937,-0.24431 -0.35964,-0.237001 -1.09002,0.02996 -1.08072,0.395015 -2.29895,0.416557 -4.0459,0.07154 l -0.41157,-0.08128 0.29398,0.278468 c 0.26449,0.25053 0.81182,0.55054 1.64629,0.902378 0.16169,0.06817 0.67263,0.127533 1.13542,0.13191 0.64404,0.0061 0.95143,-0.05075 1.31032,-0.242318 z m -6.72783,-1.013843 c -0.21753,-0.436562 -0.62629,-1.27 -0.90833,-1.852083 -0.36265,-0.748418 -0.72614,-1.280054 -1.2413,-1.815488 l -0.72849,-0.757154 0.19932,-0.343689 c 0.26852,-0.463005 0.39063,-0.491424 0.9845,-0.229127 0.41124,0.181632 0.65434,0.20935 1.27269,0.145111 0.89671,-0.09316 1.36292,-0.310973 2.07963,-0.971613 0.61768,-0.569364 1.06643,-1.296995 1.10397,-1.790078 0.0741,-0.972496 -0.11885,-1.181376 -0.35295,-0.382176 -0.35914,1.226134 -0.91157,1.783551 -2.51255,2.535253 -0.89636,0.420862 -1.11755,0.456165 -1.218,0.194396 -0.0788,-0.205377 0.26688,-0.64238 0.50815,-0.64238 0.0879,0 0.25164,-0.04945 0.36395,-0.109891 0.1123,-0.06044 0.37617,-0.179191 0.58637,-0.263891 0.21019,-0.0847 0.38217,-0.193999 0.38217,-0.242887 0,-0.04889 0.0662,-0.08895 0.14699,-0.08903 0.42085,-4.11e-4 1.16605,-0.981344 1.43121,-1.883936 0.23824,-0.810987 0.33582,-0.963402 0.56134,-0.87686 0.1928,0.07398 0.4475,0.544227 0.4475,0.826195 0,0.183426 0.29849,0.236231 0.40068,0.07088 0.034,-0.05498 0.44083,-0.2196 0.9041,-0.365811 0.89233,-0.281622 1.16894,-0.281905 3.10494,-0.0032 1.18601,0.170751 2.31861,0.06559 3.39459,-0.315196 1.94971,-0.689989 2.32361,-0.768091 3.71976,-0.777 1.42665,-0.0091 2.00942,0.125384 2.7124,0.625948 0.42317,0.301321 0.43915,0.198889 0.0488,-0.312858 -0.4679,-0.613449 -1.59079,-1.08628 -2.7739,-1.168045 -0.9663,-0.06678 -1.31851,-0.01716 -3.86787,0.544931 -1.72928,0.381276 -3.10679,0.483807 -4.52732,0.336978 -2.2737,-0.235014 -5.21513,-0.187116 -6.3703,0.103735 -1.89969,0.478306 -3.29232,1.488677 -3.97492,2.883862 l -0.31038,0.634389 0.0479,1.513747 c 0.0264,0.832561 0.0864,1.672498 0.13343,1.866525 0.34587,1.426644 1.63381,2.733886 3.30111,3.350581 1.39254,0.515067 1.42036,0.50219 0.95078,-0.440164 z m 26.04377,-2.209508 c 0.64145,-0.422949 1.52361,-1.110866 1.96036,-1.528704 0.7604,-0.727473 0.85786,-0.882514 0.41225,-0.655832 -1.15941,0.589797 -1.88774,0.681169 -3.291,0.412874 l -0.38217,-0.07307 v 1.306866 c 0,0.718776 0.0302,1.306865 0.0672,1.306865 0.0369,0 0.59197,-0.34605 1.23341,-0.768999 z m 1.78183,-2.641676 c 0.60022,-0.227504 1.38771,-0.804507 1.38463,-1.014533 -0.002,-0.161108 -1.69578,-1.360276 -1.73878,-1.231288 -0.0212,0.06359 0.0109,0.294632 0.0713,0.513418 0.15586,0.564468 -0.10776,1.055509 -0.53955,1.005029 -0.43513,-0.05087 -0.87109,-0.720601 -0.82505,-1.267467 0.0298,-0.354205 0.0924,-0.433893 0.42552,-0.541552 l 0.39054,-0.126233 -0.68453,-0.520526 c -0.37649,-0.286289 -0.75493,-0.587158 -0.84099,-0.668597 -0.28243,-0.267265 -0.37258,-0.0289 -0.38107,1.007558 -0.005,0.562097 -0.0458,1.43324 -0.0915,1.935873 -0.0506,0.556002 -0.0381,0.958935 0.0319,1.028935 0.21731,0.217303 2.12287,0.135146 2.79764,-0.120617 z m -12.18222,-22.430299 0.20678,-0.205787 -0.26573,-0.0387 c -0.3823,-0.05567 -0.60851,0.05975 -0.52805,0.269432 0.0918,0.239258 0.33176,0.22906 0.587,-0.02495 z m 9.88064,-5.567573 c 0.29106,-0.200256 0.8033,-0.508312 1.13831,-0.68457 l 0.60912,-0.320469 -0.0289,-1.461495 c -0.0165,-0.834441 -0.1017,-1.713761 -0.19864,-2.049458 -0.0934,-0.32338 -0.23394,-0.826089 -0.31234,-1.11713 -0.48331,-1.793983 -1.55371,-3.179421 -2.98794,-3.867319 -2.20754,-1.058801 -3.94906,-1.321946 -5.47803,-0.827733 -0.7896,0.255222 -2.74405,1.194022 -3.04744,1.463801 -0.097,0.08627 -0.52322,0.217221 -0.94713,0.291006 -0.42392,0.07379 -0.97798,0.250393 -1.23125,0.392462 -1.04105,0.58396 -1.4865,1.990319 -1.06772,3.370931 l 0.16052,0.529167 0.44145,-0.01481 c 0.42161,-0.01415 1.88855,-0.421514 2.31916,-0.644025 0.11231,-0.05803 0.30026,-0.105514 0.41768,-0.105514 h 0.21349 l -0.11195,-0.676903 c -0.16557,-1.001139 -0.0231,-1.707864 0.44408,-2.203244 0.21394,-0.226845 0.47534,-0.412446 0.58088,-0.412446 0.34838,0 0.21134,0.48742 -0.24907,0.885914 l -0.44097,0.381671 0.0127,0.707709 c 0.0195,1.088906 0.0125,1.082114 1.1085,1.082114 0.98116,0 1.26816,0.08482 1.74072,0.514463 0.28814,0.261973 0.60645,0.908197 0.60801,1.234388 10e-4,0.22654 0.50564,0.485408 0.9461,0.485408 0.17169,0 0.45218,0.129765 0.62331,0.288367 0.31175,0.288917 0.36778,0.500812 0.3194,1.207857 -0.0143,0.208502 0.006,0.431087 0.0455,0.494633 0.0874,0.141403 0.41665,0.03057 0.41665,-0.140255 0,-0.06782 0.13499,-0.300284 0.29997,-0.516586 0.68868,-0.902899 1.78225,-0.167314 2.00165,1.346396 0.10559,0.728549 0.10669,0.729773 0.65335,0.729773 0.33497,0 0.625,-0.10551 1.00085,-0.3641 z m -0.481,-3.5384 c -0.0282,-0.08494 -0.10321,-0.508423 -0.16665,-0.941064 -0.17971,-1.22544 -0.73494,-2.146917 -1.34633,-2.234396 -0.25815,-0.03694 -0.38627,-0.329207 -0.27334,-0.623518 0.0505,-0.131689 0.1324,-0.135883 0.43973,-0.02253 0.55857,0.206025 0.99967,0.705308 1.27629,1.444635 0.29496,0.78834 0.45554,2.324933 0.25587,2.448337 -0.0738,0.04564 -0.15735,0.01348 -0.18557,-0.07146 z m -1.86772,2.530587 c -0.0431,-0.04312 -0.0784,-0.0078 -0.0784,0.0784 0,0.08623 0.0353,0.121512 0.0784,0.0784 0.0431,-0.04312 0.0431,-0.113673 0,-0.15679 z"
       id="path10" /></g></svg>
