<?xml version="1.0" encoding="UTF-8" standalone="no"?>
<!-- Created with Inkscape (http://www.inkscape.org/) -->

<svg
   width="130.18315mm"
   height="81.487747mm"
   viewBox="0 0 130.18316 81.487748"
   version="1.1"
   id="svg1"
   xml:space="preserve"
   xmlns="http://www.w3.org/2000/svg"
   xmlns:svg="http://www.w3.org/2000/svg"><defs
     id="defs1" /><g
     id="layer1"
     transform="translate(30.057603,-1191.6865)"><path
       style="fill:#4d4d4d"
       d="m 40.605518,1272.9286 c -0.185318,-0.1989 -0.273702,-0.2212 -0.467221,-0.1176 -0.263557,0.1411 -0.721485,0.1666 -1.008862,0.056 -0.122536,-0.047 -0.185981,-0.2176 -0.18593,-0.4998 7.5e-5,-0.4156 -0.01289,-0.4284 -0.435051,-0.4284 -0.350451,0 -0.470232,-0.062 -0.61552,-0.3189 -0.149296,-0.2639 -0.155737,-0.3842 -0.03736,-0.6978 0.170592,-0.4519 0.131962,-0.5192 -0.18466,-0.3214 -0.191675,0.1197 -0.272702,0.1185 -0.423025,-0.01 -0.222514,-0.1847 -0.252596,-1.1271 -0.05169,-1.6193 0.622661,-1.5255 1.033034,-2.1644 1.976472,-3.0769 0.623374,-0.6029 1.547948,-1.3089 1.714073,-1.3089 0.04304,0 0.218713,-0.098 0.390387,-0.2177 0.171674,-0.1198 0.735468,-0.4456 1.252875,-0.724 2.075917,-1.1173 3.342593,-2.1421 3.850417,-3.1153 0.231707,-0.444 0.291619,-0.6488 0.567688,-1.9403 0.197074,-0.9219 0.276091,-2.161 0.132136,-2.072 -0.07082,0.044 -0.620892,0.1349 -1.222376,0.2024 -1.095479,0.1231 -1.856625,0.2192 -3.504254,0.4429 -0.485069,0.066 -1.331736,0.1772 -1.881481,0.2474 -0.549745,0.07 -1.396412,0.1789 -1.881482,0.2415 -1.417381,0.183 -2.900957,0.3426 -4.350925,0.4681 -0.743774,0.064 -1.523307,0.1456 -1.732296,0.1807 -0.20899,0.035 -1.743573,0.048 -3.410185,0.03 -5.793776,-0.065 -6.129815,-0.042 -8.937812,0.6223 -1.478004,0.3497 -3.033378,0.3514 -4.058365,0 -0.436562,-0.1478 -0.79375,-0.3301 -0.79375,-0.4051 0,-0.075 -1.150937,1.0064 -2.557639,2.4031 -2.9414422,2.9207 -3.5550751,3.4375 -4.8168937,4.0566 -0.5036596,0.2472 -0.9333835,0.4909 -0.9549422,0.5416 -0.074303,0.1748 -0.7290638,0.092 -1.2662883,-0.161 -0.2962139,-0.1392 -0.9619152,-0.6526 -1.4793361,-1.1407 -0.5174209,-0.4882 -1.1343832,-0.9752 -1.3710272,-1.0822 -0.6977187,-0.3155 -9.4958384,-6.2367 -9.7788729,-6.5813 -0.032338,-0.039 -0.3206542,-0.2498 -0.6407026,-0.4677 -0.3200485,-0.2178 -1.2415254,-0.8884 -2.0477264,-1.4902 -1.3212636,-0.9862 -1.4796286,-1.0739 -1.6058436,-0.8896 -0.07701,0.1124 -0.1705,0.3367 -0.207749,0.4984 -0.03725,0.1617 -0.128006,0.5057 -0.201682,0.7644 -0.07368,0.2587 -0.160718,0.6026 -0.193428,0.7643 -0.03271,0.1617 -0.104797,0.3998 -0.160195,0.5292 -0.100568,0.2348 -0.19033,0.6661 -0.312218,1.5 -0.03551,0.243 -0.111885,0.471 -0.169729,0.5067 -0.05784,0.036 -0.105171,0.1683 -0.105171,0.2946 0,0.5668 -1.105979,2.4186 -1.786947,2.9919 -0.213684,0.1798 -0.714378,0.4779 -1.112654,0.6623 -0.398276,0.1844 -1.000847,0.5603 -1.339048,0.8352 -1.275025,1.0367 -1.446163,1.137 -1.949961,1.142 -0.623195,0.01 -0.813292,-0.2189 -0.791035,-0.9364 0.02175,-0.7011 0.277145,-1.1935 0.835309,-1.6104 0.242602,-0.1812 0.520471,-0.4052 0.617484,-0.4977 0.154508,-0.1474 0.139921,-0.1566 -0.117592,-0.074 -0.16169,0.052 -0.63794,0.1316 -1.058334,0.1776 -0.420393,0.046 -0.900632,0.1406 -1.067198,0.2104 -0.361501,0.1515 -1.25798,1.1257 -1.884684,2.048 -0.528763,0.7782 -1.229594,1.3929 -1.587959,1.3929 -0.300922,0 -0.578282,-0.5612 -0.460595,-0.932 0.04257,-0.1342 0.05137,-0.2439 0.01955,-0.2439 -0.03182,0 -0.385685,0.3198 -0.786377,0.7107 -0.400691,0.3908 -0.78833,0.6924 -0.86142,0.6701 -0.07309,-0.022 -0.238723,-0.2514 -0.368075,-0.5092 -0.158799,-0.3165 -0.299612,-0.4554 -0.433548,-0.4278 -0.260708,0.054 -0.604147,-0.4781 -0.591685,-0.9164 0.0054,-0.1882 0.166072,-0.6749 0.357155,-1.0814 0.191084,-0.4065 0.383218,-1.0036 0.426967,-1.327 0.298976,-2.21 1.414891,-3.5464 3.474908,-4.1614 0.291041,-0.087 0.661458,-0.1991 0.823148,-0.2494 0.824251,-0.2562 2.998985,-0.5869 3.859182,-0.5869 0.393724,0 0.863873,-0.06 1.044775,-0.1322 0.96908,-0.3896 1.210857,-0.5597 1.210857,-0.852 0,-0.098 0.05292,-0.2105 0.117593,-0.2505 0.06468,-0.04 0.117593,-0.1987 0.117593,-0.3528 0,-0.1541 0.04707,-0.3092 0.1046,-0.3447 0.05753,-0.036 0.133081,-0.2372 0.167892,-0.448 0.124788,-0.7556 0.287165,-1.3935 0.375613,-1.4756 0.04951,-0.046 0.05828,0.3662 0.0195,0.916 -0.06544,0.9275 -0.197274,1.5237 -0.448182,2.0269 -0.05601,0.1123 -0.10183,0.3025 -0.10183,0.4227 0,0.2373 -0.346112,0.6078 -0.567824,0.6078 -0.07575,0 -0.137731,0.053 -0.137731,0.1176 0,0.065 -0.08009,0.1176 -0.177985,0.1176 -0.09789,0 -0.26987,0.047 -0.382176,0.1037 -0.401605,0.2039 -1.337768,0.3667 -2.10968,0.3667 -1.514837,0 -3.910143,0.5924 -5.060935,1.2517 -0.685179,0.3925 -1.441446,1.1827 -1.441446,1.5061 0,0.092 -0.05292,0.2008 -0.117593,0.2408 -0.06468,0.04 -0.113415,0.1621 -0.108309,0.2715 0.0075,0.1606 0.02126,0.1649 0.07157,0.022 0.133587,-0.3783 1.680494,-1.7434 2.200699,-1.9421 1.153974,-0.4407 1.202383,0.1693 0.05735,0.7226 -1.196404,0.5782 -1.752158,1.1837 -2.571101,2.8012 -0.795452,1.571 -0.853833,1.8285 -0.414559,1.8285 0.225381,0 0.294843,-0.062 0.297672,-0.2646 0.0034,-0.2421 0.404457,-1.1384 0.825269,-1.8441 0.818684,-1.3731 3.016117,-3.0105 3.339019,-2.488 0.137742,0.2229 -0.09581,0.485 -0.692009,0.7767 -0.33933,0.166 -0.863014,0.541 -1.163741,0.8333 -0.574548,0.5584 -1.253895,1.4713 -1.253895,1.685 0,0.069 -0.05292,0.1258 -0.117593,0.1258 -0.06468,0 -0.117592,0.069 -0.117592,0.1543 0,0.085 -0.110031,0.382 -0.244513,0.6604 -0.232137,0.4805 -0.236291,1.0668 -0.0076,1.0668 0.05292,0 0.46202,-0.4056 0.909102,-0.9013 0.447083,-0.4957 0.923451,-1.0117 1.058596,-1.1465 0.135145,-0.1349 0.382031,-0.4852 0.548635,-0.7784 0.557557,-0.9814 1.874941,-2.0841 2.753032,-2.3045 0.233862,-0.059 0.274373,-0.024 0.274373,0.2318 0,0.2553 -0.119212,0.3577 -0.788412,0.677 -0.928075,0.443 -1.573003,1.0664 -2.180801,2.1083 -0.342386,0.5869 -0.440972,0.8814 -0.440972,1.3172 0,0.8021 0.231135,0.7294 0.925965,-0.2913 0.319194,-0.4689 0.757369,-1.039 0.973722,-1.2669 0.216353,-0.2278 0.466481,-0.5549 0.555841,-0.7267 0.151127,-0.2907 0.22914,-0.3165 1.11713,-0.3694 1.143632,-0.068 1.815524,-0.183 1.903428,-0.3253 0.03555,-0.057 0.216213,-0.1046 0.401461,-0.1046 0.186695,0 0.490799,-0.1295 0.682296,-0.2907 0.190014,-0.1599 0.379283,-0.2569 0.420597,-0.2156 0.104377,0.1044 0.09439,0.5958 -0.01308,0.6435 -0.04851,0.022 -0.236199,0.2374 -0.417095,0.4796 -0.180895,0.2422 -0.690894,0.7328 -1.133331,1.0903 -0.775384,0.6265 -1.172677,1.2002 -1.011599,1.4608 0.188556,0.3051 0.87906,0.02 1.81738,-0.7493 0.349966,-0.287 1.052355,-0.7459 1.560865,-1.0196 1.300341,-0.6998 1.961384,-1.4017 2.536563,-2.6932 0.38639,-0.8676 0.449026,-1.0799 0.858577,-2.9097 0.172805,-0.7721 0.355135,-1.4552 0.462946,-1.7345 0.04993,-0.1293 0.156887,-0.4733 0.237677,-0.7643 0.328719,-1.1842 0.383454,-1.3609 0.482313,-1.5566 0.05674,-0.1123 0.103158,-0.334 0.103158,-0.4928 0,-0.1587 0.04707,-0.3177 0.1046,-0.3533 0.05753,-0.035 0.133081,-0.2371 0.167892,-0.4479 0.03481,-0.2108 0.117445,-0.5949 0.183633,-0.8536 0.371389,-1.4516 0.8558598,-3.7446 1.0683834,-5.0565 0.07334,-0.4527 0.1836611,-1.0488 0.2451588,-1.3246 0.061498,-0.2758 0.1141187,-0.9373 0.1169354,-1.4699 0.00499,-0.9428 0.073479,-1.4116 0.3476565,-2.3796 0.1918316,-0.6772 0.4270756,-1.69 0.723837,-3.1162 0.5345414,-2.5689 0.9683601,-5.8243 1.1361091,-8.5254 0.087027,-1.4014 0.2767797,-1.6855 0.3743132,-0.5606 0.063809,0.736 0.3796842,1.3112 1.5555408,2.8327 2.0851083,2.698 3.3488132,4.0301 6.1467739,6.4792 0.1940278,0.1698 0.5379861,0.4373 0.7643518,0.5943 0.2263658,0.1571 0.4380324,0.3181 0.4703704,0.3578 0.032338,0.04 0.6269019,0.457 1.3212532,0.9273 1.3656206,0.925 2.1252852,1.6768 2.5177633,2.4919 0.3621241,0.752 0.7470946,2.2692 0.7470946,2.9443 0,0.4405 0.198266,1.602 0.3851463,2.2563 l 0.1282888,0.4492 0.1478371,-0.3904 c 0.1558287,-0.4115 1.077214,-2.9163 1.7656718,-4.8001 0.2245521,-0.6144 0.4529282,-1.223 0.5075024,-1.3523 0.054574,-0.1294 0.1628232,-0.4204 0.2405532,-0.6468 0.16154,-0.4704 0.269728,-0.7575 0.443173,-1.1759 0.06702,-0.1617 0.238013,-0.6115 0.379975,-0.9995 0.304278,-0.8318 0.459659,-1.2186 0.601683,-1.4977 0.05713,-0.1123 0.103873,-0.2604 0.103873,-0.3291 0,-0.069 0.105833,-0.3439 0.235185,-0.6116 0.129352,-0.2678 0.235185,-0.5312 0.235185,-0.5853 0,-0.2499 1.143711,-2.482 1.704374,-3.3263 0.654052,-0.985 1.509123,-1.9379 1.744262,-1.9438 0.07587,0 0.369111,-0.4783 0.651656,-1.0587 l 0.513717,-1.0554 -0.513717,-0.6752 c -0.282545,-0.3714 -0.607441,-0.7793 -0.721991,-0.9064 -0.270492,-0.3001 -1.379227,-1.9038 -1.379227,-1.9949 0,-0.2241 -1.351255,-2.1081 -1.87801,-2.6185 -0.415454,-0.4026 -0.600511,-0.6664 -0.55349,-0.7889 0.04784,-0.1247 0.140949,-0.1563 0.288477,-0.098 0.588316,0.2324 1.213671,0.9743 2.154261,2.5555 0.34625,0.5821 0.697037,1.1283 0.779525,1.2137 0.08249,0.085 0.149978,0.2008 0.149978,0.2562 0,0.056 0.06789,0.1707 0.150861,0.2562 0.08297,0.086 0.280455,0.3406 0.438847,0.567 0.271054,0.3873 0.433538,0.5863 1.189354,1.4565 l 0.309155,0.3559 0.510221,-0.2301 c 0.653497,-0.2946 2.181309,-0.3019 2.85458,-0.014 0.585979,0.251 0.661797,0.2457 0.661797,-0.046 0,-0.1325 0.183952,-0.4304 0.408783,-0.6619 l 0.408783,-0.4209 -0.232394,-0.3264 c -0.127817,-0.1795 -0.232394,-0.3591 -0.232394,-0.3992 0,-0.085 -2.352028,-3.6257 -2.466404,-3.7126 -0.04255,-0.032 -0.241964,-0.2969 -0.443148,-0.5879 -0.201184,-0.2911 -0.488767,-0.6615 -0.639073,-0.8232 -0.741564,-0.7977 -2.213412,-2.7907 -2.213412,-2.9971 0,-0.039 -0.105834,-0.1837 -0.235185,-0.3226 -0.158953,-0.1706 -0.235186,-0.415 -0.235186,-0.7539 0,-0.2758 -0.04741,-0.623 -0.105346,-0.7716 -0.05794,-0.1485 -0.172443,-0.4956 -0.254449,-0.7712 -0.189265,-0.6361 -0.818558,-1.375 -1.446127,-1.698 -0.392673,-0.2021 -0.692354,-0.2502 -1.545467,-0.2481 -1.099204,0 -1.763274,0.1602 -2.9919493,0.709 -0.5904237,0.2637 -1.8686662,1.0403 -2.0057353,1.2186 -0.032338,0.042 -0.2815841,0.1894 -0.5538802,0.3274 -0.6296141,0.3192 -1.3629625,0.3256 -1.7982243,0.016 -0.3181391,-0.2266 -0.7053029,-1.0771 -0.7053029,-1.5495 0,-0.1759 -0.095861,-0.2142 -0.5358906,-0.2142 -0.2947398,0 -0.784219,-0.054 -1.0877315,-0.121 -0.3035125,-0.067 -0.8164242,-0.1746 -1.1398038,-0.2401 -0.83102828,-0.1684 -1.49479024,-0.3498 -1.73289514,-0.4736 -0.11230529,-0.058 -0.26072963,-0.1061 -0.32983186,-0.1061 -0.0691022,0 -0.4341364,-0.2095 -0.8111869,-0.4655 -0.6375816,-0.433 -1.5358083,-1.458 -1.5358083,-1.7526 0,-0.092 -0.084245,-0.09 -0.2939815,0.01 -0.1616898,0.074 -0.2939814,0.2119 -0.2939814,0.3071 0,0.095 -0.1133037,0.2714 -0.2517859,0.3915 l -0.2517859,0.2184 0.3029529,0.6773 c 0.584158,1.3061 0.6975788,1.7957 0.701013,3.0255 0.00282,1.0109 -0.034632,1.2467 -0.2617228,1.6477 -0.5349795,0.9447 -1.1266599,1.2427 -3.1197947,1.5712 -2.1312768,0.3512 -3.2881626,0.8624 -4.1388126,1.8288 -0.912666,1.0368 -1.206912,1.9453 -1.270673,3.9229 -0.02683,0.8323 -0.07413,1.5894 -0.105096,1.6825 -0.03097,0.093 -0.08664,0.6983 -0.123711,1.3451 -0.03707,0.6468 -0.114924,1.5993 -0.173006,2.1167 -0.223431,1.9903 -0.26523,2.5709 -0.423292,5.8796 -0.169627,3.5507 -0.301715,4.6168 -0.81594,6.5852 -0.450456,1.7243 -0.665291,3.2511 -0.868654,6.1736 l -0.08592,1.2347 -0.09939,-0.693 c -0.05466,-0.3811 -0.07013,-1.1198 -0.03437,-1.6415 0.06313,-0.9211 0.05514,-0.9598 -0.276632,-1.3376 -0.187906,-0.214 -0.372532,-0.5337 -0.41028,-0.7104 -0.03775,-0.1766 -0.117888,-0.4427 -0.178088,-0.5913 -0.0602,-0.1486 -0.109652,-0.6248 -0.109894,-1.0583 -5.7e-4,-1.023 -0.246087,-1.4477 -1.004254,-1.7372 -0.534915,-0.2043 -0.587521,-0.2041 -1.50926,0.01 -2.228137,0.5068 -5.239328,0.2938 -7.011046,-0.4961 -0.355718,-0.1586 -0.911343,-0.4092 -1.234722,-0.557 -1.638717,-0.749 -2.590527,-0.8019 -2.966803,-0.1649 -0.224964,0.3808 -0.358693,0.4255 -0.462698,0.1544 -0.07008,-0.1826 0.14136,-0.7062 0.37664,-0.9328 0.63201,-0.6084 1.293314,-0.5362 3.170453,0.3465 1.174304,0.5522 2.41178,0.8881 3.272166,0.8884 0.205262,0 0.770079,0.085 1.255149,0.188 0.955968,0.2038 2.726318,0.1715 3.329646,-0.061 0.182069,-0.07 0.673656,-0.1274 1.092416,-0.1274 0.988676,0 1.578037,0.2915 1.981661,0.9802 0.265794,0.4536 0.299103,0.64 0.299494,1.6759 3.78e-4,1.0026 0.03702,1.2232 0.262023,1.5772 l 0.261583,0.4116 0.07641,-0.6468 c 0.195867,-1.6579 0.347576,-2.6014 0.557761,-3.469 0.125354,-0.5174 0.287458,-1.2318 0.360232,-1.5875 0.07277,-0.3557 0.186455,-0.8849 0.252626,-1.1759 0.06617,-0.291 0.167044,-2.1028 0.224163,-4.0261 0.05712,-1.9232 0.158028,-3.8812 0.224242,-4.3509 0.295966,-2.0996 0.361381,-2.9713 0.353732,-4.7141 -0.01383,-3.1517 0.384033,-4.6508 1.553042,-5.8518 0.967682,-0.9941 2.0867372,-1.4118 5.0299425,-1.8777 1.0884538,-0.1722 1.6572239,-0.4731 2.0553478,-1.0871 0.2640714,-0.4072 0.3125302,-0.6121 0.3125302,-1.321 0,-1.4175 -0.6948522,-3.1559 -1.5342084,-3.8383 -0.2643804,-0.215 -0.7284849,-0.6518 -1.0313434,-0.9707 -0.3028585,-0.3189 -0.7358602,-0.7422 -0.9622259,-0.9407 -1.8292839,-1.6042 -3.2881528,-3.5064 -3.8844218,-5.0647 -0.04949,-0.1293 -0.161477,-0.4204 -0.24885,-0.6467 -0.207149,-0.5367 -0.213701,-2.9908 -0.0085,-3.196 0.07901,-0.079 0.143656,-0.2308 0.143656,-0.3372 0,-0.1065 0.0736,-0.3473 0.163564,-0.5351 0.178589,-0.3728 0.513,-1.1452 0.656932,-1.5174 0.05003,-0.1293 0.150466,-0.3832 0.223195,-0.5641 0.07273,-0.1809 0.132235,-0.4546 0.132235,-0.6082 0,-0.3896 0.7471876,-0.9976 2.0467726,-1.6653 0.5881869,-0.3022 1.2813617,-0.6938 1.5403884,-0.8702 1.1765258,-0.8013 1.2406903,-0.8195 2.8856035,-0.8195 0.8396974,0 1.6186087,-0.045 1.730914,-0.099 0.1123052,-0.055 0.3225359,-0.1604 0.4671791,-0.2352 0.315817,-0.1633 1.36378426,-0.1798 1.6494875,-0.026 0.11230529,0.061 0.3761706,0.1792 0.58636736,0.2639 0.21019674,0.085 0.38217594,0.194 0.38217594,0.2429 0,0.049 0.070957,0.089 0.1576829,0.089 0.1871119,0 1.1001103,0.8512 1.451823,1.3535 0.3006803,0.4295 0.7423459,1.7346 0.7423459,2.1937 0,0.1859 0.065011,0.3353 0.1469907,0.3378 0.080845,0 0.5069871,0.7301 0.9469826,1.6169 0.7781319,1.5684 1.1402859,2.6217 1.1402859,3.3163 0,0.1871 0.042438,0.3664 0.094306,0.3984 0.051868,0.032 0.1681806,0.3296 0.2584717,0.6612 0.090291,0.3316 0.2066034,0.6291 0.2584717,0.6611 0.051868,0.032 0.094306,0.197 0.094306,0.3664 0,0.1695 0.049915,0.4706 0.1109212,0.6692 0.061007,0.1986 0.1668381,1.7024 0.2351811,3.3416 l 0.12426,2.9805 -0.2597672,0.3709 c -0.142872,0.204 -0.3628681,0.4503 -0.4888802,0.5473 -0.4388851,0.3379 -1.4286347,0.8181 -1.6913908,0.8206 -0.32994,0 -0.3376068,0.2216 -0.029014,0.8265 0.3956377,0.7755 0.8505106,0.8812 1.8297279,0.4252 0.3274643,-0.1525 0.856631,-0.4633 1.1759259,-0.6908 0.7037383,-0.5013 1.8036523,-1.0495 2.5208143,-1.2563 0.291041,-0.084 0.682584,-0.1994 0.870094,-0.2565 0.18751,-0.057 0.676229,-0.1039 1.086043,-0.1039 2.224607,0 3.218796,1.057 3.674119,3.9063 0.04877,0.3052 0.177747,0.6533 0.286616,0.7736 0.108868,0.1203 0.197942,0.258 0.197942,0.3059 0,0.209 1.174606,1.7537 2.713769,3.5689 0.123318,0.1455 0.982242,1.4008 1.908722,2.7896 l 1.684509,2.5252 0.403676,-0.2273 c 0.426648,-0.2402 1.536489,-0.7833 1.93238,-0.9456 0.479909,-0.1968 0.972855,-0.2664 2.231509,-0.315 1.582605,-0.061 2.313124,0.097 3.803391,0.823 0.966452,0.4709 1.498496,1.001 2.206871,2.1986 0.736831,1.2458 1.363201,1.8713 2.365155,2.3619 0.783655,0.3837 0.83113,0.3916 2.38728,0.3963 0.932928,0 1.793743,-0.055 2.087269,-0.1412 0.274749,-0.08 0.724439,-0.2042 0.999312,-0.2751 0.274872,-0.071 0.591654,-0.1769 0.70396,-0.2352 0.112305,-0.058 0.300159,-0.1062 0.417453,-0.1062 0.117295,0 0.263534,-0.044 0.324976,-0.097 0.06144,-0.053 0.349838,-0.1688 0.640879,-0.2564 0.291042,-0.087 0.582084,-0.1915 0.64676,-0.2311 0.06468,-0.039 0.329259,-0.1433 0.587962,-0.2307 0.258704,-0.087 0.734954,-0.2775 1.058334,-0.4225 0.323379,-0.145 0.984838,-0.435 1.469907,-0.6443 0.877878,-0.3789 3.410023,-1.653 4.276539,-2.1518 0.310582,-0.1788 0.513028,-0.4104 0.638491,-0.7304 0.101042,-0.2577 0.213976,-0.495 0.250964,-0.5273 0.03699,-0.032 0.141721,-0.2033 0.23274,-0.38 0.304942,-0.5918 1.309315,-1.4663 2.166477,-1.8864 1.064888,-0.5218 1.448379,-0.6734 1.70361,-0.6734 0.186349,0 0.199302,-0.1668 0.156832,-2.0189 -0.07014,-3.0587 0.255424,-4.1568 1.998743,-6.7418 1.663699,-2.4669 2.829986,-3.5521 4.862178,-4.5241 1.672549,-0.8001 2.150481,-0.9388 3.923025,-1.1392 0.663996,-0.075 1.752318,0.1061 2.250586,0.3746 0.847448,0.4566 2.990415,2.0913 3.76313,2.8705 0.998931,1.0073 1.608985,2.0788 1.711628,3.0062 l 0.06507,0.5879 -0.355421,-0.7963 c -0.476395,-1.0675 -0.914085,-1.681 -1.753472,-2.4582 -0.774833,-0.7173 -3.639566,-2.6767 -4.195291,-2.8694 -0.385866,-0.1338 -2.122288,-0.011 -2.939814,0.2085 -2.131572,0.5714 -3.800777,1.4847 -5.114406,2.7984 -0.637259,0.6372 -1.926335,2.3805 -2.457118,3.3228 -0.136611,0.2426 -0.346403,0.6139 -0.466205,0.8252 -0.497903,0.8783 -0.877502,2.4678 -0.877138,3.6727 2.34e-4,0.7739 0.424066,4.7657 0.611793,5.7621 0.227037,1.205 0.705286,2.4709 1.122781,2.9719 0.518723,0.6225 1.904093,2.1229 1.968612,2.132 0.04399,0.01 0.03076,-0.1603 -0.0294,-0.37 -0.256376,-0.894 -0.04815,-0.8585 0.40566,0.069 0.652427,1.3335 0.821729,2.5298 0.51849,3.6636 -0.217558,0.8134 -0.385307,0.5765 -0.398604,-0.5631 -0.0109,-0.934 -0.04325,-1.0658 -0.411574,-1.6765 -0.21986,-0.3646 -0.850264,-1.1475 -1.400899,-1.7398 -0.550634,-0.5923 -1.139606,-1.2621 -1.308825,-1.4885 -0.341963,-0.4575 -0.740384,-1.5421 -0.863891,-2.3519 -0.04439,-0.291 -0.125168,-0.8202 -0.179504,-1.1759 -0.05434,-0.3557 -0.135916,-0.8981 -0.181289,-1.2053 -0.04537,-0.3072 -0.09333,-0.5586 -0.10658,-0.5586 -0.158584,0 -1.58619,0.5367 -1.91845,0.7213 -0.920221,0.5111 -2.016174,1.5063 -2.022301,1.8364 -0.0015,0.081 -0.04273,0.1469 -0.09161,0.1469 -0.100164,0 -0.289677,0.4196 -0.50457,1.1172 -0.0797,0.2587 -0.194675,0.6106 -0.255502,0.782 -0.06083,0.1714 -0.125462,1.071 -0.143633,1.9991 -0.01899,0.9699 -0.09369,1.8374 -0.175658,2.0402 -0.277405,0.6862 -0.676185,2.8833 -0.949764,5.2328 -0.208865,1.7938 -0.598239,6.7501 -0.568159,7.232 0.03257,0.5218 -0.06822,1.0833 -0.306103,1.7051 -0.0866,0.2263 -0.222191,0.6497 -0.301318,0.9407 -0.07913,0.2911 -0.184983,0.6615 -0.235236,0.8232 -0.05025,0.1617 -0.153675,0.6115 -0.229828,0.9995 -0.07615,0.3881 -0.188294,0.8991 -0.249201,1.1356 -0.06091,0.2364 -0.164757,2.115 -0.230778,4.1745 -0.06602,2.0595 -0.151137,3.8239 -0.189149,3.9209 -0.03801,0.097 -0.113302,0.5204 -0.16731,0.9408 -0.09711,0.7558 -0.211976,1.3855 -0.461251,2.5282 -0.07054,0.3234 -0.155993,0.7467 -0.189894,0.9407 -0.116444,0.6665 -0.799701,1.8373 -1.377556,2.3606 -0.541341,0.4902 -1.12416,0.8426 -3.159653,1.9101 -2.123526,1.1137 -3.839713,2.6356 -4.539088,4.0251 -0.401909,0.7986 -0.407783,1.0209 -0.03315,1.2549 0.19332,0.1207 0.240244,0.091 0.371694,-0.2377 0.270415,-0.6757 0.838088,-1.4035 2.149524,-2.7559 1.239186,-1.2779 1.504145,-1.457 1.579679,-1.0678 0.03673,0.1893 -0.06921,0.3131 -1.84776,2.1599 -0.817869,0.8492 -1.243776,1.4011 -1.514423,1.9622 -0.416836,0.8643 -0.515282,1.7363 -0.196019,1.7363 0.439539,0 1.112993,-0.759 1.112993,-1.2543 0,-0.088 0.04758,-0.2519 0.105737,-0.3642 0.05815,-0.1123 0.230134,-0.4641 0.382176,-0.7819 0.31859,-0.6657 2.41281,-2.8912 2.720736,-2.8912 0.328656,0 0.235618,0.4386 -0.168159,0.7928 -0.740668,0.6497 -2.052222,2.2455 -2.354307,2.8645 -0.303602,0.6222 -0.921368,2.3504 -0.921368,2.5776 0,0.1941 0.277826,0.1289 0.713991,-0.1675 0.319352,-0.217 0.494331,-0.4829 0.754314,-1.1465 0.186179,-0.4752 0.510687,-1.155 0.721129,-1.5107 0.702754,-1.1879 2.532665,-2.9399 3.070678,-2.9399 0.437348,0 0.319169,0.3929 -0.238697,0.7935 -0.795853,0.5716 -1.95418,1.7704 -2.446534,2.5322 -0.707081,1.094 -1.170462,2.554 -0.810603,2.554 0.263398,0 1.567828,-1.4331 2.341694,-2.5727 0.563231,-0.8294 1.180408,-1.3159 2.189417,-1.726 0.381291,-0.155 0.905631,-0.4966 1.189025,-0.7748 0.278823,-0.2736 0.540818,-0.4636 0.582212,-0.4223 0.04139,0.041 0.152116,0 0.24605,-0.096 0.448857,-0.4488 0.640473,0.043 0.227607,0.5846 -0.167884,0.2201 -0.374706,0.4709 -0.459605,0.5574 -0.3425,0.3487 -0.956764,1.3444 -1.16098,1.8818 -0.248366,0.6537 -0.251804,0.6839 -0.104226,0.9173 0.08617,0.1362 0.409086,-0.1233 1.536594,-1.2347 0.785126,-0.774 1.499028,-1.5434 1.58645,-1.7098 0.08742,-0.1664 0.227036,-0.7353 0.310251,-1.2641 0.08322,-0.5289 0.188324,-0.9616 0.233574,-0.9616 0.130407,0 0.251977,1.461 0.157897,1.8975 -0.04688,0.2176 -0.158655,0.5393 -0.248395,0.7149 -0.148304,0.2903 -2.454309,2.6527 -3.257116,3.3368 -0.396288,0.3376 -0.793484,0.3632 -1.060484,0.068 -0.32383,-0.3579 -0.236304,-0.9853 0.275382,-1.9741 0.258498,-0.4995 0.451085,-0.9272 0.427971,-0.9503 -0.02311,-0.023 -0.372426,0.1271 -0.776249,0.3338 -0.83765,0.4287 -1.5472,1.0724 -2.12036,1.9237 -0.790043,1.1733 -1.917974,2.293 -2.309854,2.293 -0.08297,0 -0.25371,-0.1104 -0.379414,-0.2453 z m -33.5646133,-8.2379 c 0.8608916,-0.351 1.0942125,-0.4794 1.9164127,-1.0546 0.519115,-0.3632 2.0703206,-1.8058 3.7705796,-3.5065 3.11084,-3.1117 3.79828,-3.8584 5.63749,-6.1233 1.481788,-1.8247 1.414419,-1.7391 1.759236,-2.2342 0.157653,-0.2264 0.320251,-0.4381 0.36133,-0.4704 0.239831,-0.1888 2.445364,-3.6628 3.24753,-5.1153 0.41549,-0.7523 1.417484,-2.7838 1.566029,-3.175 0.04912,-0.1293 0.145825,-0.3675 0.214909,-0.5292 0.386132,-0.9037 0.845822,-2.6412 0.848206,-3.206 0.0024,-0.5654 0.121787,-0.9097 0.31545,-0.9097 0.142166,0 0.157665,0.1378 0.08927,0.7938 -0.07021,0.6733 -0.262459,1.7516 -0.422485,2.3695 -0.09127,0.3524 1.898402,1.1003 4.367083,1.6416 1.986138,0.4354 6.216383,0.8437 8.660489,0.8358 1.133143,0 3.574323,-0.2425 4.627474,-0.4528 0.865012,-0.1727 1.674718,-0.3554 2.175463,-0.4909 0.258703,-0.07 0.602662,-0.1571 0.764351,-0.1936 0.16169,-0.037 0.346899,-0.1027 0.411574,-0.1471 0.06468,-0.044 0.355718,-0.1522 0.64676,-0.2398 0.291041,-0.088 0.579437,-0.203 0.640879,-0.2564 0.06144,-0.053 0.205955,-0.097 0.32114,-0.097 0.291873,0 0.274298,0.1161 0.569244,-3.763 0.305115,-4.0129 0.614365,-6.4038 1.117806,-8.6423 0.15991,-0.7109 0.294017,-1.6634 0.298015,-2.1166 0.004,-0.4532 0.04573,-1.2076 0.09275,-1.6765 0.04701,-0.4689 0.05107,-0.8526 0.009,-0.8526 -0.04205,0 -0.440976,0.2001 -0.886495,0.4446 -1.235825,0.6783 -4.134738,2.0449 -5.043369,2.3777 -0.129352,0.047 -0.393935,0.1532 -0.587963,0.2352 -0.609634,0.2575 -0.809955,0.333 -1.293518,0.4871 -0.258704,0.082 -0.523287,0.1822 -0.587963,0.2218 -0.06468,0.039 -0.355718,0.1403 -0.646759,0.224 -0.291042,0.084 -0.635,0.1951 -0.764352,0.2475 -0.129352,0.053 -0.393935,0.1286 -0.587963,0.1693 -0.194028,0.041 -0.590903,0.1282 -0.881945,0.1945 -0.918538,0.2091 -2.587248,0.2568 -3.288737,0.094 -1.643102,-0.3815 -2.507611,-1.0516 -3.777499,-2.9284 -0.720503,-1.0648 -1.45995,-1.7746 -2.211729,-2.1232 -0.168207,-0.078 -0.397717,-0.1885 -0.510022,-0.2456 -0.112306,-0.057 -0.30762,-0.1039 -0.434033,-0.1039 -0.126412,0 -0.258318,-0.046 -0.293124,-0.1024 -0.03481,-0.056 -0.315742,-0.1357 -0.624301,-0.1764 -0.30856,-0.041 -0.76829,-0.1073 -1.021624,-0.1479 -0.656134,-0.1054 -2.127816,0.1632 -3.125968,0.5704 -0.947848,0.3866 -2.584966,1.4364 -2.586407,1.6584 -3.46e-4,0.053 0.46436,0.061 1.03268,0.016 0.786277,-0.062 1.214997,-0.035 1.793287,0.1123 1.072838,0.2726 1.788692,0.6528 1.977259,1.0502 0.188573,0.3973 0.03012,0.6604 -0.236934,0.3934 -0.713734,-0.7137 -2.690177,-1.0876 -4.27294,-0.8082 -0.460279,0.081 -0.472061,0.096 -0.549188,0.6694 -0.04335,0.3225 -0.115483,0.7309 -0.160296,0.9076 -0.05964,0.2352 0.013,0.5188 0.271028,1.0584 0.39293,0.8215 0.732437,2.1741 0.732437,2.9179 0,0.2685 -0.08669,0.6709 -0.192657,0.8942 -0.269949,0.5689 -0.612483,0.4981 -0.938692,-0.1941 -0.137173,-0.291 -0.424327,-0.8995 -0.638118,-1.3523 -0.213792,-0.4527 -0.538122,-1.0443 -0.720734,-1.3147 -0.335826,-0.4972 -0.437153,-0.9783 -0.206029,-0.9783 0.136941,0 0.461971,0.2894 0.461971,0.4113 0,0.042 0.14919,0.2967 0.331534,0.567 0.351141,0.5206 0.675396,1.1912 1.019549,2.1085 0.115265,0.3072 0.249411,0.5585 0.298102,0.5585 0.163667,0 0.230614,-0.7592 0.119239,-1.3523 -0.195294,-1.0399 -0.26918,-1.2671 -0.628467,-1.933 -0.315547,-0.5849 -0.351297,-0.7556 -0.338158,-1.6153 l 0.01469,-0.9612 -0.54751,-0.2651 c -0.417498,-0.2021 -0.758771,-0.2657 -1.43718,-0.268 -1.370654,0 -1.88077,0.3673 -2.705828,1.9721 -0.392095,0.7626 -0.476898,1.0459 -0.476898,1.5933 0,0.3662 0.04211,0.7161 0.09359,0.7775 0.05147,0.062 0.160077,0.3084 0.241343,0.5487 0.226525,0.6699 1.745297,3.1105 1.99536,3.2064 0.08681,0.033 0.288383,0.028 0.447931,-0.012 0.256923,-0.064 0.270944,-0.095 0.12264,-0.2645 -0.196886,-0.2253 -1.374917,-2.1405 -1.65134,-2.6846 -0.240103,-0.4727 -0.276051,-2.1995 -0.0442,-2.1231 0.08085,0.027 0.161466,0.1765 0.179158,0.3331 0.151628,1.3424 1.308663,3.6298 2.132895,4.2168 0.328239,0.2337 0.715957,0.2254 0.715957,-0.015 0,-0.1252 -0.633787,-1.0611 -0.978154,-1.4444 -0.435908,-0.4851 -1.148833,-2.1136 -1.217775,-2.7815 -0.08173,-0.7919 0.122123,-1.0372 0.307433,-0.3699 0.06781,0.2442 0.12359,0.5123 0.123951,0.5957 0.0016,0.3671 1.589692,2.918 2.191003,3.5193 0.271299,0.2713 0.749467,0.3675 0.749467,0.1508 0,-0.065 0.105834,-0.1176 0.235186,-0.1176 0.315679,0 0.30932,0.3962 -0.01151,0.7171 -0.158353,0.1583 -0.345792,0.2277 -0.523428,0.1937 -0.153345,-0.029 -0.423482,0.044 -0.605853,0.1642 -0.369901,0.2439 -0.762576,0.278 -1.102879,0.096 -0.126023,-0.067 -0.222111,-0.081 -0.213529,-0.029 0.04485,0.2679 -0.04242,0.4045 -0.32785,0.513 -0.433713,0.1649 -0.938364,-0.06 -1.176386,-0.5245 -0.103059,-0.2011 -0.330289,-0.5773 -0.504955,-0.836 -0.903394,-1.3381 -1.419516,-2.573 -1.522189,-3.6421 l -0.06744,-0.7023 -0.39064,0.4083 c -0.812132,0.8488 -2.207005,3.1558 -2.770943,4.5828 -0.115013,0.2911 -0.28954,0.7144 -0.387839,0.9408 -0.310763,0.7156 -0.370789,0.8706 -0.523755,1.3523 -0.08215,0.2587 -0.191485,0.5206 -0.242958,0.5821 -0.05147,0.061 -0.09359,0.2303 -0.09359,0.3752 0,0.1449 -0.05292,0.2962 -0.117593,0.3362 -0.06467,0.04 -0.117592,0.1987 -0.117592,0.3528 0,0.154 -0.05292,0.3128 -0.117593,0.3528 -0.06468,0.04 -0.117592,0.1912 -0.117592,0.3362 0,0.1449 -0.04212,0.3138 -0.09359,0.3752 -0.05147,0.061 -0.161089,0.3234 -0.243591,0.5821 -0.0825,0.2587 -0.248813,0.7349 -0.3695785,1.0583 -0.1207657,0.3234 -0.570098,1.5405 -0.9985163,2.7046 -0.4284183,1.1642 -0.8250625,2.2225 -0.8814317,2.3519 -0.056369,0.1293 -0.215269,0.5791 -0.3531106,0.9995 -0.1378416,0.4204 -0.2976908,0.8702 -0.3552205,0.9996 -0.05753,0.1293 -0.2716247,0.7643 -0.4757668,1.4111 -0.2041421,0.6467 -0.4181826,1.2678 -0.4756456,1.3801 -0.057463,0.1123 -0.1044782,0.3266 -0.1044782,0.4762 0,0.1497 -0.043388,0.3224 -0.096417,0.3838 -0.05303,0.062 -0.2077854,0.4821 -0.3439019,0.9349 -0.5581613,1.8565 -0.5989898,2.1801 -0.3587875,2.8444 0.1199947,0.3318 0.1124047,0.4209 -0.049678,0.583 -0.1052216,0.1052 -0.2710258,0.1607 -0.3684537,0.1233 -0.2647938,-0.1016 -1.8315873,-2.0642 -2.3693356,-2.9679 -0.5094893,-0.8562 -1.6488321,-2.0779 -2.44287881,-2.6194 -0.65259445,-0.4451 -1.78793709,-0.974 -3.02517669,-1.4093 -0.5497454,-0.1934 -1.4228704,-0.5222 -1.9402778,-0.7305 -0.5174074,-0.2084 -1.3376157,-0.4821 -1.8226851,-0.6082 -0.4850695,-0.1262 -1.0406945,-0.275 -1.2347223,-0.3309 -0.1940277,-0.056 -0.4850694,-0.1392 -0.6467592,-0.1852 -0.1616898,-0.046 -0.3468981,-0.1214 -0.4115741,-0.1674 -0.064676,-0.046 -0.2396856,-0.1135 -0.3889105,-0.1501 -0.3317129,-0.081 -0.385417,0.035 -0.7226311,1.5612 -0.1357225,0.6145 -0.2939705,1.3024 -0.3516615,1.5287 -0.29364,1.1522 -0.391427,1.4873 -0.488536,1.6741 -0.194424,0.3741 -0.10985,0.6592 0.276044,0.9305 0.5432031,0.3819 3.1675689,2.3161 3.3919477,2.4999 0.1031519,0.085 0.5264853,0.3821 0.9407408,0.6614 0.4142555,0.2792 0.7796501,0.5447 0.8119881,0.5899 0.1287347,0.1799 7.651007,5.174 8.2730112,5.4925 0.3661011,0.1875 1.024315,0.6886 1.4626975,1.1137 1.2432834,1.2056 1.869555,1.4689 2.6941747,1.1326 z m 13.0877093,-6.4592 c 3.328083,-0.7027 3.843345,-0.7457 7.059004,-0.5883 1.586457,0.078 3.147499,0.1096 3.468981,0.071 0.321483,-0.039 1.325348,-0.1223 2.230811,-0.1863 2.202955,-0.1558 3.953304,-0.3375 6.702777,-0.6959 0.452732,-0.059 1.246482,-0.1617 1.763889,-0.2282 0.517408,-0.066 1.364074,-0.1794 1.881482,-0.2509 1.442403,-0.1996 2.509714,-0.3317 3.371104,-0.4174 l 0.784067,-0.078 0.06155,-0.7199 c 0.03385,-0.3959 0.117822,-1.8311 0.186595,-3.1892 0.142954,-2.8232 0.29305,-4.6188 0.408971,-4.8926 0.08601,-0.2031 0.262706,-0.1795 -3.459974,-0.4631 -2.283017,-0.1739 -5.324998,-0.4684 -7.114352,-0.6886 -0.517408,-0.064 -1.390533,-0.1682 -1.940278,-0.2322 -2.021516,-0.2355 -8.424191,-1.2169 -9.714045,-1.4891 -0.363577,-0.077 -0.368332,-0.071 -0.935518,1.0808 -0.734978,1.4928 -1.725811,3.16 -2.849363,4.7944 -0.492407,0.7163 -0.926741,1.3288 -0.965188,1.3612 -0.03845,0.032 -0.197095,0.244 -0.352552,0.4704 -0.155458,0.2263 -0.311792,0.438 -0.34741,0.4703 -0.03562,0.032 -0.301636,0.3763 -0.591153,0.7644 -0.489589,0.6562 -2.195344,2.7487 -2.348527,2.881 -0.03745,0.032 -0.218593,0.244 -0.40255,0.4704 -0.183956,0.2263 -0.575068,0.6679 -0.869137,0.9811 -0.640009,0.6819 -0.611486,0.717 0.85461,1.0542 0.596759,0.1372 1.544893,0.052 3.116204,-0.2796 z m -14.8570385,-4.2546 c 0.036886,-0.1778 0.1066681,-0.3234 0.1550719,-0.3234 0.048404,0 0.123345,-0.3449 0.1665358,-0.7664 0.043191,-0.4216 0.1243627,-0.8846 0.1803819,-1.029 0.056019,-0.1443 0.1663119,-0.5005 0.2450951,-0.7916 0.078783,-0.291 0.1840956,-0.635 0.2340276,-0.7643 0.049932,-0.1294 0.158935,-0.4734 0.2422287,-0.7644 0.083294,-0.291 0.1951587,-0.5794 0.2485887,-0.6409 0.05343,-0.061 0.097146,-0.2246 0.097146,-0.3626 0,-0.1379 0.036266,-0.2871 0.080591,-0.3314 0.1499432,-0.1499 0.3636293,-0.9016 0.2723487,-0.9581 -0.1334102,-0.082 -0.3614084,-1.3105 -0.5239539,-2.8223 -0.1148094,-1.0677 -0.42036,-2.2046 -0.8000325,-2.9765 -0.335816,-0.6828 -1.4777483,-1.7273 -3.0029749,-2.7468 -0.6923666,-0.4628 -1.2853067,-0.8725 -1.3176446,-0.9104 -0.032338,-0.038 -0.2969213,-0.2522 -0.587963,-0.476 -2.113695,-1.6257 -5.0832997,-4.847 -6.8938415,-7.4782 l -0.6026379,-0.8757 -0.081803,0.3823 c -0.044991,0.2102 -0.1359452,0.885 -0.2021195,1.4994 -0.2436331,2.2621 -0.5484163,4.2557 -0.9168651,5.9972 -0.061575,0.291 -0.1668536,0.7938 -0.2339532,1.1171 -0.2438138,1.1751 -0.5161173,2.2908 -0.7461857,3.0574 -0.097046,0.3234 -0.236164,1.3553 -0.3091508,2.2931 -0.072987,0.9378 -0.1919439,2.0583 -0.264349,2.49 -0.1132881,0.6755 -0.1058214,0.8108 0.053545,0.9702 0.1018549,0.1018 0.2426052,0.1852 0.3127785,0.1852 0.070173,0 0.2194738,0.05 0.3317791,0.112 0.3045397,0.1671 1.9454097,0.6792 3.8495617,1.2014 1.1681694,0.3204 3.2852662,1.0605 3.84893999,1.3456 1.77025589,0.8953 2.79400871,1.8914 4.26964801,4.1543 0.4032021,0.6183 0.909668,1.3286 1.1254798,1.5784 l 0.3923851,0.4543 0.1551386,-0.7482 c 0.085326,-0.4116 0.1853178,-0.8938 0.2222034,-1.0717 z m 42.9324955,-7.9963 c 0.06447,-0.081 0.147068,-0.3057 0.183552,-0.4997 0.125069,-0.6652 0.473673,-1.9946 0.609,-2.3225 0.102055,-0.2473 -0.216359,-0.2794 -0.728449,-0.073 -0.626211,0.2517 -0.801674,0.3119 -1.32845,0.4559 -0.291041,0.08 -0.661458,0.1864 -0.823148,0.2374 -0.672451,0.212 -2.044037,0.4943 -3.468981,0.7139 -1.19323,0.1839 -5.673715,0.1846 -7.46713,0 -1.8043,-0.1846 -3.131267,-0.3555 -3.704166,-0.4771 -0.258704,-0.055 -0.761412,-0.1601 -1.11713,-0.2338 -1.3604,-0.2818 -3.027199,-0.8077 -3.790765,-1.1962 -0.356456,-0.1813 -0.509093,-0.1144 -0.65413,0.2867 -0.204161,0.5646 -0.178115,0.6678 0.168521,0.6678 0.170355,0 0.501084,0.05 0.734953,0.1108 1.123714,0.293 8.565194,1.3442 12.478458,1.7628 2.816378,0.3013 6.21104,0.5957 7.349537,0.6373 0.452731,0.016 0.96219,0.04 1.132129,0.053 0.16994,0.013 0.361729,-0.043 0.426199,-0.124 z M 4.6182421,1211.3103 c 0.776856,-0.2479 1.4294938,-0.6334 1.7223577,-1.0173 0.2815719,-0.3692 0.2897199,-0.4218 0.1630326,-1.0526 -0.073344,-0.3652 -0.133352,-1.5781 -0.133352,-2.6954 0,-1.2273 -0.046541,-2.06 -0.1175926,-2.104 -0.064676,-0.04 -0.1175926,-0.2025 -0.1175926,-0.3613 0,-0.1587 -0.046421,-0.3805 -0.1031574,-0.4928 -0.056737,-0.1123 -0.1662854,-0.4159 -0.2434418,-0.6746 -0.3329462,-1.1163 -0.3312868,-1.1144 -0.8035569,-0.9509 -0.2332585,0.081 -0.4423118,0.2015 -0.4645628,0.2682 -0.022251,0.067 0.1463091,0.2854 0.3745779,0.4858 0.8785648,0.7714 1.1551525,1.7782 0.6393388,2.3273 -0.2405272,0.256 -0.2421118,0.2795 -0.052421,0.7762 0.1104531,0.2892 0.3080063,0.5615 0.4538114,0.6255 0.2230752,0.098 0.262918,0.2204 0.2928214,0.9001 0.030916,0.7028 0.00771,0.8013 -0.2172707,0.9217 l -0.2518838,0.1348 0.2486362,0.1741 c 0.3149289,0.2206 0.234899,0.3544 -0.2196939,0.3673 -0.1953546,0.01 -0.4735993,0.093 -0.6183216,0.1944 -0.1447224,0.1014 -0.3290715,0.1843 -0.4096648,0.1843 -0.2852353,0 -0.011173,-0.3387 0.4726886,-0.5842 l 0.4905266,-0.2489 -0.4703703,0.069 c -0.2587037,0.038 -0.8041685,0.1198 -1.2121439,0.1819 -0.7501088,0.1141 -1.1985042,0.017 -1.1985042,-0.2596 0,-0.071 0.4189092,-0.5403 0.9309095,-1.0441 0.9150479,-0.9004 0.9298114,-0.9242 0.8664611,-1.3965 -0.048484,-0.3615 -0.1171507,-0.4805 -0.2772103,-0.4805 -0.1170191,0 -0.2454662,0.053 -0.2854381,0.1176 -0.104283,0.1687 -0.9038957,0.1381 -1.1433885,-0.044 -0.3021619,-0.2295 -0.4344643,-0.6766 -0.2806593,-0.9483 0.2638024,-0.4662 0.5268917,-0.6852 0.7295241,-0.6075 0.182164,0.07 0.1773685,0.1017 -0.052213,0.3461 -0.2972415,0.3164 -0.330405,0.7282 -0.066794,0.8293 0.2715828,0.1042 0.4019565,0.088 0.4019565,-0.051 0,-0.1372 0.466736,-0.8325 0.6440735,-0.9594 0.063199,-0.045 0.207727,0 0.3211739,0.1044 0.2736432,0.2477 0.5634563,0.022 0.5634563,-0.4387 0,-0.2444 -0.1771429,-0.5061 -0.6892274,-1.0182 -1.266825,-1.2668 -1.3261938,-1.857 -0.2909627,-2.8922 l 0.5520728,-0.5521 -0.420566,-0.8531 c -0.2313113,-0.4691 -0.4909727,-1.0553 -0.5770254,-1.3026 -0.1721704,-0.4947 -0.096355,-0.4861 -1.3140564,-0.1501 -0.3750421,0.1034 -0.8091147,0.1881 -0.9646058,0.1881 -0.1554911,0 -0.4042634,0.047 -0.55282746,0.1053 -0.14856403,0.058 -0.48819599,0.17 -0.75473768,0.249 -0.26654169,0.079 -0.79055825,0.3725 -1.16448123,0.6522 -0.37392303,0.2797 -0.81730173,0.5588 -0.98528613,0.6203 -0.1679844,0.061 -0.5170928,0.1855 -0.7757965,0.2758 -0.6585254,0.2298 -0.86905,0.7007 -0.8762963,1.96 -0.00391,0.6789 -0.1052359,1.3602 -0.3285811,2.2094 -0.3132988,1.1912 -0.316807,1.2385 -0.1175926,1.5856 0.2587452,0.4508 0.2634456,1.0203 0.010726,1.2996 -0.2473445,0.2733 -0.3387843,0.2699 -0.7573718,-0.028 -0.2900569,-0.2065 -0.3415324,-0.2148 -0.3415324,-0.055 0,0.1035 -0.092604,0.2211 -0.2057871,0.2615 -0.4877251,0.1738 -0.5113016,0.2866 -0.1467244,0.7018 0.1938813,0.2209 0.3525115,0.4983 0.3525115,0.6166 0,0.3237 0.572153,0.8351 0.9343006,0.8351 0.1728469,0 0.4169851,-0.078 0.5425295,-0.1727 0.3335578,-0.2523 0.4467885,-0.2209 0.6207567,0.1722 0.2340695,0.5288 1.3010386,1.568 1.9005613,1.8512 0.63330732,0.2991 0.96995436,0.4001 2.7634259,0.8292 0.6606874,0.1581 2.5324376,0.1673 3.0104616,0.015 z m -5.068332,-7.516 c 0,-0.065 -7.6249e-4,-0.1555 -0.001694,-0.2017 -9.3194e-4,-0.046 0.2150757,-0.099 0.48001698,-0.1164 0.65835095,-0.044 1.40590682,-0.3949 1.84699722,-0.8669 0.3210058,-0.3435 0.377757,-0.367 0.4474185,-0.1855 0.1294626,0.3374 -0.5277737,1.0404 -1.1971311,1.2805 -0.62620606,0.2246 -1.57560718,0.2788 -1.5756076,0.09 z m -0.9407407,-0.418 c 0,-0.1763 0.97887703,-1.4764 1.20779356,-1.6042 0.53700775,-0.2997 1.10423838,-0.4438 1.75447934,-0.4455 1.2561442,0 0.8914763,0.4947 -0.4163512,0.5686 -0.97097988,0.055 -1.21582178,0.1876 -1.79141661,0.9718 -0.23196676,0.316 -0.49662589,0.5745 -0.58813139,0.5745 -0.091506,0 -0.1663737,-0.029 -0.1663737,-0.065 z m -2.9398148,6.0587 c 0,-0.067 -0.092604,-0.1548 -0.205787,-0.1957 -0.1131829,-0.041 -0.421967,-0.2642 -0.686187,-0.4961 -0.26422,-0.2319 -0.7007825,-0.6056 -0.9701389,-0.8305 -0.4600499,-0.3841 -0.4897389,-0.4462 -0.4897389,-1.024 0,-0.5526 0.045889,-0.6633 0.4521627,-1.0904 0.5012379,-0.5269 0.9405739,-0.6163 1.4107581,-0.2869 0.3238381,0.2268 0.4367911,0.1536 0.2632732,-0.1706 -0.211377,-0.395 -0.1470926,-1.0095 0.2942588,-2.8132 0.2542264,-1.039 0.3945188,-1.8564 0.3536668,-2.0606 -0.094381,-0.4719 0.1394874,-1.3122 0.4418033,-1.5874 0.1391822,-0.1268 0.451496,-0.294 0.6940307,-0.3716 0.3773778,-0.1208 0.4409722,-0.191 0.4409722,-0.4865 0,-0.1899 -0.048468,-0.4371 -0.1077068,-0.5494 -0.059239,-0.1123 -0.1961243,-0.4071 -0.3041899,-0.6551 -0.1080657,-0.2479 -0.3878951,-0.6314 -0.6218432,-0.852 -0.3395903,-0.3203 -0.3958117,-0.4308 -0.27882,-0.5478 0.3237965,-0.3238 1.6653377,1.545 1.6653377,2.3198 0,0.3958 0.1825035,0.3724 0.9082732,-0.1163 0.33613386,-0.2264 0.66687469,-0.4116 0.73497966,-0.4116 0.068105,0 0.21571336,-0.046 0.32801866,-0.1032 0.38832964,-0.1961 1.04546578,-0.3672 1.41092438,-0.3672 0.2017879,0 0.3995914,-0.053 0.4395633,-0.1176 0.039972,-0.065 0.1848588,-0.1176 0.3219708,-0.1176 0.5206268,0 1.030344,-0.2707 1.030344,-0.5472 0,-0.3671 -0.3830905,-1.313 -0.7055555,-1.742 -0.8306378,-1.1053 -1.92747881,-1.7089 -3.10519577,-1.7089 -0.89527173,0 -1.44941683,0.2115 -2.00213993,0.7642 -0.2264221,0.2265 -0.4663572,0.4117 -0.5331889,0.4117 -0.155938,0 -0.1592759,-0.5507 -0.00392,-0.6467 0.306438,-0.1894 0.042356,-0.294 -0.7422645,-0.294 -0.9311985,0 -1.5407097,0.2168 -2.3151429,0.8237 -0.2263657,0.1774 -0.9142824,0.573 -1.5287037,0.8792 -1.5583652,0.7765 -1.8124432,0.9906 -2.0537858,1.7309 -0.1117368,0.3427 -0.3619754,0.9671 -0.5560854,1.3875 -0.676503,1.4651 -0.800314,1.91 -0.800314,2.8757 0,1.8957 0.95697,3.8313 2.8803825,5.8261 0.2806239,0.2911 0.6848458,0.6615 0.8982708,0.8232 0.2134251,0.1617 0.5221009,0.4428 0.6859462,0.6248 0.7981636,0.8863 1.4312706,1.4882 1.7310742,1.6458 0.4027915,0.2118 0.6246967,0.2393 0.6246967,0.077 z m -5.1536964,-6.6696 c -0.2626884,-0.6756 -0.3718656,-1.292 -0.3724996,-2.1033 -5.381e-4,-0.6885 0.057604,-0.9506 0.3239702,-1.4605 0.5467422,-1.0466 0.8433658,-0.8836 0.359312,0.1974 -0.3150913,0.7037 -0.3324062,1.7985 -0.043919,2.7768 0.1879352,0.6374 0.174435,0.9129 -0.04473,0.9129 -0.053012,0 -0.1529727,-0.1455 -0.2221336,-0.3233 z m 14.1772402,5.5965 c 0.9599103,-0.2332 1.2070116,-0.3677 1.2070116,-0.657 0,-0.3764 -0.2928215,-0.3349 -1.0528843,0.1493 -0.3527207,0.2248 -0.7363665,0.4086 -0.8525463,0.4086 -0.1161798,0 -0.211236,0.053 -0.211236,0.1176 0,0.153 0.2224579,0.1484 0.909655,-0.018 z m 0.3817626,-1.1189 c 0.3259133,-0.2179 0.361002,-0.2737 0.171947,-0.2737 -0.1306395,0 -0.4207358,0.1584 -0.6446584,0.3521 -0.4672552,0.4041 -0.1772075,0.356 0.4727114,-0.078 z m -11.3265012,-0.5383 c -0.032622,-0.081 -0.059312,-0.015 -0.059312,0.147 0,0.1617 0.02669,0.2278 0.059312,0.147 0.032622,-0.081 0.032622,-0.2132 0,-0.294 z m 12.0929539,0.2646 c 0.039972,-0.065 0.01976,-0.1176 -0.044916,-0.1176 -0.064676,0 -0.1502969,0.053 -0.1902688,0.1176 -0.039972,0.065 -0.01976,0.1176 0.044916,0.1176 0.064676,0 0.1502969,-0.053 0.1902688,-0.1176 z m -0.9216577,-1.3229 c -0.032622,-0.081 -0.059312,-0.015 -0.059312,0.147 0,0.1617 0.02669,0.2278 0.059312,0.147 0.032622,-0.081 0.032622,-0.2132 0,-0.294 z m 0.1337874,-4.2275 c 0.1997864,-0.1998 0.180029,-1.2089 -0.027034,-1.3807 -0.3329349,-0.2763 -1.150446,0.8628 -0.9653575,1.3452 0.082228,0.2143 0.7883597,0.2395 0.9923911,0.035 z m 79.7450096,67.9621 c -0.222355,-0.1783 -0.934455,-1.207 -0.934455,-1.3499 0,-0.1279 -0.664257,-0.7507 -1.058333,-0.9922 -0.515722,-0.316 -1.745503,-0.6859 -3.274077,-0.9848 -0.339784,-0.066 -0.387444,-0.047 -0.351638,0.1407 0.02278,0.1197 0.305489,0.3931 0.628243,0.6076 0.322753,0.2145 0.7031,0.4895 0.845215,0.6112 0.288214,0.2467 0.554418,1.0715 0.450993,1.3973 -0.08487,0.2674 -0.54928,0.4825 -1.041976,0.4825 -0.495048,0 -1.559938,-0.6664 -2.060738,-1.2896 -0.668794,-0.8322 -1.005681,-1.8202 -1.384772,-4.0609 -0.0654,-0.3866 -0.120655,-0.5383 -0.514028,-1.4111 -0.273158,-0.6061 -0.438383,-1.0027 -0.587963,-1.4111 -0.171137,-0.4674 -0.651169,-1.5968 -0.894769,-2.1054 -0.08996,-0.1878 -0.163564,-0.407 -0.163564,-0.4871 0,-0.2565 -0.322804,-0.2828 -1.319692,-0.1075 -3.490525,0.6137 -7.207045,0.8602 -10.003795,0.6637 -3.543353,-0.2491 -5.534082,-0.6409 -7.344337,-1.4457 -0.274873,-0.1222 -0.751123,-0.3323 -1.058333,-0.467 -0.307211,-0.1346 -0.650451,-0.2934 -0.762757,-0.3528 -0.112305,-0.059 -0.300159,-0.1079 -0.417453,-0.1079 -0.117295,0 -0.263533,-0.048 -0.324976,-0.1075 -0.196686,-0.1891 -0.666881,-0.1954 -0.762384,-0.01 -0.05002,0.097 -0.15413,0.4145 -0.231363,0.7055 -0.07723,0.2911 -0.188184,0.6211 -0.246556,0.7334 -0.05837,0.1123 -0.106132,0.3114 -0.106132,0.4425 0,0.1311 -0.04803,0.3303 -0.106742,0.4426 -0.05871,0.1123 -0.187535,0.4688 -0.286283,0.7922 -0.297273,0.9735 -0.66524,1.9476 -0.951259,2.5182 -0.148634,0.2966 -0.340312,0.817 -0.425951,1.1565 -0.08564,0.3396 -0.205866,0.6174 -0.267169,0.6174 -0.227216,0 0.01307,-1.4645 0.366599,-2.2343 0.329768,-0.718 1.101076,-2.9352 1.431779,-4.1157 0.08153,-0.291 0.189094,-0.635 0.239026,-0.7644 0.04993,-0.1293 0.154892,-0.4733 0.233243,-0.7643 0.07835,-0.2911 0.190216,-0.6211 0.248589,-0.7334 0.05837,-0.1123 0.106131,-0.3001 0.106131,-0.4174 0,-0.1173 0.04372,-0.2636 0.09715,-0.325 0.05343,-0.061 0.168795,-0.3498 0.256367,-0.6409 0.08757,-0.291 0.195505,-0.5821 0.239851,-0.6467 0.04435,-0.065 0.108913,-0.2499 0.143479,-0.4116 0.03457,-0.1617 0.139611,-0.585 0.233433,-0.9408 0.50333,-1.9083 0.721793,-3.5739 0.909991,-6.9379 0.06032,-1.0783 0.225629,-2.4451 0.404736,-3.3466 0.279441,-1.4064 0.70738,-4.2252 1.009414,-6.6488 0.06851,-0.5497 0.175501,-1.3231 0.237758,-1.7186 0.06226,-0.3955 0.113196,-0.9036 0.113196,-1.129 0,-0.5364 0.226153,-1.1737 0.395542,-1.1146 0.141611,0.05 0.140469,0.084 -0.05128,1.5516 -0.187112,1.4321 -0.325085,2.4913 -0.459534,3.5277 -0.31948,2.4629 -0.471379,3.5076 -0.709627,4.8801 l -0.132672,0.7644 0.411074,0.3575 c 0.226091,0.1967 0.560606,0.4277 0.743367,0.5135 0.182761,0.086 0.424897,0.2032 0.53808,0.2608 0.183421,0.093 0.205787,0.036 0.205787,-0.5246 0,-0.4606 0.05773,-0.6818 0.215047,-0.8242 0.282121,-0.2553 0.641834,-0.247 0.883857,0.02 0.242648,0.2681 0.247787,0.6345 0.01521,1.0843 -0.16115,0.3116 -0.160988,0.3469 0.0016,0.3469 0.09955,0 0.27289,-0.049 0.385195,-0.1077 0.112306,-0.059 0.413631,-0.1992 0.669612,-0.3111 0.255982,-0.1119 0.68032,-0.4277 0.942974,-0.7018 0.51054,-0.5329 0.689578,-0.8479 1.067131,-1.878 0.230076,-0.6277 0.32223,-1.6483 0.390243,-4.3219 0.100899,-3.9664 0.299403,-3.8724 0.34061,0.1613 0.02907,2.8459 0.04851,3.0956 0.264583,3.399 0.128263,0.1802 0.233205,0.3585 0.233205,0.3962 0,0.3306 1.600068,1.8073 2.310206,2.1321 0.656757,0.3004 1.724508,0.3998 1.864331,0.1736 0.03997,-0.065 0.148324,-0.1176 0.240781,-0.1176 0.09246,0 0.285114,-0.093 0.428125,-0.2058 1.008574,-0.7982 1.508979,-1.7172 1.611095,-2.9587 0.04637,-0.5638 0.126579,-0.8917 0.226159,-0.9247 0.123391,-0.041 0.146952,0.2636 0.117593,1.5193 -0.02281,0.9756 0.01379,1.704 0.09664,1.9231 0.07334,0.1941 0.198438,0.5909 0.277987,0.882 0.07955,0.291 0.198599,0.6614 0.264557,0.8231 0.06596,0.1617 0.16264,0.3998 0.21485,0.5292 0.05221,0.1293 0.123703,0.5791 0.158874,0.9995 0.07362,0.8799 0.231378,1.9184 0.419822,2.7634 0.07211,0.3234 0.160479,0.7605 0.196373,0.9713 0.03589,0.2108 0.112332,0.4123 0.169862,0.4479 0.05753,0.035 0.1046,0.2171 0.1046,0.4035 0,0.1864 0.05292,0.3716 0.117593,0.4116 0.06468,0.04 0.117592,0.1987 0.117592,0.3528 0,0.154 0.05292,0.3128 0.117593,0.3528 0.06468,0.04 0.117593,0.1761 0.117593,0.3025 0,0.1264 0.04869,0.3217 0.108195,0.434 0.05951,0.1123 0.224282,0.5217 0.366165,0.9098 0.141883,0.388 0.326032,0.8643 0.409219,1.0583 0.08319,0.194 0.34627,0.829 0.584628,1.4111 0.466694,1.1397 0.602826,1.4597 0.987554,2.3212 0.136878,0.3065 0.248868,0.6043 0.248868,0.6617 0,0.057 0.07597,0.1676 0.16883,0.2446 0.09286,0.077 0.205419,0.3067 0.250138,0.5103 0.04472,0.2036 0.121322,0.4513 0.170228,0.5505 0.04891,0.099 0.142615,0.3125 0.208243,0.4742 0.06563,0.1617 0.199748,0.4792 0.298047,0.7056 0.0983,0.2263 0.268583,0.6497 0.378411,0.9407 0.109828,0.291 0.397967,0.9525 0.64031,1.4699 0.242342,0.5174 0.503094,1.2847 0.579447,1.7051 0.3194,1.7586 0.403934,2.0885 0.693055,2.7046 0.573264,1.2217 1.850313,2.1564 2.66647,1.9515 0.467483,-0.1173 0.32961,-0.4305 -0.351407,-0.7983 -0.807051,-0.4358 -1.199508,-0.9066 -1.296861,-1.5558 -0.116583,-0.7775 -0.02681,-0.9287 0.505592,-0.852 0.647299,0.093 2.29411,0.4665 2.674219,0.6059 0.554913,0.2035 1.278496,0.5587 1.3987,0.6867 0.0715,0.076 0.368129,0.4554 0.659171,0.8428 0.690328,0.919 1.00615,1.2359 1.231617,1.2359 0.139379,0 0.166901,-0.078 0.113541,-0.3234 -0.260805,-1.1974 -1.257622,-2.2178 -2.756269,-2.8215 -0.16169,-0.065 -0.439503,-0.1768 -0.617362,-0.2481 -0.23298,-0.093 -0.323379,-0.2126 -0.323379,-0.4262 0,-0.3608 0.08525,-0.3647 0.991708,-0.045 1.649658,0.5822 2.788273,1.8182 3.058242,3.3199 0.04503,0.2505 0.144019,0.555 0.219968,0.6766 0.101041,0.1618 0.103575,0.2762 0.0094,0.4265 -0.155738,0.2486 -0.854523,0.322 -1.110648,0.1166 z M 69.87028,1258.1838 c 2.548415,-0.3139 4.11574,-0.5817 4.11574,-0.703 0,-0.015 -0.0753,-0.1818 -0.167339,-0.3696 -0.290316,-0.5924 -1.557996,-3.6133 -1.72234,-4.1044 -0.08657,-0.2587 -0.19952,-0.5207 -0.250993,-0.5821 -0.05147,-0.061 -0.09359,-0.201 -0.09359,-0.31 0,-0.2165 -0.19685,-0.2719 -1.646296,-0.4634 -2.508805,-0.3315 -3.840433,-0.5248 -4.7625,-0.6914 -0.32338,-0.058 -0.79963,-0.1408 -1.058333,-0.1831 -0.484645,-0.079 -0.820957,-0.1512 -2.23426,-0.4786 -0.452731,-0.1049 -1.907939,-0.5482 -3.233796,-0.9851 -1.325856,-0.4369 -2.648773,-0.8616 -2.939815,-0.9438 -0.291041,-0.082 -0.650719,-0.1969 -0.799283,-0.2549 -0.434152,-0.1693 -0.476204,-0.1346 -0.548952,0.4533 -0.328995,2.6583 -0.398594,2.9683 -1.238186,5.5148 -0.57154,1.7335 -0.576515,1.8053 -0.125148,1.8053 0.190211,0 0.378542,0.053 0.418514,0.1176 0.03997,0.065 0.170386,0.1176 0.289809,0.1176 0.119423,0 0.42057,0.1011 0.669217,0.2247 0.665453,0.3307 1.928877,0.8949 2.333566,1.0421 0.982572,0.3573 3.49079,0.7988 5.498489,0.9678 1.655969,0.1394 5.717771,0.045 7.495493,-0.1738 z m 1.411111,-7.4043 c 0,-0.1579 -0.05292,-0.3198 -0.117593,-0.3598 -0.06468,-0.04 -0.117592,-0.1987 -0.117592,-0.3527 0,-0.1541 -0.05292,-0.3128 -0.117593,-0.3528 -0.06468,-0.04 -0.117593,-0.1913 -0.117593,-0.3363 0,-0.145 -0.06393,-0.399 -0.14207,-0.5646 -0.12901,-0.2734 -0.21178,-0.303 -0.900425,-0.3219 -0.417095,-0.012 -0.808867,-0.052 -0.870604,-0.09 -0.06174,-0.038 -0.463524,-0.1162 -0.892861,-0.1734 -1.478554,-0.1972 -4.274428,-0.6774 -6.719039,-1.1541 -1.68147,-0.3279 -2.765436,-0.7686 -4.275107,-1.7381 -1.023199,-0.6571 -2.029868,-1.1311 -2.190924,-1.0315 -0.07055,0.044 -0.119155,0.6944 -0.119155,1.5954 v 1.5217 h 0.345838 c 0.190211,0 0.378542,0.053 0.418514,0.1176 0.03997,0.065 0.202563,0.1176 0.361314,0.1176 0.15875,0 0.380523,0.047 0.492828,0.104 0.26085,0.1329 3.942028,1.339 5.025488,1.6466 0.883971,0.251 2.323357,0.5692 3.321991,0.7343 0.339548,0.056 0.921631,0.1554 1.293518,0.2204 0.959049,0.1677 2.17272,0.3421 3.246727,0.4667 0.50835,0.059 0.953732,0.1367 0.989738,0.1727 0.036,0.036 0.29477,0.065 0.575032,0.065 0.461859,0 0.509568,-0.027 0.509568,-0.287 z m -0.991903,-3.4466 c -0.04496,-0.3072 -0.129849,-0.8496 -0.18864,-1.2053 -0.05879,-0.3557 -0.138879,-0.9642 -0.177975,-1.3523 -0.06549,-0.65 -0.158274,-1.0269 -0.405315,-1.6463 -0.167887,-0.4209 -0.588019,-1.8839 -0.588019,-2.0476 0,-0.088 -0.277813,0.1278 -0.617361,0.4788 -0.806763,0.8341 -1.502185,1.1572 -2.490621,1.1572 -0.417282,0 -0.791398,-0.053 -0.83137,-0.1176 -0.03997,-0.065 -0.152623,-0.1176 -0.250336,-0.1176 -0.460067,0 -1.969402,-1.354 -2.645897,-2.3737 -0.272136,-0.4102 -0.336653,-0.4577 -0.33706,-0.2482 -0.0011,0.5859 -0.762836,2.0846 -1.366138,2.6879 -0.773883,0.7739 -1.606607,1.11 -2.750014,1.11 -0.977467,0 -1.335501,-0.1265 -2.197723,-0.7766 -0.404516,-0.305 -0.440038,-0.2889 -0.555678,0.2512 -0.07221,0.3372 -0.04634,0.3689 0.478484,0.5853 0.305151,0.1258 1.034426,0.514 1.62061,0.8626 1.769901,1.0525 2.799795,1.4838 4.240789,1.7758 0.388056,0.079 0.917222,0.1891 1.175926,0.2454 0.258704,0.056 0.655579,0.1338 0.881945,0.1721 0.226365,0.038 0.676157,0.1161 0.999537,0.1727 1.762895,0.3086 3.076298,0.514 4.454762,0.6965 0.509842,0.068 0.955224,0.151 0.989738,0.1856 0.03451,0.034 0.193107,0.063 0.352429,0.063 0.278656,0 0.286566,-0.021 0.207927,-0.5586 z m 16.023866,21.5783 c -0.311924,-0.2513 -0.363107,-0.5727 -0.102084,-0.641 0.534447,-0.1397 0.385095,-0.7795 -0.480334,-2.0574 -0.720862,-1.0646 -1.090574,-1.3642 -2.01105,-1.6299 -0.305518,-0.088 -0.584243,-0.2353 -0.61939,-0.3269 -0.105321,-0.2745 0.162859,-0.4861 0.52434,-0.4138 0.302311,0.061 0.323809,0.041 0.269775,-0.2414 -0.03734,-0.1954 -0.149944,-0.3235 -0.309346,-0.352 -1.325454,-0.2371 -1.671756,-0.3319 -2.252493,-0.6162 -0.656407,-0.3215 -1.159004,-0.8073 -1.480748,-1.4314 -0.08952,-0.1736 -0.248904,-0.4114 -0.354188,-0.5283 -0.105283,-0.1169 -0.350981,-0.7254 -0.545994,-1.3523 -0.459353,-1.4766 -0.6471,-2.4062 -1.085186,-5.3731 -0.356155,-2.412 -0.764106,-3.928 -1.645446,-6.1148 -0.05213,-0.1293 -0.158385,-0.4204 -0.236116,-0.6467 -0.07773,-0.2264 -0.18543,-0.5175 -0.239334,-0.6468 -0.274583,-0.6589 -0.690084,-2.0915 -0.93789,-3.2338 -0.07717,-0.3557 -0.223145,-0.8849 -0.324387,-1.1759 -0.10569,-0.3039 -0.249658,-1.4305 -0.338083,-2.6459 -0.0847,-1.1641 -0.210085,-2.54 -0.278625,-3.0574 -0.06854,-0.5174 -0.154002,-1.2053 -0.189915,-1.5287 -0.03591,-0.3234 -0.113337,-0.6382 -0.17205,-0.6996 -0.05871,-0.061 -0.106753,-0.3094 -0.106753,-0.551 0,-0.2415 -0.05498,-0.5838 -0.12218,-0.7605 -0.0672,-0.1768 -0.145873,-0.8549 -0.174832,-1.507 -0.12234,-2.7548 -0.532208,-4.2654 -1.455579,-5.3645 l -0.24327,-0.2896 -0.234177,0.294 c -0.128797,0.1617 -0.235353,0.3601 -0.236791,0.441 -0.0014,0.081 -0.05553,0.1469 -0.120208,0.1469 -0.06468,0 -0.117592,0.079 -0.117592,0.1764 0,0.097 -0.05292,0.1764 -0.117593,0.1764 -0.06468,0 -0.117592,0.079 -0.117592,0.1764 0,0.097 -0.05292,0.1764 -0.117593,0.1764 -0.06468,0 -0.117593,0.058 -0.117593,0.1288 0,0.071 -0.09964,0.2693 -0.221417,0.441 -0.399515,0.5632 -0.719323,1.1972 -0.719323,1.4259 0,0.1236 -0.05292,0.2574 -0.117593,0.2974 -0.06468,0.04 -0.117592,0.2053 -0.117592,0.3674 0,0.1621 -0.05544,0.3984 -0.123193,0.525 -0.186836,0.3491 -0.154584,2.9943 0.04575,3.7525 0.369111,1.3968 1.451337,3.5673 1.86648,3.7433 0.05084,0.022 0.09244,0.1671 0.09244,0.3234 0,1.1923 -2.821005,-1.5941 -3.998216,-3.9491 -0.274798,-0.5498 -0.54595,-1.0915 -0.60256,-1.2038 -0.05661,-0.1123 -0.102928,-0.285 -0.102928,-0.3837 0,-0.099 -0.04722,-0.2715 -0.104934,-0.3838 -0.475402,-0.9251 -0.474629,-4.0575 0.0012,-4.9945 0.267521,-0.5268 0.14941,-0.6429 -0.716926,-0.7049 -0.661444,-0.047 -0.948532,-0.1359 -1.480009,-0.4567 -0.813086,-0.4909 -2.277815,-2.0475 -2.283335,-2.4266 -0.0012,-0.081 -0.04214,-0.147 -0.09103,-0.147 -0.04889,0 -0.160051,-0.1719 -0.24703,-0.3821 -0.08698,-0.2102 -0.24056,-0.5666 -0.341291,-0.792 -0.283442,-0.6341 -0.599502,-1.9094 -0.697332,-2.8136 -0.06466,-0.5977 -0.0778,-0.6192 -0.215854,-0.3528 -0.473863,0.9142 -0.714951,3.6227 -0.483175,5.4283 0.119315,0.9294 -0.02913,1.0532 -0.282008,0.2352 -0.120635,-0.3903 -0.17233,-1.1078 -0.171558,-2.3813 10e-4,-1.6657 0.03051,-1.9224 0.342462,-2.9799 0.187747,-0.6365 0.415385,-1.2312 0.505862,-1.3217 0.211432,-0.2114 0.345482,-0.9901 0.170451,-0.9901 -0.19965,0 -0.714686,0.9627 -0.874122,1.6339 -0.102394,0.4311 -0.195394,0.5967 -0.321319,0.5722 -0.147802,-0.029 -0.177217,-0.3074 -0.177217,-1.6789 0,-1.6069 0.0086,-1.6624 0.377309,-2.4408 0.458174,-0.9673 1.269051,-1.8025 2.562506,-2.6395 2.15328,-1.3934 2.847997,-1.9701 3.831928,-3.1812 0.145256,-0.1787 0.342609,-0.084 0.342609,0.1648 0,0.1894 -0.512599,0.9664 -0.96243,1.4588 -0.421995,0.462 -1.217812,1.0724 -2.565348,1.9677 -2.145887,1.4257 -3.111082,2.6758 -3.251604,4.2116 l -0.06367,0.6958 0.275922,-0.4853 c 0.783371,-1.3778 2.125021,-2.3472 4.862034,-3.5129 1.455116,-0.6198 2.683084,-1.2689 3.082076,-1.6294 0.541729,-0.4894 0.932065,-1.229 1.090999,-2.067 0.14526,-0.766 0.186163,-0.8309 0.523612,-0.8309 0.178303,0 0.388008,0.1531 0.604205,0.441 0.182116,0.2425 0.362925,0.4674 0.401798,0.4998 0.03887,0.032 0.198982,0.244 0.355798,0.4703 0.156816,0.2264 0.368646,0.5029 0.470733,0.6145 0.102087,0.1116 0.293815,0.4026 0.426063,0.6467 0.132248,0.2442 0.344409,0.6291 0.471471,0.8555 0.724376,1.2905 1.217823,3.3362 1.213987,5.0329 -0.0031,1.3828 -0.287207,2.8856 -0.815799,4.3157 -0.143431,0.3881 -0.292184,0.8114 -0.330561,0.9408 -0.06175,0.2081 -0.04997,0.2148 0.102346,0.059 0.555838,-0.5696 1.092218,-1.5565 1.390773,-2.559 0.192304,-0.6457 0.243517,-1.1418 0.243517,-2.3586 0,-2.6557 -0.677076,-4.8908 -2.161587,-7.1356 -0.256627,-0.388 -0.498949,-0.732 -0.538494,-0.7643 -0.376053,-0.3076 -2.014032,-2.5047 -1.983732,-2.6609 0.0748,-0.3858 0.297324,-0.2801 0.829505,0.394 0.294973,0.3737 0.653862,0.8116 0.797532,0.9733 0.143671,0.1617 0.400439,0.4792 0.570597,0.7056 0.170158,0.2264 0.33963,0.438 0.376605,0.4704 0.186314,0.1629 0.815616,1.205 1.136199,1.8814 0.635861,1.3417 0.974017,2.603 1.316829,4.9117 0.159348,1.0732 0.15924,1.5081 -6.19e-4,2.4831 -0.278817,1.7007 -0.780829,2.9404 -1.670734,4.126 -0.28638,0.3815 -0.47382,0.754 -0.46049,0.915 0.01236,0.1494 0.228004,0.5478 0.4792,0.8853 0.67679,0.9094 0.967743,1.806 1.076781,3.3183 0.123731,1.7161 0.174936,1.881 0.839361,2.7029 0.312935,0.3871 0.568973,0.7664 0.568973,0.8428 0,0.076 0.04163,0.1565 0.09252,0.1781 0.115773,0.049 0.726134,1.2986 0.83724,1.714 0.154381,0.5773 0.32872,0.4101 0.423822,-0.4064 0.177593,-1.5248 0.06541,-3.8228 -0.194461,-3.9835 -0.05543,-0.034 -0.100785,-0.1657 -0.100785,-0.2921 0,-0.1264 -0.04674,-0.3217 -0.103873,-0.434 -0.05713,-0.1123 -0.175641,-0.363 -0.263357,-0.557 -0.08772,-0.194 -0.298973,-0.5953 -0.46946,-0.8917 -1.101349,-1.9148 -1.166478,-3.6017 -0.331058,-8.5745 0.05976,-0.3557 0.158765,-1.0701 0.220013,-1.5875 0.21172,-1.7886 0.340452,-2.6657 0.39997,-2.7252 0.135576,-0.1356 0.221899,1.1325 0.148733,2.1849 -0.08055,1.1586 -0.19625,1.9797 -0.424116,3.0098 -0.728926,3.295 -0.580907,5.1675 0.61818,7.8199 0.190049,0.4204 0.386209,0.8701 0.435911,0.9995 0.0497,0.1293 0.144824,0.3675 0.211382,0.5292 0.303151,0.7364 0.404349,1.6425 0.341956,3.0618 -0.06141,1.397 -0.139776,1.9794 -0.426593,3.1706 -0.07008,0.291 -0.160972,0.7408 -0.201986,0.9995 -0.08652,0.5457 -0.364826,1.0295 -0.532587,0.9259 -0.06601,-0.041 -0.08251,-0.2557 -0.0383,-0.4988 0.171767,-0.9444 0.196555,-1.8097 0.06216,-2.1698 -0.234762,-0.6291 -0.862368,-1.8938 -1.019254,-2.0539 -0.0815,-0.083 -0.239846,-0.3065 -0.351873,-0.4961 -0.231631,-0.3921 -0.596513,-0.6095 -0.445313,-0.2653 0.05004,0.1139 0.132018,0.5246 0.182171,0.9126 0.08432,0.6525 0.182823,1.3448 0.451735,3.175 0.120819,0.8223 0.333991,2.632 0.477889,4.057 0.122477,1.2128 0.231811,1.7639 0.349973,1.7639 0.04882,0 0.121958,0.1984 0.162531,0.4409 0.04057,0.2426 0.129851,0.7056 0.198399,1.029 0.06855,0.3234 0.153999,0.7604 0.189893,0.9712 0.03589,0.2108 0.112332,0.4124 0.169862,0.4479 0.05753,0.036 0.1046,0.1833 0.1046,0.3282 0,0.1449 0.04211,0.3138 0.09359,0.3752 0.05147,0.062 0.160804,0.3234 0.242958,0.5821 0.08216,0.2587 0.19345,0.5762 0.247324,0.7056 0.05387,0.1293 0.160542,0.4021 0.23704,0.6061 0.07863,0.2098 0.249911,0.4007 0.394044,0.4394 0.448842,0.1204 4.565706,0.076 5.304358,-0.057 1.180366,-0.2128 1.855548,-0.4083 2.445529,-0.7085 0.112305,-0.057 0.284284,-0.1038 0.382176,-0.1038 0.09789,0 0.177984,-0.04 0.177984,-0.089 0,-0.049 0.145521,-0.1535 0.32338,-0.2325 1.199878,-0.5329 2.609177,-2.5337 3.21106,-4.5587 0.07689,-0.2587 0.186222,-0.5623 0.242958,-0.6746 0.05674,-0.1123 0.103158,-0.3076 0.103158,-0.434 0,-0.1264 0.05292,-0.2626 0.117592,-0.3026 0.06468,-0.04 0.117593,-0.2177 0.117593,-0.3949 0,-0.1773 0.04211,-0.3726 0.09359,-0.4341 0.05147,-0.061 0.160804,-0.3234 0.242958,-0.5821 0.08215,-0.2587 0.20749,-0.5889 0.278524,-0.7339 0.0949,-0.1937 0.09284,-0.3433 -0.0078,-0.5641 -0.07531,-0.1653 -0.136926,-0.5835 -0.136926,-0.9293 0,-0.5316 0.05274,-0.6853 0.341161,-0.994 0.3806,-0.4075 0.769685,-0.4657 1.295118,-0.194 0.702494,0.3632 0.715573,0.4741 0.715573,6.0639 0,4.1039 0.02885,5.0586 0.149821,4.9582 0.136558,-0.1133 1.761301,-3.2899 1.966045,-3.8438 0.04781,-0.1294 0.146923,-0.3807 0.220252,-0.5586 0.07333,-0.1778 0.192417,-0.4689 0.264639,-0.6467 0.07222,-0.1779 0.178055,-0.4153 0.235185,-0.5276 0.05713,-0.1123 0.103873,-0.4266 0.103873,-0.6985 0,-0.9416 0.266843,-1.8775 0.651577,-2.2855 0.467913,-0.4961 0.876411,-0.5989 1.293668,-0.3255 0.343604,0.2251 0.641792,0.8058 0.641792,1.2499 0,0.1942 0.100869,0.31 0.352778,0.4051 0.261405,0.099 0.352777,0.2087 0.352777,0.4249 0,0.1619 0.157067,0.4599 0.352778,0.6694 0.194028,0.2078 0.352778,0.4962 0.352778,0.641 0,0.1448 0.105833,0.3591 0.235185,0.4762 0.131674,0.1191 0.235185,0.3622 0.235185,0.5521 0,0.1867 0.11305,0.4923 0.251221,0.6791 0.37221,0.5035 0.3327,1.1484 -0.109725,1.7914 -0.198519,0.2886 -0.472278,0.8642 -0.608352,1.2793 -0.136074,0.415 -0.357985,0.9927 -0.493136,1.2837 -0.529604,1.1405 -0.807036,2.2187 -1.028789,3.9982 -0.542502,4.3534 -0.984985,5.3034 -2.621526,5.6287 -0.413688,0.082 -0.88175,0.1186 -1.040139,0.081 -0.158389,-0.038 -0.76423,-0.1226 -1.346313,-0.1883 -0.582083,-0.066 -1.508125,-0.1804 -2.05787,-0.255 -1.27811,-0.1734 -3.6855,-0.1699 -4.821296,0.01 -1.575498,0.2455 -2.658022,0.4278 -4.350926,0.7327 -0.420394,0.076 -1.108311,0.1974 -1.528704,0.2703 -0.752937,0.1306 -0.763865,0.1378 -0.731745,0.4853 0.01793,0.1941 0.07874,0.4587 0.135123,0.588 0.05638,0.1294 0.169489,0.4204 0.251344,0.6468 0.08185,0.2263 0.223885,0.4999 0.315623,0.608 0.09174,0.108 0.260217,0.3726 0.374398,0.588 0.223336,0.4211 1.180495,1.2146 1.583907,1.313 1.123179,0.2739 1.954173,0.4308 2.281426,0.4308 0.213622,0 0.758969,0.084 1.211882,0.1873 1.056363,0.2402 1.589147,0.7224 2.157353,1.9522 0.425773,0.9215 0.500226,1.3926 0.378982,2.3979 -0.142662,1.1828 -0.445077,1.3308 -0.561339,0.2746 -0.0718,-0.6523 -0.555114,-1.9345 -0.908432,-2.4099 -0.33579,-0.452 -1.402877,-0.9887 -1.961207,-0.9866 -0.174229,7e-4 -0.135621,0.05 0.148957,0.1903 0.608047,0.2997 1.526757,1.4194 2.093393,2.5513 0.594167,1.1869 0.653286,1.6749 0.248913,2.0548 -0.318085,0.2988 -0.331684,0.3014 -0.570874,0.1087 z m -0.0035,-4.9497 c -0.175047,-0.1751 -0.620183,-0.4302 -0.750586,-0.4302 -0.108708,0 0.684448,0.5646 0.811809,0.5779 0.05313,0.01 0.02558,-0.061 -0.06122,-0.1477 z m -5.503426,-6.8938 c 0.888001,-0.1656 1.933057,-0.3468 2.704629,-0.4692 0.355718,-0.056 1.017176,-0.1704 1.469908,-0.2534 1.049505,-0.1924 5.446845,-0.1943 6.643981,0 0.48507,0.077 1.477886,0.1715 2.206258,0.2088 1.09853,0.056 1.395731,0.034 1.743201,-0.131 0.523363,-0.2484 1.021602,-1.0156 1.197946,-1.8446 0.262839,-1.2357 0.379447,-2.0282 0.379447,-2.5789 0,-0.5217 0.05837,-0.9005 0.369848,-2.4 0.150238,-0.7233 0.561495,-1.9595 0.70218,-2.1108 0.05714,-0.061 0.103898,-0.2914 0.103898,-0.511 0,-0.2196 0.09659,-0.5398 0.214654,-0.7114 0.11806,-0.1717 0.28623,-0.4974 0.373711,-0.7237 0.08748,-0.2264 0.315201,-0.6335 0.506044,-0.9047 0.328955,-0.4675 0.365995,-0.8592 0.08124,-0.8592 -0.06889,0 -0.234524,0.1852 -0.368083,0.4115 -0.249311,0.4226 -0.385942,0.5006 -0.514009,0.2933 -0.101665,-0.1645 0.178479,-0.9456 0.450946,-1.2574 0.128686,-0.1473 0.194627,-0.3403 0.153148,-0.4484 -0.09729,-0.2536 -0.240051,-0.1476 -0.478592,0.355 -0.108625,0.229 -0.247351,0.3854 -0.30828,0.3478 -0.12758,-0.079 -0.150276,-0.6815 -0.03019,-0.8016 0.04433,-0.044 0.141459,-0.2576 0.215854,-0.474 0.102558,-0.2983 0.101985,-0.439 -0.0024,-0.5817 -0.159558,-0.2182 -0.411669,-0.048 -0.411669,0.2779 0,0.2546 -0.104073,0.3467 -0.304892,0.2696 -0.121518,-0.047 -0.145232,-0.19 -0.09106,-0.5505 0.04028,-0.268 0.119396,-0.5376 0.175802,-0.5991 0.156449,-0.1704 0.122161,-0.535 -0.05031,-0.535 -0.233686,0 -0.435092,0.2526 -0.435092,0.5457 0,0.145 -0.04221,0.2896 -0.09381,0.3215 -0.234894,0.1452 -0.317765,-0.1883 -0.317765,-1.2788 v -1.1759 l -0.415247,-0.035 c -0.611136,-0.051 -0.880829,0.3002 -1.091777,1.4236 -0.09484,0.5051 -0.147677,1.0129 -0.117425,1.1286 0.03025,0.1157 -0.06016,0.4698 -0.200928,0.7868 -0.140763,0.3171 -0.29818,0.6824 -0.349816,0.8117 -0.225583,0.5651 -0.57897,1.3671 -1.217731,2.7634 -0.07396,0.1617 -0.161106,0.3205 -0.19365,0.3528 -0.03254,0.032 -0.137646,0.2176 -0.233558,0.4116 -0.751413,1.5201 -3.11132,4.2892 -4.058572,4.7623 -0.194028,0.097 -0.379236,0.203 -0.411574,0.2358 -0.09907,0.1005 -0.844007,0.3187 -1.607746,0.471 -0.793203,0.1582 -4.275914,0.097 -6.506143,-0.1149 -0.679097,-0.064 -1.584911,-0.1502 -2.012919,-0.1907 l -0.778197,-0.074 0.107382,0.63 c 0.19481,1.1431 0.334598,2.03 0.451434,2.8644 0.335891,2.3986 0.246923,2.2147 1.032661,2.1338 0.36876,-0.038 0.961514,-0.1233 1.317232,-0.1896 z m 7.127534,-5.8936 c 1.052394,-0.4255 1.497386,-0.735 2.544795,-1.7697 1.241996,-1.227 1.555379,-1.7552 1.447237,-2.4392 -0.03705,-0.2343 -0.09497,-2.0135 -0.128715,-3.9538 -0.03375,-1.9403 -0.112384,-3.8453 -0.174752,-4.2333 -0.06237,-0.3881 -0.113797,-0.9804 -0.114285,-1.3163 -7.1e-4,-0.4879 -0.05091,-0.6457 -0.249656,-0.7849 -0.597609,-0.4186 -1.103273,0.4029 -0.823273,1.3375 0.128941,0.4303 0.113925,0.5805 -0.114548,1.1459 -0.259951,0.6432 -0.328986,0.8436 -0.5773,1.6757 -0.144755,0.485 -0.303774,0.9877 -0.353377,1.1171 -0.0496,0.1293 -0.158336,0.4733 -0.24163,0.7643 -0.08329,0.2911 -0.195159,0.5795 -0.248589,0.6409 -0.05343,0.061 -0.09714,0.1811 -0.09714,0.2659 0,0.227 -0.461914,1.1913 -0.861224,1.7979 -0.882972,1.3412 -2.217246,2.3338 -3.84248,2.8584 -1.252897,0.4044 -2.071308,0.493 -4.556713,0.493 -1.374363,0 -2.498842,0.023 -2.498842,0.052 0,0.028 0.14178,0.4872 0.315067,1.0193 0.359224,1.1031 0.235066,1.0276 2.036785,1.238 2.782435,0.3249 7.827817,0.379 8.538645,0.092 z m -18.748604,-14.9407 c -0.389985,-0.8772 -0.487448,-1.1892 -0.668359,-2.14 -0.304792,-1.6017 -0.206312,-2.8714 0.34593,-4.46 0.196231,-0.5645 1.345818,-2.8898 1.890041,-3.8231 0.1613,-0.2766 0.293273,-0.5544 0.293273,-0.6173 0,-0.1991 -0.248508,-0.1241 -0.461875,0.1394 -0.215322,0.266 -0.478866,0.215 -0.478866,-0.093 0,-0.098 0.149277,-0.3989 0.331726,-0.6692 0.417908,-0.6193 0.979769,-1.8096 1.28668,-2.7259 0.438937,-1.3104 0.722738,-2.8433 0.501034,-2.7063 -0.0662,0.041 -0.120366,0.193 -0.120366,0.3379 0,0.145 -0.04211,0.3138 -0.09359,0.3753 -0.05147,0.061 -0.161694,0.3233 -0.244937,0.582 -0.143011,0.4445 -0.26141,0.734 -0.697241,1.7051 -0.255718,0.5698 -1.211957,1.9725 -1.686592,2.4741 -0.480758,0.5081 -1.589995,1.3956 -2.073613,1.6592 -0.358819,0.1956 -0.604774,0.6129 -0.838723,1.423 -0.07004,0.2425 -0.180261,0.6167 -0.244937,0.8315 -0.247881,0.8232 -0.09891,3.0678 0.249077,3.753 0.05703,0.1123 0.103701,0.277 0.103701,0.3659 0,0.27 0.917312,1.9644 1.439178,2.6583 0.530516,0.7054 1.297627,1.5411 1.358625,1.4801 0.02078,-0.021 -0.0648,-0.2685 -0.190169,-0.5504 z m -2.184627,-10.6425 c 1.69665,-0.8163 3.267761,-2.6823 4.193735,-4.9809 0.06514,-0.1617 0.160792,-0.3998 0.21257,-0.5291 0.107806,-0.2694 0.460598,-1.3533 0.740633,-2.2756 0.223021,-0.7345 0.102269,-1.9571 -0.289183,-2.9279 -0.119252,-0.2958 -0.247353,-0.6107 -0.478313,-1.1759 -0.08589,-0.2102 -0.196156,-0.3822 -0.245043,-0.3822 -0.04889,0 -0.08889,-0.057 -0.08889,-0.1258 0,-0.2046 -1.852836,-2.8274 -2.109318,-2.9859 -0.05781,-0.036 -0.162834,0.2042 -0.233391,0.5332 -0.397362,1.8529 -1.127595,2.5828 -3.683912,3.6823 -0.242534,0.1044 -0.639409,0.2748 -0.881944,0.3788 -1.142648,0.4902 -2.492228,1.1872 -2.998611,1.5488 l -0.558565,0.3988 v 0.8943 c 0,2.5607 1.178103,5.9942 2.545836,7.4195 1.117455,1.1645 2.234319,1.3166 3.874393,0.5276 z m -1.128562,-1.2541 c -0.16169,-0.069 -0.527818,-0.1815 -0.813618,-0.2503 -0.582317,-0.1402 -0.742228,-0.3538 -0.342987,-0.4582 0.247508,-0.065 0.234064,-0.091 -0.213694,-0.4152 -0.504442,-0.3654 -0.696475,-0.7542 -0.466706,-0.9449 0.07578,-0.063 0.42751,-0.1513 0.781611,-0.1964 0.354101,-0.045 0.709965,-0.1343 0.79081,-0.1983 0.226467,-0.1793 0.180521,-0.5579 -0.0677,-0.5579 -0.118078,0 -0.331993,-0.1249 -0.475367,-0.2775 -0.223359,-0.2378 -0.24127,-0.3201 -0.125102,-0.575 0.173073,-0.3799 0.651003,-0.6522 0.830157,-0.4731 0.09206,0.092 0.05848,0.165 -0.119969,0.2605 -0.264759,0.1417 -0.346691,0.6179 -0.100819,0.5859 0.357439,-0.046 0.558565,0.022 0.558565,0.1905 0,0.1441 0.08547,0.1657 0.412863,0.1043 0.257443,-0.048 0.476839,-0.024 0.582812,0.064 0.269916,0.224 0.431139,0.03 0.347161,-0.4176 -0.08386,-0.447 0.09711,-0.5527 0.299323,-0.1749 0.308779,0.577 -0.03076,1.0661 -0.740076,1.0661 -0.386144,0 -0.431713,0.032 -0.431713,0.3046 0,0.1786 0.171261,0.5048 0.413549,0.7879 0.426168,0.4979 0.459719,0.6565 0.167415,0.7917 -0.09316,0.043 -0.287734,0.1394 -0.432378,0.2142 -0.144643,0.075 -0.406111,0.1358 -0.58104,0.1358 -0.29432,0 -0.302006,0.012 -0.103007,0.1573 0.317132,0.2319 0.194178,0.432 -0.170094,0.2769 z m 0.587963,-0.9633 c 0,-0.1178 -0.11777,-0.1764 -0.354374,-0.1764 -0.194905,0 -0.446259,-0.047 -0.558565,-0.1039 -1.015258,-0.5165 -1.297365,-0.4523 -0.429932,0.098 0.618134,0.3921 1.342871,0.4905 1.342871,0.1825 z m 0,-0.7056 c -0.08051,-0.097 -0.295538,-0.1764 -0.477829,-0.1764 -0.182292,0 -0.364144,-0.053 -0.404116,-0.1176 -0.09441,-0.1527 -0.529167,-0.153 -0.529167,-3e-4 0,0.1713 0.701589,0.45 1.160927,0.4611 0.339644,0.01 0.375559,-0.016 0.250185,-0.1668 z m -0.236986,-0.8525 c -0.0014,-0.252 -0.02696,-0.2845 -0.115792,-0.147 -0.148685,0.23 -0.148685,0.4703 0,0.4703 0.06468,0 0.116782,-0.1455 0.115792,-0.3233 z m 3.269539,-2.4651 c -0.374435,-0.057 -1.033479,-0.6336 -1.033479,-0.9041 0,-0.2831 0.195476,-0.228 0.615486,0.1734 0.356398,0.3406 0.423362,0.3592 1.163623,0.3233 0.693813,-0.034 0.773539,-0.016 0.683279,0.1523 -0.09412,0.1752 -0.665285,0.3629 -0.977782,0.3213 -0.07276,-0.01 -0.275768,-0.04 -0.451127,-0.066 z m 1.277274,-0.912 c -0.09549,-0.2489 -0.791072,-0.5089 -1.608358,-0.6014 -1.143744,-0.1294 -1.065554,-0.5804 0.08253,-0.476 0.983603,0.089 2.0373,0.6491 2.0373,1.0821 0,0.2212 -0.426274,0.2173 -0.511469,0 z m -6.250105,-0.4997 c -0.348954,-0.085 -0.999537,-0.6078 -0.999537,-0.8035 0,-0.2299 0.05144,-0.2191 0.66261,0.139 0.465735,0.273 0.617494,0.3024 1.28506,0.2488 0.601619,-0.048 0.756959,-0.027 0.756959,0.105 0,0.3155 -0.962918,0.491 -1.705092,0.3107 z m 1.117129,-1.2735 c -0.415584,-0.2213 -0.712159,-0.2825 -1.381713,-0.2851 -0.64211,0 -0.852546,-0.043 -0.852546,-0.1645 0,-0.1895 1.199269,-0.3605 1.724607,-0.246 0.697481,0.1521 1.332801,0.5511 1.332801,0.837 0,0.2211 -0.209929,0.1851 -0.823149,-0.1414 z m -81.123742,33.9204 c -0.408532,-0.2828 -2.785987,-2.132 -3.660516,-2.847 -0.09701,-0.079 -0.414514,-0.3287 -0.705555,-0.5542 -0.291042,-0.2254 -0.555625,-0.4377 -0.587963,-0.4718 -0.03234,-0.034 -0.296922,-0.2443 -0.587963,-0.4673 -0.291042,-0.223 -0.555625,-0.4348 -0.587963,-0.4706 -0.03234,-0.036 -0.535047,-0.4315 -1.11713,-0.8794 -0.582083,-0.4478 -1.084792,-0.8432 -1.11713,-0.8786 -0.03234,-0.035 -0.296921,-0.2489 -0.587963,-0.4744 -0.291041,-0.2255 -0.608541,-0.476 -0.705555,-0.5568 -0.09701,-0.081 -1.128889,-0.8768 -2.293056,-1.769 -1.720257,-1.3183 -2.123635,-1.682 -2.153875,-1.942 -0.02047,-0.176 -0.0035,-0.3199 0.03761,-0.3199 0.112114,0 1.068878,0.6689 2.009654,1.4051 0.458771,0.359 1.010599,0.785 1.226285,0.9467 0.393331,0.2949 0.997092,0.7775 1.249574,0.9988 0.07424,0.065 0.647646,0.5152 1.274229,1.0003 0.626584,0.4851 1.734603,1.3582 2.462266,1.9403 0.727663,0.5821 1.497459,1.1906 1.710659,1.3523 0.213199,0.1617 0.479361,0.3733 0.59147,0.4704 0.112109,0.097 0.378884,0.3086 0.592833,0.4703 0.21395,0.1617 0.657566,0.5091 0.985814,0.772 0.328249,0.263 0.967232,0.7606 1.419964,1.1059 l 0.823148,0.6278 0.133055,-0.8119 0.133054,-0.8118 0.01394,1.2641 c 0.0077,0.6953 7.07e-4,1.2624 -0.01546,1.2604 -0.01617,0 -0.260707,-0.1639 -0.543419,-0.3597 z m 81.387214,-9.0424 c -0.486926,-0.7797 0.358139,-1.7374 0.953025,-1.0801 0.226177,0.25 0.258903,0.9672 0.0535,1.1726 -0.228358,0.2283 -0.841334,0.172 -1.006528,-0.092 z M 3.2171823,1230.7524 c 0.030558,-0.1606 0.1948232,-0.2187 0.7486897,-0.2646 0.5764768,-0.048 0.8023099,-0.1323 1.204198,-0.4508 0.2720602,-0.2157 0.4958827,-0.4273 0.4973833,-0.4704 0.00474,-0.1361 0.7428861,-0.8908 1.2319938,-1.2596 0.784228,-0.5913 1.2316912,-0.7457 2.8810184,-0.9944 2.2608265,-0.3408 3.4705735,-0.7847 3.8392945,-1.4089 0.218283,-0.3695 0.511631,-0.477 0.511631,-0.1874 0,0.5412 -1.333537,1.4382 -2.410648,1.6216 -0.323379,0.055 -0.852546,0.154 -1.175926,0.2199 -0.323379,0.066 -0.9054626,0.1615 -1.2935181,0.2123 -1.3839872,0.1814 -1.7443859,0.3926 -3.1111538,1.8238 -0.9885058,1.0351 -1.5562078,1.3579 -2.3949222,1.3617 -0.4774386,0 -0.5609929,-0.03 -0.5280406,-0.2032 z m -2.29535863,-1.7541 c -0.0431173,-0.043 -0.0783951,-0.2257 -0.0783951,-0.4057 0,-0.3611 0.26592063,-0.5749 0.60466503,-0.4864 0.2829283,0.074 0.3089007,0.793 0.032477,0.8991 -0.2431989,0.093 -0.4611421,0.091 -0.55874667,-0.01 z m 10.20319833,-4.6732 c -0.141772,-0.5648 0.377772,-1.005 0.748592,-0.6341 0.203733,0.2037 0.17356,0.4986 -0.07394,0.7226 -0.3071,0.2779 -0.592085,0.2405 -0.674656,-0.089 z m 63.711428,-10.7706 c 0,-0.2264 0.0242,-0.319 0.05378,-0.2058 0.02958,0.1132 0.02958,0.2984 0,0.4116 -0.02958,0.1131 -0.05378,0.021 -0.05378,-0.2058 z"
       id="path62" /></g></svg>
