<?xml version="1.0" encoding="UTF-8" standalone="no"?>
<!-- Created with Inkscape (http://www.inkscape.org/) -->

<svg
   width="65.77359mm"
   height="169.21823mm"
   viewBox="0 0 65.773597 169.21823"
   version="1.1"
   id="svg1"
   xml:space="preserve"
   xmlns="http://www.w3.org/2000/svg"
   xmlns:svg="http://www.w3.org/2000/svg"><defs
     id="defs1" /><g
     id="layer1"
     transform="translate(12.73413,-275.04122)"><path
       style="fill:#4d4d4d"
       d="m 19.750563,444.13274 c -0.12935,-0.0739 -0.30446,-0.23123 -0.38913,-0.34962 -0.11886,-0.1662 -0.20446,-0.18823 -0.37554,-0.0967 -0.31593,0.16908 -1.15869,0.18138 -1.3208,0.0193 -0.0754,-0.0754 -0.31165,-0.13703 -0.52508,-0.13703 -0.22176,0 -0.48195,-0.0939 -0.60714,-0.21908 -0.12049,-0.12049 -0.40924,-0.25475 -0.64166,-0.29835 -0.23956,-0.0449 -0.52112,-0.20455 -0.65009,-0.36851 -0.17705,-0.22507 -0.30206,-0.27525 -0.56366,-0.22624 -0.74552,0.13966 -1.45329,-0.69123 -1.45329,-1.70611 0,-0.45553 -0.0596,-0.605 -0.35352,-0.88659 -0.57171,-0.54774 -0.73324,-1.41993 -0.39497,-2.13276 0.30231,-0.63708 0.94542,-0.86991 2.92395,-1.05861 0.38806,-0.037 0.75583,-0.11445 0.81727,-0.1721 0.0614,-0.0576 0.17542,-0.1048 0.25329,-0.1048 0.12406,0 0.49461,-0.19672 1.98685,-1.05476 0.53238,-0.30612 1.75588,-1.09109 1.82269,-1.16939 0.0323,-0.0379 0.32338,-0.27948 0.64676,-0.53685 0.74522,-0.5931 0.73966,-0.58752 1.32613,-1.33282 1.19618,-1.52015 1.67248,-3.22077 1.67248,-5.97165 0,-1.00368 -0.0523,-2.17903 -0.11635,-2.61188 -0.48221,-3.26188 -0.84853,-5.61591 -1.06486,-6.84302 -0.43385,-2.46095 -0.77755,-4.18803 -1.05305,-5.29167 -0.0565,-0.22636 -0.16575,-0.67616 -0.24276,-0.99954 -0.29339,-1.23203 -0.9128,-3.52178 -1.04975,-3.88055 -0.0494,-0.12935 -0.2333,-0.68498 -0.40873,-1.23472 -0.17543,-0.54975 -0.36179,-1.10537 -0.41413,-1.23473 -0.0523,-0.12935 -0.15962,-0.42039 -0.2384,-0.64675 -0.15409,-0.44271 -0.36651,-0.95724 -0.70396,-1.7051 -0.11674,-0.2587 -0.27758,-0.68203 -0.35744,-0.94074 -0.0799,-0.2587 -0.18621,-0.5762 -0.23633,-0.70555 -0.33753,-0.87108 -0.87993,-2.19821 -1.07886,-2.63977 -0.35135,-0.77988 -1.04971,-2.59796 -1.16544,-3.03408 -0.0558,-0.21019 -0.15786,-0.58061 -0.22683,-0.82314 -0.23482,-0.82567 -0.64804,-2.7814 -0.93792,-4.43912 -0.0679,-0.38806 -0.17145,-0.97014 -0.23019,-1.29352 -0.30947,-1.7035 -0.49494,-2.8503 -1.06502,-6.58519 -0.0691,-0.45273 -0.17199,-1.11419 -0.22863,-1.46991 -0.19328,-1.21377 -0.3477,-2.29217 -0.53041,-3.70416 -0.10043,-0.77611 -0.23381,-1.69775 -0.2964,-2.04809 -0.0626,-0.35033 -0.1138,-0.84555 -0.1138,-1.10048 v -0.4635 l -0.32338,0.0971 c -0.17786,0.0534 -0.61442,0.10624 -0.97014,0.11743 -0.35572,0.0112 -0.8848795,0.0738 -1.1759295,0.13906 -0.52599,0.118 -1.569,0.0414 -1.85656,-0.13629 -0.0827,-0.0511 -0.41412,-0.11747 -0.7364,-0.1474 -0.58677,-0.0545 -1.5769,-0.40902 -1.65671,-0.59317 -0.0234,-0.0539 -0.26096,-0.24001 -0.52801,-0.41362 -0.56211,-0.36541 -1.33713,-1.26465 -1.33713,-1.55146 0,-0.10812 -0.11906,-0.2431 -0.26458,-0.29996 -0.14552,-0.0568 -0.64899,-0.37495 -1.11881,-0.70688 -2.55203002,-1.80303 -3.96812,-4.06579 -4.75113,-7.5918 -0.21081,-0.94931 -0.21256,-5.15232 -0.002,-6.11481 0.0847,-0.38806 0.21127,-0.9966 0.28134,-1.35232 0.13256,-0.67301 0.74039,-3.20773 0.91645,-3.82175 0.21115,-0.73637 1.02931998,-4.02823 1.16907998,-4.70371 0.30997,-1.49815 0.35537,-1.80859 0.4729,-3.23379 0.15881,-1.92589 -0.11503,-6.02957 -0.57676,-8.64306 -0.32422,-1.83516 -0.3193,-1.8273 -0.58916,-0.94074 -0.32936998,1.08204 -0.85835998,2.13774 -1.74201998,3.47648 -0.91525,1.38662 -1.04852,1.52344 -1.51606,1.55645 -0.52388,0.037 -0.49995,-0.38323 0.0718,-1.2608 0.85661,-1.31477 1.20376,-2.79569 1.04963,-4.47769 -0.0726,-0.79223 -0.39656,-2.27848 -0.57663,-2.64536 -0.0477,-0.0973 -0.15541,-0.32345 -0.23926,-0.50261 -0.17744,-0.37915 -0.26249,-0.31938 -0.4635,0.32575 -0.32332,1.03768 -1.04237,2.15472 -1.96309,3.04961 -0.63178,0.61405 -0.80902,0.65679 -0.99858,0.24077 -0.11769,-0.25832 -0.0958,-0.33725 0.17135,-0.61736 0.3241,-0.33982 0.7918,-1.32019 0.7918,-1.65971 0,-0.11106 0.0611,-0.26306 0.13587,-0.33779 0.18894,-0.18894 0.18238,-3.31281 -0.009,-4.1445 -0.33909,-1.4759 -0.61714,-2.46401 -1.15816,-4.11574 -1.22339,-3.73497 -1.36228,-4.27928 -1.62036,-6.35 -0.18422,-1.47807 -0.0825,-3.20092 0.26384,-4.46852 0.0972,-0.35572 0.2064,-0.77812 0.2427,-0.93868 l 0.066,-0.29191 -0.20413,0.20414 c -0.66752,0.66751 -2.1880805,1.37923 -2.9466905,1.37923 -0.21973,0 -0.53115,0.05 -0.69204,0.11122 -0.21525,0.0818 -0.32856,0.0678 -0.42894,-0.0532 -0.20517,-0.24721 -0.0352,-0.60444 0.35729,-0.75097 0.19188,-0.0716 0.51858,-0.19412 0.726,-0.27219 0.66596,-0.25065 1.6876305,-1.40083 2.2077405,-2.4854 0.25989,-0.54197 0.47254,-1.06899 0.47254,-1.17116 0,-0.10217 0.0471,-0.21485 0.1046,-0.2504 0.0575,-0.0356 0.13396,-0.23712 0.16986,-0.44792 0.0359,-0.21079 0.12075,-0.64785 0.18856,-0.97123 0.18691,-0.89127 0.45239,-2.88606 0.60254,-4.52731 0.56454,-6.17113 1.22741,-9.44828 2.42611,-11.99444 0.42772,-0.90851 1.42442,-2.32123 1.97502,-2.79939 0.71893,-0.62434 1.86014,-1.31302 2.72381998,-1.64373 1.5197,-0.58191 2.51978002,-0.73096 4.90447002,-0.73096 2.19648,0 3.70622,0.19213 5.07307,0.64559 0.66666,0.22118 2.4726095,1.08378 2.6831395,1.2816 0.0765,0.0719 0.32429,0.27241 0.55066,0.44564 1.04446,0.79928 1.69709,1.5953 2.22475,2.71355 0.4348,0.92145 0.623,1.78248 0.66617,3.04771 0.0169,0.49618 0.0878,1.00864 0.15743,1.1388 0.15337,0.28658 0.15981,1.08448 0.0138,1.71397 -0.0847,0.36512 -0.0631,0.55054 0.10259,0.88194 0.41676,0.8335 1.0905,1.95721 1.42735,2.38062 0.18915,0.23777 0.40596,0.56849 0.48181,0.73496 0.17504,0.38418 0.25643,0.3805 0.45827,-0.0207 0.0895,-0.17786 0.41322,-0.6938 0.71943,-1.14653 0.59162,-0.8747 0.92152,-1.55972 0.92152,-1.91348 0,-0.11876 -0.1667,-0.47765 -0.37044,-0.79752 l -0.37044,-0.58159 0.022,-1.04712 c 0.0121,-0.57591 0.0533,-1.09776 0.0915,-1.15966 0.0383,-0.0619 0.11644,-0.46383 0.17375,-0.89316 0.0573,-0.42934 0.13574,-0.97946 0.1743,-1.22249 0.048,-0.30271 0.004,-0.58047 -0.13964,-0.88195 -0.20679,-0.43387 -0.24564,-0.58029 -0.52048,-1.96145 -0.27208,-1.36733 0.10341,-2.41816 1.28601,-3.59897 0.78958,-0.7884 2.00787,-1.47991 3.71041,-2.10608 0.38805,-0.14272 0.81139,-0.3182 0.94074,-0.38997 0.80663,-0.4475 1.66689,-0.73137 3.82176,-1.26114 2.65062,-0.65164 5.96605,-0.6525 7.58472,-0.002 0.98469,0.39574 1.64599,0.76944 2.38125,1.34565 0.4689,0.36747 0.85255,0.70533 0.85255,0.7508 0,0.0455 0.12964,0.2225 0.2881,0.39339 1.11832,1.20605 2.08946,3.60702 2.53693,6.27207 0.13925,0.82936 0.0953,4.4037 -0.0668,5.43866 l -0.0783,0.49977 h 0.24482 c 0.42311,0 0.63535,0.497 0.62636,1.46673 -0.004,0.47966 -0.065,0.97836 -0.13446,1.10823 -0.0695,0.12987 -0.12132,0.46353 -0.11514,0.74147 0.0106,0.47474 -0.0663,0.92397 -0.34658,2.02605 -0.0718,0.2822 -0.0777,0.64881 -0.0151,0.94074 0.43184,2.01578 0.87726,2.61998 3.60048,4.88406 1.1385,0.94653 1.79129,1.69639 2.22834,2.55967 0.1686,0.33304 0.29785,0.48003 0.33138,0.37688 0.0469,-0.1443 0.18359,-22.10634 0.18827,-30.25204 l 10e-4,-2.68385 0.20578,0.0396 0.20579,0.0396 0.002,52.81935 c 10e-4,29.05064 0.0363,52.85341 0.078,52.89504 0.0416,0.0416 0.46394,-0.25062 0.93846,-0.64945 1.25726,-1.05671 1.96186,-1.29703 2.39607,-0.81724 0.17099,0.18895 0.22561,0.47159 0.25564,1.32292 0.021,0.59545 0.097,1.19788 0.16888,1.33874 0.0719,0.14085 0.10359,0.39793 0.0704,0.57129 -0.0331,0.17335 -0.009,0.73766 0.0532,1.25402 0.17065,1.4115 -0.0852,1.82502 -1.59928,2.58524 -0.9548,0.4794 -2.16547,1.37424 -2.26744,1.67594 -0.0451,0.13343 -0.0821,11.18312 -0.0823,24.55486 l -2.9e-4,24.31227 h -0.21264 -0.21264 l 10e-4,-2.26366 c 6.5e-4,-1.24501 -0.0291,-3.40136 -0.0661,-4.79189 -0.10151,-3.81443 -0.0995,-29.13048 0.003,-35.67152 l 0.0899,-5.7442 -0.21966,0.11854 c -0.25916,0.13985 -1.30961,1.23341 -2.44987,2.55042 -2.28834,2.64304 -3.0199,3.15936 -4.81622,3.39919 -0.6449,0.0861 -1.17205,-0.19798 -1.72405,-0.9291 -0.2533,-0.33549 -0.46054,-0.64992 -0.46054,-0.69874 0,-0.0488 -0.096,-0.22921 -0.21337,-0.40089 -0.61874,-0.90513 -1.60827,-3.68942 -2.49308,-7.01491 -0.65186,-2.44996 -0.85453,-3.26164 -1.17448,-4.7037 -0.0574,-0.2587 -0.15451,-0.68204 -0.21579,-0.94074 -0.24032,-1.01439 -0.82,-3.83 -1.07736,-5.23287 -0.0653,-0.35572 -0.16482,-0.88489 -0.22127,-1.17593 -0.0564,-0.29104 -0.21705,-1.29646 -0.3569,-2.23426 -0.13985,-0.9378 -0.3051,-1.99932 -0.36722,-2.35893 -0.0621,-0.35961 -0.1141,-0.78294 -0.11552,-0.94074 -0.002,-0.23708 -0.0403,-0.20388 -0.21972,0.19116 -0.11942,0.26293 -0.38503,0.66929 -0.59025,0.90301 l -0.37312,0.42496 0.0426,2.27199 c 0.0234,1.24959 0.10945,5.1824 0.19113,8.73957 0.17796,7.75014 0.0965,10.0266 -0.46495,12.99398 -0.31596,1.66995 -0.25944,3.57816 0.12367,4.17454 0.0416,0.0647 0.28149,0.6203 0.53321,1.23472 0.25173,0.61442 0.612,1.40817 0.80061,1.76389 1.13939,2.14887 2.19364,4.30282 2.19364,4.48186 0,0.11438 0.0466,0.23676 0.10356,0.27196 0.057,0.0352 0.13105,0.18385 0.16466,0.33032 0.0336,0.14648 0.14334,0.5639 0.24385,0.9276 0.38746,1.40202 0.56611,3.58677 0.57096,6.98224 0.006,3.9004 -0.0939,4.87895 -0.95659,9.40741 -0.29487,1.54794 -0.36162,2.27949 -0.36162,3.96316 0,1.55314 0.1474,3.16493 0.39573,4.32712 0.35323,1.65311 0.53694,2.37671 0.89566,3.52777 0.11085,0.35572 0.26251,0.89888 0.33702,1.20702 0.16641,0.68818 0.17914,2.63268 0.0179,2.73234 -0.0647,0.04 -0.11759,0.15399 -0.11759,0.25337 0,0.0994 -0.10266,0.32486 -0.22813,0.50107 -0.21485,0.30173 -0.40253,0.38468 -1.59455,0.70478 -0.56898,0.15278 -1.58641,0.45629 -4.70371,1.40317 -2.54936,0.77437 -4.30467,1.14256 -6.05602,1.27032 -0.81856,0.0597 -1.06063,0.1241 -1.33701,0.35562 -0.40811,0.34188 -0.81785,0.5596 -1.50046,0.79733 -0.61091,0.21275 -0.78944,0.21937 -1.10188,0.0409 z m 1.22074,-1.11093 c 0.33055,-0.10675 0.80806,-0.37134 1.06113,-0.58796 0.34543,-0.29568 0.57275,-0.3948 0.91182,-0.39759 1.30251,-0.0107 3.82366,-0.50591 6.27251,-1.23195 0.35572,-0.10547 0.80551,-0.23472 0.99954,-0.28724 0.19403,-0.0525 0.5909,-0.17629 0.88195,-0.27506 0.54891,-0.18629 2.33913,-0.71315 3.0574,-0.8998 1.49828,-0.38932 1.58277,-0.43053 1.72786,-0.84278 0.199,-0.56543 0.18463,-1.76134 -0.0352,-2.92704 -0.10366,-0.54974 -0.21552,-1.14571 -0.24859,-1.32436 -0.0331,-0.17865 -0.10693,-0.35375 -0.16415,-0.38911 -0.0572,-0.0354 -0.10403,-0.19034 -0.10403,-0.3444 0,-0.15406 -0.0529,-0.31281 -0.1176,-0.35278 -0.0647,-0.04 -0.11759,-0.1761 -0.11759,-0.30251 0,-0.12642 -0.0482,-0.32173 -0.10706,-0.43404 -0.25743,-0.49098 -0.62319,-1.95058 -0.78787,-3.144 -0.20209,-1.46465 -0.10144,-3.22819 0.32553,-5.70324 0.73645,-4.26912 0.84064,-5.05259 1.04776,-7.87871 0.15615,-2.13062 0.0654,-5.11922 -0.20175,-6.64434 -0.10193,-0.58189 -0.21171,-1.23044 -0.24396,-1.44124 -0.0322,-0.21079 -0.10571,-0.41235 -0.16324,-0.44791 -0.0575,-0.0356 -0.1046,-0.1515 -0.1046,-0.25765 0,-0.3692 -0.87491,-2.44922 -1.71836,-4.08525 -1.60094,-3.10532 -2.42398,-4.83598 -2.63199,-5.53448 -0.16175,-0.54317 -0.10209,-2.35443 0.10821,-3.28496 0.19013,-0.84131 0.48904,-2.45132 0.63313,-3.41019 0.0745,-0.49579 0.12617,-3.41863 0.12994,-7.34953 0.006,-6.53596 -0.0583,-9.2141 -0.30205,-12.53752 l -0.13041,-1.7778 0.49567,-0.49567 c 0.27262,-0.27262 0.63678,-0.81129 0.80924,-1.19704 l 0.31357,-0.70137 -0.0831,-1.78766 c -0.10889,-2.34291 -0.11752,-4.53368 -0.0218,-5.52421 l 0.077,-0.79673 -0.28007,0.10881 c -0.27807,0.10802 -1.196,0.58685 -1.98517,1.03554 -0.22636,0.1287 -0.64969,0.36815 -0.94074,0.53211 -1.57594,0.88778 -5.67918,3.47329 -6.18136,3.89496 -0.68608,0.57609 -2.34586,1.87654 -2.61724,2.05062 -0.17315,0.11107 -0.41034,0.2884 -0.52709,0.39406 -0.32134,0.29082 -2.32026,1.2476 -2.77378,1.32767 -0.21946,0.0387 -0.46163,0.0185 -0.53816,-0.045 -0.10068,-0.0836 -0.23203,0.0789 -0.47515,0.58754 -0.18481,0.38666 -0.36597,0.70311 -0.40259,0.70322 -0.0366,1.2e-4 -0.21857,0.2408 -0.40435,0.53486 -0.35693,0.56497 -0.36719,0.87812 -0.0729,2.22566 0.0568,0.26019 0.15416,0.73765 0.21629,1.06103 0.0621,0.32338 0.17096,0.87901 0.24184,1.23472 0.0709,0.35572 0.26067,1.33468 0.42176,2.17547 0.28811,1.50374 0.45418,2.36083 0.59241,3.05741 0.0385,0.19402 0.11256,0.5909 0.16455,0.88194 0.0923,0.51663 0.71443,3.64966 0.93402,4.7037 0.0606,0.29105 0.17573,0.84667 0.25577,1.23473 0.26973,1.30772 0.71448,2.98312 1.1706,4.40972 0.34482,1.07847 0.56808,1.88852 0.82645,2.99861 0.8921,3.83294 1.30237,5.1718 2.0179,6.58518 0.68635,1.35577 2.20762,5.57353 2.8067,7.78169 0.1373,0.50609 0.30134,1.10537 0.36452,1.33174 0.0632,0.22637 0.16027,0.59678 0.21574,0.82315 0.0555,0.22636 0.18742,0.75553 0.29323,1.17592 0.20714,0.82299 0.38281,1.6272 0.53942,2.46945 0.0541,0.29104 0.14816,0.76729 0.20899,1.05833 0.0608,0.29104 0.22302,1.19063 0.36043,1.99908 0.13742,0.80844 0.30007,1.73449 0.36146,2.05787 0.11542,0.60803 0.26162,2.29866 0.16269,1.88148 -0.0307,-0.12935 -0.10041,-0.34102 -0.15498,-0.47037 -0.0546,-0.12935 -0.16376,-0.55269 -0.24263,-0.94074 -0.0789,-0.38806 -0.18417,-0.86431 -0.23399,-1.05834 -0.0498,-0.19402 -0.15387,-0.67027 -0.23123,-1.05833 -0.0774,-0.38806 -0.18497,-0.91722 -0.23914,-1.17593 -0.0542,-0.2587 -0.15679,-0.76141 -0.22805,-1.11713 -0.34285,-1.71148 -0.87658,-4.02794 -1.23279,-5.35046 -0.50056,-1.85848 -1.45804,-4.80726 -1.94731,-5.99722 -0.0532,-0.12935 -0.2156,-0.55269 -0.36093,-0.94074 -0.14532,-0.38806 -0.38271,-0.94368 -0.52753,-1.23472 -0.51024,-1.0254 -0.85548,-1.83011 -1.08469,-2.52824 -0.20894,-0.63639 -0.29801,-0.93612 -0.62904,-2.11667 -0.0544,-0.19403 -0.26292,-1.01424 -0.46335,-1.82269 -0.20044,-0.80845 -0.41335,-1.64188 -0.47315,-1.85208 -0.0598,-0.2102 -0.16462,-0.58061 -0.23294,-0.82315 -0.0683,-0.24253 -0.17086,-0.59972 -0.22786,-0.79375 -0.23807,-0.81036 -0.73694,-2.61859 -0.83539,-3.02801 -0.0583,-0.24253 -0.15654,-0.63941 -0.21826,-0.88194 -0.19579,-0.76939 -0.3314,-1.35544 -0.5374,-2.32246 -0.19496,-0.91514 -0.23372,-1.10567 -0.52631,-2.58703 -0.0767,-0.38806 -0.18258,-0.91722 -0.2354,-1.17593 -0.0528,-0.2587 -0.15516,-0.81433 -0.22742,-1.23472 -0.11469,-0.66732 -0.30961,-1.74987 -0.70927,-3.93935 -0.059,-0.32338 -0.16194,-0.87901 -0.22868,-1.23472 -0.35753,-1.90538 -0.70806,-3.85696 -0.73926,-4.11575 l -0.0354,-0.29398 -0.58796,0.59037 c -0.45782,0.45969 -1.30107,1.16136 -1.56016,1.29822 -0.0173,0.009 0.0203,0.3817 0.0836,0.82791 0.0633,0.4462 0.17619,1.28753 0.25092,1.86961 0.15953,1.24272 0.29011,2.17794 0.45151,3.2338 0.0643,0.42039 0.16772,1.10831 0.2299,1.5287 0.0622,0.4204 0.20125,1.31998 0.30905,1.99908 0.1078,0.6791 0.24872,1.57868 0.31316,1.99907 0.46126,3.00938 1.12615,6.67149 1.51587,8.34908 0.23369,1.00594 0.77997,2.80322 0.93774,3.08521 0.0628,0.1123 0.11425,0.2576 0.11425,0.32288 0,0.0653 0.18521,0.51965 0.41157,1.00972 0.22637,0.49007 0.41158,0.9142 0.41158,0.94252 0,0.0283 0.1111,0.30227 0.2469,0.60877 0.26551,0.59928 0.43682,1.00662 0.58054,1.38043 0.38535,1.00224 0.76033,1.94519 0.90747,2.28197 0.22588,0.517 0.97768,2.58625 1.05075,2.89211 0.0309,0.12935 0.0993,0.34102 0.1521,0.47037 0.22453,0.55057 0.73,2.21644 1.05258,3.46898 0.0583,0.22637 0.16461,0.62324 0.23625,0.88194 0.17267,0.62358 0.64434,2.64407 0.82352,3.52778 0.0787,0.38806 0.18739,0.91722 0.24155,1.17593 0.097,0.46305 0.22468,1.13665 0.45706,2.41065 0.21282,1.16673 0.51534,3.39854 0.83682,6.17361 0.41061,3.54444 0.43328,4.28011 0.17933,5.82083 -0.3002,1.82136 -0.60956,2.66875 -1.40966,3.86127 -0.7647,1.13977 -1.71412,1.98626 -3.65511,3.25886 -2.20064,1.44283 -2.76095,1.71654 -3.63496,1.77568 -2.11663,0.14322 -3.02212,0.48681 -2.83518,1.07581 0.10366,0.32661 0.95119,0.5856 1.26829,0.38756 0.81538,-0.50921 1.19134,-0.65919 2.6786,-1.06858 0.29104,-0.0801 0.66146,-0.1863 0.82315,-0.23597 0.16169,-0.0497 0.5321,-0.15864 0.82315,-0.24215 0.59901,-0.17188 2.74492,-1.20125 3.49604,-1.67703 0.27359,-0.17329 0.5514,-0.31508 0.61736,-0.31508 0.066,0 0.11993,-0.0444 0.11993,-0.0987 0,-0.0543 0.12882,-0.15741 0.28627,-0.22915 0.35107,-0.15995 2.54394,-1.72148 2.84614,-2.02671 0.12044,-0.12164 0.27852,-0.28985 0.3513,-0.3738 0.0728,-0.084 0.35912,-0.36361 0.6363,-0.62147 0.53998,-0.50233 0.84489,-1.08221 1.13195,-2.15273 0.20774,-0.77475 0.24705,-4.76592 0.0543,-5.51863 -0.0625,-0.24424 -0.13678,-0.97323 -0.16501,-1.61999 -0.0282,-0.64676 -0.0311,-0.96426 -0.006,-0.70556 0.0247,0.2587 0.0927,0.5762 0.1512,0.70556 0.0585,0.12935 0.16019,0.49977 0.22599,0.82314 0.58699,2.8849 0.6162,6.19794 0.0674,7.64352 -0.0982,0.25871 -0.20931,0.56298 -0.24687,0.67616 -0.0376,0.11318 -0.11504,0.20579 -0.17217,0.20579 -0.0571,0 -0.10388,0.059 -0.10388,0.13113 0,0.14481 -0.81321,0.9272 -0.96372,0.9272 -0.052,0 -0.0946,0.0668 -0.0946,0.14848 0,0.0817 -0.14102,0.25364 -0.31339,0.38218 -0.17237,0.12853 -0.3708,0.28793 -0.44097,0.35422 -0.34761,0.32841 -1.78101,1.354 -2.83106,2.02561 -1.03443,0.66162 -4.11089,2.26359 -4.34705,2.26359 -0.0479,0 -0.25382,0.0732 -0.45762,0.1626 -0.20381,0.0894 -0.55576,0.22706 -0.78213,0.30585 -0.22636,0.0788 -0.51741,0.18724 -0.64676,0.24101 -0.12935,0.0538 -0.77433,0.26063 -1.43329,0.45968 -0.65895,0.19906 -1.28065,0.44446 -1.38153,0.54535 -0.39946,0.39946 -0.37447,1.34291 0.0356,1.34291 0.35094,0 0.88863,-0.32071 1.16547,-0.69515 0.26978,-0.36491 1.21099,-1.06874 1.42918,-1.06874 0.0692,0 0.12571,0.19844 0.12559,0.44098 -1.8e-4,0.39295 -0.0564,0.47646 -0.5162,0.76694 -0.37843,0.23908 -0.52951,0.41813 -0.56672,0.67165 -0.0924,0.62982 0.44849,0.58946 0.85209,-0.0636 0.28715,-0.46463 0.88409,-0.99284 1.12201,-0.99284 0.11002,0 0.16737,0.12942 0.16737,0.37773 0,0.28546 -0.12076,0.50076 -0.49438,0.88145 -0.39356,0.40101 -0.46462,0.53349 -0.34846,0.64965 0.11616,0.11616 0.2972,-0.021 0.88776,-0.67254 l 0.74184,-0.81845 0.1423,0.26589 c 0.1798,0.33597 0.0846,0.63613 -0.36366,1.14668 l -0.35458,0.40385 h 0.30063 c 0.44099,0 0.85232,-0.221 1.0303,-0.55356 0.20047,-0.37458 0.79748,-0.87923 0.93765,-0.7926 0.23307,0.14405 0.099,0.69711 -0.25836,1.06582 -0.60479,0.62398 -0.20739,0.80958 0.93997,0.43902 z m 21.83918,-49.68516 c 0.57419,-0.26737 1.81177,-1.44208 2.89028,-2.74343 0.98502,-1.18854 2.90849,-3.05833 3.93721,-3.82731 0.43444,-0.32476 1.19,-0.80975 1.67902,-1.07776 0.48902,-0.26802 0.92712,-0.54402 0.97355,-0.61334 0.11511,-0.17184 -0.0831,-0.22435 -0.34249,-0.0907 -0.30445,0.15678 -0.50629,0.0472 -0.50629,-0.27475 0,-0.20288 0.11194,-0.33178 0.41158,-0.47397 0.22636,-0.10741 0.41157,-0.24219 0.41157,-0.2995 0,-0.15465 -0.15025,-0.12702 -0.44966,0.0827 -0.14674,0.10278 -0.34372,0.15736 -0.43774,0.12128 -0.3182,-0.12211 -0.18045,-0.50579 0.29442,-0.82004 0.42022,-0.2781 0.83384,-0.78164 0.64204,-0.78164 -0.0422,0 -0.26075,0.1615 -0.48556,0.35889 -0.22482,0.19739 -0.46993,0.33877 -0.54469,0.31417 -0.24538,-0.0807 -0.21953,-0.53674 0.0429,-0.75599 0.4451,-0.37192 0.64099,-0.55898 0.80596,-0.76961 0.30816,-0.39349 0.0361,-0.20158 -0.70731,0.49882 -0.63534,0.59863 -1.04181,0.85509 -1.04181,0.65732 0,-0.0271 -0.0311,-0.13029 -0.0692,-0.22942 -0.0459,-0.1195 0.27116,-0.53934 0.94074,-1.24588 0.99987,-1.05505 1.17173,-1.36062 0.8374,-1.48891 -0.36608,-0.14048 -0.94006,0.21484 -2.2084,1.36709 -0.63914,0.58064 -0.93265,0.7626 -2.71017,1.6801 -1.6346,0.84373 -2.88358,1.34524 -4.04593,1.6246 -0.7315,0.1758 -1.45627,-0.003 -1.67578,-0.41297 -0.25585,-0.47807 -0.33291,-3.1952 -0.30212,-10.65284 0.027,-6.5373 0.11868,-9.7993 0.3487,-12.40602 0.0342,-0.38805 0.14368,-1.76389 0.2432,-3.0574 0.0995,-1.29352 0.2325,-2.70601 0.2955,-3.13886 0.063,-0.43285 0.11455,-0.97596 0.11455,-1.20692 0,-0.23095 0.0478,-0.5118 0.10613,-0.62411 0.39398,-0.758 0.64673,-2.58165 0.4747,-3.42514 -0.26544,-1.30148 -0.8917,-1.97179 -2.30901,-2.47144 l -0.72863,-0.25686 -1.976,0.0502 c -2.29015,0.0582 -2.96209,0.15799 -5.68016,0.84375 -0.67909,0.17133 -1.34532,0.33831 -1.48049,0.37107 -0.13518,0.0328 -0.77018,0.23057 -1.41111,0.43958 -1.28757,0.41987 -1.18771,0.32652 -2.16488,2.02398 -0.29104,0.50558 -0.67596,1.15914 -0.85538,1.45236 -0.17941,0.29323 -0.38635,0.6522 -0.45984,0.79772 -0.0735,0.14552 -0.17806,0.26458 -0.23236,0.26458 -0.0543,0 -0.0987,0.0584 -0.0987,0.12987 0,0.30842 -3.44296,4.90667 -4.96553,6.63171 -1.11679,1.26531 -1.51767,1.78593 -1.58346,2.05644 -0.0395,0.16247 -0.27298,0.69228 -0.5188,1.17735 -0.4643,0.91618 -1.28128,3.11805 -1.28128,3.45322 0,0.2287 0.1536,0.23815 0.70556,0.0434 0.62737,-0.22136 1.52772,-0.71773 2.42411,-1.33643 0.87849,-0.60635 0.89373,-0.61783 2.80876,-2.11621 0.58208,-0.45544 1.38681,-1.04897 1.78828,-1.31895 0.82556,-0.55516 3.99354,-2.46245 4.97329,-2.99417 0.35572,-0.19305 0.9378,-0.51605 1.29352,-0.71778 0.35572,-0.20173 0.83975,-0.46775 1.07563,-0.59116 0.47517,-0.24862 0.51911,-0.37624 0.67926,-1.97313 0.05,-0.49898 0.1633,-0.99437 0.25167,-1.10086 l 0.16069,-0.19361 0.0836,0.31273 c 0.046,0.172 0.0295,0.66022 -0.0366,1.08492 -0.11426,0.73388 -0.0972,1.11094 0.0823,1.8239 0.0599,0.23799 0.0192,0.36565 -0.168,0.5259 l -0.24716,0.21162 1.3e-4,3.23706 c 1.2e-4,2.95492 0.19768,5.95804 0.53363,8.11174 0.0358,0.22935 0.1172,0.76095 0.18094,1.18134 0.1803,1.18901 0.31862,1.92753 0.9471,5.05648 0.59271,2.95092 0.53471,2.68395 1.08563,4.99769 0.68447,2.87461 1.585,6.2054 1.84398,6.82037 0.0545,0.12935 0.22992,0.6056 0.38988,1.05833 0.78182,2.21281 1.68727,3.96738 2.35315,4.55992 0.25763,0.22925 0.48233,0.29635 1.19102,0.35564 0.56906,0.0476 0.79601,10e-4 1.42288,-0.29065 z m 0.78326,-9.84679 c 0.27417,-0.12331 1.02765,-0.42404 1.67441,-0.66829 0.64676,-0.24426 1.65218,-0.68576 2.23426,-0.98113 l 1.05834,-0.53703 v -7.11435 c 0,-12.07895 -0.19235,-56.73479 -0.24461,-56.78704 -0.0272,-0.0272 -0.0494,0.0601 -0.0494,0.19402 0,0.68328 -1.38313,3.91748 -2.13316,4.98802 -0.12028,0.17168 -0.21869,0.34536 -0.21869,0.38596 0,0.0713 -1.27743,1.94626 -1.40718,2.06533 -0.0352,0.0323 -0.21972,0.27047 -0.40996,0.52917 -0.19024,0.2587 -0.37514,0.49683 -0.4109,0.52917 -0.0358,0.0323 -0.27489,0.32338 -0.5314,0.64676 -0.25651,0.32338 -0.49463,0.61442 -0.52916,0.64676 -0.0345,0.0323 -0.32737,0.37612 -0.65075,0.76396 -0.95486,1.14521 -4.38592,5.1149 -4.52317,5.23326 -0.0375,0.0323 -0.33159,0.37629 -0.65353,0.76435 -0.32193,0.38806 -0.61571,0.73201 -0.65283,0.76435 -0.13997,0.12193 -1.5011,1.96856 -1.95021,2.64584 -1.27284,1.91948 -2.04408,4.23696 -2.03497,6.11481 0.004,0.785 0.20286,1.95322 0.42251,2.47964 l 0.10238,0.24537 0.82315,-0.19701 c 0.45273,-0.10835 1.14065,-0.27169 1.52871,-0.36297 1.04816,-0.24654 4.06164,-0.21898 4.7954,0.0439 0.99685,0.35709 1.66354,0.75322 2.24312,1.3328 0.88894,0.88894 1.24832,1.78766 1.25048,3.12714 10e-4,0.75586 -0.30375,2.3546 -0.59014,3.09374 -0.24033,0.62025 -0.42564,2.0851 -0.69886,5.52447 -0.46246,5.82153 -0.61367,10.24536 -0.57074,16.69814 l 0.0383,5.76204 0.26824,0.74211 c 0.27128,0.75052 0.87152,1.55095 1.16305,1.55095 0.0873,0 0.38309,-0.10089 0.65726,-0.2242 z m -33.25608,-11.78427 c 0.25743,-0.13418 0.54918,-0.33416 0.64835,-0.4444 0.0992,-0.11024 0.39196,-0.35616 0.65066,-0.54649 0.25871,-0.19034 0.49683,-0.37282 0.52917,-0.40553 0.0323,-0.0327 0.18495,-0.13049 0.33914,-0.21729 0.23454,-0.13205 0.29668,-0.13205 0.38037,0 0.22417,0.35368 0.10411,0.6889 -0.36227,1.01149 -0.487,0.33685 -0.62121,0.54455 -0.26905,0.41637 0.81952,-0.2983 2.13819,-1.61965 3.11138,-3.11772 0.70544,-1.0859 1.07303,-1.91908 1.83073,-4.14954 0.87598,-2.5786 1.32833,-3.39339 2.90605,-5.23449 1.49613,-1.7459 1.82465,-2.15337 2.70074,-3.34977 0.42625,-0.58208 0.86093,-1.16067 0.96596,-1.28576 0.36256,-0.43179 2.46815,-3.77476 3.22677,-5.12303 1.05493,-1.8749 2.02999,-3.87949 2.68834,-5.52685 0.14216,-0.35572 0.29758,-0.72614 0.34537,-0.82315 0.0478,-0.097 0.34558,-0.95904 0.66175,-1.91561 0.31616,-0.95657 0.66698,-1.83811 0.77959,-1.95899 0.11261,-0.12087 0.40105,-0.52885 0.64098,-0.90661 0.23993,-0.37777 0.46724,-0.71331 0.50514,-0.74564 0.1512,-0.12901 1.50241,-2.75032 1.87908,-3.64537 0.1497,-0.35572 0.34267,-0.80551 0.42883,-0.99954 0.18669,-0.42045 0.8764,-2.49018 1.21476,-3.64537 0.33745,-1.15207 0.99265,-3.97277 1.31111,-5.64445 0.18139,-0.95213 0.86258,-4.6995 1.05811,-5.82083 0.41721,-2.39261 0.63267,-3.32935 0.77664,-3.37653 0.30922,-0.10135 0.28458,0.36838 -0.13701,2.61218 -0.31013,1.65059 -0.40819,2.18879 -0.51424,2.82222 -0.0541,0.32338 -0.18488,1.06421 -0.29053,1.6463 -0.10564,0.58208 -0.27325,1.50812 -0.37245,2.05787 -0.0992,0.54974 -0.22703,1.18474 -0.28406,1.41111 -0.057,0.22636 -0.16835,0.72907 -0.24739,1.11713 -0.47565,2.33541 -1.35518,5.41123 -2.10161,7.34954 -0.13698,0.35571 -0.3099,0.8055 -0.38426,0.99953 -0.0744,0.19403 -0.42988,0.93486 -0.79005,1.6463 -0.80302,1.58616 -0.79576,1.5688 -0.55617,1.32922 0.10741,-0.10741 0.19591,-0.23876 0.19666,-0.29189 0.002,-0.12657 2.02354,-2.88925 2.70326,-3.69397 0.29104,-0.34457 0.76729,-0.89494 1.05833,-1.22305 2.24377,-2.52957 3.64777,-4.17937 4.85625,-5.70644 0.0778,-0.0983 0.29739,-0.38934 0.48799,-0.64676 0.19061,-0.25742 0.37902,-0.4945 0.41868,-0.52683 0.0397,-0.0323 0.3325,-0.42922 0.65077,-0.88195 0.31826,-0.45273 0.61934,-0.84078 0.66906,-0.86234 0.0497,-0.0216 0.0904,-0.10976 0.0904,-0.19599 0,-0.0862 0.0397,-0.17443 0.0882,-0.19599 0.18592,-0.0826 0.96196,-1.39464 1.69249,-2.86142 0.73935,-1.48448 1.23169,-2.84726 1.50815,-4.17454 0.0741,-0.35571 0.18463,-0.87241 0.24563,-1.14821 0.061,-0.2758 0.10993,-1.17538 0.10874,-1.99907 -0.003,-2.34426 -0.40744,-4.16512 -1.15864,-5.22153 -0.53816,-0.7568 -0.66816,-0.88924 -2.02543,-2.06344 -1.43392,-1.24051 -2.31781,-2.1797 -2.58871,-2.75069 -0.47076,-0.99223 -0.6913,-1.65542 -0.69578,-2.09224 -0.003,-0.24912 -0.0734,-0.17501 -0.38218,0.39958 -0.54637,1.01682 -1.67056,2.0848 -3.57888,3.39992 -1.34147,0.92448 -1.77062,1.29053 -2.17546,1.85562 -0.27738,0.38717 -0.56084,0.76539 -0.62992,0.84048 -0.11236,0.12215 -1.11208,2.12888 -1.35683,2.72357 -0.13857,0.33671 -0.65284,1.99326 -0.87614,2.82222 -0.10453,0.38805 -0.23839,0.87753 -0.29746,1.08773 -0.0591,0.2102 -0.1548,0.55415 -0.21272,0.76435 -0.17858,0.64803 -0.60617,2.01584 -0.70765,2.26366 -0.053,0.12935 -0.14949,0.36748 -0.2145,0.52917 -0.51086,1.27066 -1.16175,2.46247 -2.50463,4.58611 -0.55212,0.87312 -1.09965,1.87854 -1.21672,2.23426 -0.51294,1.55843 -1.11627,4.19557 -1.35861,5.93842 -0.054,0.38806 -0.1294,0.89077 -0.16765,1.11713 -0.0383,0.22637 -0.15488,1.08938 -0.25918,1.9178 l -0.18964,1.50622 -0.53325,1.02202 c -1.01771,1.9505 -3.62138,7.13965 -3.84643,7.666 -0.45923,1.074 -0.78461,1.83037 -0.91058,2.11667 -0.40414,0.91852 -0.96685,2.55071 -1.74328,5.05648 -0.3362,1.08504 -0.87777,2.54507 -1.50484,4.05694 -0.32753,0.78967 -2.33421,4.72544 -2.59865,5.09681 -0.13658,0.19182 -0.24833,0.37973 -0.24833,0.41759 0,0.13584 -1.02942,1.66276 -1.24733,1.85015 -0.12242,0.10527 -0.48716,0.22792 -0.81054,0.27256 -1.7186,0.2372 -2.3456095,0.57333 -3.7629695,2.01729 -0.82105,0.83646 -1.309,1.24 -1.61689,1.33717 -0.48584,0.15333 -0.56259,0.30167 -0.21342,0.41249 0.36296,0.1152 1.45409,-0.26197 2.25452,-0.77932 l 0.73754,-0.47669 0.15408,0.21072 c 0.2378395,0.32526 0.1876395,0.51444 -0.24261,0.91426 -0.50968,0.47364 -0.7217,0.90071 -0.90191,1.81667 l -0.14548,0.73947 -0.45831,0.23381 c -0.25207,0.1286 -0.60184,0.44138 -0.77727,0.69508 l -0.31895,0.46126 -1.05833,0.009 c -1.06237,0.009 -1.65302,0.17775 -1.49416,0.42773 0.0457,0.0719 0.28887,0.26969 0.54043,0.43959 1.03932,0.70192 2.26183,0.28382 4.03443,-1.37979 0.80568,-0.75614 1.0696395,-0.9328 1.2756795,-0.85373 0.17934,0.0688 0.22864,0.51253 0.0809,0.72841 -0.0785,0.11474 -0.8553795,0.82027 -1.7407995,1.58095 -0.18957,0.16286 -0.5197,0.41998 -0.73362,0.57139 -0.21392,0.15141 -0.36678,0.29745 -0.33969,0.32455 0.10674,0.10673 0.76067,-0.232 1.3754,-0.71243 0.6098,-0.47659 1.6315895,-1.06999 1.7005595,-0.98759 0.15797,0.18874 0.28513,0.5824 0.23246,0.71967 -0.0359,0.0935 -0.29697,0.28913 -0.58022,0.43481 -0.28326,0.14568 -0.6902795,0.42054 -0.9045095,0.6108 l -0.3895,0.34591 0.40999,-0.0693 c 0.22549,-0.0381 0.6206095,-0.17906 0.8780395,-0.31324 z m -5.8741395,-2.64942 c 0.25431,-0.1388 0.63892,-0.19044 1.3779,-0.185 l 1.02511,0.008 0.25173,-0.4073 c 0.13845,-0.22402 0.44444,-0.49773 0.67998,-0.60825 0.37923,-0.17795 0.43232,-0.2568 0.46384,-0.68887 l 0.0356,-0.48793 -0.50596,0.1756 c -0.57196,0.19849 -1.41039,0.15002 -1.65065,-0.0954 -0.2612,-0.26685 -0.47419,-0.90313 -0.40054,-1.19657 0.10563,-0.42088 0.43173,-0.72368 1.04781,-0.97294 0.65925,-0.26674 0.87305,-0.44566 1.72692,-1.44523 0.35139,-0.41135 0.83049,-0.86886 1.06465,-1.01668 0.4852895,-0.30635 1.5854695,-0.67467 2.7018895,-0.90454 l 0.76271,-0.15704 0.42379,-0.70359 c 0.23309,-0.38697 0.59127,-0.99462 0.79597,-1.35034 0.39768,-0.69109 2.13491,-4.17497 2.13491,-4.2814 0,-0.035 0.15726,-0.40698 0.34946,-0.82662 0.38005,-0.82979 0.5441,-1.35957 0.421,-1.35957 -0.1543,0 -3.08711,1.21836 -4.23944,1.76117 -0.64676,0.30465 -1.37114,0.64606 -1.60974,0.75869 -0.56425,0.26634 -0.85005,0.20709 -0.89569,-0.18571 -0.027,-0.23202 0.0513,-0.37184 0.31213,-0.55756 0.19147,-0.13634 0.37684,-0.24789 0.41194,-0.24789 0.0351,0 0.47671,-0.1924 0.98138,-0.42756 1.91245,-0.89116 3.42946,-1.53916 4.04052,-1.72595 0.25177,-0.077 0.57468,-1.33539 1.27298,-4.96084 0.44261,-2.29797 0.4903,-2.59611 0.72425,-4.52731 0.27609,-2.27907 0.35511,-3.51206 0.42254,-6.59309 l 0.071,-3.24169 -0.63137,-0.26207 c -1.04907,-0.43545 -1.39399,-0.72293 -1.39492,-1.16264 -0.001,-0.48122 0.13904,-0.48536 1.01659,-0.0301 0.86552,0.44906 1.35927,0.53929 1.92651,0.35209 0.47335,-0.15622 1.13129,-0.70631 1.47838,-1.23604 0.17337,-0.26459 0.17892,-0.32728 0.0369,-0.41714 -0.0919,-0.0582 -0.29938,-0.1067 -0.46107,-0.10786 -0.30377,-0.002 -2.12637,-0.46575 -3.05741,-0.77766 -0.29104,-0.0975 -1.77721,-0.67713 -3.30261,-1.28806 -1.5254,-0.61093 -2.80289,-1.11078 -2.83887,-1.11078 -0.036,0 -0.0956,0.12026 -0.1325,0.26724 -0.10886,0.43371 -2.0566995,2.24735 -3.3717195,3.13942 -0.67025,0.45467 -1.28204,0.82667 -1.35953,0.82667 -0.1747,0 -0.28366,-0.26926 -0.28366,-0.70101 0,-0.2476 0.13177,-0.43696 0.53261,-0.76542 0.76522,-0.62704 1.32131,-1.81709 1.51885,-3.25043 l 0.0748,-0.54232 -0.32814,-0.12011 c -0.18049,-0.0661 -0.96315,-0.31812 -1.73926,-0.56013 -1.50959,-0.47073 -1.98444,-0.66142 -3.32214,-1.3341 -1.22714,-0.61709 -1.91112,-1.13981 -1.90893,-1.45887 0.004,-0.5671 0.16184,-0.60005 0.834,-0.17397 1.04656,0.66339 1.87881,1.08571 2.80957,1.42568 0.48506,0.17718 0.97383,0.37177 1.08613,0.43243 0.11231,0.0607 0.285,0.11029 0.38377,0.11029 0.0988,0 0.27147,0.0484 0.38377,0.10765 0.11231,0.0592 0.60107,0.22207 1.08614,0.36191 1.36267,0.39283 2.7388295,0.82158 2.9986095,0.93423 0.12935,0.0561 0.55269,0.22073 0.94074,0.36586 0.69492,0.2599 1.09876,0.42266 1.85209,0.74647 0.21019,0.0904 0.8055,0.33305 1.32291,0.53934 0.51741,0.20628 1.04658,0.41806 1.17593,0.47061 0.12935,0.0526 0.42039,0.15916 0.64676,0.23689 0.22636,0.0777 0.5174,0.18513 0.64676,0.23866 0.69377,0.28711 3.09747,0.88575 3.93935,0.98109 l 0.52916,0.0599 2.48266,-2.43313 c 2.61582,-2.56363 3.42536,-3.57366 5.16894,-6.44904 0.79926,-1.31807 1.81461,-3.32622 1.81461,-3.58891 0,-0.0924 0.0443,-0.21831 0.0983,-0.27976 0.10136,-0.11515 0.57095,-1.573 0.90717,-2.81634 0.10494,-0.38805 0.23913,-0.87753 0.2982,-1.08773 0.0591,-0.2102 0.15289,-0.55416 0.20847,-0.76435 0.59197,-2.23841 1.79458,-4.91231 2.5677,-5.70905 0.0815,-0.084 0.18912,-0.21646 0.23906,-0.29429 0.1195,-0.18623 1.17875,-0.97919 2.20745,-1.6525 0.45273,-0.29632 0.87612,-0.58013 0.94085,-0.6307 0.0647,-0.0506 0.32932,-0.2498 0.58796,-0.44274 0.25865,-0.19294 0.5951,-0.45753 0.74768,-0.58796 0.33567,-0.28697 1.20537,-1.51292 1.41956,-2.00105 0.27598,-0.62894 0.70747,-1.99249 0.71061,-2.24559 0.002,-0.13558 0.0874,-0.41554 0.19045,-0.62213 0.21552,-0.43203 0.13433,-1.67658 -0.12334,-1.89042 -0.11689,-0.097 -0.16571,0.0358 -0.22501,0.61203 -0.1416,1.37622 -0.24109,1.79426 -0.427,1.79426 -0.20869,0 -0.20936,-0.19178 -0.006,-1.62452 l 0.14737,-1.03655 -0.19538,-0.14287 c -0.15914,-0.11637 -0.17228,-0.20362 -0.0709,-0.47041 0.27475,-0.72265 0.091,-1.55814 -0.30899,-1.40466 -0.13782,0.0529 -0.15587,0.25535 -0.0962,1.07854 0.0639,0.88136 0.002,1.74246 -0.25629,3.57658 -0.0369,0.26203 -0.11834,0.42752 -0.19705,0.40059 -0.14571,-0.0498 -0.14645,-0.15969 -0.0151,-2.25818 0.0966,-1.54276 -0.0392,-2.56617 -0.39939,-3.01101 l -0.20643,-0.25494 -0.27029,0.33946 -0.27029,0.33945 0.0934,1.41111 c 0.15583,2.35392 0.0903,3.70417 -0.17978,3.70417 -0.0613,0 -0.1299,-0.8168 -0.15546,-1.85208 -0.0493,-1.99511 -0.11108,-2.38194 -0.4604,-2.88074 -0.26105,-0.37275 -0.77498,-0.55219 -0.91813,-0.32057 -0.0518,0.0839 -0.0647,1.06645 -0.0286,2.18348 0.0806,2.49387 0.0213,2.68934 -1.13517,3.73998 -0.22075,0.20056 -0.6701,0.61123 -0.99855,0.91259 -0.32846,0.30137 -0.64302,0.51962 -0.69904,0.485 -0.056,-0.0346 -0.0639,-0.28119 -0.0174,-0.54794 0.0464,-0.26675 0.0764,-0.72793 0.0665,-1.02485 -0.01,-0.29691 0.0584,-0.77316 0.15166,-1.05833 0.22963,-0.70212 0.4331,-1.95665 0.35174,-2.16869 -0.13125,-0.34202 -0.30192,-0.21528 -1.07069,0.79514 -1.29721,1.70497 -2.68557,5.24214 -2.78187,7.08747 -0.0229,0.43908 -0.17371,0.85595 -0.59552,1.6463 -0.31066,0.58208 -0.66324,1.19879 -0.78352,1.37047 -0.12028,0.17167 -0.21869,0.34761 -0.21869,0.39098 0,0.0434 -0.23812,0.44695 -0.52916,0.89685 -0.29104,0.44991 -0.52917,0.84098 -0.52917,0.86905 0,0.10051 -4.8987,7.57622 -5.04748,7.70274 -0.038,0.0323 -0.22039,0.26161 -0.40525,0.50949 -0.18486,0.24788 -0.72275,0.84239 -1.19531,1.32112 -0.47256,0.47874 -1.06184,1.12259 -1.30951,1.43079 -0.24768,0.3082 -0.47678,0.58682 -0.50912,0.61916 -0.094,0.094 -0.34229,0.50424 -0.49822,0.82314 -0.18807,0.38463 -0.32157,0.4701 -0.54959,0.35188 -0.33006,-0.17114 -1.05031,-0.47336 -1.53922,-0.64586 -0.26143,-0.0922 -0.67264,-0.25442 -0.91382,-0.36042 -0.24117,-0.106 -0.54433,-0.23485 -0.67368,-0.28634 -2.2955,-0.9137 -3.752,-1.8122 -5.26419,-3.24741 -1.2991295,-1.233 -2.2446995,-1.95923 -2.9941095,-2.29959 -0.62931,-0.28582 -0.88056,-0.33263 -1.78536,-0.33263 h -1.05299 l -0.0746,-0.23518 c -0.0411,-0.12935 -0.042,-0.33818 -0.002,-0.46405 0.14622,-0.46072 1.72632,-0.46225 2.89195,-0.003 0.31847,0.12553 0.57903,0.18786 0.57903,0.13852 0,-0.10161 -0.35471,-0.64044 -0.48055,-0.73 -0.0454,-0.0323 -0.27533,-0.45514 -0.51085,-0.93955 -0.52967,-1.08936 -0.98802,-1.58204 -1.86177,-2.00119 -0.95812,-0.45962 -2.36784,-0.77881 -2.70607,-0.6127 -0.14388,0.0707 -0.39388,0.16554 -0.55557,0.21086 -0.94956,0.26611 -2.45581002,1.25127 -3.21353002,2.1018 -0.1182,0.13268 -0.38445998,0.42645 -0.59167998,0.65281 -0.20723,0.22637 -0.53356,0.62324 -0.72517,0.88195 -0.19161,0.2587 -0.37863,0.49683 -0.41561,0.52916 -0.16526,0.14453 -0.81558,1.40209 -0.97297,1.88148 -0.23435,0.71382 -0.46958,2.49304 -0.38376,2.90267 0.0382,0.18212 0.12308,1.07196 0.18872,1.97743 0.10414,1.43644 0.16293,1.73623 0.4612,2.35185 1.33946,2.76459 2.22418998,5.15993 2.73629998,7.40833 0.79061,3.47114 0.97204,4.81592 1.2137,8.99584 0.12608,2.18077 -0.2092,5.64477 -0.72844,7.52592 -0.0982,0.35572 -0.22213,0.83197 -0.27544,1.05833 -0.0533,0.22637 -0.23779,0.88783 -0.40995,1.46991 -0.17216,0.58209 -0.36156,1.23031 -0.42087998,1.44051 -0.0593,0.2102 -0.1643,0.58061 -0.23327,0.82315 -0.69034,2.42738 -1.13433,5.62279 -1.00858,7.25877 0.0934,1.21505 0.36161,2.7623 0.62289,3.59324 0.27741,0.88225 1.11610998,2.48969 1.68117998,3.22213 0.78005,1.01108 2.66760002,2.65341 3.04961002,2.65341 0.0722,0 0.13123,0.0529 0.13123,0.11759 0,0.0647 0.0729,0.11759 0.16199,0.11759 0.0891,0 0.22787,0.0794 0.30838,0.17639 0.1862,0.22435 0.32699,0.22111 0.76435,-0.0176 z M 17.666533,351.31063 c 0.14374,-0.10068 0.26135,-0.26015 0.26135,-0.35437 0,-0.0942 0.0514,-0.26321 0.11433,-0.37551 0.0629,-0.11231 0.30316,-0.78628 0.53393,-1.49771 0.23078,-0.71144 0.47037,-1.38541 0.53242,-1.49771 0.0621,-0.11231 0.11283,-0.30762 0.11283,-0.43403 0,-0.12642 0.0529,-0.26255 0.1176,-0.30252 0.0647,-0.04 0.11759,-0.19126 0.11759,-0.3362 0,-0.14494 0.0421,-0.31379 0.0936,-0.37524 0.0515,-0.0614 0.1634,-0.32337 0.24872,-0.58208 0.1737,-0.52667 0.35116,-0.95282 0.8469,-2.03375 0.18672,-0.40713 0.3395,-0.76738 0.3395,-0.80055 0,-0.16891 3.92939,-7.8405 4.2494,-8.29635 0.12051,-0.17168 0.21911,-0.45662 0.21911,-0.6332 0,-0.17659 0.0522,-0.64467 0.11612,-1.04018 0.0639,-0.39552 0.19746,-1.35412 0.29686,-2.13023 0.0994,-0.77611 0.23395,-1.67569 0.29899,-1.99907 0.065,-0.32338 0.17351,-0.87901 0.24107,-1.23472 0.12844,-0.67624 0.24168,-1.17127 0.43713,-1.91088 0.0641,-0.24254 0.1052,-0.44098 0.0914,-0.44098 -0.0138,0 -0.52929,0.48948 -1.14542,1.08774 -0.61613,0.59825 -1.67991,1.62706 -2.36394,2.28624 -0.8626,0.83126 -1.3609,1.4184 -1.62617,1.91609 -0.68035,1.27648 -1.73425,2.23586 -2.45612,2.23586 h -0.23987 v 1.98126 c 0,1.98109 -0.25359,6.23402 -0.47085,7.89652 -0.0634,0.48507 -0.17191,1.33173 -0.24115,1.88148 -0.0692,0.54974 -0.1755,1.19088 -0.23612,1.42475 -0.0606,0.23387 -0.11021,0.57407 -0.11021,0.75601 0,0.18193 -0.0514,0.49329 -0.11419,0.69191 -0.0628,0.19862 -0.22682,0.94321 -0.3645,1.65464 -0.26666,1.37795 -0.39415,1.95576 -0.52544,2.38125 -0.0648,0.21 -0.0357,0.26459 0.1411,0.26459 0.1225,0 0.34034,-0.0824 0.48408,-0.18306 z m 12.57741,-4.11419 c 0.69623,-0.22918 1.40213,-0.46988 1.56866,-0.5349 l 0.30277,-0.11821 -0.21257,-0.84681 c -0.37231,-1.48316 -0.25235,-3.84823 0.2696,-5.31533 0.2735,-0.76875 0.63129,-1.6027 1.00903,-2.35185 0.39463,-0.78267 0.34363,-0.71924 -0.83562,1.03934 -0.55681,0.83035 -1.01238,1.60838 -1.01238,1.72896 0,0.12058 -0.0491,0.34079 -0.10922,0.48936 -0.0601,0.14856 -0.24953,0.66699 -0.421,1.15206 -0.17148,0.48507 -0.36754,1.01423 -0.43568,1.17592 -0.0681,0.16169 -0.16434,0.39982 -0.21377,0.52917 -0.0494,0.12935 -0.17464,0.42839 -0.27825,0.66453 -0.1036,0.23614 -0.18838,0.46005 -0.18838,0.49758 0,0.0538 -0.82129,1.8302 -1.02578,2.21868 -0.09,0.17101 0.32994,0.0838 1.58259,-0.3285 z M -1.9220365,333.7666 c 0.78921,-1.58966 1.14281998,-2.8688 0.94380998,-3.41406 -0.0641,-0.17573 -0.18275998,-0.55763 -0.26359998,-0.84867 -0.49608,-1.786 -1.90132,-5.29166 -2.12116,-5.29166 -0.0473,0 -0.12048,0.48948 -0.16261,1.08773 -0.0421,0.59825 -0.1327,1.34036 -0.20128,1.64913 l -0.12469,0.56141 0.29934,0.61452 c 0.87827,1.80302 1.25913,3.92642 1.04353,5.81799 -0.0534,0.4689 -0.0582,0.85255 -0.0107,0.85255 0.0476,0 0.31637,-0.46302 0.59733,-1.02894 z m -3.02418,-4.55671 c 0.92733,-1.96465 1.22104,-5.07156 0.81272,-8.59726 -0.2099,-1.81241 -0.17643,-4.11667 0.0681,-4.6907 0.0827,-0.19403 0.20359,-0.48507 0.26872,-0.64676 0.24368,-0.60498 0.61295,-1.25651 1.11308,-1.96392 0.72873,-1.03076 2.53108998,-2.8998 3.38156998,-3.5067 0.71186002,-0.50797 2.26415002,-1.11457 2.85221002,-1.11457 0.49321,0 1.6988,0.35609 2.47881,0.73215 0.87212,0.42047 1.37649,0.9753 2.07991,2.28799 0.27091,0.50557 0.63309,1.17845 0.80483,1.49529 0.17174,0.31685 0.31225,0.70672 0.31225,0.86639 0,0.31339 0.19981,0.52947 1.9642795,2.12431 1.02169,0.92347 1.65165,1.41594 2.24534,1.75529 l 0.2589,0.14798 v -0.6184 c 0,-1.21939 -0.33996,-2.43254 -1.11242,-3.9697 -0.67406,-1.34134 -1.39059,-2.28738 -2.7745795,-3.66331 -1.97055,-1.95906 -2.34541,-2.66433 -2.34541,-4.41273 v -0.97859 h -0.44942 c -1.47455,0 -2.93314,-1.28833 -3.79428,-3.35139 -0.43176,-1.03438 -0.74124,-2.97376 -0.65465,-4.10235 0.095,-1.23793 0.51211,-3.15287 0.89945,-4.12913 0.17244,-0.43464 0.70182,-2.22873 0.83274,-2.82222 0.21825,-0.98932 0.27912,-1.15471 0.44533,-1.20991 0.12947,-0.043 0.14459,0.0905 0.0789,0.69594 -0.0951,0.87655 -0.13007,1.00667 -0.76964,2.86582 -0.267,0.77611 -0.54384,1.59632 -0.61522,1.82269 -0.30323,0.96167 -0.20743,4.91008 0.14123,5.82083 0.0495,0.12935 0.15368,0.44685 0.23146,0.70555 0.5349,1.77907 1.804,2.99862 3.12047,2.99862 h 0.2932 l -0.64412,-0.67572 c -0.35427,-0.37164 -0.64413,-0.74206 -0.64413,-0.82315 0,-0.0811 -0.0424,-0.14743 -0.0942,-0.14743 -0.1046,0 -0.5779,-0.92154 -0.75494,-1.46991 -0.0626,-0.19403 -0.17998,-0.77611 -0.26075,-1.29352 -0.24889,-1.59425 0.14464,-3.39993 1.14047,-5.23287 0.41443,-0.7628 1.98175,-3.12028 2.19008,-3.2942 0.0398,-0.0332 0.50892,-0.51624 1.0425,-1.07336 l 0.9701395,-1.01296 v -1.01925 -1.01925 l -0.2734195,-0.25924 c -0.15037,-0.14258 -0.39192,-0.35425 -0.53676,-0.47037 -0.29449,-0.23611 -0.28981,-0.58945 0.009,-0.64691 0.18028,-0.0347 0.7646595,0.48274 1.5120295,1.33886 0.16436,0.18828 1.06394,1.06618 1.99907,1.95088 0.93513,0.88471 1.79143,1.75783 1.9029,1.94028 l 0.20265,0.33173 0.003,-0.36276 c 0.004,-0.47162 -0.37725,-1.62527 -0.75652,-2.28878 -1.15652,-2.02323 -3.9919,-3.68061 -7.0602495,-4.12695 -1.34767,-0.19604 -4.37791,-0.25527 -5.29167,-0.10343 -2.37294002,0.3943 -3.77898,1.04813 -5.35724,2.49118 -0.83248,0.76117 -1.94838,2.7631 -2.44744,4.39074 -0.62783,2.04763 -0.85592,3.26435 -1.17933,6.2912 -0.32253,3.01856 -0.36679,3.51389 -0.36574,4.09309 0.002,0.88065 -0.47585,4.11192 -0.73312,4.96154 -0.322,1.06342 -0.77433,2.11342 -1.18243,2.74484 -0.24609,0.38075 -0.41966,0.72005 -0.3857,0.754 0.18997,0.18997 2.55209,-2.10387 3.42135,-3.32245 0.93066,-1.30466 1.35048,-2.44963 1.35048,-3.68312 0,-0.672 0.036,-0.8442 0.17639,-0.8442 0.3373,0 0.2192,2.19689 -0.17384,3.2338 -0.18892,0.49842 -0.77523,1.61497 -0.94648,1.80246 -0.22984,0.25163 -0.72338,0.94685 -0.88972,1.25329 -0.0707,0.13026 -0.2516,0.44851 -0.40199,0.70721 -0.42685,0.73428 -0.76465,1.48057 -0.93147,2.05787 -0.0841,0.29104 -0.19966,0.68259 -0.25679,0.8701 -0.14613,0.47963 -0.12951,3.33711 0.0238,4.08922 0.27956,1.37154 0.86442,3.52039 1.0582,3.88793 0.0592,0.11231 0.10765,0.285 0.10765,0.38377 0,0.0988 0.0514,0.27147 0.11425,0.38377 0.10211,0.1825 0.44518,1.24034 0.71455,2.20327 0.58513,2.0917 0.67794,2.47295 0.82103,3.37246 0.13886,0.87293 0.10215,3.23978 -0.0626,4.03587 l -0.073,0.35278 0.30499,-0.47037 c 0.16774,-0.2587 0.37992,-0.62912 0.4715,-0.82315 z m 2.64788,-18.84421 c -1.6e-4,-0.11318 0.16567,-0.60266 0.36851,-1.08773 0.48263,-1.15413 0.51739,-1.2527 0.6744,-1.91257 0.18817,-0.79082 0.16191,-3.70918 -0.0447,-4.9666 -0.0956,-0.58208 -0.16747,-1.27 -0.15962,-1.5287 l 0.0143,-0.47037 0.0984,0.47037 c 0.0541,0.2587 0.21315,0.94662 0.35342998,1.5287 0.31437,1.30451 0.38459,4.33162 0.12275,5.29167 -0.25363998,0.92996 -0.61570998,1.96076 -0.85707998,2.44004 -0.22972,0.45618 -0.56984,0.59643 -0.57035,0.23519 z m 0.29636,-12.7 c -0.16471,-0.88106 -0.19599,-2.68012 -0.0577,-3.32199 0.16193,-0.75192 0.57852,-1.66647 0.79056,-1.73557 0.27044998,-0.0881 0.29729998,0.33263 0.053,0.8308 -0.13301,0.27126 -0.29555,0.6784 -0.36121,0.90477 -0.20357,0.70191 -0.37814,2.57095 -0.29715,3.18147 0.0901,0.67912 -0.007,0.78593 -0.12747,0.14052 z m 11.8884,29.64641 1.0037995,-0.95962 -0.68207,-0.2552 c -0.3751295,-0.14035 -0.8206195,-0.2829 -0.9899695,-0.31677 l -0.3079,-0.0616 -0.1574,0.92234 c -0.0866,0.50728 -0.24923,1.17407 -0.36147,1.48174 l -0.20406,0.55941 0.34764,-0.20536 c 0.19119,-0.11294 0.79934,-0.63718 1.35143,-1.16496 z m 9.9317095,-6.88402 c 0.0852,-0.20567 0.32973,-0.603 0.54343,-0.88296 0.2137,-0.27996 0.38775,-0.62762 0.3868,-0.77258 -9.6e-4,-0.14496 0.19487,-0.73981 0.43517,-1.3219 0.48408,-1.1726 2.16051,-4.51195 2.51507,-5.00988 0.12457,-0.17495 0.2265,-0.37607 0.2265,-0.44693 0,-0.0709 0.0529,-0.12884 0.11759,-0.12884 0.0647,0 0.11759,-0.0519 0.11759,-0.11531 0,-0.21135 1.89193,-3.00383 2.23231,-3.29487 0.0378,-0.0323 0.3296,-0.42921 0.6484,-0.88195 0.3188,-0.45273 0.67783,-0.92898 0.79785,-1.05833 l 0.2182,-0.23518 -0.2228,-0.0349 c -0.2321,-0.0363 -2.55154,0.94934 -2.73322,1.16152 -0.0323,0.0378 -0.37629,0.25175 -0.76435,0.47551 -0.87081,0.50212 -1.80713,0.80851 -2.47076,0.80851 -0.42743,0 -0.55765,-0.0617 -0.86203,-0.40836 -0.41307,-0.47045 -0.60497,-1.0589 -0.6059,-1.85792 -5.7e-4,-0.4827 -0.0628,-0.63073 -0.44506,-1.05833 -0.5954,-0.66607 -0.77237,-1.0476 -0.70342,-1.51651 0.0373,-0.25393 -0.0263,-0.56454 -0.1809,-0.88292 l -0.2385,-0.49118 0.19565,-0.51229 c 0.1076,-0.28176 0.19564,-0.68328 0.19564,-0.89227 0,-0.39065 -0.25151,-0.62013 -1.09062,-0.99507 -0.17945,-0.0802 -0.39081,-0.29131 -0.46968,-0.46917 -0.16935,-0.38189 -0.27998,-0.39637 -0.67396,-0.0882 -0.16168,0.12648 -0.36747,0.23113 -0.4573,0.23257 -0.12759,0.002 -0.14949,0.15053 -0.1001,0.67877 0.0348,0.37189 0.0748,0.72908 0.0891,0.79375 0.0142,0.0647 0.0196,0.47264 0.0119,0.90659 -0.0119,0.67483 -0.0555,0.82796 -0.30129,1.05833 -0.34855,0.3267 -0.53578,0.79391 -0.53578,1.33698 0,0.73739 -0.59655,1.38717 -1.6463,1.79322 -0.51052,0.19747 -2.27439,0.20625 -3.09763,0.0154 -0.80571,-0.18677 -2.1671895,-0.85909 -2.6461195,-1.30669 -0.21184,-0.19798 -0.41892,-0.32621 -0.46017,-0.28496 -0.12339,0.1234 0.15792,1.50222 0.42701,2.0929 0.32494,0.7133 1.20113,1.86485 2.4399095,3.2067 0.54513,0.59048 1.20674,1.36143 1.47024,1.71321 0.26349,0.35178 0.65497,0.81635 0.86993,1.03237 0.21497,0.21602 0.85457,1.06269 1.42134,1.88148 0.56676,0.81879 1.07353,1.50635 1.12613,1.52791 0.0526,0.0216 0.0956,0.0871 0.0956,0.14565 0,0.0585 0.0751,0.19966 0.16679,0.31358 0.0917,0.11392 0.53619,0.67315 0.98768,1.24274 0.89097,1.12403 2.55543,2.90374 2.71569,2.90374 0.0547,0 0.16916,-0.16828 0.25435,-0.37395 z m -2.61081,-0.89017 c -0.0888,-0.11318 -0.18991,-0.23224 -0.22476,-0.26458 -0.14728,-0.13665 -1.45365,-1.90411 -2.51721,-3.40567 -0.31982,-0.45154 -0.60041,-0.80208 -0.62352,-0.77896 -0.0231,0.0231 0.0197,0.50556 0.0951,1.0721 0.0754,0.56654 0.11285,1.2822 0.0832,1.59037 l -0.0538,0.56029 1.01065,0.46852 c 2.30253,1.0674 2.53506,1.14642 2.23039,0.75793 z m 6.38392,-3.61597 c 0.29164,-0.38806 1.31774,-1.92264 2.28023,-3.41019 0.96249,-1.48754 1.79143,-2.72227 1.84208,-2.74382 0.0506,-0.0216 0.0921,-0.0928 0.0921,-0.15824 0,-0.0655 0.0999,-0.2595 0.22205,-0.43117 0.40889,-0.57479 2.11518,-3.43218 2.18966,-3.66687 0.0923,-0.29086 0.003,-0.28532 -0.61143,0.0381 -0.34258,0.18024 -0.67934,0.52809 -1.10483,1.14121 -0.64717,0.93257 -1.8833,2.60549 -1.99847,2.70463 -0.1383,0.11905 -1.50539,2.21196 -2.22754,3.41018 -0.40928,0.6791 -1.10783,1.97556 -1.55233,2.88102 -0.4445,0.90547 -0.85852,1.73819 -0.92005,1.85049 -0.50641,0.92432 0.69615,-0.16176 1.78853,-1.6153 z m -0.39774,-8.04395 c 0.37004,-0.1879 0.85801,-0.46618 1.08438,-0.61841 0.74715,-0.50245 2.89131,-1.51944 4.17453,-1.98001 2.18749,-0.78512 2.47834,-0.93314 2.62378,-1.33535 0.0768,-0.21241 0.13965,-0.48452 0.13965,-0.60469 0,-0.12017 0.0493,-0.38099 0.10962,-0.57961 0.0603,-0.19862 0.16338,-0.5728 0.22907,-0.8315 0.69779,-2.74778 2.30905,-6.0512 3.29339,-6.75211 0.57436,-0.40898 0.86278,-0.31191 1.27741,0.42991 0.17667,0.31609 0.19212,1.22818 0.0293,1.72774 -0.40343,1.23754 -0.58124,1.87682 -0.53491,1.92316 0.0933,0.0934 0.72412,-0.48611 1.15004,-1.0565 0.53104,-0.71117 0.77115,-2.00923 0.57146,-3.08945 -0.19283,-1.04311 -0.15983,-1.71356 0.10577,-2.14919 0.33915,-0.55623 0.83524,-0.56169 1.31136,-0.0144 0.32813,0.37717 0.37341,0.36145 0.50167,-0.17421 0.11747,-0.49057 0.41858,-0.8991 0.6627,-0.8991 0.11721,0 0.31801,0.13334 0.4462,0.29631 0.20717,0.26337 0.26694,0.28088 0.5377,0.15752 0.22357,-0.10187 0.37939,-0.10473 0.5856,-0.0108 l 0.28097,0.12802 0.0718,-0.35903 c 0.0395,-0.19746 0.0718,-0.90861 0.0718,-1.58032 0,-4.85743 -1.98195,-8.74641 -5.26446,-10.32995 -1.32104,-0.63729 -2.20167,-0.81224 -4.08415,-0.81136 -1.83105,8.5e-4 -3.00327,0.18165 -4.94089,0.76205 -0.45163,0.13528 -0.95344,0.27516 -1.11513,0.31083 -0.16169,0.0357 -0.73281,0.2952 -1.26916,0.57672 -0.53635,0.28151 -1.07946,0.51185 -1.20692,0.51185 -0.12746,0 -0.32363,0.0463 -0.43593,0.10288 -0.11231,0.0566 -0.73336,0.35709 -1.38012,0.66777 -0.8704,0.41812 -1.34914,0.73784 -1.84262,1.23056 -0.89393,0.89256 -1.0384,1.2756 -1.0384,2.75317 0,1.3031 0.0819,1.52087 0.61736,1.64078 0.17786,0.0398 0.46097,0.10607 0.62913,0.14718 0.28737,0.0703 1.34758,-0.10487 1.86971,-0.30885 0.12936,-0.0505 0.47331,-0.15699 0.76436,-0.23659 0.29104,-0.0796 0.68258,-0.19146 0.87009,-0.24859 0.18751,-0.0571 0.58519,-0.10387 0.88374,-0.10387 h 0.54282 l 0.21176,-0.59623 c 0.27359,-0.77033 0.88197,-1.43592 1.66075,-1.81694 0.50807,-0.24857 0.75625,-0.2971 1.37119,-0.26809 l 0.75085,0.0354 0.0372,0.32338 0.0372,0.32338 h -0.71496 c -0.39323,0 -0.80685,0.0467 -0.91916,0.10387 -0.1123,0.0571 -0.35125,0.17273 -0.531,0.25689 -0.50293,0.23549 -1.23322,1.01036 -1.3186,1.39912 -0.0662,0.30145 -0.0165,0.4017 0.36415,0.73509 0.75598,0.66205 1.85436,2.03293 2.20609,2.75341 0.18528,0.37952 0.38372,0.78193 0.44097,0.89423 0.0573,0.11231 0.10411,0.31787 0.10411,0.45682 0,0.59385 0.29278,1.76712 0.4952,1.98438 0.31636,0.33958 0.83733,0.3082 1.03566,-0.0624 0.22462,-0.41972 0.82946,-0.76033 1.35015,-0.76033 1.11485,0 1.95109,2.06259 1.43581,3.54142 -0.0815,0.23386 -0.3651,0.71011 -0.63025,1.05833 -0.26515,0.34821 -0.5435,0.75218 -0.61856,0.8977 -0.19652,0.38101 -0.36338,0.32553 -0.36338,-0.12083 0,-0.32754 0.21967,-0.81163 0.46545,-1.0257 0.46846,-0.40803 0.70973,-0.88639 0.70144,-1.39073 l -0.009,-0.54955 -0.13796,0.41249 c -0.21753,0.65045 -0.38118,0.86688 -0.59376,0.7853 -0.24836,-0.0953 -0.24307,-0.4853 0.0125,-0.91788 0.22044,-0.37318 0.14602,-0.62341 -0.25579,-0.86001 -0.15807,-0.0931 -0.22702,-0.087 -0.26722,0.0236 -0.0889,0.24467 -0.39701,0.50472 -0.51303,0.43301 -0.0595,-0.0367 -0.11023,-0.26213 -0.11282,-0.50085 l -0.005,-0.43403 -0.17604,0.32453 c -0.14503,0.26737 -0.23222,0.31247 -0.49506,0.25605 -1.16522,-0.25008 -1.48731,-0.64361 -1.67832,-2.05049 -0.23935,-1.76301 -0.73279,-2.64333 -2.41241,-4.30384 -0.69398,-0.68608 -1.50405,-0.74365 -3.22505,-0.2292 -1.52628,0.45625 -1.9758,0.54664 -2.58134,0.51904 l -0.64107,-0.0292 -0.20566,1.16554 c -0.11311,0.64104 -0.24181,1.58 -0.28599,2.08659 l -0.0804,0.92105 0.3391,-0.0813 c 0.18651,-0.0447 0.42823,-0.12685 0.53716,-0.18258 0.28775,-0.14721 2.10918,-0.1242 2.57722,0.0326 0.60743,0.20345 1.19795,0.80686 0.78963,0.80686 -0.0766,0 -0.38087,-0.11731 -0.67616,-0.26069 -0.74684,-0.36262 -1.95079,-0.35466 -2.80055,0.0185 -0.33955,0.14912 -0.61736,0.30575 -0.61736,0.34807 0,0.0423 0.0742,0.18286 0.16486,0.31232 0.0907,0.12945 0.22444,0.45665 0.29727,0.7271 0.11091,0.41189 0.19566,0.50919 0.52202,0.5993 0.5527,0.15261 1.69585,-0.0628 2.1536,-0.4058 0.67582,-0.50641 0.87019,-0.28147 0.26037,0.30131 -0.49969,0.47752 -1.06232,0.64936 -2.12143,0.64794 l -0.89877,-0.001 -0.21836,0.41332 c -0.1201,0.22732 -0.54909,0.95642 -0.95331,1.62022 -0.77398,1.27097 -0.86951,1.59653 -0.52291,1.78202 0.16176,0.0866 0.24566,0.0597 0.35377,-0.11345 0.20257,-0.32436 0.39843,-0.28328 0.88022,0.18463 0.56732,0.55097 0.96997,0.55691 1.07148,0.0158 0.0966,-0.51481 -0.008,-0.76556 -0.35503,-0.8527 -0.37532,-0.0942 -0.36542,-0.39781 0.013,-0.39781 0.72732,0 1.04684,1.13786 0.51087,1.81924 -0.21117,0.26846 -0.31837,0.31173 -0.64219,0.25918 l -0.38871,-0.0631 0.0613,0.31525 c 0.0337,0.17338 -0.0223,0.54963 -0.12438,0.83609 -0.1482,0.41573 -0.15556,0.54105 -0.0365,0.6209 0.37335,0.25032 1.37596,0.67885 1.8837,0.80513 0.30721,0.0764 0.5576,0.19878 0.55641,0.27194 -0.001,0.0732 -0.34514,0.50033 -0.76435,0.94926 -0.41921,0.44892 -0.7622,0.85255 -0.7622,0.89694 0,0.0444 0.0794,0.1466 0.17639,0.22711 0.12326,0.1023 0.17639,0.3737 0.17639,0.90103 0,0.80536 0.28697,1.56755 0.67533,1.79372 0.36596,0.21312 0.96109,0.1359 1.65048,-0.21416 z m 16.20589,-18.49801 c -0.19798,-1.84541 -0.8929,-3.16536 -2.03958,-3.87404 -0.28051,-0.17337 -0.38438,-0.31626 -0.35894,-0.4938 0.0576,-0.40196 0.39499,-0.35775 0.92515,0.12122 1.10269,0.99621 1.70344,2.35694 1.77693,4.02481 0.0492,1.11724 -0.18883,1.29118 -0.30356,0.22181 z m -25.18731,16.28011 c 0.75137,-0.26952 1.02736,-0.64847 1.07321,-1.4736 0.0199,-0.35734 0.0934,-0.75675 0.16342,-0.88759 0.17777,-0.33217 0.1918,-0.31424 -0.46803,-0.59809 -0.7072,-0.30423 -0.72868,-0.53126 -0.0845,-0.89263 0.23944,-0.13431 0.59729,-0.38849 0.79522,-0.56486 0.29415,-0.26209 0.33796,-0.36164 0.23983,-0.545 -0.066,-0.12339 -0.12007,-0.38657 -0.12007,-0.58485 0,-0.27997 -0.0516,-0.36051 -0.23105,-0.36051 -0.49119,0 -0.6633,-1.15361 -0.24806,-1.66267 l 0.22645,-0.27761 0.083,0.21329 c 0.0456,0.1173 0.0231,0.34469 -0.0501,0.5053 -0.34977,0.76766 0.0119,1.04418 0.6421,0.49088 0.36122,-0.31716 0.45503,-0.35022 0.64935,-0.22886 0.18526,0.11569 0.23982,0.10879 0.29594,-0.0375 0.11317,-0.29491 -0.0638,-0.77281 -0.47555,-1.28431 -0.2134,-0.26509 -0.5587,-0.79948 -0.76733,-1.18753 -0.20863,-0.38806 -0.4216,-0.74953 -0.47325,-0.80328 -0.0516,-0.0537 -0.30977,0.0124 -0.5736,0.14699 -0.5317,0.27126 -1.25979,0.31712 -1.71823,0.10824 -0.49551,-0.22576 -0.34247,-0.3339 0.47257,-0.3339 0.42464,0 0.87891,-0.0572 1.00949,-0.12706 0.26816,-0.14351 0.57028,-0.78202 0.57028,-1.20526 v -0.28153 l -0.67616,-0.10886 c -1.02829,-0.16555 -1.51745,-0.006 -1.89532,0.61682 -0.34392,0.56719 -0.48593,0.64448 -0.48593,0.26444 0,-0.36491 0.55363,-1.03768 1.01126,-1.2289 0.21576,-0.0901 0.7703,-0.16391 1.23231,-0.16391 h 0.84001 l -0.0775,-0.41314 c -0.16164,-0.86162 -0.75238,-1.93228 -1.4443,-2.61763 -0.75719,-0.75002 -2.36111,-2.18251 -2.50551,-2.23773 -0.0512,-0.0196 -0.13118,0.13742 -0.17764,0.34892 -0.14762,0.67211 -0.34672,0.94389 -2.0533695,2.80292 -0.56407,0.61442 -1.15828,1.27587 -1.32049,1.4699 -0.32868,0.39317 -1.38439,2.00156 -1.38439,2.10914 0,0.0379 -0.0976,0.29321 -0.21699,0.56738 -0.92771,2.13128 -0.92169,4.27845 0.0174,6.20172 0.24325,0.49817 1.44856,1.84424 1.85503,2.07166 0.10205,0.0571 0.28726,0.3121 0.41158,0.56669 0.60053,1.2298 4.1857095,2.22265 5.8588395,1.62249 z m 6.51685,-1.50657 c 0.27035,-0.23141 0.49154,-0.46177 0.49154,-0.51191 0,-0.1464 -1.21875,0.003 -1.39696,0.17157 -0.22286,0.21046 -0.0766,0.76107 0.20211,0.76107 0.11647,0 0.43297,-0.18933 0.70331,-0.42073 z m -0.73626,-1.17051 c -0.29688,-0.22454 -0.54784,-0.2225 -0.46102,0.004 0.0372,0.097 0.20754,0.17471 0.37848,0.17265 l 0.3108,-0.004 z m -3.91415,-0.65792 c -0.0801,-0.0801 -0.26383,-0.0992 -0.46449,-0.0483 l -0.33199,0.0842 0.35278,0.15064 c 0.38172,0.163 0.67144,0.0412 0.4437,-0.18657 z m 17.0188,-7.64024 c 0,-0.24693 -0.37199,-0.91133 -0.54808,-0.9789 -0.0974,-0.0374 -0.15806,-0.0282 -0.13474,0.0203 0.0233,0.0485 0.14604,0.31317 0.27275,0.58804 0.21956,0.47632 0.41007,0.64847 0.41007,0.37055 z m -0.855,-1.11775 c -0.0391,-0.0391 -0.14049,-0.0433 -0.22538,-0.009 -0.0938,0.0375 -0.0659,0.0654 0.0711,0.0711 0.12396,0.005 0.19341,-0.0227 0.15434,-0.0618 z"
       id="path32" /></g></svg>
