<?xml version="1.0" encoding="UTF-8" standalone="no"?>
<!-- Created with Inkscape (http://www.inkscape.org/) -->

<svg
   width="93.595963mm"
   height="89.759468mm"
   viewBox="0 0 93.595972 89.759469"
   version="1.1"
   id="svg1"
   xml:space="preserve"
   xmlns="http://www.w3.org/2000/svg"
   xmlns:svg="http://www.w3.org/2000/svg"><defs
     id="defs1" /><g
     id="layer1"
     transform="translate(-147.53927,-1615.8067)"><path
       style="fill:#333333;stroke-width:2.5"
       d="m 190.8648,1703.6819 c -4.2408,-2.1318 -5.1947,-3.3743 -4.32698,-5.6355 0.33793,-0.8805 0.63823,-0.7198 1.61488,0.8655 1.82585,2.9632 3.47392,4.1325 6.0194,4.2707 3.64322,0.1975 3.69135,0.12 1.39517,-2.249 -1.25132,-1.291 -1.8854,-2.4175 -1.49627,-2.658 0.60642,-0.3747 7.7445,6.084 7.25115,6.5613 -0.11275,0.1075 -1.5442,0.3797 -3.1813,0.6022 -2.51778,0.3418 -3.6393,0.07 -7.27605,-1.7572 z m 4.27447,-11.4218 c 0.112,-2.1827 0.53578,-8.1312 0.9415,-13.2185 0.49915,-6.2592 0.5234,-9.899 0.075,-11.2575 l -0.66267,-2.008 -5.12535,0.23 c -8.6472,0.3888 -18.6502,3.9005 -23.18673,8.1403 -2.85905,2.672 -2.70017,0.911 0.18425,-2.043 1.98198,-2.0298 2.31448,-2.8338 2.4214,-5.855 0.1125,-3.1765 0.36028,-3.7045 2.6635,-5.676 1.39673,-1.1958 2.53953,-2.4998 2.53953,-2.8983 0,-1.5685 1.34552,-1.404 3.43305,0.4198 3.56892,3.118 10.03557,6.054 13.33427,6.054 3.3489,0 3.49158,-0.1425 6.09623,-6.0755 l 1.94112,-4.422 2.97658,-0.2075 c 3.45792,-0.2425 4.1063,-1.7955 1.08647,-2.603 -2.21685,-0.593 -4.51595,-2.495 -4.0084,-3.3163 0.54933,-0.8887 3.0331,-0.676 4.19275,0.3593 1.12008,1 10.18975,1.7182 11.03408,0.874 0.2658,-0.2658 0.9263,-0.4833 1.46775,-0.4833 0.86795,0 0.8668,0.1375 -0.01,1.1575 -0.54678,0.6368 -1.17163,1.6595 -1.3885,2.273 -0.25543,0.7225 -1.2793,1.1885 -2.90625,1.323 -3.54228,0.2925 -3.72735,2.0513 -0.3232,3.0713 4.0257,1.2062 5.37242,0.9507 8.30347,-1.574 1.4993,-1.2918 3.09808,-2.6428 3.55283,-3.0028 1.18812,-0.9402 1.01802,-3.498 -0.33073,-4.973 -0.63665,-0.6965 -2.34817,-2.145 -3.8034,-3.2192 -1.4552,-1.0743 -3.03915,-2.336 -3.5199,-2.804 -0.48072,-0.4678 -1.695,-0.8508 -2.69835,-0.8508 -1.46642,0 -1.81397,-0.292 -1.77175,-1.4882 0.0813,-2.3063 -2.53655,-2.332 -4.55575,-0.045 -1.14832,1.3005 -1.608,2.5355 -1.52067,4.0855 0.0865,1.534 -0.27033,2.5107 -1.15265,3.156 -1.1485,0.8397 -1.33633,0.7822 -1.85615,-0.568 -0.3181,-0.8263 -0.6377,-1.8443 -0.71025,-2.2623 -0.50953,-2.9367 -5.32323,-3.933 -7.53455,-1.5595 -1.0548,1.1323 -1.3983,1.1943 -2.4314,0.4388 -1.10185,-0.8058 -0.95895,-0.9778 1.69867,-2.045 1.62708,-0.6535 4.4998,-1.1453 6.53976,-1.1198 3.56414,0.045 4.72322,-0.35 8.12455,-2.7657 1.67257,-1.188 1.71089,-1.1785 5.21379,1.302 1.94085,1.3745 5.56646,4.1275 8.05691,6.118 3.93882,3.148 4.88564,3.609 7.27604,3.5422 l 2.74795,-0.077 -2.1742,0.7155 c -2.0044,0.6595 -2.1465,0.89 -1.81922,2.9493 0.29565,1.8602 0.116,2.3222 -1.07385,2.7622 -2.55795,0.9463 0.18675,1.3013 4.08105,0.528 4.04192,-0.803 4.59945,-1.2755 4.61412,-3.9105 0.0125,-2.081 0.4835,-2.1917 3.6694,-0.8605 1.99661,0.8343 2.29386,1.2578 2.29386,3.2683 0,1.2702 -0.30971,2.5012 -0.68826,2.7352 -0.37854,0.2325 -1.44017,1.6165 -2.3592,3.0723 -1.10352,1.748 -2.66912,3.0885 -4.6105,3.9472 -3.12545,1.3825 -4.47097,2.9825 -5.2078,6.193 -0.68967,3.005 -6.16805,13.7398 -8.38385,16.428 -2.28335,2.77 -2.96869,2.9368 -14.78227,3.5975 l -8.58135,0.4798 -0.79348,3.9687 -0.7935,3.9688 z m -18.51885,-28.842 c 2.66428,-2.3392 2.88015,-3.2435 1.04755,-4.388 -1.14187,-0.713 -1.5676,-0.468 -3.69455,2.1278 -3.61452,4.411 -1.68205,6.0612 2.647,2.2602 z m 11.97918,30.3573 c -1.7901,-8.4875 -2.3458,-15.3845 -1.13203,-14.05 1.51755,1.6685 3.3435,14.3962 2.16943,15.1217 -0.41408,0.256 -0.85303,-0.1975 -1.0374,-1.0717 z m -7.65668,-12.174 c 0,-0.756 7.3761,-7.6518 7.76678,-7.2613 0.97307,0.9733 -1.48733,4.2138 -4.47375,5.8925 -1.81118,1.0183 -3.29303,1.634 -3.29303,1.3688 z m -32.32867,-8.3258 c -0.0455,-3.1652 0.242,-7.3325 0.63907,-9.2602 0.9219,-4.4768 3.72915,-13.7925 4.53868,-15.0618 1.39467,-2.1865 1.1799,0.04 -0.5745,5.954 -2.61535,8.817 -3.35588,12.1525 -3.41215,15.3685 -0.027,1.541 -0.28738,4.141 -0.57868,5.7783 -0.46577,2.6177 -0.5396,2.2827 -0.61242,-2.7788 z m 15.29612,-4.788 c -1.98897,-0.9147 -1.90277,-1.9412 0.1205,-1.4332 1.27753,0.3205 1.70435,0.097 2.07353,-1.086 0.63625,-2.0388 2.9324,-3.464 2.9324,-1.8203 0,0.3638 -0.5209,0.685 -1.15755,0.7138 -0.69153,0.03 -0.82468,0.1875 -0.33073,0.3857 1.3539,0.5463 0.93928,2.609 -0.66147,3.2905 -0.9716,0.4138 -2.00495,0.3963 -2.97655,-0.05 z m -9.26967,-1.465 c -1.83263,-0.9035 -3.56038,-3.746 -2.71603,-4.4685 0.13475,-0.115 2.27823,-0.4097 4.76348,-0.6545 4.90685,-0.4835 5.69897,0.48 1.0417,1.2668 l -2.70095,0.4562 1.72147,1.797 c 0.94683,0.9883 1.51888,1.9993 1.27125,2.247 -0.62415,0.6243 -0.92382,0.567 -3.38092,-0.644 z m 13.76397,-5.2695 c -0.015,-0.7715 1.75408,-4.328 3.93395,-7.9035 2.17985,-3.5752 4.14775,-7.4832 4.37308,-8.6842 0.51377,-2.7388 1.5854,-2.8585 1.5854,-0.1775 0,2.777 -3.82408,10.0302 -8.88128,16.8452 -0.9754,1.3143 -0.98187,1.3138 -1.01115,-0.08 z m -5.96057,-0.085 c -0.0125,-0.4547 0.2425,-0.8267 0.56582,-0.8267 0.32333,0 0.78965,-1.0758 1.0363,-2.3905 0.7455,-3.974 4.05683,-13.5368 6.33615,-18.2983 1.18028,-2.4655 1.971,-4.6577 1.75715,-4.8717 -0.21375,-0.2125 -2.62627,1.915 -5.36097,4.7307 l -4.97218,5.1195 -5.4799,-0.8197 c -7.49237,-1.1208 -8.7872,-1.5578 -8.7872,-2.9648 0,-1.3157 5.6692,-3.533 9.2368,-3.6125 3.1849,-0.07 0.7172,1.59 -3.7883,2.55 -4.55637,0.9708 -4.383,2.0363 0.33135,2.0363 1.86265,0 4.3784,0.3587 5.59058,0.797 l 2.20392,0.797 4.97273,-5.2378 c 2.73502,-2.8805 5.63392,-6.65 6.442,-8.3765 1.34472,-2.873 2.46145,-4.058 2.46145,-2.612 0,0.3245 1.34237,0.295 3.03755,-0.067 2.40787,-0.5135 3.63112,-0.4212 5.90102,0.4458 3.72558,1.4227 4.08865,1.9487 4.48398,6.4965 0.1825,2.1005 0.73465,4.3142 1.22685,4.9195 0.7913,0.973 0.74177,1.0405 -0.42805,0.582 -4.30715,-1.6875 -12.43128,-3.2235 -14.04615,-2.6558 -2.17243,0.764 -4.535,5.3018 -7.80375,14.9883 -2.14168,6.3467 -4.85863,11.469 -4.91715,9.2702 z m 25.61897,-6.4092 c -0.99525,-0.519 -2.4245,-1.3745 -3.17607,-1.901 -1.87903,-1.3163 -6.16313,-6.393 -5.74638,-6.8098 0.1865,-0.1875 2.2122,1.332 4.50133,3.3745 2.67965,2.391 5.1643,3.9818 6.9761,4.4663 1.54772,0.414 2.66532,0.9932 2.48355,1.2875 -0.5146,0.8325 -3.044,0.623 -5.03853,-0.4175 z m 6.9348,-3.182 c 0.17,-1.1823 0.7169,-4.1588 1.2154,-6.6145 0.851,-4.1923 1.0159,-4.4648 2.70083,-4.4648 2.5095,0 2.77655,0.8735 0.79405,2.5973 -1.155,1.0042 -1.58193,1.9055 -1.34028,2.8297 0.195,0.7458 -0.0875,2.0308 -0.62785,2.8553 -0.61205,0.9342 -0.81935,2.1492 -0.54985,3.2232 0.36875,1.469 0.216,1.7235 -1.03437,1.7235 -1.27748,0 -1.42708,-0.2775 -1.15793,-2.1497 z m 14.71848,-12.4023 c 0.22475,-0.3637 0.54007,-0.6615 0.7005,-0.6615 0.1605,0 0.2917,0.2978 0.2917,0.6615 0,0.3638 -0.31523,0.6615 -0.7005,0.6615 -0.38528,0 -0.51653,-0.2977 -0.2917,-0.6615 z m -47.39623,-7.1107 c 1.0458,-2.0918 2.8863,-6.3333 4.08998,-9.4258 1.20367,-3.0922 2.47235,-5.9945 2.81925,-6.4492 1.5252,-1.9993 5.99535,-0.467 9.48447,3.251 1.8138,1.9327 3.94933,5.1827 3.40553,5.1827 -0.10625,0 -2.09923,-1.786 -4.42903,-3.9687 -6.26345,-5.8685 -6.9097,-5.6405 -10.3149,3.638 -1.77822,4.8452 -5.51417,11.5755 -6.42552,11.5755 -0.29218,0 0.32442,-1.7115 1.37022,-3.8035 z"
       id="path81" /></g></svg>
