<?xml version="1.0" encoding="UTF-8" standalone="no"?>
<!-- Created with Inkscape (http://www.inkscape.org/) -->

<svg
   width="74.683136mm"
   height="158.9021mm"
   viewBox="0 0 74.683144 158.9021"
   version="1.1"
   id="svg1"
   xml:space="preserve"
   xmlns="http://www.w3.org/2000/svg"
   xmlns:svg="http://www.w3.org/2000/svg"><defs
     id="defs1" /><g
     id="layer1"
     transform="translate(450.68328,-461.44673)"><path
       style="fill:#666666"
       d="m -398.21584,620.20116 c -0.12473,-0.15028 -0.28051,-0.17462 -0.7333,-0.11455 -0.43067,0.0571 -0.62582,0.0315 -0.77775,-0.1022 -0.23341,-0.20539 -0.91907,-0.3424 -1.64763,-0.32925 -0.39433,0.007 -0.56366,-0.0552 -0.77783,-0.2863 -0.22149,-0.23899 -0.38518,-0.29541 -0.85715,-0.29541 -0.67106,0 -0.97392,-0.24214 -1.20467,-0.96315 -0.27292,-0.85277 0.3023,-1.84858 1.37054,-2.37264 0.24446,-0.11993 0.53636,-0.26511 0.64867,-0.32261 0.1123,-0.0575 0.31074,-0.10456 0.44097,-0.10456 0.33641,0 0.30193,-0.12699 -0.27833,-1.02527 -1.33258,-2.0629 -2.46002,-4.38295 -3.13083,-6.44261 -0.39879,-1.22445 -0.45943,-1.46729 -0.77805,-3.11545 -0.23685,-1.22522 -0.27052,-3.96295 -0.0629,-5.11528 0.34769,-1.92981 0.98705,-4.35795 1.78041,-6.76157 0.29326,-0.88848 0.73988,-2.33436 1.08972,-3.52778 0.0664,-0.22637 0.16225,-0.51741 0.21309,-0.64676 0.0509,-0.12935 0.1173,-0.36748 0.14768,-0.52917 0.0624,-0.33193 0.71762,-2.69002 0.90092,-3.24214 0.0659,-0.19862 0.11989,-0.4507 0.11989,-0.56016 0,-0.10947 0.0482,-0.29092 0.10704,-0.40323 0.17288,-0.32977 1.15227,-4.73517 1.42687,-6.41821 0.0617,-0.37795 0.14074,-0.73348 0.17573,-0.79008 0.035,-0.0566 -0.23621,-0.72634 -0.60263,-1.4883 -0.36643,-0.76196 -0.79765,-1.67642 -0.95827,-2.03214 -0.16063,-0.35572 -0.44501,-0.98118 -0.63196,-1.38992 -0.18696,-0.40873 -0.33992,-0.7665 -0.33992,-0.79503 0,-0.0285 -0.112,-0.30265 -0.24887,-0.60915 -0.42473,-0.95109 -0.53934,-1.22182 -1.10707,-2.61516 -0.30306,-0.74377 -0.65112,-1.5743 -0.77347,-1.84563 -0.12234,-0.27132 -0.22245,-0.52325 -0.22245,-0.55985 0,-0.0366 -0.1111,-0.3173 -0.2469,-0.62381 -0.1358,-0.3065 -0.29245,-0.66311 -0.34812,-0.79247 -0.0557,-0.12935 -0.34353,-0.79081 -0.6397,-1.4699 -0.29617,-0.6791 -0.58403,-1.34056 -0.6397,-1.46991 -0.53076,-1.23331 -1.45301,-3.24602 -2.47861,-5.40926 -0.33729,-0.71144 -0.75954,-1.61102 -0.93833,-1.99908 -0.3548,-0.77008 -1.8441,-3.84938 -3.30556,-6.8346 -0.51044,-1.04264 -0.92808,-1.95617 -0.92808,-2.03007 0,-0.0739 -0.0597,-0.23004 -0.13279,-0.34699 -0.11178,-0.17899 -0.21879,-0.19845 -0.67616,-0.12301 -0.29885,0.0493 -0.97327,0.0928 -1.49872,0.0966 -0.59408,0.004 -1.14993,0.0814 -1.4699,0.20382 -0.64805,0.24787 -3.81736,0.29063 -4.80669,0.0648 -0.93886,-0.21427 -1.91788,-0.51827 -2.08726,-0.64814 -0.31313,-0.24006 -0.1525,0.0872 0.96182,1.95968 0.85532,1.43725 4.52848,7.03989 7.25631,11.068 1.35776,2.00495 2.50207,3.72385 2.54292,3.81977 0.0408,0.0959 0.30199,0.50017 0.58033,0.89834 0.27834,0.39816 0.50607,0.7544 0.50607,0.79164 0,0.0372 0.29104,0.51886 0.64676,1.07027 0.35572,0.5514 0.64676,1.02409 0.64676,1.05041 0,0.0263 0.20412,0.38399 0.45361,0.79482 0.62999,1.03742 1.33037,2.30559 2.02706,3.67036 l 0.59189,1.15949 -0.19889,0.4868 c -0.10938,0.26774 -0.24672,0.88368 -0.30519,1.36875 -0.0585,0.48507 -0.15016,1.2259 -0.20376,1.6463 -0.16712,1.31071 -0.58098,6.07765 -0.71465,8.23148 -0.16309,2.62801 -0.21613,4.54659 -0.29422,10.64213 -0.0348,2.71639 -0.11978,5.38868 -0.18886,5.93842 -0.34502,2.74602 -0.86232,4.65136 -1.73731,6.39896 -0.56173,1.12193 -1.06209,1.6949 -2.42829,2.78072 -0.45273,0.35981 -0.90035,0.80031 -0.9947,0.97888 l -0.17154,0.32469 0.27597,0.5202 c 0.24031,0.45299 1.11481,1.36361 2.01971,2.10313 0.44374,0.36265 4.32735,2.92839 5.04417,3.33248 0.35572,0.20053 1.42728,0.74968 2.38125,1.22034 l 1.73449,0.85574 v 0.32623 c 0,0.17942 -0.0602,0.32623 -0.13367,0.32623 -0.15991,0 -2.55929,-1.26175 -3.61191,-1.89938 -0.41084,-0.24886 -0.774,-0.45248 -0.80702,-0.45248 -0.0849,0 -3.37604,-2.18517 -3.57412,-2.37308 -0.09,-0.0853 -0.79095,-0.62781 -1.55777,-1.2055 -1.52991,-1.15257 -1.97599,-1.69579 -2.07105,-2.52202 l -0.0625,-0.54338 -0.35277,0.0207 c -0.19403,0.0114 -0.77612,0.0812 -1.29352,0.15524 -0.51741,0.074 -1.25824,0.17877 -1.6463,0.23282 -0.38805,0.054 -0.94368,0.13201 -1.23472,0.17326 -1.49307,0.21159 -2.52266,0.3123 -4.93229,0.48246 -1.45158,0.10251 -2.73133,0.23566 -2.84389,0.2959 -0.28878,0.15455 -1.59612,0.13632 -1.90354,-0.0265 -0.69871,-0.37014 -1.03251,-1.17492 -0.79094,-1.90691 0.1857,-0.56267 0.87789,-0.89683 1.85772,-0.89683 0.64215,0 1.72704,-0.28609 2.67451,-0.70526 0.12935,-0.0572 0.86486,-0.3289 1.63446,-0.60371 0.76961,-0.27482 1.5369,-0.61107 1.7051,-0.74724 0.1682,-0.13617 0.70269,-0.42217 1.18776,-0.63557 3.85101,-1.69418 4.70573,-2.39676 5.5233,-4.54017 0.23582,-0.61822 0.4669,-2.04117 0.83073,-5.11528 0.0651,-0.54974 0.17015,-1.3577 0.23352,-1.79547 0.0634,-0.43776 0.11471,-1.0463 0.11409,-1.35231 -6.2e-4,-0.30601 0.0512,-1.05909 0.11507,-1.67351 0.27642,-2.65744 0.38259,-5.61636 0.4831,-13.46436 0.11646,-9.09221 0.26128,-12.10229 0.68051,-14.14432 l 0.10338,-0.50359 -1.31564,-1.96586 c -0.72361,-1.08122 -2.20607,-3.28877 -3.29435,-4.90567 -3.9848,-5.92036 -7.11908,-10.93862 -7.11908,-11.39829 0,-0.0759 -0.46302,-0.43586 -1.02894,-0.79984 -2.24066,-1.44114 -4.17435,-4.04369 -4.78511,-6.4403 -0.10714,-0.42039 -0.2476,-0.93378 -0.31214,-1.14086 -0.11687,-0.37497 -0.16633,-4.31119 -0.0564,-4.48904 0.0318,-0.0514 0.14286,-0.50552 0.24689,-1.00919 0.17673,-0.85556 0.57951,-2.12956 0.93101,-2.9447 0.4806,-1.11458 0.9891,-2.20925 1.33828,-2.88102 0.9838,-1.89268 1.15901,-2.26455 1.4128,-2.99861 0.52125,-1.50768 0.4854,-3.67593 -0.10012,-6.05602 -0.0716,-0.29104 -0.1609,-0.68497 -0.19844,-0.8754 -0.0375,-0.19042 -0.32494,-0.82542 -0.63866,-1.41111 -0.31372,-0.58568 -1.12028,-2.17613 -1.79235,-3.53433 -1.1379,-2.29958 -1.37364,-2.78924 -2.09478,-4.35115 l -0.27157,-0.58818 -0.005,1.76941 c -0.004,1.59345 -0.0784,2.24328 -0.40808,3.5815 -0.0558,0.22636 -0.16512,0.67616 -0.24301,0.99953 -0.20821,0.86447 -0.7884,2.08652 -0.96161,2.02541 -0.18979,-0.067 -0.15201,-0.98291 0.0506,-1.22705 0.19144,-0.23068 0.2043,-2.2485 0.0168,-2.63763 -0.0735,-0.15257 -0.16454,-0.37335 -0.20229,-0.49063 -0.0992,-0.30824 -0.30547,-0.12536 -0.30547,0.27084 0,0.18574 -0.13661,0.77793 -0.30359,1.31598 -0.37402,1.20523 -0.47012,1.59341 -0.63522,2.56577 -0.253,1.49004 -0.37437,1.94769 -0.68611,2.58704 -0.17345,0.35571 -0.36827,0.63433 -0.43295,0.61914 -0.1631,-0.0383 -0.2189,-1.09404 -0.0659,-1.24703 0.17595,-0.17595 0.15486,-1.24503 -0.0391,-1.98281 -0.20906,-0.79518 -0.9625,-2.50358 -1.04515,-2.36986 -0.0345,0.0559 -0.2041,0.65696 -0.37684,1.33575 -0.2445,0.9608 -0.32627,1.61183 -0.36919,2.93925 -0.0787,2.43348 -0.33776,3.31569 -1.25899,4.28707 l -0.45058,0.4751 -0.16498,-0.22562 c -0.16975,-0.23215 -0.12518,-0.97743 0.0827,-1.38322 0.13947,-0.27222 0.12813,-2.80031 -0.0153,-3.41622 -0.0642,-0.27581 -0.19537,-0.84162 -0.29142,-1.25737 -0.096,-0.41575 -0.22069,-0.80198 -0.277,-0.85829 -0.0581,-0.0581 -0.13225,0.35877 -0.17147,0.96407 -0.17339,2.6763 -1.33993,4.32522 -3.31772,4.68964 -0.44636,0.0822 -0.96195,0.23838 -1.14577,0.34696 -0.29378,0.17354 -0.34836,0.17622 -0.4511,0.0222 -0.18737,-0.28099 -0.0311,-0.93288 0.28288,-1.17984 0.92994,-0.73149 1.02927,-2.54375 0.30908,-5.63943 -0.2309,-0.99254 -0.32504,-1.35222 -0.52319,-1.99907 -0.15145,-0.49438 -0.21643,-1.3394 -0.27582,-3.58658 -0.0427,-1.6169 -0.12385,-3.01138 -0.18027,-3.09885 -0.0779,-0.12076 -0.14212,-0.0783 -0.26684,0.17639 -0.0903,0.18448 -0.43128,0.69769 -0.75765,1.14045 l -0.59338,0.80503 -0.23728,-0.21473 c -0.2523,-0.22833 -0.25113,-0.40836 0.0105,-1.63051 0.0692,-0.32338 0.21193,-1.6463 0.31709,-2.93981 0.29286,-3.60235 0.0446,-6.17309 -0.88571,-9.17223 -0.33622,-1.08386 -0.61152,-2.15465 -0.82618,-3.21337 -0.27473,-1.35502 -0.11534,-5.4746 0.23845,-6.16304 0.0577,-0.11231 0.10494,-0.31146 0.10494,-0.44257 0,-0.13111 0.0464,-0.33026 0.10315,-0.44257 0.0567,-0.1123 0.16861,-0.41585 0.24861,-0.67456 0.45547,-1.47291 1.91827,-3.81996 3.28134,-5.26489 0.86097,-0.91268 2.41949,-2.1288 3.12515,-2.43859 0.50604,-0.22214 3.38399,-0.94447 3.75085,-0.94141 0.12086,10e-4 0.55711,0.11762 0.96945,0.25913 l 0.74971,0.25729 0.41342,-0.19715 c 0.22739,-0.10843 0.6378,-0.40334 0.91203,-0.65535 0.54761,-0.50324 1.28828,-0.9556 1.56465,-0.9556 0.34071,0 0.78627,0.40242 1.00151,0.90456 0.24084,0.56184 0.29051,0.58081 0.87812,0.33529 0.25252,-0.10551 0.70625,-0.15966 1.18187,-0.14104 l 0.772,0.0302 0.37245,0.43625 c 0.29118,0.34106 0.49735,0.45889 0.9449,0.54003 0.57858,0.10489 1.10733,0.41009 1.25226,0.72282 0.0435,0.0938 0.1453,0.29708 0.22633,0.45181 0.17576,0.33564 0.18938,1.85196 0.0215,2.39266 -0.18789,0.6051 -0.5737,1.99646 -0.65691,2.36902 -0.0417,0.18661 -0.28464,0.78718 -0.53992,1.33459 -0.25527,0.54741 -0.46413,1.14141 -0.46413,1.31999 0,0.30813 -0.49926,1.19492 -0.71987,1.27865 -0.24161,0.0917 -0.0896,1.0229 0.29873,1.82995 0.79331,1.64871 2.34095,2.83949 5.51093,4.24022 0.86183,0.38083 2.71463,0.88425 5.43475,1.47667 1.30961,0.28523 3.14004,0.79428 3.76296,1.0465 1.9957,0.80806 3.45466,1.93196 4.44208,3.42192 0.2353,0.35505 0.52703,0.77784 0.64828,0.93953 0.30968,0.41294 0.58315,2.82396 0.40149,3.53964 -0.13571,0.53465 -0.0387,0.81128 0.28458,0.81128 0.0891,0 0.16199,0.0529 0.16199,0.1176 0,0.0647 0.0558,0.11759 0.12405,0.11759 0.0682,0 0.43023,0.20792 0.80445,0.46205 l 0.68041,0.46206 0.23044,-0.49145 c 0.35198,-0.75065 1.80939,-3.49289 2.11922,-3.9875 0.15112,-0.24125 0.27477,-0.47212 0.27477,-0.51304 0,-0.0956 2.16724,-3.37175 2.37383,-3.58847 0.0857,-0.09 0.30711,-0.34877 0.49193,-0.57513 0.2672,-0.32728 1.76728,-1.99742 2.36842,-2.63693 0.0654,-0.0696 0.3829,-0.44364 0.70556,-0.83125 0.32266,-0.38762 0.65403,-0.77628 0.73638,-0.86369 0.41497,-0.44047 0.51414,-0.83909 0.37959,-1.5257 -0.13623,-0.69519 -0.28654,-1.18486 -0.50428,-1.64273 l -0.12761,-0.26835 -0.59548,0.57619 c -0.61216,0.59233 -1.95586,1.54801 -2.17652,1.54801 -0.0682,0 -0.12404,0.0432 -0.12404,0.0959 0,0.12396 -0.82198,0.59365 -1.6463,0.94073 -0.90139,0.37952 -1.52901,0.37422 -2.04223,-0.0172 -0.40175,-0.30643 -0.4514,-0.42616 -0.60903,-1.46861 -0.0476,-0.31478 -0.15061,-0.53448 -0.27088,-0.5777 -0.41535,-0.14927 -0.84082,-0.52868 -0.84082,-0.7498 0,-0.22262 -0.4345,-0.94469 -0.61736,-1.02596 -0.0485,-0.0216 -0.0882,-0.31525 -0.0882,-0.65264 0,-0.33739 -0.0635,-0.67694 -0.14111,-0.75455 -0.0776,-0.0776 -0.42343,-0.14111 -0.76849,-0.14111 -0.86466,0 -1.20707,-0.23851 -1.20707,-0.84081 0,-0.46303 0.13626,-0.74901 0.71992,-1.51105 0.17338,-0.22636 0.3414,-0.59678 0.37336,-0.82314 0.032,-0.22637 0.0948,-0.52485 0.13954,-0.66329 0.0636,-0.1967 -0.0326,-0.37067 -0.43999,-0.79588 -0.28677,-0.29929 -0.58133,-0.74164 -0.65457,-0.98301 -0.0732,-0.24136 -0.18034,-1.20613 -0.23799,-2.14393 -0.0896,-1.45739 -0.14964,-1.80201 -0.41341,-2.37218 -0.4608,-0.99611 -0.59076,-1.73956 -0.4328,-2.47608 0.32535,-1.51706 1.3583,-2.83837 3.0645,-3.92 0.57128,-0.36215 1.0645,-0.72573 1.09605,-0.80793 0.14426,-0.37595 3.30213,-1.63967 5.19326,-2.07824 0.90668,-0.21027 2.53942,-0.20985 3.2926,8.5e-4 1.51103,0.42271 2.93047,1.30807 4.04946,2.52582 0.23048,0.25082 0.52489,0.56868 0.65424,0.70635 1.14864,1.22254 2.15278,3.49968 2.78017,6.30474 0.16663,0.74505 0.16242,3.83753 -0.007,4.82129 -0.11263,0.65568 -0.0724,1.10816 0.30331,3.41019 0.413,2.53061 1.15391,4.48738 2.40434,6.35 0.83086,1.23763 1.54631,1.98432 3.2794,3.42258 2.14144,1.77715 2.79316,2.6509 3.30047,4.42488 0.30496,1.06638 0.30669,2.86481 0.004,4.11014 -0.29998,1.23402 -0.34189,1.35221 -0.95083,2.68163 -0.20711,0.45216 -0.45595,1.0607 -0.55297,1.35232 -0.2226,0.66901 -0.90016,2.02162 -1.34358,2.68217 -0.1867,0.27812 -0.33945,0.55152 -0.33945,0.60756 0,0.0561 -0.0404,0.11954 -0.0898,0.1411 -0.0494,0.0216 -0.2743,0.3109 -0.49977,0.64298 -0.22548,0.33207 -0.77628,1.12577 -1.22402,1.76377 -0.74843,1.06647 -2.06695,3.17358 -2.06695,3.30316 0,0.0303 -0.0976,0.19548 -0.21685,0.36715 -0.11927,0.17167 -0.40215,0.65609 -0.62862,1.07649 -0.22647,0.42039 -0.51716,0.94956 -0.64599,1.17592 -0.12882,0.22637 -0.56715,1.04658 -0.97407,1.82269 -0.40692,0.77611 -0.9536,1.80664 -1.21485,2.29007 -0.39645,0.73363 -0.47059,0.97537 -0.44838,1.46201 0.0184,0.40278 0.0958,0.6431 0.25056,0.77728 0.19242,0.16689 0.22298,0.35432 0.21701,1.33092 -0.004,0.62517 -0.0548,1.16621 -0.11316,1.20231 -0.0584,0.0361 -0.10701,0.2345 -0.10798,0.44088 -0.004,0.93014 -0.58791,1.86404 -1.49952,2.39991 l -0.55658,0.32717 -1.26197,-0.002 c -0.99614,-0.002 -1.27577,0.0337 -1.32748,0.1685 -0.036,0.0939 -0.0974,0.65544 -0.13626,1.24787 l -0.0708,1.07714 0.75148,0.0872 c 3.33224,0.38651 5.36156,0.75621 6.78727,1.2365 0.91543,0.30839 2.49318,1.20359 3.37161,1.91303 0.0647,0.0522 0.56738,0.39148 1.11713,0.75387 1.67866,1.10658 2.23949,1.81829 2.48568,3.15438 0.15677,0.85084 0.0264,1.73273 -0.38239,2.58609 -0.122,0.25469 -0.22181,0.57237 -0.22181,0.70597 0,0.1336 -0.17828,0.61314 -0.39617,1.06564 -0.39321,0.81658 -0.74313,1.77392 -0.99919,2.73362 -0.369,1.38301 -0.46808,1.84333 -0.7783,3.61597 -0.24355,1.39171 -0.5517,2.98196 -0.77473,3.99815 -0.0568,0.25871 -0.23604,1.18475 -0.39836,2.05787 -0.16233,0.87313 -0.34884,1.86531 -0.41447,2.20486 -0.2672,1.38232 -0.4544,2.4672 -0.76599,4.43912 -0.1022,0.64676 -0.24024,1.51989 -0.30676,1.94028 -0.0665,0.4204 -0.16812,1.02894 -0.22577,1.35232 -0.40515,2.27235 -0.49806,3.18434 -0.55253,5.42352 l -0.0604,2.48371 0.23619,0.65685 c 0.12991,0.36128 0.36116,0.81038 0.51389,0.99802 0.55184,0.67794 2.22573,1.58851 3.99851,2.17512 1.09045,0.36083 2.09324,0.59718 2.17726,0.51317 0.0355,-0.0355 0.20462,-0.01 0.37583,0.0568 0.64101,0.24992 1.57548,0.45172 2.11031,0.45572 0.91055,0.007 2.64334,0.29374 3.04559,0.5043 0.62773,0.32859 0.97622,0.89243 0.97622,1.57948 0,0.5237 -0.0447,0.63345 -0.36967,0.90687 -0.27741,0.23342 -0.33611,0.34462 -0.23519,0.44554 0.42147,0.42147 -0.10393,1.60125 -0.71806,1.61242 -0.15528,0.003 -0.20578,0.10277 -0.20578,0.4073 0,0.31124 -0.0781,0.45921 -0.34154,0.64676 -0.18784,0.13376 -0.44724,0.24319 -0.57645,0.24319 -0.15541,0 -0.27664,0.11964 -0.35815,0.35346 -0.12805,0.36733 -0.51273,0.58728 -1.02709,0.58728 -0.1899,0 -0.33242,0.0956 -0.41603,0.27914 -0.14549,0.3193 -0.89464,0.7792 -1.26928,0.7792 -0.38827,0 -0.96123,-0.29299 -1.47823,-0.75591 -0.50051,-0.44815 -0.59247,-0.48749 -0.70684,-0.30243 -0.10474,0.16947 -0.95474,0.14471 -2.01813,-0.0588 -0.50693,-0.097 -0.95844,-0.17638 -1.00337,-0.17639 -0.0703,-2e-5 0.15825,0.66933 0.50184,1.46989 0.16411,0.38237 0.76658,2.4416 1.05794,3.61597 0.0602,0.24253 0.16279,0.63941 0.22804,0.88194 0.12284,0.45659 0.78404,3.6845 0.94543,4.61551 0.0505,0.29104 0.15191,0.87313 0.22546,1.29352 0.29213,1.66967 0.62177,4.85495 0.83897,8.1069 0.3166,4.74004 0.53752,6.7165 1.03827,9.28861 0.13134,0.67459 0.29275,1.28049 0.3587,1.34644 0.0659,0.0659 0.1199,0.23898 0.1199,0.38452 0,0.14554 0.0881,0.3139 0.19569,0.37413 0.11406,0.0638 0.23533,0.34831 0.29074,0.682 0.0523,0.31487 0.18226,1.0402 0.28882,1.61183 0.21427,1.14933 0.15579,1.45334 -0.34236,1.77974 -0.29445,0.19292 -1.39213,0.51251 -2.60835,0.7594 -0.38806,0.0788 -0.89077,0.19003 -1.11713,0.24723 -2.03946,0.51531 -8.5392,1.41131 -10.21613,1.4083 -0.47188,-8.5e-4 -0.82133,0.0919 -1.37724,0.36558 -0.90977,0.44788 -1.69224,0.56626 -1.921,0.29062 z m 1.16715,-0.74163 c 0.22636,-0.0329 0.59266,-0.19575 0.81399,-0.36194 0.33389,-0.25071 0.55417,-0.30854 1.29352,-0.33957 1.8217,-0.0765 4.35735,-0.39024 6.94712,-0.85966 0.42039,-0.0762 1.00247,-0.18178 1.29352,-0.23461 0.29104,-0.0528 1.1377,-0.18138 1.88148,-0.28566 0.74377,-0.10429 1.62504,-0.2682 1.95837,-0.36426 0.33334,-0.096 0.6943,-0.17463 0.80215,-0.17463 0.22267,0 0.53207,-0.27105 0.53207,-0.46611 0,-0.0716 0.0854,-0.26047 0.18977,-0.41976 0.24266,-0.37034 0.13799,-1.18072 -0.25387,-1.96557 -0.24349,-0.48769 -0.46457,-1.41442 -0.87666,-3.67495 -0.33569,-1.84143 -0.60534,-4.48932 -0.94603,-9.28982 -0.36133,-5.09142 -0.951,-9.39421 -1.74046,-12.7 -0.34915,-1.46207 -1.10935,-3.97015 -1.42569,-4.7037 -0.0558,-0.12935 -0.172,-0.41986 -0.25827,-0.64557 -0.57727,-1.5104 -2.299,-4.46329 -2.74388,-4.70595 -0.23564,-0.12853 -1.82269,-3.21125 -1.82269,-3.54043 0,-0.0959 -0.0467,-0.22471 -0.1039,-0.28616 -0.19946,-0.21446 -0.76255,-2.01076 -0.975,-3.11032 -0.0687,-0.35572 -0.16814,-3.00155 -0.22092,-5.87963 -0.10589,-5.77454 -0.17673,-6.65658 -0.76022,-9.4662 -0.40032,-1.92757 -0.66865,-2.94771 -1.26818,-4.8213 -0.64402,-2.01267 -0.7912,-2.45159 -0.9069,-2.70463 -0.23948,-0.52372 -0.46855,-2.11831 -0.46807,-3.25824 4.5e-4,-1.05472 -0.2292,-4.79335 -0.30044,-4.89115 -0.0142,-0.0195 -0.44204,0.098 -0.9507,0.2611 -0.92252,0.29587 -1.9416,0.58406 -2.77692,0.7853 -0.7322,0.17639 -1.29783,0.31903 -1.79329,0.45224 -0.2587,0.0695 -0.84078,0.21117 -1.29351,0.31471 -0.45274,0.10353 -1.03482,0.23825 -1.29352,0.29936 -0.25871,0.0611 -0.68204,0.15824 -0.94074,0.21585 -0.25871,0.0576 -0.68204,0.15475 -0.94074,0.21589 -0.65731,0.15535 -2.90616,0.58616 -3.82176,0.73213 -0.4204,0.067 -0.99001,0.17218 -1.26581,0.23368 -0.2758,0.0615 -0.64303,0.11182 -0.81607,0.11182 -0.17304,0 -0.61446,0.0619 -0.98095,0.13762 l -0.66633,0.13763 0.0842,0.36214 c 0.0463,0.19918 0.69336,1.60568 1.43784,3.12557 0.74447,1.51988 1.59336,3.26613 1.88642,3.88055 1.07263,2.24884 1.76619,3.71919 2.05233,4.35093 0.16111,0.35572 0.46523,1.01718 0.67582,1.46991 0.21059,0.45273 0.47602,1.03481 0.58985,1.29352 0.11383,0.2587 0.35912,0.79776 0.54508,1.19791 0.18597,0.40015 0.33812,0.75347 0.33812,0.78516 0,0.0317 0.18521,0.45858 0.41158,0.94865 0.22636,0.49007 0.41157,0.91594 0.41157,0.94638 0,0.0304 0.15875,0.40197 0.35278,0.8256 0.19403,0.42363 0.35278,0.80061 0.35278,0.83772 0,0.0371 0.0731,0.23423 0.16243,0.43803 0.41994,0.95794 0.55728,1.28374 1.07326,2.54601 0.30404,0.74377 0.64761,1.56398 0.7635,1.82269 0.11589,0.2587 0.35355,0.81432 0.52815,1.23472 0.17459,0.42039 0.49757,1.14649 0.71773,1.61355 0.22016,0.46706 0.4003,0.88229 0.4003,0.92273 0,0.0404 0.40255,0.87523 0.89457,1.85509 1.47644,2.94034 1.99969,3.83788 2.23827,3.83931 0.30887,0.002 2.502,3.80507 3.32314,5.76284 0.1492,0.35571 0.35053,0.83196 0.44741,1.05833 0.0969,0.22637 0.22064,0.51741 0.27503,0.64676 0.15454,0.36753 0.87199,2.49331 1.17078,3.46898 0.14855,0.48507 0.33979,1.1034 0.42497,1.37408 0.0852,0.27067 0.26689,0.95859 0.40378,1.5287 0.13689,0.57012 0.29385,1.19532 0.3488,1.38935 0.34757,1.22735 0.97061,3.9096 1.6457,7.08495 0.45043,2.11862 0.77782,5.62193 0.64013,6.84977 -0.10926,0.97439 -0.59205,1.967 -1.2869,2.64584 -2.45654,2.39994 -4.10446,3.52361 -6.70392,4.57122 -1.29825,0.52321 -1.39901,0.56533 -1.61531,0.67537 -0.1123,0.0571 -0.41755,0.10387 -0.67832,0.10387 -0.62107,0 -2.13371,0.4034 -2.9018,0.77387 -0.64423,0.31073 -1.33096,0.98573 -1.33096,1.30823 0,0.33922 0.36531,0.62253 0.80271,0.62253 0.40983,0 0.84358,-0.26768 0.84358,-0.5206 0,-0.22291 0.69696,-0.99089 1.23553,-1.36144 0.56767,-0.39057 0.93649,-0.44886 1.04533,-0.16522 0.0977,0.25457 0.0106,0.36575 -0.49555,0.63264 -0.74518,0.39293 -1.19734,0.87487 -1.19734,1.27617 0,0.19787 -0.0529,0.39246 -0.1176,0.43243 -0.20021,0.12374 -0.1297,0.29398 0.12177,0.29398 0.16902,0 0.30342,-0.14687 0.45733,-0.49977 0.19775,-0.45343 0.48133,-0.77212 1.28361,-1.44258 l 0.2752,-0.22999 0.16121,0.22047 c 0.20949,0.28649 0.065,0.55894 -0.47284,0.89132 -0.56714,0.35051 -0.9764,0.93085 -0.75521,1.07091 0.3225,0.20422 0.57149,0.10863 0.73474,-0.28208 0.18927,-0.45299 1.07857,-1.25698 1.39036,-1.25698 0.1496,0 0.21402,0.088 0.21402,0.2925 0,0.21233 -0.12623,0.37219 -0.46049,0.5832 -0.56759,0.35831 -0.62455,0.44688 -0.5299,0.82398 0.11213,0.44676 0.46758,0.37779 0.80461,-0.15611 0.27997,-0.44349 1.11043,-1.30532 1.25979,-1.30737 0.041,-5.6e-4 0.10293,0.10776 0.1377,0.24071 0.0452,0.17276 -0.0851,0.40875 -0.45666,0.82708 -0.28593,0.32194 -0.51987,0.62767 -0.51987,0.67941 0,0.18396 0.17385,0.26335 0.40859,0.18661 0.13099,-0.0428 0.42338,-0.10477 0.64975,-0.13764 z m -2.41065,-4.67828 c 1.02991,-0.19 1.66059,-0.42308 3.29259,-1.21685 1.05168,-0.51152 2.97393,-1.70465 3.2338,-2.00721 0.0323,-0.0376 0.52181,-0.48354 1.08773,-0.99085 0.56591,-0.50732 1.02893,-0.9754 1.02893,-1.04018 0,-0.0648 0.0996,-0.25825 0.22142,-0.42992 0.80958,-1.14127 1.00492,-1.94796 0.91705,-3.78695 -0.0354,-0.74057 -0.11616,-1.58461 -0.17949,-1.87565 -0.0633,-0.29104 -0.16841,-0.79375 -0.23351,-1.11713 -0.0651,-0.32338 -0.25894,-1.14359 -0.43074,-1.82269 -0.27787,-1.09836 -0.58026,-2.40261 -0.88606,-3.82175 -0.1549,-0.71884 -0.29121,-1.26699 -0.76031,-3.05741 -0.23724,-0.90547 -0.45749,-1.77859 -0.48945,-1.94028 -0.0319,-0.16169 -0.10167,-0.39981 -0.15491,-0.52917 -0.0533,-0.12935 -0.21437,-0.63206 -0.35805,-1.11713 -0.34024,-1.14868 -0.80418,-2.58361 -0.93148,-2.88101 -0.0554,-0.12936 -0.17994,-0.4204 -0.27681,-0.64676 -0.0969,-0.22637 -0.29367,-0.70262 -0.43731,-1.05834 -0.84956,-2.10392 -2.28008,-4.64008 -3.0332,-5.37756 -0.36453,-0.35696 -1.31622,-1.78249 -1.31622,-1.97155 0,-0.10964 -0.50419,-0.88775 -0.5473,-0.84464 -0.0263,0.0263 -0.10142,0.35926 -0.16699,0.73998 -0.13785,0.80036 -0.30639,1.65542 -0.46675,2.36789 -0.0619,0.27488 -0.16233,0.72467 -0.22327,0.99954 -0.0609,0.27487 -0.16469,0.73789 -0.23057,1.02893 -0.12824,0.56652 -0.65699,2.61348 -0.85051,3.2926 -0.0645,0.22636 -0.16135,0.59678 -0.21521,0.82315 -0.0539,0.22636 -0.29223,1.07303 -0.52971,1.88148 -0.42371,1.44249 -0.542,1.85072 -0.75811,2.61643 -0.0593,0.2102 -0.24818,0.85843 -0.41969,1.44051 -0.84277,2.8603 -1.38723,4.95919 -1.58622,6.11482 -0.0779,0.45273 -0.18987,1.04502 -0.2487,1.31619 -0.14885,0.68607 -0.13414,4.23579 0.0207,4.99544 0.27088,1.32893 0.71728,2.94078 1.05279,3.80133 0.62883,1.61291 1.79241,3.8722 2.72337,5.2879 l 0.74109,1.12696 0.29398,-0.0741 c 0.16169,-0.0408 0.6644,-0.14247 1.11713,-0.22599 z m -29.92654,-5.23927 c 0.66501,-0.20084 2.80675,-0.46186 3.79833,-0.46292 0.50495,-5.4e-4 1.27224,-0.051 1.70509,-0.1122 0.43286,-0.0612 1.31617,-0.17301 1.96293,-0.24853 0.64676,-0.0755 1.8903,-0.23834 2.76343,-0.36182 0.87312,-0.12348 1.85208,-0.25535 2.17546,-0.29304 0.39459,-0.046 0.66532,-0.15375 0.82315,-0.32765 0.29623,-0.32636 1.1766,-1.00795 1.31044,-1.01455 0.20824,-0.0103 1.22384,-1.13784 1.61218,-1.78993 0.222,-0.37277 0.57308,-1.1136 0.78018,-1.6463 0.20711,-0.53269 0.4184,-1.07436 0.46954,-1.20372 0.3291,-0.83238 0.64517,-2.50996 0.83082,-4.40972 0.10187,-1.04236 0.12123,-2.75253 0.0665,-5.87963 -0.10827,-6.19168 0.23334,-12.68897 0.91814,-17.4625 0.0371,-0.2587 0.17696,-1.28038 0.31077,-2.27041 l 0.2433,-1.80003 -0.43497,-0.8458 c -0.50835,-0.98846 -0.99646,-1.87885 -1.4737,-2.68826 -0.18762,-0.31819 -0.34112,-0.62912 -0.34112,-0.69095 0,-0.0618 -0.0529,-0.11242 -0.11759,-0.11242 -0.0647,0 -0.11759,-0.0524 -0.11759,-0.11639 0,-0.064 -0.23813,-0.48789 -0.52917,-0.94194 -0.29104,-0.45406 -0.53087,-0.8647 -0.53296,-0.91255 -0.002,-0.0478 -0.20695,-0.36782 -0.45525,-0.71106 l -0.45146,-0.62407 -0.0793,0.68287 c -0.26199,2.25659 -0.32246,3.72706 -0.41732,10.14907 -0.0578,3.91289 -0.15829,8.27852 -0.22332,9.70139 -0.21512,4.70707 -0.54103,9.79338 -0.72334,11.28889 -0.0631,0.5174 -0.13715,1.1524 -0.1646,1.41111 -0.1812,1.70757 -0.62142,3.87477 -1.02729,5.05742 -0.41617,1.21264 -1.49669,2.44642 -2.86314,3.26923 -0.71016,0.42762 -3.44636,1.71555 -4.41419,2.07777 -0.54729,0.20482 -1.10091,0.41723 -1.23026,0.47202 -0.12935,0.0548 -0.63206,0.24079 -1.11713,0.41334 -0.48507,0.17255 -1.09361,0.39346 -1.35231,0.4909 -0.83953,0.31621 -1.45395,0.51272 -1.55117,0.49613 -0.0523,-0.009 -0.37564,-0.01 -0.71849,-0.002 l -0.62336,0.0139 -0.17413,0.41675 c -0.19999,0.47864 -0.16189,0.5762 0.34595,0.88586 0.42994,0.26217 0.47251,0.26644 1.01688,0.10203 z m 48.61583,-27.63306 c 0.0891,-0.0902 0.0744,-0.1562 -0.0509,-0.22782 -0.9178,-0.52478 -1.31979,-0.96359 -1.0917,-1.19169 0.10526,-0.10525 0.31024,-0.0494 0.86919,0.23663 0.67837,0.3472 1.63719,0.51823 1.82913,0.32629 0.16769,-0.16769 -0.10736,-0.42253 -0.65084,-0.60305 -0.67313,-0.22358 -1.19096,-0.58897 -1.19096,-0.84037 0,-0.29248 0.34434,-0.32236 0.85912,-0.0745 1.14252,0.55005 1.74298,0.73373 1.9814,0.60613 0.41147,-0.22021 0.18617,-0.5049 -0.76203,-0.96291 -0.7802,-0.37686 -0.91264,-0.48293 -0.88094,-0.70556 0.0314,-0.22065 0.10101,-0.25684 0.4408,-0.22927 0.22192,0.018 0.46001,0.0785 0.5291,0.13446 0.72986,0.59103 1.6171,0.76107 1.83609,0.35189 0.0722,-0.13489 0.11374,-0.26001 0.0923,-0.27805 -0.20751,-0.17484 -0.73274,-0.33978 -1.52622,-0.47928 -0.97593,-0.17159 -1.27613,-0.31344 -1.27613,-0.603 0,-0.27721 0.29334,-0.30178 1.12194,-0.094 0.66166,0.16594 0.87088,0.17495 1.27529,0.0549 0.63186,-0.1875 0.77815,-0.318 0.77597,-0.69223 -0.002,-0.37943 -0.0729,-0.48453 -0.55043,-0.81792 -0.32927,-0.22989 -0.56242,-0.26865 -1.88149,-0.31272 -0.90435,-0.0302 -1.76392,-0.1269 -2.15239,-0.24209 -0.64899,-0.19243 -1.32206,-0.34319 -2.14893,-0.48134 -0.24412,-0.0408 -0.47214,-0.11993 -0.50671,-0.17587 -0.0346,-0.0559 -0.168,-0.10173 -0.29649,-0.10173 -0.40934,0 -2.12144,-0.60534 -3.07231,-1.08626 -1.06177,-0.53702 -2.11018,-1.44289 -2.47226,-2.13615 -0.21801,-0.41743 -0.24888,-0.65708 -0.2312,-1.79474 0.0112,-0.72215 0.0733,-1.54236 0.13794,-1.82269 0.0646,-0.28033 0.11883,-0.8373 0.12042,-1.23771 0.002,-0.40041 0.0486,-0.75631 0.1046,-0.79089 0.056,-0.0346 0.13265,-0.5801 0.17044,-1.21226 0.0806,-1.3482 0.44347,-4.35528 0.77017,-6.38226 0.0678,-0.4204 0.17848,-1.12324 0.24604,-1.56188 0.0676,-0.43863 0.20837,-1.25884 0.3129,-1.82268 0.10453,-0.56384 0.23353,-1.26329 0.28667,-1.55433 0.0531,-0.29104 0.12811,-0.68792 0.16662,-0.88195 0.0385,-0.19402 0.12095,-0.61736 0.18321,-0.94074 0.0623,-0.32338 0.2485,-1.27588 0.41385,-2.11666 0.16535,-0.84079 0.3533,-1.81975 0.41765,-2.17547 0.78807,-4.35591 1.25295,-6.15533 2.00507,-7.76111 0.1969,-0.42039 0.37402,-0.9231 0.39359,-1.11713 0.0196,-0.19403 0.14666,-0.60852 0.28243,-0.92109 0.36704,-0.845 0.32337,-1.49355 -0.16745,-2.48689 -0.51487,-1.04201 -1.46458,-2.02997 -2.84745,-2.96214 -2.59289,-1.74781 -4.3616,-2.23963 -9.84982,-2.7389 -1.65999,-0.15101 -9.68286,-0.13758 -11.46528,0.0192 -2.08764,0.18363 -6.22805,0.57559 -7.46713,0.70689 -1.78705,0.18938 -1.75823,0.19144 -1.80357,-0.12923 -0.0536,-0.37891 0.11219,-0.45627 1.15111,-0.53716 1.35263,-0.10532 2.08859,-0.27953 2.15785,-0.51077 0.033,-0.11005 0.20403,-0.59697 0.38016,-1.08204 0.50764,-1.39807 0.7322,-2.32736 0.85724,-3.5475 l 0.0804,-0.78407 -0.9412,-0.0797 c -0.82322,-0.0697 -2.51695,-0.34253 -3.99862,-0.64402 -0.72207,-0.14693 -2.59242,-0.43993 -3.70378,-0.58021 -1.40641,-0.17753 -3.01244,-0.97866 -3.32864,-1.66042 -0.0437,-0.0942 -0.45368,-0.75326 -0.91114,-1.4647 -0.45746,-0.71143 -1.07096,-1.70321 -1.36335,-2.20396 -0.29239,-0.50074 -0.5714,-0.93503 -0.62002,-0.96508 -0.0486,-0.03 -0.0409,0.19444 0.0172,0.49887 0.0581,0.30443 0.13237,1.29434 0.16509,2.1998 l 0.0595,1.6463 -0.3019,1.17248 c -0.22396,0.86981 -0.61708,1.81081 -1.52288,3.64537 -1.78262,3.61036 -1.89991,3.90416 -2.23127,5.58909 -0.8051,4.09385 0.22226,7.87777 2.83383,10.43742 1.59087,1.55925 2.8679,2.24404 5.55693,2.97985 1.31296,0.35926 7.93359,-0.0155 11.81806,-0.66899 2.97783,-0.50095 4.20016,-0.7431 6.52639,-1.29289 1.16209,-0.27466 1.47047,-0.3511 2.55763,-0.63404 1.03804,-0.27014 3.40452,-0.85279 3.67477,-0.90476 0.16169,-0.0311 0.39982,-0.0994 0.52917,-0.15185 0.12935,-0.0524 0.47331,-0.16046 0.76435,-0.24005 0.29104,-0.0796 0.68792,-0.19343 0.88195,-0.25296 0.53156,-0.16311 1.94736,-0.37107 2.39015,-0.35108 0.56225,0.0254 0.86489,0.21849 0.82138,0.52412 -0.0288,0.20255 -0.13552,0.26901 -0.50635,0.31542 -0.3943,0.0494 -0.50247,0.12495 -0.67297,0.47037 -0.52458,1.06276 -1.03268,3.36017 -1.03268,4.66941 0,1.15519 0.47363,3.38024 1.1855,5.56939 0.82924,2.55007 1.3098,4.78246 1.64361,7.63528 0.20304,1.73523 0.34836,5.49785 0.27704,7.17314 -0.10841,2.54656 0.20366,5.7112 0.71314,7.23195 0.55488,1.65622 1.35245,3.2974 2.04296,4.20383 0.82513,1.08315 1.22417,1.69137 1.75522,2.67534 0.44867,0.83132 0.58789,0.96626 1.31957,1.2789 0.43236,0.18475 2.38809,0.37152 2.52236,0.24089 0.19289,-0.18766 0.65194,-0.11872 0.92214,0.13849 0.46166,0.43945 0.95952,0.78603 1.20041,0.83564 0.28545,0.0588 0.87813,-0.0907 1.0504,-0.26494 z m -14.62402,-40.1526 c 0.0838,-0.38805 0.24664,-0.93045 0.36183,-1.20532 l 0.20945,-0.49977 h -0.38492 c -0.21171,0 -0.47569,0.0664 -0.58662,0.14749 l -0.2017,0.14748 0.12647,0.94025 c 0.1318,0.97978 0.24954,1.49417 0.29596,1.29302 0.0149,-0.0647 0.0957,-0.43509 0.17953,-0.82315 z m -16.11851,-13.23691 c 4.63762,-0.45005 7.73878,-0.61113 10.82171,-0.56209 l 2.55646,0.0407 0.0673,-0.70556 c 0.037,-0.38805 0.10252,-1.00073 0.14565,-1.36149 l 0.0784,-0.65594 -0.39654,-0.15853 c -0.2181,-0.0872 -0.71404,-0.30017 -1.1021,-0.47328 -0.38805,-0.17311 -1.02939,-0.45896 -1.42518,-0.63522 -0.3958,-0.17626 -0.82891,-0.46828 -0.96247,-0.64894 -0.17808,-0.24086 -0.44869,-0.38418 -1.01472,-0.5374 -0.80686,-0.2184 -1.36361,-0.21061 -3.94717,0.0553 -0.61442,0.0632 -2.10791,0.15152 -3.31888,0.19619 l -2.20175,0.0812 -0.11248,0.36396 c -0.0619,0.20018 -0.14509,0.60209 -0.18495,0.89313 -0.14754,1.07733 -0.37752,2.06681 -0.73795,3.175 -0.0947,0.29105 -0.21756,0.68142 -0.27311,0.86751 l -0.101,0.33834 0.49585,-0.0822 c 0.27272,-0.0452 0.99856,-0.13101 1.61298,-0.19063 z m 17.00472,-3.91738 c 0.44726,-0.30392 0.98694,-0.96721 0.98694,-1.213 0,-0.312 -0.21902,-0.16997 -0.91656,0.59436 -0.44858,0.49153 -0.9034,0.5751 -1.84739,0.33942 l -0.82262,-0.20538 -0.0377,-0.32853 -0.0377,-0.32853 0.62567,0.0734 c 0.34412,0.0404 0.69239,0.0942 0.77394,0.11955 0.24757,0.077 0.78319,-0.0715 1.08848,-0.3018 0.39388,-0.29711 0.26303,-0.37193 -0.4235,-0.24216 -0.81534,0.15412 -2.0148,0.031 -2.07813,-0.2134 -0.10304,-0.39755 0.0372,-0.48365 0.78789,-0.48365 1.49006,0 1.78993,-0.0935 2.54725,-0.7947 0.38124,-0.35296 0.69316,-0.74188 0.69316,-0.86426 0,-0.34183 -0.12328,-0.2751 -0.76222,0.41259 -0.71072,0.76494 -1.04958,0.87581 -2.44853,0.80112 l -1.03529,-0.0553 0.0358,-0.3083 0.0358,-0.3083 1.16405,-0.0339 c 1.24052,-0.0361 1.53671,-0.15244 2.15653,-0.8471 0.35552,-0.39846 0.58538,-1.13973 0.40831,-1.3168 -0.15544,-0.15544 -0.4951,0.0676 -0.4951,0.32515 0,0.39702 -0.32254,0.78514 -0.92254,1.11012 -0.35636,0.19301 -0.72633,0.35093 -0.82215,0.35093 -0.25669,0 -1.43031,-0.91977 -1.43031,-1.12094 0,-0.25872 -0.30279,-0.209 -0.82275,0.1351 -0.52072,0.34459 -0.86099,0.30579 -0.80239,-0.0915 0.0516,-0.3496 1.26547,-1.00033 2.36752,-1.26915 1.38968,-0.33897 1.72381,-0.63773 0.95505,-0.85395 -0.55719,-0.15671 -3.00866,0.23728 -5.3722,0.86339 -0.62947,0.16676 -1.30621,0.16866 -1.91088,0.005 -0.514,-0.1388 -0.64144,-0.16852 -3.0574,-0.71296 -0.90547,-0.20405 -1.83151,-0.41833 -2.05787,-0.47617 -0.22637,-0.0578 -0.62324,-0.1591 -0.88195,-0.22503 -0.2587,-0.0659 -0.70849,-0.17242 -0.99954,-0.23666 -0.29104,-0.0642 -0.76729,-0.1719 -1.05833,-0.23926 -2.09249,-0.48432 -3.17258,-0.73994 -3.52778,-0.83488 -0.48686,-0.13014 -2.40755,-0.57501 -4.05694,-0.93967 -0.64676,-0.14299 -1.28718,-0.31229 -1.42316,-0.37622 -0.35043,-0.16475 -0.95949,-1.45614 -1.04528,-2.21632 l -0.0725,-0.64217 0.23753,0.47037 c 0.13064,0.2587 0.23932,0.52777 0.24152,0.59792 0.002,0.0702 0.16274,0.269 0.35677,0.44188 0.19402,0.17288 0.35277,0.38709 0.35277,0.47601 0,0.10738 0.36539,0.24633 1.08774,0.41367 1.08923,0.25232 1.50254,0.35402 2.38125,0.58588 0.2587,0.0683 0.84078,0.20521 1.29351,0.30432 0.45274,0.0991 1.39799,0.31504 2.10057,0.47985 0.70258,0.1648 1.28987,0.28358 1.30508,0.26395 0.0152,-0.0196 0.0874,-0.4855 0.16047,-1.03524 0.56179,-4.22817 0.45483,-8.03559 -0.26922,-9.5838 -0.20467,-0.43764 -3.00901,-3.20945 -3.64967,-3.60734 -0.58837,-0.36541 -1.5437,-0.857 -3.05741,-1.57326 -1.51396,-0.71638 -2.27342,-1.23696 -3.5042,-2.402 -1.07069,-1.01349 -1.4043,-1.58835 -1.39521,-2.4041 0.003,-0.25394 -0.0691,-0.63938 -0.15982,-0.85653 -0.20313,-0.48617 -0.0455,-0.92246 0.37102,-1.027 l 0.27997,-0.0703 -0.0743,-0.63229 c -0.0658,-0.55992 -0.0466,-0.64712 0.16791,-0.76192 0.13323,-0.0713 0.3698,-0.12964 0.52572,-0.12964 0.15592,0 0.37804,-0.10448 0.49361,-0.23218 0.11557,-0.1277 0.30479,-0.26223 0.4205,-0.29896 0.20359,-0.0646 1.16304,0.31912 1.52249,0.60893 0.097,0.0782 0.49389,0.40301 0.88195,0.72176 0.79756,0.65513 2.05096,1.48082 2.12917,1.40261 0.0285,-0.0285 -0.0811,-0.28428 -0.24361,-0.56841 -0.4203,-0.73505 -0.68596,-1.5954 -0.59927,-1.94079 0.0454,-0.18078 0.21579,-0.35525 0.43846,-0.44887 l 0.36424,-0.15315 -0.69172,-0.20042 c -1.05575,-0.3059 -1.89537,-0.50677 -3.51394,-0.84068 -0.51741,-0.10675 -1.23178,-0.27184 -1.5875,-0.36687 -0.35572,-0.095 -0.80551,-0.21542 -0.99953,-0.26752 -0.87954,-0.23616 -2.49414,-0.93335 -3.50799,-1.51476 -2.10117,-1.20494 -3.84506,-3.27908 -4.07016,-4.84095 l -0.0654,-0.45361 -0.83185,0.39703 c -1.24105,0.59234 -2.50262,0.81046 -4.25091,0.73496 -1.28104,-0.0553 -1.66123,-3.7e-4 -1.34588,0.19452 0.0538,0.0332 0.35383,0.57875 0.66683,1.21227 0.6839,1.38425 1.60604,2.3609 2.77173,2.93557 0.4157,0.20494 1.42121,0.69555 2.23447,1.09025 0.97562,0.4735 1.70744,0.92155 2.15115,1.31702 0.77169,0.6878 1.53318,1.74851 1.6555,2.306 0.0461,0.2102 0.12193,0.38218 0.16847,0.38218 0.27652,0 0.5088,1.78 0.25292,1.93814 -0.12714,0.0786 -0.17809,-0.10812 -0.34362,-1.25914 -0.094,-0.65393 -0.19153,-0.8849 -0.56294,-1.33367 -0.72231,-0.87277 -2.23996,-1.92664 -4.29523,-2.98266 -2.13483,-1.09689 -3.20282,-1.79683 -3.63221,-2.38048 -0.30607,-0.41602 -0.34538,-0.49156 -0.9684,-1.8609 -0.2207,-0.48507 -0.56684,-1.05344 -0.76921,-1.26305 -0.20238,-0.20961 -0.36795,-0.43238 -0.36795,-0.49505 0,-0.0627 -0.2249,-0.17239 -0.49977,-0.24384 -0.27487,-0.0714 -0.67164,-0.18279 -0.88171,-0.24743 -0.21007,-0.0646 -0.89799,-0.13071 -1.52871,-0.14681 l -1.14676,-0.0293 -0.0368,-0.31187 c -0.03,-0.25424 0.0215,-0.32651 0.27885,-0.3911 0.63141,-0.15847 2.25053,0.0501 4.16768,0.53694 1.99049,0.50543 3.76233,0.45652 5.7134,-0.15771 0.98902,-0.31136 1.99279,-1.18243 2.21838,-1.9251 0.10461,-0.34439 0.004,-0.3338 -0.44767,0.0472 -0.47136,0.39749 -0.99826,0.6184 -1.95721,0.82058 -1.17931,0.24864 -1.69172,0.20945 -3.58662,-0.27431 -0.65777,-0.16793 -1.68878,-0.5837 -1.82268,-0.73502 -0.0323,-0.0365 -0.29692,-0.22042 -0.58797,-0.4086 -0.29104,-0.18819 -0.87312,-0.61331 -1.29351,-0.94473 -1.61045,-1.2696 -3.03786,-2.16268 -3.99815,-2.50151 -0.49594,-0.17499 -1.6037,-0.19524 -1.70509,-0.0312 -0.04,0.0647 -0.20185,0.11759 -0.35972,0.11759 -0.22947,0 -0.28704,-0.0603 -0.28704,-0.30059 0,-0.2438 0.10137,-0.34544 0.5365,-0.53792 0.29508,-0.13052 0.69807,-0.40536 0.89554,-0.61075 0.3655,-0.38015 1.19814,-1.60626 1.13235,-1.66746 -0.0869,-0.0809 -1.64844,1.20004 -2.54491,2.08761 -1.89672,1.87787 -2.90858,3.69864 -3.41465,6.14439 -0.18908,0.91379 -0.36942,2.40909 -0.36872,3.05741 0.002,1.57903 0.73998,5.58013 1.1877,6.4366 0.0587,0.1123 0.10674,0.32662 0.10674,0.47625 0,0.14963 0.0484,0.32233 0.10748,0.38377 0.0591,0.0614 0.22363,0.45567 0.3656,0.87606 0.26127,0.77369 0.33751,1.86143 0.54335,7.75153 0.0474,1.35613 0.0758,1.53795 0.20199,1.29352 0.26958,-0.52209 0.45471,-1.38103 0.39542,-1.83469 -0.0322,-0.24683 -0.1306,-0.95149 -0.21854,-1.56591 -0.19429,-1.35755 -0.19867,-2.53718 -0.0101,-2.72575 0.24613,-0.24613 0.31825,0.0104 0.39699,1.41219 0.0424,0.7548 0.14067,2.32485 0.21839,3.48902 0.0777,1.16417 0.13764,2.64468 0.13316,3.29003 -0.0108,1.5471 0.2664,3.76896 0.67504,5.41182 0.83073,3.33973 1.05696,5.05945 0.85025,6.46313 -0.0663,0.45028 -0.0994,0.83989 -0.0735,0.8658 0.0259,0.0259 0.32149,-0.0187 0.65685,-0.0992 1.33361,-0.31993 2.23712,-1.88535 2.39455,-4.14881 0.0351,-0.50446 0.12176,-1.0255 0.1926,-1.15786 0.1286,-0.2403 0.0999,-0.3588 -0.68043,-2.80434 -0.77864,-2.44042 -1.59546,-8.86603 -1.14629,-9.0174 0.13524,-0.0456 0.40641,1.33689 0.40641,2.07195 0,0.25257 0.0516,0.71461 0.11455,1.02675 0.063,0.31214 0.19992,1.0967 0.30427,1.74346 0.10434,0.64676 0.2422,1.38759 0.30633,1.6463 0.0641,0.2587 0.16341,0.65558 0.22059,0.88194 0.0572,0.22637 0.18588,0.75554 0.286,1.17593 0.1604,0.67354 0.56012,2.18287 0.90313,3.41018 0.0633,0.22637 0.15931,0.59679 0.21344,0.82315 0.0541,0.22637 0.18067,0.70986 0.28121,1.07442 0.27792,1.00788 0.44657,2.62662 0.35655,3.42232 -0.0965,0.85334 0.0688,0.84433 0.3512,-0.0191 0.1424,-0.43537 0.19051,-1.04314 0.19051,-2.4069 0,-1.00345 0.0478,-1.94601 0.10628,-2.09457 0.1293,-0.32862 0.66647,-2.14518 0.76616,-2.59091 0.049,-0.21913 -0.0453,-0.61285 -0.29564,-1.23472 -0.20218,-0.50216 -0.40941,-1.01884 -0.46052,-1.14819 -0.3544,-0.89694 -0.41639,-2.87194 -0.0963,-3.06974 0.22581,-0.13956 0.32921,0.2361 0.33104,1.20264 0.002,1.06253 0.42617,2.61613 0.83288,3.0506 0.12499,0.13352 0.22725,0.34967 0.22725,0.48033 0,0.13067 0.17563,0.60351 0.3903,1.05076 0.21466,0.44725 0.45813,0.99839 0.54103,1.22476 0.0829,0.22636 0.19228,0.51741 0.24306,0.64676 0.084,0.21388 0.34743,1.12568 0.40753,1.41033 0.0136,0.0643 0.086,-0.42298 0.16106,-1.08273 0.1373,-1.20739 0.33989,-1.91606 0.87019,-3.04393 0.079,-0.16812 0.1419,-0.68406 0.13966,-1.14653 l -0.004,-0.84085 -0.64522,-0.99953 c -1.49097,-2.30972 -2.73925,-5.30624 -3.05892,-7.343 -0.15342,-0.97745 -0.0704,-1.83125 0.32532,-3.34554 0.23662,-0.90546 0.27965,-1.27742 0.21692,-1.87512 l -0.0782,-0.7456 0.21629,0.0419 0.21628,0.0419 -0.0168,1.29167 c -0.009,0.71042 -0.0557,2.07452 -0.10316,3.03135 -0.0915,1.84347 -0.0125,2.54614 0.43907,3.90476 0.28589,0.86008 1.48004,3.28033 1.9696,3.99187 0.1964,0.28546 0.3571,0.54753 0.3571,0.58237 0,0.0348 0.2298,0.42217 0.51066,0.86075 0.46011,0.71848 0.96145,1.6919 1.19801,2.32612 0.18682,0.50086 0.30565,-0.72333 0.25681,-2.64583 -0.0387,-1.52197 -0.10639,-2.15577 -0.31418,-2.93982 -0.1457,-0.54974 -0.31226,-1.0498 -0.37014,-1.11125 -0.0579,-0.0614 -0.10524,-0.17917 -0.10524,-0.26163 0,-0.0825 -0.16338,-0.50844 -0.36306,-0.94662 -0.19969,-0.43819 -0.44321,-0.98191 -0.54116,-1.20827 -0.16299,-0.37668 -0.22598,-0.5269 -0.51769,-1.23473 -0.24702,-0.59937 -0.67976,-2.07424 -0.8185,-2.78961 -0.19353,-0.99793 -0.0802,-1.53556 0.64739,-3.07204 0.29408,-0.62099 0.53469,-1.15269 0.53469,-1.18155 0,-0.0289 -0.17198,-0.0896 -0.38218,-0.13509 -1.19262,-0.25785 -2.23997,-1.09022 -3.47067,-2.75828 -1.3001,-1.76213 -1.62002,-2.17811 -1.87979,-2.44425 -0.31066,-0.31828 -0.35157,-0.73075 -0.0725,-0.73075 0.24001,0 0.46423,0.25843 1.93845,2.23426 1.8997,2.54607 2.70236,3.01195 5.66124,3.28583 1.63465,0.15131 2.24988,0.3401 3.19101,0.97921 1.26369,0.85815 2.42275,2.28063 2.42275,2.97335 0,0.10197 0.0571,0.29213 0.12693,0.42257 l 0.12693,0.23716 0.16331,-0.21549 0.16332,-0.2155 0.003,0.35278 c 0.002,0.19402 -0.12882,0.6131 -0.29024,0.93127 -0.16142,0.31817 -0.29349,0.64533 -0.29349,0.72703 0,0.17319 -0.41361,0.33093 -0.58691,0.22383 -0.18459,-0.11409 -0.13987,-0.49179 0.0848,-0.71651 0.15053,-0.15053 0.19943,-0.38026 0.18788,-0.88273 -0.0311,-1.35137 -1.13139,-2.70962 -2.9196,-3.60398 -1.05296,-0.52663 -1.4406,-0.61826 -2.61544,-0.61826 h -1.07004 l -0.0747,0.34009 c -0.0411,0.18705 -0.22952,0.58422 -0.41874,0.8826 -0.57234,0.90248 -0.74433,1.60066 -0.66638,2.70513 0.0376,0.53253 0.13109,1.12339 0.2078,1.31303 0.0767,0.18964 0.18052,0.45063 0.2307,0.57998 0.0502,0.12935 0.20234,0.48596 0.33813,0.79247 0.1358,0.3065 0.24691,0.58353 0.24691,0.6156 0,0.0321 0.26918,0.62797 0.59818,1.3242 0.32901,0.69623 0.67857,1.46397 0.77682,1.70609 0.0982,0.24211 0.22015,0.41455 0.27089,0.38318 0.11447,-0.0707 0.37021,0.32105 0.61391,0.9405 0.5634,1.43204 2.91828,6.32186 3.93792,8.17692 0.19424,0.35338 0.58125,1.06585 0.86003,1.58326 0.27877,0.51741 0.63044,1.13813 0.7815,1.37938 0.15105,0.24125 0.27464,0.45934 0.27464,0.48465 0,0.0533 1.26069,2.12978 1.97388,3.25125 0.26735,0.42039 0.57972,0.94956 0.69416,1.17593 0.45292,0.89585 1.68065,1.77647 2.9176,2.09272 0.65063,0.16635 2.09604,0.37672 2.58832,0.37672 0.22466,0 1.08358,0.12773 1.90869,0.28384 0.82512,0.15612 1.87063,0.35174 2.32336,0.43472 1.01684,0.18637 6.86111,0.18218 7.89699,-0.006 0.38788,-0.0703 1.60077,-0.13904 2.69533,-0.15269 l 1.99009,-0.0248 0.45764,0.26881 c 0.2517,0.14785 0.64883,0.42933 0.88252,0.62552 0.42205,0.35434 1.45306,0.81817 3.48114,1.5661 1.38885,0.51219 2.55919,0.5616 3.18759,0.13459 z m -26.86365,-13.62557 c -0.0859,-0.2102 -0.20242,-0.48801 -0.25896,-0.61736 -0.0565,-0.12935 -0.23489,-0.63206 -0.39633,-1.11713 -0.58005,-1.74283 -1.25756,-3.71506 -1.47445,-4.29213 -0.12154,-0.32338 -0.36201,-0.98484 -0.53438,-1.46991 -0.17237,-0.48507 -0.36916,-1.01423 -0.4373,-1.17592 -0.0681,-0.16169 -0.16446,-0.39982 -0.21404,-0.52917 -0.0496,-0.12935 -0.20257,-0.48879 -0.33999,-0.79875 -0.13743,-0.30996 -0.33816,-0.78621 -0.44609,-1.05833 -0.22806,-0.57504 -0.92529,-1.92091 -1.5767,-3.04353 -0.46058,-0.79375 -0.5773,-1.2747 -0.30843,-1.27095 0.24668,0.003 1.5197,2.31168 2.49573,4.52526 0.11407,0.25871 0.28579,0.64827 0.38159,0.86569 0.0958,0.21743 0.29814,0.7466 0.44962,1.17593 0.15149,0.42933 0.43986,1.2304 0.64083,1.78014 0.20097,0.54975 0.57654,1.63454 0.8346,2.41065 0.25806,0.77611 0.51468,1.51695 0.57027,1.6463 0.39979,0.93027 0.98757,3.35139 0.81363,3.35139 -0.0239,0 -0.11372,-0.17198 -0.1996,-0.38218 z m 27.99759,11.36344 c 0.2048,-0.0722 0.29376,-0.39793 0.10869,-0.39793 -0.0534,0 -0.22538,0.13955 -0.38218,0.31011 -0.15679,0.17056 -0.2057,0.27643 -0.10869,0.23526 0.097,-0.0412 0.26899,-0.10751 0.38218,-0.14744 z m -1.59703,-2.60575 c 0.14028,-0.0872 0.36904,-0.40109 0.50835,-0.69747 0.30135,-0.64108 0.49727,-0.85599 0.78629,-0.86249 0.13882,-0.003 0.30827,-0.20561 0.48156,-0.57544 0.14705,-0.31384 0.53717,-1.06573 0.86693,-1.67087 0.32976,-0.60515 0.83824,-1.55005 1.12994,-2.0998 0.50457,-0.9509 0.73857,-1.37814 1.4169,-2.58704 0.16331,-0.29104 0.40025,-0.71437 0.52652,-0.94074 0.12628,-0.22636 0.32924,-0.55203 0.45102,-0.72371 0.12178,-0.17167 0.22141,-0.34622 0.22141,-0.38788 0,-0.0417 0.82021,-1.25872 1.82269,-2.70457 1.00248,-1.44585 1.82268,-2.65853 1.82268,-2.69484 0,-0.0363 0.1558,-0.31168 0.34622,-0.61195 0.19042,-0.30026 0.3799,-0.7122 0.42106,-0.91542 0.0412,-0.20322 0.27584,-0.79283 0.5215,-1.31024 0.40453,-0.85198 0.77607,-1.88837 1.20069,-3.34921 0.20604,-0.70884 0.20433,-3.31155 -0.003,-4.00033 -0.4846,-1.61276 -1.23535,-2.55328 -3.48637,-4.36764 -0.25871,-0.20852 -0.94662,-0.8606 -1.52871,-1.44906 -1.96325,-1.98477 -2.89234,-4.01785 -3.83149,-8.38429 -0.0593,-0.2758 -0.10786,-0.72824 -0.10786,-1.00542 0,-0.27717 -0.0504,-0.55433 -0.11195,-0.61591 -0.063,-0.063 -0.13044,-1.4743 -0.15425,-3.22791 -0.0512,-3.77375 -0.20162,-4.57028 -1.31403,-6.95979 -1.16921,-2.51149 -3.19431,-4.44096 -5.35773,-5.10471 -0.60645,-0.18606 -3.13315,-0.22508 -3.69582,-0.0571 -2.94931,0.88065 -4.27026,1.41917 -4.68341,1.90932 -0.1136,0.13477 -0.51048,0.40209 -0.88195,0.59403 -1.44235,0.74529 -2.48797,1.78883 -3.06746,3.06138 -0.26284,0.5772 -0.33425,1.46854 -0.14625,1.82557 0.59573,1.13134 0.71576,1.57965 0.72458,2.70625 0.0117,1.4972 0.22166,2.75455 0.52022,3.11577 0.33429,0.40444 0.81794,0.69055 1.02987,0.60923 0.0996,-0.0382 0.21599,-0.013 0.25869,0.0561 0.21465,0.34731 1.32598,0.01 1.87904,-0.57032 0.36009,-0.37785 0.65416,-0.4719 0.65416,-0.20923 0,0.0842 -0.2204,0.37579 -0.48978,0.64786 -0.60009,0.60609 -1.22147,0.82169 -1.86958,0.6487 -0.51941,-0.13864 -0.49659,-0.16786 -0.69666,0.89189 -0.0811,0.42971 -0.29523,0.89275 -0.65895,1.42506 -0.59352,0.86865 -0.65709,1.32054 -0.19499,1.38617 0.20126,0.0286 0.26458,-0.0207 0.26458,-0.20579 0,-0.20097 0.0737,-0.24336 0.42282,-0.24336 0.24366,0 0.5727,0.10671 0.77651,0.25185 0.26856,0.19122 0.37561,0.21639 0.44472,0.10457 0.131,-0.21196 0.006,-0.58743 -0.24901,-0.74653 -0.30967,-0.19339 -0.27192,-0.43304 0.0682,-0.43304 0.63064,0 0.91323,1.18861 0.38239,1.60836 -0.22644,0.17906 -0.26293,0.29847 -0.22173,0.72572 0.0434,0.44988 0.0967,0.5312 0.44366,0.67615 0.21688,0.0906 0.57478,0.16477 0.79533,0.16477 0.22054,0 0.60286,0.0843 0.8496,0.18744 l 0.44862,0.18744 -0.34606,0.3142 c -0.66748,0.60601 -0.80401,0.81845 -0.64732,1.00724 0.0785,0.0946 0.21598,0.52196 0.30547,0.94966 0.18154,0.86766 0.48205,1.2242 1.03731,1.23066 0.40067,0.005 1.66089,-0.58028 2.07468,-0.96299 0.16169,-0.14954 0.63794,-0.51757 1.05833,-0.81784 1.15824,-0.82728 2.07808,-1.69808 2.57016,-2.43313 0.77061,-1.15108 1.3104,-2.6916 1.3104,-3.73976 0,-0.45755 -0.0256,-0.51662 -0.17124,-0.39572 -0.22755,0.18886 -0.41672,0.0567 -0.41672,-0.29113 0,-0.20459 0.1093,-0.33339 0.4,-0.47133 0.22,-0.1044 0.60078,-0.40682 0.84617,-0.67205 l 0.44618,-0.48223 0.006,-0.79466 c 0.007,-0.87413 -0.26261,-1.42527 -0.73148,-1.49527 -0.20779,-0.031 -0.18429,0.0268 0.15879,0.39055 0.3452,0.36603 0.40267,0.50889 0.40267,1.00102 0,0.62975 -0.20353,1.20403 -0.40244,1.13554 -0.14484,-0.0499 -0.15917,-0.60028 -0.0258,-0.98943 0.0687,-0.2005 0.0176,-0.33507 -0.2162,-0.56886 l -0.30622,-0.30622 -0.29691,0.19454 c -0.21786,0.14275 -0.33777,0.16063 -0.45038,0.0672 -0.11787,-0.0978 -0.18792,-0.0442 -0.30203,0.2313 -0.20981,0.50654 -0.62629,0.79979 -1.08548,0.7643 l -0.38356,-0.0296 -0.0588,-0.7717 c -0.0701,-0.9197 -0.34263,-1.35381 -1.01165,-1.61133 -1.18603,-0.45653 -1.51957,-0.83688 -2.10764,-2.40342 l -0.35587,-0.94797 -0.45301,-0.0374 c -0.52723,-0.0435 -0.88273,0.0874 -2.01025,0.74017 -1.31674,0.76234 -1.79798,0.95292 -2.68667,1.06396 l -0.66472,0.0831 v -0.35346 c 0,-0.30793 0.0492,-0.36129 0.38217,-0.41418 1.03024,-0.16369 1.98788,-0.56404 3.16894,-1.3248 0.41213,-0.26547 0.86734,-0.45386 1.1825,-0.48938 l 0.51242,-0.0578 -0.0499,-0.68969 c -0.0667,-0.9217 0.17319,-1.69814 0.69467,-2.24871 0.4897,-0.51701 0.81195,-0.58302 0.81195,-0.16632 0,0.18202 -0.14452,0.39027 -0.41292,0.59498 -0.51012,0.38909 -0.71583,0.86268 -0.78398,1.80488 l -0.0526,0.72789 0.39278,0.0737 c 0.39246,0.0736 0.69606,0.41865 0.56087,0.6374 -0.074,0.11964 0.15438,0.91054 0.31991,1.10813 0.0515,0.0614 0.0936,0.20284 0.0936,0.31422 0,0.22287 0.8928,1.04397 1.13514,1.04397 0.0836,0 0.3782,0.12702 0.65458,0.28226 0.60517,0.33992 1.02435,1.07509 1.02919,1.80501 0.003,0.44039 0.0351,0.49977 0.27055,0.49977 0.18959,0 0.33397,-0.12813 0.49689,-0.44097 0.70664,-1.35691 1.13139,-1.68813 1.8575,-1.4485 0.77883,0.25704 1.25893,1.05958 1.25893,2.10446 0,0.86762 -0.22234,1.41262 -0.85745,2.10175 l -0.49487,0.53698 0.0405,0.63384 c 0.062,0.97123 -0.30627,2.38748 -0.93969,3.61398 l -0.35776,0.69274 0.25791,0.81719 c 0.14185,0.44946 0.30262,1.09022 0.35727,1.42393 0.0546,0.3337 0.13332,0.74356 0.17482,0.9108 0.12385,0.49904 -0.24902,1.0116 -2.98097,4.09776 -1.83457,2.07242 -3.38362,4.14685 -4.26474,5.71113 -1.36625,2.4256 -2.45923,4.52006 -2.45458,4.70371 0.002,0.0647 0.35645,0.35572 0.78847,0.64676 0.80794,0.54428 2.63019,1.87132 2.73484,1.99162 0.0323,0.0372 0.244,0.20902 0.47037,0.38188 0.22637,0.17286 0.57032,0.45596 0.76435,0.62911 0.19403,0.17314 0.9084,0.74267 1.5875,1.26562 0.6791,0.52294 1.39878,1.08621 1.5993,1.2517 0.20051,0.1655 0.59739,0.48345 0.88194,0.70655 0.28456,0.22311 0.9574,0.85024 1.4952,1.39363 0.53781,0.54338 0.991,0.96938 1.00709,0.94666 0.12837,-0.18121 0.50729,-1.91696 0.77914,-3.56909 0.0745,-0.45273 0.18421,-1.01449 0.2438,-1.24836 0.0596,-0.23387 0.10835,-0.57407 0.10835,-0.756 0,-0.18194 0.0488,-0.4933 0.10857,-0.69192 0.0597,-0.19862 0.17213,-0.65217 0.24982,-1.00788 0.14233,-0.65172 0.6137,-2.18494 0.82246,-2.67523 0.062,-0.14553 0.16012,-0.38365 0.21812,-0.52917 0.57147,-1.43378 0.7795,-1.89526 2.172,-4.81829 0.29962,-0.62893 0.54477,-1.19778 0.54477,-1.26412 0,-0.0663 0.0221,-0.1206 0.0492,-0.1206 0.027,0 0.13288,-0.0321 0.23518,-0.0714 0.41752,-0.16022 0.19681,0.73623 -0.58716,2.38484 -1.27538,2.68201 -1.55113,3.29374 -1.92553,4.27172 -0.13618,0.35572 -0.29559,0.7526 -0.35424,0.88195 -0.35591,0.78499 -0.92799,2.92321 -1.17983,4.40972 -0.55044,3.2491 -0.69512,3.9963 -1.00805,5.206 -0.20019,0.77386 -0.36272,1.06557 -0.53454,0.95938 -0.0573,-0.0354 -0.10427,-0.18513 -0.10427,-0.33264 0,-0.41419 -1.66341,-2.05805 -3.58178,-3.53968 -0.25122,-0.19403 -1.38092,-1.09361 -2.51045,-1.99908 -2.74082,-2.19712 -4.01146,-3.11579 -6.41385,-4.63718 -1.10913,-0.7024 -2.16845,-1.42804 -2.35403,-1.61254 -0.18558,-0.18451 -0.66832,-1.0249 -1.07276,-1.86755 -0.40443,-0.84265 -1.00226,-1.88475 -1.32851,-2.31579 -0.91931,-1.21457 -2.93071,-3.0827 -3.24251,-3.01156 -0.27719,0.0633 0.0883,0.95626 0.81278,1.98595 0.63732,0.9058 0.86572,1.44208 0.66659,1.56515 -0.26081,0.16118 -1.73959,-0.7367 -4.24711,-2.57876 -0.78513,-0.57677 -1.30522,-0.79506 -1.30522,-0.54783 0,0.0503 0.11906,0.19067 0.26458,0.31194 0.14552,0.12127 0.50367,0.4373 0.79588,0.70229 0.96263,0.87296 1.50628,1.32057 2.09753,1.72698 0.7334,0.50412 0.87728,0.71698 0.67325,0.996 l -0.15284,0.20902 -0.39869,-0.27869 c -0.21928,-0.15328 -0.42515,-0.308 -0.45749,-0.34382 -0.0323,-0.0358 -0.24401,-0.20496 -0.47037,-0.37585 -0.22637,-0.1709 -0.51825,-0.40873 -0.64863,-0.5285 -1.72309,-1.58299 -3.11434,-2.41102 -3.11434,-1.85358 0,0.21218 1.81525,1.99864 2.52825,2.48814 0.2587,0.17761 0.49682,0.35 0.52916,0.38309 0.0323,0.0331 0.32338,0.19199 0.64676,0.35311 0.60253,0.3002 0.85316,0.75029 0.49445,0.88794 -0.35109,0.13473 -1.92645,-0.88979 -3.03823,-1.97587 -0.70416,-0.68789 -1.27621,-0.99983 -1.53746,-0.83837 -0.17055,0.10541 0.19744,0.65172 0.60802,0.90263 0.74895,0.4577 3.4704,2.35865 3.55962,2.48641 0.13727,0.19659 0.10401,0.41971 -0.0727,0.48751 -0.13863,0.0532 -1.42698,-0.66338 -1.60122,-0.8906 -0.0323,-0.0422 -0.29692,-0.24094 -0.58796,-0.4417 -0.29104,-0.20077 -0.70708,-0.53044 -0.92452,-0.7326 -0.43751,-0.40676 -0.64348,-0.41233 -0.70124,-0.019 -0.0289,0.19676 0.21256,0.50692 0.98587,1.26643 1.07737,1.05814 1.73313,1.52279 2.99174,2.11985 3.16284,1.50038 3.56205,1.73447 4.57852,2.68471 1.44374,1.34967 2.41078,2.33184 3.41744,3.47093 2.82445,3.19601 3.67004,4.02221 7.76145,7.58353 1.26118,1.09778 2.35333,2.04941 2.427,2.11474 0.0737,0.0653 0.61557,0.58941 1.20424,1.16465 l 1.07029,1.04589 1.08882,-0.0973 c 1.48031,-0.13223 1.7392,-0.12357 2.13955,0.0715 0.4388,0.21384 0.58469,0.70781 0.36461,1.23454 -0.21155,0.50631 -0.54307,0.69937 -1.49941,0.87314 -0.86277,0.15677 -0.87082,0.21574 -0.0939,0.6882 0.40332,0.24527 0.60432,0.21478 1.2562,-0.19058 z m 0.56809,-40.83279 c -1.02469,-0.12271 -2.34268,-0.59546 -2.39119,-0.8577 -0.0907,-0.49018 0.0472,-0.55005 0.70885,-0.30761 0.3432,0.12576 1.05545,0.30975 1.58276,0.40885 0.84843,0.15945 1.0445,0.16037 1.70386,0.008 0.7501,-0.17329 0.91721,-0.13037 0.92216,0.23684 0.006,0.41498 -1.2351,0.66621 -2.52644,0.51157 z m -15.11065,-3.44982 c 0,-0.26957 0.69497,-0.90321 1.25297,-1.14239 0.6989,-0.29959 2.05146,-0.31063 2.62059,-0.0214 0.48983,0.24894 0.65915,0.58154 0.22853,0.44892 -1.57476,-0.48501 -2.66428,-0.29486 -3.45907,0.6037 -0.26223,0.29646 -0.64302,0.36229 -0.64302,0.11117 z m 16.04006,-3.57141 c -0.007,-0.89256 -0.0672,-1.2998 -0.26977,-1.8206 -0.23975,-0.61625 -0.9486,-1.5046 -1.20057,-1.5046 -0.11937,0 -0.14564,-0.50895 -0.0321,-0.62247 0.14201,-0.14201 0.75734,0.28263 1.105,0.76257 0.55337,0.76391 0.83544,1.89114 0.7954,3.17873 -0.0267,0.85895 -0.0713,1.09536 -0.2115,1.12216 -0.14822,0.0283 -0.17912,-0.15658 -0.18644,-1.11579 z m -7.95397,46.06328 c 0.1123,-0.0649 0.72276,-0.23884 1.35656,-0.38653 l 1.15237,-0.26854 -0.79959,-0.76178 c -0.64785,-0.61721 -2.79556,-2.51996 -4.9032,-4.34396 -1.19636,-1.03535 -1.70923,-1.51586 -3.13589,-2.93807 -0.87728,-0.87453 -1.95327,-1.98694 -2.39109,-2.472 l -0.79604,-0.88195 0.0945,0.64676 c 0.1471,1.00718 0.1154,5.09122 -0.0507,6.52639 -0.0823,0.71143 -0.18086,1.61513 -0.21897,2.00821 l -0.0693,0.71469 0.33785,0.12326 c 0.18582,0.0678 0.60244,0.1806 0.92582,0.25068 1.04315,0.22604 2.2236,0.49562 2.64583,0.60421 0.22637,0.0582 0.67616,0.16546 0.99954,0.2383 0.32338,0.0728 0.77317,0.18059 0.99954,0.23944 0.57728,0.15008 3.29709,0.7655 3.55877,0.80525 0.0494,0.008 0.18167,-0.0395 0.29398,-0.10436 z m -9.15337,-20.87815 c 0.01,-0.7576 -0.11406,-0.99366 -0.52022,-0.99366 -0.13582,0 -0.31044,-0.0635 -0.38805,-0.14111 -0.17642,-0.17641 -0.18547,-1.06102 -0.0126,-1.23386 0.57275,-0.57274 -3.10655,-3.41226 -5.00858,-3.86539 l -0.35277,-0.0841 0.35277,0.27869 c 0.61043,0.48222 2.76182,2.70795 3.11824,3.22599 0.18768,0.27279 0.66099,1.16253 1.0518,1.9772 0.39081,0.81467 0.88009,1.6743 1.08729,1.91028 l 0.37672,0.42906 0.14324,-0.39586 c 0.0788,-0.21772 0.14727,-0.716 0.15219,-1.10729 z m 4.18349,-13.69366 0.33798,-0.35278 h -0.3523 c -0.45308,0 -0.81183,0.25732 -0.71404,0.51216 0.1105,0.28795 0.35,0.23554 0.72836,-0.15938 z m -0.9138,-0.7766 c -0.0391,-0.0391 -0.1405,-0.0433 -0.22538,-0.009 -0.0938,0.0375 -0.0659,0.0654 0.071,0.071 0.12397,0.005 0.19342,-0.0227 0.15434,-0.0618 z m -24.86835,-2.38079 c 0.0744,-0.0744 0.223,-0.1352 0.33031,-0.1352 0.25853,0 1.24083,-0.8721 1.43232,-1.27164 0.0891,-0.18595 0.24747,-0.31586 0.38499,-0.31586 0.2523,0 0.39881,-0.2437 0.70699,-1.17593 0.63965,-1.93491 0.81565,-3.53547 0.47771,-4.34427 -0.1867,-0.44683 -0.68176,-0.72622 -1.42147,-0.80221 -0.2587,-0.0266 -0.55962,-0.0877 -0.6687,-0.13588 -0.14791,-0.0653 -0.26751,0.0192 -0.47037,0.33229 -0.14962,0.23092 -0.30531,0.4205 -0.34597,0.4213 -0.0407,8e-4 -0.13681,-0.15035 -0.21366,-0.33588 -0.0769,-0.18554 -0.31489,-0.50712 -0.52897,-0.71461 l -0.38924,-0.37727 -0.51423,0.14636 c -0.28283,0.0805 -0.64942,0.26979 -0.81465,0.42063 -0.37999,0.34691 -0.86394,0.35568 -1.09912,0.0199 -0.24294,-0.34685 -0.13876,-0.45659 0.2825,-0.29758 0.28854,0.10891 0.38544,0.0992 0.53858,-0.0539 l 0.18674,-0.18674 -0.31589,-0.31589 c -0.1976,-0.1976 -0.29425,-0.39863 -0.25811,-0.53684 0.0318,-0.12153 -0.006,-0.24539 -0.0837,-0.27524 -0.33678,-0.12923 -0.8323,0.11405 -1.54162,0.75686 -0.41802,0.37883 -0.88992,0.72137 -1.04866,0.76121 l -0.28863,0.0724 -0.0349,0.6648 c -0.0408,0.77699 -0.24117,0.88163 -0.33546,0.17521 -0.0776,-0.5814 -0.27177,-0.84346 -0.78342,-1.05733 -0.51489,-0.21523 -0.50355,-0.22319 -0.50355,0.35335 0,0.395 0.0871,0.62668 0.38218,1.01708 0.21019,0.27806 0.43322,0.5745 0.49561,0.65876 0.0624,0.0843 0.0705,0.19543 0.0181,0.24704 -0.0525,0.0516 -0.35486,-0.18767 -0.672,-0.53173 l -0.57663,-0.62556 v -0.56718 c 0,-0.34555 -0.0574,-0.58902 -0.14699,-0.62306 -0.19354,-0.0736 -1.18381,0.18736 -1.86727,0.49204 -0.40841,0.18207 -0.73143,0.47926 -1.29351,1.1901 -0.41205,0.52108 -0.9209,1.14321 -1.13078,1.38249 -0.46632,0.53163 -0.47752,0.67977 -0.0594,0.78471 0.45135,0.11329 1.7933,0.79253 1.7933,0.9077 0,0.0522 0.0567,0.095 0.12595,0.095 0.0693,0 0.74396,0.47125 1.49931,1.04722 2.02239,1.54213 4.1199,2.54637 6.01826,2.88139 0.5605,0.0989 2.59739,-0.0114 2.73406,-0.14804 z m 0.77218,-8.49349 c 0.11784,-0.18869 0.12101,-0.28251 0.0139,-0.41158 -0.22802,-0.27475 -0.34513,-0.19182 -0.34513,0.2444 0,0.46772 0.10915,0.5228 0.33124,0.16718 z m -0.82637,-0.3905 c -0.0834,-0.0905 -0.17015,-0.14693 -0.1928,-0.12542 -0.0697,0.0663 0.10703,0.28995 0.22914,0.28995 0.0634,0 0.0471,-0.074 -0.0363,-0.16453 z"
       id="path35" /></g></svg>
