<?xml version="1.0" encoding="UTF-8" standalone="no"?>
<!-- Created with Inkscape (http://www.inkscape.org/) -->

<svg
   width="129.22884mm"
   height="84.813698mm"
   viewBox="0 0 129.22885 84.813697"
   version="1.1"
   id="svg1"
   xml:space="preserve"
   xmlns="http://www.w3.org/2000/svg"
   xmlns:svg="http://www.w3.org/2000/svg"><defs
     id="defs1" /><g
     id="layer1"
     transform="translate(581.88488,-1529.0069)"><path
       style="fill:#4d4d4d"
       d="m -557.02298,1613.3547 c 3.8e-4,-0.2425 1.191,-1.527 2.64583,-2.8543 1.45483,-1.3273 2.64497,-2.5179 2.64477,-2.6458 -2e-4,-0.1279 -1.18621,-0.2571 -2.63558,-0.2871 -3.06058,-0.063 -6.71117,-0.6178 -10.32215,-1.5675 -2.85118,-0.7499 -4.40792,-0.8418 -5.38644,-0.3182 -0.85963,0.4601 -2.31754,-0.087 -2.54447,-0.9547 -0.11122,-0.4253 -1.07366,-1.01 -2.73606,-1.6623 -2.95704,-1.1601 -4.67744,-2.5328 -5.74226,-4.5816 -0.91034,-1.7515 -1.05799,-6.6599 -0.29282,-9.7347 2.33199,-9.3713 10.51045,-19.1853 16.56787,-19.8812 0.83328,-0.096 1.54666,-0.2257 1.5853,-0.2888 0.0386,-0.063 0.50347,-0.7035 1.03296,-1.4231 1.03751,-1.41 3.87689,-6.709 4.21378,-7.8639 0.1132,-0.388 1.15042,-3.0074 2.30493,-5.8208 2.03755,-4.9653 3.28821,-7.3864 5.40397,-10.4616 0.56143,-0.816 1.02078,-1.8605 1.02078,-2.3211 0,-0.4606 0.46711,-1.5741 1.03801,-2.4743 1.20167,-1.8948 2.49608,-2.3396 4.91396,-1.6885 2.939,0.7913 8.44071,7.0391 9.59693,10.8982 0.45905,1.5322 3.02303,4.2834 3.99187,4.2834 0.50429,0 2.68423,-2.6681 2.68423,-3.2853 0,-0.5004 3.19003,-5.1814 3.5311,-5.1814 0.16605,0 0.40924,-0.3572 0.54042,-0.7937 0.35921,-1.1955 2.60641,-3.3982 4.39515,-4.3082 2.02335,-1.0293 4.72219,-1.6009 7.55889,-1.6009 1.61693,0 2.36178,-0.1557 2.70137,-0.5649 0.25788,-0.3108 1.28904,-1.0896 2.29146,-1.7309 1.00241,-0.6412 2.38097,-1.7243 3.06345,-2.4067 2.99867,-2.9987 6.44004,-3.6144 10.27496,-1.8384 1.50946,0.699 2.37773,0.9014 3.175,0.74 0.60355,-0.1222 3.08174,-0.3716 5.50709,-0.5544 l 4.40972,-0.3322 0.94602,1.0967 c 0.67519,0.7827 1.06396,1.7959 1.35799,3.5391 0.42749,2.5344 1.1,3.5597 2.75989,4.2075 0.4568,0.1783 3.35285,0.9584 6.43566,1.7334 3.0828,0.7751 6.3603,1.7592 7.28333,2.1871 1.89445,0.878 4.6616,3.5793 5.99371,5.851 3.5506,6.0551 2.68664,16.3075 -2.37195,28.1475 -1.75308,4.1032 -2.70267,5.6485 -4.37138,7.1136 -3.37285,2.9614 -16.28505,7.5106 -31.7916,11.2006 -2.91042,0.6926 -6.24417,1.5163 -7.40833,1.8305 -1.16417,0.3143 -2.75167,0.6828 -3.52778,0.8191 -0.77611,0.1363 -3.95111,0.8202 -7.05556,1.5199 -8.34334,1.8805 -8.36862,1.886 -14.2875,3.0783 -3.00743,0.6058 -6.73805,1.3934 -8.29027,1.7501 -1.55223,0.3567 -3.81441,0.8394 -5.02709,1.0726 l -2.20486,0.424 v 2.0848 c 0,2.3705 -0.84467,4.3822 -2.33079,5.5512 -0.86204,0.6781 -2.6081,1.0294 -2.6081,0.5248 0,-0.1177 0.79375,-0.9592 1.76389,-1.87 1.42587,-1.3387 1.77017,-1.8892 1.79668,-2.8728 0.018,-0.6692 0.0577,-2.9782 0.0882,-5.131 0.0322,-2.2719 0.22108,-4.1222 0.45024,-4.4098 0.21716,-0.2724 0.47175,-1.2098 0.56575,-2.0829 0.094,-0.8731 0.84634,-3.2544 1.67184,-5.2916 2.23897,-5.5257 2.47484,-6.5223 2.47904,-10.4744 0.002,-1.9773 0.1585,-3.6907 0.34757,-3.8076 0.18906,-0.1168 1.81624,0.2038 3.61597,0.7125 3.90539,1.1039 10.29569,1.538 13.32639,0.9053 2.37531,-0.4959 5.46525,-2.0221 7.54622,-3.7273 1.39005,-1.1391 5.41733,-6.4202 5.1021,-6.6906 -0.0686,-0.059 -2.82346,-0.2114 -6.12193,-0.3391 -3.29847,-0.1276 -8.53722,-0.4067 -11.64167,-0.6203 -8.33857,-0.5736 -11.40455,-0.4978 -15.16944,0.3751 -2.70898,0.628 -2.90871,0.7156 -3.11318,1.3648 -1.29258,4.1043 -1.32751,4.4799 -1.30779,14.0606 0.0217,10.5413 -0.26597,13.6235 -1.53294,16.4238 -0.46564,1.0292 -0.9546,2.3795 -1.08659,3.0007 -0.38029,1.7897 -2.66686,4.9899 -5.68375,7.9547 -2.57891,2.5343 -4.03369,3.3617 -4.032,2.293 z m -5.19746,-8.6099 c -0.23884,-0.097 -0.71509,-0.1025 -1.05833,-0.013 -0.34324,0.089 -0.14782,0.1685 0.43426,0.1757 0.58208,0.01 0.86292,-0.066 0.62407,-0.1627 z m 22.73998,-1.1131 c 0.321,-0.2039 0.25235,-0.4305 -0.26459,-0.8731 -0.38394,-0.3287 -0.69807,-0.828 -0.69807,-1.1095 0,-0.2815 -0.15875,-0.6099 -0.35278,-0.7298 -0.21548,-0.1332 -0.35278,0.4079 -0.35278,1.3903 0,1.6424 0.51792,2.0529 1.66822,1.3221 z m -32.90947,-1.5659 c 2.44008,-8.0401 3.48515,-10.1225 6.93167,-13.8119 3.89339,-4.1678 10.06433,-6.815 16.24067,-6.9669 l 2.77725,-0.068 v -1.9292 -1.9293 l -2.91042,0.1886 c -4.88867,0.3168 -12.39111,2.5248 -15.24049,4.4852 -2.47897,1.7056 -7.24909,7.4582 -7.24909,8.7422 0,0.2472 -0.30908,1.1224 -0.68683,1.9449 -0.93999,2.0467 -1.86528,6.8393 -1.57708,8.1687 0.31113,1.435 1.40747,2.1872 1.71432,1.1761 z m -4.75677,-1.5875 c -0.035,-0.6309 -2.40181,-2.9287 -2.63238,-2.5556 -0.13435,0.2174 0.0491,0.7398 0.40765,1.161 1.18478,1.3916 2.26205,2.067 2.22473,1.3946 z m 59.81052,-14.3856 c 4.55099,-1.8914 8.07294,-3.5676 9.79322,-4.6608 3.19919,-2.033 6.95294,-5.4951 9.25678,-8.5376 0.77611,-1.0249 1.57264,-2.0442 1.77006,-2.2651 0.62553,-0.6998 2.99244,-4.0993 2.99244,-4.2978 0,-0.1048 0.15609,-0.3822 0.34686,-0.6166 0.19077,-0.2343 1.24905,-1.7754 2.35172,-3.4247 1.10267,-1.6492 2.13721,-3.0515 2.29897,-3.1162 0.16177,-0.065 0.29412,-0.2808 0.29412,-0.4802 0,-0.306 2.0932,-3.0298 3.37394,-4.3904 0.20817,-0.2212 0.76451,-0.8562 1.23631,-1.4111 3.08217,-3.6254 9.37465,-6.7747 13.74915,-6.8812 4.49933,-0.1096 6.83035,0.7405 9.24192,3.3702 1.14191,1.2452 1.66139,2.1093 3.11599,5.1832 0.99148,2.0952 1.2203,13.1052 0.33603,16.169 -0.5016,1.738 -0.20103,1.7232 0.49828,-0.024 1.99076,-4.9754 2.86385,-12.8531 1.91839,-17.3091 -0.79041,-3.7252 -3.16905,-7.1688 -5.66464,-8.2008 -0.71434,-0.2954 -1.39196,-0.6878 -1.50582,-0.8721 -0.42303,-0.6844 -4.30637,-1.5605 -6.89677,-1.5558 -2.86545,0.01 -6.93505,1.2356 -8.99584,2.7198 -0.58208,0.4192 -1.5108,0.9927 -2.06382,1.2745 -0.55302,0.2818 -1.74365,1.2072 -2.64583,2.0565 -0.90219,0.8493 -2.19597,1.964 -2.87507,2.4771 -1.61397,1.2195 -1.66022,1.2924 -2.3451,3.6979 -0.68851,2.4182 -1.95327,3.8308 -4.46275,4.9841 -0.96565,0.4438 -1.55741,0.873 -1.31501,0.9538 0.28235,0.094 -0.34231,1.2831 -1.7383,3.3088 -1.19847,1.739 -3.07497,4.5112 -4.17001,6.1604 -2.85149,4.2946 -4.44525,6.1004 -6.82669,7.7346 -1.15216,0.7907 -2.15399,1.4376 -2.22627,1.4376 -0.0723,0 -1.06932,0.5302 -2.21565,1.1781 -2.69423,1.5229 -7.648,2.5376 -10.77761,2.2077 -2.36261,-0.249 -12.26637,-2.5402 -13.57555,-3.1406 -0.43627,-0.2001 -0.84868,-0.2974 -0.91647,-0.2163 -0.0678,0.081 -0.0507,1.1999 0.0379,2.4861 l 0.1611,2.3385 1.60172,0.2196 c 0.88095,0.1207 1.77649,0.3514 1.99009,0.5126 0.40917,0.3088 3.07248,0.9603 6.03282,1.4757 2.4972,0.4348 7.15459,0.147 8.81944,-0.5449 z m -51.99917,-3.0368 c 1.60414,-0.5364 4.0721,-2.4157 7.86644,-5.9901 1.72672,-1.6267 3.43328,-3.1651 3.79236,-3.4186 0.36957,-0.2609 0.65287,-0.8887 0.65287,-1.4468 0,-1.9044 1.42252,-4.0987 6.04875,-9.3305 3.0483,-3.4473 4.35888,-5.6936 4.71765,-8.0861 0.42103,-2.8076 1.25858,-2.9003 2.30265,-0.2548 0.26801,0.6791 0.85024,1.7728 1.29384,2.4305 0.44361,0.6577 0.80656,1.4766 0.80656,1.8199 0,0.7521 7.51064,7.9663 7.70053,7.3966 0.0731,-0.2194 -0.15445,-0.7165 -0.50575,-1.1047 -0.88903,-0.9824 -0.27122,-1.867 1.40319,-2.0092 1.31911,-0.112 1.46853,-0.772 0.17478,-0.772 -0.48671,0 -0.67327,-0.1945 -0.59213,-0.6173 0.0945,-0.4924 0.65112,-0.6706 2.74884,-0.8801 3.06996,-0.3066 4.96073,-0.8636 5.52108,-1.6266 0.33044,-0.45 -0.41824,-1.3362 -4.34879,-5.148 -2.61137,-2.5324 -5.01349,-4.747 -5.33804,-4.9213 -0.32456,-0.1743 -2.13502,-1.3253 -4.02324,-2.5577 -1.88823,-1.2323 -3.6648,-2.2406 -3.94793,-2.2406 -0.28314,0 -0.60023,-0.1383 -0.70466,-0.3073 -0.20646,-0.334 -1.84767,-0.7813 -3.60768,-0.9831 -1.00119,-0.1148 -1.23035,0.055 -2.33627,1.7281 -1.69453,2.5639 -3.05639,5.3637 -5.02089,10.322 -2.64977,6.6879 -6.67731,14.2875 -7.57192,14.2875 -0.1228,0 -0.4246,0.5567 -0.67066,1.2372 -0.24606,0.6805 -1.80223,2.8633 -3.45816,4.8507 -3.66524,4.3989 -4.70286,5.973 -4.70286,7.1342 0,1.0083 0.13441,1.0447 1.79944,0.4881 z m 29.59778,-25.7047 c 0,-0.194 0.16812,-0.3527 0.3736,-0.3527 0.20548,0 0.27549,0.1587 0.15557,0.3527 -0.11992,0.1941 -0.28803,0.3528 -0.3736,0.3528 -0.0856,0 -0.15557,-0.1587 -0.15557,-0.3528 z m 25.92917,21.5195 c 0.27594,-0.4465 -0.19107,-0.4465 -0.88194,0 -0.45604,0.2947 -0.44672,0.3427 0.0674,0.3474 0.3281,0 0.69465,-0.1534 0.81457,-0.3474 z m -42.8625,-3.5402 c 0,-0.4672 -0.47772,-0.4271 -0.98778,0.083 -0.6659,0.6659 -0.49481,1.0508 0.28222,0.635 0.38806,-0.2077 0.70556,-0.5308 0.70556,-0.718 z m -9.51394,-4.0828 c 1.71951,-0.6183 2.5184,-1.4643 0.95908,-1.0156 -2.02829,0.5836 -4.46087,2.0483 -5.90903,3.5578 l -1.5875,1.6548 2.39232,-1.7833 c 1.31577,-0.9809 3.18108,-2.067 4.14513,-2.4137 z m 15.30246,0.2341 c 1.34043,-0.1886 2.60233,-0.5081 2.80424,-0.71 0.2019,-0.2019 0.39569,-1.5976 0.43064,-3.1015 0.0476,-2.0497 0.33921,-3.5071 1.16452,-5.8205 1.47709,-4.1404 1.4552,-5.3128 -0.0498,-2.6659 -0.62827,1.105 -2.41232,3.4488 -3.96454,5.2085 -2.40901,2.7309 -5.09685,6.6692 -5.11107,7.4887 -0.004,0.2456 0.36231,0.2146 4.72598,-0.3993 z m 9.99829,-4.449 c 0.82461,-0.1269 1.4993,-0.3359 1.4993,-0.4645 0,-0.1286 -0.42363,-0.8573 -0.9414,-1.6192 -0.51777,-0.762 -1.2132,-2.2673 -1.54539,-3.3451 -0.50234,-1.6299 -0.75272,-1.9778 -1.48774,-2.0675 -0.81152,-0.099 -0.95105,0.103 -1.70688,2.4695 -1.64056,5.1366 -1.58188,5.4572 0.97709,5.3373 0.93814,-0.044 2.3804,-0.1837 3.20502,-0.3105 z m 37.08368,-0.1804 c 2.21893,-0.4655 3.5642,-1.4164 6.65582,-4.7047 2.02759,-2.1565 3.16676,-3.0709 4.38605,-3.5203 1.35707,-0.5002 2.75865,-1.7729 2.95942,-2.6873 0.0213,-0.097 0.25301,-0.6526 0.51491,-1.2347 0.65303,-1.4514 0.68863,-7.6295 0.0484,-8.401 -0.38754,-0.4669 -1.03484,-0.5482 -3.52778,-0.4432 -1.67923,0.071 -3.31065,0.2334 -3.62536,0.3616 -0.35456,0.1445 -0.65578,0.8428 -0.79191,1.836 -0.88438,6.4523 -5.38372,12.088 -11.44919,14.3409 -1.59472,0.5924 -2.94869,0.7623 -6.63785,0.8332 -4.55695,0.088 -4.65567,0.073 -5.90095,-0.8678 -0.69656,-0.5263 -1.46761,-1.3935 -1.71344,-1.9271 -0.52471,-1.1388 -1.00191,-1.2286 -1.58323,-0.2978 -0.39934,0.6395 -1.45131,1.0873 -3.80678,1.6206 l -1.05833,0.2396 0.96341,0.4095 c 1.29321,0.5495 0.76462,1.3878 -0.91186,1.446 -1.71606,0.06 -1.93099,0.4176 -0.42078,0.7009 1.83526,0.3443 1.66309,1.2492 -0.24813,1.3042 -2.67317,0.077 9.958,0.9437 16.4321,1.1276 3.45936,0.098 6.3922,0.2811 6.51742,0.4064 0.12522,0.1252 0.54921,0.1271 0.9422,0 0.39299,-0.1229 1.40812,-0.3689 2.25585,-0.5468 z m 1.2809,-7.0317 c 0.11991,-0.1941 0.28803,-0.3528 0.3736,-0.3528 0.0856,0 0.15557,0.1587 0.15557,0.3528 0,0.194 -0.16812,0.3528 -0.3736,0.3528 -0.20548,0 -0.27549,-0.1588 -0.15557,-0.3528 z m 0.88194,-0.7056 c 0,-0.194 0.23813,-0.3528 0.52917,-0.3528 0.29104,0 0.52917,0.1588 0.52917,0.3528 0,0.194 -0.23813,0.3528 -0.52917,0.3528 -0.29104,0 -0.52917,-0.1588 -0.52917,-0.3528 z m 2.64584,-3.5278 c 0.11991,-0.194 0.28803,-0.3527 0.37359,-0.3527 0.0856,0 0.15557,0.1587 0.15557,0.3527 0,0.1941 -0.16812,0.3528 -0.37359,0.3528 -0.20548,0 -0.27549,-0.1587 -0.15557,-0.3528 z m -37.73035,11.0189 c 0.22444,-0.1573 -0.29645,-0.8931 -1.32594,-1.873 -0.93258,-0.8876 -1.76843,-1.541 -1.85744,-1.452 -0.16943,0.1694 2.33057,3.5579 2.63734,3.5746 0.097,0.01 0.34273,-0.107 0.54604,-0.2496 z m 4.39285,-1.8466 c 0,-0.1941 -0.16812,-0.3528 -0.3736,-0.3528 -0.20548,0 -0.27549,0.1587 -0.15557,0.3528 0.11992,0.194 0.28803,0.3527 0.3736,0.3527 0.0856,0 0.15557,-0.1587 0.15557,-0.3527 z m 24.98259,-4.4522 c 4.40654,-2.1194 7.37306,-5.9347 8.52583,-10.9651 0.59038,-2.5763 0.34053,-2.8167 -1.93481,-1.8614 -0.38806,0.1629 -1.34056,0.488 -2.11667,0.7225 -0.77611,0.2345 -1.80799,0.6878 -2.29305,1.0074 -0.48507,0.3196 -1.32485,0.8041 -1.86617,1.0765 -1.48184,0.7459 -5.0099,4.0586 -6.71616,6.3062 -1.70511,2.2461 -3.46283,5.1755 -3.23944,5.3989 0.0814,0.081 1.6833,0.024 3.5598,-0.1266 2.86821,-0.2309 3.83705,-0.4792 6.08067,-1.5584 z m 4.47435,-5.0728 c -0.11992,-0.1941 -0.0499,-0.3528 0.15557,-0.3528 0.20548,0 0.3736,0.1587 0.3736,0.3528 0,0.194 -0.07,0.3527 -0.15557,0.3527 -0.0856,0 -0.25368,-0.1587 -0.3736,-0.3527 z m 1.23472,-3.175 c 0,-0.1941 0.15875,-0.3528 0.35278,-0.3528 0.19403,0 0.35278,0.1587 0.35278,0.3528 0,0.194 -0.15875,0.3527 -0.35278,0.3527 -0.19403,0 -0.35278,-0.1587 -0.35278,-0.3527 z m -16.4508,8.5918 c 0.92195,-1.9333 3.50117,-5.4203 5.59739,-7.5674 3.60562,-3.693 8.59385,-6.5438 12.872,-7.3563 0.92707,-0.1761 2.1535,-0.5631 2.7254,-0.8601 0.74263,-0.3857 2.05337,-0.5336 4.58611,-0.5175 2.82571,0.018 4.22178,-0.1687 6.87065,-0.919 5.45987,-1.5466 6.45657,-2.3544 5.55783,-4.5045 -0.73172,-1.7505 -1.52186,-2.2885 -2.47264,-1.6838 -3.3759,2.1474 -6.54747,2.7761 -10.89838,2.1607 -7.9641,-1.1267 -15.74346,-1.4695 -17.55978,-0.7738 -2.80044,1.0726 -4.63077,1.9461 -4.99329,2.3829 -0.45948,0.5536 -1.70949,0.6202 -1.70949,0.091 0,-0.205 0.51594,-0.856 1.14653,-1.4468 1.08427,-1.0157 1.09863,-1.0605 0.26458,-0.8238 -2.2703,0.6442 -3.78286,1.8812 -6.23864,5.102 -1.3961,1.8311 -2.73995,3.7334 -2.98634,4.2276 -0.24638,0.4941 -0.94518,1.6127 -1.55288,2.4859 -1.67994,2.4136 -1.70075,2.6643 -0.32911,3.9642 0.66805,0.633 1.81606,1.5168 2.55115,1.964 0.73509,0.4471 1.72929,1.3861 2.20934,2.0867 1.14895,1.6768 2.76355,3.2739 3.30967,3.2739 0.24018,0 0.71264,-0.5786 1.0499,-1.2859 z m -25.66939,-3.2046 c -0.35861,-0.3586 -0.65449,0.1813 -0.36027,0.6573 0.22227,0.3597 0.30536,0.3599 0.42485,0 0.0817,-0.2452 0.0526,-0.5416 -0.0646,-0.6588 z m 8.6063,-10.3669 c 0,-0.2164 -0.72395,-1.4825 -1.60878,-2.8135 -3.98306,-5.9913 -9.38974,-8.2713 -10.70019,-4.5121 -0.55073,1.5798 -0.50684,1.7219 0.53177,1.7219 1.72466,0 4.41088,1.229 7.83366,3.5839 3.59668,2.4747 3.94354,2.6523 3.94354,2.0198 z m 50.8807,-10.4878 c 1.07001,-0.6122 2.28333,-1.1131 2.69627,-1.1131 1.08309,0 0.98107,-1.4361 -0.2019,-2.842 l -0.95271,-1.1322 -2.66326,0.2193 c -1.46479,0.1206 -3.37764,0.436 -4.25076,0.7009 -1.31568,0.3991 -1.60699,0.6453 -1.70133,1.4378 -0.0626,0.5259 0.15061,1.3598 0.47382,1.8531 0.76939,1.1742 0.1642,1.9511 -0.82356,1.0572 -0.61676,-0.5582 -0.69224,-0.5549 -1.24306,0.054 -0.32254,0.3564 -0.58643,0.7514 -0.58643,0.8777 0,0.1264 1.64418,0.1782 3.65373,0.1152 3.34557,-0.1049 3.81781,-0.2084 5.59919,-1.2276 z m -10.24154,-0.3193 c 1.4706,-1.5304 2.0184,-3.7211 1.19641,-4.7846 -1.18631,-1.5348 -6.5066,-0.9949 -8.15603,0.8277 -0.59907,0.6619 -0.59922,0.7521 -0.003,2.0733 0.69515,1.5416 0.47737,2.4725 -0.40675,1.7388 -0.29398,-0.244 -0.67216,-0.8056 -0.84039,-1.2481 l -0.30587,-0.8045 -1.20109,0.79 c -0.6606,0.4345 -1.48826,0.9595 -1.83925,1.1667 -0.4914,0.2901 0.53293,0.4794 4.45383,0.8229 2.8006,0.2453 5.15828,0.5124 5.23928,0.5934 0.30948,0.3095 0.63139,0.1063 1.8633,-1.1756 z"
       id="path90" /></g></svg>
