<?xml version="1.0" encoding="UTF-8" standalone="no"?>
<!-- Created with Inkscape (http://www.inkscape.org/) -->

<svg
   width="126.71322mm"
   height="85.701843mm"
   viewBox="0 0 126.71323 85.701843"
   version="1.1"
   id="svg1"
   xml:space="preserve"
   xmlns="http://www.w3.org/2000/svg"
   xmlns:svg="http://www.w3.org/2000/svg"><defs
     id="defs1" /><g
     id="layer1"
     transform="translate(222.01142,-1511.7177)"><path
       style="fill:#4d4d4d"
       d="m -208.3593,1597.186 c -3.23509,-0.6095 -7.12485,-5.47 -9.02379,-11.2757 -0.34792,-1.0637 -1.16346,-2.3888 -2.01666,-3.2767 l -1.4325,-1.4909 0.23522,-2.8743 c 0.28198,-3.4456 1.2937,-7.3111 2.7566,-10.5321 l 1.07458,-2.366 -2.20863,-2.3965 c -3.30922,-3.5907 -3.85592,-5.4274 -1.92336,-6.4617 0.88364,-0.4729 0.9786,-0.6976 1.40429,-3.3236 0.46814,-2.8879 2.86802,-6.6482 5.31939,-8.3348 1.71941,-1.1829 3.97203,-1.3846 5.65604,-0.5063 2.13541,1.1136 3.91073,0.596 6.36155,-1.8548 2.13546,-2.1354 4.1431,-2.8846 8.40725,-3.1371 3.13959,-0.1859 6.97417,0.258 12.17083,1.4089 1.92867,0.4272 2.43926,0.4327 3.21308,0.035 1.36852,-0.7036 4.63616,-1.7665 8.60498,-2.7992 11.43792,-2.976 16.20997,-4.9871 20.70021,-8.7239 2.54661,-2.1193 5.569,-6.0964 5.57641,-7.3378 0.0182,-3.049 4.36263,-4.561 12.35255,-4.299 4.95512,0.1625 7.74849,-0.9504 8.99875,-3.5851 0.50769,-1.0699 2.11349,-2.3367 2.96193,-2.3367 0.85566,0 0.30491,1.2655 -0.76763,1.7639 -0.83283,0.3869 -1.17,0.8014 -1.25466,1.5422 -0.0637,0.5573 0.0554,1.1843 0.26458,1.3935 0.45025,0.4503 0.51006,1.6504 0.0823,1.6504 -0.16396,0 -0.5866,-0.3188 -0.93921,-0.7084 -0.56811,-0.6278 -0.70634,-0.6494 -1.21411,-0.1899 -1.39448,1.262 -3.09811,1.6037 -8.03239,1.6112 -6.70536,0.01 -10.60741,0.9357 -11.27457,2.6742 -0.27373,0.7134 0.15488,1.0714 0.66815,0.5581 0.59031,-0.5903 1.33467,-0.518 1.33467,0.1297 0,0.301 -0.52566,0.7668 -1.16813,1.0353 -0.72725,0.3038 -1.92268,1.4732 -3.16726,3.0981 -4.57828,5.9773 -10.25582,8.9973 -23.35766,12.4243 -4.96167,1.2978 -11.20067,3.3861 -10.92688,3.6574 0.12654,0.1254 0.8906,0.2528 1.69792,0.283 2.15968,0.081 6.21618,1.1135 7.50574,1.9104 l 1.12387,0.6946 2.76912,-1.2658 c 1.52301,-0.6962 4.03912,-1.7599 5.59134,-2.3637 1.60059,-0.6227 3.15404,-1.4903 3.5888,-2.0045 0.70032,-0.8282 0.78823,-0.8511 1.017,-0.2654 0.19138,0.49 0.59285,0.6278 1.70287,0.5846 2.33929,-0.091 2.33438,-0.094 2.33438,1.4312 0,1.8109 0.46693,1.9978 3.63339,1.4548 1.83845,-0.3152 2.57374,-0.3197 2.93726,-0.018 0.64946,0.539 0.61174,1.355 -0.0989,2.1403 -0.55185,0.6098 -0.53192,0.6451 0.36385,0.6451 1.08639,0 1.56174,0.821 0.92182,1.592 -0.60127,0.7245 0.15187,0.6768 1.76761,-0.1119 1.16271,-0.5676 1.24662,-0.7268 1.43866,-2.7293 0.27605,-2.8785 1.61551,-5.615 3.81872,-7.8017 2.2443,-2.2274 4.95932,-3.5617 8.67735,-4.2645 4.32709,-0.818 4.40972,-0.8687 4.40972,-2.7076 0,-0.8658 0.15078,-1.6674 0.33508,-1.7813 0.56236,-0.3476 1.15413,1.2274 0.972,2.5869 -0.0945,0.7055 -0.005,2.8994 0.19838,4.8753 0.324,3.1442 0.29804,3.7027 -0.20799,4.475 -0.87902,1.3416 -8.58776,5.2787 -14.9651,7.6432 -1.07362,0.398 -1.1311,0.5049 -0.9341,1.7369 0.15255,0.954 0.007,1.71 -0.53168,2.7664 -0.74931,1.4688 -1.02501,2.5344 -0.36056,1.3936 0.19777,-0.3396 0.6068,-0.6174 0.90896,-0.6174 0.37902,0 0.47532,0.1914 0.31055,0.6174 -0.46761,1.2087 -0.62524,2.5576 -0.29887,2.5576 0.18235,0 0.60758,-0.5789 0.94496,-1.2864 0.75886,-1.5913 1.48933,-1.18 0.9011,0.5074 -0.60893,1.7468 -0.11137,2.1905 0.57692,0.5144 0.33864,-0.8246 0.74107,-1.4993 0.89429,-1.4993 0.15321,0 0.7906,-0.9606 1.41641,-2.1348 0.62581,-1.1741 1.61127,-2.5331 2.18992,-3.0201 1.52953,-1.287 4.71259,-2.7969 6.94417,-3.2939 3.03342,-0.6757 3.15185,-0.7246 4.39229,-1.8138 2.73974,-2.4055 4.11942,-9.9199 3.0103,-16.3955 -0.19719,-1.1513 -0.44155,-2.6041 -0.54303,-3.2285 -0.25438,-1.5651 -1.0248,-2.2162 -2.62257,-2.2162 -1.91274,0 -2.5999,-0.304 -2.08613,-0.9231 1.12181,-1.3517 5.18882,0.01 5.7714,1.927 0.43018,1.4183 0.7457,1.406 1.22542,-0.048 0.21063,-0.6382 1.33292,-2.1004 2.49399,-3.2493 2.98125,-2.9502 3.43931,-4.937 1.47256,-6.3872 -0.72445,-0.5342 -0.28231,-1.6068 0.54256,-1.3163 1.13436,0.3996 2.46064,1.8905 2.92004,3.2824 0.28302,0.8576 0.38994,2.4108 0.28763,4.1783 l -0.16286,2.8132 1.43879,0.4199 c 1.34582,0.3928 5.36499,2.4177 6.308287,3.1782 2.148589,1.7322 2.505714,2.0949 2.28276,2.3184 -0.140832,0.1412 -0.499254,0.055 -0.79649,-0.1918 -0.32739,-0.2718 -0.1275,0.4386 0.507037,1.8018 3.521991,7.5664 3.583381,18.6237 0.183303,33.0155 -1.00372,4.2486 -1.59652,5.7685 -2.838557,7.2781 -1.24561,1.514 -3.31095,3.0553 -4.09402,3.0553 -1.06431,0 -0.7303,-0.6414 0.85525,-1.6423 1.92781,-1.217 1.29004,-1.4069 -1.73963,-0.5181 -1.32229,0.3879 -2.88041,0.7554 -3.46249,0.8168 l -1.05834,0.1115 1.41111,0.9077 c 0.77611,0.4992 2.83986,1.5002 4.58611,2.2243 5.309097,2.2017 6.501836,2.7799 7.101871,3.443 2.19818,2.4289 -5.920521,4.4786 -13.891791,3.5072 -1.79417,-0.2187 -3.65087,-0.5747 -4.126,-0.7912 -1.13162,-0.5156 -1.96046,-2.6492 -1.96046,-5.0466 0,-1.9444 -0.39506,-2.6357 -1.16199,-2.0332 -0.38293,0.3008 -4.86678,1.5508 -14.80121,4.1264 -1.89177,0.4905 -4.90802,1.2782 -6.70278,1.7506 -1.79475,0.4723 -5.72382,1.493 -8.73125,2.2682 -3.00743,0.7751 -7.66798,1.9866 -10.35679,2.6921 -2.68881,0.7055 -5.09863,1.2021 -5.35517,1.1037 -0.25653,-0.098 -0.56876,-0.9423 -0.69384,-1.8752 -0.3333,-2.486 -0.48503,-2.862 -0.89388,-2.2156 -0.18062,0.2857 -0.33083,0.9523 -0.3338,1.4814 -0.007,1.298 -1.48939,5.1565 -2.66036,6.9259 -1.59024,2.403 -5.70242,4.554 -7.46193,3.9031 -1.09355,-0.4045 -1.34634,-2.0883 -0.63505,-4.2298 0.32629,-0.9824 0.51374,-1.8657 0.41654,-1.9629 -0.0972,-0.097 -0.82116,0 -1.60882,0.2089 -0.99049,0.2667 -1.57259,0.6776 -1.88769,1.3324 -0.27883,0.5794 -0.86621,1.0459 -1.51393,1.2022 -0.58208,0.1405 -1.65364,0.4245 -2.38125,0.6311 -0.7276,0.2066 -1.83885,0.5212 -2.46944,0.6992 -0.63059,0.1779 -3.60715,1.0291 -6.61459,1.8916 -12.79555,3.6694 -12.82441,3.6754 -15.49192,3.1727 z m 6.67248,-1.9887 c 2.02395,-0.5499 5.4656,-1.5523 6.3123,-1.8385 0.2703,-0.091 0.42905,-0.2258 0.35278,-0.2987 -0.18494,-0.1768 -3.91601,0.6021 -8.21561,1.715 -1.91995,0.497 -3.5565,0.9036 -3.63679,0.9036 -0.0803,0 -0.0602,0.1388 0.0447,0.3085 0.20601,0.3333 2.05234,0.05 5.14267,-0.7899 z m -8.11389,-0.3567 c 0,-0.073 -0.39507,-1.0258 -0.87793,-2.1176 -0.48287,-1.0918 -0.97762,-2.6086 -1.09946,-3.3705 -0.23331,-1.4591 0.29283,-4.3899 1.11949,-6.2361 0.27016,-0.6033 0.61339,-1.397 0.76274,-1.7638 1.28532,-3.1568 6.63346,-10.0156 7.80959,-10.0156 0.2197,0 0.39946,-0.1445 0.39946,-0.3211 0,-0.5408 4.3912,-3.1303 6.75972,-3.9861 1.94494,-0.7028 2.85625,-0.8027 6.99861,-0.767 4.1458,0.036 5.1508,0.1654 7.76111,1.0018 1.64924,0.5285 3.79237,1.1954 4.7625,1.482 0.97014,0.2867 2.05256,0.6113 2.40538,0.7213 0.55569,0.1734 0.62646,0.018 0.52917,-1.1638 -0.0962,-1.1686 -0.26393,-1.4095 -1.17066,-1.6821 -0.58208,-0.1749 -1.37583,-0.4376 -1.76389,-0.5835 -0.38805,-0.146 -1.41993,-0.4638 -2.29305,-0.7062 -2.90674,-0.8069 -4.05384,-1.1923 -4.39208,-1.4756 -0.18433,-0.1544 -1.13683,-0.2817 -2.11667,-0.2828 -1.83075,0 -4.04127,-0.458 -5.33929,-1.1014 -1.06156,-0.5262 -8.77966,1.4394 -12.11457,3.0853 -3.76796,1.8596 -7.62067,5.7367 -9.31903,9.3779 -1.65251,3.543 -2.36978,6.745 -2.41328,10.7734 -0.0194,1.7968 -0.11942,3.2668 -0.22226,3.2668 -0.10284,0 -0.4773,-0.2627 -0.83213,-0.5838 -0.86912,-0.7866 -0.83203,-0.1072 0.0931,1.7063 1.05404,2.0661 4.55338,5.7106 4.55338,4.7422 z m -0.70015,-16.1626 c -0.003,-0.3281 0.15335,-0.6947 0.34737,-0.8146 0.44648,-0.2759 0.44648,0.1911 0,0.882 -0.29471,0.456 -0.34272,0.4467 -0.34737,-0.067 z m 6.87376,-9.8104 c 0.11992,-0.194 0.28804,-0.3528 0.3736,-0.3528 0.0856,0 0.15557,0.1588 0.15557,0.3528 0,0.194 -0.16812,0.3528 -0.3736,0.3528 -0.20548,0 -0.27548,-0.1588 -0.15557,-0.3528 z m 31.18068,23.1602 c 2.49603,-1.2187 3.95485,-3.6564 5.16311,-8.6277 0.58063,-2.3889 0.58061,-2.5829 -4.2e-4,-3.8073 -0.73922,-1.5578 -0.58588,-2.8444 0.88979,-7.4662 0.57378,-1.7971 1.04323,-3.5037 1.04323,-3.7924 0,-0.5102 -0.47784,-0.5775 -4.82129,-0.6793 l -0.94073,-0.022 0.0254,9.2818 0.0254,9.2818 -0.93678,0.3987 c -0.51522,0.2193 -1.25427,0.4081 -1.64233,0.4196 -1.18323,0.035 -2.74908,4.1444 -2.16206,5.6742 0.25061,0.6531 0.94521,0.5163 3.35663,-0.6612 z m 71.88726,-11.6589 c 3.580916,-0.9535 3.377625,-1.2757 -2.27381,-3.6046 -2.27316,-0.9367 -5.18078,-2.3029 -6.46137,-3.036 -1.2806,-0.7331 -2.48975,-1.3329 -2.687,-1.3329 -0.49217,0 -1.86381,-3.3945 -1.86381,-4.6125 0,-1.1727 -2.18984,-10.4551 -3.23957,-13.732 -0.88341,-2.7577 -2.49021,-5.4683 -4.02836,-6.7955 -1.12642,-0.9719 -1.13499,-0.9732 -3.08904,-0.4643 -4.55116,1.1855 -7.04978,2.9567 -8.5024,6.0273 -0.81101,1.7143 -1.18993,3.702 -0.70575,3.702 0.10475,0 0.85881,-0.3418 1.6757,-0.7594 0.81689,-0.4176 2.279,-0.9715 3.24914,-1.2308 1.59291,-0.4258 1.84701,-0.4101 2.6214,0.1618 0.49691,0.367 1.16839,1.5305 1.59682,2.7669 1.19977,3.4625 2.97594,6.6468 5.14465,9.2232 2.42982,2.8866 3.02515,4.4772 3.33075,8.8992 0.26288,3.8038 0.67633,4.5105 2.8895,4.9385 2.40473,0.465 10.39677,0.3673 12.34315,-0.1509 z m -64.87967,-3.2089 c 0.008,-1.6762 -0.12528,-2.9105 -0.30183,-2.8014 -0.17358,0.1073 -0.3156,0.4957 -0.3156,0.8632 0,0.3675 -0.18061,1.0645 -0.40136,1.549 -0.32116,0.7049 -0.28261,1.1311 0.19294,2.1333 0.32686,0.6888 0.64329,1.2524 0.70318,1.2524 0.0599,0 0.11509,-1.3484 0.12267,-2.9965 z m 30.16243,0.2934 c -0.24254,-0.098 -0.63941,-0.098 -0.88195,0 -0.24253,0.098 -0.0441,0.1779 0.44097,0.1779 0.48507,0 0.68351,-0.08 0.44098,-0.1779 z m 7.8493,-1.8707 c 3.10445,-0.8146 6.63663,-1.7328 7.84931,-2.0404 1.21267,-0.3076 2.20486,-0.7095 2.20486,-0.8931 0,-0.3547 -1.04926,-0.215 -3.35139,0.4461 -2.17667,0.6252 -4.12017,1.0962 -5.38313,1.3048 -0.63239,0.1044 -1.23707,0.3311 -1.34374,0.5037 -0.10666,0.1726 -0.66082,0.3138 -1.23145,0.3138 -0.57063,0 -1.03751,0.1587 -1.03751,0.3528 0,0.194 -0.46688,0.3527 -1.03752,0.3527 -0.57063,0 -1.13562,0.1588 -1.25554,0.3528 -0.11992,0.194 -0.76428,0.3528 -1.43193,0.3528 -0.66765,0 -1.2139,0.1773 -1.2139,0.3939 0,0.4632 -0.0867,0.4804 7.23194,-1.4399 z m -32.45555,-4.9946 c 1.55222,-0.2404 3.61597,-0.7393 4.58611,-1.1086 0.97014,-0.3693 2.08139,-0.7645 2.46944,-0.8782 0.38806,-0.1138 1.97556,-1.0501 3.52778,-2.0809 4.33296,-2.8772 5.10565,-3.4486 5.11065,-3.7794 0.005,-0.3333 -0.0787,-0.3118 -3.69954,0.9474 -6.84645,2.3811 -8.64542,2.788 -12.40084,2.8047 l -3.65055,0.016 v 0.9798 c 0,0.5389 -0.16523,1.4144 -0.36717,1.9455 -0.20195,0.5312 -0.29384,1.1569 -0.2042,1.3905 0.17229,0.449 0.21387,0.4468 4.62832,-0.237 z m -2.11319,-7.8593 c 3.27012,-3.2991 8.99235,-10.3965 8.99235,-11.1534 0,-0.7122 2.19753,-1.4729 3.66244,-1.2678 1.20936,0.1694 1.61543,0.06 2.42298,-0.6555 1.10195,-0.9757 1.1975,-1.2456 0.44097,-1.2456 -0.59907,0 -0.70956,-0.5525 -0.17639,-0.882 0.64681,-0.3997 0.36375,-0.8338 -0.61736,-0.9467 -1.33179,-0.1532 -1.23707,-1.0525 0.17639,-1.6746 0.63059,-0.2775 1.14653,-0.6933 1.14653,-0.9238 0,-0.3179 -0.48825,-0.3057 -2.02,0.05 -1.99086,0.4628 -3.39241,0.3671 -4.22635,-0.2885 -0.61208,-0.4811 -1.0721,-0.075 -1.35047,1.1925 -0.57863,2.6344 -3.75203,6.9522 -6.10666,8.3088 -1.83693,1.0582 -4.66805,3.2208 -5.09947,3.8951 -0.46351,0.7245 -2.25092,1.4993 -3.45882,1.4993 -0.63586,0 -2.0958,-0.54 -3.33804,-1.2347 -1.21434,-0.6791 -2.43529,-1.2347 -2.71324,-1.2347 -0.74035,0 -4.42201,-2.4597 -7.30517,-4.8805 -2.85886,-2.4004 -4.35894,-3.2045 -6.59054,-3.5327 -2.09852,-0.3087 -2.1137,-0.9097 -0.0264,-1.0434 2.21179,-0.1416 4.06197,0.7916 7.75709,3.9127 2.87273,2.4264 5.04063,3.8549 6.52038,4.2963 0.77085,0.23 0.79375,0.1645 0.79375,-2.2678 0,-2.9691 0.65157,-4.7742 2.18278,-6.0469 l 1.10591,-0.9193 -1.55615,-0.5369 c -2.32883,-0.8036 -4.76549,-1.3287 -6.16484,-1.3287 -0.68595,0 -1.68195,-0.2249 -2.21334,-0.4997 -3.06268,-1.5837 -7.5848,-1.2495 -11.82931,0.8743 -3.04301,1.5227 -4.02081,1.643 -7.91822,0.9747 -2.08911,-0.3582 -2.61793,-0.3343 -3.89424,0.1764 -0.81228,0.325 -2.04165,0.5909 -2.73194,0.5909 h -1.25507 l 1.27525,1.4899 c 1.31118,1.5318 1.75382,2.5794 1.54499,3.6565 -0.21082,1.0873 -1.00138,0.9985 -1.00138,-0.1126 0,-0.7375 -0.60369,-1.7395 -2.16715,-3.5969 -2.13401,-2.5352 -2.18861,-2.5717 -3.56943,-2.3865 -2.5657,0.3442 -5.08594,3.0511 -6.56216,7.0483 -1.06165,2.8746 -0.99562,4.5042 0.23596,5.8226 1.20137,1.2861 2.29212,1.1996 3.9902,-0.3165 0.62926,-0.5618 1.23458,-1.0249 1.34515,-1.0292 0.11058,0 0.97932,-0.7187 1.93054,-1.5875 0.95122,-0.8689 2.01719,-1.5797 2.36883,-1.5797 0.90832,0 1.43987,1.2076 1.16841,2.6546 -0.2423,1.2916 0.24021,2.2842 1.1103,2.2842 0.2584,0 1.04446,-0.754 1.74681,-1.6756 2.03192,-2.6664 2.47725,-2.7718 5.33247,-1.2623 1.33028,0.7032 3.29181,1.8644 4.35896,2.5803 4.47168,2.9998 6.48149,3.8944 9.14442,4.0705 1.3843,0.091 3.03856,0.3844 3.67614,0.6508 0.63757,0.2664 2.65721,0.9195 4.48808,1.4512 1.83088,0.5318 3.80511,1.1798 4.3872,1.4401 1.35911,0.6076 5.03213,1.1613 6.17361,0.9305 0.50275,-0.1016 2.40022,-1.71 4.4132,-3.7409 z m -53.44931,1.5527 c 0,-0.1941 -0.16812,-0.3528 -0.3736,-0.3528 -0.20548,0 -0.27549,0.1587 -0.15557,0.3528 0.11992,0.194 0.28804,0.3527 0.3736,0.3527 0.0856,0 0.15557,-0.1587 0.15557,-0.3527 z m 66.98702,-1.7781 c 2.81181,-0.9231 7.79763,-3.5048 8.28579,-4.2904 0.45818,-0.7375 0.0566,-1.2293 -0.57543,-0.7048 -0.26762,0.2222 -0.66303,0.2583 -0.9417,0.086 -0.67713,-0.4185 -0.27587,-2.1071 1.23918,-5.2149 1.31493,-2.6972 1.30434,-3.4572 -0.0435,-3.1189 -0.62959,0.158 -0.84493,0.045 -0.93166,-0.4891 -0.10859,-0.6687 -0.19179,-0.6591 -2.22947,0.2567 -1.16416,0.5232 -2.17052,1.0765 -2.23635,1.2295 -0.37573,0.8734 -1.25333,1.2324 -3.05188,1.2486 -1.92679,0.017 -3.7076,0.7369 -3.7076,1.4982 0,0.7831 -5.43625,7.829 -6.60492,8.5607 -0.71697,0.4488 -0.52313,1.2762 0.34312,1.4645 2.02249,0.4396 2.74228,0.486 5.40016,0.3478 1.56339,-0.081 3.83779,-0.4746 5.05422,-0.8739 z m -71.74952,-4.2192 c 0.11991,-0.194 0.0499,-0.3527 -0.15557,-0.3527 -0.20548,0 -0.3736,0.1587 -0.3736,0.3527 0,0.1941 0.07,0.3528 0.15557,0.3528 0.0856,0 0.25368,-0.1587 0.3736,-0.3528 z m 54.15139,-1.7396 c 0.48506,-0.3428 0.93251,-1.0475 0.99431,-1.5661 0.1389,-1.1656 1.38885,-2.0306 2.78102,-1.9245 2.34815,0.1789 5.87222,-3.9612 7.77394,-9.1329 l 1.06558,-2.8978 -1.63312,0.1918 c -0.89822,0.1055 -1.95062,0.3332 -2.33868,0.506 -0.38805,0.1727 -1.89618,0.7809 -3.35139,1.3514 -4.2793,1.6776 -8.93728,3.9144 -9.7632,4.6883 -0.96185,0.9013 -1.57592,3.4297 -1.42285,5.8584 0.13012,2.0643 0.67994,2.842 2.46616,3.4882 1.29731,0.4693 2.17038,0.326 3.42823,-0.5628 z m -41.98056,-1.0826 c 0,-0.194 -0.07,-0.3528 -0.15557,-0.3528 -0.0856,0 -0.25368,0.1588 -0.3736,0.3528 -0.11991,0.1941 -0.0499,0.3528 0.15557,0.3528 0.20548,0 0.3736,-0.1587 0.3736,-0.3528 z m 68.08611,-0.55 c 0,-0.3025 -0.16134,-0.4502 -0.35853,-0.3284 -0.19719,0.1219 -0.2672,0.3694 -0.15557,0.55 0.30241,0.4893 0.5141,0.3981 0.5141,-0.2216 z m 21.39972,-8.0118 c -0.59868,-1.4329 -1.00477,-1.7566 -1.81399,-1.446 -0.4891,0.1876 -0.36662,0.4499 0.73899,1.5821 0.7289,0.7465 1.38457,1.2979 1.45705,1.2254 0.0725,-0.072 -0.0994,-0.6852 -0.38205,-1.3615 z m -20.06439,-0.081 c 0.71384,-0.4851 1.4898,-0.882 1.72435,-0.882 0.23455,0 0.51026,-0.1356 0.61269,-0.3013 0.41057,-0.6643 -3.00533,0.4732 -3.72666,1.2411 -1.02273,1.0886 -0.25024,1.0565 1.38962,-0.058 z m 41.557405,-7.4084 c -0.939659,-6.4451 -1.947238,-9.495 -3.878925,-11.7415 -1.00672,-1.1707 -3.45913,-2.8314 -4.48272,-3.0356 -0.46245,-0.092 -1.31706,-0.2678 -1.89915,-0.3901 -0.61242,-0.1288 -2.33348,0.077 -4.08481,0.4878 -1.66456,0.3906 -3.39486,0.6139 -3.8451,0.4961 -0.8021,-0.2097 -0.81356,-0.176 -0.56833,1.6727 0.29349,2.2124 0.47732,2.6008 1.03312,2.1826 1.64686,-1.239 7.06518,-1.5104 9.48101,-0.4749 3.53318,1.5145 6.467867,6.507 7.517995,12.7896 0.303831,1.8178 0.658981,3.5431 0.789222,3.8342 0.478348,1.0689 0.441593,-2.3646 -0.06231,-5.8209 z m -94.385325,3.3843 c 1.07429,-0.564 2.71341,-1.1394 3.6425,-1.2787 1.08771,-0.1631 1.56777,-0.3748 1.34812,-0.5945 -0.20092,-0.2009 -2.56797,-0.2916 -5.75916,-0.2205 -5.30364,0.118 -5.4586,0.1436 -7.33941,1.2104 -2.32318,1.3177 -2.63073,1.9007 -1.01844,1.9305 0.64676,0.012 2.2078,0.2288 3.46898,0.4818 1.91784,0.3847 2.40851,0.3811 2.99861,-0.022 0.38806,-0.265 1.58452,-0.9433 2.6588,-1.5072 z m 62.47121,-0.4364 c 4.06495,-2.0944 5.16161,-2.857 2.85811,-1.9875 -1.40089,0.5288 -1.91768,0.065 -0.87215,-0.7827 0.43657,-0.3539 0.79375,-0.8086 0.79375,-1.0104 0,-0.2018 0.20415,-0.4939 0.45367,-0.649 1.10707,-0.6885 2.01578,-2.3678 2.01578,-3.7252 0,-1.3983 -0.008,-1.4062 -1.14653,-1.1866 -0.63059,0.1216 -1.30528,0.4827 -1.4993,0.8025 -0.19403,0.3198 -1.06716,1.4743 -1.94028,2.5656 -2.67729,3.346 -3.69098,4.7448 -4.23778,5.8477 -0.2886,0.582 -0.84222,1.3308 -1.23028,1.6639 -1.52164,1.3061 0.60661,0.6248 4.80501,-1.5383 z m 5.50639,-2.9846 c -0.11722,-0.1172 -0.42149,-0.1298 -0.67616,-0.028 -0.28142,0.1127 -0.19782,0.1962 0.21314,0.2132 0.37189,0.015 0.58025,-0.068 0.46302,-0.1853 z m -7.93015,-11.0868 c -0.43656,-0.1754 -0.79375,-0.572 -0.79375,-0.8812 0,-0.4661 0.27048,-0.5215 1.58298,-0.3247 2.29401,0.344 3.17873,0.01 3.87862,-1.4651 0.53736,-1.1324 0.6668,-1.2185 1.13208,-0.7533 0.46529,0.4653 0.463,0.646 -0.02,1.58 -0.92363,1.7861 -3.71154,2.6757 -5.77992,1.8443 z"
       id="path92" /></g></svg>
