<?xml version="1.0" encoding="UTF-8" standalone="no"?>
<!-- Created with Inkscape (http://www.inkscape.org/) -->

<svg
   width="129.55719mm"
   height="76.333275mm"
   viewBox="0 0 129.5572 76.333275"
   version="1.1"
   id="svg1"
   xml:space="preserve"
   xmlns="http://www.w3.org/2000/svg"
   xmlns:svg="http://www.w3.org/2000/svg"><defs
     id="defs1" /><g
     id="layer1"
     transform="translate(583.82158,-1171.7244)"><path
       style="fill:#4d4d4d"
       d="m -576.76724,1247.9648 c -0.84902,-0.3064 -1.10776,-0.4716 -1.6567,-1.0578 -1.26207,-1.3476 -2.05047,-2.6957 -3.87104,-6.6192 -0.24009,-0.5174 -0.68533,-1.4699 -0.98943,-2.1167 -0.45744,-0.9729 -0.54996,-1.2822 -0.53583,-1.7918 0.01,-0.3617 0.0913,-0.7014 0.19692,-0.8231 0.0989,-0.114 0.21435,-0.39 0.25656,-0.6132 0.081,-0.4285 0.48247,-0.9464 0.73363,-0.9464 0.0913,0 0.16314,-0.1934 0.18529,-0.4989 0.0298,-0.4109 0.0932,-0.5261 0.35954,-0.6532 0.25694,-0.1226 0.32338,-0.2345 0.32338,-0.545 0,-0.3904 0.15433,-0.5936 0.6299,-0.8293 0.17551,-0.087 0.26295,-0.2551 0.28797,-0.5536 0.0361,-0.4313 0.4944,-1.0358 0.78519,-1.0358 0.0783,0 0.31617,0.087 0.52869,0.1928 0.36104,0.1801 0.39384,0.1795 0.49977,-0.01 0.21664,-0.3871 0.83267,-0.8885 1.09164,-0.8885 0.3508,0 0.83696,0.5074 0.9325,0.9733 0.0751,0.366 0.23495,1.3165 0.37545,2.2318 0.0373,0.243 0.11513,0.471 0.17297,0.5067 0.0579,0.036 0.10518,0.2175 0.10518,0.4039 0,0.1864 0.0529,0.3716 0.11759,0.4116 0.0647,0.04 0.11759,0.1913 0.11759,0.3362 0,0.1449 0.0421,0.3138 0.0936,0.3752 0.0515,0.062 0.1608,0.3234 0.24296,0.5821 0.0821,0.2587 0.19363,0.5762 0.24772,0.7056 0.0541,0.1293 0.20935,0.5394 0.34501,0.9113 0.60468,1.6577 0.77736,2.077 1.16734,2.8346 l 0.41494,0.8061 0.5963,-0.085 c 0.32797,-0.047 0.94027,-0.1297 1.36066,-0.184 1.78291,-0.2305 3.87173,-0.645 5.87963,-1.1668 0.22636,-0.059 0.57032,-0.1398 0.76435,-0.1799 0.19403,-0.04 0.45861,-0.1179 0.58796,-0.1728 0.12936,-0.055 0.36748,-0.1266 0.52917,-0.1593 0.35342,-0.072 0.85973,-0.2129 1.88148,-0.5255 0.42039,-0.1286 1.74373,-0.5253 2.94074,-0.8815 2.63648,-0.7847 3.5326,-1.1308 5.81991,-2.248 0.97014,-0.4738 1.9519,-0.9447 2.18169,-1.0464 0.22978,-0.1016 0.57731,-0.3373 0.77227,-0.5236 0.68317,-0.6529 4.54199,-2.7382 6.62984,-3.5829 1.74981,-0.7078 2.39676,-0.9401 3.82175,-1.3721 0.64684,-0.1961 2.44626,-0.6114 4.70371,-1.0855 1.22884,-0.2581 2.41947,-0.5159 2.64583,-0.573 0.37235,-0.094 0.58805,-0.1405 1.36003,-0.2946 0.30355,-0.061 0.62673,-0.3466 0.99174,-0.878 0.1555,-0.2263 0.31666,-0.438 0.35812,-0.4703 0.10833,-0.084 2.81696,-4.219 2.81696,-4.2999 0,-0.037 0.15238,-0.289 0.33861,-0.5596 0.18623,-0.2707 0.45081,-0.6903 0.58796,-0.9326 0.13715,-0.2422 0.36031,-0.6363 0.49591,-0.8757 0.26678,-0.4711 0.26355,-1.0534 -0.0175,-3.1512 -0.0693,-0.5174 -0.15275,-2.515 -0.18541,-4.4391 -0.0473,-2.7877 -0.0909,-3.4984 -0.21447,-3.4984 -0.58914,0 -1.61778,-0.9789 -1.95779,-1.8631 -0.33628,-0.8745 -0.3762,-3.0371 -0.0738,-3.9992 0.22617,-0.7196 0.7963,-1.9385 0.93399,-1.9968 0.0509,-0.022 0.0925,-0.1042 0.0925,-0.1836 0,-0.08 0.0962,-0.2477 0.21366,-0.3738 0.11752,-0.1261 0.26304,-0.3142 0.32338,-0.4178 0.71735,-1.2325 3.00941,-3.495 5.2265,-5.1592 1.31637,-0.9882 2.23581,-1.8072 2.6528,-2.3631 0.45603,-0.6079 0.75589,-1.1655 0.75589,-1.4054 0,-0.1431 -0.29604,-0.1443 -0.56016,0 -0.42576,0.2289 -1.34992,0.3605 -2.51993,0.3588 -1.6422,0 -2.32327,-0.2607 -2.85078,-1.0813 -0.17066,-0.2655 -0.19105,-0.4664 -0.12202,-1.2031 0.0822,-0.8774 0.0805,-0.8852 -0.22471,-1.0012 -0.25773,-0.098 -0.30759,-0.1899 -0.30759,-0.5667 0,-0.2474 0.0635,-0.5133 0.14111,-0.5909 0.10975,-0.1098 0.10975,-0.1725 0,-0.2822 -0.20496,-0.205 -0.17429,-0.4936 0.11052,-1.04 l 0.25164,-0.4828 -0.36923,-0.5238 c -0.60259,-0.8549 -0.49063,-1.1332 0.88377,-2.1967 0.64363,-0.4981 0.75527,-0.6957 0.87289,-1.5454 0.0544,-0.3928 0.15434,-1.1111 0.22215,-1.5962 0.13282,-0.9501 0.33864,-1.755 0.49463,-1.9344 0.0534,-0.061 0.0971,-0.2069 0.0971,-0.3233 0,-0.1165 0.0529,-0.2117 0.11759,-0.2117 0.0647,0 0.11856,-0.066 0.11974,-0.147 10e-4,-0.081 0.14669,-0.3321 0.32338,-0.5584 1.60997,-2.0619 3.71782,-2.9035 6.49185,-2.5922 3.03469,0.3406 5.24745,1.0947 6.37759,2.1734 0.56469,0.5389 0.91615,0.9622 0.91615,1.1034 0,0.052 0.11331,0.2157 0.25181,0.3643 0.37851,0.4063 1.77043,3.2305 2.11998,4.3014 0.83846,2.5688 0.95164,3.8755 0.57552,6.644 -0.27472,2.0222 -0.36214,3.33 -0.29283,4.3812 0.0416,0.6312 0.12283,1.1767 0.18049,1.2123 0.0577,0.036 0.10484,0.1947 0.10484,0.3534 0,0.1588 0.0497,0.3806 0.11051,0.4929 0.0608,0.1123 0.27655,0.5446 0.47949,0.9606 0.48653,0.9974 0.92692,1.6249 1.78135,2.5383 0.55065,0.5886 0.68776,0.8068 0.62711,0.9979 -0.088,0.2772 -0.37626,0.2369 -0.88179,-0.1232 -0.46851,-0.3337 -2.38862,-2.3518 -2.82222,-2.9662 -0.21761,-0.3084 -0.43,-0.52 -0.47198,-0.4704 -0.042,0.05 -0.14147,0.3284 -0.22107,0.6195 -0.21473,0.7851 -0.60774,2.1032 -0.80637,2.7046 -0.40768,1.2343 -0.74145,2.663 -0.90656,3.8806 -0.15497,1.1427 -0.44799,2.4773 -0.66484,3.028 -0.26746,0.6792 -0.31647,0.8296 -0.44125,1.354 -0.26552,1.1159 -0.14841,2.4255 0.29326,3.2796 0.24018,0.4645 0.19783,0.6794 -0.16076,0.8157 -0.69661,0.2649 -1.45477,-0.1189 -1.96926,-0.9968 -0.33538,-0.5723 -0.88358,-2.026 -0.88358,-2.3431 0,-0.1177 -0.058,-0.3224 -0.12892,-0.4549 -0.1186,-0.2216 -0.15278,-0.1927 -0.42656,0.3605 -0.16369,0.3308 -0.3438,0.6014 -0.40024,0.6014 -0.0564,0 -0.10262,0.056 -0.10262,0.1241 0,0.068 -0.22489,0.4518 -0.49976,0.8525 l -0.49977,0.7285 0.0121,1.3862 c 0.007,0.7624 0.077,1.6091 0.15625,1.8815 0.4634,1.5916 0.69367,2.2269 1.0746,2.9647 0.52843,1.0235 0.93821,1.7166 1.13469,1.9193 0.0829,0.085 0.15064,0.2032 0.15064,0.2617 0,0.058 0.67469,0.8096 1.4993,1.6691 0.82462,0.8595 1.5786,1.7207 1.67551,1.9138 0.0969,0.193 0.20303,0.3774 0.23581,0.4097 0.0726,0.072 0.27467,0.6887 0.47129,1.439 0.13486,0.5147 0.16944,0.5522 0.45448,0.4924 0.16968,-0.036 0.43843,-0.091 0.59722,-0.1244 0.15879,-0.033 0.95254,-0.1343 1.76389,-0.2255 4.1005,-0.4608 8.84378,0.023 14.52796,1.481 1.42964,0.3668 2.68209,0.7072 3.85116,1.0466 1.00237,0.2911 1.3477,0.3836 1.64773,0.4415 0.17865,0.034 0.35376,0.1095 0.38912,0.1667 0.0354,0.057 0.19418,0.104 0.35293,0.104 0.15875,0 0.38053,0.047 0.49283,0.1045 0.11231,0.058 0.73336,0.2727 1.38012,0.4783 1.87828,0.5971 3.29998,1.1612 4.93889,1.9595 1.84246,0.8976 2.42444,1.2332 3.43401,1.9804 0.65348,0.4837 0.80485,0.5502 0.9896,0.4348 0.11996,-0.075 0.29877,-0.1362 0.39737,-0.1362 0.33829,0 2.13275,-0.8587 2.3118,-1.1063 0.0425,-0.059 -0.10985,-0.2337 -0.33849,-0.3889 -0.59745,-0.4054 -0.94173,-0.819 -2.03465,-2.4441 -0.5419,-0.8058 -0.63838,-1.0336 -0.67259,-1.5875 -0.0583,-0.9445 0.0812,-1.1407 1.17522,-1.6524 0.17786,-0.083 0.32338,-0.2135 0.32338,-0.2896 0,-0.2104 0.37027,-0.499 0.76435,-0.5957 0.19403,-0.048 0.47246,-0.1641 0.61873,-0.2588 0.16485,-0.1067 0.39907,-0.1456 0.61608,-0.1022 0.51076,0.1022 0.70267,-0.015 0.94334,-0.5766 0.26864,-0.6267 0.54494,-0.7223 1.18885,-0.4112 0.27442,0.1326 0.5917,0.2411 0.70509,0.2411 0.11339,0 0.23886,0.053 0.27883,0.1176 0.04,0.065 0.17611,0.1176 0.30252,0.1176 0.12641,0 0.32173,0.047 0.43403,0.1038 0.81565,0.415 0.80907,0.4145 1.46239,0.097 0.88853,-0.4317 1.15977,-0.4752 2.05874,-0.3301 0.88922,0.1436 1.44929,0.1678 3.10145,0.134 0.96775,-0.02 1.1914,0.013 1.58514,0.2344 0.94781,0.5324 1.58599,1.676 1.66402,2.9821 0.0353,0.5904 0.15216,1.065 0.39824,1.6171 0.74733,1.6767 0.80057,3.0403 0.17883,4.5796 -0.27277,0.6753 -1.14019,2.051 -1.62455,2.5764 -0.14904,0.1617 -0.34908,0.4451 -0.44452,0.6298 -0.46102,0.8923 -2.06841,1.9543 -3.59802,2.3773 -1.07839,0.2983 -3.08042,0.3472 -4.34234,0.1062 -1.92447,-0.3675 -1.73104,-0.3944 -3.46848,0.4819 -1.7818,0.8987 -2.38085,1.4036 -3.40782,2.8724 -0.71439,1.0218 -1.95871,1.8665 -3.27115,2.2206 -1.00591,0.2714 -3.25755,0.3458 -4.34005,0.1433 -0.31039,-0.058 -0.93477,-0.1693 -1.3875,-0.2473 -1.63818,-0.2821 -4.18802,-0.9294 -5.05648,-1.2836 -0.12935,-0.053 -0.38071,-0.156 -0.55857,-0.2293 -0.17785,-0.073 -0.45567,-0.1862 -0.61736,-0.2509 -0.16169,-0.065 -0.41304,-0.1652 -0.55856,-0.2235 -0.14552,-0.058 -0.51536,-0.217 -0.82187,-0.3528 -0.3065,-0.1357 -0.63411,-0.2469 -0.72801,-0.2469 -0.0939,0 -0.20344,-0.053 -0.24341,-0.1175 -0.04,-0.065 -0.22902,-0.1176 -0.42011,-0.1176 -0.19109,0 -0.43932,-0.051 -0.55162,-0.1121 -0.11231,-0.062 -0.54815,-0.2242 -0.96855,-0.3612 -0.42039,-0.1371 -0.84372,-0.2807 -0.94074,-0.3191 -0.097,-0.038 -1.23472,-0.426 -2.52824,-0.8613 -1.96398,-0.6609 -2.38094,-0.7663 -2.52824,-0.6389 -0.24093,0.2083 -1.0185,0.4096 -1.5854,0.4104 l -0.46827,7e-4 0.40948,0.2727 c 0.41809,0.2785 1.35362,0.669 2.14396,0.8948 0.24254,0.069 0.61671,0.1789 0.8315,0.2436 0.21479,0.065 0.6147,0.1176 0.88869,0.1176 1.73005,0 3.1893,0.608 3.1893,1.3289 0,0.4697 -0.63166,1.0546 -1.37057,1.2691 -0.36329,0.1055 -1.03839,0.1576 -1.86323,0.1439 -6.92115,-0.115 -9.07973,-0.082 -11.46527,0.1761 -1.32586,0.1434 -2.5694,0.3104 -2.76343,0.371 -0.19403,0.061 -0.82903,0.1647 -1.41111,0.2311 -1.21139,0.1382 -2.62855,0.3617 -4.52731,0.7139 -1.50985,0.2801 -1.98622,0.3707 -2.46945,0.4697 -0.29104,0.06 -0.84667,0.1676 -1.23472,0.2399 -0.38806,0.072 -0.97014,0.1824 -1.29352,0.2444 -0.32338,0.062 -0.90546,0.164 -1.29352,0.2267 -0.38805,0.063 -1.02305,0.1661 -1.41111,0.2299 -2.60719,0.4287 -7.22978,0.9334 -10.28935,1.1234 -0.61442,0.038 -1.31382,0.1521 -1.55421,0.2533 -0.35866,0.151 -0.74895,0.1716 -2.17546,0.1147 -0.95611,-0.038 -2.03923,-0.1456 -2.40692,-0.2389 -2.12258,-0.5385 -3.35022,-1.8051 -3.47731,-3.5878 l -0.0557,-0.7811 -1.42702,0.7133 c -0.78486,0.3923 -1.74451,0.834 -2.13257,0.9816 -0.38805,0.1476 -0.81139,0.3134 -0.94074,0.3684 -0.12935,0.055 -0.6056,0.2156 -1.05833,0.3568 -0.45273,0.1411 -0.92898,0.2966 -1.05834,0.3454 -0.22494,0.085 -0.63916,0.199 -1.73449,0.478 -1.131,0.2881 -1.48236,0.3634 -3.26319,0.6992 -1.95662,0.369 -4.70445,0.6784 -7.81991,0.8803 -4.28011,0.2774 -6.75389,0.6329 -9.4074,1.3517 -0.51741,0.1401 -1.17887,0.3085 -1.46991,0.3741 -0.76982,0.1736 -3.28539,0.2211 -3.70417,0.07 z m 2.66626,-0.5703 c 0.34448,-0.069 0.91738,-0.1804 1.27309,-0.2478 0.35572,-0.067 0.77905,-0.1636 0.94074,-0.2139 2.35009,-0.7304 4.99752,-1.1424 9.05463,-1.4091 4.85058,-0.319 7.50436,-0.6646 10.90672,-1.4207 0.30721,-0.068 0.73103,-0.1535 0.94183,-0.1894 0.21079,-0.036 0.41235,-0.1123 0.44791,-0.1698 0.0356,-0.058 0.17683,-0.1046 0.31394,-0.1046 0.26477,0 0.95359,-0.1956 1.29333,-0.3672 0.11231,-0.057 0.30016,-0.1032 0.41746,-0.1032 0.11729,0 0.26353,-0.042 0.32497,-0.094 0.0614,-0.052 0.32338,-0.1608 0.58208,-0.2429 0.25871,-0.082 0.58944,-0.1988 0.73496,-0.2592 0.14552,-0.06 0.38364,-0.1592 0.52916,-0.2195 0.93588,-0.3878 2.40149,-1.1021 3.10847,-1.515 0.60886,-0.3556 0.87031,-0.5861 0.98682,-0.87 0.15594,-0.3801 0.80831,-1.5061 0.93919,-1.6211 0.0368,-0.032 0.24515,-0.3234 0.46298,-0.6467 0.21783,-0.3234 0.42673,-0.6145 0.46422,-0.6468 0.0375,-0.032 0.30476,-0.3498 0.59392,-0.7056 1.09798,-1.3507 3.45346,-3.7418 4.02774,-4.0887 0.17786,-0.1074 0.32338,-0.2872 0.32338,-0.3996 0,-0.1124 0.0474,-0.3259 0.10534,-0.4744 0.0579,-0.1486 0.17298,-0.5083 0.25564,-0.7993 0.0827,-0.291 0.194,-0.5794 0.24743,-0.6409 0.0534,-0.061 0.0971,-0.1794 0.0971,-0.262 0,-0.1616 -0.1084,-0.1298 -1.17592,0.3447 -0.29104,0.1294 -0.635,0.2743 -0.76436,0.3222 -0.12935,0.048 -0.36747,0.1416 -0.52916,0.2084 -0.16169,0.067 -0.47919,0.1851 -0.70556,0.2628 -0.22636,0.078 -0.5174,0.186 -0.64676,0.2407 -0.57095,0.2414 -2.51299,0.8511 -4.40972,1.3846 -2.47587,0.6964 -2.67864,0.7783 -3.79843,1.5339 -1.02917,0.6945 -1.32208,0.8633 -3.19833,1.8435 -2.18457,1.1412 -4.46231,2.0892 -6.82037,2.8388 -0.51741,0.1644 -1.04657,0.3415 -1.17592,0.3934 -0.12936,0.052 -0.36748,0.129 -0.52917,0.1711 -0.16169,0.042 -0.45273,0.1229 -0.64676,0.1796 -0.66473,0.1941 -1.29372,0.3671 -1.70509,0.469 -0.22637,0.056 -0.62324,0.1592 -0.88195,0.2291 -0.54312,0.1468 -1.32455,0.3303 -1.99907,0.4696 -0.2587,0.053 -1.026,0.2118 -1.70509,0.3519 -3.63975,0.7512 -8.23301,1.3943 -8.96436,1.2551 -0.402,-0.077 -0.41827,-0.099 -1.30493,-1.7765 -0.20506,-0.3881 -0.40162,-0.732 -0.43679,-0.7644 -0.0352,-0.032 -0.30779,-0.5615 -0.60582,-1.1759 -0.49279,-1.0159 -0.71015,-1.4968 -1.06305,-2.3518 -0.0667,-0.1617 -0.16536,-0.3999 -0.21916,-0.5292 -0.0538,-0.1294 -0.20892,-0.6056 -0.34471,-1.0583 -0.13579,-0.4528 -0.29636,-0.9447 -0.35682,-1.0933 -0.0605,-0.1486 -0.11118,-0.4925 -0.11272,-0.7644 -0.004,-0.7421 -0.18157,-1.3657 -0.47825,-1.6815 -0.28521,-0.3036 -0.79202,-0.3736 -1.02413,-0.1415 -0.17598,0.176 -0.18567,1.4374 -0.0135,1.7591 0.13533,0.2528 0.0477,0.854 -0.11028,0.7563 -0.0513,-0.032 -0.16319,-0.2692 -0.24853,-0.5278 -0.15415,-0.4671 -0.3874,-0.6676 -0.61379,-0.5277 -0.12254,0.076 -0.084,0.4909 0.11627,1.2512 0.0678,0.2576 0.0724,0.4688 0.0109,0.5067 -0.16161,0.1 -0.34054,-0.056 -0.34054,-0.2959 0,-0.2256 -0.2971,-0.4067 -0.48098,-0.293 -0.18792,0.1161 -0.11497,0.7308 0.13754,1.1588 0.13448,0.2279 0.21073,0.469 0.16944,0.5358 -0.12451,0.2015 -0.39324,0.1369 -0.47276,-0.1137 -0.0867,-0.273 -0.5479,-0.3196 -0.7503,-0.076 -0.10136,0.1221 -0.0634,0.261 0.16199,0.5932 0.32335,0.4765 0.3851,0.8936 0.13228,0.8936 -0.0891,0 -0.24061,-0.1183 -0.33665,-0.2629 -0.15082,-0.2272 -0.20082,-0.2412 -0.36712,-0.1032 -0.26161,0.2171 -0.2448,0.3575 0.13087,1.0928 0.17786,0.3482 0.39748,0.8166 0.48805,1.0409 0.70793,1.7535 2.4565,5.2402 3.18,6.3411 0.76302,1.1609 1.80806,2.33 2.23528,2.5005 1.03394,0.4128 2.16803,0.5259 3.20112,0.3193 z m 39.41379,-2.283 c 0.33333,-0.096 1.45273,-0.23 2.48754,-0.2985 2.63794,-0.1744 4.56362,-0.3655 7.11436,-0.706 2.6706,-0.3564 4.66421,-0.6883 7.02615,-1.1696 0.30721,-0.063 0.82315,-0.1631 1.14653,-0.2234 0.32338,-0.06 0.89223,-0.1678 1.26412,-0.2389 1.96146,-0.3754 2.97064,-0.543 4.72126,-0.784 0.70493,-0.097 1.31759,-0.1986 1.36148,-0.2257 0.11848,-0.073 3.58872,-0.4929 5.42423,-0.656 1.53036,-0.136 3.44541,-0.1153 7.49228,0.081 1.03891,0.05 1.91837,0.025 2.61242,-0.074 1.14639,-0.1643 1.86845,-0.4913 1.65447,-0.7491 -0.2331,-0.2809 -1.86178,-0.6615 -2.83058,-0.6615 -0.38409,0 -0.81989,-0.047 -0.96845,-0.1053 -0.14857,-0.058 -0.50824,-0.1724 -0.79929,-0.2544 -1.06763,-0.3006 -2.4424,-1.0578 -3.22828,-1.7779 -0.73684,-0.6752 -1.7106,-2.0775 -1.7106,-2.4635 0,-0.098 -0.12777,-0.2888 -0.28394,-0.4246 -0.8664,-0.7533 -1.74666,-0.6899 -3.02681,0.2182 -0.17167,0.1218 -0.37011,0.2214 -0.44097,0.2214 -0.0709,0 -0.12884,0.04 -0.12884,0.089 0,0.049 -0.14552,0.1528 -0.32338,0.2309 -1.11957,0.4915 -2.06105,0.8311 -2.67523,0.9648 -0.38806,0.084 -0.86431,0.1974 -1.05833,0.251 -0.19403,0.054 -1.05628,0.1638 -1.9161,0.2448 -1.24551,0.1174 -2.47664,0.1184 -6.05602,0 -8.24466,-0.2621 -9.91418,-0.1508 -12.96732,0.8643 -0.95226,0.3166 -3.60893,1.5618 -4.20015,1.9686 -0.18016,0.124 -0.40505,0.1956 -0.49977,0.1593 -0.28222,-0.1083 -0.19576,-0.492 0.15116,-0.6708 0.17786,-0.092 0.34984,-0.1964 0.38218,-0.2328 0.0323,-0.036 0.58796,-0.3344 1.23472,-0.6621 2.0746,-1.0513 3.66957,-1.5875 6.05602,-2.0361 0.43448,-0.082 2.05417,-0.1587 3.75306,-0.1784 l 2.98871,-0.035 1.36221,-0.6725 c 1.31557,-0.6494 2.16394,-1.0435 2.65574,-1.2338 0.12935,-0.05 0.47331,-0.195 0.76435,-0.3221 0.29104,-0.1271 0.87313,-0.3484 1.29352,-0.4917 1.52285,-0.519 3.32984,-1.4802 3.85608,-2.0511 0.52234,-0.5667 0.60863,-0.7773 0.31846,-0.7773 -0.097,0 -0.17639,-0.047 -0.17639,-0.1039 0,-0.057 -0.0926,-0.1332 -0.20579,-0.1691 -0.27512,-0.087 -0.90147,-0.4691 -0.95054,-0.5795 -0.0216,-0.049 -0.10093,-0.089 -0.17639,-0.091 -0.0755,0 -0.26948,-0.1061 -0.43117,-0.2326 -0.16169,-0.1265 -0.36126,-0.2311 -0.44349,-0.2326 -0.0822,0 -0.36292,-0.1438 -0.62375,-0.3164 -0.26083,-0.1726 -0.91515,-0.5092 -1.45406,-0.748 -1.99056,-0.8819 -3.35011,-2.0326 -4.09447,-3.4655 -0.32397,-0.6236 -0.36995,-0.8343 -0.39605,-1.8143 -0.0315,-1.1836 0.0659,-1.5371 0.42338,-1.5371 0.18969,0 0.21357,-0.062 0.15723,-0.4093 -0.0891,-0.549 0.20394,-1.0018 0.64837,-1.0018 0.1796,0 0.38696,-0.06 0.46079,-0.1343 0.1006,-0.1006 0.23758,-0.085 0.54653,0.061 0.50051,0.2375 0.74329,0.5657 1.2827,1.7341 0.39926,0.8647 0.8099,1.3962 1.07879,1.3962 0.0854,0 0.11293,-0.2785 0.0819,-0.8283 -0.0726,-1.2844 0.37032,-1.5848 1.09745,-0.7444 0.12935,0.1495 0.36132,0.6042 0.51548,1.0104 0.22192,0.5849 0.92904,1.716 1.30709,2.091 0.0326,0.032 0.13857,0.2127 0.23549,0.4008 0.3175,0.6163 0.77083,1.0103 1.16243,1.0103 0.33067,0 0.71795,0.073 1.89479,0.3589 1.02175,0.2479 1.02201,0.2479 1.16876,-0.1064 0.16685,-0.4028 0.11026,-3.2678 -0.0776,-3.9271 -0.25248,-0.8861 -0.79151,-1.6997 -1.82432,-2.7535 -1.11212,-1.1347 -1.88572,-2.1008 -2.32754,-2.9067 -0.36888,-0.6728 -0.94551,-1.8371 -1.08427,-2.1893 -0.0637,-0.1616 -0.16257,-0.3858 -0.2197,-0.4981 -0.0571,-0.1123 -0.10387,-0.3076 -0.10387,-0.4341 0,-0.1264 -0.0471,-0.2589 -0.1046,-0.2944 -0.12933,-0.08 -0.21741,-0.5673 -0.4159,-2.3011 -0.0851,-0.7438 -0.16271,-1.3788 -0.17236,-1.4111 -0.0237,-0.079 -1.29433,1.8974 -1.73856,2.7046 -0.19576,0.3557 -0.49489,0.8849 -0.66472,1.1759 -0.16984,0.2911 -0.45301,0.8202 -0.62926,1.1759 -0.17626,0.3558 -0.3508,0.6733 -0.38789,0.7056 -0.0371,0.032 -0.50939,0.9319 -1.04959,1.9991 -0.99143,1.9585 -2.17006,4.0436 -2.4476,4.3299 -0.0829,0.085 -0.15063,0.2007 -0.15063,0.2562 0,0.055 -0.0679,0.1707 -0.15087,0.2562 -0.083,0.085 -0.28065,0.3406 -0.43929,0.5669 -0.40628,0.5798 -0.57622,0.7899 -1.14433,1.4149 -0.56073,0.6169 -0.64148,0.9379 -0.23519,0.9352 0.14552,0 0.33916,-0.049 0.43031,-0.1067 0.22506,-0.1425 0.48103,-0.028 0.48103,0.2151 0,0.2602 -0.2277,0.4813 -0.49548,0.4813 -0.1173,0 -0.30515,0.047 -0.41746,0.1056 -0.1123,0.058 -0.86565,0.4282 -1.67409,0.8226 -1.8475,0.9011 -2.50844,1.3992 -3.175,2.3927 -0.77865,1.1605 -1.91062,3.4447 -2.29586,4.6327 -0.34942,1.0776 -0.63089,1.6493 -1.01452,2.0604 -0.22752,0.2439 -0.42275,0.3342 -0.72252,0.3342 -0.29407,0 -0.51802,0.1002 -0.7884,0.3528 -0.42059,0.3929 -0.60839,0.4331 -0.8577,0.1838 -0.14686,-0.1469 -0.22013,-0.1161 -0.56063,0.2352 -0.44597,0.4601 -0.68975,0.5033 -0.98707,0.1747 -0.18641,-0.206 -0.23407,-0.212 -0.46699,-0.059 -0.21401,0.1402 -0.29581,0.1433 -0.46751,0.018 -0.17634,-0.129 -0.19977,-0.2859 -0.15351,-1.0283 0.03,-0.4819 0.11158,-1.0878 0.18124,-1.3465 0.0696,-0.2587 0.16346,-0.6254 0.20846,-0.8149 l 0.0818,-0.3446 -0.51752,0.4575 c -1.54231,1.3635 -3.52988,3.5109 -4.3369,4.6855 -0.22768,0.3314 -0.44907,0.6293 -0.49198,0.662 -0.0429,0.033 -0.29199,0.4825 -0.55351,0.9996 -1.52328,3.0118 -0.54124,4.7066 3.15977,5.4531 0.87329,0.1761 3.011,0.1517 3.68607,-0.042 z m 59.45745,-3.6033 c 1.10519,-0.2435 2.01455,-0.7932 2.94352,-1.7792 2.38142,-2.5278 2.49772,-2.6257 3.96762,-3.3405 0.76056,-0.3699 1.40622,-0.6903 1.43479,-0.712 0.0286,-0.022 -0.0217,-0.2366 -0.11161,-0.4775 -0.17398,-0.4659 -0.17601,-2.3723 -0.003,-2.7192 0.0516,-0.1036 0.16615,-0.3417 0.25444,-0.5291 0.17897,-0.38 0.88514,-1.1291 1.0644,-1.1291 0.0636,0 0.0938,-0.066 0.067,-0.1459 -0.0337,-0.101 -0.37845,-0.1482 -1.12314,-0.1536 -1.02712,-0.01 -1.09515,-0.024 -1.54179,-0.3833 -0.55416,-0.4454 -0.58145,-0.4483 -1.15363,-0.1223 -0.56059,0.3194 -1.31437,0.6949 -1.62048,0.8071 -0.12935,0.048 -0.3832,0.1458 -0.5641,0.2185 -0.40981,0.1648 -1.10246,0.1721 -1.20095,0.013 -0.10036,-0.1624 -1.78248,-1.2916 -1.92401,-1.2916 -0.0622,0 -0.13074,-0.043 -0.1523,-0.095 -0.0668,-0.1611 -2.31761,-1.2573 -3.8611,-1.8805 -1.38732,-0.5602 -3.28695,-1.2174 -4.46837,-1.5461 -0.29104,-0.081 -0.62106,-0.1949 -0.73336,-0.2533 -0.11231,-0.058 -0.33408,-0.1061 -0.49283,-0.1061 -0.15875,0 -0.32134,-0.053 -0.36131,-0.1176 -0.04,-0.065 -0.22518,-0.1176 -0.41158,-0.1176 -0.18639,0 -0.36799,-0.047 -0.40354,-0.1046 -0.0356,-0.057 -0.23712,-0.132 -0.44791,-0.1654 -0.2108,-0.034 -0.59494,-0.1222 -0.85364,-0.1972 -0.2587,-0.075 -0.65558,-0.1823 -0.88194,-0.2383 -0.22637,-0.056 -0.62324,-0.162 -0.88195,-0.2352 -0.2587,-0.073 -0.65558,-0.1791 -0.88194,-0.2352 -0.22637,-0.056 -0.62324,-0.1592 -0.88195,-0.2291 -1.21246,-0.3276 -3.53961,-0.7817 -5.53496,-1.0798 -2.43363,-0.3637 -7.00243,-0.3885 -9.3111,-0.051 l -1.5581,0.2281 -6.6e-4,0.5363 c -3.6e-4,0.295 -0.0482,0.7215 -0.10623,0.9479 -0.0581,0.2263 -0.13676,0.6302 -0.17489,0.8974 -0.0763,0.5351 -0.065,0.5443 1.04613,0.8517 1.37456,0.3803 4.56871,1.469 5.87963,2.004 0.52656,0.2149 0.84614,0.3485 1.29352,0.541 0.2587,0.1112 0.65558,0.281 0.88194,0.3773 0.46361,0.197 1.57361,0.7113 4.58611,2.1248 0.57358,0.2691 1.31365,0.4911 2.11667,0.6349 1.58831,0.2846 2.39959,0.4331 3.05741,0.5599 0.91509,0.1764 1.85824,0.3538 2.52824,0.4756 0.35571,0.065 0.95103,0.1758 1.32291,0.247 0.74739,0.143 1.49093,0.2774 2.55764,0.4623 0.38806,0.067 0.98337,0.1733 1.32292,0.2356 0.33955,0.062 0.89517,0.1623 1.23472,0.222 1.22744,0.2158 1.43845,0.2974 1.47809,0.572 0.0335,0.2319 -0.0142,0.2602 -0.43929,0.2602 -0.26227,0 -0.70251,-0.051 -0.97831,-0.1128 -0.47448,-0.1067 -1.11948,-0.2297 -2.52993,-0.4822 -0.33955,-0.061 -0.92164,-0.1666 -1.29352,-0.2352 -0.37189,-0.069 -0.95397,-0.1744 -1.29352,-0.2352 -1.08712,-0.1946 -2.35393,-0.43 -5.02708,-0.934 -0.32338,-0.061 -1.18682,-0.2219 -1.91875,-0.3577 -1.3073,-0.2425 -1.5987,-0.3496 -3.96088,-1.4555 -2.69718,-1.2629 -3.51796,-1.6241 -5.05648,-2.2257 -3.10026,-1.2122 -6.24781,-2.2167 -8.37848,-2.6739 -1.28909,-0.2766 -1.65,-0.3486 -2.08727,-0.4161 -0.46199,-0.071 -0.79643,-0.3306 -1.08773,-0.8435 -0.0808,-0.1423 -0.21313,-0.3751 -0.29398,-0.5173 -0.0808,-0.1423 -0.2446,-0.3672 -0.36389,-0.4998 -0.40374,-0.4489 -0.85898,-1.1795 -1.06626,-1.7111 -0.25716,-0.6595 -0.64157,-1.2935 -0.7843,-1.2935 -0.21417,0 -0.11859,1.4582 0.12718,1.9403 0.12936,0.2537 0.23519,0.5295 0.23519,0.6128 0,0.256 -0.36468,0.1681 -0.61323,-0.1479 -0.12952,-0.1646 -0.46009,-0.4049 -0.73459,-0.534 -0.27449,-0.129 -0.55451,-0.3515 -0.62225,-0.4943 -0.3821,-0.8059 -0.61697,-1.3948 -0.61697,-1.5471 0,-0.2592 -0.96021,-1.2171 -1.0284,-1.0259 -0.0683,0.1916 0.56512,1.4851 1.17836,2.4063 0.43149,0.6481 0.51987,1.0197 0.26162,1.0998 -0.15702,0.049 -0.96704,-1.209 -1.50663,-2.3394 -0.32776,-0.6866 -0.49284,-0.9114 -0.66952,-0.9114 -0.16018,0 -0.2345,0.079 -0.2345,0.2482 0,0.3113 0.5824,1.4328 1.32083,2.5433 0.60207,0.9055 0.85528,1.62 0.52981,1.4951 -0.20397,-0.078 -1.61077,-2.1583 -1.83633,-2.7152 -0.11229,-0.2772 -0.20568,-0.3541 -0.37585,-0.3096 -0.12453,0.033 -0.22643,0.077 -0.22643,0.099 0,0.1787 0.9902,1.9965 1.18053,2.1673 0.036,0.032 0.19272,0.244 0.34818,0.4704 0.15546,0.2264 0.32409,0.4407 0.37474,0.4762 0.0506,0.036 0.12596,0.234 0.16735,0.441 0.0658,0.3289 0.0438,0.3763 -0.17461,0.3763 -0.13744,0 -0.24989,-0.069 -0.24989,-0.1542 0,-0.085 -0.10464,-0.2665 -0.23254,-0.4038 -0.12789,-0.1373 -0.47442,-0.6235 -0.77005,-1.0805 -0.79836,-1.2342 -0.84801,-1.0478 -0.074,0.2779 0.47836,0.8194 1.22994,1.6054 1.75895,1.8395 0.20681,0.092 0.37601,0.1956 0.37601,0.2313 0,0.036 0.25136,0.165 0.55857,0.2876 0.84467,0.3369 3.02095,1.4798 4.14514,2.1768 0.54974,0.3409 1.15828,0.7111 1.35231,0.8226 0.19403,0.1116 0.59091,0.3424 0.88195,0.5129 0.29104,0.1704 1.67792,0.8923 3.08196,1.6041 1.88526,0.9557 2.66937,1.2952 2.99861,1.2983 0.2452,0 0.55387,0.068 0.68594,0.147 0.56858,0.3382 0.98924,0.7279 1.11602,1.034 0.10783,0.2603 0.27446,0.3694 0.80111,0.5243 0.36573,0.1075 0.7708,0.2372 0.90015,0.2881 0.12936,0.051 0.68498,0.2343 1.23473,0.4077 1.80803,0.5701 4.85328,1.5716 6.40879,2.1078 0.84079,0.2898 1.76683,0.5857 2.05787,0.6577 0.29104,0.072 0.635,0.1761 0.76435,0.2315 0.12936,0.055 0.4204,0.1653 0.64676,0.2441 0.22637,0.079 0.58356,0.2164 0.79375,0.3059 0.2102,0.089 0.58062,0.2473 0.82315,0.3509 1.89051,0.8076 2.96055,1.1437 5.20347,1.6343 1.58927,0.3476 2.41446,0.4824 4.23334,0.6915 0.54442,0.063 1.92613,-0.032 2.58333,-0.1766 z m -96.12824,-0.2785 c 2.6859,-0.3891 3.56237,-0.529 4.7625,-0.7603 1.59172,-0.3068 2.35268,-0.4626 3.43958,-0.7043 0.46138,-0.1027 0.70955,-0.1627 1.94028,-0.469 0.42088,-0.1048 0.88716,-0.2326 1.79329,-0.4915 0.22636,-0.065 0.57032,-0.1618 0.76435,-0.2158 1.06245,-0.2958 3.80008,-1.2764 5.40926,-1.9375 1.02849,-0.4226 4.17393,-1.9335 4.29213,-2.0618 0.0323,-0.035 0.18511,-0.1349 0.33949,-0.2218 0.15438,-0.087 0.46775,-0.2631 0.69636,-0.3915 0.22862,-0.1284 0.73044,-0.4472 1.11516,-0.7085 0.8993,-0.6107 1.71414,-0.9372 3.63999,-1.4583 1.70718,-0.462 3.91046,-1.1611 4.23217,-1.3428 0.11231,-0.063 0.285,-0.1154 0.38377,-0.1154 0.0988,0 0.27147,-0.047 0.38377,-0.1039 0.11231,-0.057 0.33649,-0.1558 0.49818,-0.2194 0.16169,-0.064 0.45273,-0.1827 0.64676,-0.2646 0.19402,-0.082 0.47184,-0.1949 0.61736,-0.251 0.30517,-0.1175 0.73733,-0.2898 1.11713,-0.4455 0.14552,-0.06 0.40871,-0.1396 0.58487,-0.1778 0.17615,-0.038 0.52011,-0.2685 0.76435,-0.5117 0.24423,-0.2433 0.62927,-0.586 0.85564,-0.7616 0.22636,-0.1756 0.33637,-0.3199 0.24445,-0.3206 -0.24002,0 -3.92318,0.7725 -5.65371,1.1886 -1.33774,0.3217 -2.49987,0.6658 -3.1162,0.9226 -0.12936,0.054 -0.4204,0.1616 -0.64676,0.2394 -0.87081,0.299 -1.35833,0.5145 -3.41019,1.5073 -2.18639,1.058 -3.51707,1.8331 -4.1696,2.4289 -0.32067,0.2927 -0.65212,0.5323 -0.73655,0.5323 -0.0844,0 -0.24541,0.05 -0.35771,0.1111 -0.27465,0.1495 -4.14046,1.9971 -4.43753,2.1209 -0.81528,0.3396 -2.28232,0.8239 -4.29213,1.417 -0.48507,0.1431 -1.17298,0.3525 -1.5287,0.4653 -0.35572,0.1128 -0.88488,0.2706 -1.17593,0.3507 -0.29104,0.08 -0.65072,0.193 -0.79928,0.2509 -0.14856,0.058 -0.39679,0.1054 -0.55162,0.1054 -0.15483,0 -0.3106,0.047 -0.34616,0.1046 -0.0356,0.058 -0.23712,0.1331 -0.44791,0.1679 -0.2108,0.035 -0.59493,0.1176 -0.85364,0.184 -2.7295,0.7005 -4.55036,1.0566 -7.28162,1.4242 -1.23625,0.1663 -1.1737,0.2101 -1.93277,-1.3516 -0.67236,-1.3832 -0.79136,-1.6686 -1.12769,-2.7046 -0.16798,-0.5174 -0.35712,-1.0326 -0.42032,-1.1449 -0.0632,-0.1123 -0.11491,-0.3076 -0.11491,-0.4341 0,-0.1264 -0.0529,-0.2625 -0.11759,-0.3025 -0.0647,-0.04 -0.1176,-0.1987 -0.1176,-0.3527 0,-0.1541 -0.0529,-0.3129 -0.11759,-0.3528 -0.0647,-0.04 -0.11759,-0.1987 -0.11759,-0.3528 0,-0.1541 -0.0529,-0.3128 -0.1176,-0.3528 -0.0647,-0.04 -0.11759,-0.1848 -0.11759,-0.322 0,-0.1371 -0.0481,-0.4118 -0.10696,-0.6104 -0.0588,-0.1986 -0.15751,-0.5463 -0.21929,-0.7727 -0.27984,-1.0253 -0.42979,-1.4807 -0.53248,-1.6169 -0.18009,-0.2389 -0.5328,-0.1686 -0.7399,0.1475 -0.16199,0.2472 -0.17186,0.3782 -0.0615,0.8164 0.0723,0.2871 0.13143,0.7606 0.13143,1.0521 0,0.5968 0.2469,1.6411 0.58676,2.4819 0.0523,0.1294 0.15866,0.4204 0.23639,0.6468 0.0777,0.2264 0.185,0.5174 0.23838,0.6468 0.1557,0.3773 1.63307,3.3762 1.85376,3.7629 0.11072,0.1941 0.38035,0.6703 0.59918,1.0584 0.36126,0.6406 0.55417,0.8765 0.71886,0.8793 0.0323,5e-4 1.3288,-0.183 2.88102,-0.4078 z m 73.31898,-4.7584 c 0,-0.052 -0.46302,-0.2393 -1.02893,-0.4155 -0.56592,-0.1762 -1.14105,-0.3729 -1.27807,-0.437 -0.13702,-0.064 -0.34816,-0.098 -0.46921,-0.074 -0.18796,0.036 -0.14916,0.1194 0.26591,0.5701 l 0.486,0.5278 1.01215,-0.038 c 0.55668,-0.021 1.01215,-0.081 1.01215,-0.1331 z m 36.80648,-0.5967 c 0.86394,-0.1282 1.3788,-0.2683 1.9421,-0.5286 0.91689,-0.4238 2.05605,-1.299 2.05605,-1.5796 0,-0.068 0.33236,-0.5437 0.73858,-1.0574 1.41461,-1.7889 1.85842,-3.1695 1.56,-4.8525 -0.0885,-0.4989 -0.28886,-1.1868 -0.44529,-1.5287 -0.19757,-0.4317 -0.26845,-0.758 -0.23213,-1.0686 0.11916,-1.0188 -0.51528,-2.3774 -1.36051,-2.9134 -0.46802,-0.2968 -0.65589,-0.3437 -1.37833,-0.3437 -0.50861,0 -0.91992,0.061 -1.04943,0.1558 -0.20416,0.1493 -0.1999,0.209 0.10272,1.4405 0.17364,0.7066 0.34231,1.3774 0.37483,1.4905 0.0399,0.139 0.17736,0.2058 0.42303,0.2058 0.41195,0 1.32036,0.4874 1.42716,0.7657 0.11177,0.2913 -0.20958,0.3272 -0.66064,0.074 -0.69696,-0.3915 -0.91051,-0.3703 -1.07555,0.1069 -0.26224,0.7582 -1.17705,1.5484 -2.305,1.9911 -0.93212,0.3658 -1.61788,0.7083 -1.75913,0.8785 -0.12525,0.1509 -0.10496,0.2173 0.12276,0.4017 0.38147,0.3089 0.57913,0.9324 0.41495,1.3091 -0.30513,0.7 -0.92036,0.9248 -1.93912,0.7086 -0.39459,-0.084 -0.77188,-0.2178 -0.83842,-0.298 -0.0917,-0.1106 -0.2637,0 -0.71103,0.4411 -0.78169,0.7776 -0.93445,1.1785 -0.93445,2.4525 0,0.9854 0.016,1.0518 0.29878,1.2371 0.35892,0.2351 0.90437,0.3583 2.46465,0.5564 1.16334,0.1477 1.50404,0.1422 2.76342,-0.045 z m -0.23326,-1.1688 c -0.13777,-0.087 -0.0829,-0.1485 0.26081,-0.2922 0.2394,-0.1 0.54119,-0.1818 0.67065,-0.1818 0.24501,0 0.98858,-0.3739 1.31014,-0.6587 0.2337,-0.2071 0.46111,-0.212 0.46111,-0.01 0,0.1929 -0.54943,0.6974 -0.94074,0.8639 -0.90112,0.3834 -1.45746,0.4715 -1.76197,0.2789 z m -73.91189,0.9429 c 0.0987,-0.1908 0.17941,-0.4058 0.17941,-0.4778 0,-0.072 0.15875,-0.4714 0.35278,-0.8877 0.59947,-1.2863 1.01431,-2.2102 1.17147,-2.6091 0.27853,-0.7069 0.59386,-0.3443 0.35374,0.4068 -0.0784,0.2452 -0.36841,0.922 -0.64448,1.5041 -0.92786,1.9564 -1.06146,2.4107 -0.70892,2.4107 0.20372,0 0.65134,-0.453 0.65134,-0.6592 0,-0.079 0.058,-0.1637 0.12897,-0.1874 0.0709,-0.024 0.38481,-0.8005 0.69749,-1.7264 0.31269,-0.9259 0.59949,-1.7144 0.63734,-1.7523 0.0378,-0.038 0.13039,-0.01 0.20563,0.068 0.10402,0.104 0.0324,0.4545 -0.29883,1.4621 -0.55251,1.6808 -0.64627,2.2072 -0.39312,2.2072 0.24437,0 0.52795,-0.4172 0.67934,-0.9995 0.0673,-0.2587 0.32383,-0.8937 0.57017,-1.4112 0.24634,-0.5174 0.48205,-1.0862 0.5238,-1.2641 0.0423,-0.1801 0.15622,-0.3234 0.25726,-0.3234 0.14836,0 0.16788,0.1017 0.10729,0.5586 -0.0806,0.6078 -0.0976,0.6566 -0.63441,1.8153 -0.38515,0.8314 -0.4497,1.1539 -0.23096,1.1539 0.27926,0 0.8885,-0.9283 1.2927,-1.9697 0.0565,-0.1455 0.14891,-0.3836 0.20539,-0.5291 0.22367,-0.5763 0.60243,-1.3925 1.35061,-2.9104 0.43035,-0.8732 0.78211,-1.6475 0.7817,-1.7208 -4.1e-4,-0.073 0.35645,-0.4325 0.79301,-0.7984 0.43656,-0.3659 0.92779,-0.7822 1.09162,-0.9251 0.16383,-0.143 0.54393,-0.4451 0.84467,-0.6715 0.63804,-0.4802 2.81602,-2.6679 3.33652,-3.3514 0.48173,-0.6325 1.26312,-1.795 1.58697,-2.361 0.68068,-1.1896 1.31381,-2.3547 2.07189,-3.8126 0.84114,-1.6176 1.34334,-2.5569 1.76048,-3.2926 0.12836,-0.2263 0.46134,-0.8349 0.73996,-1.3523 0.52193,-0.9692 1.57321,-2.5977 2.81823,-4.3655 0.2221,-0.3154 0.43376,-0.5998 0.47037,-0.6322 0.1091,-0.096 0.59572,-1.0713 0.59572,-1.1935 0,-0.062 0.20766,-0.4187 0.46146,-0.7924 2.235,-3.2912 3.68101,-8.0554 3.29817,-10.8667 -0.16251,-1.1933 -0.30835,-1.7629 -0.61494,-2.4015 -0.20929,-0.436 -0.31347,-0.5182 -0.85702,-0.6762 -0.34033,-0.099 -0.76938,-0.178 -0.95345,-0.1757 -0.97029,0.012 -2.8309,0.7102 -4.04108,1.516 -1.22512,0.8158 -2.58153,2.2761 -3.12761,3.3672 -0.44056,0.8803 -0.55094,1.1833 -0.85899,2.3582 -0.0698,0.2662 -0.12691,1.2628 -0.12691,2.2147 0,1.3316 -0.0339,1.7196 -0.14699,1.6829 -0.28955,-0.094 -0.66053,-1.1334 -1.1343,-3.1779 -0.1708,-0.7371 -0.16683,-3.4243 0.006,-3.9588 0.0746,-0.2309 0.21143,-0.5962 0.30403,-0.8116 0.18798,-0.4374 0.12953,-0.6018 -0.127,-0.3572 -0.24219,0.2309 -0.45304,0.3949 -1.96139,1.5261 -2.20804,1.6559 -3.66543,3.2229 -4.90956,5.2788 -1.11434,1.8415 -1.2847,4.8036 -0.33348,5.7987 0.34676,0.3627 0.51229,0.4623 1.28222,0.7719 0.43509,0.1749 1.37683,0.1679 1.99396,-0.015 0.61977,-0.1835 1.49888,-1.0209 1.49888,-1.4278 0,-0.3628 0.11146,-0.6594 0.24777,-0.6594 0.17164,0 0.1193,0.9935 -0.0726,1.3782 -0.43185,0.8657 -1.38898,1.435 -2.48113,1.4759 l -0.71847,0.027 -0.0677,1.2347 c -0.0734,1.3385 0.0782,5.0477 0.26446,6.4676 0.23427,1.7863 0.27317,1.9991 0.36553,1.9991 0.0519,0 0.3726,-0.516 0.71277,-1.1466 0.34017,-0.6306 0.79296,-1.464 1.00619,-1.852 0.21323,-0.3881 0.58437,-1.1025 0.82475,-1.5875 0.24038,-0.4851 0.46874,-0.9084 0.50746,-0.9408 0.0899,-0.075 1.7943,-3.5949 2.73319,-5.6444 1.00865,-2.2018 1.53129,-3.3802 1.8776,-4.2334 0.0656,-0.1617 0.16606,-0.3858 0.22319,-0.4981 0.0571,-0.1123 0.10388,-0.3077 0.10388,-0.4341 0,-0.1264 0.0529,-0.2625 0.11759,-0.3025 0.0647,-0.04 0.11759,-0.1761 0.11759,-0.3025 0,-0.1264 0.0478,-0.3217 0.10613,-0.434 0.0584,-0.1123 0.17035,-0.4424 0.24883,-0.7334 0.0785,-0.291 0.18333,-0.6615 0.233,-0.8231 0.20229,-0.6585 0.50437,-1.8405 0.83395,-3.2632 0.13859,-0.5983 0.29302,-1.0878 0.34319,-1.0878 0.24254,0 0.19765,0.5153 -0.19268,2.2118 -0.56665,2.4628 -0.69359,2.9384 -1.15161,4.3146 -0.17219,0.5174 -0.37086,1.0731 -0.44147,1.2347 -0.0706,0.1617 -0.16753,0.3999 -0.21536,0.5292 -0.0478,0.1294 -0.19399,0.4733 -0.32481,0.7644 -0.13082,0.291 -0.31714,0.7143 -0.41406,0.9407 -0.24836,0.5801 -0.64727,1.4771 -0.99355,2.2343 -0.16269,0.3557 -0.44037,0.9642 -0.61706,1.3523 -0.7043,1.5468 -1.93396,4.0004 -2.02335,4.0373 -0.0522,0.022 -0.0949,0.1362 -0.0949,0.2548 0,0.1186 -0.0402,0.2332 -0.0893,0.2548 -0.0491,0.021 -0.32692,0.5154 -0.61736,1.0974 -0.69727,1.3973 -2.38625,4.5118 -2.95592,5.4508 -0.24925,0.4108 -0.45318,0.7717 -0.45318,0.802 0,0.03 -0.15875,0.2857 -0.35278,0.5677 -0.19403,0.282 -0.35278,0.5693 -0.35278,0.6385 0,0.069 -0.0529,0.1258 -0.11759,0.1258 -0.0647,0 -0.11759,0.054 -0.11759,0.1194 0,0.3317 -3.47554,5.4374 -4.09951,6.0224 -0.29997,0.2812 -0.99519,0.8259 -1.54494,1.2105 -0.54974,0.3845 -1.2257,0.931 -1.50212,1.2144 -0.50487,0.5177 -1.08491,1.5941 -1.08491,2.0132 0,0.1236 -0.0471,0.2539 -0.1046,0.2894 -0.0575,0.036 -0.13309,0.2371 -0.1679,0.4479 -0.0682,0.4128 -0.22044,1.0437 -0.43306,1.7944 -0.41032,1.4486 -0.56864,2.5283 -0.37076,2.5283 0.0712,0 0.21027,-0.1562 0.30894,-0.347 z m 8.2991,-31.3381 c -0.51309,-0.5461 -0.27954,-1.2409 0.41715,-1.2409 0.31755,0 0.42903,0.068 0.57357,0.347 0.23589,0.4561 0.22976,0.5051 -0.10896,0.8706 -0.3576,0.3858 -0.53674,0.3906 -0.88176,0.023 z m 15.39883,31.561 c 1.1269,-0.1022 1.78701,-0.1994 2.76343,-0.4067 0.3487,-0.074 0.74826,-0.2219 1.14493,-0.4237 0.1123,-0.057 0.27987,-0.1039 0.37238,-0.1039 0.0925,0 0.18582,-0.04 0.20738,-0.088 0.0216,-0.048 0.27732,-0.2146 0.56836,-0.3692 1.4349,-0.7621 1.88081,-1.0182 1.88113,-1.0804 1.9e-4,-0.037 -0.51558,-0.3172 -1.14617,-0.6219 -1.50318,-0.7264 -3.58648,-1.8235 -3.72769,-1.9632 -0.21217,-0.2097 -0.52958,-0.1093 -0.7008,0.2218 -0.21602,0.4177 -0.94244,1.0789 -1.61288,1.4679 -0.28293,0.1642 -1.28171,0.5993 -2.21951,0.9669 -0.9378,0.3675 -1.87708,0.742 -2.08727,0.8321 -0.2102,0.09 -0.55416,0.237 -0.76435,0.3263 -0.964,0.4097 -1.36789,0.59 -1.96968,0.8791 l -0.64676,0.3108 1.76389,0.064 c 3.01282,0.1086 4.89051,0.1052 6.17361,-0.011 z m 48.84933,-5.3194 c 0.0931,-0.1476 0.0767,-0.2439 -0.0656,-0.3862 -0.17446,-0.1745 -0.19361,-0.1557 -0.23921,0.235 -0.0513,0.4391 0.0817,0.505 0.30485,0.1512 z m -1.6947,-0.2079 c 0,-0.1256 0.0529,-0.2283 0.11759,-0.2283 0.0647,0 0.11759,0.053 0.11759,0.1176 0,0.065 0.16492,0.1176 0.36649,0.1176 0.32844,0 0.3606,-0.031 0.30975,-0.2968 -0.0312,-0.1632 -0.0109,-0.3251 0.0451,-0.3597 0.056,-0.035 0.10182,-0.2114 0.10182,-0.3929 0,-0.1815 0.10043,-0.4562 0.22317,-0.6104 0.23719,-0.2981 0.37331,-0.3748 2.14007,-1.2061 1.20197,-0.5655 1.8701,-1.1561 1.8701,-1.6529 0,-0.2936 -0.58577,-2.6641 -0.83025,-3.3599 -0.21708,-0.6178 -0.28813,-0.668 -1.08261,-0.7659 -1.70121,-0.2094 -1.7582,-0.1923 -1.4464,0.4327 0.20874,0.4184 0.23577,0.8286 0.0744,1.1286 -0.0604,0.1123 -0.1792,0.3761 -0.2639,0.5863 -0.0847,0.2102 -0.19087,0.3822 -0.23594,0.3822 -0.19773,0 -0.18516,-0.2383 0.0456,-0.8648 0.21759,-0.5907 0.22804,-0.7094 0.0872,-0.9909 -0.29436,-0.588 -0.31246,-0.5949 -0.86998,-0.3318 -0.46379,0.2189 -0.52442,0.2923 -0.52917,0.6407 -0.003,0.2163 0.0845,0.5454 0.19423,0.7313 0.23039,0.39 0.15778,0.5364 -0.17717,0.3571 -0.28102,-0.1504 -0.49281,-0.7122 -0.49281,-1.3073 0,-0.4302 -0.0115,-0.4411 -0.73495,-0.695 -0.40422,-0.1418 -0.99639,-0.3618 -1.31592,-0.4889 -0.52045,-0.2069 -0.59964,-0.2123 -0.76015,-0.052 -0.16052,0.1605 -0.15206,0.1792 0.0812,0.1792 0.27231,0 0.37618,0.3849 0.14279,0.5291 -0.0647,0.04 -0.1176,0.1532 -0.1176,0.2515 0,0.1375 0.0815,0.1609 0.35278,0.1013 0.27313,-0.06 0.35278,-0.036 0.35278,0.1041 0,0.176 -0.33469,0.4251 -0.57121,0.4251 -0.064,0 -0.26913,-0.1286 -0.45592,-0.2858 -0.49544,-0.4169 -1.17424,-0.3119 -1.53428,0.2374 -0.14344,0.2188 -0.26081,0.478 -0.26081,0.5759 0,0.2365 -0.29493,0.2253 -0.72554,-0.028 -0.31816,-0.187 -0.36293,-0.1888 -0.48852,-0.02 -0.076,0.1024 -0.27402,0.2201 -0.43995,0.2614 -1.15664,0.2878 -1.08093,1.6312 0.18718,3.3211 0.63748,0.8496 1.24172,1.4555 1.64322,1.6478 0.19402,0.093 0.53042,0.321 0.74755,0.5067 0.75846,0.6488 1.25822,0.8382 2.21127,0.8382 0.85607,0 0.88899,0.011 1.27674,0.4221 0.40729,0.4318 0.64453,0.4471 0.64453,0.041 z m -5.52685,-7.519 c 0,-0.065 -0.056,-0.1176 -0.12453,-0.1176 -0.0685,0 -0.0918,0.053 -0.0519,0.1176 0.04,0.065 0.096,0.1176 0.12453,0.1176 0.0285,0 0.0519,-0.053 0.0519,-0.1176 z m -38.98724,-14.2581 c -0.044,-0.1455 -0.12691,-0.3149 -0.18431,-0.3763 -0.13654,-0.1461 -0.1353,-2.209 0.002,-2.558 0.31616,-0.8062 0.84859,-2.7267 1.07737,-3.8861 0.0606,-0.3072 0.16484,-0.8364 0.23159,-1.1759 0.25247,-1.2843 0.33768,-1.6894 0.45142,-2.1461 0.20367,-0.8178 0.33478,-1.2779 0.51936,-1.8227 0.38754,-1.1437 0.90693,-2.9011 0.90693,-3.0687 0,-0.097 0.0476,-0.2271 0.10586,-0.2885 0.0637,-0.067 -0.0201,-0.3695 -0.21012,-0.7585 -0.62074,-1.2706 -1.00242,-2.9271 -1.12445,-4.8801 -0.0323,-0.5174 -0.0936,-1.1656 -0.13607,-1.4405 -0.0622,-0.4021 -0.0425,-0.4998 0.10086,-0.4998 0.22601,0 0.30367,0.297 0.38441,1.4699 0.13724,1.9937 0.63402,4.0283 1.32079,5.4093 0.53376,1.0733 2.02817,2.9597 2.02817,2.56 0,-0.071 -0.0397,-0.1474 -0.0882,-0.169 -0.0795,-0.035 -0.49515,-0.8457 -0.74392,-1.4503 -0.28588,-0.6947 -0.49628,-1.5358 -0.65718,-2.627 -0.16458,-1.1162 -0.16283,-1.3505 0.0206,-2.7652 0.39374,-3.0361 0.42459,-3.4427 0.35374,-4.6619 -0.0395,-0.6791 -0.18179,-1.6822 -0.31629,-2.2291 -0.37395,-1.5206 -1.59306,-4.2926 -2.20021,-5.0029 -0.11057,-0.1293 -0.27801,-0.3939 -0.37208,-0.5879 -0.2925,-0.6034 -1.02507,-1.2987 -1.77647,-1.6862 -0.9672,-0.4989 -1.14805,-0.4815 -0.69617,0.067 0.24045,0.2917 0.36133,0.567 0.36133,0.8231 0,0.4148 -0.17652,0.5197 -0.2873,0.1707 -0.10697,-0.3371 -0.70706,-0.8928 -1.26251,-1.1691 -1.62647,-0.8091 -4.34506,-0.7775 -6.08941,0.071 l -0.65105,0.3166 0.0287,0.586 c 0.0302,0.616 0.0672,0.7331 0.50127,1.5856 0.14818,0.2911 0.32768,0.6478 0.39888,0.7928 0.0712,0.1451 0.16914,0.2641 0.21764,0.2646 0.0485,5e-4 0.0882,0.048 0.0882,0.1065 0,0.058 0.20951,0.4505 0.46558,0.872 0.75756,1.2469 0.98427,2.1256 0.97577,3.782 -0.007,1.3169 -0.0731,1.7412 -0.48109,3.0754 -0.15351,0.5021 -0.48742,1.214 -0.74596,1.5906 -0.31258,0.4553 -0.26199,0.6082 0.10074,0.3045 1.46457,-1.2264 2.21352,-2.2248 2.61508,-3.4858 0.15419,-0.4842 0.16731,-2.6153 0.0196,-3.1868 -0.0585,-0.2264 -0.14078,-0.7953 -0.18286,-1.2642 -0.0643,-0.7169 -0.0481,-0.8525 0.10168,-0.8525 0.11517,0 0.20272,0.1559 0.24757,0.441 0.11977,0.7611 0.14824,0.8941 0.34111,1.5932 0.57854,2.0971 -0.0729,4.455 -1.70662,6.1767 -0.31609,0.3332 -0.57471,0.6832 -0.57471,0.778 0,0.6744 -1.24624,2.8308 -2.24668,3.8875 -1.23057,1.2998 -1.63864,1.958 -2.00249,3.2304 -0.31027,1.0849 -0.2852,2.334 0.0746,3.7189 0.16169,0.6224 0.30006,1.1654 0.3075,1.2068 0.0349,0.1947 0.2091,-0.9261 0.21669,-1.3945 0.0191,-1.1775 0.83338,-3.4849 1.55466,-4.4054 1.39275,-1.7775 3.38899,-3.2521 5.31883,-3.9289 0.60956,-0.2137 2.44203,-0.2204 2.86339,-0.01 0.48253,0.2405 0.96902,0.7181 0.96902,0.9513 0,0.1134 0.0529,0.2389 0.11759,0.2789 0.0647,0.04 0.1176,0.1987 0.1176,0.3528 0,0.154 0.0471,0.3092 0.1046,0.3447 0.11272,0.07 0.18996,0.4521 0.36975,1.8307 0.11815,0.906 0.0531,2.6075 -0.12368,3.2338 -0.0548,0.1941 -0.16321,0.5909 -0.24101,0.882 -0.22035,0.8243 -0.36948,1.3314 -0.46687,1.5875 -0.0492,0.1293 -0.15303,0.4204 -0.23076,0.6467 -0.17986,0.5238 -0.28881,0.8081 -0.45066,1.176 -0.0711,0.1617 -0.26414,0.6064 -0.42888,0.9883 -0.16475,0.3819 -0.56341,1.1555 -0.88592,1.7191 -0.61558,1.0757 -0.65522,1.2268 -0.47525,1.8115 0.0611,0.1987 0.19437,0.6522 0.29608,1.0079 0.25769,0.9013 0.82644,1.8484 1.27363,2.1211 0.48749,0.2972 0.58726,0.2903 0.48932,-0.034 z m -7.81476,-19.5694 c 8e-5,-0.075 0.0398,-0.1548 0.0883,-0.1764 0.0485,-0.022 0.20491,-0.2647 0.34757,-0.5403 l 0.25937,-0.5011 -0.25267,0.1352 c -0.44346,0.2374 -0.7672,0.6214 -0.82992,0.9846 -0.0335,0.1941 -0.0999,0.4851 -0.14761,0.6468 -0.0839,0.2847 -0.0769,0.2828 0.22405,-0.059 0.1709,-0.194 0.31079,-0.4145 0.31087,-0.49 z m -2.99258,0.2039 c 0.0614,-0.06 0.32216,-0.1265 0.57937,-0.147 0.34742,-0.028 0.50176,-0.1061 0.60026,-0.3048 0.0729,-0.1471 0.39502,-0.544 0.71579,-0.8819 0.61381,-0.6467 1.56768,-1.9836 1.56768,-2.1971 0,-0.069 0.0467,-0.2175 0.10387,-0.3298 0.76204,-1.498 0.78871,-3.3611 0.0787,-5.4959 -0.22504,-0.6766 -0.83644,-1.9709 -1.14829,-2.4308 -0.45862,-0.6763 -0.90245,-1.6422 -1.04275,-2.2691 -0.0809,-0.3615 -0.17801,-0.6411 -0.21582,-0.6214 -0.0378,0.02 -0.28041,0.1387 -0.53911,0.2645 -0.52514,0.2553 -1.32678,1.0351 -1.59005,1.5466 -0.0949,0.1844 -0.31832,0.5705 -0.49655,0.858 -0.17822,0.2875 -0.32405,0.5802 -0.32405,0.6505 0,0.07 0.24257,0.1993 0.53903,0.2868 0.29647,0.088 0.69499,0.2904 0.88561,0.4508 0.32169,0.2707 1.04481,1.2213 1.04481,1.3735 0,0.1749 -0.46301,0.04 -0.52418,-0.1525 -0.22411,-0.7061 -1.70896,-1.6326 -2.16144,-1.3487 -0.30654,0.1924 -0.33322,1.3426 -0.0374,1.6104 0.24163,0.2186 0.34614,0.229 1.22367,0.1206 0.7453,-0.092 0.72168,0.1095 -0.0421,0.3594 -0.63919,0.209 -1.17015,0.1644 -1.40466,-0.1182 -0.20089,-0.2421 -0.26662,-0.219 -0.77741,0.2721 -0.25221,0.2426 -0.69152,0.6288 -0.97625,0.8583 -0.39093,0.3151 -0.49763,0.4695 -0.43581,0.6306 0.0696,0.1814 0.11012,0.1899 0.27076,0.056 0.16249,-0.1348 0.22573,-0.1105 0.45231,0.1736 l 0.2634,0.3303 0.30444,-0.389 c 0.27115,-0.3464 0.3136,-0.3651 0.38817,-0.1708 0.11349,0.2958 -0.0612,0.5382 -0.60887,0.8448 -0.39392,0.2205 -0.46464,0.3216 -0.49417,0.7063 -0.0435,0.5671 0.13432,0.9995 0.57122,1.3888 0.18861,0.1681 0.34293,0.346 0.34293,0.3955 0,0.05 -0.18149,0.1877 -0.40332,0.3071 -0.35471,0.1911 -0.39035,0.2513 -0.29574,0.5002 0.0592,0.1556 0.0747,0.6725 0.0344,1.1487 -0.0718,0.8488 -0.0663,0.8722 0.27518,1.1897 0.19161,0.1782 0.5296,0.3895 0.7511,0.4695 0.47879,0.173 2.36557,0.2207 2.52528,0.064 z m -3.89606,-3.4895 c 0.27,-0.1036 0.22853,-0.2705 -0.0492,-0.1978 -0.12935,0.034 -0.23518,0.1082 -0.23518,0.1653 0,0.123 0.0375,0.1273 0.28436,0.033 z m 2.496,-9.483 c 0.0381,-0.1132 0.11604,-0.2058 0.17317,-0.2058 0.0571,0 0.10388,-0.071 0.10388,-0.1573 0,-0.2313 1.05157,-1.3402 1.5287,-1.6121 1.09837,-0.6259 2.41822,-1.2139 3.30822,-1.4739 l 0.98391,-0.2875 -0.88195,0.051 c -1.15189,0.066 -2.52476,0.5131 -3.47267,1.1307 -0.78906,0.5141 -1.67307,1.4156 -1.93203,1.9702 -0.0823,0.1763 -0.19633,0.4123 -0.25346,0.5246 -0.0571,0.1123 -0.10387,0.4026 -0.10387,0.645 v 0.4407 l 0.2384,-0.4098 c 0.13112,-0.2253 0.26958,-0.5023 0.3077,-0.6155 z"
       id="path59" /></g></svg>
