<?xml version="1.0" encoding="UTF-8" standalone="no"?>
<!-- Created with Inkscape (http://www.inkscape.org/) -->

<svg
   width="194.04558mm"
   height="109.43135mm"
   viewBox="0 0 194.04558 109.43135"
   version="1.1"
   id="svg1"
   xml:space="preserve"
   xmlns="http://www.w3.org/2000/svg"
   xmlns:svg="http://www.w3.org/2000/svg"><defs
     id="defs1" /><g
     id="layer1"
     transform="translate(-413.8206,-361.13454)"><path
       style="fill:#4d4d4d"
       d="m 473.23155,470.4387 c -0.29104,-0.12138 -1.54748,-0.30146 -2.79209,-0.40019 -2.2895,-0.18161 -3.67465,-0.68257 -5.51952,-1.99623 -0.64074,-0.45625 -0.81651,-0.77688 -0.81651,-1.48944 0,-0.83454 0.2081,-1.05231 0.88854,-0.92981 0.1249,0.0225 0.60115,-0.24336 1.05834,-0.59077 0.45718,-0.34741 1.30749,-0.78685 1.88957,-0.97654 0.58209,-0.18969 1.55121,-0.55902 2.15362,-0.82074 0.6024,-0.26171 1.40608,-0.55385 1.78594,-0.64919 0.37986,-0.0953 0.69065,-0.27949 0.69065,-0.40924 0,-0.12975 0.16995,-0.2359 0.37767,-0.2359 0.20772,0 0.5962,-0.27782 0.8633,-0.61737 0.62684,-0.79691 4.20291,-3.35138 4.69167,-3.35138 0.62473,0 1.82055,-0.82995 2.79861,-1.94237 l 0.92604,-1.05324 -3.57187,0.24103 c -4.52379,0.30527 -35.56837,0.31776 -36.6848,0.0148 l -0.83376,-0.22628 0.25406,1.1912 c 0.13973,0.65516 0.21726,1.76902 0.1723,2.47524 l -0.0818,1.28404 -2.24896,0.14831 c -1.23692,0.0816 -3.35028,0.0938 -4.69635,0.0273 l -2.4474,-0.12103 v -0.83425 c 0,-0.45884 -0.11089,-0.94736 -0.24642,-1.08561 -0.36518,-0.3725 -0.43721,-3.90403 -0.082,-4.02242 0.38052,-0.12684 0.74403,0.59668 0.96413,1.91898 0.0969,0.58209 0.24109,1.38576 0.32044,1.78594 l 0.14426,0.72761 h 3.52003 3.52003 l 0.178,-1.66211 c 0.0979,-0.91417 0.26434,-1.80183 0.36988,-1.97259 0.11481,-0.18576 1.55899,-0.42148 3.59541,-0.58685 4.21475,-0.34224 37.1721,-0.36541 37.70777,-0.0265 0.49113,0.31074 1.04474,-0.3166 2.03948,-2.31113 l 0.7534,-1.51061 0.003,-19.18229 c 0.003,-17.72854 0.0951,-20.6375 0.65651,-20.6375 0.11277,0 0.27679,-0.20836 0.36448,-0.46302 0.0877,-0.25466 0.38522,-0.8292 0.66116,-1.27676 0.27594,-0.44756 0.58184,-1.17857 0.67978,-1.62446 0.17098,-0.77845 0.13799,-0.81629 -0.82874,-0.95066 -0.55374,-0.077 -1.54258,-0.27729 -2.19742,-0.44517 -0.65484,-0.16789 -1.60734,-0.36432 -2.11667,-0.43652 -0.50932,-0.0722 -1.10463,-0.20096 -1.32291,-0.28613 -0.21829,-0.0852 -0.60056,-0.12987 -0.8495,-0.0993 -0.42573,0.0522 -2.85467,-2.87722 -2.85467,-3.4429 0,-0.12951 -0.21041,-0.23548 -0.46757,-0.23548 -0.51975,0 -3.2366,-2.26416 -3.2366,-2.69731 0,-0.15126 -0.47992,-0.74078 -1.0665,-1.31003 -0.58658,-0.56926 -1.49769,-1.71618 -2.02469,-2.54873 -0.527,-0.83255 -1.65441,-2.43325 -2.50537,-3.55712 -0.85095,-1.12387 -1.54719,-2.11464 -1.54719,-2.20171 0,-0.0871 -0.14883,-0.31812 -0.33073,-0.51344 -0.1819,-0.19531 -0.60724,-0.71659 -0.9452,-1.15838 -0.4717,-0.61663 -0.90203,-0.84494 -1.85208,-0.98263 -0.68069,-0.0987 -2.36871,-0.40622 -3.75115,-0.68349 -6.07858,-1.21915 -13.45874,-1.57504 -16.53646,-0.79743 -0.58208,0.14706 -2.1299,0.53252 -3.43958,0.85655 -1.30969,0.32404 -2.98843,0.86957 -3.73054,1.21228 -0.74211,0.34271 -1.44711,0.62311 -1.56667,0.62311 -0.11956,0 -0.41955,0.18297 -0.66666,0.40659 -0.2471,0.22363 -1.24926,0.81627 -2.22702,1.31699 -2.45622,1.25785 -7.07737,5.35214 -8.28271,7.3384 -0.24284,0.40018 -0.52468,0.7276 -0.6263,0.7276 -0.10162,0 -0.61417,0.76784 -1.13898,1.7063 -0.52482,0.93846 -1.10421,1.86119 -1.28753,2.05052 -0.47286,0.48834 -1.62065,2.99515 -2.15648,4.70985 -0.25012,0.80037 -0.55291,1.69333 -0.67288,1.98438 -0.52127,1.26458 -0.68145,1.85088 -1.66254,6.08541 -0.1793,0.77388 -0.29652,3.35435 -0.28245,6.21771 0.0242,4.92289 0.20828,7.06236 0.64765,7.5274 0.13061,0.13824 0.23748,0.52103 0.23748,0.85065 0,0.57541 0.56834,2.55403 1.05145,3.66049 0.12707,0.29104 0.43339,1.24354 0.68069,2.11667 0.51473,1.81724 1.71515,4.63021 1.97592,4.63021 0.0966,0 0.40307,0.47488 0.68115,1.0553 0.27807,0.58041 0.58197,1.05666 0.67534,1.05833 0.0934,0.002 0.23812,0.27093 0.32168,0.59835 0.17286,0.67735 1.81664,2.92844 3.43905,4.70965 0.60313,0.66216 1.34543,1.49559 1.64955,1.85208 0.30413,0.35649 1.14927,1.16026 1.87809,1.78616 1.2241,1.05124 2.70572,3.33843 2.37613,3.66803 -0.25142,0.25142 -0.59451,-0.12055 -1.2037,-1.305 -0.32779,-0.63733 -0.95403,-1.37028 -1.39166,-1.6288 -1.10091,-0.65032 -3.13786,-2.72898 -3.13786,-3.20211 0,-0.21445 -0.17597,-0.38991 -0.39105,-0.38991 -0.38363,0 -3.21165,-3.18879 -3.51973,-3.96875 -0.0862,-0.21828 -0.69612,-1.23031 -1.35533,-2.24896 -1.46408,-2.26238 -1.65681,-2.62766 -2.09404,-3.96875 -0.18978,-0.58208 -0.53063,-1.53458 -0.75746,-2.11666 -0.22682,-0.58209 -0.50462,-1.29646 -0.61732,-1.5875 -0.68259,-1.76264 -1.433,-4.35115 -1.97986,-6.82944 -0.58219,-2.63844 -0.53496,-10.18288 0.0827,-13.20361 0.25931,-1.26828 0.55497,-2.38945 0.65701,-2.49149 0.10204,-0.10205 0.18553,-0.4296 0.18553,-0.7279 0,-0.68427 0.86206,-3.17339 1.70592,-4.92569 0.1752,-0.3638 0.47886,-1.19724 0.67481,-1.85208 0.19594,-0.65485 0.61526,-1.54782 0.93182,-1.98438 0.31655,-0.43656 1.20221,-1.80578 1.96814,-3.04271 1.87272,-3.02434 7.00351,-8.1268 9.30887,-9.25746 1.60113,-0.78528 2.26482,-1.17482 2.80497,-1.64633 0.25567,-0.22317 0.9411,-0.60956 1.52318,-0.85865 0.58208,-0.24908 1.26508,-0.56193 1.51776,-0.69522 0.25269,-0.13328 0.73886,-0.24234 1.08038,-0.24234 0.9294,0 0.9911,-0.21497 0.39172,-1.3649 -0.76645,-1.47047 -0.72736,-5.50044 0.0586,-6.04343 0.10532,-0.0728 0.25878,-1.44198 0.34103,-3.04271 0.19839,-3.86096 0.35186,-4.46316 1.39766,-5.48411 0.48783,-0.47624 0.96005,-1.19718 1.04937,-1.60208 0.17261,-0.78249 1.67885,-1.66914 2.00178,-1.17835 0.24386,0.3706 1.08852,0.0248 2.06176,-0.84413 0.51692,-0.4615 1.54414,-0.95167 2.58464,-1.23331 1.49287,-0.40411 1.92826,-0.6761 3.2143,-2.00803 0.81815,-0.84734 1.58194,-1.54061 1.69733,-1.54061 0.11538,0 0.34969,0.30706 0.52069,0.68236 0.25463,0.55885 0.4332,0.65155 0.98652,0.51212 0.80647,-0.20323 0.9772,-0.20538 3.17785,-0.04 0.93967,0.0706 1.91414,0.0183 2.16549,-0.1162 0.28081,-0.15029 0.70923,-0.14868 1.11127,0.004 0.76412,0.29052 1.08244,1.34971 0.98807,3.28774 -0.0612,1.25772 -0.0271,1.3204 1.47991,2.71395 0.84843,0.78458 2.07838,1.62895 2.73322,1.87638 0.65485,0.24743 1.6922,0.96091 2.30524,1.58552 0.61303,0.62461 1.22353,1.13565 1.35666,1.13565 0.13313,0 0.37681,0.16237 0.54151,0.36082 0.23339,0.28122 1.42315,0.3628 5.39389,0.36985 3.05733,0.005 5.55874,0.13407 6.25556,0.3217 0.63862,0.17197 2.12524,0.29127 3.30361,0.26512 1.17837,-0.0261 2.42031,-0.0356 2.75986,-0.0211 0.84096,0.0361 2.2848,1.58606 2.9776,3.19652 0.3159,0.73434 0.74539,1.32788 0.96085,1.32788 0.37596,0 1.92033,0.76273 2.19106,1.08211 0.45049,0.53146 2.54145,1.8283 2.94787,1.8283 0.26797,0 0.63594,0.23813 0.81769,0.52917 0.18176,0.29104 0.41742,0.52917 0.52368,0.52917 0.29424,0 2.66027,1.6524 3.18795,2.22643 0.25616,0.27865 0.91864,0.7094 1.47219,0.95723 0.55354,0.24783 1.75796,1.12117 2.67649,1.94076 0.91853,0.81959 1.87173,1.49016 2.11821,1.49016 0.24649,0 0.93501,0.41672 1.53004,0.92604 0.6926,0.59284 1.35563,0.92604 1.84273,0.92604 0.83874,0 3.3985,0.83652 4.84356,1.58285 3.4609,1.78746 5.74149,2.21821 8.52902,1.61094 2.33279,-0.50821 5.72298,-1.07735 6.45481,-1.08363 0.82797,-0.007 3.27943,-0.76845 4.49311,-1.39544 1.62349,-0.83869 7.04359,-1.19107 8.12546,-0.52827 0.11991,0.0735 2.85835,0.16389 6.08541,0.20095 3.22707,0.0371 6.73638,0.15741 7.79848,0.26745 l 1.93107,0.20007 1.24393,-1.04351 c 1.54917,-1.29957 2.58241,-1.66349 4.72298,-1.66349 1.54284,0 2.07995,-0.25095 1.41573,-0.66146 -0.34453,-0.21293 -0.34394,-2.16868 7.1e-4,-2.38169 0.17476,-0.10801 0.17676,-0.32942 0.006,-0.64876 -0.19688,-0.36788 -0.10449,-0.71315 0.38307,-1.43162 0.35599,-0.52458 0.53038,-1.01615 0.39104,-1.10226 -0.38256,-0.23644 -0.30113,-0.83054 0.17976,-1.31142 0.39862,-0.39863 0.36859,-0.49254 -0.39688,-1.24092 -0.45547,-0.44531 -0.82813,-0.98263 -0.82813,-1.19404 0,-0.46872 0.63643,-1.14033 1.0806,-1.14033 0.17856,0 0.7149,-0.29766 1.19187,-0.66146 0.47697,-0.3638 0.99423,-0.66146 1.14946,-0.66146 0.15523,0 0.28223,-0.48888 0.28223,-1.0864 0,-0.79796 0.20252,-1.34239 0.76275,-2.05052 1.34198,-1.69627 2.14767,-3.38576 2.14767,-4.50354 0,-1.40511 0.31413,-2.15797 1.32022,-3.16405 1.00961,-1.00961 1.27138,-1.02513 2.96257,-0.1757 0.72432,0.36381 1.4633,0.66146 1.64218,0.66146 0.17889,0 0.59923,0.25525 0.9341,0.56723 0.59996,0.55895 1.08186,0.65365 6.10551,1.19977 0.95792,0.10413 1.91258,0.43956 2.79359,0.98154 0.7361,0.45283 1.56954,0.95492 1.85208,1.11575 0.28254,0.16083 0.75183,0.75614 1.04287,1.32292 0.29105,0.56677 0.59199,1.09003 0.66876,1.16279 0.42986,0.40737 0.99843,2.43868 1.02362,3.657 0.016,0.77443 0.1565,1.64607 0.31219,1.93699 0.20115,0.37584 0.20091,0.76467 -8.5e-4,1.34341 -0.15616,0.44797 -0.28392,1.09559 -0.28392,1.43917 0,0.34358 -0.38969,1.18902 -0.86596,1.87875 -0.47628,0.68973 -1.01031,1.58323 -1.18673,1.98556 -0.17643,0.40232 -0.64995,0.87458 -1.05227,1.04945 -0.64331,0.27962 -1.65398,1.18242 -5.03098,4.49407 -1.00134,0.98196 -0.95807,0.5971 -0.97808,8.69839 -0.01,3.8452 -0.11225,5.83476 -0.31429,6.08542 -0.16509,0.20483 -0.38187,0.7546 -0.48171,1.22172 -0.0998,0.46711 -0.81999,1.86623 -1.60032,3.10915 -1.97329,3.14309 -1.98783,3.22476 -0.63892,3.58798 1.01559,0.27347 1.53064,0.48709 2.62426,1.08841 1.24372,0.68386 3.25938,1.5584 3.89555,1.69018 2.50586,0.51907 6.77311,2.37204 7.62146,3.30947 0.2355,0.26022 0.7189,0.54609 1.07422,0.63527 0.70166,0.17611 1.52706,0.7761 2.19709,1.5971 0.23387,0.28657 1.22889,1.321 2.21115,2.29874 0.98227,0.97774 1.78594,1.90182 1.78594,2.05352 0,0.1517 0.39455,0.9032 0.87677,1.67001 1.51755,2.41317 2.80614,5.30442 3.09772,6.95045 0.15467,0.87313 0.39215,2.06375 0.52774,2.64584 0.72922,3.13046 1.08887,5.33241 1.31806,8.06979 0.14012,1.67349 0.33365,3.63802 0.43007,4.36562 0.26735,2.0174 0.25813,2.85103 -0.0326,2.95122 -0.14552,0.0501 -0.48232,-1.01009 -0.74845,-2.35607 -0.26612,-1.34597 -0.63477,-2.80442 -0.81922,-3.24098 -0.53277,-1.261 -0.91102,-2.55656 -1.1025,-3.77618 -0.0976,-0.62168 -0.28089,-1.19426 -0.40729,-1.27238 -0.12641,-0.0781 -0.22983,-0.37314 -0.22983,-0.6556 0,-0.28245 -0.10616,-0.51355 -0.2359,-0.51355 -0.12975,0 -0.30373,-0.27026 -0.38664,-0.60058 -0.0829,-0.33031 -0.3637,-0.83633 -0.62399,-1.12447 -0.67533,-0.74759 -1.92847,-2.71326 -1.92847,-3.02498 0,-0.1449 -0.37482,-0.45729 -0.83294,-0.69419 -0.45812,-0.2369 -1.49118,-1.0734 -2.2957,-1.85888 -0.80452,-0.78548 -1.56498,-1.42815 -1.68991,-1.42815 -0.32722,0 -1.50213,-0.77202 -2.70356,-1.77649 -0.57189,-0.47814 -1.18705,-0.86934 -1.36701,-0.86934 -0.17996,0 -0.36689,-0.0893 -0.4154,-0.19844 -0.13202,-0.29704 -2.02063,-1.12448 -2.56661,-1.12448 -0.26185,0 -0.56124,-0.0851 -0.6653,-0.18921 -0.19388,-0.19388 -1.75424,-0.67348 -3.86774,-1.18882 -1.5234,-0.37146 -6.35067,-0.36888 -8.06979,0.004 -3.70765,0.80486 -5.40048,1.15644 -6.48229,1.34628 -0.65484,0.11491 -1.54781,0.36152 -1.98438,0.54801 -0.43656,0.18649 -1.03187,0.42738 -1.32291,0.53531 -1.17191,0.4346 -1.92959,0.76295 -3.58771,1.55482 -0.95459,0.45589 -1.86673,0.82888 -2.02697,0.82888 -0.16025,0 -0.9568,0.25465 -1.77011,0.56589 l -1.47875,0.56589 0.0116,1.88151 c 0.006,1.03483 0.11893,2.77448 0.25008,3.86588 0.13115,1.09141 0.32278,3.68528 0.42584,5.76415 0.10306,2.07888 0.28818,3.84208 0.41138,3.91822 0.1232,0.0761 0.23087,0.51837 0.23926,0.98273 0.008,0.46435 0.23358,1.61818 0.50043,2.56407 0.85734,3.03898 0.82281,2.97271 1.43898,2.76153 0.30738,-0.10534 8.53606,-0.24239 18.28596,-0.30454 15.39647,-0.0981 17.79652,-0.0613 18.25523,0.28043 0.39865,0.29697 0.56083,0.80427 0.66145,2.06915 l 0.13332,1.67572 h 3.7021 3.70211 l 0.29903,-1.5875 c 0.37638,-1.99817 0.59297,-2.51354 1.05631,-2.51354 0.46977,0 0.4936,1.87635 0.051,4.01897 l -0.31752,1.53728 h -4.65665 c -4.9896,0 -5.34192,-0.0885 -5.15795,-1.29536 0.0578,-0.37896 0.16811,-1.25456 0.24519,-1.94579 l 0.14016,-1.25677 h -2.20778 c -1.21428,0 -2.84911,0.12286 -3.63296,0.27302 -1.31577,0.25205 -28.13294,0.37283 -29.93067,0.1348 -0.61279,-0.0811 -0.68473,-0.0283 -0.46749,0.34345 0.58,0.99248 1.03605,1.35775 2.92063,2.33923 2.5911,1.34945 3.08412,1.66387 3.97007,2.5319 0.56264,0.55126 1.00181,0.7276 1.8121,0.7276 0.78702,0 1.29902,0.19524 1.93858,0.73923 1.17794,1.00192 2.2265,1.64202 2.68981,1.64202 0.21126,0 0.60241,0.29734 0.86921,0.66075 0.29036,0.39552 0.78978,0.68525 1.24414,0.72177 0.84585,0.068 1.09122,0.44402 0.86792,1.33005 -0.17808,0.70658 -2.53185,1.92179 -3.32209,1.71514 -0.28986,-0.0758 -0.57728,0.0142 -0.64994,0.20358 -0.15599,0.4065 -1.79469,0.65954 -5.19557,0.80227 -2.83688,0.11906 -4.154,-0.13429 -6.581,-1.26589 -1.04642,-0.48789 -2.45187,-0.87945 -3.70417,-1.03198 -1.10987,-0.13518 -2.2247,-0.36023 -2.47739,-0.50011 -0.25268,-0.13988 -0.7587,-0.25433 -1.12448,-0.25433 -0.36577,0 -0.66504,-0.13459 -0.66504,-0.2991 0,-0.42417 7.20655,-0.17396 7.34959,0.25518 0.0566,0.16968 0.27387,0.30851 0.48292,0.30851 0.20905,0 0.8242,0.27561 1.36701,0.61247 0.54282,0.33686 1.64178,0.73879 2.44214,0.89317 1.81709,0.35051 4.49988,0.44796 4.49204,0.16318 -0.0106,-0.38574 -0.90606,-1.28697 -1.64777,-1.65843 -1.06944,-0.5356 -0.89554,-0.89634 0.35147,-0.72908 1.01321,0.13589 1.05358,0.11656 0.66146,-0.31673 -0.79386,-0.87721 -0.16807,-1.55887 0.68901,-0.75052 0.19286,0.1819 0.58832,0.50932 0.87879,0.7276 0.47252,0.35509 0.4949,0.35415 0.21253,-0.009 -0.18277,-0.23499 -0.2236,-0.55459 -0.097,-0.75941 0.16812,-0.27202 0.41799,-0.16309 1.08244,0.47189 0.47513,0.45406 0.90383,0.82556 0.95267,0.82556 0.19488,0 -1.10418,-2.25981 -1.56257,-2.7182 -0.26946,-0.26946 -1.1466,-0.59681 -1.94918,-0.72743 -1.18988,-0.19366 -1.65657,-0.43481 -2.52811,-1.30635 -0.58786,-0.58787 -1.17795,-1.06885 -1.31131,-1.06885 -0.34057,0 -4.21338,-2.61797 -4.85967,-3.28508 -0.57259,-0.59103 -1.98138,-3.72225 -1.98012,-4.40107 4.2e-4,-0.22556 -0.0982,-0.52321 -0.21922,-0.66146 -0.44138,-0.50433 -0.86431,-2.56367 -1.12433,-5.47463 -1.01184,-11.32751 -1.25065,-16.16174 -1.13071,-22.8887 l 0.11439,-6.41615 h -0.65932 c -0.36262,0 -0.93281,-0.10706 -1.26708,-0.23792 -0.77065,-0.30168 -3.24512,-0.93283 -5.63485,-1.43724 -1.88114,-0.39706 -2.72666,-0.35202 -6.61458,0.35237 -2.59445,0.47004 -6.26599,0.69381 -7.54062,0.45957 -0.65485,-0.12034 -1.54782,-0.28112 -1.98438,-0.35728 -0.43656,-0.0762 -1.03187,-0.23683 -1.32291,-0.35704 -0.29105,-0.12021 -1.12448,-0.42541 -1.85209,-0.67822 -0.7276,-0.25281 -1.43602,-0.56306 -1.57427,-0.68945 -0.13824,-0.12638 -0.54365,-0.22979 -0.9009,-0.22979 -0.63279,0 -0.63719,0.0137 -0.17066,0.52917 0.26339,0.29104 0.62916,0.52916 0.81282,0.52916 0.18366,0 0.90935,0.24976 1.61264,0.55503 0.70329,0.30526 1.87402,0.6524 2.60162,0.77143 0.72761,0.11902 2.15636,0.41323 3.175,0.65381 1.01865,0.24057 2.80459,0.54504 3.96875,0.6766 5.7121,0.6455 6.51148,0.88296 7.15378,2.12503 0.46788,0.90478 0.4265,2.69346 -0.10667,4.61081 -0.16187,0.58209 -0.37187,2.25608 -0.46669,3.71999 -0.1638,2.52913 -0.0386,3.49692 0.68238,5.27585 0.58289,1.43814 1.04589,2.75794 1.34587,3.83646 0.18214,0.65484 0.49259,1.7008 0.68989,2.32435 0.19731,0.62354 0.35873,1.6455 0.35873,2.271 0,0.62551 0.0832,1.22046 0.18484,1.32212 0.1726,0.1726 1.17265,3.63646 1.65263,5.72419 0.1171,0.50933 0.28625,1.10464 0.3759,1.32292 0.41758,1.01677 0.95757,6.86774 0.9595,10.39644 0.002,3.78423 0.0236,3.93733 0.64943,4.61224 0.35602,0.38395 0.59035,0.79023 0.52075,0.90285 -0.21728,0.35156 -1.25937,-0.19027 -1.82132,-0.94698 -0.49242,-0.66308 -0.53487,-1.08887 -0.50762,-5.0916 l 0.0297,-4.36801 -2.27869,0.15915 c -4.993,0.34874 -39.05316,0.49017 -44.74431,0.1858 -3.1287,-0.16733 -6.78993,-0.33161 -8.13607,-0.36508 -2.83453,-0.0705 -2.72211,-0.22814 -2.03203,2.84966 0.60677,2.70623 0.75001,4.32385 0.44084,4.97834 -0.15013,0.3178 -0.482,1.05111 -0.7375,1.62959 -0.8349,1.89032 -1.65288,2.25552 -5.05198,2.25552 -2.39243,0 -3.21115,0.17986 -4.91873,1.08057 -0.25269,0.13329 -0.59188,0.24234 -0.75377,0.24234 -0.16188,0 -0.66951,0.16464 -1.12807,0.36586 -1.76732,0.77552 -2.49087,0.97691 -4.40802,1.22694 -1.09008,0.14216 -2.33915,0.31537 -2.77571,0.38491 -0.43657,0.0695 -1.03188,0.0271 -1.32292,-0.0942 z m -1.45521,-1.22201 c -0.43751,-0.52717 0.0866,-1.19062 0.94061,-1.19062 0.35415,0 0.67423,-0.1985 0.76101,-0.47192 0.0824,-0.25956 0.50713,-0.68301 0.94388,-0.941 0.66813,-0.39468 0.79409,-0.40676 0.79409,-0.0762 0,0.21611 -0.1786,0.57153 -0.39688,0.78981 -0.21828,0.21828 -0.39687,0.5158 -0.39687,0.66115 0,0.14536 -0.29362,0.49524 -0.65249,0.77753 -0.35887,0.28228 -0.57715,0.58858 -0.48507,0.68066 0.39564,0.39564 3.75499,0.15668 4.75057,-0.33792 2.96963,-1.4753 5.63851,-2.66966 5.96552,-2.66966 0.20339,0 0.51941,-0.14883 0.70227,-0.33073 0.23811,-0.23687 1.25963,-0.31107 3.59935,-0.26146 1.79679,0.0381 3.55775,-0.0413 3.91325,-0.17648 1.26531,-0.48107 1.4807,-3.22596 0.57897,-7.37809 -0.18026,-0.83003 -0.54798,-0.5247 -0.76569,0.63578 -0.23773,1.26721 -0.68933,1.95473 -1.28399,1.95473 -0.37894,0 -0.44393,-0.1286 -0.30085,-0.59532 0.10038,-0.32742 0.27604,-0.71437 0.39036,-0.85989 0.11432,-0.14552 0.36244,-2.08029 0.55139,-4.29948 0.18895,-2.21919 0.43803,-4.0349 0.55351,-4.0349 0.11549,0 0.22189,0.20836 0.23644,0.46302 0.0146,0.25466 0.24639,-0.56881 0.51519,-1.82993 0.61334,-2.87765 1.72709,-6.33534 2.63057,-8.16677 0.11004,-0.22306 0.28363,-0.78597 0.38575,-1.25092 0.10212,-0.46494 0.47394,-1.41353 0.82628,-2.10798 0.35234,-0.69444 0.64112,-1.35322 0.64172,-1.46395 6.1e-4,-0.11072 0.22693,-0.70604 0.50294,-1.32291 0.75036,-1.67709 1.18359,-4.89073 0.99791,-7.40244 -0.2011,-2.72052 -0.44472,-4.14102 -0.74165,-4.32453 -0.12591,-0.0778 -0.22892,-0.31973 -0.22892,-0.53759 0,-0.21785 -0.35719,-1.11601 -0.79375,-1.99591 -0.43656,-0.87989 -0.79375,-1.64712 -0.79375,-1.70495 0,-0.0578 0.29765,-0.10514 0.66146,-0.10514 0.3638,0 0.66146,0.11906 0.66146,0.26458 0,0.14553 0.24606,0.26459 0.54682,0.26459 0.45977,0 2.18193,1.05989 2.62817,1.6175 0.11272,0.14085 1.44922,0.88911 3.57188,1.99978 0.29104,0.15229 1.18401,0.48676 1.98437,0.74327 0.80037,0.2565 1.52466,0.57561 1.60954,0.70913 0.0849,0.13352 1.15644,0.44645 2.38125,0.69539 1.22481,0.24895 2.26661,0.54193 2.31512,0.65107 0.0485,0.10914 0.22796,0.19844 0.39878,0.19844 0.20574,0 0.27862,-0.40191 0.21589,-1.19062 -0.0721,-0.90686 -0.20185,-1.19063 -0.5443,-1.19063 -0.24729,0 -0.56272,-0.10341 -0.70096,-0.22979 -0.13825,-0.12639 -0.84667,-0.44627 -1.57427,-0.71085 -0.72761,-0.26458 -2.0373,-0.9782 -2.91042,-1.58581 -0.87313,-0.60762 -1.92518,-1.18555 -2.33789,-1.28429 -0.41272,-0.0987 -1.03795,-0.46708 -1.3894,-0.81854 -0.35146,-0.35146 -1.82288,-1.47839 -3.26984,-2.50431 -1.44695,-1.02591 -2.70887,-1.99159 -2.80427,-2.14595 -0.37902,-0.61327 0.18169,-0.53645 1.35344,0.18542 0.67828,0.41786 1.42948,0.87881 1.66934,1.02433 1.82444,1.10689 2.56344,1.58156 2.67758,1.71981 0.0728,0.0881 0.60854,0.51046 1.19062,0.9385 0.58209,0.42805 1.11787,0.84951 1.19063,0.9366 0.0728,0.0871 0.53524,0.23681 1.02772,0.33273 0.49249,0.0959 1.09486,0.40432 1.3386,0.68535 0.24373,0.28103 0.76465,0.59166 1.15758,0.69028 0.39294,0.0986 0.77986,0.28518 0.85984,0.41458 0.08,0.1294 0.3765,0.23527 0.65896,0.23527 0.28245,0 0.51355,0.0965 0.51355,0.21451 0,0.11799 0.74414,0.43184 1.65364,0.69746 0.90951,0.26561 1.76676,0.5858 1.905,0.71153 0.13825,0.12572 0.78549,0.22859 1.43831,0.22859 0.65282,0 1.90893,0.16671 2.79135,0.37048 0.88242,0.20376 2.28902,0.52043 3.12576,0.70371 0.83674,0.18328 1.52135,0.43329 1.52135,0.55557 0,0.30314 -2.76964,0.26007 -4.23333,-0.0658 -1.00278,-0.22327 -5.23088,-1.01276 -5.51336,-1.02948 -0.25131,-0.0149 0.34302,2.35133 0.76524,3.04665 1.01939,1.67875 4.40013,2.35061 11.89187,2.36329 5.81968,0.01 6.24072,-0.0774 9.04224,-1.8731 1.5545,-0.99641 1.80042,-1.26537 1.9588,-2.14236 0.0996,-0.55159 0.28359,-1.20171 0.40884,-1.44472 0.26448,-0.51314 -0.73096,-2.60088 -1.24011,-2.60088 -0.47651,0 -0.99216,-0.71134 -0.66309,-0.91472 0.66272,-0.40958 2.77369,1.4847 3.00542,2.69692 0.0674,0.35278 0.0308,1.0486 -0.0815,1.54628 -0.20341,0.90191 -0.20094,0.90485 0.76024,0.90481 1.18005,-6e-5 5.12018,-0.73502 5.35648,-0.99916 0.28692,-0.32073 0.99946,-4.33349 0.84223,-4.74321 -0.25026,-0.65216 -1.38766,-0.92615 -5.36667,-1.29277 -4.29502,-0.39573 -5.4483,-0.56511 -6.21771,-0.91318 -1.13676,-0.51427 -2.94264,-1.03995 -3.58511,-1.04362 -0.37107,-0.002 -0.81756,-0.14672 -0.99218,-0.32135 -0.24695,-0.24694 -0.3175,-0.0732 -0.3175,0.78172 0,0.82497 -0.16804,1.26727 -0.67349,1.77271 -0.37041,0.37042 -0.78713,0.67349 -0.92604,0.67349 -0.37574,0 -0.30561,-0.62247 0.1359,-1.2062 0.21366,-0.28248 0.39225,-0.70935 0.39688,-0.94861 0.008,-0.41486 -3.93726,-4.72436 -4.32508,-4.72436 -0.10222,0 -0.55528,-0.26789 -1.0068,-0.59531 -0.58392,-0.42343 -0.85457,-0.49982 -0.93738,-0.26459 -0.1415,0.40197 -1.55998,0.44175 -1.80177,0.0505 -0.0953,-0.15412 -0.4297,-0.26 -0.74322,-0.2353 -1.18723,0.0935 -1.56322,-0.13483 -3.79451,-2.30465 -1.22179,-1.18813 -2.33417,-1.87209 -4.44845,-2.73518 -0.50054,-0.20433 -3.19145,-0.9105 -4.63021,-1.21509 -0.3638,-0.077 -1.97114,-0.25065 -3.57187,-0.38585 -1.60073,-0.1352 -3.38667,-0.35937 -3.96875,-0.49817 -0.58209,-0.1388 -1.77271,-0.32085 -2.64584,-0.40454 -0.87312,-0.0837 -2.01897,-0.21736 -2.54632,-0.29702 -1.22066,-0.18439 -3.771,0.54572 -4.54094,1.29998 -0.32211,0.31555 -1.10284,1.64529 -1.73495,2.95498 -0.63211,1.30969 -1.25719,2.588 -1.38906,2.84068 -0.13187,0.25269 -0.23977,0.63964 -0.23977,0.8599 0,0.22025 -0.13821,0.40046 -0.30714,0.40046 -0.22988,0 -0.26388,1.8468 -0.13515,7.34219 0.21004,8.96684 0.7284,27.62845 0.77308,27.83185 0.0937,0.42681 -0.41467,2.94658 -0.62016,3.07358 -0.13189,0.0815 -0.23979,0.4756 -0.23979,0.87576 0,0.40017 -0.17481,0.95869 -0.38846,1.24116 -0.21366,0.28248 -0.39225,0.66106 -0.39688,0.8413 -0.0102,0.39658 -0.50112,1.02828 -2.31868,2.98345 -1.38537,1.49028 -1.61169,1.64393 -3.70901,2.51818 -0.61846,0.25781 -1.12447,0.56169 -1.12447,0.67531 0,0.11361 -0.21714,0.27548 -0.48253,0.35971 -0.26539,0.0842 -0.72607,0.38005 -1.02373,0.65736 -1.03671,0.96584 -4.00551,2.8736 -4.96416,3.18999 -1.09015,0.35978 -1.12017,0.88789 -0.0576,1.01368 0.91209,0.10797 0.90304,0.50596 -0.0204,0.89791 -0.40018,0.16985 -1.02526,0.57244 -1.38906,0.89464 -0.36381,0.3222 -0.89822,0.62853 -1.18759,0.68073 -0.78696,0.14196 -0.7875,0.87389 -9.1e-4,1.23229 0.88595,0.40366 0.92391,0.39744 0.92391,-0.15127 0,-0.4879 2.0944,-2.43472 2.99686,-2.78568 1.16335,-0.45243 1.02251,0.0568 -0.42149,1.52407 -1.73738,1.76534 -1.88711,2.2538 -0.69089,2.2538 0.70436,0 0.77759,-0.0585 0.49677,-0.39688 z m 17.04458,-27.30023 c -0.26125,-1.74214 0.0639,-6.14143 0.9351,-12.65185 0.79069,-5.90881 0.93836,-6.59508 1.36263,-6.33287 0.3165,0.19561 0.30217,4.54016 -0.0217,6.56694 -0.14218,0.88991 -0.39777,2.86817 -0.56797,4.39613 -0.1702,1.52797 -0.40236,3.61157 -0.5159,4.63021 -0.3985,3.57511 -0.57892,4.63021 -0.79173,4.63021 -0.11809,0 -0.2983,-0.55745 -0.40047,-1.23877 z M 526.146,427.69144 c -0.43779,-0.19831 -1.0331,-0.62826 -1.32292,-0.95544 l -0.52695,-0.59489 0.92604,0.23753 c 0.50933,0.13063 2.02737,0.21022 3.37344,0.17685 1.34607,-0.0334 2.4474,0.0419 2.4474,0.16734 0,0.54396 -0.88158,0.85992 -3.43959,1.23275 -0.3638,0.053 -1.01964,-0.0658 -1.45742,-0.26414 z m -38.23007,-8.29256 c 0,-0.88383 3.62203,-3.42081 4.43725,-3.10798 0.56189,0.21562 -0.0922,0.8924 -2.17199,2.24746 -1.58977,1.03577 -2.26526,1.29238 -2.26526,0.86052 z m 2.38125,-9.46088 c 0,-0.2249 0.29224,-0.70115 0.64943,-1.05834 0.54782,-0.54783 0.9024,-0.64943 2.26635,-0.64943 0.88931,0 1.86,-0.13009 2.1571,-0.28909 0.3913,-0.20942 0.62037,-0.2089 0.83116,0.002 0.55563,0.55563 -0.41302,1.05873 -2.39269,1.24272 -1.36185,0.12657 -2.03703,0.3185 -2.35451,0.6693 -0.54075,0.59752 -1.15684,0.6417 -1.15684,0.0829 z m 81.14323,57.50929 c -0.0845,-0.21107 -0.14715,-0.14837 -0.15985,0.15985 -0.0115,0.27892 0.0511,0.43519 0.13897,0.34727 0.0879,-0.0879 0.0973,-0.31612 0.0209,-0.50712 z m 1.67135,-0.0671 c 0,-0.20969 -0.11907,-0.45484 -0.26459,-0.54478 -0.14552,-0.0899 -0.26458,0.0816 -0.26458,0.38126 0,0.29963 0.11906,0.54478 0.26458,0.54478 0.14552,0 0.26459,-0.17156 0.26459,-0.38126 z m 1.92204,-0.30606 c 0.29676,-0.29676 -0.12534,-0.90018 -0.62968,-0.90018 -0.43687,0 -0.45959,0.0697 -0.17263,0.52917 0.3438,0.55051 0.53459,0.63873 0.80231,0.37101 z m 1.78212,-0.90018 c 0,-0.14552 -0.11906,-0.26458 -0.26458,-0.26458 -0.14552,0 -0.26458,0.11906 -0.26458,0.26458 0,0.14552 0.11906,0.26459 0.26458,0.26459 0.14552,0 0.26458,-0.11907 0.26458,-0.26459 z M 468.20447,465.3802 c 0.43656,-0.28912 0.65946,-0.52646 0.49533,-0.52742 -0.39122,-0.002 -2.21512,0.76169 -2.21512,0.92785 0,0.31177 0.99379,0.0804 1.71979,-0.40043 z m 106.9114,-0.23264 c -0.19661,-0.31812 -1.21036,-0.56419 -1.21036,-0.2938 0,0.23891 0.46646,0.47291 1.0078,0.50555 0.19049,0.0115 0.28164,-0.0838 0.20256,-0.21175 z m -24.06679,-11.14441 c -0.0893,-0.43656 -0.22997,-1.1807 -0.31264,-1.65365 -0.0827,-0.47294 -0.25669,-1.09802 -0.38669,-1.38906 -0.13001,-0.29104 -0.42691,-1.24354 -0.65979,-2.11667 -0.23289,-0.87312 -0.52665,-1.82562 -0.6528,-2.11666 -0.12616,-0.29104 -0.42305,-1.60073 -0.65977,-2.91042 -0.23672,-1.30969 -0.53359,-2.61937 -0.65972,-2.91042 -0.12613,-0.29104 -0.29707,-0.82682 -0.37987,-1.19062 -0.29707,-1.30537 -0.51577,-1.41431 -1.63493,-0.81448 -0.57281,0.30701 -1.51749,0.5499 -2.13877,0.5499 -0.61203,0 -1.17859,0.10648 -1.25903,0.23663 -0.0804,0.13015 -0.59348,0.30269 -1.14009,0.38343 -0.54662,0.0807 -1.64869,0.2751 -2.44906,0.43191 -0.80036,0.15682 -2.94349,0.40214 -4.7625,0.54516 -1.81901,0.14301 -4.43838,0.39163 -5.82083,0.55249 -1.38245,0.16085 -3.22792,0.23186 -4.10104,0.15779 -3.07272,-0.26064 -6.35275,-0.75881 -6.60135,-1.0026 -0.13825,-0.13556 -0.53303,-0.24648 -0.87729,-0.24648 -0.34427,0 -0.85303,-0.12154 -1.13059,-0.27008 -0.27756,-0.14855 -1.10969,-0.38483 -1.84918,-0.52507 -0.7395,-0.14024 -2.12023,-0.61402 -3.06829,-1.05283 -0.94807,-0.43882 -1.83452,-0.79785 -1.96989,-0.79785 -0.13536,0 -0.24612,-0.11907 -0.24612,-0.26459 0,-0.14552 -0.12701,-0.26458 -0.28224,-0.26458 -0.15523,0 -0.67248,-0.29766 -1.14945,-0.66146 -0.47697,-0.3638 -1.00481,-0.66146 -1.17297,-0.66146 -0.16817,0 -0.30576,-0.11906 -0.30576,-0.26458 0,-0.14552 -0.2217,-0.26458 -0.49267,-0.26458 -0.49848,0 -2.25262,-1.2699 -3.92888,-2.84428 -0.50355,-0.47294 -0.96485,-0.85989 -1.02512,-0.85989 -0.0603,0 -0.10958,0.31847 -0.10958,0.70771 0,0.77901 -1.22919,4.56766 -1.61168,4.9676 -0.13222,0.13825 -0.2404,0.41408 -0.2404,0.61297 0,0.19888 -0.28205,0.74062 -0.62678,1.20385 -0.37599,0.50523 -0.68567,1.37319 -0.77393,2.16916 -0.0809,0.7298 -0.37845,1.80137 -0.66117,2.38125 -0.28272,0.57988 -0.72219,1.76871 -0.9766,2.64183 -0.25441,0.87313 -0.55312,1.82563 -0.6638,2.11667 -0.34067,0.89584 -0.79563,3.67573 -0.79563,4.86144 v 1.12542 l 5.4901,-0.21531 c 10.29506,-0.40373 41.23996,-0.16071 51.49149,0.4044 0.70736,0.039 0.74686,-0.0109 0.59531,-0.75199 z m 54.88762,-11.61063 c -0.15466,-0.28898 -0.2812,-1.00247 -0.2812,-1.58553 0,-0.58306 -0.10501,-1.12501 -0.23336,-1.20434 -0.12835,-0.0793 -0.31507,-0.94956 -0.41494,-1.93384 -0.24373,-2.40228 -0.4777,-3.09199 -2.35731,-6.949 -1.84358,-3.78306 -2.39654,-4.62999 -4.25558,-6.51796 -0.73577,-0.74723 -1.46954,-1.52113 -1.6306,-1.71979 -0.34768,-0.42887 -1.65055,-1.55183 -1.80042,-1.55183 -0.0577,0 -0.81227,-0.39984 -1.67686,-0.88854 -0.8646,-0.4887 -2.21549,-1.07289 -3.00198,-1.29819 -0.78649,-0.22531 -1.90624,-0.55083 -2.48832,-0.72338 -1.53845,-0.45604 -9.40617,-0.64433 -11.64167,-0.2786 -1.01864,0.16665 -2.2688,0.3721 -2.77812,0.45656 -0.50932,0.0845 -1.28155,0.40632 -1.71607,0.71525 -1.68438,1.19756 -1.76617,1.22066 -7.14747,2.01828 -1.68627,0.24994 -3.06763,0.53256 -5.42142,1.1092 -1.09085,0.26724 -1.47317,0.48628 -1.53499,0.87942 -0.0453,0.28795 -0.20189,0.76624 -0.34801,1.06286 -0.17977,0.3649 -0.17535,0.77691 0.0136,1.27399 0.15362,0.40408 0.27932,1.78073 0.27932,3.05923 0,1.2785 0.13032,2.69836 0.28959,3.15526 0.27298,0.78306 0.32189,0.80809 0.85262,0.43636 0.30967,-0.2169 0.8342,-0.39437 1.16562,-0.39437 0.33142,0 0.60259,-0.1022 0.60259,-0.22712 0,-0.34482 5.19234,-2.85052 7.14375,-3.4474 1.58438,-0.48462 2.52334,-0.7353 5.02708,-1.34214 0.50932,-0.12345 1.58088,-0.41748 2.38125,-0.65342 1.80704,-0.53269 7.57165,-0.81793 9.525,-0.47131 0.80036,0.14202 2.28864,0.57472 3.30729,0.96156 1.01865,0.38683 2.45029,0.91818 3.18144,1.18078 1.49124,0.53559 2.98236,1.44443 4.35919,2.65692 0.50932,0.44854 1.15408,0.88874 1.4328,0.97825 0.27871,0.0895 0.7675,0.41635 1.08618,0.72633 0.31868,0.30998 1.22085,1.09938 2.00481,1.75422 1.80498,1.5077 2.88454,2.66853 2.88454,3.10168 0,0.18585 0.11906,0.33791 0.26458,0.33791 0.14552,0 0.26458,0.13287 0.26458,0.29528 0,0.1624 0.42146,0.86942 0.93658,1.57114 0.66608,0.90739 0.98238,1.66266 1.09518,2.61514 0.0872,0.7366 0.2611,1.33927 0.38635,1.33927 0.12525,0 0.24394,0.26789 0.26376,0.59531 l 0.036,0.59531 0.11287,-0.58166 c 0.0621,-0.31992 -0.0137,-0.8181 -0.16832,-1.10709 z m -72.24786,-2.43148 c 1.23693,-0.14722 3.02286,-0.38007 3.96875,-0.51744 0.94589,-0.13737 2.79135,-0.3272 4.10104,-0.42184 1.722,-0.12444 2.72919,-0.34644 3.63802,-0.80189 1.17031,-0.58647 1.57334,-1.18776 1.02378,-1.52741 -0.12814,-0.0792 -0.29898,-0.41364 -0.37964,-0.74321 -0.0806,-0.32958 -0.38906,-1.43266 -0.68534,-2.45131 -0.37468,-1.28816 -0.54105,-2.63908 -0.54641,-4.43681 l -0.008,-2.58473 -0.7276,0.17607 c -0.40019,0.0968 -1.00325,0.27771 -1.34014,0.40192 -0.3369,0.12421 -1.55729,0.22584 -2.71198,0.22584 -1.1547,0 -2.09945,0.10793 -2.09945,0.23985 0,0.36408 -4.29678,3.20216 -4.84604,3.20087 -0.26422,-6.3e-4 -0.71448,0.12413 -1.00055,0.27724 -0.30188,0.16155 -2.31891,0.2795 -4.80663,0.28107 -3.91394,0.002 -5.47091,-0.14139 -8.92594,-0.82472 -0.65485,-0.12952 -1.57541,-0.31039 -2.0457,-0.40194 -0.52739,-0.10267 -1.28095,-0.61331 -1.96637,-1.33249 -1.21399,-1.27378 -1.92334,-1.57488 -4.32231,-1.83468 -0.87312,-0.0946 -2.06375,-0.39108 -2.64583,-0.65894 -2.81653,-1.29611 -4.1437,-1.8573 -4.75546,-2.01084 -0.36767,-0.0923 -0.6685,-0.27394 -0.6685,-0.40369 0,-0.12974 -0.16818,-0.2359 -0.37374,-0.2359 -0.20555,0 -1.09852,-0.60561 -1.98437,-1.34581 -1.08161,-0.90377 -1.61064,-1.20794 -1.61064,-0.92604 0,0.23087 0.10518,0.41977 0.23374,0.41977 0.12856,0 0.29526,0.26789 0.37045,0.59531 0.0752,0.32743 0.38115,1.2332 0.67989,2.01283 0.35376,0.9232 0.60586,2.40811 0.72293,4.25818 l 0.17975,2.84068 0.94955,0.50431 c 0.52225,0.27737 1.61028,1.05149 2.41785,1.72026 0.8446,0.69945 1.86773,1.29089 2.40863,1.39236 0.51718,0.097 1.16955,0.38891 1.44971,0.64864 0.28016,0.25973 1.58094,0.98321 2.89063,1.60773 3.21671,1.53388 3.27171,1.55446 4.6302,1.73264 1.53629,0.20151 3.69068,0.68082 4.36563,0.97126 1.17955,0.50758 10.00155,0.47875 14.41979,-0.0471 z m 25.46974,-19.07212 c 0.32544,-0.16824 0.82068,-0.42024 1.10053,-0.56 0.27984,-0.13976 1.76813,-0.30516 3.30729,-0.36755 1.53916,-0.0624 3.24497,-0.22711 3.79067,-0.36604 2.34899,-0.59802 3.17022,-0.90607 3.71764,-1.3945 0.32001,-0.28553 1.27453,-0.97214 2.12115,-1.5258 0.84662,-0.55366 1.86961,-1.45985 2.2733,-2.01375 0.40369,-0.5539 1.28152,-1.55985 1.95073,-2.23545 0.66921,-0.6756 1.15843,-1.28667 1.08717,-1.35793 -0.13819,-0.13819 0.8836,-2.08628 1.21083,-2.3085 0.24099,-0.16366 0.88362,-1.59559 1.4249,-3.175 0.6465,-1.88645 1.03933,-4.76713 0.86593,-6.35 -0.5157,-4.70752 -0.51574,-4.70471 0.0849,-5.98247 0.66029,-1.4047 0.87718,-4.09111 0.34472,-4.26955 -0.3868,-0.12962 -0.44222,-1.7191 -0.0832,-2.38543 0.72126,-1.33851 1.07536,-2.34259 1.07536,-3.0493 v -0.78878 l -0.51985,0.66088 c -0.48895,0.6216 -2.65591,1.84202 -3.85966,2.17373 -0.29867,0.0823 -0.77492,-0.021 -1.05833,-0.22957 -0.50949,-0.37496 -0.50934,-0.38106 0.0139,-0.54285 1.58843,-0.49117 5.13188,-2.52 4.4013,-2.52 -0.17392,0 -0.30026,-0.44532 -0.30026,-1.05833 0,-0.86888 -0.0914,-1.05833 -0.51027,-1.05833 -0.66923,0 -1.34181,0.69111 -1.34181,1.37879 0,0.57865 -0.68122,1.24451 -1.28763,1.25862 -0.35871,0.008 -0.33168,-0.32725 0.11652,-1.44679 0.18991,-0.47437 0.16473,-0.49083 -0.24314,-0.15892 -0.38527,0.31351 -0.62018,0.31573 -1.53287,0.0145 -0.59282,-0.19565 -1.13046,-0.4928 -1.19475,-0.66032 -0.0643,-0.16752 0.0772,-0.8289 0.31439,-1.46973 0.72202,-1.95067 0.73745,-2.29523 0.15305,-3.41644 -0.64983,-1.24672 -0.66884,-1.60806 -0.15984,-3.03749 0.37045,-1.04035 0.36386,-1.06781 -0.4604,-1.91823 -0.96192,-0.99245 -1.12302,-1.02125 -2.34541,-0.4193 -1.0201,0.50233 -1.82659,1.31738 -1.82659,1.84598 0,0.19601 -0.0951,0.35639 -0.21143,0.35639 -0.11629,0 -0.36493,0.42449 -0.55254,0.94331 -0.18761,0.51883 -0.50918,1.00781 -0.71461,1.08664 -0.24868,0.0954 -0.3735,0.56104 -0.3735,1.39323 0,1.09612 -0.0895,1.29609 -0.72761,1.62534 -0.40018,0.20649 -0.88476,0.52409 -1.07683,0.70577 -0.19208,0.18168 -0.63856,0.40295 -0.99219,0.4917 -0.80909,0.20307 -0.80615,0.38762 0.0185,1.16234 0.67345,0.63267 0.90343,1.93589 0.39688,2.24896 -0.43088,0.2663 -0.30679,0.54946 0.40859,0.93232 0.92589,0.49552 0.80608,1.48242 -0.16627,1.3696 -0.61327,-0.0712 -0.67242,-0.002 -0.57411,0.66742 0.0761,0.51878 -0.0584,0.89879 -0.44077,1.24481 -0.71974,0.65136 -0.6957,1.2903 0.08,2.12732 0.55544,0.59932 0.85439,0.68432 2.51478,0.71498 1.41663,0.0262 2.00419,-0.0736 2.36702,-0.40197 0.26544,-0.24022 0.62207,-0.43677 0.79252,-0.43677 0.17044,0 0.30989,-0.11104 0.30989,-0.24675 0,-0.26485 1.02267,-0.67087 1.21224,-0.48129 0.18972,0.18972 -0.85086,1.25599 -1.24327,1.27398 -0.20121,0.009 -0.0682,0.13602 0.29562,0.28176 0.63845,0.25578 0.64305,0.27456 0.13229,0.54007 -0.29104,0.1513 -0.92628,0.7039 -1.41163,1.22802 -0.48535,0.52411 -1.24128,1.21766 -1.67984,1.54122 -0.78872,0.58191 -0.79135,0.59205 -0.24202,0.93512 0.92921,0.5803 0.63839,0.7487 -1.29292,0.7487 -1.68946,0 -3.54259,0.29963 -4.89859,0.79205 -0.29104,0.10569 -1.21378,0.40677 -2.05052,0.66907 -0.83675,0.2623 -1.52136,0.57664 -1.52136,0.69852 0,0.12189 -0.1318,0.22161 -0.2929,0.22161 -0.1611,0 -1.06016,0.36618 -1.99793,0.81374 -1.84016,0.87823 -3.53,2.2025 -3.53,2.76634 0,0.19265 -0.29766,0.5844 -0.66146,0.87057 -0.3638,0.28617 -0.66146,0.57862 -0.66146,0.64991 0,0.23385 2.31761,-0.0208 2.86746,-0.31507 0.29554,-0.15816 1.35716,-0.28757 2.35916,-0.28757 1.61551,0 1.91318,-0.0824 2.62847,-0.7276 0.44365,-0.40019 0.88602,-0.98347 0.98304,-1.29619 0.33573,-1.08217 1.41261,-1.92514 3.59729,-2.81593 0.50932,-0.20767 1.28323,-0.53 1.71979,-0.71629 1.82912,-0.78052 5.30025,-1.28811 5.74785,-0.84052 0.18706,0.18707 -0.0908,0.36295 -0.88555,0.56059 -2.07623,0.51629 -3.26055,0.87127 -4.06855,1.21947 -0.43656,0.18813 -1.31858,0.50013 -1.96005,0.69332 -1.05281,0.31709 -3.19932,1.94603 -3.19932,2.42789 0,0.35958 -1.15536,1.75984 -1.45205,1.75984 -0.16181,0 -0.44128,0.14708 -0.62105,0.32685 -0.20596,0.20596 -1.27157,0.34614 -2.88124,0.37903 -1.40492,0.0287 -2.7997,0.17429 -3.09951,0.32352 -0.76505,0.3808 -4.58616,1.61644 -4.99871,1.61644 -0.18778,0 -0.57588,0.21843 -0.86245,0.48541 -0.48273,0.44974 -1.36641,0.49774 -12.02228,0.65306 -7.33473,0.10691 -12.12428,0.0703 -13.22105,-0.10102 -0.94588,-0.14776 -2.16997,-0.33543 -2.7202,-0.41705 l -1.00041,-0.14839 0.80198,0.80198 c 0.44304,0.44304 0.80197,1.08344 0.80197,1.43086 0,0.34589 0.10956,0.74201 0.24347,0.88025 0.13391,0.13825 0.47897,0.96573 0.76681,1.83886 0.62053,1.88229 1.66742,2.77812 3.24656,2.77812 0.55198,0 1.07718,0.11906 1.16712,0.26458 0.0899,0.14552 0.39759,0.26459 0.68368,0.26459 0.28609,0 1.2018,0.24524 2.0349,0.54497 4.26341,1.53389 6.96551,1.84707 11.17204,1.29486 1.09141,-0.14327 2.87734,-0.32036 3.96875,-0.39353 1.09141,-0.0732 2.19273,-0.19842 2.4474,-0.27833 0.25466,-0.0799 0.46302,-0.0363 0.46302,0.0969 0,0.13318 0.35869,0.25235 0.79708,0.26481 1.16536,0.0331 4.84759,0.61259 5.15604,0.81138 0.4732,0.30497 3.14399,0.79959 4.41159,0.817 1.65609,0.0227 3.75106,-0.44088 5.45137,-1.20643 0.76797,-0.34577 1.56172,-0.62867 1.76389,-0.62867 0.20218,0 0.40728,-0.0893 0.45579,-0.19843 0.11898,-0.26771 2.92066,-1.65365 3.34284,-1.65365 0.3804,0 1.51233,-0.66499 2.3016,-1.35215 0.6552,-0.57043 1.98438,-0.93353 1.98438,-0.54208 0,0.15389 -0.44649,0.61328 -0.99219,1.02087 -0.5457,0.40759 -1.14934,0.88972 -1.34142,1.0714 -0.19207,0.18168 -0.66832,0.40688 -1.05833,0.50044 -0.39001,0.0935 -1.26084,0.56998 -1.93518,1.05873 -0.67434,0.48874 -1.32206,0.88862 -1.43938,0.88862 -0.11731,0 -0.9348,0.34151 -1.81663,0.75891 -2.34251,1.10878 -3.29568,1.35783 -5.19399,1.35714 l -1.70101,-6.2e-4 0.0863,2.11729 c 0.0475,1.1645 0.1979,2.11728 0.33432,2.11728 0.13641,0 0.5143,-0.13765 0.83975,-0.30589 z m 18.04002,-14.97379 c 0.0965,-0.40019 0.31776,-0.84905 0.4917,-0.99748 0.72602,-0.61954 0.97771,-1.53984 0.97771,-3.57502 0,-1.91113 -0.0674,-2.19964 -0.64944,-2.78172 -0.35718,-0.35719 -0.82084,-0.64943 -1.03035,-0.64943 -0.5347,0 -2.09976,-1.51607 -1.89952,-1.84006 0.10053,-0.16267 0.54832,-0.0268 1.14462,0.34723 0.53871,0.33793 1.31095,0.69629 1.71608,0.79634 0.45835,0.1132 0.8456,0.45402 1.02513,0.90223 0.15869,0.39616 0.40468,0.97285 0.54663,1.28152 0.27633,0.60085 0.1556,2.70317 -0.25976,4.52351 -0.15896,0.69662 -0.57737,1.41744 -1.11346,1.91823 -1.05642,0.98684 -1.1715,0.99589 -0.94934,0.0746 z m -1.94259,-10.61406 c -0.53003,-0.35395 -0.15265,-1.09334 0.55942,-1.09606 0.33199,-0.001 1.2287,-0.0774 1.99268,-0.16914 1.27476,-0.15312 1.38906,-0.1226 1.38906,0.37087 0,0.29574 -0.15993,0.59908 -0.35539,0.67409 -0.78377,0.30076 -3.23933,0.45158 -3.58577,0.22024 z m -3.7979,-17.33328 c -0.49043,-0.3763 -0.63643,-1.22298 -0.21089,-1.22298 0.63232,0 1.61358,0.65987 1.54108,1.03632 -0.10431,0.54165 -0.74954,0.63219 -1.33019,0.18666 z m 2.29258,-1.21904 c -0.14336,-0.14336 -0.90713,-0.38326 -1.69727,-0.5331 -1.54057,-0.29217 -2.01737,-0.57684 -1.73404,-1.03528 0.43554,-0.70471 3.56632,-0.0499 4.17739,0.87376 0.4996,0.75513 -0.11415,1.32655 -0.74608,0.69462 z m 7.29857,39.45971 c 1.91335,-0.11916 2.59281,-0.24034 2.18281,-0.38929 -0.32742,-0.11894 -0.59531,-0.31784 -0.59531,-0.442 0,-0.12415 -0.35583,-0.30388 -0.79072,-0.3994 -0.43489,-0.0955 -0.85864,-0.28357 -0.94166,-0.4179 -0.083,-0.13432 -0.38204,-0.24422 -0.66449,-0.24422 -0.28245,0 -0.51448,-0.0893 -0.51562,-0.19844 -0.001,-0.10914 -0.32608,-0.34894 -0.7221,-0.5329 -0.68427,-0.31783 -0.77949,-0.27158 -1.91617,0.9307 -2.23115,2.35993 -2.21692,2.2866 -0.40022,2.06224 0.87194,-0.10768 2.83551,-0.27364 4.36348,-0.36879 z m -60.84502,-6.16654 c -0.30619,-0.63263 -0.782,-1.50742 -1.05734,-1.94398 -0.27535,-0.43656 -0.50934,-1.10659 -0.51997,-1.48896 -0.0106,-0.38236 -0.20751,-0.85137 -0.43749,-1.04224 -0.24002,-0.1992 -0.36935,-0.60233 -0.30359,-0.94631 0.29679,-1.55257 -2.19971,-2.4479 -6.95118,-2.49293 -1.23692,-0.0117 -2.9038,-0.13692 -3.70416,-0.27821 -0.80037,-0.14129 -3.24372,-0.35779 -5.42969,-0.48112 -3.70678,-0.20914 -5.99972,-0.59852 -6.59562,-1.12004 -0.13825,-0.12099 -0.55497,-0.22072 -0.92605,-0.22161 -0.37107,-9e-4 -1.01571,-0.17949 -1.43253,-0.39688 -0.41682,-0.21738 -0.96252,-0.39524 -1.21267,-0.39524 -0.25016,0 -0.53997,-0.0851 -0.64404,-0.18921 -0.37038,-0.37038 -2.65493,-0.93188 -6.31758,-1.55274 -0.54705,-0.0927 -1.0601,-0.27451 -1.1401,-0.40395 -0.08,-0.12945 -0.35168,-0.23535 -0.60373,-0.23535 -0.28503,0 -0.73046,-0.52513 -1.17826,-1.38907 -1.59111,-3.06975 -2.74021,-4.96147 -3.55775,-5.85699 -0.47294,-0.51806 -0.8599,-1.1304 -0.8599,-1.36077 0,-0.23036 -0.58041,-0.97768 -1.2898,-1.6607 -1.79023,-1.72368 -2.67895,-3.11917 -2.67895,-4.20658 0,-1.14571 0.42098,-1.95497 0.91781,-1.76432 0.20931,0.0803 0.65071,-0.0432 0.98088,-0.27443 0.53019,-0.37136 2.07006,-0.60183 2.07006,-0.30983 0,0.42431 -0.38298,0.94769 -0.69347,0.94769 -0.7248,0 -2.21032,1.17785 -2.21367,1.75519 -0.002,0.33988 0.68473,1.27319 1.72554,2.3452 0.95085,0.97935 1.89023,2.16695 2.08751,2.63911 0.19728,0.47216 0.60104,1.08425 0.89723,1.3602 0.74015,0.68955 2.4302,3.54061 2.4302,4.09966 0,0.2511 0.0948,0.49623 0.21067,0.54473 0.11587,0.0485 0.4567,0.61725 0.75741,1.26386 0.51589,1.10933 0.63463,1.19525 2.10443,1.5228 0.85673,0.19093 2.21254,0.45759 3.0129,0.5926 3.15939,0.53291 5.659,1.20077 6.20448,1.65774 0.47984,0.40199 1.54309,0.20735 2.10169,-0.38474 0.78623,-0.83338 1.66772,-1.20948 3.20321,-1.3667 0.7276,-0.0745 2.37477,-0.24585 3.66037,-0.38078 2.35757,-0.24743 3.63516,-0.11228 3.80683,0.40273 0.0562,0.16846 -0.62216,0.3475 -1.70256,0.44938 -0.98774,0.0931 -2.86746,0.27271 -4.17714,0.39904 -2.30119,0.22197 -4.36563,0.85161 -4.36563,1.33147 0,0.32757 0.69,0.55392 1.68852,0.55392 0.46831,0 0.96459,0.10903 1.10284,0.24229 0.13824,0.13326 0.96572,0.30159 1.83885,0.37406 0.87312,0.0725 2.77812,0.27118 4.23333,0.44156 1.45521,0.17039 4.37224,0.33936 6.48229,0.37548 4.68873,0.0803 5.46614,0.24416 6.4823,1.36649 0.74885,0.8271 0.95088,0.89588 3.57187,1.21612 4.84191,0.59159 19.43925,0.2726 17.33021,-0.37872 -0.43656,-0.13482 -1.15094,-0.39934 -1.5875,-0.58783 -0.43656,-0.18849 -1.27,-0.49009 -1.85208,-0.67022 -0.58209,-0.18014 -1.26508,-0.43196 -1.51777,-0.55962 -0.25269,-0.12766 -0.96706,-0.23729 -1.5875,-0.24363 -0.62044,-0.006 -1.66385,-0.13273 -2.31869,-0.28086 -0.65485,-0.14814 -1.54782,-0.32966 -1.98438,-0.40338 -0.43656,-0.0737 -1.03187,-0.23442 -1.32291,-0.3571 -0.80789,-0.34054 -4.1962,-0.85488 -7.14375,-1.08441 -3.39053,-0.26402 -5.95313,-0.82955 -5.95313,-1.31377 0,-0.11788 -0.20836,-0.26877 -0.46302,-0.33532 -0.8704,-0.22746 1.12182,-0.17038 2.11667,0.0607 0.57889,0.13443 0.99218,0.1318 0.99218,-0.006 0,-0.13019 -0.15599,-0.23672 -0.34664,-0.23672 -0.19066,0 -0.69667,-0.33962 -1.12448,-0.75471 -0.42781,-0.4151 -2.18303,-1.67682 -3.9005,-2.80384 -1.71747,-1.12701 -3.26416,-2.27567 -3.43708,-2.55257 -0.17293,-0.2769 -0.41334,-0.50346 -0.53426,-0.50346 -0.12091,0 -0.39843,-0.17859 -0.61671,-0.39688 -0.21828,-0.21828 -0.61802,-0.39687 -0.8883,-0.39687 -0.27029,0 -0.94325,-0.42613 -1.49548,-0.94694 -1.20892,-1.14016 -3.38008,-2.75723 -3.70199,-2.75723 -0.12751,0 -0.55285,-0.29765 -0.94519,-0.66146 -0.39234,-0.3638 -0.78311,-0.66145 -0.86836,-0.66145 -0.19593,0 -0.50173,-0.23849 -2.01434,-1.57095 -0.67112,-0.59119 -1.3581,-1.07489 -1.52662,-1.07489 -0.3739,0 -2.29982,-1.19728 -3.0497,-1.8959 -0.30053,-0.27999 -0.9052,-0.68896 -1.3437,-0.90883 -0.72183,-0.36193 -0.8223,-0.35869 -1.06185,0.0342 -0.43364,0.71128 -1.02346,1.29188 -1.72262,1.69567 -0.80083,0.46252 -6.87634,0.76501 -6.87634,0.34237 0,-0.32439 0.88579,-0.56278 3.175,-0.85446 2.17127,-0.27665 3.68371,-0.66789 4.06724,-1.05212 0.16411,-0.16441 0.28103,-0.87057 0.25982,-1.56924 -0.0335,-1.10449 -0.17895,-1.41354 -1.114,-2.36748 -0.59149,-0.60344 -1.19922,-1.09716 -1.3505,-1.09716 -0.15128,0 -0.27688,-0.14883 -0.27911,-0.33073 -0.003,-0.26279 -0.0469,-0.26323 -0.21273,-0.002 -0.30335,0.47765 -18.60703,0.35072 -18.76718,-0.13016 -0.0666,-0.20004 0.12809,-0.33072 0.49278,-0.33072 0.55597,0 0.52822,-0.0684 -0.35634,-0.87866 -1.25178,-1.14658 -2.99943,-2.29634 -3.49047,-2.29634 -0.36728,0 -0.69138,-0.25499 -2.70409,-2.12744 l -0.83271,-0.77468 -0.54786,1.16552 c -0.55119,1.17261 -1.51952,2.09648 -1.93089,1.84224 -0.1218,-0.0753 -0.22146,-0.0108 -0.22146,0.14332 0,0.15411 -0.23813,0.2802 -0.52917,0.2802 -0.29104,0 -0.52916,0.12609 -0.52916,0.2802 0,0.15411 -0.11907,0.20661 -0.26459,0.11668 -0.5309,-0.32812 -0.24365,-0.96181 0.59532,-1.31332 1.49117,-0.62476 2.17845,-1.74635 2.681,-4.37522 0.0695,-0.36381 0.24046,-1.10443 0.37982,-1.64584 0.30758,-1.19502 -0.11134,-1.74569 -0.976,-1.28294 -0.29077,0.15562 -1.0165,0.28294 -1.61271,0.28294 -0.71951,0 -1.13525,0.13346 -1.23633,0.39688 -0.20237,0.52738 -1.05482,0.50782 -1.26079,-0.0289 -0.12299,-0.32051 -0.37533,-0.38641 -1.0205,-0.26648 -0.51552,0.0958 -1.13692,0.0134 -1.55923,-0.20676 -0.6652,-0.34682 -0.74984,-0.3154 -1.60903,0.59721 -0.83447,0.88636 -1.07207,1.88932 -0.44756,1.88932 0.13485,0 0.24518,0.23813 0.24518,0.52917 0,0.77329 -0.91151,0.67013 -1.52542,-0.17263 -0.60094,-0.82495 -1.23225,-0.61888 -1.04852,0.34225 0.067,0.35022 0.007,0.70749 -0.13261,0.79394 -0.3538,0.21867 -1.52678,-0.44872 -1.52678,-0.86869 0,-0.23007 -0.46242,-0.0901 -1.38907,0.42037 -1.14184,0.62906 -1.4036,0.9074 -1.47075,1.56393 -0.0631,0.61643 0.073,0.90002 0.59618,1.24284 0.57283,0.37532 0.99555,0.40907 2.72753,0.21773 1.12731,-0.12454 2.33424,-0.20309 2.68208,-0.17455 0.91512,0.0751 1.88111,1.08805 1.88111,1.9726 0,0.64086 0.10391,0.74665 0.7276,0.7408 0.58757,-0.006 0.82092,-0.2092 1.21242,-1.05833 0.52269,-1.13366 1.23346,-1.3656 2.14414,-0.6997 0.40416,0.29553 0.46316,0.63418 0.36876,2.11667 -0.10743,1.6872 -0.0862,1.76485 0.48303,1.76485 0.69215,0 1.91629,0.50302 2.43774,1.0017 0.61951,0.59247 0.65571,0.1238 0.0674,-0.87323 -0.63883,-1.08274 -0.72004,-1.71597 -0.22006,-1.71597 0.75689,0 3.87344,6.3903 3.88758,7.97125 0.002,0.23684 0.16317,0.56285 0.3579,0.72446 0.19473,0.16161 0.49634,0.76875 0.67024,1.34919 0.19555,0.65268 0.91675,1.68862 1.8902,2.71512 0.8657,0.91287 1.74635,2.01696 1.95699,2.45352 0.21064,0.43657 0.92284,1.35691 1.58266,2.04521 0.65983,0.68831 1.39933,1.64081 1.64333,2.11667 0.24401,0.47586 0.69479,1.17766 1.00173,1.55956 0.30695,0.38189 0.79622,1.02809 1.08726,1.436 1.7757,2.48873 3.45937,4.34121 4.73091,5.20524 0.546,0.37102 1.42478,1.37261 1.95285,2.22575 1.06456,1.71989 1.31121,1.96014 1.8142,1.76712 0.45148,-0.17325 5.81013,0.67053 6.62959,1.0439 0.56812,0.25885 0.7209,0.18763 1.42197,-0.66289 1.17798,-1.4291 2.86786,-1.90357 6.05379,-1.69973 2.26566,0.14495 3.54354,0.35533 7.69148,1.26623 2.05222,0.45068 4.06079,0.78565 5.15937,0.86043 1.46396,0.0996 3.3359,0.41902 3.96875,0.6771 2.23825,0.91278 3.6279,1.73794 4.78109,2.83899 2.10991,2.0145 2.23037,2.096 2.23037,1.50897 0,-0.27396 -0.26789,-0.80087 -0.59531,-1.1709 -0.70603,-0.79791 -1.16706,-1.4938 -1.50567,-2.27267 -0.13619,-0.31329 -0.37403,-0.64774 -0.52853,-0.74322 -0.42162,-0.26058 -0.33793,-0.93613 0.11597,-0.93613 0.21828,0 0.39715,0.0893 0.3975,0.19844 3.4e-4,0.10914 0.35724,0.61515 0.79312,1.12448 0.43588,0.50932 0.79279,0.99682 0.79313,1.08332 3.5e-4,0.0865 0.29814,0.50323 0.66176,0.92604 0.36362,0.42282 0.66173,0.88782 0.66245,1.03335 0.002,0.40187 1.06681,2.06342 1.22256,1.90767 0.075,-0.075 -0.11414,-0.65398 -0.42033,-1.28661 z M 487.187,393.08679 c 0.0599,-0.17972 0.51632,-0.42632 1.01424,-0.548 0.49792,-0.12168 1.38156,-0.34027 1.96364,-0.48576 1.89312,-0.47319 5.64286,-2.49135 7.25038,-3.90227 0.64568,-0.5667 1.34858,-0.7411 1.34858,-0.3346 0,0.34433 -1.07658,1.44026 -2.24896,2.28937 -0.58208,0.42159 -1.11786,0.84184 -1.19062,0.9339 -0.20428,0.25846 -2.90413,1.50942 -4.23333,1.96149 -1.47961,0.50322 -4.06198,0.56003 -3.90393,0.0859 z m -24.93566,-14.60974 c 0,-1.6711 0.37803,-2.68092 1.31691,-3.51785 1.2648,-1.12746 2.19965,-0.55661 0.96394,0.58861 -0.94943,0.8799 -1.22251,1.55712 -1.22251,3.03169 0,1.16392 -0.0696,1.34031 -0.52917,1.34031 -0.46447,0 -0.52917,-0.17639 -0.52917,-1.44276 z m 59.62389,31.60526 c -0.41905,-0.83998 -0.68927,-1.06285 -0.48121,-0.39687 0.0682,0.21828 0.17978,0.57547 0.24798,0.79375 0.0682,0.21828 0.23766,0.39687 0.37659,0.39687 0.13894,0 0.0744,-0.35718 -0.14336,-0.79375 z m -1.11762,-2.3151 c -0.4187,-1.22311 -1.35627,-2.58984 -1.35627,-1.9771 0,0.60032 1.42172,3.23387 1.7458,3.23387 0.0224,0 -0.1529,-0.56555 -0.38953,-1.25677 z m 24.62631,-4.37365 c 0.47994,-0.47735 1.32575,-1.10243 1.87956,-1.38906 l 1.00694,-0.52114 -2.08575,-0.17731 c -1.34629,-0.11445 -2.43227,-0.37194 -3.06316,-0.72629 -0.69323,-0.38936 -1.11037,-0.47754 -1.43472,-0.30326 -0.71599,0.38469 -2.83181,0.80998 -4.02969,0.80998 -0.65867,0 -1.02445,0.10456 -0.92555,0.26458 0.0899,0.14552 0.33567,0.26459 0.54608,0.26459 0.2104,0 0.99957,0.29765 1.75369,0.66146 0.75413,0.3638 1.51753,0.66145 1.69645,0.66145 0.17892,0 0.36878,0.13042 0.42191,0.28983 0.0531,0.1594 0.8072,0.44485 1.6757,0.63434 0.8685,0.18949 1.60312,0.35673 1.63249,0.37164 0.0294,0.0149 0.4461,-0.36345 0.92605,-0.84081 z m 3.03774,0.23107 c 0.37775,-0.35026 1.33801,-0.84167 2.13392,-1.09201 1.4776,-0.46476 1.77864,-0.78443 2.97646,-3.16055 1.3007,-2.58021 9.24228,-6.22309 13.56649,-6.22309 0.7059,0 1.1547,-0.20927 1.77141,-0.82598 0.45429,-0.45428 0.79087,-0.85821 0.74796,-0.8976 -0.0429,-0.0394 -0.55427,-0.34427 -1.13635,-0.67749 -0.89238,-0.51086 -1.43174,-0.6044 -3.43959,-0.59658 -1.62709,0.006 -2.69548,0.14843 -3.37343,0.44868 -1.16594,0.51635 -1.26177,0.67504 -0.2962,0.49046 0.83595,-0.1598 0.77191,0.44271 -0.0933,0.87821 -0.30041,0.15121 -0.70773,0.40641 -0.90515,0.56712 -0.68936,0.56118 -2.36282,1.40693 -2.78386,1.40693 -0.56038,0 -4.31498,3.87075 -4.95894,5.11235 -0.27758,0.53519 -0.605,0.97307 -0.7276,0.97307 -0.12261,0 -0.22292,0.15987 -0.22292,0.35527 0,0.19541 -0.56036,0.64189 -1.24525,0.99219 -0.68488,0.3503 -1.53571,0.9048 -1.89072,1.23222 -0.35501,0.32743 -0.74427,0.59532 -0.86502,0.59532 -0.12076,0 -0.60939,0.23768 -1.08585,0.52817 l -0.86629,0.52818 1.00374,9.9e-4 c 0.69464,6.9e-4 1.21523,-0.19512 1.69054,-0.63586 z m 2.92266,-4.25794 c 0.46993,-0.72761 0.97371,-1.59268 1.11951,-1.92239 0.4463,-1.00931 3.90525,-4.29189 4.56537,-4.33257 1.75648,-0.10826 -2.87343,-0.44318 -6.43851,-0.46575 -2.2729,-0.0144 -5.1304,-0.19345 -6.35,-0.39791 -3.99443,-0.66965 -4.56927,-0.69926 -6.31852,-0.3255 -2.6463,0.56543 -3.93112,0.95148 -4.10548,1.2336 -0.0875,0.14157 -0.42987,0.25739 -0.76083,0.25739 -0.33096,0 -0.69077,0.0893 -0.79959,0.19844 -0.10881,0.10914 -1.05139,0.33742 -2.09462,0.50728 -1.04322,0.16986 -2.43255,0.44103 -3.08739,0.60259 -2.71522,0.66988 -7.14777,1.0627 -8.49152,0.75252 -0.71393,-0.16479 -1.29807,-0.39824 -1.29807,-0.51877 0,-0.12053 -0.14882,-0.21989 -0.33072,-0.22081 -0.18191,-9.1e-4 -1.28323,-0.47641 -2.4474,-1.05666 -1.16417,-0.58025 -2.318,-1.05575 -2.56407,-1.05667 -0.24608,-9.2e-4 -0.52099,-0.12073 -0.61093,-0.26625 -0.0899,-0.14552 -0.27556,-0.26458 -0.41249,-0.26458 -0.40876,0 0.61762,0.88768 1.67568,1.44923 0.54217,0.28775 0.98577,0.61517 0.98577,0.7276 0,0.11243 0.1368,0.20442 0.304,0.20442 0.1672,0 0.69258,0.4001 1.1675,0.88912 0.47493,0.48901 1.49899,1.28125 2.27569,1.76052 1.21887,0.75212 1.75626,0.90133 3.92572,1.09006 2.61227,0.22725 2.89596,0.27386 5.95313,0.97798 2.47788,0.5707 13.79233,0.63196 14.13561,0.0765 0.17377,-0.28116 0.48663,-0.29673 1.51808,-0.0755 0.71456,0.15325 1.65199,0.42754 2.08317,0.60954 1.15931,0.48933 3.56316,0.97219 4.62043,0.9281 0.80419,-0.0335 1.03847,-0.2127 1.78048,-1.36154 z m -20.5659,-0.90502 c 0,-0.13396 0.32743,-0.31349 0.72761,-0.39895 1.58015,-0.33746 6.85871,-0.94499 8.21056,-0.94499 1.84201,0 2.83526,-0.66658 3.27235,-2.1961 0.36804,-1.28789 0.71663,-1.82702 1.04863,-1.62183 0.32153,0.19872 0.29728,1.89588 -0.03,2.09814 -0.14552,0.0899 -0.26458,0.38856 -0.26458,0.66361 0,0.68481 -1.59875,1.84992 -2.53852,1.84998 -0.42283,2e-5 -1.70198,0.17861 -2.84257,0.39687 -2.27205,0.43477 -7.5835,0.54212 -7.5835,0.15327 z m 56.13505,-12.45644 c 1.53049,-1.49895 2.61567,-2.84142 3.254,-4.02549 0.85582,-1.58752 0.96588,-2.01817 1.03451,-4.04761 0.0549,-1.62254 -0.0345,-2.47522 -0.31302,-2.98597 -0.21441,-0.39319 -0.60871,-1.15078 -0.87623,-1.68352 -0.55006,-1.09541 -2.24104,-2.60324 -2.91944,-2.60324 -0.24749,0 -0.62858,-0.1786 -0.84686,-0.39688 -0.21828,-0.21828 -0.75482,-0.39687 -1.1923,-0.39687 -0.43748,0 -1.07107,-0.10179 -1.40796,-0.22619 -1.10677,-0.4087 -2.91623,-0.60559 -2.72523,-0.29655 0.0964,0.15592 0.11014,0.45306 0.0306,0.6603 -0.11882,0.30965 -0.3352,0.27506 -1.21407,-0.19405 -0.58821,-0.31397 -1.06947,-0.70861 -1.06947,-0.87698 0,-0.16837 -0.41672,-0.53054 -0.92605,-0.80483 -0.50932,-0.27429 -0.92604,-0.57718 -0.92604,-0.67309 0,-0.0959 -0.32742,-0.23059 -0.7276,-0.29929 -0.40018,-0.0687 -0.93067,-0.21198 -1.17886,-0.31841 -0.69502,-0.29803 -1.79866,0.94788 -1.79365,2.02487 0.003,0.55263 0.0831,0.74738 0.21984,0.53182 0.11869,-0.18706 0.63105,-0.40749 1.13857,-0.48985 0.77718,-0.12612 0.99008,-0.047 1.34943,0.50142 0.23466,0.35814 0.59465,0.81915 0.79997,1.02447 0.75903,0.75904 0.99707,1.4896 0.72151,2.21438 -0.40519,1.06571 -0.32358,1.63701 0.39683,2.77823 0.75127,1.19008 0.81847,1.83421 0.29811,2.85741 -0.73107,1.43748 -0.77842,1.90509 -0.19295,1.90509 0.29572,0 0.66254,-0.23331 0.81515,-0.51845 0.26439,-0.49403 1.33873,-1.1055 2.55048,-1.45163 1.36999,-0.39134 2.48234,0.86198 2.48234,2.79691 0,0.41133 0.23768,1.13771 0.52818,1.61417 0.6859,1.12498 0.66723,1.57485 -0.13131,3.16471 -0.66036,1.31476 -0.82042,2.40342 -0.48273,3.28342 0.15946,0.41554 0.22342,0.39648 0.59334,-0.1768 0.22803,-0.3534 1.44794,-1.65457 2.7109,-2.8915 z m -123.86838,-0.66146 c 0,-0.21828 -0.0893,-0.40598 -0.19843,-0.41712 -0.10915,-0.0111 -0.43657,-0.0834 -0.72761,-0.1605 -0.29104,-0.0771 -1.06495,-0.18723 -1.71979,-0.24463 l -1.19063,-0.10438 1.32292,0.42036 c 0.72761,0.2312 1.50151,0.52199 1.71979,0.64619 0.59161,0.33665 0.79375,0.30101 0.79375,-0.13992 z m -22.29114,-1.07133 c 0.64657,-0.1966 0.81446,-0.64846 0.24094,-0.64846 -0.46548,0 -2.29146,-1.98132 -2.29146,-2.4864 0,-0.21603 -0.11907,-0.46637 -0.26459,-0.55631 -0.14552,-0.0899 -0.2664,-0.48392 -0.26863,-0.87551 -0.003,-0.55689 -0.0599,-0.62553 -0.26053,-0.31511 -0.403,0.62359 -0.31659,3.89446 0.12547,4.74931 0.41105,0.79488 0.52246,0.80031 2.7188,0.13248 z m 21.57306,-0.58231 c -0.17909,-1.12794 -0.64985,-1.91823 -1.14263,-1.91823 -0.54639,0 -1.89543,1.29823 -1.76367,1.69724 0.0522,0.15792 0.64584,0.35158 1.31931,0.43035 0.67348,0.0788 1.30888,0.2276 1.41201,0.33073 0.28584,0.28584 0.29946,0.24381 0.17498,-0.54009 z m -15.0226,-0.90558 c -0.33806,-0.26592 -0.81015,-0.48349 -1.04908,-0.48349 -0.83753,0 -1.91277,-0.77215 -3.19934,-2.2975 -0.71393,-0.84643 -1.36024,-1.59849 -1.43624,-1.67125 -0.87493,-0.83755 -1.85799,-4.23273 -1.85799,-6.41686 0,-1.56016 -0.0583,-1.80161 -0.37229,-1.54104 -0.54125,0.4492 -1.13958,6.3704 -0.64372,6.3704 0.12224,0 0.22226,0.243 0.22226,0.53999 0,0.72483 0.99196,3.7119 1.42099,4.27897 0.18863,0.24934 0.86882,0.75706 1.51151,1.12829 1.04488,0.60353 1.42516,0.66971 3.59355,0.62547 2.40006,-0.049 2.41869,-0.0545 1.81035,-0.53298 z m 11.50735,-0.0405 c 0,-0.33844 -0.26789,-0.8593 -0.59531,-1.15748 -1.0382,-0.94547 -4.07044,-2.7251 -4.64319,-2.7251 -0.30311,0 -0.62469,-0.11906 -0.71463,-0.26458 -0.0899,-0.14552 -0.34319,-0.26459 -0.56279,-0.26459 -0.32682,0 -0.30498,0.13205 0.12031,0.72761 1.20053,1.68117 2.94111,3.10065 4.67064,3.80902 1.4699,0.60203 1.72497,0.58357 1.72497,-0.12488 z m -7.9375,-0.0461 c -0.18116,-0.21828 -0.55711,-0.39688 -0.83546,-0.39688 -1.00408,0 -2.27896,-1.06669 -3.00411,-2.51354 -0.21881,-0.43656 -0.93843,-1.38906 -1.59916,-2.11667 -0.66073,-0.7276 -1.47849,-1.73963 -1.81723,-2.24895 -0.83679,-1.25818 -3.4642,-3.9674 -3.20742,-3.3073 0.11321,0.29105 0.31099,0.97237 0.43951,1.51406 0.37336,1.57363 1.71416,4.23407 2.59667,5.15232 0.44694,0.46505 0.81262,0.92004 0.81262,1.01109 0,0.27108 0.73365,0.92149 1.03943,0.92149 0.15592,0 0.28348,0.11104 0.28348,0.24676 0,0.13571 0.26789,0.32179 0.59532,0.4135 0.83875,0.23494 1.49415,0.50857 2.71197,1.13224 0.58209,0.2981 1.34081,0.55252 1.68605,0.56537 0.52883,0.0197 0.57582,-0.0391 0.29833,-0.37349 z m 3.70417,-0.13229 c 0,-0.14552 -0.18126,-0.26459 -0.40279,-0.26459 -0.51263,0 -2.70073,-2.00378 -2.91077,-2.66558 -0.0873,-0.27506 -0.59786,-0.70605 -1.13457,-0.95775 -0.53671,-0.2517 -1.13316,-0.61098 -1.32546,-0.7984 -0.1923,-0.18742 -0.43774,-0.34077 -0.54542,-0.34077 -0.10769,0 -0.42661,-0.20931 -0.70871,-0.46513 -0.77019,-0.69844 -1.99724,-1.44602 -2.13968,-1.30359 -0.11062,0.11063 0.58391,1.00001 2.08979,2.67607 0.25466,0.28344 0.46302,0.66352 0.46302,0.84462 0,0.43626 2.18761,2.21678 2.72362,2.21678 0.23108,0 0.49374,0.11907 0.58367,0.26459 0.0899,0.14552 0.43034,0.26458 0.75645,0.26458 0.32611,0 0.70604,0.10751 0.84428,0.2389 0.21751,0.20673 0.82827,0.419 1.50813,0.52416 0.10914,0.0169 0.19844,-0.0884 0.19844,-0.23389 z m 6.35,-2.08463 c 0,-0.25625 -0.35719,-0.86598 -0.79375,-1.35496 -0.91932,-1.0297 -1.0178,-0.90943 -0.26558,0.32434 0.2905,0.47646 0.52863,1.08167 0.52917,1.34492 5.4e-4,0.26325 0.12005,0.40505 0.26557,0.31512 0.14552,-0.0899 0.26459,-0.37318 0.26459,-0.62942 z m -2.11482,-0.69004 c -0.19713,-0.36835 -1.08753,-1.02695 -2.0258,-1.49843 -0.92074,-0.46267 -1.88988,-1.02995 -2.15364,-1.26063 -0.95165,-0.83226 -1.68579,-1.11356 -2.46155,-0.94317 -0.4256,0.0935 -0.71212,0.26978 -0.63671,0.39178 0.2167,0.35064 2.5345,1.58548 3.0097,1.60346 0.23633,0.009 1.32266,0.58533 2.41407,1.28086 1.0914,0.69554 2.03416,1.22382 2.09501,1.17397 0.0609,-0.0498 -0.0476,-0.38638 -0.24108,-0.74784 z m -7.74696,-2.25242 c -0.85292,-0.6709 -1.12606,-0.68241 -0.52312,-0.0221 0.25466,0.27892 0.62791,0.51704 0.82943,0.52917 0.20153,0.0121 0.0637,-0.21608 -0.30631,-0.50712 z m 7.55541,-0.21948 c -0.5689,-0.99126 -1.74445,-1.63676 -2.9406,-1.61469 -0.94305,0.0174 -0.95187,0.0266 -0.30928,0.3234 0.3638,0.16803 0.72099,0.37509 0.79375,0.46014 0.0728,0.085 0.51529,0.30951 0.98341,0.49881 0.46812,0.18929 0.98871,0.50995 1.15688,0.71258 0.54192,0.65298 0.75891,0.39175 0.31584,-0.38024 z m -9.06659,-2.28908 c -0.31701,-0.38197 -0.26668,-1.51817 0.13799,-3.11535 0.33525,-1.32319 -0.16103,-1.55638 -2.89201,-1.35887 -1.32521,0.0958 -2.53485,0.27253 -2.68808,0.39265 -0.15825,0.12405 -0.62748,0.006 -1.08623,-0.27275 -0.59398,-0.36122 -0.88876,-0.81332 -1.11428,-1.70893 -0.16865,-0.66977 -0.36864,-1.21777 -0.44443,-1.21777 -0.0758,0 -0.41426,0.18115 -0.75216,0.40255 -1.03299,0.67684 -0.56842,1.83807 1.58167,3.95357 1.49334,1.46932 2.12505,1.90748 3.00331,2.08313 l 0.87057,0.17412 -0.4269,-0.65155 c -0.91885,-1.40233 -0.43959,-1.55609 0.94932,-0.30455 0.53865,0.48537 1.34232,1.03283 1.78594,1.21658 0.44362,0.18375 0.80658,0.43872 0.80658,0.56658 0,0.12787 0.13364,0.23249 0.29698,0.23249 0.20686,0 0.19829,-0.11892 -0.0283,-0.3919 z m 4.47606,-1.16247 c 0.146,-0.27281 0.344,-0.98719 0.44,-1.5875 0.14145,-0.88459 0.0968,-1.09147 -0.23564,-1.09147 -0.23214,0 -0.53948,0.39179 -0.70808,0.90265 -0.30206,0.91528 -0.69994,1.21402 -1.61686,1.21402 -0.88048,0 -0.57488,0.75186 0.35237,0.86693 0.47295,0.0587 1.00454,0.12577 1.18132,0.14906 0.17678,0.0233 0.44088,-0.18087 0.58689,-0.45369 z m 99.85942,85.24418 c -0.77783,-0.15215 -1.46577,-0.96865 -1.26247,-1.49842 0.20843,-0.54318 0.60743,-0.56207 0.80843,-0.0383 0.0838,0.21829 0.41446,0.39688 0.73488,0.39688 0.32042,0 0.81369,0.17633 1.09617,0.39185 0.44454,0.33916 0.46023,0.42755 0.11671,0.6574 -0.40826,0.27318 -0.52417,0.28021 -1.49372,0.0906 z M 427.687,447.90876 c -1.9582,-4.03643 -2.52291,-5.46119 -2.66442,-6.72225 -0.0826,-0.73622 -0.23597,-1.45763 -0.34078,-1.60315 -0.10481,-0.14552 -0.39822,-1.09802 -0.65203,-2.11667 -0.2538,-1.01865 -0.55971,-2.09021 -0.67979,-2.38125 -0.12007,-0.29104 -0.28147,-1.06495 -0.35864,-1.71979 -0.0772,-0.65485 -0.26058,-2.02406 -0.40755,-3.04271 -0.34442,-2.38719 -0.34442,-9.25448 0,-11.64167 0.14697,-1.01864 0.33037,-2.38786 0.40755,-3.04271 0.0772,-0.65484 0.23477,-1.42875 0.35022,-1.71979 0.29907,-0.75396 0.86691,-3.02229 1.01069,-4.03735 0.0672,-0.47429 0.22805,-0.9278 0.35749,-1.0078 0.12945,-0.08 0.23535,-0.53497 0.23535,-1.01104 0,-0.79707 0.37935,-1.69531 1.73776,-4.11471 0.28116,-0.50077 0.71956,-1.1483 0.97422,-1.43896 0.25466,-0.29065 0.46302,-0.61909 0.46302,-0.72986 0,-0.61655 5.12233,-5.25507 5.80318,-5.25507 0.15523,0 0.28224,-0.11906 0.28224,-0.26458 0,-0.14552 0.23813,-0.26459 0.52917,-0.26459 0.29104,0 0.52916,-0.11906 0.52916,-0.26458 0,-0.14552 0.13946,-0.26458 0.3099,-0.26458 0.17044,0 0.49786,-0.16692 0.7276,-0.37092 0.68424,-0.6076 4.25121,-1.68857 6.23855,-1.8906 2.84949,-0.28966 10.03137,-0.23059 12.83229,0.10555 3.22615,0.38718 3.13382,0.36775 4.29948,0.90495 0.5457,0.2515 1.37914,0.628 1.85208,0.83668 0.47294,0.20868 1.10502,0.59564 1.40461,0.8599 0.71478,0.63048 2.17786,1.40652 2.65173,1.40652 0.20648,0 0.37543,0.11906 0.37543,0.26458 0,0.14552 0.17859,0.26459 0.39687,0.26459 0.21829,0 0.39688,0.11821 0.39688,0.26269 0,0.14448 0.92273,0.94271 2.05052,1.77385 1.12779,0.83114 2.18173,1.63566 2.34209,1.78783 0.16036,0.15217 0.83937,0.73078 1.5089,1.2858 0.66954,0.55503 1.29049,1.23964 1.37991,1.52136 0.0894,0.28172 0.35609,0.51222 0.59262,0.51222 0.46675,0 5.22525,4.76362 6.47533,6.48229 0.42338,0.58208 1.17797,1.49963 1.67687,2.03899 0.4989,0.53937 0.90709,1.05389 0.90709,1.14338 0,0.0895 0.1786,0.34131 0.39688,0.55959 0.78416,0.78416 0.37806,0.97016 -0.45881,0.21014 -0.47063,-0.4274 -0.91842,-0.85713 -0.99508,-0.95495 -1.92514,-2.45628 -5.90294,-6.53639 -9.37072,-9.61173 -1.14863,-1.01865 -2.50524,-2.23904 -3.01468,-2.71198 -0.50944,-0.47295 -1.05264,-0.8599 -1.2071,-0.8599 -0.15446,0 -0.52315,-0.23145 -0.81931,-0.51433 -1.49653,-1.42945 -3.01064,-2.66067 -3.27199,-2.66067 -0.32775,0 -2.0785,-0.93556 -2.69044,-1.4377 -0.35491,-0.29123 -1.53995,-0.8575 -3.04271,-1.45395 -2.58063,-1.02426 -5.6732,-1.32815 -12.17083,-1.19597 -4.50776,0.0917 -4.89695,0.14166 -7.27604,0.93411 -1.38245,0.46048 -2.8112,1.04412 -3.175,1.29698 -0.3638,0.25286 -1.35809,0.82363 -2.20954,1.26838 -0.85144,0.44474 -2.33972,1.57428 -3.30729,2.51007 -1.57379,1.5221 -2.05746,2.15873 -3.06264,4.03121 -0.15624,0.29104 -0.35534,0.58869 -0.44244,0.66145 -0.55488,0.4635 -1.54055,2.83052 -1.92812,4.63021 -0.2507,1.16417 -0.56308,2.47386 -0.69417,2.91042 -0.1311,0.43656 -0.3746,1.56766 -0.54112,2.51354 -0.16652,0.94589 -0.43252,2.43417 -0.59111,3.30729 -0.37926,2.08798 -0.37419,11.69879 0.007,13.89063 0.16464,0.94588 0.49874,2.55323 0.74244,3.57187 0.2437,1.01865 0.57885,2.70563 0.74477,3.74886 0.16593,1.04322 0.39098,1.9858 0.50012,2.09462 0.10914,0.10881 0.19844,0.39384 0.19844,0.63339 0,0.23956 0.29765,1.05257 0.66146,1.80669 0.3638,0.75413 0.66145,1.48753 0.66145,1.62979 0,0.14226 0.30717,0.90739 0.68259,1.70029 0.37542,0.7929 0.64331,1.71486 0.59531,2.04879 -0.0687,0.4782 -0.26354,0.2438 -0.91724,-1.10369 z"
       id="path14" /></g></svg>
