<?xml version="1.0" encoding="UTF-8" standalone="no"?>
<!-- Created with Inkscape (http://www.inkscape.org/) -->

<svg
   width="103.7602mm"
   height="76.814758mm"
   viewBox="0 0 103.76021 76.814759"
   version="1.1"
   id="svg1"
   xml:space="preserve"
   xmlns="http://www.w3.org/2000/svg"
   xmlns:svg="http://www.w3.org/2000/svg"><defs
     id="defs1" /><g
     id="layer1"
     transform="translate(20.493663,-1531.646)"><path
       style="fill:#4d4d4d;stroke-width:2.5"
       d="m 40.157199,1607.0065 c -0.343955,-1.3153 -0.66875,-1.3533 -8.510743,-0.9943 -46.153725,2.1125 -43.03359,2.213 -49.008362,-1.5762 l -3.131757,-1.986 v -4.194 c 0,-5.525 1.361597,-9.88 4.707508,-15.0568 2.543121,-3.9347 2.682809,-4.3847 1.934944,-6.235 -2.550848,-6.3102 -2.495284,-11.1212 0.177325,-15.355 1.356202,-2.1482 2.50703,-3.022 5.4135873,-4.1095 2.0301875,-0.7595 4.5926225,-1.381 5.6942975,-1.381 2.38284755,0 4.2474126,-0.8827 6.70475,-3.1745 0.99666,-0.9295 2.03745,-1.4647 2.3128625,-1.1892 0.275415,0.2755 -0.5854275,1.4962 -1.9129825,2.7127 -1.7630149,1.6158 -3.2781575,2.329 -5.620155,2.6458 -5.858765,0.7927 -9.3546028,2.2647 -11.4686748,4.8295 -1.68988,2.0502 -1.990348,2.9755 -1.990348,6.1292 0,2.043 0.595313,5.4448 1.322915,7.5595 0.727605,2.1148 1.322918,5.5383 1.322918,7.6078 0,2.8052 0.30782,4.0412 1.209635,4.8575 1.6802323,1.5205 2.0960803,1.3777 2.1077853,-0.7243 0.0055,-1.0005 0.29867,-2.2655 0.65133,-2.8112 0.527955,-0.817 0.6429895,-0.8268 0.6513295,-0.055 0.0055,0.5155 0.179575,0.7677 0.3866875,0.5605 0.2071,-0.2075 0.0879,-0.9263 -0.2649225,-1.5985 -0.3528145,-0.672 -0.9630775,-4.085 -1.3561425,-7.5843 -0.393062,-3.4992 -0.889832,-6.8187 -1.10393,-7.3765 -0.289587,-0.7547 0.511758,-1.3492 3.1293225,-2.3217 1.935225,-0.719 4.485685,-1.5158 5.66768505,-1.7708 1.793425,-0.3867 2.08275245,-0.2907 1.7482425,0.581 -0.2237,0.583 -1.17347,1.049 -2.14909255,1.0545 -2.645275,0.025 -7.0441095,1.735 -7.0079145,2.7398 0.0175,0.4887 0.282352,2.475 0.588345,4.414 0.498167,3.157 0.7023395,3.486 1.9523795,3.1455 0.7678175,-0.21 3.36258,-0.5693 5.76614255,-0.8005 l 4.37011245,-0.4205 -1.6154649,-2.8905 c -0.8885075,-1.5898 -1.3415476,-2.8903 -1.0067575,-2.8903 0.33479,0 1.32762,1.3138 2.2062899,2.9195 8.7249847,15.944 7.9086247,14.8163 11.8501877,16.3698 5.501295,2.168 15.225982,2.032 21.497395,-0.301 4.417532,-1.6435 4.6395,-1.828 4.832485,-4.021 l 0.202275,-2.2983 -9.361533,-0.215 -9.36153,-0.215 -1.496597,-1.879 c -2.310108,-2.9 -5.076265,-10.2192 -5.695913,-15.0715 -0.74859,-5.862 -2.29359,-9.0045 -4.68515,-9.5297 -1.026572,-0.225 -2.4658722,-1.2518 -3.1984447,-2.2805 -1.93317,-2.715 -1.641375,-3.0518 0.939025,-1.0835 4.1512547,3.1662 5.2965527,2.4375 6.9078147,-4.3958 1.07335,-4.552 0.947503,-5.5692 -0.745192,-6.0227 -3.609285,-0.9675 -7.1106777,0.1825 -7.1106777,2.3347 0,1.186 -1.3046875,2.54 -2.447395,2.54 -1.2819625,0 -1.0508225,-4.6945 0.312365,-6.344 0.6285625,-0.7607 2.27004,-2.0567 3.6477227,-2.8802 2.699485,-1.6135 5.700115,-1.5265 8.109725,0.235 1.169347,0.855 1.198142,1.238 0.429907,5.718 -0.452862,2.641 -1.526647,6.5427 -2.386192,8.6707 l -1.562805,3.8693 1.978367,2.8067 c 1.0881,1.5438 2.914658,3.6148 4.059013,4.6025 l 2.080647,1.7958 -2.542495,-0.6865 c -1.398372,-0.3775 -2.670417,-0.5585 -2.826767,-0.402 -0.808958,0.8087 0.830697,2.4395 3.464555,3.4452 2.827855,1.08 3.03432,1.0778 4.279592,-0.05 1.294453,-1.1715 1.28877,-1.1925 -0.533245,-1.9725 l -1.84164,-0.7885 2.315105,0.085 c 2.243815,0.082 2.40097,-0.077 5.10361,-5.2072 2.623105,-4.9778 3.470703,-7.7073 2.337795,-7.5283 -2.778167,0.4385 -2.748035,-0.8472 0.08628,-3.6815 1.794715,-1.7947 2.46177,-3.2507 3.37988,-7.3775 1.520208,-6.833 3.41392,-8.8632 8.267333,-8.8632 5.22921,0 7.904922,1.9042 7.90042,5.6225 -0.0013,1.0912 -0.42779,2.7285 -0.94771,3.638 -1.120353,1.9597 -1.30957,8.9862 -0.259475,9.6352 0.450285,0.2783 0.577985,1.4203 0.331297,2.963 -0.380242,2.378 -0.296015,2.5335 1.59676,2.9493 1.099,0.2425 3.148828,0.245 4.555173,0 3.667585,-0.6198 12.316142,0.7422 16.302462,2.5672 5.784423,2.6483 8.704995,7.9333 9.35871,16.9355 0.467535,6.4385 -0.559682,11.164 -3.807052,17.514 -3.61172,7.0623 -6.130008,10.0798 -9.10057,10.905 -1.342468,0.3728 -6.958503,0.6795 -12.480078,0.6815 -9.918687,0 -10.05485,0.025 -11.33999,1.6573 -1.716877,2.1827 -5.730795,2.3657 -6.274607,0.2862 z m 3.69989,-1.9563 c -0.337233,-5.4807 -0.12555,-7.0735 1.528772,-11.503 0.962568,-2.5775 2.560918,-5.728 3.55189,-7.0015 2.28529,-2.9362 3.709553,-5.7187 4.27694,-8.3555 0.354525,-1.6475 0.112,-2.46 -1.184467,-3.9687 -1.608085,-1.8713 -1.741348,-1.9 -9.791923,-2.1128 -8.133777,-0.215 -11.10296,-0.9437 -7.430505,-1.8232 1.05308,-0.2523 2.27372,-0.7408 2.712535,-1.0858 0.438818,-0.345 1.074818,-0.456 1.413335,-0.2475 0.779298,0.4815 2.05641,-1.0295 2.406508,-2.8472 0.379702,-1.9718 0.937312,-2.711 2.044907,-2.711 0.529168,0 1.518935,-0.3478 2.199483,-0.7728 1.038925,-0.6487 1.645072,-0.4365 3.779755,1.323 1.398317,1.1525 2.92955,2.0958 3.402737,2.0958 0.473188,0 2.674503,-0.916 4.891815,-2.0353 2.710143,-1.368 3.812848,-2.2537 3.36443,-2.702 -0.448415,-0.4485 -1.33157,-0.3235 -2.69457,0.3813 -1.115142,0.5767 -2.837427,1.0485 -3.827305,1.0485 -1.920072,0 -4.219045,-1.6468 -4.219045,-3.022 0,-1.5505 -4.137417,-8.928 -5.38003,-9.593 -0.679005,-0.3633 -1.234555,-1.106 -1.234555,-1.6503 0,-0.5442 -0.446485,-1.161 -0.992187,-1.3705 -1.828845,-0.7017 -1.016535,-1.5227 1.416222,-1.4312 2.54861,0.095 3.91676,-1.0645 4.636965,-3.9328 0.524083,-2.087 -0.1115,-3.357 -2.143597,-4.283 -1.574648,-0.7172 -1.903543,-0.6187 -3.283468,0.9858 -0.857942,0.9972 -1.73789,3.1455 -1.997405,4.876 -0.477957,3.1872 -2.286542,6.3927 -5.314787,9.4195 -2.055523,2.0547 -7.535285,12.6975 -7.535285,14.635 0,0.828 -0.630745,1.5922 -1.626605,1.971 -1.694835,0.6442 -4.32652,4.998 -4.32652,7.1572 0,0.6858 0.61421,1.8028 1.364912,2.482 1.205678,1.0913 2.555965,1.2383 11.574403,1.2603 5.61522,0.025 10.209995,0.1875 10.21061,0.3885 6.15e-4,0.2 -0.287953,0.653 -0.64126,1.0062 -0.353308,0.3533 -0.950028,2.8115 -1.326045,5.4628 -0.732583,5.1655 -2.11371,8.5162 -4.083203,9.9065 -1.573132,1.1105 -1.544137,2.6085 0.0985,5.0887 0.72281,1.0915 1.316163,2.6045 1.318558,3.3625 0.0055,1.7055 0.622107,2.3678 1.95648,2.101 0.724157,-0.145 0.982985,-0.8785 0.883005,-2.5032 z m 23.155447,-2.7947 c 0.979195,-0.4548 1.77831,-0.9758 1.77581,-1.1575 -0.0097,-0.7163 -7.842892,-3.2965 -8.842622,-2.9128 -1.248083,0.4788 -1.41186,2.962 -0.270635,4.1033 1.034992,1.035 5.076865,1.0167 7.337447,-0.033 z m -9.131835,-7.097 c 0.517175,-0.8368 -0.51799,-2.8063 -3.77108,-7.175 -2.26044,-3.0355 -3.40379,-3.917 -3.229495,-2.4898 0.0256,0.21 -0.559502,1.46 -1.300207,2.7788 -0.740708,1.3187 -1.25774,2.486 -1.148963,2.594 3.728908,3.698 8.482418,5.8572 9.449745,4.292 z m -35.96045,-26.2768 c -0.953825,-0.4385 -2.106295,-0.8105 -2.561047,-0.827 -1.132313,-0.04 -1.048353,1.728 0.103,2.17 0.511397,0.1975 1.150492,1.3443 1.420212,2.5513 l 0.490398,2.1942 1.140835,-2.6457 1.140837,-2.6458 z m 43.9064,-8.1327 c -0.22485,-0.3638 -1.135377,-0.6615 -2.023412,-0.6615 -0.888035,0 -1.614608,0.2977 -1.614608,0.6615 0,0.3637 0.910535,0.6615 2.023413,0.6615 1.180505,0 1.853112,-0.2755 1.614607,-0.6615 z m -8.643055,-1.2083 c -1.32141,-1.1235 -4.08685,-1.9505 -4.880655,-1.46 -0.544767,0.3368 0.164825,0.843 2.045288,1.4595 2.9168,0.956 3.959675,0.9563 2.835367,5e-4 z M 17.870921,1539.913 c 0,-0.5458 -0.288315,-0.9923 -0.640697,-0.9923 -0.352385,0 -0.469368,0.4465 -0.259963,0.9923 0.2094,0.5457 0.497723,0.9922 0.6407,0.9922 0.142975,0 0.25996,-0.4465 0.25996,-0.9922 z m -9.2604172,28.112 c -1.1533925,-0.7453 -1.2185725,-0.7208 2.6324822,-0.999 3.280878,-0.2375 4.599768,0.2 3.225898,1.0715 -1.205768,0.764 -4.6294977,0.7217 -5.8583802,-0.073 z"
       id="path74" /></g></svg>
