<?xml version="1.0" encoding="UTF-8" standalone="no"?>
<!-- Created with Inkscape (http://www.inkscape.org/) -->

<svg
   width="133.19235mm"
   height="66.248795mm"
   viewBox="0 0 133.19237 66.248795"
   version="1.1"
   id="svg1"
   xml:space="preserve"
   xmlns="http://www.w3.org/2000/svg"
   xmlns:svg="http://www.w3.org/2000/svg"><defs
     id="defs1" /><g
     id="layer1"
     transform="translate(477.15532,12.048322)"><path
       style="fill:#4d4d4d"
       d="m -441.2298,53.705101 c -0.9382,-0.97523 -2.2041,-1.42743 -3.99651,-1.42763 -1.20596,-1.3e-4 -1.64731,0.10193 -3.17901,0.73513 -2.17467,0.89901 -3.53129,1.15913 -4.7624,0.91317 -0.8945,-0.17871 -1.466,-0.37643 -1.466,-0.5072 0,-0.0564 -0.1337,0.003 -0.29711,0.13121 -0.24859,0.19554 -0.44541,0.22835 -1.20532,0.20094 -0.49952,-0.018 -0.93467,-0.0471 -0.96701,-0.0646 -0.0323,-0.0175 -0.21626,-0.038 -0.4087,-0.0454 -0.41652,-0.0161 -0.62629,-0.36756 -0.72611,-1.21646 -0.0798,-0.67833 0.27737,-1.55127 1.01791,-2.48813 0.2627,-0.33234 0.63055,-0.86359 0.81744,-1.18056 l 0.3398,-0.5763 -0.23969,-0.21587 c -0.40818,-0.36763 -0.49047,-0.74725 -0.23645,-1.09082 l 0.22259,-0.30108 -0.38312,-0.40254 c -0.33184,-0.34867 -1.18644,-1.67264 -1.67539,-2.59556 -0.52131,-0.98402 -2.08529,-2.55202 -3.49078,-3.49979 -0.88333,-0.59565 -2.02401,-1.06253 -2.80813,-1.14936 -1.14937,-0.12727 -1.36641,-0.18229 -1.36641,-0.34635 0,-0.52784 1.94031,-0.27939 3.32782,0.42612 1.74698,0.88828 3.39179,2.4663 4.60968,4.42248 0.45273,0.72718 0.85952,1.32221 0.90397,1.32228 0.0444,8e-5 -0.078,-0.35705 -0.27217,-0.79361 -0.19414,-0.43656 -0.43463,-0.97896 -0.53443,-1.20532 -0.43818,-0.99393 -0.80124,-1.70805 -0.8868,-1.74429 -0.0509,-0.0216 -0.0925,-0.0906 -0.0925,-0.15345 0,-0.24052 -0.95144,-1.50027 -1.51742,-2.00914 -0.65632,-0.59009 -1.35646,-0.95667 -2.06916,-1.08338 -0.2587,-0.046 -0.58883,-0.15991 -0.73361,-0.25315 -0.185,-0.11914 -0.32481,-0.13544 -0.47037,-0.0549 -0.44358,0.24558 -1.29069,0.3254 -1.9857,0.1871 -0.73236,-0.14574 -0.88587,-0.19578 -1.63161,-0.53197 -1.46495,-0.66039 -2.18051,-0.94198 -2.39561,-0.94272 -0.42214,-10e-4 -1.07337,-0.25411 -1.07337,-0.41644 0,-0.30071 0.97723,-0.21051 1.79586,0.16576 0.40281,0.18514 1.07633,0.49479 1.49673,0.68811 1.08126,0.49722 1.5205,0.62156 2.19566,0.62156 0.93347,0 1.75933,-0.31125 2.33786,-0.88112 0.35101,-0.34575 0.72805,-1.06965 0.61565,-1.18205 -0.0311,-0.0311 -0.42187,0.085 -0.86837,0.25802 -0.66751,0.25865 -1.0104,0.31592 -1.92895,0.32213 -0.98723,0.007 -1.18605,-0.0285 -1.70981,-0.30252 -0.51988,-0.27199 -1.07017,-0.7818 -1.71472,-1.5886 -0.1049,-0.13131 -0.34988,-0.52387 -0.54441,-0.87235 -0.83279,-1.491914 -0.99942,-1.751097 -1.4682,-2.283663 -0.51989,-0.590623 -1.48658,-1.112751 -2.06274,-1.114126 -0.64476,-0.0015 -1.13754,0.870639 -1.69464,2.999375 -0.20913,0.799104 -0.20836,4.186434 0.001,4.821294 0.17941,0.54379 0.34898,0.96005 0.52693,1.29352 0.069,0.12935 0.19268,0.36748 0.27478,0.52917 0.26394,0.5198 1.3388,1.55077 2.31663,2.22202 1.18853,0.81589 1.94649,1.75389 2.43294,3.01085 0.17132,0.44269 0.37102,1.8811 0.33087,2.38332 -0.0496,0.62059 -0.26481,0.66243 -0.30439,0.0592 -0.0523,-0.79702 -0.2974,-1.84264 -0.57749,-2.46366 -0.28538,-0.63278 -0.98034,-1.40129 -2.26709,-2.50708 -0.41393,-0.35572 -0.81402,-0.69968 -0.88909,-0.76435 -0.0751,-0.0647 -0.40025,-0.4351 -0.72263,-0.82315 -1.24884,-1.50325 -1.80581,-3.12124 -1.80581,-5.2459 0,-1.37203 0.0788,-1.86301 0.60092,-3.742965 0.29884,-1.07608 0.62942,-1.721386 0.95718,-1.868473 0.0485,-0.02177 0.0882,-0.112061 0.0882,-0.200651 0,-0.08859 0.17198,-0.243589 0.38217,-0.344442 0.2102,-0.100854 0.51447,-0.291246 0.67616,-0.423093 0.16169,-0.131848 0.50565,-0.367662 0.76435,-0.524033 l 0.47037,-0.28431 -0.61182,-0.0037 c -0.58056,-0.0035 -0.75322,0.04135 -1.64713,0.427715 -0.47077,0.203474 -1.39807,0.902938 -1.83211,1.38197 -0.50109,0.553034 -0.90253,1.280503 -1.21297,2.1981 -0.24676,0.729341 -0.28161,1.047132 -0.28161,2.567442 0,0.9543 0.0472,1.8885 0.1049,2.07601 0.0577,0.18751 0.17388,0.65843 0.25819,1.04648 0.30327,1.39601 1.17419,3.24953 2.84016,6.04456 0.29561,0.49595 0.54296,0.9898 0.80084,1.59896 0.0548,0.12935 0.21898,0.6056 0.36492,1.05833 0.14594,0.45274 0.36032,0.96361 0.47641,1.13529 0.11608,0.17167 0.21106,0.34476 0.21106,0.38464 0,0.12046 1.55214,2.10187 1.9189,2.44961 0.35184,0.33358 1.10696,0.74611 1.19839,0.65468 0.0283,-0.0283 -0.0755,-0.23839 -0.23077,-0.46684 -0.27175,-0.39991 -0.63362,-1.0115 -0.96395,-1.62913 -0.18121,-0.3388 -0.21009,-0.82315 -0.0491,-0.82315 0.10996,0 0.59597,0.61784 0.59597,0.75761 0,0.041 0.31717,0.54626 0.70483,1.12278 0.68977,1.02585 1.11564,1.45601 1.91815,1.93752 0.21911,0.13147 0.54095,0.33914 0.71518,0.46149 0.43411,0.30482 1.09643,0.43945 2.4878,0.50568 1.16495,0.0555 1.304,0.0345 2.99349,-0.45042 0.71799,-0.20609 1.58032,-0.33489 1.79328,-0.26785 0.13197,0.0415 0.20579,0.18363 0.20579,0.39608 v 0.3313 l -0.67594,0.0845 c -0.37177,0.0464 -1.40779,0.23775 -2.30228,0.42512 -2.49875,0.52342 -3.22781,0.45629 -5.30496,-0.48843 -0.71534,-0.32535 -1.40645,-0.65155 -1.5358,-0.7249 -0.12935,-0.0733 -0.4463,-0.24319 -0.70434,-0.37741 -0.88716,-0.4615 -2.85586,-2.6479 -3.29038,-3.65424 -0.13963,-0.32338 -0.32262,-0.82608 -0.40664,-1.11713 -0.32398,-1.12224 -0.71571,-1.92336 -1.56959,-3.20995 -1.02457,-1.54378 -2.0328,-3.67293 -2.51707,-5.31551 -0.0953,-0.32338 -0.23538,-0.79963 -0.31118,-1.05833 -0.19752,-0.67403 -0.18276,-4.654034 0.0201,-5.409262 0.32773,-1.220385 0.77428,-2.08178 1.47955,-2.85402 0.59555,-0.652102 1.8127,-1.555703 2.09554,-1.555703 0.0876,0 0.2096,-0.04454 0.27104,-0.09898 0.0614,-0.05444 0.40961,-0.162642 0.7737,-0.240447 0.67799,-0.144882 1.60033,-0.02413 1.95826,0.256374 0.10229,0.08016 0.29383,0.07098 0.59534,-0.02853 0.42991,-0.141883 1.41838,-0.118241 2.19725,0.05255 0.28109,0.06164 0.595,-0.03564 1.48624,-0.460579 1.43299,-0.683242 2.21435,-0.707362 2.21435,-0.06835 0,0.352289 0.21488,0.44239 0.75841,0.318012 0.28132,-0.06438 0.60942,-0.07454 0.72909,-0.02259 0.11967,0.05195 0.29085,0.08216 0.38038,0.06712 0.35679,-0.0599 0.724,0.128885 0.8954,0.460319 0.19826,0.3834 0.71918,0.705763 1.14083,0.705987 0.32883,1.74e-4 0.81218,0.411546 1.00805,0.857935 0.32301,0.736163 0.13709,2.390753 -0.42841,3.812545 l -0.24409,0.61368 0.49661,0.12269 c 0.27313,0.0675 0.68181,0.17099 0.90817,0.23003 2.28235,0.59533 3.83597,0.42438 5.51967,-0.60737 0.42435,-0.26003 0.95261,-0.57624 1.17392,-0.702688 1.40318,-0.801724 2.21296,-1.530008 3.34291,-3.006486 0.46241,-0.604212 0.5759,-0.849477 0.62838,-1.358004 0.0921,-0.89214 -0.47531,-2.977612 -1.60545,-5.900902 -0.15576,-0.402888 -0.30751,-0.765131 -0.88674,-2.116667 -0.35796,-0.835245 -0.5064,-1.204104 -0.99377,-2.469444 -0.27403,-0.711436 -0.54395,-1.399352 -0.59984,-1.528704 -0.0559,-0.129352 -0.23128,-0.63206 -0.38976,-1.11713 -0.98345,-3.01011 -1.08324,-4.93432 -0.35989,-6.9396222 0.15697,-0.435131 0.28539,-0.854167 0.28539,-0.931192 0,-0.528819 -1.33182,-2.477334 -1.69327,-2.477334 -0.13524,0 -0.24391,0.168727 -0.92317,1.433325 -0.37954,0.706599 -1.0583,1.388897 -1.38171,1.388897 -0.16255,0 -0.44607,-0.183408 -0.70615,-0.456807 -0.49679,-0.522235 -0.81793,-0.719119 -1.17295,-0.719119 -0.13654,0 -0.37098,-0.119062 -0.52098,-0.264583 -0.15,-0.145521 -0.42541,-0.345881 -0.61202,-0.445244 -0.18661,-0.09936 -0.40359,-0.31439 -0.48219,-0.477838 -0.0786,-0.163447 -0.24418,-0.388838 -0.36797,-0.500868 l -0.22508,-0.203692 -0.54817,0.266323 c -0.81909,0.397947 -0.92853,0.292855 -1.2458,-1.19632 -0.16918,-0.794094 -0.36822,-1.433032 -0.4927,-1.581621 -0.0515,-0.06144 -0.0936,-0.202516 -0.0936,-0.313498 0,-0.110982 -0.19844,-0.359757 -0.44098,-0.552834 -0.52613,-0.41884703 -1.12893,-1.38304503 -1.45764,-2.331575 -0.13124,-0.378691 -0.30953,-0.847278 -0.39621,-1.041306 -0.77265,-1.729611 -0.68231,-3.298131 0.25601,-4.444774 0.14809,-0.180969 0.35034,-0.498469 0.44945,-0.705556 0.31253,-0.653067 1.3093,-1.891492 2.21442,-2.7512628 1.4198,-1.348669 2.85629,-1.917388 4.843,-1.917388 1.27423,0 2.1307,0.194124 3.29508,0.746851 1.32966,0.631179 2.44714,1.8958028 3.56016,4.0289358 0.82152,1.574456 1.55263,4.14837 1.55263,5.466076 0,0.424772 0.0837,0.715292 0.31099,1.07876097 0.78879,1.261685 2.02796,1.99986403 5.03948,3.00203103 2.82882,0.941374 5.54342,2.075866 5.99134,2.50392 0.0614,0.05872 0.20697,0.106758 0.32338,0.106758 0.11642,0 0.21167,0.04151 0.21167,0.09224 0,0.05073 0.14552,0.179466 0.32338,0.286077 0.17786,0.10661 0.42921,0.275964 0.55856,0.376341 0.12935,0.100377 0.79081,0.545104 1.46991,0.988281 1.38161,0.901638 2.32039,1.773484 4.13771,3.8427112 2.41835,2.753561 3.37566,3.618586 4.74499,4.287576 1.16783,0.570545 2.13777,0.694322 3.7585,0.479637 4.55071,-0.602792 5.31487,-0.601057 7.34954,0.01668 1.49516,0.45394 3.4592,1.603776 4.5118,2.641415 0.43804,0.431816 1.25867,1.558502 1.40085,1.923303 0.0517,0.132619 0.0891,0.109056 0.15094,-0.09496 0.0772,-0.254937 0.61764,-0.561219 2.16789,-1.228649 1.74689,-0.75209 1.63064,-0.704779 2.76343,-1.124596 2.10074,-0.778542 4.95907,-1.609552 7.17315,-2.085465 1.41241,-0.303596 3.15025,-0.593004 4.58611,-0.763738 2.37028,-0.281844 3.36814,-0.440043 4.40972,-0.699106 1.80257,-0.448336 2.84374,-0.41677 3.67669,0.111471 0.66618,0.422479 1.06857,0.953379 1.32796,1.752074 0.11245,0.346243 0.31564,0.745132 0.45152,0.886419 0.13589,0.141288 0.53673,0.598831 0.89075,1.016764 0.35402,0.417933 0.67507,0.786336 0.71343,0.818674 0.18187,0.153326 2.48815,2.987945 3.10943,3.821759 0.38551,0.517408 0.73143,0.967199 0.7687,0.999537 0.0373,0.03234 0.19675,0.244005 0.3544,0.470371 0.15765,0.226365 0.35364,0.490949 0.43552,0.587963 0.37421,0.443354 3.22018,4.562671 3.35127,4.850694 0.0809,0.177859 0.18101,0.32338 0.22236,0.32338 0.0413,0 0.10427,0.111274 0.13983,0.247276 l 0.0647,0.247276 1.33077,-0.08054 c 1.53078,-0.09264 3.49387,0.05516 6.38724,0.480897 3.22854,0.475054 4.7354,0.628987 6.18141,0.631462 1.83614,0.0031 2.7346,-0.155063 5.07926,-0.894383 l 1.26531,-0.398976 0.41114,0.171786 c 0.49031,0.204864 0.67944,0.593391 0.70431,1.446812 0.01,0.33929 0.0449,0.643777 0.0777,0.676638 0.0329,0.03286 0.49118,-0.03096 1.01848,-0.141812 1.131,-0.237772 1.80604,-0.122939 2.48969,0.423529 0.93745,0.749339 1.29352,2.277899 1.29352,5.552879 0,2.63309 0.23105,4.76821 0.72045,6.65744 0.12516,0.48317 0.22029,1.2524 0.22029,1.78135 0,0.80698 0.047,1.02028 0.35277,1.6016 0.4646,0.88322 0.4932,1.76737 0.07,2.16493 -0.15552,0.1461 -0.31702,0.44824 -0.35889,0.67142 -0.0615,0.32756 -0.1415,0.41885 -0.41527,0.4736 -0.18654,0.0373 -0.36734,0.14127 -0.40178,0.23103 -0.0344,0.0897 -0.18662,0.16319 -0.33818,0.16319 -0.16982,0 -0.37564,0.13537 -0.53638,0.35278 -0.27357,0.37003 -0.6845,0.46297 -0.93581,0.21166 -0.10976,-0.10975 -0.17247,-0.10975 -0.28223,0 -0.0776,0.0776 -0.33497,0.14112 -0.57192,0.14112 -0.55394,0 -0.99433,-0.42248 -1.09471,-1.05019 -0.0807,-0.50481 -0.0474,-0.65681 0.30111,-1.37562 0.18266,-0.37667 0.22259,-0.64031 0.1781,-1.17592 -0.1023,-1.23162 -0.54424,-2.86568 -1.03704,-3.83441 -0.0571,-0.11231 -0.10387,-0.25318 -0.10387,-0.31305 0,-0.15727 -0.92155,-1.75232 -1.33172,-2.30498 -0.78696,-1.06036 -2.25441,-2.33863 -3.26736,-2.84617 -1.40824,-0.7056 -1.58793,-0.76944 -3.27962,-1.16521 -0.94813,-0.22181 -4.78375,-0.25797 -5.82195,-0.0549 -2.456,0.48043 -2.89408,0.5968 -2.80279,0.7445 0.0401,0.0648 0.60795,0.3712 1.26198,0.68083 2.0839,0.98657 3.20053,1.28907 4.75206,1.28734 1.2012,-10e-4 1.77511,-0.12896 2.84588,-0.63283 0.79902,-0.37599 0.8809,-0.37717 1.24007,-0.018 0.51434,0.51434 0.33229,1.2025 -0.60007,2.26832 l -0.53414,0.61062 0.30017,0.0753 c 0.16509,0.0414 0.49846,0.0432 0.74082,0.004 0.24236,-0.0393 0.81428,-0.10428 1.27094,-0.14446 l 0.83028,-0.073 0.31624,0.37584 c 0.41183,0.48942 0.40237,0.91268 -0.0317,1.42056 -0.19163,0.2242 -0.35014,0.54866 -0.35277,0.72211 -0.005,0.3035 -0.25721,0.66879 -0.48355,0.69926 -0.0601,0.008 -0.15018,0.0213 -0.20028,0.0294 -0.0501,0.008 -0.16916,0.079 -0.26458,0.1576 -1.45033,1.19455 -1.80746,1.31355 -2.56182,0.85362 -0.21409,-0.13052 -0.43835,-0.20697 -0.49836,-0.16988 -0.06,0.0371 -0.41402,0.15335 -0.78668,0.25836 -0.51554,0.14526 -1.2962,0.197 -3.2646,0.21634 -1.42288,0.014 -2.79871,0.079 -3.05741,0.14444 -0.25871,0.0654 -0.76141,0.1988 -1.11713,0.29633 -0.35572,0.0975 -1.06822,0.19439 -1.58334,0.21523 l -0.93658,0.0379 -0.16263,-0.46845 c -0.77588,-2.23499 -1.51398,-3.72776 -2.74583,-5.55327 -0.94295,-1.3974 -0.99413,-1.44158 -1.66995,-1.44158 -0.54526,0 -1.47755,0.25529 -2.39727,0.65645 -0.2102,0.0917 -0.55416,0.24171 -0.76436,0.33339 -1.42511,0.6216 -4.0082,1.24056 -5.93158,1.42131 -0.40046,0.0376 -1.19421,0.21041 -1.76389,0.38394 -0.90413,0.27541 -1.23007,0.31467 -2.56448,0.30885 l -1.5287,-0.007 -1.11713,-0.3766 c -0.61442,-0.20714 -1.22297,-0.42281 -1.35232,-0.47927 -0.12935,-0.0565 -0.81727,-0.32426 -1.5287,-0.59511 -0.71144,-0.27085 -1.42581,-0.54749 -1.5875,-0.61474 -0.16169,-0.0673 -0.41304,-0.16812 -0.55857,-0.22414 -0.24717,-0.0952 -0.4597,-0.17947 -1.11713,-0.44318 -0.65808,-0.26397 -1.70964,-0.63786 -3.61597,-1.28569 -3.23354,-1.09887 -4.92428,-1.84081 -6.27087,-2.7518 -0.37687,-0.25496 -0.70226,-0.44559 -0.7231,-0.42363 -0.0208,0.022 -0.26479,0.51619 -0.54213,1.09827 -1.50957,3.16836 -3.63569,5.25478 -6.10464,5.99067 -1.72518,0.51421 -3.97008,0.65486 -5.58565,0.34998 -3.3315,-0.6287 -5.46676,-0.68885 -10.23055,-0.28818 -4.15818,0.34973 -5.86306,0.79784 -9.40741,2.47266 -2.49165,1.17738 -3.74142,1.69613 -4.83724,2.00783 -0.38403,0.10924 -0.54281,0.24037 -0.75499,0.62352 -0.14777,0.26685 -0.4733,0.78946 -0.72339,1.16134 l -0.45472,0.67616 h 0.73099 c 1.30335,0 2.30555,0.53807 2.98732,1.60384 0.22932,0.35849 0.52036,0.7628 0.64675,0.89847 0.22664,0.24326 0.31483,0.84146 0.13998,0.94952 -0.0494,0.0305 -0.32722,-0.19124 -0.61736,-0.49283 z m -9.38504,-0.54244 c 0.4431,-0.0939 1.30904,-0.43407 1.98794,-0.78089 0.66157,-0.33798 1.36662,-0.65814 1.56677,-0.71146 0.39222,-0.10449 -0.65411,-0.0531 -1.76,0.0865 -0.47873,0.0604 -0.63553,0.0348 -0.80131,-0.13099 -0.11335,-0.11335 -0.16301,-0.24682 -0.11035,-0.29659 0.0527,-0.0498 0.51909,-0.11833 1.0365,-0.15236 2.00943,-0.13216 3.09196,-0.55037 3.75127,-1.4492 0.35142,-0.47909 0.52484,-0.86307 0.38979,-0.86307 -0.0894,0 -1.46232,0.50742 -1.6618,0.61418 -0.51625,0.27628 -1.67804,0.44647 -2.93266,0.4296 -1.94832,-0.0262 -2.74859,0.25603 -3.66234,1.29159 -0.25871,0.29319 -0.69987,0.78444 -0.98038,1.09166 l -0.51,0.5586 0.6276,0.17634 c 1.21476,0.34133 1.9386,0.37353 3.05897,0.13607 z m -5.48621,-0.392 c 0.13077,-0.11103 0.36818,-0.38708 0.52758,-0.61345 0.37429,-0.53154 1.25132,-1.41111 1.40703,-1.41111 0.0664,0 0.12021,0.14552 0.11964,0.32338 -7.7e-4,0.23682 -0.18846,0.51223 -0.70123,1.02894 -0.3851,0.38805 -0.70213,0.74524 -0.70451,0.79375 -0.0113,0.23148 0.36109,0.0425 0.71695,-0.36374 0.4148,-0.47357 0.49664,-0.57392 1.16182,-1.42475 1.07505,-1.37509 1.36007,-1.56678 2.75251,-1.8513 1.72297,-0.35204 2.19348,-0.9968 3.01213,-4.12763 0.28337,-1.08372 1.01394,-3.09404 1.6964,-4.668 0.75449,-1.74008 1.06026,-2.46354 1.25493,-2.96921 0.056,-0.14552 0.15276,-0.38365 0.21496,-0.52917 0.64814,-1.51626 1.90131,-6.259906 1.94936,-7.378935 0.018,-0.420394 0.12339,-1.055394 0.23409,-1.411112 0.43818,-1.407972 0.22411,-2.754813 -1.07331,-6.752756 -0.54335,-1.674335 -0.75682,-2.411527 -1.05812,-3.654188 -0.0941,-0.388056 -0.2155,-0.864306 -0.26979,-1.058334 -0.0543,-0.194028 -0.16395,-0.590903 -0.24367,-0.881944 -0.0797,-0.291042 -0.19271,-0.621053 -0.25108,-0.733358 -0.0584,-0.112306 -0.10614,-0.285003 -0.10614,-0.383772 0,-0.09877 -0.0486,-0.271466 -0.10798,-0.383771 -0.29606,-0.559836 -0.59757,-1.34454 -0.59757,-1.555225 0,-0.409782 0.3172,-0.257043 0.56618,0.272622 0.30555,0.650028 1.04359,2.832558 1.31904,3.900633 0.65046,2.522249 1.25491,4.463953 1.60153,5.144676 0.25113,0.493193 2.26983,2.462532 2.8478,2.778159 l 0.51147,0.279315 -0.0815,-0.5145 c -0.0448,-0.282976 -0.12623,-0.69971 -0.18093,-0.926075 -0.0547,-0.226366 -0.16114,-0.729074 -0.23654,-1.11713 -0.0754,-0.388055 -0.18496,-0.827108 -0.24347,-0.975672 -0.0585,-0.148564 -0.10637,-0.397428 -0.10637,-0.553032 0,-0.155603 -0.0474,-0.404467 -0.10535,-0.553031 -0.0579,-0.148564 -0.16378,-0.495013 -0.23519,-0.769885 -0.28835,-1.109921 -0.41561,-1.54741 -0.76104,-2.616436 -0.19854,-0.614421 -0.44201,-1.256045 -0.54105,-1.42583 -0.34523,-0.591851 -1.51344,-1.932848 -2.57412,-2.954853 -1.47346,-1.419736 -2.7169,-3.3086732 -2.54159,-3.8610062 0.1052,-0.331476 0.51966,-0.501431 0.88452,-0.362713 0.16122,0.0613 0.59272,0.355488 0.95887,0.653759 0.36616,0.29827 0.71073,0.54231 0.76572,0.54231 0.055,0 0.0795,-0.383646 0.0545,-0.852546 -0.0527,-0.988054 -0.13703,-1.113232 -1.31455,-1.95097 -1.35089,-0.961082 -1.77994,-1.532755 -1.57845,-2.103159 l 0.11522,-0.326196 0.57035,-0.01045 c 0.47465,-0.0087 0.59548,-0.05742 0.72016,-0.29038 0.12626,-0.235924 0.22559,-0.274458 0.63187,-0.245124 0.34368,0.02481 0.50148,-0.0158 0.54972,-0.1415 0.15267,-0.397857 0.62614,-0.325121 1.18359,0.181826 0.16427,0.149395 0.27941,0.185262 0.33032,0.102898 0.16704,-0.270286 0.81987,-0.133495 1.24019,0.259866 1.19693,1.12017 1.77912,2.396759 2.10303,4.611383 0.47053,3.2171332 0.42844,3.0772462 1.36012,4.5208572 0.39882,0.617973 0.76052,1.202963 0.80378,1.299976 0.0433,0.09701 0.23742,0.440973 0.43149,0.764352 0.32764,0.545956 1.78676,3.466788 1.9973,3.998149 0.15353,0.387484 0.35249,0.8654 0.47731,1.146527 0.22369,0.503827 1.03559,3.090371 1.22731,3.909954 0.1059,0.452732 0.24101,1.008357 0.30024,1.234722 0.14859,0.567877 0.24447,1.039019 0.31707,1.558102 0.0539,0.385225 0.10174,0.440973 0.37859,0.440973 0.1743,0 0.36718,0.04371 0.42862,0.09714 0.15478,0.134595 1.2579,0.435538 2.63995,0.720208 0.90865,0.187159 1.40325,0.329691 2.88102,0.830239 1.75081,0.593031 2.94186,0.852113 3.49089,0.759354 0.24598,-0.04156 0.47782,-0.125055 0.51521,-0.185551 0.0374,-0.0605 0.38322,-0.269124 0.76851,-0.46362 0.59895,-0.302346 1.24839,-0.735805 1.98697,-1.326155 0.59721,-0.477361 1.22311,-0.831773 3.28228,-1.858587 2.1592,-1.076692 3.54936,-1.809378 4.65522,-2.453544 0.2587,-0.150695 1.13182,-0.612505 1.94027,-1.026244 0.80845,-0.413739 1.50692,-0.788663 1.55216,-0.833166 0.0888,-0.08736 -0.0767,-0.502445 -0.64164,-1.609617 -0.86293,-1.691026 -2.26917,-2.997806 -4.29183,-3.988275 -2.17372,-1.064442 -3.84679,-1.231504 -6.55526,-0.654571 -1.40373,0.299009 -2.51591,0.464126 -3.13981,0.466142 -2.3765,0.0077 -4.30174,-1.231832 -7.30254,-4.701537 -1.7736,-2.0507372 -3.34708,-3.5591202 -4.46144,-4.2768602 -0.56532,-0.364116 -1.10587,-0.662029 -1.20123,-0.662029 -0.0953,0 -0.34719,-0.149974 -0.55964,-0.333276 -0.9812,-0.846596 -2.7848,-1.844286 -4.56081,-2.522891 -1.49612,-0.571661 -3.94849,-1.475542 -4.52555,-1.668002 -1.58822,-0.5297 -2.7856,-1.36492803 -3.23613,-2.25734103 -0.0924,-0.183063 -0.17617,-0.348052 -0.18612,-0.366643 -0.0221,-0.04131 -0.67206,0.239776 -0.75405,0.326108 -0.0323,0.03405 -0.39696,0.233564 -0.81027,0.443365 -0.51977,0.263845 -0.91607,0.381458 -1.28531,0.381458 -0.67895,0 -1.66738,-0.430682 -1.66738,-0.726517 0,-0.253892 0.18271,-0.270841 0.5958,-0.05527 0.39023,0.203645 0.94401,0.356889 1.16809,0.323239 0.097,-0.01457 0.71878,-0.290942 1.38171,-0.614163 l 1.20532,-0.58767497 v -0.638027 c 0,-0.350915 -0.0583,-0.89014 -0.12951,-1.198279 -0.29792,-1.28876 -0.47676,-1.908804 -0.72123,-2.50053 -0.0668,-0.16169 -0.15979,-0.399815 -0.20662,-0.529167 -0.0953,-0.263294 -0.45495,-0.988436 -0.85352,-1.721089 -0.43041,-0.791197 -1.5138,-2.000595 -2.26709,-2.5307618 -0.97965,-0.689484 -1.97695,-1.005137 -3.38682,-1.071947 -1.42125,-0.06735 -2.23091,0.09283 -3.33783,0.660326 -1.02954,0.527827 -1.41627,0.8164578 -2.32387,1.7343888 -0.86967,0.879565 -1.35002,1.470741 -1.35285,1.664962 -10e-4,0.08085 -0.0461,0.146991 -0.0999,0.146991 -0.0538,0 -0.17281,0.145521 -0.26458,0.32338 -0.0918,0.177859 -0.24895,0.414673 -0.34928,0.526255 -0.78511,0.873162 -0.90924,2.005856 -0.34002,3.102598 0.19773,0.380971 0.43306,0.791574 0.52296,0.91245 l 0.16345,0.219775 0.74116,-0.352045 c 0.8986,-0.426826 1.18372,-0.688752 1.56171,-1.434681 0.15954,-0.314853 0.4528,-0.688322 0.65167,-0.829931 0.32267,-0.229759 0.40212,-0.241498 0.7382,-0.109066 0.20714,0.08162 0.42689,0.19284 0.48833,0.24715 0.0614,0.05431 0.25676,0.09875 0.43404,0.09875 0.17727,0 0.35502,0.05292 0.39499,0.117593 0.04,0.06468 0.16639,0.117592 0.28093,0.117592 0.29805,0 1.39276,1.123852 1.80332,1.851321 0.39631,0.702228 0.46564,0.765152 0.73087,0.663376 0.12486,-0.04792 0.16576,-0.151045 0.1187,-0.299323 -0.12494,-0.393668 0.0712,-1.131383 0.38399,-1.444164 0.61185,-0.611851 1.54943,-0.270753 1.9151,0.696724 0.17353,0.459131 0.18416,1.91173497 0.017,2.32758397 -0.15141,0.376731 -0.568,0.57783 -0.86962,0.419783 -0.26975,-0.141354 -0.25965,-0.275396 0.0419,-0.556343 0.15464,-0.144067 0.2124,-0.287858 0.15376,-0.382743 -0.0517,-0.08359 -0.10374,-0.38479597 -0.11573,-0.66934497 -0.0121,-0.288111 -0.0933,-0.563385 -0.18316,-0.621227 -0.27657,-0.178029 -0.51255,-0.05708 -0.55171,0.282759 -0.026,0.22563 -0.17709,0.418444 -0.49037,0.625766 -0.68364,0.45240997 -0.93325,0.35642897 -1.37856,-0.530077 -0.20779,-0.413662 -0.49883,-0.882304 -0.64676,-1.041427 -0.43232,-0.465036 -1.22911,-0.969886 -1.53075,-0.969886 -0.15327,0 -0.32894,-0.04372 -0.39038,-0.09715 -0.0614,-0.05343 -0.3349,-0.167167 -0.60767,-0.252748 -0.60093,-0.188537 -0.72596,-0.110788 -1.09236,0.67926 -0.14094,0.303918 -0.41606,0.720013 -0.61138,0.924655 -0.39998,0.419096 -1.66498,1.034056 -1.92324,0.934954 -0.19219,-0.07375 -0.22509,0.174514 -0.0646,0.487852 0.0575,0.11230497 0.20302,0.40701097 0.32338,0.65490097 0.12035,0.24789 0.25161,0.471643 0.29168,0.49723 0.0401,0.02559 0.22528,-0.08591 0.41157,-0.247763 0.29794,-0.25885 0.43075,-0.290403 1.10307,-0.262045 0.84344,0.03557 0.97663,0.212957 0.2733,0.363989 -0.8521,0.182979 -1.01221,0.25701 -1.10565,0.511246 -0.11825,0.321715 0.21868,0.74450403 0.59332,0.74450403 0.1444,0 0.44776,-0.185208 0.67412,-0.41157403 0.46709,-0.467088 0.62939,-0.51927 0.53891,-0.17327 -0.0949,0.36302503 -0.6847,0.93762203 -0.96238,0.93762203 -0.13574,0 -0.24461,0.03969 -0.24192,0.08819 0.0102,0.184203 0.66941,2.624368 0.72363,2.67859 0.0313,0.03128 0.15295,-0.04928 0.27037,-0.179026 0.13266,-0.146581 0.36243,-0.235906 0.60684,-0.235906 0.25571,0 0.39335,-0.05668 0.39335,-0.161991 0,-0.252608 -0.27576,-0.429032 -0.47431,-0.303454 -0.2606,0.164817 -0.34884,0.13583 -0.34884,-0.114594 0,-0.303404 0.39008,-0.411853 0.79186,-0.220149 0.26639,0.127106 0.33592,0.250832 0.38407,0.683481 0.0323,0.290555 0.16336,0.701194 0.29116,0.912533 l 0.23237,0.384252 0.53198,-0.05982 c 0.2926,-0.0329 0.66163,-0.07352 0.82007,-0.09027 l 0.28808,-0.03045 -0.0324,0.558565 c -0.022,0.379255 0.0138,0.558564 0.1113,0.558564 0.079,0 0.39765,0.237565 0.70807,0.527921 0.36689,0.34319 0.62947,0.502944 0.75039,0.456543 0.19043,-0.07307 1.23785,-1.605711 1.23785,-1.811279 0,-0.06266 0.0529,-0.113925 0.11759,-0.113925 0.0647,0 0.11759,-0.05798 0.11759,-0.128838 0,-0.07086 0.0996,-0.269299 0.22142,-0.440973 0.48205,-0.679546 0.71924,-1.221215 0.71755,-1.638627 -0.002,-0.423691 -0.18878,-1.095775 -0.39463,-1.417781 -0.16546,-0.258842 0.0854,-0.388344 0.36842,-0.190145 0.48546,0.340029 0.61328,1.648681 0.24086,2.466046 -0.1049,0.230229 -0.0545,0.333208 0.38111,0.778425 0.47368,0.484153 1.52268,2.431819 1.52268,2.827148 0,0.09359 -0.12551,0.431431 -0.27892,0.750746 -0.72868,1.516763 -0.72698,3.8443282 0.005,6.5189992 0.0973,0.355717 0.21918,0.805509 0.2708,0.999537 0.10013,0.376378 0.20167,0.679151 0.35493,1.058333 0.0523,0.129352 0.16265,0.420394 0.24525,0.64676 0.21308,0.583943 0.72552,1.717914 1.51448,3.351389 0.37487,0.776111 0.76062,1.596319 0.85723,1.822685 0.51037,1.195795 1.17928,3.501978 1.37918,4.754958 0.1736,1.088152 -0.38214,4.222183 -1.63821,9.238563 -0.27636,1.10368 -0.34516,1.3958 -0.457,1.94028 -0.32767,1.59527 -0.39714,1.90836 -0.49763,2.2426 -0.0597,0.19862 -0.10857,0.45945 -0.10857,0.57962 0,0.12017 -0.0493,0.38099 -0.10963,0.57961 -0.0603,0.19862 -0.16612,0.58602 -0.23518,0.8609 -0.0691,0.27487 -0.18218,0.72466 -0.25137,0.99953 -0.27019,1.07331 -0.61889,2.04423 -0.85521,2.38125 -0.43174,0.61573 -1.17928,1.11713 -1.66551,1.11713 -0.1855,0 -0.28983,0.0878 -0.33949,0.28569 -0.0572,0.22769 -0.20892,0.32487 -0.74771,0.47876 -1.21275,0.34638 -1.64716,0.78098 -3.1301,3.1315 -0.47244,0.74883 -0.0622,0.40822 0.80112,-0.66515 0.49883,-0.62019 0.96899,-1.10721 1.04479,-1.08226 0.44952,0.14791 -0.0269,0.94609 -1.58354,2.65284 -0.31443,0.34476 -0.57169,0.67549 -0.57169,0.73495 0,0.17738 0.33307,0.12245 0.44242,-0.073 0.2157,-0.38544 2.40967,-2.63657 2.50949,-2.57488 0.28673,0.17721 0.0735,0.67701 -0.58702,1.37618 -0.91133,0.96462 -1.35043,1.49827 -1.22882,1.49345 0.0543,-0.002 0.20564,-0.0948 0.33641,-0.20579 z m -5.89267,-57.5485032 c -0.44546,-0.86143 -0.30304,-2.834007 0.25226,-3.493951 0.31828,-0.378254 1.51365,-1.009764 1.69694,-0.896486 0.18658,0.115316 0.13983,0.476085 -0.0867,0.66857 -0.11318,0.0962 -0.40121,0.2642 -0.64007,0.373344 -0.85245,0.389529 -1.24658,1.258534 -1.02652,2.263306 0.22535,1.028879 0.25073,1.311529 0.12474,1.389394 -0.0681,0.04209 -0.21242,-0.09479 -0.3207,-0.304177 z m 9.88177,-0.868965 c -0.30405,-0.833659 -0.5844,-1.235318 -1.20476,-1.72608 -0.29519,-0.233524 -0.33074,-0.471112 -0.0992,-0.663248 0.12409,-0.102985 0.2784,-0.02763 0.69582,0.339802 0.40456,0.356108 0.6123,0.670841 0.84535,1.280724 0.41309,1.081023 0.50599,1.658007 0.26698,1.658007 -0.11695,0 -0.29326,-0.310971 -0.50416,-0.889205 z m 9.69806,57.5226782 c -0.0269,-0.0254 -0.25644,-0.16183 -0.50998,-0.30321 -0.36284,-0.20233 -0.72583,-0.2705 -1.70509,-0.32022 -0.70961,-0.036 -1.42093,-0.0114 -1.65568,0.0574 -0.34975,0.10247 -0.23137,0.12218 0.78801,0.13119 1.03824,0.009 2.41155,0.23116 2.60077,0.42038 0.0333,0.0333 0.16643,0.0606 0.29578,0.0606 0.12936,0 0.21314,-0.0208 0.18619,-0.0462 z m 94.81703,-0.59202 c 0.0475,-0.0694 0.0872,-0.38101 0.0882,-0.69247 0.002,-0.57162 0.15635,-1.0212 0.351,-1.0212 0.0582,0 0.0982,0.39467 0.089,0.87705 -0.0181,0.94721 0.0506,1.12406 0.36122,0.92961 0.27588,-0.1727 0.31465,-0.78917 0.0728,-1.15823 -0.16074,-0.24531 -0.17415,-0.3621 -0.0683,-0.59445 0.25049,-0.54976 0.62067,-0.2728 0.69698,0.52144 0.0565,0.58765 0.17582,0.76204 0.30002,0.43838 0.0342,-0.0892 0.0167,-0.36406 -0.039,-0.61087 -0.1115,-0.49435 -0.0697,-0.63812 0.18528,-0.63812 0.0958,0 0.17175,0.11506 0.17475,0.26458 0.003,0.14552 0.0738,0.42334 0.15746,0.61737 l 0.15216,0.35277 0.0859,-0.26552 c 0.0473,-0.14604 0.0208,-0.55647 -0.0587,-0.91207 -0.0796,-0.3556 -0.11102,-0.68021 -0.0699,-0.72137 0.11958,-0.11958 0.43329,0.20148 0.43329,0.44345 0,0.12144 0.0794,0.22079 0.17639,0.22079 0.19657,0 0.24273,-0.41549 0.0588,-0.52917 -0.0647,-0.04 -0.11877,-0.16215 -0.12021,-0.27152 -10e-4,-0.10937 -0.1061,-0.33114 -0.23257,-0.49283 -0.18568,-0.23738 -0.23115,-0.48643 -0.23613,-1.29352 -0.006,-0.95272 -0.13646,-1.57818 -0.77333,-3.70416 -0.11844,-0.39537 -0.21093,-1.53167 -0.28237,-3.46898 -0.14857,-4.02938 -0.20589,-4.79554 -0.41012,-5.48129 -0.4547,-1.526815 -1.53106,-1.92167 -3.45139,-1.26612 -0.49648,0.16948 -1.06143,0.3501 -1.25546,0.40138 -0.19403,0.0513 -0.64382,0.1696 -0.99954,0.26292 -2.53176,0.66422 -5.57921,0.74146 -8.58425,0.21756 -0.35572,-0.062 -0.99072,-0.17204 -1.41112,-0.2445 -0.42039,-0.0725 -1.05539,-0.18226 -1.41111,-0.24402 -2.0166,-0.35009 -7.48849,-0.42737 -7.99725,-0.11294 -0.12414,0.0767 -0.11558,0.17096 0.0444,0.48822 0.66982,1.32864 1.93326,3.29837 2.81727,4.39219 l 0.47592,0.58887 1.00693,-0.31649 c 1.48484,-0.46668 2.07774,-0.60134 4.01911,-0.91283 0.99415,-0.1595 4.29849,-0.16205 5.02025,-0.004 0.30351,0.0665 0.81642,0.17604 1.1398,0.24337 0.32338,0.0673 0.6938,0.16662 0.82315,0.22063 0.12935,0.054 0.68172,0.27196 1.22748,0.48433 2.15822,0.83983 4.07697,2.77352 5.29826,5.33952 0.57724,1.2128 0.62707,1.33724 0.82403,2.05787 0.0795,0.29104 0.18586,0.66146 0.23624,0.82315 0.1167,0.37452 0.31349,1.41703 0.41064,2.17546 0.0414,0.32338 0.10053,0.69432 0.13134,0.8243 0.0309,0.13054 -0.0387,0.34379 -0.15543,0.47636 -0.67566,0.76697 -0.66649,1.34121 0.0237,1.48721 0.28098,0.0594 0.55563,-0.0189 0.67435,-0.19225 z m -120.79519,-0.36136 c 0,-0.0323 -0.0265,-0.0588 -0.0588,-0.0588 -0.0323,0 -0.0588,0.0265 -0.0588,0.0588 0,0.0323 0.0265,0.0588 0.0588,0.0588 0.0323,0 0.0588,-0.0265 0.0588,-0.0588 z m 21.31366,-1.94646 c 0.24253,-0.0674 0.44097,-0.16549 0.44097,-0.21808 0,-0.0526 -0.29602,-0.12616 -0.65782,-0.1635 -0.40815,-0.0421 -0.71083,-0.1404 -0.79749,-0.25892 -0.12224,-0.16718 -0.17872,-0.1314 -0.45241,0.28663 l -0.31272,0.47765 0.66925,-6.6e-4 c 0.36808,-3.6e-4 0.86768,-0.0558 1.11022,-0.12312 z m 3.57626,-1.40516 c 1.29141,-0.33924 2.32282,-0.75103 4.56703,-1.82338 3.59066,-1.71573 4.94419,-2.13851 8.11389,-2.53441 1.34476,-0.16796 5.82977,-0.49794 8.23148,-0.60562 0.47179,-0.0211 1.35564,0.12754 2.23426,0.37586 1.7655,0.499 3.98975,0.61484 5.76705,0.30037 2.38237,-0.42153 3.75423,-1.22211 5.46683,-3.19029 0.41975,-0.4824 1.05454,-1.4208 1.05454,-1.55892 0,-0.0638 0.0423,-0.13364 0.094,-0.1552 0.0915,-0.0381 0.66614,-1.20351 0.95057,-1.92767 0.0777,-0.19787 0.31103,-0.45708 0.51849,-0.57602 0.50686,-0.2906 4.94771,-3.253501 5.0221,-3.35071 0.0323,-0.04226 0.40134,-0.312164 0.82001,-0.599795 0.41866,-0.287631 0.84199,-0.585931 0.94074,-0.662889 0.43187,-0.336595 2.11181,-1.551355 2.64897,-1.915458 0.32338,-0.219197 0.61442,-0.431041 0.64676,-0.470764 0.0323,-0.03972 0.244,-0.200223 0.47037,-0.356668 0.22637,-0.156445 0.4823,-0.353134 0.56874,-0.437086 0.0864,-0.08395 0.35099,-0.297361 0.58787,-0.474241 0.23688,-0.17688 0.53658,-0.418494 0.66598,-0.53692 0.49996,-0.457545 2.96888,-2.406921 3.52787,-2.785493 0.32338,-0.219005 0.65789,-0.466852 0.74336,-0.550772 0.0855,-0.08392 0.20074,-0.152582 0.25618,-0.152582 0.0554,0 0.17277,-0.06615 0.26073,-0.146991 0.1692,-0.155504 0.45931,-0.332162 1.18089,-0.7191 0.32567,-0.174637 0.47668,-0.202462 0.57347,-0.105668 0.16523,0.165226 0.0325,0.736574 -0.17113,0.736574 -0.41805,0 -0.41766,0.271218 0.002,1.104356 0.38567,0.766427 1.19937,2.058134 1.49939,2.380212 0.0682,0.07325 0.30778,0.36429 0.53233,0.646759 0.83213,1.046787 3.12258,3.389844 4.238,4.33534 0.41964,0.355717 0.78944,0.675726 0.82178,0.711131 0.0323,0.0354 0.61442,0.507445 1.29352,1.048985 1.98391,1.58203 6.93796,6.68902 6.93796,7.15214 0,0.0675 0.0455,0.14041 0.10109,0.16197 0.18318,0.071 1.72691,2.48799 2.27926,3.56855 0.29799,0.58295 0.67496,1.45533 0.83771,1.93863 l 0.2959,0.87872 0.36363,0.0942 c 0.36821,0.0954 1.43605,-0.025 2.29602,-0.25891 1.45247,-0.39507 2.13164,-0.46247 3.32524,-0.33001 0.99998,0.11098 1.38786,0.0998 2.51511,-0.0728 2.57374,-0.39402 2.56793,-0.39353 2.70397,-0.22962 0.0702,0.0845 0.21366,0.15207 0.31893,0.15011 0.16783,-0.003 0.16606,-0.0183 -0.0144,-0.12344 -0.11319,-0.0659 -0.20579,-0.25614 -0.20579,-0.4227 v -0.30284 l 0.34756,0.0695 c 0.27532,0.0551 0.33369,0.0334 0.28082,-0.10439 -0.0923,-0.2405 0.18623,-0.55957 0.36148,-0.41412 0.0966,0.0801 0.13433,0.0234 0.13139,-0.19741 -0.003,-0.22386 0.0683,-0.32813 0.25694,-0.3756 0.19225,-0.0484 0.23315,-0.11054 0.15519,-0.23578 -0.0637,-0.10229 -0.0606,-0.25458 0.008,-0.38218 l 0.11353,-0.21212 -0.6803,-0.002 c -0.76823,-0.002 -1.67367,-0.19423 -3.38492,-0.71879 -1.51615,-0.46474 -3.93084,-1.25989 -4.23334,-1.39401 -0.12935,-0.0574 -0.57914,-0.21609 -0.99953,-0.35274 -0.4204,-0.13665 -0.85624,-0.29887 -0.96855,-0.3605 -0.1123,-0.0616 -0.26069,-0.11203 -0.32975,-0.11203 -0.0691,0 -0.57806,-0.43657 -1.13111,-0.97014 -1.57933,-1.52373 -2.71642,-3.13743 -4.3295,-6.14422 -0.24288,-0.45273 -0.56774,-1.04804 -0.7219,-1.322912 -0.15417,-0.274873 -0.41929,-0.751123 -0.58917,-1.058334 -0.61816,-1.117914 -1.60785,-2.722479 -2.01319,-3.263955 -0.0487,-0.06509 -0.32393,-0.46197 -0.61156,-0.881945 -0.28763,-0.419975 -0.55235,-0.790049 -0.58826,-0.822387 -0.0359,-0.03234 -0.30315,-0.376296 -0.59387,-0.764352 -0.29071,-0.388055 -0.55742,-0.732014 -0.59269,-0.764352 -0.0353,-0.03234 -0.31985,-0.376296 -0.6324,-0.764352 -1.77716,-2.206448 -5.91347,-6.408796 -6.30809,-6.408796 -0.16982,0 -0.22838,-0.08244 -0.2297,-0.32338 -0.003,-0.500891 -0.27767,-1.174707 -0.62887,-1.541283 -0.33514,-0.349809 -0.99082,-0.613456 -1.33903,-0.538419 -1.2665,0.272925 -1.93783,0.451802 -2.38125,0.63449 -0.29104,0.119907 -1.13771,0.38484 -1.88148,0.588739 -2.01029,0.551103 -5.12431,1.516346 -5.70324,1.767816 -0.12936,0.05619 -0.57915,0.214936 -0.99954,0.352778 -0.42039,0.137841 -0.87019,0.294906 -0.99954,0.349032 -0.12935,0.05412 -0.55268,0.214561 -0.94074,0.356523 -0.38805,0.141962 -0.81139,0.300213 -0.94074,0.351668 -0.12935,0.05146 -1.39935,0.556165 -2.82222,1.121578 -1.42287,0.565413 -2.931,1.184896 -3.35139,1.37663 -0.42039,0.191733 -0.98925,0.449156 -1.26412,0.57205 -0.90011,0.402437 -1.6158,0.748311 -1.6757,0.809821 -0.0323,0.03321 -0.34983,0.21243 -0.70555,0.398265 -0.67496,0.352614 -0.77555,0.407512 -2.88102,1.572245 -0.71143,0.393563 -1.82268,0.971454 -2.46944,1.284202 -0.64676,0.312749 -1.20239,0.595092 -1.23473,0.62743 -0.0323,0.03234 -0.28369,0.177859 -0.55856,0.32338 -1.15349,0.610673 -1.42737,0.780765 -2.32289,1.442658 -1.0163,0.751156 -1.22951,0.872022 -2.45008,1.388939 l -0.80423,0.340591 -0.86993,-0.16426 c -0.47846,-0.09034 -1.47322,-0.372285 -2.21059,-0.626538 -1.36065,-0.469172 -2.50243,-0.788196 -3.7777,-1.055527 -0.38805,-0.08135 -1.06384,-0.255296 -1.50175,-0.386553 -0.43792,-0.131258 -0.81059,-0.217705 -0.82817,-0.192105 -0.0176,0.0256 -0.15786,0.29942 -0.31175,0.608488 -0.26671,0.535657 -1.15753,1.676247 -2.2592,2.892632 -0.27961,0.308729 -0.74651,0.843895 -1.03755,1.189265 -0.29104,0.34537 -0.58409,0.68533 -0.65121,0.75548 -0.13643,0.14257 -2.38677,2.93916 -2.93537,3.6479 -0.19403,0.25066 -0.46261,0.593 -0.59685,0.76075 -0.13425,0.16774 -0.42277,0.56958 -0.64117,0.89296 -0.2184,0.32338 -0.46057,0.6527 -0.53816,0.73183 -0.0776,0.0791 -0.26215,0.34371 -0.41015,0.58796 -0.61968,1.02267 -2.41087,3.2468 -3.24254,4.02626 -1.45373,1.36248 -2.39104,1.88665 -2.39104,1.33713 0,-0.1078 -0.0277,-0.16825 -0.0616,-0.13435 -0.0551,0.0551 -0.52631,1.65967 -0.52631,1.79231 0,0.10295 1.12473,0.15787 2.37093,0.11577 0.75765,-0.0256 1.61853,-0.13816 2.17547,-0.28446 z m -11.53728,-0.10595 c 0.0614,-0.0584 0.21754,-0.13163 0.3469,-0.16274 0.12935,-0.0311 -0.0956,-0.0627 -0.49977,-0.0702 -0.67722,-0.0126 -0.85806,0.0592 -0.65656,0.26075 0.11497,0.11497 0.67963,0.0956 0.80943,-0.0278 z m 2.69277,-1.33346 c 0.61611,-0.40386 0.98499,-1.08833 1.37888,-2.55851 0.0606,-0.22636 0.16097,-0.59678 0.22293,-0.82314 0.1875,-0.68495 0.69769,-2.94146 0.93055,-4.11575 0.20172,-1.01719 0.24897,-1.2377 0.3528,-1.64629 0.0575,-0.22637 0.16418,-0.67616 0.23702,-0.99954 0.0729,-0.32338 0.17951,-0.77317 0.23703,-0.99954 0.14579,-0.57373 0.54437,-2.28292 0.71299,-3.057404 0.0774,-0.355717 0.18498,-0.828992 0.23897,-1.051721 0.054,-0.222729 0.0806,-0.422569 0.059,-0.444089 -0.0215,-0.02152 -0.26953,0.266546 -0.55113,0.640147 -0.2816,0.373601 -0.61974,0.787437 -0.75143,0.919636 -0.35465,0.356021 -1.52389,1.123641 -2.59129,1.701221 -0.51741,0.27997 -1.09949,0.59747 -1.29352,0.70556 -0.91444,0.50938 -2.18033,0.71706 -3.48261,0.57137 -1.18743,-0.13285 -3.19697,-0.62069 -3.25334,-0.78978 -0.0245,-0.0736 -0.28171,0.18169 -0.57153,0.56723 -0.54415,0.72389 -1.5119,1.64895 -1.72505,1.64895 -0.15121,0 -0.55127,0.35457 -0.55127,0.48859 0,0.0547 0.10917,0.0994 0.2426,0.0994 0.43638,0 1.72187,0.70756 2.3092,1.27103 0.92425,0.88671 1.71235,2.20311 2.86468,4.78499 0.14433,0.32338 0.41612,0.93192 0.60399,1.35231 0.18787,0.4204 0.50756,1.04012 0.71042,1.37717 l 0.36885,0.61281 0.88925,0.0451 c 1.31443,0.0666 1.97926,-0.016 2.41198,-0.29967 z m 95.98114,0.18532 c -0.0431,-0.0431 -0.11368,-0.0431 -0.15679,0 -0.0431,0.0431 -0.008,0.0784 0.0784,0.0784 0.0862,0 0.12151,-0.0353 0.0784,-0.0784 z m -0.31358,-0.21559 c 0,-0.0323 -0.0265,-0.0588 -0.0588,-0.0588 -0.0323,0 -0.0588,0.0265 -0.0588,0.0588 0,0.0323 0.0265,0.0588 0.0588,0.0588 0.0323,0 0.0588,-0.0265 0.0588,-0.0588 z m 0.86567,-0.35277 c -0.0372,-0.097 -0.15152,-0.17639 -0.25397,-0.17639 -0.15092,0 -0.14295,0.0328 0.042,0.17265 0.28732,0.21732 0.29399,0.21744 0.21199,0.004 z m -90.96279,-0.43732 c 1.3828,-0.95107 3.23513,-3.03276 4.84267,-5.44231 0.34519,-0.51741 0.65872,-0.9672 0.69673,-0.99954 0.038,-0.0323 0.33802,-0.43187 0.66668,-0.88786 0.32866,-0.45598 0.6826,-0.93223 0.78654,-1.05833 0.10395,-0.1261 0.70009,-0.86427 1.32478,-1.64038 0.62469,-0.77612 1.30224,-1.59803 1.50567,-1.82648 0.20343,-0.22845 0.66092,-0.75715 1.01664,-1.174887 0.35572,-0.417741 0.79868,-0.918744 0.98436,-1.113342 0.18568,-0.194598 0.68834,-0.801633 1.11702,-1.348966 l 0.77943,-0.995152 -0.025,-0.570859 c -0.054,-1.23115 -1.46166,-6.191496 -2.29324,-8.080967 -0.3034,-0.689385 -1.68794,-3.484924 -1.95102,-3.939352 -0.60553,-1.045945 -1.14652,-1.937907 -1.67595,-2.763242 -0.65993,-1.028771 -0.84097,-1.637363 -1.04947,-3.5279622 -0.17599,-1.59587 -0.36891,-2.449166 -0.74442,-3.292593 -0.19143,-0.42997 -0.5677,-0.963175 -0.63335,-0.897518 -0.0539,0.05389 0.12003,0.682924 0.32944,1.1915 0.1671,0.40584 0.17857,1.264803 0.0176,1.320775 -0.1566,0.05446 -0.15849,0.05013 -0.37186,-0.850405 -0.19388,-0.818284 -0.57836,-1.636044 -0.84856,-1.804782 l -0.22742,-0.142031 0.28232,0.561833 c 0.36009,0.716609 0.51937,1.854883 0.27279,1.949505 -0.12743,0.0489 -0.19051,-0.0655 -0.24819,-0.450086 -0.15111,-1.007739 -0.59318,-1.552351 -1.76956,-2.180056 -0.38805,-0.207063 -0.83543,-0.446784 -0.99417,-0.532714 -0.41548,-0.224918 -0.45122,-0.09605 -0.0653,0.235555 0.33062,0.284095 0.45784,0.355688 1.24208,0.699002 0.75863,0.332105 1.01196,0.77227 1.1723,2.036923 0.0755,0.595166 0.0753,0.948346 -5.4e-4,1.024159 -0.16977,0.169768 -0.20488,0.0951 -0.40371,-0.858482 -0.20599,-0.98793 -0.38839,-1.243233 -1.11115,-1.555213 -0.2823,-0.121857 -0.66088,-0.326666 -0.8413,-0.455132 -0.18041,-0.128465 -0.38821,-0.233573 -0.46178,-0.233573 -0.0736,0 -0.24735,-0.105834 -0.38619,-0.235186 -0.29188,-0.271928 -0.70394,-0.32081 -0.60854,-0.07219 0.0344,0.08965 0.55396,0.50894 1.15458,0.93176 1.36479,0.960786 1.50021,1.205697 1.47079,2.659906 -0.018,0.88938 0.017,1.1100162 0.23064,1.4557602 0.21042,0.340466 0.2425,0.786801 0.0566,0.786801 -0.0274,0 -0.40535,-0.296156 -0.83996,-0.658124 -1.23153,-1.0256722 -1.90734,-1.4596112 -1.90734,-1.2246962 0,0.322524 1.23043,1.9027742 2.05887,2.6442292 1.06165,0.950173 2.3915,2.556692 2.76416,3.339231 0.14255,0.299347 0.30631,0.636153 0.36391,0.748459 0.0576,0.112305 0.10472,0.307619 0.10472,0.434032 0,0.126412 0.0468,0.258774 0.10404,0.294138 0.0572,0.03536 0.13224,0.210465 0.16671,0.389116 0.0345,0.17865 0.11629,0.510027 0.18182,0.736393 0.36079,1.246269 0.70231,2.585526 0.94457,3.704166 0.07,0.32338 0.29022,1.328797 0.48932,2.23426 0.19909,0.905463 0.40822,1.963796 0.46473,2.351852 0.0565,0.388055 0.13852,0.823268 0.18223,0.96714 0.15593,0.5132 -1.03111,2.174388 -2.67129,3.738293 -0.54165,0.516456 -1.13079,1.053803 -1.30921,1.194104 -0.25713,0.202201 -0.38443,0.486102 -0.61396,1.369207 -0.41696,1.60428 -1.05878,3.52861 -1.6742,5.01968 -0.16594,0.40205 -0.70925,1.67384 -1.01728,2.38125 -0.0915,0.2102 -0.36093,0.88489 -0.59867,1.49931 -0.23775,0.61442 -0.47821,1.22296 -0.53437,1.35231 -0.14024,0.32305 -0.58203,1.72131 -0.58203,1.84211 0,0.16077 0.10632,0.11722 0.68437,-0.28035 z m 91.82181,0.0649 c -0.0431,-0.0431 -0.11368,-0.0431 -0.15679,0 -0.0431,0.0431 -0.008,0.0784 0.0784,0.0784 0.0862,0 0.12151,-0.0353 0.0784,-0.0784 z m -0.58797,-0.47037 c -0.0431,-0.0431 -0.11367,-0.0431 -0.15679,0 -0.0431,0.0431 -0.008,0.0784 0.0784,0.0784 0.0862,0 0.12152,-0.0353 0.0784,-0.0784 z m 0.68877,-0.85348 c -0.0611,-0.1925 -0.17513,-0.24405 -0.5399,-0.24405 -0.25435,0 -0.46245,0.0413 -0.46245,0.0918 0,0.0886 0.95804,0.47878 1.03968,0.42347 0.0221,-0.015 0.005,-0.13702 -0.0373,-0.27124 z m -30.96485,-0.95927 c 0.34274,-0.07 0.94065,-0.23769 1.32871,-0.37267 0.38805,-0.13498 1.3141,-0.31383 2.05787,-0.39744 1.5945,-0.17924 2.97077,-0.42711 3.46898,-0.62477 0.12935,-0.0513 0.6056,-0.21186 1.05833,-0.35676 0.45273,-0.14491 1.14065,-0.41308 1.52871,-0.59594 0.8108,-0.38207 2.10978,-0.81776 2.43807,-0.81776 h 0.22377 l -0.26181,-0.36768 c -0.3945,-0.55403 -3.31652,-3.47119 -4.50148,-4.49399 -1.24566,-1.0752 -1.12497,-1.05845 -3.78721,-0.52556 -1.50365,0.30099 -2.16197,0.37495 -3.34236,0.37551 -1.58028,7.5e-4 -2.17252,-0.14837 -3.40584,-0.85756 -0.29343,-0.16873 -0.69226,-0.38399 -0.88629,-0.47835 -0.19403,-0.0944 -0.57398,-0.3187 -0.84434,-0.49854 -0.27035,-0.17984 -0.52234,-0.32698 -0.55997,-0.32698 -0.0376,0 -0.42497,-0.230661 -0.86076,-0.512586 -1.84891,-1.19612 -3.40596,-2.169682 -3.77495,-2.360333 l -0.39558,-0.204385 -0.78035,0.548576 c -0.42919,0.301716 -1.23014,0.864623 -1.77988,1.250903 -0.54975,0.38628 -1.13183,0.802769 -1.29352,0.925532 -0.62022,0.470903 -1.6579,1.197913 -3.54776,2.485613 -1.4786,1.00748 -1.92645,1.3685 -1.82268,1.46929 0.0757,0.0735 0.45507,0.29189 0.84312,0.48532 0.65728,0.32762 0.88038,0.427 1.6463,0.73337 0.16169,0.0647 0.41304,0.16785 0.55856,0.22926 0.14552,0.0614 0.50271,0.19023 0.79375,0.28623 1.10297,0.36384 5.61491,2.08081 6.52639,2.48354 0.19403,0.0857 1.12007,0.45622 2.05787,0.8233 1.9949,0.78086 2.22481,0.8741 2.49725,1.01269 0.1123,0.0571 0.30762,0.10387 0.43403,0.10387 0.12641,0 0.25736,0.0445 0.291,0.099 0.0336,0.0544 0.47332,0.19148 0.97708,0.30458 0.50375,0.11309 0.96884,0.22314 1.03351,0.24454 0.27081,0.0896 1.50326,0.0483 2.08148,-0.0698 z m 28.48422,-0.96691 c 0.42309,-0.4033 0.65514,-0.71999 0.65514,-0.89413 v -0.26965 l -0.49977,0.0577 c -0.27488,0.0317 -0.71144,0.11994 -0.97014,0.19605 -1.56272,0.45972 -2.43399,0.5495 -3.51421,0.36212 -0.4602,-0.0798 -0.94255,-0.18548 -1.0719,-0.23477 -0.12935,-0.0493 -0.44685,-0.15273 -0.70556,-0.22986 -0.65806,-0.1962 -3.32383,-1.54493 -3.64877,-1.84607 -0.16287,-0.15095 -0.32757,-0.21276 -0.418,-0.15687 -0.17677,0.10925 0.71446,0.9761 1.18575,1.15332 0.16169,0.0608 0.61148,0.22591 0.99954,0.36692 0.38806,0.141 0.79744,0.30506 0.90975,0.36456 0.1123,0.0595 0.30016,0.1082 0.41745,0.1082 0.1173,0 0.26353,0.0421 0.32498,0.0936 0.0614,0.0515 0.32338,0.1608 0.58208,0.24295 0.2587,0.0822 0.5762,0.19185 0.70556,0.24377 0.22774,0.0914 0.7981,0.26954 2.64583,0.82635 0.48507,0.14617 0.98778,0.30621 1.11713,0.35564 0.30906,0.11811 0.50111,0.008 1.28514,-0.7398 z m -104.04341,-7.28427 c 1.47443,-1.54093 2.40282,-3.908351 2.04036,-5.202945 -0.16981,-0.60648 -0.50296,-0.944752 -1.02909,-1.044904 -0.21019,-0.04001 -0.53942,-0.104994 -0.73161,-0.144403 -0.29665,-0.06083 -0.37056,-0.0253 -0.48925,0.235185 -0.18801,0.412651 -0.40585,0.386434 -0.62599,-0.07534 -0.20612,-0.432374 -0.83909,-1.146528 -1.0162,-1.146528 -0.0644,0 -0.20724,0.157921 -0.31742,0.350937 -0.11017,0.193015 -0.27356,0.379288 -0.36309,0.413941 -0.28382,0.109856 -0.95628,-0.07839 -1.07545,-0.301056 -0.1376,-0.2571 0.0716,-0.442806 0.27245,-0.241909 0.14635,0.146342 0.67325,0.179941 0.66918,0.04267 -10e-4,-0.04851 -0.10609,-0.220486 -0.23257,-0.382176 -0.12648,-0.16169 -0.23113,-0.392322 -0.23257,-0.512516 -0.003,-0.275166 -0.34023,-0.204865 -1.37174,0.28621 -0.3973,0.189144 -0.78157,0.343899 -0.85394,0.343899 -0.0871,0 -0.10677,0.155041 -0.0583,0.458308 0.0759,0.474883 -0.12437,1.305581 -0.31481,1.305581 -0.0597,0 -0.10847,-0.213529 -0.10847,-0.474508 0,-0.588527 -0.25726,-0.997891 -0.73087,-1.16299 -0.53237,-0.185587 -0.56265,-0.168417 -0.56265,0.319023 0,0.323434 0.0953,0.556911 0.348,0.852546 0.38623,0.451865 0.44972,0.701114 0.1786,0.701114 -0.23357,0 -1.11457,-1.365455 -1.11457,-1.727461 0,-0.240278 -0.0322,-0.26266 -0.22745,-0.158158 -0.1251,0.06695 -0.31597,0.12173 -0.42416,0.12173 -0.26727,0 -1.66941,0.668674 -2.14341,1.022182 -0.43143,0.321752 -0.4177,0.446061 0.0598,0.541564 0.77695,0.15539 2.15386,1.666439 2.75404,3.022332 0.0859,0.194046 0.19617,0.352811 0.24505,0.352811 0.0489,0 0.0889,0.06691 0.0889,0.148688 0,0.0818 0.25832,0.46795 0.57404,0.85815 1.34661,1.66425 3.29961,1.99501 5.4937,0.93043 0.32983,-0.16003 0.6341,-0.29097 0.67616,-0.29097 0.11417,0 0.0889,0.50389 -0.0352,0.69994 -0.11004,0.17395 -0.0616,0.35839 0.0941,0.35839 0.0474,0 0.30136,-0.22489 0.56437,-0.49977 z m 78.35781,-0.90889 c 0.61442,-0.13241 1.40216,-0.29136 1.75053,-0.35322 0.34837,-0.0619 0.65895,-0.13803 0.69016,-0.16924 0.0629,-0.0629 -0.0736,-0.20537 -0.65923,-0.68842 l -0.39401,-0.324993 -2.31062,0.02532 c -3.59768,0.03943 -4.43088,-0.104103 -6.42637,-1.107068 -1.59238,-0.800353 -2.69793,-1.667935 -3.36976,-2.64441 -0.19014,-0.276353 -0.3939,-0.502461 -0.4528,-0.502461 -0.13297,0 -1.41059,0.947967 -1.40957,1.045865 4.1e-4,0.0392 0.14593,0.1567 0.32338,0.26112 0.17745,0.10442 1.26544,0.805565 2.41775,1.558101 1.15231,0.752537 2.14008,1.368248 2.19506,1.368248 0.055,0 0.11759,0.04536 0.13915,0.100803 0.0616,0.15838 2.67855,1.42099 3.33179,1.60748 0.77818,0.22218 2.69993,0.14063 4.17454,-0.17713 z m 29.69212,-0.94832 c 0.25871,-0.0728 0.68204,-0.18595 0.94075,-0.25146 0.2587,-0.0655 0.56225,-0.166869 0.67456,-0.225242 0.1123,-0.05837 0.30508,-0.106131 0.42839,-0.106131 0.12331,0 0.25683,-0.08504 0.29672,-0.188982 0.10759,-0.280386 -0.13503,-1.056636 -0.44169,-1.413152 l -0.26869,-0.312366 -0.70951,0.245541 c -1.30633,0.452083 -2.55568,0.735729 -3.97793,0.903129 -1.84768,0.217473 -2.93426,0.157238 -6.64398,-0.368313 -3.50844,-0.497034 -4.82742,-0.62766 -6.35,-0.628874 -1.66949,-0.0013 -3.40621,0.204696 -3.48636,0.413588 -0.0297,0.07729 0.0998,0.399297 0.28759,0.715577 l 0.34151,0.575056 0.39969,-0.05822 c 0.80097,-0.116667 4.55178,-0.05437 5.92655,0.09844 1.38123,0.153525 1.78411,0.201964 4.05694,0.48777 0.61442,0.0773 1.56692,0.18399 2.11667,0.23716 1.33542,0.12916 5.8178,0.0428 6.40879,-0.123521 z M -382.54945,31.6404 c 0,-0.03063 -0.2249,-0.285288 -0.49977,-0.565894 -1.16881,-1.193189 -2.41152,-2.569272 -3.26168,-3.611737 -0.2901,-0.355718 -0.55861,-0.673218 -0.59669,-0.705556 -0.21156,-0.179652 -1.11386,-1.641507 -1.36635,-2.213683 -0.16197,-0.367034 -0.31369,-0.687026 -0.33717,-0.711092 -0.0548,-0.05619 -1.38797,0.949349 -3.11798,2.351723 -0.74785,0.60622 -1.49843,1.20477 -1.66796,1.33011 l -0.30824,0.227891 0.22072,0.301276 c 1.10948,1.514466 3.51727,2.997698 5.64345,3.476442 0.61249,0.137913 5.29167,0.244484 5.29167,0.12052 z m -58.67737,-1.497431 c 0.85656,-0.82772 1.40977,-1.467706 1.40977,-1.630889 0,-0.05971 -0.10271,-0.10857 -0.22824,-0.10857 -0.12554,0 -0.26095,-0.05292 -0.30092,-0.117593 -0.04,-0.06468 -0.40503,-0.117593 -0.81123,-0.117593 h -0.73855 l -0.14855,0.852547 c -0.0817,0.4689 -0.19602,1.005963 -0.25404,1.193473 -0.058,0.18751 -0.10551,0.467184 -0.10551,0.621499 0,0.37347 0.18872,0.2624 1.17727,-0.692874 z m 68.697,-0.05196 c 0.0457,-0.0268 0.05,-0.139643 0.01,-0.250755 -0.13406,-0.369252 -3.70055,-5.481751 -4.03749,-5.787669 -0.0356,-0.03234 -0.193,-0.244005 -0.34974,-0.470371 -0.15674,-0.226366 -0.40554,-0.543325 -0.5529,-0.704354 -0.14736,-0.161029 -0.26792,-0.329228 -0.26792,-0.373776 0,-0.04455 -0.0669,-0.150922 -0.14856,-0.236387 -0.0817,-0.08546 -0.62195,-0.737474 -1.20053,-1.448909 -0.57859,-0.711435 -1.08092,-1.319977 -1.11629,-1.352315 -0.0354,-0.03234 -0.35504,-0.402202 -0.71035,-0.82192 -0.84836,-1.002129 -1.13882,-1.294746 -1.2852,-1.294746 -0.0664,0 -0.15616,-0.145521 -0.19949,-0.32338 -0.14735,-0.604851 -0.6128,-1.503914 -0.97453,-1.88243 -0.54774,-0.573156 -1.05766,-0.735102 -2.28751,-0.726485 l -1.07338,0.0075 0.41158,0.184915 c 0.22636,0.101704 0.53816,0.243579 0.69287,0.315278 0.3398,0.157474 0.73052,0.766025 0.95268,1.48384 0.12572,0.406192 0.36899,0.72046 1.04682,1.352315 2.49481,2.32562 5.1559,5.236936 6.71504,7.346475 0.16169,0.218769 0.40515,0.53385 0.54102,0.70018 0.31866,0.390102 2.38766,3.457432 2.72847,4.045026 l 0.26102,0.450015 0.38081,-0.08167 c 0.20944,-0.04492 0.41818,-0.103598 0.46386,-0.130401 z m -89.11324,-2.226283 c 0.11292,-0.294254 0.0848,-0.401956 -0.10501,-0.401956 -0.10975,0 -0.17639,0.111059 -0.17639,0.293981 0,0.32843 0.17155,0.394253 0.2814,0.107975 z m 22.5792,-0.313762 c 0.12984,-0.201313 0.14578,-0.391123 0.0666,-0.79375 -0.0572,-0.291041 -0.10632,-0.563803 -0.10914,-0.606136 -0.003,-0.04233 -0.28293,-0.235733 -0.62248,-0.429779 -0.73113,-0.417829 -1.25338,-0.828661 -1.9586,-1.540738 l -0.51809,-0.523135 0.0859,0.520959 c 0.0473,0.286527 0.13461,0.785542 0.1941,1.108922 0.0595,0.323379 0.14213,0.918692 0.18367,1.322916 l 0.0755,0.734954 0.36607,0.0052 c 0.41538,0.0059 1.42896,0.254146 1.5559,0.381088 0.16898,0.168978 0.51415,0.07743 0.6805,-0.180491 z m 33.99542,-6.784381 c 0.97014,-0.391295 1.86973,-0.759478 1.99908,-0.818184 0.12935,-0.05871 0.68498,-0.275573 1.23472,-0.481926 1.20882,-0.453744 1.38644,-0.522012 1.76389,-0.677954 0.16169,-0.0668 0.47919,-0.185056 0.70556,-0.262786 0.22636,-0.07773 0.5174,-0.185431 0.64675,-0.239335 0.12936,-0.0539 0.57915,-0.210787 0.99954,-0.348628 0.4204,-0.137842 0.87019,-0.296211 0.99954,-0.351931 0.40388,-0.17398 3.10204,-1.030242 4.78224,-1.51765 0.88398,-0.256433 1.7571,-0.540987 1.94028,-0.632341 0.29029,-0.144783 0.66586,-0.257086 1.62655,-0.486377 0.29263,-0.06984 -0.53779,0.0051 -1.70509,0.153831 -0.48507,0.06181 -1.33174,0.167965 -1.88148,0.235891 -2.36301,0.29197 -4.12667,0.627166 -6.46759,1.229214 -1.41092,0.362865 -4.48518,1.323251 -5.11528,1.597992 -0.12935,0.0564 -0.6056,0.24415 -1.05834,0.417221 -0.87672,0.335157 -1.29602,0.513187 -2.23425,0.948642 -0.92211,0.427971 -1.28185,0.561797 -1.44051,0.535878 -0.15561,-0.02542 -0.20266,0.244207 -0.0664,0.380467 0.13015,0.13015 0.38608,0.935548 0.38801,1.221012 l 0.002,0.262867 0.55856,-0.227229 c 0.30721,-0.124975 1.35231,-0.547379 2.32245,-0.938674 z m 17.72933,-6.080947 c -0.0796,-0.03221 -0.23837,-0.03417 -0.35278,-0.0044 -0.11442,0.02981 -0.0493,0.05617 0.14475,0.05857 0.19403,0.0024 0.28764,-0.022 0.20803,-0.05421 z M -458.0439,5.7081398 c 0,-0.130659 -0.0784,-0.235186 -0.17639,-0.235186 -0.17903,0 -0.24121,0.248756 -0.098,0.391976 0.14909,0.149083 0.27439,0.07748 0.27439,-0.15679 z m 14.2287,-1.234723 c -0.0805,-0.09701 -0.19931,-0.176389 -0.26398,-0.176389 -0.0656,0 -0.0529,0.078 0.0288,0.176389 0.0805,0.09701 0.1993,0.176389 0.26398,0.176389 0.0656,0 0.0529,-0.07799 -0.0288,-0.176389 z m -10.14906,-6.024382 c -0.0298,-0.114414 -0.0562,-0.04928 -0.0586,0.144753 -0.002,0.194027 0.022,0.287639 0.0542,0.208025 0.0322,-0.07961 0.0342,-0.238364 0.004,-0.352778 z m -0.19909,-0.678396 c 0,-0.03234 -0.0265,-0.0588 -0.0588,-0.0588 -0.0323,0 -0.0588,0.02646 -0.0588,0.0588 0,0.03234 0.0265,0.0588 0.0588,0.0588 0.0323,0 0.0588,-0.02646 0.0588,-0.0588 z"
       id="path11" /></g></svg>
