<?xml version="1.0" encoding="UTF-8" standalone="no"?>
<!-- Created with Inkscape (http://www.inkscape.org/) -->

<svg
   width="181.16806mm"
   height="124.59352mm"
   viewBox="0 0 181.16806 124.59352"
   version="1.1"
   id="svg1"
   xml:space="preserve"
   xmlns="http://www.w3.org/2000/svg"
   xmlns:svg="http://www.w3.org/2000/svg"><defs
     id="defs1" /><g
     id="layer1"
     transform="translate(-14.802774,-102.39294)"><path
       style="fill:#4d4d4d"
       d="m 94.20341,226.42852 c -0.441002,-0.41086 -0.676854,-0.4801 -0.894387,-0.26257 -0.353505,0.35351 -2.212748,0.39624 -2.423215,0.0557 -0.08149,-0.13186 -0.385966,-0.17756 -0.676605,-0.10156 -0.290639,0.076 -0.796536,-0.0354 -1.124216,-0.24756 -0.327679,-0.21217 -0.90627,-0.46215 -1.285757,-0.5555 -0.503832,-0.12395 -0.807199,-0.47669 -1.124479,-1.30747 -0.792771,-2.07584 -0.477064,-2.83983 1.173517,-2.83983 0.542128,0 1.118882,-0.17575 1.302397,-0.39688 0.181158,-0.21828 0.534631,-0.39687 0.785497,-0.39687 0.50483,0 1.898025,-0.63334 2.91867,-1.32682 0.363802,-0.24719 1.32972,-0.51573 2.146484,-0.59677 0.816764,-0.081 2.092728,-0.45529 2.835475,-0.83167 0.74275,-0.37638 1.6223,-0.68615 1.95456,-0.68838 0.810679,-0.005 1.051289,-0.21554 1.596289,-1.39398 0.52459,-1.13428 0.62789,-4.22994 0.20266,-6.07265 -0.14321,-0.62055 -0.31939,-1.43705 -0.39152,-1.81444 -0.0721,-0.37739 -0.41208,-0.9727 -0.75544,-1.32291 -0.821199,-0.83759 -2.561425,-3.45484 -2.561425,-3.85232 0,-0.17172 -0.09145,-0.3519 -0.203219,-0.40041 -0.11177,-0.0485 -0.613718,-0.74304 -1.115438,-1.5434 -0.501721,-0.80037 -1.105118,-1.6338 -1.340882,-1.85208 -0.235765,-0.21829 -0.635123,-0.9419 -0.887461,-1.60803 -0.252339,-0.66614 -0.76341,-1.55911 -1.135715,-1.98438 -0.757791,-0.8656 -2.601011,-3.71841 -3.345777,-5.17836 -0.268328,-0.526 -0.934742,-1.49714 -1.48092,-2.15809 -0.546179,-0.66095 -1.14955,-1.59774 -1.340824,-2.08175 -0.191274,-0.48401 -1.020391,-1.54699 -1.842482,-2.36218 -0.822091,-0.81518 -1.740662,-1.79483 -2.04127,-2.17699 -0.300607,-0.38216 -1.216092,-1.42954 -2.034411,-2.32752 -1.584525,-1.73876 -1.79857,-2.48351 -1.239662,-4.31329 0.136505,-0.4469 0.372739,-1.73329 0.524965,-2.85865 l 0.276775,-2.04611 -1.963136,-1.98878 c -1.079725,-1.09384 -2.061606,-1.98879 -2.181958,-1.98879 -0.120352,0 -0.45544,-0.32183 -0.744641,-0.71517 -1.242838,-1.69041 -2.67849,-3.2224 -3.041086,-3.24517 -0.07371,-0.005 -0.291421,0.49761 -0.483803,1.11607 -0.663771,2.13387 -1.552799,2.42991 -2.581661,0.85966 -0.391093,-0.59688 -0.384412,-0.69598 0.09302,-1.37975 0.590129,-0.84517 0.97471,-2.45647 0.586305,-2.45647 -0.141883,0 -0.257969,0.16198 -0.257969,0.35995 0,0.19797 -0.303376,0.807 -0.674169,1.3534 -0.370793,0.54639 -0.743591,1.34055 -0.82844,1.76479 -0.2858,1.42901 -2.22224,2.34814 -2.992284,1.42029 -0.179494,-0.21627 -0.277594,-0.81088 -0.218001,-1.32134 l 0.108352,-0.92811 -0.688769,0.65988 c -0.742637,0.71149 -2.049491,0.88417 -2.591273,0.34239 -0.466647,-0.46665 -0.386581,-1.45351 0.15012,-1.85031 0.479919,-0.35483 1.384464,-1.63862 1.384464,-1.96493 0,-0.10044 -0.20836,-0.006 -0.463021,0.20907 -0.716093,0.60577 -2.081543,0.58583 -2.517621,-0.0368 -0.531826,-0.75929 -0.267755,-2.11018 0.467111,-2.38958 0.327703,-0.12459 0.852793,-0.75736 1.166866,-1.40614 0.69201,-1.42951 1.303477,-2.16178 2.008123,-2.40488 0.516723,-0.17827 2.248958,-2.13089 2.248958,-2.53508 0,-0.11191 -0.51706,-0.14519 -1.149024,-0.074 -1.037777,0.11697 -1.236306,0.0416 -2.050521,-0.77849 -0.731146,-0.73642 -1.232239,-0.96702 -2.651794,-1.22035 -0.962663,-0.17179 -2.272351,-0.3163 -2.910417,-0.32113 -0.638065,-0.005 -2.291213,-0.249 -3.673661,-0.5426 -1.382448,-0.2936 -3.88276,-0.70339 -5.55625,-0.91064 -1.673489,-0.20725 -3.297369,-0.43827 -3.608621,-0.51339 -1.043756,-0.25189 -6.188661,0.62195 -6.980172,1.18555 -0.405727,0.28891 -0.840496,0.52528 -0.966153,0.52528 -0.125656,0 -0.66287,0.29519 -1.193809,0.65597 -0.931504,0.63297 -1.803328,1.94077 -1.803328,2.70511 0,0.56614 -0.772455,1.93335 -1.507752,2.66865 -0.363056,0.36305 -1.012809,1.23332 -1.443894,1.93392 -0.534135,0.86808 -1.068936,1.37694 -1.678993,1.59753 -0.747423,0.27028 -0.923388,0.49055 -1.065954,1.33439 -0.09391,0.55588 -0.09294,1.47128 0.0022,2.03422 0.194931,1.15379 -0.297697,5.32483 -0.674403,5.71011 -0.135168,0.13824 -0.245761,0.52775 -0.245761,0.86557 0,0.42291 -0.22662,0.70511 -0.727604,0.90607 -1.668281,0.66917 -1.941137,0.9012 -2.491274,2.11847 -0.317129,0.7017 -0.783179,1.34138 -1.035667,1.42152 -0.680616,0.21602 -0.796443,0.73814 -0.937626,4.2266 -0.103079,2.54695 -0.01875,3.72454 0.426335,5.95312 0.305158,1.52797 0.626171,3.13532 0.713363,3.57188 0.08719,0.43656 0.558417,1.42114 1.047168,2.18795 0.488751,0.76681 0.888638,1.47551 0.888638,1.5749 0,0.0994 0.366092,0.55842 0.813537,1.02006 0.447445,0.46165 0.960605,1.26715 1.140356,1.79001 0.17975,0.52286 0.706627,1.36804 1.170838,1.87817 0.464211,0.51013 0.84402,1.04975 0.84402,1.19915 0,0.1494 0.111039,0.27163 0.246753,0.27163 0.135715,0 0.330356,0.26789 0.432536,0.59531 0.10218,0.32743 0.259369,0.65485 0.349308,0.72761 0.184493,0.14925 2.225822,3.18463 2.375969,3.53297 0.0535,0.12412 0.499986,0.64036 0.992188,1.14719 0.492202,0.50684 0.894912,1.13506 0.894912,1.39607 0,0.261 0.47625,0.96529 1.058334,1.56508 0.582083,0.5998 1.058333,1.20947 1.058333,1.35482 0,0.14536 0.104867,0.26429 0.233038,0.26429 0.346754,0 1.568086,2.63885 1.714385,3.70416 0.06995,0.50932 0.230673,1.34276 0.357172,1.85208 l 0.229999,0.92605 3.759786,0.0734 3.759787,0.0734 v -1.58546 c 0,-1.36989 0.08094,-1.63038 0.595312,-1.91586 0.932414,-0.5175 14.752111,-0.85713 34.594272,-0.8502 15.569135,0.005 17.681289,0.0545 18.346088,0.42605 0.74361,0.41561 0.72873,0.42146 -1.455209,0.57205 -7.06739,0.4873 -45.998842,0.74965 -49.536924,0.33382 l -1.485206,-0.17455 v 2.38356 2.38356 h -4.72003 -4.720031 l -0.307053,-0.67391 c -0.168879,-0.37065 -0.307053,-1.66247 -0.307053,-2.87072 0,-2.39654 -0.169143,-2.75921 -2.480643,-5.31891 -1.424758,-1.57774 -1.488107,-1.66593 -1.488107,-2.07149 0,-0.20571 -0.565547,-0.95976 -1.256771,-1.67567 -0.691224,-0.7159 -1.494895,-1.773 -1.785937,-2.34911 -0.291042,-0.57612 -0.597022,-1.10701 -0.679956,-1.17977 -0.41688,-0.36574 -2.362753,-3.18915 -2.362753,-3.42829 0,-0.15173 -0.105496,-0.27588 -0.234436,-0.27588 -0.12894,0 -0.436828,-0.42651 -0.684195,-0.9478 -0.496135,-1.04552 -1.640684,-2.79896 -1.96814,-3.01517 -0.805373,-0.53175 -2.934062,-5.49977 -2.934062,-6.84763 0,-0.29439 -0.102687,-0.59872 -0.228194,-0.67629 -0.350576,-0.21666 -0.59649,-5.90795 -0.33251,-7.6954 0.128948,-0.87313 0.203591,-1.62232 0.165873,-1.66487 -0.03772,-0.0425 -0.499894,0.523 -1.027058,1.25677 -0.717761,0.99907 -1.126801,1.33414 -1.628683,1.33414 -0.819214,0 -1.091118,-0.60061 -0.680197,-1.50248 0.427557,-0.93839 0.188464,-1.46502 -0.941371,-2.07347 -1.119221,-0.60274 -1.940027,-1.79692 -1.941454,-2.82458 -5.44e-4,-0.3916 -0.120052,-0.78558 -0.265573,-0.87551 -0.145521,-0.0899 -0.264583,-0.63436 -0.264583,-1.20983 0,-1.02222 0.282114,-1.75732 1.033606,-2.69323 0.322686,-0.40188 0.309839,-0.57918 -0.09666,-1.334 -0.37153,-0.68989 -0.447917,-1.3306 -0.368123,-3.0877 0.0657,-1.44676 0.214206,-2.255 0.427391,-2.32606 0.179687,-0.0599 0.326704,-0.33008 0.326704,-0.60041 0,-0.27032 0.119062,-0.56508 0.264583,-0.65502 0.327537,-0.20243 0.358088,-6.39327 0.03254,-6.59447 -0.127622,-0.0789 -0.365604,-0.67384 -0.528849,-1.32214 -0.327507,-1.30065 -0.07005,-2.41944 0.689518,-2.99631 0.238682,-0.18127 0.452616,-0.53846 0.475409,-0.79375 0.02279,-0.25529 0.13093,-0.9741 0.240304,-1.59735 0.148721,-0.84746 0.09381,-1.29351 -0.217778,-1.76905 -0.961085,-1.46681 -1.506972,-2.61173 -1.390259,-2.91588 0.06853,-0.17859 0.611174,-0.40252 1.205871,-0.49761 0.9828,-0.15716 1.052575,-0.21885 0.766194,-0.67742 -0.372096,-0.59582 0.04338,-1.25123 1.031278,-1.62683 0.352347,-0.13396 0.606187,-0.45156 0.606187,-0.75845 0,-0.59808 1.541742,-2.90991 1.969161,-2.95273 0.766727,-0.0768 1.905192,0.10966 2.212738,0.36246 0.505675,0.41566 4.386789,0.57602 5.966161,0.2465 2.112417,-0.44072 6.577205,-1.11901 7.33497,-1.11432 0.975293,0.006 3.95931,-1.25084 4.756448,-2.00344 0.371765,-0.35099 0.818249,-0.63817 0.992187,-0.63817 0.173939,0 0.316252,-0.1055 0.316252,-0.23444 0,-0.12894 0.422304,-0.43483 0.938454,-0.67976 l 0.938454,-0.44532 -0.685777,-0.53943 c -0.518575,-0.40792 -0.860272,-0.4885 -1.401474,-0.33052 -0.393635,0.1149 -1.608668,0.20219 -2.700074,0.19399 -1.919445,-0.0144 -1.985655,0.006 -2.023493,0.62885 -0.05225,0.85987 -0.823866,1.67121 -1.589389,1.67121 -0.485426,0 -0.620451,-0.14395 -0.620451,-0.66145 0,-0.53012 -0.132053,-0.66146 -0.665049,-0.66146 -1.382679,0 -2.629584,-1.11881 -3.070556,-2.75512 -0.278241,-1.03247 -0.455008,-1.53416 -1.010266,-2.86728 -0.136375,-0.32742 -0.328653,-0.89297 -0.427285,-1.25677 -0.09863,-0.3638 -0.394864,-0.89958 -0.658294,-1.19062 -0.699293,-0.7726 -1.841467,-3.15696 -1.841467,-3.84419 0,-0.8388 0.569936,-2.6381 0.83563,-2.6381 0.122487,0 0.222703,-0.26948 0.222703,-0.59885 0,-0.79637 1.720663,-3.32137 2.50773,-3.67998 0.343388,-0.15646 1.069114,-0.93026 1.612723,-1.71956 0.54361,-0.78929 1.200285,-1.54849 1.459279,-1.6871 0.734709,-0.3932 3.246654,-0.30368 3.828553,0.13645 0.282475,0.21365 0.72195,0.39224 0.976611,0.39687 0.254662,0.005 0.463021,0.10278 0.463021,0.21812 0,0.27022 2.103185,0.87153 3.96875,1.13469 0.800365,0.1129 2.050521,0.28889 2.778125,0.39108 0.727604,0.1022 1.458438,0.29284 1.624075,0.42365 0.391632,0.30929 2.438269,0.002 3.213682,-0.48264 0.332433,-0.20774 1.028211,-0.96759 1.546173,-1.68855 0.517963,-0.72097 1.057589,-1.31085 1.199168,-1.31085 0.249982,0 1.84971,-1.11772 2.556114,-1.78594 0.192295,-0.1819 0.614967,-0.33073 0.939271,-0.33073 0.324303,0 0.702752,-0.095 0.840997,-0.2112 0.138245,-0.11616 0.887371,-0.42971 1.664724,-0.69677 1.110127,-0.38139 1.904869,-0.45633 3.704167,-0.34927 1.259938,0.075 2.647984,0.28427 3.084546,0.46513 1.567105,0.64922 1.86251,0.75321 2.586733,0.91063 0.404057,0.0878 1.377686,0.45381 2.16362,0.81331 0.785933,0.35949 1.884091,0.69842 2.44035,0.75317 3.94672,0.38846 4.931347,0.55605 6.648052,1.13156 1.062877,0.35633 2.569677,1.05546 3.348443,1.55363 0.778767,0.49817 1.903437,1.10082 2.499267,1.33922 0.59583,0.23841 1.083328,0.5396 1.083328,0.66932 0,0.12972 0.148828,0.24068 0.330729,0.24658 0.181901,0.006 0.985573,0.53375 1.785937,1.173 0.800365,0.63925 1.970822,1.4236 2.601016,1.74299 0.630194,0.3194 1.720053,1.131 2.42191,1.80357 1.630644,1.56258 2.03545,1.8843 2.370973,1.8843 0.250584,0 1.330021,1.07353 3.45849,3.43958 0.45818,0.50932 1.12405,1.53901 1.4797,2.2882 0.44928,0.94639 0.84491,1.41191 1.29618,1.52518 0.70665,0.17735 2.51132,1.64605 2.51132,2.04378 0,0.26691 1.50493,1.81576 1.76427,1.81576 0.30666,0 1.39753,1.44707 1.68891,2.24038 0.16208,0.44128 0.40467,0.98092 0.5391,1.1992 0.13443,0.21828 0.31399,0.57547 0.39902,0.79375 0.085,0.21828 0.25276,0.635 0.37273,0.92604 0.11996,0.29104 0.42183,1.18401 0.6708,1.98438 0.24898,0.80036 0.55674,1.7287 0.68393,2.06297 0.12718,0.33427 0.23079,1.58442 0.23025,2.77812 -7.5e-4,1.63453 -0.12033,2.36633 -0.48438,2.96412 -0.85522,1.40431 -1.97026,3.41078 -2.49959,4.49791 -0.28342,0.58209 -0.69668,1.26446 -0.91836,1.51639 -0.33049,0.3756 -0.34205,0.53155 -0.0642,0.86629 0.64849,0.7814 0.0158,0.71831 -1.11345,-0.11102 -1.14687,-0.84227 -4.17941,-4.16038 -4.17941,-4.57297 0,-0.12251 -0.29765,-0.69426 -0.66146,-1.27056 -0.3638,-0.5763 -0.66146,-1.17497 -0.66146,-1.33037 0,-0.1554 -0.39933,-0.90681 -0.8874,-1.66979 -0.48807,-0.76298 -1.095229,-1.85859 -1.349229,-2.43468 -0.254,-0.5761 -0.74764,-1.64448 -1.096973,-2.37417 -0.34933,-0.72969 -0.635147,-1.60655 -0.635147,-1.94857 0,-0.34202 -0.284743,-1.17375 -0.632762,-1.84828 -0.34802,-0.67454 -0.841011,-1.70268 -1.095536,-2.28477 -0.254524,-0.58208 -0.68293,-1.37264 -0.952012,-1.75681 -0.273254,-0.39011 -0.619667,-1.61658 -0.784677,-2.77812 -0.326753,-2.30009 -0.768565,-3.15162 -2.782992,-5.36381 -0.710955,-0.78075 -1.438561,-1.62734 -1.616903,-1.88131 -0.178341,-0.25396 -0.731924,-0.53823 -1.230185,-0.6317 -0.49826,-0.0935 -1.066719,-0.36548 -1.263242,-0.60445 -0.322485,-0.39215 -0.270271,-0.41726 0.535653,-0.25759 0.491133,0.0973 1.13336,0.17692 1.427171,0.17692 0.328556,0 1.435936,0.94214 2.876621,2.44739 1.778599,1.85831 2.378491,2.6703 2.492278,3.37344 0.08242,0.50932 0.261341,1.19954 0.397597,1.53381 0.136257,0.33426 0.247739,0.89278 0.247739,1.24115 0,0.34837 0.109903,0.70132 0.244228,0.78434 0.134325,0.083 0.322378,0.50676 0.417897,0.94165 0.09552,0.4349 0.269707,0.79072 0.387084,0.79072 0.19281,0 0.589644,0.76039 1.380805,2.64583 0.152657,0.3638 0.38273,0.8682 0.511272,1.12089 0.128544,0.25269 0.233714,0.69212 0.233714,0.97652 0,0.51559 1.331989,3.55777 3.058579,6.98564 0.5006,0.99386 0.91017,1.89627 0.91017,2.00536 0,0.30847 2.29197,4.25515 2.75603,4.74578 0.22769,0.24073 0.83337,0.90247 1.34596,1.47053 0.51259,0.56806 0.9745,0.98478 1.02648,0.92604 0.4823,-0.54507 3.33701,-6.96953 3.46622,-7.80065 0.20339,-1.30819 -0.28716,-4.35106 -0.93501,-5.7999 -0.26028,-0.58208 -0.55878,-1.35599 -0.66332,-1.71979 -0.43778,-1.52337 -1.51491,-3.49675 -2.38182,-4.36366 -0.51041,-0.51041 -1.01603,-0.92801 -1.1236,-0.92801 -0.10758,0 -0.41121,-0.40035 -0.67472,-0.88968 -0.2716,-0.50432 -1.15944,-1.32994 -2.04979,-1.90613 -1.13077,-0.73178 -1.78557,-1.39725 -2.338,-2.37609 -0.42203,-0.74779 -1.108879,-1.70574 -1.526339,-2.12876 -0.41745,-0.42302 -1.103135,-1.22502 -1.523728,-1.78222 -0.420593,-0.55719 -1.281039,-1.25578 -1.912102,-1.55242 -0.631063,-0.29663 -1.386697,-0.87541 -1.679186,-1.28618 -0.29249,-0.41076 -1.391971,-1.31368 -2.443291,-2.00647 -1.05132,-0.6928 -1.971022,-1.33398 -2.043783,-1.42483 -0.07276,-0.0909 -0.519245,-0.39026 -0.992187,-0.66534 -0.472943,-0.27507 -0.859896,-0.59353 -0.859896,-0.70767 0,-0.11415 -0.15784,-0.20754 -0.350755,-0.20754 -0.192914,0 -0.617973,-0.28444 -0.944573,-0.63209 -0.326601,-0.34765 -0.932535,-0.69984 -1.34652,-0.78264 -0.413984,-0.0828 -1.387911,-0.55516 -2.16428,-1.04971 -0.776369,-0.49454 -1.887831,-1.06113 -2.469914,-1.25908 -0.582083,-0.19795 -1.293185,-0.5127 -1.580226,-0.69944 -0.28704,-0.18675 -0.941884,-0.34021 -1.455208,-0.34102 -0.513324,-8.1e-4 -1.350035,-0.11206 -1.859358,-0.24723 -0.509323,-0.13517 -1.521354,-0.30298 -2.248958,-0.37291 -1.165023,-0.11198 -2.202247,-0.39079 -5.61659,-1.50977 -1.377191,-0.45135 -3.561823,-0.84434 -4.70216,-0.84586 -1.147685,-0.002 -5.824494,1.49898 -6.503126,2.08647 -0.229739,0.19889 -0.515744,0.36161 -0.635565,0.36161 -0.366998,0 -2.501708,1.70155 -2.51042,2.00102 -0.0045,0.15468 -0.372614,0.63093 -0.818031,1.05833 -0.747128,0.71692 -0.998149,0.78736 -3.241146,0.9094 l -2.431296,0.13229 -0.03396,1.36452 c -0.03959,1.59059 -0.860743,2.87849 -2.434291,3.81794 l -0.971333,0.57991 0.851374,0.29382 c 1.354972,0.46761 1.775631,1.02655 1.446101,1.92147 -0.249434,0.67741 -0.294035,0.70009 -0.44117,0.22434 -0.304653,-0.98507 -2.199755,-1.48476 -3.443806,-0.90803 -0.416027,0.19286 -0.356356,0.2151 0.279085,0.10401 0.821315,-0.14358 1.969874,0.52853 1.969874,1.15272 0,0.1576 0.19542,0.39591 0.434268,0.52958 0.311034,0.17406 0.385229,0.43841 0.261459,0.93155 -0.212081,0.845 -0.822704,1.19149 -2.470996,1.40214 -1.358351,0.1736 -2.177084,0.85829 -2.187598,1.82944 -0.0062,0.56977 -1.395133,2.04234 -2.188696,2.32043 -0.254661,0.0892 -0.463021,0.41686 -0.463021,0.72804 0,0.40721 0.117293,0.52077 0.418515,0.40518 0.230183,-0.0883 0.527839,-0.1606 0.661458,-0.1606 0.133619,0 0.246731,-0.20836 0.251359,-0.46302 0.0084,-0.45962 0.580119,-1.38906 0.854515,-1.38906 0.07872,0 0.389005,0.41672 0.689513,0.92604 0.654736,1.1097 1.148737,1.20128 1.070417,0.19844 -0.09695,-1.24143 0.01117,-1.91823 0.306456,-1.91823 0.339583,0 1.039434,0.66276 1.039434,0.98434 0,0.33691 2.218474,2.45524 2.571301,2.45524 0.166271,0 0.340358,-0.26789 0.38686,-0.59531 0.06558,-0.46179 0.284968,-0.61447 0.978087,-0.68073 0.491447,-0.047 1.01838,0.0394 1.170962,0.192 0.193507,0.19351 0.423883,0.0366 0.76162,-0.51878 0.673667,-1.10775 1.248668,-1.26546 1.86023,-0.51021 0.470874,0.5815 0.565101,0.59908 1.480143,0.27616 1.363457,-0.48116 1.874938,-0.98762 1.700603,-1.68389 -0.229649,-0.9172 -1.633907,-2.82924 -2.077874,-2.82924 -0.587142,0 -1.143448,-0.64977 -1.322411,-1.54458 -0.1166,-0.583 -0.01488,-0.92298 0.400419,-1.33827 0.948069,-0.94807 1.44152,-0.6057 0.755165,0.52395 -0.290869,0.47874 -0.240617,0.61383 0.41694,1.12089 2.784108,2.14691 4.07769,4.54084 2.956497,5.47134 -0.509751,0.42306 -0.508074,0.79375 0.0036,0.79375 0.441535,0 1.318344,0.44685 2.072169,1.05604 0.443135,0.35811 0.534822,0.33366 0.992095,-0.26458 0.277109,-0.36254 0.62294,-0.80297 0.768512,-0.97873 0.145572,-0.17575 0.264676,-0.42289 0.264676,-0.54919 0,-0.34675 1.176171,-1.3802 1.570804,-1.3802 0.77502,0 -0.343409,-0.80277 -1.340583,-0.96223 -0.563184,-0.0901 -1.023971,-0.26758 -1.023971,-0.3945 0,-0.12693 -0.22899,-0.23077 -0.508867,-0.23077 -0.279876,0 -0.845423,-0.28137 -1.25677,-0.62526 -0.411348,-0.34389 -0.998322,-0.70355 -1.304388,-0.79925 -0.721955,-0.22574 -1.743634,-1.38461 -2.204606,-2.50063 -0.200467,-0.48534 -0.499187,-1.02112 -0.66382,-1.19063 -0.425428,-0.43802 -1.205299,-2.16126 -1.205299,-2.66328 0,-0.57097 0.767311,-0.5397 0.981192,0.04 0.09396,0.25466 0.24019,0.52255 0.324958,0.59531 0.08477,0.0728 0.391109,0.60657 0.680758,1.18624 1.109451,2.22033 3.593282,4.3774 6.082884,5.28264 0.727604,0.26456 1.561041,0.69432 1.852083,0.95503 0.291042,0.2607 1.150893,0.78515 1.91078,1.16543 0.759888,0.38029 1.474263,0.83569 1.5875,1.01199 0.113238,0.1763 0.741668,0.75604 1.396512,1.28831 0.654843,0.53228 1.695619,1.44475 2.312833,2.02772 0.617215,0.58297 1.261277,1.1063 1.431249,1.16296 0.206665,0.0689 0.289592,0.76907 0.250332,2.11364 -0.03496,1.19741 0.05499,2.0809 0.222397,2.18437 0.154608,0.0956 0.281106,0.46436 0.281106,0.81957 0,0.35522 0.109602,0.64585 0.24356,0.64585 0.133959,0 0.321713,0.35582 0.417231,0.79071 0.09552,0.4349 0.283573,0.85864 0.417898,0.94166 0.134325,0.083 0.244227,0.41776 0.244227,0.74387 0,0.32611 0.123319,0.71624 0.274042,0.86697 0.35172,0.35172 0.569383,12.79637 0.223813,12.79637 -0.134539,0 -0.388385,-0.32742 -0.564102,-0.7276 -0.175717,-0.40019 -0.441055,-0.80647 -0.58964,-0.90287 -0.148585,-0.0964 -0.556263,-0.42381 -0.905951,-0.7276 -0.750437,-0.65194 -1.464141,-0.6958 -2.503301,-0.15384 -0.416817,0.21738 -1.272993,0.39524 -1.902615,0.39524 -1.144212,0 -1.710785,0.3648 -1.262625,0.81296 0.140517,0.14051 0.796408,0.0254 1.604449,-0.28165 1.234049,-0.46891 1.406562,-0.47954 1.776558,-0.10955 0.493923,0.49393 0.494003,0.49517 0.07906,1.22729 -0.874311,1.54263 -2.415714,3.42939 -2.975552,3.64224 -0.358362,0.13624 -0.893007,0.77783 -1.256509,1.50783 -0.348,0.69887 -1.041314,1.54572 -1.540698,1.88188 -1.109428,0.74683 -1.233818,1.04101 -0.6276,1.48429 0.414577,0.30314 0.566561,0.19561 1.332781,-0.94299 0.475663,-0.70683 0.940395,-1.52319 1.032738,-1.81414 0.17462,-0.55018 0.369139,-0.62316 1.424926,-0.53463 0.347177,0.0291 0.720819,-0.092 0.830314,-0.2692 0.258119,-0.41764 0.787412,-0.0886 0.787412,0.48946 0,0.24639 -0.535781,1.02328 -1.190625,1.72644 -0.839775,0.90173 -1.190625,1.50309 -1.190625,2.04074 0,0.47157 -0.3061,1.11092 -0.80263,1.67643 -0.516376,0.58812 -0.698822,0.9783 -0.511564,1.09404 0.356485,0.22032 0.176998,0.43226 1.909091,-2.25435 1.554556,-2.41125 2.106387,-3.00836 3.044427,-3.29424 0.800384,-0.24394 1.032923,0.40096 0.459917,1.27548 -0.241387,0.3684 -0.399262,0.87403 -0.350834,1.12361 0.0647,0.33341 0.293507,0.15721 0.862598,-0.66426 1.33247,-1.92341 2.508634,-2.01285 2.552874,-0.19413 l 0.02013,0.8275 0.3106,-0.8333 c 0.17083,-0.45832 1.267401,-1.768 2.436823,-2.91042 2.219588,-2.16833 2.523914,-2.62917 3.031517,-4.59066 1.125514,-4.34923 1.783835,-8.83069 1.373087,-9.34717 -0.481571,-0.60553 -0.653789,-2.22419 -0.764907,-7.18929 -0.09217,-4.11844 -0.02993,-5.38262 0.344347,-6.99412 l 0.456851,-1.96704 -0.892314,-0.74494 c -0.490773,-0.40972 -0.960438,-0.74494 -1.0437,-0.74494 -0.08326,0 -0.378735,-0.38695 -0.656606,-0.85989 -0.277871,-0.47295 -0.630964,-0.99609 -0.78465,-1.16255 -4.351352,-4.71299 -8.176126,-8.44675 -9.30563,-9.0842 -0.793164,-0.44764 -1.740423,-1.28483 -2.238532,-1.97844 -0.474933,-0.66133 -1.017736,-1.20242 -1.206229,-1.20242 -0.354512,0 -1.026014,-1.01101 -0.812989,-1.22404 0.197527,-0.19752 2.133329,1.03079 2.65908,1.68726 0.53267,0.6651 3.944067,2.97637 4.39308,2.97637 0.153265,0 0.278664,-0.11907 0.278664,-0.26459 0,-0.14552 0.403981,-0.26458 0.897734,-0.26458 1.034344,0 1.265395,0.37276 1.120028,1.80696 -0.05414,0.53414 -0.04408,0.75003 0.02236,0.47975 0.216264,-0.87981 2.075001,-4.2223 2.495496,-4.48754 0.529351,-0.3339 1.543512,-0.0728 2.432171,0.62625 0.597198,0.46975 0.659144,0.63696 0.409085,1.1042 -0.254302,0.47517 -0.230973,0.52617 0.170247,0.37221 1.096278,-0.42069 1.894598,0.45707 1.05184,1.1565 -0.576544,0.47849 -0.488239,0.92002 0.264583,1.32292 0.363802,0.1947 0.661458,0.50149 0.661458,0.68175 0,0.56501 -1.421985,3.11969 -2.182812,3.92155 -0.87852,0.9259 -0.880217,0.95026 -0.133003,1.90945 1.101247,1.41367 1.387756,1.75228 1.911563,2.25922 0.513673,0.49713 0.528078,0.49661 0.926042,-0.0336 0.222339,-0.29623 0.633602,-1.10362 0.913919,-1.79421 0.280317,-0.69058 0.585035,-1.31514 0.677151,-1.3879 0.286599,-0.22638 1.591307,-2.69623 1.591307,-3.01239 0,-0.5271 0.951151,-0.91826 2.681903,-1.10294 1.51041,-0.16117 1.64287,-0.13792 1.286847,0.22595 -0.218281,0.22309 -0.924119,0.50694 -1.568529,0.63076 -1.248454,0.2399 -2.076667,1.17864 -2.1163,2.39872 -0.01063,0.32742 -0.126443,0.59531 -0.257349,0.59531 -0.130906,0 -0.452082,0.59532 -0.713725,1.32292 -0.261643,0.72761 -0.571257,1.32292 -0.688031,1.32292 -0.116774,0 -0.212316,0.22354 -0.212316,0.49677 0,0.27322 -0.178594,0.64499 -0.396875,0.82614 -0.218281,0.18116 -0.396875,0.52912 -0.396875,0.77323 0,0.24412 -0.148828,0.59269 -0.330729,0.7746 -0.254493,0.2545 -0.331572,3.02645 -0.334384,12.02531 -0.0036,11.56702 -0.122773,13.45536 -0.950603,15.06442 -0.314321,0.61095 -0.298769,0.99578 0.04024,0.99578 0.152135,0 0.552428,0.26789 0.889541,0.59531 0.337112,0.32742 0.890335,0.77391 1.229384,0.99219 0.339049,0.21828 0.872915,0.64101 1.186368,0.9394 l 0.569914,0.54253 0.319048,-1.19289 c 0.175476,-0.65608 0.476971,-1.55506 0.669989,-1.99773 0.193018,-0.44267 0.563488,-1.40017 0.823267,-2.12777 0.259778,-0.72761 0.750531,-1.76704 1.09056,-2.30985 0.34003,-0.54281 0.618236,-1.10836 0.618236,-1.25677 0,-0.14841 0.119062,-0.26984 0.264583,-0.26984 0.145521,0 0.264583,-0.21659 0.264583,-0.48131 0,-0.26473 0.594065,-1.00887 1.320144,-1.65365 0.726079,-0.64478 1.321391,-1.29487 1.322916,-1.44465 0.0015,-0.14978 0.240899,-0.44395 0.53194,-0.65372 0.291042,-0.20977 0.529167,-0.56943 0.529167,-0.79925 0,-0.22981 0.128709,-0.54655 0.28602,-0.70386 0.316693,-0.31669 -0.621389,-2.46564 -1.076328,-2.46564 -0.407369,0 -2.128798,-1.84333 -2.432253,-2.60449 -0.735565,-1.84502 -1.020188,-4.38121 -0.717269,-6.39135 0.164471,-1.0914 0.357089,-2.16296 0.428041,-2.38125 0.290719,-0.89438 0.564818,0.75944 0.582776,3.51627 0.02542,3.90253 -0.130855,3.62983 5.376638,9.38217 0.870792,0.90951 1.68834,1.65365 1.816775,1.65365 0.128434,0 0.233517,0.13164 0.233517,0.29253 0,0.28484 0.490095,0.95101 2.14384,2.91405 0.885795,1.05145 1.560317,2.23193 1.560317,2.73067 0,0.17628 0.28029,0.58382 0.62286,0.90565 0.52435,0.4926 0.64737,0.93258 0.777889,2.78201 0.0868,1.22985 0.35758,2.62162 0.61519,3.16182 0.58287,1.2223 0.25066,1.59496 -0.57092,0.64044 -0.714109,-0.82968 -1.134319,-2.09477 -1.361449,-4.09878 -0.0865,-0.76297 -0.319236,-1.52169 -0.517262,-1.68604 -0.198027,-0.16435 -0.360049,-0.49478 -0.360049,-0.73429 0,-0.42319 -1.672834,-2.62278 -2.626368,-3.45339 -0.260115,-0.22658 -0.548888,-0.65265 -0.641719,-0.94683 -0.351226,-1.11301 -2.808134,-3.23744 -3.353969,-2.9001 -0.141411,0.0874 -0.25711,0.39795 -0.25711,0.69011 0,0.60488 -1.098694,2.1804 -2.16299,3.10172 -0.714773,0.61876 -2.728433,4.50705 -3.377751,6.5223 -0.187548,0.58209 -0.486296,1.41552 -0.663885,1.85209 -0.780773,1.91936 -1.004429,2.77326 -1.247402,4.7625 -0.142196,1.16416 -0.363573,2.9501 -0.49195,3.96875 -0.128376,1.01864 -0.352634,2.80458 -0.498351,3.96874 -0.145716,1.16417 -0.458909,3.18823 -0.695984,4.49792 -0.237074,1.30969 -0.483594,2.8575 -0.547822,3.43958 -0.12694,1.15044 -0.409181,0.74196 3.53584,5.11735 0.832003,0.92276 1.961212,2.29198 2.509353,3.0427 0.548142,0.75073 1.115343,1.50876 1.260448,1.68452 0.145105,0.17576 0.263827,0.39495 0.263827,0.4871 0,0.0922 0.410325,0.64692 0.911833,1.23282 0.501509,0.5859 0.992275,1.43152 1.090592,1.87916 0.09832,0.44763 0.364329,0.99922 0.591137,1.22574 0.470297,0.46971 2.642273,3.6785 3.205242,4.73529 0.206165,0.38701 0.548748,1.06084 0.761296,1.49741 0.212547,0.43656 0.728677,1.2335 1.146955,1.77098 0.418278,0.53747 1.093816,1.60903 1.501195,2.38125 0.974194,1.84665 2.644093,4.41168 3.409493,5.23713 0.33628,0.36267 0.61142,0.92148 0.61142,1.2418 0,0.32032 0.11906,0.65598 0.26458,0.74592 0.44256,0.27352 0.33441,6.7902 -0.12808,7.71727 -0.3738,0.74931 -2.660059,2.46919 -3.282319,2.46919 -0.16157,0 -0.29377,0.10098 -0.29377,0.2244 0,0.2002 -0.998565,0.69523 -2.513532,1.24605 -0.291042,0.10582 -0.97015,0.21154 -1.50913,0.23494 -0.53898,0.0234 -1.203199,0.24458 -1.476042,0.4915 -0.272843,0.24692 -0.688036,0.44894 -0.922651,0.44894 -0.234615,0 -0.500157,0.11906 -0.590094,0.26458 -0.08994,0.14553 -0.405606,0.26459 -0.701487,0.26459 -0.29588,0 -0.840691,0.23812 -1.210691,0.52916 -0.740803,0.58272 -0.392282,0.7224 0.495128,0.19844 0.448117,-0.26458 0.5841,-0.26458 0.679917,0 0.06588,0.1819 0.479776,0.33073 0.919781,0.33073 0.62886,0 0.76481,0.0917 0.635477,0.42876 -0.121947,0.31779 -0.04368,0.39462 0.302422,0.29684 0.256824,-0.0726 0.638476,-0.1762 0.848114,-0.23032 0.209639,-0.0541 0.425241,0.10223 0.479116,0.34745 0.06534,0.2974 -0.259122,0.6498 -0.974436,1.05834 -1.087999,0.62139 -1.423416,1.27393 -0.654821,1.27393 0.231905,0 0.483917,-0.23812 0.560026,-0.52917 0.07611,-0.29104 0.273322,-0.53181 0.43825,-0.53505 0.164929,-0.003 0.597527,-0.23871 0.961329,-0.52328 0.363802,-0.28457 0.810287,-0.52005 0.992188,-0.52328 0.572437,-0.0102 0.359511,0.70815 -0.347157,1.17117 -1.134772,0.74353 -0.67117,1.08089 1.361419,0.99069 1.974213,-0.0876 3.049684,-0.34116 4.803683,-1.13254 0.61688,-0.27832 1.24849,-0.50604 1.40358,-0.50604 0.39418,0 2.632,-1.03225 3.42795,-1.58122 1.25639,-0.86655 3.19686,-1.3292 5.57507,-1.3292 2.65095,0 2.62701,0.0219 2.62701,-2.40288 0,-2.56852 0.932,-1.7939 1.226,1.01897 0.14532,1.39034 0.0971,1.61924 -0.4658,2.21106 -0.88524,0.93071 -1.88513,1.23689 -4.45079,1.3629 -1.36391,0.067 -2.27507,0.2288 -2.33716,0.41508 -0.056,0.16791 -0.25682,0.30529 -0.44635,0.30529 -0.18952,0 -0.68561,0.17786 -1.10243,0.39525 -0.41681,0.21738 -0.93644,0.39771 -1.15472,0.40072 -0.4729,0.007 -2.02853,0.53944 -3.79225,1.2991 -1.3885,0.59806 -4.354741,0.7646 -4.847184,0.27216 -0.195087,-0.19509 -0.553565,-0.11638 -1.195821,0.26256 l -0.917214,0.54117 z m -3.86212,-1.55463 c -0.08994,-0.14552 -0.282584,-0.26458 -0.428105,-0.26458 -0.14552,0 -0.190998,0.11906 -0.101061,0.26458 0.08994,0.14553 0.282584,0.26459 0.428104,0.26459 0.145521,0 0.190999,-0.11906 0.101062,-0.26459 z m -0.983583,-1.12752 c 0.457209,-0.28354 0.567205,-0.44846 0.3021,-0.45294 -0.524282,-0.009 -1.641881,1.1527 -1.371458,1.42539 0.110472,0.1114 0.234495,0.0385 0.275608,-0.162 0.04111,-0.20051 0.3983,-0.56521 0.79375,-0.81045 z m 2.438792,-0.0631 c 0.183735,-0.22139 0.212385,-0.39688 0.06479,-0.39688 -0.14552,0 -0.412803,0.1786 -0.59396,0.39688 -0.183735,0.22139 -0.212385,0.39687 -0.06479,0.39687 0.145521,0 0.412803,-0.17859 0.59396,-0.39687 z m -3.439584,-1.08876 c 0,-0.056 -0.297656,-0.10187 -0.661458,-0.10187 -0.487582,0 -0.661458,0.14071 -0.661458,0.53527 0,0.51014 0.03105,0.51492 0.661458,0.10186 0.363802,-0.23837 0.661458,-0.47924 0.661458,-0.53526 z M 20.62358,171.92532 c 0,-0.91789 -0.101476,-1.06744 -1.0541,-1.55343 -1.194849,-0.60957 -1.462565,-1.26341 -1.258521,-3.07368 0.218202,-1.93588 0.726382,-1.97519 0.888019,-0.0687 0.135152,1.5941 0.33832,2.08188 0.867145,2.08188 0.666585,0 1.556675,1.0562 1.672279,1.98437 0.09748,0.78268 0.10331,0.77861 0.417818,-0.29195 0.237296,-0.80774 0.244509,-1.31577 0.02817,-1.98437 -0.441812,-1.36543 -1.226593,-3.03837 -1.616182,-3.44526 -0.532183,-0.55582 -1.267545,-1.76592 -1.267545,-2.08587 0,-0.15699 -0.297618,-0.6064 -0.661373,-0.9987 -0.363755,-0.39229 -0.849942,-1.11064 -1.080415,-1.59632 -0.392222,-0.82655 -0.44249,-0.85213 -0.78542,-0.39967 -0.549466,0.72495 -0.459348,1.56392 0.296623,2.76146 0.947755,1.50134 0.917721,2.42927 -0.110428,3.41182 -0.669755,0.64006 -0.833987,1.01012 -0.833987,1.8792 0,1.81378 0.776984,3.02017 2.87361,4.46172 0.590994,0.40634 0.785629,1.69283 0.30139,1.99211 -0.145521,0.0899 -0.263076,0.36485 -0.261232,0.61093 0.0018,0.24607 0.359031,-0.25399 0.79375,-1.11124 0.469524,-0.92588 0.790398,-1.97096 0.790398,-2.57431 z m 4.658345,-4.20142 c 0.07743,-0.36381 0.258943,-0.95107 0.403367,-1.30504 0.191432,-0.46917 0.138827,-1.10079 -0.194125,-2.33081 -0.379301,-1.40125 -0.595091,-1.7584 -1.273088,-2.10702 -0.449006,-0.23087 -1.624305,-1.22122 -2.611776,-2.20077 l -1.795403,-1.78101 0.171284,1.62118 c 0.09421,0.89164 0.313981,1.74024 0.48839,1.88576 0.174408,0.14552 0.610816,0.50271 0.969796,0.79375 1.502627,1.21825 2.193666,2.74434 2.539705,5.60868 0.123252,1.02021 0.176047,1.08492 0.647631,0.79375 0.282393,-0.17436 0.576791,-0.61467 0.654219,-0.97847 z m 56.144816,-2.91042 c 0.396385,-2.64663 0.880219,-5.09566 1.139367,-5.76714 0.355857,-0.92206 0.298507,-1.05594 -0.53033,-1.23798 -0.420688,-0.0924 -1.469122,-0.80529 -2.329854,-1.58421 l -1.564968,-1.41621 -1.440458,1.36475 c -0.792252,0.75061 -1.76788,1.57585 -2.168062,1.83387 -0.400183,0.25801 -0.727604,0.63505 -0.727604,0.83785 0,0.2028 -0.104583,0.40841 -0.232406,0.45692 -0.127823,0.0485 -0.314761,0.47006 -0.415416,0.93679 -0.168735,0.7824 -0.112796,0.87794 0.717148,1.22471 0.495088,0.20686 1.154814,0.71796 1.466058,1.13578 1.159034,1.55589 1.754086,2.21487 2.000012,2.21487 0.288709,0 2.55002,2.39714 2.55002,2.70319 0,0.11065 0.20836,0.44581 0.463021,0.74481 0.51885,0.60919 0.416678,0.93737 1.073472,-3.448 z m -58.77723,0.99741 c -0.180999,-0.72115 -1.937853,-2.84949 -2.352138,-2.84949 -0.156736,0 -0.08793,0.21773 0.152909,0.48385 0.240835,0.26612 0.437882,0.56876 0.437882,0.67252 0,0.10377 0.249558,0.45158 0.554575,0.77292 0.305016,0.32134 0.665535,0.86865 0.801152,1.21626 0.303567,0.77807 0.617669,0.54882 0.40562,-0.29606 z m 4.492978,-1.80652 c -0.154669,-0.77334 -0.962659,-1.89979 -0.962659,-1.34207 0,0.14733 0.119063,0.34145 0.264584,0.43139 0.145521,0.0899 0.264583,0.43431 0.264583,0.76527 0,0.56315 0.194367,0.95452 0.474045,0.95452 0.0667,0 0.04845,-0.3641 -0.04055,-0.80911 z m 40.026619,-0.23089 c 0.403038,-0.34955 0.562003,-0.74171 0.503504,-1.24213 l -0.08549,-0.7313 -0.712302,1.08104 c -0.391767,0.59458 -0.639813,1.15354 -0.551216,1.24214 0.2147,0.2147 0.17645,0.23052 0.845504,-0.34975 z m 4.245164,-0.79469 c 0.150641,-0.28147 0.264493,-0.72796 0.253005,-0.99219 -0.01408,-0.32392 -0.107454,-0.2434 -0.286632,0.24719 -0.146159,0.40018 -0.374885,0.72761 -0.508279,0.72761 -0.133394,0 -0.242534,0.11906 -0.242534,0.26458 0,0.44867 0.495612,0.29249 0.78444,-0.24719 z m -44.441108,-1.69796 c -0.218052,-0.17291 -0.563876,-0.60965 -0.768496,-0.97055 -0.204621,-0.3609 -0.502278,-0.88855 -0.661459,-1.17256 -0.159181,-0.28401 -0.616842,-0.98648 -1.017024,-1.56105 -0.400183,-0.57457 -0.727605,-1.2054 -0.727605,-1.40185 0,-0.19644 -0.119062,-0.35717 -0.264583,-0.35717 -0.145521,0 -0.264583,-0.2311 -0.264583,-0.51355 0,-0.28246 -0.106932,-0.57964 -0.237626,-0.66042 -0.130694,-0.0808 -0.335017,-1.01053 -0.454051,-2.06613 -0.119035,-1.0556 -0.230524,-2.03834 -0.247754,-2.18386 -0.333149,-2.8137 -0.728368,-3.54704 -1.920455,-3.56346 -0.338355,-0.005 -0.53797,-0.12646 -0.447406,-0.273 0.08994,-0.14552 0.499104,-0.26458 0.90926,-0.26458 0.410156,0 0.893958,-0.1786 1.075115,-0.39688 0.423482,-0.51026 0.913595,-0.50381 1.43631,0.0189 0.377976,0.37798 0.415773,0.31467 0.415773,-0.69637 0,-1.39997 0.932693,-3.06347 1.468365,-2.6189 0.253883,0.2107 0.285855,0.47662 0.112217,0.93332 -0.372316,0.97927 -0.0964,1.43598 0.653681,1.082 0.691345,-0.32626 0.648719,-0.59207 -0.336473,-2.09813 -0.594588,-0.90895 -0.692469,-0.96203 -1.09769,-0.59531 -0.549249,0.49706 -0.8001,0.51155 -0.8001,0.0462 0,-0.46665 0.89902,-1.4957 1.306704,-1.4957 0.395017,0 1.074546,0.65733 1.074546,1.03944 0,0.15591 0.09339,0.28348 0.207538,0.28348 0.350136,0 1.115379,1.49851 1.115379,2.18416 0,0.61899 0.04063,0.63458 0.92906,0.35651 0.510983,-0.15993 0.9862,-0.47082 1.056038,-0.69086 0.321048,-1.01154 4.203528,-1.72072 6.477162,-1.18313 l 0.921635,0.21791 -0.723198,-0.85947 c -0.779006,-0.92579 -0.99097,-1.79065 -0.349817,-1.42733 0.205358,0.11637 0.820624,0.61958 1.367257,1.11825 1.363367,1.24372 5.82632,3.45435 6.979064,3.45692 0.870089,0.002 4.704127,0.53861 7.552175,1.05711 1.745103,0.31771 8.210925,0.84782 12.086647,0.99095 l 3.090815,0.11414 0.414915,-0.80236 c 0.240204,-0.4645 0.421925,-1.5042 0.431563,-2.46914 0.01956,-1.95817 0.384058,-5.30054 0.802129,-7.35533 0.162844,-0.80036 0.350253,-2.59059 0.416465,-3.97829 l 0.120385,-2.52309 -1.173217,-0.84254 -1.173217,-0.84254 -0.469175,1.51354 c -0.258047,0.83245 -0.689959,1.82959 -0.959805,2.21585 -0.269847,0.38627 -0.49063,1.05752 -0.49063,1.49167 0,0.47509 -0.383413,1.34674 -0.963022,2.18935 -1.223075,1.77804 -2.476561,4.29502 -2.476561,4.97291 0,0.76169 -0.283957,1.37865 -0.556891,1.20997 -0.130273,-0.0805 -0.237306,-0.34772 -0.237851,-0.59379 -9.67e-4,-0.43634 -1.786374,-1.36648 -2.647622,-1.37934 -0.216752,-0.003 -0.691751,-0.23871 -1.055553,-0.52328 -0.363802,-0.28457 -0.751635,-0.52005 -0.861852,-0.52328 -0.110216,-0.003 -1.552215,-0.66073 -3.204442,-1.46109 -1.652228,-0.80037 -3.124465,-1.45521 -3.271639,-1.45521 -0.337848,0 -2.451651,-2.27613 -2.451651,-2.63992 0,-0.56468 0.738695,-0.232 1.739436,0.78338 0.760429,0.77155 1.257039,1.05508 1.853744,1.05834 0.44828,0.002 1.346536,0.27352 1.996125,0.60238 l 1.18107,0.59793 0.887273,-0.59793 c 0.488001,-0.32886 1.081799,-0.59793 1.319551,-0.59793 0.281664,0 0.550707,-0.4011 0.772187,-1.15121 0.186951,-0.63316 0.518175,-1.49481 0.736054,-1.91477 0.333845,-0.64349 0.343879,-0.95135 0.0638,-1.95765 -0.182787,-0.65674 -0.477387,-1.34078 -0.654668,-1.52008 -0.177281,-0.17931 -0.362725,-0.41743 -0.412098,-0.52917 -0.123034,-0.27845 -2.672454,-1.12921 -3.38382,-1.12921 -0.317458,0 -0.822635,0.13136 -1.122616,0.2919 -0.418872,0.22418 -0.59713,0.20883 -0.768283,-0.0661 -0.168286,-0.27037 -0.338227,-0.28742 -0.693956,-0.0697 -1.463472,0.89589 -3.049319,1.69599 -3.361559,1.69599 -0.196981,0 -1.173133,0.47625 -2.169226,1.05833 -0.996093,0.58208 -1.907461,1.05833 -2.025262,1.05833 -0.117801,0 -0.535193,0.29766 -0.927537,0.66146 -0.392344,0.3638 -0.938475,0.66146 -1.213624,0.66146 -0.27515,0 -1.104106,0.43381 -1.842126,0.96403 -0.799468,0.57436 -1.382621,0.84172 -1.44271,0.66146 -0.118748,-0.35625 -2.218104,-0.40991 -2.58353,-0.066 -0.725114,0.68234 -9.937682,1.41699 -10.305521,0.82181 -0.257664,-0.41691 -0.661665,-0.3084 -0.492555,0.13229 0.08376,0.21828 0.308032,0.39688 0.498376,0.39688 0.190345,0 0.829591,0.54929 1.420546,1.22065 1.074276,1.22045 1.565759,2.60254 1.233441,3.46855 -0.139541,0.36363 -0.276482,0.23949 -0.654504,-0.59332 -0.262924,-0.57925 -0.849541,-1.46989 -1.303593,-1.97922 -0.454053,-0.50932 -0.827452,-0.99522 -0.829776,-1.07977 -0.0023,-0.0846 -0.307157,-0.31585 -0.677406,-0.514 -0.446093,-0.23874 -0.646912,-0.54389 -0.595313,-0.9046 0.05503,-0.38472 -0.143507,-0.64094 -0.677072,-0.87378 -0.839337,-0.36629 -1.229436,-0.24566 -1.229436,0.38017 0,0.22901 -0.258095,0.64022 -0.573546,0.91381 -0.410445,0.35598 -0.579735,0.81624 -0.595312,1.61853 -0.01851,0.95324 -0.110902,1.13376 -0.617079,1.20565 -0.343098,0.0487 -0.598878,0.27292 -0.603727,0.52917 -0.01384,0.731 -0.666025,1.37066 -1.397511,1.37066 h -0.68613 l 0.450715,0.84434 c 0.569714,1.06727 1.117172,1.67104 1.707486,1.88312 0.644796,0.23165 0.57783,0.56126 -0.198437,0.9767 -0.599737,0.32097 -0.661459,0.51195 -0.661459,2.04666 0,1.69044 9.52e-4,1.69255 0.727604,1.60894 0.72562,-0.0835 1.91823,0.76172 1.91823,1.35946 0,0.15214 0.119062,0.27661 0.264583,0.27661 0.330004,0 0.333537,1.89771 0.0062,3.30729 -0.337566,1.45344 0.610705,4.17381 1.843959,5.28989 0.292123,0.26437 0.531133,0.6043 0.531133,0.75542 0,0.35033 2.809209,3.08282 3.16938,3.08282 0.148612,0 0.270203,0.1389 0.270203,0.30868 0,0.16977 0.08911,0.21957 0.198022,0.11066 0.108912,-0.10892 0.01962,-0.3395 -0.198438,-0.51241 z m 8.624058,-21.9124 c -0.497302,-0.71 -0.548104,-2.81331 -0.08241,-3.41209 0.177273,-0.22793 0.715343,-0.60879 1.195711,-0.84635 1.168214,-0.57772 1.426532,-0.005 0.441837,0.97983 -0.624294,0.62429 -0.693158,0.87027 -0.612434,2.18759 0.101438,1.65534 -0.256928,2.0701 -0.9427,1.09102 z m -16.540819,21.3685 c -0.317215,-0.38222 -0.280486,-2.68035 0.126593,-7.92098 0.208943,-2.68987 -0.238049,-4.40664 -1.147351,-4.40664 -0.444282,0 -0.598066,-0.1314 -0.541886,-0.46302 0.04314,-0.25466 -0.03867,-0.52255 -0.181806,-0.59531 -0.427646,-0.21738 -0.461847,1.60464 -0.04926,2.62425 0.981305,2.42508 1.294315,6.12525 0.665306,7.86474 -0.25323,0.7003 -0.241605,1.01253 0.0598,1.60628 0.645439,1.27147 1.11498,1.94914 1.254113,1.81001 0.07378,-0.0738 -0.0097,-0.30749 -0.185512,-0.51933 z m 3.683844,-1.58928 c 0,-0.0603 -0.407805,-0.5295 -0.906233,-1.04275 -0.498428,-0.51324 -1.116822,-1.37695 -1.374209,-1.91935 -0.257387,-0.54241 -0.518261,-0.83533 -0.579721,-0.65096 -0.06146,0.18438 0.0498,0.65092 0.24725,1.03675 0.587897,1.14882 2.612913,3.14546 2.612913,2.57631 z m 4.61578,-1.27948 c 0.3661,-3.01023 0.443845,-5.33498 0.19606,-5.86259 -0.142983,-0.30446 -0.4637,-1.01566 -0.712705,-1.58045 -0.462176,-1.04831 -1.642899,-2.54498 -2.007734,-2.54498 -0.111308,0 -0.07878,0.38695 0.07228,0.85989 0.530326,1.66034 1.259998,5.63554 1.26791,6.90748 0.0067,1.07223 -0.06227,1.25811 -0.416258,1.12227 -0.331595,-0.12724 -0.298502,0.0255 0.151528,0.6993 0.316678,0.47415 0.64054,1.07046 0.719693,1.32512 0.264342,0.85048 0.558619,0.47678 0.729227,-0.92604 z m 2.48506,-3.88616 c 0.433199,-0.88913 0.572077,-1.66232 0.572077,-3.18499 0,-1.8106 -0.07245,-2.09569 -0.727604,-2.86319 -0.555241,-0.65045 -1.056061,-0.91272 -2.114129,-1.10715 -2.157724,-0.3965 -2.443354,-0.12598 -1.151642,1.09072 0.595627,0.56104 1.082958,1.13407 1.082958,1.27341 0,0.13934 0.297656,0.69196 0.661458,1.22805 0.591551,0.8717 0.664321,1.25743 0.688542,3.64977 0.01758,1.73607 0.09539,2.39644 0.221673,1.88131 0.107025,-0.43656 0.452025,-1.32213 0.766667,-1.96793 z m 0.488234,1.52144 c -0.08446,-0.21106 -0.147157,-0.14837 -0.159852,0.15986 -0.01149,0.27891 0.05105,0.43518 0.138964,0.34726 0.08792,-0.0879 0.09732,-0.31612 0.02089,-0.50712 z m -5.332157,-0.5457 c -0.102328,-0.32742 -0.287227,-1.07156 -0.410887,-1.65364 -0.488805,-2.30088 -0.997468,-4.39902 -1.088608,-4.4903 -0.05278,-0.0529 -0.05344,0.91919 -0.0015,2.16013 0.0783,1.86943 0.214375,2.45392 0.79375,3.40932 0.783571,1.29212 0.981821,1.45316 0.707214,0.57449 z m 7.451065,-2.69899 c 0.415111,-0.83755 0.714059,-1.98696 0.801368,-3.08113 0.126778,-1.5888 0.08298,-1.79824 -0.488691,-2.33673 -0.345373,-0.32533 -0.840145,-0.70708 -1.099493,-0.84833 -0.4157,-0.22641 -0.450533,-0.16902 -0.294129,0.48464 0.09758,0.40782 0.280006,0.94201 0.405397,1.18711 0.296697,0.57994 0.288649,1.52506 -0.0249,2.92401 -0.692152,3.08815 -0.752118,3.66235 -0.347396,3.32646 0.212154,-0.17607 0.683684,-0.92129 1.047843,-1.65603 z m -12.437658,-2.84072 c -0.08446,-0.21107 -0.147157,-0.14837 -0.159853,0.15985 -0.01149,0.27892 0.05105,0.43518 0.138965,0.34727 0.08792,-0.0879 0.09732,-0.31613 0.02089,-0.50712 z m 15.060084,-3.89094 c -0.225955,-1.46351 -1.073917,-2.14635 -2.653091,-2.13645 -0.738618,0.005 -1.565933,0.17728 -1.838478,0.38367 -0.469488,0.35553 -0.45558,0.38513 0.264583,0.56308 1.831206,0.45248 3.780551,2.24039 3.829406,3.51228 0.02058,0.53584 0.08406,0.45318 0.281388,-0.36641 0.140146,-0.58208 0.192432,-1.46236 0.116192,-1.95617 z m 36.528829,-1.35112 c -0.158973,-3.16238 -0.480028,-5.08159 -1.138514,-6.80581 -0.43304,-1.1339 -0.46985,-1.16365 -0.703618,-0.56878 -0.13567,0.34524 -0.297187,2.116 -0.358927,3.93501 -0.06174,1.81901 -0.220763,3.72401 -0.353386,4.23333 -0.563486,2.16399 -0.56542,2.34048 -0.0241,2.19893 0.290521,-0.076 0.936556,0.1621 1.520095,0.56017 l 1.014844,0.69231 0.09163,-0.73352 c 0.0504,-0.40343 0.02879,-1.98367 -0.04802,-3.51164 z m -48.715047,2.68599 c -0.417879,-0.40911 -0.424706,-0.38863 -0.10686,0.32058 0.186747,0.41669 0.387626,0.61336 0.446398,0.43704 0.05877,-0.17632 -0.09402,-0.51725 -0.339538,-0.75762 z m 13.699898,0.38259 c 0.165397,-0.43102 -0.05682,-0.73644 -0.387242,-0.53223 -0.300548,0.18575 -0.293719,0.90323 0.0086,0.90323 0.129952,0 0.300342,-0.16695 0.378645,-0.371 z m -6.582745,-1.40128 c -0.454435,-0.45444 -2.047191,-0.61965 -2.416215,-0.25062 -0.288779,0.28878 0.46066,0.69122 1.296003,0.69594 0.394445,0.002 0.870695,0.17093 1.058333,0.37489 0.292304,0.31774 0.353401,0.3178 0.426626,4.2e-4 0.04701,-0.20373 -0.11713,-0.57302 -0.364747,-0.82063 z m 9.892068,0.43699 1.235131,-0.0124 -1.322917,-0.51197 c -0.727604,-0.28158 -1.590216,-0.84156 -1.916915,-1.24439 -0.565018,-0.6967 -0.594062,-0.70415 -0.595312,-0.15274 -7.23e-4,0.31884 0.117748,0.65329 0.263269,0.74322 0.145521,0.0899 0.264583,0.46689 0.264583,0.83767 0,0.50604 0.104367,0.63411 0.418515,0.51356 0.230183,-0.0883 0.974324,-0.16617 1.653646,-0.17298 z m 22.374487,-10.56698 c 0.934654,-1.35082 1.724886,-2.88798 1.738125,-3.381 0.0049,-0.18388 0.114149,-0.54107 0.242692,-0.79375 0.93539,-1.83878 0.959927,-1.95509 0.485581,-2.30194 -0.251308,-0.18376 -1.598627,-0.41792 -2.994043,-0.52035 -1.395415,-0.10243 -2.706825,-0.25136 -2.914244,-0.33095 -0.307125,-0.11786 -0.327099,-0.0131 -0.107608,0.56416 0.432248,1.1369 0.315654,3.24803 -0.247677,4.48461 -0.616907,1.3542 -1.909383,2.80441 -2.499377,2.80441 -0.232657,0 -0.423013,0.11906 -0.423013,0.26458 0,0.14553 -0.208359,0.26568 -0.463021,0.26701 -0.254661,0.001 0.07774,0.26922 0.738661,0.59531 0.660925,0.32609 1.572273,0.86078 2.025219,1.18821 0.452945,0.32742 0.983751,0.59909 1.179568,0.60372 0.195818,0.005 0.585591,0.18209 0.866163,0.39435 0.48064,0.36362 0.540246,0.29812 1.031023,-1.1329 0.28649,-0.83535 0.890368,-2.05281 1.341951,-2.70547 z M 36.276891,126.4543 c -0.08621,-1.5266 -0.06262,-1.59368 0.661458,-1.88083 1.604124,-0.63615 1.528194,-0.55754 2.369737,-2.45313 0.30524,-0.68756 0.709457,-1.11054 1.237037,-1.29446 l 0.783645,-0.27318 -1.224468,-1.12425 c -0.823217,-0.75585 -1.224469,-1.33872 -1.224469,-1.77872 0,-1.00675 0.940065,-2.00573 2.061985,-2.19122 3.303201,-0.54612 5.075006,-2.16862 5.080289,-4.65219 l 0.0015,-0.69362 -2.844271,-0.12537 c -2.500457,-0.11021 -3.055256,-0.22626 -4.589686,-0.96002 -2.26457,-1.08292 -3.137845,-1.07781 -4.310428,0.0252 -0.502759,0.47295 -1.348711,1.21709 -1.879893,1.65365 -0.56048,0.46064 -1.303079,1.50419 -1.769509,2.48662 -0.677482,1.42697 -0.786505,1.93092 -0.694099,3.20841 0.06682,0.92376 0.277988,1.68391 0.540798,1.94672 0.237145,0.23715 0.514567,0.69836 0.616494,1.02492 0.101927,0.32656 0.526445,0.98484 0.943374,1.46285 0.416929,0.47801 0.758053,1.07927 0.758053,1.33614 0,0.25688 0.09899,0.58016 0.21998,0.7184 0.31004,0.35426 0.838353,2.30167 0.838353,3.09024 0,0.80584 1.18785,2.05573 1.954309,2.05639 0.516947,4.5e-4 0.552473,-0.11922 0.469835,-1.58258 z m 27.905215,1.09113 c -0.244377,-0.27004 -0.858143,-0.71383 -1.363924,-0.98621 -0.50578,-0.27238 -0.919601,-0.58723 -0.919601,-0.69966 0,-0.11242 -0.178593,-0.20441 -0.396875,-0.20441 -0.218281,0 -0.396875,-0.1352 -0.396875,-0.30044 0,-0.29767 -1.575148,1.34414 -1.583274,1.65028 -0.0023,0.0876 0.970038,0.23436 2.160805,0.32618 1.190767,0.0918 2.286142,0.28807 2.434167,0.43609 0.47266,0.47266 0.52718,0.28823 0.06558,-0.22183 z M 50.113324,126.2026 c 0.08372,-0.13547 0.03122,-0.32109 -0.116677,-0.41249 -0.147895,-0.0914 -0.268899,0.0194 -0.268899,0.2463 0,0.46475 0.158764,0.53318 0.385576,0.16619 z m 25.632066,-6.43443 c 0.430737,-0.45187 1.234442,-1.72474 1.234442,-1.95504 0,-0.10325 -0.288843,0.0836 -0.641872,0.41528 -0.61726,0.57989 -1.210212,0.56314 -1.210212,-0.0342 0,-0.15727 -0.183977,-0.42047 -0.408839,-0.58489 -0.368234,-0.26926 -0.366859,-0.39943 0.01384,-1.31057 0.232474,-0.55639 0.378256,-1.14488 0.323961,-1.30777 -0.112135,-0.3364 -0.987295,1.29573 -0.987295,1.84127 0,0.39503 -0.680625,0.48873 -0.905624,0.12468 -0.14406,-0.2331 0.447749,-2.32259 0.95743,-3.38039 0.150848,-0.31307 0.229217,-0.70437 0.174154,-0.86956 -0.09364,-0.28092 -1.610039,2.47404 -1.918403,3.48532 -0.08863,0.29064 0.199939,0.82445 0.786664,1.4552 0.509649,0.5479 1.189833,1.32252 1.511519,1.72138 0.677242,0.83972 0.657437,0.83233 1.070235,0.39928 z m -32.228209,-0.71605 c -0.08601,-0.13917 -0.331161,-0.18596 -0.544782,-0.10398 -0.546924,0.20987 -0.482474,0.35701 0.15638,0.35701 0.29963,0 0.474411,-0.11386 0.388402,-0.25303 z m 32.585058,-3.50075 c -0.08446,-0.21106 -0.147157,-0.14837 -0.159853,0.15985 -0.01149,0.27892 0.05105,0.43519 0.138965,0.34727 0.08792,-0.0879 0.09732,-0.31612 0.02089,-0.50712 z m 32.092121,101.41915 c -0.93429,-0.5005 -1.39197,-1.35704 -0.72512,-1.35704 0.20113,0 0.59682,0.17481 0.87929,0.38846 0.75382,0.57016 1.14356,0.49059 1.3351,-0.27255 0.17525,-0.69825 -0.56742,-2.76175 -0.99398,-2.76175 -0.12342,0 -0.2244,-0.12785 -0.2244,-0.28411 0,-0.15626 -0.65485,-1.05601 -1.45521,-1.99943 -1.37294,-1.61835 -1.78706,-2.47895 -1.19287,-2.47895 0.14429,0 0.41106,0.23812 0.59281,0.52916 0.18176,0.29104 0.4349,0.52917 0.56254,0.52917 0.36316,0 2.11861,1.89921 2.55475,2.76397 0.21625,0.42877 0.66108,1.07124 0.9885,1.42769 1.08446,1.18064 0.58087,3.41828 -0.8662,3.84879 -0.30227,0.0899 -0.93601,-0.0553 -1.45521,-0.33341 z m 4.97294,-1.3371 c -0.24743,-0.57112 -0.79368,-1.43432 -1.2139,-1.91823 -0.97587,-1.12378 -2.96027,-4.89825 -2.95485,-5.62034 0.002,-0.30314 -0.31375,-1.20601 -0.70229,-2.00637 -0.38853,-0.80037 -0.79729,-1.69333 -0.90835,-1.98438 -0.11106,-0.29104 -0.50098,-1.18401 -0.8665,-1.98437 -0.36552,-0.80037 -0.86048,-2.34818 -1.09993,-3.43958 -0.23944,-1.09141 -0.54552,-2.19112 -0.68017,-2.44381 -0.13465,-0.25269 -0.24481,-0.69214 -0.24481,-0.97657 0,-0.28443 -0.1087,-0.58433 -0.24156,-0.66644 -0.13286,-0.0821 -0.32618,-0.6501 -0.42959,-1.26221 -0.10342,-0.6121 -0.29237,-1.32585 -0.4199,-1.58611 -0.12753,-0.26026 -0.34869,-0.70612 -0.49148,-0.99081 -0.14278,-0.28468 -0.33702,-1.0017 -0.43163,-1.59336 -0.0946,-0.59167 -0.27544,-1.13967 -0.40185,-1.2178 -0.1264,-0.0781 -0.22983,-0.41031 -0.22983,-0.73819 0,-0.98308 -0.97617,-2.70012 -2.516469,-4.42637 -0.79875,-0.89518 -1.452276,-1.79117 -1.452276,-1.99109 0,-0.19992 -0.100134,-0.36349 -0.222521,-0.36349 -0.351269,0 -3.217062,-2.77495 -3.217062,-3.11509 0,-0.16823 -0.238125,-0.43332 -0.529167,-0.58908 -0.402179,-0.21524 -0.529166,-0.55399 -0.529166,-1.4116 0,-0.62062 0.103406,-1.24151 0.229792,-1.37975 0.126386,-0.13825 0.440218,-0.81691 0.697404,-1.50813 0.257187,-0.69122 0.570499,-1.25677 0.696249,-1.25677 0.125751,0 0.228638,-0.12701 0.228638,-0.28224 0,-0.23868 1.149294,-1.94489 1.592106,-2.36359 0.403141,-0.3812 1.053727,-1.62605 1.053727,-2.01624 0,-0.24605 0.27511,-0.81578 0.611354,-1.26608 0.336242,-0.4503 0.875672,-1.35451 1.198722,-2.00935 0.323049,-0.65484 0.931519,-1.66687 1.352159,-2.24896 0.42063,-0.58208 0.81687,-1.35599 0.88052,-1.71979 0.0637,-0.3638 0.20455,-0.86905 0.3131,-1.12278 0.14461,-0.33799 0.0404,-0.51937 -0.38968,-0.67847 -0.55856,-0.20663 -0.56463,-0.23958 -0.12511,-0.6791 0.3882,-0.3882 0.78368,-0.43843 2.47762,-0.31468 2.68058,0.19583 4.33845,0.43691 4.66152,0.67785 0.4295,0.3203 3.9881,0.57536 5.07914,0.36405 0.91387,-0.17701 0.94567,-0.20979 0.34621,-0.35697 -0.88335,-0.21688 -1.05307,-1.05745 -0.21923,-1.08579 0.3381,-0.0115 0.46589,-0.0809 0.28399,-0.15434 -0.52696,-0.21263 -0.38261,-0.8831 0.19013,-0.8831 0.35298,0 0.47205,-0.1272 0.36942,-0.39465 -0.0861,-0.2243 0.0296,-0.46412 0.26805,-0.55561 0.32961,-0.12649 0.35924,-0.27353 0.1383,-0.68635 -0.15464,-0.28896 -0.21135,-0.5952 -0.12602,-0.68053 0.19001,-0.19001 -2.90802,-1.26 -4.80863,-1.66079 -0.76399,-0.16111 -1.38907,-0.40354 -1.38907,-0.53875 0,-0.39499 2.62082,-0.26248 4.63021,0.2341 1.01865,0.25174 2.59891,0.87182 3.51169,1.37796 1.8768,1.04068 2.24758,1.73637 1.55254,2.91299 -0.23871,0.4041 -0.43402,0.92472 -0.43402,1.15693 0,0.23221 -0.1744,0.4222 -0.38756,0.4222 -0.21317,0 -0.51355,0.23539 -0.66753,0.5231 -0.39777,0.74324 -0.98615,0.99496 -2.77792,1.18845 -0.86456,0.0934 -1.70502,0.2802 -1.86769,0.41521 -0.18452,0.15313 -0.98426,0.0996 -2.12618,-0.14231 -3.15557,-0.6685 -2.91722,-0.89205 -3.0966,2.90432 -0.0858,1.81569 -0.26865,3.50259 -0.40636,3.74866 -0.20388,0.36432 0.40721,1.09892 3.29078,3.95593 1.94763,1.92969 3.54114,3.68596 3.54114,3.90281 0,0.21685 0.17265,0.73135 0.38367,1.14332 1.08682,2.12189 1.733,3.69097 1.733,4.20818 0,0.92438 0.58936,1.18362 3.35224,1.47457 2.59793,0.27358 10.27918,-0.0933 11.19985,-0.53488 0.21828,-0.1047 1.11125,-0.40981 1.98437,-0.67801 1.96549,-0.60376 2.27293,-0.71988 4.17442,-1.57677 0.84072,-0.37886 1.6969,-0.68883 1.90261,-0.68883 0.20572,0 0.44762,-0.11907 0.53755,-0.26459 0.0899,-0.14552 0.36486,-0.26531 0.61093,-0.26621 0.24607,-9e-4 0.78844,-0.17949 1.20526,-0.39688 0.41681,-0.21738 0.92283,-0.39524 1.12447,-0.39524 0.20165,0 0.36664,-0.11043 0.36664,-0.24539 0,-0.32015 5.42375,-2.92961 6.08919,-2.92961 0.28101,0 1.13926,-0.28662 1.90722,-0.63694 0.76796,-0.35032 1.99161,-0.83916 2.71921,-1.08632 0.7276,-0.24716 1.56104,-0.53804 1.85208,-0.64641 1.87162,-0.69688 2.78633,-0.85433 6.29585,-1.08376 4.9835,-0.32578 10.21752,0.0236 11.71899,0.78231 0.56934,0.28768 1.51141,0.73228 2.0935,0.98799 0.58208,0.25571 1.11786,0.53067 1.19062,0.61101 0.2182,0.24093 1.12392,0.76609 2.28543,1.32512 0.60214,0.28982 1.6737,1.0682 2.38125,1.72975 0.70755,0.66154 1.7627,1.44954 2.34478,1.7511 1.90576,0.98733 3.67416,2.31611 5.49011,4.12527 0.98226,0.9786 1.78593,1.87872 1.78593,2.00027 0,0.12155 0.41672,0.65009 0.92605,1.17452 0.50932,0.52443 0.93103,1.14361 0.93713,1.37595 0.006,0.23234 0.36675,1.01774 0.80145,1.74535 0.94333,1.57895 1.83329,3.49052 1.83329,3.93777 0,0.17711 0.12888,0.4509 0.2864,0.60841 0.7604,0.7604 0.98648,14.52739 0.25065,15.26322 -0.14985,0.14986 -0.27247,0.52647 -0.27247,0.83692 0,0.31044 -0.0893,0.65374 -0.19843,0.76288 -0.10914,0.10914 -0.21577,0.51594 -0.23695,0.90399 -0.1559,2.85615 -0.60303,5.19601 -1.05626,5.52742 -0.36364,0.2659 -1.4795,0.35068 -4.32781,0.32883 -5.36648,-0.0412 -5.02846,0.12166 -5.02846,-2.42231 v -2.10904 l -1.78594,0.19475 c -2.70417,0.29489 -69.34787,0.21596 -70.44532,-0.0834 l -0.92604,-0.25263 1.19063,-0.16076 c 2.85763,-0.38584 23.71633,-0.72804 42.8625,-0.7032 21.65365,0.0281 29.16485,0.20848 29.66886,0.7125 0.1621,0.1621 0.36925,0.98837 0.46033,1.83616 l 0.1656,1.54143 3.57817,0.0732 3.57817,0.0732 0.33344,-1.26385 c 0.18339,-0.69512 0.51871,-1.79963 0.74515,-2.45447 1.37342,-3.97187 1.45814,-4.61005 1.33262,-10.03864 -0.11852,-5.12607 -0.26646,-6.79705 -0.69243,-7.82074 -0.1211,-0.29104 -0.42908,-1.12448 -0.68439,-1.85208 -0.25531,-0.7276 -0.66581,-1.62057 -0.91221,-1.98437 -0.61803,-0.9125 -1.32539,-2.39705 -1.32539,-2.78162 0,-0.17549 -0.41609,-0.72274 -0.92464,-1.21612 -0.50854,-0.49338 -1.29267,-1.43284 -1.74249,-2.08768 -0.44982,-0.65484 -1.40028,-1.60734 -2.11213,-2.11667 -0.71185,-0.50932 -1.29694,-1.01534 -1.30021,-1.12448 -0.003,-0.10914 -0.16609,-0.19843 -0.36182,-0.19843 -0.19573,0 -0.57528,-0.24245 -0.84345,-0.53877 -0.26816,-0.29633 -0.9885,-0.76036 -1.60075,-1.03118 -0.61225,-0.27083 -1.69121,-1.04019 -2.3977,-1.7097 -1.34267,-1.27238 -7.72181,-4.65785 -8.77666,-4.65785 -0.30053,0 -0.62001,-0.11907 -0.70995,-0.26459 -0.0899,-0.14552 -0.44854,-0.26458 -0.79691,-0.26458 -0.34837,0 -0.9229,-0.13191 -1.27675,-0.29313 -0.72884,-0.33209 -9.79299,0.10641 -10.32442,0.49946 -0.16605,0.12282 -0.95676,0.3787 -1.75712,0.56862 -0.80037,0.18993 -1.8124,0.4919 -2.24896,0.67106 -0.43656,0.17915 -1.4486,0.53903 -2.24896,0.79974 -0.80037,0.2607 -1.56832,0.57643 -1.70656,0.70163 -0.13825,0.12519 -0.56538,0.22762 -0.94917,0.22762 -0.58297,0 -3.64726,1.32312 -5.67865,2.45195 -1.93666,1.0762 -2.84861,1.5168 -3.13948,1.5168 -0.18335,0 -0.95037,0.29766 -1.70449,0.66146 -0.75413,0.3638 -1.46102,0.66254 -1.57087,0.66388 -0.10986,0.001 -0.79505,0.29526 -1.52266,0.65318 -0.7276,0.35792 -1.56699,0.65449 -1.86531,0.65904 -0.29832,0.005 -0.66395,0.12982 -0.81251,0.27839 -0.14856,0.14856 -1.09511,0.33652 -2.10344,0.41769 -1.00832,0.0812 -2.07144,0.24857 -2.36249,0.37202 -1.61679,0.68575 -9.38927,0.89016 -11.64166,0.30615 -0.72761,-0.18865 -1.97776,-0.43897 -2.77813,-0.55627 -2.8339,-0.41533 -11.28891,-5.13239 -12.18828,-6.79985 -0.16796,-0.31141 -0.6197,-0.72204 -1.00386,-0.91253 -0.98692,-0.48935 -2.678878,-2.12257 -2.703746,-2.60988 -0.01749,-0.34279 -0.04551,-0.34678 -0.172361,-0.0245 -0.186777,0.47447 -0.411776,0.75411 -1.962355,2.43891 -1.190798,1.29387 -1.857622,2.89411 -1.285456,3.08483 0.15153,0.0505 0.422212,0.23507 0.601514,0.41012 0.179302,0.17505 0.702507,0.47219 1.162678,0.66031 0.46017,0.18812 1.242083,0.77841 1.737583,1.31175 1.210284,1.3027 1.980393,1.89575 2.461763,1.89575 0.21987,0 0.90312,0.46097 1.51833,1.02439 1.11749,1.0234 3.14205,2.37161 5.02879,3.34882 0.5499,0.28481 1.29928,0.77516 1.6653,1.08967 0.36602,0.31451 1.34486,0.88849 2.17519,1.27551 0.83034,0.38702 1.71645,0.81515 1.96913,0.95139 0.25269,0.13624 0.64126,0.24772 0.86349,0.24772 0.22223,0 0.6108,0.11329 0.86349,0.25176 0.45913,0.25161 1.49287,0.68931 3.23755,1.37086 1.90023,0.74231 8.4669,0.41233 10.98021,-0.55176 0.59467,-0.22811 2.83488,-0.87228 4.63021,-1.33141 1.75276,-0.44823 2.94296,-0.81716 3.83646,-1.18918 0.43656,-0.18177 1.32953,-0.53918 1.98437,-0.79426 0.65485,-0.25507 1.78765,-0.74749 2.51734,-1.09427 0.72969,-0.34677 1.53337,-0.63049 1.78594,-0.63049 0.25257,0 0.45922,-0.11907 0.45922,-0.26459 0,-0.14552 0.36253,-0.26458 0.80562,-0.26458 0.44309,0 2.0337,-0.59531 3.53468,-1.32292 1.50099,-0.7276 2.86486,-1.32291 3.03084,-1.32291 0.16598,0 0.30178,-0.10789 0.30178,-0.23976 0,-0.13186 0.59518,-0.32161 1.32262,-0.42166 0.72744,-0.10005 1.38931,-0.28982 1.47082,-0.4217 0.0815,-0.13189 0.3793,-0.2398 0.66176,-0.2398 0.28245,0 0.51355,-0.11906 0.51355,-0.26458 0,-0.14552 0.21163,-0.26459 0.47029,-0.26459 0.25867,0 0.70515,-0.16015 0.99219,-0.35589 0.28704,-0.19574 1.41486,-0.67939 2.50627,-1.07477 1.09141,-0.39538 2.19112,-0.83055 2.44381,-0.96703 0.25268,-0.13648 0.89332,-0.24814 1.42363,-0.24814 0.53031,0 2.15216,-0.18887 3.6041,-0.4197 1.45195,-0.23084 3.25209,-0.36778 4.00033,-0.30431 3.65195,0.30978 7.287,0.77705 8.23959,1.05917 1.76161,0.52173 4.08149,1.74326 4.89902,2.57958 0.42443,0.43419 0.86947,0.78943 0.98899,0.78943 0.30011,0 2.70957,2.47187 2.71683,2.78721 0.003,0.14052 0.24744,0.55315 0.54267,0.91695 0.74069,0.91271 3.15561,4.50206 3.15561,4.69025 0,0.33327 1.33999,2.96199 1.58802,3.11528 0.14524,0.0898 0.26407,0.35813 0.26407,0.59636 0,0.81619 -1.71546,-1.18665 -2.08323,-2.43223 -0.19253,-0.65205 -0.52961,-1.33456 -0.74906,-1.51669 -0.21946,-0.18214 -1.15756,-1.47787 -2.08466,-2.87941 -1.44315,-2.18168 -2.75154,-3.63021 -4.72578,-5.23197 -1.78484,-1.44811 -5.48594,-2.95617 -7.25503,-2.95617 -0.58059,0 -1.98697,-0.13119 -3.12529,-0.29154 -1.54319,-0.21738 -3.01192,-0.21025 -5.77383,0.028 -3.72353,0.32124 -4.77368,0.52338 -6.48229,1.24777 -0.50932,0.21594 -1.16417,0.48993 -1.45521,0.60887 -0.29104,0.11895 -1.23691,0.53796 -2.10193,0.93114 -0.86502,0.39318 -2.02588,0.77565 -2.57969,0.84993 -0.55381,0.0743 -1.00692,0.23844 -1.00692,0.3648 0,0.12636 -0.15631,0.22975 -0.34736,0.22975 -0.19104,0 -0.96437,0.29766 -1.71849,0.66146 -0.75413,0.3638 -1.49079,0.66146 -1.63702,0.66146 -0.14623,0 -0.26588,0.0991 -0.26588,0.22031 0,0.12117 -0.71438,0.44857 -1.5875,0.72755 -0.87313,0.27898 -1.5875,0.59656 -1.5875,0.70573 0,0.10917 -0.25191,0.19849 -0.5598,0.19849 -0.73388,0 -3.1856,0.84023 -3.60497,1.23545 -0.18057,0.17018 -0.77588,0.44841 -1.32292,0.61829 -0.54703,0.16988 -1.60178,0.59619 -2.34389,0.94736 -0.74211,0.35116 -1.59829,0.63848 -1.90262,0.63848 -0.30432,0 -0.62691,0.11907 -0.71684,0.26459 -0.0899,0.14552 -0.56619,0.26458 -1.05834,0.26458 -0.49214,0 -0.96199,0.1087 -1.0441,0.24156 -0.0821,0.13286 -0.6243,0.32181 -1.20485,0.4199 -0.58056,0.0981 -1.12275,0.28704 -1.20486,0.41989 -0.0821,0.13286 -0.38201,0.24157 -0.66643,0.24157 -0.28443,0 -0.72389,0.10499 -0.97658,0.23332 -0.60498,0.30726 -2.71592,0.83301 -4.69276,1.16879 -2.70975,0.46027 -7.58126,0.23263 -7.95477,-0.37173 -0.0804,-0.13015 -0.32959,-0.23663 -0.55367,-0.23663 -0.3816,0 -1.75709,-0.53104 -2.79891,-1.08058 -0.25268,-0.13329 -0.62506,-0.24234 -0.8275,-0.24234 -0.20243,0 -0.51628,-0.17859 -0.69744,-0.39688 -0.18116,-0.21828 -0.54194,-0.39687 -0.80173,-0.39687 -0.42358,0 -3.10224,-1.23479 -3.43161,-1.58188 -0.18825,-0.19839 -3.20354,-2.18663 -3.83645,-2.52971 -1.18644,-0.64313 -2.17585,-1.35955 -3.2553,-2.3571 -0.62624,-0.57874 -1.45968,-1.18994 -1.85208,-1.35823 -0.392399,-0.16828 -1.522009,-1.09544 -2.510244,-2.06036 -0.988233,-0.96491 -1.970499,-1.75439 -2.182813,-1.75439 -0.212313,0 -0.394393,-0.14883 -0.404621,-0.33073 -0.01023,-0.1819 -0.120922,-0.0926 -0.245987,0.19844 -0.346793,0.80703 -0.319094,0.88419 0.463021,1.28973 0.400183,0.20751 1.168187,0.80588 1.706678,1.32972 0.53849,0.52383 1.104037,0.95243 1.256771,0.95243 0.152733,0 0.278731,0.0893 0.279995,0.19843 0.0013,0.10914 0.804931,1.04617 1.78594,2.08228 1.9881,2.09979 2.44509,2.75943 2.44509,3.5293 0,0.28904 0.2839,1.15385 0.63089,1.92182 0.34699,0.76796 0.78157,1.81301 0.96573,2.32233 0.18417,0.50933 0.48075,1.28323 0.65907,1.71979 0.66881,1.63736 1.1839,3.66664 1.1839,4.66419 0,0.56734 0.10905,1.23828 0.24234,1.49097 0.47881,0.90773 1.08057,2.39696 1.08057,2.67418 0,0.15548 0.21758,0.67327 0.48352,1.15064 0.58991,1.05894 1.89773,4.71097 1.89773,5.29931 0,0.38121 1.20947,3.30031 1.86378,4.49832 0.77044,1.41062 0.93951,1.67007 1.19846,1.83914 0.15626,0.10202 0.4453,0.69733 0.64232,1.32291 0.19702,0.62559 0.51592,1.32568 0.70866,1.55577 0.19274,0.23009 0.2708,0.49798 0.17347,0.59532 -0.39671,0.39671 -0.78136,0.12231 -1.20755,-0.86143 z m 1.74454,-36.73088 c -0.0979,-0.40018 -0.24903,-0.78713 -0.33577,-0.85989 -0.28555,-0.23955 -1.62127,-3.03532 -1.61704,-3.38461 0.005,-0.43254 -0.32692,-0.83889 -2.0255,-2.47795 -0.7525,-0.72613 -1.56176,-1.72817 -1.79835,-2.22676 -0.2366,-0.49858 -0.54076,-0.90652 -0.67593,-0.90652 -0.13516,0 -0.62496,-0.41672 -1.08843,-0.92604 -0.99901,-1.09784 -1.28682,-1.15702 -1.28682,-0.26458 0,0.88951 -0.42724,0.84291 -0.60652,-0.0661 -0.18339,-0.92993 0.0652,-3.72571 0.78481,-8.82563 0.12717,-0.90129 0.0874,-0.96373 -0.71636,-1.12448 -1.79684,-0.35937 -1.94029,-0.27991 -2.44336,1.35342 -0.25734,0.8355 -0.4657,1.66953 -0.46302,1.85341 0.003,0.18387 -0.10198,0.54106 -0.23256,0.79375 -0.13058,0.25268 -0.44983,0.99521 -0.70945,1.65005 -0.25961,0.65485 -0.72129,1.54782 -1.02594,1.98438 -1.013669,1.45258 -2.001699,3.51374 -1.857909,3.87586 0.22853,0.57555 3.774809,3.67137 6.013539,5.24969 0.69122,0.48731 1.25677,0.98491 1.25677,1.10576 0,0.12085 0.19107,0.21973 0.42459,0.21973 0.23353,0 0.97767,0.28529 1.65365,0.63397 0.67598,0.34868 1.82436,0.94349 2.55197,1.32181 0.7276,0.37831 1.50151,0.69704 1.71979,0.70828 0.21828,0.0112 0.75406,0.24117 1.19062,0.51094 1.16485,0.71981 1.49933,0.66824 1.28722,-0.19844 z m 1.52774,-23.35828 c -0.34354,-0.2862 -0.75034,-0.52036 -0.90399,-0.52036 -0.35226,0 -0.10783,0.24844 0.66404,0.67492 0.87387,0.48286 0.94787,0.43519 0.23995,-0.15456 z M 33.387816,200.4215 c -0.326371,-0.41491 -0.593402,-0.90234 -0.593402,-1.08318 0,-0.18084 -0.184488,-0.48191 -0.409973,-0.66904 -0.534053,-0.44323 -1.34601,-2.24088 -1.744362,-3.86198 -0.173876,-0.70759 -0.593719,-2.1762 -0.932985,-3.26356 -0.339266,-1.08737 -0.616847,-2.34348 -0.616847,-2.79136 0,-0.44787 -0.101677,-0.92743 -0.22595,-1.06567 -0.962238,-1.07043 -0.997493,-13.39102 -0.04463,-15.59719 0.125704,-0.29104 0.298683,-1.11967 0.384398,-1.84139 0.08571,-0.72173 0.273765,-1.43015 0.417889,-1.57427 0.144124,-0.14413 0.262044,-0.52886 0.262044,-0.85497 0,-0.32611 0.102996,-0.65659 0.228881,-0.73439 0.125884,-0.0778 0.291452,-0.60796 0.367928,-1.17813 0.136202,-1.01546 1.940842,-4.02159 2.673837,-4.45402 0.196475,-0.11591 0.562519,-0.64873 0.813431,-1.18404 0.42234,-0.90105 2.565386,-2.86316 3.127181,-2.86316 0.134887,0 0.732091,-0.41672 1.32712,-0.92604 0.59503,-0.50933 1.181869,-0.92605 1.304088,-0.92605 0.122219,0 0.666335,-0.27861 1.209146,-0.61913 1.083779,-0.67988 1.618023,-0.84826 4.558805,-1.43676 2.326639,-0.4656 10.45638,-0.73031 11.238139,-0.36593 0.294701,0.13737 1.250195,0.39615 2.12332,0.57509 2.855357,0.58515 3.571875,0.80462 3.571875,1.09404 0,0.17112 -0.238173,0.21543 -0.595313,0.11074 -2.622272,-0.76865 -8.672308,-1.22822 -11.987689,-0.91059 -5.910079,0.5662 -5.329156,0.43849 -7.922207,1.7417 -2.551252,1.28222 -3.273903,1.70077 -3.58625,2.07712 -0.173251,0.20876 -0.46501,0.37956 -0.648353,0.37956 -0.431194,0 -2.399577,1.96494 -3.246817,3.24114 -0.36228,0.54571 -0.748045,0.99219 -0.857256,0.99219 -0.109211,0 -0.273885,0.20836 -0.365944,0.46302 -0.167297,0.4628 -0.298899,0.69356 -1.415693,2.48236 -0.327421,0.52445 -0.595312,1.17425 -0.595312,1.44401 0,0.26976 -0.226546,1.26774 -0.503435,2.21773 -0.276889,0.94999 -0.704472,2.85835 -0.950183,4.2408 -0.735366,4.13739 -0.326253,14.56143 0.669776,17.06562 0.379379,0.95383 0.801322,3.06496 0.658702,3.29572 -0.07678,0.12423 0.08529,0.68367 0.360159,1.2432 0.274864,0.55953 0.71655,1.55311 0.981525,2.20796 0.264975,0.65484 0.761533,1.64589 1.103464,2.20233 0.817066,1.32965 0.70901,2.20473 -0.139106,1.12652 z m 159.272454,-2.74776 c -0.33216,-0.39236 -0.67059,-1.02144 -0.75207,-1.39795 -0.0815,-0.37651 -0.90492,-1.42436 -1.8299,-2.32856 -0.92497,-0.90419 -1.75542,-1.87606 -1.84545,-2.1597 -0.09,-0.28365 -0.24967,-0.51572 -0.35477,-0.51572 -0.18365,0 -1.7184,-1.26 -3.22278,-2.64583 -0.80404,-0.74069 -2.73374,-1.84719 -6.07547,-3.48373 -1.82153,-0.89205 -2.65124,-1.13729 -4.36562,-1.29039 -3.44346,-0.30749 -10.39656,-0.0478 -11.77389,0.43983 -2.19526,0.77713 -4.29741,1.68067 -4.49799,1.93331 -0.0728,0.0916 -0.66807,0.38392 -1.32291,0.64951 -0.65485,0.26558 -1.39737,0.58971 -1.65006,0.7203 -0.25269,0.13058 -0.62055,0.23742 -0.81748,0.23742 -0.19692,0 -1.52731,0.59531 -2.95642,1.32292 -1.42911,0.7276 -2.75789,1.32291 -2.95284,1.32291 -0.19495,0 -0.35445,0.11367 -0.35445,0.2526 0,0.13892 -0.44649,0.33412 -0.99219,0.43376 -0.5457,0.0996 -1.86409,0.58129 -2.92974,1.07032 -1.06565,0.48904 -2.04954,0.88916 -2.1864,0.88916 -0.13687,0 -0.4556,0.10586 -0.70829,0.23525 -1.75542,0.89885 -2.96575,1.2771 -6.01568,1.87997 -0.87312,0.17259 -2.06375,0.42806 -2.64583,0.56771 -1.96499,0.47143 -6.07433,0.99561 -7.80521,0.99561 -1.77896,0 -5.95219,-0.54011 -7.80521,-1.01017 -1.22029,-0.30955 -4.13058,-0.98365 -5.29166,-1.22569 -0.97871,-0.20401 -5.60561,-2.41736 -5.8374,-2.7924 -0.0928,-0.15014 -0.10885,-0.33286 -0.0357,-0.40602 0.12184,-0.12185 0.6867,0.10134 3.75641,1.48424 2.17531,0.97998 2.52548,1.06655 8.46667,2.09315 4.28907,0.74113 9.06759,0.73977 12.96458,-0.004 1.60073,-0.30538 3.4462,-0.65305 4.10104,-0.77261 2.09606,-0.38268 3.85042,-0.90124 4.51396,-1.33424 0.35498,-0.23164 0.97601,-0.5026 1.38007,-0.60212 0.40405,-0.0995 1.37869,-0.47555 2.16586,-0.8356 0.78716,-0.36006 1.67113,-0.65465 1.96438,-0.65465 0.43928,0 3.15605,-1.21409 4.7924,-2.14166 0.21828,-0.12373 0.81359,-0.41686 1.32292,-0.6514 0.50932,-0.23454 1.13278,-0.53548 1.38547,-0.66877 0.25269,-0.13329 0.62201,-0.24234 0.82072,-0.24234 0.19871,0 1.79858,-0.71553 3.55527,-1.59008 1.75668,-0.87454 3.59002,-1.6652 4.07407,-1.75702 0.48405,-0.0918 0.99915,-0.25516 1.14467,-0.36297 1.07692,-0.79786 13.1266,-0.80457 15.08125,-0.008 0.29105,0.11854 1.06495,0.42998 1.7198,0.69208 0.65484,0.2621 1.56963,0.7526 2.03286,1.09001 0.46324,0.3374 0.90741,0.61346 0.98705,0.61346 0.30381,0 3.23863,1.99035 4.12351,2.7965 0.5095,0.46417 1.24387,1.12617 1.63192,1.47112 0.62848,0.55866 1.15035,1.1427 3.65397,4.08922 0.71224,0.83823 2.18538,3.76726 2.06491,4.10564 -0.0409,0.115 -0.3462,-0.11194 -0.67837,-0.5043 z m -89.41412,-43.10535 c -0.97398,-0.12123 -1.75268,-1.03877 -2.05127,-2.41702 -0.10583,-0.48848 -0.59689,-1.31696 -1.09124,-1.84106 -0.494339,-0.5241 -0.898809,-1.08685 -0.898809,-1.25056 0,-0.69699 0.40182,-0.55666 1.568229,0.54769 0.93015,0.88067 1.32338,1.50009 1.5746,2.48028 0.29637,1.15637 0.45423,1.35423 1.37413,1.7223 0.9699,0.38808 1.44937,1.0018 0.70856,0.90695 -0.1819,-0.0233 -0.71479,-0.0901 -1.1842,-0.14858 z m -8.545783,-16.89193 c -0.141919,-0.37327 -0.258035,-0.82303 -0.258035,-0.99946 0,-0.17643 -0.201623,-0.60863 -0.448052,-0.96046 -0.246429,-0.35183 -0.76306,-1.24152 -1.148069,-1.9771 -1.255649,-2.39898 -1.707748,-3.18657 -1.918983,-3.343 -0.304775,-0.22571 -0.563454,-2.09554 -0.289827,-2.09499 0.233168,4.8e-4 1.688264,2.1429 1.688264,2.48573 0,0.1 0.236441,0.43555 0.525423,0.74574 0.717632,0.77028 1.794661,2.87757 2.094095,4.09724 0.135728,0.55286 0.367457,1.39215 0.514953,1.86509 0.217998,0.69901 0.196148,0.8599 -0.11678,0.8599 -0.211725,0 -0.50107,-0.30541 -0.642989,-0.67869 z M 91.26634,125.45671 c -5.45e-4,-0.10914 -0.566092,-0.42665 -1.256771,-0.70558 -1.232555,-0.49777 -2.97557,-1.97536 -2.97557,-2.52245 0,-0.39357 0.689177,-0.34447 1.112932,0.0793 0.196338,0.19634 1.216874,0.86988 2.267857,1.49677 1.879028,1.12078 2.423846,1.85042 1.381711,1.85042 -0.291042,0 -0.529613,-0.0893 -0.530159,-0.19844 z"
       id="path2" /></g></svg>
