<?xml version="1.0" encoding="UTF-8" standalone="no"?>
<!-- Created with Inkscape (http://www.inkscape.org/) -->

<svg
   width="89.574165mm"
   height="79.695602mm"
   viewBox="0 0 89.574175 79.695602"
   version="1.1"
   id="svg1"
   xml:space="preserve"
   xmlns="http://www.w3.org/2000/svg"
   xmlns:svg="http://www.w3.org/2000/svg"><defs
     id="defs1" /><g
     id="layer1"
     transform="translate(-196.0664,-49.194554)"><path
       style="fill:#4d4d4d;stroke-width:0.685096"
       d="m 199.02243,128.65445 c -0.63441,-0.55117 -0.22297,-1.13745 1.24863,-1.77919 0.45593,-0.19883 0.90588,-0.3877 0.99988,-0.4197 0.094,-0.032 0.44013,-0.14627 0.76917,-0.25389 0.77904,-0.25481 1.81943,-0.80916 2.66027,-1.41747 1.05316,-0.76192 1.79545,-1.48168 2.41878,-2.34534 l 0.35428,-0.49088 -0.19554,-0.0692 c -0.1075,-0.0381 -0.5032,-0.0984 -0.87923,-0.13414 -3.66669,-0.3483 -5.06115,-0.57755 -6.28146,-1.0327 -1.83884,-0.68588 -3.00678,-1.57883 -3.69111,-2.82202 l -0.3496,-0.63513 -0.009,-0.6232 c -0.008,-0.52181 0.0246,-0.68177 0.1991,-0.9834 0.4972,-0.85913 2.56674,-2.1735 4.32101,-2.74434 0.43929,-0.14293 1.54805,-0.33342 2.26474,-0.38909 0.67993,-0.0529 0.8022,-0.13498 0.51278,-0.34466 -0.80661,-0.58437 -1.03097,-0.75316 -1.49134,-1.12199 -1.31664,-1.05483 -2.53234,-2.40836 -2.99561,-3.33526 -0.0704,-0.14085 -0.128,-0.29635 -0.128,-0.34555 0,-0.0492 -0.0325,-0.12191 -0.0724,-0.1616 -0.0397,-0.0396 -0.12284,-0.31985 -0.1846,-0.62261 -0.0911,-0.44672 -0.0921,-0.63278 -0.005,-0.98726 0.32779,-1.33118 1.31216,-2.23685 2.9503,-2.71445 0.59259,-0.17278 1.60115,-0.31368 2.95183,-0.4124 1.83807,-0.13435 2.06411,-0.1527 4.31584,-0.35019 1.1751,-0.10304 2.4442,-0.22464 2.82024,-0.27018 0.37603,-0.0456 1.05962,-0.0678 1.51908,-0.0493 0.70469,0.0282 0.86583,0.0589 1.03006,0.19591 l 0.19468,0.16254 0.19427,-0.58774 c 0.21565,-0.65243 0.2911,-0.81561 0.83367,-1.802824 0.44081,-0.8021 0.64787,-1.12951 0.73637,-1.16448 0.0353,-0.0139 0.0641,-0.059 0.0641,-0.1002 0,-0.0691 0.40711,-0.62863 0.65346,-0.89797 0.0581,-0.0635 0.35589,-0.3936 0.66161,-0.73334 0.30572,-0.33974 1.55003,-1.50167 2.76516,-2.58207 1.21512,-1.0804 2.38002,-2.152316 2.58867,-2.382046 0.20864,-0.229734 0.4042,-0.434764 0.43459,-0.455654 0.17326,-0.11911 1.29452,-1.76006 1.49554,-2.18872 0.13083,-0.27901 0.37854,-0.695227 0.55046,-0.924965 0.26448,-0.353386 0.32149,-0.505347 0.37035,-0.98725 0.0317,-0.313263 0.0925,-0.825884 0.1349,-1.139149 0.0425,-0.313267 0.11902,-0.877142 0.17018,-1.253064 0.35484,-2.607381 0.44251,-3.642365 0.48243,-5.695738 0.0223,-1.151555 0.004,-1.942539 -0.0455,-2.010298 -0.0453,-0.06141 -0.0979,-0.09562 -0.11665,-0.07594 -0.0187,0.01969 -0.18692,0.240818 -0.37362,0.491427 -1.05223,1.412416 -1.5448,3.100043 -1.33528,4.574906 0.0995,0.699942 0.0638,0.824513 -0.21348,0.746312 -0.16239,-0.04579 -0.70035,-1.023225 -1.30904,-2.378413 -0.0423,-0.09397 -0.12035,-0.264855 -0.17364,-0.37972 -0.0534,-0.114858 -0.13022,-0.285734 -0.17093,-0.379713 -0.0408,-0.09398 -0.11051,-0.247762 -0.15519,-0.341741 -0.10587,-0.22287 -0.34808,-0.868745 -0.43434,-1.158135 -0.57217,-1.919446 -0.68095,-2.521612 -0.68095,-3.769399 0,-0.946418 0.0427,-1.256358 0.31258,-2.268088 0.15228,-0.570907 0.67672,-2.026376 0.80004,-2.220308 0.0461,-0.07252 0.0838,-0.193849 0.0838,-0.269596 0,-0.07576 0.0315,-0.170198 0.07,-0.209877 0.0385,-0.03965 0.19654,-0.43098 0.35122,-0.869547 0.15466,-0.438573 0.31544,-0.875908 0.35729,-0.97185 0.10065,-0.230834 0.0963,-0.395129 -0.01,-0.395129 -0.0476,0 -0.24941,0.06547 -0.44866,0.145502 -0.19925,0.08003 -0.51611,0.186918 -0.70413,0.237537 -0.18802,0.05064 -0.43019,0.121847 -0.53816,0.158277 -0.27112,0.09146 -1.70442,0.0836 -1.76931,-0.0096 -0.0291,-0.04178 -0.12362,-0.07594 -0.21016,-0.07594 -0.23569,0 -0.72757,-0.478111 -0.84247,-0.818883 -0.0556,-0.164954 -0.10109,-0.43869 -0.10109,-0.608307 0,-0.26656 0.0347,-0.323747 0.25564,-0.421711 l 0.25565,-0.113328 0.13704,0.206171 c 0.56412,0.848602 1.9084,0.734375 3.19355,-0.271365 1.46938,-1.149902 2.36063,-2.271245 2.82509,-3.554405 0.10586,-0.29238 0.22293,-0.59995 0.26023,-0.683486 0.0373,-0.08354 0.0921,-0.254413 0.12158,-0.379721 0.0296,-0.125301 0.0901,-0.381613 0.13463,-0.569572 0.0445,-0.187958 0.12082,-0.529705 0.16967,-0.759433 0.64143,-3.017092 1.12328,-4.252351 2.56248,-6.569082 0.15569,-0.250614 0.31507,-0.467054 0.35421,-0.480977 0.039,-0.01396 0.0711,-0.06518 0.0712,-0.113915 6e-5,-0.0487 0.0866,-0.180165 0.19229,-0.292077 0.10576,-0.111914 0.29739,-0.323057 0.42596,-0.469205 0.36701,-0.417165 1.57374,-1.172144 2.45827,-1.538005 0.5218,-0.215825 1.14308,-0.464909 1.47422,-0.591045 0.17627,-0.06715 0.4471,-0.17158 0.60186,-0.232073 0.66134,-0.258541 1.61892,-0.372384 3.17983,-0.378048 2.39908,-0.0088 4.63295,0.279464 5.61796,0.724735 0.0816,0.03688 0.18913,0.06707 0.23888,0.06707 0.18577,0 1.33719,0.756251 1.74983,1.149294 0.50799,0.483859 1.0665,1.132401 1.31558,1.527705 0.0987,0.156629 0.24927,0.395853 0.33461,0.531604 0.50355,0.801108 0.69535,1.532372 0.78511,2.993434 0.0801,1.304342 0.054,1.494774 -0.2995,2.184713 -0.10837,0.211576 -0.20824,0.470121 -0.22181,0.574543 -0.0136,0.104424 0.17975,0.743269 0.42961,1.41966 0.31865,0.862558 0.43739,1.289707 0.39764,1.430405 -0.0888,0.314506 -0.45218,0.567382 -0.81526,0.567382 -0.20169,0 -0.38298,0.05773 -0.50902,0.162073 l -0.19577,0.162068 0.0573,0.47574 c 0.0372,0.308953 0.0253,0.49332 -0.0339,0.5259 -0.0502,0.02758 -0.0926,0.176296 -0.094,0.330465 -0.003,0.320345 -0.10663,0.460428 -0.4599,0.622051 -0.2686,0.122892 -0.56209,0.488559 -0.5626,0.700936 -7.4e-4,0.323877 -0.28358,0.751058 -0.58799,0.888223 -0.56316,0.253767 -1.18995,0.335256 -1.86395,0.24233 -1.10407,-0.152226 -1.99008,-0.610504 -2.95386,-1.527847 l -0.57688,-0.549079 v 0.223976 c 0,0.123182 -0.0263,0.247392 -0.0585,0.276021 -0.26869,0.238765 -0.38235,1.716618 -0.18915,2.459314 0.15735,0.604833 0.24317,0.916361 0.34551,1.254155 0.11192,0.369434 0.43896,1.295275 0.47325,1.339765 0.0126,0.01633 0.0912,-0.04353 0.17461,-0.133155 l 0.15171,-0.162893 0.53757,0.304024 c 0.29566,0.167215 0.55132,0.304024 0.56813,0.304024 0.0168,0 0.29408,0.142507 0.61616,0.316682 1.35924,0.735056 2.79235,1.366024 4.38807,1.931999 0.92907,0.329526 0.99067,0.327932 1.05673,-0.02732 0.12349,-0.66386 0.0726,-0.913243 -0.24784,-1.214916 -0.36615,-0.344666 -0.43977,-0.566651 -0.301,-0.907649 0.0677,-0.166484 0.076,-0.290385 0.0235,-0.349264 -0.0449,-0.05018 -0.0806,-0.433743 -0.0796,-0.852348 l 0.002,-0.761094 -0.44031,-0.395414 c -0.3392,-0.3046 -0.44034,-0.449328 -0.44034,-0.630168 0,-0.238423 0.3359,-0.744103 0.67376,-1.014345 0.0994,-0.07957 0.18088,-0.187783 0.18088,-0.240482 0,-0.0527 0.0336,-0.107212 0.0748,-0.121136 0.0412,-0.01388 0.2761,-0.298709 0.52215,-0.632855 l 0.44736,-0.607544 -0.0491,-0.641393 c -0.052,-0.678727 0.0274,-1.123726 0.29535,-1.655066 0.0892,-0.177062 0.16233,-0.335262 0.16233,-0.351549 0,-0.01627 0.19231,-0.390072 0.42733,-0.830624 0.23502,-0.440549 0.4273,-0.82386 0.4273,-0.851811 0,-0.02797 0.0725,-0.14153 0.16098,-0.252398 0.0885,-0.110873 0.18129,-0.355366 0.20609,-0.543325 0.0547,-0.414259 0.13464,-0.74577 0.22898,-0.949292 0.0387,-0.08353 0.11966,-0.271495 0.17987,-0.417688 0.25246,-0.612906 1.13623,-1.435676 1.54787,-1.441035 0.0795,-0.0013 0.16828,-0.03604 0.19734,-0.07783 0.0291,-0.04178 0.14614,-0.07594 0.2602,-0.07594 0.11405,0 0.37739,-0.04043 0.58516,-0.08979 0.38065,-0.09047 1.14736,-0.0039 1.52504,0.172432 0.2087,0.09738 0.34093,0.08694 0.65343,-0.0516 0.14991,-0.06646 0.4731,-0.149139 0.71819,-0.183729 0.24508,-0.03462 0.71482,-0.102288 1.04385,-0.150443 0.82436,-0.120644 1.65719,-0.04365 2.47839,0.229039 0.094,0.03119 0.32476,0.09213 0.51278,0.135356 0.18801,0.0432 0.50013,0.115466 0.6936,0.160538 0.19348,0.04508 0.46701,0.08197 0.60785,0.08197 0.35554,0 1.40884,0.398868 1.90092,0.719865 0.96571,0.629935 1.8015,1.782698 2.0333,2.804431 0.0369,0.163197 0.12402,0.321656 0.19333,0.352132 0.0693,0.03048 0.32558,0.132501 0.56948,0.226712 1.23964,0.478841 2.00938,1.777442 1.87078,3.156117 -0.12996,1.292749 -0.80055,2.141985 -1.80585,2.28695 l -0.29475,0.04249 -0.12033,0.360044 c -0.17751,0.531164 -0.6015,1.18575 -1.11813,1.726226 -0.3654,0.382285 -0.89639,1.057221 -0.89717,1.140421 -5e-4,0.05219 -0.03,0.09494 -0.0654,0.09494 -0.0356,0 -0.11637,0.111061 -0.17963,0.246811 -0.0633,0.135751 -0.18109,0.383511 -0.26182,0.55059 -0.13944,0.288583 -0.21606,0.508032 -0.42728,1.223899 -0.13335,0.452001 -0.11605,2.143581 0.0268,2.62651 0.15286,0.516465 0.383,1.03468 0.56658,1.275758 0.0796,0.104424 0.15968,0.227056 0.17813,0.272527 0.0808,0.19895 0.7253,1.017367 0.80271,1.019221 0.14322,0.0032 0.6468,0.381825 1.41238,1.061292 0.85578,0.759524 1.33446,1.521323 1.69478,2.697179 0.17986,0.586943 0.35395,1.500373 0.34531,1.811779 l -0.009,0.314636 -0.0828,-0.265805 c -0.0455,-0.146187 -0.11855,-0.393954 -0.1622,-0.550585 -0.19762,-0.709015 -0.27222,-0.939301 -0.34409,-1.062179 -0.0425,-0.07252 -0.0771,-0.184059 -0.0771,-0.247846 0,-0.06381 -0.0339,-0.175313 -0.0754,-0.247845 -0.0415,-0.07252 -0.12718,-0.234392 -0.19036,-0.359701 -0.37128,-0.736384 -1.35283,-1.785789 -2.12708,-2.274113 -0.16451,-0.103765 -0.33758,-0.215723 -0.38458,-0.248808 -0.16711,-0.117609 -1.20193,-0.54346 -1.53832,-0.633048 -0.18801,-0.05005 -0.43018,-0.120846 -0.53816,-0.157269 -0.10793,-0.03643 -0.32336,-0.06624 -0.47866,-0.06624 -0.15528,0 -0.40344,-0.03752 -0.55147,-0.08337 -0.21939,-0.06797 -0.26914,-0.124552 -0.26914,-0.306156 0,-0.133775 0.0545,-0.241341 0.13616,-0.269222 0.17055,-0.05812 1.22588,0.113516 1.76537,0.287162 0.43378,0.139627 0.44796,0.136764 0.32791,-0.06611 -0.66403,-1.122144 -0.94011,-2.019221 -0.94446,-3.068873 -0.003,-0.716313 0.0515,-1.065119 0.31273,-1.999304 0.07,-0.250609 0.1479,-0.534284 0.17297,-0.630389 l 0.0456,-0.174725 -0.23339,0.05206 c -0.24265,0.05412 -1.05389,-0.08588 -1.39433,-0.240625 -0.49304,-0.224104 -1.21412,-0.986439 -1.21412,-1.283578 0,-0.06322 -0.0577,-0.114949 -0.12819,-0.114949 -0.0704,0 -0.1282,0.05347 -0.1282,0.118869 0,0.206538 -0.867,0.901857 -1.26967,1.018258 -0.32426,0.09372 -0.40136,0.09316 -0.59701,-0.0045 -0.33995,-0.169559 -0.4557,-0.426154 -0.4008,-0.888455 0.052,-0.438005 0.19201,-0.699897 0.37413,-0.699897 0.11923,0 0.10652,0.287278 -0.0351,0.789529 l -0.062,0.219959 0.38825,-0.03888 c 0.22981,-0.02299 0.5357,-0.12829 0.7495,-0.257932 0.36445,-0.220985 0.77284,-0.757801 0.76037,-0.999497 -0.004,-0.07925 -0.0238,-0.09342 -0.0499,-0.03592 -0.0603,0.132832 -0.25679,0.118475 -0.31799,-0.02326 -0.028,-0.06499 0.007,-0.240039 0.0763,-0.388988 0.16944,-0.360366 0.16564,-0.754579 -0.008,-0.813735 -0.25155,-0.08577 -0.46115,-0.04676 -0.56836,0.105791 -0.16672,0.23724 -0.40747,0.195817 -0.40747,-0.07012 0,-0.331279 0.37447,-0.68932 0.72094,-0.68932 0.43374,0 0.73651,0.326732 0.84449,0.911325 0.0192,0.104413 0.0403,-0.03487 0.0466,-0.309527 0.0145,-0.622004 -0.17167,-0.829621 -0.74391,-0.829621 -0.31384,0 -0.41034,0.04475 -0.75323,0.34947 -0.29969,0.266314 -0.41069,0.325046 -0.46648,0.246818 -0.12705,-0.178156 -0.0827,-0.38399 0.13783,-0.641012 0.23982,-0.279399 0.27041,-0.410939 0.0955,-0.410939 -0.17756,0 -0.61315,-0.428318 -0.75797,-0.745311 -0.19604,-0.429099 -0.32045,-0.964313 -0.32045,-1.378481 0,-0.610387 -0.27119,-1.37943 -0.61786,-1.752099 -0.19115,-0.205492 -0.60926,-0.431193 -1.04865,-0.566084 -0.2866,-0.08799 -0.89161,-0.152547 -1.83743,-0.19607 -1.6314,-0.07506 -2.35121,-0.235865 -2.88986,-0.645564 l -0.33516,-0.254935 -0.25874,0.471993 c -0.55661,1.015385 -0.96026,1.891674 -0.96026,2.084709 0,0.05955 0.11652,0.09601 0.30692,0.09601 0.3462,0 1.54137,0.523984 1.87849,0.823571 0.39434,0.350413 0.18924,0.5951 -0.23372,0.278844 -0.39329,-0.29408 -1.04258,-0.566174 -1.57979,-0.662045 -0.58338,-0.10411 -0.62516,-0.06258 -0.62697,0.623554 -0.001,0.557714 0.0617,0.627565 0.64753,0.715513 0.22802,0.03423 0.47815,0.01078 0.74545,-0.06986 0.47386,-0.142959 0.76967,-0.07158 0.51045,0.12317 -0.36911,0.277319 -0.94285,0.338 -1.66867,0.176487 -0.18338,-0.04081 -0.24628,-0.02144 -0.29094,0.08951 -0.0313,0.07787 -0.23306,0.363704 -0.44824,0.635205 -0.6264,0.790293 -1.37706,1.821331 -1.37706,1.891409 0,0.03545 0.0577,0.107056 0.1282,0.159057 0.0886,0.06532 0.12819,0.0682 0.12819,0.0093 0,-0.107174 0.29965,-0.110648 0.51963,-0.0059 0.0916,0.04359 0.26261,0.214437 0.38004,0.379714 0.11741,0.165284 0.26472,0.300511 0.32735,0.300511 0.34182,0 0.53494,-0.647482 0.26475,-0.887584 -0.13868,-0.12324 -0.13122,-0.262195 0.0164,-0.305936 0.0481,-0.01421 0.18989,0.06518 0.31514,0.176483 0.31871,0.283209 0.31983,0.762611 0.002,1.044653 -0.2281,0.202696 -0.33041,0.225455 -0.90706,0.201765 l -0.32048,-0.01317 v 0.446982 0.446982 l 0.48805,0.375213 c 0.26844,0.206371 0.60125,0.40939 0.73961,0.45116 0.13834,0.04178 0.29238,0.134215 0.34232,0.205428 0.12295,0.175333 -0.17109,0.450283 -0.68161,0.637362 l -0.38443,0.140873 0.0686,0.191658 c 0.0377,0.10541 0.0581,0.5334 0.0455,0.951087 -0.0276,0.917887 0.0653,1.094879 0.80803,1.535912 0.70444,0.418354 1.09037,0.514503 1.64267,0.409241 0.24401,-0.04649 0.56401,-0.08454 0.71111,-0.08454 0.14712,0 0.38559,-0.03184 0.52993,-0.07079 0.14436,-0.03894 0.43551,-0.112862 0.64704,-0.164275 0.21152,-0.0514 0.71146,-0.231829 1.111,-0.400916 0.60152,-0.254568 0.85879,-0.425464 1.49621,-0.993854 0.6834,-0.609411 1.49497,-1.623046 1.49497,-1.867216 0,-0.135692 0.27199,-0.452375 0.35119,-0.408885 0.15249,0.08377 0.0703,0.558773 -0.16531,0.955434 -0.32128,0.540864 -0.47485,0.778163 -0.53337,0.8241 -0.0265,0.02086 -0.16626,0.191755 -0.31036,0.379713 -0.14408,0.187959 -0.47805,0.523099 -0.74215,0.74475 l -0.48017,0.402995 v 1.125554 c 0,0.907836 0.0248,1.143831 0.1282,1.220088 0.15552,0.114698 0.17006,0.50107 0.0208,0.55198 -0.14113,0.04811 -1.50606,0.963841 -1.91547,1.285064 -1.55077,1.216747 -2.38104,1.963387 -3.91408,3.519933 -0.6566,0.666663 -1.21448,1.229202 -1.23974,1.250081 -0.0253,0.02086 -0.25673,0.260109 -0.51442,0.531603 -0.25767,0.271502 -0.52814,0.544895 -0.60107,0.607545 -0.0729,0.06265 -0.62472,0.64362 -1.22624,1.291038 -0.6015,0.647412 -1.15764,1.245463 -1.23583,1.329006 -0.0782,0.08353 -0.327,0.374019 -0.55289,0.645513 -0.22586,0.271498 -0.46209,0.549547 -0.52493,0.617869 -0.1888,0.20533 -0.98949,1.273519 -1.03692,1.383387 -0.0351,0.0814 0.0309,0.0898 0.32326,0.0419 0.77875,-0.127853 1.42204,-0.285814 2.58941,-0.63586 1.37636,-0.412682 1.70287,-0.570915 1.73832,-0.842409 0.016,-0.122455 0.0554,-0.239842 0.0877,-0.260857 0.31547,-0.20577 1.06082,-1.35706 1.57346,-2.430433 0.29335,-0.614223 0.60002,-0.92896 1.09088,-1.119568 0.45543,-0.17685 0.95173,-0.323353 1.09542,-0.323353 0.0572,0 0.43907,-0.197717 0.84855,-0.439374 0.99223,-0.585562 1.16779,-0.650452 1.42977,-0.528477 0.2972,0.138378 0.63861,0.780545 0.63904,1.202012 1.9e-4,0.191439 -0.0286,0.373701 -0.0637,0.405029 -0.0353,0.03133 -0.0641,0.299026 -0.0641,0.594887 0,0.36284 -0.0347,0.548234 -0.10684,0.569577 -0.11413,0.03378 -0.15057,0.246812 -0.0423,0.246812 0.12604,0 0.29377,0.462799 0.23858,0.658209 -0.0967,0.342567 -0.65567,0.75753 -1.55602,1.155245 -0.97255,0.429623 -1.28121,0.698657 -1.57192,1.370174 -0.32353,0.747346 -0.54191,1.089076 -0.94912,1.485306 -0.46673,0.45415 -1.08571,0.75275 -1.96237,0.94661 -0.98514,0.21786 -1.06881,0.25061 -5.14166,2.01136 -1.11794,0.48332 -2.04958,0.87874 -2.07032,0.87874 -0.0206,0 -0.2896,0.10251 -0.59748,0.22782 -0.30788,0.12532 -0.59131,0.22785 -0.62986,0.22785 -0.0385,0 -0.13519,0.064 -0.21477,0.14206 -0.1492,0.1465 -1.51332,2.5163 -1.79796,3.12348 -0.0882,0.18796 -0.23528,0.49554 -0.327,0.68349 -0.19716,0.40394 -0.31626,0.65845 -0.41759,0.89233 -0.0408,0.0939 -0.10873,0.24777 -0.15116,0.34176 -0.0425,0.0939 -0.1578,0.36737 -0.25639,0.607544 -0.0986,0.24017 -0.25421,0.61608 -0.34583,0.83538 -0.19768,0.47312 -0.86073,2.30416 -1.10708,3.05721 -0.0957,0.29267 -0.15118,0.60992 -0.12319,0.70499 0.0311,0.10575 -0.001,0.22402 -0.0834,0.30469 -0.0739,0.0726 -0.21476,0.42169 -0.31311,0.77592 -0.0984,0.35425 -0.2158,0.74902 -0.261,0.87729 -0.17275,0.49031 -0.14542,0.52252 0.83655,0.98596 1.11077,0.52423 3.05067,1.54109 3.25172,1.7045 0.08,0.0649 0.27999,0.20104 0.44451,0.30231 0.16451,0.10125 0.31834,0.20376 0.34184,0.22776 0.0235,0.024 0.2918,0.23069 0.59618,0.4593 0.3044,0.22864 0.59585,0.44989 0.64768,0.49165 0.0517,0.0418 0.39573,0.31516 0.7642,0.60755 0.36849,0.29238 0.75063,0.59995 0.84921,0.68348 0.0986,0.0836 0.46701,0.37403 0.81873,0.64552 2.27381,1.75515 2.6202,2.09829 3.93102,3.89404 l 0.59735,0.81834 0.27774,-0.1271 c 0.15276,-0.07 0.55453,-0.3727 0.89283,-0.67287 0.50678,-0.44965 0.68518,-0.67836 1.01315,-1.29877 0.21892,-0.41415 0.43247,-0.81237 0.47455,-0.88491 0.0421,-0.0726 0.0765,-0.19866 0.0765,-0.28029 0,-0.0816 0.0341,-0.16722 0.076,-0.1902 0.0418,-0.0229 0.0959,-0.15312 0.12024,-0.28926 0.0243,-0.13614 0.0873,-0.38421 0.13989,-0.55129 0.17508,-0.55592 0.32303,-1.26382 0.51591,-2.46816 0.0435,-0.27149 0.11825,-0.71575 0.16615,-0.98726 0.0479,-0.27149 0.10859,-0.64741 0.135,-0.83537 0.084,-0.60019 0.31614,-2.00592 0.52018,-3.15164 0.70987,-3.98592 1.77416,-6.228654 4.21654,-8.885354 0.1152,-0.1253 1.50286,-1.37268 3.08368,-2.77193 1.58083,-1.39924 2.96268,-2.63595 3.07077,-2.74824 l 0.19653,-0.20414 -0.38728,-0.74513 c -0.46806,-0.90058 -0.88577,-1.743158 -1.09414,-2.207062 -0.37397,-0.83262 -0.43213,-0.957085 -0.51403,-1.100156 -0.0415,-0.07256 -0.0754,-0.193843 -0.0754,-0.269592 0,-0.07576 -0.0307,-0.170198 -0.068,-0.209876 -0.0374,-0.03965 -0.11687,-0.208845 -0.17657,-0.375918 -0.0597,-0.167078 -0.14072,-0.372125 -0.18003,-0.455661 -0.0393,-0.08353 -0.15815,-0.35693 -0.26408,-0.607545 -0.10598,-0.250616 -0.33846,-0.731949 -0.51678,-1.069647 -0.31141,-0.589707 -0.3668,-0.984798 -0.12967,-0.924769 0.0958,0.02422 0.81114,1.241394 1.10677,1.883161 0.086,0.186492 0.19168,0.415977 0.23502,0.509956 0.17011,0.368774 0.23641,0.522768 0.33521,0.778421 0.0565,0.146187 0.14243,0.351234 0.19098,0.455656 0.12695,0.273039 0.20521,0.457753 0.32177,0.759435 0.0564,0.146181 0.13381,0.334141 0.17182,0.417686 0.038,0.08356 0.24252,0.544895 0.45448,1.025241 0.66966,1.51748 0.80846,1.74669 1.05774,1.74669 h 0.21864 l -0.0474,0.31405 c -0.0485,0.32135 -0.0277,0.37579 0.62302,1.6225 0.36745,0.70412 0.64981,1.25506 0.85623,1.67075 0.1038,0.20884 0.28494,0.56768 0.40271,0.7974 1.02809,2.00522 1.45279,2.94994 1.45273,3.23153 -5e-5,0.16925 0.0428,0.42556 0.0951,0.56958 0.0524,0.14403 0.17552,0.484 0.27365,0.75548 0.0982,0.271504 0.21948,0.579084 0.26969,0.683494 0.0502,0.10439 0.12067,0.25822 0.15661,0.34175 0.42997,0.99991 1.10388,2.15041 2.35757,4.02498 0.56341,0.84238 1.22204,2.01815 1.76548,3.15164 0.07,0.14618 0.20882,0.42776 0.3083,0.62571 0.0995,0.19795 0.18087,0.38315 0.18087,0.41158 0,0.0285 0.59967,1.13092 1.33257,2.44999 0.73293,1.31907 1.36748,2.47521 1.41013,2.56919 0.25255,0.55655 0.30413,0.70809 0.67839,1.99351 0.30207,1.0375 0.7382,1.96935 1.06412,2.27366 0.11456,0.10696 0.31003,0.30619 0.43434,0.44271 0.20716,0.22751 1.00783,0.62513 1.25882,0.62513 0.38574,0 1.24109,0.39611 1.83992,0.85207 0.77996,0.59385 1.34493,0.74017 1.65025,0.42734 0.35965,-0.36849 0.18413,-0.58257 -1.04565,-1.27541 -0.35736,-0.20132 -0.73748,-0.42982 -0.84472,-0.50778 -0.5022,-0.36509 -1.0203,-0.83612 -1.03294,-0.93915 -0.0487,-0.39582 0.11579,-0.4979 0.38156,-0.23693 0.15831,0.15545 0.43567,0.1948 2.18856,0.31053 0.58755,0.0388 1.2296,0.10146 1.42677,0.1394 0.5894,0.1132 1.2895,0.46032 1.58653,0.7866 0.56022,0.61538 1.11289,1.12681 1.21766,1.12681 0.10652,0 0.20964,-0.22637 0.21189,-0.46508 7.3e-4,-0.10713 -0.40521,-0.50066 -0.9857,-0.95484 -0.0962,-0.0753 -0.26748,-0.25652 -0.38055,-0.4027 -0.52117,-0.67386 -0.89065,-0.78556 -2.47578,-0.74851 l -1.15631,0.0271 v -0.2658 -0.2658 l 0.38457,-0.0513 c 0.21151,-0.0283 0.57321,-0.0538 0.80376,-0.057 l 0.41921,-0.006 -0.12846,-0.1329 c -0.0707,-0.0731 -0.14869,-0.18417 -0.17343,-0.24682 -0.0247,-0.0626 -0.23249,-0.16238 -0.46167,-0.22161 -0.22919,-0.0592 -0.47437,-0.13215 -0.54488,-0.16201 -0.20339,-0.0862 -0.53084,-0.20107 -0.85462,-0.29986 -0.16451,-0.0502 -0.37603,-0.11811 -0.47003,-0.15089 -0.094,-0.0328 -0.33338,-0.10293 -0.53193,-0.15575 -0.59107,-0.15734 -0.727,-0.32824 -0.96426,-1.21223 -0.0392,-0.14618 -0.15435,-0.53919 -0.25578,-0.87334 -0.22508,-0.74137 -0.31792,-1.06916 -0.3872,-1.36698 -0.0291,-0.12531 -0.0856,-0.29619 -0.12558,-0.37972 -0.0399,-0.0836 -0.0947,-0.24586 -0.12175,-0.36073 -0.027,-0.11486 -0.0712,-0.30282 -0.0984,-0.41768 -0.027,-0.11487 -0.0821,-0.27719 -0.12237,-0.36073 -0.0402,-0.0836 -0.0919,-0.25443 -0.11473,-0.37972 -0.0228,-0.1253 -0.0805,-0.34744 -0.12811,-0.49363 -0.12335,-0.37864 -0.44073,-1.4328 -0.52587,-1.74669 -0.0397,-0.14619 -0.26302,-0.94929 -0.49636,-1.78468 -0.23335,-0.83536 -0.47214,-1.72389 -0.53064,-1.97452 -0.44969,-1.92642 -0.64665,-2.48001 -1.29696,-3.64526 -0.54959,-0.984804 -0.92049,-1.571144 -1.11248,-1.758664 -0.16426,-0.16044 -0.63576,-1.28403 -1.23784,-2.94981 -0.16608,-0.45947 -0.33095,-0.90373 -0.36639,-0.98726 -0.0779,-0.18385 -0.36365,-1.01064 -0.51162,-1.48089 -0.0591,-0.18796 -0.1387,-0.4101 -0.17681,-0.49363 -0.038,-0.0836 -0.0887,-0.23733 -0.11251,-0.341746 -0.0238,-0.10439 -0.0822,-0.30948 -0.12979,-0.45566 -0.16873,-0.517914 -0.27942,-0.876644 -0.35154,-1.139154 -0.0401,-0.1462 -0.15356,-0.5392 -0.25201,-0.87335 -0.50605,-1.717795 -1.0651,-4.147312 -1.20576,-5.240076 -0.043,-0.334153 -0.10304,-0.786968 -0.13351,-1.006253 -0.0351,-0.253 -0.0235,-0.398702 0.0321,-0.398702 0.0481,0 0.10522,0.128157 0.12689,0.284786 0.0731,0.526715 0.92245,4.116298 1.35218,5.714725 0.0392,0.14619 0.0953,0.36833 0.12444,0.49364 0.0292,0.1253 0.0857,0.29618 0.12558,0.37971 0.0765,0.1602 0.15278,0.44452 0.2292,0.85507 0.0253,0.13613 0.0803,0.26631 0.12209,0.28926 0.0418,0.0229 0.076,0.14025 0.076,0.26062 0,0.12038 0.0385,0.240004 0.0856,0.265814 0.0471,0.0258 0.0854,0.14542 0.0854,0.26579 0,0.12039 0.0385,0.23998 0.0855,0.26582 0.0471,0.0258 0.0856,0.130806 0.0856,0.233316 0,0.10251 0.0346,0.24576 0.0766,0.31828 0.0422,0.0726 0.16343,0.38818 0.26946,0.70145 0.72156,2.13203 1.3225,3.55831 1.97595,4.68974 1.71601,2.971284 1.74321,3.034044 2.21309,5.106924 0.18508,0.8165 0.464,1.84479 0.93723,3.45542 0.32904,1.11987 0.40215,1.37986 0.4698,1.67075 0.0291,0.12531 0.0856,0.29618 0.12559,0.37971 0.0399,0.0836 0.0965,0.25441 0.12557,0.37972 0.0292,0.12531 0.088,0.34744 0.13082,0.49362 0.0428,0.1462 0.10162,0.36833 0.1308,0.49363 0.0291,0.12532 0.0857,0.2962 0.12558,0.37973 0.0399,0.0836 0.0964,0.2544 0.12559,0.37971 0.0645,0.27713 0.17235,0.65734 0.30171,1.06321 0.0534,0.16707 0.1297,0.42338 0.16986,0.56957 0.26333,0.95856 0.42788,1.45796 0.58317,1.76994 0.14339,0.28806 0.21861,0.35647 0.39189,0.35647 0.11795,0 0.32201,0.0384 0.45348,0.0853 0.38879,0.1389 0.55366,0.19472 1.09366,0.37026 0.28203,0.0916 0.5897,0.1953 0.6837,0.23025 0.41054,0.15266 1.22069,0.3773 1.36067,0.3773 0.084,0 0.33589,0.0817 0.55963,0.18158 0.22374,0.0999 0.53699,0.20694 0.69611,0.23796 0.27787,0.0541 1.20473,0.56129 1.31459,0.71925 0.0292,0.042 0.14847,0.0763 0.26509,0.0763 0.51613,0 1.29759,0.55283 1.48152,1.04809 0.12777,0.34402 0.0829,0.51912 -0.21038,0.82222 -0.11612,0.11998 -0.21116,0.27264 -0.21121,0.33926 -6e-5,0.0666 -0.077,0.18298 -0.17103,0.25858 -0.10685,0.086 -0.17093,0.23391 -0.17093,0.39495 0,0.32019 -0.32068,0.63028 -0.65182,0.63028 -0.23678,0 -0.59211,-0.2921 -1.47196,-1.21005 -0.60693,-0.63322 -1.20793,-0.81339 -2.9612,-0.88775 l -0.94009,-0.0398 0.44531,0.27144 c 0.24492,0.14929 0.48528,0.27144 0.53413,0.27144 0.0489,0 0.0888,0.0261 0.0888,0.0579 0,0.0318 0.0835,0.0916 0.18554,0.13291 0.10206,0.0411 0.29984,0.20177 0.43953,0.35675 0.42137,0.46753 0.34285,1.18327 -0.18103,1.65039 -0.072,0.0642 -0.28806,0.10953 -0.52191,0.10953 -0.4272,0 -0.72689,-0.14723 -1.58819,-0.78031 -0.23476,-0.17255 -0.58088,-0.36145 -0.76915,-0.41977 -0.18828,-0.0583 -0.63996,-0.19798 -1.00376,-0.31037 -0.51932,-0.16043 -0.75983,-0.28844 -1.11924,-0.59564 -0.25178,-0.21519 -0.52655,-0.48628 -0.61063,-0.60241 l -0.15283,-0.21113 -0.12807,0.16248 c -0.10347,0.13118 -0.18552,0.15418 -0.42659,0.11941 -0.28409,-0.041 -0.55417,-0.24749 -1.29009,-0.98651 -0.23371,-0.23471 -0.63152,-0.29893 -0.4288,-0.0692 0.0645,0.0731 0.13659,0.15 0.16016,0.17087 0.0236,0.0208 0.0953,0.1405 0.15953,0.26582 0.0641,0.12529 0.15063,0.28716 0.19214,0.35969 0.0415,0.0726 0.0755,0.30127 0.0755,0.50831 0,0.30291 -0.0372,0.39954 -0.18994,0.49466 -0.43541,0.271 -1.05425,0.0219 -2.11753,-0.85239 -0.11751,-0.0967 -0.32904,-0.22346 -0.47004,-0.28187 -0.30056,-0.12449 -1.13993,-0.26638 -1.57575,-0.26638 -0.16784,0 -0.5742,-0.0898 -0.90302,-0.19941 -0.32883,-0.10969 -0.80939,-0.2552 -1.06792,-0.32338 -0.25851,-0.0682 -0.53245,-0.15787 -0.60875,-0.19929 -0.0763,-0.0415 -0.37113,-0.39082 -0.65517,-0.7764 -0.47462,-0.64433 -0.91794,-1.54261 -1.65918,-3.36188 -0.0936,-0.22974 -0.20489,-0.49459 -0.24731,-0.58857 -0.18442,-0.40855 -0.25257,-0.5609 -0.32269,-0.72146 -0.0411,-0.0939 -0.15642,-0.3332 -0.25639,-0.5316 -0.1,-0.1984 -0.25455,-0.50598 -0.34354,-0.6835 -0.41833,-0.83452 -0.69154,-1.34065 -1.46556,-2.71496 -0.45873,-0.81449 -0.97047,-1.70302 -1.1372,-1.97453 -0.37419,-0.60934 -1.41816,-2.47112 -1.70632,-3.04301 -0.21747,-0.43159 -0.51108,-1.26357 -0.61455,-1.74139 -0.20171,-0.93159 -0.69177,-2.478564 -0.97432,-3.075714 -0.12666,-0.26767 -0.45158,-0.90699 -0.53019,-1.04317 -0.0418,-0.0726 -0.0761,-0.21892 -0.0761,-0.3253 v -0.19342 l -0.27963,0.24935 c -0.8299,0.74 -1.92815,2.06623 -2.53336,3.05924 -0.15274,0.250624 -0.31301,0.488124 -0.35614,0.527814 -0.0431,0.0396 -0.0784,0.13366 -0.0784,0.20885 0,0.0752 -0.0385,0.13669 -0.0854,0.13669 -0.0471,0 -0.0855,0.0517 -0.0855,0.11495 0,0.0631 -0.0339,0.17428 -0.0754,0.24682 -0.0415,0.0726 -0.11329,0.2173 -0.15949,0.32173 -0.0462,0.10439 -0.12633,0.27528 -0.17807,0.37971 -0.5611,1.13246 -1.18731,3.73904 -1.63289,6.79691 -0.0548,0.37591 -0.13458,0.85435 -0.17734,1.06319 -0.0427,0.20885 -0.10272,0.55059 -0.13339,0.75944 -0.0922,0.62866 -0.28459,1.54876 -0.46862,2.24032 -0.20472,0.76936 -0.21909,0.71179 0.25471,1.02085 0.76241,0.49732 1.37565,1.4318 1.63667,2.494 0.0823,0.33475 0.0841,0.4602 0.008,0.52779 -0.0761,0.0675 -0.0998,0.0578 -0.0998,-0.0415 0,-0.0715 -0.0341,-0.18947 -0.0759,-0.262 -0.0418,-0.0726 -0.23142,-0.42236 -0.42146,-0.77739 -0.24952,-0.46614 -0.48606,-0.76951 -0.85127,-1.09175 -0.27816,-0.24543 -0.56481,-0.4756 -0.63699,-0.5115 -0.14394,-0.0716 -0.15609,-0.0496 -0.48946,0.88179 -0.35826,1.00097 -0.85071,1.77749 -1.49889,2.36344 -0.32904,0.29744 -0.67515,0.57719 -0.76916,0.62168 l -0.17093,0.0809 0.17093,0.28853 c 0.39713,0.67039 0.92897,1.40746 1.04379,1.44662 0.23489,0.0801 1.88059,-0.11407 2.27252,-0.26814 0.47581,-0.18704 0.9461,-0.61887 1.14711,-1.05331 0.1865,-0.40307 0.2803,-0.41768 0.27784,-0.0432 -0.004,0.62758 -0.5771,1.39293 -1.2467,1.66535 -0.38993,0.15863 -1.43367,0.32071 -2.1046,0.3268 l -0.14837,9.7e-4 0.15631,0.39872 c 0.28707,0.73225 0.3403,0.92737 0.37803,1.38595 0.0206,0.25062 0.021,0.37877 7.2e-4,0.28479 -0.02,-0.0939 -0.0675,-0.17087 -0.10554,-0.17087 -0.038,0 -0.0912,-0.0978 -0.11802,-0.21734 -0.0742,-0.32972 -0.71156,-1.6059 -0.85231,-1.70656 -0.0682,-0.0487 -0.1646,-0.19813 -0.21444,-0.33202 -0.0499,-0.13389 -0.24704,-0.44812 -0.43825,-0.69831 -0.19118,-0.25018 -0.34761,-0.47527 -0.34761,-0.50019 0,-0.0249 -0.0769,-0.11869 -0.17094,-0.20835 -0.094,-0.0897 -0.17092,-0.20786 -0.17092,-0.26263 0,-0.0548 -0.0339,-0.0996 -0.0754,-0.0996 -0.0415,0 -0.0982,-0.0598 -0.12585,-0.13292 -0.0276,-0.0731 -0.11966,-0.23541 -0.20435,-0.36072 -0.0846,-0.12531 -0.31531,-0.47123 -0.5125,-0.76872 -0.79409,-1.19801 -1.49888,-1.91316 -3.0978,-3.14338 -0.67908,-0.52249 -1.19163,-0.92673 -1.49125,-1.1761 -0.17263,-0.14368 -0.94907,-0.73592 -1.41518,-1.07944 -0.33828,-0.24932 -1.12468,-0.79981 -1.46685,-1.02683 -0.17218,-0.11423 -0.36446,-0.25314 -0.42728,-0.30869 -0.147,-0.12997 -1.92873,-1.19233 -1.99971,-1.19233 -0.0296,0 -0.15584,-0.0638 -0.2806,-0.14186 -0.12476,-0.078 -0.82294,-0.43079 -1.5515,-0.78393 -1.50325,-0.72863 -1.97132,-0.96308 -2.09383,-1.04874 -0.0471,-0.0329 -0.22441,-0.12853 -0.39424,-0.2126 -0.16982,-0.0841 -0.38858,-0.19712 -0.48613,-0.25125 -0.14666,-0.0814 -0.21671,-0.0798 -0.40487,0.009 l -0.22752,0.10819 -0.11629,-0.14131 c -0.0854,-0.10376 -0.0926,-0.18069 -0.0272,-0.28923 0.049,-0.0814 0.0763,-0.15471 0.0608,-0.16302 -0.21473,-0.11483 -1.00037,-0.71547 -1.41706,-1.08339 -0.53743,-0.47453 -0.64,-0.69039 -0.40898,-0.86076 0.10337,-0.0761 0.21147,-0.0147 0.61959,0.35265 0.61424,0.55267 1.4871,1.16397 1.66206,1.16397 0.13135,0 0.79389,-0.63744 1.18396,-1.13915 0.11367,-0.14618 0.25602,-0.31096 0.31631,-0.36615 0.0603,-0.0552 0.10963,-0.12965 0.10963,-0.16545 0,-0.0357 0.0481,-0.11157 0.10685,-0.16839 0.0993,-0.096 0.20868,-0.25212 0.44066,-0.62901 0.0514,-0.0836 0.11443,-0.16898 0.14005,-0.18986 0.0519,-0.0423 0.59199,-1.02955 0.78941,-1.44291 0.0698,-0.14619 0.20833,-0.42776 0.3078,-0.62571 0.0995,-0.19794 0.18086,-0.37964 0.18086,-0.40378 0,-0.0242 0.1691,-0.47732 0.37576,-1.007074 0.32265,-0.82709 0.53685,-1.4255 1.01071,-2.8238 0.0496,-0.14619 0.11883,-0.33415 0.15396,-0.41769 0.15286,-0.36349 0.27265,-0.78593 0.24333,-0.85825 -0.0197,-0.0486 -0.27578,-0.008 -0.67274,0.10509 -0.35253,0.10094 -0.75634,0.21625 -0.89736,0.25626 -1.59924,0.45378 -3.40646,0.75299 -4.91583,0.81388 -1.50777,0.0608 -2.10179,-9.7e-4 -2.16686,-0.22664 -0.0263,-0.0914 -0.13741,-0.25172 -0.24663,-0.35615 -0.39313,-0.37579 -0.88385,-1.11966 -1.17737,-1.78466 -0.21888,-0.49592 -0.27157,-1.16072 -0.22071,-2.78521 0.0292,-0.93248 0.0701,-1.86632 0.0911,-2.07516 0.0209,-0.20885 0.0164,-0.31136 -0.01,-0.22783 -0.0263,0.0836 -0.0724,0.16899 -0.10207,0.18987 -0.0779,0.0547 -0.21944,0.26974 -0.57436,0.87334 -0.82651,1.40564 -1.72218,2.36852 -4.5221,4.86146 -3.14396,2.79924 -3.94183,3.72504 -4.9404,5.732624 -0.71988,1.44724 -1.06673,3.69801 -0.83692,5.43089 0.12515,0.94384 0.39335,1.91979 0.57717,2.10028 0.0765,0.0752 0.14821,0.26542 0.15918,0.4227 0.0185,0.26628 0.18051,0.63569 0.69138,1.57699 0.43009,0.79249 1.65206,2.03211 2.854,2.89523 0.85635,0.61495 2.25882,1.4715 2.40935,1.4715 0.0665,0 0.31117,0.082 0.54367,0.1822 0.2325,0.1002 0.57656,0.24095 0.76458,0.31277 0.18801,0.0718 0.45721,0.17499 0.59824,0.22927 0.141,0.0542 0.42944,0.15591 0.64096,0.22588 0.21152,0.0699 0.46148,0.15487 0.5555,0.18868 0.16037,0.0577 0.44257,0.15014 1.64514,0.53894 1.81933,0.58821 3.80722,1.37732 4.37544,1.73687 0.13449,0.0851 0.28666,0.15472 0.33817,0.15472 0.0515,0 0.0936,0.0341 0.0936,0.0759 0,0.0418 0.0577,0.0759 0.1282,0.0759 0.0704,0 0.12819,0.0372 0.12819,0.0826 0,0.0926 0.49339,0.0673 1.7947,-0.0919 1.96907,-0.24093 4.74623,-0.0515 6.79423,0.46344 0.18801,0.0472 0.45721,0.11414 0.59823,0.1486 0.37931,0.0927 1.02485,0.29737 1.4568,0.4619 0.29532,0.11248 0.38063,0.18474 0.38063,0.32236 0,0.35259 -0.12566,0.35056 -1.35632,-0.022 -0.64845,-0.19629 -1.29118,-0.37717 -1.42829,-0.40195 -0.13711,-0.0248 -0.44157,-0.0811 -0.67659,-0.12511 -1.92353,-0.36042 -4.71493,-0.42911 -6.45238,-0.15878 -0.25853,0.0402 -0.68156,0.10656 -0.94009,0.14743 -0.25851,0.0409 -1.08536,0.21534 -1.83742,0.38774 -5.19845,1.19168 -6.35801,1.36789 -8.99979,1.36772 -3.12057,-2e-4 -5.35316,-0.51015 -8.71251,-1.99005 l -1.38906,-0.61193 -0.16179,0.18079 c -0.0889,0.0995 -0.26196,0.28329 -0.38437,0.4086 -0.12244,0.12531 -0.35435,0.46705 -0.51538,0.75943 -0.29736,0.53991 -0.90349,1.84479 -0.90349,1.94503 0,0.14389 -1.10554,1.699 -1.42469,2.00402 -0.0874,0.0836 -0.31056,0.31788 -0.49591,0.52076 -0.44017,0.48178 -1.80419,1.49061 -2.58613,1.91268 -0.34002,0.18355 -1.10918,0.54181 -1.70925,0.79614 -0.60006,0.25435 -1.15779,0.49464 -1.23942,0.53399 -0.0816,0.0394 -0.20713,0.0716 -0.27891,0.0716 -0.0718,0 -0.19729,0.0302 -0.27891,0.0671 -0.0816,0.0369 -0.25122,0.10963 -0.3769,0.16163 -0.22953,0.095 -0.38076,0.39198 -0.27615,0.54239 0.0351,0.0506 0.18788,0.0606 0.40856,0.0271 0.98629,-0.14993 1.7041,-0.2076 3.34364,-0.26863 1.69921,-0.0634 2.87623,-0.14913 3.54668,-0.25869 1.19544,-0.19539 1.34659,-0.22469 2.26474,-0.43916 0.41258,-0.0964 1.30186,-0.34888 1.53831,-0.4368 0.094,-0.035 0.40168,-0.14132 0.6837,-0.23637 0.28202,-0.0951 0.98306,-0.36949 1.55785,-0.60987 1.80747,-0.75592 3.23936,-1.1211 5.23639,-1.33544 0.89295,-0.0958 5.43876,-0.0682 6.02506,0.0368 3.85377,0.6892 9.74518,1.05474 13.88758,0.86169 1.9935,-0.0929 3.70124,-0.2126 4.44401,-0.31149 0.29071,-0.0386 0.53129,-0.0336 0.63053,0.0133 0.28825,0.13632 1.08618,0.1906 1.88071,0.12796 2.16627,-0.17081 3.34761,-0.91304 3.55269,-2.23218 l 0.0589,-0.37972 0.0679,0.43753 c 0.0976,0.62932 -0.18751,1.2701 -0.79542,1.78769 -0.45248,0.38525 -0.8525,0.58094 -1.63285,0.79883 l -0.5577,0.15571 -2.4784,0.0127 c -1.36312,0.007 -2.97452,0.0515 -3.58087,0.099 -4.24936,0.3328 -10.31346,0.0597 -14.96438,-0.674 -2.13532,-0.33684 -3.51309,-0.38134 -5.85413,-0.18906 -2.44245,0.2006 -3.31444,0.40537 -5.34139,1.25435 -1.68444,0.70552 -2.21573,0.91521 -2.69207,1.06253 -0.16449,0.0509 -0.37601,0.12038 -0.47003,0.15444 -0.094,0.0341 -0.26707,0.0842 -0.38458,0.11138 -0.11751,0.0272 -0.34824,0.0836 -0.51276,0.12531 -0.58061,0.14725 -1.78847,0.37481 -2.77752,0.52326 -0.32903,0.0493 -1.6366,0.1168 -2.90571,0.1498 -1.26912,0.033 -2.44182,0.0978 -2.60603,0.14405 -0.16419,0.0463 -0.628,0.084 -1.03068,0.084 h -0.73214 z m 9.13233,-8.1169 c 0.27718,-0.62604 0.90118,-1.74563 1.01585,-1.82265 0.0311,-0.0208 0.14956,-0.15758 0.26327,-0.30377 0.30958,-0.39806 0.39831,-0.46147 0.70287,-0.50238 0.18614,-0.025 0.37792,0.0134 0.57774,0.11581 0.69852,0.35784 2.04375,0.91851 3.07663,1.2823 2.40454,0.84692 4.39733,1.13571 7.26428,1.05273 2.1612,-0.0625 3.84134,-0.32554 7.1788,-1.1237 0.90937,-0.21747 1.28462,-0.29825 1.60241,-0.34492 0.33955,-0.0498 0.35747,-0.18984 0.0427,-0.33399 -0.12926,-0.0591 -0.25425,-0.12483 -0.27775,-0.14585 -0.2007,-0.17949 -2.27178,-0.9446 -4.61496,-1.70488 -0.72855,-0.2364 -1.42079,-0.4667 -1.5383,-0.51178 -0.11751,-0.0451 -0.29058,-0.10807 -0.38458,-0.14 -0.094,-0.0319 -0.32475,-0.11683 -0.51277,-0.18871 -0.74331,-0.28412 -0.86138,-0.321 -1.04239,-0.32562 -0.31276,-0.007 -2.23607,-1.21327 -3.4247,-2.14613 -0.95368,-0.74847 -1.92758,-1.79723 -2.50453,-2.69705 -0.10511,-0.16382 -0.35399,-0.65667 -0.55324,-1.09524 l -0.36224,-0.7974 -0.54321,-0.25725 c -1.42186,-0.67336 -2.2198,-1.09369 -2.80736,-1.47887 -0.35221,-0.23089 -0.77525,-0.48479 -0.94008,-0.56422 -0.16483,-0.0795 -0.4343,-0.21173 -0.59882,-0.29399 -0.68178,-0.34088 -1.57693,-0.58665 -2.46012,-0.67543 -0.59728,-0.0601 -0.78525,-0.20927 -0.61651,-0.48943 0.10974,-0.18227 0.26341,-0.18705 1.22432,-0.0382 0.76901,0.11918 1.3509,0.29447 2.06597,0.62239 0.50173,0.23008 1.44034,0.78286 1.48134,0.87239 0.0157,0.0342 0.0654,0.0622 0.11069,0.0622 0.0452,0 0.36716,0.17088 0.71545,0.37972 0.34828,0.20884 0.64934,0.37972 0.669,0.37972 0.0197,0 0.33107,0.15771 0.69198,0.35048 0.36091,0.19275 0.67142,0.33693 0.69005,0.32039 0.0186,-0.0165 -0.0562,-0.43911 -0.16621,-0.93905 -0.31702,-1.44029 -0.35236,-2.99318 -0.0949,-4.17451 0.0302,-0.1384 0.004,-0.27888 -0.0653,-0.35792 l -0.11497,-0.13007 -1.18936,0.10626 c -0.65416,0.0584 -1.88161,0.14341 -2.72768,0.18879 -0.84606,0.0453 -2.01904,0.11548 -2.60659,0.15575 -0.58755,0.0403 -1.62591,0.11037 -2.30748,0.1558 -0.68155,0.0453 -1.40043,0.11418 -1.59752,0.15284 -0.19709,0.0386 -0.46355,0.0703 -0.59217,0.0703 -0.12861,0 -0.35194,0.0318 -0.49629,0.0708 -0.14436,0.0389 -0.43552,0.11119 -0.64704,0.16054 -1.32559,0.30935 -2.39706,0.98515 -2.62794,1.65754 -0.18007,0.52438 -0.12334,1.2343 0.17379,2.17409 0.35478,1.12221 2.31396,3.08293 4.61376,4.61742 0.17534,0.11698 0.3188,0.26672 0.3188,0.33275 0,0.0991 0.0636,0.11065 0.36321,0.0664 0.68844,-0.10167 1.13373,-0.17661 1.60241,-0.26952 0.25852,-0.0513 0.62388,-0.11918 0.8119,-0.15099 0.18802,-0.0318 0.63027,-0.11014 0.9828,-0.17409 1.35932,-0.24653 2.03582,-0.30534 5.9671,-0.51882 1.45812,-0.0792 1.66658,-0.076 1.78214,0.0266 0.18188,0.16161 0.0727,0.4105 -0.20752,0.473 -0.12607,0.0282 -0.86501,0.0833 -1.64209,0.12275 -3.73464,0.18933 -5.20934,0.32213 -6.71151,0.60437 -0.65606,0.12326 -1.59923,0.26177 -3.07664,0.45184 -1.09712,0.14114 -1.57582,0.22098 -2.64931,0.44185 -1.40468,0.289 -3.31866,1.27222 -4.29127,2.20442 -0.92785,0.88931 -0.81164,1.9271 0.33809,3.01928 1.40999,1.33941 3.39857,2.04976 6.68796,2.38905 1.40652,0.14508 2.3231,0.23826 2.83595,0.28828 0.29067,0.0284 0.55758,0.0774 0.59315,0.10902 0.10804,0.096 0.24974,-0.1056 0.549,-0.78153 z m 76.59226,-1.46192 c 0.0682,-0.17628 -0.0989,-0.52521 -0.4163,-0.86937 -0.44712,-0.48486 -1.34102,-1.12043 -1.72014,-1.22301 l -0.32168,-0.087 0.31843,0.24484 c 0.17515,0.13466 0.43584,0.37894 0.57933,0.54283 0.14349,0.16388 0.50977,0.53137 0.81393,0.81665 0.30418,0.28526 0.55305,0.55271 0.55305,0.59435 0,0.10846 0.14977,0.0936 0.19338,-0.0193 z m -12.32899,-0.32045 c 0,-0.32974 -0.59952,-0.95771 -1.14131,-1.19546 -0.36496,-0.16015 -1.25045,-0.48823 -1.48664,-0.55081 -0.15094,-0.0399 -0.19229,-0.10701 -0.19229,-0.31162 0,-0.32431 0.0452,-0.3258 0.99666,-0.0329 0.55637,0.17131 0.89286,0.22783 1.35634,0.22783 h 0.6164 l 0.36425,0.36072 c 0.20033,0.19841 0.47756,0.4718 0.61606,0.60756 0.17443,0.17097 0.32847,0.2468 0.50126,0.2468 0.1372,0 0.24944,-0.033 0.24944,-0.0733 0,-0.16462 -0.28775,-0.59466 -0.37746,-0.56407 -0.053,0.0181 -0.1601,-0.0628 -0.23786,-0.17982 -0.1986,-0.29875 -0.58998,-0.67068 -0.80936,-0.76913 -0.10195,-0.0458 -0.43121,-0.0945 -0.73154,-0.10838 -0.30036,-0.0138 -0.59185,-0.0503 -0.64779,-0.081 -0.15823,-0.0869 -0.11966,-0.41535 0.0605,-0.51534 0.13401,-0.0743 0.14628,-0.12106 0.0705,-0.26875 l -0.0916,-0.17874 -1.81767,0.0214 c -1.13072,0.0133 -1.85006,-0.007 -1.9034,-0.0547 -0.0471,-0.0418 -0.22322,-0.65691 -0.39127,-1.36699 -0.16805,-0.71007 -0.34588,-1.44482 -0.39517,-1.63276 -0.11017,-0.42035 -0.20975,-0.82107 -0.33947,-1.36699 -0.0546,-0.22973 -0.13339,-0.49619 -0.17511,-0.59212 -0.0417,-0.0959 -0.0759,-0.29044 -0.0759,-0.4322 0,-0.14177 -0.0345,-0.27664 -0.0764,-0.29973 -0.0421,-0.023 -0.0965,-0.17034 -0.12123,-0.32724 -0.0247,-0.15689 -0.0891,-0.43905 -0.1434,-0.62701 -0.0542,-0.18796 -0.11929,-0.45312 -0.1446,-0.58926 -0.0253,-0.13613 -0.0802,-0.2663 -0.12202,-0.28927 -0.0418,-0.0229 -0.076,-0.12356 -0.076,-0.22355 0,-0.1 -0.0343,-0.26031 -0.0765,-0.35625 -0.0421,-0.0959 -0.12347,-0.32824 -0.18082,-0.51619 -0.0573,-0.18795 -0.13363,-0.42718 -0.1695,-0.5316 -0.036,-0.1044 -0.15245,-0.44617 -0.25907,-0.75943 -0.31776,-0.93368 -0.81034,-2.18837 -1.1926,-3.03772 -0.35141,-0.7808 -0.50246,-1.0942 -0.89682,-1.86061 -0.1842,-0.35801 -0.31212,-0.616884 -0.59102,-1.196114 -0.48659,-1.01059 -1.31281,-3.47429 -2.02474,-6.03748 -0.0609,-0.21929 -0.15154,-0.39734 -0.20141,-0.39567 -0.0499,0.002 -0.98815,0.77913 -2.08508,1.7277 l -1.99442,1.72469 0.21354,0.37971 c 0.73885,1.31382 1.05441,2.13059 1.33506,3.455424 0.21753,1.02688 0.4518,1.76347 0.7471,2.34893 0.29227,0.57952 1.16612,2.13902 1.53489,2.73925 0.71184,1.15867 2.59937,4.55617 2.84788,5.12616 0.0364,0.0836 0.15289,0.32277 0.2588,0.53161 0.18844,0.37156 0.28966,0.58617 0.43874,0.9303 0.0408,0.0939 0.10874,0.24777 0.15117,0.34175 0.10804,0.23942 0.37558,0.88747 0.69752,1.68973 0.69489,1.73166 1.60791,2.99975 2.15978,2.99975 0.11447,0 0.5298,0.10282 0.92296,0.2284 0.41594,0.1329 1.05428,0.2629 1.5267,0.31092 0.44655,0.0453 0.91642,0.11717 1.04415,0.15952 0.12774,0.0423 0.51233,0.29771 0.85463,0.56746 0.3423,0.26976 0.73773,0.53668 0.87874,0.59316 0.35451,0.14197 0.72643,0.14375 0.72643,0.003 z m 12.74489,-0.5165 c -0.1423,-0.12643 -0.22288,-6.5e-4 -0.0904,0.14096 0.0801,0.0858 0.12641,0.096 0.14998,0.0331 0.0188,-0.0499 -0.008,-0.12837 -0.0596,-0.17414 z m -11.42735,-1.82917 c -0.0297,-0.0687 -0.0896,-0.12479 -0.13321,-0.12479 -0.0437,0 -0.0364,0.0712 0.0161,0.1584 0.10885,0.18067 0.19857,0.15493 0.11714,-0.0336 z m -0.45973,-1.47278 c -0.20968,-0.62233 -0.711,-1.56584 -1.87902,-3.53639 -0.46768,-0.78904 -0.84994,-1.5159 -1.42288,-2.7056 -0.51725,-1.07405 -1.94631,-3.4547 -2.85179,-4.75079 -0.20427,-0.29238 -0.5624,-0.87335 -0.79583,-1.29103 -0.43923,-0.7859 -0.48743,-0.88299 -0.65978,-1.329 -0.0565,-0.14618 -0.1334,-0.33415 -0.17089,-0.41769 -0.21008,-0.46805 -0.76918,-2.329304 -0.76918,-2.560594 0,-0.0941 -0.31248,-0.8039 -0.69439,-1.57721 -0.38191,-0.77333 -0.77011,-1.55983 -0.86269,-1.74778 -0.45334,-0.92052 -1.6917,-3.289496 -1.74507,-3.33836 -0.0554,-0.0508 -0.87915,0.77724 -0.88259,0.88705 -0.003,0.0909 0.21237,0.85187 0.82209,2.90696 0.27988,0.94327 0.86517,2.61132 1.05924,3.01874 0.0448,0.0939 0.1147,0.24777 0.15541,0.34175 0.14374,0.33177 0.38628,0.84185 0.68612,1.442924 0.41092,0.82374 0.51568,1.03523 0.80782,1.63055 0.29449,0.60012 0.94699,2.2716 1.16446,2.98299 0.0575,0.18796 0.13919,0.40108 0.18161,0.47361 0.0425,0.0726 0.0771,0.21575 0.0771,0.31828 0,0.10251 0.0342,0.20519 0.076,0.22815 0.0418,0.023 0.0996,0.16168 0.1282,0.30826 0.0287,0.14657 0.0756,0.38642 0.10435,0.533 0.0287,0.14659 0.0864,0.2853 0.12819,0.30826 0.0419,0.0229 0.076,0.1142 0.076,0.20275 0,0.0885 0.0359,0.26595 0.0797,0.39421 0.083,0.24328 0.22573,0.7284 0.34764,1.18252 0.0392,0.14619 0.11155,0.4025 0.16066,0.56957 0.0491,0.16709 0.24588,0.88474 0.43726,1.59481 0.19137,0.71006 0.38208,1.41064 0.42381,1.55684 0.0417,0.14619 0.14154,0.62462 0.22183,1.0632 0.0803,0.43857 0.18883,0.89139 0.24123,1.00624 l 0.0952,0.20884 2.05158,0.003 c 1.91892,0.003 2.71885,0.0707 2.91632,0.24612 0.0336,0.0298 0.12893,0.0543 0.21183,0.0543 0.12449,0 0.13847,-0.0363 0.0803,-0.20884 z m -40.5617,-8.08795 c 0.0214,-0.0939 0.0624,-0.27339 0.091,-0.39871 0.0285,-0.1253 0.0885,-0.35598 0.13337,-0.51261 0.0449,-0.15662 0.11496,-0.41294 0.15569,-0.56956 0.0406,-0.15665 0.0888,-0.33413 0.10685,-0.39442 0.0337,-0.11273 -0.53787,-0.4096 -0.95004,-0.49347 -0.18058,-0.0367 -0.24651,0.005 -0.42587,0.26469 -0.11672,0.16948 -0.39456,0.50292 -0.61743,0.74097 -0.22287,0.23804 -0.4055,0.46698 -0.40585,0.50875 -6.7e-4,0.0812 0.79533,0.56957 0.92827,0.56957 0.0436,0 0.0922,0.0257 0.10782,0.057 0.0318,0.0635 0.67701,0.39422 0.77466,0.39695 0.0344,6.4e-4 0.0801,-0.0752 0.10163,-0.16913 z m 0.81084,-2.92381 c 0.33128,-1.03995 1.28725,-3.67313 1.45436,-4.005994 0.042,-0.0836 0.2176,-0.47655 0.39041,-0.87334 0.17278,-0.39681 0.37314,-0.84108 0.44522,-0.98728 0.0721,-0.14619 0.17964,-0.36831 0.239,-0.49363 0.19216,-0.40567 0.36088,-0.75182 0.54555,-1.11933 0.0994,-0.19794 0.18088,-0.39492 0.18088,-0.4377 0,-0.0428 0.0352,-0.13715 0.0781,-0.20968 0.27455,-0.46282 0.48708,-0.97136 0.41585,-0.99505 -0.046,-0.0153 -0.17598,0.0105 -0.28885,0.057 -0.26292,0.10861 -0.54907,0.21129 -0.74131,0.26602 -0.0833,0.0237 -0.16531,0.0867 -0.18222,0.1398 -0.0168,0.0532 -0.0781,0.25042 -0.13598,0.43838 -0.0579,0.18796 -0.13498,0.4101 -0.17126,0.49363 -0.0363,0.0836 -0.11437,0.30567 -0.17351,0.49364 -0.39053,1.24117 -1.20189,3.433254 -1.64439,4.442684 -0.44797,1.0219 -1.22434,2.46908 -1.37088,2.5554 -0.15449,0.0911 0.0148,0.28318 0.38549,0.43756 0.2022,0.0842 0.38807,0.15436 0.41306,0.15589 0.025,9.8e-4 0.0971,-0.15955 0.16035,-0.35796 z m -2.72692,-8.069854 c 1.79809,-0.33326 3.56537,-0.74437 3.95145,-0.91917 0.0816,-0.037 0.22357,-0.0672 0.31545,-0.0672 0.0919,0 0.1908,-0.0341 0.21985,-0.0759 0.0291,-0.0418 0.139,-0.0759 0.24434,-0.0759 0.10532,0 0.22806,-0.0272 0.27271,-0.0605 0.0446,-0.0333 0.23502,-0.10387 0.42303,-0.1569 0.18802,-0.0531 0.41877,-0.12518 0.51278,-0.16024 0.094,-0.0351 0.59395,-0.20949 1.111,-0.38756 1.307,-0.4501 2.07245,-0.76281 5.44672,-2.225196 0.92752,-0.401974 1.72027,-0.730864 1.76168,-0.730864 0.0414,0 0.17769,-0.091 0.30283,-0.2022 0.21796,-0.19369 0.34813,-0.22895 1.37681,-0.37304 0.57494,-0.0805 1.23733,-0.3171 1.62343,-0.5798 0.47124,-0.3206 0.79355,-0.77676 1.08761,-1.539272 0.41824,-1.084502 0.51135,-1.159231 2.12993,-1.709443 0.26531,-0.09018 0.57007,-0.246914 0.67722,-0.348269 l 0.19483,-0.184284 h -0.21431 c -0.11786,0 -0.24066,0.02344 -0.27287,0.05206 -0.13998,0.124383 -0.73485,0.249524 -1.19117,0.250582 -0.33048,6.46e-4 -0.61057,0.0536 -0.8434,0.159181 -0.39797,0.180409 -0.52714,0.125553 -0.48453,-0.205744 0.0232,-0.179466 0.1113,-0.25458 0.49808,-0.424081 0.25853,-0.11329 0.53507,-0.20727 0.61457,-0.208844 0.0795,-0.0013 0.16828,-0.037 0.19733,-0.0788 0.0291,-0.04178 0.10728,-0.07594 0.17382,-0.07594 0.16748,0 1.22868,-0.438031 1.37395,-0.567129 0.0653,-0.05806 0.11873,-0.159194 0.11873,-0.224802 0,-0.09505 -0.11721,-0.06754 -0.57686,0.135439 -0.31728,0.140098 -0.71147,0.297316 -0.87599,0.349361 -0.38037,0.120335 -0.56232,0.18493 -0.96743,0.343446 -0.36839,0.144146 -0.57087,0.110564 -0.57087,-0.09469 0,-0.07649 -0.0415,-0.175926 -0.0922,-0.22096 -0.0506,-0.04501 -0.0796,-0.178541 -0.064,-0.296681 0.0236,-0.180235 0.15868,-0.286193 0.83994,-0.6585 0.44653,-0.244034 0.86957,-0.464865 0.94008,-0.490724 0.30659,-0.112469 0.85461,-0.493797 0.85461,-0.59468 0,-0.06065 -0.01,-0.110267 -0.0234,-0.110267 -0.0128,0 -0.50316,0.213592 -1.08963,0.47465 -0.58649,0.261052 -1.27082,0.557333 -1.52072,0.65839 -0.64875,0.262343 -0.96824,0.643827 -1.54349,1.843017 -0.0939,0.195812 -0.34148,0.588817 -0.55011,0.873351 -0.34415,0.469339 -0.56718,0.851122 -0.68007,1.16408 -0.0466,0.12946 -0.14902,0.177374 -1.15187,0.53922 -0.12925,0.0467 -0.30179,0.115 -0.38341,0.151899 -0.0816,0.03696 -0.20713,0.06712 -0.27891,0.06712 -0.0718,0 -0.1973,0.0309 -0.27891,0.0686 -0.0816,0.0377 -0.32146,0.10995 -0.53298,0.16054 -0.21152,0.0507 -0.46149,0.11971 -0.55551,0.15356 -0.094,0.0339 -0.2863,0.0828 -0.4273,0.10867 -0.14102,0.0259 -0.41022,0.0816 -0.59824,0.12378 -1.49095,0.33452 -3.74275,0.64362 -6.04068,0.82921 -1.35208,0.10921 -5.27367,0.28063 -5.47532,0.23936 -0.10467,-0.0215 -0.14956,-0.1046 -0.14956,-0.27699 v -0.24637 l 0.44868,-0.0478 c 0.24677,-0.0264 0.56955,-0.0482 0.71728,-0.0486 0.17642,-4.3e-4 0.28838,-0.0464 0.32623,-0.13356 0.0754,-0.17399 0.20987,-2.097931 0.30913,-4.423698 0.10304,-2.413014 0.21811,-3.818045 0.67519,-8.239835 0.0475,-0.45946 0.12235,-1.211293 0.16638,-1.670752 0.10239,-1.069117 0.17706,-1.417792 0.2959,-1.382099 0.12195,0.03662 0.11428,0.650583 -0.0239,1.913703 -0.16647,1.521464 -0.39791,3.821089 -0.52354,5.202109 -0.15123,1.662272 -0.2575,3.252019 -0.34268,5.126165 -0.0455,1.002452 -0.10598,2.215639 -0.1343,2.695987 l -0.0514,0.87335 0.9701,-0.0202 c 0.53354,-0.0111 1.27425,-0.0538 1.646,-0.095 0.37176,-0.041 0.9294,-0.078 1.23921,-0.0821 0.30979,-0.004 0.76876,-0.0467 1.0199,-0.095 l 0.45664,-0.0876 0.30209,-0.64552 c 0.41774,-0.892689 0.44923,-0.974298 0.68876,-1.784667 0.0493,-0.167077 0.12608,-0.426657 0.17043,-0.576841 l 0.0807,-0.273071 -0.56484,-0.238234 c -1.1985,-0.505506 -1.88948,-1.457757 -1.88948,-2.603937 0,-0.661794 0.30213,-1.58597 0.51847,-1.58597 0.17588,0 0.1873,0.262647 0.0293,0.675007 -0.22271,0.581435 -0.21058,1.385844 0.027,1.793147 0.36605,0.627488 1.08165,1.110546 1.9562,1.3205 0.99596,0.239102 2.09548,-0.07983 2.90836,-0.843603 0.42977,-0.403796 0.88479,-1.1361 0.88479,-1.423953 0,-0.07984 0.0334,-0.163476 0.0741,-0.185866 0.1332,-0.07315 0.21181,-0.745905 0.2137,-1.828862 0.001,-0.994653 -0.0497,-1.392657 -0.28909,-2.240322 -0.0531,-0.187959 -0.11725,-0.453131 -0.14254,-0.589263 -0.0253,-0.136138 -0.0802,-0.266309 -0.12201,-0.289274 -0.0419,-0.02299 -0.076,-0.12315 -0.076,-0.22264 0,-0.09949 -0.0385,-0.202019 -0.0855,-0.227831 -0.0471,-0.02583 -0.0856,-0.113735 -0.0856,-0.195373 0,-0.08164 -0.0354,-0.207778 -0.0787,-0.280304 -0.0433,-0.07253 -0.15958,-0.32068 -0.25851,-0.551456 -0.0989,-0.23077 -0.25583,-0.461732 -0.34867,-0.513256 -0.12612,-0.07 -0.16881,-0.177308 -0.16881,-0.424333 0,-0.189488 -0.10337,-0.553975 -0.24227,-0.853718 -0.13326,-0.287685 -0.42567,-1.001505 -0.64984,-1.586266 -0.22415,-0.584767 -0.44003,-1.131554 -0.47976,-1.215089 -0.0397,-0.08355 -0.15613,-0.391113 -0.25874,-0.683494 -0.1025,-0.29238 -0.21536,-0.59995 -0.25058,-0.683487 -0.0353,-0.08353 -0.15023,-0.408194 -0.25551,-0.72146 -0.10533,-0.313266 -0.22077,-0.655013 -0.25665,-0.759435 -0.036,-0.104424 -0.1126,-0.343639 -0.17051,-0.531597 -0.0579,-0.187959 -0.13516,-0.427182 -0.17169,-0.531603 -0.0366,-0.104424 -0.11168,-0.394904 -0.16704,-0.645519 -0.0553,-0.250609 -0.13638,-0.579233 -0.18006,-0.73027 -0.20113,-0.695253 -7.3e-4,-1.917879 0.40428,-2.467243 l 0.12974,-0.175933 -0.30674,-0.544818 c -0.16869,-0.299652 -0.30673,-0.587505 -0.30673,-0.639674 0,-0.05218 -0.0699,-0.111106 -0.15542,-0.130971 -0.10065,-0.02338 -0.20944,-0.188695 -0.30866,-0.468986 -0.0844,-0.238074 -0.34121,-0.760984 -0.57099,-1.162029 -0.22977,-0.401046 -0.41777,-0.794057 -0.41777,-0.873363 0,-0.08935 -0.0374,-0.123661 -0.0984,-0.09019 -0.11902,0.06537 -0.0433,2.12748 0.10174,2.769997 0.0512,0.226906 0.12995,0.583435 0.17497,0.79228 0.045,0.208838 0.23337,0.964507 0.41857,1.67925 0.31819,1.228052 0.42838,1.693725 0.69892,2.953279 0.17463,0.813012 0.148,3.330875 -0.0434,4.100933 -0.19168,0.771272 -0.5848,1.818611 -0.8762,2.334276 -0.22265,0.393986 -0.80317,1.275003 -0.88887,1.348968 -0.0242,0.02086 -0.14894,0.163172 -0.27723,0.316185 -0.12828,0.15302 -0.28188,0.325336 -0.34136,0.382924 -0.0594,0.05761 -0.15077,0.17162 -0.20289,0.253393 -0.0526,0.08267 -0.1855,0.148673 -0.29912,0.148673 -0.32323,0 -0.30388,-0.274291 0.0483,-0.684256 0.28965,-0.337205 0.7302,-1.094715 0.7302,-1.255576 0,-0.04108 0.0337,-0.134065 0.075,-0.20659 0.1273,-0.22393 0.26687,-0.665694 0.26687,-0.844727 0,-0.09377 0.0402,-0.23728 0.0893,-0.31893 0.12537,-0.208172 0.12167,-2.481006 -0.005,-2.973061 -0.0565,-0.219919 -0.13717,-0.4592 -0.17916,-0.531725 -0.0421,-0.07253 -0.0763,-0.184065 -0.0763,-0.247851 0,-0.128693 -0.0561,-0.236402 -0.54491,-1.046456 -0.21129,-0.350167 -0.94642,-1.029649 -1.44132,-1.332221 -0.90123,-0.550997 -1.41399,-0.723327 -2.20142,-0.739854 -0.30552,-0.0064 -0.78625,-0.07136 -1.06827,-0.144314 -1.43788,-0.371976 -2.71444,0.307047 -3.38701,1.801595 -0.36102,0.802227 -0.56341,1.543532 -0.77217,2.828229 -0.0476,0.29238 -0.11885,2.770029 -0.15853,5.505879 -0.0397,2.735862 -0.11051,5.281857 -0.15742,5.657772 -0.10316,0.826051 -0.25057,1.936628 -0.35304,2.658012 -0.33764,2.376879 -0.41031,3.009612 -0.51022,4.442673 -0.0859,1.23109 -0.0486,2.736014 0.0791,3.189624 0.16037,0.57004 0.2822,0.95571 0.34785,1.10116 0.24454,0.54179 0.30241,0.64552 0.36012,0.64552 0.0356,0 0.0646,0.0365 0.0646,0.0812 0,0.10843 0.49946,0.75557 0.72106,0.93425 l 0.17629,0.14214 1.45286,-0.0422 c 0.79907,-0.023 1.66436,-0.0814 1.92289,-0.1292 z m 10.63401,-12.451103 c -0.51526,-0.185318 -0.61773,-1.004845 -0.16856,-1.348166 0.2778,-0.212352 0.43527,-0.216776 0.79416,-0.02235 l 0.27775,0.150488 v 0.568016 c 0,0.483857 -0.0245,0.579664 -0.1653,0.646635 -0.19431,0.0924 -0.49005,0.09455 -0.73805,0.0051 z m -1.59085,5.910143 c 0.10886,-0.0358 0.30499,-0.0652 0.43593,-0.0652 0.38889,0 0.77634,-0.1517 0.77634,-0.30396 0,-0.166219 1.4459,-2.101317 1.97603,-2.644596 0.11179,-0.114561 0.39348,-0.429261 0.62598,-0.699322 0.3814,-0.443036 1.7201,-1.87835 1.83918,-1.971922 0.0265,-0.02086 0.15856,-0.157579 0.29329,-0.303772 0.13474,-0.146188 0.4457,-0.470847 0.69104,-0.721462 1.86992,-1.910143 2.33813,-2.38312 2.56409,-2.590129 0.51751,-0.474119 1.71111,-1.649394 1.73882,-1.71211 0.0156,-0.03545 -0.003,-0.06452 -0.0427,-0.06452 -0.0391,0 -0.34043,-0.05225 -0.66945,-0.116144 -0.66254,-0.128643 -1.28741,-0.234337 -2.02969,-0.343311 -1.28186,-0.188205 -2.0492,-0.31421 -2.75614,-0.452595 -0.23502,-0.04598 -0.55266,-0.102613 -0.70585,-0.125793 -0.15321,-0.02318 -0.29969,-0.07254 -0.32554,-0.109698 -0.0259,-0.03714 -0.15782,-0.06755 -0.29327,-0.06755 -0.13547,0 -0.26537,-0.02738 -0.28866,-0.0609 -0.0234,-0.03352 -0.23952,-0.108614 -0.48051,-0.166924 -0.24096,-0.05832 -0.45719,-0.133427 -0.48049,-0.166925 -0.0234,-0.03352 -0.0785,-0.0609 -0.12279,-0.0609 -0.1076,0 -0.10336,0.358184 0.005,0.417689 0.0471,0.02583 0.0855,0.128336 0.0855,0.227831 0,0.09949 0.0385,0.202018 0.0855,0.227831 0.0471,0.02583 0.0855,0.128336 0.0855,0.227824 0,0.09949 0.0343,0.199687 0.076,0.222646 0.0418,0.02299 0.0966,0.153135 0.12203,0.28927 0.0253,0.136138 0.0876,0.40131 0.1384,0.589269 0.43822,1.620687 0.40229,4.070222 -0.0752,5.126164 -0.36732,0.812302 -1.18576,1.740901 -1.7194,1.950804 -0.13811,0.05431 -0.25109,0.124597 -0.25109,0.156171 0,0.03158 -0.0692,0.05741 -0.15383,0.05741 -0.0847,0 -0.1949,0.03649 -0.24509,0.0811 -0.0502,0.04463 -0.38149,0.08731 -0.73622,0.09493 l -0.64496,0.01382 -0.05,0.284786 c -0.0275,0.15663 -0.0734,0.421699 -0.10173,0.589034 -0.0286,0.167343 -0.0862,0.323147 -0.1282,0.346224 -0.0421,0.02314 -0.0764,0.114581 -0.0764,0.20332 0,0.181792 -0.27296,0.919243 -0.51992,1.4047 -0.09,0.17705 -0.16378,0.34081 -0.16378,0.3639 0,0.0589 1.28273,-0.0481 1.52252,-0.12701 z m 11.93137,-5.091514 c 0.61006,-0.306232 0.8118,-0.472097 0.81423,-0.669426 7.4e-4,-0.08553 -0.0154,-0.09017 -0.0666,-0.01867 -0.0374,0.05237 -0.45028,0.320234 -0.91741,0.595216 -0.90532,0.532921 -0.81032,0.584884 0.16981,0.09287 z m -27.57682,-2.928865 c 0.0275,-0.770557 0.16405,-1.497493 0.41117,-2.189395 0.28763,-0.805294 0.89964,-1.857551 1.28724,-2.213169 0.0557,-0.05109 0.18516,-0.213532 0.28769,-0.360953 l 0.18641,-0.268033 0.0393,-2.205856 c 0.0215,-1.213217 0.0761,-2.291841 0.12107,-2.396934 0.045,-0.105093 0.0817,-0.327507 0.0817,-0.494249 0,-0.166744 0.0396,-0.463547 0.0879,-0.659559 0.0484,-0.196012 0.12919,-0.527258 0.17964,-0.736101 0.30154,-1.247867 0.97218,-2.417653 1.64909,-2.876453 0.77933,-0.528213 1.38074,-0.635522 2.6363,-0.470386 0.52765,0.0694 1.19261,0.154647 1.47769,0.189444 0.73764,0.09002 1.43144,0.418856 2.09511,0.993012 1.0442,0.903342 1.6669,1.950423 2.05495,3.455413 0.15608,0.605324 0.1562,2.903171 1.9e-4,3.389353 -0.2154,0.671237 -0.0626,0.666288 0.30517,-0.0098 0.41997,-0.772067 0.65779,-1.437491 0.83437,-2.334554 0.27793,-1.411865 0.14137,-2.627801 -0.65036,-5.79137 -0.52631,-2.103016 -0.73486,-3.414778 -0.81423,-5.121341 l -0.0456,-0.982434 0.15686,-0.101922 c 0.13997,-0.09096 0.15725,-0.226314 0.16046,-1.257889 0.004,-1.463988 0.0139,-1.491183 1.14657,-3.358315 0.1013,-0.167072 0.26938,-0.523343 0.37337,-0.791706 0.22096,-0.570211 0.40273,-0.69101 0.40273,-0.267652 0,0.419102 -0.15521,0.825799 -0.62166,1.628936 -0.69927,1.204021 -0.83823,1.600707 -0.89118,2.544095 -0.036,0.640418 -0.0136,0.950416 0.0954,1.328328 0.1928,0.667341 0.28092,0.713265 0.34575,0.180196 0.12243,-1.006376 0.40382,-1.620612 1.01282,-2.210765 0.32946,-0.319253 0.91436,-0.759913 1.30744,-0.985011 2.06644,-1.183329 2.71555,-1.657048 3.26162,-2.380311 0.5729,-0.758788 0.67787,-1.648891 0.27683,-2.347431 -0.35182,-0.612789 -1.25267,-1.224862 -2.35147,-1.597653 -1.11931,-0.379752 -2.55252,-0.359176 -4.9568,0.07117 -0.23502,0.04205 -0.6196,0.109615 -0.85462,0.150107 -0.41041,0.07071 -0.76679,0.145089 -1.41012,0.294298 -0.16451,0.03817 -0.58682,0.177129 -0.93846,0.308824 -0.82572,0.309249 -0.88387,0.307421 -0.84001,-0.02635 0.0191,-0.146187 0.007,-0.265799 -0.0281,-0.265799 -0.13167,0 -1.0725,0.488819 -1.44097,0.748662 -0.42935,0.302805 -0.59964,0.458078 -0.92791,0.846143 -0.12366,0.146193 -0.24441,0.282886 -0.26833,0.303771 -0.2367,0.206695 -1.18815,1.872053 -1.61041,2.818711 -0.44485,0.997392 -0.9455,2.505418 -1.29552,3.902265 -0.0418,0.167074 -0.11877,0.457556 -0.17092,0.645514 -0.0522,0.187958 -0.12906,0.478446 -0.17092,0.645519 -0.29697,1.185183 -0.39923,1.458376 -0.93549,2.499256 -0.43746,0.849094 -1.0013,1.558394 -1.78816,2.249424 -0.89045,0.782024 -1.32227,1.051337 -2.17307,1.35529 -0.4578,0.163547 -1.16066,0.0591 -1.92062,-0.285425 l -0.3447,-0.156268 0.0975,0.229303 c 0.18823,0.44314 0.40284,0.545599 1.12705,0.538108 0.35841,-0.0039 0.79301,-0.04701 0.96578,-0.09624 1.13444,-0.323192 2.46852,-0.8815 3.30531,-1.383255 0.53373,-0.32004 2.83749,-2.32422 4.23955,-3.688242 l 0.8105,-0.78851 0.14565,0.129429 c 0.21479,0.19087 0.18366,0.286244 -0.21756,0.666391 -0.19977,0.189277 -0.77365,0.750045 -1.27528,1.246161 -1.52513,1.508284 -3.01377,2.752791 -4.01094,3.353174 l -0.39353,0.236943 -0.0478,0.411657 c -0.0448,0.385688 -0.33021,1.293221 -0.49965,1.588701 -0.0416,0.07253 -0.0755,0.198667 -0.0755,0.280304 0,0.08165 -0.0309,0.165374 -0.0686,0.186078 -0.0377,0.02073 -0.12222,0.212841 -0.18784,0.426982 -0.0655,0.214139 -0.15015,0.406283 -0.18785,0.426981 -0.0377,0.02073 -0.0685,0.119043 -0.0685,0.218537 0,0.09949 -0.0339,0.199578 -0.0755,0.22242 -0.0416,0.02286 -0.0961,0.135919 -0.12115,0.251294 -0.0251,0.115375 -0.0897,0.346474 -0.14373,0.513545 -0.38456,1.189845 -0.46237,1.684342 -0.46612,2.961785 -0.003,1.1041 0.0399,1.483807 0.28965,2.544096 0.0442,0.187959 0.10467,0.444269 0.13423,0.569578 0.0296,0.125307 0.0844,0.296177 0.12158,0.379716 0.0373,0.08354 0.15174,0.391106 0.25432,0.683486 0.18253,0.520192 0.29223,0.777879 0.44412,1.043193 0.0415,0.07252 0.0754,0.165653 0.0754,0.206939 0,0.04126 0.10918,0.28952 0.24268,0.551617 0.13348,0.262105 0.33263,0.655963 0.44256,0.87525 0.10995,0.219286 0.22184,0.398642 0.24871,0.398579 0.0268,-7.2e-5 0.0584,-0.264928 0.0699,-0.588566 z m 27.70601,-3.825017 c 0.20856,-0.169792 0.51622,-0.39936 0.6837,-0.510157 0.16747,-0.110789 0.32372,-0.221011 0.34723,-0.244925 0.0235,-0.02389 0.26387,-0.190541 0.53414,-0.370286 l 0.4914,-0.326801 v -1.130023 c 0,-0.768476 -0.03,-1.130024 -0.0936,-1.130024 -0.0515,0 -0.19572,0.06103 -0.3205,0.135634 -0.25242,0.150934 -0.55024,0.273982 -1.33783,0.552722 -0.094,0.03327 -0.38246,0.101315 -0.64099,0.151192 -0.25851,0.04985 -0.58154,0.120606 -0.71781,0.157173 -0.13627,0.03655 -0.53065,0.06648 -0.87641,0.06648 h -0.62866 l -0.69191,-0.321887 c -0.67262,-0.312912 -1.03424,-0.559329 -1.2819,-0.873532 -0.0664,-0.0842 -0.2934,-0.205344 -0.50448,-0.269189 -1.51409,-0.457935 -4.55049,-1.776343 -5.56744,-2.417385 -0.12478,-0.07865 -0.24511,-0.142991 -0.2674,-0.142991 -0.0916,0 -1.0391,-0.538766 -1.10181,-0.62652 -0.046,-0.06445 -0.0683,-0.04411 -0.0691,0.0633 -7.1e-4,0.08702 0.0239,0.180571 0.0546,0.207889 0.0552,0.04901 0.14808,0.277829 0.96149,2.367853 0.5319,1.366682 1.00496,2.488335 1.20112,2.847867 0.15553,0.285076 1.97236,0.858206 3.63563,1.146886 0.63495,0.110196 1.2155,0.204627 1.83744,0.298864 1.9553,0.296268 2.52022,0.396764 3.33301,0.592924 0.50462,0.121782 0.62744,0.09469 1.02016,-0.225034 z m -4.14628,-6.743851 c 0.4533,-0.184271 0.42181,-0.307422 -0.0787,-0.307667 -0.45326,-2.19e-4 -0.64097,0.07771 -0.64097,0.266128 0,0.15364 0.13272,0.271462 0.25639,0.227637 0.0235,-0.0084 0.23197,-0.09208 0.46328,-0.186098 z m -0.57519,-0.897522 -0.14448,-0.128383 v 0.123861 c 0,0.06812 0.048,0.139115 0.10685,0.157766 0.1746,0.05541 0.19214,-0.01595 0.0376,-0.153244 z m 15.06442,-0.03423 c 0.0958,-0.09142 0.17426,-0.196321 0.17426,-0.233132 0,-0.09841 0.47477,-0.701977 1.0348,-1.315503 0.53741,-0.588757 1.07221,-1.404391 1.11636,-1.702604 l 0.0281,-0.189856 -1.15374,-0.05025 c -1.23281,-0.05373 -1.6825,-0.161409 -1.91718,-0.459156 -0.15691,-0.199073 -0.17591,-0.730508 -0.0359,-1.003617 0.0759,-0.147937 0.0733,-0.217744 -0.0116,-0.308617 -0.0603,-0.06459 -0.10218,-0.253559 -0.0931,-0.419935 0.0243,-0.446388 0.0172,-0.608972 -0.0434,-0.972922 -0.0484,-0.290882 -0.027,-0.354243 0.18522,-0.551088 0.18577,-0.172304 0.21683,-0.242834 0.13781,-0.313046 -0.0561,-0.04985 -0.10196,-0.248272 -0.10196,-0.44095 0,-0.291735 0.0438,-0.387613 0.26193,-0.573369 l 0.26191,-0.223052 1.01321,-0.03798 c 0.55727,-0.02086 1.03977,-0.06167 1.0722,-0.09068 0.11303,-0.100979 -0.2509,-0.924182 -0.64506,-1.459106 -0.40758,-0.553155 -0.85031,-0.953619 -1.43329,-1.296449 -0.46917,-0.2759 -1.59439,-0.646863 -1.96782,-0.648749 -0.2725,-0.0013 -0.80581,-0.123926 -2.06702,-0.474973 -0.3994,-0.111163 -1.72259,-0.10732 -2.30746,0.0067 -0.25853,0.05038 -0.61215,0.112638 -0.78581,0.138303 -0.17367,0.02564 -0.39319,0.110763 -0.48784,0.189107 -0.21401,0.177186 -0.2379,0.17685 -0.6718,-0.0094 -0.26205,-0.112508 -0.52867,-0.15189 -1.02833,-0.15189 -1.38399,0 -2.33087,0.4867 -2.80724,1.442922 -0.49616,0.995957 -0.38266,1.240683 0.76821,1.656407 0.45782,0.165376 0.6936,0.194682 1.81775,0.225953 l 1.29171,0.03591 0.0615,-0.291108 c 0.16221,-0.768393 0.89255,-1.43428 1.7276,-1.575133 0.31602,-0.05329 0.4837,0.07681 0.44132,0.342476 -0.0194,0.121724 -0.093,0.181798 -0.24157,0.1972 -0.46778,0.0485 -1.03122,0.374929 -1.375,0.796634 -0.35111,0.430707 -0.32664,0.547058 0.13947,0.663027 0.21354,0.05315 0.55482,0.194642 0.75841,0.314481 0.37356,0.219874 0.81895,0.72651 0.81895,0.931556 0,0.0611 0.0343,0.129951 0.0764,0.15304 0.0421,0.02306 0.0966,0.170347 0.12138,0.327241 0.3649,2.316213 0.49258,2.576722 1.42596,2.909473 0.16452,0.05864 0.36295,0.09716 0.44096,0.08559 0.28641,-0.04249 0.89269,0.286361 1.08317,0.587512 0.1989,0.314481 0.25878,1.122281 0.10847,1.46455 -0.25473,0.580427 -0.28854,0.806741 -0.17259,1.155669 0.0636,0.191278 0.14562,0.347777 0.18235,0.347777 0.0367,0 0.0669,0.04455 0.0669,0.09902 0,0.157431 0.52043,0.561788 0.94008,0.730392 0.27055,0.108697 0.56729,0.155009 1.00085,0.156185 0.52532,0.0013 0.64198,-0.02287 0.79053,-0.164542 z m -0.1676,-10.06954 c -0.24514,-0.07722 -1.06546,-1.018993 -0.96519,-1.108103 0.0296,-0.02622 0.15613,-0.04766 0.28144,-0.04766 0.16315,0 0.30605,0.08648 0.5033,0.304593 0.4547,0.502794 0.55346,0.968621 0.18045,0.851141 z m -15.29769,8.147307 c 0,-0.02086 -0.0192,-0.03798 -0.0427,-0.03798 -0.0235,0 -0.0427,0.01705 -0.0427,0.03798 0,0.02086 0.0192,0.03798 0.0427,0.03798 0.0235,0 0.0427,-0.01712 0.0427,-0.03798 z m 12.10712,-0.0886 c -0.0313,-0.02784 -0.057,-0.0051 -0.057,0.05064 0,0.05567 0.0257,0.07848 0.057,0.05064 0.0313,-0.02784 0.0313,-0.07341 0,-0.101262 z m -14.67791,-1.777668 c 0.26413,-0.131914 0.38006,-0.25513 0.48948,-0.520269 0.20053,-0.485866 0.35054,-0.780624 0.47718,-0.937679 0.0937,-0.116203 0.0735,-0.159097 -0.14783,-0.313796 -0.60252,-0.421111 -0.66568,-0.479867 -0.60679,-0.564533 0.0337,-0.04857 0.15545,-0.08825 0.27045,-0.08825 0.11498,0 0.43961,-0.128058 0.72138,-0.284572 l 0.51231,-0.284572 V 62.69434 c 0,-0.185761 -0.0442,-0.329758 -0.10685,-0.348372 -0.0693,-0.02061 -0.10532,-0.181604 -0.10228,-0.458381 0.005,-0.481217 0.18632,-0.737639 0.52157,-0.737639 0.24328,0 0.25105,0.05574 0.0364,0.260905 -0.21204,0.202714 -0.33215,0.727078 -0.16597,0.724669 0.0639,-6.46e-4 0.21248,-0.06852 0.32999,-0.150196 0.13427,-0.09335 0.34857,-0.14914 0.57687,-0.150198 0.32381,-0.0013 0.3632,-0.02106 0.3632,-0.180298 0,-0.09824 -0.20811,-0.739009 -0.46248,-1.423936 l -0.4625,-1.245327 -0.45622,-0.02326 c -0.64995,-0.03313 -1.34276,-0.478459 -1.02003,-0.655697 0.0425,-0.02331 0.28162,0.04178 0.53149,0.144669 0.50049,0.206054 0.76818,0.192382 1.07488,-0.0549 0.19782,-0.15951 0.48157,-0.789245 0.40513,-0.899163 -0.0854,-0.122706 -0.76398,-0.235858 -1.13993,-0.190064 -0.20774,0.02532 -0.5036,0.131346 -0.65751,0.235658 -0.27693,0.187694 -0.54761,0.249647 -0.54761,0.125327 0,-0.09739 0.264,-0.338692 0.59824,-0.546826 l 0.29911,-0.186253 0.78164,0.01396 0.78161,0.01396 -0.1151,-0.431643 c -0.0633,-0.237409 -0.17427,-0.602521 -0.24657,-0.811366 -0.0724,-0.208843 -0.13187,-0.456978 -0.13237,-0.551416 -0.001,-0.227296 -0.32658,-0.835318 -0.59682,-1.115311 -0.52721,-0.546258 -1.30378,-1.106374 -1.67821,-1.210441 l -0.18031,-0.05012 -0.0573,0.496742 c -0.0616,0.534607 -0.10391,0.65055 -0.51187,1.404753 -0.41868,0.773914 -1.36016,1.566344 -3.05852,2.574269 -1.38499,0.82195 -2.05752,1.352514 -2.34875,1.852995 -0.54164,0.930744 -0.46722,2.014327 0.18358,2.673143 0.2422,0.245178 0.29927,0.364846 0.29927,0.627559 0,0.178542 0.0385,0.392508 0.0854,0.475475 0.0471,0.08297 0.11792,0.210666 0.15758,0.283759 0.27056,0.498595 0.51681,0.779125 1.61502,1.839865 0.15235,0.147157 0.27735,0.293187 0.27774,0.324517 4.2e-4,0.03133 0.0423,0.05696 0.0932,0.05696 0.0508,0 0.29115,0.116822 0.53413,0.259612 0.41241,0.242336 0.89513,0.439258 1.29642,0.528859 0.36625,0.08178 1.14733,-0.01615 1.48865,-0.186583 z M 265.99157,65.5878 c 0.52149,-0.396661 0.78678,-0.982951 0.78468,-1.73421 -0.002,-0.905958 -0.4966,-1.64306 -1.40883,-2.101744 l -0.34185,-0.171884 -1.31342,0.01854 c -1.66117,0.02343 -2.14433,0.184631 -1.33108,0.444017 0.27821,0.08874 0.47875,0.09222 1.14893,0.01995 0.7036,-0.07585 0.85534,-0.07124 1.13772,0.03454 0.27772,0.104069 0.32189,0.152484 0.2991,0.327933 -0.0235,0.180589 -0.0739,0.212125 -0.41129,0.257118 -0.72765,0.09702 -1.75282,0.225093 -2.2151,0.276714 -0.25473,0.02842 -0.47816,0.09204 -0.49654,0.141318 -0.0541,0.145301 0.68075,0.202256 1.93862,0.150248 0.63668,-0.02636 1.20876,-0.01898 1.27128,0.01627 0.0645,0.03636 0.10141,0.15887 0.0855,0.282828 -0.0351,0.271353 -0.22126,0.309172 -1.88146,0.381976 -1.29074,0.05665 -1.47674,0.101492 -1.25122,0.301938 0.12196,0.108406 0.36153,0.128445 1.62377,0.135859 1.13281,0.0066 1.54071,0.03553 1.73605,0.12297 0.26101,0.116822 0.37692,0.341088 0.23942,0.463271 -0.0423,0.03752 -0.72846,0.07253 -1.52496,0.07781 -1.4227,0.0094 -2.16011,0.08888 -2.27582,0.24523 -0.0863,0.116524 -0.009,0.188977 0.34205,0.319807 0.24832,0.09261 0.61088,0.113619 1.71986,0.09967 1.01398,-0.01278 1.41451,0.0071 1.4386,0.07137 0.061,0.162494 0.32585,0.09238 0.68604,-0.18159 z m -20.23766,-1.476064 c 0,-0.121252 -0.0561,-0.151379 -0.27776,-0.149359 l -0.27775,0.0026 0.20176,0.149358 c 0.25619,0.189663 0.35375,0.188965 0.35375,-0.0026 z m 0.17092,-0.607545 c 0,-0.04179 -0.0362,-0.07594 -0.0804,-0.07594 -0.0442,0 -0.10423,0.03416 -0.13324,0.07594 -0.0291,0.04178 0.008,0.07594 0.0804,0.07594 0.0733,0 0.13324,-0.03415 0.13324,-0.07594 z m 0.8461,-9.155464 c -0.38785,-1.000971 -0.92289,-1.772649 -1.77982,-2.566971 -0.53714,-0.497886 -1.43478,-1.111966 -1.62546,-1.111966 -0.0496,0 -0.0901,-0.03417 -0.0901,-0.07594 0,-0.04178 -0.0581,-0.07594 -0.12936,-0.07594 -0.0711,0 -0.19614,-0.03023 -0.27776,-0.06709 -0.2833,-0.128065 -0.57697,-0.225479 -0.81073,-0.268938 -0.32009,-0.05947 -0.65486,-0.106461 -0.47004,-0.06593 0.0823,0.01801 0.14956,0.05825 0.14956,0.08929 0,0.03107 0.1346,0.10342 0.29912,0.160776 0.16451,0.05735 0.29912,0.124721 0.29912,0.149688 0,0.02499 0.12087,0.108845 0.2686,0.186394 0.57722,0.302993 1.44063,1.275707 1.44063,1.623002 0,0.03417 0.14422,0.119934 0.32049,0.190561 0.48861,0.195766 1.22166,0.713484 1.60242,1.131682 0.188,0.206513 0.38244,0.415603 0.43207,0.464645 0.0497,0.04901 0.18145,0.234018 0.29296,0.41107 0.11149,0.17705 0.21407,0.311813 0.22796,0.299464 0.0139,-0.01234 -0.0534,-0.225551 -0.14963,-0.473796 z m -14.34909,-3.33719 c 0,-0.02086 -0.0192,-0.03798 -0.0427,-0.03798 -0.0235,0 -0.0427,0.01712 -0.0427,0.03798 0,0.02086 0.0192,0.03798 0.0427,0.03798 0.0235,0 0.0427,-0.01712 0.0427,-0.03798 z m 0.34185,-0.15189 c 0,-0.02086 -0.0192,-0.03798 -0.0427,-0.03798 -0.0235,0 -0.0427,0.01712 -0.0427,0.03798 0,0.02086 0.0192,0.03798 0.0427,0.03798 0.0235,0 0.0427,-0.01712 0.0427,-0.03798 z m 0.40416,-0.159795 c -0.0285,-0.02524 -0.10206,-0.02797 -0.1638,-0.0059 -0.0682,0.02422 -0.0479,0.04224 0.0515,0.04585 0.09,0.0032 0.14056,-0.01467 0.11216,-0.03991 z m 0.57282,-0.173556 c 0.0259,-0.03714 0.17232,-0.08652 0.32551,-0.109698 0.1532,-0.02318 0.47085,-0.07822 0.70587,-0.122313 0.23502,-0.04411 0.6292,-0.114334 0.87598,-0.156099 1.1463,-0.194017 1.45793,-0.245571 1.81606,-0.300466 0.33089,-0.05069 0.27791,-0.06038 -0.37943,-0.06911 -1.16896,-0.01551 -2.19329,0.170217 -3.20998,0.582061 -0.2115,0.08568 -0.44226,0.172749 -0.51275,0.19348 -0.0704,0.02073 -0.0247,0.04037 0.10174,0.04373 0.12648,0.0032 0.25111,-0.02441 0.27697,-0.06155 z m 17.73918,66.821604 c 0,-0.22276 0.0192,-0.38792 0.0428,-0.367 0.0662,0.0588 0.0778,0.66482 0.0139,0.72161 -0.0312,0.0277 -0.0567,-0.13183 -0.0567,-0.35461 z"
       id="path21" /></g></svg>
