<?xml version="1.0" encoding="UTF-8" standalone="no"?>
<!-- Created with Inkscape (http://www.inkscape.org/) -->

<svg
   width="133.87514mm"
   height="66.557434mm"
   viewBox="0 0 133.87515 66.557435"
   version="1.1"
   id="svg1"
   xml:space="preserve"
   xmlns="http://www.w3.org/2000/svg"
   xmlns:svg="http://www.w3.org/2000/svg"><defs
     id="defs1" /><g
     id="layer1"
     transform="translate(-97.040688,96.124945)"><path
       style="fill:#4d4d4d"
       d="m 121.84974,-29.807166 c -0.18819,-0.20795 -0.23023,-0.21572 -0.31805,-0.0588 -0.12638,0.22582 -0.86488,0.24191 -0.99501,0.0217 -0.0517,-0.0875 -0.25279,-0.21001 -0.44682,-0.27219 -0.19402,-0.0622 -0.40501,-0.22868 -0.46885,-0.37002 -0.0639,-0.14134 -0.17913,-0.25698 -0.25619,-0.25698 -0.23638,0 -0.50968,-0.35382 -0.50968,-0.65984 0,-0.26439 0.40037,-1.19793 0.57436,-1.33923 0.34053,-0.27655 0.86802,-1.27713 0.97525,-1.84992 0.32182,-1.719 1.41832,-2.97138 2.60154,-2.97138 0.41269,0 0.97106,-0.16196 1.99306,-0.5781 0.14553,-0.0593 0.43164,-0.17583 0.63582,-0.25905 0.39742,-0.16199 0.50497,-0.40305 0.72823,-1.63229 0.27198,-1.49754 0.37044,-2.42016 0.37044,-3.47117 v -1.114943 l -0.26458,-7.87e-4 c -0.14552,-4.32e-4 -1.21232,0.06038 -2.37066,0.135144 -3.00958,0.194243 -7.49124,-0.07148 -12.40736,-0.735634 -1.21844,-0.164609 -2.46202,-0.247655 -3.71341,-0.247982 -1.93875,-5.07e-4 -2.19335,0.04172 -4.5076,0.747621 -0.4382,0.133662 -0.5246,0.131078 -0.61776,-0.01848 -0.90005,-1.44491 -1.63613,-2.934528 -2.75883,-5.583128 -0.653289,-1.541185 -1.613469,-3.373208 -1.817199,-3.467203 -0.96599,-0.445681 -0.86024,-0.271493 -1.17904,-1.942056 -0.12067,-0.632345 -0.0387,-1.671541 0.15075,-1.91088 0.064,-0.08084 0.32153,-0.146991 0.57232,-0.146991 0.36769,0 0.45597,-0.04275 0.45597,-0.220824 0,-0.407223 0.35653,-1.079446 0.64134,-1.209213 0.48257,-0.219874 0.85175,-0.03669 1.112059,0.551785 0.24769,0.559923 1.15417,1.540355 4.96925,5.374643 1.20743,1.213513 2.25871,2.206387 2.33616,2.206387 0.093,0 0.11599,-0.109946 0.0678,-0.323379 -0.0402,-0.177859 -0.1019,-0.614421 -0.13715,-0.970139 -0.0352,-0.355718 -0.11,-0.831968 -0.16612,-1.058333 -0.28556,-1.151748 -0.50614,-1.901291 -0.70941,-2.410649 -0.33668,-0.843626 -0.39071,-1.129253 -0.38642,-2.042745 l 0.005,-1.01933 0.41974,-0.879611 c 0.80138,-1.679342 1.81937,-2.634401 2.42014,-2.270536 0.10318,0.06249 0.27952,0.297873 0.39188,0.523079 0.24021,0.481455 0.13674,1.030216 -0.27736,1.471004 l -0.25508,0.271515 0.26889,0.737443 c 0.14789,0.405593 0.6995,1.399417 1.22581,2.208497 0.52631,0.80908 1.08702,1.730658 1.24602,2.04795 0.33855,0.675578 1.19012,1.658866 1.63027,1.88241 0.18873,0.09585 0.3992,0.119941 0.54327,0.06217 0.12935,-0.05187 0.43665,-0.09802 0.68288,-0.102566 0.24624,-0.0045 0.66957,-0.05758 0.94074,-0.117857 0.27118,-0.06028 0.83701,-0.169645 1.2574,-0.243044 0.42039,-0.0734 0.97602,-0.180511 1.23472,-0.23803 1.12365,-0.249823 2.2419,-0.511766 4.05695,-0.950317 2.5951,-0.627026 2.69879,-0.647943 4.07847,-0.82273 l 1.19745,-0.151701 0.0791,-0.575429 c 0.31432,-2.28537 -0.1918,-7.388938 -1.12786,-11.373046 -0.0684,-0.291042 -0.17145,-0.740834 -0.22906,-0.999537 -0.0576,-0.258704 -0.15462,-0.682038 -0.21559,-0.940741 -0.061,-0.258704 -0.17389,-0.761412 -0.25092,-1.11713 -0.077,-0.355718 -0.27214,-1.096551 -0.43355,-1.646296 -0.16142,-0.549746 -0.35564,-1.211204 -0.43161,-1.469908 -0.17494,-0.595779 -0.17483,-3.269578 1.4e-4,-3.486287 0.0707,-0.0875 0.16382,-0.324685 0.20706,-0.527088 0.069,-0.322973 0.0141,-0.438088 -0.44848,-0.940741 -0.38745,-0.421 -0.5439,-0.526005 -0.59056,-0.396347 -0.0349,0.09701 -0.19703,0.59214 -0.36028,1.100281 -0.33706,1.049154 -0.95815,1.978494 -1.46162,2.187038 -0.38778,0.160623 -0.82939,-0.0031 -1.24404,-0.461322 -0.1819,-0.200992 -0.31286,-0.240172 -0.61398,-0.183682 -0.42858,0.0804 -0.92275,-0.169667 -1.03516,-0.523833 -0.0404,-0.127199 -0.23165,-0.243147 -0.47709,-0.289192 -0.30809,-0.0578 -0.48246,-0.192104 -0.70303,-0.541502 -0.32711,-0.51818 -0.45403,-0.551015 -1.04343,-0.269949 l -0.40827,0.194692 -0.27188,-0.178222 c -0.28416,-0.186275 -0.38826,-0.424646 -0.79574,-1.822028 -0.25237,-0.86544 -0.62475,-1.328948 -1.06769,-1.328948 -0.25288,0 -1.25684,-1.08106 -1.59231,-1.71458 -0.72427,-1.367777 -0.75535,-1.43613 -0.75683,-1.664611 -8.2e-4,-0.125799 -0.18915,-0.297381 -0.47873,-0.436154 -0.55743,-0.267134 -0.84538,-0.631954 -1.05687,-1.339039 -0.26144,-0.874032 0.2009,-2.449514 0.9962,-3.394663 0.18006,-0.213992 0.25313,-0.393386 0.18711,-0.459399 -0.10865,-0.108658 0.0948,-1.00242 0.26744,-1.175107 0.0474,-0.04741 0.0862,-0.159659 0.0862,-0.249442 0,-0.255468 0.84933,-1.439559 1.52075,-2.120135 1.46706,-1.48707 3.6552,-2.498722 5.40459,-2.498722 2.57678,0 6.33641,3.517829 8.16889,7.643519 0.29225,0.657983 0.76333,2.142607 0.84813,2.672918 0.0429,0.26816 0.1511,0.515628 0.24049,0.549928 0.0894,0.0343 0.16252,0.134898 0.16252,0.22355 0,0.191339 0.64217,0.788323 1.05833,0.983867 0.43091,0.202473 0.85781,0.278329 2.23426,0.39701 1.28444,0.110748 2.71084,0.287865 3.1162,0.386942 0.12935,0.03162 0.55269,0.122189 0.94074,0.201274 2.64847,0.539755 5.87646,1.841106 7.60288,3.065072 0.17167,0.12171 0.3685,0.221291 0.43739,0.221291 0.1565,0 0.86427,0.394705 1.48415,0.827663 0.85978,0.60053 1.84244,1.600598 3.23438,3.291714 0.77579,0.942534 1.67151,1.910792 2.93603,3.173823 2.2204,2.217773 3.66215,3.048883 5.92079,3.41308 0.93341,0.150509 2.28386,0.0651 3.96077,-0.250512 2.59604,-0.488591 3.82861,-0.599995 4.92975,-0.445563 2.09103,0.293264 3.34901,1.033063 4.68602,2.75579 0.14694,0.189325 0.56642,0.953074 0.93219,1.697219 0.36576,0.744144 0.71062,1.413804 0.76634,1.488133 0.0758,0.101139 0.25328,0.09505 0.7053,-0.02418 3.34714,-0.88296 9.44033,-1.41477 16.02624,-1.39876 2.54667,0.0062 5.61074,0.276397 6.40879,0.565161 0.12547,0.0454 0.27703,-0.141851 0.52502,-0.648669 0.6491,-1.326591 2.00632,-2.242074 3.41433,-2.303081 1.38662,-0.06008 2.34582,0.526568 4.8801,2.984646 1.52926,1.483284 2.00129,1.748078 3.1162,1.748078 1.41257,0 1.41827,-0.101976 0.0445,-0.795596 -2.31266,-1.16766 -2.73271,-2.02196 -1.64374,-3.34307 0.18545,-0.224978 0.31366,-0.498976 0.28492,-0.608884 -0.0287,-0.109908 0.1097,-0.403636 0.30766,-0.652728 0.19795,-0.249092 0.35991,-0.504273 0.35991,-0.567068 0,-0.0628 0.24828,-0.342133 0.55173,-0.62075 0.42716,-0.392195 0.52246,-0.541989 0.4221,-0.663408 -0.0713,-0.08626 -0.1655,-0.348792 -0.20934,-0.583412 -0.0687,-0.367829 -0.0355,-0.467595 0.24144,-0.72437 0.17664,-0.163783 0.56496,-0.35896 0.86294,-0.433726 1.25101,-0.31389 1.74799,-0.504863 2.38989,-0.918346 0.37294,-0.240235 0.67854,-0.495504 0.6791,-0.567264 0.002,-0.304754 0.80243,-1.663214 1.23676,-2.100056 0.91488,-0.92015 1.51619,-1.25746 2.84954,-1.598475 2.31252,-0.591442 5.17812,0.01861 7.08603,1.508525 1.22676,0.957997 3.02376,3.011933 3.48434,3.982536 0.10543,0.22217 0.29062,0.456894 0.41154,0.521609 0.12092,0.06472 0.21986,0.218513 0.21986,0.341772 0,0.12326 0.0468,0.253042 0.10403,0.288405 0.0572,0.03536 0.13289,0.210466 0.16815,0.389116 0.37913,1.920955 0.42897,2.374341 0.43106,3.921179 0.001,0.943183 -0.0468,2.001517 -0.10673,2.351852 -0.06,0.350335 -0.17208,1.00739 -0.24913,1.460122 -0.077,0.452731 -0.21076,1.087731 -0.29714,1.411111 -0.0864,0.323379 -0.19036,0.720254 -0.23106,0.881944 -0.0711,0.28249 -0.11655,0.410503 -0.37568,1.058334 -0.0647,0.161689 -0.1703,0.426273 -0.23473,0.587963 -0.4691,1.177326 -2.36704,4.537953 -2.72285,4.821296 -0.0406,0.03234 -0.21201,0.244005 -0.38089,0.47037 -0.4101,0.549703 -1.9088,2.065578 -2.59519,2.624923 -0.40308,0.32848 -0.52967,0.502567 -0.47027,0.646759 0.24993,0.606798 0.85572,1.459143 1.4839,2.087843 0.93852,0.939298 1.66362,1.270883 4.07754,1.864649 0.67243,0.1654 1.61947,0.410423 2.10454,0.544494 0.48507,0.134071 1.32037,0.261656 1.85622,0.283523 0.53585,0.02187 1.05178,0.10409 1.14653,0.182719 0.21328,0.177013 0.22549,1.1515 0.0178,1.42439 -0.0808,0.10621 -0.40056,0.31231 -0.71053,0.45802 l -0.56359,0.26492 -1.373,-0.0858 c -3.23928,-0.20239 -4.29802,-0.30909 -8.78134,-0.88499 -0.5174,-0.0665 -1.39053,-0.16988 -1.94027,-0.22981 -0.54975,-0.0599 -1.21121,-0.137684 -1.46991,-0.172772 -0.25871,-0.03509 -1.40178,-0.126601 -2.54017,-0.203363 -2.1114,-0.142371 -5.06241,-0.0218 -6.33807,0.258965 -0.29104,0.064 -1.16417,0.13793 -1.94028,0.16417 -0.77611,0.0262 -1.82122,0.10365 -2.32245,0.17203 -1.54893,0.21128 -2.70383,0.37165 -3.43959,0.47762 -0.38805,0.0559 -1.15534,0.15336 -1.70509,0.21661 -0.54975,0.0632 -1.09531,0.15298 -1.21237,0.1994 -0.11705,0.0464 -2.23372,0.094 -4.7037,0.10575 -3.16871,0.0151 -4.64667,0.0646 -5.02004,0.16815 -1.1676,0.32389 -2.23487,0.29139 -3.2338,-0.0985 -0.41414,-0.16163 -1.40908,-0.64527 -1.4699,-0.71451 -0.11017,-0.12541 -1.11445,-0.55034 -2.76343,-1.169274 -1.687,-0.633198 -3.54241,-1.491522 -4.58611,-2.12156 -0.32338,-0.19521 -0.66734,-0.388791 -0.76435,-0.43018 -0.097,-0.04139 -0.30868,-0.166281 -0.47037,-0.277536 -0.16169,-0.111255 -0.47919,-0.308144 -0.70556,-0.437531 -0.22637,-0.129387 -0.81955,-0.482707 -1.31819,-0.785156 l -0.90662,-0.549906 -0.91607,0.285999 c -0.50383,0.1573 -1.16818,0.345675 -1.47632,0.41861 -0.70961,0.167965 -3.86521,0.172908 -4.69304,0.0074 -0.34448,-0.06889 -0.91737,-0.180804 -1.27309,-0.248692 -0.35572,-0.06789 -0.80751,-0.17067 -1.00398,-0.228401 -0.19646,-0.05773 -0.67271,-0.127192 -1.05833,-0.154355 -0.38561,-0.02716 -1.11094,-0.08663 -1.61183,-0.132135 -1.13327,-0.102968 -1.88689,0.03691 -3.96938,0.736768 -1.93831,0.651401 -2.22193,0.731495 -3.1162,0.880039 -1.1315,0.187945 -5.16377,0.249814 -6.30626,0.09676 -1.41257,-0.189235 -6.27481,-0.208325 -6.80532,-0.02672 -0.22636,0.07749 -0.67113,0.222839 -0.98837,0.322997 -0.31724,0.100157 -1.41541,0.5219 -2.44038,0.937205 -1.91548,0.776127 -2.92069,1.116792 -3.29537,1.116792 -0.15921,0 -0.21384,-0.09013 -0.21384,-0.352778 0,-0.247806 0.0571,-0.352778 0.19183,-0.352778 0.20946,0 2.12257,-0.626301 2.68918,-0.880366 0.19403,-0.087 0.7232,-0.299786 1.17593,-0.472857 1.0877,-0.415808 1.24069,-0.475242 1.5875,-0.616714 0.36019,-0.146931 1.09471,-0.346641 1.6463,-0.44762 0.84235,-0.154208 3.5995,-0.188435 4.43191,-0.05502 1.22535,0.196399 7.82082,0.209087 8.50327,0.01636 0.29105,-0.08219 0.74084,-0.204304 0.99954,-0.27136 0.51606,-0.133764 1.04695,-0.302093 1.41111,-0.447423 2.5994,-1.037364 4.45835,-1.136883 7.98946,-0.427716 1.82876,0.367277 3.13657,0.547576 3.94619,0.544033 1.01258,-0.0044 3.42311,-0.455089 3.66902,-0.685936 0.0453,-0.04257 -0.39468,-0.368378 -0.97782,-0.724026 -0.58314,-0.355648 -1.13239,-0.712778 -1.22057,-0.793623 -0.0882,-0.08084 -0.19258,-0.146991 -0.23202,-0.146991 -0.1445,0 -2.94747,-1.936033 -3.23768,-2.236295 -0.24702,-0.255563 -2.07757,-1.691664 -2.65139,-2.080061 -0.96303,-0.65183 -1.64496,-0.9483 -2.3463,-1.020048 -0.32338,-0.03308 -0.90546,-0.115223 -1.29352,-0.182535 -2.63631,-0.457293 -3.62715,-0.560108 -6.70278,-0.69552 -2.49594,-0.109891 -3.01188,-0.06309 -3.73196,0.338535 -0.11231,0.06264 -0.30016,0.113887 -0.41746,0.113887 -0.11729,0 -0.26353,0.04372 -0.32497,0.09715 -0.0614,0.05343 -0.34984,0.165295 -0.64088,0.248589 -0.29104,0.08329 -0.635,0.192297 -0.76435,0.242229 -0.12936,0.04993 -0.47331,0.155871 -0.76436,0.235419 -0.29104,0.07955 -0.66145,0.184848 -0.82314,0.233997 -0.16169,0.04915 -0.58503,0.151434 -0.94075,0.227298 -0.82448,0.175839 -1.57872,0.34517 -2.17546,0.488404 -0.2587,0.0621 -1.68745,0.504243 -3.175,0.982548 -1.48754,0.478304 -2.96921,0.929247 -3.29259,1.002096 -0.64365,0.144994 -0.88195,0.364698 -0.88195,0.813114 0,0.160906 -0.0514,0.455063 -0.11428,0.653682 -0.0629,0.19862 -0.32789,1.207794 -0.58897,2.242609 -0.41791,1.656411 -0.58964,2.302053 -1.07908,4.056944 -0.62157,2.228661 -0.98599,4.132741 -1.15428,6.031101 -0.0618,0.69773 -0.14159,1.31575 -0.1772,1.37337 -0.0356,0.0576 -0.002,0.34119 0.0758,0.63016 0.26303,0.98344 -0.18521,2.60609 -0.94182,3.40942 -0.40285,0.42772 -1.512,0.90317 -2.10696,0.90317 -0.13712,0 -0.282,0.0529 -0.32197,0.11759 -0.04,0.0647 -0.17005,0.1176 -0.28907,0.1176 -0.11901,0 -0.55841,0.30995 -0.97644,0.68879 -0.41803,0.37883 -0.99724,0.85198 -1.28714,1.05143 -0.28989,0.19945 -0.68299,0.54022 -0.87356,0.75726 -0.34111,0.3885 -0.84812,0.79511 -0.99146,0.79511 -0.0403,0 -0.17078,-0.10783 -0.29005,-0.23962 z m 1.36483,-2.88727 c 0.32984,-0.41452 0.61728,-0.75367 0.63876,-0.75367 0.0215,0 0.12276,-0.0321 0.22506,-0.0714 0.34197,-0.13123 0.22566,0.52357 -0.14899,0.83881 -0.67025,0.56398 -1.75485,2.18051 -1.45538,2.16914 0.0469,-0.002 0.21758,-0.18216 0.37927,-0.40085 0.16169,-0.21869 0.55852,-0.57443 0.88185,-0.79052 0.32333,-0.21609 0.79958,-0.587 1.05834,-0.82424 0.62667,-0.57458 0.98668,-0.83632 1.4112,-1.02598 0.19403,-0.0867 0.44466,-0.20435 0.55697,-0.26148 0.1123,-0.0571 0.28271,-0.10388 0.37869,-0.10388 0.096,0 0.46251,-0.13174 0.81453,-0.29275 0.72741,-0.33273 1.47599,-1.12233 1.49837,-1.5805 0.008,-0.16621 0.0266,-1.01658 0.041,-1.88971 0.029,-1.75471 0.21572,-3.26038 0.6488,-5.23287 0.071,-0.32338 0.15679,-0.74671 0.19064,-0.94074 0.0339,-0.194029 0.10687,-0.458612 0.16226,-0.587964 0.0554,-0.129352 0.13354,-0.393935 0.17364,-0.587963 0.0838,-0.405559 0.23134,-0.995166 0.39716,-1.5875 1.12329,-4.012402 1.51257,-5.636173 1.90292,-7.9375 0.0768,-0.452732 0.15941,-1.563982 0.18359,-2.469445 0.0242,-0.905463 0.10222,-1.990254 0.17341,-2.410648 0.14198,-0.83841 0.0645,-3.966591 -0.12159,-4.90663 -0.18736,-0.946685 -0.56493,-4.810612 -0.61766,-6.321008 -0.0273,-0.782244 -0.002,-0.944439 0.15496,-0.97528 0.15731,-0.031 0.20111,0.149529 0.27047,1.114675 0.0455,0.633418 0.13182,1.654377 0.19178,2.268798 0.06,0.614422 0.1436,1.517716 0.18586,2.007321 l 0.0768,0.890191 0.42562,0.284685 c 0.23409,0.156577 0.45208,0.314524 0.48441,0.350994 0.16654,0.187811 3.54319,2.006943 5.96691,3.2146 0.14502,0.07226 0.26408,0.171064 0.26458,0.219571 5.1e-4,0.04851 0.0603,0.08819 0.13298,0.08819 0.0726,0 0.48233,0.251354 0.91043,0.558565 2.67597,1.920281 3.56507,2.208125 7.36538,2.384531 4.38032,0.203329 6.41613,0.411643 9.23102,0.94456 0.35572,0.06735 0.85843,0.149217 1.11713,0.181939 0.2587,0.03272 0.60266,0.121211 0.76435,0.196643 0.31679,0.147787 1.66713,1.019781 1.76389,1.139044 0.39779,0.490298 4.89086,3.766941 5.16539,3.766941 0.0694,0 0.12628,0.05292 0.12628,0.117592 0,0.06468 0.0464,0.117593 0.1032,0.117593 0.10051,0 3.15774,1.865547 4.74608,2.896097 0.43579,0.282749 0.8245,0.514088 0.86379,0.514088 0.0393,0 0.21192,0.09958 0.38359,0.221291 1.11938,0.793597 4.01901,2.218437 6.0939,2.994462 0.98099,0.366898 2.27744,0.91663 2.88102,1.221623 0.60357,0.305 1.27394,0.61732 1.48972,0.69405 0.63912,0.22726 1.67538,0.28919 2.4299,0.14522 0.38806,-0.074 2.68993,-0.1764 5.11528,-0.22746 2.42535,-0.0511 4.83305,-0.14734 5.35046,-0.21395 1.30764,-0.16837 2.5491,-0.33627 3.58658,-0.485065 2.09949,-0.301119 2.34184,-0.328598 6.35,-0.720009 0.67909,-0.06632 2.55763,-0.147425 4.17453,-0.180242 3.16868,-0.06431 4.54081,0.03206 9.37801,0.658666 4.23235,0.54825 4.70663,0.59166 7.30546,0.66858 2.49438,0.0738 2.55848,0.061 2.45266,-0.492638 -0.0484,-0.253193 -0.11642,-0.28638 -0.58693,-0.28638 -0.29269,0 -0.88184,-0.101842 -1.3092,-0.226317 -0.42737,-0.124475 -1.43849,-0.365494 -2.24694,-0.535597 -3.32986,-0.700628 -4.22201,-1.309373 -5.8826,-4.013876 -0.67923,-1.106224 -1.42305,-1.990297 -1.74549,-2.074617 -0.13201,-0.03452 -0.33986,0.04514 -0.50247,0.192576 -1.37303,1.244988 -3.01958,2.058982 -4.8705,2.407793 -0.94634,0.178339 -1.25259,0.170079 -2.22723,-0.06007 -0.96791,-0.22856 -1.58696,-0.244247 -2.23421,-0.05661 -0.87853,0.254679 -2.39327,0.566118 -3.52778,0.725333 -1.77284,0.248797 -3.10351,0.367201 -7.81991,0.69582 -0.9378,0.06534 -2.44592,0.180067 -3.35139,0.254944 -1.85742,0.153598 -5.41743,0.181825 -6.0865,0.04826 -0.24314,-0.04854 -0.47115,-0.135318 -0.50671,-0.192848 -0.0356,-0.05753 -0.21715,-0.1046 -0.40354,-0.1046 -0.1864,0 -0.36799,-0.04707 -0.40355,-0.1046 -0.0356,-0.05753 -0.23711,-0.131982 -0.44791,-0.165448 -0.2108,-0.03347 -0.59493,-0.122206 -0.85364,-0.1972 -0.2587,-0.07499 -0.65558,-0.181782 -0.88194,-0.237307 -0.22637,-0.05553 -0.72908,-0.182414 -1.11713,-0.281974 -0.38806,-0.09956 -0.87048,-0.182905 -1.07205,-0.185209 -0.20157,-0.0023 -0.62491,-0.105201 -0.94074,-0.228661 -0.31584,-0.12346 -1.15633,-0.448954 -1.86777,-0.72332 -1.3452,-0.518778 -4.15516,-1.857302 -5.17407,-2.464663 -0.58093,-0.346284 -1.25706,-0.681273 -2.05787,-1.019563 -0.22637,-0.09562 -0.50346,-0.222332 -0.61577,-0.281571 -0.1123,-0.05924 -0.32661,-0.107707 -0.47625,-0.107707 -0.14963,0 -0.32233,-0.05008 -0.38377,-0.111294 -0.0614,-0.06121 -0.64088,-0.330964 -1.28764,-0.59945 -1.83472,-0.761642 -2.1108,-0.900055 -2.72123,-1.36432 -0.89658,-0.681891 -1.64177,-1.539439 -2.01736,-2.321524 -0.2945,-0.613254 -0.34735,-0.869641 -0.36028,-1.747625 -0.009,-0.614 0.032,-1.028935 0.10182,-1.028935 0.0643,0 0.11696,-0.148167 0.11696,-0.32926 0,-0.631518 0.47476,-0.791837 1.07635,-0.363467 0.41182,0.293244 0.51112,0.244807 0.32692,-0.15947 -0.10905,-0.239337 -0.0963,-0.352525 0.0679,-0.603159 0.37447,-0.571509 0.99109,-0.285338 1.68713,0.782988 0.26918,0.413148 0.6262,0.878967 0.79339,1.035153 0.16718,0.156186 0.37941,0.428976 0.47161,0.6062 0.15411,0.296211 0.9206,0.794904 1.22177,0.794904 0.15419,0 0.0695,-0.626472 -0.19997,-1.479668 -0.32103,-1.016351 -0.023,-1.475511 0.70683,-1.088894 0.32162,0.170383 0.78568,0.697618 0.78587,0.892867 8e-5,0.08084 0.0469,0.146991 0.10403,0.146991 0.12038,0 0.225,0.379979 0.35863,1.302443 0.0522,0.360626 0.18791,0.851509 0.30148,1.090851 0.21556,0.454252 0.94035,1.252076 1.13746,1.252076 0.0627,0 0.33524,0.147139 0.6056,0.326975 0.71715,0.477038 1.30896,0.727124 2.78461,1.176727 0.22637,0.06897 1.07304,0.263432 1.88148,0.43214 0.80845,0.168708 2.03473,0.43716 2.72507,0.596561 0.69033,0.159401 1.29022,0.28982 1.33309,0.28982 0.0839,0 -0.46563,-0.776068 -0.90687,-1.280715 -0.14865,-0.170009 -0.50758,-0.599627 -0.79763,-0.954706 -0.86305,-1.056555 -1.25584,-1.37762 -3.41199,-2.788924 -2.86965,-1.878323 -3.05167,-2.006239 -3.62714,-2.54892 -0.51012,-0.481062 -1.26152,-1.513317 -1.50631,-2.069328 -0.37766,-0.857828 -0.93259,-1.945163 -1.01025,-1.979476 -0.0488,-0.02156 -0.0892,-0.100933 -0.0898,-0.176388 -0.002,-0.177287 -0.68122,-1.044295 -1.37008,-1.747529 -0.61811,-0.631 -1.85439,-1.322441 -2.80914,-1.571121 -1.06445,-0.277255 -2.84458,-0.214276 -5.16825,0.182847 -4.55059,0.777714 -6.50598,0.381064 -9.24351,-1.87504 -1.01825,-0.839181 -2.87627,-2.758962 -3.75385,-3.878622 -1.67454,-2.136466 -4.06648,-4.359301 -4.69093,-4.359301 -0.10391,0 -0.46154,-0.183591 -0.79473,-0.40798 -1.1324,-0.7626 -3.13172,-1.818043 -3.45387,-1.823303 -0.10025,-0.0016 -0.23254,-0.04783 -0.29399,-0.102652 -0.17801,-0.158834 -2.28492,-0.817676 -3.63493,-1.136663 -0.68054,-0.160801 -1.5685,-0.293473 -1.97326,-0.294826 -1.10599,-0.0037 -3.36294,-0.300506 -4.02851,-0.529783 -0.64873,-0.223474 -1.51969,-0.778567 -1.68495,-1.073878 l -0.10617,-0.189713 -0.33916,0.181923 c -0.18654,0.100057 -0.52438,0.244877 -0.75074,0.321821 -0.50966,0.173239 -0.84926,0.308298 -1.25308,0.498341 -0.1732,0.08151 -0.71693,0.142507 -1.22058,0.136926 l -0.90825,-0.01006 0.29421,0.819353 c 0.28742,0.800453 0.31019,1.404573 0.0851,2.258183 -0.0398,0.151118 0.0491,0.361286 0.24871,0.587963 0.1709,0.194028 0.44485,0.526693 0.60879,0.739256 l 0.29806,0.386479 0.25607,-0.240563 c 0.4603,-0.432423 0.58206,0.162577 0.17983,0.878717 -0.12936,0.2303 -0.23519,0.519828 -0.23519,0.643396 0,0.123568 -0.048,0.254324 -0.10663,0.29057 -0.16984,0.104966 -0.26184,2.157062 -0.14001,3.122978 0.23213,1.84047 0.4015,2.883054 0.47756,2.939815 0.0782,0.0584 0.75561,2.242603 0.95726,3.086806 0.0579,0.242535 0.16157,0.665868 0.2303,0.940741 0.22083,0.883221 0.45836,2.242073 0.77596,4.43912 0.23533,1.62789 0.25858,5.188404 0.0587,8.995834 -0.0747,1.42287 -0.19252,4.630528 -0.26185,7.128127 -0.0693,2.497604 -0.14372,4.640724 -0.16529,4.762504 -0.0216,0.12177 -0.0733,0.51245 -0.11493,0.86817 -0.0416,0.35571 -0.1293,0.88488 -0.1948,1.17592 -0.30139,1.33927 -0.32895,1.39531 -0.78493,1.59567 -0.83835,0.36838 -1.29208,0.52805 -2.08369,0.73324 -1.31177,0.34001 -1.53253,0.41133 -1.78479,0.57662 -0.1502,0.0984 -0.26891,0.23899 -0.2638,0.31239 0.006,0.0854 0.0307,0.0805 0.0686,-0.0135 0.0853,-0.21136 0.50433,-0.18122 0.59016,0.0425 0.0493,0.12844 -0.10368,0.35607 -0.47496,0.70682 -0.30121,0.28456 -0.63911,0.72848 -0.75089,0.98648 -0.11178,0.25801 -0.24366,0.46911 -0.29308,0.46911 -0.0494,0 -0.0898,0.0566 -0.0898,0.1258 0,0.11815 -0.66381,1.1573 -0.82106,1.28531 -0.25878,0.21068 -0.5997,0.86661 -0.56545,1.08794 l 0.0409,0.26438 0.20022,-0.37208 c 0.11012,-0.20464 0.45256,-0.6346 0.76099,-0.95546 0.30842,-0.32086 0.79325,-0.90749 1.07741,-1.30362 0.31401,-0.43775 0.60226,-0.72023 0.73495,-0.72023 0.32967,0 0.27207,0.44171 -0.10507,0.80576 -0.17786,0.17169 -0.5064,0.57657 -0.73009,0.89973 -0.22369,0.32316 -0.54367,0.71986 -0.71106,0.88155 -0.70129,0.67738 -0.89225,1.21709 -0.46973,1.32759 0.17445,0.0456 0.23519,0.004 0.23519,-0.16268 0,-0.12329 0.0407,-0.22417 0.0904,-0.22417 0.0497,0 0.16876,-0.12694 0.26459,-0.28209 0.0958,-0.15515 0.54464,-0.69385 0.99737,-1.1971 1.32246,-1.47005 1.46991,-1.57478 1.46991,-1.04402 0,0.18859 -0.18741,0.50345 -0.50744,0.85255 -0.27909,0.30444 -0.71566,0.78579 -0.97014,1.06967 -0.25448,0.28388 -0.52623,0.58175 -0.60388,0.66195 -0.18475,0.1908 -0.32648,0.76218 -0.18907,0.76218 0.0588,0 0.16859,-0.0618 0.24408,-0.13725 0.10462,-0.10462 0.15574,-0.0891 0.21499,0.0653 0.0585,0.15244 0.20453,-0.0199 0.5902,-0.69658 0.28185,-0.49453 0.78233,-1.23829 1.11217,-1.6528 z m -2.00758,-2.69394 c 0,-0.0323 -0.0265,-0.0588 -0.0588,-0.0588 -0.0323,0 -0.0588,0.0265 -0.0588,0.0588 0,0.0323 0.0265,0.0588 0.0588,0.0588 0.0323,0 0.0588,-0.0265 0.0588,-0.0588 z m 0.19599,-0.48997 c -0.0431,-0.0431 -0.0784,-0.008 -0.0784,0.0784 0,0.0862 0.0353,0.12151 0.0784,0.0784 0.0431,-0.0431 0.0431,-0.11368 0,-0.15679 z m 0.27438,-0.21559 c 0,-0.0323 -0.0265,-0.0588 -0.0588,-0.0588 -0.0323,0 -0.0588,0.0265 -0.0588,0.0588 0,0.0323 0.0265,0.0588 0.0588,0.0588 0.0323,0 0.0588,-0.0265 0.0588,-0.0588 z m 2.46348,-9.114537 c 1.25791,-0.06353 2.37343,-0.14291 2.47895,-0.176401 0.20162,-0.06399 0.20509,-0.129667 0.26983,-5.114155 l 0.0206,-1.5875 -0.23518,0.03867 c -1.50547,0.247514 -2.53188,0.456306 -3.58658,0.729583 -1.257,0.325695 -4.88702,1.189513 -5.64536,1.343402 -3.67085,0.744911 -7.18994,0.752715 -9.24886,0.02051 -0.26903,-0.09567 -0.51258,-0.150515 -0.54122,-0.121874 -0.0979,0.09791 -1.55641,-1.274096 -4.53633,-4.267344 -2.40295,-2.413694 -3.03619,-3.116484 -3.271809,-3.63115 -0.30962,-0.676297 -0.56407,-0.802616 -0.91329,-0.453394 -0.2346,0.234598 -0.23258,0.272169 0.0478,0.890101 0.29499,0.6501 0.29549,0.806592 0.003,0.806592 -0.12935,0 -0.23518,-0.04675 -0.23518,-0.103884 0,-0.05714 -0.11906,-0.132239 -0.26459,-0.166895 -0.14552,-0.03466 -0.39687,-0.102919 -0.55856,-0.151694 l -0.29398,-0.08868 0.16139,0.196781 c 0.0888,0.10823 0.25426,0.196781 0.36778,0.196781 0.30369,0 0.44416,0.240792 0.4116,0.705556 -0.0511,0.729675 -0.20172,1.180311 -0.45331,1.356533 -0.17076,0.119605 -0.1927,0.172171 -0.0718,0.172171 0.48811,0 1.33943,1.459113 2.641469,4.527315 0.55953,1.318512 1.58442,3.480203 1.70045,3.586574 0.0353,0.03234 0.13258,0.191088 0.21623,0.352778 0.0837,0.161689 0.2454,0.416813 0.35942,0.56694 l 0.20731,0.272959 1.05151,-0.349827 c 2.21849,-0.738073 3.89705,-0.768816 8.40104,-0.153867 2.6571,0.362784 4.88856,0.540404 8.81945,0.702011 0.22636,0.0093 1.44076,-0.03506 2.69866,-0.09859 z m 68.26847,-2.464146 c 0.64676,-0.07062 1.96967,-0.181763 2.93981,-0.246983 7.49673,-0.503988 8.40928,-0.596887 11.40648,-1.161185 0.32338,-0.06088 0.98484,-0.222747 1.46991,-0.359694 0.48507,-0.136947 1.08449,-0.300041 1.33204,-0.362432 1.4286,-0.360048 2.96567,-1.82984 3.80236,-3.63593 0.44796,-0.966986 0.51005,-1.182519 0.51005,-1.770704 0,-1.067029 -0.7086,-2.130425 -1.77944,-2.670403 -1.13272,-0.571184 -1.6527,-0.628132 -6.21686,-0.680864 -4.58149,-0.05293 -5.15573,-0.0069 -6.16389,0.493869 -0.31803,0.15798 -0.65521,0.257699 -0.74929,0.221599 -0.41726,-0.160117 0.2462,-1.435599 1.14847,-2.207907 0.75957,-0.650165 1.98021,-1.185733 3.41286,-1.497426 0.77638,-0.168913 3.68664,-0.09868 4.46852,0.107834 0.29104,0.07687 0.67032,0.168336 0.84285,0.203253 l 0.31368,0.06349 -0.0987,-0.437766 c -0.0978,-0.433831 -0.0511,-0.762008 0.10853,-0.762008 0.0456,0 0.19552,0.104981 0.33325,0.23329 0.58405,0.544127 1.05704,0.708016 2.00238,0.69381 0.49927,-0.0075 0.80193,-0.03965 0.67258,-0.07145 -0.12936,-0.0318 -0.28811,-0.09774 -0.35278,-0.146534 -0.0647,-0.0488 -0.25941,-0.122558 -0.43275,-0.163911 -0.17334,-0.04135 -0.38832,-0.148351 -0.47774,-0.237773 -0.0894,-0.08942 -0.37443,-0.270656 -0.63334,-0.402743 l -0.47075,-0.240158 -0.68666,0.226531 c -0.78618,0.259363 -1.92869,0.292515 -2.53163,0.07346 -0.94612,-0.343737 -1.50483,-0.756565 -3.11621,-2.302557 -1.55753,-1.494331 -2.23053,-1.957141 -3.25842,-2.240758 -0.30458,-0.08404 -0.68823,-0.11906 -0.85254,-0.07782 -0.25173,0.06318 -0.29876,0.142592 -0.29876,0.504455 0,0.7818 -0.58058,1.090068 -1.17592,0.62438 -0.16169,-0.126475 -0.35397,-0.231132 -0.42729,-0.23257 -0.178,-0.0035 -0.91967,0.826559 -1.17346,1.313277 -0.27879,0.534682 -0.28773,1.710173 -0.0162,2.124692 0.22399,0.34189 0.27799,0.910342 0.0865,0.910342 -0.21438,0 -0.56364,-0.720299 -0.71257,-1.469579 l -0.14588,-0.733944 -0.77523,-0.130984 c -0.42638,-0.07204 -1.12353,-0.18479 -1.54922,-0.250553 -1.89622,-0.292939 -11.11731,-0.08071 -14.98342,0.344858 -1.92524,0.211922 -5.00497,0.797173 -5.19502,0.987227 -0.23682,0.236823 1.02228,1.383547 2.73615,2.491925 3.05893,1.97825 3.66496,2.419304 4.42694,3.221827 0.94045,0.990488 3.02961,3.570659 3.02961,3.741655 0,0.06597 0.14552,0.148058 0.32338,0.182413 0.17786,0.03435 0.53505,0.123255 0.79375,0.197554 0.25871,0.0743 0.65558,0.18097 0.88195,0.237046 0.22636,0.05608 0.62324,0.163314 0.88194,0.238308 0.2587,0.07499 0.64284,0.163734 0.85364,0.1972 0.21079,0.03347 0.41235,0.107917 0.44791,0.165448 0.0356,0.05753 0.19729,0.1046 0.35942,0.1046 0.16212,0 0.39554,0.05393 0.51871,0.119847 0.16642,0.08907 0.3532,0.06244 0.72722,-0.103672 0.27681,-0.122936 0.68849,-0.288042 0.91486,-0.366901 0.22637,-0.07886 0.51741,-0.188291 0.64676,-0.243182 0.32869,-0.139482 1.33122,-0.470931 1.82268,-0.602604 0.22637,-0.06065 0.59679,-0.160319 0.82315,-0.221492 2.13156,-0.576036 4.7097,-1.01153 6.93797,-1.171948 2.41931,-0.174172 3.77205,-0.35054 4.14009,-0.539777 0.17508,-0.09002 0.6587,-0.401623 1.07472,-0.69244 0.81097,-0.56691 1.25278,-0.676313 1.25278,-0.310221 0,0.203186 -0.30125,0.447162 -1.79291,1.452048 -0.60687,0.408832 -1.24803,0.532311 -3.55755,0.685139 -2.95956,0.195841 -6.00983,0.703495 -8.46667,1.4091 -0.25871,0.0743 -0.61654,0.163294 -0.79519,0.197765 -0.17865,0.03447 -0.35375,0.109491 -0.38912,0.16671 -0.0354,0.05722 -0.19034,0.104035 -0.3444,0.104035 -0.15405,0 -0.3128,0.05292 -0.35277,0.117593 -0.04,0.06468 -0.19872,0.117592 -0.35278,0.117592 -0.15406,0 -0.31281,0.05292 -0.35278,0.117593 -0.04,0.06468 -0.18716,0.117592 -0.32709,0.117592 h -0.25441 l 0.26805,0.187744 c 0.16797,0.117651 0.25456,0.282283 0.23195,0.440972 -0.0402,0.281822 -0.21488,0.295779 -0.97683,0.07803 -0.25871,-0.07393 -0.65558,-0.180301 -0.88195,-0.236376 -0.22636,-0.05608 -0.62324,-0.162072 -0.88194,-0.235548 -0.2587,-0.07348 -0.60266,-0.160356 -0.76435,-0.193066 -0.16169,-0.03271 -0.39982,-0.104417 -0.52917,-0.159349 -0.12935,-0.05493 -0.38071,-0.130322 -0.55856,-0.167532 -0.17786,-0.03721 -0.4689,-0.0981 -0.64676,-0.135307 -0.17786,-0.03721 -0.42922,-0.112599 -0.55857,-0.167532 -0.12935,-0.05493 -0.36747,-0.12597 -0.52916,-0.157862 -0.26935,-0.05313 -0.97951,-0.237947 -2.70463,-0.703893 -0.35572,-0.09608 -1.54635,-0.371022 -2.64584,-0.610989 -2.21306,-0.483006 -3.76895,-0.954684 -4.47461,-1.356502 -0.25535,-0.145404 -0.6639,-0.372508 -0.90789,-0.504675 -0.94615,-0.512531 -1.66683,-1.541838 -1.86474,-2.663301 -0.1982,-1.123051 -0.25336,-1.280537 -0.59268,-1.692195 -0.19244,-0.23346 -0.43063,-0.424472 -0.52933,-0.424472 -0.14824,0 -0.13652,0.07274 0.0674,0.418296 0.4233,0.717439 0.22454,2.168741 -0.29701,2.168741 -0.32307,0 -0.98431,-0.372154 -1.33437,-0.751002 -0.18607,-0.20137 -0.50141,-0.544079 -0.70076,-0.761575 -0.19934,-0.217496 -0.45211,-0.587913 -0.5617,-0.823148 -0.32046,-0.687809 -1.21028,-1.485947 -1.21028,-1.085573 0,0.110478 0.48329,1.083576 0.58955,1.187039 0.0332,0.03234 0.18467,0.30553 0.33658,0.607094 0.15191,0.301564 0.45547,0.722049 0.67457,0.934411 0.3996,0.387306 0.50671,0.729506 0.27347,0.87366 -0.14969,0.09251 -1.05103,-0.823219 -1.05103,-1.067802 0,-0.09429 -0.0529,-0.171437 -0.11759,-0.171437 -0.0647,0 -0.11759,-0.05366 -0.11759,-0.119242 0,-0.207212 -0.52286,-0.936116 -0.67258,-0.937636 -0.0789,-8e-4 -0.33617,-0.109719 -0.57176,-0.242042 -0.87786,-0.493064 -0.65647,-0.110992 0.69775,1.204167 0.99197,0.963366 1.38129,1.417817 1.3507,1.576667 -0.0236,0.122748 -0.10102,0.223179 -0.17195,0.223179 -0.0709,0 -0.69695,-0.529167 -1.39115,-1.175926 -1.31018,-1.22064 -1.47527,-1.345828 -1.47527,-1.118719 0,0.385438 1.09367,1.602824 2.14606,2.388836 0.46426,0.346744 0.59677,0.789373 0.23519,0.785613 -0.20473,-0.0021 -0.60228,-0.285279 -1.46084,-1.040479 -0.79522,-0.699486 -0.4799,-0.155945 0.4613,0.795166 0.90548,0.915012 1.41969,1.229662 3.10153,1.89785 0.29915,0.118848 0.7754,0.322137 1.05834,0.451754 0.28294,0.129618 0.95826,0.404223 1.50072,0.610234 0.54245,0.206012 1.25683,0.519571 1.5875,0.6968 0.33067,0.177229 0.83934,0.448394 1.13038,0.602589 0.29105,0.154196 0.55563,0.309132 0.58797,0.344303 0.0844,0.09179 2.14607,1.086648 3.1162,1.503716 1.8206,0.782689 2.91471,1.164744 3.76296,1.313991 0.62535,0.110027 1.2343,0.253115 1.99908,0.469735 0.2587,0.07328 0.65558,0.17911 0.88194,0.235185 0.42803,0.10603 1.09926,0.291199 1.7051,0.47037 0.19402,0.05738 0.56444,0.165958 0.82314,0.241277 0.25871,0.07532 0.82337,0.171129 1.25481,0.212908 0.43145,0.04178 0.82832,0.12008 0.88195,0.174002 0.10741,0.107997 1.45649,0.04466 3.2725,-0.153629 z m 21.46065,-1.942729 c 1.4219,-0.434655 3.27453,-1.639699 4.26951,-2.777107 0.94497,-1.080249 2.68851,-4.225628 3.15478,-5.691296 0.0823,-0.258704 0.19176,-0.520641 0.24323,-0.582083 0.0515,-0.06144 0.0936,-0.256757 0.0936,-0.434033 0,-0.177275 0.0471,-0.35141 0.1046,-0.386965 0.0575,-0.03556 0.13691,-0.250345 0.17639,-0.477311 0.0395,-0.226965 0.10409,-0.598362 0.14358,-0.825328 0.0395,-0.226965 0.11886,-0.441754 0.17639,-0.47731 0.0575,-0.03556 0.1046,-0.176829 0.1046,-0.313941 0,-0.250889 0.0244,-0.339508 0.47863,-1.7359 0.36904,-1.134566 0.50232,-1.411111 0.68007,-1.411111 0.21731,0 0.13247,0.528893 -0.26411,1.646297 -0.31062,0.875214 -0.37907,1.097615 -0.65148,2.116666 -0.0778,0.291042 -0.19079,0.691674 -0.25108,0.890294 -0.0603,0.198619 -0.10963,0.473309 -0.10963,0.610421 0,0.137112 -0.0529,0.281999 -0.11759,0.321971 -0.0647,0.03997 -0.11759,0.22518 -0.11759,0.411574 0,0.186394 -0.0529,0.371602 -0.11759,0.411574 -0.0647,0.03997 -0.1176,0.176104 -0.1176,0.302517 0,0.126412 -0.0467,0.321727 -0.10387,0.434032 -0.0571,0.112305 -0.15561,0.336483 -0.21884,0.498173 -0.48224,1.233195 -1.82581,3.697527 -2.50038,4.586111 -0.17184,0.226366 -0.34493,0.468063 -0.38465,0.537105 -0.0804,0.13971 0.98553,1.344377 1.1895,1.344377 0.23284,0 2.56885,-2.389893 3.21837,-3.292593 1.34241,-1.865703 3.26308,-5.258978 3.26698,-5.771836 7.7e-4,-0.102404 0.0377,-0.222455 0.082,-0.266779 0.12539,-0.125388 0.38604,-0.930976 0.38801,-1.199209 9.8e-4,-0.132586 0.0493,-0.291336 0.10732,-0.352778 0.27007,-0.285845 0.60875,-4.545341 0.47639,-5.991343 -0.16684,-1.82253 -0.32535,-2.372166 -0.95652,-3.31668 -0.31139,-0.46598 -0.56616,-0.898133 -0.56616,-0.96034 0,-0.06221 -0.0397,-0.130742 -0.0882,-0.152301 -0.0485,-0.02156 -0.30962,-0.330631 -0.58026,-0.686828 -1.71388,-2.25575 -4.02532,-3.696191 -6.32665,-3.942642 -0.56314,-0.06031 -0.76469,-0.04109 -0.84146,0.08021 -0.0555,0.08773 -0.2536,0.238342 -0.44019,0.334684 -0.72442,0.374035 -0.99673,1.22511 -1.01614,3.175839 -0.007,0.743773 -0.0544,1.457139 -0.10445,1.585257 -0.1329,0.34022 -0.38678,-1.323529 -0.47064,-3.084186 l -0.0686,-1.440133 -0.65834,0.440596 c -0.36209,0.242327 -1.01867,0.771963 -1.45907,1.176969 l -0.80072,0.736374 0.59919,0.59293 c 0.61796,0.611502 1.04742,1.5263 0.8986,1.914114 -0.10436,0.271949 -0.28475,0.243362 -0.28475,-0.04513 0,-0.518073 -0.68577,-1.516428 -1.32729,-1.932295 l -0.32775,-0.212466 -0.28961,0.272073 c -0.15929,0.14964 -0.28955,0.381911 -0.28947,0.516158 2.7e-4,0.462912 0.6687,1.010636 1.43622,1.176877 0.23107,0.05005 0.29936,0.120906 0.24729,0.256598 -0.0568,0.148049 -0.17336,0.171356 -0.55441,0.11087 -0.26537,-0.04212 -0.50012,-0.127016 -0.52168,-0.188654 -0.0216,-0.06164 -0.10968,-0.112069 -0.19582,-0.112069 -0.14832,0 -0.5823,-0.405375 -0.90928,-0.849368 l -0.14922,-0.20261 -0.82315,0.290292 c -0.45273,0.15966 -0.94079,0.290522 -1.08458,0.290804 -0.43195,8.46e-4 -1.32607,0.492721 -1.32607,0.7295 0,0.116464 0.0508,0.211753 0.11301,0.211753 0.20741,0 0.59255,0.511219 0.59255,0.786525 0,0.149495 0.0688,0.271808 0.15287,0.271808 0.22901,0 0.43509,-0.250643 0.43509,-0.529166 0,-0.13582 -0.0635,-0.310445 -0.14111,-0.388056 -0.10139,-0.101386 -0.10522,-0.177005 -0.0136,-0.268613 0.0916,-0.09161 0.18099,-0.05114 0.3175,0.143757 0.25865,0.369279 0.23858,0.713418 -0.0641,1.098164 l -0.25406,0.322987 -0.57964,-0.0557 c -0.47751,-0.04588 -0.61923,-0.01321 -0.80428,0.185414 -0.28618,0.307181 -0.28384,0.627366 0.008,1.106129 0.34329,0.563015 0.21602,0.736932 -0.53925,0.736932 -0.3488,0 -0.63418,0.04791 -0.63418,0.106467 0,0.05856 -0.18521,0.328147 -0.41157,0.599089 -0.63755,0.763088 -0.52632,1.196513 0.48159,1.876746 0.67306,0.454244 1.19295,0.718416 2.16424,1.099728 0.62272,0.244467 0.96031,0.299378 1.82184,0.296335 1.21407,-0.0043 2.11806,-0.282786 3.15755,-0.972758 1.43449,-0.95216 2.08103,-1.943394 2.49529,-3.825585 l 0.21929,-0.996367 0.0895,0.408404 c 0.0843,0.384622 -0.008,1.054042 -0.27465,1.995904 -0.32531,1.148138 -1.10509,2.185061 -2.20306,2.929515 -0.87071,0.590375 -1.82698,1.068633 -2.13669,1.068633 -0.44166,0 -0.17573,0.266465 0.42343,0.424285 0.68496,0.180419 1.52668,0.205526 2.00495,0.0598 0.18751,-0.05713 0.57906,-0.173741 0.8701,-0.259133 2.22179,-0.651884 3.95075,-2.790845 4.64927,-5.751808 0.21117,-0.895118 0.343,-1.175926 0.55207,-1.175926 0.17969,0 -0.0895,1.422385 -0.48741,2.575162 -0.64166,1.859065 -1.69618,3.358704 -2.95004,4.195288 -1.01895,0.679849 -2.21864,1.108254 -3.1035,1.108254 -0.21751,0 -0.46217,0.08035 -0.54367,0.178559 -0.14451,0.174114 -0.49083,0.351222 -1.25741,0.643034 -0.37488,0.142704 -1.11807,0.114973 -1.68061,-0.06271 l -0.29398,-0.09286 0.35278,0.287301 c 0.68238,0.555727 0.9684,0.634485 2.28264,0.628541 1.05104,-0.0048 1.33135,-0.04761 1.79818,-0.274937 0.5545,-0.270016 0.79927,-0.256606 0.79927,0.04379 0,0.507856 -1.47473,1.042439 -2.88102,1.044357 -1.0557,0.0014 -1.54956,-0.163381 -2.19954,-0.73407 -0.2302,-0.202118 -0.52955,-0.367488 -0.66522,-0.367488 -0.13568,0 -0.44619,-0.07303 -0.69003,-0.162297 -1.11982,-0.409926 -1.39477,-0.443142 -3.20678,-0.387393 -2.08542,0.06416 -3.31045,0.235602 -4.11574,0.575991 -1.02925,0.435054 -2.02902,1.152976 -1.85436,1.331592 0.0473,0.04833 0.53706,-0.03337 1.08846,-0.181551 l 1.00253,-0.269418 1.85136,0.09566 c 1.01825,0.05261 2.93615,0.08373 4.26201,0.06916 1.89687,-0.02085 2.55914,0.01331 3.1074,0.160304 2.06313,0.553142 3.12501,1.867558 3.12501,3.868222 0,1.995078 -1.23453,4.223462 -2.9669,5.355389 l -0.7134,0.466142 0.57603,0.03655 c 0.81496,0.05172 1.99457,-0.08311 2.75149,-0.314487 z m -98.55941,-0.71911 c 1.27944,-0.176194 2.73322,-0.443669 3.427,-0.630519 0.22636,-0.06097 0.88782,-0.220922 1.46991,-0.35546 0.58208,-0.134537 1.22084,-0.2958 1.41946,-0.358362 0.19862,-0.06256 0.47331,-0.113748 0.61042,-0.113748 0.13711,0 0.27854,-0.04733 0.31429,-0.105171 0.0357,-0.05784 0.26377,-0.133797 0.50671,-0.168784 0.24294,-0.03499 0.70629,-0.122381 1.02967,-0.19421 0.90888,-0.201876 1.71178,-0.351096 2.3065,-0.428662 l 0.5426,-0.07077 0.0677,-0.895326 c 0.045,-0.59546 0.0242,-0.922216 -0.0622,-0.975615 -0.30077,-0.185888 -2.24816,0.12644 -4.97128,0.797311 -0.90547,0.22307 -1.88443,0.458689 -2.17547,0.523598 -0.29104,0.06491 -0.74083,0.168482 -0.99953,0.230163 -1.12473,0.268163 -3.66433,0.72964 -4.90676,0.891619 -0.86395,0.112637 -1.48779,-0.246782 -2.17141,-1.251037 -0.33791,-0.496401 -0.48491,-0.742383 -1.10645,-1.851496 -0.13592,-0.242535 -0.31411,-0.520347 -0.39599,-0.617361 -1.13286,-1.342307 -1.90011,-3.129012 -1.78677,-4.160902 0.0363,-0.330879 0.10139,-0.747119 0.14455,-0.924978 0.0663,-0.273134 0.041,-0.323379 -0.16258,-0.323379 -0.26131,0 -1.31506,1.008072 -1.31506,1.258053 0,0.08418 -0.0467,0.153058 -0.10388,0.153058 -0.0571,0 -0.13592,0.0926 -0.17509,0.205787 -0.47105,1.361078 -0.51178,1.670033 -0.30899,2.343503 0.0647,0.214789 0.17401,0.588962 0.24296,0.831497 0.12693,0.446479 0.28715,0.861263 0.47631,1.233127 0.0571,0.112305 0.10388,0.301923 0.10388,0.421373 0,0.11945 0.0396,0.256799 0.088,0.30522 0.15885,0.15885 0.36356,1.635727 0.37304,2.691188 l 0.009,1.034935 0.40085,0.167489 c 1.49555,0.62488 4.11868,0.749559 7.10826,0.337859 z m 19.94876,-3.974605 c 0.71143,-0.213725 1.90206,-0.600523 2.64583,-0.859551 1.51609,-0.527998 2.00518,-0.671301 2.93982,-0.861372 0.35572,-0.07234 0.80926,-0.180385 1.00788,-0.2401 0.19862,-0.05972 0.47395,-0.108572 0.61183,-0.108572 0.13789,0 0.37226,-0.04615 0.52082,-0.102554 0.26986,-0.102457 0.62586,-0.207995 1.62243,-0.480975 0.29104,-0.07972 0.62105,-0.192708 0.73336,-0.251081 0.1123,-0.05837 0.30016,-0.106131 0.41745,-0.106131 0.1173,0 0.26354,-0.04778 0.32498,-0.106179 0.0614,-0.0584 0.21754,-0.128125 0.3469,-0.154949 0.13806,-0.02863 -0.0562,-0.112628 -0.47037,-0.203408 -0.9718,-0.21299 -1.61441,-0.42678 -2.26716,-0.754264 -0.72116,-0.361802 -1.93063,-0.393462 -3.38907,-0.08872 -0.8478,0.177154 -3.42309,1.085476 -5.0447,1.779305 -0.12935,0.05534 -0.44685,0.164374 -0.70556,0.242287 -1.02421,0.308457 -1.11713,0.440379 -1.11713,1.586022 0,0.278747 -0.0516,0.642549 -0.11468,0.808449 l -0.11468,0.301637 0.37926,-0.0056 c 0.2086,-0.0031 0.96135,-0.180495 1.67279,-0.39422 z m -37.188659,-1.912289 c -0.0808,-0.03262 -0.21314,-0.03262 -0.29398,0 -0.0808,0.03262 -0.0147,0.05931 0.14699,0.05931 0.16169,0 0.22784,-0.02669 0.14699,-0.05931 z m 36.271779,-0.995096 c 0.1809,-0.07273 0.43475,-0.173784 0.5641,-0.224568 0.12935,-0.05078 1.00248,-0.393555 1.94028,-0.761715 2.24068,-0.879643 2.91644,-1.085531 4.11574,-1.25398 0.54975,-0.07721 1.0228,-0.158292 1.05124,-0.18017 0.0988,-0.07603 -1.11826,-0.864954 -1.99198,-1.291225 -0.22637,-0.110439 -0.43803,-0.231535 -0.47037,-0.269101 -0.0323,-0.03757 -0.74671,-0.409305 -1.5875,-0.826087 -1.67339,-0.829506 -2.61648,-1.349423 -3.54771,-1.955816 -0.33434,-0.217715 -0.64617,-0.395845 -0.69296,-0.395845 -0.0468,0 -0.0416,0.436563 0.0115,0.970139 0.11671,1.172135 0.1148,3.607777 -0.004,5.174074 -0.0957,1.261524 -0.0777,1.291441 0.61168,1.014294 z m 30.37382,-0.867303 c 0,-0.03234 -0.0265,-0.0588 -0.0588,-0.0588 -0.0323,0 -0.0588,0.02646 -0.0588,0.0588 0,0.03234 0.0265,0.0588 0.0588,0.0588 0.0323,0 0.0588,-0.02646 0.0588,-0.0588 z m 42.43022,-9.568509 c 0.12612,-0.07996 0.11989,-0.134489 -0.0328,-0.287184 -0.20265,-0.202648 -0.53445,-0.14771 -0.53445,0.08849 0,0.290969 0.27164,0.386118 0.56725,0.198694 z m 5.54756,-6.424084 c 0,-0.03234 -0.0265,-0.0588 -0.0588,-0.0588 -0.0323,0 -0.0588,0.02646 -0.0588,0.0588 0,0.03234 0.0265,0.0588 0.0588,0.0588 0.0323,0 0.0588,-0.02646 0.0588,-0.0588 z m 0.70556,-0.65075 c 0.22636,-0.157652 0.49095,-0.351313 0.58796,-0.430358 0.097,-0.07905 0.3821,-0.304694 0.63353,-0.501444 0.62363,-0.488006 0.22609,-0.473955 -0.49475,0.01749 -0.60507,0.412513 -1.31573,1.128892 -1.31291,1.323462 0.001,0.08627 0.0281,0.0865 0.0882,7.53e-4 0.0475,-0.06779 0.27161,-0.252246 0.49797,-0.409899 z m -91.4441,-1.761752 c 0.70419,-0.618289 1.29001,-2.415185 1.42109,-4.35893 0.0656,-0.973645 0.0427,-1.21605 -0.16891,-1.781558 -0.18562,-0.4961 -0.3151,-0.672188 -0.53483,-0.727337 -0.29282,-0.07349 -0.38985,-0.34542 -0.17143,-0.480416 0.0743,-0.0459 0.0564,-0.135353 -0.0479,-0.239665 -0.11406,-0.11406 -0.1462,-0.317281 -0.10213,-0.645817 0.0674,-0.50237 -0.13241,-1.054238 -0.38165,-1.054238 -0.0761,0 -0.23407,0.105833 -0.35113,0.235185 -0.28935,0.319727 -0.40779,0.29554 -0.43187,-0.08819 -0.0112,-0.177859 -0.0508,0.02016 -0.0882,0.440046 l -0.0679,0.763425 -0.32756,0.156341 c -0.4455,0.212629 -0.90569,0.08886 -1.41952,-0.38179 -0.23561,-0.215814 -0.70235,-0.481997 -1.03719,-0.591518 -0.33484,-0.10952 -0.82601,-0.37712 -1.0915,-0.594665 -0.86834,-0.711544 -1.34948,-0.765411 -2.35663,-0.263844 -0.25871,0.128835 -0.73984,0.439878 -1.0692,0.691205 -0.68697,0.524224 -0.98897,0.583024 -0.98804,0.192374 5.6e-4,-0.235854 0.56422,-0.74182 1.40379,-1.260109 0.13843,-0.08545 0.14385,-0.161511 0.0294,-0.412697 -0.16916,-0.371257 -0.18518,-1.692225 -0.0256,-2.1119 0.0631,-0.1659 0.20153,-0.301636 0.30769,-0.301636 0.15203,0 0.1756,0.06865 0.11103,0.323379 -0.18285,0.72133 -0.20039,1.259518 -0.0553,1.699 0.12979,0.393264 0.18961,0.450561 0.39597,0.379241 0.1337,-0.04621 0.56313,-0.106807 0.95429,-0.134668 l 0.71119,-0.05066 0.64112,0.486487 c 0.67456,0.511861 1.29646,0.824996 1.63847,0.824996 0.11234,0 0.44903,0.215452 0.74819,0.478784 0.36498,0.321266 0.63157,0.466344 0.81031,0.440972 l 0.26638,-0.03781 0.0347,-0.723517 c 0.10737,-2.237907 2.24257,-1.518821 2.55834,0.861591 0.0614,0.463231 0.13449,0.600423 0.38181,0.717138 0.36879,0.17404 1.34792,0.189698 1.67164,0.02673 0.12847,-0.06468 0.3387,-0.170509 0.46718,-0.235185 0.12847,-0.06468 0.3144,-0.117592 0.41317,-0.117592 0.0988,0 0.27146,-0.04674 0.38377,-0.103873 0.11231,-0.05713 0.34971,-0.171906 0.52757,-0.255056 0.42952,-0.200804 0.42458,-0.596348 -0.0245,-1.958933 -0.34751,-1.054514 -1.25717,-2.997727 -1.43797,-3.071799 -0.0526,-0.02156 -0.0957,-0.104185 -0.0957,-0.183614 0,-0.07943 -0.0926,-0.247202 -0.20579,-0.37283 -0.11318,-0.125628 -0.44336,-0.540568 -0.73372,-0.922089 -1.18359,-1.555169 -2.87591,-3.053429 -4.11697,-3.644864 l -0.76435,-0.364258 -1.17593,0.0069 c -0.94528,0.0055 -1.34176,0.06532 -2.02141,0.304748 -1.93194,0.680587 -3.37997,1.892884 -4.37321,3.661268 -0.29393,0.523307 -0.32963,1.024771 -0.073,1.024771 0.35189,0 0.16294,0.448198 -0.45102,1.069837 -0.663,0.671305 -0.73547,0.793125 -0.97255,1.634793 -0.25314,0.898702 0.11416,1.723738 0.92933,2.08749 0.1809,0.08072 0.42578,0.146769 0.54417,0.146769 0.11839,0 0.28195,0.08037 0.36347,0.178595 0.12084,0.145597 0.11263,0.217919 -0.0444,0.391435 -0.10594,0.117062 -0.19261,0.263053 -0.19261,0.324423 0,0.17748 0.93681,1.968265 1.1315,2.162954 0.15679,0.156791 0.19544,0.150258 0.34782,-0.0588 0.51645,-0.708534 1.44094,-1.352315 1.94197,-1.352315 0.4056,0 0.23437,0.232693 -0.40026,0.543945 -0.61174,0.300024 -1.08354,0.817495 -1.15993,1.272216 -0.0847,0.504371 1.0338,0.675423 1.38568,0.211905 0.0858,-0.112959 0.1576,-0.37902 0.15966,-0.591247 0.004,-0.411987 0.27388,-0.625758 0.502,-0.397631 0.19325,0.193247 -0.11934,1.033242 -0.54165,1.455555 l -0.34889,0.348892 0.12145,0.37147 c 0.0668,0.204308 0.18755,0.609594 0.26834,0.900636 0.18258,0.657748 0.36679,1.058333 0.48667,1.058333 0.0504,0 0.23441,-0.132291 0.40888,-0.293981 0.17446,-0.16169 0.44825,-0.293981 0.60842,-0.293981 0.24863,0 0.26928,-0.02643 0.14121,-0.180731 -0.0825,-0.0994 -0.25965,-0.165548 -0.39367,-0.146991 -0.15561,0.02155 -0.25847,-0.04064 -0.2846,-0.172047 -0.0334,-0.168168 0.044,-0.205787 0.42367,-0.205787 0.59561,0 0.78045,0.216341 0.68655,0.803553 -0.0622,0.389075 -0.0271,0.492355 0.26087,0.768289 l 0.33274,0.318788 0.57676,-0.124916 c 0.31721,-0.0687 0.72716,-0.18504 0.91099,-0.258524 0.43485,-0.173826 0.529,-0.02554 0.45734,0.72029 l -0.0545,0.566631 0.45458,0.422448 c 0.25002,0.232346 0.54535,0.42388 0.65628,0.42563 0.11093,0.0018 0.38345,-0.156403 0.6056,-0.35145 z m 1.01138,-14.529832 c -0.35351,-0.360667 -0.85441,-0.775737 -1.11312,-0.922377 -0.40353,-0.228731 -0.67005,-0.325354 -1.67569,-0.607502 -0.32214,-0.09038 -0.12063,-0.2837 0.29398,-0.282036 0.50426,0.002 1.1319,0.198801 1.58863,0.498061 0.17269,0.113148 0.35552,0.210725 0.40631,0.216837 0.1383,0.01665 1.44464,1.492383 1.44464,1.631979 0,0.274822 -0.33943,0.08262 -0.94475,-0.534962 z m 92.39259,14.806068 c -0.0431,-0.04312 -0.11367,-0.04312 -0.15679,0 -0.0431,0.04312 -0.008,0.0784 0.0784,0.0784 0.0862,0 0.12152,-0.03528 0.0784,-0.0784 z m -95.50293,-0.988347 c 0.0436,-0.198652 0.0491,-0.391401 0.0122,-0.428331 -0.12703,-0.127026 -0.42561,0.230713 -0.42561,0.509935 0,0.409258 0.31946,0.346201 0.41343,-0.0816 z m 2.99676,-7.282332 c 0,-0.194028 -0.0204,-0.352778 -0.0455,-0.352778 -0.025,0 -0.0687,0.15875 -0.0972,0.352778 -0.0285,0.194028 -0.008,0.352778 0.0455,0.352778 0.0535,0 0.0972,-0.15875 0.0972,-0.352778 z"
       id="path9" /></g></svg>
