<?xml version="1.0" encoding="UTF-8" standalone="no"?>
<!-- Created with Inkscape (http://www.inkscape.org/) -->

<svg
   width="129.62338mm"
   height="81.460442mm"
   viewBox="0 0 129.6234 81.460441"
   version="1.1"
   id="svg1"
   xml:space="preserve"
   xmlns="http://www.w3.org/2000/svg"
   xmlns:svg="http://www.w3.org/2000/svg"><defs
     id="defs1" /><g
     id="layer1"
     transform="translate(198.24723,49.271772)"><path
       style="fill:#4d4d4d"
       d="m -172.20329,32.107952 c -0.13076,-0.13076 -0.0877,-1.29963 0.0608,-1.65056 0.0766,-0.1809 0.46019,-0.64803 0.85254,-1.03806 0.61424,-0.6106 1.00546,-0.85225 2.81541,-1.739 1.81421,-0.88885 3.03699,-1.58217 3.24842,-1.84189 0.0323,-0.0397 0.244,-0.19941 0.47037,-0.35487 0.22637,-0.15546 0.43803,-0.31421 0.47037,-0.35278 0.0323,-0.0386 0.24401,-0.19732 0.47037,-0.35278 0.22637,-0.15546 0.43803,-0.31515 0.47037,-0.35487 0.1318,-0.16189 1.15151,-0.79432 1.64629,-1.02103 1.42513,-0.653 2.35976,-0.78196 3.02502,-0.41738 0.20653,0.11318 0.73487,0.55359 1.17409,0.97869 0.43922,0.4251 0.89393,0.80815 1.01048,0.85121 0.19534,0.0722 0.87421,-0.008 2.37514,-0.28141 0.54684,-0.0995 1.10924,-0.19799 2.58703,-0.45298 0.32338,-0.0558 0.6938,-0.1288 0.82315,-0.16223 0.12935,-0.0334 0.55269,-0.12432 0.94074,-0.20199 0.38806,-0.0777 1.40825,-0.37502 2.2671,-0.66077 1.53632,-0.51114 2.06042,-0.72388 5.02364,-2.03922 1.23185,-0.5468 1.68535,-0.73305 2.29306,-0.94172 0.22636,-0.0777 0.51741,-0.18287 0.64676,-0.23365 0.21571,-0.0847 0.73411,-0.23606 1.64629,-0.48073 1.10588,-0.29663 1.79095,-0.36133 3.43975,-0.32484 0.9864,0.0218 1.79338,0.002 1.79329,-0.0432 -4e-4,-0.20086 -1.06148,-2.46084 -2.5169,-5.36068 -1.64041,-3.26845 -1.73242,-3.46304 -2.24274,-4.74346 l -0.31073,-0.77966 -0.77668,0.0623 -0.77667,0.0623 -2.32243,1.56986 c -1.27733,0.86342 -2.37995,1.56986 -2.45026,1.56986 -0.0703,0 -0.12824,0.0397 -0.12875,0.0882 -5e-4,0.0485 -0.11956,0.1475 -0.26458,0.21999 -0.14502,0.0725 -0.78246,0.40286 -1.41654,0.73417 -2.52052,1.31699 -3.81025,1.56828 -8.34968,1.62681 l -3.38774,0.0437 -0.90439,0.70364 c -0.49741,0.387 -0.95731,0.74491 -1.02198,0.79536 -1.50969,1.17755 -4.54687,2.76661 -8.49606,4.44516 -2.42715,1.03162 -3.69437,1.65161 -5.05264,2.472 -1.74291,1.0527 -3.3866,2.20469 -3.82465,2.68053 -1.42522,1.54816 -1.86182,1.77101 -4.40989,2.25095 -2.6663,0.50221 -3.65598,0.61222 -4.93585,0.54866 l -1.20151,-0.0597 -0.41218,0.3619 c -0.36652,0.32181 -1.04295,0.60742 -1.44296,0.60926 -0.20976,9.6e-4 -0.62194,-0.48089 -0.62194,-0.72708 0,-0.15766 -0.0905,-0.21301 -0.3482,-0.21301 -0.32249,0 -0.82773,-0.37242 -0.82773,-0.61013 0,-0.0525 -0.10517,-0.0954 -0.23371,-0.0954 -0.14478,0 -0.3467,-0.17899 -0.53064,-0.47037 -0.16331,-0.25871 -0.34783,-0.47037 -0.41003,-0.47037 -0.14044,0 -0.51409,-0.70258 -0.42242,-0.79426 0.0368,-0.0368 -0.11315,-0.18915 -0.33316,-0.33865 -0.50878,-0.34573 -0.8423,-1.14335 -0.66884,-1.59959 0.23983,-0.63079 0.4882,-0.69047 3.32934,-0.79997 1.44147,-0.0556 3.0971,-0.18467 3.67918,-0.28692 1.36329,-0.23949 3.77476,-0.88685 4.58611,-1.23115 0.12935,-0.0549 0.4204,-0.16743 0.64676,-0.2501 0.73457,-0.26823 1.62427,-0.69142 1.78416,-0.84863 0.0859,-0.0844 1.24091,-0.88637 2.56677,-1.7821 1.32585,-0.89574 2.51989,-1.72657 2.65341,-1.84631 0.13352,-0.11973 0.30109,-0.2177 0.37238,-0.2177 0.0713,0 0.14725,-0.0434 0.16881,-0.0964 0.0216,-0.053 0.38315,-0.32683 0.80355,-0.60853 0.42039,-0.2817 0.79081,-0.54564 0.82314,-0.58653 0.0323,-0.0409 0.46657,-0.35412 0.96496,-0.69608 0.891,-0.61135 1.28019,-0.95441 1.07792,-0.95017 -0.32248,0.007 -2.62661,0.37073 -3.30349,0.52182 -1.32666,0.29612 -3.41565,0.95641 -4.38383,1.38563 -0.8606,0.38153 -2.14097,1.01672 -2.64583,1.31259 -2.11278,1.23818 -2.93312,1.68726 -3.97719,2.17723 -1.17606,0.55192 -1.44823,0.77047 -2.19161,1.75988 -0.58654,0.78069 -1.24511,0.82772 -1.54234,0.11015 -0.18718,-0.45191 -0.0738,-2.40483 0.18975,-3.268 0.36205,-1.18582 0.91528,-1.82141 2.81768,-3.23718 1.19474,-0.88912 2.29306,-1.88423 2.29306,-2.07758 0,-0.0446 0.0661,-0.15093 0.14699,-0.23639 0.18055,-0.19088 0.4595,-0.78173 0.79509,-1.6841 0.62021,-1.66774 1.61309,-2.90704 2.4342,-3.03834 0.26707,-0.0427 0.55594,-0.0557 0.64192,-0.0288 0.086,0.0269 0.30506,0.0816 0.48684,0.12151 0.29817,0.0655 0.97819,0.6643 1.52043,1.33876 0.15825,0.19684 0.33151,0.25443 0.76435,0.25406 0.7759,-6.5e-4 3.2371,-0.41732 5.5574,-0.94083 0.22637,-0.0511 0.59678,-0.12922 0.82315,-0.17366 0.22636,-0.0444 0.54386,-0.12359 0.70555,-0.17589 0.16169,-0.0523 0.61149,-0.1592 0.99954,-0.23757 0.38806,-0.0784 0.81139,-0.18588 0.94074,-0.23892 0.28172,-0.1155 0.78109,-0.22835 1.38245,-0.31242 0.24294,-0.034 0.47096,-0.10907 0.50671,-0.16692 0.0358,-0.0578 0.24396,-0.10517 0.46269,-0.10517 0.21874,0 0.42695,-0.0473 0.4627,-0.10517 0.0357,-0.0578 0.26377,-0.13291 0.50671,-0.16681 0.24294,-0.0339 0.67983,-0.12176 0.97087,-0.19524 0.89963,-0.22713 1.57411,-0.36626 1.89548,-0.39101 0.29628,-0.0228 0.60587,-0.32672 1.39711,-1.3715 0.50961,-0.6729 0.98037,-1.21079 1.59508,-1.82252 0.32755,-0.32596 0.72037,-0.77786 0.87294,-1.00423 0.67845,-1.00661004 1.90523,-1.80275004 3.35281,-2.17583004 0.79682,-0.20535996 3.06662,-0.52640996 3.73188,-0.52784996 0.24161,-5.2e-4 0.66494,-0.0531 0.94074,-0.11678 0.62115,-0.14349 2.2589,-0.47291 2.74246,-0.55163 0.3123,-0.0508 0.37924,-0.13056 0.50961,-0.60688 0.16478,-0.60198 0.25687,-0.85562 0.48723,-1.34192 0.0842,-0.17776 0.11968,-0.35662 0.0788,-0.39747 -0.0694,-0.0694 -1.79025,-0.51663 -2.8463,-0.73966 -0.74148,-0.1566 -2.29054,-0.46757 -2.99861,-0.60196 -0.35572,-0.0675 -0.87242,-0.17351 -1.14822,-0.23555 -0.2758,-0.062 -1.05434,-0.1128 -1.73008,-0.1128 -1.61058,0 -2.13365,0.19984 -4.20565,1.60677 -0.88924,0.60382 -1.66997,1.09786 -1.73495,1.09786 -0.065,0 -0.11814,0.0468 -0.11814,0.10388 0,0.0571 -0.0926,0.13516 -0.20579,0.17341 -0.11318,0.0382 -0.5762,0.28097 -1.02893,0.53939 -1.03818,0.59261 -2.47299,1.29256 -3.89459,1.89992996 -1.06686,0.45582 -3.8547,1.48297 -4.3369,1.59789 -0.12935,0.0308 -0.34102,0.0985 -0.47037,0.15043004 -0.12935,0.0519 -0.47331,0.16047 -0.76435,0.24126 -1.07852,0.29939 -1.35864,0.38277 -1.62243,0.48292 -0.14857,0.0564 -0.3968,0.10255 -0.55163,0.10255 -0.15483,0 -0.3106,0.0471 -0.34615,0.1046 -0.0356,0.0575 -0.23712,0.13309 -0.44792,0.1679 -0.21079,0.0348 -0.60816,0.12003 -0.88303,0.18938 -0.50332,0.12698 -1.15099,0.28709 -1.91088,0.47238 -0.22636,0.0552 -0.70261,0.16384 -1.05833,0.24142 -0.62011,0.13525 -1.23041,0.27019 -2.11667,0.46802 -0.22636,0.0505 -0.83491,0.18208 -1.35231,0.29233 -0.51741,0.11025 -1.23179,0.35634 -1.5875,0.54687 -0.54361,0.29115 -2.06837,1.36165 -2.70463,1.89884 -0.097,0.0819 -0.3616,0.27903 -0.58797,0.43804 -0.22636,0.15901 -0.51415,0.38315 -0.63953,0.49809 -0.28246,0.25895 -1.0708,0.27634 -1.55591,0.0343 -0.54694,-0.27284 -1.73132,-1.46943 -2.09681,-2.1184 -0.18211,-0.32338 -0.79545,-1.06421 -1.36296,-1.6463 -0.56751,-0.58208 -1.2352,-1.33219 -1.48375,-1.6669 -0.24856,-0.33472 -0.90033,-1.07671004 -1.44838,-1.64886004 -0.83849,-0.87538 -1.31571,-1.43104996 -1.64321,-1.91333996 -0.0323,-0.0476 -0.25167,-0.17718 -0.4874,-0.28789 -0.66755,-0.31353 -1.36334,-0.97149 -1.51577,-1.43339 -0.27522,-0.83391 0.0977,-1.57508 0.79251,-1.57508 0.50033,0 0.81662,0.16395 2.53068,1.31173 2.12255,1.42132 3.07582,1.93583 4.29451,2.31787 2.45704,0.77023996 4.78677,0.93327996 6.28808,0.44003996 0.84607,-0.27795996 1.63706,-0.56581996 2.2085,-0.80371996 0.16169,-0.0673 0.39981,-0.16114 0.52917,-0.20851 0.12935,-0.0474 0.3807,-0.14612 0.55856,-0.21945 0.17786,-0.0733 0.44244,-0.17954 0.58796,-0.23602 0.14552,-0.0565 0.51594,-0.21524 0.82315,-0.35278 0.30721,-0.13755 0.78346,-0.35026 1.05834,-0.4727 3.51505,-1.56576 10.70603,-5.06458 12.20023,-5.9361 1.01755,-0.59351 2.59802,-1.59761 2.70463,-1.7183 0.0323,-0.0366 0.29692,-0.24897 0.58796,-0.47191 0.29105,-0.22294 0.92605,-0.82992 1.41111,-1.34885 1.10832,-1.18569 2.34032,-2.41902 2.64658,-2.64945 0.34197,-0.25728 1.22015,-0.66656 1.77464,-0.82708 0.51793,-0.14992 2.66459,-0.0921 4.04545,0.10893 0.42039,0.0612 1.148,0.16846 1.6169,0.23833 0.4689,0.0699 1.20973,0.17933 1.6463,0.24322 1.04353,0.15274 1.96926,0.35069 3.20439,0.68521 0.22637,0.0613 1.15241,0.35067 2.05787,0.64302 1.53661,0.49612 2.43916,0.73954 3.88056,1.04657 0.32338,0.0689 0.72025,0.16546 0.88194,0.21461 0.16169,0.0491 0.53211,0.15762 0.82315,0.24104 0.29104,0.0834 0.57944,0.19539 0.64088,0.24882 0.14779,0.12852 0.83768,0.12428 1.09521,-0.007 0.22895,-0.11646 0.59865,-0.26962 1.19437,-0.49479 0.41031,-0.15508 1.48378,-0.18418 4.53667,-0.12296 2.36308,0.0474 3.17904,-0.17853 4.70371,-1.30237 1.05855,-0.78026 2.08511,-1.76969 3.07331,-2.96218 1.17415,-1.41687 1.1187,-1.34484 1.64717,-2.13934 1.17364,-1.7644 1.71191,-3.51362 2.22202,-7.22078 0.19488,-1.41628 0.23535,-4.22628 0.0583,-4.04925 -0.18327,0.18326 -1.13668,2.07948 -1.22298,2.43235 -0.0532,0.21733 -0.15548,0.32338 -0.31203,0.32338 -0.20689,0 -0.23295,-0.0807 -0.23295,-0.72139 0,-1.83981 0.59097,-4.04076 1.60188,-5.9659 0.5626,-1.07141 1.24854,-2.19251 1.44844,-2.36734 0.037,-0.0323 0.22472,-0.2698 0.41722,-0.5277 0.54579,-0.7312 2.29556,-2.4212 3.25116,-3.1401 0.97254,-0.73164 2.87736,-1.85686 3.15415,-1.86322 0.29949,-0.007 -0.37385,-0.33961 -0.70063,-0.34621 -0.41042,-0.008 -1.18104,-0.29079 -1.29464,-0.47459 -0.20959,-0.33912 0.007,-0.44111 0.91977,-0.43335 1.54193,0.0131 2.2998,-0.28657 4.7258,-1.86868 1.37599,-0.89735 2.54827,-1.54188 3.93935,-2.1659 0.81182,-0.36416 0.98949,-0.43313 1.52871,-0.59339 0.2587,-0.0769 0.56225,-0.18622 0.67456,-0.24296 0.1123,-0.0567 0.32662,-0.10316 0.47625,-0.10316 0.14963,0 0.32233,-0.0475 0.38377,-0.10555 0.28502,-0.26929 3.021899,-0.44188 3.933471,-0.24805 2.071004,0.44036 2.599552,0.60156 4.022843,1.22684 0.39286,0.1726 1.370463,0.85484 1.685989,1.17661 0.270358,0.2757 0.833101,1.20788 0.968236,1.60387 0.283453,0.83061 0.159932,2.78745 -0.223911,3.54723 -0.05674,0.11231 -0.103157,0.42662 -0.103157,0.69848 0,1.52693 -0.619685,3.18064 -1.670478,4.4579 -0.432395,0.52559 -0.593043,0.84378 -0.734953,1.45568 -0.09988,0.43069 -0.181606,0.97905 -0.181606,1.21858 0,0.23953 -0.09914,0.61989 -0.220319,0.84525 l -0.220319,0.40974 -0.569537,0.0102 c -0.499534,0.009 -0.594253,0.0523 -0.770623,0.35278 -0.110598,0.18839 -0.206313,0.42191 -0.212701,0.51892 -0.0064,0.097 -0.268019,0.42775 -0.581401,0.73496 l -0.569786,0.55856 h -0.529925 c -0.335112,0 -0.585518,0.067 -0.681146,0.18221 -0.149542,0.18019 -0.947513,0.58521 -1.288687,0.65409 -0.330056,0.0666 -0.852687,-0.14204 -1.57357,-0.62833 -0.83311,-0.56198 -1.01912,-0.75104 -1.55786,-1.58338 -0.3817,-0.58972 -0.8518,-1.02239 -1.44287,-1.32801 l -0.28217,-0.1459 0.0884,0.45452 c 0.0486,0.24999 0.13383,0.71911 0.18937,1.04249 0.0555,0.32338 0.15427,0.85254 0.2194,1.17592 0.25366,1.25931 0.36552,1.91833 0.48539,2.85977 0.0685,0.53806 0.16119,1.07577 0.20596,1.19491 l 0.0814,0.21662 0.88194,-0.28351 c 0.48507,-0.15594 1.04445,-0.33646 1.24307,-0.40116 0.730592,-0.238 1.612128,-0.14425 2.383297,0.25348 0.395774,0.20411 0.813354,0.45547 0.927956,0.55856 0.114602,0.10309 0.393533,0.32697 0.619846,0.49749 0.226313,0.17053 0.54377,0.42813 0.70546,0.57246 0.476712,0.42551 1.104627,0.79178 1.624321,0.94749 0.427447,0.12806 0.579514,0.11476 1.266852,-0.11088 0.429604,-0.14103 1.009475,-0.41355 1.288603,-0.60559 0.279128,-0.19205 0.564117,-0.34917 0.633309,-0.34917 0.06919,0 0.125803,-0.0404 0.125803,-0.0898 0,-0.0494 0.211667,-0.22065 0.470371,-0.38054 0.365192,-0.2257 0.47037,-0.36338 0.47037,-0.61572 0,-0.17876 -0.01323,-0.32772 -0.0294,-0.33101 -0.01617,-0.003 -0.585023,-0.0534 -1.26412,-0.11138 -6.030249,-0.5147 -6.868365,-0.66322 -9.466208,-1.67744 -1.80735,-0.70561 -2.22119,-0.92138 -2.27234,-1.18479 -0.0555,-0.28599 0.25847,-0.35703 0.70601,-0.15971 0.21473,0.0947 0.62853,0.27806 0.91958,0.40753 1.942927,0.86432 3.866326,1.32518 6.702772,1.60605 1.002477,0.0993 2.44,0.24179 3.194494,0.31671 0.754495,0.0749 1.455641,0.10406 1.558102,0.0647 0.10659,-0.0409 0.186293,-0.20785 0.186293,-0.39021 0,-0.36275 0.203404,-1.06036 0.560669,-1.92292 0.06697,-0.16169 0.478393,-1.02366 0.914271,-1.91549 0.623452,-1.27562 0.905375,-1.72086 1.321635,-2.08727 0.291021,-0.25616 0.575173,-0.46575 0.631448,-0.46575 0.182021,0 1.203817,-0.50399 1.687255,-0.83222 0.258704,-0.17564 0.575604,-0.52327 0.704222,-0.7725 0.683235,-1.32396 2.281712,-3.21658 2.716663,-3.21658 0.09113,0 0.165689,-0.0529 0.165689,-0.11759 0,-0.0647 0.10271,-0.1176 0.228245,-0.1176 0.125535,0 0.256323,-0.0454 0.290641,-0.10095 0.08629,-0.13963 1.360845,-0.29062 2.420929,-0.2868 1.206346,0.004 2.655818,0.19896 3.292592,0.44207 0.291042,0.11112 0.740834,0.25723 0.999537,0.3247 0.764705,0.19943 1.0081,0.35146 1.637053,1.02256 1.135219,1.2113 1.594612,1.64684 2.239543,2.12328 0.71562,0.52866 0.726459,0.5538 0.888525,2.06079 0.0626,0.58209 0.180222,1.45521 0.261385,1.94028 0.08116,0.48507 0.147569,1.59632 0.147569,2.46944 v 1.5875 l -0.275838,0.52917 c -0.151711,0.29104 -0.429524,0.68097 -0.617361,0.8665 -0.187838,0.18553 -0.341523,0.39941 -0.341523,0.47527 0,0.14653 -0.533752,0.735 -1.162708,1.28191 -1.047655,0.911 -2.959301,1.6861 -5.28839,2.14426 -0.217294,0.0427 -0.681823,0.20452 -1.032288,0.35952 -0.350465,0.15499 -0.715652,0.2818 -0.811527,0.2818 -0.09587,0 -0.398637,0.10081 -0.672804,0.22402 -1.108303,0.49808 -1.646772,0.44329 -1.876092,-0.19088 l -0.149485,-0.4134 -0.647566,0.0618 c -0.764342,0.073 -1.876072,0.61767 -3.528585,1.72876 -0.919561,0.61828 -2.587137,1.86772 -2.973428,2.22786 -0.05083,0.0474 0.266674,0.35372 0.705555,0.68076 1.179485,0.8789 2.153111,2.00498 2.594848,3.00117 0.316403,0.71354 0.37134,0.87893 0.509914,1.53512 0.173483,0.82149 0.0012,2.13495 -0.450377,3.43317 -0.157473,0.45273 -0.31503,0.91575 -0.350128,1.02893 -0.0351,0.11319 -0.110559,0.20579 -0.167692,0.20579 -0.05713,0 -0.103942,0.0661 -0.104021,0.14699 -7.9e-5,0.0808 -0.119141,0.28878 -0.264583,0.46207 -0.145442,0.17329 -0.405484,0.49558 -0.577872,0.7162 -0.727683,0.93129 -4.845833,3.26085 -5.764456,3.26085 -0.119079,0 -0.308393,0.0478 -0.420698,0.10613 -0.112305,0.0584 -0.442317,0.17136 -0.733358,0.25109 -1.11982,0.30674 -1.358832,0.3805 -1.556506,0.48037 -0.112306,0.0567 -0.334079,0.10315 -0.492829,0.10315 -0.15875,0 -0.321341,0.0529 -0.361313,0.1176 -0.03997,0.0647 -0.184859,0.11759 -0.321971,0.11759 -0.137112,0 -0.411802,0.0493 -0.610421,0.10962 -0.442222,0.13425 -1.127801,0.30748 -1.831034,0.46269 -1.377068,0.30391 -1.630265,0.35749 -2.234255,0.47274 -0.35572,0.0679 -1.00395,0.17801 -1.44051,0.24474 -1.95018,0.29806996 -2.40418,0.38771996 -2.7518,0.54336996 -0.2038,0.0913 -0.51432,0.16591 -0.69003,0.16591 -0.17571,0 -0.77625,0.20595 -1.33454,0.45766 -0.55829,0.25171 -1.38549,0.6236 -1.83822,0.82642 -0.45273,0.20282004 -1.02658,0.47312004 -1.27523,0.60067004 -0.24865,0.12756 -0.52646,0.23192 -0.61736,0.23192 -0.0909,0 -0.16528,0.0529 -0.16528,0.11759 0,0.0647 -0.0719,0.11759 -0.15987,0.11759 -0.0879,0 -0.47157,0.15309 -0.85254,0.3402 -0.38098,0.1871 -1.69461,0.82512 -2.9192,1.41782 -1.22458,0.59269 -2.67979,1.37355 -3.23379,1.73524 -1.36578,0.89166 -2.3337,1.43388 -3.00636,1.68411 -0.73017,0.27164 -2.27851,0.57154 -3.175,0.61498 l -0.58796,0.0285 -0.003,7.9375 c -0.003,8.25776 -0.0125,8.43092 -0.50564,9.23101 -0.2613,0.42393 -0.55853,0.57641 -1.49054,0.76463 -0.38805,0.0784 -0.83784,0.1862 -0.99953,0.23963 -0.16169,0.0534 -0.77024,0.15714 -1.35232,0.23047 -1.45944,0.18386 -2.50101,0.34524 -3.05741,0.47371 -1.45561,0.3361 -5.99187,1.29888 -6.64398,1.41013 -4.09605,0.69878 -9.13847,1.14157 -15.93379,1.39919 -1.3582,0.0515 -2.73403,0.15376 -3.05741,0.22727 -0.32338,0.0735 -0.82609,0.18978 -1.11713,0.25838 -1.97035,0.46442 -2.58296,0.57688 -3.82176,0.70153 -0.64676,0.0651 -2.0226,0.17034 -3.05741,0.23391 -2.95437,0.18147 -3.45718,0.27479 -4.9806,0.92434 -0.81295,0.34662 -1.5249,0.46804 -1.70258,0.29036 z m 1.41573,-0.95782 c 0.91458,-0.53643 2.0751,-0.7431 5.38504,-0.95896 3.91293,-0.2552 4.30331,-0.30542 6.3794,-0.82062 2.17303,-0.53926 2.75193,-0.61166 5.26226,-0.65819 2.96425,-0.0549 4.9868,-0.16166 7.81991,-0.41265 1.8587,-0.16467 4.86869,-0.51695 5.99722,-0.70191 1.91868,-0.31445 2.427,-0.4103 3.88056,-0.73174 2.27219,-0.50248 2.31452,-0.51159 3.35139,-0.7212 2.4104,-0.48729 3.48564,-0.66129 4.08648,-0.66129 0.2995,0 0.57725,-0.0529 0.61722,-0.11759 0.04,-0.0647 0.35811,-0.1176 0.70696,-0.1176 0.58481,0 0.86924,-0.07 1.5417,-0.37926 0.13728,-0.0631 0.37343,-0.33436 0.52479,-0.60272 l 0.2752,-0.48792 0.0666,-2.29306 c 0.0877,-3.01713 0.063,-9.85921 -0.0564,-15.63981 -0.0718,-3.47489 -0.0602,-4.84922004 0.0459,-5.45602004 0.22808,-1.30355 0.74567,-2.11900996 1.79241,-2.82392996 l 0.56897,-0.38316 -0.26365,-0.12123 c -0.14501,-0.0667 -0.41753,-0.19446 -0.6056,-0.28396 -0.42412,-0.20182 -2.95809,-0.20231 -3.15979,-6.1e-4 -0.0725,0.0725 -0.2543,0.13187 -0.40393,0.13187 -0.14963,0 -0.36394,0.0478 -0.47625,0.10613 -0.1123,0.0584 -0.41586,0.15984 -0.67456,0.22548 -0.2587,0.0656 -0.68204,0.18045 -0.94074,0.25511 -0.5208,0.15032 -2.71316,0.1015 -3.5973,-0.0801 -0.74676,-0.15338 -1.63648,-0.62012 -1.91611,-1.00519 -0.12867,-0.17719 -0.23898,-0.52115 -0.24512,-0.76435 -0.006,-0.24319 -0.12831,-0.62738 -0.27148,-0.85375 -0.33769,-0.5339 -0.33644,-0.97859 0.003,-1.20916 0.21299,-0.14452 0.23592,-0.20922 0.11759,-0.33184 -0.19736,-0.20452 -0.1862,-0.67084 0.021,-0.87804 0.0924,-0.0924 0.33052,-0.16799 0.52917,-0.16799 0.29563,0 0.3615,-0.048 0.36298,-0.26459 0.005,-0.76315 0.63769,-0.72594 1.90164,0.11187 1.37452,0.9111 1.75507,1.02069 3.10612,0.89453 0.61574,-0.0575 0.7289,-0.0994 0.62075,-0.22967 -0.0727,-0.0877 -0.25495,-0.15936 -0.4049,-0.15936 -0.14996,0 -0.30535,-0.0529 -0.34532,-0.1176 -0.04,-0.0647 -0.16216,-0.11765 -0.27152,-0.11773 -0.2648,-1.9e-4 -0.81433,-0.48278 -0.94164,-0.82694 -0.1093,-0.29546 0.0555,-0.89679 0.26761,-0.97653 0.0673,-0.0253 0.8143,-0.007 1.65996,0.0404 1.70806,0.096 1.94394,0.17208 3.28374,1.05944 0.45273,0.29984 0.92898,0.58606 1.05833,0.63602 0.56603,0.21866 4.23334,0.68622 6.86379,0.8751 l 1.33694,0.096 1.66167,-1.13042 c 0.91392,-0.62172 2.18262,-1.5231 2.81932,-2.00306 l 1.15766,-0.87264 -0.27571,-0.10266 c -0.15164,-0.0565 -0.75196,-0.15146 -1.33404,-0.2111 -0.97133,-0.0995 -1.34588,-0.15666 -2.70463,-0.41268 -0.69584,-0.13112 -0.95359,-0.34891 -1.34872,-1.13961 -0.35973,-0.7199 -0.48256,-1.64208 -0.23878,-1.79274 0.0647,-0.04 0.11759,0.0297 0.11759,0.15482 0,0.44253 0.57468,1.52817 0.96391,1.82097 0.21362,0.16069 0.60007,0.32273 0.85878,0.36009 0.2587,0.0374 0.81433,0.12246 1.23472,0.18911 4.11519,0.65245 9.52348,0.46872 13.993519,-0.4754 0.692338,-0.14623 0.987479,-0.14946 4.0258,-0.0442 1.699605,0.0589 2.004243,0.0422 2.234259,-0.12244 l 0.266329,-0.19065 -0.727964,0.0796 c -0.40038,0.0438 -0.915001,0.0445 -1.143601,0.002 l -0.415637,-0.078 0.02647,-0.67138 0.02647,-0.67138 0.823148,-0.0299 c 1.382677,-0.0502 1.53942,-0.1695 0.411574,-0.31315 l -0.999537,-0.12731 -0.03527,-0.30328 -0.03527,-0.30329 1.62277,0.0296 c 1.353131,0.0247 1.485995,0.0132 0.799621,-0.0695 -0.452731,-0.0545 -1.034815,-0.15976 -1.293518,-0.23393 -0.258704,-0.0742 -0.655579,-0.17762 -0.881945,-0.22989 -0.655271,-0.15132 -0.823148,-0.25198 -0.823148,-0.49356 0,-0.29246 0.305425,-0.40594 0.695893,-0.25855 0.267513,0.10097 0.360932,0.0665 0.704147,-0.2602 0.469638,-0.44697 0.406688,-0.76512 -0.08538,-0.43151 -0.435167,0.29504 -0.927218,0.49616 -1.213847,0.49616 -0.270729,0 -0.78214,0.33684 -1.394332,0.91837 -0.484142,0.45989 -1.322694,0.85998 -2.257957,1.07732 -0.699937,0.16266 -1.995754,0.1242 -3.974454,-0.11795 -0.54974,-0.0673 -1.47578,-0.17317 -2.05787,-0.23531 -0.58208,-0.0621 -1.48166,-0.16606 -1.99907,-0.23094 -0.51741,-0.0649 -1.36407,-0.17105 -1.88148,-0.23594 -1.90098,-0.2384 -2.29637,-0.30867 -2.41734,-0.42964 -0.17607,-0.17607 -0.26389,-10.11622 -0.097,-10.97646 0.14736,-0.75948 0.46578,-1.4629 0.63284,-1.398 0.16881,0.0656 0.11427,0.50802 -0.18686,1.51559 -0.22431,0.75057 -0.26244,1.1447 -0.25593,2.64583 0.0144,3.32598 0.16769,7.52595 0.27881,7.64063 0.0611,0.0631 0.49345,0.15417 0.96071,0.20241 0.46726,0.0482 1.29935,0.14421 1.8491,0.21328 0.54974,0.0691 1.30314,0.15628 1.67421,0.1938 l 0.67467,0.0682 0.37043,-0.3962 c 0.20374,-0.21791 0.50837,-0.58141 0.67697,-0.80778 0.1686,-0.22637 0.35212,-0.4446 0.40781,-0.48498 0.0557,-0.0404 0.0119,-0.20975 -0.0973,-0.37641 -0.2202,-0.33608 -0.15233,-0.75131 0.16016,-0.97981 0.23722,-0.17346 0.36261,-0.0971 0.38,0.23124 0.0105,0.19894 0.0259,0.21076 0.0674,0.0519 0.0296,-0.11318 0.0968,-0.20578 0.1494,-0.20578 0.28907,0 0.44244,-2.36433 0.19944,-3.07453 -0.13402,-0.3917 -0.19426,-0.46368 -0.25633,-0.30626 -0.0977,0.24774 -0.39099,0.27131 -0.4803,0.0386 -0.0353,-0.092 -0.008,-0.27275 0.0614,-0.40176 0.12566,-0.23478 0.12166,-0.2452 -0.66106,-1.7241 -0.0685,-0.12935 -0.17697,-0.36747 -0.24114,-0.52916 -0.0642,-0.16169 -0.17618,-0.442 -0.24891,-0.6229 -0.14312,-0.35598 -0.16142,-2.54321 -0.0253,-3.02247 0.0647,-0.22767 -0.0686,-0.58854 -0.59065,-1.59967 -0.37078,-0.71812 -0.80363,-1.75 -0.96189,-2.29305 -0.32903,-1.12903 -0.57367,-2.83293 -0.47523,-3.30983 0.0367,-0.17786 0.0317,-0.32338 -0.0111,-0.32338 -0.0428,0 -0.45907,0.2547 -0.92505,0.56599 -1.14581,0.76545 -1.64336,0.98846 -3.20237,1.43532 -0.69999,0.20064 -2.43923,0.0668 -3.20111,-0.24628 -0.71024,-0.29188 -0.89718,-0.42954 -1.06704,-0.78573 -0.10116,-0.21215 -0.22817,-0.37097 -0.28224,-0.35295 -0.37937,0.12646 -2.35467,3.42011 -2.92734,4.8811 -0.057,0.14552 -0.1637,0.41011 -0.23703,0.58797 -0.0733,0.17786 -0.17569,0.42921 -0.22747,0.55856 -0.0518,0.12935 -0.12362,0.52623 -0.15966,0.88195 -0.036,0.35571 -0.11641,0.99071 -0.17862,1.41111 -0.0622,0.42039 -0.1655,1.13577 -0.22955,1.58973 -0.55647,3.94443 -1.46522,5.91105 -3.92931,8.50339 -2.81533,2.96187 -3.80499,3.85158 -4.48018,4.02774 -0.26448,0.069 -0.6875,0.17899 -0.94005,0.24442 -0.25321,0.0656 -1.69859,0.1139 -3.22238,0.10767 -1.51976,-0.006 -2.92709,0.0385 -3.1274,0.0994 -0.2003,0.0609 -0.60231,0.17901 -0.89335,0.26246 -2.50668,0.71874 -5.99526,3.66364 -7.70972,6.50819 -0.48291,0.80123 -1.10973,2.12154 -1.10973,2.33751 0,0.0973 -0.0468,0.20579 -0.10403,0.24115 -0.0572,0.0354 -0.12813,0.22846 -0.15758,0.4291 l -0.0535,0.3648 0.30457,-0.0622 c 0.16751,-0.0342 0.54269,-0.12121 0.83373,-0.1934 1.80007,-0.4465 2.70875,-0.59506 4.07002,-0.6654 l 1.189,-0.0614 0.14725,-0.66592 c 0.26123,-1.18141 0.60854,-2.17055 1.1462,-3.2644 0.55524,-1.1296 1.50794,-2.44614 1.6891,-2.33418 0.22228,0.13738 0.0924,0.53786 -0.36915,1.13791 -1.73231,2.25231 -2.66529,6.04144 -2.34472,9.52259 0.21229,2.30519 0.71585,4.73804 1.2971,6.2666 0.0492,0.12936 0.15469,0.4204 0.23445,0.64676 0.35675,1.01247 1.13338,2.6301 2.17357,4.52732 1.22455,2.23348 2.52644,5.05807 2.52644,5.48139 0,0.11438 0.0529,0.24067 0.1176,0.28065 0.0647,0.04 0.11759,0.198 0.11759,0.35118 0,0.27617 0.48413,0.76595 0.75712,0.76595 0.0756,0 0.41241,0.13702 0.74849,0.3045 0.40669,0.20266 0.61105,0.37731 0.61105,0.52222 0,0.33328 -0.18987,0.38025 -0.67485,0.16696 -0.74088,-0.32584 -0.89688,-0.38567 -1.32422,-0.50784 -1.70096,-0.48627 -3.2723,-0.49053 -5.29167,-0.0143 -0.88537,0.20878 -1.47875,0.37916 -1.6741,0.4807 -0.1123,0.0584 -0.285,0.10613 -0.38377,0.10613 -0.0988,0 -0.27146,0.0467 -0.38377,0.10387 -0.23124,0.11763 -0.79406,0.3556 -1.14493,0.48409 -0.33987,0.12447 -0.74283,0.29348 -1.41111,0.59187 -2.93591,1.3109 -4.72995,2.01949 -5.87963,2.32226 -1.60611,0.42297 -1.98256,0.50325 -3.99815,0.85252 -0.38805,0.0673 -0.9966,0.17537 -1.35231,0.24028 -0.35572,0.0649 -0.85843,0.14782 -1.11713,0.18425 -0.25871,0.0364 -0.52064,0.11374 -0.58209,0.17179 -0.16392,0.15488 -0.96788,0.12861 -1.2682,-0.0414 -0.14278,-0.0808 -0.6657,-0.55302 -1.16205,-1.04929 -1.05936,-1.05917 -1.48327,-1.20062 -2.61344,-0.87208 -0.96274,0.27988 -2.88406,1.40013 -3.65408,2.13055 -0.74717,0.70875 -2.5458,1.8652 -4.1257,2.65265 -2.04131,1.01744 -3.04662,1.68802 -3.44756,2.29966 -0.57199,0.87258 -0.13833,1.13455 0.88474,0.53447 z m 54.00957,-38.87953 c 0,-0.0932 0.0529,-0.20215 0.1176,-0.24212 0.0647,-0.04 0.11759,0.0363 0.11759,0.16945 0,0.13317 -0.0529,0.24212 -0.11759,0.24212 -0.0647,0 -0.1176,-0.0763 -0.1176,-0.16945 z m 0.33886,-8.20902 c -0.008,-0.0808 -0.008,-0.18484 -10e-4,-0.23111 0.007,-0.0463 -0.0488,-0.23147 -0.12374,-0.41157 -0.075,-0.1801 -0.18062,-1.22704 -0.23479,-2.32653 -0.13219,-2.68301 -0.25677,-13.41907 -0.15867,-13.67367 0.20985,-0.54464 0.27338,0.57096 0.35009,6.14774 0.0454,3.29847 0.10194,6.26181 0.12569,6.58519 0.1072,1.45961 0.18745,4.05694 0.12534,4.05694 -0.0378,0 -0.0749,-0.0661 -0.0826,-0.14699 z m -72.15693,43.97963 c 0.14464,-0.0808 0.4028,-0.27049 0.57369,-0.42143 0.25686,-0.22689 0.51155,-0.29238 1.4699,-0.37798 0.63757,-0.057 1.55288,-0.10543 2.03403,-0.10774 0.48115,-0.002 1.56594,-0.11413 2.41065,-0.24849 2.54039,-0.40408 3.49327,-0.74092 4.19394,-1.48254 1.51849,-1.60724 1.76203,-1.81868 3.09022,-2.6829 1.08065,-0.70315 6.05211,-3.23378 6.35281,-3.23378 0.0345,0 0.3421,-0.12574 0.68357,-0.27943 0.34146,-0.15368 1.15001,-0.50243 1.79677,-0.77501 1.08727,-0.45823 2.67198,-1.24983 3.73356,-1.86502 0.24253,-0.14055 0.63527,-0.36558 0.87275,-0.50007 0.4989,-0.28253 1.83322,-1.17275 1.92007,-1.28102 0.0323,-0.0403 0.24401,-0.20124 0.47037,-0.35764 0.90176,-0.62303 2.84952,-2.56078 3.6625,-3.64366 0.16994,-0.22637 0.42319,-0.54387 0.56278,-0.70556 1.92753,-2.23278 2.38245,-2.64618 2.71571,-2.46782 0.35697,0.19104 10.75862,0.0582 13.10855,-0.16743 0.19403,-0.0186 0.50396,-0.0419 0.68874,-0.0516 0.26706,-0.0141 0.31994,-0.0595 0.25786,-0.22128 -0.15361,-0.4003 -0.73757,-2.80923 -0.86286,-3.55944 -0.35857,-2.14702 -0.40106,-2.66486004 -0.36106,-4.40038004 l 0.0427,-1.85527996 -0.76466,0.0668 c -1.26161,0.11019 -2.41588,0.29747 -3.46929,0.56291 -0.97178,0.24486 -1.32118,0.32959 -2.35185,0.57032 -1.75482,0.40984 -1.97316,0.45726996 -2.64584,0.57467996 -0.35571,0.0621 -1.2553,0.17227 -1.99907,0.24486 -2.51964,0.2459 -3.51163,0.46286 -4.6379,1.01434 -0.64005,0.3134 -1.7121,1.24467004 -1.7121,1.48727004 0,0.0638 -0.33073,0.44297 -0.73495,0.84254 -0.81417,0.8048 -1.52266,1.59185 -1.96968,2.18807 -0.94982,1.26685 -2.38645,2.76121 -3.82176,3.97533 -0.58209,0.49238 -1.08479,0.92411 -1.11713,0.95939 -0.085,0.0927 -0.71744,0.60054 -1.17359,0.94232 -0.2158,0.16169 -0.45013,0.34888 -0.52073,0.41599 -0.20544,0.19527 -4.30335,3.25855 -4.94966,3.69999 -0.32338,0.22087 -0.69055,0.49638 -0.81593,0.61224 -0.12538,0.11587 -0.29294,0.21067 -0.37237,0.21067 -0.0794,0 -0.16206,0.0419 -0.18362,0.0931 -0.0216,0.0512 -0.38315,0.32902 -0.80355,0.61736 -0.42039,0.28833 -0.82249,0.57716 -0.89354,0.64184 -0.0711,0.0647 -1.11185,0.77905 -2.31287,1.5875 -1.20103,0.80845 -2.20904,1.56075 -2.24003,1.67178 -0.0502,0.17986 -0.5127,0.43032 -1.8443,0.99873 -3.48091,1.48589 -6.62677,2.15078 -10.17613,2.15078 -0.99146,0 -1.94764,0.0573 -2.15354,0.1291 -0.48936,0.17059 -0.50228,0.58408 -0.0288,0.92123 0.47124,0.33556 0.57951,0.32846 1.39136,-0.0912 0.14464,-0.0748 0.37302,-0.13595 0.5075,-0.13595 0.13448,0 0.34303,-0.0527 0.46344,-0.11717 0.28849,-0.15439 0.58876,-0.0304 0.58876,0.24321 0,0.25645 -0.33349,0.46192 -0.74969,0.46192 -0.16212,0 -0.32747,0.0529 -0.36744,0.1176 -0.04,0.0647 -0.16484,0.11759 -0.27748,0.11759 -0.30221,0 -0.83768,0.27349 -0.83874,0.42839 -5e-4,0.0739 0.0859,0.16773 0.19204,0.20845 0.22271,0.0855 0.63019,-0.0189 0.63019,-0.16144 0,-0.1033 0.97308,-0.59299 1.17834,-0.59299 0.0674,0 0.15378,0.0813 0.19193,0.18077 0.0849,0.22129 -0.27441,0.64238 -0.54817,0.64238 -0.2238,0 -0.8221,0.50939 -0.8221,0.69994 0,0.23409 0.33875,0.12148 1.04431,-0.34717 0.75477,-0.50133 1.18995,-0.60148 1.18995,-0.27384 0,0.21157 -0.32471,0.62662 -0.49024,0.62662 -0.15035,0 -0.91773,0.51528 -0.91941,0.61736 -0.004,0.23065 0.82374,0.0601 1.32746,-0.27352 0.30035,-0.19894 0.60047,-0.32811 0.66692,-0.28704 0.24637,0.15226 0.10801,0.51288 -0.32014,0.83437 -0.24254,0.18212 -0.47717,0.38431 -0.52141,0.44932 -0.2085,0.30638 0.30262,0.41344 0.75819,0.15882 z m 1.48866,-7.97595 c 0.199,-0.199 0.36183,-0.45951 0.36183,-0.57891 0,-0.38529 0.66318,-0.90772 1.49849,-1.18047 0.68581,-0.22392 1.85191,-0.80743 3.45368,-1.72819 0.23368,-0.13432 0.55118,-0.31535 0.70556,-0.40227 0.15438,-0.0869 0.30715,-0.18683 0.33949,-0.222 0.07,-0.0761 2.09291,-1.06262 2.76342,-1.34761 0.25871,-0.10996 0.57621,-0.24522 0.70556,-0.30059 1.68016,-0.71919 5.86199,-1.63924 7.45071,-1.63924 0.54293,0 1.32118,-0.3057 1.72819,-0.67885 0.12568,-0.11522 0.41371,-0.3386 0.64008,-0.4964 0.22637,-0.15781 0.46934,-0.34158 0.53994,-0.40838 0.0706,-0.0668 0.30631,-0.25376 0.52379,-0.41545 0.38621,-0.28713 3.09886,-2.51368 3.36002,-2.75792 1.14732,-1.07295 1.58012,-1.53199 1.47687,-1.56641 -0.069,-0.023 -0.23084,0.0145 -0.35952,0.0834 -0.12869,0.0689 -0.35276,0.12522 -0.49794,0.12522 -0.14518,0 -0.42647,0.0493 -0.62509,0.10963 -0.19862,0.0603 -0.57279,0.16176 -0.8315,0.22548 -0.2587,0.0637 -0.70849,0.17751 -0.99953,0.25285 -0.29104,0.0754 -0.71438,0.18119 -0.94074,0.23519 -0.22637,0.054 -0.63647,0.15547 -0.91135,0.22548 -0.27487,0.07 -0.72466,0.18458 -0.99953,0.25459 -0.99844,0.25431 -1.29618,0.32448 -3.43959,0.81056 -1.69486,0.38436 -4.40997,0.82604 -5.07789,0.82604 h -0.61532 l -0.32839,-0.41991 c -0.18062,-0.23096 -0.40777,-0.51477 -0.50478,-0.63071 -0.31031,-0.37082 -0.9869,-0.71239 -1.41112,-0.71239 -0.38167,0 -1.02669,0.29966 -1.34553,0.6251 -0.37187,0.37957 -0.94844,1.37591 -1.27096,2.19624 -0.0636,0.16169 -0.16232,0.38587 -0.21945,0.49817 -0.0571,0.11231 -0.10387,0.28429 -0.10387,0.38218 0,0.0979 -0.0404,0.17798 -0.0898,0.17798 -0.0494,0 -0.17638,0.19844 -0.28213,0.44098 -0.39564,0.90738 -1.3177,1.81138 -3.01742,2.9583 -1.30292,0.87918 -2.37264,2.09965 -2.37264,2.707 0,0.12642 -0.0594,0.26656 -0.13204,0.31145 -0.16009,0.0989 -0.0773,1.59637 0.11486,2.07834 0.16428,0.41196 0.26892,0.40633 0.71369,-0.0384 z m 36.80043,-6.87891 c 0.6874,-0.10185 1.67315,-0.32333 2.19056,-0.49218 0.93582,-0.3054 3.257,-1.40817 3.33179,-1.58291 0.0216,-0.0504 0.0898,-0.0916 0.15175,-0.0916 0.14315,0 4.2272,-2.7354 4.16978,-2.79282 -0.0235,-0.0235 -1.09364,0.0142 -2.37811,0.0839 -1.28447,0.0696 -3.97454,0.12261 -5.97794,0.11776 l -3.64255,-0.009 -0.77124,0.80024 c -0.42418,0.44014 -1.00754,1.09048 -1.29634,1.4452 -0.28881,0.35473 -0.63094,0.7749 -0.76029,0.93372 -0.12935,0.15882 -0.42075,0.50359 -0.64754,0.76616 -0.2268,0.26256 -0.51282,0.59645 -0.63559,0.74197 l -0.22323,0.26459 h 2.61957 c 1.77629,0 3.02191,-0.0596 3.86938,-0.18518 z m 26.99552,-6.1739 c 1.51077,-0.26855 2.01436,-0.37145 2.24133,-0.45798 0.77952,-0.2972 2.0413,-0.97913 3.10561,-1.67844 0.67327,-0.44236 1.83743,-1.09735 2.58704,-1.45552 3.83039,-1.83022 5.84203,-2.77156004 7.38483,-3.45571004 0.33696,-0.14942 0.59006,-0.30824 0.56244,-0.35293 -0.0276,-0.0447 -0.54144,-0.11571 -1.14182,-0.15783 -1.15041,-0.0807 -2.42801,-0.22602 -3.79624,-0.43175 -0.45274,-0.0681 -1.16711,-0.17124996 -1.5875,-0.22927996 -2.39483,-0.33054 -2.82125,-0.39086 -3.41019,-0.48241 -0.95631,-0.14865 -1.86532,-0.3146 -2.52824,-0.46158 -0.32338,-0.0717 -0.76043,-0.15972 -0.97123,-0.19562 -0.21079,-0.0359 -0.41236,-0.11233 -0.44791,-0.16986 -0.0817,-0.13222 -0.63873,-0.13822 -0.63873,-0.007 0,0.0538 -0.14516,0.17281 -0.32257,0.26458 -0.66163,0.34226 -1.48245,1.14599 -1.79548,1.75809996 -0.36965,0.7228 -0.46899,1.72290004 -0.46899,4.72157004 v 2.91821 h 0.25751 c 0.14163,0 0.57819,-0.057 0.97014,-0.12667 z m -62.94436,-0.67282 c 0.28038,-0.19481 0.62763,-0.46597 0.77169,-0.60259 0.47425,-0.44978 2.54876,-1.909 3.14827,-2.21451 0.32338,-0.16479 0.77317,-0.31589 0.99953,-0.33577 0.43829,-0.0385 1.36624,-0.20428 2.23426,-0.39917 0.29105,-0.0653 0.71438,-0.14908 0.94074,-0.18607 0.22637,-0.037 0.51741,-0.11235 0.64676,-0.16746 0.12936,-0.0551 0.40717,-0.13027 0.61737,-0.16701 0.21019,-0.0368 0.55415,-0.0969 0.76435,-0.13362 0.21019,-0.0367 0.48801,-0.11252 0.61736,-0.16838 0.12935,-0.0559 0.42039,-0.13414 0.64676,-0.17395 0.22636,-0.0398 0.58404,-0.10219 0.79484,-0.1386 0.21079,-0.0364 0.41235,-0.11328 0.44791,-0.17081 0.0356,-0.0575 0.19132,-0.1046 0.34615,-0.1046 0.15483,0 0.40306,-0.0474 0.55163,-0.10535 0.14856,-0.0579 0.48178,-0.16363 0.74049,-0.23487 2.17886,-0.59997004 6.97769,-2.33106 7.91167,-2.85399 0.21217,-0.11879 0.46352,-0.21598 0.55857,-0.21598 0.0951,0 0.17281,-0.0529 0.17281,-0.11759 0,-0.0647 0.0801,-0.11759 0.17799,-0.11759 0.16322,0 0.62229,-0.21232 0.76275,-0.35278 0.0323,-0.0323 0.27046,-0.16971 0.52917,-0.30527 0.42421,-0.2223 0.73322,-0.39445 1.59573,-0.889 0.1516,-0.0869 0.92079,-0.58821 1.7093,-1.11397 1.97135,-1.31444 2.46683,-1.56411 3.59683,-1.81236 0.42377,-0.0931 0.89847,-0.11445 1.29352,-0.0582 1.18265,0.1685 1.91923,0.28781 2.50554,0.40583 0.32338,0.0651 0.87901,0.17247 1.23472,0.23861 0.35572,0.0661 0.85843,0.1687 1.11713,0.22792 0.25871,0.0592 0.73496,0.16361 1.05834,0.23196 0.32338,0.0683 1.07219,0.25204 1.66403,0.40818 0.59185,0.15615 1.1211,0.25108 1.17612,0.21096 0.055,-0.0401 0.17751,-0.23169 0.27221,-0.42572 0.91836,-1.88174 3.46765,-4.63206 5.46058,-5.89121 0.29702,-0.18766 0.52434,-0.38856 0.50517,-0.44645 -0.0433,-0.13082 -0.99245,-0.41369 -2.58112,-0.76926 -1.32732,-0.29708 -1.77886,-0.42452 -3.61598,-1.02055 -2.10829,-0.68402 -3.33547,-0.99975 -4.7037,-1.21018 -0.48507,-0.0746 -1.17617,-0.18697 -1.53578,-0.24969 -0.35961,-0.0627 -0.83621,-0.11404 -1.05911,-0.11404 -0.2229,0 -0.58837,-0.0525 -0.81215,-0.1167 -0.22378,-0.0642 -1.25531,-0.12689 -2.29228,-0.13935 l -1.8854,-0.0227 -0.80099,0.384 c -0.80663,0.38671 -1.52603,1.0217 -3.08192,2.72028 -1.76781,1.92996 -3.89699,3.37227 -7.87635,5.33547 -4.90975,2.4222 -8.47222,4.11002 -10.70092,5.06985 -1.36005,0.58572 -1.49376,0.63956 -2.76343,1.11268996 -0.54974,0.20485 -1.23766,0.48501 -1.5287,0.62257 -1.31025,0.61927 -5.25208,0.29127 -7.34954,-0.61156 -0.88059,-0.37904996 -2.13731,-1.02815996 -2.29305,-1.18439996 -0.0323,-0.0324 -0.20432,-0.13399 -0.38218,-0.22566 -0.17786,-0.0917 -0.32338,-0.21065 -0.32338,-0.2644 0,-0.0538 -0.0537,-0.0977 -0.1194,-0.0977 -0.13584,0 -1.24867,-0.70628 -1.91137,-1.2131 -0.50529,-0.38644 -0.70301,-0.35737 -0.96086,0.14127 -0.24883,0.48118 -0.15089,0.64981 0.58711,1.01088 0.34923,0.17086 0.75332,0.47937 0.89798,0.68557 0.14467,0.20621 0.75058,0.87763 1.34648,1.49204996 0.5959,0.61442 1.36305,1.48754 1.70479,1.94028004 0.34174,0.45273 0.97176,1.1671 1.40005,1.5875 0.42829,0.42039 1.04941,1.16796 1.38026,1.66126 0.94216,1.40479 1.941,2.15269 2.74991,2.05906 0.23703,-0.0274 0.66037,-0.20928 0.94074,-0.40408 z m 81.53106,-7.64893 c 0.25871,-0.0767 0.84079,-0.18956 1.29352,-0.25091 1.43795,-0.19487 2.31299,-0.34376 4.174539,-0.71028 0.355718,-0.07 0.845529,-0.1567 1.088469,-0.19258 0.24294,-0.0359 0.470959,-0.11257 0.506708,-0.17041 0.03575,-0.0578 0.243962,-0.10517 0.462694,-0.10517 0.218732,0 0.426785,-0.0471 0.46234,-0.1046 0.03556,-0.0575 0.250345,-0.13691 0.477311,-0.17639 0.226965,-0.0395 0.598362,-0.10409 0.825328,-0.14358 0.226965,-0.0395 0.441754,-0.11886 0.47731,-0.17639 0.03555,-0.0575 0.183232,-0.1046 0.328169,-0.1046 0.144938,0 0.313794,-0.0421 0.375236,-0.0936 0.11261,-0.0943 0.491908,-0.22183 1.464028,-0.49212 0.291042,-0.0809 0.661458,-0.19266 0.823148,-0.24833 0.16169,-0.0557 0.558565,-0.1569 0.881945,-0.22497 0.750331,-0.15795 3.04828,-1.29098 3.586574,-1.7684 0.226365,-0.20076 0.527118,-0.44426 0.668338,-0.5411 0.303193,-0.20791 1.096254,-1.22156 1.412644,-1.80556 0.211466,-0.39034 0.321268,-0.71855 0.614337,-1.83633 0.367254,-1.40073 -0.01284,-3.19936 -0.978688,-4.63127 -0.496859,-0.73661 -0.925772,-1.1409 -1.989563,-1.87538 -1.305901,-0.90163 -2.172768,-1.95836 -1.861688,-2.26944 0.110837,-0.11084 0.239424,-0.0287 0.587052,0.37491 l 0.445128,0.51683 1.109785,-0.8813 c 1.077005,-0.85528 3.250512,-2.34762 3.898595,-2.67681 0.410934,-0.20873 0.330752,-0.32338 -0.290584,-0.4155 -0.274534,-0.0407 -1.266444,-0.31311 -2.204245,-0.60535 -0.937801,-0.29224 -1.913752,-0.59288 -2.16878,-0.6681 -0.595685,-0.17568 -1.335449,-0.87772 -1.431627,-1.3586 -0.06804,-0.34021 -0.32315,-0.50811 -0.41734,-0.27467 -0.08446,0.20933 -1.840159,1.29167 -2.483655,1.53111 -0.797468,0.29673 -1.646912,0.32511 -2.245431,0.075 -0.344387,-0.14389 -1.349159,-0.9114 -2.146758,-1.63983 -0.54847,-0.5009 -1.210497,-0.8805 -1.929307,-1.10625 -0.463476,-0.14557 -1.317992,-0.004 -2.694772,0.44723 -0.4179,0.13688 -0.81928,0.22605 -0.89197,0.19816 -0.0847,-0.0325 -0.18323,0.29343 -0.27449,0.9083 -0.0783,0.52745 -0.20149,1.15799 -0.27379,1.40119 -0.0913,0.30706 -0.0946,0.52267 -0.0109,0.70556 0.4051,0.88526 0.53516,2.72308 0.25522,3.60641 -0.1832,0.57808 -0.83293,1.93993 -0.94837,1.98783 -0.052,0.0216 -0.0945,0.10151 -0.0945,0.17767 0,0.0762 -0.18419,0.34956 -0.40932,0.60756 -0.22512,0.258 -0.41033,0.52777 -0.41157,0.5995 -0.001,0.0791 0.37948,0.16045 0.96788,0.20673 0.53358,0.042 1.41993,0.1265 1.96968,0.18783 2.259588,0.25212 2.604203,0.27023 2.857743,0.15024 0.14215,-0.0673 0.443664,-0.18677 0.67003,-0.26556 0.806429,-0.28067 1.126875,-0.47064 1.876021,-1.11213 0.41739,-0.35741 0.856509,-0.64984 0.975819,-0.64984 0.20172,0 0.475598,-0.1194 1.480439,-0.64541 0.31304,-0.16387 0.451184,-0.17915 0.679458,-0.0751 0.497729,0.22678 0.517451,0.76348 0.04795,1.30482 -0.403817,0.4656 -0.313458,0.59166 0.424127,0.59166 0.715622,0 1.541551,0.19902 1.777532,0.42833 0.08085,0.0786 0.146991,0.30224 0.146991,0.49707 0,0.19483 0.05292,0.38694 0.117593,0.42691 0.210471,0.13008 0.125165,0.37065 -0.286044,0.80666 -0.221999,0.23538 -0.437232,0.53383 -0.478294,0.6632 -0.04106,0.12938 -0.146902,0.23523 -0.235199,0.23523 -0.0883,0 -0.197507,0.11907 -0.242689,0.26459 -0.04518,0.14552 -0.181015,0.40501 -0.301853,0.57664 l -0.219705,0.31206 -1.205376,0.082 c -0.70918,0.0483 -1.737858,0.0266 -2.498896,-0.0527 -1.743202,-0.18157 -1.355818,-0.20632 -3.64537,0.23291 -2.184337,0.41905 -3.882047,0.58144 -6.873117,0.65742 l -2.63979,0.0671 -1.24077,0.99694 c -0.68242,0.54831 -1.97055,1.48963 -2.8625,2.09182 l -1.62174,1.0949 1.26896,0.0654 c 2.85388,0.14719 5.06043,0.29756 5.53105,0.37694 0.27772,0.0468 0.56462,0.0348 0.64676,-0.0272 0.15309,-0.11546 0.82872,-0.32568 1.44115,-0.44842 0.19403,-0.0389 0.57767,-0.12077 0.85254,-0.18197 0.27488,-0.0612 0.72467,-0.1613 0.99954,-0.22244 0.27487,-0.0611 0.71144,-0.16455 0.97014,-0.22981 0.2587,-0.0653 0.69527,-0.17398 0.97014,-0.24161 0.27487,-0.0676 0.71143,-0.17589 0.97014,-0.24056 0.2587,-0.0647 0.66881,-0.167 0.91134,-0.22737 0.24253,-0.0604 0.62618,-0.16256 0.852546,-0.22706 0.226365,-0.0645 0.834907,-0.23044 1.352314,-0.36872 1.210539,-0.32354 1.507847,-0.40697 2.293056,-0.64349 0.355718,-0.10715 1.083771,-0.32554 1.617896,-0.48531 l 0.971136,-0.29048 0.20479,-0.42841 c 0.112634,-0.23562 0.264415,-0.44768 0.337292,-0.47125 0.192619,-0.0623 0.29773,0.30046 0.161057,0.55584 -0.06444,0.12041 -0.117171,0.35284 -0.117171,0.51651 0,0.16388 -0.09245,0.34607 -0.205787,0.40552 -0.170352,0.0894 -3.085396,0.94615 -4.909491,1.443 -0.258703,0.0705 -0.591923,0.17552 -0.740487,0.23346 -0.148564,0.0579 -0.396795,0.10535 -0.551624,0.10535 -0.15483,0 -0.3106,0.0471 -0.346155,0.1046 -0.06102,0.0987 -0.358823,0.16811 -1.390482,0.32391 -0.24294,0.0367 -0.47096,0.11403 -0.50671,0.17187 -0.0357,0.0578 -0.19167,0.10517 -0.3465,0.10517 -0.15483,0 -0.40306,0.0479 -0.55163,0.10638 -0.14856,0.0585 -0.58761,0.17001 -0.97567,0.24777 -0.38806,0.0778 -0.83785,0.18299 -0.99954,0.23382 -0.16169,0.0508 -0.61148,0.15715 -0.99953,0.23628 -0.38806,0.0791 -1.06309,0.25101 -1.50008,0.38198 -0.85324,0.25572 -0.65598,0.25687 -5.2027,-0.0303 -4.92691,-0.31123 -7.9229,-0.58598 -10.28935,-0.94359 -2.01907,-0.30512 -2.46945,-0.41432 -2.46945,-0.59878 0,-0.0571 -0.0566,-0.10388 -0.1258,-0.10388 -0.0692,0 -0.34701,-0.14714 -0.61736,-0.32698 -0.88559,-0.58908 -1.50013,-0.80501 -2.54943,-0.89578 -0.42039,-0.0364 -0.96279,-0.10055 -1.20533,-0.14263 -0.33787,-0.0586 -0.44097,-0.0376 -0.44097,0.0899 0,0.35446 0.92883,0.72014 2.29306,0.90277 l 0.58796,0.0787 v 0.29382 c 0,0.23421 -0.11467,0.35001 -0.56512,0.5707 -0.68173,0.334 -1.72497,0.59549 -2.39856,0.6012 -0.57699,0.005 -0.91467,-0.12649 -1.79882,-0.69986 -0.80645,-0.52298 -1.27639,-0.76339 -1.34943,-0.69035 -0.0972,0.0972 0.29621,0.57125 0.47415,0.57125 0.0934,0 0.16973,0.0529 0.16973,0.11759 0,0.0647 0.059,0.1176 0.13108,0.1176 0.1826,0 1.46442,0.95379 1.62536,1.20941 0.0759,0.12057 0.0909,0.28355 0.0353,0.38299 -0.0804,0.1436 -0.17617,0.11507 -0.56211,-0.16739 -0.25589,-0.18727 -0.66368,-0.45222 -0.90622,-0.58877 -0.24253,-0.13656 -0.62618,-0.35411 -0.85254,-0.48347 -0.22637,-0.12935 -0.5984,-0.34102 -0.82673,-0.47037 -0.44711,-0.25329 -0.87837,-0.30959 -0.87837,-0.11468 0,0.0663 0.12543,0.16819 0.27874,0.22648 0.15331,0.0583 0.66924,0.43499 1.14653,0.83712 0.47728,0.40214 1.15059,0.86201 1.49624,1.02195 0.5458,0.25255 0.62133,0.32802 0.57433,0.57388 -0.0298,0.1557 -0.008,0.31141 0.0477,0.34602 0.056,0.0346 0.10183,0.16564 0.10183,0.29117 0,0.19778 -0.0848,0.22825 -0.6355,0.22825 -0.36555,0 -0.99987,-0.12328 -1.49328,-0.29021 -0.47178,-0.15962 -0.87497,-0.27302 -0.89597,-0.25202 -0.11703,0.11703 0.14506,0.40922 0.41622,0.46401 0.17351,0.0351 0.5536,0.12322 0.84464,0.19592 1.85899,0.46431 3.41812,0.42579 4.88009,-0.12059 0.64722,-0.24189 2.18146,-0.58507 2.61559,-0.58507 0.18479,0 0.39247,-0.0565 0.46151,-0.12553 0.089,-0.089 0.29272,-0.0513 0.69967,0.12931 0.87105,0.38661 1.00628,0.43952 1.5149,0.5927 0.2587,0.0779 0.5762,0.18326 0.70555,0.2341 0.12935,0.0508 0.39394,0.12525 0.58797,0.16536 0.19402,0.0401 0.56444,0.12636 0.82314,0.19167 1.42809,0.36057 2.82549,0.6028 5.35047,0.92749 0.42039,0.0541 1.18768,0.15947 1.70509,0.23423 1.88169,0.27191 2.49213,0.34972 3.70417,0.47214 0.67909,0.0686 1.31409,0.14503 1.41111,0.16988 0.37619,0.0964 3.02311,-0.0188 3.46898,-0.15089 z m -27.34125,-3.19149 c -0.0965,-0.054 -0.38113,-0.26172 -0.63255,-0.46156 -0.25143,-0.19983 -0.52763,-0.36334 -0.61379,-0.36334 -0.0862,0 -0.34507,-0.10583 -0.57537,-0.23518 -0.43515,-0.24441 -0.88194,-0.31106 -0.88194,-0.13155 0,0.13731 0.6721,0.64456 1.26017,0.95108 0.66166,0.34487 2.04011,0.57458 1.44348,0.24055 z m -1.05736,-3.35314 c 0,-0.0323 -0.0265,-0.0588 -0.0588,-0.0588 -0.0323,0 -0.0588,0.0265 -0.0588,0.0588 0,0.0323 0.0265,0.0588 0.0588,0.0588 0.0323,0 0.0588,-0.0265 0.0588,-0.0588 z m 39.831871,-5.55387 c -0.243978,-0.0255 -0.614394,-0.025 -0.823149,9.4e-4 -0.208754,0.026 -0.0091,0.0468 0.443596,0.0463 0.452731,-5.2e-4 0.62353,-0.0218 0.379553,-0.0472 z m 1.002159,-0.10966 c -0.08084,-0.0326 -0.213136,-0.0326 -0.293981,0 -0.08085,0.0326 -0.0147,0.0593 0.146991,0.0593 0.16169,0 0.227835,-0.0267 0.14699,-0.0593 z m 0.676158,-0.80406 c 0,-0.0323 -0.02646,-0.0588 -0.0588,-0.0588 -0.03234,0 -0.0588,0.0265 -0.0588,0.0588 0,0.0323 0.02646,0.0588 0.0588,0.0588 0.03234,0 0.0588,-0.0265 0.0588,-0.0588 z m 12.066653,-7.9081 c -0.0091,-0.29921 0.0346,-0.43127 0.135936,-0.41079 0.08214,0.0166 0.416912,-0.1054 0.743933,-0.27112 0.492324,-0.24948 0.570338,-0.33051 0.453613,-0.47115 -0.187744,-0.22622 -0.04643,-0.38807 1.040913,-1.1922 0.474779,-0.35112 1.025952,-0.79389 1.22483,-0.98395 0.198877,-0.19006 0.433122,-0.34556 0.520544,-0.34556 0.08742,0 0.158948,-0.04 0.158948,-0.0889 0,-0.0489 0.145521,-0.15375 0.32338,-0.23302 0.365375,-0.16285 1.218135,-0.93634 1.484529,-1.34653 0.136731,-0.21054 0.151457,-0.37792 0.06531,-0.74221 -1.011848,-4.27863 -1.477825,-5.51419 -2.314922,-6.13812 -0.24213,-0.18048 -0.466695,-0.35561 -0.499033,-0.38919 -0.03234,-0.0336 -0.323379,-0.19247 -0.646759,-0.3531 -0.32338,-0.16062 -0.879005,-0.51069 -1.234722,-0.77793 -0.355718,-0.26723 -0.921911,-0.61852 -1.258207,-0.78063 l -0.611448,-0.29474 -0.747886,0.26133 c -1.098241,0.38375 -2.322428,1.07578 -2.791718,1.57814 -0.507596,0.54336 -1.249524,1.04579 -2.175463,1.47321 -1.353829,0.62493 -1.747996,1.17533 -3.08225,4.3039 -0.532163,1.24782 -0.621917,1.65047 -0.621917,2.79006 0,1.72099 0.486243,2.3585 2.116667,2.77512 0.420393,0.10743 1.26706,0.33009 1.881481,0.49481 2.376209,0.63704 4.610287,0.83938 5.108355,0.46266 0.285808,-0.21618 0.376347,-0.21692 0.458142,-0.004 0.03564,0.0929 -0.03807,0.29967 -0.163808,0.45952 -0.334864,0.42571 -0.295926,0.66511 0.108178,0.66511 h 0.336792 z m -6.242446,-3.85367 c -0.942746,-0.47433 -0.885318,-0.45923 -0.885318,-0.23268 0,0.33977 -0.226222,0.17178 -0.450045,-0.33421 -0.124225,-0.28083 -0.391907,-0.62884 -0.594848,-0.77335 -0.365971,-0.26059 -0.407255,-0.53343 -0.06059,-0.4004 0.154639,0.0593 0.176759,-0.072 0.154351,-0.91648 -0.02948,-1.11112 0.08842,-1.25432 0.685866,-0.83298 0.178232,0.12569 0.558933,0.3412 0.846001,0.4789 0.44999,0.21585 0.567516,0.23019 0.852546,0.10403 0.393539,-0.1742 0.402727,-0.2224 0.09542,-0.50051 -0.351844,-0.31841 -0.321302,-1.03365 0.05466,-1.27999 0.159415,-0.10445 0.391491,-0.18991 0.515725,-0.18991 0.26567,0 0.899524,0.30957 0.899524,0.43932 0,0.0494 -0.286933,0.1163 -0.637629,0.14864 -0.383573,0.0354 -0.649466,0.11853 -0.667338,0.20873 -0.01634,0.0825 -0.0028,0.0957 0.03007,0.0294 0.09696,-0.19551 0.575948,-0.13793 0.786304,0.0945 0.216174,0.23887 0.258718,0.67219 0.07702,0.78449 -0.25376,0.15683 -0.114663,0.41157 0.224732,0.41157 0.234968,0 0.434171,0.10915 0.635196,0.34806 l 0.292871,0.34806 0.07981,-0.31801 c 0.145218,-0.57859 0.531277,-0.8419 0.531277,-0.36235 0,0.49484 -0.268902,1.13847 -0.535185,1.28098 -0.381604,0.20423 -0.856779,0.0492 -1.088906,-0.35526 -0.160677,-0.27996 -0.251769,-0.33027 -0.491877,-0.27165 -0.373773,0.0913 -0.474028,0.24573 -0.360233,0.55508 0.100926,0.27436 0.02471,1.72635 -0.0976,1.85939 -0.04333,0.0471 -0.444642,-0.0984 -0.891812,-0.32338 z m 0.173015,-0.56247 c 0,-0.0844 -0.19044,-0.36133 -0.4232,-0.61544 -0.232759,-0.25411 -0.523045,-0.65774 -0.645078,-0.89695 -0.312325,-0.6122 -0.460426,-0.66302 -0.460426,-0.15799 0,0.70293 0.373529,1.25067 1.117392,1.63853 0.426502,0.22238 0.411312,0.22121 0.411312,0.0318 z m 0.470032,-0.46396 c -2.59e-4,-0.29351 -0.08202,-0.43673 -0.352439,-0.61736 -0.193656,-0.12935 -0.352254,-0.31039 -0.35244,-0.40231 -3.9e-4,-0.1925 -0.33757,-0.59722 -0.497556,-0.59722 -0.19853,0 -0.03676,0.33992 0.556014,1.16831 0.32338,0.45191 0.601192,0.82371 0.617361,0.82621 0.01617,0.002 0.02925,-0.16743 0.02906,-0.37763 z m 0.441311,-1.21974 c 0.347624,-0.34332 0.04057,-0.60259 -0.47949,-0.40486 -0.331648,0.12609 -0.402,0.3433 -0.182339,0.56296 0.14237,0.14237 0.42626,0.0745 0.661829,-0.1581 z m 6.61872,1.13928 c -0.06695,-0.1251 -0.12173,-0.43317 -0.12173,-0.68461 0,-0.81884 -0.323249,-1.51331 -0.966174,-2.07573 -0.579822,-0.50721 -0.653384,-0.77517 -0.212806,-0.77517 0.260464,0 1.068606,0.88708 1.368529,1.5022 0.246426,0.5054 0.386045,2.26076 0.179818,2.26076 -0.06925,0 -0.180685,-0.10235 -0.247637,-0.22745 z m -0.964797,-0.23278 c -0.894469,-0.44709 -1.507675,-1.31571 -1.508345,-2.1366 -2.42e-4,-0.29643 0.03438,-0.57379 0.07693,-0.61634 0.144387,-0.14439 0.386471,0.17757 0.457576,0.60856 0.15382,0.93233 0.318081,1.18807 1.19954,1.86755 0.357814,0.27583 0.495019,0.50787 0.293982,0.49719 -0.04851,-0.003 -0.282367,-0.10174 -0.519688,-0.22036 z m -3.225632,-4.69662 c -0.63903,-0.46757 -0.824399,-0.70215 -1.035763,-1.31074 -0.202453,-0.58292 -0.237875,-0.94074 -0.09313,-0.94074 0.182751,0 0.376296,0.28562 0.376296,0.55531 0,0.33632 0.816247,1.24607 1.296473,1.44499 0.212478,0.088 0.349823,0.23164 0.349823,0.36582 0,0.32239 -0.359418,0.27628 -0.893699,-0.11464 z m 1.292999,-0.3406 c -0.03503,-0.11318 -0.112744,-0.29767 -0.172699,-0.40998 -0.05995,-0.1123 -0.109008,-0.26606 -0.109008,-0.34168 0,-0.42986 -1.016465,-1.27681 -1.532372,-1.27681 -0.26041,0 -0.539634,-0.32795 -0.397042,-0.46632 0.133539,-0.12959 1.073525,0.10407 1.464614,0.36408 0.648976,0.43146 1.467059,2.3365 1.003363,2.3365 -0.106242,0 -0.221827,-0.0926 -0.256856,-0.20579 z m 3.88748,9.54951 0.229835,-0.1738 -0.204689,-0.20464 c -0.179119,-0.17907 -0.218624,-0.1826 -0.31623,-0.0283 -0.133515,0.21114 -0.150965,0.58948 -0.02695,0.58423 0.04851,-0.002 0.191621,-0.082 0.31803,-0.17754 z m 2.707087,-0.5769 c 0.681773,-0.19846 2.412318,-0.96205 2.531134,-1.11684 0.03234,-0.0421 0.244004,-0.20382 0.47037,-0.35933 0.400939,-0.27543 0.823148,-0.68456 0.823148,-0.79764 0,-0.0309 -0.188927,-0.0255 -0.419837,0.0119 -0.5592,0.0907 -0.820265,-0.0241 -1.553292,-0.68313 l -0.617311,-0.55501 -0.451777,0.46553 c -0.490079,0.50499 -1.450857,1.20562 -1.653276,1.20562 -0.06919,0 -0.125804,0.0415 -0.125804,0.0922 0,0.0507 -0.14552,0.18213 -0.323379,0.29199 -0.177859,0.10987 -0.49971,0.36254 -0.715224,0.5615 l -0.391845,0.36175 0.238855,0.50814 0.238855,0.50815 0.62336,-0.14518 c 0.342848,-0.0799 0.939558,-0.23722 1.326023,-0.34973 z m -29.46302,-2.94599 c -0.22812,-0.76504 -0.62891,-1.5857 -0.75538,-1.54674 -0.18146,0.0559 -0.20994,0.88254 -0.0573,1.66433 0.15896,0.81432 0.28223,1.19729 0.63026,1.95798 l 0.25021,0.54687 0.0363,-1.07604 c 0.0204,-0.60586 -0.025,-1.28155 -0.10401,-1.5464 z m 0.553,-0.46596 c -0.0661,-0.88203 -0.12319,-1.27638 -0.42644,-2.94422 -0.0647,-0.35572 -0.17261,-0.95103 -0.23986,-1.32292 -0.59725,-3.30285 -0.55871,-5.08263 0.14578,-6.73218 0.29647,-0.69419 0.37683,-0.82315 0.51295,-0.82315 0.19378,0 0.28669,-0.27497 0.28669,-0.84852 0,-0.59322 0.20024,-1.29524 0.55265,-1.93753 0.35975,-0.65567 0.3456,-0.68364 -0.16888,-0.33404 -0.44287,0.30093 -1.52317,0.73328 -2.50044,1.00071 -0.29104,0.0796 -0.65072,0.19221 -0.79928,0.25015 -0.14857,0.0579 -0.37418,0.10535 -0.50137,0.10535 -0.12718,0 -0.32313,0.047 -0.43544,0.10447 -0.1123,0.0575 -0.73335,0.27151 -1.38011,0.47565 -1.25432,0.39591 -1.32836,0.4234 -2.23426,0.82972 -1.0846,0.48646 -1.99408,0.97371 -2.66784,1.42928 -0.73633,0.49788 -2.09466,1.71331 -2.09466,1.87431 0,0.27459 1.30507,-0.19431 2.30397,-0.82779 0.70233,-0.4454 1.10621,-0.47394 1.10621,-0.0782 0,0.20592 -0.10082,0.31992 -0.38217,0.43211 -0.2102,0.0838 -0.51447,0.24279 -0.67616,0.35327 -0.57986,0.39624 -1.18693,0.6988 -1.40211,0.6988 -0.12046,0 -0.24948,0.0794 -0.28671,0.17638 -0.0479,0.12485 0.0103,0.17639 0.19908,0.17639 0.14673,0 0.33015,0.0634 0.4076,0.14082 0.20234,0.20234 2.78247,0.19664 3.3164,-0.007 1.28256,-0.48995 1.49731,-0.59717 2.41864,-1.20749 0.45713,-0.30282 1.0561,-0.80682 1.33104,-1.12 l 0.49989,-0.56942 -0.0929,0.70555 c -0.0511,0.38806 -0.0896,1.28764 -0.0855,1.99908 0.01,1.74746 0.34888,2.74746 1.77846,5.24615 0.1337,0.23368 0.3142,0.55118 0.40113,0.70556 0.0869,0.15438 0.18522,0.30715 0.21843,0.33949 0.10113,0.0985 0.54503,1.09094 0.68748,1.53705 0.0738,0.23096 0.14022,0.68075 0.14772,0.99954 0.007,0.31879 0.04,0.47576 0.0722,0.34884 0.0322,-0.12693 0.0267,-0.6561 -0.0122,-1.17593 z m 33.442281,0.0968 c 0.275374,-0.36473 0.547345,-0.87084 0.60438,-1.12468 0.189327,-0.84263 0.149219,-2.1302 -0.107312,-3.44504 -0.138804,-0.71144 -0.285549,-1.69938 -0.326099,-2.19544 -0.08732,-1.06819 -0.387276,-1.61762 -1.174961,-2.15219 -0.283226,-0.19221 -0.576344,-0.46418 -0.651373,-0.60437 -0.213058,-0.3981 -0.623083,-0.51609 -1.791805,-0.51562 -0.874666,3.6e-4 -1.156165,0.0455 -1.467905,0.2356 l -0.385706,0.23517 -0.07398,-0.19279 c -0.193249,-0.5036 0.527819,-0.90733 1.639107,-0.91774 0.436542,-0.004 0.79373,-0.0435 0.79375,-0.0876 7.6e-5,-0.16869 -0.671419,-0.53443 -1.234687,-0.67249 -0.323379,-0.0793 -0.773171,-0.1895 -0.999537,-0.24498 -0.226366,-0.0555 -0.62667,-0.15715 -0.889566,-0.22595 -0.262896,-0.0688 -1.356071,-0.12946 -2.429278,-0.13479 l -1.951286,-0.01 -0.49402,0.25203 c -0.271711,0.13862 -0.661863,0.41998 -0.867005,0.62525 -0.424254,0.42451 -1.182618,1.49034 -1.060416,1.49034 0.04446,0 0.324815,-0.14881 0.62301,-0.33069 1.648794,-1.00567 2.714778,-0.9706 4.159162,0.13683 0.602571,0.462 0.792733,0.52484 0.792733,0.26194 0,-0.25106 1.026753,-1.22766 1.497504,-1.42435 0.503598,-0.21041 1.009829,-0.22731 0.944566,-0.0315 -0.02583,0.0775 -0.404974,0.32886 -0.84253,0.55857 -0.437556,0.2297 -0.909263,0.57639 -1.048238,0.77042 -0.138975,0.19403 -0.29294,0.37026 -0.342146,0.39163 -0.140613,0.0611 0.152303,0.28993 0.772457,0.60357 1.591821,0.80507 2.343728,2.58876 3.21151,7.61841 0.0901,0.52222 1.21306,1.55815 1.689043,1.55815 0.184999,0 0.369066,0.0529 0.409038,0.11759 0.17058,0.27601 0.5285,0.0811 1.00159,-0.54555 z m -49.045381,-4.00376 c 0.004,-0.0768 0.28009,-0.68531 0.6136,-1.35231 0.70444,-1.40882 1.71397,-2.93327 2.58049,-3.89669 0.6788,-0.75472 2.42395,-2.19613 2.65889,-2.19613 0.0833,0 0.15187,-0.0397 0.15238,-0.0882 5e-4,-0.0485 0.11956,-0.14645 0.26458,-0.21765 0.14502,-0.0712 0.47533,-0.23693 0.73404,-0.36828 0.95958,-0.48721 1.88702,-0.8837 2.58703,-1.106 0.25871,-0.0822 0.52064,-0.19149 0.58209,-0.24296 0.0614,-0.0515 0.22283,-0.0936 0.35865,-0.0936 0.13582,0 0.29722,-0.0433 0.35866,-0.0961 0.0614,-0.0529 0.40276,-0.16402 0.75847,-0.247 2.08084,-0.4854 3.67704,-1.04079 4.40973,-1.53435 0.38345,-0.2583 0.76435,-0.31433 0.76435,-0.11243 0,0.0697 0.21118,-0.054 0.46929,-0.27494 0.6256,-0.53549 1.43275,-0.9399 1.778391,-0.89102 0.470857,0.0666 0.314785,0.37492 -0.366201,0.7235 -1.62434,0.83145 -2.47289,2.30699 -2.46718,4.29019 0.002,0.71268 0.31497,2.29769 0.34,1.72219 0.0211,-0.48432 0.49808,-1.65335 0.89673,-2.19763 0.94404,-1.28891 3.040228,-2.32885 4.675769,-2.3197 0.336393,0.002 0.982041,0.10618 1.434772,0.23177 0.972394,0.26973 1.633199,0.28612 2.56454,0.0636 1.133125,-0.27073 1.651245,-0.70965 1.549418,-1.31258 -0.05065,-0.29991 -0.0078,-0.40255 0.234482,-0.56128 0.261898,-0.1716 0.296468,-0.27582 0.296468,-0.89374 0,-1.36643 -0.857352,-2.60478 -2.356632,-3.40389 -0.75129,-0.40043 -1.101349,-0.47346 -0.737835,-0.15393 0.498298,0.43801 1.780105,2.13882 2.091346,2.77497 0.365134,0.74631 0.549075,1.78718 0.301227,1.70457 -0.0814,-0.0271 -0.227399,-0.28421 -0.324437,-0.57127 -0.324315,-0.95942 -1.431443,-2.50208 -2.535091,-3.53237 -0.512238,-0.4782 -1.423174,-1.01665 -2.346987,-1.38732 -0.876495,-0.35168 -3.52434,-0.22943 -4.61613,0.21312 -0.12935,0.0524 -0.47331,0.16522 -0.76435,0.25064 -1.4827,0.43515 -4.477,1.85005 -5.70894,2.69765 -0.27888,0.19187 -0.55925,0.34885 -0.62305,0.34885 -0.0638,0 -0.13364,0.0416 -0.1552,0.0925 -0.0454,0.10721 -1.05077,0.71393 -1.5679,0.94622 -0.19403,0.0871 -0.44467,0.20658 -0.55697,0.2654 -0.11231,0.0588 -0.31515,0.10694 -0.45077,0.10694 -0.1449,0 -0.22646,0.0606 -0.19778,0.14699 0.0347,0.10442 0.47175,0.15734 1.50911,0.18274 1.34386,0.0329 1.88022,-0.0345 2.63622,-0.33127 0.12935,-0.0508 0.4204,-0.15592 0.64676,-0.23365 0.39769,-0.13656 0.64556,-0.23147 1.20533,-0.46151 0.64564,-0.26534 1.68991,-0.4113 1.78952,-0.25013 0.15327,0.248 -0.1868,0.47646 -0.70925,0.47646 -0.27931,0 -0.54053,0.0529 -0.58051,0.11759 -0.04,0.0647 -0.1761,0.11759 -0.30251,0.11759 -0.12642,0 -0.32173,0.0467 -0.43403,0.10388 -1.36243,0.69307 -3.38142,1.14647 -4.56516,1.02519 -0.47601,-0.0488 -0.75431,-0.0339 -0.75431,0.0403 0,0.0647 -0.56886,0.40262 -1.26412,0.75099 -1.92134,0.96271 -2.98001,1.734 -4.3853,3.19491 -1.02766,1.06832 -1.22926,1.31988 -2.07335,2.58704 -1.47578,2.21545 -2.50779,4.55138 -2.50779,5.67633 0,0.25983 0.061,0.1968 0.35151,-0.36309 0.19332,-0.37262 0.5698,-0.99895 0.8366,-1.39183 0.26681,-0.39289 0.75023,-1.22427 1.07427,-1.84751 0.32404,-0.62324 0.74928,-1.37129 0.94498,-1.66233 0.86005,-1.2791 2.68388,-3.175 3.0543,-3.175 0.37912,0 0.2162,0.43326 -0.35263,0.93775 -0.48959,0.43421 -1.20165,1.20527 -1.96968,2.13286 -0.12935,0.15622 -0.31027,0.42883 -0.40204,0.60579 -0.0918,0.17696 -0.21084,0.32175 -0.26459,0.32175 -0.0537,0 -0.0989,0.0661 -0.10033,0.14699 -10e-4,0.0809 -0.1061,0.27928 -0.23257,0.44097 -0.12648,0.16169 -0.23114,0.38498 -0.23258,0.49619 -0.001,0.11122 -0.11709,0.40226 -0.25701,0.64676 -0.63786,1.11466 -0.75233,1.49193 -0.86625,2.8552 l -0.0541,0.64676 0.28615,-0.58796 c 0.15738,-0.32338 0.2894,-0.65078 0.29337,-0.72755 z m 20.508971,0.52563 c 0.204012,-0.14339 0.440856,-0.3286 0.526321,-0.41157 0.140919,-0.13681 0.401084,-0.20319 0.641632,-0.1637 0.181254,0.0298 0.230545,-0.36182 0.08077,-0.64168 -0.08415,-0.15723 -0.121732,-0.31713 -0.08352,-0.35534 0.03821,-0.0382 0.377837,-0.0905 0.75473,-0.11617 0.51491,-0.0351 0.735623,-0.10782 0.887852,-0.29256 l 0.202593,-0.24587 -0.247112,-0.33424 c -0.170259,-0.23029 -0.224096,-0.42595 -0.173105,-0.62911 0.119282,-0.47526 1.249754,-0.91704 1.249754,-0.4884 0,0.097 -0.0926,0.17808 -0.205787,0.18013 -0.239113,0.004 -0.617361,0.26577 -0.617361,0.42668 0,0.0608 0.182576,0.11051 0.405725,0.11051 0.223149,0 0.50433,0.0892 0.624846,0.1983 0.258159,0.23363 0.498133,0.0758 0.498133,-0.32765 0,-0.13582 0.04804,-0.29722 0.106752,-0.35866 0.10395,-0.10878 0.225063,-0.92465 0.278427,-1.8756 0.02254,-0.40163 -0.01053,-0.47563 -0.226248,-0.50638 -0.383588,-0.0547 -1.187045,-0.79659 -1.033898,-0.95471 0.0895,-0.0924 0.255024,-0.0299 0.587963,0.222 0.52104,0.39422 1.041066,0.45612 1.365476,0.16253 0.306197,-0.2771 0.267283,-0.53449 -0.139772,-0.92447 -0.300545,-0.28794 -0.472262,-0.34742 -1.12264,-0.38883 l -0.767822,-0.0489 0.200125,-0.22113 c 0.361185,-0.39911 1.47527,-0.19792 1.977573,0.35712 0.319159,0.35266 0.502823,0.30438 0.760043,-0.19981 0.354463,-0.69481 0.668761,-2.84528 0.395271,-2.7045 -0.828813,0.42663 -1.116167,0.49746 -2.189161,0.53955 -0.705528,0.0277 -1.363778,-0.0115 -1.679618,-0.0999 -0.285665,-0.08 -0.954188,-0.14906 -1.485607,-0.15351 -1.44724,-0.0121 -2.718744,0.50974 -3.938926,1.61662 -0.50377,0.45699 -1.09851,1.67753 -1.16388,2.3885 -0.10773,1.17172 -0.22573,1.33574 -0.57619,0.80088 -0.25096,-0.38302 -0.41363,-1.0062 -0.50472,-1.93364 l -0.0742,-0.75505 -0.14699,0.31408 c -0.55137,1.17813 -0.70772,2.10995 -0.63758,3.79972 0.0167,0.40268 0.0674,0.49885 0.29251,0.55536 0.54834,0.13762 1.48065,1.07099 1.95071,1.95291 0.39273,0.73684 0.57996,0.90864 1.53996,1.41305 0.786255,0.41312 1.199544,0.43601 1.686938,0.0934 z m 1.919233,-0.87601 c -0.04312,-0.0431 -0.0784,-0.008 -0.0784,0.0784 0,0.0862 0.03528,0.12151 0.0784,0.0784 0.04312,-0.0431 0.04312,-0.11367 0,-0.15679 z"
       id="path13" /></g></svg>
