<?xml version="1.0" encoding="UTF-8" standalone="no"?>
<!-- Created with Inkscape (http://www.inkscape.org/) -->

<svg
   width="105.18473mm"
   height="138.18216mm"
   viewBox="0 0 105.18474 138.18216"
   version="1.1"
   id="svg1"
   xml:space="preserve"
   xmlns="http://www.w3.org/2000/svg"
   xmlns:svg="http://www.w3.org/2000/svg"><defs
     id="defs1" /><g
     id="layer1"
     transform="translate(188.98672,-811.60727)"><path
       style="fill:#4d4d4d"
       d="m -146.19778,949.60802 c -0.0351,-0.0915 -0.0467,-0.31072 -0.0257,-0.48704 0.048,-0.40281 0.33381,-0.46149 2.25421,-0.46273 l 1.39289,-9.1e-4 -0.0717,-6.23241 c -0.0394,-3.42782 -0.097,-10.22761 -0.12802,-15.11064 -0.031,-4.88304 -0.10973,-11.15366 -0.175,-13.93473 -0.0653,-2.78106 -0.11853,-6.23387 -0.11835,-7.67291 l 3.2e-4,-2.61644 h -1.54347 -1.54347 l 0.0727,6.14422 c 0.0927,7.83888 0.11117,38.30828 0.0233,38.39618 -0.0365,0.0365 -0.0866,0.0443 -0.11128,0.0174 -0.0247,-0.0269 -0.0766,-5.73754 -0.1153,-12.69021 -0.0387,-6.95266 -0.10645,-16.9656 -0.15051,-22.25098 l -0.0801,-9.60978 -3.42057,-0.0328 c -1.88131,-0.018 -3.44703,-0.0123 -3.47937,0.0127 -0.0323,0.025 0.007,0.0691 0.0882,0.098 0.0808,0.0289 0.14699,0.1544 0.14699,0.27895 0,0.27728 -0.60239,0.92987 -0.85834,0.92987 -0.10236,0 -0.21882,0.0529 -0.25879,0.11759 -0.11131,0.1801 -1.20361,0.13972 -1.58726,-0.0587 -0.18747,-0.0969 -0.47051,-0.3483 -0.62898,-0.55856 l -0.28811,-0.3823 -0.0117,-3.19992 c -0.0124,-3.39132 0.0676,-4.14488 0.492,-4.63724 0.29613,-0.34354 0.95656,-0.69333 1.73004,-0.91628 0.29104,-0.0839 0.59959,-0.17274 0.68567,-0.19743 0.0949,-0.0272 -0.10022,-0.27953 -0.49565,-0.64093 -0.70322,-0.6427 -1.2804,-1.38552 -1.72983,-2.22626 -0.15558,-0.29104 -0.32257,-0.5468 -0.37107,-0.56836 -0.0485,-0.0216 -0.0882,-0.12064 -0.0882,-0.22019 0,-0.14754 -0.0326,-0.15394 -0.17639,-0.0346 -0.097,0.0805 -0.17638,0.22001 -0.17638,0.30998 0,0.09 -0.0478,0.25547 -0.10614,0.36778 -0.11622,0.2236 -0.38242,1.15177 -0.69934,2.43845 -0.42729,1.73474 -0.82819,3.0212 -1.48414,4.7625 -0.55776,1.48061 -1.18136,3.28645 -1.36038,3.93935 -0.37785,1.37809 -0.65335,2.48613 -0.94292,3.79236 -0.0609,0.27487 -0.16713,0.75112 -0.23599,1.05833 -0.0688,0.30721 -0.15365,0.77023 -0.18843,1.02894 -0.0348,0.2587 -0.11073,0.52064 -0.16878,0.58208 -0.0581,0.0614 -0.10555,0.2429 -0.10555,0.40323 0,0.16033 -0.0493,0.45402 -0.10963,0.65264 -0.0603,0.19862 -0.16176,0.57279 -0.22548,0.83149 -0.47955,1.94692 -0.8661,3.01839 -1.35509,3.75612 -3.03453,4.57821 -5.2172,7.99174 -5.71886,8.94388 -0.95532,1.8132 -1.65479,3.24899 -2.14825,4.40972 -0.0962,0.22637 -0.25517,0.59679 -0.35319,0.82315 -0.98367,2.27176 -2.05405,5.26018 -2.31653,6.4676 -0.0773,0.35571 -0.18892,0.8381 -0.24799,1.07197 -0.2883,1.14154 -0.0407,2.77633 0.55748,3.68019 0.56089,0.84756 1.01361,1.20169 2.58721,2.02377 0.57203,0.29884 1.20124,0.6404 1.39826,0.75904 0.19701,0.11863 0.59389,0.25175 0.88194,0.29583 0.92767,0.14195 1.27812,0.4369 1.28435,1.08097 0.009,0.95604 -1.0706,1.55634 -2.18357,1.21387 -0.18751,-0.0577 -0.65843,-0.16961 -1.04648,-0.24869 -0.38806,-0.0791 -0.86431,-0.18454 -1.05834,-0.23436 -0.19403,-0.0498 -0.67028,-0.15759 -1.05833,-0.23949 -0.60785,-0.12829 -3.64191,-0.88021 -4.7037,-1.1657 -0.19403,-0.0522 -0.7485,-0.23035 -1.23215,-0.39595 -0.48365,-0.16559 -0.89405,-0.2864 -0.91201,-0.26845 -0.018,0.018 0.40336,0.39835 0.93623,0.84533 1.28638,1.07901 2.97968,2.81647 3.15323,3.23546 0.2879,0.69507 -0.19514,1.39898 -0.96002,1.39898 -0.33682,0 -0.45779,0.0552 -0.51483,0.23491 -0.0691,0.21763 -0.45657,0.40294 -0.71322,0.34109 -0.0605,-0.0146 -0.36575,0.088 -0.67833,0.22791 -0.6939,0.31065 -0.79366,0.31366 -1.09491,0.033 -0.23274,-0.21683 -0.24053,-0.21683 -0.37595,0 -0.0839,0.13443 -0.27272,0.22143 -0.48047,0.22143 -0.26423,0 -0.40014,-0.0938 -0.59656,-0.41158 -0.1399,-0.22636 -0.30072,-0.41157 -0.35738,-0.41157 -0.0567,0 -0.99162,-0.42688 -2.07768,-0.94861 -2.61634,-1.25687 -2.90336,-1.38777 -3.91494,-1.78547 -0.16169,-0.0636 -0.38586,-0.16233 -0.49817,-0.21946 -0.1123,-0.0571 -0.27855,-0.10387 -0.36943,-0.10387 -0.4782,0 -0.25747,-1.81175 0.61606,-5.05648 0.64981,-2.41372 0.96979,-3.78178 1.19067,-5.09056 0.38071,-2.2558 0.44847,-2.67081 0.58958,-3.61129 0.0728,-0.48507 0.18009,-1.17299 0.23848,-1.52871 0.0584,-0.35571 0.13424,-0.83196 0.16856,-1.05833 0.12477,-0.82278 0.3002,-1.83572 0.41749,-2.41065 0.066,-0.32338 0.15258,-0.81407 0.19247,-1.09043 0.0399,-0.27636 0.11842,-0.53083 0.17452,-0.5655 0.0561,-0.0347 0.102,-0.242 0.102,-0.46073 0,-0.21874 0.0471,-0.42679 0.1046,-0.46234 0.0575,-0.0356 0.13313,-0.23712 0.168,-0.44792 0.10106,-0.61094 0.20827,-1.07064 0.30879,-1.324 0.0513,-0.12936 0.2088,-0.60561 0.34996,-1.05834 0.14116,-0.45273 0.30092,-0.92898 0.35503,-1.05833 0.0541,-0.12935 0.2984,-0.73789 0.54285,-1.35231 0.71102,-1.7871 1.92222,-4.2146 2.52582,-5.06228 0.12708,-0.17847 0.23106,-0.38247 0.23106,-0.45333 0,-0.0709 0.0529,-0.12884 0.11759,-0.12884 0.0647,0 0.11865,-0.0661 0.11994,-0.14699 0.001,-0.0808 0.29784,-0.54387 0.659,-1.02893 0.36116,-0.48507 0.70132,-0.99722 0.7559,-1.13812 0.0546,-0.14089 0.27883,-0.34139 0.49834,-0.44555 0.21951,-0.10416 0.61477,-0.40291 0.87835,-0.66389 0.49352,-0.48863 1.3218,-2.00007 1.3218,-2.412 0,-0.12776 0.0475,-0.28257 0.10555,-0.34401 0.0581,-0.0614 0.13698,-0.34984 0.1754,-0.64088 0.1342,-1.01671 0.31519,-2.53699 0.434,-3.64537 0.6002,-5.59957 0.70644,-6.53103 0.9187,-8.05509 0.10507,-0.75437 0.22112,-1.43617 0.43033,-2.52824 0.12709,-0.66339 0.39343,-1.60889 0.87782,-3.11621 0.66024,-2.05454 0.93887,-3.16305 0.9379,-3.7314 -4.6e-4,-0.27606 -0.15384,-0.95172 -0.34084,-1.50147 -0.61844,-1.81816 -0.75337,-2.58447 -0.68814,-3.90826 0.0917,-1.86006 0.90678,-3.96939 2.33753,-6.04891 0.18623,-0.27068 0.3386,-0.54876 0.3386,-0.61795 0,-0.0692 0.0529,-0.1258 0.1176,-0.1258 0.0647,0 0.11759,-0.0511 0.11759,-0.11363 0,-0.0625 0.21552,-0.44614 0.47893,-0.85254 1.04988,-1.61983 1.42234,-2.66668 1.63206,-4.58716 0.21914,-2.00673 -0.39698,-5.2811 -1.43324,-7.61704 -0.12911,-0.29104 -0.3153,-0.71438 -0.41375,-0.94074 -0.24007,-0.552 -1.27956,-2.68936 -1.48695,-3.05741 -0.2182,-0.38725 -1.58191,-3.77342 -2.29686,-5.70324 -0.67077,-1.81057 -0.90421,-2.63104 -1.17306,-4.12282 -0.1622,-0.90005 -0.16657,-3.18371 -0.007,-3.9096 0.0665,-0.30351 0.17727,-0.81642 0.24612,-1.1398 0.16195,-0.76069 0.238,-1.01206 0.81822,-2.70463 0.68754,-2.00564 1.73536,-5.21268 1.87299,-5.73264 0.0642,-0.24254 0.17323,-0.66587 0.24228,-0.94074 0.0691,-0.27487 0.1749,-0.66228 0.23519,-0.8609 0.0603,-0.19862 0.10962,-0.47394 0.10962,-0.61182 0,-0.13789 0.0482,-0.37226 0.10709,-0.52082 0.29376,-0.74102 0.51042,-2.15745 0.45221,-2.95633 -0.0337,-0.46286 -0.024,-0.97386 0.0216,-1.13555 0.0701,-0.24842 0.0966,-0.20285 0.17103,0.29398 0.17803,1.18799 0.10953,1.11713 1.07994,1.11713 0.63341,0 0.97266,-0.0601 1.26466,-0.22412 0.21947,-0.12327 0.52535,-0.29525 0.67973,-0.38218 0.15439,-0.0869 0.31055,-0.19818 0.34704,-0.24723 0.0365,-0.049 0.27462,-0.10196 0.52917,-0.11759 0.42572,-0.0261 0.4658,-0.002 0.50003,0.29497 0.0321,0.27883 -0.005,0.32338 -0.26618,0.32338 -0.30508,0 -0.68591,0.17069 -0.97729,0.43805 -0.37373,0.34292 -1.73541,0.73787 -2.54396,0.73787 h -0.3809 l -0.14324,0.85255 c -0.0788,0.4689 -0.17351,1.05131 -0.21052,1.29425 -0.037,0.24294 -0.1146,0.47096 -0.17245,0.50671 -0.0578,0.0358 -0.10517,0.24396 -0.10517,0.46269 0,0.21874 -0.0529,0.4304 -0.11759,0.47038 -0.0647,0.04 -0.11759,0.19935 -0.11759,0.35418 0,0.15483 -0.0474,0.40306 -0.10535,0.55162 -0.0579,0.14857 -0.17093,0.50825 -0.25108,0.79929 -0.26227,0.9523 -0.33977,1.20138 -1.33552,4.29213 -1.07758,3.34472 -1.17017,3.66318 -1.36766,4.7037 -0.15381,0.81045 -0.0925,4.02957 0.0941,4.93889 0.19407,0.94573 0.77641,2.58672 1.52316,4.29213 0.38231,0.87312 0.81635,1.905 0.96454,2.29305 0.14818,0.38806 0.54923,1.28764 0.89121,1.99908 1.84019,3.82813 2.48738,5.59227 2.99212,8.15599 0.39019,1.98194 0.30191,4.86651 -0.19844,6.48429 -0.05,0.16169 -0.22924,0.50564 -0.3983,0.76435 -0.4065,0.62208 -1.39826,2.28276 -1.56198,2.61552 -0.0713,0.14501 -0.16941,0.26407 -0.21792,0.26458 -0.0485,5e-4 -0.0882,0.0589 -0.0882,0.12975 0,0.0709 -0.0996,0.2693 -0.22129,0.44098 -0.29274,0.4129 -0.74306,1.18429 -1.2806,2.19361 l -0.43839,0.82315 0.0141,2.9778 c 0.0101,2.12905 0.0565,3.06752 0.16273,3.29259 0.0817,0.17314 0.20766,0.44219 0.27986,0.59789 0.1587,0.34228 0.14389,2.00301 -0.0231,2.58813 -0.0661,0.23175 -0.17681,0.63303 -0.24594,0.89174 -0.0691,0.2587 -0.31289,1.05866 -0.54168,1.77769 -0.71923,2.26028 -0.95202,3.28882 -1.40748,6.2186 -0.1587,1.02085 -0.4956,4.32788 -0.64691,6.35 -0.21902,2.92698 -0.40804,4.37485 -0.7062,5.40926 -0.0746,0.25871 -0.16467,0.59022 -0.20024,0.73669 -0.0356,0.14648 -0.11125,0.29512 -0.1682,0.33032 -0.057,0.0352 -0.10355,0.16671 -0.10355,0.29225 0,0.12553 -0.04,0.22824 -0.0889,0.22824 -0.0489,0 -0.16444,0.1707 -0.25679,0.37932 -0.15237,0.34423 -0.84274,1.08222 -1.90447,2.03584 -0.41699,0.37453 -2.10078,2.76736 -2.10078,2.98542 0,0.0695 -0.0397,0.12669 -0.0882,0.12719 -0.0485,5.1e-4 -0.1476,0.11957 -0.2202,0.26459 -0.0726,0.14501 -0.50491,1.00449 -0.96067,1.90996 -0.89659,1.78123 -1.6404,3.56774 -2.10527,5.05648 -0.16156,0.51741 -0.34155,1.03263 -0.39999,1.14493 -0.0584,0.11231 -0.10624,0.33408 -0.10624,0.49283 0,0.15875 -0.0471,0.31773 -0.1046,0.35328 -0.0575,0.0356 -0.13308,0.23712 -0.16789,0.44792 -0.0348,0.21079 -0.12334,0.62139 -0.19675,0.91243 -0.28573,1.13298 -0.80545,4.00732 -1.16942,6.46759 -0.0622,0.42039 -0.16494,1.08185 -0.22832,1.46991 -0.0634,0.38805 -0.17363,1.10229 -0.24497,1.58718 -0.2579,1.75298 -0.9753,4.90911 -1.41671,6.23272 -0.0858,0.25744 -0.22768,0.84218 -0.70631,2.91211 -0.15831,0.68463 -0.14619,0.85086 0.062,0.85086 0.0979,0 0.26987,0.0467 0.38218,0.10387 0.1123,0.0571 0.33648,0.15545 0.49817,0.21849 0.16169,0.063 0.52388,0.22796 0.80486,0.3665 0.28099,0.13853 0.58526,0.25188 0.67616,0.25188 0.0909,0 0.16528,0.0529 0.16528,0.11759 0,0.0647 0.0664,0.11759 0.14749,0.11759 0.0811,0 0.5706,0.20495 1.08773,0.45545 0.51713,0.2505 1.36357,0.64985 1.88098,0.88744 1.28227,0.58884 1.26262,0.57616 1.46788,0.94651 0.10007,0.18055 0.22084,0.32138 0.26838,0.31296 0.0475,-0.008 0.13934,-0.0153 0.20402,-0.0153 0.16153,0 0.14765,-0.30784 -0.0265,-0.58662 -0.10128,-0.16217 -0.10712,-0.26759 -0.0197,-0.35504 0.18151,-0.18151 0.44017,-0.0417 0.6034,0.32619 0.17165,0.38684 0.5985,0.68266 0.75673,0.52443 0.0687,-0.0687 -0.003,-0.24506 -0.19026,-0.46761 -0.16533,-0.19648 -0.3006,-0.43909 -0.3006,-0.53912 0,-0.29072 0.2309,-0.35367 0.47778,-0.13025 0.21987,0.19898 0.22777,0.1953 0.22777,-0.10607 0,-0.17171 0.0457,-0.31221 0.10156,-0.31221 0.1555,0 0.72159,0.60092 0.72159,0.76599 0,0.24395 0.34291,0.46685 0.49076,0.319 0.0923,-0.0923 0.004,-0.24163 -0.31638,-0.53512 -0.2954,-0.27063 -0.42007,-0.47047 -0.37187,-0.59608 0.109,-0.28405 0.36469,-0.22925 0.79177,0.1697 0.51157,0.47788 0.77893,0.60995 1.05646,0.52186 0.3843,-0.12197 0.28979,-0.61833 -0.20381,-1.07046 -0.23901,-0.21892 -0.49036,-0.39828 -0.55857,-0.39858 -0.0682,-3e-4 -0.28276,-0.14655 -0.47678,-0.325 -0.19403,-0.17845 -0.6954,-0.61477 -1.11414,-0.9696 -1.96203,-1.66251 -2.72293,-2.44918 -3.33008,-3.44286 -0.61352,-1.00411 -0.84854,-1.83138 -0.84212,-2.96431 0.008,-1.38418 0.27653,-2.19497 1.65614,-4.99768 0.68448,-1.39054 1.34473,-2.75314 1.46721,-3.02801 0.12249,-0.27488 0.33524,-0.75113 0.47279,-1.05834 0.13755,-0.30721 0.29477,-0.66439 0.34939,-0.79375 0.0546,-0.12935 0.33372,-0.79081 0.62024,-1.4699 0.81747,-1.93757 2.01992,-4.356 3.11339,-6.26181 0.13915,-0.24253 0.36504,-0.63941 0.50196,-0.88194 0.13693,-0.24254 0.34859,-0.58144 0.47037,-0.75311 0.12178,-0.17167 0.22142,-0.34257 0.22142,-0.37977 0,-0.11649 2.28343,-3.89212 2.37885,-3.9334 0.0498,-0.0216 0.0906,-0.0914 0.0906,-0.15521 0,-0.0638 0.15151,-0.3372 0.33669,-0.60756 0.18518,-0.27035 0.45552,-0.72564 0.60077,-1.01174 0.14524,-0.2861 0.6457,-0.94911 1.11213,-1.47336 1.23424,-1.38724 2.32774,-3.05927 3.19521,-4.88562 0.50526,-1.06377 1.2228,-2.67973 1.2228,-2.75384 0,-0.0658 1.62826,-3.89239 2.05558,-4.83088 1.26268,-2.77317 2.18374,-4.70272 4.67468,-9.79314 0.55473,-1.13364 0.80104,-1.76406 0.75808,-1.94028 -0.035,-0.14357 -0.12434,-0.47269 -0.19851,-0.7314 -0.12624,-0.44026 -0.29535,-1.38693 -0.40399,-2.26154 -0.0495,-0.39825 0.17943,-1.93327 0.38642,-2.59133 0.21673,-0.68902 0.75612,-1.71161 1.47199,-2.79065 0.38617,-0.58208 0.73368,-1.08479 0.77224,-1.11713 0.13056,-0.10948 1.4943,-2.05257 2.06302,-2.93943 l 0.56532,-0.88156 -0.0774,-1.52908 c -0.16694,-3.2981 -0.43782,-6.04683 -0.89813,-9.11381 -0.0728,-0.48507 -0.18269,-1.22251 -0.24419,-1.63876 -0.0615,-0.41624 -0.27232,-1.73916 -0.4685,-2.93981 -0.93072,-5.69644 -1.41377,-9.06224 -1.43866,-10.02438 -0.0107,-0.41314 -0.0358,-0.4392 -0.54582,-0.56702 -1.69484,-0.42471 -5.73538,-1.83327 -7.64898,-2.66647 -0.22636,-0.0986 -0.5174,-0.22003 -0.64675,-0.26992 -0.28266,-0.10901 -1.04935,-0.45191 -1.96968,-0.88093 -0.56242,-0.26218 -0.67616,-0.36534 -0.67616,-0.61328 0,-0.26549 0.0349,-0.28932 0.31912,-0.21798 0.17551,0.044 0.63853,0.2284 1.02893,0.40966 0.3904,0.18126 0.89503,0.40926 1.1214,0.50667 0.22636,0.0974 0.62324,0.26814 0.88194,0.37942 0.2587,0.11128 0.5762,0.24277 0.70556,0.2922 0.29357,0.11218 0.73363,0.28807 1.11713,0.44651 0.16169,0.0668 0.47919,0.18506 0.70555,0.26279 0.22637,0.0777 0.51741,0.18624 0.64676,0.24113 1.25537,0.53273 6.4752,2.0046 8.67245,2.44543 2.99034,0.59996 6.73781,1.04902 7.31844,0.87697 0.96402,-0.28564 4.65596,-4.02969 6.29689,-6.38575 0.15766,-0.22637 0.36678,-0.50524 0.46471,-0.61972 0.0979,-0.11448 0.74531,-1.09343 1.4386,-2.17546 1.28396,-2.00387 2.02212,-3.07471 2.40993,-3.49603 0.11907,-0.12935 0.3459,-0.42039 0.50407,-0.64675 0.15818,-0.22637 0.38163,-0.51416 0.49658,-0.63954 0.11494,-0.12538 0.20898,-0.29736 0.20898,-0.38218 0,-0.0848 0.0529,-0.15421 0.11759,-0.15421 0.0647,0 0.11759,-0.0558 0.11759,-0.12405 0,-0.18571 0.94112,-1.54441 1.26764,-1.8301 0.15656,-0.13699 0.49601,-0.36188 0.75434,-0.49977 0.84893,-0.45313 2.60213,-0.29259 3.93791,0.3606 0.71809,0.35113 0.86766,-0.55089 0.24914,-1.50249 -0.52298,-0.80463 -2.05323,-2.30465 -2.92762,-2.86979 -0.63509,-0.41048 -0.81851,-0.47236 -1.40009,-0.47236 -0.36809,0 -0.82648,0.0784 -1.01864,0.17429 -0.32954,0.1644 -1.45064,1.2538 -1.45064,1.40964 0,0.0397 -0.10583,0.1858 -0.23518,0.32464 -0.12936,0.13884 -0.23519,0.32184 -0.23519,0.40666 0,0.0848 -0.0529,0.15421 -0.11759,0.15421 -0.0647,0 -0.11759,0.0575 -0.11759,0.12777 0,0.0703 -0.27698,0.5333 -0.6155,1.02894 -0.77497,1.13463 -3.5443,3.90639 -6.14749,6.15286 -1.09872,0.94815 -2.8066,2.54768 -3.79529,3.5545 -0.9887,1.00683 -1.99412,1.97731 -2.23426,2.15664 -0.24015,0.17933 -0.59538,0.47133 -0.78941,0.64889 -0.19403,0.17755 -0.48507,0.32331 -0.64676,0.32389 -0.64131,0.002 -3.46375,-1.29163 -7.70231,-3.53112 -4.23288,-2.23649 -6.22867,-3.08059 -7.81489,-3.30523 -0.81163,-0.11494 -1.14186,-0.31534 -1.02433,-0.62163 0.10685,-0.27844 0.37657,-0.25161 2.54801,0.2535 0.16169,0.0376 0.84691,0.29646 1.52271,0.57523 0.6758,0.27877 1.24413,0.49145 1.26296,0.47262 0.12232,-0.12231 -0.67077,-1.32609 -1.32822,-2.01603 -0.43141,-0.45273 -0.92229,-1.00835 -1.09085,-1.23472 -0.16855,-0.22636 -0.33598,-0.43803 -0.37205,-0.47037 -0.39501,-0.35408 -0.75473,-2.07114 -0.64076,-3.05854 0.0691,-0.59883 0.0509,-0.67007 -0.24097,-0.94074 -0.51853,-0.48092 -1.48035,-1.98643 -1.76473,-2.76229 -0.28916,-0.7889 -0.45416,-2.969 -0.22911,-3.02707 0.0647,-0.0167 0.18638,0.41945 0.27045,0.9692 0.33382,2.18288 0.77054,3.09584 2.1402,4.47402 0.54975,0.55317 1.21121,1.16569 1.46991,1.36116 0.83184,0.6285 2.27854,1.57315 2.40925,1.57315 0.0697,0 0.3764,0.12503 0.68147,0.27784 0.30506,0.15282 0.99313,0.34787 1.52904,0.43346 0.93858,0.14989 0.98342,0.14658 1.21995,-0.0899 0.1691,-0.1691 0.25482,-0.42302 0.27533,-0.81562 0.0391,-0.74783 0.0159,-0.67765 0.35915,-1.08564 0.34962,-0.4155 0.28657,-0.63628 -0.31647,-1.10824 l -0.37013,-0.28967 0.3988,-0.17841 c 0.21934,-0.0981 0.70258,-0.31267 1.07388,-0.47678 l 0.67509,-0.29837 -0.0731,-0.74195 c -0.0492,-0.49902 -0.14996,-0.82663 -0.30783,-1.00059 -0.34936,-0.38497 -0.34096,-1.16947 0.0156,-1.4582 0.15176,-0.12289 0.32299,-0.22344 0.3805,-0.22344 0.16788,0 0.12042,0.31082 -0.0718,0.47038 -0.21635,0.17955 -0.22226,0.57647 -0.0127,0.85254 0.20726,0.27304 0.24745,0.26443 0.67552,-0.14466 0.40815,-0.39004 0.5719,-0.36948 0.5719,0.0718 0,0.26261 0.0196,0.27584 0.17639,0.11905 0.25855,-0.25856 0.22345,-1.22407 -0.0671,-1.8468 -0.13394,-0.28702 -0.41175,-0.86581 -0.61736,-1.2862 l -0.37384,-0.76436 -0.67095,0.0351 c -0.76475,0.04 -1.51853,-0.24452 -1.2799,-0.48315 0.10032,-0.10032 0.19205,-0.0978 0.36469,0.01 0.12686,0.0792 0.43382,0.14404 0.68212,0.14404 0.48791,0 0.80065,-0.25364 1.05799,-0.85808 0.26167,-0.6146 0.20939,-0.67062 -0.62591,-0.67062 -0.7633,0 -1.06319,0.0991 -1.54673,0.51108 -0.18237,0.15538 -0.31087,0.18573 -0.45197,0.10677 -0.16966,-0.095 -0.12707,-0.17033 0.30537,-0.54048 0.27639,-0.23658 0.59572,-0.43015 0.70961,-0.43015 0.11389,0 0.23978,-0.0529 0.27976,-0.11759 0.04,-0.0647 0.43248,-0.11759 0.87225,-0.11759 h 0.79957 l 0.15048,-0.87971 c 0.18125,-1.05962 0.0927,-1.23696 -0.61742,-1.23696 -0.25928,0 -0.95395,-0.16706 -1.54371,-0.37124 -1.2482,-0.43215 -2.37663,-0.51662 -2.69178,-0.2015 -0.1054,0.10538 -0.41331,0.65162 -0.68425,1.21386 -0.7737,1.60555 -1.63822,2.41775 -3.05507,2.87016 -0.23095,0.0737 -0.51383,0.13409 -0.6286,0.13409 -0.11478,0 -0.36425,0.11077 -0.55439,0.24616 -0.63769,0.45407 -0.94153,0.0344 -0.36676,-0.50652 0.2364,-0.22249 0.56061,-0.34703 1.20532,-0.46297 1.40771,-0.25317 1.80142,-0.58536 2.60428,-2.19735 0.76846,-1.54295 1.10551,-1.94183 1.81878,-2.15243 0.4994,-0.14746 0.51578,-0.16741 0.51406,-0.6264 -0.003,-0.91583 -0.38478,-1.63704 -1.14475,-2.16493 -0.4766,-0.33105 -0.48558,-0.48463 -0.0283,-0.48463 0.73463,0 1.50803,1.20677 1.55726,2.42987 l 0.0292,0.72478 0.47037,0.14472 c 0.2587,0.0796 0.70849,0.22159 0.99953,0.31555 0.81707,0.26378 1.75414,0.50091 1.97542,0.4999 0.31149,-10e-4 0.49403,-0.5538 0.49403,-1.49496 0,-1.01178 -0.26653,-1.52601 -1.10187,-2.12591 -1.12654,-0.80902 -2.54767,-1.3171 -3.68398,-1.3171 -0.58182,0 -0.87213,-0.051 -0.97146,-0.17069 -0.17915,-0.21587 -1.28241,-0.77005 -1.533,-0.77005 -0.10372,0 -0.23885,-0.0433 -0.30029,-0.0961 -0.16453,-0.14158 -1.1437,-0.34614 -2.34598,-0.4901 -1.45973,-0.1748 -3.17359,0.0657 -4.6449,0.65177 -1.14025,0.4542 -2.30403,1.42757 -3.01477,2.52149 -0.98252,1.51223 -1.23269,2.65857 -1.24464,5.70324 -0.004,1.0668 -0.032,1.36882 -0.092,0.99954 -0.34675,-2.13343 -0.35888,-2.31026 -0.23382,-3.41018 0.16009,-1.40805 0.2766,-1.8192 0.86634,-3.05741 0.61991,-1.30155 1.76906,-2.46852 3.05796,-3.10538 1.55958,-0.7706 2.56481,-1.00085 4.39281,-1.00617 1.44,-0.004 1.89673,0.0635 3.32114,0.49243 0.70662,0.21278 1.00581,0.34128 1.94487,0.83534 0.19515,0.10267 0.79213,0.22315 1.32661,0.26772 0.53449,0.0446 0.99971,0.12622 1.03383,0.18142 0.0341,0.0552 0.16808,0.10038 0.29769,0.10038 0.45504,0 1.80343,0.75767 2.39804,1.34747 0.56463,0.56005 0.66066,0.70751 0.98316,1.50968 0.23668,0.58872 0.15171,1.45245 -0.23372,2.37572 -0.054,0.12935 -0.1198,0.73789 -0.14621,1.35232 -0.0264,0.61442 -0.11312,1.38171 -0.19268,1.70509 -0.0796,0.32338 -0.16916,1.0278 -0.19912,1.56537 -0.0532,0.95401 -0.0428,1.00162 0.43271,1.9884 0.39437,0.81838 0.49108,1.15091 0.5076,1.7454 0.0245,0.87999 -0.18802,1.19228 -0.88723,1.30409 -0.56334,0.0901 -0.83921,0.34155 -0.74117,0.67561 0.18032,0.61443 0.20008,1.03408 0.0642,1.36224 -0.0808,0.1951 -0.18655,0.35472 -0.23497,0.35472 -0.0484,0 -0.15562,0.24137 -0.23822,0.53638 -0.10114,0.36124 -0.27557,0.63202 -0.53419,0.82928 -0.28819,0.21981 -0.4199,0.44543 -0.52783,0.90413 -0.20707,0.88007 -0.54332,1.48419 -0.902,1.62056 -0.17981,0.0684 -0.65957,0.0844 -1.14172,0.0383 -1.2732,-0.12197 -2.76801,-0.83016 -4.5131,-2.13815 l -1.43377,-1.07466 v 0.87129 c 0,0.47922 0.0639,1.01931 0.14189,1.20021 0.14182,0.32875 0.77803,1.335 0.91426,1.44604 0.0397,0.0323 0.41954,0.4603 0.84415,0.95103 0.87215,1.00795 1.30464,1.70028 1.51873,2.43116 0.17379,0.59328 0.14669,0.569 1.34347,1.20335 4.6692,2.47492 8.12614,4.13776 9.11981,4.38676 0.49926,0.1251 1.53017,-0.66799 3.58729,-2.75977 1.92459,-1.95701 2.35686,-2.36684 3.69999,-3.5079 2.41678,-2.05319 2.34604,-1.97213 2.47006,-2.83019 0.0601,-0.41601 0.11165,-1.10034 0.11449,-1.52073 0.003,-0.4204 0.0593,-0.97602 0.12555,-1.23472 0.0662,-0.25871 0.11525,-0.84776 0.10898,-1.309 -0.009,-0.64703 0.0454,-0.94257 0.2371,-1.29352 0.54027,-0.98899 1.0452,-1.08845 2.37697,-0.46821 0.47032,0.21904 1.13448,0.43588 1.47591,0.48187 0.58778,0.0792 0.63462,0.0658 0.88095,-0.25126 0.62459,-0.80399 1.19117,-1.33064 1.67735,-1.55918 0.53986,-0.25376 1.43181,-0.32436 1.7908,-0.14174 0.11231,0.0571 0.3592,0.17619 0.54866,0.26458 0.78386,0.36572 3.07864,2.84467 3.68308,3.97868 0.28214,0.52933 0.34939,1.28306 0.13372,1.49873 -0.21319,0.21319 -0.0381,0.34414 0.92405,0.69119 1.99763,0.72051 2.52553,1.30918 2.03548,2.26977 l -0.23333,0.45735 -1.32707,0.0702 c -0.72988,0.0386 -1.80331,0.11866 -2.3854,0.17787 -0.58208,0.0592 -2.27032,0.0776 -3.75164,0.0409 l -2.69332,-0.0667 0.0835,0.75424 c 0.35856,3.23734 0.86045,21.32657 0.65224,23.50841 -0.16554,1.73477 0.002,1.33343 -3.2855,7.8787 -0.85441,1.70119 -1.24879,2.60198 -1.64745,3.76297 -0.41471,1.20773 -0.88559,2.23127 -1.64998,3.58657 -0.25534,0.45273 -0.62819,1.1351 -0.82855,1.51637 l -0.3643,0.69321 0.45128,-0.087 c 2.79778,-0.5396 3.57717,-0.59383 8.53324,-0.59383 h 4.67179 l 0.23393,-0.76436 c 0.47945,-1.56655 1.66073,-3.05645 2.87637,-3.62787 0.56911,-0.26752 1.87728,-0.35255 2.2762,-0.14796 0.1123,0.0576 0.45908,0.22649 0.77061,0.37531 0.62358,0.29788 1.74301,1.33583 2.90653,2.69497 0.41526,0.48507 0.86206,0.97957 0.99288,1.0989 1.12978,1.03046 2.48108,1.90651 3.58632,2.32501 0.73472,0.2782 2.58998,0.45368 2.58998,0.24497 0,-0.07 -0.0529,-0.15993 -0.11759,-0.1999 -0.0647,-0.04 -0.1176,-0.20024 -0.1176,-0.35614 0,-0.34138 -0.27972,-0.85758 -0.92749,-1.71159 -0.56346,-0.74285 -0.78623,-1.18133 -1.02823,-2.02387 -0.73421,-2.55626 -0.46475,-3.52914 0.96098,-3.46948 0.70013,0.0293 0.96315,-0.12348 1.01716,-0.59081 0.0305,-0.26412 0.10152,-0.32098 0.44111,-0.35331 0.22261,-0.0212 0.51128,-0.11315 0.6415,-0.20436 0.17506,-0.12262 0.44008,-0.14694 1.01695,-0.0933 l 0.78019,0.0725 0.18802,-0.46991 c 0.10342,-0.25846 0.27442,-0.55631 0.38,-0.6619 0.23707,-0.23707 0.97585,-0.24602 1.28038,-0.0155 0.19522,0.14776 0.26324,0.14535 0.54186,-0.0192 0.24951,-0.14739 0.48329,-0.17058 1.07786,-0.1069 0.41758,0.0447 1.81416,0.0945 3.10351,0.11067 2.551789,0.032 2.983462,0.11901 4.249449,0.8568 1.165586,0.67928 2.614279,2.43028 3.044973,3.68038 0.362654,1.05261 0.542695,2.28889 0.471745,3.23931 -0.22696,3.04029 -0.362494,4.10013 -0.632248,4.944 -0.311586,0.97473 -1.639192,3.29977 -2.296827,4.02244 l -0.240774,0.26458 h 1.010286 c 1.305126,0 1.877653,0.23974 2.768436,1.15925 0.708692,0.73154 0.786043,0.82103 1.437374,1.66297 0.435853,0.56341 2.136326,2.5751 2.821197,3.33753 0.226365,0.252 0.46449,0.51703 0.529166,0.58897 0.06468,0.0719 0.461493,0.52758 0.881815,1.01256 0.420323,0.48498 0.791787,0.90823 0.825476,0.94057 0.03369,0.0323 0.640993,0.72026 1.349563,1.52871 0.70857,0.80845 1.38221,1.57249 1.496978,1.69786 0.180775,0.19749 0.208668,0.46809 0.208668,2.02434 0,1.65567 -0.01781,1.80591 -0.227454,1.9181 -0.143636,0.0769 -1.660324,0.12173 -4.115741,0.12173 h -3.888286 l -0.01996,22.66597 c -0.01098,12.46629 -0.0064,22.89315 0.01021,23.1708 0.04911,0.82197 -0.01229,0.84749 -2.039001,0.84749 -1.954772,0 -2.06699,-0.0358 -2.06699,-0.6593 v -0.37708 l 1.115565,-0.0836 c 0.613561,-0.046 1.460228,-0.0467 1.881482,-0.002 l 0.765916,0.082 V 925.9124 903.09007 h -1.705092 -1.705093 v 21.90855 c 0,19.08129 -0.02228,21.93799 -0.172649,22.1368 -0.152005,0.20097 -0.173096,-2.41871 -0.176389,-21.90854 l -0.0037,-22.13681 h -23.302245 -23.30225 l 0.0783,5.08588 c 0.0431,2.79724 0.105,8.18151 0.13761,11.96505 0.0326,3.78354 0.0889,9.15458 0.12515,11.93565 0.15622,11.99573 0.16677,17.38002 0.0344,17.53956 -0.19594,0.23608 -3.72823,0.22838 -3.81906,-0.008 z m -32.78721,-1.45325 c -0.20317,-0.19405 -0.20633,-0.1909 -0.0717,0.0717 0.0775,0.15106 0.17311,0.24241 0.21252,0.20299 0.0394,-0.0394 -0.024,-0.16301 -0.14085,-0.27466 z m 10.44472,-3.59066 c 0.17586,-0.28781 -0.13922,-0.51654 -0.85607,-0.62145 -0.29848,-0.0437 -0.67498,-0.17196 -0.83667,-0.28504 -0.16169,-0.11309 -0.49242,-0.31764 -0.73495,-0.45457 -0.24254,-0.13692 -0.63527,-0.35899 -0.87275,-0.49347 -1.94903,-1.10377 -2.74464,-1.95423 -3.43425,-3.67097 -0.16481,-0.41029 -0.17328,-1.90269 -0.0125,-2.20311 0.0658,-0.12293 0.12415,-0.5031 0.12968,-0.84482 0.006,-0.36361 0.17165,-1.10902 0.39965,-1.79723 0.47584,-1.43624 1.62864,-4.61885 1.87541,-5.17752 0.0992,-0.22447 0.25964,-0.59333 0.35666,-0.8197 0.097,-0.22636 0.26167,-0.61001 0.3659,-0.85255 0.5496,-1.27887 1.96163,-4.02861 2.73244,-5.32106 0.81181,-1.36119 2.43522,-3.86253 2.59486,-3.99815 0.0381,-0.0323 0.14421,-0.20432 0.23588,-0.38217 0.0917,-0.17786 0.21065,-0.32338 0.2644,-0.32338 0.0538,0 0.0977,-0.0566 0.0977,-0.12581 0,-0.0692 0.15114,-0.347 0.33588,-0.61736 1.32598,-1.94059 2.31752,-3.89774 2.7214,-5.37165 0.0798,-0.29104 0.18731,-0.66146 0.23903,-0.82315 0.0517,-0.16169 0.1304,-0.47919 0.17483,-0.70555 0.0444,-0.22637 0.13117,-0.62324 0.19274,-0.88195 0.0616,-0.2587 0.16197,-0.69526 0.22311,-0.97014 0.0611,-0.27487 0.16408,-0.73789 0.22875,-1.02893 0.0647,-0.29104 0.16767,-0.75406 0.22887,-1.02894 0.0612,-0.27487 0.14309,-0.65851 0.18197,-0.85254 0.0389,-0.19403 0.1211,-0.55122 0.18271,-0.79375 0.0616,-0.24254 0.16056,-0.63941 0.2199,-0.88195 0.1932,-0.78967 0.38744,-1.4944 0.47804,-1.73449 0.0488,-0.12935 0.20761,-0.6056 0.35288,-1.05833 0.14526,-0.45273 0.59265,-1.72273 0.99421,-2.82222 0.84359,-2.30979 0.8828,-2.43375 1.35784,-4.29213 0.49848,-1.95014 0.63117,-2.37994 0.96203,-3.11621 0.0742,-0.16511 0.0392,-0.37532 -0.11758,-0.70555 -0.1228,-0.2587 -0.24826,-0.54975 -0.27879,-0.64676 -0.0654,-0.20784 -3.92606,7.5877 -5.27038,10.64213 -0.14233,0.32338 -0.39058,0.879 -0.55168,1.23472 -0.16109,0.35572 -0.68702,1.5728 -1.16872,2.70463 -0.48171,1.13183 -0.94681,2.21662 -1.03356,2.41065 -0.0867,0.19403 -0.29836,0.67028 -0.47024,1.05833 -1.18097,2.66629 -2.40005,4.59629 -3.94316,6.24267 -0.26038,0.2778 -0.47341,0.53972 -0.47341,0.58204 0,0.0423 -0.0996,0.21741 -0.22142,0.38908 -0.12178,0.17168 -0.32778,0.49735 -0.45778,0.72371 -0.13,0.22637 -0.85839,1.44254 -1.61865,2.7026 -0.76025,1.26006 -1.48029,2.46391 -1.60009,2.67523 -0.5469,0.96474 -0.6763,1.19332 -0.82411,1.45583 -0.0869,0.15438 -0.1845,0.30715 -0.21684,0.33949 -0.0641,0.0641 -0.334,0.56911 -1.14351,2.13966 -0.42719,0.8288 -0.57051,1.27439 -0.75641,2.35185 -0.12615,0.73113 -0.36199,1.85417 -0.5241,2.49565 -0.27947,1.10587 -1.22425,4.09055 -1.45474,4.59571 -0.059,0.12935 -0.22281,0.6056 -0.36397,1.05833 -0.14115,0.45273 -0.29659,0.92898 -0.34541,1.05834 -0.0488,0.12935 -0.15286,0.47331 -0.23122,0.76435 -0.0784,0.29104 -0.19021,0.62105 -0.24858,0.73336 -0.0584,0.1123 -0.10614,0.30016 -0.10614,0.41745 0,0.11729 -0.0421,0.26353 -0.0936,0.32498 -0.0515,0.0614 -0.1617,0.32338 -0.24494,0.58208 -0.16835,0.52321 -0.36655,0.99365 -0.80511,1.911 l -0.2952,0.61749 0.31383,0.41145 c 0.1726,0.2263 0.41768,0.41145 0.54462,0.41145 0.12694,0 0.32268,0.0467 0.43499,0.10387 0.37039,0.18842 0.78296,0.34808 1.49771,0.57961 1.67998,0.5442 2.56455,0.7787 5.20108,1.3788 1.53737,0.34991 2.98042,0.68484 3.20679,0.74428 0.22637,0.0594 0.80289,0.10051 1.28116,0.0913 0.701,-0.0136 0.89478,-0.058 0.99954,-0.22948 z m -13.31732,-5.34357 c 0.51401,-1.09946 0.58619,-1.27056 0.80606,-1.91088 0.0777,-0.22637 0.18288,-0.51741 0.23365,-0.64676 0.0508,-0.12935 0.1573,-0.47331 0.23672,-0.76435 0.0794,-0.29105 0.18526,-0.635 0.23519,-0.76436 0.0499,-0.12935 0.15689,-0.47331 0.23768,-0.76435 0.32872,-1.18418 0.38345,-1.36082 0.48231,-1.5565 0.0567,-0.11231 0.10316,-0.28501 0.10316,-0.38378 0,-0.0988 0.0484,-0.27146 0.10747,-0.38377 0.1798,-0.3416 1.19585,-3.77388 1.34845,-4.55511 0.0495,-0.25358 -0.0226,-0.17091 -0.25648,0.29398 -0.17895,0.35571 -0.39732,0.83196 -0.48526,1.05833 -0.0879,0.22637 -0.75645,1.62866 -1.48558,3.1162 -2.45335,5.00522 -2.77281,6.10428 -2.28151,7.84931 0.0683,0.24253 0.14956,0.44097 0.18063,0.44097 0.0311,0 0.27294,-0.46302 0.53751,-1.02893 z m 27.77441,-35.51228 c 0.0541,-0.0312 0.071,-0.16141 0.0376,-0.28947 -0.0335,-0.12807 0.0499,-0.42637 0.18525,-0.66289 0.17483,-0.30544 0.26081,-0.70261 0.29673,-1.37078 0.0502,-0.93257 -0.026,-1.28483 -0.38367,-1.7748 -0.16379,-0.22438 -0.15871,-0.2727 0.0576,-0.54771 0.13049,-0.16589 0.23726,-0.43897 0.23726,-0.60684 0,-0.206 0.18864,-0.50094 0.58029,-0.90727 0.62901,-0.65258 0.56285,-0.63997 1.77156,-0.3376 1.22944,0.30755 3.14059,0.40159 5.1547,0.25363 1.07781,-0.0792 2.33007,-0.19489 2.7828,-0.25715 0.45273,-0.0622 1.24648,-0.16788 1.76389,-0.23472 3.24077,-0.41869 5.43703,-0.71453 6.87917,-0.92666 0.42039,-0.0618 1.16122,-0.16938 1.64629,-0.23898 0.48507,-0.0696 1.19945,-0.18108 1.5875,-0.24771 0.38806,-0.0666 1.23472,-0.14508 1.88148,-0.17432 0.64676,-0.0292 1.65218,-0.0816 2.23426,-0.11634 3.34964,-0.19995 5.00941,-0.3035 6.58519,-0.41086 0.97014,-0.0661 2.71639,-0.1721 3.88055,-0.23556 4.45718,-0.24297 5.21237,-0.42616 5.94902,-1.44308 0.46249,-0.63845 0.5799,-0.90631 1.15693,-2.63946 0.50639,-1.52096 0.60536,-2.45238 0.35601,-3.35022 -0.13867,-0.49929 -0.64075,-1.15018 -0.88723,-1.15018 -0.0913,0 -0.16593,-0.0404 -0.16593,-0.0899 0,-0.0904 -0.6695,-0.42097 -1.38521,-0.6839 -1.80859,-0.66442 -4.84428,-0.44002 -7.43424,0.54956 -1.04595,0.39964 -1.09302,0.41873 -1.64629,0.6677 -1.33674,0.60151 -1.65177,0.73241 -1.76261,0.73241 -0.28639,0 -0.0741,-0.61197 0.4544,-1.31017 1.20295,-1.58905 2.7841,-2.8048 4.6008,-3.53758 0.16169,-0.0652 0.38587,-0.16532 0.49817,-0.22245 0.11231,-0.0571 0.33408,-0.10387 0.49283,-0.10387 0.15875,0 0.31789,-0.0473 0.35364,-0.10517 0.0357,-0.0579 0.26377,-0.13568 0.50671,-0.17297 0.24294,-0.0373 0.78566,-0.12421 1.20606,-0.19316 0.42039,-0.0689 1.59963,-0.15545 2.62053,-0.19222 1.56928,-0.0565 1.83515,-0.0922 1.72009,-0.23084 -0.099,-0.11928 -0.44467,-0.16432 -1.26821,-0.16525 -1.21564,-0.001 -1.85094,-0.14569 -2.83394,-0.64382 -1.43929,-0.72934 -2.90679,-1.98948 -5.00097,-4.29432 -1.02382,-1.12681 -1.79506,-1.68426 -2.75158,-1.98885 -0.63753,-0.20302 -0.7174,-0.17036 -0.7174,0.29333 0,0.30811 -0.0919,0.51257 -0.34374,0.76435 -0.54453,0.54454 -1.06737,0.40722 -1.06737,-0.28033 0,-0.26509 -0.0423,-0.32562 -0.18821,-0.26962 -0.91972,0.35293 -2.30084,2.48305 -2.30084,3.54862 0,0.28506 -0.0485,0.54828 -0.10779,0.58492 -0.0593,0.0366 -0.10779,0.19579 -0.10779,0.35366 0,0.3246 -0.22762,0.39884 -0.24911,0.0812 -0.008,-0.11318 -0.01,-0.23968 -0.004,-0.28111 0.0345,-0.26953 -9.18944,-0.25319 -10.88008,0.0193 -2.6783,0.43164 -4.57935,0.97062 -4.79347,1.35903 -0.0684,0.12414 -0.15197,0.25218 -0.18561,0.28452 -0.0336,0.0323 -0.24109,0.41813 -0.46099,0.85731 -0.27432,0.54788 -0.45813,0.78688 -0.58559,0.76145 -0.23225,-0.0463 -0.18329,-0.49888 0.0987,-0.91219 0.30249,-0.44336 1.89137,-3.72004 2.70901,-5.58667 0.39662,-0.90546 0.76797,-1.75213 0.82521,-1.88148 0.0572,-0.12935 0.87019,-1.79622 1.80655,-3.70416 2.27861,-4.64293 2.66505,-5.59757 2.66505,-6.5837 0,-0.30462 0.10379,-0.76011 0.23518,-1.03205 0.12935,-0.26773 0.23519,-0.56559 0.23519,-0.66191 0,-0.0963 0.0459,-0.2035 0.10199,-0.23817 0.23139,-0.14301 0.27023,-1.68259 0.3087,-12.23927 0.0463,-12.71225 0.20736,-11.54357 -1.25019,-9.07388 -0.82252,1.39369 -1.9458,3.13488 -2.0986,3.25305 -0.0418,0.0323 -0.23952,0.29692 -0.43933,0.58796 -0.19982,0.29104 -0.46091,0.6368 -0.58021,0.76835 -0.11929,0.13154 -0.4538,0.52842 -0.74335,0.88194 -0.28955,0.35352 -0.73934,0.8721 -0.99954,1.1524 -0.2602,0.2803 -0.51541,0.65072 -0.56714,0.82315 -0.27842,0.9281 -0.43425,2.48381 -0.43466,4.33937 -2.5e-4,1.11474 -0.0587,2.2789 -0.12996,2.58704 -0.26532,1.14772 -0.36287,1.51871 -0.58426,2.22199 -0.12484,0.39654 -0.22697,0.85213 -0.22697,1.01241 0,0.2441 -0.62952,1.66258 -0.82243,1.85317 -0.0581,0.0574 -0.12655,0.1741 -0.61283,1.04504 -0.26306,0.47116 -1.971,2.97789 -2.09219,3.0707 -0.0422,0.0323 -0.30726,0.40275 -0.58896,0.82315 -0.2817,0.42039 -0.55554,0.78199 -0.60854,0.80355 -0.053,0.0215 -0.0964,0.11416 -0.0964,0.20578 0,0.0916 -0.0529,0.16659 -0.11759,0.16659 -0.0647,0 -0.11759,0.075 -0.11759,0.16659 0,0.0916 -0.0466,0.18423 -0.1036,0.20579 -0.19319,0.0731 -1.54228,2.4531 -2.80905,4.95558 -0.69378,1.37057 -1.2887,2.51841 -1.32204,2.55075 -0.0333,0.0323 -0.19055,0.32338 -0.34937,0.64676 -0.37537,0.76435 -1.44291,2.37647 -2.64755,3.99814 -1.21441,1.63483 -1.70543,2.36039 -1.70543,2.52003 0,0.0692 -0.0529,0.12581 -0.11759,0.12581 -0.0647,0 -0.11759,0.10583 -0.11759,0.23518 0,0.12935 -0.0414,0.23519 -0.0919,0.23519 -0.0505,0 -0.15989,0.25135 -0.24298,0.55856 -0.0831,0.30721 -0.20047,0.65045 -0.26085,0.76276 -0.1417,0.26352 -0.14299,2.84325 -0.002,3.31524 0.73406,2.4515 0.942,3.00335 1.68693,4.47686 0.76843,1.52002 1.78722,2.72379 2.68941,3.17772 0.21759,0.10949 0.47955,0.30492 0.58213,0.4343 0.20524,0.25886 0.25259,0.25389 2.51812,-0.26466 0.51741,-0.11842 1.54952,-0.32473 2.29359,-0.45847 1.44408,-0.25954 2.2213,-0.46731 3.99762,-1.06863 0.61442,-0.20799 1.31556,-0.42483 1.5581,-0.48185 0.24253,-0.057 0.66587,-0.15769 0.94074,-0.22371 1.63928,-0.39367 3.9081,-0.64117 8.61366,-0.93963 3.90613,-0.24775 6.15383,-0.57764 8.76064,-1.28578 0.86312,-0.23447 4.18331,-1.08302 5.11528,-1.30733 0.2587,-0.0623 0.78787,-0.12577 1.17593,-0.14111 0.62344,-0.0246 0.70555,-0.002 0.70555,0.19448 0,0.28864 -0.17979,0.3718 -1.17592,0.54394 -1.0311,0.17817 -2.31758,0.47815 -4.05695,0.94597 -4.95314,1.33222 -5.4627,1.40916 -12.40602,1.87321 -4.94032,0.33019 -6.25475,0.56147 -9.76018,1.71733 -0.84079,0.27724 -2.11079,0.61643 -2.82222,0.75376 -2.41348,0.46586 -2.9389,0.57882 -3.52778,0.75837 -0.32338,0.0986 -0.76703,0.17984 -0.9859,0.18054 -0.21886,7e-4 -0.58927,0.0496 -0.82314,0.10867 -0.23387,0.0591 -0.71626,0.1687 -1.07198,0.24363 -0.89779,0.18912 -1.61793,0.56822 -1.97926,1.04195 -0.29848,0.39133 -0.30563,0.44184 -0.2814,1.98913 0.0175,1.11808 -0.0286,1.7938 -0.15581,2.28479 -0.30433,1.17448 -0.0192,2.71689 0.55573,3.00556 0.47081,0.23641 1.42013,0.26808 1.78279,0.0595 z m 69.90253,-2.64652 0.03338,-1.26412 h -34.56124 -34.56124 l -0.0596,0.61736 c -0.0328,0.33955 -0.0321,0.92306 0.002,1.29669 l 0.0613,0.67933 34.5262,-0.0326 34.526207,-0.0326 z m -0.873477,-2.35185 c -0.128885,-0.14552 -0.648674,-0.74083 -1.155086,-1.32292 -0.506412,-0.58208 -1.200426,-1.37583 -1.542254,-1.76389 -0.341827,-0.38805 -0.717617,-0.81712 -0.835088,-0.95347 -0.11747,-0.13636 -0.536453,-0.61261 -0.931072,-1.05834 -1.514192,-1.71029 -1.778793,-2.01923 -2.112283,-2.46618 -0.189139,-0.25349 -0.373199,-0.48735 -0.409021,-0.51969 -0.03582,-0.0323 -0.192234,-0.24401 -0.347582,-0.47037 -0.426255,-0.62112 -1.658919,-1.87785 -2.058069,-2.09826 -0.281427,-0.1554 -0.655128,-0.19165 -1.847672,-0.17926 l -1.494895,0.0155 -0.739365,0.66917 c -0.771996,0.69869 -3.040216,2.29836 -3.258916,2.29836 -0.0695,0 -0.12628,0.0529 -0.12628,0.1176 0,0.0647 -0.0566,0.11759 -0.12581,0.11759 -0.0692,0 -0.34726,0.15237 -0.61794,0.3386 -2.38611,1.64169 -5.42891,2.71881 -7.68048,2.71881 -0.37705,0 -0.63577,0.0814 -0.90283,0.28399 -0.81851,0.62098 -1.59511,0.74547 -5.95998,0.95542 -2.23132,0.10733 -4.77132,0.23955 -5.64444,0.29383 -0.87313,0.0543 -2.56646,0.15496 -3.76297,0.22374 -2.55152,0.14668 -4.46036,0.3068 -5.52685,0.46359 -0.42039,0.0618 -1.16122,0.17138 -1.64629,0.24349 -0.48507,0.0721 -1.25237,0.18037 -1.7051,0.24057 -0.45273,0.0602 -1.22002,0.16586 -1.70509,0.2348 -0.48507,0.0689 -1.27882,0.17649 -1.76389,0.23898 -0.48507,0.0625 -1.25236,0.16327 -1.70509,0.22396 -6.59629,0.88427 -8.57057,0.92747 -11.11193,0.24315 -0.40867,-0.11004 -0.5387,-0.1004 -0.78026,0.0579 -0.27129,0.17776 -0.74759,0.83293 -0.74857,1.0297 -2.5e-4,0.0485 15.40753,0.0882 34.2395,0.0882 h 34.23994 z m -23.801783,-5.38705 c 1.63309,-0.26496 4.44816,-1.47746 6.02161,-2.59362 0.17167,-0.12178 0.34589,-0.22141 0.38714,-0.22141 0.0412,0 0.13892,-0.0531 0.21703,-0.11798 0.0781,-0.0649 0.61828,-0.42794 1.20036,-0.8068 2.541317,-1.65403 4.358268,-3.58339 5.496749,-5.8368 0.59018,-1.16815 1.029642,-3.72651 1.029642,-5.99414 0,-3.22196 -1.615233,-5.76509 -4.218638,-6.64211 -0.859874,-0.28967 -2.405693,-0.46104 -3.307283,-0.36665 l -0.64676,0.0677 0.82314,0.22141 c 0.45274,0.12178 1.13986,0.37314 1.52696,0.55857 0.38709,0.18543 0.763631,0.33715 0.836755,0.33715 0.07313,0 0.4311,0.28647 0.795501,0.6366 0.615372,0.59127 0.662548,0.67484 0.662548,1.17368 0,0.47917 -0.03269,0.54529 -0.30319,0.61318 -1.021101,0.25628 -2.514384,1.431 -2.990034,2.35216 -0.0965,0.18681 -0.20264,0.36611 -0.23595,0.39845 -0.0333,0.0323 -0.19028,0.32338 -0.34882,0.64676 -0.45011,0.91816 -1.14244,1.90082 -1.5678,2.22525 -0.85455,0.6518 -1.4506,0.82468 -2.84448,0.825 -1.40647,3.4e-4 -2.25992,-0.2073 -3.61446,-0.87936 -0.53034,-0.26313 -0.67767,-0.29797 -0.67767,-0.16023 0,0.28209 1.06456,1.25694 1.70509,1.56141 1.24328,0.59098 1.41453,0.6267 3.28749,0.68576 1.46571,0.0462 1.62752,0.0231 2.32596,-0.3322 0.1123,-0.0571 0.28428,-0.10387 0.38218,-0.10387 0.0979,0 0.17839,-0.0397 0.1789,-0.0882 5e-4,-0.0485 0.11956,-0.14634 0.26458,-0.21742 0.14502,-0.0711 0.81929,-0.48217 1.49839,-0.91354 1.317949,-0.83718 1.707266,-1.00117 1.905704,-0.80273 0.223423,0.22343 -1.51e-4,0.47766 -0.753794,0.85719 -0.40719,0.20505 -0.952,0.5177 -1.21071,0.69478 -0.44368,0.30369 -2.19204,1.21958 -2.70463,1.41684 -0.51359,0.19764 -1.70569,0.37005 -2.13398,0.30864 -0.24918,-0.0357 -0.73197,-0.10157 -1.07287,-0.1463 -0.34089,-0.0447 -0.64829,-0.1274 -0.68309,-0.18372 -0.0348,-0.0563 -0.16672,-0.10239 -0.29313,-0.10239 -0.12641,0 -0.32173,-0.0467 -0.43403,-0.10388 -0.11231,-0.0571 -0.33648,-0.15992 -0.49817,-0.22842 -0.68563,-0.29049 -6.96537,0.10452 -7.34366,0.46193 -0.0614,0.0581 -0.25676,0.10555 -0.43403,0.10555 -0.17728,0 -0.35503,0.0529 -0.395,0.1176 -0.04,0.0647 -0.15226,0.11759 -0.24953,0.11759 -0.24569,0 -1.64056,0.67465 -2.27871,1.10213 -0.74217,0.49717 -2.0943,1.86387 -1.90642,1.92697 0.0833,0.028 0.32142,-0.0294 0.52916,-0.12763 2.24635,-1.06156 4.27672,-1.54984 6.43374,-1.54725 1.78344,0.002 2.61046,0.20061 3.9456,0.94689 0.93433,0.52225 1.15797,0.78095 1.46706,1.69704 0.31372,0.92981 0.2677,1.91281 -0.15844,3.38406 -0.15402,0.53177 -0.23988,0.96686 -0.19079,0.96686 0.15716,0 1.33352,-1.19791 2.39799,-2.44191 0.56813,-0.66395 1.19871,-1.32286 1.40128,-1.46424 0.20258,-0.14138 0.39478,-0.28606 0.42712,-0.32152 0.12322,-0.13509 1.02017,-0.56087 1.49056,-0.70756 0.60297,-0.18803 0.89113,-0.0987 0.84014,0.2604 -0.0288,0.20307 -0.14772,0.28889 -0.50802,0.36674 -1.14751,0.24795 -2.21218,1.01421 -3.46898,2.49666 -1.16311,1.37195 -1.8257,2.05357 -2.39126,2.45996 -0.42917,0.30838 -0.72351,0.62943 -0.86085,0.93897 -0.11478,0.25871 -0.22817,0.51006 -0.25198,0.55857 -0.061,0.12432 0.60764,0.108 1.49878,-0.0366 z m 10.281595,-7.92437 c -0.04539,-0.11828 0.03393,-0.40608 0.190756,-0.69216 0.365808,-0.66731 0.527211,-0.99563 0.761038,-1.54804 0.109504,-0.2587 0.247567,-0.56226 0.306806,-0.67456 0.05924,-0.11231 0.107707,-0.30762 0.107707,-0.43403 0,-0.12642 0.04707,-0.25894 0.1046,-0.29449 0.170798,-0.10556 0.270128,-0.8558 0.326339,-2.46483 0.03419,-0.97871 0.0089,-1.56014 -0.0714,-1.64042 -0.0684,-0.0684 -0.124358,-0.24445 -0.124358,-0.39124 0,-0.14679 -0.105833,-0.45532 -0.235185,-0.68562 -0.249594,-0.44438 -0.308152,-0.94056 -0.124405,-1.05412 0.142567,-0.0881 0.560014,0.82367 0.8267,1.80566 0.177892,0.65503 0.178977,3.12375 0.0017,3.79517 -0.07404,0.28038 -0.189379,0.72144 -0.256306,0.98015 -0.276024,1.06695 -1.151764,2.97202 -1.51897,3.30433 -0.203286,0.18398 -0.222313,0.1836 -0.294994,-0.006 z m -6.182595,-5.50559 c 0.98149,-0.35 1.89174,-1.23038 2.61288,-2.5271 1.12792,-2.02822 1.95472,-2.97221 2.965905,-3.38634 0.306968,-0.12572 0.556899,-0.28149 0.555402,-0.34617 -0.0077,-0.33066 -1.137463,-1.27674 -1.995467,-1.67097 -0.56447,-0.25936 -1.68433,-0.61246 -1.77151,-0.55858 -0.0483,0.0299 -0.0625,0.1516 -0.0314,0.2705 0.0796,0.30443 -0.27915,1.47154 -0.54743,1.78086 -0.35305,0.40708 -0.52704,0.17343 -0.23696,-0.31822 0.22974,-0.38938 0.38083,-1.45507 0.22799,-1.60803 -0.0364,-0.0364 -0.30101,-0.0264 -0.58797,0.0224 -0.47651,0.0809 -0.53096,0.12566 -0.62801,0.51585 -0.0874,0.35148 -0.0611,0.50371 0.14826,0.8586 0.21753,0.3687 0.22624,0.42582 0.0599,0.39312 -0.34106,-0.0671 -0.63508,-0.60003 -0.6632,-1.20214 l -0.0267,-0.57136 -1.14693,-0.60229 c -1.09562,-0.57535 -1.16096,-0.5944 -1.46048,-0.4259 -0.17245,0.097 -0.33678,0.24657 -0.36517,0.33236 -0.0426,0.12878 -0.009,0.1293 0.19343,0.003 0.19264,-0.12031 0.27568,-0.1224 0.38831,-0.01 0.11264,0.11264 0.0752,0.21434 -0.1751,0.47558 -0.1751,0.18277 -0.286,0.36468 -0.24643,0.40425 0.0919,0.0919 0.40564,-0.0183 0.65178,-0.22879 0.15798,-0.13512 0.20174,-0.13627 0.2515,-0.007 0.11405,0.29721 -0.21208,0.55872 -0.69679,0.55872 -0.25481,0 -0.51356,-0.0467 -0.575,-0.1038 -0.0614,-0.0571 -0.38029,-0.12781 -0.70856,-0.15716 -0.5649,-0.0505 -0.60867,-0.0339 -0.81753,0.30959 -0.12138,0.19962 -0.28213,0.49524 -0.35723,0.65693 -0.0751,0.16168 -0.25394,0.39871 -0.39743,0.52671 -0.22281,0.19877 -0.27547,0.20735 -0.36079,0.0588 -0.32846,-0.5719 -0.43254,-0.63978 -0.75541,-0.49267 -0.17182,0.0783 -0.61683,0.14234 -0.9889,0.14234 -0.37208,0 -0.74001,0.0635 -0.81762,0.14111 -0.22527,0.22527 -0.17011,1.41803 0.0941,2.03435 0.12936,0.30177 0.23519,0.66621 0.23519,0.80988 0,0.30644 0.54296,1.1975 0.95032,1.55958 0.15642,0.13904 0.64286,0.57803 1.08098,0.97553 0.86924,0.78867 1.44425,1.08233 2.79,1.42489 1.0225,0.26028 2.35922,0.24375 3.15202,-0.039 z m -37.01873,-0.96792 c 0.2416,-0.12494 0.4927,-0.47642 0.86108,-1.20533 0.28601,-0.56592 0.65756,-1.26708 0.82567,-1.55812 0.3201,-0.55419 1.09642,-2.12456 1.24984,-2.52824 0.0492,-0.12935 0.15647,-0.39394 0.23845,-0.58796 0.16299,-0.38574 0.15998,-0.37806 0.71301,-1.82269 0.21045,-0.54974 0.83312,-1.87266 1.38371,-2.93981 2.31643,-4.4897 2.28496,-4.41779 2.96741,-6.78201 0.10516,-0.36432 0.12206,-1.53098 0.0656,-4.52731 -0.11606,-6.15614 -0.29882,-12.62601 -0.42128,-14.91383 -0.0606,-1.13183 -0.14648,-2.73248 -0.19089,-3.557 l -0.0807,-1.49913 -0.27797,0.32321 -0.27797,0.3232 -1.4e-4,8.78782 c -9e-5,5.63933 0.048,9.32579 0.13428,10.28935 0.13301,1.48564 0.004,3.94977 -0.24707,4.73533 -0.1354,0.42293 -0.5501,1.85044 -0.71739,2.46944 -0.38796,1.4356 -1.11552,3.1577 -2.53372,5.99722 -0.85601,1.71391 -1.67202,3.38079 -1.81336,3.70417 -0.14133,0.32338 -0.32771,0.74671 -0.41417,0.94074 -0.0865,0.19403 -0.3926,0.88194 -0.68031,1.5287 -0.28771,0.64676 -0.68763,1.53444 -0.88872,1.97262 -0.50073,1.09113 -0.49243,1.15843 0.10472,0.84963 z m -9.87431,-7.99249 c 0.71559,-1.41225 1.44129,-2.81107 1.61266,-3.10847 0.36556,-0.6344 2.15014,-3.33602 2.26027,-3.42175 0.0863,-0.0672 1.14103,-1.58502 2.12452,-3.05741 1.3076,-1.95759 1.6597,-2.61874 1.78478,-3.35138 0.0662,-0.38806 0.16721,-0.75583 0.22435,-0.81727 0.0571,-0.0615 0.10388,-0.2303 0.10388,-0.37524 0,-0.14494 0.0471,-0.29261 0.1046,-0.32817 0.0575,-0.0355 0.13397,-0.23711 0.16986,-0.44791 0.0359,-0.2108 0.12207,-0.64785 0.19151,-0.97123 0.28461,-1.32556 0.37679,-2.22847 0.45325,-4.43932 0.0442,-1.27746 0.0539,-2.32174 0.0215,-2.32062 -0.0323,0.001 -0.29692,0.21569 -0.58796,0.47682 -0.29104,0.26114 -0.71438,0.6175 -0.94074,0.79192 -0.22637,0.17442 -0.54387,0.43784 -0.70556,0.58538 -0.49689,0.45342 -0.56844,0.45643 -3.35139,0.141 -2.27969,-0.25838 -4.4207,-0.63976 -6.70277,-1.19396 -0.25871,-0.0628 -0.63803,-0.14215 -0.84294,-0.17627 l -0.37256,-0.062 0.0532,0.51152 c 0.16147,1.55314 0.46191,3.56959 1.51292,10.1541 0.53877,3.3754 0.62718,3.9862 1.00425,6.93796 0.21108,1.65237 0.35706,3.47761 0.4261,5.32794 0.037,0.99009 0.087,1.78036 0.11118,1.75616 0.0242,-0.0242 0.6295,-1.19949 1.34509,-2.61175 z m 41.2652,1.04682 c -0.2077,-0.25026 -0.49264,-0.221 -0.36112,0.0371 0.0577,0.11318 0.17719,0.36067 0.26558,0.54996 l 0.16071,0.34418 0.0374,-0.38126 c 0.0206,-0.20969 -0.0256,-0.45717 -0.10259,-0.54996 z m 0.65313,-0.2863 c 0.04,-0.0647 0.0166,-0.11759 -0.0519,-0.11759 -0.0685,0 -0.12453,0.0529 -0.12453,0.11759 0,0.0647 0.0233,0.11759 0.0519,0.11759 0.0285,0 0.0846,-0.0529 0.12453,-0.11759 z m 6.35,-0.7601 0.35278,-0.16154 -0.43524,-0.01 c -0.23938,-0.005 -0.74004,-0.0889 -1.11258,-0.18598 -0.37254,-0.097 -0.78237,-0.14309 -0.91074,-0.10234 -0.19755,0.0627 -0.15309,0.11607 0.28943,0.3475 0.59128,0.30922 1.29126,0.35234 1.81635,0.11191 z m -22.63657,-34.73252 c 1.6045,-0.18756 2.15091,-0.29948 2.20138,-0.45088 0.0666,-0.19984 -0.49782,-0.54273 -1.61342,-0.98013 -0.54975,-0.21554 -1.303,-0.54229 -1.67389,-0.72612 -1.18365,-0.58664 -1.73476,-0.73156 -2.79463,-0.7349 -0.88251,-0.003 -1.05461,0.0328 -1.46991,0.30432 -0.52265,0.34164 -1.05493,0.88621 -1.47498,1.50904 -0.15266,0.22636 -0.31189,0.43803 -0.35383,0.47037 -0.0877,0.0676 -0.34665,0.54181 -0.34665,0.63477 0,0.18715 5.87528,0.16649 7.52593,-0.0265 z m -12.21687,-1.99002 c 0.41629,-0.43656 1.02029,-1.10404 1.34221,-1.4833 0.32192,-0.37925 0.64074,-0.74966 0.70849,-0.82314 0.23539,-0.25528 1.11154,-1.44888 1.11154,-1.51427 0,-0.0362 -0.27782,-0.13031 -0.61736,-0.20919 -0.33955,-0.0789 -0.88839,-0.29582 -1.21964,-0.4821 -1.33609,-0.75135 -1.8138,-0.31341 -2.03279,1.8636 -0.14963,1.48748 -0.21679,3.4423 -0.11825,3.44221 0.0379,-3e-5 0.4095,-0.35724 0.8258,-0.79381 z m -16.29991,-3.08773 c -0.0397,-0.0642 -0.17603,-0.11666 -0.30306,-0.11666 -0.2212,0 -0.22256,0.0128 -0.0323,0.3032 0.16975,0.25907 0.21386,0.27605 0.30306,0.11666 0.0574,-0.1026 0.0719,-0.23904 0.0323,-0.3032 z m 8.34965,117.24074 c -0.04,-0.0647 -0.0166,-0.11759 0.0519,-0.11759 0.0685,0 0.12454,0.0529 0.12454,0.11759 0,0.0647 -0.0233,0.11759 -0.0519,0.11759 -0.0285,0 -0.0846,-0.0529 -0.12453,-0.11759 z m -20.3125,-122.79707 c -0.3982,-0.61346 -0.54364,-2.0594 -0.27202,-2.70443 0.24211,-0.57495 0.76671,-1.06812 1.33603,-1.25602 0.38979,-0.12864 0.50801,-0.12289 0.82311,0.0401 0.20237,0.10465 0.42842,0.30327 0.50234,0.44138 0.13601,0.25415 0.0939,1.32819 -0.058,1.48012 -0.12194,0.12195 -0.30862,-0.23354 -0.23948,-0.45603 0.0329,-0.10575 -0.003,-0.33065 -0.0804,-0.49977 -0.11866,-0.26044 -0.21556,-0.3075 -0.63322,-0.3075 -0.58478,0 -1.00216,0.32802 -1.29456,1.01739 -0.16528,0.38965 -0.17154,0.53905 -0.0451,1.07536 0.0808,0.34257 0.19071,0.64996 0.24434,0.6831 0.13037,0.0806 0.12485,0.60355 -0.007,0.68519 -0.0576,0.0356 -0.18172,-0.0539 -0.27582,-0.19885 z m -4.64865,-0.79274 c 0,-0.22637 0.0242,-0.31897 0.0538,-0.20579 0.0296,0.11318 0.0296,0.29839 0,0.41158 -0.0296,0.11318 -0.0538,0.0206 -0.0538,-0.20579 z m -0.23281,-0.99954 c 0.001,-0.2587 0.0254,-0.35069 0.0535,-0.20441 0.0281,0.14627 0.0271,0.35794 -0.002,0.47037 -0.0294,0.11242 -0.0524,-0.007 -0.0511,-0.26596 z m 1.81263,-4.01775 c -0.1472,-0.1472 -0.0751,-1.0376 0.15948,-1.96848 0.25508,-1.01239 0.3009,-1.09235 0.99685,-1.73955 0.54875,-0.51031 1.02969,-0.7408 1.31628,-0.63083 0.16337,0.0627 0.10822,0.1321 -0.28027,0.35277 -0.9014,0.512 -1.31459,0.9878 -1.56672,1.80412 -0.12991,0.42059 -0.23364,1.09031 -0.23364,1.5084 0,0.54825 -0.0425,0.75197 -0.15679,0.75197 -0.0862,0 -0.19207,-0.0353 -0.23519,-0.0784 z"
       id="path49" /></g></svg>
