<?xml version="1.0" encoding="UTF-8" standalone="no"?>
<!-- Created with Inkscape (http://www.inkscape.org/) -->

<svg
   width="104.12961mm"
   height="71.256401mm"
   viewBox="0 0 104.12962 71.256402"
   version="1.1"
   id="svg1"
   xml:space="preserve"
   xmlns="http://www.w3.org/2000/svg"
   xmlns:svg="http://www.w3.org/2000/svg"><defs
     id="defs1" /><g
     id="layer1"
     transform="translate(183.40728,-1534.9326)"><path
       style="fill:#4d4d4d;stroke-width:2.5"
       d="m -141.8287,1601.8752 c 0,-4.566 -0.05,-4.7132 -1.48827,-4.365 -0.81855,0.1975 -7.77045,0.5698 -15.44868,0.8255 l -13.9604,0.465 -3.89702,-1.784 c -6.12228,-2.803 -6.9394,-3.8457 -6.4769,-8.2657 0.462,-4.4153 2.20172,-11.1965 2.9989,-11.689 1.0388,-0.642 0.58967,-1.9355 -0.90193,-2.5975 -0.83607,-0.371 -1.7453,-1.6203 -2.10615,-2.8938 -0.60465,-2.1335 -0.49482,-2.3615 2.298,-4.7702 1.61313,-1.391 4.1638,-3.1918 5.66813,-4.0015 2.55525,-1.3753 2.97247,-1.4153 6.34295,-0.6068 2.8731,0.6893 3.9176,0.6998 5.12917,0.053 3.53765,-1.8932 5.55905,-2.0472 11.76878,-0.8962 l 6.13227,1.1367 7.42763,-2.5235 c 4.08517,-1.388 8.5734,-3.102 9.97382,-3.809 3.7018,-1.8687 8.18725,-6.2467 9.0364,-8.8197 0.87285,-2.6448 1.31158,-2.815 9.1192,-3.5353 l 6.02258,-0.5557 4.00107,-3.4663 c 2.2006,-1.9065 4.001075,-3.7125 4.001075,-4.0137 0,-0.866 2.1491,-1.1098 4.1028,-0.4653 1.081475,0.3568 2.518625,1.8098 3.638,3.678 2.640375,4.4065 2.928425,5.8398 1.694,8.4283 l -1.067525,2.2387 2.52085,2.4483 c 3.19715,3.105 4.67365,6.5005 5.636925,12.963 0.9486,6.364 0.26715,10.1797 -3.40995,19.0935 -4.29615,10.4145 -6.353225,11.6602 -19.398945,11.748 -3.63803,0.025 -12.67028,0.3985 -20.07165,0.8312 -11.2639,0.6585 -13.5081,0.9575 -13.7701,1.8353 -0.91135,3.0532 -2.97685,6.6822 -4.1652,7.3182 -1.30023,0.6958 -1.34983,0.5488 -1.34983,-4.0027 z m 3.80135,-1.936 c 1.5552,-3.7557 1.12458,-6.855 -0.9944,-7.1567 -1.0615,-0.1525 -1.495,0.1325 -1.5226,0.9922 -0.02,0.662 -0.15925,3.4145 -0.30692,6.117 -0.231,4.2265 -0.1385,4.7815 0.66147,3.9688 0.51143,-0.5195 1.48453,-2.2843 2.16245,-3.9213 z m 48.67865,-8.793 c 1.396925,-0.8027 2.58755,-1.7572 2.645825,-2.121 0.16475,-1.029 -9.401125,-1.8855 -10.53605,-0.9435 -1.220548,1.0128 -1.178548,1.8913 0.16125,3.3718 1.4637,1.6175 4.5965,1.4927 7.729025,-0.3073 z m -47.58395,-3.935 c 0.829,-2.3197 0.0867,-3.8085 -1.89872,-3.8085 -1.56685,0 -1.6744,0.21 -1.6744,3.286 0,3.1288 0.0712,3.2598 1.48827,2.7388 0.81855,-0.301 1.75675,-1.2983 2.08485,-2.2163 z m 39.86015,-3.1887 c 1.23595,-1.2358 -2.097453,-13.5295 -4.12472,-15.2118 -1.25745,-1.0437 -1.19345,-1.839 0.39797,-4.9465 1.093897,-2.136 1.323547,-3.76 1.242497,-8.786 -0.0918,-5.685 -0.23675,-6.3162 -1.861947,-8.0955 l -1.7625,-1.9297 -6.59067,0.3917 c -6.1887,0.3675 -8.24433,0.946 -8.24433,2.3203 0,0.3192 0.68588,0.5805 1.52415,0.5805 0.83828,0 2.93223,0.893 4.65318,1.9842 1.72097,1.0915 3.54762,1.9845 4.05922,1.9845 0.5116,0 1.11413,0.2975 1.33898,0.6615 0.24525,0.3968 -0.5993,0.661 -2.1107,0.6605 -1.7326,-5e-4 -3.11978,-0.517 -4.4414,-1.6535 -2.91575,-2.5077 -5.10565,-2.1665 -8.73473,1.3605 -3.9127,3.8028 -6.67032,5.203 -14.2307,7.2263 -3.32267,0.8892 -6.20435,1.78 -6.40367,1.9792 -0.43318,0.4333 1.88415,2.282 2.8978,2.312 0.39102,0 2.89882,-0.723 5.57287,-1.6325 2.67408,-0.9095 5.81548,-1.6537 6.98093,-1.6537 1.7748,0 2.25747,0.3492 2.97157,2.1497 1.25833,3.173 1.78703,3.652 3.6403,3.2978 1.14825,-0.22 2.10978,-1.1825 3.04513,-3.0495 2.81677,-5.6225 6.55502,-8.351 11.44122,-8.351 h 3.0094 v 2.9612 c 0,2.3445 -0.31002,3.1623 -1.48827,3.9253 -1.70338,1.1032 -7.49668,3.2822 -11.45325,4.3077 -1.4789,0.3835 -3.3969,1.4508 -4.26223,2.3718 -1.4426,1.5357 -1.48532,1.7627 -0.5143,2.7337 0.90808,0.908 1.23268,0.9298 2.27785,0.1525 0.67035,-0.499 1.21885,-1.3402 1.21885,-1.8695 0,-0.8935 6.62823,-3.5555 10.68355,-4.2907 2.96948,-0.5385 1.53313,0.8365 -1.75387,1.679 -1.819,0.466 -3.30728,1.089 -3.30728,1.384 0,0.295 -0.37207,0.543 -0.82682,0.551 -1.21303,0.025 -4.13413,2.4197 -4.13413,3.394 0,1.3405 -4.13142,3.7875 -5.70177,3.3767 -1.21603,-0.318 -1.35248,-0.7305 -1.07008,-3.2362 0.3078,-2.7308 0.24875,-2.8528 -1.20142,-2.4888 -1.33898,0.336 -1.55093,0.1125 -1.73685,-1.8272 -0.17125,-1.7863 -0.46525,-2.1693 -1.53468,-1.9985 -0.7276,0.115 -1.67517,0.6667 -2.10572,1.2237 -1.09993,1.4228 -2.38425,0.4063 -1.904,-1.507 0.32197,-1.283 0.1405,-1.5815 -0.9606,-1.5815 -2.61495,0 -7.97503,3.267 -8.8761,5.41 -0.55123,1.311 -1.02728,1.7543 -1.3401,1.2483 -0.5535,-0.8958 0.8263,-4.674 1.7069,-4.674 0.31965,0 0.5812,-0.2623 0.5812,-0.583 0,-0.6978 -4.23988,-1.7955 -9.2652,-2.399 -3.14915,-0.3783 -3.89458,-0.24 -5.50088,1.024 -1.68175,1.3227 -2.18352,1.398 -5.2869,0.7905 -4.7994,-0.939 -7.2059,-0.4245 -8.74852,1.8707 -1.09705,1.6323 -1.34853,1.7463 -1.70258,0.7713 -0.2285,-0.629 6.8e-4,-1.9623 0.50923,-2.9628 0.83652,-1.6455 0.8127,-1.8265 -0.25,-1.8975 -2.13773,-0.1425 -3.042,0.175 -5.20338,1.8228 -2.40957,1.838 -3.06282,3.0577 -2.46775,4.6085 0.31463,0.82 0.97118,0.971 2.88788,0.6645 1.36437,-0.2175 4.3261,-0.205 6.5816,0.033 3.60687,0.377 4.51152,0.7817 7.50932,3.3605 4.80855,4.1362 8.7329,5.9527 15.35758,7.1077 8.51452,1.485 9.82945,1.3703 11.64765,-1.0157 2.54527,-3.34 6.49952,-7.603 6.49952,-7.007 0,1.0775 -2.1415,5.0572 -2.7212,5.0572 -0.32235,0 -0.58607,0.4143 -0.58607,0.9205 0,2.5093 5.98967,1.551 14.92672,-2.3882 9.20903,-4.0593 9.70415,-4.2088 10.34933,-3.1255 0.313,0.5255 1.90492,3.2622 3.53767,6.0815 2.898497,5.0052 3.927677,5.8547 5.359125,4.4232 z m -46.17025,-9.0013 c -6.5809,-4.5057 -10.59685,-7.6092 -10.26952,-7.9367 0.45632,-0.4563 2.5881,0.719 8.75277,4.8255 2.93558,1.9552 5.82085,3.5552 6.4117,3.5552 0.59088,0 1.51528,-0.6295 2.05428,-1.399 0.86475,-1.2347 4.54852,-3.8927 5.39487,-3.8927 0.17325,0 0.31475,0.423 0.31475,0.94 0,0.9857 -7.05885,6.336 -8.35935,6.336 -0.41395,0 -2.34872,-1.0928 -4.2995,-2.4283 z m -13.3034,-11.2177 c 2.84808,-0.7633 1.56123,-1.7428 -1.85792,-1.4143 -4.27598,0.411 -6.0294,1.8353 -2.2431,1.8223 1.437,0 3.28247,-0.1875 4.10102,-0.408 z m 60.75195,-8.2843 c 0.60645,-0.9812 0.96405,-3.0895 1.4974,-8.8275 0.23675,-2.5465 0.660475,-4.9872 0.941725,-5.4237 0.532925,-0.8273 -1.324775,-2.183 -2.990975,-2.183 -0.498525,0 -2.074773,1.0702 -3.502803,2.3782 -2.517397,2.3058 -2.556547,2.4073 -1.286797,3.3383 0.72025,0.528 2.177497,0.8715 3.2383,0.7637 1.10915,-0.1125 2.046075,0.155 2.204875,0.6305 0.1655,0.4955 -0.3104,0.8268 -1.18795,0.8268 -1.353898,0 -1.437598,0.235 -1.112375,3.1202 0.1935,1.7163 0.678625,3.2293 1.078225,3.3625 0.399575,0.1325 0.72195,0.7383 0.716375,1.3445 -0.01,0.9535 -0.09675,0.9685 -0.651325,0.11 -0.547975,-0.848 -0.642675,-0.8237 -0.651325,0.165 -0.0125,1.311 0.996075,1.5435 1.70665,0.3938 z m 4.8978,-4.1972 c 0.6744,-0.8125 0.6292,-0.9923 -0.24975,-0.9923 -0.590225,0 -1.073175,0.4465 -1.073175,0.9923 0,0.5457 0.1125,0.9922 0.24975,0.9922 0.13725,0 0.620275,-0.4465 1.073175,-0.9922 z"
       id="path73" /></g></svg>
