<?xml version="1.0" encoding="UTF-8" standalone="no"?>
<!-- Created with Inkscape (http://www.inkscape.org/) -->

<svg
   width="72.759407mm"
   height="161.95769mm"
   viewBox="0 0 72.759415 161.95769"
   version="1.1"
   id="svg1"
   xml:space="preserve"
   xmlns="http://www.w3.org/2000/svg"
   xmlns:svg="http://www.w3.org/2000/svg"><defs
     id="defs1" /><g
     id="layer1"
     transform="translate(19.82123,-463.02575)"><path
       style="fill:#4d4d4d"
       d="m 41.85787,624.71712 c -0.56187,-0.32545 -0.87771,-0.81472 -0.88157,-1.36566 -0.006,-0.84111 0.32703,-3.0114 0.58092,-3.78683 0.0684,-0.20877 0.36761,-1.14688 0.66499,-2.08468 0.29739,-0.9378 0.58309,-1.81093 0.63488,-1.94028 0.55764,-1.39267 1.39643,-4.60915 1.6406,-6.29121 0.061,-0.42039 0.19317,-1.2343 0.29367,-1.80869 0.38677,-2.21068 0.16813,-4.25892 -0.76091,-7.12834 -0.42156,-1.30203 -0.67735,-2.0122 -0.99533,-2.76343 -0.27119,-0.6407 -1.02372,-2.3391 -1.38074,-3.1162 -0.53507,-1.16468 -1.55447,-3.7223 -1.85134,-4.64491 -0.14568,-0.45273 -0.31179,-0.91503 -0.36914,-1.02734 -0.0573,-0.1123 -0.10427,-0.285 -0.10427,-0.38377 0,-0.0988 -0.0508,-0.27147 -0.11283,-0.38377 -0.0621,-0.11231 -0.30266,-0.78628 -0.53466,-1.49771 -0.232,-0.71144 -0.46808,-1.39935 -0.52463,-1.52871 -0.0565,-0.12935 -0.35241,-0.89072 -0.65747,-1.69192 -0.30507,-0.80121 -0.7855,-1.92751 -1.06763,-2.50289 -0.28213,-0.57537 -0.51297,-1.09283 -0.51297,-1.14989 0,-0.0571 -0.0397,-0.12139 -0.0882,-0.14295 -0.17682,-0.0786 -0.72345,-1.12791 -1.61314,-3.0966 -0.6505,-1.43943 -1.17114,-4.42062 -0.99341,-5.68831 0.0479,-0.34183 0.0821,-0.4208 0.092,-0.21244 0.037,0.78194 0.8502,4.68294 1.06765,5.12193 0.052,0.10497 0.21115,0.42898 0.35367,0.72002 0.24284,0.49592 0.71476,1.43384 0.96589,1.91967 0.70326,1.36048 1.65768,3.36107 1.91723,4.01875 0.17867,0.45274 0.37159,0.94222 0.42871,1.08774 0.0571,0.14552 0.15376,0.38364 0.21474,0.52916 0.2348,0.56029 0.94745,2.65034 0.94745,2.77866 0,0.0742 0.051,0.22684 0.11328,0.33914 0.0623,0.11231 0.30441,0.78628 0.53802,1.49771 0.23362,0.71144 0.47368,1.38541 0.53349,1.49771 0.0598,0.11231 0.10873,0.285 0.10873,0.38377 0,0.0988 0.0499,0.27147 0.11086,0.38378 0.061,0.1123 0.30756,0.73335 0.54797,1.38011 0.24041,0.64676 0.61386,1.56344 0.82988,2.03706 0.21603,0.47363 0.39277,0.88216 0.39277,0.90786 0,0.0257 0.12667,0.3261 0.28148,0.66757 0.44728,0.98653 1.13492,2.68376 1.3223,3.26368 0.0946,0.29269 0.21692,0.638 0.27187,0.76735 0.88189,2.076 1.28691,6.20004 0.82571,8.40787 -0.0608,0.29104 -0.19557,1.08479 -0.29951,1.76389 -0.10393,0.6791 -0.26865,1.52576 -0.36603,1.88148 -0.0974,0.35572 -0.21974,0.83197 -0.27193,1.05834 -0.20227,0.87742 -0.4797,1.76927 -1.06085,3.41018 -1.75357,4.95134 -1.82155,5.18338 -1.81323,6.18937 0.008,0.97366 0.20007,1.3604 0.82293,1.65742 l 0.40679,0.19399 0.31815,-0.23754 c 0.3173,-0.2369 0.78481,-1.26164 1.10982,-2.43264 0.17952,-0.64682 0.40258,-0.69403 0.37296,-0.0789 -0.0242,0.50234 -0.22161,1.62907 -0.33506,1.91237 -0.11416,0.28508 0.1511,0.60391 0.33844,0.4068 0.13715,-0.1443 0.584,-1.3914 0.71512,-1.99579 0.0792,-0.36527 0.41845,-0.44446 0.41845,-0.0977 0,0.12413 -0.084,0.55346 -0.1866,0.95405 -0.22864,0.89247 -0.0777,1.18337 0.29594,0.57046 0.13341,-0.21883 0.24276,-0.46474 0.243,-0.54646 2.4e-4,-0.0817 0.0484,-0.24048 0.10702,-0.35278 0.0586,-0.11231 0.16658,-0.42909 0.23991,-0.70396 0.0733,-0.27487 0.18411,-0.49977 0.24619,-0.49977 0.17318,0 0.13424,0.77226 -0.0753,1.49296 -0.19808,0.6814 -0.11781,0.95634 0.23922,0.81933 0.21441,-0.0823 0.43062,-0.54743 0.73286,-1.57661 0.35078,-1.19451 0.54882,-0.80259 0.32643,0.64603 l -0.0767,0.49977 h 0.23892 c 0.31254,0 0.54066,-0.46937 0.72262,-1.48681 0.0793,-0.44343 0.19095,-0.88562 0.24811,-0.98263 0.28941,-0.49128 0.70961,-1.47788 1.10182,-2.58704 0.55174,-1.56029 1.60488,-3.7483 1.85837,-3.86096 0.0485,-0.0216 0.0882,-0.23587 0.0882,-0.47625 0,-0.24038 0.0464,-0.48732 0.10314,-0.54876 0.20316,-0.22005 0.47233,-1.30325 0.53913,-2.16959 0.0595,-0.77137 -0.1008,-2.62678 -0.35809,-4.14514 -0.049,-0.28948 -0.0299,-0.44097 0.0557,-0.44097 0.0718,0 0.13046,0.18209 0.13046,0.40464 0,0.22255 0.0471,0.43372 0.1046,0.46928 0.0575,0.0355 0.13397,0.23711 0.16986,0.44791 0.0359,0.2108 0.12549,0.64785 0.19909,0.97123 0.24393,1.0717 0.26814,2.63441 0.0528,3.41018 -0.1077,0.38806 -0.24298,0.935 -0.30064,1.21544 -0.0577,0.28043 -0.32579,0.94189 -0.59585,1.46991 -1.29435,2.53066 -1.50615,2.97223 -1.50867,3.14529 -0.001,0.1024 -0.0338,0.21727 -0.0718,0.25527 -0.038,0.038 -0.21397,0.48338 -0.39105,0.98974 -0.17709,0.50636 -0.48996,1.23237 -0.69527,1.61336 -0.23421,0.43462 -0.37329,0.86091 -0.37329,1.14415 0,0.53884 -0.29657,1.35337 -0.62636,1.72032 -0.25384,0.28244 -0.65612,0.34617 -0.86522,0.13708 -0.0916,-0.0916 -0.17271,-0.0638 -0.2881,0.0989 -0.35565,0.50144 -0.93665,0.58931 -1.10065,0.16647 -0.0672,-0.17319 -0.0928,-0.17562 -0.21488,-0.0203 -0.31361,0.39915 -0.53996,0.50764 -0.73,0.34992 -0.14881,-0.1235 -0.2262,-0.1057 -0.44855,0.10319 -0.31487,0.29581 -0.57877,0.32181 -0.78191,0.077 -0.12684,-0.15284 -0.1904,-0.1377 -0.49379,0.11759 -0.42727,0.35952 -0.8319,0.36071 -1.4473,0.004 z m -27.76176,-7.0594 -0.19171,-0.29259 -0.29723,0.2338 c -0.37933,0.29838 -0.79472,0.29863 -1.00346,6.1e-4 l -0.16332,-0.23317 -0.22552,0.17064 c -0.34271,0.25931 -0.88148,0.22715 -0.9558,-0.0571 -0.062,-0.23718 -0.38685,-0.33592 -0.38685,-0.1176 0,0.0647 -0.18221,0.1176 -0.40491,0.1176 -0.28458,0 -0.45907,-0.0773 -0.5871604,-0.26022 -0.14608,-0.20855 -0.27704,-0.25337 -0.65966,-0.22574 -0.63089,0.0456 -0.98101,-0.19987 -1.2354,-0.86599 -0.47026,-1.23136 0.34953,-2.6976 2.5058104,-4.48176 1.17521,-0.9724 2.29577,-2.20445 3.26215,-3.58669 0.515,-0.73663 0.97708,-1.35696 1.02684,-1.37852 0.0498,-0.0216 0.0905,-0.0905 0.0905,-0.15327 0,-0.0627 0.29828,-0.48324 0.66284,-0.93445 0.36457,-0.45122 0.63258,-0.85066 0.59558,-0.88765 -0.0618,-0.0618 -0.99367,0.19245 -1.5524,0.42354 -0.44598,0.18445 -2.27688,0.69694 -3.73526,1.04553 -0.30814,0.0737 -1.1018904,0.13274 -1.7638904,0.13131 -1.50552,-0.003 -1.7916,-0.16016 -1.7916,-0.98249 0,-0.65113 0.41322,-1.1408 1.15233,-1.36555 1.7302404,-0.52613 3.2666204,-1.90121 4.9283204,-4.41092 1.37113,-2.07087 1.73926,-3.22226 1.73926,-5.4399 0,-1.26235 0.0264,-1.16258 -0.77783,-2.94179 -0.15427,-0.34132 -0.2805,-0.64667 -0.2805,-0.67855 0,-0.15262 -2.11785,-4.48289 -2.79689,-5.71867 -0.1891,-0.34415 -0.79547,-1.44593 -1.3474704,-2.44841 -1.41346,-2.56694 -2.17914,-4.20426 -3.0795,-6.58518 -0.30571,-0.80845 -0.60034,-1.57574 -0.65471,-1.7051 -0.0544,-0.12935 -0.23953,-0.63206 -0.41145,-1.11713 -0.17192,-0.48507 -0.41429,-1.14035 -0.5386,-1.45619 -0.1243,-0.31583 -0.22601,-0.6699 -0.22601,-0.78681 0,-0.11691 -0.0529,-0.24527 -0.11759,-0.28524 -0.0647,-0.04 -0.1176,-0.14523 -0.1176,-0.23392 0,-0.0887 -0.15461,-0.49566 -0.34358,-0.9044 -0.48492,-1.04885 -0.71105,-1.74085 -0.71304,-2.18198 -0.002,-0.39772 0.0216,-0.50573 0.60588,-2.79451 0.19812,-0.77611 0.38643,-1.58358 0.41847,-1.79438 0.032,-0.2108 0.10533,-0.41236 0.16286,-0.44791 0.0575,-0.0356 0.1046,-0.19133 0.1046,-0.34616 0,-0.15483 0.0485,-0.40306 0.10768,-0.55162 0.0592,-0.14856 0.24663,-0.79928 0.41645,-1.44604 0.16981,-0.64676 0.41206,-1.51989 0.53832,-1.94028 0.58816,-1.95827 1.05422,-3.77942 1.05422,-4.11946 0,-0.20561 -0.14331,-0.83129 -0.31847,-1.39039 -0.27142,-0.86637 -0.3187,-1.22499 -0.32005,-2.42765 -0.002,-1.64448 0.13925,-2.2111 0.99698,-4.00357 l 0.5653,-1.18135 0.0728,-1.40569 c 0.098,-1.89342 -0.0162,-2.68993 -0.7578,-5.28624 -0.0554,-0.19403 -0.18749,-0.67028 -0.29347,-1.05834 -0.10599,-0.38805 -0.30121,-1.10243 -0.43383,-1.5875 -0.13262,-0.48507 -0.26614,-1.01423 -0.29672,-1.17592 -0.0306,-0.16169 -0.0985,-0.39982 -0.15092,-0.52917 -0.0524,-0.12935 -0.16077,-0.47331 -0.24075,-0.76435 -0.42504,-1.54661 -0.73589,-2.62708 -0.77134,-2.68099 -0.0127,-0.0193 -0.22778,0.0819 -0.47792,0.22491 -0.69365,0.39665 -2.25247,0.39002 -3.0493,-0.013 -0.66968004,-0.33869 -1.63868004,-1.25409 -2.09840004,-1.98234 -0.76557996,-1.21275 -0.91963996,-1.62858 -1.17759996,-3.17856 -0.0902,-0.54229 -0.2086,-1.01854 -0.263,-1.05834 -0.13522,-0.0989 -0.84548,-0.91959 -1.27484,-1.47302 -0.19403,-0.25009 -0.40827,-0.5135 -0.4761,-0.58536 -0.0678,-0.0718 -0.40693,-0.50106 -0.75357,-0.95379 -1.04647,-1.36674 -1.75385,-3.11381 -1.76476,-4.35855 l -0.004,-0.47798 -1.5525297,-0.99192 c -0.85389,-0.54556 -1.63441,-1.08831 -1.73449,-1.20611 -0.10008,-0.1178 -0.6846699,-0.56235 -1.2990899,-0.98787 -0.61442,-0.42553 -1.14359,-0.8054 -1.17592,-0.84415 -0.0323,-0.0387 -0.32338,-0.27969 -0.64676,-0.5354 -0.76904,-0.60814 -3.32794,-3.1663 -3.76947,-3.76839 -0.18971,-0.25871 -0.37567,-0.49683 -0.41323,-0.52917 -0.12347,-0.1063 -1.0074,-1.45794 -1.34579,-2.05787 -0.5628,-0.9978 -0.73185,-1.38265 -1.0604,-2.41405 -0.48608,-1.52597 -0.50617,-1.62396 -0.57797,-2.81882 l -0.0671,-1.11713 0.18287,0.58796 c 0.10058,0.32338 0.22981,0.77317 0.28718,0.99954 0.52645,2.07716 0.96004,3.02646 2.33637,5.11528 1.49192,2.26422 3.40398,4.35449 5.54741,6.06441 0.76749,0.61227 2.0952799,1.52031 2.2230799,1.52031 0.0606,0 0.14216,0.0926 0.18123,0.20579 0.0705,0.20439 2.48738,1.79981 3.5131397,2.31911 1.31294,0.6647 2.90336,0.91525 4.22908,0.66624 0.83729996,-0.15727 1.99886996,-0.7014 2.55075,-1.19489 0.43053,-0.38498 0.4214,-0.38474 -0.64510004,0.0171 -0.72431,0.27291 -2.13976996,0.29192 -2.86741996,0.0385 -0.84133,-0.29299 -1.15637,-0.49483 -1.87684,-1.20243 -0.64646,-0.63492 -1.21028,-1.60057 -1.93783,-3.31888 -0.0958,-0.22636 -0.2970397,-0.70261 -0.4470997,-1.05833 -0.41634,-0.98689 -0.7366,-1.50479 -1.38862,-2.24552 -0.48661,-0.55282 -0.71125,-0.71074 -1.22239,-0.85933 -0.9564899,-0.27806 -3.1022499,-1.43061 -3.1955999,-1.71645 -0.0317,-0.097 -0.29771,-0.46743 -0.59118,-0.82314 -0.52833,-0.64041 -1.58533,-2.60738 -1.58533,-2.95016 0,-0.0978 -0.0433,-0.22808 -0.0961,-0.28952 -0.37574,-0.43665 -0.51574,-2.78147 -0.26916,-4.50798 0.36768,-2.57446 0.36628,-3.21144 -0.009,-4.16514 -0.0946,-0.2403 -0.0947,-0.36512 -3e-4,-0.4595 0.39305,-0.39305 0.79755,0.93992 0.69123,2.27782 -0.0377,0.4749 -0.12568,1.55137 -0.19541,2.39216 -0.14174,1.70891 -0.0708,3.20553 0.19787,4.17454 0.20015,0.72188 0.74766,1.91128 1.07519,2.33574 l 0.21442,0.27788 0.078,-1.7173 c 0.0429,-0.94452 0.15234,-2.26019 0.24315,-2.92371 0.44143,-3.22519 0.4589,-3.47715 0.30635,-4.41658 -0.2361,-1.45389 -0.71301,-2.64653 -1.22978,-3.07541 -0.19856,-0.16479 -0.24852,-0.65691 -0.0774,-0.76265 0.13424,-0.083 0.75274,0.61573 0.96045,1.08497 0.1379,0.31155 0.17537,0.3328 0.29596,0.16789 0.11888,-0.16259 0.20424,-0.16899 0.61441,-0.0461 0.57026,0.17085 2.4685399,0.36617 3.5998299,0.37038 0.59125,0.002 0.87194,-0.0495 1.02613,-0.18904 l 0.21224,-0.19208 0.58317,0.25088 c 0.3207397,0.13798 0.7692097,0.25087 0.9965997,0.25087 0.22739,0 0.72029,0.0793 1.09533,0.17627 1.89892,0.49089 3.24496996,1.64208 4.06817996,3.47926 0.52448,1.17051 0.55307,1.28975 0.55307,2.30665 v 1.01223 l 0.22909,-0.20733 c 0.56482004,-0.51115 0.90327004,-2.67444 0.57908004,-3.70132 -0.38804004,-1.22914 -0.74041004,-1.89962 -1.31552004,-2.50318 -1.15054996,-1.20746 -2.13703996,-1.82701 -3.33932996,-2.09724 -1.88247,-0.42309 -2.5878,-0.47906 -5.6783197,-0.45056 l -3.1161999,0.0287 v -0.27742 c 0,-0.4034 0.36018,-0.46797 3.0573999,-0.54807 2.7764,-0.0824 4.6402497,0.096 5.7620397,0.55154 0.12935,0.0525 0.48899,0.18712 0.7992,0.29909 0.31021,0.11197 0.79969,0.35304 1.08773,0.53571 0.28805,0.18267 0.52372,0.2861 0.52372,0.22984 0,-0.18971 -1.06476,-1.28838 -1.68126,-1.73481 -0.33649,-0.24366 -0.63826,-0.47591 -0.67059,-0.51612 -0.10434,-0.12971 -2.27175,-1.1486 -2.9744697,-1.39827 -1.19184,-0.42347 -2.52757,-0.60081 -3.44826,-0.45782 -0.7603499,0.11809 -2.3847499,0.62837 -2.5143099,0.78983 -0.0323,0.0403 -0.24401,0.17397 -0.47037,0.29705 -0.22637,0.12309 -0.63912,0.37444 -0.91724,0.55857 -0.27811,0.18413 -0.5317,0.33478 -0.56353,0.33478 -0.0948,0 -0.40998,0.26454 -0.9199,0.77219 -0.26419,0.26302 -0.71847,0.64161 -1.00952,0.84132 -1.2649,0.86796 -2.1549,2.25542 -2.86511,4.46653 -0.17044,0.53062 -0.31067,1.05979 -0.31162,1.17593 -9.5e-4,0.11613 -0.10394,0.52866 -0.22886,0.91671 l -0.22713,0.70556 0.004,-0.58797 c 0.002,-0.32337 0.0484,-0.879 0.10307,-1.23472 0.0924,-0.60082 0.16215,-0.91639 0.44273,-2.00314 0.10845,-0.42003 0.82478,-2.00401 0.9554,-2.1126 0.0389,-0.0323 0.21962,-0.2784 0.40161,-0.54681 0.37263,-0.54957 0.86348,-1.02217 1.53619,-1.47907 0.25114,-0.17059 0.701,-0.54435 0.99967,-0.83059 0.87304,-0.83668 3.08864,-2.10011 4.24694,-2.42177 0.29104,-0.0808 0.69167,-0.19628 0.89029,-0.25658 0.7577799,-0.23003 2.6231899,-0.0986 3.5194299,0.24793 0.12935,0.05 0.47331,0.18006 0.7643497,0.28898 2.69391,1.00818 4.81748,2.64152 5.54637996,4.26602 0.19513,0.43488 0.57789,1.08173 0.85059,1.43745 1.34658004,1.75653 1.79639004,3.74025 1.23553004,5.44875 -0.3166,0.96443 -0.99930004,1.88742 -1.43346004,1.93799 -0.17568,0.0205 -0.31941,0.0866 -0.31941,0.14699 0,0.16924 -0.35245,0.12989 -0.4203,-0.0469 -0.0331,-0.0862 0.0744,-0.4246 0.23888,-0.75203 0.32744,-0.65192 0.38317,-1.34255 0.16322,-2.02272 -0.58346,-1.80425 -1.65145996,-3.08977 -3.16913996,-3.81459 -1.2754,-0.60911 -1.44521,-0.56509 -0.73408,0.19027 1.4541,1.54454 2.3796,3.5504 2.645,5.73264 0.059,0.48507 0.0865,0.98778 0.0611,1.11713 -0.0268,0.13678 -0.0529,0.0782 -0.0622,-0.14005 -0.009,-0.20638 -0.0689,-0.40794 -0.13361,-0.44792 -0.0647,-0.04 -0.11759,-0.1931 -0.11759,-0.34029 0,-0.467 -0.47602,-1.85086 -0.97509,-2.83471 -0.89948,-1.77321 -2.68356,-3.60659 -3.9182997,-4.02656 -0.22148,-0.0753 -0.94144,-0.10098 -1.82269,-0.0649 -1.34753,0.0551 -3.0622499,-0.0692 -3.7400899,-0.27126 -0.24668,-0.0735 -0.27253,-0.0549 -0.19483,0.13993 0.34885,0.87493 0.4372,1.57809 0.37541,2.98811 -0.0354,0.80845 -0.11723,1.78741 -0.1818,2.17547 -0.0646,0.38805 -0.16815,1.04951 -0.23019,1.4699 -0.062,0.4204 -0.1362,0.9231 -0.1648,1.11713 -0.0286,0.19403 -0.029,0.26018 -8.9e-4,0.14699 0.0281,-0.11318 0.10035,-0.20578 0.16053,-0.20578 0.0602,0 0.10941,-0.0687 0.10941,-0.1527 0,-0.44473 1.68631,-1.67871 2.08498,-1.52572 0.2855699,0.10958 0.1462999,0.34095 -0.33234,0.55213 -0.63914,0.28198 -1.23775,0.82053 -1.48037,1.33182 -0.10846,0.22856 -0.29347,0.44074 -0.41112,0.47151 -0.18518,0.0484 -0.21393,0.1872 -0.21393,1.03279 0,1.20705 0.19025,2.11473 0.54464,2.59847 0.32158,0.43894 2.3433299,1.48877 3.3710499,1.75047 0.81351,0.20715 3.1021597,0.23244 3.5753097,0.0395 0.97036,-0.39568 1.21183,-0.55186 1.86755,-1.20791 0.74107,-0.74143 1.36722,-1.84575 1.52211,-2.68449 0.0792,-0.42865 0.29064,-0.50956 0.29064,-0.1112 0,0.29561 0.81895996,1.25903 1.30952996,1.54051 0.76233,0.43743 1.27348004,0.32964 3.32008004,-0.70012 0.509,-0.2561 0.84134,-0.46564 0.73853,-0.46564 -0.2752,0 -0.93248,-0.39529 -1.96802,-1.18358 -0.96991,-0.73833 -1.28346004,-1.08759 -1.28346004,-1.42962 0,-0.31674 0.16659,-0.25814 0.90859004,0.31963 1.69884,1.32284 1.94585,1.47042 2.46111,1.47042 0.39173,0 0.51058,0.0491 0.56966,0.23519 0.0909,0.28654 0.17853,0.28768 0.99953,0.0131 0.99972,-0.33442 2.875,-0.63552 3.58915,-0.5763 l 0.64419,0.0534 v -0.22635 c 0,-0.12449 -0.33073,-0.55485 -0.73496,-0.95636 -0.61517,-0.61103 -0.8691,-0.77372 -1.5581,-0.99821 -1.10485,-0.35999 -2.78679,-0.60186 -4.18529,-0.60186 -0.88719,0 -1.1904,-0.042 -1.33316,-0.18478 -0.21071,-0.21071 -0.2217,-0.28043 -0.0796,-0.50473 0.0787,-0.12429 0.28865,-0.14157 0.9332,-0.0768 1.37707,0.13829 2.39161,-0.33578 2.79751,-1.30723 0.254,-0.6079 0.19778,-0.65826 -0.31783,-0.28475 -0.59828,0.43338 -1.29056,0.54484 -2.16653,0.34881 -0.80088,-0.17923 -1.19034,-0.45028 -1.07582,-0.74873 0.0638,-0.16615 0.15618,-0.19105 0.46058,-0.12409 0.20946,0.0461 0.78596,0.10878 1.28112,0.13935 l 0.90029,0.0556 0.53887,-0.51632 c 0.32672,-0.31306 0.56812,-0.66261 0.61318,-0.88792 0.0922,-0.46097 0.35061,-0.70723 0.54166,-0.51618 0.0989,0.0988 0.0976,0.21054 -0.005,0.43564 -0.0759,0.16649 -0.13792,0.69063 -0.13792,1.16476 0,0.93175 -0.17139,1.48031 -0.63445,2.03061 l -0.29037,0.3451 0.72699,0.14635 c 2.24053,0.45107 3.55693,1.34933 4.0532004,2.76578 0.16243,0.46359 0.2815,0.60868 0.61315,0.74713 1.06972,0.44659 1.45082,0.65904 2.16745,1.20831 1.22346,0.93773 2.51268,2.30424 4.15796,4.40721 0.61701,0.78866 3.55237,5.26904 3.55237,5.42216 0,0.23662 2.91041,4.39821 3.19238,4.56477 l 0.33411,0.19737 -0.31882,-0.74123 c -0.33114,-0.76988 -1.42312,-2.91815 -2.25962,-4.44538 -1.11257,-2.03128 -2.35137,-4.66126 -2.88026,-6.11482 -0.1765,-0.48507 -0.36958,-1.00101 -0.42907,-1.14653 -0.0595,-0.14552 -0.15633,-0.38364 -0.21519,-0.52916 -0.0589,-0.14552 -0.25056,-0.71438 -0.42599,-1.26412 -0.17543,-0.54975 -0.35976,-1.10537 -0.40962,-1.23473 -0.0499,-0.12935 -0.22512,-0.68497 -0.38947,-1.23472 -0.16434,-0.54974 -0.4081,-1.35456 -0.54169,-1.78848 -0.2626,-0.853 -0.30684,-1.33311 -0.13275,-1.4407 0.0606,-0.0374 0.27915,0.47538 0.48573,1.13959 0.20657,0.6642 0.46993,1.49869 0.58522,1.85441 0.11529,0.35571 0.40154,1.2553 0.63611,1.99907 0.23456,0.74377 0.47339,1.45815 0.53072,1.5875 0.0573,0.12935 0.32079,0.80911 0.58546,1.51058 0.69341,1.8378 1.52302,3.60999 2.84346,6.07414 1.05763,1.9737 2.16079,4.15642 2.43672,4.8213 0.14763,0.35572 0.31789,0.73864 0.37836,0.85095 0.0605,0.1123 0.10995,0.27707 0.10995,0.36614 0,0.57353 2.06199,1.68416 4.82129,2.59686 0.54975,0.18184 1.10537,0.37054 1.23473,0.41932 0.12935,0.0488 0.71143,0.23776 1.29351,0.41996 0.58209,0.18219 1.13771,0.36947 1.23473,0.41616 0.097,0.0467 0.38805,0.17452 0.64676,0.28403 1.52013,0.64352 2.52824,1.27457 2.52824,1.58262 0,0.28573 -0.3819,0.23559 -1.08179,-0.14202 -0.6111,-0.3297 -1.72739,-0.81109 -3.21034,-1.38444 -0.12935,-0.05 -0.87019,-0.28524 -1.6463,-0.52274 -0.77611,-0.23749 -1.51694,-0.47683 -1.6463,-0.53186 -0.12935,-0.055 -0.59306,-0.23725 -1.03047,-0.40495 -1.0623,-0.40727 -1.90045,-0.80149 -1.94854,-0.91648 -0.0216,-0.0515 -0.0859,-0.0937 -0.1429,-0.0937 -0.25079,0 -1.77245,-1.09712 -2.46346,-1.77617 -0.36296,-0.35667 -2.35213,-3.32344 -2.35213,-3.50811 0,-0.0687 -0.0529,-0.12498 -0.11759,-0.12498 -0.0647,0 -0.11759,-0.0517 -0.11759,-0.11486 0,-0.0961 -2.38806,-3.93091 -2.67455,-4.29486 -0.0509,-0.0647 -0.27234,-0.40025 -0.49206,-0.74572 -0.21973,-0.34547 -0.45703,-0.68943 -0.52733,-0.76435 -0.0703,-0.0749 -0.28547,-0.34789 -0.47814,-0.60659 -0.61213,-0.82189 -0.90535,-1.1462 -2.2327,-2.46945 -1.51861,-1.5139 -1.78548,-1.73174 -2.64985,-2.16296 -1.36888,-0.68291 -2.5449304,-0.87127 -4.0483404,-0.6484 -2.07009,0.30688 -3.44243,0.79532 -4.95735,1.76441 -0.79485,0.50845 -1.62482,0.87056 -1.99539004,0.87056 -0.4495,0 -1.12368,-0.43071 -1.77063,-1.13119 l -0.60086996,-0.65059 -0.0688,0.34411 c -0.1338,0.66901 -0.67071,1.6523 -1.19903,2.1959 -0.58516,0.60209 -1.77256,1.22498 -2.5284,1.32636 -0.25853,0.0347 -0.47006,0.0991 -0.47006,0.14315 0,0.0441 0.16079,0.23416 0.35731,0.42243 0.5304,0.50816 0.70103,0.94196 0.70103,1.78231 0,0.71701 -0.15335,1.17347 -0.61063,1.81765 -0.32052,0.45153 1.4883,2.69177 2.61244,3.23553 1.67723,0.8113 2.94480996,0.69514 4.50296,-0.41262 0.4032,-0.28666 0.6027,-0.36631 0.69251,-0.27649 0.0898,0.0898 0.18371,0.0551 0.32595,-0.12057 0.20214,-0.24964 0.47306,-0.20761 0.47306,0.0734 0,0.24589 -0.9362,1.62105 -1.39687,2.05182 -0.51993,0.48618 -1.59114004,1.19327 -1.80776004,1.19327 -0.0872,0 -0.20879,0.044 -0.27023,0.0978 -0.25501,0.22317 -1.19446996,0.3865 -2.23547996,0.38864 -1.21198,0.002 -1.71539,-0.10922 -2.8175,-0.62515 -0.21637,-0.10129 -0.33143,-0.10366 -0.42631,-0.009 -0.17589,0.17589 0.1459,1.59166 0.53733,2.36412 0.24406,0.48162 1.34917,2.04622 1.59058,2.25192 0.13134,0.11191 1.24138,1.48198 1.43353,1.76933 0.30003,0.4487 0.37833,0.19863 0.21165,-0.6759 -0.15635,-0.8203 -0.51259,-1.73746 -0.78195,-2.01318 -0.20232,-0.2071 -0.19592,-0.72655 0.009,-0.72655 0.19089,0 0.68025,0.71414 0.88638,1.29352 0.18909,0.53147 0.35083,1.52812 0.48665,2.99861 0.16624,1.79996 0.2227,2.02722 0.77615996,3.12464 0.89144,1.76756 2.31247004,2.93138 3.57927004,2.93138 0.90482,0 1.74513,-0.33728 2.35611,-0.94568 1.07714,-1.0726 1.34023,-2.28817 0.98216,-4.53801 -0.11826,-0.74311 0.13871,-0.75658 0.34189,-0.0179 0.33463,1.21658 0.33665,2.131 0.008,3.43189 -0.0639,0.25258 -0.0494,0.31815 0.0559,0.25306 0.0782,-0.0483 0.23142,-0.009 0.34053,0.0863 0.1091,0.0958 0.42116,0.28621 0.69346,0.4231 0.68232,0.34301 2.02884,0.32962 3.8558404,-0.0384 1.23189,-0.24811 1.43322,-0.26261 1.5852,-0.11418 0.1442,0.14084 0.14829,0.21134 0.0238,0.41067 -0.20149,0.32264 -0.11651,0.62055 0.56762,1.98982 1.14082,2.28331 3.56996,5.09508 5.41969,6.27335 l 0.34118,0.21734 0.0219,-0.8053 c 0.0121,-0.44292 0.0299,-1.4537 0.0396,-2.24618 0.0311,-2.53684 0.14427,-1.67127 0.22222,1.69941 0.0416,1.79808 0.12705,4.54672 0.18993,6.10808 0.15276,3.79319 0.14503,6.10462 -0.0221,6.61902 -0.075,0.23096 -0.33452,0.84326 -0.57659,1.36067 -0.78443,1.67668 -0.81616,1.78928 -0.80738,2.86598 0.0124,1.52428 0.11693,1.65583 0.55366,0.69689 0.19739,-0.43343 0.41631,-0.85676 0.48649,-0.94074 0.0702,-0.084 0.22483,-0.28017 0.34369,-0.43598 0.2212,-0.28998 0.48937,-0.25844 0.48937,0.0576 0,0.0946 -0.13455,0.37529 -0.299,0.62379 l -0.299,0.45183 0.299,0.79437 c 0.33364,0.88641 0.37147,1.30822 0.1481,1.65156 -0.083,0.12757 -0.22264,0.44124 -0.31032,0.69705 -0.0877,0.2558 -0.36903,0.73028 -0.62523,1.0544 -0.70288,0.88921 -0.30593,0.82067 0.56886,-0.0982 0.82744,-0.86915 1.01192,-1.20929 1.21731,-2.24443 0.29399,-1.48169 0.46553,-1.94028 0.72579,-1.94028 0.13649,0 0.13233,0.54899 -0.006,0.80768 -0.0601,0.11234 -0.19868,0.65125 -0.30792,1.19759 -0.24709,1.2358 -0.62779,2.03426 -1.36349,2.85969 -0.60747,0.68156 -0.67226,0.83311 -0.40075,0.9373 0.21539,0.0826 0.6749,-0.36615 1.37706,-1.34495 1.048,-1.4609 1.38063,-2.41154 1.38819,-3.96734 0.003,-0.63694 0.0426,-0.84919 0.15118,-0.81201 0.10702,0.0367 0.14376,0.41501 0.1351,1.39151 -0.0108,1.21575 -0.08,1.69683 -0.34541,2.39951 -0.15598,0.41303 0.59229,-0.68251 0.88349,-1.29351 0.2164,-0.45405 0.27976,-0.78215 0.27816,-1.44051 -10e-4,-0.59803 0.0412,-0.85255 0.14277,-0.85255 0.20158,0 0.2876,0.27787 0.2876,0.92902 0,0.9619 -0.41348,2.03119 -1.39141,3.5983 -0.37934,0.60788 -0.0382,0.33523 0.49771,-0.39776 0.62478,-0.85457 1.13938,-1.92585 1.3148,-2.7371 0.20432,-0.94496 0.085,-1.95653 -0.47634,-4.03829 -0.31835,-1.18061 -0.41512,-2.35385 -0.41483,-5.02927 3.3e-4,-2.97469 0.17747,-4.6064 0.83913,-7.72953 0.18826,-0.88862 0.30709,-1.53383 0.51976,-2.82222 0.28191,-1.70791 0.28009,-5.42087 -0.004,-7.34954 -0.11416,-0.77611 -0.24582,-1.67106 -0.29257,-1.98878 -0.0524,-0.35598 -0.17439,-0.65007 -0.31794,-0.7663 -0.12811,-0.10374 -0.61656,-0.95044 -1.08544,-1.88155 -0.77555,-1.54009 -1.2113,-2.36813 -1.95366,-3.71244 -0.52403,-0.94897 -1.40855,-2.46359 -2.23186,-3.82176 -0.99846,-1.64713 -3.30575,-5.08327 -4.14543,-6.17361 -0.0498,-0.0647 -0.4596,-0.6203 -0.91065,-1.23473 -0.45104,-0.61442 -0.85043,-1.14358 -0.88753,-1.17592 -0.0371,-0.0323 -0.22341,-0.27046 -0.41402,-0.52917 -0.19061,-0.2587 -0.41305,-0.54064 -0.49432,-0.62653 -0.32929,-0.348 -0.41147,-0.62853 -0.23563,-0.80436 0.14658,-0.14659 0.22307,-0.10233 0.5827,0.3371 0.47881,0.58506 2.78398,3.66354 3.38046,4.51449 1.03025,1.46979 2.35866,3.48227 2.35866,3.57327 0,0.0554 0.0427,0.11842 0.0949,0.13998 0.0944,0.039 2.49212,3.94387 2.49212,4.05857 0,0.033 0.0984,0.20053 0.21861,0.3722 0.2731,0.38994 1.47631,2.65778 2.45774,4.63239 0.4095,0.82392 0.84126,1.54979 0.95945,1.61305 0.24565,0.13147 0.37786,0.61259 0.64765,2.35697 0.10504,0.6791 0.24256,1.52895 0.30562,1.88856 0.15078,0.85996 0.14739,4.94466 -0.005,5.95857 -0.48706,3.24176 -0.72013,4.76482 -0.8146,5.32324 -0.57208,3.3816 -0.78689,6.36996 -0.60016,8.34908 0.0971,1.02868 0.16878,1.45683 0.46289,2.76342 0.5024,2.23195 0.60098,3.42433 0.3597,4.35093 -0.16854,0.64724 -0.3158,0.94155 -0.90016,1.79892 -0.27761,0.40732 -0.50475,0.76905 -0.50475,0.80384 0,0.0348 -0.19844,0.34866 -0.44097,0.69749 -0.38083,0.54772 -0.95875,0.96407 -1.11766,0.80517 -0.0275,-0.0275 -0.14598,0.0562 -0.2634,0.18599 -0.23291,0.25736 -0.75777,0.31369 -0.96761,0.10385 -0.0977,-0.0977 -0.22333,-0.0671 -0.48265,0.11759 -0.49237,0.35061 -0.81475,0.31931 -1.05471,-0.10239 -0.12752,-0.2241 -0.29496,-0.3523 -0.46076,-0.35277 -0.39933,-0.001 -0.56216,-0.40868 -0.38172,-0.95541 0.0817,-0.24769 0.23482,-0.54432 0.34016,-0.65918 0.43203,-0.47108 0.83117,-1.06547 0.83117,-1.23776 0,-0.10097 0.11521,-0.39943 0.25603,-0.66324 0.2032,-0.3807 0.23049,-0.53463 0.13224,-0.74607 -0.0681,-0.14652 -0.18947,-0.42515 -0.26972,-0.61918 l -0.14592,-0.35278 -0.22806,0.59317 c -0.28487,0.74095 -0.59116,0.96548 -0.97447,0.71432 -0.5535,-0.36266 -0.63903,-2.20163 -0.16474,-3.54175 0.36545,-1.03257 1.39381,-3.1162 1.53798,-3.1162 0.0818,0 0.089,-0.18543 0.0218,-0.55857 -0.0553,-0.30721 -0.1021,-1.82856 -0.10391,-3.38078 -0.006,-5.00649 -0.0521,-6.64398 -0.18776,-6.64398 -0.16193,0 -1.30181,-0.87645 -2.16014,-1.66092 l -0.66512,-0.60788 -0.41704,0.39944 c -0.66225,0.63432 -1.41828,1.76205 -1.93576,2.88746 -0.26296,0.57187 -0.63564,1.37202 -0.82818,1.77811 l -0.35008,0.73834 0.11864,0.67277 c 0.0653,0.37002 0.1712,0.88444 0.23544,1.14314 0.49822,2.00653 0.52884,2.30852 0.39013,3.84779 -0.0741,0.82277 -0.18458,1.59006 -0.24542,1.70509 -0.12515,0.23663 -0.66684,1.42588 -0.9121,2.00244 -0.22868,0.53761 -0.55151,0.47334 -1.01735,-0.20255 -0.23939,-0.34734 -0.27654,-1.83091 -0.0667,-2.66423 0.10093,-0.40082 0.0998,-0.64405 -0.005,-0.99281 -0.24939,-0.83239 -0.56531,-0.49577 -0.84736,0.90284 -0.11246,0.55766 -0.11407,0.90415 -0.007,1.55136 0.0757,0.45833 0.13762,1.47643 0.13762,2.26244 0,1.2563 -0.0294,1.4704 -0.24319,1.77063 -0.13376,0.18785 -0.34407,0.34154 -0.46736,0.34154 -0.13012,0 -0.3006804,0.14798 -0.4065804,0.35277 -0.17831,0.3448 -0.27575,0.3984 -0.65816,0.36198 -0.10328,-0.01 -0.25528,0.0634 -0.33778,0.16285 -0.26264,0.31647 -0.67577,0.21738 -0.98384,-0.23598 l -0.28316,-0.41671 -0.083,0.26972 c -0.0456,0.14834 -0.12653,0.45493 -0.17975,0.68129 -0.0532,0.22637 -0.20512,0.80845 -0.33753,1.29352 -0.44743,1.63903 -0.6258,2.29173 -0.72304,2.64583 -0.0533,0.19403 -0.20469,0.74966 -0.33646,1.23473 -0.38389,1.41309 -0.61721,2.26536 -0.7324,2.67523 -0.30463,1.08397 -0.36572,1.31902 -0.51197,1.96967 -0.43102,1.91758 -0.34672,3.01717 0.34265,4.46989 0.22808,0.48064 0.41454,0.91508 0.41434,0.96543 -3.1e-4,0.0815 0.6688,1.90605 0.94998,2.59038 0.0598,0.14552 0.15786,0.38364 0.21794,0.52916 0.0601,0.14553 0.22283,0.58209 0.36168,0.97014 0.13885,0.38806 0.33322,0.89077 0.43193,1.11713 0.0987,0.22637 0.22152,0.51741 0.27291,0.64676 0.0514,0.12935 0.2312,0.5409 0.39958,0.91456 0.16838,0.37365 0.30615,0.71049 0.30615,0.74853 0,0.13707 1.33353,2.78713 1.9524204,3.87996 1.75615,3.10098 3.18616,5.95884 4.22842,8.45047 0.49609,1.18596 0.98445,2.14508 0.98794,1.94028 0.002,-0.097 -0.0513,-0.49389 -0.11775,-0.88195 -0.14279,-0.83422 -0.44504,-2.97455 -0.68915,-4.88009 -0.0621,-0.48507 -0.19764,-1.5434 -0.3011,-2.35185 -0.4206,-3.28669 -0.53427,-4.06821 -0.99196,-6.82037 -0.19168,-1.15258 -0.80377,-3.94654 -1.05622,-4.8213 -0.25513,-0.88402 -0.38627,-1.36427 -0.44956,-1.64629 -0.0363,-0.16169 -0.13322,-0.37336 -0.2154,-0.47037 -0.15515,-0.18313 -0.30043,-0.67353 -0.51652,-1.74347 -0.1903,-0.94229 -0.14114,-2.86717 0.10866,-4.25376 l 0.22243,-1.23472 -0.0714,1.41111 c -0.0393,0.77611 -0.0618,1.82815 -0.05,2.33786 0.024,1.04086 0.40274,2.95251 0.64143,3.23734 0.0861,0.10276 0.22503,0.42497 0.3087,0.71601 0.0837,0.29104 0.1953,0.66146 0.24807,0.82315 0.0528,0.16168 0.18025,0.66439 0.28332,1.11712 0.10306,0.45274 0.23642,1.03482 0.29636,1.29352 0.0599,0.25871 0.1356,0.62912 0.16814,0.82315 0.0326,0.19403 0.11422,0.61736 0.18151,0.94074 0.2392,1.1497 0.64416,3.61532 0.84015,5.11528 0.0634,0.48507 0.16781,1.27882 0.23206,1.76389 0.13053,0.9855 0.29369,2.23464 0.45311,3.46898 0.45324,3.50933 0.74548,5.22504 1.2819,7.52593 0.32731,1.40398 0.75875,3.68755 0.92199,4.88009 0.23573,1.72203 0.0134,5.12208 -0.38605,5.90319 -0.0893,0.17464 -0.16237,0.4179 -0.16237,0.54057 0,0.2124 -0.0871,0.33701 -0.79106,1.13116 -0.16721,0.18863 -0.6431,0.82363 -1.05755,1.41111 -0.41445,0.58747 -0.85185,1.20043 -0.972,1.36212 -0.12015,0.16169 -0.46601,0.62579 -0.76857,1.03134 -0.30256,0.40554 -0.95014,1.09346 -1.43907,1.5287 -1.47676,1.3146 -2.6152704,2.41251 -2.6152704,2.52199 0,0.0569 -0.10584,0.32245 -0.23519,0.59018 -0.12935,0.26773 -0.23518,0.70854 -0.23518,0.97959 0,0.43485 0.0408,0.50971 0.34691,0.63651 l 0.34692,0.1437 0.46726,-0.33522 c 0.25698,-0.18437 0.6917304,-0.66595 0.9660904,-1.07017 0.27436,-0.40423 0.56945,-0.73496 0.65574,-0.73496 0.33188,0 0.13126,0.59898 -0.49122,1.46659 -0.35647,0.49683 -0.61793,0.95219 -0.58103,1.01189 0.12987,0.21013 0.39012,0.10421 0.77823,-0.31673 0.21566,-0.23391 0.56275,-0.60828 0.77131,-0.83193 0.20856,-0.22365 0.43346,-0.3731 0.49977,-0.33212 0.24463,0.15119 0.11071,0.61202 -0.291,1.00138 -0.35338,0.3425 -0.55485,0.82315 -0.34505,0.82315 0.1539,0 0.60075,-0.29551 0.87422,-0.57813 0.57936,-0.59875 1.19195,-1.07214 1.30055,-1.00502 0.22014,0.13605 0.10133,0.44973 -0.35981,0.95001 -0.25871,0.28066 -0.47037,0.56439 -0.47037,0.63051 0,0.26794 0.28609,0.0833 0.94665,-0.61085 0.55225,-0.58036 0.72562,-0.70111 0.84098,-0.58575 0.11536,0.11536 0.0862,0.25349 -0.14134,0.67006 -0.23473,0.4297 -0.25893,0.55176 -0.13363,0.67394 0.1244,0.1213 0.24722,0.0459 0.65668,-0.40327 0.27702,-0.30386 0.61789,-0.79549 0.75751,-1.09252 0.13962,-0.29702 0.34283,-0.57418 0.45158,-0.61591 0.10875,-0.0417 0.27944,-0.14071 0.37932,-0.21996 2.54147,-2.01648 2.3794,-1.8667 3.58946,-3.3173 0.50214,-0.60196 1.29723,-1.46605 1.76688,-1.92021 1.35047,-1.30594 1.63869,-2.06959 1.54855,-4.10288 -0.0329,-0.74201 -0.11469,-1.6137 -0.18175,-1.93708 -0.0671,-0.32338 -0.17146,-0.82608 -0.23197,-1.11713 -0.43583,-2.09624 -0.60454,-3.03598 -0.73887,-4.11574 -0.19523,-1.56916 -0.18592,-8.85457 0.0146,-11.40648 0.1936,-2.46422 0.2044,-9.12222 0.0174,-10.70092 -0.281,-2.37158 -0.98759,-5.64687 -1.43334,-6.64399 -0.69228,-1.54855 -0.95299,-3.13379 -0.70882,-4.30992 0.0752,-0.36224 0.32389,-1.02236 0.55264,-1.46694 0.43767,-0.85061 2.18525,-3.48295 3.31533,-4.99378 0.36732,-0.49108 1.07954,-1.44358 1.58272,-2.11667 0.50318,-0.67309 0.97983,-1.30317 1.05922,-1.40019 0.37408,-0.45708 1.58122,-2.24603 1.94284,-2.87921 0.73089,-1.2798 0.79692,-1.40682 1.0707,-2.05967 0.14917,-0.35572 0.39767,-0.92614 0.55221,-1.26761 0.15455,-0.34146 0.281,-0.68807 0.281,-0.77023 0,-0.0822 0.0447,-0.19966 0.0992,-0.2611 0.0546,-0.0614 0.2211,-0.42921 0.37001,-0.81727 0.40212,-1.04791 0.67139,-1.67338 1.41745,-3.29259 0.42102,-0.91376 1.47053,-2.59711 1.96142,-3.14598 0.2442,-0.27305 0.92266,-0.97336 1.50769,-1.55625 0.58503,-0.5829 1.25167,-1.29793 1.48143,-1.58897 0.4863,-0.61603 1.29185,-2.06111 1.57324,-2.82223 0.1076,-0.29104 0.23873,-0.635 0.29139,-0.76435 0.49406,-1.2135 0.68048,-3.66892 0.39198,-5.16302 l -0.066,-0.34173 -0.3688,0.40395 c -0.20284,0.22216 -0.46351,0.51472 -0.57925,0.65011 -0.24072,0.28159 -0.6715,1.3953 -0.6715,1.73605 0,0.12568 -0.05,0.39101 -0.11114,0.58963 -0.0611,0.19862 -0.19673,0.66025 -0.30133,1.02584 -0.36453,1.27407 -1.12728,2.22492 -2.93892,3.66368 -0.58208,0.46228 -1.08479,0.87304 -1.11713,0.9128 -0.20901,0.25698 -1.23192,0.93241 -1.41211,0.93241 -0.11999,0 -0.32496,-0.14997 -0.45548,-0.33327 -0.19191,-0.26951 -0.30511,-0.32333 -0.59166,-0.28127 -0.35763,0.0525 -0.71575,-0.17053 -0.71575,-0.44573 0,-0.0932 -0.14426,-0.11195 -0.45566,-0.0593 -0.40143,0.0678 -0.4854,0.0392 -0.70555,-0.24071 -0.13745,-0.17473 -0.2499,-0.43464 -0.2499,-0.57759 0,-0.14294 -0.10583,-0.35567 -0.23518,-0.47273 -0.15711,-0.14218 -0.23519,-0.36219 -0.23519,-0.66268 0,-0.39101 0.10392,-0.56384 0.79466,-1.32158 0.77265,-0.84761 1.32201,-1.68909 1.32201,-2.02501 0,-0.19064 -0.1869,-0.22095 -0.29398,-0.0477 -0.11265,0.18226 -0.9171,0.13868 -1.20856,-0.0655 -0.19336,-0.13544 -0.26135,-0.30121 -0.26135,-0.63721 0,-0.37338 0.0767,-0.52382 0.43128,-0.84588 0.78446,-0.71252 1.33261,-1.31082 1.33261,-1.45454 0,-0.0333 0.1605,-0.23696 0.35667,-0.45254 0.39197,-0.43075 1.02298,-0.77552 1.95836,-1.07001 0.87478,-0.27541 1.97672,-1.0284 2.4192,-1.65311 0.79966,-1.12898 1.60824,-2.75708 2.68392,-5.40412 0.0526,-0.12935 0.29007,-0.84373 0.52778,-1.5875 0.23771,-0.74377 0.47255,-1.45815 0.52186,-1.5875 0.0493,-0.12935 0.15576,-0.47331 0.23655,-0.76435 0.20144,-0.72567 0.31555,-1.13429 0.50899,-1.82269 0.0909,-0.32338 0.23066,-0.82608 0.31064,-1.11713 0.08,-0.29104 0.18628,-0.635 0.23621,-0.76435 0.0499,-0.12935 0.15616,-0.47331 0.23606,-0.76435 0.0799,-0.29104 0.18162,-0.65747 0.22604,-0.81429 0.0948,-0.33465 -0.26894,-1.78963 -0.69304,-2.77228 -0.0558,-0.12936 -0.27072,-0.65852 -0.47753,-1.17593 -0.57526,-1.43918 -0.70663,-1.71877 -2.77294,-5.90188 -1.06031,-2.14654 -1.92785,-3.93306 -1.92785,-3.97003 0,-0.0616 -0.32822,-0.83023 -0.61016,-1.42883 -0.13325,-0.28292 -0.089,-0.76009 0.071,-0.76536 0.0592,-0.002 0.23608,0.30441 0.39305,0.68081 0.35415,0.84919 1.1882,2.59593 2.90968,6.09362 1.46659,2.97982 1.86154,3.8307 2.34707,5.05649 0.17932,0.45273 0.37062,0.92898 0.42512,1.05833 0.21263,0.50474 0.57468,1.7443 0.69653,2.38473 l 0.12798,0.67268 -0.4279,1.41111 c -0.43524,1.43533 -0.47653,1.5793 -0.80924,2.82222 -0.29114,1.08764 -0.55106,1.97517 -0.65432,2.23426 -0.0515,0.12935 -0.26534,0.79081 -0.47509,1.46991 -0.54338,1.75925 -1.44557,3.99195 -2.13826,5.29166 -1.44976,2.72021 -1.99295,3.22456 -4.38375,4.07028 -0.83578,0.29565 -1.05787,0.4617 -1.464,1.0946 -0.19758,0.30789 -0.62369,0.79971 -0.94692,1.09293 -0.60076,0.54499 -0.72923,0.79775 -0.40546,0.79775 0.4084,0 0.98651,-0.42263 1.93444,-1.41419 1.02849,-1.07583 1.44125,-1.31451 1.50477,-0.87015 0.0235,0.16439 -0.16978,0.45191 -0.59289,0.88195 -1.12355,1.14196 -1.34104,1.45252 -1.41985,2.02748 -0.11134,0.81237 -0.51665,1.56452 -1.28659,2.38759 -0.53134,0.568 -0.66759,0.78419 -0.58606,0.92989 0.17619,0.31484 1.04983,-0.4517 1.8151,-1.59258 1.08549,-1.61828 1.85904,-2.28766 1.85904,-1.60871 0,0.15812 -0.17698,0.43964 -0.42507,0.67616 -0.23379,0.22288 -0.71736,0.85504 -1.0746,1.40478 -0.35725,0.54975 -0.9068,1.23295 -1.22123,1.51823 -0.60978,0.55325 -0.7456,0.95121 -0.32465,0.95121 0.24084,0 0.61522,-0.35445 2.8701,-2.71736 1.06107,-1.11191 1.36331,-1.36936 1.66836,-1.42115 0.15179,-0.0258 0.22075,0.0477 0.24228,0.25796 0.0242,0.23673 -0.086,0.37224 -0.56597,0.69587 -0.69674,0.46976 -2.81252,2.68898 -3.00993,3.15709 -0.13638,0.32336 -0.1112,0.49797 0.0718,0.49797 0.16952,0 2.85789,-2.14307 3.43808,-2.74071 0.30362,-0.31276 0.64154,-0.80301 0.75093,-1.08944 0.2635,-0.68997 0.58159,-0.71975 0.47358,-0.0443 -0.14709,0.91985 -1.24657,2.26129 -2.80549,3.42289 -0.7793,0.58068 -0.95903,0.86591 -0.62611,0.99367 0.10119,0.0388 0.41584,-0.18638 0.79375,-0.56814 0.34436,-0.34786 0.94361,-0.89007 1.33167,-1.20492 1.15257,-0.93514 2.34409,-2.20129 2.60407,-2.76717 0.13371,-0.29104 0.38489,-1.13771 0.55818,-1.88148 0.17328,-0.74378 0.3661,-1.44421 0.42849,-1.55651 0.0624,-0.11231 0.11342,-0.27825 0.11342,-0.36877 0,-0.0905 0.17872,-0.34258 0.39715,-0.56016 0.21843,-0.21757 0.94296,-1.03058 1.61006,-1.80669 0.6671,-0.77612 1.24344,-1.43757 1.28076,-1.46991 0.0373,-0.0323 0.43627,-0.50859 0.88657,-1.05833 0.4503,-0.54975 0.84898,-1.026 0.88595,-1.05834 0.037,-0.0323 0.22288,-0.27046 0.41312,-0.52916 0.19024,-0.25871 0.37584,-0.49683 0.41245,-0.52917 0.0366,-0.0323 0.32615,-0.42921 0.64342,-0.88195 0.31728,-0.45273 0.60562,-0.8496 0.64077,-0.88194 0.27496,-0.25299 2.23716,-3.67134 2.23716,-3.89737 0,-0.0515 0.0958,-0.26721 0.21278,-0.47938 0.33397,-0.60546 0.73733,-2.01753 0.71925,-2.51796 -0.009,-0.25016 -0.01,-0.98399 -10e-4,-1.63075 0.009,-0.695 -0.0619,-1.53662 -0.1735,-2.05787 -0.10389,-0.48507 -0.21683,-1.05442 -0.25098,-1.26521 -0.0342,-0.2108 -0.10917,-0.41236 -0.1667,-0.44792 -0.0575,-0.0356 -0.1046,-0.19453 -0.1046,-0.35328 0,-0.15875 -0.0492,-0.38052 -0.10934,-0.49283 -0.0601,-0.1123 -0.25115,-0.75981 -0.42449,-1.43891 -0.36532,-1.43127 -0.43875,-1.69114 -0.74758,-2.64584 -0.12553,-0.38805 -0.36606,-1.1818 -0.53451,-1.76388 -0.16846,-0.58209 -0.35795,-1.15022 -0.42111,-1.26253 -0.0632,-0.1123 -0.11483,-0.285 -0.11483,-0.38377 0,-0.0988 -0.0512,-0.27147 -0.11388,-0.38377 -0.0626,-0.11231 -0.19125,-0.44232 -0.2858,-0.73336 -0.31331,-0.96439 -0.91099,-2.64046 -1.0693,-2.99861 -0.0858,-0.19403 -0.3243,-0.80257 -0.53007,-1.35232 -0.20577,-0.54974 -0.47621,-1.22608 -0.60098,-1.50298 -0.12477,-0.27689 -0.41424,-1.07064 -0.64328,-1.76389 -0.22903,-0.69324 -0.47319,-1.39273 -0.54257,-1.55442 -0.0694,-0.16169 -0.16676,-0.39982 -0.21641,-0.52917 -0.0497,-0.12935 -0.33853,-0.75265 -0.64196,-1.3851 -0.61039,-1.27227 -1.38386,-2.18142 -2.11621,-2.48741 -0.47733,-0.19944 -1.7004,-0.24838 -2.03118,-0.0813 -0.1123,0.0567 -0.41586,0.16813 -0.67456,0.24754 -0.66382,0.20376 -2.06378,0.88019 -3.10873,1.50208 -1.49549,0.89002 -1.66504,0.97636 -1.77895,0.90596 -0.15216,-0.094 -0.13814,-0.56689 0.0215,-0.72658 0.12964,-0.12964 -0.10479,-1.19261 -0.3765,-1.70718 -0.0593,-0.1123 -0.10782,-0.30016 -0.10782,-0.41745 0,-0.1173 -0.0438,-0.26353 -0.0973,-0.32498 -0.0832,-0.0956 -0.45723,-1.36492 -0.85114,-2.88878 -0.0605,-0.23387 -0.10992,-0.75629 -0.10992,-1.16093 0,-0.60213 -0.0286,-0.71193 -0.15781,-0.60473 -0.35995,0.29873 -0.42825,-0.35623 -0.0992,-0.95115 0.34487,-0.62348 0.53549,-1.93981 0.45028,-3.10939 -0.32754,-4.49581 -0.43004,-5.09246 -1.12035,-6.52118 -0.44943,-0.93018 -1.12123,-1.75009 -1.43394,-1.75009 -0.16775,0 -0.22648,-0.0834 -0.22779,-0.32338 -0.002,-0.34906 -0.201,-0.96946 -0.46226,-1.44051 -0.70916,-1.2786 -2.96171,-2.11666 -5.6892,-2.11666 -2.78306,0 -4.61956,0.76863 -6.79141,2.8424 -0.36092,0.34462 -0.68838,0.71499 -0.72769,0.82305 -0.0393,0.10806 -0.37902,0.40535 -0.7549,0.66064 -1.15127,0.78191 -1.56914,1.4934 -1.55918,2.65477 0.0135,1.57764 0.50128,3.24969 0.94795,3.24969 0.12199,0 0.22179,-0.0529 0.22179,-0.11759 0,-0.0647 0.0534,-0.11759 0.11867,-0.11759 0.0653,0 0.55474,-0.28007 1.08773,-0.62238 1.78651,-1.14739 2.74763,-1.49323 5.1436,-1.85083 1.33063,-0.1986 2.22114,-0.45219 2.96101,-0.84319 0.73736,-0.38968 0.96981,-0.35517 0.86365,0.1282 -0.10375,0.47237 0.64347,1.54475 1.82903,2.62494 0.91859,0.83694 1.09561,1.07256 1.52751,2.03317 0.30339,0.67479 0.32902,0.67443 0.9721,-0.0136 0.49018,-0.52441 0.68234,-0.65166 0.99606,-0.65956 0.48178,-0.0121 0.93975,0.31552 1.28505,0.91938 0.3917,0.685 0.37741,2.01331 -0.0291,2.70702 -0.1626,0.27746 -0.44042,0.57371 -0.61736,0.65833 -0.28225,0.13499 -0.33066,0.24025 -0.3946,0.85817 -0.10949,1.05813 -0.513,2.02286 -1.72094,4.11449 -0.2241,0.38806 -0.44256,0.73202 -0.48546,0.76436 -0.0429,0.0323 -0.17125,0.2053 -0.28522,0.38436 -0.50069,0.78667 -1.73713,1.93713 -2.4957,2.32216 -0.46012,0.23354 -0.84119,0.51746 -0.9342,0.69604 -0.25687,0.49319 -1.2986,1.47162 -1.84542,1.73329 -0.97403,0.46609 -1.17416,0.50859 -2.395,0.50859 -1.34282,0 -2.08629,0.19831 -2.80841,0.7491 -0.76341,0.58228 -1.43443,1.96437 -1.66309,3.42544 -0.22302,1.42502 -0.0879,4.42605 0.29119,6.46759 0.31354,1.68849 0.39654,2.29853 0.32278,2.3723 -0.15426,0.15425 -0.34587,-0.18407 -0.45712,-0.80712 -0.0613,-0.34344 -0.15911,-0.86256 -0.21731,-1.15361 -0.59188,-2.95991 -0.54442,-6.1504 0.1236,-8.3097 0.23175,-0.74909 0.77471,-1.84178 1.11777,-2.24949 0.43454,-0.51642 1.20466,-1.03199 1.70461,-1.14117 0.22486,-0.0491 0.99215,-0.0974 1.7051,-0.10726 1.13656,-0.0158 1.37068,-0.0553 1.90035,-0.32057 0.67236,-0.33678 1.57137,-1.11203 1.57137,-1.35505 0,-0.0866 -0.12332,-0.1575 -0.27405,-0.1575 -0.38685,0 -1.90109,-0.81311 -2.19539,-1.17887 -0.0323,-0.0402 -0.4814,-0.3867 -0.99791,-0.77002 -1.2315,-0.91393 -1.52023,-1.16013 -2.26061,-1.92768 -0.7288,-0.75554 -1.09241,-1.46253 -1.09241,-2.12405 0,-0.52493 -0.30893,-1.22554 -0.69391,-1.57372 -0.35178,-0.31813 -0.47836,-0.60899 -1.13037,-2.59742 -0.31812,-0.97013 -0.72267,-2.02847 -0.89901,-2.35185 -1.08516,-1.99005 -1.39245,-2.89571 -1.39245,-4.10398 0,-1.13618 0.46971,-2.16611 1.38832,-3.04418 0.9178,-0.8773 1.14027,-1.09902 2.25705,-2.24942 2.15023,-2.21496 3.36094,-2.71331 6.58519,-2.71061 1.96255,0.002 2.81028,0.17096 4.19216,0.83734 1.05908,0.51071 2.27543,1.77531 2.27543,2.36569 0,0.12357 0.19844,0.43173 0.44097,0.68478 1.18283,1.23415 1.88933,2.61754 2.24639,4.39862 0.15087,0.75258 0.42341,4.47652 0.4217,5.76204 -6.5e-4,0.48507 -0.0707,1.41111 -0.15572,2.05787 -0.21325,1.62269 -0.0438,2.94341 0.57334,4.46852 0.13301,0.32871 0.4389,1.41672 0.5951,2.11667 0.0722,0.32338 0.18799,0.70581 0.2574,0.84986 l 0.12621,0.2619 1.0105,-0.55085 c 0.94214,-0.51359 2.34992,-1.22239 2.89198,-1.45608 0.47795,-0.20605 1.65189,-0.45715 2.13726,-0.45715 0.66466,0 1.50403,0.2955 1.94364,0.68425 0.79116,0.69964 1.89725,2.68847 2.73747,4.92217 0.23899,0.63533 0.47922,1.26099 0.53385,1.39034 0.10869,0.25737 0.73401,2.03938 1.01096,2.88102 0.0958,0.29104 0.22053,0.635 0.27725,0.76435 0.28026,0.63922 0.90912,2.41969 1.65113,4.67483 1.07489,3.26685 1.02195,3.09192 1.82843,6.04118 0.10385,0.37976 0.23349,0.84922 0.28809,1.04325 0.63931,2.2718 1.05047,4.2529 1.0541,5.07894 10e-4,0.27106 0.0551,0.52553 0.11976,0.5655 0.15609,0.0965 0.14881,0.63199 -0.018,1.32123 -0.14852,0.6138 -0.63916,2.18608 -0.79865,2.55933 -0.45839,1.07272 -1.25861,2.63996 -1.77124,3.46898 l -0.61806,0.99954 0.6152,1.17592 c 2.96764,5.67243 3.53146,7.29582 3.53146,10.16816 0,1.79277 -0.21535,2.85126 -0.95168,4.67791 -0.0587,0.14552 -0.15411,0.38365 -0.21211,0.52917 -0.40295,1.01097 -0.64535,1.60555 -0.77904,1.91088 -0.63338,1.44662 -0.97017,2.88054 -1.28429,5.46805 -0.0903,0.74377 -0.22252,1.48461 -0.29383,1.6463 -0.16677,0.37812 -0.062,-2.80651 0.12377,-3.76297 0.37545,-1.93277 0.7194,-3.06548 1.34837,-4.44057 0.15671,-0.34258 0.28492,-0.64632 0.28492,-0.67497 0,-0.0287 0.13776,-0.35782 0.30615,-0.73147 0.55707,-1.23619 0.68863,-1.68168 0.86707,-2.93616 0.24473,-1.72049 0.0302,-4.25801 -0.4654,-5.50433 -0.79562,-2.00083 -1.02399,-2.54191 -1.24078,-2.93981 -0.39393,-0.723 -1.84718,-3.49479 -1.98785,-3.79144 -0.0688,-0.14502 -0.1543,-0.26408 -0.19007,-0.26459 -0.0358,-5e-4 -0.29505,0.32523 -0.57617,0.72385 -0.28111,0.39862 -0.57868,0.80873 -0.66126,0.91134 -0.87714,1.09 -2.45806,3.02149 -2.51081,3.0676 -0.037,0.0323 -0.38451,0.42921 -0.77225,0.88194 -0.38775,0.45273 -0.77612,0.89781 -0.86307,0.98906 -0.10747,0.11279 -0.13507,0.31985 -0.0862,0.64676 0.0395,0.26447 0.0745,1.2746 0.0777,2.24474 0.012,3.59335 -0.90956,5.7462 -3.85073,8.99583 -0.31317,0.34602 -1.27933,1.50194 -2.01208,2.40727 -0.25629,0.31665 -1.2037,1.92747 -1.2037,2.04657 0,0.0529 -0.0752,0.24979 -0.16715,0.43759 -0.13411,0.27396 -0.14468,0.53898 -0.0535,1.34098 0.26453,2.32582 0.5835,16.05535 0.3956,17.02801 -0.18729,0.96954 -0.26379,-0.19614 -0.33805,-5.15116 -0.0422,-2.8134 -0.095,-5.32694 -0.11747,-5.58565 -0.0224,-0.2587 -0.0808,-1.80742 -0.1298,-3.44159 -0.0489,-1.63417 -0.12758,-2.99507 -0.17474,-3.02421 -0.20389,-0.12601 -1.46408,3.03343 -1.64092,4.11395 -0.13957,0.85286 -0.27907,1.68991 -0.47521,2.85162 -0.17452,1.03365 -0.69692,3.68251 -0.8175,4.14514 -0.059,0.22637 -0.16018,0.62324 -0.22486,0.88195 -0.33783,1.35132 -0.92173,3.37778 -1.08425,3.76296 -0.0546,0.12935 -0.17727,0.47331 -0.27265,0.76435 -0.19643,0.59941 -0.441,1.20279 -0.8341,2.05787 -1.11614,2.42787 -1.39374,3.33168 -1.39463,4.54069 l -7.5e-4,1.01291 0.42055,0.76509 c 0.2313,0.42079 0.65685,1.07623 0.94566,1.45653 1.59789,2.10399 3.175,4.91791 4.01241,7.15904 0.24167,0.64676 0.48853,1.26781 0.5486,1.38012 0.0601,0.1123 0.1092,0.285 0.1092,0.38377 0,0.0988 0.0485,0.27146 0.10766,0.38377 0.14926,0.2831 0.52771,1.61681 0.87546,3.08521 0.85457,3.60855 1.16973,5.71336 2.13929,14.2875 0.27061,2.39303 0.4257,3.52848 0.7469,5.46806 0.26102,1.57618 0.3508,1.95393 0.58689,2.46944 0.33507,0.73163 0.32763,1.53364 -0.0171,1.84194 -0.51398,0.45972 -1.73483,0.90205 -3.67476,1.33142 -0.25871,0.0573 -0.68204,0.16341 -0.94075,0.23589 -1.0786,0.3022 -1.37299,0.37015 -3.0574,0.7057 -2.65688,0.52929 -2.95092,0.59467 -4.35093,0.96751 -0.71143,0.18946 -1.54545,0.37375 -1.85337,0.40952 l -0.55985,0.065 -0.42286,-0.44836 c -0.37656,-0.39927 -0.43544,-0.4259 -0.53768,-0.24321 -0.31065,0.55509 -2.09981,2.41018 -2.85865,2.96396 -0.2587,0.1888 -0.53844,0.40757 -0.62164,0.48615 -0.0832,0.0786 -0.31178,0.23732 -0.50797,0.35277 -0.19619,0.11545 -0.64284,0.63959 -0.99255,1.16475 -0.89209,1.33966 -1.47974,1.66548 -1.88589,1.04562 z m 9.62805,-6.44524 c 0.87415,-0.32873 1.5882,-0.50083 2.84667,-0.68609 1.09439,-0.16111 1.88541,-0.29947 2.52824,-0.44222 0.29104,-0.0646 0.68792,-0.15268 0.88195,-0.19566 0.85348,-0.18906 3.06178,-0.81594 3.52777,-1.00144 0.12936,-0.0515 0.65852,-0.23905 1.17593,-0.4168 0.51741,-0.17774 0.99853,-0.38073 1.06916,-0.45107 0.25849,-0.25745 0.41717,-0.66711 0.3125,-0.80672 -0.12787,-0.17054 -0.35052,-0.93478 -0.43463,-1.49179 -0.0342,-0.22637 -0.11617,-0.72908 -0.18221,-1.11713 -0.18881,-1.10952 -0.58616,-4.01313 -0.83276,-6.08542 -0.0597,-0.50124 -0.1578,-1.32145 -0.21811,-1.82268 -0.0603,-0.50124 -0.16361,-1.36114 -0.22955,-1.91088 -0.10845,-0.90428 -0.30445,-2.3557 -0.60341,-4.46852 -0.28087,-1.9849 -0.7553,-4.36976 -1.19306,-5.99722 -0.13048,-0.48507 -0.27978,-1.0407 -0.33179,-1.23473 -0.18894,-0.70489 -0.918,-2.84203 -1.24358,-3.64537 -0.66467,-1.64003 -2.29583,-4.75092 -2.54855,-4.86049 -0.0497,-0.0216 -0.0904,-0.0876 -0.0904,-0.14672 0,-0.10006 -0.78943,-1.27081 -0.94508,-1.40158 -0.0385,-0.0323 -0.23057,-0.29693 -0.42685,-0.58797 -1.66466,-2.46837 -1.84883,-4.15092 -0.72082,-6.58518 0.2337,-0.50431 0.69544,-1.55419 0.90507,-2.05787 0.0538,-0.12935 0.15363,-0.36748 0.22178,-0.52917 0.6884,-1.63343 1.84002,-5.43269 2.27233,-7.49653 0.0576,-0.27487 0.1527,-0.72466 0.21139,-0.99953 0.3318,-1.55395 0.73319,-3.8597 0.69294,-3.98046 -0.0195,-0.0585 -0.1674,0.14511 -0.32866,0.45244 -0.27097,0.51642 -1.09882,1.97507 -1.5405,2.71431 -0.10316,0.17267 -0.43438,0.6579 -0.73604,1.07829 -0.30166,0.42039 -1.06997,1.50518 -1.70735,2.41065 -0.63738,0.90546 -1.73531,2.45055 -2.43984,3.43352 -2.31345,3.22778 -2.63152,3.94337 -2.63152,5.92046 0,0.68261 0.0443,1.29138 0.0983,1.35282 0.15994,0.18171 0.9932,2.96598 1.19477,3.99227 0.58841,2.99584 0.71868,4.30474 0.78942,7.93226 l 0.0561,2.87579 0.32264,0.4756 c 0.49203,0.7253 2.948,5.41814 2.948,5.63301 0,0.038 0.12623,0.3483 0.2805,0.68962 0.58317,1.29017 0.75139,1.70519 1.06181,2.61965 0.17563,0.51741 0.36351,1.04657 0.41749,1.17592 0.23492,0.56287 0.48932,1.59711 0.45405,1.84588 -0.0247,0.1741 -0.2193,-0.23306 -0.54507,-1.14032 -0.27868,-0.77611 -0.56357,-1.5434 -0.6331,-1.70509 -0.15702,-0.36519 -0.33473,-0.80861 -0.44772,-1.11713 -0.0474,-0.12935 -0.14246,-0.36748 -0.21133,-0.52917 -0.23707,-0.55664 -2.14458,-4.41045 -2.41549,-4.88009 -0.14923,-0.25871 -0.42618,-0.76141 -0.61545,-1.11713 -0.50153,-0.94262 -0.5981,-1.0154 -0.69091,-0.52068 -0.0885,0.4716 -0.26856,4.14854 -0.37763,7.71045 l -0.0743,2.42727 0.23176,0.33615 c 0.12747,0.18489 0.30278,0.52137 0.38959,0.74773 0.0868,0.22637 0.19662,0.46449 0.24402,0.52917 0.17005,0.232 0.82274,1.4293 1.31148,2.40577 0.56671,1.13224 0.63185,1.69481 0.25531,2.2047 -0.25853,0.35008 -1.03289,0.8324 -1.36162,0.84811 -0.21892,0.0105 -0.21146,0.16626 0.0821,1.71457 0.51447,2.71338 0.50227,4.18034 -0.0435,5.22735 -0.13858,0.26587 -0.19202,0.47589 -0.1211,0.47589 0.14148,0 0.68068,-0.3574 1.23058,-0.81565 0.19897,-0.16581 0.5671,-0.46023 0.81805,-0.65426 0.88564,-0.68473 2.47173,-1.99889 2.97174,-2.46223 0.50839,-0.47112 0.75137,-0.88109 0.91031,-1.53592 0.14678,-0.60478 0.19496,-2.68436 0.0722,-3.1162 -0.0644,-0.22637 -0.14955,-0.86137 -0.18932,-1.41111 l -0.0723,-0.99954 0.22339,0.64676 c 0.38605,1.11767 0.54413,2.13219 0.54054,3.46898 -0.005,1.73466 -0.40147,2.84911 -1.27707,3.58658 -0.19197,0.16169 -0.4576,0.39981 -0.59027,0.52916 -0.13268,0.12936 -0.58519,0.51642 -1.00558,0.86014 -1.02467,0.83779 -1.0477,0.85605 -1.5875,1.25785 -0.2587,0.19256 -0.49683,0.37718 -0.52917,0.41025 -0.33142,0.33896 -2.14626,1.54109 -2.67523,1.77204 -0.40908,0.1786 -0.47913,0.42404 -0.23518,0.82401 0.1757,0.28809 0.40079,0.26437 1.53365,-0.16166 z m 5.17892,-14.27204 c 0.0431,-0.0431 0.11368,-0.0431 0.15679,0 0.0431,0.0431 0.008,0.0784 -0.0784,0.0784 -0.0862,0 -0.12151,-0.0353 -0.0784,-0.0784 z m -5.44845,12.24923 c 0,-0.0323 -0.0265,-0.0588 -0.0588,-0.0588 -0.0323,0 -0.0588,0.0265 -0.0588,0.0588 0,0.0323 0.0265,0.0588 0.0588,0.0588 0.0323,0 0.0588,-0.0265 0.0588,-0.0588 z m -13.17037,-3.69912 c 0.81952,-0.20859 3.01078,-0.80823 3.82176,-1.04583 0.19402,-0.0568 0.5909,-0.16945 0.88194,-0.25024 0.29104,-0.0808 0.635,-0.19105 0.76435,-0.24502 0.12935,-0.054 0.34102,-0.11481 0.47037,-0.1352 0.43334,-0.0683 0.57118,-0.78563 0.5714,-2.97367 2.1e-4,-2.09278 -0.15666,-3.2469 -0.84714,-6.2324 l -0.10879,-0.47037 -0.0135,0.77874 c -0.0161,0.92865 -0.4309,2.28474 -1.03677,3.38973 -0.86075,1.56982 -2.21043,3.44445 -3.23403,4.49191 -0.56553,0.57871 -1.6159204,1.39378 -1.7961804,1.39378 -0.04,0 -0.35779,0.1824 -0.70629,0.40533 -0.73956,0.4731 -0.97536,0.81253 -0.75168,1.08205 0.17101,0.20605 0.58974,0.16622 1.9845804,-0.18881 z m 13.67346,-4.76423 c 1.11478,-0.46579 1.0809,-0.80587 -0.32251,-3.23711 -0.20533,-0.35572 -0.47244,-0.87166 -0.59357,-1.14653 -0.26223,-0.59507 -0.4155,-0.64757 -0.34333,-0.11759 0.0286,0.21019 0.10595,0.9378 0.17184,1.61689 0.21703,2.23695 0.3734,3.05741 0.5827,3.05741 0.0499,0 0.27705,-0.0779 0.50487,-0.17307 z M 21.6277,558.59756 c 0.43194,-0.63566 0.36582,-0.72263 -0.11335,-0.1491 -0.44292,0.53015 -0.47225,0.58797 -0.29822,0.58797 0.0623,0 0.24755,-0.19749 0.41157,-0.43887 z m 0.49421,-0.93305 c -0.0431,-0.0431 -0.0784,-0.008 -0.0784,0.0784 0,0.0862 0.0353,0.12151 0.0784,0.0784 0.0431,-0.0431 0.0431,-0.11367 0,-0.15679 z m 0.23519,-0.35277 c -0.0431,-0.0431 -0.0784,-0.008 -0.0784,0.0784 0,0.0862 0.0353,0.12151 0.0784,0.0784 0.0431,-0.0431 0.0431,-0.11368 0,-0.15679 z M 9.3956696,553.32261 c -0.006,-0.50491 -0.29365,-1.81663 -0.64464,-2.93759 -0.2424,-0.77417 -0.0979,-3.57822 0.18433,-3.57822 0.10988,0 0.16185,0.46049 0.2024,1.79328 0.0528,1.73431 0.0958,1.99379 0.64454,3.88897 l 0.0961,0.33179 0.3205404,-0.25213 0.32053,-0.25213 -0.007,-0.84401 c -0.004,-0.46421 -0.0562,-1.1086 -0.11635,-1.43198 -0.32166,-1.72978 -0.1891,-2.81255 0.45607,-3.72525 0.374,-0.52907 0.6094,-0.56352 0.86037,-0.1259 0.3058,0.53322 0.35108,1.07875 0.2044,2.46297 l -0.13949,1.31645 0.20464,0.31232 0.20464,0.31231 0.2929,-0.43105 c 0.1611,-0.23707 0.48002,-0.82505 0.70871,-1.30661 0.66967,-1.41012 0.6612,-2.20853 -0.0529,-4.98885 -0.71947,-2.80127 -0.93761,-4.08322 -1.56077,-9.17222 -0.0673,-0.54974 -0.17353,-1.22519 -0.23603,-1.50099 -0.0625,-0.2758 -0.11365,-0.65869 -0.11365,-0.85086 0,-0.19217 -0.0508,-0.57506 -0.1128,-0.85086 -0.062,-0.2758 -0.1772,-0.80937 -0.2559,-1.1857 l -0.14311,-0.68425 -0.8549704,0.0801 c -1.3213,0.12382 -2.57691,-0.2894 -3.21477,-1.05797 l -0.1583,-0.19075 -0.15884,0.32796 c -0.0874,0.18038 -0.29089,0.48165 -0.45229,0.66948 -0.33948,0.39508 -0.34874,0.47478 -0.13403,1.15338 0.0877,0.27713 0.22612,0.742 0.30762,1.03304 0.0815,0.29105 0.18954,0.66146 0.24008,0.82315 0.24966,0.79877 0.75386,2.62326 0.95052,3.43958 0.10143,0.42101 0.23134,0.95121 0.45381,1.85209 0.0559,0.22636 0.19182,0.83491 0.30205,1.35231 0.11022,0.51741 0.2524,1.17887 0.31594,1.46991 0.0635,0.29104 0.1388,1.13771 0.16724,1.88148 0.0284,0.74378 0.10649,1.46178 0.17346,1.59556 0.0998,0.1994 0.002,0.48557 -0.54108,1.5875 -1.0462,2.12174 -1.17676,2.61007 -1.17676,4.40166 v 1.52871 l 0.45295,0.90722 c 0.27006,0.54091 0.54665,0.93696 0.68502,0.98087 0.12764,0.0405 0.25293,0.0528 0.27843,0.0273 0.0255,-0.0255 -0.11704,-0.46688 -0.31674,-0.98087 -0.66622,-1.71471 -0.80777,-2.55831 -0.57877,-3.44912 0.0601,-0.23387 0.1744,-0.72949 0.25396,-1.10137 0.24554,-1.1477 0.36956,-0.78736 0.2833,0.82314 -0.0888,1.65826 0.053,2.5716 0.61258,3.94599 0.1631,0.40058 0.34371,0.85168 0.40136,1.00246 0.1759,0.46002 0.398,0.23133 0.39072,-0.40231 z M 13.98146,538.53848 c 0.45992,-1.01218 0.90899,-1.71607 1.66667,-2.61239 l 0.49989,-0.59135 -0.70582,-0.87856 c -0.68061,-0.84717 -1.61183,-2.31681 -2.00981,-3.17184 -0.45332,-0.97394 -0.67869,-1.56282 -0.67869,-1.7734 0,-0.18316 -0.0849,-0.22544 -0.45282,-0.22544 -0.24906,0 -0.62389,0.0596 -0.83296,0.13252 -0.30933,0.10783 -0.36692,0.17902 -0.30919,0.38217 0.14891,0.52394 0.47785,2.58492 0.8938,5.60013 0.2574,1.8659 0.41779,2.90736 0.71495,4.64227 l 0.14054,0.82051 0.32798,-0.70292 c 0.18039,-0.38661 0.51585,-1.11637 0.74546,-1.6217 z M 1.8175896,514.76282 c 0,-0.0323 -0.0265,-0.0588 -0.0588,-0.0588 -0.0323,0 -0.0588,0.0265 -0.0588,0.0588 0,0.0323 0.0265,0.0588 0.0588,0.0588 0.0323,0 0.0588,-0.0265 0.0588,-0.0588 z m -6.94124,-5.55699 0.003,-0.50051 -0.79375,-0.82744 c -0.6364197,-0.66344 -0.8827797,-0.84142 -1.2429597,-0.89793 l -0.44922,-0.0705 0.4626,0.71574 c 0.40092,0.6203 0.64799,1.14374 1.2407497,2.62869 l 0.12469,0.31236 0.32568,-0.42996 c 0.23525,-0.31058 0.32658,-0.56892 0.32894,-0.93046 z M 22.81725,486.52021 c 1.09465,-0.55427 3.00109,-2.67187 3.95163,-4.38934 0.72613,-1.31198 1.02513,-2.89018 0.67242,-3.54923 -0.17641,-0.3296 0.13942,-0.68431 0.40963,-0.46005 0.13778,0.11434 0.23237,0.1147 0.44687,0.002 0.14966,-0.0788 0.31181,-0.20158 0.36033,-0.27274 0.18065,-0.26493 0.33279,-1.03151 0.254,-1.27977 l -0.0815,-0.25687 -0.0972,0.26265 c -0.1337,0.36144 -0.33992,0.33022 -0.33992,-0.0515 0,-0.3316 -0.29339,-0.74421 -0.52917,-0.74421 -0.077,0 -0.23866,0.10909 -0.35933,0.24242 -0.13067,0.1444 -0.30905,0.21898 -0.44114,0.18444 -0.29767,-0.0779 -0.55185,0.0309 -0.55185,0.23617 0,0.25659 -0.32389,0.3234 -0.5366,0.11068 -0.10444,-0.10443 -0.37596,-0.57259 -0.6034,-1.04036 -0.22744,-0.46776 -0.6129,-1.03569 -0.85659,-1.26205 -0.24368,-0.22637 -0.63618,-0.58899 -0.87221,-0.80583 -0.44937,-0.41284 -1.48212,-1.7914 -1.48212,-1.97841 0,-0.3131 -0.27279,-0.35945 -0.74642,-0.12683 -1.01846,0.50022 -1.43617,0.61372 -3.13414,0.85157 -1.93736,0.2714 -3.14172,0.73064 -5.02708,1.9169 -0.85798,0.53984 -0.97871,0.73002 -0.74473,1.17313 0.0593,0.1123 0.19691,0.52169 0.30578,0.90975 0.10888,0.38805 0.28806,0.97013 0.39817,1.29351 l 0.20021,0.58797 0.34656,-0.031 c 0.19061,-0.0171 0.67507,-0.0628 1.0766,-0.10158 0.61245,-0.0592 0.78135,-0.0332 1.04859,0.16149 0.38538,0.28074 0.61941,1.06911 0.62682,2.11165 0.008,1.05986 0.16147,1.32889 0.75902,1.32665 0.31187,-0.001 0.42516,-0.0371 0.32234,-0.10229 -0.0872,-0.0553 -0.13924,-0.19997 -0.11562,-0.32158 0.0364,-0.18755 0.15861,-0.22306 0.80532,-0.23409 l 0.76237,-0.013 v -0.33978 c 0,-0.30272 -0.0449,-0.3439 -0.41157,-0.37756 -0.82239,-0.0755 -0.723,-0.48778 0.11759,-0.48778 0.50307,0 0.65919,0.0917 0.79839,0.46916 0.18118,0.49124 -0.33904,1.3536 -0.93674,1.55283 -0.11623,0.0387 0.29822,1.03181 0.43062,1.03181 0.0288,0 0.27904,-0.0736 0.55617,-0.16356 0.27713,-0.09 0.88752,-0.19616 1.35642,-0.236 l 0.85255,-0.0725 v 0.2364 c 0,0.31614 -1.46447,1.77742 -2.2101,2.20529 -0.39333,0.22571 -0.52837,0.18388 -1.01485,-0.31432 -0.3547,-0.36324 -0.43523,-0.522 -0.37882,-0.74677 0.0443,-0.17644 -0.0204,-0.4759 -0.16931,-0.78416 -0.20038,-0.41475 -0.28496,-0.48767 -0.50236,-0.4331 -0.35627,0.0894 -0.94523,-0.28909 -1.17901,-0.75773 -0.11886,-0.23825 -0.18999,-0.67967 -0.18999,-1.17898 0,-0.43898 -0.0493,-0.82859 -0.10947,-0.8658 -0.0602,-0.0372 -0.24988,0.0625 -0.4215,0.22154 -0.17163,0.15905 -0.46603,0.30544 -0.65424,0.3253 l -0.3422,0.0361 0.17574,0.33683 c 0.0967,0.18525 0.17624,0.52921 0.17684,0.76435 10e-4,0.49142 0.48499,1.39585 1.07773,2.01509 0.21672,0.22641 0.94899,0.84021 1.62727,1.364 2.85614,2.20562 3.76889,2.5351 5.12319,1.84935 z m -3.17328,-1.31396 c -0.16281,-0.26344 0.76382,-0.95871 1.27773,-0.95871 0.27926,0 0.1178,0.19838 -0.33721,0.41429 -0.21488,0.10197 -0.50088,0.28805 -0.63556,0.41352 -0.13468,0.12547 -0.27191,0.18437 -0.30496,0.1309 z m -1.93705,-7.29736 c -0.26274,-0.16642 -0.0587,-0.32609 0.5178,-0.4051 0.63951,-0.0876 1.40936,-0.58595 1.93961,-1.25545 0.40822,-0.51541 0.5401,-0.53528 0.4217,-0.0635 -0.10219,0.40716 -0.7286,1.09804 -1.35836,1.49816 -0.52649,0.33451 -1.19298,0.43352 -1.52075,0.22592 z m -0.83748,-0.80558 c 0,-0.21062 1.2586,-1.74043 1.64775,-2.00283 0.35036,-0.23624 0.51932,-0.26474 1.39444,-0.23518 0.66693,0.0225 1.01186,0.0822 1.04446,0.18062 0.0359,0.10837 -0.17786,0.14828 -0.81365,0.15192 -1.09788,0.006 -1.47443,0.20271 -2.26382,1.18099 -0.54597,0.67661 -1.00918,1.00915 -1.00918,0.72448 z m 2.8328,7.17285 c 0.42808,-0.28816 1.59081,-1.32214 1.48677,-1.32214 -0.0474,0 -0.33749,0.12982 -0.64474,0.28849 -0.30724,0.15867 -0.75481,0.37175 -0.9946,0.47352 -0.49207,0.20883 -0.61378,0.34862 -0.51888,0.59594 0.0867,0.22585 0.2996,0.2145 0.67145,-0.0358 z m -0.90879,-0.55779 c 0.0372,-0.097 0.0221,-0.17639 -0.0336,-0.17639 -0.0557,0 -0.13178,0.0794 -0.169,0.17639 -0.0372,0.097 -0.0221,0.17639 0.0336,0.17639 0.0557,0 0.13178,-0.0794 0.16901,-0.17639 z m 1.18896,-0.60299 0.23195,-0.16136 h -0.26719 c -0.27084,0 -0.96106,0.30447 -0.96106,0.42394 0,0.10765 0.74718,-0.0893 0.9963,-0.26258 z m -1.26875,-0.301 c -0.0375,-0.0938 -0.0654,-0.0659 -0.071,0.071 -0.005,0.12397 0.0227,0.19342 0.0618,0.15434 0.0391,-0.0391 0.0433,-0.14049 0.009,-0.22538 z m -0.36552,-0.58905 c -0.15131,-0.21602 -0.18518,-0.22733 -0.18518,-0.0618 0,0.11141 0.0529,0.20256 0.11759,0.20256 0.0647,0 0.12177,0.0926 0.12688,0.20578 0.005,0.11782 0.0342,0.14425 0.0676,0.0618 0.0321,-0.0792 -0.025,-0.26293 -0.12687,-0.40834 z m -2.8368,-2.93125 0.30911,-0.36735 -0.16534,-0.25001 c -0.28399,-0.42943 -1.96067,-0.3839 -1.96067,0.0532 0,0.15087 0.45696,0.62621 0.76435,0.7951 0.40574,0.22292 0.73061,0.15163 1.05255,-0.23098 z m 36.1868,126.13263 c -0.14998,-0.51741 -0.40571,-1.39054 -0.56829,-1.94028 -0.16259,-0.54975 -0.34713,-1.18475 -0.4101,-1.41111 -0.063,-0.22637 -0.16795,-0.59679 -0.23328,-0.82315 -0.21649,-0.75014 -0.78806,-3.42269 -1.05627,-4.93889 -0.0629,-0.35572 -0.16318,-0.88488 -0.2228,-1.17593 -0.0596,-0.29104 -0.15916,-0.8202 -0.22121,-1.17592 -0.062,-0.35572 -0.21855,-1.20239 -0.34777,-1.88148 -0.12922,-0.6791 -0.26773,-1.41993 -0.3078,-1.6463 -0.0401,-0.22637 -0.11924,-0.6497 -0.17594,-0.94074 -0.0567,-0.29104 -0.16076,-0.84667 -0.23126,-1.23472 -0.0705,-0.38806 -0.17462,-0.94368 -0.23137,-1.23473 -0.0567,-0.29104 -0.21599,-1.11125 -0.35385,-1.82268 -0.24532,-1.26599 -0.39133,-1.93566 -0.60249,-2.76343 -0.0577,-0.22636 -0.29834,-1.17886 -0.53467,-2.11666 -0.47362,-1.87951 -1.55935,-5.22073 -2.02501,-6.23177 -0.76035,-1.65086 -0.81371,-4.06639 -0.1546,-6.9974 0.12562,-0.55862 0.34853,-1.57906 0.48807,-2.23426 0.20355,-0.95579 0.73226,-3.66465 0.83199,-4.26273 0.0566,-0.33955 0.15517,-0.92163 0.21898,-1.29352 0.18641,-1.08627 0.39076,-2.54421 0.66722,-4.76032 0.0382,-0.30601 0.11568,-0.52779 0.17224,-0.49283 0.48587,0.30028 -0.69082,8.2928 -1.89437,12.86727 -0.4884,1.85632 -0.68962,4.00486 -0.47678,5.09088 0.1536,0.78381 0.17812,0.85618 0.63064,1.86174 0.1637,0.36378 0.35686,0.89294 0.42924,1.17593 0.12849,0.50236 0.28416,0.98098 0.47332,1.45525 0.10506,0.2634 0.57542,1.8089 0.71577,2.35185 0.0502,0.19403 0.20486,0.77611 0.3438,1.29352 0.28505,1.06156 0.3443,1.31234 0.68064,2.88102 0.13174,0.61442 0.27362,1.27588 0.31528,1.4699 0.0417,0.19403 0.12297,0.59091 0.18068,0.88195 0.0577,0.29104 0.16005,0.79375 0.2274,1.11713 0.0674,0.32338 0.1723,0.879 0.23321,1.23472 0.21808,1.27356 0.59335,3.36289 0.71812,3.99815 0.0699,0.35572 0.17995,0.9378 0.24463,1.29352 0.17748,0.97614 0.31692,1.69798 0.59063,3.0574 0.13672,0.6791 0.27077,1.36702 0.29788,1.52871 0.0271,0.16169 0.0983,0.47919 0.15808,0.70555 0.1269,0.48012 0.75536,3.12498 1.00591,4.23334 0.095,0.42039 0.21953,0.9231 0.27666,1.11713 0.0571,0.19402 0.1375,0.56444 0.1786,0.82314 0.0411,0.25871 0.12931,0.60962 0.19603,0.77981 0.0667,0.17019 0.10426,0.48769 0.0834,0.70556 -0.0328,0.3433 -0.0743,0.27067 -0.31058,-0.54462 z M 33.18541,569.09059 c -0.1099,-1.04558 -0.11134,-3.16586 -0.003,-4.23333 l 0.0836,-0.82315 0.0816,0.58797 c 0.10168,0.73254 0.10205,2.8332 7.3e-4,4.23333 l -0.0766,1.05833 z m -21.65449,-6.15428 c -0.0334,-0.0541 -0.0146,-0.25249 0.0418,-0.44098 l 0.10248,-0.3427 0.0101,0.44097 c 0.01,0.43476 -0.0353,0.5353 -0.15434,0.34271 z m 0.2148,-1.28345 c 0.0428,-0.17786 0.12536,-0.50859 0.18354,-0.73495 0.0582,-0.22637 0.18534,-0.75553 0.28259,-1.17593 0.29095,-1.25763 1.19729,-4.23504 1.48553,-4.88009 0.0578,-0.12935 0.20701,-0.55268 0.33158,-0.94074 0.22194,-0.69138 0.50693,-1.47284 0.75049,-2.05787 0.21493,-0.51628 0.30378,-0.74874 0.56183,-1.46991 0.13885,-0.38805 0.33322,-0.89076 0.43193,-1.11713 0.0987,-0.22636 0.22153,-0.51741 0.27294,-0.64676 0.51024,-1.2839 0.70375,-1.75107 1.1081,-2.67523 0.092,-0.2102 0.27151,-0.64676 0.39898,-0.97014 0.12747,-0.32338 0.36972,-0.89223 0.53834,-1.26412 0.16862,-0.37188 0.43959,-0.98043 0.60216,-1.35231 0.38961,-0.89127 0.47428,-1.03339 0.59918,-1.00575 0.29358,0.065 0.18658,0.46871 -0.56877,2.14621 -0.12955,0.28771 -0.41951,1.00209 -0.64437,1.5875 -0.22485,0.58542 -0.48873,1.24961 -0.58638,1.47597 -0.28858,0.66892 -0.35359,0.83341 -0.74368,1.88148 -0.2046,0.54975 -0.4417,1.15829 -0.52686,1.35232 -0.0852,0.19403 -0.34966,0.88194 -0.58776,1.5287 -0.23809,0.64676 -0.48818,1.30822 -0.55575,1.46991 -0.11497,0.27514 -0.22656,0.55121 -0.45152,1.11713 -0.0514,0.12935 -0.2071,0.55268 -0.34596,0.94074 -0.13885,0.38806 -0.32203,0.86431 -0.40707,1.05833 -0.51365,1.17199 -1.94424,5.42651 -1.94424,5.7821 0,0.15066 -0.0591,0.27392 -0.1313,0.27392 -0.0837,0 -0.1031,-0.11724 -0.0535,-0.32338 z m 34.56159,-9.17222 c 0.0384,-0.24253 0.0785,-1.3141 0.0892,-2.38125 0.0107,-1.06715 0.0538,-2.20486 0.0958,-2.52824 l 0.0764,-0.58796 0.0846,0.57497 c 0.13165,0.89445 0.0996,3.95625 -0.0492,4.69708 -0.14848,0.73936 -0.40951,0.93758 -0.29682,0.2254 z M 19.52143,532.4311 c -0.0249,-0.0808 -0.0756,-0.67681 -0.11266,-1.32436 -0.0371,-0.64756 -0.15274,-1.67417 -0.25704,-2.28135 l -0.18963,-1.10398 -0.60706,-0.71726 c -0.33388,-0.39449 -0.73603,-0.90247 -0.89367,-1.12883 -0.15764,-0.22637 -0.31944,-0.43804 -0.35956,-0.47037 -0.09,-0.0725 -0.92199,-1.37849 -1.70438,-2.67524 -0.54529,-0.90378 -0.87984,-1.20664 -0.87984,-0.79652 0,0.25398 -1.04967,1.28611 -1.53012,1.50456 -1.86817,0.84943 -4.2503804,-0.24798 -5.3351504,-2.45776 -0.37954,-0.77315 -0.39624,-0.81332 -0.84852,-2.04103 -0.32413,-0.87986 -0.76053,-1.77929 -1.15656,-2.38371 -0.22208,-0.33893 -0.18048,-0.6753 0.0835,-0.6753 0.19775,0 0.77418,1.07829 1.19437,2.23426 0.69999,1.92568 1.16894,2.84256 1.77037,3.46139 1.8287504,1.88164 4.7113804,1.78657 5.5538804,-0.18317 0.11511,-0.26913 0.0806,-0.39352 -0.27152,-0.97802 -0.37771,-0.62702 -1.64427,-2.40523 -1.80588,-2.53539 -0.0402,-0.0323 -0.28287,-0.32338 -0.53938,-0.64676 -0.25652,-0.32338 -0.49648,-0.61442 -0.53326,-0.64676 -0.15249,-0.13407 -1.7449504,-2.21976 -2.1099304,-2.76342 -0.21709,-0.32338 -0.42919,-0.61443 -0.47132,-0.64676 -0.13317,-0.10221 -1.09784,-1.79131 -1.4775,-2.58704 -0.53366,-1.1185 -0.68902,-1.64119 -0.53394,-1.79627 0.16153,-0.16153 0.0908,-0.27042 0.89956,1.3847 0.7643,1.56411 1.66269,2.94827 3.0568104,4.70967 0.5093,0.64348 0.95524,1.19641 0.99098,1.22875 0.0357,0.0323 0.27486,0.32338 0.53137,0.64676 0.25651,0.32338 0.49494,0.61442 0.52984,0.64676 0.0349,0.0323 0.21998,0.27046 0.4113,0.52917 0.19131,0.2587 0.40514,0.52952 0.47516,0.60182 0.07,0.0723 0.36183,0.49564 0.64845,0.94075 0.28662,0.4451 0.54875,0.83574 0.5825,0.86807 0.0338,0.0323 0.13707,0.19109 0.22959,0.35278 0.0925,0.16169 0.35191,0.61148 0.57643,0.99954 0.22451,0.38805 0.46631,0.8242 0.53733,0.96922 0.071,0.14502 0.16882,0.26408 0.21732,0.26458 0.0485,5.1e-4 0.0882,0.0533 0.0882,0.11731 0,0.25622 2.04552,3.1795 2.46935,3.52898 0.25075,0.20676 0.598,0.99782 0.65145,1.48404 0.0347,0.31561 0.11341,0.83842 0.17493,1.1618 0.14176,0.74514 0.20569,3.35138 0.0822,3.35138 -0.051,0 -0.11309,-0.0661 -0.13798,-0.14699 z M 1.5170596,528.68487 c -0.22102,-0.42739 -0.14643,-0.86939 0.17581,-1.04185 0.29751,-0.15923 0.53307,-0.0571 0.69675,0.30217 0.2827,0.62046 0.1002,1.10513 -0.41614,1.10513 -0.18029,0 -0.32903,-0.1191 -0.45642,-0.36545 z M 12.24039,521.04549 c -0.22476,-0.1768 -0.30984,-0.35209 -0.30984,-0.63836 0,-0.43885 0.29107,-0.81306 0.55395,-0.71219 0.094,0.0361 0.21807,0.0656 0.2758,0.0656 0.13053,0 0.46377,0.62953 0.46377,0.87611 0,0.19408 -0.40196,0.6526 -0.5721,0.6526 -0.0559,0 -0.24117,-0.10968 -0.41158,-0.24372 z m 9.50241,-13.5638 c -0.35394,-0.2588 -0.11026,-0.36239 0.85247,-0.36239 h 0.88442 l 0.34879,-0.41158 c 0.19184,-0.22636 0.51693,-0.61753 0.72242,-0.86926 0.56102,-0.68724 1.40895,-1.44513 1.71052,-1.52887 0.20313,-0.0564 1.85958,-0.32721 3.27188,-0.53489 0.46519,-0.0684 1.13729,-0.12438 1.49357,-0.12438 0.82352,0 1.838,-0.26318 2.49209,-0.64651 0.48044,-0.28155 0.58052,-0.42409 0.97032,-1.38197 0.0724,-0.17785 0.18253,-0.32338 0.24477,-0.32338 0.24278,0 0.24669,0.25546 0.012,0.78592 -0.67592,1.52804 -1.28475,1.83998 -4.08912,2.09508 -4.08211,0.37134 -4.61925,0.59747 -6.247,2.62984 -0.21834,0.27261 -0.54644,0.57294 -0.72912,0.66741 -0.42881,0.22175 -1.63736,0.22485 -1.93805,0.005 z m -1.10449,-2.94232 c -0.0773,-0.0931 -0.12344,-0.318 -0.1026,-0.49977 0.0466,-0.40676 0.52434,-0.53244 0.76626,-0.20159 0.20221,0.27654 0.19382,0.46082 -0.0312,0.68585 -0.23013,0.23013 -0.44986,0.23552 -0.63245,0.0155 z m -25.8892904,-0.0228 c -0.007,-0.056 -0.003,-0.22513 0.01,-0.37576 0.0199,-0.24012 -0.007,-0.25824 -0.21444,-0.14699 -0.29213,0.15634 -1.2717997,0.16767 -1.3656597,0.0158 -0.0378,-0.0611 0.0976,-0.46305 0.30088,-0.89322 0.3258797,-0.68974 0.3516597,-0.81552 0.21823,-1.06483 -0.18387,-0.34358 -0.24979,-0.34956 -0.52313,-0.0475 -0.45699,0.50497 -1.1662,0.11847 -1.096,-0.59731 0.0482,-0.49176 0.33165,-0.61274 0.33165,-0.14156 0,0.52326 0.22348,0.66787 0.49624,0.32111 0.12451,-0.15829 0.34966,-0.2878 0.50033,-0.2878 0.19865,0 0.30774,-0.0969 0.3969197,-0.35277 0.078,-0.22375 0.20407,-0.35278 0.34468,-0.35278 0.12194,0 0.2571,-0.0354 0.30036,-0.0786 0.12038,-0.12039 -0.28285,-0.50931 -0.52805,-0.50931 -0.11933,0 -0.2169597,-0.0794 -0.2169597,-0.17639 0,-0.25237 0.3862297,-0.21762 0.7484897,0.0673 0.38954,0.30641 0.39399,0.65511 0.0134,1.05233 l -0.29641,0.30939 0.23908,0.21637 c 0.18801,0.17015 0.39956,0.21055 0.99028,0.18913 0.41316,-0.015 0.78125,0.0214 0.81797,0.0808 0.0656,0.1062 -0.0943,0.70992 -0.29434,1.11105 -0.15473,0.31026 -0.12263,0.45659 0.0918,0.41833 0.31398,-0.056 0.3081,0.2074 -0.008,0.35136 -0.1599,0.0729 -0.50522,0.32625 -0.7674,0.56311 -0.26218,0.23686 -0.48254,0.38481 -0.4897,0.32878 z m -0.26132,-0.87464 c 0.66401,-0.28461 0.93866,-0.51152 1.17699,-0.97238 0.25248,-0.48826 0.12637,-0.49645 -0.36071,-0.0234 -0.23575,0.22894 -0.45487,0.41625 -0.48694,0.41625 -0.13336,0 -0.87749,0.54062 -0.93068,0.67616 -0.0749,0.19093 -0.0662,0.18953 0.60134,-0.0966 z m -0.66641,-0.28558 c 0,-0.0323 -0.0265,-0.0588 -0.0588,-0.0588 -0.0323,0 -0.0588,0.0265 -0.0588,0.0588 0,0.0323 0.0265,0.0588 0.0588,0.0588 0.0323,0 0.0588,-0.0265 0.0588,-0.0588 z m 0.65852,-0.51195 c 0.25223,-0.18456 0.55942,-0.44914 0.68262,-0.58796 l 0.22402,-0.2524 -0.22402,2.8e-4 c -0.1232,1.5e-4 -0.40922,0.15877 -0.63558,0.3525 -0.22637,0.19372 -0.44509,0.35235 -0.48606,0.3525 -0.041,1.5e-4 -0.10215,0.10611 -0.13598,0.23546 -0.0828,0.31675 0.0324,0.29663 0.575,-0.10038 z m -0.18815,-0.88476 c 0,-0.0891 -0.0794,-0.22786 -0.17639,-0.30838 -0.14656,-0.12164 -0.17639,-0.1075 -0.17639,0.0836 0,0.12649 0.0353,0.26526 0.0784,0.30838 0.13133,0.13133 0.27439,0.0877 0.27439,-0.0836 z M 32.63406,501.24838 c -0.0765,-0.0922 -0.12271,-0.39651 -0.10259,-0.67616 0.0309,-0.43004 0.0789,-0.51445 0.31071,-0.54728 0.34253,-0.0485 0.59907,0.2701 0.60408,0.75026 0.006,0.57528 -0.48841,0.86332 -0.8122,0.47318 z m -44.3167,-0.16843 c -0.10547,-0.0669 0.0233,-0.16298 0.41157,-0.30718 0.62492,-0.23207 1.4469899,-0.94088 1.4469899,-1.24764 0,-0.10831 0.0806,-0.26386 0.17923,-0.34567 0.51621,-0.42842 0.28917,0.57926 -0.26996,1.19815 -0.5813599,0.64349 -1.3679199,0.95598 -1.7678299,0.70234 z m 10.3252296,-0.0755 c 0,-0.0323 0.0265,-0.0588 0.0588,-0.0588 0.0323,0 0.0588,0.0264 0.0588,0.0588 0,0.0323 -0.0265,0.0588 -0.0588,0.0588 -0.0323,0 -0.0588,-0.0265 -0.0588,-0.0588 z m -6.0861497,-3.31192 c -0.22399,-0.0903 -0.0509,-0.27465 0.25789,-0.27465 0.69643,0 1.5071997,-0.60908 1.6690197,-1.25383 0.0917,-0.36547 0.27868,-0.35155 0.27868,0.0208 0,0.90483 -1.3729897,1.84339 -2.2055897,1.50772 z m -0.76873,-0.46595 c -0.21541,-0.21541 0.79627,-1.35238 1.55035,-1.74233 0.4665497,-0.24126 1.1887897,-0.2453 1.1887897,-0.007 0,0.10076 -0.10582,0.17639 -0.24681,0.17639 -0.5469397,0 -1.3562897,0.55184 -1.8540097,1.26412 -0.25388,0.36334 -0.47608,0.47071 -0.63832,0.30847 z M 28.47387,471.82385 c -0.0442,-0.0442 -0.0803,-0.38742 -0.0803,-0.76273 0,-0.72439 -0.19277,-1.1849 -0.83716,-1.99998 -0.36319,-0.45938 -0.44766,-0.92382 -0.16803,-0.92382 0.20044,0 0.73155,0.75447 1.11754,1.5875 0.17442,0.37644 0.27725,0.82892 0.28582,1.25773 0.0126,0.62869 -0.13631,1.02281 -0.31782,0.8413 z m -7.2959,-2.00423 c -0.0414,-0.0414 -0.0752,-0.4164 -0.0752,-0.83344 0,-0.93283 0.37756,-1.70645 1.13622,-2.32811 0.79305,-0.64984 1.68601,-0.66841 1.68601,-0.0351 0,0.17205 -0.087,0.22078 -0.39393,0.22078 -0.39527,0 -1.07967,0.41013 -1.52813,0.91575 -0.28971,0.32662 -0.53588,1.04219 -0.54223,1.57616 -0.005,0.42211 -0.13023,0.63642 -0.28274,0.48391 z"
       id="path38" /></g></svg>
