<?xml version="1.0" encoding="UTF-8" standalone="no"?>
<!-- Created with Inkscape (http://www.inkscape.org/) -->

<svg
   width="127.98137mm"
   height="75.809746mm"
   viewBox="0 0 127.98138 75.809747"
   version="1.1"
   id="svg1"
   xml:space="preserve"
   xmlns="http://www.w3.org/2000/svg"
   xmlns:svg="http://www.w3.org/2000/svg"><defs
     id="defs1" /><g
     id="layer1"
     transform="translate(169.24337,-678.38794)"><path
       style="fill:#000000"
       d="m -49.356411,754.15252 c -0.04277,-0.0428 -0.570123,-0.12364 -1.1719,-0.17972 -1.142463,-0.10646 -2.634893,-0.27874 -4.033954,-0.46566 -1.905074,-0.25453 -2.965122,-0.3437 -5.526852,-0.46487 -2.684678,-0.12698 -4.175038,-0.0965 -12.758796,0.26123 -1.519884,0.0633 -7.507551,0.13181 -13.305926,0.15216 -6.747969,0.0237 -10.621778,0.0794 -10.762759,0.15488 -0.14724,0.0788 -0.290177,0.0788 -0.431169,-1.5e-4 -0.119422,-0.0668 -0.500675,-0.0861 -0.878908,-0.0445 -0.367398,0.0405 -1.083465,0.10227 -1.59126,0.13733 -0.965345,0.0667 -1.157155,0.023 -2.545715,-0.58001 -0.22637,-0.0983 -0.6497,-0.2714 -0.94074,-0.38467 -1.25444,-0.48821 -1.95027,-1.47413 -2.01899,-2.86072 l -0.037,-0.74615 -2.05882,0.0911 c -3.89653,0.17239 -6.71268,0.0928 -6.8904,-0.19478 -0.0343,-0.0555 -0.16354,-0.10096 -0.28716,-0.10096 -0.12362,0 -0.51398,-0.13229 -0.86747,-0.29398 -0.7751,-0.35454 -0.77537,-0.35456 -0.77537,-0.0551 0,0.13138 -0.0926,0.26858 -0.20579,0.30489 -0.11318,0.0363 -0.44391,0.17364 -0.73495,0.30519 -0.89088,0.40265 -1.69704,0.68522 -2.93981,1.03041 -0.29105,0.0808 -0.66146,0.18719 -0.82315,0.23634 -0.16169,0.0492 -0.55857,0.14839 -0.88195,0.22052 -3.2807,0.73181 -4.51119,1.05392 -6.39374,1.67374 -1.20478,0.39666 -2.29635,0.76396 -2.4257,0.81621 -0.12935,0.0522 -0.39394,0.12828 -0.58796,0.16897 -0.19403,0.0407 -0.59091,0.12783 -0.88195,0.19366 -1.70834,0.38642 -4.88566,0.37987 -9.11342,-0.0188 -0.64676,-0.061 -1.81093,-0.16418 -2.58704,-0.22932 -1.64871,-0.13839 -2.12091,-0.19661 -2.99861,-0.36975 -2.03508,-0.40145 -4.7279,-1.56389 -4.80008,-2.07212 -0.0477,-0.33566 -0.10607,-0.33205 -0.78725,0.0487 -0.92797,0.51865 -2.96556,0.84606 -3.17332,0.5099 -0.1182,-0.19126 -0.61289,-0.13478 -1.02609,0.11715 -0.49461,0.30156 -0.92034,0.29834 -1.31225,-0.01 -0.45758,-0.35993 -0.66027,-0.83702 -0.66027,-1.55411 0,-0.81277 0.28632,-1.14352 1.24188,-1.43458 1.04104,-0.31709 2.03933,-0.8198 2.68088,-1.35001 0.66193,-0.54707 0.78094,-0.57631 0.78094,-0.19192 0,0.54176 -1.44787,1.53315 -2.99861,2.05322 -0.90729,0.30428 -1.11245,0.42871 -1.24852,0.75721 -0.16071,0.38799 0.017,0.82703 0.44937,1.11035 0.23332,0.15288 0.33964,0.14404 0.99479,-0.0827 0.63264,-0.21893 0.80556,-0.23572 1.25706,-0.12203 0.30836,0.0776 0.79401,0.0981 1.1817,0.0498 0.6519,-0.0813 0.93645,-0.18215 2.30449,-0.8172 0.38806,-0.18014 0.91722,-0.38051 1.17593,-0.44527 0.2587,-0.0648 2.93099,-0.1579 5.93842,-0.20697 6.30182,-0.10281 8.67966,-0.27609 12.7,-0.92546 0.42039,-0.0679 0.94956,-0.15116 1.17593,-0.18501 0.44115,-0.066 1.4111,-0.24786 2.17546,-0.4079 0.2587,-0.0542 0.78787,-0.16398 1.17593,-0.24401 0.85206,-0.17574 4.56581,-1.09567 5.46805,-1.35448 1.34044,-0.38452 1.4779,-0.42149 1.79473,-0.48262 0.17865,-0.0345 0.35375,-0.10949 0.38911,-0.16671 0.0354,-0.0572 0.16701,-0.10403 0.29255,-0.10403 0.26474,0 0.32365,0.48653 0.0812,0.67106 -0.34395,0.26184 -6.08765,1.77388 -8.61366,2.26755 -0.38805,0.0759 -0.91722,0.18342 -1.17592,0.23905 -0.63606,0.13678 -1.23248,0.23502 -3.52778,0.58107 -4.54164,0.68472 -10.27203,0.99335 -15.40463,0.82966 -1.29717,-0.0414 -1.84094,0.0199 -2.81685,0.31743 l -0.3474,0.10591 0.64138,0.36532 c 1.95888,1.11573 4.06935,1.6022 8.28491,1.90971 0.84078,0.0613 2.1637,0.1785 2.93981,0.26036 1.54995,0.16348 5.95698,0.20119 6.70278,0.0574 1.11433,-0.21492 1.84641,-0.42375 4.58611,-1.30823 2.241,-0.72348 3.319,-1.02782 4.7625,-1.34454 1.97913,-0.43425 3.35717,-0.77704 3.82176,-0.95066 0.12935,-0.0484 0.44685,-0.15165 0.70556,-0.22956 0.2587,-0.0779 0.58943,-0.19108 0.73495,-0.25148 0.14552,-0.0604 0.38364,-0.15734 0.52917,-0.21542 0.682,-0.27221 1.14175,-0.4971 1.19614,-0.58511 0.0328,-0.053 -0.10226,-0.25007 -0.30009,-0.43782 -0.19784,-0.18776 -0.50709,-0.63242 -0.68722,-0.98814 -0.93879,-1.85395 -0.79378,-3.58805 0.75719,-9.05463 0.10092,-0.35571 0.2162,-0.81873 0.25618,-1.02893 0.04,-0.2102 0.12379,-0.38218 0.18624,-0.38218 0.2189,0 -0.0841,1.80589 -0.65115,3.88056 -0.67732,2.47822 -0.84375,4.42568 -0.48226,5.64296 0.28814,0.97028 1.37965,1.99142 2.57659,2.4105 1.10541,0.38703 1.57717,0.42878 4.46851,0.39547 1.6169,-0.0186 3.42503,-0.0355 4.01806,-0.0375 l 1.07824,-0.004 0.0588,-0.41157 c 0.0711,-0.49771 0.17008,-0.97844 0.31466,-1.52871 0.0595,-0.22636 0.24033,-0.9672 0.4019,-1.64629 0.16157,-0.6791 0.50727,-2.10158 0.76822,-3.16106 0.26095,-1.05948 0.47446,-1.94584 0.47446,-1.96968 0,-0.0238 -0.5796,-0.0433 -1.28799,-0.0433 -1.26412,0 -1.72612,-0.0972 -2.1516,-0.45254 -0.32819,-0.27411 -0.27668,-1.46462 0.0924,-2.1345 0.16033,-0.29104 0.32376,-0.62177 0.36318,-0.73495 0.0394,-0.11318 0.11841,-0.20579 0.17554,-0.20579 0.0571,0 0.10388,-0.0694 0.10388,-0.15421 0,-0.0848 0.094,-0.2568 0.20898,-0.38218 0.11494,-0.12538 0.33729,-0.41317 0.4941,-0.63953 0.15682,-0.22637 0.32101,-0.43803 0.36487,-0.47037 0.0439,-0.0323 0.64086,-0.93192 1.32666,-1.99908 0.68581,-1.06715 1.29269,-1.99561 1.34862,-2.06324 0.0559,-0.0676 0.12295,-0.17936 0.14891,-0.24829 0.16986,-0.45098 1.49122,-2.27121 1.64984,-2.27273 0.23911,-0.002 0.30644,-0.18432 0.97937,-2.64768 0.565167,-2.06887 0.886147,-3.18138 1.238359,-4.29213 0.112795,-0.35572 0.270244,-0.88489 0.349887,-1.17593 0.07964,-0.29104 0.192563,-0.62105 0.250936,-0.73336 0.05837,-0.1123 0.106131,-0.285 0.106131,-0.38377 0,-0.0988 0.04748,-0.27146 0.105514,-0.38377 0.05803,-0.1123 0.222218,-0.60106 0.364856,-1.08613 0.142639,-0.48507 0.306824,-0.97383 0.364857,-1.08614 0.05803,-0.11231 0.105514,-0.30762 0.105514,-0.43403 0,-0.12641 0.05292,-0.26255 0.117592,-0.30252 0.06468,-0.04 0.117593,-0.19126 0.117593,-0.3362 0,-0.14494 0.05994,-0.32346 0.133207,-0.39673 0.213305,-0.2133 0.03217,-0.47311 -0.389845,-0.55915 -0.214567,-0.0438 -0.548871,-0.12695 -0.742899,-0.18489 -0.696338,-0.20797 -1.885962,-0.5982 -2.116667,-0.69434 -0.129352,-0.0539 -0.420393,-0.16161 -0.646755,-0.23934 -0.58,-0.19916 -0.80862,-0.29002 -1.41112,-0.56083 -0.29104,-0.13082 -0.74083,-0.32811 -0.99953,-0.43843 -1.26099,-0.53773 -3.70137,-1.82 -5.41995,-2.84786 -1.79834,-1.07556 -7.22058,-4.83769 -7.7841,-5.40087 -0.0832,-0.0831 -0.30809,-0.24381 -0.49977,-0.35704 -0.32471,-0.19181 -0.46436,-0.58806 -0.27424,-0.77818 0.0827,-0.0827 0.41228,0.0704 0.65153,0.30275 0.0859,0.0834 0.34137,0.27963 0.56773,0.43607 0.22637,0.15645 0.43803,0.31445 0.47037,0.35112 0.076,0.0862 2.70327,1.96119 3.46898,2.47571 0.32338,0.21729 0.60561,0.43784 0.62716,0.49012 0.0216,0.0523 0.0897,0.095 0.15151,0.095 0.0618,0 0.58236,0.31606 1.15687,0.70236 0.57452,0.38631 1.22072,0.80285 1.436,0.92566 0.21529,0.12281 0.91951,0.52975 1.56494,0.90432 0.64544,0.37456 1.9419,1.04647 2.88102,1.49313 1.91672,0.91161 2.03261,0.96316 3.17741,1.41324 0.16169,0.0636 0.385868,0.16232 0.498174,0.21945 0.112305,0.0571 0.30762,0.10387 0.434032,0.10387 0.126412,0 0.262545,0.0529 0.302517,0.11759 0.03997,0.0647 0.176105,0.1176 0.302517,0.1176 0.126413,0 0.321727,0.0478 0.434032,0.10613 0.112306,0.0584 0.442317,0.17136 0.733358,0.25108 1.04204,0.28544 1.355319,0.3995 1.558102,0.56729 0.18388,0.15215 0.205787,0.14581 0.205787,-0.0596 0,-0.12644 0.04339,-0.28016 0.09642,-0.34161 0.05303,-0.0614 0.220715,-0.49535 0.372636,-0.96425 0.15192,-0.46891 0.316633,-0.85255 0.366028,-0.85255 0.264775,0 0.199581,0.57422 -0.190022,1.67367 -0.235311,0.66404 -0.561196,1.63068 -0.724191,2.14809 -0.162994,0.51741 -0.34416,1.03263 -0.402592,1.14493 -0.05843,0.11231 -0.10624,0.285 -0.10624,0.38377 0,0.0988 -0.04748,0.27147 -0.105513,0.38377 -0.05803,0.11231 -0.223084,0.60107 -0.366781,1.08614 -0.143696,0.48507 -0.30185,0.98778 -0.351453,1.11713 -0.0496,0.12935 -0.155166,0.47331 -0.234586,0.76435 -0.07942,0.29104 -0.185253,0.635 -0.235185,0.76435 -0.04993,0.12935 -0.155871,0.47331 -0.23542,0.76435 -0.07955,0.29105 -0.190174,0.66146 -0.245835,0.82315 -0.05566,0.16169 -0.440015,1.51107 -0.85412,2.99861 -0.827516,2.9726 -0.812057,2.91645 -1.149175,4.17454 -0.12998,0.48507 -0.28911,1.06715 -0.35361,1.29352 -0.0645,0.22637 -0.16317,0.59678 -0.21925,0.82315 -0.0561,0.22636 -0.16191,0.62324 -0.23518,0.88194 -0.21263,0.75068 -0.36491,1.38164 -0.43307,1.79438 -0.0348,0.2108 -0.11036,0.41236 -0.16789,0.44791 -0.0575,0.0356 -0.1046,0.17683 -0.1046,0.31394 0,0.13711 -0.0493,0.4118 -0.10962,0.61042 -0.10177,0.33523 -0.16277,0.56875 -0.47834,1.83104 -0.0647,0.2587 -0.16926,0.66881 -0.2324,0.91134 -0.11536,0.44314 -0.84841,3.47442 -1.5285,6.3206 -0.20091,0.84079 -0.46898,1.94019 -0.59571,2.44312 -0.31208,1.23841 -0.31226,2.75632 -4e-4,3.36761 0.31092,0.60945 0.81467,1.00914 1.55961,1.23742 0.34155,0.10467 0.80622,0.24645 1.03258,0.31507 0.22637,0.0686 0.73897,0.27881 1.13912,0.46711 0.75877,0.35705 1.179808,0.41406 1.753753,0.23745 1.260641,-0.38791 1.605591,-0.39982 7.768943,-0.26831 6.359757,0.13571 15.458258,-0.0108 22.32291,-0.35942 1.616898,-0.0821 4.342106,-0.14724 6.056018,-0.14472 3.614134,0.005 5.900538,0.16062 9.466204,0.64292 4.103435,0.55505 6.942738,0.69666 9.466203,0.47213 1.922874,-0.17109 2.116667,-0.21928 2.116667,-0.52631 0,-0.45815 -0.333553,-0.61545 -1.469907,-0.69318 -0.582084,-0.0398 -1.328573,-0.17183 -1.658866,-0.29336 -0.796814,-0.29319 -3.101439,-1.51627 -3.827343,-2.0312 -0.171673,-0.12178 -0.370111,-0.22142 -0.440972,-0.22142 -0.07086,0 -0.128838,-0.0529 -0.128838,-0.11759 0,-0.0647 -0.0694,-0.1176 -0.154215,-0.1176 -0.08482,0 -0.267814,-0.10583 -0.406657,-0.23518 -0.138843,-0.12935 -0.294342,-0.23615 -0.345553,-0.23733 -0.05121,-10e-4 -0.251862,-0.13008 -0.44589,-0.28645 -0.194027,-0.15637 -0.776919,-0.59577 -1.295315,-0.97644 -0.880289,-0.64642 -0.953012,-0.733 -1.10113,-1.31093 -0.240292,-0.93757 -0.882499,-1.2559 -1.887335,-0.93552 -0.691943,0.22062 -0.854541,0.29102 -1.713442,0.74187 -3.070535,1.61178 -4.032943,1.88001 -6.761574,1.88449 -2.015308,0.003 -2.822585,-0.0985 -4.821296,-0.6079 -1.212634,-0.30906 -4.518638,-1.37617 -4.849099,-1.56518 -0.112305,-0.0642 -0.300159,-0.1168 -0.417453,-0.1168 -0.117295,0 -0.263533,-0.0434 -0.324976,-0.0963 -0.06144,-0.053 -0.667338,-0.27099 -1.346435,-0.48444 -0.679097,-0.21346 -1.340555,-0.42866 -1.469907,-0.47823 -0.129352,-0.0496 -0.47331,-0.1552 -0.764352,-0.23475 -0.291042,-0.0795 -0.661458,-0.18528 -0.823148,-0.23495 -1.004991,-0.30875 -2.217031,-0.57304 -4.409722,-0.96154 -1.111368,-0.19691 -5.074244,-0.19732 -6.056019,-6.2e-4 -1.138495,0.22809 -2.287523,0.52751 -2.763426,0.72011 -0.129352,0.0523 -0.383196,0.15468 -0.564098,0.22741 -0.180902,0.0727 -0.428376,0.13223 -0.549942,0.13223 -0.121566,0 -0.238139,0.0661 -0.25905,0.14699 -0.09408,0.36374 -0.990909,1.84647 -1.096354,1.81262 -0.252732,-0.0811 -0.170694,-0.54594 0.21323,-1.2081 0.220901,-0.38099 0.533624,-0.93084 0.694939,-1.22188 0.161316,-0.29104 0.406617,-0.7276 0.545113,-0.97014 0.138496,-0.24253 0.357644,-0.62618 0.486996,-0.85254 0.878492,-1.53736 0.93299,-1.63398 2.35469,-4.17454 0.560988,-1.00248 1.133802,-2.02112 1.272921,-2.26366 0.139119,-0.24253 0.358778,-0.62618 0.488129,-0.85254 0.129352,-0.22637 0.348813,-0.61002 0.487692,-0.85255 0.138878,-0.24253 0.413415,-0.73201 0.610082,-1.08773 0.196667,-0.35572 0.91014,-1.59926 1.585496,-2.76343 2.640047,-4.55086 2.680421,-4.62415 4.049099,-7.34953 0.961348,-1.91429 1.199477,-2.42734 1.610116,-3.46899 0.05099,-0.12935 0.147371,-0.36747 0.214174,-0.52916 0.0668,-0.16169 0.185056,-0.47919 0.262786,-0.70556 0.07773,-0.22636 0.182872,-0.51741 0.233649,-0.64676 0.05078,-0.12935 0.157301,-0.47331 0.236721,-0.76435 0.07942,-0.29104 0.187299,-0.635 0.239731,-0.76435 0.05243,-0.12935 0.12862,-0.39394 0.169305,-0.58796 0.04068,-0.19403 0.124046,-0.57768 0.185246,-0.85255 0.27394,-1.23036 0.364569,-1.65474 0.470865,-2.20486 0.39612,-2.05008 0.552481,-4.5647 0.357616,-5.75124 -0.157127,-0.95675 -0.361604,-1.72441 -0.502469,-1.8864 -0.05343,-0.0614 -0.09715,-0.18341 -0.09715,-0.27104 0,-0.25317 -0.932421,-1.56525 -1.533043,-2.15726 -1.109256,-1.09335 -2.51297,-1.8478 -4.346586,-2.33614 -1.660715,-0.4423 -2.2285,-0.51577 -4.142037,-0.53595 -1.249432,-0.0132 -1.579142,-0.0558 -1.999074,-0.25849 -0.51554,-0.24882 -1.477017,-0.68957 -2.207963,-1.01215 -4.685186,-2.0677 -6.413976,-2.89056 -7.996298,-3.80601 -2.00699,-1.16114 -3.12185,-1.92808 -4.7991,-3.3014 -0.66689,-0.54605 -1.32834,-1.10654 -1.4699,-1.24553 -0.34904,-0.34272 -2.96541,-2.52233 -3.54998,-2.95737 -0.2587,-0.19253 -0.49683,-0.38079 -0.52916,-0.41835 -0.0323,-0.0376 -0.38044,-0.28501 -0.77355,-0.54989 -0.66275,-0.44657 -0.93653,-0.61195 -1.96048,-1.18426 -0.7624,-0.42612 -2.01538,-0.85713 -3.12703,-1.07565 -4.03273,-0.79272 -7.40977,-0.79547 -9.60636,-0.008 -0.38586,0.13836 -0.93969,0.33072 -1.23073,0.42746 -0.29104,0.0967 -0.635,0.22011 -0.76435,0.27415 -0.81773,0.34167 -1.38724,0.41816 -2.99862,0.40276 -0.9378,-0.009 -1.84999,-0.0736 -2.02709,-0.14355 -0.38179,-0.15089 -0.6026,0.0338 -1.02702,0.859 -0.40141,0.78048 -0.91943,1.34795 -1.67812,1.83831 -0.78038,0.50439 -2.25548,1.10492 -2.43757,0.99238 -0.24136,-0.14916 -0.12385,-0.53511 0.20244,-0.66493 1.43427,-0.57064 2.51392,-1.20083 3.01819,-1.76169 l 0.54208,-0.60293 -0.0677,-0.9557 c -0.0372,-0.52564 -0.0918,-1.07473 -0.12136,-1.22021 -0.0637,-0.31387 -0.66405,-0.70835 -1.63675,-1.07548 -0.38805,-0.14647 -0.81138,-0.32424 -0.94074,-0.39504 -0.12935,-0.0708 -0.43362,-0.23514 -0.67615,-0.36519 -0.24254,-0.13006 -0.44098,-0.27957 -0.44098,-0.33225 0,-0.0527 -0.0566,-0.0958 -0.1258,-0.0958 -0.0692,0 -0.347,-0.14714 -0.61736,-0.32698 -0.6845,-0.45531 -1.06106,-0.61492 -2.25545,-0.95599 -1.14,-0.32555 -3.4146,-0.31486 -4.17453,0.0196 -0.097,0.0427 -0.57327,0.0987 -1.05834,0.12454 -1.78616,0.095 -3.11655,0.73084 -4.59104,2.1942 -1.12694,1.11845 -1.79085,2.2496 -2.18053,3.71516 -0.24126,0.90733 -0.30037,3.7532 -0.11524,5.54822 0.0721,0.69898 0.0631,0.97014 -0.0321,0.97014 -0.0727,0 -0.15754,-0.11907 -0.18856,-0.26459 -0.031,-0.14552 -0.12226,-0.58208 -0.20275,-0.97014 -0.0846,-0.40762 -0.14857,-1.62417 -0.15162,-2.88102 -0.005,-1.9716 0.0203,-2.25182 0.26767,-2.99029 0.52547,-1.5687 1.0878,-2.45516 2.36004,-3.72044 0.83826,-0.83367 2.17256,-1.75593 2.54045,-1.75593 0.0897,0 0.19026,-0.0439 0.2234,-0.0975 0.0331,-0.0536 0.367,-0.16454 0.7419,-0.24648 0.3749,-0.0819 0.93658,-0.22553 1.24818,-0.31908 0.82216,-0.24683 3.90856,-0.35311 4.7563,-0.16378 1.35509,0.30265 3.06171,1.02883 4.14336,1.76304 0.16169,0.10975 0.80362,0.44483 1.42651,0.74461 0.62289,0.29979 1.29951,0.68558 1.5036,0.85731 0.3731,0.31394 0.71526,0.95698 0.71526,1.34421 0,0.11454 0.0926,0.24829 0.20578,0.29723 0.66354,0.28691 3.81268,0.50363 4.49213,0.30914 1.05327,-0.30148 1.67664,-0.50392 2.76225,-0.89703 0.64293,-0.23281 1.61559,-0.50118 2.16147,-0.59637 1.54643,-0.26968 3.97287,-0.22281 6.30838,0.12183 2.25129,0.33222 3.50814,0.68051 4.70749,1.3045 0.45273,0.23554 0.94179,0.48797 1.08681,0.56095 0.14502,0.073 0.26408,0.17238 0.26458,0.22089 5.1e-4,0.0485 0.0671,0.0889 0.14791,0.0898 0.0808,8.7e-4 0.27928,0.10703 0.44097,0.23591 0.16169,0.12889 0.6644,0.50585 1.11713,0.83771 0.75709,0.55494 3.76441,3.08128 4.17454,3.50687 0.097,0.10067 0.37025,0.32717 0.60718,0.50333 0.23694,0.17617 0.50152,0.39004 0.58797,0.47528 0.56854,0.56059 3.91912,2.75417 5.448831,3.56728 1.552207,0.82507 3.342283,1.71139 4.468518,2.2125 0.711435,0.31655 1.74331,0.78189 2.293056,1.03409 0.549745,0.2522 1.184745,0.53977 1.411111,0.63905 0.226366,0.0993 0.676157,0.31034 0.999537,0.46902 0.634207,0.31118 0.855011,0.34697 3.175,0.51458 0.840787,0.0608 1.819745,0.16273 2.175463,0.22663 0.355717,0.0639 0.845687,0.1499 1.088821,0.19111 0.243134,0.0412 0.471153,0.12201 0.506709,0.17954 0.03556,0.0575 0.190692,0.1046 0.344747,0.1046 0.154056,0 0.312806,0.0529 0.352778,0.11759 0.03997,0.0647 0.149505,0.11759 0.243407,0.11759 0.241249,0 1.17373,0.4429 1.913655,0.90892 1.739053,1.09529 2.911853,2.74086 3.43154,4.81483 0.580992,2.31863 0.217998,6.35857 -0.935876,10.41584 -0.06898,0.24253 -0.174755,0.61295 -0.235065,0.82315 -0.06031,0.21019 -0.144101,0.51446 -0.186204,0.67615 -0.0421,0.16169 -0.119709,0.39982 -0.17246,0.52917 -0.05275,0.12935 -0.159507,0.42039 -0.237238,0.64676 -0.165723,0.48262 -0.257037,0.71512 -0.531127,1.35231 -0.111281,0.25871 -0.279317,0.65558 -0.373414,0.88195 -0.394602,0.94928 -2.565703,5.23413 -2.740829,5.40926 -0.03234,0.0323 -0.169711,0.27046 -0.305274,0.52916 -0.135563,0.25871 -0.360459,0.66881 -0.499769,0.91135 -0.599063,1.04295 -0.776242,1.35531 -1.083922,1.91088 -0.179091,0.32338 -0.938588,1.66736 -1.687772,2.98663 -0.749183,1.31927 -1.362152,2.44375 -1.362152,2.49884 0,0.0551 -0.04043,0.10018 -0.08985,0.10018 -0.04942,0 -0.18107,0.19843 -0.292559,0.44097 -0.111488,0.24253 -0.343173,0.67909 -0.514854,0.97014 -0.171682,0.29104 -0.444549,0.76729 -0.606371,1.05833 -0.161822,0.29104 -0.622336,1.11125 -1.023364,1.82268 -0.401028,0.71144 -0.862153,1.53165 -1.024722,1.82269 -0.16257,0.29104 -0.416378,0.74083 -0.564018,0.99954 -0.872347,1.52857 -0.864612,1.51119 -0.631109,1.41796 1.086214,-0.43372 2.740084,-0.84532 3.855986,-0.95964 0.428935,-0.0439 0.801853,-0.11545 0.828707,-0.1589 0.02685,-0.0435 -0.437655,-0.22259 -1.032241,-0.39809 -0.594586,-0.17549 -1.319191,-0.3902 -1.610232,-0.47713 -0.434638,-0.12982 -0.529167,-0.20804 -0.529167,-0.43789 0,-0.41573 0.286564,-0.37668 2.645833,0.36058 1.820601,0.56894 2.794251,0.81448 3.987796,1.0057 2.72666,0.43682 2.785645,0.44887 5.008038,1.02306 0.258703,0.0668 0.602662,0.16192 0.764351,0.21127 0.16169,0.0494 0.690857,0.20741 1.175926,0.35122 0.48507,0.14381 0.973831,0.30896 1.086136,0.36699 0.112306,0.058 0.30762,0.10552 0.434032,0.10552 0.126413,0 0.258138,0.0458 0.292722,0.10174 0.124225,0.201 0.915119,0.24498 1.254005,0.0697 0.182386,-0.0943 0.438747,-0.17148 0.569691,-0.17148 0.45483,0 1.840477,-0.73565 3.422396,-1.81696 1.860921,-1.27203 2.29195,-1.45314 2.945285,-1.23752 0.247427,0.0817 0.584419,0.28891 0.748869,0.46056 0.285837,0.29835 1.121291,1.60103 1.12594,1.75562 0.0012,0.0407 0.331952,0.39584 0.734953,0.78927 0.768135,0.74989 1.40775,1.22153 2.382834,1.75704 0.321286,0.17644 0.757673,0.45028 0.969751,0.60851 0.305162,0.22768 0.464602,0.27069 0.764352,0.20619 0.64677,-0.13919 1.873791,-0.66245 2.652352,-1.13108 1.455194,-0.87591 2.170036,-1.15718 2.91729,-1.14785 0.429865,0.005 0.821343,0.086 1.041522,0.21459 0.430561,0.25142 0.881944,0.89286 0.881944,1.25328 0,0.16467 0.129257,0.34817 0.339798,0.48238 0.645332,0.41138 2.188905,1.4966 2.33613,1.64242 0.08123,0.0805 0.253207,0.17978 0.382176,0.22071 0.128969,0.0409 0.234489,0.12378 0.234489,0.18409 0,0.0603 0.05661,0.10967 0.125803,0.10967 0.06919,0 0.356539,0.15875 0.638549,0.35278 0.282009,0.19403 0.547958,0.35278 0.590997,0.35278 0.04304,0 0.219174,0.10034 0.391412,0.22299 0.502886,0.35808 2.855122,1.50851 3.368516,1.64746 0.258704,0.07 0.883954,0.1276 1.389444,0.12797 0.951683,6.7e-4 1.28534,0.10456 1.641768,0.51117 0.312198,0.35615 0.352308,0.67738 0.146179,1.17071 -0.212677,0.50901 -0.476339,0.64417 -1.589891,0.81499 -0.892572,0.13692 -6.262547,0.25667 -6.377016,0.1422 z m -12.672983,-6.86028 0.293981,-0.0827 -0.352778,-0.21822 c -2.293678,-1.41883 -2.813042,-1.88514 -3.606793,-3.23835 -0.975853,-1.66366 -1.89249,-2.02528 -3.175441,-1.25273 -0.359471,0.21646 -0.98608,0.6626 -1.392465,0.99143 -0.761613,0.61625 -2.485644,1.55751 -2.849606,1.55579 -0.235303,-10e-4 -0.280135,0.21827 -0.0588,0.28772 0.08084,0.0254 0.838935,0.26314 1.684645,0.52839 1.978349,0.62048 4.077422,1.15119 5.341512,1.35047 1.062868,0.16756 3.624865,0.21623 4.115741,0.0782 z m -41.498726,-8.26148 0.42303,-0.007 0.43959,-1.72165 c 0.24178,-0.9469 0.48556,-1.90685 0.54173,-2.13322 0.0562,-0.22637 0.15511,-0.62324 0.21985,-0.88194 0.0647,-0.25871 0.15052,-0.62912 0.19062,-0.82315 0.0401,-0.19403 0.11786,-0.45861 0.17279,-0.58797 0.0549,-0.12935 0.13033,-0.3807 0.16754,-0.55856 0.0372,-0.17786 0.0981,-0.4689 0.1353,-0.64676 0.0372,-0.17786 0.1126,-0.42921 0.16754,-0.55856 0.0549,-0.12936 0.13269,-0.39394 0.17279,-0.58797 0.0696,-0.33656 0.189,-0.82969 0.35602,-1.4699 0.0759,-0.29089 0.0744,-0.29058 -0.13571,0.0294 -0.11682,0.17786 -0.25305,0.32338 -0.30275,0.32338 -0.0497,0 -0.0904,0.0533 -0.0904,0.11844 0,0.0651 -0.38948,0.71337 -0.86551,1.44051 -0.47603,0.72714 -1.37653,2.12201 -2.00111,3.09971 -0.62458,0.9777 -1.23895,1.8968 -1.36526,2.04244 -0.12631,0.14564 -0.26126,0.36435 -0.29987,0.48602 -0.0386,0.12167 -0.11339,0.22122 -0.16617,0.22122 -0.0528,0 -0.12668,0.0926 -0.16424,0.20578 -0.0376,0.11319 -0.14877,0.41746 -0.24713,0.67616 -0.24253,0.63789 -0.22753,0.90674 0.0683,1.2243 0.23471,0.25193 0.31162,0.26424 1.20532,0.19288 0.52504,-0.0419 1.14498,-0.0794 1.37765,-0.0834 z m -49.01824,9.59508 c -0.21024,-0.16714 -0.51451,-0.52958 -0.67616,-0.80542 -0.25552,-0.43602 -0.29323,-0.63839 -0.28872,-1.54952 0.005,-0.97648 0.1865,-2.04324 0.38109,-2.23783 0.0462,-0.0462 0.0841,-0.15798 0.0841,-0.24829 0,-0.19379 0.64639,-1.57254 0.99277,-2.1176 0.3054,-0.48057 0.53593,-0.49384 0.53593,-0.0309 0,0.19403 -0.0397,0.35319 -0.0882,0.3537 -0.0485,5e-4 -0.14645,0.11957 -0.21765,0.26458 -0.0712,0.14502 -0.25069,0.50179 -0.39887,0.79283 -0.3983,0.7823 -0.48687,1.03255 -0.8164,2.3067 -0.31929,1.23456 0.0231,2.13337 1.15053,3.02 0.14786,0.11628 0.2479,0.27503 0.2223,0.35278 -0.084,0.25515 -0.49148,0.20839 -0.88072,-0.10107 z m 8.78589,-6.79563 c -0.0346,-0.0358 -0.37861,-0.12322 -0.76435,-0.19421 -0.38573,-0.071 -0.96592,-0.17841 -1.2893,-0.23871 -0.32338,-0.0603 -1.09067,-0.16387 -1.70509,-0.23018 -1.79894,-0.19412 -3.01626,-0.39976 -3.46898,-0.58599 -1.0732,-0.44147 -1.45663,-0.69045 -2.14524,-1.393 l -0.38259,-0.39033 -0.38238,0.26707 c -0.21031,0.14689 -0.40884,0.29716 -0.44118,0.33393 -0.15193,0.17276 -0.76226,0.35605 -1.18559,0.35605 -0.55115,0 -0.99347,-0.25772 -1.23114,-0.71732 -0.17446,-0.33737 -0.16023,-0.41829 0.22549,-1.28175 0.18987,-0.42506 1.28229,-1.54816 2.01827,-2.07497 0.3483,-0.2493 0.66191,-0.53265 0.69692,-0.62966 0.0603,-0.16719 0.18664,-0.24653 1.09295,-0.68659 0.2102,-0.10206 0.38218,-0.25463 0.38218,-0.33904 0,-0.0844 0.0467,-0.24538 0.10387,-0.35768 0.0972,-0.19107 0.1963,-0.42547 0.48409,-1.14493 0.29455,-0.73637 0.38792,-0.95561 0.49515,-1.16264 0.58937,-1.13792 1.03748,-1.66957 1.31685,-1.56236 0.27394,0.10512 0.24545,0.18052 -0.40583,1.07385 -0.52848,0.72491 -0.68765,1.00833 -1.05934,1.88633 -0.0548,0.12935 -0.21422,0.6056 -0.35434,1.05834 -0.14013,0.45273 -0.3016,0.91503 -0.35882,1.02734 -0.0572,0.1123 -0.10404,0.30761 -0.10404,0.43403 0,0.12641 -0.0543,0.26338 -0.12061,0.30438 -0.13802,0.0853 0.47522,0.69726 0.93497,0.93302 1.05645,0.54175 2.04416,0.72407 5.12406,0.94586 1.29352,0.0931 3.2118,0.2535 4.26285,0.35635 2.03644,0.19928 2.81017,0.19624 11.37697,-0.0446 4.80678,-0.13514 6.38901,-0.2782 8.13498,-0.73551 0.89835,-0.2353 2.49303,-0.73843 2.91872,-0.92086 0.12935,-0.0554 0.4204,-0.16526 0.64676,-0.24404 0.4593,-0.15986 1.06165,-0.41119 1.57617,-0.65767 0.52662,-0.25227 0.91778,-0.21637 0.87206,0.08 -0.0465,0.30149 -0.52056,0.56753 -1.97786,1.11001 -0.29104,0.10833 -0.635,0.24199 -0.76435,0.29701 -1.48505,0.63164 -4.17325,1.3351 -5.76204,1.50784 -0.64676,0.0703 -3.23967,0.18573 -5.76203,0.25646 -2.52237,0.0707 -5.19466,0.17598 -5.93843,0.23388 -1.31618,0.10245 -4.49025,-0.0529 -7.17315,-0.35114 -0.54974,-0.0611 -2.03336,-0.19304 -3.29693,-0.29318 -2.39563,-0.18985 -3.25471,-0.35223 -4.19038,-0.79205 -0.78406,-0.36855 -1.44972,-1.06045 -1.44972,-1.50687 0,-0.19402 -0.0553,-0.35277 -0.12291,-0.35277 -0.20328,0 -1.82368,1.13717 -2.38559,1.67417 -0.58278,0.55695 -1.01817,1.2133 -1.01884,1.5359 -2.6e-4,0.12583 0.14876,0.2742 0.36797,0.36637 0.63352,0.26638 1.37055,-0.0526 2.48464,-1.07538 0.308,-0.28276 0.61227,-0.48179 0.67616,-0.44231 0.17758,0.10976 0.13832,0.54407 -0.07,0.77426 -0.17228,0.19037 -0.14932,0.24144 0.30816,0.68542 0.27188,0.26384 0.56731,0.47971 0.65653,0.47971 0.0892,0 0.16262,0.0397 0.16313,0.0882 0.001,0.11778 0.58146,0.38217 0.83873,0.38217 0.11264,0 0.23389,0.0471 0.26945,0.1046 0.0884,0.14303 1.22465,0.32633 3.71219,0.59886 0.54975,0.0602 1.29058,0.1759 1.6463,0.25703 0.88901,0.20278 3.70331,0.19107 5.05648,-0.021 0.7718,-0.12098 1.69874,-0.16068 2.99861,-0.12845 4.24921,0.10537 9.6678,0.0663 10.81852,-0.0779 2.44433,-0.30646 4.46238,-0.69512 6.17361,-1.18899 0.22637,-0.0653 0.59679,-0.16931 0.82315,-0.23107 0.22637,-0.0618 0.74798,-0.22311 1.15915,-0.35855 0.79717,-0.26259 0.95752,-0.24532 0.95752,0.10313 0,0.21561 -0.57192,0.58964 -0.90161,0.58964 -0.0879,0 -0.2518,0.0478 -0.36411,0.10613 -0.1123,0.0584 -0.44231,0.17024 -0.73336,0.24859 -0.29104,0.0784 -0.635,0.18535 -0.76435,0.23779 -0.12935,0.0524 -0.39393,0.12814 -0.58796,0.16824 -0.19403,0.0401 -0.56445,0.12636 -0.82315,0.19168 -4.20825,1.0625 -8.36579,1.34618 -13.69954,0.93474 -3.01129,-0.23229 -3.89178,-0.19768 -5.93842,0.23343 -0.70566,0.14864 -2.56133,0.28165 -2.65006,0.18995 z m 27.53946,-5.95592 c 0,-0.16169 0.0267,-0.22784 0.0593,-0.14699 0.0326,0.0808 0.0326,0.21313 0,0.29398 -0.0326,0.0808 -0.0593,0.0147 -0.0593,-0.14699 z m 0.23954,-1.23473 c 0.002,-0.19402 0.0288,-0.25916 0.0586,-0.14475 0.0298,0.11441 0.0279,0.27316 -0.004,0.35278 -0.0322,0.0796 -0.0566,-0.014 -0.0542,-0.20803 z m 0.23954,-0.99953 c 0,-0.22637 0.0242,-0.31897 0.0538,-0.20579 0.0296,0.11318 0.0296,0.29839 0,0.41157 -0.0296,0.11319 -0.0538,0.0206 -0.0538,-0.20578 z m -19.43006,-0.60263 c -0.94821,-0.0958 -3.0581,-0.36945 -4.46851,-0.57954 -1.16067,-0.17289 -3.40996,-0.62437 -4.7625,-0.95594 -0.25871,-0.0634 -0.66914,-0.14304 -0.91208,-0.17695 -0.24294,-0.0339 -0.47096,-0.10897 -0.50671,-0.16681 -0.0358,-0.0578 -0.17718,-0.10517 -0.3143,-0.10517 -0.23159,0 -0.76567,-0.14422 -1.32432,-0.35761 -0.12935,-0.0494 -0.55269,-0.20908 -0.94074,-0.35482 -0.38806,-0.14574 -0.75583,-0.30965 -0.81727,-0.36424 -0.0614,-0.0546 -0.17699,-0.0993 -0.25677,-0.0993 -0.19266,0 -1.23334,-0.63644 -2.06398,-1.26225 -0.3833,-0.28878 -0.69986,-0.45309 -0.7419,-0.38508 -0.0403,0.0652 -0.17708,0.11863 -0.30391,0.11863 -0.12683,0 -0.69256,0.23094 -1.25718,0.51321 -0.56462,0.28226 -1.37054,0.63238 -1.79094,0.77804 -0.42039,0.14567 -0.81462,0.3116 -0.87606,0.36874 -0.0614,0.0571 -0.30642,0.1039 -0.54439,0.1039 -0.34625,0 -0.53035,-0.0948 -0.92175,-0.47464 -0.86399,-0.83847 -0.95869,-1.56101 -0.28756,-2.19397 0.84553,-0.79743 3.24288,-2.27028 3.69534,-2.27028 0.15987,0 0.22794,0.0813 0.22794,0.27217 0,0.22155 -0.1804,0.36639 -0.97014,0.77886 -1.05025,0.54854 -2.25789,1.34246 -2.58703,1.70076 -0.39552,0.43054 -0.16622,1.07835 0.50445,1.42517 0.31304,0.16188 0.38732,0.15779 0.84541,-0.0466 0.27622,-0.12323 0.84618,-0.358 1.26657,-0.5217 0.42039,-0.1637 1.05539,-0.45957 1.41111,-0.6575 0.35572,-0.19792 0.73937,-0.36082 0.85255,-0.36199 0.3462,-0.004 0.23388,-0.23062 -0.4278,-0.8648 l -0.63358,-0.60724 0.0385,-1.22436 c 0.0558,-1.7773 0.36177,-2.93732 1.36485,-5.17496 0.1328,-0.29626 0.32113,-0.72385 0.41852,-0.95022 0.92502,-2.15015 2.52605,-4.99502 3.50609,-6.22998 0.64491,-0.81265 2.26977,-2.38019 2.39012,-2.30581 0.29721,0.18369 0.0829,0.53299 -1.01667,1.65663 -1.17822,1.20406 -2.29445,2.76017 -3.20536,4.46851 -0.60733,1.139 -1.86476,3.66125 -2.00788,4.02755 -0.0568,0.14552 -0.15357,0.38365 -0.21493,0.52917 -0.0971,0.23044 -0.34845,1.02182 -0.72144,2.272 -0.0593,0.19862 -0.10774,0.83912 -0.10774,1.42333 v 1.0622 l 0.95382,0.92852 c 1.18331,1.15192 1.15995,1.1307 1.51239,1.37432 0.42102,0.29102 0.49212,0.25321 0.4513,-0.24 -0.0306,-0.3691 -0.0844,-0.4475 -0.33048,-0.48101 -0.16169,-0.022 -0.46596,-0.17023 -0.67615,-0.32936 -0.41158,-0.31159 -0.50779,-0.78498 -0.24504,-1.2057 0.11203,-0.17939 0.0905,-0.27888 -0.11759,-0.54343 -0.47212,-0.6002 -0.28085,-1.16751 0.49279,-1.46165 0.32482,-0.1235 0.3295,-0.13674 0.14677,-0.41562 -0.55042,-0.84005 0.33269,-1.59045 1.66757,-1.41696 1.87633,0.24385 2.37996,0.30185 3.08258,0.355 0.42039,0.0318 0.69076,0.025 0.60082,-0.0152 -0.41851,-0.18679 -0.9536,-0.86205 -0.9536,-1.2034 0,-0.0629 0.16282,-0.27721 0.36183,-0.47621 l 0.36182,-0.36183 1.60785,0.002 c 0.93754,10e-4 2.02456,0.0786 2.60739,0.18531 1.76237,0.32259 1.84295,0.32552 2.19948,0.0799 0.18082,-0.12457 0.51397,-0.29738 0.74034,-0.38403 0.54095,-0.20705 3.89336,-1.90543 4.6449,-2.35318 0.32338,-0.19266 0.77317,-0.44065 0.99954,-0.55109 0.22637,-0.11044 0.43803,-0.23001 0.47037,-0.26572 0.0323,-0.0357 0.19109,-0.1411 0.35278,-0.2342 0.16169,-0.0931 0.62944,-0.37436 1.03945,-0.62504 1.03765,-0.6344 1.58024,-0.94677 2.65112,-1.52622 0.88084,-0.47663 0.90839,-0.50355 0.55158,-0.53906 -0.20657,-0.0205 -0.73976,0.0191 -1.18486,0.0882 -1.78034,0.27623 -7.58292,0.10604 -9.3485,-0.27419 -0.12935,-0.0279 -0.55268,-0.11201 -0.94074,-0.187 -2.60084,-0.50261 -4.05234,-1.17638 -5.43865,-2.52453 -0.53358,-0.51889 -0.97014,-0.98549 -0.97014,-1.03688 0,-0.0514 -0.0926,-0.23474 -0.20573,-0.40742 -0.39954,-0.60978 -0.49627,-1.13284 -0.49806,-2.69318 -0.002,-1.78131 0.0638,-1.68828 -1.19504,-1.68828 -1.20944,0 -1.27334,0.0568 -1.08493,0.96426 0.38674,1.8628 0.29577,5.56299 -0.16047,6.5272 -0.26055,0.55065 -0.9137,1.01362 -1.25591,0.89023 -0.37082,-0.1337 -1.02267,-0.0927 -1.45259,0.0913 -0.31449,0.13464 -0.42848,0.13733 -0.62472,0.0148 -0.13202,-0.0824 -0.33955,-0.11833 -0.46118,-0.0797 -0.12163,0.0386 -0.43371,-0.0383 -0.69352,-0.1708 -0.2598,-0.13255 -0.54063,-0.23893 -0.62405,-0.2364 -0.0834,0.003 -0.32533,0.24064 -0.53758,0.52916 -0.46518,0.63236 -0.89557,0.69622 -1.51387,0.22462 l -0.39328,-0.29997 v 0.52821 c 0,0.7743 -0.19732,0.76589 -0.35111,-0.0149 -0.2241,-1.13787 -0.27874,-1.24297 -0.8851,-1.70222 -0.46136,-0.34942 -0.69161,-0.44431 -1.0793,-0.44477 -0.5595,-6.8e-4 -0.7273,0.15773 -0.47434,0.44779 0.50538,0.57952 1.38737,2.96395 1.72625,4.66689 0.65881,3.31063 1.37563,4.89423 2.20478,4.87081 0.18108,-0.005 0.2525,-0.0393 0.15902,-0.0762 -0.96212,-0.37918 -1.6751,-3.04676 -1.31291,-4.91223 l 0.0913,-0.47037 0.0739,0.52917 c 0.0407,0.29104 0.10422,0.71437 0.14123,0.94074 0.037,0.22636 0.0983,0.71669 0.13623,1.08961 0.0379,0.37292 0.11542,0.70677 0.17224,0.74189 0.0568,0.0351 0.10333,0.18097 0.10333,0.32411 0,0.38479 0.64969,1.11484 1.03124,1.15879 0.26904,0.031 0.32718,0.1007 0.35874,0.43016 0.0451,0.47118 -0.20076,0.78597 -0.69049,0.88392 -0.65315,0.13063 -1.27828,-0.31979 -1.72463,-1.24265 -0.34743,-0.71831 -0.45791,-1.06575 -0.74008,-2.3275 -0.56548,-2.52857 -0.93925,-3.90089 -1.25441,-4.60558 -0.56015,-1.25252 -1.00404,-1.97961 -1.20857,-1.97961 -0.16375,0 -0.18536,0.11486 -0.14395,0.76518 0.0268,0.42085 -0.0133,1.01166 -0.0892,1.3129 -0.17955,0.71307 -0.19444,3.89652 -0.019,4.07191 0.0712,0.0712 0.12945,0.22145 0.12945,0.33388 0,0.38902 0.73891,1.57373 1.36084,2.18186 0.55403,0.54174 0.68829,0.61472 1.18993,0.64676 0.475,0.0303 0.56544,0.0737 0.56544,0.27131 0,0.14969 -0.14962,0.31286 -0.41158,0.44885 -0.49028,0.25452 -1.72547,0.20982 -2.28768,-0.0828 -0.4136,-0.21526 -0.50059,-0.16462 -0.331,0.19268 0.36436,0.76765 0.44244,1.15619 0.4312,2.14589 -0.0142,1.24889 -0.29121,1.97105 -0.97269,2.5356 -0.6911,0.57253 -1.32275,0.31025 -0.97536,-0.40499 0.29806,-0.61368 0.37617,-1.08561 0.24674,-1.4908 -0.25309,-0.79234 -0.60245,-1.3677 -1.53299,-2.52471 -0.51866,-0.64488 -1.00583,-1.25202 -1.08261,-1.3492 -0.21587,-0.27324 -0.64135,-1.19493 -0.7327,-1.5872 -0.0452,-0.19402 -0.12445,-1.38465 -0.17615,-2.64583 -0.13711,-3.34516 -0.2918,-4.06668 -1.33619,-6.23241 -0.51651,-1.07106 -0.78862,-1.54601 -0.97602,-1.70358 -0.35723,-0.30035 -0.99329,-2.27228 -1.34702,-4.17605 -0.19392,-1.04362 -0.25376,-4.19725 -0.0948,-4.99768 0.464,-2.3371 1.07971,-3.62121 2.34294,-4.88642 0.48778,-0.48854 1.05886,-0.98943 1.26906,-1.11308 0.21019,-0.12365 0.38217,-0.26633 0.38217,-0.31706 0,-0.0507 0.0566,-0.0922 0.12581,-0.0922 0.0692,0 0.347,-0.14919 0.61736,-0.33153 0.64908,-0.43778 1.36505,-0.76093 2.62766,-1.18597 1.58644,-0.53405 2.64775,-0.72422 4.45243,-0.79777 1.74536,-0.0711 2.53564,0.0279 3.34543,0.41911 l 0.45657,0.2206 0.11478,-0.30875 c 0.0631,-0.16981 0.14453,-0.40135 0.1809,-0.51453 0.0891,-0.27719 0.54388,-0.27227 0.54388,0.006 0,0.11642 -0.0437,0.26194 -0.0971,0.32338 -0.22336,0.25686 -0.3948,1.10605 -0.33331,1.65101 0.10388,0.92057 0.21477,1.45931 0.30038,1.45931 0.0437,0 0.17367,0.15964 0.28893,0.35476 0.27648,0.46805 1.14537,0.89542 2.1473,1.05616 0.44553,0.0715 0.93649,0.15654 1.09103,0.18902 l 0.28097,0.0591 -0.0771,-1.34394 c -0.10662,-1.85835 0.12024,-2.88564 0.82119,-3.71867 0.46444,-0.55195 1.56514,-0.94528 2.656,-0.94909 0.68936,-0.002 1.31282,-0.23789 1.88683,-0.71265 0.60368,-0.49929 0.98113,-0.69669 1.33212,-0.69669 h 0.27492 l -0.274,-0.29566 c -0.72634,-0.78373 -0.40414,-2.04777 0.63268,-2.48209 0.49023,-0.20536 0.90189,-0.13029 1.43134,0.26102 0.21817,0.16124 0.627,0.35133 0.90851,0.42241 0.37061,0.0936 0.57327,0.23 0.73451,0.49442 0.27044,0.4435 0.27923,0.68078 0.0422,1.13921 -0.22567,0.43641 -0.45347,0.32491 -0.37125,-0.18172 0.078,-0.48071 0.0106,-0.57063 -0.56448,-0.75267 -0.2587,-0.0819 -0.52978,-0.17409 -0.60239,-0.20487 -0.0726,-0.0308 -0.16116,0.0555 -0.19678,0.1917 -0.0625,0.23894 -0.0779,0.24088 -0.43716,0.0551 -0.45582,-0.23572 -0.73192,-0.1524 -0.68208,0.20582 0.0277,0.19929 -0.0216,0.26538 -0.19825,0.26538 -0.19327,0 -0.24171,-0.0906 -0.27176,-0.50821 -0.0307,-0.42687 -0.0637,-0.48574 -0.20579,-0.36778 -0.33373,0.27697 -0.15598,0.83346 0.35811,1.12112 0.29082,0.16273 0.68061,0.85416 0.59998,1.06428 -0.0394,0.10271 -0.25216,0.1605 -0.59087,0.1605 -0.56976,0 -1.18156,0.28165 -1.66765,0.76774 -0.42454,0.42454 -0.89704,0.58667 -2.22017,0.7618 -1.63921,0.21696 -2.30257,0.57675 -2.70171,1.46536 -0.26449,0.58881 -0.42301,1.87011 -0.3408,2.75463 0.0495,0.53274 0.0317,0.885 -0.0496,0.98301 -0.19958,0.24048 0.16627,0.86382 0.63331,1.07902 1.11858,0.51541 1.95271,0.82524 2.70892,1.00619 l 0.36772,0.088 0.0544,-0.84721 c 0.0469,-0.73054 0.12496,-0.97128 0.56702,-1.74824 0.28196,-0.49557 0.55504,-0.90104 0.60685,-0.90104 0.12852,0 0.11938,0.39692 -0.0123,0.53504 -0.18784,0.19702 -0.54632,0.91984 -0.71151,1.43463 -0.13368,0.41664 -0.13454,0.57801 -0.005,0.97014 0.17515,0.53072 0.27929,0.55649 1.23472,0.30559 l 0.58796,-0.1544 0.0346,-0.77595 c 0.026,-0.58266 -0.0225,-0.89436 -0.19498,-1.25126 -0.13366,-0.27663 -0.18285,-0.50422 -0.1177,-0.54448 0.15604,-0.0964 0.45442,0.1743 0.45442,0.41231 0,0.1085 0.044,0.24754 0.0978,0.30898 0.25465,0.29097 0.37572,1.10168 0.24815,1.66175 l -0.12906,0.56663 0.68532,0.62842 c 1.24119,1.13815 2.1478,1.49776 1.96779,0.78053 -0.0949,-0.3783 0.22316,-0.76219 0.63158,-0.76219 0.27441,0 0.28062,-0.0143 0.11472,-0.26458 -0.20444,-0.30841 -0.55012,-0.41021 -0.67989,-0.20023 -0.051,0.0826 -0.17939,0.11216 -0.29468,0.0679 -0.19298,-0.0741 -0.19263,-0.0912 0.006,-0.31112 0.3018,-0.33348 0.83015,-0.29835 1.17932,0.0784 0.15861,0.17113 0.28837,0.38394 0.28837,0.47289 0,0.089 0.14552,0.21922 0.32338,0.28947 0.17786,0.0702 0.42013,0.17798 0.53838,0.23941 0.287,0.14909 0.39608,0.0412 0.96093,-0.95048 0.2587,-0.4542 0.5276,-0.82739 0.59755,-0.82931 0.07,-0.002 0.29467,0.25497 0.49938,0.57088 0.36309,0.56035 0.38727,0.57488 0.98994,0.59474 0.33977,0.0112 0.78402,0.0268 0.98723,0.0347 0.65198,0.0253 0.78854,-0.24487 0.76818,-1.5196 -0.0134,-0.83601 -0.0735,-1.22561 -0.23891,-1.54731 -0.12158,-0.23648 -0.27434,-0.56225 -0.33947,-0.72394 -0.0651,-0.16169 -0.17792,-0.44199 -0.25065,-0.62289 -0.0727,-0.18091 -0.13224,-0.45559 -0.13224,-0.61042 0,-0.15483 -0.0529,-0.31422 -0.11759,-0.35419 -0.0647,-0.04 -0.11759,-0.18486 -0.11759,-0.32197 0,-0.24535 -0.0975,-0.59217 -0.4491,-1.59824 -0.34623,-0.99058 -1.14634,-1.78396 -1.79909,-1.78396 -0.31257,0 -0.50085,-0.40916 -0.28678,-0.62322 0.13629,-0.1363 0.25056,-0.14372 0.58773,-0.0382 0.23019,0.072 0.41854,0.17097 0.41854,0.21982 0,0.0489 0.0552,0.0888 0.12272,0.0888 0.15733,0 0.57667,0.41004 0.98561,0.96377 0.28319,0.38344 0.35541,0.42151 0.61351,0.32337 0.1609,-0.0612 0.78982,-0.11122 1.3976,-0.11122 1.55576,0 2.64293,0.43897 2.91232,1.17593 0.0355,0.097 0.0687,-0.13736 0.0738,-0.52082 0.009,-0.65771 0.14318,-1.27942 0.37649,-1.74124 0.0567,-0.11231 0.10316,-0.27156 0.10316,-0.35389 0,-0.0823 0.10704,-0.21655 0.23786,-0.29824 0.19942,-0.12455 0.24944,-0.11834 0.3096,0.0384 0.0395,0.10284 0.005,0.32894 -0.0772,0.50243 -0.0819,0.1735 -0.19864,0.425 -0.25937,0.55891 -0.21624,0.47676 -0.021,2.60709 0.36027,3.93107 0.0652,0.22637 0.15297,0.54387 0.19507,0.70556 0.0421,0.16169 0.12001,0.39982 0.17312,0.52917 0.0531,0.12935 0.2691,0.68497 0.47996,1.23472 0.37617,0.98072 1.07434,2.43758 2.3886,4.98426 0.36333,0.70406 0.66061,1.35229 0.66061,1.44051 0,0.0882 0.0529,0.16041 0.11759,0.16041 0.0647,0 0.11759,0.0801 0.11759,0.17799 0,0.0979 0.0467,0.26987 0.10388,0.38218 0.13971,0.27463 0.31314,0.70588 0.48409,1.20372 0.0777,0.22637 0.18571,0.51741 0.23996,0.64676 0.31407,0.74886 1.00721,3.34277 1.28832,4.8213 0.0738,0.38805 0.18344,0.8969 0.24368,1.13077 0.0602,0.23387 0.10952,0.5646 0.10952,0.73496 0,0.17035 0.0529,0.30973 0.11759,0.30973 0.0647,0 0.11759,0.14552 0.11759,0.32338 0,0.26038 -0.14319,0.42916 -0.73495,0.86628 -0.80684,0.596 -2.11744,1.45565 -2.85162,1.87044 -1.01353,0.57262 -1.43576,0.80433 -2.05787,1.12933 -0.35572,0.18584 -0.67322,0.36859 -0.70556,0.40613 -0.0323,0.0375 -1.14358,0.6025 -2.46944,1.25548 -3.03289,1.49371 -5.5864,2.52115 -7.64352,3.07548 -0.29104,0.0784 -0.66915,0.18557 -0.84025,0.23809 -0.17109,0.0525 -0.38276,0.0501 -0.47037,-0.005 -0.0876,-0.0555 -0.43398,-0.10175 -0.76971,-0.10274 -0.33573,-9.9e-4 -0.63951,-0.0489 -0.67506,-0.1064 -0.15522,-0.25114 -2.73367,-0.49554 -4.27077,-0.40482 -1.16865,0.069 -1.20532,0.0796 -1.20532,0.34908 0,0.15286 0.0397,0.28184 0.0882,0.28661 0.0485,0.005 0.89917,0.0478 1.89036,0.0956 1.84822,0.0892 2.06656,0.15519 1.98839,0.60126 -0.0228,0.13003 -0.20044,0.17913 -0.67601,0.18681 -0.3548,0.006 -0.85676,0.0763 -1.11547,0.15676 -1.13444,0.35293 -1.83268,0.40532 -3.28537,0.24651 -2.42794,-0.26544 -3.24102,-0.28401 -3.24102,-0.074 0,0.0997 0.11115,0.24069 0.247,0.31339 0.40142,0.21483 2.28815,0.45241 3.00515,0.37841 0.54816,-0.0566 0.68987,-0.0326 0.81434,0.1376 0.0829,0.11334 0.12182,0.28133 0.0865,0.3733 -0.0526,0.13708 -0.45943,0.16443 -2.25706,0.15172 -1.74817,-0.0124 -2.28202,0.0217 -2.63239,0.16813 -0.53162,0.22212 -0.55392,0.35951 -0.0867,0.53414 0.19402,0.0725 0.51129,0.1911 0.70503,0.2635 0.34336,0.12832 0.94146,0.1108 3.57566,-0.10477 1.11239,-0.091 1.46618,0.007 1.32775,0.3677 -0.0529,0.13786 -0.21901,0.19339 -0.57845,0.19339 -0.27733,0 -0.67936,0.0502 -0.89341,0.11162 -0.21405,0.0614 -0.90161,0.11834 -1.52793,0.12657 -1.33912,0.0176 -2.72625,0.22835 -2.72625,0.41422 0,0.42179 1.03329,0.47393 4.38033,0.22102 0.9033,-0.0683 0.91134,-0.0664 0.91134,0.21409 0,0.25478 -0.0745,0.29667 -0.74851,0.42086 -0.41168,0.0759 -0.92762,0.13894 -1.14653,0.14019 -0.21891,10e-4 -0.6626,0.0705 -0.98598,0.15399 -0.50457,0.13021 -0.59324,0.1966 -0.62517,0.4681 -0.031,0.26333 0.009,0.31638 0.23596,0.31638 0.15025,0 0.45577,-0.0524 0.67895,-0.11638 0.35319,-0.10129 1.51357,-0.30007 4.88434,-0.83671 2.63231,-0.41907 5.14268,-1.07275 5.82083,-1.5157 0.16169,-0.10561 0.53211,-0.26399 0.82315,-0.35197 0.29104,-0.088 0.57943,-0.20366 0.64088,-0.25709 0.0614,-0.0534 0.20768,-0.0971 0.32497,-0.0971 0.1173,0 0.30515,-0.048 0.41746,-0.10674 0.20069,-0.10492 1.15693,-0.41485 1.85048,-0.59978 1.5582,-0.41547 5.39955,-1.47978 5.93843,-1.64533 0.16169,-0.0497 0.53211,-0.15453 0.82315,-0.23301 0.29104,-0.0785 0.62105,-0.19045 0.73336,-0.24882 0.1123,-0.0584 0.30016,-0.10614 0.41745,-0.10614 0.11729,0 0.26353,-0.0434 0.32497,-0.0964 0.0614,-0.053 0.50859,-0.22131 0.99366,-0.37396 0.48507,-0.15264 0.93222,-0.32092 0.99366,-0.37395 0.0614,-0.053 0.20768,-0.0964 0.32497,-0.0964 0.1173,0 0.30515,-0.0511 0.41746,-0.11348 0.1123,-0.0624 0.7069,-0.27692 1.32132,-0.47668 0.61442,-0.19976 1.22296,-0.40983 1.35231,-0.46681 0.12936,-0.057 0.65852,-0.24652 1.17593,-0.42121 1.69367,-0.57181 2.72787,-1.18178 3.76648,-2.22148 0.51935,-0.51988 1.06174,-1.11508 1.20533,-1.32266 0.28268,-0.40867 0.33823,-1.05364 0.15367,-1.7844 -0.0591,-0.23387 -0.16982,-0.71626 -0.24612,-1.07198 -0.14088,-0.65673 -0.31342,-1.27936 -0.47253,-1.70509 -0.0483,-0.12935 -0.15287,-0.47331 -0.23229,-0.76435 -0.0794,-0.29105 -0.18687,-0.635 -0.23878,-0.76436 -0.0519,-0.12935 -0.12882,-0.36747 -0.17092,-0.52916 -0.0421,-0.16169 -0.1259,-0.46596 -0.1862,-0.67616 -0.0603,-0.2102 -0.16556,-0.58061 -0.23388,-0.82315 -0.0683,-0.24253 -0.16975,-0.59972 -0.22538,-0.79375 -0.80688,-2.81382 -1.31872,-5.75849 -0.96269,-5.53845 0.075,0.0464 0.13637,0.23678 0.13637,0.42317 0,0.1864 0.0529,0.37161 0.11759,0.41158 0.0647,0.04 0.11759,0.20893 0.11759,0.37547 0,0.16654 0.0571,0.5206 0.1269,0.78681 0.0698,0.26621 0.17127,0.66922 0.22549,0.89559 0.33141,1.38365 0.77769,3.02374 0.94394,3.46898 0.13583,0.36378 0.95316,2.89671 1.06246,3.29259 0.27366,0.99121 0.36223,1.37093 0.52113,2.23426 0.0952,0.51741 0.17413,1.33262 0.17532,1.81159 0.002,0.73991 -0.0403,0.92645 -0.27992,1.24068 l -0.28209,0.36983 0.31149,0.13018 c 1.43101,0.59808 2.93015,0.85416 3.83926,0.65582 0.44135,-0.0963 0.50303,-0.16458 0.99954,-1.10667 0.86888,-1.64862 1.77053,-3.13761 1.93914,-3.20231 0.43335,-0.1663 0.2151,0.43984 -0.81273,2.25712 -1.50119,2.65422 -1.85311,3.30186 -2.50246,4.60534 -0.30609,0.61442 -0.59795,1.13476 -0.64857,1.15632 -0.0506,0.0216 -0.0921,0.10047 -0.0921,0.17535 0,0.0749 -0.18039,0.50704 -0.40087,0.96034 -0.64396,1.32399 -0.99319,2.1311 -1.67952,3.8816 -0.35501,0.90546 -0.69014,1.75213 -0.74473,1.88148 -0.0546,0.12935 -0.21694,0.57914 -0.36077,0.99954 -0.57951,1.69383 -0.66405,1.89567 -0.72619,1.73374 -0.0608,-0.15838 0.0832,-0.93765 0.26607,-1.43976 0.1505,-0.41328 0.35342,-1.07258 0.35342,-1.14826 0,-0.0403 -0.70115,0.28125 -1.5581,0.7145 -0.85696,0.43326 -1.79623,0.88419 -2.08727,1.00207 -0.29104,0.11788 -0.64823,0.26313 -0.79375,0.32278 -0.14552,0.0596 -0.4101,0.16753 -0.58796,0.23976 -0.17786,0.0722 -0.41527,0.17805 -0.52757,0.23518 -0.11231,0.0571 -0.28501,0.10387 -0.38378,0.10387 -0.0988,0 -0.27146,0.048 -0.38377,0.10675 -0.42791,0.22369 -2.74927,0.86689 -3.84956,1.06663 -1.9415,0.35245 -2.72186,0.46983 -3.87158,0.58237 -1.48107,0.14497 -5.18972,0.14134 -6.65296,-0.007 z m 8.17269,-0.85998 c 2.05506,-0.339 3.25785,-0.59655 4.7037,-1.0072 0.25871,-0.0735 0.60266,-0.16347 0.76435,-0.19999 0.16169,-0.0365 0.3469,-0.10268 0.41158,-0.14702 0.0647,-0.0444 0.35572,-0.15228 0.64676,-0.23986 0.29104,-0.0876 0.57944,-0.20293 0.64088,-0.25636 0.0614,-0.0534 0.18108,-0.0972 0.26586,-0.0972 0.2761,0 3.79696,-1.64139 3.79696,-1.7701 0,-0.0434 -0.75406,-0.11126 -1.67569,-0.15075 -0.92163,-0.0395 -2.12549,-0.12691 -2.67523,-0.19428 -2.32903,-0.28542 -3.40076,-0.36726 -6.4088,-0.4894 -3.97091,-0.16123 -4.34339,-0.16507 -5.64445,-0.0581 -1.34605,0.11067 -2.23425,-0.0875 -2.23425,-0.49859 v -0.26483 l 2.88101,0.0126 c 2.81739,0.0123 8.5935,0.2726 10.34815,0.4663 1.33251,0.1471 3.58548,0.34379 4.67573,0.40819 1.05379,0.0623 1.2039,0.10931 1.2039,0.37738 0,0.27734 0.21057,0.0766 0.42066,-0.40105 0.10548,-0.23979 0.28993,-0.64765 0.40989,-0.90635 0.54047,-1.16548 0.61156,-1.61064 0.48267,-3.02239 -0.14598,-1.59907 -0.42241,-2.97793 -0.6217,-3.1011 -0.057,-0.0352 -0.10356,-0.16743 -0.10356,-0.29384 0,-0.12641 -0.0529,-0.33496 -0.11759,-0.46343 -0.0647,-0.12848 -0.1723,-0.34158 -0.23917,-0.47356 -0.0669,-0.13198 -0.0902,-0.29073 -0.0519,-0.35278 0.13804,-0.22335 0.40569,-0.10628 0.48139,0.21057 0.0425,0.17786 0.11522,0.3763 0.16164,0.44097 0.0844,0.11754 0.10758,0.19155 0.4059,1.29352 0.38134,1.40859 0.42039,1.86403 0.30752,3.58658 -0.10171,1.55217 -0.19185,2.07496 -0.4765,2.76342 -0.19697,0.47641 -0.22328,0.64084 -0.11342,0.70873 0.0618,0.0382 0.11246,-0.006 0.11246,-0.0981 0,-0.0922 0.11239,-0.45252 0.24976,-0.80069 0.99553,-2.52317 1.14123,-2.86631 1.89162,-4.4548 0.95841,-2.02888 1.31857,-2.76486 1.3811,-2.82223 0.0734,-0.0673 0.59326,-1.05603 0.59326,-1.12824 0,-0.0262 -0.33607,-0.0477 -0.74681,-0.0477 -0.41074,0 -0.90022,-0.0465 -1.08773,-0.10332 -1.62884,-0.49359 -2.12019,-0.65786 -2.21653,-0.74101 -0.24044,-0.20751 -0.50854,-0.0674 -1.27633,0.66717 -0.88945,0.85094 -1.9613,1.42226 -3.84483,2.04939 -0.61442,0.20458 -1.20901,0.42264 -1.32132,0.48458 -0.1123,0.062 -0.30762,0.11263 -0.43403,0.11263 -0.12641,0 -0.26254,0.0529 -0.30252,0.11759 -0.04,0.0647 -0.19872,0.1176 -0.35277,0.1176 -0.15406,0 -0.31281,0.0529 -0.35278,0.11759 -0.04,0.0647 -0.19126,0.11759 -0.3362,0.11759 -0.14494,0 -0.3138,0.0434 -0.37524,0.0964 -0.0614,0.053 -0.50859,0.22131 -0.99365,0.37395 -0.48507,0.15265 -0.93222,0.32093 -0.99366,0.37396 -0.0614,0.053 -0.20768,0.0964 -0.32498,0.0964 -0.11729,0 -0.30515,0.0468 -0.41745,0.10404 -0.33511,0.17075 -1.5334,0.52465 -5.02549,1.48421 -3.55256,0.97618 -4.68998,1.31176 -5.02549,1.48271 -0.1123,0.0572 -0.30762,0.10404 -0.43403,0.10404 -0.12641,0 -0.26254,0.0529 -0.30252,0.1176 -0.04,0.0647 -0.15226,0.11759 -0.24953,0.11759 -0.0973,0 -0.50425,0.15223 -0.9044,0.3383 -0.40015,0.18606 -0.91276,0.40307 -1.13912,0.48224 -0.22637,0.0792 -0.51741,0.18418 -0.64676,0.23336 -0.48793,0.18554 -1.40379,0.42666 -2.70463,0.71205 -0.4581,0.1005 -1.13806,0.21288 -2.82222,0.46643 -2.17523,0.32749 -4.29021,0.7839 -4.4712,0.96489 -0.0966,0.0966 1.49243,0.72877 2.64851,1.05364 0.38851,0.10917 0.57063,0.15581 1.79329,0.45922 0.98498,0.24443 1.8498,0.42327 3.38079,0.69913 0.42039,0.0757 1.02893,0.1856 1.35231,0.24412 1.6253,0.29414 3.63401,0.56799 5.11528,0.69739 1.65584,0.14465 6.6831,0.0371 7.9375,-0.16986 z m -33.7387,-6.04828 c 0.2012,-0.48059 0.21533,-1.4339 0.0297,-2.00576 -0.075,-0.23096 -0.54666,-1.26659 -1.04822,-2.30141 -1.12059,-2.31201 -1.27388,-2.75927 -1.43573,-4.18909 -0.1073,-0.94802 -0.0941,-1.37634 0.0815,-2.63909 0.20129,-1.44744 0.20127,-1.51351 -6.2e-4,-1.66113 -0.11564,-0.0846 -0.29275,-0.1543 -0.39357,-0.15498 -0.25745,-0.002 -1.40515,-0.89669 -1.95588,-1.52516 -0.25393,-0.28978 -0.55429,-0.63048 -0.66748,-0.75713 -0.11318,-0.12665 -0.20578,-0.28202 -0.20578,-0.34528 0,-0.0633 -0.0347,-0.0803 -0.0771,-0.038 -0.0424,0.0424 0.0964,0.43485 0.30838,0.87215 0.21199,0.43729 0.43805,0.92737 0.50236,1.08906 0.0643,0.16169 0.16366,0.38587 0.22079,0.49817 0.0571,0.11231 0.10387,0.31422 0.10387,0.44871 0,0.13448 0.0577,0.35235 0.12826,0.48417 0.0751,0.14031 0.16689,1.48973 0.22145,3.25546 0.0895,2.89768 0.10525,3.04289 0.40128,3.70745 0.16945,0.3804 0.69157,1.13979 1.16027,1.68753 1.69621,1.98231 1.9693,2.49666 1.9693,3.7092 v 0.82678 l 0.24556,-0.28258 c 0.13506,-0.15542 0.32027,-0.46102 0.41157,-0.67911 z m 1.22435,-3.94599 c 0,-0.0277 -0.0687,-0.12032 -0.15258,-0.20579 -0.23201,-0.23628 -0.83445,-1.16948 -1.01127,-1.5665 -0.0864,-0.19403 -0.20385,-0.44466 -0.26098,-0.55697 -0.0571,-0.1123 -0.10388,-0.30762 -0.10388,-0.43403 0,-0.12641 -0.048,-0.2595 -0.10663,-0.29574 -0.18573,-0.1148 -0.25972,-2.1953 -0.12151,-3.41696 0.16053,-1.41889 0.24558,-2.87799 0.15594,-2.67524 -0.0357,0.0808 -0.16329,0.147 -0.28343,0.147 -0.12015,0 -0.25115,0.0529 -0.29113,0.11759 -0.04,0.0647 -0.22729,0.11759 -0.41627,0.11759 -0.26196,0 -0.3564,0.0629 -0.3975,0.26458 -0.0296,0.14552 -0.087,0.42334 -0.12741,0.61736 -0.0974,0.46726 -0.0973,0.41771 -0.003,2.64584 0.0833,1.97487 0.13412,2.25749 0.56734,3.15295 0.28732,0.59387 1.63725,1.90353 1.96207,1.90353 0.12317,0 0.25664,0.0529 0.29662,0.11759 0.0713,0.11538 0.29398,0.16627 0.29398,0.0672 z m 21.07294,-1.23088 c 0.14856,-0.0579 0.50824,-0.1714 0.79928,-0.25214 2.3076,-0.64013 6.54924,-2.48464 9.64259,-4.19314 0.35572,-0.19647 1.01718,-0.55826 1.46991,-0.80397 1.34437,-0.72965 2.52874,-1.45727 3.51045,-2.15663 l 0.92341,-0.65784 -0.0776,-0.70736 c -0.0427,-0.38905 -0.12375,-0.89258 -0.18017,-1.11894 -0.0564,-0.22637 -0.16797,-0.72908 -0.24788,-1.11713 -0.20845,-1.01232 -0.25822,-1.0767 -0.89613,-1.15912 -0.68038,-0.0879 -2.07575,-0.35222 -3.50246,-0.66343 -0.32338,-0.0705 -0.74671,-0.15595 -0.94074,-0.1898 -0.19403,-0.0339 -0.45861,-0.10725 -0.58796,-0.16311 -0.12936,-0.0559 -0.39394,-0.12838 -0.58797,-0.16115 -0.51307,-0.0866 -2.01187,-0.46773 -3.58657,-0.91194 -0.22637,-0.0639 -0.57033,-0.16016 -0.76435,-0.21402 -1.24969,-0.34687 -3.19604,-0.98461 -3.32069,-1.08806 -0.22385,-0.18578 -0.1831,-0.56465 0.0607,-0.56465 0.11496,0 0.89548,0.21429 1.73449,0.47619 0.83901,0.2619 1.92234,0.58354 2.40741,0.71475 1.73775,0.47006 3.59528,0.94924 4.08634,1.05415 0.27488,0.0587 0.7379,0.15968 1.02894,0.22436 1.87858,0.41746 2.53056,0.54987 3.41018,0.69256 0.32338,0.0525 0.67404,0.13291 0.77925,0.17879 0.16547,0.0722 0.17944,0.023 0.10352,-0.36457 -0.0818,-0.41742 -0.5939,-2.03261 -0.81317,-2.56466 -0.0533,-0.12935 -0.14984,-0.36747 -0.21452,-0.52916 -0.0647,-0.16169 -0.17107,-0.42627 -0.23644,-0.58796 -0.13279,-0.32847 -0.96994,-2.01222 -1.92937,-3.88056 -0.7088,-1.38026 -0.91174,-1.84279 -1.62524,-3.70417 -0.27271,-0.71143 -0.53844,-1.39935 -0.59052,-1.5287 -0.1144,-0.28418 -0.27366,-0.76575 -0.4805,-1.45301 -0.0848,-0.28174 -0.23645,-0.54271 -0.33702,-0.57992 -0.10056,-0.0372 -0.45363,-0.34083 -0.78461,-0.6747 -0.52265,-0.52722 -0.69523,-0.62541 -1.31264,-0.74688 -0.52939,-0.10415 -0.91529,-0.10721 -1.51151,-0.012 -0.44035,0.0703 -0.82662,0.15388 -0.85837,0.18564 -0.0317,0.0317 0.006,0.16044 0.0848,0.28597 0.0784,0.12553 0.14254,0.33167 0.14254,0.45808 0,0.12642 0.0529,0.26255 0.11759,0.30252 0.0647,0.04 0.11759,0.18486 0.11759,0.32197 0,0.23225 0.14606,0.77235 0.35814,1.32433 0.67184,1.74861 0.81779,2.35541 0.81779,3.40006 0,0.95081 -0.18826,1.32811 -0.82769,1.65877 -0.38495,0.19906 -1.005,0.23052 -1.11259,0.0564 -0.1206,-0.19513 -0.35005,-0.1353 -0.89365,0.23305 -0.36849,0.24969 -0.65974,0.35125 -1.0117,0.35278 -0.27183,10e-4 -0.61977,0.0593 -0.77322,0.12925 -0.22477,0.10241 -0.36364,0.0796 -0.71466,-0.11759 -0.64804,-0.36398 -1.06324,-0.32281 -1.38634,0.13747 -0.54003,0.76931 -0.82583,0.8346 -1.67558,0.38279 -0.64463,-0.34276 -0.47895,-0.41078 -2.32546,0.95468 -1.23672,0.91453 -2.33194,1.49114 -3.41962,1.80036 -0.24254,0.0689 -0.61671,0.17828 -0.8315,0.24295 -0.65483,0.19719 -2.25822,0.15023 -2.44226,-0.0715 -0.13305,-0.16031 -0.12454,-0.2128 0.0558,-0.3447 0.11703,-0.0856 0.29233,-0.12506 0.38955,-0.0878 0.19115,0.0734 2.0614,-0.16682 2.4462,-0.31414 0.12936,-0.0495 0.44686,-0.15618 0.70556,-0.23703 1.00012,-0.31255 2.84067,-1.46081 4.29142,-2.6773 0.032,-0.0268 -0.16443,-0.25628 -0.43641,-0.50998 -0.43813,-0.40868 -0.56128,-0.46128 -1.08009,-0.46128 -0.32207,0 -0.61828,0.0529 -0.65825,0.11759 -0.15649,0.2532 -1.3936,0.12682 -2.35186,-0.24027 -2.292,-0.87802 -2.44981,-0.9503 -3.14312,-1.43968 -0.16366,-0.11552 -0.63434,-0.26428 -1.04596,-0.33056 -0.41161,-0.0663 -0.96037,-0.21709 -1.21947,-0.33511 -0.57202,-0.26057 -1.25991,-0.92481 -1.51548,-1.46339 -0.16166,-0.34068 -0.26516,-0.40884 -0.72571,-0.4779 -0.29544,-0.0443 -1.02344,-0.0478 -1.61778,-0.008 -2.82399,0.18999 -5.22066,1.15378 -7.00229,2.81587 -1.24522,1.16168 -2.28049,3.11141 -2.54289,4.78907 -0.0807,0.51575 -0.36936,0.82271 -0.48655,0.51733 -0.0416,-0.10842 -0.0158,-0.32854 0.0574,-0.48915 0.0732,-0.16061 0.13305,-0.44899 0.13305,-0.64086 0,-0.19186 0.0464,-0.44072 0.10316,-0.55303 0.0567,-0.1123 0.16893,-0.41586 0.24932,-0.67456 0.44233,-1.42336 1.5277,-2.97104 2.80814,-4.00426 0.87693,-0.7076 2.62223,-1.62248 3.65975,-1.91842 1.51863,-0.43318 2.60848,-0.60371 3.85823,-0.60371 h 1.08066 v -0.50929 c 0,-0.41147 -0.0508,-0.53413 -0.26459,-0.63857 -0.71385,-0.34877 -1.27328,-0.43393 -2.79282,-0.42513 -2.29214,0.0133 -4.31068,0.37867 -5.87963,1.06433 -0.89377,0.39059 -1.01639,0.45388 -1.49109,0.76965 -0.27036,0.17984 -0.54817,0.32698 -0.61737,0.32698 -0.0692,0 -0.1258,0.0415 -0.1258,0.0922 0,0.0507 -0.14552,0.18024 -0.32338,0.28779 -0.77764,0.47023 -1.86695,1.69993 -2.48519,2.80547 -0.77222,1.3809 -1.3007,3.484 -1.30512,5.19375 -0.002,0.89003 0.29761,3.07114 0.46271,3.36517 0.21782,0.3879 0.26803,-0.18407 0.0746,-0.84952 -0.20913,-0.71937 -0.24425,-1.36989 -0.0739,-1.36989 0.0619,0 0.22676,0.38364 0.36627,0.85254 0.61473,2.06612 1.47207,3.28185 2.88682,4.09357 0.70262,0.40312 1.06558,0.4297 1.66607,0.12197 0.51027,-0.26149 1.38319,-1.07108 1.78761,-1.6579 0.156,-0.22637 0.31295,-0.43803 0.34877,-0.47037 0.0358,-0.0323 0.22307,-0.27046 0.41611,-0.52917 1.02094,-1.36824 3.30084,-3.03892 5.05694,-3.70566 1.18452,-0.44972 3.33688,-0.57744 4.00975,-0.23793 0.63772,0.32178 1.00818,0.62219 1.35117,1.09567 l 0.34232,0.47256 v -0.35082 c 0,-0.63155 0.15972,-0.52848 0.34623,0.22344 l 0.18294,0.73755 1.29352,7.7e-4 c 1.05928,6.4e-4 1.37869,0.0435 1.76389,0.23677 0.53819,0.27001 0.65154,0.67877 0.20578,0.74208 -0.23288,0.0331 -0.26458,0.10597 -0.26458,0.60839 0,0.57104 0.14675,1.46108 0.36852,2.23505 0.41009,1.43123 1.61028,2.75324 3.19071,3.51461 0.55205,0.26595 1.11165,0.48354 1.24355,0.48354 0.1319,0 0.26907,0.0473 0.30482,0.10517 0.0358,0.0579 0.26377,0.13416 0.50671,0.16959 0.24294,0.0354 0.75921,0.12268 1.14726,0.1939 4.17283,0.76581 8.32502,0.84553 12.11204,0.23253 0.38806,-0.0628 0.97014,-0.15682 1.29352,-0.2089 0.32338,-0.0521 0.78597,-0.18997 1.02798,-0.30643 0.46465,-0.2236 0.7947,-0.18621 0.7947,0.09 0,0.2379 -0.16483,0.34973 -1.59733,1.08376 -1.34004,0.68665 -3.08857,1.65573 -3.8388,2.12756 -0.24115,0.15167 -0.46974,0.27576 -0.50798,0.27576 -0.0382,0 -0.30026,0.15875 -0.58227,0.35277 -0.28201,0.19403 -0.56936,0.35278 -0.63855,0.35278 -0.0692,0 -0.12581,0.0467 -0.12581,0.10388 0,0.0571 -0.0926,0.13418 -0.20578,0.17122 -0.11319,0.037 -0.44392,0.20945 -0.73496,0.38312 -0.29104,0.17368 -0.70114,0.41413 -0.91134,0.53434 -0.2102,0.1202 -0.58061,0.33298 -0.82315,0.47284 -0.24253,0.13986 -1.36145,0.72194 -2.48648,1.29352 -1.12503,0.57158 -1.9345,1.03923 -1.79882,1.03923 0.13568,0 0.36824,-0.0474 0.51681,-0.10535 z m -25.35268,-15.83855 c -0.0986,-0.25682 2e-4,-0.39401 0.80705,-1.12122 0.38602,-0.34791 0.86227,-0.78399 1.05834,-0.96905 1.31732,-1.24344 3.73524,-2.75208 5.00138,-3.12058 0.29105,-0.0847 0.65072,-0.20141 0.79929,-0.25935 0.35075,-0.13679 2.75438,-0.13679 3.10514,0 0.14856,0.0579 0.50085,0.17417 0.78286,0.25829 0.99004,0.29531 2.0878,1.57474 1.98681,2.31561 l -0.0435,0.31937 -0.1274,-0.29716 c -0.33208,-0.77459 -1.36574,-1.47306 -2.60706,-1.76166 -0.78933,-0.18351 -2.60924,-0.0935 -3.66091,0.18099 -0.98657,0.25754 -2.47167,0.94756 -3.29259,1.52983 -0.35572,0.25231 -0.67322,0.48759 -0.70556,0.52285 -0.0323,0.0353 -0.244,0.21518 -0.47037,0.39981 -0.22636,0.18464 -0.84635,0.75264 -1.37774,1.26223 -0.5314,0.50959 -1.01522,0.92653 -1.07515,0.92653 -0.0599,0 -0.14119,-0.0839 -0.18055,-0.18649 z m 13.64462,-2.34175 c -0.0372,-0.097 -0.0164,-0.17639 0.0462,-0.17639 0.0626,0 0.1139,0.0794 0.1139,0.17639 0,0.097 -0.0208,0.17639 -0.0462,0.17639 -0.0254,0 -0.0767,-0.0794 -0.1139,-0.17639 z m -5.57872,10.95016 c -0.0409,-0.37931 0.25246,-0.89599 0.50868,-0.89599 0.23263,0 0.22232,-0.30895 -0.0133,-0.39938 -0.10285,-0.0395 -0.33508,0.0157 -0.51606,0.12263 -0.40019,0.23639 -0.81706,0.1382 -0.58751,-0.13839 0.0809,-0.0974 0.32761,-0.26285 0.5483,-0.36758 0.52553,-0.24938 0.89862,-0.0868 1.18077,0.51439 0.34775,0.74101 0.72888,0.66102 1.80555,-0.37898 0.16708,-0.16139 0.33519,-0.29343 0.37357,-0.29343 0.1045,0 0.43978,0.71303 0.43978,0.93529 0,0.25548 0.22534,0.47222 0.41522,0.39935 0.0832,-0.0319 0.32932,-0.009 0.54681,0.0511 0.57792,0.15956 0.89631,-0.01 1.16679,-0.62147 0.20883,-0.4721 0.23794,-0.81551 0.25686,-3.02962 0.0191,-2.23188 -0.004,-2.57212 -0.21686,-3.20272 -0.14554,-0.4311 -0.30493,-0.70555 -0.40975,-0.70555 -0.11807,0 -0.18292,-0.15747 -0.20798,-0.50503 -0.0296,-0.41111 -0.12806,-0.59707 -0.52917,-0.99993 -1.1892,-1.19439 -1.85627,-1.51563 -2.65213,-1.27718 -0.25022,0.075 -0.61766,0.1363 -0.81654,0.1363 -0.19887,0 -0.39429,0.0529 -0.43427,0.11759 -0.04,0.0647 -0.18898,0.1176 -0.33114,0.1176 -0.40152,0 -2.52193,1.09985 -3.38804,1.75737 -0.42865,0.32542 -1.08737,0.97595 -1.46381,1.44562 -0.37645,0.46967 -0.71395,0.88041 -0.75001,0.91275 -0.036,0.0323 -0.22349,0.27046 -0.41652,0.52916 -0.58476,0.78372 -1.47253,1.55821 -2.26654,1.97737 l -0.75244,0.39721 0.62731,0.41163 c 1.22706,0.80517 2.35002,1.34947 2.16436,1.04906 -0.11188,-0.18102 0.19577,-0.88461 0.51129,-1.16933 0.16693,-0.15063 0.50986,-0.41521 0.76207,-0.58796 0.25221,-0.17275 0.52749,-0.36513 0.61172,-0.42752 0.0842,-0.0624 0.19539,-0.0703 0.24699,-0.0177 0.0874,0.0891 -0.43777,0.617 -1.25943,1.266 -0.27274,0.21544 -0.34992,0.37048 -0.35076,0.70461 -0.001,0.46131 0.1551,0.59313 0.5281,0.44554 0.12935,-0.0512 0.38773,-0.0968 0.57417,-0.10132 0.60637,-0.0148 1.08022,-0.79306 0.95046,-1.56109 -0.0766,-0.45332 0.0195,-0.56015 0.27454,-0.30514 0.20232,0.20233 0.17645,1.28481 -0.038,1.59101 -0.16611,0.23716 -0.1597,0.26595 0.0882,0.39614 0.35585,0.18688 1.20044,0.89367 1.88009,1.57332 0.62798,0.62798 0.99758,0.68083 0.93868,0.13423 z m 3.38699,-0.47002 c 0,-0.15377 -0.0794,-0.34546 -0.17639,-0.42597 -0.15127,-0.12554 -0.17639,-0.0857 -0.17639,0.27958 0,0.30025 0.0521,0.42597 0.17639,0.42597 0.10733,0 0.17639,-0.10946 0.17639,-0.27958 z m -9.28982,-0.76413 c 0,-0.13656 -0.3873,-0.41392 -0.99984,-0.71602 -1.25562,-0.61927 -2.08587,-1.25325 -3.78734,-2.89203 -0.40682,-0.39183 -0.73967,-0.64319 -0.73967,-0.55857 0,0.0846 0.0529,0.15385 0.11759,0.15385 0.0647,0 0.11759,0.055 0.11759,0.1221 0,0.24748 1.40039,2.19062 2.02124,2.80464 0.96424,0.9536 1.3993,1.16318 2.41788,1.1647 0.4689,7e-4 0.85255,-0.0347 0.85255,-0.0787 z m -5.64444,-3.35401 c 0,-0.0257 -0.13166,-0.27709 -0.29257,-0.55856 -0.3306,-0.57831 -0.39944,-0.44394 -0.0972,0.18979 0.1635,0.34286 0.3898,0.55695 0.3898,0.36877 z m 31.70395,-9.6454 c 0.0353,-0.092 -0.001,-0.28931 -0.0811,-0.43856 l -0.14523,-0.27136 -0.11408,0.25568 c -0.12601,0.28238 -0.0435,0.62144 0.15124,0.62144 0.0687,0 0.15385,-0.0752 0.18914,-0.1672 z m 20.05535,33.32831 c 0,-0.16169 0.0267,-0.22784 0.0593,-0.14699 0.0326,0.0808 0.0326,0.21313 0,0.29398 -0.0326,0.0808 -0.0593,0.0147 -0.0593,-0.14699 z m 0.23519,-1.05833 c 0,-0.16169 0.0267,-0.22784 0.0593,-0.147 0.0326,0.0809 0.0326,0.21314 0,0.29399 -0.0326,0.0808 -0.0593,0.0147 -0.0593,-0.14699 z m -2.28223,-31.34675 c -0.0485,-0.0493 -0.0882,-0.25019 -0.0882,-0.44637 0,-0.25504 0.0361,-0.32057 0.12679,-0.22991 0.0697,0.0697 0.10942,0.2706 0.0882,0.44637 -0.0212,0.17577 -0.0783,0.27923 -0.12679,0.22991 z m -0.47037,-2.11667 c -0.0485,-0.0493 -0.0882,-0.1874 -0.0882,-0.30685 0,-0.11945 -0.0478,-0.30907 -0.10613,-0.42138 -0.0584,-0.1123 -0.17136,-0.44231 -0.25108,-0.73336 -0.30674,-1.11982 -0.38051,-1.35883 -0.48037,-1.5565 -0.13819,-0.27353 -0.13144,-0.79535 0.0103,-0.79535 0.0624,0 0.17382,0.11279 0.2476,0.25064 0.17598,0.32883 0.57969,2.02665 0.57969,2.43792 0,0.177 0.0571,0.37887 0.12679,0.4486 0.0697,0.0697 0.10941,0.2706 0.0882,0.44637 -0.0212,0.17578 -0.0783,0.27924 -0.12679,0.22991 z m -32.70538,-6.20394 c -0.73835,-0.75025 -1.15905,-1.57676 -1.10885,-2.17847 0.0486,-0.58263 0.23664,-0.53923 0.43522,0.10045 0.27182,0.87565 0.39687,1.08666 1.04105,1.75669 0.33955,0.35317 0.61736,0.71094 0.61736,0.79504 0,0.31841 -0.38971,0.13095 -0.98478,-0.47371 z m 4.00299,-10.50549 c -0.20065,-0.20064 -0.0975,-0.27462 1.01487,-0.72822 0.45548,-0.18573 2.50726,-0.16666 3.06791,0.0285 0.55612,0.1936 0.77035,0.49209 0.43058,0.59993 -0.12757,0.0405 -0.353,0.009 -0.50097,-0.0711 -0.42434,-0.22824 -2.75318,-0.19137 -3.29326,0.0521 -0.47965,0.21627 -0.60147,0.23638 -0.71913,0.11872 z"
       id="path42" /></g></svg>
