<?xml version="1.0" encoding="UTF-8" standalone="no"?>
<!-- Created with Inkscape (http://www.inkscape.org/) -->

<svg
   width="129.44916mm"
   height="67.527962mm"
   viewBox="0 0 129.44917 67.527962"
   version="1.1"
   id="svg1"
   xml:space="preserve"
   xmlns="http://www.w3.org/2000/svg"
   xmlns:svg="http://www.w3.org/2000/svg"><defs
     id="defs1" /><g
     id="layer1"
     transform="translate(-236.53088,168.70953)"><path
       style="fill:#4d4d4d;fill-opacity:1;stroke:none;stroke-width:0.4;stroke-dasharray:none;stroke-opacity:0.438272"
       d="m 277.80603,-101.30113 v -0.11946 l -0.32674,0.0249 -0.32675,0.0249 -0.14362,-0.0888 c -0.079,-0.0488 -0.14363,-0.16166 -0.14363,-0.25076 v -0.162 l -0.38218,-0.0369 -0.38217,-0.0368 -0.11608,-0.26458 -0.11608,-0.26458 h -0.27144 -0.27144 l -0.27127,-0.27127 c -0.14919,-0.14919 -0.29341,-0.3377 -0.32048,-0.41891 l -0.0492,-0.14764 -0.34574,0.13145 -0.34574,0.13145 -0.2681,-0.0673 -0.2681,-0.0673 -0.0749,-0.4684 c -0.0412,-0.25762 -0.0865,-0.4684 -0.1006,-0.4684 -0.0141,0 -0.18876,0.0813 -0.38805,0.18076 l -0.36234,0.18077 -0.2963,-0.0744 -0.29629,-0.0744 -0.20257,-0.30917 c -0.11142,-0.16994 -0.29941,-0.41301 -0.41777,-0.54004 l -0.21519,-0.23098 v -0.24352 -0.24353 l -0.23518,-0.14687 -0.23519,-0.14688 v -0.41217 -0.41217 l -0.13419,-0.21488 -0.13419,-0.21487 0.0795,-0.42394 0.0795,-0.42394 0.52503,-0.46215 0.52503,-0.46215 v -0.31015 c 0,-0.17058 0.0485,-0.40203 0.10771,-0.51434 0.0592,-0.1123 0.19301,-0.40051 0.29726,-0.64046 0.37986,-0.87422 1.45559,-2.08092 2.71123,-3.0413 0.32338,-0.24734 1.06145,-0.95513 1.64014,-1.57286 l 1.05218,-1.12317 h 0.75686 0.75687 l 0.48401,-0.13076 c 0.80193,-0.21665 1.47241,-0.575 2.95346,-1.57851 0.77611,-0.52586 1.64924,-1.08401 1.94028,-1.24032 0.29104,-0.15631 0.55562,-0.31421 0.58796,-0.35089 0.0618,-0.0701 3.37455,-1.69039 3.88056,-1.89801 0.16169,-0.0663 0.38587,-0.16736 0.49817,-0.22449 0.11231,-0.0571 0.28429,-0.10387 0.38218,-0.10387 h 0.17798 v -0.0987 -0.0987 l -1.02567,-0.15259 -1.02567,-0.1526 -5.53011,-0.0133 -5.53012,-0.0133 -1.35232,0.16098 c -3.64986,0.43447 -7.64404,1.0753 -10.46574,1.67912 -0.29104,0.0623 -0.71437,0.14004 -0.94074,0.17279 -0.22636,0.0328 -0.51741,0.10592 -0.64676,0.16257 -0.24751,0.10841 -0.78682,0.20424 -1.76389,0.31342 l -0.58796,0.0657 -0.31213,0.22202 c -0.17168,0.12211 -0.36571,0.22201 -0.43118,0.22201 -0.0655,0 -0.13667,0.0407 -0.15823,0.0904 -0.0216,0.0497 -0.39253,0.34068 -0.82437,0.64658 -0.43184,0.3059 -0.85517,0.62537 -0.94074,0.70994 -0.0856,0.0846 -0.63182,0.53827 -1.21391,1.00823 -1.41642,1.14359 -1.35508,1.09576 -1.82268,1.42142 -0.22637,0.15765 -0.43803,0.31914 -0.47037,0.35886 -0.0323,0.0397 -0.32338,0.24982 -0.64676,0.46689 -1.54361,1.03612 -4.22485,2.98566 -4.52731,3.29182 -0.097,0.0982 -0.40629,0.2976 -0.68727,0.44312 l -0.51089,0.26458 -0.37106,-0.004 -0.37106,-0.004 -0.18772,-0.14325 c -0.10324,-0.0788 -0.27522,-0.3126 -0.38217,-0.51958 l -0.19446,-0.37634 v -0.29982 -0.29982 h -0.57357 -0.57356 l -0.14944,-0.18006 -0.14943,-0.18005 -0.0189,-0.5549 -0.0189,-0.5549 -0.14443,-0.34246 -0.14443,-0.34246 0.0744,-0.49617 0.0744,-0.49618 -0.12617,-0.078 -0.12617,-0.078 -0.53603,0.29926 -0.53603,0.29926 h -0.40568 -0.40568 l -0.5143,0.52916 -0.5143,0.52916 h -0.23737 -0.23738 l -0.15052,-0.18137 -0.15053,-0.18137 -0.12257,0.12257 -0.12258,0.12258 h -0.38112 -0.38111 l -0.08,-0.12944 -0.08,-0.12944 -0.35777,0.0716 -0.35777,0.0716 -0.28349,-0.18575 -0.28349,-0.18575 -0.35132,0.12247 -0.35133,0.12248 -0.22444,-0.14017 -0.22443,-0.14016 -0.1353,-0.32663 -0.1353,-0.32664 h -0.20042 -0.20042 l -0.25569,-0.27216 -0.25568,-0.27216 v -0.5592 -0.55919 l 0.36422,-0.52937 0.36421,-0.52937 0.56426,-0.40538 0.56427,-0.40539 0.33145,-0.43875 c 0.4012,-0.53106 1.10383,-1.22147 1.67908,-1.64988 0.23355,-0.17393 0.4511,-0.34363 0.48344,-0.37711 0.0323,-0.0335 0.53504,-0.39985 1.11713,-0.81417 2.06156,-1.46738 2.97547,-2.24421 3.46829,-2.94805 0.40518,-0.57869 1.36262,-1.49651 1.80407,-1.72942 l 0.37208,-0.19631 0.59322,-0.003 0.59322,-0.003 0.40632,0.28299 c 0.22347,0.15565 0.76014,0.63583 1.1926,1.06708 l 0.78629,0.78408 0.53535,0.25164 c 0.29444,0.1384 0.60378,0.25164 0.68742,0.25164 h 0.15208 l 0.63792,-0.65633 c 0.35085,-0.36099 0.78308,-0.73141 0.96049,-0.82315 l 0.32258,-0.16681 h 0.45269 0.45269 l 0.11171,0.0971 c 0.0614,0.0534 0.32856,0.16508 0.59359,0.2481 l 0.48186,0.15096 1.39962,-0.0664 c 1.60246,-0.076 2.87995,-0.27745 4.22183,-0.66584 0.25871,-0.0749 0.61654,-0.16434 0.79519,-0.19881 0.17865,-0.0345 0.35375,-0.10949 0.38912,-0.16671 0.0354,-0.0572 0.16772,-0.10404 0.29413,-0.10404 0.12642,0 0.32173,-0.0481 0.43404,-0.10688 0.1123,-0.0588 0.83919,-0.35745 1.6153,-0.66371 1.4073,-0.55531 1.91839,-0.77074 3.08681,-1.30105 0.33954,-0.15412 0.92163,-0.4171 1.29351,-0.58441 0.37189,-0.16731 0.76805,-0.35252 0.88035,-0.41157 0.11231,-0.0591 0.28429,-0.10738 0.38218,-0.10738 h 0.17798 v -0.11759 -0.11759 h 0.17799 c 0.0979,0 0.26987,-0.0468 0.38217,-0.10388 0.19108,-0.0972 0.42547,-0.1963 1.14494,-0.48409 0.16169,-0.0647 0.41304,-0.16535 0.55856,-0.22372 1.48159,-0.59429 3.41562,-1.20709 5.02708,-1.59285 0.6791,-0.16257 1.46038,-0.34951 1.73618,-0.41543 0.2758,-0.0659 0.67268,-0.12391 0.88195,-0.12888 0.20927,-0.005 0.57853,-0.0711 0.82059,-0.147 l 0.44011,-0.13795 -0.43561,-0.88194 c -0.23959,-0.48507 -0.46673,-0.90841 -0.50476,-0.94074 -0.038,-0.0323 -0.55218,-1.03776 -1.14256,-2.23426 l -1.07343,-2.17547 -0.20003,-0.6997 -0.20004,-0.6997 0.0611,-0.891 0.0611,-0.89101 0.26978,-0.58475 c 0.29335,-0.63586 1.15076,-1.97192 1.306,-2.03507 l 0.0964,-0.0392 v -1.29947 -1.29948 l 0.13054,-0.48401 c 0.48946,-1.81481 1.5554,-3.41493 2.98641,-4.48303 0.25829,-0.19278 0.511,-0.4153 0.56157,-0.49447 0.082,-0.12837 0.5093,-0.34899 1.20157,-0.62038 0.50381,-0.19751 1.21422,-0.35708 2.09578,-0.47076 l 0.91985,-0.11861 h 1.87157 c 1.63054,0 5.23935,0.12476 8.13618,0.28129 l 0.91134,0.0492 v -0.98147 -0.98148 l 0.1176,-0.0727 0.11759,-0.0727 v -0.29074 -0.29073 l 0.20578,-0.0759 c 0.11319,-0.0418 0.23225,-0.10826 0.26459,-0.14776 0.35235,-0.43049 4.4213,-2.48082 6.52639,-3.28863 0.71143,-0.27301 1.3854,-0.54527 1.49771,-0.60501 0.1123,-0.0598 0.30762,-0.10863 0.43403,-0.10863 h 0.22984 l 0.0727,-0.11759 0.0727,-0.1176 h 0.2801 0.28011 l 0.0727,-0.11759 0.0727,-0.11759 h 0.22984 c 0.12641,0 0.32173,-0.0478 0.43403,-0.10613 0.22052,-0.11462 0.90889,-0.31275 2.49725,-0.71875 1.0851,-0.27737 1.36792,-0.34442 1.99907,-0.47393 0.35572,-0.073 0.83811,-0.18103 1.07198,-0.24009 0.23387,-0.0591 0.53001,-0.1074 0.65809,-0.1074 0.12808,0 0.40304,-0.0849 0.61101,-0.18864 0.20798,-0.10375 0.97017,-0.33582 1.69376,-0.5157 l 1.31562,-0.32707 1.17593,-0.12554 1.17593,-0.12555 0.88138,0.11248 c 1.77645,0.22671 2.90905,0.80898 3.64827,1.87558 0.15689,0.22636 0.37929,0.51416 0.49423,0.63953 0.11494,0.12538 0.20899,0.29736 0.20899,0.38218 v 0.15421 h 0.10332 c 0.0568,0 0.16909,0.15875 0.24945,0.35278 0.0804,0.19403 0.19263,0.35278 0.24946,0.35278 0.0568,0 0.10429,0.0661 0.10546,0.14699 0.003,0.19956 0.51117,0.83707 1.29099,1.61928 l 0.64715,0.64913 0.47641,0.15573 0.47641,0.15572 0.46374,-0.26047 c 0.6231,-0.34997 1.4636,-0.91929 1.78784,-1.211 l 0.26458,-0.23804 v -0.51801 -0.51801 l 0.31223,-0.78441 0.31222,-0.78441 0.58965,-0.88194 c 0.3243,-0.48507 0.62036,-0.90841 0.65791,-0.94074 0.0375,-0.0323 0.46514,-0.50775 0.95021,-1.05647 1.2949,-1.46479 1.77582,-1.927 2.56686,-2.46696 l 0.71059,-0.48505 0.68373,-0.276 c 0.37605,-0.15181 1.00123,-0.34127 1.38929,-0.42102 l 0.70555,-0.14502 0.82315,0.0711 0.82315,0.0711 0.91024,0.29074 0.91024,0.29074 0.79485,0.42281 c 1.49495,0.79522 2.79485,2.06944 3.26913,3.20453 0.28315,0.67767 0.13589,0.70736 -0.29881,0.0602 -0.96125,-1.43094 -2.9481,-2.7958 -4.94833,-3.39922 l -0.63732,-0.19227 -1.23472,0.009 -1.23473,0.009 -0.64676,0.17277 c -1.63275,0.43615 -2.63905,1.19472 -4.46851,3.36846 -0.29105,0.34581 -0.58209,0.68613 -0.64676,0.75628 -0.84584,0.91734 -2.05787,3.15033 -2.05787,3.79131 0,0.15571 0.31228,-0.028 0.68086,-0.40059 0.23995,-0.24253 0.55533,-0.50711 0.70085,-0.58796 0.66873,-0.37152 0.79562,-0.45111 0.95683,-0.6002 l 0.17218,-0.15924 -0.13823,-0.22134 -0.13823,-0.22135 v -0.64995 -0.64995 l 0.14699,-0.25414 c 0.31172,-0.53895 0.80181,-1.09225 1.36048,-1.53596 l 0.2591,-0.20579 h 0.47503 0.47503 l 0.17129,0.40997 0.1713,0.40997 0.0285,0.57891 0.0285,0.5789 0.66899,0.14281 0.66899,0.1428 0.28262,-0.0709 c 0.15545,-0.039 0.83336,-0.14792 1.50648,-0.24202 l 1.22385,-0.17108 0.70555,0.14909 c 0.71451,0.15098 1.46494,0.47498 1.6057,0.69325 l 0.077,0.1194 0.56977,-0.26522 c 0.31337,-0.14588 0.7418,-0.39494 0.95206,-0.55346 l 0.3823,-0.28824 0.17929,-0.3467 0.17928,-0.34669 h 0.17337 0.17337 v 0.24102 c 0,0.54889 -0.71188,1.39445 -1.53029,1.81767 -0.38618,0.1997 -0.42811,0.31532 -0.19918,0.54934 0.19649,0.20087 0.73584,1.35514 1.3814,2.95635 l 0.51293,1.27225 0.55937,-0.5667 0.55937,-0.56669 0.005,-0.42662 0.005,-0.42661 0.17995,-0.43067 0.17994,-0.43068 0.11404,0.0705 0.11403,0.0705 v 0.39566 c 0,0.21761 -0.062,0.67751 -0.13775,1.02199 l -0.13775,0.62634 -0.17601,0.2075 c -0.0968,0.11412 -0.40411,0.35181 -0.6829,0.52818 l -0.50689,0.32069 -0.13196,0.35376 c -0.0726,0.19456 -0.18843,0.47274 -0.25746,0.61816 -0.18456,0.38884 -0.0789,0.40635 0.5452,0.0904 l 0.56081,-0.28392 0.38534,-0.4207 c 0.21194,-0.23139 0.45264,-0.56483 0.53488,-0.74099 0.0822,-0.17616 0.19627,-0.41217 0.2534,-0.52448 l 0.10387,-0.20419 v -0.97769 -0.97769 l -0.14695,-0.31138 -0.14695,-0.31139 -0.1933,-0.0506 -0.19331,-0.0505 0.10159,-0.45526 c 0.0559,-0.25039 0.14972,-0.69338 0.20854,-0.98442 l 0.10695,-0.52917 0.0146,0.52917 0.0146,0.52917 0.26663,0.52916 c 0.14665,0.29104 0.33706,0.74486 0.42315,1.00848 l 0.15652,0.47931 -0.0589,0.63782 c -0.0814,0.88135 -0.17755,1.25954 -0.47411,1.86472 l -0.25548,0.52134 -0.61259,0.61275 -0.61259,0.61274 -0.97491,0.48859 c -0.5362,0.26873 -1.22706,0.66777 -1.53525,0.88676 l -0.56033,0.39817 -0.90192,0.20065 -0.90192,0.20066 -1.06599,0.52267 c -0.58629,0.28746 -1.15787,0.57102 -1.27017,0.63011 -0.11231,0.0591 -0.30762,0.10745 -0.43403,0.10745 -0.12642,0 -0.25845,0.0463 -0.29341,0.10286 l -0.0636,0.10285 -0.61953,0.0746 c -2.00866,0.24182 -2.75782,0.38758 -2.86247,0.5569 l -0.064,0.10356 h -0.68055 -0.68055 l -0.36795,-0.18356 c -0.20237,-0.10096 -0.46947,-0.31262 -0.59356,-0.47037 l -0.2256,-0.28682 h -0.1708 c -0.45999,0 -1.17037,0.54318 -1.30923,1.00106 l -0.0718,0.2367 0.34404,0.72747 0.34404,0.72747 0.38999,-0.12099 c 0.2145,-0.0665 0.65457,-0.19843 0.97795,-0.29309 l 0.58797,-0.1721 0.94074,-0.0102 0.94074,-0.0102 0.52917,0.15624 c 0.67843,0.20032 1.19725,0.48451 1.98163,1.08547 l 0.62933,0.48217 0.31141,0.41734 c 0.17128,0.22954 0.39922,0.51482 0.50654,0.63395 0.31394,0.34852 0.88038,1.48612 1.15112,2.31183 l 0.25061,0.76435 0.0727,0.92562 0.0727,0.92562 0.83402,-0.0732 c 0.45871,-0.0402 1.17798,-0.10534 1.59837,-0.14466 l 0.76435,-0.0715 0.11171,-0.10481 c 0.0615,-0.0576 0.22805,-0.1048 0.37024,-0.1048 h 0.25852 l 0.66798,-0.35138 c 0.86678,-0.45595 1.28319,-0.75575 2.00174,-1.44119 0.32338,-0.30848 0.93192,-0.79251 1.35231,-1.07563 l 0.76435,-0.51477 0.56946,-0.1923 c 0.3132,-0.10576 0.78945,-0.31497 1.05833,-0.46491 0.52085,-0.29044 0.78424,-0.36943 1.89999,-0.56981 1.12138,-0.20139 2.38935,-0.1438 3.52778,0.16025 0.92727,0.24765 1.93968,0.71534 2.77201,1.28057 l 0.66646,0.45258 0.4761,0.54089 0.47611,0.54088 0.3623,0.75121 0.3623,0.7512 v 0.29445 0.29445 l 0.11759,0.0727 0.11759,0.0727 v 0.98976 0.98975 l 0.22488,0.36979 0.22488,0.36978 -0.0454,1.26934 -0.0454,1.26934 -0.19959,0.50978 c -0.78534,2.00587 -3.04711,3.80259 -6.33291,5.03079 -0.38806,0.14505 -0.96397,0.36456 -1.2798,0.48779 -0.31584,0.12324 -0.6248,0.22408 -0.68658,0.22408 -0.14276,0 -2.36458,1.06125 -2.44334,1.16706 -0.0323,0.0435 -0.24401,0.20798 -0.47037,0.36563 -0.82198,0.57247 -1.84907,1.54235 -2.40453,2.27058 l -0.32186,0.42199 0.24606,0.34557 0.24607,0.34556 v 0.65632 0.65632 l 0.13817,0.51661 0.13817,0.5166 -0.20991,0.66737 -0.20992,0.66737 -0.2803,0.33312 -0.2803,0.33312 -0.5593,0.26314 -0.5593,0.26313 -0.94074,0.0554 -0.94074,0.0554 -0.88194,-0.18758 c -0.48507,-0.10317 -0.99522,-0.18762 -1.13366,-0.18768 l -0.25172,-9e-5 -1.0418,0.69048 c -1.20383,0.79786 -1.46941,1.03479 -1.86839,1.66682 l -0.29054,0.46024 0.003,0.44331 0.003,0.44331 0.22995,0.29398 0.22996,0.29399 0.003,0.26827 0.003,0.26827 -0.17728,0.068 -0.17727,0.068 -0.39593,-0.0743 -0.39592,-0.0743 -0.35834,-0.34244 -0.35833,-0.34244 -0.19759,-0.44875 c -0.30128,-0.68426 -0.36628,-0.87256 -0.51067,-1.47937 l -0.1333,-0.56025 v -0.88026 -0.88026 l -0.26459,4.8e-4 c -0.14552,2.6e-4 -0.74083,0.0735 -1.32291,0.16276 -1.2929,0.19826 -2.89802,0.37331 -4.99769,0.54505 l -1.5875,0.12984 -3.58657,0.0163 -3.58658,0.0162 -0.70555,-0.14677 c -0.38806,-0.0807 -0.97014,-0.20215 -1.29352,-0.26984 -2.46993,-0.51696 -4.44015,-1.71338 -5.26227,-3.19554 l -0.20579,-0.371 v 0.41562 0.41562 l 0.13398,0.13397 0.13398,0.13398 0.013,1.57631 0.013,1.57631 -0.12922,0.28291 c -0.0711,0.1556 -0.26256,0.57395 -0.42556,0.92967 l -0.29635,0.64675 -0.54525,0.606 -0.54525,0.60599 -0.51622,0.21351 -0.51622,0.21351 -0.0691,0.65041 c -0.16328,1.5379 -0.18399,1.61988 -0.65935,2.6098 l -0.26329,0.5483 -0.36897,0.35489 -0.36897,0.35489 -0.58796,0.28489 -0.58796,0.28489 -0.82315,0.13159 c -0.45273,0.0724 -1.2994,0.16034 -1.88148,0.19548 -0.58209,0.0351 -1.61396,0.11806 -2.29306,0.18427 -2.5122,0.24491 -3.50107,0.34018 -4.8213,0.46449 -0.74377,0.07 -2.91335,0.17509 -4.82129,0.23344 l -3.46898,0.10611 -0.88195,0.11554 c -0.48507,0.0636 -1.30528,0.17223 -1.82268,0.24152 -0.51741,0.0693 -1.15241,0.15359 -1.41111,0.18733 -1.688,0.2202 -3.54692,0.74266 -4.69736,1.32023 l -0.58162,0.292 -0.67192,0.6409 c -0.36955,0.3525 -0.82205,0.86228 -1.00555,1.13287 -0.1835,0.27058 -0.36421,0.51842 -0.40159,0.55076 -0.0374,0.0323 -0.29847,0.40075 -0.58022,0.8187 -0.55728,0.82669 -0.94308,1.29581 -1.43145,1.74063 l -0.31508,0.28698 -0.0786,0.46512 -0.0786,0.46513 -0.2531,0.28852 -0.2531,0.28852 -0.29398,0.019 c -0.16169,0.0105 -0.40557,-0.0178 -0.54196,-0.0628 l -0.24798,-0.0818 -0.1486,0.17904 -0.14859,0.17905 h -0.33839 -0.33838 z m 0.99108,-1.39255 0.31081,-0.61336 0.11341,0.0701 0.1134,0.0701 v 0.27939 c 0,0.15366 -0.0516,0.41512 -0.11468,0.58102 l -0.11468,0.30164 0.26167,-0.004 0.26168,-0.004 0.18676,-0.26089 c 0.10271,-0.14349 0.22166,-0.4389 0.26432,-0.65646 l 0.0776,-0.39558 0.64298,-0.6945 c 0.35364,-0.38198 0.8137,-0.9448 1.02235,-1.25073 0.20865,-0.30592 0.42214,-0.57386 0.47441,-0.59542 0.0523,-0.0216 0.0958,-0.10093 0.0966,-0.17639 8.7e-4,-0.0754 0.11993,-0.2864 0.26458,-0.46878 0.14466,-0.18237 0.43482,-0.55279 0.64482,-0.82314 0.75578,-0.97305 1.62754,-1.62379 2.68914,-2.00737 0.31593,-0.11415 0.68025,-0.25237 0.8096,-0.30716 0.12936,-0.0548 0.39394,-0.13289 0.58797,-0.17357 0.19402,-0.0407 0.59091,-0.12719 0.88195,-0.19224 2.1914,-0.48976 5.00202,-0.76765 9.34861,-0.92431 3.0455,-0.10976 4.19252,-0.1919 6.64398,-0.47579 2.43222,-0.28165 3.05165,-0.34701 4.40972,-0.46523 2.71121,-0.23603 3.50337,-0.37311 4.25753,-0.73674 0.84507,-0.40747 1.19125,-0.82416 1.66626,-2.00565 l 0.13223,-0.32891 v -0.39839 c 0,-0.21911 0.0544,-0.54146 0.12088,-0.71633 0.1626,-0.42766 0.18444,-0.42198 -1.07239,-0.27894 -2.28254,0.25978 -5.61742,0.47797 -10.74895,0.70328 -7.52376,0.33033 -10.82661,0.68669 -15.11065,1.63035 -2.76,0.60795 -5.07061,1.47297 -6.19919,2.32077 l -0.37835,0.28423 -0.82386,1.20225 c -0.45312,0.66124 -1.19789,1.65205 -1.65504,2.2018 -1.1173,1.3436 -1.08003,1.29682 -1.40532,1.76389 -0.15765,0.22636 -0.31595,0.43803 -0.35177,0.47037 -0.0358,0.0323 -0.22178,0.26868 -0.41323,0.52521 -0.19146,0.25653 -0.60126,0.7143 -0.91067,1.01728 l -0.56258,0.55085 v 0.19175 0.19174 l 0.19175,0.0736 0.19174,0.0736 0.41385,-0.22288 0.41386,-0.22287 0.36454,-0.55784 0.36454,-0.55785 0.14699,-0.002 0.14699,-0.002 v 0.29558 0.29558 l -0.14699,0.25952 c -0.0808,0.14274 -0.34329,0.47224 -0.58321,0.73223 l -0.43622,0.47272 0.11721,0.11721 0.11721,0.11721 0.40721,-0.43162 0.4072,-0.43161 0.004,-0.15484 c 0.005,-0.2123 0.28659,-0.56642 0.4502,-0.56642 h 0.13402 v 0.28287 0.28287 l -0.26458,0.51088 c -0.14552,0.28099 -0.30427,0.52852 -0.35278,0.55008 -0.0485,0.0216 -0.0882,0.11857 -0.0882,0.21559 v 0.17639 l 0.13639,-0.0455 c 0.15069,-0.0502 0.4922,-0.64248 0.6783,-1.17635 l 0.11997,-0.34413 0.12063,0.0746 0.12064,0.0746 v 0.39769 0.3977 l -0.1176,0.0727 -0.11759,0.0727 v 0.35424 0.35423 l 0.16375,-0.16374 c 0.0901,-0.0901 0.30361,-0.43976 0.47455,-0.7771 z m -4.06728,-1.50247 c 0.2367,-0.17043 0.62733,-0.55471 0.86806,-0.85398 0.24073,-0.29926 0.61115,-0.73012 0.82315,-0.95745 0.212,-0.22733 0.53017,-0.60575 0.70705,-0.84094 0.17688,-0.23519 0.39057,-0.49835 0.47486,-0.58479 0.0843,-0.0864 0.51424,-0.60696 0.95545,-1.15671 0.44121,-0.54974 0.89739,-1.11345 1.01373,-1.25267 0.11633,-0.13923 0.53351,-0.73201 0.92705,-1.3173 l 0.71554,-1.06415 0.8479,-0.4952 c 1.0284,-0.60062 2.54958,-1.25897 3.73971,-1.6185 0.48507,-0.14654 1.04445,-0.31552 1.24307,-0.37551 0.19862,-0.06 0.4923,-0.10906 0.65264,-0.10906 h 0.29152 l 0.11171,-0.1062 c 0.0614,-0.0584 0.34984,-0.13582 0.64088,-0.17203 0.29104,-0.0362 0.87312,-0.12242 1.29352,-0.19157 2.96718,-0.48805 6.64492,-0.76889 15.34583,-1.17184 3.48679,-0.16148 7.36264,-0.45238 8.79275,-0.65995 l 0.56126,-0.0815 0.063,-0.102 0.063,-0.10199 h 0.3955 0.39549 l 0.50399,-0.38441 0.504,-0.38441 0.38455,-0.76212 0.38455,-0.76212 0.003,-0.25764 0.003,-0.25764 0.11759,-0.0727 0.1176,-0.0727 0.005,-0.49282 c 0.003,-0.27106 0.0468,-0.70803 0.0979,-0.97106 l 0.0927,-0.47822 -0.10762,-0.7565 c -0.0592,-0.41607 -0.15281,-0.94171 -0.20803,-1.16807 -0.0552,-0.22637 -0.16385,-0.67616 -0.24138,-0.99954 -0.21184,-0.88357 -1.64072,-5.1549 -2.2226,-6.64398 -0.56496,-1.44579 -2.17188,-4.28632 -2.59442,-4.58611 -0.14231,-0.10098 -1.21343,-1.79013 -1.58177,-2.49445 l -0.3513,-0.67175 0.13527,-0.13526 0.13526,-0.13527 0.10515,0.065 c 0.0578,0.0357 0.33348,0.45182 0.61256,0.92462 0.27908,0.47279 0.87138,1.39812 1.31622,2.05627 0.44483,0.65815 0.80879,1.25346 0.80879,1.32291 v 0.12628 h 0.11759 c 0.0647,0 0.11759,0.0475 0.11759,0.10558 0,0.0581 0.20165,0.44171 0.44812,0.85254 0.43054,0.71769 0.57613,1.00898 1.01983,2.04049 0.5598,1.30142 1.19548,3.11817 1.70755,4.8801 0.14097,0.48507 0.30437,1.00349 0.3631,1.15206 0.0587,0.14856 0.10677,0.39344 0.10677,0.54416 v 0.27405 l 0.17639,0.14639 0.17639,0.14639 v -0.22284 -0.22285 l 0.47133,-0.40891 c 0.25923,-0.2249 0.78918,-0.60202 1.17766,-0.83805 l 0.70632,-0.42913 1.1448,-0.35084 c 0.62964,-0.19296 1.46548,-0.40996 1.85743,-0.48221 l 0.71264,-0.13137 h 1.1638 1.1638 l -1.46486,-0.74933 c -2.76369,-1.41372 -5.40421,-3.29208 -5.40421,-3.84435 0,-0.0513 -0.0691,-0.16315 -0.15346,-0.24862 -0.0844,-0.0855 -0.37519,-0.48283 -0.64619,-0.88305 -0.271,-0.40021 -0.54591,-0.76052 -0.6109,-0.80069 l -0.11816,-0.073 v -0.6233 -0.6233 l 0.38218,-0.75147 c 0.21019,-0.41331 0.42186,-0.76911 0.47037,-0.79067 0.0485,-0.0216 0.0883,-0.10093 0.0883,-0.17639 2.8e-4,-0.26738 1.46791,-1.92933 2.56148,-2.90062 1.14875,-1.02029 1.08645,-0.96851 1.55411,-1.29172 0.22637,-0.15644 0.43804,-0.31836 0.47037,-0.35982 0.0323,-0.0414 0.32338,-0.27704 0.64676,-0.52352 l 0.58797,-0.44816 -0.52917,0.10629 -0.52917,0.10629 -2.52824,-0.001 -2.52824,-0.001 -0.58796,-0.0913 c -1.1355,-0.17625 -1.88959,-0.34675 -2.76425,-0.62499 l -0.88276,-0.28082 -1.23391,-0.72427 c -0.67864,-0.39835 -1.76306,-0.98597 -2.40982,-1.30582 -0.64676,-0.31985 -1.26781,-0.62887 -1.38012,-0.6867 -0.11231,-0.0578 -0.30762,-0.10515 -0.43403,-0.10515 h -0.22984 l -0.0727,-0.1176 -0.0727,-0.11759 h -0.33889 -0.3389 l -0.0727,-0.11759 -0.0727,-0.11759 h -0.34584 -0.34584 l 0.002,0.14699 c 10e-4,0.0808 0.0571,0.5174 0.12395,0.97014 0.0669,0.45273 0.16705,1.19356 0.22257,1.64629 0.0555,0.45273 0.21125,1.6169 0.34606,2.58704 0.13481,0.97014 0.27324,1.9772 0.30761,2.23792 l 0.0625,0.47403 0.43762,0.65177 c 0.61783,0.92013 0.83623,1.1683 1.43717,1.63297 0.65985,0.51024 0.71095,0.5608 1.04053,1.02954 l 0.26844,0.38179 0.11792,0.75741 0.11792,0.75742 -0.12978,0.24251 -0.12979,0.24251 h -0.32236 -0.32235 l -0.82004,-0.65449 -0.82003,-0.65448 -0.0373,0.50054 -0.0373,0.50054 0.15466,0.30094 c 0.0851,0.16551 0.1812,0.32739 0.21364,0.35973 0.0324,0.0323 0.1699,0.27046 0.30546,0.52916 0.13557,0.25871 0.36046,0.67042 0.49977,0.91492 l 0.25329,0.44455 v 0.87535 0.87535 l -0.33783,0.1747 -0.33783,0.1747 -0.067,0.25628 -0.067,0.25628 -0.48391,-0.0649 -0.48391,-0.0649 -0.10787,0.28371 -0.10786,0.28371 h -0.34524 -0.34523 l -0.29684,-0.35278 c -0.35332,-0.4199 -0.42962,-0.4372 -0.42962,-0.0975 v 0.25533 l -0.19462,0.21504 -0.19461,0.21505 h -0.19575 -0.19576 l -0.22699,-0.26653 c -0.31407,-0.36876 -0.85824,-1.28387 -1.34495,-2.26171 -0.22535,-0.45273 -0.44964,-0.84079 -0.49843,-0.86235 -0.0488,-0.0216 -0.0887,-0.13749 -0.0887,-0.25764 0,-0.12014 -0.0471,-0.24754 -0.1046,-0.28309 -0.0575,-0.0356 -0.14431,-0.26358 -0.19285,-0.50671 l -0.0882,-0.44206 -0.008,-1.99908 -0.008,-1.99907 0.0973,-0.82315 0.0973,-0.82315 -0.19069,-1.10845 c -0.10489,-0.60965 -0.1907,-1.23454 -0.1907,-1.38865 v -0.2802 l -0.0839,-0.4535 0.31912,0.5989 v 0.2801 0.2801 l 0.1046,0.0647 c 0.15369,0.095 0.26267,0.79688 0.32989,2.1247 l 0.0595,1.17592 -0.14318,1.1505 -0.14317,1.15051 0.14148,0.96616 c 0.23185,1.5833 0.48572,2.25856 1.32239,3.51735 0.24482,0.36834 0.44512,0.69867 0.44512,0.73406 0,0.1095 0.50719,0.65411 0.60917,0.65411 h 0.0964 v -0.27744 -0.27743 l -0.41044,-0.51632 -0.41043,-0.51631 -10e-4,-0.19885 c -6.3e-4,-0.10937 -0.0541,-0.23155 -0.11873,-0.27152 l -0.1176,-0.0727 v -0.32232 -0.32232 l -0.14111,-0.14111 -0.14111,-0.14111 0.13321,-0.13321 0.13321,-0.1332 0.18429,0.0707 0.18429,0.0707 v 0.29409 0.2941 l 0.2374,0.42266 c 0.13056,0.23246 0.41782,0.61772 0.63833,0.85612 0.22052,0.23841 0.56633,0.66182 0.76846,0.94093 l 0.36751,0.50746 0.14068,-0.0463 0.14068,-0.0463 0.0397,-0.27147 0.0397,-0.27147 -0.11368,-0.0721 c -0.0625,-0.0396 -0.40749,-0.55746 -0.76659,-1.15068 l -0.65291,-1.07858 -0.12123,-0.43909 -0.12124,-0.43908 0.0613,-0.0992 c 0.0337,-0.0546 0.13554,-0.0992 0.22624,-0.0992 h 0.16492 l 0.1211,0.44971 0.12109,0.44972 0.84698,1.22598 c 0.46584,0.67429 0.91949,1.29931 1.00812,1.38893 l 0.16115,0.16295 0.12297,-0.12297 0.12296,-0.12296 -0.35104,-0.51036 c -0.47002,-0.68331 -0.88545,-1.39699 -1.40064,-2.4062 l -0.42754,-0.83751 0.0735,-0.19142 c 0.0404,-0.10528 0.1186,-0.19142 0.17378,-0.19142 h 0.10034 l 0.62576,1.14652 c 0.92704,1.69854 1.49152,2.48214 1.79739,2.49511 l 0.0882,0.004 v -0.41317 -0.41317 l -0.147,-0.26299 c -0.0808,-0.14464 -0.17594,-0.28945 -0.21132,-0.32178 -0.0354,-0.0323 -0.21126,-0.36307 -0.39083,-0.73496 l -0.32649,-0.67616 h -0.10342 c -0.0569,0 -0.18451,-0.17197 -0.28361,-0.38217 l -0.18019,-0.38218 0.0342,-1.16829 0.0342,-1.1683 0.13698,-0.0457 0.13698,-0.0457 0.7115,0.68479 c 0.39133,0.37663 0.87458,0.77365 1.0739,0.88226 l 0.3624,0.19747 0.16433,-0.0631 0.16433,-0.0631 v -0.29752 -0.29753 l -1.32292,-1.32671 c -0.7276,-0.72969 -1.49583,-1.51562 -1.70717,-1.74651 l -0.38425,-0.4198 -0.062,-0.55982 c -0.0341,-0.3079 -0.11139,-0.85086 -0.17175,-1.20658 -0.16421,-0.96773 -0.56082,-3.50495 -0.65254,-4.17454 l -0.0806,-0.58796 0.0184,-2.23426 0.0184,-2.23426 -0.12451,-1.05833 c -0.0685,-0.58208 -0.18055,-1.41535 -0.24903,-1.8517 l -0.12453,-0.79337 -0.10698,-0.0661 -0.10698,-0.0661 v -0.33889 -0.3389 l 0.11869,-0.0734 0.11869,-0.0734 0.20469,0.36386 0.20469,0.36387 0.2401,-0.0584 c 0.13205,-0.0321 0.55538,-0.0936 0.94074,-0.13663 0.67271,-0.0752 1.17815,-0.19254 4.16962,-0.96842 0.74378,-0.19291 1.88148,-0.4652 2.52824,-0.6051 0.64676,-0.1399 1.36114,-0.30359 1.5875,-0.36376 0.48043,-0.1277 1.59113,-0.17483 3.21258,-0.13634 l 1.15471,0.0274 -0.0376,0.26458 -0.0376,0.26459 -1.76389,0.0746 -1.76389,0.0746 -0.58796,0.1258 c -0.92926,0.19883 -1.60846,0.34992 -2.11667,0.47087 -0.2587,0.0616 -0.65557,0.1483 -0.88194,0.19274 -0.22637,0.0444 -0.54387,0.12527 -0.70556,0.17962 -0.16168,0.0544 -1.00835,0.28651 -1.88148,0.5159 l -1.5875,0.41708 -1.11713,0.1613 -1.11713,0.1613 0.0588,0.16542 c 0.0323,0.091 0.0444,1.12213 0.0268,2.29143 l -0.032,2.12601 0.30211,0.13765 c 0.16617,0.0757 0.38848,0.13765 0.49402,0.13765 0.21642,0 0.92695,0.21111 1.23595,0.36722 0.1123,0.0567 0.30762,0.10315 0.43403,0.10315 h 0.22984 l 0.0727,0.1176 0.0727,0.11759 h 0.22825 0.22824 v 0.11759 0.11759 h 0.17282 c 0.095,0 0.35963,0.10584 0.58796,0.23519 0.85637,0.48514 1.20559,0.68712 2.17904,1.26032 3.02734,1.7826 6.41363,2.20051 11.94678,1.47439 l 0.7167,-0.0941 0.9296,-0.60266 c 1.17893,-0.76429 2.70728,-1.69178 3.1642,-1.92022 0.19384,-0.0969 0.3789,-0.20403 0.41124,-0.23803 0.0323,-0.034 0.53504,-0.29819 1.11713,-0.58707 0.58208,-0.28888 1.07597,-0.56541 1.09753,-0.61451 0.0216,-0.0491 0.14062,-0.0893 0.26458,-0.0893 h 0.22539 v -0.1176 -0.11759 h 0.14347 c 0.2047,0 1.26307,-0.51265 1.26556,-0.61301 10e-4,-0.0461 -0.10376,-0.35234 -0.23311,-0.68051 l -0.23518,-0.59667 v -0.47185 -0.47186 l 0.17626,-0.34086 0.17627,-0.34086 0.3934,-0.30006 0.3934,-0.30006 h 0.20726 0.20727 l -0.0858,-0.20579 c -0.0472,-0.11318 -0.13132,-0.43421 -0.18689,-0.71341 -0.0556,-0.27919 -0.13415,-0.5612 -0.17462,-0.62668 l -0.0736,-0.11906 0.081,-0.75611 0.081,-0.75612 0.10812,0.0668 0.10812,0.0668 v 0.32759 c 0,0.18017 0.10453,0.64007 0.23229,1.02199 l 0.2323,0.69441 0.003,0.44682 0.003,0.44681 0.16713,0.31754 c 0.21767,0.41357 0.49616,0.63484 1.03825,0.82492 l 0.44091,0.1546 0.44098,-0.15397 c 0.24253,-0.0847 0.47696,-0.20433 0.52096,-0.26586 l 0.08,-0.11189 -0.11869,-0.24152 c -0.0653,-0.13283 -0.36585,-0.47036 -0.66795,-0.75005 l -0.54927,-0.50853 0.57554,0.0773 0.57553,0.0773 -0.075,-0.39193 c -0.0412,-0.21556 -0.10653,-0.52997 -0.14509,-0.69868 l -0.0701,-0.30676 0.19759,-0.0758 0.1976,-0.0758 0.3127,0.2207 c 0.17199,0.12138 0.63227,0.38127 1.02284,0.57753 l 0.71014,0.35684 0.2306,-0.1241 c 0.12683,-0.0683 0.24363,-0.13373 0.25955,-0.1455 0.0159,-0.0118 -0.0724,-0.22886 -0.19616,-0.48243 l -0.2251,-0.46102 0.18499,-0.20579 0.18498,-0.20579 h 0.57388 0.57387 l 0.28984,0.18992 0.28985,0.18991 v 0.17658 0.17658 l -0.26459,-0.0753 c -0.14552,-0.0414 -0.42333,-0.10266 -0.61736,-0.13604 l -0.35277,-0.0607 0.23063,0.15172 c 0.12684,0.0834 0.38552,0.30049 0.57484,0.48233 l 0.34422,0.33062 -0.10448,0.10039 c -0.0575,0.0552 -0.23318,0.11811 -0.39049,0.13976 l -0.28602,0.0393 0.55736,0.12701 0.55736,0.127 0.30912,-0.53858 c 0.38381,-0.6687 1.1618,-1.62374 1.44712,-1.77643 l 0.21392,-0.11449 0.2957,0.11243 0.29571,0.11242 0.35477,0.37124 c 0.19513,0.20418 0.4224,0.52401 0.50505,0.71074 0.17507,0.39549 0.21663,0.40341 0.76108,0.14505 l 0.40978,-0.19445 0.44916,-0.5993 c 0.24704,-0.32962 0.52797,-0.79059 0.62429,-1.02439 l 0.17514,-0.42508 -0.10316,-0.16288 -0.10315,-0.16288 -0.002,-0.49423 -0.002,-0.49424 -0.11008,-0.27012 c -0.0605,-0.14856 -0.27792,-0.7199 -0.48307,-1.26965 -0.50029,-1.34061 -0.71742,-1.74402 -1.21233,-2.25245 l -0.41834,-0.42977 -0.67719,-0.33132 -0.67718,-0.33131 -0.82734,0.004 -0.82734,0.004 -0.97809,0.15579 -0.97808,0.15579 -0.71121,-0.0645 -0.71121,-0.0645 -0.11308,-0.11308 -0.11308,-0.11308 -0.27955,0.27955 -0.27955,0.27955 h -0.16915 -0.16916 l -0.0677,-0.17639 -0.0677,-0.17639 h -0.18008 -0.18008 v -0.20902 c 0,-0.11496 0.0848,-0.33005 0.18839,-0.47797 l 0.18838,-0.26896 -0.0652,-0.0652 -0.0652,-0.0652 -0.16042,0.16099 c -0.0882,0.0885 -0.25559,0.30651 -0.37191,0.48437 l -0.21148,0.32338 h -0.22166 -0.22166 l -7.2e-4,-0.26458 -7.3e-4,-0.26459 -0.17566,0.33682 c -0.2059,0.3948 -0.224,0.68494 -0.0534,0.85558 l 0.1223,0.1223 -0.12726,0.56788 -0.12726,0.56788 -0.20083,0.18714 c -0.32919,0.30675 -0.87062,1.31204 -1.04943,1.94851 -0.20756,0.7388 -0.38612,1.69142 -0.38612,2.0599 v 0.33687 l -0.10894,0.0673 -0.10893,0.0673 -0.0819,-0.65582 -0.0819,-0.65582 0.14038,-0.72748 c 0.0772,-0.40011 0.15814,-0.82009 0.17986,-0.93327 0.0556,-0.28997 -0.0116,-0.26393 -0.62773,0.24312 -0.55802,0.45922 -1.15272,0.87709 -2.19088,1.53944 l -0.58706,0.37455 -0.47127,-0.0736 -0.47127,-0.0736 -0.5262,-0.31727 -0.52619,-0.31726 -0.61802,-0.76116 c -0.33991,-0.41864 -0.61906,-0.80454 -0.62033,-0.85757 -10e-4,-0.053 -0.16107,-0.32714 -0.3551,-0.60915 -0.19403,-0.28201 -0.35278,-0.56935 -0.35278,-0.63854 v -0.12581 h -0.11759 -0.11759 l -1.4e-4,-0.14699 c -8e-5,-0.0808 -0.11915,-0.28877 -0.26459,-0.46206 -0.14544,-0.17329 -0.40208,-0.49133 -0.57032,-0.70674 l -0.30588,-0.39167 -0.60228,-0.3278 -0.60227,-0.3278 -0.65568,-0.17078 -0.65569,-0.17079 h -1.2945 -1.29451 l -0.49304,0.10791 c -0.27118,0.0593 -0.81055,0.17482 -1.1986,0.25659 -0.38806,0.0818 -1.1357,0.29561 -1.66144,0.47519 -0.52573,0.17958 -1.29302,0.38642 -1.70509,0.45964 -0.74072,0.13161 -1.21978,0.22943 -2.30731,0.47109 -0.30721,0.0683 -0.73104,0.15349 -0.94183,0.18938 -0.2108,0.0359 -0.41236,0.11233 -0.44792,0.16986 l -0.0646,0.1046 h -0.2493 c -0.26476,0 -0.95359,0.19558 -1.29333,0.36722 -0.1123,0.0567 -0.33408,0.10315 -0.49283,0.10315 h -0.28863 l -0.0727,0.1176 -0.0727,0.11759 h -0.26352 c -0.14494,0 -0.31379,0.0421 -0.37524,0.0936 -0.0614,0.0515 -0.32338,0.1608 -0.58208,0.24295 -0.2587,0.0822 -0.60266,0.20587 -0.76435,0.27493 -0.34334,0.14663 -0.57209,0.23583 -1.29352,0.50437 -1.52035,0.56595 -5.07392,2.34634 -6.01537,3.01379 -0.17168,0.12171 -0.36911,0.22129 -0.43874,0.22129 h -0.12659 l -0.0877,0.32338 -0.0877,0.32338 0.003,1.05834 0.003,1.05833 0.14525,1.11713 c 0.0799,0.61442 0.17512,1.35525 0.21162,1.6463 0.0365,0.29104 0.11416,0.57943 0.17256,0.64088 l 0.1062,0.11171 v 0.32372 c 0,0.17805 0.0474,0.44528 0.10534,0.59385 0.0579,0.14856 0.17177,0.50824 0.25295,0.79928 0.0812,0.29104 0.2719,0.91393 0.42382,1.38419 0.15192,0.47026 0.27622,0.97562 0.27622,1.12301 v 0.26799 l 0.13082,0.13082 0.13082,0.13082 -0.051,0.15311 -0.051,0.1531 -0.32519,-0.70138 c -0.17885,-0.38576 -0.37351,-0.79327 -0.43256,-0.90557 -0.0591,-0.11231 -0.10738,-0.27781 -0.10738,-0.36778 0,-0.09 -0.0816,-0.23132 -0.18137,-0.31411 l -0.18137,-0.15053 -0.13613,0.13613 c -0.0749,0.0749 -0.22977,0.13613 -0.34422,0.13613 -0.11445,0 -0.38765,0.10085 -0.60713,0.22412 -0.94941,0.53326 -1.02364,0.5834 -1.67661,1.13258 l -0.28485,0.23957 0.24062,0.91866 c 0.49516,1.89047 0.70208,3.32335 0.96136,6.65729 l 0.13261,1.70509 0.005,4.29213 0.005,4.29213 -0.1488,1.35231 c -0.0818,0.74378 -0.17884,1.65781 -0.21555,2.03119 l -0.0668,0.67887 0.69049,-0.0909 0.69048,-0.0909 h 1.94028 1.94028 l 0.79375,0.0915 0.79375,0.0915 v -0.12193 c 0,-0.0671 -0.15875,-0.28806 -0.35278,-0.49109 l -0.35278,-0.36915 v -0.15895 c 0,-0.0874 -0.044,-0.15894 -0.0977,-0.15894 -0.0537,0 -0.17281,-0.14552 -0.26458,-0.32338 -0.0918,-0.17786 -0.25947,-0.42597 -0.37265,-0.55134 -0.11318,-0.12538 -0.20579,-0.27508 -0.20579,-0.33266 0,-0.14186 -2.58082,-3.86766 -2.82914,-4.08429 -0.0371,-0.0323 -0.24562,-0.32338 -0.46345,-0.64676 -0.21783,-0.32338 -0.426,-0.61442 -0.46261,-0.64676 -0.0366,-0.0323 -0.23854,-0.28059 -0.44873,-0.55167 l -0.38218,-0.49287 v -0.24208 -0.24208 h 0.15518 0.15519 l 0.22865,0.26458 c 0.12576,0.14552 0.35765,0.44979 0.51531,0.67616 0.15766,0.22636 0.31797,0.43803 0.35624,0.47037 0.0383,0.0323 0.39705,0.50859 0.79731,1.05833 0.40025,0.54975 0.78215,1.06405 0.84868,1.1429 0.0665,0.0789 0.792,1.13719 1.61218,2.35186 0.82019,1.21466 1.52332,2.23494 1.56252,2.26728 0.0392,0.0323 0.19928,0.244 0.35572,0.47037 0.15645,0.22636 0.34146,0.47062 0.41113,0.54279 l 0.12669,0.13121 1.05311,0.13786 c 0.57921,0.0758 1.5029,0.19426 2.05265,0.2632 0.54974,0.0689 1.13183,0.16393 1.29352,0.2111 l 0.29398,0.0858 v 0.28418 0.28419 l -0.41158,-0.0195 c -0.22636,-0.0107 -0.8349,-0.0779 -1.35231,-0.14932 -0.51741,-0.0714 -1.46991,-0.18757 -2.11667,-0.25813 l -1.17592,-0.12829 -3.35139,-0.0567 -3.35139,-0.0568 -1.17593,0.13534 c -3.53583,0.40693 -6.95733,1.27183 -9.52558,2.40791 -1.95375,0.86425 -2.34497,1.06026 -4.09969,2.05401 -0.61954,0.35087 -2.10376,1.34973 -2.92721,1.96997 l -0.67747,0.51029 h -0.21427 c -0.11785,0 -0.25054,0.0363 -0.29486,0.0806 -0.14621,0.14621 -0.9519,0.38621 -1.30258,0.38801 -0.35055,0.002 -0.95049,0.16456 -1.47531,0.40024 -0.16007,0.0719 -0.58341,0.41366 -0.94074,0.75948 -0.35734,0.34584 -1.09949,1.0038 -1.64924,1.46214 -0.54974,0.45834 -1.31704,1.15698 -1.70509,1.55252 l -0.70556,0.71918 -0.27745,0.58211 c -0.1526,0.32016 -0.32458,0.674 -0.38218,0.7863 -0.0576,0.11231 -0.10472,0.38946 -0.10472,0.61589 v 0.41169 l -0.46048,0.2907 c -0.25327,0.15988 -0.4967,0.34927 -0.54095,0.42087 l -0.0805,0.13018 0.0752,0.0752 0.0752,0.0752 0.41019,-0.2209 0.41018,-0.2209 0.12602,0.12602 0.12602,0.12603 -0.0766,0.24118 -0.0765,0.24119 -0.4055,0.25061 c -0.22303,0.13784 -0.4055,0.29922 -0.4055,0.35862 v 0.108 h 0.23518 0.23519 l 0.47946,-0.47946 0.47946,-0.47947 0.1673,0.0642 0.1673,0.0642 v 0.17745 0.17744 l -0.64384,0.65421 -0.64383,0.6542 0.19123,0.0734 0.19123,0.0734 0.45685,-0.48977 c 0.46336,-0.49675 0.6163,-0.57611 0.73624,-0.38205 l 0.0666,0.10773 -0.11046,0.29053 c -0.0607,0.15979 -0.24634,0.42641 -0.41241,0.59248 -0.16608,0.16608 -0.30196,0.36169 -0.30196,0.4347 v 0.13273 l 0.0908,-0.0392 c 0.0499,-0.0216 0.31355,-0.14504 0.58584,-0.27439 l 0.49508,-0.23518 0.0714,-0.23519 c 0.0393,-0.12935 0.13253,-0.3807 0.20722,-0.55856 l 0.1358,-0.32338 h 0.20648 0.20648 v 0.18284 c 0,0.10056 -0.10317,0.40931 -0.22927,0.6861 l -0.22926,0.50327 0.0633,0.28403 c 0.15519,0.69605 0.14176,0.69111 0.72919,0.26818 z m 28.35861,-37.79015 c 0,-0.12935 -0.0805,-0.17921 0.0451,-0.23519 0.0226,-0.0101 0.006,-0.28601 0.0394,-0.15666 l 0.12867,0.62703 0.005,0.22391 -0.21855,-0.22391 z m -0.23518,-0.53076 c -0.0559,-0.16342 -0.0492,-0.29754 -0.33442,-0.84936 -0.0748,-0.14464 -0.13595,-0.36642 -0.13595,-0.49283 v -0.22984 l -0.11759,-0.0727 -0.1176,-0.0727 v -0.22825 -0.22824 h 0.1176 0.11759 v 0.17798 c 0,0.0979 0.0467,0.26987 0.10387,0.38218 0.0571,0.1123 0.16914,0.36294 0.24891,0.55697 0.0798,0.19403 0.19177,0.44466 0.2489,0.55697 0.0571,0.1123 0.10387,0.31074 0.10387,0.44097 v 0.23678 l 0.0168,0.29109 -0.084,0.0224 z m 16.59143,-2.52816 c -0.22039,-0.38471 -0.48497,-0.79315 -0.58797,-0.90764 -0.10299,-0.11449 -0.32686,-0.39334 -0.49748,-0.61965 -0.17063,-0.22631 -0.44544,-0.56695 -0.61071,-0.75697 -0.16526,-0.19002 -0.44435,-0.60983 -0.62019,-0.93291 l -0.31972,-0.58742 -0.15318,-0.71338 c -0.0843,-0.39237 -0.15504,-0.90925 -0.15731,-1.14863 l -0.004,-0.43523 0.16778,-0.64413 c 0.19327,-0.74203 0.37972,-1.13123 0.54191,-1.13123 h 0.11346 l -0.002,0.32338 c -9.4e-4,0.17785 -0.0786,0.54406 -0.17259,0.81379 -0.094,0.26974 -0.19249,0.68654 -0.21891,0.92623 l -0.048,0.43581 0.15161,0.57473 0.15161,0.57472 0.32341,0.55692 c 0.17787,0.3063 0.35581,0.58337 0.39542,0.61571 0.0396,0.0323 0.25509,0.29692 0.47886,0.58797 0.22376,0.29104 0.46052,0.5894 0.52613,0.66303 0.35098,0.3939 0.53086,0.64451 0.53086,0.73962 0,0.0585 0.0397,0.12409 0.0882,0.14565 0.0485,0.0216 0.21235,0.28427 0.36409,0.5838 l 0.27589,0.54461 -0.0407,0.21 c -0.0224,0.1155 -0.0936,0.2259 -0.1583,0.24534 l -0.11759,0.0353 z m 0.0185,-5.04961 c -0.0808,-0.13055 -0.14699,-0.34204 -0.14699,-0.47 v -0.23264 l 0.22427,-0.12003 0.22426,-0.12002 0.27314,0.22117 0.27313,0.22117 -0.11759,0.33569 -0.11759,0.33569 -0.23282,0.0332 -0.23282,0.0332 z m 23.65742,-5.95083 -0.36086,-0.17808 -0.2565,-0.52795 -0.25649,-0.52794 v -0.53582 -0.53582 l 0.14544,0.0485 0.14545,0.0485 0.17793,0.57539 0.17794,0.57539 0.49977,0.50615 c 0.27487,0.27839 0.49976,0.55768 0.49976,0.62065 v 0.1145 l -0.20578,-0.003 c -0.11319,-10e-4 -0.36818,-0.0828 -0.56666,-0.18075 z m 1.31109,-0.35305 -0.18587,-0.18587 v -0.22321 c 0,-0.12277 -0.10855,-0.42326 -0.24122,-0.66776 l -0.24123,-0.44455 -0.37169,-0.32338 -0.3717,-0.32338 -0.18083,-0.004 c -0.44435,-0.009 -0.75756,-0.46663 -0.31951,-0.46663 h 0.2729 l 0.63845,0.32338 0.63844,0.32338 0.38218,0.57186 0.38217,0.57185 v 0.45014 0.45014 l -0.10811,0.0668 -0.10811,0.0668 z m -95.17375,44.78068 c 0.41592,-0.37188 0.90282,-0.79949 1.082,-0.95023 0.45332,-0.38136 2.63464,-1.78378 2.77448,-1.78378 0.0631,0 0.11473,-0.044 0.11473,-0.0977 0,-0.0537 0.14552,-0.17272 0.32338,-0.26439 0.17786,-0.0917 0.34984,-0.19352 0.38217,-0.22633 0.0323,-0.0328 0.25266,-0.20407 0.48959,-0.38058 0.23694,-0.17651 0.50152,-0.38882 0.58797,-0.47179 0.49619,-0.47628 3.10348,-2.59178 3.80254,-3.08531 0.45273,-0.31963 0.8496,-0.6094 0.88194,-0.64394 0.0323,-0.0345 0.17786,-0.12895 0.32338,-0.20979 0.14552,-0.0808 0.38365,-0.21314 0.52917,-0.29399 0.14552,-0.0808 0.29104,-0.17345 0.32338,-0.20578 0.0633,-0.0633 0.44339,-0.28049 0.82315,-0.47037 0.12935,-0.0647 0.3403,-0.17051 0.46877,-0.23519 0.12847,-0.0647 0.33702,-0.11759 0.46343,-0.11759 0.12641,0 0.25864,-0.0466 0.29384,-0.10355 0.0352,-0.057 0.18384,-0.13265 0.33032,-0.16821 0.14648,-0.0356 0.47799,-0.12477 0.73669,-0.19825 0.43747,-0.12425 0.76964,-0.20871 1.82269,-0.46346 0.22636,-0.0548 0.95739,-0.211 1.6245,-0.3472 0.66711,-0.13619 1.80363,-0.38366 2.5256,-0.54993 3.06703,-0.70633 5.17243,-1.09101 7.49156,-1.36879 l 1.11713,-0.13381 4.05695,-0.002 4.05694,-0.002 1.35232,0.13992 c 2.72416,0.28187 5.33626,0.65854 6.62365,0.95517 l 0.56763,0.13078 0.96107,-0.12921 c 0.5286,-0.0711 1.18454,-0.15829 1.45766,-0.19385 l 0.49659,-0.0646 0.0797,-0.24965 c 0.0957,-0.29976 0.21736,-1.2541 0.42143,-3.30706 l 0.15196,-1.5287 v -3.175 -3.175 l -0.0907,-1.35232 c -0.36304,-5.41219 -0.91722,-8.19022 -2.14066,-10.73094 l -0.43914,-0.91197 0.0667,-0.17378 0.0667,-0.17379 0.17795,0.0683 0.17795,0.0683 0.17928,0.35938 c 0.0986,0.19765 0.17928,0.43061 0.17928,0.51769 v 0.15832 h 0.11759 0.1176 v 0.22825 0.22824 l 0.11759,0.0727 0.11759,0.0727 v 0.23238 0.23238 l 0.22602,-0.12096 c 0.1243,-0.0665 0.29628,-0.18997 0.38217,-0.27431 0.23691,-0.23265 1.16965,-0.83494 1.56727,-1.01203 0.19403,-0.0864 0.44467,-0.20386 0.55697,-0.26099 0.11231,-0.0571 0.28429,-0.10387 0.38218,-0.10387 h 0.17798 v -0.34584 -0.34584 l -0.1046,-0.0646 c -0.0575,-0.0356 -0.1347,-0.23712 -0.17149,-0.44792 -0.0368,-0.21079 -0.12435,-0.6743 -0.19458,-1.03002 -0.0702,-0.35572 -0.17538,-0.99072 -0.23365,-1.41111 -0.0583,-0.4204 -0.14163,-0.98442 -0.18523,-1.2534 l -0.0793,-0.48905 -1.30887,-0.0806 c -0.71988,-0.0443 -2.63179,-0.12313 -4.24869,-0.17514 l -2.93981,-0.0945 -1.6463,0.0483 -1.64629,0.0483 -1.07763,0.22241 -1.07762,0.22241 -0.68627,0.4663 c -0.37745,0.25647 -0.96242,0.71473 -1.29994,1.01837 l -0.61368,0.55207 -0.59052,0.78617 c -0.32478,0.43239 -0.59102,0.85231 -0.59165,0.93316 l -10e-4,0.14699 h -0.11759 -0.11759 v 0.22824 c 0,0.12554 -0.0471,0.25734 -0.1046,0.2929 -0.25289,0.15629 -0.3685,2.12614 -0.18858,3.21316 l 0.0828,0.50051 0.10517,0.065 c 0.0578,0.0358 0.10517,0.16842 0.10517,0.29484 0,0.12641 0.0469,0.32172 0.10412,0.43403 0.0573,0.1123 0.26011,0.52525 0.45077,0.91766 0.39148,0.80574 0.88559,1.72655 0.97381,1.81477 0.0323,0.0323 0.18722,0.29692 0.34417,0.58796 0.15696,0.29105 0.72581,1.26582 1.26412,2.16616 0.53831,0.90035 0.97875,1.68087 0.97875,1.73449 0,0.0536 0.0529,0.0975 0.11759,0.0975 0.0647,0 0.11759,0.0553 0.11759,0.1229 0,0.0676 0.26459,0.515 0.58797,0.99423 0.32338,0.47923 0.58796,0.92663 0.58796,0.99423 0,0.0676 0.044,0.1229 0.0977,0.1229 0.0537,0 0.17272,0.14552 0.2644,0.32338 0.0917,0.17786 0.19336,0.34984 0.22598,0.38218 0.0326,0.0323 0.21745,0.29172 0.41073,0.57641 l 0.35141,0.51762 0.37944,0.15854 c 0.20869,0.0872 0.50448,0.15854 0.65732,0.15854 h 0.27789 l 0.16142,0.30163 0.16143,0.30163 -0.17095,0.11147 -0.17096,0.11147 -0.23518,-0.0705 c -0.41965,-0.1258 -1.27184,-0.28587 -2.29306,-0.43071 l -0.99954,-0.14177 -1.41111,1e-5 c -3.22372,4e-5 -6.88079,0.80084 -11.23009,2.45911 -1.4414,0.54956 -1.44537,0.55124 -3.32199,1.40204 -1.47929,0.67066 -1.99522,0.9064 -2.58704,1.18212 -1.767,0.8232 -5.07195,1.98232 -6.55579,2.29927 -0.35571,0.076 -0.85465,0.19143 -1.10874,0.25655 l -0.46198,0.11841 -1.92434,0.007 -1.92434,0.007 -0.13604,-0.13604 -0.13604,-0.13603 h -0.64057 -0.64057 l -1.16258,1.14652 -1.16259,1.14653 -1.18234,0.72253 c -1.64747,1.00677 -2.13933,1.48007 -3.10707,2.98985 l -0.53359,0.83244 -0.52276,0.23125 -0.52277,0.23124 -0.13004,0.243 -0.13005,0.243 0.10753,0.10753 0.10754,0.10754 0.27413,-0.23776 c 0.33223,-0.28814 0.42575,-0.29616 0.52221,-0.0448 l 0.074,0.19296 -0.17959,0.27408 c -0.0988,0.15075 -0.41541,0.44757 -0.70364,0.65959 -0.28822,0.21203 -0.52611,0.42759 -0.52863,0.47903 l -0.005,0.0935 0.44097,-0.0762 0.44097,-0.0762 0.29398,-0.34177 0.29399,-0.34177 0.14699,10e-4 0.14699,0.001 v 0.31449 0.3145 l -0.59809,0.56745 -0.59809,0.56744 h -0.15186 c -0.0835,0 -0.21933,0.0813 -0.30179,0.18064 l -0.14992,0.18065 0.5177,-0.0773 0.5177,-0.0773 0.56922,-0.35765 0.56922,-0.35767 0.0961,0.15542 0.0961,0.15543 -0.0691,0.18705 c -0.10189,0.27559 -0.46616,0.57117 -1.2908,1.04741 -0.73846,0.42647 -0.83635,0.533 -0.61532,0.6696 l 0.11964,0.0739 0.6359,-0.0795 0.6359,-0.0794 0.2146,-0.19427 c 0.11803,-0.10685 0.49851,-0.4181 0.84552,-0.69167 l 0.63091,-0.4974 0.10404,0.0643 0.10404,0.0643 v 0.24396 0.24396 l -0.32338,0.27813 c -0.17786,0.15296 -0.36385,0.27818 -0.41331,0.27826 -0.0495,8e-5 -0.19478,0.17212 -0.32294,0.38232 l -0.23301,0.38218 -4.4e-4,0.53504 -4.4e-4,0.53505 0.14111,0.14111 c 0.23763,0.23763 0.39507,0.16621 1.17935,-0.53505 z m -6.88947,-3.19189 0.40136,-0.45788 0.37896,-0.0629 c 0.60257,-0.10001 1.07963,-0.22643 1.14332,-0.30299 0.0944,-0.11352 0.74582,-0.49086 0.97014,-0.562 l 0.20579,-0.0653 v -0.67581 -0.67581 l 0.29066,-0.29065 c 0.15986,-0.15987 0.49059,-0.3821 0.73495,-0.49385 l 0.4443,-0.20319 0.58796,-0.90134 0.58796,-0.90134 0.70556,-0.71857 0.70555,-0.71857 0.58797,-0.32901 c 0.32337,-0.18095 0.87227,-0.51184 1.21977,-0.73529 l 0.63181,-0.40629 -0.53864,-0.31259 -0.53864,-0.31258 -0.79873,-0.77651 -0.79872,-0.77652 -0.37634,-0.19362 -0.37634,-0.19363 h -0.37024 -0.37024 l -0.38764,0.18395 -0.38763,0.18394 -0.69018,0.7274 c -0.3796,0.40007 -0.81945,0.91261 -0.97745,1.13897 -0.15799,0.22637 -0.5541,0.66525 -0.88023,0.9753 l -0.59297,0.56373 -1.76389,1.19426 -1.76389,1.19427 -0.78116,0.82904 c -0.42964,0.45598 -0.89331,0.93488 -1.03037,1.06424 -0.13707,0.12935 -0.56607,0.53522 -0.95333,0.90193 l -0.70412,0.66675 v 0.20223 0.20223 l 0.20579,0.15622 c 0.37762,0.28665 0.74272,0.18118 1.57031,-0.45367 l 0.42156,-0.32338 h 0.25348 0.25349 v 0.29398 0.29398 l -0.14699,5.5e-4 c -0.0808,3e-4 -0.3161,0.15905 -0.52279,0.35277 -0.20669,0.19373 -0.42511,0.35224 -0.48537,0.35224 -0.0603,0 -0.17545,0.0794 -0.25596,0.17639 l -0.14639,0.17639 h 0.26083 0.26083 l 0.37093,-0.25411 c 0.20401,-0.13975 0.51215,-0.38366 0.68475,-0.54201 l 0.31382,-0.28791 0.12715,0.0786 0.12715,0.0786 v 0.20624 0.20624 l -0.35155,0.33681 c -0.64936,0.62213 -0.0794,0.44407 0.63564,-0.19858 l 0.35311,-0.31735 0.15177,0.12596 c 0.20487,0.17003 0.19101,0.39391 -0.0386,0.62353 -0.37118,0.37118 -0.0669,0.29988 0.47037,-0.11021 0.60504,-0.46183 0.75272,-0.50218 0.85572,-0.23378 l 0.07,0.18237 -0.27056,0.288 c -0.14881,0.1584 -0.22884,0.288 -0.17784,0.288 0.051,0 0.27333,-0.20605 0.49407,-0.45788 z m 100.23267,-2.71151 -0.0996,-0.34716 0.15847,-0.52656 c 0.27292,-0.90683 0.99554,-1.76556 2.16858,-2.57702 l 0.524,-0.36248 -0.32635,-0.0873 c -0.17949,-0.048 -0.918,-0.11864 -1.64113,-0.15696 l -1.31478,-0.0697 -0.41158,0.0964 -0.41157,0.0964 0.01,0.81786 c 0.0104,0.8916 0.11633,1.5942 0.30959,2.05258 0.29395,0.69717 0.39921,0.89363 0.61346,1.1449 l 0.22699,0.26621 h 0.14698 0.14697 z m -77.99736,-3.36925 -0.0711,-0.0711 -0.15434,0.0618 -0.15434,0.0618 0.22539,0.009 0.22538,0.009 z m 1.36898,-0.25716 0.0575,-0.093 -0.40333,0.0471 c -0.49421,0.0577 -0.52782,0.13895 -0.0575,0.13895 h 0.34584 z m 67.51334,-0.13348 c 3.15832,-0.19418 3.44619,-0.22358 5.96782,-0.60955 0.4689,-0.0718 1.24943,-0.21386 1.73449,-0.31576 1.5646,-0.32866 3.93925,-0.14777 6.52639,0.49717 l 0.70556,0.17589 0.70555,0.002 0.70556,0.002 0.41157,-0.14671 c 0.22637,-0.0807 0.5827,-0.24954 0.79185,-0.37524 l 0.38028,-0.22853 0.19551,-0.41202 0.19552,-0.41201 0.0557,-0.49439 0.0557,-0.49438 -0.14812,-0.62747 -0.14811,-0.62747 -0.21882,-0.31214 -0.21882,-0.31213 v -0.35735 -0.35736 l -0.26135,-0.18306 -0.26135,-0.18305 h -0.32087 c -0.17648,0 -0.62773,0.084 -1.00277,0.18657 -0.37504,0.10262 -0.84065,0.22996 -1.03467,0.28298 -0.19403,0.053 -0.96132,0.31245 -1.7051,0.57653 l -1.35231,0.48013 -0.47037,0.004 c -0.25871,0.002 -0.68204,0.0551 -0.94074,0.1174 l -0.47037,0.11335 -1.41111,-0.11252 c -0.77611,-0.0619 -2.15195,-0.16953 -3.05741,-0.23921 -3.03618,-0.23366 -6.23997,-0.70661 -7.9963,-1.18043 -1.53822,-0.41498 -2.42994,-0.57287 -3.93935,-0.6975 l -1.35231,-0.11167 -1.11713,0.0616 c -1.05215,0.058 -1.41408,0.11535 -2.70463,0.42827 -1.15572,0.28023 -3.00153,1.31045 -3.27994,1.83066 l -0.11716,0.21892 0.16984,0.32738 c 0.0934,0.18006 0.16985,0.39285 0.16985,0.47288 0,1.01287 4.17689,2.95167 6.49868,3.01653 0.27394,0.008 0.65683,0.0571 0.85086,0.10991 l 0.35277,0.096 2.58704,-0.0477 c 1.42287,-0.0262 3.43371,-0.0998 4.46852,-0.16341 z m -66.32223,-0.12628 0.23519,-0.10106 -0.23519,0.006 c -0.12935,0.003 -0.39393,0.046 -0.58796,0.0954 l -0.35278,0.0898 0.35278,0.006 c 0.19403,0.003 0.45861,-0.0398 0.58796,-0.0954 z m 1.94028,-0.34701 c 2.73441,-0.48192 4.76753,-0.7381 7.58472,-0.95568 l 1.76389,-0.13623 4.88009,0.0625 4.8801,0.0625 1.13442,0.18486 c 0.62394,0.10168 1.27888,0.23979 1.45543,0.30691 l 0.321,0.12205 1.09968,-0.31208 1.09968,-0.31207 -0.0541,-0.0875 c -0.0297,-0.0481 -0.33288,-0.12108 -0.67362,-0.1621 -0.34075,-0.041 -0.98995,-0.12709 -1.44268,-0.19125 -1.39761,-0.19808 -2.75106,-0.34505 -4.52733,-0.49163 l -1.70509,-0.1407 -2.23426,-0.001 -2.23426,-10e-4 -1.5875,0.14243 c -2.44675,0.21952 -4.25786,0.49176 -6.37939,0.9589 -1.02278,0.22521 -1.55375,0.3443 -2.02848,0.45498 -0.2587,0.0603 -1.02599,0.22736 -1.70509,0.37123 -1.87513,0.39723 -1.6477,0.47827 0.35278,0.1257 z m 75.96486,-4.52386 c 0.42037,-0.0919 1.57201,-0.43591 2.55919,-0.76436 l 1.79488,-0.59718 h 0.81315 0.81316 l 0.17639,0.17639 c 0.25498,0.25498 0.23711,0.26613 1.28815,-0.80397 0.5296,-0.53919 1.14812,-1.1055 1.37448,-1.25845 0.22637,-0.15295 0.43804,-0.30711 0.47037,-0.34256 0.10385,-0.11386 0.75761,-0.48839 0.97014,-0.5558 0.11319,-0.0359 0.20579,-0.112 0.20579,-0.16914 0,-0.0571 0.0513,-0.10387 0.11411,-0.10387 0.0628,0 0.4036,-0.13242 0.75742,-0.29426 0.35382,-0.16184 1.2682,-0.513 2.03196,-0.78035 1.73578,-0.60762 3.41683,-1.41706 4.44605,-2.14082 0.87322,-0.61407 2.05787,-1.81006 2.05787,-2.07758 0,-0.0639 0.04,-0.11625 0.0889,-0.11625 0.0489,0 0.15819,-0.17198 0.24289,-0.38218 0.0847,-0.2102 0.20345,-0.47406 0.26389,-0.58637 l 0.10989,-0.20419 -0.002,-0.79534 -0.002,-0.79535 -0.15282,-0.43878 c -0.084,-0.24132 -0.18909,-0.47504 -0.23342,-0.51936 l -0.0806,-0.0806 v -0.70701 -0.70701 l -0.11759,-0.39052 c -0.0647,-0.21479 -0.17542,-0.58896 -0.2461,-0.8315 -0.1878,-0.64445 -0.38673,-1.08773 -0.48816,-1.08773 -0.0489,0 -0.0889,-0.0665 -0.0889,-0.14788 v -0.14788 l -0.74508,-0.71738 -0.74508,-0.71738 -0.87181,-0.4217 c -1.022,-0.49434 -1.82693,-0.78349 -2.1878,-0.78588 l -0.25764,-0.002 -0.0727,-0.1176 -0.0727,-0.11759 h -1.33984 -1.33984 l -0.27012,0.10535 c -0.14856,0.0579 -0.50824,0.17304 -0.79928,0.25577 l -0.52917,0.15043 -0.24276,0.2146 -0.24276,0.21459 h -0.25007 -0.25006 l -0.0727,0.11759 c -0.04,0.0647 -0.15063,0.1176 -0.24592,0.1176 h -0.17324 l -0.78996,0.52761 c -0.43447,0.29018 -1.081,0.79277 -1.43671,1.11686 -0.72908,0.66426 -2.26417,1.76571 -2.46086,1.76571 -0.0711,0 -0.22126,0.0464 -0.33356,0.10316 -0.11231,0.0567 -0.39316,0.16257 -0.62412,0.23518 l -0.41992,0.13203 h -1.16762 -1.16762 l -0.77559,0.16228 c -0.42657,0.0892 -0.98218,0.26013 -1.23468,0.37973 l -0.45909,0.21745 -0.47037,0.47425 -0.47037,0.47425 -0.16071,0.35134 c -0.0884,0.19325 -0.20745,0.44324 -0.26458,0.55554 -0.0571,0.11231 -0.10388,0.26146 -0.10388,0.33146 v 0.12726 l 0.67616,-0.5826 c 0.69249,-0.59667 1.34516,-0.97442 1.96968,-1.14001 l 0.35278,-0.0935 1.99907,-0.0141 1.99907,-0.0141 0.64902,-0.32638 0.64901,-0.32638 1.30876,-1.21776 1.30876,-1.21777 0.39408,-0.17103 c 0.21674,-0.0941 0.54209,-0.23138 0.72299,-0.30514 l 0.32891,-0.13412 h 0.53939 0.53939 l 0.48401,-0.13932 c 0.26621,-0.0766 0.58069,-0.20351 0.69885,-0.28199 l 0.21483,-0.14267 -0.35261,-0.20829 -0.3526,-0.20829 -0.14048,-0.26248 -0.14047,-0.26247 0.0504,-0.15107 0.0504,-0.15107 1.22743,-0.0477 c 0.67509,-0.0262 1.88889,-0.0561 2.69734,-0.0663 l 1.46991,-0.0186 0.68856,0.22579 0.68856,0.22578 0.61658,0.56352 0.61657,0.56351 0.25297,0.80152 0.25296,0.80152 v 0.62384 0.62384 l -0.14699,-0.0483 -0.14699,-0.0483 -0.0306,-0.34371 c -0.0372,-0.41773 -0.23968,-1.15961 -0.44681,-1.63723 l -0.15298,-0.35278 -0.33155,-0.30196 c -0.69147,-0.62976 -1.26445,-0.844 -2.80217,-1.04775 l -0.94192,-0.12481 -0.63224,0.1199 c -0.34772,0.0659 -0.81021,0.1199 -1.02775,0.1199 h -0.39553 v 0.0985 0.0985 l 1.37907,0.15371 1.37907,0.1537 0.40891,0.22968 c 0.73268,0.41152 1.24255,1.09479 1.82142,2.44088 0.15046,0.34987 0.3793,0.51616 0.75777,0.55063 0.153,0.0139 0.30606,0.0532 0.34014,0.0873 l 0.062,0.0619 -0.15055,0.18141 c -0.0828,0.0998 -0.32882,0.26599 -0.54671,0.36939 l -0.39616,0.18799 -0.55778,0.6119 c -0.30677,0.33655 -0.63706,0.76691 -0.73398,0.95637 -0.0969,0.18945 -0.20512,0.37092 -0.24047,0.40326 -0.0353,0.0323 -0.26651,0.48213 -0.51368,0.99953 -0.24718,0.51741 -0.64167,1.33015 -0.87666,1.80609 l -0.42724,0.86535 -0.52917,0.5543 c -1.13195,1.18572 -2.37835,1.78586 -4.43197,2.13402 l -0.8454,0.14333 -0.8597,-0.0758 c -0.47283,-0.0417 -1.01844,-0.11021 -1.21247,-0.15222 l -0.35277,-0.0764 0.23518,0.26481 c 0.31016,0.34922 0.91264,0.64391 1.69119,0.82722 l 0.63286,0.149 0.77825,-0.0729 0.77826,-0.0729 0.88194,-0.24492 0.88194,-0.24491 0.82541,-0.43986 c 1.23087,-0.65593 2.53999,-1.88381 3.01119,-2.82433 0.0842,-0.16805 0.25443,-0.45561 0.37831,-0.63903 0.12388,-0.18343 0.33796,-0.55384 0.47573,-0.82315 0.13777,-0.26931 0.51457,-0.93706 0.83733,-1.4839 l 0.58685,-0.99424 0.77843,-0.79904 0.77843,-0.79905 h 0.19171 0.19171 v 0.1327 c 0,0.073 -0.34703,0.50055 -0.77117,0.95016 l -0.77116,0.81748 -0.50136,0.78432 c -0.27574,0.43138 -0.67386,1.09971 -0.88471,1.48518 -0.21085,0.38547 -0.47356,0.83527 -0.5838,0.99954 -0.11024,0.16427 -0.27363,0.4442 -0.36307,0.62206 -0.0894,0.17786 -0.2066,0.32338 -0.26034,0.32338 h -0.0977 v 0.17806 0.17806 l -0.97013,0.96846 -0.97014,0.96847 -0.62594,0.32848 c -0.85084,0.4465 -1.71579,0.78504 -2.49027,0.97468 l -0.64676,0.15837 -1.01138,0.004 -1.01139,0.004 -0.39973,-0.12921 c -0.21984,-0.0711 -0.58017,-0.20986 -0.80071,-0.30843 l -0.40099,-0.17921 -0.45156,-0.46068 -0.45155,-0.46067 v -0.36138 -0.36137 l 0.38217,0.0902 0.38218,0.0902 1.6463,9.5e-4 1.64629,9.5e-4 0.52917,-0.12081 c 0.80515,-0.18382 2.0112,-0.69414 2.09707,-0.88734 0.0216,-0.0485 0.0952,-0.0882 0.16371,-0.0882 0.16099,0 1.38459,-1.04372 1.38459,-1.18105 v -0.10454 l -0.38218,0.22397 -0.38217,0.22397 -0.88195,0.23121 -0.88194,0.2312 -2.64583,0.13959 -2.64584,0.13958 -0.58796,0.15467 c -0.90092,0.237 -1.28993,0.37853 -1.99907,0.72732 -0.56031,0.27558 -1.03585,0.54287 -1.11713,0.62791 -0.0323,0.0338 -0.20532,0.15477 -0.3844,0.26875 -0.17908,0.11398 -0.67493,0.53582 -1.1019,0.93742 l -0.7763,0.7302 -0.36025,0.52976 c -0.19813,0.29137 -0.39019,0.55622 -0.4268,0.58856 -0.11353,0.10029 -0.48922,0.75358 -0.55789,0.97014 -0.0359,0.11318 -0.11201,0.20579 -0.16914,0.20579 h -0.10388 v 0.17798 c 0,0.0979 -0.0467,0.26987 -0.10387,0.38218 -0.0571,0.1123 -0.16914,0.36294 -0.24891,0.55697 -0.0798,0.19402 -0.19177,0.44466 -0.2489,0.55696 -0.0571,0.11231 -0.10388,0.31075 -0.10388,0.44098 v 0.23678 h 1.32297 1.32296 z m -3.90411,-0.0915 0.14111,-0.14111 v -0.26352 -0.26352 l 0.11759,-0.0727 0.11759,-0.0727 v -0.22984 c 0,-0.12641 0.0474,-0.32172 0.10524,-0.43403 0.0579,-0.1123 0.28254,-0.57461 0.49925,-1.02734 0.21671,-0.45273 0.43394,-0.84079 0.48273,-0.86234 0.0488,-0.0216 0.0887,-0.0961 0.0887,-0.16571 0,-0.20908 0.94182,-1.39555 1.68711,-2.12535 l 0.69848,-0.68396 0.83568,-0.55364 c 0.79226,-0.52487 1.02735,-0.65189 1.71762,-0.92799 0.16169,-0.0647 0.42627,-0.17361 0.58796,-0.24207 0.3342,-0.14149 0.70136,-0.22484 1.6965,-0.38512 0.87126,-0.14032 0.87958,-0.15023 0.4594,-0.54735 -0.71285,-0.67371 -1.14083,-1.43954 -1.39373,-2.49395 l -0.15312,-0.63841 0.15916,-0.71391 c 0.0875,-0.39264 0.19426,-0.83094 0.23718,-0.97399 l 0.078,-0.26009 -0.68869,0.25217 -0.6887,0.25216 -1.94028,0.0264 -1.94028,0.0264 -0.56001,0.22128 -0.56002,0.22128 -0.61591,0.44646 -0.61591,0.44645 -0.34875,0.46402 -0.34874,0.46402 -0.18042,-0.0364 -0.18042,-0.0364 0.017,-0.29075 c 0.0791,-1.35058 0.49968,-2.31386 1.39407,-3.19323 l 0.35278,-0.34685 0.58057,-0.28622 c 0.31931,-0.15742 0.67338,-0.28622 0.78681,-0.28622 0.11343,0 0.23713,-0.05 0.27489,-0.11108 l 0.0686,-0.11108 -0.29586,-1.21184 -0.29587,-1.21183 -0.53474,-1.08657 -0.53474,-1.08657 -0.78921,-0.80795 -0.78921,-0.80794 -0.71025,-0.35836 -0.71025,-0.35837 -0.70239,-0.13819 -0.70239,-0.13818 -0.97275,0.18453 -0.97275,0.18452 -0.9072,0.37699 c -1.0055,0.41783 -3.48436,1.67436 -3.67063,1.86063 -0.0323,0.0323 -0.27046,0.16971 -0.52916,0.30527 -0.25871,0.13557 -0.66881,0.36046 -0.91135,0.49977 -0.24253,0.13931 -0.61295,0.35193 -0.82315,0.4725 -0.99543,0.57095 -1.43758,0.85185 -2.96921,1.88643 -0.90546,0.61162 -1.66393,1.15535 -1.68549,1.20829 -0.0216,0.0529 -0.10976,0.0963 -0.19599,0.0963 -0.0862,0 -0.17443,0.0416 -0.19599,0.0925 -0.0216,0.0509 -0.27732,0.27579 -0.56836,0.49976 -0.29104,0.22397 -0.55563,0.43379 -0.58796,0.46626 -0.0323,0.0325 -0.50859,0.4377 -1.05834,0.90049 -1.06512,0.89666 -1.87924,1.72573 -2.35009,2.39324 -0.15914,0.22561 -0.38339,0.51278 -0.49833,0.63816 -0.11494,0.12538 -0.20899,0.29735 -0.20899,0.38217 v 0.15422 h -0.11759 -0.11759 v 0.23518 0.23519 h -0.11759 -0.1176 v 0.22824 0.22825 l -0.11759,0.0727 -0.11759,0.0727 0.003,0.19885 0.003,0.19885 0.42442,0.47037 c 0.23343,0.2587 0.56294,0.65523 0.73223,0.88117 1.3599,1.81501 2.7255,2.91393 5.0703,4.08017 0.35571,0.17692 0.66439,0.36331 0.68595,0.41419 0.0216,0.0509 0.10686,0.0925 0.18955,0.0925 0.0827,0 0.56184,0.21167 1.06477,0.47037 0.50294,0.25871 0.9865,0.47037 1.07458,0.47037 h 0.16015 v 0.1176 0.11759 h 0.17798 c 0.0979,0 0.26987,0.0473 0.38218,0.10505 0.1123,0.0578 0.46877,0.16075 0.79215,0.22883 0.32338,0.0681 1.04317,0.23149 1.59954,0.36315 1.25187,0.29624 4.02487,0.77365 5.51481,0.94946 0.61442,0.0725 1.47128,0.18148 1.90414,0.2422 0.43285,0.0607 0.87589,0.11038 0.98453,0.11038 h 0.19754 l -0.14737,-0.17756 c -0.15497,-0.18673 -1.53239,-0.87494 -2.23328,-1.11583 -0.22637,-0.0778 -0.51741,-0.18255 -0.64676,-0.23278 -0.37306,-0.14487 -1.8754,-0.8734 -1.94028,-0.9409 -0.11049,-0.11495 -0.76399,-0.48713 -0.97014,-0.5525 -0.11318,-0.0359 -0.20578,-0.11201 -0.20578,-0.16914 0,-0.0571 -0.0661,-0.10495 -0.14699,-0.10625 -0.3182,-0.005 -2.83007,-1.95016 -4.02129,-3.11383 -0.26483,-0.25871 -0.82437,-0.76109 -1.24342,-1.1164 -0.41905,-0.35532 -0.78837,-0.67312 -0.82071,-0.70623 -0.2864,-0.29322 -2.16539,-1.55671 -2.49884,-1.6803 l -0.20579,-0.0763 v -0.29767 -0.29767 h 0.18223 c 0.10022,0 0.33886,0.081 0.5303,0.18 l 0.34808,0.17999 0.69796,-0.47398 c 0.38388,-0.26068 0.75379,-0.47397 0.82201,-0.47397 0.0682,0 0.12405,-0.0465 0.12405,-0.10333 0,-0.0568 0.15875,-0.16908 0.35278,-0.24945 0.19402,-0.0804 0.35277,-0.19262 0.35277,-0.24945 0,-0.0568 0.0518,-0.10333 0.11508,-0.10333 0.0633,0 0.81736,-0.46419 1.6757,-1.03153 3.31899,-2.19378 4.26537,-2.74452 5.38237,-3.13228 l 0.52917,-0.18369 0.67616,-0.002 0.67615,-0.002 v 0.29399 0.29398 h -0.52222 -0.52223 l -0.0727,0.11759 -0.0727,0.11759 h -0.28864 c -0.15875,0 -0.38052,0.0471 -0.49283,0.10473 -0.1123,0.0576 -0.46877,0.22932 -0.79215,0.3816 -0.32338,0.15228 -1.42182,0.81953 -2.44098,1.48278 -1.01916,0.66324 -1.90551,1.20589 -1.96968,1.20589 -0.0642,0 -0.11666,0.0529 -0.11666,0.1176 v 0.11759 h -0.17639 -0.17638 v 0.10897 0.10897 l -0.20579,0.0538 -0.20579,0.0538 0.25764,0.0136 0.25765,0.0136 0.0727,-0.1176 c 0.1138,-0.18412 0.34419,-0.13906 0.62459,0.12218 l 0.25736,0.23976 v 0.39096 0.39096 l -0.31002,0.31002 -0.31002,0.31001 -0.18975,0.0139 c -0.36312,0.0267 -0.54393,-0.0332 -0.7717,-0.25529 l -0.22917,-0.22351 0.0122,-0.42986 0.0122,-0.42986 0.15819,-0.10026 c 0.087,-0.0551 0.11674,-0.10106 0.0661,-0.10205 -0.0965,-0.002 -2.55372,1.62188 -2.55372,1.68755 0,0.0208 0.4342,0.40324 0.9649,0.84991 0.53069,0.44667 1.33138,1.16342 1.77931,1.59277 l 0.81441,0.78065 0.58967,0.0782 0.58966,0.0782 0.65903,-0.0734 c 0.73124,-0.0814 1.1106,-0.19526 1.89376,-0.56835 l 0.52917,-0.25208 0.60554,-0.59827 0.60555,-0.59827 0.26423,-0.57805 c 0.14533,-0.31792 0.29997,-0.71034 0.34365,-0.87203 l 0.0794,-0.29398 h 0.16793 0.16792 l -0.0374,0.47037 -0.0374,0.47037 -0.3554,0.72377 -0.3554,0.72378 -0.56859,0.56514 c -0.31272,0.31083 -0.65787,0.59646 -0.76699,0.63474 l -0.1984,0.0696 0.51046,0.16847 0.51046,0.16847 0.50235,0.48133 0.50235,0.48134 v 0.25534 0.25535 h -0.15589 -0.15589 l -0.28508,-0.30516 c -0.1568,-0.16783 -0.44383,-0.39155 -0.63786,-0.49714 l -0.35278,-0.19198 -1.05833,0.0132 -1.05833,0.0132 -0.44098,0.19156 c -0.54975,0.2388 -0.55334,0.21823 0.1176,0.67475 0.30721,0.20904 0.58502,0.41256 0.61736,0.45227 0.0323,0.0397 0.32042,0.22841 0.64017,0.41933 0.31976,0.19093 0.82247,0.49116 1.11713,0.66719 0.76901,0.45941 2.34547,1.21797 3.12279,1.50263 0.46571,0.17055 0.83308,0.32773 1.40808,0.60246 l 0.58493,0.27949 0.51938,0.49549 c 0.58387,0.55702 0.65843,0.5993 1.08006,0.61235 l 0.29986,0.009 z m -53.33527,-6.51152 0.0675,-0.0675 -0.81222,-1.22572 c -0.44671,-0.67415 -0.8122,-1.2788 -0.8122,-1.34366 0,-0.0649 -0.0529,-0.11793 -0.1176,-0.11793 h -0.11759 v -0.17639 c 0,-0.097 -0.0397,-0.1768 -0.0882,-0.17731 -0.0485,-5e-4 -0.14581,-0.11956 -0.21624,-0.26458 -0.0704,-0.14502 -0.42032,-0.73992 -0.77755,-1.322 -0.35723,-0.58208 -0.96107,-1.58377 -1.34186,-2.22597 -0.3808,-0.6422 -0.84022,-1.4095 -1.02094,-1.7051 -0.18072,-0.29559 -0.35887,-0.63005 -0.39589,-0.74324 -0.037,-0.11318 -0.11405,-0.20578 -0.17119,-0.20578 h -0.10387 v -0.23519 -0.23518 h -0.1176 -0.11759 v -0.17799 c 0,-0.0979 -0.0494,-0.26987 -0.10989,-0.38217 -0.0604,-0.11231 -0.1772,-0.37168 -0.25948,-0.57639 l -0.14958,-0.3722 -0.26304,0.30611 c -0.14467,0.16837 -0.41155,0.57398 -0.59307,0.90137 l -0.33003,0.59525 0.004,1.23472 0.004,1.23472 0.21332,0.70398 0.21332,0.70398 1.18629,2.41223 c 0.65246,1.32672 1.21896,2.43868 1.25888,2.47102 0.0399,0.0323 0.16435,0.25604 0.27651,0.49713 l 0.20392,0.43833 2.1418,0.0349 c 1.17799,0.0192 2.17267,0.0468 2.2104,0.0614 0.0377,0.0146 0.0989,-0.004 0.13605,-0.0409 z m 66.46494,-2.29985 1.29894,-0.13305 0.70555,-0.23737 c 0.56065,-0.18863 1.40977,-0.61978 1.68746,-0.85684 0.0226,-0.0193 -0.1468,-0.22309 -0.37653,-0.45281 l -0.41768,-0.41768 -0.0791,-0.42158 -0.0791,-0.42158 0.10723,-0.3739 0.10724,-0.37391 h 0.15163 0.15164 l 0.0204,0.79123 0.0203,0.79122 0.30582,0.30567 0.30582,0.30567 0.20364,-0.20364 0.20364,-0.20365 -0.0729,-0.42288 c -0.0401,-0.23258 -0.18357,-0.64481 -0.31878,-0.91607 l -0.24584,-0.49319 0.0721,-0.18804 0.0722,-0.18804 0.2188,0.1171 0.2188,0.1171 0.27051,0.85712 0.27051,0.85712 0.17596,-0.41058 c 0.0968,-0.22582 0.39238,-0.85635 0.65691,-1.40117 l 0.48096,-0.99059 0.57112,-0.6249 0.57112,-0.6249 -0.47605,-0.94124 -0.47606,-0.94125 -0.40202,-0.40203 c -0.22112,-0.22111 -0.58048,-0.49575 -0.79858,-0.61031 l -0.39655,-0.20828 -1.00906,-0.0508 -1.00905,-0.0508 -0.87243,0.45169 -0.87242,0.45169 -1.05833,0.0643 -1.05834,0.0643 -0.44605,0.21882 -0.44605,0.21882 -1.14347,1.08725 -1.14347,1.08725 -0.17437,0.74902 -0.17437,0.74903 0.002,1.00184 0.002,1.00183 0.32428,0.55333 c 0.57479,0.98081 1.12215,1.40015 2.19928,1.6849 0.70801,0.18716 0.68575,0.18681 2.17004,0.0348 z m -1.77414,-2.20918 c -0.20265,-0.12356 -0.44898,-0.33963 -0.5474,-0.48015 l -0.17895,-0.25548 -0.0784,0.24712 -0.0784,0.24711 -0.10912,-0.0674 -0.10913,-0.0674 v -0.32232 -0.32232 l -0.10241,-0.11171 c -0.0563,-0.0614 -0.13777,-0.26146 -0.18098,-0.44448 l -0.0786,-0.33276 0.23177,0.0736 0.23177,0.0736 0.0796,-0.53076 0.0796,-0.53076 0.16965,-0.14079 0.16965,-0.1408 0.61501,0.60738 0.61502,0.60738 h 0.20209 0.20209 v -0.18412 c 0,-0.10127 -0.0522,-0.28156 -0.11589,-0.40066 l -0.11588,-0.21653 0.21299,-0.26304 0.21299,-0.26303 0.42071,0.0789 0.42071,0.0789 0.0665,0.17319 0.0665,0.17319 h -0.41202 -0.41202 l 0.12587,0.23518 0.12587,0.23519 -0.12443,0.2325 -0.12444,0.2325 0.23789,0.14857 0.23789,0.14856 v 0.32449 0.32449 h 0.16785 0.16786 l 0.23117,-0.29389 0.23117,-0.29389 0.0583,0.15183 0.0583,0.15182 -0.13391,0.18165 c -0.0736,0.0999 -0.25298,0.24508 -0.3985,0.3226 l -0.26458,0.14093 -0.23249,-0.12442 c -0.12787,-0.0684 -0.28848,-0.22905 -0.35692,-0.35692 l -0.12442,-0.23249 h -0.28984 -0.28985 v 0.27962 c 0,0.23976 -0.30284,1.13233 -0.38375,1.13105 -0.0153,-2.4e-4 -0.19363,-0.10154 -0.39627,-0.22511 z m -0.15532,-0.99955 -0.24058,-0.42835 v -0.41493 -0.41494 l -0.13209,0.0816 -0.13209,0.0816 0.0699,0.59028 0.0699,0.59028 0.26563,0.28276 0.26564,0.28276 0.0371,-0.1114 c 0.0204,-0.0613 -0.0711,-0.30414 -0.20346,-0.53973 z m 0.59346,-0.16565 c -0.0707,-0.13205 -0.12849,-0.34291 -0.12849,-0.4686 v -0.22852 l -0.19593,-0.16139 -0.19593,-0.16138 0.068,0.41157 c 0.0374,0.22637 0.12754,0.56571 0.2003,0.7541 l 0.13228,0.34253 0.12412,-0.12412 0.12411,-0.12411 z m 0.75346,-0.37314 0.0727,-0.11759 h -0.30786 -0.30786 l 0.0727,0.11759 c 0.04,0.0647 0.1458,0.1176 0.23518,0.1176 0.0894,0 0.19521,-0.0529 0.23519,-0.1176 z m 2.5544,-2.29972 -0.26135,-0.18306 v -0.16972 -0.16972 h -0.10913 -0.10913 l -0.0821,-0.65711 -0.0821,-0.65712 0.17633,-0.17633 0.17634,-0.17634 0.0803,0.56887 c 0.0442,0.31288 0.16069,0.74404 0.25897,0.95814 l 0.17869,0.38928 0.16751,0.0643 0.1675,0.0643 v 0.16381 0.16381 h -0.15022 c -0.0826,0 -0.26784,-0.0824 -0.41158,-0.18306 z m 1.17263,-0.0763 -0.14046,-0.14046 -6.6e-4,-0.29986 c -3.6e-4,-0.16492 -0.054,-0.49194 -0.11922,-0.72671 l -0.11856,-0.42685 -0.35441,-0.44596 -0.3544,-0.44596 0.11807,-0.11807 0.11807,-0.11807 0.25575,0.22653 c 0.14067,0.12459 0.40651,0.46178 0.59075,0.74932 l 0.33498,0.52279 -0.002,0.53554 -0.002,0.53554 -0.0929,0.14634 -0.0929,0.14633 z m -18.24972,-10.73555 c 0,-0.0323 -0.0265,-0.0588 -0.0588,-0.0588 -0.0323,0 -0.0588,0.0265 -0.0588,0.0588 0,0.0323 0.0265,0.0588 0.0588,0.0588 0.0323,0 0.0588,-0.0265 0.0588,-0.0588 z m 2.49884,-0.36079 c 0.38103,-0.0666 0.62966,-0.15441 1.22607,-0.43296 l 0.31472,-0.14699 -0.31173,-0.0369 -0.31172,-0.0369 -0.20515,0.11481 -0.20515,0.11481 -0.31957,-0.16525 -0.31956,-0.16525 -0.17867,0.0686 -0.17868,0.0686 -0.14996,0.3388 -0.14997,0.33879 -0.17858,0.0573 c -0.18295,0.0587 0.28668,0.002 0.96795,-0.11733 z m -1.91088,-0.21446 v -0.16367 l -0.38217,-0.47702 c -0.2102,-0.26236 -0.42543,-0.47974 -0.4783,-0.48308 l -0.0961,-0.006 0.0831,0.26182 c 0.0457,0.144 0.19479,0.43438 0.33131,0.6453 l 0.2482,0.38349 0.14699,10e-4 0.14699,0.001 z m 0.42366,-0.63899 -0.19161,-0.19161 0.14856,0.31691 0.14856,0.3169 0.043,-0.1253 0.043,-0.12529 z m 3.78038,-0.16747 0.46509,-0.26459 -0.11976,-0.26789 -0.11975,-0.2679 -0.12184,0.0406 c -0.067,0.0223 -0.223,0.22227 -0.34662,0.44429 -0.12362,0.22202 -0.28494,0.44255 -0.35847,0.49007 l -0.13371,0.0864 0.13499,0.002 c 0.0743,9.9e-4 0.34428,-0.11726 0.60007,-0.26278 z m -2.91052,-0.0294 c 0,-0.0323 -0.0265,-0.0588 -0.0588,-0.0588 -0.0323,0 -0.0588,0.0265 -0.0588,0.0588 0,0.0323 0.0265,0.0588 0.0588,0.0588 0.0323,0 0.0588,-0.0265 0.0588,-0.0588 z m 4.80473,-0.71568 c 0.0232,-0.0193 -0.0809,-0.21016 -0.23132,-0.42408 -0.51437,-0.73139 -0.67001,-0.81745 -0.92426,-0.51109 l -0.14261,0.17184 0.13482,0.40853 0.13483,0.40853 0.14038,0.0524 c 0.13233,0.0494 0.79671,-0.03 0.88816,-0.10609 z m -8.21491,-9.27969 c 0,-0.0323 -0.0265,-0.0588 -0.0588,-0.0588 -0.0323,0 -0.0588,0.0265 -0.0588,0.0588 0,0.0323 0.0265,0.0588 0.0588,0.0588 0.0323,0 0.0588,-0.0265 0.0588,-0.0588 z m 1.59938,-0.93526 -0.0752,-0.29946 h -0.19237 -0.19238 l 0.19462,0.21504 c 0.10703,0.11828 0.19461,0.28585 0.19461,0.37238 v 0.15733 l 0.0729,-0.0729 0.0729,-0.0729 z m 11.59391,0.93526 0.004,-0.35278 0.0542,0.20803 c 0.0298,0.11441 0.0279,0.27316 -0.004,0.35277 l -0.0586,0.14476 z m -10.46708,-2.4939 0.0372,-0.31843 0.41158,-0.19789 c 0.22636,-0.10884 0.62608,-0.26163 0.88826,-0.33953 l 0.47668,-0.14164 0.28767,0.0406 0.28766,0.0406 v 0.35278 0.35278 l -0.58796,0.0365 -0.58796,0.0365 -0.11171,0.11053 c -0.0615,0.0608 -0.2303,0.11054 -0.37524,0.11054 h -0.26352 l -0.0727,0.11759 c -0.04,0.0647 -0.15244,0.1176 -0.24994,0.1176 h -0.17726 z"
       id="path41-3" /></g></svg>
