<?xml version="1.0" encoding="UTF-8" standalone="no"?>
<!-- Created with Inkscape (http://www.inkscape.org/) -->

<svg
   width="135.70959mm"
   height="90.661346mm"
   viewBox="0 0 135.70961 90.661346"
   version="1.1"
   id="svg1"
   xml:space="preserve"
   xmlns="http://www.w3.org/2000/svg"
   xmlns:svg="http://www.w3.org/2000/svg"><defs
     id="defs1" /><g
     id="layer1"
     transform="translate(51.126903,-1380.9578)"><path
       style="fill:#4d4d4d"
       d="m -19.967608,1471.3749 c -0.135737,-0.1357 -5.758132,-0.2886 -12.494212,-0.3398 -17.863334,-0.1357 -17.073003,-5e-4 -18.265387,-3.1228 -0.524672,-1.3738 -0.528031,-1.7813 -0.03818,-4.6329 1.108476,-6.4531 3.492854,-11.0404 8.243026,-15.8589 1.707635,-1.7322 3.422292,-3.337 3.810347,-3.5663 3.624387,-2.1413 6.155938,-3.1627 10.406944,-4.1988 2.575565,-0.6278 3.315163,-1.0354 2.950251,-1.6258 -0.288369,-0.4666 0.595275,-2.8272 1.52357,-4.0701 0.472296,-0.6324 1.524211,-1.5056 2.337588,-1.9403 1.309825,-0.7002 1.962765,-0.7865 5.712201,-0.7556 2.962779,0.024 4.709792,0.2082 5.8208335,0.6122 2.0799257,0.7564 2.1153695,0.75 2.1244143,-0.3825 0.011478,-1.4373 1.2701706,-3.9686 2.7087634,-5.4474 1.2174594,-1.2515 1.2485656,-1.3462 0.7986964,-2.4323 -0.626845,-1.5133 -0.6355358,-7.0093 -0.021297,-13.4679 0.2724148,-2.8643 0.4050737,-5.2981 0.2947974,-5.4084 -0.1102762,-0.1103 -0.5460016,-0.016 -0.9682786,0.2104 -1.7780546,0.9516 -4.319862,-1.714 -3.0122291,-3.1589 0.8209554,-0.9072 1.6029106,-3.0587 1.6029106,-4.4104 0,-0.6826 -0.33673,-3.3468 -0.748289,-5.9204 -0.6248934,-3.9077 -0.6847468,-5.0238 -0.3629597,-6.7682 0.2119312,-1.1488 0.5460619,-2.2495 0.7425127,-2.446 0.4248394,-0.4248 6.95627765,-0.6989 7.54487615,-0.3166 0.22472,0.1459 0.92041655,0.2654 1.54599255,0.2654 1.605478,0 1.529116,0.5204 -0.277351,1.8901 -2.38303765,1.807 -2.66160125,2.5532 -1.70527455,4.5681 0.90086355,1.898 5.27973455,8.1305 5.73415355,8.1614 0.166555,0.011 0.1994,-0.3914 0.07299,-0.8951 -0.511653,-2.0386 1.667002,-6.6164 3.573424,-7.5085 0.6544744,-0.3062 0.7456224,-0.5695 0.5892344,-1.7017 -0.101754,-0.7366 -0.3467584,-1.6757 -0.5444544,-2.0867 -0.418344,-0.8699 -0.281285,-1.9605 0.2694064,-2.1438 0.210579,-0.07 0.654912,0.4758 0.987408,1.2131 0.570464,1.2651 0.682164,1.3332 1.981875,1.2093 3.07327,-0.2931 7.077711,2.62 8.046519,5.8536 0.570985,1.9058 0.528264,5.4897 -0.08287,6.9524 l -0.502257,1.2021 4.294618,3.8595 c 2.362039,2.1228 5.201012,4.8126 6.308827,5.9774 2.221419,2.3357 5.57039,7.317 5.570464,8.2856 6.7e-5,0.866 0.541022,0.7694 1.756448,-0.3135 2.298997,-2.0484 7.432661,-4.6974 11.017799,-5.6851 3.294594,-0.9078 8.263371,-0.7565 13.684133,0.4166 7.161405,1.5498 12.324121,4.0789 16.2556,7.9632 2.04062,2.0162 2.452394,2.6582 3.409998,5.3166 1.40573,3.9024 1.85411,6.4093 1.852719,10.3586 -0.0021,5.9215 -1.567881,12.4961 -4.248416,17.8387 -2.030895,4.0478 -3.297263,5.5854 -5.388115,6.5423 -5.416627,2.4789 -18.817561,4.7614 -44.392817,7.5613 -3.620026,0.3963 -8.144401,0.956 -10.054166,1.2439 -6.613469,0.9968 -7.700053,0.6996 -6.648011,-1.8183 0.469134,-1.1228 5.699918,-6.6667 7.947294,-8.4231 2.939826,-2.2975 7.283263,-6.1482 8.77041,-7.7754 3.285997,-3.5954 4.025608,-6.6451 2.318134,-9.5587 -0.493248,-0.8417 -1.115455,-1.5303 -1.382681,-1.5303 -0.575806,0 -4.423281,3.4394 -4.423281,3.9542 0,0.1972 0.369589,0.2628 0.829572,0.1474 1.048375,-0.2631 1.360786,0.04 0.909493,0.8837 -0.219892,0.4108 -0.737806,0.6591 -1.374926,0.6591 -0.66224,0 -1.092441,0.2174 -1.221779,0.6174 -0.236081,0.7301 -2.300961,2.2048 -3.087092,2.2048 -0.655586,0 -4.238402,5.5644 -4.883745,7.5848 -0.247898,0.7761 -0.689489,1.7781 -0.981312,2.2267 -0.550433,0.8462 -2.83392,2.1359 -5.052414,2.8537 -2.2555014,0.7297 -2.8898024,1.9589 -2.7980304,5.422 0.06288,2.3729 -0.527664,4.2892 -1.475093,4.7865 -0.47869,0.2512 -2.786833,0.4516 -5.783416,0.5021 -4.4810326,0.075 -5.0625934,0.016 -5.7341267,-0.5894 -1.4670941,-1.3219 -1.5802473,-2.9656 -0.5686119,-8.2595 1.3693497,-7.1659 1.3814077,-7.411 0.4544969,-9.2352 -0.4436444,-0.8731 -0.8936498,-1.6669 -1.0000118,-1.7639 -0.502283,-0.4581 -1.7468922,-2.4448 -1.7468922,-2.7885 0,-0.7006 1.2729242,-0.4027 2.1166666,0.4955 0.4556991,0.485 1.0866214,0.8819 1.4020496,0.8819 0.3154283,0 0.7243184,0.1432 0.9086448,0.3183 0.7614563,0.7231 6.0498147,2.2265 9.8601387,2.803 4.7474744,0.7184 8.6189554,0.8655 9.2420004,0.351 0.729254,-0.6021 3.526381,-4.9434 3.48735,-5.4126 -0.01614,-0.194 -0.34685,-0.3653 -0.734906,-0.3806 -1.59733,-0.063 -1.940278,-0.1703 -1.940278,-0.6068 0,-0.2521 -0.595312,-0.6711 -1.322916,-0.9312 -0.727604,-0.2601 -3.797106,-1.6935 -6.8211154,-3.1853 -3.096987,-1.5279 -6.429878,-2.9102 -7.631519,-3.1652 -2.61842475,-0.5557 -11.2546344,-0.3025 -13.3255546,0.3906 -3.645652,1.2202 -3.481193,6.1508 0.533418,15.9924 2.729303,6.6908 3.1867095,8.1517 3.3687842,10.7597 0.2043177,2.9267 -0.2289086,3.859 -2.1288318,4.5814 -1.0528804,0.4003 -10.1634814,0.4959 -10.5486874,0.1107 z m -18.074581,-2.7432 c 2.378056,-4.2661 4.381668,-6.6602 7.973227,-9.5272 4.246235,-3.3897 9.634351,-5.3001 14.285579,-5.0653 1.456265,0.074 2.647754,0.024 2.647754,-0.1091 0,-0.1336 -0.23183,-0.6923 -0.515177,-1.2416 -0.283347,-0.5493 -0.601689,-1.4266 -0.707428,-1.9495 -0.185219,-0.9161 -0.262466,-0.9455 -2.111994,-0.8035 -5.544858,0.4255 -8.647581,1.2434 -13.422345,3.5385 -5.010102,2.4081 -7.342697,4.7759 -10.135776,10.2885 -1.786465,3.5259 -2.148885,4.9315 -1.388873,5.3867 0.954571,0.5718 2.937311,0.2678 3.375033,-0.5175 z m 29.0017675,-3.6393 c -0.3429786,-1.2872 -0.8582103,-2.7431 -1.1449595,-3.2354 l -0.521362,-0.895 0.222862,0.882 c 0.455807,1.8037 0.8387017,3.7545 1.0732782,5.468 0.2191803,1.6011 0.2761966,1.6881 0.6176252,0.9423 0.2849675,-0.6225 0.2249829,-1.389 -0.2474439,-3.1619 z m 58.2473335,-1.6564 c 10.220555,-1.2106 21.575438,-3.4547 25.535005,-5.0464 1.992413,-0.8009 4.865729,-5.6766 6.384224,-10.8331 1.620077,-5.5016 1.827995,-6.8911 1.821212,-12.1709 -0.0076,-5.9072 -0.653899,-8.8982 -2.638224,-12.2094 -1.376587,-2.297 -4.432455,-4.779 -6.485039,-5.2672 -3.922495,-0.9329 -7.180267,-0.8335 -11.130066,0.3394 -5.444592,1.6169 -11.814335,6.4597 -16.740627,12.7275 -2.713311,3.4522 -7.578271,10.09 -8.015278,10.9361 -0.200427,0.3881 -0.621361,0.9995 -0.935408,1.3588 -0.543761,0.6221 -0.60857,0.5716 -1.358836,-1.0583 l -0.787843,-1.7116 0.215553,2.2096 c 0.269204,2.7596 -0.430617,4.8276 -2.475558,7.3154 -1.325231,1.6122 -2.261023,2.5299 -5.867769,5.7546 -0.679097,0.6071 -1.053748,1.1085 -0.832558,1.1142 0.551921,0.014 4.19179,-2.7003 6.16914,-4.6007 0.894145,-0.8594 2.162637,-2.0441 2.818873,-2.6326 1.061166,-0.9516 1.726418,-1.7012 4.529443,-5.1036 1.034046,-1.2551 4.240896,-5.4929 5.443437,-7.1934 2.707124,-3.8281 8.769546,-10.3181 11.948342,-12.791 1.116964,-0.8689 3.180714,-2.0042 4.586111,-2.5228 2.162514,-0.7979 3.124609,-0.9436 6.259433,-0.9477 3.390805,0 3.868309,0.08 5.644444,1.0025 1.067153,0.554 2.375583,1.4159 2.907622,1.9154 1.205616,1.1318 3.046251,4.621 3.668965,6.9551 0.629482,2.3594 0.604173,8.8946 -0.04713,12.1708 -1.053899,5.3014 -2.82078,10.9316 -3.431574,10.9348 -0.139432,8e-4 -0.163681,0.2354 -0.05389,0.5216 0.245746,0.6404 -1.097026,2.8847 -2.022131,3.3798 -0.373433,0.1999 -1.214189,0.263 -1.868347,0.1403 -0.715165,-0.1342 -1.284114,-0.07 -1.426987,0.1613 -0.130685,0.2115 -0.574156,0.3845 -0.985492,0.3845 -0.411336,0 -1.235405,0.1473 -1.831264,0.3274 -1.423704,0.4304 -5.065813,1.1801 -12.195879,2.5104 -9.322735,1.7394 -9.640338,1.8002 -10.936111,2.0933 -1.963507,0.4443 -0.51636,0.3868 4.13421,-0.1641 z m -38.000875,-4.0893 c 3.687242,-1.5814 4.951589,-2.4416 3.5885,-2.4416 -2.045923,0 -11.4201392,-2.5096 -15.78254265,-4.2252 -0.69836905,-0.2746 -0.72876455,-0.1729 -0.72876455,2.4406 v 2.7271 l 2.31626455,0.7467 c 1.27394545,0.4108 3.11139645,0.9197 4.08322545,1.131 0.971828,0.2114 2.003703,0.534 2.293055,0.7169 0.715017,0.4521 0.479375,0.5131 4.2302622,-1.0955 z m -21.872222,0.7542 c 0,-0.1826 -0.15875,-0.4301 -0.352778,-0.55 -0.194028,-0.1199 -0.352778,0.03 -0.352778,0.332 0,0.3025 0.15875,0.5499 0.352778,0.5499 0.194028,0 0.352778,-0.1493 0.352778,-0.3319 z m 34.597137,-14.1497 c 0.649591,-0.4625 1.156022,-1.2574 1.404808,-2.2048 0.292807,-1.1152 0.917081,-1.9615 2.523922,-3.4219 9.756001,-8.8666 11.26836,-12.0881 8.943306,-19.05 -2.438907,-7.3028 -4.981576,-10.6524 -13.364135,-17.6052 -1.712159,-1.4201 -3.197581,-2.8024 -3.300937,-3.0717 -0.282726,-0.7368 -0.817991,-0.5883 -0.817991,0.2269 0,0.7139 -0.889281,1.3339 -1.309934,0.9132 -0.3028,-0.3028 -0.514436,-2.99 -0.510385,-6.4805 0.0019,-1.6008 -0.07194,-2.9105 -0.164004,-2.9105 -0.09206,0 -0.64041,0.2446 -1.218556,0.5436 -1.213336,0.6275 -1.544659,0.497 -2.262362,-0.8909 -0.286734,-0.5545 -1.012821,-1.3581 -1.613526,-1.7859 -0.969131,-0.69 -1.191641,-0.7244 -1.974833,-0.3053 -1.5323472,0.8201 -2.7038782,3.2822 -2.6817082,5.6359 0.02166,2.2998 0.91244,4.5258 2.036859,5.0901 2.0460052,1.0268 4.1553922,3.7638 4.5855552,5.9499 0.255603,1.299 0.898087,3.0487 1.119436,3.0487 0.08485,0 0.771092,-0.4956 1.524979,-1.1015 2.447043,-1.9665 4.130999,-0.7307 3.770043,2.7666 -0.443809,4.3001 -3.218762,9.2239 -6.265963,11.1181 -1.672944,1.04 -1.738494,1.1417 -1.741444,2.7036 -0.0017,0.8926 -0.09952,2.4256 -0.217411,3.4065 l -0.214344,1.7836 2.371213,0.4369 c 1.304168,0.2403 4.283628,1.0649 6.621023,1.8324 2.337395,0.7675 4.300982,1.3955 4.363526,1.3955 0.324651,0 1.191793,-2.2136 1.202312,-3.0693 0.0067,-0.5432 0.482346,-2.1783 1.057037,-3.6335 0.574692,-1.4552 1.044511,-2.8045 1.044041,-2.9986 -0.0011,-0.4404 -2.663157,-4.324 -3.965304,-5.7847 -1.148079,-1.2879 -1.225681,-1.8 -0.272786,-1.8 0.888289,0 3.174849,2.8517 6.835109,8.5244 0.61276,0.9496 0.618232,1.1001 0.08819,2.4248 -0.310805,0.7768 -0.5651,1.6522 -0.5651,1.9454 0,0.8491 -2.793884,4.7826 -5.310103,7.4761 -2.650957,2.8377 -4.407335,3.863 -7.17462,4.1883 -1.681412,0.1976 -1.904568,0.309 -1.601637,0.7999 0.193585,0.3136 0.652482,1.0465 1.019771,1.6286 0.36729,0.5821 0.679402,1.3192 0.693583,1.638 0.02703,0.6076 0.941732,1.1375 1.43615,0.8319 0.158599,-0.098 0.660211,-0.029 1.114692,0.1529 1.243395,0.4982 1.680228,0.4438 2.791524,-0.3475 z m -8.133158,-3.0855 c -1.647486,-1.9987 -1.46292,-2.3719 1.407533,-2.8459 3.481966,-0.5751 5.034625,-1.2888 6.341692,-2.9153 0.624471,-0.7771 1.062361,-1.4859 0.973089,-1.5752 -0.258163,-0.2581 -4.09218,-1.5728 -6.787683,-2.3274 -3.855105,-1.0793 -5.5007,-1.3756 -7.452511,-1.3423 -1.3186782,0.023 -1.8641682,-0.1153 -2.0153352,-0.5092 -0.230271,-0.6001 0.71894,-1.2564 1.8170122,-1.2564 0.60088,0 0.728284,-0.3824 1.028613,-3.0868 0.188533,-1.6978 0.292899,-3.1473 0.231925,-3.2212 -0.06098,-0.074 -0.640466,0.1169 -1.287758,0.4241 -4.6602292,2.2114 -10.48688875,3.3018 -12.341119,2.3094 -0.6529364,-0.3494 -0.9091389,-0.225 -2.0460223,0.9938 -1.6431453,1.7615 -2.3998,5.1693 -1.6908526,7.6151 l 0.4324508,1.4919 0.236591,-2.1166 c 0.2841984,-2.5426 1.2370688,-5.008 2.1177421,-5.4793 1.032241,-0.5525 1.1385105,0.1812 0.2938391,2.0285 -0.9086887,1.9874 -1.1795743,4.4779 -0.6325768,5.816 0.3281499,0.8027 0.5469344,0.9227 1.3790543,0.7563 2.41804675,-0.4836 5.7968842,0.5594 12.2112394,3.7696 3.438864,1.721 6.386259,3.0464 6.549768,2.9454 0.163508,-0.1011 -0.181503,-0.7646 -0.766691,-1.4745 z m -28.580646,-3.9608 c 0,-0.3748 3.1832886,-1.0498 4.9505457,-1.0498 h 1.3880395 l -0.5662637,-1.3229 c -0.3114451,-0.7277 -0.6828914,-1.5611 -0.8254364,-1.8521 -0.642585,-1.312 -9.6054341,-2.2966 -12.3907691,-1.3612 -2.021582,0.6789 -3.129023,2.0073 -3.634776,4.3598 l -0.227526,1.0583 4.330177,0.039 c 2.381596,0.022 4.727051,0.1991 5.212121,0.3946 0.908739,0.3662 1.763888,0.2373 1.763888,-0.2659 z m 42.992261,-11.6706 c 0.180039,-0.5057 0.209653,-1.1099 0.06581,-1.3426 -0.25123,-0.4065 -1.792839,2.7475 -1.775226,3.6319 0.01115,0.5601 1.318107,-1.1903 1.709416,-2.2893 z m -25.3533722,-2.717 c 1.92921,-0.5522 4.726308,-1.5531 5.115278,-1.8304 0.1940272,-0.1383 1.1267582,-0.473 2.0727352,-0.7437 1.308675,-0.3746 2.131161,-0.942 3.439583,-2.3728 0.945794,-1.0343 1.719626,-2.076 1.719626,-2.315 0,-0.239 0.304475,-1.0647 0.676612,-1.8349 0.793264,-1.6419 1.388782,-6.4932 0.797063,-6.4932 -0.583478,0 -2.890157,2.509 -3.403857,3.7024 -0.250976,0.583 -0.792482,1.4106 -1.203347,1.8391 -0.410865,0.4284 -0.747027,1.0957 -0.747027,1.4827 0,1.5173 -0.795359,2.4447 -2.910764,3.3941 -1.7244522,0.7739 -2.4814872,0.9204 -4.0739462,0.7883 -1.621549,-0.1345 -2.092156,-0.3331 -2.752885,-1.1617 -1.127147,-1.4136 -1.372618,-3.8031 -0.669448,-6.5168 0.68958,-2.6611 1.596261,-4.6575 2.20496,-4.855 0.664504,-0.2155 0.536965,1.0641 -0.315539,3.1659 -1.023299,2.5229 -1.104516,6.2508 -0.158951,7.2959 0.913727,1.01 2.859834,0.9662 5.315126,-0.1197 1.5992442,-0.7072 1.9503362,-1.018 1.9503362,-1.7261 0,-0.475 -0.238125,-0.955 -0.529166,-1.0667 -0.291042,-0.1117 -0.529167,-0.466 -0.529167,-0.7874 0,-0.4578 0.223477,-0.5396 1.03182,-0.378 0.896221,0.1793 1.124636,0.049 1.738096,-0.9906 0.605862,-1.0269 0.651113,-1.3885 0.318275,-2.5436 -0.213401,-0.7405 -0.806418,-1.8227 -1.317815,-2.4048 -1.208032,-1.375 -3.6542772,-4.7182 -4.1946252,-5.7326 -0.232539,-0.4366 -0.695024,-0.7945 -1.027746,-0.7955 -0.332722,0 -1.398699,-0.6338 -2.368838,-1.4063 -3.479239,-2.7703 -4.52043675,-3.5308 -4.83396515,-3.5308 -0.1751102,0 -0.8168644,1.0652 -1.42612035,2.3672 -1.0364253,2.2147 -1.1232001,2.7119 -1.3479133,7.7225 -0.1320962,2.9454 -0.3385964,5.5146 -0.4588893,5.7092 -0.3947863,0.6388 -0.2831916,9.4039 0.1411849,11.0893 0.3737224,1.4842 0.5249285,1.6583 1.5244544,1.7554 1.36330005,0.1324 4.5627448,-0.2307 6.2248598,-0.7064 z m -4.23333345,-4.3011 c 0,-0.194 0.15875,-0.3528 0.3527778,-0.3528 0.19402765,0 0.35277765,0.1588 0.35277765,0.3528 0,0.194 -0.15875,0.3528 -0.35277765,0.3528 -0.1940278,0 -0.3527778,-0.1588 -0.3527778,-0.3528 z m 1.39848345,-1.1163 c -0.403973,-0.7877 -0.39451,-0.7972 0.215003,-0.215 0.350664,0.3349 0.540821,0.7057 0.422569,0.8239 -0.118251,0.1183 -0.405159,-0.1558 -0.637572,-0.6089 z m 0.718183,-10.899 c 0,-0.2055 0.15875,-0.2755 0.352778,-0.1556 0.194028,0.12 0.352778,0.2881 0.352778,0.3736 0,0.086 -0.15875,0.1556 -0.352778,0.1556 -0.194028,0 -0.352778,-0.1681 -0.352778,-0.3736 z m 6.35,-2.8014 c 0,-0.194 0.15875,-0.3528 0.352778,-0.3528 0.194028,0 0.352778,0.1588 0.352778,0.3528 0,0.194 -0.15875,0.3528 -0.352778,0.3528 -0.194028,0 -0.352778,-0.1588 -0.352778,-0.3528 z m 2.8298192,-1.0477 c -1.090524,-1.5315 -1.616819,-1.7166 -0.653352,-0.2297 0.452179,0.6978 0.952017,1.2706 1.11075,1.273 0.158733,0 -0.0471,-0.467 -0.457398,-1.0433 z m -8.0168222,-7.5608 c -0.348606,-0.4661 -0.699003,-0.7845 -0.778658,-0.7077 -0.145142,0.14 1.014464,1.5551 1.274307,1.5551 0.076,0 -0.147042,-0.3813 -0.495649,-0.8474 z m 33.5856132,18.4863 c 0.119916,-0.194 0.288035,-0.3528 0.373598,-0.3528 0.08556,0 0.155569,0.1588 0.155569,0.3528 0,0.194 -0.168119,0.3528 -0.373598,0.3528 -0.205478,0 -0.275484,-0.1588 -0.155569,-0.3528 z M 1.1518698,1381.3106 c 0.119916,-0.194 0.288035,-0.3528 0.373598,-0.3528 0.08556,0 0.155569,0.1588 0.155569,0.3528 0,0.1941 -0.168119,0.3528 -0.373598,0.3528 -0.205478,0 -0.2754845,-0.1587 -0.155569,-0.3528 z"
       id="path87" /></g></svg>
