<?xml version="1.0" encoding="UTF-8" standalone="no"?>
<!-- Created with Inkscape (http://www.inkscape.org/) -->

<svg
   width="128.64644mm"
   height="77.048958mm"
   viewBox="0 0 128.64645 77.048958"
   version="1.1"
   id="svg1"
   xml:space="preserve"
   xmlns="http://www.w3.org/2000/svg"
   xmlns:svg="http://www.w3.org/2000/svg"><defs
     id="defs1" /><g
     id="layer1"
     transform="translate(206.67742,-1733.2942)"><path
       style="fill:#4d4d4d;stroke-width:2.5"
       d="m -206.67552,1809.0572 c 0,-0.9008 0.25608,-1.7963 0.56908,-1.9895 0.31297,-0.1925 0.75947,-1.741 0.9922,-3.439 0.4284,-3.1255 1.14552,-4.0438 4.65322,-5.9588 l 1.915,-1.0452 -0.39762,1.9882 c -0.4234,2.1168 0.0785,2.3183 2.52072,1.0115 0.7276,-0.3895 2.4971,-0.9205 3.93223,-1.18 1.4351,-0.2595 4.0297,-1.1917 5.76575,-2.0715 1.73607,-0.8797 3.5764,-1.5995 4.08967,-1.5995 2.27518,0 2.4242,-1.6325 0.75963,-8.3207 -2.03665,-8.183 -2.0378,-9.2715 -0.015,-13.078 1.69162,-3.1815 1.41215,-4.023 -0.59838,-1.8015 -1.4114,1.5597 -2.42712,8.8935 -1.93067,13.94 0.53642,5.4527 -0.2115,6.696 -5.08288,8.4487 -7.13302,2.5665 -5.51922,0.9058 1.84278,-1.8965 1.42322,-0.5417 1.48827,-0.896 1.48827,-8.107 0,-4.1472 0.18525,-8.4662 0.41153,-9.598 0.65395,-3.2697 2.89575,-5.1457 7.2653,-6.0795 3.2889,-0.703 4.29775,-1.2862 6.45005,-3.7295 2.97427,-3.3765 6.22192,-5.1847 11.51132,-6.4095 3.31345,-0.7675 3.77553,-1.0662 3.63028,-2.3482 -0.13875,-1.2258 0.135,-1.4493 1.65365,-1.349 3.5274,0.2325 4.22092,-0.048 7.33725,-2.9623 4.294,-4.0165 6.25155,-4.6925 9.7361,-3.3617 3.04207,1.1617 5.21547,3.2255 5.75757,5.4672 0.40685,1.6823 -2.001,5.1455 -5.9785,8.599 -2.35445,2.044 -2.3922,2.1403 -0.84407,2.1498 1.2239,0 1.43385,0.1975 0.85777,0.7725 -0.52482,0.5247 -0.55882,1.144 -0.109,1.9845 0.75083,1.4027 2.29828,1.617 2.77163,0.3835 0.2165,-0.5643 1.34037,-0.7568 3.4427,-0.5898 2.73092,0.2175 3.28662,0.5288 4.44475,2.4918 0.728,1.2337 1.84832,2.2432 2.48965,2.2432 0.6413,0 3.75785,-1.2145 6.92567,-2.699 3.1678,-1.4845 6.13745,-2.554 6.59923,-2.377 0.65362,0.251 0.68345,0.9953 0.1345,3.3605 l -0.70493,3.0385 h -3.52545 c -5.07875,0 -9.5182,1.228 -9.26132,2.562 0.30905,1.6048 3.52537,2.8578 8.32377,3.243 5.7225,0.4593 7.67173,-0.6467 11.6041,-6.5847 2.84506,-4.296 3.08156,-4.9713 3.08156,-8.7988 0,-2.2802 -0.44648,-5.4112 -0.99218,-6.958 -1.3402,-3.7985 -1.24883,-5.5157 0.37142,-6.9822 0.81321,-0.7358 1.23178,-1.738 1.03701,-2.483 -0.1795,-0.687 -0.17275,-1.095 0.015,-0.9068 0.18825,0.1875 1.18247,0.05 2.209497,-0.3087 1.787925,-0.6235 3.13955,-3.2063 2.348,-4.487 -0.971575,-1.572 -9.316957,-0.917 -10.419907,0.8177 -1.01267,1.593 -0.5037,2.4438 1.46188,2.4438 2.1183,0 2.53285,0.7057 1.10875,1.8877 -0.60615,0.503 -1.08733,0.515 -1.56348,0.037 -0.47612,-0.476 -1.117,0.04 -2.08227,1.6755 -0.76695,1.3 -1.6261,2.3255 -1.9092,2.279 -1.388,-0.2275 -2.16838,0.17 -2.16838,1.1038 0,0.5672 -1.11622,2.3802 -2.48047,4.0287 -2.44895,2.9593 -2.52165,2.9925 -5.72243,2.6258 -2.9427,-0.3373 -3.45772,-0.1825 -5.57915,1.6805 -2.74802,2.413 -7.0474,4.489 -9.33857,4.5095 -1.24268,0 -0.51565,-0.6685 3.10105,-2.8983 2.59835,-1.602 5.4124,-3.5612 6.25342,-4.3537 1.29255,-1.218 2.0158,-1.378 4.6739,-1.033 2.6312,0.3417 3.38733,0.18 4.6302,-0.984 1.4773,-1.3848 1.4782,-1.398 0.1625,-2.3795 -1.60145,-1.1948 -3.8849,-0.8328 -8.7229,1.382 -3.8773,1.7752 -4.58205,1.3975 -1.5607,-0.8363 1.07435,-0.7942 3.14845,-3.4905 4.6091,-5.9915 4.2479,-7.2732 7.7614,-11.3075 11.15635,-12.8092 2.67995,-1.1853 3.94898,-1.2983 11.01058,-0.9793 13.665527,0.6173 18.730877,3.116 21.307427,10.5108 1.8741,5.3787 1.558925,14.496 -0.75045,21.7095 -2.9696,9.2757 -5.9169,15.1002 -8.067575,15.9435 -1.567425,0.6147 -17.453202,3.3917 -54.900552,9.5972 -3.70503,0.614 -7.06963,1.3223 -7.47688,1.574 -0.40727,0.2518 -0.99705,2.216 -1.31062,4.3655 -0.7316,5.0143 -2.27723,8.614 -4.12285,9.6018 -3.17928,1.7015 -7.68213,2.4642 -10.42938,1.767 -1.46632,-0.3723 -2.66602,-1.0585 -2.66602,-1.525 0,-0.7728 8.47752,-5.6388 9.7223,-5.5805 0.29165,0.025 -0.65875,1.0422 -2.11203,2.2855 -3.36462,2.8787 -2.61542,3.9975 1.72013,2.5685 3.60067,-1.1868 5.39495,-3.8418 6.436,-9.5233 0.36807,-2.0085 0.76632,-4.055 0.885,-4.5475 0.39,-1.6182 -1.33088,-1.5082 -2.42055,0.155 -1.05235,1.6063 -1.11868,1.6165 -4.83773,0.7405 -2.0739,-0.4882 -5.0732,-1.3515 -6.6651,-1.918 -1.5919,-0.5665 -3.08017,-1.0302 -3.3073,-1.0302 -0.227,0 -0.41292,1.9152 -0.41292,4.2562 0,3.7555 -0.21675,4.4823 -1.8437,6.1803 -2.37733,2.4815 -4.98755,3.2702 -14.69275,4.4395 -7.17598,0.8647 -15.03853,2.9272 -18.76885,4.9235 -1.2573,0.673 -1.40563,0.5795 -1.40563,-0.8855 z m 8.32195,-2.97 c 1.50375,-0.7848 5.16633,-1.7275 8.26823,-2.128 10.6175,-1.3708 15.29597,-2.4685 16.8852,-3.9615 2.09305,-1.9663 2.56872,-5.9898 1.6565,-14.012 -0.8258,-7.2625 -0.6718,-7.7188 2.61095,-7.7385 0.93132,0 3.75907,-1.0175 6.28385,-2.2485 2.52477,-1.2313 5.26022,-2.442 6.07877,-2.6905 2.50145,-0.7595 1.66005,-1.3783 -1.5296,-1.1245 -2.35162,0.1875 -3.2232,-0.03 -3.94772,-0.9875 -1.49845,-1.978 -1.13833,-4.1793 1.0125,-6.1883 1.0914,-1.0195 1.98437,-1.9805 1.98437,-2.1352 0,-0.155 -0.91632,-0.1475 -2.03625,0.025 -1.30185,0.19 -2.28625,0.8477 -2.7295,1.8205 -0.6503,1.4272 -5.12622,3.5007 -9.78635,4.5337 -2.92645,0.6485 -6.00705,3.0073 -6.9851,5.348 -1.27187,3.044 -1.20325,5.1785 0.3975,12.365 1.39983,6.2843 1.34458,7.8163 -0.28182,7.8163 -0.5268,0 -1.05705,0.2375 -1.1783,0.5257 -0.59808,1.426 -12.64268,6.4613 -13.77775,5.7598 -1.18723,-0.7338 -3.29485,0.3657 -4.25295,2.2185 -0.51068,0.9875 -1.69803,2.2072 -2.63858,2.7107 -0.94055,0.5033 -1.71007,1.304 -1.71007,1.7793 0,0.984 1.32062,0.593 5.67612,-1.6803 z m -2.36882,-5.7938 c 0,-0.4892 -0.238,-0.8897 -0.52918,-0.8897 -0.96445,0 -2.11667,1.568 -2.11667,2.8807 0,1.2513 0.0427,1.2543 1.32292,0.095 0.7276,-0.6585 1.32293,-1.5975 1.32293,-2.0867 z m 51.62657,-14.536 c 0.34575,-0.9092 0.62863,-3.2812 0.62863,-5.271 v -3.6177 l 3.47265,0.5187 c 7.91382,1.1825 15.81777,-0.3337 16.73047,-3.2095 0.50528,-1.592 -1.32685,-3.8785 -3.10772,-3.8785 -1.51015,0 -1.56875,1.1648 -0.13825,2.7455 1.00215,1.1073 1.00175,1.2268 -0.005,1.613 -0.59805,0.23 -1.8187,-0.062 -2.7126,-0.6477 -0.8939,-0.5855 -2.75195,-1.0875 -4.12903,-1.115 -1.37705,-0.027 -3.54552,-0.4385 -4.81882,-0.9128 l -2.31513,-0.8622 1.98438,-0.5445 c 1.09142,-0.2995 2.50527,-0.4655 3.14195,-0.3688 0.63665,0.098 1.15755,-0.155 1.15755,-0.5587 0,-0.8265 -3.20458,-3.9788 -4.0446,-3.9788 -0.29925,0 -0.37278,-0.4465 -0.16325,-0.9922 0.2465,-0.6423 -0.015,-0.9923 -0.74415,-0.9923 -0.6187,0 -1.26815,0.548 -1.44328,1.2175 -0.175,0.6698 -1.51057,1.7435 -2.9677,2.3865 -4.29055,1.893 -5.18365,4.074 -5.18655,12.6665 l -0.002,7.3408 2.01722,0.057 c 1.57038,0.045 2.15645,-0.3088 2.64583,-1.596 z m -4.52735,-17.029 c 1.10943,-1.3825 1.0797,-1.4147 -1.81762,-1.9727 -3.52383,-0.679 -4.62585,-0.3465 -5.12023,1.5437 -0.74575,2.852 4.72228,3.19 6.93785,0.429 z m 6.06573,-4.975 c 0.59105,-0.4905 1.07462,-1.4507 1.07462,-2.1337 0,-1.535 1.8782,-1.64 2.9565,-0.165 0.72513,0.9917 0.97935,0.9855 3.22203,-0.08 2.60827,-1.2378 3.51347,-3.157 2.81027,-5.9588 -0.22925,-0.9132 -0.8952,-1.6535 -1.48755,-1.6535 -1.7347,0 -6.8398,2.8028 -6.8398,3.7553 0,0.5157 -0.75495,0.8747 -1.8397,0.8747 -1.8479,0 -9.40507,4.2488 -9.40507,5.2878 0,0.8642 1.36385,1.149 5.04385,1.053 1.86462,-0.047 3.8738,-0.49 4.46485,-0.9805 z m 35.47045,0.729 c 0,-0.266 -0.65048,-0.7775 -1.44548,-1.1367 -2.2937,-1.036 -2.37347,-2.4558 -0.1075,-1.9135 3.22315,0.7712 4.53083,2.3915 2.54523,3.1535 -0.5457,0.21 -0.9922,0.1625 -0.9922,-0.1025 z"
       id="path85" /></g></svg>
