<?xml version="1.0" encoding="UTF-8" standalone="no"?>
<!-- Created with Inkscape (http://www.inkscape.org/) -->

<svg
   width="126.15514mm"
   height="69.221809mm"
   viewBox="0 0 126.15516 69.22181"
   version="1.1"
   id="svg1"
   xml:space="preserve"
   xmlns="http://www.w3.org/2000/svg"
   xmlns:svg="http://www.w3.org/2000/svg"><defs
     id="defs1" /><g
     id="layer1"
     transform="translate(486.36023,-64.918665)"><path
       style="fill:#4d4d4d"
       d="m -462.17204,134.00423 c -0.0776,-0.0776 -0.30923,-0.19663 -0.51481,-0.26458 -0.75004,-0.24794 -1.0311,-1.33679 -0.53507,-2.07286 0.14699,-0.21811 0.48525,-0.55667 0.75169,-0.75234 0.29456,-0.21632 0.59311,-0.58429 0.76169,-0.93878 0.62037,-1.30457 1.64186,-2.59291 2.5703,-3.24175 0.22637,-0.1582 0.49095,-0.35086 0.58796,-0.42814 0.69376,-0.55263 0.94074,-0.77751 0.94074,-0.85653 0,-0.10191 -0.52283,-0.0384 -0.88194,0.1072 -0.12935,0.0524 -0.47331,0.15944 -0.76435,0.23779 -0.29104,0.0784 -0.62106,0.19021 -0.73336,0.24859 -0.11231,0.0584 -0.285,0.10613 -0.38377,0.10613 -0.0988,0 -0.27147,0.0467 -0.38377,0.10387 -0.11231,0.0571 -0.33649,0.15462 -0.49818,0.21665 -0.85417,0.32768 -3.11108,1.51666 -3.72018,1.95987 -1.11316,0.80999 -2.33996,1.86955 -3.86142,3.33502 -1.05297,1.01422 -1.60134,1.44977 -2.14672,1.70508 l -0.73249,0.34289 -0.41534,-0.13707 c -0.3988,-0.13162 -1.0007,-0.75741 -1.0007,-1.04042 0,-0.0747 -0.14697,-0.13589 -0.32661,-0.13589 -0.38138,0 -0.84931,-0.29328 -0.84931,-0.53232 0,-0.0914 -0.15875,-0.28357 -0.35278,-0.42702 -0.26846,-0.19848 -0.35278,-0.3539 -0.35278,-0.65028 0,-0.29664 -0.0504,-0.38946 -0.21167,-0.38946 -0.33674,0 -0.49389,-0.24494 -0.49389,-0.7698 0,-0.26817 -0.0847,-0.6574 -0.18825,-0.86495 -0.29653,-0.5944 -0.13676,-1.07703 0.63105,-1.90636 0.36727,-0.3967 1.1455,-1.04102 1.72939,-1.43183 1.78274,-1.1932 3.92657,-2.84652 3.82044,-2.94632 -0.16159,-0.15197 -2.42618,0.39634 -3.40559,0.82456 -1.02232,0.44699 -2.31414,1.22992 -3.32916,2.0177 -0.39981,0.3103 -3.47938,3.40958 -4.2143,4.24127 -0.57341,0.64891 -0.70212,0.73953 -0.94074,0.66226 -0.15205,-0.0492 -0.45559,-0.0827 -0.67455,-0.0744 -0.21895,0.008 -0.46962,-0.0443 -0.55704,-0.11682 -0.0874,-0.0726 -0.28218,-0.10098 -0.43282,-0.0632 -0.15957,0.0401 -0.3816,-0.007 -0.53193,-0.11199 -0.1458,-0.10212 -0.35895,-0.14871 -0.49003,-0.10711 -0.16171,0.0513 -0.33056,-0.0256 -0.55733,-0.25396 -0.17894,-0.18018 -0.41587,-0.31278 -0.52651,-0.29467 -0.30496,0.0499 -0.6581,-0.18331 -0.85545,-0.56495 -0.14903,-0.28819 -0.15444,-0.44143 -0.0341,-0.96665 0.16559,-0.72287 0.74562,-1.37899 1.9294,-2.1825 0.7239,-0.49136 2.04085,-1.8501 2.04184,-2.10664 2.9e-4,-0.0754 0.0479,-0.15483 0.10572,-0.17638 0.12535,-0.0467 1.54305,-2.94579 1.87988,-3.84421 0.29401,-0.78418 0.67695,-1.35198 1.06735,-1.5826 0.23461,-0.13859 0.41467,-0.15272 0.82853,-0.065 2.04399,0.43308 4.63324,0.34634 7.31974,-0.2452 0.30721,-0.0676 0.80992,-0.17828 1.11713,-0.24585 0.30721,-0.0676 0.71732,-0.15055 0.91135,-0.1844 0.19402,-0.0339 0.45861,-0.10725 0.58796,-0.16311 0.12935,-0.0559 0.39393,-0.12927 0.58796,-0.16312 0.19403,-0.0339 0.60413,-0.11683 0.91134,-0.1844 1.32271,-0.29093 1.73931,-0.36349 2.85163,-0.49669 2.16698,-0.2595 5.07196,-0.172 8.58425,0.25855 1.58951,0.19485 1.85462,0.23161 2.67516,0.37097 0.78112,0.13266 1.15605,0.0851 2.02855,-0.25717 0.2414,-0.0947 1.67677,-0.51204 2.41065,-0.7009 1.82909,-0.47071 3.12526,-0.695 6.52638,-1.12934 1.74625,-0.223 3.67771,-0.51446 4.29213,-0.64768 0.61443,-0.13322 1.26545,-0.27127 1.44673,-0.30677 l 0.32959,-0.0646 -0.0747,-0.36792 c -0.0845,-0.41652 -0.27096,-1.06024 -0.42318,-1.46118 -0.0564,-0.14857 -0.10255,-0.3968 -0.10255,-0.55163 0,-0.15483 -0.0471,-0.3106 -0.1046,-0.34615 -0.0575,-0.0356 -0.13313,-0.23712 -0.168,-0.44792 -0.10516,-0.6357 -0.21002,-1.07594 -0.31536,-1.324 -0.0549,-0.12935 -0.13269,-0.39394 -0.1728,-0.58796 -0.0793,-0.38389 -0.13032,-0.59078 -0.57946,-2.35186 -0.16494,-0.64676 -0.30129,-1.27165 -0.30299,-1.38865 -0.002,-0.117 -0.0501,-0.18367 -0.10757,-0.14815 -0.25919,0.16019 -1.98833,3.4618 -2.59086,4.94699 -0.20437,0.50374 -0.34752,0.8435 -0.56978,1.35231 -0.24015,0.54979 -0.62028,1.64039 -0.81973,2.35185 -0.0986,0.35189 -0.12919,0.37898 -0.2106,0.18679 -0.12762,-0.30128 0.27169,-1.71452 0.9914,-3.50878 0.0584,-0.14552 0.22806,-0.58208 0.3771,-0.97013 0.39245,-1.02186 1.65569,-3.52473 2.21283,-4.3843 l 0.47894,-0.73892 0.005,-1.14256 c 0.005,-1.05657 0.18048,-2.13177 0.38109,-2.33238 0.0462,-0.0463 0.0846,-0.16788 0.0852,-0.27029 0.002,-0.277689 1.13873,-1.739089 1.53544,-1.973419 0.1897,-0.11206 0.34491,-0.24071 0.34491,-0.28589 0,-0.0452 0.44348,-0.2998 0.98552,-0.56583 1.37223,-0.67348 2.9764,-1.06144 4.74712,-1.14807 l 1.44051,-0.0705 v 0.31185 c 0,0.24498 -0.0567,0.31187 -0.26459,0.31195 -0.14552,5e-5 -0.83569,0.0543 -1.53372,0.12045 -2.13235,0.20221 -3.43119,0.57747 -4.90447,1.41702 -0.52963,0.30181 -1.70977,1.56734 -1.96559,2.107799 -0.36539,0.77198 -0.42496,1.10447 -0.43186,2.41065 -0.008,1.47094 0.14591,2.32514 0.86211,4.7919 0.061,0.21019 0.16687,0.58061 0.23519,0.82314 0.0683,0.24254 0.18066,0.63941 0.24963,0.88195 0.069,0.24253 0.17063,0.62618 0.22589,0.85255 0.0975,0.39933 0.38764,1.49735 0.7458,2.82222 0.0962,0.35571 0.19292,0.77634 0.21503,0.93471 0.043,0.30773 0.11622,0.27447 -1.31213,0.59566 -1.29538,0.29129 -3.27184,0.6096 -5.49609,0.88515 -2.298,0.2847 -4.29886,0.60998 -5.44002,0.8844 -0.29104,0.07 -0.70163,0.15574 -0.91243,0.19055 -0.2108,0.0348 -0.41236,0.11036 -0.44791,0.16789 -0.0356,0.0575 -0.19454,0.1046 -0.35329,0.1046 -0.15875,0 -0.38052,0.0478 -0.49283,0.10613 -0.1123,0.0584 -0.44231,0.17024 -0.73335,0.24859 -0.29105,0.0784 -0.635,0.184 -0.76436,0.23478 -0.12935,0.0508 -0.42039,0.15592 -0.64675,0.23365 -0.22637,0.0777 -0.51741,0.18543 -0.64676,0.23933 -0.12936,0.0539 -0.57915,0.21079 -0.99954,0.34863 -0.42039,0.13784 -0.87019,0.29804 -0.99954,0.356 -0.55656,0.24939 -2.9442,0.98907 -4.39698,1.36218 -2.20932,0.5674 -4.07416,0.80251 -5.12802,0.64652 -1.72748,-0.2557 -1.70362,-0.25638 -2.27916,0.0644 -0.88719,0.49444 -1.1907,0.74026 -2.42454,1.96381 -1.19547,1.18548 -2.65507,2.35371 -4.35093,3.48236 -1.068,0.71079 -2.41065,1.96522 -2.41065,2.25226 0,0.10552 0.0817,0.25968 0.18163,0.34259 0.15336,0.12727 0.25024,0.0838 0.62232,-0.27958 0.51754,-0.50537 0.60717,-0.52737 0.60717,-0.14906 0,0.16776 -0.21355,0.51878 -0.52917,0.86982 -0.59209,0.65855 -0.636,0.79262 -0.28928,0.88329 0.17812,0.0466 0.40629,-0.10236 0.88627,-0.57851 0.61236,-0.60749 0.87292,-0.70781 0.87292,-0.3361 0,0.0908 -0.3249,0.51247 -0.722,0.93696 -0.39709,0.4245 -0.70137,0.78969 -0.67616,0.81153 0.38372,0.3324 0.52173,0.27864 1.3344,-0.51985 0.44981,-0.44197 0.85984,-0.77763 0.91117,-0.74591 0.27005,0.16691 0.0302,0.60901 -0.72982,1.3453 -0.45273,0.43859 -0.82315,0.82788 -0.82315,0.8651 0,0.0372 0.17082,0.0677 0.3796,0.0677 0.28954,0 0.47787,-0.10683 0.79375,-0.45024 0.48482,-0.52706 0.98785,-0.87714 1.0997,-0.7653 0.19025,0.19026 0.0387,0.4995 -0.50916,1.03915 -0.32338,0.31852 -0.58796,0.64255 -0.58796,0.72008 0,0.19803 0.68194,0.74983 0.92667,0.74983 0.62473,0 1.99879,-0.99894 2.70932,-1.96968 0.15386,-0.21019 0.33939,-0.38217 0.4123,-0.38217 0.0729,0 0.52801,-0.37224 1.01135,-0.8272 1.01394,-0.95443 2.9443,-2.46539 3.1497,-2.46539 0.0768,0 0.14014,-0.0397 0.14065,-0.0882 5e-4,-0.0485 0.11957,-0.14498 0.26458,-0.21438 0.14502,-0.0694 0.52825,-0.2627 0.85163,-0.42955 0.60717,-0.31329 1.27957,-0.61056 2.35185,-1.03978 0.34779,-0.13921 1.52533,-0.51592 2.52824,-0.8088 1.4663,-0.42821 1.46371,-0.42656 1.63254,-1.03941 0.20906,-0.75886 0.47951,-1.46422 0.63224,-1.64895 0.29087,-0.3518 0.83047,-0.4669 1.50285,-0.32056 0.35315,0.0769 0.72147,0.17092 0.81848,0.20902 0.34188,0.13427 1.95574,0.26033 3.2926,0.25719 2.21321,-0.005 3.77462,-0.26776 8.02569,-1.34955 1.14937,-0.29249 1.3618,-0.34483 1.91088,-0.47081 2.97439,-0.68244 3.41216,-0.73936 5.76204,-0.74919 2.24136,-0.009 2.87342,0.0674 4.033,0.48957 0.55713,0.20286 0.61487,0.17293 0.84896,-0.44012 0.0864,-0.22637 0.30659,-0.74363 0.48922,-1.14948 0.18263,-0.40584 0.33206,-0.7636 0.33206,-0.79503 0,-0.0314 0.11111,-0.30791 0.2469,-0.61441 0.1358,-0.30651 0.29455,-0.67635 0.35278,-0.82187 0.0582,-0.14552 0.15339,-0.38365 0.21148,-0.52917 0.0581,-0.14552 0.18603,-0.44979 0.28432,-0.67615 0.0983,-0.22637 0.26737,-0.6497 0.37571,-0.94074 0.25689,-0.69011 0.33759,-0.88835 0.63376,-1.55682 0.13579,-0.30651 0.2469,-0.60578 0.2469,-0.66505 0,-0.0927 0.1961,-0.52666 0.60269,-1.33371 0.0566,-0.11231 0.10287,-0.30762 0.10287,-0.43404 0,-0.12641 0.0529,-0.26254 0.11759,-0.30251 0.0647,-0.04 0.11759,-0.19873 0.11759,-0.35278 0,-0.15406 0.0529,-0.31281 0.11759,-0.35278 0.0647,-0.04 0.1176,-0.22518 0.1176,-0.41157 0,-0.1864 0.0529,-0.37161 0.11759,-0.41158 0.0647,-0.04 0.11759,-0.25227 0.11759,-0.47177 0,-0.21951 0.0609,-0.53271 0.13528,-0.696 0.20253,-0.44453 -0.0505,-2.66119 -0.41187,-3.60838 -0.15753,-0.41288 -0.63599,-1.47381 -1.06325,-2.35761 -0.42725,-0.88381 -0.77683,-1.687659 -0.77683,-1.786349 0,-0.0987 -0.0529,-0.21214 -0.11759,-0.25211 -0.0647,-0.04 -0.11759,-0.19872 -0.11759,-0.35278 0,-0.15405 -0.0529,-0.3128 -0.11759,-0.35277 -0.0647,-0.04 -0.1176,-0.19873 -0.1176,-0.35278 0,-0.15406 -0.0471,-0.30919 -0.1046,-0.34475 -0.0575,-0.0356 -0.13039,-0.23712 -0.16192,-0.44791 -0.0315,-0.2108 -0.13531,-0.67431 -0.23064,-1.03003 -0.16271,-0.60716 -0.24914,-1.00837 -0.57628,-2.67523 -0.4346,-2.21438 -0.85105,-3.37895 -1.4342,-4.01064 -0.45677,-0.49479 -1.21601,-0.94793 -1.80063,-1.07468 -1.31531,-0.28515 -4.81693,-1.76038 -6.66292,-2.80707 -1.3412,-0.76048 -3.10043,-2.0763 -4.25158,-3.18 -1.54631,-1.48256 -2.30436,-2.12639 -2.50431,-2.12696 -0.0808,-2.3e-4 -0.14699,-0.0533 -0.14699,-0.11801 0,-0.0647 -0.0801,-0.11759 -0.17798,-0.11759 -0.0979,0 -0.26987,-0.0467 -0.38218,-0.10387 -0.43277,-0.22016 -0.80972,-0.35115 -1.26252,-0.43874 -0.65948,-0.12756 -2.3396,-0.11004 -3.15527,0.0329 -0.59375,0.10405 -0.72004,0.0925 -0.94074,-0.0862 l -0.25492,-0.20638 -0.0202,-1.50974 c -0.0219,-1.63304 -0.20839,-2.87616 -0.694,-4.62594 -0.17052,-0.61443 -0.35739,-1.28911 -0.41526,-1.49931 -0.0579,-0.2102 -0.16213,-0.58061 -0.23168,-0.82315 -0.20757,-0.72378 -0.35216,-1.4537 -0.4484,-2.26365 -0.05,-0.4204 -0.16437,-0.89665 -0.25426,-1.05834 -0.5031,-0.90497 -0.58071,-1.63048 -0.23507,-2.19735 0.292,-0.47889 0.63536,-0.66026 1.06948,-0.56491 0.44234,0.0971 0.74772,0.53906 0.93372,1.35115 0.0815,0.35572 0.20637,0.77905 0.27755,0.94074 0.19535,0.44377 0.9524,1.53499 1.38687,1.99908 1.78156,1.90298 2.21303,2.41137 2.83878,3.34489 1.20557,1.79848 1.77808,2.47456 1.98645,2.34578 0.0592,-0.0366 0.17139,-0.0155 0.24941,0.0468 0.69252,0.55316 6.44913,3.32612 9.10827,4.38746 0.14552,0.0581 0.39688,0.15852 0.55857,0.22319 0.16168,0.0647 0.42627,0.17051 0.58796,0.23519 0.16169,0.0647 0.41304,0.16517 0.55856,0.22332 0.14552,0.0581 0.44979,0.16932 0.67616,0.24705 0.22637,0.0777 0.51741,0.18356 0.64676,0.23518 0.12935,0.0516 0.42039,0.15746 0.64676,0.23519 0.22636,0.0777 0.51741,0.18226 0.64676,0.23229 1.4899,0.57627 3.30349,1.06123 3.96867,1.06123 1.48331,0 2.45108,0.53168 2.93135,1.61044 0.1208,0.27133 0.3375,0.58883 0.48156,0.70556 0.14407,0.11673 0.65881,0.66203 1.14388,1.21178 0.48507,0.54974 0.90955,1.02599 0.94329,1.05833 0.19253,0.18454 1.32548,1.70681 1.79413,2.41065 0.30144,0.45273 0.6267,0.92898 0.72278,1.05833 l 0.1747,0.23518 0.0175,-0.88194 c 0.0285,-1.43606 0.0607,-1.68322 0.27914,-2.14297 0.25783,-0.54263 0.68231,-0.6498 1.82575,-0.46097 0.47729,0.0788 1.37707,0.10308 2.25191,0.0607 1.19898,-0.0581 1.68606,-0.0271 2.75052,0.17518 3.11148,0.59115 3.64575,0.63968 7.17314,0.65152 3.63813,0.0122 3.41011,-0.0194 4.54631,0.63114 0.36017,0.20623 0.66776,0.25263 1.88148,0.28379 l 1.45092,0.0373 0.47037,-0.34214 c 0.2587,-0.18818 0.65558,-0.57243 0.88194,-0.85388 0.22637,-0.28146 0.5571,-0.68169 0.73496,-0.88939 0.17785,-0.20771 0.32338,-0.42017 0.32338,-0.47213 0,-0.052 0.24125,-0.33573 0.53611,-0.6306 l 0.53611,-0.53611 -0.20293,-0.30971 c -0.29941,-0.45696 -0.26693,-1.48866 0.0655,-2.08086 0.39145,-0.69731 0.71385,-0.99953 1.06628,-0.99953 0.25197,0 0.36252,0.0985 0.56114,0.49977 0.13603,0.27487 0.2638,0.60381 0.28391,0.73097 0.0316,0.19993 0.11598,0.22637 0.62369,0.19547 0.32292,-0.0196 0.984,-0.18757 1.46906,-0.37315 1.36733,-0.52315 1.82967,-0.59391 2.63998,-0.40409 0.53301,0.12486 0.74311,0.13157 0.88194,0.0282 0.42398,-0.31574 0.9466,-0.85019 0.9466,-0.96804 0,-0.0699 0.0887,-0.25383 0.19718,-0.40866 l 0.19718,-0.28151 0.0789,0.22499 c 0.11244,0.32055 -0.18875,0.97711 -0.68401,1.49102 l -0.42496,0.44097 0.42072,0.44098 c 0.23139,0.24253 0.60147,0.70555 0.8224,1.02893 0.83009,1.21503 1.09985,1.5787 1.17425,1.58304 0.0421,0.002 0.18763,-0.18377 0.32337,-0.41384 0.17607,-0.2984 0.24681,-0.61859 0.24681,-1.11713 0,-0.66942 0.13023,-0.90676 0.2814,-0.51282 0.0393,0.1023 0.0714,0.49902 0.0714,0.8816 v 0.6956 l -0.41157,0.45557 c -0.24541,0.27164 -0.41158,0.57756 -0.41158,0.75775 0,0.1662 -0.0529,0.33489 -0.11759,0.37486 -0.14012,0.0866 -0.15827,0.41157 -0.023,0.41157 0.052,0 0.28896,-0.17801 0.52649,-0.39558 1.08093,-0.99009 1.20986,-2.84719 0.26607,-3.83229 -0.1995,-0.20823 -0.30196,-0.41665 -0.25938,-0.52761 0.1142,-0.29759 0.28101,-0.21441 0.63437,0.31636 1.06706,1.60281 0.77533,3.43121 -0.76317,4.78317 -0.90272,0.79326 -1.33658,1.2271 -1.46256,1.46249 -0.0828,0.15465 -0.0803,0.19748 0.008,0.1428 0.0695,-0.043 0.56428,-0.12761 1.09947,-0.18811 0.53519,-0.0605 1.31703,-0.16199 1.73742,-0.22554 2.5677,-0.38811 3.97538,-0.23574 5.76204,0.62369 0.83655,0.40241 2.52457,1.96647 2.80941,2.60312 0.0868,0.19403 0.20458,0.44467 0.26171,0.55697 0.0571,0.11231 0.10388,0.55257 0.10388,0.97835 0,0.65035 0.0523,0.85277 0.32697,1.26572 0.65431,0.98366 0.84895,1.65947 0.84895,2.94768 0,0.56558 -0.0561,1.13312 -0.12463,1.26121 -0.0686,0.12808 -0.10824,0.38345 -0.0882,0.56748 l 0.0364,0.334589 0.99953,-0.941939 c 0.54975,-0.51807 1.43436,-1.28678 1.96581,-1.70826 0.73189,-0.58044 0.99772,-0.86942 1.09593,-1.19137 0.27844,-0.91286 0.75162,-1.53483 1.43419,-1.8852 0.4555,-0.23381 0.69529,-0.47939 1.1309,-1.15823 0.39254,-0.61173 0.60464,-0.77112 0.88363,-0.66406 0.22821,0.0876 0.42751,0.57879 0.42751,1.05371 0,0.22332 0.0315,0.40604 0.07,0.40604 0.14147,0 0.83119,-0.53279 1.55115,-1.19822 0.73846,-0.68252 1.12426,-0.83058 1.41269,-0.54215 0.0776,0.0776 0.14111,0.23636 0.14111,0.35278 0,0.25514 0.006,0.25572 0.41809,0.0418 0.2301,-0.11938 0.39133,-0.13562 0.54261,-0.0547 0.18658,0.0999 0.21835,0.29071 0.23871,1.43396 0.0357,2.00659 0.0408,1.97661 -0.39629,2.34622 -0.32587,0.27556 -1.53215,0.9112 -2.91978,1.53854 -0.16169,0.0731 -0.68854,0.39453 -1.17077,0.71429 -0.75165,0.4984 -0.96985,0.5857 -1.52871,0.61166 -0.46934,0.0218 -0.68484,0.0868 -0.7695,0.23211 -0.0647,0.111 -0.42187,0.671969 -0.79375,1.246589 -0.37189,0.57462 -0.67616,1.07307 -0.67616,1.10767 0,0.17745 -2.22188,3.31672 -2.9098,4.11121 -1.21803,1.40673 -2.86901,2.5666 -4.13052,2.90183 -0.71727,0.1906 -1.75435,0.31315 -3.66061,0.43259 -1.00247,0.0628 -2.77518,0.17531 -3.93935,0.25 -1.16417,0.0747 -2.24896,0.14403 -2.41065,0.15409 -0.23668,0.0147 -0.30985,0.0985 -0.3754,0.42985 -0.17046,0.8617 -0.11274,1.26752 0.22478,1.58049 0.37197,0.34492 0.24183,0.61408 -0.23862,0.4935 -0.56183,-0.14101 -1.49083,-1.25315 -1.4918,-1.78589 -6.3e-4,-0.34618 -0.22308,-0.51984 -0.57615,-0.44979 -0.16843,0.0334 -1.17936,-0.0299 -2.24651,-0.14071 -1.06715,-0.11081 -2.07257,-0.19927 -2.23426,-0.19657 -0.9026,0.0151 -1.69482,0.33303 -4.64491,1.8643 -0.58208,0.30214 -1.16416,0.5882 -1.29352,0.6357 -0.12935,0.0475 -0.38319,0.14586 -0.56409,0.21859 -0.18091,0.0727 -0.66878,0.13223 -1.08416,0.13223 -0.75472,0 -1.32313,-0.20894 -1.85603,-0.68225 l -0.21168,-0.18802 -0.43507,0.21299 c -0.23929,0.11714 -0.52696,0.26004 -0.63927,0.31754 -0.1123,0.0575 -0.30762,0.10456 -0.43403,0.10456 -0.12641,0 -0.25845,0.0463 -0.29341,0.10285 -0.096,0.15542 -1.1827,0.26318 -3.65448,0.36242 -2.14757,0.0862 -2.66246,0.14376 -3.175,0.35487 -0.12935,0.0533 -0.42039,0.16046 -0.64676,0.23819 -0.22636,0.0777 -0.5174,0.18287 -0.64676,0.23365 -0.12935,0.0508 -0.47331,0.15741 -0.76435,0.23696 -0.29104,0.0795 -0.66146,0.18484 -0.82315,0.23399 -0.35113,0.10674 -1.18456,0.28546 -2.2449,0.4814 l -0.775,0.14321 -0.63601,1.01109 c -0.3498,0.5561 -0.7351,1.1963 -0.85622,1.42267 -0.12112,0.22636 -0.35415,0.64969 -0.51784,0.94074 -0.1637,0.29104 -0.43887,0.79375 -0.6115,1.11713 -0.57442,1.076 -1.6633,2.81142 -2.32417,3.70416 -1.31171,1.77194 -3.99179,4.19164 -5.43991,4.91141 l -0.64676,0.32146 -1.76389,-0.0103 c -1.1821,-0.007 -1.97721,-0.069 -2.41065,-0.18825 -1.64492,-0.4526 -2.32233,-0.54282 -5.08588,-0.6774 -2.19095,-0.10669 -5.60025,-0.006 -7.55532,0.22297 -2.50487,0.29346 -3.26355,0.36746 -4.35093,0.42438 -2.07551,0.10865 -3.05837,0.49758 -5.17784,2.04898 -0.45066,0.32987 -0.90595,0.67132 -1.01176,0.75877 -0.40654,0.33603 -1.97801,1.3602 -2.08706,1.3602 -0.11298,0 -1.12096,0.96787 -1.86516,1.79094 -0.3348,0.37028 -0.44723,0.4211 -0.91596,0.41401 -0.29387,-0.004 -0.56059,-0.0506 -0.5927,-0.10254 -0.0321,-0.052 -0.1927,-0.0333 -0.35687,0.0415 -0.22673,0.1033 -0.35164,0.10282 -0.51952,-0.002 -0.13998,-0.0874 -0.24712,-0.0958 -0.29221,-0.0228 -0.097,0.15698 -0.33337,0.14486 -0.50407,-0.0258 z m 2.09306,-0.74092 c 0,-0.0323 -0.0265,-0.0588 -0.0588,-0.0588 -0.0323,0 -0.0588,0.0265 -0.0588,0.0588 0,0.0323 0.0265,0.0588 0.0588,0.0588 0.0323,0 0.0588,-0.0265 0.0588,-0.0588 z m -1.64816,-0.85255 c 0.51774,-0.57871 0.62501,-0.65012 0.74436,-0.49549 0.0767,0.0994 0.23205,0.16164 0.34523,0.13837 0.15264,-0.0314 0.20579,0.0341 0.20579,0.25337 0,0.16261 -0.0529,0.32836 -0.11759,0.36834 -0.0647,0.04 -0.11759,0.1304 -0.11759,0.20097 0,0.0706 0.16054,-0.0933 0.35676,-0.3642 0.36175,-0.49939 0.58398,-0.54401 0.58398,-0.11726 0,0.20843 0.0319,0.19774 0.28415,-0.0951 l 0.28415,-0.32994 0.0786,0.31245 0.0786,0.31245 0.78374,-0.54404 c 0.43106,-0.29922 0.80139,-0.58534 0.82294,-0.63583 0.0216,-0.0505 0.11417,-0.0918 0.20579,-0.0918 0.0916,0 0.16659,-0.0529 0.16659,-0.11759 0,-0.0647 0.0794,-0.11759 0.17639,-0.11759 0.097,0 0.17639,-0.0529 0.17639,-0.1176 0,-0.0647 0.0694,-0.11759 0.15421,-0.11759 0.0848,0 0.26014,-0.0987 0.38959,-0.21928 0.12945,-0.1206 0.35528,-0.28345 0.50184,-0.36189 0.14657,-0.0784 0.3549,-0.2157 0.46297,-0.30503 0.10806,-0.0893 0.69919,-0.53469 1.31361,-0.9897 1.74743,-1.29407 2.70037,-1.6934 4.35093,-1.82328 1.1658,-0.0917 2.68308,-0.24196 4.17453,-0.41333 5.29902,-0.60885 9.032,-0.55047 12.99829,0.20327 0.2934,0.0557 0.59999,0.14249 0.6813,0.19275 0.0813,0.0503 0.22234,0.0295 0.31339,-0.046 0.11981,-0.0994 0.27268,-0.104 0.55341,-0.0165 0.21333,0.0665 0.76213,0.17979 1.21955,0.25181 1.83573,0.28901 3.23184,-0.46971 6.05404,-3.29007 1.77642,-1.77527 2.6838,-3.07584 4.43243,-6.35308 0.62369,-1.16891 0.78868,-1.4647 0.85269,-1.5287 0.0323,-0.0323 0.18667,-0.29692 0.34296,-0.58797 0.42014,-0.78239 0.96788,-1.57229 1.17766,-1.69832 0.10146,-0.0609 0.36968,-0.12597 0.59604,-0.14449 0.4463,-0.0365 1.49315,-0.23114 2.05787,-0.38262 1.118,-0.29988 1.43145,-0.39509 1.61531,-0.49066 0.1123,-0.0584 0.285,-0.10613 0.38377,-0.10613 0.0988,0 0.27146,-0.0467 0.38377,-0.10387 0.27584,-0.14032 0.70767,-0.30705 1.20373,-0.46476 0.54367,-0.17284 2.78125,-0.35701 4.4655,-0.36754 0.74212,-0.005 1.53587,-0.0679 1.76389,-0.14062 0.8788,-0.28021 1.64931,-0.6006 1.64931,-0.68581 0,-0.0489 -0.10146,-0.32061 -0.22547,-0.6037 -0.49973,-1.14083 -0.43642,-1.82748 0.41888,-4.54314 0.26861,-0.85288 0.40157,-1.47646 0.36535,-1.7136 -0.0637,-0.41706 -0.005,-0.66677 0.1566,-0.66677 0.14372,0 0.13769,1.27936 -0.009,1.90919 -0.0642,0.2758 -0.19685,0.84541 -0.29469,1.26581 -0.33523,1.44043 -0.45415,2.71731 -0.30405,3.26474 0.25283,0.92206 0.90847,1.46918 2.14717,1.79177 0.92808,0.2417 2.25004,-0.20195 3.86399,-1.29674 1.62819,-1.10444 3.23507,-1.62513 4.58221,-1.4848 0.35568,0.037 1.42779,0.12842 2.38246,0.20305 1.92054,0.15014 2.08599,0.11144 2.08599,-0.48781 0,-0.70218 0.94931,-2.56976 1.74323,-3.42949 0.16363,-0.17719 0.2749,-0.34218 0.24728,-0.36666 -0.0276,-0.0245 -0.61781,-0.0722 -1.31153,-0.10601 l -1.2613,-0.0615 -0.52103,0.33043 c -0.28657,0.18174 -0.55599,0.44055 -0.59871,0.57515 -0.0446,0.14042 -0.1779,0.24472 -0.31282,0.24472 h -0.23515 l 0.0272,-0.83989 0.0272,-0.8399 -0.31202,-0.22729 c -0.69578,-0.50684 -0.83939,-1.50453 -0.17003,-1.18129 0.53847,0.26004 0.79257,0.25758 0.93245,-0.009 0.30164,-0.57492 1.10264,-1.39561 1.75533,-1.79847 0.38246,-0.23607 0.69538,-0.4632 0.69538,-0.50474 0,-0.0415 -0.16538,-0.17322 -0.36752,-0.29262 -0.79374,-0.468879 -1.39308,-1.357179 -1.39571,-2.068639 -5.3e-4,-0.14131 -0.18504,-0.17997 -0.912,-0.19109 -0.50124,-0.008 -1.67908,-0.0533 -2.61742,-0.10138 l -1.70609,-0.0875 -0.56608,0.26609 c -0.31135,0.14635 -0.70778,0.44367 -0.88096,0.66071 -0.31773,0.39822 -0.61209,0.5187 -0.60501,0.24764 0.0117,-0.44873 0.49019,-1.45483 0.88336,-1.85747 l 0.44682,-0.45758 -0.28483,-0.10584 c -0.3811,-0.14162 -0.50151,-0.0892 -1.46076,0.63626 -0.84268,0.63727 -1.5589,1.42711 -2.96923,3.274409 -0.99629,1.30498 -1.28408,1.28769 -0.82015,-0.0493 0.29049,-0.837139 0.43798,-1.599799 0.43808,-2.265349 1.6e-4,-0.97889 0.32147,-2.31283 0.76576,-3.17906 0.22554,-0.43973 0.41007,-0.83828 0.41007,-0.88567 0,-0.0783 -0.21865,-0.14868 -1.54234,-0.49624 -0.63968,-0.16796 -1.94291,-0.13448 -2.86742,0.0737 -1.30636,0.29411 -1.35232,0.3076 -1.41975,0.41669 -0.0352,0.057 -0.16671,0.10355 -0.29224,0.10355 -0.12554,0 -0.22825,0.04 -0.22825,0.0889 0,0.0489 -0.15635,0.1581 -0.34746,0.24269 -0.48742,0.21575 -1.55036,1.30322 -1.81164,1.85343 -0.12035,0.25345 -0.26587,0.55271 -0.32338,0.66502 -0.32039,0.6257 0.14709,1.99792 0.94417,2.77145 0.81342,0.789399 2.24135,1.296119 3.2106,1.139309 1.06692,-0.1726 2.12978,-0.875029 2.68612,-1.775199 0.26009,-0.42084 0.46289,-0.43333 0.46289,-0.0285 0,0.52859 -1.13197,1.746829 -1.99192,2.143739 -0.41898,0.19338 -0.76787,0.24767 -1.59465,0.24813 -0.94312,5.3e-4 -1.14313,-0.0396 -1.8372,-0.36843 -1.6165,-0.76591 -2.28166,-1.760029 -2.18117,-3.259889 0.0309,-0.46178 0.0938,-1.01158 0.13977,-1.22178 l 0.0835,-0.38217 h -0.33909 c -0.98802,0 -3.2775,0.92788 -5.19844,2.10684 -0.53571,0.32878 -1.02305,0.59779 -1.08298,0.59779 -0.25932,0 -0.0929,-0.58341 0.23258,-0.81514 0.18784,-0.13376 0.37674,-0.2432 0.41978,-0.2432 0.043,0 0.29945,-0.15182 0.56981,-0.33738 1.29049,-0.88572 3.25157,-1.68129 4.81886,-1.95491 l 0.94341,-0.16469 0.4829,-0.506 c 1.01916,-1.06791 1.84492,-1.51376 3.6538,-1.97282 1.11057,-0.28183 3.19624,-0.11938 4.49198,0.34989 l 0.37624,0.13627 0.91728,-0.93044 c 0.66808,-0.67768 1.13291,-1.03327 1.71102,-1.30896 0.76056,-0.3627 0.91682,-0.54036 0.68951,-0.78396 -0.0573,-0.0615 -0.0611,-0.21755 -0.008,-0.3469 l 0.096,-0.23519 0.008,0.26459 c 0.005,0.14552 0.0521,0.26458 0.10576,0.26458 0.0879,0 0.34262,0.51718 0.71699,1.4557 0.18582,0.46583 0.0413,0.55182 -0.27088,0.1612 -0.47952,-0.59998 -1.0553,-0.37718 -2.58422,0.99996 -1.42687,1.28522 -2.19842,2.65744 -2.52876,4.49749 -0.15397,0.85768 -0.23797,2.05795 -0.144,2.05766 0.0377,-1.2e-4 0.2138,-0.23026 0.39142,-0.51143 0.49738,-0.78731 2.13074,-2.47422 2.91212,-3.00759 0.38589,-0.2634 0.73391,-0.47892 0.77337,-0.47892 0.0395,0 0.2385,-0.0716 0.4423,-0.15916 0.20381,-0.0875 0.74097,-0.27547 1.1937,-0.41762 0.45273,-0.14214 0.92898,-0.30156 1.05833,-0.35426 0.12936,-0.0527 0.36748,-0.14912 0.52917,-0.21425 0.63758,-0.25685 1.50569,-0.69894 2.23426,-1.13784 1.99328,-1.20074 3.21699,-1.57922 5.35046,-1.6548 0.71144,-0.0252 1.57856,-0.10199 1.92693,-0.17062 0.87796,-0.17296 2.77577,-0.15372 3.48233,0.0353 1.2848,0.34372 2.78987,1.41939 3.29288,2.35343 0.35867,0.666 0.0919,0.65157 -0.49984,-0.027 -1.41458,-1.62218 -2.76028,-2.01543 -6.05623,-1.76981 -1.08332,0.0807 -1.96968,0.18678 -1.96968,0.23567 0,0.3261 2.45473,1.79569 2.78667,1.66831 0.0831,-0.0319 0.18373,0.0269 0.22353,0.13058 0.0398,0.10373 0.16942,0.18859 0.28804,0.18859 0.11861,0 0.24836,0.0529 0.28834,0.1176 0.04,0.0647 0.19872,0.11759 0.35277,0.11759 0.15406,0 0.30847,0.0459 0.34314,0.10199 0.11118,0.1799 1.14547,0.29089 2.65547,0.28497 0.80845,-0.003 1.62721,-0.0254 1.81946,-0.0494 0.2714,-0.0339 0.3597,0.007 0.39496,0.1838 0.07,0.35063 -0.30493,0.53656 -1.09036,0.54068 -0.74114,0.004 -0.9576,0.10533 -1.22331,0.57329 -0.0869,0.15309 -0.256,0.45275 -0.37573,0.66591 -0.35527,0.63253 -1.08607,1.70372 -1.13141,1.65839 -0.0231,-0.0231 0.25058,-0.61792 0.60821,-1.32178 0.35763,-0.70386 0.62436,-1.3472 0.59272,-1.42964 -0.0368,-0.0958 -0.28602,-0.14991 -0.69043,-0.14991 -0.34809,0 -0.78632,-0.0467 -0.97383,-0.10387 -0.18751,-0.0571 -0.57905,-0.17398 -0.87009,-0.25965 -0.29104,-0.0857 -0.55562,-0.19223 -0.58796,-0.23679 -0.0323,-0.0445 -0.19033,-0.0997 -0.35108,-0.12252 l -0.29228,-0.0415 0.0296,0.41157 c 0.0328,0.45576 -0.15506,0.89863 -0.24803,0.58467 -0.28895,-0.9758 -0.3783,-1.19464 -0.56152,-1.37536 -0.34579,-0.34107 -0.5597,-0.50282 -0.66498,-0.50282 -0.17439,0 -0.7321,-0.29076 -0.73305,-0.38218 -5e-4,-0.0485 -0.0721,-0.0882 -0.15908,-0.0882 -0.087,0 -0.25394,-0.10584 -0.371,-0.23519 -0.11706,-0.12935 -0.29806,-0.23518 -0.40221,-0.23518 -0.19105,0 -1.71264,1.39806 -2.24827,2.06576 -0.66484,0.82875 -1.28322,2.14077 -1.2871,2.73082 -0.003,0.44686 0.44645,1.18312 0.94066,1.54112 0.4731,0.34272 1.50905,0.799369 2.46775,1.087809 0.52392,0.15763 3.02954,0.22252 3.87706,0.10041 0.57286,-0.0825 0.64212,0.27271 0.109,0.55903 -0.21027,0.11293 -0.52601,0.34686 -0.70165,0.51984 -0.57062,0.562 -1.37535,1.12494 -2.07261,1.44988 -1.60297,0.74702 -1.9063,0.81024 -3.85763,0.80407 -0.97014,-0.003 -1.68452,0.017 -1.5875,0.0445 0.097,0.0275 0.28222,0.0951 0.41157,0.15021 0.52402,0.22311 1.00994,0.27659 2.46945,0.27176 1.55865,-0.005 2.36183,-0.0974 2.47747,-0.28449 0.0356,-0.0575 0.15992,-0.1046 0.27638,-0.1046 0.19586,0 1.64036,-0.67687 1.77346,-0.83101 0.0323,-0.0375 0.13817,-0.0973 0.23519,-0.13304 0.31847,-0.11725 2.04513,-1.57357 2.66651,-2.24903 0.72392,-0.786909 1.60339,-1.373039 2.06021,-1.373039 0.47635,0 0.40991,0.27684 -0.11121,0.4634 -0.68649,0.24576 -1.38459,0.775009 -2.48518,1.884069 -1.24157,1.25113 -1.56366,1.4968 -2.90797,2.21798 -0.4616,0.24763 -1.30088,0.57687 -1.8521,0.72654 -0.42805,0.11624 -0.71486,0.30577 -1.14042,0.75364 -0.85735,0.9023 -1.16843,1.28853 -1.16859,1.4509 -8e-5,0.0808 -0.0401,0.14699 -0.089,0.14699 -0.0793,0 -0.19628,0.23731 -0.49264,0.99954 -0.4053,1.04244 -0.46316,1.79145 -0.18743,2.42655 l 0.17179,0.39567 0.005,-0.49283 c 0.003,-0.27105 0.0575,-0.52553 0.12219,-0.5655 0.0647,-0.04 0.1176,-0.17095 0.1176,-0.29107 0,-0.36491 1.12648,-1.92877 1.93234,-2.68262 1.11376,-1.04186 2.10091,-1.65189 4.18247,-2.5846 1.70906,-0.76581 2.85764,-1.37686 3.49474,-1.85922 1.11907,-0.84727 2.00441,-2.231579 2.2679,-3.546089 0.0748,-0.37294 0.18458,-0.89994 0.24405,-1.17111 0.0595,-0.27118 0.1152,-0.66805 0.12384,-0.88195 0.0121,-0.29852 0.0348,-0.25226 0.0977,0.19907 0.0451,0.32338 0.0393,0.77317 -0.0129,0.99953 -0.0522,0.22637 -0.0975,0.59679 -0.1006,0.82315 -0.007,0.52471 -0.38703,1.664209 -0.76113,2.283769 -0.78496,1.30003 -1.91146,2.12815 -4.29526,3.15756 -0.22637,0.0977 -0.72908,0.32897 -1.11713,0.5138 l -0.70556,0.33608 0.88195,0.0358 c 1.37014,0.0556 2.81868,-0.4117 4.69485,-1.51448 0.84272,-0.49534 1.32776,-1.05148 1.88837,-2.1652 l 0.47428,-0.94221 -9.7e-4,-1.388579 c -9.6e-4,-1.35944 -0.20904,-3.61018 -0.34455,-3.72669 -0.21561,-0.1854 -0.34768,-0.74022 -0.33588,-1.41111 0.0145,-0.82706 -0.20161,-1.39542 -0.80204,-2.109 -0.30708,-0.36494 -1.68413,-1.34257 -2.28147,-1.61972 -1.69466,-0.78628 -3.60814,-0.9001 -6.64398,-0.39519 -1.53541,0.25536 -1.95099,0.27746 -2.40433,0.12785 -0.51692,-0.17061 -0.543,-0.15851 -1.48902,0.69048 -0.78835,0.7075 -1.23356,0.97079 -2.39786,1.41803 -0.54974,0.21118 -1.21585,0.5106 -1.48023,0.66538 -0.31531,0.18459 -0.65922,0.28014 -0.99954,0.27769 -0.50717,-0.004 -1.05268,-0.26597 -0.89047,-0.42818 0.0449,-0.0449 0.14419,-0.019 0.22072,0.0576 0.31761,0.31761 1.50323,-0.005 1.50323,-0.40875 0,-0.207 -0.52549,-0.70813 -0.85255,-0.81305 -0.32846,-0.10536 -0.23808,-0.28535 0.1433,-0.28535 0.36971,0 0.37947,-0.074 0.0895,-0.67853 -0.17709,-0.36914 0.039,-0.58815 0.41161,-0.41724 0.8593,0.39412 1.51412,0.48222 1.72205,0.23168 0.10038,-0.12096 0.0759,-0.2089 -0.1032,-0.371 -0.47188,-0.42705 -0.17746,-0.88157 0.57103,-0.88157 0.82932,0 0.92369,0.34652 0.0986,0.36206 -0.27106,0.005 -0.41346,0.0363 -0.31644,0.0693 0.62492,0.21275 0.94476,0.42417 0.91485,0.60471 -0.0212,0.12811 0.0586,0.21164 0.22495,0.23531 0.21853,0.0311 0.28503,-0.0548 0.43597,-0.56304 0.233,-0.78463 0.6475,-1.51219 0.90873,-1.59511 0.26415,-0.0838 0.83016,0.20601 1.21701,0.62321 l 0.29885,0.32229 0.30373,-0.17638 c 0.39906,-0.23173 0.78407,-0.96338 0.91851,-1.74548 0.0522,-0.30357 -0.0268,-0.58121 -0.34648,-1.21823 -1.08703,-2.16598 -2.03439,-3.08411 -3.32606,-3.22347 -0.57027,-0.0615 -1.07622,0.0537 -2.59026,0.5897 -0.4751,0.16821 -1.0487,0.30583 -1.27467,0.30583 -0.27062,0 -0.4775,0.0816 -0.6061,0.23901 -0.17358,0.21249 -0.23171,0.22228 -0.52404,0.0882 -0.28842,-0.13229 -0.32026,-0.19776 -0.25926,-0.53299 0.094,-0.51622 -0.004,-0.4807 -0.30563,0.11122 l -0.25171,0.4934 -0.16225,-0.22189 -0.16225,-0.22189 0.005,0.40465 c 0.003,0.22256 0.0508,0.64164 0.10671,0.93129 0.0774,0.40136 0.0583,0.61038 -0.0804,0.87865 -0.34179,0.66095 -0.51265,1.69913 -0.42991,2.61221 0.043,0.47443 0.0505,0.86259 0.0167,0.86259 -0.14206,0 -0.44133,-1.20893 -0.44133,-1.78275 v -0.62143 l -0.19897,0.29075 c -0.10944,0.15991 -0.2285,0.31721 -0.26459,0.34954 -0.0361,0.0323 -0.32807,0.37128 -0.64885,0.75319 -0.32078,0.38192 -0.82062,0.84494 -1.11075,1.02894 l -0.52752,0.33454 h -1.3311 -1.3311 l -0.64214,-0.42636 c -0.95627,-0.63492 -1.59704,-0.74424 -3.54369,-0.60454 -2.0355,0.14607 -4.35245,-0.023 -7.15824,-0.52227 -1.72902,-0.30768 -2.18176,-0.34705 -3.35139,-0.29142 -0.98773,0.047 -1.63229,0.0123 -2.39082,-0.12851 -0.91592,-0.17008 -1.07437,-0.17258 -1.34234,-0.0212 -0.44505,0.25139 -0.59874,0.83066 -0.60882,2.2946 -0.008,1.14273 0.0251,1.37013 0.27317,1.88148 0.43708,0.90117 0.62025,1.34633 0.86837,2.11036 0.542,1.66898 0.85264,3.10312 1.19714,5.52685 0.12869,0.905459 0.289,1.831509 0.35624,2.057869 0.0672,0.22637 0.11035,1.12595 0.0958,1.99908 l -0.0264,1.5875 0.26359,0.52916 c 0.28883,0.57985 0.70069,1.12298 0.78649,1.03717 0.03,-0.03 -0.0735,-0.22794 -0.22993,-0.43997 -0.29403,-0.39853 -0.28387,-0.75275 0.0198,-0.69117 0.0954,0.0194 0.32076,0.29804 0.50081,0.61931 0.18006,0.32128 0.43931,0.65846 0.57612,0.7493 0.38932,0.25849 0.30954,-0.0221 -0.23374,-0.82212 -0.35882,-0.52838 -0.44842,-0.74458 -0.34955,-0.84345 0.18419,-0.18418 0.47274,0.0151 0.7508,0.51847 0.4178,0.75637 0.77502,1.13455 1.30861,1.38536 0.8002,0.37614 0.97674,0.30399 0.37677,-0.15398 -0.77814,-0.59397 -1.36215,-1.26304 -1.36578,-1.56471 -0.005,-0.37926 0.18888,-0.32806 0.6822,0.18058 0.69478,0.71636 1.27294,1.10595 1.57181,1.05918 0.22956,-0.0359 0.17935,-0.0902 -0.328,-0.35451 -0.90593,-0.47196 -1.03245,-0.73992 -1.0466,-2.21657 l -0.0119,-1.24313 0.29366,-0.13858 c 0.38691,-0.1826 0.65869,-0.17485 1.05493,0.03 0.48815,0.25244 0.63139,0.48517 0.62409,1.01403 -0.009,0.62566 0.25828,0.56166 0.31122,-0.0746 0.0799,-0.96027 -0.41711,-1.696 -1.14568,-1.696 -0.45684,0 -1.06816,-0.37864 -1.06816,-0.6616 0,-0.29125 0.17785,-0.46705 0.28959,-0.28624 0.0389,0.0629 0.3832,0.17582 0.76519,0.25097 1.16243,0.22869 1.53085,0.80929 1.56829,2.4715 0.0239,1.05932 -0.0984,1.40037 -0.50193,1.40037 -0.23897,0 -0.47484,-0.46357 -0.47484,-0.93324 0,-0.46875 -0.33483,-0.82551 -0.85255,-0.90841 l -0.44097,-0.0706 -0.0171,0.51515 c -0.0271,0.81755 0.0301,1.32591 0.16829,1.49447 0.0704,0.0859 0.38473,0.28625 0.6985,0.44525 0.77787,0.39418 1.04061,1.09899 0.5741,1.54007 -0.12237,0.1157 -0.24186,0.3162 -0.26554,0.44555 -0.0316,0.17248 -0.15254,0.24526 -0.45366,0.27297 -0.22584,0.0208 -0.46089,0.0869 -0.52233,0.14699 -0.0614,0.0601 -0.33613,0.10921 -0.61042,0.10921 -0.27429,0 -0.53141,0.0529 -0.57138,0.11759 -0.23145,0.37449 -1.3503,-0.1954 -2.09947,-1.06935 -0.24429,-0.28498 -0.60463,-0.79823 -0.80076,-1.14055 l -0.3566,-0.6224 0.0764,-1.08269 c 0.1151,-1.63139 0.10711,-2.16964 -0.0475,-3.19936 -0.0777,-0.51741 -0.18776,-1.284699 -0.24464,-1.705089 -0.0569,-0.4204 -0.16079,-1.08185 -0.23091,-1.46991 -0.0701,-0.38806 -0.1573,-0.91722 -0.19374,-1.17593 -0.0364,-0.2587 -0.11373,-0.52064 -0.17178,-0.58208 -0.058,-0.0614 -0.10555,-0.2606 -0.10555,-0.44257 0,-0.18197 -0.0464,-0.42274 -0.10316,-0.53504 -0.0567,-0.11231 -0.16607,-0.41586 -0.24296,-0.67456 -0.0769,-0.25871 -0.18922,-0.58944 -0.24962,-0.73496 -0.0604,-0.14552 -0.16273,-0.39687 -0.22741,-0.55856 -0.27823,-0.69558 -0.40449,-0.88195 -0.5975,-0.88195 -0.15012,0 -0.22653,-0.13375 -0.28552,-0.49977 -0.12887,-0.79966 -1.67381,-3.13588 -3.50638,-5.30225 -0.48293,-0.5709 -1.39754,-1.48872 -1.48352,-1.48872 -0.0506,0 -0.2624,-0.3461 -0.47065,-0.76911 -0.52197,-1.06027 -0.95317,-1.3326 -2.31749,-1.46369 -0.57218,-0.055 -1.27845,-0.15455 -1.5695,-0.22128 -0.5411,-0.12407 -3.27987,-0.99876 -3.70416,-1.18301 -0.12935,-0.0562 -0.4204,-0.16573 -0.64676,-0.24346 -0.41102,-0.14114 -0.65455,-0.23479 -1.26412,-0.48611 -0.49739,-0.20507 -0.88814,-0.36001 -1.14653,-0.45463 -0.12935,-0.0474 -0.38071,-0.14613 -0.55856,-0.21946 -0.17786,-0.0733 -0.45568,-0.18624 -0.61736,-0.25091 -0.46612,-0.18645 -0.76168,-0.31523 -1.74308,-0.75949 -0.50597,-0.22904 -0.94438,-0.41644 -0.97426,-0.41644 -0.11555,0 -4.74839,-2.35045 -4.86739,-2.46944 -0.16891,-0.16892 -0.61777,-0.35278 -0.86122,-0.35278 -0.37225,0 -0.97321,-0.66691 -2.22524,-2.46945 -0.56155,-0.80845 -1.35359,-1.82039 -1.76009,-2.24877 -1.35406,-1.42692 -1.57108,-1.68471 -2.186,-2.59661 -0.42494,-0.63016 -0.61175,-1.02402 -0.61355,-1.29352 -0.004,-0.53349 -0.39434,-1.34786 -0.69213,-1.44238 -0.36101,-0.11458 -0.66215,0.0192 -0.81918,0.3638 -0.11765,0.25822 -0.0938,0.40146 0.15854,0.95269 0.19707,0.43045 0.29702,0.85573 0.29702,1.26377 0,0.33825 0.0463,0.76842 0.10294,0.95593 0.0566,0.18751 0.16738,0.63197 0.24613,0.98769 0.14805,0.66877 0.32397,1.29687 0.47756,1.70509 0.11006,0.2925 0.4559,1.39999 0.59673,1.91088 0.0579,0.2102 0.16753,0.58061 0.24354,0.82315 0.076,0.24253 0.16861,1.36701 0.20579,2.49884 l 0.0676,2.05787 0.41157,-0.0299 c 2.97206,-0.21616 3.51002,-0.16699 4.89623,0.44756 1.08522,0.48111 2.07956,1.20515 3.45503,2.51584 2.02663,1.93118 2.68984,2.40032 5.25842,3.71971 1.21796,0.62562 4.30053,1.87228 4.62951,1.87228 0.38392,0 1.44527,0.4647 2.00903,0.87962 0.3033,0.22323 0.75867,0.71194 1.01193,1.08604 0.46137,0.68149 0.96485,1.90265 0.96485,2.34018 0,0.12828 0.0475,0.28351 0.10555,0.34495 0.058,0.0614 0.13536,0.32338 0.17179,0.58208 0.0723,0.51321 0.23,1.40055 0.4285,2.41065 0.0699,0.35572 0.15721,0.81923 0.194,1.03002 0.0368,0.2108 0.11396,0.41236 0.17149,0.44792 0.0575,0.0356 0.1046,0.19069 0.1046,0.34474 0,0.15406 0.0529,0.31281 0.11759,0.35278 0.0647,0.04 0.11759,0.17611 0.11759,0.30252 0,0.12641 0.0486,0.32173 0.10799,0.43403 0.16022,0.30297 0.59757,1.30996 0.59757,1.37589 0,0.0314 0.16532,0.415649 0.36738,0.853829 0.78736,1.70743 1.18256,2.70296 1.41015,3.55223 0.13034,0.48639 0.29291,0.95173 0.36126,1.03408 0.0813,0.0979 0.44283,0.14974 1.04482,0.14974 1.23392,0 2.17403,-0.19149 3.24296,-0.66055 0.45772,-0.20085 0.59451,-0.20408 0.66209,-0.0156 0.10048,0.28022 -0.14562,0.52915 -0.76401,0.77279 -1.06291,0.41878 -1.63885,0.52329 -2.87823,0.52225 -1.32111,-10e-4 -1.26144,-0.0376 -1.39513,0.8539 l -0.0843,0.56211 0.28062,-0.0875 c 0.62801,-0.19576 1.58692,-0.19833 2.2797,-0.006 0.38805,0.10766 0.8643,0.23784 1.05833,0.28929 0.86749,0.23 1.3743,0.57175 1.51667,1.02271 0.12094,0.38313 -0.1164,0.4388 -0.54584,0.12804 -0.64233,-0.46482 -0.99128,-0.58987 -2.32315,-0.83253 -1.1303,-0.20594 -2.46944,0.0729 -2.46944,0.51424 0,0.11862 -0.0529,0.24837 -0.11759,0.28835 -0.0647,0.04 -0.11759,0.20256 -0.11759,0.36131 0,0.15875 -0.0612,0.40698 -0.13596,0.55162 -0.28551,0.55231 -0.33442,0.67674 -0.33442,0.85095 0,0.0988 -0.0485,0.27147 -0.10782,0.38378 -0.0593,0.1123 -0.19563,0.52169 -0.30296,0.90974 -0.10733,0.38806 -0.23868,0.81139 -0.29189,0.94074 -0.0532,0.12936 -0.16034,0.4204 -0.23807,0.64676 -0.1624,0.47295 -0.26682,0.74978 -0.45463,1.20533 -0.0733,0.17786 -0.19333,0.4689 -0.26666,0.64676 -0.0733,0.17785 -0.17916,0.44244 -0.23518,0.58796 -0.28814,0.74846 -0.63099,1.55814 -0.87904,2.07594 -0.09,0.18779 -0.16356,0.38466 -0.16356,0.43748 0,0.0528 -0.12821,0.37634 -0.28491,0.71892 -0.1567,0.34259 -0.39922,0.91288 -0.53892,1.26732 -0.3134,0.7951 -0.45447,0.97202 -0.69432,0.87082 -0.10282,-0.0434 -0.37215,-0.12146 -0.59852,-0.17351 -2.07672,-0.47745 -2.16371,-0.48628 -4.17453,-0.42395 -1.09949,0.0341 -2.26366,0.11311 -2.58704,0.17561 -1.67486,0.32373 -2.2893,0.45689 -3.32199,0.71995 -0.24254,0.0618 -0.59972,0.14514 -0.79375,0.18524 -0.19403,0.0401 -0.45861,0.11787 -0.58796,0.1728 -0.12936,0.0549 -0.39394,0.13269 -0.58797,0.17279 -0.19403,0.0401 -0.55121,0.12347 -0.79375,0.18525 -2.80339,0.71411 -3.53895,0.82041 -6.20301,0.89641 -2.08503,0.0595 -2.41498,0.0356 -4.54496,-0.32852 -0.55083,-0.0942 -0.78848,-0.0887 -0.99711,0.023 -0.52539,0.28118 -0.54754,0.32782 -0.82908,1.74549 l -0.12641,0.6365 -0.9687,0.951 c -0.53278,0.52305 -1.3777,1.31845 -1.8776,1.76755 -0.92136,0.82775 -1.55249,1.64529 -2.09303,2.71123 -0.17535,0.34577 -0.59377,0.84658 -1.01582,1.21582 -0.39471,0.34532 -0.71766,0.69074 -0.71766,0.76758 0,0.25284 0.36186,0.66243 0.58523,0.66243 0.12051,0 0.49132,-0.30427 0.82402,-0.67616 z m 61.61775,-21.73015 c -0.13658,-0.25519 -0.13358,-0.37129 0.0205,-0.79375 l 0.18042,-0.49485 h 0.45944 0.45944 l 0.0361,0.4339 c 0.0522,0.62823 -0.25107,1.1536 -0.66598,1.1536 -0.23298,0 -0.37688,-0.0878 -0.48985,-0.2989 z m -14.04172,-9.72586 c -0.14978,-0.71641 -0.20357,-1.416789 -0.30033,-3.909959 -0.10769,-2.77516 -0.24913,-4.37547 -0.47808,-5.40926 -0.1702,-0.76847 -0.1971,-1.34523 -0.0633,-1.35635 0.12285,-0.0102 0.41688,0.77067 0.42215,1.12117 0.002,0.12935 0.0691,0.42039 0.14931,0.64676 l 0.14578,0.41157 1.05778,0.025 c 0.58178,0.0137 1.61341,0.12818 2.2925,0.25433 1.98924,0.36952 2.76132,0.485 3.24736,0.4857 0.25124,3.6e-4 0.65525,0.0558 0.89778,0.12312 0.36415,0.10113 0.44097,0.17538 0.44097,0.42621 v 0.30375 l -0.55856,-0.08 c -0.30721,-0.044 -1.00836,-0.12866 -1.5581,-0.18818 -1.20487,-0.13045 -1.66525,-0.20403 -2.32118,-0.37098 l -0.4985,-0.12688 -0.38345,0.29558 c -0.21089,0.16256 -0.51574,0.41189 -0.67743,0.55405 -0.29117,0.256 -1.42996,0.82652 -1.64978,0.82652 -0.14784,0 -0.1519,3.67365 -0.005,4.43333 0.22245,1.149639 0.24552,1.799079 0.0639,1.799079 -0.0927,0 -0.1935,-0.11906 -0.22392,-0.26458 z m 0.55597,-6.790979 c 0.20837,0 0.7773,-0.33973 1.11176,-0.66388 0.31983,-0.30997 0.14247,-0.39445 -0.82814,-0.39445 h -0.97514 l 0.11821,0.64526 c 0.0778,0.42463 0.1579,0.60557 0.2343,0.52917 0.0639,-0.0639 0.21641,-0.1161 0.33901,-0.1161 z m 32.13347,4.79513 c -0.22109,-0.31565 -0.25403,-1.31061 -0.041,-1.23961 0.0781,0.026 0.15482,0.24733 0.17045,0.49175 0.0156,0.24443 0.1117,0.57149 0.21347,0.72681 0.15883,0.24242 0.16062,0.2824 0.0126,0.2824 -0.0948,0 -0.2548,-0.1176 -0.35549,-0.26135 z m -4.1812,0.0581 c -0.097,-0.0369 -0.20285,-0.10499 -0.23519,-0.15126 -0.12427,-0.17777 -0.58795,-0.25207 -0.58868,-0.0943 -7.2e-4,0.15359 -0.15946,-0.12055 -0.44617,-0.7705 -0.12679,-0.28743 -0.12357,-0.32776 0.0217,-0.27201 0.18799,0.0721 0.30761,-0.14629 0.30761,-0.56168 0,-0.42369 0.24676,-0.55183 0.56539,-0.29359 0.23468,0.1902 0.25229,0.25568 0.13013,0.48395 -0.1048,0.19581 -0.10656,0.27556 -0.007,0.3088 0.0739,0.0247 0.13445,0.15002 0.13445,0.27861 0,0.21716 0.24951,0.56976 0.40318,0.56976 0.1161,0 0.073,-0.45292 -0.0504,-0.52917 -0.0647,-0.04 -0.11759,-0.17097 -0.11759,-0.29112 0,-0.12014 -0.0662,-0.24207 -0.14699,-0.27094 -0.0808,-0.0289 -0.10642,-0.0959 -0.0568,-0.14895 0.0496,-0.053 0.15277,-0.0338 0.22931,0.0427 0.0765,0.0765 0.25927,0.13916 0.40609,0.13916 0.23468,0 0.26382,-0.0533 0.24107,-0.44098 l -0.0259,-0.44097 0.44097,-0.0365 c 0.25527,-0.0211 0.44097,0.016 0.44097,0.0882 0,0.0686 -0.13229,0.12469 -0.29398,0.12469 -0.16169,0 -0.29398,0.0529 -0.29398,0.11759 0,0.0647 0.0567,0.1176 0.12601,0.1176 0.0693,0 0.1098,0.12365 0.09,0.27478 -0.0198,0.15114 0.0558,0.36658 0.16797,0.47877 0.23639,0.23639 0.2453,0.30005 0.0756,0.53996 -0.0897,0.12679 -0.14097,0.13672 -0.18242,0.0353 -0.12059,-0.29497 -0.53608,-0.74085 -0.69037,-0.74085 -0.27152,0 -0.33099,0.24711 -0.0755,0.31391 0.17977,0.047 0.21493,0.11183 0.13923,0.25667 -0.0557,0.10657 -0.16502,0.36575 -0.24294,0.57595 -0.1463,0.39466 -0.16937,0.40934 -0.46591,0.29646 z m -0.2105,-0.64942 c -0.0729,-0.14542 -0.19208,-0.49839 -0.26494,-0.78438 -0.0971,-0.38108 -0.16073,-0.47531 -0.23829,-0.35277 -0.16582,0.26199 -0.128,0.67542 0.0936,1.02387 0.34632,0.54444 0.6705,0.6341 0.40958,0.11328 z m 5.49688,0.17657 c -0.0894,-0.17786 -0.26364,-0.47298 -0.38711,-0.65582 -0.23107,-0.34219 -0.12751,-0.66668 0.1567,-0.49103 0.15708,0.0971 0.58847,1.0527 0.58847,1.30359 0,0.27102 -0.1833,0.19078 -0.35806,-0.15674 z m 1.2988,0.0882 c 0,-0.0862 0.0353,-0.12151 0.0784,-0.0784 0.0431,0.0431 0.0431,0.11367 0,0.15679 -0.0431,0.0431 -0.0784,0.008 -0.0784,-0.0784 z m -4.93888,-0.17639 c 0,-0.0323 0.0265,-0.0588 0.0588,-0.0588 0.0323,0 0.0588,0.0265 0.0588,0.0588 0,0.0323 -0.0265,0.0588 -0.0588,0.0588 -0.0323,0 -0.0588,-0.0265 -0.0588,-0.0588 z m 0.39197,-0.25484 c 0.0431,-0.0431 0.11367,-0.0431 0.15679,0 0.0431,0.0431 0.008,0.0784 -0.0784,0.0784 -0.0862,0 -0.12152,-0.0353 -0.0784,-0.0784 z m 0.19599,-0.21559 c 0,-0.0323 0.0265,-0.0588 0.0588,-0.0588 0.0323,0 0.0588,0.0265 0.0588,0.0588 0,0.0323 -0.0265,0.0588 -0.0588,0.0588 -0.0323,0 -0.0588,-0.0265 -0.0588,-0.0588 z m -22.13681,-0.69286 c -0.23235,-0.17638 -0.28007,-0.88889 -0.0841,-1.25515 0.26855,-0.50177 1.0542,-0.094 1.0542,0.54721 0,0.29005 -0.42072,0.87344 -0.6259,0.8679 -0.0761,-0.002 -0.23106,-0.074 -0.34424,-0.15996 z m 22.73563,-1.76502 c -0.14985,-0.15951 -0.29451,-0.50001 -0.33238,-0.78236 -0.0828,-0.61709 0.0991,-0.54985 0.31958,0.11814 0.0865,0.26195 0.1889,0.47627 0.22766,0.47627 0.0388,0 0.13658,0.10583 0.21736,0.23518 0.21691,0.34732 -0.0934,0.31341 -0.43222,-0.0472 z m -6.36931,-7.82617 c -0.2805,-0.29486 -0.46192,-0.59909 -0.46192,-0.7746 0,-0.38726 0.12759,-0.35754 0.41304,0.0962 0.13016,0.20689 0.40577,0.48267 0.61246,0.61283 0.39936,0.25149 0.43855,0.44639 0.10283,0.51148 -0.12105,0.0235 -0.393,-0.15851 -0.66641,-0.44592 z m 1.1235,-0.52741 c -0.3464,-0.59108 -0.92449,-1.00659 -1.40045,-1.00659 -0.18102,0 -0.28534,-0.0503 -0.24376,-0.11759 0.10214,-0.16528 0.83381,-0.14651 1.14602,0.0294 0.44481,0.25062 1.02944,0.94424 1.02944,1.22137 0,0.46635 -0.21359,0.41546 -0.53125,-0.12658 z m -71.82739,45.599269 c -0.0431,-0.0431 -0.0784,-0.008 -0.0784,0.0784 0,0.0862 0.0353,0.12152 0.0784,0.0784 0.0431,-0.0431 0.0431,-0.11367 0,-0.15679 z m -20.44531,-4.30193 c 3.6707,-4.2077 6.87946,-6.2553 10.21409,-6.51788 0.58645,-0.0462 0.73208,-0.0227 0.76435,0.12313 0.0265,0.1197 0.48987,-0.2578 1.38054,-1.12468 l 1.34069,-1.30485 1.42274,0.0982 c 2.59479,0.17917 3.79353,0.0681 6.36664,-0.59 1.15569,-0.29557 4.22049,-1.28936 4.55011,-1.47542 0.1123,-0.0634 0.31074,-0.11525 0.44097,-0.11525 0.13023,0 0.23678,-0.0724 0.23678,-0.16093 0,-0.11417 -0.24767,-0.18367 -0.85254,-0.23921 -0.4689,-0.0431 -1.27588,-0.12708 -1.79329,-0.18671 -2.13115,-0.24563 -5.01406,-0.34649 -6.7298,-0.23546 -1.87948,0.12162 -2.85895,0.27109 -4.61789,0.70472 -0.29104,0.0717 -0.74083,0.17758 -0.99953,0.23518 -0.25871,0.0576 -0.7085,0.16344 -0.99954,0.23519 -1.66555,0.4106 -2.53428,0.56522 -4.43089,0.78865 l -1.66747,0.19643 -1.27235,-0.19449 c -0.69979,-0.10698 -1.4341,-0.22729 -1.63179,-0.26737 -0.31313,-0.0635 -0.4147,-0.0117 -0.78814,0.40163 -0.44902,0.49701 -0.69739,0.97361 -1.19155,2.28648 -0.40956,1.08809 -1.27283,2.72618 -1.80899,3.43265 -0.24894,0.328 -0.86034,0.87187 -1.38285,1.2301 -0.51514,0.35317 -1.13969,0.8518 -1.3879,1.10805 l -0.45127,0.46591 0.0788,0.53825 c 0.11116,0.75952 0.2279,0.82543 0.68216,0.38514 0.2134,-0.20683 0.48516,-0.37606 0.60391,-0.37606 0.20864,0 0.59684,-0.3641 0.97059,-0.91034 0.21493,-0.31411 0.38981,-0.24512 0.38981,0.15378 0,0.20196 -0.25125,0.53373 -0.8416,1.11134 -0.46288,0.45289 -0.80854,0.8565 -0.76812,0.89691 0.13827,0.13828 0.76468,-0.21271 1.30697,-0.73231 0.29813,-0.28566 0.59405,-0.51938 0.65759,-0.51938 0.0635,0 0.11634,0.14552 0.11733,0.32338 10e-4,0.22996 0.0315,0.27656 0.10444,0.16132 0.0564,-0.0891 0.16148,-0.1257 0.23339,-0.0813 0.1627,0.10056 0.17218,0.61539 0.0131,0.71369 -0.0647,0.04 -0.1176,0.13099 -0.1176,0.20227 0,0.0713 0.16549,-0.0641 0.36775,-0.30092 0.20225,-0.23679 0.44038,-0.43052 0.52916,-0.43052 0.2363,0 0.19696,0.39348 -0.0738,0.73764 -0.12935,0.16445 -0.23518,0.33033 -0.23518,0.36864 0,0.23446 0.3403,-0.0698 1.27013,-1.13568 z m -2.68124,0.67616 c 0,-0.0323 -0.0265,-0.0588 -0.0588,-0.0588 -0.0323,0 -0.0588,0.0265 -0.0588,0.0588 0,0.0323 0.0265,0.0588 0.0588,0.0588 0.0323,0 0.0588,-0.0264 0.0588,-0.0588 z m 0.19599,-0.25479 c -0.0431,-0.0431 -0.0784,-0.008 -0.0784,0.0784 0,0.0862 0.0353,0.12151 0.0784,0.0784 0.0431,-0.0431 0.0431,-0.11367 0,-0.15679 z m 0.23519,-0.23518 c -0.0431,-0.0431 -0.0784,-0.008 -0.0784,0.0784 0,0.0862 0.0353,0.12152 0.0784,0.0784 0.0431,-0.0431 0.0431,-0.11367 0,-0.15679 z m 102.10956,-20.02156 c 4.54782,-0.25251 5.22373,-0.38786 6.70278,-1.34215 0.93505,-0.60329 2.70855,-2.52081 3.73479,-4.03808 0.5329,-0.78788 0.96892,-1.46496 0.96892,-1.50462 0,-0.0397 0.26458,-0.46421 0.58796,-0.94344 0.32338,-0.47922 0.58796,-0.922219 0.58796,-0.984419 0,-0.0622 0.0397,-0.13074 0.0882,-0.1523 0.15519,-0.069 0.49977,-0.77262 0.49977,-1.02054 0,-0.29634 0.21118,-0.44202 0.38654,-0.26666 0.072,0.072 0.38043,0.13087 0.68546,0.13087 0.4718,0 0.69211,-0.0913 1.47579,-0.61129 0.50665,-0.33621 0.94871,-0.65038 0.98235,-0.69815 0.0744,-0.10568 1.14524,-0.57204 1.31349,-0.57204 0.28394,0 1.62396,-0.7327 1.62396,-0.88795 0,-0.0937 -0.0254,-0.17039 -0.0564,-0.17039 -0.2228,0 -1.11717,0.44002 -1.37246,0.67523 -0.30418,0.28026 -0.68791,0.3249 -0.76608,0.0891 -0.0692,-0.20883 0.46641,-0.70966 1.48836,-1.39159 0.54917,-0.36646 0.93209,-0.66628 0.85095,-0.66628 -0.13887,0 -0.60324,0.2237 -0.73231,0.35277 -0.32709,0.32709 -1.55074,1.17593 -1.69517,1.17593 -0.52063,0 -0.0265,-0.70312 0.98961,-1.40818 0.22637,-0.15707 0.43803,-0.31714 0.47037,-0.35571 0.0323,-0.0386 0.23382,-0.19241 0.44774,-0.34187 0.21392,-0.14946 0.36352,-0.29718 0.33245,-0.32825 -0.0494,-0.0494 -1.44747,0.83481 -1.60334,1.01407 -0.21411,0.24625 -0.86758,0.6049 -1.00562,0.55193 -0.26112,-0.1002 -0.0781,-0.42264 0.64211,-1.13106 0.8814,-0.86702 1.02972,-1.05857 0.81888,-1.05758 -0.0888,4.1e-4 -0.57701,0.39729 -1.08499,0.88194 -0.50798,0.48466 -0.9747,0.88119 -1.03715,0.88119 -0.0624,0 -0.34427,0.15875 -0.62628,0.35278 -0.28201,0.19403 -0.54668,0.35278 -0.58815,0.35278 -0.0415,0 -0.15527,0.0799 -0.25288,0.17747 -0.0976,0.0976 -0.22632,0.14728 -0.28601,0.11038 -0.18323,-0.11323 0.0212,-0.67977 0.38413,-1.06453 0.27156,-0.28791 0.32787,-0.43088 0.26631,-0.67616 -0.10515,-0.41897 -0.20223,-0.39306 -0.56148,0.1498 -0.29834,0.45082 -0.99568,1.06771 -1.20728,1.068 -0.36537,4.9e-4 -1.22362,1.27684 -1.22362,1.81969 0,0.17348 -0.15649,0.38642 -0.44098,0.60003 -0.24253,0.18212 -0.46743,0.36111 -0.49977,0.39775 -0.0323,0.0367 -0.34983,0.30399 -0.70555,0.59408 -0.81404,0.66388 -1.37843,1.17042 -2.25842,2.026959 -0.38206,0.37189 -0.73565,0.67616 -0.78575,0.67616 -0.0501,0 -0.1638,0.14552 -0.25268,0.32338 -0.47854,0.95769 -1.30183,1.93598 -2.31292,2.74837 -0.97811,0.78589 -2.65163,1.38895 -4.09162,1.47444 -0.93814,0.0557 -1.38,0.006 -2.23426,-0.2498 -0.6122,-0.18353 -3.82176,2.63874 -3.82176,3.3606 0,0.13846 0.82134,0.11898 5.17408,-0.12269 z m -33.98425,-1.71347 c 0,-0.0323 -0.0265,-0.0588 -0.0588,-0.0588 -0.0323,0 -0.0588,0.0265 -0.0588,0.0588 0,0.0323 0.0265,0.0588 0.0588,0.0588 0.0323,0 0.0588,-0.0265 0.0588,-0.0588 z m -1.17593,-0.23519 c 0,-0.0323 -0.0265,-0.0588 -0.0588,-0.0588 -0.0323,0 -0.0588,0.0265 -0.0588,0.0588 0,0.0323 0.0265,0.0588 0.0588,0.0588 0.0323,0 0.0588,-0.0265 0.0588,-0.0588 z m 26.75204,-2.27373 c -0.0841,-0.0841 -0.4113,0.0855 -0.4113,0.21317 0,0.0774 0.0844,0.0696 0.22984,-0.0213 0.12641,-0.0789 0.20806,-0.1653 0.18146,-0.19191 z m -0.26431,-0.92035 c -0.0808,-0.0326 -0.21314,-0.0326 -0.29398,0 -0.0808,0.0326 -0.0147,0.0593 0.14699,0.0593 0.16169,0 0.22783,-0.0267 0.14699,-0.0593 z m 3.28362,-0.28429 c 1.66067,-0.3367 2.57131,-0.70255 3.8936,-1.56424 l 0.56264,-0.36664 -1.2094,-0.0767 c -0.66517,-0.0422 -1.5269,-0.14126 -1.91495,-0.22016 -1.3667,-0.27789 -1.36111,-0.2784 -2.17546,0.19898 -0.4204,0.24644 -1.07856,0.76443 -1.46259,1.15108 l -0.69823,0.703 0.52184,0.13929 c 0.67664,0.1806 1.69474,0.19512 2.48255,0.0354 z m -9.31024,-5.223479 c 0,-0.0323 -0.0265,-0.0588 -0.0588,-0.0588 -0.0323,0 -0.0588,0.0265 -0.0588,0.0588 0,0.0323 0.0265,0.0588 0.0588,0.0588 0.0323,0 0.0588,-0.0265 0.0588,-0.0588 z m 0.56325,-0.39561 c 0.86902,-0.43665 1.60435,-0.53082 3.01464,-0.38607 0.71621,0.0735 1.73311,0.15132 2.25977,0.17291 l 0.95757,0.0393 0.14232,-0.4796 c 0.18218,-0.61391 0.83079,-1.98193 0.99315,-2.09469 0.0684,-0.0475 0.081,-0.0872 0.028,-0.0882 -0.053,-9.9e-4 -0.31761,0.14747 -0.58797,0.32992 -1.29898,0.87662 -2.76281,1.3986 -4.354,1.55259 -1.83344,0.17743 -2.63251,0.43972 -2.90804,0.95456 -0.14604,0.27288 -0.0897,0.27279 0.45457,-6.9e-4 z m 3.13421,-1.50476 c 1.44443,-0.36315 2.84228,-0.94949 3.79257,-1.59084 l 0.49326,-0.3329 0.12052,0.20696 c 0.0683,0.11733 0.12207,0.14258 0.1241,0.0583 0.002,-0.0818 0.4269,-0.57371 0.94431,-1.09321 0.51741,-0.51949 0.94074,-0.97537 0.94074,-1.01305 0,-0.0377 -0.32956,-0.0312 -0.73235,0.0143 -0.73865,0.0836 -2.27047,0.6109 -3.03061,1.04328 -2.04775,1.16482 -3.39447,1.83296 -4.32239,2.14446 -0.4995,0.16767 -0.9256,0.32228 -0.94688,0.34356 -0.0213,0.0213 0.0311,0.153 0.11645,0.29272 l 0.15513,0.25403 0.82315,-0.076 c 0.45273,-0.0418 1.13763,-0.15504 1.522,-0.25168 z m 10.06087,-1.50981 c 0,-0.0323 -0.0265,-0.0588 -0.0588,-0.0588 -0.0323,0 -0.0588,0.0265 -0.0588,0.0588 0,0.0323 0.0265,0.0588 0.0588,0.0588 0.0323,0 0.0588,-0.0265 0.0588,-0.0588 z m -9.64259,-2.70463 c 0,-0.0323 -0.0265,-0.0588 -0.0588,-0.0588 -0.0323,0 -0.0588,0.0265 -0.0588,0.0588 0,0.0323 0.0265,0.0588 0.0588,0.0588 0.0323,0 0.0588,-0.0264 0.0588,-0.0588 z m 0.47037,-0.504 c 0,-0.12344 -0.96634,-0.86192 -1.03631,-0.79195 -0.11437,0.11438 0.58835,0.88437 0.80711,0.88437 0.12606,0 0.2292,-0.0416 0.2292,-0.0924 z m 1.57777,-0.24181 c 0.31802,-0.17211 0.60196,-0.38412 0.63096,-0.47113 0.0415,-0.12452 0.002,-0.13095 -0.18642,-0.0302 -0.13154,0.0704 -0.3917,0.0975 -0.57813,0.0602 -0.28443,-0.0569 -0.36166,-0.018 -0.48,0.24173 -0.28326,0.62169 -0.21043,0.64536 0.61359,0.19941 z m -1.1074,0.0402 c 0,-0.0323 -0.0265,-0.0588 -0.0588,-0.0588 -0.0323,0 -0.0588,0.0265 -0.0588,0.0588 0,0.0323 0.0265,0.0588 0.0588,0.0588 0.0323,0 0.0588,-0.0265 0.0588,-0.0588 z m -0.27438,-0.37237 c -0.0431,-0.0431 -0.0784,-0.008 -0.0784,0.0784 0,0.0862 0.0353,0.12151 0.0784,0.0784 0.0431,-0.0431 0.0431,-0.11368 0,-0.15679 z m -0.19599,-0.098 c 0,-0.0323 -0.0265,-0.0588 -0.0588,-0.0588 -0.0323,0 -0.0588,0.0265 -0.0588,0.0588 0,0.0323 0.0265,0.0588 0.0588,0.0588 0.0323,0 0.0588,-0.0265 0.0588,-0.0588 z m 0.74808,-0.11759 c 0.0372,-0.097 0.0164,-0.17639 -0.0462,-0.17639 -0.0626,0 -0.11391,0.0794 -0.11391,0.17639 0,0.097 0.0208,0.17639 0.0462,0.17639 0.0254,0 0.0767,-0.0794 0.1139,-0.17639 z m 1.72137,-0.11759 c 0,-0.0323 -0.0265,-0.0588 -0.0588,-0.0588 -0.0323,0 -0.0588,0.0265 -0.0588,0.0588 0,0.0323 0.0265,0.0588 0.0588,0.0588 0.0323,0 0.0588,-0.0264 0.0588,-0.0588 z m 0.66837,-0.60165 c 0.10794,-0.10111 0.0976,-0.19208 -0.0452,-0.39594 l -0.18538,-0.26466 -0.15831,0.45473 c -0.2493,0.71611 -0.18952,0.74775 0.38893,0.20587 z m 1.06584,-0.65044 c 0.17072,-0.17072 -0.49916,-0.83604 -0.78204,-0.77673 -0.21074,0.0442 -0.20766,0.49886 0.005,0.75523 0.15944,0.19212 0.59428,0.20415 0.77693,0.0215 z m -6.59471,-6.29344 c -0.0431,-0.0431 -0.0784,-0.008 -0.0784,0.0784 0,0.0862 0.0353,0.12151 0.0784,0.0784 0.0431,-0.0431 0.0431,-0.11367 0,-0.15679 z m -0.13719,-0.62716 c -0.04,-0.0647 -0.12559,-0.11759 -0.19027,-0.11759 -0.0647,0 -0.0849,0.0529 -0.0449,0.11759 0.04,0.0647 0.12559,0.1176 0.19026,0.1176 0.0647,0 0.0849,-0.0529 0.0449,-0.1176 z m -49.24974,32.026339 c -0.1173,-0.1173 -0.0983,-0.51152 0.0247,-0.51152 0.15363,0 0.27231,0.37527 0.15559,0.49199 -0.0549,0.0549 -0.13605,0.0637 -0.18024,0.0195 z m 46.20036,-28.498559 c 0.0882,-0.98113 0.2063,-1.34208 0.9236,-2.82222 1.53102,-3.15923 2.76176,-4.39895 4.73613,-4.77072 1.79282,-0.33758 4.16653,0.30645 5.43021,1.4733 0.63277,0.58429 0.40141,0.61906 -0.42337,0.0636 -0.33613,-0.22636 -0.68949,-0.41157 -0.78524,-0.41157 -0.0958,0 -0.20289,-0.0466 -0.23809,-0.10355 -0.0668,-0.10805 -0.11599,-0.12305 -1.36099,-0.41469 -2.43516,-0.57045 -4.74756,0.31714 -5.93445,2.27787 -0.61139,1.01 -1.70774,3.21555 -1.70844,3.4369 -3.4e-4,0.10937 -0.0466,0.22724 -0.10272,0.26194 -0.0562,0.0347 -0.13746,0.31564 -0.18068,0.6243 -0.0432,0.30867 -0.15645,0.6935 -0.25162,0.85519 l -0.17303,0.29398 z m 3.52853,-4.92469 c -0.0816,-0.13205 0.50041,-0.71975 0.71281,-0.71975 0.0882,0 0.16035,-0.0529 0.16035,-0.1176 0,-0.0647 0.10272,-0.11759 0.22825,-0.11759 0.12553,0 0.26104,-0.0531 0.30112,-0.11791 0.10145,-0.16414 0.52897,0.0771 0.52897,0.29844 0,0.0947 -0.0778,0.17225 -0.17281,0.17225 -0.17602,0 -0.97082,0.40568 -1.17363,0.59904 -0.14266,0.13602 -0.50174,0.13793 -0.58506,0.003 z"
       id="path17" /></g></svg>
