<?xml version="1.0" encoding="UTF-8" standalone="no"?>
<!-- Created with Inkscape (http://www.inkscape.org/) -->

<svg
   width="49.508514mm"
   height="158.49457mm"
   viewBox="0 0 49.508519 158.49457"
   version="1.1"
   id="svg1"
   xml:space="preserve"
   xmlns="http://www.w3.org/2000/svg"
   xmlns:svg="http://www.w3.org/2000/svg"><defs
     id="defs1" /><g
     id="layer1"
     transform="translate(-131.93838,-277.58713)"><path
       style="fill:#4d4d4d"
       d="m 144.59881,435.38659 c -0.55947,-0.58276 -0.75837,-0.71011 -1.30668,-0.83668 -0.35572,-0.0821 -1.20239,-0.30674 -1.88148,-0.49918 -0.6791,-0.19244 -1.34056,-0.37598 -1.46991,-0.40786 -0.12935,-0.0319 -0.34102,-0.10204 -0.47037,-0.15592 -0.12935,-0.0539 -0.36748,-0.13094 -0.52917,-0.17125 -3.48527,-0.86882 -4.9172,-1.40537 -5.40471,-2.02514 -0.48028,-0.61058 -0.22706,-3.47579 0.46582,-5.27074 0.0499,-0.12935 0.15587,-0.47331 0.23542,-0.76435 0.0795,-0.29104 0.18682,-0.66146 0.23839,-0.82315 0.30961,-0.97089 0.81497,-4.11248 1.02145,-6.35 0.1635,-1.7717 0.10531,-5.35338 -0.11892,-7.32037 -0.26407,-2.31646 -0.33019,-11.23314 -0.0961,-12.96435 0.28531,-2.11031 0.87985,-4.42319 1.54917,-6.02662 0.1627,-0.38977 0.28432,-0.69097 0.70036,-1.73449 0.20628,-0.51741 0.45438,-1.12595 0.55132,-1.35232 0.0969,-0.22636 0.2172,-0.5174 0.26723,-0.64676 0.05,-0.12935 0.15588,-0.39393 0.23523,-0.58796 1.24325,-3.03997 1.75045,-6.12458 2.00123,-12.17083 0.0604,-1.45521 0.16575,-3.75708 0.2342,-5.11528 0.12849,-2.54968 0.23911,-4.87152 0.48015,-10.07858 l 0.13995,-3.02302 -0.32307,-0.79873 c -0.49117,-1.21435 -0.49063,-1.21283 -0.74549,-2.09226 -0.22574,-0.77895 -0.39473,-1.73049 -0.54316,-3.05832 -0.0776,-0.69415 0.10348,-2.32557 0.35684,-3.21506 0.39475,-1.3859 1.29539,-2.99167 2.60851,-4.6508 0.36351,-0.45929 0.69023,-0.86154 0.72603,-0.89388 0.0358,-0.0323 0.27497,-0.32338 0.53148,-0.64676 0.25651,-0.32338 0.49989,-0.61442 0.54083,-0.64675 0.1351,-0.1067 1.605,-2.28586 1.78468,-2.64584 0.53456,-1.07092 0.69016,-1.79971 0.69016,-3.23254 0,-2.05913 -0.40883,-3.33663 -1.60057,-5.00146 l -0.47037,-0.65709 -0.47037,0.0518 c -0.2587,0.0285 -1.05245,0.19289 -1.76389,0.36534 -1.20914,0.2931 -1.57072,0.37689 -2.85162,0.66085 -1.169,0.25914 -1.58312,0.3428 -3.1456,0.63539 -0.90547,0.16956 -1.96869,0.33913 -2.36272,0.37683 l -0.71642,0.0685 -0.43011,-0.4301 c -0.23656,-0.23656 -0.4301,-0.5236 -0.4301,-0.63786 0,-0.11426 -0.0523,-0.26006 -0.11626,-0.324 -0.0639,-0.0639 -0.17603,-0.66983 -0.2491,-1.34643 -0.15949,-1.47692 -0.26562,-3.72304 -0.17146,-3.62889 0.10074,0.10075 0.32816,1.82026 0.35613,2.69269 0.0302,0.94235 0.32929,1.82916 0.86713,2.5711 l 0.2868,0.39564 0.54231,-0.0807 c 1.38555,-0.20609 2.32787,-0.37286 3.36454,-0.59545 0.19403,-0.0417 0.85548,-0.18354 1.46991,-0.31528 1.24332,-0.26658 1.66795,-0.36055 2.52824,-0.55947 0.32338,-0.0748 0.79963,-0.18182 1.05833,-0.23788 0.2587,-0.0561 0.68204,-0.1593 0.94074,-0.22943 0.2587,-0.0701 0.84079,-0.21222 1.29352,-0.31576 1.51298,-0.34602 2.34005,-0.54802 2.99861,-0.73239 1.96437,-0.54993 4.41983,-1.19674 5.02708,-1.32421 0.27488,-0.0577 0.72467,-0.15302 0.99954,-0.21183 0.27487,-0.0588 1.02894,-0.19082 1.6757,-0.29338 0.64675,-0.10255 1.46696,-0.24695 1.82268,-0.32089 0.35572,-0.0739 1.81093,-0.17002 3.2338,-0.21353 1.42287,-0.0435 2.71933,-0.12482 2.88102,-0.18069 0.81104,-0.28026 2.23425,-1.28292 2.23425,-1.57405 0,-0.0741 -0.17197,0.031 -0.38217,0.23369 -0.83278,0.80297 -1.7367,1.17925 -1.73269,0.72128 0.002,-0.27622 0.11208,-0.4091 0.50485,-0.6117 0.57638,-0.29731 1.59451,-1.33333 2.0211,-2.05661 0.49198,-0.83414 0.54576,-1.25312 0.0839,-0.65368 -0.34597,0.44903 -1.66086,1.78241 -2.1743,2.20486 -0.45173,0.37168 -0.67256,0.34272 -0.67256,-0.0882 0,-0.19403 0.0492,-0.35278 0.10923,-0.35278 0.17862,0 1.97358,-1.74505 2.41875,-2.3515 0.25697,-0.35005 0.41184,-0.6952 0.41184,-0.91783 0,-0.68092 -0.26501,-0.97876 -0.41307,-0.46423 -0.28351,0.98528 -0.95449,1.9327 -1.84074,2.59912 -0.56165,0.42233 -1.99199,1.14062 -2.11723,1.06322 -0.15003,-0.0927 -0.11546,-0.59212 0.0495,-0.7152 0.0808,-0.0603 0.38512,-0.20947 0.67616,-0.33146 0.70656,-0.29615 1.78494,-1.04562 2.08135,-1.44653 0.56579,-0.76528 0.74104,-1.28126 0.73501,-2.16401 l -0.006,-0.85723 -0.31752,0.64786 c -0.90779,1.85222 -1.93541,2.69726 -3.49252,2.87198 -0.38806,0.0436 -0.87753,0.10872 -1.08773,0.14484 -0.57275,0.0984 -0.50293,-0.2041 0.34554,-1.49724 1.19893,-1.82729 1.67624,-2.93179 1.26697,-2.93179 -0.14078,0 -0.9626,0.82505 -1.54001,1.54605 -1.51915,1.89694 -3.37667,3.06396 -5.98153,3.75802 -1.98827,0.52977 -3.11256,0.61482 -8.49454,0.64257 -3.37631,0.0174 -5.27089,0.071 -5.515,0.15614 -0.20452,0.0713 -0.49024,0.12963 -0.63493,0.12963 -0.22216,0 -0.27559,0.0834 -0.34349,0.53621 -0.11987,0.79932 -0.36522,0.6089 -0.32793,-0.25451 0.034,-0.7877 0.0545,-0.87188 0.79621,-3.28031 0.83966,-2.72631 0.994,-3.47027 1.23812,-5.96814 0.23427,-2.39702 0.22969,-2.37225 0.40509,-2.1908 0.12534,0.12967 0.13666,0.44872 0.0558,1.57375 -0.11482,1.5987 -0.27782,2.99079 -0.46124,3.93935 -0.14954,0.77333 -0.82609,2.95232 -0.96572,3.11033 -0.0543,0.0614 -0.0987,0.22284 -0.0987,0.35866 0,0.13582 -0.0465,0.29721 -0.10333,0.35865 -0.0568,0.0615 -0.1386,0.31015 -0.18171,0.55269 -0.0894,0.50286 -0.008,0.53343 0.81421,0.30409 0.30949,-0.0864 2.32051,-0.13848 5.87963,-0.15235 4.18896,-0.0163 5.60079,-0.0595 6.25824,-0.19162 1.0425,-0.20942 1.13089,-0.28507 0.95515,-0.81758 -0.48868,-1.48076 -1.21178,-2.73458 -2.00685,-3.47978 -0.6198,-0.58093 -1.65997,-1.3366 -1.8398,-1.3366 -0.0731,0 -0.13294,-0.0404 -0.13294,-0.0899 0,-0.0494 -0.19844,-0.18122 -0.44098,-0.2929 -1.28788,-0.59301 -3.72775,-2.12166 -5.45006,-3.41461 -1.44201,-1.08253 -5.11338,-3.95786 -5.44229,-4.26226 -0.47815,-0.44252 -3.58155,-2.71244 -4.15249,-3.03725 -0.19345,-0.11006 -0.55828,0.31177 -0.8894,1.02835 -0.50451,1.09183 -0.75106,2.25065 -0.8537,4.01251 -0.13629,2.3397 -0.30101,4.4887 -0.41912,5.46805 -0.0963,0.79824 -0.16783,3.56377 -0.22352,8.63718 -0.002,0.18028 -0.0332,0.19867 -0.1458,0.086 -0.23405,-0.23405 -0.19722,-7.39656 0.0536,-10.42829 0.11237,-1.35819 0.25491,-3.39968 0.31675,-4.53664 0.0618,-1.13695 0.17583,-2.22174 0.25331,-2.41064 0.57613,-1.40462 1.28314,-2.55279 1.75081,-2.8433 0.14291,-0.0888 0.23991,-0.27699 0.24243,-0.47037 0.002,-0.17731 0.0851,-0.63988 0.18402,-1.02794 0.16658,-0.65352 0.24399,-0.937 0.51378,-1.88148 0.0554,-0.19403 0.18595,-0.67028 0.29006,-1.05833 0.30379,-1.13238 0.76801,-2.41053 1.17746,-3.24194 0.44304,-0.8996 1.1382,-1.99093 1.26819,-1.99093 0.12396,0 0.11368,-0.39795 -0.0138,-0.53505 -0.10156,-0.10919 -0.37399,-0.87124 -0.77563,-2.16958 -0.11004,-0.35572 -0.26938,-0.72614 -0.35409,-0.82315 -0.0888,-0.1017 -0.20984,-0.77388 -0.28587,-1.5875 -0.0725,-0.77611 -0.184,-1.72861 -0.24771,-2.11667 -0.0637,-0.38805 -0.14905,-1.41259 -0.18964,-2.27674 -0.0868,-1.84731 0.0253,-2.50678 0.63908,-3.75965 l 0.42244,-0.86232 0.67806,-0.34228 c 0.37294,-0.18826 1.05453,-0.58583 1.51466,-0.88348 1.01634,-0.65747 2.06716,-1.13415 2.94615,-1.33647 0.70655,-0.16262 2.94873,-0.1101 4.81107,0.11271 0.54975,0.0658 1.58404,0.16047 2.29844,0.21044 1.58324,0.11074 2.35282,0.43424 3.15467,1.32609 0.56148,0.6245 1.12979,1.64705 1.13566,2.04336 l 0.004,0.24149 0.13337,-0.23518 c 0.19004,-0.33514 0.27998,-0.37556 1.02266,-0.45958 1.16163,-0.13143 3.8562,0.32214 5.12802,0.86317 1.00721,0.42846 2.37662,1.13762 2.52824,1.30926 0.0323,0.0366 0.29771,0.22902 0.5897,0.42759 0.62374,0.42416 2.18496,2.03621 2.37415,2.45145 0.0722,0.15851 0.16775,0.2882 0.21229,0.2882 0.1086,0 1.17479,2.27623 1.17479,2.50809 0,0.10046 0.0468,0.21159 0.10403,0.24695 0.0572,0.0354 0.13175,0.21047 0.16561,0.38912 0.0339,0.17865 0.14392,0.65009 0.24455,1.04765 0.51803,2.04643 0.66937,3.64134 0.73674,7.76406 l 0.058,3.54801 0.49344,-0.33302 c 1.71145,-1.15505 3.4336,0.10059 4.43333,3.23238 0.14453,0.45273 0.30476,0.92898 0.35608,1.05833 0.0513,0.12935 0.11847,0.36748 0.14923,0.52917 0.0308,0.16169 0.13476,0.58502 0.23111,0.94074 0.16019,0.59137 0.41956,1.8592 0.60744,2.96921 l 0.0746,0.44097 h 0.39513 c 0.58693,0 1.20581,0.38311 2.86272,1.77209 1.34128,1.12438 2.25834,2.11573 2.25834,2.44127 0,0.0649 0.0422,0.13561 0.0937,0.15717 0.11104,0.0464 0.5979,1.06528 0.74922,1.5679 0.0584,0.19403 0.18716,0.77042 0.2861,1.28088 0.18918,0.9761 0.11854,1.67006 -0.25267,2.48208 -0.37139,0.81244 -1.33913,1.54719 -2.18569,1.65949 l -0.55071,0.0731 -0.19636,0.51414 c -0.26058,0.68234 -1.02756,1.45078 -1.82178,1.82527 l -0.64436,0.30383 -0.022,2.5746 c -0.0263,3.07147 -0.23141,4.65835 -1.07767,8.33665 -0.098,0.42605 -0.59712,2.2925 -0.84902,3.175 -0.0554,0.19403 -0.15167,0.53799 -0.21396,0.76435 -0.26626,0.96748 -1.023,3.32126 -1.19088,3.70417 -0.0567,0.12935 -0.27011,0.68497 -0.4742,1.23472 -0.2041,0.54975 -0.5809,1.43408 -0.83735,1.96519 l -0.46627,0.96566 1.68977,3.38527 c 0.92938,1.8619 1.88944,3.88798 2.13348,4.5024 0.24403,0.61442 0.49159,1.20901 0.55013,1.32132 0.0585,0.1123 0.10644,0.30762 0.10644,0.43403 0,0.12641 0.0468,0.25878 0.10403,0.29414 0.0572,0.0354 0.13054,0.21047 0.16293,0.38912 0.0324,0.17865 0.16516,0.74815 0.29505,1.26556 0.12989,0.5174 0.29291,1.23178 0.36228,1.5875 0.0694,0.35571 0.15835,0.8055 0.19773,0.99953 0.0394,0.19403 0.11589,0.64382 0.17001,0.99954 0.0541,0.35572 0.15472,1.01718 0.22356,1.46991 0.13833,0.90974 0.43516,2.78861 0.61308,3.88055 0.1614,0.99059 0.43146,2.4566 0.68236,3.70417 0.0585,0.29104 0.27144,1.53458 0.47313,2.76342 0.20169,1.22885 0.4219,2.55378 0.48936,2.9443 0.0675,0.39052 0.12598,1.44886 0.13005,2.35185 l 0.007,1.64182 -0.29882,0.66733 c -0.16435,0.36704 -0.51515,0.9859 -0.77956,1.37526 -0.26441,0.38936 -0.48215,0.75052 -0.48388,0.80258 -0.003,0.076 -0.68513,1.04642 -1.14185,1.62335 -0.29095,0.36751 -1.10634,1.86838 -1.85269,3.41018 -0.89975,1.85872 -1.02182,2.12599 -1.53061,3.35139 -0.17456,0.42039 -0.41224,0.97602 -0.52819,1.23472 -0.11596,0.25871 -0.35364,0.81433 -0.52819,1.23472 -0.37169,0.89519 -0.53546,1.2782 -0.85476,1.99908 -0.12891,0.29104 -0.7756,1.905 -1.43709,3.58657 -0.66149,1.68158 -1.24538,3.16324 -1.29753,3.29259 -0.0522,0.12936 -0.28873,0.76436 -0.52575,1.41112 -0.23701,0.64675 -0.47634,1.28175 -0.53185,1.41111 -0.22443,0.52302 -1.2566,3.5418 -1.42735,4.17453 -0.46454,1.7215 -0.6144,4.11977 -0.32614,5.21923 0.0698,0.26621 0.18167,0.69568 0.24859,0.95438 0.0669,0.25871 0.16459,0.57621 0.21702,0.70556 0.0524,0.12935 0.12182,0.36748 0.1542,0.52917 0.21689,1.08304 0.56273,2.72478 0.66299,3.14729 0.0654,0.2758 0.119,0.616 0.119,0.756 0,0.14 0.0493,0.41705 0.10963,0.61567 0.0603,0.19862 0.17683,0.59925 0.25897,0.8903 0.33217,1.17691 0.81038,2.15317 1.23415,2.51949 0.36042,0.31156 0.43465,0.45986 0.48323,0.96538 l 0.0574,0.59728 -0.34055,0.38113 c -0.26041,0.29146 -0.46414,0.39505 -0.86589,0.44029 -0.45818,0.0516 -0.60428,0.006 -1.14271,-0.35639 l -0.61736,-0.41554 v 0.7159 c 0,0.58626 -0.0543,0.78712 -0.29997,1.10918 -0.30233,0.39638 -0.64992,0.49548 -0.98792,0.28165 -0.12032,-0.0761 -0.21781,-0.0409 -0.33005,0.11939 -0.17696,0.25265 -0.83547,0.31401 -1.05149,0.098 -0.0942,-0.0942 -0.14916,-0.0673 -0.20186,0.0988 -0.0398,0.1255 -0.19663,0.29466 -0.34844,0.37591 -0.22909,0.1226 -0.33873,0.11529 -0.64482,-0.043 -0.20283,-0.10489 -0.36879,-0.24226 -0.36879,-0.30528 0,-0.063 -0.0794,-0.11457 -0.17639,-0.11457 -0.097,0 -0.17638,0.0709 -0.17638,0.15751 0,0.0866 -0.12685,0.21531 -0.28188,0.28595 -0.22734,0.10358 -0.32357,0.0888 -0.49742,-0.0762 -0.18857,-0.17903 -0.25525,-0.18484 -0.53277,-0.0464 -0.70435,0.35137 -1.32308,-0.16549 -1.75191,-1.46347 -0.14494,-0.43872 -0.29545,-0.82413 -0.33446,-0.85647 -0.0993,-0.0824 -0.31044,-0.54757 -0.55215,-1.21683 -0.11324,-0.31354 -0.26288,-0.58423 -0.33252,-0.60154 -0.0696,-0.0173 -0.89391,-0.14826 -1.83171,-0.291 -0.9378,-0.14273 -1.99613,-0.31326 -2.35185,-0.37895 -0.35572,-0.0657 -0.88489,-0.16369 -1.17593,-0.21777 -0.29104,-0.0541 -0.84666,-0.15485 -1.23472,-0.22392 -1.48243,-0.26385 -3.78953,-0.74118 -4.40972,-0.91235 -0.35572,-0.0982 -0.83197,-0.22279 -1.05833,-0.27691 -0.74654,-0.17852 -1.22158,-0.31675 -2.36402,-0.68791 -0.62111,-0.20179 -1.16451,-0.36689 -1.20756,-0.36689 -0.12075,0 0.0567,0.60037 0.31257,1.05775 0.90897,1.6246 2.55367,3.24678 4.86945,4.80277 0.40068,0.26921 0.77991,0.48948 0.84275,0.48948 0.0628,0 0.13188,0.0397 0.15344,0.0882 0.0698,0.15706 1.3281,0.73496 1.60027,0.73496 0.3245,0 1.21202,0.40042 1.8679,0.84274 0.68365,0.46105 0.98075,0.98651 0.98075,1.73462 0,1.06099 -0.48873,1.65597 -1.36025,1.65597 -0.33544,0 -0.55035,0.0725 -0.69762,0.23519 -0.11706,0.12935 -0.29724,0.23553 -0.4004,0.23596 -0.10316,4.2e-4 -0.34631,0.10591 -0.54034,0.23441 -0.19403,0.1285 -0.49452,0.23398 -0.66776,0.23441 -0.17324,4.2e-4 -0.39174,0.0775 -0.48556,0.17136 -0.25883,0.25883 -0.74004,0.33914 -1.15832,0.19333 -0.32345,-0.11275 -0.41039,-0.0981 -0.62702,0.10537 -0.45043,0.42315 -0.84447,0.31032 -1.57549,-0.45113 z m 1.39795,-0.37585 c 0,-0.13206 -0.10746,-0.35545 -0.2388,-0.49642 -0.27136,-0.29127 -0.26172,-0.59545 0.0206,-0.64982 0.12276,-0.0236 0.32019,0.17378 0.5543,0.55425 0.38707,0.62907 0.82084,0.85664 1.13533,0.59564 0.2367,-0.19645 0.22272,-0.2766 -0.11912,-0.68285 -0.27849,-0.33097 -0.37818,-0.7212 -0.22369,-0.87568 0.14588,-0.14588 0.40556,0.0728 0.7487,0.63046 0.36064,0.5861 0.42915,0.63171 0.75889,0.50518 0.29182,-0.11198 0.22073,-0.39085 -0.22557,-0.88485 -0.4555,-0.50419 -0.48572,-0.59974 -0.25119,-0.79438 0.12618,-0.10472 0.25785,-0.0246 0.61737,0.3755 0.25133,0.27973 0.50989,0.60131 0.57457,0.71463 0.14416,0.25258 0.52916,0.14047 0.52916,-0.15409 0,-0.11079 -0.18521,-0.41781 -0.41157,-0.68227 -0.44907,-0.52463 -0.54317,-0.97261 -0.2043,-0.97261 0.22032,0 0.51988,0.33879 0.91969,1.04011 0.57921,1.01603 1.86382,0.22517 1.40764,-0.86661 -0.22987,-0.55017 -1.55753,-1.34942 -2.24155,-1.34942 -0.5152,0 -3.24211,-1.58004 -4.70064,-2.72368 -1.75714,-1.37776 -3.22309,-3.24168 -3.646,-4.63579 -0.32332,-1.06581 -0.17079,-4.11179 0.22445,-4.48229 0.0551,-0.0516 0.0649,0.47287 0.0219,1.16557 -0.043,0.6927 -0.0473,1.3828 -0.009,1.53354 0.0688,0.27403 0.37878,0.40228 2.89634,1.1982 0.85599,0.27062 3.40291,0.87715 4.68521,1.11574 4.75784,0.88529 7.85411,1.40484 7.92856,1.33039 0.0572,-0.0572 -0.76173,-1.63545 -1.2505,-2.40979 l -0.35258,-0.55856 h -0.63115 c -0.86872,0 -1.61358,-0.35466 -3.61401,-1.72077 -2.32136,-1.58527 -2.552,-1.78047 -2.8226,-2.38884 -0.38014,-0.85466 -0.32595,-2.56675 0.15093,-4.76863 0.056,-0.2587 0.16339,-0.78787 0.23857,-1.17593 0.0752,-0.38805 0.18102,-0.91722 0.23519,-1.17592 0.0542,-0.25871 0.1643,-0.78787 0.24474,-1.17593 0.18422,-0.88875 0.61709,-2.58333 0.93118,-3.64537 0.0574,-0.19403 0.15575,-0.53798 0.2186,-0.76435 0.0628,-0.22637 0.30887,-1.04657 0.54673,-1.82269 0.23787,-0.77611 0.45843,-1.51694 0.49015,-1.64629 0.0317,-0.12935 0.10014,-0.34102 0.15204,-0.47037 0.0519,-0.12935 0.15306,-0.44685 0.22478,-0.70556 0.23948,-0.86387 0.68796,-2.5803 0.82957,-3.175 0.077,-0.32338 0.18708,-0.77317 0.2446,-0.99953 0.0575,-0.22637 0.1364,-0.57033 0.17529,-0.76436 0.0389,-0.19402 0.11562,-0.56444 0.17053,-0.82314 0.30638,-1.44344 0.59381,-3.03671 0.82733,-4.58612 0.0585,-0.38805 0.14171,-0.82461 0.18495,-0.97013 0.0632,-0.21269 0.0323,-0.26459 -0.15772,-0.26459 -0.2265,0 -0.37907,-0.20825 -0.37907,-0.5174 0,-0.08 0.41745,-0.56512 0.92767,-1.07812 0.83597,-0.84051 1.74293,-2.08562 2.09274,-2.873 0.48206,-1.08504 0.83108,-2.11981 1.09073,-3.23379 0.0754,-0.32338 0.1841,-0.77317 0.24163,-0.99954 0.0575,-0.22637 0.13639,-0.57032 0.17528,-0.76435 0.3542,-1.76739 0.8454,-4.02076 1.11505,-5.11528 0.0558,-0.22636 0.15826,-0.71584 0.22776,-1.08773 0.0695,-0.37189 0.18769,-0.96702 0.26264,-1.32253 l 0.13628,-0.64637 -0.28133,-0.55895 c -0.15473,-0.30743 -0.44632,-0.85 -0.64798,-1.20572 -0.82742,-1.45954 -1.3188,-2.47234 -1.74011,-3.58657 -0.72429,-1.91556 -1.12976,-2.91476 -1.35626,-3.34224 l -0.21322,-0.40243 -0.0782,2.22511 c -0.14946,4.25518 -0.44131,7.39531 -0.97183,10.4566 -0.10088,0.58208 -0.22848,1.32291 -0.28356,1.64629 -0.60952,3.57848 -1.52396,6.73594 -2.59359,8.95538 -0.55429,1.15013 -1.83312,3.22574 -2.08236,3.37978 -0.0664,0.041 -0.25855,0.51032 -0.42704,1.04287 -0.16848,0.53255 -0.35193,1.0741 -0.40766,1.20346 -0.0557,0.12935 -0.29683,0.87018 -0.53576,1.64629 -0.23894,0.77611 -0.52876,1.70215 -0.64404,2.05787 -0.26726,0.82462 -1.19624,3.91887 -1.42984,4.7625 -0.0716,0.25871 -0.17223,0.60266 -0.22356,0.76435 -0.0513,0.16169 -0.23454,0.84961 -0.40716,1.52871 -0.17262,0.67909 -0.36262,1.35627 -0.42222,1.50484 -0.0596,0.14856 -0.10836,0.37417 -0.10836,0.50136 0,0.12719 -0.0476,0.32313 -0.10569,0.43544 -0.0581,0.1123 -0.3015,1.05086 -0.54081,2.08567 -0.23931,1.03482 -0.48279,2.00304 -0.54106,2.1516 -0.0583,0.14856 -0.10596,0.39743 -0.10596,0.55303 0,0.1556 -0.0479,0.40447 -0.10638,0.55303 -0.0585,0.14857 -0.17174,0.58762 -0.25163,0.97567 -0.2916,1.41647 -0.89577,3.39323 -0.99033,3.24024 -0.0515,-0.0834 -0.0341,-0.42324 0.0388,-0.75519 0.0729,-0.33196 0.24478,-1.13273 0.38203,-1.77949 0.34259,-1.61434 0.46352,-2.16542 0.58058,-2.64583 0.0551,-0.22637 0.15364,-0.6497 0.21886,-0.94074 0.0652,-0.29105 0.36267,-1.48167 0.661,-2.64584 0.29833,-1.16416 0.58626,-2.30187 0.63983,-2.52824 0.21778,-0.9202 0.82527,-3.10388 1.17771,-4.23333 0.0505,-0.16169 0.15841,-0.53211 0.23992,-0.82315 0.0815,-0.29104 0.21342,-0.74083 0.29315,-0.99954 0.0797,-0.2587 0.2642,-0.86724 0.40993,-1.35231 0.14572,-0.48507 0.41155,-1.33174 0.59072,-1.88148 0.17916,-0.54975 0.52473,-1.63454 0.76793,-2.41065 0.24319,-0.77611 0.48659,-1.46138 0.54087,-1.52282 0.0543,-0.0614 0.10011,-0.29957 0.10182,-0.52917 0.002,-0.32786 0.16018,-0.62395 0.73495,-1.37957 1.21178,-1.59305 2.30536,-3.94737 3.02159,-6.50501 0.0815,-0.29105 0.19037,-0.66146 0.24193,-0.82315 0.26004,-0.81544 0.83263,-3.6233 1.17501,-5.76204 0.51845,-3.23853 0.79511,-6.22932 0.88655,-9.5838 l 0.0801,-2.93981 -0.5878,-0.49794 c -2.31602,-1.96195 -3.39273,-3.72258 -4.07122,-6.65726 -0.83393,-3.60694 -0.8187,-5.55945 0.0628,-8.0552 0.32727,-0.92655 1.18753,-2.37025 2.00762,-3.36923 0.10619,-0.12935 0.45387,-0.55268 0.77262,-0.94074 1.5296,-1.86216 2.48216,-3.96449 2.92261,-6.45025 0.11755,-0.66348 0.25334,-1.12242 0.32502,-1.09853 0.15222,0.0507 0.11023,1.6665 -0.0648,2.4923 -0.53982,2.54735 -0.91701,3.28158 -3.00395,5.84756 -2.01322,2.47535 -2.45077,3.18338 -2.92657,4.73577 -0.41947,1.36857 -0.2555,5.30164 0.2917,6.99676 0.0522,0.16169 0.15869,0.50565 0.23666,0.76435 0.16112,0.53456 0.2155,0.67128 0.65081,1.63614 0.62314,1.38119 1.45701,2.35454 3.01366,3.51781 0.49083,0.36679 0.93117,0.66689 0.97854,0.66689 0.095,0 0.42211,0.30338 0.42211,0.39149 0,0.0305 0.20412,0.49734 0.45361,1.03734 0.24948,0.54 0.67552,1.53744 0.94675,2.21654 0.27123,0.67909 1.17319,2.61055 2.00434,4.29213 3.85293,7.79516 4.82678,9.80801 4.82678,9.9765 0,0.0998 0.0471,0.21047 0.1046,0.24602 0.13155,0.0813 0.24819,0.71299 0.32634,1.76736 0.0647,0.8731 -0.0584,1.426 -0.49855,2.23882 -0.99058,1.82934 -1.58306,3.10339 -2.43349,5.23287 -0.0646,0.16169 -0.16048,0.39981 -0.21313,0.52917 -0.11304,0.27772 -0.79976,2.43178 -0.93723,2.93981 -0.44838,1.65713 -1.08168,4.38976 -1.30813,5.64445 -0.30665,1.6991 -0.47962,2.74615 -0.67991,4.11574 -0.18718,1.27996 -0.33378,2.17162 -0.48333,2.93981 -0.0755,0.38806 -0.181,0.97014 -0.23433,1.29352 -0.14449,0.87616 -0.0343,-1.39771 0.12534,-2.58704 0.0695,-0.51741 0.17649,-1.33761 0.23785,-1.82268 0.34696,-2.74274 0.63351,-4.63103 0.82086,-5.40926 0.0545,-0.22637 0.16372,-0.72908 0.24272,-1.11713 0.53773,-2.64142 1.765,-6.48331 2.83612,-8.87824 0.13016,-0.29104 0.48875,-1.05834 0.79687,-1.70509 1.29109,-2.71015 1.35538,-2.99795 0.98961,-4.42963 -0.20754,-0.8123 -0.43742,-1.36852 -1.0853,-2.62593 -0.51796,-1.00528 -1.99075,-4.00595 -2.37979,-4.84862 -0.4267,-0.92423 -0.41678,-0.93692 -0.75715,0.96806 -0.10401,0.58209 -0.23601,1.29646 -0.29334,1.5875 -0.0573,0.29105 -0.15651,0.82021 -0.22041,1.17593 -0.33693,1.87551 -0.70165,3.65652 -0.90305,4.40972 -0.0865,0.32338 -0.19051,0.72026 -0.23121,0.88195 -0.0407,0.16169 -0.11527,0.39981 -0.16571,0.52916 -0.0504,0.12936 -0.18665,0.52623 -0.30269,0.88195 -0.19002,0.5825 -0.80958,1.93115 -1.24325,2.70628 -0.28228,0.50454 -0.70924,1.08758 -1.3236,1.80745 -0.49508,0.5801 -0.60619,0.79872 -0.6873,1.35231 -0.21877,1.49323 -0.5258,3.37304 -0.60723,3.71775 -0.0306,0.12936 -0.11137,0.52623 -0.1796,0.88195 -0.24051,1.25397 -0.38918,1.95281 -0.67542,3.175 -0.30364,1.29649 -0.35073,1.48598 -0.51142,2.05787 -0.0545,0.19403 -0.21206,0.77611 -0.35009,1.29352 -0.31656,1.18668 -0.70653,2.51602 -0.82792,2.82222 -0.0946,0.23871 -0.60848,1.96348 -0.8408,2.82222 -0.07,0.25871 -0.17016,0.57621 -0.22259,0.70556 -0.0524,0.12935 -0.12814,0.39393 -0.16825,0.58796 -0.0401,0.19403 -0.12048,0.53799 -0.17861,0.76435 -0.0581,0.22637 -0.2427,1.04658 -0.41017,1.82269 -0.61955,2.87136 -0.76821,3.9333 -0.84243,6.01774 -0.0685,1.92524 -0.0178,2.0739 0.88574,2.59424 0.54099,0.31156 1.31258,0.8457 1.42382,0.98565 0.0323,0.0407 0.50859,0.36169 1.05834,0.71334 1.11978,0.71628 2.20488,1.19297 2.58229,1.13442 l 0.25085,-0.0389 -0.55563,-0.76435 c -0.30559,-0.4204 -0.6336,-0.82245 -0.7289,-0.89345 -0.41248,-0.3073 0.27164,-2.33771 1.52154,-4.51581 0.55291,-0.96351 1.11445,-2.11486 1.29046,-2.64584 0.0857,-0.2587 0.19803,-0.52064 0.2495,-0.58208 0.0515,-0.0614 0.0936,-0.25676 0.0936,-0.43403 0,-0.17728 0.0529,-0.35503 0.11759,-0.395 0.0647,-0.04 0.11759,-0.18486 0.11759,-0.32197 0,-0.26477 0.19558,-0.95359 0.36722,-1.29333 0.0567,-0.11231 0.10316,-0.39012 0.10316,-0.61736 0,-0.22724 0.0587,-0.41317 0.13034,-0.41317 0.0803,0 0.10201,0.11285 0.0565,0.29406 -0.0406,0.16174 -0.10321,0.54538 -0.13916,0.85255 -0.0359,0.30716 -0.14223,0.9289 -0.2362,1.38163 -0.15556,0.74952 -0.24965,1.07313 -0.51281,1.76389 -0.12147,0.31882 -1.22682,2.55566 -1.64676,3.33245 -0.61733,1.14191 -1.05786,2.29105 -1.06036,2.76597 -0.001,0.21167 0.20047,0.62569 0.54368,1.11666 1.09317,1.56379 2.71039,4.45928 3.16202,5.66131 0.35742,0.95127 0.54098,1.3067 0.70794,1.37077 0.0904,0.0347 0.19378,0.25637 0.2298,0.49266 0.18076,1.18568 0.60348,1.89953 1.12483,1.89953 0.42032,0 0.43797,-0.16605 0.10953,-1.0302 -0.26962,-0.70938 -0.3,-1.08647 -0.0875,-1.08647 0.0812,0 0.2705,0.33073 0.42071,0.73496 0.34857,0.93798 0.52025,1.30269 0.66062,1.40335 0.37026,0.26552 0.403,-0.58155 0.0531,-1.37266 -0.20868,-0.47175 -0.22193,-0.58257 -0.0859,-0.71856 0.136,-0.136 0.22292,-0.0387 0.56365,0.63101 0.59341,1.16635 0.91978,1.57636 1.22064,1.53349 0.37012,-0.0528 0.38086,-0.48638 0.027,-1.09017 -0.30598,-0.52213 -0.40353,-1.12142 -0.18252,-1.12142 0.13005,0 0.81805,1.02502 0.82447,1.22835 0.007,0.2124 0.43587,0.65314 0.63599,0.65314 0.10484,0 0.21726,-0.0694 0.24982,-0.15427 0.0598,-0.15576 -0.46377,-1.19774 -0.66397,-1.32147 -0.2021,-0.12491 -0.12322,-0.64109 0.0976,-0.63882 0.18632,0.002 0.97014,1.02764 0.97014,1.26954 0,0.19127 0.57828,0.63871 0.74352,0.5753 0.37607,-0.14431 0.33547,-1.27523 -0.0728,-2.02922 -0.10333,-0.19079 -0.45929,-0.90252 -0.79103,-1.58162 -0.79552,-1.6285 -1.39774,-2.82601 -2.60651,-5.18305 -0.5498,-1.07209 -1.04381,-2.18334 -1.09779,-2.46944 -0.2287,-1.21219 -0.0977,-3.26411 0.29588,-4.63594 0.0742,-0.2587 0.16391,-0.58943 0.19928,-0.73495 0.0354,-0.14552 0.11724,-0.26458 0.18192,-0.26458 0.0691,0 0.085,0.13344 0.0385,0.32338 -0.0435,0.17786 -0.13801,0.89041 -0.20999,1.58345 -0.1614,1.55391 0.0529,3.19584 0.61831,4.73715 0.58063,1.5828 3.06677,6.76972 3.52271,7.34954 0.12715,0.16169 0.23235,0.36012 0.23379,0.44097 0.001,0.0834 0.151,0.14699 0.34559,0.14699 0.18864,0 0.36062,0.0419 0.38218,0.0931 0.12624,0.29972 0.9219,0.72978 1.34382,0.72635 0.85207,-0.007 1.1976,-0.6444 0.53502,-0.98703 -0.55004,-0.28444 -0.98101,-1.42891 -1.61957,-4.3009 -0.16537,-0.74377 -0.34631,-1.53752 -0.4021,-1.76389 -0.0558,-0.22636 -0.13424,-0.57032 -0.17434,-0.76435 -0.0401,-0.19403 -0.11787,-0.45861 -0.1728,-0.58796 -0.0549,-0.12936 -0.12517,-0.36748 -0.15609,-0.52917 -0.0309,-0.16169 -0.23059,-0.92898 -0.44372,-1.70509 -0.34525,-1.25716 -0.38772,-1.5779 -0.38931,-2.93982 -9.7e-4,-0.84078 0.068,-1.8462 0.15332,-2.23426 0.21175,-0.96328 1.64327,-5.23711 2.12694,-6.35 0.0562,-0.12935 0.29613,-0.76435 0.53314,-1.41111 0.40845,-1.11458 0.49558,-1.34212 0.75421,-1.96967 0.06,-0.14552 0.27644,-0.71438 0.48105,-1.26412 0.20461,-0.54975 0.45198,-1.18475 0.54971,-1.41112 0.0977,-0.22636 0.21994,-0.5174 0.27158,-0.64675 0.0516,-0.12936 0.20499,-0.48597 0.34079,-0.79247 0.13579,-0.30651 0.2469,-0.58868 0.2469,-0.62705 0,-0.0384 0.16453,-0.44905 0.36563,-0.91263 0.47533,-1.09574 0.59521,-1.38273 0.99064,-2.37156 0.18105,-0.45273 0.43148,-1.06127 0.55651,-1.35231 0.12503,-0.29104 0.26949,-0.635 0.32103,-0.76435 0.0515,-0.12936 0.23147,-0.54091 0.39985,-0.91456 0.16839,-0.37366 0.30615,-0.71188 0.30615,-0.75161 0,-0.37575 2.86223,-5.60766 3.1728,-5.7996 0.0556,-0.0344 0.24458,-0.35303 0.41989,-0.7081 0.1753,-0.35507 0.41246,-0.75141 0.52702,-0.88076 0.30792,-0.34769 0.63493,-0.97526 0.88848,-1.7051 0.33112,-0.95314 0.30229,-3.69507 -0.0575,-5.46805 -0.33036,-1.62801 -0.48227,-2.42983 -0.60149,-3.175 -0.0517,-0.32338 -0.14826,-0.90546 -0.21448,-1.29352 -0.3132,-1.83533 -0.60857,-3.60269 -0.72715,-4.35093 -0.0718,-0.45273 -0.17988,-1.01449 -0.2403,-1.24836 -0.0604,-0.23387 -0.10986,-0.57169 -0.10986,-0.75071 0,-0.17902 -0.0488,-0.51684 -0.10835,-0.75071 -0.0596,-0.23387 -0.16922,-0.79563 -0.24362,-1.24836 -0.23154,-1.40888 -0.47168,-2.68609 -0.59144,-3.14561 -0.79756,-3.06027 -1.00185,-3.56272 -3.66219,-9.00719 -1.18815,-2.43157 -1.42497,-2.84138 -1.57167,-2.71963 -0.095,0.0788 -0.17273,0.19202 -0.17273,0.25151 0,0.0595 -0.0519,0.17207 -0.11524,0.25018 -0.0634,0.0781 -0.60363,0.77703 -1.20056,1.55314 -0.59693,0.77611 -1.22958,1.56696 -1.40588,1.75745 -0.67531,0.72962 -0.67683,0.70869 0.17923,2.45992 0.42821,0.87598 0.77856,1.62215 0.77856,1.65816 0,0.036 0.11111,0.31624 0.24691,0.62275 1.25298,2.82808 2.40009,6.85779 2.92027,10.25867 0.27939,1.82658 0.35688,2.47917 0.42589,3.58657 0.15356,2.46398 0.50286,4.75311 0.9779,6.4088 0.5047,1.75902 0.75912,2.72637 0.84416,3.20966 0.0546,0.3101 0.12824,0.65527 0.16371,0.76704 0.0915,0.28816 -0.20501,1.55845 -0.63017,2.70006 -0.1994,0.53544 -0.36256,1.10501 -0.36256,1.26572 0,0.1607 -0.0485,0.38408 -0.1077,0.49638 -0.1269,0.24058 -0.30328,0.65339 -0.89112,2.08567 -0.23889,0.58209 -0.5295,1.27 -0.64578,1.52871 -0.11629,0.2587 -0.40733,0.94662 -0.64676,1.5287 -0.23944,0.58209 -0.53344,1.27427 -0.65335,1.53818 -0.1199,0.26391 -0.32323,0.74679 -0.45183,1.07306 -0.12861,0.32627 -0.34831,0.85117 -0.48823,1.16645 -0.13992,0.31528 -0.29665,0.67907 -0.34829,0.80842 -0.0516,0.12935 -0.17464,0.4204 -0.27335,0.64676 -0.0987,0.22637 -0.66434,1.6022 -1.25697,3.05741 -0.59262,1.45521 -1.15765,2.83104 -1.25562,3.05741 -0.098,0.22636 -0.22405,0.5174 -0.28018,0.64676 -0.0561,0.12935 -0.26667,0.65851 -0.46786,1.17592 -0.20119,0.51741 -0.43414,1.09949 -0.51767,1.29352 -0.0835,0.19403 -0.29877,0.69674 -0.47831,1.11713 -0.59177,1.38559 -1.45232,3.27654 -1.54748,3.40039 -0.0207,0.0269 -0.0687,0.0179 -0.10674,-0.0201 -0.061,-0.061 0.3792,-1.51197 0.65088,-2.14556 0.0555,-0.12935 0.21747,-0.55268 0.36001,-0.94074 0.14254,-0.38805 0.392,-1.04951 0.55436,-1.46991 0.16236,-0.42039 0.33486,-0.87018 0.38333,-0.99953 0.0485,-0.12935 0.14812,-0.38071 0.22145,-0.55857 0.21207,-0.51437 0.32418,-0.79235 0.72324,-1.79328 0.20628,-0.51741 0.44195,-1.0995 0.52371,-1.29352 0.0818,-0.19403 0.29679,-0.7232 0.47783,-1.17593 0.18105,-0.45273 0.43236,-1.06127 0.55847,-1.35231 0.40167,-0.92699 0.52513,-1.21746 0.84966,-1.99908 0.17456,-0.42039 0.42331,-1.00247 0.55279,-1.29352 0.29301,-0.65863 0.46286,-1.05801 0.80017,-1.88148 0.14571,-0.35572 0.3841,-0.91134 0.52975,-1.23472 0.6106,-1.35567 0.76215,-1.70552 0.76215,-1.75939 0,-0.0313 0.13788,-0.36258 0.30639,-0.73624 1.24423,-2.75885 1.57701,-3.6147 1.57605,-4.05322 -5.3e-4,-0.23871 0.0461,-0.46312 0.10364,-0.49868 0.0575,-0.0356 0.13191,-0.23711 0.1653,-0.44791 0.0334,-0.21079 0.17499,-0.78014 0.31468,-1.26521 0.39522,-1.37238 0.22339,-3.16421 -0.468,-4.88009 -0.35356,-0.87744 -0.57504,-2.48406 -0.94832,-6.87917 -0.25431,-2.99438 -0.84802,-6.44441 -1.39629,-8.11389 -0.0531,-0.16169 -0.16174,-0.5321 -0.24141,-0.82314 -0.17311,-0.63232 -0.21556,-0.76267 -0.76583,-2.35186 -0.23514,-0.67909 -0.49748,-1.39347 -0.58297,-1.5875 -0.0855,-0.19402 -0.27696,-0.64382 -0.4255,-0.99953 -0.61235,-1.46647 -2.27759,-4.65167 -3.12222,-5.97203 -0.48387,-0.75642 -0.60174,-1.21605 -0.36273,-1.41442 0.18986,-0.15756 0.33551,0.0289 1.24614,1.59501 0.27263,0.4689 0.53976,0.85255 0.59362,0.85255 0.0956,0 2.07002,-2.32537 2.53754,-2.98855 0.12935,-0.18348 0.34771,-0.47248 0.48523,-0.6422 0.77574,-0.95741 2.08038,-3.7129 2.76292,-5.83545 0.0832,-0.25871 0.19337,-0.52065 0.24484,-0.58209 0.0515,-0.0614 0.0936,-0.20768 0.0936,-0.32497 0,-0.1173 0.0505,-0.30515 0.11224,-0.41746 0.10642,-0.19358 0.80053,-2.36801 1.07869,-3.37919 0.0712,-0.2587 0.1731,-0.5762 0.22652,-0.70555 0.13564,-0.32845 0.79577,-3.13288 1.03799,-4.40973 0.37557,-1.9798 0.47967,-2.98297 0.55525,-5.35046 0.0418,-1.31008 0.0224,-2.23324 -0.0509,-2.42259 l -0.11847,-0.30592 -0.92089,-0.0688 c -1.4133,-0.10567 -2.65642,-0.64837 -2.72198,-1.18833 -0.0471,-0.38818 0.12836,-0.39382 0.94533,-0.0303 0.98799,0.43957 1.41369,0.54716 2.15763,0.54534 1.13579,-0.003 2.40019,-0.56989 2.75697,-1.23654 0.0855,-0.15975 0.19942,-0.29045 0.25316,-0.29045 0.0538,0 0.0978,-0.0926 0.0979,-0.20579 l 1.3e-4,-0.20579 -0.97027,0.0793 c -0.53365,0.0436 -1.36715,0.11538 -1.85222,0.15945 l -0.88194,0.0801 -0.32338,-0.25618 c -0.21212,-0.16804 -0.32338,-0.36731 -0.32338,-0.5792 0,-0.25153 -0.0846,-0.36025 -0.38218,-0.49123 -0.31844,-0.14016 -0.3882,-0.24073 -0.4183,-0.60305 -0.0213,-0.25599 0.0409,-0.55245 0.15125,-0.72082 l 0.18739,-0.28599 -0.41204,-0.24311 c -0.47638,-0.28107 -0.63466,-0.72196 -0.44222,-1.23179 0.1036,-0.27447 0.0938,-0.41858 -0.0469,-0.6907 -0.0978,-0.18912 -0.14453,-0.44875 -0.10384,-0.57695 0.21687,-0.6833 1.43144,-1.33737 2.71901,-1.46425 0.88051,-0.0868 1.04709,-0.1698 1.3784,-0.68712 l 0.21668,-0.33834 -1.01226,-0.95518 c -0.55675,-0.52534 -1.01218,-1.02132 -1.01206,-1.10216 1.2e-4,-0.0808 -0.12766,-0.14699 -0.28396,-0.14699 -0.1563,0 -0.30182,-0.0397 -0.32338,-0.0882 -0.0216,-0.0485 -0.33885,-0.2841 -0.70509,-0.52355 -0.36624,-0.23944 -0.8028,-0.61486 -0.97014,-0.83425 -0.33854,-0.44384 -0.41095,-1.02345 -0.12786,-1.02345 0.097,0 0.17645,0.0397 0.17653,0.0882 4.5e-4,0.27177 1.76165,1.67569 2.10215,1.67569 0.31271,0 0.27611,-0.46339 -0.22755,-2.88102 -0.55407,-2.6596 -1.41994,-4.94188 -2.22104,-5.85428 -0.19911,-0.22678 -0.61198,-0.52982 -0.91748,-0.67342 -0.49204,-0.23128 -0.60267,-0.24429 -0.96876,-0.11393 -0.22731,0.0809 -0.55375,0.24582 -0.72543,0.36639 -0.17167,0.12057 -0.38926,0.21922 -0.48353,0.21922 -0.19145,0 -0.43906,1.01477 -0.43906,1.79934 0,0.25663 -0.0546,0.7902 -0.12133,1.18572 -0.71053,4.2112 -0.92617,5.25754 -1.39225,6.75564 -0.48489,1.55858 -1.86669,2.72412 -3.22957,2.72412 -0.76461,0 -1.21564,-0.21038 -1.77249,-0.82674 -0.36599,-0.40511 -0.42232,-0.54583 -0.42232,-1.05508 v -0.58763 l 0.32338,-0.006 c 0.87519,-0.0153 1.74383,-0.8952 2.13547,-2.1632 0.12704,-0.41131 0.29581,-1.26898 0.37505,-1.90593 0.12402,-0.99694 0.11695,-1.31826 -0.0508,-2.30903 -0.10721,-0.63301 -0.34895,-1.54762 -0.53722,-2.03246 -0.35961,-0.92612 -1.25018,-2.51985 -1.40807,-2.51985 -0.0509,0 -0.15929,0.12486 -0.24097,0.27746 -0.2644,0.49405 -0.88129,0.68855 -2.39009,0.7536 -0.75994,0.0328 -1.38171,0.0688 -1.38171,0.0801 0,0.0113 0.1145,0.2554 0.25445,0.54242 0.36057,0.73949 0.43567,2.15863 0.15373,2.90508 -0.11562,0.30612 -0.24183,0.58305 -0.28047,0.61539 -0.0386,0.0323 -0.21967,0.25921 -0.4023,0.50417 -0.18263,0.24495 -0.81733,0.84089 -1.41045,1.3243 -1.82804,1.48993 -2.42805,2.06108 -2.90859,2.76871 -0.38876,0.57247 -0.46285,0.77734 -0.46285,1.27977 0,0.68288 0.20671,1.25377 0.57173,1.579 0.25411,0.22641 0.3105,0.48473 0.18004,0.82471 -0.11346,0.29567 -0.37702,0.21681 -0.57868,-0.17315 -0.10215,-0.19753 -0.40161,-0.58118 -0.66547,-0.85254 -0.63987,-0.65808 -0.94622,-1.07177 -1.36682,-1.84571 -0.57777,-1.06313 -0.72764,-1.76196 -0.72964,-3.40213 -9.9e-4,-0.81288 -0.0407,-1.53129 -0.0882,-1.59646 -0.0475,-0.0652 -0.37744,-0.27303 -0.73316,-0.46192 -0.35571,-0.18888 -0.83196,-0.44801 -1.05833,-0.57584 -0.91644,-0.51751 -1.81626,-0.98884 -4.1092,-2.1524 -1.32226,-0.67098 -2.44362,-1.28389 -2.49192,-1.36203 -0.16498,-0.26695 -0.18392,-2.07603 -0.0462,-4.41334 0.0752,-1.27599 0.13644,-1.6757 0.25683,-1.6757 0.1764,0 0.19772,0.46277 0.16248,3.52778 -0.0156,1.36035 0.0184,1.87146 0.13432,2.01499 0.0854,0.10577 1.42527,0.83864 2.9775,1.62859 1.55222,0.78995 2.87514,1.47631 2.93981,1.52524 0.0647,0.0489 0.40864,0.24646 0.76435,0.43894 0.35572,0.19249 0.76342,0.423 0.906,0.51226 0.14258,0.0892 0.29753,0.12398 0.34434,0.0772 0.12302,-0.12302 -0.17313,-1.90162 -0.45425,-2.72821 -0.13199,-0.38806 -0.39402,-1.05242 -0.58231,-1.47636 l -0.34234,-0.77081 -0.72947,-0.12548 c -0.73117,-0.12578 -1.76961,-0.54247 -2.06078,-0.82693 -0.0855,-0.0835 -0.20469,-0.15181 -0.26495,-0.15181 -0.0603,0 -0.73736,-0.62177 -1.50467,-1.38171 -1.74194,-1.72522 -2.18527,-2.52646 -2.31841,-4.19015 -0.0682,-0.85219 -0.0543,-1.03479 0.0754,-0.99155 0.0913,0.0304 0.22297,0.39972 0.30924,0.86711 0.27612,1.49611 1.24208,3.06801 2.68639,4.37155 0.64896,0.58571 1.13711,0.89361 2.31733,1.46166 0.11231,0.0541 0.59678,0.0983 1.07662,0.0983 0.67717,0 0.98239,-0.0587 1.36373,-0.26225 0.60515,-0.32301 1.29481,-0.97802 1.29481,-1.22976 0,-0.49104 -1.07841,-0.67598 -1.83852,-0.31528 -0.22228,0.10548 -0.44007,0.15585 -0.48398,0.11195 -0.12351,-0.12351 0.13471,-0.46343 0.48126,-0.63353 0.1719,-0.0844 0.31254,-0.19048 0.31254,-0.23579 0,-0.0453 -0.31324,-0.20383 -0.69608,-0.35228 -0.82707,-0.32071 -1.04713,-0.52877 -0.83263,-0.78723 0.0805,-0.097 0.21741,-0.17639 0.30421,-0.17639 0.16067,0 0.92289,-0.39912 1.73128,-0.90653 0.38733,-0.24313 0.44305,-0.33214 0.41157,-0.65747 l -0.0364,-0.37628 -0.47037,-0.0629 c -0.62748,-0.0839 -0.76435,-0.18492 -0.76435,-0.56398 0,-0.59566 1.24494,-1.76177 1.55251,-1.4542 0.0741,0.0741 -0.037,0.23289 -0.31565,0.45098 -0.53646,0.41992 -0.80941,0.89341 -0.62267,1.08015 0.0973,0.0973 0.16494,0.0656 0.25856,-0.12108 0.14649,-0.29214 1.15053,-0.74226 1.42273,-0.63781 0.26787,0.1028 0.0417,0.46449 -0.43837,0.7011 l -0.3872,0.19083 0.33852,0.003 c 0.22668,0.002 0.49864,-0.14064 0.82315,-0.43111 0.26654,-0.23859 0.50186,-0.47551 0.52293,-0.52649 0.0211,-0.051 -0.13069,-0.42463 -0.33724,-0.83033 -0.73274,-1.43922 -0.90366,-2.53301 -0.45644,-2.92088 0.32222,-0.27947 1.29959,-0.48176 1.87953,-0.38902 l 0.46334,0.0741 v -1.36863 c 0,-1.79492 -0.19826,-2.27838 -1.09203,-2.66287 -0.94378,-0.406 -2.09609,-0.51179 -3.88291,-0.35649 -3.92397,0.34106 -4.17506,0.42491 -4.97496,1.66144 -0.28371,0.43856 -0.51584,0.83432 -0.51584,0.87946 0,0.0451 -0.23812,0.41577 -0.52916,0.82363 -0.29105,0.40786 -0.52917,0.853 -0.52917,0.98921 0,0.31445 -0.33146,0.82734 -0.53469,0.82734 -0.0852,0 -0.26789,-0.15875 -0.40605,-0.35278 -0.29001,-0.40728 -0.58197,-0.44906 -0.87505,-0.12522 -0.21641,0.23914 -0.21132,0.74557 0.0208,2.0655 0.18208,1.03541 0.46065,1.30132 1.2707,1.21296 0.25223,-0.0275 0.35084,0.0181 0.38344,0.1775 0.06,0.29316 -0.30421,0.66741 -0.64945,0.66741 -0.72565,0 -1.32636,-0.69998 -1.32636,-1.54554 0,-0.1972 -0.0857,-0.65334 -0.19044,-1.01364 -0.2327,-0.80046 -0.15544,-1.65878 0.1934,-2.14868 0.19653,-0.276 0.3365,-0.34863 0.67195,-0.34863 0.23304,0 0.52047,0.0876 0.63875,0.19462 0.14214,0.12864 0.21505,0.14579 0.21505,0.0506 0,-0.0792 0.15212,-0.36523 0.33806,-0.63558 0.18593,-0.27036 0.59444,-1.01144 0.90779,-1.64685 0.31335,-0.6354 0.74275,-1.32332 0.95421,-1.5287 0.31386,-0.30484 0.3847,-0.46459 0.38572,-0.86983 0.002,-0.94426 -0.8251,-2.25926 -1.85083,-2.94129 -0.32272,-0.21457 -0.36435,-0.73683 -0.0587,-0.73683 0.23716,0 1.00855,0.68353 1.48212,1.3133 0.42688,0.5677 0.78148,1.55842 0.78148,2.18342 0,0.27578 0.0498,0.50142 0.11073,0.50142 0.0609,0 1.00016,-0.10152 2.08726,-0.22561 2.95967,-0.33783 3.55828,-0.37472 4.30382,-0.26523 0.37454,0.055 0.69901,0.0689 0.72104,0.0308 0.0811,-0.13998 -0.30167,-1.36989 -0.58291,-1.87309 -0.29857,-0.53418 -0.36646,-0.89832 -0.18806,-1.00858 0.32341,-0.19988 1.07405,1.56401 1.07405,2.52388 0,0.42207 0.0455,0.58261 0.16527,0.58261 0.2226,0 1.12824,0.48947 1.12824,0.60978 0,0.0527 0.0853,0.0958 0.18948,0.0958 0.14915,0 0.17518,-0.0813 0.12232,-0.38217 -0.0369,-0.2102 -0.10157,-0.72614 -0.14362,-1.14653 -0.19078,-1.90718 -1.04062,-3.37712 -2.35271,-4.0694 -0.33751,-0.17808 -1.53212,-0.37129 -2.87195,-0.4645 -0.61442,-0.0427 -1.27588,-0.10153 -1.4699,-0.13064 -0.19403,-0.0291 -1.25637,-0.0827 -2.36075,-0.11914 -1.65707,-0.0546 -2.12411,-0.0325 -2.67256,0.12698 -0.69703,0.20263 -1.77362,0.74145 -2.38017,1.19125 -0.19686,0.14598 -0.72502,0.45683 -1.17371,0.69077 -0.81126,0.42299 -1.10521,0.74451 -1.51543,1.65755 -0.44626,0.99327 -0.51961,2.74815 -0.20152,4.8213 0.0595,0.38805 0.17222,1.23472 0.2504,1.88148 0.0782,0.64676 0.18746,1.23187 0.24284,1.30026 0.0883,0.10898 0.28761,0.75323 0.52551,1.69835 0.20132,0.7998 0.93479,2.26209 1.3052,2.60211 0.18517,0.16998 0.65417,0.48088 1.04222,0.69088 1.0848,0.58705 1.46991,0.912 1.46991,1.24031 0,0.31428 -0.23654,0.38212 -0.49137,0.14091 -0.0855,-0.0809 -0.44643,-0.30005 -0.80215,-0.48701 -0.66313,-0.34853 -1.24734,-0.74763 -1.57711,-1.07741 l -0.18637,-0.18636 -0.12515,0.32918 c -0.0688,0.18105 -0.16408,0.35671 -0.21166,0.39037 -0.17067,0.12073 -0.57794,0.78207 -1.01529,1.64869 -0.54782,1.08552 -0.53048,1.04035 -1.06061,2.76342 -0.23878,0.77611 -0.47548,1.54341 -0.52599,1.7051 -0.0505,0.16168 -0.1467,0.50564 -0.21376,0.76435 -0.0671,0.2587 -0.17903,0.68817 -0.24882,0.95438 -0.21167,0.80732 -0.16566,1.28298 0.13768,1.42343 0.39739,0.18399 1.97679,1.37713 4.7919,3.61996 4.89708,3.90157 6.34869,4.92323 8.76064,6.16585 0.90547,0.46649 2.00473,1.08945 2.44282,1.38436 1.70792,1.14976 2.62346,2.61006 3.2106,5.12095 0.0931,0.39815 0.2122,0.4809 0.48601,0.33771 0.11582,-0.0606 0.43547,-0.17665 0.71034,-0.25799 0.27488,-0.0813 0.49977,-0.16797 0.49977,-0.19253 0,-0.0246 -0.11153,-0.26328 -0.24785,-0.53049 -0.52953,-1.03796 -0.68701,-1.74421 -0.68934,-3.09137 -0.001,-0.71144 0.0452,-1.47873 0.10329,-1.7051 0.058,-0.22636 0.13812,-0.55709 0.17797,-0.73495 0.0793,-0.35373 0.42075,-0.44914 0.42075,-0.11755 0,0.11321 -0.0785,0.57623 -0.17435,1.02894 -0.37199,1.75621 -0.0612,3.52366 0.82613,4.69826 l 0.1736,0.22979 0.61739,-0.31262 c 1.1781,-0.59653 2.2274,-1.4492 3.08454,-2.50654 0.99739,-1.23035 1.40822,-1.57977 1.8574,-1.57977 0.35195,0 0.44782,0.0589 0.60343,0.37084 0.2041,0.40912 0.24211,1.0488 0.0811,1.36525 -0.0571,0.1123 -0.17512,0.36294 -0.26219,0.55696 -0.15649,0.34871 -0.56164,0.94795 -0.9525,1.4088 -0.28524,0.33632 -0.21202,0.46695 0.23991,0.42801 1.15013,-0.0991 2.25003,-1.15587 2.95208,-2.83634 0.37628,-0.9007 0.46255,-0.99156 0.7201,-0.75848 0.11438,0.10351 0.27709,0.42234 0.36159,0.70852 0.0845,0.28618 0.22038,0.52033 0.30196,0.52033 0.28469,0 0.62348,0.8929 0.62348,1.6432 0,0.39151 0.0632,0.81304 0.14044,0.93672 0.10885,0.1743 0.10885,0.29419 0,0.5331 -0.0772,0.16953 -0.14044,0.62173 -0.14044,1.0049 0,1.26283 -0.6933,2.40368 -1.99998,3.29102 -1.07539,0.73029 -1.62407,0.83473 -4.20218,0.79985 -1.53289,-0.0207 -2.2862,0.0116 -2.39696,0.10295 -0.20561,0.16954 -1.39288,0.39011 -2.09988,0.39011 -0.80724,0 -0.84742,0.10269 -0.4753,1.21471 0.17682,0.52841 0.38213,1.21287 0.45623,1.521 0.16615,0.69087 0.17727,1.96799 0.0171,1.96799 -0.0647,0 -0.11759,-0.1367 -0.11759,-0.30378 0,-0.71022 -0.89738,-3.68583 -1.25203,-4.15156 -0.0191,-0.0251 -0.26116,0.0116 -0.53788,0.0815 -0.27673,0.0699 -1.11169,0.26657 -1.85546,0.43696 -0.74377,0.17039 -1.51106,0.35501 -1.70509,0.41026 -0.19403,0.0553 -0.5909,0.16311 -0.88195,0.23967 -0.29104,0.0766 -0.66145,0.18119 -0.82314,0.23251 -0.16169,0.0513 -0.84961,0.23348 -1.52871,0.40478 -0.67909,0.17131 -1.427,0.36775 -1.66201,0.43653 l -0.42729,0.12505 0.42729,0.61091 c 0.53633,0.76679 1.03879,1.87187 1.28652,2.82946 0.0669,0.2587 0.17879,0.68817 0.24859,0.95438 0.18428,0.70286 0.15583,2.62714 -0.0506,3.4202 -0.39027,1.4996 -1.22483,2.86068 -3.31128,5.40038 -1.27909,1.55696 -2.09584,2.63803 -2.42118,3.20475 -0.92692,1.61461 -1.1262,2.16456 -1.32609,3.65964 -0.19165,1.43343 -0.0686,2.77223 0.42166,4.58611 0.26999,0.99903 0.59922,1.82296 0.82507,2.06484 l 0.2261,0.24215 -0.11539,2.93285 c -0.13729,3.48949 -0.30358,7.2315 -0.46478,10.45877 -0.0646,1.29352 -0.17361,3.7806 -0.24223,5.52685 -0.0686,1.74625 -0.15369,3.46604 -0.18907,3.82176 -0.32196,3.23756 -0.39432,3.77767 -0.6848,5.11117 -0.20104,0.92291 -0.44992,1.77771 -0.65171,2.23837 -0.0567,0.12935 -0.31957,0.80911 -0.58424,1.51058 -0.26467,0.70146 -0.58052,1.49521 -0.7019,1.76389 -1.5356,3.39903 -1.98008,4.87483 -2.60856,8.66118 -0.21534,1.2973 -0.1768,8.33228 0.0571,10.43048 0.39002,3.49808 0.42066,4.17708 0.30943,6.85563 -0.0604,1.45521 -0.13989,2.91041 -0.17658,3.23379 -0.25397,2.23855 -0.31112,2.63147 -0.64558,4.43912 -0.3991,2.15701 -0.79628,3.77318 -1.07649,4.38033 -0.0597,0.12935 -0.12048,0.81844 -0.13507,1.53131 l -0.0265,1.29612 0.29398,0.30464 c 0.31968,0.33126 0.76845,0.58911 1.41111,0.81076 0.22636,0.0781 0.62324,0.23443 0.88194,0.34746 1.04098,0.45482 2.70754,0.94654 4.70371,1.38784 2.4841,0.54917 3.35139,0.82711 3.35139,1.07403 0,0.0562 0.15352,0.26648 0.34116,0.46735 0.41786,0.44732 1.06995,0.52357 1.06995,0.12511 z M 141.29305,418.295 c 0,-0.14936 0.0812,-0.64196 0.18046,-1.09467 0.0992,-0.4527 0.212,-0.99508 0.25057,-1.20528 0.0386,-0.21019 0.12144,-0.38217 0.18416,-0.38217 0.12517,0 0.0667,0.65557 -0.14154,1.5875 -0.0723,0.32338 -0.16159,0.73413 -0.19849,0.91278 -0.0855,0.41377 -0.27516,0.53914 -0.27516,0.18184 z m 0.72413,-3.0349 c 0,-0.16169 0.0267,-0.22784 0.0593,-0.14699 0.0326,0.0808 0.0326,0.21314 0,0.29398 -0.0326,0.0808 -0.0593,0.0147 -0.0593,-0.14699 z m 19.63796,-3.99815 c 0,-0.16169 0.0267,-0.22783 0.0593,-0.14699 0.0326,0.0808 0.0326,0.21314 0,0.29398 -0.0326,0.0808 -0.0593,0.0147 -0.0593,-0.14699 z m 0.21662,-0.58796 c 0,-0.0862 0.0353,-0.12151 0.0784,-0.0784 0.0431,0.0431 0.0431,0.11368 0,0.15679 -0.0431,0.0431 -0.0784,0.008 -0.0784,-0.0784 z m 0.23518,-0.70556 c 0,-0.0862 0.0353,-0.12151 0.0784,-0.0784 0.0431,0.0431 0.0431,0.11367 0,0.15679 -0.0431,0.0431 -0.0784,0.008 -0.0784,-0.0784 z m -4.55248,-1.94027 c 8.9e-4,-0.32338 0.0237,-0.44172 0.0507,-0.26297 0.027,0.17875 0.0263,0.44333 -0.002,0.58796 -0.0279,0.14463 -0.05,-0.002 -0.0491,-0.32499 z m 13.00963,-65.59061 c -0.1453,-0.31889 0.0268,-0.87691 0.30323,-0.98297 0.43951,-0.16866 0.70697,0.5956 0.36574,1.0451 -0.21677,0.28557 -0.52353,0.25708 -0.66897,-0.0621 z m -14.08303,-7.49319 c 0,-0.16169 0.0267,-0.22784 0.0593,-0.14699 0.0326,0.0808 0.0326,0.21314 0,0.29398 -0.0326,0.0808 -0.0593,0.0147 -0.0593,-0.14699 z m -0.0359,-1.04243 c -0.0376,-0.34696 -0.0378,-0.87613 -4.1e-4,-1.17592 l 0.0679,-0.54508 0.0673,0.54814 c 0.037,0.30147 0.0372,0.83064 4.1e-4,1.17592 l -0.0669,0.6278 z m 0.0359,-2.13257 c 0,-0.16169 0.0267,-0.22784 0.0593,-0.14699 0.0326,0.0808 0.0326,0.21314 0,0.29398 -0.0326,0.0808 -0.0593,0.0147 -0.0593,-0.14699 z m -8.30174,-40.68964 c -1.09703,-0.4283 -1.216,-0.88603 -0.14233,-0.54759 0.78527,0.24754 1.1698,0.2484 1.80961,0.004 0.27848,-0.10635 0.54296,-0.15673 0.58774,-0.11195 0.12252,0.12252 -0.12343,0.44896 -0.50866,0.67511 -0.45155,0.26509 -1.0339,0.25855 -1.74636,-0.0196 z m -1.71219,-1.14822 c 0,-0.15895 1.18327,-0.98437 1.57022,-1.09534 1.13987,-0.32691 3.05319,0.13923 2.56702,0.6254 -0.0851,0.0851 -0.35727,0.0591 -0.88958,-0.085 -0.99446,-0.26919 -1.6808,-0.19013 -2.43848,0.28087 -0.59602,0.3705 -0.80918,0.4427 -0.80918,0.27404 z m 29.98611,31.47435 c 2.87096,-0.17339 3.69592,-0.49375 4.19976,-1.63093 0.2457,-0.55456 0.24366,-2.11216 -0.004,-2.92244 -0.47112,-1.54243 -1.12147,-2.42164 -2.46188,-3.32823 -0.40398,-0.27323 -1.02555,-0.76889 -1.38126,-1.10145 -0.82629,-0.77251 -1.1631,-0.99696 -1.49608,-0.99696 -0.22715,0 -0.26781,0.0618 -0.26781,0.40732 0,0.35036 0.12335,0.53028 0.88194,1.28641 0.52464,0.52294 0.88195,0.97672 0.88195,1.12007 0,0.13254 -0.24191,0.55907 -0.53758,0.94785 l -0.53758,0.70687 h -0.46868 c -0.63446,0 -1.47442,0.2205 -2.03802,0.53501 -0.6665,0.37193 -0.66218,0.52345 0.0149,0.52267 0.62678,-7.2e-4 1.20651,-0.13124 2.09707,-0.4721 0.32338,-0.12378 0.79963,-0.24003 1.05833,-0.25832 l 0.47037,-0.0333 0.0357,0.30778 0.0357,0.30779 -0.62367,0.19343 c -0.34301,0.1064 -0.83533,0.25122 -1.09403,0.32183 -0.25871,0.0706 -0.59193,0.17579 -0.74049,0.23373 -0.14857,0.0579 -0.39346,0.10535 -0.54421,0.10535 -0.60918,0 -1.47558,0.54285 -1.30553,0.818 0.0958,0.15492 1.27963,0.16025 1.75873,0.008 0.19862,-0.0632 0.88987,-0.24422 1.53612,-0.40235 1.18397,-0.28972 1.47084,-0.26691 1.47084,0.11698 0,0.17904 -0.58693,0.51778 -0.89716,0.51778 -0.1118,0 -0.36578,0.0493 -0.5644,0.10963 -0.19862,0.0603 -0.59925,0.17076 -0.89029,0.24548 -0.74657,0.19167 -1.22405,0.44145 -1.60604,0.84016 -0.27678,0.28891 -0.30195,0.36263 -0.15579,0.45638 0.18672,0.11976 1.1038,0.0313 1.43072,-0.13797 0.10893,-0.0564 0.30808,-0.10257 0.44256,-0.10257 0.13449,0 0.3364,-0.0484 0.44871,-0.10765 0.2788,-0.14699 1.80637,-0.59599 2.30044,-0.67616 0.81922,-0.13295 0.70984,0.53626 -0.12633,0.77284 -0.30735,0.087 -0.98214,0.28584 -1.49955,0.44195 -0.51741,0.15612 -1.15241,0.34388 -1.41111,0.41725 -0.25871,0.0734 -0.5184,0.17488 -0.5771,0.22557 -0.16744,0.14458 0.17318,0.47889 0.39015,0.38293 0.10282,-0.0455 0.90132,-0.12583 1.77445,-0.17857 z m -12.08337,-7.5626 c 0.6211,-0.29522 1.32195,-1.01232 1.68009,-1.71909 0.35395,-0.69849 0.72376,-2.04656 0.88513,-3.22656 0.0619,-0.45273 0.16314,-1.14065 0.22497,-1.5287 0.93847,-5.89056 1.05527,-9.99867 0.40286,-14.16991 -0.49025,-3.1344 -1.11203,-5.00471 -2.20775,-6.64081 -1.15541,-1.72525 -3.5176,-3.4554 -5.78242,-4.23528 -1.37524,-0.47355 -1.90323,-0.5587 -3.67989,-0.59343 l -1.80436,-0.0353 0.0652,0.54892 c 0.0359,0.30191 0.12162,1.73655 0.19058,3.18808 0.069,1.45153 0.14807,2.66183 0.17578,2.68954 0.0277,0.0277 0.40996,-0.0209 0.84943,-0.10798 1.06799,-0.21168 3.68575,-0.21183 4.44441,-2.7e-4 1.56989,0.4378 2.68842,1.46604 3.14386,2.8901 0.54344,1.69915 0.82059,5.22162 0.51841,6.58853 -0.29859,1.35062 -0.37581,1.60669 -0.75781,2.51302 l -0.36531,0.86673 0.38188,0.60318 c 1.18711,1.87505 1.80164,4.19363 1.68706,6.36522 -0.1659,3.14415 -0.98845,4.87923 -2.46203,5.19334 -0.39259,0.0837 -0.40856,0.23048 -0.0588,0.54027 0.66394,0.58806 1.58751,0.6892 2.46872,0.27037 z m 1.14521,-6.61272 c -0.001,-0.0532 -0.0772,-0.45128 -0.16898,-0.88451 -0.39321,-1.85535 -0.44513,-2.98371 -0.2262,-4.91555 0.11361,-1.00247 0.23623,-2.68286 0.2725,-3.73418 0.0373,-1.08004 0.1156,-1.92401 0.18011,-1.94028 0.0628,-0.0158 0.18674,0.39456 0.27543,0.91196 0.12644,0.73766 0.13402,1.1819 0.0352,2.05787 -0.34407,3.04817 -0.39481,5.34913 -0.1517,6.87917 0.22885,1.44024 0.22787,1.63433 -0.008,1.68138 -0.11318,0.0225 -0.2067,-0.003 -0.20783,-0.0559 z m -0.8084,-16.11881 c -0.17465,-0.93637 -0.27696,-1.2492 -0.73467,-2.2464 -0.79067,-1.72258 -1.93972,-2.72714 -3.72178,-3.25379 -0.82456,-0.24368 -2.55978,-0.52618 -3.24457,-0.52823 -0.72869,-0.002 -0.92908,-0.11231 -0.87683,-0.48187 0.0508,-0.35903 0.50249,-0.41692 1.80357,-0.23113 1.90722,0.27234 2.91826,0.54666 3.94453,1.07022 1.52348,0.77722 2.9642,3.30574 3.13089,5.49481 0.0906,1.19027 -0.0921,1.29729 -0.30114,0.17639 z m -11.8841,21.03312 c 0.14279,-1.41633 0.54415,-1.96175 2.99531,-4.07039 1.87443,-1.61249 2.35467,-2.32451 2.33971,-3.46898 -0.007,-0.5569 -0.0797,-0.88607 -0.26679,-1.21282 -0.55858,-0.97552 -0.5534,-0.97164 -1.66348,-1.24388 -1.85077,-0.4539 -3.47097,-1.51134 -4.20858,-2.74677 -0.18301,-0.30653 -0.49514,-0.44427 -0.49514,-0.2185 0,0.2427 -1.12656,1.33143 -1.60165,1.54786 l -0.51536,0.23478 0.33818,0.67314 c 1.20191,2.3924 1.31112,2.91422 1.27708,6.10223 -0.0292,2.73147 -0.0255,2.7562 0.60171,4.01654 0.33321,0.66958 0.94681,1.48244 1.04496,1.38429 0.0327,-0.0327 0.10205,-0.4816 0.15405,-0.9975 z m -0.27984,-2.79647 c -0.0431,-0.0431 -0.0784,-0.55137 -0.0784,-1.12945 0,-1.13746 0.20971,-1.74063 0.92507,-2.66066 0.18115,-0.23299 0.36955,-0.52945 0.41866,-0.65881 0.26468,-0.69713 0.43127,-1.60214 0.39846,-2.16463 -0.0223,-0.38158 0.0136,-0.65323 0.0896,-0.6792 0.40613,-0.13869 0.55308,1.8133 0.20285,2.69446 -0.10977,0.27618 -0.39783,0.81001 -0.64013,1.18628 -0.7146,1.10973 -0.95725,1.71003 -1.03527,2.56123 -0.0738,0.80534 -0.13649,0.99517 -0.28088,0.85078 z m 8.33038,-7.95857 c 0.55034,-0.28523 1.07775,-0.89783 1.38233,-1.60562 0.26362,-0.61258 0.36814,-0.93802 0.66533,-2.07152 0.16509,-0.62968 0.16403,-3.37605 -0.002,-3.91736 -0.22705,-0.74239 -0.80868,-1.84249 -1.13853,-2.15341 -0.47539,-0.44812 -1.08836,-0.75458 -1.80198,-0.90093 -0.77173,-0.15826 -1.71463,-0.009 -3.75144,0.59407 -0.22636,0.067 -0.83491,0.15664 -1.35231,0.19916 l -0.94074,0.0773 -0.0792,0.52917 c -0.0974,0.65062 -0.2885,1.5174 -0.39539,1.79328 -0.0956,0.24685 0.096,0.273 0.2898,0.0395 0.19911,-0.23992 1.13228,-0.6569 1.47009,-0.6569 0.34276,0 0.51682,0.21954 0.28787,0.36308 -0.0891,0.0559 -0.42797,0.18576 -0.75299,0.28862 -0.61536,0.19475 -1.21576,0.639 -1.44446,1.06878 -0.0733,0.13781 -0.21689,0.50823 -0.31901,0.82315 -0.10213,0.31492 -0.23025,0.67841 -0.28473,0.80776 -0.38034,0.90308 -0.59466,1.53832 -0.59466,1.76257 0,0.15517 0.28425,0.5715 0.69991,1.02511 1.02038,1.11357 2.53735,1.85326 4.29778,2.09564 1.09991,0.15144 3.34603,0.0551 3.76386,-0.16149 z m -1.77717,-1.42178 0.0728,-0.29017 -0.73578,-0.035 c -0.63906,-0.0304 -0.74033,-0.0668 -0.77036,-0.27671 -0.019,-0.13292 0.0736,-0.33956 0.20579,-0.45919 0.1322,-0.11964 0.24036,-0.27206 0.24036,-0.33871 0,-0.0667 0.10809,-0.23624 0.24019,-0.37685 0.20606,-0.21935 0.22035,-0.29918 0.10058,-0.56204 l -0.13959,-0.30638 -0.33981,0.24196 -0.33981,0.24196 -0.28994,-0.18998 c -0.3145,-0.20606 -0.39047,-0.71775 -0.16822,-1.13303 0.19862,-0.37112 0.38679,-0.2729 0.31576,0.16482 -0.0813,0.50111 0.0514,0.75069 0.26345,0.49524 0.0831,-0.10008 0.32124,-0.18196 0.52931,-0.18196 0.2894,0 0.40977,-0.0691 0.51224,-0.29398 0.0913,-0.20043 0.2283,-0.29398 0.43045,-0.29398 0.16308,0 0.2965,-0.0299 0.2965,-0.0665 0,-0.18878 -0.2652,-0.52143 -0.41571,-0.52143 -0.0947,0 -0.17225,-0.085 -0.17225,-0.18897 0,-0.12401 0.064,-0.16443 0.18601,-0.11759 0.1023,0.0393 0.23323,0.0714 0.29096,0.0714 0.0577,0 0.18913,0.16279 0.29202,0.36174 l 0.18706,0.36174 -0.18091,0.2761 c -0.0995,0.15186 -0.28059,0.30774 -0.40243,0.34641 -0.15993,0.0508 -0.21101,0.15949 -0.18374,0.3911 0.0208,0.17643 0.009,0.22525 -0.0267,0.10849 -0.0599,-0.19715 -0.30838,-0.23963 -0.2887,-0.0493 0.005,0.0469 0.009,0.19109 0.009,0.32044 0,0.26606 0.2947,0.32095 0.38999,0.0726 0.0632,-0.16477 1.00858,-0.16711 1.52321,-0.004 0.30781,0.0977 0.19282,0.68858 -0.21728,1.11664 l -0.29898,0.31207 0.26653,0.0697 c 0.32805,0.0858 0.33796,0.0766 -0.64774,0.59723 l -0.80696,0.42619 z m 0.12997,-0.65421 c 0.04,-0.0647 0.16501,-0.1176 0.27786,-0.1176 0.21727,0 1.04302,-0.77619 0.93774,-0.88147 -0.034,-0.034 -0.24207,0.0578 -0.46233,0.20403 -0.22027,0.14623 -0.61216,0.33939 -0.87086,0.42924 -0.2587,0.0899 -0.57475,0.23537 -0.70232,0.32338 l -0.23195,0.16001 h 0.48959 c 0.26928,0 0.5223,-0.0529 0.56227,-0.11759 z m 0.47037,-1.03067 c 0.36438,-0.18878 0.42645,-0.261 0.27545,-0.32049 -0.26521,-0.10447 -1.51017,0.47621 -1.51017,0.70438 0,0.19898 0.27442,0.11366 1.23472,-0.38389 z m -6.08541,-2.44669 c -0.16335,-0.16599 -0.0899,-0.2856 0.17639,-0.28738 0.48052,-0.003 1.19944,-0.32093 1.5875,-0.70157 0.21019,-0.20618 0.38217,-0.42331 0.38217,-0.48252 0,-0.0592 0.0529,-0.10766 0.11759,-0.10766 0.1828,0 0.13858,0.44663 -0.0768,0.77527 -0.10689,0.16314 -0.39776,0.40039 -0.64638,0.52722 -0.49906,0.25461 -1.40254,0.41685 -1.54051,0.27664 z m 4.55671,-2.51987 c -0.12911,-0.20891 0.0762,-0.37391 0.37265,-0.2995 0.45609,0.11447 1.0723,-0.0532 1.43342,-0.39011 0.6782,-0.63268 0.72217,-0.6571 0.72217,-0.40111 0,0.2692 -0.25971,0.58426 -0.7825,0.94931 -0.27368,0.1911 -0.54164,0.25901 -1.022,0.25901 -0.35809,0 -0.68377,-0.0529 -0.72374,-0.1176 z m -0.34093,-0.80398 c -0.16097,-0.26044 0.30818,-0.6084 1.64348,-1.21896 0.2975,-0.13603 1.05454,-0.0787 1.03575,0.0784 -0.0178,0.14853 -0.20062,0.23288 -1.01238,0.467 -0.37023,0.10678 -0.82766,0.32416 -1.01651,0.48307 -0.35827,0.30146 -0.5475,0.35689 -0.65034,0.19049 z m -5.93152,4.83008 c 0.17201,-0.43576 0.37778,-1.00397 0.45727,-1.26267 0.0795,-0.2587 0.18351,-0.5762 0.23115,-0.70556 0.20976,-0.56956 0.87435,-3.93795 0.79003,-4.0042 -0.015,-0.0118 -0.28288,-0.0489 -0.59525,-0.0825 l -0.56795,-0.0611 0.076,0.30282 c 0.0418,0.16655 0.17174,0.43834 0.28875,0.60398 0.31888,0.45139 0.3981,0.96928 0.19032,1.24418 -0.0968,0.12809 -0.17772,0.30886 -0.17978,0.40171 -0.005,0.21909 -0.4697,0.71313 -0.671,0.71313 -0.22481,0 -0.19846,0.76644 0.0388,1.12856 l 0.1947,0.29713 -0.1947,0.40828 c -0.10708,0.22455 -0.1955,0.52554 -0.19649,0.66886 -0.002,0.3615 -0.12283,0.51671 -0.52976,0.68332 -0.2688,0.11006 -0.30247,0.15485 -0.14459,0.19237 0.11318,0.0269 0.20578,0.0979 0.20578,0.15788 0,0.0599 0.0661,0.10832 0.14699,0.10752 0.0808,-8e-4 0.28773,-0.35798 0.45973,-0.79375 z m -0.61325,-0.31406 c 0.11239,-0.13542 0.0851,-0.2044 -0.13892,-0.35119 -0.21741,-0.14245 -0.36781,-0.15713 -0.68325,-0.0667 -0.22246,0.0638 -0.60325,0.116 -0.84622,0.116 -0.24296,0 -0.44174,0.0448 -0.44174,0.0996 0,0.3466 1.84367,0.52329 2.11013,0.20223 z m 0.24172,-0.99202 c 0,-0.19374 -0.84374,-0.24753 -1.16278,-0.0741 l -0.30713,0.16692 0.73495,0.005 c 0.40423,0.003 0.73496,-0.0413 0.73496,-0.0975 z m -0.23063,-0.83002 c -0.0667,-0.12466 -0.0914,-0.30452 -0.0549,-0.39968 0.0365,-0.0951 0.009,-0.20817 -0.06,-0.25115 -0.0696,-0.043 -0.15948,0.008 -0.19987,0.11319 -0.0866,0.22575 0.13314,0.76431 0.31189,0.76431 0.0862,0 0.0871,-0.0693 0.003,-0.22667 z m 11.1724,-4.0483 c -0.31373,-0.95062 -1.3412,-1.94422 -2.28744,-2.21205 -1.11,-0.31418 -2.33096,-0.39756 -3.77424,-0.25776 -1.87674,0.18179 -2.05787,0.25701 -2.05787,0.85459 0,0.25609 -0.055,0.6102 -0.12215,0.7869 -0.0919,0.24182 -0.0847,0.34712 0.0294,0.42578 0.23561,0.16248 1.86158,-0.003 3.18546,-0.32327 1.6538,-0.40066 2.87978,-0.3974 3.69704,0.01 0.33194,0.16541 0.7789,0.50021 0.99323,0.744 0.21434,0.24378 0.40821,0.42949 0.43082,0.41268 0.0226,-0.0168 -0.0198,-0.21513 -0.0943,-0.44073 z m -9.02128,-0.57611 c 0.11085,-0.0811 0.23372,-0.34564 0.27304,-0.58796 l 0.0715,-0.44059 h -0.82031 c -0.66578,0 -0.85966,0.0435 -1.02918,0.23081 -0.25807,0.28515 -0.17866,0.51928 0.25308,0.74622 0.41755,0.21949 0.98994,0.24304 1.25187,0.0515 z m -21.20568,34.13164 c 0,-0.0862 0.0353,-0.12152 0.0784,-0.0784 0.0431,0.0431 0.0431,0.11367 0,0.15679 -0.0431,0.0431 -0.0784,0.008 -0.0784,-0.0784 z"
       id="path33" /></g></svg>
