<?xml version="1.0" encoding="UTF-8" standalone="no"?>
<!-- Created with Inkscape (http://www.inkscape.org/) -->

<svg
   width="132.0284mm"
   height="70.324051mm"
   viewBox="0 0 132.02841 70.324051"
   version="1.1"
   id="svg1"
   xml:space="preserve"
   xmlns="http://www.w3.org/2000/svg"
   xmlns:svg="http://www.w3.org/2000/svg"><defs
     id="defs1" /><g
     id="layer1"
     transform="translate(480.1731,95.679805)"><path
       style="fill:#4d4d4d"
       d="m -453.46386,-25.649753 -0.22542,-0.28658 -0.32974,0.17107 c -0.29081,0.15087 -0.36239,0.14968 -0.60626,-0.0101 -0.15209,-0.0996 -0.27653,-0.23896 -0.27653,-0.30959 0,-0.0762 -0.11789,-0.0512 -0.28984,0.0615 -0.15941,0.10445 -0.38934,0.18991 -0.51094,0.18991 -0.28483,0 -0.61033,-0.36056 -0.61033,-0.67607 0,-0.17899 -0.0984,-0.26759 -0.36133,-0.32534 -0.37463,-0.0823 -0.81332,-0.63568 -0.81415,-1.02706 -3.1e-4,-0.14311 -0.0936,-0.20579 -0.30618,-0.20579 -0.19092,0 -0.4559,-0.15015 -0.70556,-0.39981 -0.35605,-0.35605 -0.39981,-0.46938 -0.39981,-1.03531 0,-0.78433 0.40163,-1.47929 1.24833,-2.16004 1.39993,-1.12555 2.54275,-2.52577 3.51417,-4.30566 0.59234,-1.08533 0.88194,-1.38909 0.88194,-0.92507 0,0.34256 -0.60338,1.518 -1.38971,2.70727 -0.65332,0.98813 -1.90191,2.33272 -3.00805,3.23934 l -0.576,0.47211 0.13145,0.74625 c 0.16913,0.96016 0.27589,1.09124 0.7632,0.93704 0.86896,-0.27498 1.36943,-0.66757 2.14165,-1.68001 0.17549,-0.23008 0.38905,-0.41833 0.47457,-0.41833 0.26989,0 0.31446,0.23451 0.10525,0.5538 -0.29787,0.4546 -1.99551,2.15083 -2.15262,2.15083 -0.0743,0 -0.13511,0.13129 -0.13511,0.29174 0,0.671 1.00258,0.41042 1.71312,-0.44525 1.05184,-1.26669 1.47205,-1.5731 1.55002,-1.13026 0.0332,0.18834 -0.31747,0.61347 -1.51467,1.8365 -0.76223,0.77868 -0.91372,1.09357 -0.5261,1.09357 0.15013,0 1.29143,-1.14293 2.08649,-2.08948 0.35601,-0.42383 0.44375,-0.47534 0.56363,-0.33089 0.14823,0.17861 0.0546,0.46778 -0.25706,0.7943 -0.63531,0.66549 -1.27615,1.52827 -1.24384,1.67462 0.0344,0.15602 0.0846,0.15477 0.42399,-0.0106 0.34236,-0.16682 0.74273,-0.5969 1.49506,-1.60596 0.12854,-0.1724 0.30051,-0.31345 0.38218,-0.31345 0.3142,0 0.12172,0.56178 -0.45604,1.33101 -0.65126,0.86707 -0.64968,1.10837 0.006,0.96429 0.34608,-0.076 0.95099,-0.69304 0.95099,-0.97004 0,-0.27832 0.36669,-0.79087 1.01648,-1.42083 0.37941,-0.36783 1.33649,-1.44329 2.12684,-2.38991 2.16802,-2.5967 2.61803,-2.98521 4.20622,-3.63142 0.12935,-0.0526 0.80194,-0.16062 1.49463,-0.23999 1.00175,-0.11477 1.59124,-0.11401 2.88102,0.004 1.16898,0.1067 3.1149,0.12895 6.97203,0.0797 9.79493,-0.12502 14.53548,-0.35606 18.22685,-0.88832 1.44297,-0.20806 6.31283,-1.2797 6.995,-1.53929 1.79288,-0.68224 2.49356,-1.5558 3.01891,-3.76375 0.20252,-0.85114 0.21472,-5.16127 0.0165,-5.82083 -0.56224,-1.87059 -0.90822,-2.89808 -0.99363,-2.95086 -0.0548,-0.0339 -0.0997,-0.187679 -0.0997,-0.341734 0,-0.154056 -0.0529,-0.312806 -0.11759,-0.352778 -0.0647,-0.03997 -0.11759,-0.251639 -0.11759,-0.470371 0,-0.218731 -0.0529,-0.430398 -0.11759,-0.47037 -0.0647,-0.03997 -0.1176,-0.153989 -0.1176,-0.25337 0,-0.09938 -0.0996,-0.321155 -0.22145,-0.492829 -0.1218,-0.171674 -0.25046,-0.417968 -0.28591,-0.547319 -0.0761,-0.277746 0.0218,5.006931 0.10254,5.536461 0.0384,0.25187 -0.0273,0.48498 -0.21547,0.76435 -0.57326,0.85108 -1.80179,1.22407 -4.46761,1.35638 l -1.61892,0.0804 0.0714,0.38046 c 0.0874,0.46601 -0.24913,3.41337 -0.4854,4.25091 -0.12402,0.43964 -0.29467,0.71356 -0.61191,0.98221 l -0.43993,0.37255 -3.29259,-0.0935 c -4.84386,-0.13752 -11.4288,-0.11117 -15.11065,0.0605 -1.77859,0.0829 -5.24463,0.19311 -7.70231,0.24489 -5.05851,0.10657 -7.41903,0.27068 -10.05417,0.69899 -0.4204,0.0683 -0.94956,0.15266 -1.17593,0.1874 -0.22636,0.0347 -0.59678,0.11057 -0.82315,0.16851 -0.22636,0.0579 -0.67615,0.16495 -0.99953,0.23779 -1.78751,0.40264 -2.77708,0.77282 -5.11528,1.9135 -1.06715,0.5206 -1.96674,0.97773 -1.99908,1.01583 -0.0323,0.0381 -0.29692,0.19544 -0.58796,0.34964 -0.29104,0.15419 -0.79375,0.42479 -1.11713,0.60134 -0.32338,0.17654 -1.01129,0.54531 -1.5287,0.81949 -2.41361,1.279 -3.31514,1.84011 -4.22471,2.62945 -0.37066,0.32166 -1.07467,0.69262 -1.67686,0.88357 -0.96253,0.30521 -2.27112,-0.68834 -2.27112,-1.72436 v -0.34359 l -0.46395,-0.0742 c -0.61359,-0.0981 -0.82908,-0.42112 -0.83137,-1.24615 -0.002,-0.81972 -0.10393,-1.00789 -0.4167,-0.77132 -0.34055,0.25758 -0.94685,0.22641 -1.14672,-0.059 -0.13785,-0.19681 -0.24822,-0.22615 -0.62437,-0.166 -0.56714,0.0907 -1.103,-0.2655 -1.103,-0.73317 0,-0.2384 -0.0412,-0.28072 -0.20578,-0.21153 -0.65314,0.27453 -1.23787,0.006 -1.37831,-0.63381 -0.0589,-0.26805 -0.17151,-0.36341 -0.5676,-0.48053 -0.57834,-0.17102 -0.84137,-0.38124 -1.08298,-0.86556 -0.23989,-0.48087 -0.22071,-0.79675 0.0829,-1.36555 0.5062,-0.94835 1.58119,-1.68706 3.5951,-2.47047 1.17598,-0.45745 3.60047,-1.81286 3.91009,-2.18592 0.0791,-0.0954 0.21679,-0.17339 0.30589,-0.17339 0.0891,0 0.16199,-0.044 0.16199,-0.0977 0,-0.0538 0.14552,-0.17281 0.32338,-0.26458 0.17786,-0.0918 0.42596,-0.25947 0.55134,-0.37265 0.12538,-0.11318 0.29736,-0.20579 0.38217,-0.20579 0.0848,0 0.15422,-0.0452 0.15422,-0.10054 0,-0.0871 1.98763,-1.07538 2.16273,-1.07538 0.20726,0 1.46137,-0.66774 2.36887,-1.26128 1.08848,-0.71191 1.48747,-0.90454 2.14076,-1.03355 0.3783,-0.0747 0.53087,-0.023 1.44153,0.48851 0.7906,0.44407 1.58477,0.54154 4.7037,0.57731 2.47746,0.0284 3.0046,0.0635 3.03305,0.20154 0.0656,0.31847 -0.28492,0.4273 -1.62641,0.50493 -2.77341,0.1605 -5.79236,-0.24348 -6.71173,-0.89814 -0.59747,-0.42543 -1.14238,-0.29032 -2.4794,0.61482 -0.57601,0.38994 -2.22506,1.2271 -2.97523,1.51039 -0.35752,0.13502 -1.40331,0.63659 -1.46991,0.70499 -0.0323,0.0332 -0.19109,0.13323 -0.35278,0.22226 -0.16169,0.089 -0.79668,0.52083 -1.41111,0.95956 -1.4776,1.05507 -3.17633,2.01864 -4.6743,2.65141 -0.24254,0.10245 -0.53286,0.23474 -0.64517,0.29398 -0.1123,0.0592 -0.26116,0.10771 -0.33078,0.10771 -0.0696,0 -0.46227,0.16189 -0.87254,0.35976 -0.8581,0.41385 -1.35591,1.03109 -1.35591,1.68119 0,0.48356 0.19553,0.66497 0.80483,0.74669 0.61574,0.0826 1.18898,-0.1226 2.07722,-0.74352 0.72274,-0.50523 1.25537,-0.64815 1.42039,-0.38113 0.12245,0.19812 -0.69644,0.85616 -1.7448,1.40211 -0.93436,0.48657 -1.17512,0.83348 -0.68616,0.98867 0.31891,0.10122 0.73161,-0.0237 1.79412,-0.54288 1.02736,-0.50204 1.24581,-0.54432 1.35413,-0.26205 0.0871,0.22699 -0.26445,0.52336 -0.88801,0.74863 -0.46908,0.16947 -0.71203,0.41846 -0.71779,0.73563 -0.002,0.13417 0.0854,0.20579 0.25249,0.20579 0.33329,0 1.03728,-0.25546 1.03728,-0.3764 0,-0.0517 0.0661,-0.0952 0.14699,-0.0966 0.0808,-10e-4 0.27602,-0.10178 0.43372,-0.22299 0.1577,-0.12121 0.35614,-0.19375 0.44098,-0.1612 0.1176,0.0451 0.15424,-0.12405 0.15424,-0.71221 0,-0.42427 0.0555,-0.89295 0.12329,-1.04151 0.13481,-0.29536 0.83013,-0.79929 1.10284,-0.79929 0.0941,0 0.19951,-0.046 0.23423,-0.10214 0.0347,-0.0562 0.26701,-0.13475 0.51619,-0.1746 0.33633,-0.0538 0.61727,-0.23361 1.09034,-0.69792 0.3505,-0.34401 0.95478,-0.8405 1.34283,-1.10331 0.71266,-0.48264 2.71913,-1.48769 3.85285,-1.9299 0.33862,-0.13208 1.51525,-0.67913 2.61474,-1.21567 3.3635,-1.64136 3.36862,-1.64221 6.71634,-1.12085 0.39551,0.0616 0.89822,0.11194 1.11713,0.11187 l 0.39802,-1.1e-4 0.0285,-1.00762 c 0.0189,-0.66784 0.0883,-1.09299 0.20578,-1.26077 0.0975,-0.13924 0.17732,-0.42226 0.17732,-0.62895 0,-0.48378 0.1038,-0.7478 0.29398,-0.7478 0.16521,0 0.29398,-0.25378 0.29398,-0.57936 0,-0.50007 0.54389,-0.70705 2.17547,-0.82789 0.64675,-0.0479 1.7011,-0.18288 2.34299,-0.29995 0.99605,-0.18167 1.27175,-0.19192 1.88148,-0.07 0.72267,0.14453 2.08437,0.52318 2.69178,0.74852 0.89914,0.33358 3.95789,0.0141 7.01847,-0.73294 1.57384,-0.38418 3.74766,-1.058313 3.82709,-1.186841 0.037,-0.05993 0.0227,-0.10896 -0.0318,-0.10896 -0.0546,0 -0.18695,-0.145521 -0.29424,-0.32338 -0.10728,-0.177859 -0.31716,-0.455671 -0.4664,-0.617361 -0.14923,-0.16169 -0.50891,-0.585023 -0.79928,-0.940741 -0.29037,-0.355717 -1.03117,-1.22819 -1.64622,-1.938829 -0.61505,-0.710638 -1.25057,-1.446346 -1.41226,-1.634906 -0.16169,-0.18856 -0.39982,-0.454879 -0.52917,-0.59182 -0.12935,-0.136941 -0.81727,-0.882593 -1.5287,-1.657004 -0.71144,-0.774412 -2.44946,-2.581089 -3.86227,-4.01484 -1.41281,-1.43375 -2.65329,-2.730515 -2.75661,-2.8817 -0.10332,-0.151185 -0.22088,-0.301341 -0.26123,-0.333679 -0.14534,-0.116461 -0.78331,-1.126257 -0.97704,-1.546475 -0.10887,-0.23614 -0.19583,-0.55364 -0.19326,-0.705556 0.004,-0.236286 0.0358,-0.213885 0.22022,0.154987 0.47532,0.950943 0.44171,0.912294 3.42567,3.938843 3.01888,3.061958 4.93775,5.076763 5.69804,5.982905 0.32338,0.385418 0.7219,0.833051 0.88561,0.994741 0.49923,0.493078 3.28559,3.774665 3.63513,4.281218 0.0934,0.135353 0.25215,0.325524 0.35278,0.422601 0.32554,0.314054 0.94731,1.158461 0.94731,1.286508 0,0.179656 0.0855,0.163311 1.24533,-0.238191 0.57625,-0.199474 1.16679,-0.390851 1.31231,-0.425283 0.14552,-0.03443 0.26458,-0.113024 0.26458,-0.174648 0,-0.12292 -2.66549,-3.670839 -3.14738,-4.189341 -0.0818,-0.08804 -0.29349,-0.353585 -0.47037,-0.590099 -0.17688,-0.236515 -0.46046,-0.589122 -0.63017,-0.783572 -0.16972,-0.19445 -0.95146,-1.120837 -1.73721,-2.058637 -0.78575,-0.937801 -1.54647,-1.839511 -1.6905,-2.003799 -0.14403,-0.164288 -0.60577,-0.693455 -1.02609,-1.175926 -0.42032,-0.482471 -0.79074,-0.903678 -0.82315,-0.936016 -0.0324,-0.03234 -0.42887,-0.48213 -0.88103,-0.999537 -0.45216,-0.517408 -0.84976,-0.967199 -0.88356,-0.999537 -0.0338,-0.03234 -0.29789,-0.349838 -0.58687,-0.705556 -0.28898,-0.355718 -0.60619,-0.726134 -0.70491,-0.823148 -0.28096,-0.2761 -1.77773,-2.094873 -2.41935,-2.939815 -0.31924,-0.420394 -0.61086,-0.79081 -0.64805,-0.823148 -0.0372,-0.03234 -0.2992,-0.402755 -0.58223,-0.823148 -0.28304,-0.420394 -0.6098,-0.866934 -0.72613,-0.992313 -0.11633,-0.125378 -0.21152,-0.295696 -0.21152,-0.378485 0,-0.08549 -0.0762,-0.121279 -0.17638,-0.08284 -0.097,0.03723 -0.17639,0.164736 -0.17639,0.283351 0,0.118615 -0.0529,0.248368 -0.1176,0.28834 -0.0647,0.03997 -0.11759,0.198722 -0.11759,0.352778 0,0.154056 -0.0473,0.309351 -0.10517,0.345101 -0.11538,0.07131 -0.21397,0.641432 -0.32161,1.85976 -0.0386,0.436563 -0.12457,0.79375 -0.1911,0.79375 -0.0795,0 -0.0984,-0.433602 -0.0552,-1.26412 0.0614,-1.180296 0.31545,-2.294711 0.69652,-3.055068 0.10249,-0.204495 0.0861,-0.398709 -0.0745,-0.881945 -0.38001,-1.143324 -0.53682,-2.139657 -0.53682,-3.410793 0,-1.701305 0.22576,-2.71404 0.95066,-4.264463 0.89221,-1.908281 2.83775,-3.940192 5.39934,-5.639056 0.87299,-0.578976 2.52675,-1.454025 3.23379,-1.711097 0.12936,-0.04703 0.36748,-0.139475 0.52917,-0.205432 0.31127,-0.126973 0.82413,-0.265868 1.88148,-0.509551 0.8428,-0.194235 4.20083,-0.193049 5.05648,0.0018 1.49565,0.340564 2.43179,0.612574 3.175,0.922551 3.69333,1.540391 4.84603,1.790336 8.25677,1.790336 1.97488,0 2.34445,0.02737 2.40221,0.177886 0.0375,0.09784 -0.003,0.263657 -0.0899,0.368488 -0.14017,0.168894 -0.44634,0.182948 -2.68839,0.123399 -2.54699,-0.06765 -3.30404,-0.170672 -4.76446,-0.648372 -0.80812,-0.264336 -2.83994,-1.043682 -3.144,-1.205951 -0.11231,-0.05993 -0.30762,-0.108969 -0.43404,-0.108969 -0.12641,0 -0.25877,-0.04682 -0.29413,-0.104034 -0.0354,-0.05722 -0.21047,-0.133338 -0.38912,-0.169154 -0.17865,-0.03581 -0.56294,-0.124606 -0.85399,-0.197313 -1.30709,-0.32653 -1.82989,-0.386717 -3.76296,-0.433213 -1.29071,-0.03104 -2.25514,-5.66e-4 -2.58704,0.08176 -1.54152,0.382353 -1.69698,0.433425 -2.45115,0.805261 -0.28099,0.138535 -0.56039,0.251883 -0.6209,0.251883 -0.20915,0 -2.28223,1.316296 -3.33675,2.118647 -1.59308,1.212139 -2.59647,2.229446 -3.41958,3.467001 -1.21443,1.825893 -1.75994,3.641249 -1.66082,5.526852 0.10676,2.030935 0.57196,3.407443 1.56889,4.642252 0.0795,0.09847 0.55376,0.734669 1.05391,1.413766 0.7226,0.981138 2.92786,3.719817 3.21942,3.998149 0.0339,0.03234 0.40544,0.455671 0.82569,0.94074 0.42025,0.48507 0.79108,0.908403 0.82406,0.940741 0.033,0.03234 0.42991,0.48213 0.88207,0.999537 0.45216,0.517408 0.84929,0.967199 0.88252,0.999537 0.0332,0.03234 0.29685,0.349838 0.58583,0.705556 0.28898,0.355717 0.60987,0.726134 0.71308,0.823148 0.10321,0.09701 0.89235,1.023056 1.75364,2.05787 0.86129,1.034815 1.78323,2.140405 2.04874,2.456867 0.26551,0.316461 0.55995,0.686878 0.65432,0.823148 0.0944,0.13627 0.24114,0.318944 0.32617,0.405942 0.085,0.087 0.84299,1.072164 1.68437,2.189257 l 1.52977,2.031079 0.73109,-0.233501 c 0.40211,-0.128426 0.82298,-0.280154 0.93529,-0.337174 0.1123,-0.05702 0.285,-0.103673 0.38377,-0.103673 0.0988,0 0.27147,-0.04776 0.38377,-0.106132 0.36445,-0.189429 2.2975,-0.694188 4.55512,-1.18944 1.01932,-0.223608 4.12614,-0.58591 5.02431,-0.58591 0.60726,0 0.68685,-0.02592 0.63188,-0.205787 -0.0346,-0.113182 -0.1444,-0.523287 -0.24402,-0.911342 -0.28421,-1.107167 -0.42518,-1.477179 -0.53655,-1.408349 -0.12779,0.07898 -0.4659,-0.553793 -0.4659,-0.871927 0,-0.128747 -0.0529,-0.266789 -0.11759,-0.306761 -0.0647,-0.03997 -0.11759,-0.191262 -0.11759,-0.336199 0,-0.144938 -0.0437,-0.313794 -0.0971,-0.375236 -0.0534,-0.06144 -0.16749,-0.335844 -0.25345,-0.609782 -0.086,-0.273938 -0.25392,-0.586411 -0.37323,-0.694383 -0.1193,-0.107973 -0.21692,-0.347581 -0.21692,-0.532462 0,-0.184881 -0.0471,-0.428034 -0.10472,-0.540339 -0.0576,-0.112306 -0.21155,-0.442317 -0.34212,-0.733359 -0.54533,-1.215616 -4.67565,-9.469408 -4.75663,-9.505401 -0.0485,-0.02156 -0.0882,-0.09061 -0.0882,-0.153443 0,-0.189689 -0.93752,-1.517879 -1.69695,-2.404091 -1.03561,-1.20849 -1.15704,-1.357839 -1.47405,-1.812991 -0.15766,-0.226365 -0.31992,-0.438032 -0.36059,-0.47037 -0.2184,-0.173678 -1.29517,-1.910511 -1.31971,-2.128687 -0.0541,-0.481121 0.22692,-0.348235 0.6678,0.315766 l 0.44052,0.663483 0.53599,-0.806994 c 0.61112,-0.92011 1.33135,-1.641216 2.26625,-2.269005 0.98307,-0.66014 2.00376,-1.075857 3.64537,-1.484728 0.79991,-0.199232 2.93683,-0.219358 3.34904,-0.03154 0.4304,0.1961 0.51333,0.05634 0.64313,-1.083742 0.11092,-0.974233 0.24593,-1.935401 0.47005,-3.34631 0.0616,-0.388055 0.17575,-1.227065 0.25358,-1.864466 0.11334,-0.928179 0.19854,-1.22668 0.42794,-1.499305 0.15753,-0.187217 0.36181,-0.340395 0.45395,-0.340395 0.0921,0 0.25942,-0.04674 0.37173,-0.103873 0.58317,-0.296662 0.68558,-0.331164 3.37919,-1.138443 0.58208,-0.174451 1.37583,-0.44954 1.76389,-0.611309 0.98814,-0.411927 2.42065,-0.932584 3.52777,-1.282196 0.51741,-0.163389 1.03263,-0.344879 1.14494,-0.40331 0.1123,-0.05843 0.31146,-0.10624 0.44256,-0.10624 0.13111,0 0.33027,-0.04776 0.44257,-0.106131 0.11231,-0.05837 0.44232,-0.170237 0.73336,-0.248589 0.29104,-0.07835 0.635,-0.185356 0.76435,-0.237789 0.12935,-0.05243 0.39394,-0.128144 0.58797,-0.168248 0.19402,-0.0401 0.53798,-0.121046 0.76435,-0.179871 2.9859,-0.775931 6.22823,-1.167127 9.71832,-1.172544 3.92079,-0.0061 6.54522,0.399085 7.97936,1.231885 1.30591,0.758334 2.43313,2.52217 3.23463,5.061443 0.63104,1.999233 0.94177,2.653245 1.53373,3.228178 0.80876,0.785494 3.25023,2.190666 4.70154,2.705941 0.98309,0.349038 1.05464,0.328808 1.05464,-0.298204 0,-0.472845 0.036,-0.545488 0.32338,-0.652555 1.14991,-0.428411 2.60779,-1.396653 3.79236,-2.518678 0.89571,-0.848414 1.87868,-1.588356 2.11005,-1.588356 0.0701,0 0.21929,-0.04674 0.33159,-0.103873 0.71507,-0.36376 1.12721,-0.465365 2.43845,-0.60116 1.43881,-0.149006 3.04708,0.0077 3.73197,0.363716 0.11231,0.05837 0.26152,0.106132 0.33159,0.106132 0.20571,0 1.19542,0.715288 1.61745,1.168962 0.39043,0.419714 1.08057,1.716758 1.08057,2.030834 0,0.09216 0.24231,0.93126 0.53846,1.864669 l 0.53847,1.697109 -3.4e-4,1.234722 c -2.5e-4,0.897321 -0.0631,1.433751 -0.2301,1.96307 -0.18312,0.580512 -0.21761,0.94137 -0.16992,1.777855 0.0368,0.645879 0.003,1.285361 -0.0873,1.662769 -0.19474,0.811766 -0.80909,1.468153 -1.56281,1.669742 -0.66464,0.177765 -0.51482,0.33051 0.32676,0.33312 1.24039,0.0038 4.2035,0.589646 5.46805,1.081019 2.19719,0.853771 3.69948,2.058717 4.5142,3.620716 0.99054,1.899086 1.44066,4.203487 1.1377,5.82458 -0.0725,0.388055 -0.1275,0.758472 -0.12219,0.823148 0.005,0.06468 0.0378,0.444927 0.0723,0.845003 0.036,0.418285 0.01,0.81807 -0.0615,0.940741 -0.0967,0.16618 -0.12487,0.04914 -0.12765,-0.529548 l -0.004,-0.742878 -0.23519,0.07465 c -0.29332,0.0931 -0.31072,-0.167915 -0.0588,-0.881945 0.25667,-0.727488 0.23099,-2.772855 -0.0483,-3.848111 -0.66064,-2.543345 -2.10692,-4.237556 -4.24382,-4.971333 -0.22637,-0.07773 -0.51741,-0.186684 -0.64676,-0.24212 -0.5308,-0.227484 -2.18695,-0.742978 -3.2338,-1.006554 -0.75479,-0.190041 -1.76552,-0.32254 -3.1162,-0.408507 -1.09949,-0.06998 -2.50179,-0.196282 -3.11621,-0.280671 -2.63975,-0.36256 -5.81116,-0.135265 -7.34953,0.526741 -0.12936,0.05566 -0.44686,0.164411 -0.70556,0.241662 -0.4637,0.138463 -2.76668,1.26171 -2.88102,1.405177 -0.0323,0.04058 -0.30415,0.240677 -0.60403,0.444668 -1.59466,1.084758 -2.95304,2.78013 -3.36491,4.199697 -0.23495,0.809775 -0.4058,1.692441 -0.35632,1.840875 0.0263,0.07896 0.20162,-0.05944 0.3931,-0.310345 0.40421,-0.529672 1.82715,-1.973997 2.41025,-2.446479 0.64935,-0.526159 2.68575,-1.469738 3.57978,-1.65872 0.45273,-0.0957 1.59044,-0.204556 2.52824,-0.241906 2.5395,-0.101141 3.51611,-0.190008 4.23334,-0.385212 0.35571,-0.09681 0.79292,-0.20264 0.97157,-0.235168 0.17865,-0.03253 0.35376,-0.105958 0.38912,-0.163178 0.0354,-0.05722 0.19034,-0.104034 0.3444,-0.104034 0.15405,0 0.3128,-0.05292 0.35278,-0.117593 0.04,-0.06468 0.21772,-0.117592 0.39499,-0.117592 0.17728,0 0.37259,-0.04772 0.43403,-0.106053 0.0614,-0.05833 0.53371,-0.124475 1.04948,-0.146991 0.81845,-0.03573 0.94298,-0.01476 0.97876,0.164849 0.0349,0.175071 -0.0512,0.205787 -0.57663,0.205787 -0.3397,0 -0.78015,0.04937 -0.97877,0.109722 -0.19862,0.06035 -0.81091,0.251482 -1.36066,0.424744 -2.19732,0.692527 -2.58553,0.754996 -5.40926,0.870444 -2.75894,0.112798 -3.77014,0.297521 -5.02759,0.918423 -0.74248,0.366622 -1.23169,0.640276 -1.32241,0.73974 -0.0323,0.03545 -0.244,0.192659 -0.47037,0.349344 -0.50341,0.348453 -1.73053,1.576154 -2.19016,2.191204 -0.18594,0.248819 -0.40419,0.522286 -0.48499,0.607705 -0.23109,0.244307 -0.7695,1.201741 -0.70952,1.261721 0.0298,0.02975 0.20816,-0.08209 0.39646,-0.248529 1.32858,-1.174302 2.76544,-2.022057 4.04654,-2.38748 1.26133,-0.35978 2.12988,-0.539461 3.54873,-0.734139 1.12618,-0.154522 1.53015,-0.123517 4.12419,0.316543 0.25365,0.04303 0.44097,0.02716 0.44097,-0.03736 0,-0.06169 0.28758,-0.409081 0.63907,-0.771978 1.12448,-1.160987 2.63988,-1.716915 5.53454,-2.030352 2.50536,-0.271283 2.44742,-0.257553 2.3561,-0.55835 -0.15718,-0.517706 -0.20552,-1.227329 -0.0885,-1.29963 0.0656,-0.04053 0.24366,0.06075 0.39574,0.225062 0.15208,0.164312 0.4088,0.369059 0.57049,0.454993 0.42518,0.225968 1.6675,0.40714 2.84094,0.414302 1.17069,0.0071 1.83618,0.234554 2.65864,0.9085 1.38051,1.131225 1.79116,1.888507 1.79116,3.303083 0,0.625648 -0.0428,0.95695 -0.11759,0.910712 -0.0647,-0.03997 -0.11759,-0.436847 -0.11759,-0.881944 0,-0.445098 -0.0529,-0.841973 -0.11759,-0.881945 -0.0647,-0.03997 -0.1176,-0.175386 -0.1176,-0.300921 0,-0.125535 -0.0529,-0.228245 -0.11759,-0.228245 -0.0647,0 -0.11759,-0.07096 -0.11759,-0.157683 0,-0.193148 -0.85686,-1.103928 -1.39096,-1.478481 -0.7783,-0.545814 -1.85352,-0.8281 -3.16449,-0.830801 -0.91474,-0.0019 -1.35271,-0.05898 -1.82269,-0.237606 -0.73381,-0.278908 -0.74353,-0.28021 -0.5749,-0.07702 0.18929,0.228074 0.87319,0.500273 1.98767,0.791111 2.24305,0.585351 3.1959,1.764624 3.19977,3.960156 9.4e-4,0.533576 -0.0455,0.970139 -0.10316,0.970139 -0.0577,0 -0.36676,0.235453 -0.68684,0.52323 -0.5284,0.475077 -0.99429,1.122979 -2.15961,3.003325 -1.02726,1.657565 -2.23658,2.729154 -4.0424,3.58201 -2.80885,1.326566 -4.3815,1.542171 -5.82364,0.7984 -0.56896,-0.293434 -0.70579,-0.32791 -0.70579,-0.177833 0,0.354704 0.58911,0.955984 1.2566,1.282556 l 0.67059,0.32809 1.24127,-0.0023 c 1.68775,-0.0031 2.55735,-0.287596 4.18108,-1.368042 0.77381,-0.514898 2.33949,-2.072459 3.35139,-3.334004 1.58789,-1.979647 2.94323,-3.190622 4.26785,-3.813267 0.51856,-0.243753 0.90622,-0.253431 0.90622,-0.02263 0,0.101458 -0.14839,0.185074 -0.96543,0.544024 -0.36983,0.162473 -1.09711,0.662295 -1.70494,1.171702 -0.22144,0.185588 -1.6431,1.787613 -2.26023,2.54699 -0.85292,1.049524 -2.72119,2.850993 -3.51756,3.391797 -2.45311,1.66588 -4.7116,1.853541 -6.72791,0.559036 -0.97355,-0.62503 -1.59965,-1.704611 -1.71499,-2.957117 -0.0646,-0.701356 0.0778,-1.006292 0.36034,-0.77179 0.10194,0.0846 0.18535,0.242822 0.18535,0.351592 0,0.313002 0.64271,1.243692 1.07537,1.557203 0.217,0.157242 0.5835,0.349389 0.81446,0.426992 0.50972,0.171268 2.12052,0.185509 2.65854,0.0235 0.21478,-0.06468 0.58896,-0.174007 0.83149,-0.242958 0.707,-0.200994 1.32666,-0.479896 2.30766,-1.038646 0.53948,-0.307274 1.36711,-0.957544 1.36711,-1.074139 0,-0.04517 -0.22489,-0.03263 -0.49977,0.02787 -1.5281,0.336298 -4.19487,0.385929 -5.20347,0.09684 -1.67818,-0.481007 -2.76342,-0.893674 -2.76342,-1.050803 0,-0.229875 -3.67708,1.161081 -3.99815,1.51241 -0.0323,0.03539 -0.17786,0.130483 -0.32338,0.211328 -0.14552,0.08084 -0.38365,0.213137 -0.52917,0.293982 -0.14552,0.08084 -0.29104,0.176941 -0.32338,0.213548 -0.0323,0.03661 -0.32338,0.245589 -0.64676,0.464405 -1.39965,0.947085 -4.00196,3.019686 -4.83295,3.849185 -0.66614,0.664951 -1.57584,1.873301 -1.57584,2.093176 0,0.09492 0.19617,0.18255 0.49976,0.223255 0.27488,0.03685 1.04955,0.14564 1.7215,0.241746 l 1.22173,0.17474 1.68315,-0.414946 c 1.20909,-0.298078 2.07386,-0.435376 3.0704,-0.487483 l 1.38725,-0.07254 0.70556,-0.491847 c 0.74376,-0.518484 1.70378,-1.001344 1.99085,-1.001344 0.0939,0 0.19982,-0.04707 0.23538,-0.1046 0.0356,-0.05753 0.23711,-0.133968 0.44791,-0.169862 0.2108,-0.03589 0.64785,-0.122849 0.97123,-0.193234 0.5701,-0.124086 1.33523,-0.232126 3.29259,-0.464932 3.78229,-0.449862 7.05066,-1.477418 9.11343,-2.865208 0.65689,-0.441944 2.22981,-1.97091 2.23237,-2.169988 0.001,-0.08084 0.0548,-0.146991 0.11948,-0.146991 0.15067,0 0.14814,0.03213 -0.0294,0.372598 -1.40641,2.697113 -5.46387,4.554778 -11.78866,5.39731 -4.06084,0.540949 -4.07206,0.543504 -5.60634,1.276899 -1.1237,0.537132 -1.12865,0.5484 -0.69698,1.585326 0.20069,0.482082 0.3649,1.026222 0.3649,1.209182 0,0.20531 0.09,0.3889 0.23518,0.47954 0.27328,0.17067 0.30653,0.66178 0.10322,1.52491 -0.26548,1.12712 -0.472,1.56004 -0.8993,1.88519 l -0.4223,0.32136 -2.01047,-0.0204 -2.01046,-0.0204 -0.95657,-0.42058 c -0.93242,-0.40996 -2.0356,-0.57715 -2.0356,-0.3085 0,0.0616 -0.18729,0.20095 -0.4162,0.30958 -0.62817,0.29808 -1.55058,1.18205 -1.69727,1.62653 -0.10794,0.32705 -0.0892,0.50172 0.10968,1.0251 0.41012,1.07904 0.29474,1.31279 -0.45835,0.92859 -1.24915,-0.63727 -1.83269,-1.5703 -1.82503,-2.91807 l 0.005,-0.87236 -1.0045,0.0756 c -0.55247,0.0416 -1.5072,0.12572 -2.12162,0.18695 -2.95941,0.29494 -3.84557,0.34974 -5.64445,0.34906 -1.06715,-3.9e-4 -2.52236,-0.0494 -3.23379,-0.10897 -0.71144,-0.0595 -2.08727,-0.17003 -3.05741,-0.24553 -3.57629,-0.27835 -5.36047,-0.60201 -6.18389,-1.12181 -0.25048,-0.15812 -0.50096,-0.2875 -0.55663,-0.2875 -0.19761,0 -1.07939,-0.96236 -1.07939,-1.17803 0,-0.12056 -0.0529,-0.2519 -0.11759,-0.29187 -0.15915,-0.0984 -0.14895,-0.91156 0.0165,-1.31739 0.35847,-0.879119 0.47094,-1.065481 0.88752,-1.470694 0.24666,-0.239927 0.69765,-0.562378 1.00219,-0.716558 l 0.55372,-0.280329 -1.20058,-0.144355 c -0.66032,-0.07939 -1.41224,-0.190968 -1.67095,-0.247941 -0.2587,-0.05697 -0.65558,-0.135094 -0.88194,-0.173602 -0.22637,-0.03851 -0.58405,-0.09981 -0.79484,-0.136225 -0.2108,-0.03642 -0.41236,-0.113279 -0.44791,-0.170809 -0.0356,-0.05753 -0.21715,-0.1046 -0.40355,-0.1046 -0.18639,0 -0.36783,-0.04682 -0.40319,-0.104034 -0.0622,-0.100559 -0.77273,-0.252193 -0.77273,-0.164896 0,0.02371 0.0978,0.239444 0.21727,0.479402 0.1195,0.239958 0.2864,0.780246 0.37089,1.20064 0.0845,0.420393 0.24714,0.976018 0.36144,1.234722 0.73086,1.654239 1.04452,3.396419 1.13267,6.291199 0.0516,1.69545 0.0285,2.06201 -0.18307,2.90497 -0.65071,2.59232 -1.98258,3.83085 -4.78022,4.4452 -0.45273,0.0994 -1.27294,0.28835 -1.82269,0.41986 -0.54974,0.1315 -1.2112,0.28614 -1.46991,0.34364 -0.2587,0.0575 -0.62912,0.13985 -0.82314,0.18301 -0.88875,0.19767 -3.20623,0.49398 -5.05649,0.64652 -3.82312,0.31519 -16.6837,0.61569 -20.82845,0.48667 -3.18006,-0.099 -4.74392,-0.0659 -4.91844,0.10397 -0.0614,0.0598 -0.20535,0.10876 -0.3198,0.10876 -0.24141,0 -0.92241,0.36202 -1.49812,0.7964 -0.53935,0.40695 -1.00605,0.87736 -1.77649,1.79063 -0.35464,0.4204 -0.67126,0.79081 -0.7036,0.82315 -0.0323,0.0323 -0.26953,0.32338 -0.5271,0.64676 -0.25756,0.32338 -0.93225,1.07748 -1.4993,1.67577 -0.56705,0.5983 -1.03101,1.16787 -1.03101,1.26572 0,0.27028 -0.25014,0.6581 -0.69914,1.08396 -0.5102,0.48391 -1.0567,0.5223 -1.39069,0.0977 z m -15.87084,-4.32894 c 0.14464,-0.0808 0.55432,-0.39072 0.91039,-0.68862 0.75473,-0.63142 1.59015,-1.17347 2.82158,-1.83075 0.48507,-0.2589 1.09361,-0.59324 1.35231,-0.74297 0.25871,-0.14974 0.68204,-0.38316 0.94074,-0.51872 0.25871,-0.13557 0.49683,-0.27294 0.52917,-0.30528 0.0323,-0.0323 0.29692,-0.18495 0.58796,-0.33915 0.29105,-0.1542 0.82021,-0.44011 1.17593,-0.63537 1.58392,-0.86942 3.60033,-1.8081 5.23287,-2.43599 0.32004,-0.1231 1.81102,-0.5144 2.46944,-0.64811 3.84849,-0.7815 5.45845,-0.94353 10.99491,-1.10653 2.23132,-0.0657 5.48569,-0.18719 7.23194,-0.26997 3.60641,-0.17098 15.19352,-0.197 18.25168,-0.041 1.59449,0.0813 2.06244,0.0713 2.2055,-0.0475 0.0999,-0.0829 0.36652,-0.54558 0.59254,-1.02821 l 0.41093,-0.87749 v -1.69462 -1.69461 l -2.67523,0.003 c -1.47138,0.002 -3.89232,0.0815 -5.37986,0.17693 -2.95324,0.18953 -3.96032,0.29338 -7.43773,0.76698 -2.31793,0.31569 -4.67859,0.46094 -10.37755,0.63855 -1.39053,0.0433 -2.63407,0.12025 -2.76343,0.17093 -0.12935,0.0507 -0.44684,0.15678 -0.70555,0.23578 -0.52598,0.16063 -0.69383,0.23225 -2.32468,0.99201 -2.0768,0.96751 -2.31106,1.01076 -5.41256,0.99925 l -2.7285,-0.0101 -0.43114,-0.23906 c -0.57952,-0.32135 -0.84279,-0.83479 -0.78709,-1.53503 l 0.044,-0.55327 h -0.84574 c -0.46515,0 -0.9947,-0.0567 -1.17677,-0.12593 -0.42534,-0.16181 -3.20978,-0.17868 -3.51158,-0.0213 -0.1263,0.0659 -0.36193,0.17371 -0.52362,0.23964 -0.16169,0.0659 -1.00836,0.46707 -1.88148,0.89142 -0.87313,0.42436 -2.0373,0.9545 -2.58704,1.17809 -1.63148,0.66356 -3.88711,1.7988 -4.11574,2.07141 -0.0323,0.0386 -0.24401,0.19732 -0.47037,0.3528 -0.61633,0.42334 -1.46226,1.39191 -1.46633,1.67891 -0.003,0.18839 -0.25358,0.40681 -0.98657,0.85881 -1.0236,0.63121 -1.18767,0.78889 -1.19067,1.14435 l -0.002,0.21312 0.58979,-0.321 c 0.32439,-0.17656 0.79996,-0.5009 1.05683,-0.72077 0.46569,-0.39861 0.70523,-0.42065 0.70523,-0.0649 0,0.22797 -0.76313,0.96861 -1.24077,1.20422 -0.54669,0.26967 -0.8759,0.61087 -0.8759,0.9078 0,0.34794 0.0426,0.34347 0.47548,-0.0499 0.49367,-0.44862 1.54911,-0.99167 1.6776,-0.86318 0.14775,0.14776 -0.0185,0.59859 -0.22072,0.59859 -0.0927,0 -0.16847,0.0529 -0.16847,0.11759 0,0.0647 -0.0661,0.11891 -0.14699,0.12051 -0.26748,0.005 -1.25307,0.81055 -1.44401,1.17978 -0.15312,0.2961 -0.16014,0.39607 -0.0382,0.54304 0.22028,0.26542 0.99314,0.1282 1.38332,-0.24561 0.37229,-0.35668 1.59,-1.10718 1.87193,-1.1537 0.1372,-0.0226 0.1966,0.0511 0.1966,0.2441 0,0.21387 -0.14657,0.3568 -0.64676,0.63073 -1.06367,0.58252 -1.13852,0.64629 -1.40515,1.19707 -0.29051,0.60012 -0.22485,0.8669 0.32849,1.33466 0.24456,0.20673 0.45934,0.26412 0.99006,0.26458 0.37276,3.2e-4 0.7961,-0.0656 0.94074,-0.14641 z m -4.72337,-3.92805 c 0.22014,-0.10696 0.41461,-0.20511 0.43217,-0.21811 0.0176,-0.013 -0.009,-0.13465 -0.0593,-0.27034 l -0.0913,-0.24672 -0.52862,0.46299 c -0.56251,0.49268 -0.45361,0.61266 0.24706,0.27218 z m 1.70972,-2.82677 c 0.40826,-0.23882 0.72379,-0.45273 0.70117,-0.47535 -0.0782,-0.0783 -1.30571,0.51952 -1.46648,0.71417 -0.24685,0.29888 -0.0476,0.23669 0.76531,-0.23882 z m 24.4433,-4.91181 c 0.55372,-0.13973 1.37264,-0.41603 1.82269,-0.61495 0.22636,-0.10006 0.67616,-0.3022 0.99954,-0.44922 0.77369,-0.35173 1.31909,-0.58306 1.82268,-0.77308 0.22637,-0.0854 0.46449,-0.22451 0.52917,-0.3091 0.0908,-0.11877 1.21598,-0.18046 4.93888,-0.27078 2.65172,-0.0643 5.35047,-0.16784 5.99722,-0.23003 1.11353,-0.10706 1.5509,-0.1591 3.93936,-0.46871 0.54974,-0.0713 1.39641,-0.18008 1.88148,-0.24182 1.90429,-0.24236 5.52059,-0.45195 9.05463,-0.52479 3.94328,-0.0813 7.88733,-0.32572 8.61346,-0.53387 0.24243,-0.0695 0.58639,-0.25194 0.76435,-0.40544 l 0.32358,-0.2791 -0.0125,-2.68464 c -0.007,-1.476552 -0.0735,-3.081516 -0.14818,-3.566586 -0.0746,-0.485069 -0.19408,-1.252361 -0.26541,-1.705092 -0.26553,-1.685427 -1.2796,-5.519735 -1.7416,-6.585185 -0.0561,-0.129352 -0.21309,-0.485963 -0.34889,-0.792469 -0.1358,-0.306506 -0.2469,-0.611495 -0.2469,-0.677753 0,-0.06626 -0.0467,-0.212356 -0.10388,-0.324661 -0.25072,-0.492872 -0.40292,-0.969092 -0.72296,-2.262062 -0.056,-0.226366 -0.13652,-0.702616 -0.17888,-1.058333 -0.0751,-0.630767 -0.1815,-1.33999 -0.34396,-2.293056 -0.0441,-0.258704 -0.12285,-0.576204 -0.175,-0.705556 -0.28066,-0.696189 -0.39082,-1.247744 -0.27277,-1.36579 0.13486,-0.134861 0.50393,0.473876 0.50393,0.831172 0,0.10648 0.0475,0.243871 0.10555,0.305313 0.0581,0.06144 0.13535,0.32338 0.17178,0.582083 0.0364,0.258704 0.11778,0.761412 0.18078,1.11713 0.063,0.355718 0.14686,0.911343 0.18636,1.234722 0.0712,0.583204 0.14425,0.920541 0.41991,1.940278 0.1785,0.660324 0.56433,1.863026 0.69789,2.175463 0.22822,0.533872 1.14895,3.095727 1.28901,3.586574 0.0831,0.291042 0.19211,0.661458 0.24236,0.823148 0.0503,0.16169 0.1539,0.611482 0.23032,0.999537 0.0764,0.388056 0.18518,0.890764 0.24169,1.11713 0.0565,0.226366 0.13708,0.623241 0.17906,0.881944 0.042,0.258704 0.11087,0.678644 0.15308,0.9332 l 0.0768,0.462829 0.52916,0.194051 c 0.29105,0.106728 0.60855,0.224479 0.70556,0.261669 0.097,0.03719 0.30868,0.102354 0.47037,0.144809 0.16169,0.04246 0.47919,0.130053 0.70556,0.194663 1.63917,0.467858 2.48938,0.60307 5.48105,0.87168 0.93332,0.0838 1.81178,0.0071 1.80757,-0.157812 -0.001,-0.04558 -0.25251,-0.248592 -0.55856,-0.451145 -0.94133,-0.623006 -2.75691,-2.207434 -3.43439,-2.997151 -0.35403,-0.412671 -0.67739,-0.776769 -0.71859,-0.809107 -0.19397,-0.152255 -1.67656,-2.204873 -1.87858,-2.600852 -0.16883,-0.330951 -0.22813,-0.688821 -0.22813,-1.376813 0,-1.286789 0.46895,-2.231446 1.67692,-3.377993 1.27592,-1.211035 1.41998,-1.307918 3.60021,-2.421183 1.3734,-0.701281 2.13368,-1.215075 3.36592,-2.274677 1.3388,-1.151227 3.27486,-2.554691 4.484,-3.250479 0.25019,-0.143969 0.87937,-0.50377 1.39819,-0.799559 0.51881,-0.295788 1.15381,-0.68693 1.41111,-0.869204 0.2573,-0.182274 0.67948,-0.463027 0.93818,-0.623895 l 0.47037,-0.292487 -0.58796,0.0654 c -0.32338,0.03597 -0.95838,0.118014 -1.41111,0.182322 -2.30973,0.328086 -4.92969,0.540789 -7.29074,0.591904 -1.35526,0.02934 -5.98037,-0.29003 -6.82037,-0.470957 -0.2587,-0.05572 -0.78787,-0.167046 -1.17593,-0.247388 -0.38805,-0.08034 -0.75582,-0.190473 -0.81727,-0.244736 -0.0614,-0.05426 -0.20768,-0.09866 -0.32497,-0.09866 -0.1173,0 -0.30515,-0.04629 -0.41745,-0.10287 -0.87434,-0.440485 -1.24876,-0.602686 -1.39123,-0.602686 -0.0909,0 -0.16528,-0.05292 -0.16528,-0.117592 0,-0.06468 -0.0709,-0.117593 -0.15766,-0.117593 -0.0867,0 -0.81935,-0.34256 -1.62809,-0.761244 l -1.47043,-0.761245 -0.12694,0.261476 c -0.0698,0.143812 -0.15739,0.406997 -0.1946,0.584856 -0.0372,0.177859 -0.0981,0.4689 -0.13531,0.646759 -0.0372,0.177859 -0.11055,0.429213 -0.16298,0.558565 -0.0524,0.129352 -0.16191,0.47331 -0.24329,0.764352 -0.19128,0.684141 -0.59099,1.991391 -0.70113,2.293055 -0.22325,0.611448 -0.62643,2.208039 -0.93025,3.68374 -0.0709,0.344483 -0.12895,1.214712 -0.12895,1.933843 v 1.307511 l 0.27949,0.300416 c 0.15371,0.165229 0.42981,0.565 0.61354,0.888379 l 0.33406,0.587963 -0.0107,1.352315 c -0.0162,2.055463 -0.48537,3.299315 -1.24047,3.288853 -0.57327,-0.0079 -0.6808,-0.229145 -0.69045,-1.420335 -0.009,-1.061234 -0.1803,-1.87531 -0.41073,-1.947345 -0.20638,-0.06452 -0.67276,1.113322 -0.57905,1.462372 0.0475,0.176851 0.0932,0.61259 0.10155,0.968307 0.0127,0.537737 0.0843,0.742677 0.42484,1.215773 0.35484,0.492916 0.40962,0.659874 0.40962,1.248409 0,0.775501 -0.17163,1.063596 -0.63362,1.063596 -0.25727,0 -0.34357,0.08053 -0.47254,0.440972 -0.1862,0.520376 -0.30156,0.613152 -0.76541,0.615561 -0.26718,0.0014 -0.48047,-0.139912 -0.92915,-0.615561 -0.5176,-0.5487 -0.57385,-0.581396 -0.50576,-0.293981 0.0421,0.177859 0.10788,0.4689 0.14612,0.646759 0.0382,0.177859 0.14328,0.488472 0.23344,0.690251 l 0.16392,0.366872 1.04843,0.08202 c 1.10478,0.08643 1.51249,0.255241 1.38964,0.575389 -0.0646,0.168456 -0.28741,0.182612 -1.92999,0.12264 -2.63785,-0.09631 -5.07484,0.142259 -7.97172,0.780394 -0.32338,0.07124 -0.76043,0.158887 -0.97123,0.194781 -0.21079,0.03589 -0.41235,0.112332 -0.44791,0.169862 -0.0356,0.05753 -0.19453,0.1046 -0.35328,0.1046 -0.15875,0 -0.38053,0.04776 -0.49283,0.106131 -0.11231,0.05837 -0.44232,0.169363 -0.73336,0.246646 -0.29104,0.07728 -0.62105,0.188274 -0.73336,0.246647 -0.1123,0.05837 -0.285,0.106131 -0.38377,0.106131 -0.0988,0 -0.27147,0.05169 -0.38377,0.114871 -0.66943,0.376596 -7.4779,2.489961 -9.43521,2.928711 -1.24192,0.27839 -1.95186,0.39713 -3.2338,0.54086 -0.38805,0.0435 -0.82075,0.13481 -0.96155,0.20289 -0.31729,0.15341 -1.96979,-0.0103 -2.56623,-0.25416 -0.12935,-0.0529 -0.47331,-0.16126 -0.76435,-0.24081 -0.29104,-0.0795 -0.66146,-0.18893 -0.82315,-0.24306 -0.54811,-0.18351 -1.58421,-0.23337 -2.41065,-0.11601 -0.45273,0.0643 -1.56398,0.21112 -2.46944,0.32629 -0.90546,0.11517 -1.71244,0.25221 -1.79329,0.30453 -0.30559,0.19779 -0.13313,0.33335 0.38363,0.30158 0.35918,-0.0221 0.58985,0.0266 0.71395,0.15071 l 0.18334,0.18333 -0.19319,0.19319 c -0.13834,0.13834 -0.40371,0.19319 -0.93474,0.19319 -0.4769,0 -0.78829,0.0563 -0.87252,0.15781 -0.21013,0.25318 -0.0367,0.3057 0.76281,0.23104 l 0.75047,-0.0701 v 0.25588 c 0,0.29058 -0.10111,0.34263 -1.02465,0.5275 -1.01685,0.20354 -0.94736,0.42655 0.13291,0.42655 h 0.89174 v 0.28552 0.28552 l -0.67616,0.0737 c -0.37188,0.0405 -0.78199,0.084 -0.91134,0.0966 -0.17557,0.0171 -0.24482,0.12384 -0.27322,0.42102 -0.0331,0.34691 -0.0105,0.38621 0.17639,0.30577 0.36752,-0.15819 1.36835,-0.24307 2.10023,-0.17812 0.60209,0.0534 0.70123,0.0955 0.70123,0.29742 v 0.23519 l -0.99954,0.0325 c -1.38411,0.045 -1.99907,0.37001 -1.99907,1.05638 0,0.25548 0.40648,0.67423 0.79342,0.81736 0.32482,0.12017 5.00969,0.10282 5.49778,-0.0204 z m 70.53346,-0.91752 c -0.0831,-0.80475 0.25732,-1.55597 1.00631,-2.22096 l 0.54449,-0.48343 -1.41111,0.0844 c -0.77611,0.0464 -1.42808,0.1012 -1.44882,0.12175 -0.0207,0.0206 -0.0418,0.42961 -0.0467,0.90901 -0.007,0.68948 0.0376,0.92951 0.2141,1.1486 0.30412,0.37751 1.02805,1.0585 1.12597,1.05919 0.0438,3.1e-4 0.0509,-0.27804 0.0158,-0.61855 z m -7.20985,-2.67329 c 0.9378,-0.0612 2.81634,-0.2177 4.17454,-0.34781 1.35819,-0.13012 3.34257,-0.2819 4.40972,-0.33729 l 1.94028,-0.10072 0.64676,0.28688 c 1.51681,0.67278 1.8199,0.73396 3.63438,0.73349 1.50769,-3.8e-4 1.76284,-0.029 2.10119,-0.23524 0.43575,-0.26568 0.5491,-0.49994 0.67018,-1.38508 0.0649,-0.47456 0.0382,-0.71983 -0.11323,-1.0389 -0.1201,-0.25309 -0.16867,-0.53534 -0.12326,-0.71626 0.0543,-0.21614 -0.011,-0.42254 -0.23615,-0.74748 -0.1711,-0.2469 -0.28017,-0.49893 -0.24238,-0.56007 0.0378,-0.0611 -0.0119,-0.178087 -0.11044,-0.259865 -0.37976,-0.315172 -4.24791,0.120182 -5.82951,0.656105 l -0.5432,0.18406 -1.0443,-0.17374 c -2.24823,-0.37403 -3.1,-0.45739 -3.26597,-0.31965 -0.1603,0.13304 -0.54176,0.0608 -0.54176,-0.10261 0,-0.0483 -0.56885,-0.150544 -1.26412,-0.227101 -2.8441,-0.313168 -4.27212,-0.461525 -6.96736,-0.723841 -1.9719,-0.191918 -4.56302,-0.483792 -6.17361,-0.695422 -2.4326,-0.319641 -4.88594,-0.0218 -6.4088,0.77805 -0.42039,0.220802 -0.88178,0.499415 -1.02531,0.619138 -0.32403,0.270296 -0.49677,0.989426 -0.50052,2.083776 l -0.003,0.8396 0.52789,0.24813 c 0.29034,0.13648 0.62107,0.24833 0.73495,0.24858 0.11389,2.4e-4 0.36582,0.0968 0.55985,0.21459 0.67158,0.40767 1.85178,0.60085 5.52685,0.90464 2.93875,0.24292 5.78415,0.37803 6.87917,0.32666 0.48507,-0.0228 1.64923,-0.0914 2.58704,-0.15262 z m 6.43352,-5.409454 c 0.0338,-0.129352 0.10825,-0.235185 0.16538,-0.235185 0.0571,0 0.10388,-0.0688 0.10388,-0.152881 0,-0.216127 1.09685,-1.551022 1.81027,-2.203144 0.87236,-0.797399 1.30455,-1.154479 2.42306,-2.001937 0.54975,-0.416524 1.06761,-0.821607 1.15081,-0.900186 0.0832,-0.07858 0.30809,-0.235508 0.49977,-0.348733 0.19167,-0.113225 0.3485,-0.247371 0.3485,-0.298102 0,-0.05073 0.0794,-0.09224 0.17638,-0.09224 0.097,0 0.17639,-0.04398 0.17639,-0.09772 0,-0.05375 0.14552,-0.171192 0.32338,-0.260988 0.17786,-0.0898 0.53505,-0.30088 0.79375,-0.469075 0.64162,-0.417144 2.30534,-1.205032 3.2338,-1.531434 0.42039,-0.147789 0.78479,-0.284356 0.80977,-0.303481 0.025,-0.01913 -0.0735,-0.311335 -0.21897,-0.649354 -0.60415,-1.404399 -0.79357,-2.844385 -0.55631,-4.229176 l 0.0933,-0.544471 -0.38727,-0.07883 c -1.47748,-0.300739 -3.65595,-0.33401 -4.85579,-0.07416 -0.2587,0.05603 -0.76141,0.164808 -1.11713,0.241733 -1.60671,0.347459 -3.35993,1.172654 -3.62868,1.707926 -0.19075,0.379927 -0.0303,1.405417 0.36391,2.3266 0.39805,0.930044 -0.0918,1.043169 -0.76076,0.1757 -0.1645,-0.213293 -0.43723,-0.546556 -0.60607,-0.740584 -0.16885,-0.194028 -0.30706,-0.473702 -0.30714,-0.621499 -1.9e-4,-0.349286 -0.2046,-0.241169 -1.01164,0.535087 -1.14904,1.105192 -1.30848,0.888652 -0.49577,-0.673312 0.31836,-0.611876 0.62292,-1.167501 0.67678,-1.234722 0.0539,-0.06722 0.12792,-0.466179 0.16455,-0.886573 0.11582,-1.329084 0.2227,-2.001963 0.32835,-2.067262 0.0563,-0.03481 0.1024,-0.160621 0.1024,-0.279588 0,-0.235517 0.51407,-1.264649 0.95686,-1.915566 0.41107,-0.604296 1.26453,-1.508301 1.86246,-1.972767 0.28944,-0.224839 0.59929,-0.476735 0.68854,-0.559769 0.0892,-0.08303 0.58025,-0.392062 1.09111,-0.686727 l 0.92885,-0.535756 -0.23454,-0.329376 c -0.73311,-1.029563 -2.44232,-2.129315 -3.99976,-2.573559 -0.95365,-0.272018 -1.3966,-0.361504 -2.17546,-0.439493 -1.0171,-0.101844 -1.09957,-0.101844 -2.11667,0 -2.19979,0.220269 -4.69423,1.250831 -6.89062,2.84682 -0.29734,0.216059 -0.8265,0.544826 -1.17592,0.730594 -0.99591,0.529467 -1.53523,0.845552 -2.06702,1.211437 -0.27068,0.186233 -0.54435,0.338605 -0.60815,0.338605 -0.0638,0 -0.13365,0.04068 -0.1552,0.0904 -0.0216,0.04972 -0.38813,0.337541 -0.8146,0.639606 -0.42647,0.302065 -1.30699,0.98899 -1.95672,1.526501 -1.87443,1.550696 -1.96409,1.619654 -2.10878,1.621911 -0.0755,0.0012 -0.15483,0.04949 -0.17639,0.107365 -0.0216,0.05787 -0.78003,0.48727 -1.68549,0.954215 -2.12421,1.095449 -2.40928,1.294736 -3.61358,2.526169 -1.11543,1.140548 -1.59329,2.391832 -1.23696,3.238967 0.53381,1.269099 3.53376,4.640388 5.26211,5.91348 0.4204,0.309658 0.86109,0.642454 0.97931,0.739547 0.11822,0.09709 0.34312,0.23493 0.49977,0.306304 0.15665,0.07137 0.28481,0.174193 0.28481,0.228488 0,0.05429 0.0775,0.09872 0.17226,0.09872 0.0947,0 0.22608,0.100579 0.29187,0.22351 l 0.11961,0.22351 2.03059,0.06679 c 2.13557,0.07024 2.32505,0.08894 6.67549,0.658695 0.54974,0.072 1.47579,0.1798 2.05787,0.239562 0.58208,0.05976 1.56104,0.162201 2.17546,0.227644 0.61442,0.06544 1.46109,0.147676 1.88148,0.182741 l 0.76436,0.06376 -0.52917,-0.176965 c -0.29104,-0.09733 -0.70828,-0.177769 -0.92718,-0.17875 -0.48319,-0.0022 -1.78074,-0.207447 -2.42421,-0.383523 -0.46428,-0.127042 -1.94376,-0.777665 -2.05787,-0.904978 -0.0545,-0.0608 -0.29419,-0.203466 -0.88195,-0.524931 -0.12935,-0.07075 -0.26164,-0.160397 -0.29398,-0.199222 -0.0323,-0.03882 -0.18775,-0.138587 -0.34537,-0.221693 -0.15761,-0.08311 -0.34282,-0.195876 -0.41157,-0.250598 -0.0688,-0.05472 -0.52188,-0.410052 -1.00695,-0.789621 -1.07659,-0.842444 -2.07106,-1.886806 -2.81823,-2.959627 -0.15765,-0.226366 -0.3182,-0.438032 -0.35677,-0.47037 -0.0386,-0.03234 -0.19615,-0.244005 -0.35018,-0.470371 -0.15403,-0.226365 -0.64096,-0.841393 -1.08207,-1.366727 -1.01859,-1.213099 -1.03545,-1.417125 -0.15525,-1.878362 0.25871,-0.135563 0.66881,-0.360459 0.91135,-0.499769 0.24253,-0.139309 0.61295,-0.352118 0.82315,-0.472909 0.21019,-0.12079 0.83196,-0.500386 1.38171,-0.843547 0.54974,-0.34316 1.71391,-0.962709 2.58704,-1.376776 0.87312,-0.414067 1.7956,-0.863499 2.04995,-0.998739 0.25436,-0.13524 0.78352,-0.408726 1.17593,-0.607748 0.39241,-0.199021 0.73993,-0.388638 0.77226,-0.421371 0.0323,-0.03273 0.27047,-0.173289 0.52917,-0.312347 0.2587,-0.139058 0.66881,-0.363953 0.91134,-0.499768 0.24254,-0.135816 0.63941,-0.358058 0.88195,-0.493873 0.24253,-0.135815 0.63509,-0.3548 0.87235,-0.486633 0.55003,-0.305624 0.98375,-0.177416 0.71335,0.210864 -0.0769,0.110376 -0.87696,0.587343 -2.49705,1.488597 -0.29104,0.161906 -0.74083,0.417545 -0.99953,0.568085 -0.25871,0.15054 -1.84621,0.965001 -3.52778,1.809913 l -3.05741,1.536203 0.037,0.537829 c 0.0404,0.586158 -0.17305,0.900265 -0.52095,0.766761 -0.14567,-0.0559 -0.17719,-0.171048 -0.12868,-0.47001 0.0563,-0.347127 0.0364,-0.388697 -0.16134,-0.336979 -0.12408,0.03245 -0.2256,0.09957 -0.2256,0.149158 0,0.04959 -0.0926,0.119531 -0.20579,0.155425 -0.20185,0.06401 -0.85432,0.434131 -0.97013,0.550318 -0.0323,0.03244 -0.21755,0.136368 -0.41158,0.230948 -0.70873,0.345476 -1.03253,0.616433 -0.86341,0.722503 0.53979,0.338545 2.33806,0.693762 3.48563,0.688527 2.51094,-0.01145 4.40408,-1.044046 5.43617,-2.965082 0.39099,-0.727748 0.58467,-0.853053 0.58467,-0.378267 0,0.957952 -1.49662,2.672037 -2.93935,3.36646 l -0.87423,0.42079 0.46628,0.239716 c 0.81263,0.417779 1.43301,1.231364 1.80653,2.36915 0.29422,0.896244 0.31631,1.30229 0.0709,1.30229 -0.097,0 -0.17639,-0.09878 -0.17639,-0.219504 0,-0.21724 -0.44089,-1.376305 -0.60982,-1.603181 -0.77124,-1.035778 -1.54194,-1.484128 -2.93421,-1.706957 -0.70776,-0.113275 -1.1129,-0.113276 -1.91088,-2e-6 -0.55698,0.07906 -1.01269,0.179427 -1.01269,0.223032 0,0.08452 0.34995,0.621189 0.46922,0.719575 0.0392,0.03234 0.19979,0.244004 0.35686,0.47037 1.16049,1.672478 4.08628,4.07843 5.87494,4.831113 0.16071,0.06763 0.45176,0.192068 0.64676,0.276526 0.19499,0.08446 0.59266,0.216917 0.88371,0.294354 0.29104,0.07744 0.69167,0.190127 0.89029,0.25042 0.19862,0.06029 0.49885,0.109624 0.66718,0.109624 0.29966,0 0.97052,0.117947 2.1463,0.377344 0.59707,0.131724 1.18449,0.414005 1.69156,0.812869 0.38365,0.301776 0.9576,0.293878 1.03819,-0.01429 z m -37.52321,-5.146476 c 0.34429,-0.226815 0.30376,-0.630576 -0.12869,-1.281889 -1.01478,-1.528376 -1.35327,-2.407657 -1.3505,-3.508209 0.001,-0.520558 0.0541,-0.86351 0.29639,-1.924755 0.13511,-0.591864 0.22851,-0.05337 0.22851,1.317497 0,1.56574 0.19486,2.28525 0.90267,3.333075 0.18263,0.270357 0.33205,0.52402 0.33205,0.563697 0,0.140877 0.5809,0.696098 0.65293,0.624067 0.13001,-0.130005 0.21024,-1.502933 0.0878,-1.502933 -0.17445,0 -0.38798,-0.549345 -0.38798,-0.99813 0,-0.219505 -0.0529,-0.431805 -0.1176,-0.471777 -0.0647,-0.03997 -0.11759,-0.198722 -0.11759,-0.352778 0,-0.154056 -0.0529,-0.312806 -0.11759,-0.352778 -0.22235,-0.137416 -0.11703,-0.664002 0.23518,-1.175926 0.19403,-0.282009 0.35278,-0.562877 0.35278,-0.624149 0,-0.06127 0.0794,-0.177281 0.17639,-0.257795 0.1013,-0.08407 0.17639,-0.340511 0.17639,-0.602362 0,-0.326913 0.0499,-0.455971 0.17639,-0.455971 0.10143,0 0.17639,0.106148 0.17639,0.249782 0,0.137381 0.19222,0.67552 0.42717,1.195866 l 0.42716,0.946082 -0.13318,0.576995 c -0.19291,0.835738 -0.17316,1.147365 0.0726,1.145215 0.34224,-0.003 0.45582,-0.143372 0.71849,-0.887973 0.49882,-1.414087 0.2337,-3.273721 -0.57402,-4.026223 l -0.2666,-0.248381 0.008,-1.856932 c 0.008,-1.93189 0.22118,-3.405121 0.74828,-5.174035 0.40164,-1.347856 0.65498,-2.245627 0.81437,-2.885906 0.0604,-0.242535 0.16269,-0.652639 0.22737,-0.911343 0.0647,-0.258703 0.17293,-0.695266 0.24056,-0.970138 0.0676,-0.274873 0.17636,-0.711436 0.24161,-0.970139 0.18928,-0.750388 0.41449,-1.861402 0.70318,-3.468982 0.25857,-1.439812 0.35305,-2.097673 0.4184,-2.913234 0.0572,-0.713915 0.11014,-0.877644 0.32012,-0.990096 0.32134,-0.172086 2.60853,-0.416511 6.36641,-0.68036 3.61999,-0.254168 4.83872,-0.430605 7.28467,-1.054608 2.45504,-0.626322 3.68383,-0.789815 4.6869,-0.623601 1.05858,0.175411 1.84556,0.536174 1.84556,0.846027 0,0.302612 -0.21309,0.303943 -1.05834,0.0066 -1.23982,-0.436126 -3.07741,-0.238909 -6.52639,0.700433 -1.1781,0.32086 -2.49146,0.496866 -5.29166,0.709148 -4.28372,0.324746 -5.98521,0.488202 -6.83456,0.65657 l -0.36697,0.07274 -0.0724,0.723839 c -0.0983,0.98244 -0.27264,2.317732 -0.43235,3.310876 -0.30043,1.868258 -0.32094,2.115156 -0.18715,2.253765 0.15187,0.157355 3.28575,1.754781 4.07454,2.076907 0.28946,0.118212 0.63213,0.259316 0.76148,0.313564 0.12935,0.05425 0.36748,0.133081 0.52917,0.175184 0.16169,0.0421 0.47919,0.130684 0.70555,0.196848 0.86578,0.253057 2.65241,0.457792 5.63343,0.64555 l 1.2237,0.07707 -0.068,-0.223612 c -0.4431,-1.457508 -0.46848,-1.590377 -0.35188,-1.842679 l 0.12127,-0.262416 0.0792,0.352778 c 0.0436,0.194028 0.12895,0.444664 0.18972,0.556969 0.0608,0.112306 0.11049,0.304464 0.11049,0.427019 0,0.122555 0.17197,0.392211 0.38217,0.599235 l 0.38218,0.376408 1.99907,-0.0607 c 2.26188,-0.06868 4.32816,-0.272363 6.76158,-0.666525 1.65638,-0.2683 2.27406,-0.339743 2.37862,-0.275119 0.0623,0.03849 0.24049,0.01083 0.39601,-0.06148 1.58417,-0.736496 3.59962,-1.146833 5.05945,-1.030077 1.39966,0.111943 2.59629,0.334275 3.24902,0.603662 0.17787,0.07341 0.20578,0.01399 0.20578,-0.438007 0,-0.726048 0.40129,-2.222583 0.79118,-2.950572 0.61121,-1.141209 2.65888,-2.880073 3.17757,-2.698363 0.35772,0.125313 0.11196,0.472325 -0.64135,0.905589 -1.35714,0.780559 -2.41121,2.092552 -2.72279,3.389037 -0.0738,0.307211 -0.19352,0.794859 -0.26597,1.083662 -0.1674,0.66725 -0.10363,0.820334 0.44801,1.075499 0.60837,0.281401 1.7777,1.059871 2.22838,1.483508 l 0.36919,0.347042 0.0802,-0.863027 c 0.0957,-1.029004 0.15679,-1.2746 0.31733,-1.2746 0.0663,0 0.44638,0.324054 0.84462,0.720121 0.95713,0.951904 1.13557,1.061423 1.5834,0.971856 0.3201,-0.06402 0.35272,-0.103521 0.24764,-0.29987 -0.0666,-0.124376 -0.10474,-0.422335 -0.0848,-0.662132 l 0.0362,-0.435994 0.39612,-0.03789 c 0.46022,-0.04402 1.02047,0.152059 1.39716,0.488991 0.24078,0.215356 0.36106,0.548434 0.19806,0.548434 -0.10801,0 -0.57519,-0.262779 -0.6393,-0.359589 -0.0879,-0.132719 -0.94047,-0.271035 -0.94047,-0.152574 0,0.05609 0.15825,0.172021 0.35166,0.257634 0.19341,0.08561 0.44295,0.310197 0.55452,0.499076 0.1294,0.219062 0.29952,0.343416 0.4698,0.343416 0.5199,0 1.39423,-0.289339 1.90431,-0.630182 0.72301,-0.48313 1.13613,-0.448071 1.65783,0.140689 l 0.41234,0.46535 0.72309,0.06782 c 0.55607,0.05216 0.7563,0.02779 0.86694,-0.105521 0.0999,-0.120424 0.37885,-0.173345 0.91358,-0.173345 1.0527,0 2.25407,-0.221321 2.62726,-0.484005 0.17027,-0.119846 0.42565,-0.464842 0.56752,-0.766658 0.21833,-0.464476 0.24735,-0.676967 0.18897,-1.383538 -0.10949,-1.325186 -0.10305,-1.617518 0.0507,-2.304688 0.37447,-1.6732 -0.25972,-5.459973 -1.24248,-7.418919 -0.45741,-0.911755 -1.58968,-1.696639 -2.9284,-2.029951 -0.55197,-0.13743 -3.48466,-0.158899 -4.00147,-0.02929 -1.19372,0.299364 -2.75771,1.237878 -3.64537,2.187492 -0.34935,0.373738 -1.3621,1.097602 -1.95212,1.39529 -0.88971,0.448886 -1.97879,1.507896 -1.8181,1.767901 0.0473,0.07655 0.46255,0.129332 1.01743,0.129332 0.74272,0 0.95218,0.03829 1.00821,0.184293 0.13281,0.346094 -0.16341,0.448287 -1.25042,0.431376 -1.58519,-0.02466 -3.11883,-0.540401 -5.04271,-1.69578 -0.41083,-0.246726 -0.77172,-0.448593 -0.80196,-0.448593 -0.13234,0 -1.09671,-0.728871 -1.50662,-1.138702 -0.65247,-0.652354 -0.94514,-1.160594 -1.2403,-2.153891 -0.44152,-1.485806 -0.95347,-2.977472 -1.1704,-3.410185 -0.51439,-1.026023 -0.65042,-1.227021 -1.21937,-1.801679 -0.76315,-0.770798 -1.62052,-1.199608 -2.95697,-1.47892 -0.32338,-0.06758 -0.84996,-0.180748 -1.17018,-0.251474 -0.32021,-0.07073 -1.98709,-0.153506 -3.70416,-0.183957 -3.58982,-0.06366 -5.83224,0.08511 -8.23723,0.546498 -0.35572,0.06824 -0.85843,0.153266 -1.11713,0.188942 -0.25871,0.03567 -0.52065,0.112361 -0.58209,0.170412 -0.0614,0.05805 -0.21643,0.105549 -0.34443,0.105549 -0.12799,0 -0.39522,0.04933 -0.59384,0.109624 -0.19862,0.06029 -0.59925,0.17328 -0.89029,0.251081 -0.8073,0.215806 -1.32813,0.368416 -1.5875,0.465159 -0.12935,0.04825 -0.97602,0.32731 -1.88148,0.620142 -0.90547,0.292831 -2.2813,0.780866 -3.05741,1.084522 -1.34114,0.524726 -2.60876,0.959304 -3.64537,1.24974 -0.97848,0.27415 -1.90214,0.599969 -2.48724,0.877369 l -0.60576,0.287194 -0.0613,0.496797 c -0.0337,0.273239 -0.11631,0.893673 -0.18356,1.378742 -0.76262,5.500824 -0.8364,6.279938 -0.94648,9.995371 -0.20107,6.786108 -0.20684,9.823851 -0.0186,9.783376 0.41,-0.08815 0.32024,0.587523 -0.13994,1.0534 -0.22261,0.225368 -1.06611,1.514079 -1.21953,1.863224 -0.33054,0.752235 -0.39365,0.986446 -0.39365,1.461042 0,0.309196 0.0693,0.56674 0.17639,0.655624 0.14828,0.123059 0.17699,0.101926 0.18013,-0.132592 0.005,-0.345532 0.28972,-0.741095 0.45881,-0.636595 0.16401,0.101366 0.16063,0.45175 -0.006,0.618348 -0.19037,0.190365 -0.19028,1.348859 1.2e-4,1.749082 0.17241,0.362382 0.24229,0.535102 0.51564,1.27453 l 0.17084,0.462124 0.0608,-1.520458 c 0.0334,-0.836251 0.0994,-1.613061 0.14655,-1.726244 0.20496,-0.491963 0.29575,-0.108814 0.29575,1.24807 0,0.799622 0.0524,1.730299 0.11651,2.068173 0.1694,0.893237 0.77674,2.081111 1.36462,2.668992 0.52914,0.529136 0.60424,0.567508 0.82548,0.421761 z m 54.29491,-18.673957 c -0.0389,-0.101377 -0.005,-0.307293 0.0755,-0.457591 0.20928,-0.391047 -0.0112,-3.274021 -0.29855,-3.903174 -0.0931,-0.203802 -0.16922,-0.424409 -0.16922,-0.490239 0,-0.06583 -0.0778,-0.269498 -0.17297,-0.452598 -0.0951,-0.1831 -0.31747,-0.67134 -0.49411,-1.084976 -0.27598,-0.646295 -0.38809,-0.781483 -0.79717,-0.961219 -0.91953,-0.404011 -3.42882,-0.55767 -4.56091,-0.279293 -0.25233,0.06205 -0.33779,0.03177 -0.39535,-0.140057 -0.0404,-0.120569 -0.18657,-0.469636 -0.32484,-0.775704 -0.21174,-0.468662 -0.30303,-0.556815 -0.57848,-0.558565 -0.18379,-0.0012 -0.35673,0.07519 -0.39476,0.174312 -0.0372,0.09701 -0.1736,0.176389 -0.30304,0.176389 -0.19196,0 -0.22183,-0.05389 -0.16199,-0.292288 l 0.0734,-0.292287 -0.2664,0.121597 c -0.14652,0.06688 -0.38595,0.304241 -0.53206,0.527472 -0.33581,0.51304 -0.55365,0.533699 -0.45555,0.0432 0.10789,-0.539456 0.46665,-0.972778 1.03645,-1.251845 0.46894,-0.229667 0.70781,-0.301799 1.50745,-0.455206 0.39777,-0.07631 1.03166,0.335012 1.13192,0.734501 0.0721,0.28743 0.0377,0.444401 -0.2481,1.129437 l -0.0858,0.205787 h 1.02796 c 1.61752,0 3.97637,0.447689 4.39018,0.833217 0.1332,0.124094 0.30557,0.437177 0.38303,0.695741 0.0775,0.258564 0.20233,0.470116 0.27746,0.470116 0.22698,0 1.09308,-0.804349 1.28902,-1.197118 0.20619,-0.413324 0.24485,-1.506315 0.0658,-1.861885 -0.0647,-0.128474 -0.17051,-0.338705 -0.23519,-0.467179 -0.1665,-0.330743 -0.14578,-0.707151 0.0389,-0.707151 0.15175,0 0.25804,0.170663 0.5344,0.858079 0.0727,0.180902 0.13223,0.748147 0.13223,1.260544 0,0.725746 -0.0544,1.029873 -0.24629,1.37618 -0.33253,0.600202 -0.76496,1.04217 -1.24042,1.267789 -0.21712,0.103032 -0.39477,0.243789 -0.39477,0.312794 0,0.188139 0.49928,1.039429 0.60962,1.039429 0.0528,0 0.0976,0.357187 0.0997,0.79375 0.006,1.202985 0.30135,1.419161 1.40737,1.028935 0.69379,-0.244784 0.84686,-0.228071 0.80193,0.08756 -0.0481,0.337866 -0.70057,0.663625 -1.34426,0.671144 l -0.48352,0.0056 -0.0791,0.772533 c -0.10276,1.003003 -0.42585,1.546629 -0.61941,1.042219 z m -6.54584,-9.389682 c -0.0393,-0.1024 -0.1846,-0.186182 -0.3229,-0.186182 -0.18098,0 -0.23145,0.05213 -0.18008,0.186007 0.0393,0.102304 0.0714,0.299271 0.0714,0.437706 v 0.251699 l 0.25153,-0.251524 c 0.14737,-0.147375 0.22194,-0.328617 0.18007,-0.437706 z m 0.72353,8.192291 c -0.52356,-0.564395 -0.69424,-1.393685 -0.43807,-2.128517 0.1931,-0.553944 0.34095,-0.447728 0.34385,0.247035 0.003,0.676914 0.29292,1.432101 0.6836,1.779605 0.13696,0.121827 0.22068,0.267348 0.18605,0.32338 -0.12305,0.199107 -0.47978,0.09721 -0.77543,-0.221503 z m 1.43013,-0.520988 c -0.003,-1.046409 -0.30685,-1.65141 -1.21457,-2.418049 -0.42223,-0.3566 -0.3986,-0.577972 0.0292,-0.273369 0.18784,0.133756 0.38913,0.243193 0.4473,0.243193 0.15381,0 0.78862,0.715014 0.93962,1.058333 0.31959,0.726661 0.40169,1.058856 0.36681,1.484178 -0.0303,0.369605 -0.0876,0.463226 -0.30198,0.493677 l -0.26458,0.03758 z m -29.08793,-0.478549 c -0.36326,-0.574342 0.11087,-1.412884 0.57914,-1.024252 0.22671,0.18815 0.21801,0.871995 -0.014,1.104047 -0.24955,0.249557 -0.3673,0.232931 -0.5651,-0.0798 z m -3.12138,-0.15679 c 0.006,-0.136989 0.0335,-0.164853 0.0711,-0.07105 0.034,0.08489 0.0298,0.186311 -0.009,0.225386 -0.0391,0.03907 -0.0669,-0.03038 -0.0618,-0.15434 z m -0.009,-0.930942 c 0,-0.03234 0.0265,-0.0588 0.0588,-0.0588 0.0323,0 0.0588,0.02646 0.0588,0.0588 0,0.03234 -0.0265,0.0588 -0.0588,0.0588 -0.0323,0 -0.0588,-0.02646 -0.0588,-0.0588 z m 0.009,-1.068132 c 0.006,-0.136989 0.0335,-0.164853 0.0711,-0.07105 0.034,0.08489 0.0298,0.186311 -0.009,0.225386 -0.0391,0.03907 -0.0669,-0.03038 -0.0618,-0.15434 z m 0.1867,-0.362578 c -0.11273,-0.112729 -0.0965,-0.769684 0.0289,-1.168177 0.059,-0.18751 0.17644,-0.674819 0.261,-1.082908 0.14288,-0.689502 0.36921,-1.088005 0.52784,-0.929377 0.0618,0.0618 -3.7e-4,0.385259 -0.32122,1.671357 -0.0645,0.258704 -0.15906,0.695774 -0.21004,0.971267 -0.10001,0.54045 -0.16388,0.660382 -0.28643,0.537838 z m 32.81585,-6.374963 c -0.31598,-0.534909 -0.92118,-0.758938 -1.86734,-0.69124 -0.84009,0.06011 -1.11314,-0.05596 -0.97549,-0.414663 0.10071,-0.262459 1.33998,-0.384564 2.00716,-0.197766 0.60071,0.168191 1.33772,0.922648 1.33772,1.369398 0,0.376185 -0.2612,0.341988 -0.50205,-0.06573 z m 6.85205,27.049348 c 1.94924,-0.439901 1.90164,-0.413913 2.4857,-1.357212 1.23974,-2.002279 1.87063,-2.868975 2.52117,-3.463491 l 0.72726,-0.664638 -0.0874,-0.705694 c -0.22305,-1.801635 -1.03656,-2.583834 -3.24847,-3.123452 -0.57528,-0.140347 -1.11185,-0.30819 -1.19237,-0.372984 -0.15984,-0.128629 -3.2312,0.06683 -4.38092,0.278796 -1.68086,0.309894 -3.35746,1.080015 -4.18457,1.922121 l -0.59799,0.60884 -0.15114,0.931371 c -0.18613,1.147078 -0.20619,3.251211 -0.0344,3.607583 0.0699,0.144982 0.19735,0.435583 0.28324,0.64578 0.0859,0.210197 0.19616,0.382176 0.24504,0.382176 0.0489,0 0.0889,0.110243 0.0889,0.244985 0,0.143017 0.0608,0.2247 0.1462,0.196251 0.0804,-0.0268 0.46406,0.08187 0.85255,0.241498 0.74606,0.306548 1.09427,0.410798 2.23505,0.669142 0.79664,0.180409 3.42205,0.155286 4.29213,-0.04107 z m -1.8e-4,-0.999387 c -0.6231,-0.494103 -0.64135,-2.24699 -0.0258,-2.483179 0.27969,-0.107328 0.30694,0.01523 0.10023,0.450838 -0.10548,0.222284 -0.19179,0.599825 -0.19179,0.838979 0,0.239155 0.0863,0.616696 0.19179,0.83898 0.21363,0.45019 0.18977,0.563846 -0.0744,0.354382 z m 0.58815,0.118224 c 0,-0.0224 0.0863,-0.21368 0.19173,-0.425063 0.14532,-0.291309 0.17233,-0.544727 0.11158,-1.047002 -0.1336,-1.104605 -0.13236,-1.224936 0.0132,-1.275628 0.25952,-0.0904 0.50667,0.625954 0.50667,1.468566 0,0.693061 -0.0389,0.844994 -0.27217,1.064173 -0.23388,0.219719 -0.55098,0.34343 -0.55098,0.214954 z m -6.27558,-2.426194 c -0.17029,-0.257317 -0.31148,-0.535129 -0.31378,-0.617361 -0.002,-0.08223 -0.0778,-0.01722 -0.16788,0.144469 -0.20317,0.364818 -0.25457,0.237012 -0.34277,-0.852345 l -0.0643,-0.79355 0.28954,0.189713 0.28954,0.189713 v -0.318752 c 0,-0.392532 0.41612,-1.00183 0.68416,-1.001774 0.12102,2.5e-5 0.33617,0.26246 0.55433,0.676157 0.29108,0.551957 0.41829,0.683243 0.69274,0.714925 l 0.33619,0.03881 -0.069,-0.3451 c -0.0771,-0.385444 0.17419,-0.849647 0.45994,-0.849647 0.29847,0 0.86943,0.349491 0.86943,0.532186 0,0.195388 -0.30015,0.236065 -0.41157,0.05578 -0.0862,-0.139518 -0.52917,-0.159205 -0.52917,-0.02352 0,0.05174 0.0648,0.158895 0.14405,0.23812 0.11366,0.113667 0.11366,0.192692 0,0.374701 -0.1818,0.291099 -0.1846,0.553508 -0.007,0.612859 0.0761,0.02538 0.13021,0.239661 0.12117,0.480169 -0.0181,0.481141 0.0788,0.526818 0.51349,0.242018 0.16143,-0.105774 0.32485,-0.160973 0.36316,-0.122664 0.12365,0.123646 -0.0405,0.37331 -0.35673,0.542546 -0.41376,0.221439 -0.86406,-0.01116 -0.99341,-0.513128 -0.16049,-0.62286 -0.51841,-0.539546 -0.94736,0.220522 -0.44758,0.793055 -0.68669,0.832753 -1.11525,0.185156 z m 0.28668,-0.852339 c -0.0707,-0.20284 -0.0964,-0.54004 -0.0572,-0.749334 0.0393,-0.209293 0.0183,-0.475381 -0.0466,-0.591305 -0.0964,-0.172281 -0.1333,-0.108437 -0.20199,0.349598 -0.0981,0.654398 -0.0129,1.314629 0.20352,1.575682 l 0.15268,0.184209 0.039,-0.200025 c 0.0215,-0.110014 -0.0188,-0.365985 -0.0895,-0.568825 z m 0.59862,-0.278967 c -0.0592,-1.031557 -0.25417,-1.078245 -0.25417,-0.06086 0,0.633899 0.0382,0.843251 0.14699,0.805613 0.10161,-0.03515 0.1347,-0.265072 0.10718,-0.744753 z m 1.03935,0.02424 c 0,-0.183821 -0.31679,-0.342686 -0.48098,-0.241208 -0.22473,0.138891 -0.10186,0.405016 0.187,0.405016 0.17289,0 0.29398,-0.06747 0.29398,-0.163808 z m 3.34345,-1.683612 c -0.48416,-0.484167 -0.64521,-1.379601 -0.38001,-2.112981 0.21776,-0.602221 0.3289,-0.467132 0.33174,0.403225 0.002,0.535028 0.0784,0.960835 0.23518,1.30636 0.12793,0.281936 0.2326,0.53329 0.2326,0.558565 0,0.114959 -0.23707,0.02727 -0.41951,-0.155169 z m 1.08545,0.0149 c -0.0373,-0.123944 -0.0618,-0.569311 -0.0543,-0.989704 0.01,-0.549366 -0.0534,-0.901909 -0.22439,-1.253417 -0.26572,-0.546163 -0.1956,-0.883479 0.11281,-0.542649 0.61543,0.680138 0.86568,2.189151 0.45224,2.726974 l -0.21844,0.284149 z m -35.59094,5.3015 c 0,-0.09701 -0.0815,-0.176389 -0.18102,-0.176389 -0.14957,0 -0.15468,0.02988 -0.0294,0.171916 0.19275,0.218547 0.21042,0.218922 0.21042,0.0045 z m 15.875,-2.939815 c 0,-0.420394 -0.0397,-0.764089 -0.0882,-0.763768 -0.0485,3.21e-4 -0.23347,0.119384 -0.41104,0.264583 l -0.32284,0.264 0.38164,0.495369 c 0.2099,0.272452 0.39487,0.497348 0.41104,0.499768 0.0162,0.0024 0.0294,-0.339559 0.0294,-0.759952 z m -43.02747,-1.640417 c 0.0584,-0.06144 0.10618,-0.201589 0.10618,-0.311439 0,-0.236496 0.5477,-1.303087 1.03369,-2.012992 l 0.3448,-0.503671 0.0915,-5.644444 c 0.0503,-3.104445 0.0974,-6.305087 0.1045,-7.112538 l 0.013,-1.468093 -0.35277,-0.173769 c -0.90655,-0.446538 -3.35586,-0.175413 -5.17408,0.57274 -0.47,0.193393 -1.41256,0.654196 -1.46991,0.718609 -0.0323,0.03633 -0.244,0.19456 -0.47037,0.351629 -0.70009,0.485781 -1.18249,0.967721 -1.71871,1.717095 -0.56303,0.786844 -0.62253,1.056555 -0.30976,1.404133 0.11318,0.125779 0.50777,0.598778 0.87687,1.051108 0.36909,0.452331 0.83576,1.007627 1.03703,1.233993 0.80707,0.907678 1.42515,1.986078 3.23507,5.644445 1.03992,2.101967 2.02,4.096126 2.17796,4.431464 0.17933,0.380709 0.30252,0.53529 0.328,0.411574 0.0224,-0.108972 0.0886,-0.248402 0.147,-0.309844 z m 48.43673,-9.174888 c 0,-0.436445 -0.59971,-1.64343 -0.72129,-1.451686 -0.16179,0.255146 -0.11585,0.6663 0.13627,1.219738 0.26151,0.574048 0.58502,0.702314 0.58502,0.231948 z m 0.70556,-0.327705 c 0,-0.146132 -0.0999,-0.328069 -0.22195,-0.404303 l -0.22195,-0.138608 0.12409,0.404303 c 0.14082,0.45884 0.31981,0.536414 0.31981,0.138608 z m 1.16612,-0.160488 c 0.0269,-0.0243 0.0177,-0.07548 -0.0205,-0.113721 -0.10133,-0.101339 -0.55762,0.06475 -0.55762,0.202975 0,0.103253 0.44003,0.03532 0.57816,-0.08925 z m 0.67616,-0.240175 c -0.0431,-0.04312 -0.0784,-0.0078 -0.0784,0.0784 0,0.08623 0.0353,0.121512 0.0784,0.0784 0.0431,-0.04312 0.0431,-0.113673 0,-0.15679 z m 3.91976,-0.320598 c 0,-0.234329 -0.35089,-0.336927 -0.55968,-0.163647 -0.15331,0.127235 -0.13947,0.157518 0.1031,0.225492 0.42509,0.119126 0.45658,0.11486 0.45658,-0.06184 z m 16.34537,15.450845 c 0,-0.08623 0.0353,-0.121512 0.0784,-0.07839 0.0431,0.04312 0.0431,0.113673 0,0.15679 -0.0431,0.04312 -0.0784,0.0078 -0.0784,-0.0784 z m 0.24446,-0.656559 c 0.006,-0.136988 0.0335,-0.164853 0.071,-0.07105 0.034,0.08489 0.0298,0.18631 -0.009,0.225386 -0.0391,0.03908 -0.0669,-0.03038 -0.0618,-0.154341 z m -99.95552,-9.109506 0.007,-0.405695 0.11372,0.284518 c 0.0753,0.188399 0.0728,0.325454 -0.007,0.405694 -0.0832,0.08317 -0.11884,-0.0061 -0.11372,-0.284517 z"
       id="path5" /></g></svg>
