<?xml version="1.0" encoding="UTF-8" standalone="no"?>
<!-- Created with Inkscape (http://www.inkscape.org/) -->

<svg
   width="87.542236mm"
   height="98.158142mm"
   viewBox="0 0 87.542246 98.158142"
   version="1.1"
   id="svg1"
   xml:space="preserve"
   xmlns="http://www.w3.org/2000/svg"
   xmlns:svg="http://www.w3.org/2000/svg"><defs
     id="defs1" /><g
     id="layer1"
     transform="translate(376.43974,-1645.0442)"><path
       style="fill:#4d4d4d"
       d="m -363.8757,1742.0778 c -1.8762,-1.3991 -3.36613,-3.5311 -4.15662,-5.9479 -1.1848,-3.6223 -0.0579,-8.0476 3.29055,-12.9219 1.62573,-2.3666 6.94098,-7.7421 9.03003,-9.1324 1.42246,-0.9467 1.23205,-1.3944 -0.52591,-1.2366 -1.86913,0.1677 -2.34111,-0.019 -2.52844,-0.9986 -0.15944,-0.8341 0.1523,-1.2871 2.30961,-3.3564 l 2.49393,-2.3921 -1.06332,-1.318 c -1.48069,-1.8353 -2.90389,-1.9637 -4.07514,-0.3677 -1.0573,1.4407 -1.67969,3.5547 -1.67969,5.7052 0,1.5983 -0.42729,2.1632 -0.83418,1.1029 -0.31918,-0.8318 0.33831,-5.2236 0.96281,-6.4313 0.79003,-1.5277 2.23591,-2.5618 3.58207,-2.5618 1.1556,0 2.31475,1.0093 4.23559,3.6879 0.86549,1.2069 1.80529,1.0402 3.37081,-0.5979 1.06647,-1.116 1.28607,-1.8318 0.67735,-2.208 -0.51662,-0.3193 -0.43034,-0.882 0.13524,-0.882 0.26841,0 0.57105,0.3175 0.67253,0.7056 0.10148,0.388 0.35812,0.7055 0.57031,0.7055 0.61834,0 0.45068,-0.5743 -0.49614,-1.6995 -0.90199,-1.072 -1.13386,-1.8283 -0.56052,-1.8283 0.35867,0 2.14802,2.0243 2.14802,2.43 0,0.1426 0.32369,0.6067 0.7193,1.0313 1.1254,1.208 3.50094,1.0718 5.05152,-0.2897 0.75078,-0.6592 1.4242,-0.9792 1.77617,-0.8442 0.78592,0.3016 0.70885,-0.1311 -0.25149,-1.4121 -0.45012,-0.6004 -1.32691,-2.1235 -1.94844,-3.3847 -0.62152,-1.2612 -1.35982,-2.6899 -1.64066,-3.175 -0.5506,-0.951 -0.13734,-1.4032 0.67003,-0.7332 0.25968,0.2155 1.21377,1.8762 2.1202,3.6905 2.10278,4.2088 2.81289,4.9175 4.45512,4.4466 2.00163,-0.5741 4.9122,-0.4026 8.27464,0.4874 1.74625,0.4623 4.36563,1.1211 5.82083,1.4641 2.49048,0.587 6.55132,2.4377 7.78889,3.5497 0.70464,0.6332 2.48248,0.6233 6.49861,-0.036 1.74625,-0.2867 5.14023,-0.7684 7.54218,-1.0704 6.30598,-0.7929 8.36563,-1.9425 9.22971,-5.1514 0.38363,-1.4247 0.0793,-4.0288 -0.71326,-6.1039 -0.71332,-1.8676 -2.91708,-5.2563 -4.90202,-7.5379 -2.46593,-2.8344 -8.24449,-7.8222 -9.06243,-7.8222 -0.85695,0 -3.27084,1.0971 -3.43476,1.561 -0.0737,0.2086 0.80668,2.0462 1.95641,4.0835 3.41998,6.0601 4.49945,8.2205 4.49945,9.0052 0,0.734 -0.0808,0.7413 -6.91787,0.6198 -7.0872,-0.1259 -7.5213,-0.2018 -10.19185,-1.781 -1.5349,-0.9076 -3.40499,-1.494 -4.76484,-1.494 -0.8707,0 -1.63288,0.376 -2.86047,1.4111 -0.92042,0.7761 -1.76407,1.4111 -1.87479,1.4111 -0.46771,0 -0.14693,-0.9982 0.5126,-1.595 0.88397,-0.8 0.41695,-1.3834 -0.74842,-0.9349 -0.46608,0.1794 -1.63264,0.5122 -2.59237,0.7396 -1.54878,0.367 -1.84433,0.3393 -2.62886,-0.2464 -0.48615,-0.363 -1.52654,-1.9229 -2.31199,-3.4665 -0.78544,-1.5436 -1.71681,-3.2275 -2.0697,-3.742 -0.7158,-1.0437 -3.21713,-2.0437 -5.11199,-2.0437 -1.15872,0 -6.69419,1.678 -8.50004,2.5766 -0.46644,0.2321 -2.13332,0.4137 -3.70416,0.4036 -2.23098,-0.014 -3.18115,-0.1881 -4.34133,-0.7937 -1.71323,-0.8944 -3.06804,-0.9744 -4.94581,-0.2921 -0.73153,0.2658 -2.20934,0.7396 -3.28403,1.0529 -2.09732,0.6114 -3.96708,2.2183 -4.32995,3.7213 -0.20985,0.8693 0.44794,2.5143 1.47578,3.6907 0.31615,0.3619 2.0698,1.3621 3.89701,2.2227 4.21826,1.9867 5.38176,1.9768 6.81563,-0.058 0.85575,-1.2146 0.97078,-1.6567 0.82598,-3.175 -0.0925,-0.9701 -0.27418,-2.2004 -0.40367,-2.734 -0.13251,-0.546 -0.088,-0.9701 0.10184,-0.9701 0.63532,0 1.15608,1.7972 1.15476,3.9853 -0.002,3.567 -1.85879,5.8069 -4.49191,5.4191 -0.73018,-0.1075 -1.72448,-0.2434 -2.20955,-0.302 l -0.88194,-0.1066 v 6.4245 c 0,5.2397 -0.0976,6.5225 -0.52917,6.9553 -0.47041,0.4718 -0.51587,-0.2727 -0.40939,-6.7052 0.0659,-3.9797 0.0246,-7.484 -0.0918,-7.7872 -0.18915,-0.4929 -0.30975,-0.487 -1.13845,0.056 -1.25341,0.8212 -3.23148,0.5219 -5.01911,-0.7595 -1.88014,-1.3477 -2.43773,-2.3944 -2.85938,-5.3674 -0.8165,-5.757 1.89707,-10.2548 6.85652,-11.3647 3.75709,-0.8408 8.40289,1.2482 11.00075,4.9464 l 1.00946,1.4371 1.94028,-0.2248 c 1.06715,-0.1236 3.38022,-0.7428 5.14014,-1.376 4.58976,-1.6513 6.73994,-2.0408 8.76306,-1.5874 0.9157,0.2052 1.80137,0.2888 1.96813,0.1857 0.35605,-0.22 -0.96477,-5.312 -2.27245,-8.7606 -1.87824,-4.9533 -3.01347,-8.6139 -3.552,-11.4534 -0.50482,-2.6619 -0.50473,-3.1214 9.8e-4,-5.0954 0.53586,-2.0916 1.79237,-4.2037 3.04406,-5.1167 0.50779,-0.3704 0.57086,-0.8649 0.40989,-3.2134 -0.22996,-3.3551 0.43354,-4.3835 0.77699,-1.2043 0.12081,1.1183 0.37063,2.3089 0.55515,2.6458 0.18452,0.3369 0.3355,0.9128 0.3355,1.2798 0,0.367 0.23417,1.2277 0.52039,1.9128 0.99248,2.3753 3.78923,2.2921 6.26778,-0.1864 2.21647,-2.2165 2.88329,-1.5653 0.78052,0.7622 -2.81017,3.1105 -7.38824,2.9069 -8.1059,-0.3606 -0.12342,-0.562 -0.33941,-1.0218 -0.47996,-1.0218 -0.50716,0 -2.41009,2.3201 -2.88061,3.512 -0.83276,2.1097 -0.47568,7.1046 0.71989,10.07 0.15645,0.388 0.44972,1.1818 0.65172,1.7639 0.20199,0.582 0.95428,2.6458 1.67175,4.5861 1.48622,4.0192 2.60338,8.0346 2.61226,9.3892 0.003,0.5074 0.34171,1.3493 0.75197,1.8709 0.41026,0.5215 1.49491,2.4082 2.41033,4.1927 0.91542,1.7844 1.88944,3.2444 2.16449,3.2444 0.27505,0 0.46557,-0.1829 0.42339,-0.4065 -0.0422,-0.2236 -0.32433,-2.0492 -0.62698,-4.0569 -0.54836,-3.6378 -1.60975,-8.6139 -2.93873,-13.7777 -0.52702,-2.0478 -1.04694,-3.1362 -2.10648,-4.4097 -1.49965,-1.8026 -2.89417,-4.3103 -2.89417,-5.2046 0,-1.1354 0.75049,-0.467 1.66758,1.4852 0.59631,1.2695 1.82176,2.8866 3.27487,4.3216 1.81654,1.7939 2.53889,2.8306 3.31842,4.7625 0.54804,1.3582 1.30066,3.2269 1.6725,4.1526 0.37183,0.9258 0.98149,2.8308 1.35481,4.2334 1.31757,4.9501 2.36457,8.0876 2.78573,8.3479 0.23432,0.1448 1.33074,0.1191 2.43648,-0.057 1.39041,-0.2216 2.44564,-0.1921 3.42156,0.096 1.4488,0.4274 5.36088,2.3477 5.61261,2.7551 0.15991,0.2588 12.51289,0.2116 12.77329,-0.049 0.0931,-0.093 -1.05523,-2.2915 -2.55184,-4.8852 -1.49661,-2.5938 -3.02119,-5.3936 -3.38796,-6.2218 -0.57924,-1.308 -0.87742,-1.5622 -2.26963,-1.9345 -2.28051,-0.61 -3.08152,-1.831 -2.78506,-4.2454 0.36945,-3.0089 0.34658,-4.4764 -0.12767,-8.1892 -0.29364,-2.299 -0.36505,-4.9181 -0.205,-7.519 0.326,-5.2976 0.68093,-5.7698 4.35489,-5.7928 2.02806,-0.013 2.77351,0.1318 3.51741,0.6818 1.16225,0.8593 2.14148,2.7514 2.15468,4.1633 0.0118,1.264 -0.82391,6.1326 -1.3928,8.1139 -0.22284,0.7761 -0.49142,1.8873 -0.59684,2.4694 -0.10542,0.5821 -0.32832,1.2308 -0.49534,1.4415 -0.37005,0.4669 -1.17074,7.52 -0.88602,7.8047 0.11162,0.1116 0.4313,0.014 0.7104,-0.2182 0.27909,-0.2316 1.08793,-0.4582 1.79741,-0.5036 l 1.28996,-0.083 0.0946,-3.8681 c 0.0904,-3.6963 0.18929,-4.1437 2.22553,-10.0712 1.17199,-3.4117 2.32743,-7.3028 2.56764,-8.6469 0.40717,-2.2784 0.38496,-2.5541 -0.32805,-4.071 -0.42064,-0.8948 -1.12703,-1.9673 -1.56976,-2.3832 -2.54503,-2.391 -13.22987,-3.9786 -18.89752,-2.808 -1.56788,0.3239 -2.48481,0.3039 -4.53441,-0.099 -1.41301,-0.2775 -2.55527,-0.6586 -2.53834,-0.8469 0.0355,-0.3953 2.79253,-0.2802 4.54801,0.1901 0.81581,0.2185 1.43356,0.1887 1.94027,-0.093 1.22449,-0.6821 9.74618,-0.5508 13.26702,0.2043 6.92279,1.4848 9.25631,3.6301 9.2446,8.4992 -0.005,2.1543 -0.35661,3.5466 -2.54522,10.0841 -2.53111,7.5605 -2.53873,7.5948 -2.39046,10.7597 0.1804,3.8503 0.53305,4.5018 4.08976,7.5558 5.18191,4.4493 8.87168,10.1262 9.65432,14.8535 0.33297,2.0112 0.29433,2.4966 -0.32231,4.049 -1.21795,3.0663 -3.93282,4.6175 -8.89046,5.0798 l -2.27227,0.2119 0.097,5.6378 c 0.0534,3.1009 0.15479,5.7314 0.2254,5.8456 0.22982,0.3719 0.26205,11.6443 0.034,11.8724 -0.60747,0.6074 -0.77803,-1.1758 -1.1035,-11.5374 -0.19403,-6.1771 -0.4517,-11.3298 -0.5726,-11.4505 -0.12091,-0.1208 -1.39091,0.025 -2.82223,0.3233 -1.43131,0.2986 -3.50584,0.5431 -4.61005,0.5432 -1.1042,2e-4 -2.09752,0.1457 -2.20736,0.3235 -0.10984,0.1777 0.28884,0.8116 0.88596,1.4088 0.69335,0.6933 1.04483,1.3633 0.97264,1.8541 -0.19589,1.3317 -0.94086,1.1075 -1.70232,-0.5125 -0.4039,-0.8593 -1.06806,-1.9205 -1.4759,-2.3582 -1.01499,-1.0895 -3.84888,-2.8521 -4.21836,-2.6238 -0.16564,0.1024 -0.30117,0.043 -0.30117,-0.1313 0,-0.5757 -3.83502,-1.2076 -5.75424,-0.948 -3.17169,0.4288 -7.56867,2.3743 -11.0027,4.8683 -0.97905,0.711 -5.17546,5.0757 -6.62385,6.8894 -0.34465,0.4316 -1.36787,1.8496 -2.27383,3.1511 -0.90596,1.3015 -2.2477,3.1304 -2.98166,4.0641 -0.73395,0.9337 -1.49703,2.3014 -1.69573,3.0393 -0.43425,1.6126 -1.5901,3.1043 -4.4166,5.6998 -3.91657,3.5964 -4.16822,3.857 -3.94224,4.083 0.33533,0.3353 2.56373,-1.3248 5.39287,-4.0178 2.88545,-2.7464 4.40111,-4.5468 8.98974,-10.6784 4.01521,-5.3653 7.82705,-9.3738 10.95312,-11.5181 4.3608,-2.9914 10.55775,-3.5916 13.59617,-1.317 0.61764,0.4624 1.25879,0.8407 1.42476,0.8407 0.3615,0 2.2931,3.1387 3.14795,5.1153 0.48173,1.1138 0.60075,2.3463 0.56489,5.8503 -0.0552,5.3906 -1.10885,10.3429 -2.93886,13.8122 -0.17772,0.337 -0.32312,0.8723 -0.32312,1.1898 0,0.4838 0.0893,0.503 0.55242,0.1186 0.82271,-0.6828 1.3407,-1.8349 2.94469,-6.5497 1.13728,-3.343 1.50339,-5.0172 1.67783,-7.6729 0.12273,-1.8683 0.33573,-3.397 0.47335,-3.397 0.45745,0 0.64847,3.7785 0.32234,6.3758 -0.38203,3.0425 -2.94042,10.769 -3.92147,11.8432 -0.47254,0.5173 -1.32156,0.8352 -2.6866,1.0057 -1.09766,0.1371 -2.55421,0.4588 -3.23679,0.7149 -2.86297,1.0739 -5.12054,1.3374 -24.34799,2.8427 -6.30591,0.4936 -13.13216,0.9803 -15.16945,1.0813 l -3.70417,0.1839 z m 12.6414,-31.3722 c 1.24941,-0.6499 2.57251,-1.3563 2.94021,-1.5698 1.19232,-0.6923 4.084,-3.4703 3.90828,-3.7546 -0.0939,-0.152 -0.80901,-0.3842 -1.58905,-0.516 -1.32489,-0.2238 -1.51357,-0.1443 -2.86681,1.209 -1.55381,1.5538 -2.9274,2.1248 -3.56874,1.4834 -0.70423,-0.7042 -1.24547,-0.4381 -3.61221,1.7758 -2.65113,2.48 -2.57055,2.8684 0.55499,2.6752 1.36498,-0.084 2.65265,-0.4808 4.23333,-1.303 z m 21.70329,-19.4205 c 0.83301,0 0.45081,-2.7031 -0.78149,-5.5272 -0.26819,-0.6146 -0.58768,-1.8846 -0.70998,-2.8222 -0.12229,-0.9376 -0.33363,-1.8635 -0.46962,-2.0575 -0.136,-0.1941 -0.76515,-1.7022 -1.39812,-3.3514 -0.63296,-1.6493 -1.41257,-3.5242 -1.73246,-4.1666 -0.88183,-1.7708 -0.94021,-0.4427 -0.10249,2.3316 0.7782,2.5772 1.90119,8.1451 2.54025,12.5947 0.40181,2.7976 0.77713,3.5045 1.68377,3.1713 0.2584,-0.095 0.69497,-0.1727 0.97014,-0.1727 z m 20.39565,-11.9062 c 0.46905,-1.5458 0.92012,-5.5251 0.70387,-6.2093 -0.43343,-1.3713 -3.47221,-5.1678 -4.13642,-5.1678 -0.20547,0 -0.25212,1.0223 -0.11868,2.6009 0.1476,1.7462 0.0586,3.2227 -0.27094,4.493 -0.64249,2.4769 -0.13051,3.892 1.60924,4.4479 1.71383,0.5476 2.00333,0.526 2.21293,-0.1647 z m 1.72463,-8.9959 c 0.0977,-0.6306 0.50992,-2.4165 0.91595,-3.9687 1.13787,-4.35 1.30747,-6.8649 0.56805,-8.4232 -0.33999,-0.7164 -0.95465,-1.4828 -1.36592,-1.7029 -0.94922,-0.5082 -5.11823,-0.4612 -5.64332,0.064 -0.25705,0.2569 -0.39612,2.2165 -0.39612,5.5819 0,4.8718 0.04,5.1792 0.65992,5.0727 0.74689,-0.1284 2.22902,1.1721 3.61473,3.1717 0.51513,0.7433 1.05638,1.3514 1.20279,1.3514 0.14641,0 0.34618,-0.5159 0.44392,-1.1465 z m -24.281,-22.2929 c -0.98121,-1.0987 -1.19734,-1.1757 -3.33918,-1.189 -2.61198,-0.016 -4.23034,-0.5093 -4.23034,-1.2889 0,-0.412 0.3851,-0.5201 1.67569,-0.4704 0.92163,0.036 3.30086,0.01 5.28717,-0.066 1.98632,-0.072 3.72575,-0.017 3.86541,0.1231 0.25954,0.2595 -1.18495,3.2028 -1.84465,3.7587 -0.22603,0.1904 -0.76439,-0.1397 -1.4141,-0.8672 z"
       id="path97" /></g></svg>
