<?xml version="1.0" encoding="UTF-8" standalone="no"?>
<!-- Created with Inkscape (http://www.inkscape.org/) -->

<svg
   width="223.50328mm"
   height="147.06703mm"
   viewBox="0 0 223.50328 147.06703"
   version="1.1"
   id="svg1"
   xml:space="preserve"
   xmlns="http://www.w3.org/2000/svg"
   xmlns:svg="http://www.w3.org/2000/svg"><defs
     id="defs1" /><g
     id="layer1"
     transform="translate(17.245932,-503.51601)"><path
       style="fill:#4d4d4d"
       d="m 14.903799,650.35275 c -0.7276,-0.1085 -1.91823,-0.32344 -2.64583,-0.47765 -0.72761,-0.15421 -1.91823,-0.40508 -2.6458404,-0.55749 -1.2255,-0.25671 -1.93073,-0.50771 -3.10526,-1.10519 -0.25269,-0.12855 -0.66941,-0.23445 -0.92604,-0.23535 -0.25664,-8.9e-4 -0.80765,-0.17949 -1.22446,-0.39687 -0.41682,-0.21739 -1.04019,-0.39525 -1.38527,-0.39525 -0.95475,0 -3.01625996,-0.60654 -3.01625996,-0.88745 0,-0.28895 3.43213996,-0.0503 4.63145996,0.32202 0.43587,0.13532 1.50687,0.44606 2.38,0.69053 0.87312,0.24447 1.82562,0.54635 2.11667,0.67084 0.29104,0.12448 0.9458804,0.30011 1.4552004,0.39027 0.50933,0.0902 1.87855,0.3445 3.04271,0.5652 1.16417,0.22069 2.95011,0.50487 3.96875,0.63152 3.03166,0.3769 4.10589,0.58586 4.2554,0.82778 0.16797,0.27177 -5.00677,0.2396 -6.90123,-0.0429 z m 27.9127,-1.57375 c 0.0908,-0.70763 0.31669,-1.46931 0.50202,-1.69261 0.35093,-0.42285 0.32551,-1.34161 -0.18393,-6.64831 -0.24044,-2.5047 -0.70538,-6.19322 -1.00051,-7.9375 -0.46972,-2.77615 -0.60829,-3.65335 -0.86592,-5.48156 -0.15826,-1.12309 -0.40021,-2.25418 -0.53766,-2.51355 -0.50264,-0.94841 -1.08816,-2.41181 -1.08816,-2.71966 0,-0.17383 -0.21942,-0.63208 -0.4876,-1.01835 -0.26819,-0.38626 -0.81422,-1.41668 -1.2134,-2.2898 -0.39918,-0.87313 -0.83131,-1.76609 -0.96029,-1.98438 -0.12897,-0.21828 -0.4378,-0.80038 -0.68629,-1.29355 -0.24849,-0.49318 -0.90662,-1.50201 -1.46252,-2.24184 -0.5559,-0.73984 -1.01274,-1.52695 -1.0152,-1.74915 -0.002,-0.2222 -0.6987,-1.27093 -1.54722,-2.33051 -0.84852,-1.05958 -1.70657,-2.2502 -1.90679,-2.64583 -0.20022,-0.39563 -0.55371,-0.97553 -0.78554,-1.28868 -0.23183,-0.31315 -0.57375,-1.26565 -0.75981,-2.11667 -0.18607,-0.85102 -0.44601,-1.8208 -0.57765,-2.15507 -0.34076,-0.86525 -0.31157,-10.63703 0.0318,-10.63703 0.3922,0 0.77708,1.1683 0.82795,2.51327 0.0673,1.77922 0.34636,1.93017 1.03163,0.55805 0.3349,-0.67058 0.70687,-1.21924 0.8266,-1.21924 0.11973,0 0.21769,-0.15878 0.21769,-0.35285 0,-0.19407 0.47625,-0.86872 1.05833,-1.49923 0.58208,-0.63051 1.05833,-1.23571 1.05833,-1.34489 0,-0.10918 0.0893,-0.2382 0.19844,-0.28671 0.10914,-0.0485 0.39438,-0.44538 0.63387,-0.88194 0.23948,-0.43656 1.0343,-1.27 1.76625,-1.85209 0.73196,-0.58208 1.33968,-1.16148 1.35051,-1.28756 0.0267,-0.31147 2.14021,-2.28431 2.44714,-2.28431 0.13496,0 0.4284,-0.43804 0.65209,-0.97341 0.2237,-0.53538 1.33672,-1.87483 2.47337,-2.97656 1.13666,-1.10174 2.10842,-2.14528 2.15947,-2.31899 0.0963,-0.32756 2.49084,-3.0021 5.58293,-6.23568 0.98226,-1.02721 1.78593,-2.02878 1.78593,-2.22572 0,-0.33327 0.49316,-1.37322 0.79375,-1.67381 0.0728,-0.0728 0.36928,-0.60854 0.65893,-1.19062 0.28965,-0.58209 0.59663,-1.11787 0.68218,-1.19063 0.21743,-0.18491 1.04014,-1.88661 1.04014,-2.15142 0,-0.11992 -0.64652,0.40439 -1.43672,1.16513 -0.7902,0.76074 -1.71294,1.60776 -2.05053,1.88226 -0.33758,0.2745 -1.26863,1.06 -2.069,1.74555 -0.80036,0.68555 -1.93146,1.39932 -2.51354,1.58615 -0.58208,0.18682 -1.47505,0.4936 -1.98437,0.68173 -0.50933,0.18812 -1.75948,0.54211 -2.77813,0.78662 -1.01864,0.24452 -2.17719,0.56472 -2.57455,0.71155 -0.88708,0.32779 -2.42094,0.0356 -1.75869,-0.33502 0.77682,-0.43473 4.04847,-1.51872 6.05303,-2.00555 1.09141,-0.26506 2.4285,-0.75278 2.97131,-1.08384 0.54281,-0.33105 1.08924,-0.60191 1.2143,-0.60191 0.12505,0 0.36299,-0.29765 0.52875,-0.66146 0.16576,-0.3638 0.39323,-0.6616 0.50549,-0.66178 0.11226,-1.8e-4 0.55005,-0.29783 0.97287,-0.66146 0.42281,-0.36362 0.92883,-0.66113 1.12448,-0.66113 0.19564,0 0.35572,-0.10364 0.35572,-0.23032 0,-0.38181 3.20531,-3.47385 3.60112,-3.47385 0.2022,0 0.36763,-0.12747 0.36763,-0.28326 0,-0.23266 1.86642,-2.68779 2.39947,-3.15632 0.321,-0.28215 1.0403,-2.42833 1.04373,-3.11421 0.007,-1.46177 0.27059,-1.91288 1.11643,-1.91288 0.67098,0 0.77173,-0.0842 0.65135,-0.54457 -0.10555,-0.40361 -0.0303,-0.52299 0.29059,-0.46118 0.84504,0.16274 1.9299,2.95297 2.6028,6.6943 0.16528,0.91892 0.86764,2.45721 1.81207,3.96875 0.36369,0.58208 0.76793,1.29646 0.8983,1.5875 0.13037,0.29104 0.48882,0.75598 0.79656,1.03319 0.30774,0.27722 0.565,0.69394 0.57168,0.92604 0.007,0.23211 0.43859,0.7792 0.9598,1.21577 0.5212,0.43656 1.96912,1.77601 3.2176,2.97656 1.24847,1.20055 2.39763,2.18281 2.55367,2.18281 0.15604,0 0.45883,0.24421 0.67285,0.54269 0.21403,0.29848 0.98445,0.91949 1.71206,1.38002 0.7276,0.46053 1.52515,1.06092 1.77233,1.33419 0.24718,0.27327 0.90202,0.61344 1.45521,0.75593 3.971586,1.023 4.749016,0.96173 3.510626,-0.27666 -0.43178,-0.43178 -0.78505,-0.90953 -0.78505,-1.06168 0,-0.36286 0.78484,-0.0764 1.46793,0.53587 0.96154,0.86179 1.99093,0.8856 3.02999,0.0701 1.02297,-0.80289 5.97429,-6.65176 6.25893,-7.39352 0.16485,-0.42958 0.0169,-0.45562 -1.80539,-0.3178 -1.90616,0.14417 -4.17647,0.65292 -4.45354,0.99799 -0.0728,0.0906 -0.67822,0.31476 -1.34545,0.49808 -1.32143,0.36307 -3.29789,0.24838 -4.21948,-0.24484 -0.78606,-0.42069 -0.45183,-0.72721 2.37018,-2.17376 3.1486,-1.61396 3.12436,-1.90667 -0.14316,-1.72903 -1.43837,0.0782 -3.247956,0.0805 -4.021306,0.005 -1.54128,-0.15022 -2.01858,-0.58723 -2.3273,-2.1308 l -0.16921,-0.84606 3.803386,-0.0428 c 3.74865,-0.0422 3.76911,-0.0456 1.42213,-0.23733 -3.623826,-0.29605 -4.993186,-0.74771 -5.553806,-1.83183 -0.33982,-0.65714 -0.32486,-0.77859 0.15998,-1.29901 0.49972,-0.53639 0.69442,-0.5627 2.96434,-0.40064 1.336216,0.0954 2.542596,0.27767 2.680846,0.40503 0.13824,0.12737 0.59255,0.23158 1.00957,0.23158 0.41703,0 1.0183,0.13855 1.33615,0.3079 0.51655,0.2752 0.5405,0.26253 0.22555,-0.11933 -0.1938,-0.23497 -0.87987,-0.50633 -1.5246,-0.60301 -0.64473,-0.0967 -1.23734,-0.28112 -1.3169,-0.40984 -0.0796,-0.12873 -0.40551,-0.23579 -0.72435,-0.23791 -0.90901,-0.006 -2.926596,-0.77309 -3.291666,-1.25144 -0.461,-0.60403 -0.41294,-1.56696 0.0878,-1.75911 0.59811,-0.22952 0.59628,-0.23096 0.68839,0.54208 0.1011,0.84856 1.23974,1.3381 4.846216,2.08353 0.43656,0.0902 1.06571,0.29646 1.39811,0.45827 0.66478,0.32362 1.80224,1.97774 1.54019,2.23979 -0.34656,0.34656 -1.8333,0.18338 -7.766946,-0.85249 -1.05502,-0.18418 -1.91823,-0.27896 -1.91823,-0.21063 0,0.35765 1.28446,1.11866 1.90101,1.1263 0.39071,0.005 1.02203,0.12729 1.402946,0.27212 0.38091,0.14482 1.72593,0.38073 2.98893,0.52424 1.89746,0.21561 2.37625,0.3652 2.75619,0.86117 0.79892,1.0429 0.0889,1.26169 -4.09461,1.26169 -2.822806,0 -3.650116,0.0767 -3.565626,0.33073 0.15953,0.47953 1.29777,0.66089 4.370016,0.6963 2.64278,0.0305 4.82448,0.44847 4.82448,0.92438 0,0.37215 -1.84944,2.01734 -2.2678,2.01734 -0.20792,0 -0.37804,0.10517 -0.37804,0.23372 0,0.12855 -0.20836,0.29932 -0.46302,0.37949 -0.25466,0.0802 -0.93927,0.32695 -1.52135,0.54841 l -1.05834,0.40265 1.23177,0.0116 c 0.70882,0.007 1.66362,-0.20466 2.24896,-0.49779 2.41922,-1.21151 2.87277,-1.32922 5.79486,-1.50392 2.68165,-0.16033 3.03349,-0.13112 3.18526,0.26437 0.2544,0.66296 -1.93675,4.11245 -3.5094,5.52478 -0.31545,0.2833 -0.95267,1.06768 -1.41604,1.74307 -1.11958,1.63183 -2.51305,2.68318 -3.55634,2.68318 -0.45679,0 -0.95884,0.12832 -1.11567,0.28515 -0.77933,0.77933 -4.08923,0.74165 -4.966826,-0.0565 -0.13825,-0.12573 -0.49756,-0.22861 -0.79848,-0.22861 -0.30092,0 -0.97765,-0.29255 -1.50385,-0.65011 -0.94708,-0.64356 -0.96144,-0.64489 -1.42534,-0.13229 -0.25774,0.2848 -0.64698,0.51782 -0.86497,0.51782 -0.29021,0 -0.2438,-0.13231 0.1733,-0.49406 0.57882,-0.50201 0.76067,-1.09344 0.33619,-1.09344 -0.1284,0 -0.7097,-0.47625 -1.29179,-1.05833 -0.58208,-0.58209 -1.1965,-1.05834 -1.36538,-1.05834 -0.40812,0 -2.9302,-2.37056 -2.9302,-2.75416 0,-0.16528 -0.43155,-0.53291 -0.959,-0.81695 -1.16416,-0.62695 -2.74517,-2.1651 -2.74517,-2.67075 0,-0.20247 -0.32972,-0.69658 -0.73272,-1.09802 -0.40299,-0.40145 -0.90881,-1.0871 -1.12405,-1.52366 -0.21524,-0.43656 -0.45107,-0.85328 -0.52406,-0.92604 -0.073,-0.0728 -0.35678,-0.57312 -0.63063,-1.11192 l -0.49792,-0.97962 -0.60521,0.71504 c -0.33286,0.39327 -1.10696,1.31035 -1.72022,2.03796 -0.61326,0.7276 -1.41748,1.48639 -1.78715,1.6862 -0.36968,0.19981 -0.91201,0.58676 -1.20519,0.85989 -0.29318,0.27314 -0.60822,0.49662 -0.70009,0.49662 -0.0919,0 -0.53381,0.32742 -0.98208,0.7276 -0.44827,0.40018 -1.39245,1.04131 -2.09817,1.42472 -0.70573,0.38342 -2.02661,1.42522 -2.93531,2.31511 -0.90869,0.88989 -1.77189,1.61798 -1.91822,1.61798 -0.14634,0 -0.26607,0.1256 -0.26607,0.2791 0,0.30474 -1.59284,2.62238 -3.05182,4.44051 -0.50656,0.63125 -1.05329,1.67304 -1.21496,2.3151 -0.16168,0.64206 -0.384,1.16738 -0.49405,1.16738 -0.11006,0 -0.26979,0.34842 -0.35496,0.77427 -0.0852,0.42585 -0.38538,1.28906 -0.66713,1.91823 -0.28175,0.62918 -0.71829,2.03692 -0.9701,3.12833 -0.2518,1.09141 -0.56179,2.32956 -0.68886,2.75146 -0.30672,1.0184 -0.2983,14.25164 0.01,15.02932 0.13234,0.33427 0.43909,1.32214 0.68168,2.19526 0.51497,1.85352 0.64357,2.18976 1.53255,4.00697 0.36622,0.74863 0.74334,1.70113 0.83804,2.11667 0.24087,1.05694 1.97317,4.1076 2.93256,5.16437 0.44082,0.48555 1.00601,1.31679 1.25599,1.84719 0.24997,0.5304 1.16923,1.71316 2.04279,2.62836 0.87356,0.91519 1.58829,1.77826 1.58829,1.91794 0,0.13967 0.83344,1.0694 1.85209,2.06606 1.01864,0.99666 1.85208,1.93205 1.85208,2.07863 0,0.14659 0.1177,0.26652 0.26156,0.26652 0.51402,0 3.70719,2.96072 3.70719,3.43733 0,0.1331 0.42073,0.44166 0.93495,0.68567 0.51422,0.24402 1.4892,1.09243 2.16663,1.88536 0.68411,0.80076 1.79795,1.72865 2.50542,2.08715 0.70056,0.355 1.4211,0.8814 1.60119,1.16977 0.18009,0.28837 0.46746,0.52431 0.63861,0.52431 0.17115,0 0.35087,0.0894 0.39938,0.19864 0.0485,0.10926 1.00939,0.79387 2.1353,1.52136 1.84765,1.19383 2.41724,1.72139 1.8555,1.71859 -0.10914,-5.4e-4 -0.58827,-0.23867 -1.06473,-0.52917 -0.47646,-0.29049 -0.9636,-0.52817 -1.08253,-0.52817 -0.20103,0 -0.0417,1.25337 0.37882,2.98113 0.15217,0.62512 1.32395,1.78137 1.80531,1.78137 0.0845,0 0.7578,0.37176 1.49625,0.82613 l 1.34264,0.82613 1.6379,-0.5882 c 0.90085,-0.32351 2.11415,-0.71112 2.69623,-0.86136 0.58209,-0.15024 1.296456,-0.36889 1.587496,-0.48589 0.29105,-0.117 0.77919,-0.28209 1.08476,-0.36686 0.46767,-0.12976 0.6009,-0.47711 0.842,-2.19529 0.15753,-1.12263 0.25594,-2.07162 0.21868,-2.10888 -0.15982,-0.15982 -4.386546,0.42697 -5.717306,0.79372 -2.05047,0.5651 -3.70417,0.80707 -3.70417,0.542 0,-0.4261 2.17906,-1.16858 4.4614,-1.52015 1.25701,-0.19363 2.821256,-0.53711 3.476096,-0.76329 0.65485,-0.22618 1.66688,-0.48762 2.24896,-0.58098 0.58208,-0.0934 1.29646,-0.26823 1.5875,-0.38859 1.04856,-0.43364 2.13367,-0.77162 3.04271,-0.94771 0.50932,-0.0987 1.0451,-0.26862 1.19062,-0.37769 0.14552,-0.10906 0.74084,-0.26712 1.32292,-0.35125 2.74459,-0.39665 4.62958,-0.78274 6.08542,-1.24646 0.87312,-0.27811 2.301865,-0.69519 3.174995,-0.92686 0.87312,-0.23166 2.34419,-0.6617 3.26903,-0.95563 1.8313,-0.58203 3.5264,-0.93879 5.99995,-1.26276 0.87783,-0.11498 1.85227,-0.34617 2.16542,-0.51376 0.31314,-0.16759 0.86781,-0.30471 1.23259,-0.30471 0.36478,0 0.73682,-0.11906 0.82676,-0.26458 0.0899,-0.14552 0.43961,-0.26459 0.77705,-0.26459 0.33744,0 1.04097,-0.17859 1.56339,-0.39687 0.52242,-0.21828 1.25295,-0.39688 1.6234,-0.39688 0.37045,0 0.88029,-0.12038 1.13298,-0.26753 0.68725,-0.40019 4.76961,-1.37565 6.28026,-1.50062 0.7276,-0.0602 1.56104,-0.22355 1.85208,-0.363 0.29104,-0.13946 1.06495,-0.3654 1.71979,-0.5021 1.18827,-0.24804 5.33353,-1.38657 6.08542,-1.6714 0.21828,-0.0827 0.69453,-0.21125 1.05833,-0.28569 0.36381,-0.0744 1.13771,-0.25984 1.7198,-0.41202 0.58208,-0.15217 1.50968,-0.27952 2.06134,-0.28299 0.55166,-0.003 1.74228,-0.22827 2.64583,-0.49955 1.63219,-0.49003 3.17659,-0.91273 4.95012,-1.35481 4.36524,-1.08812 5.49335,-1.3878 5.95312,-1.58143 0.29105,-0.12258 1.83886,-0.42323 3.43959,-0.66812 1.60073,-0.24489 3.14854,-0.5504 3.43958,-0.67892 0.57769,-0.2551 3.4844,-1.02876 7.01146,-1.86619 1.23693,-0.29368 2.6146,-0.64562 3.06149,-0.78209 0.4469,-0.13646 1.17596,-0.24812 1.62014,-0.24812 0.44419,0 1.74542,-0.24687 2.89164,-0.5486 1.14621,-0.30172 2.59799,-0.6568 3.22618,-0.78906 0.62819,-0.13225 1.24531,-0.30421 1.37138,-0.38213 0.12608,-0.0779 0.7432,-0.25097 1.37139,-0.38455 0.62818,-0.13359 1.6184,-0.37683 2.20049,-0.54055 2.29398,-0.6452 4.56543,-1.11369 5.95312,-1.22783 0.80037,-0.0658 1.69334,-0.22067 1.98438,-0.34409 0.48222,-0.20449 2.63141,-0.75786 6.87916,-1.77123 0.87313,-0.20829 2.06375,-0.50017 2.64584,-0.64862 0.58208,-0.14844 1.67158,-0.33702 2.4211,-0.41907 l 1.36276,-0.14918 0.18723,2.24767 c 0.10298,1.23622 0.10714,2.72172 0.009,3.3011 -0.16092,0.95249 -0.28408,1.08683 -1.28541,1.40199 -0.60909,0.1917 -1.76228,0.43741 -2.56264,0.54602 -0.80036,0.1086 -1.79065,0.28136 -2.20063,0.38392 -0.55185,0.13804 -1.11867,-0.002 -2.18281,-0.54079 -0.79057,-0.39999 -1.43739,-0.8102 -1.43739,-0.91157 0,-0.10138 -0.48368,-0.45617 -1.07485,-0.78842 -0.59117,-0.33225 -1.17647,-0.87139 -1.30068,-1.19808 -0.21002,-0.55239 -0.32759,-0.58017 -1.67936,-0.39673 -0.79945,0.10849 -2.3275,0.45816 -3.39568,0.77704 -2.31088,0.68988 -4.19899,1.22832 -5.64631,1.61021 -0.58208,0.15358 -1.47505,0.41129 -1.98437,0.57268 -0.93135,0.29513 -2.1836,0.56201 -4.63021,0.98679 -0.72761,0.12633 -2.03729,0.42848 -2.91042,0.67145 -0.87312,0.24297 -1.94469,0.50544 -2.38125,0.58327 -0.43656,0.0778 -0.91281,0.23496 -1.05833,0.34918 -0.14552,0.11421 -0.74084,0.28642 -1.32292,0.38267 -0.58208,0.0963 -1.29646,0.27349 -1.5875,0.39385 -1.38881,0.57435 -2.24088,0.78867 -3.70417,0.93168 -1.64093,0.16037 -2.84652,0.42636 -4.89479,1.07994 -0.65484,0.20895 -1.51102,0.37932 -1.90261,0.3786 -0.3916,-7.2e-4 -0.78558,0.11775 -0.87551,0.26327 -0.0899,0.14553 -0.43431,0.26459 -0.76527,0.26459 -0.33096,0 -0.68919,0.0874 -0.79606,0.19431 -0.10687,0.10687 -0.81132,0.33408 -1.56545,0.50491 -0.75413,0.17083 -1.84739,0.44893 -2.42947,0.61799 -0.58209,0.16907 -2.34987,0.53732 -3.92842,0.81834 -1.57854,0.28103 -2.99641,0.58903 -3.15082,0.68447 -0.15442,0.0954 -0.94647,0.32578 -1.76013,0.51189 -1.40901,0.3223 -2.21135,0.53664 -4.45595,1.19041 -1.29894,0.37834 -4.32164,1.01258 -6.15156,1.29077 -0.80036,0.12168 -2.16958,0.42078 -3.04271,0.66469 -1.50325,0.41992 -2.74733,0.75097 -8.99583,2.39376 -1.45521,0.38259 -3.36021,0.79586 -4.23333,0.91836 -1.68007,0.23574 -2.55979,0.44213 -8.46667,1.98639 -5.642345,1.47511 -6.735305,1.72561 -8.598955,1.97083 -0.94588,0.12446 -2.91042,0.54209 -4.36562,0.92807 -3.7017,0.98184 -5.69014,1.47269 -6.61459,1.63282 l -0.79375,0.1375 0.0824,2.87432 0.0824,2.87432 -1.43081,0.67688 c -0.78695,0.37229 -1.56977,0.67689 -1.73961,0.67689 -0.16983,0 -0.51553,0.11047 -0.768216,0.24548 -1.0529,0.5626 -3.35365,1.09342 -4.89535,1.12942 -1.36499,0.0319 -1.87767,-0.0904 -2.97241,-0.70883 -0.72761,-0.41104 -1.58512,-1.02672 -1.9056,-1.36817 -0.32047,-0.34145 -0.69578,-0.62082 -0.83401,-0.62082 -0.4651,0 -0.83227,-1.65155 -0.83227,-3.74365 0,-1.14245 -0.0964,-2.07718 -0.21425,-2.07718 -0.11784,0 -0.84759,-0.54061 -1.62167,-1.20136 -0.77408,-0.66074 -1.81469,-1.37152 -2.31246,-1.5795 -0.49777,-0.20798 -1.62031,-1.09342 -2.49454,-1.96765 -0.87422,-0.87422 -1.93986,-1.79646 -2.36808,-2.04942 -0.42822,-0.25295 -0.77858,-0.5669 -0.77858,-0.69766 0,-0.13076 -0.50602,-0.66897 -1.12448,-1.19602 -3.23739,-2.75889 -9.78699,-9.7873 -9.94028,-10.66695 -0.0465,-0.26686 -0.1873,-0.4852 -0.3129,-0.4852 -0.12559,0 -0.29512,-0.20835 -0.37673,-0.46302 -0.0816,-0.25466 -0.56588,-0.93113 -1.07616,-1.50327 -0.51028,-0.57213 -0.92778,-1.19721 -0.92778,-1.38906 0,-0.19185 -0.10098,-0.34881 -0.2244,-0.34881 -0.12342,0 -0.43522,-0.50602 -0.69289,-1.12448 -0.47174,-1.13228 -1.11924,-2.55489 -2.37193,-5.21133 -0.37374,-0.79255 -0.67953,-1.70826 -0.67953,-2.0349 0,-0.32664 -0.0987,-0.65491 -0.21937,-0.72947 -0.12065,-0.0746 -0.38805,-0.82574 -0.59421,-1.66926 -0.41182,-1.68498 -0.54066,-12.90418 -0.18169,-15.82119 0.42104,-3.42147 0.54205,-4.10104 0.73025,-4.10104 0.10744,0 0.26287,-0.50346 0.3454,-1.11879 0.0825,-0.61533 0.27681,-1.16104 0.43171,-1.21267 0.15491,-0.0516 0.28166,-0.29828 0.28166,-0.54809 0,-0.24981 0.10651,-0.56731 0.2367,-0.70555 0.33308,-0.35369 0.64515,-1.97174 0.37963,-1.96833 -0.34342,0.004 -2.60071,2.21123 -2.60071,2.54256 0,0.16303 -1.41551,1.79902 -3.14558,3.63553 -1.73007,1.83652 -3.31499,3.66565 -3.52203,4.06473 -0.20705,0.39909 -0.57748,0.92138 -0.82317,1.16066 -0.68984,0.67181 -1.37222,1.54333 -1.37784,1.75975 -0.003,0.10747 -0.42082,0.67166 -0.92895,1.25374 -0.50813,0.58209 -0.99814,1.29646 -1.08891,1.5875 -0.0908,0.29104 -0.2814,0.60397 -0.42361,0.69539 -0.55615,0.35754 -0.66192,2.4692 -0.28149,5.62014 0.34534,2.86031 0.46721,3.29583 1.1202,4.00322 0.40299,0.43656 1.07618,1.27 1.49597,1.85209 0.4198,0.58208 1.0364,1.32329 1.37022,1.64714 0.33383,0.32384 0.82716,1.09775 1.0963,1.71979 0.26914,0.62204 0.85957,1.5477 1.31208,2.05702 0.4525,0.50933 0.82463,1.07487 0.82696,1.25678 0.002,0.1819 0.10124,0.33072 0.2198,0.33072 0.26345,0 1.10734,1.72076 1.10734,2.25794 0,0.21334 0.0893,0.38883 0.19844,0.38996 0.10914,0.001 0.32927,0.26903 0.48917,0.59531 0.15991,0.32629 0.915,1.80998 1.678,3.29709 1.09762,2.1393 1.41714,3.05079 1.53038,4.36562 0.0787,0.91399 0.22853,1.78086 0.33292,1.92638 0.32371,0.45126 0.85329,3.41286 1.58493,8.86354 0.12696,0.94588 0.37769,3.69622 0.55718,6.11185 l 0.32634,4.39205 -0.85579,1.75666 c -0.47068,0.96615 -0.94335,1.81077 -1.05037,1.87691 -0.10703,0.0661 -0.12032,-0.4587 -0.0295,-1.16634 z M 200.90587,614.63984 c 0.58209,-0.12835 1.37153,-0.29831 1.75433,-0.37769 0.79036,-0.1639 0.99849,-0.6393 1.26272,-2.88416 l 0.18166,-1.54341 -0.67331,0.13157 c -1.01222,0.1978 -2.98522,0.72456 -3.58373,0.95681 -0.98189,0.38101 -2.37546,0.77482 -3.37636,0.95413 -0.54731,0.098 -1.06035,0.28383 -1.14009,0.41285 -0.0797,0.12903 -0.46538,0.23724 -0.85698,0.24048 l -0.71199,0.006 0.66146,0.51735 c 0.59052,0.46187 1.36198,0.86401 3.04271,1.5861 1.17162,0.50335 1.15716,0.50335 3.43958,9e-5 z M 55.110269,565.69328 c 0.11699,0 0.42219,-0.24153 0.67822,-0.53673 0.66367,-0.76522 2.69286,-2.09859 3.20241,-2.10429 0.23696,-0.003 0.91627,-0.63402 1.50957,-1.40305 0.59331,-0.76903 1.50076,-1.73471 2.01655,-2.14596 1.03653,-0.82642 1.22894,-1.84484 0.58256,-3.08343 -0.1936,-0.37097 -0.42577,-1.21268 -0.51593,-1.87047 -0.26397,-1.92589 -0.61696,-2.6144 -1.34036,-2.6144 -0.69548,0 -0.95355,0.55229 -0.95984,2.05411 -0.002,0.47492 -0.15244,1.12608 -0.33434,1.44702 -0.45606,0.80468 -2.32578,3.40395 -2.87773,4.00061 -0.24945,0.26966 -0.53727,1.09899 -0.63959,1.84295 -0.10232,0.74396 -0.47539,1.81102 -0.82904,2.37124 -0.35365,0.56022 -0.8886,1.4573 -1.18878,1.99351 -0.51782,0.925 -0.51942,0.95122 -0.0311,0.51191 0.28308,-0.25466 0.6104,-0.46302 0.7274,-0.46302 z m -24.17669,79.99921 c -0.59445,-0.67533 -1.08082,-1.38551 -1.08082,-1.57819 0,-0.19267 -0.2483,-0.4832 -0.55178,-0.64562 -0.63359,-0.33908 -1.6089,-1.12324 -2.69986,-2.17071 -0.4168,-0.40018 -0.86772,-0.7276 -1.00205,-0.7276 -0.13432,0 -0.24423,-0.0951 -0.24423,-0.21143 0,-0.22657 -1.53489,-0.8469 -2.09546,-0.8469 -0.18596,0 -0.71329,-0.16234 -1.17184,-0.36075 -2.4083,-1.04203 -6.65527,-1.05444 -12.6077004,-0.0368 -0.50932,0.0871 -2.03523,0.3351 -3.3909,0.55119 -1.35568,0.21608 -2.66536,0.50068 -2.91042,0.63244 -0.84287,0.45321 -3.05456996,1.06602 -3.84733996,1.06602 -0.43669004,0 -1.15962004,0.11274 -1.60651004,0.25053 -0.4469,0.13779 -2.24129,0.4387 -3.98754,0.66867 -1.74625,0.22998 -3.9031006,0.53396 -4.7930006,0.67551 -2.43289,0.38699 -6.18721,0.33715 -6.18721,-0.0821 0,-0.23339 0.88908,-0.44968 2.84427,-0.69193 4.3995904,-0.54512 6.1597006,-0.78279 7.7390706,-1.04499 0.80036,-0.13287 2.5863,-0.42438 3.96875,-0.64779 1.38245,-0.22342 3.04932004,-0.59437 3.70416,-0.82436 0.65485,-0.22998 1.84547,-0.49436 2.64584,-0.58751 0.80036,-0.0932 1.57427,-0.25724 1.71979,-0.36464 0.14552,-0.10741 0.6813,-0.2759 1.19062,-0.37443 4.2836704,-0.8287 5.4321804,-1.00454 7.3580404,-1.12656 2.13777,-0.13544 2.18609,-0.15318 1.74493,-0.64066 -0.24955,-0.27575 -0.60365,-0.50137 -0.78688,-0.50137 -0.59495,0 -2.13509,-1.73098 -3.02395,-3.39866 l -0.86795,-1.62842 -2.8074004,0.009 c -1.54547,0.005 -3.58047,0.19002 -4.5272,0.41135 -0.94589,0.22114 -2.13651,0.5005 -2.64584,0.62082 -0.50931996,0.12031 -1.81900996,0.54007 -2.91041,0.93278 -1.09141,0.39272 -2.48977,0.87719 -3.10746,1.07661 -0.6177,0.19942 -1.51067,0.53401 -1.98438,0.74354 -1.26917,0.56137 -3.9470406,1.23269 -4.9171306,1.23269 -0.46537,0 -1.05287,0.10228 -1.30556,0.2273 -0.74091,0.36655 -3.13903,1.09562 -3.6038,1.09562 -0.6645,0 -0.52133,-0.97384 0.16781,-1.14137 0.32742,-0.0796 1.07156,-0.282 1.65364,-0.44978 0.58208,-0.16778 1.59412,-0.40045 2.24896,-0.51705 1.18315,-0.21067 2.62303,-0.66385 3.5021404,-1.10227 0.25269,-0.12601 0.6098702,-0.22985 0.7937502,-0.23074 0.18387,-9e-4 0.63197,-0.1553 0.99578,-0.34311 0.3638,-0.18781 1.37583,-0.56064 2.24896,-0.82851 0.87312,-0.26787 1.70656,-0.57477 1.85208,-0.68199 0.14552,-0.10722 0.62177,-0.26211 1.05833,-0.3442 1.68203004,-0.31628 5.13542,-1.23952 5.84657,-1.56304 0.3052,-0.13884 2.002,-0.21229 3.77067,-0.16321 1.76868,0.0491 3.2156104,-7e-5 3.2154104,-0.10921 -5.2e-4,-0.28711 -2.0711504,-2.31511 -2.3637804,-2.31511 -0.13571,0 -0.33027,-0.26315 -0.43236,-0.58479 -0.10208,-0.32164 -0.87613,-1.28612 -1.7201,-2.14328 -1.5774,-1.60206 -2.36328,-2.88577 -2.36328,-3.86035 0,-0.30543 -0.1055,-0.55533 -0.23444,-0.55533 -0.20682,0 -0.62531,-0.78267 -1.34398,-2.51354 -0.12084,-0.29104 -0.39685,-0.94588 -0.61336,-1.45521 -0.2165,-0.50932 -0.72501996,-1.87854 -1.13003996,-3.0427 -0.40503,-1.16417 -0.9544,-2.30923 -1.22084,-2.54458 -0.26643004,-0.23535 -0.48443004,-0.55466 -0.48443004,-0.70959 0,-0.15492 -0.3425,-0.52556 -0.76113,-0.82365 -0.41862,-0.29808 -0.94765,-0.93127 -1.17562,-1.40708 -0.22797,-0.47581 -1.02582,-1.34135 -1.77299,-1.92344 -1.6468,-1.28294 -2.1159,-2.12027 -2.44574,-4.36562 -0.64826,-4.41301 -0.1407,-8.99964 1.30735,-11.81385 0.55029,-1.06947 1.09234,-1.94449 1.20454,-1.94449 0.11221,0 0.20401,-0.1658 0.20401,-0.36844 0,-0.36361 2.84636,-3.33572 3.19458,-3.33572 0.0988,0 0.68528004,-0.47625 1.30334004,-1.05834 0.61805,-0.58208 1.291,-1.05833 1.49543996,-1.05833 0.20444,0 1.35059,-0.67106 2.54699,-1.49124 1.1964,-0.82018 2.91022,-1.84285 3.80848,-2.27261 1.52041,-0.72742 3.5261704,-2.37913 3.5261704,-2.90375 0,-0.12617 0.32742,-0.56271 0.72761,-0.97008 0.40018,-0.40738 0.90619,-0.97238 1.12447,-1.25556 0.21829,-0.28318 0.84747,-1.07223 1.39818,-1.75345 0.55072,-0.68122 1.18072,-1.68979 1.4,-2.24126 0.74445,-1.87223 1.30227,-2.98097 1.5013,-2.98402 0.10914,-0.002 0.19894,-0.15186 0.19955,-0.33376 6.1e-4,-0.1819 0.28938,-0.89891 0.64172,-1.59336 0.35234,-0.69444 0.72309,-1.63815 0.8239,-2.09712 0.19434,-0.8848 0.96874,-2.3698 2.414,-4.62911 0.99367,-1.55336 1.12341,-2.10269 0.41875,-1.77299 -0.25466,0.11915 -2.24449,0.24625 -4.42184,0.28244 -3.63928,0.0605 -3.99782,0.0239 -4.44207,-0.45291 -0.2658,-0.2853 -0.58919,-0.51872 -0.71864,-0.51872 -0.12946,0 -0.43922,-0.20384 -0.68835,-0.45297 -0.24913,-0.24913 -0.64443,-0.48106 -0.87845,-0.51541 -0.23401,-0.0344 -0.6145504,-0.29593 -0.8456204,-0.5813 -0.23108,-0.28537 -0.70637,-0.55945 -1.0562,-0.60907 -0.6638,-0.0941 -1.46472,-1.33344 -1.16997,-1.81035 0.0893,-0.14453 0.95926,-0.63044 1.93318,-1.07979 0.9739304,-0.44936 2.3354504,-1.10453 3.0256004,-1.45594 0.69016,-0.35141 1.48681,-0.63892 1.77033,-0.63892 0.28352,0 0.58907,-0.11906 0.67901,-0.26459 0.0899,-0.14552 0.54345,-0.26549 1.0078,-0.2666 1.60302,-0.004 5.25981,-1.33065 6.9297,-2.51435 0.43656,-0.30945 1.31285,-0.78682 1.9473,-1.0608 0.63445,-0.27399 1.50901,-0.83022 1.94348,-1.23607 0.43447,-0.40586 1.34604,-1.09826 2.02572,-1.53867 0.67967,-0.44042 1.76964,-1.41818 2.42214,-2.1728 0.6525,-0.75462 1.48402,-1.67649 1.84782,-2.04861 0.3638,-0.37212 1.00995,-1.21121 1.43589,-1.86465 0.42594,-0.65344 1.22961,-1.63916 1.78594,-2.19048 0.55633,-0.55133 1.0115,-1.17505 1.0115,-1.38604 0,-0.44142 0.39576,-0.95665 2.28306,-2.97223 1.27092,-1.35731 1.33534,-1.49102 1.01546,-2.1076 -0.18786,-0.36209 -0.70922,-0.88193 -1.15858,-1.15521 -0.47821,-0.29081 -0.81702,-0.71791 -0.81702,-1.02991 0,-0.30133 -0.17541,-0.53306 -0.40349,-0.53306 -0.2351,0 -0.46861,-0.32561 -0.55954,-0.78023 -0.0858,-0.42912 -0.3805,-0.98335 -0.65484,-1.23163 -0.60919,-0.55131 -0.67541,-2.27469 -0.10557,-2.74762 0.25257,-0.20961 0.74945,-0.26409 1.38906,-0.15229 0.54771,0.0957 2.35934,0.30467 4.02585,0.46432 2.28857,0.21923 3.05509,0.21504 3.13248,-0.0171 0.0564,-0.16906 0.24238,-0.45408 0.4134,-0.63338 0.40376,-0.42334 1.75848,-3.06909 1.75848,-3.43431 0,-0.15473 0.29766,-0.67158 0.66146,-1.14855 0.3638,-0.47697 0.66146,-1.00452 0.66146,-1.17235 0,-0.55953 1.58969,-2.52779 2.45393,-3.03831 0.46911,-0.27711 1.12512,-0.77602 1.45779,-1.10869 0.33266,-0.33267 0.89831,-0.6656 1.25698,-0.73985 0.35867,-0.0742 0.93394,-0.19281 1.27836,-0.26348 0.89383,-0.1834 3.31331,0.5876 4.40086,1.4024 1.24442,0.93232 1.87227,1.54175 3.08137,2.99095 1.56168,1.8718 1.77743,2.14452 2.91921,3.6901 1.59224,2.15533 1.76077,2.25607 3.15182,1.88402 0.64567,-0.17269 1.41036,-0.31398 1.69931,-0.31398 0.28895,0 0.52537,-0.166 0.52537,-0.36889 0,-0.2029 0.32742,-0.71631 0.7276,-1.14092 0.64096,-0.68009 1.30048,-1.10704 3.04528,-1.9714 0.25607,-0.12686 1.8067,-0.20997 3.44584,-0.1847 2.84242,0.0438 3.065616,0.007 4.826076,-0.80337 1.0152,-0.46712 2.05418,-0.96232 2.30884,-1.10043 0.25466,-0.13812 0.67138,-0.36442 0.92604,-0.50289 0.25467,-0.13847 0.93928,-0.44614 1.52136,-0.6837 0.58208,-0.23757 1.26508,-0.54099 1.51776,-0.67428 0.25269,-0.13328 0.59188,-0.24234 0.75377,-0.24234 0.35105,0 1.86587,-0.64784 3.15243,-1.34819 0.50932,-0.27726 1.69995,-0.89101 2.64583,-1.36389 0.94589,-0.47289 1.77932,-0.93403 1.85208,-1.02476 0.0728,-0.0907 1.04049,-0.65628 2.150505,-1.25677 1.84877,-1.00014 2.18316,-1.0918 3.98294,-1.0918 1.59645,0 2.23486,0.13298 3.40575,0.7094 0.79256,0.39018 1.52015,0.8377 1.61688,0.9945 0.0967,0.15681 0.59327,0.71489 1.10343,1.24019 0.53254,0.54834 1.05977,1.44881 1.23797,2.11436 0.17072,0.63759 0.39786,1.33785 0.50476,1.55613 0.33394,0.68186 -0.19901,4.0246 -1.18116,7.40833 -0.23231,0.80037 -0.54179,1.87193 -0.68774,2.38125 -0.14596,0.50933 -0.3782,1.58089 -0.51611,2.38125 -0.25227,1.46409 -0.52229,2.33841 -1.19721,3.87645 -0.20121,0.45855 -0.36585,0.90453 -0.36585,0.99107 0,0.0865 -0.41672,1.0595 -0.92604,2.16215 -0.50932,1.10265 -0.92604,2.17471 -0.92604,2.38236 0,0.20766 -0.10385,0.37756 -0.23077,0.37756 -0.12692,0 -0.30823,0.44648 -0.40291,0.99218 -0.0947,0.54571 -0.51532,1.64704 -0.93475,2.4474 -0.41943,0.80037 -1.01318,1.97897 -1.31945,2.61913 l -0.55684,1.16391 0.53173,0.37244 c 0.29246,0.20485 0.53174,0.57444 0.53174,0.82132 0,0.24688 0.35718,0.78601 0.79375,1.19805 0.51566,0.4867 0.79375,1.00949 0.79375,1.49219 0,0.41638 0.17447,0.80996 0.39687,0.89531 0.44434,0.17051 0.54211,1.37083 0.13229,1.62411 -0.14552,0.0899 -0.26484,0.72204 -0.26516,1.40468 l -5.7e-4,1.24115 2.71255,-0.0887 c 3.90277,-0.12767 8.01421,0.8164 9.49613,2.1805 0.48914,0.45026 1.22204,0.99042 1.62868,1.20036 0.40663,0.20995 0.98388,0.81684 1.28277,1.34865 0.2989,0.53181 1.02113,1.37207 1.60495,1.86724 0.58383,0.49518 1.41005,1.22307 1.83606,1.61755 0.426,0.39447 1.45467,0.9228 2.28593,1.17405 0.83125,0.25125 1.75717,0.67264 2.05759,0.93642 0.30042,0.26377 0.6651,0.47959 0.8104,0.47959 0.31635,0 1.41555,1.17414 2.03477,2.1735 0.5588,0.90184 0.6125,4.85899 0.0895,6.5967 -0.50036,1.66256 0.1605,3.10202 1.43592,3.12763 0.23041,0.005 0.86021,0.4497 1.39956,0.98905 0.941,0.941 0.9868,0.95704 1.13329,0.39688 0.084,-0.32107 0.25783,-0.58376 0.38638,-0.58376 0.12855,0 0.23372,-0.1357 0.23372,-0.30156 0,-0.50976 0.88081,-1.0041 1.80484,-1.01294 0.98788,-0.009 1.63475,0.49186 1.63475,1.26692 0,0.3352 0.23775,0.57905 0.67045,0.68765 0.81551,0.20468 1.31084,1.19035 1.07347,2.13612 -0.25324,1.00896 -1.05794,0.78043 -1.16537,-0.33096 -0.0528,-0.54572 -0.22609,-0.85773 -0.47652,-0.85773 -0.21649,0 -0.5699,-0.4219 -0.78535,-0.93755 -0.51292,-1.2276 -1.11196,-1.44693 -1.71173,-0.62674 -0.25671,0.35104 -0.7158,0.92436 -1.02022,1.27404 -0.30441,0.34969 -0.55348,0.9331 -0.55348,1.29647 0,0.61329 -0.0549,0.58491 -0.76527,-0.39575 -0.9113,-1.25801 -2.0476,-2.19797 -2.65708,-2.19797 -0.24231,0 -0.55456,-0.114 -0.69389,-0.25332 -0.13933,-0.13933 -2.57416,-0.29801 -5.41073,-0.35262 -2.83657,-0.0546 -5.63366,-0.23294 -6.21574,-0.39629 -0.58208,-0.16335 -1.41552,-0.37676 -1.85208,-0.47423 -0.43657,-0.0975 -1.09141,-0.43263 -1.45521,-0.74479 -1.04684,-0.89822 -2.20882,-1.65711 -2.84782,-1.85993 -0.32375,-0.10275 -0.73975,-0.32785 -0.92444,-0.50022 -0.64302,-0.60009 -4.84212,-3.32476 -5.52273,-3.58353 -0.37694,-0.14331 -1.02938,-0.63658 -1.44987,-1.09615 -1.33958,-1.46409 -2.33053,-2.38059 -2.57397,-2.38059 -0.12998,0 -0.78805,-0.3939 -1.46239,-0.87533 -0.67434,-0.48144 -1.739315,-1.09809 -2.366625,-1.37035 -1.26746,-0.5501 -1.9958,-1.45251 -1.18386,-1.4668 0.63034,-0.0111 1.58441,-1.30069 1.15749,-1.56454 -0.38633,-0.23876 0.14725,-2.44443 0.76216,-3.15058 0.538785,-0.61873 1.010805,-1.3632 1.324885,-2.08959 0.14157,-0.32742 0.37941,-0.59531 0.52854,-0.59531 0.43679,0 0.27485,1.38722 -0.26254,2.24896 -0.85952,1.37828 -1.32487,2.33069 -1.19987,2.4557 0.15505,0.15505 0.93979,-0.62326 0.93979,-0.93209 0,-0.12869 0.35966,-0.57856 0.79925,-0.99972 0.43959,-0.42115 1.20147,-1.36616 1.69306,-2.10002 0.74453,-1.11145 0.91742,-1.65026 1.03523,-3.22626 0.13065,-1.74765 0.0999,-1.90282 -0.40256,-2.03423 -0.43894,-0.11478 -0.52063,-0.30141 -0.42303,-0.9664 0.0897,-0.61089 -0.005,-0.89138 -0.36446,-1.08394 -0.26697,-0.14288 -0.4892,-0.52349 -0.49382,-0.84579 -0.01,-0.67989 -0.5718,-1.51204 -1.02123,-1.51204 -0.18365,0 -0.28907,0.35022 -0.25883,0.85989 0.0892,1.50252 -0.78821,4.36991 -1.42351,4.65226 -0.10914,0.0485 -0.19844,0.25687 -0.19844,0.46302 0,0.20616 -0.11906,0.37483 -0.264575,0.37483 -0.14552,0 -0.26515,0.14883 -0.26585,0.33073 -6.9e-4,0.1819 -0.38765,0.76513 -0.85989,1.29606 -0.47225,0.53094 -1.21582,1.37601 -1.65238,1.87793 -0.43657,0.50193 -1.27,1.22107 -1.85209,1.59809 -0.58208,0.37702 -1.45723,1.04634 -1.94478,1.48739 -0.48755,0.44104 -1.30308,1.13297 -1.8123,1.53762 l -0.92586,0.73572 1.8123,0.16613 c 3.21376,0.29459 4.85502,0.56399 4.85502,0.79693 0,0.23002 -0.10471,0.25192 -1.65365,0.34587 -1.10057,0.0667 -6.61802,-0.53151 -8.00364,-0.86785 -0.99342,-0.24114 -2.21954,-0.64291 -3.43959,-1.12709 -0.29104,-0.1155 -1.00541,-0.26453 -1.5875,-0.33118 -0.58208,-0.0667 -1.29645,-0.18337 -1.587496,-0.25936 -0.29104,-0.076 -0.61846,-0.14728 -0.7276,-0.15841 -0.10914,-0.0111 -0.19844,-0.13931 -0.19844,-0.28483 0,-0.63713 4.614286,-0.17447 6.471166,0.64884 0.44268,0.19628 1.39735,0.49627 2.1215,0.66665 1.06658,0.25094 1.33768,0.24338 1.42753,-0.0398 0.1736,-0.5472 3.88754,-4.03199 5.58626,-5.24159 0.74794,-0.53257 3.70812,-4.26524 3.70812,-4.67577 0,-0.0991 0.19262,-0.393 0.42803,-0.65313 0.524765,-0.57986 1.722845,-3.92951 1.521825,-4.25477 -0.13711,-0.22184 0.35871,-1.54675 1.01872,-2.72227 0.16342,-0.29104 0.58711,-1.12448 0.94155,-1.85208 0.35444,-0.7276 0.79846,-1.62057 0.9867,-1.98438 0.18825,-0.3638 0.47995,-1.19724 0.64823,-1.85208 0.16828,-0.65484 0.57781,-1.78594 0.91007,-2.51354 0.33227,-0.72761 0.93488,-2.21589 1.33914,-3.30729 0.40427,-1.09141 0.8235,-2.2225 0.93164,-2.51354 0.45768,-1.23186 0.81187,-2.4797 0.76278,-2.68734 -0.0747,-0.31591 0.29742,-2.23812 0.55539,-2.86891 0.32612,-0.79744 0.73892,-2.50164 0.92928,-3.83646 0.0934,-0.65485 0.30277,-1.824 0.46528,-2.59812 0.27769,-1.32273 0.25051,-1.49344 -0.4513,-2.83488 -0.87081,-1.66444 -1.38095,-2.17278 -3.18213,-3.17086 -1.08067,-0.59882 -1.66812,-0.737 -3.20812,-0.75461 -1.03686,-0.0119 -2.04889,0.10959 -2.24895,0.2699 -0.20007,0.1603 -1.1972,0.73984 -2.215835,1.28786 -1.01865,0.54802 -2.03068,1.13561 -2.24896,1.30576 -0.36964,0.28812 -1.59111,0.9484 -4.49792,2.43139 -0.65484,0.33408 -1.4006,0.61115 -1.65724,0.6157 -0.25663,0.005 -0.67335,0.12173 -0.92604,0.2604 -1.41079,0.77422 -4.95722,2.39371 -5.24185,2.39371 -0.18307,0 -0.37254,0.0893 -0.42105,0.19843 -0.1525,0.34313 -2.06098,1.12448 -2.74659,1.12448 -0.36084,0 -0.862816,0.10847 -1.115496,0.24104 -1.11586,0.58541 -3.47841,1.59288 -4.69277,2.00114 -0.7276,0.24461 -1.56104,0.55039 -1.85208,0.6795 -1.09622,0.48629 -4.8576,1.1115 -7.40834,1.2314 -1.82016,0.0856 -2.99584,0.28262 -3.76743,0.63148 -0.61687,0.27891 -1.36263,0.50711 -1.65723,0.50711 -0.2946,0 -0.74239,0.10746 -0.99507,0.2388 -1.01249,0.52625 -2.91193,0.95067 -4.1636,0.93032 -0.7276,-0.0118 -4.29948,-0.15334 -7.9375,-0.31448 -6.03838,-0.26745 -7.84923,-0.44775 -10.00728,-0.99638 -0.71962,-0.18295 -0.74376,-0.15728 -0.66146,0.70353 0.084,0.87878 0.10492,0.89257 1.27603,0.84175 0.65485,-0.0284 1.6985,-0.1304 2.31924,-0.22663 0.82938,-0.12856 1.39058,-0.048 2.11667,0.30405 0.71427,0.34628 0.85975,0.50609 0.52503,0.57676 -0.5741,0.1212 -0.60281,0.55108 -0.0509,0.76285 0.22664,0.087 0.35294,0.31224 0.28067,0.50059 -0.0785,0.20458 0.18169,0.4516 0.64625,0.61355 1.50296,0.52394 0.79492,1.09237 -1.36064,1.09237 -0.94628,0 -1.30128,0.10226 -1.30128,0.37483 0,0.20615 -0.14883,0.4294 -0.33073,0.49609 -0.25254,0.0926 -0.25776,0.19893 -0.0221,0.44979 0.24377,0.25944 0.43506,0.21076 0.90979,-0.23152 0.46771,-0.43574 0.93888,-0.56002 2.12311,-0.56002 1.501,0 2.21072,0.32178 1.39777,0.63373 -0.22934,0.088 -0.69931,0.16002 -1.04436,0.16002 -0.34505,0 -0.93608,0.14066 -1.31339,0.31257 -0.89836,0.40932 -0.81375,1.36883 0.13195,1.49656 0.36381,0.0491 0.90092,0.31108 1.1936,0.58209 0.29268,0.27101 1.06658,0.57448 1.71979,0.67438 0.65321,0.0999 1.32339,0.28816 1.48929,0.41836 0.1659,0.13019 1.65418,0.20933 3.30729,0.17587 3.20935,-0.065 3.80805,0.11632 5.12059,1.55046 1.12481,1.22901 2.44978,1.70714 4.51736,1.63014 1.05994,-0.0395 2.1156,-0.20955 2.34591,-0.37796 0.36033,-0.26348 1.73742,-2.56568 1.73742,-2.90459 0,-0.0651 -0.47625,-0.1183 -1.05833,-0.1183 -0.58208,0 -1.05833,-0.11906 -1.05833,-0.26458 0,-0.14552 0.47625,-0.26458 1.05833,-0.26458 0.58208,0 1.05833,-0.11907 1.05833,-0.26459 0,-0.14552 0.23813,-0.26458 0.52917,-0.26458 0.29104,0 0.53053,-0.0893 0.5322,-0.19844 0.003,-0.17463 1.16037,-0.75957 2.77509,-1.40215 0.86188,-0.34298 11.14979,-1.18194 17.991666,-1.46719 2.96063,-0.12343 7.01146,-0.82565 7.01146,-1.21545 0,-0.11808 0.2311,-0.21469 0.51355,-0.21469 0.28245,0 0.58714,-0.11906 0.67707,-0.26458 0.0899,-0.14552 0.36486,-0.26574 0.61093,-0.26715 0.24607,-0.001 0.96447,-0.41362 1.59644,-0.91601 0.63196,-0.50238 1.39169,-0.99045 1.68828,-1.08458 0.67349,-0.21376 2.055175,-1.4259 2.064195,-1.81089 0.004,-0.15785 0.60161,-1.00137 1.3287,-1.87449 0.72709,-0.87313 1.46751,-1.91493 1.64537,-2.31511 0.31217,-0.70238 0.98796,-1.01328 0.98796,-0.45452 0,0.62335 -0.78983,2.06609 -1.87833,3.43108 -0.63825,0.80037 -1.34913,1.8032 -1.57974,2.22852 -0.2306,0.42532 -0.79334,0.97392 -1.25053,1.21911 -0.991445,0.53172 -2.795975,1.86883 -2.920215,2.16381 -0.0485,0.11517 -0.25687,0.2094 -0.46302,0.2094 -0.20616,0 -0.37483,0.10518 -0.37483,0.23374 0,0.12855 -0.26789,0.29865 -0.59531,0.378 -0.32742,0.0794 -1.27985,0.38476 -2.11651,0.6787 -0.83665,0.29394 -2.17201,0.56077 -2.96746,0.59295 -1.67623,0.0678 -1.62516,0.0403 -2.64261,1.4239 -0.42805,0.58208 -0.84442,1.11786 -0.92529,1.19062 -0.0809,0.0728 -0.57616,0.78714 -1.10065,1.5875 -0.52449,0.80037 -1.42953,1.94347 -2.01119,2.54023 -0.58165,0.59677 -1.13748,1.40347 -1.23516,1.79267 -0.0977,0.38921 -0.41271,0.94274 -0.70005,1.23008 -0.28734,0.28734 -0.52243,0.61295 -0.52243,0.72358 0,0.11063 -0.2679,0.5039 -0.59532,0.87393 -1.176046,1.3291 -1.784696,2.56936 -2.458786,5.01035 -0.26121,0.94588 -0.57387,1.8329 -0.69479,1.97114 -0.12092,0.13825 -0.21986,0.57771 -0.21986,0.97658 0,0.39887 -0.10484,0.79001 -0.23299,0.86921 -0.12814,0.0792 -0.29466,0.46662 -0.37004,0.86093 -0.11126,0.58204 0.0695,0.92221 0.9606,1.80799 2.02068,2.00855 3.340616,3.68013 3.097746,3.923 -0.322966,0.32297 -0.609536,0.0813 -3.794096,-3.20032 -0.92489,-0.95306 -1.12058,-0.73597 -1.7862,1.98152 -0.33784,1.37931 -1.28924,2.54626 -1.96916,2.4153 -0.44651,-0.086 -0.45637,-0.13789 -0.0948,-0.49941 0.51782,-0.51782 1.19543,-2.01834 1.37107,-3.03615 0.0753,-0.43656 0.28452,-1.3616 0.46486,-2.05564 0.26312,-1.01264 0.2604,-1.58752 -0.0137,-2.91042 -0.18789,-0.90669 -0.40167,-2.11693 -0.47506,-2.68942 -0.0734,-0.57249 -0.43405,-1.58453 -0.80145,-2.24896 -0.65659,-1.18743 -3.1608,-3.96821 -3.58426,-3.98011 -0.11885,-0.003 -0.5951,-0.27427 -1.05833,-0.60205 -1.1286,-0.79861 -1.66042,-1.11295 -3.22619,-1.90688 -1.22472,-0.621 -1.58747,-0.67085 -4.76615,-0.65494 -3.64764,0.0183 -4.41385,-0.1382 -5.49362,-1.12179 -1.90121,-1.73187 -1.67967,-1.6612 -4.10738,-1.31019 -1.91174,0.27641 -2.41711,0.46647 -3.63732,1.36789 -0.77941,0.57579 -1.49023,1.04688 -1.5796,1.04688 -0.30494,0 -0.89435,0.73124 -1.45239,1.80185 -0.30654,0.58812 -0.87735,1.27221 -1.26847,1.52019 -0.83398,0.52878 -2.16482,1.98467 -2.16571,2.36921 -6.3e-4,0.27029 -0.84595,1.23547 -1.75445,2.00322 -0.83227,0.70332 -2.09701,2.19996 -2.29492,2.71571 -0.10299,0.26839 -0.42478,0.55009 -0.71509,0.62601 -0.2903,0.0759 -0.52783,0.22468 -0.52783,0.33059 0,0.10591 -0.59531,0.87286 -1.32291,1.70433 -0.72761,0.83147 -1.32292,1.62391 -1.32292,1.76096 0,0.13705 -0.23813,0.24918 -0.52917,0.24918 -0.29104,0 -0.52916,-0.11906 -0.52916,-0.26458 0,-0.14552 0.10461,-0.26458 0.23248,-0.26458 0.12787,0 0.3921,-0.38535 0.58718,-0.85633 0.19509,-0.47097 1.04297,-1.54032 1.88419,-2.37633 0.84121,-0.83601 1.52948,-1.64512 1.52948,-1.79803 0,-0.15291 0.89513,-1.18483 1.98917,-2.29317 1.09405,-1.10833 1.93441,-2.06993 1.86747,-2.13687 -0.14217,-0.14216 -2.41643,1.6943 -4.09077,3.30328 -0.64021,0.61522 -1.36616,1.18274 -1.61321,1.26115 -0.24705,0.0784 -0.60743,0.43825 -0.80084,0.79964 -0.19341,0.36139 -0.45377,0.65707 -0.57858,0.65707 -0.23878,0 -1.81451,1.34955 -2.62589,2.24896 -0.26255,0.29104 -1.18475,1.30308 -2.04932,2.24896 -0.86458,0.94589 -2.54356,2.94018 -3.73107,4.43177 -1.18751,1.49159 -2.27057,2.71198 -2.40679,2.71198 -0.13622,0 -0.24767,0.1603 -0.24767,0.35623 0,0.47303 -0.72963,1.96462 -1.44356,2.95106 -0.73573,1.01657 -2.52519,4.76421 -2.52519,5.28847 0,0.22004 -0.11906,0.40008 -0.26459,0.40008 -0.14552,0 -0.26458,0.18493 -0.26458,0.41095 0,0.22603 -0.50923,1.20829 -1.13161,2.18281 -0.62239,0.97452 -1.3337,2.21595 -1.58068,2.75872 -0.54931,1.20715 -3.06294,4.70168 -3.38194,4.70168 -0.12702,0 -0.42244,0.40357 -0.6565,0.89681 -0.52664,1.10979 -1.72152,2.19752 -2.9969304,2.72816 -0.53238,0.2215 -2.00821,1.09758 -3.27961,1.94684 -1.27141,0.84927 -2.81922,1.78024 -3.43958,2.06883 -0.62037,0.28859 -1.72324996,1.06943 -2.45085996,1.73522 -0.72760004,0.66578 -1.65034004,1.35795 -2.05052004,1.53816 -0.40018,0.18021 -0.7276,0.47719 -0.7276,0.65995 0,0.18275 -0.11906,0.33228 -0.26459,0.33228 -0.14552,0 -0.26458,0.15005 -0.26458,0.33344 0,0.18338 -0.26789,0.63618 -0.59531,1.00621 -0.6453,0.72927 -1.20693,1.54747 -1.35063,1.96764 -0.0498,0.14553 -0.24462,0.68131 -0.43298,1.19063 -0.20098,0.54343 -0.3929,2.64401 -0.46451,5.08402 -0.15504,5.28274 0.16369,6.52701 2.16327,8.44513 1.7819,1.70931 2.15155,1.68383 1.47297,-0.10155 -0.29038,-0.76398 -0.52802,-1.72431 -0.52809,-2.13406 -8e-5,-0.40975 -0.12312,-0.9748 -0.27344,-1.25567 -0.38292,-0.7155 -0.40261,-8.40945 -0.0225,-8.78957 0.16269,-0.16269 0.2958,-0.5143 0.2958,-0.78136 0,-0.52319 0.6587,-1.67728 1.32359,-2.31902 0.62857,-0.60669 2.11599004,-2.56467 2.11599004,-2.78542 0,-0.23239 1.37453996,-1.44713 1.63802996,-1.44759 0.38846,-6.9e-4 0.47124,0.50696 0.11594,0.71102 -0.2056,0.11808 -0.69903,0.81001 -1.09650996,1.53761 -0.39748,0.72761 -1.00567,1.62709 -1.35153,1.99885 -0.34587004,0.37177 -0.62885004,0.81825 -0.62885004,0.99219 0,0.17394 -0.09,0.31625 -0.19999,0.31625 -0.2022,0 -0.46615,0.5369 -1.26746,2.57809 -0.32975,0.83999 -0.40806,1.63988 -0.31081,3.175 0.20038,3.16331 0.83855,6.6906 1.52014,8.40212 0.11591,0.29104 0.41076,1.18401 0.65523004,1.98438 0.24447,0.80036 0.62676,1.65913 0.84953,1.90837 0.22277,0.24924 0.33243,0.64238 0.24369,0.87364 -0.0887,0.23126 -0.0566,0.35574 0.0714,0.27663 0.12801,-0.0791 0.66212,0.33142 1.18690996,0.9123 0.52478,0.58088 1.06104,1.05614 1.19167,1.05614 0.13064,0 0.81197,0.54262 1.51407,1.20582 0.7021,0.66319 1.66709,1.39113 2.14442,1.61764 0.47733,0.22651 0.86787,0.57686 0.86787,0.77856 0,0.46573 -0.31787,0.46212 -1.4637,-0.0166 -1.08867,-0.45488 -1.15034,-0.33628 -0.25609,0.49249 0.36381,0.33716 0.66146,0.73827 0.66146,0.89136 0,0.15309 0.0899,0.31803 0.19966,0.36654 0.10981,0.0485 0.73405,0.92163 1.3872,1.94027 0.65315,1.01865 1.39674,2.0829 1.65243,2.365 0.25568,0.2821 0.46488,0.5948 0.46488,0.6949 0,0.1001 0.4762504,0.68767 1.0583304,1.30573 0.58208,0.61805 1.05833,1.26793 1.05833,1.44416 0,0.17624 0.89297,1.24885 1.98438,2.38359 1.09141,1.13474 1.98438,2.17232 1.98438,2.30573 0,0.13342 0.70832,0.92132 1.57405,1.7509 0.86574,0.82958 1.75698,1.94685 1.98054,2.48282 0.22356,0.53597 0.62859,1.13128 0.90008,1.32292 0.27148,0.19163 0.68065,0.71151 0.90925,1.15528 0.42099,0.81724 2.38834,1.96551 4.02878,2.35146 0.43657,0.10271 1.15094,0.53324 1.5875,0.95672 0.43657,0.42349 1.39328,1.33772 2.12603,2.03163 1.38577,1.31233 3.29793,3.77744 3.29793,4.25163 0,0.15027 0.14883,0.33328 0.33073,0.40668 0.20643,0.0833 0.16516,0.1413 -0.1098,0.15434 -0.2423,0.0115 -0.92691,-0.53166 -1.52136,-1.20699 z m -11.25376,-9.34134 c -0.40791,-0.42576 -0.87548,-0.99585 -1.03904,-1.26685 -1.01876,-1.68791 -1.41822,-2.17779 -2.22855,-2.73303 -0.49827,-0.34143 -1.10103,-0.92065 -1.33948,-1.28717 -0.23844,-0.36652 -1.23721,-1.49237 -2.21947,-2.5019 -0.98227,-1.00953 -1.78594,-2.03459 -1.78594,-2.27791 0,-0.24332 -0.35949,-0.78966 -0.79887,-1.2141 -1.2679704,-1.22485 -2.6407104,-3.17595 -2.6407104,-3.75328 0,-0.29119 -0.29766,-0.72446 -0.66146,-0.96284 -0.3638,-0.23837 -0.66146,-0.60925 -0.66146,-0.82418 0,-0.21492 -0.092,-0.39077 -0.20442,-0.39077 -0.11242,0 -0.43985,-0.44649 -0.7276,-0.99219 -0.28775,-0.5457 -0.73155,-1.223 -0.98621,-1.5051 -0.25466,-0.2821 -0.46302,-0.78397 -0.46302,-1.11527 0,-0.68588 -1.45379,-2.47286 -2.01178,-2.47286 -0.20321,0 -0.36947,-0.13891 -0.36947,-0.30868 0,-0.16977 -0.0645,-0.24417 -0.14336,-0.16532 -0.16236,0.16236 0.42369,1.81929 1.33745,3.78129 0.79183,1.70023 1.30395,2.92739 1.73903,4.16719 0.1915,0.5457 0.43531,0.99219 0.54179,0.99219 0.10648,0 0.26932,0.23857 0.36186,0.53016 0.0926,0.29159 0.75542,1.13296 1.47304,1.86972 0.71763,0.73675 1.30477,1.43659 1.30477,1.55518 0,0.1186 0.83344,1.06072 1.8520904,2.09361 1.33191,1.35053 1.85208,2.07023 1.85208,2.56251 0,0.3765 0.29766,1.07479 0.66146,1.55176 0.3638,0.47697 0.66146,1.0048 0.66146,1.17297 0,0.16817 0.11906,0.30576 0.26458,0.30576 0.14552,0 0.26855,0.14882 0.27339,0.33072 0.0119,0.44826 0.75751,1.28628 1.66514,1.8716 0.41135,0.26527 1.04429,0.74147 1.40654,1.05822 0.563,0.4923 3.07642,1.04494 3.51481,0.77283 0.0621,-0.0386 -0.22074,-0.4185 -0.62865,-0.84426 z M -1.9099314,607.87904 c -0.46722,-0.56297 -0.61926,-0.2744 -0.20495,0.38901 0.1915,0.30665 0.3896,0.4333 0.44022,0.28145 0.0506,-0.15185 -0.0553,-0.45356 -0.23527,-0.67046 z M 125.63191,569.52974 c 0.49366,-0.50932 1.0528,-0.92604 1.24253,-0.92604 0.46036,0 0.43889,0.66204 -0.0369,1.13782 -0.33277,0.33277 -0.22596,0.40324 0.83068,0.54806 2.02807,0.27798 3.14744,0.21704 2.7791,-0.1513 -0.36761,-0.36761 -0.43234,-2.75529 -0.0806,-2.97269 0.1303,-0.0805 0.32107,-1.09712 0.42392,-2.25908 l 0.18702,-2.11267 -1.13527,-1.83975 c -1.12344,-1.82061 -1.54545,-2.12921 -2.92142,-2.13636 -0.87305,-0.005 -2.60293,-0.71574 -3.13519,-1.28896 -0.75826,-0.81661 -3.18098,-2.71533 -3.18098,-2.49298 0,0.12206 0.23759,0.39317 0.52798,0.60247 0.29038,0.20929 0.60153,0.77267 0.69145,1.25195 0.0899,0.47928 0.26904,0.93666 0.39807,1.0164 0.33437,0.20666 0.29178,3.75134 -0.0476,3.96109 -0.40411,0.24976 -0.48678,0.0946 -0.64987,-1.21999 -0.29298,-2.36151 -1.46658,-5.49057 -2.46052,-6.56023 -0.20065,-0.21594 -0.28313,-0.6424 -0.1934,-0.99994 0.0861,-0.34288 0.0393,-0.62343 -0.10394,-0.62343 -0.14323,0 -0.65152,-0.33049 -1.12952,-0.73444 -1.84485,-1.559 -4.30054,-2.18602 -10.30636,-2.63153 -1.72726,-0.12813 -1.77262,-0.11499 -2.15873,0.62536 -0.21692,0.41593 -1.03031,1.41636 -1.80754,2.22317 -0.77723,0.80681 -1.77033,1.93618 -2.20689,2.50971 -0.43657,0.57353 -1.05765,1.29258 -1.380185,1.59789 -0.44674,0.42287 -0.51291,0.62862 -0.27781,0.86373 0.16974,0.16974 0.44733,0.30862 0.616865,0.30862 0.16953,0 1.00892,0.47596 1.86531,1.0577 0.85639,0.58173 1.70589,1.05798 1.88779,1.05833 0.18191,3.5e-4 0.33073,0.10581 0.33073,0.23436 0,0.12855 0.23753,0.29584 0.52784,0.37175 0.2903,0.0759 0.61135,0.3577 0.71342,0.62617 0.27248,0.71665 2.23367,2.47252 2.76163,2.47252 0.24994,0 0.79099,0.27117 1.20233,0.60261 0.41135,0.33144 1.43816,1.05077 2.2818,1.59853 0.84364,0.54775 1.60052,1.16954 1.68195,1.38176 0.0814,0.21222 0.3312,0.38585 0.55504,0.38585 0.61695,0 2.64466,1.36527 2.99222,2.01469 0.24655,0.46068 0.6257,0.60302 1.93121,0.72502 0.89344,0.0835 2.16022,0.26022 2.81506,0.39272 2.38025,0.48163 2.995,0.38577 3.96875,-0.61889 z m -6.68723,-9.3328 c -0.22438,-0.25123 -0.49524,-1.17116 -0.60191,-2.04428 -0.11844,-0.96946 -0.43691,-1.94619 -0.81803,-2.50882 -0.34324,-0.50672 -0.62408,-1.12477 -0.62408,-1.37345 0,-0.24867 -0.11906,-0.52571 -0.26458,-0.61565 -0.43395,-0.2682 -0.32229,-1.71979 0.13229,-1.71979 0.21828,0 0.39688,0.16894 0.39688,0.37543 0,0.34701 0.75489,1.9663 1.05833,2.2702 0.64582,0.6468 1.10844,2.12934 1.49716,4.79788 0.16172,1.11019 -0.18703,1.478 -0.77606,0.81848 z M 18.505709,555.34736 c 0.78384,-0.16046 2.1899,-0.42835 3.12456,-0.59531 2.13662,-0.38166 2.38946,-0.87821 0.57008,-1.11956 -0.89369,-0.11855 -1.55038,-0.38916 -1.9751,-0.81387 -0.57156,-0.57156 -0.6775,-0.59504 -1.04173,-0.2308 -0.22301,0.223 -0.58554,0.40546 -0.80562,0.40546 -0.22009,0 -0.47375,0.11906 -0.56368,0.26459 -0.24586,0.3978 -3.38861,0.32464 -3.95861,-0.0922 -0.71052,-0.51955 -0.27151,-1.01332 0.73809,-0.83016 0.4616,0.0837 1.72559,-0.0177 2.80888,-0.22537 1.81244,-0.34749 2.11306,-0.33787 3.76697,0.12045 2.53083,0.70133 3.19822,0.65069 4.16494,-0.31603 0.44776,-0.44776 0.8141,-0.93691 0.8141,-1.087 0,-0.1501 0.8632,-1.15825 1.91823,-2.24034 1.05503,-1.08209 2.38665,-2.48268 2.95917,-3.11242 0.57252,-0.62974 1.43322,-1.35624 1.91267,-1.61444 0.47946,-0.25821 0.94179,-0.69019 1.02741,-0.95996 0.0856,-0.26977 0.25822,-0.49049 0.38354,-0.49049 0.12532,0 0.38518,-0.15054 0.57748,-0.33454 0.19229,-0.18399 0.88332,-0.74954 1.53562,-1.25677 0.6523,-0.50723 1.48574,-1.18095 1.85209,-1.49717 0.36634,-0.31621 1.14233,-0.98482 1.72442,-1.4858 0.58208,-0.50098 1.92153,-1.46187 2.97656,-2.13531 1.05503,-0.67344 1.91823,-1.39776 1.91823,-1.60959 0,-0.21183 0.44648,-0.71795 0.99219,-1.12471 0.5457,-0.40676 1.05171,-0.81455 1.12448,-0.90621 0.0728,-0.0917 0.52025,-0.40121 0.99444,-0.68791 l 0.86214,-0.52126 -1.12673,-0.48992 c -0.6197,-0.26945 -1.44277,-0.70471 -1.82903,-0.96724 -0.39957,-0.27157 -1.17818,-0.47732 -1.80629,-0.47732 -0.88318,0 -1.26901,-0.16502 -1.92901,-0.82502 l -0.82501,-0.82502 -0.48794,0.62658 c -0.26837,0.34462 -0.77339,0.98377 -1.12228,1.42033 -1.48674,1.86035 -1.72613,2.22076 -1.72613,2.59871 0,0.21921 -0.38695,0.80214 -0.85989,1.29539 -0.47295,0.49325 -1.89998,2.27459 -3.17119,3.95854 -1.27122,1.68394 -2.64044,3.27697 -3.04271,3.54005 -0.40228,0.26308 -0.89842,0.64475 -1.10254,0.84817 -0.20412,0.20341 -0.99913,0.83378 -1.76669,1.40081 -0.76757,0.56703 -1.47079,1.15267 -1.56273,1.30142 -0.0919,0.14875 -0.45777,0.27045 -0.81299,0.27045 -0.35521,0 -0.64584,0.11907 -0.64584,0.26459 0,0.14552 -0.12143,0.26458 -0.26984,0.26458 -0.14842,0 -0.76154,0.32742 -1.3625,0.72761 -1.62732,1.08364 -1.60373,1.07023 -2.601,1.47776 -1.9073,0.77941 -2.56379,0.94256 -4.49791,1.11784 -1.10294,0.1 -2.27819,0.3719 -2.64584,0.61224 -1.12633,0.73632 -3.57,1.75736 -4.9720004,2.07745 -1.17994,0.26939 -0.40445,0.73421 1.3550704,0.81221 1.62658,0.0721 2.14633,0.31623 1.51024,0.70935 -0.15966,0.0987 -0.14382,0.40049 0.0425,0.80937 0.22651,0.49713 0.50015,0.65201 1.15197,0.65201 0.68246,0 0.88713,0.12847 1.01476,0.63697 0.10983,0.43758 0.30516,0.60192 0.62399,0.52497 0.25527,-0.0616 0.82132,-10e-4 1.25788,0.13403 1.07608,0.33356 1.17771,0.33355 2.80816,-2.3e-4 z m 58.70747,-11.21762 c 0,-0.34663 0.11906,-0.70381 0.26458,-0.79375 0.27159,-0.16786 0.37884,-1.45521 0.12123,-1.45521 -0.0789,0 -0.36893,0.21015 -0.64462,0.467 -0.39643,0.36933 -0.46999,0.7002 -0.35171,1.58204 0.15519,1.157 0.61052,1.3061 0.61052,0.19992 z m -0.26459,-3.175 c 0.34178,-0.3638 0.77049,-0.66146 0.95271,-0.66146 0.18221,0 0.65987,-0.6716 1.06148,-1.49245 0.4016,-0.82085 1.00567,-1.76794 1.34238,-2.10464 0.3367,-0.33671 0.61218,-0.68508 0.61218,-0.77416 0,-0.0891 0.28009,-0.54098 0.622426,-1.00422 1.48227,-2.00576 0.67321,-1.51027 -1.745746,1.06914 -1.31987,1.40742 -2.54541,1.71724 -3.62767,0.91709 l -0.73842,-0.54594 -0.7294,0.76134 c -0.68021,0.70998 -0.69972,0.79102 -0.2893,1.20144 0.56083,0.56083 1.48103,2.35515 1.48103,2.8879 0,0.58641 0.34702,0.50311 1.05833,-0.25404 z m -2.7321,-4.78447 c 0.46088,-0.46088 0.86273,-0.63654 1.23405,-0.53944 0.39895,0.10433 0.74688,-0.09 1.26311,-0.70563 0.39187,-0.4673 0.78697,-0.77684 0.87799,-0.68788 0.21901,0.21402 -0.32591,1.6251 -0.72575,1.87934 -0.17544,0.11155 0.10421,0.20156 0.63331,0.20382 0.76828,0.003 1.01848,-0.13356 1.32291,-0.72355 0.20649,-0.40019 0.64397,-0.94511 0.97218,-1.21095 0.32821,-0.26585 0.74588,-0.63249 0.92817,-0.81478 0.18228,-0.18228 0.687656,-0.50216 1.123046,-0.71084 0.98491,-0.47206 1.07119,-1.19674 0.13017,-1.09339 -0.36381,0.04 -1.075026,0.0808 -1.580486,0.0907 -0.50547,0.01 -1.45797,0.32103 -2.11667,0.69138 -1.61027,0.90538 -4.46959,1.14696 -5.70441,0.48196 -0.46982,-0.25301 -1.01479,-0.77632 -1.21105,-1.16292 -0.62503,-1.23118 -1.60847,-2.42269 -1.99963,-2.42269 -0.20824,0 -0.74532,-0.18962 -1.1935,-0.42139 -0.76023,-0.39313 -0.84706,-0.38869 -1.29447,0.0661 -0.26377,0.26814 -0.83368,1.20191 -1.26648,2.07504 l -0.7869,1.5875 1.28974,0.19467 c 0.75932,0.11461 1.88751,0.57707 2.74325,1.12448 0.79944,0.51139 1.52961,0.9298 1.62261,0.9298 0.093,0 0.65593,0.41672 1.25096,0.92605 1.29323,1.10696 1.59416,1.1363 2.48785,0.24261 z m 1.29012,-4.02473 c 0.13825,-0.11563 0.96573,-0.43433 1.83886,-0.70821 0.87312,-0.27389 1.70061,-0.596 1.83885,-0.71581 0.13825,-0.1198 1.04646,-0.21782 2.01825,-0.21782 1.529466,0 1.819076,0.0786 2.155226,0.58486 l 0.38833,0.58486 0.90071,-1.01668 c 0.49539,-0.55917 1.13883,-1.31872 1.42988,-1.68789 0.29104,-0.36917 0.87801,-1.07817 1.30438,-1.57557 l 0.77521,-0.90435 -3.42105,0.17482 c -1.88157,0.0961 -4.067986,0.2851 -4.858696,0.41988 -0.79071,0.13479 -2.45758,0.2454 -3.70416,0.24581 -2.46578,8.1e-4 -6.66205,0.44726 -7.53879,0.80206 -0.48806,0.19751 -0.46543,0.22384 0.2052,0.23876 1.17676,0.0262 2.39083,0.73186 2.90649,1.68938 0.49046,0.91072 2.35286,2.29614 3.08667,2.29614 0.23281,0 0.5364,-0.0946 0.67464,-0.21024 z m -33.78825,-8.25648 0.7938,-0.7938 -0.61624,-0.15467 c -1.03958,-0.26092 -2.43442,0.94407 -1.81261,1.56588 0.35159,0.35159 0.85684,0.16079 1.63505,-0.61741 z m -2.27965,-1.32286 0.568,-0.52917 h -0.71135 c -0.53496,0 -0.71135,0.13121 -0.71135,0.52917 0,0.29104 0.0645,0.52916 0.14335,0.52916 0.0789,0 0.39896,-0.23812 0.71135,-0.52916 z m 17.77964,-2.88876 c 0.44689,-0.13361 1.7055,-0.42369 2.79691,-0.64462 6.04775,-1.22423 6.4113,-1.33254 5.90133,-1.75825 -0.26256,-0.21917 -0.96709,-1.05297 -1.56564,-1.85291 -1.61265,-2.15524 -4.24514,-4.92717 -5.29626,-5.5768 -1.95151,-1.2061 -4.75409,-1.24389 -6.00821,-0.081 -0.37457,0.34733 -0.78562,0.6315 -0.91344,0.6315 -0.66954,0 -3.20295,3.74332 -3.71522,5.48954 -0.18134,0.61815 -0.53939,1.33252 -0.79567,1.5875 -0.25628,0.25497 -0.67105,0.79101 -0.9217,1.19119 l -0.45572,0.72761 h 3.69363 3.69363 l -0.14952,-0.92136 c -0.11772,-0.72543 -0.0498,-0.95962 0.31948,-1.10132 0.62637,-0.24036 1.18623,0.55084 1.18623,1.67637 0,0.77305 0.0829,0.87547 0.70881,0.87547 0.38986,0 1.07446,-0.10931 1.52136,-0.24292 z m 14.08651,116.85803 c -1.80149,-3.53105 -2.9215,-5.60303 -3.11072,-5.75468 -0.0908,-0.0728 -0.25234,-0.60644 -0.35903,-1.18594 -0.10668,-0.57951 -0.42151,-1.52461 -0.69962,-2.10022 -0.27811,-0.57561 -0.50565,-1.14385 -0.50565,-1.26276 0,-0.1189 -0.29765,-0.83319 -0.66146,-1.58732 -0.3638,-0.75412 -0.66145,-1.52906 -0.66145,-1.72208 0,-0.19302 -0.10851,-0.55769 -0.24113,-0.81038 -0.67975,-1.29517 -1.30244,-3.65295 -1.76343,-6.67714 -0.18855,-1.23693 -0.47096,-2.84427 -0.62758,-3.57187 -0.64639,-3.00284 -0.86073,-5.98442 -0.71956,-10.00912 0.0808,-2.30356 0.25857,-4.32762 0.39504,-4.49792 0.13646,-0.1703 0.31207,-0.72635 0.39023,-1.23567 0.0782,-0.50933 0.3397,-1.64042 0.58119,-2.51354 0.24148,-0.87313 0.50451,-1.88516 0.58451,-2.24896 0.08,-0.36381 0.42788,-1.04047 0.77308,-1.5037 0.34521,-0.46324 0.62765,-0.97497 0.62765,-1.13719 0,-0.16222 0.44588,-0.97384 0.99086,-1.80359 0.54497,-0.82976 1.13315,-1.89299 1.30705,-2.36273 0.32013,-0.86471 0.48236,-1.10034 1.67084,-2.42667 1.35757,-1.51505 1.85208,-2.15401 1.85208,-2.39309 0,-0.13522 1.01203,-1.28326 2.24896,-2.55121 1.87837,-1.92547 2.24896,-2.20325 2.24896,-1.68579 0,0.41262 -0.56932,1.17779 -1.70448,2.29083 -0.93746,0.9192 -2.03388,2.27652 -2.4365,3.01626 -0.40262,0.73974 -0.97566,1.54242 -1.27343,1.78374 -0.59924,0.48564 -1.15259,1.29252 -2.1682,3.16163 -1.26861,2.33471 -3.13228,6.04029 -3.42954,6.81906 -0.38345,1.00455 -1.16272,5.29131 -1.16044,6.3836 9.6e-4,0.46436 -0.11731,0.91787 -0.26283,1.00781 -0.34236,0.21159 -0.34812,6.37285 -0.007,7.86755 0.26166,1.14771 0.68544,3.97705 1.06067,7.0814 0.29131,2.41009 1.56059,6.70244 2.76626,9.35475 0.52061,1.14526 1.20751,3.2813 1.20751,3.75497 0,0.21517 0.10708,0.59796 0.23797,0.85065 0.86333,1.66674 2.92917,6.11974 3.07159,6.62092 0.0946,0.33289 0.45877,1.10679 0.80927,1.71979 0.35051,0.613 0.63873,1.26338 0.64048,1.44528 0.008,0.81326 -0.5142,0.15231 -1.6718,-2.11667 z m -14.31731,-12.42814 c -0.22653,-0.32342 -0.41187,-0.85218 -0.41187,-1.17501 0,-0.32283 -0.11907,-0.66056 -0.26459,-0.75049 -0.14552,-0.0899 -0.26458,-0.5153 -0.26458,-0.94525 0,-0.42995 -0.11271,-0.98847 -0.25047,-1.24116 -0.13776,-0.25268 -0.44391,-1.11427 -0.68035,-1.91464 -0.23644,-0.80036 -0.52558,-1.69333 -0.64254,-1.98437 -0.20538,-0.51104 -0.88866,-3.39671 -1.19033,-5.02708 -0.521,-2.81568 -0.90267,-8.58289 -0.67304,-10.1699 0.13819,-0.955 0.25361,-2.29487 0.25649,-2.97751 0.003,-0.68264 0.10728,-1.30422 0.23201,-1.38131 0.12472,-0.0771 0.2932,-0.78391 0.37441,-1.57074 0.0812,-0.78683 0.26693,-1.65352 0.41271,-1.92599 0.14578,-0.27246 0.46455,-1.17978 0.70839,-2.01625 0.24383,-0.83648 0.55138,-1.58764 0.68344,-1.66926 0.13206,-0.0816 0.24011,-0.432 0.24011,-0.77863 0,-0.34662 0.11906,-0.70381 0.26459,-0.79375 0.14552,-0.0899 0.26458,-0.5174 0.26458,-0.94992 0,-0.78234 0.77578,-2.48761 3.41,-7.49563 1.52818,-2.90529 2.29598,-4.08958 2.97166,-4.58361 0.2476,-0.18104 0.81233,-0.89541 1.25496,-1.5875 1.1523,-1.80172 1.41381,-2.08255 2.15398,-2.31306 0.36324,-0.11312 1.03351,-0.5865 1.48949,-1.05196 0.88324,-0.90159 2.37539,-1.65624 2.6775,-1.35413 0.10026,0.10026 0.01,0.28875 -0.2005,0.41887 -1.78241,1.10159 -5.55501,4.42364 -5.55501,4.8916 0,0.17711 -0.26789,0.61352 -0.59531,0.96978 -0.99039,1.07765 -2.05052,2.55185 -2.05052,2.85145 0,0.15523 -0.10289,0.28224 -0.22864,0.28224 -0.12575,0 -0.44366,0.56554 -0.70646,1.25677 -0.42825,1.12635 -1.02564,2.34586 -1.91177,3.9026 -0.76758,1.3485 -1.87145,4.07022 -2.03887,5.02708 -0.10185,0.58209 -0.33724,1.41553 -0.52309,1.85209 -0.18585,0.43656 -0.53959,1.50812 -0.78608,2.38125 -0.24649,0.87312 -0.54899,1.82562 -0.67223,2.11667 -0.99197,2.34271 -1.26671,11.53728 -0.47434,15.875 0.62195,3.40483 1.19126,5.81501 1.61062,6.81868 0.20005,0.4788 0.45156,1.57355 0.55892,2.43278 0.10735,0.85923 0.46969,2.37361 0.8052,3.36528 0.61405,1.81499 0.51411,2.30374 -0.24847,1.21501 z m 91.530821,-13.67734 c -0.7276,-0.0924 -1.72816,-0.37326 -2.22346,-0.6242 -0.4953,-0.25094 -1.26921,-0.45699 -1.71979,-0.45789 -0.45059,-8.9e-4 -1.1169,-0.16336 -1.4807,-0.36104 -0.36381,-0.19768 -1.28024,-0.68683 -2.03652,-1.087 -0.75627,-0.40017 -1.82784,-1.13058 -2.38125,-1.62312 -0.5534,-0.49255 -1.2218,-0.89564 -1.48533,-0.89575 -0.26353,-1.1e-4 -1.2607,-0.77411 -2.21594,-1.72 -0.95524,-0.94588 -1.87617,-1.71979 -2.04652,-1.71979 -0.17035,0 -0.95912,-0.7297 -1.75282,-1.62156 -0.7937,-0.89185 -1.60118,-1.75506 -1.79442,-1.91823 -1.27589,-1.07739 -1.89762,-1.71053 -1.89762,-1.93244 0,-0.14056 -0.77391,-1.00281 -1.71979,-1.9161 -0.94589,-0.91329 -1.7198,-1.81034 -1.7198,-1.99343 0,-0.18309 -0.75378,-1.09788 -1.67506,-2.03287 -0.92129,-0.93498 -1.99782,-2.2507 -2.39229,-2.92381 -0.39447,-0.6731 -0.88579,-1.28852 -1.09184,-1.36759 -0.20604,-0.0791 -1.02224,-1.01263 -1.81377,-2.07459 -2.47592,-3.32185 -7.81298,-8.39339 -9.74139,-9.25676 -0.55597,-0.24892 -1.51729,-0.79636 -2.13627,-1.21655 -2.98808,-2.02842 -6.126605,-2.95449 -10.039485,-2.96231 -1.33792,-0.003 -2.3724,-0.12257 -2.47385,-0.28672 -0.20196,-0.32678 4.15852,-0.18772 7.15459,0.22816 2.287805,0.31757 4.474475,1.16344 6.110385,2.36369 0.4503,0.33038 0.88652,0.60069 0.96938,0.60069 0.24427,0 -5.91097,-6.13195 -7.239305,-7.21193 -1.00277,-0.81526 -1.42725,-0.99015 -2.4033,-0.99015 -1.38697,0 -1.70917,-0.20848 -1.07107,-0.69303 0.4991,-0.37899 2.38203,-0.48024 2.89281,-0.15554 1.113685,0.70795 8.005275,7.28829 8.850565,8.45084 0.19646,0.2702 1.1311,1.11297 2.07699,1.87283 2.31292,1.85804 2.69286,2.23813 2.41306,2.41397 -0.13081,0.0822 -0.0724,0.30299 0.12976,0.49063 0.21193,0.1967 0.36759,0.22471 0.36759,0.0662 0,-0.33155 0.96856,-0.36975 1.16859,-0.0461 0.0778,0.12591 0.56222,0.2972 1.07646,0.38065 0.51424,0.0834 1.26127,0.37865 1.66007,0.656 0.3988,0.27735 1.61806,0.71624 2.70947,0.9753 1.0914,0.25907 2.25745,0.59812 2.59122,0.75346 0.78953,0.36746 6.35098,0.3661 7.35146,-0.002 0.42512,-0.15633 1.45615,-0.50106 2.29119,-0.76608 1.80827,-0.57389 3.37654,-1.95381 3.37654,-2.97101 0,-0.50692 0.0772,-0.60705 0.29774,-0.38646 0.83126,0.83126 -0.706,3.36102 -2.51647,4.14117 -1.84179,0.79365 -2.32716,0.95859 -2.8208,0.95859 -0.6993,0 -0.65158,0.36758 0.0999,0.76978 0.72796,0.38959 1.50001,1.60455 1.50001,2.36052 0,0.33598 0.31051,0.69001 0.8344,0.95137 0.45892,0.22894 0.87086,0.41625 0.91542,0.41625 0.0446,0 0.22867,-0.50602 0.40914,-1.12448 0.69522,-2.3826 1.59161,-3.30973 2.48396,-2.56914 0.56683,0.47043 0.46808,0.7832 -0.24726,0.7832 -0.66583,0 -0.81723,0.37587 -1.11899,2.77813 -0.0985,0.78394 -0.0613,0.95543 0.14323,0.66146 0.15189,-0.21828 0.27799,-0.66851 0.28022,-1.00049 0.002,-0.33199 0.18619,-0.67352 0.40881,-0.75894 0.25591,-0.0982 0.3465,-0.33888 0.24634,-0.65446 -0.21925,-0.69078 0.56179,-0.9427 1.18213,-0.38129 0.54425,0.49253 0.45648,1.34924 -0.16257,1.58679 -0.31964,0.12266 -0.26563,0.30354 0.2866,0.95984 0.64823,0.77037 0.66009,0.8398 0.25018,1.4654 -0.94726,1.44571 -1.98707,1.50839 -3.19242,0.19246 -0.65199,-0.71181 -1.1527,-0.99877 -1.87087,-1.0722 -0.53933,-0.0552 -1.09372,-0.2131 -1.23196,-0.35099 -0.13825,-0.13789 -0.53317,-0.25071 -0.87761,-0.25071 -0.61,0 -0.60175,0.0299 0.3175,1.15173 0.51906,0.63345 0.94375,1.27556 0.94375,1.4269 0,0.623 1.6412,0.80843 8.26844,0.93423 1.70998,0.0325 3.10714,0.11855 3.1048,0.19131 -0.0238,0.73989 -1.67034,1.32292 -3.73601,1.32292 -1.63384,0 -3.93306,-0.4961 -3.93306,-0.84863 0,-0.11534 -0.44649,-0.20695 -0.99219,-0.20357 l -0.99219,0.006 1.24882,1.19153 c 0.92914,0.88652 1.40324,1.15975 1.85208,1.06739 0.3318,-0.0683 1.43671,-0.27034 2.45535,-0.44903 1.01865,-0.17869 1.9652,-0.42365 2.10344,-0.54435 0.13825,-0.12071 0.44738,-0.21947 0.68696,-0.21947 0.7048,0 2.04939,-0.77266 2.63075,-1.51173 0.55237,-0.70222 0.50939,-1.21735 -0.0545,-0.65345 -0.57662,0.57662 -1.12334,0.31599 -2.69398,-1.28426 -1.55433,-1.58361 -2.13611,-1.84591 -3.26797,-1.47335 -0.83368,0.2744 -0.79338,-0.43804 0.0503,-0.88958 1.05676,-0.56556 2.142,-0.15075 3.77385,1.44249 l 1.49726,1.46182 0.70562,-0.72878 c 0.3881,-0.40084 0.84277,-0.98885 1.01038,-1.30671 0.32841,-0.62277 0.42475,-3.04967 0.10227,-2.57635 -0.10691,0.15692 -0.57639,0.47274 -1.04327,0.70183 -0.733,0.35966 -0.89166,0.36499 -1.16219,0.039 -0.17231,-0.20763 -0.26656,-0.40439 -0.20944,-0.43725 0.0571,-0.0329 0.33489,-0.18732 0.61727,-0.34324 0.68202,-0.37658 1.10684,-1.64322 0.68916,-2.05477 -0.23778,-0.23429 -0.39946,-0.18934 -0.67852,0.18863 -0.21222,0.28745 -0.53866,0.43008 -0.77593,0.33903 -0.53478,-0.20521 -0.51718,-0.49704 0.0671,-1.11245 0.39457,-0.41559 0.43245,-0.66781 0.2199,-1.46412 -0.21588,-0.8088 -0.16538,-1.10992 0.31707,-1.89054 0.74815,-1.21052 0.73462,-1.26292 -0.32606,-1.26292 -0.74416,0 -0.99239,-0.15675 -1.43431,-0.90575 -0.4449,-0.75405 -0.47043,-0.93031 -0.15243,-1.05234 0.21009,-0.0806 0.61741,0.0888 0.90515,0.37659 0.28774,0.28774 0.81618,0.52317 1.17432,0.52317 1.21155,0 2.08791,1.70077 1.16899,2.26869 -0.39752,0.24568 -0.25524,0.90631 0.19519,0.90631 0.23531,0 0.86469,0.44648 1.39861,0.99218 1.15919,1.18476 2.53315,2.21546 3.53137,2.64912 0.40018,0.17386 0.7276,0.47158 0.7276,0.6616 0,0.19003 0.38696,0.57057 0.8599,0.84564 0.47294,0.27508 0.91942,0.56932 0.99219,0.65387 0.30422,0.35351 2.09871,1.60592 2.301,1.60592 0.1208,0 1.15714,-0.89297 2.30296,-1.98438 1.14582,-1.0914 2.25937,-1.98437 2.47454,-1.98437 0.21517,0 0.94296,-0.40056 1.6173,-0.89013 0.67434,-0.48957 2.11904,-1.35278 3.21045,-1.91823 l 1.98437,-1.0281 h 5.55625 c 5.19412,0 7.33775,0.22804 8.46667,0.90069 0.14552,0.0867 1.09802,0.30995 2.11666,0.49611 4.67171,0.85374 8.22312,1.69073 9.04874,2.13259 0.31557,0.16889 0.9959,0.30707 1.51185,0.30707 2.95301,0 6.85675,3.13421 8.40341,6.74687 0.1869,0.43657 0.41828,0.85329 0.51419,0.92605 0.26588,0.20172 0.7593,2.15276 0.76096,3.00896 10e-4,0.6203 -0.0664,0.70368 -0.36772,0.45359 -0.20306,-0.16852 -0.45178,-0.74865 -0.55271,-1.28917 -0.17899,-0.95852 -1.08968,-2.81091 -2.43651,-4.95601 -0.66367,-1.05703 -1.86499,-2.06431 -3.90674,-3.27571 -0.92945,-0.55146 -1.39777,-0.63363 -3.58276,-0.62857 -2.34642,0.005 -2.62788,0.0661 -4.23333,0.91308 -2.49158,1.31441 -5.56912,3.64831 -7.35186,5.57539 -0.37021,0.40018 -0.80877,0.7276 -0.97457,0.7276 -0.1658,0 -1.05701,0.72794 -1.98047,1.61765 -0.92347,0.88971 -2.05095,1.77304 -2.50552,1.96298 -0.45457,0.18993 -1.38167,0.86097 -2.06023,1.4912 -0.67855,0.63024 -2.22347,1.67213 -3.43315,2.31533 -1.20967,0.64319 -2.5566,1.38348 -2.99316,1.64509 -1.16038,0.69535 -2.76178,1.43663 -3.96875,1.83711 -0.58208,0.19314 -1.17144,0.44593 -1.30969,0.56174 -0.13824,0.11581 -0.67402,0.21198 -1.19062,0.21371 -0.5166,0.002 -1.59412,0.17891 -2.39448,0.39374 -1.87421,0.50305 -5.58906,0.50159 -7.25195,-0.003 -0.71435,-0.2167 -1.63068,-0.39401 -2.03628,-0.39401 -0.89569,0 -4.32418,-1.73628 -5.71112,-2.89227 -0.55437,-0.46206 -1.33537,-0.90817 -1.73555,-0.99136 -0.40018,-0.0832 -0.7276,-0.25545 -0.7276,-0.38278 0,-0.12733 -0.12862,-0.23151 -0.28581,-0.23151 -0.27959,0 -1.34328,-0.96334 -5.60552,-5.07671 -1.15919,-1.1187 -2.27509,-2.09826 -2.47977,-2.17681 -0.20469,-0.0785 -0.45112,-0.3486 -0.54764,-0.60011 -0.2322,-0.60511 -0.76356,-1.27561 -2.15083,-2.71406 -0.63123,-0.65451 -1.33259,-1.55087 -1.55858,-1.99189 -1.09682,-2.14051 -1.77393,-2.56291 -4.91485,-3.06599 -2.42387,-0.38823 -6.79867,-1.93809 -6.79867,-2.40856 0,-0.12217 -0.17859,-0.22212 -0.39687,-0.22212 -0.21829,0 -0.39688,-0.10555 -0.39688,-0.23455 0,-0.129 -0.35719,-0.28698 -0.79375,-0.35105 -0.43656,-0.0641 -0.79375,-0.0853 -0.79375,-0.0471 0,0.0382 0.8324,0.94027 1.84979,2.00469 1.01738,1.06443 1.85082,2.0192 1.85208,2.12173 0.001,0.10252 0.29995,0.48406 0.66376,0.84786 0.3638,0.36381 0.66145,0.77988 0.66145,0.92461 0,0.14473 0.41205,0.57743 0.91567,0.96156 0.50362,0.38412 0.99205,0.93907 1.08541,1.23321 0.20089,0.63296 0.81568,1.37498 2.69528,3.25308 0.76398,0.76337 1.38906,1.56418 1.38906,1.77957 0,0.2154 0.68492,0.98736 1.52205,1.71547 0.83713,0.72811 1.69668,1.6687 1.91012,2.0902 0.43232,0.85375 1.19057,1.6924 1.53016,1.6924 0.27121,0 2.18142,1.92901 2.18142,2.20289 0,0.27461 1.5547,1.76586 1.84099,1.76586 0.12939,0 0.8099,0.52981 1.51224,1.17736 1.9258,1.77557 2.52504,2.26222 2.7856,2.26222 0.13036,0 0.91582,0.46225 1.74545,1.02723 3.64344,2.48114 4.9491,3.01972 8.51989,3.51444 2.82643,0.3916 4.22139,0.38898 7.54062,-0.0142 2.96198,-0.35976 4.35421,-0.70752 5.63045,-1.40638 0.47737,-0.26141 0.98991,-0.47528 1.13899,-0.47528 0.38439,0 2.63012,-1.03865 3.41702,-1.58037 0.3638,-0.25045 1.06001,-0.59049 1.54713,-0.75564 0.48712,-0.16515 1.32056,-0.66375 1.85208,-1.108 0.53153,-0.44425 1.08548,-0.89474 1.231,-1.00109 1.52961,-1.11787 4.61357,-3.75792 5.70226,-4.88147 0.38777,-0.40018 0.78116,-0.7276 0.87421,-0.7276 0.22669,0 2.75738,-1.82477 2.86427,-2.0653 0.19434,-0.43729 2.22478,-1.90345 2.63604,-1.90345 0.24576,0 0.48652,-0.10067 0.53503,-0.2237 0.17608,-0.44663 2.7697,-2.12719 4.07996,-2.64365 1.96101,-0.77295 7.46179,-0.88063 8.97281,-0.17564 1.69146,0.78918 3.57188,2.07898 3.57188,2.44999 0,0.18783 0.26789,0.44433 0.59531,0.57 0.53981,0.20719 2.57969,2.25239 2.57969,2.58643 0,0.0765 0.36552,0.92997 0.81227,1.89666 0.44675,0.96669 0.93689,2.05527 1.0892,2.41908 0.15232,0.3638 0.38879,0.87891 0.52551,1.14468 0.13671,0.26577 0.30832,1.09921 0.38135,1.85208 0.073,0.75288 0.25905,1.87004 0.41339,2.4826 0.2849,1.13074 0.13086,2.45814 -0.28526,2.45814 -0.12565,0 -0.31026,-0.92274 -0.41024,-2.05052 -0.19185,-2.164 -0.48796,-3.41905 -1.09748,-4.65165 -0.20372,-0.41198 -0.37041,-0.87736 -0.37041,-1.03418 0,-0.15682 -0.44648,-1.18824 -0.99218,-2.29205 -1.30233,-2.63424 -4.05331,-5.36436 -6.78331,-6.73186 -1.77302,-0.88814 -2.11531,-0.96683 -4.20545,-0.96683 -1.25143,0 -2.34891,0.11907 -2.43885,0.26459 -0.0899,0.14552 -0.42438,0.26837 -0.74322,0.27299 -0.31883,0.005 -0.81081,0.18323 -1.09329,0.39688 -0.28247,0.21365 -0.72896,0.38846 -0.99218,0.38846 -0.26323,0 -0.4786,0.11906 -0.4786,0.26458 0,0.14552 -0.14883,0.26574 -0.33073,0.26715 -0.1819,10e-4 -0.84779,0.41362 -1.47976,0.91601 -0.63196,0.50239 -1.40178,0.99365 -1.7107,1.0917 -0.30891,0.098 -1.13717,0.72316 -1.84058,1.38914 -1.41009,1.33508 -2.39835,2.06224 -3.30333,2.4306 -0.32743,0.13327 -0.59532,0.35815 -0.59532,0.49974 0,0.42942 -7.87253,6.89941 -8.39503,6.89941 -0.12554,0 -1.05622,0.50926 -2.06818,1.13167 -1.01195,0.62242 -2.43523,1.35353 -3.16283,1.62469 -0.7276,0.27115 -1.45399,0.59518 -1.61419,0.72006 -0.1602,0.12488 -0.87458,0.2962 -1.5875,0.38071 -0.71293,0.0845 -1.53435,0.25588 -1.82539,0.38082 -0.29104,0.12493 -0.94589,0.28746 -1.45521,0.36117 -0.50932,0.0737 -1.52136,0.25259 -2.24896,0.39751 -1.45674,0.29015 -4.03843,0.31246 -6.08542,0.0526 z m 9.92188,-9.15749 c 0.80036,-0.0956 1.56832,-0.28192 1.70656,-0.41402 0.13825,-0.13211 0.41791,-0.2402 0.62147,-0.2402 0.20357,0 0.77507,-0.17859 1.27,-0.39687 0.49494,-0.21828 1.30483,-0.57547 1.79977,-0.79375 0.49493,-0.21828 1.03071,-0.39688 1.19062,-0.39688 0.15991,0 0.29075,-0.10486 0.29075,-0.23303 0,-0.12818 0.68461,-0.55817 1.52135,-0.95555 0.83674,-0.39737 1.69995,-0.83174 1.91823,-0.96526 0.21828,-0.13352 0.60523,-0.31273 0.8599,-0.39824 0.25466,-0.0855 0.46302,-0.26064 0.46302,-0.38919 0,-0.12855 0.14882,-0.2345 0.33073,-0.23543 0.1819,-9.4e-4 0.91713,-0.50696 1.63386,-1.12448 0.71672,-0.61753 1.75057,-1.3609 2.29744,-1.65194 0.54687,-0.29104 1.6785,-1.1679 2.51473,-1.94857 0.83623,-0.78067 1.85621,-1.53646 2.26662,-1.67953 0.41041,-0.14307 0.7462,-0.4191 0.7462,-0.6134 0,-0.19431 0.56431,-0.80774 1.25403,-1.36318 0.68972,-0.55545 1.48607,-1.21826 1.76968,-1.47293 0.28361,-0.25466 0.60376,-0.46302 0.71145,-0.46302 0.10768,0 0.35312,-0.14883 0.54542,-0.33073 0.64229,-0.60757 2.296,-1.78586 2.51479,-1.79182 0.11885,-0.003 0.51374,-0.23871 0.87755,-0.52328 0.3638,-0.28457 0.86981,-0.52005 1.12448,-0.52328 0.25466,-0.003 0.46302,-0.10674 0.46302,-0.23001 0,-0.12327 -0.86321,-0.35982 -1.91823,-0.52568 -3.18791,-0.50115 -5.84925,-1.06718 -8.26823,-1.75854 -0.87313,-0.24954 -2.18281,-0.57375 -2.91042,-0.72045 -1.60911,-0.32443 -8.26031,-0.14927 -8.99583,0.2369 -0.29104,0.15281 -1.5412,0.78721 -2.77813,1.40978 -4.50582,2.26787 -4.91272,2.50745 -5.95312,3.50517 -0.58209,0.5582 -1.53459,1.26618 -2.11667,1.57329 l -1.05833,0.55838 0.76806,0.31752 c 0.69887,0.28893 0.83945,0.24931 1.56059,-0.43986 0.4359,-0.41656 1.01683,-0.75739 1.29096,-0.75739 0.7894,0 2.41649,-0.76436 2.99497,-1.40695 1.32491,-1.47174 2.27532,-2.03263 3.44427,-2.03263 0.63509,0 1.22829,-0.11906 1.31823,-0.26458 0.0899,-0.14552 0.44713,-0.26459 0.79375,-0.26459 0.34663,0 0.70381,0.11907 0.79375,0.26459 0.0899,0.14552 0.43176,0.26458 0.75961,0.26458 0.84032,0 1.85997,1.42333 1.57315,2.19598 -0.37096,0.99935 -2.05186,3.35053 -2.39891,3.35552 -0.1819,0.003 -0.33072,0.10993 -0.33072,0.23849 0,0.12856 -0.26789,0.29508 -0.59532,0.37006 -0.32742,0.075 -1.01203,0.28551 -1.52135,0.46784 -1.53879,0.55086 -1.71207,0.60149 -1.9141,0.55924 -0.10687,-0.0223 -0.58312,0.19643 -1.05833,0.48617 -0.47522,0.28974 -1.13192,0.52725 -1.45934,0.52779 -0.32742,5.5e-4 -0.59531,0.0965 -0.59531,0.21331 0,0.11677 -0.62508,0.43106 -1.38907,0.69842 -0.76398,0.26735 -1.50217,0.58853 -1.64041,0.71372 -0.13825,0.1252 -0.46205,0.22763 -0.71956,0.22763 -0.48374,0 -2.16738,-0.85348 -2.86555,-1.45261 -0.21828,-0.18732 -0.78246,-0.42253 -1.25373,-0.52268 -0.47128,-0.10015 -0.92508,-0.29247 -1.00846,-0.42738 -0.0834,-0.1349 -0.53123,0.0299 -0.99522,0.36611 -0.464,0.33626 -1.31988,0.83042 -1.90196,1.09813 -0.58209,0.26771 -1.23693,0.57051 -1.45521,0.67288 -0.58324,0.27353 -1.06746,2.98844 -0.74275,4.16443 0.1443,0.52261 0.40021,1.08622 0.5687,1.25248 0.36223,0.35744 1.70059,1.09672 2.35686,1.30187 0.25466,0.0796 0.46302,0.31382 0.46302,0.52048 0,0.55085 -1.56249,0.75572 -3.15649,0.41387 -0.75787,-0.16253 -1.43629,-0.23716 -1.50761,-0.16584 -0.27138,0.27138 3.20327,1.77427 4.11105,1.77814 0.52246,0.002 1.12852,0.12336 1.3468,0.26918 0.40332,0.26943 4.90465,0.1825 7.67292,-0.14818 z m -11.68236,-3.10161 c -0.98625,-0.80258 -1.54681,-2.01027 -1.54681,-3.33252 0,-0.73294 0.11906,-1.40619 0.26459,-1.49613 0.50745,-0.31362 0.28255,-0.68969 -0.24396,-0.40791 -1.022,0.54695 -1.33181,1.05855 -1.17452,1.9395 0.2586,1.44844 0.66799,2.16515 1.65648,2.9 0.94038,0.69909 1.83199,1.03812 1.04422,0.39706 z m -3.01548,-0.84331 c -0.23239,-0.35468 -0.50303,-1.18723 -0.60141,-1.8501 l -0.17888,-1.20524 -0.76945,0.61503 c -0.73231,0.58534 -0.75202,0.65443 -0.40819,1.4312 0.1987,0.44889 0.72355,0.99706 1.16633,1.21815 1.13237,0.56542 1.27446,0.5279 0.7916,-0.20904 z m -3.13376,-1.66451 c -0.081,-0.081 -0.33007,0.004 -0.55348,0.18984 -0.36277,0.30107 -0.35638,0.37393 0.0597,0.6813 0.40227,0.29714 0.47792,0.2712 0.55348,-0.18984 0.0481,-0.29371 0.0213,-0.6003 -0.0598,-0.6813 z m -0.53721,-0.89756 c 0.0791,-0.12795 0.37489,-0.23264 0.65734,-0.23264 0.28245,0 0.51355,-0.092 0.51355,-0.20442 0,-0.11243 0.44563,-0.43985 0.99029,-0.7276 1.64106,-0.867 3.14065,-2.24747 3.53304,-3.2524 0.47025,-1.20434 0.22614,-1.1903 -0.54875,0.0316 -0.43336,0.68334 -0.96914,1.24243 -1.19063,1.24243 -0.22148,0 -0.4027,0.09 -0.4027,0.2 0,0.46121 -2.25796,1.088 -5.6504,1.56851 l -1.02019,0.1445 0.99521,0.86004 c 0.94514,0.81679 1.75942,0.95869 2.12324,0.37001 z m 9.32468,-5.04319 c 0.60865,-0.18996 1.10663,-0.44153 1.10663,-0.55904 0,-0.11752 -0.44649,-0.38919 -0.99219,-0.60371 -0.5457,-0.21453 -1.19893,-0.50611 -1.45162,-0.64796 -1.05289,-0.59106 -1.26036,-0.34746 -1.26036,1.4799 v 1.73781 l 0.74545,-0.53081 c 0.41,-0.29195 1.24344,-0.68623 1.85209,-0.87619 z m 8.92507,0.63123 c 0.29964,-0.25103 1.76601,-0.73565 2.96333,-0.97936 0.47294,-0.0963 0.8599,-0.28464 0.8599,-0.4186 0,-0.13395 0.20836,-0.2462 0.46302,-0.24944 0.25466,-0.003 0.74602,-0.22351 1.09192,-0.4895 0.62337,-0.47936 0.6069,-0.484 -1.87134,-0.52736 -2.41149,-0.0422 -2.51271,-0.0204 -2.85159,0.61276 -0.39823,0.7441 -0.80076,0.65356 -0.80076,-0.18011 0,-1.21239 0.6859,-1.52657 3.33268,-1.52657 1.35254,0 2.53042,-0.11893 2.62044,-0.26459 0.0899,-0.14552 0.43353,-0.26458 0.76354,-0.26458 0.5135,0 0.58355,-0.11219 0.48583,-0.77805 l -0.1142,-0.77805 -0.65928,0.65929 c -0.87407,0.87406 -1.28915,0.68312 -1.18871,-0.54681 l 0.0809,-0.99099 -1.01869,1.07087 c -1.10234,1.1588 -2.04277,1.62832 -3.26143,1.62832 -0.42708,0 -0.77667,0.0893 -0.77684,0.19844 -7.9e-4,0.48531 -1.30853,1.65365 -1.85095,1.65365 -0.32949,0 -1.17912,-0.41672 -1.88806,-0.92605 -0.70894,-0.50932 -1.35674,-0.92604 -1.43956,-0.92604 -0.0828,0 -0.30747,-0.14883 -0.49923,-0.33073 -0.19177,-0.1819 -0.6819,-0.56885 -1.0892,-0.85989 -0.40729,-0.29104 -1.04116,-0.86296 -1.40858,-1.27093 -0.36742,-0.40796 -1.21913,-1.04169 -1.89268,-1.40829 -0.67355,-0.36659 -1.85184,-1.37907 -2.61843,-2.24996 -0.76658,-0.87088 -1.45632,-1.52089 -1.53275,-1.44446 -0.23172,0.23171 0.52361,1.83944 1.1411,2.42885 0.86021,0.82111 1.17241,1.54106 1.17241,2.7037 0,2.25033 0.16392,2.51935 1.86127,3.05462 0.85566,0.26984 2.90027,1.17893 4.54359,2.0202 2.90084,1.48503 4.70462,1.9474 5.38233,1.37966 z m -12.05177,-2.29467 c 0,-0.46248 -0.11223,-0.61009 -0.38443,-0.50564 -0.30944,0.11875 -0.32283,0.24614 -0.0686,0.65316 0.4078,0.65299 0.45307,0.63825 0.45307,-0.14752 z m -9.86125,-0.30045 c -0.0879,-0.0879 -0.31612,-0.0973 -0.50711,-0.0209 -0.21107,0.0845 -0.14838,0.14716 0.15985,0.15986 0.27891,0.0115 0.43518,-0.0511 0.34726,-0.13897 z m 30.82308,-0.89749 c 0.47646,-0.2905 0.6877,-0.52784 0.46942,-0.52742 -0.21829,4.1e-4 -0.75407,0.23731 -1.19063,0.52643 -1.03678,0.68663 -0.40477,0.6875 0.72121,9.9e-4 z m -0.72308,-1.05629 c 0.0927,-0.14998 -0.0135,-0.19434 -0.24897,-0.10399 -0.45837,0.1759 -0.54223,0.36554 -0.16165,0.36554 0.13693,0 0.32171,-0.1177 0.41062,-0.26155 z m 2.23696,-2.51658 c -0.003,-0.14552 -0.41648,0.21167 -0.91817,0.79375 -0.50169,0.58209 -0.90947,1.1774 -0.90617,1.32292 0.003,0.14552 0.41647,-0.21167 0.91817,-0.79375 0.50169,-0.58208 0.90947,-1.17739 0.90617,-1.32292 z m -38.01097,1.44947 c -0.17564,-0.67166 -2.41604,-2.90467 -2.91427,-2.90467 -0.20388,0 -0.60506,0.12543 -0.89152,0.27874 -0.50303,0.26922 -0.49569,0.30538 0.21498,1.05833 0.40469,0.42878 0.87651,0.77959 1.04849,0.77959 0.17198,0 0.47003,0.15095 0.66232,0.33544 0.33996,0.32616 1.49644,0.93351 1.84621,0.96957 0.0955,0.01 0.11072,-0.2228 0.0338,-0.517 z m 35.58219,-1.31717 c 0.18306,-0.29313 0.2156,-0.52917 0.0729,-0.52917 -0.14163,0 -0.38496,0.23812 -0.54072,0.52917 -0.15576,0.29104 -0.18859,0.52916 -0.073,0.52916 0.11563,0 0.35896,-0.23812 0.54072,-0.52916 z M 17.420529,598.96464 c 0.002,-0.32742 0.28019,-1.07965 0.61875,-1.67161 0.33856,-0.59196 0.69246,-1.46078 0.78644,-1.93072 0.094,-0.46993 0.52993,-1.37627 0.96875,-2.01409 0.43883,-0.63781 0.79787,-1.27429 0.79787,-1.4144 0,-0.14012 0.19212,-0.32848 0.42693,-0.41858 0.36388,-0.13964 0.40032,-0.0168 0.24679,0.83159 -0.0991,0.54747 -0.46089,1.4259 -0.80403,1.95205 -0.34315,0.52615 -0.755,1.44353 -0.91524,2.03862 -0.16024,0.59508 -0.4668,1.25742 -0.68123,1.47185 -0.21444,0.21444 -0.38989,0.55317 -0.38989,0.75274 0,0.39678 -0.51,0.99786 -0.84666,0.99786 -0.11642,0 -0.21023,-0.26789 -0.20848,-0.59531 z m 98.329511,-24.99458 c -1.23948,-1.25721 -1.46594,-1.75011 -0.95044,-2.06871 0.2795,-0.17274 3.1594,2.63677 3.1594,3.08218 0,0.61566 -1.10065,0.11068 -2.20896,-1.01347 z m -35.704931,-5.17779 c -0.84353,-0.90408 -1.85556,-2.01108 -2.24896,-2.46001 -0.92642,-1.05719 -1.31752,-1.17721 -2.40122,-0.7369 -2.18341,0.88712 -2.73638,0.11241 -0.64214,-0.89963 1.33944,-0.64728 1.61837,-0.6994 2.1958,-0.41032 0.74965,0.3753 2.38125,1.90056 2.38125,2.22605 0,0.11807 0.39332,0.60737 0.87404,1.08732 1.062916,1.0612 2.036376,2.31752 2.036376,2.6281 0,0.58707 -0.7915,0.0698 -2.195146,-1.43461 z m -61.70803,1.12414 c -0.10215,-0.16527 -0.0532,-0.43299 0.10873,-0.59493 0.16195,-0.16195 0.29445,-0.51417 0.29445,-0.78272 0,-0.26856 0.26789,-0.76466 0.59531,-1.10245 0.64506,-0.66549 1.15742,-1.381 1.43759,-2.00761 0.0976,-0.21828 0.25585,-0.45641 0.35166,-0.52917 0.0958,-0.0728 0.66844,-0.98375 1.27251,-2.02443 0.60406,-1.04067 1.63908,-2.46942 2.30004,-3.175 0.66097,-0.70557 1.27352,-1.58052 1.36123,-1.94432 0.15426,-0.63985 0.83415,-1.66672 1.84896,-2.79256 0.64301,-0.71338 1.12988,-1.46307 1.32228,-2.03608 0.0855,-0.25467 0.26064,-0.46303 0.38919,-0.46303 0.12855,0 0.23373,-0.17318 0.23373,-0.38484 0,-0.42806 1.20417,-1.73182 1.59952,-1.73182 0.42005,0 0.28661,0.44758 -0.36866,1.23647 -0.34166,0.41135 -0.69826,1.04556 -0.79244,1.40936 -0.0942,0.3638 -0.88378,1.61396 -1.75469,2.77813 -0.87091,1.16416 -1.58587,2.30826 -1.58881,2.54243 -0.003,0.23418 -0.45947,0.94855 -1.01451,1.5875 -1.13541,1.30704 -3.48875,4.57501 -3.48875,4.84465 0,0.2215 -1.87081,2.7351 -2.6168,3.51592 -0.30701,0.32133 -0.5582,0.75324 -0.5582,0.95979 0,0.5558 -0.69715,1.07526 -0.93234,0.69471 z m 71.433956,-7.14947 c -0.26297,-0.42549 0.32404,-0.73524 1.72963,-0.91271 0.65485,-0.0827 1.51343,-0.20131 1.90797,-0.26364 0.83822,-0.1324 1.22306,0.30037 0.70303,0.79057 -0.50167,0.47289 -4.08971,0.79178 -4.34063,0.38578 z"
       id="path17" /></g></svg>
