<?xml version="1.0" encoding="UTF-8" standalone="no"?>
<!-- Created with Inkscape (http://www.inkscape.org/) -->

<svg
   width="99.668335mm"
   height="69.370834mm"
   viewBox="0 0 99.668345 69.370835"
   version="1.1"
   id="svg1"
   xml:space="preserve"
   xmlns="http://www.w3.org/2000/svg"
   xmlns:svg="http://www.w3.org/2000/svg"><defs
     id="defs1" /><g
     id="layer1"
     transform="translate(29.036903,-1738.8552)"><path
       style="fill:#333333;stroke-width:2.5"
       d="m 55.492981,1807.1525 c -0.576223,-0.6943 -0.962605,-3.4205 -1.101555,-7.7723 -0.292748,-9.1682 -0.4371,-9.6792 -2.73471,-9.6792 -2.85105,0 -3.523495,1.2512 -3.999028,7.4415 -0.113825,1.4815 -1.247747,0.085 -2.294877,-2.8275 -1.147013,-3.1898 -1.278913,-3.309 -3.272595,-2.9533 -1.142575,0.205 -6.636588,1.0745 -12.208918,1.9348 -5.57233,0.8605 -10.285442,1.7182 -10.473585,1.9062 -0.18815,0.1875 -0.50924,1.5885 -0.713555,3.1118 l -0.37148,2.7697 -2.445455,-0.3912 c -1.345,-0.215 -3.88304,-1.0268 -5.640087,-1.804 -2.6711252,-1.1818 -3.9075952,-1.341 -7.5454177,-0.973 -13.7861573,1.3952 -13.5808983,1.4112 -22.8716203,-1.7763 l -8.598958,-2.95 -0.210955,-3.894 c -0.410259,-7.5732 1.884022,-15.2202 5.955412,-19.85 1.240521,-1.4107 2.795871,-3.8042 3.456334,-5.3187 1.295897,-2.9715 3.843429,-5.6578 7.933167,-8.3648 l 2.5818747,-1.709 2.3644072,1.949 c 2.7679758,2.2815 3.6736058,2.459 3.1942483,0.626 -0.190275,-0.7277 -0.10995,-1.323 0.1785,-1.323 0.2884525,0 0.68257,0.8185 0.8758175,1.819 0.8126275,4.207 1.72463748,6.7878 4.3864425,12.412 3.3247225,7.0253 4.79671,10.9045 4.1376425,10.9045 -0.26204,0 -1.4471825,-2.0837 -2.63365,-4.6302 -1.6243725,-3.4865 -2.48636252,-4.6303 -3.48976752,-4.6303 -1.12362998,0 -1.31070998,-0.389 -1.19324748,-2.4805 0.079575,-1.417 -0.4936625,-3.8982 -1.337115,-5.7877 -1.35569,-3.0368 -1.5391875,-3.199 -2.2440325,-1.9843 -0.42219,0.7275 -0.79292,3.3535 -0.8238475,5.8353 -0.03095,2.4845 -0.3807575,4.714 -0.7783508,4.961 -0.397167,0.2475 -0.8265442,1.1867 -0.9541715,2.0892 -0.19757,1.3968 -0.7086757,1.7203 -3.4398004,2.176 -2.099795,0.3505 -3.5063,0.2875 -4.072108,-0.1825 -0.673299,-0.5587 -1.246782,0.09 -2.594465,2.9398 -0.95156,2.0115 -1.909638,4.5547 -2.129064,5.652 -0.34478,1.724 -0.20584,1.9947 1.023168,1.9947 0.782168,0 3.115895,-0.5952 5.186059,-1.323 2.070164,-0.7275 4.2692697,-1.3227 4.8869009,-1.3227 0.6176315,0 3.5135368,2.3397 6.4353443,5.1992 6.75112,6.6075 16.5129548,11.7223 19.2014748,10.0608 1.154433,-0.7135 1.283348,-13.0405 0.176875,-16.9138 -0.41571,-1.4552 -0.731295,-3.8365 -0.7013,-5.2915 0.05028,-2.4397 0.150325,-2.285 1.283198,1.9843 0.675762,2.5467 1.244875,5.248 1.264692,6.0032 0.01975,0.755 0.8029,2.0933 1.740188,2.974 1.447397,1.3598 2.498582,1.637 6.976915,1.8403 6.221127,0.2825 14.31301,-0.7885 19.537307,-2.5858 2.056298,-0.7075 4.12468,-1.2865 4.596408,-1.2865 0.471725,0 1.46223,1.3668 2.20112,3.0373 1.163692,2.6305 1.696342,6.1967 2.255022,15.0972 0.097,1.5455 0.553838,2.0743 2.299743,2.6623 1.198275,0.4035 1.962812,0.9492 1.69897,1.2132 -0.874883,0.8748 -4.051923,0.4965 -4.95353,-0.5897 z m 8.001595,0.264 c 0,-0.4198 0.638642,-1.4428 1.419207,-2.2738 l 1.419205,-1.5105 -1.792995,-0.6817 c -0.986147,-0.375 -2.41327,-0.6818 -3.17138,-0.6818 -1.35298,0 -1.369945,-0.17 -0.92058,-9.249 0.518183,-10.469 -0.04085,-13.7742 -2.681002,-15.851 -2.371903,-1.8657 -5.206775,-1.7305 -14.863313,0.7083 -10.871945,2.746 -12.01964,2.7305 -16.280152,-0.2175 -3.366415,-2.3303 -7.068783,-3.5875 -12.308028,-4.18 -2.205865,-0.25 -2.485332,-0.135 -2.090677,0.8567 1.50967,3.7928 1.716697,19.8563 0.244175,18.9463 -0.312518,-0.1925 -0.572603,-0.8545 -0.577965,-1.4698 -0.0092,-1.052 -0.363903,-1.81 -2.5274877,-5.4 -0.82289,-1.3652 -0.783135,-1.4342 0.5786725,-1.002 2.7033502,0.858 3.5183852,-3.3585 1.5837722,-8.1937 -0.56994,-1.4243 -0.94201,-3.7373 -0.826822,-5.1395 0.216175,-2.632 0.7889,-2.9398 3.44917,-1.8535 1.10936,0.4527 1.205882,0.2882 0.829892,-1.415 -0.234,-1.06 -0.570097,-4.0108 -0.746862,-6.5575 -0.28291,-4.0758 -0.24055,-4.3133 0.35375,-1.9843 1.821497,7.1383 1.956415,7.458 3.107422,7.367 0.715718,-0.057 1.230413,0.4523 1.357278,1.3413 0.237275,1.6632 0.937737,2.0045 5.30214,2.5835 3.08352,0.409 3.298732,0.328 5.595162,-2.106 2.915695,-3.0905 3.804238,-2.6455 1.499378,0.7507 -0.927488,1.3668 -1.690403,3.1133 -1.69537,3.881 -0.005,0.7678 -0.184975,2.0523 -0.400033,2.8543 -0.30808,1.149 -0.0552,1.5425 1.192403,1.8557 3.06604,0.7695 4.922925,-0.6055 6.16943,-4.5685 0.633155,-2.013 0.975767,-4.3307 0.761362,-5.1507 -0.2144,-0.8198 0.109375,-2.8963 0.719508,-4.614 1.042855,-2.9363 1.040875,-3.267 -0.03305,-5.519 -1.430233,-2.9993 -5.103655,-4.7388 -11.826613,-5.6005 -2.663215,-0.3413 -7.223457,-1.3843 -10.133875,-2.3178 -8.9030122,-2.8552 -18.2581047,-2.894 -22.1588522,-0.092 -0.6058943,0.4353 -0.5286205,0.1675 0.198475,-0.6875 2.968965,-3.4915 10.77926,-3.5457 23.8766202,-0.165 l 7.344175,1.8953 1.170077,-1.476 c 0.643545,-0.8118 2.435433,-3.113 3.981973,-5.114 1.637897,-2.119 4.04912,-4.283 5.775232,-5.183 2.770228,-1.4445 3.480613,-1.521 10.900843,-1.1748 8.473157,0.3955 14.17161,1.5998 16.778317,3.546 0.884685,0.6605 2.523808,2.821 3.642493,4.8013 1.797885,3.1822 2.063642,4.3387 2.289577,9.964 0.3059,7.616 -1.079287,13.9115 -5.164997,23.4742 -2.068075,4.8405 -2.85631,7.7768 -3.45303,12.8628 -0.425275,3.6247 -0.590783,6.7727 -0.367793,6.9957 0.223,0.2225 2.41256,0.8973 4.865705,1.4985 2.453148,0.6013 4.5779,1.4525 4.72167,1.8918 0.2291,0.7 -0.737027,1.2855 -5.948662,3.6045 -0.731048,0.3252 -1.157553,0.235 -1.157553,-0.2475 z m -15.21667,-36.046 c -0.720728,-1.124 -0.739395,-1.1225 -0.377543,0.03 0.209375,0.6662 0.40417,1.5592 0.432893,1.9842 0.0377,0.5578 0.14275,0.5498 0.377542,-0.03 0.178925,-0.4412 -0.01575,-1.334 -0.432892,-1.9845 z m -30.227058,-1.0723 c 0.18615,-0.485 -0.07967,-0.882 -0.59069,-0.882 -0.511017,0 -0.929122,0.397 -0.929122,0.882 0,1.1425 1.08137,1.1425 1.519812,0 z m 27.253625,-3.0867 c -0.22485,-0.3638 -0.70646,-0.6615 -1.070262,-0.6615 -0.363803,0 -0.477498,0.2977 -0.252655,0.6615 0.22485,0.3637 0.70646,0.6615 1.070262,0.6615 0.363803,0 0.477495,-0.2978 0.252655,-0.6615 z"
       id="path86" /></g></svg>
