<?xml version="1.0" encoding="UTF-8" standalone="no"?>
<!-- Created with Inkscape (http://www.inkscape.org/) -->

<svg
   width="191.065mm"
   height="144.66461mm"
   viewBox="0 0 191.065 144.66461"
   version="1.1"
   id="svg1"
   xml:space="preserve"
   xmlns="http://www.w3.org/2000/svg"
   xmlns:svg="http://www.w3.org/2000/svg"><defs
     id="defs1" /><g
     id="layer1"
     transform="translate(-473.72876,-682.2361)"><path
       style="fill:#4d4d4d"
       d="m 557.71413,826.37159 c 0.33931,-0.634 0.93956,-0.69115 1.16232,-0.11065 0.23989,0.62514 0.22515,0.63981 -0.64246,0.63981 -0.72107,0 -0.77415,-0.054 -0.51986,-0.52916 z m 16.93333,0.37948 c 0,-0.0823 0.12504,-0.38332 0.27786,-0.66887 0.30659,-0.57287 0.63425,-0.47823 1.05295,0.30412 0.24458,0.457 0.18566,0.51443 -0.52775,0.51443 -0.44168,0 -0.80306,-0.0673 -0.80306,-0.14968 z m 17.19792,-0.35118 c 0,-0.39582 0.78164,-1.05937 0.89777,-0.76213 0.0155,0.0398 0.17811,0.34026 0.36124,0.66768 0.31279,0.55923 0.28473,0.59531 -0.46302,0.59531 -0.6046,0 -0.79599,-0.12042 -0.79599,-0.50086 z m -90.13032,-3.95954 c -0.60391,-0.24023 -1.32766,-0.6446 -1.60833,-0.89861 -0.57346,-0.51897 -1.44519,-0.59501 -2.19864,-0.19177 -0.37539,0.2009 -0.73226,0.15009 -1.39375,-0.19844 -0.48904,-0.25767 -1.32571,-0.6989 -1.85927,-0.98051 -0.67743,-0.35755 -0.9701,-0.69142 -0.9701,-1.10665 0,-0.3517 -0.20526,-0.65977 -0.50244,-0.75409 -0.7235,-0.22963 -1.90527,-1.4757 -2.20368,-2.32359 -0.14083,-0.40018 -0.36348,-0.7276 -0.49477,-0.7276 -0.13128,0 -0.2387,-0.5238 -0.2387,-1.16399 v -1.16398 l 1.12448,-0.14954 c 0.61846,-0.0823 2.11989,-0.26216 3.3365,-0.39981 1.21661,-0.13764 2.34175,-0.38 2.50031,-0.53856 0.15857,-0.15856 1.21406,-0.28829 2.34565,-0.28829 1.62099,0 2.2411,-0.11565 2.92365,-0.54527 l 0.86629,-0.54528 -2.51354,0.15836 c -4.79946,0.30236 -7.0147,0.36771 -7.60813,0.22444 -0.7482,-0.18063 -1.29609,-1.3724 -1.49919,-3.261 -0.51265,-4.7672 -0.5126,-4.7625 -0.057,-4.7625 0.2382,0 0.4331,0.18021 0.4331,0.40047 0,0.22025 0.10719,0.6072 0.23821,0.85989 0.13102,0.25269 0.44545,1.17381 0.69875,2.04693 0.25329,0.87313 0.57845,1.9178 0.72257,2.32149 l 0.26204,0.734 4.25507,-0.0725 4.25507,-0.0725 0.21957,-1.05833 c 0.5554,-2.67708 1.16043,-4.36563 1.56426,-4.36563 0.2897,0 0.27177,4.35236 -0.0232,5.6224 -0.2347,1.01069 -0.0986,1.22797 0.435,0.69439 0.16378,-0.16379 1.34846,-0.37691 2.6326,-0.4736 2.15551,-0.16229 2.40299,-0.24101 3.22268,-1.02512 0.48834,-0.46712 0.98822,-0.84932 1.11085,-0.84932 0.12263,0 0.53239,-0.28676 0.91057,-0.63725 1.06426,-0.98632 2.24948,-1.44044 4.11532,-1.57681 0.94121,-0.0688 2.03767,-0.20699 2.43657,-0.30711 1.66702,-0.41839 0.47496,-0.5767 -3.44191,-0.45709 -3.05536,0.0933 -5.0143,0.009 -7.34219,-0.31592 -3.2936,-0.45973 -3.91951,-0.69719 -3.34719,-1.26988 0.51514,-0.51548 11.09901,-0.59284 14.45969,-0.10569 2.53663,0.3677 2.68132,0.36189 3.50573,-0.14077 0.47294,-0.28837 0.8599,-0.62009 0.8599,-0.73716 0,-0.11707 0.42362,-0.41388 0.94138,-0.65958 0.51777,-0.24569 1.67862,-1.15161 2.57969,-2.01316 0.90107,-0.86154 1.82713,-1.56705 2.05792,-1.5678 0.23079,-7.5e-4 0.82905,-0.44785 1.32948,-0.99355 1.1214,-1.22288 2.54647,-2.40422 3.36648,-2.79073 0.33972,-0.16013 1.05709,-0.71393 1.59417,-1.23067 0.53708,-0.51675 1.41917,-1.23719 1.96021,-1.601 0.54105,-0.3638 0.98453,-0.75075 0.98552,-0.85989 10e-4,-0.10914 0.12786,-0.19844 0.28191,-0.19844 0.37326,0 2.3974,-1.58229 2.87697,-2.24896 0.68819,-0.95667 4.58089,-4.87108 5.41694,-5.44714 0.46783,-0.32234 1.13918,-1.23199 1.5665,-2.12254 0.4113,-0.85714 0.85778,-1.55844 0.99219,-1.55844 0.13441,0 0.24439,-0.15524 0.24439,-0.34497 0,-0.48167 1.5861,-1.93746 2.3689,-2.17429 0.57861,-0.17506 1.39757,-0.77774 1.32763,-0.97702 -0.1853,-0.52804 1.67847,-2.79029 2.788,-3.38409 0.36257,-0.19404 0.65922,-0.4543 0.65922,-0.57835 0,-0.12405 -0.92274,-1.16058 -2.05053,-2.30339 -2.6385,-2.67366 -8.44866,-8.84574 -9.61499,-10.21393 -0.49621,-0.58209 -1.14032,-1.23068 -1.43136,-1.44133 -0.29104,-0.21065 -0.82682,-0.72063 -1.19062,-1.13329 -0.36381,-0.41266 -1.24396,-1.31187 -1.9559,-1.99825 -0.71194,-0.68638 -2.09764,-2.02187 -3.07934,-2.96776 -2.62999,-2.53405 -4.51308,-4.21769 -6.21445,-5.55625 -0.83235,-0.65484 -2.18378,-1.81228 -3.00319,-2.57208 -0.81941,-0.7598 -1.63866,-1.38488 -1.82056,-1.38906 -0.1819,-0.004 -0.33073,-0.12667 -0.33073,-0.27219 0,-0.14552 -0.12701,-0.26459 -0.28224,-0.26459 -0.26994,0 -1.84545,-1.0902 -2.58093,-1.78593 -0.1923,-0.1819 -0.51972,-0.33073 -0.72761,-0.33073 -0.20788,0 -0.37797,-0.0911 -0.37797,-0.20248 0,-0.2358 -2.38102,-1.12044 -3.01566,-1.12044 -0.23711,0 -0.63785,-0.10468 -0.89054,-0.23263 -0.70004,-0.35447 -2.92209,-0.99584 -4.69276,-1.35452 -0.87312,-0.17686 -1.88516,-0.41834 -2.24896,-0.53661 -0.3638,-0.11827 -1.76151,-0.2763 -3.10602,-0.35119 -2.51076,-0.13984 -3.10094,-0.28934 -2.8358,-0.71833 0.33218,-0.53749 8.06469,0.0996 9.77828,0.80566 0.29104,0.11991 1.24354,0.41551 2.11667,0.65688 0.87312,0.24136 1.79424,0.55093 2.04693,0.68792 0.25268,0.13699 0.68463,0.24907 0.95987,0.24907 0.89784,0 2.50854,0.81859 4.73862,2.40825 1.20404,0.85828 2.24901,1.5605 2.32215,1.5605 0.13705,0 1.16717,0.88529 3.30961,2.84427 0.67638,0.61847 1.31523,1.12448 1.41968,1.12448 0.10444,0 0.34996,0.14883 0.5456,0.33073 0.19564,0.1819 1.14252,1.0451 2.10419,1.91823 4.42582,4.01833 8.08564,7.58959 8.08564,7.88996 0,0.28251 0.6919,0.97358 0.97475,0.97358 0.12034,0 0.75392,0.60415 1.40796,1.34256 0.65404,0.7384 1.84401,2.02344 2.64437,2.85563 1.84834,1.92185 2.64584,2.88467 2.64584,3.19433 0,0.13461 0.22175,0.31512 0.49277,0.40114 0.27103,0.086 0.95564,0.71912 1.52136,1.40689 0.56571,0.68777 1.80248,2.10181 2.74837,3.14231 0.94588,1.04049 1.86815,2.07676 2.04947,2.30282 0.29754,0.37093 0.44589,0.36794 1.52136,-0.0307 0.65541,-0.24291 1.19167,-0.53504 1.19167,-0.64917 0,-0.11413 0.23109,-0.20752 0.51355,-0.20752 0.28245,0 0.58513,-0.11582 0.67263,-0.25739 0.0875,-0.14157 0.63643,-0.38593 1.21986,-0.54303 0.58343,-0.1571 1.12004,-0.44004 1.19245,-0.62875 0.0731,-0.19039 -0.72794,-1.17356 -1.79956,-2.20882 -1.06218,-1.02614 -2.48237,-2.42771 -3.156,-3.11461 -0.67362,-0.68689 -1.60074,-1.62145 -2.06027,-2.07679 -0.45952,-0.45534 -1.42372,-1.42321 -2.14266,-2.15081 -0.71894,-0.72761 -1.57224,-1.56105 -1.89622,-1.85209 -0.32398,-0.29104 -1.07083,-1.04772 -1.65965,-1.68151 -0.58883,-0.63379 -1.96356,-2.08379 -3.05497,-3.22222 -1.0914,-1.13843 -2.19146,-2.28675 -2.44457,-2.55182 -0.25312,-0.26507 -1.11061,-1.11433 -1.90556,-1.88724 -0.79494,-0.77291 -1.5186,-1.63611 -1.60814,-1.91823 -0.0895,-0.28211 -0.31506,-0.51294 -0.50115,-0.51294 -0.38903,0 -3.33016,-2.81911 -3.33016,-3.192 0,-0.13617 -0.1786,-0.24758 -0.39688,-0.24758 -0.21828,0 -0.39687,-0.11906 -0.39687,-0.26458 0,-0.14552 -0.13568,-0.26459 -0.3015,-0.26459 -0.16583,0 -1.06407,-0.7739 -1.9961,-1.71979 -0.93202,-0.94588 -1.84138,-1.71979 -2.02078,-1.71979 -0.3115,0 -1.49032,1.03261 -2.26234,1.98174 -0.61444,0.75541 -2.08044,0.33374 -4.36026,-1.25413 -0.57457,-0.40019 -1.24382,-0.72761 -1.48723,-0.72761 -0.24341,0 -1.62454,-0.4843 -3.06916,-1.07622 -1.44462,-0.59192 -3.04331,-1.19498 -3.55263,-1.34015 -0.50932,-0.14516 -1.43076,-0.4943 -2.04764,-0.77586 -0.61688,-0.28156 -1.50985,-0.51267 -1.98437,-0.51356 -0.88946,-0.002 -1.07984,-0.084 -3.78897,-1.63855 l -1.60326,-0.91997 -0.90281,0.61861 c -0.49655,0.34024 -1.04508,0.61862 -1.21896,0.61862 -0.17388,0 -0.35583,0.0893 -0.40434,0.19844 -0.19775,0.44493 -2.16576,1.12448 -3.25655,1.12448 -0.64132,0 -1.23962,0.11906 -1.32956,0.26458 -0.0899,0.14552 -0.60298,0.26549 -1.14009,0.2666 -1.63178,0.003 -4.63299,1.06418 -8.31517,2.93905 -0.25269,0.12866 -0.6295,0.23393 -0.83736,0.23393 -0.41094,0 -4.24848,2.50983 -5.21657,3.41174 -0.32884,0.30636 -0.72426,0.55891 -0.87872,0.56124 -0.40205,0.006 -1.79052,1.31245 -2.38575,2.24473 -0.27873,0.43656 -0.77259,1.00307 -1.09746,1.2589 -0.83471,0.65733 -2.95113,3.68481 -3.16128,4.52214 -0.0968,0.38569 -0.28216,0.70125 -0.41191,0.70125 -0.12974,0 -0.2359,0.18096 -0.2359,0.40213 0,0.22118 -0.27099,0.84626 -0.60221,1.38907 -0.33121,0.54281 -0.8241,1.64177 -1.09529,2.44213 -0.2712,0.80037 -0.59551,1.56832 -0.72071,1.70657 -0.12519,0.13824 -0.23178,0.85262 -0.23685,1.5875 -0.005,0.73488 -0.18133,2.28864 -0.39167,3.45281 -0.42895,2.37406 -0.49925,9.69903 -0.11555,12.03854 0.13126,0.80037 0.31713,2.34818 0.41303,3.43958 0.0959,1.09141 0.26371,2.10344 0.37292,2.24896 0.10921,0.14552 0.28691,0.6813 0.3949,1.19063 0.24604,1.16044 2.98822,6.90517 4.19156,8.7811 0.49581,0.77295 1.16661,1.64348 1.49067,1.93452 0.32405,0.29104 0.75896,0.95316 0.96646,1.47137 0.2075,0.51821 0.77628,1.31854 1.26395,1.77852 0.48766,0.45998 1.30531,1.46475 1.817,2.23281 1.19225,1.78963 2.30596,2.86971 2.30596,2.23634 0,-0.24365 -0.0955,-0.443 -0.21232,-0.443 -0.11677,0 -0.43207,-0.62507 -0.70065,-1.38906 -0.26858,-0.76398 -0.57686,-1.50812 -0.68505,-1.65364 -0.10819,-0.14552 -0.34122,-0.97896 -0.51784,-1.85209 -0.17661,-0.87312 -0.59821,-2.19856 -0.93688,-2.94542 -0.33867,-0.74685 -0.69682,-1.78997 -0.79588,-2.31802 -0.0991,-0.52806 -0.28568,-1.02535 -0.41471,-1.10509 -0.12902,-0.0797 -0.23459,-0.41577 -0.23459,-0.74673 0,-0.33097 -0.0851,-0.68689 -0.18921,-0.79096 -0.30612,-0.30612 -0.8555,-2.53473 -1.1165,-4.52919 -0.1333,-1.01865 -0.43706,-2.74506 -0.67502,-3.83646 -0.24015,-1.10143 -0.49245,-3.80913 -0.56703,-6.08542 -0.11499,-3.5096 -0.0537,-4.48261 0.42487,-6.74687 0.30759,-1.45521 0.67085,-3.3273 0.80725,-4.16019 0.2275,-1.38907 1.17139,-3.85777 1.59597,-4.17419 0.0976,-0.0728 0.25446,-0.37919 0.3485,-0.68096 0.094,-0.30177 0.37797,-0.78127 0.63097,-1.06556 0.253,-0.28428 0.67211,-0.93035 0.93137,-1.4357 0.88246,-1.72013 6.29598,-6.60736 7.31888,-6.60736 0.15374,0 0.27954,-0.11104 0.27954,-0.24676 0,-0.13571 0.26789,-0.33035 0.59531,-0.43253 0.32742,-0.10218 0.65484,-0.26943 0.7276,-0.37167 0.0728,-0.10225 1.08479,-0.43528 2.24896,-0.74008 1.16417,-0.3048 2.83104,-0.76418 3.70417,-1.02085 2.11877,-0.62286 11.84653,-0.70046 14.2875,-0.11398 0.87312,0.20978 1.64703,0.45395 1.71979,0.54259 0.0728,0.0887 0.78713,0.30819 1.5875,0.48787 1.24983,0.28059 4.62803,1.73719 5.02708,2.16755 0.66638,0.71867 2.66277,2.10328 3.24236,2.24874 0.39951,0.10028 0.72639,0.27494 0.72639,0.38814 0,0.30712 2.50017,2.91181 2.79496,2.91181 0.13994,0 0.49106,0.32528 0.78026,0.72284 0.77815,1.06971 4.23823,4.90594 6.28051,6.96327 0.98227,0.9895 1.78594,1.90376 1.78594,2.03168 0,0.33344 1.59165,1.75408 2.43533,2.17368 0.39355,0.19573 1.13891,0.9935 1.65635,1.77283 0.51745,0.77932 1.05292,1.41695 1.18995,1.41695 0.3074,0 2.1267,1.8475 2.1267,2.15966 0,0.30863 1.27316,1.58187 2.28249,2.28263 0.455,0.31591 1.03574,1.0232 1.29053,1.57177 0.25479,0.54857 0.64577,1.20649 0.86884,1.46204 0.22308,0.25556 0.31393,0.55321 0.2019,0.66146 -0.11203,0.10825 -0.39903,-0.0948 -0.63778,-0.4513 -0.8804,-1.31445 -2.23422,-2.79316 -2.96305,-3.23639 -0.41228,-0.25072 -0.96078,-0.78896 -1.21889,-1.19609 -0.40207,-0.63419 -1.8122,-2.05819 -7.23237,-7.3035 -0.50932,-0.4929 -1.29628,-1.30139 -1.74879,-1.79666 -0.45251,-0.49527 -1.02604,-1.01956 -1.2745,-1.16508 -0.24846,-0.14552 -0.65213,-0.61636 -0.89704,-1.04631 -0.24491,-0.42996 -1.3085,-1.65611 -2.36353,-2.72479 -1.05502,-1.06867 -1.91822,-2.08959 -1.91822,-2.26871 0,-0.17911 -0.2679,-0.50077 -0.59532,-0.7148 -0.32742,-0.21402 -1.46436,-1.2409 -2.52652,-2.28194 -1.06217,-1.04104 -2.22772,-1.96722 -2.59011,-2.05818 -0.36239,-0.091 -1.00212,-0.49338 -1.42163,-0.89428 -0.4195,-0.4009 -1.33754,-1.01139 -2.0401,-1.35665 -0.70255,-0.34526 -1.5934,-0.84724 -1.97967,-1.11552 -0.38626,-0.26828 -1.02157,-0.48778 -1.41178,-0.48778 -0.65742,0 -2.96261,-0.49363 -5.16196,-1.10539 -1.12892,-0.31401 -8.61265,-0.11713 -10.45104,0.27494 -0.7276,0.15518 -2.15635,0.41508 -3.175,0.57755 -1.65638,0.2642 -4.07418,1.12936 -5.15937,1.84617 -0.21829,0.14419 -1.10162,0.70789 -1.96297,1.25267 -1.43683,0.90877 -5.70995,4.91385 -5.70995,5.35178 0,0.32553 -0.84584,1.95658 -1.44296,2.78249 -0.31563,0.43657 -0.72936,1.21047 -0.91939,1.71979 -0.19004,0.50933 -0.49197,1.28323 -0.67095,1.7198 -0.17898,0.43656 -0.46647,1.80578 -0.63886,3.0427 -0.1724,1.23693 -0.43939,2.84428 -0.5933,3.57188 -0.31682,1.49768 -0.16208,7.86895 0.25061,10.31875 0.14708,0.87312 0.40021,2.54 0.56251,3.70417 0.1623,1.16416 0.40865,2.35479 0.54744,2.64583 0.1388,0.29104 0.42465,1.18401 0.63524,1.98437 0.21058,0.80037 0.50829,1.8124 0.66156,2.24896 1.021,2.90802 1.6081,4.95544 1.6081,5.60797 0,0.41612 0.15784,0.99143 0.35075,1.27847 0.19292,0.28704 0.56745,1.23627 0.83229,2.1094 0.26484,0.87312 0.68071,1.88515 0.92415,2.24895 0.53019,0.79232 1.16894,2.89748 0.94662,3.1198 -0.16328,0.16328 -3.58298,-3.09745 -3.58298,-3.41642 0,-0.0988 -0.38695,-0.59898 -0.85989,-1.11153 -2.08343,-2.25791 -2.84427,-3.20251 -2.84427,-3.53124 0,-0.19375 -0.11907,-0.35227 -0.26459,-0.35227 -0.14552,0 -0.26458,-0.15443 -0.26458,-0.34318 0,-0.18875 -0.47625,-0.80822 -1.05833,-1.37661 -0.58209,-0.56839 -1.05834,-1.13332 -1.05834,-1.25539 0,-0.12207 -0.23664,-0.47596 -0.52587,-0.78641 -0.28923,-0.31045 -0.60014,-0.96032 -0.69091,-1.44414 -0.0908,-0.48383 -0.25755,-0.87969 -0.37063,-0.87969 -0.34954,0 -2.82991,-5.34783 -3.12926,-6.74687 -0.15568,-0.72761 -0.36207,-1.97776 -0.45865,-2.77813 -0.0966,-0.80036 -0.2655,-1.57427 -0.37538,-1.71979 -0.64616,-0.85576 -0.89408,-11.07996 -0.34324,-14.15521 0.82065,-4.58155 1.09605,-5.99521 1.26282,-6.48229 0.62093,-1.81345 1.56087,-3.82997 1.78685,-3.83342 0.10914,-0.002 0.19917,-0.15187 0.20007,-0.33377 9e-4,-0.1819 0.16337,-0.62838 0.36105,-0.99219 0.19767,-0.3638 0.70296,-1.31506 1.12284,-2.1139 0.41989,-0.79885 1.44805,-2.12808 2.28479,-2.95384 0.83675,-0.82576 1.52136,-1.62139 1.52136,-1.76807 0,-0.32904 2.10496,-2.15735 2.49502,-2.16709 0.1557,-0.004 0.79931,-0.48014 1.43024,-1.05833 0.63093,-0.5782 1.31554,-1.05126 1.52136,-1.05126 0.20581,0 0.37421,-0.11907 0.37421,-0.26459 0,-0.14552 0.12143,-0.26458 0.26984,-0.26458 0.14841,0 0.74136,-0.29766 1.31766,-0.66146 0.5763,-0.3638 1.1896,-0.66146 1.36289,-0.66146 0.62909,0 3.66419,-1.64075 3.66419,-1.98083 0,-0.62421 2.69485,-3.31083 3.32097,-3.31083 0.40434,0 0.68893,-0.25433 0.92656,-0.82802 0.18864,-0.45541 0.62217,-1.10721 0.9634,-1.44844 0.34124,-0.34124 0.68911,-0.96384 0.77305,-1.38356 0.34961,-1.74804 1.45157,-2.29476 5.69322,-2.82464 0.67438,-0.0842 1.86332,-0.38606 2.64209,-0.67071 1.49677,-0.54709 3.10992,-0.66815 3.87441,-0.29075 0.25268,0.12474 0.83498,0.4224 1.294,0.66146 0.45902,0.23906 1.06822,0.43466 1.35378,0.43466 0.48238,0 2.29008,0.62901 4.16165,1.44809 1.51166,0.66157 2.38849,0.89678 3.96875,1.0646 2.36323,0.25097 3.84783,0.65332 5.48651,1.48692 0.74914,0.38109 1.17421,0.27233 1.6251,-0.41583 0.23408,-0.35724 0.93238,-1.13268 1.55178,-1.72318 0.61941,-0.59051 1.54291,-1.47261 2.05223,-1.96022 1.31014,-1.2543 3.37231,-3.01144 3.84403,-3.27543 0.21964,-0.12292 0.45314,-0.50282 0.51889,-0.84423 0.21234,-1.1026 0.72682,-2.51089 1.16503,-3.18906 0.23508,-0.3638 0.66504,-1.13771 0.95547,-1.71979 0.29042,-0.58208 0.7364,-1.28914 0.99106,-1.57124 0.25466,-0.28211 0.46302,-0.63427 0.46302,-0.7826 0,-0.14832 0.42051,-0.70032 0.93446,-1.22665 l 0.93445,-0.95697 -0.53758,-0.68342 c -0.29567,-0.37588 -0.53758,-0.81347 -0.53758,-0.97241 0,-0.15895 -0.0901,-0.289 -0.20016,-0.289 -0.11009,0 -0.35757,-0.50602 -0.54995,-1.12448 -0.48389,-1.55559 -1.00101,-2.05052 -2.14244,-2.05052 -1.91766,0 -2.92828,-1.39339 -2.92828,-4.03733 0,-1.80904 -0.17429,-2.16191 -1.52372,-3.08509 -1.01346,-0.69334 -1.8456,-2.38121 -2.25241,-4.56872 -0.24585,-1.32201 -0.21418,-1.87697 0.20261,-3.55074 0.27171,-1.0911 0.59159,-2.04413 0.71085,-2.11784 0.11926,-0.0737 0.21684,-0.31326 0.21684,-0.53235 0,-0.70947 2.66106,-2.66077 5.77352,-4.2336 0.91987,-0.46484 1.8739,-1.02745 2.12008,-1.25023 0.71158,-0.64397 2.88118,-1.13873 3.44618,-0.78588 0.26424,0.16502 1.00026,0.23538 1.67113,0.15977 0.97656,-0.11008 1.51211,0.0177 2.88746,0.68864 0.9287,0.45308 1.84038,0.82379 2.02596,0.82379 0.54119,0 4.42944,4.0081 4.91555,5.06707 0.2439,0.53131 0.44345,1.33498 0.44345,1.78593 0,0.45095 0.0931,0.81991 0.20682,0.81991 0.19375,0 0.60167,1.21503 1.02153,3.04271 0.10029,0.43656 0.47985,1.32953 0.84347,1.98438 0.36361,0.65484 0.86055,1.54781 1.10429,1.98437 0.24374,0.43656 0.58214,1.86531 0.75199,3.175 0.52347,4.03628 0.61159,4.48934 0.92638,4.7625 0.45051,0.39095 1.17313,2.03651 1.77361,4.03888 0.32663,1.0892 0.18632,2.44195 -0.39531,3.81119 -0.14633,0.34448 0.0863,0.56291 1.05676,0.99218 0.68441,0.30275 1.71266,0.55046 2.28498,0.55046 1.0252,0 1.0386,0.0127 0.90604,0.85989 -0.15397,0.98408 -1.23934,2.04861 -2.09479,2.05458 -0.31931,0.002 -0.4615,0.0915 -0.31598,0.19843 0.42825,0.31463 0.99527,1.44489 1.21612,2.4241 0.24483,1.08555 -0.24991,2.47028 -1.06429,2.97887 -0.61124,0.38172 -0.72079,0.90767 -0.22358,1.07341 0.23824,0.0794 0.20126,0.29744 -0.13839,0.8158 -0.36062,0.55038 -0.38297,0.70742 -0.10068,0.70742 0.19956,0 0.55768,0.496 0.79581,1.10223 0.46152,1.17492 0.31292,1.64524 -0.61262,1.939 -0.40714,0.12922 -0.45734,0.36908 -0.34396,1.64351 0.28677,3.22336 1.64475,4.94051 4.57263,5.78205 0.3638,0.10457 1.25677,0.56164 1.98438,1.01573 2.12487,1.32611 2.51676,1.44514 5.09544,1.54776 1.41469,0.0563 2.58282,0.23069 2.7649,0.41277 0.1734,0.1734 0.52029,0.31528 0.77086,0.31528 0.51541,0 2.82503,2.13743 3.50226,3.24115 0.41447,0.6755 0.57185,0.7276 2.19776,0.7276 0.99812,0 2.53629,-0.23378 3.57654,-0.54358 1.00388,-0.29896 2.05851,-0.46953 2.34363,-0.37904 0.44241,0.14041 0.5201,0.0359 0.53001,-0.71319 0.006,-0.48275 0.18319,-1.35398 0.39289,-1.93606 0.20971,-0.58209 0.38307,-1.3192 0.38526,-1.63803 0.002,-0.31884 0.12305,-0.65329 0.26857,-0.74322 0.14552,-0.0899 0.27145,-0.48392 0.27984,-0.87551 0.008,-0.3916 0.23391,-1.54543 0.50116,-2.56408 0.26725,-1.01864 0.38958,-1.97114 0.27185,-2.11666 -0.11773,-0.14552 -0.29788,-1.11544 -0.40035,-2.15538 -0.23095,-2.344 0.19237,-4.20226 1.38965,-6.10014 0.47755,-0.757 0.86827,-1.49122 0.86827,-1.6316 0,-0.14038 0.0893,-0.29493 0.19844,-0.34344 0.34196,-0.15198 1.66212,-2.97183 1.65778,-3.54101 -0.002,-0.29831 -0.14431,-0.68256 -0.31563,-0.85388 -0.17469,-0.1747 -0.2946,-0.95318 -0.27304,-1.77271 l 0.0385,-1.46122 h -1.1544 c -0.87743,0 -1.30338,-0.15479 -1.77535,-0.64517 -0.34153,-0.35484 -0.62191,-0.82976 -0.62308,-1.05538 -10e-4,-0.22561 -0.0789,-0.38177 -0.17279,-0.34701 -0.0939,0.0348 -0.42128,-0.16363 -0.7276,-0.44084 -0.62261,-0.56345 -0.72801,-1.3384 -0.22622,-1.66317 0.20946,-0.13556 -0.0542,-0.26256 -0.71913,-0.34634 -0.95824,-0.12075 -1.05059,-0.20156 -1.05833,-0.92605 -0.008,-0.78946 -0.0604,-0.82388 -1.35283,-0.89552 -0.30283,-0.0168 -0.71089,-0.33002 -0.9068,-0.69607 -0.31416,-0.58702 -0.28821,-0.79291 0.21988,-1.7448 0.73065,-1.36884 0.7225,-1.59317 -0.0854,-2.35215 -0.36381,-0.34177 -0.66146,-0.77925 -0.66146,-0.97216 0,-0.19292 -0.10555,-0.35075 -0.23456,-0.35075 -0.22133,0 -0.38747,-0.58392 -0.73231,-2.57387 -0.1246,-0.71902 -0.2222,-0.81437 -0.61723,-0.60296 -0.54758,0.29306 -1.5909,-0.45329 -1.5909,-1.13807 0,-0.22901 -0.11073,-0.48481 -0.24607,-0.56845 -0.37025,-0.22883 -0.62458,-2.8161 -0.37227,-3.78707 0.30341,-1.16765 1.74012,-2.89458 3.46293,-4.16247 0.7905,-0.58175 1.82902,-1.38516 2.30783,-1.78534 0.47881,-0.40019 0.95731,-0.72761 1.06333,-0.72761 0.10603,0 0.94952,-0.529 1.87444,-1.17556 3.06221,-2.14064 6.68711,-2.25047 8.67475,-0.26283 0.62445,0.62446 1.15338,0.90923 1.68878,0.90923 1.1223,0 2.25715,0.64598 3.38275,1.92554 0.54051,0.61444 1.37459,1.55654 1.85351,2.09355 0.72511,0.81307 0.90176,1.26584 1.05608,2.70685 0.10193,0.95176 0.11872,1.90402 0.0373,2.11614 -0.0814,0.21212 -0.17337,2.28298 -0.20438,4.60191 -0.0638,4.77275 -0.15316,4.50485 2.38173,7.14292 0.74233,0.77254 1.34968,1.56819 1.34968,1.76811 0,0.19991 0.2261,0.43524 0.50244,0.52295 0.78909,0.25045 1.6952,1.28294 4.03694,4.60001 1.19644,1.69476 2.33141,3.23872 2.52215,3.43102 0.19075,0.19229 0.34681,0.51609 0.34681,0.71955 0,0.20347 0.21444,0.76051 0.47654,1.23788 1.1619,2.11621 1.33302,4.51789 0.42407,5.95186 -0.20429,0.3223 -0.37145,0.82129 -0.37145,1.10886 0,0.28758 -0.11906,0.59645 -0.26458,0.68639 -0.33114,0.20465 -0.34877,4.44174 -0.023,5.53746 0.51556,1.73428 0.86068,3.53072 1.0054,5.23338 0.11928,1.40324 0.28157,1.89778 0.77488,2.36122 0.3432,0.32242 0.624,0.68453 0.624,0.80468 0,0.47852 -0.87713,0.17578 -1.60785,-0.55493 -0.56761,-0.56761 -0.7734,-1.02618 -0.7734,-1.72338 0,-0.5225 -0.10937,-1.15673 -0.24304,-1.40942 -0.13368,-0.25269 -0.43702,-2.00724 -0.6741,-3.89901 -0.23709,-1.89177 -0.53491,-3.73724 -0.66184,-4.10104 -0.12692,-0.36381 -0.44122,-1.37584 -0.69844,-2.24896 -0.25721,-0.87313 -0.54555,-1.64703 -0.64074,-1.71979 -0.0952,-0.0728 -0.38107,-0.72761 -0.63529,-1.45521 -0.25422,-0.72761 -0.57072,-1.52966 -0.70334,-1.78235 -0.31075,-0.59209 -0.3047,-2.60228 0.009,-3.09865 0.18903,-0.29878 0.27546,-0.22601 0.39282,0.33073 0.0828,0.3926 0.2191,1.04123 0.30297,1.44141 0.0839,0.40019 0.66911,1.79917 1.30053,3.10886 0.63143,1.30968 1.20825,2.55984 1.28183,2.77812 0.0736,0.21828 0.14318,0.0327 0.15467,-0.41245 0.0115,-0.44513 0.1957,-1.04044 0.40935,-1.32292 0.43316,-0.57268 0.53703,-2.7833 0.16417,-3.49374 -0.13262,-0.25269 -0.44925,-1.05474 -0.70362,-1.78235 -0.25437,-0.7276 -0.71502,-1.56104 -1.02368,-1.85208 -0.30865,-0.29104 -1.37713,-1.75498 -2.3744,-3.25319 -0.99726,-1.49821 -2.3331,-3.25895 -2.96852,-3.91276 -0.63543,-0.6538 -1.15533,-1.2537 -1.15533,-1.3331 0,-0.0794 -0.62507,-0.79876 -1.38906,-1.59858 -1.6703,-1.74864 -1.76185,-1.9008 -2.00454,-3.33164 l -0.19043,-1.12281 -1.28422,-0.082 c -1.51811,-0.0969 -2.5363,-0.68388 -2.54974,-1.46978 -0.007,-0.4158 -0.14513,-0.28557 -0.52297,0.49345 -0.99367,2.04874 -2.21752,2.94601 -2.94949,2.16244 -0.27225,-0.29145 -0.4948,-0.30963 -1.01308,-0.0827 -0.36529,0.15993 -0.7237,0.35273 -0.79647,0.42845 -0.36663,0.38156 -1.37509,0.79812 -1.59826,0.66019 -0.1396,-0.0863 -0.25382,-0.44452 -0.25382,-0.79609 0,-0.35157 -0.3455,-1.38634 -0.76778,-2.29948 -0.62241,-1.3459 -1.00019,-1.79805 -1.99516,-2.38788 -0.67506,-0.40018 -1.40694,-0.7276 -1.6264,-0.7276 -0.44238,0 -1.41658,-1.92637 -1.42568,-2.8191 -0.005,-0.51476 -0.11502,-0.55712 -1.13029,-0.43614 -1.60288,0.19099 -2.46583,0.60979 -2.95184,1.43254 -0.402,0.68054 -0.3879,0.98914 0.1014,2.21957 0.11574,0.29104 0.36213,1.03518 0.54753,1.65365 0.1854,0.61846 0.43036,1.12448 0.54436,1.12448 0.114,0 0.41529,-0.35215 0.66953,-0.78254 0.58486,-0.99008 1.75552,-1.50474 2.67968,-1.17806 1.10259,0.38976 0.98698,0.82265 -0.27004,1.01115 -0.6906,0.10356 -1.2996,0.38038 -1.52508,0.69322 -0.20646,0.28644 -0.53761,0.52081 -0.73589,0.52081 -0.19829,0 -0.31041,0.14883 -0.24917,0.33073 0.18396,0.5464 1.60187,0.38039 2.25988,-0.26459 0.57469,-0.56331 1.65181,-0.82511 1.63282,-0.39687 -0.0148,0.3345 -0.88792,1.27097 -1.65124,1.77111 -0.58519,0.38344 -0.79964,0.41141 -1.11941,0.14602 -0.33752,-0.28011 -0.39693,-0.19736 -0.40493,0.56401 -0.005,0.49077 -0.17953,1.18995 -0.3875,1.55376 -0.53375,0.9337 -0.49324,1.05833 0.34396,1.05833 0.93138,0 1.37583,0.43448 1.37583,1.34497 0,0.73438 0.50241,1.02488 1.78594,1.03267 0.73321,0.004 0.75182,0.26501 0.0711,0.99566 l -0.5242,0.56266 0.85493,0.0825 c 0.71098,0.0686 0.84129,0.18103 0.77392,0.66746 -0.0446,0.32171 0.0567,0.84227 0.22504,1.1568 0.26808,0.50091 0.45871,0.55224 1.53622,0.4137 1.62637,-0.20912 4.6555,-1.70494 5.15628,-2.54624 0.37931,-0.63722 0.81974,-0.90755 3.21764,-1.97489 0.58208,-0.25909 1.24643,-0.5653 1.47632,-0.68045 0.22989,-0.11515 1.22724,-0.29603 2.21633,-0.40195 2.60372,-0.27884 2.19869,0.32429 -0.92289,1.37429 -1.36792,0.46013 -2.84838,1.04252 -3.28991,1.29422 -1.02636,0.58508 -2.25765,1.72197 -2.25908,2.08587 -6.1e-4,0.15468 -0.29827,0.86696 -0.66146,1.58284 -0.36319,0.71589 -0.66035,1.52739 -0.66035,1.80333 0,0.61153 -0.46391,1.52527 -0.77438,1.52527 -0.67568,0 -0.51191,-2.2058 0.27993,-3.77031 0.37418,-0.73931 -0.36397,-0.56835 -1.16755,0.2704 -0.66571,0.69486 -0.69976,0.85988 -0.64735,3.13761 0.0512,2.22484 0.0819,2.34919 0.41233,1.66702 0.36605,-0.75581 0.98876,-1.17489 1.21113,-0.81509 0.0686,0.11107 -0.28111,1.0286 -0.77723,2.03897 -0.49611,1.01036 -0.90615,2.01562 -0.91119,2.2339 -0.005,0.21828 -0.3147,0.99219 -0.68814,1.71979 -0.37344,0.7276 -0.8421,1.79917 -1.04147,2.38125 -0.43511,1.27034 -0.77322,5.43858 -0.47402,5.84383 0.11677,0.15817 0.86716,0.3963 1.66752,0.52917 0.80037,0.13287 1.45521,0.36065 1.45521,0.50617 0,0.36469 -2.52119,0.49506 -2.86795,0.14829 -0.15433,-0.15432 -0.46514,-0.27876 -0.6907,-0.27653 -0.26602,0.003 -0.30664,0.0723 -0.11562,0.19843 0.20582,0.13587 0.22706,0.74665 0.0706,2.02883 -0.12316,1.00894 -0.18289,1.87547 -0.13274,1.92563 0.0502,0.0502 0.41312,-0.0312 0.80657,-0.18079 1.14342,-0.43473 2.9612,-0.33516 3.4875,0.19103 0.44108,0.44099 0.36328,0.47782 -1.63474,0.77388 -1.15383,0.17097 -2.23225,0.3198 -2.3965,0.33073 -0.16425,0.0109 -0.44207,0.40682 -0.61738,0.87977 -0.17532,0.47294 -0.42789,1.06664 -0.56127,1.31932 -0.13338,0.25269 -0.24251,0.80366 -0.24251,1.22438 0,0.42072 -0.1786,0.91316 -0.39688,1.09432 -0.33683,0.27955 -0.39687,0.2164 -0.39687,-0.4174 0,-1.30233 -0.5253,-0.32547 -0.61492,1.14352 -0.0666,1.09082 -0.27464,1.60438 -1.05689,2.60843 -0.53571,0.68762 -0.97403,1.32682 -0.97403,1.42045 0,0.32845 -2.03926,1.06583 -2.94761,1.06583 -1.28445,0 -2.87322,1.45346 -2.87322,2.62851 0,0.93665 0.6598,2.39857 1.08252,2.39857 0.15135,0 0.50706,-0.12409 0.79046,-0.27576 0.28341,-0.15168 0.68301,-0.18144 0.888,-0.0661 0.50297,0.28288 0.0397,0.90597 -1.1186,1.5045 -1.12204,0.57979 -3.04702,2.47884 -3.6035,3.55495 -0.23855,0.46129 -0.53678,0.83871 -0.66275,0.83871 -0.3082,0 -3.10087,2.80755 -3.29445,3.312 -0.0844,0.22006 -0.42448,0.50476 -0.75563,0.63265 -0.83745,0.32344 -1.63716,1.28507 -2.13034,2.56168 -0.44835,1.16057 -0.68289,5.63003 -0.34931,6.6567 0.26554,0.81725 -0.21429,0.75371 -0.59351,-0.0786 -0.44898,-0.98541 -0.39897,-6.45184 0.0692,-7.56201 0.42329,-1.0038 1.3486,-2.08283 1.78609,-2.08283 0.31678,0 1.54099,-1.32511 1.54151,-1.66857 4e-4,-0.26631 2.65503,-2.82935 2.93046,-2.82935 0.11094,0 0.47356,-0.44648 0.80582,-0.99219 0.33227,-0.5457 0.99231,-1.35369 1.46676,-1.79554 l 0.86264,-0.80335 -0.64315,-1.31331 c -0.35374,-0.72233 -0.64688,-1.52759 -0.65143,-1.78948 -0.0123,-0.71043 0.75988,-2.09686 1.5113,-2.7133 0.6115,-0.50166 0.62949,-0.5768 0.233,-0.97329 -0.23632,-0.23631 -0.42966,-0.5473 -0.42966,-0.69109 0,-0.14379 -0.0915,-0.30112 -0.20322,-0.34963 -0.11177,-0.0485 -0.59716,-0.70817 -1.07864,-1.46591 -0.48147,-0.75775 -1.61429,-2.0689 -2.51736,-2.91368 -1.55534,-1.45495 -1.74617,-1.55306 -3.61772,-1.86003 -1.08667,-0.17823 -2.58073,-0.30316 -3.32012,-0.27761 -1.04989,0.0363 -1.54249,-0.0949 -2.24896,-0.59871 -0.49753,-0.35484 -1.44039,-0.91172 -2.09523,-1.2375 -2.44457,-1.21616 -4.21151,-2.33805 -4.69267,-2.97954 -0.64444,-0.85919 -1.0657,-2.36708 -1.24568,-4.45888 -0.11788,-1.36997 -0.26442,-1.77499 -0.79253,-2.19039 -0.35635,-0.28031 -0.88319,-1.01225 -1.17076,-1.62655 -1.43051,-3.05581 -1.68568,-3.72414 -1.81717,-4.75941 -0.0782,-0.61599 -0.2297,-1.23905 -0.33659,-1.38457 -0.1636,-0.22271 -0.53695,-1.6943 -0.67127,-2.64583 -0.24224,-1.71605 -1.23536,-4.36562 -1.63634,-4.36562 -0.72908,0 -3.66542,-2.61122 -5.49637,-4.8878 -1.4323,-1.7809 -3.2363,-3.56167 -3.42101,-3.37695 -0.083,0.083 -0.15086,0.47366 -0.15086,0.8682 0,0.39453 -0.18019,1.1486 -0.40043,1.67569 -0.39513,0.94569 -0.39207,0.95836 0.23151,0.95836 0.34757,0 1.01361,0.0763 1.4801,0.16963 1.18499,0.23699 0.49684,0.61489 -1.12913,0.62006 -2.48764,0.008 -5.82667,2.248 -6.95138,4.66354 -0.26353,0.56598 -0.54602,1.08859 -0.62775,1.16135 -0.0817,0.0728 -0.38291,0.57877 -0.66927,1.12448 -0.28636,0.5457 -0.61264,0.99219 -0.72507,0.99219 -0.11243,0 -0.20706,0.20835 -0.2103,0.46302 -0.003,0.25466 -0.23871,0.76067 -0.52328,1.12448 -0.28457,0.3638 -0.52005,0.85831 -0.52328,1.0989 -0.003,0.2406 -1.45407,1.84795 -3.22408,3.57188 -1.77,1.72393 -3.85647,3.76791 -4.63659,4.54216 -0.78012,0.77426 -1.71314,1.46119 -2.07337,1.52651 -0.36024,0.0653 -2.05401,-0.13999 -3.76394,-0.45625 -1.70992,-0.31626 -4.41864,-0.65888 -6.01937,-0.76138 -4.14674,-0.26552 -5.37806,-0.64438 -8.73125,-2.68646 -1.11377,-0.67828 -1.96892,-0.60656 -3.6773,0.30839 -0.81514,0.43656 -2.14901,1.15093 -2.96415,1.5875 -0.81514,0.43656 -1.70811,0.79375 -1.98437,0.79375 -0.27627,0 -0.5023,0.15478 -0.5023,0.34395 0,0.18918 -0.14539,0.48935 -0.3231,0.66706 -0.1777,0.1777 -0.32653,0.57373 -0.33072,0.88008 -0.005,0.35578 -0.3267,0.72857 -0.89091,1.03201 -1.32376,0.71193 -1.32937,0.82141 -0.0328,0.64099 2.52598,-0.3515 4.04395,-0.72118 4.84443,-1.17977 0.4588,-0.26285 1.13184,-0.56647 1.49564,-0.67472 0.3638,-0.10825 1.05094,-0.4606 1.52697,-0.783 l 0.86552,-0.58619 1.39659,0.68969 c 2.88822,1.4263 4.07472,1.86717 6.13279,2.2788 1.16417,0.23284 2.59292,0.63962 3.175,0.90396 0.58209,0.26433 1.35599,0.57024 1.7198,0.67979 0.3638,0.10956 0.78052,0.28727 0.92604,0.39491 0.14552,0.10765 0.60638,0.27755 1.02415,0.37756 0.41776,0.10001 0.9321,0.35437 1.14298,0.56525 0.21087,0.21088 0.70251,0.45982 1.09251,0.5532 0.39001,0.0934 1.22128,0.51041 1.84726,0.92672 1.312,0.87254 2.57508,1.55012 2.88958,1.55012 0.11966,0 0.43776,-0.40888 0.70689,-0.90863 0.26913,-0.49975 0.80222,-1.06679 1.18464,-1.26009 1.38027,-0.69768 2.68046,-1.67708 2.82867,-2.13076 0.0832,-0.25466 0.24409,-0.46302 0.35754,-0.46302 0.11345,0 0.48083,-0.23812 0.8164,-0.52916 0.33558,-0.29105 0.74395,-0.52917 0.9075,-0.52917 0.16355,0 0.93151,-0.47649 1.70657,-1.05886 0.77507,-0.58237 1.7839,-1.23856 2.24184,-1.45821 1.24243,-0.59589 2.94016,-2.27852 4.04887,-4.01285 1.17404,-1.83652 3.32951,-4.05011 4.52047,-4.64238 1.09258,-0.54335 1.31706,-0.20259 0.4426,0.67187 -0.52461,0.52461 -0.61838,0.78355 -0.41879,1.15643 0.28829,0.53858 1.53137,1.70457 3.02125,2.8339 0.54571,0.41364 0.99219,0.97912 0.99219,1.25663 0,0.48099 -0.039,0.48439 -0.83506,0.0727 -1.13574,-0.58732 -1.42874,-0.82215 -3.02708,-2.42619 l -1.38428,-1.38921 -1.08096,1.22803 c -0.59452,0.67541 -1.08095,1.39222 -1.08095,1.59291 0,0.54897 -1.28433,2.47283 -1.77703,2.6619 -0.58483,0.22442 -1.22618,0.89188 -1.81534,1.88925 -0.26976,0.45666 -0.58387,0.8303 -0.69801,0.8303 -0.45981,0 -0.16048,0.60315 0.63218,1.27385 1.36762,1.1572 2.30585,1.64265 3.48786,1.80467 1.06487,0.14595 1.17516,0.0925 2.47277,-1.19829 0.747,-0.74309 1.49507,-1.35106 1.66237,-1.35106 0.37381,0 0.0914,1.00872 -0.42783,1.52791 -0.19909,0.19908 -0.36197,0.45629 -0.36197,0.57157 0,0.11528 -0.30667,0.51628 -0.68149,0.89109 -0.65166,0.65166 -0.66434,0.71983 -0.28966,1.55744 0.2155,0.48177 0.60461,1.38196 0.86469,2.00042 0.26009,0.61847 0.63151,1.12448 0.82538,1.12448 0.19388,0 0.45439,0.26789 0.5789,0.59531 0.12452,0.32743 0.98477,1.31755 1.91168,2.20027 2.51625,2.39631 5.52175,5.62437 5.52175,5.93064 0,0.14829 0.11906,0.26961 0.26458,0.26961 0.14552,0 0.26459,0.12075 0.26459,0.26832 0,0.34621 1.62737,1.83044 2.01812,1.8406 0.16408,0.004 0.45436,0.19576 0.64507,0.42555 0.40911,0.49295 4.99926,3.55095 5.33008,3.55095 0.12509,0 0.50748,0.1835 0.84977,0.40778 0.56308,0.36894 0.66299,0.36714 1.04903,-0.0189 0.23467,-0.23467 0.42667,-0.52648 0.42667,-0.64846 0,-0.12198 0.74415,-0.99009 1.65365,-1.92914 1.86224,-1.92273 3.92738,-3.25158 4.63264,-2.98095 0.36415,0.13974 0.17522,0.355 -0.91477,1.04225 -1.27095,0.80136 -3.78402,3.18838 -3.78402,3.59422 0,0.097 -0.29765,0.45601 -0.66145,0.79778 -0.36381,0.34178 -0.66146,0.71197 -0.66146,0.82265 0,0.34787 -0.49507,1.38657 -1.18425,2.48465 -0.36533,0.58208 -0.73538,1.23692 -0.82232,1.4552 -0.087,0.21829 -0.26389,0.635 -0.39321,0.92605 -0.84838,1.90927 -0.96408,2.43808 -1.58013,7.22183 -0.27595,2.14282 -0.17554,3.62293 0.49731,7.33025 0.46266,2.54927 1.97142,6.21771 2.55721,6.21771 0.17282,0 0.53474,0.24368 0.80427,0.54151 0.56994,0.62977 1.92102,1.31262 3.05676,1.5449 0.43711,0.0894 0.81861,0.28161 0.84778,0.42713 0.0693,0.34558 -1.87526,0.50405 -2.28053,0.18585 -0.65759,-0.51631 -1.76315,-0.58017 -2.80776,-0.1622 -0.91131,0.36463 -1.0096,0.4778 -0.69138,0.79602 0.20402,0.20402 0.6034,0.37095 0.88752,0.37095 0.28411,0 1.33441,0.31126 2.334,0.69169 3.75302,1.42834 6.08203,2.03875 10.54869,2.76468 2.20591,0.35851 12.82271,0.1783 14.02291,-0.23802 0.43657,-0.15144 1.32953,-0.41581 1.98438,-0.5875 1.39306,-0.36523 4.81193,-1.49023 5.95312,-1.95892 1.18,-0.48462 2.63794,-0.93651 3.02151,-0.93651 0.45048,0 2.89031,-1.07966 4.51912,-1.99979 0.45037,-0.25442 0.52354,-0.3749 0.22929,-0.37756 -0.53247,-0.005 -0.74801,-0.75443 -0.76189,-2.64973 l -0.0107,-1.45521 -0.44042,0.70997 c -0.54334,0.8759 -1.36481,1.12149 -1.9574,0.5852 -0.34178,-0.3093 -0.43684,-0.80538 -0.40369,-2.10664 0.0239,-0.93614 0.0355,-1.70207 0.026,-1.70207 -0.01,0 -0.46446,0.4095 -1.01089,0.91001 -0.54642,0.5005 -1.58172,1.10539 -2.30066,1.34418 -0.71894,0.23879 -1.30716,0.5146 -1.30716,0.6129 0,0.0983 -0.38695,0.34332 -0.8599,0.54448 -0.47294,0.20117 -1.5725,0.70648 -2.44345,1.12292 -0.87096,0.41645 -1.8462,0.75717 -2.1672,0.75717 -0.321,0 -0.64641,0.10158 -0.72314,0.22572 -0.1833,0.29659 -3.4148,0.78202 -6.24671,0.93837 -2.41024,0.13307 -8.12418,-0.41921 -8.91187,-0.86138 -0.45803,-0.25711 -0.45802,-0.27399 3.3e-4,-0.45056 0.2619,-0.1009 1.15487,-0.0413 1.98437,0.13244 1.78048,0.37292 8.90779,0.24464 10.50403,-0.18905 0.58208,-0.15816 1.59411,-0.42514 2.24895,-0.59329 1.27813,-0.32822 2.10166,-0.64035 3.21583,-1.21885 0.38625,-0.20056 0.89227,-0.36465 1.12448,-0.36465 0.23221,0 0.42264,-0.0893 0.42319,-0.19843 5.4e-4,-0.10914 0.56609,-0.41596 1.25677,-0.68183 1.96187,-0.75518 3.81666,-1.7657 4.27603,-2.32966 0.23063,-0.28314 0.71154,-0.6598 1.06868,-0.83703 0.73055,-0.36252 2.49883,-2.55035 2.25686,-2.79232 -0.0863,-0.0863 -0.23968,-0.0385 -0.34091,0.10617 -0.29363,0.41964 -1.44501,1.0779 -2.21836,1.26826 -0.85177,0.20968 -1.15316,-0.16049 -1.0437,-1.28187 0.1168,-1.19668 0.71088,-1.92668 2.09335,-2.57231 0.68709,-0.32087 1.54568,-0.85567 1.908,-1.18844 0.54331,-0.499 0.95624,-0.60504 2.35627,-0.60504 1.41208,0 1.84632,-0.11349 2.58239,-0.67492 0.50923,-0.38841 0.88487,-0.91125 0.88487,-1.23163 0,-0.49542 -0.051,-0.51579 -0.46302,-0.18497 -0.7442,0.59748 -1.61435,1.03319 -2.06336,1.03319 -0.601,0 -3.10464,0.84433 -3.4837,1.17484 -0.81837,0.71356 -1.15338,0.96169 -1.97349,1.46169 -0.48398,0.29507 -1.11809,0.53315 -1.40913,0.52907 -0.61654,-0.009 -1.45521,-0.58286 -1.45521,-0.99634 0,-0.66756 -0.50422,-0.51359 -0.91852,0.28047 -1.63967,3.14265 -2.62742,4.6658 -3.28505,5.06569 -0.21651,0.13165 -0.88645,0.74642 -1.48875,1.36614 -1.71849,1.76819 -3.65544,2.5015 -7.66914,2.90348 -1.01865,0.10201 -1.97115,0.27243 -2.11667,0.37871 -0.14552,0.10628 -2.05052,0.34111 -4.23333,0.52185 -2.18281,0.18074 -4.10858,0.36979 -4.27948,0.42012 -0.17091,0.0503 -0.49884,0.48789 -0.72874,0.97238 -0.5717,1.20476 -4.38308,3.61174 -5.75794,3.63628 -1.42706,0.0255 -1.12097,-0.70817 0.52682,-1.26268 0.85659,-0.28826 1.52336,-0.73553 3.38342,-2.26962 1.02951,-0.8491 1.69654,-1.95377 1.69654,-2.80965 0,-0.54781 0.7221,-1.55801 2.70491,-3.78414 0.54181,-0.6083 0.98903,-1.34412 0.99382,-1.63516 0.005,-0.29105 0.17712,-0.85201 0.38297,-1.24659 0.20585,-0.39459 0.5478,-1.04943 0.75989,-1.45521 0.21209,-0.40578 0.50705,-1.03544 0.65546,-1.39925 0.72452,-1.77604 1.15463,-2.63752 1.3892,-2.7825 0.14163,-0.0875 0.2575,-0.51522 0.2575,-0.95042 0,-0.88136 0.66608,-2.35249 1.06513,-2.35249 0.14179,0 0.25779,-0.12701 0.25779,-0.28224 0,-0.15523 0.32742,-0.72078 0.72761,-1.25677 0.70804,-0.94834 0.89946,-1.19101 1.5875,-2.01252 0.1819,-0.21719 0.33072,-0.51898 0.33072,-0.67064 0,-0.15166 0.11907,-0.27575 0.26459,-0.27575 0.14552,0 0.26458,-0.1492 0.26458,-0.33156 0,-0.18236 0.62508,-0.98604 1.38906,-1.78594 l 1.38907,-1.45437 0.0642,-2.24896 c 0.0775,-2.71603 0.40451,-4.94014 0.78181,-5.31745 0.19399,-0.19399 0.1381,-0.5712 -0.18528,-1.25048 -0.81485,-1.71164 -0.88769,-2.16383 -0.3478,-2.15921 0.30957,0.003 0.70314,0.45723 1.10492,1.27618 l 0.62406,1.27207 -0.55792,1.15476 c -0.47047,0.97377 -0.55792,1.64276 -0.55792,4.26809 v 3.11331 l 0.9826,0.18434 c 0.54042,0.10138 1.42117,0.4342 1.95722,0.73959 1.81909,1.03636 3.93934,2.53202 3.93934,2.77888 0,0.81023 -1.91849,0.0949 -3.64722,-1.35993 -0.47801,-0.40227 -1.04356,-0.7314 -1.25677,-0.7314 -0.21322,0 -0.38767,-0.11906 -0.38767,-0.26459 0,-0.14552 -0.21431,-0.26458 -0.47625,-0.26458 -0.26194,0 -0.62003,-0.14378 -0.79577,-0.31951 -0.24962,-0.24963 -0.43238,-0.17729 -0.83554,0.33073 -0.28382,0.35763 -1.11922,1.40584 -1.85645,2.32935 -0.73722,0.92352 -1.52948,2.05461 -1.76057,2.51355 -0.23109,0.45893 -0.85941,1.3702 -1.39627,2.02505 -0.95979,1.17071 -1.87499,2.83859 -1.87499,3.41701 0,0.16188 -0.10517,0.50108 -0.23371,0.75377 -0.12854,0.25268 -0.35241,0.75708 -0.49749,1.12088 -0.86221,2.16212 -1.22418,2.91042 -1.40782,2.91042 -0.11361,0 -0.28974,0.26789 -0.3914,0.59531 -0.10166,0.32743 -0.40734,0.91135 -0.67929,1.29762 -0.27195,0.38626 -0.49445,0.88687 -0.49445,1.11245 0,0.22558 -0.26789,0.69259 -0.59531,1.03778 -0.32743,0.3452 -1.04594,1.104 -1.59669,1.68624 -0.69629,0.73608 -0.94756,1.19885 -0.82473,1.51893 0.15347,0.39994 0.47575,0.44664 2.45658,0.35594 3.39099,-0.15527 9.348,-0.75281 9.95286,-0.99835 0.29104,-0.11815 1.12448,-0.42224 1.85208,-0.67574 2.01122,-0.70074 3.6678,-2.05566 5.58799,-4.57046 0.86902,-1.13812 2.4818,-4.26891 2.4818,-4.81776 0,-0.13537 0.0908,-0.24613 0.20184,-0.24613 0.11102,0 0.31938,-0.23007 0.46303,-0.51128 1.4995,-2.93543 2.04538,-3.86117 3.28686,-5.57413 0.79101,-1.09141 1.54014,-2.05402 1.66474,-2.13914 0.1246,-0.0851 0.5669,-0.87444 0.9829,-1.75406 0.41599,-0.87962 0.89713,-1.68631 1.06919,-1.79265 0.51188,-0.31636 1.99212,-2.82838 2.37416,-4.02901 0.25238,-0.79317 0.27395,-1.21403 0.0746,-1.45521 -0.15426,-0.18662 -0.34202,-1.17274 -0.41724,-2.19139 -0.26798,-3.62866 -0.80134,-6.23593 -1.3715,-6.70429 -0.86382,-0.70962 -1.63753,-1.95103 -1.95821,-3.14196 -0.16442,-0.61058 -0.44634,-1.26433 -0.6265,-1.45278 -0.18016,-0.18845 -0.63247,-0.93795 -1.00512,-1.66555 -0.37266,-0.72761 -0.97224,-1.8587 -1.3324,-2.51354 -0.36016,-0.65485 -0.80096,-1.69165 -0.97955,-2.304 -0.1786,-0.61236 -0.42377,-1.17459 -0.54484,-1.24942 -0.26488,-0.1637 -1.61238,0.42787 -1.61531,0.70914 -10e-4,0.10914 -0.24019,0.19844 -0.53123,0.19844 -0.72954,0 -0.66394,-0.32893 0.26362,-1.32189 0.78151,-0.8366 0.78634,-0.85959 0.33983,-1.61548 -0.24913,-0.42174 -0.52945,-0.76679 -0.62293,-0.76679 -0.30757,0 -1.54199,-2.6307 -1.30357,-2.77805 0.12814,-0.0792 0.38896,0.0478 0.57958,0.28222 0.19063,0.23442 0.70378,0.81177 1.14034,1.283 1.59438,1.72098 2.52443,2.94612 2.67818,3.52793 0.0865,0.32742 0.24125,0.59531 0.34383,0.59531 0.10259,0 0.35757,0.44118 0.56663,0.98041 0.20906,0.53922 0.58922,1.34289 0.8448,1.78593 0.25558,0.44305 0.61034,1.10319 0.78837,1.467 0.17802,0.3638 0.39382,0.72098 0.47957,0.79375 0.249,0.2113 1.0455,2.35112 1.0455,2.80878 0,0.22925 0.2225,0.73285 0.49445,1.11912 0.27195,0.38627 0.58566,0.99996 0.69712,1.36376 0.11147,0.3638 0.28165,0.72099 0.37819,0.79375 0.0965,0.0728 0.46193,0.54192 0.81199,1.04258 0.62564,0.89481 0.87073,1.88948 1.30777,5.30742 0.23462,1.83493 0.70573,3.83755 1.06181,4.51369 0.69035,1.31084 1.39911,6.93715 1.52124,12.07592 0.0836,3.51765 0.16771,4.26122 0.46891,4.14564 0.46398,-0.17805 3.57727,1.9947 3.57727,2.49656 0,0.69771 -2.57125,-0.45447 -3.43959,-1.54129 -0.30298,-0.37921 -1.06661,-0.47941 -1.38625,-0.18188 -0.92083,0.85713 -2.18363,1.31396 -3.59702,1.30126 -1.26397,-0.0114 -1.60405,0.0978 -2.35301,0.75542 -0.48153,0.42279 -1.19242,0.84824 -1.57976,0.94546 -0.64954,0.16302 -1.90405,1.29838 -1.92351,1.74081 -0.009,0.20406 0.83046,-0.0456 1.04997,-0.31224 0.57935,-0.70381 1.73062,-1.30726 2.24684,-1.1777 0.47496,0.11921 0.7139,-0.0421 1.1803,-0.79671 0.65624,-1.06183 1.07078,-1.21654 1.07078,-0.39963 0,0.64353 -0.40669,1.46076 -1.09412,2.19864 -0.27136,0.29127 -0.49338,0.69977 -0.49338,0.90778 0,0.20801 -0.35719,0.78502 -0.79375,1.28224 -0.43656,0.49721 -0.79375,1.13801 -0.79375,1.42399 0,0.28598 -0.10604,0.51996 -0.23564,0.51996 -0.1296,0 -0.30254,0.38695 -0.38432,0.85989 -0.0818,0.47295 -0.22986,1.26377 -0.32907,1.75738 -0.12897,0.6416 -0.0943,0.84425 0.12168,0.71078 0.3943,-0.24369 1.35651,-2.24136 1.35651,-2.81627 0,-0.86756 0.81597,-2.38541 1.40216,-2.60828 0.3264,-0.12409 0.75987,-0.53659 0.96327,-0.91665 0.20341,-0.38006 0.47251,-0.69102 0.598,-0.69102 0.5903,0 0.45974,0.96105 -0.35124,2.58563 -0.67296,1.34806 -0.92793,2.26152 -1.05076,3.76437 -0.0892,1.09141 -0.25067,2.2442 -0.35881,2.56176 -0.16414,0.48199 -0.11253,0.5554 0.31234,0.44429 0.61463,-0.16073 1.13088,-1.47714 1.13088,-2.8837 0,-1.73065 1.64776,-5.46247 2.48671,-5.63185 0.53394,-0.10781 0.54037,0.47585 0.024,2.17811 -0.42012,1.38489 -0.55388,6.24181 -0.1719,6.24181 0.47007,0 0.83622,-1.42643 0.83622,-3.25773 0,-1.43895 0.13227,-2.13723 0.5364,-2.83182 0.29503,-0.50705 0.60657,-1.13027 0.69232,-1.38493 0.18317,-0.54398 0.39897,-0.58158 0.83503,-0.14552 0.20825,0.20825 0.32747,1.41451 0.34649,3.50573 0.0238,2.61442 0.0709,2.97419 0.26185,1.99895 0.12807,-0.6541 0.17109,-1.38388 0.0956,-1.62172 -0.1394,-0.4392 0.393,-2.31834 1.09244,-3.85587 0.21168,-0.46532 0.73943,-1.09851 1.17279,-1.40708 0.43335,-0.30858 0.78791,-0.78624 0.78791,-1.06149 0,-0.27524 0.31455,-0.7921 0.69899,-1.14858 0.38444,-0.35647 0.63887,-0.80778 0.5654,-1.00289 -0.16433,-0.43643 0.48513,-8.0604 0.84162,-9.87976 0.73547,-3.75343 0.85443,-5.76773 0.69014,-11.68607 -0.12474,-4.49378 -0.089,-6.17998 0.13393,-6.31775 0.16725,-0.10336 0.39281,-0.0444 0.50125,0.13109 0.63697,1.03064 0.87943,13.99669 0.31195,16.6821 -0.52189,2.46969 -1.08785,6.3804 -1.24443,8.59896 -0.20627,2.92255 -0.27481,3.15922 -1.17584,4.06025 -0.43661,0.43661 -0.79384,1.02267 -0.79384,1.30235 0,0.27968 -0.25456,0.73533 -0.56569,1.01254 -0.74449,0.66335 -1.33414,2.0447 -1.57045,3.67903 -0.10521,0.7276 -0.28289,1.61404 -0.39485,1.96986 l -0.20357,0.64695 0.63968,-0.60977 c 0.35182,-0.33538 1.6517,-1.0747 2.88863,-1.64294 1.23693,-0.56825 2.58875,-1.22409 3.00406,-1.45744 0.93117,-0.5232 2.8541,-1.07423 5.4626,-1.56535 3.61091,-0.67984 12.21371,-0.42376 13.79191,0.41056 0.23675,0.12515 0.85152,0.30655 1.36617,0.4031 0.51465,0.0965 1.17917,0.40235 1.47672,0.67956 0.29755,0.2772 0.6374,0.50401 0.75522,0.50401 0.11783,0 0.65227,0.29766 1.18765,0.66146 0.53539,0.3638 1.14337,0.66146 1.35108,0.66146 0.20771,0 0.83911,0.42842 1.4031,0.95204 0.564,0.52362 1.4124,1.25213 1.88534,1.6189 0.47294,0.36678 0.8599,0.75744 0.8599,0.86814 0,0.1107 0.44648,0.67817 0.99219,1.26104 2.17822,2.32656 3.50616,4.01756 3.51451,4.47538 0.005,0.26498 0.35617,0.95804 0.78074,1.54012 1.20785,1.65594 2.38725,4.12443 2.56334,5.36504 0.0883,0.62244 0.26306,1.19501 0.38825,1.27238 0.31851,0.19685 0.28585,1.69696 -0.0369,1.69696 -0.14552,0 -0.26458,-0.29063 -0.26458,-0.64585 0,-0.35521 -0.11906,-0.71942 -0.26459,-0.80936 -0.14552,-0.0899 -0.26723,-0.42439 -0.27046,-0.74322 -0.003,-0.31883 -0.23872,-0.87735 -0.52329,-1.24116 -0.28457,-0.3638 -0.52004,-0.75728 -0.52328,-0.87441 -0.0138,-0.50025 -1.06614,-2.48489 -1.54952,-2.92235 -0.2895,-0.262 -0.6857,-1.01773 -0.88043,-1.67941 -0.19473,-0.66167 -0.59218,-1.39737 -0.88322,-1.63488 -0.29105,-0.2375 -1.00068,-1.02663 -1.57697,-1.75362 -1.16429,-1.46873 -4.35043,-4.62908 -4.66687,-4.62908 -0.11154,0 -0.26961,-0.20835 -0.35127,-0.46302 -0.0817,-0.25466 -0.71476,-0.67998 -1.40689,-0.94515 -0.69213,-0.26517 -1.55608,-0.65566 -1.91988,-0.86774 -0.85603,-0.49905 -2.53161,-1.25352 -3.70417,-1.66788 -4.10815,-1.45177 -13.65675,-1.15024 -16.99588,0.53669 -0.25269,0.12766 -0.58774,0.2321 -0.74456,0.2321 -0.15682,0 -0.90258,0.28202 -1.65724,0.62671 -0.75466,0.34468 -1.75347,0.7101 -2.21958,0.81204 -0.46611,0.10194 -1.12095,0.39564 -1.45521,0.65267 -0.33425,0.25704 -0.98317,0.62996 -1.44205,0.82872 -0.45887,0.19877 -1.03115,0.69461 -1.27173,1.10188 -0.49362,0.83564 -0.97028,0.93365 -1.57922,0.32471 -0.30154,-0.30154 -0.42776,-1.01029 -0.45939,-2.57969 l -0.0436,-2.16391 -0.15697,2.6048 c -0.14073,2.33541 -0.223,2.65828 -0.79549,3.12185 -0.35118,0.28437 -0.88823,0.48432 -1.19343,0.44432 -0.51014,-0.0668 -2.91533,1.0151 -3.85229,1.73292 -0.80609,0.61755 -2.04083,1.16569 -4.23334,1.87933 -1.23692,0.40261 -2.7252,0.94379 -3.30729,1.20262 -1.2036,0.5352 -4.38654,1.6114 -6.35,2.14702 -0.98666,0.26916 -3.44131,0.36089 -9.65729,0.36089 -8.21212,0 -8.37124,-0.0103 -10.84792,-0.70245 -3.53363,-0.98752 -3.87797,-1.12098 -7.58884,-2.94132 l -2.42948,-1.19177 -1.5142,0.49954 c -0.83281,0.27475 -1.78239,0.49954 -2.11017,0.49954 -1.39611,0 -3.57977,1.52565 -4.8704,3.40278 -0.21403,0.31128 -0.51168,0.5684 -0.66146,0.57138 -0.3111,0.006 -2.48886,2.88003 -3.14132,4.14541 -0.4885,0.94738 -3.23677,3.77672 -4.82111,4.96332 -0.57263,0.42887 -1.10067,0.84559 -1.17343,0.92604 -0.19048,0.21062 -0.97026,0.66417 -2.77813,1.61588 -2.7308,1.43756 -2.75039,1.65559 -0.13229,1.47264 5.39893,-0.37727 69.72958,-0.49204 86.51875,-0.15435 9.3861,0.18878 17.92685,0.34745 18.97946,0.35259 l 1.91384,0.009 0.65547,1.3355 c 0.3605,0.73453 0.80826,1.72246 0.99502,2.1954 0.33867,0.85766 0.34444,0.85989 2.22053,0.85989 1.03453,0 2.61281,0.0765 3.50729,0.16999 1.50063,0.15684 1.62631,0.12958 1.62631,-0.35278 0,-0.28752 0.0816,-0.60436 0.18133,-0.70409 0.28264,-0.28265 0.86859,-2.09519 0.87302,-2.70057 0.006,-0.76159 0.65616,-1.61817 0.91317,-1.20231 0.25721,0.41617 -0.38709,5.87351 -0.74899,6.34408 -0.22368,0.29084 -0.9434,0.32993 -3.59339,0.19514 -1.82252,-0.0927 -3.96407,-0.25637 -4.75898,-0.36369 -1.58711,-0.21429 -1.50087,-0.0872 -2.10742,-3.10556 -0.34717,-1.7276 -0.51966,-1.97343 -1.29986,-1.85255 -2.07377,0.32129 -18.94479,0.5017 -47.00576,0.50265 -34.18493,10e-4 -58.81878,-0.37135 -60.60044,-0.91637 -0.99718,-0.30505 -1.18683,-0.27093 -2.81595,0.50658 -0.96072,0.45851 -1.99924,0.83365 -2.30784,0.83365 -0.30859,0 -0.76782,0.10586 -1.0205,0.23525 -0.89256,0.45703 -2.23113,1.01213 -5.35422,2.22037 -3.40144,1.31593 -3.98712,1.51313 -4.49389,1.51313 -0.46746,0 -2.86153,1.17778 -3.17903,1.56395 -0.0728,0.0885 -0.58412,0.39789 -1.13635,0.68754 -0.90086,0.47251 -2.8362,2.19849 -2.60957,2.32727 0.0498,0.0283 0.002,0.52091 -0.10516,1.09469 -0.18882,1.00648 -1.30611,2.48673 -1.63143,2.1614 -0.13885,-0.13885 0.0578,-0.63959 1.02352,-2.60574 0.12411,-0.25269 0.22566,-0.7361 0.22566,-1.07425 0,-0.7802 1.26585,-2.08073 3.08339,-3.16784 0.77799,-0.46534 1.41452,-0.9208 1.41452,-1.01214 0,-0.29137 -1.41723,0.0475 -2.58134,0.61722 -0.61937,0.30312 -1.21047,0.46678 -1.31356,0.3637 -0.37885,-0.37885 0.37558,-1.03414 1.78571,-1.55105 0.79625,-0.29188 1.62633,-0.66944 1.84461,-0.83903 0.21828,-0.16958 0.69453,-0.44016 1.05833,-0.60128 0.3638,-0.16113 1.22571,-0.54294 1.91535,-0.84849 1.44747,-0.6413 1.78952,-0.68433 1.78701,-0.2248 -0.002,0.40246 -1.28051,1.2756 -2.97475,2.0319 -0.69123,0.30855 -1.25677,0.61008 -1.25677,0.67005 0,0.27131 2.03899,-0.26243 3.14349,-0.82286 0.67217,-0.34106 1.30845,-0.62061 1.41394,-0.62122 0.1055,-6e-4 0.93894,-0.342 1.85209,-0.75865 0.91314,-0.41665 1.95792,-0.84297 2.32173,-0.94738 0.3638,-0.10441 1.16617,-0.41836 1.78305,-0.69767 0.61688,-0.2793 1.37266,-0.50782 1.67951,-0.50782 0.55712,0 4.78208,-1.93904 5.53327,-2.53948 0.68795,-0.5499 2.38247,-1.42927 2.75416,-1.42927 0.52385,0 5.44147,-3.9677 6.41853,-5.17868 2.0678,-2.56289 2.46898,-3.11495 2.46898,-3.39762 0,-0.16579 0.48318,-0.7745 1.07375,-1.35268 0.59056,-0.57817 1.45377,-1.46726 1.91823,-1.97575 2.01312,-2.20395 3.51985,-3.15952 5.00241,-3.17254 0.47108,-0.004 2.59216,-0.64616 3.51498,-1.06395 0.29104,-0.13176 1.05567,-0.33605 1.69917,-0.45398 1.33011,-0.24376 1.68128,-0.74838 0.76973,-1.1061 -0.97835,-0.38393 -1.87652,-1.6935 -2.20123,-3.20947 -0.10806,-0.50454 -0.2884,-1.03642 -0.40075,-1.18194 -0.11235,-0.14552 -0.2662,-0.74083 -0.34188,-1.32291 -0.16237,-1.24873 -0.68139,-3.24966 -1.01137,-3.89902 -0.1284,-0.25268 -0.23346,-1.29448 -0.23346,-2.3151 0,-1.02062 -0.0713,-1.85568 -0.15845,-1.85568 -0.36122,0 -1.95822,0.87056 -1.95822,1.06746 0,0.11738 -0.35582,0.29157 -0.79071,0.38709 -0.4349,0.0955 -0.85864,0.28357 -0.94166,0.41789 -0.083,0.13433 -0.38712,0.24423 -0.67579,0.24423 -0.57858,0 -3.1778,1.82448 -4.12129,2.89288 -0.32979,0.37345 -0.5477,0.82632 -0.48425,1.00638 0.0634,0.18006 -0.58915,0.8058 -1.45022,1.39054 -1.66975,1.13391 -2.41523,1.99096 -3.56882,4.10291 -0.94402,1.72829 -1.21033,2.03565 -1.62566,1.87628 -0.18945,-0.0727 -0.73592,0.30883 -1.21438,0.84785 -0.47846,0.53902 -1.495,1.59487 -2.25899,2.34633 -0.76398,0.75147 -1.38906,1.48366 -1.38906,1.6271 0,0.45373 -2.93034,2.95973 -3.46091,2.95973 -0.27931,0 -0.50784,0.15712 -0.50784,0.34916 0,0.39028 -0.48475,0.83523 -2.77622,2.5483 -0.86642,0.64772 -1.80383,1.36209 -2.08314,1.5875 -1.62214,1.30909 -2.4411,2.03466 -2.62931,2.32946 -0.11694,0.18318 -0.67123,0.56701 -1.23174,0.85296 -0.56051,0.28596 -1.68788,1.17809 -2.50527,1.98252 -0.8174,0.80443 -1.66728,1.4626 -1.88865,1.4626 -0.22136,0 -0.88388,0.44541 -1.47226,0.9898 -1.3987,1.29413 -4.51068,2.97895 -5.50232,2.97895 -0.43007,0 -0.85553,0.11906 -0.94547,0.26458 -0.0899,0.14552 -0.8411,0.27419 -1.66926,0.28592 -1.54996,0.022 -1.95384,0.19539 -4.71359,2.02416 -0.70954,0.47018 -1.4914,0.85713 -1.73747,0.8599 -0.24607,0.003 -0.52099,0.12409 -0.61093,0.26961 -0.0899,0.14552 -0.62571,0.26458 -1.19062,0.26458 -0.56491,0 -1.10069,0.11906 -1.19063,0.26458 -0.0899,0.14552 -0.42438,0.26837 -0.74322,0.273 -0.31883,0.005 -0.81081,0.18322 -1.09328,0.39688 -0.28248,0.21365 -0.68796,0.38846 -0.90107,0.38846 -0.21311,0 -0.77773,0.29765 -1.25469,0.66146 -0.74574,0.56879 -1.14342,0.66145 -2.83887,0.66145 -2.08552,0 -3.60761,0.44127 -3.42241,0.99219 0.0611,0.1819 -0.1071,0.3426 -0.37389,0.3571 -0.33742,0.0183 -0.28415,0.0823 0.175,0.21004 1.20473,0.33522 0.95748,0.996 -0.51377,1.37307 -0.73531,0.18845 -1.33692,0.42755 -1.33692,0.53132 0,0.10378 -0.36612,0.31631 -0.8136,0.47231 -0.49802,0.17361 -0.74175,0.39985 -0.62838,0.58329 0.11429,0.18493 0.24853,0.20154 0.35057,0.0434 0.33804,-0.52389 3.9423,-1.02548 4.35549,-0.60613 0.45966,0.4665 -0.50262,1.0705 -1.70551,1.0705 -1.23217,0 -1.82315,0.21853 -1.82315,0.67415 0,0.58127 0.42929,0.66932 1.22923,0.25211 0.41533,-0.21661 1.0528,-0.39639 1.4166,-0.39952 0.3638,-0.003 0.81798,-0.10494 1.00929,-0.22625 0.42201,-0.26761 1.63654,-0.0694 1.63654,0.26708 0,0.13272 -0.72013,0.55362 -1.60028,0.93533 -0.88016,0.38171 -1.50524,0.78389 -1.38907,0.89373 0.11618,0.10984 1.1042,0.33435 2.1956,0.49891 1.09141,0.16456 2.34156,0.42612 2.77813,0.58124 0.61035,0.21687 1.16053,0.182 2.38125,-0.15093 0.87312,-0.23813 2.06375,-0.48654 2.64583,-0.55202 1.46051,-0.16428 2.54925,-0.38383 3.175,-0.64023 1.27758,-0.52349 5.08185,-1.60647 5.63979,-1.6055 0.33699,5.9e-4 0.83414,-0.11744 1.10477,-0.26228 0.28388,-0.15193 0.74179,-0.17097 1.0823,-0.045 0.57632,0.2132 0.569,0.23425 -0.31103,0.8941 -0.49568,0.37166 -1.1989,0.75659 -1.5627,0.85538 -0.72473,0.19681 -1.21199,0.38229 -2.72096,1.03574 -0.55064,0.23845 -1.2667,0.43355 -1.59124,0.43355 -0.32453,0 -1.19911,0.22261 -1.94349,0.4947 -0.74439,0.27208 -2.02075,0.57807 -2.83637,0.67997 -0.81561,0.10191 -1.55137,0.29601 -1.63501,0.43135 -0.23591,0.3817 -2.24936,0.23911 -3.46784,-0.24559 z m -8.42697,-7.18126 c 0.20819,-0.33687 -0.40478,-0.33687 -0.92604,0 -0.32265,0.20851 -0.28846,0.25724 0.18282,0.26053 0.31883,0.002 0.65328,-0.11501 0.74322,-0.26053 z m -1.91645,-1.25677 c 0.18666,-0.23612 0.13865,-0.33073 -0.16782,-0.33073 -0.29697,0 -0.42283,0.22424 -0.40838,0.7276 0.0119,0.41471 0.0841,0.55693 0.16781,0.33073 0.0808,-0.21828 0.26459,-0.5457 0.40839,-0.7276 z m 122.08281,-32.48018 0.0455,-1.58493 -0.26734,1.19063 c -0.14704,0.65484 -0.37589,1.30373 -0.50855,1.44198 -0.38935,0.40573 -0.27773,0.72043 0.22181,0.62537 0.37324,-0.071 0.47185,-0.39546 0.50855,-1.67305 z m -6.05549,-12.23197 c 0.39506,-0.25333 1.01474,-0.72958 1.37705,-1.05834 0.36232,-0.32876 0.86131,-0.59774 1.10887,-0.59774 0.24756,0 0.52369,-0.11906 0.61363,-0.26459 0.0899,-0.14552 0.62949,-0.26458 1.199,-0.26458 0.56952,0 1.69359,-0.31159 2.49793,-0.69243 l 1.46244,-0.69243 -0.0167,-1.88726 c -0.0177,-2.00153 -0.39213,-5.65231 -0.93512,-9.11657 -0.11799,-0.75273 -0.19596,-0.83107 -0.54164,-0.54418 -0.30099,0.24979 -0.36513,0.64217 -0.2519,1.54077 0.0836,0.66311 0.28758,2.74884 0.45338,4.63498 l 0.30145,3.42933 -0.84486,0.70532 c -0.77673,0.64845 -1.61954,0.89785 -3.91264,1.15783 -1.4907,0.16901 -2.4541,0.44063 -2.4541,0.69191 0,0.13396 -0.15632,0.24356 -0.34738,0.24356 -0.4196,0 -1.92485,1.52014 -1.71402,1.73097 0.0819,0.0819 0.38806,-0.15494 0.68025,-0.52641 0.2922,-0.37146 0.69272,-0.67918 0.89006,-0.6838 0.19734,-0.005 0.58991,-0.18323 0.87239,-0.39688 0.53945,-0.40802 1.47365,-0.52905 1.46673,-0.19002 -0.008,0.36837 -0.38897,0.72658 -1.18657,1.11426 -0.71387,0.34699 -2.24896,1.7196 -2.24896,2.01092 0,0.27514 0.86939,0.0794 1.53066,-0.34462 z m -42.77205,-3.49768 c 0.12703,-0.58785 0.34471,-1.5153 0.48371,-2.06101 0.66784,-2.62172 0.66781,-2.62128 0.11648,-2.16102 -0.27583,0.23026 -0.97776,0.62688 -1.55984,0.88138 -2.68993,1.17606 -2.58767,1.10158 -2.13459,1.55466 0.22814,0.22813 0.4148,0.498 0.4148,0.59969 0,0.22902 2.21102,2.41527 2.34871,2.3224 0.0549,-0.037 0.20369,-0.54824 0.33073,-1.1361 z m 45.47472,-1.56423 c 0.80037,-0.15518 1.91555,-0.35331 2.47818,-0.4403 l 1.02297,-0.15815 -0.15772,-2.42963 c -0.0868,-1.3363 -0.24943,-2.99378 -0.36152,-3.68329 l -0.20378,-1.25365 -0.6591,0.98907 c -0.3625,0.54399 -0.71988,1.0486 -0.79417,1.12136 -0.0743,0.0728 -0.31126,0.48948 -0.5266,0.92604 -0.44674,0.90568 -2.83487,4.20726 -3.67609,5.08217 -0.85878,0.89317 -0.67113,1.16288 0.43044,0.61869 0.5457,-0.26959 1.64703,-0.61712 2.44739,-0.77231 z m -47.09583,-2.95661 c 2.31477,-1.08931 2.68982,-1.25157 3.30729,-1.43091 0.29104,-0.0845 0.75068,-0.63481 1.02143,-1.22285 0.47996,-1.04244 0.47996,-1.07848 0,-1.44202 -0.27075,-0.20508 -0.63544,-0.37666 -0.81042,-0.38128 -0.65383,-0.0173 -4.47883,-2.20111 -5.38154,-3.07249 -0.51546,-0.49758 -1.1243,-0.90468 -1.35298,-0.90468 -0.53879,0 -1.53181,-1.00283 -2.48279,-2.50732 -0.41608,-0.65827 -0.89224,-1.19685 -1.05813,-1.19685 -0.3973,0 -2.1569,-1.91224 -2.54658,-2.76749 -0.16842,-0.36965 -0.40625,-0.67209 -0.52851,-0.67209 -0.29616,0 -3.13235,-2.91459 -3.13235,-3.21893 0,-0.13106 -0.40494,-0.64322 -0.89986,-1.13814 -0.61415,-0.61416 -0.96055,-1.25915 -1.09104,-2.03153 -0.29318,-1.73529 -0.60963,-2.07806 -1.91852,-2.07806 -0.62496,0 -1.45952,-0.20497 -1.85458,-0.45549 -1.20681,-0.76525 -3.49516,-3.16136 -3.51731,-3.68294 -0.0118,-0.27855 -0.0788,-0.34838 -0.15434,-0.16105 -0.0734,0.1819 -0.30212,0.33073 -0.50828,0.33073 -0.20615,0 -0.37482,0.0961 -0.37482,0.21366 0,0.11752 -0.50325,0.4357 -1.11833,0.70707 -1.26419,0.55776 -1.17404,0.49555 -3.04436,2.10067 -1.33091,1.1422 -1.36401,1.20262 -0.85426,1.55967 0.29166,0.20428 0.97424,0.77721 1.51685,1.27317 0.5426,0.49595 1.34374,1.17614 1.7803,1.51152 0.43657,0.33538 1.50813,1.29755 2.38125,2.13815 0.87313,0.84061 1.85539,1.66967 2.18282,1.84237 0.32742,0.1727 0.59531,0.41087 0.59531,0.52927 0,0.19931 2.11608,2.41135 11.50541,12.02717 1.96671,2.01415 3.57584,3.72072 3.57584,3.79237 0,0.0717 0.42689,0.54484 0.94864,1.05152 0.89523,0.86939 0.98087,0.89803 1.52135,0.50867 0.31499,-0.22692 1.34662,-0.77677 2.29251,-1.22189 z m 28.14934,-13.17554 c 0.51904,-0.45439 1.46801,-2.30682 1.47818,-2.88546 0.0131,-0.74247 -0.91212,-0.23595 -2.53713,1.38906 -0.94588,0.94589 -1.83224,1.71979 -1.96967,1.71979 -0.38771,0 -0.29483,-0.87642 0.16199,-1.52862 0.40067,-0.57203 0.38806,-0.58814 -0.46302,-0.59165 -0.4812,-0.002 -1.15949,-0.0798 -1.50731,-0.17286 l -0.63242,-0.16924 0.69856,1.02802 c 0.38421,0.56542 0.69856,1.16906 0.69856,1.34143 0,0.44144 0.31257,0.50232 2.04702,0.3987 0.92926,-0.0555 1.7203,-0.26221 2.02524,-0.52917 z m 3.7814,-6.17621 c -0.0845,-0.21107 -0.14716,-0.14838 -0.15985,0.15985 -0.0115,0.27891 0.051,0.43518 0.13896,0.34726 0.0879,-0.0879 0.0973,-0.31612 0.0209,-0.50711 z m 0.78824,-5.83737 c -0.0734,-0.18191 -0.13346,-0.0331 -0.13346,0.33073 0,0.3638 0.0601,0.51263 0.13346,0.33072 0.0734,-0.1819 0.0734,-0.47955 0,-0.66145 z m 0.0165,-5.8161 c -0.0589,-0.47555 -0.10828,-0.15026 -0.10977,0.72287 -0.001,0.87312 0.0467,1.26221 0.10707,0.86463 0.0604,-0.39758 0.0616,-1.11195 0.003,-1.5875 z m -66.073,-0.18483 c -0.21828,-0.12658 -1.34938,-0.37078 -2.51354,-0.54267 -1.16417,-0.17189 -2.5472,-0.4219 -3.07341,-0.55556 -0.5262,-0.13367 -1.38537,-0.24303 -1.90925,-0.24303 -0.84294,0 -1.96781,-0.35932 -3.41427,-1.09064 -0.25269,-0.12775 -0.5807,-0.23228 -0.72891,-0.23228 -0.1482,0 -0.88648,-0.29765 -1.6406,-0.66146 -0.75413,-0.3638 -1.58457,-0.66145 -1.84543,-0.66145 -0.26087,0 -0.92319,-0.17848 -1.47184,-0.39662 -0.74531,-0.29632 -1.2986,-0.3371 -2.18817,-0.16128 -0.65484,0.12943 -0.96213,0.24838 -0.68285,0.26432 0.27928,0.0159 1.15366,0.39351 1.94307,0.83902 2.3044,1.30053 5.68801,2.1749 10.24916,2.64853 3.63316,0.37728 5.38332,0.64595 5.59652,0.85914 0.0991,0.0991 0.60685,0.1766 1.1283,0.17217 0.66783,-0.006 0.83077,-0.0761 0.55122,-0.23819 z m 36.24791,-1.3104 c 0,-0.27407 -0.23387,-0.55947 -0.51972,-0.63422 -0.62277,-0.16286 -2.03929,-3.10189 -2.29134,-4.75415 -0.0944,-0.61863 -0.26029,-1.24385 -0.3687,-1.38937 -0.10841,-0.14552 -0.26244,-0.6813 -0.34229,-1.19062 -0.29537,-1.88397 -0.76616,-3.58859 -1.12764,-4.08295 -0.58226,-0.79628 -0.73789,-0.2963 -0.29822,0.95802 0.21989,0.6273 0.5419,1.85493 0.71558,2.72805 0.17367,0.87313 0.49688,2.06375 0.71823,2.64584 0.22135,0.58208 0.49301,1.29646 0.60369,1.5875 1.16853,3.07276 2.02279,4.63021 2.53967,4.63021 0.20391,0 0.37074,-0.22424 0.37074,-0.49831 z m -62.79739,-0.27383 c 1.62427,-0.81046 3.31551,-1.56129 4.45677,-1.9786 l 1.05833,-0.38698 -1.26036,-0.0186 c -0.6932,-0.0103 -1.4671,0.0943 -1.71979,0.23238 -0.25269,0.13806 -1.01126,0.3219 -1.68573,0.40852 -1.27838,0.16418 -1.90584,0.64707 -2.1512,1.65556 -0.17669,0.72625 -0.001,0.73807 1.30198,0.0878 z m 62.90112,-6.66821 c -0.24909,-2.06655 -0.51487,-2.08922 -0.54596,-0.0466 -0.0268,1.75964 0.0179,1.97798 0.31998,1.56481 0.2137,-0.29226 0.30214,-0.8864 0.22598,-1.51824 z m -1.95842,-2.01433 c -0.31938,-0.63949 -0.64495,-1.09846 -0.72348,-1.01992 -0.0785,0.0785 0.0825,1.09977 0.35779,2.26942 l 0.50059,2.12663 0.2229,-1.10671 c 0.18265,-0.9069 0.11806,-1.31661 -0.3578,-2.26942 z m 3.70678,-2.28924 c 0,-0.23164 -0.43652,-0.43229 -1.18446,-0.54445 -0.65145,-0.0977 -1.24413,-0.27417 -1.31705,-0.39217 -0.0729,-0.118 -0.58172,-0.28681 -1.13065,-0.37514 -0.54893,-0.0883 -1.46971,-0.40163 -2.04618,-0.69622 -1.36634,-0.69821 -1.40793,-0.67766 -0.3886,0.192 1.68668,1.43901 3.20693,2.14195 4.67788,2.16297 1.01731,0.0145 1.38906,-0.0783 1.38906,-0.34699 z m -8.88868,-3.92441 c -0.27722,-0.32289 -0.65286,-0.74812 -0.83476,-0.94494 -0.1819,-0.19683 -0.33073,-0.47919 -0.33073,-0.62747 0,-0.14828 -0.5718,-0.82439 -1.27068,-1.50246 -0.69887,-0.67806 -1.65137,-1.79008 -2.11666,-2.47114 -0.7675,-1.12341 -0.84453,-1.41798 -0.83022,-3.175 0.009,-1.06519 0.10951,-2.50649 0.22407,-3.2029 0.22172,-1.34779 -0.0313,-1.86682 -0.49115,-1.00757 -0.34333,0.64151 -0.36925,5.94653 -0.0321,6.57683 0.13514,0.25269 0.46108,1.01789 0.7243,1.70045 0.2897,0.75122 0.93037,1.63884 1.62327,2.24896 0.62958,0.55437 1.63228,1.45442 2.22822,2.00013 1.17926,1.07985 1.91796,1.35031 1.10647,0.40511 z m 4.65062,-0.19527 c 0.2575,-0.62167 0.25418,-1.06996 -0.0162,-2.18281 -0.35575,-1.46427 -0.77283,-2.24286 -0.77283,-1.44267 0,0.6809 -1.08675,2.05246 -1.90317,2.40193 l -0.71254,0.30501 0.66557,0.85045 c 0.51014,0.65184 0.86985,0.85044 1.54034,0.85044 0.71967,0 0.93222,-0.13871 1.19882,-0.78235 z m -2.15631,-4.56075 c 0.46786,-1.9844 -0.42771,-3.2709 -3.74584,-5.38098 l -0.74749,-0.47535 0.51728,0.92097 c 0.2845,0.50654 0.64037,1.44883 0.79081,2.09399 0.33569,1.43956 1.11162,4.48571 1.2644,4.96381 0.22955,0.71831 1.61096,-0.80808 1.92084,-2.12244 z m -14.77897,1.71091 c 1.07581,-0.46607 1.59417,-1.31455 1.59417,-2.60939 0,-0.3335 0.11906,-0.67995 0.26459,-0.76988 0.42717,-0.26401 0.29244,-1.80058 -0.21579,-2.46109 l -0.4686,-0.609 -0.96761,0.93973 c -0.67072,0.65139 -1.21039,0.93973 -1.75886,0.93973 -0.43519,0 -0.86483,0.11906 -0.95477,0.26459 -0.0899,0.14552 -0.39088,0.26458 -0.66877,0.26458 -0.56752,0 -0.4853,0.46571 0.28024,1.5875 0.24827,0.3638 0.53861,0.94208 0.64521,1.28505 0.1684,0.54184 0.91718,1.62537 1.12322,1.62537 0.0394,0 0.54656,-0.20574 1.12697,-0.45719 z m 11.27582,-0.93188 c -0.0649,-0.32742 -0.26277,-1.34294 -0.43971,-2.2567 -0.17693,-0.91377 -0.42375,-1.72446 -0.54849,-1.80155 -0.12473,-0.0771 -0.22678,-0.3141 -0.22678,-0.52668 0,-0.21259 -0.29766,-0.85804 -0.66146,-1.43434 -0.3638,-0.5763 -0.66146,-1.21032 -0.66146,-1.40894 0,-0.19862 -0.22269,-0.56266 -0.49486,-0.80897 -0.48041,-0.43476 -0.49598,-0.36253 -0.53297,2.47253 -0.0215,1.64978 0.0689,2.92038 0.20777,2.92038 0.13523,0 0.73119,0.62508 1.32434,1.38906 1.52892,1.96926 1.60392,2.05053 1.89244,2.05053 0.14256,0 0.20609,-0.2679 0.14118,-0.59532 z m -12.79097,-4.58558 c 1.22509,-0.5842 1.87639,-1.69173 1.53024,-2.60216 -0.30972,-0.81463 -0.70331,-0.88273 -0.93228,-0.16132 -0.0912,0.28726 -0.54568,0.78767 -1.01002,1.11202 -0.46433,0.32435 -1.08616,0.86322 -1.38183,1.1975 -0.29568,0.33427 -0.74216,0.60777 -0.99219,0.60777 -0.25003,0 -0.4546,0.13525 -0.4546,0.30055 0,0.40442 2.03941,0.11849 3.24068,-0.45436 z m -4.97077,0.13714 c -0.0956,-0.15469 -0.002,-0.48211 0.20872,-0.7276 0.75399,-0.87974 0.71157,-1.0003 -0.34755,-0.98779 -0.82343,0.01 -1.03999,0.11225 -1.04066,0.49269 -10e-4,0.71998 0.49402,1.50396 0.95013,1.50396 0.22175,0 0.32496,-0.12657 0.22936,-0.28126 z m 11.78426,-1.3758 c 0,-1.46464 -0.0691,-1.68737 -0.59531,-1.91823 -0.32743,-0.14364 -0.77391,-0.64555 -0.99219,-1.11534 -0.53563,-1.15279 -0.85817,-1.0888 -0.63792,0.12656 0.14774,0.81522 1.91915,4.56407 2.15662,4.56407 0.0378,0 0.0688,-0.74568 0.0688,-1.65706 z m -2.37365,-0.24782 c -0.30648,-0.32897 -0.6163,-0.89816 -0.68848,-1.26486 -0.0722,-0.3667 -0.25198,-1.04846 -0.39956,-1.51502 -0.28766,-0.90938 -0.41189,-7.52708 -0.14927,-7.952 0.0867,-0.14036 0.0276,-1.01569 -0.13148,-1.94516 -0.21241,-1.24116 -0.59855,-2.16425 -1.45401,-3.4759 -0.64064,-0.98226 -1.28133,-1.78593 -1.42376,-1.78593 -0.5525,0 -0.22521,-0.53005 0.33635,-0.54473 0.51352,-0.0134 0.53715,-0.0552 0.17203,-0.30431 -0.3835,-0.26161 -0.37728,-0.33477 0.0661,-0.7782 0.97917,-0.97916 0.38707,-1.34763 -1.00167,-0.62335 -0.5086,0.26525 -0.60557,0.39578 -0.29483,0.39687 0.28609,10e-4 0.46302,0.20384 0.46302,0.5308 0,0.55803 -0.38494,0.712 -0.66146,0.26458 -0.0899,-0.14552 -0.42438,-0.26096 -0.74322,-0.25654 -0.52539,0.007 -0.5358,0.0336 -0.11111,0.28085 0.25772,0.15004 0.39148,0.39757 0.29723,0.55006 -0.0942,0.15249 0.12498,0.53213 0.48717,0.84363 0.85567,0.73594 1.90617,2.83261 2.33851,4.66742 0.19735,0.83752 0.36223,3.36444 0.38843,5.95312 0.05,4.94468 0.0669,5.00973 1.84554,7.10216 0.69234,0.81451 1.08251,1.10503 1.13769,0.84714 0.0462,-0.21587 -0.16677,-0.66166 -0.47326,-0.99063 z m 50.9987,0.62358 c 0.26202,-0.16627 0.21397,-0.37328 -0.2125,-0.91544 -0.76355,-0.9707 -0.66264,-3.3723 0.15684,-3.7324 0.30113,-0.13233 0.80824,-0.63835 1.12691,-1.12448 0.77204,-1.17777 2.12627,-1.24598 3.10252,-0.15628 0.35851,0.40018 0.94841,1.02974 1.31089,1.39902 0.36247,0.36929 0.65904,0.93483 0.65904,1.25678 0,0.32194 0.0908,0.58535 0.20184,0.58535 0.11101,0 0.31937,0.26789 0.46302,0.59531 0.19197,0.43756 0.52409,0.61707 1.25337,0.67743 l 0.99218,0.0821 -0.0169,-1.27275 c -0.009,-0.70001 -0.11002,-2.64196 -0.22378,-4.31545 -0.22216,-3.26818 -0.50429,-4.06424 -2.21425,-6.24772 -0.46877,-0.59859 -1.04595,-1.44578 -1.28261,-1.88264 -0.32107,-0.59268 -0.69045,-0.84235 -1.45521,-0.9836 -0.5637,-0.10412 -1.26922,-0.41639 -1.56781,-0.69393 -0.2986,-0.27754 -1.10289,-0.67315 -1.78732,-0.87914 -1.07738,-0.32424 -1.44133,-0.32309 -2.71136,0.009 -1.6171,0.42228 -3.76666,1.68461 -5.82382,3.42005 -0.73721,0.62192 -1.81687,1.37912 -2.39923,1.68266 -2.6804,1.39711 -3.71105,3.61692 -3.01874,6.5018 l 0.19048,0.79375 0.54075,-1.20589 c 0.29741,-0.66324 0.84827,-1.40738 1.22411,-1.65364 0.74549,-0.48846 2.94967,-0.61333 3.21613,-0.1822 0.0903,0.14605 0.43122,0.19851 0.75767,0.11658 0.51614,-0.12954 0.68303,0.0516 1.27951,1.38844 0.62629,1.40368 0.78853,1.56771 1.86505,1.88557 0.6485,0.19148 1.59678,0.69244 2.10729,1.11325 0.76263,0.62861 0.9843,1.05023 1.24267,2.36348 0.31924,1.62268 0.42007,1.7582 1.0233,1.37541 z m 3.36321,-0.37235 c 0.35015,-0.40705 0.54534,-1.11038 0.6172,-2.224 0.0948,-1.469 0.0473,-1.65962 -0.48418,-1.94406 -0.84195,-0.4506 -1.51362,0.20545 -1.06622,1.04142 0.35237,0.6584 0.27221,1.91867 -0.1304,2.05045 -0.14972,0.049 -0.42819,-0.43916 -0.61882,-1.08479 -0.52511,-1.77843 -1.67498,-1.92981 -1.41916,-0.18684 0.11422,0.77827 1.19277,2.25257 1.45561,1.98973 0.0826,-0.0826 0.28315,0.0981 0.44558,0.40157 0.37466,0.70006 0.56675,0.6931 1.20039,-0.0435 z m -44.6779,-1.17073 c -0.81924,-0.8258 -1.48953,-1.62986 -1.48953,-1.7868 0,-0.15693 -0.37028,-0.63482 -0.82284,-1.06197 -1.71087,-1.61478 -2.94047,-3.53529 -3.08512,-4.81865 -0.0998,-0.88506 -0.0536,-1.17665 0.16492,-1.04161 0.1669,0.10315 0.30346,0.36706 0.30346,0.58647 0,0.32484 1.03185,1.93698 1.5875,2.48027 0.0744,0.0728 0.47407,0.58659 0.88812,1.14186 0.41405,0.55526 0.82035,0.94203 0.90289,0.85949 0.14036,-0.14036 -0.42071,-1.44434 -0.74728,-1.73677 -0.46932,-0.42023 -2.36665,-3.31833 -2.36665,-3.61494 0,-0.1946 -0.0931,-0.35381 -0.20682,-0.35381 -0.19446,0 -0.61075,-1.24256 -1.01937,-3.04271 -0.67221,-2.9614 -2.7767,-5.42395 -4.63529,-5.42395 -0.26869,0 -0.48852,-0.10616 -0.48852,-0.2359 0,-0.30648 -1.26615,-0.62416 -1.61886,-0.40618 -0.14939,0.0923 0.3092,0.43695 1.01907,0.76584 3.01179,1.39539 5.33766,5.80788 4.97916,9.44614 -0.28124,2.85409 0.28096,3.78866 4.22749,7.02757 1.023,0.83957 2.18386,1.69543 2.57969,1.90192 0.39584,0.20649 0.7197,0.47438 0.7197,0.59531 0,0.12094 0.13451,0.21988 0.29891,0.21988 0.1644,0 -0.37138,-0.67566 -1.19063,-1.50146 z m -17.12083,-0.44917 c -0.0131,-0.18745 -0.0705,-0.17541 -0.15434,0.0324 -0.0794,0.1967 -0.68746,0.34683 -1.50047,0.37047 l -1.36701,0.0397 1.19062,0.16646 c 1.19764,0.16745 1.86991,-0.0562 1.8312,-0.60907 z m 17.70556,-1.05826 c -0.79599,-1.07875 -1.72465,-1.85336 -1.50105,-1.25205 0.15312,0.4118 2.16388,2.67038 2.27682,2.55744 0.0593,-0.0593 -0.28978,-0.64675 -0.77577,-1.30539 z m -16.26608,0.49535 c 0.0838,-0.21828 0.037,-0.39688 -0.10398,-0.39688 -0.14096,0 -0.25628,0.1786 -0.25628,0.39688 0,0.21828 0.0468,0.39687 0.10398,0.39687 0.0572,0 0.17252,-0.17859 0.25628,-0.39687 z m -0.36286,-2.51354 c 0.11039,-0.0728 0.28134,-0.50415 0.37989,-0.95864 0.13194,-0.60848 0.0755,-0.86614 -0.21404,-0.97725 -0.56163,-0.21552 -0.96056,-1.06983 -0.69797,-1.49472 0.18243,-0.29517 0.30068,-0.28081 0.6619,0.0804 0.65258,0.65258 0.93115,0.5377 0.93115,-0.38399 0,-0.76331 -0.0578,-0.8153 -0.78729,-0.70823 -0.43301,0.0636 -0.83219,-0.0122 -0.88707,-0.16841 -0.20015,-0.56964 0.16111,-0.94541 0.90892,-0.94541 0.67687,0 0.76544,-0.0934 0.76544,-0.80689 0,-0.83401 -0.59105,-2.20322 -1.22454,-2.8367 -0.19919,-0.19919 -0.43478,-0.6515 -0.52354,-1.00512 -0.0888,-0.35363 -0.20568,-0.64296 -0.25984,-0.64296 -0.38392,0 -2.98333,1.91897 -3.11712,2.30116 -0.0918,0.26233 -0.23634,0.62579 -0.32114,0.80769 -0.0848,0.1819 0.005,0.33469 0.19861,0.33953 0.80992,0.0202 2.33716,2.0884 2.33716,3.16498 0,0.26679 -0.47307,1.00128 -1.05126,1.63221 -1.15857,1.26423 -1.33258,1.95272 -0.55585,2.19925 0.28025,0.0889 0.95791,0.74965 1.5059,1.46822 l 0.99634,1.30649 0.37683,-1.11966 c 0.20725,-0.61582 0.46714,-1.17919 0.57752,-1.25195 z m 9.09625,1.78593 c 0.27716,-1.0342 0.18266,-1.77586 -0.3624,-2.84427 -0.42227,-0.82771 -0.52917,-1.55939 -0.52917,-3.62187 0,-2.16239 -0.11533,-2.88642 -0.70598,-4.43214 -0.75025,-1.96339 -1.81911,-3.35667 -3.04375,-3.9676 -0.8896,-0.44379 -0.95729,-0.20315 -0.18851,0.67019 1.73304,1.96875 2.11428,3.38974 2.03048,7.56822 l -0.0679,3.38633 0.89059,1.57003 c 1.36544,2.40715 1.70295,2.69248 1.97666,1.67111 z m -7.75015,-0.92604 c 1.4866,-2.45007 1.56692,-2.72675 1.56692,-5.39814 0,-1.41585 -0.10244,-2.63758 -0.22763,-2.71496 -0.1252,-0.0774 -0.30112,-0.67678 -0.39092,-1.33201 -0.2314,-1.68823 -1.39837,-3.81508 -2.20425,-4.01735 -0.40703,-0.10216 -0.59633,-0.29829 -0.50858,-0.52695 0.17479,-0.4555 -0.2425,-0.45641 -1.43112,-0.003 -0.50933,0.19424 -1.313,0.50175 -1.78594,0.68336 -0.47295,0.18161 -0.8599,0.43761 -0.8599,0.5689 0,0.13128 -0.12737,0.2387 -0.28306,0.2387 -0.15568,0 -0.79642,0.35321 -1.42388,0.78491 -0.80349,0.55282 -1.1984,1.04178 -1.33555,1.65364 -0.34429,1.53589 -0.45409,6.60611 -0.14967,6.91054 0.15496,0.15496 0.28175,0.46959 0.28175,0.69919 0,0.44638 1.01865,1.45668 1.24276,1.23257 0.0738,-0.0738 -0.0566,-0.40645 -0.28974,-0.73928 -0.23312,-0.33283 -0.42386,-0.8525 -0.42386,-1.15482 0,-0.30232 -0.14883,-0.69839 -0.33073,-0.88017 -0.21746,-0.21731 -0.33073,-1.17819 -0.33073,-2.80568 0,-2.35611 0.0382,-2.52232 0.79375,-3.4549 0.43657,-0.53884 1.21047,-1.19823 1.7198,-1.46532 2.44235,-1.28077 4.11281,-1.72416 3.43958,-0.91297 -0.26798,0.32289 -0.25511,0.39687 0.069,0.39687 0.21913,0 0.47437,-0.26789 0.56721,-0.59531 l 0.1688,-0.59531 0.38185,0.66146 c 0.21002,0.3638 0.38608,0.82291 0.39123,1.02025 0.005,0.19734 0.29268,0.58164 0.63893,0.854 1.21935,0.95914 1.81407,2.75695 1.79947,5.43969 -0.007,1.33512 -0.12444,2.64668 -0.26037,2.91458 -1.13815,2.24305 -1.63948,3.28137 -1.63948,3.39558 0,0.33145 0.25683,0.0608 0.81433,-0.85796 z m 15.76924,-1.06171 c -1.1066,-1.50921 -2.19305,-3.82199 -2.391,-5.08985 -0.0795,-0.50932 -0.20417,-1.20041 -0.27699,-1.53574 -0.2766,-1.27365 -1.56796,-3.49696 -2.8209,-4.85667 -0.71601,-0.77704 -1.30258,-1.48821 -1.30348,-1.58038 -8.9e-4,-0.0922 -0.23975,-0.22985 -0.53079,-0.30596 -0.29104,-0.0761 -0.52916,-0.0305 -0.52916,0.10144 0,0.13189 0.11906,0.23981 0.26458,0.23981 0.14552,0 0.26458,0.17859 0.26458,0.39687 0,0.21829 0.091,0.39688 0.20217,0.39688 0.35774,0 1.12075,2.08996 1.12075,3.06982 0,0.52225 0.22138,1.26557 0.49196,1.65184 0.27058,0.38626 0.70894,1.17855 0.97413,1.76063 0.2652,0.58208 0.93678,1.63943 1.49242,2.34967 0.55563,0.71023 1.01024,1.4946 1.01024,1.74303 0,0.24844 0.53575,0.97702 1.19055,1.61908 0.65481,0.64207 1.27308,1.40551 1.37395,1.69655 0.16374,0.47248 0.19424,0.4792 0.2847,0.0628 0.0557,-0.25652 -0.31224,-1.03043 -0.81771,-1.71979 z m -21.48967,0.74926 c 0.0837,-0.13546 0.0312,-0.32108 -0.11667,-0.41249 -0.1479,-0.0914 -0.2689,0.0194 -0.2689,0.24631 0,0.46474 0.15876,0.53317 0.38557,0.16618 z m -0.0363,-3.81601 c -0.5496,-0.31009 -0.97202,0.1757 -0.75296,0.86592 l 0.17807,0.56104 0.48759,-0.60055 c 0.42594,-0.52461 0.43698,-0.62911 0.0873,-0.82641 z m -1.37486,-3.34006 c 0.28289,-1.38177 1.08721,-2.77019 2.18761,-3.77627 0.27853,-0.25466 0.38896,-0.46302 0.24538,-0.46302 -0.35898,0 -2.25435,1.82481 -2.80717,2.70267 -0.29374,0.46645 -0.45233,1.26269 -0.45233,2.27101 0,1.54607 0.33678,2.51665 0.46333,1.33529 0.0366,-0.34124 0.19999,-1.27259 0.36318,-2.06968 z m 2.87765,2.04031 c 0,-0.45276 -1.21418,-1.75481 -1.65364,-1.77332 -0.34279,-0.0145 -0.21786,2.05663 0.13229,2.19316 0.72308,0.28192 1.52135,0.0616 1.52135,-0.41984 z m 11.28259,-9.85148 c -0.21828,-0.21828 -0.47949,-0.39687 -0.58046,-0.39687 -0.10097,0 -0.0354,0.17859 0.14579,0.39687 0.18116,0.21829 0.44236,0.39688 0.58046,0.39688 0.1381,0 0.0725,-0.17859 -0.14579,-0.39688 z m -2.28675,-1.08664 c 0,-0.0572 -0.38696,-0.0956 -0.8599,-0.0854 -0.70024,0.0151 -0.76165,0.0575 -0.33073,0.22796 0.48471,0.19179 1.19063,0.10725 1.19063,-0.14258 z M 515.4469,816.67136 c -0.5885,-0.23747 -0.35076,-0.86808 0.39688,-1.05268 0.40018,-0.0988 1.18777,-0.4684 1.7502,-0.82131 1.34267,-0.84248 1.85646,-0.43018 0.79038,0.63427 -1.23992,1.23802 -2.07169,1.58906 -2.93746,1.23972 z m 148.34336,-16.16279 c -0.012,-1.12779 -0.003,-4.09128 0.0193,-6.58554 0.0388,-4.2814 -0.1952,-6.27512 -0.83727,-7.13334 -0.11985,-0.16021 -0.29779,-0.87407 -0.39543,-1.58637 -0.10638,-0.7762 -0.53056,-1.847 -1.05867,-2.67258 -0.48465,-0.75761 -0.88117,-1.50226 -0.88117,-1.65478 0,-0.15251 -0.11906,-0.27729 -0.26459,-0.27729 -0.14552,0 -0.26458,-0.15784 -0.26458,-0.35075 0,-0.19292 -0.29766,-0.63039 -0.66146,-0.97217 -0.3638,-0.34177 -0.66146,-0.76242 -0.66146,-0.93476 0,-0.4567 -5.37974,-5.15065 -5.90317,-5.15065 -0.14552,0 -0.65483,-0.29766 -1.1318,-0.66146 -0.4808,-0.36672 -1.22181,-0.66146 -1.66301,-0.66146 -0.43768,0 -0.86937,-0.11906 -0.95931,-0.26458 -0.0899,-0.14552 -0.42766,-0.26459 -0.75049,-0.26459 -0.32284,0 -0.82182,-0.16225 -1.10886,-0.36055 -0.28705,-0.19831 -0.87908,-0.42639 -1.31565,-0.50684 -0.43656,-0.0804 -1.86531,-0.39803 -3.175,-0.70573 -5.04096,-1.18432 -12.84624,-0.60213 -16.73647,1.24837 -1.02957,0.48974 -1.43058,0.23995 -0.71133,-0.4431 0.64226,-0.60993 4.92793,-2.01235 7.39364,-2.41946 1.998,-0.32988 7.31513,-0.20516 9.525,0.22343 1.67761,0.32536 5.31626,1.32178 5.9032,1.61656 1.05829,0.53149 2.4736,1.08243 2.77088,1.0786 0.66409,-0.009 3.223,1.50031 4.3962,2.5922 1.19356,1.11083 2.67242,2.04543 2.67242,1.68888 0,-0.0992 -0.48378,-0.59612 -1.07508,-1.1042 -0.59129,-0.50808 -1.40785,-1.2512 -1.81458,-1.65138 -0.40672,-0.40019 -0.87256,-0.72761 -1.03519,-0.72761 -0.49301,0 -1.74763,-0.8595 -3.24887,-2.22569 -0.7829,-0.71249 -1.78347,-1.44585 -2.22347,-1.62969 -0.44,-0.18385 -1.03571,-0.59922 -1.3238,-0.92306 -0.71967,-0.80897 -3.91527,-2.84013 -4.8148,-3.06034 -0.40484,-0.0991 -0.79561,-0.25116 -0.86837,-0.33789 -0.30308,-0.36129 -1.83833,-1.08375 -2.30301,-1.08375 -0.27587,0 -0.61468,-0.10686 -0.75293,-0.23748 -0.13824,-0.13061 -0.78713,-0.32412 -1.44198,-0.43002 -1.56914,-0.25375 -9.91143,-0.25527 -11.17864,-0.002 -0.61853,0.1236 -0.99219,0.0984 -0.99219,-0.067 0,-0.62354 2.53228,-1.11057 6.74687,-1.29761 4.19187,-0.18604 7.15041,0.41036 10.58334,2.13346 3.10801,1.56002 5.30964,2.91836 5.61525,3.46446 0.11995,0.21433 0.78884,0.67864 1.48642,1.03181 0.69758,0.35316 1.83526,1.17888 2.52818,1.83493 0.69291,0.65605 1.66766,1.41233 2.1661,1.68061 2.07526,1.117 3.79188,2.62442 5.53229,4.85808 0.50824,0.65228 1.01425,1.22565 1.12448,1.27416 0.11022,0.0485 0.2004,0.20528 0.2004,0.34838 0,0.26858 1.28205,2.08528 1.6722,2.36956 0.12101,0.0882 0.28978,0.68348 0.37506,1.32292 0.0853,0.63943 0.35415,1.5198 0.59749,1.95636 0.9489,1.70236 1.36532,5.22808 1.21875,10.31875 -0.18338,6.36897 -0.41128,9.39271 -0.70794,9.39271 -0.13483,0 -0.25494,-0.92274 -0.26693,-2.05052 z m -1.91414,-19.69492 c -0.0845,-0.21107 -0.14715,-0.14838 -0.15985,0.15985 -0.0115,0.27891 0.051,0.43518 0.13896,0.34726 0.0879,-0.0879 0.0973,-0.31612 0.0209,-0.50711 z m -1.78037,-2.61889 c -0.16243,-0.3035 -0.36218,-0.48498 -0.44388,-0.40327 -0.0817,0.0817 0.002,0.33003 0.18612,0.55183 0.47567,0.57315 0.60433,0.499 0.25776,-0.14856 z m -1.31079,-2.09401 c 0,-0.14552 -0.12608,-0.26458 -0.28019,-0.26458 -0.15411,0 -0.20662,0.11906 -0.11668,0.26458 0.0899,0.14553 0.21603,0.26459 0.2802,0.26459 0.0642,0 0.11667,-0.11906 0.11667,-0.26459 z m -101.9585,6.2301 c -0.36579,-0.339 -0.74724,-1.05439 -0.84768,-1.58976 -0.20093,-1.07105 0.11959,-2.55835 0.58476,-2.7134 0.37483,-0.12494 0.88601,1.3102 0.88601,2.48748 0,0.49273 0.18286,1.17496 0.40637,1.51607 0.35273,0.53834 0.3555,0.63972 0.021,0.76808 -0.21196,0.0813 -0.68466,-0.12947 -1.05044,-0.46847 z m 15.24132,-0.62593 c -0.32742,-0.0466 -0.59532,-0.18748 -0.59532,-0.31307 0,-0.12559 -0.23243,-0.30213 -0.51652,-0.39229 -1.21792,-0.38655 -3.1031,-2.95488 -2.56435,-3.49362 0.2215,-0.2215 0.96421,0.43966 0.96421,0.85834 0,0.19066 0.20836,0.41593 0.46302,0.5006 0.69268,0.23033 3.07086,2.38692 2.94959,2.67477 -0.0579,0.1375 -0.37321,0.21187 -0.70063,0.16527 z m 45.04531,-7.72083 c -0.24565,-0.77398 0.10017,-1.63233 0.61792,-1.5337 0.54144,0.10314 0.72769,1.16044 0.29604,1.68055 -0.43514,0.52431 -0.71523,0.4793 -0.91396,-0.14685 z m -2.16013,-0.67931 c -0.2257,-0.58816 0.43802,-1.70194 1.01421,-1.70194 0.56368,0 0.58719,0.15551 0.194,1.28343 -0.30896,0.88627 -0.94426,1.10634 -1.20821,0.41851 z m -2.04145,-0.32765 c -0.0725,-0.11727 0.0128,-0.50317 0.18946,-0.85755 0.39684,-0.79597 1.23761,-1.02764 1.22558,-0.3377 -0.0161,0.92458 -1.04514,1.79377 -1.41504,1.19525 z m -21.06613,-18.29201 c 0,-0.42797 -0.11906,-0.85172 -0.26458,-0.94166 -0.40633,-0.25112 -0.31378,-1.19062 0.11729,-1.19062 0.89666,0 1.55602,1.92502 0.88812,2.59291 -0.51236,0.51237 -0.74083,0.37031 -0.74083,-0.46063 z m 26.4018,-0.96099 c -0.39373,-0.61619 -0.73332,-3.84912 -0.73522,-6.9994 -0.002,-2.67701 -0.0881,-3.4404 -0.44968,-3.96875 -0.24623,-0.3598 -0.53992,-0.71829 -0.65265,-0.79665 -0.44063,-0.30626 -1.55169,-2.71347 -1.71034,-3.7056 -0.24597,-1.53824 0.27078,-1.3115 1.08172,0.47463 0.8094,1.78275 0.84497,1.84293 1.797,3.04015 0.7056,0.88732 0.73685,1.06385 0.9538,5.38783 0.21627,4.31075 0.0929,7.15856 -0.28463,6.56779 z m -52.37631,-0.84056 c -0.37043,-0.40018 -0.89872,-1.14433 -1.17398,-1.65365 -0.27526,-0.50932 -0.56628,-0.98557 -0.64672,-1.05833 -0.78012,-0.70562 -1.61583,-2.91042 -1.10317,-2.91042 0.42584,0 2.96649,3.4177 2.97379,4.00035 0.003,0.2009 0.30017,0.64566 0.66145,0.98836 0.71099,0.6744 0.86717,1.36129 0.30952,1.36129 -0.19106,0 -0.65046,-0.32742 -1.02089,-0.7276 z m 38.98928,-3.9237 c -0.31864,-0.22318 -0.57935,-0.56771 -0.57935,-0.76561 0,-0.1979 -0.0893,-0.39951 -0.19844,-0.44802 -0.32482,-0.14436 -1.12448,-1.72096 -1.12448,-2.21701 0,-0.41721 -0.27085,-0.44682 -2.93257,-0.32066 -3.22455,0.15283 -3.59008,-0.18521 -0.83084,-0.76835 3.04183,-0.64287 4.82174,-0.26352 4.82174,1.02767 0,0.2587 0.0914,0.47036 0.20302,0.47036 0.24566,0 1.51806,3.12962 1.34341,3.30427 -0.0677,0.0677 -0.38385,-0.0595 -0.70249,-0.28265 z m -48.07333,-7.62904 c -0.35127,-0.35127 -0.7123,-0.97634 -0.8023,-1.38906 -0.09,-0.41271 -0.2694,-0.98852 -0.39867,-1.27956 -0.44644,-1.00511 -0.797,-3.75018 -0.56055,-4.38936 l 0.2316,-0.62608 0.43487,0.84094 c 0.23917,0.46251 0.43486,1.19701 0.43486,1.63221 0,0.4352 0.11906,0.86486 0.26459,0.95479 0.14552,0.0899 0.26458,0.39046 0.26458,0.66783 0,0.75114 0.79094,2.93903 1.21622,3.36432 0.2042,0.2042 0.37128,0.48183 0.37128,0.61696 0,0.46537 -0.81914,0.24435 -1.45648,-0.39299 z m 57.9641,-9.08476 c 0.22078,-1.77284 0.74514,-2.71198 1.51421,-2.71198 0.78163,0 3.95576,3.46269 3.54795,3.87049 -0.16978,0.16979 -1.77395,-0.71736 -1.77395,-0.98104 0,-0.23195 -1.3475,-1.56653 -1.5817,-1.56653 -0.10264,0 -0.33683,0.50601 -0.52041,1.12447 -0.67649,2.279 -1.45868,2.45348 -1.1861,0.26459 z"
       id="path24" /></g></svg>
