<?xml version="1.0" encoding="UTF-8" standalone="no"?>
<!-- Created with Inkscape (http://www.inkscape.org/) -->

<svg
   width="204.82707mm"
   height="159.76431mm"
   viewBox="0 0 204.82707 159.76431"
   version="1.1"
   id="svg1"
   xml:space="preserve"
   xmlns="http://www.w3.org/2000/svg"
   xmlns:svg="http://www.w3.org/2000/svg"><defs
     id="defs1" /><g
     id="layer1"
     transform="translate(265.32948,-316.16333)"><path
       style="fill:#4d4d4d"
       d="m -238.35446,475.42702 c -0.27578,-0.30473 -0.97258,-0.58197 -1.69465,-0.67425 -2.14597,-0.27426 -3.42081,-0.70053 -4.02799,-1.34686 -0.32463,-0.34555 -0.98923,-0.70312 -1.47688,-0.7946 -0.48766,-0.0915 -0.9519,-0.27191 -1.03164,-0.40093 -0.0797,-0.12902 -0.46538,-0.23838 -0.85697,-0.243 -0.39159,-0.005 -0.90367,-0.15439 -1.13794,-0.3328 -0.47599,-0.36248 -1.82301,-3.15613 -1.82301,-3.78081 0,-0.52794 0.657,-1.78511 1.14422,-2.18946 0.33164,-0.27524 0.38017,-0.0637 0.34817,1.51733 -0.0328,1.62183 0.0403,1.92035 0.62428,2.54704 0.82163,0.88179 1.89304,1.45336 2.72433,1.45336 0.73144,0 2.10439,0.63281 2.55752,1.17879 0.5034,0.60657 2.31138,1.44828 3.51864,1.63811 0.61676,0.097 1.38927,0.34998 1.7167,0.56223 0.85442,0.55386 0.73375,0.0275 -0.19844,-0.86559 -1.70001,-1.62871 -0.58885,-2.00889 1.15998,-0.39687 1.365,1.25821 2.56122,1.53469 1.43095,0.33073 -0.37569,-0.40019 -0.77064,-1.14199 -0.87766,-1.64846 -0.18334,-0.86762 -0.16666,-0.89821 0.28872,-0.52917 0.54047,0.43801 2.26336,2.2862 2.54769,2.73299 0.10122,0.15906 0.24926,0.224 0.32896,0.14429 0.0797,-0.0797 -0.15195,-0.76028 -0.51478,-1.51239 -0.75831,-1.57191 -0.82342,-2.01868 -0.26282,-1.80356 0.21828,0.0838 0.57264,0.0848 0.78746,0.002 0.31824,-0.12212 0.26841,-0.31007 -0.26902,-1.01467 -0.51569,-0.67611 -0.9186,-0.90029 -1.84664,-1.0275 -1.37359,-0.18827 -2.94965,-0.93128 -3.67374,-1.73194 -0.27722,-0.30652 -0.64405,-0.55732 -0.81519,-0.55732 -0.17114,0 -0.48011,-0.31738 -0.6866,-0.70528 -0.46107,-0.86617 -0.51248,-6.43548 -0.0704,-7.62909 0.16168,-0.43656 0.51107,-1.50813 0.77642,-2.38125 0.26535,-0.87313 0.57707,-1.70061 0.6927,-1.83886 0.11563,-0.13824 0.21197,-0.61449 0.21409,-1.05833 0.004,-0.76657 0.5158,-2.52712 1.02463,-3.52231 0.82649,-1.61647 1.61735,-3.42511 1.61735,-3.69875 0,-0.34089 1.34931,-3.28395 1.60823,-3.50779 0.25793,-0.223 1.03761,-1.91384 1.03761,-2.2502 0,-0.361 0.93474,-2.1725 1.9549,-3.78853 0.38001,-0.60198 0.69093,-1.22975 0.69093,-1.39505 0,-0.36705 1.83395,-2.93493 2.30601,-3.22885 0.1869,-0.11637 0.33982,-0.34028 0.33982,-0.49757 0,-0.15729 0.38731,-0.83598 0.86069,-1.5082 1.18883,-1.6882 1.43924,-2.28637 1.78546,-4.26494 0.62133,-3.55071 1.16382,-29.23783 0.6772,-32.06498 -0.11749,-0.68256 -0.12969,-1.57542 -0.0271,-1.98411 l 0.1865,-0.74309 0.36592,0.66119 c 0.20126,0.36366 0.37014,1.07243 0.3753,1.57504 l 0.009,0.91384 1.38906,-1.44846 c 0.76398,-0.79665 1.7,-1.60613 2.08004,-1.79884 0.6694,-0.33945 0.69005,-0.42261 0.66145,-2.66427 -0.0162,-1.27264 0.10615,-2.6008 0.27196,-2.95146 0.16582,-0.35066 0.71413,-1.50077 1.21847,-2.5558 0.7491,-1.567 0.83922,-1.92096 0.49228,-1.93319 -0.2336,-0.008 -1.43675,-0.3516 -2.67368,-0.76306 l -2.24896,-0.74811 -0.44287,0.67266 c -0.46183,0.70146 -1.76388,1.38264 -2.64285,1.38264 -0.28128,0 -0.80976,0.32191 -1.17439,0.71535 -0.60242,0.65003 -0.81683,0.70968 -2.34786,0.65315 -0.94206,-0.0348 -1.75926,0.0581 -1.85356,0.21069 -0.29526,0.47774 -1.0814,0.29468 -1.67721,-0.39058 -0.31729,-0.3649 -0.57688,-0.75307 -0.57688,-0.8626 0,-0.10952 -0.29766,-0.52013 -0.66146,-0.91248 -0.36381,-0.39234 -0.66146,-0.78044 -0.66146,-0.86245 0,-0.082 -0.29766,-0.62061 -0.66146,-1.19691 -0.46555,-0.73748 -0.66195,-1.42161 -0.66313,-2.30985 -10e-4,-1.11676 -0.0905,-1.31257 -0.77355,-1.70115 -0.42454,-0.24152 -0.8405,-0.3705 -0.92437,-0.28663 -0.0839,0.0839 -0.15249,0.92992 -0.15249,1.88011 0,1.791 -0.42728,2.73525 -2.05052,4.53148 -0.32742,0.36232 -0.59531,0.85708 -0.59531,1.09948 0,0.24239 -0.23107,0.89845 -0.51348,1.45791 -0.2824,0.55945 -0.71126,1.49344 -0.95301,2.07552 -0.24176,0.58209 -0.55458,1.30378 -0.69517,1.60376 -0.31385,0.66968 -0.1347,5.67656 0.25503,7.12749 0.15635,0.58209 0.4133,1.59412 0.57101,2.24896 0.15771,0.65485 0.40416,1.42875 0.54767,1.71979 0.14351,0.29105 0.37443,1.60073 0.51317,2.91042 0.13873,1.30969 0.37588,3.03609 0.52699,3.83646 0.15111,0.80036 0.38364,2.11005 0.51673,2.91042 0.2591,1.55805 0.98088,5.4569 1.37149,7.40833 0.13107,0.65484 0.35643,1.905 0.50079,2.77812 0.14436,0.87313 0.50988,2.36141 0.81225,3.3073 0.69841,2.18475 1.03376,6.47873 0.49186,6.29809 -0.20096,-0.067 -0.39122,-0.41013 -0.4228,-0.76255 -0.081,-0.90377 -0.46798,-2.67956 -1.11469,-5.11485 -0.30567,-1.15106 -0.55576,-2.47067 -0.55576,-2.93246 0,-0.46179 -0.0874,-0.92706 -0.19431,-1.03393 -0.27044,-0.27044 -1.06159,-3.88375 -1.62781,-7.43451 -0.49033,-3.0748 -0.62969,-4.52246 -0.67497,-7.01146 -0.0323,-1.7735 -0.16906,-2.70829 -0.46462,-3.175 -0.2304,-0.3638 -0.56675,-1.13771 -0.74745,-1.71979 -0.18071,-0.58209 -0.41714,-1.1774 -0.52542,-1.32292 -0.10827,-0.14552 -0.2627,-0.62177 -0.34318,-1.05833 -0.0805,-0.43657 -0.28036,-1.34375 -0.44418,-2.01598 l -0.29785,-1.22222 -1.77188,-0.13 c -1.07945,-0.0792 -2.14012,-0.33847 -2.71421,-0.66348 -0.82608,-0.46768 -1.03824,-0.49119 -1.71979,-0.19062 l -0.77746,0.34286 0.98288,0.0215 c 0.69776,0.0153 1.06503,0.17499 1.26608,0.55066 0.15576,0.29104 0.19567,0.52916 0.0887,0.52916 -0.10699,0 -0.0516,0.14288 0.12298,0.3175 0.17462,0.17463 0.3175,0.71632 0.3175,1.20377 0,0.81816 0.61595,2.40192 1.05476,2.71207 0.37304,0.26365 2.91399,5.77956 2.91399,6.32571 0,0.30835 0.11134,0.76738 0.24743,1.02006 0.13609,0.25269 0.42399,1.94772 0.63978,3.76673 0.34153,2.8789 0.51816,3.54718 1.36368,5.15937 0.53424,1.01865 1.06302,1.97115 1.17508,2.11667 0.11205,0.14552 0.27694,0.65102 0.36642,1.12335 0.0895,0.47232 0.37232,1.17872 0.62856,1.56978 0.6777,1.03431 1.63531,4.13717 1.9408,6.2886 0.14574,1.0264 0.39752,2.30403 0.55951,2.83918 0.25991,0.85866 0.22631,1.06076 -0.28591,1.71979 -1.14644,1.47504 -2.27689,3.06458 -2.66798,3.75148 -0.21904,0.38472 -0.78459,1.32635 -1.25677,2.09252 -0.47219,0.76617 -0.85852,1.50039 -0.85852,1.6316 0,0.13121 -0.13029,0.28199 -0.28953,0.33507 -0.41858,0.13953 -0.78463,2.04165 -1.03372,5.37154 -0.31911,4.26587 -0.73889,8.26533 -1.04139,9.92188 -0.31175,1.70715 -0.46917,2.81009 -0.81191,5.68854 -0.58395,4.90428 -0.69159,5.31073 -1.67441,6.32277 -0.50917,0.5243 -0.99521,0.95327 -1.0801,0.95327 -0.34691,0 -0.11742,-0.76927 0.44096,-1.47812 0.92295,-1.17168 1.24783,-2.42791 1.25995,-4.87188 0.0103,-2.08676 0.17175,-3.95128 0.81308,-9.3927 0.13721,-1.16417 0.411,-3.84308 0.60844,-5.95313 0.4668,-4.98891 1.47737,-8.03 3.3154,-9.97696 0.30336,-0.32134 0.55157,-0.74956 0.55157,-0.9516 0,-0.20204 0.38695,-0.7727 0.85989,-1.26813 1.86644,-1.9552 2.37751,-2.8499 2.224,-3.89344 -0.40936,-2.78266 -0.45067,-2.90563 -2.19379,-6.53083 -0.48956,-1.01813 -0.8901,-2.11946 -0.8901,-2.44739 0,-0.32793 -0.11907,-0.59623 -0.26459,-0.59623 -0.14552,0 -0.26487,-0.14883 -0.26521,-0.33073 -3.5e-4,-0.1819 -0.4766,-1.03141 -1.05834,-1.8878 -0.58173,-0.85638 -1.0577,-1.77912 -1.0577,-2.05052 0,-0.2714 -0.092,-0.49345 -0.20441,-0.49345 -0.11243,0 -0.42541,-0.41037 -0.69552,-0.91192 -0.2701,-0.50155 -0.77343,-1.17715 -1.1185,-1.50133 -0.34507,-0.32418 -0.6274,-0.79284 -0.6274,-1.04148 0,-0.58864 -3.2741,-3.38149 -4.1888,-3.5731 -0.3883,-0.0813 -0.92418,-0.2669 -1.19084,-0.41236 -0.28399,-0.15492 -3.0513,-0.26448 -6.67992,-0.26448 -5.75629,0 -6.21362,-0.0347 -6.45696,-0.48936 -0.185,-0.34567 -0.14553,-0.76786 0.13442,-1.43787 0.38997,-0.93334 1.20843,-1.57453 3.41932,-2.67873 0.57447,-0.28692 1.24902,-0.68834 1.49898,-0.89204 0.89377,-0.72839 2.51631,-1.16594 4.55254,-1.22771 1.89406,-0.0574 2.15965,-0.13565 3.14206,-0.92514 0.59022,-0.47431 1.60638,-0.97612 2.25815,-1.11513 1.14046,-0.24323 1.17901,-0.2828 1.02512,-1.05224 -0.0879,-0.43973 -0.16298,-1.17158 -0.16673,-1.62633 -0.006,-0.70336 -0.16385,-0.89922 -1.05833,-1.31164 -1.21153,-0.55859 -1.33958,-1.13669 -0.43915,-1.98261 0.66741,-0.62699 1.74736,-0.75557 2.23664,-0.26628 0.49543,0.49543 2.21879,1.00561 3.41144,1.00993 l 1.10107,0.004 0.0905,-2.84427 c 0.0976,-3.06661 -0.0745,-2.55028 2.54881,-7.64964 0.46129,-0.8967 1.25731,-2.07421 1.76894,-2.61669 0.82843,-0.8784 0.93023,-1.14343 0.93023,-2.42193 0,-0.78957 0.12212,-1.66377 0.27138,-1.94266 0.22092,-0.41281 0.11681,-0.6678 -0.56007,-1.37167 -0.45729,-0.47553 -1.50215,-1.63053 -2.3219,-2.56667 -0.81975,-0.93614 -1.75834,-1.99532 -2.08577,-2.35374 -0.32742,-0.35842 -0.59531,-0.75198 -0.59531,-0.87459 0,-0.25293 -0.53704,-0.92018 -1.78594,-2.21893 -0.47294,-0.49183 -0.85989,-1.14199 -0.85989,-1.44481 0,-0.30283 -0.16672,-0.61457 -0.37049,-0.69276 -0.56913,-0.21839 -2.27534,-3.14319 -2.27534,-3.90038 0,-0.36966 -0.11907,-0.7457 -0.26459,-0.83563 -0.14552,-0.0899 -0.26458,-0.37676 -0.26458,-0.63738 0,-0.26062 -0.35419,-0.96279 -0.78708,-1.56039 -0.50517,-0.69736 -0.68461,-1.14987 -0.50098,-1.26336 0.61563,-0.38048 2.34639,2.32452 2.34639,3.66715 0,0.36037 0.171,0.79714 0.37999,0.97059 0.20899,0.17344 0.8936,1.1548 1.52135,2.18078 0.62775,1.02599 1.55809,2.31435 2.06741,2.86304 0.50932,0.54868 1.14923,1.38155 1.42201,1.85081 0.27279,0.46927 0.95896,1.27149 1.52483,1.78272 0.56587,0.51123 1.09974,1.2119 1.18636,1.55705 0.0866,0.34514 0.27936,0.62753 0.42831,0.62753 0.26492,0 1.83933,1.54935 2.24511,2.20937 0.11266,0.18325 0.63794,0.59599 1.16728,0.91719 1.35573,0.82264 1.53802,1.11546 1.66797,2.67939 0.0869,1.04589 0.36129,1.74976 1.12354,2.88218 0.5547,0.82408 1.09785,1.53801 1.20699,1.58652 0.10914,0.0485 0.19844,0.20584 0.19844,0.34963 0,0.14379 0.18588,0.44731 0.41306,0.6745 0.33788,0.33788 0.53711,0.35655 1.09447,0.1026 0.41294,-0.18815 1.14035,-0.24164 1.84629,-0.13578 0.81304,0.12192 1.30159,0.0652 1.61751,-0.18765 0.73316,-0.5869 1.47345,-0.94445 2.35743,-1.1386 1.21495,-0.26685 1.30292,-0.87257 0.28678,-1.97471 -0.47777,-0.5182 -0.94014,-1.0042 -1.0275,-1.07998 -0.0873,-0.0758 -0.29541,-0.39728 -0.46234,-0.71443 -0.25978,-0.49357 -0.20988,-0.6503 0.34644,-1.0879 0.35747,-0.28118 1.01201,-0.66122 1.45453,-0.84451 0.8209,-0.34003 1.08357,-0.79824 0.45759,-0.79824 -0.19084,0 -0.60258,-0.23812 -0.91498,-0.52917 -0.43103,-0.40157 -0.9375,-0.53012 -2.10041,-0.53315 -1.56634,-0.004 -3.66469,-0.55367 -3.34281,-0.87554 0.0983,-0.0983 1.34683,-0.17881 2.77443,-0.17881 2.47672,0 2.6155,0.0303 3.02904,0.66146 0.25092,0.38295 0.68546,0.66146 1.03204,0.66146 0.90756,0 1.33912,0.65857 0.96691,1.47549 -0.41595,0.91292 -0.42641,0.90014 0.6887,0.84109 0.54571,-0.0289 1.91461,0.0435 3.042,0.16086 l 2.0498,0.21341 -0.0109,-5.15314 c -0.01,-4.71133 0.0355,-5.2357 0.52988,-6.11598 0.29743,-0.52955 0.54079,-1.11704 0.54079,-1.30553 0,-0.18849 0.29765,-0.62234 0.66145,-0.96412 0.36381,-0.34177 0.66146,-0.84296 0.66146,-1.11376 0,-0.27079 0.18575,-0.77584 0.41278,-1.12233 0.49196,-0.75083 0.42189,-5.09263 -0.15743,-9.75482 -0.32588,-2.62252 -0.31732,-2.93412 0.10193,-3.71263 0.4184,-0.77692 0.42293,-0.933 0.0527,-1.819 -0.22271,-0.53304 -0.61046,-1.08418 -0.86166,-1.22475 -0.41007,-0.22949 -0.4178,-0.32833 -0.0757,-0.96755 0.38313,-0.71589 2.36441,-2.77474 2.6702,-2.77474 0.0902,0 0.86432,0.37376 1.72038,0.83058 2.66887,1.42419 4.07427,1.57224 4.07427,0.4292 0,-0.30616 0.19503,-0.77215 0.43339,-1.03555 0.34712,-0.38355 0.36892,-0.55658 0.10952,-0.86913 -0.49283,-0.59382 -0.11505,-0.96802 0.67431,-0.66791 0.91172,0.34664 0.89945,0.35369 0.89945,-0.51722 0,-0.89159 0.30927,-1.06361 1.56571,-0.87088 0.81368,0.12482 0.88168,0.0881 0.67896,-0.36613 -0.12391,-0.27766 -0.27392,-1.12943 -0.33336,-1.89283 -0.085,-1.09155 -0.0184,-1.4224 0.31179,-1.54911 0.381,-0.1462 0.37912,-0.23009 -0.0204,-0.90637 -0.24213,-0.4099 -0.71773,-0.89378 -1.05689,-1.07529 -0.59623,-0.31909 -0.78598,-0.77685 -0.45797,-1.10485 0.21686,-0.21687 1.43269,0.32295 2.14951,0.95437 0.46955,0.41361 0.61483,0.4435 0.71925,0.14794 0.99431,-2.81449 0.98981,-2.74156 0.25623,-4.1555 -0.63228,-1.2187 -1.16796,-1.62438 -2.1592,-1.63521 -0.18191,-0.002 -0.33073,0.21376 -0.33073,0.47944 0,1.00018 -1.81102,2.16278 -3.36904,2.16278 -0.91386,0 -1.05545,0.0914 -1.33178,0.8599 -0.17007,0.47294 -0.38748,1.53183 -0.48315,2.35307 -0.25447,2.18452 -0.38117,2.28541 -1.73135,1.37861 -1.30887,-0.87904 -1.52071,-1.40905 -0.83696,-2.09401 0.35145,-0.35207 0.46711,-0.84911 0.44142,-1.89696 -0.0191,-0.78094 -0.11492,-1.49999 -0.21282,-1.59789 -0.24335,-0.24335 -0.6694,0.47866 -0.67436,1.1428 -0.002,0.29832 -0.14531,0.68366 -0.31796,0.85631 -0.17265,0.17265 -0.35469,0.58342 -0.40452,0.91281 -0.16807,1.1108 -0.92747,0.98637 -1.05437,-0.17276 -0.0561,-0.51285 0.0939,-0.93782 0.44729,-1.26708 0.63087,-0.58774 0.69674,-1.48643 0.12503,-1.70581 -0.2237,-0.0858 -0.65031,0.0644 -0.94802,0.33378 -0.55274,0.50023 -0.56324,0.89499 -0.0854,3.21234 0.14029,0.6804 0.30911,0.85989 0.80873,0.85989 0.69433,0 0.8016,0.25317 0.31393,0.74084 -0.52055,0.52055 -1.19221,0.36369 -1.75584,-0.41005 l -0.52998,-0.72755 -0.69434,0.6523 c -0.55491,0.52131 -0.93787,0.64169 -1.90724,0.5995 -0.66711,-0.029 -1.37625,-0.18834 -1.57588,-0.35402 -0.28544,-0.23689 -0.36421,-0.19542 -0.36884,0.19419 -0.006,0.53375 -0.49001,1.17729 -1.65787,2.20587 -0.65788,0.57943 -0.94417,0.64243 -2.64583,0.58222 -1.56456,-0.0554 -2.33688,0.0809 -4.28938,0.75685 -1.30968,0.4534 -2.74237,0.91665 -3.18375,1.02943 -0.74777,0.19107 -3.76993,2.01164 -4.1137,2.47811 -0.0845,0.11471 -0.62031,0.45852 -1.19062,0.76401 -0.57031,0.3055 -1.45101,0.8966 -1.95711,1.31355 -0.50609,0.41695 -1.11149,0.75809 -1.34532,0.75809 -0.23383,0 -0.72027,0.32742 -1.08096,0.7276 -0.3607,0.40018 -1.15154,1.12783 -1.75744,1.61698 -2.2407,1.80899 -5.13419,4.8957 -6.46433,6.89601 -0.33143,0.49842 -0.95979,1.10254 -1.39635,1.34249 -0.58044,0.31902 -0.81603,0.66209 -0.87666,1.27659 -0.1182,1.19806 -0.57855,1.04228 -0.57855,-0.19577 0,-0.88742 0.14737,-1.15282 1.02694,-1.84945 0.56481,-0.44734 1.21481,-1.20149 1.44444,-1.67588 0.78765,-1.6272 3.70198,-4.64317 7.58279,-7.84723 0.3638,-0.30037 0.80526,-0.66739 0.98102,-0.8156 0.17576,-0.14822 0.42758,-0.26949 0.5596,-0.26949 0.13202,0 0.94072,-0.47597 1.79711,-1.05771 0.85638,-0.58173 1.72432,-1.05798 1.92876,-1.05833 0.20443,-3.5e-4 0.81577,-0.46745 1.35853,-1.03801 0.97712,-1.02717 2.80127,-2.13762 3.51149,-2.13762 0.2024,0 0.89176,-0.27499 1.53189,-0.61108 2.03376,-1.0678 4.20477,-1.62432 6.17579,-1.58311 1.90284,0.0398 2.82456,-0.25666 3.65658,-1.17603 0.38564,-0.42613 0.49346,-1.2335 0.63078,-4.72344 0.0911,-2.31521 0.2547,-4.32853 0.36357,-4.47405 0.10887,-0.14552 0.28068,-0.65153 0.38181,-1.12448 0.10112,-0.47294 0.27958,-0.85989 0.39657,-0.85989 0.11698,0 0.27212,-0.22724 0.34475,-0.50499 0.18968,-0.72533 2.25878,-2.14085 3.12935,-2.14085 0.40731,0 0.89424,-0.21381 1.08478,-0.47633 0.64016,-0.88197 1.88303,-1.16746 4.62881,-1.06324 2.12234,0.0806 2.86616,0.2259 4.076,0.79651 0.81396,0.38389 1.64739,0.85695 1.85209,1.05125 0.20469,0.1943 0.83188,0.56601 1.39374,0.82603 1.90598,0.88202 4.59422,3.30905 5.29055,4.77646 0.48094,1.0135 0.56306,1.9163 0.19501,2.14376 -0.13186,0.0815 -0.17846,0.38252 -0.10356,0.66894 0.20134,0.76994 -1.22864,3.71204 -1.80421,3.71204 -0.2569,0 -0.54068,-0.11906 -0.63061,-0.26458 -0.0899,-0.14552 -0.2465,-0.26459 -0.3479,-0.26459 -0.21817,0 -0.74036,1.15408 -0.99045,2.18899 -0.0975,0.40358 -0.41657,0.90135 -0.70898,1.10616 -0.40041,0.28046 -0.49331,0.55652 -0.37635,1.11831 0.47056,2.26011 0.48439,2.48946 0.17271,2.86501 -0.18005,0.21695 -0.66579,0.39445 -1.07941,0.39445 -0.51077,0 -0.85246,0.19099 -1.06504,0.59531 -0.38701,0.73609 -1.7232,2.05052 -2.08447,2.05052 -0.14684,0 -0.27077,0.20836 -0.2754,0.46303 -0.005,0.25466 -0.18076,0.69076 -0.3914,0.96911 -0.49614,0.65564 -2.21112,0.63383 -2.77519,-0.0353 -0.21828,-0.25894 -0.635,-0.4883 -0.92604,-0.50969 -0.29104,-0.0214 -0.91154,-0.1606 -1.37889,-0.30935 -0.74953,-0.23855 -0.97571,-0.17917 -1.91823,0.50358 -0.58768,0.42572 -1.0685,0.88321 -1.0685,1.01665 0,0.13344 0.29765,0.59637 0.66145,1.02872 0.717,0.8521 0.91419,2.60011 0.35627,3.15804 -0.3719,0.37189 -0.35873,1.74439 0.0257,2.68224 0.38805,0.94661 0.76532,7.83249 0.50537,9.22395 -0.11613,0.62158 -0.34058,1.2775 -0.49879,1.4576 -1.53257,1.74468 -2.66449,5.04331 -2.60912,7.60351 0.0236,1.0914 0.0566,2.57969 0.0734,3.30729 0.0168,0.7276 -0.0585,1.99597 -0.16724,2.81858 l -0.19773,1.49567 4.69564,0.12852 c 6.88517,0.18845 9.82525,0.69088 12.85344,2.19652 0.76843,0.38207 1.15046,0.32965 5.20367,-0.71411 0.50932,-0.13116 2.71198,-0.36002 4.89479,-0.50859 5.34956,-0.36409 9.59356,-0.88153 9.21463,-1.12346 -0.17071,-0.10899 -0.38672,-0.54575 -0.48003,-0.97059 -0.0933,-0.42484 -0.33812,-0.91225 -0.54403,-1.08314 -0.60482,-0.50195 -1.17911,-1.85725 -1.17911,-2.78263 0,-0.98747 1.12146,-2.78642 2.93141,-4.70229 0.6595,-0.69809 1.42944,-1.70844 1.71099,-2.2452 0.28155,-0.53677 0.59482,-1.03785 0.69615,-1.11351 0.10133,-0.0757 0.56238,-0.9091 1.02454,-1.85209 0.92338,-1.88403 1.85541,-3.0182 2.95033,-3.59022 1.30315,-0.6808 6.56158,-0.31025 6.56158,0.46238 0,0.12248 0.17352,0.2227 0.3856,0.2227 0.21207,0 0.71809,0.41672 1.12447,0.92604 0.46688,0.58513 0.96736,0.92603 1.35952,0.92604 0.34135,0 0.96643,0.20427 1.38907,0.45393 0.72596,0.42884 0.81088,0.42884 1.53685,0 1.0242,-0.60501 2.99095,-0.59993 3.52219,0.009 0.80046,0.91766 1.09407,1.81339 1.10579,3.37343 0.01,1.28957 -0.12316,1.79755 -0.70786,2.70672 -0.82486,1.28259 -0.93612,2.6703 -0.29281,3.65211 0.5752,0.87786 0.31207,2.51557 -0.6748,4.19994 l -0.7607,1.29836 0.92988,1.40051 0.92989,1.40051 -0.46185,1.46832 c -0.25401,0.80758 -0.54169,1.46833 -0.63929,1.46833 -0.19882,0 -1.07303,1.87754 -1.07303,2.30453 0,0.36874 -1.37262,2.83168 -1.64018,2.94303 -0.42918,0.17863 -0.19531,1.04506 0.31835,1.17938 0.3817,0.0998 0.48162,0.27525 0.35666,0.62617 -0.27511,0.77259 -0.92774,1.41355 -1.43926,1.41355 -0.25868,0 -0.55358,0.26789 -0.65534,0.59531 -0.10175,0.32743 -0.58988,0.99174 -1.08471,1.47625 -1.46296,1.43244 -2.15437,4.2138 -1.39857,5.62602 0.46426,0.86748 0.26923,1.76886 -0.56272,2.60082 -0.76277,0.76276 -1.3854,0.95655 -2.82392,0.8789 -0.35632,-0.0192 -0.59531,0.12064 -0.59531,0.34841 0,0.70252 -0.74521,0.38926 -1.33178,-0.55984 -0.49276,-0.79729 -0.6884,-0.91683 -1.28586,-0.7856 -0.75302,0.16539 -1.88028,-0.61169 -1.88028,-1.29617 0,-0.19564 -0.20836,-0.41048 -0.46302,-0.47742 -0.25466,-0.0669 -0.74232,-0.68225 -1.08369,-1.36737 -0.61622,-1.23676 -1.14864,-1.4693 -1.32159,-0.57722 -0.0496,0.25581 0.17627,0.96735 0.50191,1.5812 0.66863,1.26037 0.50088,2.40542 -0.42748,2.91802 -0.28238,0.15592 -1.01367,0.67368 -1.62509,1.1506 -1.36429,1.06415 -2.94791,1.64643 -4.47785,1.64643 -1.35242,0 -1.63385,0.64704 -0.39936,0.91818 0.4169,0.0916 1.00723,0.39869 1.31185,0.68249 0.30462,0.28379 0.77371,0.51599 1.04242,0.51599 0.26871,0 1.25595,0.54585 2.19388,1.213 0.93792,0.66715 1.96456,1.31577 2.28143,1.44136 0.62108,0.24619 1.26458,0.72903 2.63324,1.97585 0.47922,0.43656 1.53451,1.38906 2.34509,2.11667 0.81057,0.7276 1.94503,1.79916 2.52103,2.38125 0.576,0.58208 1.13777,1.13939 1.24839,1.23847 1.47696,1.32282 2.45009,2.34645 2.45009,2.57724 0,0.15693 0.16442,0.28533 0.36537,0.28533 0.20095,0 0.86952,0.56328 1.4857,1.25174 0.61618,0.68845 1.46488,1.46127 1.88601,1.71737 0.42112,0.2561 0.9908,0.83582 1.26595,1.28828 0.27515,0.45245 0.88209,1.05483 1.34874,1.33862 0.46666,0.28379 0.90918,0.74813 0.98338,1.03186 0.0742,0.28373 0.24008,0.51588 0.36863,0.51588 0.12854,0 0.23372,0.15292 0.23372,0.33983 0,0.1869 0.35147,0.54744 0.78104,0.8012 0.42957,0.25375 1.04867,0.84497 1.37578,1.31381 0.32712,0.46885 0.77932,0.96162 1.0049,1.09505 0.22559,0.13343 0.86789,0.69622 1.42734,1.25064 0.55945,0.55442 1.42274,1.25869 1.91843,1.56504 0.49568,0.30635 1.05179,0.75559 1.2358,0.99832 0.36597,0.48276 1.06519,0.96535 1.96333,1.35505 0.31817,0.13805 1.4707,0.79261 2.56118,1.45458 1.09047,0.66196 2.13138,1.20356 2.31313,1.20356 0.35296,0 1.87648,0.45756 2.74928,0.82568 2.41349,1.01796 9.73201,1.24127 12.83229,0.39155 0.94589,-0.25925 2.16703,-0.5327 2.71364,-0.60766 0.54662,-0.075 1.05966,-0.24278 1.14009,-0.37293 0.0804,-0.13015 0.50819,-0.23664 0.95055,-0.23664 0.44236,0 1.17947,-0.16474 1.63803,-0.36609 0.45855,-0.20134 1.42813,-0.63224 2.15462,-0.95753 0.72649,-0.3253 2.03618,-0.81923 2.91042,-1.09764 1.44662,-0.46068 5.21646,-2.16824 7.54265,-3.41646 2.40183,-1.2888 4.27837,-2.09978 4.85874,-2.09978 0.35037,0 0.97806,-0.17786 1.394869,-0.39524 0.41682,-0.21739 1.02736,-0.39598 1.35675,-0.39688 0.3294,-8.9e-4 0.80565,-0.11043 1.05834,-0.24341 1.56507,-0.82363 8.05633,-1.1481 10.7616,-0.53792 1.77712,0.40083 5.71916,1.56922 6.29684,1.86633 0.25269,0.12996 0.61109,0.23629 0.79646,0.23629 0.18536,0 0.63346,0.27399 0.99577,0.60886 0.36232,0.33487 1.07351,0.84089 1.58042,1.12448 0.50691,0.28359 1.59583,1.06569 2.41981,1.738 0.82399,0.67231 1.86775,1.38599 2.31949,1.58594 0.45173,0.19996 0.82133,0.45356 0.82133,0.56356 0,0.11 0.15632,0.19999 0.34737,0.19999 0.19106,0 0.68959,0.35719 1.10784,0.79375 0.41825,0.43657 0.90957,0.79375 1.09181,0.79375 0.5053,0 4.0605,3.77063 4.06426,4.31055 0.002,0.26074 0.25103,0.73699 0.5538,1.05833 0.87413,0.92773 2.09534,3.59713 2.09534,4.58015 0,0.49439 0.0931,0.89889 0.20682,0.89889 0.28582,0 0.80031,1.8868 1.11828,4.10104 0.14627,1.01865 0.33782,2.33588 0.42566,2.92719 0.20439,1.37587 -0.6192,12.3132 -1.05634,14.02823 l -0.33157,1.30083 -4.18093,0.073 c -3.05307,0.0533 -4.28869,-0.0164 -4.58039,-0.2585 -0.3157,-0.26201 -0.36727,-0.71552 -0.24593,-2.16278 l 0.15352,-1.83125 -9.97591,0.16834 c -34.012479,0.57393 -86.757049,0.42054 -115.676969,-0.33641 -4.29286,-0.11236 -7.83057,-0.18663 -7.86156,-0.16505 -0.031,0.0216 0.0786,0.85389 0.24362,1.84957 0.41813,2.52335 0.40388,2.53077 -4.85873,2.53077 -3.83451,0 -4.19539,-0.041 -4.44343,-0.50445 -0.33963,-0.63461 -0.89117,-5.46865 -0.70913,-6.21532 0.14162,-0.5809 0.0171,-0.80043 -1.45197,-2.55921 -2.18344,-2.61408 -1.73946,-2.37463 -3.67295,-1.98089 -2.0726,0.42206 -10.88554,0.42839 -11.0263,0.008 -0.05,-0.14945 1.19002,-0.61635 2.75568,-1.03754 2.77137,-0.74556 2.92363,-0.75813 5.75707,-0.47538 3.28923,0.32823 3.88034,0.14542 2.73604,-0.84619 -0.38695,-0.33532 -0.90913,-1.00722 -1.1604,-1.49313 -0.25127,-0.4859 -0.73834,-1.10487 -1.08239,-1.3755 -0.34405,-0.27063 -0.62554,-0.65208 -0.62554,-0.84767 0,-0.1956 -0.0954,-0.39531 -0.2119,-0.44382 -0.19484,-0.0811 -1.16687,-1.689 -2.09268,-3.46163 -0.209,-0.40018 -0.49035,-0.72761 -0.62521,-0.72761 -0.13487,0 -0.24521,-0.23109 -0.24521,-0.51355 0,-0.28245 -0.11906,-0.58713 -0.26458,-0.67707 -0.14552,-0.0899 -0.26458,-0.45174 -0.26458,-0.80401 0,-0.5661 -0.378,-1.78488 -1.06359,-3.42933 -0.56456,-1.35415 -0.85679,-4.33727 -0.70406,-7.18715 0.0884,-1.64962 0.0758,-2.99725 -0.028,-2.99473 -0.1038,0.003 -0.46912,0.30017 -0.81181,0.66146 -0.3427,0.36128 -0.70936,0.65688 -0.81481,0.65688 -0.42688,0 0.11353,5.73794 0.595,6.31758 0.51135,0.61559 0.59102,7.01474 0.10206,8.19692 -0.21921,0.53 -0.66824,1.61847 -0.99784,2.41884 -0.73608,1.78741 -1.03331,3.22415 -1.21791,5.88698 -0.0782,1.12778 -0.2295,2.05052 -0.33626,2.05052 -0.35137,0 -0.8082,-1.32925 -0.8082,-2.35165 0,-0.55211 0.1773,-1.58831 0.39401,-2.30266 0.21671,-0.71435 0.3953,-1.62786 0.39687,-2.03001 0.002,-0.40216 0.10711,-0.93794 0.23453,-1.19063 0.33034,-0.65514 0.99541,-3.12008 1.30186,-4.82505 0.1948,-1.08377 0.1636,-2.02926 -0.12221,-3.70417 -0.21108,-1.23693 -0.46614,-3.02286 -0.56681,-3.96875 -0.17637,-1.65706 -0.19687,-1.69567 -0.56205,-1.05833 -1.02782,1.79382 -2.13445,4.12003 -2.13376,4.48532 6.5e-4,0.34453 -0.52974,1.49972 -2.95002,6.42515 -0.12416,0.25269 -0.22575,0.61702 -0.22575,0.80963 0,0.19261 -0.42542,1.21374 -0.94538,2.26918 -0.51996,1.05544 -1.00594,2.35798 -1.07997,2.89454 -0.074,0.53655 -0.34499,1.4518 -0.60213,2.03389 -1.01499,2.29757 -1.1814,3.0017 -1.2789,5.41129 -0.0995,2.45892 0.27754,4.77516 0.77731,4.77516 0.13296,0 0.56271,0.29762 0.955,0.66138 0.3923,0.36375 1.08507,0.8378 1.53951,1.05345 0.45443,0.21564 0.97628,0.57287 1.15967,0.79383 0.18339,0.22097 0.72641,0.40176 1.20672,0.40176 0.59714,0 1.10981,0.23136 1.62125,0.73164 1.0793,1.05575 2.09244,1.64961 2.81431,1.64961 0.34637,0 0.85262,0.24626 1.12501,0.54725 0.44818,0.49523 0.45837,0.61221 0.10715,1.23075 -0.21345,0.37592 -0.80481,1.01407 -1.31414,1.4181 -0.83494,0.66234 -1.19691,0.75076 -3.67953,0.89883 -1.51443,0.0903 -2.96511,0.27748 -3.22376,0.4159 -0.70816,0.37899 -1.16707,0.3066 -1.68513,-0.26585 z m 5.97489,-3.10066 c -0.2306,-0.39655 -0.28223,-0.40798 -0.28884,-0.0639 -0.009,0.44558 0.26966,0.84677 0.45718,0.65926 0.0618,-0.0618 -0.0139,-0.32974 -0.16834,-0.59532 z m 2.87812,0.31593 c 0,-0.41016 -1.05574,-0.79966 -1.63978,-0.60498 -0.19798,0.066 -0.01,0.28572 0.45166,0.52694 1.03035,0.53877 1.18812,0.54914 1.18812,0.078 z m 24.19784,-5.8095 c 0.10669,-0.99627 0.34704,-1.84004 0.57896,-2.03251 0.27778,-0.23054 2.43133,-0.39117 7.19059,-0.53633 6.51761,-0.1988 93.55579,-0.30881 98.736769,-0.1248 1.38245,0.0491 7.75229,0.16989 14.15521,0.26843 6.58256,0.1013 12.22507,0.30346 12.98416,0.46519 1.29109,0.27507 1.35442,0.33059 1.65365,1.44936 0.17113,0.63984 0.31114,1.39975 0.31114,1.68871 0,0.49692 0.18461,0.52537 3.4091,0.52537 h 3.4091 l 0.18828,-1.52136 c 0.10355,-0.83674 0.3026,-1.66074 0.44234,-1.83109 0.52839,-0.64419 0.32445,-5.34115 -0.29673,-6.83401 -0.79035,-1.89943 -1.34889,-3.02238 -1.57182,-3.16016 -0.14159,-0.0875 -0.67141,-1.01961 -1.17739,-2.07135 -0.50598,-1.05173 -1.23908,-2.2099 -1.62912,-2.5737 -0.39004,-0.3638 -0.88897,-1.10794 -1.10873,-1.65365 -0.21976,-0.5457 -0.4809,-0.99218 -0.5803,-0.99218 -0.27727,0 -2.14306,-1.81905 -2.14306,-2.08938 0,-0.13114 -0.46095,-0.47871 -1.02434,-0.77236 -0.56339,-0.29366 -1.33189,-0.84146 -1.70777,-1.21734 -0.37588,-0.37588 -0.86743,-0.68342 -1.09232,-0.68342 -0.2249,0 -0.40892,-0.0893 -0.40894,-0.19844 -1e-5,-0.10914 -0.77392,-0.43206 -1.71979,-0.7176 -0.94586,-0.28554 -1.71976,-0.59239 -1.71976,-0.68187 0,-0.28909 -3.3139,-0.78334 -5.25223,-0.78334 -1.77299,0 -3.73583,0.32507 -4.93422,0.81718 -1.1807,0.48483 -3.45631,1.0349 -4.28136,1.0349 -0.48291,0 -0.87802,0.09 -0.87802,0.2 0,0.10999 -0.38695,0.36458 -0.8599,0.56574 -0.47294,0.20117 -1.57249,0.70648 -2.44345,1.12292 -0.87096,0.41645 -1.7787,0.75717 -2.0172,0.75717 -0.40848,0 -2.859729,1.2354 -3.146119,1.5856 -0.18513,0.22638 -2.00987,1.06024 -2.32014,1.06024 -0.14068,0 -1.29007,0.52775 -2.55419,1.17278 -1.26412,0.64503 -2.67883,1.24728 -3.1438,1.33833 -0.79514,0.1557 -1.17571,0.28921 -2.63135,0.92315 -1.57814,0.6873 -4.42224,1.56979 -5.4901,1.70352 -3.45456,0.43264 -5.62868,0.54323 -10.31875,0.52489 -5.09314,-0.0199 -10.69471,-0.45686 -11.23275,-0.87619 -0.15215,-0.11858 -0.61719,-0.29712 -1.03343,-0.39674 -0.41624,-0.0996 -1.24968,-0.40691 -1.85208,-0.68285 -0.60241,-0.27594 -1.75013,-0.70615 -2.55049,-0.95602 -0.80037,-0.24987 -1.75287,-0.65652 -2.11667,-0.90367 -0.3638,-0.24714 -1.37583,-0.84229 -2.24896,-1.32256 -0.87312,-0.48027 -1.82128,-1.00315 -2.10702,-1.16195 -0.28573,-0.15881 -0.94058,-0.67466 -1.4552,-1.14634 -0.51463,-0.47168 -1.07072,-0.85863 -1.23575,-0.85989 -0.16503,-0.001 -0.81988,-0.59496 -1.45521,-1.31933 -0.63533,-0.72437 -1.29826,-1.31969 -1.47317,-1.32292 -0.17491,-0.003 -0.68276,-0.53601 -1.12855,-1.18395 -0.4458,-0.64794 -1.14976,-1.37846 -1.56435,-1.62337 -0.4146,-0.2449 -0.95848,-0.79175 -1.20862,-1.2152 -0.25014,-0.42346 -0.85679,-1.0324 -1.34811,-1.35321 -0.49132,-0.3208 -1.04694,-0.88093 -1.23471,-1.24473 -0.37991,-0.73609 -0.87997,-1.32292 -1.12731,-1.32292 -0.24853,0 -1.0385,-0.83056 -1.69865,-1.78594 -0.32679,-0.47294 -0.722,-0.85989 -0.87824,-0.85989 -0.41124,0 -1.79657,-1.51455 -1.79657,-1.96414 0,-0.2098 -0.23079,-0.4547 -0.51287,-0.54423 -0.6436,-0.20427 -2.13296,-1.87705 -2.13296,-2.39563 0,-0.21322 -0.14883,-0.39011 -0.33073,-0.39309 -0.1819,-0.003 -0.74745,-0.47326 -1.25677,-1.04508 -1.83768,-2.06315 -5.88065,-6.09325 -6.1127,-6.09325 -0.13052,0 -0.2373,-0.16569 -0.2373,-0.36819 0,-0.20251 -0.28033,-0.43855 -0.62297,-0.52455 -0.34263,-0.086 -1.14625,-0.63468 -1.78582,-1.21931 -0.63957,-0.58462 -1.26469,-1.06295 -1.38916,-1.06295 -0.12447,0 -1.49374,-0.61245 -3.04282,-1.36099 -1.54909,-0.74855 -3.09641,-1.48946 -3.43849,-1.64648 -0.8738,-0.40107 -12.93152,-0.34591 -13.33845,0.061 -0.16535,0.16534 -0.57183,0.30062 -0.9033,0.30062 -0.33148,0 -1.28993,0.31641 -2.1299,0.70313 -0.83997,0.38672 -1.8844,0.85044 -2.32097,1.03048 -1.80996,0.74643 -2.33028,1.06855 -3.47943,2.15403 -0.66346,0.62669 -1.31286,1.13944 -1.44311,1.13944 -0.13026,0 -0.23683,0.17009 -0.23683,0.37798 0,0.20788 -0.1501,0.5353 -0.33356,0.7276 -1.09102,1.14357 -2.31227,2.74061 -2.31227,3.02376 0,0.18146 -0.41578,1.23005 -0.92393,2.33019 -0.50816,1.10014 -1.06914,2.50782 -1.24662,3.12817 -0.4016,1.40381 -0.41863,12.96426 -0.0219,14.88626 0.54023,2.61731 0.93181,4.24268 1.1474,4.7625 0.1207,0.29104 0.41637,1.5412 0.65706,2.77812 0.24069,1.23693 0.53126,2.48709 0.64572,2.77813 0.11446,0.29104 0.41725,1.06495 0.67288,1.71979 0.25563,0.65484 0.6866,1.69534 0.95772,2.31222 0.59473,1.35321 0.5974,1.39195 0.0961,1.39195 -0.21828,0 -0.39687,-0.12871 -0.39687,-0.28602 0,-0.15731 -0.41637,-1.11566 -0.92526,-2.12966 -0.53634,-1.06869 -0.99687,-2.45298 -1.09564,-3.29329 -0.0937,-0.79732 -0.27264,-1.51287 -0.39765,-1.59013 -0.125,-0.0773 -0.22728,-0.42407 -0.22728,-0.77069 0,-0.34663 -0.10556,-0.69548 -0.23459,-0.77522 -0.12902,-0.0797 -0.31481,-0.59278 -0.41286,-1.14009 -0.098,-0.54731 -0.3009,-1.41183 -0.45078,-1.92115 -0.14989,-0.50933 -0.38218,-1.29544 -0.51621,-1.74693 -0.30933,-1.04205 -0.83861,-7.24872 -0.85505,-10.02703 -0.0224,-3.79369 0.56135,-8.13427 1.28621,-9.563 0.35855,-0.7067 0.6524,-1.3852 0.65301,-1.50777 6.1e-4,-0.12257 0.23923,-0.52558 0.53027,-0.89558 0.29104,-0.37 0.52916,-0.89588 0.52916,-1.16862 0,-0.27274 0.35719,-0.86965 0.79375,-1.32647 0.43656,-0.45682 0.79375,-0.93286 0.79375,-1.05786 0,-0.43998 4.27533,-4.45674 4.74364,-4.45674 0.2608,0 0.9128,-0.29766 1.4489,-0.66146 0.53609,-0.3638 1.06612,-0.66146 1.17785,-0.66146 0.11172,0 0.72445,-0.25188 1.36162,-0.55972 0.63718,-0.30785 2.11805,-0.68062 3.29085,-0.82837 2.85329,-0.35947 11.49501,-0.35285 13.64172,0.0104 1.68899,0.28583 4.63873,1.58016 5.15938,2.2639 0.14552,0.1911 0.66753,0.42728 1.16002,0.52484 0.49249,0.0976 1.0878,0.38684 1.32291,0.64283 0.23512,0.25599 1.14186,0.99483 2.01498,1.64186 2.37196,1.75774 4.81043,4.09473 7.30758,7.00343 0.49198,0.57306 1.76095,1.93342 2.81994,3.02301 1.05898,1.0896 2.19008,2.3163 2.51354,2.72599 0.32346,0.40969 0.73694,0.74597 0.91884,0.7473 0.1819,0.001 0.33073,0.12932 0.33073,0.28445 0,0.15513 0.74414,1.03212 1.65365,1.94888 0.9095,0.91675 1.83224,1.89523 2.05052,2.17439 0.21828,0.27916 0.69985,0.69859 1.07017,0.93205 0.37031,0.23347 0.95264,0.83217 1.29406,1.33044 0.34142,0.49827 0.96324,1.1025 1.38182,1.34273 0.41858,0.24023 0.83566,0.64949 0.92685,0.90947 0.17457,0.49768 2.19697,2.45608 2.53699,2.4567 0.10914,2.1e-4 0.19844,0.11943 0.19844,0.26495 0,0.38561 0.90794,1.23156 1.83801,1.71252 0.4443,0.22976 0.80782,0.53374 0.80782,0.67553 0,0.14178 0.12621,0.25779 0.28046,0.25779 0.15425,0 0.83757,0.42539 1.5185,0.94531 0.68092,0.51992 1.5585,1.00941 1.95017,1.08774 0.39168,0.0783 0.92875,0.34409 1.19349,0.59057 0.65102,0.60611 3.1794,1.79156 4.30912,2.02037 0.50454,0.10218 1.09985,0.27583 1.32291,0.38586 0.88482,0.4365 1.80353,0.7523 3.44827,1.1853 0.94589,0.24902 1.99329,0.55982 2.32755,0.69068 0.80535,0.31527 15.00034,0.30754 16.04221,-0.009 0.44689,-0.13566 1.34832,-0.38102 2.00316,-0.54524 2.16375,-0.54264 4.08922,-1.12476 4.93478,-1.49191 0.45855,-0.19912 1.12442,-0.36203 1.4797,-0.36203 0.59072,0 4.38864,-1.72958 4.69802,-2.13949 0.0728,-0.0964 0.52703,-0.26094 1.00949,-0.36563 0.48246,-0.1047 1.49449,-0.53592 2.24896,-0.95828 0.75447,-0.42236 1.58012,-0.8418 1.83478,-0.93208 0.25466,-0.0903 0.46302,-0.25444 0.46302,-0.3648 0,-0.11036 0.3522,-0.27109 0.78267,-0.35719 0.43047,-0.0861 1.650859,-0.55903 2.711979,-1.05097 3.42784,-1.58916 3.76534,-1.72241 4.83973,-1.91081 0.58208,-0.10207 1.41552,-0.33437 1.85208,-0.51623 0.43656,-0.18185 1.50812,-0.53589 2.38125,-0.78675 0.87312,-0.25086 1.95314,-0.5642 2.40003,-0.69632 1.03751,-0.3067 5.71774,-0.31314 6.51721,-0.009 0.33427,0.12718 1.2626,0.4434 2.06297,0.7027 0.80036,0.2593 1.75286,0.67622 2.11666,0.92648 0.36381,0.25027 1.07805,0.54533 1.58721,0.6557 0.50917,0.11038 1.16401,0.46278 1.45521,0.78312 0.2912,0.32035 0.94572,0.86913 1.45448,1.21953 1.09754,0.75591 3.96977,3.62682 3.96977,3.96795 0,0.23803 0.29264,0.6211 1.63965,2.1463 0.39248,0.4444 0.79528,1.18057 0.8951,1.63593 0.0998,0.45535 0.41013,1.12557 0.68957,1.48938 1.11074,1.44607 1.78392,2.67321 1.9489,3.5526 0.0952,0.50772 0.33423,1.37461 0.53107,1.92641 0.3371,0.94497 0.35827,0.81877 0.36431,-2.17172 0.006,-2.92077 -0.16883,-4.30347 -1.10334,-8.73125 -0.30031,-1.4229 -1.89587,-5.07255 -2.37531,-5.43323 -0.1035,-0.0779 -0.36247,-0.55411 -0.57551,-1.05834 -0.21303,-0.50422 -0.84273,-1.35027 -1.39932,-1.88012 -0.5566,-0.52984 -1.22591,-1.27398 -1.48737,-1.65364 -0.26145,-0.37966 -0.69544,-0.6903 -0.96441,-0.6903 -0.26898,0 -0.76944,-0.2956 -1.11213,-0.65688 -0.3427,-0.36129 -0.76199,-0.65895 -0.93176,-0.66146 -0.16978,-0.003 -0.34837,-0.0978 -0.39688,-0.2117 -0.0485,-0.11392 -0.92163,-0.72841 -1.94028,-1.36554 -1.01864,-0.63713 -2.00887,-1.37908 -2.2005,-1.6488 -0.19164,-0.26971 -0.78532,-0.67293 -1.31931,-0.89605 -0.53399,-0.22311 -1.22196,-0.64154 -1.52884,-0.92983 -0.78228,-0.73491 -2.48861,-1.56724 -3.21297,-1.56724 -0.335,0 -0.81584,-0.11199 -1.06853,-0.24888 -0.25269,-0.13688 -1.34111,-0.45189 -2.41871,-0.70002 -2.3037,-0.53044 -8.39849,-0.60027 -10.47614,-0.12003 -0.7276,0.16819 -1.79916,0.41146 -2.38125,0.5406 -0.58208,0.12915 -1.53458,0.3433 -2.116659,0.4759 -1.09142,0.24862 -3.3678,1.28083 -4.7625,2.15951 -0.43657,0.27505 -1.05462,0.50878 -1.37345,0.51942 -0.31884,0.0106 -0.64292,0.12162 -0.72018,0.24664 -0.21183,0.34274 -4.3234,2.41853 -4.79046,2.41853 -0.22386,0 -1.28768,0.41791 -2.36405,0.92869 -1.07637,0.51079 -2.32561,1.00241 -2.7761,1.09251 -0.45049,0.0901 -0.88315,0.2675 -0.96147,0.39422 -0.0783,0.12673 -0.58781,0.23041 -1.1322,0.23041 -0.54439,0 -1.10291,0.11084 -1.24116,0.24631 -0.2201,0.21569 -2.51523,0.90178 -5.41073,1.61746 -2.68962,0.66479 -9.65453,0.48207 -11.09629,-0.29109 -0.2272,-0.12184 -1.03676,-0.41558 -1.79903,-0.65275 -0.76228,-0.23717 -1.45391,-0.54118 -1.53697,-0.67557 -0.0831,-0.1344 -0.44402,-0.24436 -0.80212,-0.24436 -0.35811,0 -1.12262,-0.29765 -1.69892,-0.66146 -0.5763,-0.3638 -1.11474,-0.66145 -1.19654,-0.66145 -0.14293,0 -0.52017,-0.28631 -1.30729,-0.99219 -0.20283,-0.1819 -0.49797,-0.33073 -0.65586,-0.33073 -0.43449,0 -1.25776,-0.55358 -2.45926,-1.65365 -0.59603,-0.5457 -1.18296,-0.99218 -1.30431,-0.99218 -0.12134,0 -0.8669,-0.62508 -1.65681,-1.38907 -0.7899,-0.76398 -1.5746,-1.50812 -1.74377,-1.65364 -0.63529,-0.54647 -5.55163,-5.79325 -5.56237,-5.93623 -0.006,-0.082 -0.37814,-0.44685 -0.82662,-0.81065 -0.44848,-0.3638 -2.63535,-2.44739 -4.85971,-4.63021 -4.91452,-4.82273 -8.40877,-8.07851 -9.6483,-8.98984 -2.10526,-1.54785 -3.59899,-2.54379 -4.03489,-2.69025 -0.25466,-0.0856 -0.46302,-0.26076 -0.46302,-0.38931 0,-0.12854 -0.1341,-0.23372 -0.298,-0.23372 -0.1639,0 -1.02347,-0.36866 -1.91015,-0.81924 l -1.61215,-0.81923 -1.349,0.70576 -1.34899,0.70577 -5.53825,-0.36169 c -5.82063,-0.38013 -9.22649,-0.34287 -8.95404,0.098 0.0914,0.14788 0.74078,0.19038 1.52297,0.0997 2.44462,-0.28346 7.19489,0.63927 9.96261,1.93521 0.50932,0.23848 1.10463,0.43897 1.32291,0.44553 0.81212,0.0244 2.11667,0.44172 2.11667,0.6771 0,0.13395 0.18431,0.24356 0.40958,0.24356 0.22528,0 1.06023,0.41621 1.85547,0.92491 0.79523,0.50871 1.53365,0.91132 1.64093,0.89471 0.44872,-0.0695 0.83958,0.0522 1.16835,0.36383 0.1923,0.18225 0.80793,0.5692 1.36807,0.85989 0.56014,0.29069 1.15545,0.71765 1.32291,0.94879 0.16747,0.23114 0.60867,0.49547 0.98046,0.58739 0.37179,0.0919 1.21589,0.69943 1.87578,1.34999 0.65988,0.65056 1.51655,1.26235 1.9037,1.35951 0.38716,0.0972 0.70392,0.30693 0.70392,0.46613 0,0.34778 1.59416,2.03443 1.92288,2.03443 0.29847,0 0.98753,0.68712 0.98753,0.98474 0,0.12583 0.59532,0.79065 1.32292,1.47737 0.7276,0.68673 1.32292,1.37434 1.32292,1.52804 0,0.1537 0.535,0.8299 1.18889,1.50266 0.65389,0.67276 1.25184,1.42155 1.32879,1.66399 0.0769,0.24244 0.61351,0.95381 1.19236,1.58082 0.57885,0.627 1.05246,1.28887 1.05246,1.47081 0,0.18194 0.0893,0.37049 0.19843,0.419 0.10914,0.0485 0.67469,0.68204 1.25678,1.40785 1.47439,1.83846 4.98494,5.32704 6.87916,6.83611 0.87313,0.6956 1.80504,1.44376 2.07093,1.66259 0.26589,0.21883 0.92073,0.62761 1.45521,0.9084 0.53448,0.28079 1.3885,0.87234 1.89782,1.31455 0.50932,0.44221 1.2237,0.87798 1.5875,0.96838 0.3638,0.0904 0.95911,0.3695 1.32292,0.62023 0.3638,0.25073 0.91859,0.53563 1.23287,0.63312 0.31429,0.0975 0.71162,0.34617 0.88297,0.55264 0.17135,0.20646 1.16437,0.63064 2.20671,0.94262 1.04233,0.31198 2.13328,0.66441 2.42432,0.78318 1.02541,0.41845 2.39552,0.82825 3.70417,1.1079 2.03184,0.43419 7.72689,0.56124 9.39271,0.20953 3.52629,-0.74451 5.1957,-1.13906 5.68854,-1.34444 0.29104,-0.12128 1.06495,-0.35524 1.71979,-0.51992 1.18781,-0.29871 2.68778,-0.87738 3.43959,-1.32695 0.71184,-0.42567 3.02719,-1.49295 3.68964,-1.70078 0.35581,-0.11162 1.01065,-0.42066 1.45521,-0.68676 0.77715,-0.46518 2.07619,-1.10744 3.18952,-1.57696 0.91307,-0.38506 2.86728,-1.31547 3.96875,-1.88954 1.22062,-0.63617 1.851629,-0.90014 2.778129,-1.16214 0.3638,-0.10289 0.94753,-0.3741 1.29717,-0.6027 2.20476,-1.44152 6.43295,-2.39825 10.60908,-2.40056 1.99085,-10e-4 8.02165,0.59664 9.26041,0.91786 1.03682,0.26884 4.05847,1.50983 4.49792,1.84728 0.21828,0.16762 0.81359,0.468 1.32292,0.66751 0.50932,0.19952 1.28323,0.73931 1.71979,1.19954 0.43656,0.46024 1.1807,1.09862 1.65365,1.41864 0.47294,0.32001 0.85989,0.69143 0.85989,0.82538 0,0.26034 0.47994,0.87487 1.6614,2.12731 0.40445,0.42874 0.80629,1.13415 0.89297,1.56757 0.0867,0.43343 0.26179,0.78805 0.38912,0.78805 0.12733,0 0.23151,0.11075 0.23151,0.24612 0,0.13537 0.35719,1.01783 0.79375,1.96102 0.43656,0.9432 0.79093,2.11237 0.78747,2.59815 -0.006,0.84067 -0.0358,0.8131 -0.61964,-0.57196 -0.33734,-0.80036 -0.92983,-2.13219 -1.31663,-2.95961 -0.38681,-0.82742 -0.70328,-1.5702 -0.70328,-1.65062 0,-0.19149 -0.73813,-1.11533 -1.6767,-2.09854 -0.41286,-0.43251 -0.85721,-1.06663 -0.98744,-1.40917 -0.13023,-0.34254 -0.50682,-0.73079 -0.83685,-0.86279 -0.33003,-0.13199 -1.17562,-0.7847 -1.87909,-1.45046 -0.70346,-0.66576 -1.44922,-1.21048 -1.65723,-1.21048 -0.20801,0 -0.58495,-0.11329 -0.83764,-0.25176 -0.40485,-0.22186 -0.92781,-0.44795 -3.10526,-1.3425 -3.04024,-1.24901 -9.23787,-1.73709 -14.55208,-1.14604 -2.01844,0.2245 -3.08857,0.60052 -5.98894,2.10439 -0.67453,0.34975 -1.52781,0.63591 -1.89618,0.63591 -0.36836,0 -0.70943,0.10101 -0.75794,0.22446 -0.10603,0.26984 -4.157779,2.42138 -4.559919,2.42138 -0.31485,0 -3.126,1.3634 -3.33348,1.61672 -0.27054,0.33031 -1.84263,1.02911 -2.3152,1.02911 -0.26916,0 -0.6025,0.10851 -0.74074,0.24112 -0.55195,0.52948 -4.60765,2.40471 -5.20084,2.40471 -0.34827,0 -0.74633,0.098 -0.88458,0.21783 -0.13824,0.1198 -0.96573,0.43444 -1.83885,0.6992 -0.87313,0.26475 -1.7661,0.54406 -1.98438,0.62069 -1.9047,0.66863 -3.35584,0.87296 -7.14375,1.00589 -4.69848,0.16489 -7.5793,-0.16561 -9.69728,-1.11253 -0.45855,-0.20501 -0.96095,-0.37274 -1.11643,-0.37274 -0.15548,0 -0.70666,-0.23813 -1.22483,-0.52917 -0.51818,-0.29104 -1.2872,-0.52917 -1.70894,-0.52917 -0.42174,0 -0.92414,-0.14911 -1.11643,-0.33136 -0.1923,-0.18226 -0.80415,-0.56921 -1.35966,-0.8599 -0.55552,-0.29069 -1.23515,-0.73689 -1.5103,-0.99155 -0.27514,-0.25466 -0.73422,-0.46302 -1.02018,-0.46302 -0.28596,0 -0.85649,-0.27872 -1.26784,-0.61937 -0.41134,-0.34066 -1.50881,-1.11007 -2.4388,-1.70982 -1.85249,-1.19465 -3.3422,-2.39251 -5.49403,-4.41769 -0.7731,-0.7276 -1.76473,-1.59986 -2.2036,-1.93836 -0.43888,-0.33849 -0.87039,-0.90404 -0.95892,-1.25677 -0.0885,-0.35273 -0.2682,-0.64132 -0.39927,-0.64132 -0.39633,0 -1.71862,-1.39923 -2.18782,-2.31511 -0.24228,-0.47294 -0.55651,-0.85989 -0.6983,-0.85989 -0.14178,0 -0.25779,-0.12701 -0.25779,-0.28225 0,-0.15523 -0.41568,-0.72078 -0.92374,-1.25677 -0.50806,-0.53599 -0.92478,-1.11376 -0.92605,-1.28393 -0.001,-0.17018 -0.5976,-0.96078 -1.32521,-1.75689 -0.7276,-0.79612 -1.32291,-1.55289 -1.32291,-1.68173 0,-0.12884 -0.59532,-0.81175 -1.32292,-1.51758 -0.7276,-0.70583 -1.32292,-1.42126 -1.32292,-1.58984 0,-0.16858 -0.38695,-0.53482 -0.85989,-0.81388 -0.94125,-0.55538 -1.76333,-1.42579 -1.77714,-1.88164 -0.005,-0.1598 -0.48152,-0.50371 -1.05929,-0.76425 -0.57777,-0.26054 -1.25318,-0.69767 -1.5009,-0.9714 -0.24772,-0.27373 -1.53117,-1.17692 -2.85211,-2.00709 -1.32094,-0.83017 -2.63252,-1.72081 -2.91462,-1.9792 -0.2821,-0.25839 -0.71832,-0.4698 -0.96937,-0.4698 -0.37934,0 -1.81681,-0.67004 -3.94168,-1.83733 -0.90616,-0.49779 -1.78621,-0.78864 -2.90024,-0.95851 -0.64925,-0.099 -1.42315,-0.30294 -1.71979,-0.45319 -1.26458,-0.64051 -1.48562,-0.71972 -2.00835,-0.71972 -0.30259,0 -0.75885,-0.1117 -1.01393,-0.24821 -0.25507,-0.13651 -2.00342,-0.3879 -3.88521,-0.55865 -2.67035,-0.2423 -4.0313,-0.23853 -6.19956,0.0172 -3.57201,0.42126 -3.39408,0.3914 -3.60831,0.60563 -0.10123,0.10122 -0.56245,0.18405 -1.02493,0.18405 -0.46248,0 -1.54396,0.24948 -2.40329,0.5544 -0.85934,0.30492 -1.93382,0.61379 -2.38774,0.68637 -0.49525,0.0792 -1.39292,0.65105 -2.24463,1.42997 -0.78064,0.7139 -1.57011,1.29801 -1.75438,1.29801 -0.18428,0 -0.33505,0.16756 -0.33505,0.37235 0,0.2048 -0.57895,0.89288 -1.28654,1.52907 -0.70759,0.63619 -1.3652,1.40454 -1.46133,1.70745 -0.0961,0.3029 -0.70693,1.07334 -1.35731,1.71208 -0.65037,0.63873 -1.1834,1.36267 -1.18449,1.60874 -0.001,0.24608 -0.12588,0.52398 -0.2773,0.61756 -0.59091,0.3652 -1.54072,2.22104 -1.94564,3.80156 -0.24322,0.94939 -0.42488,2.72805 -0.42488,4.15999 0,2.45323 -0.30325,3.50999 -1.18452,4.12786 -0.16791,0.11772 -0.26704,1.97629 -0.26108,4.89479 0.008,4.15358 0.0771,4.89106 0.58516,6.2925 0.31655,0.87313 0.65772,2.12329 0.75816,2.77813 0.10044,0.65484 0.25383,1.25016 0.34088,1.32292 0.19191,0.16041 1.0315,1.67525 2.16385,3.90417 0.46249,0.91037 1.30176,2.1788 1.86505,2.81873 0.56329,0.63993 1.02416,1.31233 1.02416,1.49422 0,0.18189 0.59531,0.96016 1.32292,1.72949 0.72759,0.76934 1.32291,1.62493 1.32291,1.90133 0,0.27928 0.29385,0.63642 0.66145,0.80392 0.36381,0.16575 0.66146,0.4315 0.66146,0.59053 0,0.43885 0.62386,0.96945 0.99455,0.84588 0.1806,-0.0602 0.32837,0.0749 0.32837,0.30028 0,0.22536 0.35719,0.97296 0.79375,1.66135 0.76632,1.20836 1.07293,2.41012 0.52917,2.07406 -0.36493,-0.22554 -0.33194,0.2917 0.13229,2.07398 0.21828,0.83804 0.39687,1.81556 0.39687,2.17226 v 0.64855 h 3.40876 3.40876 z m -17.90076,-48.88492 c 0.17462,-0.17462 0.3175,-0.58125 0.3175,-0.90361 0,-0.32236 0.36137,-0.92363 0.80304,-1.33615 0.44167,-0.41251 1.15374,-1.28581 1.58238,-1.94065 0.76556,-1.16959 4.13564,-4.58701 5.67235,-5.75204 0.42996,-0.32596 1.16001,-0.7175 1.62234,-0.87008 0.68789,-0.22703 1.83153,-1.12176 3.62505,-2.83608 1.34508,-1.28568 2.83615,-3.18403 2.84283,-3.61934 0.0106,-0.68907 0.5555,-1.42159 0.95686,-1.28625 0.63992,0.21577 -0.29817,2.92135 -1.51203,4.36092 l -1.14031,1.35234 0.77738,-0.17551 c 0.42757,-0.0965 1.5513,-0.29429 2.49718,-0.43948 0.94589,-0.14518 2.01745,-0.37134 2.38125,-0.50256 2.37883,-0.85806 7.76283,-0.99128 12.03854,-0.29788 4.12112,0.66832 4.19807,0.66599 5.88837,-0.17867 l 1.57704,-0.78805 -0.83174,-0.44792 c -0.45746,-0.24636 -0.99783,-0.7108 -1.20084,-1.0321 -0.40655,-0.64346 -0.7039,-4.5175 -0.43039,-5.60727 0.31492,-1.25472 0.6055,-0.44873 0.75765,2.10149 0.14647,2.45507 0.46714,3.31848 1.23247,3.31848 0.15592,0 0.28349,0.11906 0.28349,0.26458 0,0.3233 3.00019,0.35442 3.64161,0.0378 1.43913,-0.71045 2.32714,-1.21081 2.4438,-1.37702 0.0728,-0.10366 0.54901,-0.42043 1.05834,-0.70395 1.07825,-0.60021 1.28939,-1.23171 0.64857,-1.9398 -0.56777,-0.62738 -0.59289,-2.22233 -0.0542,-3.44162 0.61475,-1.39145 0.9368,-2.39896 1.12021,-3.50436 0.23866,-1.43844 1.92069,-4.68145 2.4281,-4.68145 0.3107,0 0.36994,0.15173 0.23246,0.59531 -0.40061,1.29254 -0.45671,1.78594 -0.20306,1.78594 0.14574,0 0.44187,-0.26789 0.65805,-0.59531 0.21618,-0.32742 0.72417,-0.92455 1.12886,-1.32694 0.72849,-0.72434 1.44936,-1.88886 1.44936,-2.34133 0,-0.54434 -1.09183,-0.16721 -2.00255,0.69171 -0.54004,0.50932 -1.02476,0.92604 -1.07717,0.92604 -0.0524,0 -0.0953,-0.29766 -0.0953,-0.66146 0,-0.7844 0.80256,-1.65815 1.8624,-2.02762 0.419,-0.14606 0.82714,-0.46397 0.90698,-0.70647 0.0798,-0.2425 0.9163,-0.97669 1.85881,-1.63153 0.94251,-0.65485 1.71549,-1.27993 1.71773,-1.38907 0.002,-0.10914 0.18267,-0.19843 0.40095,-0.19843 0.21829,0 0.39688,-0.11907 0.39688,-0.26459 0,-0.14552 -0.34944,-0.26458 -0.77653,-0.26458 -0.42708,0 -1.11169,-0.12664 -1.52135,-0.28142 -0.87104,-0.3291 -2.20004,-1.52929 -2.20004,-1.9868 0,-0.17442 -0.17786,-0.65816 -0.39524,-1.07498 -0.21739,-0.41681 -0.39598,-0.96365 -0.39688,-1.21519 -0.001,-0.39174 -0.0965,-0.41411 -0.66309,-0.15597 -0.46662,0.21261 -0.66145,0.51075 -0.66145,1.01218 0,1.39643 -1.46061,2.37926 -3.53589,2.37926 -0.81883,0 -1.54293,-0.14087 -1.69998,-0.33073 -0.20699,-0.25024 -1.13247,-0.28997 -3.80271,-0.16324 -5.45563,0.25891 -14.66984,1.22341 -16.3147,1.70775 -0.59145,0.17416 -1.70193,-0.0724 -3.82239,-0.84861 -0.54865,-0.20084 -1.3141,-0.36517 -1.70101,-0.36517 -0.3869,0 -1.0691,-0.11095 -1.516,-0.24655 -1.38963,-0.42168 -6.07322,-0.83872 -12.02913,-1.07112 -3.93409,-0.15351 -6.08164,-0.34938 -6.88697,-0.62814 -1.0795,-0.37367 -1.72725,-0.30414 -2.37238,0.25466 -0.10182,0.0882 1.10576,1.7783 1.7282,2.41876 0.17678,0.1819 0.47875,0.33213 0.67105,0.33385 0.57001,0.005 4.19085,0.94757 5.96366,1.55231 0.90492,0.30868 1.93969,0.56123 2.29949,0.56123 0.35981,0 0.72778,0.11906 0.81771,0.26459 0.0899,0.14552 0.44451,0.26458 0.78793,0.26458 0.34342,0 0.96147,0.16758 1.37344,0.3724 0.41198,0.20482 1.04671,0.48765 1.41051,0.62851 0.3638,0.14087 1.01865,0.41873 1.45521,0.61748 0.60864,0.2771 3.3852,0.40277 11.90625,0.5389 6.11187,0.0976 11.49145,0.25985 11.95461,0.36046 0.46316,0.10061 0.91245,0.36622 0.99841,0.59025 0.19811,0.51625 0.0126,0.70977 -0.42266,0.44079 -0.18543,-0.1146 -0.62016,-0.23854 -0.96608,-0.27542 l -0.62893,-0.067 0.55159,0.47839 c 0.53065,0.46023 0.76318,1.34343 0.35316,1.34138 -0.10914,-5.5e-4 -0.91281,-0.35729 -1.78594,-0.79276 -1.77748,-0.88651 -3.30729,-1.05659 -3.30729,-0.36769 0,0.23434 -0.59531,1.24454 -1.32291,2.24491 -0.72761,1.00036 -1.32292,1.89401 -1.32292,1.98589 0,0.30234 -1.89201,2.75148 -2.12557,2.75148 -0.12563,0 -0.53065,0.2801 -0.90005,0.62244 -0.64521,0.59797 -0.84608,0.62413 -5.10686,0.66518 -4.18214,0.0403 -4.51258,0.006 -5.79066,-0.5947 -1.02158,-0.48041 -2.03171,-0.68315 -4.10104,-0.82309 -1.51009,-0.10212 -3.28139,-0.22161 -3.93624,-0.26554 -1.86962,-0.1254 -4.5317,0.41622 -5.42395,1.10356 -0.43656,0.33631 -1.34374,1.16151 -2.01596,1.83379 l -1.22222,1.22233 -0.1539,10.75187 c -0.0846,5.91353 -0.23314,11.07929 -0.32998,11.47947 -0.18506,0.76472 0.0911,0.94548 0.62644,0.4101 z m 33.63208,-17.14339 c -1.13624,-1.21024 -1.88468,-2.94471 -1.45575,-3.37364 0.2186,-0.2186 0.94949,0.4769 0.94949,0.90352 0,0.20741 0.29766,0.65297 0.66146,0.99013 0.3638,0.33716 0.66146,0.69364 0.66146,0.79218 0,0.0985 0.23812,0.43476 0.52917,0.74716 0.29104,0.31239 0.52916,0.72413 0.52916,0.91497 0,0.67024 -0.64633,0.33438 -1.87499,-0.97432 z m 5.58079,-11.57713 c 9e-4,-0.10914 0.15628,-0.49609 0.3453,-0.85989 0.18902,-0.36381 0.50142,-1.22701 0.69421,-1.91823 0.1928,-0.69123 0.45414,-1.25677 0.58075,-1.25677 0.42022,0 0.24807,2.66621 -0.22373,3.4649 -0.40269,0.6817 -1.40079,1.08908 -1.39653,0.56999 z m 4.28462,-5.14614 c -0.48724,-0.48724 -0.38056,-0.74084 0.31165,-0.74084 0.86552,0 2.26173,-0.63231 3.18232,-1.44119 0.82549,-0.72533 1.21561,-0.84908 1.21561,-0.38559 0,0.64332 -1.16499,1.86214 -2.25414,2.35831 -1.3257,0.60393 -2.00308,0.66167 -2.45544,0.20931 z m 7.62,-2.46422 c 0,-0.5113 -0.14585,-1.16317 -0.3241,-1.4486 -0.24225,-0.3879 -0.24807,-0.59502 -0.0231,-0.82003 0.67801,-0.67801 1.33936,0.89864 1.00862,2.40451 -0.23887,1.08758 -0.66146,1.00077 -0.66146,-0.13588 z m -72.90538,23.94838 c -0.25341,-1.52797 -0.55736,-2.90309 -0.67545,-3.05583 -0.11809,-0.15274 -0.28995,-0.74827 -0.38191,-1.32339 -0.092,-0.57512 -0.46175,-1.3881 -0.82174,-1.80661 l -0.65453,-0.76094 -0.71122,0.64174 c -1.01256,0.91365 -2.0533,1.37798 -2.60987,1.1644 -0.43664,-0.16756 -0.42062,-0.22883 0.18058,-0.69073 0.36286,-0.27878 0.75819,-0.50952 0.87853,-0.51275 0.12033,-0.003 0.56194,-0.34904 0.98134,-0.76844 0.75366,-0.75366 0.7565,-0.76804 0.24316,-1.23261 -0.43132,-0.39033 -0.6335,-0.41806 -1.19223,-0.16348 -0.37006,0.16861 -0.90536,0.30656 -1.18955,0.30656 -0.2842,0 -0.51672,0.15784 -0.51672,0.35075 0,0.19292 -0.29601,0.62885 -0.65781,0.96874 -0.53032,0.49821 -1.08155,0.65559 -2.84427,0.8121 -3.06535,0.27216 -3.96281,0.51478 -4.5188,1.22161 -0.26631,0.33855 -0.65415,0.61555 -0.86187,0.61555 -0.20772,0 -0.37811,0.0893 -0.37866,0.19844 -5.5e-4,0.10914 -0.56609,0.42985 -1.25677,0.71269 -1.38602,0.56758 -1.72311,0.83198 -2.00331,1.57125 -0.17331,0.45726 -0.0855,0.48446 1.07314,0.33242 0.69404,-0.0911 2.30369,-0.2435 3.57699,-0.33873 1.44717,-0.10824 2.31511,-0.2856 2.31511,-0.4731 0,-0.16497 0.56555,-0.45497 1.25677,-0.64444 0.69122,-0.18947 1.51331,-0.46763 1.82685,-0.61814 0.54507,-0.26163 1.15337,-0.11974 1.14644,0.26741 -0.007,0.38026 -1.93997,1.41701 -2.99673,1.60715 -0.94446,0.16993 -0.70596,0.22639 1.67709,0.39696 2.82508,0.20222 4.66407,0.58533 5.18211,1.07959 0.15802,0.15077 0.77706,0.71484 1.37564,1.2535 0.59858,0.53865 1.2789,1.34791 1.51182,1.79834 0.23293,0.45043 0.62592,1.05702 0.87332,1.34798 0.43848,0.5157 0.45212,0.50372 0.54155,-0.47542 0.0505,-0.55244 -0.11559,-2.2546 -0.369,-3.78257 z m 80.09334,-7.14232 c 0.35765,-0.43384 0.39111,-0.71599 0.17689,-1.49184 -0.51278,-1.85714 -0.55281,-2.10065 -0.67888,-4.13033 -0.0787,-1.26635 -0.22807,-1.98657 -0.3912,-1.88575 -0.16706,0.10325 -0.20165,1.29222 -0.0942,3.23949 0.12704,2.30346 0.0824,3.24197 -0.1778,3.73549 -0.40018,0.75911 -1.11437,0.98193 -1.66981,0.52096 -0.57402,-0.4764 -0.4654,-0.7832 0.2773,-0.7832 0.6575,0 0.66127,-0.0139 0.63076,-2.3151 -0.0169,-1.27331 -0.0887,-2.07698 -0.1596,-1.78594 -0.0709,0.29104 -0.27406,0.70776 -0.45146,0.92604 -0.52221,0.64255 -0.99555,2.44772 -0.90108,3.43646 0.15316,1.603 2.28488,1.93383 3.43913,0.53372 z m -4.28159,-2.52756 c 0.004,-0.51545 0.88958,-2.37701 2.51177,-5.27908 0.40671,-0.7276 1.13995,-1.69616 1.62942,-2.15235 0.48947,-0.45619 0.88994,-0.98002 0.88994,-1.16407 0,-0.18406 0.59531,-0.90543 1.32292,-1.60305 0.7276,-0.69762 1.32291,-1.44506 1.32291,-1.66099 0,-0.21592 0.27886,-0.61193 0.61968,-0.88002 1.06671,-0.83908 2.02616,-2.62118 2.02616,-3.76344 0,-1.19808 -0.22877,-1.42926 -1.17846,-1.19091 -0.5568,0.13975 -0.67363,0.32533 -0.67363,1.07002 0,0.49553 -0.10913,1.1077 -0.24251,1.36038 -0.13338,0.25269 -0.38751,0.85016 -0.56474,1.32771 -0.17722,0.47755 -0.6634,1.29759 -1.0804,1.82231 -0.417,0.52473 -0.75818,1.09382 -0.75818,1.26465 0,0.17084 -0.20848,0.54142 -0.4633,0.82352 -0.25481,0.2821 -0.80467,0.92963 -1.22192,1.43895 -0.41725,0.50932 -1.46273,1.67434 -2.32329,2.58892 -0.90229,0.95893 -1.63155,1.99732 -1.72267,2.4529 -0.0869,0.43452 -0.26169,0.85411 -0.38841,0.93243 -0.12673,0.0783 -0.22859,0.99858 -0.22636,2.04501 0.003,1.3261 0.0818,1.78236 0.26053,1.50574 0.14107,-0.21828 0.25831,-0.64067 0.26054,-0.93863 z m -1.0425,-3.75772 c 0.21008,-0.47294 0.45808,-0.8599 0.55111,-0.8599 0.093,0 0.23141,-0.23812 0.30752,-0.52916 0.19401,-0.74193 -0.1819,-0.65984 -0.60583,0.13229 -0.1947,0.3638 -0.4925,0.66146 -0.66178,0.66146 -0.38377,0 -0.89174,1.59218 -0.77317,2.42345 0.0486,0.34059 0.17637,1.0955 0.28397,1.67759 0.18626,1.00766 0.2033,0.96966 0.35592,-0.79375 0.0882,-1.01865 0.33218,-2.23904 0.54226,-2.71198 z m -1.24825,-1.31114 c 0.32821,-0.26114 1.2618,-1.36777 2.07465,-2.45917 0.81284,-1.09141 1.73068,-2.24729 2.03965,-2.56863 0.30896,-0.32134 0.56175,-0.75446 0.56175,-0.9625 0,-0.20803 0.39621,-0.95715 0.88048,-1.66471 0.80164,-1.17125 1.50077,-2.71963 1.50077,-3.32378 0,-0.29981 -1.69975,0.9681 -2.80302,2.09088 -0.60171,0.61235 -0.79878,1.02415 -0.71067,1.48504 0.19111,0.99975 -0.82384,2.73379 -3.03349,5.18271 -0.47224,0.52339 -0.8592,1.05865 -0.85989,1.18947 -7e-4,0.13082 -0.41799,0.64256 -0.92731,1.13721 -1.15609,1.12278 -1.20265,2.05601 -0.19844,3.97755 l 0.72761,1.39225 0.0756,-2.50076 c 0.0674,-2.22952 0.14031,-2.55226 0.67233,-2.97556 z m 8.3244,-0.42136 c 0.44941,-0.46596 0.94367,-1.18287 1.09835,-1.59316 0.28113,-0.74564 0.13143,-2.03215 -0.23646,-2.03215 -0.41564,0 -1.03242,0.97871 -1.33391,2.11666 -0.1735,0.65485 -0.42337,1.39737 -0.55527,1.65006 -0.1319,0.25268 -0.22612,0.96706 -0.20939,1.5875 l 0.0304,1.12807 0.19457,-1.0049 c 0.10967,-0.56638 0.55114,-1.37459 1.01168,-1.85208 z m -34.44097,0.70679 c 0.74485,-0.38679 1.55561,-1.04411 1.8017,-1.4607 0.24609,-0.4166 0.77191,-0.92524 1.1685,-1.13032 0.39658,-0.20509 0.97984,-0.71049 1.29613,-1.12313 0.31629,-0.41264 1.07525,-1.28603 1.68659,-1.94087 l 1.11153,-1.19063 -2.35727,-0.0642 c -9.429,-0.25674 -16.09375,-0.60187 -16.33794,-0.84607 -0.15421,-0.15421 -0.55509,-0.28037 -0.89085,-0.28037 -0.33577,0 -1.17516,-0.28264 -1.86532,-0.62808 -2.22743,-1.11489 -3.24085,-1.48859 -4.03689,-1.48859 -0.63267,0 -0.81207,0.13723 -0.95116,0.72761 -0.0943,0.40018 -0.38191,1.14432 -0.63915,1.65364 -1.07206,2.12255 -1.38965,3.45769 -1.21652,5.11415 0.19965,1.91009 0.4469,2.25132 1.30033,1.79458 1.05354,-0.56384 9.38135,0.0518 10.93514,0.80839 1.04052,0.50666 2.33687,0.69524 4.99509,0.7266 2.38196,0.0281 2.78089,-0.0389 4.00009,-0.67203 z m 31.0572,-3.67581 c 0.21828,-0.31365 0.84233,-1.03612 1.38677,-1.60547 0.54444,-0.56936 0.99092,-1.20256 0.99219,-1.4071 0.001,-0.20455 0.27774,-0.74033 0.61441,-1.19063 0.93412,-1.24942 2.03371,-3.34266 2.03371,-3.8715 0,-0.61593 -2.0609,-1.03743 -2.39885,-0.49061 -0.11919,0.19285 -0.11779,0.4737 0.003,0.6241 0.44613,0.55499 -0.28253,3.50024 -1.0168,4.10992 -0.0876,0.0728 -0.38419,0.54901 -0.65904,1.05833 -0.61318,1.13632 -2.02905,3.25537 -3.00533,4.49792 l -0.72761,0.92604 1.19029,-1.04036 c 0.65466,-0.5722 1.36888,-1.29699 1.58716,-1.61064 z m 6.35,0.15307 c 0,-0.13693 -0.11906,-0.32255 -0.26458,-0.41249 -0.14552,-0.0899 -0.26459,0.0221 -0.26459,0.24897 0,0.22687 0.11907,0.41249 0.26459,0.41249 0.14552,0 0.26458,-0.11204 0.26458,-0.24897 z m 0.52917,-3.93289 c 0,-0.064 -0.17613,0.0299 -0.39139,0.20855 -0.53087,0.44059 -1.19611,1.81704 -1.19611,2.47488 0,0.31395 0.32964,-0.10762 0.79375,-1.01511 0.43656,-0.85363 0.79375,-1.60438 0.79375,-1.66832 z m 2.11666,-5.34363 c 0,-0.41966 -0.26789,-1.2163 -0.59531,-1.77033 l -0.59531,-1.00731 -0.1341,0.92605 c -0.10375,0.71641 -0.0289,0.96903 0.33073,1.11595 0.30218,0.12346 0.46483,0.4761 0.46483,1.0078 0,0.47789 0.10999,0.74991 0.26458,0.65437 0.14552,-0.0899 0.26458,-0.50688 0.26458,-0.92653 z m -2.91041,-1.02115 c 0,-0.12535 -0.26962,-0.17636 -0.59915,-0.11336 -0.65324,0.12487 -1.42287,-0.43148 -2.15044,-1.55451 -0.44972,-0.69417 -0.442,-0.72576 0.49673,-2.03241 0.52445,-0.73 1.09707,-1.37865 1.27248,-1.44145 0.1754,-0.0628 0.23035,-0.20913 0.1221,-0.32518 -0.10825,-0.11604 -0.4059,-0.0341 -0.66146,0.18221 -0.25555,0.21625 -1.11948,0.69977 -1.91985,1.07449 -3.20718,1.50156 -3.48004,1.59311 -3.79778,1.27426 -0.22814,-0.22893 -0.14557,-0.42347 0.33335,-0.78534 0.76999,-0.58181 0.60166,-1.26639 -0.3607,-1.4669 -0.37003,-0.0771 -0.94995,-0.19683 -1.28872,-0.26608 -0.33876,-0.0693 -0.94021,-0.42643 -1.33655,-0.79375 -0.39633,-0.36731 -0.74739,-0.66784 -0.78012,-0.66784 -0.0327,0 -0.0133,0.48424 0.0431,1.07609 0.0787,0.82468 0.24361,1.1297 0.70607,1.30552 0.38936,0.14804 0.77053,0.68148 1.07441,1.5036 0.5793,1.56728 0.78817,1.84573 1.9627,2.61659 0.82827,0.5436 1.25821,0.61253 3.90724,0.62638 1.63711,0.009 2.97657,-0.087 2.97657,-0.21232 z m -0.38988,-1.5731 c -0.0815,-0.0815 -0.29495,-1.6e-4 -0.47443,0.18066 -0.25936,0.2613 -0.22897,0.29169 0.14811,0.14811 0.26094,-0.0994 0.40778,-0.2473 0.32632,-0.32877 z m -11.84518,-0.60156 c 0.32637,-0.20382 0.59339,-0.57303 0.59339,-0.82048 0,-0.92249 -0.61796,-0.78754 -1.75626,0.38354 l -1.1652,1.19875 0.86734,-0.19562 c 0.47704,-0.10759 1.13437,-0.36237 1.46073,-0.56619 z m -2.71506,0.28401 c -0.0906,-0.14655 0.0107,-0.33375 0.22509,-0.41602 0.21438,-0.0823 0.45984,-0.42874 0.54548,-0.76994 0.0856,-0.34121 0.57263,-1.01364 1.08221,-1.49429 0.50958,-0.48065 0.9265,-1.07591 0.9265,-1.3228 0,-0.24689 0.13295,-0.49321 0.29543,-0.54737 0.19403,-0.0647 0.31323,-1.2982 0.3473,-3.59393 0.0285,-1.92249 0.0202,-3.49545 -0.0185,-3.49545 -0.20193,0 -1.15343,2.53777 -1.15343,3.07635 0,0.3453 -0.10432,0.62782 -0.23182,0.62782 -0.1275,0 -0.29845,0.62508 -0.37988,1.38906 -0.34626,3.24857 -0.43703,3.4296 -2.17637,4.34026 -1.17048,0.61282 -1.48639,0.68457 -1.76609,0.40111 -0.27805,-0.28179 -0.26337,-0.40271 0.0799,-0.65814 0.47518,-0.35361 0.71347,-1.17956 1.01496,-3.51801 0.1147,-0.88967 0.30799,-1.78264 0.42953,-1.98437 0.18769,-0.31154 0.15355,-0.31209 -0.22669,-0.004 -0.24621,0.19972 -0.44766,0.61971 -0.44766,0.93332 0,0.60075 -0.63909,1.67942 -1.28526,2.1693 -0.30361,0.23018 -0.34478,0.66874 -0.19761,2.10519 0.19465,1.89989 0.49576,2.55645 1.0712,2.33563 0.18886,-0.0725 0.41454,0.0537 0.50152,0.28031 0.087,0.22665 0.46655,0.41209 0.8435,0.41209 0.39275,0 0.61507,-0.11377 0.5207,-0.26646 z m 14.42095,-0.76711 c 0,-0.1319 -0.23812,-0.17754 -0.52917,-0.10143 -0.29104,0.0761 -0.52916,0.18402 -0.52916,0.23981 0,0.0558 0.23812,0.10144 0.52916,0.10144 0.29105,0 0.52917,-0.10792 0.52917,-0.23982 z m 2.89804,-2.04278 c 0.64293,-1.45346 0.68365,-2.41151 0.1463,-3.44185 -0.21739,-0.41682 -0.3978,-0.63878 -0.40093,-0.49326 -0.003,0.14552 -0.1211,0.086 -0.26216,-0.1323 -0.36245,-0.56085 -0.32609,-3.36421 0.0574,-4.42471 0.46475,-1.28524 0.0652,-1.78701 -1.44608,-1.81591 l -1.19839,-0.0229 0.66749,1.21354 c 0.36712,0.66745 0.75811,1.33261 0.86888,1.47813 0.42511,0.5585 0.90322,4.0746 0.87245,6.41615 -0.0177,1.34606 0.01,2.44739 0.0607,2.44739 0.0511,0 0.33652,-0.55091 0.63438,-1.22426 z m -17.24059,-1.09084 c 0.3601,-0.5136 0.55178,-1.35784 0.65171,-2.87037 0.10516,-1.59182 0.32727,-2.52203 0.86383,-3.61783 0.94121,-1.92221 2.15194,-3.38613 2.64424,-3.19721 0.21685,0.0832 0.73047,-0.20232 1.1893,-0.66115 1.16737,-1.16736 2.25311,-1.89042 2.83865,-1.89042 0.84328,0 0.89965,-0.32005 0.13154,-0.74676 -0.40872,-0.22706 -1.42585,-0.4111 -2.33741,-0.42293 -1.61336,-0.0209 -1.61419,-0.0206 -2.97656,1.39294 -0.74951,0.77764 -1.36275,1.51542 -1.36275,1.63952 0,0.12409 0.66693,-0.1252 1.48208,-0.55399 1.53071,-0.8052 2.60855,-1.01296 2.42682,-0.46779 -0.0572,0.17151 -0.30521,0.40963 -0.55121,0.52917 -0.246,0.11953 -0.65563,0.34038 -0.91029,0.49077 -0.25467,0.15039 -0.90728,0.47781 -1.45026,0.72761 -0.7774,0.35763 -1.07265,0.7032 -1.38907,1.62578 -0.221,0.64438 -0.40182,1.39014 -0.40182,1.65723 0,0.2671 -0.10848,0.69237 -0.24107,0.94506 -0.13259,0.25269 -0.4422,1.59052 -0.68801,2.97297 -0.24581,1.38245 -0.56862,2.66237 -0.71736,2.84427 -0.18518,0.22646 -0.18249,0.33073 0.009,0.33073 0.15343,0 0.50853,-0.32742 0.78911,-0.7276 z m 13.68258,-1.92291 c 0.24209,-0.76278 -0.27117,-1.70263 -1.15509,-2.1151 -2.60003,-1.21327 -3.21202,-1.69787 -3.21202,-2.54339 0,-0.5979 0.77785,-2.21637 1.44652,-3.00975 0.18397,-0.21828 0.42469,-0.75406 0.53494,-1.19062 0.11024,-0.43657 0.25522,-0.64493 0.32216,-0.46302 0.067,0.1819 0.2904,0.33072 0.49655,0.33072 0.20615,0 0.37483,0.10961 0.37483,0.24357 0,0.25455 1.24735,0.60719 2.38125,0.67319 0.3638,0.0212 1.0399,0.0617 1.50245,0.09 1.26203,0.0773 1.76183,0.71863 1.58209,2.02998 -0.082,0.5985 -0.23786,1.31938 -0.34629,1.60194 -0.13106,0.34154 0.0865,0.22361 0.64897,-0.35181 1.03259,-1.05634 1.13511,-2.44393 0.28678,-3.88174 -0.60235,-1.0209 -1.5179,-1.67429 -1.78942,-1.27704 -0.34951,0.51133 -1.50101,1.13646 -2.0934,1.13646 -0.34113,0 -1.03515,-0.31647 -1.54226,-0.70326 -0.72376,-0.55204 -1.24624,-0.71235 -2.42975,-0.74552 -1.50596,-0.0422 -1.50917,-0.0406 -2.76449,1.36779 -1.06704,1.19718 -1.25677,1.57433 -1.25677,2.49827 0,0.95948 0.1575,1.24082 1.33133,2.37817 0.73223,0.70948 1.4938,1.28996 1.69238,1.28996 0.49291,0 1.95752,1.70955 2.16176,2.52329 0.16998,0.67726 0.0733,1.43473 -0.30274,2.37151 -0.12393,0.30874 0.23667,0.0719 0.86566,-0.56847 0.59294,-0.60369 1.16199,-1.36202 1.26456,-1.68517 z m 1.82229,2.232 c 0.0883,-0.23019 0.1606,-0.88503 0.1606,-1.45521 0,-0.9078 -0.074,-1.03288 -0.59532,-1.006 -0.44798,0.0231 -0.48072,0.0606 -0.13229,0.15169 0.55636,0.14539 0.60015,0.85186 0.0956,1.5419 -0.36228,0.49545 -0.30239,1.18613 0.10286,1.18613 0.11438,0 0.28024,-0.18833 0.36857,-0.41851 z m -5.72649,-0.30877 c 0.13161,-0.39483 -0.9588,-1.08962 -1.93259,-1.23141 -1.42358,-0.20728 -1.87355,-0.45274 -2.38554,-1.30131 -0.48811,-0.809 -0.51084,-0.81747 -0.59654,-0.22235 -0.10938,0.7596 1.34139,2.15943 2.238,2.15943 0.74599,0 1.94917,0.5298 1.94917,0.85827 0,0.32898 0.60284,0.11135 0.7275,-0.26263 z m -13.8218,-1.56205 c 0.19608,-0.19607 0.47543,-0.3565 0.62077,-0.3565 0.14535,0 0.57521,-0.68461 0.95525,-1.52136 0.38004,-0.83674 0.8054,-1.72809 0.94525,-1.98078 0.61035,-1.10278 0.21463,-1.31068 -0.54045,-0.28394 -0.43711,0.59437 -1.08103,1.26826 -1.43094,1.49753 -0.84292,0.5523 -1.47849,1.87585 -1.47849,3.07885 0,1.17991 0.36211,1.66567 0.48449,0.64992 0.0482,-0.39996 0.24804,-0.88764 0.44412,-1.08372 z m 14.80031,-0.38315 c -0.22479,-0.43471 -0.89286,-1.11256 -1.4846,-1.50634 -2.14088,-1.42469 -3.18866,-2.54756 -3.39961,-3.64322 -0.1932,-1.00345 -0.20164,-0.98621 -0.23095,0.47181 -0.0219,1.08903 0.12583,1.79373 0.52693,2.51354 0.80815,1.45029 1.02549,1.66169 1.70838,1.66169 0.3374,0 0.68703,0.11906 0.77697,0.26458 0.0899,0.14553 0.45314,0.26459 0.80712,0.26459 0.35398,0 0.7875,0.23042 0.96338,0.51205 0.50243,0.80451 0.7878,0.34198 0.33238,-0.5387 z m 4.37941,-1.82544 c 0,-0.29104 -0.16745,-0.52916 -0.3721,-0.52916 -0.24185,0 -0.32367,0.18524 -0.23373,0.52916 0.0761,0.29105 0.24356,0.52917 0.37211,0.52917 0.12854,0 0.23372,-0.23812 0.23372,-0.52917 z m -10.58388,-1.05833 -0.1978,-1.19062 -0.0331,1.08038 c -0.0182,0.59421 0.0463,1.15976 0.14327,1.25677 0.28385,0.28385 0.29691,0.11304 0.0876,-1.14653 z m 9.69631,-0.48608 c 0.56508,-0.71815 0.56537,-0.72605 0.0643,-1.75624 -1.20488,-2.47709 -2.46517,-2.927 -3.23321,-1.15419 -0.49755,1.14846 -0.41288,2.33818 0.1664,2.33818 0.18324,0 0.74652,0.29182 1.25173,0.64848 0.50522,0.35667 0.97811,0.64774 1.05087,0.64682 0.0728,-9.1e-4 0.38773,-0.32629 0.69993,-0.72305 z m -14.19368,-2.37142 c 0,-0.26194 0.13246,-0.60871 0.29435,-0.7706 0.16189,-0.16189 0.25119,-0.42054 0.19844,-0.57479 -0.0528,-0.15424 -0.36736,0.19253 -0.69913,0.7706 -0.49179,0.8569 -0.52844,1.05104 -0.19844,1.05104 0.22263,0 0.40478,-0.21431 0.40478,-0.47625 z m -34.13125,-34.05187 c 0,-0.36381 -0.0456,-0.66146 -0.10145,-0.66146 -0.0558,0 -0.15835,0.29765 -0.22789,0.66146 -0.0695,0.3638 -0.0239,0.66145 0.10145,0.66145 0.12534,0 0.22789,-0.29765 0.22789,-0.66145 z m -6.86177,-0.14161 c 0.28147,-0.15064 0.51177,-0.44829 0.51177,-0.66145 0,-0.21316 0.0901,-0.38757 0.20016,-0.38757 0.27455,0 0.85817,-1.94048 0.85817,-2.85333 0,-1.0309 0.4461,-1.38 1.7634,-1.38 0.85761,0 1.19636,0.12698 1.4116,0.52916 0.15576,0.29105 0.44392,0.52917 0.64034,0.52917 0.41737,0 1.21175,1.12133 1.21175,1.71048 0,0.57496 0.46217,0.50492 0.65387,-0.0991 0.27676,-0.87198 0.94502,-1.19739 2.53075,-1.23236 1.73117,-0.0382 2.13355,-0.31117 2.61679,-1.7754 0.36178,-1.09621 0.48534,-1.15634 1.22562,-0.59642 0.28248,0.21365 0.72195,0.39225 0.97661,0.39688 0.25466,0.005 0.46302,0.0992 0.46302,0.21025 0,0.11102 0.26789,0.31938 0.59532,0.46302 0.32742,0.14365 0.81672,0.71446 1.08733,1.26846 0.71463,1.46301 0.81002,1.02655 0.18265,-0.83576 -0.66551,-1.97553 -0.66558,-1.98524 -0.0132,-1.81465 0.29104,0.0761 0.52916,0.0734 0.52916,-0.006 0,-0.24517 -0.90565,-0.84699 -1.28799,-0.85587 -0.19907,-0.005 -0.76876,-0.36561 -1.26597,-0.80217 -0.49722,-0.43656 -1.03034,-0.79375 -1.18471,-0.79375 -0.15438,0 -0.59672,-0.21683 -0.98298,-0.48183 -0.38627,-0.26501 -1.26785,-0.69158 -1.95908,-0.94793 -0.69122,-0.25635 -1.25677,-0.56142 -1.25677,-0.67795 0,-0.11652 -0.26789,-0.27677 -0.59531,-0.35612 -0.32742,-0.0793 -1.2569,-0.37719 -2.06551,-0.66188 -1.39807,-0.49221 -1.55061,-0.49666 -3.10886,-0.0907 -0.90126,0.2348 -1.63865,0.56995 -1.63865,0.74476 0,0.17481 -0.53705,0.58605 -1.19343,0.91387 -1.00328,0.50106 -1.23659,0.7675 -1.46425,1.67221 -0.14894,0.5919 -0.3858,1.34967 -0.52635,1.68394 -0.14056,0.33427 -0.25554,1.42857 -0.25554,2.43178 0,1.00321 -0.11907,1.8976 -0.26459,1.98754 -0.14552,0.0899 -0.26531,0.36485 -0.26621,0.61093 -9e-4,0.24607 -0.17949,0.78843 -0.39688,1.20525 -0.21738,0.41682 -0.39524,0.8633 -0.39524,0.99219 0,0.32504 2.03854,0.29476 2.66322,-0.0396 z m -9.17874,125.25353 c -1.13191,-0.58194 -1.58518,-1.09727 -1.25529,-1.42716 0.18769,-0.18769 0.48104,-0.19124 0.9147,-0.0111 0.64683,0.26873 1.82903,1.18796 1.82903,1.42218 0,0.35358 -0.81484,0.36236 -1.48844,0.0161 z m -5.65531,-26.83468 c 0,-0.59059 -0.13199,-1.92444 -0.2933,-2.96411 -0.27973,-1.80292 -0.26662,-1.9119 0.28347,-2.35734 0.31721,-0.25686 1.01474,-0.54588 1.55006,-0.64226 0.53532,-0.0964 1.11154,-0.28456 1.28048,-0.41817 0.17666,-0.13972 0.3687,-0.14338 0.45199,-0.009 0.20169,0.32634 -0.57807,1.37888 -1.02152,1.37888 -0.20056,0 -0.65125,0.10897 -1.00153,0.24214 -0.61779,0.23489 -0.6292,0.28977 -0.38094,1.83133 0.31048,1.92793 0.057,4.01195 -0.48805,4.01195 -0.26863,0 -0.38066,-0.31603 -0.38066,-1.0738 z m -1.53459,-48.72078 c -0.17462,-0.17463 -0.3175,-0.47229 -0.3175,-0.66146 0,-0.18918 -0.0955,-0.34396 -0.21231,-0.34396 -0.31066,0 -1.18568,-2.57488 -0.98524,-2.89921 0.25911,-0.41925 0.93297,-0.3292 0.93297,0.12467 0,0.40362 0.0765,0.59472 0.88127,2.20067 0.70822,1.41331 0.52133,2.3998 -0.29919,1.57929 z m 3.91584,-0.60855 c -0.18116,-0.21828 -0.54907,-0.39687 -0.81758,-0.39687 -0.694,0 -2.80394,-2.83431 -2.40611,-3.23215 0.22049,-0.22049 0.60411,0.0314 1.47971,0.97166 0.65012,0.69812 1.4573,1.40601 1.79374,1.57309 0.33643,0.16707 0.64974,0.56868 0.69624,0.89246 0.0973,0.67716 -0.26574,0.7705 -0.746,0.19181 z m -3.67988,-7.84009 c -0.28902,-0.31022 -0.82622,-1.17343 -1.19377,-1.91823 -0.36755,-0.7448 -0.96916,-1.70012 -1.3369,-2.12293 -0.36774,-0.42282 -0.66877,-0.89907 -0.66894,-1.05834 -1.8e-4,-0.15926 -0.2955,-0.64676 -0.65626,-1.08332 -0.75286,-0.91103 -0.81029,-0.98473 -1.79082,-2.29769 -0.40018,-0.53586 -0.72869,-1.13107 -0.73002,-1.32268 -0.001,-0.19161 -0.29526,-0.9437 -0.65318,-1.6713 -0.35793,-0.7276 -0.65449,-1.57096 -0.65904,-1.87413 -0.005,-0.30317 -0.0826,-0.62557 -0.17351,-0.71645 -0.24902,-0.24902 -1.39244,-3.74281 -1.26653,-3.86997 0.0602,-0.0608 0.76636,-0.16502 1.56924,-0.23161 0.80289,-0.0666 1.52415,-0.22519 1.60281,-0.35247 0.0787,-0.12728 0.38163,-0.23141 0.67325,-0.23141 0.94879,0 3.98027,-1.64982 5.18768,-2.82329 0.64823,-0.63 1.28325,-1.14546 1.41116,-1.14546 0.12791,0 0.76043,-0.37207 1.40559,-0.82683 1.0601,-0.74722 2.33065,-1.06484 2.71643,-0.67906 0.2768,0.27681 -0.1741,0.67103 -0.9666,0.8451 -0.96371,0.21166 -1.01986,0.54591 -0.12926,0.76944 0.36381,0.0913 0.66146,0.28849 0.66146,0.43819 0,0.1497 0.29766,0.54803 0.66146,0.88519 0.3638,0.33716 0.66146,0.7482 0.66146,0.91341 0,0.16522 0.10098,0.30039 0.2244,0.30039 0.42001,0 1.1602,2.03466 0.9645,2.65125 -0.18391,0.57945 -0.19651,0.57548 -0.56092,-0.17693 -0.20502,-0.42334 -0.90645,-1.4203 -1.55871,-2.21545 -0.65227,-0.79516 -1.18594,-1.59541 -1.18594,-1.77835 0,-0.18293 -0.23812,-0.3326 -0.52916,-0.3326 -0.29105,0 -0.52917,-0.11906 -0.52917,-0.26459 0,-0.65949 -0.62618,-0.2665 -3.0565,1.91823 -0.60705,0.54571 -1.25062,0.99219 -1.43016,0.99219 -0.17955,0 -0.67437,0.24775 -1.09962,0.55055 -0.42524,0.3028 -1.35763,0.75637 -2.07198,1.00794 -1.01408,0.35712 -1.24594,0.54094 -1.05766,0.83851 0.13263,0.20962 0.24297,1.1204 0.2452,2.02396 0.002,0.90357 0.14116,2.56473 0.30875,3.69147 0.27594,1.8553 0.45072,2.2541 1.85208,4.22591 0.85106,1.1975 1.54739,2.25296 1.54739,2.34546 0,0.0925 0.29765,0.55842 0.66146,1.03539 0.3638,0.47697 0.66146,1.1834 0.66146,1.56985 0,0.38644 0.11034,0.70263 0.2452,0.70263 0.20026,0 1.07771,1.43332 1.07771,1.76044 0,0.28052 -0.57904,0.016 -1.03404,-0.47241 z m -6.37429,-15.31095 v -1.85208 h -0.941 -0.941 l 0.39464,0.7276 c 0.21706,0.40018 0.60389,1.23362 0.85963,1.85209 0.25574,0.61846 0.5016,1.12447 0.54636,1.12447 0.0448,0 0.0814,-0.83343 0.0814,-1.85208 z m 13.29531,14.39514 c -0.1819,-0.0835 -0.33073,-0.35777 -0.33073,-0.60959 0,-0.39512 0.21394,-0.44238 1.56145,-0.34491 1.58503,0.11465 3.81132,-0.41803 4.91357,-1.17566 0.66167,-0.4548 1.1979,-0.46 1.1979,-0.0116 0,0.3629 -1.38062,1.50496 -1.81932,1.50496 -0.13929,0 -0.29294,0.11833 -0.34144,0.26294 -0.0969,0.28893 -4.65042,0.61749 -5.18143,0.37387 z m -2.71198,-2.31595 c 0,-1.03354 1.42877,-3.34794 2.06681,-3.34794 0.10676,0 0.41515,-0.41045 0.68531,-0.9121 0.56578,-1.0506 2.53955,-2.19935 2.53955,-1.47805 0,0.24846 -0.67421,1.05857 -2.70574,3.25114 -0.54226,0.58525 -1.0563,1.2858 -1.1423,1.55676 -0.086,0.27097 -0.25352,0.49267 -0.37227,0.49267 -0.11874,0 -0.27816,0.23812 -0.35427,0.52916 -0.19162,0.73275 -0.71709,0.6656 -0.71709,-0.0916 z m 9.94579,-6.48425 c -0.0768,-0.12424 0.14801,-0.35694 0.49956,-0.51712 1.46806,-0.6689 1.53745,-1.05781 1.53844,-8.62195 7.8e-4,-5.96194 -0.0622,-7.08611 -0.43928,-7.842 -0.48446,-0.97112 -0.27999,-1.45926 0.40052,-0.95617 1.11816,0.82665 1.28413,2.01564 1.28413,9.19961 v 6.84686 l -1.05833,1.05833 c -0.99779,0.99779 -1.91156,1.33966 -2.22504,0.83244 z m -2.68389,-20.61004 c -0.22767,-1.05833 -0.95866,-2.71198 -1.19883,-2.71198 -0.11362,0 -0.27775,-0.22426 -0.36474,-0.49835 -0.087,-0.27409 -0.51174,-0.86832 -0.94388,-1.32051 -0.95351,-0.99776 -0.96491,-1.09156 -0.13259,-1.09156 0.48951,0 0.93226,0.3811 1.76744,1.52135 0.61288,0.83675 1.18282,1.58089 1.26653,1.65365 0.35757,0.3108 0.832,2.16235 0.67822,2.64687 -0.2435,0.76721 -0.89008,0.64691 -1.07215,-0.19947 z m 10.4579,-1.0491 c -1.44656,-1.00344 -2.1985,-1.69738 -2.84955,-2.62977 -0.72235,-1.03451 -0.73675,-1.41436 -0.0536,-1.41436 0.29104,0 0.52917,0.10813 0.52917,0.2403 0,0.29594 2.0679,2.36458 3.01214,3.0132 0.72322,0.4968 0.93591,1.24441 0.35402,1.24441 -0.1859,0 -0.63239,-0.2042 -0.99219,-0.45378 z m 5.66301,-6.86786 c -0.63112,-0.56617 -1.12642,-1.665 -0.96335,-2.13721 0.21076,-0.61031 0.76457,-0.33882 1.45266,0.71214 0.5558,0.84892 0.62392,1.12337 0.36625,1.47575 -0.29109,0.39809 -0.35984,0.39401 -0.85556,-0.0507 z"
       id="path11" /></g></svg>
