<?xml version="1.0" encoding="UTF-8" standalone="no"?>
<!-- Created with Inkscape (http://www.inkscape.org/) -->

<svg
   width="114.03718mm"
   height="90.752434mm"
   viewBox="0 0 114.03719 90.752434"
   version="1.1"
   id="svg1"
   xml:space="preserve"
   xmlns="http://www.w3.org/2000/svg"
   xmlns:svg="http://www.w3.org/2000/svg"><defs
     id="defs1" /><g
     id="layer1"
     transform="translate(-283.82467,-1617.2975)"><path
       style="fill:#333333;stroke-width:2.5"
       d="m 314.76856,1707.911 c -0.0225,-0.265 -0.005,-3.3925 0.038,-6.9502 l 0.079,-6.4683 -3.00787,-4.5245 c -4.01025,-6.0322 -4.56793,-6.4585 -6.24933,-4.7772 -1.6986,1.6987 -5.36842,3.61 -5.90362,3.0747 -0.22525,-0.225 -0.0487,-0.9872 0.3922,-1.6935 0.44097,-0.706 0.79722,-1.511 0.79165,-1.7887 -0.005,-0.2778 -0.2872,-0.068 -0.62588,0.4685 -1.176,1.8595 -1.47627,-0.9143 -0.42825,-3.956 l 0.98365,-2.8553 -4.5899,-4.4997 c -2.52445,-2.4748 -4.5899,-4.6588 -4.5899,-4.8533 0,-1.0092 1.63165,0 5.0886,3.131 6.23685,5.6583 5.82803,5.6168 5.80718,0.592 -0.01,-2.424 -0.39928,-5.0895 -0.86493,-5.9232 -1.08192,-1.9375 -1.14385,-7.8205 -0.0955,-9.0835 0.44118,-0.5318 1.9589,-1.2783 3.3727,-1.6588 2.8089,-0.7565 4.2968,-2.5092 4.96465,-5.8485 l 0.43253,-2.1627 -2.43178,1.0162 c -1.33747,0.5588 -2.25435,0.729 -2.0375,0.378 0.21675,-0.3507 0.1535,-0.676 -0.14075,-0.7222 -2.41395,-0.3808 -3.5117,-0.2983 -3.5117,0.2645 0,0.4022 -1.15695,0.5025 -2.9548,0.256 -2.85387,-0.391 -3.05157,-0.3015 -5.78775,2.622 -1.55812,1.6647 -3.66467,3.4582 -4.68122,3.9852 -1.01655,0.527 -2.4293,1.9113 -3.13945,3.076 -1.20918,1.983 -1.29135,2.0175 -1.29368,0.542 -0.002,-1.6702 8.09513,-10.1705 11.7403,-12.3237 1.03943,-0.614 2.60105,-2.457 3.47028,-4.0955 0.86922,-1.6385 2.27155,-3.4318 3.1163,-3.9853 2.1862,-1.4325 7.69345,-0.8185 9.71795,1.0833 2.19512,2.0622 4.61245,1.3455 5.52857,-1.6395 0.9003,-2.9335 0.21925,-3.273 -2.51712,-1.2543 -2.26325,1.6698 -3.93895,2.106 -3.93895,1.0255 0,-0.3335 0.37207,-0.7772 0.82682,-0.9862 0.45475,-0.2075 0.18225,-0.2225 -0.6058,-0.027 -3.27522,0.8037 -1.6817,-0.9415 4.42963,-4.8513 6.689,-4.2795 7.77872,-4.5902 13.20872,-3.7682 l 2.97655,0.4507 5.17608,-5.6885 c 2.84685,-3.1287 5.9,-5.8702 6.78477,-6.0922 2.17695,-0.5463 4.5774,1.1342 6.22075,4.3557 2.14633,4.207 1.73958,6.354 -2.3436,12.371 -1.16982,1.7238 -1.6205,3.1768 -1.49322,4.8138 0.18925,2.4347 -0.5981,12.8582 -1.21753,16.1175 -0.68707,3.615 -1.08862,1.05 -1.00422,-6.415 0.10025,-8.8748 -0.39483,-9.901 -5.77735,-11.9738 -3.33503,-1.2845 -3.37228,-1.329 -1.98818,-2.373 1.22395,-0.9232 1.29793,-1.2442 0.55928,-2.427 -0.68143,-1.091 -1.0821,-1.219 -2.00818,-0.6405 -0.8482,0.5298 -1.62975,0.507 -2.92885,-0.085 -0.97457,-0.444 -3.45227,-0.98 -5.50605,-1.191 -3.17335,-0.326 -4.00275,-0.17 -5.52302,1.034 -2.0792,1.6475 -1.80618,3.3533 0.53677,3.3533 1.51403,0 2.11993,1.2267 1.10643,2.2402 -0.9235,0.9235 -0.117,5.3615 1.1748,6.4648 0.70732,0.604 1.28602,1.4225 1.28602,1.819 0,1.3077 -1.36882,0.7522 -3.26697,-1.326 -1.24245,-1.3603 -2.02753,-1.791 -2.34078,-1.2843 -0.27137,0.4393 -1.21625,0.601 -2.22735,0.3818 -1.4297,-0.3103 -2.07012,0.025 -3.44605,1.7802 -1.67265,2.139 -3.86387,9.3955 -3.07527,10.1843 1.04205,1.042 2.73225,-0.8055 4.6166,-5.0468 1.13147,-2.5465 2.45032,-4.63 2.93082,-4.63 0.69098,0 0.65228,0.5188 -0.185,2.4805 -0.58225,1.3643 -1.351,3.2248 -1.70835,4.1343 -0.35735,0.9095 -1.52207,3.482 -2.58825,5.717 -2.00382,4.2 -2.4228,5.905 -1.2771,5.197 0.36383,-0.225 0.99675,-0.2025 1.40655,0.053 0.45045,0.2782 -0.0495,0.7945 -1.26432,1.3052 -1.10518,0.4648 -3.52408,1.9758 -5.3753,3.3578 -3.3574,2.5065 -3.36588,2.5225 -3.36588,6.273 0,3.648 0.1255,3.9107 4.20788,8.8212 5.84127,7.0258 7.5218,10.663 8.08862,17.5065 0.40635,4.906 0.5673,5.4203 1.35828,4.3385 0.49352,-0.675 0.8973,-1.8682 0.8973,-2.6517 0,-0.7838 0.59532,-1.9635 1.32292,-2.622 1.32745,-1.2013 1.90198,-4.074 0.66145,-3.3073 -0.3638,0.225 -0.66145,-0.215 -0.66145,-0.9765 0,-1.1515 0.21025,-1.2727 1.2451,-0.719 1.93573,1.036 2.19965,2.635 0.74108,4.4893 -0.7286,0.9262 -1.32473,2.1022 -1.32473,2.6135 0,1.861 -2.58272,5.927 -4.24642,6.685 -0.93868,0.4277 -1.72515,0.5607 -1.7477,0.2957 z m -7.30177,-42.7025 c 2.284,-1.6597 3.11175,-2.807 3.84875,-5.3347 1.27032,-4.3565 0.41245,-5.2398 -3.11655,-3.2088 -1.41965,0.817 -3.05273,1.4855 -3.62903,1.4855 -1.20912,0 -2.33227,2.508 -1.77725,3.9688 0.20725,0.5457 0.9868,1.5032 1.7321,2.1277 1.2044,1.0093 1.22638,1.138 0.1975,1.1575 -0.63665,0 -1.15755,0.4685 -1.15755,1.0143 0,1.3855 0.57573,1.207 3.902,-1.2103 z m 13.95737,-26.9017 c 0,-0.3638 -0.29765,-0.6615 -0.66147,-0.6615 -0.3638,0 -0.66145,0.2977 -0.66145,0.6615 0,0.3637 0.29765,0.6615 0.66145,0.6615 0.36382,0 0.66147,-0.2978 0.66147,-0.6615 z m 22.86918,-9.095 c 0.22275,-1.0005 0.54247,-2.3288 0.71072,-2.9515 0.48193,-1.7845 -0.96415,-3.8285 -2.70845,-3.8285 -1.4429,0 -4.99645,3.2657 -4.99645,4.5917 0,0.2868 0.6169,1.3058 1.37093,2.2643 1.94872,2.4775 5.06437,2.4352 5.62325,-0.075 z m -3.34015,69.825 c -1.77303,-1.1035 -5.1592,-2.735 -7.52485,-3.6255 -2.36565,-0.8903 -5.15713,-2.2283 -6.20328,-2.9733 -1.84607,-1.3145 -3.93507,-1.401 -6.55972,-0.2712 -0.86595,0.3727 -1.29758,-0.185 -2.10318,-2.7178 -0.55747,-1.7525 -1.22007,-4.2282 -1.4724,-5.5015 -0.25235,-1.2735 -1.16627,-3.7192 -2.03095,-5.4352 -0.8647,-1.7158 -1.57215,-3.3898 -1.57215,-3.7198 0,-0.33 1.6371,-2.4347 3.63803,-4.6772 3.11962,-3.4963 3.638,-4.453 3.638,-6.7145 0,-2.1205 0.29152,-2.7518 1.4883,-3.2218 0.81855,-0.3217 2.00222,-1.2025 2.63037,-1.9575 0.91658,-1.1017 1.46138,-1.2515 2.7591,-0.7582 1.44098,0.548 1.69498,0.3912 2.33328,-1.4398 0.81855,-2.3482 3.98182,-6.7287 4.4911,-6.2195 0.18675,0.1875 -0.32383,1.4125 -1.13443,2.724 -1.67095,2.7038 -1.60147,2.8803 1.43588,3.6513 1.21117,0.3075 2.91537,0.774 3.78712,1.0367 1.47475,0.4448 1.55458,0.3443 1.14778,-1.4435 -0.2405,-1.0567 -0.58235,-3.7075 -0.75978,-5.8902 l -0.32262,-3.9688 1.29075,4.9135 c 0.70992,2.7023 1.15132,5.139 0.98092,5.4148 -0.1705,0.2757 0.8866,2.3525 2.34893,4.6147 1.4623,2.2625 2.65872,4.924 2.65872,5.9145 0,2.18 1.78845,4.0115 2.61358,2.6765 0.37207,-0.602 0.66217,-0.6382 0.9808,-0.1225 0.56607,0.9158 3.0202,0.9683 3.0202,0.065 0,-0.3672 -1.179,-1.4835 -2.62,-2.4805 -1.92353,-1.3307 -2.91095,-2.6665 -3.71458,-5.025 -1.05907,-3.1082 -1.05017,-3.269 0.27453,-4.961 0.753,-0.9617 3.39192,-5.2987 5.8643,-9.638 8.36375,-14.6787 11.928,-16.922 24.8059,-15.612 12.494,1.2708 16.27962,3.1375 19.12345,9.4303 2.1085,4.6655 2.16027,14.423 0.11325,21.3472 -2.66848,9.0263 -6.07495,16.4298 -8.0445,17.484 -0.9827,0.5258 -26.5272,5.0443 -45.39345,8.0293 -1.81903,0.2877 -4.06395,0.7155 -4.98875,0.9502 -1.46898,0.3733 -2.31183,-0.2475 -6.6702,-4.9152 -5.02845,-5.385 -5.81585,-5.8063 -10.16918,-5.4413 -0.96832,0.082 -0.39967,-0.7327 2.1213,-3.037 3.73495,-3.4137 5.51208,-6.9002 5.43885,-10.6702 l -0.0465,-2.3998 -0.86032,2.3343 c -2.10193,5.703 -5.66105,11.463 -5.66105,9.162 0,-1.3395 2.0295,-7.3355 3.38447,-9.999 0.64593,-1.2698 0.7834,-3.151 0.23025,-3.151 -0.19475,0 -1.08767,0.4807 -1.98437,1.0682 -1.21448,0.7958 -1.63038,1.654 -1.63038,3.364 0,1.9373 -0.58055,2.836 -3.7177,5.7558 l -3.7177,3.4602 1.23723,2.192 c 0.68047,1.2055 1.59642,2.8168 2.03545,3.5805 0.43902,0.7638 0.99422,2.9573 1.23377,4.8745 0.4567,3.6555 1.07973,4.1675 2.97928,2.4483 1.05712,-0.9565 1.37117,-0.8138 4.02085,1.8285 1.7509,1.746 4.03742,3.2277 5.8507,3.7915 3.50957,1.091 10.58332,4.762 10.58332,5.4925 0,1.1007 3.33808,0.4415 4.12228,-0.8143 0.4544,-0.7275 1.17107,-1.323 1.59265,-1.323 0.43117,0 0.86895,-1.2885 1.00075,-2.9457 0.23125,-2.9075 0.21525,-2.9333 -1.23305,-1.9843 -0.80703,0.5288 -1.9987,0.9515 -2.64815,0.9393 -1.05685,-0.025 -1.03475,-0.145 0.2105,-1.185 2.86502,-2.395 9.28642,-3.5835 6.99822,-1.2955 -0.4305,0.4305 -0.78272,1.2602 -0.78272,1.844 0,1.7927 -3.7848,7.144 -5.78385,8.1777 -1.78328,0.9223 -2.0734,0.864 -5.1142,-1.0287 z m -37.47348,-1.41 c 1.55333,-1.682 4.17065,-3.1445 7.35593,-4.11 1.46312,-0.4435 1.54895,-0.3798 0.7633,0.5667 -0.9975,1.202 -5.95995,4.096 -8.20775,4.787 l -1.48005,0.4548 z m -14.13137,-1.6078 c -2.69225,-2.8767 -5.05243,-8.3277 -5.4254,-12.5302 -0.47168,-5.315 0.84555,-19.582 2.01562,-21.8313 1.00773,-1.9372 4.39705,-5.4395 4.39705,-4.5437 0,0.4422 -2.4898,6.0652 -4.7352,10.694 -0.40757,0.8402 -0.53875,4.6597 -0.33195,9.6662 0.3038,7.3553 0.55865,8.7478 2.28815,12.5015 1.07045,2.3235 2.58013,4.8818 3.35483,5.685 0.7747,0.8035 1.40855,1.622 1.40855,1.8193 0,0.8962 -1.4183,0.2 -2.97165,-1.4608 z m 50.85402,-3.4592 c -1.12645,-0.4553 -2.7774,-2.6593 -1.99187,-2.6593 0.8021,0 4.38032,2.201 4.38032,2.6943 0,0.7292 -0.51557,0.7217 -2.38845,-0.035 z m -9.18705,-44.9565 c -0.72762,-0.2978 -1.86322,-1.1423 -2.52357,-1.8768 -1.84298,-2.0497 -0.12075,-2.5232 2.54867,-0.7007 3.56825,2.436 3.5526,4.042 -0.025,2.5775 z"
       id="path82" /></g></svg>
