<?xml version="1.0" encoding="UTF-8" standalone="no"?>
<!-- Created with Inkscape (http://www.inkscape.org/) -->

<svg
   width="133.95863mm"
   height="88.277679mm"
   viewBox="0 0 133.95865 88.27768"
   version="1.1"
   id="svg1"
   xml:space="preserve"
   xmlns="http://www.w3.org/2000/svg"
   xmlns:svg="http://www.w3.org/2000/svg"><defs
     id="defs1" /><g
     id="layer1"
     transform="translate(208.86862,-1621.4897)"><path
       style="fill:#333333;stroke-width:2.5"
       d="m -183.24668,1707.2849 c -0.35405,-1.3642 -0.89803,-3.5222 -1.20888,-4.7957 -0.3254,-1.3328 -0.97557,-2.315 -1.5326,-2.315 -0.75935,0 -0.9558,0.967 -0.9133,4.4952 0.0463,3.8423 -0.0797,4.3615 -0.86715,3.5743 -0.5067,-0.5068 -1.12995,-2.381 -1.385,-4.1648 -0.46275,-3.2365 -0.4693,-3.2435 -3.1016,-3.364 -5.0531,-0.23 -7.92955,-1.1545 -7.92955,-2.5457 0,-1.8885 2.16973,-1.9918 4.54628,-0.215 1.46045,1.091 2.90015,1.5285 4.89875,1.4885 4.35207,-0.087 5.88532,-1.2108 6.2666,-4.5935 0.38907,-3.4518 2.2643,-7.2053 6.2565,-12.5235 5.23652,-6.9755 6.3882,-9.8215 6.82945,-16.8768 0.30837,-4.931 0.7218,-6.824 1.92007,-8.7927 1.97435,-3.2435 2.45593,-2.6918 1.10675,1.268 -1.50502,4.417 -1.40975,12.5192 0.1905,16.205 0.69143,1.5922 1.45858,4.1415 1.7048,5.665 0.5235,3.239 3.04995,6.3497 4.65655,5.7332 0.78868,-0.3027 0.96258,-0.8775 0.6465,-2.1367 -0.23775,-0.9475 -0.7165,-1.8985 -1.0638,-2.113 -0.34727,-0.215 -0.44065,-0.8875 -0.2075,-1.495 0.23325,-0.6075 0.135,-1.1048 -0.218,-1.1048 -0.8449,0 -2.1995,-6.5987 -2.35385,-11.4665 -0.10775,-3.3995 0.0748,-4.018 1.53125,-5.1865 0.9095,-0.7295 2.64323,-2.22 3.8527,-3.3117 1.20948,-1.0918 2.36113,-1.823 2.5592,-1.625 1.18543,1.1855 4.42373,-5.0953 3.9216,-7.606 -0.42732,-2.1365 0.59578,-2.606 1.242,-0.5698 0.88545,2.7898 4.18273,0.8898 6.5348,-3.766 1.26725,-2.5082 0.42323,-3.4425 -1.79617,-1.9882 -1.22765,0.8042 -1.77068,0.8287 -3.11285,0.14 -0.89418,-0.459 -3.30713,-1.0383 -5.36213,-1.2873 -4.2165,-0.5112 -5.77032,-1.7637 -6.90687,-5.5672 l -0.72135,-2.414 -1.15488,3.8385 c -0.63517,2.1115 -0.99382,4.2585 -0.797,4.7712 0.45013,1.173 -2.58435,3.6273 -4.48495,3.6273 -0.77947,0 -2.00437,-0.4083 -2.72197,-0.9068 -1.12258,-0.7802 -1.95123,-0.7232 -5.93495,0.4088 -10.4374,2.9652 -12.89843,5.1597 -12.89843,11.5012 0,2.3155 -0.26582,4.2103 -0.5907,4.2103 -1.80322,0 -1.9014,-7.4275 -0.1365,-10.322 0.68875,-1.1295 2.25035,-2.663 3.47018,-3.408 2.57785,-1.574 10.55492,-4.1295 12.8911,-4.1295 2.68917,0 5.71877,-4.1358 6.7433,-9.2053 1.06742,-5.2817 3.07525,-10.1222 4.87357,-11.7487 1.87633,-1.6973 9.9355,-1.518 12.33613,0.2742 3.23275,2.4135 3.61432,8.112 0.5432,8.112 -0.83398,0 -2.15533,-0.5952 -2.9363,-1.3227 -0.781,-0.7278 -1.65568,-1.3198 -1.94375,-1.3158 -0.28805,0 -1.79533,1.223 -3.34945,2.7093 l -2.8257,2.7022 1.51162,2.7403 c 2.0709,3.7542 3.33115,3.8025 5.85328,0.225 1.14422,-1.6233 2.78567,-3.329 3.64765,-3.7903 2.47162,-1.3227 6.32955,0.15 8.90132,3.3965 l 2.11613,2.6718 -1.65998,1.78 c -0.91297,0.979 -1.86175,2.9145 -2.1084,4.3012 -0.38855,2.1845 -0.228,2.6943 1.2019,3.8193 1.99205,1.5667 5.25085,7.984 4.90433,9.6572 -0.172,0.8308 -0.81508,0.08 -2.08853,-2.4377 -1.012,-2.001 -2.5913,-4.4283 -3.5096,-5.394 l -1.66965,-1.756 -2.34397,1.5905 c -1.2892,0.875 -2.72888,1.5907 -3.1993,1.5907 -0.47043,0 -1.06025,0.6698 -1.31073,1.4883 -0.25047,0.8185 -1.40657,2.8277 -2.5691,4.465 -2.79742,3.9392 -3.67922,6.6652 -3.67922,11.3735 0,3.2587 0.26692,4.167 1.62357,5.5237 0.89298,0.8928 2.0092,1.6108 2.48048,1.5953 1.95955,-0.065 9.78657,-12.673 9.78657,-15.7653 0,-0.7037 -1.0418,-2.5262 -2.3151,-4.0502 -2.94307,-3.5228 -2.9646,-4.5315 -0.0493,-2.3078 2.75585,2.102 4.34873,4.4235 4.34873,6.338 0,1.784 -3.29728,7.6758 -7.06365,12.6213 -2.7504,3.6115 -3.58818,5.838 -2.19675,5.838 0.3638,0 0.66145,0.9922 0.66145,2.205 0,1.2125 0.2035,2.4082 0.45197,2.6567 0.7853,0.7853 2.40478,-3.744 2.4659,-6.8967 0.0463,-2.3798 0.55368,-3.6838 2.3738,-6.098 1.2733,-1.689 2.53073,-3.08 2.79428,-3.0913 0.26357,0 -0.59438,2.0348 -1.90653,4.5468 -3.56872,6.832 -2.59805,8.7062 5.49385,10.6072 3.93238,0.924 6.68113,0.3818 11.01243,-2.1722 3.3482,-1.9743 4.87852,-3.594 10.72167,-11.3485 9.93973,-13.1913 16.58318,-18.1955 24.139501,-18.1833 7.2536,0 13.659325,4.8295 16.63135,12.5083 1.7426,4.5022 2.370975,14.06 1.27235,19.352 -1.35675,6.5352 -8.158725,18.803 -11.139225,20.09 -0.62815,0.2712 -19.447946,0.5295 -41.821776,0.5735 -22.37382,0.045 -41.05175,0.3155 -41.5065,0.603 -0.45475,0.2872 -0.82682,1.0827 -0.82682,1.7672 0,0.6848 -0.24175,1.3943 -0.53723,1.577 -0.29547,0.1825 -0.55345,-3.0237 -0.5733,-7.1252 -0.02,-4.1018 -0.393,-8.539 -0.82927,-9.8608 -1.21223,-3.6732 -1.08703,-6.3207 0.35032,-7.4087 0.69233,-0.524 1.63083,-0.962 2.08558,-0.9738 1.15665,-0.03 1.0322,1.631 -0.19875,2.6528 -0.66353,0.5505 -0.95543,1.6885 -0.82683,3.2227 0.1695,2.0208 0.4615,2.4023 1.9739,2.577 0.9763,0.1125 2.74453,-0.2962 3.92938,-0.909 2.03965,-1.0547 2.08805,-1.1625 0.90967,-2.0242 -0.68452,-0.5005 -1.48535,-0.91 -1.77962,-0.91 -0.29425,0 -0.53503,-1.2053 -0.53503,-2.6788 0,-1.4732 -0.4067,-3.4822 -0.90377,-4.4647 -0.4971,-0.9823 -1.1059,-2.9023 -1.3529,-4.2665 -0.55653,-3.0738 -1.3837,-3.1648 -2.34323,-0.2573 -0.40355,1.2228 -2.32595,4.0618 -4.27202,6.309 -4.15408,4.7968 -7.50368,10.7775 -7.92108,14.1428 -0.163,1.3147 0.082,3.6712 0.54483,5.2365 1.28097,4.3335 1.80295,8.4687 1.069,8.4687 -0.3535,0 -0.93238,-1.1162 -1.2864,-2.4805 z m 27.58185,-25.1175 c 0.11125,-0.7517 -0.76673,-2.9415 -1.951,-4.866 -2.60928,-4.2407 -3.26598,-9.523 -1.66133,-13.3635 1.21645,-2.9112 0.35155,-3.2947 -2.4538,-1.0882 -2.0818,1.6377 -2.14932,2.8045 -0.62885,10.8662 1.07603,5.705 1.80078,7.2658 3.02318,6.5105 0.30927,-0.1925 0.91065,0.5753 1.33642,1.7033 0.85113,2.2547 2.0193,2.3737 2.33538,0.2375 z m 4.75872,-54.5552 c 0,-1.0685 -0.1955,-1.2595 -0.73612,-0.719 -0.40485,0.4047 -0.53613,1.0595 -0.29168,1.455 0.6842,1.1072 1.0278,0.861 1.0278,-0.736 z m -44.66115,68.9035 c -0.44745,-0.724 3.39543,-2.7813 4.6699,-2.5 1.46253,0.3227 0.13725,1.8095 -2.2143,2.4837 -1.2086,0.3468 -2.2471,0.3535 -2.4556,0.025 z m 4.78465,-8.7438 c -0.43177,-2.737 0.74425,-8.5775 1.61838,-8.0372 0.36097,0.2225 0.5591,2.056 0.4403,4.0732 -0.1335,2.2673 0.063,3.7645 0.51495,3.9215 1.06392,0.3698 5.27615,-9.6505 7.28122,-17.321 1.88823,-7.2235 3.73375,-11.4285 5.27538,-12.02 1.5037,-0.577 1.93332,0.293 0.789,1.598 -1.73438,1.978 -2.9253,4.8988 -4.51895,11.0835 -2.76483,10.7298 -7.00483,18.8518 -9.84148,18.8518 -0.86547,0 -1.31815,-0.6245 -1.5588,-2.1498 z m -1.66307,0.6945 c -0.43658,-0.4367 -0.79375,-1.1632 -0.79375,-1.6147 0,-1.5425 -1.32875,-1.6405 -6.80768,-0.5018 -5.35202,1.1125 -9.5424,0.9068 -8.7175,-0.428 0.54503,-0.882 8.3331,-5.915 9.20748,-5.9505 0.96892,-0.04 5.3085,-5.7965 6.47687,-8.593 0.53198,-1.273 1.1685,-3.657 1.41453,-5.2975 0.246,-1.6407 1.33075,-4.3145 2.41052,-5.9422 1.07978,-1.6275 1.9645,-3.4745 1.96605,-4.1043 0.002,-0.6797 0.7008,-1.3202 1.72093,-1.5762 1.16832,-0.2933 2.1202,-1.3025 2.97472,-3.1545 l 1.2566,-2.7233 -0.3779,4.961 c -0.5717,7.505 -2.74857,14.8745 -6.32527,21.4128 -4.0641,7.4292 -5.01068,10.427 -3.9959,12.6542 0.8401,1.8438 0.7548,2.0225 -0.4097,0.858 z m -9.4884,-3.5447 c 1.41732,-0.567 3.69105,-0.939 5.05272,-0.8268 2.37333,0.195 2.50878,0.095 3.27383,-2.4512 0.43892,-1.4605 2.0041,-4.6553 3.4782,-7.0993 2.35585,-3.906 5.73255,-12.8992 6.27182,-16.7035 0.29998,-2.1162 -1.04997,-2.0817 -1.77127,0.045 -0.36168,1.0665 -1.00073,2.3018 -1.42013,2.745 -0.4194,0.4433 -1.39317,2.815 -2.16392,5.2705 -1.86385,5.938 -6.2402,13.2068 -8.87748,14.7448 -5.21777,3.0427 -7.05537,4.2872 -7.05537,4.778 0,0.7207 0.25225,0.6815 3.2116,-0.5028 z"
       id="path79" /></g></svg>
