<?xml version="1.0" encoding="UTF-8" standalone="no"?>
<!-- Created with Inkscape (http://www.inkscape.org/) -->

<svg
   width="120.84556mm"
   height="113.45641mm"
   viewBox="0 0 120.84557 113.45641"
   version="1.1"
   id="svg1"
   xml:space="preserve"
   xmlns="http://www.w3.org/2000/svg"
   xmlns:svg="http://www.w3.org/2000/svg"><defs
     id="defs1" /><g
     id="layer1"
     transform="translate(580.9294,-680.49495)"><path
       style="fill:#4d4d4d"
       d="m -466.9592,793.86556 c -0.26413,-0.174 -0.27969,-0.59687 -0.049,-1.33272 0.39054,-1.24595 0.34413,-1.49512 -0.43717,-2.34716 -0.43505,-0.47444 -1.21054,-1.08689 -2.17476,-1.71755 l -1.49861,-0.98017 -4.67501,6.9e-4 c -7.91648,10e-4 -11.98475,-0.37414 -14.37639,-1.32623 -0.16169,-0.0644 -0.41305,-0.16287 -0.55857,-0.21889 -0.14552,-0.056 -0.39687,-0.15478 -0.55856,-0.21945 -1.22769,-0.49108 -1.61109,-0.58797 -2.32667,-0.58797 -0.53274,0 -0.68737,-0.0443 -0.78379,-0.22446 -0.1178,-0.22009 -0.13329,-0.21976 -0.79789,0.0173 -0.37277,0.13299 -0.70422,0.27398 -0.73656,0.31332 -0.0323,0.0393 -0.244,0.21074 -0.47037,0.3809 -0.22636,0.17015 -0.54219,0.42421 -0.70184,0.56456 -0.15965,0.14036 -0.45069,0.32413 -0.64676,0.40838 -1.16545,0.50083 -1.38615,0.52841 -1.81644,0.22703 -0.2599,-0.18205 -0.30365,-0.18035 -0.68816,0.0267 -0.59507,0.32047 -1.28373,0.29354 -1.55089,-0.0607 -0.1169,-0.15498 -0.38597,-0.36544 -0.59794,-0.4677 -0.21196,-0.10225 -0.44311,-0.29174 -0.51367,-0.4211 -0.0706,-0.12935 -0.17946,-0.27186 -0.24201,-0.3167 -0.1564,-0.1121 -0.0921,-1.32001 0.10577,-1.98624 0.36652,-1.23419 0.85557,-1.76014 2.32014,-2.49517 l 1.00669,-0.50524 -0.45226,-0.14115 c -0.54953,-0.1715 -1.35599,-0.18456 -1.4555,-0.0236 -0.12204,0.19746 -0.58771,0.13129 -0.85977,-0.12218 -0.59892,-0.55797 -0.0963,-1.43497 1.03616,-1.80809 0.86416,-0.28471 2.66932,-0.54555 3.65192,-0.52769 0.78507,0.0143 0.97341,-0.0226 1.30784,-0.25633 0.21489,-0.15014 0.41716,-0.30925 0.4495,-0.35356 0.0323,-0.0443 0.244,-0.18412 0.47037,-0.31068 0.38699,-0.21635 0.4108,-0.26456 0.39856,-0.80703 -0.007,-0.31732 -0.0783,-1.02673 -0.15807,-1.57648 -0.0798,-0.54974 -0.17156,-1.96527 -0.20398,-3.1456 -0.052,-1.89365 -0.0818,-2.14627 -0.25351,-2.14784 -0.23185,-0.002 -1.03826,-0.27355 -1.15272,-0.38801 -0.0443,-0.0443 -0.1521,-0.0806 -0.2395,-0.0806 -0.16919,0 -1.42875,-0.73711 -1.91702,-1.12187 -0.38714,-0.30506 -1.54266,-1.46327 -1.76543,-1.76953 -1.01989,-1.40218 -1.5563,-3.2407 -1.30929,-4.48753 0.27929,-1.40979 0.31481,-1.32995 -0.74858,-1.6825 -0.51741,-0.17154 -1.17886,-0.37963 -1.46991,-0.46242 -1.17578,-0.33447 -1.36184,-0.39007 -1.5875,-0.47441 -0.12935,-0.0483 -0.47331,-0.15287 -0.76435,-0.23229 -0.29104,-0.0794 -0.635,-0.18526 -0.76435,-0.23519 -0.12935,-0.0499 -0.47331,-0.15489 -0.76435,-0.23324 -0.29104,-0.0784 -0.62105,-0.19022 -0.73336,-0.24859 -0.1123,-0.0584 -0.30762,-0.10613 -0.43403,-0.10613 -0.12641,0 -0.26255,-0.0529 -0.30252,-0.11759 -0.04,-0.0647 -0.19126,-0.1176 -0.3362,-0.1176 -0.14493,0 -0.31379,-0.0437 -0.37523,-0.0971 -0.0615,-0.0534 -0.34984,-0.16954 -0.64088,-0.25803 -0.29104,-0.0885 -0.74921,-0.25247 -1.01814,-0.36442 -0.26894,-0.11194 -0.51421,-0.17831 -0.54504,-0.14748 -0.0308,0.0308 0.0379,0.51635 0.15268,1.07893 0.41095,2.01378 0.46976,2.60823 0.46976,4.74889 0,1.69549 -0.0493,2.39988 -0.22546,3.22024 -0.44656,2.07975 -0.88377,3.05237 -1.76842,3.93408 -1.07293,1.06936 -2.03312,1.17232 -3.23899,0.34731 -0.25871,-0.17699 -0.93014,-0.61596 -1.49207,-0.97548 -1.36173,-0.87121 -1.49349,-0.98632 -3.75006,-3.27619 -1.07225,-1.08806 -2.01051,-1.9783 -2.08503,-1.9783 -0.15268,0 -0.21647,0.24177 -0.31027,1.17593 -0.0845,0.84161 -0.41411,2.92115 -0.64303,4.05694 -0.0652,0.32338 -0.14951,0.77317 -0.1874,0.99954 -0.0379,0.22637 -0.11745,0.62324 -0.17681,0.88194 -0.0594,0.25871 -0.24615,1.07892 -0.41508,1.82269 -0.5666,2.49464 -0.81678,3.03194 -1.69998,3.65091 -0.36162,0.25343 -0.53289,0.28746 -1.41111,0.28038 -0.88428,-0.007 -1.09445,-0.0537 -1.82268,-0.40396 -0.71598,-0.34435 -2.47751,-1.43568 -2.64584,-1.63919 -0.0323,-0.0391 -0.40539,-0.34376 -0.82902,-0.67704 -0.92654,-0.72893 -2.9807,-2.85544 -3.87468,-4.01114 -0.35572,-0.45986 -0.70147,-0.83818 -0.76835,-0.84072 -0.0669,-0.003 -0.54312,0.34588 -1.05833,0.77426 -0.51521,0.42838 -1.17487,0.94213 -1.46591,1.14166 -0.29104,0.19952 -0.63175,0.45757 -0.75713,0.57344 -0.12538,0.11586 -0.29736,0.21066 -0.38217,0.21066 -0.0848,0 -0.15422,0.0404 -0.15422,0.0898 0,0.0912 -0.66184,0.41702 -1.41111,0.69478 -0.71286,0.26425 -1.35926,0.16806 -2.32246,-0.34563 -0.21019,-0.1121 -0.53883,-0.28602 -0.7303,-0.3865 -0.8053,-0.42259 -3.2591,-3.59544 -3.6101,-4.66801 -0.037,-0.11318 -0.11409,-0.20579 -0.17123,-0.20579 -0.0571,0 -0.10387,-0.0566 -0.10387,-0.1258 0,-0.0692 -0.15875,-0.35654 -0.35278,-0.63855 -0.19403,-0.28201 -0.35278,-0.54714 -0.35278,-0.58918 0,-0.10382 -1.32986,-2.02914 -1.70486,-2.46823 -0.93772,-1.09797 -1.7479,-1.94028 -1.86628,-1.94028 -0.22757,0 -0.97773,1.35338 -1.23842,2.23426 -0.0861,0.29105 -0.19772,0.66146 -0.24797,0.82315 -0.0503,0.16169 -0.15211,0.61148 -0.22634,0.99954 -0.0742,0.38806 -0.18573,0.93121 -0.24777,1.20701 -0.062,0.2758 -0.1128,0.66247 -0.1128,0.85927 0,0.1968 -0.0487,0.57969 -0.10813,0.85086 -0.0595,0.27117 -0.17018,0.81054 -0.24602,1.1986 -0.27376,1.40075 -1.16953,2.10667 -1.85861,1.4647 -0.19971,-0.18605 -0.34828,-0.22345 -0.65734,-0.16547 -0.3488,0.0654 -0.43202,0.0307 -0.6578,-0.27471 -0.16781,-0.22697 -0.33199,-0.3304 -0.46801,-0.29483 -0.25012,0.0654 -0.7078,-0.38542 -0.7078,-0.6972 0,-0.18306 -0.0382,-0.19673 -0.24307,-0.0871 -0.30814,0.16492 -0.81526,-0.13198 -0.81526,-0.4773 0,-0.14902 -0.0793,-0.23247 -0.22079,-0.23247 -0.40589,0 -0.54169,-0.33917 -0.58396,-1.4585 -0.0222,-0.58836 -0.066,-1.53896 -0.0972,-2.11246 -0.0484,-0.88763 -0.0211,-1.11499 0.18376,-1.5287 0.34698,-0.7009 1.84775,-4.51171 2.17144,-5.51383 0.47373,-1.46662 0.78103,-2.74816 0.78103,-3.25719 0,-0.18928 0.0529,-0.37685 0.11759,-0.41682 0.0647,-0.04 0.11759,-0.22518 0.11759,-0.41158 0,-0.18639 0.0529,-0.3716 0.1176,-0.41157 0.0647,-0.04 0.11759,-0.20185 0.11759,-0.35972 0,-0.15787 0.0529,-0.28704 0.11759,-0.28704 0.0647,0 0.11759,-0.0537 0.11759,-0.11924 0,-0.51405 1.10421,-1.40946 1.73811,-1.40946 0.70795,0 2.44155,0.94334 3.37759,1.83791 0.43731,0.41795 1.91686,1.51772 2.70421,2.01008 0.32338,0.20222 1.48451,0.79994 2.5803,1.32826 1.09578,0.52831 2.31286,1.17674 2.70463,1.44095 0.84636,0.57079 2.10295,1.75227 2.43488,2.28934 0.28258,0.45724 0.37362,0.47437 0.54316,0.10226 0.10309,-0.22625 0.074,-0.41531 -0.14908,-0.97014 -0.15241,-0.37902 -0.36551,-1.13892 -0.47355,-1.68866 -0.10804,-0.54975 -0.26146,-1.05246 -0.34095,-1.11713 -0.25339,-0.20619 -0.99481,-1.2298 -1.19246,-1.6463 -0.28591,-0.60251 -0.16301,-2.47483 0.30103,-4.58611 0.31065,-1.41337 0.4822,-2.42173 0.65021,-3.82176 0.33917,-2.82629 1.05446,-4.3228 2.45704,-5.14051 0.30252,-0.17637 0.92021,-0.19323 1.08386,-0.0296 0.0837,0.0837 0.16628,-0.36506 0.26508,-1.44051 0.0789,-0.85914 0.16961,-1.74728 0.2015,-1.97365 0.23608,-1.67541 0.17045,-2.84324 -0.1998,-3.55558 -0.0584,-0.11231 -0.10613,-0.26152 -0.10613,-0.33159 0,-0.33043 -1.02928,-1.61985 -2.05454,-2.5738 -2.08055,-1.93582 -3.60786,-3.56578 -5.01974,-5.35709 -0.86661,-1.09949 -1.70384,-2.18428 -1.86052,-2.41064 -0.15669,-0.22637 -0.31835,-0.43804 -0.35926,-0.47037 -0.0409,-0.0323 -0.40844,-0.56151 -0.81675,-1.17593 -0.4083,-0.61442 -0.76103,-1.13918 -0.78383,-1.16613 -0.1196,-0.14131 -0.22402,0.21943 -0.2975,1.02773 -0.19934,2.1928 -0.32363,3.1953 -0.49827,4.01896 -0.18903,0.89152 -0.80683,3.35795 -1.03092,4.11574 -0.0669,0.22636 -0.16427,0.75553 -0.2163,1.17592 -0.0922,0.74468 -0.19309,1.21205 -0.46978,2.17547 -0.0743,0.2587 -0.1608,0.62912 -0.19222,0.82314 -0.0314,0.19403 -0.10246,0.45861 -0.15786,0.58797 -0.10599,0.24748 -0.21056,0.68534 -0.3162,1.324 -0.0349,0.2108 -0.11047,0.41236 -0.168,0.44792 -0.0575,0.0356 -0.1046,0.19453 -0.1046,0.35328 0,0.15875 -0.0478,0.38052 -0.10613,0.49283 -0.0584,0.1123 -0.17406,0.44231 -0.25707,0.73336 -0.4028,1.41215 -3.06761,6.92088 -4.89643,10.12194 -0.37051,0.64851 -2.33665,4.56326 -2.62365,5.22389 -0.14049,0.32338 -0.33367,0.77317 -0.4293,0.99954 -0.0956,0.22636 -0.22233,0.50346 -0.28157,0.61576 -0.0592,0.11231 -0.1077,0.33886 -0.1077,0.50346 0,0.51466 -1.41891,2.44541 -2.74869,3.74025 -1.03623,1.00899 -2.41471,1.83774 -3.82906,2.30205 -0.94419,0.30996 -1.30572,0.31061 -1.69667,0.003 -0.39355,-0.30956 -0.43765,-1.10346 -0.0825,-1.48469 l 0.22737,-0.24406 -0.69869,-0.19604 c -0.71137,-0.1996 -0.81142,-0.18554 -1.22596,0.1722 -0.12935,0.11163 -0.50225,0.28965 -0.82867,0.3956 -0.42502,0.13796 -0.77548,0.37813 -1.23472,0.84615 -1.06236,1.08268 -1.77237,1.20973 -2.13846,0.38266 -0.0901,-0.20357 -0.23966,-0.33511 -0.38357,-0.3374 -0.32538,-0.005 -0.64693,-0.27146 -0.65007,-0.53839 -10e-4,-0.12222 -0.10609,-0.35451 -0.23257,-0.5162 -0.33987,-0.4345 -0.27149,-0.92123 0.19496,-1.38768 0.0868,-0.0868 0.15782,-0.37094 0.15782,-0.63142 0,-0.89115 0.48081,-1.49834 1.99907,-2.52456 0.22637,-0.153 0.77218,-0.56199 1.21292,-0.90886 0.44074,-0.34687 0.94344,-0.69688 1.11713,-0.7778 0.17368,-0.0809 0.40767,-0.19386 0.51998,-0.25099 0.1123,-0.0571 0.92232,-0.10387 1.80003,-0.10387 1.5974,0 3.10807,-0.15631 3.49164,-0.36126 0.1123,-0.06 0.28428,-0.10911 0.38217,-0.10911 0.24847,0 1.11873,-0.89553 1.11873,-1.15121 0,-0.11575 0.15985,-0.72185 0.35522,-1.34688 0.72567,-2.32154 1.07446,-3.79067 1.34722,-5.6746 0.26654,-1.84095 0.50925,-3.10481 0.76781,-3.99815 0.0749,-0.2587 0.16435,-0.61654 0.19882,-0.79519 0.0345,-0.17865 0.10949,-0.35375 0.16671,-0.38911 0.0572,-0.0354 0.10403,-0.18289 0.10403,-0.32782 0,-0.14494 0.0421,-0.3138 0.0936,-0.37524 0.0515,-0.0614 0.1608,-0.32338 0.24296,-0.58208 0.15628,-0.49212 0.325,-0.91789 0.50032,-1.26253 0.0571,-0.1123 0.10387,-0.2584 0.10387,-0.32466 0,-0.0663 0.10167,-0.34479 0.22594,-0.61896 0.90276,-1.99181 2.25634,-6.00873 2.58511,-7.67163 0.0639,-0.32338 0.17188,-0.86942 0.2399,-1.21343 0.0901,-0.45558 0.0872,-0.69354 -0.0105,-0.8761 -0.21209,-0.39628 -0.0115,-4.19766 0.36445,-6.9063 0.20088,-1.44744 0.4507,-2.87098 0.71195,-4.05695 0.0712,-0.32338 0.15632,-0.77317 0.18908,-0.99954 0.0328,-0.22636 0.10559,-0.5174 0.16185,-0.64676 0.0563,-0.12935 0.12998,-0.39393 0.16383,-0.58796 0.15292,-0.87653 0.34917,-1.67574 0.64492,-2.62634 0.47455,-1.52535 1.66259,-2.52479 3.66049,-3.07939 1.56946,-0.43567 1.58685,-0.44191 2.58704,-0.92865 0.91562,-0.44558 1.86468,-1.11949 1.96682,-1.39661 0.0406,-0.11027 0.10421,-0.22695 0.14127,-0.25929 0.0371,-0.0323 0.13352,-0.17714 0.21436,-0.32178 0.17848,-0.31932 0.20338,-2.68689 0.0294,-2.79442 -0.0647,-0.04 -0.11759,-0.25164 -0.11759,-0.47037 0,-0.21873 -0.0529,-0.4304 -0.1176,-0.47037 -0.0647,-0.04 -0.11759,-0.16795 -0.11759,-0.28441 0,-0.39083 -0.74859,-1.66811 -1.39047,-2.37246 -0.36517,-0.40072 -1.21629,-1.08538 -1.99845,-1.60759 -1.61859,-1.08066 -2.13467,-1.56089 -2.54264,-2.36597 -0.3284,-0.64807 -0.56748,-2.11862 -0.31953,-1.96538 0.075,0.0463 0.13628,0.18765 0.13628,0.31407 0,0.12641 0.0467,0.32172 0.10387,0.43403 0.0571,0.1123 0.17457,0.36294 0.26099,0.55697 0.2218,0.49802 0.81688,1.37305 1.10056,1.61831 0.13182,0.11397 0.87467,0.58882 1.65078,1.05523 1.50309,0.9033 1.57744,0.97207 2.43975,2.25677 0.30704,0.45745 0.5584,0.77094 0.55856,0.69665 1.7e-4,-0.0743 0.26332,-0.40369 0.58478,-0.73199 0.50571,-0.51647 1.17998,-1.58183 1.17913,-1.86305 -1.5e-4,-0.0507 -0.29281,-0.24496 -0.65036,-0.43179 -0.69259,-0.36189 -0.97037,-0.6823 -1.2163,-1.40298 -0.12661,-0.37104 -0.12587,-0.54205 0.004,-0.9834 0.31473,-1.06722 1.0568,-1.38089 1.90504,-0.80526 0.23539,0.15974 0.42798,0.25805 0.42798,0.21847 0,-0.0396 -0.1097,-0.44031 -0.24377,-0.89051 -0.28127,-0.94445 -0.23066,-1.46416 0.3724,-3.824 0.36927,-1.445 0.56571,-1.83433 1.08475,-2.14998 0.18783,-0.11423 0.40176,-0.32742 0.47541,-0.47377 0.21967,-0.43653 0.89079,-0.74627 2.04477,-0.94372 0.33955,-0.0581 0.92164,-0.16062 1.29352,-0.22782 0.37189,-0.0672 0.87854,-0.15252 1.12588,-0.18958 0.49559,-0.0743 0.65973,-0.30837 0.45078,-0.64295 -0.0749,-0.11991 -0.13615,-0.29883 -0.13615,-0.3976 0,-0.0988 -0.0485,-0.27146 -0.1077,-0.38377 -0.0592,-0.1123 -0.18853,-0.39107 -0.28731,-0.61948 -0.50865,-1.17611 -1.61131,-1.65854 -3.08624,-1.35027 -1.38254,0.28896 -1.51198,0.32369 -1.66842,0.44758 -0.0836,0.0662 -0.4011,0.11262 -0.70556,0.10317 -1.74634,-0.0542 -3.95456,0.67189 -5.43253,1.78632 -1.06228,0.80099 -2.81643,2.6574 -2.82121,2.98567 -10e-4,0.0808 -0.055,0.14699 -0.11973,0.14699 -0.0647,0 -0.11759,0.10583 -0.11759,0.23518 0,0.12936 -0.0414,0.23519 -0.0919,0.23519 -0.0506,0 -0.16172,0.25135 -0.24703,0.55856 -0.45075,1.62319 -0.74863,1.94771 -0.4922,0.53622 0.12883,-0.70912 0.77545,-2.15506 1.14697,-2.56478 0.11734,-0.12941 0.36416,-0.4371 0.5485,-0.68376 0.62692,-0.83887 2.17777,-2.29452 2.8882,-2.71089 1.24657,-0.73059 2.76075,-1.13257 4.26619,-1.13257 0.49744,0 0.93715,-0.0529 0.97712,-0.1176 0.04,-0.0647 0.1761,-0.11759 0.30252,-0.11759 0.12641,0 0.32172,-0.0467 0.43403,-0.1037 0.69465,-0.35279 2.14962,-0.4638 2.85529,-0.21785 1.21714,0.42422 1.60672,0.98456 2.28567,3.28759 0.13115,0.44488 0.41221,0.94127 0.8292,1.46453 0.61164,0.76751 1.46597,2.31027 1.46597,2.64727 0,0.0912 0.0514,0.21726 0.11421,0.28007 0.0628,0.0628 0.16492,0.7843 0.22692,1.6033 0.062,0.81901 0.17186,1.59963 0.24416,1.73471 0.1575,0.29429 0.0912,3.57687 -0.094,4.64991 -0.0669,0.38806 -0.15583,0.97014 -0.19751,1.29352 -0.0417,0.32338 -0.12485,0.70703 -0.1848,0.85255 -0.37942,0.92096 -0.67308,1.29237 -1.0824,1.36899 -1.08116,0.20238 -1.20269,0.25229 -1.23918,0.50892 -0.0515,0.362 0.59255,1.66577 1.02951,2.08419 0.28003,0.26814 0.39308,0.3145 0.5018,0.20578 0.0772,-0.0772 0.25384,-0.14033 0.39257,-0.14033 0.38852,0 1.55799,-0.82696 2.40536,-1.70089 1.2955,-1.33609 2.40622,-1.94448 3.54998,-1.94448 0.90393,0 1.85623,0.44446 2.6241,1.22474 0.67356,0.68444 1.21258,1.64546 1.58854,2.8322 0.14343,0.45273 0.3076,0.91503 0.36482,1.02734 0.0572,0.11231 0.10404,0.30825 0.10404,0.43544 0,0.12719 0.0474,0.3528 0.10535,0.50136 0.0579,0.14857 0.16893,0.50824 0.24665,0.79929 0.0777,0.29104 0.18905,0.62105 0.24743,0.73335 0.0584,0.11231 0.10613,0.27673 0.10613,0.36538 0,0.0886 0.23005,0.63176 0.51122,1.20691 0.48242,0.98681 0.67547,1.40583 1.06424,2.30987 0.1599,0.37184 1.48745,4.20354 1.66022,4.79189 0.0475,0.16169 0.25363,0.58503 0.45811,0.94074 1.59298,2.77113 3.25349,6.86853 3.88392,9.5838 0.10511,0.45273 0.2423,1.0145 0.30485,1.24837 0.14742,0.55116 0.14644,1.39747 -0.002,1.39747 -0.0634,0 -0.14946,-0.14553 -0.19115,-0.32338 -0.76161,-3.24911 -1.52259,-5.66318 -2.41572,-7.66345 -0.78515,-1.75843 -1.51105,-3.10252 -2.23064,-4.13032 -0.33055,-0.47213 -0.45639,-0.7719 -0.45639,-1.0872 0,-0.23944 -0.29191,-1.2561 -0.64868,-2.25925 -0.67583,-1.90028 -0.91377,-2.4712 -1.7642,-4.23316 -0.28096,-0.58209 -0.61659,-1.4023 -0.74585,-1.82269 -0.21218,-0.69007 -0.30767,-1.0294 -0.61217,-2.17546 -0.29318,-1.10351 -0.42068,-1.47744 -0.71645,-2.10115 -0.99471,-2.09769 -2.74636,-3.16616 -4.34395,-2.64973 -0.89757,0.29014 -1.27077,0.54826 -2.51576,1.74001 -0.78629,0.75266 -1.53407,1.35696 -1.88638,1.52443 -0.32103,0.1526 -0.67866,0.3265 -0.79473,0.38645 -0.49352,0.2549 -1.96443,-1.34595 -1.96443,-2.13798 0,-0.11943 -0.0529,-0.24984 -0.11759,-0.28981 -0.0647,-0.04 -0.11759,-0.19126 -0.11759,-0.3362 0,-0.33952 -0.21056,-0.54575 -0.5572,-0.54575 -0.15123,0 -0.74716,-0.3175 -1.32428,-0.70555 -0.57713,-0.38806 -1.08021,-0.70556 -1.11797,-0.70556 -0.0378,0 -0.19896,-0.13031 -0.35822,-0.28957 -0.15927,-0.15927 -0.52728,-0.42888 -0.81781,-0.59914 -0.5221,-0.30597 -0.70144,-0.63999 -0.34363,-0.63999 0.16854,0 1.2053,0.63955 1.34411,0.82914 0.0323,0.0442 0.6327,0.45776 1.33413,0.9191 0.94073,0.61872 1.37857,0.8388 1.66876,0.8388 0.21638,0 0.42612,-0.0529 0.46609,-0.1176 0.04,-0.0647 0.22888,-0.11759 0.41979,-0.11759 0.19092,0 0.58091,-0.10989 0.86665,-0.2442 0.53161,-0.24989 0.77143,-0.63639 0.77143,-1.24325 0,-0.24486 -0.0546,-0.27644 -0.4781,-0.27644 -0.26296,0 -0.58614,0.0578 -0.71818,0.12849 -0.16125,0.0863 -0.27898,0.0896 -0.35856,0.01 -0.19544,-0.19544 0.56765,-0.51471 1.1254,-0.47086 0.48363,0.038 0.48843,0.0345 0.50885,-0.37319 0.0113,-0.22637 -0.004,-0.33069 -0.033,-0.23182 -0.10726,0.35958 -0.50306,0.46647 -1.76491,0.47659 -1.02797,0.008 -1.28614,-0.0253 -1.44247,-0.18764 -0.17575,-0.18248 -0.17329,-0.20814 0.0319,-0.3332 0.12225,-0.0745 0.45707,-0.3347 0.74405,-0.57817 0.28698,-0.24346 0.67643,-0.52263 0.86546,-0.62038 0.37872,-0.19584 0.40646,-0.30925 0.21207,-0.86689 -0.0981,-0.28131 -0.18049,-0.35731 -0.32338,-0.29819 -0.43761,0.18105 -0.59356,0.18135 -0.94069,0.002 -0.42393,-0.21923 -0.58076,-0.66918 -0.37029,-1.06244 0.19408,-0.36265 0.6699,-0.61782 0.8382,-0.44951 0.0894,0.0894 0.0205,0.18801 -0.23756,0.34048 -0.43463,0.25674 -0.49528,0.68999 -0.11067,0.79057 0.18036,0.0472 0.32032,-0.0199 0.48883,-0.23409 0.12987,-0.1651 0.34317,-0.39991 0.47402,-0.52181 0.22053,-0.20546 0.25335,-0.20764 0.4497,-0.0299 0.17264,0.15624 0.24484,0.16427 0.3904,0.0435 0.29643,-0.24601 0.20805,-0.70508 -0.22885,-1.18868 -0.2241,-0.24805 -0.53935,-0.71128 -0.70055,-1.02939 -0.2603,-0.51368 -0.27721,-0.62269 -0.15111,-0.97436 0.16926,-0.47204 0.42342,-0.7452 1.17091,-1.25846 0.32823,-0.22537 0.55857,-0.4736 0.55857,-0.60195 0,-0.33632 -0.42995,-1.06646 -1.18929,-2.01966 -0.3798,-0.47675 -0.69091,-0.96255 -0.69137,-1.07955 -5.3e-4,-0.13672 -0.0518,-0.18122 -0.14351,-0.12454 -0.0785,0.0485 -0.38275,0.13343 -0.67616,0.18873 -0.29341,0.0553 -0.79805,0.1531 -1.12143,0.21734 -0.32338,0.0642 -0.85255,0.16224 -1.17593,0.21778 -1.47565,0.25342 -1.46992,0.25074 -2.33393,1.08942 -0.91813,0.89123 -1.13014,1.34184 -1.13326,2.4087 -9.8e-4,0.33534 -0.0587,0.75867 -0.12826,0.94074 -0.33792,0.88453 -0.36504,1.54214 -0.10619,2.57537 0.19682,0.78562 0.22075,1.03852 0.1108,1.171 -0.16565,0.19959 -0.57863,0.12939 -1.14898,-0.19532 -0.49589,-0.28232 -0.75661,-0.27971 -1.01897,0.0102 -0.25299,0.27956 -0.29443,1.03927 -0.0787,1.44239 0.091,0.17012 0.48304,0.44839 0.94956,0.67408 0.65443,0.31659 0.83783,0.36118 1.0402,0.25287 0.35599,-0.19052 0.39855,-0.16776 0.35716,0.19102 -0.0248,0.21519 -0.14482,0.37385 -0.36059,0.47679 -0.17786,0.0848 -0.3239,0.21753 -0.32453,0.29485 -10e-4,0.16834 -0.56629,1.40275 -0.68201,1.49027 -0.0447,0.0338 -0.33636,0.34103 -0.64822,0.68278 -0.50612,0.55462 -0.5582,0.66159 -0.48482,0.99568 0.0452,0.20587 0.12384,0.45542 0.17472,0.55456 0.30956,0.6032 0.50171,4.12829 0.23404,4.29372 -0.0667,0.0412 -0.12127,0.25434 -0.12127,0.47359 0,0.32369 -0.0829,0.46059 -0.44087,0.72802 -0.24248,0.18115 -0.5435,0.42197 -0.66894,0.53515 -0.12543,0.11318 -0.29304,0.20578 -0.37247,0.20578 -0.0794,0 -0.16205,0.0397 -0.18361,0.0882 -0.061,0.13726 -1.51858,0.85255 -1.73729,0.85255 -0.10733,0 -0.24542,0.0437 -0.30686,0.0971 -0.0614,0.0534 -0.34984,0.1653 -0.64088,0.24859 -0.49473,0.14159 -0.6367,0.19153 -1.32292,0.46542 -1.63048,0.65078 -2.34237,1.38644 -2.93238,3.03031 -0.13539,0.37722 -0.28925,0.87106 -0.34191,1.09742 -0.0527,0.22637 -0.14866,0.62325 -0.21334,0.88195 -0.2592,1.03681 -0.38144,1.55274 -0.48756,2.05787 -0.87813,4.17989 -1.18494,7.44141 -1.05086,11.1713 0.03,0.83538 -0.19157,2.18993 -0.58676,3.58657 -0.0732,0.2587 -0.17765,0.62912 -0.23212,0.82315 -0.24856,0.8854 -1.10083,3.25451 -1.66041,4.61551 -0.0598,0.14552 -0.15462,0.38364 -0.21064,0.52916 -0.056,0.14553 -0.16893,0.42334 -0.25092,0.61737 -0.082,0.19402 -0.18781,0.45861 -0.23518,0.58796 -0.0474,0.12935 -0.14328,0.36748 -0.21314,0.52917 -0.15556,0.36006 -0.76239,2.22683 -0.94608,2.91041 -0.3643,1.35568 -0.55544,2.157 -0.72226,3.02801 -0.0743,0.38806 -0.18194,0.89077 -0.23914,1.11713 -0.0572,0.22637 -0.13463,0.59678 -0.17207,0.82315 -0.0657,0.39698 -0.16022,0.8772 -0.39366,1.99907 -0.0606,0.29105 -0.16898,0.81504 -0.24093,1.16443 -0.072,0.34939 -0.2365,0.99009 -0.36566,1.42379 -0.12916,0.43369 -0.23484,0.876 -0.23484,0.98292 0,0.33703 -0.47921,1.23071 -0.86437,1.61199 -0.7231,0.71579 -1.68261,0.93169 -4.14065,0.93169 -1.06487,0 -2.02802,0.0485 -2.14033,0.10778 -0.1123,0.0593 -0.36358,0.16632 -0.5584,0.23787 -0.19482,0.0716 -0.51232,0.26343 -0.70555,0.4264 l -0.35135,0.29631 0.64676,-0.0687 c 0.35572,-0.0378 0.83821,-0.0964 1.07219,-0.13032 0.3287,-0.0476 0.4428,-0.0164 0.5018,0.1374 0.12995,0.33865 -0.1487,0.52193 -0.79464,0.52263 -0.96301,10e-4 -1.37976,0.17783 -2.14409,0.90954 -0.38912,0.37252 -0.94239,0.88728 -1.22948,1.14392 -0.99039,0.88533 -1.52152,1.5989 -1.52152,2.04414 v 0.40816 l 0.38218,-0.45901 c 0.9018,-1.08311 2.6069,-2.67131 3.10399,-2.8912 0.6369,-0.28173 1.58475,-0.53258 2.21707,-0.58675 0.43408,-0.0372 0.47037,-0.0176 0.47037,0.25369 0,0.22469 -0.0693,0.30326 -0.29398,0.33334 -0.66805,0.0894 -0.45539,0.24337 0.33277,0.24087 0.93162,-0.003 1.07834,0.0462 1.07834,0.36089 0,0.29928 -0.22356,0.35842 -1.35499,0.35842 -0.54064,0 -1.01568,0.0529 -1.05566,0.11759 -0.04,0.0647 -0.14938,0.11759 -0.24314,0.11759 -0.24475,0 -0.80688,0.53053 -1.49518,1.41112 -0.60715,0.77677 -0.99049,1.16697 -1.46607,1.49233 -0.3789,0.25921 -0.32724,0.38915 0.1547,0.38915 0.36176,0 0.51907,-0.10373 1.14653,-0.75596 0.55833,-0.58038 0.8494,-0.78791 1.2532,-0.89353 0.28927,-0.0757 0.67384,-0.26201 0.85459,-0.4141 0.30524,-0.25684 0.39845,-0.2716 1.30913,-0.20733 0.67438,0.0476 1.00633,0.0274 1.06323,-0.0647 0.0455,-0.0736 0.2604,-0.13386 0.47756,-0.13386 0.21716,0 0.41247,-0.0496 0.43403,-0.11024 0.0351,-0.0987 2.02478,-1.18328 2.17074,-1.18328 0.0328,0 0.0428,0.1379 0.0223,0.30644 -0.0271,0.22293 -0.18142,0.38695 -0.56638,0.60186 -0.70253,0.3922 -1.14344,0.70636 -1.67319,1.19219 -0.24116,0.22116 -0.55866,0.48177 -0.70556,0.57913 -0.74214,0.49188 -0.7432,0.84833 -0.002,0.84765 1.15643,-10e-4 3.09368,-0.91752 4.35288,-2.05923 1.35753,-1.23087 2.84967,-3.22757 2.84967,-3.81327 0,-0.19942 0.0467,-0.45447 0.10387,-0.56678 0.0978,-0.19223 0.27734,-0.60964 0.4925,-1.14493 0.21092,-0.52476 1.7779,-3.70754 2.25788,-4.58611 1.28141,-2.34556 1.62307,-2.99842 3.01541,-5.76204 1.51847,-3.01398 2.12663,-4.32168 2.12663,-4.57282 0,-0.0784 0.0437,-0.19291 0.0971,-0.25435 0.0534,-0.0615 0.16442,-0.34984 0.24665,-0.64088 0.0822,-0.29105 0.19726,-0.62106 0.25563,-0.73336 0.0584,-0.11231 0.10613,-0.33408 0.10613,-0.49283 0,-0.15875 0.0471,-0.31773 0.1046,-0.35328 0.0575,-0.0356 0.1369,-0.25035 0.17639,-0.47732 0.0395,-0.22696 0.10409,-0.59836 0.14358,-0.82532 0.0395,-0.22697 0.11885,-0.44176 0.17638,-0.47731 0.0575,-0.0356 0.1046,-0.24361 0.1046,-0.46234 0,-0.21874 0.0471,-0.42679 0.1046,-0.46234 0.11134,-0.0688 0.19775,-0.48201 0.35826,-1.71313 0.0548,-0.42039 0.16182,-0.97602 0.2378,-1.23472 0.076,-0.2587 0.18401,-0.65558 0.24009,-0.88194 0.0561,-0.22637 0.1538,-0.59679 0.21717,-0.82315 0.38962,-1.39173 0.52271,-1.94016 0.78408,-3.23103 0.16026,-0.79149 0.3751,-2.36664 0.47743,-3.50035 l 0.18606,-2.06128 -0.25891,-0.50751 c -0.35094,-0.68789 -0.6755,-1.66197 -0.61365,-1.84173 0.11406,-0.33157 0.34307,-0.0993 0.6501,0.65935 0.30989,0.76573 1.57998,2.9872 1.99294,3.48579 0.21888,0.26427 0.54761,0.69918 2.31092,3.05741 0.67704,0.90546 1.26216,1.67275 1.30027,1.70509 0.0381,0.0323 0.21934,0.26005 0.40274,0.50602 0.35166,0.47162 1.20661,1.35211 2.66551,2.7451 1.91429,1.8278 2.74594,2.8132 3.16122,3.74564 0.0864,0.19403 0.20385,0.44466 0.26098,0.55697 0.0571,0.1123 0.10388,0.29955 0.10388,0.41611 0,0.11655 0.10697,0.42154 0.23772,0.67775 0.21225,0.41591 0.22508,0.55405 0.11965,1.28898 -0.0649,0.45273 -0.17192,1.20376 -0.23772,1.66895 -0.15559,1.09983 -0.15435,4.97239 0.002,5.86677 0.22789,1.30463 0.32929,1.77165 0.98088,4.51752 0.22254,0.93781 0.44002,1.87647 0.4833,2.08592 0.0433,0.20946 0.12423,0.40899 0.17991,0.4434 0.0557,0.0344 0.27301,-0.18988 0.48296,-0.49842 0.20995,-0.30855 0.41423,-0.58745 0.45395,-0.61978 0.0397,-0.0323 0.19942,-0.24401 0.35487,-0.47037 0.15546,-0.22637 0.31421,-0.43804 0.35278,-0.47038 0.0386,-0.0323 0.19732,-0.244 0.35278,-0.47037 0.15546,-0.22636 0.31179,-0.43803 0.34741,-0.47037 0.0356,-0.0323 0.30212,-0.37629 0.59222,-0.76435 0.54372,-0.72729 1.77686,-2.30647 1.88241,-2.41065 0.0328,-0.0323 0.29756,-0.37629 0.58844,-0.76435 0.29088,-0.38805 0.59534,-0.77581 0.67659,-0.86167 0.16706,-0.17656 0.73423,-1.37702 0.73423,-1.55406 0,-0.0636 0.0478,-0.20759 0.10613,-0.31989 0.0584,-0.11231 0.17034,-0.44232 0.24882,-0.73336 0.0785,-0.29104 0.18333,-0.66146 0.23301,-0.82315 0.0497,-0.16169 0.15648,-0.5321 0.23736,-0.82315 0.71191,-2.56198 1.33179,-3.81966 2.42112,-4.91229 1.21236,-1.21603 2.71644,-1.74824 4.63226,-1.6391 0.61442,0.035 1.24942,0.11433 1.41111,0.17629 0.24769,0.0949 0.3588,0.0559 0.70556,-0.24744 l 0.41157,-0.36009 -0.0356,-1.0066 c -0.0324,-0.91709 -0.0972,-1.25187 -0.37667,-1.94734 -0.052,-0.12935 -0.26335,-0.68498 -0.4697,-1.23472 -0.20636,-0.54975 -0.42307,-1.1186 -0.48158,-1.26412 -0.0585,-0.14552 -0.15391,-0.38365 -0.21199,-0.52917 -0.0581,-0.14552 -0.19665,-0.47625 -0.30793,-0.73495 -0.31996,-0.74384 -0.54259,-1.27199 -0.65679,-1.55811 -0.24424,-0.61192 -0.36703,-0.87929 -1.20163,-2.61643 -1.32526,-2.75842 -2.32567,-4.41691 -3.73953,-6.19945 -0.63881,-0.80539 -0.67265,-0.88124 -0.6587,-1.47667 0.017,-0.72815 -0.1201,-1.10898 -0.83523,-2.31925 -0.87376,-1.47873 -1.40266,-2.40386 -1.71431,-2.99861 -0.13557,-0.25871 -0.27294,-0.49683 -0.30528,-0.52917 -0.30535,-0.30535 -0.46555,-1.09235 -0.24953,-1.22585 0.0916,-0.0566 0.7199,0.76159 0.7199,0.93756 0,0.0382 0.15875,0.30026 0.35278,0.58227 0.19403,0.28201 0.35278,0.53749 0.35278,0.56774 0,0.0302 0.20412,0.39112 0.45361,0.80196 0.8238,1.35655 1.53005,2.94936 1.65338,3.7289 0.0922,0.58298 0.21998,0.88087 0.57991,1.35232 1.42658,1.86858 3.52326,5.55791 4.53712,7.98357 0.10137,0.24254 0.26908,0.63941 0.37269,0.88195 0.10361,0.24253 0.23063,0.5468 0.28226,0.67616 0.0516,0.12935 0.20499,0.48596 0.34079,0.79246 0.1358,0.30651 0.2469,0.60084 0.2469,0.65407 0,0.0532 0.10584,0.31584 0.23519,0.58357 0.12935,0.26773 0.23519,0.54297 0.23519,0.61164 0,0.0687 0.0467,0.21676 0.10387,0.32906 0.14519,0.28543 0.48186,1.115 0.72711,1.7917 0.25833,0.71275 0.31953,0.73097 0.80957,0.24092 0.24689,-0.24689 0.64784,-0.51455 0.891,-0.5948 0.92981,-0.30686 2.20947,0.0611 3.15088,0.90604 0.38285,0.34361 0.505,0.39164 0.82315,0.32366 0.20547,-0.0439 0.4265,-0.1193 0.49117,-0.16753 0.0647,-0.0482 0.30281,-0.12109 0.52917,-0.1619 0.22637,-0.0408 0.6497,-0.12766 0.94074,-0.19301 3.22013,-0.72299 6.57979,-1.05894 10.58997,-1.05894 4.05239,0 5.40317,0.25518 6.34355,1.19839 0.22647,0.22715 0.484,0.56638 0.57229,0.75383 0.0883,0.18746 0.20726,0.43272 0.26439,0.54503 0.0571,0.1123 0.10388,0.27685 0.10388,0.36566 0,0.14923 0.68765,1.59006 0.82243,1.7232 0.22568,0.22297 1.40555,2.58843 1.9649,3.93935 0.26779,0.64676 0.67605,1.75801 0.90724,2.46945 0.23118,0.71143 0.47344,1.45602 0.53834,1.65464 0.0649,0.19862 0.11801,0.49977 0.11801,0.66922 0,0.16945 0.0529,0.3408 0.11759,0.38077 0.0647,0.04 0.1176,0.17538 0.1176,0.30092 0,0.2742 0.0273,0.27527 1.29352,0.0505 2.04531,-0.36305 4.23818,-0.53389 7.01092,-0.54621 2.52515,-0.0112 2.88246,0.0116 3.54661,0.22693 0.88257,0.2861 1.50193,0.73158 1.75501,1.2623 l 0.18556,0.38913 0.30674,-0.36826 c 0.69601,-0.83562 1.39717,-1.5328 2.00935,-1.99794 0.35708,-0.27132 0.71378,-0.55407 0.79268,-0.62835 0.18589,-0.175 1.7221,-0.90208 2.3157,-1.096 0.55401,-0.18099 3.0515,-0.19703 3.61527,-0.0232 0.21625,0.0667 0.6313,0.18481 0.92234,0.26253 0.29104,0.0777 0.82373,0.24005 1.18376,0.36074 0.36002,0.12069 0.73326,0.21944 0.82941,0.21944 0.0962,0 0.92202,0.3706 1.83524,0.82357 1.1343,0.56261 1.8653,1.01082 2.30703,1.41454 0.688,0.62879 1.35062,1.55421 1.59702,2.23041 0.0825,0.22636 0.19022,0.5174 0.23941,0.64676 0.23011,0.60513 0.3572,1.10248 0.3572,1.39779 0,0.17752 0.0469,0.41188 0.1042,0.52082 0.0573,0.10893 0.1423,0.68753 0.18887,1.28578 0.0725,0.93094 0.059,1.08774 -0.0936,1.08774 -0.13972,0 -0.1955,-0.2227 -0.25774,-1.02894 -0.0824,-1.06729 -0.10108,-1.15676 -0.5466,-2.61644 -0.60377,-1.97814 -1.61953,-3.10475 -3.8055,-4.22078 -1.12173,-0.57269 -1.58681,-0.62751 -1.58681,-0.18705 0,0.16273 -0.17921,0.83742 -0.39824,1.49931 -0.3686,1.11383 -0.66009,2.36011 -0.66009,2.82219 0,0.10641 0.2085,0.49112 0.46333,0.8549 0.66488,0.94916 1.20771,2.28114 1.55577,3.81755 0.34983,1.54424 0.24606,5.98408 -0.14966,6.40291 -0.0581,0.0614 -0.10555,0.22042 -0.10555,0.35329 0,0.29729 -0.47922,1.63856 -0.93226,2.60926 -0.533,1.14201 -1.46568,2.43382 -2.49295,3.45284 -0.52121,0.51701 -0.91858,0.94003 -0.88306,0.94003 0.0995,0 1.20181,-0.66348 1.97819,-1.19071 0.94588,-0.64234 2.31359,-2.00336 2.90337,-2.88918 0.26677,-0.40068 0.48504,-0.78432 0.48504,-0.85255 0,-0.0682 0.0529,-0.12404 0.11759,-0.12404 0.0647,0 0.1176,-0.0694 0.1176,-0.1543 0,-0.0849 0.10583,-0.37335 0.23518,-0.64108 0.12935,-0.26773 0.23519,-0.59205 0.23519,-0.72071 0,-0.12865 0.0473,-0.26317 0.10517,-0.29892 0.0578,-0.0358 0.13515,-0.26377 0.17179,-0.50671 0.0366,-0.24294 0.12686,-0.75921 0.20049,-1.14726 0.19983,-1.05305 0.27475,-4.80921 0.11142,-5.58565 -0.34489,-1.6396 -0.68617,-2.58024 -1.31691,-3.6297 -0.68903,-1.14645 -1.4151,-2.71688 -1.343,-2.90479 0.10285,-0.26801 0.23753,-0.19758 0.40902,0.21389 0.0876,0.21019 0.43944,0.96426 0.78186,1.67569 1.87378,3.89306 1.7621,3.44589 1.7621,7.05556 0,3.01631 -0.0598,3.68451 -0.47349,5.29166 -0.18511,0.7191 -0.25485,0.92061 -0.53877,1.55682 -0.12235,0.27417 -0.22246,0.52843 -0.22246,0.56502 0,0.0366 -0.219,0.39436 -0.48666,0.79503 -1.05573,1.58036 -2.9387,3.04167 -5.67251,4.40224 -1.04494,0.52004 -1.46132,0.58098 -1.93134,0.28262 -0.24079,-0.15284 0.0434,-0.64316 0.48365,-0.83455 0.69523,-0.3022 2.06657,-1.29564 2.76585,-2.00365 2.18232,-2.20959 3.76068,-6.18049 3.55272,-8.93806 -0.007,-0.097 -0.16821,0.26968 -0.35753,0.81488 -0.47293,1.36193 -1.15922,2.75897 -1.88021,3.82744 -1.12974,1.67419 -3.15113,3.37936 -4.5303,3.82159 -0.25802,0.0827 -0.59069,0.19657 -0.73925,0.25298 -0.14856,0.0564 -0.49856,0.10255 -0.77777,0.10255 h -0.50764 l -0.0727,1.32292 c -0.0724,1.31706 0.05,3.44269 0.26921,4.6743 0.18649,1.04797 0.33648,1.78954 0.46973,2.32246 0.0687,0.27487 0.17435,0.6982 0.23473,0.94074 0.0604,0.24253 0.16621,0.63941 0.23518,0.88194 0.069,0.24254 0.17195,0.61295 0.22884,0.82315 0.55695,2.05807 1.36836,3.77567 2.4026,5.08588 0.43536,0.55153 0.46014,0.5661 0.39984,0.23519 -0.0354,-0.19403 -0.12454,-0.56445 -0.19819,-0.82315 -0.0736,-0.25871 -0.17925,-0.62912 -0.23467,-0.82315 -0.87526,-3.06405 -0.97786,-4.68547 -0.42412,-6.70278 0.17753,-0.64676 0.37204,-1.36113 0.43224,-1.5875 0.0602,-0.22636 0.13397,-0.7782 0.16394,-1.2263 0.03,-0.4481 0.10854,-0.86879 0.17461,-0.93486 0.0661,-0.0661 0.12086,-0.25507 0.12174,-0.42 0.002,-0.43722 0.12585,-0.82902 0.26133,-0.82902 0.11721,0 0.0586,1.58307 -0.0998,2.69441 -0.0891,0.62541 0.3008,2.54136 0.77985,3.83197 0.048,0.12936 0.20583,0.63207 0.3507,1.11713 0.14487,0.48507 0.30378,1.01424 0.35314,1.17593 0.10922,0.35778 0.28435,1.04432 0.45787,1.79498 0.0712,0.30813 0.13069,1.07543 0.13213,1.70509 l 0.003,1.14484 0.22867,-0.29398 c 0.61819,-0.79476 1.21778,-2.3579 1.4867,-3.87588 0.18739,-1.05776 0.12715,-3.70193 -0.0874,-3.83451 -0.0575,-0.0355 -0.10453,-0.22335 -0.10453,-0.41738 0,-0.20524 0.0492,-0.32239 0.11759,-0.2801 0.0647,0.04 0.1176,0.19872 0.1176,0.35277 0,0.15406 0.0473,0.30935 0.10517,0.3451 0.26476,0.16364 0.45472,3.23201 0.25034,4.04368 -0.072,0.28596 -0.11155,0.5393 -0.0879,0.56297 0.0747,0.0747 0.55551,-0.90692 0.55551,-1.13416 0,-0.11942 0.0468,-0.24606 0.10402,-0.28142 0.0572,-0.0354 0.1415,-0.31418 0.1873,-0.61959 0.0683,-0.45543 0.10455,-0.51727 0.20161,-0.34385 0.11193,0.20003 0.0935,0.49437 -0.0818,1.30783 -0.18297,0.84881 -0.92999,2.28872 -1.18888,2.2916 -0.0721,8e-4 -0.22521,0.25281 -0.34034,0.56002 -0.45614,1.21721 -1.57797,2.85162 -1.95728,2.85162 -0.26375,0 -0.40941,-0.29291 -0.24928,-0.50127 0.0615,-0.08 0.18174,-0.52913 0.2672,-0.99804 0.15634,-0.85779 0.0695,-1.90717 -0.24165,-2.91876 -0.0611,-0.19862 -0.11106,-0.47331 -0.11106,-0.61042 0,-0.13711 -0.0529,-0.282 -0.11759,-0.32197 -0.0647,-0.04 -0.1176,-0.21772 -0.1176,-0.395 0,-0.17727 -0.0433,-0.37259 -0.0963,-0.43403 -0.053,-0.0614 -0.27045,-0.66734 -0.48326,-1.34644 -0.21281,-0.67909 -0.43404,-1.35627 -0.49163,-1.50483 -0.0576,-0.14857 -0.1047,-0.37694 -0.1047,-0.5075 0,-0.13056 -0.0617,-0.35266 -0.13709,-0.49355 -0.12308,-0.22996 -0.15905,-0.16604 -0.35182,0.6251 -0.41164,1.68947 -0.37608,3.11321 0.1307,5.23217 0.0619,0.25871 0.14531,0.62912 0.18541,0.82315 0.0401,0.19403 0.11582,0.45861 0.16825,0.58796 0.0524,0.12936 0.15944,0.47331 0.23779,0.76436 0.0784,0.29104 0.19022,0.62105 0.24859,0.73335 0.17048,0.32799 0.1326,1.26572 -0.0511,1.26572 -0.21167,0 -0.98681,-0.84078 -1.57235,-1.70551 -0.54611,-0.80649 -0.93802,-1.57459 -1.31977,-2.58662 -0.14637,-0.38805 -0.31117,-0.81139 -0.36621,-0.94074 -0.055,-0.12935 -0.11712,-0.34102 -0.13797,-0.47037 -0.0209,-0.12935 -0.10583,0.3469 -0.18884,1.05833 -0.14613,1.25225 -0.27511,1.88994 -0.5159,2.55054 -0.0634,0.17396 -0.0803,0.37287 -0.0376,0.44203 0.18778,0.30384 -0.0879,0.58586 -0.85412,0.87364 -1.0644,0.39979 -2.17113,0.725 -3.0227,0.88823 -0.38806,0.0744 -0.93121,0.186 -1.20701,0.24804 -0.27581,0.062 -0.69914,0.11245 -0.94075,0.11202 -0.2416,-4.2e-4 -0.84974,0.0617 -1.35141,0.13806 l -0.91213,0.13884 0.79454,0.25572 c 1.07696,0.34661 1.87681,0.5745 3.05819,0.8713 1.16491,0.29267 1.41102,0.35254 1.96968,0.47915 2.98628,0.67677 3.04553,0.67955 6.23241,0.29291 0.77611,-0.0942 1.63351,-0.17231 1.90534,-0.17366 0.51507,-0.003 0.69132,-0.0584 1.85762,-0.58881 1.71466,-0.77974 2.46137,-0.79062 2.86025,-0.0416 0.29494,0.55379 -0.48179,1.54353 -1.68158,2.14274 -0.66001,0.32962 -1.07416,0.23986 -0.7947,-0.17223 0.0475,-0.0701 0.4039,-0.29865 0.79195,-0.50796 0.38806,-0.20931 0.82396,-0.52997 0.96868,-0.71259 l 0.26312,-0.33202 -0.30596,-0.20047 c -0.26914,-0.17635 -0.37109,-0.18224 -0.84706,-0.049 -0.29761,0.0833 -0.83396,0.29075 -1.19189,0.46095 -0.94268,0.44825 -1.26648,0.55392 -2.12068,0.69209 -3.36493,0.54431 -4.9643,0.50933 -7.87871,-0.1723 -0.42039,-0.0983 -1.00247,-0.23442 -1.29351,-0.30245 -0.29105,-0.068 -0.66146,-0.1654 -0.82315,-0.21639 -0.16169,-0.051 -0.53211,-0.15892 -0.82315,-0.23984 -0.97088,-0.26993 -1.35038,-0.38239 -1.5875,-0.4704 -0.12935,-0.048 -0.63206,-0.20896 -1.11713,-0.35766 -0.48507,-0.1487 -0.93222,-0.31375 -0.99366,-0.36678 -0.0614,-0.053 -0.2303,-0.0964 -0.37523,-0.0964 -0.14494,0 -0.29623,-0.0529 -0.3362,-0.11759 -0.04,-0.0647 -0.17611,-0.11759 -0.30252,-0.11759 -0.12641,0 -0.32173,-0.0468 -0.43403,-0.10388 -0.2701,-0.1374 -1.0996,-0.48295 -1.7329,-0.72188 -0.12935,-0.0488 -0.55268,-0.22324 -0.94074,-0.38764 -0.38805,-0.1644 -0.8489,-0.33425 -1.02411,-0.37744 -0.52508,-0.12945 -0.56998,-0.27019 -0.43307,-1.35767 0.0686,-0.54496 0.17264,-1.38772 0.23119,-1.87279 0.33381,-2.76562 0.54058,-4.45581 0.69771,-5.70324 0.057,-0.45273 0.16246,-1.32586 0.2343,-1.94028 0.0718,-0.61442 0.17728,-1.48755 0.2343,-1.94028 0.2817,-2.23634 0.53764,-4.32169 0.69998,-5.70324 0.0646,-0.54974 0.17392,-1.44933 0.24295,-1.99907 0.069,-0.54975 0.15564,-1.31704 0.19248,-1.70509 0.0728,-0.76737 0.14335,-0.91938 0.36335,-0.78341 0.11018,0.0681 0.11581,0.31999 0.0242,1.08283 -0.0657,0.54675 -0.17194,1.44389 -0.23614,1.99363 -0.0642,0.54975 -0.16504,1.39641 -0.22411,1.88148 -0.0591,0.48507 -0.16218,1.36396 -0.22914,1.95309 -0.067,0.58912 -0.15298,1.15252 -0.19115,1.25199 -0.0456,0.11874 0.13878,0.37686 0.53673,0.75154 0.98437,0.92682 1.89891,1.33505 2.99088,1.33505 h 0.55526 l -0.079,-0.49977 c -0.0434,-0.27487 -0.13245,-0.68688 -0.1978,-0.91557 -0.13043,-0.45648 -0.0642,-2.55837 0.11767,-3.73702 0.23222,-1.50457 0.36252,-0.89686 0.3489,1.62721 -0.006,1.0602 0.0456,1.99672 0.12245,2.23425 0.69373,2.14434 0.84313,2.48265 1.57023,3.55562 0.56928,0.84006 1.85597,2.1614 2.58316,2.65272 0.51998,0.35132 0.54414,0.3566 0.48996,0.1073 -0.0314,-0.14423 -0.10108,-0.36807 -0.15495,-0.49743 -0.0539,-0.12935 -0.13241,-0.36747 -0.17452,-0.52916 -0.0421,-0.16169 -0.12988,-0.47919 -0.19507,-0.70556 -0.24158,-0.83888 -0.45848,-2.03408 -0.62954,-3.46898 -0.0308,-0.2587 0.0261,-1.026 0.12649,-1.70509 0.1004,-0.6791 0.21112,-1.43349 0.24604,-1.67643 0.0349,-0.24294 0.1108,-0.47096 0.16865,-0.50671 0.0578,-0.0358 0.10517,-0.20364 0.10517,-0.37309 0,-0.16945 0.0577,-0.49706 0.12822,-0.72802 0.38491,-1.26056 0.38015,-1.18035 0.10417,-1.75525 -0.1442,-0.30038 -0.3084,-0.66521 -0.36488,-0.81073 -0.0565,-0.14552 -0.14958,-0.38365 -0.20689,-0.52917 -0.64067,-1.62696 -0.69064,-3.8709 -0.14991,-6.73218 0.0611,-0.32338 0.0929,-0.60749 0.0706,-0.63136 -0.12727,-0.13637 -1.02119,1.17181 -1.23498,1.80729 -0.087,0.2587 -0.20037,0.52064 -0.25184,0.58208 -0.0515,0.0614 -0.0936,0.23093 -0.0936,0.37665 0,0.30276 -0.23371,0.88373 -0.40356,1.00319 -0.27277,0.19183 -0.33284,-0.10802 -0.26106,-1.30319 0.12062,-2.00826 0.50243,-3.06663 1.48315,-4.11122 1.02863,-1.09563 2.55547,-1.77306 5.46083,-2.42287 1.68594,-0.37708 2.36608,-0.59881 2.83407,-0.92395 0.41334,-0.28717 0.76435,-0.6593 0.76435,-0.81035 0,-0.0586 0.0529,-0.0738 0.11759,-0.0339 0.23106,0.1428 0.11158,0.65964 -0.24242,1.04866 -0.44556,0.48964 -1.48353,0.96583 -2.60808,1.19651 -4.66172,0.95627 -6.3829,1.98814 -7.13433,4.27712 -0.3796,1.15631 -0.29041,1.3317 0.18538,0.36453 0.69838,-1.41966 1.75273,-2.29678 3.15547,-2.62505 0.25871,-0.0605 1.026,-0.15572 1.7051,-0.21151 2.61136,-0.21455 4.0305,-0.40913 4.6449,-0.63687 1.27418,-0.47231 1.94028,-1.15772 1.94028,-1.99655 0,-0.28868 0.0692,-0.44606 0.23519,-0.5349 0.16025,-0.0858 0.23522,-0.24631 0.23532,-0.5039 2.6e-4,-0.70893 0.31975,-2.02262 0.74812,-3.07612 0.23522,-0.57849 0.42767,-1.08739 0.42767,-1.1309 0,-0.13603 -0.86487,-0.65696 -1.23473,-0.74371 -0.19402,-0.0455 -0.56444,-0.13666 -0.82314,-0.20256 -0.97001,-0.24709 -1.90689,-0.37671 -2.70463,-0.37419 -0.9899,0.003 -2.0389,0.14351 -2.12606,0.28454 -0.0348,0.0563 -0.16062,0.1024 -0.27959,0.1024 -0.29271,0 -1.47204,0.62895 -2.12167,1.13151 -0.69583,0.5383 -1.95029,1.76099 -2.33778,2.27858 -0.16943,0.22631 -0.40066,0.5141 -0.51384,0.63953 -0.11318,0.12543 -0.20579,0.29746 -0.20579,0.38228 0,0.0848 -0.0397,0.15462 -0.0882,0.15513 -0.0485,5e-4 -0.14659,0.11957 -0.21795,0.26458 -0.0714,0.14502 -0.29954,0.57952 -0.50703,0.96557 -0.90342,1.68078 -1.61654,4.47822 -2.00936,7.88236 l -0.0814,0.70555 -0.0122,-0.76435 c -0.0495,-3.09782 0.85609,-6.71342 2.27064,-9.06531 0.28821,-0.47919 0.52322,-0.95064 0.52224,-1.04765 -0.004,-0.4241 -0.71783,-0.94943 -1.70199,-1.25305 -0.60015,-0.18514 -1.0899,-0.21533 -3.34879,-0.20638 -2.49816,0.01 -3.8489,0.1276 -5.93843,0.51745 -2.19681,0.40988 -4.6558,0.48925 -6.05601,0.19546 -0.48507,-0.10177 -1.78153,-0.3748 -2.88102,-0.60673 -1.09949,-0.23192 -2.26366,-0.47745 -2.58704,-0.54561 -0.32338,-0.0682 -0.79963,-0.17193 -1.05833,-0.23058 -0.25871,-0.0587 -0.64364,-0.13983 -0.8554,-0.18038 -0.21177,-0.0406 -0.41333,-0.11952 -0.44792,-0.17548 -0.0346,-0.056 -0.16631,-0.10174 -0.29272,-0.10174 -0.12641,0 -0.32173,-0.0494 -0.43403,-0.10989 -0.11231,-0.0604 -0.37617,-0.17919 -0.58637,-0.26389 -0.21019,-0.0847 -0.38217,-0.194 -0.38217,-0.24289 0,-0.0489 -0.0661,-0.0889 -0.14699,-0.089 -0.0808,-8e-5 -0.30575,-0.13262 -0.49977,-0.29453 -1.17708,-0.98225 -1.73803,-1.76361 -3.48754,-4.85782 -0.82453,-1.4583 -2.71914,-3.59431 -3.53351,-3.98375 -0.93978,-0.44941 -1.16115,-0.50635 -1.96882,-0.50635 -0.78935,0 -0.80866,-0.007 -0.92867,-0.35159 -0.0861,-0.24694 -0.17702,-0.3307 -0.30549,-0.2814 -0.24915,0.0956 -0.23192,0.20726 0.11738,0.76059 0.16516,0.26164 0.40329,0.65746 0.52917,0.87961 0.12587,0.22215 0.3347,0.58911 0.46405,0.81548 0.12935,0.22636 0.34102,0.59839 0.47037,0.82672 0.27173,0.47966 0.31041,1.41618 0.0715,1.73092 -0.20961,0.27612 -0.67432,0.26017 -0.99006,-0.034 l -0.25735,-0.23977 v 0.29303 c 0,0.16117 -0.064,0.43345 -0.14218,0.60507 -0.12884,0.28276 -0.1895,0.3067 -0.64676,0.25516 -0.48474,-0.0546 -0.50458,-0.0443 -0.50458,0.26323 0,0.17606 -0.0968,0.40769 -0.21505,0.51473 -0.36579,0.33103 -0.79748,0.24041 -1.31366,-0.27576 -0.28972,-0.28972 -0.57971,-0.47037 -0.75506,-0.47037 -0.5634,0 -1.99214,-1.81275 -2.24843,-2.85273 -0.0998,-0.40475 -0.24813,-0.50267 -0.47562,-0.31386 -0.12226,0.10146 -0.13869,0.18379 -0.0537,0.26883 0.17887,0.17886 0.14983,0.66042 -0.0443,0.73492 -0.0918,0.0352 -0.30014,-0.0233 -0.46301,-0.12998 -0.7739,-0.50708 -2.71818,-0.68398 -3.94081,-0.35857 -2.48356,0.66102 -3.79002,2.29903 -4.83465,6.06157 -0.0808,0.29105 -0.18756,0.66146 -0.23723,0.82315 -0.0497,0.16169 -0.15453,0.53211 -0.23301,0.82315 -0.0785,0.29104 -0.19045,0.62105 -0.24883,0.73336 -0.0584,0.1123 -0.10613,0.285 -0.10613,0.38377 0,0.0988 -0.0529,0.2847 -0.11759,0.41317 -0.55495,1.10237 -0.7777,1.47291 -1.10603,1.8399 -0.28954,0.32362 -2.26767,2.83417 -2.91974,3.70559 -0.17688,0.23638 -0.39029,0.50051 -0.47424,0.58695 -0.084,0.0864 -0.28064,0.34238 -0.43708,0.56874 -0.15645,0.22637 -0.31661,0.43803 -0.35592,0.47037 -0.0393,0.0323 -0.5769,0.79963 -1.19463,1.7051 -2.55174,3.74027 -3.66381,5.90969 -6.25397,12.20023 -0.18717,0.45455 -0.54635,0.60487 -0.54635,0.22864 0,-0.11679 0.18521,-0.67165 0.41157,-1.23302 0.22637,-0.56138 0.41158,-1.12205 0.41158,-1.24593 0,-0.31632 -0.94243,-1.53168 -1.51489,-1.95363 -0.26325,-0.19403 -0.47988,-0.39246 -0.48141,-0.44097 -0.002,-0.0485 -0.0594,-0.0882 -0.12858,-0.0882 -0.0692,0 -0.34701,-0.15032 -0.61736,-0.33404 -0.45723,-0.3107 -2.27174,-1.22147 -3.88993,-1.9525 -0.38156,-0.17237 -0.93719,-0.47769 -1.23472,-0.67849 -0.51675,-0.34874 -2.71108,-2.05807 -2.83404,-2.20765 -0.0323,-0.0393 -0.244,-0.19872 -0.47037,-0.35418 -0.22637,-0.15545 -0.43803,-0.31617 -0.47037,-0.35715 -0.0323,-0.041 -0.3763,-0.24859 -0.76435,-0.46136 -0.53172,-0.29154 -0.85925,-0.38956 -1.32935,-0.39784 -0.56761,-0.01 -0.65763,0.0258 -0.99954,0.3969 -0.20666,0.22433 -0.43481,0.54017 -0.507,0.70186 -0.26065,0.5838 -0.37329,0.89011 -0.49728,1.35232 -0.12522,0.4668 -0.16879,0.69526 -0.37005,1.94027 -0.23804,1.47249 -0.55449,2.58982 -1.03671,3.66041 -0.64766,1.43791 -1.42945,3.30042 -1.6624,3.96048 -0.24787,0.70233 -0.25187,0.76647 -0.0753,1.20771 0.24362,0.60885 0.23518,0.90295 -0.0407,1.41764 -0.16902,0.31534 -0.19309,0.45781 -0.0941,0.55682 0.22942,0.22942 0.39728,0.14856 0.72752,-0.35046 0.45419,-0.68633 0.601,-0.47503 0.41051,0.59086 -0.082,0.45908 -0.10986,0.87401 -0.0618,0.92206 0.11043,0.11042 0.40834,-0.28999 0.50341,-0.67663 0.0894,-0.36342 0.37922,-0.82315 0.51899,-0.82315 0.13826,0 0.12746,0.75554 -0.0199,1.39481 -0.0877,0.38054 -0.0811,0.55766 0.0259,0.68649 0.1708,0.20581 0.26011,0.0363 0.55868,-1.06009 0.32992,-1.21159 0.50259,-0.7127 0.35312,1.02026 -0.0387,0.44832 -0.006,0.59988 0.15332,0.70295 0.27744,0.17993 0.553,-0.19299 0.55799,-0.75513 0.005,-0.60301 0.25238,-1.7541 0.37644,-1.7541 0.21457,0 0.24989,0.41393 0.11887,1.39317 -0.11463,0.85672 -0.10833,1.04646 0.0424,1.27647 0.3845,0.58682 1.01887,0.12567 1.29811,-0.94366 0.0938,-0.35936 0.25182,-1.17253 0.35106,-1.80704 0.52394,-3.34993 0.69478,-4.03808 1.37387,-5.53399 0.0807,-0.17786 0.17334,-0.34983 0.20578,-0.38217 0.0324,-0.0323 0.13084,-0.18628 0.21866,-0.3421 0.14785,-0.26231 0.13043,-0.31066 -0.23518,-0.65271 -0.21718,-0.20318 -0.65825,-0.54953 -0.98017,-0.76968 -1.19604,-0.81794 -1.47144,-1.09541 -1.39132,-1.40179 0.0351,-0.13415 0.12375,-0.24297 0.19706,-0.24182 0.15545,0.002 1.8398,1.19824 2.50126,1.77579 0.83965,0.73314 2.00294,1.92097 2.55613,2.61009 0.5721,0.71265 2.19023,3.07758 2.19023,3.20105 0,0.039 0.15875,0.30166 0.35278,0.58367 0.19403,0.28201 0.35278,0.54369 0.35278,0.5815 0,0.14599 1.81026,2.78945 2.26055,3.30101 0.69167,0.78578 1.75699,1.4695 2.82096,1.81046 0.71797,0.23009 1.77855,-0.14766 3.35716,-1.19573 0.66681,-0.44271 2.75711,-2.09353 3.0854,-2.43671 0.10316,-0.10783 0.98825,-0.86826 1.59174,-1.36754 0.32105,-0.26562 1.24518,-1.03103 2.05363,-1.70091 1.72995,-1.43344 4.45839,-4.12849 5.52732,-5.45968 0.41547,-0.5174 0.78473,-0.96719 0.82058,-0.99953 0.47628,-0.42966 3.98548,-5.55154 4.47148,-6.52639 0.16122,-0.32338 0.38573,-0.67355 0.49891,-0.77815 0.11318,-0.1046 0.20579,-0.22735 0.20579,-0.27279 0,-0.0454 0.15875,-0.31335 0.35277,-0.59536 0.19403,-0.28201 0.35278,-0.56935 0.35278,-0.63855 0,-0.0692 0.0529,-0.1258 0.1176,-0.1258 0.0647,0 0.11785,-0.0662 0.11817,-0.14699 3.2e-4,-0.0808 0.12386,-0.30105 0.27452,-0.48934 0.34962,-0.43694 0.59935,-0.32078 0.4959,0.23066 -0.0662,0.35301 -0.005,0.47038 0.6417,1.22126 0.39324,0.45689 0.75273,0.83071 0.79887,0.83071 0.0461,0 0.21564,0.12062 0.37667,0.26805 0.31422,0.28769 1.24638,0.86378 1.82148,1.12571 0.97689,0.44492 3.13379,1.55898 3.2338,1.67028 0.13044,0.14517 2.1304,1.04584 3.23379,1.45632 0.64676,0.2406 1.44051,0.536 1.76389,0.65643 0.32338,0.12043 0.95838,0.33478 1.41111,0.47633 0.45273,0.14155 0.92898,0.29731 1.05834,0.34612 0.12935,0.0488 0.47331,0.15374 0.76435,0.23316 0.29104,0.0794 0.635,0.18526 0.76435,0.23519 0.12935,0.0499 0.47331,0.15576 0.76435,0.23518 0.29104,0.0794 0.635,0.18526 0.76435,0.23519 0.12935,0.0499 0.47331,0.15689 0.76435,0.23768 0.97655,0.27108 1.35089,0.38233 1.5875,0.4718 0.12936,0.0489 0.49758,0.1663 0.81828,0.26088 0.68397,0.2017 0.89509,0.44739 0.68017,0.79153 -0.0804,0.12869 -0.14613,0.32996 -0.14613,0.44726 0,0.11729 -0.0594,0.2727 -0.13209,0.34534 -0.17317,0.17317 -0.19342,2.5135 -0.0249,2.87555 0.0699,0.15026 0.25063,0.53778 0.40152,0.86116 0.29594,0.63425 1.92443,2.34071 2.52477,2.64565 0.19078,0.0969 0.37334,0.20513 0.40568,0.2405 0.12595,0.13773 1.49734,0.7772 1.99907,0.93215 0.29105,0.0899 0.59081,0.20954 0.66615,0.26592 0.21254,0.15904 0.26322,-0.86544 0.30966,-6.25968 0.0403,-4.68237 -0.002,-5.92004 -0.23473,-6.82037 -0.23284,-0.90189 0.12198,-1.10169 0.40688,-0.22911 0.14342,0.43927 0.16406,1.61595 0.12878,7.34346 -0.0564,9.15172 -0.0371,11.12399 0.11932,12.20874 0.073,0.50592 0.13265,2.2884 0.13265,3.96107 0,3.0824 0.10444,4.11607 0.5152,5.09918 0.15429,0.36927 0.21331,0.40231 0.85421,0.47825 0.61594,0.073 1.6292,0.35666 2.36415,0.66187 0.14552,0.0604 0.41011,0.16897 0.58797,0.24119 0.17785,0.0722 0.41526,0.17805 0.52757,0.23518 0.1123,0.0571 0.30762,0.10388 0.43403,0.10388 0.12641,0 0.25893,0.0471 0.29449,0.1046 0.0356,0.0575 0.26357,0.13832 0.5067,0.17953 0.24314,0.0412 0.73311,0.12842 1.08883,0.1938 2.35156,0.43217 4.6817,0.56772 11.22353,0.65293 l 5.4027,0.0704 0.8885,0.53538 c 1.54781,0.93265 1.92337,1.22175 2.92653,2.25284 1.10595,1.13672 1.10053,1.1148 0.66419,2.68803 -0.11274,0.40648 -0.17134,0.77269 -0.13022,0.81381 0.27372,0.27372 1.48495,-1.83305 1.48495,-2.58287 0,-0.31339 -0.11692,-0.5045 -0.59558,-0.97348 -0.89974,-0.88156 -1.91402,-2.24956 -1.83008,-2.4683 0.10843,-0.28258 0.2883,-0.12868 1.58087,1.35272 1.24666,1.42878 1.59296,2.07118 1.33725,2.48063 -0.0768,0.12302 -0.13968,0.35228 -0.13968,0.50945 0,0.15718 -0.0609,0.30607 -0.13523,0.33086 -0.0744,0.0248 -0.11242,0.11351 -0.0845,0.19716 0.0303,0.0908 0.12018,0.0174 0.22324,-0.18227 0.0949,-0.18389 0.19917,-0.36081 0.23171,-0.39315 0.1984,-0.19713 0.40623,-0.79365 0.40623,-1.16593 0,-0.34456 -0.0903,-0.52503 -0.43518,-0.86994 -0.23935,-0.23935 -0.6412,-0.71263 -0.89299,-1.05174 -0.25179,-0.3391 -0.57069,-0.71736 -0.70867,-0.84057 -0.29754,-0.26568 -0.33257,-0.65793 -0.0588,-0.65793 0.21293,0 0.57549,0.3763 1.13298,1.17593 0.20291,0.29104 0.57182,0.72534 0.8198,0.96511 0.24799,0.23978 0.52797,0.58373 0.62218,0.76435 0.16398,0.31438 0.17131,0.29074 0.17158,-0.55354 3.5e-4,-1.08147 -0.1878,-1.4371 -1.13468,-2.1447 -1.0472,-0.78256 -1.3884,-1.14013 -1.23466,-1.29386 0.0969,-0.0969 0.21711,-0.0874 0.45725,0.0364 0.17917,0.0924 0.35221,0.19703 0.38455,0.23259 0.0323,0.0356 0.24401,0.19235 0.47037,0.34842 0.95976,0.66173 1.4569,1.42409 1.38951,2.13078 -0.0239,0.25033 -0.002,0.45514 0.0479,0.45514 0.1358,0 0.11065,-1.85564 -0.0263,-1.94028 -0.0647,-0.04 -0.11759,-0.17652 -0.11759,-0.30344 0,-0.62259 -1.125,-1.63684 -1.81557,-1.63684 -0.33835,0 -0.74535,-0.42593 -0.57234,-0.59894 0.19438,-0.19438 0.9374,0.002 1.54157,0.40789 0.58788,0.39474 1.07646,1.12247 1.07959,1.60804 0.001,0.16493 0.0649,0.36283 0.14186,0.43978 0.0921,0.0921 0.14233,0.63265 0.14699,1.58162 0.007,1.36382 -0.0114,1.47883 -0.33551,2.1289 -0.22674,0.45482 -0.49514,0.78815 -0.79375,0.98576 -0.24814,0.16422 -0.45117,0.3452 -0.45117,0.40219 0,0.25673 -0.56731,0.93549 -0.94074,1.12556 -0.22637,0.11521 -0.56116,0.32854 -0.74398,0.47406 -0.33323,0.26525 -0.72934,0.3362 -0.97466,0.17459 z m -33.02997,-7.96679 c 0.38805,-0.29061 0.78614,-0.59432 0.88464,-0.67492 1.22251,-1.00031 2.73658,-1.96922 3.07719,-1.96922 0.41155,0 0.24209,0.4506 -0.26717,0.7104 -0.52308,0.26686 -2.16679,1.4348 -2.83919,2.01739 -0.38265,0.33154 -0.0224,0.59455 0.46904,0.34249 0.1123,-0.0576 0.45268,-0.22319 0.75638,-0.36799 0.3037,-0.14479 0.75245,-0.44669 0.99721,-0.67089 0.24476,-0.22419 0.83215,-0.59133 1.30531,-0.81586 0.65607,-0.31133 0.8467,-0.45521 0.80307,-0.6061 -0.32459,-1.12269 -0.35162,-1.42238 -0.34389,-3.81384 0.005,-1.4067 -0.0259,-2.55764 -0.0676,-2.55764 -0.0417,0 -0.38686,0.2326 -0.76694,0.51689 -0.6841,0.51169 -1.30078,0.7146 -1.78608,0.58768 -0.27058,-0.0708 -2.56172,0.22791 -3.22148,0.41995 -0.63555,0.18499 -1.24715,0.59305 -1.06115,0.708 0.0848,0.0524 0.31281,0.04 0.50665,-0.0275 0.24893,-0.0868 0.56462,-0.0838 1.07497,0.0103 0.41323,0.0761 1.12448,0.10214 1.66141,0.0607 0.77482,-0.0598 0.96592,-0.0398 1.09371,0.11417 0.21157,0.25493 0.072,0.43207 -0.34033,0.43207 -0.21735,0 -0.5663,0.16866 -0.95041,0.45938 -0.57725,0.43691 -0.72819,0.52431 -1.48508,0.85994 -0.43669,0.19363 -1.34562,0.80087 -1.53613,1.02624 -0.2411,0.28522 -0.86231,1.65982 -0.81468,1.8027 0.0235,0.0705 0.19824,-0.0731 0.38832,-0.31921 0.73678,-0.95382 1.20751,-1.35822 2.11559,-1.8175 1.11723,-0.56506 1.52259,-0.6479 1.52259,-0.31117 0,0.17358 -0.27436,0.36723 -1.11127,0.78437 -1.09981,0.54817 -1.78579,1.1291 -2.4525,2.07694 -0.33581,0.4774 -0.2583,0.84757 0.17747,0.84757 0.21754,0 0.53916,-0.2362 1.14987,-0.84446 0.70428,-0.70145 1.09414,-0.96885 2.30211,-1.57898 0.79984,-0.40399 1.49591,-0.70878 1.54683,-0.67731 0.39943,0.24686 -0.24111,0.79366 -1.89974,1.62172 -0.48136,0.24031 -1.03699,0.55001 -1.23472,0.6882 -0.47655,0.33305 -1.24147,1.16444 -1.24147,1.34934 0,0.0917 0.16584,0.14658 0.44097,0.1458 0.33834,-9.4e-4 0.60518,-0.1242 1.14653,-0.52962 z m 18.87361,-6.05636 c 2.69103,-0.29628 3.73309,-0.50098 5.48863,-1.07819 l 1.07892,-0.35474 0.22747,-0.60543 c 0.12511,-0.33299 0.28783,-0.7944 0.3616,-1.02536 0.17424,-0.54555 0.17771,-3.88305 0.004,-4.26337 -0.0962,-0.21104 -0.0936,-0.35207 0.01,-0.54537 0.0971,-0.18149 0.10463,-0.35577 0.0247,-0.57344 -0.0632,-0.17199 -0.17773,-0.63021 -0.25458,-1.01827 -0.0769,-0.38805 -0.18437,-0.91722 -0.23892,-1.17592 -0.31963,-1.51589 -0.39841,-2.43509 -0.39557,-4.61551 0.003,-2.09123 -0.0195,-2.38151 -0.18249,-2.38335 -0.26199,-0.003 -1.41815,-0.88746 -1.79499,-1.37322 l -0.31587,-0.40718 -0.13691,0.50907 c -0.0753,0.27999 -0.18452,0.63063 -0.2427,0.77919 -0.0582,0.14856 -0.10577,0.3968 -0.10577,0.55163 0,0.15482 -0.0471,0.31059 -0.1046,0.34615 -0.0575,0.0356 -0.13368,0.23712 -0.16922,0.44791 -0.0355,0.2108 -0.13093,0.67431 -0.21198,1.03003 -0.2812,1.23405 -0.0923,3.84802 0.36108,4.99768 0.3319,0.84155 0.97719,2.87154 0.99058,3.11621 0.0127,0.23177 -0.0465,0.30129 -0.27961,0.32851 -0.16408,0.0192 -0.39961,-0.0608 -0.52917,-0.17958 -0.12841,-0.11777 -0.41868,-0.34323 -0.64505,-0.50104 -0.22636,-0.1578 -0.48386,-0.35716 -0.57221,-0.44302 -0.0883,-0.0859 -0.22064,-0.13639 -0.29398,-0.11227 -0.18411,0.0605 -0.23723,1.13259 -0.0715,1.44232 0.30054,0.56157 0.1248,0.78779 -0.88503,1.13926 -1.10246,0.3837 -4.51984,1.47837 -5.11528,1.63855 -0.47154,0.12684 -1.05256,0.29194 -1.6463,0.4678 -0.22636,0.0671 -0.57742,0.14851 -0.78012,0.18103 -0.35026,0.0562 -0.37257,0.0921 -0.44961,0.72402 -0.0446,0.36568 -0.0904,0.87439 -0.10182,1.13046 l -0.0208,0.46559 0.76435,0.31926 c 1.04542,0.43667 1.66104,0.69077 1.94028,0.80085 0.12935,0.051 0.36748,0.14884 0.52916,0.21744 0.16169,0.0686 0.36006,0.14183 0.44081,0.16273 0.25941,0.0671 2.17074,-0.0137 3.32216,-0.14043 z m -47.88286,-3.89424 c 1.01668,-0.24561 1.55773,-0.96348 2.08664,-2.7686 0.8837,-3.01597 1.57759,-6.84516 2.05567,-11.34403 0.13112,-1.23389 0.19125,-8.52867 0.0713,-8.64863 -0.0339,-0.0339 -0.25756,0.24838 -0.49698,0.62733 -0.63822,1.01016 -2.31088,3.50169 -2.39671,3.57002 -0.0406,0.0323 -0.20104,0.244 -0.3565,0.47037 -0.15545,0.22637 -0.3142,0.43803 -0.35277,0.47037 -0.0386,0.0323 -0.19892,0.244 -0.35632,0.47037 -0.15741,0.22637 -0.39981,0.54387 -0.53868,0.70556 -0.13887,0.16169 -0.65475,0.77722 -1.1464,1.36785 -0.49165,0.59064 -1.62694,1.78126 -2.52287,2.64584 -1.58038,1.52506 -1.62576,1.58248 -1.52132,1.92473 0.17104,0.56053 0.33183,1.24629 0.44114,1.88148 0.0556,0.32338 0.16105,0.82609 0.23422,1.11713 0.26228,1.04331 0.27277,1.17593 0.093,1.17593 -0.21932,0 -0.38976,-0.36909 -0.54302,-1.17593 -0.41437,-2.18145 -0.63033,-2.88734 -0.87726,-2.86731 -0.15357,0.0125 -1.32896,0.83279 -1.70992,1.1934 -0.0864,0.0818 -0.35008,0.29349 -0.58587,0.47037 -0.23578,0.17688 -0.66269,0.55326 -0.94868,0.83639 -0.59655,0.5906 -0.60451,0.55124 0.33909,1.67667 0.55661,0.66387 2.63888,2.77401 3.23614,3.27944 1.26148,1.06755 3.45858,2.58419 3.74362,2.58419 0.085,0 0.19385,0.0397 0.24195,0.0882 0.0481,0.0485 0.33473,0.14805 0.63696,0.22121 0.30223,0.0732 0.56577,0.13931 0.58564,0.14699 0.0199,0.008 0.28445,-0.046 0.58796,-0.11934 z m 42.59833,-0.91051 c 0.81384,-0.22086 4.06237,-1.2222 5.64594,-1.74035 1.15048,-0.37643 1.17943,-0.41536 1.18854,-1.59776 l 0.008,-1.03053 -0.51925,-0.55697 c -0.61206,-0.65652 -1.17311,-1.45513 -1.61561,-2.29969 l -0.31914,-0.60912 -0.71804,0.0406 c -1.138,0.0643 -2.54153,-0.49802 -3.30183,-1.32286 -0.55955,-0.60703 -0.55474,-0.61383 -0.74135,1.04711 -0.15599,1.38849 -0.30166,2.59286 -0.46225,3.82176 -0.19467,1.48976 -0.33887,2.77653 -0.42033,3.75086 -0.0679,0.8115 -0.058,0.86544 0.14678,0.80405 0.12074,-0.0362 0.61961,-0.17437 1.1086,-0.30707 z m -28.84204,-5.41305 c 1.15716,-0.59533 2.07042,-2.01759 2.56096,-3.98828 0.23782,-0.95541 0.28332,-1.42978 0.28396,-2.9604 7.3e-4,-1.72845 -0.23988,-3.79611 -0.58841,-5.05649 -0.0626,-0.22636 -0.11411,-0.56041 -0.11447,-0.74232 -5.9e-4,-0.29457 -0.0875,-0.36973 -0.79441,-0.68696 -2.15194,-0.96569 -5.92425,-2.91329 -6.77051,-3.49553 -0.57409,-0.39498 -1.72132,-1.59423 -2.03812,-2.13055 -0.11541,-0.19537 -0.25741,-0.33936 -0.31556,-0.31998 -0.0581,0.0194 -0.23824,0.27124 -0.40021,0.55969 -0.16198,0.28845 -0.44666,0.74565 -0.63262,1.01601 -0.4388,0.63793 -0.42925,1.3924 0.0291,2.29967 0.0567,0.1123 0.10315,0.285 0.10315,0.38377 0,0.0988 0.0478,0.27147 0.10614,0.38377 0.0584,0.11231 0.17223,0.44232 0.25301,0.73336 0.30032,1.08195 1.53826,4.72725 2.00382,5.90058 0.26489,0.66758 0.52272,1.38038 0.57295,1.58401 0.10005,0.40554 -0.0327,0.76368 -0.21103,0.56952 -0.17673,-0.19237 -1.26074,-3.05583 -1.84707,-4.87911 -0.30157,-0.9378 -0.596,-1.79698 -0.65427,-1.90928 -0.0583,-0.11231 -0.10595,-0.33408 -0.10595,-0.49283 0,-0.15875 -0.0529,-0.32134 -0.1176,-0.36132 -0.0647,-0.04 -0.11759,-0.20184 -0.11759,-0.35971 0,-0.15788 -0.047,-0.28705 -0.10443,-0.28705 -0.0574,0 -0.13741,1.25678 -0.17771,2.79283 -0.0403,1.53605 -0.12559,3.04821 -0.18955,3.36036 -0.15155,0.73973 -0.14857,1.49033 0.006,1.49033 0.0672,0 1.05939,0.94133 2.20487,2.09185 2.04001,2.04899 2.45786,2.4278 3.11161,2.8209 0.17786,0.10694 0.32338,0.23595 0.32338,0.28668 0,0.0507 0.0465,0.0922 0.10334,0.0922 0.14353,0 1.41359,0.77304 1.71058,1.04117 0.60196,0.54345 1.11622,0.61833 1.80673,0.26307 z m 43.24269,-8.36981 c 2.43604,-1.17488 4.25556,-3.38047 5.52124,-6.69276 0.23478,-0.61442 0.53006,-1.3288 0.65619,-1.5875 0.35351,-0.7251 0.25307,-1.85694 -0.31664,-3.56808 -0.35329,-1.06113 -1.3373,-2.84072 -1.57074,-2.84072 -0.0555,0 -0.22927,0.27781 -0.38609,0.61736 -0.34052,0.7373 -0.72218,1.13653 -1.40276,1.46731 -0.99151,0.48191 -1.49329,0.58406 -3.62103,0.73717 -2.04504,0.14716 -3.71088,0.40894 -3.83013,0.6019 -0.0354,0.0572 -0.15881,0.10404 -0.27432,0.10404 -0.27418,0 -0.5483,0.32284 -0.64901,0.76435 -0.0443,0.19403 -0.13394,0.5909 -0.19929,0.88194 -0.41934,1.86762 -0.35576,4.87597 0.12799,6.05602 0.82279,2.00712 1.91353,3.31743 3.14476,3.77784 0.70766,0.26462 1.86276,0.13307 2.79983,-0.31887 z m -2.16819,-1.24272 c -0.15094,-0.10572 -0.51717,-0.28436 -0.81386,-0.39698 -0.62302,-0.2365 -0.77506,-0.46695 -0.30806,-0.46695 h 0.31876 l -0.49281,-0.53464 c -0.32954,-0.3575 -0.4806,-0.62048 -0.45595,-0.79375 0.0337,-0.23675 0.11219,-0.26213 0.90991,-0.29408 0.65509,-0.0262 0.91103,-0.0849 1.02519,-0.23518 0.24042,-0.31639 0.1869,-0.46953 -0.19326,-0.55302 -0.64947,-0.14265 -0.57313,-1.06614 0.11158,-1.34976 0.20154,-0.0835 0.39245,-0.12578 0.42424,-0.094 0.11093,0.11093 -0.0888,0.43584 -0.31139,0.50648 -0.1241,0.0394 -0.22432,0.17834 -0.22432,0.31104 0,0.16876 0.0542,0.21902 0.18305,0.16959 0.11136,-0.0427 0.29429,0.0498 0.46705,0.23619 0.20945,0.226 0.35703,0.2881 0.56228,0.23658 0.16226,-0.0407 0.37203,10e-4 0.5031,0.10027 0.41141,0.31134 0.55602,0.22435 0.48666,-0.29277 -0.0477,-0.35549 -0.0227,-0.47037 0.10211,-0.47037 0.15949,0 0.21943,0.27389 0.16726,0.76435 -0.0453,0.42639 -0.2528,0.558 -0.78497,0.49802 -0.46084,-0.0519 -0.50673,-0.0316 -0.6125,0.27183 -0.0902,0.25887 -0.073,0.36564 0.082,0.50665 0.10797,0.0983 0.30027,0.37281 0.42735,0.61011 0.22132,0.41332 0.22218,0.43795 0.0203,0.58556 -0.11591,0.0848 -0.47123,0.18993 -0.78961,0.23371 -0.55746,0.0767 -0.73925,0.21433 -0.43187,0.32703 0.10262,0.0376 0.11004,0.0935 0.0246,0.1851 -0.0894,0.0958 -0.19637,0.0794 -0.39682,-0.061 z m 0.63679,-1.05745 c -0.2587,-0.0998 -0.69065,-0.2882 -0.95989,-0.41873 -0.71429,-0.34631 -0.88106,-0.20166 -0.26781,0.23229 0.4181,0.29585 0.63931,0.36931 1.11011,0.36866 l 0.58796,-8.2e-4 z m 0.41157,-0.38778 c 0,-0.16001 -0.48627,-0.47704 -0.73172,-0.47704 -0.11496,0 -0.20902,-0.0529 -0.20902,-0.11759 0,-0.0647 -0.22205,-0.11759 -0.49346,-0.11759 h -0.49345 l 0.64045,0.30244 c 0.35224,0.16634 0.71982,0.34844 0.81683,0.40466 0.23839,0.13815 0.47037,0.14067 0.47037,0.005 z m -0.25329,-1.18618 c 0.0355,-0.24371 0.0169,-0.25937 -0.14699,-0.12338 -0.2219,0.18416 -0.25226,0.52061 -0.0407,0.45094 0.0808,-0.0266 0.1653,-0.17403 0.18768,-0.32756 z m 3.86148,-2.04826 c -0.55429,-0.19769 -0.83881,-0.44776 -1.02738,-0.90301 -0.20723,-0.50029 0.0196,-0.69083 0.3043,-0.25558 0.44375,0.67853 0.77419,0.85859 1.57568,0.85859 0.67509,0 0.77413,0.14997 0.22537,0.34127 -0.45808,0.15969 -0.52128,0.15727 -1.07797,-0.0413 z m 1.4483,-0.66839 c 0,-0.38612 -1.56171,-1.16032 -2.34061,-1.16032 -0.16021,0 -0.2468,-0.0585 -0.21769,-0.14699 0.0629,-0.19114 0.99605,-0.25774 1.34602,-0.096 0.14934,0.069 0.41706,0.18907 0.59491,0.26683 0.17786,0.0778 0.4689,0.27286 0.64676,0.43357 0.3492,0.31553 0.44072,0.83616 0.14699,0.83616 -0.097,0 -0.17638,-0.0599 -0.17638,-0.1332 z m -6.6439,-1.54941 c -0.38475,-0.22923 -0.88203,-0.77169 -0.88203,-0.96215 0,-0.23961 0.15709,-0.22348 0.39614,0.0407 0.38896,0.42979 1.19313,0.75082 1.76655,0.70521 0.49714,-0.0395 0.76977,0.10314 0.57303,0.29988 -0.12678,0.12678 -1.61308,0.0597 -1.85369,-0.0836 z m 1.41103,-1.14666 c -0.56727,-0.41071 -1.10565,-0.57938 -1.85209,-0.58026 -0.62073,-7.3e-4 -0.73041,-0.17336 -0.23518,-0.37018 0.79022,-0.31406 2.73796,0.40818 2.8304,1.04954 0.0503,0.34865 -0.1642,0.32006 -0.74313,-0.0991 z m -105.85782,8.58293 c 0.14282,-0.13396 0.51275,-0.43719 0.82207,-0.67385 0.30932,-0.23666 0.77932,-0.76322 1.04443,-1.17013 0.26512,-0.40692 0.63787,-0.87098 0.82834,-1.03125 0.42944,-0.36135 0.27524,-0.37315 -0.39559,-0.0303 -0.50124,0.25621 -3.03912,2.67877 -3.03912,2.90104 0,0.0623 0.0926,0.13738 0.20579,0.16695 0.11318,0.0296 0.22123,0.0599 0.2401,0.0674 0.0189,0.008 0.15117,-0.096 0.29398,-0.22992 z m 35.17683,-1.66732 c 0.8013,-1.87297 2.257,-4.62714 3.37693,-6.3891 l 0.45464,-0.71527 -0.59516,-2.34214 c -0.32734,-1.28818 -0.64801,-2.60673 -0.71259,-2.93011 -0.2822,-1.41295 -0.34889,-1.81422 -0.43978,-2.64583 -0.053,-0.48507 -0.19068,-1.08038 -0.30594,-1.32292 -0.18066,-0.38015 -0.26391,-0.44097 -0.60364,-0.44097 -0.4599,0 -1.04634,0.4617 -1.58986,1.25167 -0.56696,0.82406 -0.76173,1.505 -1.05465,3.68722 -0.0651,0.48507 -0.16882,1.17299 -0.23046,1.5287 -0.10613,0.61239 -0.19718,1.1661 -0.4834,2.93982 -0.0678,0.42039 -0.14835,1.28007 -0.17892,1.91039 -0.0498,1.02663 -0.0283,1.19453 0.206,1.61145 0.52985,0.94274 0.57717,0.79505 0.57717,-1.80129 0,-1.54761 0.0629,-2.79797 0.17883,-3.55348 0.0984,-0.64113 0.21139,-1.39058 0.25117,-1.66545 0.0574,-0.39649 0.12074,-0.49977 0.30657,-0.49977 0.21057,0 0.2256,0.0505 0.14879,0.49977 -0.047,0.27487 -0.16263,0.94956 -0.25698,1.49931 -0.27043,1.57583 -0.3347,5.69757 -0.10999,7.05422 0.19803,1.19558 0.64177,2.82355 0.76963,2.82355 0.0428,0 0.17404,-0.22489 0.29164,-0.49977 z m -35.11688,-1.59425 c 0.4176,-0.46519 0.71275,-0.84553 0.65589,-0.8452 -0.20883,10e-4 -1.26832,0.89194 -1.46792,1.23413 -0.49307,0.84528 -0.14726,0.67965 0.81203,-0.38893 z m 3.63685,-0.0937 c -0.0391,-0.0391 -0.1405,-0.0433 -0.22538,-0.009 -0.0938,0.0375 -0.0659,0.0654 0.071,0.071 0.12396,0.005 0.19342,-0.0227 0.15434,-0.0618 z m 81.73463,-14.86161 0.74028,-0.002 -0.0753,-0.44098 c -0.0782,-0.45789 -0.0904,-0.50159 -0.59842,-2.14606 -0.60189,-1.94812 -1.79584,-4.69323 -2.66887,-6.13621 -0.22234,-0.36748 -0.47611,-0.8305 -0.56394,-1.02893 -0.0878,-0.19843 -0.1997,-0.36079 -0.24859,-0.36079 -0.0489,0 -0.0889,-0.10271 -0.0889,-0.22824 0,-0.12554 -0.0529,-0.26095 -0.11759,-0.30092 -0.0647,-0.04 -0.11759,-0.17908 -0.11759,-0.30914 0,-0.263 -0.52956,-1.07924 -0.95925,-1.47854 -0.74647,-0.69367 -2.05296,-0.94373 -5.44955,-1.04302 -3.89875,-0.11398 -7.67463,0.22766 -11.1125,1.00544 -0.31544,0.0714 -0.34486,0.0963 -0.12594,0.10664 0.77299,0.0366 2.19758,0.70523 2.93778,1.37885 0.31669,0.28821 0.80578,0.82652 1.08685,1.19624 0.28107,0.36973 0.56498,0.72996 0.63092,0.80051 0.15372,0.1645 1.08938,1.61632 2.153,3.3407 0.45876,0.74378 0.98171,1.52773 1.1621,1.74212 l 0.32798,0.3898 1.41111,-0.37515 c 1.74476,-0.46386 2.0904,-0.51744 2.36786,-0.36706 0.22885,0.12404 0.30087,0.25001 1.10391,1.93089 0.45269,0.94756 0.52433,1.03551 0.92022,1.12991 0.82141,0.19587 1.6173,0.36603 3.6043,0.77062 1.09949,0.22387 2.10491,0.43215 2.23426,0.46284 0.12936,0.0307 0.34102,0.0351 0.47037,0.01 0.12936,-0.0253 0.56832,-0.0468 0.97547,-0.0477 z m -8.47497,-1.6185 c -0.1827,-0.34834 -0.55559,-1.22049 -0.55559,-1.29946 0,-0.22642 -0.50374,-0.61142 -0.79999,-0.61142 -0.17625,0 -0.61001,0.10583 -0.9639,0.23518 -0.35389,0.12936 -0.76012,0.23519 -0.90274,0.23519 -0.14262,0 -0.29226,0.0533 -0.33254,0.11849 -0.0934,0.15122 0.22009,0.46947 0.46253,0.46947 0.10163,0 0.18479,0.0529 0.18479,0.11759 0,0.0647 0.0952,0.1176 0.21167,0.1176 0.11641,0 0.26193,0.0437 0.32338,0.0971 0.0614,0.0534 0.34983,0.16489 0.64088,0.24768 0.29104,0.0828 0.635,0.19424 0.76435,0.24767 0.29834,0.12323 1.0286,0.14201 0.96716,0.0249 z m -15.87533,-4.62984 c 0.19781,-0.19781 0.004,-0.70252 -0.67285,-1.74956 -0.22985,-0.35572 -0.47724,-0.77905 -0.54974,-0.94074 -0.60607,-1.3515 -0.82307,-1.99087 -0.76813,-2.26323 0.0634,-0.31416 0.49472,-0.035 0.49472,0.32015 0,0.1556 0.0529,0.31561 0.11759,0.35558 0.0647,0.04 0.1176,0.15602 0.1176,0.25788 0,0.10187 0.38003,0.69405 0.84452,1.31598 0.46449,0.62192 0.97499,1.30943 1.13445,1.5278 l 0.28991,0.39702 0.15491,-0.27943 c 0.0852,-0.15369 0.15678,-0.40404 0.15908,-0.55634 0.006,-0.37561 -0.47357,-1.30184 -1.09267,-2.11191 -0.56701,-0.7419 -1.13743,-1.68054 -1.13743,-1.87167 0,-0.17347 0.39769,-0.30849 0.44964,-0.15264 0.0234,0.0702 0.37414,0.58943 0.77941,1.15385 0.40528,0.56441 0.88251,1.31697 1.06051,1.67237 0.31295,0.62481 1.00119,1.41052 1.23555,1.41052 0.24267,0 -0.0233,-0.85359 -0.54965,-1.76389 -1.38967,-2.40348 -2.08317,-3.21905 -3.06061,-3.59934 -0.67907,-0.2642 -1.64783,-0.17701 -2.20207,0.1982 -0.76049,0.51483 -1.11529,1.72759 -0.72452,2.47652 0.089,0.17056 0.24912,0.573 0.35584,0.8943 0.2062,0.62079 0.67167,1.3973 1.17502,1.96019 0.36714,0.41055 0.46482,0.36808 0.25244,-0.10976 -0.0856,-0.19261 -0.23718,-0.53541 -0.3368,-0.76178 -0.3945,-0.89634 -0.77321,-2.20128 -0.70953,-2.44482 0.10154,-0.38829 0.23024,-0.22204 0.50498,0.65233 0.13704,0.43612 0.29356,0.89879 0.34782,1.02814 0.19591,0.467 0.65579,1.41241 0.71502,1.46991 0.0333,0.0323 0.13895,0.21063 0.23476,0.39621 0.19083,0.36966 1.00365,1.25008 1.1541,1.25008 0.0518,0 0.15357,-0.0594 0.22613,-0.13192 z m -22.53173,-39.2097 c 0.36596,-0.18925 0.40241,-0.43607 0.0738,-0.49982 -0.10304,-0.02 -0.41287,0.0726 -0.68851,0.20579 -0.27563,0.13317 -0.59392,0.24213 -0.70731,0.24213 -0.11339,0 -0.23886,0.0529 -0.27883,0.11759 -0.11906,0.19265 1.20645,0.13825 1.60084,-0.0657 z m 0.95448,-1.14133 c 0.0562,-0.33861 0.13194,-1.18884 0.16843,-1.8894 0.0575,-1.10463 0.0319,-1.38287 -0.19306,-2.09567 -0.21237,-0.6729 -0.29475,-0.80687 -0.45431,-0.73886 -0.1072,0.0457 -0.36797,0.11562 -0.5795,0.1554 l -0.38459,0.0723 0.47419,0.57306 c 0.2608,0.31519 0.49852,0.6856 0.52827,0.82315 0.15055,0.69609 0.10289,1.04241 -0.18614,1.35265 -0.30833,0.33095 -0.22486,0.95641 0.19408,1.45428 0.21811,0.25921 0.26435,0.41691 0.20843,0.71082 -0.0395,0.20774 -0.0282,0.33726 0.0251,0.28781 0.0533,-0.0494 0.14292,-0.36694 0.19906,-0.70555 z m -1.52923,0.38432 c 0.32547,-0.19844 0.34611,-0.23482 0.13346,-0.23519 -0.13835,-2.4e-4 -0.37648,0.10363 -0.52916,0.23083 -0.36263,0.3021 -0.0974,0.30502 0.3957,0.004 z m 0.79579,-5.61383 c 0.46431,-0.20116 0.47117,-0.21314 0.47117,-0.82315 0,-0.76146 -0.19956,-0.81262 -0.84768,-0.21733 -0.49065,0.45065 -0.68981,0.97479 -0.43235,1.13783 0.22319,0.14135 0.27121,0.13557 0.80886,-0.0974 z m 75.59873,80.40228 c -0.039,-0.61442 -0.0378,-1.46109 0.003,-1.88148 l 0.0734,-0.76436 0.0703,1.05834 c 0.0387,0.58208 0.0375,1.42875 -0.003,1.88148 l -0.0729,0.82315 z m -1.86737,-1.41805 c 0,-0.13317 0.0529,-0.20942 0.11759,-0.16945 0.0647,0.04 0.11759,0.14893 0.11759,0.24212 0,0.0932 -0.0529,0.16945 -0.11759,0.16945 -0.0647,0 -0.11759,-0.10895 -0.11759,-0.24212 z m -0.23519,-0.63288 c 0,-0.15788 -0.0529,-0.31975 -0.11759,-0.35972 -0.0647,-0.04 -0.11759,-0.19872 -0.11759,-0.35278 0,-0.15405 -0.0529,-0.3128 -0.1176,-0.35278 -0.0647,-0.04 -0.11759,-0.20532 -0.11759,-0.36744 0,-0.16213 -0.0456,-0.3839 -0.10143,-0.49283 -0.0558,-0.10893 -0.13316,-0.55525 -0.17196,-0.99181 -0.0553,-0.6217 -0.0362,-0.79375 0.0877,-0.79375 0.10813,0 0.18086,0.23279 0.22959,0.73495 0.11777,1.21346 0.21034,1.73241 0.32127,1.80097 0.0578,0.0358 0.10517,0.24708 0.10517,0.46963 0,0.22255 0.0529,0.40464 0.11759,0.40464 0.0647,0 0.1176,0.13229 0.1176,0.29398 0,0.16169 -0.0529,0.29398 -0.1176,0.29398 -0.0647,0 -0.11759,-0.12917 -0.11759,-0.28704 z m 2.07441,-1.97195 c -0.12083,-0.45109 -0.0836,-2.75851 0.0542,-3.35437 0.40175,-1.73791 0.57915,-2.40362 0.70509,-2.64593 0.0584,-0.1123 0.10614,-0.30015 0.10614,-0.41745 0,-0.11729 0.0421,-0.26353 0.0936,-0.32497 0.0515,-0.0615 0.16081,-0.32338 0.24296,-0.58209 0.0822,-0.2587 0.19786,-0.5762 0.25713,-0.70555 0.4907,-1.07101 1.17022,-2.84723 1.17022,-3.05892 0,-0.14342 0.0974,-0.38695 0.21633,-0.5412 0.35212,-0.45647 0.89872,-1.53468 1.06617,-2.10312 0.0857,-0.29105 0.19909,-0.66146 0.2519,-0.82315 0.0528,-0.16169 0.13056,-0.70409 0.17278,-1.20533 0.0585,-0.69454 0.11844,-0.91134 0.25195,-0.91134 0.14841,0 0.16278,0.16624 0.094,1.08773 -0.0447,0.59825 -0.12801,1.138 -0.18521,1.19945 -0.0572,0.0614 -0.10401,0.23093 -0.10401,0.37664 0,0.14571 -0.0595,0.41294 -0.13223,0.59384 -0.20893,0.51967 -0.3618,0.89779 -0.46578,1.15206 -0.0529,0.12935 -0.35945,0.82059 -0.68124,1.53608 -0.3218,0.7155 -0.83186,1.93258 -1.13348,2.70463 -0.30162,0.77206 -0.59302,1.50957 -0.64756,1.63892 -0.0545,0.12935 -0.16291,0.44685 -0.24082,0.70556 -0.0779,0.2587 -0.18326,0.5762 -0.2341,0.70555 -0.22897,0.58254 -0.44483,1.95703 -0.5798,3.69191 -0.0624,0.80171 -0.13424,1.47849 -0.15972,1.50397 -0.0255,0.0255 -0.0788,-0.0748 -0.11845,-0.22292 z m -17.31698,-8.79472 c 0,-0.74377 0.0191,-1.04804 0.0424,-0.67615 0.0233,0.37188 0.0233,0.98043 0,1.35231 -0.0233,0.37189 -0.0424,0.0676 -0.0424,-0.67616 z m -45.997,-26.4062 c -0.39017,-0.27329 -0.3735,-1.14916 0.0269,-1.41149 0.28821,-0.18884 0.77011,-0.14268 0.77011,0.0738 0,0.0603 0.0794,0.10966 0.17639,0.10966 0.24302,0 0.22924,0.576 -0.0226,0.94398 -0.35322,0.51614 -0.53986,0.57191 -0.95079,0.28408 z m -14.26026,-10.81835 c -0.21036,-0.25346 -0.016,-0.61497 0.40547,-0.75406 0.55706,-0.18385 1.23371,-0.80293 2.12456,-1.94379 0.76012,-0.97344 1.4139,-1.52781 2.12027,-1.79788 0.19402,-0.0742 1.09361,-0.19094 1.99907,-0.25945 1.50856,-0.11416 1.69368,-0.15384 2.21267,-0.47428 0.31151,-0.19233 0.58746,-0.34969 0.61323,-0.34969 0.0258,0 0.10099,0.10117 0.16717,0.22483 0.0986,0.18429 0.0483,0.29689 -0.2793,0.62446 -0.56004,0.56003 -1.96796,0.9146 -3.63173,0.9146 -0.42529,0 -0.80596,0.0529 -0.84593,0.11759 -0.04,0.0647 -0.17868,0.11759 -0.30825,0.11759 -0.24916,0 -1.36542,1.06616 -2.43846,2.32899 -0.89201,1.04979 -1.84378,1.60654 -2.13877,1.25109 z m -4.43484,-1.57941 c -0.1945,-0.31144 -0.18386,-0.59489 0.0391,-1.04186 0.24201,-0.48513 0.76599,-0.52358 0.97205,-0.0713 0.1803,0.39572 0.17222,0.58376 -0.0429,0.99984 -0.21728,0.42017 -0.73852,0.48119 -0.96823,0.11335 z m 13.04801,-6.25752 c -0.0776,-0.0776 -0.14112,-0.36509 -0.14112,-0.63883 0,-0.525 0.21884,-0.72031 0.6302,-0.56246 0.39134,0.15017 0.19717,1.3424 -0.21862,1.3424 -0.0711,0 -0.19285,-0.0635 -0.27046,-0.14111 z m -20.72111,-19.05588 c -0.12816,-0.2102 -0.23321,-0.47166 -0.23345,-0.58102 -2.5e-4,-0.10937 -0.0475,-0.22794 -0.10504,-0.2635 -0.13532,-0.0836 -0.25168,-0.73078 -0.32588,-1.81248 -0.0618,-0.90099 0.14345,-1.93779 0.36829,-1.86025 0.11916,0.0411 0.11821,0.16156 -0.0121,1.53328 -0.0712,0.74955 0.0644,1.39694 0.50512,2.41064 0.15111,0.3476 0.27475,0.70478 0.27475,0.79375 0,0.28265 -0.23065,0.17486 -0.47166,-0.22042 z m 8.85013,-1.69989 c -0.42986,-0.0828 -0.30202,-0.26978 0.18445,-0.26978 0.64252,0 1.57252,-0.30248 1.96383,-0.63873 0.31465,-0.27037 0.52695,-0.29924 0.52695,-0.0716 0,0.0544 -0.18326,0.28215 -0.40724,0.50614 -0.49964,0.49964 -1.28393,0.66356 -2.26799,0.47402 z m -0.86607,-0.71076 c 0.22871,-0.41897 1.1536,-1.30943 1.43286,-1.37952 0.15869,-0.0398 0.68478,-0.0566 1.16909,-0.0373 0.68872,0.0275 0.88056,0.0735 0.88056,0.21151 0,0.14369 -0.15724,0.16996 -0.84823,0.14173 -0.98293,-0.0401 -1.28104,0.0794 -1.96846,0.78932 -0.48256,0.49836 -0.8768,0.66076 -0.66582,0.27427 z m -11.36567,-1.08773 c 0,-0.22636 0.0242,-0.31897 0.0538,-0.20579 0.0296,0.11319 0.0296,0.2984 0,0.41158 -0.0296,0.11318 -0.0538,0.0206 -0.0538,-0.20579 z m 9.16772,-4.85069 c -0.2826,-0.63218 -0.79807,-1.14653 -1.14901,-1.14653 -0.14905,0 -0.30371,-0.0529 -0.34368,-0.11759 -0.04,-0.0647 -0.4364,-0.1176 -0.88096,-0.1176 -0.7038,0 -0.81789,-0.0303 -0.88259,-0.23413 -0.13779,-0.43412 0.033,-0.50736 0.99592,-0.42705 0.91657,0.0764 1.79761,0.39853 2.09501,0.7659 0.2531,0.31265 0.6129,1.18882 0.6129,1.49253 0,0.43526 -0.19965,0.33912 -0.44759,-0.21553 z"
       id="path40" /></g></svg>
