<?xml version="1.0" encoding="UTF-8" standalone="no"?>
<!-- Created with Inkscape (http://www.inkscape.org/) -->

<svg
   width="92.201973mm"
   height="66.434837mm"
   viewBox="0 0 92.201983 66.434838"
   version="1.1"
   id="svg1"
   xml:space="preserve"
   xmlns="http://www.w3.org/2000/svg"
   xmlns:svg="http://www.w3.org/2000/svg"><defs
     id="defs1" /><g
     id="layer1"
     transform="translate(514.31118,-1538.7464)"><path
       style="fill:#4d4d4d;stroke-width:2.36335"
       d="m -490.00195,1604.5613 c 1.63391,-0.794 3.23385,-0.794 3.23385,0 0,0.3657 -0.99221,0.6439 -2.2049,0.6183 -1.76874,-0.038 -1.97228,-0.1608 -1.02895,-0.6183 z m -16.02115,-2.7223 c -2.56173,-0.8585 -7.22632,-4.0033 -8.00247,-5.395 -0.89017,-1.596 0.4391,-11.2377 2.07681,-15.0641 2.75261,-6.431 7.20926,-10.0352 13.71518,-11.0914 1.61693,-0.2626 3.3961,-0.7449 3.95373,-1.0717 0.55761,-0.3267 3.03183,-5.2369 5.49823,-10.9109 5.03522,-11.5843 4.67886,-11.3043 9.57477,-7.5206 2.77833,2.1472 3.48821,2.1379 2.46124,-0.033 -0.90453,-1.9115 -3.05841,-3.3939 -5.1852,-3.5683 -2.43556,-0.1986 -1.74279,-1.1436 0.83939,-1.1436 3.07056,0 5.23331,2.0793 6.40784,6.1606 1.07438,3.7337 2.34107,5.8095 3.5448,5.8095 0.78828,0 3.76055,-6.708 3.79249,-8.5592 0.0111,-0.5959 0.40623,-1.6628 0.87988,-2.3711 0.70372,-1.0521 1.72992,-1.3238 5.61241,-1.4849 4.56912,-0.191 4.84957,-0.2951 7.31695,-2.7514 3.83215,-3.8154 9.21347,-5.2392 11.71429,-3.0998 0.62772,0.5368 2.01681,0.9762 3.08685,0.9762 2.07237,0 4.29743,1.9109 4.29743,3.6907 0,1.5947 -1.83543,5.2301 -2.26428,4.4846 -0.20978,-0.3647 -1.17538,-0.5514 -2.14553,-0.4144 -0.97015,0.1357 -2.29308,0.2513 -2.93987,0.2518 -2.13822,0 -12.20559,-1.2864 -13.12198,-1.6842 -1.64325,-0.7131 -5.98713,0.3828 -5.98713,1.5105 0,0.8408 -0.25127,0.7769 -1.32296,-0.3368 -1.81583,-1.8868 -3.69199,-1.0297 -4.2064,1.9218 -0.21223,1.2175 -1.2518,4.2072 -2.31022,6.6437 l -1.92437,4.4301 -2.87047,-3.2664 c -1.57874,-1.7964 -3.06719,-3.2662 -3.30766,-3.2662 -0.24045,0 -0.81441,-0.4268 -1.27544,-0.948 -0.46105,-0.5216 -1.79643,-1.401 -2.96752,-1.9545 -2.06657,-0.9767 -2.16375,-0.9566 -3.30177,0.6797 -0.6449,0.9274 -2.80167,5.3 -4.79284,9.7173 -2.561,5.6813 -4.54463,9.102 -6.77945,11.6908 -1.73754,2.013 -3.15916,3.9262 -3.15916,4.2522 0,0.8267 2.36746,-0.1005 4.04811,-1.5839 0.77121,-0.6812 1.78959,-1.2386 2.26302,-1.2386 0.47345,0 1.69456,-0.4313 2.71358,-0.9584 1.01904,-0.5273 3.00176,-1.2944 4.40605,-1.7048 2.38989,-0.6983 2.52625,-0.8604 2.13108,-2.5328 -0.23218,-0.9825 -0.43305,-2.1605 -0.44634,-2.6177 -0.0376,-1.2884 -1.07986,-0.98 -1.40235,0.4147 -0.29568,1.2788 -3.5984,4.4306 -4.07634,3.89 -0.14645,-0.1659 1.32955,-2.6916 3.28006,-5.6134 1.9505,-2.9216 3.54637,-5.9774 3.54637,-6.7908 0,-1.2393 0.3214,-1.0026 1.98572,1.4636 1.09215,1.6181 2.44773,3.8106 3.01239,4.8722 0.88003,1.6543 0.71381,1.5646 -1.16413,-0.6286 -1.51463,-1.7689 -2.37922,-2.3452 -2.80139,-1.8679 -0.89599,1.0134 -1.30393,7.1508 -0.51207,7.7043 0.43892,0.3069 0.65543,4.0697 0.65543,11.3915 0,11.0369 0.17312,11.8882 2.11968,10.4244 0.98771,-0.7428 2.05068,-4.9974 2.49318,-9.9795 0.35218,-3.9649 0.53052,-4.4525 1.56712,-4.2836 0.64332,0.1055 3.43274,0.3672 6.1987,0.5833 4.14428,0.324 5.38556,0.1835 7.05568,-0.7909 1.85557,-1.0841 5.84848,-5.061 5.84848,-5.8248 0,-0.1785 -1.45522,-0.5281 -3.23386,-0.7794 -1.7786,-0.2514 -3.23383,-0.6834 -3.23383,-0.9602 0,-0.5853 3.90187,-0.4662 7.48295,0.2288 3.1665,0.6142 7.70147,-1.594 11.58216,-5.6399 3.35192,-3.4944 3.58442,-5.8713 0.89206,-9.1204 -1.72399,-2.0803 -1.92017,-2.1472 -5.14205,-1.7506 -3.79286,0.4668 -7.03194,2.3242 -10.2742,5.8915 -3.43663,3.7814 -3.90798,2.3988 -0.52243,-1.5325 3.47986,-4.0405 6.98944,-6.0628 10.55863,-6.0834 1.38802,0 4.49601,-0.4753 6.90668,-1.0385 3.86051,-0.9019 4.7247,-0.9091 7.2495,-0.06 6.15455,2.0671 8.55573,4.5181 10.6627,10.8836 1.73147,5.2311 1.48144,15.9046 -0.50586,21.5947 -1.67314,4.7905 -6.64658,13.464 -8.09792,14.1223 -0.60476,0.2744 -6.39135,0.7595 -12.85904,1.078 -23.56432,1.1604 -34.06708,2.0142 -34.49884,2.8042 -0.28928,0.5296 -0.54779,0.4031 -0.82057,-0.4009 -0.21912,-0.6457 -0.24259,-1.35 -0.0522,-1.5651 0.57072,-0.6454 -0.76223,-2.8763 -1.71863,-2.8763 -0.48874,0 -1.33933,0.906 -1.89023,2.0134 -0.55088,1.1077 -1.53078,2.1374 -2.17755,2.2888 -2.78063,0.6499 -18.3921,0.8754 -20.13695,0.2905 z m 58.99772,-55.642 c 0.35338,-0.2686 0.8041,-1.4288 1.00159,-2.5782 0.31463,-1.831 0.18245,-2.1279 -1.0672,-2.3981 -1.98594,-0.4292 -4.13131,0.9489 -3.98647,2.561 0.0818,0.9093 -0.26342,1.3486 -1.11659,1.4213 -0.67919,0.058 -1.51296,0.4197 -1.85281,0.804 -0.72053,0.8149 5.96186,0.9958 7.02148,0.191 z m 9.12429,-1.1991 c 0.73774,-0.5158 -0.0596,-2.1904 -1.24549,-2.616 -2.43678,-0.8749 -5.36532,1.2376 -4.33354,3.1257 0.34669,0.6344 4.48274,0.2564 5.57903,-0.5097 z m -34.30891,26.3515 c -0.6225,-0.8324 -1.72983,-1.3683 -2.82758,-1.3683 -1.0532,0 -1.6531,-0.2769 -1.44098,-0.665 0.19978,-0.3657 0.77957,-0.6651 1.28822,-0.6651 0.50868,0 1.85779,-0.6519 2.99803,-1.4492 1.67354,-1.1697 3.16032,-1.4897 7.71304,-1.6596 9.25877,-0.3458 11.83341,-0.6376 12.52449,-1.4191 0.48343,-0.5469 0.2336,-0.9246 -0.9474,-1.4323 -0.88217,-0.3793 -2.04976,-0.6988 -2.59462,-0.7101 -0.87508,-0.025 -0.8645,-0.103 0.0907,-0.7311 0.59474,-0.3911 1.75479,-0.5653 2.57789,-0.3874 0.89446,0.1936 2.30277,-0.2136 3.50055,-1.0139 2.68691,-1.7928 3.06539,-1.0767 1.02773,1.9447 -3.44775,5.1125 -3.04179,4.9401 -12.06135,5.1213 -8.38085,0.1684 -9.86141,0.6165 -9.13286,2.764 0.31229,0.9204 0.85339,1.036 3.08072,0.6582 1.692,-0.287 2.57057,-0.2186 2.35057,0.1835 -0.19334,0.3536 -1.21369,0.8043 -2.26768,1.0013 -1.054,0.1986 -2.57783,0.547 -3.38631,0.7769 -1.06948,0.3044 -1.74865,0.045 -2.49311,-0.95 z"
       id="path71" /></g></svg>
