<?xml version="1.0" encoding="UTF-8" standalone="no"?>
<!-- Created with Inkscape (http://www.inkscape.org/) -->

<svg
   width="109.8659mm"
   height="166.3625mm"
   viewBox="0 0 109.86591 166.3625"
   version="1.1"
   id="svg1"
   xml:space="preserve"
   xmlns="http://www.w3.org/2000/svg"
   xmlns:svg="http://www.w3.org/2000/svg"><defs
     id="defs1" /><g
     id="layer1"
     transform="translate(-321.42175,-1117.4411)"><path
       style="fill:#4d4d4d"
       d="m 337.59508,1283.6318 c -0.2146,-0.093 -0.5321,-0.2665 -0.70556,-0.385 -0.32652,-0.2232 -0.9963,-0.4468 -1.6089,-0.5369 -1.25148,-0.1843 -2.57676,-0.5304 -3.41019,-0.8907 -0.12935,-0.056 -0.42039,-0.1652 -0.64676,-0.243 -0.22636,-0.078 -0.51741,-0.1866 -0.64676,-0.242 -0.12935,-0.055 -0.68497,-0.2305 -1.23472,-0.3892 -0.94697,-0.2732 -1.4364,-0.368 -3.44009,-0.6661 -2.06192,-0.3069 -3.81292,-0.8056 -4.15476,-1.1833 -0.28738,-0.3176 -0.43137,-1.7688 -0.23554,-2.374 0.0882,-0.2727 0.27787,-0.9456 0.4214,-1.4954 0.28312,-1.0843 0.54048,-1.9221 0.70442,-2.293 0.0572,-0.1294 0.22024,-0.5792 0.36238,-0.9996 0.25287,-0.7478 0.80123,-2.1788 1.10401,-2.881 0.0837,-0.194 0.34979,-0.8555 0.59137,-1.4699 0.24159,-0.6144 0.48102,-1.223 0.53209,-1.3523 0.29239,-0.7407 0.76983,-2.5624 1.04786,-3.9982 0.0752,-0.388 0.18739,-0.9312 0.24943,-1.207 0.062,-0.2758 0.1128,-0.6554 0.1128,-0.8435 0,-0.1882 0.0524,-0.5975 0.11654,-0.9097 0.0641,-0.3121 0.22288,-1.3613 0.35286,-2.3314 0.28954,-2.1612 0.38229,-2.7533 0.82889,-5.2917 0.44506,-2.5295 0.69223,-4.4558 0.82236,-6.4088 0.2052,-3.0796 0.504,-4.2738 1.69183,-6.7616 0.52624,-1.1021 2.04785,-3.637 2.2941,-3.8217 0.0431,-0.032 0.1892,-0.2176 0.32467,-0.4116 0.13547,-0.194 0.43719,-0.555 0.67049,-0.8021 0.2333,-0.2472 0.42419,-0.5408 0.42419,-0.6527 0,-0.1118 0.0445,-0.2535 0.099,-0.315 0.31451,-0.3549 0.5934,-3.0598 0.68442,-6.6381 0.0699,-2.7482 0.12844,-2.68 -0.90875,-1.0594 -0.53282,0.8324 -1.84192,2.6601 -2.67172,3.73 -0.11085,0.1429 -0.41321,0.5611 -0.67191,0.9294 -0.71927,1.0239 -1.53973,1.9945 -1.90505,2.2537 -0.6019,0.4271 -1.21524,0.7315 -1.47372,0.7315 -0.14047,0 -0.42858,0.1679 -0.64024,0.373 -0.33891,0.3285 -0.41933,0.3573 -0.67387,0.2413 -0.15897,-0.072 -0.46702,-0.1028 -0.68456,-0.068 -0.27908,0.045 -0.44141,0.01 -0.55145,-0.1237 -0.0858,-0.1033 -0.24104,-0.1879 -0.34506,-0.1879 -0.10403,0 -0.41051,-0.2377 -0.68109,-0.5282 -0.43516,-0.4673 -0.5342,-0.5198 -0.85799,-0.4551 -0.55104,0.1102 -0.83003,-0.1991 -0.83003,-0.9202 0,-0.3154 0.082,-0.7702 0.18213,-1.0107 0.24454,-0.587 0.97251,-1.3191 1.31164,-1.3191 0.16595,0 0.27012,-0.071 0.27012,-0.1829 0,-0.3139 0.8869,-1.5062 1.52894,-2.0555 0.3376,-0.2888 1.1768,-0.9136 1.86489,-1.3885 1.46327,-1.0099 1.77458,-1.284 2.35818,-2.0764 0.54794,-0.7439 0.9676,-1.6134 1.45385,-3.0123 0.46851,-1.3478 0.4982,-1.3946 1.08442,-1.7064 0.53697,-0.2856 0.69037,-0.5392 0.88885,-1.4694 0.22693,-1.0635 -0.0134,-2.961 -0.47425,-3.7447 -0.72947,-1.2405 -2.29587,-4.2527 -2.81484,-5.413 -0.5727,-1.2804 -0.6398,-1.4448 -1.22396,-2.9986 -0.66974,-1.7815 -0.9459,-2.5959 -1.25604,-3.7042 -0.27458,-0.9812 -0.57899,-3.5685 -0.58434,-4.9666 -0.002,-0.5003 -0.0636,-1.1617 -0.13704,-1.4699 -0.19726,-0.8274 -0.57277,-1.7701 -0.72911,-1.8303 -0.0753,-0.029 -0.20569,-0.3107 -0.2898,-0.626 -0.0841,-0.3154 -0.20318,-0.7647 -0.26459,-0.9986 -0.15533,-0.5916 -0.13993,-2.9973 0.0224,-3.5058 0.67483,-2.1134 2.00438,-3.0321 4.23376,-2.9255 l 1.01824,0.049 0.12918,-0.6433 c 0.0711,-0.3537 0.12918,-0.7959 0.12918,-0.9825 0,-0.747 0.37437,-1.9897 0.71692,-2.3799 0.46006,-0.5239 1.04451,-0.6518 2.98052,-0.6518 1.19846,0 1.59354,-0.036 1.59146,-0.1469 -0.003,-0.1368 -0.17538,-0.7919 -0.81426,-3.0869 -0.20331,-0.7303 -0.94342,-2.9747 -1.27961,-3.8805 -0.43664,-1.1764 -0.77278,-1.9768 -1.4323,-3.4102 -0.17854,-0.388 -0.44219,-0.9701 -0.58588,-1.2935 -0.1437,-0.3234 -0.41435,-0.9224 -0.60146,-1.3311 -0.18711,-0.4088 -0.3402,-0.7665 -0.3402,-0.7951 0,-0.029 -0.1,-0.2762 -0.22219,-0.5503 -0.67883,-1.523 -1.30428,-3.5405 -1.55812,-5.0258 -0.74544,-4.362 -0.48239,-8.0871 0.75569,-10.701 0.67792,-1.4312 1.52501,-2.5164 2.46497,-3.1578 0.30713,-0.2096 0.64529,-0.5505 0.75147,-0.7577 0.10618,-0.2071 0.55812,-0.9457 1.00431,-1.6412 1.58361,-2.4686 2.2809,-4.297 1.99838,-5.2399 -0.14614,-0.4878 -0.32159,-1.5711 -0.49872,-3.0793 -0.0646,-0.5497 -0.16722,-1.4229 -0.22814,-1.9403 -0.12689,-1.0776 -0.2658,-1.8901 -0.52075,-3.0455 -0.46578,-2.111 -0.57822,-3.106 -0.58606,-5.1859 -0.008,-2.0181 0.007,-2.1611 0.31885,-3.0704 0.35341,-1.0313 0.87484,-1.9413 1.36339,-2.3793 0.40067,-0.3593 1.37402,-0.9845 1.89488,-1.2172 1.93253,-0.8634 2.35867,-1.0392 2.82222,-1.164 0.72139,-0.1943 2.55355,-0.2689 3.05741,-0.1245 0.22636,0.065 0.72907,0.1841 1.11713,0.2649 0.87709,0.1828 2.67286,0.8016 4.2801,1.475 1.20373,0.5043 1.24373,0.5122 2.57869,0.5122 1.33124,0 1.63465,0.053 2.75287,0.479 1.06652,0.4064 1.77493,1.1532 2.14895,2.2653 0.1584,0.4709 0.1791,0.8854 0.12036,2.4106 -0.0972,2.5249 -0.0977,3.6728 -0.002,5.6637 0.0784,1.6375 0.0719,1.714 -0.16583,1.9291 -0.18824,0.1703 -0.2475,0.3636 -0.2475,0.8073 0,0.4924 0.0805,0.7048 0.51656,1.3635 0.80067,1.2092 1.01214,1.6377 1.01214,2.0511 0,0.6703 -0.63536,1.2526 -1.37587,1.261 -0.70529,0.01 -0.90727,0.4623 -0.54411,1.2239 0.17103,0.3586 0.17561,0.455 0.0351,0.7389 -0.0889,0.1796 -0.14803,0.4875 -0.13149,0.6842 0.0476,0.5656 -0.16579,0.9946 -0.49458,0.9946 -0.36918,0 -0.50128,0.1795 -0.60588,0.8232 -0.10043,0.618 -0.31141,1.067 -0.78378,1.6682 -0.43315,0.5512 -1.15847,0.7207 -2.84473,0.6647 l -1.19845,-0.04 -1.87834,-0.9288 c -1.0331,-0.5108 -2.0305,-1.0351 -2.21645,-1.165 l -0.33809,-0.2362 -0.35136,0.4007 c -0.83686,0.9543 -1.49334,2.1399 -1.49811,2.7057 -0.001,0.1743 0.1365,0.4544 0.3208,0.6513 1.58438,1.6922 3.30559,3.9367 5.80535,7.5703 1.86514,2.7111 2.29422,3.4565 2.68148,4.6581 0.35006,1.0861 0.94919,3.937 0.9507,4.5237 3.9e-4,0.1553 0.0757,0.4259 0.16724,0.6015 0.36732,0.7041 0.73978,1.9855 1.06938,3.6789 0.16096,0.8271 0.28309,1.3461 0.76782,3.2632 0.59399,2.3492 0.93134,4.1907 1.51875,8.2903 0.26411,1.8433 0.36888,2.6973 0.64559,5.2623 0.49485,4.5872 0.57404,5.1332 0.66509,4.5861 0.0874,-0.5252 0.62042,-2.591 0.75093,-2.9104 0.0687,-0.1682 0.0214,-0.2058 -0.25881,-0.2058 -0.47575,0 -0.7719,-0.2438 -0.72232,-0.5946 0.0426,-0.301 0.11853,-0.3173 0.84529,-0.181 0.37767,0.071 0.39651,0.056 0.54558,-0.4281 0.33762,-1.0965 0.96245,-2.984 1.06131,-3.206 0.0576,-0.1294 0.19042,-0.4998 0.29517,-0.8232 0.18238,-0.5631 1.66673,-4.4079 2.00889,-5.2035 0.0904,-0.2102 0.23869,-0.5541 0.32955,-0.7643 0.0908,-0.2102 0.30697,-0.7261 0.48027,-1.1465 0.1733,-0.4204 0.43673,-1.029 0.58539,-1.3524 0.50818,-1.1053 0.76823,-1.7025 0.76823,-1.764 0,-0.034 0.17848,-0.4445 0.39664,-0.9126 0.62768,-1.3469 1.01447,-2.2062 1.01447,-2.2538 0,-0.024 0.21166,-0.4978 0.47037,-1.0526 0.2587,-0.5547 0.47037,-1.0577 0.47037,-1.1177 0,-0.06 -0.27782,-0.147 -0.61736,-0.1932 -1.30622,-0.1779 -2.30347,-0.9899 -2.81215,-2.2899 -0.35233,-0.9004 -0.35463,-2.4887 -0.005,-3.4511 0.75339,-2.0738 2.1519,-3.256 5.02201,-4.2452 0.5174,-0.1783 1.04657,-0.3658 1.17592,-0.4166 4.20681,-1.6515 5.62418,-2.4373 7.25429,-4.022 1.03303,-1.0043 1.49146,-1.6768 2.06865,-3.0345 0.16215,-0.3814 0.28285,-0.9407 0.20302,-0.9407 -0.0343,0 -0.28664,0.1 -0.5608,0.2223 -0.85519,0.3814 -2.00249,0.7989 -2.61516,0.9517 -0.77054,0.1922 -1.49645,0.01 -1.97394,-0.5045 -0.30418,-0.3257 -0.33682,-0.4301 -0.28151,-0.9011 0.0344,-0.293 0.097,-0.6437 0.13907,-0.7793 0.0581,-0.1872 -0.0269,-0.3429 -0.35308,-0.6468 -0.38308,-0.3569 -0.4233,-0.4491 -0.37155,-0.8517 0.0319,-0.2483 0.002,-0.6111 -0.0656,-0.8062 -0.097,-0.2783 -0.0822,-0.4416 0.0686,-0.7578 0.33134,-0.6949 0.25097,-0.9962 -0.37199,-1.3947 -0.87972,-0.5628 -0.84105,-0.8527 0.32281,-2.4201 0.83809,-1.1288 0.92476,-1.3758 0.71575,-2.0401 -0.1915,-0.6086 -0.4669,-2.2424 -0.41878,-2.4844 0.025,-0.1257 0.11024,-0.5725 0.18944,-0.9929 0.46223,-2.4534 2.51579,-4.679 5.70444,-6.1823 1.79192,-0.8448 2.1004,-0.9486 3.43123,-1.1543 2.61262,-0.404 5.02842,0.5246 7.09134,2.7257 0.45566,0.4861 1.05013,1.043 1.32105,1.2375 0.27093,0.1945 0.51905,0.3849 0.55138,0.423 0.0323,0.038 0.3763,0.3305 0.76436,0.6497 0.93992,0.7731 2.55352,2.4181 2.97938,3.0374 0.4518,0.657 1.19515,2.1229 1.19515,2.3569 0,0.1018 0.0468,0.2141 0.10404,0.2494 0.0572,0.035 0.13286,0.2105 0.16809,0.3891 0.0352,0.1787 0.15023,0.6688 0.25556,1.0892 0.14174,0.5658 0.21958,1.742 0.29959,4.5273 0.10185,3.5451 0.18688,4.6071 0.44723,5.5857 0.31655,1.1898 0.81793,2.0928 1.58708,2.8584 0.64202,0.6391 0.7176,0.6807 1.17592,0.6468 l 0.48981,-0.036 v 0.588 c 0,0.5245 -0.0254,0.5831 -0.23519,0.5431 -0.12935,-0.025 -0.65852,-0.056 -1.17592,-0.069 -1.24733,-0.031 -1.72308,-0.2461 -2.73995,-1.2368 -0.15946,-0.1553 -0.17026,-0.1361 -0.0992,0.1764 0.10823,0.4759 0.3725,2.7504 0.60094,5.172 0.4509,4.7799 1.07361,7.2347 2.1976,8.6632 0.54738,0.6957 1.71203,1.1424 2.06311,0.7913 0.16273,-0.1627 0.57912,-0.038 0.67083,0.2011 0.0864,0.2251 -0.12227,0.6338 -0.32354,0.6338 -0.0826,0 -0.37671,0.1094 -0.65361,0.2432 -0.45904,0.2218 -0.55692,0.2299 -1.10982,0.092 -1.5239,-0.3797 -3.07029,-1.5621 -4.34053,-3.3189 -0.27455,-0.3797 -0.58926,-0.803 -0.69937,-0.9407 -0.19522,-0.2441 -0.19846,-0.2387 -0.13063,0.22 0.0383,0.2587 0.11657,0.5622 0.17403,0.6745 0.0964,0.1884 0.18565,0.5487 0.44447,1.795 0.0537,0.2587 0.24324,1.1318 0.42113,1.9402 0.1779,0.8085 0.36657,1.7081 0.41928,1.9991 0.0527,0.291 0.14629,0.7673 0.20795,1.0583 0.19596,0.925 0.68081,3.5628 0.97264,5.2917 0.071,0.4204 0.22678,0.976 0.34625,1.2347 0.33186,0.7186 1.0491,3.0743 1.28897,4.2334 0.20311,0.9814 0.82824,3.7814 0.93861,4.2039 0.0634,0.2425 0.166,0.6394 0.22812,0.8819 0.0621,0.2426 0.28092,0.9966 0.48623,1.6757 0.2053,0.6791 0.41608,1.3935 0.46839,1.5875 0.0523,0.1941 0.14802,0.538 0.2127,0.7644 0.27413,0.9595 0.36536,1.2945 0.6565,2.4106 0.28655,1.0986 0.38646,1.5139 0.65065,2.7047 0.0574,0.2587 0.1541,0.682 0.21489,0.9407 0.15054,0.6407 0.84078,3.9797 0.84205,4.0735 10e-4,0.1 0.62746,0.2012 2.05889,0.3336 3.81184,0.3526 3.88182,0.381 4.79562,1.9425 0.26481,0.4525 0.60728,0.9552 0.76104,1.1171 0.48805,0.514 0.64758,0.9338 0.58851,1.5486 l -0.0546,0.5685 h 9.00797 c 4.95438,9e-4 9.12703,0.034 9.27255,0.072 0.23241,0.062 0.26353,0.1443 0.25587,0.6746 -0.005,0.332 -0.0482,0.8417 -0.0965,1.1328 l -0.0878,0.5291 -0.0936,-0.7937 -0.0936,-0.7938 h -9.20966 c -5.53145,0 -9.32701,0.045 -9.50347,0.1118 -0.2086,0.079 -0.31043,0.071 -0.35115,-0.029 -0.0315,-0.078 -0.0615,-0.043 -0.0666,0.078 -0.0143,0.3386 -0.4963,1.1226 -0.73706,1.199 -0.11855,0.038 -0.29673,0.2254 -0.39596,0.4173 -0.0992,0.1919 -0.35995,0.4345 -0.57938,0.5391 -0.37119,0.1771 -0.42077,0.176 -0.7122,-0.015 -0.30598,-0.2005 -0.32058,-0.1982 -0.63108,0.099 -0.17483,0.1674 -0.40656,0.3045 -0.51497,0.3045 -0.21919,0 -0.25937,-0.1351 -0.41988,-1.4111 -0.061,-0.4851 -0.16784,-1.0275 -0.23739,-1.2054 -0.12073,-0.3087 -0.16259,-0.3233 -0.92313,-0.322 -0.43816,7e-4 -0.99305,0.034 -1.23308,0.073 l -0.43641,0.072 0.1814,0.3508 c 0.23347,0.4515 0.13017,0.8568 -0.32728,1.2842 -0.28022,0.2617 -0.47007,0.3348 -0.86967,0.3348 -0.28116,0 -0.65921,-0.065 -0.84011,-0.1448 -0.53471,-0.2355 -1.83198,-1.0963 -2.18659,-1.4509 l -0.32872,-0.3288 -1.78782,0.028 c -0.9833,0.015 -7.62468,-0.03 -14.75861,-0.1013 l -12.97078,-0.1291 -0.96394,0.2908 c -2.15186,0.6491 -3.96633,0.6687 -8.13709,0.088 -2.00765,-0.2797 -4.07531,-0.4992 -4.37619,-0.4646 l -0.32751,0.038 -0.076,1.4111 c -0.0418,0.7761 -0.13179,1.6492 -0.19994,1.9403 -0.0996,0.4251 -0.11659,0.1551 -0.0867,-1.3739 0.0392,-2.0007 0.005,-2.1539 -0.48181,-2.1539 -0.19628,0 -0.28805,0.087 -0.34215,0.3234 -0.0407,0.1778 -0.14155,0.535 -0.22418,0.7937 -0.0826,0.2587 -0.18703,0.8143 -0.232,1.2347 -0.045,0.4204 -0.12711,0.9496 -0.18253,1.176 -0.0554,0.2263 -0.18816,0.8613 -0.29497,1.4111 -0.2043,1.0514 -0.57513,2.715 -0.76017,3.4102 -0.0602,0.2263 -0.18809,0.7555 -0.28409,1.1759 -0.27833,1.2189 -0.88887,3.7839 -1.00765,4.2333 -0.0598,0.2264 -0.13461,0.5439 -0.16618,0.7056 -0.0316,0.1617 -0.19406,0.9289 -0.36111,1.7051 -0.6253,2.9051 -0.95218,4.7857 -1.34899,7.7611 -0.32558,2.4412 -1.03288,5.5392 -1.53033,6.7027 -0.82874,1.9385 -1.62905,3.2414 -2.60025,4.2334 -0.65342,0.6674 -0.74187,0.8317 -1.63424,3.0374 -0.51889,1.2825 -1.01749,2.4996 -1.108,2.7046 -0.0905,0.2051 -0.2442,0.5845 -0.34153,0.8432 -0.0973,0.2587 -0.30886,0.7614 -0.47007,1.1171 -0.16121,0.3557 -0.41092,0.9113 -0.55491,1.2347 -0.47924,1.0763 -2.01029,4.0956 -2.24137,4.4201 -0.12529,0.176 -0.22779,0.3581 -0.22779,0.4047 0,0.047 -0.86635,1.3879 -1.92522,2.9805 -1.05887,1.5926 -2.17673,3.4248 -2.48415,4.0716 -0.30741,0.6467 -0.60523,1.2678 -0.66182,1.3801 -0.0566,0.1123 -0.10289,0.3001 -0.10289,0.4174 0,0.1173 -0.0448,0.2636 -0.0995,0.325 -0.2029,0.2278 -0.4267,1.9172 -0.42763,3.2279 -10e-4,1.962 0.31256,2.9989 1.15498,3.8146 0.38578,0.3736 2.50419,2.1587 4.12968,3.4799 0.91941,0.7473 2.70009,1.8778 2.95788,1.8778 0.0722,0 0.27073,0.1395 0.44124,0.31 0.23274,0.2327 0.31002,0.4285 0.31002,0.7855 0,0.4097 -0.0709,0.5417 -0.51273,0.9541 -0.46695,0.4359 -0.51767,0.5388 -0.56809,1.1529 -0.0326,0.3971 -0.13605,0.7635 -0.25162,0.8912 -0.10795,0.1193 -0.19626,0.3077 -0.19626,0.4188 0,0.2691 -0.52144,0.7791 -0.79659,0.7791 -0.13452,0 -0.28433,0.1478 -0.38752,0.3822 -0.13906,0.3159 -0.24185,0.3883 -0.5931,0.4177 -0.31274,0.026 -0.45829,0.1088 -0.5514,0.3132 -0.15397,0.3379 -0.52129,0.472 -0.83422,0.3045 -0.31971,-0.1711 -0.36495,-0.1581 -0.36495,0.1045 0,0.2251 -0.40779,0.599 -0.64353,0.59 -0.0664,0 -0.2964,-0.081 -0.51099,-0.1741 z m 0.33551,-0.9895 c -0.18137,-0.3389 -0.14732,-0.7109 0.0728,-0.7953 0.11247,-0.043 0.43492,0.061 0.76435,0.2456 0.66919,0.3762 0.72623,0.3193 0.16979,-0.1692 -0.28084,-0.2466 -0.38186,-0.4207 -0.33906,-0.5844 0.0821,-0.3139 0.24476,-0.295 1.03307,0.1196 0.7511,0.3951 1.14042,0.4769 0.83995,0.1764 -0.097,-0.097 -0.21569,-0.1764 -0.26372,-0.1764 -0.19944,0 -0.51743,-0.4086 -0.51743,-0.6649 0,-0.3209 0.28566,-0.3636 0.63983,-0.096 0.12555,0.095 0.46448,0.1727 0.75318,0.1727 0.5094,0 0.51891,-0.01 0.32146,-0.2248 -0.1119,-0.1237 -0.43418,-0.293 -0.71619,-0.3763 -0.49226,-0.1453 -0.66348,-0.3489 -0.55777,-0.663 0.0802,-0.2383 0.65889,-0.1691 1.26007,0.1506 0.64239,0.3415 0.88646,0.2551 0.88646,-0.3138 0,-0.2575 -0.0928,-0.3967 -0.38218,-0.5731 -0.2102,-0.1281 -0.4924,-0.2332 -0.62712,-0.2334 -0.13472,-3e-4 -0.72522,-0.1548 -1.31221,-0.3435 -0.753,-0.242 -1.20443,-0.3246 -1.5331,-0.2806 -0.28112,0.038 -0.49794,0.011 -0.54681,-0.068 -0.0445,-0.072 -0.18441,-0.131 -0.31082,-0.131 -0.12642,0 -0.32173,-0.049 -0.43404,-0.1089 -0.1123,-0.06 -0.56207,-0.2452 -0.99947,-0.4117 -4.61827,-1.7585 -6.71854,-4.617 -6.2077,-8.4489 0.0795,-0.5966 0.1867,-1.217 0.23816,-1.3787 0.0515,-0.1617 0.15213,-0.5056 0.22371,-0.7643 0.39399,-1.424 1.15911,-3.8029 1.3138,-4.0848 0.0616,-0.1123 0.11203,-0.2649 0.11203,-0.3391 0,-0.1348 0.74304,-2.3045 0.94154,-2.7493 0.0577,-0.1293 0.18659,-0.4872 0.28637,-0.7952 0.18412,-0.5684 0.82285,-2.3029 1.00626,-2.7326 0.0552,-0.1293 0.31992,-0.8172 0.58824,-1.5287 0.26831,-0.7114 0.56864,-1.4787 0.66739,-1.7051 0.20513,-0.4702 0.23504,-0.5432 0.74646,-1.8226 0.20681,-0.5174 0.47049,-1.1524 0.58594,-1.4112 0.11546,-0.2587 0.34308,-0.7878 0.50583,-1.1759 0.16275,-0.388 0.48573,-1.1159 0.71774,-1.6174 0.232,-0.5015 0.42183,-0.9338 0.42183,-0.9607 0,-0.027 0.28509,-0.6484 0.63354,-1.3812 1.51268,-3.1812 1.71831,-3.6451 1.71831,-3.876 0,-0.1343 0.3345,-0.6487 0.74334,-1.1433 2.39732,-2.8999 3.1863,-4.5058 4.60127,-9.3658 0.11298,-0.3881 0.2995,-0.9966 0.41449,-1.3523 0.11499,-0.3558 0.37813,-1.2024 0.58477,-1.8815 0.9242,-3.0373 1.60935,-4.9914 2.59265,-7.3942 0.58125,-1.4204 1.27343,-3.235 1.53817,-4.0324 0.26473,-0.7974 0.52441,-1.5556 0.57705,-1.685 0.0526,-0.1293 0.21135,-0.6321 0.35269,-1.1171 0.57363,-1.9687 0.86874,-2.8867 0.96205,-2.9928 0.0541,-0.061 0.0983,-0.2303 0.0983,-0.3752 0,-0.1449 0.0529,-0.2962 0.1176,-0.3362 0.19994,-0.1236 0.12363,-0.455 -0.18575,-0.8069 -0.27496,-0.3126 -0.31073,-0.323 -0.50531,-0.1469 -0.32401,0.2932 -0.76875,0.2314 -1.15141,-0.16 -0.32202,-0.3294 -0.36694,-0.3417 -0.78137,-0.2145 -0.38367,0.1177 -0.47949,0.1052 -0.75195,-0.098 -0.58321,-0.4354 -0.99737,-1.5963 -1.15163,-3.2279 l -0.0732,-0.7739 -0.78652,-0.2639 c -1.33688,-0.4486 -4.68108,-2.1886 -4.82386,-2.5099 -0.0216,-0.049 -0.0942,-0.088 -0.16146,-0.088 -0.0672,0 -0.44647,-0.2307 -0.84274,-0.5126 -1.82476,-1.2984 -4.92224,-2.9983 -6.21795,-3.4124 -0.16166,-0.052 -0.20576,0 -0.20569,0.254 2.2e-4,0.7082 0.52562,2.8379 0.89728,3.637 0.22214,0.4777 1.42937,2.4059 1.56739,2.5035 0.27131,0.1919 0.94542,1.3989 0.94542,1.6928 0,0.1889 -0.19241,0.7453 -0.42757,1.2363 -0.76254,1.592 -1.24515,3.045 -1.74155,5.2436 -0.39808,1.7631 -0.8101,4.98 -1.00157,7.8199 -0.12559,1.8628 -0.227,2.5893 -0.39025,2.7961 -0.0776,0.098 -0.0835,0.5862 -0.017,1.4111 0.13233,1.6418 0.125,2.454 -0.0458,5.0826 -0.25726,3.9583 -0.52733,5.3002 -1.20176,5.9711 -0.70983,0.7061 -2.32112,3.1888 -3.19823,4.928 -0.95369,1.891 -1.35044,3.3682 -1.62071,6.0342 -0.34783,3.4313 -0.73905,6.1772 -1.2984,9.1134 -0.30694,1.6113 -0.44999,2.4873 -0.75847,4.645 -0.36568,2.5576 -0.41409,2.8827 -0.52521,3.5277 -0.13813,0.8019 -0.30271,1.6499 -0.46274,2.3846 -0.11997,0.5507 -0.73859,2.5017 -0.94041,2.9659 -0.0562,0.1293 -0.29782,0.7379 -0.53683,1.3523 -0.42529,1.0933 -0.51232,1.3121 -0.78343,1.9697 -0.22904,0.5555 -0.3091,0.7681 -0.63103,1.6757 -0.17206,0.485 -0.35617,0.9878 -0.40913,1.1171 -0.47753,1.1663 -0.94318,3.0401 -0.94318,3.7955 0,0.6033 0.034,0.7077 0.26458,0.8138 1.08554,0.4994 1.28303,0.5442 4.55672,1.0328 0.67909,0.1014 1.47284,0.242 1.76388,0.3125 0.85578,0.2073 3.3796,1.0626 3.79077,1.2847 0.11231,0.061 0.30762,0.1102 0.43403,0.1102 0.12641,0 0.25893,0.047 0.29449,0.1046 0.0676,0.1094 0.43719,0.1868 1.71312,0.3587 0.81539,0.1099 1.68199,0.4062 2.35185,0.8042 0.55275,0.3284 0.87561,0.3438 0.7097,0.034 z m 4.94059,-4.6557 c 0.52632,-0.2721 0.45274,-0.5912 -0.21163,-0.9176 -1.3322,-0.6545 -1.41986,-0.7168 -3.90995,-2.7755 -4.43501,-3.6667 -4.58611,-3.871 -4.58611,-6.2007 0,-0.7506 0.0483,-1.5561 0.10739,-1.79 0.0591,-0.2338 0.16879,-0.7162 0.24382,-1.0719 0.075,-0.3558 0.18057,-0.7791 0.2345,-0.9408 0.0539,-0.1617 0.18438,-0.585 0.28988,-0.9407 0.22943,-0.7736 0.24342,-0.8077 0.92734,-2.2593 0.29597,-0.6282 1.23829,-2.2157 2.09405,-3.5278 1.71429,-2.6284 3.59976,-6.2159 5.48727,-10.4407 0.18782,-0.4204 0.4501,-1.0025 0.58286,-1.2935 0.13275,-0.2911 0.43683,-1.0054 0.67573,-1.5875 0.2389,-0.5821 0.50845,-1.2303 0.599,-1.4405 0.42,-0.975 0.49631,-1.1633 0.56876,-1.4039 0.0426,-0.1415 0.24695,-0.408 0.45405,-0.5922 1.13392,-1.0085 1.89903,-2.1691 2.85076,-4.3245 0.76563,-1.734 1.34232,-4.4525 1.99569,-9.4074 0.17041,-1.2924 0.33514,-2.3278 0.53785,-3.3808 0.0591,-0.3072 0.15327,-0.8099 0.20917,-1.1172 0.12842,-0.7057 0.6955,-3.199 1.06316,-4.6743 0.0645,-0.2587 0.17164,-0.7085 0.23815,-0.9995 0.0665,-0.291 0.25815,-1.0848 0.42586,-1.7639 0.61406,-2.4865 0.53205,-2.1275 1.10136,-4.8213 0.1982,-0.9378 0.36083,-1.7938 0.36139,-1.9022 5.7e-4,-0.1085 -0.16766,-0.2814 -0.37385,-0.3842 -0.36729,-0.1833 -0.38121,-0.1801 -0.68816,0.156 -0.17231,0.1886 -0.40254,0.6261 -0.51161,0.9721 -0.10907,0.346 -0.24289,0.735 -0.29737,0.8643 -0.0952,0.226 -0.2149,0.615 -0.90495,2.9399 -0.60449,2.0366 -1.16364,3.6508 -1.64042,4.7356 -0.10599,0.2411 -0.23314,0.5443 -0.28257,0.6736 -0.0494,0.1294 -0.14841,0.3675 -0.21995,0.5292 -0.0716,0.1617 -0.24151,0.585 -0.37769,0.9407 -0.13618,0.3557 -0.31901,0.8055 -0.4063,0.9996 -0.37821,0.8407 -1.46504,3.974 -1.87629,5.4092 -0.58663,2.0473 -0.68263,2.371 -0.7674,2.5871 -0.0508,0.1293 -0.14984,0.4468 -0.22019,0.7055 -0.19995,0.7352 -0.94369,3.1682 -1.37972,4.5135 -0.66912,2.0644 -1.65821,3.791 -3.05013,5.3244 -0.52691,0.5805 -0.7607,0.9473 -0.7607,1.1936 0,0.1207 -0.33753,0.9159 -0.75007,1.7671 -1.36227,2.8109 -1.95456,4.0624 -1.95456,4.1298 0,0.037 -0.17849,0.4496 -0.39665,0.9177 -0.6581,1.4122 -1.01446,2.207 -1.01446,2.2625 0,0.029 -0.15168,0.3847 -0.33707,0.7905 -0.18538,0.4059 -0.82642,1.9815 -1.42452,3.5014 -0.59811,1.5199 -1.13435,2.8825 -1.19164,3.028 -0.0573,0.1455 -0.15176,0.3836 -0.20991,0.5291 -0.0581,0.1456 -0.15955,0.4234 -0.22534,0.6174 -0.22734,0.6705 -0.7465,2.1176 -0.85429,2.3813 -0.0595,0.1455 -0.154,0.3836 -0.21002,0.5291 -0.056,0.1455 -0.15804,0.3969 -0.22672,0.5586 -0.0687,0.1617 -0.26374,0.6644 -0.43349,1.1171 -0.16975,0.4528 -0.35702,0.929 -0.41615,1.0584 -0.22716,0.4969 -0.79796,2.3935 -0.99094,3.2925 -0.11106,0.5175 -0.25052,1.1321 -0.3099,1.366 -0.26448,1.0416 -0.0687,2.7183 0.45444,3.8912 0.60504,1.3566 2.5166,2.808 4.84684,3.6801 0.29104,0.1089 0.635,0.2431 0.76435,0.2981 0.12936,0.055 0.68498,0.2554 1.23473,0.4451 0.54974,0.1898 1.34349,0.4732 1.76389,0.6298 0.42039,0.1566 1.08185,0.3568 1.4699,0.4448 0.38806,0.088 0.75583,0.2045 0.81727,0.2588 0.17342,0.1531 0.62933,0.1167 1.01126,-0.081 z m -17.47823,-45.8747 c 0.0619,-0.1614 0.0447,-0.1687 -0.10501,-0.044 -0.20405,0.1694 -0.22529,0.2374 -0.0741,0.2374 0.0577,0 0.13834,-0.087 0.17908,-0.193 z m -0.70817,-0.4636 c 0.0439,-0.1145 0.0177,-0.1682 -0.0683,-0.1396 -0.17578,0.059 -0.27257,0.3259 -0.11801,0.3259 0.0632,0 0.14697,-0.084 0.18627,-0.1863 z m 3.16194,-0.2211 c 0.67421,-0.3199 2.55793,-2.4345 4.14145,-4.6491 0.25436,-0.3557 0.49693,-0.6732 0.53905,-0.7056 0.11594,-0.089 1.63578,-2.4626 1.63954,-2.5605 0.002,-0.047 0.16055,-0.2932 0.35278,-0.5472 0.19222,-0.2541 0.3495,-0.5552 0.3495,-0.6692 0,-0.1141 0.0538,-0.2406 0.11951,-0.2812 0.0657,-0.041 0.0889,-0.1234 0.0514,-0.184 -0.0374,-0.061 -0.005,-0.2846 0.0721,-0.4978 0.11104,-0.3071 0.10646,-0.5435 -0.022,-1.1379 -0.15052,-0.6963 -0.20432,-0.7806 -0.7469,-1.1698 -0.49751,-0.3569 -0.67288,-0.4173 -1.17593,-0.4045 -0.83376,0.021 -1.3911,0.3755 -1.59594,1.0146 -0.088,0.2745 -0.30159,0.8479 -0.47467,1.2743 -1.00112,2.4663 -1.61519,3.2099 -3.84789,4.6596 -1.54071,1.0004 -2.3034,1.6661 -2.62013,2.2869 -0.27465,0.5384 -0.30836,1.6468 -0.0564,1.8558 0.0929,0.077 0.20038,0.282 0.23893,0.4554 0.17118,0.7698 1.35536,1.5787 2.19372,1.4984 0.23431,-0.022 0.61319,-0.1296 0.84194,-0.2382 z m -4.49914,-0.8624 0.50322,-0.4465 -0.16761,-0.5029 -0.16761,-0.5028 -0.37737,0.3606 c -0.48563,0.4641 -0.7879,1.1552 -0.60282,1.3782 0.19153,0.2308 0.25414,0.2087 0.81219,-0.2866 z m 12.03395,-12.224 c 0.0401,-0.2425 0.0731,-0.732 0.0734,-1.0877 2.9e-4,-0.3557 0.0572,-1.0701 0.12657,-1.5875 0.53375,-3.9834 0.56132,-4.1512 0.95599,-5.8209 0.41648,-1.7618 1.14968,-3.9351 1.6383,-4.8559 0.0829,-0.1563 0.0437,-0.3088 -0.15121,-0.588 -0.14475,-0.2073 -0.29601,-0.4033 -0.33613,-0.4357 -0.0874,-0.07 -1.1258,-1.676 -1.40696,-2.1754 -0.41562,-0.7383 -0.85731,-2.2041 -1.00985,-3.3514 -0.0301,-0.2264 -0.1144,-0.7974 -0.18733,-1.269 l -0.1326,-0.8574 -0.77629,-0.3611 c -2.93431,-1.3649 -3.91353,-2.0593 -3.60581,-2.5572 0.0974,-0.1577 0.35556,-0.053 1.06564,0.4337 0.48039,0.329 2.50074,1.3506 3.52777,1.7837 0.12936,0.055 0.48597,0.2103 0.79247,0.3461 0.30651,0.1358 0.58512,0.2469 0.61915,0.2469 0.0933,0 3.12238,1.4837 3.52727,1.7277 0.19403,0.1169 0.37042,0.2523 0.39198,0.3008 0.0216,0.048 0.0885,0.088 0.14868,0.088 0.0899,0 3.0425,1.8737 3.46348,2.1979 0.74824,0.5762 3.91953,2.0354 4.42362,2.0354 0.18267,0 0.0118,-3.6039 -0.18922,-3.9909 -0.0861,-0.1657 -0.2628,-0.5393 -0.39274,-0.8304 -0.12994,-0.291 -0.37413,-0.8349 -0.54265,-1.2085 -0.16851,-0.3737 -0.30639,-0.7055 -0.30639,-0.7374 0,-0.1917 -2.10788,-4.4538 -2.68955,-5.4382 -0.20232,-0.3424 -0.36786,-0.6417 -0.36786,-0.6651 0,-0.023 -0.26766,-0.4973 -0.5948,-1.0532 -0.42942,-0.7296 -0.65966,-1.0106 -0.8281,-1.0106 -0.21123,0 -0.72059,-0.091 -2.69284,-0.4795 -0.35571,-0.07 -0.85842,-0.1751 -1.11713,-0.2333 -0.2587,-0.058 -0.70849,-0.1306 -0.99953,-0.161 -0.29104,-0.03 -0.84667,-0.1303 -1.23473,-0.2219 -0.38805,-0.092 -1.20826,-0.2551 -1.82268,-0.3635 -1.15188,-0.2031 -1.32697,-0.2404 -3.1162,-0.6631 -1.31871,-0.3116 -3.00345,-0.4219 -3.66983,-0.2403 -1.17768,0.3209 -2.06002,1.4543 -2.31635,2.9756 -0.23306,1.3832 0.12066,3.5786 0.63458,3.9386 0.12998,0.091 0.23632,0.269 0.23632,0.3956 0,0.1266 0.0482,0.322 0.10721,0.4343 0.17344,0.3303 0.34703,1.3789 0.53996,3.2616 0.0994,0.9701 0.23418,2.0285 0.29948,2.3519 0.32829,1.6256 0.39458,1.9298 0.55098,2.5282 0.093,0.3557 0.20994,0.8055 0.25992,0.9995 0.11149,0.4328 0.79585,2.4988 0.93489,2.8223 0.41742,0.9712 1.24569,2.6224 1.70075,3.3905 0.30013,0.5065 0.5457,0.9482 0.5457,0.9813 0,0.033 0.10533,0.2083 0.23406,0.3891 0.25991,0.365 2.28854,4.3444 2.63846,5.1756 0.12252,0.2911 0.39944,0.9194 0.61539,1.3964 0.38596,0.8525 0.50829,1.5434 0.27326,1.5434 -0.0657,0 -0.44164,-0.6617 -0.8355,-1.4706 -0.39386,-0.8088 -0.75734,-1.496 -0.80774,-1.5272 -0.0504,-0.031 -0.12053,0.4587 -0.15585,1.0884 -0.0353,0.6298 -0.10007,1.2882 -0.14388,1.4631 -0.07,0.2794 -0.039,0.328 0.25639,0.4015 0.41679,0.1038 1.03344,0.4437 1.36472,0.7523 0.34517,0.3216 0.39975,0.2981 0.48336,-0.2077 z m 73.45325,-10.3507 c 0.23444,-0.3496 0.29398,-0.5853 0.29398,-1.1639 0,-0.8453 -0.0408,-0.9023 -1.5581,-2.176 -0.61476,-0.5161 -0.97014,-0.8997 -0.97014,-1.0474 0,-0.4958 0.35129,-0.3532 1.454,0.59 1.55008,1.3258 1.97318,2.2721 1.55919,3.4871 -0.10465,0.3071 -0.17022,0.5785 -0.1457,0.603 0.13434,0.1344 0.64056,-0.1481 0.87276,-0.487 0.37516,-0.5475 0.42819,-1.0646 0.19995,-1.9498 -0.27802,-1.0783 -0.52496,-1.4147 -1.55984,-2.1248 -0.50075,-0.3436 -0.94933,-0.6806 -0.99684,-0.749 -0.15709,-0.226 -0.0935,-0.4394 0.14998,-0.5031 l 0.23998,-0.063 -0.23998,-0.1681 c -0.13199,-0.092 -0.23998,-0.2709 -0.23998,-0.3966 0,-0.1257 -0.0661,-0.2303 -0.14699,-0.2324 -0.64863,-0.017 -2.70155,-0.361 -3.04937,-0.5112 -0.54099,-0.2336 -0.53853,-0.2293 -0.7605,-1.334 -0.10105,-0.5029 -0.22571,-1.0996 -0.27703,-1.3259 -0.0513,-0.2264 -0.15,-0.6762 -0.21927,-0.9996 -0.0693,-0.3234 -0.31717,-1.3552 -0.55087,-2.293 -0.23371,-0.9378 -0.46989,-1.8903 -0.52485,-2.1167 -0.055,-0.2264 -0.15169,-0.5968 -0.21495,-0.8231 -0.0633,-0.2264 -0.25529,-0.9143 -0.42672,-1.5287 -0.17143,-0.6145 -0.35832,-1.2759 -0.41533,-1.47 -0.057,-0.194 -0.16252,-0.5644 -0.23449,-0.8231 -0.072,-0.2587 -0.17687,-0.6291 -0.23312,-0.8231 -0.26318,-0.9079 -0.70718,-2.8124 -1.06914,-4.5862 -0.0528,-0.2587 -0.14831,-0.682 -0.21227,-0.9407 -0.064,-0.2587 -0.17456,-0.7085 -0.2458,-0.9995 -0.33271,-1.3592 -0.68106,-2.4252 -1.03753,-3.175 -0.1441,-0.3031 -0.4096,-1.4335 -0.62145,-2.6459 -0.4326,-2.4756 -0.53687,-3.0491 -0.6413,-3.5277 -0.0423,-0.1941 -0.23729,-1.1466 -0.43324,-2.1167 -0.44257,-2.1912 -0.53413,-2.6349 -0.67342,-3.2632 -0.0609,-0.2749 -0.16354,-0.7379 -0.22801,-1.0289 -0.0645,-0.2911 -0.19095,-0.7409 -0.28108,-0.9996 -0.0901,-0.2587 -0.14859,-0.6291 -0.1299,-0.8231 0.0392,-0.4069 -0.14532,-2.557 -0.32292,-3.763 -0.41765,-2.836 -1.36199,-5.4934 -2.61179,-7.3495 -0.51868,-0.7704 -2.035,-2.25 -2.7831,-2.7158 -1.44872,-0.902 -2.46117,-1.2223 -4.51431,-1.4281 l -1.39811,-0.1402 -0.79157,0.8417 c -1.37479,1.4619 -2.57208,3.338 -3.30371,5.1769 -0.0579,0.1455 -0.15491,0.3836 -0.21559,0.5291 -0.19764,0.474 -0.4501,1.5384 -0.59274,2.4989 -0.13841,0.9321 -0.0952,1.367 0.30028,3.0258 0.0421,0.1767 0.0429,0.4556 0.002,0.62 -0.12204,0.4862 -0.45114,0.1859 -0.99527,-0.9083 -0.96841,-1.9475 -1.07589,-3.864 -0.36454,-6.5005 0.37306,-1.3827 1.53359,-3.9277 2.76151,-6.056 0.876,-1.5183 1.14246,-2.0273 1.03876,-1.9842 -0.0581,0.024 -0.38192,0.147 -0.71966,0.2729 -0.48566,0.1812 -0.61407,0.2833 -0.61407,0.4885 0,0.4205 -0.52725,1.8561 -0.97554,2.6562 -1.42366,2.5411 -4.27218,4.5264 -8.49066,5.9176 -1.9901,0.6563 -1.85576,0.6036 -3.2338,1.2687 -1.3182,0.6362 -2.20348,1.3788 -2.57762,2.162 -0.14869,0.3113 -0.31747,0.6579 -0.37506,0.7702 -0.0576,0.1123 -0.10473,0.3076 -0.10473,0.434 0,0.1264 -0.0529,0.2625 -0.11759,0.3025 -0.0647,0.04 -0.11759,0.4804 -0.11759,0.9788 0,1.6719 0.61327,2.7067 1.85486,3.1297 0.90704,0.3091 1.66156,0.2014 2.85509,-0.4075 0.50221,-0.2562 0.76625,-0.2915 0.87419,-0.1168 0.14566,0.2356 -0.19006,0.5731 -0.92077,0.9255 -0.78377,0.378 -0.76804,0.3583 -1.37374,1.7227 -0.14355,0.3234 -0.41328,0.9154 -0.59939,1.3155 -0.18612,0.4002 -0.33839,0.758 -0.33839,0.7952 0,0.037 -0.17857,0.4506 -0.39682,0.9188 -0.42691,0.9156 -0.63294,1.3741 -0.99035,2.2036 -0.12534,0.2909 -0.34691,0.7935 -0.49238,1.1169 -0.33125,0.7364 -0.4863,1.0974 -0.88388,2.0579 -0.17401,0.4204 -0.397,0.9496 -0.49552,1.1759 -0.294,0.6755 -0.44575,1.0532 -0.96862,2.4107 -0.27402,0.7114 -0.54193,1.3993 -0.59534,1.5287 -0.0534,0.1293 -0.2379,0.632 -0.40996,1.1171 -0.17206,0.4851 -0.35929,0.9878 -0.41607,1.1171 -0.12315,0.2806 -0.57039,1.6565 -0.93647,2.881 -0.14502,0.4851 -0.35595,1.173 -0.46875,1.5288 -0.26668,0.841 -0.38707,1.2853 -0.82638,3.0498 -0.40083,1.61 -0.41753,1.6539 -0.62971,1.6539 -0.15021,0 -0.22887,-0.5296 -0.60263,-4.057 -0.32552,-3.0722 -0.46027,-4.2142 -0.75616,-6.4088 -0.0654,-0.4851 -0.17887,-1.3317 -0.25216,-1.8815 -0.21715,-1.6289 -0.70249,-4.473 -0.91306,-5.3504 -0.0621,-0.2587 -0.15091,-0.6556 -0.19741,-0.882 -0.16587,-0.8075 -0.67168,-2.553 -1.19186,-4.1128 -0.57062,-1.7111 -0.82618,-2.5832 -1.00016,-3.4131 -0.13622,-0.6498 -0.13888,-0.7552 -0.0348,-1.3783 0.0874,-0.5228 -0.21575,-3.1103 -0.43781,-3.737 -0.23009,-0.6494 -0.91666,-1.9924 -1.36172,-2.6637 -0.58057,-0.8756 -1.81266,-2.6122 -1.90626,-2.6867 -0.0406,-0.032 -0.43906,-0.588 -0.88543,-1.2348 -1.32732,-1.9231 -3.52148,-4.7579 -4.58154,-5.9191 -0.45135,-0.4945 -0.51605,-0.6569 -0.52627,-1.3209 -0.0126,-0.8168 0.27747,-1.6166 0.92956,-2.5632 0.32498,-0.4717 0.59088,-0.8774 0.59088,-0.9014 0,-0.024 -0.25135,-0.2127 -0.55856,-0.419 -0.76854,-0.5164 -1.42405,-1.1554 -1.617,-1.5764 -0.52248,-1.1399 -0.78663,-3.2521 -0.52205,-4.1745 0.18287,-0.6376 0.15812,-0.8265 -0.13518,-1.0319 -0.47347,-0.3317 -1.04605,-1.9397 -1.04711,-2.9406 -8.1e-4,-0.7667 0.20161,-1.2695 0.75975,-1.8873 0.56919,-0.63 1.3304,-0.9309 1.83068,-0.7237 0.52301,0.2166 0.8191,0.8707 0.8191,1.8094 0,0.4191 0.0529,0.7948 0.11759,0.8347 0.0647,0.04 0.1176,0.2019 0.1176,0.3598 0,0.2287 0.0605,0.287 0.29776,0.287 0.39036,0 1.11335,-0.3053 1.11335,-0.4702 0,-0.071 0.3148,-0.4432 0.69956,-0.8267 0.38476,-0.3836 0.90354,-1.0028 1.15285,-1.376 0.44483,-0.6659 1.0874,-1.9941 1.0874,-2.2477 0,-0.2419 0.48471,-1.0174 0.80115,-1.2818 0.35542,-0.297 1.39359,-0.3753 1.64478,-0.1241 0.10975,0.1098 0.14111,0 0.14111,-0.4745 0,-0.6391 -0.17391,-1.0358 -0.6679,-1.5234 -0.49096,-0.4847 -0.28345,-1.0442 0.24065,-0.6489 0.47335,0.3571 0.75499,0.9083 0.83544,1.6352 0.14347,1.2961 0.15696,1.3254 0.75024,1.626 0.3597,0.1823 0.9572,0.3291 1.72446,0.4238 0.64573,0.08 1.27119,0.1951 1.38991,0.2566 0.11873,0.062 0.24701,0.081 0.28508,0.043 0.0381,-0.038 0.13998,-0.7435 0.22648,-1.5677 0.30829,-2.9374 -0.23156,-4.3786 -1.93,-5.1523 -0.79263,-0.3611 -1.86814,-0.5292 -3.16882,-0.4951 -0.75097,0.02 -1.15162,-0.025 -1.44943,-0.1616 -1.31132,-0.6015 -2.33829,-1.0022 -3.70417,-1.4452 -1.4455,-0.4688 -2.20187,-0.5941 -3.58657,-0.5941 -1.45637,-10e-5 -1.99763,0.1197 -3.00532,0.665 -0.32707,0.177 -0.85624,0.4103 -1.17593,0.5184 -0.31969,0.1082 -0.72171,0.2962 -0.89338,0.4179 -0.17168,0.1217 -0.34325,0.2213 -0.38129,0.2213 -0.038,0 -0.20909,0.1191 -0.38013,0.2646 -1.52328,1.2959 -2.00479,2.8001 -1.88919,5.9015 0.0589,1.5808 0.1595,2.3253 0.56493,4.182 0.23104,1.0581 0.33453,1.7434 0.56826,3.763 0.28485,2.4614 0.4781,3.6645 0.61292,3.8159 0.0547,0.061 0.0995,0.469 0.0995,0.9056 0,1.6125 -0.53294,2.949 -2.35319,5.9013 -0.81356,1.3195 -0.9962,1.5394 -2.03101,2.4451 -2.23957,1.9603 -3.53387,6.3643 -3.01953,10.2742 0.28565,2.1714 0.61762,3.7388 1.14574,5.4093 0.17004,0.5378 1.17134,2.9544 1.60791,3.8806 0.21342,0.4527 0.50598,1.0877 0.65015,1.4111 0.14417,0.3233 0.41521,0.9223 0.60232,1.3311 0.18711,0.4087 0.3402,0.7665 0.3402,0.795 0,0.028 0.11111,0.3027 0.24691,0.6092 0.38454,0.8679 0.42015,0.9575 0.85214,2.1448 0.78167,2.1482 1.58707,4.654 1.85197,5.762 0.085,0.3557 0.21695,0.7526 0.29311,0.8819 0.0762,0.1294 0.16819,0.5263 0.2045,0.882 0.0363,0.3557 0.14804,1.1759 0.24828,1.8227 0.10025,0.6467 0.18257,1.6601 0.18296,2.2519 l 6.9e-4,1.076 0.55856,0.1224 c 0.30721,0.067 0.95544,0.2003 1.44051,0.2953 3.18541,0.6242 3.02323,0.6944 1.99741,-0.8646 -0.44682,-0.6791 -0.8552,-1.2877 -0.9075,-1.3523 -0.0523,-0.065 -0.40252,-0.5585 -0.77827,-1.0974 -0.37575,-0.5388 -0.75466,-1.068 -0.84203,-1.1759 -0.65874,-0.8135 -0.80108,-0.9605 -0.9301,-0.9605 -0.0803,0 -0.20715,-0.1191 -0.28181,-0.2646 -0.14441,-0.2815 -1.26306,-3.6687 -1.60199,-4.8507 -0.11126,-0.3881 -0.24485,-0.8378 -0.29685,-0.9995 -0.052,-0.1617 -0.15963,-0.5321 -0.23918,-0.8232 -0.0796,-0.291 -0.18498,-0.635 -0.23429,-0.7643 -0.0493,-0.1294 -0.28415,-0.8438 -0.52186,-1.5875 -0.23771,-0.7438 -0.4762,-1.4582 -0.52997,-1.5875 -0.0538,-0.1294 -0.24543,-0.6056 -0.42592,-1.0584 -0.18049,-0.4527 -0.45696,-1.1142 -0.61439,-1.4699 -0.15742,-0.3557 -0.35373,-0.8055 -0.43624,-0.9995 -0.0825,-0.194 -0.2551,-0.5909 -0.38354,-0.882 -0.12844,-0.291 -0.27021,-0.6614 -0.31505,-0.8231 -0.0448,-0.1617 -0.12937,-0.3998 -0.18784,-0.5292 -0.2528,-0.5592 -0.81057,-2.4602 -1.10411,-3.7629 -0.17487,-0.7762 -0.36762,-1.5737 -0.42832,-1.7723 -0.0607,-0.1986 -0.11037,-0.5259 -0.11037,-0.7273 0,-0.2014 -0.0471,-0.49 -0.10464,-0.6414 -0.16667,-0.4384 -0.29601,-2.5623 -0.15603,-2.5623 0.17178,0 0.37826,0.6601 0.37826,1.2092 0,0.2578 0.0495,0.66 0.10998,0.8938 0.0605,0.2339 0.19873,0.8486 0.30721,1.366 0.35415,1.6892 0.66873,2.7692 1.54132,5.2917 0.41721,1.2061 0.50165,1.4312 0.72752,1.9402 0.33178,0.7477 1.98866,5.0555 2.12577,5.5269 0.0847,0.291 0.19542,0.635 0.24617,0.7644 0.0871,0.2218 0.30774,0.9688 0.76431,2.587 0.10949,0.388 0.24107,0.8378 0.29238,0.9995 0.0513,0.1617 0.20863,0.6909 0.34958,1.176 0.35903,1.2355 0.82521,2.7196 0.94195,2.9986 0.0541,0.1293 0.12994,0.3328 0.16847,0.4521 0.0385,0.1193 0.17352,0.244 0.29998,0.2771 0.23646,0.062 0.58971,0.4954 1.89589,2.3273 0.83054,1.1648 2.92947,4.3772 2.92947,4.4836 0,0.037 0.0983,0.2075 0.21838,0.3792 0.1201,0.1717 0.35075,0.5503 0.51254,0.8413 0.16179,0.2911 0.41568,0.7408 0.56419,0.9995 0.45145,0.7864 2.51809,4.8886 2.87325,5.7033 0.18327,0.4204 0.43635,1.0025 0.56239,1.2935 0.12605,0.291 0.40546,0.8996 0.62091,1.3523 0.44945,0.9445 0.6447,2.1974 0.64523,4.1405 6.9e-4,2.4748 0.35242,4.6054 0.83191,5.0394 0.19898,0.18 0.26748,0.1867 0.52188,0.051 0.26486,-0.1417 0.29186,-0.225 0.2826,-0.8718 -0.006,-0.3933 -0.0459,-1.1822 -0.0894,-1.7532 -0.0436,-0.5709 -0.0412,-1.0997 0.005,-1.1749 0.19269,-0.3118 0.33792,0.1726 0.43666,1.4564 0.11814,1.5361 0.28206,2.2778 0.59515,2.6927 0.2024,0.2682 0.24156,0.2775 0.52666,0.1249 0.20125,-0.1077 0.28384,-0.2278 0.2383,-0.3464 -0.0929,-0.242 -0.0835,-2.2226 0.0146,-3.0899 0.0487,-0.4307 0.12779,-0.6744 0.20954,-0.646 0.0897,0.031 0.11881,0.4823 0.0919,1.4231 -0.0412,1.4437 0.11027,2.4423 0.4253,2.8031 0.20732,0.2375 0.6201,0.2698 0.82525,0.065 0.17825,-0.1783 0.18972,-2.2574 0.0176,-3.1885 -0.15973,-0.8641 -6.5e-4,-1.2498 0.28647,-0.6946 0.14176,0.2742 0.18995,0.7036 0.19027,1.6959 3.8e-4,1.1263 0.0367,1.3882 0.23834,1.7189 0.28729,0.4713 0.58333,0.4562 0.73384,-0.037 0.47938,-1.5718 0.39132,-3.5646 -0.24421,-5.5268 -0.29741,-0.9183 -0.66754,-1.8844 -1.06946,-2.7916 -0.1358,-0.3065 -0.24691,-0.5899 -0.24691,-0.6297 0,-0.04 -0.13229,-0.2298 -0.29398,-0.4219 -0.16169,-0.1922 -0.29398,-0.4342 -0.29398,-0.5378 0,-0.173 -0.14047,-0.6761 -0.35278,-1.2635 -0.0894,-0.2473 -0.14006,-0.4125 -0.64934,-2.1166 -0.17395,-0.5821 -0.35626,-1.1642 -0.40513,-1.2936 -0.0489,-0.1293 -0.14442,-0.4203 -0.21232,-0.6467 -0.88992,-2.967 -2.20414,-7.0074 -2.38046,-7.3186 -0.0636,-0.1123 -0.11571,-0.2584 -0.11571,-0.3246 0,-0.1647 -0.30734,-0.8327 -1.67725,-3.6457 -1.50886,-3.0983 -1.71409,-3.5451 -2.37688,-5.1741 -0.50313,-1.2366 -0.72208,-1.7573 -1.01371,-2.4106 -0.21607,-0.4841 -0.92938,-2.7854 -0.92938,-2.9984 0,-0.1219 -0.0529,-0.2542 -0.1176,-0.2942 -0.0647,-0.04 -0.11759,-0.1776 -0.11759,-0.3057 0,-0.1282 -0.10227,-0.5617 -0.22727,-0.9632 -0.12499,-0.4016 -0.36871,-1.2064 -0.5416,-1.7885 -0.17288,-0.5821 -0.35766,-1.1642 -0.41061,-1.2935 -0.0896,-0.219 -0.66407,-1.7745 -1.18336,-3.2044 -0.12331,-0.3396 -0.32668,-0.8952 -0.45194,-1.2348 -1.08717,-2.947 -1.96999,-6.7909 -1.55966,-6.7909 0.18711,0 0.37629,0.2884 0.37629,0.5737 0,0.1603 0.0493,0.454 0.10963,0.6526 0.0603,0.1987 0.16563,0.5728 0.2341,0.8315 0.27368,1.0342 1.10969,3.6738 1.30357,4.1158 0.0567,0.1293 0.29441,0.7908 0.52817,1.4699 0.23375,0.6791 0.47105,1.3405 0.52732,1.4699 0.23003,0.5287 0.8078,2.1621 0.9983,2.8222 0.11198,0.3881 0.24956,0.8379 0.30573,0.9996 0.0562,0.1616 0.29201,0.9818 0.52407,1.8226 0.44794,1.623 0.6207,2.207 0.76521,2.5871 0.0492,0.1293 0.15623,0.4204 0.23787,0.6467 0.0816,0.2264 0.32511,0.7964 0.54103,1.2667 0.21593,0.4704 0.3926,0.9008 0.3926,0.9565 0,0.254 1.07408,2.6605 2.30102,5.1553 0.73939,1.5035 1.34435,2.7609 1.34435,2.7942 0,0.033 0.11199,0.3112 0.24886,0.6177 0.42425,0.95 0.54174,1.2468 0.68618,1.7332 0.0768,0.2587 0.18288,0.5762 0.23568,0.7056 0.0528,0.1294 0.35339,1.0287 0.66797,1.9986 l 0.57195,1.7633 0.41158,0.082 c 0.22636,0.045 0.6497,0.1405 0.94074,0.2117 0.29104,0.071 0.71437,0.1739 0.94074,0.2283 0.68776,0.165 2.38718,0.7033 2.99861,0.9497 0.12935,0.052 0.44685,0.1743 0.70556,0.2716 0.2587,0.097 0.94662,0.3957 1.5287,0.6633 0.58208,0.2676 1.16417,0.5343 1.29352,0.5926 0.38351,0.1729 1.26889,0.4443 1.7338,0.5316 0.48819,0.091 0.73634,0.3199 0.6349,0.5843 -0.15936,0.4153 -1.65905,0.059 -3.61993,-0.8607 -1.58884,-0.7449 -2.973,-1.2938 -3.92285,-1.5556 -0.19402,-0.053 -0.53798,-0.1492 -0.76435,-0.2127 -0.89228,-0.2505 -2.37578,-0.6033 -2.53668,-0.6033 -0.12477,0 -0.14111,0.055 -0.0615,0.2058 0.14328,0.2719 0.95187,2.8716 0.95187,3.0604 0,0.081 0.0478,0.2391 0.10613,0.3514 0.0584,0.1123 0.17023,0.4423 0.24859,0.7333 0.0784,0.2911 0.18331,0.635 0.23324,0.7644 0.0499,0.1293 0.15783,0.4733 0.23978,0.7643 0.13146,0.4669 0.36945,1.0867 0.88049,2.2931 0.5934,1.4008 0.86612,2.1124 1.1041,2.881 0.15019,0.4851 0.31502,0.9878 0.36628,1.1171 0.16895,0.4264 0.34916,1.6152 0.34916,2.3033 v 0.6766 l 0.79375,0.069 c 1.1655,0.1008 4.0956,0.4289 4.90949,0.5497 3.56097,0.5286 5.83175,0.5297 7.87619,0 0.55739,-0.1434 2.07265,-0.897 2.44397,-1.2155 2.32324,-1.9928 3.794,-4.6234 4.11818,-7.3656 0.12726,-1.0765 0.0455,-2.5113 -0.28238,-4.9574 -0.22963,-1.713 -0.25291,-3.3307 -0.0635,-4.4114 0.6343,-3.6186 1.42951,-6.6319 2.21501,-8.3935 0.1329,-0.298 0.31979,-0.7271 0.4153,-0.9535 0.30705,-0.7277 1.70053,-3.4586 1.92935,-3.7811 0.12181,-0.1717 0.22148,-0.3442 0.22148,-0.3834 0,-0.095 2.36229,-3.7562 2.47213,-3.8318 0.047,-0.032 0.23763,-0.2978 0.42358,-0.5899 0.3103,-0.4874 0.95921,-1.3863 1.10215,-1.5267 0.0329,-0.032 0.52807,-0.6806 1.10033,-1.4405 0.57226,-0.76 1.08636,-1.3818 1.14245,-1.3818 0.12619,0 0.0606,-0.1916 -0.42234,-1.2347 -0.20963,-0.4527 -0.55251,-1.3258 -0.76196,-1.9403 -0.64262,-1.8851 -0.83438,-2.162 -1.79026,-2.5848 -0.60165,-0.2662 -0.74583,-0.5168 -0.56736,-0.9862 0.14053,-0.3696 0.33542,-0.3861 0.93654,-0.08 0.67914,0.3465 1.07308,0.8752 1.53707,2.063 0.49226,1.2602 0.81461,2.0314 1.19689,2.8633 0.24813,0.54 0.45115,1.0037 0.45115,1.0304 0,0.027 0.17868,0.4316 0.39708,0.8997 0.61679,1.322 0.83607,1.8397 1.18235,2.7914 0.1765,0.485 0.36381,0.9877 0.41626,1.1171 0.17799,0.439 0.74706,2.3876 1.29641,4.4391 0.45566,1.7017 0.78804,3.1973 0.882,3.9688 0.0433,0.3557 0.12411,0.8319 0.17953,1.0583 0.52685,2.1518 1.04617,3.7678 1.81069,5.6344 0.60934,1.4878 0.83684,2.0033 1.92456,4.361 0.19394,0.4204 0.47019,1.0289 0.61389,1.3523 0.14369,0.3234 0.40746,0.9055 0.58615,1.2935 0.61833,1.3428 0.83175,1.8373 1.29768,3.0068 0.54462,1.367 1.01948,2.6994 1.17059,3.2844 0.0585,0.2264 0.16574,0.6233 0.23839,0.882 0.4337,1.5444 0.69225,3.1419 0.80414,4.9688 0.10398,1.6976 0.26346,2.2661 0.7667,2.7329 1.02235,0.9482 1.90733,1.4117 2.69553,1.4117 0.66248,0 0.8117,-0.1905 0.40667,-0.519 -0.16631,-0.135 -0.51954,-0.421 -0.78494,-0.6357 -0.55376,-0.4478 -0.94943,-1.1424 -0.94943,-1.6666 0,-0.5066 0.30291,-1.1769 0.53184,-1.1769 0.18373,0 1.74616,0.4865 2.23159,0.6948 0.12935,0.055 0.59565,0.2467 1.03622,0.425 1.33922,0.5417 1.67631,1.0601 1.80803,2.7803 0.0768,1.0024 0.1613,1.0512 0.62473,0.3601 z m -43.86752,-46.7442 c -0.10002,-0.079 -0.25101,-0.313 -0.33551,-0.5203 -0.13394,-0.3287 -0.1257,-0.4343 0.0643,-0.8232 0.27121,-0.5552 0.53961,-0.614 0.92147,-0.202 0.22812,0.2462 0.296,0.4449 0.296,0.8667 0,0.301 -0.0635,0.6108 -0.14111,0.6884 -0.17986,0.1798 -0.57048,0.1752 -0.80512,-0.01 z M 336.88222,1138.61 c -0.1584,-0.296 0.0525,-0.6143 0.40709,-0.6143 0.16055,0 0.48189,-0.079 0.71407,-0.1764 0.24605,-0.1028 0.78476,-0.1764 1.29134,-0.1764 0.47805,0 0.96729,-0.061 1.08719,-0.1362 0.11991,-0.075 0.3044,-0.103 0.40998,-0.062 0.22577,0.087 0.2576,0.6145 0.045,0.7459 -0.0808,0.05 -0.64969,0.1216 -1.26412,0.1591 -0.69498,0.042 -1.26838,0.144 -1.51738,0.2688 -0.52273,0.2621 -1.0304,0.2586 -1.17315,-0.01 z m 1.18025,-11.9398 c -0.25062,-0.302 -0.0594,-1.8656 0.33542,-2.7427 0.34547,-0.7676 0.75743,-1.2727 0.94396,-1.1574 0.18471,0.1141 0.1293,0.5825 -0.0979,0.8277 -0.4082,0.4405 -0.78361,1.4096 -0.90368,2.3327 -0.10394,0.7991 -0.14273,0.9024 -0.27778,0.7397 z m 73.3062,79.4603 c 0.0998,-0.5119 0.20973,-1.0894 0.24432,-1.2835 0.0555,-0.3113 -0.0179,-0.4297 -0.6227,-1.0054 -0.37708,-0.3589 -0.88293,-0.7445 -1.1241,-0.8568 -0.56385,-0.2627 -1.38419,-0.5523 -1.38419,-0.4888 0,0.027 0.32935,0.2729 0.73188,0.5462 0.66832,0.4539 1.17407,0.9357 1.42114,1.3538 0.19848,0.3359 0.43402,1.4879 0.43402,2.1227 0,0.3633 0.0266,0.634 0.0591,0.6015 0.0325,-0.033 0.14074,-0.4779 0.24053,-0.9897 z m 0.91745,-1.2598 c -0.0759,-0.2219 -0.10037,-0.1917 -0.17108,0.2115 -0.0454,0.2588 -0.11718,0.6027 -0.15958,0.7644 -0.0424,0.1617 0.0346,0.066 0.17108,-0.2116 0.16601,-0.3382 0.21885,-0.5913 0.15958,-0.7643 z m -12.08485,0.8738 c -0.0347,-0.056 -0.2658,-0.1346 -0.51352,-0.1742 -0.63433,-0.1014 -0.89014,-0.4204 -1.37315,-1.7122 -0.10665,-0.2852 -0.39957,-0.7523 -0.65093,-1.0378 -0.46376,-0.5269 -1.14747,-1.8206 -1.41469,-2.6769 -0.0807,-0.2587 -0.18852,-0.5762 -0.23953,-0.7056 -0.051,-0.1293 -0.26059,-0.685 -0.46573,-1.2347 -0.20515,-0.5498 -0.46755,-1.2112 -0.58313,-1.4699 -0.11557,-0.2587 -0.32712,-0.735 -0.4701,-1.0584 -0.14297,-0.3233 -1.0708,-2.2283 -2.06184,-4.2333 -2.64092,-5.3428 -3.3512,-7.19 -3.9339,-10.2305 -0.0744,-0.3881 -0.18495,-0.8681 -0.24574,-1.0667 -0.0608,-0.1987 -0.11052,-0.4463 -0.11052,-0.5503 0,-0.2519 -0.77377,-2.603 -1.06382,-3.2325 -0.12634,-0.2741 -0.2297,-0.5294 -0.2297,-0.5671 0,-0.097 -2.15928,-4.4487 -2.24293,-4.52 -0.0379,-0.032 -0.14383,-0.2309 -0.23533,-0.4412 -0.0915,-0.2103 -0.21534,-0.366 -0.2752,-0.3461 -0.0599,0.02 -0.49586,0.6154 -0.9689,1.3231 -0.47304,0.7078 -0.91381,1.3508 -0.9795,1.4289 -0.0657,0.078 -0.11944,0.1702 -0.11944,0.2046 0,0.034 -0.23812,0.434 -0.52917,0.8881 -0.29104,0.454 -0.52916,0.8779 -0.52916,0.9419 0,0.064 -0.0529,0.1164 -0.11759,0.1164 -0.0647,0 -0.1176,0.048 -0.1176,0.1078 0,0.059 -0.27934,0.6016 -0.62075,1.2053 -0.61328,1.0844 -0.81264,1.4815 -1.43648,2.8615 -0.44145,0.9765 -0.48342,1.0821 -0.7473,1.8814 -0.54061,1.6375 -0.77969,2.8307 -0.89374,4.4602 -0.0406,0.58 -0.14018,1.0467 -0.26351,1.2347 -0.26699,0.4072 -0.34964,3.0151 -0.15119,4.7709 0.0804,0.7114 0.18872,1.6639 0.24069,2.1166 0.052,0.4528 0.13224,1.3155 0.17837,1.9173 0.1688,2.2023 -0.46633,4.382 -1.93024,6.6245 -0.76931,1.1784 -0.88292,1.3189 -1.81711,2.2474 l -0.79869,0.7937 1.38595,0.016 c 0.76227,0.01 3.07928,0.052 5.14891,0.095 5.77131,0.1217 21.24784,0.1376 21.17621,0.022 z m 5.62638,-0.094 0.46185,-0.067 -0.40306,-0.1465 c -0.22167,-0.081 -0.77346,-0.2827 -1.22619,-0.4493 -0.45274,-0.1666 -0.9819,-0.3193 -1.17593,-0.3394 -0.31104,-0.032 -0.35732,0 -0.39117,0.299 -0.0259,0.2268 0.0497,0.4294 0.23329,0.6248 0.25598,0.2725 0.32276,0.2851 1.15552,0.2173 0.48611,-0.04 1.09167,-0.1021 1.34569,-0.139 z m -5.75613,-1.5464 c -0.10388,-1.1265 -0.30314,-2.6425 -0.41243,-3.1377 -0.5173,-2.344 -1.2105,-4.4523 -2.16511,-6.5852 -0.0868,-0.194 -0.29589,-0.6586 -0.46456,-1.0324 -0.16867,-0.3738 -0.30667,-0.7008 -0.30667,-0.7267 0,-0.026 -0.15263,-0.3816 -0.33918,-0.7903 -0.18654,-0.4088 -0.50404,-1.1041 -0.70555,-1.5451 -0.20151,-0.4411 -0.36639,-0.8253 -0.36639,-0.8539 0,-0.029 -0.1111,-0.3026 -0.2469,-0.6091 -0.1358,-0.3065 -0.28915,-0.6631 -0.34079,-0.7925 -0.0516,-0.1293 -0.17452,-0.4204 -0.27309,-0.6467 -0.0986,-0.2264 -0.29062,-0.7027 -0.4268,-1.0584 -0.13619,-0.3557 -0.30614,-0.779 -0.37769,-0.9407 -0.0715,-0.1617 -0.17052,-0.3998 -0.21995,-0.5292 -0.0494,-0.1293 -0.16883,-0.4204 -0.26535,-0.6467 -0.0965,-0.2264 -0.29257,-0.7556 -0.4357,-1.176 -0.14313,-0.4204 -0.30074,-0.8701 -0.35025,-0.9995 -0.41416,-1.082 -0.94176,-3.2545 -1.11374,-4.5861 -0.0418,-0.3234 -0.11993,-0.7203 -0.17371,-0.882 -0.0538,-0.1616 -0.16287,-0.585 -0.24243,-0.9407 -0.14223,-0.6359 -0.57891,-2.3098 -0.84362,-3.2338 -0.31485,-1.099 -1.17144,-3.5977 -1.46135,-4.2627 -0.34515,-0.7918 -0.5293,-1.2034 -0.79413,-1.7751 l -0.27281,-0.5888 -1.29649,1.7258 c -0.71306,0.9492 -1.36053,1.8316 -1.4388,1.961 -0.12247,0.2024 -0.0587,0.391 0.45734,1.3523 0.32982,0.6144 1.01497,1.9638 1.52256,2.9986 1.26919,2.5875 1.61143,3.6479 2.54289,7.8787 0.17087,0.7761 0.35751,1.5699 0.41477,1.7639 0.26145,0.886 0.75072,2.2763 0.94921,2.6973 0.12007,0.2547 0.21832,0.5325 0.21832,0.6174 0,0.085 0.04,0.1543 0.0889,0.1543 0.0489,0 0.16334,0.172 0.25432,0.3822 0.091,0.2102 0.88503,1.8374 1.76453,3.6159 1.97755,3.9992 2.23846,4.5836 2.70365,6.0561 0.20433,0.6467 0.4171,1.2817 0.47282,1.4111 0.0557,0.1293 0.16793,0.4204 0.24935,0.6467 0.37382,1.0393 1.49673,3.1737 1.95545,3.7169 0.35704,0.4227 0.50729,0.7074 0.50729,0.9611 0,0.504 0.47877,1.0452 0.93613,1.0582 l 0.3576,0.01 z m 10.38613,-1.8256 c -0.271,-0.271 -0.65354,-0.4307 -0.99778,-0.4165 -0.22963,0.01 -0.26282,0.031 -0.10829,0.071 0.12255,0.031 0.38713,0.1538 0.58796,0.272 0.45397,0.2672 0.75431,0.31 0.51811,0.074 z m -73.40983,-17.7018 c -0.0447,-0.6224 -0.12547,-1.3433 -0.17957,-1.602 -0.0541,-0.2587 -0.16068,-0.7878 -0.23685,-1.1759 -0.26162,-1.3329 -0.0948,-1.2347 -2.09825,-1.2347 -1.94345,0 -2.42424,0.1153 -2.80878,0.6736 -0.41171,0.5978 -0.73588,1.8562 -0.73588,2.8567 v 0.4297 l 1.38171,0.3189 c 1.74096,0.4019 2.1534,0.4913 3.02801,0.6566 0.38805,0.073 0.89076,0.1734 1.11713,0.2225 0.22636,0.049 0.45705,0.066 0.51263,0.038 0.0556,-0.028 0.0645,-0.5608 0.0199,-1.1832 z m 62.96752,-18.8071 c 0,-0.053 -0.094,-0.198 -0.20881,-0.3234 -0.3081,-0.3363 -0.65525,-0.9736 -0.89296,-1.6391 -0.11551,-0.3233 -0.25279,-0.6938 -0.30507,-0.8231 -0.37467,-0.927 -0.80273,-3.3346 -1.05581,-5.9384 -0.0723,-0.7438 -0.18278,-1.8081 -0.24551,-2.3652 -0.0627,-0.5571 -0.11504,-1.245 -0.11623,-1.5287 -10e-4,-0.2837 -0.0792,-0.9516 -0.17343,-1.4841 -0.0942,-0.5325 -0.14223,-1.0439 -0.10673,-1.1364 0.0355,-0.093 -0.16984,-0.6622 -0.45628,-1.266 -0.58999,-1.2437 -0.93941,-2.3173 -1.19927,-3.6849 -0.19691,-1.0363 -0.241,-2.7634 -0.0705,-2.7634 0.12921,0 0.20466,0.364 0.30462,1.4699 0.0695,0.7691 0.11602,1.009 0.43299,2.2342 0.4103,1.586 1.46601,3.491 2.30132,4.1525 0.44656,0.3537 1.4015,0.8043 1.49866,0.7071 0.0275,-0.027 -0.1316,-0.259 -0.35351,-0.5145 -0.44388,-0.511 -1.00642,-1.574 -1.28162,-2.4218 -0.31837,-0.9808 -0.41104,-1.9929 -0.47755,-5.2159 -0.0966,-4.6802 -0.33572,-6.2581 -1.24763,-8.2323 -0.58558,-1.2678 -1.89173,-2.6567 -3.92967,-4.1787 -1.64922,-1.2317 -1.6022,-1.1935 -1.93503,-1.5715 -1.34883,-1.532 -2.82068,-2.6129 -4.06389,-2.9845 -1.01845,-0.3044 -1.91128,-0.3895 -2.72915,-0.26 -4.39396,0.6954 -8.35721,3.5512 -9.23534,6.6546 -0.0715,0.2527 -0.12754,0.8299 -0.12454,1.2826 0.005,0.7416 0.0375,1.0237 0.2208,1.9109 0.0301,0.1455 0.10657,0.2646 0.17001,0.2646 0.15595,0 0.14577,-0.7061 -0.0191,-1.3224 -0.11937,-0.4463 -0.0992,-0.6047 0.18011,-1.4139 0.40418,-1.171 0.80254,-1.8373 1.97913,-3.3101 1.0411,-1.3033 1.93052,-2.0919 2.08229,-1.8463 0.0639,0.1035 0.14777,0.057 0.28967,-0.1591 0.42402,-0.6472 0.57825,0.046 0.18934,0.8509 -0.16643,0.3445 -0.23518,0.7274 -0.23518,1.31 0,0.7665 0.0531,1.0052 0.39501,1.7751 0.13656,0.3076 1.14086,1.8972 1.26295,1.9991 0.16232,0.1355 1.6243,2.3308 1.84033,2.7634 1.15179,2.3069 0.65713,4.8724 -1.42578,7.3945 -0.42991,0.5206 -0.44721,0.5657 -0.18558,0.4844 0.89893,-0.2793 2.10368,-0.9905 2.65092,-1.5648 0.4075,-0.4277 1.1486,-1.5289 1.32115,-1.9631 0.24735,-0.6225 0.48686,-1.9766 0.4888,-2.7635 0.003,-1.1766 -0.42116,-3.3327 -0.72736,-3.6982 -0.13394,-0.1599 -0.11588,-0.8879 0.022,-0.8879 0.2682,0 0.89576,1.6231 1.17303,3.0338 0.31814,1.6187 -0.11561,4.0023 -1.00422,5.5186 -0.36652,0.6255 -1.64097,1.9359 -2.12723,2.1874 -0.1846,0.095 -0.44597,0.3771 -0.58083,0.6259 -0.48473,0.8943 -0.90206,1.6305 -0.98975,1.7459 -0.0491,0.065 -0.20828,0.3293 -0.35367,0.588 -0.14538,0.2587 -0.39856,0.7085 -0.56261,0.9995 -0.16405,0.2911 -0.40792,0.7408 -0.54194,0.9995 -0.13402,0.2588 -0.27165,0.4969 -0.30585,0.5292 -0.0342,0.032 -0.23969,0.4557 -0.45662,0.9408 -0.60146,1.3448 -0.68505,1.5499 -0.8388,2.0578 -0.0783,0.2587 -0.1832,0.5802 -0.23309,0.7145 -0.40921,1.1013 -0.42869,3.5861 -0.0373,4.7536 l 0.21684,0.6467 0.0713,-1.6463 c 0.0392,-0.9054 0.12692,-1.8579 0.19485,-2.1166 0.78899,-3.0047 2.83524,-6.0394 5.77515,-8.5651 0.66982,-0.5754 2.26824,-1.6198 2.40864,-1.5738 0.0739,0.024 0.14987,0.1735 0.16892,0.3317 0.0297,0.2467 -0.1168,0.3851 -1.02894,0.9715 -0.58496,0.3761 -1.06357,0.7258 -1.06357,0.7772 0,0.051 0.40622,0.1314 0.9027,0.1779 0.49649,0.047 1.01242,0.1266 1.14653,0.178 0.1341,0.051 0.48195,0.1614 0.77299,0.2446 0.62371,0.1782 2.15826,0.9153 2.21466,1.0637 0.0216,0.057 0.10875,0.1031 0.19375,0.1031 0.085,0 0.60379,0.4365 1.15286,0.9701 1.50082,1.4585 2.51879,3.1417 3.25127,5.3759 0.59045,1.801 0.7723,2.583 1.01277,4.3549 0.18733,1.3803 0.35386,1.9991 0.53803,1.9991 0.0568,0 0.10333,0.059 0.10333,0.132 0,0.2219 1.05834,1.6303 1.76262,2.3456 0.36583,0.3716 1.00023,0.8921 1.40977,1.1568 0.80218,0.5185 0.82576,0.5295 0.82576,0.3859 z m -8.89944,-18.7488 c 0.0746,-1.0168 -0.0838,-3.6872 -0.28429,-4.7919 -0.28217,-1.5547 -0.79657,-3.6129 -1.05066,-4.2039 -0.0626,-0.1456 -0.1614,-0.3837 -0.21963,-0.5292 -0.0582,-0.1455 -0.21982,-0.5214 -0.35907,-0.8352 -0.26005,-0.5862 -0.27799,-0.9066 -0.0549,-0.9808 0.25668,-0.086 1.16212,2.1625 1.57214,3.9033 0.0762,0.3234 0.18368,0.7731 0.23891,0.9995 0.39843,1.6328 0.60167,4.4716 0.49464,6.9086 -0.0165,0.3762 -0.0697,0.4997 -0.21514,0.4997 -0.16934,0 -0.1844,-0.1197 -0.12199,-0.9701 z m -14.92671,-0.2256 c 0.26621,-0.076 0.53429,-0.1814 0.59573,-0.2352 0.0614,-0.054 0.2081,-0.098 0.3259,-0.098 0.11781,0 0.41149,-0.1275 0.65264,-0.2835 0.24115,-0.1559 0.72949,-0.4031 1.08521,-0.5492 0.79924,-0.3284 0.94074,-0.4335 0.94074,-0.699 0,-0.1151 0.26612,-0.4644 0.59138,-0.7761 0.56566,-0.5421 1.55751,-1.8919 1.84693,-2.5135 0.68097,-1.4624 0.67975,-3.387 -0.003,-4.8213 -0.26438,-0.5553 -0.8851,-1.4707 -1.43531,-2.1166 -0.303,-0.3557 -0.64108,-0.7538 -0.7513,-0.8845 -1.05668,-1.2536 -1.65258,-2.882 -1.42069,-3.8821 0.13628,-0.5878 0.13956,-0.7603 0.0144,-0.7603 -0.27715,0 -2.60109,2.3385 -2.60429,2.6206 -5.7e-4,0.051 -0.0936,0.2336 -0.20677,0.4063 -0.19352,0.2954 -0.49415,1.0413 -0.49806,1.2359 -9.7e-4,0.048 0.27229,0.088 0.60725,0.088 0.33495,0 0.79797,0.064 1.02893,0.1433 0.57801,0.1972 1.41946,0.7737 1.41946,0.9725 0,0.2542 -0.1923,0.3122 -0.36098,0.109 -0.31505,-0.3796 -1.08278,-0.6645 -1.83293,-0.6802 -1.019,-0.021 -1.13751,0.1106 -0.95941,1.0682 0.17446,0.9382 0.43951,1.086 1.43048,0.7979 0.36309,-0.1056 0.69072,-0.2414 0.72807,-0.3018 0.0374,-0.06 0.12138,-0.1099 0.18674,-0.1099 0.18024,0 0.0687,0.4936 -0.13271,0.5871 -0.097,0.045 -0.30029,0.1465 -0.45173,0.2255 -0.15144,0.079 -0.60123,0.136 -0.99954,0.1266 -1.0008,-0.023 -1.01817,-0.02 -1.01817,0.1767 0,0.096 -0.38673,0.7445 -0.85939,1.4405 -0.94953,1.3981 -1.0579,1.6141 -0.96178,1.9169 0.0568,0.179 0.11399,0.1886 0.42449,0.072 0.37659,-0.1418 0.49537,-0.063 0.87981,0.585 0.11171,0.1883 0.157,0.1965 0.32338,0.058 0.24587,-0.2041 0.24731,-0.5906 0.003,-0.9387 -0.27538,-0.3931 -0.0332,-0.5901 0.29387,-0.2391 0.30771,0.3303 0.33739,1.1061 0.0543,1.4189 -0.10704,0.1183 -0.34516,0.2151 -0.52917,0.2151 -0.2597,0 -0.33455,0.054 -0.33455,0.2429 0,0.1336 -0.0577,0.3507 -0.12816,0.4824 -0.10937,0.2043 -0.0706,0.2882 0.26458,0.5723 0.39614,0.3357 0.68536,0.5053 1.0761,0.6311 0.20558,0.066 0.20558,0.081 0,0.4361 -0.11714,0.2022 -0.32432,0.4418 -0.46039,0.5324 -0.20643,0.1374 -0.25999,0.3283 -0.32334,1.1525 -0.0873,1.1358 -0.0458,1.304 0.3789,1.5348 0.38305,0.2081 0.51106,0.2127 1.11894,0.04 z m -22.94649,-2.591 c 0.45736,-0.1729 1.14671,-1.3077 1.14671,-1.8876 0,-0.2468 0.0856,-0.5794 0.1903,-0.7392 0.24972,-0.3811 0.0499,-0.642 -0.49174,-0.642 -0.76359,0 -0.64128,-0.261 0.48708,-1.0392 l 0.8139,-0.5614 0.0353,-0.6696 c 0.0247,-0.4681 -0.008,-0.6696 -0.10834,-0.6696 -0.50295,0 -0.74919,-0.8731 -0.39063,-1.385 0.28002,-0.3998 0.42495,-0.3155 0.38344,0.223 -0.0564,0.7318 0.19712,0.8298 0.9301,0.3594 0.71199,-0.4569 0.90212,-0.4751 0.82647,-0.079 -0.0724,0.3788 0.0871,0.3762 0.33707,-0.01 0.16473,-0.2514 0.17448,-0.3715 0.061,-0.7504 -0.0743,-0.2481 -0.21429,-0.5168 -0.311,-0.597 -0.0967,-0.08 -0.17585,-0.2066 -0.17585,-0.2807 0,-0.074 -0.2123,-0.3917 -0.47177,-0.7057 -0.25947,-0.314 -0.5018,-0.6906 -0.53851,-0.8368 l -0.0667,-0.2659 -0.60635,0.2216 c -0.70616,0.2581 -0.90215,0.2708 -1.3097,0.085 -0.56175,-0.2559 -0.36455,-0.4514 0.45531,-0.4514 0.87633,0 1.40394,-0.2417 1.60982,-0.7374 0.11935,-0.2873 0.10232,-0.3547 -0.14453,-0.5715 -0.24788,-0.2178 -0.38401,-0.2389 -1.19213,-0.1851 -0.62047,0.041 -1.04259,0.1376 -1.31963,0.3011 -0.40835,0.2409 -0.61664,0.1732 -0.48918,-0.1589 0.19395,-0.5055 2.08213,-0.8114 3.01049,-0.4878 0.28852,0.1006 0.53533,0.172 0.54847,0.1587 0.0387,-0.039 -0.19431,-2.9506 -0.24872,-3.1073 -0.0819,-0.2359 -0.84943,-0.4943 -1.68551,-0.5675 -1.20304,-0.1053 -1.8902,-0.2866 -2.72075,-0.7176 -1.0404,-0.54 -1.5505,-0.5337 -2.07802,0.026 -0.21783,0.231 -0.39606,0.4963 -0.39606,0.5896 0,0.093 -0.0501,0.2615 -0.11132,0.3738 -0.0612,0.1123 -0.19666,0.4786 -0.30096,0.8141 -0.26381,0.8484 -0.92963,1.8305 -1.90491,2.8096 -0.45608,0.4579 -0.86569,0.9473 -0.91024,1.0877 -0.0594,0.1872 -0.17505,0.2553 -0.43359,0.2553 -0.19393,0 -0.45994,0.057 -0.59114,0.1276 -0.3285,0.1758 -0.79907,-0.2646 -0.81796,-0.7655 -0.008,-0.2115 -0.0365,-0.2734 -0.0687,-0.1492 -0.0316,0.1218 -0.13866,0.1959 -0.25095,0.1735 -0.14957,-0.03 -0.18675,-0.1426 -0.15729,-0.4769 0.0317,-0.3593 0.005,-0.4251 -0.14699,-0.3667 -0.13394,0.051 -0.18557,10e-5 -0.18557,-0.1843 0,-0.6784 -0.54586,-0.9274 -1.03474,-0.472 -0.26815,0.2499 -0.35077,0.49 -0.40342,1.1727 -0.0528,0.6844 -0.26248,0.4089 -0.33436,-0.4392 l -0.0674,-0.7955 -0.0208,0.9536 c -0.0188,0.862 0.015,1.023 0.35163,1.6757 0.20482,0.3972 0.43644,0.7221 0.5147,0.7221 0.10574,0 0.13865,0.4607 0.12808,1.7933 -0.0126,1.584 0.0175,1.8882 0.25758,2.6067 0.43718,1.3085 1.06765,2.0658 2.31381,2.7792 1.83219,1.049 3.69957,1.96 4.8213,2.352 0.8306,0.2903 1.05777,0.3218 1.94028,0.2693 0.54974,-0.033 1.14497,-0.1144 1.32273,-0.1817 z m 21.66662,-0.5877 c 0.23495,-0.2339 0.23465,-0.234 -0.29398,-0.1505 -0.67056,0.1059 -0.74958,0.1557 -0.57707,0.3635 0.16989,0.2047 0.54309,0.1135 0.87105,-0.213 z m -0.64676,-0.7408 c -0.0805,-0.097 -0.19931,-0.1764 -0.26398,-0.1764 -0.0656,0 -0.0529,0.078 0.0288,0.1764 0.0805,0.097 0.1993,0.1764 0.26398,0.1764 0.0656,0 0.0529,-0.078 -0.0288,-0.1764 z m -18.75537,-1.9414 c 0.12282,-0.1987 -0.0624,-0.5869 -0.28008,-0.5869 -0.11263,0 -0.30191,0.071 -0.42063,0.1579 -0.20609,0.1506 -0.20327,0.1666 0.0625,0.3527 0.31757,0.2225 0.53206,0.2481 0.63822,0.076 z m 0.17574,-1.1304 c 0,-0.1563 -0.0319,-0.1643 -0.17639,-0.044 -0.097,0.08 -0.17639,0.1663 -0.17639,0.1907 0,0.024 0.0794,0.044 0.17639,0.044 0.097,0 0.17639,-0.086 0.17639,-0.1907 z m -11.64167,-8.5752 c 0,-0.4108 -0.0669,-0.6014 -0.28863,-0.8232 -0.26181,-0.2618 -0.53451,-0.3791 -0.53451,-0.2298 0,0.032 0.10202,0.1608 0.2267,0.2855 0.12469,0.1247 0.26299,0.4686 0.30734,0.7643 0.10393,0.6931 0.2891,0.6951 0.2891,0 z m 12.75467,79.9028 c -0.0422,-0.068 -0.0477,-0.2403 -0.0121,-0.3822 l 0.0647,-0.2579 36.82852,0.03 c 27.1581,0.022 36.8704,-0.01 36.98801,-0.1026 0.0944,-0.078 0.15949,-0.3666 0.15949,-0.7059 0,-0.3155 0.0538,-0.5736 0.11956,-0.5736 0.12668,0 0.0725,1.7835 -0.0608,1.9991 -0.10452,0.1691 -73.98293,0.1624 -74.08746,-0.01 z"
       id="path64" /></g></svg>
