<?xml version="1.0" encoding="UTF-8" standalone="no"?>
<!-- Created with Inkscape (http://www.inkscape.org/) -->

<svg
   width="127.77579mm"
   height="74.710129mm"
   viewBox="0 0 127.7758 74.710128"
   version="1.1"
   id="svg1"
   xml:space="preserve"
   xmlns="http://www.w3.org/2000/svg"
   xmlns:svg="http://www.w3.org/2000/svg"><defs
     id="defs1" /><g
     id="layer1"
     transform="translate(-173.70507,60.528701)"><path
       style="fill:#4d4d4d"
       d="m 189.75645,14.067497 c -0.04,-0.0647 -0.14988,-0.1176 -0.24425,-0.1176 -0.0944,0 -0.5278,-0.22074 -0.96319,-0.49054 -1.46802,-0.90968 -2.19667,-1.25067 -3.73144,-1.74622 -0.84079,-0.27147 -1.62059,-0.54072 -1.7329,-0.59832 -0.1123,-0.0576 -0.27891,-0.10473 -0.37023,-0.10473 -0.16354,0 -1.41839,-0.62277 -1.66166,-0.82466 -0.0686,-0.057 -0.46672,-0.11961 -0.88463,-0.13922 l -0.75984,-0.0357 -0.20205,-0.4048 c -0.11113,-0.22265 -0.28311,-0.45017 -0.38218,-0.50562 -0.0991,-0.0554 -0.18013,-0.23212 -0.18013,-0.39263 0,-0.16051 -0.0808,-0.32282 -0.17945,-0.36069 -0.248,-0.0952 -0.76129,-1.21896 -0.76129,-1.66675 0,-0.2024 -0.10563,-0.54125 -0.23474,-0.75301 -0.31622,-0.51864 -0.31644,-1.37106 -4.4e-4,-1.71024 0.12935,-0.13884 0.23518,-0.30445 0.23518,-0.36801 0,-0.32003 0.23124,-0.27782 1.88149,0.34343 0.54974,0.20696 1.4103,0.52103 1.91235,0.69793 0.50206,0.17691 0.94744,0.35627 0.98974,0.39857 0.0423,0.0423 0.19727,0.0769 0.34436,0.0769 0.14709,0 0.30015,0.0529 0.34012,0.11759 0.04,0.0647 0.19872,0.11759 0.35278,0.11759 0.15405,0 0.3128,0.0529 0.35277,0.11759 0.04,0.0647 0.22519,0.1176 0.41158,0.1176 0.18639,0 0.36799,0.0471 0.40354,0.1046 0.0356,0.0575 0.23712,0.13396 0.44792,0.16986 0.21079,0.0359 0.64784,0.12163 0.97122,0.19054 1.80531,0.38466 4.05135,0.42976 5.52686,0.11098 0.9752,-0.2107 2.15764,-0.50747 2.76342,-0.69358 0.16169,-0.0497 0.53211,-0.1554 0.82315,-0.23495 0.29104,-0.0795 0.635,-0.18549 0.76435,-0.23542 0.12935,-0.0499 0.47331,-0.15682 0.76435,-0.23753 0.29105,-0.0807 0.82021,-0.23866 1.17593,-0.35099 0.35572,-0.11234 0.91134,-0.28668 1.23472,-0.38742 1.06378,-0.3314 3.57491,-1.26975 4.46852,-1.66977 1.25996,-0.56402 2.94262,-1.376585 2.99509,-1.44635 0.0343,-0.04557 0.22107,-0.16200103 0.4151,-0.25874103 0.60502,-0.301658 2.20215,-1.233718 2.93981,-1.715624 1.65767,-1.08294497 3.93935,-2.80854397 3.93935,-2.97927397 0,-0.0452 0.1147,-0.205293 0.25489,-0.355772 l 0.2549,-0.273598 -0.34309,0.06977 c -0.1887,0.03838 -0.60767,0.127924 -0.93105,0.198998 -1.59229,0.349961 -3.1255,0.386848 -3.82176,0.09195 -1.08458,-0.459381 -1.95123,-0.702588 -3.2338,-0.907498 -0.92973,-0.14854 -2.33807,-0.251526 -13.88764,-1.015547 l -1.07006,-0.07079 -0.67151,0.892235 c -0.68518,0.910381 -1.12508,1.24373 -1.64131,1.24373 -0.36657,0 -1.13998,-0.330105 -1.89202,-0.807545 -0.32061,-0.203538 -1.00168,-0.53156 -1.51349,-0.728936 l -0.93057,-0.358865 -1.19114,0.486061 c -3.10405,1.266647 -4.86589,2.31517 -6.40155,3.809746 -0.53738,0.52301 -1.06655,0.98689597 -1.17592,1.03085797 -0.60519,0.24325 -1.1984,-0.129758 -1.1984,-0.75354697 0,-0.548973 0.76865,-1.822237 1.72302,-2.854161 0.79916,-0.864105 2.65829,-3.442277 2.57705,-3.573739 -0.0295,-0.04768 -0.30789,-0.213239 -0.61872,-0.367914 -0.31083,-0.154675 -0.69743,-0.367282 -0.85912,-0.47246 -0.16169,-0.105178 -0.74378,-0.368083 -1.29352,-0.584233 -0.54975,-0.216149 -1.21727,-0.540166 -1.48339,-0.720036 -0.4625,-0.312602 -0.86846,-0.930087 -0.86846,-1.320966 0,-0.30782 0.44296,-0.618829 1.10893,-0.778593 0.82371,-0.197606 1.83772,-0.116895 4.41792,0.351649 0.35572,0.06459 0.99704,0.150366 1.42517,0.1906 l 0.77842,0.07315 0.21708,-0.367481 c 0.11939,-0.202115 0.25066,-0.367482 0.29172,-0.367482 0.0411,0 0.25111,-0.347667 0.46679,-0.772593 0.51185,-1.008429 0.83329,-1.193171 1.61463,-0.927998 0.30616,0.103902 0.74186,0.269853 0.96822,0.368779 0.41501,0.181364 0.71979,0.306007 1.20533,0.492931 0.14552,0.05602 0.39687,0.158358 0.55856,0.227412 0.16169,0.06905 0.50565,0.188735 0.76436,0.265958 0.2587,0.07722 0.59192,0.186554 0.74048,0.242958 0.14857,0.0564 0.36498,0.102553 0.48092,0.102553 0.193,0 1.84319,-0.800227 2.83554,-1.375039 1.62401,-0.9407 3.70515,-2.269342 4.64491,-2.965403 1.60613,-1.189629 2.07541,-1.543729 3.05483,-2.305015 1.75276,-1.362386 2.6484,-2.094767 2.64848,-2.16569 4e-5,-0.0369 -0.8334,-0.06795 -1.85208,-0.069 -1.69785,-0.0017 -3.56319,-0.122099 -6.49707,-0.419194 -0.61442,-0.06222 -1.68576,-0.153345 -2.38076,-0.202504 -1.48619,-0.105121 -1.74745,-0.248409 -1.50781,-0.826958 0.33376,-0.805751 1.12645,-1.19658 3.12422,-1.540372 1.49139,-0.256649 3.23887,-0.774348 5.17408,-1.532842 0.29523,-0.115718 2.30198,-1.116871 3.46898,-1.730653 3.28159,-1.725956 5.17009,-1.577484 5.88908,0.462993 0.0855,0.242535 0.2109,0.439091 0.27875,0.436791 0.0679,-0.0023 0.41441,-0.377162 0.77013,-0.833027 0.35572,-0.455865 0.70142,-0.890546 0.76822,-0.965957 0.0668,-0.07541 0.25058,-0.322321 0.40838,-0.548686 0.1578,-0.226366 0.36773,-0.500265 0.4665,-0.608665 0.0988,-0.1084 0.36218,-0.505275 0.58536,-0.881944 1.14789,-1.937368 1.20335,-1.963825 3.93414,-1.876936 1.17022,0.03723 2.49809,0.122755 2.95082,0.190044 1.72234,0.25599 3.0627,0.479137 4.23333,0.704776 1.78212,0.343501 2.12966,0.413026 2.93982,0.588091 0.2587,0.0559 0.78787,0.162804 1.17593,0.237557 0.38805,0.07475 0.89076,0.183145 1.11712,0.24087 0.22637,0.05773 0.99366,0.244523 1.7051,0.415106 2.4281,0.582193 4.90846,1.414434 6.85098,2.298724 0.40859,0.186003 0.54878,0.202474 0.76022,0.08931 0.14259,-0.07631 0.52569,-0.232334 0.85134,-0.346717 l 0.59209,-0.20797 0.0782,-0.97969 c 0.043,-0.538829 0.13733,-1.270732 0.20956,-1.626449 0.0722,-0.355718 0.17923,-0.884885 0.23778,-1.175926 0.27967,-1.390171 1.33962,-5.082394 1.89045,-6.585185 0.10023,-0.273433 0.21369,-0.68363 0.62615,-2.263658 0.0886,-0.339548 0.23185,-0.94809 0.31824,-1.352315 0.0864,-0.404224 0.19908,-0.734953 0.25042,-0.734953 0.0513,0 0.0933,-0.08009 0.0933,-0.177985 0,-0.09789 0.0467,-0.26987 0.10387,-0.382176 0.0571,-0.112305 0.17619,-0.362941 0.26458,-0.556969 0.33916,-0.744485 1.49157,-1.659901 2.51257,-1.995843 0.70413,-0.231687 2.30469,-0.411008 3.70416,-0.415003 2.07719,-0.0059 3.81773,-0.270447 4.22908,-0.642711 0.37837,-0.342421 0.70397,-1.191428 0.77795,-2.028548 0.0724,-0.818694 0.0457,-0.919811 -0.53498,-2.032247 -0.11817,-0.226366 -0.19189,-0.449238 -0.16382,-0.495272 0.0281,-0.04603 0.10014,-0.628117 0.16019,-1.293518 0.18159,-2.0125 0.68303,-3.439792 1.77167,-5.042891 0.69297,-1.020438 0.7944,-1.144873 1.49455,-1.833417 0.88819,-0.873479 1.60503,-1.123435 3.26027,-1.136832 1.52967,-0.01238 2.25302,0.142068 3.54546,0.757022 2.05716,0.978818 3.21436,2.758451 3.06085,4.707194 -0.0837,1.062395 -0.19297,1.503357 -0.50631,2.043155 -0.44476,0.766186 -0.82633,1.611176 -0.98303,2.176967 -0.26823,0.968472 -0.39898,1.23124 -0.83725,1.682637 -0.3667,0.377686 -1.16319,1.785098 -1.16366,2.056207 -3e-4,0.171568 -1.33486,1.619372 -1.90147,2.062806 -0.21135,0.165406 -0.35943,0.321417 -0.32906,0.346691 0.29936,0.249171 1.19768,0.778043 1.52512,0.897894 1.36058,0.49801 1.5421,0.608351 2.31129,1.404924 1.22412,1.267697 1.45999,2.039331 1.4363,4.698784 -0.0152,1.704078 -0.15622,3.820753 -0.20901,3.136631 -0.0761,-0.986066 -0.2615,-3.060417 -0.35738,-3.998148 -0.14981,-1.465167 -0.21076,-1.722731 -0.6106,-2.580612 -0.29442,-0.631706 -1.13433,-1.326409 -2.06608,-1.708899 -1.05071,-0.431324 -1.71426,-0.83205 -2.18846,-1.321642 -0.32774,-0.338374 -0.48848,-0.330192 -0.78551,0.03998 -0.0323,0.0403 -0.26462,0.212282 -0.51618,0.382176 -0.83273,0.562399 -1.55554,0.36054 -2.54122,-0.709694 -0.35572,-0.386229 -0.75659,-0.91036 -0.89081,-1.164737 -0.13423,-0.254377 -0.30378,-0.568337 -0.37679,-0.697689 -0.073,-0.129351 -0.24503,-0.63206 -0.38228,-1.117129 -0.13725,-0.48507 -0.31577,-1.113021 -0.39671,-1.395447 l -0.14717,-0.513503 -0.27347,0.983873 c -0.36344,1.307604 -0.76978,2.16362 -1.15591,2.435127 -0.4158,0.292363 -0.90511,0.388072 -2.25649,0.441369 -2.26518,0.08934 -4.89173,0.299396 -5.29167,0.423203 -0.45372,0.140458 -0.85445,0.294232 -1.27657,0.489868 -0.39413,0.182662 -1.42806,1.345832 -1.42806,1.606565 0,0.120323 -0.0529,0.251473 -0.11759,0.291445 -0.0647,0.03997 -0.1176,0.189399 -0.1176,0.332061 0,0.142661 -0.10583,0.456847 -0.23518,0.698189 -0.12935,0.241343 -0.23519,0.594624 -0.23519,0.785069 0,0.190445 -0.0529,0.378968 -0.11759,0.41894 -0.0647,0.03997 -0.11759,0.199355 -0.11759,0.354185 0,0.154829 -0.0474,0.403061 -0.10535,0.551625 -0.0579,0.148564 -0.1698,0.508241 -0.24859,0.799283 -0.0788,0.291041 -0.18436,0.635 -0.23462,0.764352 -0.0503,0.129351 -0.18067,0.526226 -0.28981,0.881944 -0.67571,2.202347 -0.9729,3.264237 -1.53405,5.481234 l -0.62837,2.482623 0.0491,3.103025 c 0.0468,2.952704 0.16545,4.833551 0.40359,6.395618 0.0592,0.388056 0.14155,0.970139 0.18308,1.293519 0.0415,0.323379 0.14769,0.761238 0.23591,0.97302 0.0882,0.211782 0.13366,0.454735 0.10098,0.539897 -0.055,0.143383 0.15958,1.27495 0.77238,4.072731 0.51336,2.343782 0.81922,4.297303 1.03839,6.632204 l 0.0872,0.928964 -0.44715,0.561603 c -0.38795,0.487246 -0.70734,1.100168 -1.80303,3.460099 -0.13819,0.29764697 -0.23493,0.82661297 -0.26343,1.44050897 -0.0386,0.83029503 -0.0179,0.97013903 0.14342,0.97013903 0.10365,0 0.18846,-0.07937 0.18846,-0.176389 0,-0.09701 0.0728,-0.17638803 0.16169,-0.17638803 0.17291,0 0.30868,-0.492359 0.30868,-1.119443 0,-0.495018 0.44404,-1.93796497 0.59637,-1.93796497 0.22916,0 0.25384,0.374422 0.0566,0.859316 -0.28202,0.69343097 -0.41225,3.491615 -0.1625,3.491615 0.36468,0 0.56775,-0.766484 0.56964,-2.15005903 0.002,-1.25152197 0.12831,-1.91470297 0.28483,-1.49202097 0.0352,0.0952 0.0778,1.04186397 0.0945,2.10369597 0.0336,2.13248403 0.15431,2.45540403 0.49961,1.33660403 0.11546,-0.37409 0.26042,-0.744366 0.32214,-0.822828 0.0714,-0.09074 0.0677,-0.62960903 -0.0101,-1.48058103 -0.11927,-1.30499597 -0.0881,-1.84574197 0.10647,-1.84574197 0.20786,0 0.24627,0.562729 0.16503,2.41766997 -0.0562,1.28194103 -0.0446,1.93326103 0.0344,1.93326103 0.16632,0 0.34879,-0.53061 0.44483,-1.29352303 0.0448,-0.355718 0.13005,-0.96426 0.18949,-1.352315 0.0594,-0.388056 0.1387,-0.91722297 0.17614,-1.17592597 0.0782,-0.54016 0.72153,-1.480747 0.98342,-1.437775 0.32231,0.05288 0.93969,1.126851 0.95246,1.656851 0.0161,0.66847897 0.14405,1.07444197 0.33863,1.07444197 0.21458,0 0.57929,-1.04221397 0.5855,-1.67313797 l 0.005,-0.497212 -0.64989,-0.649887 c -0.35744,-0.357438 -0.69983,-0.781246 -0.76087,-0.941797 -0.23819,-0.626491 -0.51123,-3.169244 -0.70722,-6.586114 -0.0594,-1.034815 -0.16347,-2.622315 -0.23135,-3.527778 -0.0679,-0.905463 -0.17362,-2.360671 -0.23496,-3.233796 -0.0613,-0.873125 -0.17429,-2.460625 -0.251,-3.527778 -0.2371,-3.298651 -0.19661,-4.256516 0.24601,-5.820833 0.0732,-0.258704 0.17634,-0.629121 0.22919,-0.823148 0.0529,-0.194028 0.47024,-1.490486 0.92752,-2.881019 0.45729,-1.390532 0.86672,-2.674261 0.90985,-2.852731 0.0431,-0.17847 0.12546,-0.353572 0.18297,-0.389116 0.0575,-0.03554 0.10456,-0.196917 0.10456,-0.358607 0,-0.183229 0.0486,-0.26397 0.1289,-0.21432 0.0709,0.04381 0.10056,0.218917 0.0659,0.389116 -0.0346,0.1702 -0.0951,0.468204 -0.13448,0.662232 -0.13599,0.670882 -0.32577,1.304527 -1.17986,3.939352 -0.47171,1.455208 -0.92146,2.936875 -0.99944,3.292593 -0.078,0.355717 -0.18874,0.768311 -0.24613,0.916875 -0.13598,0.35199 -0.1333,0.94748 0.012,2.669699 0.0655,0.776111 0.1497,1.917532 0.18712,2.536492 0.0374,0.61896 0.10882,1.191355 0.15866,1.271989 0.10385,0.168042 1.51076,-0.05613 2.53526,-0.403953 0.85404,-0.289952 5.48857,-2.610176 5.56723,-2.787167 0.0216,-0.04851 0.0962,-0.08819 0.16592,-0.08819 0.0697,0 0.50185,-0.284633 0.96034,-0.632518 2.87268,-2.179686 4.45799,-4.694087 6.17368,-9.791835 0.26442,-0.785687 0.48077,-1.513291 0.48077,-1.616899 0,-0.103607 0.10584,-0.294211 0.23519,-0.423562 0.16421,-0.164211 0.23518,-0.391976 0.23518,-0.754735 0,-0.606844 0.0889,-0.891562 0.27828,-0.891562 0.094,0 0.13518,0.387631 0.13441,1.264121 -0.001,1.424339 0.0969,1.989921 0.89264,5.144676 0.56967,2.258451 0.7005,3.808386 0.69478,8.231481 -0.005,4.12157 0.0649,5.091034 0.57495,7.93579 0.42083,2.347269 0.74274,4.693584 0.72622,5.293377 -0.0191,0.69257 -0.34963,1.484826 -1.09295,2.619517 -0.3908,0.596557 -0.74887,1.111108 -0.79572,1.143446 -0.0468,0.03234 -0.12178,0.257925 -0.16654,0.501304 -0.0624,0.339087 -0.0401,0.458361 0.0954,0.510343 0.206,0.07905 0.53508,-0.230696 1.16847,-1.099842 0.45027,-0.617857 0.68866,-0.747137 0.86501,-0.469093 0.0517,0.08155 0.37055,0.275193 0.70851,0.430325 0.74106,0.34016 1.01524,0.622254 1.20918,1.244092 0.0807,0.258704 0.19285,0.591923 0.24925,0.740487 0.12165,0.320395 0.13713,1.361207 0.022,1.47637 -0.0443,0.04432 -0.14357,0.26379597 -0.22055,0.48771397 -0.11158,0.324569 -0.10898,0.432836 0.0128,0.533928 0.2044,0.169638 0.70305,-0.554708 0.94166,-1.36788597 0.15274,-0.520511 0.15425,-0.690872 0.0115,-1.302556 -0.0903,-0.387049 -0.2562,-0.897666 -0.36868,-1.134707 -0.24022,-0.506221 -0.16734,-0.902695 0.12181,-0.662717 0.099,0.08219 0.32118,0.445336 0.49366,0.806994 0.25762,0.540199 0.31443,0.827314 0.31831,1.608682 l 0.005,0.951123 -0.38217,0.61479197 c -0.35915,0.57775 -0.51267,1.304721 -0.27553,1.304721 0.12362,0 0.97099,-0.995373 1.16967,-1.373982 0.15987,-0.304634 0.1762,-2.48030997 0.0236,-3.13820297 -0.17581,-0.757789 0.078,-1.079405 0.31356,-0.397306 0.39144,1.133514 0.49362,2.88166 0.20733,3.54706797 -0.0677,0.157439 -0.0564,0.200111 0.0376,0.141996 0.12474,-0.0771 0.253,-0.3287 0.59456,-1.16635597 0.21846,-0.535734 0.16607,-1.675704 -0.10106,-2.199328 -0.12935,-0.253551 -0.23519,-0.568943 -0.23519,-0.700871 0,-0.418432 0.31776,-0.259272 0.57502,0.288015 0.39356,0.837276 0.30312,3.101692 -0.14165,3.54646297 -0.0443,0.04432 -0.0782,0.270208 -0.0752,0.501964 l 0.005,0.421373 0.40617,-0.822351 c 0.35301,-0.71473797 0.40616,-0.93677397 0.40616,-1.69674397 0,-1.437012 -0.42575,-2.440992 -1.69333,-3.993142 -0.49542,-0.606637 -1.03758,-1.400387 -1.20481,-1.763888 l -0.30404,-0.660912 0.0987,-1.763889 c 0.22936,-4.097886 0.0587,-11.64988 -0.31083,-13.758333 -0.068,-0.388056 -0.17217,-0.996597 -0.23145,-1.352315 -0.0593,-0.355718 -0.16089,-0.964259 -0.22581,-1.352315 -0.11229,-0.671253 -0.0788,-1.654617 0.0781,-2.293055 0.0586,-0.238299 0.0886,-0.182615 0.15865,0.293981 0.0475,0.32338 0.091,0.888789 0.0967,1.256465 0.006,0.367677 0.0672,0.817468 0.13677,0.999537 0.0696,0.18207 0.19962,0.88666 0.28903,1.565757 0.0894,0.679098 0.24249,1.763889 0.34017,2.410649 0.0977,0.646759 0.1793,1.657038 0.18135,2.245064 0.002,0.588027 0.0386,1.796539 0.0812,2.685583 l 0.0775,1.616444 0.53984,-0.07273 c 1.18959,-0.16026 4.80713,-0.206327 5.94909,-0.07576 1.80337,0.206194 2.99345,0.361242 3.70417,0.482593 2.0211,0.34509 3.78165,0.616819 5.29167,0.816731 0.9378,0.124157 2.15488,0.335253 2.70463,0.469103 3.81385,0.928585 6.23219,1.204166 7.95884,0.906945 1.59682,-0.274872 1.86089,-0.414649 2.20511,-1.167193 0.81635,-1.784717 1.16134,-3.345979 1.17377,-5.31198 l 0.01,-1.574247 -0.35278,-0.31607 c -0.78813,-0.70613 -1.37189,-0.998492 -1.99269,-0.997997 -0.68004,5.43e-4 -1.70464,0.329653 -1.83299,0.588773 -0.0477,0.09631 -0.20265,0.545522 -0.34433,0.998253 -0.56222,1.796603 -1.66661,3.579222 -2.11088,3.407205 -0.10268,-0.03976 -0.34545,-0.09783 -0.53948,-0.129053 -1.25477,-0.201912 -6.32071,-1.805498 -6.82037,-2.158939 -0.0647,-0.04575 -0.38217,-0.149803 -0.70555,-0.23123 -1.26837,-0.319371 -1.35232,-0.360462 -1.35232,-0.661917 0,-0.252125 0.0521,-0.284862 0.45302,-0.284862 h 0.45301 l 0.0768,-1.092383 c 0.0422,-0.60081 0.17958,-1.463325 0.30522,-1.9167 0.23579,-0.850896 0.85705,-2.1529 1.10141,-2.308308 0.0791,-0.05029 -0.0181,-0.08904 -0.22583,-0.09007 -0.65676,-0.0032 -1.6366,-0.384737 -1.95521,-0.761246 -0.32955,-0.389438 -0.26154,-0.631041 0.20214,-0.718027 0.47324,-0.08878 0.44816,-0.234092 -0.0597,-0.345626 -0.28355,-0.06228 -0.44023,-0.0074 -0.8061,0.282387 -0.87633,0.694061 -1.47004,0.877133 -2.83739,0.874904 -1.82991,-0.003 -2.49865,-0.345949 -4.51184,-2.313932 -0.47765,-0.46692 -1.12632,-0.97224 -1.4415,-1.122935 -0.31518,-0.150694 -0.66493,-0.321115 -0.77724,-0.378713 -0.34718,-0.17806 -0.42708,-0.120267 -0.46487,0.336249 l -0.0365,0.440972 -0.43328,0.03604 c -0.34503,0.0287 -0.46095,-0.01566 -0.56913,-0.217809 -0.0747,-0.139616 -0.1096,-0.35427 -0.0775,-0.47701 0.0645,-0.246761 -0.23085,-0.305745 -0.59738,-0.119291 -0.1123,0.05713 -0.34224,0.167906 -0.51096,0.246168 -0.16873,0.07826 -0.58169,0.350374 -0.91771,0.604692 -0.33601,0.254318 -0.66098,0.431461 -0.72216,0.393651 -0.40762,-0.251924 0.31671,-1.022664 1.49308,-1.588739 0.61633,-0.296581 0.8615,-0.347608 1.67016,-0.347608 0.52129,0 1.09581,0.05974 1.27671,0.132747 0.91146,0.367858 1.80849,0.866227 2.221,1.233938 0.89275,0.795796 0.85997,0.785776 2.07187,0.633262 1.40116,-0.176333 2.79762,-0.535354 2.79762,-0.719253 0,-0.04575 -0.2249,-0.225766 -0.49977,-0.400048 -0.58489,-0.370841 -1.26412,-1.209298 -1.26412,-1.560438 0,-0.147924 0.20963,-0.416978 0.52839,-0.678181 l 0.52839,-0.432978 -0.0712,-0.445472 c -0.0621,-0.388359 -0.0326,-0.470779 0.23003,-0.642868 0.1657,-0.108569 0.40332,-0.370363 0.52805,-0.581766 0.14846,-0.251622 0.34844,-0.4087 0.57904,-0.45482 0.43118,-0.08624 0.54646,-0.348188 0.37794,-0.858812 -0.2405,-0.728708 0.006,-0.889458 1.8962,-1.234376 l 0.77505,-0.141462 0.31937,-0.504817 c 0.46024,-0.727482 1.83403,-1.961051 2.60291,-2.337226 1.37561,-0.673022 2.3121,-0.787494 3.41747,-0.417728 0.38192,0.127761 0.80289,0.233595 0.93547,0.235185 0.13259,0.0016 0.29134,0.04661 0.35278,0.100037 0.0614,0.05343 0.34984,0.166119 0.64088,0.250419 0.67514,0.195556 1.24033,0.44175 1.43593,0.625488 0.0844,0.07924 0.63952,0.583693 1.2337,1.121002 0.59418,0.537309 1.22877,1.211902 1.41021,1.499096 0.18144,0.287193 0.35634,0.521929 0.38868,0.521636 0.0323,-2.93e-4 0.14894,-0.158948 0.25911,-0.352567 0.25619,-0.450213 0.61961,-0.460288 0.84551,-0.02344 0.21943,0.424323 0.54116,1.666926 0.54348,2.099028 9.9e-4,0.184693 0.0491,0.410532 0.10692,0.501866 0.0902,0.142528 0.12746,0.141884 0.26278,-0.0045 0.14763,-0.159755 0.22741,-0.287057 0.59863,-0.955265 0.0808,-0.145521 0.17354,-0.291041 0.20598,-0.323379 0.0324,-0.03234 0.13827,-0.213854 0.23518,-0.403369 0.20475,-0.400396 1.81476,-2.139785 2.14346,-2.315696 0.32364,-0.173208 0.56034,0.07324 0.56415,0.587398 l 0.003,0.426574 0.32767,-0.395024 c 0.44267,-0.533659 0.74745,-0.470803 0.89279,0.184125 0.0811,0.365241 0.17308,0.503218 0.35278,0.528913 0.20598,0.02945 0.24864,0.131631 0.27924,0.668916 0.0199,0.348783 -0.0198,0.690096 -0.0882,0.758472 -0.18026,0.180257 -0.15242,0.430061 0.0479,0.430061 0.27343,0 0.43434,0.427853 0.34337,0.912991 -0.17239,0.919299 -1.00967,2.055469 -2.57698,3.49689 -1.565,1.439297 -1.83538,2.042778 -2.05281,4.581866 -0.0983,1.148161 -0.0622,1.386555 0.26224,1.729408 0.14127,0.1493 0.26553,0.39214 0.53117,1.038104 0.16685,0.405703 0.38094,1.740622 0.38094,2.375196 0,1.208374 -0.3928,2.531259 -0.84583,2.848571 -0.37105,0.259893 -0.47166,0.116614 -0.43642,-0.621497 0.0454,-0.950955 0.004,-1.450717 -0.11357,-1.377924 -0.0563,0.03477 -0.13929,0.659668 -0.18449,1.388653 -0.0452,0.728985 -0.13566,1.537094 -0.20099,1.795798 -0.33592,1.330075 -0.43753,1.682001 -0.67909,2.351852 -0.21815,0.604907 -0.79139,1.638697 -0.94979,1.712853 -0.4712,0.220591 -0.79955,0.336292 -1.17593,0.414359 -0.65699,0.136273 -4.21354,0.103793 -5.11527,-0.04671 -1.34821,-0.225027 -3.09712,-0.584914 -3.22423,-0.663474 -0.0494,-0.03054 -0.40251,0.04966 -0.78466,0.178209 -1.20702,0.406032 -1.41091,0.462637 -1.66637,0.462637 -0.13711,0 -0.27838,0.04707 -0.31394,0.1046 -0.0356,0.05753 -0.23711,0.133968 -0.44791,0.169862 -0.39732,0.06765 -1.05959,0.210599 -1.97076,0.425369 -0.29105,0.0686 -0.79375,0.179627 -1.11713,0.246727 -0.32338,0.0671 -0.79963,0.169772 -1.05834,0.22816 -0.2587,0.05839 -0.62912,0.138343 -0.82315,0.177677 -2.12424,0.430626 -3.21938,0.746215 -4.13336,1.191119 -1.26381,0.615191 -2.04025,1.613154 -2.04025,2.622339 0,0.255591 -0.0506,0.495979 -0.11242,0.534195 -0.18656,0.1153 -0.50862,-0.496376 -0.44275,-0.840914 0.0355,-0.185657 -0.007,-0.381714 -0.10393,-0.478553 -0.31687,-0.316873 -0.12643,-1.709687 0.35778,-2.616692 0.51754,-0.969438 1.86242,-1.907633 3.59392,-2.507145 1.58141,-0.547546 2.89174,-1.04312 2.97304,-1.124415 0.0508,-0.05075 -0.37253,-0.157579 -0.94062,-0.237395 -0.56809,-0.07982 -1.37685,-0.20605 -1.79724,-0.280519 -1.01251,-0.179358 -6.99795,-0.175275 -7.42566,0.0051 l -0.31131,0.131261 -0.0881,1.389213 c -0.0485,0.764066 -0.0936,2.341712 -0.10027,3.505878 l -0.0122,2.116667 0.37901,0.646759 c 0.20846,0.355718 0.75307,1.096551 1.21025,1.646297 1.12885,1.357416 1.08215,1.294267 1.37996,1.866064 0.21624,0.415189 0.26458,0.698349 0.26458,1.5497 0,0.572928 -0.049,1.16324 -0.10879,1.311804 -0.0598,0.148564 -0.17629,0.51830497 -0.25878,0.82164697 -0.21292,0.782943 -0.84719,1.62393303 -1.22476,1.62393303 -0.16309,0 -0.32759,-0.08094 -0.36556,-0.17987803 -0.0532,-0.13854 -0.15654,-0.07864 -0.44984,0.26066603 -0.3355,0.38811 -0.41375,0.42585 -0.6575,0.31709 -0.21104,-0.09417 -0.35236,-0.08001 -0.59579,0.0597 l -0.31911,0.18315 -0.24419,-0.22099 c -0.13431,-0.121548 -0.2442,-0.284829 -0.2442,-0.362851 0,-0.08746 -0.11142,-0.120557 -0.29055,-0.08631 -0.43668,0.08348 -0.58849,-0.33596503 -0.41791,-1.15463103 0.37198,-1.78531297 0.37728,-2.03771497 0.0579,-2.75704897 -0.18117,-0.40805 -0.52706,-0.750598 -1.11335,-1.10258 -0.6033,-0.362197 -0.8458,-0.317006 -1.24156,0.231368 -0.94142,1.304454 -1.05349,1.367245 -1.52748,0.855805 -0.56739,-0.612233 -0.33166,-1.411944 0.99634,-3.37995 0.87474,-1.296314 0.94442,-1.552212 0.82233,-3.020103 -0.10201,-1.226418 -0.24905,-2.354985 -0.45087,-3.460554 -0.059,-0.32338 -0.16005,-0.905463 -0.22449,-1.293519 -0.15325,-0.92291 -0.23811,-1.117129 -0.48811,-1.117129 -0.53441,0 -2.3995,0.399115 -3.34433,0.715666 -0.97553,0.326829 -2.72009,1.153195 -3.12608,1.480764 -0.097,0.07827 -0.5055,0.386655 -0.90774,0.685292 -0.86344,0.641047 -1.49392,1.330528 -2.28627,2.50021 -0.59274,0.875026 -2.06741,2.44947 -2.80322,2.992886 -1.02432,0.756491 -2.6149,1.424656 -3.79331,1.593475 -0.88515,0.126807 -0.88286,0.387492 0.0112,1.274486 0.77871,0.772543 1.01458,1.326809 0.83342,1.95847 -0.0598,0.208528 -0.10873,0.548348 -0.10873,0.755155 0,0.20680697 -0.0529,0.40871697 -0.1176,0.44868897 -0.0647,0.03997 -0.11759,0.177248 -0.11759,0.305058 0,0.366261 -0.35212,0.812071 -0.64141,0.812071 -0.3196,0 -0.49601,-0.350297 -0.60462,-1.200589 -0.0751,-0.58761797 -0.28095,-1.14142797 -0.54924,-1.47739197 -0.0916,-0.114711 -0.18036,-0.05969 -0.37944,0.235185 -0.25328,0.375169 -0.30518,0.614608 -0.52952,2.44279597 -0.21122,1.72135403 -0.46305,2.29305403 -1.01004,2.29305403 -0.18847,0 -0.43528,0.0926 -0.54846,0.20579 -0.27623,0.27623 -0.40192,0.26004 -0.73004,-0.094 -0.16826,-0.18157 -0.30791,-0.25113 -0.3541,-0.17639 -0.13402,0.21684 -0.63,0.13341 -0.82007,-0.13795 -0.10068,-0.14374 -0.18518,-0.50093 -0.18777,-0.79375 l -0.005,-0.532402 -0.17543,0.323382 c -0.0965,0.17786 -0.27064,0.32338 -0.387,0.32338 -0.36753,0 -0.51036,-0.469768 -0.45001,-1.48004103 0.0942,-1.57669697 0.38537,-2.59418897 1.155,-4.03585697 0.25574,-0.479043 0.423,-0.912352 0.3717,-0.962909 -0.0513,-0.05056 -0.57059,-0.168444 -1.154,-0.261973 -1.33629,-0.214229 -2.18264,-0.112085 -3.46658,0.418378 -0.39155,0.161769 -0.82911,0.336531 -1.11713,0.446179 -0.31256,0.118992 -1.30187,0.567294 -2.52824,1.145662 -3.05084,1.4388 -4.77961,2.21268397 -5.82084,2.60569397 -0.38805,0.146471 -0.81138,0.310571 -0.94074,0.364666 -0.12935,0.0541 -0.44685,0.161266 -0.70555,0.238157 -0.25871,0.07689 -0.56226,0.186221 -0.67456,0.242958 -0.11231,0.05674 -0.33408,0.103157 -0.49283,0.103157 -0.15875,0 -0.32134,0.05292 -0.36132,0.117593 -0.04,0.06468 -0.22518,0.117593 -0.41157,0.117593 -0.18639,0 -0.3716,0.05292 -0.41157,0.11759203 -0.04,0.06468 -0.18141,0.117593 -0.31431,0.117593 -0.1329,0 -0.43405,0.09887 -0.66922,0.219718 -0.23517,0.120845 -0.58633,0.29282 -0.78036,0.38218 -0.19403,0.0893 -0.42271,0.2286 -0.50817,0.30944 -0.0855,0.0808 -0.1913,0.14784 -0.23519,0.14887 -0.0439,10e-4 -0.25894,0.15979 -0.4779,0.35278 -0.21896,0.193 -0.44564,0.3509 -0.50374,0.3509 -0.0581,0 -0.55123,0.41973 -1.09585,0.93273 -0.94934,0.89422 -2.27323,1.88949 -2.51336,1.88949 -0.0628,0 -0.13189,0.0415 -0.15345,0.0922 -0.0472,0.11096 -1.549,0.85121 -2.44984,1.20751 -1.39907,0.55336 -4.49357,1.32908 -6.56836,1.64654 -0.42965,0.0657 -1.09868,0.17316 -1.48674,0.23871 -0.38805,0.0656 -0.99659,0.1656 -1.35231,0.22233 -3.4178,0.54509 -3.96456,0.66798 -4.28021,0.96205 -0.12796,0.11921 -0.28883,0.21709 -0.35747,0.2175 -0.12484,7.4e-4 -2.41271,1.13818 -3.29982,1.64055 -0.25871,0.1465 -1.026,0.64597 -1.70509,1.10993 -0.6791,0.46397 -1.38274,0.90787 -1.56364,0.98645 -0.39712,0.17251 -1.33379,0.18901 -1.43498,0.0253 z m 1.60254,-0.8722 c 0.2181,-0.0917 0.79341,-0.44958 1.27848,-0.79538 1.49954,-1.069 1.87927,-1.28818 4.21505,-2.43296 0.28099,-0.13772 0.55696,-0.25039 0.61328,-0.25039 0.0563,0 0.35272,-0.15875 0.65867,-0.35278 0.30595,-0.19402 0.68529,-0.35277 0.84298,-0.35277 0.1577,0 0.47807,-0.0488 0.71194,-0.10835 0.23386,-0.0596 0.76917,-0.16448 1.18956,-0.23308 0.4204,-0.0686 1.76977,-0.28789 2.99862,-0.48732 3.84107,-0.62337 6.21862,-1.16724 7.64351,-1.74848 0.12935,-0.0528 0.36748,-0.14845 0.52917,-0.21263 0.68922,-0.27358 2.34624,-1.15808 2.99861,-1.60063 0.38805,-0.26325 1.1818,-0.93718 1.76389,-1.49763 0.58208,-0.56045 1.23856,-1.11094 1.45884,-1.22331 0.22028,-0.11238 0.50044,-0.29741 0.62256,-0.411189 0.41932,-0.390657 1.59663,-0.89564203 3.03387,-1.30132703 2.39419,-0.675797 4.77696,-1.60630197 7.81991,-3.05378497 3.62497,-1.72434 5.42783,-2.481345 6.45915,-2.712145 0.64776,-0.144963 1.8591,-0.09959 3.18344,0.119245 0.94451,0.15607 1.11713,0.09125 1.11713,-0.419507 0,-1.000885 -0.83025,-5.621045 -1.6562,-9.216348 -0.30376,-1.322235 -0.3498,-1.433855 -0.55627,-1.348633 -0.109,0.04499 -0.30401,0.106668 -0.43336,0.137067 -0.12935,0.0304 -0.34102,0.09713 -0.47037,0.148288 -0.12935,0.05116 -0.9231,0.315283 -1.76389,0.58694 -2.8132,0.90894 -6.80764,2.386874 -7.04968,2.608367 -0.0614,0.05623 -0.20696,0.10223 -0.32338,0.10223 -0.11641,0 -0.21166,0.05292 -0.21166,0.117593 0,0.06468 -0.0709,0.117592 -0.15754,0.117592 -0.15458,0 -1.91447,0.872665 -2.84107,1.408788 -0.25871,0.149683 -0.76141,0.430727 -1.11713,0.624542 -0.35572,0.193815 -0.69968,0.390606 -0.76435,0.437313 -0.0647,0.04671 -0.35572,0.216814 -0.64676,0.378014 -1.12292,0.621953 -1.48062,0.831844 -1.78205,1.045667 -0.17167,0.121779 -0.34568,0.221417 -0.38668,0.221417 -0.15212,0 -2.27234,1.473778 -3.18174,2.211654 -1.08279,0.878561 -2.31319,2.11746 -2.7364,2.755301 -0.27726,0.417887 -1.06398,1.098385 -2.49647,2.159408 -0.88745,0.65732197 -2.68773,1.81067397 -2.82631,1.81067397 -0.0624,0 -0.1135,0.04675 -0.1135,0.103878 0,0.05713 -0.0926,0.134183 -0.20578,0.171223 -0.21612,0.07073 -1.05833,0.55355703 -1.55811,0.89324303 -0.90532,0.61533 -5.07063,2.40007 -7.29074,3.12391 -0.54974,0.17924 -1.10537,0.36557 -1.23472,0.41406 -0.12935,0.0485 -0.47331,0.15228 -0.76435,0.23063 -0.29104,0.0784 -0.62105,0.19022 -0.73336,0.24859 -0.1123,0.0584 -0.30762,0.10613 -0.43403,0.10613 -0.12641,0 -0.26255,0.0529 -0.30252,0.1176 -0.04,0.0647 -0.20256,0.11759 -0.36131,0.11759 -0.15875,0 -0.38052,0.0478 -0.49283,0.10613 -0.11231,0.0584 -0.44232,0.17034 -0.73336,0.24882 -0.29104,0.0785 -0.66146,0.18334 -0.82315,0.23301 -3.08388,0.94743 -5.57889,1.06454 -8.29027,0.38914 -0.38806,-0.0967 -0.83785,-0.2013 -0.99954,-0.23251 -0.16169,-0.0312 -0.39982,-0.0996 -0.52917,-0.15208 -0.12935,-0.0524 -0.47331,-0.16348 -0.76435,-0.24678 -0.29104,-0.0833 -0.57944,-0.19516 -0.64088,-0.24859 -0.0614,-0.0534 -0.2303,-0.0971 -0.37523,-0.0971 -0.14494,0 -0.29623,-0.0529 -0.3362,-0.11759 -0.04,-0.0647 -0.17611,-0.1176 -0.30252,-0.1176 -0.12641,0 -0.32173,-0.0467 -0.43403,-0.10387 -0.27464,-0.13971 -0.70588,-0.31314 -1.20373,-0.48409 -0.22637,-0.0777 -0.54387,-0.19598 -0.70556,-0.26279 -0.16169,-0.0668 -0.39981,-0.1607 -0.52916,-0.20867 -0.12936,-0.048 -0.3832,-0.14673 -0.5641,-0.21945 -0.45741,-0.1839 -0.47562,-0.17743 -0.65752,0.23351 -0.14082,0.31814 -0.13715,0.41762 0.0282,0.76435 l 0.19008,0.39861 h 0.51667 c 0.55454,0 0.82723,0.1984 0.75995,0.55291 -0.0301,0.15866 -0.18663,0.22764 -0.62707,0.27634 -0.43216,0.0478 -0.5312,0.0904 -0.37555,0.16172 0.11626,0.0533 0.42071,0.0688 0.67654,0.0344 0.53518,-0.0718 0.76809,0.15554 0.55922,0.54581 -0.10676,0.19949 -0.0857,0.21835 0.18561,0.16648 0.33323,-0.0637 0.60716,0.15897 0.5093,0.41399 -0.0328,0.0856 -0.29012,0.23121 -0.57172,0.32362 l -0.51201,0.16801 0.82315,0.06 c 0.71445,0.0521 0.82767,0.0917 0.8574,0.29927 0.0262,0.1831 -0.0703,0.27717 -0.41158,0.4011 -0.5483,0.19911 -0.31367,0.31328 0.25686,0.12499 0.49037,-0.16184 0.83795,-0.0753 0.91739,0.2285 0.0518,0.1982 1.19408,0.82889 1.50121,0.82889 0.0636,0 0.20759,0.0478 0.3199,0.10613 0.1123,0.0584 0.44231,0.17129 0.73335,0.25093 1.54668,0.42325 1.94395,0.5944 4.87685,2.10113 1.03162,0.52998 1.70847,0.61775 2.42893,0.31498 z M 176.52261,-1.987045 c 1.40476,-1.42817 3.3873,-2.663754 6.0369,-3.762394 l 0.79936,-0.331447 -0.37189,-0.156366 c -0.20453,-0.086 -0.44127,-0.156365 -0.52608,-0.156365 -0.0848,0 -0.7005,-0.190079 -1.36821,-0.422398 -1.83836,-0.639631 -1.72594,-0.649274 -2.26424,0.194215 -0.25425,0.398389 -0.52135,0.784687 -0.59356,0.858439 -0.0722,0.07375 -0.31048,0.398679 -0.52951,0.722059 -0.21902,0.323379 -0.42847,0.614421 -0.46544,0.646759 -0.037,0.03234 -0.20653,0.244004 -0.37679,0.47037 -0.17025,0.226366 -0.44975,0.570324 -0.6211,0.764352 -0.96591,1.093727 -1.30359,2.05787 -0.72076,2.05787 0.0719,0 0.5225,-0.398292 1.00132,-0.885094 z m 35.92921,-2.700697 c 2.41632,-0.514921 2.60498,-0.587463 3.44282,-1.323853 0.8693,-0.764041 2.33263,-1.910726 2.43836,-1.910726 0.0369,0 0.18068,-0.105833 0.31952,-0.235185 0.13884,-0.129352 0.32184,-0.235185 0.40666,-0.235185 0.0848,0 0.15421,-0.0431 0.15421,-0.09578 0,-0.05268 0.19844,-0.204991 0.44098,-0.338476 0.24253,-0.133484 1.00757,-0.579864 1.70008,-0.991955 3.32046,-1.975894 5.05811,-2.892332 7.61913,-4.018328 1.3471,-0.592278 4.55083,-1.767397 6.64398,-2.436996 0.64676,-0.206898 1.26781,-0.423194 1.38012,-0.480657 0.1123,-0.05746 0.285,-0.104478 0.38377,-0.104478 0.0988,0 0.27147,-0.04905 0.38377,-0.109009 0.11231,-0.05995 0.28796,-0.134277 0.39034,-0.165161 0.15635,-0.04716 0.17024,-0.15676 0.0868,-0.684741 -0.0547,-0.345724 -0.15618,-0.999006 -0.22561,-1.451737 -0.0694,-0.452732 -0.15166,-2.391394 -0.18274,-4.308138 l -0.0565,-3.484989 -0.4332,0.128309 c -0.51647,0.152967 -1.40247,0.617457 -1.94723,1.020836 -0.6129,0.453837 -2.35983,2.330613 -2.88889,3.103626 -0.0933,0.13627 -0.20164,0.274222 -0.24085,0.306559 -0.0392,0.03234 -0.19958,0.244005 -0.35639,0.470371 -0.15682,0.226366 -0.37129,0.505703 -0.47661,0.62075 -0.29963,0.327321 -1.40241,2.497847 -1.40241,2.760277 0,0.368019 -0.22302,0.465713 -1.23472,0.540867 -1.57496,0.116996 -3.39205,0.373701 -4.7037,0.664507 -0.32338,0.0717 -0.76044,0.159724 -0.97123,0.195618 -0.2108,0.03589 -0.41236,0.112332 -0.44791,0.169862 -0.0356,0.05753 -0.1907,0.1046 -0.34475,0.1046 -0.15406,0 -0.31281,0.05292 -0.35278,0.117593 -0.04,0.06468 -0.1761,0.117593 -0.30252,0.117593 -0.12641,0 -0.32172,0.04717 -0.43403,0.104832 -0.1123,0.05766 -0.77548,0.37488 -1.47373,0.704938 -1.39131,0.657661 -2.45359,1.397829 -5.14191,3.582727 -0.97634,0.793508 -2.60017,1.645797 -3.63564,1.908216 -0.92212,0.233692 -1.6642,0.179114 -3.18207,-0.234034 -3.18698,-0.86746 -3.5905,-0.948706 -5.64445,-1.136436 -1.96956,-0.180018 -3.38904,-0.01879 -4.23712,0.481252 -0.32699,0.192798 -0.62019,0.350542 -0.65157,0.350542 -0.0314,0 -0.59557,0.349464 -1.25376,0.776587 -1.33503,0.86634 -2.66357,1.915914 -3.57895,2.827441 l -0.60797,0.605417 0.49038,0.07069 c 0.26971,0.03888 1.33705,0.125373 2.37186,0.192206 1.03482,0.06683 2.62232,0.171526 3.52778,0.232652 0.90546,0.06113 2.46651,0.165 3.46898,0.23083 5.43398,0.356839 5.87071,0.432087 7.64352,1.316965 0.52569,0.262393 1.98282,0.280721 3.1162,0.0392 z m -23.35356,-0.01613 c 0.27385,-0.05477 0.51243,-0.260464 0.91292,-0.787062 2.49428,-3.279775 6.06377,-6.029632 9.85824,-7.594585 0.12935,-0.05335 0.39393,-0.164075 0.58796,-0.246057 0.42607,-0.180029 0.54809,-0.227233 1.82269,-0.705152 3.19203,-1.196876 6.55532,-2.926718 8.05508,-4.142981 0.0647,-0.05245 0.67322,-0.498837 1.35232,-0.991971 2.15542,-1.565183 4.11574,-3.499217 4.11574,-4.060554 0,-0.30814 0.22139,-0.262991 0.88351,0.180175 0.61901,0.414308 2.7712,1.484309 3.46741,1.723886 0.22637,0.0779 0.51741,0.184406 0.64676,0.23669 0.37794,0.152764 0.67955,0.254005 1.08774,0.365126 0.21019,0.05722 0.55415,0.153046 0.76435,0.212943 0.7073,0.201547 2.37154,0.605677 3.73356,0.906626 3.50027,0.773409 3.41019,0.764255 3.41019,0.346552 0,-0.328125 0.63065,-1.559943 1.32645,-2.590865 1.14976,-1.703542 3.73996,-4.650846 4.08733,-4.650846 0.22689,0 -0.005,-0.224503 -0.42109,-0.408427 -0.22362,-0.09874 -0.59241,-0.261687 -0.81953,-0.362094 -1.20664,-0.533435 -4.81455,-1.575665 -7.46576,-2.156655 -1.36156,-0.298377 -1.60799,-0.350283 -2.29305,-0.483009 -0.38806,-0.07518 -0.91722,-0.181016 -1.17593,-0.235185 -0.46518,-0.0974 -1.24197,-0.245887 -2.44004,-0.466415 -0.33955,-0.0625 -0.77611,-0.143719 -0.97014,-0.180487 -1.27503,-0.241611 -3.59235,-0.493894 -5.50688,-0.599523 -1.46562,-0.08086 -1.6783,-0.03621 -2.29614,0.482073 -0.31149,0.261294 -1.89837,2.568018 -1.89837,2.759506 0,0.06683 -0.0415,0.121513 -0.0922,0.121513 -0.0507,0 -0.18488,0.156824 -0.29811,0.348499 -0.11322,0.191674 -0.27091,0.41657 -0.35042,0.499768 -0.0795,0.0832 -0.32874,0.389395 -0.55385,0.680436 -1.1141,1.440425 -3.02255,3.434355 -4.23224,4.421804 -0.22636,0.184779 -0.49095,0.419232 -0.58796,0.521007 -0.097,0.101775 -0.89076,0.756509 -1.76389,1.454964 -0.87312,0.698455 -1.69454,1.357083 -1.82536,1.463618 -0.13083,0.106535 -0.55416,0.431691 -0.94074,0.72257 -0.38659,0.290878 -0.72934,0.558011 -0.76168,0.593628 -0.0323,0.03562 -0.244,0.191952 -0.47037,0.347409 -0.22636,0.155458 -0.43803,0.312291 -0.47037,0.348519 -0.23312,0.26116 -4.7166,3.296852 -4.86919,3.296852 -0.0251,0 -0.3818,0.201693 -0.79263,0.448206 -0.64007,0.38406 -3.31993,1.723594 -4.03957,2.019182 -1.23318,0.506529 -5.19206,0.538557 -7.9375,0.06421 -3.23235,-0.55847 -4.99244,-0.635548 -5.55492,-0.243263 l -0.20447,0.142596 0.26326,0.24631 c 0.1448,0.135471 0.61415,0.334195 1.04302,0.441609 0.42886,0.107414 0.91206,0.283051 1.07377,0.390305 0.16171,0.107253 0.68394,0.460883 1.16052,0.785842 0.82677,0.563738 0.99319,0.655335 1.80725,0.994651 0.19403,0.08087 0.44466,0.193788 0.55697,0.250918 0.1123,0.05713 0.285,0.103873 0.38377,0.103873 0.0988,0 0.27147,0.04776 0.38377,0.106132 0.11231,0.05837 0.44232,0.170342 0.73336,0.248823 0.29104,0.07848 0.66146,0.183334 0.82315,0.233008 0.16169,0.04967 0.5321,0.154825 0.82315,0.233668 1.44366,0.391087 2.75212,0.901415 3.76296,1.467633 0.9647,0.540377 1.28071,0.683921 1.66099,0.754503 0.0404,0.0075 0.24033,-0.01973 0.44424,-0.06051 z m 56.33343,-1.224279 c 1.38093,-0.331035 2.96297,-1.142983 3.93315,-2.01861 0.44686,-0.403307 1.10433,-1.181467 1.50874,-1.785687 0.39421,-0.588988 0.74797,-1.097346 0.78613,-1.129684 0.0382,-0.03234 0.21821,-0.258446 0.40012,-0.502463 1.58968,-2.132388 5.25766,-4.006054 8.42856,-4.305458 l 0.76436,-0.07217 -0.0373,-0.352778 c -0.0205,-0.194028 -0.0328,-2.363611 -0.0273,-4.821296 0.007,-3.010315 -0.0367,-4.746729 -0.13311,-5.321065 l -0.14314,-0.852547 h -0.29162 c -0.26803,0 -0.77741,0.133139 -1.36666,0.357205 -0.12935,0.04919 -0.4204,0.153028 -0.64676,0.230758 -1.43997,0.49446 -2.68182,1.161047 -3.03088,1.626874 -0.74628,0.995932 -1.74051,2.029738 -2.48959,2.588702 -0.22977,0.171457 -0.52039,0.404343 -0.64582,0.517526 -0.12543,0.113183 -0.29746,0.205787 -0.38227,0.205787 -0.0848,0 -0.15422,0.05292 -0.15422,0.117593 0,0.06468 -0.0475,0.117592 -0.10557,0.117592 -0.0581,0 -0.44172,0.204069 -0.85255,0.453486 -1.03038,0.62554 -4.74623,2.416938 -5.39188,2.599404 -0.29104,0.08225 -0.68258,0.196291 -0.87009,0.253422 -0.18751,0.05713 -0.59762,0.103874 -0.91135,0.103874 h -0.57041 l 0.003,0.440972 c 0.001,0.242535 0.0529,1.075972 0.11408,1.852083 0.0612,0.776111 0.14363,2.495903 0.18314,3.821759 0.0395,1.325857 0.0998,2.490024 0.13389,2.587038 0.0341,0.09701 0.10761,0.679097 0.16332,1.293518 0.0988,1.089787 0.19603,1.790151 0.28977,2.087269 0.0614,0.194752 0.17426,0.186927 1.34242,-0.0931 z m 25.2499,-3.493472 c 0.6401,-1.351479 2.33545,-2.23982 5.44662,-2.853958 0.49894,-0.09849 0.92516,-0.190189 2.17546,-0.468032 0.29104,-0.06468 0.76729,-0.17051 1.05833,-0.235185 0.29105,-0.06468 0.75407,-0.167616 1.02894,-0.228756 0.27487,-0.06114 0.71143,-0.164553 0.97014,-0.229809 0.84373,-0.212824 1.40518,-0.352629 1.73312,-0.431563 0.45446,-0.109388 0.29829,-0.260115 -0.35415,-0.341791 -1.50143,-0.187957 -2.52942,-0.332471 -3.47379,-0.488342 l -1.03648,-0.171075 -0.37463,0.230509 c -0.44556,0.274152 -1.91036,0.863919 -3.13805,1.263457 -1.30933,0.426106 -2.78986,1.202243 -3.3537,1.75811 -0.31874,0.31422 -0.56304,0.697513 -0.67846,1.064452 -0.19404,0.616894 -0.35625,1.572956 -0.26688,1.572956 0.0301,0 0.14866,-0.198438 0.26353,-0.440973 z m -58.9724,-1.941919 c 0.99497,-0.407779 2.06572,-1.076742 3.27807,-2.048004 2.47482,-1.982674 3.04576,-2.384925 4.31676,-3.041329 l 0.5022,-0.25936 -0.61979,-0.07358 c -1.24614,-0.147943 -2.73781,-0.412007 -3.736,-0.661369 -0.29104,-0.07271 -0.67533,-0.161497 -0.85398,-0.197313 -0.17865,-0.03581 -0.35376,-0.111935 -0.38912,-0.169154 -0.0354,-0.05722 -0.17648,-0.104034 -0.31359,-0.104034 -0.13711,0 -0.4118,-0.04945 -0.61042,-0.109889 -0.19862,-0.06044 -0.64375,-0.166451 -0.98918,-0.235582 l -0.62805,-0.125693 -0.37149,0.261784 c -0.20431,0.143981 -0.47407,0.355826 -0.59944,0.470767 -0.12538,0.114941 -0.29295,0.208983 -0.37238,0.208983 -0.0794,0 -0.16206,0.04277 -0.18361,0.09504 -0.17775,0.430978 -4.24661,2.674717 -6.21281,3.426001 -0.54974,0.210058 -1.10537,0.4263 -1.23472,0.480539 -0.12935,0.05424 -0.44685,0.167171 -0.70556,0.250962 -0.2587,0.08379 -0.64396,0.246038 -0.85612,0.36055 -0.21216,0.114513 -0.47675,0.217594 -0.58796,0.229071 -0.11122,0.01148 0.43279,0.05907 1.2089,0.10577 1.5973,0.09611 2.40178,0.188499 2.99861,0.344383 0.91651,0.239381 2.51293,0.634995 3.35139,0.830518 1.23633,0.288306 1.55024,0.326874 2.24771,0.276161 0.39546,-0.02875 1.00772,-0.170602 1.36058,-0.31522 z m -25.37512,0.09243 c 0.64005,-0.09149 1.21948,-0.2221 1.28764,-0.290252 0.0868,-0.08682 0.0535,-0.123914 -0.11127,-0.123914 -0.12936,0 -0.28546,-0.04211 -0.3469,-0.09359 -0.0614,-0.05147 -0.32338,-0.164428 -0.58209,-0.251011 -0.2587,-0.08658 -0.70849,-0.261409 -0.99953,-0.388502 -0.29104,-0.127094 -0.64823,-0.278722 -0.79375,-0.336953 -0.14552,-0.05823 -0.39253,-0.165404 -0.5489,-0.238165 -0.35727,-0.166235 -0.84563,-0.170283 -1.03824,-0.0086 -0.081,0.06803 -0.25306,0.325996 -0.38225,0.573264 -0.1292,0.247268 -0.30153,0.51985 -0.38295,0.605738 -0.0814,0.08589 -0.2006,0.254354 -0.26483,0.374369 -0.0988,0.184696 -0.0671,0.225732 0.20656,0.267193 0.74712,0.113183 2.87503,0.06501 3.95651,-0.08957 z m 35.28997,-6.174151 c 1.06031,-0.432398 2.53613,-0.769989 4.90949,-1.123038 0.46843,-0.06968 0.61282,-0.290125 0.19003,-0.290125 -0.13801,0 -0.44228,-0.05187 -0.67615,-0.115277 -0.23387,-0.0634 -1.08668,-0.270886 -1.89513,-0.461074 -1.29078,-0.303658 -3.6135,-1.005883 -4.29213,-1.297634 -0.12935,-0.05561 -0.43362,-0.18588 -0.67615,-0.289488 -0.8249,-0.352387 -1.32279,-0.587554 -1.38172,-0.652622 -0.0323,-0.03571 -0.27176,-0.174947 -0.53204,-0.309421 -0.26029,-0.134474 -0.61138,-0.335 -0.7802,-0.445614 l -0.30694,-0.201116 -0.39573,0.503569 c -0.53136,0.676154 -1.64386,1.783575 -2.54052,2.528924 -0.40352,0.335426 -0.68983,0.636962 -0.63624,0.670079 0.0536,0.03312 0.33082,0.115154 0.61608,0.182303 0.28526,0.06715 0.91552,0.233331 1.40059,0.369295 1.87164,0.524615 3.45183,0.821331 5.46806,1.026748 0.849,0.0865 1.12462,0.06928 1.5287,-0.09551 z m 68.38895,-1.795339 c 0.4504,-0.619907 0.74202,-1.247122 1.23503,-2.656337 0.21132,-0.60403 0.40154,-1.113463 0.42271,-1.132074 0.47852,-0.420645 2.05681,-0.774676 2.71599,-0.609231 0.72124,0.181018 2.66807,2.126644 2.67173,2.670074 6.8e-4,0.100821 0.0789,0.28603 0.17389,0.411574 l 0.17265,0.228262 0.004,-1.500587 c 0.004,-1.677116 -0.1699,-2.270914 -0.87212,-2.974947 -0.35934,-0.360267 -1.39485,-1.110114 -1.53303,-1.110114 -0.0404,0 -0.3838,-0.210746 -0.7631,-0.468325 -1.05132,-0.713935 -1.33942,-1.225791 -1.07359,-1.907392 0.14011,-0.359255 0.32548,-1.065631 0.4875,-1.857616 0.0728,-0.355718 0.17894,-0.828795 0.23595,-1.051283 0.057,-0.222487 0.0621,-0.460613 0.0114,-0.529166 -0.0931,-0.125771 -0.29156,-0.768032 -0.43823,-1.418162 -0.0438,-0.194028 -0.11243,-1.044939 -0.15257,-1.890913 l -0.073,-1.538136 -0.343,-0.519735 c -0.36513,-0.553278 -0.76568,-0.957047 -1.88152,-1.896648 -0.62448,-0.525849 -1.04261,-0.769549 -1.77363,-1.033735 -0.12935,-0.04675 -0.43362,-0.170847 -0.67616,-0.275779 l -0.44097,-0.190786 v 0.235804 c 0,0.345028 0.5068,1.053852 1.11992,1.56636 0.84929,0.709919 1.43907,1.824032 1.58066,2.985929 0.0569,0.467314 0.038,0.617361 -0.078,0.617361 -0.0842,0 -0.15319,-0.08305 -0.15319,-0.184564 0,-0.10151 -0.15871,-0.56453 -0.35269,-1.028935 -0.26124,-0.625444 -0.56609,-1.073041 -1.17574,-1.726316 -0.87034,-0.932621 -1.29379,-1.658641 -1.29379,-2.218278 0,-0.276546 -0.0599,-0.35102 -0.32338,-0.402352 -0.91292,-0.177827 -2.5212,0.272518 -3.5881,1.004728 l -0.32491,0.222985 0.21618,0.314282 c 0.3521,0.511873 0.51085,1.018917 0.47104,1.50448 -0.0255,0.310405 -0.0937,0.4561 -0.21379,0.4561 -0.1164,0 -0.16792,-0.09999 -0.15148,-0.293982 0.0404,-0.476658 -0.20049,-1.10089 -0.51541,-1.335679 l -0.29314,-0.21855 -0.34313,0.328745 c -0.18873,0.180809 -0.34314,0.446432 -0.34314,0.590272 0,0.27791 0.60649,0.870397 0.89097,0.870397 0.0921,0 0.16737,0.05292 0.16737,0.117593 0,0.06468 -0.16828,0.117593 -0.37396,0.117593 -0.29292,0 -0.48293,-0.117018 -0.87681,-0.539981 l -0.50286,-0.53998 -0.39492,0.130336 c -0.2172,0.07168 -0.76191,0.18454 -1.21045,0.25079 -1.76695,0.260976 -1.73092,0.24143 -1.39375,0.75601 0.10907,0.166457 0.15447,0.383852 0.10967,0.52503 -0.0635,0.200154 -0.0254,0.240943 0.22543,0.240943 0.24624,0 0.30191,-0.05602 0.30191,-0.303781 0,-0.391628 0.28085,-0.31681 0.32932,0.08773 0.0476,0.397131 -0.24699,0.615158 -0.84038,0.621996 -0.26867,0.0031 -0.61216,0.07611 -0.76333,0.162251 l -0.27485,0.156621 0.0397,0.725323 0.0397,0.725323 -0.23518,-0.01909 c -0.12935,-0.0105 -0.35425,-0.05636 -0.49977,-0.101909 -0.22584,-0.0707 -0.26458,-0.03984 -0.26458,0.210708 0,0.205255 -0.15915,0.423935 -0.52917,0.727143 -0.29104,0.238487 -0.52917,0.49118 -0.52917,0.56154 0,0.234449 0.8929,0.981248 1.56832,1.311697 0.3668,0.179462 0.73284,0.39135 0.81342,0.470863 0.29359,0.28971 1.64871,1.158685 2.15873,1.384295 0.65917,0.291578 1.94672,0.40452 2.59744,0.227844 0.29658,-0.08052 0.73557,-0.354016 1.09872,-0.684501 1.45334,-1.322609 2.01584,-2.769871 2.17381,-5.593056 0.0463,-0.827455 0.10345,-1.4852 0.12699,-1.461655 0.0235,0.02354 0.12597,0.481179 0.22761,1.016967 l 0.18479,0.974159 -0.17465,1.016663 c -0.47522,2.766307 -1.48328,4.269766 -3.53115,5.266485 -0.58589,0.285161 -1.2669,0.550719 -1.51336,0.590129 -0.63916,0.102205 -0.48544,0.294407 0.3918,0.489882 0.63043,0.140478 0.88425,0.143781 1.52105,0.0198 2.16197,-0.420936 3.37588,-1.871614 4.2305,-5.055648 0.0781,-0.291041 0.2408,-0.740833 0.36152,-0.999537 l 0.2195,-0.47037 -0.0635,0.705556 c -0.0349,0.388055 -0.10595,0.837847 -0.15786,0.999537 -0.0519,0.161689 -0.15948,0.532106 -0.23903,0.823148 -0.63354,2.317922 -1.94896,3.883677 -3.80655,4.530991 -0.2672,0.09311 -0.56519,0.171696 -0.6622,0.174637 -0.2959,0.009 -1.14816,1.281469 -1.5345,2.291131 -0.28576,0.746811 -0.50239,2.427368 -0.38716,3.003494 0.0726,0.362772 0.10734,0.382774 1.80407,1.037288 2.1145,0.815672 5.28455,1.745295 6.02588,1.767102 0.38883,0.01144 0.48263,-0.0454 0.80335,-0.486819 z M 287.35,-24.42331 c -0.10094,-0.263025 0.0305,-0.581966 0.21415,-0.519507 0.32489,0.110519 2.05133,-2.999322 2.62817,-4.734128 0.11828,-0.355717 0.28383,-0.752205 0.36788,-0.881084 0.13241,-0.203033 0.14312,-0.155923 0.0802,0.352778 -0.16775,1.356107 -0.87063,3.161162 -1.68749,4.333576 -0.18657,0.267773 -0.60652,0.747558 -0.93323,1.066189 -0.48768,0.475616 -0.60757,0.544034 -0.66968,0.382176 z m 3.40557,-8.046459 c 0.0288,-0.371886 0.062,-0.993657 0.0737,-1.381713 0.0164,-0.539797 0.0435,-0.636489 0.11555,-0.411574 0.11342,0.354157 0.14262,1.834911 0.0435,2.204861 -0.1379,0.514562 -0.28443,0.255484 -0.23278,-0.411574 z m -2.6878,-2.889859 c -0.0603,-0.371963 -0.0478,-0.611638 0.0363,-0.695821 0.20436,-0.204365 0.28637,0.173536 0.16356,0.753723 l -0.10785,0.509504 z m -1.81666,-3.371946 c -0.0123,-0.587725 0.19753,-1.257721 0.42076,-1.343383 0.25592,-0.09821 0.31451,-0.01834 0.17913,0.2442 -0.15729,0.305028 -0.3374,0.744709 -0.47435,1.157979 L 286.25974,-38.32 Z m -82.50114,16.425621 c 0.38806,-0.327065 1.33741,-1.215212 2.10968,-1.973661 l 1.40413,-1.378997 -0.20882,-0.46307 c -0.57007,-1.2642 -1.60764,-1.683264 -3.15226,-1.273172 -0.89507,0.237639 -0.86735,0.225703 -3.44532,1.483616 -3.00873,1.468103 -5.1742,2.248094 -7.17315,2.583735 -0.97714,0.16407 -1.43022,0.286817 -2.2806,0.617849 l -0.6343,0.24692 0.27671,0.102364 c 0.1522,0.0563 0.88743,0.157739 1.63384,0.22542 0.74642,0.06768 1.85984,0.174428 2.47426,0.237217 1.90644,0.194824 4.56525,0.292881 6.46759,0.238524 l 1.82269,-0.05208 z m 92.73831,-4.93203 c 0.16462,-2.333604 0.29797,-2.618344 2.10591,-4.496838 1.42177,-1.477241 1.80926,-1.945311 2.21469,-2.675232 0.28153,-0.506839 0.14497,-0.602882 -0.16719,-0.117592 -0.463,0.719783 -1.38646,1.910879 -1.4815,1.910879 -0.20216,0 -0.095,-0.660581 0.17201,-1.060434 0.37656,-0.563885 1.19831,-2.22081 1.29659,-2.614334 0.0444,-0.177859 0.0347,-0.32338 -0.0215,-0.32338 -0.0942,0 -0.84296,1.113139 -0.84296,1.253243 0,0.0489 -0.36806,0.608092 -1.02809,1.56198 -0.0197,0.02849 -0.12302,-0.03538 -0.22956,-0.141924 -0.27836,-0.278358 -0.0559,-0.935068 0.72148,-2.130104 0.64324,-0.988776 0.86863,-1.483935 0.6755,-1.483935 -0.13035,0 -0.97003,1.261609 -1.42256,2.137356 -0.39398,0.762461 -0.60009,0.904151 -1.00217,0.688963 -0.35983,-0.192577 -0.37384,-0.3415 -0.0802,-0.853067 0.12176,-0.212164 0.46353,-0.80686 0.7595,-1.321546 0.29596,-0.514687 0.51068,-0.963223 0.47716,-0.996748 -0.1697,-0.169693 -2.51638,2.755758 -2.51638,3.136997 0,0.05387 -0.1566,0.281156 -0.348,0.505079 -0.1914,0.223923 -0.35015,0.473278 -0.35278,0.554123 -0.003,0.08084 -0.0536,0.146991 -0.11325,0.146991 -0.14036,0 -0.29841,-0.522546 -0.5335,-1.763889 -0.36092,-1.905675 -0.61834,-2.124358 -0.96895,-0.823148 -0.29879,1.108873 -0.0963,3.048645 0.40733,3.901478 0.21138,0.357964 0.13173,1.005954 -0.3987,3.243611 -0.29729,1.254166 -0.28303,1.425289 0.15089,1.810591 0.26106,0.23181 1.10991,0.731456 1.71599,1.010057 0.24253,0.111488 0.44097,0.253723 0.44097,0.316077 0,0.06235 0.064,0.04939 0.14219,-0.02882 0.0794,-0.07937 0.17972,-0.6742 0.22714,-1.346435 z m -39.14907,0.527828 c 0.21217,-0.114512 0.59742,-0.27676 0.85613,-0.36055 0.2587,-0.08379 0.5762,-0.194434 0.70555,-0.245873 0.35455,-0.140991 1.01179,-0.33252 1.44051,-0.419787 l 0.38218,-0.07779 v -0.496305 c 0,-0.272967 -0.0475,-0.546575 -0.10555,-0.608017 -0.0581,-0.06144 -0.13312,-0.32338 -0.16681,-0.582084 -0.0337,-0.258703 -0.11249,-0.682037 -0.1751,-0.940741 -0.0626,-0.258703 -0.20157,-0.920162 -0.30878,-1.469907 -0.27337,-1.401646 -0.45039,-1.998883 -0.50538,-1.705093 -0.0242,0.129352 -0.0882,0.341019 -0.14226,0.470371 -0.054,0.129352 -0.23278,0.658518 -0.39724,1.175926 -0.53417,1.680533 -1.0152,2.916336 -1.61184,4.140865 -0.32185,0.660578 -0.58519,1.229432 -0.58519,1.264121 0,0.117458 0.22649,0.0639 0.61378,-0.145136 z m 21.33941,-1.86154 c 0.36557,-0.187497 0.68402,-0.399547 0.70767,-0.471222 0.0237,-0.07167 -0.32651,-0.428862 -0.77812,-0.79375 -0.78222,-0.632005 -1.06885,-0.783427 -1.06885,-0.564661 0,0.05432 -0.2249,0.169689 -0.49977,0.256367 -0.27487,0.08668 -0.55268,0.19471 -0.61736,0.240071 -0.15552,0.109074 -0.86169,0.221141 -1.91719,0.304249 l -0.85885,0.06763 0.21195,0.234202 c 0.99721,1.101907 3.38698,1.462375 4.82052,0.727119 z m -1.25689,-5.913971 c 0,-0.150516 -0.34942,-0.263724 -0.5092,-0.164975 -0.0839,0.05184 -0.0241,0.114485 0.1576,0.165049 0.16104,0.04482 0.30603,0.08677 0.3222,0.09322 0.0162,0.0064 0.0294,-0.03553 0.0294,-0.09329 z m 5.18426,-4.608292 c 0.68,-0.640418 1.05081,-0.896031 1.97572,-1.361919 0.73177,-0.368603 0.76572,-0.55087 0.0481,-0.258252 -0.87567,0.357066 -1.125,0.491795 -1.64713,0.890074 -0.57083,0.435426 -0.62299,0.483847 -1.02246,0.949144 -0.40662,0.473622 0.0887,0.30561 0.64578,-0.219047 z m -24.17861,-5.105678 c 0.3567,-0.258704 0.6328,-0.518518 0.61356,-0.577365 -0.0192,-0.05885 -0.20882,-0.200223 -0.42128,-0.314168 -0.57607,-0.308948 -0.59329,-0.382096 -0.0715,-0.303832 0.2587,0.03881 0.39678,0.03894 0.30684,2.87e-4 -0.16438,-0.07063 -0.30938,-0.182884 -0.99348,-0.769087 -0.52057,-0.446074 -0.32041,-0.59029 0.82351,-0.593348 1.27726,-0.0034 1.55738,-0.286152 0.86266,-0.870717 -0.5928,-0.49881 -0.41939,-1.099085 0.3175,-1.099085 0.48783,0 0.50636,0.190516 0.0287,0.295419 -0.24033,0.05279 -0.34742,0.140153 -0.32338,0.26383 0.0266,0.136992 0.18831,0.187526 0.62391,0.195006 0.40358,0.0069 0.57874,0.05619 0.55857,0.157088 -0.0375,0.187505 0.34917,0.191755 0.53504,0.0059 0.0836,-0.08358 0.14111,-0.485767 0.14111,-0.986509 0,-0.629941 0.0525,-0.910163 0.20579,-1.099514 0.21011,-0.259458 1.12618,-0.540289 1.33713,-0.409913 0.27356,0.16907 0.66473,-0.06736 0.7422,-0.448606 0.2156,-1.061012 0.21427,-1.083419 -0.0716,-1.206476 -0.20371,-0.08768 -0.27422,-0.214264 -0.27721,-0.497637 -0.005,-0.460824 -0.31462,-0.728126 -0.84982,-0.733345 -0.38135,-0.0037 -1.46239,-0.436606 -1.53722,-0.615559 -0.0216,-0.05156 -0.10094,-0.09497 -0.17639,-0.09647 -0.0755,-0.0015 -0.34886,-0.19372 -0.60756,-0.427154 -1.10311,-0.995353 -1.89102,-1.452049 -2.50242,-1.450469 -0.8175,0.0021 -2.25875,1.291709 -2.72006,2.433846 -0.12408,0.307184 -0.12448,0.485727 -0.002,0.962928 0.12244,0.477762 0.12203,0.61969 -0.002,0.769422 -0.1942,0.233996 -0.59395,0.238849 -0.59395,0.0072 0,-0.09701 -0.0929,-0.176389 -0.20647,-0.176389 -0.29945,0 -0.7741,1.079656 -0.67434,1.53387 0.0513,0.233443 0.14833,0.347611 0.29552,0.347611 0.32409,0 0.58529,0.455282 0.58529,1.020169 0,0.273608 0.0474,0.619021 0.10535,0.767585 0.0579,0.148564 0.17063,0.508242 0.25042,0.799283 0.3708,1.35252 1.40569,2.829005 2.39281,3.413841 0.47061,0.27882 0.52865,0.265585 1.30522,-0.297637 z m 0.6205,-5.931033 c -0.36205,-0.230101 -0.55856,-0.43779 -0.55856,-0.590343 v -0.235351 l 0.50911,0.358854 c 0.28212,0.198853 0.72975,0.388448 1.00398,0.425229 0.58657,0.07868 0.59079,0.312753 0.006,0.3624 -0.28696,0.02438 -0.56282,-0.0677 -0.96105,-0.320789 z m 1.10201,-0.835364 c -0.53769,-0.486161 -1.06348,-0.604576 -1.54357,-0.347637 -0.13838,0.07406 -0.24607,0.07625 -0.28955,0.0059 -0.11455,-0.185352 0.35565,-0.358996 0.97211,-0.358996 0.42122,0 0.67263,0.07206 0.91907,0.263443 0.53811,0.417877 0.86017,0.763933 0.78288,0.841215 -0.14409,0.144098 -0.33766,0.05112 -0.84094,-0.403925 z m -0.76952,5.785863 c -0.2511,-0.049 -0.35319,0.03998 -0.2456,0.214069 0.0582,0.09412 0.13304,0.08803 0.26528,-0.02157 l 0.18423,-0.152701 z m 0.63765,-0.195392 c 0,-0.03234 -0.0265,-0.0588 -0.0588,-0.0588 -0.0323,0 -0.0588,0.02646 -0.0588,0.0588 0,0.03234 0.0265,0.0588 0.0588,0.0588 0.0323,0 0.0588,-0.02646 0.0588,-0.0588 z m -0.42627,-0.152605 c 0.10352,-0.167503 -0.0949,-0.342744 -0.45567,-0.402482 -0.19403,-0.03213 -0.44538,-0.09801 -0.55857,-0.146418 -0.34418,-0.147195 -0.22692,0.09717 0.17793,0.370817 0.39531,0.26719 0.73636,0.339812 0.83631,0.178083 z m 0.66146,-0.08258 c 0,-0.03234 -0.0265,-0.0588 -0.0588,-0.0588 -0.0323,0 -0.0588,0.02646 -0.0588,0.0588 0,0.03234 0.0265,0.0588 0.0588,0.0588 0.0323,0 0.0588,-0.02646 0.0588,-0.0588 z m 1.85093,-2.267814 c 0.33055,-0.812472 0.32956,-0.876756 -0.0159,-1.036869 l -0.27983,-0.129683 -0.0805,0.717646 c -0.0889,0.792297 -0.39325,1.246813 -0.83503,1.246813 -0.32278,0 -0.64741,0.625196 -0.55946,1.077454 l 0.0609,0.313103 0.72206,-0.767654 c 0.4533,-0.481926 0.82096,-1.010765 0.98779,-1.42081 z m -2.64244,1.543921 c -0.0796,-0.03221 -0.23837,-0.03417 -0.35278,-0.0044 -0.11442,0.02981 -0.0493,0.05617 0.14475,0.05857 0.19403,0.0024 0.28764,-0.022 0.20803,-0.05421 z m 0.51713,-0.354039 c -0.0431,-0.04312 -0.0784,-0.0078 -0.0784,0.0784 0,0.08623 0.0353,0.121512 0.0784,0.0784 0.0431,-0.04312 0.0431,-0.113673 0,-0.15679 z m 3.07443,-2.748408 c 0.39919,-0.371902 0.332,-0.584015 -0.18362,-0.579642 -0.56474,0.0048 -0.90062,0.247509 -0.79649,0.575587 0.10227,0.322221 0.63622,0.32443 0.98011,0.0041 z m -9.07166,-2.896037 c -0.0431,-0.04312 -0.11367,-0.04312 -0.15679,0 -0.0431,0.04312 -0.008,0.0784 0.0784,0.0784 0.0862,0 0.12152,-0.03528 0.0784,-0.0784 z m 10.62253,-1.025555 c 0,-0.09663 0.0473,-0.204938 0.10518,-0.240687 0.10216,-0.06314 0.14431,-0.273365 0.31411,-1.566633 0.11201,-0.853118 -0.18284,-1.966381 -0.67674,-2.555151 -0.51067,-0.608761 -0.66148,-0.755404 -1.18776,-1.154941 -0.64219,-0.487541 -1.24547,-0.77891 -2.3261,-1.123454 -0.53293,-0.16992 -2.30062,-0.173892 -2.82572,-0.0063 -0.88072,0.281005 -1.49608,0.674831 -2.28121,1.459963 -1.24728,1.24728 -2.20715,3.260935 -2.50844,5.262268 -0.0792,0.526224 -0.0682,0.676158 0.0499,0.676158 0.0834,0 0.18435,-0.05292 0.22433,-0.117593 0.04,-0.06468 0.2283,-0.117593 0.41851,-0.117593 0.26566,0 0.34584,-0.05369 0.34584,-0.231608 0,-0.257042 0.34587,-0.924336 0.77232,-1.490063 0.40246,-0.533902 1.67181,-1.453329 2.00645,-1.453329 0.36001,0 0.46395,-0.258178 0.28137,-0.698945 -0.0989,-0.238796 -0.33535,-0.433666 -0.78384,-0.646012 -0.9879,-0.46775 -0.5762,-0.758691 0.44798,-0.316577 0.61355,0.264856 0.86782,0.531374 1.07336,1.125069 0.12913,0.372966 0.24623,0.482135 0.70328,0.655629 0.44319,0.168229 1.31781,0.739644 1.61389,1.054393 0.0323,0.03438 0.27037,0.220953 0.52896,0.414612 0.73282,0.548812 1.46893,0.881276 1.95125,0.881276 0.3715,0 0.50689,-0.07664 0.85616,-0.484693 0.32268,-0.376975 0.42272,-0.605646 0.45014,-1.028935 0.0299,-0.461999 0.0752,-0.549921 0.29984,-0.581819 l 0.26458,-0.03758 v 0.654938 c 0,0.360216 -0.0529,0.654938 -0.11759,0.654938 -0.0647,0 -0.1176,0.06363 -0.1176,0.141392 0,0.07777 -0.17056,0.317365 -0.37902,0.532441 -0.32805,0.338463 -0.35967,0.422021 -0.23518,0.621364 0.0791,0.126674 0.14383,0.34915 0.14383,0.494393 0,0.228762 0.0393,0.20622 0.29398,-0.168554 0.16169,-0.237948 0.29399,-0.511692 0.29399,-0.60832 z m 9.72344,30.778931 c -0.16645,-0.166454 -0.0723,-0.394425 0.16296,-0.394425 0.16439,0 0.23143,0.06386 0.20579,0.196043 -0.042,0.216426 -0.24271,0.324421 -0.36875,0.198382 z m 0.10097,-1.235075 c -0.21942,-0.670821 -0.70272,-1.435446 -1.14101,-1.805183 -0.47928,-0.404309 -1.01932,-0.609259 -2.34107,-0.888443 -1.45137,-0.306567 -3.12474,0.211675 -4.18686,1.296668 -0.58865,0.601332 -0.74435,0.639947 -0.74435,0.184597 0,-0.341476 1.0261,-1.308126 1.77106,-1.668447 1.02584,-0.496177 1.31405,-0.557114 2.62941,-0.555947 l 1.30277,0.0012 0.78274,0.37499 c 0.79831,0.382445 1.6279,1.088142 1.6279,1.384777 0,0.09055 0.04,0.164629 0.0889,0.164629 0.0489,0 0.15916,0.171979 0.24505,0.382176 0.0859,0.210197 0.20258,0.488009 0.25932,0.617361 0.16113,0.367331 0.18517,1.030134 0.0392,1.080844 -0.0726,0.02522 -0.22235,-0.23072 -0.33305,-0.569179 z m -4.1145,-0.243848 c -0.22877,-0.326616 -0.22939,-0.483872 -0.004,-0.920416 0.13817,-0.267187 0.26048,-0.346938 0.53208,-0.346938 0.37619,0 0.58203,0.311653 0.58203,0.8812 0,0.609518 -0.76715,0.87629 -1.11046,0.386154 z m -5.12194,-5.735872 c 0,-0.08624 0.0353,-0.121513 0.0784,-0.0784 0.0431,0.04312 0.0431,0.113673 0,0.15679 -0.0431,0.04312 -0.0784,0.0078 -0.0784,-0.0784 z m -11.28889,-0.923049 c -0.68008,-0.485897 -1.84523,-0.595924 -3.24644,-0.306564 -0.48597,0.100356 -0.65869,-0.252365 -0.27551,-0.562645 0.21022,-0.170225 0.48717,-0.20623 1.5653,-0.203504 1.13035,0.0029 1.38242,0.04033 1.83906,0.273421 0.29104,0.14856 0.59208,0.395469 0.66898,0.548687 0.24526,0.488664 -0.038,0.617408 -0.55139,0.250605 z m 2.86738,-0.657582 c -0.10525,-0.274273 10e-4,-0.589208 0.21284,-0.629974 0.23353,-0.04497 0.47641,0.352279 0.37576,0.614586 -0.0889,0.231737 -0.50144,0.242521 -0.5886,0.01539 z m 8.22276,-1.535573 c 6.6e-4,-0.388056 0.0226,-0.532629 0.0488,-0.321274 0.0262,0.211355 0.0256,0.528855 -10e-4,0.705556 -0.0268,0.1767 -0.0482,0.0038 -0.0476,-0.384282 z m -18.1163,0.450772 c -0.20707,-0.08283 -0.18313,-0.68596 0.0344,-0.866482 0.25739,-0.213612 0.43231,0.004 0.38576,0.479896 -0.0383,0.391365 -0.15037,0.494495 -0.42014,0.386586 z m -1.42194,-2.39105 c 0,-0.16169 0.0267,-0.227835 0.0593,-0.146991 0.0326,0.08085 0.0326,0.213137 0,0.293982 -0.0326,0.08085 -0.0593,0.0147 -0.0593,-0.146991 z m 0.2259,-1.009336 c 0.006,-0.136989 0.0335,-0.164853 0.0711,-0.07105 0.034,0.08489 0.0298,0.186311 -0.009,0.225386 -0.0391,0.03908 -0.0669,-0.03038 -0.0618,-0.15434 z m 0.18145,-0.4656 c -0.12517,-0.32618 0.46896,-1.888393 0.83312,-2.190617 0.27639,-0.229385 0.48155,0.0807 0.26814,0.405294 -0.0946,0.143906 -0.36369,0.649854 -0.59794,1.124329 -0.31326,0.634473 -0.4464,0.809328 -0.50332,0.660994 z"
       id="path15" /></g></svg>
