<?xml version="1.0" encoding="UTF-8" standalone="no"?>
<!-- Created with Inkscape (http://www.inkscape.org/) -->

<svg
   width="174.18439mm"
   height="120.04197mm"
   viewBox="0 0 174.18439 120.04197"
   version="1.1"
   id="svg1"
   xml:space="preserve"
   xmlns="http://www.w3.org/2000/svg"
   xmlns:svg="http://www.w3.org/2000/svg"><defs
     id="defs1" /><g
     id="layer1"
     transform="translate(-385.02128,-162.89428)"><path
       style="fill:#4d4d4d"
       d="m 451.8698,282.68043 c -0.0899,-0.14552 -0.63274,-0.26459 -1.20624,-0.26459 -0.57349,0 -1.04272,-0.11906 -1.04272,-0.26458 0,-0.14552 -0.16559,-0.26458 -0.36798,-0.26458 -0.74375,0 -2.54261,-0.98719 -3.10754,-1.70539 -1.01833,-1.2946 -0.53427,-3.021 0.85483,-3.0487 0.23211,-0.005 0.62426,-0.23189 0.87144,-0.50503 0.25666,-0.2836 0.98632,-0.56783 1.70115,-0.66265 0.68844,-0.0913 1.66551,-0.44719 2.17126,-0.79082 0.50576,-0.34362 1.33627,-0.7072 1.84559,-0.80796 0.50933,-0.10075 1.16417,-0.2814 1.45521,-0.40143 0.29104,-0.12003 1.27331,-0.4405 2.18281,-0.71214 0.90951,-0.27165 1.65365,-0.58322 1.65365,-0.69239 0,-0.10917 0.23813,-0.19849 0.52917,-0.19849 0.29104,0 0.52916,-0.11907 0.52916,-0.26459 0,-0.14552 0.17585,-0.26458 0.39078,-0.26458 0.38595,0 1.37219,-1.23565 1.15755,-1.45028 -0.061,-0.061 -3.02389,0.006 -6.58428,0.14826 -7.98358,0.31957 -35.58861,0.40298 -40.52777,0.12245 l -3.62726,-0.20602 -0.0769,2.34644 -0.0769,2.34644 -4.66838,0.0721 -4.66838,0.0721 -0.29256,-0.83923 c -0.1609,-0.46157 -0.29255,-1.85544 -0.29255,-3.09749 0,-3.20608 -0.60738,-5.20802 -1.84808,-6.09135 -0.53098,-0.37804 -1.25512,-1.14831 -1.60919,-1.71171 -0.35408,-0.5634 -1.09026,-1.42904 -1.63596,-1.92364 -0.54571,-0.4946 -0.99219,-1.01865 -0.99219,-1.16455 0,-0.14589 -0.10616,-0.26527 -0.2359,-0.26527 -0.12975,0 -0.31681,-0.32236 -0.4157,-0.71637 -0.0989,-0.394 -0.58805,-1.16825 -1.08702,-1.72055 -0.49897,-0.5523 -0.90721,-1.12862 -0.90721,-1.28072 0,-0.15209 -0.40092,-0.90326 -0.89092,-1.66926 -0.49001,-0.766 -1.04147,-1.86161 -1.22548,-2.43468 -0.184,-0.57308 -0.67605,-1.76346 -1.09345,-2.64529 -0.4174,-0.88183 -0.7589,-1.6868 -0.7589,-1.78882 0,-0.10202 -0.22866,-0.69021 -0.50813,-1.30709 -0.71348,-1.57489 -1.34396,-3.94363 -1.34396,-5.0493 0,-0.51472 -0.1059,-1.00131 -0.23535,-1.08131 -0.12944,-0.08 -0.29473,-0.53351 -0.36731,-1.0078 -0.0726,-0.47429 -0.20962,-1.16001 -0.30453,-1.52381 -0.34566,-1.32495 -0.20098,-6.47302 0.23794,-8.46667 0.24028,-1.0914 0.54617,-2.57968 0.67975,-3.30729 0.24428,-1.33063 1.66673,-4.34523 2.74658,-5.82083 0.31948,-0.43656 0.79366,-1.25234 1.05373,-1.81283 0.26008,-0.56049 1.23545,-1.76679 2.16749,-2.68066 0.93204,-0.91387 1.69462,-1.79098 1.69462,-1.94914 0,-0.15815 0.68461,-0.78485 1.52135,-1.39265 0.83675,-0.60781 1.75948,-1.35696 2.05052,-1.66478 0.91699,-0.96986 2.30458,-1.86442 4.7625,-3.07033 1.30969,-0.64255 2.56815,-1.32056 2.79658,-1.50668 0.55677,-0.45366 3.34788,-1.40106 4.1276,-1.40106 0.343,0 0.83037,-0.11425 1.08306,-0.25389 0.56977,-0.31486 2.48851,-0.74954 5.08964,-1.15301 2.4309,-0.37706 12.76632,-0.36613 14.94896,0.0158 3.14443,0.55025 8.40885,2.54056 8.6524,3.2712 0.0611,0.18346 0.32702,0.23543 0.66142,0.1293 0.68873,-0.2186 1.02925,-0.95108 0.44214,-0.95108 -0.63518,0 -2.00221,-0.83772 -2.80645,-1.71979 -1.77682,-1.94879 -2.49832,-4.69943 -1.65621,-6.3141 0.21738,-0.41682 0.39524,-1.33091 0.39524,-2.03132 0,-0.99846 0.12856,-1.37973 0.59531,-1.76551 0.98111,-0.81091 1.34307,-1.6913 1.55398,-3.7797 0.35663,-3.53145 0.42639,-3.70289 1.74382,-4.28565 1.54946,-0.6854 2.19231,-1.36239 2.19231,-2.30875 0,-2.45231 1.37076,-5.04727 2.66618,-5.04727 0.27985,0 0.50975,-0.0893 0.51088,-0.19843 0.006,-0.55581 2.6675,-1.3718 5.14071,-1.57597 1.75027,-0.14448 3.22156,0.22467 4.64208,1.16471 0.50673,0.33533 1.11941,0.60969 1.36153,0.60969 0.24212,0 0.89909,0.51187 1.45994,1.13748 0.56084,0.62561 0.87089,0.94366 0.68899,0.70677 -0.1819,-0.23689 -0.33073,-0.62969 -0.33073,-0.87289 0,-0.24321 -0.11906,-0.44219 -0.26458,-0.44219 -0.14552,0 -0.26459,-0.17859 -0.26459,-0.39688 0,-0.24694 -0.24988,-0.39687 -0.66145,-0.39687 -0.80136,0 -0.82263,-0.29374 -0.12558,-1.73366 0.42581,-0.87962 0.48016,-1.25355 0.26458,-1.82055 -0.3715,-0.97713 -0.32652,-2.30399 0.097,-2.86194 0.41849,-0.5513 0.69002,-0.59547 0.69002,-0.11226 0,0.19291 0.29722,0.62998 0.6605,0.97126 0.60664,0.56991 0.71991,0.59029 1.38906,0.24994 0.40071,-0.20382 1.08575,-0.62293 1.52231,-0.93137 0.43656,-0.30843 1.31709,-0.7633 1.95673,-1.01082 0.63964,-0.24752 1.39242,-0.74173 1.67285,-1.09824 0.28043,-0.35651 0.71951,-0.64819 0.97574,-0.64819 0.25622,0 0.55508,-0.0892 0.66412,-0.19826 0.47482,-0.47483 2.83611,-0.77436 4.29764,-0.54517 1.26141,0.19781 1.65076,0.39734 2.37591,1.21761 0.477,0.53956 0.87223,1.0497 0.87829,1.13364 0.006,0.0839 0.35275,0.10245 0.77043,0.0412 0.73358,-0.10766 2.94475,0.99306 2.94475,1.4659 0,0.1088 0.26789,0.50058 0.59531,0.87061 1.23905,1.40029 2.05052,3.11091 2.05052,4.32258 v 0.8351 l 2.31511,0.31367 c 1.95439,0.2648 2.3991,0.41822 2.85421,0.98467 0.29651,0.36905 0.63243,0.671 0.7465,0.671 0.25807,0 0.96335,-0.68998 0.96335,-0.94245 0,-0.10256 0.40811,-0.61708 0.90691,-1.14337 0.4988,-0.52629 1.56096,-1.6477 2.36036,-2.49202 0.79939,-0.84433 1.78827,-1.97542 2.19751,-2.51355 0.80716,-1.06137 1.61953,-2.0407 2.14199,-2.5822 0.1819,-0.18853 0.33073,-0.45051 0.33073,-0.58217 0,-0.36393 1.88848,-2.18046 2.71198,-2.60866 0.40018,-0.20809 0.72842,-0.46458 0.72941,-0.56998 10e-4,-0.10541 0.41772,-0.47488 0.92604,-0.82106 0.50833,-0.34618 0.92424,-0.78275 0.92424,-0.97014 0,-0.1874 0.0942,-0.38041 0.20939,-0.42892 0.11517,-0.0485 0.55048,-0.54052 0.96736,-1.09337 0.9236,-1.22486 1.60161,-1.21308 2.44569,0.0425 0.44871,0.66744 0.53351,1.00975 0.33983,1.37167 -0.14196,0.26524 -0.25811,0.73362 -0.25811,1.04085 0,0.30722 -0.28057,0.83916 -0.62349,1.18208 -0.34292,0.34292 -0.69839,1.08165 -0.78993,1.64162 -0.0915,0.55997 -0.58286,1.85156 -1.09184,2.87021 -0.50898,1.01864 -0.92742,2.23128 -0.92987,2.69475 -0.002,0.46347 -0.12794,1.16747 -0.27886,1.56444 -0.1895,0.49842 -0.1895,0.80669 0,0.99618 0.39035,0.39036 0.33947,1.53576 -0.11672,2.62757 -0.52162,1.24841 -1.6375,1.77435 -3.7646,1.77435 -1.37009,0 -1.87892,0.12622 -2.6666,0.66146 -0.53538,0.3638 -1.06983,0.66146 -1.18765,0.66146 -0.39667,0 -2.30877,2.26174 -2.30877,2.73094 0,0.0746 0.56555,0.34383 1.25677,0.5982 0.69123,0.25437 1.36988,0.56187 1.50813,0.68334 0.13824,0.12147 0.47158,0.22085 0.74074,0.22085 0.47257,0 2.04466,0.69879 2.31519,1.02911 0.0728,0.0888 0.55463,0.37562 1.07081,0.63729 1.17374,0.59503 3.40991,2.72154 4.43091,4.21361 0.44626,0.65215 0.85604,1.6853 0.96736,2.43889 0.13407,0.90761 0.46905,1.64417 1.09536,2.4085 0.49623,0.60558 0.90223,1.19191 0.90223,1.30294 0,0.11104 0.41672,0.76957 0.92604,1.46341 0.50933,0.69384 0.92604,1.40579 0.92604,1.58213 0,0.40598 0.75554,1.77492 1.49114,2.70173 0.51756,0.65211 1.24359,2.07262 3.49016,6.82864 0.4468,0.94589 0.88727,2.07698 0.97882,2.51354 0.0916,0.43657 0.26316,1.03188 0.38134,1.32292 0.56362,1.38809 0.83342,3.0271 0.96844,5.88325 0.11566,2.44664 0.27532,3.39562 0.74623,4.4355 0.3295,0.7276 0.72471,1.73964 0.87825,2.24896 0.15353,0.50932 0.46889,1.52135 0.70078,2.24896 0.54738,1.71747 0.55987,5.44402 0.022,6.57739 -0.37178,0.78347 -1.12925,1.68008 -2.12156,2.51128 -0.49194,0.41206 -0.31011,0.77207 0.19702,0.39011 0.18542,-0.13966 1.0515,-0.4691 1.92463,-0.73209 0.87312,-0.26299 1.79424,-0.58242 2.04693,-0.70983 0.25268,-0.12741 0.61735,-0.23165 0.81038,-0.23165 0.19302,0 0.96795,-0.29766 1.72208,-0.66146 0.75413,-0.36381 1.60282,-0.66146 1.88599,-0.66146 0.28316,0 0.57676,-0.10019 0.65244,-0.22264 0.34199,-0.55334 7.58466,-1.76802 9.20956,-1.54455 0.62432,0.0859 2.02809,0.27726 3.11949,0.42533 2.26901,0.30783 4.24978,0.78674 4.61698,1.11628 0.13825,0.12407 0.52279,0.22558 0.85454,0.22558 0.61759,0 2.75723,0.7555 2.99515,1.05757 0.0728,0.0924 0.81639,0.35943 1.65251,0.59344 0.83612,0.234 1.83656,0.6743 2.22321,0.97843 0.70114,0.55152 1.09606,0.56906 0.76537,0.034 -0.0959,-0.1552 -0.32816,-0.28218 -0.51609,-0.28218 -0.18793,0 -0.62739,-0.37602 -0.97657,-0.83561 -0.34919,-0.45958 -1.28973,-1.25301 -2.0901,-1.76317 -0.80036,-0.51017 -1.51474,-1.00878 -1.5875,-1.10804 -0.0728,-0.0992 -0.43231,-0.25371 -0.79901,-0.34325 -0.3667,-0.0895 -0.92727,-0.40552 -1.24571,-0.70219 -0.31844,-0.29668 -0.67674,-0.53941 -0.79622,-0.53941 -0.11948,0 -0.39235,-0.24557 -0.60638,-0.54572 -0.55677,-0.7808 -1.92479,-1.57095 -2.71986,-1.57095 -0.37441,0 -0.74586,-0.10533 -0.82542,-0.23407 -0.0796,-0.12875 -0.47355,-0.29894 -0.87551,-0.37821 -0.40197,-0.0793 -1.50475,-0.34922 -2.45064,-0.59988 -0.94588,-0.25066 -3.02948,-0.50705 -4.63021,-0.56976 -2.7932,-0.10943 -3.71082,-0.002 -7.40833,0.87096 -3.93211,0.92787 -5.97047,0.68841 -2.57067,-0.30199 0.83178,-0.24231 1.75046,-0.5358 2.0415,-0.65221 0.52787,-0.21112 1.05594,-0.33552 3.3073,-0.77912 1.65485,-0.32606 7.31877,-0.31133 8.59895,0.0224 0.58209,0.15172 1.48701,0.36776 2.01094,0.48008 0.52393,0.11233 1.48426,0.4616 2.13406,0.77616 0.6498,0.31457 1.47451,0.57193 1.8327,0.57193 0.35819,0 1.01453,0.32743 1.45853,0.72761 1.6147,1.45533 2.63167,2.24123 3.2794,2.53426 0.3638,0.16458 0.72099,0.3674 0.79375,0.4507 0.0728,0.0833 0.57539,0.3576 1.11696,0.60954 1.0511,0.48899 6.02679,5.19134 6.02679,5.69571 0,0.16552 0.48305,0.78399 1.07345,1.37438 1.2933,1.29331 3.08831,4.01952 4.37879,6.65039 1.31461,2.68008 1.35234,2.77795 1.81635,4.71158 0.47247,1.96891 0.62123,10.87167 0.21884,13.09688 l -0.23923,1.32291 -0.20265,-1.69781 c -0.23911,-2.00319 -0.74608,-3.6604 -1.63651,-5.34945 -0.3556,-0.67454 -0.64654,-1.36546 -0.64654,-1.53539 0,-0.16993 -0.29766,-0.747 -0.66146,-1.28239 -0.3638,-0.53538 -0.66146,-1.13269 -0.66146,-1.32735 0,-0.4656 -1.29312,-2.29704 -2.56067,-3.62665 -0.55616,-0.58339 -1.22257,-1.38747 -1.48092,-1.78684 -0.25834,-0.39938 -0.92216,-1.01176 -1.47516,-1.36085 -0.55299,-0.34909 -1.40262,-1.03188 -1.88805,-1.51732 -0.83579,-0.83578 -1.4848,-1.3011 -2.38478,-1.70979 -0.21828,-0.0991 -1.70656,-0.80999 -3.30729,-1.5797 -3.95536,-1.90193 -4.9834,-2.22125 -7.16577,-2.22573 -1.87002,-0.004 -4.53208,0.37655 -5.53423,0.79081 -0.29104,0.12031 -1.18401,0.42785 -1.98438,0.68343 -0.80036,0.25558 -2.07291,0.74194 -2.82788,1.0808 -0.75498,0.33886 -1.53484,0.61611 -1.73303,0.61611 -0.19818,0 -0.47345,0.095 -0.61169,0.2112 -0.13825,0.11616 -0.9062,0.43408 -1.70656,0.70649 -0.80037,0.27241 -1.89933,0.77268 -2.44214,1.11172 -0.54281,0.33903 -1.16789,0.61642 -1.38907,0.61642 -0.22117,0 -0.40213,0.0899 -0.40213,0.19984 0,0.20437 -1.45916,0.77579 -2.64583,1.03613 -0.61894,0.13579 -2.81374,1.11978 -3.70417,1.66068 -0.21828,0.1326 -0.94439,0.45182 -1.61357,0.70939 l -1.2167,0.46829 0.50581,0.85729 c 0.27819,0.47151 0.92858,1.19189 1.44531,1.60086 0.87972,0.69625 3.2604,4.00028 3.2604,4.52494 0,0.13071 0.23358,0.44904 0.51906,0.70739 0.61141,0.55332 1.59761,2.367 1.59761,2.93809 0,0.21951 0.92681,1.33091 2.05958,2.46978 1.63087,1.63966 2.27799,2.11305 3.10885,2.27421 1.61611,0.31348 7.72702,0.3733 8.76815,0.0858 0.5105,-0.14096 1.11652,-0.18402 1.34671,-0.0957 0.36315,0.13936 0.35122,0.20498 -0.0902,0.49613 -1.6158,1.06573 -7.43842,1.41219 -9.90142,0.58915 -0.80037,-0.26745 -1.75121,-0.61883 -2.11298,-0.78085 -0.76868,-0.34425 -2.57833,-2.20315 -2.79812,-2.87427 -0.0834,-0.25466 -0.25104,-0.46302 -0.37252,-0.46302 -0.12148,0 -0.34799,-0.32742 -0.50336,-0.7276 -0.39288,-1.01193 -1.56455,-2.96345 -2.31561,-3.85686 -0.34585,-0.41139 -0.70122,-1.03647 -0.78972,-1.38906 -0.0885,-0.35258 -0.25414,-0.64106 -0.36811,-0.64106 -0.11397,0 -0.27842,-0.28369 -0.36544,-0.63042 -0.087,-0.34672 -0.87384,-1.29294 -1.74848,-2.1027 -0.87464,-0.80976 -1.59025,-1.65717 -1.59025,-1.88313 0,-0.22596 -0.11906,-0.41084 -0.26458,-0.41084 -0.14552,0 -0.26459,-0.18096 -0.26459,-0.40213 0,-0.57288 -1.24465,-2.46888 -2.24498,-3.41983 -0.46762,-0.44453 -1.05826,-1.25035 -1.31253,-1.79071 -0.25426,-0.54035 -0.65917,-1.04942 -0.89979,-1.13127 -0.24062,-0.0818 -1.17268,-0.84101 -2.07125,-1.68704 -1.97883,-1.86313 -3.08235,-2.24455 -7.75895,-2.68176 -3.75635,-0.35119 -6.58228,-1.22347 -8.14228,-2.5133 -0.89157,-0.73717 -2.42124,-1.29489 -4.48537,-1.63541 l -0.8537,-0.14083 0.41846,0.83882 c 0.58489,1.17245 1.19559,3.57996 1.34518,5.30305 0.11581,1.33407 0.21263,1.51577 1.16305,2.18281 0.5702,0.40018 1.1542,0.7276 1.29778,0.7276 0.14358,0 0.26105,0.11906 0.26105,0.26459 0,0.14552 0.15784,0.26458 0.35076,0.26458 0.19291,0 0.61346,0.27964 0.93454,0.62142 0.32744,0.34854 1.33527,0.83633 2.29508,1.11081 0.94121,0.26917 1.71129,0.58484 1.71129,0.7015 0,0.11665 0.31961,0.2121 0.71024,0.2121 0.85221,0 3.81703,0.78019 4.17132,1.09768 0.13825,0.12388 0.47932,0.22524 0.75794,0.22524 0.27863,0 1.05849,0.28158 1.73303,0.62574 0.67453,0.34416 1.64787,0.834 2.16298,1.08854 1.1416,0.56412 2.10615,1.96381 2.10615,3.05628 0,0.44508 0.19371,1.58037 0.43046,2.52289 0.35767,1.42389 0.67084,1.96988 1.85208,3.22904 0.7819,0.83346 1.42163,1.58675 1.42163,1.67397 0,0.0872 0.50602,0.38035 1.12448,0.65139 0.94553,0.41438 2.62291,1.47584 3.10885,1.96731 0.2633,0.26629 1.20096,0.81409 1.65365,0.96609 0.25466,0.0855 0.46302,0.26064 0.46302,0.38919 0,0.12855 0.19712,0.23373 0.43805,0.23373 0.24092,0 0.82829,0.29765 1.30526,0.66145 0.47697,0.36381 0.99422,0.66146 1.14945,0.66146 0.15524,0 0.28224,0.11907 0.28224,0.26459 0,0.14552 0.13311,0.26458 0.2958,0.26458 0.16269,0 0.70262,0.35719 1.19983,0.79375 0.87211,0.76572 1.61921,1.07398 1.2825,0.52917 -0.21387,-0.34605 -0.14267,-0.33779 1.2235,0.14202 1.98234,0.6962 4.29436,1.99287 5.22282,2.92915 l 0.89007,0.89758 h 2.73233 c 1.50279,0 2.80077,-0.11073 2.88442,-0.24607 0.0836,-0.13534 0.80793,-0.32801 1.60954,-0.42816 1.19937,-0.14985 1.40374,-0.24684 1.15406,-0.54769 -0.16688,-0.20107 -0.57191,-0.36558 -0.90008,-0.36558 -0.32816,0 -0.74371,-0.17719 -0.92344,-0.39375 -0.34705,-0.41817 -0.26017,-0.48879 0.92344,-0.7507 0.48551,-0.10742 0.48134,-0.11962 -0.0505,-0.14778 -0.59536,-0.0315 -1.15605,-0.55986 -0.59414,-0.55986 0.2315,0 0.23615,-0.0921 0.0179,-0.35507 -0.35729,-0.43051 -0.1355,-0.6961 0.60472,-0.72415 0.30316,-0.0115 0.40238,-0.0809 0.22048,-0.15434 -0.1819,-0.0734 -0.33073,-0.31486 -0.33073,-0.53658 0,-0.2412 0.15225,-0.34471 0.37901,-0.2577 0.74393,0.28547 3.58967,0.50458 3.58569,0.27608 -0.0116,-0.66887 -0.4854,-0.9255 -1.3939,-0.75506 -0.68264,0.12806 -1.16826,0.0462 -1.74405,-0.29389 -0.43888,-0.25926 -0.74744,-0.55314 -0.68568,-0.65308 0.10528,-0.17034 19.14708,-0.3649 19.19626,-0.19614 0.0125,0.0429 0.16134,1.14379 0.33073,2.44636 0.30468,2.34292 0.31578,2.36801 1.03559,2.34156 0.40018,-0.0147 2.0261,-0.0386 3.61315,-0.0532 l 2.88554,-0.0265 0.42175,-1.23776 c 0.23196,-0.68077 0.42357,-1.6035 0.4258,-2.05052 0.005,-1.05539 0.37967,-1.7057 0.62058,-1.07789 0.32708,0.85234 0.17258,4.29324 -0.23675,5.27291 l -0.40586,0.97137 -4.32788,-0.0458 c -2.38033,-0.0252 -4.44256,-0.12033 -4.58272,-0.21146 -0.14016,-0.0911 -0.36146,-1.29677 -0.49178,-2.67922 l -0.23694,-2.51354 -1.05833,0.12642 c -1.41314,0.16879 -11.23518,0.17364 -11.90625,0.006 -0.4669,-0.11672 -0.53333,0.008 -0.56455,1.05834 -0.0195,0.65484 -0.0492,1.33945 -0.0661,1.52135 -0.0169,0.1819 -0.36335,0.33073 -0.76984,0.33073 -0.62911,0 -0.79978,0.16731 -1.14707,1.12448 -0.35232,0.97101 -0.62158,1.22845 -1.97291,1.88625 -2.80032,1.36316 -8.35384,1.52556 -10.03157,0.29336 -0.43657,-0.32063 -1.73307,-0.91956 -2.88113,-1.33095 -1.14806,-0.41139 -2.36304,-1.02365 -2.69995,-1.36056 -0.33692,-0.33692 -0.67887,-0.61258 -0.75989,-0.61258 -0.081,0 -0.84502,-0.47625 -1.69777,-1.05833 -0.85275,-0.58209 -1.68484,-1.05834 -1.84909,-1.05834 -0.16425,0 -0.29863,-0.09 -0.29863,-0.19999 0,-0.11 -0.36115,-0.35986 -0.80256,-0.55525 -0.63603,-0.28153 -1.25367,-0.29746 -2.97657,-0.0768 -5.04409,0.64615 -22.1956,0.9189 -30.28598,0.48162 l -4.03489,-0.21809 v 3.32694 c 0,3.45012 -0.35915,4.45883 -0.64288,1.80559 -0.63521,-5.93998 -0.28427,-11.1183 0.93374,-13.77781 0.28815,-0.62918 0.59359,-1.49238 0.67876,-1.91823 0.0852,-0.42585 0.25904,-0.77428 0.38637,-0.77428 0.12733,0 0.23151,-0.16086 0.23151,-0.35747 0,-0.1966 0.29765,-0.91728 0.66146,-1.6015 0.3638,-0.68421 0.66145,-1.45924 0.66145,-1.72227 0,-0.26304 0.27976,-0.89049 0.62168,-1.39433 0.34192,-0.50385 0.83867,-1.50273 1.10389,-2.21974 0.26522,-0.717 0.57342,-1.42604 0.68489,-1.57563 0.21363,-0.2867 0.66876,-4.20858 0.56717,-4.88739 -0.25497,-1.70387 -0.64346,-3.83102 -0.9497,-5.20007 l -0.36421,-1.6282 0.78872,-0.15774 c 1.16781,-0.23356 2.52262,-0.19139 2.69271,0.0838 0.0821,0.13286 0.61122,0.3196 1.17579,0.41499 0.56458,0.0954 1.27335,0.4034 1.57505,0.68448 0.30171,0.28108 0.65899,0.51105 0.79396,0.51105 0.13497,0 0.58643,0.17786 1.00325,0.39525 0.41681,0.21738 0.94239,0.39598 1.16795,0.39687 0.22556,9e-4 0.52321,0.10939 0.66146,0.24108 0.13824,0.1317 1.38245,0.37756 2.76489,0.54636 1.38245,0.16879 3.22792,0.42532 4.10105,0.57006 0.87312,0.14473 2.06375,0.3295 2.64583,0.41058 0.61454,0.0856 1.59706,0.54085 2.34305,1.08562 1.39076,1.01564 1.58066,1.01176 4.01805,-0.0822 0.44267,-0.19867 1.39517,-0.50414 2.11667,-0.6788 0.7215,-0.17467 1.68699,-0.4785 2.14555,-0.67517 0.45855,-0.19667 0.90382,-0.35758 0.98948,-0.35758 0.0857,0 0.96802,-0.52066 1.9608,-1.15701 0.99278,-0.63636 2.06225,-1.23864 2.3766,-1.33842 1.61413,-0.5123 3.18858,-3.69654 2.86209,-5.78844 -0.41243,-2.64252 -0.93525,-4.91788 -1.45396,-6.32775 -0.36836,-1.00124 -0.55729,-2.13957 -0.55729,-3.35783 0,-1.01369 -0.11906,-1.91666 -0.26458,-2.0066 -0.14552,-0.0899 -0.26458,-0.53499 -0.26458,-0.98901 0,-0.45403 -0.10876,-1.19114 -0.24167,-1.63804 -0.13292,-0.44689 -0.37651,-1.34831 -0.54131,-2.00316 -0.58564,-2.32709 -0.75114,-2.80231 -1.7047,-4.89479 -1.3787,-3.0254 -2.80389,-5.73551 -3.33933,-6.35 -0.53255,-0.61117 -1.31675,-2.09639 -1.31675,-2.49385 0,-0.14914 -0.76313,-1.39674 -1.69585,-2.77243 -0.93272,-1.3757 -1.84219,-2.95623 -2.02104,-3.51229 -0.42742,-1.32888 -0.78803,-2.24243 -1.07795,-2.7308 -0.12958,-0.21828 -0.31253,-0.55981 -0.40655,-0.75896 -0.6933,-1.46846 -5.5534,-5.06188 -6.84622,-5.06188 -0.21294,0 -1.19098,-0.40324 -2.17342,-0.89608 -3.52069,-1.76618 -3.64113,-1.80348 -5.40968,-1.67512 -0.91754,0.0666 -1.90637,0.18699 -2.19741,0.26756 -0.29104,0.0806 -0.57499,0.1556 -0.63099,0.16673 -0.19697,0.0392 1.17053,1.00908 2.08289,1.47734 2.00318,1.02809 3.19893,3.27367 1.6561,3.11009 -0.73353,-0.0778 -0.75005,0.19073 -0.0653,1.06126 0.70734,0.89925 0.68225,1.01783 -0.42238,1.99579 -1.14463,1.01338 -1.83622,1.0551 -3.11415,0.18788 l -0.96454,-0.65455 0.4354,0.66451 c 0.409,0.6242 0.40547,0.6864 -0.0581,1.02539 -0.42019,0.30725 -0.6518,0.298 -1.55831,-0.0622 -1.09547,-0.43532 -1.72623,-0.90835 -1.72623,-1.29456 0,-0.12102 -0.29765,-0.54105 -0.66145,-0.93339 -0.36381,-0.39235 -0.66146,-0.83761 -0.66146,-0.98949 0,-0.15187 -0.23813,-0.27613 -0.52917,-0.27613 -0.46113,0 -0.52917,0.17639 -0.52917,1.37201 0,1.04248 -0.1375,1.51838 -0.57249,1.98141 -0.52957,0.56369 -0.5464,0.68846 -0.2245,1.66383 0.1914,0.57994 0.55352,1.27504 0.80471,1.54466 0.25119,0.26963 0.53884,0.74897 0.6392,1.0652 0.10037,0.31624 0.29353,0.57498 0.42925,0.57498 0.13571,0 0.24675,0.12307 0.24675,0.2735 0,0.15042 0.35165,0.61725 0.78145,1.03739 0.4298,0.42014 0.94963,1.16639 1.15517,1.65834 0.20555,0.49195 0.98499,1.53199 1.7321,2.3112 0.7471,0.77921 1.35836,1.53242 1.35836,1.67379 0,0.14138 0.68461,0.93037 1.52136,1.75333 1.91976,1.88812 2.39334,2.49433 2.60386,3.33311 0.0927,0.36943 0.36788,0.81773 0.61146,0.99624 0.50531,0.37031 2.67166,3.74197 2.67166,4.15812 0,0.15106 -0.1138,0.4814 -0.25289,0.73409 -0.48151,0.87477 -1.86378,4.06924 -1.86378,4.30725 0,0.13146 -0.28631,0.74823 -0.63625,1.3706 l -0.63625,1.13158 3.8774,0.30433 3.87739,0.30433 1.52136,-1.48667 c 0.83674,-0.81767 1.52135,-1.63441 1.52135,-1.81498 0,-0.51657 1.39052,-1.67264 2.01186,-1.67264 0.46807,0 0.59018,-0.20525 0.7303,-1.22755 0.3581,-2.61261 -0.11129,-4.59483 -1.44969,-6.12199 -0.41803,-0.47699 -1.00798,-1.35323 -1.31101,-1.94721 -0.30302,-0.59398 -0.92883,-1.45814 -1.39068,-1.92036 -0.9414,-0.94214 -2.29495,-3.38635 -2.29495,-4.14416 0,-0.8593 -0.88617,-2.42481 -2.00367,-3.53968 -1.39517,-1.39189 -1.88914,-2.2156 -2.0892,-3.4838 l -0.16263,-1.03087 0.53103,0.96188 c 0.29206,0.52904 1.30908,1.76327 2.26004,2.74273 0.95096,0.97946 1.72902,1.93857 1.72902,2.13135 0,0.19279 0.11906,0.4241 0.26458,0.51404 0.14552,0.0899 0.26458,0.56619 0.26458,1.05833 0,0.49215 0.11588,0.96643 0.25751,1.05396 0.14162,0.0875 0.4525,0.57007 0.69082,1.07231 0.23833,0.50223 0.89636,1.39028 1.46229,1.97343 0.56593,0.58316 1.03057,1.20897 1.03252,1.39071 0.002,0.18173 0.26984,0.66717 0.59531,1.07876 0.32547,0.41158 0.84196,1.06642 1.14777,1.45521 1.47364,1.87352 1.96637,3.83761 1.58049,6.30014 -0.32618,2.08159 -0.51846,2.47652 -1.20577,2.47652 -0.60423,0 -2.12135,1.2355 -2.12135,1.72757 0,0.19668 -0.60967,0.87071 -1.35481,1.49783 l -1.35481,1.14023 2.21471,0.1681 c 1.21808,0.0925 2.56073,0.25872 2.98366,0.36948 0.57187,0.14976 0.84886,0.0921 1.08064,-0.22485 0.17142,-0.23443 0.8596,-0.66111 1.52929,-0.94817 0.99909,-0.42826 1.37498,-0.4711 2.09437,-0.23869 1.26321,0.40809 1.62565,0.60731 1.74247,0.95779 0.0735,0.22038 -0.42086,0.29612 -1.70404,0.26111 -1.6486,-0.045 -2.99815,0.34472 -2.99815,0.86578 0,0.0865 0.556,0.44478 1.23555,0.79625 1.27516,0.65952 1.93948,1.38865 1.58667,1.74146 -0.11097,0.11098 -0.40441,0.0548 -0.6521,-0.12492 -0.41878,-0.3038 -1.36301,-0.76814 -2.96387,-1.45754 -0.3638,-0.15667 -2.32833,-0.43682 -4.36562,-0.62257 -6.13657,-0.55948 -7.01372,-0.67138 -7.1636,-0.91388 -0.079,-0.12786 -0.68026,-0.23248 -1.33608,-0.23248 -0.65582,0 -1.43758,-0.13121 -1.73725,-0.29159 -0.40512,-0.21681 -0.70142,-0.20779 -1.15538,0.0352 -0.3358,0.17971 -0.79716,0.25513 -1.02526,0.1676 -0.54844,-0.21045 -0.52374,-0.006 0.0772,0.63899 0.72237,0.77537 2.1539,3.83171 2.1539,4.59861 0,1.28933 -2.20708,1.12127 -2.45903,-0.18725 -0.0631,-0.32774 -0.13096,0.20239 -0.15077,1.17806 l -0.036,1.77395 -0.91858,0.17232 c -1.3672,0.25649 -2.8506,-0.17883 -3.24145,-0.95125 -0.18155,-0.35877 -0.33184,-0.50348 -0.33398,-0.32157 -0.006,0.50921 -0.91256,0.39233 -1.68801,-0.21765 -0.64568,-0.50788 -0.69714,-0.69929 -0.69714,-2.59291 0,-2.12953 -0.23443,-2.67955 -1.14205,-2.67955 -0.27888,0 -0.95851,-0.47936 -1.51029,-1.06524 l -1.00324,-1.06524 -0.94383,0.46993 c -0.5191,0.25846 -0.94675,0.59715 -0.95033,0.75265 -0.004,0.1555 -0.78042,0.83946 -1.7263,1.51991 -1.10388,0.79411 -1.7198,1.42163 -1.7198,1.75218 0,0.28325 -0.11906,0.58858 -0.26458,0.67852 -0.14552,0.0899 -0.26458,0.44712 -0.26458,0.79375 0,0.34663 -0.10234,0.69348 -0.22743,0.77078 -0.12508,0.0773 -0.30927,1.0438 -0.40931,2.14777 -0.10004,1.10397 -0.2993,2.31603 -0.4428,2.69346 -0.1435,0.37744 -0.26141,2.36477 -0.26203,4.41629 -10e-4,4.25751 -0.67758,15.81285 -1.0816,18.48056 -0.14876,0.98226 -0.37149,1.78593 -0.49494,1.78593 -0.35637,0 -0.60032,-2.26351 -0.42186,-3.91429 0.4678,-4.32726 0.50758,-6.19269 0.13705,-6.42731 -0.21156,-0.13396 -0.24135,-0.23536 -0.0698,-0.23768 0.19075,-0.003 0.37324,-1.03453 0.5037,-2.84832 0.30081,-4.18204 0.22351,-4.77842 -0.72253,-5.57446 -0.44003,-0.37026 -0.95702,-0.83017 -1.14888,-1.02202 -0.19185,-0.19186 -0.46109,-0.34883 -0.59829,-0.34883 -0.1372,0 -1.48516,-1.18954 -2.99546,-2.64341 -1.5103,-1.45388 -2.83111,-2.6445 -2.93513,-2.64584 -0.10402,-0.001 -0.32956,-0.27031 -0.5012,-0.59773 -0.17165,-0.32743 -0.68185,-1.02313 -1.13379,-1.54602 -0.85113,-0.98475 -0.99669,-1.16532 -2.54016,-3.15121 -0.50858,-0.65437 -1.4231,-1.70076 -2.03228,-2.32531 -0.60917,-0.62456 -1.36454,-1.66636 -1.6786,-2.31511 -0.31405,-0.64875 -0.71642,-1.17954 -0.89414,-1.17954 -0.33786,0 -2.80466,-2.55379 -2.80466,-2.90357 0,-0.11061 -0.4812,-0.51956 -1.06934,-0.90877 -1.12033,-0.7414 -3.16399,-2.72218 -3.16399,-3.06663 0,-0.11032 -0.38078,-0.35831 -0.84617,-0.55108 -0.4654,-0.19277 -1.62626,-1.09903 -2.57969,-2.01391 -0.95344,-0.91487 -1.94778,-1.66456 -2.20965,-1.66597 -0.26188,-10e-4 -0.87854,-0.38953 -1.37037,-0.86247 -1.30588,-1.25575 -1.74999,-1.59475 -2.85175,-2.17683 -0.54466,-0.28776 -0.99029,-0.59996 -0.99029,-0.69379 0,-0.0938 -0.44648,-0.24245 -0.99219,-0.33027 -0.5457,-0.0878 -1.4089,-0.37221 -1.91823,-0.632 -1.4069,-0.7176 -4.35118,-1.58371 -6.74687,-1.98472 -5.05843,-0.8467 -14.30408,0.11854 -17.8958,1.8683 -0.94885,0.46225 -1.81016,0.84046 -1.91401,0.84046 -0.33699,0 -3.18587,2.17614 -4.03838,3.08474 -0.45619,0.4862 -1.01257,0.88401 -1.23641,0.88401 -0.43057,0 -2.03519,1.46636 -2.03519,1.85983 0,0.1274 -0.56555,0.80351 -1.25677,1.50248 -1.36056,1.37579 -2.41008,2.73501 -2.91983,3.78144 -0.17721,0.3638 -0.73372,1.37583 -1.23668,2.24896 -1.72527,2.99506 -1.93025,3.67989 -2.53417,8.46666 -0.14687,1.16417 -0.33222,2.32635 -0.41189,2.58262 -0.0797,0.25627 -0.009,1.38736 0.15815,2.51354 0.71409,4.82571 1.10745,7.03268 1.37119,7.69315 0.15472,0.38745 0.37128,0.94257 0.48127,1.23361 0.65048,1.72137 1.20153,3.0744 1.75399,4.30671 0.34429,0.76796 0.62599,1.61756 0.62599,1.88799 0,0.56297 0.4013,1.38716 1.25677,2.58112 0.32742,0.45698 0.59531,0.91869 0.59531,1.02602 0,0.10733 0.47625,0.94923 1.05833,1.8709 0.58209,0.92166 1.05834,1.85726 1.05834,2.07911 0,0.22185 0.092,0.40336 0.20441,0.40336 0.11243,0 0.42749,0.41422 0.70013,0.92049 0.27265,0.50626 0.69308,0.98312 0.93431,1.05968 0.24122,0.0766 0.78937,0.6951 1.2181,1.37452 0.86248,1.36682 1.44165,2.02448 1.62308,1.84305 0.0655,-0.0655 6.4e-4,-0.33908 -0.14418,-0.60791 -0.5884,-1.09227 -1.62544,-4.10906 -1.62544,-4.7285 0,-0.36424 -0.1085,-0.869 -0.24112,-1.12169 -0.13262,-0.25269 -0.44151,-1.05474 -0.68642,-1.78235 -0.24491,-0.7276 -0.60139,-1.6801 -0.79217,-2.11667 -0.19078,-0.43656 -0.49805,-1.32953 -0.68282,-1.98437 -0.18477,-0.65484 -0.42267,-1.30969 -0.52866,-1.45521 -0.106,-0.14552 -0.38519,-1.51474 -0.62042,-3.04271 -0.23524,-1.52797 -0.55412,-3.55203 -0.70864,-4.49791 -0.61066,-3.73829 0.33929,-15.94328 1.34886,-17.33021 0.10593,-0.14552 0.26393,-0.56461 0.35113,-0.93131 0.0872,-0.3667 0.3715,-0.90898 0.63179,-1.20507 0.58993,-0.67105 1.06335,-1.40105 1.38005,-2.12801 0.30706,-0.70483 1.02399,-1.44837 3.19426,-3.31282 1.91086,-1.64159 2.62658,-2.08009 3.39518,-2.08009 0.28575,0 1.03772,-0.29622 1.67104,-0.65827 0.63332,-0.36205 1.47188,-0.6597 1.86347,-0.66146 0.3916,-0.002 0.773,-0.1019 0.84757,-0.22255 0.0746,-0.12065 0.82573,-0.38854 1.66926,-0.59531 3.27467,-0.80271 15.15973,-0.32865 15.15973,0.60467 0,0.1155 0.30503,0.21001 0.67784,0.21001 0.37281,0 1.29555,0.28041 2.05052,0.62313 0.75497,0.34272 1.87333,0.76261 2.48523,0.93309 0.61191,0.17048 1.44535,0.58539 1.85209,0.92204 0.40674,0.33664 0.93508,0.72042 1.17409,0.85285 1.78167,0.98712 10.57143,9.76228 14.55245,14.52826 0.92287,1.10484 2.11498,2.24808 2.34475,2.24864 0.0736,1.8e-4 0.29445,0.36313 0.49073,0.80656 0.19628,0.44343 1.11516,1.60429 2.04197,2.57969 0.9268,0.97539 1.68824,1.91785 1.69208,2.09433 0.004,0.17649 0.89997,1.23437 1.99137,2.35085 1.09141,1.11648 1.98438,2.17229 1.98438,2.34624 0,0.17395 0.76056,0.76107 1.69014,1.3047 0.92958,0.54364 1.9698,1.28611 2.31159,1.64994 0.3418,0.36382 1.20868,0.98101 1.92642,1.37152 0.85689,0.46624 1.15122,0.73982 0.8572,0.79678 -0.58427,0.11318 -2.49221,-0.82158 -3.39526,-1.66345 -0.39103,-0.36453 -1.24159,-0.99931 -1.89015,-1.41061 -1.18881,-0.75392 -5.35114,-4.74547 -5.85729,-5.61696 -0.8627,-1.48541 -1.34995,-2.11135 -1.64351,-2.11135 -0.18179,0 -0.45592,-0.23431 -0.60918,-0.52068 -0.15326,-0.28637 -0.57417,-0.83954 -0.93535,-1.22926 -0.36118,-0.38972 -0.6567,-0.82986 -0.6567,-0.9781 0,-0.14823 -0.7739,-1.01721 -1.71979,-1.93107 -0.94588,-0.91386 -1.71979,-1.76461 -1.71979,-1.89057 0,-0.12596 -0.8632,-1.11581 -1.91823,-2.19967 -1.05502,-1.08386 -2.88704,-2.98171 -4.07115,-4.21743 -4.72827,-4.93437 -6.87783,-6.79197 -10.12246,-8.74758 -0.37906,-0.22847 -1.34405,-0.62002 -2.14441,-0.87011 -0.80036,-0.25009 -1.69333,-0.55705 -1.98437,-0.68214 -0.51389,-0.22087 -2.41905,-0.69234 -5.44696,-1.34797 -2.1062,-0.45605 -10.76635,-0.0386 -11.49951,0.55428 -0.15274,0.12352 -0.78045,0.30498 -1.39492,0.40324 -0.61447,0.0983 -1.18114,0.28207 -1.25926,0.40848 -0.0781,0.1264 -0.42565,0.22983 -0.77227,0.22983 -0.34663,0 -0.70382,0.11906 -0.79375,0.26458 -0.0899,0.14552 -0.34686,0.26458 -0.57094,0.26458 -0.66233,0 -2.28682,0.84196 -3.03157,1.57125 -0.38065,0.37274 -1.23935,1.09443 -1.90821,1.60375 -0.66887,0.50933 -1.22063,1.01413 -1.22614,1.12178 -0.006,0.10765 -0.5217,1.00062 -1.14709,1.98437 -0.62539,0.98376 -1.34901,2.38396 -1.60805,3.11156 -0.25903,0.72761 -0.57225,1.56104 -0.69602,1.85209 -0.81878,1.92525 -0.83341,18.0074 -0.0183,20.10833 0.44179,1.1387 0.86915,2.41702 1.06145,3.175 0.11076,0.43656 0.45749,1.35277 0.77052,2.03601 0.31303,0.68324 0.56914,1.53941 0.56914,1.90261 0,0.3632 0.10791,0.72705 0.2398,0.80856 0.13188,0.0815 0.31714,0.77315 0.41169,1.53697 0.0945,0.76382 0.27215,1.62689 0.39468,1.91793 0.12254,0.29105 0.39947,0.94589 0.6154,1.45521 0.21593,0.50933 0.536,1.40229 0.71125,1.98438 0.17526,0.58208 0.47327,1.41552 0.66225,1.85208 0.18899,0.43656 0.49099,1.27 0.67112,1.85208 0.18014,0.58209 0.43196,1.26508 0.55962,1.51777 0.12766,0.25269 0.23211,0.99122 0.23211,1.6412 0,0.64997 0.11082,1.45525 0.24627,1.78952 0.13545,0.33427 0.31631,0.93519 0.40191,1.33537 l 0.15565,0.7276 h 3.69912 3.69913 v -1.68739 c 0,-1.08069 0.12644,-1.79233 0.35165,-1.97924 0.86958,-0.72169 6.72713,-0.91503 29.48774,-0.97333 22.81711,-0.0584 23.09805,-0.0655 23.55696,-0.59465 0.62577,-0.72152 1.48612,-2.69307 2.18714,-5.01201 0.5652,-1.86964 1.03734,-2.3029 1.03734,-0.95192 0,0.62595 -0.30159,1.7008 -1.25724,4.48071 -0.2056,0.59806 -1.06067,2.06205 -1.90018,3.2533 -1.4084,1.99854 -2.21353,2.70537 -3.98633,3.49964 -0.3638,0.16299 -1.1377,0.51242 -1.71979,0.77649 -0.58208,0.26408 -1.58953,0.56141 -2.23878,0.66074 -1.2034,0.1841 -1.36814,0.24253 -2.82912,1.00343 -0.45902,0.23906 -1.35311,0.43465 -1.98688,0.43465 -0.88601,0 -1.23292,0.12909 -1.50117,0.55863 -0.33902,0.54285 -0.33169,0.54659 0.25981,0.13229 0.7579,-0.53085 1.0201,-0.53843 1.0201,-0.0295 0,0.21828 0.17157,0.39687 0.38126,0.39687 0.68525,0 0.74468,0.55539 0.12951,1.21022 -0.66188,0.70453 -0.41342,0.85159 0.3997,0.23658 0.5161,-0.39036 1.47078,-0.53369 1.47078,-0.22081 0,0.0922 -0.32742,0.44925 -0.7276,0.79343 -0.80555,0.69281 -0.29923,0.88594 0.57973,0.22113 0.55453,-0.41943 1.47079,-0.52533 1.47079,-0.17 0,0.32332 -1.17509,1.36904 -1.53841,1.36904 -0.17252,0 -0.31368,0.13209 -0.31368,0.29353 0,0.19531 0.33199,0.23233 0.99219,0.11064 0.5457,-0.10059 1.70656,-0.22627 2.57969,-0.27929 0.87312,-0.053 2.24234,-0.22668 3.04271,-0.38591 0.80036,-0.15924 2.11005,-0.40263 2.91041,-0.54086 1.64823,-0.28467 3.44283,-0.78691 3.83646,-1.07368 0.14552,-0.10602 1.59914,-0.2334 3.23027,-0.28307 2.59484,-0.079 3.01562,-0.15649 3.36502,-0.61949 0.21964,-0.29104 0.40313,-0.73752 0.40776,-0.99219 0.005,-0.25466 0.18403,-0.46302 0.39867,-0.46302 0.3841,0 0.38307,0.31382 -0.007,2.28161 -0.15438,0.77789 -1.15686,1.09733 -4.08698,1.30229 -2.05981,0.14408 -2.66321,0.2884 -3.34268,0.79951 -0.51587,0.38805 -1.51554,0.73668 -2.64584,0.92274 -2.48743,0.40945 -7.13116,0.40576 -7.62738,-0.006 -0.31226,-0.25916 -0.54077,-0.21379 -1.16614,0.23151 -0.83008,0.59107 -1.75092,0.72299 -2.019,0.28924 z m -0.92604,-1.88448 c 0,-0.46733 -0.0661,-0.5067 -0.39396,-0.23461 -0.3982,0.33048 -0.31339,0.79617 0.14499,0.79617 0.13693,0 0.24897,-0.2527 0.24897,-0.56156 z m -2.75689,-2.38321 c 0.29035,-0.4698 -0.0944,-0.55535 -1.06184,-0.23608 -0.85809,0.2832 -1.18071,0.73905 -0.79559,1.12417 0.17846,0.17846 1.62602,-0.51367 1.85743,-0.88809 z m 69.56418,-5.25731 c -0.49425,-0.54615 -1.35778,-0.7491 -1.04687,-0.24605 0.14466,0.23407 1.00412,0.69357 1.41861,0.75844 0.0589,0.009 -0.10835,-0.22135 -0.37174,-0.51239 z m -38.76146,-4.42124 c 2.54662,-0.11494 9.95826,-0.20897 16.47032,-0.20897 6.51205,0 11.8401,-0.0375 11.8401,-0.0832 0,-0.30109 -3.73262,-2.95948 -4.15539,-2.95948 -0.42858,0 -3.00758,-3.07311 -3.65825,-4.35913 -0.63879,-1.26255 -0.71053,-1.64783 -0.58892,-3.16282 0.10277,-1.2804 0.0442,-1.80341 -0.2274,-2.02878 -0.20123,-0.16701 -0.36587,-0.19907 -0.36587,-0.0713 0,0.26441 -0.84329,0.6393 -2.82784,1.25715 -2.07107,0.64478 -9.47506,0.59113 -12.65029,-0.0917 -3.75605,-0.8077 -4.79492,-1.14594 -5.19164,-1.69032 -0.23058,-0.31639 -1.02607,0.88827 -1.02607,1.55384 0,0.30231 -0.0947,0.66278 -0.21057,0.80102 -0.11581,0.13824 -0.36636,0.7276 -0.55678,1.30969 -0.19042,0.58208 -0.61168,1.65364 -0.93614,2.38125 -1.02483,2.29819 -2.00067,5.58381 -2.00067,6.73618 0,1.0703 0.0267,1.10583 0.7276,0.96829 0.40018,-0.0785 2.8112,-0.23682 5.35781,-0.35175 z m 79.36454,-10.26314 c -0.22987,-3.76377 -0.77706,-5.74063 -2.50774,-9.05992 -0.50676,-0.97192 -0.92138,-1.86912 -0.92138,-1.99379 0,-0.76831 -3.46145,-4.27632 -5.83026,-5.90867 -2.89668,-1.99612 -3.23958,-2.17984 -4.10719,-2.20057 -0.44513,-0.0106 -1.04044,-0.19415 -1.32292,-0.4078 -0.28247,-0.21366 -0.72356,-0.39225 -0.9802,-0.39688 -0.25663,-0.005 -0.67335,-0.11649 -0.92604,-0.24858 -0.79297,-0.41453 -3.26699,-1.08275 -4.00877,-1.08275 -0.39075,0 -0.8506,-0.14015 -1.02189,-0.31144 -0.42374,-0.42374 -9.26174,-0.46442 -10.14263,-0.0467 -0.34758,0.16483 -1.40588,0.508 -2.35176,0.76259 -0.94589,0.2546 -2.19605,0.67938 -2.77813,0.94396 -0.58208,0.26458 -1.59411,0.55493 -2.24896,0.64522 -0.65484,0.0903 -1.42875,0.26979 -1.71979,0.39887 -1.05403,0.4675 -3.69536,1.31156 -4.09187,1.30761 -0.35873,-0.004 -0.3598,-0.0339 -0.009,-0.26053 0.21828,-0.14107 0.30114,-0.25831 0.18413,-0.26054 -0.26981,-0.005 -3.18201,1.599 -3.35913,1.85033 -0.0728,0.10324 -0.60854,0.33584 -1.19063,0.51689 -0.58208,0.18104 -1.65364,0.56519 -2.38125,0.85366 -0.7276,0.28846 -2.15635,0.82126 -3.175,1.18399 -2.15453,0.76721 -2.6166,1.10073 -1.8153,1.31028 0.69201,0.18096 4.35749,4.42186 4.83772,5.59717 l 0.35357,0.86533 2.17203,-1.17439 c 1.19462,-0.64592 2.69721,-1.31428 3.33909,-1.48526 0.64188,-0.17097 1.34565,-0.45604 1.56394,-0.63348 0.21828,-0.17744 0.93265,-0.54802 1.5875,-0.82352 0.65484,-0.2755 1.60521,-0.77409 2.11193,-1.10798 0.50673,-0.33389 1.12478,-0.60707 1.37345,-0.60707 0.24868,0 0.52572,-0.11906 0.61566,-0.26458 0.0899,-0.14552 0.39623,-0.26458 0.68066,-0.26458 0.28443,0 0.72389,-0.1133 0.97657,-0.25177 0.25269,-0.13847 0.93568,-0.44495 1.51777,-0.68106 0.58208,-0.23612 1.41552,-0.58238 1.85208,-0.76948 1.8066,-0.77425 2.20353,-0.92057 4.10104,-1.51175 1.63997,-0.51094 2.55839,-0.61736 5.29167,-0.61318 1.81901,0.003 3.77123,0.14208 4.33827,0.30954 1.41299,0.41728 6.50965,2.9847 6.50965,3.2792 0,0.13117 0.23132,0.2385 0.51404,0.2385 0.7221,0 2.27376,0.96408 2.76959,1.72082 0.22914,0.3497 0.95673,0.95235 1.61688,1.33923 0.66015,0.38687 1.5707,1.2418 2.02344,1.89984 0.45274,0.65803 1.26454,1.62696 1.804,2.15316 1.19548,1.16611 2.16269,2.54561 1.94055,2.76775 -0.0901,0.0901 0.16346,0.63599 0.56343,1.21314 0.39997,0.57715 0.87464,1.44251 1.05484,1.92302 0.54589,1.45565 1.23285,2.92099 1.32228,2.82049 0.0464,-0.0521 -0.0102,-1.64256 -0.12577,-3.53433 z m -63.80514,-2.26345 c 1.925,-0.43267 3.22602,-0.84771 3.22602,-1.02914 0,-0.26538 -1.35717,-0.95146 -2.64583,-1.33752 -0.65485,-0.19618 -1.30374,-0.45505 -1.44198,-0.57527 -0.13825,-0.12022 -0.48497,-0.21858 -0.7705,-0.21858 -0.47257,0 -1.93391,-0.36993 -4.40211,-1.11438 -1.43877,-0.43395 -2.91041,-1.1061 -2.91041,-1.32928 0,-0.1112 -0.32864,-0.20217 -0.73031,-0.20217 -0.40167,0 -1.02675,-0.26789 -1.38906,-0.59531 -0.36232,-0.32743 -1.13501,-0.94766 -1.71709,-1.3783 -0.58208,-0.43064 -1.20338,-0.96642 -1.38065,-1.19063 -0.26703,-0.33772 -0.32376,-0.21569 -0.33073,0.71149 -0.008,1.00737 -0.30679,2.07867 -1.12845,4.04025 -0.60001,1.43244 -1.12652,2.38125 -1.32138,2.38125 -0.11243,0 -0.20442,0.0963 -0.20442,0.21406 0,0.23987 3.48662,1.02326 6.03035,1.35493 0.9156,0.11938 1.73912,0.29145 1.83004,0.38237 0.27782,0.27781 7.96319,0.18366 9.28651,-0.11377 z m -28.16463,-15.79436 c 0.23746,-1.43668 0.20659,-3.77031 -0.0499,-3.77031 -0.20946,0 -2.89772,-2.64487 -3.96663,-3.90261 -0.64561,-0.75965 -0.9866,-0.74868 -2.05489,0.0662 -0.48934,0.37324 -1.22077,0.66145 -1.67862,0.66145 -0.91708,0 -1.13676,0.65483 -0.30793,0.91789 0.63109,0.2003 3.32391,2.76237 3.54231,3.3703 0.0892,0.24844 0.67398,0.77303 1.29939,1.16574 0.62542,0.39271 1.47969,1.11217 1.89839,1.5988 0.4187,0.48663 0.84961,0.88478 0.95757,0.88478 0.10796,0 0.2701,-0.44649 0.3603,-0.99219 z m 0.59497,-5.13899 c 0.37261,-0.60289 1.25616,-5.75638 1.02773,-5.99439 -0.0459,-0.0479 -0.77858,0.29846 -1.6281,0.7696 -2.02035,1.1205 -2.24993,1.23564 -2.8141,1.41136 -0.39975,0.12452 -0.2095,0.46209 1.19063,2.11265 0.91652,1.08044 1.74867,1.97495 1.84922,1.98778 0.10055,0.0128 0.26913,-0.11631 0.37462,-0.287 z m -7.69002,-2.87701 c 0.26954,-0.29783 0.91307,-0.72639 1.43007,-0.95235 1.8597,-0.8128 3.85298,-1.79396 3.98271,-1.96042 0.11439,-0.14678 1.24888,-0.808 3.06356,-1.78556 0.27958,-0.15061 1.0056,-0.51507 1.61339,-0.80992 1.78331,-0.86511 2.29696,-1.19122 2.86924,-1.82159 0.29725,-0.32742 0.73044,-0.59531 0.96265,-0.59531 0.23221,0 0.57042,-0.17859 0.75158,-0.39687 0.52065,-0.62735 1.00384,-0.47403 2.0327,0.64497 0.67697,0.73628 1.25759,1.09248 1.97961,1.21447 1.15286,0.19477 1.605,0.79659 1.68409,2.2416 0.10817,1.97634 0.13172,2.05022 0.42169,1.32303 0.18149,-0.45514 0.16775,-1.00408 -0.0441,-1.76064 -0.22113,-0.78982 -0.22787,-1.23677 -0.0239,-1.58762 0.23524,-0.40469 0.28522,-0.41564 0.29189,-0.0639 0.004,0.23341 0.31465,0.75522 0.68939,1.15958 0.83008,0.89567 1.15932,1.71342 1.20677,2.99732 0.0267,0.72288 0.0667,0.80394 0.15469,0.31351 0.0653,-0.3638 0.22765,-0.77457 0.36084,-0.91281 0.44189,-0.45862 0.25104,-1.36788 -0.41927,-1.99761 -0.36381,-0.34177 -0.66146,-0.89831 -0.66146,-1.23674 0,-0.78492 0.34716,-0.78834 0.76503,-0.008 0.17891,0.33429 0.57348,0.7628 0.87682,0.95224 0.49552,0.30945 0.53062,0.29475 0.3456,-0.14478 -0.11326,-0.26907 -0.18171,-0.78688 -0.15211,-1.15068 0.0296,-0.3638 0.0752,-0.95642 0.10143,-1.31692 0.0375,-0.51638 -0.2331,-0.84232 -1.27531,-1.53609 -0.72761,-0.48434 -1.62058,-1.12332 -1.98438,-1.41996 -1.18444,-0.96576 -2.87766,-1.54786 -4.50241,-1.54786 -1.53856,0 -3.30976,0.59246 -5.94863,1.98981 -0.58208,0.30823 -1.53458,0.69093 -2.11667,0.85043 -0.58208,0.15951 -1.53458,0.42404 -2.11666,0.58785 -0.58209,0.16381 -2.60615,0.36766 -4.49792,0.45301 l -3.43958,0.15516 -0.45345,-1.55511 c -0.24939,-0.85531 -0.75541,-1.90105 -1.12448,-2.32387 -0.36907,-0.42281 -0.67103,-0.92883 -0.67103,-1.12448 0,-0.19564 -0.092,-0.35572 -0.20442,-0.35572 -0.11243,0 -0.42586,-0.4112 -0.69652,-0.91379 -0.27066,-0.50259 -0.72723,-1.16616 -1.01459,-1.4746 -0.6113,-0.65616 -1.2784,-3.23829 -0.96685,-3.74239 0.3072,-0.49707 0.62681,-0.0487 1.02771,1.44172 0.18701,0.69523 0.61923,1.52867 0.96048,1.85208 0.34125,0.32341 0.62252,0.72693 0.62503,0.8967 0.003,0.16978 0.10374,0.34837 0.22494,0.39688 0.40886,0.16363 2.24668,3.25655 2.41065,4.05694 0.0947,0.46215 0.40807,0.90286 0.75017,1.05493 0.32316,0.14365 0.58756,0.35201 0.58756,0.46302 0,0.11102 0.92877,0.20184 2.06392,0.20184 2.09849,0 3.48654,-0.39458 3.49027,-0.99218 0.001,-0.1819 0.0988,-0.33073 0.21707,-0.33073 0.40708,0 1.4723,-2.78067 1.6207,-4.23073 0.11049,-1.07959 0.26369,-1.47449 0.59661,-1.53785 1.01742,-0.19363 0.95297,3.82938 -0.0847,5.28665 l -0.58552,0.82228 1.02825,-0.1929 c 0.56553,-0.10609 1.32992,-0.40518 1.69864,-0.66463 0.36871,-0.25945 0.96805,-0.56329 1.33185,-0.67518 0.3638,-0.1119 1.27716,-0.48392 2.02969,-0.8267 0.90609,-0.41272 1.9147,-0.63559 2.98608,-0.6598 1.46167,-0.0331 1.58289,-0.0779 1.25581,-0.4648 -0.19912,-0.23552 -0.56163,-0.86513 -0.80558,-1.39913 -0.24396,-0.534 -0.53181,-1.01025 -0.63967,-1.05833 -0.10787,-0.0481 -0.51779,-0.51842 -0.91095,-1.0452 l -0.71482,-0.95777 -1.79872,0.11165 c -1.79649,0.11152 -2.68108,-0.13816 -2.35556,-0.66487 0.0948,-0.15343 0.75982,-0.27441 1.47777,-0.26885 1.01926,0.008 1.53855,-0.1549 2.36938,-0.7428 1.04809,-0.74165 1.0641,-0.77781 1.06967,-2.41587 0.006,-1.73528 -0.27526,-2.43072 -1.54725,-3.82715 -0.52982,-0.58165 -0.89472,-0.72761 -1.81902,-0.72761 -2.02413,0 -3.47951,-0.52179 -4.59339,-1.64686 -0.88966,-0.8986 -1.03053,-1.20305 -1.03053,-2.22721 0,-1.20127 0.96229,-3.5711 1.83474,-4.51842 0.23861,-0.25908 0.59269,-0.858 0.78685,-1.33094 0.19417,-0.47295 0.45765,-0.8599 0.58551,-0.8599 0.47651,0 0.2098,1.54709 -0.42897,2.48837 -0.3638,0.53609 -0.66146,1.07488 -0.66146,1.1973 0,0.12243 -0.17786,0.56362 -0.39524,0.98044 -0.61814,1.18522 -0.51911,3.06598 0.1968,3.73778 l 0.59532,0.55863 v -2.0869 c 0,-1.31681 0.12204,-2.2089 0.33072,-2.41751 0.18191,-0.18184 0.33452,-0.57469 0.33915,-0.87301 0.0126,-0.80992 0.4862,-1.28902 2.24054,-2.26637 2.46165,-1.37141 2.8869,-1.57993 3.22553,-1.58168 0.17332,-9e-4 0.3909,-0.12425 0.48352,-0.27412 0.10411,-0.16844 -0.21824,-0.27487 -0.84428,-0.27874 -0.55698,-0.003 -1.66753,-0.0171 -2.46789,-0.0303 -2.18504,-0.0362 -5.77707,0.82061 -5.96844,1.42358 -0.085,0.26769 -0.49195,0.66122 -0.90441,0.87451 -0.41247,0.2133 -0.91548,0.53941 -1.1178,0.7247 -0.46129,0.42246 -2.02491,1.26294 -2.34954,1.26294 -0.91067,0 0.73191,-1.71823 2.57962,-2.69843 0.63029,-0.33437 1.14523,-0.66769 1.14431,-0.7407 -9.2e-4,-0.073 -0.3343,-0.3219 -0.74085,-0.55309 -0.67539,-0.38409 -0.7951,-0.38409 -1.38739,0 -0.35651,0.23119 -0.6879,0.50965 -0.73641,0.61879 -0.0485,0.10914 -0.24506,0.19843 -0.4368,0.19843 -0.46741,0 -3.57604,2.35165 -3.57604,2.70524 0,0.37752 0.82538,0.98013 1.35666,0.99052 0.65719,0.0128 1.18083,0.75175 0.80153,1.13105 -0.39741,0.39741 -2.14095,-0.19625 -2.63622,-0.89761 -0.19015,-0.26929 -0.51216,-0.48961 -0.71557,-0.48961 -0.2425,0 -0.14993,0.21992 0.26882,0.63867 0.35127,0.35127 0.7228,0.97635 0.82562,1.38906 0.10281,0.41272 0.46484,1.24955 0.80451,1.85964 0.33966,0.61009 0.61756,1.2947 0.61756,1.52136 0,0.54163 -0.70133,0.53026 -1.00722,-0.0163 -0.17992,-0.32151 -0.27277,-0.13555 -0.37203,0.74508 -0.17812,1.58024 -0.84182,2.50757 -2.25567,3.15166 -1.30816,0.59593 -1.92133,0.51309 -1.92133,-0.25957 0,-0.50379 -0.0239,-0.50344 -1.48335,0.0213 -1.29808,0.46677 -1.5707,0.48843 -2.18281,0.17344 -0.3847,-0.19797 -0.79761,-0.51421 -0.91756,-0.70275 -0.16194,-0.25453 -0.47121,-0.0843 -1.20095,0.66103 -0.938,0.95801 -2.53283,1.66528 -3.75506,1.66528 -0.91566,0 -1.30818,0.64179 -1.30818,2.13894 0,1.09668 0.14868,1.57793 0.71821,2.32461 0.85561,1.12177 1.40014,1.65465 2.08313,2.03856 0.27827,0.15642 0.69672,0.65729 0.92988,1.11304 0.23317,0.45576 1.07024,1.52673 1.86016,2.37994 0.87116,0.94096 1.58401,2.01245 1.81185,2.72342 0.2066,0.64466 0.64945,1.54055 0.98411,1.99084 0.33467,0.4503 0.61151,0.92655 0.61521,1.05834 0.004,0.13178 0.59901,0.95183 1.32292,1.82233 0.7239,0.8705 1.31619,1.71457 1.31619,1.87572 0,0.38569 1.74223,1.96396 2.17577,1.971 0.18577,0.003 0.69496,0.41427 1.13153,0.91389 0.43656,0.49963 0.86459,0.91387 0.95118,0.92056 0.0866,0.007 0.37796,-0.23153 0.64749,-0.52937 z m 7.83983,-17.12671 c -1.12054,-1.16434 -2.27949,-2.73297 -2.46682,-3.33883 -0.48558,-1.57046 0.0778,-2.06979 0.70256,-0.62263 0.20416,0.47294 0.7934,1.26357 1.30942,1.75695 0.51601,0.49338 0.93821,1.0079 0.93821,1.14338 0,0.13548 0.17859,0.42492 0.39688,0.6432 0.46023,0.46024 0.52748,1.15282 0.11193,1.15282 -0.15671,0 -0.60319,-0.3307 -0.99218,-0.73489 z m -16.94827,-4.5846 c -0.30802,-0.33062 -0.56003,-0.80977 -0.56003,-1.06478 0,-0.25502 -0.12943,-0.54366 -0.28763,-0.64143 -0.40283,-0.24897 0.10445,-0.7027 0.57412,-0.51353 0.56065,0.22582 1.42325,2.23117 1.09914,2.55527 -0.17771,0.17772 -0.45085,0.0667 -0.8256,-0.33553 z m 34.07653,19.67314 c -0.0206,-2.00022 -0.0597,-2.19003 -0.28761,-1.39553 -0.23683,0.82572 -0.0827,3.71063 0.19822,3.71063 0.0623,0 0.10251,-1.04179 0.0894,-2.3151 z m -1.29906,1.80155 c 0,-0.31217 -0.51603,-0.64611 -0.70555,-0.45658 -0.18953,0.18952 0.14441,0.70555 0.45659,0.70555 0.13693,0 0.24896,-0.11203 0.24896,-0.24897 z m -1.94143,-1.93384 c -0.0734,-0.1819 -0.13346,-0.0331 -0.13346,0.33073 0,0.3638 0.0601,0.51263 0.13346,0.33073 0.0734,-0.1819 0.0734,-0.47956 0,-0.66146 z m 5.38517,-1.17475 c -0.31624,-0.67278 -0.91239,-1.65107 -1.32476,-2.17398 -0.41237,-0.52291 -0.8059,-1.18888 -0.87451,-1.47992 -0.10588,-0.44912 -0.12939,-0.43288 -0.15544,0.10732 -0.0169,0.35007 0.26696,1.02673 0.63077,1.5037 0.3638,0.47697 0.66145,1.03918 0.66145,1.24935 0,0.21017 0.16579,0.51972 0.36841,0.68788 0.20263,0.16817 0.52322,0.67949 0.71243,1.13628 0.1892,0.45679 0.39185,0.68699 0.45033,0.51157 0.0585,-0.17542 -0.15243,-0.86941 -0.46868,-1.5422 z m -0.0758,-4.73979 c -0.0879,-0.0879 -0.31612,-0.0973 -0.50712,-0.0209 -0.21106,0.0845 -0.14837,0.14716 0.15985,0.15985 0.27892,0.0115 0.43519,-0.051 0.34727,-0.13896 z m 1.26112,-1.75838 c 0.0952,-0.47294 0.47021,-1.48406 0.83325,-2.24694 0.69579,-1.46211 0.66782,-2.01765 -0.14553,-2.89068 -0.6289,-0.67505 -1.34802,-2.05311 -1.34802,-2.58326 0,-0.22369 -0.3257,-0.48199 -0.7276,-0.57703 -0.40018,-0.0946 -0.96573,-0.37681 -1.25677,-0.62707 -0.29104,-0.25026 -0.74023,-0.52959 -0.99819,-0.62074 -0.25796,-0.0911 -0.53344,-0.37677 -0.61218,-0.63474 -0.25027,-0.81998 -0.98691,-2.29442 -1.5562,-3.11485 -0.30293,-0.43656 -0.89477,-1.44859 -1.31521,-2.24896 -0.42044,-0.80036 -1.22115,-2.09967 -1.77935,-2.88734 -0.5582,-0.78768 -1.01491,-1.53701 -1.01491,-1.6652 0,-0.12818 -0.28776,-0.54339 -0.63947,-0.92269 -0.69479,-0.7493 -0.82704,-1.27756 -1.09663,-4.3805 -0.098,-1.12779 -0.29427,-2.05052 -0.4362,-2.05052 -0.32522,0 -4.94423,2.72807 -5.56676,3.28783 -0.25657,0.2307 -0.46303,0.79138 -0.46303,1.25745 0,0.46261 -0.14144,1.23228 -0.31433,1.71038 -0.23367,0.64621 -0.23863,1.02444 -0.0193,1.47399 0.16224,0.3326 0.33762,0.76606 0.38973,0.96324 0.11406,0.43153 1.8835,1.08389 2.98665,1.10112 0.43657,0.007 0.97672,0.15744 1.20034,0.33472 0.66485,0.52704 1.5294,1.88699 1.72897,2.7197 0.1025,0.42769 0.30149,0.92391 0.4422,1.10273 0.16662,0.21172 0.1417,0.81151 -0.0714,1.71979 -0.41202,1.75577 -0.70237,2.32072 -1.19271,2.32072 -0.59239,0 -0.46768,0.35361 0.42576,1.20727 0.76287,0.72889 2.24609,2.95846 3.15211,4.73823 0.2201,0.43237 0.64265,0.84909 0.93899,0.92604 0.29634,0.0769 1.38391,0.70546 2.41683,1.39669 1.12482,0.75272 2.18211,1.26014 2.6362,1.26518 0.41699,0.005 0.98929,0.18322 1.27176,0.39688 0.28247,0.21365 0.83856,0.38846 1.23575,0.38846 0.60283,0 0.75077,-0.14209 0.89533,-0.8599 z m -39.97297,-1.4993 c -0.39997,-0.4489 -0.78808,-0.75533 -0.86246,-0.68094 -0.0744,0.0744 0.20458,0.48994 0.61993,0.92347 0.98313,1.02617 1.18928,0.82003 0.24253,-0.24253 z m -1.16858,-1.17203 c 0,-0.46001 -1.02102,-1.90253 -1.95778,-2.76601 -1.67893,-1.54759 -2.48708,-2.7107 -2.58561,-3.7213 -0.0832,-0.85363 -0.13514,-0.89269 -1.25658,-0.94555 -0.97397,-0.0459 -1.29694,-0.20687 -1.92961,-0.96167 -1.05673,-1.26072 -1.53083,-2.29156 -1.53083,-3.32843 0,-0.98739 0.14664,-1.07415 0.80637,-0.4771 0.3747,0.33911 0.47496,0.34629 0.59157,0.0424 0.20764,-0.54111 -3.14973,-2.27348 -4.74008,-2.44585 -0.70844,-0.0768 -1.58573,-0.24878 -1.94953,-0.38222 -1.07259,-0.39342 -5.21243,-0.79603 -8.20208,-0.79767 -3.57314,-0.002 -9.84391,0.51903 -10.18646,0.8463 -0.16852,0.161 0.50396,0.1903 1.85208,0.0807 2.2654,-0.1842 8.44333,0.41703 9.36751,0.91164 0.28577,0.15294 0.76715,0.27807 1.06973,0.27807 0.30258,0 0.75689,0.1133 1.00958,0.25177 0.25269,0.13847 0.93568,0.44826 1.51777,0.68843 0.58208,0.24017 1.29645,0.53554 1.5875,0.65638 2.81391,1.16835 4.28752,2.05404 5.53986,3.32964 0.44558,0.45385 1.30117,1.0737 1.90133,1.37746 0.60016,0.30376 1.37582,0.88493 1.72369,1.29149 0.6261,0.73173 2.4386,2.19441 2.71924,2.19441 0.08,0 1.06193,0.89297 2.18203,1.98438 1.76118,1.71606 2.4703,2.25939 2.4703,1.89273 z m 42.63897,-4.80924 c -0.57973,-0.80957 -1.11651,-1.37086 -1.19287,-1.24732 -0.16061,0.25987 0.17105,0.87217 1.28411,2.37071 0.46761,0.62954 0.82848,0.9207 0.87827,0.7086 0.0465,-0.19802 -0.38979,-1.02242 -0.96951,-1.83199 z m -1.54248,-2.17672 c -0.25058,-0.71663 -2.56649,-3.75632 -2.86754,-3.76372 -0.14736,-0.004 -0.50455,-0.3301 -0.79375,-0.72549 -1.02528,-1.40175 -2.36008,-2.77417 -2.44637,-2.5153 -0.0845,0.25344 1.1608,2.70022 1.51138,2.96961 0.27582,0.21196 1.07063,2.02807 1.07063,2.44638 0,0.70143 1.94079,1.96802 3.10055,2.02347 0.44946,0.0215 0.54907,-0.0804 0.4251,-0.43495 z m -45.82524,-2.36099 c 0.32604,-0.39754 0.29557,-0.42493 -0.29833,-0.26819 -0.3638,0.096 -0.95911,0.18455 -1.32292,0.19677 -0.60717,0.0204 -0.61803,0.0409 -0.13229,0.2496 0.82851,0.35602 1.35969,0.30205 1.75354,-0.17818 z m -0.95979,-1.3334 c -0.73695,-0.17726 -1.14597,-0.60509 -0.57849,-0.60509 0.51404,0 1.54903,-0.52892 1.81208,-0.92604 0.0964,-0.14552 0.42382,-0.55069 0.72761,-0.90038 0.30379,-0.34969 0.55234,-0.79617 0.55234,-0.99219 0,-0.19601 0.0893,-0.35732 0.19844,-0.35845 0.70876,-0.007 1.25608,-4.74894 0.59531,-5.15731 -0.14552,-0.0899 -0.26458,-0.39462 -0.26458,-0.67708 0,-0.28245 -0.11906,-0.51355 -0.26458,-0.51355 -0.14552,0 -0.26459,-0.22962 -0.26459,-0.51027 0,-0.28064 -0.17859,-0.68886 -0.39687,-0.90714 -0.21828,-0.21828 -0.39688,-0.78332 -0.39688,-1.25564 v -0.85877 l -0.65598,0.61626 c -0.5519,0.51848 -0.59577,0.66225 -0.2765,0.90602 0.46329,0.35373 0.92317,1.48153 1.25097,3.06787 0.27869,1.34864 0.28425,1.71771 0.0539,3.57188 -0.18882,1.51963 -1.36362,3.1698 -3.05223,4.28727 -0.81189,0.53728 -0.96547,0.75646 -0.72938,1.04093 0.16448,0.19819 0.73096,0.34653 1.25885,0.32965 0.55975,-0.0179 0.73923,-0.0837 0.43062,-0.15797 z m 4.02328,-1.84487 c 0.92399,-1.02191 1.03312,-1.50464 1.26694,-5.60468 0.0778,-1.36336 0.19011,-2.5577 0.24968,-2.65408 0.0596,-0.0964 -0.0651,-1.00252 -0.27706,-2.01364 -0.26665,-1.27209 -0.60088,-2.06335 -1.08502,-2.56868 -0.86396,-0.90178 -0.64682,-1.21075 0.41153,-0.58557 0.85271,0.50372 1.36378,1.37418 1.36378,2.32284 0,0.32785 0.13443,0.73053 0.29874,0.89484 0.20588,0.20587 0.24152,1.02426 0.11466,2.6326 -0.10125,1.28362 -0.26638,3.40542 -0.36695,4.71511 -0.10057,1.30969 -0.33495,2.64914 -0.52084,2.97656 -0.47109,0.82977 -0.18067,0.74235 0.77223,-0.23246 0.65569,-0.67076 0.77258,-0.95933 0.61625,-1.52135 -0.34316,-1.23373 -0.23498,-3.2964 0.27034,-5.15477 0.38908,-1.43089 0.428,-1.92043 0.18376,-2.31151 -0.17042,-0.27289 -0.30986,-0.73187 -0.30986,-1.01995 0,-0.9336 -0.88545,-2.61643 -2.03849,-3.87421 -0.73036,-0.7967 -0.96088,-0.79735 -1.38551,-0.004 -0.18613,0.34778 -0.6215,0.78383 -0.96749,0.969 -0.40012,0.21414 -0.54508,0.4414 -0.3983,0.62444 0.12692,0.15827 0.31599,0.68601 0.42015,1.17277 0.10416,0.48675 0.56439,1.48809 1.02274,2.2252 0.72968,1.17347 0.8451,1.61801 0.92774,3.57326 0.11593,2.74279 -0.46808,4.33522 -2.1449,5.84855 -0.25466,0.22983 -0.46302,0.5185 -0.46302,0.64149 0,0.47656 1.23129,-0.15864 2.0389,-1.05183 z m 7.08922,-0.6123 c 0.0899,-0.14552 0.003,-0.26459 -0.19281,-0.26459 -0.19599,0 -0.75432,-0.33224 -1.24074,-0.73833 l -0.88441,-0.73833 0.0175,-2.50281 c 0.0103,-1.46956 0.18716,-3.04897 0.42851,-3.82573 0.22608,-0.72761 0.41233,-1.64493 0.41391,-2.0385 0.003,-0.83931 -1.10182,-2.06255 -1.86349,-2.06255 -0.54746,0 -0.55336,-0.0301 0.32475,1.65365 0.53417,1.02423 0.60395,4.51361 0.11986,5.99364 -0.23669,0.72363 -0.43034,1.56539 -0.43034,1.87059 0,0.62534 0.65817,1.76084 1.42273,2.45452 0.55775,0.50605 1.62499,0.61843 1.88456,0.19844 z m 2.24896,-1.27 c 0,-0.54574 -0.75915,-0.84525 -2.10344,-0.8299 -1.10033,0.0126 -1.32599,0.0742 -0.9002,0.24604 0.31254,0.1261 0.64698,0.35668 0.74322,0.5124 0.20123,0.3256 2.26042,0.39069 2.26042,0.0715 z m 2.76445,-1.74336 c -0.2687,-1.41644 -1.48023,-2.45484 -1.82274,-1.56228 -0.0882,0.22993 -0.12785,0.43704 -0.088,0.46025 1.41136,0.82313 1.52798,0.97952 1.54435,2.07097 0.0147,0.98297 0.0474,1.04185 0.26967,0.48627 0.13909,-0.34766 0.18263,-1.00251 0.0968,-1.45521 z m -1.54314,0.48436 c -0.0805,-0.20978 -0.41472,-0.38142 -0.74271,-0.38142 h -0.59634 l 0.58804,0.41188 c 0.32342,0.22653 0.60185,0.61348 0.61873,0.85989 0.0267,0.38905 0.047,0.38504 0.15466,-0.0304 0.0682,-0.26317 0.0581,-0.65012 -0.0224,-0.8599 z m -15.44266,0.50169 c -0.1819,-0.0734 -0.47956,-0.0734 -0.66146,0 -0.1819,0.0734 -0.0331,0.13345 0.33073,0.13345 0.3638,0 0.51263,-0.0601 0.33073,-0.13345 z m 12.32862,-1.03478 c 1.07582,-0.53669 1.0648,-0.67904 -0.0255,-0.32932 -0.47294,0.1517 -1.06825,0.28797 -1.32292,0.30281 -0.25466,0.0149 -0.46302,0.12054 -0.46302,0.23488 0,0.34196 0.92054,0.23607 1.81144,-0.20837 z m -10.57225,-0.089 c 0.28036,-0.17754 0.33689,-0.70673 0.23879,-2.23532 -0.0707,-1.10149 -0.25433,-2.15585 -0.40811,-2.34302 -0.15377,-0.18717 -0.32075,-0.63797 -0.37108,-1.00177 -0.14517,-1.04947 -0.87145,-0.82647 -0.96532,0.2964 -0.0543,0.64953 0.13733,1.34725 0.59532,2.16758 0.68495,1.22687 0.88241,2.29852 0.42351,2.29852 -0.32895,0 -1.70693,-2.02624 -2.06925,-3.04271 -0.24706,-0.69311 -0.28559,-0.53566 -0.30382,1.24177 -0.0186,1.81623 0.0425,2.07989 0.56715,2.44739 0.64691,0.45312 1.72097,0.5333 2.29281,0.17116 z m -3.99733,-1.6666 c -0.23453,-1.29038 -0.20905,-1.7009 0.21009,-3.38435 0.14258,-0.57264 0.0901,-0.54513 -0.3905,0.20484 -0.70072,1.09335 -0.76591,3.35712 -0.11731,4.07381 0.24083,0.26612 0.4627,0.48385 0.49304,0.48385 0.0303,0 -0.0575,-0.62017 -0.19532,-1.37815 z m 14.94682,0.036 c 0.94407,-0.77818 0.98632,-0.88287 0.98632,-2.44359 0,-1.84761 -0.85526,-3.87774 -2.26444,-5.37511 -0.44508,-0.47293 -1.04039,-1.31387 -1.32292,-1.86876 -1.02005,-2.00344 -1.21312,-2.23279 -1.60547,-1.90717 -0.19988,0.16588 -0.36342,0.55756 -0.36342,0.87038 0,0.6928 1.47225,2.54143 2.02399,2.54143 0.21888,0 0.746,0.34803 1.17137,0.7734 0.9967,0.9967 1.01738,2.21133 0.0796,4.67787 -0.38156,1.00363 -0.75178,2.21173 -0.8227,2.68467 -0.11479,0.76553 -0.0598,0.8599 0.50118,0.8599 0.34657,0 1.07397,-0.36586 1.61645,-0.81302 z m 26.01028,-0.45005 c -0.4556,-0.43638 -0.46124,-0.43074 -0.12656,0.12656 0.19265,0.3208 0.40723,0.52632 0.47684,0.45672 0.0696,-0.0696 -0.088,-0.33209 -0.35028,-0.58328 z m -22.20784,-0.9557 c -0.3431,-0.66132 -0.37801,-0.67304 -0.50929,-0.17103 -0.0884,0.33823 0.0215,0.62988 0.29526,0.78308 0.60017,0.33587 0.64271,0.21423 0.21403,-0.61205 z m 21.17712,-0.47668 c -0.0845,-0.21106 -0.14715,-0.14837 -0.15985,0.15986 -0.0115,0.27891 0.0511,0.43518 0.13897,0.34726 0.0879,-0.0879 0.0973,-0.31612 0.0209,-0.50712 z m -22.93677,-2.78896 c -0.25775,-0.40388 -0.27881,-0.37722 -0.15224,0.19274 0.0808,0.3638 0.16756,0.95911 0.19284,1.32292 0.0358,0.51456 0.0696,0.47176 0.15224,-0.19274 0.0585,-0.4698 -0.0283,-1.06512 -0.19284,-1.32292 z m -13.53183,-3.36646 c 0.27586,-0.0876 0.65447,-0.7545 0.94622,-1.66681 0.26749,-0.83648 0.63602,-1.87805 0.81894,-2.31462 0.58081,-1.38612 0.68524,-1.93509 0.4015,-2.11045 -0.57453,-0.35508 0.27477,-1.15395 1.70509,-1.60384 0.80293,-0.25255 1.45986,-0.54844 1.45986,-0.65752 0,-0.10908 0.32743,-0.26528 0.72761,-0.34711 0.40018,-0.0818 1.41221,-0.28576 2.24896,-0.4532 0.83674,-0.16744 1.52135,-0.41166 1.52135,-0.54271 0,-0.13106 0.14883,-0.24057 0.33073,-0.24337 0.61747,-0.009 2.22206,-1.70854 3.08139,-3.26281 0.94209,-1.70394 0.89095,-2.10065 -0.18805,-1.45908 -2.71217,1.61263 -3.92597,2.36248 -4.19345,2.59056 -0.16936,0.14442 -0.9666,0.48495 -1.77164,0.75673 -0.80505,0.27178 -1.91865,0.80941 -2.47467,1.19474 -1.23098,0.85307 -2.98639,2.90545 -2.98639,3.49161 0,0.23526 -0.13283,0.95525 -0.29517,1.59996 -0.41992,1.66765 -0.86816,1.19754 -0.6696,-0.70226 l 0.16132,-1.54337 -0.85505,0.16271 c -1.06912,0.20345 -1.1609,0.28356 -0.77126,0.6732 0.47405,0.47405 0.38068,1.12574 -0.34837,2.4316 -0.75763,1.35705 -0.83081,1.79279 -0.26458,1.5755 0.88078,-0.33798 0.20655,1.50206 -1.44952,3.95589 -1.23982,1.83707 -0.95138,1.90475 0.80274,0.18834 0.8812,-0.86225 1.80912,-1.63341 2.06204,-1.71369 z m 15.65036,1.99328 c 0,-0.59313 -0.19616,-1.19069 -0.49679,-1.51338 -0.27324,-0.29329 -0.57892,-0.79199 -0.67929,-1.10823 -0.10037,-0.31623 -0.27964,-0.57497 -0.39839,-0.57497 -0.11874,0 -0.30442,-0.26789 -0.41263,-0.59531 l -0.19674,-0.59532 -0.12201,0.63274 c -0.10806,0.56041 0.30944,1.91044 1.0101,3.26628 0.13058,0.25269 0.23742,0.67933 0.23742,0.94809 0,0.62765 0.22163,0.84131 0.68733,0.66261 0.2259,-0.0867 0.371,-0.52572 0.371,-1.12251 z m -2.75183,-1.07621 c -0.23274,-0.71157 -0.42317,-1.52098 -0.42317,-1.79871 0,-0.49332 -0.31109,-1.26329 -1.34268,-3.32323 -0.28017,-0.55945 -0.5094,-1.30359 -0.5094,-1.65364 0,-0.35005 -0.10673,-0.63646 -0.23717,-0.63646 -0.23165,0 -1.8795,1.74872 -1.8795,1.99454 0,0.50822 1.22714,2.33904 3.24115,4.83563 0.5457,0.67646 0.99219,1.42062 0.99219,1.6537 0,0.23307 0.0868,0.51059 0.19292,0.6167 0.39302,0.39302 0.37622,-0.43333 -0.0343,-1.68853 z m 7.15121,-0.53176 c 0.47061,-0.002 0.96864,-0.71644 0.64056,-0.91921 -0.15259,-0.0943 -0.27744,-0.58116 -0.27744,-1.08189 0,-0.50073 -0.10348,-0.91043 -0.22996,-0.91043 -0.12648,0 -0.30117,-0.43875 -0.38819,-0.97501 -0.11738,-0.72335 -0.0186,-1.20097 0.38281,-1.85043 0.48192,-0.77976 0.49749,-0.91896 0.14251,-1.27394 -0.62607,-0.62607 -1.17849,-0.47567 -2.09806,0.57118 -1.44092,1.64035 -1.65363,2.30292 -1.29568,4.03594 0.17137,0.82967 0.31157,1.99712 0.31157,2.59434 v 1.08585 l 1.25677,-0.63765 c 0.69123,-0.3507 1.39103,-0.63814 1.55511,-0.63875 z m 14.01046,-2.08599 c -0.13949,-1.41562 -0.0945,-1.90515 0.20232,-2.20198 0.49403,-0.49403 0.73244,-5.23848 0.26323,-5.23827 -0.1688,7e-5 -0.85051,-0.62495 -1.5149,-1.38893 -0.93527,-1.07547 -1.21076,-1.2696 -1.22026,-0.8599 -0.007,0.29104 -0.24987,1.05288 -0.54029,1.69297 -0.47992,1.05777 -0.49144,1.21962 -0.12648,1.77662 0.87382,1.33363 0.29926,2.69135 -1.71512,4.05293 -0.50933,0.34427 -1.2237,0.90511 -1.5875,1.2463 -0.3638,0.3412 -1.11011,1.03788 -1.65846,1.54817 l -0.997,0.9278 h 0.76832 c 0.42257,0 1.10935,-0.17786 1.52616,-0.39524 1.25117,-0.65253 6.44639,-0.31633 6.44639,0.41717 0,0.13346 0.0749,0.24266 0.16648,0.24266 0.0916,0 0.0858,-0.81914 -0.0129,-1.8203 z m -8.21503,-0.42866 c 1.04294,-1.09141 1.97283,-1.98438 2.06642,-1.98438 0.16242,0 1.15857,-0.79532 1.92918,-1.54025 0.19892,-0.1923 0.36168,-0.8769 0.36168,-1.52135 0,-0.98347 -0.0825,-1.17173 -0.51355,-1.17173 -0.69964,0 -0.86069,-0.34212 -0.95434,-2.02728 -0.0708,-1.27445 -0.0127,-1.47115 0.49539,-1.67593 0.44384,-0.17889 0.47118,-0.23584 0.1194,-0.24877 -0.25093,-0.009 -0.64666,-0.38502 -0.87941,-0.83511 -0.57437,-1.11071 -0.79295,-0.77402 -0.40261,0.62016 0.17554,0.62695 0.28126,1.67216 0.23495,2.32269 -0.083,1.1662 -0.0986,1.18396 -1.11126,1.26698 -0.56488,0.0463 -1.13689,-0.0256 -1.27113,-0.15989 -0.13425,-0.13424 -0.31131,-0.99794 -0.39347,-1.91934 -0.14877,-1.66835 -0.72081,-2.60277 -1.60783,-2.62637 -0.1819,-0.005 -0.33073,-0.12787 -0.33073,-0.27339 0,-0.14552 -0.15068,-0.26458 -0.33485,-0.26458 -0.63741,0 -2.05851,-0.92912 -2.53576,-1.65789 -0.47708,-0.72849 -0.48148,-0.72941 -0.95958,-0.20112 -0.27231,0.3009 -0.535,1.09994 -0.6066,1.84516 -0.13318,1.38606 0.0943,2.45992 0.41613,1.96427 0.33045,-0.50894 1.38307,-0.92514 1.91379,-0.75669 0.42031,0.1334 0.46694,0.26194 0.24528,0.67612 -0.15053,0.28127 -0.42163,0.5114 -0.60246,0.5114 -0.52275,0 -1.24011,1.00255 -1.24011,1.73312 v 0.66874 l 0.57581,-0.53645 c 0.70066,-0.65276 1.51708,-0.93864 1.81329,-0.63493 0.29215,0.29955 -0.58873,1.35073 -1.22393,1.46055 -1.14872,0.19861 -1.22009,1.37916 -0.10684,1.76724 0.66152,0.2306 0.79375,0.4194 0.79375,1.13331 0,0.51535 -0.22918,1.10056 -0.57529,1.46897 l -0.57528,0.61236 h 0.84817 c 0.85127,0 1.53726,0.77901 0.87917,0.99837 -0.59389,0.19797 -0.32561,0.85372 0.34927,0.85372 0.66217,0 0.80735,0.35551 0.6753,1.65364 -0.0899,0.88415 0.62209,0.45224 2.50805,-1.52135 z m 14.67603,1.74184 c 0,-0.1334 -0.10099,-0.28222 -0.22442,-0.33073 -0.32959,-0.12953 -1.62767,-2.551 -1.62767,-3.03631 0,-0.22868 0.14883,-0.35986 0.33073,-0.2915 0.55532,0.20869 1.67578,0.46677 1.32292,0.30471 -0.36678,-0.16846 -0.46131,-1.43072 -0.10715,-1.43072 0.12296,0 0.43907,0.23812 0.70246,0.52917 0.26339,0.29104 0.69856,0.52916 0.96705,0.52916 0.52417,0 0.65717,-0.39348 0.22358,-0.66146 -0.41497,-0.25646 -0.30942,-1.19062 0.13453,-1.19062 0.33289,0 0.34428,-0.0878 0.0686,-0.52917 -0.18176,-0.29104 -0.47482,-0.52916 -0.65125,-0.52916 -0.17643,0 -0.62868,-0.14029 -1.00501,-0.31176 -0.76729,-0.3496 -0.79703,-1.19305 -0.0374,-1.06082 1.19552,0.2081 3.447,-2.66729 3.29431,-4.20719 -0.0746,-0.75195 -0.21825,-0.88741 -1.27467,-1.20171 -0.65484,-0.19483 -1.61488,-0.35605 -2.13342,-0.35826 -0.82539,-0.004 -0.98612,0.10638 -1.29062,0.88241 -0.19129,0.48754 -1.15887,1.62697 -2.15016,2.53206 l -1.80237,1.64563 0.15408,2.72072 c 0.10786,1.90464 0.0634,2.77675 -0.14818,2.90751 -0.16623,0.10274 -0.29463,0.5072 -0.28532,0.89879 l 0.0169,0.71199 0.42796,-0.85989 c 0.79014,-1.58764 2.40248,-1.03612 3.69412,1.26361 0.65663,1.16911 1.40033,1.73925 1.40033,1.07354 z m -37.30625,-2.07414 c 0,-0.12579 0.36672,-0.6038 0.81494,-1.06225 0.48264,-0.49366 0.95837,-1.37724 1.16668,-2.1669 l 0.35173,-1.33334 h -0.84918 c -1.0051,0 -1.48417,0.40409 -1.48417,1.25188 0,0.65993 -0.89502,3.60545 -1.32692,4.36692 -0.48692,0.85847 -0.26056,0.86607 0.53439,0.0179 0.43589,-0.46505 0.79253,-0.94846 0.79253,-1.07425 z m 19.05,1.20542 c 0,-0.42741 -0.0782,-0.50384 -0.29445,-0.28763 -0.16194,0.16194 -0.21445,0.42388 -0.11668,0.58208 0.27369,0.44283 0.41113,0.34439 0.41113,-0.29445 z m -16.93922,-1.20385 -0.006,-0.99219 -0.51523,0.66146 c -0.47644,0.61166 -0.48215,0.68636 -0.0758,0.99219 0.60398,0.45462 0.60357,0.45507 0.59695,-0.66146 z m 36.94536,-0.008 c -0.22318,-0.43159 -0.65016,-0.84861 -0.94884,-0.92672 -0.47104,-0.12318 -0.43312,-0.003 0.28588,0.90461 0.93795,1.18426 1.26966,1.19533 0.66296,0.0221 z m 2.21718,-0.12436 c -9.2e-4,-0.1819 -0.3581,-0.53355 -0.79375,-0.78145 -0.98861,-0.56255 -1.01434,-0.38099 -0.0645,0.45505 0.85507,0.7526 0.86039,0.75462 0.85822,0.3264 z m -31.56758,-0.77722 c -0.0845,-0.21106 -0.14716,-0.14837 -0.15985,0.15986 -0.0115,0.27891 0.051,0.43518 0.13896,0.34726 0.0879,-0.0879 0.0973,-0.31612 0.0209,-0.50712 z m 1.16678,-1.94666 c -0.15905,-0.63166 -0.29756,-1.66129 -0.30779,-2.28808 -0.0143,-0.87944 -0.0705,-1.0188 -0.24598,-0.61044 -0.40808,0.94965 -0.29531,3.30568 0.19843,4.14565 0.59244,1.00786 0.768,0.39169 0.35534,-1.24713 z m -5.66861,-1.47018 c 0.41207,-0.37858 1.13971,-0.8201 1.61699,-0.98117 0.47728,-0.16107 1.02656,-0.44663 1.22062,-0.63459 0.19407,-0.18796 0.85858,-0.75846 1.47669,-1.26779 2.64892,-2.18269 3.03991,-2.81353 2.51956,-4.0652 l -0.31508,-0.7579 -0.87943,1.75009 c -0.48368,0.96255 -0.97816,1.7501 -1.09884,1.7501 -0.12068,0 -0.21942,0.12447 -0.21942,0.27661 0,0.6618 -2.28141,2.36922 -3.16569,2.36922 -0.29617,0 -0.53848,0.11906 -0.53848,0.26458 0,0.14552 -0.36501,0.26459 -0.81114,0.26459 -1.25761,0 -1.76822,0.41101 -1.96617,1.58266 -0.0985,0.58322 -0.28785,1.12758 -0.42071,1.20969 -0.13286,0.0821 -0.24156,0.34998 -0.24156,0.59526 0,0.3143 0.3061,0.13392 1.03672,-0.61092 0.5702,-0.5813 1.37387,-1.36665 1.78594,-1.74523 z m 3.99094,0.95851 c -0.0215,-1.41672 -0.0887,-1.66218 -0.38719,-1.41444 -0.26134,0.2169 -0.31251,0.63593 -0.18509,1.51576 0.32476,2.24253 0.60707,2.19255 0.57228,-0.10132 z m 3.66149,-4.20379 -0.18218,-0.97108 -0.61196,0.73255 -0.61196,0.73255 0.41946,2.63631 0.41947,2.63631 0.37467,-2.39778 c 0.20607,-1.31878 0.2927,-2.83477 0.1925,-3.36886 z m -17.35831,3.85185 c 0.002,-0.19049 -0.11501,-0.27276 -0.26053,-0.18283 -0.14552,0.0899 -0.26276,0.42439 -0.26053,0.74322 0.003,0.47129 0.052,0.50548 0.26053,0.18283 0.14106,-0.21828 0.2583,-0.55273 0.26053,-0.74322 z m 19.58322,-2.78704 c 0,-0.71236 -0.21271,-1.32887 -0.66146,-1.91722 -0.3638,-0.47697 -0.66146,-0.99422 -0.66146,-1.14945 0,-0.15523 -0.11906,-0.28224 -0.26458,-0.28224 -0.37593,0 -0.32505,0.53927 0.13392,1.41931 0.44559,0.85438 0.53474,3.22575 0.13066,3.47548 -0.14552,0.0899 -0.26458,0.35737 -0.26458,0.59428 0,0.3247 0.19545,0.24351 0.79375,-0.3297 0.62085,-0.59481 0.79375,-0.98917 0.79375,-1.81046 z m 29.10416,-0.13871 c 0.93828,0.13673 1.25881,0.0813 1.51233,-0.26158 0.17694,-0.23929 0.44483,-0.57888 0.59532,-0.75464 0.15048,-0.17576 0.2736,-0.42614 0.2736,-0.55639 0,-0.13026 0.8,-0.90919 1.77778,-1.73096 l 1.77777,-1.49413 h 2.14997 c 2.96551,0 3.08604,-0.15185 3.32222,-4.18572 0.17513,-2.99107 0.21985,-3.1668 1.39242,-5.47157 0.97753,-1.92141 1.21245,-2.64949 1.21649,-3.77032 0.003,-0.83233 -0.111,-1.38906 -0.28445,-1.38906 -0.33413,0 -7.11886,6.63509 -7.11886,6.96186 0,0.56429 -2.60552,3.62148 -3.08645,3.62148 -0.19422,0 -0.35314,0.16899 -0.35314,0.37555 0,0.50128 -2.53772,3.25864 -3.18944,3.46549 -0.2831,0.0898 -0.51472,0.31548 -0.51472,0.5014 0,0.18592 -0.25117,0.56485 -0.55815,0.84207 -0.30698,0.27722 -0.9834,1.15887 -1.50314,1.95924 -0.51975,0.80036 -1.03708,1.57995 -1.14962,1.73241 -0.13915,0.1885 0.236,0.22987 1.17241,0.12928 0.75737,-0.0814 1.91282,-0.0698 2.56766,0.0256 z m 5.74376,-6.02131 c -0.19782,-0.19782 0.0827,-2.80782 0.33152,-3.08454 0.40737,-0.45303 1.06847,0.143 1.06815,0.96302 -3.1e-4,0.81407 -1.07627,2.44492 -1.39967,2.12152 z m -22.94167,5.03514 c 0,-0.21481 0.19228,-0.68403 0.4273,-1.04271 0.43131,-0.65826 0.12386,-0.93454 -0.35768,-0.32142 -0.37107,0.47247 -0.65439,2.11611 -0.33022,1.91576 0.14333,-0.0886 0.2606,-0.33681 0.2606,-0.55163 z m -24.34167,-1.86303 c 0.94589,-0.40112 2.13651,-0.98079 2.64583,-1.28816 0.92873,-0.56046 2.19352,-1.1782 3.76634,-1.83952 l 0.84264,-0.35431 -1.70917,-0.17346 c -0.98528,-0.1 -2.26948,-0.0482 -3.0321,0.1224 -0.7276,0.16273 -1.65179,0.36142 -2.05376,0.44155 -0.40196,0.0801 -0.79594,0.25101 -0.87551,0.37975 -0.0796,0.12875 -0.35349,0.23408 -0.60872,0.23408 -0.95439,0 -2.27195,1.99132 -2.57366,3.88976 l -0.14802,0.9314 1.01317,-0.80709 c 0.55724,-0.4439 1.78707,-1.13528 2.73296,-1.5364 z m 21.58912,1.29265 c -0.56852,-2.45643 -0.48967,-4.0349 0.20158,-4.0349 0.19215,0 0.48349,-0.29437 0.64742,-0.65416 0.74551,-1.63622 2.82069,-0.89786 4.06937,1.44791 0.42604,0.80036 1.06552,1.75938 1.42107,2.13114 0.35554,0.37177 0.64644,0.80551 0.64644,0.96388 0,0.15837 0.17859,0.35648 0.39688,0.44024 0.21828,0.0838 0.39687,0.0461 0.39687,-0.0837 0,-0.12979 0.27981,-0.57254 0.6218,-0.98388 0.34199,-0.41135 0.94682,-1.33473 1.34407,-2.05195 0.67512,-1.21892 0.7014,-1.383 0.40261,-2.51354 -0.17581,-0.66523 -0.60205,-1.65343 -0.94719,-2.19602 -0.34515,-0.54258 -0.63544,-1.07836 -0.6451,-1.19062 -0.01,-0.11226 -0.40604,-0.73989 -0.88084,-1.39474 -0.62139,-0.85702 -1.0937,-1.22769 -1.68568,-1.32291 -0.45232,-0.0728 -1.12841,-0.40019 -1.50242,-0.72761 -0.55453,-0.48545 -0.99474,-0.59531 -2.38535,-0.59531 -0.93794,0 -1.97883,0.10605 -2.3131,0.23567 -2.07142,0.80323 -3.02079,1.24679 -3.25359,1.52013 -0.28509,0.33473 -3.43746,1.95627 -4.80464,2.47145 -0.86004,0.32408 -1.80808,0.0613 -2.26891,-0.62884 -0.11137,-0.16678 -0.19612,-0.0333 -0.19844,0.3125 -0.002,0.33199 0.17369,0.67182 0.39094,0.75519 0.27554,0.10573 0.34389,0.35519 0.226,0.82491 -0.12165,0.48466 -0.0805,0.61864 0.14684,0.47813 0.17371,-0.10736 0.49288,-0.12726 0.70927,-0.0442 0.34368,0.13189 0.33941,0.23342 -0.0338,0.80297 -0.31925,0.48724 -0.35705,0.7726 -0.14956,1.12925 0.22998,0.3953 0.27903,0.40532 0.28569,0.0583 0.01,-0.51422 1.85622,-2.4046 2.22766,-2.28079 0.14757,0.0492 0.49406,0.49353 0.76998,0.98743 0.58458,1.0464 1.18704,1.55977 1.84431,1.57158 0.45549,0.008 2.39953,1.11864 2.98722,1.70632 0.16075,0.16075 0.36648,0.91888 0.45719,1.68474 0.17977,1.51791 0.33629,1.90902 0.76398,1.90902 0.16969,0 0.21354,-0.28637 0.11141,-0.7276 z m 3.5536,-3.2275 c -0.33768,-0.63096 -1.33022,-0.73497 -1.33022,-0.13939 0,0.22188 0.29766,0.51659 0.66146,0.65491 0.3638,0.13831 0.67767,0.46279 0.69749,0.72105 0.0256,0.33381 0.0687,0.3014 0.1489,-0.11209 0.0621,-0.31992 -0.0179,-0.82593 -0.17763,-1.12448 z m -4.89169,94.90224 c -0.67875,-0.73933 -0.72028,-0.86542 -0.31105,-0.94423 0.25977,-0.05 0.68119,0.0981 0.93648,0.32911 0.25529,0.23104 0.65269,0.42007 0.8831,0.42007 0.44762,0 0.47389,-0.11483 1.02914,-4.49792 0.17513,-1.38245 0.41759,-2.62665 0.53882,-2.7649 0.12122,-0.13824 0.2204,-0.58473 0.2204,-0.99218 0,-0.46865 0.14008,-0.74084 0.38126,-0.74084 0.63613,0 0.68093,0.36208 0.38071,3.07739 -0.15879,1.43614 -0.3472,3.14694 -0.4187,3.80178 -0.0715,0.65484 -0.23751,1.30373 -0.36892,1.44198 -0.13142,0.13824 -0.23894,0.41464 -0.23894,0.61421 0,0.59582 -0.70594,1.11915 -1.50245,1.1138 -0.4986,-0.003 -1.00664,-0.28837 -1.52985,-0.85827 z m 33.87184,-20.44409 c -0.28248,-0.21366 -0.71051,-0.38846 -0.95118,-0.38846 -0.61697,0 -1.44193,-0.94765 -1.04078,-1.19557 0.16888,-0.10437 0.56359,-0.0659 0.87713,0.0854 0.31355,0.15137 0.86774,0.33883 1.23154,0.41659 0.92603,0.19794 1.70425,0.81975 1.48002,1.18256 -0.25628,0.41467 -0.97541,0.36938 -1.59673,-0.10056 z m -18.801,-17.82566 c -0.29105,-0.10258 -1.00542,-0.41281 -1.5875,-0.6894 -0.58209,-0.27659 -1.83224,-0.56774 -2.77813,-0.64701 -1.28826,-0.10795 -1.71979,-0.2437 -1.71979,-0.54099 0,-0.31923 0.33646,-0.38322 1.71979,-0.32709 1.58698,0.0644 3.65465,0.50471 3.96875,0.84516 0.0728,0.0789 0.37042,0.27521 0.66146,0.43633 0.29104,0.16112 0.56766,0.48854 0.61471,0.72761 0.091,0.4626 -0.0391,0.49153 -0.87929,0.19539 z"
       id="path9" /></g></svg>
