<?xml version="1.0" encoding="UTF-8" standalone="no"?>
<!-- Created with Inkscape (http://www.inkscape.org/) -->

<svg
   width="135.06117mm"
   height="91.453339mm"
   viewBox="0 0 135.06119 91.453338"
   version="1.1"
   id="svg1"
   xml:space="preserve"
   xmlns="http://www.w3.org/2000/svg"
   xmlns:svg="http://www.w3.org/2000/svg"><defs
     id="defs1" /><g
     id="layer1"
     transform="translate(-125.8104,-1513.0772)"><path
       style="fill:#4d4d4d"
       d="m 125.92457,1604.1756 c -0.42633,-0.6898 0.22145,-0.8572 4.00542,-1.0348 l 3.7566,-0.1764 0.41966,-2.2931 c 0.61793,-3.3764 1.07059,-4.975 1.78125,-6.2907 2.45323,-4.5417 5.50729,-7.7805 9.3422,-9.9072 2.55714,-1.4181 2.61668,-1.4317 6.28576,-1.4342 2.98993,0 4.41841,0.1928 7.40834,1.0107 2.03729,0.5574 4.10104,1.1793 4.58611,1.3821 11.46632,4.7937 16.39585,6.4299 21.54725,7.1519 3.43934,0.482 3.43023,0.482 7.38053,0.033 9.38067,-1.0669 15.5782,-4.7791 22.78979,-13.6504 3.35969,-4.1329 3.31035,-4.0227 2.75742,-6.1544 -0.26803,-1.0332 -0.56571,-1.957 -0.66152,-2.0528 -0.22375,-0.2238 -1.24958,0.62 -1.24958,1.0278 0,0.3207 -0.10973,0.4618 -2.46581,3.1713 -0.77811,0.8948 -1.41475,1.7842 -1.41475,1.9764 0,0.1922 -1.57115,1.9438 -3.49145,3.8925 -3.70494,3.7597 -6.83142,5.8879 -10.26688,6.9885 -1.06716,0.3419 -2.33716,0.8875 -2.82222,1.2125 -1.71461,1.1487 -4.11758,2.1184 -5.24946,2.1184 -0.63037,0 -1.92135,-0.3335 -2.86884,-0.7411 -0.94748,-0.4076 -1.92941,-0.6703 -2.18206,-0.5839 -1.0534,0.3603 -8.27931,-1.9626 -14.2177,-4.5706 -3.4925,-1.5338 -7.14375,-3.0025 -8.11389,-3.2638 -0.97014,-0.2613 -1.92264,-0.595 -2.11667,-0.7416 -0.75953,-0.5737 -4.74838,-1.3724 -7.9375,-1.5892 -3.99521,-0.2717 -8.10329,0.3991 -10.82892,1.7681 -2.21689,1.1135 -2.80037,1.165 -2.11514,0.1867 0.50354,-0.7189 5.36231,-4.2229 5.85563,-4.2229 0.1449,0 0.19536,-0.464 0.11212,-1.0312 -0.13046,-0.8889 0.0424,-1.1534 1.25291,-1.9176 0.77233,-0.4875 2.01856,-1.1431 2.76938,-1.4568 0.75083,-0.3137 2.07982,-1.1683 2.95333,-1.899 2.00173,-1.6745 5.37341,-3.9516 7.30678,-4.9346 1.8643,-0.948 5.33801,-1.0393 6.65704,-0.175 0.73058,0.4787 1.02695,0.5045 1.69376,0.1476 0.44452,-0.2379 1.04416,-0.3799 1.33253,-0.3156 0.28837,0.064 1.04094,-0.399 1.67236,-1.0296 1.70292,-1.7007 2.75232,-1.5542 6.93542,0.9679 1.92883,1.163 3.64655,2.1155 3.81714,2.1167 0.1724,0 0.20075,-1.1082 0.0638,-2.4978 -0.22639,-2.2975 0.39573,-11.29 0.98598,-11.1779 0.47282,0.09 0.0976,9.3387 0.22753,10.506 0.25532,2.2933 -0.47493,12.7439 -0.94346,13.502 -0.25402,0.411 -1.54354,0.1714 -4.03215,-0.7493 -1.08735,-0.4023 -3.38923,-0.9892 -5.11528,-1.3043 -6.18059,-1.1282 -8.08632,-1.513 -8.69453,-1.7557 -0.52554,-0.2097 -0.61736,-0.038 -0.61736,1.1518 0,2.2581 1.76083,4.2266 5.34332,5.9736 2.93449,1.431 3.93478,1.7921 11.52398,4.1598 4.55087,1.4198 4.49036,1.4304 6.85822,-1.2032 2.70064,-3.0038 3.34622,-5.4 4.66851,-17.3284 0.85703,-7.7314 1.9116,-10.2252 6.03335,-14.2675 3.31181,-3.2479 7.06592,-7.5546 8.14909,-9.3486 1.35515,-2.2444 2.22631,-3.8975 2.22631,-4.2245 0,-0.1774 -0.83344,-1.2262 -1.85208,-2.3307 -1.01865,-1.1044 -1.85209,-2.1451 -1.85209,-2.3125 0,-0.7697 0.72371,-0.2926 3.28359,2.1649 1.51582,1.4552 3.4438,3.2809 4.28439,4.057 1.97834,1.8266 4.25008,4.8316 4.25008,5.622 0,0.7642 -1.18708,2.5101 -2.6238,3.8589 -1.25509,1.1783 -3.92564,2.4735 -4.44201,2.1544 -0.1952,-0.1206 -1.18555,-0.2918 -2.2008,-0.3803 -1.01524,-0.089 -2.34382,-0.3219 -2.95241,-0.5187 -1.73112,-0.5596 -2.82601,-0.1609 -4.99533,1.8191 -4.07044,3.7151 -5.06448,6.2966 -6.0848,15.802 -1.13825,10.604 -2.11593,13.4894 -5.69273,16.8009 l -2.03941,1.8881 1.13995,0.6922 c 2.79752,1.6987 5.2726,1.1235 7.85167,-1.8247 1.58702,-1.8142 2.49347,-3.4425 3.36798,-6.05 0.26029,-0.7761 0.65032,-1.6493 0.86673,-1.9403 0.48419,-0.6512 1.04659,-2.624 1.60907,-5.6444 0.61916,-3.3249 1.58827,-5.7276 2.76482,-6.8548 0.97388,-0.933 1.26407,-1.0008 5.25635,-1.2281 2.32405,-0.1322 4.43943,-0.4092 4.70083,-0.6154 0.2614,-0.2061 1.24077,-0.6612 2.17638,-1.0112 1.61137,-0.6028 1.78196,-0.7974 3.23447,-3.6895 0.84336,-1.6792 2.04179,-3.9154 2.66318,-4.9693 l 1.1298,-1.9161 -2.69073,-2.4697 c -2.48584,-2.2815 -3.22775,-3.3515 -2.32386,-3.3515 0.19941,0 2.21382,1.5767 4.47646,3.5039 5.20661,4.4345 5.53763,4.6207 6.50233,3.656 l 0.73356,-0.7336 -1.45135,-1.9223 c -0.79824,-1.0573 -1.45135,-2.0984 -1.45135,-2.3137 0,-0.2152 -0.20951,-0.5183 -0.46558,-0.6735 -0.25607,-0.1551 -1.16355,-1.2346 -2.01663,-2.3988 -0.85308,-1.1641 -2.07772,-2.7184 -2.72142,-3.4538 -1.13687,-1.299 -1.23864,-2.0142 -0.28659,-2.0142 0.25595,0 1.59393,1.5014 2.97328,3.3366 2.28449,3.0393 3.08105,3.8332 4.10444,4.091 0.19403,0.049 0.30245,0.386 0.24093,0.7491 -0.0615,0.3631 0.47952,1.4658 1.2023,2.4504 1.11748,1.5223 1.26564,1.9302 0.99001,2.7253 -0.17828,0.5143 -0.85093,1.199 -1.4948,1.5216 -1.55953,0.7813 -1.64274,0.8941 -1.12217,1.5213 0.55628,0.6703 0.0417,2.0705 -1.4512,3.9491 -0.556,0.6996 -1.0109,1.404 -1.0109,1.5653 0,0.407 1.17576,-0.063 1.5014,-0.6007 0.14668,-0.242 0.78168,-0.5517 1.41111,-0.6883 1.41216,-0.3063 1.71652,-0.7412 1.46956,-2.0999 -0.21138,-1.1629 0.8235,-2.6458 1.84641,-2.6458 0.42738,0 0.50349,-0.2252 0.32793,-0.9701 -0.4106,-1.7424 -0.39005,-2.0285 0.14568,-2.0285 0.29066,0 0.84629,0.6037 1.23472,1.3416 0.59395,1.1284 0.84647,1.3126 1.58819,1.159 0.48507,-0.1005 2.42942,0 4.32079,0.2272 3.4337,0.4092 3.44164,0.4125 5.29167,2.1509 2.54576,2.3922 5.40996,4.8227 5.68321,4.8227 0.53061,0 0.15975,-0.9981 -0.6554,-1.7639 -0.63657,-0.598 -0.88194,-1.1965 -0.88194,-2.1511 0,-1.7087 -1.35448,-3.3645 -3.11256,-3.8051 -0.71344,-0.1788 -3.19604,-0.4284 -5.51689,-0.5547 -5.71219,-0.3108 -7.43914,-1.231 -8.10802,-4.3205 -0.13456,-0.6214 -0.52872,-1.4946 -0.87593,-1.9402 -0.34721,-0.4457 -0.9034,-1.3407 -1.23598,-1.989 -0.57165,-1.1142 -0.57139,-1.2154 0.005,-1.8521 0.75554,-0.8348 2.01378,-0.8611 3.35289,-0.07 0.96951,0.5727 1.12125,0.5694 2.98998,-0.066 3.36031,-1.1422 6.63666,-4.6166 5.81001,-6.1612 -0.43747,-0.8174 -0.96681,-0.9972 -3.6902,-1.2533 -1.15039,-0.1082 -2.45608,-0.2882 -2.90154,-0.4 -0.90228,-0.2265 -1.89947,0.6713 -3.94137,3.5486 -0.96585,1.361 -1.34026,1.6342 -2.11666,1.5444 -0.71155,-0.082 -1.13442,-0.4879 -1.7215,-1.6516 -0.42804,-0.8484 -0.86528,-1.6296 -0.97165,-1.736 -0.54199,-0.542 -4.33559,0.027 -5.91672,0.8878 l -1.68641,0.9179 -1.49509,-1.2015 c -3.10014,-2.4914 -5.31779,-5.8796 -6.44636,-9.8492 -0.94475,-3.323 -1.27257,-3.8779 -2.83014,-4.7907 -0.82886,-0.4857 -1.59586,-1.1147 -1.70443,-1.3976 -0.42558,-1.1091 2.57107,-0.2403 3.64828,1.0577 0.42337,0.5101 0.541,0.5106 1.31168,0.01 0.70343,-0.4609 1.04399,-0.4834 2.01362,-0.1328 0.66762,0.2415 1.6015,0.313 2.18236,0.1672 1.39436,-0.35 3.36285,-2.5167 4.63222,-5.0988 0.88882,-1.8079 0.98075,-2.2217 0.56944,-2.5631 -0.80664,-0.6694 -2.54778,-0.4109 -5.29279,0.786 -2.50728,1.0932 -2.61501,1.1094 -3.2924,0.4964 -0.3923,-0.3551 -0.70031,-1.0844 -0.70031,-1.6583 0,-1.5087 -0.58751,-0.883 -0.85676,0.9125 -0.29602,1.974 -1.1976,2.8318 -2.73866,2.6056 -0.94174,-0.1382 -1.51012,0.094 -3.09227,1.2627 -4.42248,3.2671 -7.16998,7.1611 -11.86358,16.8142 -5.91239,12.1597 -9.19591,18.141 -9.83778,19.4681 -0.39838,0.8237 -1.1091,-2.0986 0.85091,-5.0643 1.11182,-1.6823 3.49187,-6.2067 5.28901,-10.0542 3.8346,-8.2095 5.49257,-11.3428 7.876,-14.8842 1.97017,-2.9274 5.78711,-6.8395 7.96419,-8.1627 1.27284,-0.7736 1.45224,-1.0416 1.46057,-2.1818 0.0144,-1.9779 0.58353,-3.0886 1.85681,-3.624 0.99741,-0.4193 1.27162,-0.4088 2.10078,0.081 0.76128,0.4497 1.13094,0.4826 1.83269,0.1628 1.10892,-0.5052 7.85354,-0.6189 9.05037,-0.1525 1.82078,0.7096 1.98274,1.2997 1.06977,3.8977 -0.97153,2.7646 -1.8616,4.322 -3.52113,6.1612 -1.79004,1.9839 -2.96626,2.4839 -5.21958,2.2191 -1.51821,-0.1784 -1.92844,-0.1151 -2.09684,0.3237 -0.46425,1.2098 1.60708,6.5912 3.5274,9.1642 1.13469,1.5204 3.39279,3.6694 3.87837,3.691 0.16407,0.01 0.78299,-0.3319 1.37537,-0.7537 0.8164,-0.5814 1.74737,-0.8058 3.84682,-0.9273 1.97953,-0.1146 2.76976,-0.2933 2.76976,-0.6265 0,-0.7713 2.14602,-3.7363 4.08716,-5.6469 2.07649,-2.0439 4.19115,-2.8488 6.50986,-2.4781 1.43417,0.2294 2.78722,0.8243 3.21391,1.4131 0.12594,0.1738 0.48312,0.2184 0.79375,0.099 0.35985,-0.138 0.56477,-0.029 0.56477,0.3014 0,0.285 -0.1905,0.5181 -0.42333,0.5181 -0.32138,0 -0.31784,0.1055 0.0147,0.438 0.34884,0.3489 0.49787,0.3412 0.73201,-0.038 0.18571,-0.3005 0.37601,-0.343 0.51667,-0.1154 0.12248,0.1982 0.0233,0.4325 -0.22048,0.5207 -0.35334,0.1279 -0.35468,0.3104 -0.007,0.9002 0.24009,0.4068 0.58661,1.3404 0.77004,2.0746 0.18344,0.7341 0.60319,2.2873 0.93279,3.4515 0.72817,2.5719 0.81741,7.583 0.16963,9.525 -1.30203,3.9034 -3.89275,5.7545 -7.51539,5.3697 -1.01702,-0.108 -2.16664,-0.2989 -2.55469,-0.4243 -0.38806,-0.1253 -0.23785,0.042 0.33378,0.3713 0.7794,0.4493 2.10288,0.6292 5.29167,0.7192 5.73297,0.1619 6.24937,0.2857 7.91017,1.8975 1.17856,1.1437 1.47141,1.7037 1.66865,3.1906 0.18693,1.4092 0.45414,1.9623 1.22222,2.5302 0.54064,0.3997 1.07218,1.0821 1.1812,1.5165 0.10902,0.4344 0.79564,1.2403 1.52582,1.791 1.72462,1.3006 1.96387,1.6201 3.41359,4.5577 3.8044,7.709 4.52611,20.5481 1.49165,26.5363 -1.0977,2.1662 -3.09019,3.9772 -4.38367,3.9842 -0.52682,0 -3.18036,0.1558 -5.89675,0.3399 -11.86161,0.8037 -39.92678,1.9809 -58.91389,2.4713 -7.56708,0.1954 -15.58396,0.4324 -17.81528,0.5266 -2.23132,0.094 -7.15257,0.258 -10.93611,0.3637 -10.43403,0.2917 -17.08606,0.5301 -25.04722,0.8974 -9.11419,0.4206 -9.78482,0.4178 -10.06867,-0.042 z m 129.08004,-6.5321 c 0.29466,-0.1131 0.46329,-0.3944 0.37472,-0.6252 -0.0886,-0.2308 0.23896,-1.2487 0.72783,-2.2621 0.48887,-1.0134 0.88886,-2.0814 0.88886,-2.3734 0,-0.292 0.14343,-0.5309 0.31873,-0.5309 0.1753,0 0.4001,-0.7541 0.49956,-1.6757 0.0995,-0.9217 0.36803,-2.6282 0.59682,-3.7924 1.15563,-5.8804 -1.11409,-16.4678 -4.19798,-19.5821 -1.1347,-1.1458 -3.06699,-2.0131 -4.13573,-1.8563 -0.88577,0.13 -1.12959,-0.01 -1.52049,-0.845 l -0.46555,-0.9999 -0.36409,0.7937 c -0.20025,0.4366 -0.47398,0.7938 -0.60828,0.7938 -0.59475,0 -1.49785,-1.481 -1.55007,-2.542 l -0.0572,-1.1622 -2.19536,-0.105 c -1.65831,-0.079 -2.19536,-0.2331 -2.19536,-0.6284 0,-0.7323 0.76866,-0.9468 1.87944,-0.5244 1.0199,0.3877 1.16732,0.171 0.48924,-0.7193 -0.49225,-0.6463 -4.15713,-1.3743 -6.91869,-1.3743 -1.01551,0 -2.17366,-0.1751 -2.57368,-0.3892 -0.6121,-0.3276 -0.88568,-0.2298 -1.72705,0.6173 -0.91674,0.9231 -0.97228,1.1238 -0.66903,2.4178 0.48689,2.0775 0.41755,3.9124 -0.16617,4.3969 -0.78856,0.6544 -1.35107,0.076 -1.10804,-1.1388 0.37493,-1.8747 -0.77682,-2.3817 -2.34699,-1.0332 -0.33955,0.2916 -0.61737,0.4182 -0.61737,0.2812 0,-0.4752 -2.4429,1.617 -2.65006,2.2697 -0.11691,0.3684 -0.41894,0.5754 -0.68853,0.4719 -0.62468,-0.2397 -0.8516,0.8277 -0.44055,2.0724 0.17621,0.5336 0.3882,0.9701 0.47107,0.9701 0.0829,0 1.25401,-0.5556 2.60252,-1.2347 1.34851,-0.6791 2.94501,-1.2347 3.54779,-1.2347 1.02691,0 3.68787,-1.7494 4.77716,-3.1407 0.41044,-0.5242 1.20005,-0.2612 1.20005,0.3997 0,0.2158 -0.26361,0.6837 -0.5858,1.0397 -0.69686,0.77 -0.45114,1.1485 0.54117,0.8335 0.84559,-0.2684 1.23564,-1.2549 1.26091,-3.1891 l 0.0184,-1.4112 1.6757,-0.1075 c 1.00793,-0.065 1.67569,0.041 1.67569,0.2646 0,0.2047 -0.28716,0.3721 -0.63813,0.3721 -0.98658,0 -1.72314,0.7681 -1.95797,2.0419 -0.2408,1.3061 -0.39782,1.2118 3.0651,1.8412 3.55998,0.6471 6.20576,2.0844 9.07263,4.9286 3.05105,3.027 4.03463,5.0767 4.51934,9.4182 0.49417,4.4261 -0.20096,11.7091 -1.37462,14.4021 -0.16913,0.388 -0.58406,1.3405 -0.92207,2.1166 -0.33802,0.7761 -0.67586,1.5302 -0.75077,1.6757 -0.16004,0.3109 2.44228,0.3586 3.22286,0.059 z m 3.3973,-4.7158 c 0.76724,-2.5762 0.92994,-4.4279 0.358,-4.0744 -0.19403,0.1199 -0.35278,0.5158 -0.35278,0.8798 0,0.3639 -0.18121,1.1086 -0.40268,1.6548 -0.22147,0.5462 -0.45175,1.2313 -0.51173,1.5223 -0.41875,2.032 -0.65874,2.6807 -1.08475,2.9321 -0.26682,0.1575 -0.37712,0.461 -0.2451,0.6746 0.41213,0.6669 1.48254,-1.049 2.23904,-3.5892 z m -29.33709,-4.3302 c 0.341,-0.341 0.57909,-0.3404 1.12889,0 0.57819,0.3611 0.69675,0.3446 0.69675,-0.097 0,-0.297 0.31182,-0.5322 0.70556,-0.5322 0.89358,0 0.88513,-0.317 -0.0603,-2.263 -0.63639,-1.3099 -0.68872,-1.6693 -0.30958,-2.1261 0.25094,-0.3024 0.8337,-0.5498 1.29501,-0.5498 1.16643,0 1.04733,-0.4721 -0.24183,-0.9587 -0.91015,-0.3436 -1.16017,-0.314 -1.58519,0.1872 -2.80328,3.3061 -2.86351,3.3546 -4.42237,3.5626 -1.25057,0.1669 -1.55492,0.3456 -1.55492,0.9131 0,0.5794 0.19962,0.6865 1.11611,0.5989 0.85856,-0.082 1.26559,0.099 1.76389,0.7826 0.7463,1.0246 0.87931,1.0681 1.46797,0.4794 z m -48.97436,-1.9019 c -0.87312,-0.2752 -1.82562,-0.4366 -2.11666,-0.3588 -0.30081,0.081 -0.19561,0.1592 0.24376,0.1825 0.42511,0.023 0.87104,0.1997 0.99096,0.3937 0.11991,0.194 0.7246,0.3371 1.34374,0.3179 1.07425,-0.033 1.05314,-0.058 -0.4618,-0.5353 z m 46.51812,-2.3548 c 0.97917,-0.4958 1.81139,-1.2691 2.28793,-2.1261 l 0.74898,-1.347 -0.87682,-0.6627 c -0.48225,-0.3644 -0.89175,-0.8696 -0.91,-1.1225 -0.049,-0.6793 -0.84483,-2.5216 -1.01553,-2.3509 -0.0809,0.081 -8.3e-4,0.7776 0.17784,1.5482 0.72165,3.1126 -0.0126,4.7526 -2.12774,4.7526 -0.94074,0 -1.05833,0.1176 -1.05833,1.0584 0,1.2977 0.59791,1.3516 2.77367,0.25 z m -0.8775,-3.2609 c 0.32137,-0.8375 -0.42024,-3.8053 -2.14255,-8.5743 -0.86469,-2.3943 -1.65577,-4.8685 -1.75797,-5.4983 -0.23199,-1.4295 0.60693,-3.1278 3.03069,-6.135 0.98773,-1.2256 1.79588,-2.5404 1.79588,-2.9218 0,-1.1962 -0.9248,-2.9717 -1.8707,-3.5914 l -0.90864,-0.5954 -1.48534,2.7281 c -3.34777,6.1488 -3.9214,7.1408 -4.24476,7.3407 -0.74805,0.4623 1.1266,9.7842 2.1904,10.892 0.177,0.1843 0.32182,0.5928 0.32182,0.9076 0,0.9916 2.04346,4.8396 2.88193,5.4269 1.01498,0.7109 1.92113,0.7195 2.18924,0.021 z m -61.51562,-1.7431 c 0,-0.092 -0.3169,-0.6876 -0.70423,-1.3229 -0.82829,-1.3585 -0.90394,-2.691 -0.20688,-3.6443 0.35288,-0.4826 0.39207,-0.8138 0.13319,-1.1258 -0.50914,-0.6134 -1.33874,-0.5536 -1.33874,0.096 0,1.0545 -2.94679,3.5518 -4.78232,4.0527 l -1.74407,0.476 2.64583,0.2451 c 1.45521,0.1348 3.20146,0.4898 3.88056,0.789 1.26491,0.5573 2.11666,0.7318 2.11666,0.4337 z m 17.63889,-2.5966 c 0,-0.1623 -1.4467,-1.1514 -3.21488,-2.198 -2.26559,-1.3411 -3.97624,-2.7124 -5.7933,-4.6439 -1.5569,-1.655 -2.85933,-2.7409 -3.28748,-2.7409 -0.38999,0 -1.0561,0.4874 -1.48024,1.083 -0.42414,0.5957 -1.53834,1.6895 -2.47599,2.4306 -1.56723,1.2389 -1.6564,1.3891 -1.10493,1.862 1.15063,0.9866 2.54456,1.3754 7.30266,2.0372 3.15425,0.4388 6.5448,1.2394 7.9375,1.8744 1.38596,0.6319 2.11666,0.734 2.11666,0.2956 z m -24.6399,-0.6051 c 1.89508,-0.6294 3.82601,-2.6152 3.82601,-3.9346 0,-0.445 -0.36642,-1.0336 -0.83432,-1.3401 -0.96398,-0.6317 -1.20042,-0.5652 -5.64264,1.5849 -1.60775,0.7782 -3.14971,1.4164 -3.42658,1.4182 -0.78454,0.01 -4.25454,2.1047 -4.04333,2.4465 0.35508,0.5745 8.27668,0.4377 10.12086,-0.1749 z m 51.90355,-6.9001 c 1.1093,-1.2827 2.01691,-2.426 2.01691,-2.5405 0,-0.1146 -0.84042,-0.1865 -1.8676,-0.1598 -1.02718,0.027 -2.06018,-0.07 -2.29555,-0.2158 -0.26155,-0.1617 -0.50542,-0.016 -0.62721,0.3752 -0.69676,2.237 -2.10025,5.8204 -2.82536,7.2138 -0.46802,0.8994 -0.84901,1.7726 -0.84664,1.9403 0.005,0.3634 3.61559,-3.341 6.44545,-6.6132 z m -27.26365,5.348 c 0,-0.311 -4.19243,-2.8395 -4.70821,-2.8395 -0.12687,0 -0.23068,0.1588 -0.23068,0.3528 0,0.194 0.16502,0.3528 0.3667,0.3528 0.20168,0 1.19175,0.5556 2.20015,1.2347 1.91109,1.287 2.37204,1.4618 2.37204,0.8992 z m 21.79529,-3.986 c 1.22572,-3.1351 1.29883,-3.4396 0.82593,-3.4396 -0.33294,0 -1.57687,2.7541 -1.93708,4.2888 -0.12101,0.5155 -0.31705,1.1902 -0.43565,1.4993 -0.1186,0.3091 -0.0751,0.5619 0.0967,0.5619 0.17176,0 0.82433,-1.3097 1.45015,-2.9104 z m -21.38231,0.5547 c 0.12051,-1.5153 0.0481,-1.6956 -0.8857,-2.2049 -0.55933,-0.3051 -1.99146,-1.1735 -3.18253,-1.9299 -3.18018,-2.0196 -4.15257,-2.3716 -5.15185,-1.8651 -1.75538,0.8897 -1.72743,1.4964 0.15706,3.4096 1.17177,1.1897 2.0382,1.7738 2.63956,1.7794 0.49236,0 1.92708,0.5354 3.18826,1.1796 1.26118,0.6442 2.47551,1.1961 2.69851,1.2264 0.24002,0.033 0.45899,-0.6182 0.53669,-1.5951 z m -17.49915,-1.4157 c 1.0542,-0.9102 1.91673,-1.8358 1.91673,-2.0571 0,-0.7233 -1.66566,-1.3331 -3.11152,-1.1392 -1.58666,0.2128 -5.50109,1.8837 -6.09801,2.603 -0.33246,0.4005 -0.12792,0.445 1.20664,0.262 1.46674,-0.201 1.69362,-0.1276 2.60006,0.8411 0.54621,0.5837 1.12276,1.0801 1.28124,1.1031 0.15847,0.023 1.15066,-0.7028 2.20486,-1.6129 z m 82.35006,-6.9883 c 0,-0.291 -0.23314,-0.5292 -0.51809,-0.5292 -0.3156,0 -0.43873,0.2069 -0.31504,0.5292 0.11168,0.291 0.34483,0.5292 0.5181,0.5292 0.17326,0 0.31503,-0.2382 0.31503,-0.5292 z m -35.14789,-12.1911 c 1.55158,-0.8316 2.25833,-1.4726 3.31943,-3.0106 0.71409,-1.0351 0.72223,-1.1339 0.15995,-1.9403 -1.52421,-2.186 -4.97152,-5.7786 -5.2641,-5.486 -0.10909,0.1091 -0.98198,1.5144 -1.93976,3.1229 l -1.74142,2.9245 1.0805,2.1747 c 0.59428,1.1961 1.08051,2.347 1.08051,2.5577 0,0.6276 1.85287,0.4354 3.30489,-0.3429 z m -4.81225,-0.2443 c -0.0758,-0.1455 -0.41455,-0.8692 -0.75271,-1.6081 -0.68823,-1.504 -1.07198,-1.5231 -2.12818,-0.106 -0.7178,0.963 -0.71834,0.9818 -0.0422,1.477 0.70134,0.5138 3.17175,0.7141 2.92313,0.2371 z m 36.98759,-8.2942 c -0.17665,-2.3163 -0.18903,-2.3519 -0.51889,-1.4954 -0.14944,0.3881 -0.19251,1.8962 -0.0957,3.3514 0.16082,2.4174 0.20103,2.5313 0.46578,1.319 0.15936,-0.7298 0.22633,-2.1586 0.14881,-3.175 z m -1.27063,-5.7406 c -0.23613,-0.2845 -0.92582,-0.4957 -1.53265,-0.4693 -0.76623,0.033 -0.87208,0.093 -0.34643,0.1961 0.4163,0.082 1.04724,0.4689 1.40209,0.861 0.72228,0.7981 1.16966,0.2468 0.47699,-0.5878 z m -33.96861,-18.5751 c -0.11262,-0.2814 -0.19621,-0.1978 -0.21314,0.2131 -0.0153,0.3719 0.0681,0.5803 0.18529,0.463 0.11722,-0.1172 0.12976,-0.4214 0.0279,-0.6761 z m 1.17012,-2.7561 c 0,-0.194 -0.07,-0.3528 -0.15557,-0.3528 -0.0856,0 -0.25368,0.1588 -0.37359,0.3528 -0.11992,0.194 -0.0499,0.3528 0.15557,0.3528 0.20547,0 0.37359,-0.1588 0.37359,-0.3528 z m -38.45277,71.9459 c 0,-0.2055 0.15875,-0.2755 0.35277,-0.1556 0.19403,0.1199 0.35278,0.288 0.35278,0.3736 0,0.086 -0.15875,0.1556 -0.35278,0.1556 -0.19402,0 -0.35277,-0.1682 -0.35277,-0.3736 z m 35.27777,-47.9778 c 0,-0.2055 0.15875,-0.2755 0.35278,-0.1556 0.19403,0.1199 0.35278,0.288 0.35278,0.3736 0,0.086 -0.15875,0.1556 -0.35278,0.1556 -0.19403,0 -0.35278,-0.1681 -0.35278,-0.3736 z"
       id="path94" /></g></svg>
