<?xml version="1.0" encoding="UTF-8" standalone="no"?>
<!-- Created with Inkscape (http://www.inkscape.org/) -->

<svg
   width="202.66214mm"
   height="105.55967mm"
   viewBox="0 0 202.66214 105.55967"
   version="1.1"
   id="svg1"
   xml:space="preserve"
   xmlns="http://www.w3.org/2000/svg"
   xmlns:svg="http://www.w3.org/2000/svg"><defs
     id="defs1" /><g
     id="layer1"
     transform="translate(-462.93791,-533.07487)"><path
       style="fill:#4d4d4d"
       d="m 496.10982,638.30277 c -1.05856,-1.24239 -1.57789,-4.29293 -0.8357,-4.90889 0.73753,-0.6121 1.79543,1.39722 1.81126,3.44022 0.0131,1.68803 -0.33814,2.21677 -0.97556,1.46867 z m 12.83669,-0.33182 c -0.39925,-1.05012 -0.0381,-3.6838 0.64439,-4.69913 0.33399,-0.49685 0.83788,-0.87834 1.22102,-0.92442 0.61966,-0.0745 1.60168,-0.37661 2.76904,-0.85183 0.29104,-0.11848 1.18401,-0.41849 1.98437,-0.6667 0.80037,-0.24821 1.66195,-0.55598 1.91464,-0.68393 0.25269,-0.12794 0.70079,-0.23263 0.99578,-0.23263 0.29499,0 0.74309,-0.11521 0.99578,-0.25602 0.57458,-0.3202 3.61313,-1.06454 4.3834,-1.07379 0.31567,-0.004 1.46273,-0.30144 2.54903,-0.66146 1.08629,-0.36001 2.24013,-0.65456 2.56407,-0.65456 0.32394,0 0.65832,-0.11219 0.74306,-0.2493 0.0847,-0.13711 0.68855,-0.32944 1.34179,-0.4274 0.65324,-0.098 1.2528,-0.28344 1.33236,-0.41217 0.0796,-0.12873 0.471,-0.23405 0.86987,-0.23405 0.39887,0 0.83878,-0.11356 0.97758,-0.25236 0.1388,-0.1388 1.08535,-0.3696 2.10344,-0.51289 2.22612,-0.31332 3.26164,-0.52549 3.96774,-0.81296 0.29105,-0.11849 1.30308,-0.42472 2.24896,-0.68051 0.94589,-0.2558 2.60946,-0.7452 3.69683,-1.08756 1.08737,-0.34236 2.18167,-0.62247 2.43178,-0.62247 0.25011,0 0.51973,-0.10515 0.59916,-0.23366 0.0794,-0.12851 0.82869,-0.31916 1.66504,-0.42365 2.46695,-0.30823 5.33544,-1.00477 10.39261,-2.52357 1.8261,-0.54843 3.53154,-0.94498 5.68854,-1.3227 1.6412,-0.2874 4.36399,-0.90422 4.89479,-1.10886 0.42102,-0.16231 2.86607,-0.84735 4.63021,-1.29726 0.58208,-0.14845 1.47505,-0.40092 1.98438,-0.56104 1.22239,-0.38431 2.68865,-0.69677 4.6302,-0.9867 1.80497,-0.26954 2.21503,-0.36935 7.67292,-1.86758 2.18281,-0.5992 5.33797,-1.32608 7.01146,-1.6153 1.67349,-0.28922 3.28083,-0.63039 3.57187,-0.75817 0.29105,-0.12778 1.5412,-0.47074 2.77813,-0.76214 4.65573,-1.0968 7.02798,-1.69568 7.54062,-1.90363 0.29105,-0.11806 1.42214,-0.35145 2.51355,-0.51863 2.06577,-0.31644 3.71514,-0.64609 5.29166,-1.05763 0.50933,-0.13295 1.58089,-0.37694 2.38125,-0.54219 0.80037,-0.16525 1.6338,-0.38872 1.85209,-0.49661 0.21828,-0.10788 1.05171,-0.3468 1.85208,-0.53092 0.80036,-0.18412 1.99099,-0.48709 2.64583,-0.67327 1.3456,-0.38255 3.23123,-0.69685 6.54844,-1.09148 0.95191,-0.11325 1.38906,-0.0714 1.38906,0.13299 0,0.16404 -0.17859,0.29825 -0.39687,0.29825 -0.29986,0 -0.39688,0.32338 -0.39688,1.32292 0,1.21771 -0.0502,1.32291 -0.63103,1.32291 -0.83634,0 -1.66173,-1.1888 -1.20636,-1.7375 0.26154,-0.31513 0.17781,-0.37916 -0.49585,-0.37916 -0.44579,0 -0.87419,0.10301 -0.95201,0.22892 -0.0778,0.12591 -0.56662,0.29791 -1.08624,0.38223 -0.51962,0.0843 -1.74291,0.3914 -2.71841,0.68238 -0.9755,0.29099 -2.48801,0.7262 -3.36114,0.96715 -0.87312,0.24094 -1.82562,0.53626 -2.11667,0.65627 -0.29104,0.12 -0.82682,0.2784 -1.19062,0.352 -0.3638,0.0736 -1.13771,0.25832 -1.71979,0.41049 -0.58209,0.15218 -1.49779,0.27952 -2.03491,0.28299 -0.53711,0.003 -1.04203,0.11222 -1.12203,0.24167 -0.08,0.12944 -0.53351,0.29917 -1.0078,0.37719 -1.40755,0.23151 -3.5818,0.82809 -3.79499,1.04128 -0.10904,0.10904 -0.44232,0.19826 -0.74063,0.19826 -0.2983,0 -1.0226,0.16628 -1.60955,0.36951 -0.58694,0.20324 -1.60296,0.5147 -2.2578,0.69215 -0.65484,0.17744 -1.48828,0.42941 -1.85208,0.55993 -0.36381,0.13051 -1.43537,0.34751 -2.38125,0.4822 -0.94589,0.1347 -2.19605,0.36562 -2.77813,0.51315 -0.58208,0.14754 -1.67357,0.42284 -2.42552,0.61177 -0.75196,0.18894 -1.45641,0.43274 -1.56546,0.54178 -0.10904,0.10904 -0.47768,0.19826 -0.81921,0.19826 -0.34152,0 -0.82769,0.11425 -1.08038,0.25389 -0.25269,0.13964 -1.05474,0.38452 -1.78235,0.54418 -0.7276,0.15967 -1.79916,0.41018 -2.38125,0.55671 -0.58208,0.14652 -1.71317,0.36275 -2.51354,0.4805 -1.50358,0.2212 -3.44129,0.7045 -4.36562,1.08886 -0.29104,0.12102 -0.94589,0.29628 -1.45521,0.38946 -0.85281,0.15602 -2.2046,0.52665 -3.175,0.87051 -1.109,0.39297 -5.27257,1.33453 -7.14375,1.6155 -1.49307,0.22419 -3.42717,0.70654 -4.36563,1.08876 -0.29104,0.11854 -0.82682,0.28069 -1.19062,0.36033 -1.17894,0.25811 -3.56127,0.85829 -3.96875,0.99986 -1.85835,0.64562 -2.46232,0.78409 -3.96875,0.90988 -0.94589,0.079 -1.95792,0.24519 -2.24896,0.36935 -0.29104,0.12415 -0.88635,0.28478 -1.32292,0.35696 -1.15279,0.19057 -3.10242,0.72394 -3.63443,0.99429 -0.25268,0.1284 -0.73886,0.23346 -1.08038,0.23346 -0.34152,0 -0.70839,0.0874 -0.81526,0.19431 -0.10687,0.10687 -0.81132,0.33408 -1.56545,0.50491 -0.75413,0.17083 -1.84739,0.45228 -2.42948,0.62545 -0.58208,0.17316 -2.12989,0.47437 -3.43958,0.66934 -1.30969,0.19498 -2.79797,0.48988 -3.30729,0.65533 -0.50932,0.16545 -1.64042,0.47424 -2.51354,0.6862 -2.53059,0.61433 -3.34659,0.82838 -4.89479,1.28394 -1.71227,0.50384 -3.53924,0.89124 -5.55625,1.17815 -1.51229,0.21512 -3.71528,0.73628 -4.63021,1.09535 -0.29104,0.11423 -1.36261,0.40809 -2.38125,0.65304 -1.01865,0.24494 -2.09021,0.53872 -2.38125,0.65284 -1.37639,0.53969 -2.9777,0.91724 -3.89035,0.91724 h -1.00444 v 1.49373 c 0,1.54112 -0.70382,3.58323 -1.44775,4.20064 -0.33001,0.27389 -0.44157,0.20729 -0.67316,-0.40183 z m -15.68726,-7.04519 c -1.26509,-0.75416 -2.30017,-1.4693 -2.30017,-1.5892 0,-0.53913 1.05062,-0.11987 2.4474,0.97666 1.85099,1.45311 1.98631,1.09551 0.59531,-1.57315 -0.50932,-0.97715 -0.92604,-1.91954 -0.92604,-2.09421 0,-0.17466 -0.73202,-1.80312 -1.62671,-3.61879 -1.57136,-3.18891 -1.97622,-4.25922 -2.24956,-5.94705 -0.0707,-0.43656 -0.22358,-1.03188 -0.33973,-1.32292 -0.32951,-0.82561 -0.8785,-3.07892 -0.99916,-4.10104 -0.0601,-0.50932 -0.21318,-1.16417 -0.34013,-1.45521 -0.12694,-0.29104 -0.28733,-1.18401 -0.35642,-1.98437 -0.0691,-0.80037 -0.26878,-2.82443 -0.44375,-4.49792 -0.46619,-4.45871 -0.0566,-12.82983 0.80273,-16.40417 0.21738,-0.90423 0.67123,-3.23595 0.96609,-4.96339 0.0809,-0.47429 0.2531,-0.9278 0.38254,-1.0078 0.12944,-0.08 0.23601,-0.52538 0.23682,-0.98973 0.002,-1.43019 0.5078,-2.81797 2.42681,-6.66512 2.18145,-4.37328 2.36338,-4.69658 2.79978,-4.97551 0.59074,-0.37756 1.49734,-1.39355 2.38447,-2.67218 0.50397,-0.72637 1.24058,-1.40432 1.763,-1.6226 0.49355,-0.20622 1.28917,-0.73281 1.76807,-1.17021 0.47889,-0.4374 1.23335,-0.96562 1.67657,-1.17381 2.97259,-1.3963 3.91736,-1.74715 4.70475,-1.74715 0.48954,0 1.00319,-0.1096 1.14143,-0.24356 0.23468,-0.2274 3.58297,-1.32926 5.67532,-1.86764 4.96571,-1.27772 13.22332,-1.26829 15.67297,0.0179 0.25269,0.13267 0.65103,0.24122 0.88522,0.24122 0.23418,0 0.74181,0.16821 1.12807,0.3738 0.38625,0.20559 1.29759,0.63388 2.02519,0.95176 3.4189,1.49367 3.08681,1.2923 5.42396,3.28901 0.94589,0.80811 2.02878,1.72662 2.40642,2.04114 0.37764,0.31452 1.00488,1.07491 1.39386,1.68976 0.38898,0.61484 1.09439,1.38318 1.56758,1.70741 0.89094,0.61048 2.30506,2.38213 2.30506,2.88783 0,0.15865 0.10842,0.28846 0.24093,0.28846 0.41888,0 2.94909,2.74586 3.1059,3.37061 0.0826,0.32897 0.26567,0.59814 0.40691,0.59814 0.34753,0 2.10032,1.82029 4.18376,4.34489 0.94588,1.14617 1.89838,2.27849 2.11667,2.51628 0.21828,0.23778 0.70813,0.84512 1.08856,1.34964 0.38043,0.50452 1.36978,1.62808 2.19856,2.4968 0.82878,0.86872 1.74425,2.00186 2.03439,2.51809 0.29013,0.51622 0.96766,1.22925 1.50561,1.58449 0.53794,0.35524 1.27574,0.91804 1.63954,1.25066 1.1512,1.05252 1.92734,1.66623 2.10726,1.66623 0.0958,0 0.41159,0.20836 0.70172,0.46302 0.29012,0.25466 1.33132,0.87715 2.31377,1.3833 0.98245,0.50616 2.0127,1.13124 2.28945,1.38907 0.27675,0.25783 0.56443,0.46878 0.6393,0.46878 0.0749,0 0.76445,0.28783 1.53242,0.63964 0.76796,0.3518 1.75348,0.69584 2.19004,0.76453 0.43656,0.0687 1.68672,0.39011 2.77813,0.71425 2.91155,0.86473 6.4304,0.83329 10.02743,-0.0896 1.51327,-0.38825 3.00155,-0.70558 3.30729,-0.70516 0.52481,7.2e-4 3.3724,-1.04353 4.52465,-1.65925 2.06111,-1.10138 3.55237,-1.77815 4.23333,-1.9212 l 0.79375,-0.16673 -0.79375,0.50184 c -3.81987,2.41511 -6.91819,3.77375 -8.60584,3.77375 -0.5783,0 -1.05145,0.11906 -1.05145,0.26458 0,0.14552 -0.2311,0.26459 -0.51355,0.26459 -0.28245,0 -0.57901,0.1059 -0.65901,0.23535 -0.08,0.12944 -0.53351,0.29703 -1.0078,0.37242 -0.47429,0.0754 -1.39813,0.27742 -2.05297,0.44897 -2.3112,0.60546 -8.44487,0.0928 -9.92188,-0.82933 -0.14552,-0.0909 -0.6813,-0.24616 -1.19062,-0.34513 -1.82659,-0.35495 -4.48001,-1.47206 -5.00821,-2.1085 -0.19154,-0.23079 -0.48409,-0.41962 -0.65012,-0.41962 -0.16602,0 -0.89558,-0.3983 -1.62124,-0.88511 -0.72567,-0.48682 -1.76546,-1.0955 -2.31065,-1.35263 -0.5452,-0.25713 -1.58459,-1.01968 -2.30977,-1.69457 -0.72517,-0.67488 -1.77585,-1.53819 -2.33484,-1.91845 -0.55899,-0.38027 -1.2156,-1.1113 -1.45914,-1.62453 -0.24354,-0.51322 -0.75275,-1.21412 -1.13157,-1.55756 -0.37882,-0.34344 -0.88547,-0.84379 -1.12589,-1.11188 -1.21784,-1.35804 -1.88429,-2.17344 -1.88809,-2.31009 -0.002,-0.0834 -0.62931,-0.8142 -1.39329,-1.62394 -0.76399,-0.80973 -2.21964,-2.44861 -3.23479,-3.64194 -1.01515,-1.19333 -2.14624,-2.49302 -2.51354,-2.8882 -0.3673,-0.39518 -1.67985,-1.89602 -2.91678,-3.33519 -2.51113,-2.92172 -3.90927,-4.36632 -4.2259,-4.36632 -0.11645,0 -0.40313,-0.38696 -0.63707,-0.8599 -0.57974,-1.17199 -1.52102,-2.18227 -2.50948,-2.69343 -0.45356,-0.23454 -1.00512,-0.70187 -1.2257,-1.03852 -0.22058,-0.33664 -1.14443,-1.05589 -2.05301,-1.59832 -2.31913,-1.38455 -2.2793,-1.36558 -3.96707,-1.88986 -0.83674,-0.25992 -1.52135,-0.5513 -1.52135,-0.6475 0,-0.17833 -1.94118,-0.61863 -5.02708,-1.14027 -2.12399,-0.35903 -5.39411,-0.355 -7.67292,0.009 -3.32618,0.53196 -5.16461,0.90096 -5.68854,1.14176 -0.77593,0.35662 -3.58904,1.04367 -4.27331,1.04367 -0.32464,0 -0.66384,0.11906 -0.75378,0.26458 -0.0899,0.14552 -0.3368,0.26459 -0.54859,0.26459 -0.62256,0 -5.28673,2.34171 -5.80515,2.91454 -0.26133,0.28877 -0.66505,0.52743 -0.89716,0.53036 -0.42148,0.005 -1.0611,0.65205 -4.00061,4.04517 -1.47721,1.70517 -3.49198,5.42137 -5.33493,9.84013 -0.41981,1.00657 -1.89762,9.11357 -2.3874,13.09688 -0.73203,5.95342 -0.0871,17.95061 1.13405,21.09572 0.12611,0.32478 0.30907,1.39634 0.4066,2.38125 0.18124,1.83038 0.44537,2.57179 2.24752,6.30882 0.56676,1.17525 1.03047,2.2782 1.03047,2.45098 0,0.17279 0.10684,0.5209 0.23742,0.77359 0.13058,0.25269 0.44475,0.99521 0.69815,1.65006 0.2534,0.65484 0.72738,1.78593 1.05328,2.51354 1.05823,2.36259 1.21543,2.85467 0.98544,3.08466 -0.12499,0.12499 -1.25427,-0.38693 -2.52621,-1.14517 z m -3.93491,-2.13857 c -0.1923,-0.18225 -0.77284,-0.55398 -1.2901,-0.82606 -1.40648,-0.73983 -3.85147,-3.16301 -10.99424,-10.89619 -1.47086,-1.59243 -3.07485,-3.37159 -3.56442,-3.95367 -0.48957,-0.58209 -1.28633,-1.45674 -1.77056,-1.94367 -0.48424,-0.48694 -1.20086,-1.37991 -1.59248,-1.98438 -0.39163,-0.60447 -0.77269,-1.15857 -0.84681,-1.23133 -1.25983,-1.23667 -2.40159,-2.80917 -2.79684,-3.85197 -0.27254,-0.71907 -0.68995,-1.51905 -0.92757,-1.77772 -0.23762,-0.25868 -0.64939,-1.21118 -0.91504,-2.11667 -0.26565,-0.90549 -0.56705,-1.76541 -0.66978,-1.91093 -0.10274,-0.14552 -0.24951,-0.6813 -0.32617,-1.19062 -0.0767,-0.50933 -0.27892,-1.81353 -0.44947,-2.89823 -0.46754,-2.97363 -0.20862,-18.97259 0.33847,-20.91427 0.22551,-0.80037 0.60072,-2.15562 0.8338,-3.01168 0.23307,-0.85606 0.58464,-1.86809 0.78125,-2.24896 0.65194,-1.26289 1.21845,-2.68968 1.21845,-3.06872 0,-0.20564 0.31296,-0.94574 0.69547,-1.64466 0.38251,-0.69893 0.85641,-1.56843 1.05313,-1.93223 0.19671,-0.36381 0.77672,-1.06514 1.28891,-1.55852 0.51218,-0.49338 0.93124,-1.03748 0.93124,-1.20912 0,-0.40415 1.41838,-1.99486 1.77875,-1.99486 0.15199,0 0.71856,-0.50602 1.25905,-1.12448 1.91489,-2.19113 2.59722,-2.84427 2.97139,-2.84427 0.20823,0 0.54457,-0.14883 0.7474,-0.33073 0.64067,-0.57454 1.03873,-0.95616 1.36668,-1.31025 0.8039,-0.86796 1.26973,-1.15886 4.84132,-3.02333 0.80036,-0.41781 1.51474,-0.8243 1.5875,-0.90332 0.42969,-0.46664 3.33161,-1.61208 5.02708,-1.98427 1.09141,-0.23958 2.28203,-0.53248 2.64583,-0.65088 2.09398,-0.68148 4.46475,-0.92535 8.99584,-0.92535 4.87281,0 12.25906,0.48385 14.02291,0.9186 0.50933,0.12553 2.71198,0.42474 4.89479,0.66491 2.18282,0.24016 4.08186,0.54767 4.22011,0.68335 0.13824,0.13567 0.56091,0.24668 0.93927,0.24668 0.37835,0 0.80103,0.10243 0.93927,0.22763 0.13824,0.12519 0.9062,0.44741 1.70656,0.71605 0.80037,0.26863 1.57427,0.56699 1.71979,0.66301 1.11949,0.73869 2.81169,1.51572 3.63888,1.6709 0.54523,0.10228 0.99133,0.27463 0.99133,0.38298 0,0.10836 0.59531,0.5447 1.32292,0.96964 0.7276,0.42494 1.32292,0.86668 1.32292,0.98163 0,0.11495 0.15784,0.209 0.35075,0.209 0.19292,0 0.63039,0.29765 0.97216,0.66145 0.34178,0.36381 0.75941,0.66146 0.92807,0.66146 0.41804,0 2.2102,1.8163 2.67593,2.71198 0.20809,0.40018 0.48147,0.72761 0.60751,0.72761 0.34819,0 2.93224,2.39017 2.93224,2.71222 0,0.15507 0.83344,1.11044 1.85209,2.12305 1.01864,1.0126 1.85208,1.9361 1.85208,2.0522 0,0.11611 0.63325,0.84634 1.40723,1.62275 0.77398,0.77641 1.91075,2.03027 2.52616,2.78636 l 1.11894,1.37471 1.17652,-1.24242 c 0.64709,-0.68333 1.17719,-1.33171 1.178,-1.44085 0.003,-0.36106 1.59628,-0.20586 2.24401,0.21855 0.60319,0.39523 0.66813,0.38051 1.24417,-0.282 0.97539,-1.1218 3.3534,-1.98707 5.46101,-1.98707 1.19353,0 1.50123,-0.119 2.39454,-0.92605 1.25336,-1.13234 1.68708,-1.15609 2.41609,-0.13229 0.52638,0.73924 0.68055,0.79375 2.24492,0.79375 1.10803,0 1.71761,0.11257 1.79104,0.33073 0.0874,0.25971 0.20329,0.25482 0.53963,-0.0228 0.23557,-0.19443 0.55737,-0.27374 0.7151,-0.17625 0.15774,0.0975 0.52878,-0.13039 0.82455,-0.50639 0.38527,-0.4898 0.78674,-0.68364 1.4159,-0.68364 0.70796,0 0.90926,-0.12392 1.03863,-0.63939 0.2199,-0.87612 2.11645,-1.59414 3.73025,-1.41225 1.03908,0.11712 1.19373,0.0702 1.19373,-0.36211 0,-0.7381 0.99945,-0.6514 1.10607,0.0959 0.0906,0.63519 0.89747,0.94927 1.32929,0.51744 0.1736,-0.1736 0.0139,-0.3836 -0.47159,-0.62012 -1.04485,-0.50904 -1.1614,-1.07847 -0.20757,-1.01412 1.18372,0.0799 1.4188,0.0209 1.4188,-0.35573 0,-0.19291 0.28974,-0.62296 0.64388,-0.95565 l 0.64387,-0.60489 0.64758,0.64757 0.64757,0.64758 0.68175,-0.85441 c 1.04296,-1.30711 2.65022,-1.65856 8.24472,-1.80284 5.30468,-0.1368 6.61218,-0.38725 6.84402,-1.31096 0.20279,-0.80799 0.86243,-2.24408 1.47945,-3.22085 0.27577,-0.43657 0.5101,-0.94495 0.52073,-1.12974 0.0106,-0.18479 0.317,-0.8075 0.6808,-1.3838 0.3638,-0.5763 0.66146,-1.28129 0.66146,-1.56663 0,-0.28535 0.11906,-0.5924 0.26458,-0.68233 0.14552,-0.0899 0.26459,-0.35362 0.26459,-0.58596 0,-0.23233 0.27147,-0.79085 0.60328,-1.24115 0.3318,-0.4503 0.83782,-1.32338 1.12448,-1.94017 0.28666,-0.61679 0.61049,-1.12281 0.71963,-1.12448 0.10914,-0.002 0.19844,-0.16889 0.19844,-0.3716 0,-0.20271 0.17859,-0.4371 0.39687,-0.52086 0.21829,-0.0838 0.39688,-0.37587 0.39688,-0.64912 0,-0.83136 0.70546,-1.97227 1.99348,-3.22395 0.67385,-0.65485 1.448,-1.62161 1.72033,-2.14837 0.39781,-0.76949 0.76364,-1.04557 1.86115,-1.40455 1.25269,-0.40973 1.43906,-0.41214 2.24651,-0.029 0.60402,0.28662 1.21742,0.36394 1.95347,0.24625 0.86769,-0.13875 1.07298,-0.0929 1.07298,0.23973 0,0.40062 -1.34813,1.24382 -1.98865,1.24382 -0.17591,0 -0.74105,0.32742 -1.25586,0.72761 -0.51481,0.40018 -1.24365,0.95121 -1.61966,1.22451 -1.22916,0.89343 -1.39346,1.07581 -2.11981,2.35307 -0.39487,0.69437 -1.0772,1.63 -1.5163,2.07919 -0.4391,0.4492 -1.15427,1.30804 -1.58928,1.90855 -0.70532,0.97366 -0.77215,1.22827 -0.61752,2.35257 0.0978,0.71107 0.068,1.26075 -0.0683,1.26075 -0.30667,0 -1.39546,-1.2402 -1.39546,-1.58951 0,-0.65786 -0.52307,-0.14224 -1.14277,1.12649 -0.82514,1.68934 -2.03223,4.4015 -2.03223,4.56616 0,0.066 -0.41672,0.77136 -0.92604,1.56756 -0.50932,0.7962 -0.92604,1.57241 -0.92604,1.72493 0,0.15251 -0.0908,0.27729 -0.20184,0.27729 -0.11102,0 -0.31938,0.25815 -0.46302,0.57367 -0.49882,1.09564 -2.21982,1.54189 -5.96851,1.54761 -4.71596,0.007 -8.97705,0.89405 -8.97705,1.86836 0,0.39569 -1.95223,1.56661 -2.61194,1.56661 -0.68383,0 -1.33471,0.65562 -1.34839,1.35822 -0.0109,0.55943 -1.13867,0.77528 -1.91931,0.36734 -0.52792,-0.27587 -0.7667,-0.198 -1.92557,0.62798 -0.7276,0.5186 -1.47052,1.08444 -1.65092,1.25744 -0.3789,0.36333 -1.88921,0.74229 -2.10366,0.52784 -0.21228,-0.21229 -0.87562,0.52199 -0.87562,0.96926 0,0.21086 -0.1786,0.5316 -0.39688,0.71275 -0.53976,0.44796 -0.58879,6.35 -0.0527,6.35 0.70312,0 1.76848,0.67664 1.77048,1.12448 0.003,0.59747 -0.81437,0.60264 -2.05691,0.013 -0.69566,-0.33012 -0.97653,-0.36536 -1.05422,-0.1323 -0.13123,0.39369 -1.12014,0.42391 -1.12014,0.0342 0,-0.15592 0.17859,-0.46208 0.39687,-0.68036 0.5554,-0.55539 0.5752,-6.89323 0.0239,-7.64718 -0.3445,-0.47114 -0.41015,-0.47764 -0.85989,-0.0851 -0.26781,0.23374 -0.63613,0.37094 -0.81849,0.30489 -0.2146,-0.0777 -0.30794,0.094 -0.26458,0.4867 0.12703,1.15079 -0.75113,0.88622 -1.38165,-0.41626 -0.58128,-1.20077 -0.88735,-1.44098 -1.1972,-0.93963 -0.26279,0.4252 -0.63935,0.31075 -1.36493,-0.41483 -0.66941,-0.66941 -0.68773,-0.67208 -1.24474,-0.18114 -1.22981,1.08394 -2.00628,1.38973 -3.53259,1.3912 -1.91369,0.002 -3.15839,0.34041 -4.27204,1.16204 l -0.86741,0.63996 1.68265,1.67795 c 2.4759,2.46899 3.96897,3.65006 4.62251,3.65656 0.31883,0.003 0.65328,0.12482 0.74321,0.27035 0.0899,0.14552 0.60298,0.26854 1.1401,0.27338 1.19634,0.0108 2.0427,0.67413 2.2886,1.79371 0.14601,0.66476 0.32083,0.84332 0.82566,0.84332 0.35224,0 0.64044,-0.1318 0.64044,-0.29289 0,-0.16109 0.17859,-0.22436 0.39687,-0.14059 0.21828,0.0838 0.39688,0.037 0.39688,-0.10399 0,-0.43531 0.96695,-0.28312 1.62433,0.25566 0.54054,0.44302 0.58011,0.585 0.2939,1.05474 -0.18191,0.29855 -0.33073,0.67487 -0.33073,0.83628 0,0.16142 -0.22856,0.61445 -0.5079,1.00676 l -0.5079,0.71327 0.83863,0.37024 c 0.78732,0.3476 2.823,2.27775 2.823,2.67666 0,0.3065 0.84028,0.53089 2.82923,0.7555 1.04676,0.11821 2.41597,0.45413 3.04271,0.74648 0.62673,0.29235 1.73483,0.74642 2.46243,1.00904 1.60719,0.58009 3.08225,1.35573 3.43959,1.80866 0.14552,0.18445 0.65153,0.53531 1.12448,0.77969 0.47294,0.24438 0.85989,0.5312 0.85989,0.63738 0,0.10618 0.38696,0.32683 0.8599,0.49034 0.47294,0.16351 1.54292,0.55032 2.37772,0.85958 0.8348,0.30925 2.44214,0.68453 3.57187,0.83396 2.31814,0.30661 3.71977,0.69237 4.30301,1.18429 0.21828,0.1841 1.00131,0.64739 1.74007,1.02954 0.73875,0.38214 1.59698,0.93125 1.90716,1.22023 0.31019,0.28898 0.71779,0.52483 0.90577,0.52411 0.51466,-0.002 2.97479,0.89847 3.07582,1.12579 0.0485,0.10914 0.35092,0.19844 0.67202,0.19844 0.3211,0 1.29344,0.18504 2.16076,0.4112 2.48381,0.64767 4.79993,0.59392 6.281,-0.14577 0.68493,-0.34207 1.31358,-0.5537 1.39699,-0.47029 0.22548,0.22548 -0.92967,1.23492 -2.10814,1.8422 -1.40385,0.72342 -3.90572,0.55465 -8.28509,-0.55891 -1.63611,-0.41602 -7.24243,-2.99355 -7.86472,-3.61584 -0.85369,-0.85369 -3.18201,-1.69592 -4.6883,-1.69592 -0.84295,0 -2.04105,-0.19143 -2.66246,-0.42539 -2.00751,-0.75582 -3.76278,-1.62525 -4.30484,-2.1323 -1.48174,-1.38604 -4.49172,-2.91628 -3.58332,-1.82173 0.39354,0.47419 0.78472,3.1907 0.52093,3.61753 -0.1485,0.24027 -0.52224,0.2364 -1.60824,-0.0166 -0.77813,-0.1813 -2.48634,-0.42782 -3.79603,-0.54783 -2.87538,-0.26346 -5.10487,-0.76942 -6.87917,-1.56116 -0.7276,-0.32468 -1.73963,-0.77477 -2.24896,-1.00021 -0.50932,-0.22544 -1.25967,-0.7213 -1.66744,-1.10193 -0.40777,-0.38062 -1.23849,-0.81264 -1.84604,-0.96005 -0.64352,-0.15613 -1.21896,-0.48891 -1.37848,-0.79718 -0.64747,-1.2512 -1.32567,-2.03879 -2.09264,-2.43018 -1.04939,-0.5355 -4.65706,-4.18537 -4.65706,-4.71152 0,-0.21941 -0.0893,-0.39985 -0.19844,-0.40099 -0.10914,-0.001 -0.33607,-0.29879 -0.50427,-0.66146 -0.54411,-1.1731 0.25334,-0.76776 1.6496,0.83851 1.6888,1.9428 1.955,2.20627 2.22918,2.20627 0.12532,0 0.29936,0.22532 0.38677,0.50071 0.0874,0.27539 0.52797,0.65357 0.97902,0.84041 1.07656,0.44592 2.3373,1.51917 2.3373,1.98969 0,0.20534 0.11907,0.37335 0.26459,0.37335 0.14552,0 0.26458,0.1357 0.26458,0.30156 0,0.63514 0.94937,1.00412 2.51354,0.97691 0.87313,-0.0152 1.28984,-0.0754 0.92604,-0.1338 -1.9383,-0.31116 -3.82265,-1.94506 -4.15561,-3.60329 -0.0867,-0.43187 -0.60088,-1.10587 -1.23752,-1.62226 -1.53657,-1.24632 -4.03314,-2.79828 -4.50147,-2.79828 -0.21726,0 -1.28651,-0.92085 -2.37611,-2.04633 -2.03899,-2.10613 -3.06131,-2.64313 -1.24122,-0.65199 0.56057,0.61325 0.90165,1.18766 0.75797,1.27646 -0.14368,0.0888 -0.6085,-0.23957 -1.03293,-0.7297 -0.86414,-0.99791 -3.24973,-3.60997 -6.75323,-7.39435 -3.55058,-3.83523 -6.05144,-6.57413 -7.41242,-8.11796 -0.67492,-0.7656 -1.35897,-1.3646 -1.52011,-1.33112 -0.42693,0.0887 -3.27885,-1.3211 -3.87166,-1.91391 -0.54065,-0.54065 -3.24108,-1.9847 -5.41715,-2.89682 -0.7276,-0.30498 -1.53127,-0.6694 -1.78593,-0.80981 -1.39889,-0.77133 -1.33113,-0.74028 -4.0349,-1.84921 -0.29104,-0.11937 -1.06495,-0.2904 -1.71979,-0.38005 -0.65484,-0.0897 -1.84547,-0.39026 -2.64583,-0.66799 -2.22492,-0.77206 -8.72657,-1.4666 -10.41528,-1.11261 -0.74727,0.15665 -2.10304,0.36285 -3.0128,0.45822 -0.90977,0.0954 -1.72047,0.28075 -1.80156,0.41195 -0.0811,0.1312 -0.38592,0.23855 -0.67741,0.23855 -0.48442,0 -1.74814,0.33406 -4.20129,1.11061 -0.50932,0.16122 -1.84747,0.87026 -2.97367,1.57564 -1.12619,0.70537 -2.16799,1.2825 -2.3151,1.2825 -0.14711,0 -0.26748,0.11906 -0.26748,0.26458 0,0.14552 -0.13194,0.26459 -0.29321,0.26459 -0.44372,0 -3.67554,2.64525 -3.67554,3.00844 0,0.17438 -0.34375,0.52011 -0.76389,0.76829 -0.77886,0.46008 -1.55098,1.31024 -3.53853,3.89618 -0.61516,0.80037 -1.20846,1.4949 -1.31844,1.54341 -0.10999,0.0485 -0.19997,0.23834 -0.19997,0.42186 0,0.18352 -0.29751,0.67962 -0.66114,1.10243 -0.36362,0.42282 -0.66128,0.88971 -0.66145,1.03754 -1.8e-4,0.14783 -0.49327,1.10033 -1.09576,2.11667 -1.62339,2.73849 -2.87332,5.20739 -2.87332,5.67548 0,0.22727 -0.24821,1.06637 -0.55158,1.86468 -0.30337,0.79831 -0.78149,2.10632 -1.06249,2.90668 -0.281,0.80037 -0.6281,1.66195 -0.77134,1.91464 -0.14323,0.25269 -0.26042,0.707 -0.26042,1.00958 0,0.30259 -0.10982,0.75536 -0.24405,1.00616 -0.13423,0.25081 -0.42793,1.88009 -0.65268,3.62063 -0.22475,1.74054 -0.48597,3.75993 -0.58049,4.48753 -0.0945,0.72761 -0.1795,3.64464 -0.18885,6.4823 -0.0236,7.16741 0.60658,13.43955 1.44749,14.40656 0.12022,0.13824 0.21824,0.49543 0.21782,0.79375 -7e-4,0.49802 0.26783,1.23606 1.97829,5.43719 0.38831,0.95373 0.52078,1.63756 0.3844,1.98437 -0.19543,0.49702 -0.2092,0.49233 -0.22667,-0.0772 -0.0102,-0.3335 -0.2309,-0.83425 -0.49038,-1.11277 -0.25948,-0.27852 -0.63132,-0.95815 -0.82632,-1.51029 -0.19499,-0.55214 -0.59565,-1.53968 -0.89034,-2.19452 -0.76219,-1.69367 -1.28096,-3.56934 -1.53675,-5.55625 -0.12177,-0.94589 -0.45642,-3.14854 -0.74368,-4.89479 -0.70897,-4.30985 -0.70974,-10.22214 -0.002,-14.68438 0.28854,-1.81901 0.62343,-4.27158 0.74421,-5.45015 0.2205,-2.15179 0.67931,-3.9902 1.1127,-4.45849 0.12795,-0.13825 0.23263,-0.52195 0.23263,-0.85267 0,-0.33072 0.30997,-1.28917 0.68883,-2.12989 0.98783,-2.19206 1.07251,-2.41483 1.58693,-4.17442 0.40306,-1.3787 0.81913,-2.20467 2.40681,-4.77796 0.17432,-0.28254 0.69415,-1.22808 1.15518,-2.10121 0.46103,-0.87312 1.12207,-1.96651 1.46899,-2.42974 0.34692,-0.46323 0.63076,-0.94062 0.63076,-1.06086 0,-0.12023 0.41414,-0.57466 0.92032,-1.00984 0.50618,-0.43517 0.9229,-0.92695 0.92604,-1.09284 0.007,-0.37326 2.8297,-3.27026 3.1863,-3.27026 0.14245,0 0.259,-0.13266 0.259,-0.29479 0,-0.37505 1.57469,-1.75803 3.40003,-2.98611 0.77861,-0.52384 1.4609,-0.95243 1.51621,-0.95243 0.20719,0 2.99237,-1.85586 3.13743,-2.09058 0.0831,-0.13454 0.65658,-0.3247 1.27428,-0.42255 0.6177,-0.0979 1.59934,-0.38931 2.18143,-0.64767 0.97917,-0.43462 2.21013,-0.79784 5.51445,-1.62716 1.68692,-0.42338 8.37549,-0.42149 10.22826,0.003 2.847,0.65212 4.63664,1.13397 5.08963,1.37034 0.25269,0.13185 0.69215,0.23973 0.97658,0.23973 0.28443,0 0.58079,0.10299 0.6586,0.22888 0.0778,0.12588 0.61748,0.29273 1.1993,0.37076 0.84786,0.11373 3.7377,1.40875 6.89255,3.08875 0.21828,0.11624 1.00461,0.51563 1.7474,0.88754 0.74279,0.37191 2.16042,1.2816 3.15029,2.02155 2.00701,1.50026 2.55254,1.55949 1.16964,0.12697 -1.14461,-1.18568 -7.80782,-5.66612 -8.42652,-5.66612 -0.25385,0 -1.04727,-0.29716 -1.76315,-0.66035 -0.71589,-0.3632 -1.40268,-0.66085 -1.52621,-0.66146 -0.12353,-6.1e-4 -0.65931,-0.19184 -1.19063,-0.42496 -1.94505,-0.85341 -1.7146,-0.78024 -5.46394,-1.73484 -0.58209,-0.1482 -2.66568,-0.37124 -4.63021,-0.49565 -1.96453,-0.12441 -3.98859,-0.3025 -4.49792,-0.39575 -3.72585,-0.68219 -13.59392,-0.94756 -16.80104,-0.45181 -1.01865,0.15746 -2.80458,0.43014 -3.96875,0.60596 -1.16417,0.17581 -2.59292,0.52661 -3.175,0.77954 -0.58208,0.25293 -1.35599,0.55174 -1.71979,0.66404 -0.3638,0.11229 -1.07605,0.485 -1.58277,0.82826 -0.50673,0.34326 -1.06235,0.6241 -1.23473,0.6241 -0.17237,0 -0.35309,0.0893 -0.4016,0.19844 -0.0485,0.10914 -0.80257,0.55203 -1.67569,0.9842 -0.87313,0.43217 -1.74484,0.93819 -1.93713,1.12448 -0.1923,0.18629 -0.44192,0.33872 -0.55473,0.33872 -0.1128,0 -0.61882,0.4018 -1.12449,0.8929 -0.50567,0.4911 -1.44666,1.22358 -2.09111,1.62773 -0.64444,0.40416 -1.43333,1.04415 -1.7531,1.4222 -1.63746,1.93595 -2.08883,2.397 -2.35144,2.40186 -0.35372,0.007 -1.44809,1.22909 -1.89949,2.12197 -0.18392,0.3638 -0.8109,1.25677 -1.39328,1.98438 -0.58239,0.7276 -1.2585,1.7694 -1.50246,2.3151 -0.24396,0.5457 -0.53972,0.99219 -0.65723,0.99219 -0.11752,0 -0.21367,0.24552 -0.21367,0.5456 0,0.71864 -0.793,3.12687 -1.0901,3.31049 -0.12805,0.0791 -0.23281,0.3766 -0.23281,0.66103 0,0.28443 -0.10613,0.72389 -0.23583,0.97657 -0.44812,0.87302 -1.08709,3.41952 -1.08709,4.33238 0,0.50381 -0.14883,1.06486 -0.33073,1.24679 -0.25138,0.25142 -0.33073,2.45101 -0.33073,9.16786 0,6.7169 0.0794,8.9164 0.33073,9.16776 0.1819,0.18188 0.33073,0.60983 0.33073,0.951 0,0.68169 0.71262,3.85839 1.05385,4.69781 0.65983,1.62318 1.10582,2.50889 1.33448,2.65021 0.14163,0.0875 0.2575,0.40163 0.2575,0.698 0,0.63187 0.75069,1.78753 2.12175,3.26637 0.53965,0.58209 1.20577,1.46864 1.48024,1.97012 0.27448,0.50149 1.16754,1.58459 1.98459,2.40689 0.81704,0.8223 1.59095,1.68292 1.71979,1.91248 0.21179,0.37735 1.29762,1.56678 5.48984,6.01364 0.75453,0.80036 2.60648,2.79553 4.11545,4.4337 1.50896,1.63816 3.17294,3.23922 3.69773,3.5579 0.52478,0.31869 1.01369,0.64716 1.08645,0.72994 0.0728,0.0828 0.52838,0.47602 1.01248,0.87386 0.73954,0.60775 0.79541,0.72335 0.34963,0.72335 -0.29181,0 -0.6879,-0.14912 -0.88019,-0.33137 z m 96.88474,-38.95246 c 0,-0.26799 -1.59606,-0.93284 -2.23941,-0.93284 -0.373,0 -0.88493,-0.11323 -1.13761,-0.25162 -0.25269,-0.13839 -1.14217,-0.32532 -1.97662,-0.41539 -0.83445,-0.0901 -1.58562,-0.2745 -1.66926,-0.40984 -0.0836,-0.13533 -0.72911,-0.24606 -1.43438,-0.24606 -1.77208,0 -4.27678,-1.37705 -3.64814,-2.0057 0.14252,-0.14251 1.57241,0.4305 1.78667,0.71599 0.0728,0.0969 1.20386,0.32008 2.51354,0.49585 1.30969,0.17577 3.04821,0.41123 3.86337,0.52325 1.65273,0.22712 3.37008,0.72982 3.88175,1.13626 0.25172,0.19995 0.29521,0.15917 0.17219,-0.16142 -0.16005,-0.41709 -0.81647,-0.88228 -2.79094,-1.97789 -1.70643,-0.94688 -8.72658,-1.54202 -10.36911,-0.87906 -0.40966,0.16535 -0.99126,0.30063 -1.29245,0.30063 -0.51208,0 -0.50396,0.0344 0.1251,0.52917 0.37,0.29104 0.89802,0.52917 1.17339,0.52917 0.27536,0 0.61377,0.095 0.75202,0.2112 0.82634,0.69434 6.40069,2.02193 9.63248,2.29408 0.93951,0.0791 1.82653,0.26216 1.97114,0.40678 0.2732,0.27319 0.68627,0.35592 0.68627,0.13744 z m -9.26505,-5.89377 c -0.007,-0.30857 -2.43092,-2.83287 -3.17036,-3.30195 -0.84775,-0.53778 -3.48143,-0.3561 -3.25852,0.22479 0.23018,0.59983 -0.53141,0.40508 -1.20903,-0.30917 -0.3471,-0.36587 -0.68612,-0.61018 -0.75339,-0.54292 -0.18878,0.18879 0.76825,1.74289 1.6203,2.63116 0.69026,0.7196 0.93141,0.79934 2.46867,0.81628 1.3319,0.0147 1.77758,-0.0823 2.0423,-0.44424 0.18625,-0.25466 0.4148,-0.46302 0.5079,-0.46302 0.29312,0 0.18362,0.93815 -0.14823,1.27 -0.24695,0.24695 -0.0706,0.3175 0.79375,0.3175 0.61118,0 1.10916,-0.0893 1.10661,-0.19843 z m 1.78506,0.0386 c -0.0879,-0.0879 -0.31612,-0.0973 -0.50712,-0.0209 -0.21106,0.0845 -0.14837,0.14716 0.15986,0.15985 0.27891,0.0115 0.43518,-0.051 0.34726,-0.13896 z M 572.90513,578.48 c 0.71813,-0.82592 0.96054,-1.6315 0.65516,-2.17718 -0.21303,-0.38068 -0.32715,-0.3287 -0.85964,0.39153 -0.3377,0.45676 -0.81515,0.83048 -1.06101,0.83048 -0.24586,0 -0.57384,0.15282 -0.72886,0.3396 -0.45729,0.551 -0.0372,0.94616 1.29382,1.21721 0.0829,0.0169 0.39813,-0.25386 0.70053,-0.60164 z m -5.59902,-1.03134 c -0.23811,-0.46743 -0.72846,-1.32612 -1.08967,-1.90821 -0.3612,-0.58208 -0.77997,-1.29645 -0.9306,-1.5875 -0.15062,-0.29104 -0.77303,-0.88384 -1.38312,-1.31733 -1.66349,-1.18198 -3.35822,-2.80406 -3.35822,-3.21428 0,-0.19975 -0.0893,-0.36346 -0.19844,-0.3638 -0.10914,-3.4e-4 -0.61515,-0.35725 -1.12448,-0.79313 -0.50932,-0.43588 -1.08571,-0.79279 -1.28085,-0.79313 -0.19515,-3.4e-4 -0.84166,0.4161 -1.43669,0.92542 -0.59503,0.50933 -1.1795,0.92605 -1.29883,0.92605 -0.44408,0 -0.19282,0.59401 0.57679,1.36362 0.53749,0.53749 0.79375,0.66409 0.79375,0.39213 0,-0.22088 -0.11386,-0.47198 -0.25303,-0.55799 -0.13916,-0.086 -0.18622,-0.33047 -0.10457,-0.54326 0.20251,-0.52772 0.52602,-0.27567 1.04212,0.81194 0.23876,0.50314 0.60345,0.91481 0.81043,0.91481 0.20698,0 1.2722,0.89296 2.36715,1.98437 1.09496,1.09141 2.14859,1.98438 2.34141,1.98438 0.73476,0 4.63142,2.50764 4.66529,3.00229 0.0133,0.19359 0.0709,0.18053 0.15769,-0.0358 0.0752,-0.18741 -0.058,-0.72319 -0.29613,-1.19062 z m 1.71111,0.19254 c 0.14165,-0.37256 0.36333,-0.61199 0.49264,-0.53208 0.1293,0.0799 0.38223,-0.032 0.56206,-0.24866 0.27458,-0.33086 0.222,-0.39396 -0.32826,-0.39396 -0.6648,0 -1.86876,-0.91476 -2.11348,-1.6058 -0.0737,-0.20822 -0.21946,-0.29956 -0.32384,-0.20298 -0.10437,0.0966 0.11745,0.72588 0.49295,1.39845 0.37549,0.67257 0.68271,1.45675 0.68271,1.74263 0,0.71748 0.22804,0.65033 0.53522,-0.1576 z m 12.54839,-14.42262 c 0.66214,-0.44687 1.20389,-0.83695 1.20389,-0.86685 0,-0.15165 -2.30918,0.0161 -2.58724,0.18793 -0.37911,0.2343 -0.43969,1.49142 -0.0719,1.49142 0.13823,0 0.79307,-0.36562 1.45521,-0.8125 z m 7.1204,-3.28854 c 0.0838,-0.21828 0.0497,-0.39688 -0.0757,-0.39688 -0.12539,0 -0.29651,0.1786 -0.38027,0.39688 -0.0838,0.21828 -0.0497,0.39687 0.0757,0.39687 0.12538,0 0.2965,-0.17859 0.38026,-0.39687 z M 618.6349,535.6573 c 0.58998,-0.3694 1.30435,-0.73058 1.5875,-0.80261 0.28314,-0.072 0.0311,-0.14479 -0.56017,-0.16167 -0.85551,-0.0244 -1.22013,0.12081 -1.78594,0.71139 -0.39103,0.40815 -0.70913,0.91416 -0.70691,1.12448 0.003,0.25113 0.0708,0.28244 0.19844,0.0912 0.10691,-0.16015 0.6771,-0.59341 1.26708,-0.96281 z m 11.9393,87.42824 c -0.30892,-0.34134 -0.69971,-0.44547 -1.37573,-0.36655 -1.05536,0.12321 -1.97897,-0.48856 -1.97897,-1.3108 0,-0.65508 1.33672,-2.551 1.94486,-2.75846 0.90517,-0.3088 1.13051,0.34343 0.39406,1.14054 -0.89165,0.96509 -1.08658,1.5717 -0.56889,1.77035 0.43709,0.16773 0.80633,-0.0588 2.0204,-1.23944 0.4115,-0.40018 0.8581,-0.7276 0.99242,-0.7276 0.377,0 0.28893,0.8981 -0.14423,1.47078 -0.6001,0.79341 -0.51374,1.27073 0.19003,1.05035 0.32742,-0.10252 0.87194,-0.17655 1.21005,-0.1645 0.70379,0.0251 2.42797,-1.18822 2.42797,-1.70856 0,-0.5209 1.43744,-1.44182 2.25051,-1.44182 h 0.71361 l -0.17683,-1.78594 c -0.17279,-1.74522 -0.15531,-1.81608 0.7669,-3.10801 0.51905,-0.72713 0.94055,-1.6201 0.93668,-1.98437 l -0.007,-0.66231 -0.45111,0.72761 c -0.42631,0.68759 -1.12231,0.99661 -1.12231,0.4983 0,-0.12611 0.22274,-0.81072 0.49497,-1.52135 0.27223,-0.71063 0.63579,-1.88737 0.8079,-2.61497 0.37313,-1.57735 0.95814,-2.34101 1.23688,-1.61461 0.0979,0.25504 0.0427,0.91507 -0.12257,1.46673 -0.52203,1.74238 -0.33815,2.43293 0.25074,0.94163 0.28732,-0.72761 0.74987,-1.79917 1.0279,-2.38125 0.27803,-0.58209 0.58798,-1.47505 0.68877,-1.98438 0.1008,-0.50932 0.56132,-1.52135 1.0234,-2.24896 0.46207,-0.7276 1.11644,-1.89805 1.45416,-2.601 0.33772,-0.70296 0.77736,-1.34077 0.97699,-1.41737 0.19962,-0.0766 0.36295,-0.43597 0.36295,-0.79859 0,-0.7493 0.65448,-2.27932 1.38595,-3.23999 0.27162,-0.35674 0.84481,-1.40685 1.27375,-2.33357 0.82742,-1.78766 1.01758,-3.87778 0.53987,-5.9341 -0.14491,-0.62375 -0.0967,-1.96739 0.13287,-3.70417 0.19814,-1.49895 0.36466,-2.7849 0.37004,-2.85766 0.005,-0.0728 0.1252,0.0463 0.26627,0.26458 0.14551,0.22516 0.25823,2.92256 0.26053,6.23434 0.004,5.75659 -0.006,5.85739 -0.6881,7.27604 -0.38068,0.79122 -0.78449,1.49811 -0.89735,1.57087 -0.24824,0.16004 -2.2452,4.12446 -2.49892,4.96094 -0.17806,0.58703 -0.14703,0.59531 2.23165,0.59531 1.71556,0 2.65389,-0.12498 3.24904,-0.43274 0.93308,-0.48251 2.3119,-1.77095 2.3119,-2.16034 0,-0.1389 0.167,-0.39114 0.37111,-0.56054 0.66199,-0.5494 1.74555,-3.18331 1.74555,-4.24305 0,-0.57385 -0.1798,-1.21201 -0.40492,-1.43712 -0.43256,-0.43256 -1.2439,-3.22167 -2.24068,-7.70267 -0.36663,-1.64816 -0.91358,-3.32211 -1.54166,-4.71829 -0.31638,-0.70329 -0.57524,-1.46323 -0.57524,-1.68876 0,-0.22552 -0.25934,-0.63497 -0.57631,-0.90988 -0.44907,-0.38948 -0.50603,-0.57011 -0.25798,-0.81816 0.24805,-0.24805 0.43291,-0.24677 0.83731,0.006 0.28543,0.17826 0.75168,0.3241 1.03611,0.3241 0.28443,0 0.58106,0.10343 0.65919,0.22983 0.0781,0.12641 0.65069,0.31115 1.27238,0.41055 1.52146,0.24324 3.3793,1.35192 3.3793,2.01661 0,0.28491 0.16073,0.51801 0.35718,0.51801 0.19645,0 0.85026,0.35719 1.45292,0.79375 0.60265,0.43657 1.26945,0.79375 1.48176,0.79375 0.21231,0 0.50737,0.20836 0.6557,0.46302 0.24085,0.41351 0.27055,0.39937 0.27773,-0.13229 0.004,-0.32742 0.16283,-0.59531 0.352,-0.59531 0.65112,0 0.97896,0.63796 0.97896,1.905 0,0.99805 0.0924,1.27 0.43172,1.27 0.63447,0 0.3363,-1.74881 -0.53293,-3.12578 -0.3809,-0.60337 -0.69254,-1.27438 -0.69254,-1.49112 0,-0.21675 -0.22389,-0.79272 -0.49754,-1.27993 -0.27365,-0.48721 -0.58538,-1.28571 -0.69272,-1.77444 -0.21608,-0.98381 -1.26795,-3.01792 -1.98474,-3.83811 -0.94857,-1.08539 -1.89095,-3.16597 -2.02557,-4.47202 -0.14192,-1.37679 -0.47624,-2.78355 -0.88648,-3.73006 -0.12614,-0.29104 -0.36221,-1.24354 -0.52458,-2.11667 -0.44589,-2.39761 -0.72731,-3.78215 -1.18316,-5.82083 -0.52521,-2.34886 -0.87331,-4.11062 -1.17626,-5.95312 -0.29949,-1.8215 -0.79429,-3.9367 -1.08311,-4.63021 -0.31793,-0.76339 -0.79375,-2.91494 -0.79375,-3.58915 0,-0.48261 0.0647,-0.52296 0.39687,-0.24731 0.21828,0.18116 0.39688,0.49501 0.39688,0.69744 0,0.20244 0.1031,0.57482 0.22911,0.8275 0.5931,1.18929 1.32672,3.67275 1.62073,5.48652 0.11795,0.7276 0.41133,2.03729 0.65197,2.91041 0.58106,2.10829 0.80489,3.03726 1.33879,5.55625 0.24674,1.16417 0.54977,2.53339 0.67341,3.04271 0.325,1.33879 0.44329,1.95849 0.90912,4.7625 0.22967,1.38245 0.5447,2.8112 0.70008,3.175 0.77114,1.80559 1.19717,2.6126 1.95546,3.70417 0.83759,1.20571 1.27371,2.18445 1.56215,3.50573 0.0874,0.40018 0.27564,0.7276 0.41838,0.7276 0.14275,0 0.25955,0.2311 0.25955,0.51355 0,0.28246 0.10556,0.5788 0.23459,0.65854 0.12902,0.0797 0.31455,0.57121 0.41227,1.09215 0.0977,0.52094 0.46842,1.46791 0.82375,2.10436 0.92235,1.65209 0.87821,3.10298 -0.11595,3.81088 l -0.762,0.54259 -1.07999,-0.59072 c -0.59399,-0.3249 -1.11429,-0.81669 -1.15622,-1.09287 -0.0419,-0.27618 -0.31437,-0.63337 -0.60541,-0.79375 -0.29104,-0.16038 -1.24618,-1.02266 -2.12253,-1.91617 -1.51306,-1.54269 -2.75681,-2.20583 -4.14571,-2.21042 -0.24607,-8.1e-4 -0.52099,-0.12053 -0.61093,-0.26605 -0.0899,-0.14552 -0.41843,-0.26459 -0.72999,-0.26459 -0.44059,0 -0.49591,0.0706 -0.24897,0.3175 0.17463,0.17463 0.3175,0.53182 0.3175,0.79375 0,0.26194 0.10536,0.47625 0.23413,0.47625 0.25531,0 1.08879,2.3401 1.08879,3.05691 0,0.24417 0.19133,1.05524 0.42517,1.80237 0.82846,2.64693 0.89775,3.00019 0.89775,4.57735 0,1.25981 0.11132,1.6946 0.53113,2.07453 0.71889,0.65058 1.32095,1.91194 1.32095,2.76748 0,0.38697 -0.29766,1.32059 -0.66146,2.07471 -0.3638,0.75413 -0.66146,1.49079 -0.66146,1.63702 0,0.14624 -0.11906,0.26588 -0.26458,0.26588 -0.14552,0 -0.26458,0.16995 -0.26458,0.37767 0,0.20772 -0.29766,0.61181 -0.66146,0.89798 -0.3638,0.28617 -0.66146,0.64594 -0.66146,0.79949 0,0.36203 -1.48671,1.45274 -2.55108,1.87158 -0.87559,0.34455 -4.75774,0.27928 -5.84944,-0.0983 -0.39799,-0.13766 -0.59531,-0.10214 -0.59531,0.10718 0,0.1722 -0.28082,0.6921 -0.62404,1.15534 -0.68189,0.92032 -1.70154,3.0412 -2.40708,5.00669 -0.24758,0.68972 -0.55983,1.32182 -0.69389,1.40468 -0.13406,0.0829 -0.24374,0.38547 -0.24374,0.6725 0,0.28702 -0.1786,0.59038 -0.39688,0.67415 -0.27229,0.10448 -0.39687,0.53009 -0.39687,1.35578 0,0.88928 -0.18011,1.43962 -0.68985,2.10793 -0.6172,0.80919 -0.68663,1.12448 -0.65932,2.99403 0.0289,1.9799 -0.006,2.11354 -0.66527,2.5455 -0.38268,0.25075 -1.09055,0.44471 -1.57304,0.43104 -0.75383,-0.0214 -0.91776,0.0913 -1.16511,0.80086 -0.48191,1.38241 -1.5521,2.29595 -2.68963,2.29595 -0.54627,0 -1.06681,0.11907 -1.15674,0.26459 -0.26954,0.43611 -1.60664,0.29899 -2.06926,-0.21221 z m -5.20678,-1.30015 c -0.50933,-0.0576 -1.04511,-0.24692 -1.19063,-0.42068 -0.14552,-0.17376 -0.60646,-0.34032 -1.02431,-0.37013 -0.83155,-0.0593 -1.75381,-0.74806 -1.75381,-1.30972 0,-0.19572 -0.11907,-0.35586 -0.26459,-0.35586 -0.44656,0 -0.29308,-1.48035 0.19844,-1.91393 0.25466,-0.22463 0.87131,-0.49536 1.37033,-0.60161 0.50939,-0.10845 1.27735,-0.58552 1.75104,-1.08778 0.46404,-0.49203 1.04038,-0.8946 1.28075,-0.8946 0.69291,0 2.24225,-1.12929 4.51467,-3.29069 1.15708,-1.10054 2.18773,-2.00098 2.29034,-2.00098 0.10261,0 0.13197,-0.20874 0.0652,-0.46387 -0.25176,-0.96273 0.65744,-2.43274 1.86861,-3.02117 0.92609,-0.44993 1.1831,-0.72825 1.29196,-1.39908 0.0747,-0.46058 0.37632,-1.36578 0.67017,-2.01155 0.29386,-0.64576 0.61636,-1.7099 0.71667,-2.36474 0.10032,-0.65485 0.25717,-1.30969 0.34855,-1.45521 0.33199,-0.52866 0.80807,-2.67083 0.81946,-3.68726 0.0129,-1.15326 0.68816,-4.25678 1.08225,-4.97426 0.42254,-0.76929 0.29051,-1.29034 -0.61418,-2.42373 -0.47659,-0.59707 -1.10167,-1.55983 -1.38906,-2.13946 -0.2874,-0.57963 -0.79043,-1.27288 -1.11785,-1.54056 -0.32742,-0.26767 -0.59531,-0.72114 -0.59531,-1.00771 0,-1.06393 -1.93871,-2.44517 -4.27197,-3.04359 -1.27642,-0.32736 -2.46147,-0.40122 -4.9223,-0.30676 -1.78263,0.0684 -3.24115,0.0527 -3.24115,-0.035 0,-0.43184 3.10205,-1.34326 4.57919,-1.34543 1.03694,-0.002 3.08505,0.40249 4.01977,0.79294 0.29104,0.12157 0.91963,0.28794 1.39686,0.36972 1.18368,0.20282 2.57364,1.37043 3.1482,2.64459 0.26199,0.58099 0.74551,1.32551 1.0745,1.65449 0.32898,0.32899 0.59815,0.78216 0.59815,1.00705 0,0.2249 0.10517,0.40891 0.23372,0.40891 0.12855,0 0.31017,0.20836 0.40359,0.46302 0.0934,0.25466 0.39447,0.9988 0.66898,1.65364 0.48157,1.1488 0.50778,1.16788 0.74602,0.54315 0.23567,-0.61798 0.13724,-1.15958 -0.75125,-4.13381 -0.1335,-0.44689 -0.24298,-1.16127 -0.24329,-1.5875 -5.6e-4,-0.78172 -1.82349,-4.62118 -2.52908,-5.32677 -0.20943,-0.20943 -0.38078,-0.55087 -0.38078,-0.75876 0,-0.68732 -3.10542,-0.47869 -4.36562,0.2933 -0.58209,0.35657 -1.29646,0.75577 -1.5875,0.8871 -0.67864,0.30624 -3.52692,0.82265 -5.51173,0.99931 -1.49889,0.13341 -1.54047,0.11962 -1.45521,-0.48257 0.077,-0.54377 0.29799,-0.6524 1.79948,-0.88449 1.58505,-0.245 1.66336,-0.28773 1.05834,-0.5774 l -0.65338,-0.31283 0.79375,-0.002 c 0.43656,-0.001 1.38906,0.10229 2.11666,0.22993 1.26566,0.22201 1.38591,0.18876 2.77813,-0.76814 1.33526,-0.91776 1.648,-1.0136 3.7941,-1.16268 1.84496,-0.12816 2.58531,-0.30688 3.50573,-0.84629 0.64176,-0.37609 1.16684,-0.79785 1.16684,-0.93724 0,-0.13938 0.18303,-0.25343 0.40674,-0.25343 0.55725,0 2.76826,-2.31806 2.76826,-2.9023 0,-0.25987 0.1865,-0.62727 0.41444,-0.81645 0.22795,-0.18918 0.93597,-1.12649 1.57338,-2.08292 0.63741,-0.95642 1.47507,-2.09614 1.86147,-2.5327 l 0.70254,-0.79375 -0.1433,0.81322 c -0.0788,0.44727 -0.7347,1.76676 -1.45753,2.93219 l -1.31422,2.11896 1.23213,1.33241 c 0.67767,0.73282 1.48858,1.41203 1.80202,1.50934 0.54807,0.17017 0.57723,0.079 0.76167,-2.38106 0.20498,-2.73414 0.0332,-5.37296 -0.40274,-6.18757 -0.14705,-0.27477 -0.26736,-0.96589 -0.26736,-1.53582 0,-1.57153 -0.92261,-4.29021 -1.45592,-4.29021 -0.42909,0 -1.79679,-1.39778 -2.27501,-2.32505 -1.17937,-2.28682 -2.16955,-2.23952 -3.3192,0.15854 -0.46006,0.95965 -1.06113,1.76098 -1.53839,2.05093 -0.98311,0.59727 -2.12666,1.758 -2.65991,2.69987 -1.08766,1.9211 -1.43417,2.32714 -2.78117,3.2589 -0.79669,0.5511 -2.1629,1.36033 -3.03603,1.79828 -1.78331,0.8945 -2.46894,1.69653 -1.96717,2.30113 0.1717,0.20688 0.45245,0.37615 0.6239,0.37615 0.43169,0 1.73556,0.62384 1.73808,0.83158 0.004,0.34806 -0.73006,0.4312 -1.86812,0.21153 -0.64489,-0.12447 -2.15479,-0.2315 -3.35533,-0.23784 l -2.18282,-0.0115 -4.8e-4,1.38906 -4.7e-4,1.38906 4.43224,-0.14801 c 2.43774,-0.0814 4.51635,-0.10736 4.61914,-0.0577 0.10278,0.0497 0.1261,0.24874 0.0518,0.44234 -0.27996,0.72956 -5.89,1.2267 -8.08545,0.71649 l -0.96758,-0.22486 -0.1501,1.09107 c -0.0826,0.60009 -0.27086,2.63888 -0.41847,4.53065 -0.30869,3.95645 -0.79297,7.96502 -1.34251,11.1125 -0.12704,0.72761 -0.30097,1.73964 -0.38651,2.24896 -0.64969,3.86853 -0.74518,4.25602 -0.9888,4.0124 -0.14487,-0.14487 -0.18961,-0.82559 -0.10124,-1.54067 0.0871,-0.70461 0.34121,-3.12657 0.56474,-5.38215 0.22353,-2.25557 0.52526,-5.23213 0.67051,-6.61458 0.85474,-8.1351 1.01408,-14.29323 0.38338,-14.81667 -0.21828,-0.18115 -0.39687,-0.50407 -0.39687,-0.71759 0,-0.65087 -1.12925,-1.38091 -2.15054,-1.39027 -0.68879,-0.006 -1.06892,-0.17297 -1.34582,-0.59 l -0.3859,-0.58119 -0.65491,0.64652 c -0.62282,0.61485 -0.63466,0.68262 -0.24168,1.38347 0.39482,0.70412 0.38376,0.75987 -0.24824,1.2517 -0.88751,0.69068 -1.75936,0.66499 -2.14914,-0.0633 -0.17363,-0.32442 -0.47547,-0.74965 -0.67077,-0.94494 -0.29706,-0.29707 -0.35509,-0.2897 -0.35509,0.0451 0,0.22008 0.11907,0.47374 0.26459,0.56368 0.14552,0.0899 0.26458,0.44002 0.26458,0.77796 0,0.40068 0.34517,0.8746 0.99219,1.36227 1.35298,1.01976 2.44739,2.20489 2.44739,2.65025 0,0.58476 -0.39455,0.43784 -1.49214,-0.55559 -0.56177,-0.50847 -1.40754,-1.19308 -1.87949,-1.52135 -0.47195,-0.32828 -0.8589,-0.74732 -0.85989,-0.9312 -10e-4,-0.18387 -0.10634,-0.54106 -0.23409,-0.79375 -0.12776,-0.25268 -0.41624,-0.8907 -0.64107,-1.41782 -0.40036,-0.93866 -0.39509,-0.96572 0.25597,-1.31416 0.56675,-0.30331 0.76933,-0.29574 1.37414,0.0514 0.66786,0.3833 0.74004,0.37133 1.23308,-0.20446 0.28804,-0.33638 0.65178,-0.61283 0.80831,-0.61433 0.15653,-10e-4 0.56424,-0.30039 0.90602,-0.66419 0.75596,-0.80469 1.09158,-0.82646 1.73754,-0.11268 0.32754,0.36193 0.71233,0.50754 1.13014,0.42768 0.38784,-0.0741 0.81664,0.062 1.10575,0.35114 0.25973,0.25973 0.71603,0.54962 1.014,0.64419 0.29796,0.0946 0.62299,0.43374 0.72229,0.75372 0.0993,0.31998 0.40765,0.90429 0.68524,1.29847 0.48678,0.69125 0.56748,0.71083 2.27343,0.55153 1.33612,-0.12477 1.88154,-0.30007 2.22991,-0.71669 0.25365,-0.30334 0.46514,-0.65663 0.46998,-0.78508 0.0112,-0.29782 1.06804,-1.22166 1.3975,-1.22166 0.13717,0 0.56544,-0.2211 0.95171,-0.49134 1.09873,-0.76869 3.20111,-1.88933 3.55596,-1.89544 0.17673,-0.003 0.73806,-0.90257 1.24738,-1.99894 1.0389,-2.23634 1.23451,-2.46082 2.90289,-3.33136 0.90406,-0.47173 1.27847,-0.8693 1.5875,-1.68571 0.22242,-0.58762 0.88774,-1.83777 1.47848,-2.77811 1.15463,-1.83793 1.96863,-3.46398 1.96863,-3.93252 0,-0.15991 0.1,-0.29074 0.22211,-0.29074 0.12217,0 0.34424,-0.26805 0.49351,-0.59565 0.14927,-0.32761 0.88276,-1.32731 1.62997,-2.22156 0.74722,-0.89424 1.35858,-1.79034 1.35858,-1.99131 0,-0.62249 0.79763,-1.54148 1.33792,-1.54148 0.65408,0 0.65045,0.29105 -0.0132,1.0562 -0.29003,0.3344 -0.6381,1.00921 -0.77349,1.49957 -0.1354,0.49036 -0.55474,1.27677 -0.93188,1.74758 -1.80995,2.2595 -1.86211,2.43814 -1.4612,5.00425 0.18919,1.21097 0.42734,2.32083 0.52923,2.46635 0.10188,0.14552 0.26845,0.72573 0.37014,1.28935 0.20669,1.1456 0.66857,2.01627 1.07223,2.02122 0.74855,0.009 1.74514,2.43177 2.12108,5.1561 0.12244,0.88734 0.47887,1.72661 1.08251,2.54899 0.49497,0.67434 0.89995,1.32136 0.89995,1.43782 0,0.40362 1.08664,2.45418 1.46845,2.77105 0.62851,0.52162 0.48525,2.38365 -0.24909,3.23749 -0.65721,0.76417 -1.04774,1.61729 -1.35922,2.96923 l -0.18288,0.79375 -0.391,-0.80753 c -0.75172,-1.55252 -3.83343,-2.20967 -5.85768,-1.2491 -0.52957,0.25129 -1.36714,0.8732 -1.86126,1.38201 l -0.89841,0.92512 0.14875,2.256 c 0.0818,1.2408 0.25503,2.53973 0.38493,2.88651 0.12989,0.34678 0.15709,1.15159 0.0604,1.78847 -0.34691,2.28593 -0.89207,1.79795 -1.15529,-1.03411 -0.0958,-1.03107 -0.30166,-2.02822 -0.45741,-2.21588 -0.41924,-0.50515 -0.44945,-4.38796 -0.0352,-4.52646 0.1819,-0.0608 0.33073,-0.27925 0.33073,-0.48541 0,-0.20615 0.0976,-0.37482 0.21696,-0.37482 0.11933,0 0.68488,-0.39793 1.25677,-0.88429 0.5719,-0.48636 1.36724,-0.96488 1.76742,-1.06338 0.87731,-0.21593 0.88647,-0.3484 0.0913,-1.32047 l -0.61725,-0.7546 -0.49771,1.00095 c -0.27374,0.55052 -0.72538,1.12821 -1.00366,1.28376 -0.27827,0.15555 -0.70686,0.46141 -0.95242,0.67969 -1.30406,1.15919 -2.22432,1.72968 -3.83054,2.37464 l -0.79101,0.31762 0.72486,0.52802 c 0.39867,0.29042 0.72486,0.68677 0.72486,0.88078 0,0.19402 0.0893,0.39245 0.19843,0.44096 0.41855,0.18602 1.65384,2.84164 1.65763,3.56358 0.002,0.41687 0.17556,1.23419 0.38526,1.81628 0.20971,0.58208 0.38922,1.59411 0.39892,2.24896 l 0.0176,1.19062 0.4239,-0.85989 c 0.53415,-1.08357 0.88697,-1.09947 0.88697,-0.04 0,0.73578 -0.39685,1.91517 -1.08058,3.2114 -0.13329,0.25268 -0.22853,0.72893 -0.21165,1.05833 0.0278,0.54159 0.0435,0.54826 0.1641,0.0697 0.0734,-0.29104 0.29769,-0.76401 0.49847,-1.05105 0.20079,-0.28705 0.36507,-0.73353 0.36507,-0.99219 0,-0.25866 0.10462,-0.4703 0.23249,-0.4703 0.40675,0 0.79376,-1.39119 0.9763,-3.50954 0.0974,-1.12989 0.28193,-2.11918 0.41016,-2.19843 0.12822,-0.0793 0.23314,-0.49425 0.23314,-0.92223 0,-0.49494 0.13641,-0.77813 0.37482,-0.77813 0.65454,0 0.65411,0.12084 -0.0163,4.56572 -0.0824,0.54662 -0.25637,1.05966 -0.38652,1.14009 -0.13015,0.0804 -0.23664,0.48929 -0.23664,0.90857 0,0.41927 -0.35718,1.45076 -0.79375,2.29219 -0.43656,0.84143 -0.79639,1.65223 -0.79963,1.80176 -0.003,0.14953 -0.23871,0.56953 -0.52328,0.93334 -0.28457,0.3638 -0.52005,0.86981 -0.52329,1.12448 -0.0117,0.92044 -0.53606,0.43821 -0.57539,-0.52917 -0.043,-1.05822 -0.18268,-0.23578 -0.73003,4.29948 -0.28657,2.37453 -0.78147,4.27203 -1.59227,6.10497 -0.30127,0.68108 -0.54777,1.39187 -0.54777,1.57953 0,0.18766 -0.0893,0.38088 -0.19844,0.42939 -0.10914,0.0485 -0.40487,0.53468 -0.65718,1.08038 -0.30828,0.66676 -0.6337,0.99219 -0.99219,0.99219 -0.29339,0 -0.53344,0.11906 -0.53344,0.26458 0,0.14552 -0.16503,0.26458 -0.36673,0.26458 -0.31613,0 -1.22077,1.46482 -1.22077,1.97669 0,1.00059 -5.16884,6.3449 -6.71757,6.94562 -2.03894,0.79086 -2.44169,1.55997 -0.65919,1.25882 0.85718,-0.14482 1.06458,-0.10741 0.9713,0.17518 -0.0652,0.19762 -0.36441,0.48303 -0.66482,0.63423 -1.1054,0.55637 -1.39671,0.97187 -1.36036,1.9403 0.0232,0.6176 0.0769,0.74734 0.15077,0.3639 0.0631,-0.32775 0.37431,-0.73281 0.69157,-0.90015 0.31726,-0.16733 0.83904,-0.58379 1.15952,-0.92546 0.32047,-0.34166 0.76695,-0.62121 0.99218,-0.62121 0.66732,0 0.46832,0.89773 -0.39466,1.78041 -0.63277,0.64721 -0.76764,0.96808 -0.63278,1.50543 0.12336,0.49151 0.0707,0.67104 -0.18801,0.64057 -0.19768,-0.0233 -0.77613,-0.0895 -1.28545,-0.1471 z m -1.98342,-1.92567 c -0.0894,-0.14466 0.15583,-0.68045 0.54496,-1.19062 0.67302,-0.88238 0.68102,-0.9276 0.16417,-0.9276 -0.92627,0 -1.90071,0.49463 -1.90071,0.9648 0,0.48856 0.73038,1.41645 1.11495,1.41645 0.13156,0 0.16604,-0.11837 0.0766,-0.26303 z m 28.17717,-49.97312 c 0,-0.5912 -0.16869,-1.16822 -0.39688,-1.3576 -0.21828,-0.18116 -0.39687,-0.4934 -0.39687,-0.69386 0,-0.20046 -0.11907,-0.36448 -0.26459,-0.36448 -0.14552,0 -0.26458,-0.35016 -0.26458,-0.77813 0,-1.51118 -0.48565,-1.05481 -0.61516,0.57808 -0.0722,0.91039 -0.25828,2.36964 -0.41349,3.24276 -0.26158,1.47153 -0.24186,1.62131 0.2699,2.05024 0.53758,0.45057 0.5722,0.43498 1.31688,-0.59302 0.53102,-0.73305 0.76479,-1.37005 0.76479,-2.08399 z m -36.05528,-4.73104 c -0.10547,-0.44097 -0.12035,-0.44097 -0.31229,0 -0.11085,0.25466 -0.11085,0.67138 0,0.92604 0.19194,0.44097 0.20682,0.44097 0.31229,0 0.0609,-0.25466 0.0609,-0.67138 0,-0.92604 z m 28.43528,-12.2899 c -0.17463,-0.17462 -0.32824,-0.91876 -0.34137,-1.65364 -0.0226,-1.26733 -0.0365,-1.29253 -0.26877,-0.48928 -0.1347,0.46578 -0.36209,0.91929 -0.5053,1.0078 -0.44408,0.27446 -0.28779,0.78441 0.33492,1.09281 0.81707,0.40467 1.16155,0.42334 0.78052,0.0423 z m -32.74003,36.60638 c -0.73369,-0.38633 -1.67248,-0.97031 -2.0862,-1.29773 -0.41372,-0.32742 -0.92067,-0.59531 -1.12655,-0.59531 -0.53293,0 -1.80483,-0.69397 -2.54806,-1.39026 -1.06133,-0.99429 -1.86007,-1.55888 -2.75139,-1.94483 -0.4677,-0.20251 -0.96916,-0.5902 -1.11437,-0.86152 -0.2391,-0.44677 -0.62292,-0.65496 -2.26861,-1.23053 -0.52089,-0.18219 -0.52038,-0.18918 0.0331,-0.44737 0.57083,-0.26628 1.31277,-1.3914 2.10194,-3.18747 0.23977,-0.54571 0.54208,-0.99219 0.6718,-0.99219 0.12972,0 0.23586,-0.13945 0.23586,-0.3099 0,-0.17044 0.20836,-0.54495 0.46302,-0.83225 0.44666,-0.50389 0.44372,-0.51224 -0.083,-0.23632 -0.34977,0.18321 -0.9204,0.2056 -1.5875,0.0623 -1.67621,-0.3601 -4.87898,-0.46157 -4.63276,-0.14677 0.11715,0.14978 0.27664,0.56998 0.35441,0.93378 0.0778,0.3638 0.33188,1.35188 0.56468,2.19572 0.50783,1.84083 0.50433,1.77384 0.0925,1.76976 -0.78073,-0.008 -1.83212,-2.70183 -1.90895,-4.89152 -0.0197,-0.56283 -0.8613,-0.90956 -2.2272,-0.91763 -1.56924,-0.009 -2.41229,-0.61661 -2.41229,-1.73783 0,-0.63973 -0.58994,-0.90657 -2.01812,-0.9128 -1.06896,-0.005 -1.5657,-0.56263 -1.16593,-1.30962 0.23117,-0.43194 0.21412,-0.54608 -0.0815,-0.54608 -0.20559,0 -0.50999,-0.16411 -0.67646,-0.36469 -0.40438,-0.48725 0.0714,-1.75197 0.65906,-1.75197 0.32734,0 0.38994,-0.1466 0.25419,-0.59532 -0.37379,-1.23563 -0.30197,-1.37943 0.82586,-1.65361 0.6074,-0.14766 1.19279,-0.35691 1.30087,-0.46498 0.10808,-0.10808 1.45659,-0.20178 2.99668,-0.20822 l 2.80017,-0.0117 -0.99187,-0.5836 c -1.07545,-0.63277 -1.48494,-1.38761 -1.01028,-1.86227 0.4237,-0.42371 4.00423,-0.23087 4.53653,0.24432 0.22974,0.20509 0.80311,0.3729 1.27416,0.3729 1.00015,0 1.8021,0.36736 2.54146,1.16423 0.78476,0.84579 2.67881,2.27535 3.01464,2.27535 0.5384,0 0.36648,-4.37068 -0.21964,-5.58381 -0.44314,-0.9172 -0.4586,-1.08094 -0.11451,-1.21298 0.63756,-0.24465 0.97056,0.32244 1.2305,2.0955 0.31273,2.1331 0.31108,2.76643 -0.0103,3.95143 -0.31463,1.16013 -0.11264,1.26111 2.58161,1.29066 2.30569,0.0253 3.76649,0.30763 3.91626,0.75695 0.10374,0.31121 -0.4982,0.33958 -3.79974,0.17907 -4.40909,-0.21436 -4.54511,-0.26599 -6.78459,-2.57522 -1.12278,-1.15774 -1.35962,-1.28285 -2.4285,-1.28285 -0.70001,0 -1.3467,-0.16231 -1.58126,-0.39688 -0.2569,-0.2569 -0.89345,-0.39293 -1.80484,-0.38569 l -1.40796,0.0112 1.55471,0.64555 c 2.00361,0.83196 2.38293,1.14032 1.98803,1.61614 -0.22991,0.27703 -1.26883,0.36374 -4.43503,0.37019 -3.05143,0.006 -4.25815,0.10199 -4.60559,0.36558 -0.37818,0.28691 -0.39784,0.38517 -0.0999,0.49949 0.38986,0.1496 3.77113,-0.0178 4.34392,-0.21504 0.69698,-0.24003 1.91534,0.19375 1.91534,0.68193 0,0.82779 0.0593,0.81476 -5.42396,1.19094 -2.25265,0.15454 -2.73102,0.24948 -2.11667,0.42008 0.43657,0.12122 2.05585,0.15228 3.59842,0.069 2.19144,-0.1183 2.88564,-0.0713 3.175,0.21484 0.20368,0.20143 0.5921,0.45028 0.86315,0.553 0.86736,0.3287 -0.009,0.96942 -1.38511,1.01315 l -1.22437,0.0389 1.45521,0.18129 c 1.609,0.20045 2.38125,0.46882 2.38125,0.82755 0,0.12995 0.17859,0.23628 0.39687,0.23628 0.47751,0 0.53699,0.51209 0.0662,0.56947 -0.1819,0.0222 -0.44979,0.0625 -0.59532,0.0897 -0.14552,0.0272 -1.27661,0.15299 -2.51354,0.27958 l -2.24896,0.23017 2.11667,0.20146 c 1.16417,0.1108 2.35479,0.31517 2.64583,0.45415 0.94222,0.44995 5.73886,0.60547 6.4823,0.21018 0.3638,-0.19344 1.23123,-0.67085 1.92761,-1.06092 0.97519,-0.54624 1.62523,-0.70922 2.82866,-0.70922 1.51985,0 2.31322,0.37121 1.4782,0.69164 -0.8237,0.31608 -0.39081,0.61742 1.96761,1.36969 1.52674,0.48699 4.81823,1.11046 5.0632,0.95906 0.12565,-0.0777 0.22913,-0.64019 0.22994,-1.25006 0.002,-1.54337 0.49468,-3.23209 0.84164,-2.88513 0.52892,0.52892 -0.3663,10.88603 -1.06831,12.35959 -0.27731,0.58209 -0.71535,1.56435 -0.97343,2.18282 -0.25808,0.61846 -0.55055,1.12448 -0.64992,1.12448 -0.0994,0 -0.46824,0.59068 -0.81971,1.31263 -0.35618,0.73163 -0.8147,1.30604 -1.03591,1.29774 -0.21828,-0.008 -0.99717,-0.331 -1.73086,-0.71733 z m 2.14693,-1.24087 c 0.0946,-0.50422 0.25489,-0.91676 0.35621,-0.91676 0.16952,0 1.0798,-1.83718 1.0798,-2.17933 0,-0.0822 -0.59591,0.43407 -1.32425,1.14724 -0.89342,0.87482 -1.54619,1.29668 -2.00642,1.29668 -0.3752,0 -0.64249,-0.0893 -0.59398,-0.19844 0.24473,-0.55064 3.63322,-3.50573 4.01988,-3.50573 0.28587,0 0.50483,-0.2883 0.60702,-0.79926 0.0879,-0.43959 0.26354,-0.86333 0.39026,-0.94165 0.12673,-0.0783 0.23041,-0.64735 0.23041,-1.2645 0,-0.61715 0.12718,-1.24928 0.28263,-1.40472 0.15545,-0.15545 0.24475,-0.74481 0.19844,-1.30969 l -0.0842,-1.02706 -1.4552,-0.18922 c -0.80037,-0.10407 -2.16959,-0.28564 -3.04271,-0.40349 -1.5446,-0.20847 -3.87689,-1.14535 -4.58296,-1.84096 -0.4129,-0.40678 -1.37017,-0.4609 -1.37017,-0.0775 0,0.3737 -1.44797,1.84968 -1.81458,1.84968 -0.16615,0 -0.30208,0.17859 -0.30208,0.39687 0,0.21828 -0.092,0.39688 -0.20442,0.39688 -0.11243,0 -0.42883,0.41671 -0.70312,0.92604 -0.27429,0.50932 -0.58612,0.92604 -0.69295,0.92604 -0.10682,0 -0.26894,0.29766 -0.36025,0.66146 -0.0913,0.3638 -0.28281,0.66146 -0.42555,0.66146 -0.14275,0 -0.25955,0.17859 -0.25955,0.39687 0,0.21828 -0.13844,0.39688 -0.30765,0.39688 -0.1692,0 0.193,0.47625 0.80489,1.05833 0.6119,0.58208 1.24387,1.05833 1.40439,1.05833 0.37182,0 2.59519,1.39694 2.59582,1.63095 6.3e-4,0.23495 2.57267,1.80864 2.95603,1.80864 0.16598,0 0.69203,0.29765 1.169,0.66145 0.47697,0.36381 0.99422,0.66146 1.14945,0.66146 0.15523,0 0.28224,0.11907 0.28224,0.26459 0,0.14552 0.16401,0.26458 0.36448,0.26458 0.20046,0 0.51161,0.17728 0.69144,0.39396 0.44697,0.53857 0.74348,0.28823 0.94765,-0.80012 z m -22.44853,-16.72029 c -0.54895,-0.0573 -1.38239,-0.0563 -1.85209,0.002 -0.46969,0.0584 -0.0205,0.10531 0.99809,0.10414 1.01865,-10e-4 1.40294,-0.049 0.854,-0.10628 z m 56.29403,11.83157 c -0.18158,-0.2938 1.23061,-2.91898 1.84414,-3.42817 0.53419,-0.44333 0.99469,-0.083 0.77877,0.60936 -0.0983,0.31517 -0.25197,0.63258 -0.3415,0.70534 -0.23612,0.1919 -0.78523,1.0975 -1.0829,1.78593 -0.26708,0.6177 -0.91051,0.79354 -1.19851,0.32754 z m -61.87022,-0.72441 c -0.20358,-0.40018 -0.46038,-1.02526 -0.57067,-1.38906 -0.11029,-0.36381 -0.41841,-0.97102 -0.68472,-1.34937 -0.81945,-1.16419 -1.65937,-5.26522 -1.07835,-5.26522 0.15037,0 0.34913,0.26789 0.44168,0.59531 0.0926,0.32743 0.32618,0.9525 0.51915,1.38907 0.19297,0.43656 0.49914,1.15094 0.68038,1.5875 0.47222,1.13744 1.09554,2.57946 1.31897,3.05139 0.1056,0.22306 0.27614,0.7886 0.37896,1.25677 0.14794,0.67355 0.10116,0.85121 -0.22414,0.85121 -0.22611,0 -0.57767,-0.32742 -0.78126,-0.7276 z m 8.33375,-3.30729 c -0.30679,-0.30679 -3.51223,-0.39943 -5.30457,-0.1533 -0.91386,0.12549 -0.99791,-0.51284 -0.11371,-0.86356 0.41161,-0.16327 0.95513,-0.4031 1.20782,-0.53297 1.13735,-0.58451 4.73422,0.1621 5.22827,1.08524 0.40769,0.76177 -0.36701,1.11539 -1.01781,0.46459 z m 62.14135,-6.00706 c -0.85614,-0.65781 -0.57799,-0.88912 1.19359,-0.99254 1.16574,-0.068 1.44829,-0.005 1.44829,0.3239 0,0.22465 -0.20836,0.47294 -0.46302,0.55175 -0.25466,0.0788 -0.66976,0.25368 -0.92245,0.38857 -0.57283,0.30581 -0.47815,0.32629 -1.25641,-0.27168 z m -88.82613,-3.64309 c -0.79118,-0.74513 -1.11761,-1.2972 -1.25786,-2.12728 -0.15608,-0.92383 -0.11611,-1.12101 0.22719,-1.12101 0.22912,0 0.59068,0.41667 0.80346,0.92594 0.21279,0.50926 0.6844,1.316 1.04803,1.79274 1.05222,1.37954 0.47623,1.75117 -0.82082,0.52961 z m 1.61291,-1.06548 c -0.0796,-0.25466 -0.32128,-0.79138 -0.53705,-1.19271 -0.35136,-0.65352 -0.34833,-0.74658 0.029,-0.89139 0.26978,-0.10353 0.65623,0.11139 1.07421,0.5974 0.76878,0.89392 0.7834,0.98825 0.2377,1.53395 -0.52736,0.52736 -0.6261,0.52155 -0.80391,-0.0472 z m 16.56552,-1.36871 c 0,-0.13433 0.33772,-0.58195 0.7505,-0.99473 0.41278,-0.41278 0.79973,-0.88024 0.8599,-1.03881 0.18676,-0.49222 3.23901,-3.17989 4.13115,-3.6377 0.46571,-0.23899 1.08377,-0.43453 1.37345,-0.43453 0.28968,0 0.59061,-0.10342 0.66873,-0.22983 0.0781,-0.1264 0.59116,-0.30277 1.14009,-0.39193 0.54893,-0.0891 1.72633,-0.51876 2.61645,-0.95468 2.11874,-1.03763 4.8639,-1.18438 4.8639,-0.26003 0,0.13694 -0.38696,0.25057 -0.8599,0.25251 -0.87966,0.004 -4.46133,1.16046 -5.88698,1.90144 -0.43656,0.2269 -1.20167,0.50048 -1.70024,0.60796 -1.20677,0.26014 -3.20071,1.39228 -3.80489,2.16037 -0.26752,0.3401 -0.64825,0.61836 -0.84606,0.61836 -0.19781,0 -0.63304,0.38695 -0.96719,0.85989 -1.00426,1.42142 -2.33891,2.30116 -2.33891,1.54171 z m 28.48788,-9.64768 c -0.53079,-0.43426 -1.38247,-0.70677 -2.92728,-0.9366 -2.35866,-0.35091 -2.97505,-0.59086 -2.69242,-1.04816 0.42336,-0.68502 3.91905,-0.24621 5.62328,0.70589 0.31785,0.17758 0.81684,0.32287 1.10886,0.32287 0.29202,0 0.60453,0.11906 0.69447,0.26458 0.0899,0.14552 0.43511,0.26458 0.76704,0.26458 0.56766,0 0.59873,-0.0904 0.52302,-1.52135 -0.0443,-0.83675 -0.0848,-1.73345 -0.09,-1.99268 -0.005,-0.25923 -0.21782,-0.54951 -0.47248,-0.64506 -0.25467,-0.0956 -0.61259,-0.35971 -0.79539,-0.58701 -0.61599,-0.76593 -1.91659,-3.75211 -1.91659,-4.40048 0,-0.61439 0.0758,-0.643 1.70417,-0.643 0.9373,0 1.77776,-0.11906 1.8677,-0.26458 0.198,-0.32037 2.83475,-0.35505 3.18823,-0.0419 0.13825,0.12246 1.11178,0.4871 2.16342,0.81033 1.97698,0.60762 2.83102,1.31316 3.15576,2.60703 0.25793,1.02768 0.56764,0.16997 0.418,-1.15762 -0.10202,-0.90511 -0.0187,-1.29779 0.36539,-1.72221 0.67167,-0.74218 1.91607,-1.36051 2.37988,-1.18253 0.52552,0.20166 3.03413,-2.3026 3.07688,-3.07154 0.12786,-2.30001 -0.0517,-2.92713 -1.13266,-3.95541 -0.58821,-0.55955 -1.22337,-1.01736 -1.41147,-1.01736 -0.1881,0 -0.64111,-0.32743 -1.00668,-0.72761 -0.96808,-1.05972 -2.40116,-2.25973 -3.21312,-2.69054 -0.8416,-0.44654 -0.89518,-0.70442 -0.18495,-0.89014 1.29133,-0.33769 2.6695,0.37635 5.70654,2.95663 0.29736,0.25263 0.73484,0.53385 0.9722,0.62493 0.64231,0.24648 1.35348,1.95251 1.35348,3.24687 0,1.10816 0.0153,1.12841 0.57549,0.76136 0.61874,-0.40541 1.97985,-2.01519 2.44789,-2.8951 0.15787,-0.2968 0.62368,-0.70705 1.03513,-0.91165 0.41145,-0.20461 1.3434,-0.93852 2.07101,-1.63091 0.7276,-0.69239 2.13524,-1.68113 3.12808,-2.1972 1.47526,-0.76683 2.09243,-0.93831 3.37703,-0.93831 0.86452,0 1.7786,0.10586 2.03129,0.23525 0.25269,0.12939 0.91696,0.45681 1.47615,0.7276 1.04783,0.50742 2.02599,1.60731 2.02599,2.27813 0,0.20964 0.22725,0.58683 0.50499,0.83818 0.73668,0.66669 1.13028,1.7947 1.03436,2.96441 l -0.0841,1.02622 -0.44487,-1.25062 c -0.24467,-0.68784 -0.75069,-1.65158 -1.12448,-2.14164 -0.37378,-0.49006 -0.68151,-0.99885 -0.68384,-1.13063 -0.002,-0.13179 -0.3713,-0.65633 -0.81996,-1.16565 l -0.81573,-0.92604 h -2.82399 -2.824 l -1.44927,1.05133 c -0.7971,0.57823 -1.59802,1.25308 -1.77981,1.49965 -0.18179,0.24658 -0.77711,0.72152 -1.32292,1.05543 -1.20949,0.73994 -1.41976,0.93914 -2.05814,1.94984 -0.27574,0.43656 -1.25932,1.5043 -2.18573,2.37276 -0.92641,0.86845 -1.84766,1.96978 -2.04722,2.44739 -0.19956,0.47761 -0.51774,0.87503 -0.70706,0.88316 -0.33293,0.0143 -2.59319,2.67376 -2.59319,3.05121 0,0.10254 -0.50602,0.74935 -1.12448,1.43737 -2.3187,2.57945 -2.61033,2.96355 -3.44475,4.53692 -0.98045,1.84874 -1.98124,2.59488 -3.50056,2.60983 -0.58209,0.006 -1.77271,0.18291 -2.64584,0.39373 -2.30441,0.55642 -3.56226,0.48865 -4.45274,-0.23991 z m 8.79848,-1.32892 c 0.17022,-0.2051 0.63661,-1.00877 1.03643,-1.78593 0.39982,-0.77717 0.93717,-1.73054 1.19411,-2.11861 0.39977,-0.60377 0.41715,-0.79465 0.12045,-1.32291 -0.64175,-1.14263 -1.08687,-1.54338 -1.71424,-1.54338 -0.34322,0 -0.83078,-0.10518 -1.08347,-0.23372 -1.73638,-0.8833 -2.48535,-0.99683 -5.81724,-0.88174 -1.26814,0.0438 -1.65365,0.14965 -1.65365,0.454 0,0.21828 0.09,0.39687 0.2,0.39687 0.10999,0 0.36876,0.38696 0.57504,0.8599 0.20627,0.47294 0.83809,1.31347 1.40404,1.86784 0.98884,0.96861 1.02899,1.07574 1.02899,2.74567 v 1.73774 l 1.16258,-0.15935 c 0.65453,-0.0897 1.23224,-0.0466 1.32199,0.0986 0.24238,0.39218 1.87405,0.30787 2.22497,-0.11497 z m -2.36136,-2.5181 c 0,-0.28037 0.20836,-0.56422 0.46302,-0.63077 0.42647,-0.11144 0.42509,-0.12342 -0.0174,-0.15169 -0.26423,-0.0169 -0.71521,0.095 -1.00219,0.24855 -0.6633,0.35499 -1.58097,0.083 -1.39092,-0.41228 0.0782,-0.20379 0.57815,-0.50365 1.11098,-0.66635 0.53284,-0.1627 1.22103,-0.41832 1.52933,-0.56806 0.30829,-0.14974 0.77468,-0.23074 1.03641,-0.18 0.69988,0.13566 0.79753,0.76519 0.14514,0.93579 -0.40044,0.10472 -0.48691,0.23834 -0.29999,0.46357 0.17859,0.21519 0.13324,0.50116 -0.14172,0.89372 -0.51064,0.72904 -1.43267,0.77249 -1.43267,0.0675 z m 8.01864,-5.59279 c 0.16454,-0.6292 0.0718,-0.6378 -0.60728,-0.0563 -0.29271,0.25062 -0.53219,0.68579 -0.53219,0.96705 0,0.48567 0.0253,0.4885 0.50279,0.0564 0.27653,-0.25026 0.56304,-0.68543 0.63668,-0.96705 z"
       id="path19" /></g></svg>
