<?xml version="1.0" encoding="UTF-8" standalone="no"?>
<!-- Created with Inkscape (http://www.inkscape.org/) -->

<svg
   width="132.62956mm"
   height="87.371338mm"
   viewBox="0 0 132.62958 87.371338"
   version="1.1"
   id="svg1"
   xml:space="preserve"
   xmlns="http://www.w3.org/2000/svg"
   xmlns:svg="http://www.w3.org/2000/svg"><defs
     id="defs1" /><g
     id="layer1"
     transform="translate(366.00157,-44.885419)"><path
       style="fill:#4d4d4d"
       d="m -298.15856,131.80702 c -0.67818,-0.71291 -0.75655,-1.13479 -0.79037,-4.25467 -0.0165,-1.51988 -0.0876,-3.23967 -0.15805,-3.82176 -0.18059,-1.49201 -0.55923,-3.15006 -0.74283,-3.25281 -0.0854,-0.0478 -0.46899,-0.31735 -0.85234,-0.59897 -0.38335,-0.28163 -1.67596,-1.15886 -2.87247,-1.94941 -1.1965,-0.79056 -2.23171,-1.48164 -2.30046,-1.53575 -0.0688,-0.0541 -0.25396,-0.16719 -0.41157,-0.25129 -0.15762,-0.0841 -1.21262,-0.76131 -2.34445,-1.50489 -3.0428,-1.99905 -4.73708,-3.04038 -7.05555,-4.33645 -2.24994,-1.25776 -2.3016,-1.28853 -3.39004,-2.01906 -2.04754,-1.37427 -2.62721,-1.67697 -3.74452,-1.95542 -1.60457,-0.39988 -1.92007,-0.72388 -1.92007,-1.97177 0,-0.78417 -0.0785,-0.76469 -0.61023,0.15142 -0.95048,1.63753 -1.75669,3.34113 -1.92477,4.06725 -0.31631,1.36642 -0.68227,1.79537 -2.17464,2.54891 -0.87779,0.44322 -1.55604,1.0313 -1.38579,1.20155 0.0343,0.0343 0.24245,-0.0977 0.46249,-0.29331 0.57127,-0.50798 0.90968,-0.57206 1.17801,-0.22306 0.44242,0.5754 0.19018,1.22752 -0.89345,2.30987 -0.63079,0.63005 -0.94872,0.73651 -1.52562,0.51086 -0.12651,-0.0495 -0.36463,-0.0392 -0.52917,0.0228 -0.45737,0.17245 -1.59364,-0.0997 -1.86695,-0.44715 -0.13713,-0.17433 -0.26183,-0.23833 -0.33053,-0.16963 -0.15639,0.15639 -0.57491,-0.16457 -0.79817,-0.6121 -0.32351,-0.64849 -0.20221,-2.43524 0.27641,-4.07147 0.26578,-0.90861 0.92266,-1.61288 2.8501,-3.05574 l 1.13555,-0.85006 0.35356,-0.85254 c 0.19446,-0.46889 0.60107,-1.48754 0.90357,-2.26364 0.30251,-0.77611 0.60522,-1.5434 0.67269,-1.70509 0.0675,-0.16169 0.1685,-0.41304 0.22452,-0.55857 0.056,-0.145524 0.15104,-0.383644 0.21114,-0.529164 0.38265,-0.92649 0.56914,-1.63377 0.44052,-1.67066 -0.076,-0.0218 -0.98489,-0.0968 -2.0197,-0.16662 -1.62122,-0.10941 -2.80327,-0.0619 -2.91898,0.11725 -0.0157,0.0244 -0.10174,0.18943 -0.1911,0.36678 -0.0894,0.17734 -0.43444,0.60068 -0.76686,0.94074 -0.53262,0.54487 -0.85359,0.74988 -2.04999,1.309354 -0.39614,0.18525 -3.01799,0.17125 -3.20636,-0.0171 -0.0796,-0.0796 -0.21726,-0.14477 -0.30585,-0.14477 -0.15347,0 -1.12618,-0.616084 -1.38365,-0.876354 -0.53966,-0.54555 -1.12876,-1.56038 -1.35562,-2.33531 -0.20067,-0.68542 -0.66329,-1.06599 -1.81511,-1.49313 -0.12935,-0.048 -0.3832,-0.14673 -0.5641,-0.21946 -0.1809,-0.0727 -0.44549,-0.13411 -0.58796,-0.1364 -0.14248,-0.002 -0.38973,-0.0765 -0.54943,-0.16493 -0.24975,-0.13827 -0.28569,-0.23231 -0.25681,-0.67199 0.063,-0.95926 0.54164,-2.216317 0.84388,-2.216317 0.18933,0 0.13066,0.370637 -0.17686,1.117127 -0.45439,1.10307 -0.46067,1.09252 0.8797,1.47672 0.29104,0.0834 0.57944,0.19539 0.64088,0.24882 0.0614,0.0534 0.19374,0.0983 0.29398,0.0998 0.10025,10e-4 0.31456,0.1061 0.47625,0.23257 0.16169,0.12648 0.3805,0.23113 0.48625,0.23257 0.24765,0.003 0.57209,0.49873 0.57209,0.87348 0,0.16015 0.0529,0.32389 0.11759,0.36386 0.0647,0.04 0.11759,0.15147 0.11759,0.24777 0,0.22586 0.70972,1.33594 1.08881,1.70302 0.57625,0.55798 0.76926,0.67879 1.65075,1.03318 0.42625,0.17136 2.44426,0.17121 2.86996,-2.2e-4 1.16991,-0.47113 1.88815,-0.98998 2.50437,-1.80914 0.18756,-0.24932 0.63777,-1.14987 0.75261,-1.50544 0.0933,-0.28884 0.30572,-0.13585 0.30572,0.22018 v 0.28704 l 1.02894,0.01 c 0.56591,0.005 1.63748,0.0483 2.38125,0.0953 0.78606,0.0496 1.41302,0.0402 1.49729,-0.0226 0.0797,-0.0594 0.19413,-0.27425 0.25421,-0.47745 0.0601,-0.20319 0.34606,-1.13673 0.63552,-2.07454 0.28947,-0.9378 0.6663,-2.287167 0.8374,-2.998607 0.1711,-0.71143 0.3569,-1.47872 0.4129,-1.70509 0.28318,-1.14485 0.36083,-1.57014 0.36083,-1.97633 v -0.44425 l -0.73496,-0.42567 c -0.40422,-0.23412 -0.93397,-0.53558 -1.17721,-0.66991 l -0.44226,-0.24423 -0.46908,0.46908 -0.46908,0.46909 v 0.68347 c 0,0.87131 -0.3168,1.55113 -1.05994,2.27451 -0.71833,0.69924 -1.35883,0.99433 -2.76182,1.27245 -0.38806,0.0769 -0.92743,0.18842 -1.1986,0.24777 -0.75621,0.16551 -2.23751,0.1336 -2.53911,-0.0547 -0.14324,-0.0894 -0.56881,-0.19186 -0.94571,-0.22763 -0.89977,-0.0854 -1.19112,-0.29008 -1.35839,-0.95438 -0.0757,-0.30072 -0.20402,-0.53687 -0.29166,-0.53687 -0.24645,0 -0.53602,-0.38966 -0.61743,-0.83087 -0.041,-0.22212 -0.15298,-0.52951 -0.24889,-0.68308 -0.1293,-0.20706 -0.17878,-0.69333 -0.19145,-1.88148 l -0.0171,-1.60226 0.39097,-0.78651 c 0.40637,-0.81749 0.91454,-1.43176 1.09313,-1.32138 0.17985,0.11115 0.11226,0.46653 -0.14028,0.7376 -0.13402,0.14385 -0.3986,0.55608 -0.58796,0.91606 -0.2952,0.56118 -0.34429,0.78515 -0.34429,1.57072 0,0.70594 0.0405,0.93176 0.17639,0.98391 0.13769,0.0528 0.17639,-0.0302 0.17639,-0.3785 0,-0.32515 0.0806,-0.5219 0.29715,-0.72534 0.25827,-0.24263 0.4056,-0.27749 1.12571,-0.2664 0.45571,0.007 0.98639,0.0781 1.1793,0.15805 0.26332,0.10907 0.38428,0.11174 0.48531,0.0107 0.074,-0.074 0.2589,-0.13457 0.41087,-0.13457 0.5197,0 0.9626,-0.33821 1.26573,-0.96658 0.5609,-1.16269 0.31886,-1.41348 -0.97768,-1.01301 -1.35229,0.41767 -1.90874,0.2815 -1.93017,-0.47236 -0.0176,-0.6179 0.57065,-1.09483 1.98139,-1.60652 0.44345,-0.16085 0.88588,-0.29212 0.98317,-0.29171 0.15532,6.5e-4 0.54092,0.18418 2.49368,1.18686 0.46356,0.23803 1.03283,0.29264 1.21688,0.11675 0.0614,-0.0587 0.36307,-0.24392 0.67028,-0.41157 1.08168,-0.59029 1.63472,-0.90058 2.88102,-1.61644 0.24253,-0.13931 0.64037,-0.36131 0.88409,-0.49333 0.24371,-0.13203 0.42731,-0.28746 0.408,-0.3454 -0.0495,-0.14861 -1.30468,-0.66586 -3.02658,-1.24727 -0.80845,-0.27298 -1.57575,-0.54356 -1.7051,-0.6013 -0.47442,-0.21176 -1.38534,-0.47577 -1.44291,-0.4182 -0.0326,0.0326 -0.19751,-0.0375 -0.3665,-0.15574 -0.16899,-0.11825 -0.466,-0.25135 -0.66003,-0.29577 -0.19403,-0.0444 -0.56445,-0.13465 -0.82315,-0.20048 -2.11849,-0.53909 -5.21643,-0.72088 -5.9121,-0.34693 -0.11149,0.0599 -0.37469,0.17827 -0.58489,0.26297 -0.2102,0.0847 -0.38218,0.194 -0.38218,0.24289 0,0.0489 -0.0661,0.0897 -0.14699,0.0907 -0.27121,0.003 -1.36013,1.24042 -1.89005,2.14716 -0.18048,0.30882 -0.62293,0.87767 -0.98323,1.26412 l -0.65508,0.70264 h -0.54618 c -0.4331,0 -0.63459,-0.0729 -0.97323,-0.35202 -0.41358,-0.3409 -0.80246,-1.15534 -0.80246,-1.68059 0,-0.17054 -0.0511,-0.20537 -0.20579,-0.1404 -1.18705,0.49848 -1.4412,0.56009 -2.36122,0.5724 l -0.97952,0.0131 -0.314,-0.35278 -0.31401,-0.35278 -0.58796,0.20064 c -0.32338,0.11035 -0.70702,0.20296 -0.85254,0.20579 -0.33083,0.006 -0.33654,0.1746 -0.0173,0.50983 0.37962,0.39865 1.32663,1.84351 1.59608,2.43513 0.50334,1.10517 0.5673,1.4433 0.56717,2.99861 -1.1e-4,1.3162 -0.0387,1.63306 -0.27782,2.27937 -0.25144,0.67969 -0.66856,1.50924 -0.83468,1.65998 -0.0356,0.0323 -0.24468,0.29692 -0.46453,0.58797 -0.21985,0.29104 -0.65911,0.74083 -0.97614,0.99953 l -0.57641,0.47037 0.0808,1.822687 c 0.0445,1.00247 0.0685,3.30435 0.0533,5.11528 -0.0723,8.655874 -0.0652,8.871514 0.34911,10.524524 0.0729,0.29104 0.16122,0.6705 0.19617,0.84323 0.0349,0.17274 0.15219,0.41086 0.26054,0.52917 0.10835,0.11831 0.3269,0.40031 0.48567,0.62668 0.81478,1.16172 2.76139,3.08718 4.99661,4.9423 0.97014,0.80516 1.79035,1.4917 1.82269,1.52563 0.0323,0.0339 0.34968,0.29909 0.70521,0.58924 1.7545,1.43188 2.58738,2.23421 2.58738,2.49248 0,0.40517 0.4894,2.24877 0.78946,2.97396 0.35107,0.84845 1.08414,1.83661 1.53124,2.06407 0.17882,0.091 0.48888,0.28555 0.68901,0.43238 0.20013,0.14684 0.4155,0.26697 0.4786,0.26697 0.17848,0 1.0978,0.82421 1.0978,0.98422 0,0.0785 0.2269,0.36543 0.50422,0.6376 0.51188,0.50237 1.02448,0.65858 1.02448,0.31218 0,-0.24898 -1.19953,-1.73466 -1.7254,-2.13698 -1.01397,-0.77577 -1.46502,-1.35733 -1.23283,-1.58952 0.18058,-0.18058 1.63591,1.12636 3.28946,2.95406 0.26229,0.28991 0.52283,0.47952 0.59643,0.43403 0.0719,-0.0444 0.13068,-0.31067 0.13068,-0.59167 v -0.5109 l -0.91959,-0.58989 c -0.50577,-0.32444 -1.10278,-0.77309 -1.3267,-0.997 -0.53302,-0.53303 -1.0132,-1.45571 -0.84507,-1.62384 0.14003,-0.14003 0.19525,-0.0886 0.74656,0.6951 0.22349,0.31771 0.73622,0.75085 1.37964,1.1655 0.56317,0.36293 1.26477,0.91592 1.55911,1.22887 0.60142,0.63943 0.89323,0.71655 1.00633,0.26594 0.15665,-0.62416 -0.54807,-1.42436 -1.71326,-1.94536 -0.68958,-0.30833 -0.90273,-0.48003 -1.40014,-1.12781 -0.32271,-0.42026 -0.5584,-0.83795 -0.52377,-0.92821 0.11485,-0.29927 0.31293,-0.18599 0.79325,0.45367 0.25156,0.33501 0.69737,0.62547 1.84997,1.20532 1.61207,0.81101 1.9807,0.9111 1.9807,0.53781 0,-0.27092 -0.6481,-0.94978 -0.90674,-0.94978 -0.38284,0 -1.11974,-0.28737 -1.18711,-0.46295 -0.0926,-0.24141 -0.56812,-0.71298 -0.71889,-0.71298 -0.19565,0 -0.32661,-0.36835 -0.41321,-1.1623 -0.045,-0.4129 -0.16191,-0.87286 -0.25972,-1.02214 -0.0978,-0.14927 -0.16053,-0.39353 -0.13937,-0.54279 0.0312,-0.2201 0.12163,-0.27827 0.47863,-0.30783 0.35907,-0.0297 0.56301,0.0515 1.10688,0.44097 0.65306,0.46765 1.12722,0.59924 1.27832,0.35475 0.13784,-0.22303 -0.5072,-0.89578 -1.16965,-1.21988 -1.10204,-0.53918 -1.72572,-0.69347 -4.35764,-1.07799 -0.3219,-0.047 -0.64056,-0.14342 -0.70814,-0.21419 -0.16303,-0.17076 -2.72915,-3.10428 -3.04523,-3.48124 -0.13611,-0.16233 -0.48488,-0.58566 -0.77503,-0.94074 -0.29015,-0.35508 -0.55728,-0.67206 -0.59362,-0.7044 -0.0985,-0.0876 -2.59565,-3.18754 -2.93577,-3.64437 -0.16169,-0.21718 -0.50931,-0.66343 -0.77249,-0.99168 -0.60802,-0.75835 -0.62693,-0.81821 -0.50416,-1.59635 0.12412,-0.78678 0.31851,-2.14445 0.45457,-3.175 0.0555,-0.4204 0.1569,-1.18768 0.2253,-1.70509 0.24527,-1.855124 0.33885,-2.427104 0.40848,-2.496734 0.10694,-0.10694 0.0728,1.552814 -0.0532,2.584934 -0.19304,1.58132 -0.48306,3.70268 -0.64989,4.75365 -0.0777,0.4893 0.0131,0.70162 0.61955,1.44935 0.0787,0.097 0.62588,0.78493 1.21599,1.5287 0.59011,0.74377 1.26732,1.58553 1.50491,1.87057 0.23759,0.28504 0.5084,0.629 0.6018,0.76435 0.0934,0.13536 0.25311,0.32547 0.35491,0.42249 0.1018,0.097 0.42202,0.46743 0.7116,0.82315 0.28957,0.35571 0.57966,0.70415 0.64462,0.7743 0.065,0.0701 0.74523,0.84405 1.51169,1.71979 l 1.39357,1.59224 0.84069,0.0736 c 0.46238,0.0405 1.13174,0.1217 1.48745,0.18045 0.79784,0.13177 1.16727,0.2357 2.38125,0.6699 0.11319,0.0405 0.20579,0.12034 0.20579,0.17748 0,0.0571 0.069,0.10387 0.15332,0.10387 0.41686,0 1.2627,1.28633 1.25405,1.90711 -0.0113,0.80888 -0.71093,0.88602 -1.74408,0.19227 -0.39943,-0.26821 -0.76218,-0.45172 -0.80611,-0.40779 -0.0439,0.0439 -0.0164,0.31704 0.0611,0.60694 0.0775,0.28989 0.14097,0.62447 0.14097,0.7435 0,0.11904 0.23817,0.46149 0.52927,0.761 0.39034,0.40163 0.67585,0.58005 1.08773,0.67977 0.73513,0.17797 1.17273,0.6021 1.38908,1.34632 0.25411,0.87412 0.0819,1.22124 -0.60757,1.22464 l -0.36491,0.002 0.0562,0.58522 c 0.0628,0.65398 -0.21286,1.41385 -0.51298,1.41385 -0.0968,0 -0.31909,-0.13267 -0.49397,-0.29483 -0.17488,-0.16216 -0.32489,-0.25476 -0.33337,-0.20579 -0.15967,0.92295 -0.56206,1.39054 -0.93224,1.08333 -0.13937,-0.11567 -0.2169,-0.0845 -0.41446,0.16667 -0.13367,0.16993 -0.35825,0.30876 -0.49908,0.30852 -0.34488,-6e-4 -0.94598,-0.38008 -1.21363,-0.76617 -0.51907,-0.74878 -1.00315,-1.19608 -1.64482,-1.51983 -1.19629,-0.60359 -2.1467,-1.66726 -2.68523,-3.00523 -0.19902,-0.49446 -0.26259,-0.72574 -0.53331,-1.94028 -0.0577,-0.2587 -0.1396,-0.61215 -0.18208,-0.78544 -0.079,-0.32217 -0.69834,-0.95643 -2.04923,-2.09852 -0.41884,-0.3541 -0.82273,-0.69673 -0.89753,-0.76141 -0.0748,-0.0647 -0.36608,-0.3028 -0.64726,-0.52917 -3.09702,-2.49322 -4.97964,-4.27104 -6.22317,-5.87672 -0.22416,-0.28945 -0.47405,-0.59784 -0.55532,-0.68533 -0.21303,-0.22932 -0.40443,-0.61153 -0.51076,-1.0199 -0.0509,-0.19555 -0.14969,-0.56721 -0.21949,-0.82592 -0.27489,-1.01873 -0.68851,-3.86732 -0.71714,-4.93888 l -0.0126,-0.47038 -0.11073,0.35278 c -0.0609,0.19403 -0.16156,0.60804 -0.22368,0.92003 -0.0621,0.31198 -0.2004,0.75153 -0.30728,0.97677 -0.15954,0.3362 -0.1807,0.62419 -0.11819,1.60822 0.0419,0.65928 0.10825,1.37067 0.14748,1.58086 0.0598,0.32054 0.0358,0.38218 -0.1489,0.38218 -0.12113,0 -0.29516,-0.11906 -0.38672,-0.26459 -0.33693,-0.53546 -0.7905,-1.45922 -1.05373,-2.14606 -0.78823,-2.05668 -0.77202,-2.04869 -0.81239,-0.40075 -0.0337,1.37599 0.0485,1.99013 0.35473,2.64895 0.17071,0.36731 0.0691,0.6994 -0.19938,0.65175 -0.34359,-0.061 -0.94892,-0.79138 -1.11521,-1.34565 -0.0818,-0.27278 -0.18944,-0.62826 -0.23912,-0.78995 -0.0497,-0.16169 -0.14828,-0.50565 -0.21913,-0.76435 -0.46469,-1.69678 -0.62898,-2.17391 -0.72756,-2.11299 -0.0614,0.0379 -0.11164,0.1368 -0.11164,0.21967 0,0.51273 -1.28717,2.42249 -1.63276,2.42249 -0.15471,0 -0.17854,-0.66238 -0.0272,-0.75592 0.22471,-0.13887 0.58464,-1.11579 0.73014,-1.98171 0.12129,-0.72183 0.12383,-1.05244 0.0123,-1.59257 -0.0774,-0.37491 -0.14079,-0.84395 -0.14079,-1.04233 0,-0.52876 -0.26331,-0.69711 -0.44573,-0.285 -0.23137,0.52272 -0.9532,1.29561 -1.4437,1.54584 -0.83091,0.4239 -1.99113,0.21209 -1.99113,-0.3635 0,-0.18469 0.0826,-0.22852 0.43064,-0.22852 0.59377,0 1.39435,-0.49215 1.63891,-1.00752 0.14182,-0.29886 0.19404,-0.71019 0.18686,-1.47173 -0.0101,-1.068754 -0.10272,-1.499904 -0.52849,-2.459634 -0.39894,-0.89924 -0.66958,-1.69015 -0.66958,-1.95671 v -0.25495 l -0.58923,0.22389 c -0.96502,0.36668 -1.48726,0.26151 -2.21096,-0.44524 -0.32522,-0.3176 -0.38347,-0.45245 -0.35278,-0.81669 0.0465,-0.55171 0.25447,-0.62852 0.4465,-0.16491 0.12256,0.29588 0.21462,0.35721 0.53622,0.35721 0.67712,0 1.56843,-1.08605 2.01521,-2.455507 0.14804,-0.45377 0.18265,-1.68434 0.21045,-7.48107 0.0183,-3.81588 0.0679,-7.30838 0.11025,-7.76111 0.15717,-1.68067 0.63703,-3.89364 0.91668,-4.22745 0.0515,-0.0614 0.0936,-0.18384 0.0936,-0.272 0,-0.25457 0.70599,-1.66951 1.20274,-2.41051 0.69491,-1.0366 1.77418,-2.12727 2.40588,-2.43128 0.5998,-0.28866 0.75888,-0.35228 1.50665,-0.60262 0.62064,-0.20777 4.35727,-0.20345 4.90833,0.006 0.9734,0.36942 1.90073,0.85753 2.24295,1.18062 0.53511,0.50522 1.11641,0.65764 1.85651,0.4868 0.32667,-0.0754 0.92666,-0.1371 1.3333,-0.1371 0.64648,0 0.77923,0.0399 1.05691,0.31757 0.2267,0.2267 0.29543,0.38651 0.24022,0.55856 -0.2861,0.89155 -0.17953,1.16637 0.52593,1.35633 0.25465,0.0686 0.49691,0.23074 0.58188,0.38951 0.0801,0.14962 0.30091,0.33066 0.49075,0.40232 0.27363,0.10328 0.34517,0.20168 0.34517,0.47479 0,0.29092 0.0845,0.38797 0.54337,0.62397 0.72559,0.37318 0.97865,0.87313 0.75632,1.4942 -0.32351,0.90371 -1.69198,2.50626 -2.53441,2.96791 -0.63082,0.34568 -1.69196,1.16595 -1.82153,1.40804 -0.0629,0.11746 -0.0544,0.39248 0.0213,0.69072 0.14658,0.57749 0.80287,1.19293 1.27211,1.19293 0.33711,0 1.34418,-0.88788 1.71056,-1.50812 0.1213,-0.20535 0.26206,-0.37336 0.31279,-0.37336 0.0507,0 0.0922,-0.0794 0.0922,-0.17639 0,-0.097 0.0397,-0.17648 0.0882,-0.1766 0.0485,-1.1e-4 0.232,-0.22785 0.40776,-0.50608 0.65266,-1.03313 1.72251,-1.81976 2.99241,-2.20023 0.92494,-0.27712 3.92134,0.0255 5.86024,0.59193 0.25871,0.0756 0.63655,0.16405 0.83966,0.19662 l 0.36929,0.0592 0.0687,-3.92131 c 0.073,-4.16837 0.24663,-8.50298 0.3768,-9.40788 0.0667,-0.46391 0.0422,-0.57901 -0.16052,-0.75257 -0.21377,-0.18303 -1.00008,-0.51607 -1.22933,-0.52067 -0.0485,-9.7e-4 -0.0882,0.31169 -0.0882,0.69482 0,1.30697 -0.42332,2.88383 -1.00678,3.75021 l -0.41058,0.60968 h -0.50109 c -0.38512,0 -0.59531,-0.0805 -0.90822,-0.348 -0.29794,-0.25466 -0.53328,-0.34998 -0.8775,-0.35539 -0.27866,-0.004 -0.59019,-0.10112 -0.76435,-0.23735 -0.16169,-0.12647 -0.41777,-0.23113 -0.56906,-0.23257 -0.17021,-0.002 -0.47595,-0.20931 -0.80203,-0.54482 -0.45913,-0.47241 -0.57259,-0.53309 -0.88136,-0.47133 -0.19491,0.039 -0.51089,0.18232 -0.70219,0.31853 -0.50292,0.35812 -0.82951,0.23112 -1.15407,-0.44877 -0.14738,-0.30872 -0.31508,-0.6532 -0.37268,-0.76551 -0.0576,-0.1123 -0.10472,-0.2799 -0.10472,-0.37242 0,-0.0925 -0.10272,-0.40787 -0.22827,-0.70076 -0.1912,-0.44606 -0.30098,-0.55242 -0.67616,-0.65507 -0.76496,-0.2093 -1.14225,-0.52819 -2.07447,-1.75338 -0.49591,-0.65175 -0.90166,-1.21246 -0.90166,-1.24601 0,-0.0336 -0.2394,-0.28168 -0.53199,-0.55138 -0.81535,-0.75157 -0.99556,-1.26819 -1.06121,-3.04225 -0.056,-1.51279 0.21294,-2.26167 1.18214,-3.292077 0.33485,-0.356001 0.64217,-0.740222 0.68293,-0.853824 0.16367,-0.456138 1.41196,-2.464131 1.93147,-3.106942 0.74023,-0.915911 1.23436,-1.368552 2.14759,-1.96726 1.09657,-0.718912 2.55767,-1.245637 3.45529,-1.245637 0.55315,0 1.80109,0.434794 2.36858,0.825238 0.64264,0.442148 1.72701,1.623049 1.98007,2.156342 0.11129,0.234531 0.4584,0.704724 0.77134,1.044874 1.4524,1.578671 1.71192,1.988075 2.11063,3.329702 l 0.24659,0.829764 0.50157,0.27693 c 2.2141,1.22245 3.04293,1.36327 5.55806,0.94438 1.72805,-0.28781 2.4618,-0.36424 4.11471,-0.42858 1.97826,-0.077 2.96086,0.0445 5.29269,0.65442 1.19882,0.31357 3.11183,1.33846 3.8816,2.07954 0.19459,0.18735 0.6973,0.63167 1.11713,0.98739 0.41982,0.35572 0.78977,0.67322 0.82211,0.70556 0.0773,0.0773 0.47755,0.30346 1.41111,0.79729 1.79056,0.94715 2.92254,1.93004 6.47563,5.62268 1.04646,1.08756 1.56592,1.58117 3.63847,3.45743 0.67847,0.61421 1.55108,1.44138 1.93914,1.83814 0.75575,0.7727 1.41213,1.24132 2.35185,1.67909 2.39021,1.11349 3.6762,1.98558 5.3042,3.59704 1.78537,1.76721 2.24692,2.70434 2.69333,5.46851 0.2469,1.52881 0.42843,2.1866 0.85502,3.0982 0.28492,0.60886 0.48901,0.85619 1.04253,1.26342 0.91191,0.6709 2.95095,2.65609 3.83379,3.73254 0.53035,0.64667 0.76276,0.84768 0.92964,0.80404 0.21385,-0.0559 1.34156,0.12532 2.45121,0.39396 1.58481,0.38367 2.08147,0.45358 4.93889,0.69515 0.74377,0.0629 2.09315,0.18122 2.99861,0.26298 1.73817,0.15695 2.33846,0.16056 5.81164,0.035 2.30908,-0.0835 2.9854,-0.0115 4.30132,0.45793 0.5105,0.1821 0.9819,0.25168 1.7051,0.25168 h 0.99953 l 0.1176,0.27266 c 0.0696,0.16145 0.25589,0.30062 0.45668,0.34122 0.2168,0.0438 0.40763,0.197027 0.52916,0.424807 0.10455,0.19594 0.30915,0.4718 0.45467,0.61301 0.14552,0.14121 0.26458,0.36452 0.26458,0.49623 0,0.14905 0.15542,0.33119 0.41157,0.48232 0.2604,0.15364 0.4191,0.34148 0.43205,0.51138 0.049,0.64273 0.0879,1.00731 0.16033,1.50328 0.0635,0.4343 0.0331,0.58514 -0.16911,0.84141 -0.77398,0.98069 -3.328,0.89651 -7.75749,-0.25567 -0.75219,-0.19566 -1.49992,-0.40107 -1.66161,-0.45647 -0.84936,-0.29101 -2.729,-0.83604 -3.3152,-0.96129 -0.65056,-0.13901 -1.30626,-0.10823 -2.44684,0.11486 -2.20923,0.43212 -2.64266,0.47776 -4.55671,0.4798 -1.58488,0.002 -2.02847,0.0356 -2.02847,0.15504 0,0.0841 0.0479,0.20314 0.10651,0.26458 0.10706,0.11229 0.49962,0.78385 0.79753,1.36437 0.088,0.17154 0.23815,0.34186 0.33357,0.37848 0.0954,0.0366 0.1735,0.12818 0.1735,0.20347 0,0.17953 0.42641,0.54415 0.89817,0.76801 0.42262,0.20055 1.97672,0.17074 2.806,-0.0538 0.2587,-0.07 0.68203,-0.18012 0.94074,-0.24459 0.2587,-0.0645 0.73495,-0.18493 1.05833,-0.26768 0.34016,-0.087 1.28181,-0.15047 2.23426,-0.15048 1.52433,-3e-5 2.06457,0.0607 3.64537,0.40995 0.32338,0.0714 0.78673,0.15851 1.02967,0.1935 0.24294,0.035 0.47096,0.11094 0.50671,0.16878 0.0358,0.0579 0.24396,0.10517 0.46269,0.10517 0.21874,0 0.42679,0.0471 0.46234,0.1046 0.0356,0.0575 0.23712,0.13198 0.44792,0.16545 0.21079,0.0335 0.56847,0.1157 0.79484,0.18275 0.65629,0.194394 1.31981,0.377944 1.76389,0.487944 0.22636,0.0561 0.62324,0.1588 0.88194,0.22828 1.03341,0.27753 2.8836,0.61045 3.97361,0.715 1.87374,0.17972 3.38623,-0.0287 4.90463,-0.67591 0.41933,-0.17873 0.59473,-0.26336 1.5287,-0.737624 0.29105,-0.14778 0.635,-0.30751 0.76436,-0.35495 0.12935,-0.0474 0.38319,-0.14576 0.56409,-0.21849 0.18091,-0.0727 0.55132,-0.13217 0.82315,-0.13209 0.54601,1.6e-4 0.84539,0.20781 1.42885,0.991034 0.45852,0.61552 1.0039,1.12534 2.05094,1.91724 0.47788,0.36143 1.14212,0.92645 1.47608,1.25561 1.36031,1.34074 2.12118,1.77412 3.27005,1.86258 1.10858,0.0854 1.38174,0.28773 1.38174,1.02365 0,0.50294 -0.044,0.60855 -0.34153,0.82043 -0.30366,0.21623 -0.51305,0.2432 -1.8882,0.2432 -0.85067,0 -1.79501,-0.0544 -2.09852,-0.12095 -0.30351,-0.0665 -0.81642,-0.17646 -1.1398,-0.24431 -0.32338,-0.0678 -1.19651,-0.29956 -1.94028,-0.51492 -2.62356,-0.75964 -3.394,-0.90547 -5.11528,-0.96821 -1.56138,-0.0569 -4.92456,0.0793 -7.76111,0.31422 -0.71143,0.0589 -2.00789,0.16626 -2.88102,0.23851 -4.77912,0.39543 -6.20188,0.48364 -8.87824,0.55041 -2.19366,0.0547 -3.78228,0.0207 -6.25909,-0.1342 -1.8256,-0.11415 -3.65123,-0.17339 -4.05695,-0.13165 -0.40571,0.0417 -0.83027,0.086 -0.94345,0.0983 -0.11318,0.0123 -0.20579,0.0458 -0.20579,0.0743 0,0.10085 0.63876,0.9009 0.93474,1.17077 0.53949,0.49189 2.35365,1.67336 3.31977,2.162 l 0.9459,0.4784 1.46602,0.0951 c 0.80632,0.0523 1.64066,0.15272 1.8541,0.22316 0.77102,0.25446 1.07517,0.92382 0.83896,1.84638 l -0.14489,0.5659 -0.75614,-0.0215 c -0.41588,-0.0118 -1.39114,-0.0812 -2.16725,-0.15404 -0.77611,-0.0729 -5.40632,-0.17868 -10.28935,-0.23513 -8.39699,-0.097 -10.18165,-0.15213 -15.40463,-0.47538 -3.03073,-0.18757 -5.5751,-0.3029 -5.64215,-0.25576 -0.0736,0.0517 1.35543,1.41565 3.07565,2.93562 l 1.36466,1.2058 0.57152,0.0775 c 1.28966,0.17495 1.46017,0.34719 2.50677,2.53214 0.87688,1.8306 1.0128,2.21982 1.42905,4.09216 0.24308,1.09338 0.40026,3.22259 0.29335,3.97389 -0.0709,0.49823 -0.0638,0.82489 0.0216,0.99954 0.35154,0.71849 0.41894,1.11034 0.25997,1.5115 -0.18308,0.46203 -0.45371,0.8055 -0.63548,0.80655 -0.0708,4.1e-4 -0.21891,0.15916 -0.32908,0.35278 -0.15215,0.26738 -0.28456,0.35203 -0.55064,0.35203 -0.24705,0 -0.37233,0.0693 -0.42497,0.23519 -0.0582,0.18321 -0.17792,0.23518 -0.54201,0.23518 -0.30482,0 -0.55516,0.0818 -0.7198,0.23519 -0.30716,0.28616 -0.53245,0.29736 -0.8162,0.0406 l -0.21505,-0.19461 v 0.23123 c 0,0.337 -0.43153,0.74596 -0.78714,0.74596 -0.20347,0 -0.45222,-0.15202 -0.73476,-0.44904 z m 0.95432,-0.85388 c 0.0435,-0.28587 0.12293,-0.81081 0.17639,-1.16653 0.0535,-0.35572 0.15013,-0.63678 0.21481,-0.62459 0.0647,0.0122 0.19315,0.38261 0.28551,0.82315 0.20463,0.97614 0.38934,1.16766 0.76442,0.79258 0.20567,-0.20567 0.2499,-0.81942 0.0672,-0.93234 -0.14531,-0.0898 -0.15598,-0.72675 -0.0136,-0.81472 0.11408,-0.0705 0.3103,0.36933 0.42543,0.95358 0.0939,0.4764 0.34774,0.7071 0.57268,0.52041 0.2069,-0.17171 0.31873,-1.1477 0.17486,-1.5261 -0.0608,-0.15997 -0.0813,-0.36707 -0.0456,-0.46021 0.12625,-0.32901 0.38664,0.0823 0.4689,0.74074 0.0856,0.68477 0.15991,0.80365 0.40711,0.65087 0.10981,-0.0679 0.13271,-0.23052 0.0775,-0.55081 -0.13688,-0.79471 -0.13113,-1.13625 0.02,-1.18806 0.0834,-0.0286 0.14699,0.0454 0.14699,0.17115 0,0.31608 0.26957,0.85439 0.4284,0.85547 0.0739,5.1e-4 0.16509,-0.079 0.20259,-0.17676 0.0837,-0.2181 -0.0356,-0.86222 -0.1758,-0.94884 -0.12533,-0.0774 -0.12201,-1.07936 0.006,-1.85983 0.0943,-0.57413 -0.0949,-2.50711 -0.32924,-3.36365 -0.48091,-1.75799 -1.96583,-5.02678 -2.53739,-5.58563 -0.27715,-0.271 -0.94716,-0.52919 -1.37325,-0.52919 -0.16107,0 -0.39592,-0.0926 -0.5219,-0.20578 -0.12597,-0.11319 -0.44022,-0.38508 -0.69833,-0.60422 -1.92184,-1.63168 -5.7606,-5.39378 -10.28827,-10.08283 -1.88019,-1.94721 -2.94201,-2.7839 -4.39705,-3.46479 -0.95319,-0.44605 -2.58447,-0.8546 -3.08681,-0.77308 -0.30655,0.0497 -0.42067,0.0151 -0.51185,-0.15522 -0.13675,-0.25552 -0.0402,-0.58907 0.17049,-0.58907 0.23543,0 3.05137,-3.108484 4.84886,-5.352614 0.20627,-0.25752 0.60745,-0.75926 0.89152,-1.11498 0.62402,-0.78143 2.38205,-3.337567 2.91155,-4.233327 0.96864,-1.63869 1.76033,-3.15032 1.76033,-3.36116 0,-0.0916 0.0529,-0.16662 0.11759,-0.16662 0.0647,0 0.11759,-0.0952 0.11759,-0.21167 0,-0.11641 0.0447,-0.26193 0.0993,-0.32338 0.0546,-0.0614 0.2185,-0.42921 0.36425,-0.81726 0.40477,-1.07778 0.43082,-1.14402 0.63733,-1.62089 0.10598,-0.24473 0.19269,-0.46855 0.19269,-0.49738 0,-0.0288 -0.22379,-0.16658 -0.4973,-0.30612 -1.18802,-0.60608 -5.03649,-3.30029 -5.9811,-4.18721 l -0.42238,-0.39658 -1.1106,0.86817 c -1.12365,0.87836 -3.12397,2.24977 -4.1087,2.81689 l -0.53721,0.30939 -0.37414,0.95582 c -0.20577,0.5257 -0.37413,1.11118 -0.37413,1.30107 0,0.19868 -0.0627,0.34526 -0.14768,0.34526 -0.0812,0 -0.21796,0.17198 -0.30384,0.38218 -0.26835,0.65675 -0.36783,0.90183 -0.48922,1.20532 -0.0647,0.16169 -0.17051,0.42627 -0.23519,0.58796 -0.0647,0.16169 -0.16343,0.41305 -0.21945,0.55857 -0.1289,0.33482 -0.30261,0.7692 -0.4585,1.14653 -0.0668,0.16169 -0.18506,0.47919 -0.26279,0.70555 -0.0777,0.22637 -0.18543,0.51741 -0.23933,0.64676 -0.0539,0.12935 -0.21079,0.57915 -0.34863,0.99954 -0.13784,0.42039 -0.29688,0.87018 -0.35341,0.99954 -0.14689,0.33609 -0.77597,2.449267 -0.99769,3.351377 -0.16394,0.66701 -1.45756,4.822634 -1.70218,5.468064 -0.45422,1.19847 -0.49295,2.63012 -0.10197,3.76936 l 0.25493,0.74284 0.95039,0.25312 c 1.04209,0.27755 1.94109,0.73446 3.50352,1.78066 0.56343,0.37728 1.07937,0.68595 1.14653,0.68595 0.0672,0 0.1221,0.0529 0.1221,0.1176 0,0.0647 0.058,0.11759 0.12884,0.11759 0.0709,0 0.2693,0.0996 0.44097,0.22142 0.35167,0.24946 0.90015,0.56639 2.01723,1.16564 1.10293,0.59165 2.63382,1.50825 3.61066,2.16182 0.46598,0.31177 0.90254,0.56686 0.97014,0.56686 0.0676,0 0.1229,0.0529 0.1229,0.11759 0,0.0647 0.0694,0.1176 0.15422,0.1176 0.0848,0 0.26781,0.10583 0.40666,0.23518 0.13884,0.12935 0.27839,0.23519 0.3101,0.23519 0.056,0 2.16065,1.35406 4.18371,2.69169 0.54876,0.36283 1.13084,0.7261 1.29352,0.80726 0.16267,0.0812 0.48098,0.30594 0.70735,0.49949 0.22636,0.19356 0.47772,0.35205 0.55856,0.35221 0.0808,1.5e-4 0.14699,0.0496 0.14699,0.10994 0,0.0603 0.10552,0.14316 0.23449,0.18409 0.12897,0.0409 0.30095,0.13863 0.38218,0.21711 0.0812,0.0785 0.69137,0.50882 1.35586,0.95633 0.6645,0.44751 1.27877,0.89577 1.36505,0.99614 0.0863,0.10037 0.27245,0.67796 0.41372,1.28353 0.53334,2.28614 0.59845,2.94018 0.57719,5.79824 -0.0154,2.07426 0.0193,2.85804 0.14225,3.21369 0.17781,0.51422 0.7975,1.26189 0.99254,1.19752 0.0673,-0.0222 0.158,-0.27429 0.20155,-0.56016 z m -33.61473,-16.9434 c 0.45531,-0.24295 1.25639,-1.17968 1.25639,-1.46915 0,-0.39365 -0.12978,-0.34611 -0.73726,0.27005 -0.63977,0.64891 -0.91664,0.63579 -0.92278,-0.0437 -0.002,-0.24354 -0.009,-0.63771 -0.016,-0.87593 -0.007,-0.23823 0.0603,-0.52033 0.14877,-0.62689 0.0884,-0.10656 0.65027,-0.42248 1.24852,-0.70204 1.38856,-0.64888 2.03458,-1.27208 2.19608,-2.11849 0.18735,-0.98192 0.3007,-1.35796 0.51854,-1.72025 0.13111,-0.21803 0.46583,-0.81975 0.74382,-1.33716 0.278,-0.51741 0.63113,-1.15241 0.78473,-1.41111 0.1536,-0.25871 0.30912,-0.56122 0.3456,-0.67226 0.0365,-0.11105 0.15487,-0.23 0.26308,-0.26434 0.183,-0.0581 0.25106,-0.23959 0.61889,-1.65043 0.0675,-0.2587 0.17039,-0.56226 0.22876,-0.67456 0.0584,-0.11231 0.10613,-0.285 0.10613,-0.38377 0,-0.0988 0.0517,-0.27147 0.11491,-0.383774 0.1187,-0.21092 0.66506,-1.81587 0.8301,-2.43845 0.0514,-0.19403 0.26025,-0.98778 0.46404,-1.76389 0.80602,-3.06968 1.29697,-4.661957 1.89448,-6.144217 0.0587,-0.14552 0.15958,-0.39687 0.22425,-0.55856 0.0647,-0.16169 0.17051,-0.42627 0.23519,-0.58796 0.0647,-0.16169 0.17051,-0.42628 0.23518,-0.58797 0.0647,-0.16169 0.17051,-0.42627 0.23519,-0.58796 0.0647,-0.16169 0.16343,-0.41304 0.21945,-0.55857 0.29299,-0.76106 0.5994,-1.4957 0.73501,-1.76229 0.20621,-0.40536 0.0974,-0.66128 -0.49048,-1.15347 l -0.59434,-0.49761 -0.84617,0.26638 c -0.46538,0.14651 -1.50762,0.39653 -2.31606,0.55561 -1.76042,0.3464 -2.46945,0.52834 -2.46945,0.63367 0,0.043 -0.0926,0.10857 -0.20579,0.1457 -0.35637,0.11688 -1.11734,0.60669 -1.12915,0.7268 -0.006,0.0633 0.20066,0.22091 0.45974,0.35026 0.8227,0.41076 1.67307,1.00224 1.86748,1.29895 l 0.18809,0.28705 -0.23741,0.20327 c -0.15603,0.1336 -0.2374,0.34748 -0.2374,0.62399 0,0.2314 -0.0475,0.47099 -0.10555,0.53244 -0.0581,0.0614 -0.13401,0.32338 -0.16879,0.58208 -0.0837,0.62234 -0.35793,1.84161 -0.64806,2.88102 -0.0632,0.226357 -0.22911,0.834897 -0.36872,1.352307 -0.25673,0.95146 -1.56331,4.97564 -1.75629,5.40926 -0.0576,0.12935 -0.22082,0.55269 -0.36278,0.940744 -0.14196,0.38806 -0.31295,0.83785 -0.37997,0.99954 -0.067,0.16169 -0.16062,0.39981 -0.20799,0.52917 -0.0474,0.12935 -0.14612,0.3807 -0.21945,0.55856 -0.0733,0.17786 -0.18625,0.45566 -0.25092,0.61735 -0.0647,0.16169 -0.17051,0.42628 -0.23519,0.58796 -0.0647,0.16169 -0.16343,0.41305 -0.21945,0.55857 -0.056,0.14552 -0.15693,0.39687 -0.22425,0.55856 -0.0673,0.16169 -0.21059,0.53211 -0.31839,0.82315 -0.21957,0.59277 -0.37595,0.74883 -1.89724,1.89335 -1.52725,1.149 -1.85752,1.54387 -2.39976,2.86915 -0.0529,0.12935 -0.13188,0.44685 -0.17546,0.70556 -0.0436,0.2587 -0.10765,0.62221 -0.14238,0.8078 -0.0793,0.42389 0.18611,1.56015 0.40735,1.74376 0.21852,0.18136 0.3792,-0.0607 0.38167,-0.57495 9.9e-4,-0.20638 0.0491,-0.40448 0.10697,-0.44023 0.0578,-0.0358 0.13519,-0.26377 0.17188,-0.50671 0.16854,-1.11606 0.22775,-1.33172 0.3538,-1.28874 0.17047,0.0581 0.15368,0.79624 -0.0353,1.55259 -0.24871,0.99528 -0.28729,1.6046 -0.10875,1.71772 0.41449,0.26262 0.47402,0.10639 0.64564,-1.69454 0.0421,-0.44175 0.11306,-0.66659 0.20126,-0.63762 0.1887,0.062 0.23697,0.9703 0.0839,1.57833 -0.0967,0.38416 -0.0919,0.56069 0.0203,0.7404 0.31779,0.50888 0.44357,0.2757 0.44357,-0.82235 0,-0.62716 0.0479,-1.05833 0.11759,-1.05833 0.0647,0 0.12098,0.19844 0.1251,0.44097 0.0168,0.985 0.088,1.25727 0.39896,1.52473 0.35647,0.30663 0.44986,0.32185 0.80659,0.1315 z m 62.52213,-2.0828 c 0,-0.25079 -0.0661,-0.51063 -0.14699,-0.57744 -0.0808,-0.0668 -0.75553,-0.13943 -1.4993,-0.16139 -1.18035,-0.0348 -1.44005,-0.081 -2.04221,-0.36309 -0.68129,-0.31913 -2.9003,-1.59801 -3.01428,-1.73721 -0.0323,-0.0395 -0.29692,-0.23432 -0.58796,-0.43295 -0.29104,-0.19862 -0.93622,-0.80917 -1.43374,-1.35677 -0.74873,-0.82412 -0.99789,-1.02177 -1.44625,-1.1473 -0.94166,-0.26365 -1.63389,0.0486 -2.99964,1.35323 l -0.76435,0.73012 -1.0115,0.15035 c -1.91012,0.2839 -5.12159,-0.007 -8.5135,-0.77219 -1.36714,-0.30826 -6.88066,-1.77042 -8.17269,-2.16735 -0.16168,-0.0497 -0.5321,-0.15541 -0.82314,-0.23496 -0.29104,-0.0795 -0.635,-0.18548 -0.76436,-0.23542 -0.12935,-0.0499 -0.47331,-0.15587 -0.76435,-0.23541 -0.29104,-0.0795 -0.66146,-0.18528 -0.82315,-0.23496 -0.16168,-0.0497 -0.5321,-0.15295 -0.82314,-0.22951 -0.29104,-0.0766 -0.69168,-0.18853 -0.8903,-0.24882 -0.19862,-0.0603 -0.93945,-0.10956 -1.64629,-0.10948 l -1.28517,1.4e-4 -0.34478,0.2965 c -0.36941,0.3177 -0.57399,0.32613 -0.63221,0.026 -0.0375,-0.19352 0.33264,-0.60394 1.33438,-1.47941 2.87279,-2.51069 6.71325,-6.228884 8.69724,-8.420354 1.41078,-1.55832 1.91777,-2.064017 2.82222,-2.815047 1.15261,-0.95709 1.09588,-0.91473 2.31221,-1.72654 2.12306,-1.41698 2.81418,-2.15708 3.26557,-3.497 0.26465,-0.78559 0.30574,-1.66663 0.11612,-2.48953 -0.17002,-0.73788 -0.73954,-1.87427 -1.16236,-2.31935 -0.34784,-0.36615 -0.46283,-0.77964 -0.25289,-0.90939 0.1649,-0.10191 0.92362,0.85854 1.35712,1.71796 1.10389,2.1885 0.6919,4.62476 -1.08697,6.42773 -0.43221,0.43806 -0.93136,0.89861 -1.10922,1.02344 -0.38109,0.26748 -0.38586,0.29157 -0.11759,0.59392 0.11318,0.12756 0.49491,0.5741 0.84828,0.99231 2.13085,2.521857 4.16104,4.457087 7.93992,7.568527 1.42433,1.172774 3.44342,3.135984 4.42072,4.298374 0.80704,0.95991 1.6913,1.85082 2.26395,2.28099 0.38707,0.29076 0.48715,0.31781 0.76194,0.20592 0.22852,-0.0931 0.93666,-0.0938 2.55061,-0.003 1.22884,0.0693 3.87467,0.15305 5.87963,0.18615 3.82064,0.0631 5.9654,-0.0454 13.11157,-0.6631 4.78392,-0.41351 8.99333,-0.56087 10.17099,-0.35606 1.18434,0.20598 2.62335,0.55022 4.17531,0.99881 2.34472,0.67775 3.77544,0.90632 5.23287,0.83601 l 0.94074,-0.0454 v -0.27674 c 0,-0.20692 -0.0742,-0.28609 -0.29398,-0.31378 -0.7684,-0.0968 -2.21501,-0.74468 -2.71677,-1.21671 -0.77872,-0.73258 -2.11481,-1.85478 -2.91236,-2.44611 -0.54311,-0.40269 -1.1299,-0.95827 -1.34259,-1.27116 -0.52094,-0.76638 -1.11107,-1.320184 -1.40678,-1.320184 -0.49393,0 -1.30109,0.331484 -3.08678,1.267664 -1.26872,0.66514 -2.17112,0.8731 -4.06522,0.93684 -2.23479,0.0752 -4.35583,-0.25815 -7.34126,-1.1538 -0.45274,-0.13582 -1.00836,-0.29848 -1.23473,-0.36147 -0.22636,-0.063 -0.59678,-0.16798 -0.82314,-0.23331 -0.22637,-0.0653 -0.61002,-0.16818 -0.85255,-0.22855 -0.24254,-0.0604 -0.66587,-0.165734 -0.94074,-0.234124 -1.36102,-0.33863 -1.94787,-0.39341 -4.14514,-0.38691 -2.23444,0.007 -2.96116,0.0765 -4.17454,0.40134 -0.29104,0.0779 -1.02501,0.16476 -1.63105,0.192994 -1.1483,0.0535 -1.62272,-0.0524 -2.06589,-0.460904 -0.12538,-0.11558 -0.29118,-0.21014 -0.36846,-0.21014 -0.0773,0 -0.17081,-0.0926 -0.20785,-0.20579 -0.037,-0.11318 -0.20949,-0.44391 -0.38323,-0.73495 -0.17374,-0.29104 -0.44843,-0.76729 -0.61041,-1.05833 -1.62804,-2.92515 -3.71977,-6.099727 -5.03633,-7.643517 -0.13789,-0.16169 -0.50007,-0.58503 -0.80484,-0.94074 -0.82692,-0.96515 -2.65692,-2.67537 -3.08157,-2.87987 -0.91819,-0.44219 -1.63371,-1.86198 -1.92658,-3.82291 -0.3753,-2.51277 -0.69073,-3.48402 -1.56581,-4.8213 -0.77943,-1.19111 -3.58797,-3.53007 -4.68895,-3.90497 -0.21076,-0.0718 -0.59486,-0.26967 -0.85356,-0.43979 -0.25871,-0.17012 -0.73496,-0.43747 -1.05834,-0.59413 -0.97609,-0.47284 -1.55013,-0.91014 -2.68242,-2.04345 -0.5943,-0.59484 -1.55679,-1.50235 -2.13887,-2.01669 -0.58209,-0.51434 -2.35479,-2.23808 -3.93935,-3.83053 -3.00591,-3.02087 -4.13802,-3.96329 -5.7067,-4.75053 -0.51551,-0.2587 -0.96374,-0.49713 -0.99608,-0.52984 -0.0323,-0.0327 -0.24401,-0.19735 -0.47037,-0.36588 -0.22637,-0.16853 -0.67616,-0.55692 -0.99954,-0.86309 -1.44005,-1.36341 -2.63598,-2.07453 -4.42891,-2.63352 -1.72384,-0.53745 -3.23821,-0.78041 -4.80211,-0.77042 -0.65993,0.004 -3.13302,0.25389 -3.99815,0.40364 -2.74568,0.47527 -3.72899,0.42773 -5.15728,-0.24933 l -0.39478,-0.18714 -0.87856,0.82932 c -1.12101,1.05818 -1.5086,1.31747 -2.12509,1.42162 l -0.49892,0.0843 v 0.39571 c 0,0.42482 -0.19411,0.95206 -0.44829,1.21761 -0.11508,0.12023 -0.12103,0.18634 -0.0223,0.24738 0.18661,0.11533 0.37441,0.85982 0.43757,1.7346 l 0.0531,0.73496 h 0.28863 c 0.37582,0 1.16391,0.40575 1.62185,0.83503 0.19938,0.18689 0.40219,0.34005 0.4507,0.34035 0.0485,3e-4 0.0882,0.13284 0.0882,0.29453 0,0.2954 -0.26724,0.40993 -0.41157,0.17638 -0.18286,-0.29586 -0.28087,-0.0436 -0.3313,0.85255 -0.12461,2.21455 -0.32074,8.0756 -0.34655,10.35629 l -0.0277,2.44819 0.23518,0.13686 c 0.12935,0.0753 0.44685,0.20649 0.70556,0.29161 0.2587,0.0851 0.60266,0.21215 0.76435,0.28231 0.53167,0.23068 0.75238,0.31287 1.86392,0.69408 1.24152,0.4258 1.25573,0.42083 1.37317,-0.4804 0.0379,-0.29105 0.11767,-0.7673 0.17719,-1.05834 0.14061,-0.68748 0.55055,-4.06424 0.68524,-5.64444 0.0579,-0.6791 0.13822,-1.3141 0.17854,-1.41111 0.044,-0.10588 -0.0585,-0.31742 -0.25633,-0.52917 -0.46079,-0.49317 -1.59793,-2.02908 -1.89359,-2.55764 -0.13566,-0.24253 -0.35249,-0.62779 -0.48185,-0.85612 -0.24313,-0.42919 -0.30932,-0.93626 -0.13616,-1.04328 0.0545,-0.0337 0.21516,0.16166 0.35711,0.43403 0.65194,1.25091 1.17116,2.03551 1.98177,2.99468 0.91077,1.0777 2.36226,2.47834 3.32011,3.20379 0.21348,0.16169 0.48248,0.37336 0.59776,0.47037 0.502,0.42244 0.66431,0.54876 1.05256,0.81916 0.22637,0.15765 0.43804,0.3182 0.47037,0.35677 0.0323,0.0386 0.24401,0.19813 0.47037,0.35457 0.22637,0.15645 0.47904,0.34987 0.56149,0.42983 0.55402,0.53728 2.43426,1.80264 2.67861,1.80264 0.17116,0 -0.0132,-0.904 -0.4635,-2.27229 -0.46063,-1.3998 -1.96749,-4.67032 -2.85401,-6.19438 -0.77572,-1.33357 -1.80119,-3.41012 -1.97045,-3.99009 -0.34325,-1.17619 -0.14181,-3.50823 0.34545,-3.99921 0.29865,-0.30092 0.34026,-0.0209 0.12196,0.8207 -0.26762,1.03184 -0.20556,2.32897 0.16295,3.40564 0.24669,0.72075 1.15117,2.69453 1.29327,2.82222 0.036,0.0323 0.13656,0.18511 0.22349,0.33949 0.31691,0.56284 0.61191,1.08135 0.86056,1.51259 0.93252,1.61727 1.75744,3.51604 2.20956,5.08588 0.13971,0.48507 0.30395,1.04445 0.365,1.24307 0.061,0.19862 0.11099,0.45184 0.11099,0.56271 0,0.11086 0.0791,0.32228 0.17576,0.46981 0.14195,0.21664 0.1476,0.30528 0.0294,0.46083 -0.0805,0.10593 -1.12532,0.68917 -2.32182,1.29608 -2.11574,1.07319 -2.55818,1.30918 -4.52732,2.41475 -1.04905,0.58899 -1.85574,1.03001 -2.64583,1.4465 -0.29104,0.15341 -0.55562,0.30548 -0.58796,0.33792 -0.0323,0.0324 -0.21755,0.13819 -0.41158,0.235 -0.19402,0.0968 -0.37923,0.20256 -0.41157,0.235 -0.0323,0.0324 -0.27046,0.17275 -0.52917,0.31181 -0.83593,0.44933 -1.28149,0.70373 -1.89448,1.08171 -0.9747,0.60099 -1.2911,0.54684 -3.73863,-0.63983 -0.18779,-0.091 -0.5191,-0.16554 -0.73623,-0.16554 -0.60327,0 -1.92093,0.6578 -1.92093,0.95896 0,0.16185 0.45459,0.11357 0.84847,-0.0901 0.42251,-0.21848 1.2832,-0.16993 1.52596,0.0861 0.0846,0.0892 0.23064,0.31099 0.32455,0.49284 0.14569,0.28212 0.14699,0.3684 0.009,0.58797 -0.22467,0.35713 -0.54345,1.01077 -0.70535,1.44628 -0.10632,0.286 -0.24338,0.39621 -0.62827,0.50519 -0.5778,0.1636 -1.04901,0.3789 -1.15724,0.52875 -0.0423,0.0586 -0.27027,-0.007 -0.50649,-0.14681 -0.51578,-0.30431 -1.75965,-0.36376 -1.86504,-0.0891 -0.0417,0.10856 0.0438,0.1847 0.252,0.22451 0.17328,0.0331 0.63254,0.14254 1.0206,0.24312 0.94604,0.24521 1.41004,0.23584 2.17546,-0.0439 0.82731,-0.30239 1.05833,-0.30098 1.05833,0.006 0,0.39712 -1.1528,0.84026 -2.17545,0.83625 -0.45301,-0.002 -0.97251,-0.0598 -1.15444,-0.12899 -0.43585,-0.16571 -1.28711,-0.16023 -1.66226,0.0107 -0.35039,0.15965 -0.37,0.24654 -0.10529,0.4665 0.31588,0.26247 3.39513,0.29675 4.1495,0.0462 0.72553,-0.24099 1.11261,-0.20179 1.15833,0.11729 0.0293,0.20429 -0.10157,0.27503 -0.94074,0.50863 -0.84026,0.2339 -1.18973,0.26606 -2.53307,0.23308 -1.5624,-0.0383 -1.8164,0.0335 -1.19337,0.33771 0.47407,0.23145 2.36493,0.32656 3.01181,0.1515 0.30967,-0.0838 0.61596,-0.18843 0.68063,-0.2325 0.34699,-0.23641 1.49168,-0.60165 1.78165,-0.56848 0.55284,0.0633 0.43978,0.43951 -0.19415,0.64609 -0.29104,0.0948 -0.75348,0.27471 -1.02765,0.3997 -0.27417,0.125 -0.57532,0.22727 -0.66922,0.22727 -0.0939,0 -0.20343,0.0529 -0.24341,0.11759 -0.0421,0.0682 -0.68717,0.11759 -1.53564,0.11759 -1.1648,0 -1.46297,0.033 -1.46297,0.16213 0,0.0892 0.15902,0.22799 0.35337,0.30849 0.35106,0.14541 0.55722,0.13607 2.41006,-0.10915 1.4876,-0.19688 2.20567,-0.4273 3.01373,-0.96705 0.36403,-0.24317 0.69476,-0.40923 0.73495,-0.36904 0.29276,0.29276 -0.27131,0.9266 -1.29158,1.45134 -0.28506,0.14661 -0.50473,0.27986 -0.48816,0.2961 0.0419,0.0411 1.02098,-0.23385 1.40758,-0.3953 0.48716,-0.20345 1.14947,-0.95256 1.77557,-2.00825 0.31129,-0.52488 0.62879,-1.02092 0.70555,-1.10231 0.0768,-0.0814 0.28254,-0.33318 0.45728,-0.55955 0.56802,-0.73586 1.08563,-1.25427 1.47559,-1.47787 0.21019,-0.12052 0.38217,-0.26064 0.38217,-0.31137 0,-0.0507 0.0701,-0.0922 0.15589,-0.0922 0.0857,0 0.27879,-0.13082 0.42899,-0.2907 0.29078,-0.30952 0.96253,-0.53534 2.29614,-0.77191 2.06343,-0.36602 3.89091,-0.91918 5.96783,-1.80642 0.82489,-0.35239 1.32278,-0.58755 1.38171,-0.65262 0.0323,-0.0357 0.17786,-0.13107 0.32338,-0.21192 0.66435,-0.36908 0.79475,-0.45025 0.94459,-0.58796 0.088,-0.0808 0.2053,-0.14699 0.26073,-0.14699 0.0554,0 0.17072,-0.0679 0.25619,-0.15086 0.0855,-0.083 0.3406,-0.27943 0.56696,-0.43657 0.33898,-0.23531 1.57764,-1.18178 2.35414,-1.79883 0.0983,-0.0781 0.42679,-0.32719 0.73003,-0.55355 0.30324,-0.22637 0.57106,-0.4645 0.59516,-0.52917 0.0451,-0.12099 -0.0655,-1.28348 -0.20136,-2.11667 -0.56338,-3.45558 -1.59699,-7.03488 -3.12412,-10.81852 -0.0522,-0.12935 -0.15853,-0.42039 -0.23626,-0.64676 -0.17095,-0.49784 -0.34438,-0.92908 -0.48409,-1.20372 -0.0571,-0.11231 -0.10387,-0.30762 -0.10387,-0.43404 0,-0.12641 -0.0529,-0.26254 -0.11759,-0.30251 -0.0647,-0.04 -0.11759,-0.17611 -0.11759,-0.30252 0,-0.12641 -0.0458,-0.32173 -0.10183,-0.43403 -0.25718,-0.5157 -0.36423,-1.01986 -0.24206,-1.14003 0.16119,-0.15855 0.46148,0.23095 0.46148,0.59859 0,0.14551 0.0529,0.29727 0.11759,0.33725 0.0647,0.04 0.11759,0.19872 0.11759,0.35277 0,0.15406 0.0529,0.31281 0.1176,0.35278 0.0647,0.04 0.11759,0.17611 0.11759,0.30252 0,0.12641 0.0488,0.32173 0.10846,0.43403 0.0597,0.11231 0.26716,0.62753 0.46113,1.14493 0.19396,0.51741 0.48915,1.29382 0.65597,1.72536 0.57606,1.49018 1.2569,3.58718 1.5874,4.88923 0.26207,1.03246 0.35038,1.39617 0.46398,1.91088 0.0642,0.29104 0.17052,0.76729 0.23621,1.05833 0.29137,1.2911 0.46124,2.26197 0.55961,3.19858 0.0461,0.43902 0.14683,0.73951 0.29188,0.87077 0.12181,0.11024 0.22147,0.24392 0.22147,0.29707 0,0.0531 -0.26082,0.30279 -0.5796,0.55477 l -0.5796,0.45815 0.37382,0.35161 c 0.76113,0.71594 4.06951,3.08849 4.30671,3.08849 0.0682,0 0.12404,0.0468 0.12404,0.10388 0,0.0571 0.0926,0.13518 0.20579,0.17344 0.11318,0.0383 0.73495,0.37836 1.38171,0.75578 0.84946,0.4957 1.17593,0.74953 1.17593,0.91429 0,0.2387 -0.21488,0.2698 -0.73671,0.10662 -0.21524,-0.0673 -0.2522,-0.0465 -0.19268,0.10865 0.0635,0.16539 -0.0731,0.61214 -0.55199,1.80609 -0.0584,0.14552 -0.15387,0.38365 -0.21222,0.52917 -0.95518,2.38191 -2.83829,5.69958 -4.45528,7.849307 -0.21892,0.29104 -0.51248,0.68317 -0.65236,0.87139 -0.53853,0.72468 -2.3529,2.9726 -2.7634,3.42374 -0.2369,0.26035 -0.77469,0.86883 -1.19509,1.35218 -0.42039,0.48335 -0.88341,1.000354 -1.02893,1.148884 -0.37059,0.37825 -0.33521,0.46209 0.23518,0.55728 0.6622,0.1105 1.98812,0.59212 2.65472,0.96429 1.5182,0.84758 2.51655,1.7436 5.60616,5.03144 0.84079,0.89473 2.08536,2.18625 2.76571,2.87004 l 1.23701,1.24325 0.52688,0.006 c 0.47924,0.005 1.93306,0.084 7.64124,0.41516 5.12843,0.2975 7.49493,0.3692 15.40463,0.46672 4.689,0.0578 8.94879,0.15084 9.4662,0.20673 1.59827,0.17263 1.46991,0.20017 1.46991,-0.31541 z m -86.53979,-7.01116 c -0.24772,-3.32728 -0.50857,-5.409384 -0.95023,-7.584714 -0.17596,-0.86663 -0.18687,-1.32866 -0.0326,-1.38018 0.0806,-0.0269 0.17301,0.0967 0.21242,0.28409 0.0384,0.18245 0.11454,0.5434 0.16926,0.8021 0.56021,2.64854 0.78682,3.998974 0.96692,5.762034 0.0793,0.77611 0.16391,1.30528 0.18807,1.17593 0.0242,-0.12935 0.20087,-0.76435 0.39267,-1.41111 0.28732,-0.96885 0.37155,-1.5437 0.47831,-3.264514 0.11316,-1.82395 0.10697,-2.11451 -0.0488,-2.29306 -0.16854,-0.19317 -0.63142,-2.10893 -0.91599,-3.79103 -0.0711,-0.4204 -0.17914,-0.990007 -0.24005,-1.265807 -0.13902,-0.62954 -0.14601,-2.96753 -0.009,-2.96753 0.056,0 0.13551,0.51594 0.17663,1.14653 0.0915,1.40344 0.26007,2.484977 0.6644,4.262727 0.0662,0.29104 0.15284,0.7289 0.19256,0.97301 0.0397,0.24411 0.11072,0.46764 0.15779,0.49673 0.0941,0.0581 0.0246,-4.493537 -0.0763,-4.997957 -0.0367,-0.18374 0.003,-0.38275 0.0966,-0.48008 0.29339,-0.30604 0.89636,-1.28629 1.22343,-1.98892 0.10537,-0.22637 0.24793,-0.53041 0.31679,-0.67565 0.0689,-0.14524 0.12314,-0.72732 0.12062,-1.29352 l -0.005,-1.02944 -0.36941,-0.69116 c -0.20317,-0.38014 -0.58443,-0.94797 -0.84723,-1.26186 -0.4597,-0.54906 -0.55467,-0.91611 -0.26224,-1.01348 0.0763,-0.0254 0.39506,0.34064 0.70843,0.81341 0.9724,1.46701 1.14845,1.98505 1.14076,3.35678 -0.003,0.59735 -0.0608,1.20589 -0.12773,1.35231 -0.0669,0.14642 -0.23498,0.49612 -0.37352,0.7771 -0.13854,0.28099 -0.25188,0.56464 -0.25188,0.63035 0,0.22498 0.81566,-0.78791 1.17884,-1.46388 l 0.36288,-0.67544 -0.02,-2.26438 -0.02,-2.26438 -0.36868,-0.70556 c -0.20277,-0.38805 -0.39544,-0.73201 -0.42815,-0.76435 -0.0327,-0.0323 -0.19758,-0.244 -0.36639,-0.47037 -0.56526,-0.75799 -1.57022,-1.73885 -1.8672,-1.82242 -1.29141,-0.36342 -2.6094,-1.45012 -3.63315,-2.99559 -0.841,-1.26959 -1.00142,-1.58886 -0.91348,-1.81804 0.10449,-0.27228 0.25287,-0.22512 0.43755,0.13906 0.57352,1.13096 1.83857,2.68724 2.63918,3.24676 1.3007,0.90901 2.95887,1.15062 4.113,0.59929 l 0.46763,-0.22338 -0.59561,-0.17974 c -0.85008,-0.25653 -1.83796,-0.95392 -2.46188,-1.73796 -0.84408,-1.06071 -1.07423,-1.59087 -1.45479,-3.35127 -0.0594,-0.27487 -0.17648,-0.81726 -0.26011,-1.20532 -0.31615,-1.46683 -0.81946,-2.33958 -1.54881,-2.68568 -0.23316,-0.11064 -0.50561,-0.28285 -0.60544,-0.38268 -0.25527,-0.25527 -0.58577,-0.1194 -1.27744,0.52513 -1.60743,1.49791 -2.7705,3.739 -3.27277,6.30619 -0.35518,1.81543 -0.53304,4.96951 -0.34723,6.15775 0.0999,0.63919 0.10096,0.90762 0.004,1.02463 -0.0889,0.10712 -0.10957,0.57005 -0.0637,1.42698 0.0373,0.69763 0.10097,2.45234 0.14141,3.89935 0.0723,2.5876 0.0583,2.78875 -0.32785,4.71861 -0.17144,0.856737 -0.75633,2.058557 -1.17208,2.408397 -0.42985,0.36169 -0.42079,0.42459 0.0482,0.33463 1.42678,-0.27369 2.44466,-2.15761 2.49358,-4.615167 0.005,-0.23424 0.0767,-0.42513 0.17248,-0.45706 0.13727,-0.0457 0.15159,0.15563 0.0866,1.21759 -0.10246,1.674467 -0.34481,2.437467 -1.08027,3.400977 -0.41304,0.54111 -0.51605,1.03252 -0.30305,1.44579 1.21188,2.35141 1.50743,3.63441 1.14959,4.990394 -0.0802,0.30408 -0.18375,0.59071 -0.23,0.63696 -0.0462,0.0462 -0.0841,0.18934 -0.0841,0.31797 v 0.23388 l 0.27184,-0.31636 c 0.14951,-0.17399 0.33821,-0.51295 0.41934,-0.75324 0.0811,-0.24029 0.19139,-0.54273 0.24502,-0.67208 0.19785,-0.4772 0.35271,-1.576514 0.48039,-3.410184 0.1222,-1.75486 0.28246,-2.64584 0.47594,-2.64584 0.16331,0 0.21448,0.36288 0.0953,0.67621 -0.0672,0.17676 -0.17765,1.46406 -0.24542,2.86065 l -0.12323,2.539274 0.24076,0.98948 c 0.13242,0.54422 0.27793,1.42949 0.32336,1.96728 0.1259,1.49024 0.30297,0.9894 0.26677,-0.75458 -0.0601,-2.895684 -0.0361,-3.754934 0.12559,-4.489394 0.27255,-1.23833 0.57787,-1.08878 0.3767,0.18452 -0.0686,0.43398 -0.14712,1.702804 -0.17456,2.819594 l -0.0499,2.03052 0.23176,0.47969 c 0.26998,0.5588 0.82121,2.29833 1.07638,3.39675 l 0.17756,0.76436 0.01,-2.16839 c 0.01,-2.11951 -0.0784,-3.00765 -0.4129,-4.16571 -0.21451,-0.74269 -0.2088,-0.92367 0.0277,-0.87706 0.11581,0.0228 0.269,0.28129 0.38335,0.64675 0.10475,0.3348 0.22961,0.64789 0.27748,0.69575 0.0479,0.0479 0.087,0.19352 0.087,0.32367 0,0.29327 0.18866,0.90504 0.57676,1.87022 0.0585,0.14552 0.2792,0.71437 0.49041,1.26412 0.21121,0.54974 0.54699,1.34349 0.74616,1.76389 l 0.36213,0.76435 0.0404,-0.70556 c 0.0222,-0.38805 -0.0187,-1.4993 -0.0909,-2.46944 z m 73.22457,1.93357 c 1.29846,-1.21262 2.16856,-1.59343 3.20692,-1.40355 0.26127,0.0478 0.4417,0.0539 0.40096,0.0136 -0.0407,-0.0403 -0.42515,-0.47014 -0.85424,-0.95521 -0.86064,-0.97292 -3.24422,-3.37878 -4.25508,-4.29486 -0.59155,-0.536084 -2.33242,-1.957964 -3.45443,-2.821464 -0.25069,-0.19294 -0.58096,-0.44748 -0.73392,-0.56564 l -0.27812,-0.21485 -0.98596,0.1206 c -0.97419,0.11917 -1.77956,0.0778 -4.42535,-0.22741 -1.27024,-0.14652 -3.2138,-0.42638 -3.99815,-0.57571 -0.29104,-0.0554 -0.84649,-0.15791 -1.23433,-0.22777 l -0.70516,-0.12703 -1.34054,1.32147 c -0.7373,0.72681 -1.56158,1.53314 -1.83174,1.79184 -1.05822,1.01334 -4.37152,4.057254 -4.63265,4.255994 -0.16703,0.12713 -0.14696,0.14673 0.15354,0.14998 0.36914,0.004 1.54166,0.19712 2.12375,0.34979 0.77964,0.20449 1.42337,0.39105 1.6463,0.4771 0.12935,0.0499 0.47331,0.15587 0.76435,0.23542 0.29104,0.0796 0.66146,0.18528 0.82315,0.23495 0.16169,0.0497 0.5321,0.15551 0.82314,0.23519 0.29105,0.0797 0.66146,0.18551 0.82315,0.23518 0.16169,0.0497 0.53211,0.15653 0.82315,0.23745 0.29104,0.0809 0.68792,0.1926 0.88195,0.24819 1.82138,0.52184 5.62725,1.49395 6.82037,1.74209 3.01906,0.62789 3.80506,0.70476 6.5667,0.6422 l 1.9806,-0.0449 z m -80.0533,-4.5206 c 0,-0.0323 -0.0265,-0.0588 -0.0588,-0.0588 -0.0323,0 -0.0588,0.0265 -0.0588,0.0588 0,0.0323 0.0265,0.0588 0.0588,0.0588 0.0323,0 0.0588,-0.0265 0.0588,-0.0588 z m 107.58741,-5.227864 c 0.45158,-0.23038 0.59778,-0.43086 0.59778,-0.81975 0,-0.1774 -0.10673,-0.20589 -0.73496,-0.19617 l -0.73495,0.0114 -0.036,-0.25295 c -0.0317,-0.22221 0.0529,-0.27223 0.69594,-0.41157 0.91472,-0.19822 1.06625,-0.45261 0.2696,-0.45261 -0.308,0 -0.74062,0.0653 -0.96137,0.14514 l -0.40136,0.14513 -0.17094,-0.23333 -0.17094,-0.23332 0.2536,-0.20579 c 0.13948,-0.11318 0.3668,-0.20747 0.50515,-0.20953 0.13836,-0.002 0.35428,-0.0814 0.47982,-0.17639 l 0.22826,-0.17265 h -0.31805 c -0.17493,0 -0.42317,0.0529 -0.55164,0.1176 -0.12848,0.0647 -0.33364,0.16734 -0.45592,0.22815 -0.15389,0.0765 -0.28963,0.0606 -0.44097,-0.0516 l -0.21864,-0.16217 0.18332,-0.18631 c 0.10083,-0.10247 0.36259,-0.28245 0.5817,-0.39996 0.87519,-0.46937 0.38562,-0.74428 -0.55697,-0.31276 -0.70401,0.32231 -0.85481,0.30397 -0.85481,-0.10396 0,-0.20071 0.12075,-0.32363 0.47467,-0.48323 0.57839,-0.260817 0.40728,-0.424647 -0.2807,-0.268757 -0.57566,0.130437 -0.80503,0.0957 -1.89907,-0.28754 -1.59484,-0.55868 -4.59993,-0.728 -5.64932,-0.3183 -0.36827,0.14378 -2.23093,0.0899 -4.22845,-0.12236 -0.58209,-0.0618 -1.77271,-0.16788 -2.64584,-0.23563 -3.31595,-0.25731 -4.37114,-0.41801 -6.17361,-0.94021 -0.2587,-0.075 -0.67882,-0.119 -0.9336,-0.0979 -0.41201,0.0341 -0.44368,0.0579 -0.28637,0.21477 0.243,0.24235 1.69609,2.425327 2.44193,3.668517 l 0.61354,1.02269 0.55216,0.0944 c 1.35406,0.2316 4.1892,0.0809 6.1378,-0.32635 0.87355,-0.18254 3.28028,-0.26842 3.58028,-0.12775 0.13282,0.0623 0.42669,0.17683 0.65306,0.25456 0.22636,0.0777 0.5174,0.18356 0.64676,0.23518 0.72627,0.28985 2.89159,0.94517 4.29213,1.29901 1.66097,0.41963 2.58664,0.55641 3.85584,0.56975 0.98642,0.0104 1.29338,-0.0298 1.66119,-0.21745 z m -34.71209,-1.04266 0.49708,-0.0795 -0.97316,-0.99954 c -0.93369,-0.959 -2.33811,-2.594627 -3.07958,-3.586567 -0.19338,-0.2587 -0.41428,-0.53683 -0.49089,-0.61806 -0.0766,-0.0812 -0.17189,-0.2504 -0.21173,-0.37593 -0.0633,-0.19942 -0.0977,-0.20759 -0.27229,-0.0647 -0.10991,0.09 -0.54356,0.4179 -0.96366,0.72872 -0.86078,0.63686 -3.99868,3.682667 -3.99868,3.881327 0,0.071 0.2249,0.15838 0.49977,0.19419 0.27487,0.0358 0.81727,0.12053 1.20532,0.18828 1.46834,0.25634 3.65171,0.53254 5.52686,0.69916 1.38819,0.12334 1.66797,0.12737 2.26096,0.0326 z m -40.86669,-6.752857 c 0.64523,-0.63763 0.79971,-0.92085 0.79971,-1.46621 v -0.44047 l -0.29685,0.43685 c -0.16326,0.24027 -0.46302,0.74203 -0.66611,1.11503 -0.2031,0.373 -0.42671,0.71706 -0.49691,0.76458 -0.0883,0.0598 -0.0842,0.0869 0.0134,0.0882 0.0776,9.9e-4 0.36862,-0.2231 0.64676,-0.49797 z m 11.51456,-6.12011 c 0.17231,-0.43867 0.18418,-0.55327 0.0573,-0.55327 -0.1576,0 -1.01946,0.32866 -1.12468,0.42889 -0.0785,0.0748 0.62278,0.73771 0.74601,0.70515 0.0573,-0.0151 0.20188,-0.27648 0.32141,-0.58077 z m -5.59957,-4.57591 c 1.57411,-0.87891 4.45183,-2.41265 5.55524,-2.96077 0.34236,-0.17007 0.3127,-0.23032 -0.33877,-0.68822 -0.30007,-0.2109 -0.88215,-0.66547 -1.29352,-1.01015 -0.93301,-0.78175 -1.00717,-0.8402 -1.51231,-1.19201 -0.22636,-0.15765 -0.43803,-0.31819 -0.47037,-0.35676 -0.0323,-0.0386 -0.244,-0.19813 -0.47037,-0.35458 -0.22636,-0.15644 -0.4715,-0.3391 -0.54475,-0.4059 -0.0733,-0.0668 -0.36429,-0.30556 -0.64676,-0.53057 -0.28247,-0.22501 -0.86466,-0.74373 -1.29376,-1.15272 l -0.78019,-0.74362 -0.0726,1.21152 c -0.0824,1.37443 -0.23597,2.91699 -0.41923,4.21013 -0.0687,0.48507 -0.17393,1.2259 -0.23375,1.64629 -0.0598,0.4204 -0.15761,1.04377 -0.21732,1.38528 -0.075,0.42921 -0.0691,0.64706 0.0191,0.70556 0.25457,0.1687 1.66249,0.81399 1.71979,0.78822 0.0323,-0.0145 0.48213,-0.26281 0.99954,-0.5517 z m -23.45507,-0.0729 c 0.28848,-0.12533 0.92138,-0.52306 1.40645,-0.88384 0.48507,-0.36077 1.10713,-0.77229 1.38236,-0.91449 0.56896,-0.29396 1.86169,-1.72862 2.27934,-2.52962 l 0.27766,-0.53249 -0.40714,-0.34329 c -0.22392,-0.1888 -0.46529,-0.34328 -0.53639,-0.34328 -0.0711,0 -0.24979,-0.11229 -0.39711,-0.24954 l -0.26785,-0.24954 -0.33752,0.24954 c -0.48144,0.35594 -0.58223,0.31407 -0.58223,-0.24188 0,-0.57831 -0.22139,-1.27231 -0.47037,-1.47452 -0.097,-0.0788 -0.38307,-0.14493 -0.63566,-0.14699 -0.5863,-0.005 -1.24583,-0.47681 -1.24583,-0.89167 0,-0.37628 0.0672,-0.36389 0.51139,0.0942 l 0.37056,0.38218 0.0356,-0.48767 c 0.0267,-0.36681 0.0923,-0.50251 0.26458,-0.54755 0.31759,-0.0831 0.28619,-0.29609 -0.0674,-0.45719 -0.2237,-0.10192 -0.51934,-0.10111 -1.20532,0.003 -0.49991,0.0761 -1.15511,0.138 -1.45599,0.13757 l -0.54706,-7.8e-4 -0.11328,0.32497 c -0.14797,0.42446 -0.70826,1.08615 -0.91972,1.08615 -0.24846,0 -0.20352,-0.15555 0.18684,-0.64676 0.44463,-0.55949 0.44262,-0.77144 -0.0122,-1.28943 -0.68469,-0.77982 -1.02633,-0.40122 -0.87767,0.97261 0.0756,0.69865 -0.0836,1.24003 -0.23052,0.78389 -0.0411,-0.12754 -0.1233,-0.35344 -0.18271,-0.50201 -0.14837,-0.37099 -0.13594,-1.39829 0.0205,-1.69051 0.0885,-0.1654 0.0906,-0.27792 0.007,-0.36174 -0.15549,-0.15548 -1.66191,-0.12667 -2.42837,0.0465 -0.7144,0.16136 -2.19379,0.65951 -2.31213,0.77856 -0.0472,0.0474 0.0632,0.40375 0.24517,0.79181 0.182,0.38805 0.38969,1.02305 0.46154,1.41111 0.53378,2.88299 0.74426,3.5319 1.42087,4.38057 1.07198,1.34458 1.86479,1.83142 2.99196,1.83727 0.70676,0.004 0.83615,-0.0302 1.0296,-0.26905 0.18172,-0.22441 0.25267,-0.24718 0.39699,-0.12741 0.30429,0.25254 0.19757,0.47514 -0.59815,1.24771 l -0.77387,0.75135 0.2741,0.11834 c 0.43898,0.18952 2.4347,0.0476 3.04219,-0.21631 z m 3.6461,-6.38023 c 0.0722,-0.13489 0.10179,-0.27472 0.0658,-0.31074 -0.0971,-0.0971 -0.42394,0.20662 -0.42394,0.39401 0,0.24345 0.20936,0.19478 0.35817,-0.0833 z m -0.47576,-0.5191 c 0,-0.0323 -0.0265,-0.0588 -0.0588,-0.0588 -0.0323,0 -0.0588,0.0265 -0.0588,0.0588 0,0.0323 0.0265,0.0588 0.0588,0.0588 0.0323,0 0.0588,-0.0265 0.0588,-0.0588 z m -10.68992,-3.94441 0.63576,-0.23567 -0.99954,0.056 c -1.88531,0.10562 -2.27726,0.28018 -1.49664,0.66655 l 0.37951,0.18784 0.42258,-0.21952 c 0.23242,-0.12074 0.70867,-0.32558 1.05833,-0.4552 z m 20.18833,-1.61184 c 0.32088,-0.46198 0.61456,-1.09156 0.61456,-1.31746 0,-0.10648 0.0475,-0.24387 0.10554,-0.30531 0.16383,-0.1734 0.26448,-1.0274 0.32371,-2.74666 0.0305,-0.88566 0.004,-1.71022 -0.0603,-1.88148 -0.0631,-0.16768 -0.14603,-0.44893 -0.18441,-0.625 -0.0384,-0.17607 -0.18,-0.42281 -0.31472,-0.54832 -0.28762,-0.26796 -0.21785,-0.66738 0.13621,-0.77976 0.12604,-0.04 0.22917,-0.16442 0.22917,-0.27648 0,-0.11205 0.0624,-0.26617 0.13873,-0.34247 0.10319,-0.10319 0.1054,-0.20714 0.009,-0.4057 -0.0716,-0.14683 -0.15628,-0.34633 -0.18824,-0.44335 -0.032,-0.097 -0.0623,0.10143 -0.0674,0.44098 -0.005,0.33954 -0.0565,0.61736 -0.1143,0.61736 -0.13266,0 -0.24776,-0.29401 -0.24776,-0.63286 0,-0.33562 -0.21112,-0.54307 -0.55269,-0.54307 -0.20761,0 -0.27046,-0.066 -0.27046,-0.28418 0,-0.1563 0.0635,-0.30536 0.1412,-0.33125 0.10196,-0.034 0.10459,-0.0697 0.01,-0.12847 -0.20901,-0.12918 -0.46412,0.21551 -0.54807,0.74051 -0.0788,0.49292 -0.34035,0.7238 -0.5652,0.49895 -0.0864,-0.0864 -0.0299,-0.36893 0.18801,-0.93917 0.36744,-0.96158 0.68802,-1.19684 1.29365,-0.94934 0.41512,0.16965 0.5037,0.2482 0.87452,0.77559 0.21553,0.30654 0.34975,0.38218 0.67813,0.38218 0.56813,0 1.01045,-0.25685 1.9307,-1.12115 l 0.7924,-0.74421 -0.25893,-0.24325 c -0.1424,-0.13378 -0.31979,-0.24325 -0.3942,-0.24325 -0.17916,0 -0.32898,-0.30614 -0.4316,-0.88194 -0.1412,-0.792283 -0.72873,-1.843398 -1.4789,-2.645833 -0.72681,-0.777433 -1.222,-1.439256 -1.52457,-2.037564 -0.27489,-0.543577 -1.70749,-1.809814 -2.41239,-2.13224 -0.76364,-0.349296 -2.10054,-0.407935 -3.00963,-0.132007 -1.49302,0.453166 -2.93715,1.486131 -3.98645,2.851456 -0.71857,0.934984 -1.52871,2.37444 -1.52871,2.716222 0,0.134051 -0.19629,0.420007 -0.43621,0.635459 -1.42589,1.280467 -1.73223,1.848857 -1.73223,3.213947 0,0.75712 0.0559,1.05551 0.28615,1.52871 0.39443,0.81044 0.73733,1.15633 1.14636,1.15633 0.35394,0 1.79427,-0.89008 1.79427,-1.10881 0,-0.0661 -0.15298,-0.31544 -0.33995,-0.55419 -0.18697,-0.23874 -0.40433,-0.63734 -0.48303,-0.88578 -0.19979,-0.63071 -0.10848,-2.01862 0.1498,-2.2769 0.27376,-0.273762 0.51912,-0.0533 0.33129,0.2976 -0.1752,0.32737 -0.16257,1.72646 0.0185,2.05043 0.23477,0.42003 0.587,0.79215 0.7498,0.79215 0.17977,0 0.8671,-0.96674 0.8671,-1.21957 0,-0.0977 0.0529,-0.21036 0.11759,-0.25034 0.0647,-0.04 0.1176,-0.2283 0.1176,-0.41851 0,-0.22902 0.0596,-0.34584 0.17638,-0.34584 0.097,0 0.17639,0.0529 0.17639,0.11759 0,0.0738 0.74359,0.1176 1.99559,0.1176 h 1.99559 l 0.63797,0.29181 c 0.73259,0.33509 1.18871,0.81914 1.3629,1.44633 0.14723,0.53011 0.15809,0.96649 0.024,0.96649 -0.11177,0 -0.37165,-0.52222 -0.37165,-0.74682 0,-0.34438 -0.87077,-0.96194 -1.75204,-1.24256 -0.78883,-0.25119 -3.86794,-0.078 -4.00903,0.22549 -0.0451,0.097 -0.15288,0.30868 -0.23951,0.47037 -0.0866,0.16169 -0.22475,0.42627 -0.30695,0.58796 -0.33625,0.66147 -2.09872,2.23426 -2.50371,2.23426 -0.31602,0 -0.0244,0.59744 0.78651,1.6112 l 0.58332,0.72925 0.33992,-0.35967 c 0.43581,-0.46113 1.50107,-0.97792 1.77904,-0.86307 0.1713,0.0708 0.17663,0.0952 0.0308,0.14124 -0.75405,0.23789 -1.42663,0.78244 -1.57467,1.27493 -0.0584,0.19435 0.003,0.2681 0.31852,0.38217 0.84065,0.30399 1.24389,0.0848 1.25421,-0.68179 0.008,-0.59264 0.17191,-0.81195 0.35341,-0.47281 0.18893,0.35302 0.056,1.1947 -0.25014,1.5839 l -0.23951,0.30449 0.15045,0.61513 c 0.26194,1.07096 0.65015,1.84985 0.922,1.84985 0.1899,0 0.24166,-0.0753 0.24166,-0.35139 v -0.35143 l 0.47037,-0.0752 c 0.50935,-0.0814 0.61816,-0.31056 0.24288,-0.5114 -0.15355,-0.0822 -0.32803,-0.0835 -0.53682,-0.004 -0.41778,0.15884 -0.43819,0.15179 -0.30127,-0.10405 0.13951,-0.26067 0.59791,-0.39962 0.99203,-0.3007 0.32638,0.0819 0.57116,0.54265 0.48415,0.91127 -0.0466,0.19728 0.0525,0.35126 0.42154,0.65549 l 0.4824,0.39764 0.48925,-0.14424 c 0.2691,-0.0793 0.60677,-0.2528 0.7504,-0.3855 0.38207,-0.353 0.62081,-0.11041 0.62081,0.6308 0,0.44603 0.0416,0.57357 0.18709,0.57357 0.1029,0 0.40347,0.1852 0.66793,0.41157 0.58282,0.49888 0.93246,0.52385 1.23505,0.0882 z m -1.45071,-17.676452 c -0.48914,-0.51119 -1.47128,-0.932571 -2.1736,-0.932571 -0.4777,0 -0.53713,-0.05654 -0.35755,-0.340135 0.12242,-0.193326 1.04921,-0.107078 1.67916,0.156264 0.52035,0.217526 1.29409,0.840909 1.4805,1.192818 0.13385,0.252674 0.12643,0.284571 -0.0662,0.284571 -0.11931,0 -0.37236,-0.162426 -0.56232,-0.360947 z m -1.10973,16.798712 v -0.37798 l -0.19247,0.19247 c -0.10586,0.10586 -0.16044,0.27595 -0.12129,0.37798 0.12267,0.31966 0.31376,0.20244 0.31376,-0.19247 z m 3.1358,-9.22542 c -0.0431,-0.0431 -0.0784,-0.008 -0.0784,0.0784 0,0.0862 0.0353,0.12151 0.0784,0.0784 0.0431,-0.0431 0.0431,-0.11367 0,-0.15679 z m -5.413,42.991157 c -0.21885,-0.17215 -0.30971,-0.35345 -0.3094,-0.61736 6.3e-4,-0.53335 0.39794,-1.138 0.74778,-1.138 0.42097,0 0.59569,0.30068 0.59569,1.0251 0,0.49989 -0.0508,0.68342 -0.22406,0.81014 -0.30234,0.22108 -0.44533,0.20698 -0.81001,-0.0799 z m -6.81663,-1.1282 c -0.11245,-0.11244 -0.081,-1.69972 0.0392,-1.97947 0.0661,-0.15385 0.10392,0.16132 0.10933,0.91134 0.008,1.14566 -0.001,1.21524 -0.14853,1.06813 z"
       id="path18" /></g></svg>
