<?xml version="1.0" encoding="UTF-8" standalone="no"?>
<!-- Created with Inkscape (http://www.inkscape.org/) -->

<svg
   width="196.41901mm"
   height="134.56049mm"
   viewBox="0 0 196.41901 134.56049"
   version="1.1"
   id="svg1"
   xml:space="preserve"
   xmlns="http://www.w3.org/2000/svg"
   xmlns:svg="http://www.w3.org/2000/svg"><defs
     id="defs1" /><g
     id="layer1"
     transform="translate(-688.5709,-520.54962)"><path
       style="fill:#4d4d4d"
       d="m 812.41242,654.9567 c -0.0806,-0.13046 -0.53218,-0.3159 -1.00345,-0.4121 -1.12484,-0.22962 -2.31207,-0.73732 -2.31207,-0.98873 0,-0.11 -0.10922,-0.19999 -0.2427,-0.19999 -0.13348,0 -0.97207,-0.70052 -1.86352,-1.55672 -0.93133,-0.89449 -1.95037,-1.62262 -2.3955,-1.71165 -0.42607,-0.0852 -1.27082,-0.46814 -1.87723,-0.85095 l -1.10257,-0.69602 0.1709,-2.0241 c 0.094,-1.11326 0.28905,-2.06379 0.43346,-2.1123 0.14442,-0.0485 0.26257,-0.32434 0.26257,-0.61297 0,-0.43944 1.05896,-2.15037 1.61303,-2.60613 0.47936,-0.3943 1.02832,-2.36597 1.51016,-5.42396 0.29808,-1.89177 0.66207,-3.8563 0.80887,-4.36562 0.1468,-0.50932 0.43157,-1.58471 0.63283,-2.38975 0.20126,-0.80504 0.56618,-1.86513 0.81094,-2.35576 0.24475,-0.49062 0.44574,-1.08211 0.44664,-1.31441 8.9e-4,-0.23231 0.17949,-0.7634 0.39687,-1.18022 0.50335,-0.96513 0.50278,-1.49111 -0.002,-1.49111 -0.21828,0 -0.39687,0.11679 -0.39687,0.25954 0,0.28682 -1.25388,0.68472 -1.80557,0.57297 -0.1927,-0.039 -0.49035,0.0426 -0.66146,0.18138 -0.30707,0.24908 -3.88382,1.30524 -6.33417,1.87038 -2.8757,0.66324 -11.98612,0.17091 -14.08526,-0.76116 -0.29104,-0.12923 -0.88636,-0.28932 -1.32292,-0.35574 -2.65013,-0.40323 -4.19438,-0.84474 -5.95312,-1.70206 -1.09141,-0.53201 -2.16297,-1.10945 -2.38125,-1.2832 -0.78375,-0.62386 -2.40668,-1.42794 -2.88209,-1.42794 -0.2666,0 -0.90477,-0.32743 -1.41814,-0.72761 -1.07868,-0.84085 -3.04798,-2.09574 -4.41157,-2.81118 -1.13111,-0.59346 -1.87327,-1.16133 -3.45904,-2.64672 -0.65484,-0.61339 -1.56166,-1.26637 -2.01515,-1.45107 -0.45349,-0.1847 -0.97962,-0.62562 -1.16919,-0.97983 -0.18956,-0.35421 -0.4188,-0.64401 -0.50941,-0.64401 -0.0906,0 -0.60655,-0.41672 -1.14653,-0.92604 -0.53998,-0.50933 -1.09151,-0.92604 -1.22563,-0.92604 -0.13411,0 -0.52079,-0.35753 -0.85928,-0.7945 -1.05437,-1.36115 -2.8321,-3.17425 -3.11231,-3.17425 -0.14721,0 -0.44126,-0.33572 -0.65345,-0.74603 -0.41763,-0.80762 -2.69434,-3.22272 -3.03804,-3.22272 -0.11583,0 -0.43771,-0.44576 -0.71528,-0.99057 -0.27758,-0.54481 -1.24696,-1.75484 -2.15419,-2.68896 -0.90723,-0.93412 -1.72391,-1.93281 -1.81484,-2.21931 -0.0909,-0.2865 -0.86389,-1.20445 -1.71769,-2.03989 -0.85379,-0.83544 -1.6725,-1.83498 -1.81933,-2.22119 -0.14684,-0.38621 -0.49175,-0.78831 -0.76646,-0.89354 -0.5024,-0.19246 -1.77625,-1.18209 -3.45848,-2.68683 -0.49915,-0.44649 -1.18376,-0.8118 -1.52135,-0.8118 -0.33759,0 -0.61381,-0.11906 -0.61381,-0.26458 0,-0.14552 -0.17008,-0.26458 -0.37797,-0.26458 -0.20789,0 -0.53531,-0.15335 -0.72761,-0.34077 -0.32657,-0.3183 -0.82235,-0.5673 -3.52462,-1.77019 -1.72803,-0.76922 -1.99966,-0.8414 -4.7625,-1.26555 -1.45521,-0.2234 -4.25318,-0.4031 -6.21771,-0.39934 -3.44517,0.007 -8.21718,0.52215 -8.62284,0.93158 -0.10813,0.10914 -0.36108,0.19843 -0.56209,0.19843 -0.20102,0 -1.01693,0.41672 -1.81313,0.92604 -0.7962,0.50933 -1.50307,0.92605 -1.57081,0.92605 -0.18451,0 -2.83707,1.65078 -3.39379,2.11206 -1.4248,1.18057 -2.28374,2.16381 -3.29207,3.76843 -0.615,0.9787 -1.11819,1.86229 -1.11819,1.96354 0,0.10125 -0.16403,0.37206 -0.36452,0.6018 -0.20048,0.22974 -0.63224,1.19161 -0.95947,2.1375 -0.32722,0.94588 -0.68405,1.83885 -0.79295,1.98437 -0.6413,0.85694 -0.46036,14.56839 0.22694,17.19792 0.15215,0.58208 0.3947,1.60665 0.539,2.2768 0.33447,1.5533 1.72279,5.77539 2.22279,6.75985 0.21033,0.41411 0.46635,1.32948 0.56894,2.03414 0.10259,0.70466 0.4157,1.81586 0.69581,2.46933 0.28011,0.65347 0.50929,1.36862 0.50929,1.58923 0,0.37626 0.53412,1.7566 1.08058,2.79258 0.13329,0.25269 0.24307,0.60988 0.24397,0.79375 9e-4,0.18388 0.17886,0.67414 0.39547,1.08946 0.75515,1.44791 0.0522,1.28619 -0.77829,-0.17905 -0.4603,-0.81213 -1.13099,-1.75023 -1.49043,-2.08468 -0.35944,-0.33444 -1.37945,-1.56281 -2.26669,-2.72971 -0.88724,-1.16689 -1.79971,-2.27645 -2.02771,-2.46568 -0.228,-0.18922 -0.49741,-0.72277 -0.59869,-1.18566 -0.10128,-0.46288 -0.68951,-1.55598 -1.30716,-2.42911 -0.61766,-0.87312 -1.50559,-2.42094 -1.97318,-3.43958 -0.86368,-1.88153 -1.51783,-3.22667 -2.29762,-4.72467 -0.72183,-1.38665 -0.81207,-1.61018 -1.0055,-2.49088 -0.10246,-0.4665 -0.29619,-0.9161 -0.43052,-0.99912 -0.13432,-0.083 -0.24423,-0.47729 -0.24423,-0.87616 0,-0.39887 -0.14333,-0.86855 -0.31852,-1.04374 -0.47116,-0.47116 -0.46625,-12.99224 0.006,-14.60397 0.75849,-2.59014 0.91722,-3.07658 1.29504,-3.96875 0.96756,-2.28478 1.27989,-2.90455 1.46516,-2.90739 0.10914,-0.002 0.19844,-0.24116 0.19844,-0.5322 0,-0.29104 0.10615,-0.52916 0.2359,-0.52916 0.12974,0 0.31519,-0.31594 0.41211,-0.70208 0.0969,-0.38614 0.52524,-1.20938 0.95183,-1.82941 1.12041,-1.62846 6.48113,-6.99351 6.98786,-6.99351 0.0644,0 0.64627,-0.35719 1.29313,-0.79375 0.64687,-0.43657 1.25383,-0.79375 1.34882,-0.79375 0.095,0 0.44856,-0.29766 0.78572,-0.66146 0.33716,-0.3638 0.8007,-0.66146 1.03008,-0.66146 0.22939,0 0.49065,-0.11906 0.58059,-0.26458 0.0899,-0.14552 0.39698,-0.26459 0.68233,-0.26459 0.28535,0 0.96293,-0.2782 1.50574,-0.61823 0.54281,-0.34003 1.58224,-0.83678 2.30985,-1.1039 0.7276,-0.26711 1.44197,-0.56277 1.5875,-0.65702 0.31172,-0.20189 1.89887,-0.68368 3.57187,-1.08426 3.40744,-0.81586 14.13555,-1.15138 18.52083,-0.57923 2.62237,0.34214 3.68997,0.64296 4.69529,1.32298 0.40077,0.27109 1.17516,0.72333 1.72086,1.00498 0.5457,0.28166 0.99219,0.60409 0.99219,0.71652 0,0.11243 0.17859,0.20441 0.39687,0.20441 0.21828,0 0.39688,0.11609 0.39688,0.25797 0,0.14189 0.5225,0.496 1.16111,0.78692 0.63861,0.29092 1.64492,0.97851 2.23624,1.52797 1.77865,1.65275 2.12149,1.90559 2.82248,2.08153 0.36942,0.0927 0.86215,0.42286 1.09494,0.73366 0.38586,0.51515 0.40405,0.51832 0.20588,0.0359 -0.26784,-0.65203 -0.48063,-6.56216 -0.26692,-7.41366 0.0855,-0.34052 0.30856,-0.77628 0.49575,-0.96836 0.1872,-0.19208 0.56511,-0.94454 0.83981,-1.67215 0.27469,-0.7276 0.87881,-1.91822 1.34248,-2.64583 0.62715,-0.98415 0.87609,-1.72678 0.97213,-2.90005 0.1136,-1.38781 0.0386,-1.73064 -0.6249,-2.85591 -0.4147,-0.70333 -0.754,-1.40399 -0.754,-1.55703 0,-0.4128 -1.07915,-1.85926 -1.91458,-2.56626 -0.40219,-0.34036 -0.73126,-0.77692 -0.73126,-0.97014 0,-0.19322 -0.0931,-0.39099 -0.20682,-0.4395 -0.11375,-0.0485 -0.56024,-0.79388 -0.99219,-1.6564 -0.63317,-1.26432 -0.78498,-1.9052 -0.7834,-3.30729 0.002,-1.69554 0.23925,-2.38428 1.83928,-5.33728 0.27018,-0.49864 1.23943,-1.03201 1.87538,-1.03201 0.21143,0 0.38442,-0.16572 0.38442,-0.36826 0,-0.20255 0.54682,-0.97645 1.21515,-1.7198 0.90026,-1.00131 1.40304,-1.35153 1.94027,-1.35153 0.39883,0 0.80414,-0.079 0.90071,-0.17557 0.0966,-0.0966 0.79645,-0.39422 1.55529,-0.66146 2.49294,-0.87792 8.64246,-0.5018 10.89397,0.6663 0.41565,0.21564 1.14585,0.80568 1.62268,1.3112 0.47682,0.50553 1.08768,1.04295 1.35746,1.19427 0.39816,0.22334 0.48079,0.55596 0.43885,1.76662 -0.0284,0.82031 -0.19105,1.91382 -0.36142,2.43004 -0.32734,0.99187 -0.14614,3.78338 0.29967,4.61637 0.13483,0.25193 0.48339,0.53368 0.77459,0.6261 0.2912,0.0924 0.52945,0.39814 0.52945,0.67938 0,0.28123 0.11906,0.51134 0.26458,0.51134 0.37277,0 0.33134,1.78573 -0.0443,1.91096 -0.30073,0.10024 -0.44196,1.35708 -0.56039,4.98711 -0.0384,1.17683 -0.19292,1.87489 -0.47819,2.16015 -0.2318,0.2318 -1.54149,0.64967 -2.91041,0.9286 -2.37442,0.4838 -2.50968,0.54877 -2.93927,1.41172 -0.24767,0.49752 -0.45603,0.98128 -0.46302,1.07501 -0.007,0.0937 0.73143,0.46686 1.64093,0.82916 1.40897,0.56126 1.74595,0.82966 2.27742,1.81394 0.37671,0.69767 1.07317,1.43258 1.75841,1.8555 0.62404,0.38516 1.29585,1.02159 1.49289,1.4143 0.19705,0.3927 0.71545,0.91101 1.15201,1.1518 0.43657,0.24078 0.85328,0.50061 0.92604,0.57738 0.1196,0.1262 1.68307,0.80131 3.04271,1.31386 0.29105,0.10972 1.51287,0.68147 2.71517,1.27057 2.18387,1.07003 2.18735,1.07073 3.57187,0.71534 0.76224,-0.19566 2.04072,-0.4786 2.84109,-0.62876 0.80036,-0.15016 2.16958,-0.41322 3.04271,-0.58457 0.87312,-0.17136 2.42093,-0.40755 3.43958,-0.52487 3.14982,-0.36276 4.21369,-0.57443 4.75523,-0.9461 0.28704,-0.197 0.95343,-0.35819 1.48087,-0.35819 1.1203,0 1.78311,-0.52515 2.42864,-1.92424 0.2533,-0.54901 0.72908,-1.10056 1.05728,-1.22567 0.82264,-0.3136 2.5806,-1.96386 2.5834,-2.42512 10e-4,-0.20795 0.3956,-0.79481 0.87631,-1.30413 1.07081,-1.13456 1.76723,-2.49048 1.76723,-3.44076 0,-1.14487 0.54227,-2.43166 0.95757,-2.2723 0.26672,0.10235 0.36535,-0.10335 0.36535,-0.76192 0,-0.49617 0.11906,-0.97571 0.26458,-1.06565 0.14552,-0.0899 0.2672,-0.54345 0.27039,-1.0078 0.008,-1.15079 0.92184,-3.09324 1.45536,-3.09324 0.23579,0 0.57727,-0.14883 0.75885,-0.33073 0.39617,-0.39688 0.74314,-1.58518 0.40114,-1.37381 -0.13195,0.0815 -0.23991,0.29503 -0.23991,0.4744 0,0.52498 -1.83511,1.24587 -2.34712,0.92203 -0.48816,-0.30876 -1.35704,-1.89721 -1.35704,-2.48089 0,-0.33011 0.72472,-0.4832 1.74388,-0.36838 0.29679,0.0334 0.88514,-0.94518 0.89353,-1.48623 0.0115,-0.74373 -0.58515,-1.96639 -0.96088,-1.96891 -0.48223,-0.003 -1.92265,-2.12645 -2.24119,-3.30357 -0.40089,-1.48141 -0.0963,-3.8643 0.69299,-5.42194 0.36598,-0.72222 0.66542,-1.49039 0.66542,-1.70705 0,-0.35851 0.77721,-1.68655 1.67774,-2.86678 0.19513,-0.25575 0.50352,-1.32731 0.68531,-2.38125 0.18179,-1.05395 0.42961,-2.16949 0.55071,-2.47898 0.1211,-0.3095 0.42466,-1.38106 0.67457,-2.38125 0.49408,-1.97741 1.93817,-4.11524 3.76536,-5.57424 0.89486,-0.71454 1.47528,-0.94165 4.28797,-1.67783 1.24215,-0.32512 3.175,-0.31929 3.175,0.01 0,0.148 0.72859,0.26523 1.65365,0.26605 2.82953,0.003 4.05488,0.58519 5.63161,2.67785 0.45076,0.59826 2.43206,4.78802 2.757,5.83009 0.16615,0.53284 0.48944,1.04069 0.71842,1.12856 0.52547,0.20164 0.27925,1.74291 -0.33318,2.08564 -0.36179,0.20247 -0.35337,0.2718 0.0712,0.58688 0.42515,0.31548 0.43857,0.42741 0.1147,0.95669 -0.26068,0.42603 -0.27981,0.6284 -0.0661,0.69962 0.42036,0.14012 0.39458,3.44206 -0.0301,3.85537 -0.48238,0.46946 -2.18368,1.22783 -2.75447,1.22783 -0.87041,0 -1.14067,0.83063 -0.8729,2.68281 0.13381,0.92555 0.24569,2.40314 0.24861,3.28354 0.003,0.88513 0.14726,1.74267 0.32282,1.91823 0.17463,0.17463 0.82244,0.3175 1.4396,0.3175 0.61715,0 1.20008,0.12619 1.2954,0.28042 0.10952,0.17721 0.30692,0.10418 0.53636,-0.19844 0.33271,-0.43882 0.36377,-0.40995 0.37148,0.34536 0.0174,1.70712 -1.77989,3.01225 -4.14824,3.01225 h -1.42951 l 0.3796,0.7276 c 0.92141,1.76612 1.03408,2.16571 0.85188,3.02118 -0.30875,1.44968 -0.25291,2.3844 0.24234,4.05642 0.6498,2.1938 0.93397,3.44559 1.1939,5.25918 0.12257,0.85526 0.45166,1.86729 0.73131,2.24896 0.47212,0.64437 1.1288,2.21753 1.1288,2.70417 0,0.34238 -1.22318,1.56165 -1.56665,1.56165 -0.21654,0 -0.17446,0.26945 0.13426,0.8599 0.24729,0.47294 0.55168,1.06664 0.67642,1.31933 0.12474,0.25268 0.23203,2.33628 0.23842,4.6302 0.006,2.29393 0.1259,5.06375 0.26557,6.15516 0.13968,1.0914 0.33196,3.11546 0.42731,4.49791 0.18676,2.70809 0.52401,3.82644 1.39033,4.61044 0.30305,0.27427 0.55497,0.68857 0.55981,0.92067 0.0168,0.80663 1.85603,2.40639 2.76656,2.40639 0.227,0 0.5259,0.29766 0.66422,0.66146 0.18075,0.47542 0.44829,0.66146 0.95121,0.66146 0.79575,0 4.95582,1.3515 5.09011,1.65365 0.0485,0.10914 0.3164,0.19843 0.59531,0.19843 0.27892,0 0.50712,0.11104 0.50712,0.24676 0,0.13571 0.21714,0.31567 0.48252,0.3999 0.26539,0.0842 0.71188,0.36121 0.99219,0.61551 0.28032,0.25431 1.04545,0.87571 1.70029,1.38089 0.65484,0.50519 1.3462,1.1292 1.53636,1.38669 0.19015,0.25749 0.52897,0.46817 0.75292,0.46817 0.51368,0 1.8289,0.74475 2.68669,1.52135 0.36165,0.32743 0.79731,0.59532 0.96814,0.59532 0.17082,0 0.71898,0.36653 1.21813,0.81451 0.49915,0.44798 1.0341,0.89446 1.18877,0.99219 0.15467,0.0977 0.83939,0.96686 1.52161,1.93143 0.68222,0.96457 1.41888,1.90188 1.63702,2.08292 0.21813,0.18103 0.39661,0.5527 0.39661,0.82593 0,0.27322 0.11906,0.49677 0.26458,0.49677 0.14552,0 0.26459,0.25177 0.26459,0.5595 0,0.30773 0.28092,1.1114 0.62426,1.78594 0.34335,0.67454 0.74524,1.52409 0.8931,1.88789 0.14786,0.3638 0.42473,1.01865 0.61527,1.45521 0.9928,2.27468 1.10444,3.19552 1.22834,10.13184 0.0831,4.64961 0.0321,7.06789 -0.15363,7.29168 -0.32602,0.39284 -0.24945,2.49396 0.11347,3.11322 0.38878,0.66339 3.02756,2.01426 4.3521,2.22796 0.65485,0.10565 2.44078,0.28226 3.96875,0.39246 3.13277,0.22594 4.58113,0.54619 5.95172,1.316 0.51895,0.29148 1.38762,0.52996 1.93039,0.52996 0.68602,0 1.2043,0.20164 1.7002,0.66146 0.39234,0.3638 0.83761,0.66146 0.98948,0.66146 0.15187,0 0.27744,0.44648 0.27904,0.99219 0.002,0.5457 0.075,1.42798 0.16306,1.96062 0.12921,0.78139 0.052,1.06103 -0.39979,1.44786 -0.30796,0.26369 -0.55993,0.58783 -0.55993,0.72033 0,0.39638 -1.10292,1.229 -1.62798,1.229 -0.26878,0 -0.48869,0.1177 -0.48869,0.26156 0,0.26326 -0.53196,0.98893 -1.38906,1.89487 -0.57368,0.60637 -2.3902,0.65396 -3.46983,0.0909 -0.41681,-0.21739 -1.1609,-0.39525 -1.65352,-0.39525 -1.75249,0 -5.62672,-0.82312 -6.88936,-1.46372 -0.70543,-0.3579 -1.52073,-0.65132 -1.81177,-0.65205 -0.66512,-0.002 -4.12481,-0.71765 -4.94335,-1.02303 -0.3371,-0.12576 -1.16905,-0.3103 -1.8488,-0.41009 -2.19764,-0.32262 -3.65889,-2.2866 -3.65889,-4.91769 0,-1.34373 -0.23773,-1.67798 -1.38906,-1.95302 -0.40019,-0.0956 -0.72761,-0.29061 -0.72761,-0.43335 0,-0.14275 -0.30075,-0.25955 -0.66833,-0.25955 -0.36758,0 -1.80337,-0.58851 -3.19064,-1.3078 l -2.5223,-1.3078 -2.43176,0.27178 c -2.2217,0.24831 -30.71911,0.18516 -32.0479,-0.071 -0.55041,-0.10611 -0.86477,0.68172 -1.12263,2.81352 -0.12309,1.01757 -0.0604,1.12462 1.56001,2.66567 0.92853,0.88304 2.09403,1.83473 2.58999,2.11486 0.49597,0.28014 1.15858,0.77723 1.47248,1.10465 0.3139,0.32742 0.69092,0.59531 0.83784,0.59531 0.14691,0 0.93693,0.49625 1.7556,1.10277 1.28426,0.95148 1.48848,1.22246 1.48848,1.97507 0,1.02664 -0.47809,1.36799 -2.64584,1.88913 -1.77558,0.42686 -6.53615,0.66566 -6.73864,0.33802 z m 5.68031,-2.1591 c 0,-0.12951 0.32742,-0.23925 0.7276,-0.24386 l 0.72761,-0.008 -0.78836,-0.58693 c -0.43359,-0.32281 -1.10133,-0.91435 -1.48385,-1.31453 -0.38252,-0.40018 -0.78022,-0.72761 -0.88377,-0.72761 -0.10354,0 -0.68597,-0.34305 -1.29427,-0.76233 -1.41564,-0.97577 -3.50819,-4.04721 -3.74323,-5.49433 -0.17338,-1.06748 0.26448,-4.1919 0.66196,-4.72355 0.1088,-0.14552 0.40134,-1.18731 0.65008,-2.3151 0.24875,-1.12779 0.53468,-2.05052 0.63541,-2.05052 0.10073,0 0.32266,-0.52159 0.49316,-1.1591 0.17051,-0.6375 0.59407,-1.5007 0.94126,-1.91823 0.81994,-0.98605 1.89696,-2.9447 2.12692,-3.86798 0.0997,-0.40019 0.29802,-0.72761 0.44077,-0.72761 0.14275,0 0.25954,-0.17859 0.25954,-0.39687 0,-0.21828 0.11906,-0.39688 0.26459,-0.39688 0.14552,0 0.26458,-0.15921 0.26458,-0.3538 0,-0.19459 0.47625,-1.01888 1.05833,-1.83175 0.58209,-0.81287 1.05834,-1.66805 1.05834,-1.90041 0,-0.23236 0.32742,-0.91338 0.7276,-1.51338 0.40018,-0.6 0.85724,-1.31118 1.01568,-1.58042 0.15844,-0.26923 0.51162,-0.73653 0.78484,-1.03843 0.52158,-0.57634 1.28687,-1.78246 2.25615,-3.55577 0.31816,-0.58208 0.65178,-1.11786 0.74137,-1.19062 0.69767,-0.5666 1.40702,-2.33266 1.55025,-3.85963 0.10301,-1.09827 -0.009,-1.62189 -0.60734,-2.84427 -0.40347,-0.824 -0.86309,-1.50067 -1.02138,-1.5037 -0.15829,-0.003 -1.09711,-0.77694 -2.08626,-1.71979 -0.98915,-0.94285 -1.89317,-1.71428 -2.00892,-1.71428 -0.11576,0 -0.49566,-0.56554 -0.84422,-1.25677 -0.6213,-1.23207 -1.96883,-2.69732 -2.49215,-2.70987 -0.14552,-0.003 -1.00589,-0.70486 -1.91194,-1.55859 -0.90604,-0.85374 -2.0471,-1.74194 -2.53568,-1.97379 -0.5896,-0.27979 -1.05389,-0.78869 -1.38065,-1.51331 -0.42185,-0.93548 -0.53647,-1.03138 -0.80078,-0.66992 -0.16965,0.23201 -0.43055,0.42184 -0.57977,0.42184 -0.40535,0 -1.51476,-0.616 -2.0208,-1.12203 -0.44133,-0.44133 -2.01267,-0.99032 -2.84267,-0.99317 -0.23684,-8.1e-4 -0.57884,0.17712 -0.76,0.3954 -0.18116,0.21829 -0.42682,0.39688 -0.54592,0.39688 -0.1191,0 -1.20585,0.46312 -2.415,1.02916 -2.10119,0.98363 -3.40575,1.45597 -6.03491,2.18507 -0.65485,0.18159 -1.46182,0.50104 -1.79328,0.70988 -0.57899,0.36479 -0.58527,0.40623 -0.1599,1.05543 0.24352,0.37165 0.79572,0.97273 1.22711,1.33572 0.43139,0.363 0.92007,0.79388 1.08594,0.95753 0.16587,0.16364 0.68854,0.52488 1.16148,0.80275 0.47294,0.27787 0.8599,0.5724 0.8599,0.65451 0,0.0821 0.60473,0.38386 1.34386,0.67056 0.73912,0.28669 1.54279,0.70216 1.78593,0.92326 1.17435,1.06787 3.88097,2.96444 4.94307,3.46369 0.65315,0.30702 1.18755,0.66417 1.18755,0.79366 0,0.1295 0.17318,0.23545 0.38485,0.23545 0.21167,0 0.68251,0.29765 1.04631,0.66145 0.3638,0.36381 0.73817,0.66146 0.83193,0.66146 0.18535,0 1.82241,0.69048 2.56197,1.08058 0.25268,0.13329 0.64155,0.24234 0.86415,0.24234 0.22259,0 0.69652,0.32742 1.05316,0.7276 1.44013,1.61592 2.51805,3.04358 2.51805,3.33503 0,0.36341 -1.24371,1.7582 -1.56776,1.7582 -0.31613,0 -2.40099,2.18656 -2.40099,2.51812 0,0.23406 -0.69439,1.67111 -1.79234,3.70928 -0.15391,0.28571 -0.47421,0.99573 -0.71178,1.57781 -0.23756,0.58208 -0.54523,1.26508 -0.6837,1.51777 -0.13847,0.25268 -0.25176,0.73038 -0.25176,1.06154 0,0.33116 -0.29766,1.53995 -0.66146,2.68621 -0.3638,1.14626 -0.66146,2.34139 -0.66146,2.65586 0,0.31446 -0.10471,0.68486 -0.23269,0.8231 -0.12798,0.13825 -0.42907,1.32292 -0.6691,2.6326 -0.44478,2.42686 -0.75039,3.67261 -1.3631,5.55625 -0.18933,0.58209 -0.41123,1.37354 -0.49311,1.75878 -0.0819,0.38525 -0.54699,1.17697 -1.03359,1.75939 -0.48659,0.58242 -1.03519,1.45784 -1.2191,1.94539 -0.18391,0.48754 -0.43217,1.12457 -0.55168,1.41561 -0.54879,1.33642 -0.53278,1.95469 0.065,2.51162 0.32562,0.30336 0.8623,0.6194 1.19261,0.7023 0.33032,0.0829 0.60058,0.25689 0.60058,0.38664 0,0.12974 0.21771,0.2359 0.48381,0.2359 0.56687,0 2.38224,1.16065 3.88277,2.48242 l 1.05738,0.93142 3.9026,-0.0162 c 2.14644,-0.009 3.90261,-0.1222 3.90261,-0.25171 z m -13.73032,-6.4898 c -0.70832,-0.49612 -0.68289,-1.76201 0.0381,-1.89875 0.34377,-0.0652 0.46302,0.0875 0.46302,0.59305 0,0.37447 0.11906,0.68086 0.26459,0.68086 0.32008,0 0.35399,0.70726 0.0431,0.89939 -0.1218,0.0753 -0.48579,-0.0483 -0.80885,-0.27455 z m 18.22568,-32.91019 c -0.37697,-0.91008 -0.3874,-3.67844 -0.0153,-4.05058 0.13575,-0.13576 0.4248,-0.17854 0.64231,-0.0951 0.30129,0.11561 0.4158,0.72275 0.4808,2.54928 0.0738,2.07405 0.0272,2.39744 -0.34559,2.39691 -0.23701,-3.3e-4 -0.58003,-0.36058 -0.76226,-0.80054 z m -5.81828,-4.86613 c -0.3638,-0.19818 -1.13771,-0.57876 -1.71979,-0.84574 -0.58208,-0.26698 -1.71318,-0.97797 -2.51354,-1.57998 -0.80037,-0.60201 -1.71822,-1.17723 -2.03969,-1.27828 -0.32146,-0.10104 -0.97399,-0.68326 -1.45006,-1.29381 -0.47607,-0.61055 -1.04649,-1.24514 -1.2676,-1.4102 -1.23607,-0.92273 -1.70566,-1.39348 -1.54799,-1.5518 0.33406,-0.33544 2.0116,0.69358 3.50046,2.14722 0.81961,0.80021 1.89851,1.62553 2.39756,1.83405 0.49904,0.20851 1.00321,0.54402 1.12036,0.74557 0.11715,0.20154 0.98691,0.75184 1.93279,1.22287 1.93625,0.96421 2.64584,1.50827 2.64584,2.02863 0,0.44321 -0.21768,0.4394 -1.05834,-0.0185 z m 60.37691,43.42274 c -0.82485,-0.85102 -1.08877,-1.50876 -0.60541,-1.50876 0.13213,0 1.03332,0.42834 2.00264,0.95187 0.96932,0.52353 1.81652,0.89776 1.88265,0.83162 0.22533,-0.22533 -0.19205,-0.93714 -0.63811,-1.08828 -0.2446,-0.0829 -0.62331,-0.26611 -0.84159,-0.40719 -0.21828,-0.14107 -0.71117,-0.3221 -1.0953,-0.40227 -0.38413,-0.0802 -0.76759,-0.32602 -0.85213,-0.54632 -0.13048,-0.34003 0.075,-0.37564 1.35988,-0.23565 1.3428,0.1463 1.89491,0.37215 3.10224,1.26906 0.17809,0.1323 0.54834,0.15288 0.82278,0.0457 0.44519,-0.1738 0.41342,-0.23953 -0.29477,-0.60973 -0.43656,-0.22822 -0.86262,-0.52045 -0.94681,-0.64941 -0.0842,-0.12896 -0.73903,-0.45653 -1.45521,-0.72794 -0.76461,-0.28976 -1.34045,-0.68412 -1.39493,-0.95531 -0.16479,-0.82021 2.45829,-0.27576 3.95117,0.82011 1.22772,0.90123 2.23487,1.19803 2.03547,0.59985 -0.0569,-0.17056 -1.1398,-0.85076 -2.40656,-1.51155 -1.26676,-0.6608 -2.26264,-1.32492 -2.21306,-1.47584 0.19847,-0.60417 2.17905,-0.47179 2.87445,0.19212 0.19208,0.18338 0.67666,0.4783 1.07684,0.65539 0.65245,0.28871 0.7276,0.26967 0.7276,-0.1844 0,-0.33853 -0.30693,-0.61736 -0.92604,-0.84123 -0.50932,-0.18417 -0.92604,-0.43 -0.92604,-0.54629 0,-0.11629 -0.50602,-0.21149 -1.12448,-0.21157 -0.61846,-7e-5 -1.77932,-0.25233 -2.57969,-0.56057 -0.80036,-0.30823 -2.22911,-0.66052 -3.175,-0.78285 -4.43495,-0.57356 -5.7274,-0.78425 -6.21771,-1.01359 -0.29104,-0.13614 -0.83424,-0.31297 -1.20712,-0.39298 -0.37288,-0.08 -1.36513,-0.74678 -2.205,-1.48173 -2.04422,-1.78885 -3.27276,-2.38273 -4.9291,-2.38273 -1.66269,0 -2.06691,-0.21017 -3.86776,-2.01102 -0.78571,-0.78571 -1.5466,-1.42856 -1.69086,-1.42856 -0.14427,0 -0.83606,-0.56555 -1.53731,-1.25677 -0.70124,-0.69123 -2.09276,-1.97115 -3.09226,-2.84427 -0.9995,-0.87313 -2.35895,-2.06349 -3.02101,-2.64524 -1.92179,-1.6887 -5.06205,-4.88304 -6.63325,-6.74747 -0.79711,-0.94589 -1.65774,-1.87537 -1.9125,-2.06552 -0.25476,-0.19016 -0.4632,-0.51166 -0.4632,-0.71446 0,-0.2028 -0.15814,-0.46394 -0.35142,-0.58031 -0.19328,-0.11637 -0.57113,-0.59005 -0.83966,-1.05263 -0.26853,-0.46257 -0.71454,-0.90022 -0.99113,-0.97255 -0.27659,-0.0723 -0.56748,-0.37847 -0.64641,-0.68031 -0.0789,-0.30184 -0.24869,-0.5488 -0.37724,-0.5488 -0.12855,0 -0.23372,-0.21784 -0.23372,-0.48408 0,-0.46045 -2.46805,-3.4359 -3.54882,-4.27842 -1.00623,-0.78441 -2.56075,-1.5875 -3.07287,-1.5875 -0.41941,0 -0.52206,0.18055 -0.52206,0.9182 0,1.27893 -2.28779,5.90966 -3.27699,6.63298 -0.23495,0.1718 -0.42718,0.45398 -0.42718,0.62706 0,0.41166 -0.79752,1.96287 -1.1147,2.16814 -0.13591,0.088 0.45796,0.22386 1.31972,0.302 1.49057,0.13516 3.48775,1.05766 3.49587,1.61476 0.008,0.5363 0.95194,2.15094 1.75658,3.0041 0.48081,0.50981 0.94587,1.15276 1.03348,1.42879 0.0876,0.27604 0.27033,0.50188 0.40605,0.50188 0.13571,0 0.24675,0.12701 0.24675,0.28224 0,0.9304 3.75019,4.73629 6.40808,6.50325 0.98099,0.65216 1.85252,1.29722 1.93672,1.43347 0.0842,0.13624 0.39011,0.24771 0.67979,0.24771 0.63377,0 2.02021,0.67394 2.74937,1.33645 0.29104,0.26444 1.89838,1.17382 3.57187,2.02085 1.67349,0.84703 3.57849,1.90642 4.23334,2.3542 0.65484,0.44779 1.97882,1.19373 2.94217,1.65765 2.34592,1.12973 2.7946,1.5669 3.32884,3.24338 0.6227,1.95408 1.35818,3.1458 1.94144,3.1458 0.26799,0 1.31243,0.29766 2.32098,0.66146 1.00854,0.3638 2.09897,0.66146 2.42317,0.66146 0.58309,0 1.00224,0.15676 3.57985,1.33888 1.09899,0.504 1.90226,0.62673 4.74548,0.72506 2.66851,0.0923 3.60118,0.22358 4.23333,0.59594 1.23809,0.72928 1.39921,0.60566 0.46581,-0.35737 z m -14.20712,-4.13618 c -1.47167,-0.35598 -2.7513,-1.12077 -3.82595,-2.28662 -0.58786,-0.63776 -1.06884,-1.27468 -1.06884,-1.4154 0,-0.14071 -0.59531,-0.84184 -1.32291,-1.55806 -1.17845,-1.16 -1.69623,-2.16667 -1.11443,-2.16667 0.316,0 2.69774,2.38264 3.89255,3.89402 1.12792,1.42676 2.00177,1.93168 4.43495,2.56256 1.70126,0.44111 2.04734,0.60463 2.04734,0.96737 0,0.2856 -1.86649,0.28732 -3.04271,0.003 z m -32.08629,-31.6931 c -0.18496,-0.0677 -0.50677,-0.45278 -0.71513,-0.8557 -0.20836,-0.40292 -0.74163,-0.88286 -1.18506,-1.06653 -0.98569,-0.40828 -1.06914,-1.0635 -0.13546,-1.0635 0.97188,0 1.94261,0.73307 2.39063,1.80533 0.39546,0.94647 0.25766,1.4047 -0.35498,1.1804 z m 2.26007,23.04426 c 7.16996,0.0383 12.88496,-0.0265 12.7,-0.14387 -0.18495,-0.11739 -0.54101,-0.21526 -0.79125,-0.21749 -0.25023,-0.002 -0.90508,-0.2583 -1.45521,-0.56906 -0.55013,-0.31076 -1.65508,-0.91817 -2.45544,-1.34979 -0.80037,-0.43162 -1.6338,-0.93662 -1.85208,-1.12223 -0.21829,-0.18561 -0.86412,-0.50094 -1.4352,-0.70074 -1.45588,-0.50935 -6.5023,-5.11256 -6.5023,-5.93122 0,-0.2196 -0.36198,-0.79706 -0.80439,-1.28323 -1.01909,-1.11991 -2.10967,-2.86378 -2.74767,-4.39361 -0.59112,-1.41742 -1.72172,-2.57428 -2.72976,-2.79316 -0.4013,-0.0871 -0.9895,-0.28404 -1.30711,-0.43758 -0.3176,-0.15354 -0.73432,-0.21827 -0.92604,-0.14386 -0.40204,0.15605 -1.80378,2.65705 -1.80378,3.21832 0,0.20722 -0.0893,0.41645 -0.19844,0.46496 -0.10914,0.0485 -0.48586,0.62398 -0.83715,1.27882 -0.35129,0.65484 -0.95024,1.60734 -1.33101,2.11667 -0.74817,1.00077 -1.19982,1.87941 -1.4856,2.89007 -0.0997,0.35262 -0.38178,0.85632 -0.62681,1.11934 -0.24504,0.26301 -0.958,1.52232 -1.58436,2.79846 -1.48871,3.03311 -1.55164,3.19364 -1.73932,4.43692 l -0.15976,1.05833 3.5182,-0.1828 c 1.93501,-0.10054 9.38453,-0.1515 16.55448,-0.11325 z m 31.33368,-1.43676 0.77099,-0.80677 -0.11178,-5.47708 c -0.0615,-3.0124 -0.23661,-6.01287 -0.38919,-6.66771 -0.76106,-3.26638 -1.17441,-4.67992 -1.52495,-5.21491 -0.21165,-0.32302 -0.38482,-0.71114 -0.38482,-0.8625 0,-0.15135 -0.29765,-0.8922 -0.66146,-1.64633 -0.3638,-0.75412 -0.66145,-1.53219 -0.66145,-1.72903 0,-0.51583 -0.91897,-2.2225 -1.56446,-2.90544 -0.30372,-0.32134 -0.55221,-0.65374 -0.55221,-0.73867 0,-0.0849 -0.24273,-0.41496 -0.53941,-0.7334 -0.29667,-0.31844 -0.60383,-0.81948 -0.68257,-1.11342 -0.0787,-0.29393 -0.8778,-1.00621 -1.7757,-1.58283 -0.89789,-0.57662 -1.98972,-1.32255 -2.42628,-1.65763 -1.2361,-0.94876 -1.27522,-0.97448 -2.11667,-1.39177 -0.73921,-0.36659 -2.57038,-1.75805 -4.06322,-3.08752 -1.16917,-1.04123 -5.01915,-2.72855 -7.18157,-3.14744 -0.50932,-0.0987 -1.06965,-0.29495 -1.24518,-0.43619 -0.17552,-0.14125 -0.45331,-0.17389 -0.61729,-0.0725 -0.18591,0.11489 0.0149,0.37468 0.53348,0.69002 0.4574,0.27816 0.95623,0.42874 1.10851,0.33463 0.39177,-0.24213 2.32148,0.4202 3.26436,1.12041 0.43721,0.32468 1.12182,0.71462 1.52136,0.86652 0.79342,0.30166 0.99572,1.18767 0.32955,1.4433 -0.21828,0.0838 -0.39687,0.39189 -0.39687,0.68472 0,0.58232 0.29897,0.68547 2.66486,0.91944 1.4677,0.14514 2.06757,0.38405 4.08201,1.62572 0.58209,0.35879 1.30136,0.75694 1.59838,0.88479 0.71344,0.30707 1.26581,0.9926 1.06353,1.3199 -0.15607,0.25252 -2.58684,-0.75454 -3.91146,-1.6205 -0.33139,-0.21664 -0.90019,-0.47807 -1.26399,-0.58095 -0.3638,-0.10288 -0.89958,-0.28381 -1.19062,-0.40207 -0.29104,-0.11825 -0.86219,-0.3489 -1.26922,-0.51254 -0.97746,-0.39297 -3.49992,-0.38048 -4.142,0.0205 -0.38539,0.24068 -0.65801,0.24472 -1.12089,0.0166 -0.3364,-0.16577 -0.8722,-0.37412 -1.19066,-0.46298 -0.31846,-0.0889 -0.9399,-0.57261 -1.38098,-1.07497 -0.44108,-0.50236 -1.03712,-0.91338 -1.32455,-0.91338 -0.51723,0 -0.51699,0.0135 0.0236,1.3142 0.30039,0.72281 0.47612,1.49671 0.39052,1.71979 -0.23894,0.62267 -1.25369,0.48246 -2.05343,-0.28374 l -0.7195,-0.68933 -1.80851,0.66864 c -0.99469,0.36775 -2.43304,0.9056 -3.19634,1.19523 -1.28554,0.48778 -1.90826,0.4034 -1.53075,-0.20744 0.38113,-0.61667 3.45161,-1.88761 4.93486,-2.04264 1.25436,-0.13111 1.56279,-0.25236 1.49873,-0.58917 -0.0647,-0.34025 -0.55872,-0.45023 -2.49905,-0.55637 -2.6677,-0.14593 -3.23263,-0.43421 -3.79662,-1.93736 -0.1735,-0.46242 -0.41171,-1.07889 -0.52935,-1.36994 -0.11764,-0.29104 -0.28333,-0.74495 -0.3682,-1.00869 -0.13185,-0.40971 -0.33758,-0.4535 -1.41306,-0.30072 -1.9396,0.27551 -4.15861,1.08608 -4.2547,1.55417 -0.0471,0.22919 0.028,0.4167 0.1667,0.4167 0.13874,0 1.27783,1.0141 2.53131,2.25356 2.29742,2.2717 3.20262,3.72885 2.99677,4.82405 -0.10048,0.53458 -0.007,0.59531 0.91824,0.59531 1.49911,0 2.53317,0.52917 4.32036,2.2109 0.87308,0.82156 1.62714,1.37457 1.6757,1.22892 0.0485,-0.14565 0.25694,-0.26482 0.4631,-0.26482 0.20615,0 0.37482,-0.11906 0.37482,-0.26458 0,-0.14552 0.18021,-0.26459 0.40047,-0.26459 0.22025,0 0.60721,-0.10855 0.85989,-0.24122 1.03827,-0.54514 3.49326,-0.87133 5.50274,-0.73113 2.33298,0.16276 3.88403,0.42543 4.08482,0.69176 0.1958,0.2597 2.45953,1.07434 2.98541,1.07434 0.24979,0 0.45417,0.11907 0.45417,0.26459 0,0.14552 0.1055,0.26458 0.23444,0.26458 0.38,0 3.5548,2.17247 4.13961,2.83268 0.29568,0.3338 0.68263,0.6069 0.8599,0.6069 0.17727,0 0.3223,0.11907 0.3223,0.26459 0,0.14552 0.1284,0.26458 0.28533,0.26458 0.33271,0 2.36051,1.99062 2.36051,2.31723 0,0.12166 0.47625,0.68626 1.05833,1.25464 0.58208,0.56839 1.05833,1.17795 1.05833,1.35457 0,0.17662 0.10127,0.36082 0.22504,0.40932 0.33734,0.13221 1.62705,2.27125 1.62705,2.69853 0,0.20454 0.17786,0.71292 0.39524,1.12974 0.21739,0.41681 0.39598,0.95628 0.39688,1.19882 8.9e-4,0.24253 0.10362,0.48066 0.22828,0.52916 0.34177,0.13299 0.64334,2.07257 0.32225,2.07257 -0.3106,0 -1.60724,-2.62279 -1.60724,-3.25106 0,-0.23203 -0.11906,-0.49546 -0.26458,-0.5854 -0.14552,-0.0899 -0.26458,-0.33222 -0.26458,-0.53842 0,-0.67738 -3.09516,-4.71893 -5.07276,-6.62384 -2.41838,-2.32948 -7.10996,-5.67003 -7.9632,-5.67003 -0.3488,0 -0.71578,-0.0816 -0.81551,-0.18133 -0.39121,-0.3912 -2.24433,-0.9036 -4.00791,-1.1082 -2.5699,-0.29816 -7.17356,0.22113 -8.29852,0.93605 -0.30995,0.19698 1.26501,2.65018 2.38907,3.72126 0.72867,0.69434 1.51153,1.61962 1.73969,2.05618 0.22816,0.43656 0.96204,1.33519 1.63084,1.99696 1.65186,1.63447 2.40663,2.5247 2.40663,2.83855 0,0.14465 0.32742,0.47341 0.7276,0.73057 0.80747,0.51888 2.97657,2.77302 2.97657,3.09326 0,0.11231 0.1177,0.2042 0.26155,0.2042 0.37561,0 1.24982,0.71663 2.91345,2.38825 0.80036,0.80421 1.87192,1.75184 2.38125,2.10584 0.50932,0.354 1.10238,0.88663 1.31792,1.18363 0.69808,0.96193 1.77452,1.9952 2.07857,1.9952 0.16308,0 0.94521,0.65915 1.73807,1.46478 1.33878,1.36035 1.57616,1.49043 3.32938,1.82449 1.0383,0.19784 1.95976,0.43166 2.0477,0.51959 0.2607,0.26071 0.37436,0.19852 1.18227,-0.64688 z m -162.87515,-6.54715 c -0.21028,-0.40664 -0.57585,-1.50796 -0.81237,-2.4474 -0.23653,-0.93943 -0.82968,-2.77962 -1.31811,-4.08931 -0.48843,-1.30968 -1.09101,-2.97656 -1.33907,-3.70416 -0.24806,-0.72761 -0.54755,-1.56104 -0.66552,-1.85209 -0.92535,-2.28287 -1.36586,-6.63894 -1.37794,-13.62604 -0.0125,-7.24569 0.38872,-9.93507 1.82497,-12.23172 0.33945,-0.54281 0.61719,-1.05138 0.61719,-1.13015 0,-0.42189 1.87493,-3.00504 3.175,-4.37429 0.84491,-0.88987 4.60438,-3.63242 5.55625,-4.05332 0.21828,-0.0965 0.80207,-0.42035 1.2973,-0.71964 0.49523,-0.29929 1.4775,-0.6125 2.18281,-0.69604 0.70532,-0.0835 1.28239,-0.23163 1.28239,-0.32911 0,-0.0975 1.07816,-0.3961 2.3959,-0.66361 3.81879,-0.77524 10.82339,-0.40627 13.01249,0.68543 0.25269,0.12602 0.92899,0.22912 1.50289,0.22912 0.60193,0 1.76912,0.33587 2.75837,0.79375 0.94319,0.43656 1.82202,0.79375 1.95294,0.79375 0.13093,0 0.47586,0.20836 0.76651,0.46302 0.67421,0.59071 2.16152,1.38906 2.58781,1.38906 0.30944,0 0.717,0.32533 2.92769,2.33702 0.50649,0.46089 1.01604,0.83798 1.13235,0.83798 0.11631,0 0.6255,0.49106 1.13153,1.09125 0.50604,0.60018 1.51538,1.74467 2.24298,2.5433 0.7276,0.79864 1.36819,1.57448 1.42352,1.7241 0.16685,0.45119 0.89653,1.31954 2.05197,2.44194 0.60184,0.58463 1.27973,1.42014 1.50643,1.8567 0.39563,0.76188 0.68536,1.08522 3.07569,3.43249 0.58878,0.57817 1.07278,1.17349 1.07555,1.32291 0.003,0.14943 0.77667,0.97896 1.71979,1.84341 0.94312,0.86444 1.71476,1.68403 1.71476,1.8213 0,0.27923 1.34493,1.50094 1.65288,1.50145 0.33106,5.4e-4 2.31551,1.89334 2.32112,2.21392 0.003,0.16497 0.61442,0.65713 1.35896,1.09369 0.74455,0.43656 1.7372,1.15094 2.2059,1.5875 0.46869,0.43656 1.07888,0.97234 1.35596,1.19063 0.65632,0.51703 4.86347,3.175 5.02554,3.175 0.0686,0 0.38601,0.24346 0.70541,0.54102 0.70599,0.65773 1.97213,1.31043 2.54665,1.3128 0.2323,9.6e-4 0.77956,0.23996 1.21612,0.53111 0.43656,0.29116 1.68672,0.95206 2.77813,1.46868 1.0914,0.51662 2.19111,1.05153 2.4438,1.18868 0.25269,0.13716 0.69215,0.24937 0.97657,0.24937 0.28443,0 0.59073,0.11907 0.68067,0.26459 0.0899,0.14552 0.57851,0.26458 1.08571,0.26458 0.50721,0 1.66105,0.16919 2.56408,0.37597 7.14199,1.63545 13.23334,1.42363 20.32066,-0.70664 2.19866,-0.66087 3.24305,-1.34667 3.54099,-2.32521 0.10908,-0.35828 0.44309,-0.91883 0.74223,-1.24568 0.29915,-0.32685 0.49382,-0.6441 0.43261,-0.70501 -0.48158,-0.47919 -10.36642,-0.96875 -14.79566,-0.73277 -1.68995,0.09 -4.43,-0.25818 -6.87916,-0.87424 -0.94589,-0.23793 -2.25558,-0.53635 -2.91042,-0.66315 -1.69031,-0.32731 -2.76303,-0.74603 -4.33223,-1.69101 -3.32963,-2.00512 -5.63444,-3.97568 -6.55734,-5.60638 -0.24119,-0.42616 -1.20658,-1.25109 -2.14532,-1.83317 -0.93874,-0.58209 -2.20898,-1.39297 -2.82276,-1.80197 -0.61378,-0.409 -1.31526,-0.81748 -1.55884,-0.90773 -0.24359,-0.0903 -0.68101,-0.41575 -0.97205,-0.72332 -0.74279,-0.78496 -2.95601,-2.52011 -3.21446,-2.52011 -0.22522,0 -1.04089,-0.85075 -4.32617,-4.5122 -2.30358,-2.56735 -3.17031,-3.4253 -3.46039,-3.4253 -0.11446,0 -0.28714,-0.24898 -0.38373,-0.5533 -0.0966,-0.30432 -0.87851,-1.2672 -1.73762,-2.13975 -0.8591,-0.87255 -1.56201,-1.63525 -1.56201,-1.6949 0,-0.0597 -0.43179,-1.03152 -0.95954,-2.15973 -0.52774,-1.1282 -1.05819,-2.2894 -1.17876,-2.58044 -0.78754,-1.90094 -1.0367,-2.63434 -1.0367,-3.0515 0,-0.4169 -0.32479,-0.75374 -2.1397,-2.21902 -0.23095,-0.18646 -0.74722,-0.42117 -1.14726,-0.52157 -0.40005,-0.10041 -0.99432,-0.44951 -1.3206,-0.7758 -0.76954,-0.76953 -2.92806,-2.29111 -4.18983,-2.95347 -0.54571,-0.28647 -0.99219,-0.61284 -0.99219,-0.72527 0,-0.11243 -0.1786,-0.20441 -0.39688,-0.20441 -0.21828,0 -0.39687,-0.11907 -0.39687,-0.26459 0,-0.14552 -0.15096,-0.26458 -0.33546,-0.26458 -0.1845,0 -0.75005,-0.27706 -1.25677,-0.61568 -1.99881,-1.33574 -3.7811,-1.59034 -11.10777,-1.58677 -5.3818,0.003 -7.25544,0.0997 -9.26042,0.47992 -1.38245,0.26214 -2.62665,0.57835 -2.7649,0.7027 -0.13824,0.12434 -0.51158,0.22608 -0.82965,0.22608 -0.31806,0 -0.91933,0.17786 -1.33614,0.39524 -0.41682,0.21739 -0.94637,0.39598 -1.17677,0.39688 -0.23041,9e-4 -0.50377,0.0865 -0.60747,0.19017 -0.1037,0.1037 -0.80815,0.4561 -1.56545,0.78312 -0.7573,0.32703 -1.16855,0.59937 -0.91389,0.60521 0.68517,0.0157 0.56341,0.3664 -0.30541,0.87962 -1.01885,0.60185 -1.27422,0.57388 -0.68678,-0.0752 0.46721,-0.51626 0.46213,-0.52917 -0.20796,-0.52917 -0.37777,0 -0.75477,0.1099 -0.83779,0.24423 -0.083,0.13432 -0.49682,0.32019 -0.91955,0.41304 -0.42274,0.0928 -0.83061,0.33037 -0.90638,0.52783 -0.0758,0.19746 -0.98747,0.86381 -2.026,1.48079 -1.87484,1.11382 -7.67003,6.3976 -7.67003,6.99316 0,0.16658 -0.29765,0.58251 -0.66145,0.92429 -0.36381,0.34177 -0.66146,0.76411 -0.66146,0.93852 0,0.43479 -1.022,2.71196 -1.29204,2.87885 -0.12025,0.0743 -0.47903,0.88292 -0.7973,1.7969 -0.31827,0.91397 -0.69745,1.87604 -0.84261,2.13792 -0.63083,1.13804 -0.87074,3.32973 -0.96153,8.78426 -0.0809,4.85991 -0.0224,6.10475 0.35449,7.54063 0.24827,0.94588 0.53495,1.83885 0.63708,1.98437 0.10213,0.14553 0.42982,0.91943 0.72821,1.7198 0.29838,0.80036 0.90802,2.16958 1.35475,3.0427 0.44674,0.87313 0.81375,1.8554 0.8156,2.18282 0.002,0.32742 0.12014,0.59531 0.26289,0.59531 0.14275,0 0.33425,0.29766 0.42556,0.66146 0.0913,0.3638 0.27217,0.66146 0.40191,0.66146 0.12975,0 0.2359,0.12198 0.2359,0.27106 0,0.14909 0.46117,1.0123 1.02481,1.91823 0.56364,0.90594 1.09505,1.94482 1.1809,2.30862 0.0859,0.36381 0.51766,1.05576 0.95957,1.53769 0.44191,0.48192 0.80347,0.95939 0.80347,1.06103 0,0.10165 0.29766,0.50582 0.66146,0.89817 0.3638,0.39234 0.66146,0.83761 0.66146,0.98948 0,0.15187 0.11906,0.27613 0.26458,0.27613 0.14552,0 0.26459,0.1521 0.26459,0.33801 0,0.4516 0.75796,1.51408 1.08013,1.51408 0.141,0 0.0843,-0.33271 -0.12595,-0.73934 z m 87.54894,-10.8802 c -0.29104,-0.1149 -1.39619,-0.28713 -2.45589,-0.38274 -1.05969,-0.0956 -2.42891,-0.40098 -3.0427,-0.67862 -0.6138,-0.27763 -1.90649,-0.86181 -2.87266,-1.29819 -0.96617,-0.43637 -1.8364,-0.9224 -1.93384,-1.08007 -0.0974,-0.15767 -0.45445,-0.28668 -0.79333,-0.28668 -0.65068,0 -2.64594,-1.26519 -4.66131,-2.95574 -0.66421,-0.55715 -1.31906,-1.01628 -1.45521,-1.02029 -0.13616,-0.004 -0.54521,-0.40947 -0.90902,-0.90103 -0.3638,-0.49156 -0.97223,-1.10314 -1.35206,-1.35907 -0.86733,-0.5844 -17.45706,-17.2587 -20.96711,-21.074 -1.43425,-1.55898 -2.83323,-2.90608 -3.10886,-2.99356 -0.27562,-0.0875 -0.50113,-0.31294 -0.50113,-0.50103 0,-0.1881 -0.31089,-0.56703 -0.69087,-0.84207 -0.37997,-0.27505 -1.17838,-0.94657 -1.77423,-1.49227 -0.59585,-0.5457 -1.17657,-0.99219 -1.29048,-0.99219 -0.11392,0 -0.41684,-0.1701 -0.67317,-0.378 -2.96258,-2.40287 -4.27759,-3.31224 -4.98046,-3.44409 -0.46029,-0.0864 -1.05029,-0.3928 -1.3111,-0.681 -0.26081,-0.28819 -0.56612,-0.52399 -0.67846,-0.52399 -0.11234,0 -1.13568,-0.43559 -2.2741,-0.96799 -1.13841,-0.53239 -2.54609,-1.05659 -3.12817,-1.16488 -0.58209,-0.1083 -2.36802,-0.45952 -3.96875,-0.7805 -2.46714,-0.49471 -3.49474,-0.56389 -6.74688,-0.45422 -2.11005,0.0712 -4.16255,0.25922 -4.56111,0.4179 -0.39856,0.15868 -1.47012,0.33627 -2.38125,0.39464 -0.91113,0.0584 -1.26964,0.0546 -0.7967,-0.008 0.47294,-0.0629 0.85989,-0.21242 0.85989,-0.33218 0,-0.11976 0.26789,-0.29663 0.59532,-0.39303 0.32742,-0.0964 1.25015,-0.36841 2.05052,-0.60448 1.04829,-0.30919 2.60196,-0.43528 5.55625,-0.4509 4.02805,-0.0213 5.9286,0.22056 8.34322,1.06175 0.58695,0.20447 1.44312,0.37177 1.90261,0.37177 0.45949,0 0.90902,0.11907 0.99896,0.26459 0.0899,0.14552 0.33183,0.26458 0.53755,0.26458 0.52966,0 3.27994,1.31277 4.22524,2.0168 0.43673,0.32526 1.3297,0.83984 1.98438,1.14351 0.65468,0.30368 1.60705,0.8546 2.11637,1.22427 1.75789,1.27591 2.4785,1.83521 3.12883,2.42844 0.35893,0.32742 0.76974,0.59531 0.91291,0.59531 0.38954,0 2.83743,2.44796 2.83743,2.83751 0,0.18562 0.18043,0.33749 0.40096,0.33749 0.22053,0 0.96467,0.61134 1.65364,1.35854 0.68898,0.74719 2.17138,2.24803 3.29423,3.33519 1.12285,1.08716 2.11314,2.20222 2.20065,2.47792 0.0875,0.2757 0.31337,0.50127 0.50193,0.50127 0.34567,0 2.21663,1.9027 3.19003,3.24412 0.2892,0.39855 0.61925,0.72463 0.73344,0.72463 0.16449,0 1.67965,1.48925 3.30924,3.25265 0.69126,0.74802 3.02676,3.0723 4.00897,3.98972 1.37001,1.27962 2.88209,2.78927 3.50528,3.49964 0.2426,0.27653 1.1058,1.08174 1.91823,1.78936 0.81243,0.70762 1.47715,1.4227 1.47715,1.58906 0,0.16636 0.32742,0.44822 0.7276,0.62634 0.40018,0.17813 1.03158,0.59415 1.40309,0.92449 0.37152,0.33034 0.85977,0.71968 1.08501,0.8652 0.22523,0.14552 0.92139,0.65153 1.54702,1.12448 0.62563,0.47294 1.4173,0.85989 1.75927,0.85989 0.34197,0 0.62176,0.11907 0.62176,0.26459 0,0.14552 0.11964,0.26458 0.26588,0.26458 0.14623,0 0.88289,0.29766 1.63702,0.66146 0.75412,0.3638 1.51752,0.66146 1.69644,0.66146 0.17892,0 0.365,0.096 0.41351,0.21335 0.0485,0.11734 1.10022,0.55168 2.33715,0.96521 2.18514,0.73052 2.40804,0.75204 7.85532,0.75839 3.90431,0.005 5.71975,-0.0876 5.97982,-0.30341 0.47878,-0.39734 3.07731,-0.75733 2.70132,-0.37422 -0.38697,0.39429 -3.10594,1.12193 -4.1923,1.12193 -0.51472,0 -1.00943,0.11906 -1.09937,0.26458 -0.19379,0.31356 -6.88585,0.33286 -7.67292,0.0221 z m 23.08151,-3.66015 c 1.1605,-1.77584 2.2087,-2.79652 3.53337,-3.44057 l 0.95028,-0.46204 -1.74403,-1.78126 c -1.21577,-1.24171 -1.9444,-1.78388 -2.4055,-1.78992 -0.3638,-0.005 -1.07818,-0.15643 -1.5875,-0.33704 -1.29903,-0.46064 -5.5664,-3.08641 -5.73653,-3.52976 -0.0775,-0.20197 -0.33654,-0.36773 -0.57563,-0.36836 -0.58719,-0.002 -2.35331,-1.23208 -3.51094,-2.44626 -0.52029,-0.5457 -1.14393,-0.99219 -1.38587,-0.99219 -0.58465,0 -1.36507,-0.45052 -2.86142,-1.65184 -0.68095,-0.5467 -1.36568,-0.99399 -1.52163,-0.99399 -0.15594,0 -0.8383,-0.71438 -1.51634,-1.5875 -0.67804,-0.87313 -1.42946,-1.5875 -1.66982,-1.5875 -0.24036,0 -0.94339,0.24465 -1.56229,0.54367 -0.6189,0.29903 -1.71283,0.61327 -2.43095,0.69832 -0.71811,0.0851 -1.30566,0.25711 -1.30566,0.38236 0,0.12525 -0.5787,0.22773 -1.286,0.22773 -0.92725,0 -1.55158,0.18023 -2.23804,0.64608 l -0.95205,0.64607 -1.53227,-0.59463 c -0.84275,-0.32705 -2.20094,-0.80244 -3.01821,-1.05644 -0.81727,-0.25399 -1.71024,-0.66476 -1.98437,-0.91282 -0.27414,-0.24806 -1.51047,-0.97257 -2.7474,-1.61001 -2.43752,-1.25616 -5.29167,-3.14547 -5.29167,-3.50283 0,-0.12237 -0.50601,-0.5451 -1.12447,-0.93939 -0.61847,-0.3943 -1.38356,-0.94424 -1.70021,-1.2221 -0.36693,-0.32198 -0.70277,-0.42396 -0.92604,-0.28119 -0.88527,0.5661 -2.35989,0.88212 -4.13326,0.88578 -1.7558,0.004 -1.99032,-0.0602 -2.58656,-0.70352 -0.44819,-0.48361 -0.56979,-0.79341 -0.38424,-0.97896 0.18555,-0.18555 0.37193,-0.17098 0.58895,0.0461 0.57767,0.57766 6.30259,0.16339 6.29528,-0.45555 -0.003,-0.23445 -1.92417,-1.48487 -2.16624,-1.40977 -0.11726,0.0364 -0.21321,-0.086 -0.21321,-0.27192 0,-0.18594 -0.24801,-0.55044 -0.55115,-0.80999 -1.12772,-0.96558 -3.09428,-2.29152 -3.39866,-2.29152 -0.17311,0 -0.23305,-0.13219 -0.1332,-0.29375 0.3213,-0.51987 1.93749,-0.0369 3.36573,1.00581 1.58698,1.15859 2.14775,1.6135 4.01462,3.25669 0.74399,0.65484 1.6459,1.39721 2.00424,1.64972 5.42064,3.81951 6.90107,4.76409 7.83928,5.0018 0.60627,0.15362 1.34543,0.5058 1.64258,0.78264 0.29715,0.27683 0.63455,0.50385 0.74977,0.50448 0.11523,6.3e-4 1.14953,0.47688 2.29845,1.05834 2.28496,1.15638 2.89294,1.25619 4.03237,0.66194 0.41682,-0.21739 1.01871,-0.39598 1.33755,-0.39688 0.31883,-8.9e-4 0.64515,-0.10753 0.72515,-0.23698 0.08,-0.12944 0.53351,-0.29595 1.0078,-0.37001 0.82105,-0.12822 2.95772,-0.68101 4.96339,-1.28411 0.50932,-0.15315 1.64042,-0.39758 2.51354,-0.54317 0.87313,-0.14559 1.79425,-0.37218 2.04693,-0.50354 0.25269,-0.13135 0.62135,-0.23882 0.81925,-0.23882 0.1979,0 0.71227,-0.17582 1.14304,-0.39072 0.43078,-0.2149 1.01462,-0.43514 1.29742,-0.48942 0.28281,-0.0543 0.75232,-0.188 1.04336,-0.29715 0.76546,-0.28707 3.87679,-1.49326 4.49792,-1.74374 1.70143,-0.68612 3.99327,-0.43144 5.04986,0.56118 0.66165,0.62159 1.16785,0.49086 1.16785,-0.3016 0,-0.33716 0.18175,-0.51355 0.52917,-0.51355 0.29104,0 0.52916,0.11907 0.52916,0.26459 0,0.14552 0.1786,0.26458 0.39688,0.26458 0.22048,0 0.39687,-0.23519 0.39687,-0.52917 0,-0.39179 0.17639,-0.52916 0.67948,-0.52916 h 0.67947 l -0.54718,-0.76845 c -0.30095,-0.42265 -0.54718,-1.00427 -0.54718,-1.29249 0,-0.74611 1.11414,-1.37797 2.43808,-1.3827 0.82952,-0.003 1.02728,-0.0729 0.73692,-0.26053 -0.21829,-0.14106 -1.0632,-0.2583 -1.87758,-0.26053 -1.87009,-0.005 -2.89083,-0.51318 -3.80431,-1.89353 -0.60317,-0.91145 -0.67465,-1.19303 -0.43589,-1.71705 0.17598,-0.38623 0.51627,-0.63004 0.88658,-0.63522 0.70466,-0.01 1.35673,-0.46435 1.60127,-1.11607 0.21888,-0.58333 -0.2272,-0.59865 -1.42265,-0.0489 -1.88928,0.86889 -2.96504,1.64529 -5.20234,3.75466 -1.3384,1.26188 -2.95186,1.99052 -5.48779,2.47833 -0.58209,0.11196 -1.41552,0.27205 -1.85209,0.35575 -0.43656,0.0837 -1.92484,0.33839 -3.30729,0.56596 -1.38245,0.22758 -2.94407,0.52268 -3.47028,0.65579 -0.5262,0.13311 -2.59408,0.24201 -4.59528,0.24201 h -3.63854 l -0.89968,-0.78993 c -0.49482,-0.43446 -1.22491,-0.86916 -1.62242,-0.96601 -0.39752,-0.0969 -1.59302,-0.87247 -2.65668,-1.72361 -1.06366,-0.85115 -2.04814,-1.54753 -2.18773,-1.54753 -0.42362,0 -3.4458,-3.18212 -3.27881,-3.45232 0.24004,-0.3884 0.57564,-0.3077 1.71718,0.41293 1.15696,0.73035 1.23955,0.63988 0.66692,-0.7306 -0.50879,-1.21771 -2.64174,-3.10825 -4.70421,-4.16958 -1.81928,-0.93619 -2.84714,-1.75914 -2.84714,-2.27955 0,-0.18551 -0.44648,-0.67017 -0.99218,-1.07702 -1.37305,-1.0237 -2.43814,-2.24125 -2.44317,-2.79293 -0.006,-0.70878 0.31206,-0.56788 1.64493,0.72761 0.67374,0.65484 1.34221,1.19062 1.48547,1.19062 0.14327,0 0.61955,0.45335 1.0584,1.00744 0.43884,0.55409 1.35542,1.29418 2.03684,1.64465 0.68141,0.35046 1.2976,0.79008 1.3693,0.97693 0.0717,0.18685 0.34287,0.33973 0.60261,0.33973 0.68396,0 3.14875,2.30945 3.34552,3.13467 0.092,0.38598 0.25888,0.82085 0.37076,0.96637 0.11189,0.14553 0.23616,0.74084 0.27616,1.32292 0.076,1.105 0.84477,2.24896 1.51146,2.24896 0.21134,0 1.12568,0.79425 2.03187,1.765 l 1.64761,1.76501 1.16315,-0.29992 c 0.63973,-0.16495 1.66842,-0.37423 2.28598,-0.46507 1.48879,-0.21897 4.39886,-1.28726 5.34844,-1.96342 0.41813,-0.29774 1.15721,-0.61705 1.6424,-0.70959 0.48519,-0.0925 1.4339,-0.56782 2.10824,-1.05618 0.67434,-0.48835 1.35895,-0.88791 1.52135,-0.88791 0.16241,0 0.29528,-0.092 0.29528,-0.20442 0,-0.11243 0.41672,-0.42883 0.92604,-0.70312 0.50933,-0.27429 0.92605,-0.58733 0.92605,-0.69565 0,-0.10832 0.73935,-0.28275 1.643,-0.38763 1.99266,-0.23127 2.27582,-0.38631 4.15386,-2.27438 0.81355,-0.81788 1.97022,-1.7354 2.57037,-2.03891 0.60016,-0.30352 1.40463,-0.92435 1.78771,-1.37961 1.25444,-1.49081 0.15351,-1.78929 -1.912,-0.51837 -0.70951,0.43657 -1.42567,0.79375 -1.59148,0.79375 -0.89331,0 0.33795,-1.4572 1.87918,-2.22401 0.97169,-0.48344 1.1504,-0.70566 1.29933,-1.61566 0.095,-0.58032 0.25354,-1.53137 0.35238,-2.11345 l 0.1797,-1.05834 -0.5768,0.8599 c -0.31724,0.47294 -0.66542,0.8599 -0.77374,0.8599 -0.10831,0 -0.42404,0.44648 -0.70162,0.99218 -0.5429,1.06733 -2.10226,2.7064 -2.58846,2.72079 -0.50088,0.0148 -1.4881,0.97543 -1.4881,1.44799 0,0.24526 -0.19676,0.77901 -0.43723,1.18611 -0.38215,0.64691 -0.6405,0.75896 -2.05052,0.88927 -1.76454,0.16308 -5.6863,0.78105 -7.56642,1.19228 -2.39333,0.52347 -5.97394,1.38964 -6.76566,1.63663 -0.44689,0.13942 -1.06494,0.2535 -1.37345,0.2535 -0.3085,0 -0.63449,0.11906 -0.72443,0.26458 -0.27797,0.44977 -1.45369,0.2937 -2.7397,-0.36368 -0.67598,-0.34555 -1.7053,-0.87174 -2.28738,-1.16932 -0.58209,-0.29759 -2.07037,-1.02876 -3.30729,-1.62485 -2.6843,-1.29357 -2.97109,-1.50062 -3.50543,-2.53069 -0.22646,-0.43656 -0.81031,-1.08399 -1.29743,-1.43872 -0.48713,-0.35473 -1.02246,-0.83098 -1.18964,-1.05833 -1.24629,-1.69495 -2.28245,-2.34279 -3.92938,-2.45678 l -1.05833,-0.0733 -0.0786,-1.80047 c -0.0752,-1.72298 -0.0427,-1.83401 0.75559,-2.57969 l 0.83415,-0.77921 -0.75559,-0.003 c -2.37066,-0.009 -4.06288,-0.95966 -4.06288,-2.28213 0,-0.50045 -0.14035,-0.62538 -0.70263,-0.62538 -0.38644,0 -1.10082,-0.30371 -1.5875,-0.67492 l -0.88487,-0.67492 v 0.88961 c 0,1.04564 -0.81122,2.04591 -1.66395,2.05172 -0.32175,0.002 -1.00172,0.15102 -1.51105,0.33073 l -0.92604,0.32674 0.0793,1.83173 c 0.0758,1.75255 -0.20419,2.99462 -0.86959,3.85681 -0.16846,0.21828 -0.46869,0.93266 -0.66718,1.5875 -0.1985,0.65485 -0.60661,1.54782 -0.90691,1.98438 -0.48174,0.7003 -0.54284,1.16752 -0.51905,3.96875 0.0235,2.7661 0.4346,5.73026 0.97244,7.01146 0.0916,0.21828 0.36331,1.05171 0.60374,1.85208 0.24043,0.80036 0.60315,1.83039 0.80606,2.28894 0.20291,0.45856 0.36892,1.24312 0.36892,1.74347 0,0.71345 0.14261,0.97471 0.66098,1.2109 0.83471,0.38032 3.03998,2.39862 3.05287,2.79403 0.005,0.16337 0.77067,0.88418 1.70077,1.6018 0.93009,0.71762 1.84434,1.59112 2.03164,1.9411 0.18731,0.34999 0.82082,1.013 1.40782,1.47336 0.58699,0.46036 1.36503,1.19316 1.72898,1.62843 1.11032,1.32791 1.90011,1.98196 3.02519,2.50528 0.59187,0.2753 1.52296,0.89633 2.06909,1.38006 1.58737,1.406 2.40047,1.98153 3.10808,2.19996 0.3638,0.1123 0.95911,0.41106 1.32291,0.66392 0.36381,0.25286 0.92943,0.54294 1.25695,0.64463 0.62218,0.19318 1.91806,1.69617 1.91806,2.22461 0,0.16817 0.13497,0.30576 0.29994,0.30576 0.29314,0 0.71938,0.4315 2.41761,2.4474 0.45971,0.5457 0.9846,0.99218 1.16642,0.99218 0.30578,0 2.52158,1.13148 3.12748,1.59702 0.14552,0.11181 1.33615,0.63959 2.64584,1.17283 2.90807,1.18403 4.77684,1.45649 11.77396,1.71661 2.98317,0.1109 6.43598,0.38534 7.67291,0.60986 3.46113,0.62825 5.1065,0.98032 5.24944,1.12326 0.22429,0.22429 0.27714,0.16755 1.29561,-1.39093 z m -3.76692,-3.4044 c -0.72761,-0.21566 -1.62058,-0.45472 -1.98438,-0.53124 -1.35167,-0.28428 -3.52857,-1.31195 -5.02708,-2.37317 -0.65485,-0.46375 -1.66076,-1.03861 -2.23537,-1.27747 -0.57461,-0.23886 -1.45765,-0.8472 -1.96233,-1.35187 -0.50467,-0.50467 -1.0168,-0.91758 -1.13807,-0.91758 -0.12126,0 -0.22048,-0.23813 -0.22048,-0.52917 0,-0.72425 0.26465,-0.66911 1.58728,0.33073 0.62562,0.47294 1.3281,0.97896 1.56105,1.12448 0.23295,0.14552 0.48307,0.33516 0.55584,0.42142 0.0728,0.0862 0.5311,0.23448 1.01854,0.32938 0.48744,0.0949 1.23153,0.46309 1.65355,0.8182 0.42202,0.3551 1.18406,0.79634 1.69344,0.98054 0.50937,0.18419 0.92613,0.43003 0.92613,0.54632 0,0.11629 0.16402,0.21143 0.36448,0.21143 0.20046,0 0.5127,0.1786 0.69386,0.39688 0.18115,0.21828 0.58268,0.39867 0.89229,0.40086 1.22468,0.009 3.34104,1.03225 3.34104,1.61591 0,0.29376 -0.11143,0.28108 -1.71979,-0.19565 z m -17.52865,-5.31479 c -0.9095,-0.94095 -1.65364,-1.81972 -1.65364,-1.95284 0,-0.42479 1.09876,-0.2602 2.00595,0.30047 0.99715,0.61627 1.9628,2.02439 1.9628,2.86216 0,0.90344 -0.55059,0.61573 -2.31511,-1.20979 z m 45.47449,-4.22555 c -0.2306,-0.39655 -0.28223,-0.40798 -0.28884,-0.0639 -0.009,0.44558 0.26966,0.84677 0.45718,0.65925 0.0619,-0.0618 -0.0139,-0.32973 -0.16834,-0.59531 z m 4.71596,-0.26871 c -1.50043,-1.60685 -1.57326,-1.69725 -1.57326,-1.95285 0,-0.13512 0.24087,-0.24568 0.53527,-0.24568 0.50431,0 0.51119,-0.0367 0.11883,-0.63556 -0.31734,-0.48432 -0.8047,-0.70395 -2.04804,-0.92296 -1.71541,-0.30216 -5.20167,-1.85135 -6.21283,-2.76079 -0.32742,-0.29449 -0.59531,-0.72899 -0.59531,-0.96556 0,-0.23657 -0.12312,-0.55324 -0.27359,-0.70372 -0.32521,-0.32521 -0.68149,-2.2118 -1.06756,-5.65308 -0.1551,-1.38245 -0.37628,-3.16838 -0.49151,-3.96875 l -0.20951,-1.45521 -0.0373,1.37184 c -0.0403,1.48443 -0.46433,2.91889 -0.77226,2.61253 -0.10507,-0.10453 -0.25058,-1.95695 -0.32337,-4.11647 -0.1208,-3.58402 -0.18318,-3.98052 -0.71543,-4.54707 -0.33976,-0.36166 -0.49989,-0.75528 -0.38373,-0.94323 0.27943,-0.45214 1.28536,0.27862 1.46007,1.06067 0.15142,0.67778 0.0157,-0.5796 -0.39301,-3.64035 -0.15544,-1.16417 -0.3011,-5.09323 -0.32368,-8.73125 -0.0349,-5.62601 0.0236,-6.75298 0.39132,-7.54062 1.45863,-3.12404 1.59022,-5.73162 0.36285,-7.19026 -0.36461,-0.43331 -0.66293,-0.88087 -0.66293,-0.99456 0,-0.25559 -2.56248,-1.60477 -3.04792,-1.60477 -0.19429,0 -0.57226,-0.26789 -0.83994,-0.59531 -0.26767,-0.32742 -0.93116,-0.82242 -1.47441,-1.1 -0.54325,-0.27757 -0.98773,-0.605 -0.98773,-0.7276 0,-0.12261 -0.16585,-0.22292 -0.36857,-0.22292 -0.20271,0 -0.4371,-0.17859 -0.52086,-0.39688 -0.18997,-0.49505 -0.98615,-0.50736 -2.09563,-0.0324 -0.97691,0.41822 -3.36494,2.54982 -3.36494,3.0036 0,0.16717 -0.41614,1.11485 -0.92475,2.10595 -0.50861,0.9911 -0.92533,2.01577 -0.92604,2.27705 -0.002,0.62352 -1.24854,1.85956 -1.70076,1.68603 -0.24726,-0.0949 -0.39784,0.19524 -0.50262,0.96839 -0.0823,0.60713 -0.33716,2.1159 -0.5664,3.35282 -0.22925,1.23693 -0.4831,3.02287 -0.56412,3.96875 -0.081,0.94589 -0.24456,2.01745 -0.36341,2.38125 -0.11885,0.3638 -0.36799,1.35055 -0.55364,2.19278 -0.32273,1.46405 -0.31235,1.54897 0.23626,1.93323 1.33385,0.93427 0.0917,3.11531 -2.46889,4.33483 -1.16165,0.55326 -1.58638,0.88273 -2.38125,1.84713 l -0.52917,0.64203 0.95759,-0.55087 c 1.30034,-0.74805 4.98097,-2.03522 5.19827,-1.81792 0.48422,0.48422 -0.65899,1.33292 -3.24544,2.40937 -0.58209,0.24225 -1.29646,0.55049 -1.5875,0.68498 -0.29104,0.13449 -0.94589,0.22889 -1.45521,0.20978 -0.50932,-0.0191 -1.60283,0.0532 -2.43002,0.1606 -1.30252,0.16918 -1.65691,0.34938 -2.64583,1.34543 -0.62802,0.63254 -1.2452,1.15248 -1.37151,1.1554 -0.12631,0.003 -0.63647,0.3625 -1.13369,0.79907 -0.49722,0.43656 -1.01895,0.79375 -1.15941,0.79375 -0.14046,0 -0.25537,0.15841 -0.25537,0.35203 0,0.19362 -0.29666,0.93776 -0.65924,1.65365 -0.67506,1.33284 -0.56764,1.68432 0.36259,1.18648 0.28954,-0.15496 0.95881,-0.28175 1.48727,-0.28175 0.52846,0 1.19905,-0.12749 1.4902,-0.28331 0.29115,-0.15582 1.08699,-0.38186 1.76854,-0.50232 0.68155,-0.12046 1.9296,-0.40969 2.77344,-0.64273 0.84385,-0.23305 1.82906,-0.42372 2.18936,-0.42372 0.44219,0 0.73112,-0.19995 0.88901,-0.61522 0.12864,-0.33837 0.51265,-0.80067 0.85334,-1.02734 0.3407,-0.22666 1.1982,-0.96253 1.90558,-1.63526 0.70737,-0.67273 1.71941,-1.40833 2.24896,-1.63468 0.52955,-0.22635 1.29989,-0.58285 1.71187,-0.79223 0.93598,-0.47569 1.17772,-0.47609 1.6511,-0.003 0.78146,0.78146 0.16205,3.26291 -0.96504,3.86611 -0.63491,0.33979 -0.6574,0.92485 -0.0461,1.19734 0.25466,0.11351 1.32624,0.27507 2.38128,0.35904 1.74465,0.13884 1.91825,0.10839 1.91823,-0.33652 -2e-5,-0.26905 0.16554,-0.86436 0.36789,-1.32292 1.12043,-2.53898 1.25763,-3.21406 1.24223,-6.11233 -0.009,-1.60792 -0.0919,-3.44118 -0.18532,-4.0739 -0.14997,-1.0162 -0.1138,-1.13964 0.30997,-1.05803 0.71346,0.1374 1.20324,2.2822 1.25954,5.51573 0.0442,2.53811 -0.0145,2.91019 -0.67923,4.30671 -0.40019,0.84073 -0.72761,1.62293 -0.72761,1.73823 0,0.1153 -0.30414,0.47408 -0.67586,0.79729 -0.50347,0.43776 -0.63019,0.73677 -0.49679,1.1722 0.37362,1.2195 0.67467,1.30555 1.3631,0.38962 0.35694,-0.47488 0.75747,-1.10155 0.89009,-1.39259 0.13261,-0.29104 0.35083,-0.70776 0.48494,-0.92604 0.1341,-0.21828 0.49537,-0.9692 0.80281,-1.66871 0.30745,-0.69951 1.03146,-1.78439 1.6089,-2.41084 1.02704,-1.1142 1.3767,-2.30183 0.78531,-2.66733 -0.14552,-0.0899 -0.26458,-0.47267 -0.26458,-0.85053 0,-0.37786 -0.29766,-1.07726 -0.66146,-1.55423 -0.3638,-0.47697 -0.66146,-0.99423 -0.66146,-1.14946 0,-0.15523 -0.11034,-0.28223 -0.2452,-0.28223 -0.30348,0 -1.07771,-1.51182 -1.07771,-2.1044 0,-0.23958 -0.11278,-0.54871 -0.25062,-0.68696 -0.13784,-0.13824 -0.28719,-1.97776 -0.33188,-4.08781 -0.0447,-2.11005 -0.14027,-4.00017 -0.2124,-4.20026 -0.24813,-0.68831 0.49715,-0.59423 0.96645,0.12201 0.37831,0.57738 0.49759,1.49984 0.61218,4.73433 l 0.14231,4.01723 0.9543,1.56595 c 0.52486,0.86127 1.02523,1.80407 1.11194,2.09511 0.0867,0.29105 0.39752,1.18401 0.6907,1.98438 0.35718,0.97505 0.53592,2.12665 0.54171,3.49011 0.005,1.1192 0.11512,2.10072 0.24527,2.18116 0.13015,0.0804 0.30204,0.59348 0.38198,1.14009 0.0799,0.54662 0.33914,1.94635 0.57601,3.11051 0.23687,1.16417 0.48846,2.59292 0.55908,3.175 0.0706,0.58209 0.22724,1.29646 0.34803,1.5875 0.12078,0.29105 0.34069,1.24355 0.48868,2.11667 0.4283,2.527 0.79713,3.73816 1.79867,5.90661 0.5159,1.11699 1.07373,2.32855 1.23961,2.69235 0.58685,1.28701 1.0133,1.5875 2.25297,1.5875 1.3236,0 3.23084,0.49329 3.23084,0.83563 0,0.44001 0.40888,0.21086 0.66486,-0.37261 0.40917,-0.93262 2.12677,-0.97675 3.01881,-0.0776 1.87566,1.89071 3.50814,2.78615 1.85834,1.01932 z m -10.70139,-3.59766 c -0.24394,-0.29565 -0.65489,-1.11359 -1.22457,-2.43733 -0.12525,-0.29104 -0.25814,-0.94127 -0.29532,-1.44494 -0.0512,-0.6931 0.045,-0.93908 0.39541,-1.01159 0.26428,-0.0547 0.46303,0.0615 0.46303,0.27077 0,0.20162 0.2402,0.86374 0.53378,1.47139 0.92009,1.90436 1.01414,4.22607 0.12767,3.1517 z m -8.22808,-0.94004 c 0.16519,-0.26729 -1.40359,-1.47881 -1.6264,-1.256 -0.0856,0.0856 -0.0167,0.15559 0.1531,0.15559 0.16977,0 0.30868,0.15478 0.30868,0.34395 0,0.66658 0.87065,1.23209 1.16462,0.75646 z m 4.05174,-1.31457 c 1.34881,-0.11186 1.38688,-0.13699 1.22733,-0.81054 -0.0906,-0.3823 -0.44635,-1.40023 -0.79064,-2.26207 -0.34428,-0.86183 -0.62597,-1.83707 -0.62597,-2.16719 0,-0.33013 -0.10327,-0.66406 -0.22949,-0.74206 -0.12622,-0.078 -0.30392,-0.65058 -0.39489,-1.27239 -0.091,-0.6218 -0.34996,-2.08305 -0.57552,-3.24722 -0.66135,-3.41339 -1.16203,-6.80011 -1.17204,-7.92805 -0.008,-0.91297 -0.0582,-0.99868 -0.38662,-0.66146 -0.44283,0.4547 -2.26852,4.04974 -2.26852,4.46703 0,0.15731 -0.11907,0.28602 -0.26459,0.28602 -0.14552,0 -0.26458,0.22814 -0.26458,0.50698 0,0.53654 -1.82611,2.66802 -2.28578,2.66802 -0.4056,0 -0.83185,1.03218 -1.02466,2.48123 -0.22049,1.65716 -0.36648,2.01669 -0.81891,2.01669 -0.20271,0 -0.36857,0.0397 -0.36857,0.0883 0,0.21591 2.06018,2.29299 2.27446,2.29312 0.35158,2.1e-4 2.70595,2.34771 2.87286,2.86447 0.0786,0.24347 0.51189,0.65205 0.96278,0.90795 0.45088,0.2559 0.87808,0.68818 0.94933,0.96063 0.12159,0.46499 0.1805,0.46994 0.96078,0.0807 0.45719,-0.22807 1.45764,-0.46662 2.22324,-0.53011 z m 10.63166,-0.56073 c -0.76204,-0.47867 -1.43683,-1.18542 -1.80354,-1.88896 -0.32226,-0.61828 -0.86554,-1.34408 -1.20728,-1.61289 -0.49534,-0.38964 -0.65056,-0.82382 -0.76538,-2.14091 -0.0792,-0.90868 -0.27562,-2.72371 -0.43646,-4.0334 -0.16083,-1.30968 -0.33889,-4.70296 -0.39567,-7.54062 -0.0568,-2.83766 -0.17544,-5.77406 -0.26367,-6.52534 l -0.16041,-1.36596 -0.84375,0.2629 c -0.46405,0.1446 -1.0521,0.32668 -1.30676,0.40463 -0.91955,0.28148 -0.47158,-0.71834 0.52917,-1.18103 0.5457,-0.25231 1.26237,-0.70229 1.59259,-0.99995 0.5411,-0.48775 0.5702,-0.63151 0.29462,-1.45521 -0.16818,-0.5027 -0.4086,-1.02711 -0.53426,-1.16535 -0.12566,-0.13825 -0.22847,-0.52682 -0.22847,-0.86349 0,-0.33667 -0.10613,-0.81887 -0.23583,-1.07156 -0.41413,-0.80681 -1.08697,-3.3896 -1.0907,-4.18685 -0.002,-0.42378 -0.0765,-1.04252 -0.16555,-1.37498 l -0.16194,-0.60449 -0.36362,0.70088 c -0.19999,0.38548 -0.36361,0.90157 -0.36361,1.14688 0,0.2453 -0.13314,0.57914 -0.29587,0.74186 -0.53859,0.5386 -0.0788,7.38598 0.96439,14.36206 0.77621,5.19071 0.86552,5.86858 1.16786,8.86354 0.16159,1.60073 0.40982,3.7163 0.55162,4.70127 0.14181,0.98496 0.25831,2.17559 0.2589,2.64583 5.8e-4,0.47024 0.21403,1.4503 0.47433,2.1779 0.5133,1.43484 1.54136,2.18606 3.09647,2.26262 0.43657,0.0215 1.09141,0.13441 1.45521,0.25092 1.3355,0.42771 1.42498,0.23554 0.23761,-0.5103 z m -20.00648,-3.17588 c -2.51032,-2.54502 -2.9003,-2.84616 -3.24681,-2.50716 -0.34763,0.34009 -0.29501,0.47761 0.44867,1.17264 0.46336,0.43305 0.93823,0.79103 1.05527,0.79551 0.11703,0.004 1.03462,0.77839 2.03909,1.71979 2.99865,2.8104 2.77971,1.93767 -0.29622,-1.18078 z m -0.18764,-6.66416 c 0.16636,-0.26918 -0.95631,-0.31379 -1.60757,-0.0639 -0.30151,0.1157 -0.34472,0.22843 -0.13683,0.35692 0.36855,0.22777 1.54462,0.0302 1.7444,-0.29304 z m -23.96432,-1.40168 c 0,-0.20622 0.23721,-0.92832 0.52713,-1.60468 l 0.52713,-1.22975 -0.59328,0.18514 c -0.3263,0.10182 -0.6528,0.25838 -0.72556,0.34791 -0.12065,0.14845 -1.40161,0.89102 -2.38125,1.3804 -0.21829,0.10905 -0.87313,0.37318 -1.45521,0.58696 l -1.05834,0.3887 1.00983,10e-4 c 0.5554,7.6e-4 1.08126,0.0728 1.16858,0.16013 0.0873,0.0873 0.79375,0.15875 1.56986,0.15875 1.04124,0 1.41111,-0.0983 1.41111,-0.37494 z m -23.54792,-24.18402 c 0.97987,-0.19952 1.02025,-0.2846 0.6833,-1.43979 -0.13436,-0.46067 -0.10275,-0.86415 0.0855,-1.09094 0.16428,-0.19795 0.22379,-0.55511 0.13224,-0.79369 -0.0915,-0.23858 -0.0201,-0.61017 0.15886,-0.82576 0.17892,-0.21559 0.26644,-0.70001 0.19447,-1.07648 -0.0917,-0.47993 0.0571,-0.88731 0.49803,-1.36308 0.34588,-0.37321 0.62888,-0.70295 0.62888,-0.73275 0,-0.64536 -0.69863,-1.7058 -1.20803,-1.83365 -0.38863,-0.0975 -0.64405,-0.35354 -0.64405,-0.64551 0,-0.35622 -0.20939,-0.48982 -0.79375,-0.50643 -0.90339,-0.0257 -0.96749,0.10527 -0.37303,0.76214 0.27222,0.3008 0.35581,0.66941 0.23683,1.0443 -0.16273,0.51272 -0.32151,0.5639 -1.37949,0.44465 -1.31081,-0.14775 -1.67182,-0.48365 -1.44675,-1.34615 0.27537,-1.05529 1.80251,-2.10243 2.88167,-1.97594 0.67061,0.0786 0.75047,7.8e-4 0.82765,-0.80654 0.047,-0.49145 -0.0423,-1.02128 -0.19844,-1.1774 -0.15612,-0.15612 -0.28386,-0.47167 -0.28386,-0.70123 0,-0.22956 -0.18473,-0.68112 -0.41052,-1.00348 l -0.41051,-0.58609 -0.71396,0.6781 c -0.61011,0.57946 -0.89761,0.66172 -1.97641,0.56551 -1.06514,-0.095 -1.24285,-0.0462 -1.13705,0.31215 0.55351,1.87468 0.34197,3.23731 -0.64063,4.12655 -0.56899,0.51493 -0.50812,1.4667 0.19408,3.03442 0.22551,0.50348 0.46971,1.44502 0.54267,2.09231 l 0.13265,1.17688 -1.62662,-0.17001 c -1.44832,-0.15138 -1.62662,-0.11826 -1.62662,0.30218 0,0.2597 -0.13096,0.60316 -0.29104,0.76323 -0.21166,0.21167 -0.1395,0.44258 0.26459,0.84667 0.30559,0.30559 0.55562,0.67469 0.55562,0.82021 0,0.14552 0.19991,0.26458 0.44424,0.26458 0.45314,0 1.5028,0.29055 3.39222,0.939 0.58208,0.19977 1.35599,0.30188 1.71979,0.22691 0.3638,-0.075 1.07818,-0.22116 1.5875,-0.32487 z m -14.20413,-1.64321 c 0.97823,-0.0142 1.55616,-0.67019 1.69782,-1.92708 0.0804,-0.71355 0.0167,-1.24175 -0.16317,-1.35293 -0.77898,-0.48143 -0.003,-2.96801 1.11182,-3.5649 0.67202,-0.35965 2.70326,-0.28765 3.37155,0.11951 0.6724,0.40967 1.30694,1.50883 1.30694,2.26392 0,0.4815 0.16726,0.74775 0.52917,0.8424 0.64418,0.16845 0.65952,-0.0382 0.0875,-1.1797 -0.24291,-0.48474 -0.54056,-1.08809 -0.66146,-1.34077 -0.4504,-0.94136 -0.24225,-2.2241 0.47772,-2.94408 0.38365,-0.38364 0.80036,-0.69753 0.92604,-0.69753 0.37865,0 0.25701,-1.97824 -0.17487,-2.84396 -0.22186,-0.44472 -0.57905,-0.876 -0.79375,-0.95839 -0.21471,-0.0824 -0.39038,-0.31718 -0.39038,-0.52176 0,-0.30206 0.44748,-0.34644 2.38125,-0.23619 1.64206,0.0936 2.38125,0.0451 2.38125,-0.1562 0,-0.16058 0.23813,-0.41941 0.52917,-0.57517 0.66203,-0.35431 1.51746,0.0512 1.85024,0.87719 0.19096,0.47396 0.23591,0.37879 0.24966,-0.52863 0.0133,-0.87796 -0.0912,-1.14091 -0.50552,-1.27242 -0.28726,-0.0912 -0.76565,-0.50752 -1.06307,-0.92522 -1.06658,-1.49787 -1.90741,-1.77303 -5.95527,-1.94889 -3.89897,-0.16938 -6.80363,0.1005 -8.05694,0.74862 -1.20877,0.62508 -2.42586,1.98719 -2.33923,2.61795 0.0668,0.48602 -0.0723,0.57465 -1.00912,0.6432 -1.02178,0.0748 -1.1074,0.14572 -1.43672,1.19062 -0.1926,0.61112 -0.43865,1.23136 -0.54678,1.37832 -0.10813,0.14696 -0.2783,0.98933 -0.37815,1.87193 -0.15592,1.37817 -0.0897,1.80735 0.46891,3.04008 0.35775,0.78946 0.73023,1.7628 0.82773,2.16298 0.0975,0.40018 0.26429,0.72775 0.37066,0.72793 0.35454,5.9e-4 1.51568,1.18151 1.82074,1.85176 0.16558,0.3638 0.49986,1.22116 0.74284,1.90524 0.41424,1.16624 0.48305,1.2281 1.10355,0.99219 0.36396,-0.13838 0.92189,-0.25539 1.23984,-0.26002 z m 5.54954,-2.37283 c -0.0881,-0.33701 -0.36089,-0.52917 -0.75115,-0.52917 -0.37505,0 -0.67626,-0.20005 -0.77643,-0.51566 -0.10705,-0.33729 -0.3095,-0.45971 -0.58526,-0.35389 -0.25013,0.096 -0.56632,-0.0362 -0.77747,-0.32491 -0.19573,-0.26769 -0.41094,-0.43164 -0.47823,-0.36435 -0.0673,0.0673 0.35746,0.68368 0.94389,1.36975 0.80478,0.9415 1.24977,1.2474 1.81464,1.2474 0.61813,0 0.72431,-0.0921 0.61001,-0.52917 z m 0.71121,-1.78594 c -0.006,-1.07514 -0.79863,-2.37091 -1.27108,-2.07892 -0.19304,0.1193 -0.1115,0.35973 0.24181,0.71304 0.34251,0.34251 0.47455,0.71737 0.3694,1.04869 -0.0924,0.29128 -0.0408,0.51563 0.11876,0.51563 0.15532,0 0.28241,0.17859 0.28241,0.39687 0,0.21829 0.0595,0.39688 0.13229,0.39688 0.0728,0 0.12964,-0.44649 0.12641,-0.99219 z m -1.97849,-0.33073 c 0.0899,-0.14552 0.0374,-0.26458 -0.11668,-0.26458 -0.15411,0 -0.2802,0.11906 -0.2802,0.26458 0,0.14552 0.0525,0.26459 0.11668,0.26459 0.0642,0 0.19026,-0.11907 0.2802,-0.26459 z m 51.99062,-2.38125 c 0,-0.34525 -0.17639,-0.52916 -0.50752,-0.52916 -1.16575,0 -1.80454,0.63474 -0.88154,0.87595 1.02865,0.26881 1.38906,0.17883 1.38906,-0.34679 z m 1.15027,-4.23668 c -0.0869,-0.43472 -0.24351,-0.7904 -0.34793,-0.7904 -0.10441,0 -0.41695,-0.44649 -0.69453,-0.99219 -0.27757,-0.5457 -0.56421,-1.05172 -0.63697,-1.12448 -0.48637,-0.48636 -0.79375,-1.49841 -0.79375,-2.61335 0,-1.03382 0.17626,-1.55339 0.867,-2.55573 0.47686,-0.69196 1.15156,-1.44705 1.49935,-1.67797 0.62501,-0.41499 0.63014,-0.41111 0.44285,0.33514 -0.10422,0.41525 -0.36299,0.9285 -0.57504,1.14055 -1.14457,1.14456 -1.37764,2.9169 -0.59455,4.52103 0.33487,0.68597 0.68095,1.30674 0.76908,1.3795 0.0881,0.0728 0.32913,0.45866 0.53558,0.85756 l 0.37536,0.72527 1.1516,-1.18829 c 1.54705,-1.59634 2.197,-1.55257 1.15519,0.0778 -0.42921,0.67168 -0.38199,0.65726 0.7276,-0.22214 0.65263,-0.51725 1.67841,-1.08332 2.2795,-1.25794 l 1.09291,-0.31749 -0.35369,-0.99103 c -0.19453,-0.54506 -0.35891,-1.66861 -0.3653,-2.49676 -0.006,-0.82816 -0.13067,-1.57933 -0.27619,-1.66926 -0.14553,-0.0899 -0.26459,-0.38203 -0.26459,-0.64909 0,-0.26707 -0.35719,-0.86795 -0.79375,-1.33529 -0.43656,-0.46734 -0.79375,-0.89665 -0.79375,-0.95402 0,-0.2909 1.33961,-0.0498 1.69434,0.30491 0.91124,0.91124 2.00983,3.96486 2.00983,5.58648 0,0.64167 0.19701,1.46735 0.43781,1.83485 0.62732,0.95742 3.13414,2.81509 4.98615,3.69497 0.87312,0.41482 1.92708,0.9846 2.34213,1.26619 0.48714,0.3305 1.38319,0.55695 2.52791,0.63886 1.61082,0.11525 1.84442,0.0657 2.5498,-0.54107 l 0.77652,-0.66793 -1.22933,0.13856 c -0.84058,0.0947 -1.50098,0.003 -2.08831,-0.28995 -0.47244,-0.23568 -0.99853,-0.42851 -1.16909,-0.42851 -0.55524,0 -1.44893,-1.19354 -1.894,-2.52948 -0.23948,-0.71884 -0.52208,-1.42605 -0.62801,-1.57157 -0.10592,-0.14552 -0.2713,-0.7018 -0.3675,-1.23619 -0.12328,-0.68474 -0.5825,-1.38133 -1.55539,-2.35935 -1.56096,-1.56918 -1.3409,-2.02143 0.3954,-0.81258 1.31245,0.91376 2.05966,1.74049 2.05966,2.27887 0,0.20803 0.11073,0.44667 0.24607,0.53031 0.13533,0.0836 0.32635,0.79465 0.42447,1.58003 0.12984,1.03919 0.38981,1.66833 0.9549,2.31093 l 0.77649,0.88298 -0.12751,-1.85208 c -0.17972,-2.61039 -0.51,-4.15196 -1.11181,-5.18944 -0.28586,-0.49279 -0.68344,-1.40199 -0.88352,-2.02046 -0.20008,-0.61846 -0.44219,-1.12447 -0.53802,-1.12447 -0.0958,0 -0.75577,-0.80368 -1.46656,-1.78594 l -1.29233,-1.78594 -0.20535,1.19063 c -0.11295,0.65484 -0.34412,1.45309 -0.51373,1.77388 -0.1901,0.35957 -0.24966,1.15215 -0.15528,2.06656 0.13151,1.2742 0.0926,1.47166 -0.27576,1.40071 -0.23586,-0.0454 -0.53602,-0.49622 -0.66702,-1.00176 -0.2598,-1.00259 -0.0214,-3.71023 0.32664,-3.71023 0.11885,0 0.29953,-0.44648 0.40151,-0.99219 0.10198,-0.5457 0.30966,-1.14254 0.46153,-1.3263 0.42186,-0.51047 0.0938,-5.26635 -0.46055,-6.67734 -0.56559,-1.43952 -0.82042,-4.17542 -0.42567,-4.57016 0.33053,-0.33054 0.33067,-0.33015 0.94447,2.58578 0.24506,1.16417 0.54058,2.3548 0.65671,2.64584 0.84717,2.12302 1.10031,4.92312 0.53976,5.97052 -0.2155,0.40267 -0.1873,0.51177 0.13229,0.51177 0.2234,0 0.41017,0.0893 0.41503,0.19844 0.005,0.10914 0.53918,0.78464 1.18737,1.50112 0.64819,0.71648 1.25295,1.5372 1.34393,1.82383 0.091,0.28662 0.50915,1.06318 0.92929,1.72567 1.30304,2.05467 0.98211,0.34749 -0.57587,-3.06336 -0.28177,-0.61688 -0.51231,-1.19873 -0.51231,-1.29299 0,-0.0943 -0.48562,-1.19689 -1.07915,-2.45028 -1.75371,-3.70337 -2.19679,-5.20634 -2.48537,-8.43045 -0.1387,-1.54966 -0.10051,-1.91823 0.19876,-1.91823 0.25152,0 0.4821,0.61589 0.71818,1.91823 0.19125,1.05502 0.44847,2.03134 0.57161,2.16958 0.12313,0.13825 0.22388,0.5777 0.22388,0.97657 0,0.39887 0.11906,0.79881 0.26459,0.88874 0.14552,0.0899 0.26458,0.34686 0.26458,0.57095 0,0.22408 0.17859,0.81236 0.39687,1.3073 0.21829,0.49493 0.57547,1.30483 0.79375,1.79976 0.21829,0.49494 0.39953,1.12001 0.40276,1.38906 0.003,0.26905 0.22167,0.76975 0.4854,1.11266 l 0.47952,0.62347 0.28637,-0.75576 c 0.1575,-0.41567 0.35487,-1.17249 0.43858,-1.68181 0.0837,-0.50932 0.26527,-1.46182 0.40345,-2.11667 0.25164,-1.19256 0.15975,-2.72897 -0.23736,-3.96875 -0.11652,-0.3638 -0.42387,-1.33046 -0.68298,-2.14812 l -0.47111,-1.48667 -1.87523,-0.33005 c -1.03138,-0.18154 -1.99483,-0.42559 -2.14101,-0.54236 -0.14618,-0.11676 -1.15501,-0.13267 -2.24185,-0.0354 -1.60269,0.14351 -2.0274,0.27692 -2.24776,0.7061 -0.14943,0.29105 -0.65865,1.0864 -1.13159,1.76747 -0.47294,0.68106 -0.85989,1.35716 -0.85989,1.50245 0,0.14529 -0.14992,0.42149 -0.33315,0.61379 -0.61776,0.64834 -0.9894,2.68991 -0.69427,3.81401 0.45337,1.72681 1.10655,3.67159 1.28021,3.81166 0.42222,0.34056 1.69458,3.16791 1.50909,3.3534 -0.26454,0.26454 -1.99082,-1.69599 -2.19557,-2.49351 -0.0841,-0.32742 -0.24512,-0.59531 -0.35789,-0.59531 -0.20284,0 -0.28355,-0.17294 -0.80259,-1.71979 -0.4426,-1.31903 -0.3504,-5.94156 0.12907,-6.47137 0.22372,-0.2472 0.40676,-0.5432 0.40676,-0.65776 0,-0.11457 0.42686,-0.78981 0.94858,-1.50053 l 0.94857,-1.29221 h -0.68399 c -1.3186,0 -5.15942,4.83013 -4.82563,6.06859 0.0681,0.25278 0.12344,0.18213 0.1422,-0.18162 0.0445,-0.86386 0.55986,-0.73237 0.55986,0.14285 0,0.40599 -0.16378,1.38826 -0.36395,2.18282 -0.51185,2.03172 -0.68182,4.39198 -0.42795,5.94256 0.25981,1.58681 0.81795,3.6528 1.03645,3.83646 0.0866,0.0728 0.39437,0.60854 0.68402,1.19063 0.28965,0.58208 0.79452,1.50245 1.12195,2.04526 0.55651,0.92261 0.77671,1.7912 0.4541,1.7912 -0.38669,0 -1.68692,-1.66547 -2.33605,-2.99224 -0.4024,-0.82247 -0.84307,-1.56427 -0.97927,-1.64844 -0.1362,-0.0842 -0.24764,-0.44368 -0.24764,-0.7989 0,-0.35521 -0.11906,-0.64584 -0.26458,-0.64584 -0.14552,0 -0.26458,-0.40969 -0.26458,-0.91043 0,-0.50073 -0.13045,-0.99105 -0.28989,-1.08958 -0.15943,-0.0985 -0.24287,-0.58181 -0.18542,-1.07395 0.0575,-0.49213 0.0703,-0.89479 0.0286,-0.89479 -0.0843,0 -1.22244,1.69098 -2.12153,3.15219 -0.32111,0.52187 -0.589,1.19293 -0.59531,1.49125 -0.006,0.29831 -0.14861,0.67953 -0.31622,0.84714 -0.43846,0.43845 -0.46158,5.14574 -0.026,5.29108 0.1819,0.0607 0.33073,0.22883 0.33073,0.37363 0,0.1448 0.47625,0.72086 1.05833,1.28013 0.86169,0.82791 1.06145,1.20504 1.0751,2.02977 0.0145,0.87758 0.0489,0.93294 0.2573,0.41427 0.13229,-0.32927 0.16939,-0.95435 0.0824,-1.38906 z m 20.38862,-10.19129 c 0.50376,-0.33007 0.60942,-0.61336 0.57078,-1.53038 -0.0885,-2.10058 -0.75252,-2.3834 -1.20199,-0.51196 -0.16601,0.69122 -0.36812,1.52466 -0.44914,1.85208 -0.17383,0.7025 0.1985,0.76807 1.08035,0.19026 z m -1.43055,-3.46872 c 0,-0.36715 0.31012,-1.56604 0.68915,-2.66421 0.65663,-1.90242 0.67056,-2.05437 0.29525,-3.21944 l -0.39391,-1.22278 -0.17837,1.5875 c -0.0981,0.87312 -0.29011,1.86013 -0.42667,2.19336 -0.41432,1.01095 -0.65115,4.40454 -0.29189,4.1825 0.16854,-0.10416 0.30644,-0.48978 0.30644,-0.85693 z m -17.81093,-5.96542 c -0.0845,-0.21106 -0.14716,-0.14837 -0.15985,0.15986 -0.0115,0.27891 0.051,0.43518 0.13896,0.34726 0.0879,-0.0879 0.0973,-0.31612 0.0209,-0.50712 z m -108.26978,113.7543 c -0.0673,-0.1819 -0.22484,-1.2237 -0.35002,-2.3151 -0.12517,-1.09141 -0.30322,-2.16297 -0.39565,-2.38125 -0.21555,-0.50901 0.2055,-1.1823 0.59054,-0.94433 0.16179,0.1 0.29417,0.4129 0.29417,0.69536 0,0.28245 0.11906,0.51355 0.26458,0.51355 0.14552,0 0.26458,0.23642 0.26458,0.52537 0,0.28895 0.14376,1.06286 0.31946,1.71979 l 0.31946,1.19442 h 3.48869 c 3.89477,0 3.80665,0.0448 3.81395,-1.93987 0.008,-2.07412 -2.53587,-1.89659 27.17217,-1.89659 23.34186,0 43.83592,0.31686 53.12482,0.82137 1.45521,0.079 4.31271,0.22421 6.35,0.32262 3.70131,0.17879 4.70737,0.51749 2.64583,0.89074 -1.94823,0.35273 -48.03117,-0.0154 -53.84271,-0.43014 -0.94588,-0.0675 -5.58932,-0.19013 -10.31875,-0.27251 -4.72943,-0.0824 -10.32536,-0.2675 -12.43542,-0.41137 -2.11005,-0.14387 -5.60775,-0.29083 -7.77266,-0.32656 l -3.9362,-0.065 0.16582,1.95735 c 0.10939,1.29117 0.0648,2.07911 -0.13109,2.3151 -0.41336,0.49807 -9.44782,0.52342 -9.63157,0.027 z"
       id="path20" /></g></svg>
