<?xml version="1.0" encoding="UTF-8" standalone="no"?>
<!-- Created with Inkscape (http://www.inkscape.org/) -->

<svg
   width="173.53816mm"
   height="116.62011mm"
   viewBox="0 0 173.53816 116.62011"
   version="1.1"
   id="svg1"
   xml:space="preserve"
   xmlns="http://www.w3.org/2000/svg"
   xmlns:svg="http://www.w3.org/2000/svg"><defs
     id="defs1" /><g
     id="layer1"
     transform="translate(2.408393,-358.9216)"><path
       style="fill:#4d4d4d"
       d="m 65.531668,475.26069 c -0.327422,-0.15791 -0.595313,-0.39648 -0.595313,-0.53016 0,-0.13368 -0.197873,-0.0452 -0.439719,0.19667 -0.291077,0.29108 -0.715914,0.39812 -1.256771,0.31666 -0.907294,-0.13666 -2.595583,-0.75445 -2.802286,-1.02544 -0.07323,-0.096 -0.487761,-0.21507 -0.921172,-0.26458 -0.612299,-0.0699 -0.840297,-0.26702 -1.02245,-0.88377 -0.128937,-0.43656 -0.339487,-1.0005 -0.467891,-1.25318 -0.33044,-0.65028 -0.289391,-1.62777 0.08404,-2.0012 0.174625,-0.17462 0.709045,-0.3175 1.187601,-0.3175 0.478555,0 1.108283,-0.20393 1.399395,-0.45319 0.291113,-0.24926 1.332552,-0.67324 2.31431,-0.94218 0.981757,-0.26894 2.165742,-0.77938 2.631076,-1.1343 0.465333,-0.35493 0.974683,-0.64533 1.131888,-0.64533 0.157205,0 0.492571,-0.11531 0.745258,-0.25624 0.818673,-0.45661 2.971139,-1.06667 3.763519,-1.06667 0.828331,0 2.11987,-0.49093 2.11987,-0.80579 0,-0.28082 1.343058,-1.11435 1.516333,-0.94108 0.08113,0.0811 -0.137563,0.56999 -0.485977,1.08635 -0.498254,0.73843 -0.94412,1.02582 -2.088689,1.34632 -2.721135,0.76196 -4.615969,1.53051 -7.273575,2.95017 -0.435205,0.23248 -1.360423,0.47738 -2.056038,0.54422 -0.695616,0.0668 -1.315516,0.20366 -1.377557,0.30404 -0.06204,0.10039 0.257093,0.12823 0.709184,0.0619 0.692511,-0.10164 0.794499,-0.049 0.647485,0.33409 -0.09597,0.25011 -0.1745,0.50454 -0.1745,0.56539 0,0.0609 -0.153325,0.11066 -0.340723,0.11066 -0.187398,0 -0.752945,0.35235 -1.256771,0.78299 l -0.916047,0.783 0.696745,0.0108 c 0.472707,0.007 0.73993,-0.15438 0.831045,-0.5028 0.144017,-0.55073 1.731273,-1.33853 2.696848,-1.33853 0.61329,0 1.463904,0.74237 1.463904,1.27761 0,0.17044 -0.20836,0.31285 -0.463021,0.31645 -0.724602,0.0103 -3.082951,1.84497 -2.771669,2.15625 0.445617,0.44562 1.507249,0.13963 1.592887,-0.45911 0.08194,-0.57292 1.293776,-1.43911 2.013355,-1.43911 0.575327,0 0.530054,0.31921 -0.124794,0.87991 -0.795987,0.68155 -0.50454,1.11442 0.703988,1.0456 0.568496,-0.0324 1.628941,-0.0963 2.356545,-0.14205 0.727604,-0.0458 1.977761,-0.39496 2.778125,-0.77599 1.046254,-0.4981 2.059213,-0.73395 3.604476,-0.83926 1.524626,-0.10391 2.429885,-0.31204 3.114814,-0.71616 0.700759,-0.41346 1.573601,-0.60762 3.182814,-0.70802 1.731904,-0.10805 2.365366,-0.26083 2.893821,-0.69795 0.729319,-0.60327 0.729302,-0.64814 -0.0024,-6.21627 -0.180183,-1.37117 -0.612275,-0.98857 -0.618649,0.5478 -0.0022,0.53712 -0.123114,1.05016 -0.268635,1.1401 -0.14552,0.0899 -0.264583,0.37386 -0.264583,0.63095 0,0.613 -1.001922,1.53194 -1.918229,1.75936 -0.570454,0.14159 -0.727604,0.0873 -0.727604,-0.25151 0,-0.23766 0.300707,-0.54644 0.668238,-0.68617 0.367531,-0.13974 0.724064,-0.40468 0.792296,-0.58877 0.111691,-0.30134 1.027878,-4.36482 1.358053,-6.02324 0.186297,-0.93575 0.66488,-1.85208 0.967305,-1.85208 0.153284,0 0.196148,0.58853 0.10628,1.45926 -0.08989,0.87099 -0.05148,1.39801 0.09528,1.30731 0.135237,-0.0836 0.245885,-0.48716 0.245885,-0.89684 0,-0.69785 0.489161,-2.38677 1.039633,-3.58953 0.133202,-0.29104 0.446202,-1.09471 0.695555,-1.78593 0.249354,-0.69123 0.556257,-1.25677 0.682008,-1.25677 0.125751,0 0.228637,-0.40683 0.228637,-0.90407 0,-1.01141 2.133769,-5.36652 3.23812,-6.60913 0.252997,-0.28468 0.528371,-0.76449 0.611942,-1.06626 0.08357,-0.30177 0.276061,-0.84633 0.427756,-1.21013 0.151695,-0.3638 0.425176,-1.01864 0.607735,-1.45521 0.752586,-1.79969 0.897998,-2.16943 1.304169,-3.31613 0.466883,-1.31811 0.573895,-6.1125 0.181712,-8.14115 -0.340957,-1.76368 0.719442,-2.39413 2.095233,-1.24572 1.296185,1.08197 2.875865,1.65274 5.034102,1.81892 1.23307,0.0949 3.43257,0.3493 4.88777,0.56524 5.2361,0.77698 7.38162,0.9285 9.53808,0.6736 5.35761,-0.63327 8.2557,-1.60913 10.13171,-3.41159 0.60262,-0.579 1.56982,-1.27135 2.14934,-1.53857 0.57953,-0.26722 1.05675,-0.62792 1.06051,-0.80157 0.004,-0.17365 0.27144,-0.50107 0.59486,-0.72761 0.68225,-0.47786 0.6343,-0.49008 -1.64637,-0.41958 -0.94589,0.0292 -1.8329,0.162 -1.97115,0.29502 -0.35034,0.3371 -3.74616,0.30292 -4.88923,-0.0492 -0.87922,-0.27084 -1.46587,-0.52475 -2.79691,-1.21053 -0.29105,-0.14995 -0.9832,-0.49156 -1.53812,-0.75914 -0.55492,-0.26757 -1.66318,-1.05899 -2.46279,-1.75872 -0.79962,-0.69972 -1.60785,-1.27223 -1.79608,-1.27223 -0.18823,0 -0.68732,-0.349 -1.10909,-0.77556 -0.42176,-0.42657 -1.30103,-1.31954 -1.95394,-1.98438 -0.6529,-0.66484 -1.28974,-1.20881 -1.4152,-1.20881 -0.12546,0 -0.56863,-0.36454 -0.98484,-0.81009 l -0.75674,-0.81009 -3.50334,0.28093 c -1.92684,0.15451 -4.38847,0.28092 -5.470284,0.28092 -1.081815,0 -2.397468,0.11144 -2.923674,0.24765 -0.526207,0.1362 -2.118999,0.44974 -3.53954,0.69675 -2.226669,0.38718 -2.691819,0.56062 -3.373438,1.25779 -0.43485,0.44478 -0.790636,0.92367 -0.790636,1.06421 0,0.14054 -0.27031,0.62395 -0.60069,1.07425 -0.926654,1.26301 -1.165667,1.96499 -1.476491,4.33645 -0.158219,1.20715 -0.380657,2.33824 -0.494307,2.51355 -0.11365,0.1753 -0.225782,0.91404 -0.249181,1.64164 -0.05239,1.62901 -0.517918,5.3828 -0.879351,7.09063 -0.147802,0.69839 -0.26873,1.85222 -0.26873,2.56407 0,0.71186 -0.119062,1.36787 -0.264583,1.4578 -0.145521,0.0899 -0.266978,0.72205 -0.269904,1.40468 -0.0029,0.68264 -0.130592,2.01506 -0.283703,2.96095 -0.15311,0.94588 -0.382144,2.55323 -0.508963,3.57187 -0.475318,3.81788 -1.140073,6.83775 -1.627867,7.39511 -0.120989,0.13824 -0.21998,0.47948 -0.21998,0.7583 0,0.27882 -0.401313,1.05868 -0.891807,1.73302 -0.490493,0.67434 -1.073508,1.58333 -1.295588,2.01998 -0.577808,1.13608 -2.242515,2.83748 -2.449152,2.50313 -0.189257,-0.30622 0.544204,-1.57724 0.910172,-1.57724 0.126597,0 0.304139,-0.19275 0.394538,-0.42832 0.150342,-0.39179 -0.473514,-0.40871 -7.31388,-0.19844 -9.620175,0.29572 -28.590025,0.29466 -38.541017,-0.002 l -7.779441,-0.23205 0.173506,1.42267 c 0.09543,0.78248 0.234209,1.66081 0.308403,1.95185 0.304516,1.19454 -0.101764,1.31281 -4.745657,1.38143 -2.402142,0.0355 -4.53411,6.2e-4 -4.737707,-0.0775 -0.46941,-0.18013 -1.11109,-4.44806 -0.865547,-5.75691 0.124914,-0.66585 0.06966,-0.99733 -0.191934,-1.15144 -0.20204,-0.11902 -0.588369,-0.68754 -0.858508,-1.26337 -0.270139,-0.57583 -0.942149,-1.48463 -1.493355,-2.01956 -0.5512065,-0.53493 -1.0021936,-1.04515 -1.0021936,-1.13383 0,-0.19887 -0.8649847,-1.23742 -2.2035848,-2.64574 -0.557128,-0.58615 -1.1950104,-1.4287 -1.4175165,-1.87232 -0.2225061,-0.44362 -0.9136507,-1.34237 -1.535877,-1.99721 -1.046628,-1.10149 -1.4779014,-1.76812 -3.25226531,-5.02708 -2.17601649,-3.99668 -2.46051619,-4.73513 -2.72140369,-7.06368 -0.7053702,-6.29578 -0.7787544,-7.91342 -0.5011038,-11.04602 0.1554702,-1.75409 0.3816823,-4.39596 0.5026936,-5.87082 0.2363532,-2.88061 0.4947404,-3.93949 1.49414976,-6.12307 0.3514908,-0.76796 0.6390743,-1.48582 0.6390743,-1.59524 0,-0.10942 0.23758823,-0.37018 0.52797393,-0.57948 0.29038571,-0.2093 0.60171101,-0.7736 0.69183401,-1.25399 0.1898085,-1.01177 4.5334143,-5.6366 6.3554416,-6.76693 0.6011267,-0.37292 1.3980083,-0.96075 1.7708481,-1.30628 0.3728394,-0.34554 1.1311654,-0.85901 1.6851674,-1.14106 0.554002,-0.28205 1.046964,-0.60211 1.095471,-0.71125 0.04851,-0.10914 0.234584,-0.19844 0.413503,-0.19844 0.17892,0 0.942321,-0.29765 1.696446,-0.66145 0.754126,-0.36381 1.48276,-0.66146 1.619188,-0.66146 0.136428,0 0.323089,-0.26789 0.414802,-0.59532 0.354512,-1.26563 0.799102,-1.81695 1.914375,-2.37395 1.443329,-0.72083 4.569117,-3.27488 4.569117,-3.73338 0,-0.51227 2.320693,-2.55777 2.901885,-2.55777 0.278558,0 0.580053,-0.11906 0.66999,-0.26458 0.08994,-0.14552 0.513682,-0.26459 0.941657,-0.26459 0.427974,0 0.778135,-0.0951 0.778135,-0.21128 0,-0.29288 1.825535,-2.15833 2.926218,-2.99019 0.500632,-0.37837 1.815702,-1.12251 2.922378,-1.65365 1.591145,-0.76366 2.328331,-0.96571 3.523383,-0.96571 1.174311,0 1.699023,-0.13933 2.353487,-0.62492 1.060653,-0.78697 2.359906,-1.22716 3.622052,-1.22716 0.827316,0 1.192947,0.21189 2.333222,1.35217 0.743693,0.74369 1.415249,1.55091 1.492346,1.79382 0.252983,0.79708 1.749387,1.14075 5.573011,1.27994 3.206325,0.11671 3.760137,0.0768 4.067292,-0.29333 0.195564,-0.23564 0.519587,-0.42844 0.72005,-0.42844 0.200463,0 0.345576,-0.0893 0.322473,-0.19843 -0.09794,-0.46268 1.086025,-2.47088 1.989259,-3.37412 0.239727,-0.23973 0.799119,-0.96383 1.243092,-1.60913 0.922739,-1.34115 2.140988,-1.96207 3.849627,-1.96207 1.407882,0 3.399903,0.43922 4.469402,0.98546 1.614402,0.82454 3.176836,1.75671 3.520516,2.10039 0.194557,0.19455 0.375001,0.36041 0.400987,0.36858 0.02599,0.008 2.652681,0.11603 5.837099,0.23972 3.184419,0.12368 5.863326,0.33908 5.953126,0.47866 0.0898,0.13958 0.442397,0.34096 0.783551,0.44749 0.341153,0.10654 1.200696,0.76204 1.910095,1.45667 2.036957,1.99453 2.437625,4.57362 0.838955,5.40033 -0.667982,0.34542 -3.612883,0.87372 -4.117239,0.7386 -0.713828,-0.19123 -5.205215,-0.42816 -5.205215,-0.27458 0,0.10198 0.109503,0.22511 0.243341,0.27361 0.133838,0.0485 0.758916,0.53592 1.389063,1.08313 0.630146,0.54721 1.657309,1.35566 2.282583,1.79656 0.625274,0.44091 1.21367,1.0018 1.307547,1.24644 0.210412,0.54832 1.446081,1.77778 2.000644,1.99059 0.225126,0.0864 0.882337,0.79737 1.460469,1.57996 1.171468,1.58576 1.915845,2.16168 3.090311,2.39095 0.436563,0.0852 1.109168,0.23329 1.494678,0.32903 0.633252,0.15726 0.717763,0.0886 0.875305,-0.71157 0.09591,-0.4871 0.305968,-1.1523 0.466801,-1.47823 0.221342,-0.44854 0.201518,-0.86658 -0.08155,-1.71979 -0.207271,-0.62473 -0.364924,-2.07075 -0.353666,-3.24387 0.01737,-1.80999 0.141959,-2.36956 0.859896,-3.86208 0.461771,-0.95998 0.839583,-1.82427 0.839583,-1.92064 0,-0.0964 -0.329577,-0.52009 -0.732394,-0.9416 -0.57207,-0.59862 -0.894104,-0.73547 -1.471117,-0.62517 -0.600975,0.11489 -0.767169,0.0324 -0.891273,-0.44213 -0.0839,-0.32085 -0.433931,-0.69034 -0.777841,-0.82109 -0.37216,-0.1415 -0.625292,-0.45383 -0.625292,-0.77155 0,-0.45336 -0.159605,-0.52755 -1.059029,-0.49231 -0.582466,0.0228 -1.140597,-0.0401 -1.24029,-0.13977 -0.09969,-0.0997 -0.232385,-0.86336 -0.29487,-1.69704 -0.100983,-1.34735 -0.204655,-1.57459 -0.932943,-2.04496 -0.450634,-0.29104 -1.159192,-1.03556 -1.574573,-1.65449 -0.672035,-1.00134 -0.799054,-1.0815 -1.152957,-0.7276 -0.554258,0.55426 -1.177495,0.49606 -1.339938,-0.12513 -0.110529,-0.42266 -0.233277,-0.47117 -0.640614,-0.25317 -0.672599,0.35996 -0.898777,-0.23295 -0.589427,-1.54516 0.269541,-1.14335 0.169179,-2.44132 -0.188766,-2.44132 -0.135855,0 -0.247009,0.11906 -0.247009,0.26458 0,0.14552 -0.186617,0.26459 -0.414705,0.26459 -0.627603,0 -0.210491,-1.01707 0.868073,-2.11667 0.499579,-0.50932 1.216593,-1.46182 1.593365,-2.11667 0.739466,-1.28521 3.549137,-5.60401 3.786848,-5.82083 0.07977,-0.0728 0.404848,-0.50457 0.722393,-0.95957 0.317545,-0.455 0.984646,-1.02055 1.482447,-1.25677 1.561741,-0.74109 5.803384,-0.41558 6.143786,0.4715 0.07829,0.20401 0.662468,0.35772 1.467888,0.38622 1.476989,0.0523 3.298845,0.77385 4.267315,1.69014 1.17561,1.11227 2.04301,3.2389 2.04301,5.00894 0,0.56548 0.1932,1.32302 0.42933,1.6834 0.27895,0.42573 0.37394,0.93217 0.27119,1.4459 -0.0909,0.45463 -0.0461,0.79066 0.10551,0.79066 0.14501,0 0.70758,0.28359 1.25016,0.6302 0.9495,0.60656 2.61051,0.88764 7.73339,1.3087 1.47536,0.12127 4.42267,1.51388 5.43069,2.56603 0.41455,0.4327 0.97102,0.78673 1.2366,0.78673 0.26558,0 1.19136,0.70192 2.05728,1.55981 0.86592,0.8579 1.99846,1.82189 2.51675,2.14221 0.51829,0.32032 1.11043,0.89833 1.31587,1.28446 0.20543,0.38614 0.82762,1.18539 1.38264,1.77612 1.18555,1.26183 1.71637,2.18987 2.18536,3.82074 0.18832,0.65484 0.50672,1.63952 0.70756,2.18816 0.20085,0.54865 0.36517,1.23326 0.36517,1.52136 0,0.28809 0.10184,0.52381 0.22631,0.52381 0.36879,0 1.08748,3.86484 1.35303,7.27604 0.13593,1.74625 0.3843,3.88938 0.55193,4.7625 0.16763,0.87313 0.31615,3.19485 0.33004,5.15938 0.0225,3.17755 -0.039,3.7015 -0.55657,4.74605 -0.32,0.6458 -0.58182,1.599 -0.58182,2.11822 0,1.06955 0.52498,1.41529 2.64583,1.74249 0.65484,0.10103 1.55818,0.33479 2.00742,0.51946 0.54212,0.22285 0.96764,0.25135 1.26534,0.0848 0.24669,-0.13806 0.83163,-0.25178 1.29987,-0.25271 0.46823,-9.2e-4 2.49161,-0.17236 4.49639,-0.38097 4.07498,-0.42402 5.50083,-0.25087 6.98152,0.84781 1.34028,0.9945 1.67654,1.41855 1.67654,2.11423 0,0.3595 0.23813,0.90922 0.52917,1.22162 0.63469,0.68126 0.67743,1.33871 0.11725,1.80361 -0.36713,0.3047 -0.3447,0.40419 0.20634,0.91514 0.34004,0.3153 0.9526,0.65719 1.36124,0.75976 0.40865,0.10256 1.04667,0.46806 1.41783,0.81222 0.37116,0.34415 1.31318,0.95971 2.09338,1.36789 0.7802,0.40819 1.41854,0.81216 1.41854,0.89773 0,0.0856 0.41397,0.30525 0.91993,0.48821 1.48177,0.53581 5.67051,4.90041 6.65146,6.93069 2.58398,5.34813 3.06593,6.67644 3.59513,9.90859 0.56591,3.45634 0.30139,11.3505 -0.41941,12.51678 -0.2362,0.38218 -0.58021,2.34466 -0.92667,5.28637 -0.1249,1.06049 -0.31159,2.01299 -0.41486,2.11667 -0.27697,0.27807 -6.11005,0.37379 -7.95037,0.13047 l -1.5875,-0.2099 -0.0372,-2.37957 -0.0372,-2.37957 -3.1378,0.13229 c -1.7258,0.0728 -6.38981,0.11709 -10.36448,0.0985 -6.9428,-0.0325 -7.19725,-0.0159 -6.47775,0.42166 0.41191,0.2505 1.28266,0.51746 1.935,0.59326 0.68837,0.08 1.76841,0.50217 2.5738,1.00611 0.95438,0.59715 1.82189,0.90796 2.77813,0.99534 0.76472,0.0699 1.50947,0.21511 1.65499,0.32276 0.80894,0.59837 2.86727,1.58944 3.30107,1.58944 0.46387,0 0.97681,0.44233 0.76032,0.65566 -0.22341,0.22015 -3.04671,-0.47963 -3.65494,-0.90591 -0.36907,-0.25866 -1.43319,-0.55425 -2.36471,-0.65686 -1.12311,-0.12371 -2.01286,-0.40345 -2.64111,-0.83035 -0.52108,-0.35409 -1.09838,-0.64379 -1.28288,-0.64379 -0.1845,0 -0.33546,-0.0999 -0.33546,-0.22212 0,-0.38151 -1.30111,-0.83622 -2.3928,-0.83622 -0.92808,0 -1.24316,-0.1924 -2.8163,-1.71979 -0.97422,-0.94588 -1.87494,-1.71979 -2.0016,-1.71979 -0.12667,0 -1.04624,-0.80367 -2.04351,-1.78594 -0.99726,-0.98226 -2.23768,-2.14312 -2.75648,-2.57969 -0.5188,-0.43656 -0.94566,-0.92289 -0.94858,-1.08074 -0.007,-0.37788 -1.24678,-1.47067 -2.39609,-2.112 -0.50408,-0.28128 -0.97604,-0.58411 -1.0488,-0.67294 -0.1954,-0.23857 -1.78647,-1.02911 -2.07122,-1.02911 -0.13497,0 -0.70643,-0.19964 -1.26991,-0.44365 -0.56347,-0.24401 -1.15823,-0.46939 -1.32167,-0.50083 -0.27293,-0.0525 -1.56858,-0.59692 -2.88423,-1.2119 -0.29457,-0.13769 -0.75371,-0.57203 -1.02031,-0.96521 -0.2666,-0.39318 -1.0293,-1.13158 -1.69487,-1.64091 -2.14103,-1.63839 -3.92649,-3.40989 -4.44553,-4.41079 -0.83455,-1.60931 -2.05939,-3.63031 -2.62247,-4.3271 -0.58621,-0.72541 -2.01229,-1.31627 -3.17689,-1.31627 -1.29467,0 -5.88676,-1.17887 -7.53874,-1.93532 -0.363802,-0.16659 -1.029884,-0.5732 -1.480183,-0.90358 -0.450298,-0.33038 -0.936632,-0.60069 -1.080742,-0.60069 -0.151353,0 -0.04523,0.86605 0.251275,2.05052 0.378937,1.5138 0.478013,2.58591 0.378509,4.09591 -0.150121,2.27814 -0.238952,2.13012 2.583259,4.30461 0.566602,0.43657 1.246979,1.00211 1.51195,1.25677 0.264972,0.25467 0.632722,0.46303 0.817222,0.46303 0.34566,0 2.17242,1.15875 2.7923,1.77122 0.19229,0.18999 0.51971,0.34544 0.7276,0.34544 0.20789,0 0.37798,0.10518 0.37798,0.23373 0,0.12855 0.20836,0.30526 0.46302,0.3927 0.88453,0.30371 2.43976,1.36122 2.8377,1.92955 0.81146,1.1589 2.90113,2.42004 4.77408,2.88122 1.01589,0.25014 2.0852,0.55092 2.37624,0.66839 0.29104,0.11748 0.9079,0.28771 1.37078,0.3783 0.79372,0.15534 1.62316,0.79683 1.3646,1.05538 -0.065,0.065 -0.73679,0.0204 -1.49291,-0.0992 -0.75612,-0.11952 -1.37476,-0.13831 -1.37476,-0.0418 0,0.31858 1.44411,1.53469 2.03357,1.7125 0.3181,0.096 1.11395,0.70248 1.76856,1.34783 1.14644,1.13022 1.99798,1.65936 4.26766,2.6519 0.58209,0.25454 1.78973,0.80208 2.68366,1.21674 0.89393,0.41466 1.75351,0.75393 1.91018,0.75393 0.15667,0 0.70882,0.23813 1.227,0.52917 0.51817,0.29104 1.07547,0.52917 1.23844,0.52917 0.384,0 3.14071,1.3148 3.65635,1.74387 0.9907,0.8244 3.82714,2.22488 4.50611,2.22488 1.18518,0 1.90123,0.37785 3.71695,1.96139 0.93221,0.81301 1.85455,1.47819 2.04965,1.47819 0.19511,0 0.74842,0.40538 1.22958,0.90085 1.09988,1.13257 2.25604,1.90683 2.25604,1.51083 0,-0.16226 -0.17859,-0.29501 -0.39687,-0.29501 -0.22049,0 -0.39688,-0.23519 -0.39688,-0.52917 0,-0.59049 0.41071,-0.6617 1.47738,-0.25616 0.63062,0.23977 0.6771,0.22365 0.3817,-0.13229 -0.18501,-0.22291 -0.55289,-0.4053 -0.81753,-0.4053 -0.79184,0 -0.85288,-0.50003 -0.0846,-0.69286 0.6346,-0.15928 0.66524,-0.2149 0.2754,-0.49995 -0.55128,-0.4031 -0.56887,-0.92386 -0.0312,-0.92386 0.22408,0 0.87418,0.23813 1.44466,0.52917 0.57049,0.29104 1.30989,0.52368 1.64311,0.51697 0.41311,-0.008 0.12186,-0.23304 -0.9155,-0.70641 -1.45824,-0.66542 -1.85348,-1.16156 -1.23154,-1.54594 0.15939,-0.0985 0.54635,-0.0563 0.85989,0.0939 0.31355,0.15016 1.07303,0.49162 1.68774,0.75881 1.18523,0.51516 1.37693,0.98594 0.74284,1.82428 -0.21365,0.28247 -0.39224,0.72195 -0.39687,0.97661 -0.005,0.25466 -0.10837,0.46302 -0.23053,0.46302 -0.12216,0 -0.35291,0.28706 -0.51277,0.63792 -0.20947,0.45974 -0.70138,0.75732 -1.76122,1.06542 -1.40306,0.40788 -1.52353,0.40337 -2.62451,-0.0982 -0.63467,-0.28913 -1.48999,-0.94716 -1.90071,-1.4623 -0.41071,-0.51513 -0.88157,-0.93661 -1.04635,-0.93661 -0.58856,0 -2.39668,-1.05708 -3.15507,-1.84455 -0.42443,-0.4407 -0.98998,-0.80128 -1.25677,-0.80128 -0.26679,0 -0.48507,-0.11907 -0.48507,-0.26459 0,-0.14552 -0.28269,-0.26458 -0.62819,-0.26458 -0.96034,0 -4.01565,-1.12921 -4.39889,-1.62578 -0.0728,-0.0943 -1.08479,-0.6716 -2.24896,-1.28294 -1.16417,-0.61135 -2.23573,-1.20226 -2.38125,-1.31314 -0.14552,-0.11088 -0.67152,-0.2789 -1.16889,-0.37339 -0.49737,-0.0945 -1.56116,-0.49315 -2.36398,-0.88594 -0.84219,-0.41204 -1.85872,-0.70084 -2.40299,-0.68268 -5.02965,0.16777 -30.997962,0.26701 -33.311721,0.12729 -2.422445,-0.14627 -3.058857,-0.1094 -3.307292,0.19163 -0.212263,0.25719 -0.290059,1.76149 -0.250947,4.85239 0.06188,4.8897 0.0083,5.11146 -1.59229,6.59472 -0.633521,0.58708 -1.107809,0.7391 -2.788867,0.8939 -1.209922,0.11141 -2.291873,0.36961 -2.686987,0.64122 -1.081373,0.74336 -2.381266,1.11751 -4.7625,1.37079 -1.236927,0.13156 -2.889414,0.30705 -3.672193,0.38996 -0.900723,0.0954 -1.488798,0.0447 -1.601818,-0.13821 -0.121803,-0.19708 -0.507279,-0.12138 -1.212397,0.23811 -1.153084,0.58788 -1.574598,0.6231 -2.443279,0.20415 z m -5.336052,-4.60331 c 0.341262,-0.41594 0.315421,-0.44145 -0.286344,-0.28264 -0.363802,0.096 -0.750755,0.17619 -0.859896,0.17817 -0.109141,0.002 -0.198438,0.24593 -0.198438,0.54209 0,0.44006 0.08861,0.49106 0.484782,0.27903 0.266629,-0.14269 0.653583,-0.46519 0.859896,-0.71665 z m -38.386345,-8.46053 c 0,-1.04583 0.152105,-1.69412 0.518064,-2.20806 0.517949,-0.7274 0.519074,-0.72761 5.093229,-0.96689 5.895666,-0.30841 39.488101,-0.30878 45.19104,-5e-4 l 4.367958,0.23611 0.830653,-1.33624 c 0.456859,-0.73493 0.954312,-1.85383 1.105452,-2.48643 0.15114,-0.6326 0.408994,-1.62644 0.573009,-2.20852 0.78665,-2.79179 1.110969,-4.43512 1.331531,-6.74688 0.131897,-1.38245 0.314411,-2.82843 0.405586,-3.2133 0.153839,-0.64939 0.02978,-0.77123 -1.723041,-1.69231 -1.038849,-0.5459 -2.093509,-1.25277 -2.34369,-1.57083 -0.25018,-0.31805 -0.782951,-0.66062 -1.183933,-0.76126 -0.400983,-0.10064 -1.45179,-0.89458 -2.335127,-1.76431 -0.883338,-0.86972 -1.755317,-1.58132 -1.937732,-1.58132 -0.182415,0 -1.173821,-0.80367 -2.203125,-1.78594 -1.029304,-0.98226 -2.298417,-2.12508 -2.820251,-2.5396 -0.521834,-0.41451 -0.948789,-0.8631 -0.948789,-0.99686 0,-0.26982 -1.248411,-1.49022 -2.893401,-2.82848 -0.591442,-0.48116 -1.075349,-0.99633 -1.075349,-1.14483 0,-0.34814 -1.464462,-1.81679 -1.811607,-1.81679 -0.145647,0 -0.541758,-0.37053 -0.880248,-0.8234 -0.33849,-0.45287 -1.584718,-1.80645 -2.769395,-3.00797 -1.184677,-1.20152 -2.226295,-2.40857 -2.314706,-2.68233 -0.08841,-0.27377 -0.54788,-0.76264 -1.021041,-1.08638 -0.473162,-0.32374 -1.09842,-0.94848 -1.389461,-1.3883 -0.291042,-0.43983 -0.618464,-0.80003 -0.727604,-0.80044 -0.109141,-4.2e-4 -0.198438,-0.12833 -0.198438,-0.28425 0,-0.34199 -0.663671,-1.03943 -0.9891,-1.03943 -0.128231,0 -0.942121,-0.74414 -1.808644,-1.65365 -0.866522,-0.9095 -1.93097,-1.82721 -2.365438,-2.03935 -0.434469,-0.21214 -1.266193,-0.75414 -1.848276,-1.20445 -1.542286,-1.19313 -4.003426,-2.3562 -5.820834,-2.75079 -0.873125,-0.18956 -1.825625,-0.44228 -2.116666,-0.56158 -0.81195,-0.33284 -5.083257,-0.78602 -7.408334,-0.78602 -2.365066,0 -6.616724,0.45669 -7.408333,0.79576 -0.291042,0.12466 -1.243542,0.39818 -2.116667,0.60782 -1.945029,0.467 -4.35402,1.75342 -5.55625,2.96708 -0.291042,0.29381 -0.97675,0.86625 -1.523797,1.2721 -0.547046,0.40584 -1.245528,1.23702 -1.552181,1.84705 -0.3066533,0.61003 -0.7045842,1.28775 -0.8842909,1.50603 -0.3578681,0.43468 -1.1344165,1.921 -1.8661835,3.57187 -0.2580142,0.58209 -0.5706606,1.26508 -0.6947698,1.51777 -0.1241092,0.25268 -0.2261062,0.90753 -0.2266601,1.45521 -5.539e-4,0.54767 -0.1770689,2.06734 -0.3922556,3.37702 -0.5035317,3.06464 -0.5044277,8.02095 -0.00205,11.35403 0.2174234,1.44253 0.3953153,3.19168 0.3953153,3.88699 0,0.69532 0.1190625,1.3378 0.2645834,1.42773 0.1455208,0.0899 0.2639944,0.42439 0.2632747,0.74322 -0.00116,0.5119 0.4790622,2.20048 1.0678029,3.7547 0.1102469,0.29104 0.4083686,1.12448 0.6624927,1.85208 0.2541241,0.72761 0.5493553,1.44198 0.6560693,1.5875 0.1067141,0.14553 0.2784953,0.84763 0.3817362,1.56025 0.1032409,0.71261 0.2819484,1.48651 0.3971284,1.71979 2.474318,5.01124 3.453457,7.1517 3.465915,7.5767 0.0084,0.28619 0.232066,1.35379 0.49706,2.37243 l 0.481809,1.85208 3.405544,0.14442 c 1.873049,0.0794 3.49484,0.16873 3.603981,0.19844 0.109141,0.0297 0.198437,-0.61221 0.198437,-1.42649 z m 146.050199,0.76852 c -1.1e-4,-0.31883 0.10772,-0.64639 0.2396,-0.7279 0.13189,-0.0815 0.32104,-0.73892 0.42034,-1.4609 0.0993,-0.72198 0.39953,-1.74222 0.66717,-2.26719 0.26765,-0.52497 0.56818,-1.71597 0.66785,-2.64665 0.20344,-1.89976 -0.10876,-3.12462 -1.63321,-6.40748 -0.49011,-1.05545 -0.89111,-1.98995 -0.89111,-2.07668 0,-0.2363 -0.86891,-2.03723 -1.18199,-2.44981 -0.15027,-0.19803 -0.8983,-1.04224 -1.66228,-1.87601 -0.76398,-0.83377 -1.38906,-1.63173 -1.38906,-1.77325 0,-0.37568 -1.323,-1.55214 -2.29904,-2.04438 -0.46411,-0.23407 -0.9999,-0.64731 -1.19063,-0.91832 -0.38085,-0.54115 -3.20258,-2.42069 -3.63414,-2.42069 -0.25365,0 -2.75729,-1.06646 -3.80085,-1.61902 -1.65067,-0.87403 -6.41874,-1.13504 -9.84428,-0.53889 -1.01818,0.17719 -3.02625,0.73521 -4.46239,1.24004 -1.43613,0.50483 -2.7889,0.91787 -3.00615,0.91787 -0.21726,0 -1.9633,0.77391 -3.8801,1.71979 -1.9168,0.94589 -3.74231,1.71979 -4.05668,1.71979 -0.31438,0 -0.64518,0.11906 -0.73512,0.26459 -0.0899,0.14552 -0.39462,0.26458 -0.67707,0.26458 -0.28245,0 -0.51355,0.11906 -0.51355,0.26458 0,0.14552 -0.13078,0.26459 -0.29063,0.26459 -0.25705,0 -4.13048,1.73956 -5.32021,2.38932 -0.24831,0.13561 -0.96268,0.3134 -1.5875,0.39509 l -1.13604,0.14852 0.85433,-0.47428 c 0.46988,-0.26085 1.89863,-1.00534 3.175,-1.65441 1.27637,-0.64907 2.3802,-1.25482 2.45296,-1.34612 0.0728,-0.0913 0.37042,-0.23464 0.66146,-0.31853 1.53375,-0.4421 5.35839,-2.14113 9.45527,-4.20034 0.25268,-0.12701 0.6356,-0.23092 0.85092,-0.23092 0.35673,0 1.71737,-0.51863 2.8406,-1.08274 0.76904,-0.38623 4.50298,-1.3463 6.30009,-1.61987 2.01175,-0.30626 7.32714,-0.13976 8.07963,0.25308 0.28563,0.14912 0.81698,0.39592 1.18078,0.54845 0.36381,0.15252 1.69154,0.76173 2.95053,1.35378 1.25898,0.59206 2.41984,1.07647 2.57968,1.07647 0.15985,0 0.29063,0.10086 0.29063,0.22415 0,0.12328 0.23066,0.33164 0.51259,0.46302 0.28192,0.13138 1.02606,0.71664 1.65364,1.30059 0.62758,0.58395 1.47023,1.20727 1.87256,1.38517 0.40233,0.17789 0.87756,0.65261 1.05608,1.05494 0.17852,0.40233 1.0102,1.42789 1.84819,2.27903 0.83798,0.85114 1.5236,1.71434 1.5236,1.91823 0,0.20388 0.11907,0.3707 0.26459,0.3707 0.14552,0 0.26458,0.14934 0.26458,0.33186 0,0.28762 0.75918,1.98661 2.45272,5.48897 l 0.44778,0.92604 -0.13014,-2.38125 c -0.17002,-3.11081 -0.37791,-4.9025 -0.64469,-5.55625 -0.36791,-0.90156 -1.06734,-3.34881 -1.06734,-3.73455 0,-0.20157 -0.091,-0.36649 -0.20216,-0.36649 -0.27405,0 -1.12075,-1.9934 -1.12075,-2.63859 0,-0.69168 -3.94472,-4.64936 -5.95313,-5.9727 -0.87312,-0.5753 -1.64703,-1.10572 -1.71979,-1.17871 -0.5175,-0.51915 -3.66254,-1.57926 -4.69994,-1.58422 -0.3294,-0.002 -0.80565,-0.11352 -1.05834,-0.24877 -0.94313,-0.50481 -5.13501,-1.09465 -8.03922,-1.13121 -2.76437,-0.0348 -7.76591,0.65439 -8.16292,1.12481 -0.0728,0.0862 -0.97698,0.30483 -2.00939,0.4858 -1.03241,0.18097 -2.20688,0.50012 -2.60993,0.70923 -0.40306,0.20911 -0.84566,0.3802 -0.98355,0.3802 -0.1379,0 -0.92796,0.30726 -1.7557,0.6828 -0.82773,0.37554 -1.74309,0.77389 -2.03413,0.88521 -0.49862,0.19073 -2.55798,1.12328 -4.63021,2.09673 -0.50933,0.23926 -1.06104,0.5618 -1.22604,0.71676 -0.165,0.15495 -0.99844,0.43587 -1.85209,0.62427 -0.85364,0.18839 -1.90927,0.4781 -2.34583,0.6438 -0.46572,0.17676 -2.39523,0.29856 -4.66886,0.2947 l -3.87511,-0.007 0.73001,1.06604 c 0.4015,0.58632 0.82198,1.36369 0.9344,1.7275 0.31485,1.01896 2.63758,3.55916 4.20695,4.60085 1.38007,0.91604 3.06948,2.59838 3.06948,3.05664 0,0.12692 0.68461,0.43427 1.52136,0.68302 3.96021,1.17727 4.79316,1.52162 6.43893,2.66186 0.66737,0.46238 1.46371,0.92014 1.76964,1.01723 0.30593,0.0971 0.92307,0.61733 1.37143,1.15607 1.96589,2.36218 2.27717,2.68866 2.56846,2.69384 0.16959,0.003 0.98781,0.77939 1.81825,1.72528 0.83044,0.94588 1.65319,1.71979 1.82833,1.71979 0.17515,0 0.60709,0.31089 0.95988,0.69087 0.61387,0.66118 0.72671,0.68376 2.62581,0.5254 6.23261,-0.51973 18.84092,-0.37536 20.40275,0.2336 0.30715,0.11976 0.51921,0.81108 0.7568,2.46711 l 0.33008,2.30073 h 3.54287 c 3.46949,0 3.54287,-0.012 3.54269,-0.5797 z m -62.905,-4.44739 c 8.98585,0 16.33796,-0.0893 16.33802,-0.19843 7e-5,-0.10914 -0.18266,-0.19844 -0.40606,-0.19844 -0.60003,0 -1.69993,-0.75391 -2.94553,-2.01896 -0.60651,-0.61599 -1.47042,-1.31011 -1.91978,-1.54248 -0.44937,-0.23238 -1.30357,-0.95033 -1.89822,-1.59545 -0.59464,-0.64512 -1.33809,-1.25006 -1.65209,-1.34432 -1.79546,-0.53898 -4.15313,-1.93354 -5.41096,-3.20057 -0.77025,-0.7759 -1.60369,-1.42231 -1.85208,-1.43647 -0.24839,-0.0142 -2.60709,-0.004 -5.241553,0.0222 -3.261683,0.0327 -5.15139,-0.0603 -5.922841,-0.29146 -1.10307,-0.33049 -1.148564,-0.3198 -1.727211,0.4059 -0.326865,0.40992 -0.853514,1.26435 -1.170331,1.89871 -0.316818,0.63437 -0.688089,1.22265 -0.825047,1.30729 -0.136958,0.0847 -0.249015,0.385 -0.249015,0.66745 0,0.28246 -0.119062,0.51356 -0.264583,0.51356 -0.145521,0 -0.264584,0.16498 -0.264584,0.36663 0,0.20164 -0.17786,0.70766 -0.395245,1.12448 -0.217384,0.41681 -0.395978,0.95918 -0.396875,1.20525 -8.96e-4,0.24607 -0.120692,0.52099 -0.266213,0.61093 -0.145521,0.0899 -0.264583,0.38475 -0.264583,0.65514 0,0.39343 -0.587373,1.89837 -1.266555,3.2451 -0.05439,0.10784 0.297636,0.10784 0.782273,0 0.484636,-0.10784 8.233213,-0.19608 17.219063,-0.19608 z M 9.6473493,451.44886 c -0.1797943,-0.4776 -0.4301931,-1.1065 -0.5564418,-1.39754 -0.9255774,-2.13374 -2.3628864,-6.04787 -2.3628864,-6.4347 0,-0.25901 -0.1028807,-0.58404 -0.2286238,-0.72228 -0.1257431,-0.13825 -0.4329347,-1.68011 -0.6826478,-3.42636 -0.2497132,-1.74625 -0.5635512,-3.38174 -0.6974179,-3.63443 -0.1338666,-0.25268 -0.2442933,-1.02659 -0.2453926,-1.71979 -0.0011,-0.6932 -0.1189514,-1.98084 -0.2618935,-2.86143 -0.1885803,-1.16173 -0.1566453,-2.54115 0.1163823,-5.02708 0.4472686,-4.0724 1.2848221,-8.80215 1.6865411,-9.52408 0.1580797,-0.28409 0.4975205,-0.99277 0.7543128,-1.57485 0.2567924,-0.58209 0.7388101,-1.35478 1.0711506,-1.71709 0.3323405,-0.36232 0.6042554,-0.8088 0.6042554,-0.99219 0,-0.18339 0.1041797,-0.33343 0.2315104,-0.33343 0.1273308,0 0.3011465,-0.34818 0.3862573,-0.77374 0.1033384,-0.51669 0.5318366,-1.03596 1.2898436,-1.56308 0.624303,-0.43415 1.605745,-1.27659 2.180981,-1.8721 0.575237,-0.59551 1.200315,-1.08275 1.389063,-1.08275 0.188748,0 0.343178,-0.091 0.343178,-0.20217 0,-0.26421 1.983026,-1.12075 2.594732,-1.12075 0.260939,0 0.587544,-0.099 0.725789,-0.21998 0.138245,-0.12099 0.787136,-0.37781 1.441979,-0.57071 4.547514,-1.33963 10.823437,-1.56956 15.345834,-0.56223 1.858904,0.41406 3.65998,0.95596 3.867736,1.16372 0.104065,0.10406 0.471986,0.1892 0.817603,0.1892 0.928373,0 3.706631,1.43603 5.368828,2.77504 0.800364,0.64475 1.562955,1.17709 1.694645,1.18299 0.221928,0.01 2.87213,2.45571 4.312096,3.97947 0.343796,0.36381 1.39511,1.46543 2.336254,2.44807 0.941144,0.98263 1.711171,1.89205 1.711171,2.02094 0,0.2891 2.128123,2.43507 2.809623,2.83317 0.273718,0.1599 0.676263,0.63593 0.894544,1.05786 0.218281,0.42192 0.853174,1.18406 1.410874,1.69365 0.557699,0.50959 1.331605,1.27323 1.719791,1.69699 0.388187,0.42375 1.182043,1.22913 1.764127,1.78971 2.202226,2.1209 2.671038,2.59935 3.569614,3.64297 0.508079,0.59009 1.01912,1.0729 1.135646,1.0729 0.232213,0 0.829378,0.45924 1.326683,1.02027 1.243284,1.40259 2.687137,2.66945 3.360101,2.9482 0.436928,0.18098 0.794414,0.42826 0.794414,0.54951 0,0.39118 1.939695,2.13076 3.22284,2.89035 0.368733,0.21828 1.342558,0.84721 2.164054,1.39763 2.223447,1.48974 2.205853,1.49063 2.405711,-0.12302 0.09584,-0.7738 0.278747,-2.00222 0.406465,-2.72982 0.538861,-3.06988 0.579105,-3.83646 0.201407,-3.83646 -0.199758,0 -0.600714,-0.22128 -0.891014,-0.49174 -0.2903,-0.27045 -0.937829,-0.62814 -1.438953,-0.79486 -1.203611,-0.40043 -1.994685,-0.94457 -3.803134,-2.616 -0.826612,-0.76399 -1.600452,-1.38906 -1.719643,-1.38906 -0.293522,0 -3.275886,-2.7744 -8.034763,-7.47448 -2.173282,-2.14644 -4.056676,-3.90261 -4.185321,-3.90261 -0.128644,0 -0.233899,-0.11765 -0.233899,-0.26145 0,-0.1438 -0.863203,-1.12905 -1.918229,-2.18943 -1.055026,-1.06038 -2.417288,-2.49054 -3.027248,-3.17813 -0.60996,-0.68758 -1.180919,-1.25016 -1.268797,-1.25016 -0.256663,0 -1.458643,-1.27492 -1.458643,-1.54716 0,-0.13657 -0.199732,-0.32495 -0.443849,-0.41863 -0.409971,-0.15732 -0.410984,-0.20318 -0.01328,-0.60089 0.355322,-0.35532 0.502251,-0.37108 0.840724,-0.0902 0.225585,0.18722 0.410154,0.45556 0.410154,0.59632 0,0.27229 1.063237,1.24318 1.37763,1.25798 0.102852,0.005 -0.254335,-0.70053 -0.79375,-1.56749 l -0.980755,-1.5763 -0.529166,0.60609 c -0.883751,1.0122 -2.819705,2.28192 -3.479281,2.28192 -0.760329,0 -0.782085,-0.31335 -0.09259,-1.33363 0.291041,-0.43067 0.767291,-1.1354 1.058333,-1.56607 0.752087,-1.11291 0.678592,-2.1498 -0.212915,-3.00392 -0.408145,-0.39103 -0.914161,-0.71141 -1.124479,-0.71195 -0.817849,-0.002 -2.004226,-1.03066 -2.620234,-2.27165 -0.843165,-1.69861 -1.487636,-2.21179 -2.789247,-2.22103 -0.582083,-0.004 -1.399365,-0.18537 -1.816181,-0.40275 -0.416817,-0.21739 -0.930226,-0.39525 -1.140911,-0.39525 -0.210684,0 -0.941215,-0.16509 -1.623402,-0.36686 -1.734793,-0.5131 -4.261521,-0.95606 -5.453575,-0.95606 -1.221294,0 -3.062806,-0.97439 -3.062806,-1.6206 0,-0.25566 -0.119063,-0.53842 -0.264584,-0.62835 -0.14552,-0.0899 -0.264583,-0.63275 -0.264583,-1.20624 0,-0.82396 -0.09714,-1.03872 -0.463021,-1.02362 -0.583083,0.0241 -1.780928,1.46732 -2.015379,2.42829 -0.174262,0.71427 -0.15439,0.72813 1.084297,0.75621 0.75038,0.017 -0.02506,0.17634 -1.913189,0.3931 -1.74625,0.20047 -3.605532,0.48525 -4.131738,0.63285 -0.526206,0.1476 -1.240581,0.27019 -1.5875,0.27242 -0.346919,0.002 -0.809355,0.12694 -1.027637,0.27714 -0.469108,0.32279 2.813322,0.12627 5.62433,-0.33673 1.989073,-0.32763 7.109968,0.0969 9.060046,0.75112 0.582083,0.19528 1.319197,0.35678 1.63803,0.3589 0.318834,0.002 0.644941,0.10941 0.724682,0.23844 0.07974,0.12902 0.563018,0.31301 1.073949,0.40886 0.51093,0.0958 0.928964,0.28794 0.928964,0.42687 0,0.13893 0.223584,0.25259 0.496854,0.25259 0.692525,0 2.178292,0.65705 2.810437,1.24286 0.291042,0.26971 1.335855,0.99712 2.321808,1.61647 0.985953,0.61934 1.997984,1.2936 2.248959,1.49835 0.250974,0.20475 0.992098,0.80975 1.646942,1.34445 1.258214,1.02738 1.737834,1.64407 1.479531,1.90237 -0.181363,0.18136 -2.751359,-1.54106 -3.899036,-2.61315 -0.430341,-0.402 -1.044267,-0.81119 -1.364279,-0.90931 -0.320013,-0.0981 -1.296216,-0.67975 -2.169341,-1.29249 -1.867794,-1.31079 -3.19851,-1.9958 -3.877109,-1.9958 -0.268684,0 -0.488516,-0.10603 -0.488516,-0.23563 0,-0.1296 -0.386954,-0.29602 -0.859896,-0.36983 -0.472943,-0.0738 -1.812396,-0.39954 -2.976563,-0.72386 -1.846435,-0.5144 -2.758466,-0.58996 -7.14375,-0.59184 -3.527721,-0.002 -5.69785,0.12516 -7.276042,0.4247 -1.236927,0.23476 -2.784739,0.44202 -3.439583,0.46057 -2.091679,0.0593 -5.559921,1.67153 -7.739825,3.59798 -0.5461223,0.48262 -1.1697568,0.8775 -1.3858544,0.8775 -0.2160976,0 -0.8408327,0.49408 -1.3883003,1.09797 -1.6731213,1.84553 -2.0335025,2.21024 -2.5830346,2.61409 -0.7090943,0.5211 -1.984236,2.25054 -1.984236,2.69116 0,0.19421 -0.2748059,0.7677 -0.6106798,1.27442 -0.90526981,1.36576 -2.03515364,4.1551 -2.03515364,5.02418 0,0.41839 -0.1069314,0.82679 -0.2376254,0.90756 -0.2492035,0.15401 -0.4479371,1.95799 -0.69949056,6.34953 -0.082817,1.44579 -0.2195086,2.74024 -0.3037596,2.87656 -0.2710683,0.4386 0.48212186,9.26146 0.91912446,10.76661 0.2323758,0.80037 0.6974888,1.97896 1.03358463,2.6191 0.3360957,0.64013 0.61108321,1.32474 0.61108321,1.52135 0,0.19661 0.089297,0.35792 0.1984375,0.35846 0.1091406,5.5e-4 0.4277876,0.56609 0.7081045,1.25677 0.2803168,0.69068 0.5790874,1.31531 0.6639346,1.38807 0.084847,0.0728 0.4955256,0.66808 0.9126188,1.32292 0.4170931,0.65484 1.0221596,1.42875 1.3445921,1.71979 0.3224326,0.29104 0.8933306,1.08199 1.2686622,1.75766 0.3753317,0.67566 1.2871978,1.86256 2.0263692,2.63753 0.7391713,0.77498 1.3439478,1.52193 1.3439478,1.65988 0,0.13796 0.075557,0.17528 0.1679051,0.0829 0.092348,-0.0924 0.020801,-0.55868 -0.1589935,-1.03629 z m 93.6456207,-5.43244 c -0.004,-0.10914 -0.87394,-0.76086 -1.93236,-1.44826 -2.530815,-1.64368 -5.258452,-3.83562 -5.643369,-4.53503 -0.306177,-0.55634 -0.308912,-0.55587 -0.568731,0.0994 -0.143591,0.36212 -0.395284,1.1591 -0.559319,1.77106 -0.164035,0.61196 -0.443887,1.26681 -0.621894,1.45521 -0.29415,0.31132 -0.985108,1.99453 -0.985108,2.39976 0,0.19867 2.312177,0.33334 6.945312,0.40451 1.855389,0.0285 3.369849,-0.0375 3.365469,-0.14662 z m -20.002944,-16.37377 0.177324,-1.35866 -0.877666,-0.16465 c -0.522885,-0.0981 -1.261076,-0.56493 -1.82616,-1.15488 -1.291727,-1.34856 -2.316771,-2.18085 -2.685917,-2.18085 -0.169151,0 -0.843646,-0.57352 -1.498878,-1.27448 -2.044919,-2.18764 -3.449683,-2.97561 -6.025842,-3.38007 -0.621689,-0.0976 -1.194262,-0.28088 -1.272386,-0.40729 -0.07812,-0.12641 -0.321553,-0.22983 -0.540956,-0.22983 -0.545736,0 -1.953325,-1.10722 -4.180396,-3.28834 -1.029464,-1.00822 -2.645658,-2.48173 -3.591544,-3.27448 -0.945885,-0.79274 -2.120323,-1.84307 -2.609862,-2.33406 -0.489539,-0.49098 -1.079876,-0.8927 -1.311859,-0.8927 -0.278463,0 -0.04344,0.38551 0.691633,1.13449 0.612382,0.62397 1.113421,1.26512 1.113421,1.42478 0,0.15966 0.327422,0.50048 0.727605,0.75737 0.935464,0.60053 2.9562,2.80107 2.967718,3.2318 0.0049,0.1819 0.161498,0.33072 0.348075,0.33072 0.402712,0 3.629519,3.27698 3.629519,3.68595 0,0.15554 0.164943,0.2828 0.366539,0.2828 0.201597,0 1.09049,0.77391 1.97532,1.7198 0.884829,0.94588 1.72282,1.71979 1.862201,1.71979 0.139382,0 1.041342,0.79181 2.004356,1.75957 0.963014,0.96776 2.284812,2.09815 2.93733,2.51196 0.652517,0.41381 1.529276,1.14005 1.948353,1.61387 0.419077,0.47381 1.160205,1.05209 1.646951,1.28506 0.486746,0.23297 1.420446,0.67556 2.074889,0.98353 l 1.189897,0.55994 0.291505,-0.85123 c 0.160328,-0.46819 0.371301,-1.46264 0.46883,-2.20991 z m 46.673124,-0.74522 c 0.98561,-0.50229 2.3252,-0.9878 2.97688,-1.0789 0.65168,-0.0911 1.423,-0.26286 1.71404,-0.38167 1.49587,-0.61067 2.98994,-1.06575 3.49896,-1.06575 0.31397,0 0.63666,-0.10649 0.7171,-0.23664 0.33142,-0.53625 6.02943,-1.04058 8.61623,-0.76262 3.32533,0.35732 4.35396,0.52057 4.63021,0.73481 0.14552,0.11286 0.88953,0.28921 1.65335,0.3919 0.76382,0.10269 1.45546,0.29461 1.53697,0.4265 0.0815,0.13189 0.3793,0.2398 0.66175,0.2398 0.28246,0 0.51355,0.11906 0.51355,0.26458 0,0.14552 0.3851,0.26459 0.85577,0.26459 h 0.85577 L 157.3527,427.231 c -0.46256,-0.25466 -1.29414,-0.88429 -1.84795,-1.39917 -0.55381,-0.51489 -1.39671,-1.09605 -1.8731,-1.29147 -0.47639,-0.19542 -0.97264,-0.54558 -1.10278,-0.77813 -0.21243,-0.37958 -0.29396,-0.37093 -0.79736,0.0846 -0.42927,0.38849 -0.91509,0.4982 -2.07221,0.46798 -0.83131,-0.0217 -3.82572,-0.0995 -6.65423,-0.17293 -2.82851,-0.0734 -5.30595,-0.19608 -5.50541,-0.27262 -0.19946,-0.0765 -0.82728,0.0979 -1.39515,0.38757 -0.56787,0.28971 -1.21294,0.52674 -1.43351,0.52674 -0.22056,0 -0.79085,0.23768 -1.26731,0.52818 -0.47646,0.29049 -1.12048,0.52862 -1.43117,0.52916 -0.31965,5.6e-4 -0.76615,0.30816 -1.02849,0.70855 -0.25498,0.38915 -1.04732,1.28212 -1.76075,1.98437 -0.71343,0.70225 -1.23301,1.27682 -1.15464,1.27682 0.0784,0 0.94891,-0.41096 1.93451,-0.91326 z m -46.968982,-1.9078 c -0.181901,-0.0734 -0.330729,-0.2922 -0.330729,-0.48623 0,-0.19403 -0.0936,-0.39247 -0.207995,-0.44097 -0.540639,-0.22925 -1.505786,-2.0329 -1.666941,-3.11515 -0.420487,-2.82383 -0.783246,-4.00295 -1.467942,-4.7714 -0.392339,-0.44033 -0.850824,-0.80061 -1.018858,-0.80061 -0.168033,0 -0.821912,-0.44201 -1.453064,-0.98225 l -1.147549,-0.98226 0.205082,0.78382 c 0.112795,0.4311 0.220808,1.37913 0.240028,2.10674 0.0333,1.26069 -0.0086,1.34467 -0.891095,1.78552 -0.509323,0.25444 -0.735806,0.4628 -0.503296,0.46302 0.232511,2.3e-4 1.103976,0.71461 1.936589,1.58752 0.832614,0.87291 2.011597,1.87897 2.619963,2.23568 0.608366,0.35672 1.576767,1.1308 2.152003,1.72019 0.575237,0.58938 1.23008,1.06221 1.455209,1.05072 0.272451,-0.0139 0.298732,-0.0655 0.07859,-0.15434 z m 1.380356,-4.32269 c 0.05684,-0.65484 0.111813,-1.27142 0.122169,-1.37016 0.01036,-0.0987 0.167944,-0.33687 0.350196,-0.52917 0.182252,-0.19229 0.569206,-0.80145 0.859896,-1.35369 0.861703,-1.637 2.024862,-2.59142 3.340797,-2.74128 0.636065,-0.0724 1.394607,-0.22961 1.685648,-0.34929 2.227244,-0.91584 3.455197,-1.05561 9.72088,-1.1065 l 4.6938,-0.0381 -0.78878,-0.7538 c -0.43384,-0.4146 -0.85509,-0.75381 -0.93612,-0.75381 -0.33274,0 -1.51989,-1.51776 -1.96275,-2.50935 -0.58134,-1.30167 -1.21967,-3.77892 -1.02413,-3.97446 0.35313,-0.35313 0.9404,0.27997 1.66779,1.79797 0.43305,0.90372 1.06798,2.08059 1.41095,2.61526 0.78005,1.21603 2.58383,3.12891 2.95047,3.12891 0.15135,0 0.27518,0.11906 0.27518,0.26458 0,0.14553 0.18233,0.26459 0.40518,0.26459 0.22285,0 0.47372,0.17859 0.55748,0.39687 0.0838,0.21828 0.30823,0.39688 0.49881,0.39688 0.19059,0 0.38621,0.0893 0.43472,0.19844 0.0485,0.10914 0.56444,0.43656 1.14653,0.7276 0.58208,0.29104 1.16377,0.76729 1.29263,1.05833 0.20138,0.45482 1.7498,1.78175 2.65284,2.27338 0.15832,0.0862 0.48153,0.26479 0.71824,0.39688 0.23672,0.13209 1.31342,0.90741 2.39267,1.72293 1.07926,0.81553 2.4334,1.63472 3.0092,1.82042 0.5758,0.18571 1.21515,0.47096 1.42077,0.6339 0.24047,0.19055 1.683,0.28372 4.04308,0.26115 3.38408,-0.0324 3.70698,-0.0786 4.15509,-0.59532 0.26723,-0.30811 0.61224,-0.56021 0.76667,-0.56021 0.15444,0 0.43813,-0.15507 0.63043,-0.3446 0.5175,-0.51006 2.50327,-1.24448 3.33154,-1.23215 l 0.72225,0.0108 -0.88164,0.75428 c -0.4849,0.41485 -1.25881,0.84473 -1.71979,0.9553 -0.68325,0.16388 -0.73534,0.22054 -0.28184,0.3066 0.30598,0.0581 1.13941,-0.21537 1.85209,-0.60763 2.9972,-1.64967 3.12341,-1.69805 4.06583,-1.55861 0.77443,0.11459 0.83234,0.0936 0.33879,-0.12267 -0.32742,-0.14349 -0.59531,-0.45657 -0.59531,-0.69573 0,-0.35887 0.17336,-0.40265 0.99219,-0.25054 0.5457,0.10137 1.4089,0.40646 1.91822,0.67798 0.70987,0.37843 1.62382,0.51322 3.91512,0.57737 1.89761,0.0531 3.05833,0.19575 3.17873,0.39056 0.20213,0.32706 1.34399,0.47037 3.13045,0.39288 0.74146,-0.0322 1.15016,-0.18822 1.263,-0.48229 0.22957,-0.59823 0.034,-0.71938 -0.60727,-0.37619 -0.75962,0.40654 -2.67794,-0.19589 -2.67794,-0.84098 0,-0.25561 0.14883,-0.47415 0.33073,-0.48564 0.26458,-0.0167 0.26458,-0.0476 0,-0.15434 -0.1819,-0.0734 -0.33073,-0.30212 -0.33073,-0.50828 0,-0.2734 0.35796,-0.37482 1.32291,-0.37482 0.72761,0 1.32292,-0.11171 1.32292,-0.24825 0,-0.13654 -0.26789,-0.23379 -0.59531,-0.21612 -1.54569,0.0834 -1.92254,-0.0675 -2.30959,-0.92469 -0.21353,-0.47295 -0.36166,-0.9492 -0.32917,-1.05834 0.0908,-0.30506 -2.85154,-0.22306 -4.04197,0.11264 -1.36857,0.38595 -7.39803,0.55205 -8.59896,0.23689 -6.00848,-1.57678 -7.25674,-1.7969 -7.77073,-1.37033 -0.19385,0.16088 -0.87973,0.36478 -1.52418,0.45311 l -1.17173,0.1606 -3.42749,-3.35126 c -2.54537,-2.48875 -3.83717,-3.54708 -5.01929,-4.11211 -0.87548,-0.41846 -1.8547,-1.00657 -2.17604,-1.30691 -0.32133,-0.30034 -0.65241,-0.54607 -0.73572,-0.54607 -0.0833,0 -0.99191,-0.47625 -2.01912,-1.05833 -1.02721,-0.58208 -2.00583,-1.06229 -2.1747,-1.06712 -0.16887,-0.005 -0.78329,-0.35588 -1.36537,-0.78009 -2.46005,-1.79286 -3.34723,-2.38612 -3.56826,-2.38612 -0.39205,0 -4.50154,4.26874 -4.50154,4.67599 0,0.70058 -1.078456,2.75675 -1.533953,2.92462 -0.247733,0.0913 -0.535151,0.29374 -0.638708,0.44988 -0.103556,0.15614 -1.23465,0.36071 -2.513541,0.4546 -1.278892,0.0939 -2.861039,0.30266 -3.515883,0.46392 -4.885225,1.203 -8.168051,1.63227 -11.1125,1.45307 -2.419978,-0.14727 -2.395516,-0.17986 -0.782666,1.04265 0.224377,0.17007 0.80985,0.81524 1.301052,1.43371 0.491202,0.61846 1.102788,1.12447 1.359081,1.12447 0.256292,0 0.628347,0.14883 0.826788,0.33073 0.198441,0.1819 0.593898,0.46256 0.878794,0.62368 0.571548,0.32322 0.858543,1.16226 0.397557,1.16226 -0.96351,0 -3.570955,-1.78619 -5.757131,-3.94383 -2.077102,-2.05 -2.566663,-2.40607 -3.307292,-2.40548 -0.936316,7.5e-4 -4.174922,-0.67822 -5.202978,-1.09079 -0.346227,-0.13895 -0.679283,-0.20285 -0.740125,-0.14201 -0.06084,0.0609 0.698685,0.49783 1.687837,0.97108 1.846161,0.88328 2.021435,0.95761 4.034141,1.71064 0.647543,0.24228 1.553282,0.75937 2.012755,1.14909 1.573391,1.33455 1.975563,1.63463 2.190758,1.63463 0.260037,0 1.108578,0.96673 1.56445,1.78235 0.181901,0.32545 0.330729,1.4034 0.330729,2.39545 0,1.82208 0.733104,3.89988 1.827193,5.17874 0.398233,0.46548 0.433402,0.4212 0.630326,-0.79375 0.114708,-0.70771 0.255063,-1.82252 0.3119,-2.47737 z m -9.42556,-4.21439 c 0.0499,-0.35339 0.01438,-1.25365 -0.07894,-2.00058 -0.164704,-1.31825 -0.210024,-1.37846 -1.545942,-2.05398 -0.756946,-0.38275 -1.773358,-0.84059 -2.258695,-1.01741 -0.485337,-0.17683 -1.021118,-0.45766 -1.190625,-0.62408 -0.169507,-0.16642 -0.98772,-0.80261 -1.818251,-1.41378 -1.314223,-0.96709 -1.691664,-1.11284 -2.910417,-1.1239 -1.94455,-0.0177 -3.028461,-0.64062 -4.351253,-2.50084 -2.285719,-3.21437 -3.445129,-6.48327 -2.75611,-7.77071 0.142866,-0.26695 0.148837,-0.61729 0.01423,-0.83509 -0.187792,-0.30385 -0.264314,-0.27598 -0.402405,0.14655 -0.557388,1.70551 -1.180867,2.09863 -1.180867,0.74456 0,-0.74827 0.739229,-2.47177 1.060173,-2.47177 0.113371,0 0.273993,-0.17685 0.356939,-0.393 0.121354,-0.31624 0.05986,-0.3362 -0.314866,-0.10218 -0.681365,0.42552 -1.366829,1.74611 -1.366829,2.63329 0,0.42477 -0.06372,0.77231 -0.1416,0.77231 -0.406087,0 -1.4459,-0.90983 -1.4459,-1.26515 0,-0.60464 -0.315839,-0.18407 -0.69919,0.93102 -0.284922,0.82878 -0.275798,1.04602 0.05949,1.41651 0.217815,0.24069 0.541504,1.19694 0.71931,2.12501 0.417063,2.1769 1.91085,4.45081 3.55795,5.41608 1.291122,0.75665 1.533241,0.9394 3.745005,2.82672 2.869193,2.44831 4.509737,4.03147 4.516671,4.35867 0.0039,0.1819 0.134016,0.33072 0.289246,0.33072 0.15523,0 0.661246,0.27606 1.124479,0.61347 0.782566,0.57 1.790263,1.02983 3.752659,1.71241 0.436563,0.15185 1.329532,0.25619 1.984375,0.23188 1.044358,-0.0388 1.201772,-0.12315 1.281359,-0.68673 z m 51.726766,-2.46634 c 0.68005,-0.48508 1.18765,-0.59531 2.74129,-0.59531 1.80714,0 1.89938,-0.0291 1.76668,-0.55774 -0.077,-0.30675 0.0678,-1.02112 0.32174,-1.5875 0.8949,-1.99575 0.29286,-17.92089 -0.71859,-19.0082 -0.1286,-0.13824 -0.23382,-0.62045 -0.23382,-1.07156 0,-0.45112 -0.10186,-0.93332 -0.22634,-1.07156 -0.30402,-0.33762 -1.09658,-2.86897 -1.09658,-3.50235 0,-0.75794 -1.79767,-4.05224 -2.67299,-4.89836 -0.42163,-0.40755 -0.76659,-0.85869 -0.76659,-1.00251 0,-0.33869 -1.99609,-2.35751 -2.33097,-2.35751 -0.14069,0 -1.06078,-0.77391 -2.04465,-1.7198 -0.98387,-0.94588 -1.90866,-1.71979 -2.05508,-1.71979 -0.14643,0 -0.64632,-0.28991 -1.11087,-0.64424 -2.32749,-1.77526 -3.14252,-2.03823 -9.1225,-2.94338 -2.37637,-0.35969 -2.95413,-0.54961 -4.03551,-1.3265 -1.25621,-0.9025 -1.79001,-1.10693 -1.79001,-0.68551 0,0.28868 -2.93366,1.10172 -3.975297,1.10172 -0.90877,0 -2.783528,-0.86627 -2.990868,-1.38199 -0.0747,-0.18579 -0.14521,0.47437 -0.156698,1.46703 -0.0138,1.19216 -0.149886,1.93383 -0.400894,2.18484 -0.262288,0.26229 -0.435463,0.29028 -0.559029,0.0903 -0.09846,-0.15931 -0.04652,-0.42217 0.115422,-0.58411 0.460072,-0.46007 0.346647,-1.38228 -0.234721,-1.90841 -0.291041,-0.26338 -0.529166,-0.70995 -0.529166,-0.99237 0,-0.55004 -0.79245,-2.05033 -1.082983,-2.05033 -0.09633,0 -0.325213,0.18082 -0.508636,0.40183 -0.273306,0.32932 -0.243339,0.50839 0.166041,0.99219 0.274745,0.32469 0.585885,0.65509 0.691422,0.73421 0.105538,0.0791 0.2246,0.43143 0.264584,0.7829 0.09817,0.86297 -0.713283,1.0364 -0.985016,0.21053 l -0.20009,-0.60812 -0.119103,0.61056 c -0.206241,1.05726 -0.686698,0.48042 -1.039197,-1.24767 -0.289595,-1.41971 -0.282556,-1.75175 0.04782,-2.25597 0.631439,-0.9637 1.474504,-1.29787 2.24855,-0.89128 0.710772,0.37337 2.418798,1.54257 2.63327,1.80257 0.576519,0.69891 1.599492,1.05575 3.026588,1.05575 1.757201,0 3.852581,-0.66712 3.852581,-1.22657 0,-0.19852 -0.0893,-0.3623 -0.19844,-0.36397 -0.22888,-0.003 -0.93584,-1.50127 -1.43475,-3.03967 -1.22426,-3.77496 -3.881553,-5.55625 -8.288688,-5.55625 -2.243846,0 -2.439829,0.0458 -3.396444,0.79375 -0.563381,0.44049 -1.291426,1.38251 -1.635868,2.11666 -0.341371,0.72761 -1.015627,1.74851 -1.498347,2.26867 -1.415045,1.52481 -2.068299,2.34882 -2.068299,2.60893 0,0.13386 -0.297657,0.47751 -0.661459,0.76368 -0.534511,0.42044 -0.661458,0.75419 -0.661458,1.73899 0,0.90689 0.101539,1.21869 0.396875,1.21869 0.248257,0 0.396875,-0.2508 0.396875,-0.66976 0,-0.93486 0.683141,-1.09903 1.637412,-0.39351 0.654147,0.48364 1.048174,0.57219 2.097416,0.47137 0.890803,-0.0856 1.384212,-0.013 1.589084,0.23388 0.163423,0.19691 0.443761,0.35802 0.622975,0.35802 0.594708,0 1.72603,1.28209 1.72603,1.95605 0,0.63348 0.02754,0.6441 0.727604,0.2805 1.066775,-0.55406 1.089625,0.0148 0.04393,1.09366 -0.481438,0.49672 -0.969333,0.90313 -1.084213,0.90313 -0.114879,0 -0.343679,-0.53538 -0.508445,-1.18972 -0.31375,-1.24602 -1.607961,-2.78215 -2.33796,-2.77498 -0.227036,0.002 -0.576319,0.10763 -0.776183,0.23424 -0.450229,0.28519 -2.112983,-0.14025 -2.745464,-0.70247 -0.589652,-0.52415 -0.581515,-0.40964 0.06615,0.93087 0.291042,0.60238 0.529167,1.20548 0.529167,1.34021 0,0.13473 0.18273,0.39662 0.406066,0.58197 0.337202,0.27986 0.495997,0.24048 0.936349,-0.23218 0.59078,-0.63413 1.303418,-0.75562 1.303418,-0.22221 0,0.19084 -0.244199,0.6091 -0.542664,0.92947 -0.298466,0.32036 -0.470033,0.7 -0.38126,0.84364 0.278577,0.45075 0.659341,0.28477 0.659341,-0.28741 0,-0.37948 0.142716,-0.52152 0.463021,-0.46082 0.58501,0.11086 0.814386,2.03046 0.282893,2.36747 -0.264308,0.16759 -0.268752,0.2223 -0.01831,0.22536 0.219946,0.003 0.330729,0.44719 0.330729,1.32697 0,0.95438 0.102676,1.32292 0.368568,1.32292 0.202712,0 0.4371,-0.17859 0.520863,-0.39688 0.183241,-0.47751 1.268626,-0.53697 1.207486,-0.0661 -0.02362,0.1819 -0.02884,0.45557 -0.0116,0.60816 0.04537,0.40151 2.113404,2.50069 2.463593,2.50069 0.162762,0 0.699415,0.30775 1.192561,0.6839 l 0.896629,0.68389 0.896629,-0.68389 c 0.493146,-0.37615 1.002882,-0.6839 1.132745,-0.6839 0.129864,0 0.51575,-0.29765 0.857525,-0.66146 0.341774,-0.3638 0.884616,-0.66145 1.206318,-0.66145 0.3217,0 0.76466,-0.26789 0.98436,-0.59532 0.21969,-0.32742 0.82861,-1.07156 1.35314,-1.65364 0.52453,-0.58209 0.95378,-1.1409 0.95389,-1.24181 1.2e-4,-0.10092 0.3574,-0.39448 0.79396,-0.65236 0.49265,-0.29102 0.79375,-0.6859 0.79375,-1.04098 0,-0.84118 0.7684,-2.53571 1.06634,-2.35157 0.14112,0.0872 0.25658,0.6278 0.25658,1.20129 0,0.86633 0.0895,1.04272 0.52916,1.04272 0.89323,0 0.58785,0.66602 -0.5319,1.16006 -1.12349,0.49568 -2.43407,1.64828 -3.3067,2.90809 -0.28986,0.41848 -0.77465,1.07332 -1.0773,1.45521 -0.30266,0.38189 -0.62933,0.87294 -0.72593,1.09122 -0.0966,0.21828 -0.27695,0.57547 -0.40078,0.79375 -0.70655,1.24548 -0.83656,1.71535 -0.83656,3.02351 0,0.79375 -0.127224,1.52181 -0.282727,1.61792 -0.195486,0.12082 -0.25672,-0.65017 -0.198438,-2.49851 0.04636,-1.47028 -0.005,-2.67298 -0.114143,-2.67266 -0.10914,3.2e-4 -0.198437,0.11964 -0.198437,0.26516 0,0.14552 -0.150045,0.26458 -0.333433,0.26458 -0.183388,0 -0.638581,0.28295 -1.011541,0.62878 -0.372959,0.34583 -0.937289,0.71104 -1.254067,0.81158 -0.42285,0.13421 -0.575959,0.39369 -0.575959,0.97612 0,0.43632 -0.127489,1.03153 -0.283309,1.32268 -0.695555,1.29966 -1.207925,5.50613 -0.77028,6.32388 0.30488,0.56967 0.343005,0.54176 1.015907,-0.74357 0.742085,-1.41749 2.983543,-4.0278 3.458643,-4.0278 0.534754,0 0.282075,0.69982 -0.642836,1.78037 -0.509323,0.59503 -0.926042,1.20185 -0.926042,1.3485 0,0.14664 -0.0893,0.3063 -0.198437,0.35481 -0.571423,0.25397 -2.692726,4.67583 -3.62655,7.55956 -0.246844,0.76228 -0.54565,1.44581 -0.664015,1.51896 -0.118365,0.0731 -1.68684,0.26643 -3.4855,0.4295 -1.798659,0.16307 -3.508415,0.39628 -3.799456,0.51824 -0.85761,0.35938 -3.038835,1.04214 -3.329319,1.04214 -0.147465,0 -0.74915,0.23241 -1.337078,0.51647 -0.587927,0.28405 -1.595671,0.59545 -2.239431,0.69199 -0.643759,0.0965 -1.235565,0.28084 -1.315124,0.40957 -0.17382,0.28125 -6.820698,0.31776 -7.099459,0.039 -0.107284,-0.10728 -0.384068,-0.19658 -0.615075,-0.19843 -0.234316,-0.002 -0.54775,-0.37765 -0.70893,-0.84992 -0.304594,-0.89247 -1.250535,-1.93158 -1.758386,-1.93158 -0.881131,0 -1.925321,-1.03395 -2.672053,-2.64584 -0.692291,-1.49437 -1.522675,-2.64583 -1.908062,-2.64583 -0.346035,0 0.304905,1.35103 1.195832,2.48196 1.170237,1.48548 1.379227,2.86197 0.50552,3.32956 -0.281475,0.15065 -1.544881,0.2739 -2.80757,0.2739 h -2.295799 l 0.186022,0.99158 c 0.102312,0.54537 0.289538,1.05556 0.416058,1.13375 0.12652,0.0782 0.403497,0.55472 0.615503,1.05894 0.488488,1.16179 1.653463,2.24939 2.677767,2.49992 0.436563,0.10678 2.103438,0.28857 3.704167,0.40397 1.600729,0.11541 3.684323,0.40505 4.630208,0.64366 5.054976,1.27514 12.019702,1.57533 16.536459,0.71273 0.873125,-0.16674 2.182812,-0.4146 2.910416,-0.5508 0.727605,-0.13619 2.462553,-0.25472 3.855441,-0.2634 l 2.532524,-0.0158 0.565055,-1.25677 c 0.310781,-0.69122 0.750321,-1.70326 0.976756,-2.24896 0.226436,-0.5457 0.529166,-0.99219 0.672738,-0.99219 0.14356,0 0.26103,-0.14174 0.26103,-0.31499 0,-0.17324 1.14885,-1.5127 2.55301,-2.97656 3.83677,-3.99992 4.06157,-4.25248 4.06157,-4.56301 0,-0.40791 0.48262,-1.27514 1.88849,-3.39346 0.67487,-1.01687 1.43347,-2.51034 1.68577,-3.31882 0.2523,-0.80848 0.59311,-1.64472 0.75734,-1.8583 0.59267,-0.77075 1.83811,-1.56652 2.45172,-1.56652 0.58657,0 0.563,0.0574 -0.36949,0.89985 -1.08802,0.98296 -2.1805,2.8113 -2.1805,3.64923 0,0.50791 -0.73327,2.31877 -1.05066,2.59467 -0.23918,0.20791 -1.03249,1.49646 -1.73665,2.82081 -0.66516,1.251 -0.65222,1.6771 0.0509,1.6771 0.74108,0 1.94262,1.56549 1.94262,2.53105 0,0.9466 0.797,3.81895 1.05966,3.81895 0.23659,0 -0.0274,-1.93869 -0.31245,-2.29437 -0.4336,-0.54107 0.87424,-2.46813 1.67505,-2.46813 0.58606,0 0.6166,0.21304 0.11081,0.77292 -0.23794,0.26339 -0.40002,1.12115 -0.43873,2.32175 l -0.0614,1.90405 1.79668,1.20481 c 0.98818,0.66264 1.84617,1.20481 1.90665,1.20481 0.21784,0 3.13703,1.92574 3.55782,2.34704 0.23682,0.23709 0.65354,0.62082 0.92605,0.85272 0.27251,0.2319 1.49948,1.51182 2.72661,2.84427 1.22712,1.33245 2.28031,2.42263 2.3404,2.42263 0.0601,0 0.48484,-0.26789 0.94387,-0.59531 z m -47.716458,-6.00922 c -0.944123,-0.28803 -0.284578,-0.48281 2.116667,-0.62511 3.14695,-0.1865 6.792392,-0.93987 7.527396,-1.55562 0.138244,-0.11581 0.435901,-0.21107 0.661458,-0.21168 0.371529,-0.001 1.329311,-0.4497 3.585104,-1.67955 0.436563,-0.23801 0.962969,-0.43348 1.169792,-0.43438 0.206823,-8.9e-4 0.594506,-0.19933 0.861518,-0.44098 0.267012,-0.24164 0.558986,-0.36584 0.648832,-0.27599 0.336184,0.33618 -0.167215,0.95495 -1.142811,1.40472 -0.55449,0.25563 -1.512601,0.81946 -2.129135,1.25295 -1.01179,0.71141 -2.075358,1.18733 -4.435279,1.9847 -2.234827,0.75511 -7.221306,1.08193 -8.863542,0.58094 z M 118.222,402.51346 c -0.0866,-0.14005 -0.11569,-0.27885 -0.0647,-0.30843 0.051,-0.0296 0.77561,-0.51129 1.61035,-1.07044 0.97994,-0.65643 1.67755,-0.95531 1.96884,-0.84353 0.38457,0.14757 0.31347,0.3108 -0.48178,1.10604 -0.94502,0.94502 -2.73201,1.60283 -3.03267,1.11636 z m -6.91906,-3.57021 c -0.44144,-0.17798 -0.1512,-0.61609 0.41414,-0.62514 0.49926,-0.008 2.25005,-1.54015 2.68183,-2.34694 0.15352,-0.28684 0.28176,-1.33302 0.285,-2.32486 l 0.006,-1.80333 0.5174,0.66146 c 0.59548,0.76127 0.72329,3.07104 0.22346,4.03849 -0.16813,0.32544 -0.38696,0.77031 -0.48627,0.98859 -0.40502,0.89024 -2.71431,1.78551 -3.64144,1.41173 z m 15.41363,-0.79932 c -0.43656,-0.23361 -0.85328,-0.49673 -0.92604,-0.58472 -0.0728,-0.088 -0.94462,-0.5767 -1.93747,-1.08602 -0.99285,-0.50932 -2.21501,-1.13617 -2.71591,-1.393 -1.08478,-0.55619 -3.01954,-2.43086 -3.01954,-2.92576 0,-0.40548 -3.31397,-2.03124 -4.1405,-2.03124 -0.30646,0 -0.70426,-0.17718 -0.88398,-0.39374 -0.46179,-0.55643 0.22076,-0.77452 1.82818,-0.58414 1.60192,0.18972 2.97098,0.95248 4.65151,2.59156 0.7276,0.70965 1.62057,1.49319 1.98437,1.74119 0.36381,0.24801 0.72099,0.51977 0.79375,0.60393 0.0728,0.0842 0.48948,0.30885 0.92605,0.49933 1.28495,0.56063 5.6619,3.573 5.52153,3.80012 -0.20798,0.33652 -1.22632,0.22034 -2.08195,-0.23751 z M 99.258781,379.64284 c -0.105147,-0.10515 -0.191175,-0.58392 -0.191175,-1.06393 0,-0.51521 -0.325186,-1.38552 -0.79375,-2.12437 -0.860603,-1.35703 -0.993451,-1.94177 -0.441157,-1.94177 0.661312,0 2.093491,2.11205 2.217481,3.27014 0.11591,1.0826 -0.386939,2.26439 -0.791399,1.85993 z m -45.434926,25.12419 c 0,-0.32433 -0.119062,-0.66328 -0.264583,-0.75321 -0.145521,-0.0899 -0.264584,-0.50355 -0.264584,-0.91913 0,-0.60085 -0.270938,-0.95448 -1.322916,-1.72671 -0.727604,-0.53411 -1.322917,-1.08003 -1.322917,-1.21316 0,-0.13312 -0.16801,-0.24205 -0.373355,-0.24205 -0.435892,0 -1.743312,-1.47268 -1.743312,-1.96366 0,-0.18457 -0.215938,-0.53099 -0.479862,-0.76984 -0.370158,-0.33499 -0.551622,-0.36251 -0.79375,-0.12038 -0.452793,0.45279 -0.383415,0.795 0.29059,1.43335 0.327434,0.31011 0.768212,0.90543 0.979507,1.32292 0.400744,0.79182 1.18203,1.68511 1.47382,1.68511 0.319905,0 2.101599,0.906 2.450596,1.24613 0.602242,0.58696 0.867015,1.97621 0.556155,2.91812 -0.156618,0.47456 -0.394589,0.86284 -0.528825,0.86284 -0.134235,0 -0.239225,0.14883 -0.233311,0.33073 0.01905,0.58582 1.576747,-1.47998 1.576747,-2.09106 z m 22.421093,-0.14062 1.386717,-0.29911 -0.866186,-0.84123 c -0.476402,-0.46268 -1.159956,-0.91842 -1.519009,-1.01277 -0.359053,-0.0944 -1.477227,-0.94719 -2.484831,-1.8952 -1.007605,-0.94801 -1.996897,-1.72366 -2.198428,-1.72366 -0.20153,0 -0.292834,-0.11906 -0.202897,-0.26458 0.447965,-0.72483 2.0013,-0.0204 3.919347,1.7773 0.626089,0.58682 1.488644,1.25027 1.91679,1.47433 0.428145,0.22406 1.188755,0.83426 1.690244,1.356 0.883624,0.9193 1.601744,1.22598 1.601744,0.68403 0,-0.14552 0.224515,-0.26458 0.498923,-0.26458 0.274407,0 0.839954,-0.17786 1.25677,-0.39524 0.416817,-0.21739 1.018712,-0.39598 1.337546,-0.39688 0.318834,-9e-4 0.643364,-0.10464 0.721179,-0.23055 0.07782,-0.12591 0.590857,-0.30662 1.140094,-0.40159 2.295134,-0.39683 6.857662,-0.95699 7.794811,-0.95699 0.970223,0 1.00901,-0.0344 1.00901,-0.89555 0,-0.8903 -0.0088,-0.89666 -1.499364,-1.08289 -1.56285,-0.19527 -3.427,-1.15539 -3.718584,-1.91525 -0.09107,-0.23733 -0.650932,-0.88344 -1.244132,-1.43581 -1.662558,-1.5481 -2.055586,-1.94562 -3.195212,-3.23171 -0.582083,-0.6569 -1.202351,-1.20201 -1.378373,-1.21136 -0.176022,-0.009 -0.784579,-0.4635 -1.352349,-1.0092 -1.089022,-1.0467 -1.537957,-1.37724 -2.825528,-2.08039 -0.436562,-0.2384 -1.52946,-0.95429 -2.428662,-1.59086 -0.899201,-0.63657 -1.798558,-1.1574 -1.998571,-1.1574 -0.200013,0 -1.012115,0.32654 -1.804671,0.72563 -1.048649,0.52806 -1.89306,0.7398 -3.101225,0.77765 -0.913118,0.0286 -2.032738,0.23786 -2.488046,0.465 -0.455308,0.22713 -0.967722,0.41297 -1.138697,0.41297 -0.170975,0 -0.869943,0.37032 -1.553263,0.82293 -0.818284,0.54201 -1.435454,0.77245 -1.807929,0.67505 -0.311041,-0.0813 -0.784405,-0.0308 -1.05192,0.11242 -0.574243,0.30732 -1.544724,-0.11069 -1.544724,-0.66536 0,-0.19759 -0.191609,-0.43278 -0.425797,-0.52265 -1.000872,-0.38407 0.649798,-3.86837 2.292264,-4.8386 0.428651,-0.25321 0.779366,-0.57065 0.779366,-0.70542 0,-0.39232 1.470378,-1.68918 3.089499,-2.72492 l 1.495764,-0.95683 2.60216,0.14339 c 1.483142,0.0817 2.602161,0.0403 2.602161,-0.0962 0,-0.13179 -0.161979,-0.23961 -0.359954,-0.23961 -0.197974,0 -0.782341,-0.28664 -1.298594,-0.63698 -1.223336,-0.83018 -4.056049,-1.28904 -5.734923,-0.92899 -1.006239,0.2158 -1.317639,0.4291 -1.721644,1.17929 -0.271267,0.50372 -0.593527,0.91585 -0.716133,0.91585 -0.122606,0 -0.222919,0.11495 -0.222919,0.25546 0,0.1405 -0.357188,0.62086 -0.79375,1.06745 -0.436563,0.4466 -0.79375,0.91919 -0.79375,1.0502 0,0.43959 -2.935718,3.17941 -3.580006,3.34111 -0.350336,0.0879 -1.712276,0.11812 -3.026534,0.0671 -1.314259,-0.051 -2.389501,-0.0219 -2.389427,0.0647 4.18e-4,0.49305 2.356241,1.82694 3.226606,1.82694 0.274636,0 1.275569,-0.25077 2.224296,-0.55727 0.948726,-0.3065 1.785166,-0.49707 1.858754,-0.42348 0.235497,0.2355 -0.929556,1.14365 -2.461571,1.91877 l -1.486942,0.75233 0.889188,0.74233 c 0.489054,0.40828 0.982983,0.74232 1.09762,0.74232 0.114638,0 0.208432,0.1786 0.208432,0.39688 0,0.24694 -0.249884,0.39687 -0.661458,0.39687 -0.376245,0 -0.632937,0.1375 -0.595312,0.31887 0.04109,0.19807 -0.435042,0.3848 -1.256771,0.4929 -0.727604,0.0957 -1.698535,0.25686 -2.157624,0.35808 -0.886572,0.19549 -1.251065,-0.0686 -0.99951,-0.72412 0.104246,-0.27166 0.733625,-0.4542 2.006921,-0.58208 l 1.855047,-0.18629 -0.732648,-0.76472 c -0.402956,-0.4206 -0.930204,-0.76472 -1.171662,-0.76472 -0.59527,0 -2.107816,-0.77335 -2.107816,-1.07771 0,-0.13486 -0.120146,-0.24521 -0.266991,-0.24521 -0.146846,0 -0.652861,-0.36939 -1.12448,-0.82087 l -0.857487,-0.82088 -0.07728,2.0115 c -0.07762,2.02052 -0.433289,2.64002 -0.737112,1.2839 -0.08966,-0.40018 -0.260124,-1.11168 -0.37882,-1.5811 -0.118695,-0.46942 -0.154842,-1.08663 -0.08033,-1.37158 0.225435,-0.86207 -0.418547,-2.39137 -1.062129,-2.5223 -1.862776,-0.37897 -2.736356,-0.51843 -3.088296,-0.49302 -2.941843,0.21236 -4.566892,0.44696 -4.843875,0.69929 -0.185816,0.16927 -0.569301,0.43877 -0.852189,0.59889 -0.492422,0.27871 -0.685544,0.85012 -1.053398,3.11678 -0.225346,1.38856 -0.747066,0.86252 -0.747066,-0.75325 0,-0.82314 -0.110675,-1.19944 -0.352777,-1.19944 -0.194028,0 -0.352778,0.0908 -0.352778,0.20184 0,0.11102 -0.267363,0.31938 -0.59414,0.46302 -0.754486,0.33167 -1.315152,1.50336 -1.464847,3.06127 -0.09575,0.99652 0.01526,1.42701 0.611566,2.37162 0.856585,1.35692 1.659588,2.08329 2.316626,2.09553 0.385588,0.007 0.422031,-0.0852 0.198437,-0.50297 -0.402533,-0.75214 -0.333447,-2.30129 0.122983,-2.75772 0.218281,-0.21828 0.396875,-0.58397 0.396875,-0.81265 0,-0.52005 0.759984,-0.52452 1.442355,-0.008 0.348042,0.2632 0.80923,0.3355 1.415074,0.22184 0.781651,-0.14664 0.886454,-0.1038 0.80432,0.32874 -0.07141,0.37609 -0.365581,0.51706 -1.206527,0.57821 -0.611649,0.0445 -1.36125,-0.0525 -1.665781,-0.21546 -0.533407,-0.28547 -0.550741,-0.24482 -0.473129,1.10976 0.0746,1.30195 0.12955,1.40609 0.742021,1.40609 0.578964,0 0.661459,-0.11495 0.661459,-0.92166 0,-1.25467 0.855206,-1.48304 1.093418,-0.29198 0.177692,0.88846 0.01994,0.87338 2.809186,0.26845 1.235054,-0.26786 1.796541,-0.26394 2.983656,0.0208 l 1.462302,0.3508 0.888487,-0.97001 c 0.488667,-0.5335 1.01423,-0.97 1.167916,-0.97 0.537789,0 0.623008,0.56702 0.161812,1.07663 -0.255898,0.28277 -0.415065,0.56432 -0.353705,0.62568 0.06136,0.0614 1.235615,0.30659 2.609454,0.54496 2.724411,0.47269 2.920182,0.54059 2.920182,1.01273 0,0.3962 -5.5148,0.36199 -6.26378,-0.0388 -0.755055,-0.4041 -4.57058,-0.63199 -5.907053,-0.35283 -0.654844,0.13679 -0.937275,0.26175 -0.627625,0.27769 0.30965,0.016 0.990436,0.20759 1.512856,0.42587 1.229383,0.51367 2.809439,0.50638 3.555821,-0.0164 0.529251,-0.3707 0.606117,-0.3714 0.746028,-0.007 0.271019,0.70626 -1.160771,1.743 -2.407176,1.743 -0.395604,0 -0.624096,0.11386 -0.530946,0.26458 0.421521,0.68204 2.541522,0.007 3.069822,-0.97815 0.324319,-0.60449 0.996238,-0.99711 1.258168,-0.73518 0.08317,0.0832 0.02464,0.35188 -0.130069,0.59713 -0.221968,0.3519 -0.168931,0.50264 0.251526,0.71492 0.293043,0.14794 0.721486,0.6412 0.952096,1.09613 0.23061,0.45492 0.776478,1.07849 1.21304,1.38571 0.436563,0.30722 1.119224,0.82001 1.517024,1.13952 0.397801,0.31952 0.784242,0.51998 0.858758,0.44546 0.07451,-0.0745 0.211397,-0.72138 0.30418,-1.43749 0.360816,-2.78477 2.419929,-5.69179 3.434946,-4.8494 0.332986,0.27635 0.44936,0.27099 0.634925,-0.0293 0.193069,-0.31239 0.329189,-0.31305 0.905877,-0.004 0.373266,0.19977 0.678665,0.50022 0.678665,0.66766 0,0.16745 0.304534,0.56924 0.676743,0.89288 0.870278,0.75669 0.841109,2.406 -0.04947,2.79713 -0.442432,0.19431 -0.594996,0.55402 -0.710779,1.67585 -0.226649,2.19602 -0.250859,2.17777 2.889938,2.17777 2.573429,0 2.749818,-0.0339 2.749818,-0.52916 0,-0.29104 -0.103241,-0.52917 -0.229424,-0.52917 -0.287601,0 -1.481662,-1.78477 -1.74125,-2.60266 -0.277226,-0.87346 0.315507,-2.15984 0.995204,-2.15984 0.580654,0 2.56297,1.92981 2.56297,2.49508 0,0.56545 0.784779,1.94278 1.197126,2.10101 0.424552,0.16292 0.533948,-0.36469 0.160249,-0.77286 -0.414839,-0.45311 -0.567228,-2.23573 -0.191123,-2.23573 0.635782,0 1.179237,0.92615 1.364952,2.32614 0.116346,0.87706 0.360236,1.52005 0.654829,1.72639 0.258188,0.18084 0.732623,0.93156 1.0543,1.66826 l 0.584867,1.33946 2.019171,-0.0977 c 1.110544,-0.0537 2.643193,-0.23232 3.405888,-0.39682 z m 6.286199,-5.39291 c -2.710094,-0.35527 -3.93351,-0.62167 -5.242745,-1.1416 -0.409656,-0.16269 -1.124031,-0.30105 -1.5875,-0.30747 -1.13431,-0.0157 -3.368841,-0.62074 -3.435159,-0.9301 -0.08108,-0.37823 3.227254,-0.45249 4.576862,-0.10274 1.563753,0.40525 3.456612,1.03094 4.031306,1.33256 0.252687,0.13262 0.987744,0.24112 1.633461,0.24112 1.410093,0 3.860233,0.53265 3.860233,0.8392 0,0.12052 -0.109324,0.21914 -0.242943,0.21914 -0.133619,0 -0.40151,0.0443 -0.595313,0.0984 -0.193803,0.0541 -1.542994,-0.0577 -2.998202,-0.24848 z m -14.618229,-2.95513 c -0.754572,-0.25978 -0.228359,-0.76871 1.372504,-1.32741 0.936778,-0.32694 1.889278,-0.59444 2.116666,-0.59444 0.227389,0 0.413434,-0.0966 0.413434,-0.21469 0,-0.11808 0.264537,-0.49864 0.587859,-0.84569 0.526417,-0.56504 0.584261,-0.88827 0.553429,-3.09259 -0.02592,-1.85302 0.05006,-2.46161 0.307324,-2.46161 0.187964,0 0.413546,0.26789 0.501291,0.59531 0.249037,0.92928 0.194162,4.32526 -0.08161,5.0506 -0.300826,0.79123 -1.299365,1.76242 -1.81205,1.76242 -0.20523,0 -0.748326,0.16683 -1.206881,0.37073 -1.314252,0.5844 -2.392475,0.88114 -2.751966,0.75737 z m -4.885436,-0.9578 c -0.918238,-0.5299 -2.589044,-2.36065 -2.589044,-2.8369 0,-0.83923 1.439701,0.0142 2.266673,1.34369 0.135778,0.21828 0.603214,0.57956 1.038747,0.80284 0.809073,0.41479 1.251197,1.33669 0.616585,1.28568 -0.192571,-0.0155 -0.792404,-0.28336 -1.332961,-0.59531 z m -20.110751,-3.82053 c -0.724725,-0.0626 -1.127009,-0.28413 -1.521354,-0.83794 -1.052093,-1.47753 -0.381339,-2.61873 1.675441,-2.85056 1.039313,-0.11715 1.225372,-0.055 1.614505,0.53884 0.281925,0.43028 0.410233,1.07237 0.357405,1.78858 -0.09299,1.26065 -0.472765,1.50379 -2.125997,1.36108 z M 43.12483,389.145 c -0.125194,-0.32625 -0.231183,-0.34122 -0.548898,-0.0775 -0.519942,0.43151 -0.497435,0.9136 0.06928,1.48383 0.441706,0.44445 0.466974,0.43212 0.548898,-0.26803 0.04723,-0.40367 0.01606,-0.91588 -0.06928,-1.13826 z m -4.359108,0.36842 c 0.132806,-0.46307 0.241466,-0.8725 0.241466,-0.90984 0,-0.0373 0.171567,-0.0679 0.38126,-0.0679 0.921504,0 0.751885,1.08334 -0.240406,1.53546 -0.60517,0.27573 -0.61658,0.25909 -0.38232,-0.55773 z m -1.293092,-2.23193 c 0.06259,-1.19805 0.177129,-1.53739 0.542371,-1.6069 0.389685,-0.0742 0.463021,0.1161 0.463021,1.20128 0,1.19892 -0.324166,1.9244 -0.859871,1.9244 -0.123679,0 -0.189163,-0.68345 -0.145521,-1.51878 z m 71.6426,16.45052 c -0.14192,-0.37328 -0.25804,-1.10974 -0.25804,-1.6366 0,-1.0325 -0.83041,-2.1863 -1.56748,-2.17787 -0.22929,0.003 -0.80384,0.47086 -1.27677,1.04051 -0.85623,1.03136 -0.85735,1.03654 -0.26458,1.22215 0.32741,0.10252 1.23975,0.64632 2.02743,1.20845 0.78767,0.56212 1.46933,1.02204 1.5148,1.02204 0.0455,0 -0.0334,-0.30541 -0.17536,-0.67868 z m -88.893459,-6.99792 c 0.279222,-0.18304 0.12235,-0.20979 -0.529166,-0.0902 -1.141092,0.20938 -1.356332,0.35983 -0.507118,0.35445 0.351675,-0.002 0.818003,-0.12113 1.036284,-0.26422 z m -0.926041,-1.05095 c 3.328291,-0.83819 5.128475,-1.86818 5.150572,-2.94697 0.01053,-0.51409 1.908942,-2.40231 3.46799,-3.44938 1.198687,-0.80505 3.038081,-1.02717 3.627236,-0.43801 0.1722,0.1722 0.380276,0.24591 0.462391,0.16379 0.08212,-0.0821 -0.04347,-0.34207 -0.279072,-0.57767 -1.164399,-1.1644 -5.756018,-0.0274 -7.0804,1.7533 -0.98191,1.32022 -3.666151,3.90374 -4.055932,3.90374 -0.201709,0 -0.366744,0.11906 -0.366744,0.26458 0,0.14552 -0.208359,0.27329 -0.46302,0.28392 -0.630189,0.0263 -1.986382,0.84658 -2.134527,1.29102 -0.08762,0.26285 0.01569,0.30555 0.378632,0.15652 0.274518,-0.11272 0.856311,-0.2949 1.292874,-0.40484 z M 55.974271,395.481 c 0.329107,-0.41964 0.319749,-0.429 -0.09989,-0.0999 -0.254662,0.19972 -0.463021,0.40808 -0.463021,0.46302 0,0.21776 0.217272,0.0776 0.562916,-0.36313 z m -14.414384,0.0171 c -0.263695,-0.26369 -2.07755,-0.86836 -2.618845,-0.87302 -0.254661,-0.002 -0.46302,0.11508 -0.46302,0.2606 0,0.14552 0.26789,0.26641 0.595312,0.26864 0.327422,0.002 0.773906,0.11946 0.992188,0.26053 0.447976,0.2895 1.77452,0.36341 1.494365,0.0833 z m -14.629232,-1.63682 c 0.270146,-0.23694 0.73403,-0.90665 1.030853,-1.48824 0.296823,-0.58159 0.729133,-1.19597 0.96069,-1.36529 0.649489,-0.47491 2.416734,-0.6809 2.838519,-0.33085 0.285607,0.23703 0.367305,0.21649 0.367305,-0.0923 0,-0.56028 -1.396806,-1.07447 -2.350055,-0.8651 -1.342251,0.29481 -4.093811,2.52864 -4.571126,3.71102 -0.176235,0.43656 -0.361145,0.8629 -0.410912,0.94741 -0.199697,0.33912 1.676833,-0.11501 2.134726,-0.51661 z m 6.052187,-0.23236 c -0.27727,-0.40018 -0.585837,-0.95301 -0.685702,-1.22849 -0.09987,-0.27549 -0.243285,-0.43918 -0.31871,-0.36376 -0.259809,0.25981 0.73687,2.31985 1.122378,2.31985 0.309898,0 0.2866,-0.1437 -0.117966,-0.7276 z m 28.359999,-5.25383 c 0.230183,-0.0883 0.418514,-0.3456 0.418514,-0.57171 0,-0.7997 2.684775,-2.70727 3.810299,-2.70727 0.232669,0 0.423035,0.0976 0.423035,0.21687 0,0.25204 -1.233049,1.36722 -1.523367,1.37774 -0.108034,0.004 -0.613144,0.36554 -1.122467,0.80362 l -0.926042,0.79649 1.000236,-0.53903 c 0.550129,-0.29646 1.12362,-0.53903 1.274424,-0.53903 0.150804,0 0.664437,-0.29765 1.141406,-0.66146 0.686219,-0.5234 1.176175,-0.66145 2.347536,-0.66145 1.171294,0 1.856498,-0.19305 3.282318,-0.92475 1.927226,-0.98902 2.215319,-1.05722 2.930067,-0.69362 0.252686,0.12854 0.757087,0.36016 1.120889,0.51472 0.363802,0.15455 1.246147,0.53732 1.960766,0.85061 2.407837,1.05557 3.97866,1.39124 7.035067,1.50334 2.907115,0.10663 5.027083,-0.18794 5.027083,-0.69849 0,-0.12139 -0.175936,-0.71936 -0.39097,-1.32883 -0.520361,-1.47486 -1.784476,-2.76796 -3.4256,-3.50415 -1.231449,-0.55242 -1.803571,-0.61027 -6.899055,-0.6976 -3.055937,-0.0524 -5.675312,-0.19279 -5.820833,-0.31204 -0.145521,-0.11926 -1.702613,-0.25752 -3.460204,-0.30726 -3.097272,-0.0876 -3.223486,-0.0693 -4.101042,0.59598 -0.497981,0.37754 -1.084015,0.75508 -1.302296,0.83899 -0.266501,0.10245 -0.201314,0.15943 0.198438,0.17346 0.691728,0.0243 0.721813,0.16908 0.230678,1.11032 -0.243731,0.46711 -0.264734,0.68244 -0.06452,0.66146 0.777835,-0.0815 0.438781,0.57747 -0.66467,1.29181 -0.67436,0.43657 -1.411515,1.09795 -1.63812,1.46975 -0.226606,0.3718 -0.732889,0.99688 -1.125074,1.38907 -0.691094,0.69109 -0.599302,0.88355 0.263499,0.55246 z m -28.529739,-3.71846 c 0.466611,-0.37337 0.613715,-0.61276 0.373253,-0.60744 -0.218281,0.005 -1.109061,0.65909 -1.979511,1.4539 -0.870449,0.7948 -1.703887,1.46381 -1.852083,1.48667 -0.148196,0.0229 0.325865,0.11216 1.053469,0.19843 l 1.322916,0.15687 0.155915,-1.0361 c 0.106854,-0.71008 0.398242,-1.23 0.926041,-1.65233 z m 17.310428,1.63407 c -0.491542,-0.50715 -0.949732,-0.86606 -1.018199,-0.7976 -0.117833,0.11784 1.543435,1.70648 1.793864,1.71545 0.06493,0.002 -0.284123,-0.41071 -0.775665,-0.91785 z m -14.627583,-1.35445 c -0.08792,-0.0879 -0.316122,-0.0973 -0.507118,-0.0209 -0.211067,0.0845 -0.148372,0.14715 0.159852,0.15985 0.278915,0.0115 0.435185,-0.0511 0.347266,-0.13897 z m -0.182769,-1.4181 c 0.794779,-0.28579 1.266458,-0.52212 1.048177,-0.52518 -0.478012,-0.007 -2.298232,0.60901 -2.552699,0.86347 -0.273709,0.27371 -0.07015,0.22794 1.504522,-0.33829 z m 4.752344,-0.53871 c 0.29113,-0.18814 0.101425,-0.25756 -0.71199,-0.26053 -0.609875,-0.002 -1.182449,0.11501 -1.272385,0.26053 -0.21184,0.34276 1.453986,0.34276 1.984375,0 z m 6.592534,0.18971 c -0.06063,-0.0412 -0.348368,-0.24953 -0.639409,-0.46302 -0.489481,-0.35904 -0.501934,-0.35342 -0.166041,0.0749 0.199719,0.25466 0.487454,0.46302 0.63941,0.46302 0.151956,0 0.226674,-0.0337 0.16604,-0.0749 z m -2.623784,-0.60548 c 0,-0.0832 -0.181797,-0.33299 -0.403993,-0.55519 -0.362267,-0.36226 -0.519394,-0.34801 -1.521354,0.13801 l -1.117362,0.54199 1.521354,0.0132 c 0.836745,0.007 1.521355,-0.0548 1.521355,-0.138 z m 58.601118,47.28658 c -0.87537,-0.38556 -2.12553,-1.01853 -2.778121,-1.40659 -2.006547,-1.1932 -4.124449,-3.58846 -3.619456,-4.09345 0.113029,-0.11303 1.720115,1.14976 3.56673,2.80261 0.332557,0.29766 0.719417,0.54121 0.859687,0.54121 0.24563,0 3.97994,1.75947 4.71548,2.22177 0.30224,0.18997 0.30224,0.26157 0,0.45308 -0.53544,0.33927 -0.99272,0.25286 -2.74432,-0.51863 z m -13.201828,-3.82467 c -1.951804,-1.09465 -2.029703,-2.26401 -0.08753,-1.31387 0.617436,0.30206 1.516192,0.63131 1.997236,0.73168 0.619765,0.12931 0.850427,0.31034 0.791583,0.62125 -0.124056,0.65547 -1.498359,0.6356 -2.701293,-0.0391 z"
       id="path12" /></g></svg>
