<?xml version="1.0" encoding="UTF-8" standalone="no"?>
<!-- Created with Inkscape (http://www.inkscape.org/) -->

<svg
   width="201.5625mm"
   height="154.58896mm"
   viewBox="0 0 201.5625 154.58896"
   version="1.1"
   id="svg1"
   xml:space="preserve"
   xmlns="http://www.w3.org/2000/svg"
   xmlns:svg="http://www.w3.org/2000/svg"><defs
     id="defs1" /><g
     id="layer1"
     transform="translate(-624.71901,-330.82369)"><path
       style="fill:#4d4d4d"
       d="m 770.08703,485.2369 c -0.15276,-0.15288 -1.45789,-0.33891 -2.90027,-0.4134 -1.44239,-0.0745 -2.7402,-0.25312 -2.88402,-0.39694 -0.14383,-0.14383 -0.48658,-0.2615 -0.76168,-0.2615 -0.56169,0 -3.09816,-2.49911 -3.09816,-3.05253 0,-0.46828 1.03198,-1.18051 1.71252,-1.18192 0.29504,-6e-4 1.12217,-0.29826 1.83805,-0.66145 0.71589,-0.3632 1.57234,-0.66035 1.90323,-0.66035 0.33089,0 0.75719,-0.20841 0.94734,-0.46313 0.19016,-0.25472 1.4173,-0.81312 2.72699,-1.24089 1.30968,-0.42777 2.56922,-0.93374 2.79896,-1.12437 0.22973,-0.19064 0.55716,-0.34661 0.7276,-0.34661 0.17044,0 0.3099,-0.0987 0.3099,-0.21943 0,-0.12068 0.75334,-0.59797 1.67409,-1.06065 2.54376,-1.27824 2.8413,-1.74153 3.01773,-4.6989 0.1684,-2.82256 -0.29865,-6.83475 -0.98258,-8.44082 -0.24788,-0.58208 -0.60782,-1.47505 -0.79987,-1.98437 -0.19205,-0.50932 -0.5584,-1.16417 -0.8141,-1.45521 -0.25571,-0.29104 -0.54759,-0.97697 -0.64863,-1.52428 -0.10105,-0.54731 -0.28928,-1.06035 -0.41831,-1.14009 -0.12902,-0.0797 -0.23458,-0.36643 -0.23458,-0.6371 0,-0.27066 -0.16759,-0.82918 -0.37241,-1.24115 -0.20482,-0.41198 -0.49033,-1.0467 -0.63448,-1.41051 -0.14414,-0.3638 -0.45281,-1.09617 -0.68593,-1.62748 -0.23312,-0.53132 -0.42385,-1.08631 -0.42385,-1.23333 0,-0.14701 -0.41672,-1.24089 -0.92604,-2.43085 -0.50933,-1.18996 -0.92604,-2.44506 -0.92604,-2.78912 0,-0.34406 -0.10938,-0.89906 -0.24306,-1.23333 -0.13369,-0.33427 -0.31116,-0.82295 -0.3944,-1.08596 -0.13958,-0.44105 -0.25946,-0.41988 -1.54288,0.27251 -0.76535,0.4129 -2.10591,0.96997 -2.97904,1.23795 -0.87312,0.26798 -1.90354,0.71089 -2.2898,0.98426 -0.38627,0.27336 -0.82871,0.49702 -0.98321,0.49702 -0.31008,0 -2.20565,0.84079 -2.41553,1.07141 -0.25727,0.2827 -2.98179,1.04526 -3.73455,1.04526 -0.41985,0 -0.76337,0.0931 -0.76337,0.20682 0,0.11375 -0.56555,0.36751 -1.25677,0.56391 -0.69122,0.1964 -1.61396,0.50509 -2.05052,0.68598 -2.33659,0.96818 -4.92953,1.47484 -8.59896,1.68025 -5.3635,0.30024 -10.64917,-0.29548 -13.89062,-1.56554 -0.29105,-0.11404 -0.87833,-0.28386 -1.30508,-0.37738 -0.42676,-0.0935 -1.25279,-0.40044 -1.83564,-0.68204 -0.58284,-0.2816 -1.2793,-0.512 -1.54769,-0.512 -0.69274,0 -4.21018,-1.76048 -4.7043,-2.3545 -0.0728,-0.0875 -0.54901,-0.3859 -1.05834,-0.66318 -1.60774,-0.87524 -3.89838,-2.64289 -4.40596,-3.40001 -0.26885,-0.40103 -0.72695,-0.80533 -1.01799,-0.89846 -0.29105,-0.0931 -1.39603,-1.01517 -2.45552,-2.04898 -1.0595,-1.03382 -2.39651,-2.29638 -2.97115,-2.80571 -0.57463,-0.50932 -1.04723,-1.06253 -1.05021,-1.22936 -0.003,-0.16682 -0.4519,-0.67013 -0.9976,-1.11845 -1.4311,-1.17571 -2.96829,-2.76811 -2.97274,-3.07949 -0.002,-0.14736 -0.29667,-0.48785 -0.65458,-0.75663 -1.02534,-0.77 -2.52425,-2.28416 -2.52425,-2.54994 0,-0.13295 -0.83131,-1.10949 -1.84735,-2.17008 -1.77476,-1.85255 -3.1423,-3.91271 -2.59727,-3.91271 0.14346,0 0.32418,0.20836 0.40161,0.46302 0.0774,0.25466 1.01161,1.23693 2.07596,2.18281 1.06434,0.94589 2.01281,1.93731 2.10769,2.20315 0.0949,0.26585 0.71703,0.98023 1.38255,1.5875 1.53368,1.39947 2.1189,2.00822 3.10702,3.23197 0.43657,0.54067 1.21047,1.26609 1.71979,1.61206 0.50933,0.34597 1.26438,1.13431 1.67791,1.75187 0.41352,0.61755 1.16477,1.42048 1.66945,1.78428 0.50467,0.36381 1.09282,0.84006 1.30699,1.05834 2.1667,2.20826 2.93065,2.90616 3.18334,2.90811 0.16338,0.001 0.63963,0.39274 1.05833,0.86993 0.4187,0.4772 1.29706,1.27779 1.9519,1.7791 0.65485,0.50131 1.25016,0.97427 1.32292,1.05103 0.0728,0.0768 0.48948,0.31623 0.92604,0.53219 0.43656,0.21595 1.50812,0.81279 2.38125,1.3263 2.48948,1.46416 4.67989,2.3685 5.75828,2.3774 0.25663,0.002 0.67335,0.11193 0.92604,0.24402 0.74739,0.39071 3.24891,1.08275 3.91378,1.08275 0.3385,0 0.67673,0.0991 0.75161,0.22029 0.0749,0.12115 1.48089,0.37375 3.12447,0.56132 3.93843,0.44946 10.6445,0.17048 12.24874,-0.50958 0.29104,-0.12337 1.33284,-0.44192 2.3151,-0.70789 0.98227,-0.26596 1.78594,-0.56267 1.78594,-0.65934 0,-0.0967 0.73935,-0.26157 1.643,-0.36645 0.90365,-0.10488 1.85615,-0.29516 2.11667,-0.42285 0.26051,-0.12769 0.71017,-0.35123 0.99924,-0.49675 0.28907,-0.14552 0.63795,-0.26458 0.77529,-0.26458 0.13734,0 1.00216,-0.33919 1.92182,-0.75374 0.91966,-0.41456 2.08882,-0.9099 2.59815,-1.10074 0.50932,-0.19085 1.03915,-0.44698 1.17739,-0.56918 0.13825,-0.1222 0.6145,-0.22262 1.05833,-0.22317 0.44384,-5.5e-4 1.52136,-0.35729 2.39448,-0.79276 0.87313,-0.43546 1.79586,-0.7922 2.05052,-0.79275 0.73236,-0.002 0.55687,-1.00619 -0.33081,-1.89387 -0.43662,-0.43662 -0.86624,-1.0823 -0.95473,-1.43486 -0.0885,-0.35256 -0.25413,-0.64102 -0.3681,-0.64102 -0.11397,0 -0.28651,-0.31593 -0.38343,-0.70207 -0.0969,-0.38614 -0.53201,-1.21921 -0.96687,-1.85127 l -0.79066,-1.14918 -1.02824,0.52456 c -0.56553,0.28851 -1.09724,0.63623 -1.18159,0.7727 -0.0843,0.13648 -0.77703,0.44506 -1.5393,0.68574 -0.76228,0.24068 -1.93785,0.72603 -2.61238,1.07856 -0.67454,0.35253 -1.41868,0.64096 -1.65365,0.64096 -0.23497,0 -0.42721,0.0989 -0.42721,0.21988 0,0.12093 -0.2679,0.35227 -0.59532,0.51408 -1.4332,0.7083 -3.67732,1.64729 -3.93692,1.64729 -0.15577,0 -1.28564,0.47625 -2.51082,1.05834 -1.22518,0.58208 -2.43961,1.05833 -2.69873,1.05833 -0.25912,0 -0.58424,0.0991 -0.72249,0.22031 -0.8153,0.71461 -8.7987,1.80695 -11.14085,1.52435 -0.85025,-0.10258 -2.37935,-0.28488 -3.398,-0.4051 -2.13171,-0.25159 -4.38358,-0.77835 -4.74927,-1.11095 -0.13825,-0.12573 -0.45602,-0.22861 -0.70616,-0.22861 -0.25015,0 -0.79188,-0.16806 -1.20386,-0.37346 -0.88878,-0.44313 -3.64903,-1.68816 -4.5855,-2.06832 -1.25149,-0.50804 -2.25243,-1.10714 -3.74543,-2.24178 -0.82306,-0.6255 -1.58795,-1.13727 -1.69976,-1.13727 -0.59459,0 -13.8694,-13.14193 -13.8694,-13.73057 0,-0.12924 -0.26789,-0.30232 -0.59531,-0.38461 -0.32742,-0.0823 -1.24561,-0.75078 -2.04041,-1.48552 l -1.4451,-1.33589 -1.6138,0.16534 -1.61379,0.16534 -1.57131,-1.80076 c -0.86423,-0.99042 -2.28569,-2.53698 -3.15882,-3.43681 -2.92148,-3.01082 -5.01526,-5.2508 -6.03766,-6.45926 -2.65198,-3.13457 -3.58393,-3.92709 -5.85964,-4.98294 -0.90507,-0.41993 -1.52259,-0.55061 -1.98437,-0.41993 -0.36873,0.10435 -0.83119,0.16237 -1.02769,0.12893 -0.19651,-0.0334 -0.27878,0.0662 -0.18282,0.22148 0.0959,0.15525 0.36116,0.28228 0.58935,0.28228 0.22819,0 1.26296,0.40655 2.29949,0.90345 1.03652,0.4969 2.25659,0.97932 2.71126,1.07206 0.80728,0.16465 2.18089,1.32284 1.90093,1.6028 -0.0774,0.0774 -0.72284,-0.14508 -1.4342,-0.49451 -0.71137,-0.34942 -1.76001,-0.70575 -2.33032,-0.79185 -0.57031,-0.0861 -1.10609,-0.25748 -1.19063,-0.38087 -0.0845,-0.12338 -0.86807,-0.44443 -1.7412,-0.71345 -0.87312,-0.26902 -1.76609,-0.5774 -1.98437,-0.6853 -0.21828,-0.10789 -0.87313,-0.32117 -1.45521,-0.47394 -0.58208,-0.15277 -1.71318,-0.45543 -2.51354,-0.67258 -1.37899,-0.37413 -4.39871,-0.6574 -9.12813,-0.85627 -2.79187,-0.1174 -7.83458,0.34287 -9.65729,0.88146 -0.80036,0.2365 -2.31697,0.82746 -3.37023,1.31325 -1.05327,0.48579 -2.00471,0.88325 -2.11433,0.88325 -0.67178,0 -4.26202,2.10124 -5.30761,3.10635 -0.6855,0.65897 -1.69748,1.48419 -2.24884,1.83382 -0.55135,0.34963 -1.10374,0.89917 -1.22753,1.2212 -0.12378,0.32203 -0.74424,1.07792 -1.37878,1.67976 -1.4637,1.38826 -2.07572,2.13225 -2.09501,2.54679 -0.008,0.18024 -0.30648,0.74442 -0.66242,1.25375 -1.43161,2.04853 -1.96817,2.91266 -1.96817,3.16974 0,0.14841 -0.11906,0.26984 -0.26458,0.26984 -0.14552,0 -0.26458,0.16402 -0.26458,0.36448 0,0.20046 -0.1786,0.5127 -0.39688,0.69385 -0.21828,0.18116 -0.39687,0.70771 -0.39687,1.17011 0,0.4624 -0.0946,0.95384 -0.21024,1.09208 -0.11563,0.13825 -0.42712,0.96573 -0.69219,1.83886 -0.26508,0.87312 -0.57976,1.82562 -0.6993,2.11666 -0.43852,1.06768 -1.04413,5.68688 -1.04496,7.97028 -8.4e-4,2.31611 0.6408,7.40365 1.06368,8.43389 0.11946,0.29104 0.28539,0.88635 0.36873,1.32292 0.0833,0.43656 0.38717,1.62718 0.67519,2.64583 0.28803,1.01865 0.52715,2.21522 0.53138,2.65906 0.004,0.44384 0.11014,0.92009 0.23533,1.05834 0.1252,0.13824 0.44722,0.90619 0.7156,1.70656 0.26839,0.80036 0.64221,1.64318 0.83071,1.87291 0.18851,0.22974 0.34273,0.60678 0.34273,0.83785 0,0.23108 0.0893,0.45983 0.19844,0.50834 0.10914,0.0485 0.53934,0.80256 0.956,1.67569 0.41666,0.87312 0.95244,1.98948 1.19063,2.4808 0.23818,0.49131 0.99861,1.48474 1.68983,2.20763 0.69122,0.72288 1.25692,1.45199 1.25709,1.62024 3.9e-4,0.36964 1.1628,1.76112 1.4712,1.76112 0.12062,0 0.55325,0.31993 0.9614,0.71096 0.87706,0.84028 0.93663,0.58485 0.21291,-0.91306 -0.29104,-0.60239 -0.52916,-1.19778 -0.52916,-1.3231 0,-0.12532 -0.29281,-0.83481 -0.65069,-1.57666 -0.87181,-1.80717 -1.76834,-4.43488 -2.01094,-5.89397 -0.10888,-0.65485 -0.39654,-1.72316 -0.63925,-2.37404 -0.24271,-0.65087 -0.55902,-1.72243 -0.7029,-2.38125 -0.25064,-1.14756 -0.38979,-1.89783 -1.00736,-5.43117 -0.33907,-1.93996 -0.35276,-9.41687 -0.0216,-11.77396 0.55753,-3.96791 1.59376,-8.02634 2.20554,-8.63811 0.0997,-0.0997 0.18132,-0.47092 0.18132,-0.82485 0,-0.62651 0.721,-2.44261 1.07504,-2.70787 0.0971,-0.0728 0.25239,-0.37569 0.34506,-0.67316 0.0927,-0.29748 0.70352,-1.13092 1.35744,-1.85209 0.65391,-0.72117 1.18944,-1.45607 1.19007,-1.63312 10e-4,-0.4189 1.77466,-2.1915 2.19278,-2.19207 0.17705,-2.4e-4 0.76848,-0.47505 1.3143,-1.05514 1.29655,-1.37797 2.53453,-2.13342 4.96073,-3.02716 1.09141,-0.40204 2.34156,-0.88593 2.77813,-1.0753 0.80205,-0.34792 2.11842,-0.63357 5.63122,-1.22197 1.48695,-0.24907 2.30968,-0.25229 3.60239,-0.0141 0.92142,0.16978 2.2569,0.30814 2.96773,0.30746 1.32597,-0.001 5.37367,0.69027 6.31949,1.07965 1.13335,0.46658 3.08443,1.03825 3.54351,1.03825 0.68675,0 3.92681,1.73554 5.00127,2.67893 0.49868,0.43784 1.40226,1.03684 2.00796,1.33111 0.60569,0.29427 1.3714,0.94714 1.70157,1.45082 0.33017,0.50368 1.11846,1.28101 1.75175,1.72739 0.63329,0.44639 1.31288,1.12333 1.51019,1.50433 0.49401,0.9539 0.97126,1.54813 2.24915,2.80043 0.60316,0.59108 1.29653,1.47268 1.54083,1.95911 0.2443,0.48643 1.0132,1.43893 1.70867,2.11667 0.69547,0.67774 1.6356,1.76803 2.08919,2.42287 0.45358,0.65485 1.42717,1.78594 2.16353,2.51355 0.73635,0.7276 1.4077,1.5908 1.49189,1.91823 0.0842,0.32742 0.24671,0.59531 0.36117,0.59531 0.11445,0 1.79819,1.62156 3.74163,3.60346 1.94344,1.9819 3.71212,3.75904 3.9304,3.9492 2.02807,1.76675 4.9131,4.089 5.07994,4.089 0.20802,0 1.12524,0.72732 2.16884,1.7198 0.77527,0.73728 2.72951,1.98437 3.10961,1.98437 0.17356,0 0.50354,0.16777 0.73327,0.37282 0.8336,0.74401 6.2963,3.59593 6.88782,3.59593 0.45011,0 2.60113,0.63927 3.58406,1.06515 0.29104,0.12611 1.24354,0.42358 2.11667,0.66106 0.87312,0.23748 1.94468,0.53225 2.38125,0.65504 2.07054,0.5824 8.30175,0.86294 12.21825,0.5501 2.15673,-0.17228 4.21899,-0.41481 4.58279,-0.53895 0.3638,-0.12415 1.55443,-0.42473 2.64583,-0.66794 1.09141,-0.24322 2.63922,-0.66175 3.43958,-0.93006 0.80037,-0.26832 1.99099,-0.56358 2.64584,-0.65612 0.65484,-0.0925 1.42875,-0.27171 1.71979,-0.39812 0.29104,-0.12642 2.13651,-0.93561 4.10104,-1.7982 1.96453,-0.86259 3.92906,-1.65169 4.36563,-1.75356 0.94183,-0.21976 4.98848,-2.26143 5.11527,-2.58082 0.13987,-0.35233 0.57327,-0.25786 0.57327,0.12496 0,0.57351 -1.51156,1.51184 -4.10104,2.54579 -1.38196,0.5518 -1.99301,0.81879 -3.83646,1.6763 -1.09141,0.50769 -2.28203,1.01261 -2.64583,1.12206 -0.36381,0.10944 -0.95912,0.40697 -1.32292,0.66118 -0.3638,0.2542 -1.19724,0.54299 -1.85208,0.64174 -0.65485,0.0987 -1.42875,0.28448 -1.7198,0.41272 -1.18756,0.52328 -4.62276,1.58892 -5.12205,1.58892 -0.29439,0 -0.59669,0.0994 -0.67178,0.2209 -0.19171,0.31018 -4.45285,1.02074 -8.28543,1.38161 -6.52467,0.61435 -14.06985,-0.51247 -19.52282,-2.9156 -0.58208,-0.25652 -1.53458,-0.55229 -2.11667,-0.65727 -0.58208,-0.10498 -1.41552,-0.45219 -1.85208,-0.77159 -0.43656,-0.3194 -1.34052,-0.85421 -2.0088,-1.18848 -0.66827,-0.33427 -1.52628,-0.89635 -1.90668,-1.24908 -0.3804,-0.35273 -0.90846,-0.64132 -1.17348,-0.64132 -0.4728,0 -1.44443,-0.56651 -2.14384,-1.24995 -0.1945,-0.19006 -0.78971,-0.67118 -1.3227,-1.06916 -0.53299,-0.39798 -1.19998,-0.93196 -1.4822,-1.18662 -0.28222,-0.25466 -0.62661,-0.46302 -0.76532,-0.46302 -0.1387,0 -0.57821,-0.32742 -0.97668,-0.72761 -0.39846,-0.40018 -1.24479,-1.13966 -1.88072,-1.64329 -1.33523,-1.05744 -9.17499,-8.91809 -10.54896,-10.57705 -0.50932,-0.61497 -1.25346,-1.44873 -1.65364,-1.8528 -0.40018,-0.40407 -0.72801,-0.84084 -0.72851,-0.97061 -5e-4,-0.12976 -0.89177,-1.18843 -1.9806,-2.3526 -1.08882,-1.16417 -1.98591,-2.29526 -1.99352,-2.51354 -0.008,-0.21828 -0.84275,-1.22684 -1.85587,-2.24123 -1.01311,-1.01439 -1.84202,-1.97682 -1.84202,-2.13872 0,-0.16189 -0.37398,-0.64162 -0.83107,-1.06606 -0.45709,-0.42444 -1.55842,-1.49751 -2.4474,-2.3846 -0.88898,-0.8871 -2.00731,-1.76642 -2.48519,-1.95405 -0.47787,-0.18762 -1.07771,-0.60664 -1.33296,-0.93115 -0.25526,-0.3245 -0.72747,-0.6736 -1.04937,-0.77576 -0.32189,-0.10217 -0.58526,-0.2968 -0.58526,-0.43251 0,-0.13572 -0.18096,-0.24676 -0.40213,-0.24676 -0.22118,0 -0.8499,-0.28266 -1.39716,-0.62813 -0.54727,-0.34547 -1.46763,-0.6946 -2.04527,-0.77583 -0.57763,-0.0812 -1.82414,-0.34366 -2.77003,-0.58316 -3.09179,-0.78283 -4.05699,-0.94039 -7.46541,-1.21862 -4.07923,-0.333 -8.22224,0.0703 -10.52625,1.02458 -0.3638,0.15069 -1.19724,0.43173 -1.85209,0.62455 -1.64878,0.48547 -4.4492,2.13347 -5.542,3.26136 -0.50149,0.5176 -1.04368,0.94109 -1.20487,0.94109 -0.36763,0 -1.98438,1.64783 -1.98438,2.02253 0,0.15265 -0.38695,0.68453 -0.85989,1.18196 -0.8643,0.90904 -1.95863,2.61443 -2.23067,3.47624 -0.0804,0.25466 -0.25133,0.46302 -0.37988,0.46302 -0.12855,0 -0.23372,0.17859 -0.23372,0.39687 0,0.21828 -0.11906,0.39688 -0.26459,0.39688 -0.14552,0 -0.26458,0.41256 -0.26458,0.91679 0,0.50424 -0.16822,1.42697 -0.37382,2.05052 -0.39289,1.19154 -0.96986,3.74674 -1.45447,6.44132 -0.35682,1.98398 -0.3802,10.99386 -0.033,12.73004 0.14043,0.70232 0.3837,1.9318 0.54058,2.73216 0.15689,0.80037 0.40334,1.93146 0.54768,2.51354 0.14434,0.58209 0.41584,1.95131 0.60333,3.04271 0.18748,1.09141 0.4679,2.28203 0.62313,2.64583 0.15524,0.36381 0.72257,1.85209 1.26074,3.3073 0.53816,1.4552 1.25408,3.32436 1.59092,4.15368 0.33995,0.83698 0.49768,1.5461 0.3545,1.59383 -0.14187,0.0473 -0.0113,0.39956 0.29022,0.78284 0.30148,0.38327 0.54815,0.82799 0.54815,0.98827 0,0.16027 0.35719,0.66516 0.79375,1.12198 0.43656,0.45683 0.79375,0.94191 0.79375,1.07798 0,0.50638 -0.68813,-0.006 -1.53018,-1.1404 -1.22498,-1.6496 -2.27025,-2.67894 -3.48396,-3.43088 -0.57649,-0.35716 -1.19309,-1.00657 -1.37022,-1.44314 -0.17714,-0.43656 -0.85183,-1.3118 -1.49933,-1.94497 -0.64749,-0.63317 -1.62145,-2.00239 -2.16436,-3.04271 -0.5429,-1.04032 -1.43343,-2.72492 -1.97897,-3.74357 -1.09332,-2.0415 -2.26048,-5.02074 -2.26048,-5.76997 0,-0.4642 -0.61831,-2.66919 -1.05296,-3.75503 -0.1165,-0.29104 -0.41494,-1.48166 -0.6632,-2.64583 -0.24826,-1.16417 -0.55859,-2.53339 -0.68961,-3.04271 -0.66706,-2.59306 -0.66155,-10.9744 0.008,-12.56771 0.12235,-0.29104 0.35346,-1.15815 0.51357,-1.92692 0.16012,-0.76877 0.51578,-1.89986 0.79037,-2.51354 0.27459,-0.61368 0.64564,-1.59204 0.82455,-2.17412 0.55464,-1.80448 1.85031,-4.30836 2.83946,-5.48727 0.52022,-0.62002 1.11047,-1.5183 1.31166,-1.99616 0.20119,-0.47787 1.08772,-1.60892 1.97007,-2.51345 0.88235,-0.90453 1.79771,-1.97207 2.03413,-2.3723 0.23643,-0.40023 0.5365,-0.7277 0.66683,-0.7277 0.27637,0 2.86175,-2.0931 3.15631,-2.55532 0.31848,-0.49977 1.93015,-1.41343 2.49324,-1.41343 0.28281,0 0.76979,-0.23812 1.08219,-0.52916 0.31239,-0.29104 0.64427,-0.52917 0.73751,-0.52917 0.16735,0 1.01395,-0.36281 3.24253,-1.38957 2.38625,-1.09941 9.10687,-2.29699 13.59015,-2.42168 1.84673,-0.0514 2.74745,-0.19385 3.23184,-0.51123 0.36935,-0.24201 0.735,-0.44002 0.81254,-0.44002 0.0776,0 0.72103,-0.41672 1.42997,-0.92604 0.70894,-0.50932 1.55644,-0.92604 1.88333,-0.92604 0.75923,0 3.01823,-0.72599 4.31323,-1.38617 0.82463,-0.42039 1.14778,-0.46001 1.82542,-0.22379 0.45287,0.15787 1.21532,0.28704 1.69434,0.28704 0.47902,0 0.94453,0.11906 1.03447,0.26458 0.31451,0.5089 1.43468,0.2773 1.86965,-0.38655 0.77854,-1.18821 1.87382,-1.11227 3.39702,0.2355 0.45247,0.40036 1.0872,0.68022 1.54276,0.68022 0.49101,0 1.44085,0.45951 2.59784,1.25677 1.49402,1.0295 1.90367,1.47208 2.26529,2.4474 0.29887,0.80609 1.05596,1.78879 2.34413,3.04271 1.04648,1.01864 2.45719,2.62598 3.13492,3.57187 0.67772,0.94589 1.70058,2.18373 2.27302,2.75077 0.97459,0.9654 1.06906,1.00271 1.48516,0.58661 0.55514,-0.55514 2.3543,-1.4853 2.87294,-1.4853 0.43189,0 3.13272,-1.37041 4.84313,-2.45741 1.32556,-0.84244 3.55982,-3.11455 3.43408,-3.49228 -0.18543,-0.55707 -0.93267,-0.39833 -1.69001,0.35901 -1.07857,1.07856 -2.8064,1.5356 -3.6689,0.97047 -0.35177,-0.23049 -0.63958,-0.67219 -0.63958,-0.98155 0,-0.30937 -0.41745,-0.96792 -0.92768,-1.46344 -0.77164,-0.74941 -0.88123,-0.98775 -0.65153,-1.41694 0.23061,-0.43091 0.16544,-0.56643 -0.39524,-0.82189 -0.40888,-0.1863 -0.67138,-0.52339 -0.67138,-0.86215 0,-0.32308 -0.24955,-0.66574 -0.59531,-0.81743 -0.46212,-0.20274 -0.61373,-0.51709 -0.67762,-1.40495 -0.10305,-1.43221 -0.85336,-2.82233 -1.52415,-2.82384 -0.54342,-0.001 -1.6393,-1.72422 -1.68356,-2.64697 -0.0213,-0.44319 -0.0685,-0.46468 -0.29075,-0.13229 -0.22822,0.34131 -0.31026,0.32279 -0.58604,-0.13229 -0.99696,-1.64522 -1.2172,-3.58093 -0.64723,-5.68855 0.36252,-1.34051 1.2286,-2.91041 1.60561,-2.91041 0.13714,0 1.10688,-0.84347 2.15496,-1.87437 2.81472,-2.76857 6.13008,-4.18798 7.22486,-3.0932 0.25575,0.25575 0.43356,0.25575 0.84308,0 0.28543,-0.17825 1.33629,-0.3241 2.33524,-0.3241 1.42922,0 2.08137,0.14096 3.0603,0.66146 0.68421,0.3638 1.40358,0.66146 1.59859,0.66146 0.33487,0 1.34471,0.84963 4.48342,3.77216 l 1.35173,1.25861 -0.0793,4.77759 -0.0793,4.77758 2.48281,-0.18224 c 2.35888,-0.17316 2.5449,-0.14759 3.72675,0.51223 1.16565,0.65078 1.46397,0.69482 4.74028,0.6998 1.92298,0.003 4.27024,0.14518 5.21613,0.31612 0.94588,0.17095 4.04151,0.31741 6.87916,0.32549 l 5.15938,0.0147 1.44809,-1.52143 c 1.13572,-1.19324 1.62084,-1.5223 2.24896,-1.52548 0.87812,-0.004 1.19493,-0.16941 1.59462,-0.83034 0.14552,-0.24064 0.98621,-1.37895 1.8682,-2.52959 2.39835,-3.12885 3.98035,-5.81122 4.64793,-7.88081 0.32858,-1.01864 0.66374,-1.91161 0.74481,-1.98437 0.0811,-0.0728 0.3745,-0.57878 0.65207,-1.12448 0.27758,-0.54571 0.605,-0.99219 0.72761,-0.99219 0.1226,0 0.22292,-0.23813 0.22292,-0.52917 0,-0.38101 -0.17639,-0.52916 -0.63002,-0.52916 -0.83966,0 -4.80641,-4.14381 -5.05643,-5.28212 -0.097,-0.44181 -0.27115,-0.8033 -0.38692,-0.8033 -0.11577,0 -0.28192,-0.35719 -0.36924,-0.79375 -0.0873,-0.43656 -0.32137,-0.79375 -0.52013,-0.79375 -0.39871,0 -2.56226,-2.0189 -2.56226,-2.39095 0,-0.12846 -0.46776,-0.66634 -1.03945,-1.19529 -1.17876,-1.09063 -2.05959,-2.74466 -3.08311,-5.78949 -0.55444,-1.64938 -0.64201,-2.20187 -0.40829,-2.5761 0.16363,-0.26202 0.29751,-0.8114 0.29751,-1.22083 0,-0.40943 0.14288,-0.8873 0.3175,-1.06192 0.41977,-0.41977 -1.21515,-0.43822 -2.39468,-0.027 -0.75724,0.26398 -0.83323,0.3924 -0.83323,1.40808 0,0.61468 -0.19837,1.69978 -0.44082,2.41133 -0.82849,2.43148 -2.30117,3.13874 -3.83979,1.84407 -0.62902,-0.52928 -1.03736,-0.64967 -2.05362,-0.60545 -0.78016,0.034 -1.69188,-0.13573 -2.36829,-0.44075 -1.0954,-0.49395 -1.10193,-0.49365 -1.63291,0.0763 -0.2932,0.31473 -0.62677,0.57223 -0.74126,0.57223 -0.27665,0 -1.07757,-0.92795 -2.02419,-2.34523 -0.42414,-0.63503 -0.95395,-1.21447 -1.17733,-1.28765 -1.00346,-0.32871 -1.86138,-0.74396 -1.86138,-0.90095 0,-0.0942 -0.30794,-0.2486 -0.68431,-0.34306 -0.37637,-0.0945 -1.25851,-0.70884 -1.9603,-1.36529 -0.75208,-0.70348 -1.3466,-1.07928 -1.44797,-0.91526 -0.31991,0.51762 -1.61708,0.29842 -2.2555,-0.38115 -0.76504,-0.81435 -0.96988,-2.75081 -0.53198,-5.02912 0.16782,-0.87313 0.39706,-2.36141 0.50943,-3.30729 0.2033,-1.71136 0.67947,-3.344 1.11508,-3.82323 0.12566,-0.13825 0.22847,-0.44828 0.22847,-0.68897 0,-0.24069 0.30595,-0.76774 0.67988,-1.17122 0.37393,-0.40348 0.9989,-1.22454 1.38882,-1.82457 0.38992,-0.60004 0.88764,-1.24178 1.10606,-1.4261 0.8008,-0.67579 2.27931,-1.14924 3.43982,-1.1015 0.65485,0.0269 1.48829,-0.0701 1.85209,-0.21567 1.29081,-0.51648 2.26555,-0.60391 3.57187,-0.32038 0.72761,0.15791 1.65034,0.35246 2.05052,0.43232 0.40019,0.0799 0.72761,0.25076 0.72761,0.37976 0,0.12901 0.17825,0.23456 0.39611,0.23456 0.5436,0 2.45089,1.76235 2.67095,2.46797 0.25538,0.81888 2.13253,3.00397 3.04232,3.5414 0.42338,0.25009 0.76978,0.59907 0.76978,0.77551 0,0.1955 0.59419,0.38357 1.52136,0.48153 0.83674,0.0884 1.95189,0.27557 2.47809,0.41592 1.32306,0.35287 2.70985,0.31912 3.10508,-0.0756 0.23784,-0.23751 1.54664,-0.33073 4.64331,-0.33073 4.19064,0 4.66714,0.0719 6.24383,0.94174 0.21828,0.12043 1.26499,0.64546 2.32602,1.16675 1.06102,0.52129 1.99137,1.10997 2.06743,1.30819 0.0761,0.19822 0.45811,0.428 0.84899,0.51062 1.01266,0.21407 2.2771,1.41858 3.07065,2.92513 0.80308,1.52462 0.79503,1.48194 0.27932,1.48194 -0.22188,0 -0.51856,-0.30283 -0.65928,-0.67295 -0.34528,-0.90816 -1.98083,-2.38614 -3.43521,-3.10428 -0.65485,-0.32335 -1.25129,-0.64754 -1.32544,-0.72044 -0.52618,-0.51727 -4.27413,-2.20767 -5.38372,-2.42816 -2.03757,-0.40488 -7.01125,-0.57877 -7.39701,-0.25862 -0.67894,0.56347 -3.02457,0.64676 -5.13366,0.18229 -1.13252,-0.24941 -2.33262,-0.56189 -2.66689,-0.6944 -1.02953,-0.40814 -1.66716,-0.27296 -2.60766,0.55281 -1.07106,0.94041 -1.12514,0.94605 -2.5356,0.26459 -1.13432,-0.54805 -3.69349,-0.77454 -2.78775,-0.24673 0.74976,0.43692 2.12316,2.63458 2.11553,3.38518 -0.004,0.4034 0.30278,1.03302 0.7271,1.49175 0.77021,0.83268 1.2776,2.24896 0.8057,2.24896 -0.14867,0 -0.69598,-0.47116 -1.21625,-1.04703 -0.52026,-0.57587 -1.17479,-1.11968 -1.45452,-1.20846 -0.60385,-0.19165 -0.649,-0.58983 -0.1319,-1.16326 0.32585,-0.36134 0.32585,-0.48701 0,-0.9313 -0.32767,-0.44677 -0.37668,-0.45537 -0.37668,-0.0661 0,0.24609 -0.16867,0.44744 -0.37483,0.44744 -0.20615,0 -0.41992,0.13529 -0.47503,0.30063 -0.0724,0.21704 -0.25266,0.20543 -0.64846,-0.0417 -0.5753,-0.35928 -1.4121,-0.20403 -1.4121,0.26199 0,0.15008 0.14883,0.27553 0.33073,0.27877 0.1819,0.003 0.61809,0.22679 0.96931,0.49679 l 0.63857,0.49091 -0.52061,0.8914 c -0.67447,1.15485 -1.14334,1.21742 -2.89782,0.38672 -1.67028,-0.79084 -3.42876,-0.88924 -5.13476,-0.28733 -0.61868,0.21828 -1.40755,0.39687 -1.75306,0.39687 -0.3455,0 -0.62819,0.15005 -0.62819,0.33344 0,0.18338 -0.31154,0.66941 -0.69231,1.08005 l -0.69231,0.74662 0.89075,0.9204 c 0.76799,0.79356 2.78739,1.94658 3.40924,1.94658 0.11124,0 0.27772,-0.30066 0.36995,-0.66813 0.24094,-0.95998 2.01896,-2.86468 2.35782,-2.52581 0.28041,0.28041 -0.53687,2.1356 -0.94081,2.1356 -0.11243,0 -0.20442,0.2311 -0.20442,0.51355 0,0.28246 -0.13941,0.59972 -0.30981,0.70503 -0.20604,0.12734 -0.12121,0.26126 0.25323,0.39977 0.30967,0.11456 0.88097,0.72003 1.26954,1.34549 0.38856,0.62546 0.88925,1.34653 1.11263,1.60237 0.38094,0.4363 0.43666,0.43754 0.89798,0.0201 0.46249,-0.41854 0.55688,-0.41038 1.582,0.1368 0.5996,0.32004 1.11672,0.54914 1.14917,0.50911 0.0324,-0.04 0.19838,-0.34068 0.36873,-0.6681 0.42746,-0.82158 1.14606,-0.79895 0.93812,0.0295 -0.14416,0.57441 -0.0613,0.63562 1.02619,0.7582 0.69355,0.0782 1.43382,0.36699 1.78918,0.69806 0.75104,0.69971 0.88796,0.70101 1.52745,0.0146 0.56918,-0.61095 0.81061,-1.50175 1.00716,-3.71621 l 0.13209,-1.48821 1.33147,-0.43002 c 1.42801,-0.4612 4.08045,-0.56947 4.67804,-0.19096 0.46067,0.29177 0.1545,0.81928 -0.47551,0.81928 -0.3834,0 -0.50608,0.28625 -0.6277,1.46455 -0.16446,1.59354 0.0142,3.22781 0.37737,3.45228 0.12591,0.0778 0.22892,0.40562 0.22892,0.72845 0,0.32284 0.16442,0.82182 0.36536,1.10887 0.20095,0.28704 0.6919,1.1172 1.09101,1.8448 0.81305,1.48226 1.12011,1.87735 1.3108,1.68665 0.17737,-0.17736 -0.36368,-3.45287 -0.62673,-3.79424 -0.41458,-0.53801 -0.77497,-2.51768 -0.49035,-2.69358 0.5243,-0.32404 1.75485,2.46053 1.77095,4.00742 0.0252,2.41973 2.756,6.15322 5.57238,7.61839 1.56642,0.8149 3.70659,1.24907 3.70659,0.75195 0,-0.1653 -0.11907,-0.30054 -0.26459,-0.30054 -0.14552,0 -0.26458,-0.12426 -0.26458,-0.27613 0,-0.15188 -0.2827,-0.58101 -0.62822,-0.95364 -0.34551,-0.37262 -0.77651,-1.1711 -0.95776,-1.77439 -0.28946,-0.96347 -0.70051,-2.00463 -1.32093,-3.34584 -0.10098,-0.21829 -0.58956,-0.59236 -1.08574,-0.83129 -0.49618,-0.23893 -1.12896,-0.68541 -1.40617,-0.99219 -0.27722,-0.30678 -0.6427,-0.55777 -0.81218,-0.55777 -0.66191,0 -2.59878,-2.78393 -2.90414,-4.1742 -0.29563,-1.34601 0.46398,-1.07896 1.43919,0.50596 0.97556,1.58549 3.44593,4.02498 4.53111,4.47448 0.7255,0.30051 1.42244,1.45428 2.35658,3.90126 0.4281,1.1214 3.02088,4.3022 3.9269,4.8175 0.3838,0.21828 0.75735,0.4564 0.83011,0.52916 0.0728,0.0728 0.83856,0.37042 1.70179,0.66146 1.22107,0.41169 1.67396,0.71804 2.04004,1.37993 0.2588,0.46791 0.36575,0.91552 0.23766,0.99468 -0.39621,0.24488 -1.54303,2.46022 -1.7416,3.36433 -0.17404,0.79239 -0.59759,1.74888 -0.91497,2.06627 -0.0728,0.0728 -0.54902,0.94469 -1.05834,1.93763 -0.50932,0.99293 -1.1344,2.02975 -1.38906,2.30404 -0.25466,0.27429 -0.46302,0.62928 -0.46302,0.78887 0,0.62285 -1.09105,2.64127 -1.56478,2.8948 -0.27509,0.14722 -0.95585,0.8948 -1.51279,1.66127 -0.55694,0.76648 -1.13663,1.51266 -1.2882,1.65818 -0.46082,0.44245 -3.59701,2.51354 -3.80618,2.51354 -0.10763,0 -0.81269,0.29766 -1.56682,0.66146 -0.82566,0.39831 -1.83537,0.66146 -2.53806,0.66146 -1.17224,0 -3.33359,0.91337 -3.33359,1.40875 0,0.14801 0.65838,0.19255 1.59318,0.10778 1.23398,-0.11189 1.68637,-0.0513 2.00653,0.26889 0.88391,0.88391 1.1766,2.66089 0.54269,3.2948 -0.19553,0.19554 -0.68958,0.88865 -1.09789,1.54025 -0.4083,0.65161 -0.82219,1.24427 -0.91975,1.31703 -0.0976,0.0728 -0.66047,0.78714 -1.25091,1.5875 -0.59044,0.80036 -1.38579,1.74385 -1.76744,2.09664 -0.68423,0.63249 -0.94463,1.60753 -0.42933,1.60753 0.14553,0 0.26459,-0.15784 0.26459,-0.35076 0,-0.4169 1.09833,-1.50133 1.52058,-1.50133 0.16271,0 0.37546,-0.25085 0.47277,-0.55745 0.36914,-1.16305 1.86209,-2.61755 2.68675,-2.61755 0.73025,0 0.8464,0.78188 0.14346,0.96571 -0.25746,0.0673 -0.74577,0.52763 -1.08513,1.02289 -0.65832,0.96076 -3.72067,4.09682 -4.00053,4.09682 -0.092,0 -0.43963,-0.25372 -0.77249,-0.56383 -0.85463,-0.79621 -0.57685,-1.82158 0.91001,-3.35908 0.66301,-0.68558 1.34922,-1.49209 1.52492,-1.79223 0.49038,-0.83771 2.11617,-3.05535 2.63455,-3.59364 0.53451,-0.55503 0.60665,-1.55426 0.14552,-2.01539 -0.17462,-0.17462 -0.83729,-0.3175 -1.4726,-0.3175 -1.34246,0 -2.17865,-0.37142 -2.17865,-0.96774 0,-0.30588 -0.0898,-0.34545 -0.33072,-0.14567 -0.29255,0.24262 -7.91115,0.79807 -8.92969,0.65104 -4.2253,-0.60997 -9.24724,-1.18623 -13.53584,-1.5532 -1.65891,-0.14196 -2.2466,-0.0829 -3.24016,0.32577 -0.66752,0.27455 -1.21413,0.58848 -1.21468,0.69762 -5.4e-4,0.10914 -0.15103,0.19843 -0.33442,0.19843 -0.18339,0 -0.64044,0.28467 -1.01566,0.6326 -1.00371,0.93069 -2.29317,1.52704 -3.10025,1.4338 -0.64561,-0.0746 -0.71735,-0.19606 -0.79068,-1.33879 -0.0443,-0.69123 -0.19318,-1.25677 -0.33073,-1.25677 -0.13754,0 -0.25008,0.10615 -0.25008,0.2359 0,0.42098 -1.38152,0.61333 -1.74192,0.24252 -0.27225,-0.28011 -0.26809,-0.54188 0.0218,-1.37234 0.41458,-1.18766 0.0962,-2.61514 -0.45931,-2.05958 -0.35774,0.35774 -1.26017,0.41443 -1.26017,0.0792 0,-0.59881 -1.38665,-1.57066 -2.24103,-1.57066 -0.49438,0 -1.01829,-0.0738 -1.16425,-0.16401 -0.34232,-0.21157 -1.02426,-1.56173 -1.5306,-3.03039 -0.2194,-0.6364 -0.68687,-1.42396 -1.03881,-1.75013 -0.35194,-0.32616 -0.63989,-0.71362 -0.63989,-0.86102 0,-0.1474 -0.16923,-0.40844 -0.37606,-0.58009 -0.30698,-0.25478 -0.35139,-0.21779 -0.24179,0.20133 0.22177,0.84805 -1.50039,1.965 -3.25394,2.11042 -1.89604,0.15723 -2.34893,0.75242 -2.07699,2.7296 0.13742,0.9992 0.37361,1.52806 0.87505,1.95938 0.63856,0.54927 0.69439,0.77896 0.79439,3.26868 l 0.10755,2.67789 h 1.15986 c 0.63791,0 1.15985,0.11907 1.15985,0.26459 0,0.14552 -0.11906,0.26458 -0.26459,0.26458 -0.14552,0 -0.26458,0.30305 -0.26458,0.67345 0,0.63157 0.0617,0.66304 0.99219,0.50606 0.5457,-0.0921 1.20055,-0.22454 1.45521,-0.2944 0.75291,-0.20654 0.56069,0.79247 -0.30003,1.55938 -0.41968,0.37394 -0.98523,0.737 -1.25677,0.8068 -0.40328,0.10366 -0.41266,0.13253 -0.0512,0.1576 0.26594,0.0185 0.56901,0.42658 0.75956,1.02288 0.17439,0.5457 0.39942,1.08297 0.50008,1.19393 0.35875,0.39547 1.85779,-0.14435 2.84787,-1.02555 0.55343,-0.49256 1.09096,-0.89566 1.19452,-0.89578 0.29222,-3.2e-4 2.58984,-2.30175 2.58984,-2.59413 0,-0.14293 0.1786,-0.32841 0.39688,-0.41217 0.83006,-0.31853 0.16321,1.47547 -0.99467,2.67588 -0.6483,0.67211 -0.76002,0.93032 -0.51049,1.17985 0.24953,0.24953 0.40557,0.19646 0.71302,-0.24248 0.71615,-1.02245 4.91607,-4.12968 5.19921,-3.84654 0.2501,0.2501 -0.0695,0.60144 -2.81514,3.0946 -0.43413,0.3942 -0.91466,0.79641 -1.06786,0.89378 -0.15319,0.0974 -0.54619,0.53424 -0.87334,0.9708 -0.96175,1.28341 -4.10204,4.36562 -4.44788,4.36562 -0.17497,0 -0.35782,0.0973 -0.40633,0.2163 -0.13433,0.32945 -3.40509,1.82768 -4.45382,2.04015 -0.50932,0.10319 -1.62469,0.59469 -2.4786,1.09223 -1.51787,0.88441 -1.56812,0.89444 -2.24896,0.44869 -0.38301,-0.25076 -0.91339,-0.73151 -1.17862,-1.06832 -0.26522,-0.33681 -0.64754,-0.61238 -0.8496,-0.61238 -0.29652,0 -3.04528,-2.02796 -3.56297,-2.62866 -0.0728,-0.0844 -0.78555,-0.50278 -1.58397,-0.92968 -0.79843,-0.42691 -1.69995,-1.02131 -2.00338,-1.3209 -0.30343,-0.2996 -1.07892,-1.00191 -1.72331,-1.5607 -0.6444,-0.55879 -1.35022,-1.34537 -1.5685,-1.74794 -0.53203,-0.98121 -1.57181,-2.14049 -2.52916,-2.81983 -0.59134,-0.41963 -1.55195,-0.64222 -3.90188,-0.90414 -1.71458,-0.1911 -3.17869,-0.44661 -3.25359,-0.5678 -0.0749,-0.12119 -0.42426,-0.22035 -0.77636,-0.22035 -0.58659,0 -0.61498,0.0553 -0.3392,0.66056 0.25151,0.55199 0.19647,0.86726 -0.33488,1.91823 -0.34972,0.69172 -0.79302,1.42266 -0.98511,1.62431 -0.2469,0.25918 -0.26673,0.44916 -0.0677,0.64822 0.33437,0.33438 0.71705,0.01 0.85122,-0.72192 0.14061,-0.76686 0.90859,-1.14994 1.52882,-0.7626 0.28202,0.17613 1.23165,0.43601 2.11028,0.57751 0.87863,0.1415 2.02164,0.45853 2.54002,0.70452 0.93411,0.44327 2.51166,2.09425 2.51166,2.62858 0,0.15272 0.32743,0.57638 0.72761,0.94146 1.09187,0.99612 2.71198,2.84102 2.71198,3.08828 0,0.11973 0.26789,0.39281 0.59531,0.60684 0.32742,0.21402 1.13109,0.96964 1.78594,1.67914 0.65484,0.7095 1.99429,2.1379 2.97656,3.17423 0.98227,1.03632 1.78594,1.97297 1.78594,2.08142 0,0.21635 0.67844,1.06426 2.14478,2.68055 0.95312,1.05058 0.95477,1.05116 1.50965,0.53421 0.30552,-0.28464 1.00724,-0.67684 1.55938,-0.87157 0.55215,-0.19473 1.59921,-0.61903 2.32681,-0.94289 0.72761,-0.32386 1.71989,-0.66563 2.20508,-0.7595 0.48519,-0.0939 1.20683,-0.40185 1.60364,-0.68441 0.39681,-0.28255 1.04164,-0.59409 1.43294,-0.6923 0.39131,-0.0982 0.71147,-0.28472 0.71147,-0.41447 0,-0.12974 0.13759,-0.2359 0.30575,-0.2359 0.16817,0 0.69601,-0.29766 1.17297,-0.66146 0.47697,-0.3638 1.04673,-0.66146 1.26613,-0.66146 0.21941,0 0.4725,-0.11906 0.56244,-0.26458 0.0899,-0.14552 0.32637,-0.26458 0.5254,-0.26458 0.37958,0 3.64368,-2.1044 3.79613,-2.4474 0.0485,-0.10914 0.24694,-0.19844 0.44097,-0.19844 0.19403,0 0.39247,-0.0893 0.44097,-0.19843 0.0972,-0.21879 2.53609,-1.91823 2.75283,-1.91823 0.0746,0 0.39853,-0.24723 0.71987,-0.5494 0.80517,-0.75714 2.65208,-1.56899 3.54629,-1.55885 0.70971,0.008 0.71969,0.0254 0.22853,0.39687 -0.47185,0.35689 -0.39658,0.38846 0.92614,0.38846 0.79186,0 2.27313,-0.17653 3.29172,-0.39228 2.4041,-0.50923 2.83781,-0.50559 2.73128,0.0229 -0.15044,0.74629 -2.25267,1.27488 -5.11263,1.28555 -1.45521,0.005 -2.83457,-0.0846 -3.06525,-0.20014 -0.26935,-0.13487 -0.63733,-0.0335 -1.02848,0.28318 l -0.60907,0.49319 0.97746,0.57672 c 0.53761,0.31719 1.19272,0.57671 1.45582,0.57671 0.57474,0 1.86998,0.97064 1.87923,1.40827 0.004,0.17134 0.77753,1.07601 1.71979,2.01038 0.94227,0.93437 1.71321,1.79347 1.71321,1.90911 0,0.35593 1.48014,1.74689 2.32232,2.1824 0.43876,0.22689 1.02983,0.73112 1.31348,1.12051 l 0.51573,0.70799 0.83465,-0.49304 c 0.45906,-0.27117 0.83465,-0.57841 0.83465,-0.68275 0,-0.10434 0.24033,-0.26598 0.53406,-0.35921 0.29373,-0.0932 0.91881,-0.52573 1.38906,-0.96112 1.45208,-1.34441 2.28295,-1.55087 6.24133,-1.55087 3.34158,0 3.70737,-0.0502 5.06092,-0.69492 0.80245,-0.38221 2.08408,-0.99172 2.84807,-1.35447 1.31739,-0.62551 1.71179,-1.1595 1.12448,-1.52248 -0.36342,-0.22461 -0.32529,-1.65961 0.0738,-2.77813 0.6072,-1.70171 2.17118,-4.74723 2.50589,-4.87964 0.4937,-0.19531 0.41513,1.19301 -0.12787,2.2593 -1.00186,1.96738 -1.70599,4.30427 -1.47685,4.9014 0.27575,0.71858 0.61253,0.34583 0.61253,-0.67794 0,-0.5735 0.10805,-1.1095 0.24011,-1.19112 0.13206,-0.0816 0.45224,-0.83279 0.7115,-1.66926 0.57822,-1.86557 1.27636,-3.16187 2.04111,-3.78994 0.57194,-0.46971 0.5844,-0.46349 1.00076,0.49985 0.32291,0.74713 0.39189,1.54838 0.29467,3.42287 -0.11105,2.14137 -0.0728,2.4474 0.30601,2.4474 0.37097,0 0.4367,-0.3881 0.4593,-2.71198 0.0145,-1.49159 0.10708,-3.00081 0.20573,-3.35382 0.42005,-1.50315 1.51182,-0.70318 1.95925,1.43559 0.18266,0.87312 0.47876,1.82562 0.65801,2.11667 0.26675,0.4331 0.29682,0.0969 0.16565,-1.85209 l -0.16027,-2.38125 1.34847,-2.64583 c 0.74166,-1.45521 1.3495,-2.96199 1.35075,-3.34841 0.003,-0.90086 1.15493,-2.27313 3.98297,-4.74448 3.51288,-3.06982 5.01515,-4.53675 5.01515,-4.89721 0,-0.18313 0.26789,-0.54995 0.59531,-0.81518 0.6549,-0.53049 2.81737,-3.05751 4.03529,-4.71556 0.42756,-0.58208 0.87158,-1.17739 0.98669,-1.32291 0.11511,-0.14552 0.45477,-0.59201 0.75479,-0.99219 0.30002,-0.40018 0.71544,-0.7276 0.92316,-0.7276 0.20772,0 0.37767,-0.16459 0.37767,-0.36575 0,-0.20116 0.47625,-0.842 1.05834,-1.42408 0.84611,-0.84612 1.05833,-1.25099 1.05833,-2.01909 0,-0.52842 -0.11147,-1.16751 -0.24772,-1.42019 -0.13624,-0.25269 -0.56729,-1.17381 -0.95788,-2.04694 -0.39059,-0.87312 -1.17209,-2.54 -1.73666,-3.70416 -0.56457,-1.16417 -1.02649,-2.34667 -1.02649,-2.62777 0,-0.72175 -1.29052,-4.28857 -2.06472,-5.70661 -0.61474,-1.12595 -2.51202,-3.175 -2.93984,-3.175 -0.10873,0 -0.36664,-0.3238 -0.57313,-0.71956 -0.44306,-0.84918 -2.24585,-2.72002 -2.62108,-2.72002 -0.14369,0 -0.57821,-0.50602 -0.96558,-1.12448 -0.38738,-0.61846 -0.80559,-1.16417 -0.92936,-1.21267 -0.25969,-0.10178 -0.30107,-1.3902 -0.0644,-2.00684 0.23415,-0.61019 0.63315,-0.51172 0.63315,0.15627 0,1.05588 0.91453,2.53811 2.03651,3.30068 0.61075,0.41511 1.38466,1.10589 1.71979,1.53506 0.61332,0.78542 1.25518,1.43539 3.49346,3.53761 0.6693,0.62861 1.21691,1.36573 1.21691,1.63803 0,0.27231 0.11867,0.56846 0.26372,0.6581 0.45507,0.28125 1.59865,3.0445 1.76637,4.26808 0.0883,0.64397 0.26291,1.23416 0.38811,1.31154 0.12519,0.0774 0.23142,0.46108 0.23604,0.85267 0.005,0.3916 0.18322,0.94311 0.39688,1.22558 0.21365,0.28248 0.38846,0.67489 0.38846,0.87202 0,0.19714 0.52859,1.45431 1.17464,2.79371 1.59394,3.30457 1.70088,4.03868 0.81856,5.61907 -0.38554,0.69057 -1.20009,1.86002 -1.81011,2.59878 -0.61002,0.73875 -1.1995,1.4663 -1.30995,1.61676 -0.11045,0.15046 -0.676,0.88593 -1.25677,1.63437 -0.58078,0.74843 -1.05595,1.49257 -1.05595,1.65364 0,0.16107 -0.11907,0.29285 -0.26459,0.29285 -0.14552,0 -0.26458,0.14232 -0.26458,0.31625 0,0.17394 -0.30786,0.63759 -0.68413,1.03034 l -0.68414,0.71408 0.93608,0.30893 c 0.51484,0.16991 1.00265,0.51871 1.08403,0.77511 0.0814,0.2564 0.35921,0.69552 0.61739,0.97584 0.6438,0.69897 1.69224,2.95796 1.89431,4.08154 0.0934,0.51921 0.18366,-0.50101 0.20549,-2.32228 0.0299,-2.49778 0.14339,-3.44534 0.49099,-4.10104 0.24862,-0.469 0.68132,-1.29199 0.96156,-1.82888 0.68508,-1.31249 1.20354,-1.73778 1.4226,-1.16694 0.0908,0.23652 0.049,0.57735 -0.0927,0.7574 -0.14174,0.18005 -0.34157,0.67729 -0.44407,1.10497 -0.1025,0.42769 -0.40145,1.08253 -0.66432,1.45521 -0.50933,0.72208 -0.75795,1.82733 -0.98566,4.38177 l -0.14152,1.5875 1.7462,-1.81548 c 0.96041,-0.99851 1.7462,-1.98618 1.7462,-2.19484 0,-0.52749 1.20261,-1.67823 1.75389,-1.67823 0.39566,0 0.37997,0.0799 -0.12027,0.61237 -0.31641,0.3368 -0.57528,0.75352 -0.57528,0.92604 0,0.17252 -0.10418,0.31368 -0.23152,0.31368 -0.12733,0 -0.29796,0.32742 -0.37919,0.7276 -0.0812,0.40018 -0.72118,1.32626 -1.42213,2.05795 -1.57554,1.64464 -2.46376,2.71338 -2.46931,2.97115 -0.002,0.10803 -0.35951,0.59951 -0.79375,1.09217 -0.43424,0.49266 -0.7898,0.96891 -0.79014,1.05833 -3.4e-4,0.0894 -0.35918,0.57931 -0.79742,1.08863 -0.43824,0.50932 -1.16939,1.64042 -1.62478,2.51354 -0.45539,0.87313 -1.10858,2.00209 -1.45154,2.50882 -0.34296,0.50672 -0.62356,1.07227 -0.62356,1.25677 0,0.1845 -0.10518,0.33545 -0.23374,0.33545 -0.12855,0 -0.29508,0.26789 -0.37006,0.59532 -0.075,0.32742 -0.28526,1.01203 -0.46729,1.52135 -0.18203,0.50932 -0.4111,1.16417 -0.50904,1.45521 -0.21046,0.62537 -1.13739,2.66213 -2.47942,5.44811 -0.53214,1.1047 -0.96753,2.28346 -0.96753,2.61947 0,0.33601 -0.27881,1.21811 -0.61958,1.96021 -1.0979,2.39096 -1.81124,4.2284 -2.16732,5.58263 -0.19132,0.7276 -0.47597,1.73885 -0.63256,2.24721 -0.60507,1.96433 -0.0831,3.89619 1.92635,7.12899 0.67275,1.08232 1.29716,2.36224 1.38759,2.84427 0.0904,0.48202 0.27022,0.8764 0.39955,0.8764 0.12932,0 0.23514,0.17859 0.23514,0.39688 0,0.21828 0.0893,0.39732 0.19843,0.39786 0.10914,5.5e-4 0.42201,0.5661 0.69527,1.25677 0.27326,0.69068 0.76375,1.8511 1.08999,2.5787 0.32623,0.7276 0.74053,1.8587 0.92066,2.51354 0.38165,1.38742 0.90104,2.76294 1.76714,4.67997 0.3411,0.75497 0.62017,1.47894 0.62017,1.60881 0,0.12987 0.29716,0.82185 0.66035,1.53773 0.3632,0.71589 0.66085,1.50295 0.66146,1.74902 6.1e-4,0.24608 0.12017,0.52099 0.26569,0.61093 0.14552,0.0899 0.26459,0.42962 0.26459,0.75485 0,0.32523 0.72025,2.01138 1.60057,3.747 0.98738,1.94671 1.65147,3.61476 1.73343,4.35399 0.0731,0.65908 0.23747,1.61505 0.36532,2.12437 0.72338,2.88187 0.88141,4.7733 0.55254,6.61354 -0.18198,1.01827 -0.43918,1.91835 -0.57157,2.00017 -0.13239,0.0818 -0.24071,0.3647 -0.24071,0.62862 0,0.4808 -2.14797,2.66392 -2.62102,2.66392 -0.13838,0 -0.41158,0.15998 -0.60712,0.35552 -0.51709,0.51709 -2.53544,1.76115 -2.85728,1.76115 -0.1513,0 -0.74662,0.29765 -1.32291,0.66145 -0.5763,0.36381 -1.28129,0.66146 -1.56663,0.66146 -0.28535,0 -0.5924,0.11906 -0.68233,0.26459 -0.0899,0.14552 -0.36816,0.26458 -0.61828,0.26458 -0.53215,0 -1.3661,0.89019 -1.3661,1.45823 0,0.21662 0.13197,0.39385 0.29327,0.39385 0.1807,0 0.22954,0.2539 0.12725,0.66146 -0.18968,0.75574 -0.027,0.83494 0.54332,0.26458 0.52733,-0.52732 1.682,-0.52162 1.682,0.008 0,0.22285 -0.19049,0.47827 -0.4233,0.56761 -0.44124,0.16932 -1.69337,1.33049 -1.69337,1.57035 0,0.0758 0.32742,0.10017 0.7276,0.0541 0.52097,-0.0599 0.75162,-0.25279 0.81215,-0.67903 0.0612,-0.43088 0.26218,-0.59531 0.72761,-0.59531 0.35368,0 0.64306,-0.1 0.64306,-0.22212 0,-0.39445 1.21337,-0.80375 1.61186,-0.54372 0.29654,0.19351 0.17524,0.42737 -0.59481,1.14669 -0.53203,0.49698 -0.90645,0.96447 -0.83205,1.03887 0.0744,0.0744 1.46219,0.0768 3.08398,0.005 2.72813,-0.12012 4.66852,-0.58364 4.66852,-1.11523 0,-0.10693 0.56554,-0.35029 1.25677,-0.54082 0.69122,-0.19052 1.73302,-0.52552 2.3151,-0.74443 1.2341,-0.46412 5.69116,-0.53663 6.8082,-0.11076 0.62645,0.23883 0.76609,0.19733 1.04771,-0.31137 0.41756,-0.75424 0.41453,-4.59316 -0.004,-5.01164 -0.17124,-0.17123 -0.31133,-0.63135 -0.31133,-1.02248 0,-0.39112 -0.42011,-1.32187 -0.93357,-2.06831 -0.51347,-0.74644 -0.99937,-1.74207 -1.07978,-2.2125 -0.0804,-0.47043 -0.24103,-1.09346 -0.35694,-1.3845 -0.54281,-1.36307 -1.26356,-5.53807 -1.59865,-9.26042 -0.1179,-1.30968 -0.35244,-3.43911 -0.52118,-4.73205 -0.21399,-1.63956 -0.22289,-2.43473 -0.0294,-2.6282 0.58048,-0.58047 0.82763,0.43476 1.34091,5.50817 0.1325,1.30969 0.36612,2.79718 0.51915,3.30554 0.15303,0.50837 0.27824,1.28823 0.27824,1.73303 0,0.44479 0.0998,0.92183 0.22173,1.06008 0.12195,0.13824 0.44035,1.44197 0.70754,2.89718 0.2672,1.45521 0.62107,2.79757 0.78637,2.98303 0.24079,0.27014 0.95508,0.27665 3.59194,0.0327 3.74583,-0.34652 13.74592,-0.17577 14.84958,0.25356 0.64854,0.25228 0.72627,0.43846 0.89408,2.14152 l 0.1838,1.86522 h 3.66998 3.66998 l 0.0117,-0.99219 c 0.0163,-1.38513 0.63345,-3.58848 1.04338,-3.72513 0.34078,-0.11359 0.29754,1.22249 -0.16357,5.05404 l -0.15197,1.26276 -4.66924,-0.0721 -4.66923,-0.0721 0.0111,-2.21683 0.011,-2.21684 -1.99542,0.22362 c -2.41572,0.27071 -13.50383,0.31414 -14.90084,0.0584 l -0.99916,-0.18294 0.50071,0.7121 c 0.27539,0.39166 0.56817,1.06929 0.65062,1.50586 0.0825,0.43656 0.34213,1.44859 0.57706,2.24896 0.52875,1.80135 0.33073,4.01752 -0.46444,5.19768 -0.60371,0.89601 -1.07198,1.03964 -4.55729,1.39785 -1.75121,0.17998 -2.87134,0.48567 -7.51577,2.05112 -1.50222,0.50634 -2.24317,0.62029 -3.175,0.48829 -1.71621,-0.24313 -3.50538,-0.2592 -4.1259,-0.0371 -0.29104,0.10419 -0.65415,0.0643 -0.80691,-0.0885 z m -4.00575,-1.88649 c 0.10802,-0.41309 0.0444,-0.51192 -0.25536,-0.39688 -0.21957,0.0843 -0.44901,0.15319 -0.50987,0.15319 -0.0609,0 -0.11065,0.1786 -0.11065,0.39688 0,0.59994 0.71147,0.47551 0.87588,-0.15319 z m -2.38672,-0.50827 c 0.0761,-0.29104 0.0305,-0.52917 -0.10143,-0.52917 -0.1319,0 -0.23981,0.23813 -0.23981,0.52917 0,0.29104 0.0456,0.52917 0.10143,0.52917 0.0558,0 0.16371,-0.23813 0.23981,-0.52917 z m -1.19831,-1.80732 c -0.65298,-0.11178 -0.84013,0.0815 -0.62409,0.64448 0.15788,0.41143 0.21053,0.40702 0.65355,-0.0547 0.46641,-0.48614 0.46547,-0.50501 -0.0295,-0.58974 z m 3.03349,0.48539 c 0.74512,-0.4543 0.78567,-0.52832 0.28987,-0.52917 -0.49857,-8.5e-4 -1.40796,0.60884 -1.40796,0.94396 0,0.20833 0.24536,0.11731 1.11809,-0.41479 z m -24.40142,-40.22152 c 0.80036,-0.12309 1.93146,-0.34466 2.51354,-0.49238 0.58208,-0.14772 1.74993,-0.44457 2.59521,-0.65966 0.84529,-0.2151 1.79779,-0.55874 2.11667,-0.76365 0.31888,-0.20491 1.23463,-0.59162 2.03499,-0.85935 1.36606,-0.45697 3.87359,-1.48222 4.76251,-1.94724 2.90849,-1.52152 2.91638,-1.52501 3.96875,-1.75615 0.49977,-0.10977 1.09117,-0.29349 1.31423,-0.40827 0.22305,-0.11479 0.85204,-0.40289 1.39774,-0.64023 1.13896,-0.49537 1.17023,-0.60789 0.49673,-1.78772 -0.66018,-1.1565 -1.23274,-2.28267 -1.65193,-3.24919 -0.18934,-0.43657 -0.46454,-0.95641 -0.61155,-1.15522 -0.39587,-0.53536 -0.93668,-2.19656 -0.94124,-2.89123 -0.002,-0.33377 -0.3016,-0.92783 -0.66536,-1.32012 -0.36375,-0.39229 -0.84,-1.0897 -1.05833,-1.54979 -0.49548,-1.04414 -0.5164,-3.2224 -0.0363,-3.77844 0.19837,-0.22974 0.57523,-1.01302 0.83748,-1.74062 0.26225,-0.72761 0.5762,-1.43603 0.69767,-1.57427 0.12147,-0.13825 0.22086,-0.61609 0.22086,-1.06187 0,-0.48798 0.36849,-1.35769 0.92604,-2.1856 0.50932,-0.7563 0.92604,-1.47121 0.92604,-1.5887 0,-0.11748 0.29765,-0.65164 0.66146,-1.18702 0.51326,-0.75534 0.66146,-1.30942 0.66146,-2.4731 v -1.49968 l -0.72108,0.47247 c -0.39659,0.25985 -1.13005,0.86966 -1.62992,1.35513 -0.99805,0.96929 -2.23912,1.67285 -2.95089,1.67285 -0.25195,0 -0.65312,0.29765 -0.89149,0.66146 -0.47402,0.72343 -0.96007,0.82512 -1.70886,0.35749 -0.37422,-0.2337 -0.67916,-0.21877 -1.31932,0.0646 -0.45794,0.2027 -0.83261,0.4483 -0.83261,0.54577 0,0.22098 -2.81363,1.81864 -5.95313,3.38037 l -2.38125,1.18455 -3.95587,-0.05 c -2.17573,-0.0275 -4.0212,0.038 -4.10104,0.14553 -0.30068,0.40496 -3.33918,2.5923 -4.21848,3.03678 -1.24075,0.62719 -1.48473,0.59233 -2.47452,-0.35355 -0.46995,-0.44912 -1.21301,-0.97091 -1.65123,-1.15953 -0.9248,-0.39805 -1.50035,-0.93896 -2.78115,-2.61378 -0.50932,-0.66601 -1.0451,-1.21797 -1.19062,-1.22659 -0.30671,-0.0182 -1.7198,-1.94292 -1.7198,-2.34253 0,-0.25165 -2.61732,-1.63058 -3.09497,-1.63058 -0.11952,0 -0.36354,-0.23413 -0.54225,-0.52029 -0.31596,-0.50595 -0.36331,-0.49683 -1.71729,0.33073 -0.7658,0.46806 -1.54842,1.06005 -1.73915,1.31555 -0.19074,0.25549 -0.7084,0.65152 -1.15036,0.88007 -0.44196,0.22855 -2.44342,2.06052 -4.4477,4.07105 -2.00428,2.01054 -3.98693,3.87462 -4.40589,4.14242 -0.41897,0.26779 -0.90781,0.68372 -1.08632,0.92428 -0.1785,0.24057 -0.62499,0.51279 -0.99218,0.60495 -0.3672,0.0922 -0.66764,0.28436 -0.66764,0.42711 0,0.14275 -0.20559,0.25954 -0.45687,0.25954 -0.41843,0 0.526,0.9599 8.3992,8.53673 3.11143,2.99431 5.79903,5.33594 6.36433,5.54506 0.28422,0.10514 0.66407,0.3117 0.84412,0.45903 1.96254,1.60595 4.20308,2.92168 4.97527,2.92168 0.26412,0 0.55381,0.11907 0.64375,0.26459 0.0899,0.14552 0.36485,0.26508 0.61092,0.26569 0.24608,6.1e-4 1.03839,0.30092 1.7607,0.66737 0.7223,0.36644 1.76674,0.73877 2.32096,0.82739 0.55423,0.0886 1.07161,0.26456 1.14973,0.39097 0.0781,0.1264 0.46839,0.22983 0.86726,0.22983 0.39887,0 0.83833,0.11192 0.97657,0.24871 0.48201,0.47693 8.11671,0.67424 10.7024,0.27659 z m 23.78879,-8.88007 c 0.11334,-0.11333 -0.0668,-0.48706 -1.18646,-2.46159 -0.73146,-1.28992 -1.18322,-4.19493 -0.6989,-4.49426 0.20611,-0.12738 0.2128,-1.1197 0.0235,-3.48014 -0.14567,-1.81607 -0.4087,-5.38554 -0.58451,-7.93216 -0.18863,-2.73233 -0.39489,-4.35908 -0.5032,-3.96875 -0.10096,0.3638 -0.60436,1.31229 -1.11867,2.10774 -0.5781,0.89412 -0.9351,1.77203 -0.9351,2.29949 0,0.46927 -0.11907,0.92679 -0.26459,1.01673 -0.14552,0.0899 -0.26602,0.42438 -0.26777,0.74322 -0.002,0.31883 -0.29941,1.09786 -0.66146,1.73118 -0.86682,1.5163 -0.83034,2.39737 0.16634,4.01718 0.45353,0.73708 0.92407,1.72114 1.04565,2.18678 0.37182,1.42411 0.89681,2.83101 1.05638,2.83101 0.0832,0 0.67918,1.3135 1.32432,2.91888 1.11587,2.77671 1.20519,2.91098 1.83392,2.75662 0.3635,-0.0892 0.71026,-0.21161 0.77058,-0.27193 z m -62.97978,-13.34107 c 0.20832,0 0.7878,-0.47786 1.28773,-1.06192 0.49993,-0.58405 1.44785,-1.43267 2.10648,-1.88582 1.42672,-0.98162 3.94918,-3.3704 2.99868,-2.83977 -0.35818,0.19996 -0.81956,0.51878 -1.0253,0.70849 -0.64496,0.59474 -4.31229,2.16861 -5.05315,2.16861 -0.24603,0 -1.06434,0.29765 -1.81847,0.66146 -0.75413,0.3638 -1.48376,0.66145 -1.6214,0.66145 -0.54278,0 -0.5738,0.59631 -0.0561,1.0786 0.30044,0.2799 0.61926,0.5089 0.7085,0.5089 0.0892,0 0.34131,0.17906 0.56017,0.39792 0.35416,0.35416 0.46037,0.35416 0.96601,0 0.31246,-0.21886 0.73855,-0.39792 0.94687,-0.39792 z m 62.47432,-0.52916 c 0,-0.27387 0.11906,-0.57152 0.26459,-0.66146 0.14552,-0.0899 0.26458,-0.33183 0.26458,-0.53755 0,-0.20572 0.28851,-1.00236 0.64114,-1.77032 0.35263,-0.76797 0.8355,-2.11067 1.07304,-2.9838 0.41617,-1.52969 0.94524,-2.93084 1.47364,-3.9026 0.57239,-1.05269 0.75687,-1.43911 1.16838,-2.4474 0.23756,-0.58208 0.54523,-1.26508 0.6837,-1.51776 0.13847,-0.25269 0.25177,-0.66543 0.25177,-0.9172 0,-0.69976 0.84828,-2.80725 1.30959,-3.25358 0.22561,-0.21828 0.64718,-0.87312 0.93683,-1.45521 0.28965,-0.58208 0.58764,-1.11786 0.66221,-1.19062 0.0746,-0.0728 0.59922,-0.84667 1.1659,-1.71979 0.56668,-0.87313 1.36611,-2.01643 1.77651,-2.54067 l 0.74619,-0.95317 -0.43689,-1.56037 c -0.24029,-0.85821 -0.50427,-1.61991 -0.58664,-1.69267 -0.0824,-0.0728 -0.50693,-0.84667 -0.9435,-1.71979 -0.99038,-1.98078 -1.24337,-2.24896 -2.1215,-2.24896 -0.68729,0 -1.68792,0.87249 -1.70615,1.48766 -0.011,0.37057 -2.27559,2.48109 -2.66224,2.48109 -0.15621,0 -0.89026,0.65734 -1.63124,1.46075 -0.74098,0.80341 -1.7767,1.66019 -2.30159,1.90395 -0.5249,0.24376 -1.05627,0.61042 -1.18082,0.8148 -0.12456,0.20437 -0.45198,0.56468 -0.72761,0.80068 -0.32644,0.27951 -0.50114,0.775 -0.50114,1.42139 0,1.00374 -1.06215,3.63803 -1.83075,4.54053 -0.30613,0.35945 -0.40592,0.98628 -0.37236,2.3389 0.0252,1.01632 0.10682,1.90882 0.18133,1.98333 0.0745,0.0745 0.4078,-0.0553 0.74063,-0.28838 0.33283,-0.23313 0.81678,-0.42387 1.07544,-0.42387 0.39305,0 0.4703,-0.23645 0.4703,-1.43959 0,-0.79178 -0.11907,-1.51318 -0.26459,-1.60311 -0.35294,-0.21813 -0.34092,-1.98438 0.0135,-1.98438 0.15295,0 0.47628,0.44648 0.71851,0.99219 0.36202,0.81554 0.47555,2.40532 0.6377,8.92969 0.20611,8.29282 0.37546,10.54835 0.77354,10.30232 0.1309,-0.0809 0.238,-0.37117 0.238,-0.64503 z m -11.83047,-9.93134 c 0.98716,-0.24776 1.16126,-0.67956 1.30299,-3.23168 0.11801,-2.12491 -0.0922,-2.86367 -0.43085,-1.51431 -0.16833,0.67067 -1.27477,3.29626 -1.7516,4.15655 -0.30352,0.5476 -0.34956,1.55459 -0.0495,1.0829 0.10837,-0.17036 0.5264,-0.39242 0.92897,-0.49346 z m 5.21589,-1.97875 c 0,-0.11916 -0.12674,-0.2589 -0.28165,-0.31053 -0.15491,-0.0516 -0.35837,-0.62711 -0.45214,-1.27882 l -0.17049,-1.18494 -0.1924,1.05834 c -0.10581,0.58208 -0.27314,1.3843 -0.37183,1.78271 -0.17648,0.71239 -0.16582,0.71962 0.64453,0.43713 0.45319,-0.15798 0.82398,-0.38473 0.82398,-0.50389 z m -67.6787,-3.23731 c -1.89816,-1.75637 -2.10959,-2.02193 -2.31014,-2.90151 -0.0901,-0.39528 -0.64937,-1.10966 -1.24275,-1.5875 -0.59337,-0.47784 -1.47423,-1.20545 -1.95745,-1.61691 -0.80513,-0.68558 -0.92509,-0.71553 -1.43503,-0.35836 -0.59697,0.41813 -0.31419,0.81799 0.38794,0.54856 0.63488,-0.24363 1.3018,0.39443 0.9081,0.86881 -0.23446,0.28251 -0.23525,0.44728 -0.003,0.67927 0.16846,0.16846 0.30629,0.5206 0.30629,0.78254 0,0.26193 0.0893,0.47639 0.19844,0.47657 0.21634,3.5e-4 1.09357,0.72229 3.04982,2.50996 0.69514,0.63523 1.61651,1.23241 2.04749,1.32707 0.43098,0.0947 0.85152,0.28201 0.93454,0.41634 0.083,0.13432 0.25585,0.24422 0.38407,0.24422 0.12822,0 -0.44241,-0.62507 -1.26806,-1.38906 z m -21.24335,-3.2053 c -0.0606,-0.053 -0.74574,-0.17759 -1.52245,-0.27677 -0.95742,-0.12225 -1.35712,-0.0912 -1.24116,0.0965 0.0941,0.15222 0.77918,0.27677 1.52245,0.27677 0.74327,0 1.30179,-0.0434 1.24116,-0.0965 z m -0.35791,-0.68327 c 0.31299,0.25977 0.37996,0.19875 0.37996,-0.34625 0,-0.65966 -0.003,-0.66037 -0.92604,-0.24185 -0.50933,0.23085 -0.92605,0.51818 -0.92605,0.6385 0,0.12032 0.24574,0.0872 0.54608,-0.0735 0.40534,-0.21694 0.64401,-0.21099 0.92605,0.0231 z m -1.2792,-1.4968 c -0.0879,-0.0879 -0.31612,-0.0973 -0.50712,-0.0209 -0.21106,0.0845 -0.14837,0.14716 0.15985,0.15985 0.27892,0.0115 0.43519,-0.051 0.34727,-0.13896 z m 1.92374,-0.6339 c 0.63169,-0.2023 0.62346,-0.21302 -0.18282,-0.23821 -0.46436,-0.0145 -0.91787,0.0927 -1.0078,0.23821 -0.18805,0.30427 0.24055,0.30427 1.19062,0 z m 12.56771,-1.05833 c -0.0899,-0.14552 -0.30532,-0.26276 -0.47864,-0.26053 -0.18934,0.002 -0.1567,0.10642 0.0818,0.26053 0.5083,0.32848 0.5999,0.32848 0.39688,0 z m -1.52568,-0.68549 c 0.38482,-0.38481 0.36796,-0.41317 -0.19661,-0.33073 -0.33963,0.0496 -0.66653,0.239 -0.72643,0.4209 -0.15386,0.4672 0.42193,0.41095 0.92304,-0.0902 z m 36.5645,-0.58752 0.78807,-0.47925 -0.76557,-0.45224 c -0.42107,-0.24873 -0.84038,-0.68791 -0.9318,-0.97595 -0.0914,-0.28805 -0.36656,-0.51432 -0.61141,-0.50283 -0.27531,0.0129 -0.31899,0.0718 -0.11446,0.15434 0.20164,0.0814 0.33072,0.64119 0.33072,1.43432 0,1.43404 0.14609,1.52605 1.30445,0.82161 z m -3.15122,-1.7761 c 0.50776,-0.61182 0.20677,-0.67419 -0.49764,-0.10312 -0.42551,0.34497 -0.49909,0.50639 -0.23084,0.50639 0.21659,0 0.5444,-0.18147 0.72848,-0.40327 z m 4.66591,-0.34516 c -0.24084,-0.26612 -0.43789,-0.62331 -0.43789,-0.79375 0,-0.17045 -0.12812,-0.3099 -0.28473,-0.3099 -0.19222,0 -0.2352,-0.68766 -0.13229,-2.11667 0.0838,-1.16416 0.22087,-3.06368 0.3045,-4.22116 l 0.15205,-2.10449 -2.68603,-2.65801 c -1.47732,-1.4619 -2.85705,-2.658 -3.06606,-2.658 -0.20902,0 -0.61654,-0.11907 -0.90561,-0.26459 l -1.05115,-0.52916 c -0.28907,-0.14552 -1.24157,-0.26459 -2.11667,-0.26459 -0.88434,0 -1.59109,0.11753 -1.59109,0.26459 0,0.14552 -0.18086,0.26458 -0.40191,0.26458 -0.30439,0 -0.35956,0.17657 -0.22737,0.7276 0.23344,0.97305 0.23892,0.9762 1.08744,0.62473 0.61581,-0.25508 0.91636,-0.21955 1.79442,0.21209 1.50572,0.7402 6.21409,5.85831 6.21409,6.75487 0,0.23053 0.11355,0.62588 0.25235,0.87857 0.33862,0.6165 1.07056,3.76486 1.07056,4.60489 0,0.84714 1.11173,2.07225 1.88046,2.07225 0.54786,0 0.55655,-0.029 0.14493,-0.48385 z m -18.95872,-0.94305 c 0,-0.20271 -0.17859,-0.4371 -0.39687,-0.52086 -0.39782,-0.15266 -0.5604,0.37313 -0.22049,0.71304 0.29666,0.29665 0.61736,0.19682 0.61736,-0.19218 z m 14.70152,-2.24122 c -0.37564,-0.37564 -0.41402,-0.35532 -0.41402,0.2192 0,0.34827 0.14883,1.04999 0.33073,1.55936 l 0.33073,0.92614 0.0833,-1.14534 c 0.0565,-0.77646 -0.05,-1.27869 -0.33073,-1.55936 z m -16.64296,1.48531 c -0.0734,-0.1819 -0.13345,-0.0331 -0.13345,0.33073 0,0.3638 0.0601,0.51263 0.13345,0.33073 0.0734,-0.18191 0.0734,-0.47956 0,-0.66146 z m 58.82686,-2.03103 c 1.57517,-0.98533 2.91042,-2.19474 2.91042,-2.63615 0,-0.15187 0.38757,-0.66704 0.86126,-1.14484 0.95898,-0.96726 2.18112,-2.83584 3.16394,-4.83746 0.80707,-1.64368 1.34871,-2.60578 1.56403,-2.77813 0.0909,-0.0728 0.41781,-0.6058 0.72645,-1.18454 l 0.56116,-1.05225 -1.18946,-1.13978 c -0.65421,-0.62688 -1.18947,-1.24395 -1.18947,-1.37127 0,-0.12732 -0.35719,0.0819 -0.79375,0.46501 -0.43656,0.38308 -0.79375,0.89354 -0.79375,1.13435 0,0.24082 -0.17859,0.58608 -0.39687,0.76723 -0.21828,0.18116 -0.39688,0.44018 -0.39688,0.5756 0,0.13543 -0.29765,0.68427 -0.66146,1.21965 -0.3638,0.53538 -0.66145,1.20522 -0.66145,1.48853 0,1.26194 -1.19359,4.05115 -2.44333,5.70962 -0.47518,0.6306 -1.10209,1.53015 -1.39313,1.999 -1.14545,1.84524 -2.00006,3.0306 -2.18613,3.03219 -0.10732,9.2e-4 -0.39434,0.35182 -0.63782,0.77978 l -0.44269,0.7781 0.97186,-0.44718 c 0.53452,-0.24594 1.6267,-0.8568 2.42707,-1.35746 z m -44.71459,0.9147 c 0,-0.39402 -1.16145,-2.25135 -1.70146,-2.72088 -0.55987,-0.4868 -2.92624,-1.91748 -3.17154,-1.91748 -0.0505,0 0.0771,0.44648 0.28347,0.99219 0.20635,0.5457 0.44146,1.18954 0.52245,1.43074 0.15974,0.47575 0.77084,0.7497 2.215,0.99296 0.61451,0.10351 1.01391,0.35625 1.18722,0.7513 0.22712,0.51768 0.66486,0.8279 0.66486,0.47117 z m 1.32292,-1.72794 c 0.29104,-0.29104 0.76729,-0.52917 1.05833,-0.52917 0.91806,0 0.54784,-1.49059 -0.70455,-2.83667 -0.41286,-0.44375 -1.34597,-1.51485 -2.07357,-2.38023 -0.7276,-0.86538 -1.76657,-1.89675 -2.3088,-2.29193 -0.97215,-0.7085 -1.0027,-0.71281 -2.19206,-0.30901 -1.62667,0.55227 -1.66393,0.54109 -1.66393,-0.49899 0,-1.31918 -0.18921,-1.47275 -1.81448,-1.47275 -1.64079,0 -3.98502,0.85851 -2.73636,1.00211 1.18303,0.13605 2.57823,0.88802 2.88114,1.55282 0.16286,0.35745 0.40967,0.57973 0.54846,0.49395 0.13878,-0.0858 0.50768,0.4376 0.81976,1.16306 0.62007,1.44138 1.0391,1.79113 3.02669,2.52627 0.7276,0.26912 1.38244,0.56549 1.4552,0.6586 0.0728,0.0931 0.51925,0.43957 0.99219,0.76989 0.47295,0.33032 0.8599,0.77107 0.8599,0.97944 0,0.20837 0.11679,0.37886 0.25954,0.37886 0.14275,0 0.33425,0.29765 0.42556,0.66146 0.20072,0.79975 0.4691,0.83017 1.16698,0.13229 z m -15.47798,-2.91058 c 0.26331,-0.29095 0.6602,-0.52901 0.88197,-0.52901 0.56566,0 2.0906,-0.50738 3.41737,-1.13704 0.95615,-0.45377 1.12447,-0.65302 1.12447,-1.33112 0,-0.84727 -0.64045,-1.76517 -1.23163,-1.76517 -0.19572,0 -0.35587,-0.11906 -0.35587,-0.26458 0,-0.14552 -0.51732,-0.26459 -1.14961,-0.26459 -0.8136,0 -1.28959,0.15467 -1.62851,0.52917 -0.46338,0.51203 -0.46213,0.52917 0.0385,0.52917 0.72592,0 1.95811,0.60973 1.85765,0.91924 -0.046,0.14178 -0.4695,0.33669 -0.94107,0.43314 -1.73646,0.35514 -3.20263,2.53707 -3.18041,4.73303 l 0.012,1.19063 0.33815,-1.25693 c 0.18599,-0.69132 0.55359,-1.49499 0.8169,-1.78594 z m 70.17129,-13.69203 c 0.10376,-0.66917 0.0389,-0.85989 -0.29249,-0.85989 -0.2342,0 -0.42582,-0.11907 -0.42582,-0.26459 0,-0.14552 -0.38774,-0.26458 -0.86164,-0.26458 -0.4739,0 -1.24781,-0.11075 -1.71979,-0.24611 -0.68252,-0.19575 -0.85815,-0.16867 -0.85815,0.13229 0,0.20812 0.0971,0.3784 0.21586,0.3784 0.11873,0 0.49061,0.48885 0.82641,1.08633 0.33581,0.59748 0.97182,1.49779 1.41337,2.00069 l 0.80282,0.91436 0.38305,-1.0085 c 0.21068,-0.55468 0.44305,-1.39546 0.51638,-1.8684 z m -4.84806,0.58623 c 0.9013,-0.9013 -1.06774,-3.29743 -2.71125,-3.29931 -0.53031,-6.1e-4 -1.54993,-0.29827 -2.26582,-0.66146 -0.71589,-0.3632 -1.38935,-0.66035 -1.49658,-0.66035 -0.38533,0 0.0965,1.07552 0.742,1.65622 0.36238,0.326 1.27036,1.21781 2.01773,1.9818 1.15272,1.17833 1.50671,1.38906 2.33341,1.38906 0.536,0 1.15723,-0.18268 1.38051,-0.40596 z m -10.24159,-8.90407 c -0.0845,-0.21106 -0.14716,-0.14837 -0.15985,0.15986 -0.0115,0.27891 0.051,0.43518 0.13896,0.34726 0.0879,-0.0879 0.0973,-0.31612 0.0209,-0.50712 z m -27.89585,-16.17181 c 0.54571,-0.5957 0.99219,-1.16967 0.99219,-1.27548 0,-0.10581 0.1871,-0.37948 0.41578,-0.60816 0.53799,-0.538 1.28024,-0.55103 1.07604,-0.0189 -0.20126,0.52448 0.0734,0.50106 1.55089,-0.13229 1.65365,-0.70883 2.99135,-0.66651 4.77909,0.15123 0.85099,0.38924 1.67516,0.60434 1.92607,0.50266 0.38584,-0.15635 0.37494,-0.2026 -0.0906,-0.38458 -1.06466,-0.41618 -1.49142,-1.2085 -1.54051,-2.8601 -0.0414,-1.39297 0.0316,-1.64623 0.61447,-2.13201 0.3638,-0.30319 0.89958,-0.55901 1.19063,-0.56848 0.29104,-0.009 0.76028,-0.19202 1.04275,-0.40567 0.71852,-0.54346 3.42943,-0.51173 4.38255,0.0513 0.69399,0.40995 0.77425,0.40995 1.1842,0 0.24186,-0.24186 0.69914,-0.44441 1.01617,-0.45011 0.49175,-0.009 0.45983,-0.0633 -0.21734,-0.37105 -0.87283,-0.39662 -1.57794,-1.07179 -3.175,-3.04017 -0.58208,-0.71742 -1.2457,-1.37351 -1.47471,-1.45798 -0.22901,-0.0845 -0.64879,-0.3701 -0.93284,-0.63473 -1.2946,-1.2061 -1.76921,-1.34634 -4.74733,-1.40272 -3.51133,-0.0665 -3.73515,0.0319 -5.95803,2.61954 -0.28222,0.32853 -0.51313,0.71635 -0.51313,0.86183 0,0.14548 -0.31035,0.88872 -0.68967,1.65164 -0.37932,0.76292 -0.85557,1.72419 -1.05834,2.13617 -0.20276,0.41197 -0.36866,0.9196 -0.36866,1.12807 0,0.20846 -0.10445,0.58576 -0.2321,0.83845 -0.5732,1.1346 -1.23178,3.86678 -1.53759,6.37888 -0.17018,1.39799 0.34172,1.95608 0.97594,1.064 0.21828,-0.30704 0.84336,-1.04563 1.38906,-1.64133 z m 11.68466,-4.57609 c 0.48436,-0.18587 0.30271,-0.63374 -0.25704,-0.63374 -0.20969,0 -0.38126,0.1786 -0.38126,0.39688 0,0.44511 0.0486,0.46315 0.6383,0.23686 z m 48.8902,134.58434 c 0.17626,-0.28224 0.58088,-0.65254 0.89916,-0.82287 0.82603,-0.44208 1.35226,-1.49403 0.94908,-1.89722 -0.17169,-0.17168 -0.31216,-0.53065 -0.31216,-0.79771 0,-0.26706 -0.16715,-0.74926 -0.37145,-1.07156 -0.55203,-0.8709 -0.83434,-2.87624 -0.37952,-2.69585 0.52552,0.20843 2.33847,4.10896 2.33847,5.03117 0,0.92929 -0.6479,1.97347 -1.22452,1.97347 -0.22043,0 -0.57937,0.17859 -0.79765,0.39687 -0.21828,0.21828 -0.62751,0.39688 -0.90939,0.39688 -0.44095,0 -0.46776,-0.0716 -0.19202,-0.51318 z m -141.54385,-0.87589 c -0.38397,-0.77656 -0.54596,-5.20333 -0.19194,-5.24537 0.23508,-0.0279 0.78769,1.24605 1.03388,2.38347 0.0494,0.22798 0.17355,0.77169 0.27601,1.20826 l 0.18628,0.79375 3.51755,0.0776 c 4.0002,0.0882 3.8387,0.18749 3.84621,-2.36436 0.003,-0.91299 0.12251,-1.28123 0.46663,-1.43392 0.98265,-0.43603 28.81029,-0.75074 66.34427,-0.7503 39.05024,4.6e-4 58.28257,0.25296 58.40822,0.76685 0.12141,0.49652 -2.59261,0.58307 -25.73218,0.82064 -28.93162,0.29704 -47.41893,0.29983 -76.00156,0.0115 l -22.42344,-0.22622 v 2.27674 2.27675 h -4.71779 c -4.62892,0 -4.72334,-0.0112 -5.01214,-0.59532 z m 173.63307,-7.97775 c -0.20686,-0.49509 -0.45455,-1.3907 -0.55042,-1.99024 -0.0959,-0.59955 -0.27773,-1.15401 -0.40414,-1.23213 -0.1264,-0.0781 -0.22983,-0.54471 -0.22983,-1.03686 0,-0.49214 -0.11906,-0.96839 -0.26458,-1.05833 -0.14552,-0.0899 -0.26458,-0.58465 -0.26458,-1.09937 0,-1.15911 -0.7163,-3.70307 -1.29217,-4.58917 -0.23643,-0.3638 -0.65305,-1.10159 -0.92583,-1.63952 -0.27277,-0.53794 -0.77828,-1.2433 -1.12335,-1.56748 -0.34507,-0.32417 -0.6274,-0.68505 -0.6274,-0.80195 0,-0.23117 -2.78974,-3.1348 -3.01184,-3.1348 -0.0747,0 -0.46946,-0.3102 -0.87714,-0.68934 -0.40768,-0.37913 -1.20639,-1.06374 -1.77492,-1.52135 -0.56854,-0.45761 -1.25314,-1.04038 -1.52136,-1.29504 -0.26821,-0.25466 -0.58552,-0.46302 -0.70513,-0.46302 -0.11961,0 -1.04235,-0.56555 -2.05052,-1.25677 -1.00818,-0.69123 -2.19024,-1.41959 -2.6268,-1.61859 -1.78456,-0.81345 -7.42577,-1.27363 -11.73393,-0.95719 l -2.47352,0.18168 0.15817,0.83325 c 0.087,0.45828 0.23394,2.0978 0.32655,3.64337 0.26983,4.50306 -0.45699,6.61 -0.81041,2.34925 -0.3143,-3.78924 -0.4659,-4.89615 -0.7048,-5.14615 -0.1321,-0.13824 -0.24019,-0.46625 -0.24019,-0.7289 0,-0.26265 -0.28241,-1.06295 -0.62757,-1.77845 -0.34517,-0.71549 -0.70454,-1.60754 -0.79861,-1.98233 -0.18866,-0.75169 -2.33806,-4.18258 -3.09375,-4.93827 -0.26321,-0.26321 -0.7693,-1.11418 -1.12465,-1.89105 -0.35535,-0.77687 -0.83556,-1.56973 -1.06714,-1.76192 -0.99741,-0.82778 -1.64733,-3.44158 -0.96119,-3.86564 0.14552,-0.0899 0.26508,-0.36486 0.26569,-0.61093 9.8e-4,-0.39701 0.27695,-0.99269 1.77015,-3.82084 0.39837,-0.75452 1.04724,-1.03004 0.77889,-0.33073 -0.0872,0.22731 -0.005,0.39687 0.19156,0.39687 0.36697,0 3.07784,-2.7158 3.08101,-3.08662 10e-4,-0.12137 0.47144,-0.69692 1.04535,-1.279 0.57391,-0.58208 1.04931,-1.17861 1.05645,-1.32562 0.007,-0.14701 0.31063,-0.5883 0.67444,-0.98064 0.3638,-0.39235 0.66146,-0.81533 0.66146,-0.93997 0,-0.12463 0.29765,-0.84362 0.66145,-1.59775 0.36381,-0.75412 0.66146,-1.49078 0.66146,-1.63702 0,-0.14623 0.0965,-0.26588 0.21451,-0.26588 0.11798,0 0.42551,-0.74414 0.68339,-1.65364 0.25789,-0.90951 0.56382,-1.89177 0.67986,-2.18281 0.11604,-0.29105 0.41808,-1.06495 0.6712,-1.7198 0.71527,-1.85043 0.99557,-2.38125 1.25745,-2.38125 0.3854,0 5.28481,-5.04812 6.06652,-6.25065 0.39016,-0.6002 0.79061,-1.52425 0.88989,-2.05344 0.0993,-0.52919 0.28607,-1.02741 0.41509,-1.10715 0.12903,-0.0797 0.23459,-0.48812 0.23459,-0.90751 0,-0.41938 0.11906,-0.8361 0.26459,-0.92604 0.14552,-0.0899 0.26458,-0.92337 0.26458,-1.85208 0,-0.92871 -0.11906,-1.76215 -0.26458,-1.85208 -0.14553,-0.0899 -0.26459,-0.45175 -0.26459,-0.80402 0,-1.27228 -1.53004,-4.69874 -2.77812,-6.2215 -1.5504,-1.89161 -1.98438,-2.48492 -1.98438,-2.71294 0,-0.26802 -1.08706,-1.21995 -1.40796,-1.23295 -0.58112,-0.0235 -1.41371,-1.64925 -2.00319,-3.91141 -0.64787,-2.48628 -0.92891,-3.40324 -1.23663,-4.03489 -0.17723,-0.36381 -0.53876,-1.19724 -0.80339,-1.85209 -0.26463,-0.65484 -0.75372,-1.55905 -1.08686,-2.00935 -0.33315,-0.45029 -0.60572,-1.00881 -0.60572,-1.24115 0,-0.23234 -0.11906,-0.49602 -0.26458,-0.58596 -0.14552,-0.0899 -0.26458,-0.38004 -0.26458,-0.64467 0,-0.26464 -0.16887,-0.6213 -0.37525,-0.79259 -0.32902,-0.27306 -1.67236,-2.33814 -3.14223,-4.83046 -0.26112,-0.44276 -0.64807,-0.97833 -0.85989,-1.19015 -0.21183,-0.21182 -0.38513,-0.47119 -0.38513,-0.57638 0,-0.10518 -0.49474,-0.72175 -1.09942,-1.37016 -0.60468,-0.64841 -1.26137,-1.56646 -1.45931,-2.04012 -0.19794,-0.47367 -0.81485,-1.19078 -1.37091,-1.59359 -1.62879,-1.17989 -4.65674,-3.99599 -4.48319,-4.16953 0.26405,-0.26405 2.12476,0.84024 3.25345,1.93086 0.58208,0.56245 1.44544,1.24925 1.91857,1.52623 0.47313,0.27698 0.93432,0.73702 1.02487,1.02231 0.0906,0.28529 0.44758,0.82386 0.79341,1.19682 0.34583,0.37296 0.62878,0.75427 0.62878,0.84735 0,0.0931 0.48701,0.67107 1.08226,1.28443 0.59524,0.61336 1.26287,1.55045 1.4836,2.08243 0.22074,0.53197 0.57193,1.14582 0.78043,1.3641 0.58243,0.60977 3.00371,4.24534 3.00371,4.51011 0,0.26691 0.85423,2.16813 1.06444,2.36906 1.15338,1.10245 3.15504,6.99527 2.7788,8.1807 -0.11315,0.35649 0.0133,0.73625 0.37417,1.12358 0.2998,0.32179 0.54509,0.74122 0.54509,0.93207 0,0.19084 0.0908,0.34698 0.20184,0.34698 0.11101,0 0.31937,0.264 0.46302,0.58667 0.14365,0.32267 0.54756,0.6528 0.89759,0.73362 0.35003,0.0808 0.76675,0.37422 0.92605,0.65199 0.15929,0.27777 0.58728,0.82046 0.95108,1.20597 1.77643,1.88245 2.77497,3.49272 3.23383,5.21491 0.26278,0.98632 0.7743,2.7458 1.1367,3.90997 0.3624,1.16416 0.65838,2.60107 0.65773,3.19312 -0.001,1.19507 -0.57888,3.3905 -1.31775,5.00896 -0.26574,0.58208 -0.6927,1.51661 -0.94879,2.07673 -0.2561,0.56012 -1.19062,1.76434 -2.0767,2.67605 -0.88609,0.91172 -1.74529,1.82266 -1.90934,2.02432 -0.16405,0.20166 -0.63117,0.60477 -1.03804,0.89582 -1.0474,0.74923 -1.97097,1.78386 -1.97097,2.20799 0,1.2775 -2.40142,7.67874 -2.97657,7.93437 -0.10914,0.0485 -0.19843,0.1997 -0.19843,0.33598 0,0.13629 -0.27659,0.69191 -0.61465,1.23473 -1.11324,1.78753 -1.04857,1.87749 0.70871,0.9859 0.89415,-0.45367 2.3401,-1.04296 3.21323,-1.30955 0.87312,-0.26658 2.12233,-0.76537 2.77602,-1.10842 0.65368,-0.34304 1.32137,-0.62371 1.48374,-0.62371 0.16237,0 1.09471,-0.41672 2.07185,-0.92604 0.97715,-0.50933 1.99908,-0.92605 2.27096,-0.92605 0.27188,0 0.56791,-0.11906 0.65784,-0.26458 0.0899,-0.14552 0.4064,-0.26458 0.70324,-0.26458 1.39814,0 3.82614,-1.58443 4.06006,-2.64945 0.0954,-0.43457 0.25408,-0.79014 0.35251,-0.79014 0.0984,0 0.34842,-0.38279 0.55551,-0.85065 0.5118,-1.15623 2.2904,-2.85351 2.99023,-2.85351 0.57226,0 0.4228,0.22773 -1.3855,2.11117 -0.25623,0.26687 -1.35868,2.26005 -1.50307,2.71747 -0.0804,0.25466 -0.25133,0.46302 -0.37988,0.46302 -0.12855,0 -0.23372,0.22949 -0.23372,0.50997 0,0.69932 -1.04803,1.4637 -2.56722,1.87241 -0.69808,0.18781 -1.38235,0.44298 -1.52059,0.56705 -0.13825,0.12406 -0.4359,0.22734 -0.66146,0.2295 -0.22556,0.002 -1.35568,0.47841 -2.51137,1.05834 -1.1557,0.57992 -2.22726,1.05549 -2.38125,1.05682 -0.15399,0.001 -0.8753,0.29526 -1.6029,0.65318 -0.72761,0.35792 -1.60871,0.65449 -1.95801,0.65904 -0.34929,0.005 -1.30179,0.31841 -2.11666,0.69746 -0.81487,0.37906 -1.77924,0.80679 -2.14304,0.95052 -0.3638,0.14373 -0.99853,0.42891 -1.41051,0.63373 -0.41197,0.20482 -0.90806,0.3724 -1.10243,0.3724 -0.19436,0 -0.39307,0.0936 -0.44158,0.208 -0.0485,0.11439 -0.482,0.48457 -0.96332,0.82261 -0.48132,0.33804 -0.83239,0.65736 -0.78016,0.70959 0.0522,0.0522 1.10089,-0.25432 2.33034,-0.68123 1.22945,-0.42692 2.68347,-0.7803 3.23114,-0.7853 0.54768,-0.005 1.20253,-0.11654 1.45521,-0.24788 0.25269,-0.13134 0.99521,-0.38178 1.65006,-0.55653 0.65484,-0.17475 1.66687,-0.47017 2.24896,-0.65648 0.58208,-0.18632 1.77271,-0.53817 2.64583,-0.7819 0.87313,-0.24373 1.79424,-0.55523 2.04693,-0.69222 0.25269,-0.13699 0.64704,-0.24908 0.87633,-0.24908 1.89741,0 6.33502,-2.38013 8.75518,-4.69589 1.90315,-1.82104 2.5922,-1.69697 5.4236,0.97662 l 1.68338,1.58954 2.24896,0.0587 c 3.98156,0.10396 4.5328,0.0106 5.35167,-0.90662 0.40356,-0.45201 0.73374,-0.91468 0.73374,-1.02815 0,-0.11347 0.46653,-0.34608 1.03674,-0.51692 0.64654,-0.19371 1.08807,-0.50694 1.17314,-0.83225 0.15392,-0.5886 0.791,-0.50532 0.91219,0.11924 0.10819,0.55754 -0.64703,1.26144 -1.5464,1.44131 -0.49519,0.099 -0.84804,0.40485 -1.06138,0.91991 -0.68928,1.66406 -2.79413,2.294 -6.20283,1.85638 -1.01865,-0.13077 -1.90295,-0.19206 -1.96512,-0.1362 -0.1591,0.14296 0.96114,1.15431 1.2786,1.15431 0.54031,0 2.6866,1.30457 3.65266,2.22017 0.55144,0.52264 1.13538,0.95128 1.29766,0.95254 0.62579,0.005 1.68933,1.11275 1.68933,1.75976 0,0.8198 -1.30729,2.76057 -2.29577,3.40825 -0.40602,0.26603 -1.03662,0.76039 -1.40134,1.09857 -0.36471,0.33819 -0.94005,0.61488 -1.27852,0.61488 -0.33848,0 -0.84571,0.12325 -1.12719,0.27389 -0.64555,0.34549 -1.3533,-0.009 -2.39981,-1.20047 -0.68432,-0.77939 -4.76423,-3.04217 -5.4852,-3.04217 -0.28992,0 -2.40603,0.65527 -3.34238,1.035 -1.09804,0.44529 -2.43736,0.81708 -2.9434,0.81708 -0.28852,0 -1.1135,0.28301 -1.8333,0.6289 -2.88863,1.38812 -6.10768,2.8882 -6.73268,3.13742 -0.3638,0.14507 -0.84005,0.36978 -1.05833,0.49936 -0.21828,0.12959 -0.57547,0.31814 -0.79375,0.41902 -0.21828,0.10088 -0.51594,0.27875 -0.66146,0.39528 -0.14552,0.11653 -0.56224,0.446 -0.92604,0.73215 l -0.66146,0.52027 0.59531,0.009 c 0.32742,0.005 0.59532,0.11128 0.59532,0.23653 0,0.12525 0.61596,0.30068 1.3688,0.38985 0.75284,0.0892 1.49103,0.28434 1.64041,0.43373 0.14939,0.14938 0.42698,0.27161 0.61687,0.27161 0.18989,0 0.96227,0.29766 1.7164,0.66146 0.75412,0.3638 1.46782,0.66146 1.58599,0.66146 0.11817,0 1.19671,0.47625 2.39675,1.05833 1.20004,0.58208 2.30146,1.05843 2.4476,1.05854 0.14615,1.2e-4 0.74197,0.42613 1.32405,0.94671 0.58208,0.52058 1.38576,1.14147 1.78594,1.37976 0.40018,0.23829 0.7276,0.52664 0.7276,0.64079 0,0.11414 0.16795,0.20753 0.37322,0.20753 0.5425,0 5.44762,5.11013 5.44762,5.6753 0,0.0923 0.12612,0.31167 0.28027,0.48743 0.80794,0.92121 1.89777,3.10443 2.27274,4.5529 0.0753,0.29104 0.23989,0.76729 0.36567,1.05833 0.12578,0.29104 0.28247,1.06495 0.34821,1.71979 0.0657,0.65485 0.26256,1.72641 0.43739,2.38125 0.17483,0.65485 0.41284,1.60735 0.52893,2.11667 0.11608,0.50932 0.35214,1.52136 0.52458,2.24896 0.36571,1.54313 0.69187,9.25634 0.43474,10.28084 -0.23913,0.95275 -0.64691,0.87817 -1.09773,-0.20078 z m 0.21783,-4.32537 c -0.0531,-0.83675 -0.15613,-1.93808 -0.22898,-2.4474 -0.43615,-3.04912 -0.59063,-4.00985 -0.89344,-5.55625 -0.18522,-0.94588 -0.44301,-1.92653 -0.57286,-2.17922 -0.12986,-0.25269 -0.23684,-0.96706 -0.23773,-1.5875 -9e-4,-0.62044 -0.1795,-1.4691 -0.39688,-1.88592 -0.21738,-0.41681 -0.39524,-0.9156 -0.39524,-1.10842 0,-0.51567 -2.62021,-5.47188 -2.97657,-5.63026 -0.10914,-0.0485 -0.19843,-0.25686 -0.19843,-0.46302 0,-0.20615 -0.0898,-0.37483 -0.19953,-0.37483 -0.10974,0 -0.91562,-0.6846 -1.79086,-1.52135 -0.87523,-0.83674 -2.00583,-1.71409 -2.51245,-1.94966 -2.30646,-1.07245 -5.00947,-2.35162 -6.30335,-2.983 -0.77742,-0.37936 -1.67634,-0.68974 -1.99761,-0.68974 -0.32127,0 -0.69723,-0.10022 -0.83548,-0.22271 -0.13824,-0.12249 -1.68466,-0.3703 -3.43648,-0.55068 -2.46576,-0.2539 -3.92979,-0.25914 -6.48229,-0.0232 -3.09875,0.28643 -6.43697,0.98355 -6.2786,1.31116 0.0391,0.0808 0.59071,1.21847 1.22589,2.52815 0.63518,1.30969 1.26238,2.66247 1.39378,3.00619 0.18896,0.49429 0.36237,0.58643 0.8295,0.44075 2.74501,-0.8561 6.62302,-1.11996 9.71873,-0.66125 4.00772,0.59384 5.36694,1.01183 6.53415,2.0094 0.31957,0.27312 1.62926,1.17027 2.91042,1.99367 1.28116,0.8234 3.00928,2.13309 3.84025,2.91042 0.83098,0.77733 1.98336,1.81098 2.56084,2.29701 0.57747,0.48603 1.23314,1.25994 1.45703,1.71979 0.2239,0.45986 0.82769,1.23978 1.34178,1.73316 0.51408,0.49338 0.93469,1.05893 0.93469,1.25677 0,0.19785 0.11906,0.35972 0.26459,0.35972 0.14552,0 0.26458,0.2311 0.26458,0.51355 0,0.28245 0.10476,0.5783 0.23281,0.65744 0.35748,0.22093 1.08962,2.65757 1.09409,3.64122 0.002,0.48198 0.17556,1.35258 0.38526,1.93466 0.2097,0.58209 0.3865,1.50482 0.39289,2.05052 0.006,0.54571 0.11071,0.99219 0.23182,0.99219 0.12111,0 0.17677,-0.68461 0.12368,-1.52135 z M 802.64394,435.7917 c -0.80859,-0.4908 -1.98437,-0.88729 -1.98437,-0.66915 0,0.15386 2.16207,1.13972 2.51354,1.14612 0.14552,0.003 -0.0926,-0.21198 -0.52917,-0.47697 z m -18.99459,-1.02205 c 0.69713,-0.0662 1.50564,-0.22173 1.79668,-0.34566 0.29104,-0.12393 0.88635,-0.3149 1.32291,-0.42439 1.18202,-0.29642 7.75864,-0.23233 9.12813,0.089 2.41517,0.56663 4.28848,0.89705 4.40801,0.77751 0.13713,-0.13713 -1.43565,-0.97185 -1.83115,-0.97185 -0.13874,0 -1.04318,-0.36925 -2.00987,-0.82055 -1.67473,-0.78185 -3.51994,-1.6108 -4.66803,-2.09706 -1.18144,-0.5004 -1.72876,-0.53093 -2.48718,-0.13873 -0.43661,0.22578 -1.15694,0.41051 -1.60073,0.41051 -0.44378,0 -0.80733,0.0893 -0.80788,0.19844 -5.4e-4,0.10914 -0.56609,0.41741 -1.25677,0.68506 -0.69068,0.26764 -1.4939,0.57856 -1.78494,0.69093 -0.29104,0.11237 -0.97969,0.3994 -1.53033,0.63785 -0.55064,0.23845 -1.3572,0.43355 -1.79236,0.43355 h -0.79119 l 0.84395,0.92743 c 0.7884,0.8664 0.87518,0.89916 1.31859,0.49788 0.26106,-0.23626 1.04503,-0.4837 1.74216,-0.54988 z m -1.08737,-2.62154 c 0.74211,-0.34933 1.46389,-0.63514 1.60395,-0.63514 0.14006,0 0.72351,-0.22415 1.29655,-0.4981 0.57303,-0.27396 1.40205,-0.57519 1.84227,-0.66941 0.44021,-0.0942 1.43691,-0.65308 2.21489,-1.24191 1.15655,-0.87536 3.2999,-2.05548 6.64201,-3.65707 0.21828,-0.1046 0.75406,-0.37527 1.19063,-0.60149 0.43656,-0.22622 1.0914,-0.52837 1.45521,-0.67145 0.3638,-0.14307 1.11198,-0.45524 1.66262,-0.69369 0.55064,-0.23845 1.44956,-0.43355 1.9976,-0.43355 0.54804,0 1.10955,-0.10442 1.2478,-0.23206 0.35768,-0.33022 2.59305,-0.98986 4.68381,-1.38215 1.91102,-0.35856 2.15955,-0.29677 4.29879,1.06884 0.43656,0.27868 1.03748,0.5154 1.33537,0.52604 0.29788,0.0106 1.00666,0.49558 1.57505,1.07767 0.99231,1.01622 1.71979,1.35198 1.71979,0.79375 0,-0.14552 -0.11906,-0.26459 -0.26458,-0.26459 -0.14553,0 -0.26459,-0.17859 -0.26459,-0.39687 0,-0.26458 0.26459,-0.39688 0.79375,-0.39688 0.61314,0 0.79375,-0.11851 0.79375,-0.52086 0,-0.33755 0.13026,-0.47088 0.37011,-0.37884 0.20357,0.0781 0.44872,0.0149 0.54479,-0.14059 0.0961,-0.15544 0.54522,-0.28262 0.99811,-0.28262 0.99149,0 1.79116,-0.65677 1.79116,-1.47108 0,-0.42063 -0.33004,-0.78873 -1.1248,-1.25448 -0.61864,-0.36255 -1.35147,-0.90965 -1.62851,-1.21577 -0.27704,-0.30612 -0.66385,-0.55659 -0.85957,-0.55659 -0.19573,0 -0.35587,-0.10418 -0.35587,-0.23151 0,-0.12733 -0.33951,-0.29941 -0.75446,-0.3824 -0.73595,-0.14719 -1.31143,-0.68621 -5.53728,-5.18639 l -1.84412,-1.96384 -1.85067,1.83969 c -1.63994,1.6302 -3.37237,3.00186 -4.56555,3.61478 -0.41637,0.21388 -0.0969,0.15127 2.40354,-0.47102 1.78037,-0.44308 2.45925,-0.30389 2.86539,0.58751 0.28804,0.63216 0.27019,0.66023 -0.29847,0.46922 -0.77598,-0.26064 -2.56791,-0.20618 -3.25067,0.0988 -1.39355,0.62246 -2.06164,0.83142 -2.65829,0.83142 -0.74995,0 -0.89652,-0.69027 -0.18598,-0.87595 0.28113,-0.0735 0.17354,-0.13306 -0.2739,-0.15169 -0.4053,-0.0169 -1.00061,0.13879 -1.32291,0.34594 -0.82006,0.52707 -6.0824,2.2692 -6.85442,2.2692 -0.35047,0 -0.75032,0.0988 -0.88857,0.21947 -0.23415,0.20445 -2.08607,0.58248 -4.86876,0.99386 -0.6478,0.0958 -1.66458,0.38277 -2.25951,0.63779 -0.59492,0.25502 -1.49365,0.54703 -1.99717,0.64892 -1.11689,0.22601 -2.55353,0.8578 -2.77858,1.22193 -0.0912,0.14752 -0.66178,0.57474 -1.26801,0.94938 -1.94383,1.20123 -2.95432,2.90661 -2.95432,4.98594 0,1.09332 0.12628,1.44711 0.7276,2.0385 0.40019,0.39356 0.72761,0.85143 0.72761,1.01749 0,0.16605 0.24109,0.64048 0.53575,1.0543 0.49084,0.68932 0.60727,0.72935 1.38906,0.47755 0.46932,-0.15117 1.46049,-0.56066 2.2026,-0.90999 z m -12.84539,0.71258 c -0.15282,-0.28555 -0.27785,-0.8069 -0.27785,-1.15855 0,-0.69439 -0.36732,-1.95654 -0.95219,-3.27186 -0.2039,-0.45856 -0.36812,-1.23246 -0.36492,-1.7198 0.007,-1.04728 0.89464,-3.13501 1.33312,-3.13501 0.3003,0 0.27329,0.41969 -0.16614,2.58211 -0.0964,0.47428 -0.0546,1.01006 0.0927,1.19063 0.14739,0.18056 0.45872,0.97499 0.69185,1.76539 0.71163,2.41269 0.44253,5.24029 -0.35661,3.74709 z m 2.47398,-3.56979 c -0.0852,-0.22194 0.0128,-0.7355 0.21777,-1.14125 0.20495,-0.40575 0.49345,-0.97585 0.64112,-1.26689 0.9758,-1.9232 1.15178,-2.33487 1.15178,-2.69442 0,-0.49557 1.37971,-2.99348 1.65364,-2.99385 0.10914,-1.5e-4 0.19844,-0.15626 0.19844,-0.34692 0,-0.19065 0.3401,-0.69667 0.75579,-1.12448 0.41568,-0.4278 0.94867,-1.13502 1.18442,-1.57158 0.54603,-1.01115 1.65554,-2.24896 2.01585,-2.24896 0.46067,0 0.31447,0.56274 -0.38419,1.47873 -0.3638,0.47697 -0.66145,0.99422 -0.66145,1.14945 0,0.15523 -0.11907,0.28224 -0.26459,0.28224 -0.14552,0 -0.26458,0.1055 -0.26458,0.23443 0,0.29929 -2.16356,3.57281 -2.43897,3.69022 -0.11378,0.0485 -0.20686,0.24229 -0.20686,0.43063 0,0.18833 -0.1786,0.49065 -0.39688,0.6718 -0.21828,0.18116 -0.4006,0.58269 -0.40515,0.8923 -0.005,0.3096 -0.2837,1.09869 -0.62033,1.75354 -1.65409,3.21768 -1.89719,3.53108 -2.17581,2.80501 z m 49.3656,-18.24225 c -0.21538,-0.16801 -0.67382,-0.72613 -1.01874,-1.24026 -0.6694,-0.99778 -1.62059,-1.57875 -2.58479,-1.57875 -0.3262,0 -0.66668,-0.11907 -0.75661,-0.26459 -0.0899,-0.14552 -0.87087,-0.26458 -1.73541,-0.26458 -1.41217,0 -1.57188,0.0555 -1.57188,0.54656 0,0.74033 -0.4972,1.62109 -0.80703,1.42961 -0.13822,-0.0854 -0.25131,-0.50967 -0.25131,-0.94276 0,-1.29097 -1.15405,-2.82628 -2.58589,-3.44019 -1.10323,-0.47301 -1.0515,-1.19955 0.0773,-1.08513 0.51816,0.0525 1.16893,0.47239 1.89653,1.2236 l 1.1077,1.14364 2.46418,0.17478 c 1.3553,0.0961 2.70231,0.19006 2.99335,0.20875 0.29104,0.0187 0.72085,-0.0514 0.95514,-0.1557 0.27518,-0.12253 0.71017,0.0495 1.22882,0.48587 0.48085,0.40462 1.12995,0.67555 1.61844,0.67555 0.57802,0 0.94186,0.19269 1.24901,0.66146 0.23837,0.3638 0.59831,0.66146 0.79985,0.66146 0.20154,0 0.36645,0.23813 0.36645,0.52917 0,0.4152 -0.17639,0.52916 -0.81906,0.52916 -0.45048,0 -1.1375,0.22676 -1.52672,0.50391 -0.55183,0.39294 -0.79392,0.43664 -1.09929,0.19844 z m 1.32074,-1.48576 c 0.21406,-0.13538 0.30903,-0.32633 0.21103,-0.42432 -0.098,-0.098 -0.37094,0.0146 -0.60655,0.25019 -0.46553,0.46554 -0.22955,0.56943 0.39552,0.17413 z m -66.40276,-9.79594 c 0,-0.68275 1.49684,-3.11184 2.12457,-3.44779 0.68435,-0.36625 0.78585,-0.33153 0.78585,0.26881 0,0.29104 -0.092,0.52917 -0.20442,0.52917 -0.11243,0 -0.43365,0.44648 -0.71383,0.99218 -0.56983,1.10986 -1.44169,2.18282 -1.77371,2.18282 -0.12015,0 -0.21846,-0.23634 -0.21846,-0.52519 z m -1.85208,-1.06231 c 0,-0.29104 0.11104,-0.52917 0.24675,-0.52917 0.13572,0 0.31962,-0.22958 0.40868,-0.51017 0.16951,-0.53407 2.23483,-2.66483 2.58299,-2.66483 0.49947,0 0.12179,1.05225 -0.67267,1.87413 -0.4806,0.4972 -1.07866,1.23142 -1.32901,1.6316 -0.53098,0.84875 -1.23674,0.96199 -1.23674,0.19844 z m 35.63055,-0.17639 c -0.46109,-0.4611 0.0279,-3.34441 0.89618,-5.28452 0.26961,-0.60241 0.56714,-1.43584 0.66119,-1.85208 0.094,-0.41624 0.39727,-1.41958 0.67383,-2.22963 0.27656,-0.81005 0.50283,-1.73279 0.50283,-2.05052 0,-0.31773 0.13689,-0.5777 0.3042,-0.5777 0.35941,0 0.12082,4.46782 -0.27899,5.22436 -0.55056,1.0418 -1.08354,2.42089 -1.08354,2.80366 0,0.22408 -0.11906,0.48101 -0.26458,0.57094 -0.14553,0.0899 -0.26459,0.50666 -0.26459,0.92604 0,0.41939 -0.11906,0.83611 -0.26458,0.92605 -0.14552,0.0899 -0.26458,0.51368 -0.26458,0.94165 0,0.74484 -0.24018,0.97894 -0.61737,0.60175 z M 702.14637,392.972 c -0.40168,-0.40168 -0.16798,-0.91494 0.34279,-0.75283 0.28554,0.0906 0.7711,0.03 1.07901,-0.13483 0.3079,-0.16479 0.74533,-0.22844 0.97205,-0.14144 0.36372,0.13958 0.35647,0.21978 -0.0617,0.68184 -0.459,0.50719 -1.95018,0.72923 -2.33216,0.34726 z m -1.23472,-2.6752 c 0,-0.34008 0.31996,-0.67953 0.89988,-0.95472 0.99529,-0.4723 2.80429,-0.57708 2.80429,-0.16244 0,0.14552 0.002,0.35012 0.004,0.45466 0.002,0.10455 -0.43402,0.21809 -0.96899,0.25231 -0.53498,0.0342 -1.04385,0.17737 -1.13083,0.31811 -0.087,0.14073 -0.48437,0.33776 -0.88309,0.43783 -0.60872,0.15278 -0.72496,0.0973 -0.72496,-0.34575 z m 65.88125,-7.02601 c 0,-0.43858 1.94385,-2.02865 2.48001,-2.02865 0.21691,0 0.66876,-0.38534 1.00412,-0.85631 0.33536,-0.47097 1.18364,-1.44241 1.88507,-2.15876 1.2843,-1.31162 2.03914,-2.47389 2.03914,-3.13981 0,-0.56035 1.04001,-2.57637 1.32909,-2.57637 0.37913,0 0.29771,1.08907 -0.13847,1.85208 -0.20797,0.3638 -0.38234,0.91574 -0.3875,1.22653 -0.005,0.31078 -0.17524,0.88477 -0.37796,1.27552 -0.66683,1.28531 -3.71393,4.59481 -4.6585,5.05966 -0.50932,0.25066 -1.34063,0.73541 -1.84735,1.07722 -1.05419,0.71111 -1.32765,0.7665 -1.32765,0.26889 z m -7.34219,-23.18612 c -0.47294,-0.29182 -0.85989,-0.71093 -0.85989,-0.93135 0,-0.4769 0.11847,-0.48735 1.32466,-0.11687 0.50836,0.15614 1.51961,0.3645 2.24721,0.46302 0.91993,0.12456 1.32292,0.30002 1.32292,0.576 0,0.66631 -2.95902,0.67306 -4.0349,0.009 z m -28.32881,-8.2302 c 0.10843,-0.70292 1.41765,-1.53194 1.806,-1.14359 0.19249,0.19249 0.0772,0.49191 -0.37904,0.98417 -0.79782,0.86086 -1.5481,0.94469 -1.42696,0.15942 z m 20.36764,-3.82999 c -0.16888,-0.37065 -0.30706,-0.82091 -0.30706,-1.00057 0,-0.17967 -0.56554,-0.49342 -1.25677,-0.69722 -1.47261,-0.4342 -2.1279,-0.96405 -1.7096,-1.38235 0.19754,-0.19754 0.5327,-0.19251 1.13373,0.017 0.4693,0.1636 1.12641,0.29745 1.46025,0.29745 0.83678,0 1.43073,0.95807 1.43073,2.30783 0,1.27712 -0.29585,1.45741 -0.75128,0.45785 z m 10.09131,-0.84745 c -0.94768,-1.2688 -1.31188,-1.6515 -1.58207,-1.66245 -0.43474,-0.0176 -1.40796,-1.01332 -1.40796,-1.4405 0,-0.33313 0.14298,-0.39398 0.59531,-0.25334 0.32742,0.1018 0.635,0.28842 0.68351,0.4147 0.0485,0.12629 0.2296,0.22961 0.40244,0.22961 0.61813,0 2.81583,2.5292 2.81633,3.24115 5.4e-4,0.77414 -0.72409,0.51979 -1.50756,-0.52917 z"
       id="path15" /></g></svg>
