<?xml version="1.0" encoding="UTF-8" standalone="no"?>
<!-- Created with Inkscape (http://www.inkscape.org/) -->

<svg
   width="102.13895mm"
   height="162.86287mm"
   viewBox="0 0 102.13896 162.86287"
   version="1.1"
   id="svg1"
   xml:space="preserve"
   xmlns="http://www.w3.org/2000/svg"
   xmlns:svg="http://www.w3.org/2000/svg"><defs
     id="defs1" /><g
     id="layer1"
     transform="translate(-263.1022,-460.83336)"><path
       style="fill:#000000"
       d="m 304.67985,623.57307 c -0.27094,-0.15788 -0.79603,-1.06617 -0.79603,-1.37697 0,-0.33338 0.19253,-0.43217 0.34198,-0.17547 0.11583,0.19897 0.1214,0.19892 0.12482,-10e-4 0.007,-0.3866 0.35366,-0.36844 0.77568,0.0406 0.2221,0.21527 0.40382,0.46039 0.40382,0.54472 0,0.0843 0.0751,0.15332 0.16677,0.15332 0.0917,0 0.23725,0.0259 0.32338,0.0576 0.0861,0.0317 0.23598,0.005 0.333,-0.0581 0.1457,-0.0956 0.0881,-0.19811 -0.33147,-0.58949 -0.49509,-0.46188 -0.59915,-0.805 -0.27669,-0.91238 0.0859,-0.0286 0.38328,0.19185 0.66083,0.4899 0.31014,0.33304 0.64653,0.57029 0.87275,0.61553 0.49444,0.0989 0.46346,-0.0615 -0.10227,-0.52942 -0.31071,-0.25698 -0.47037,-0.4851 -0.47037,-0.67205 0,-0.4275 0.29078,-0.35042 0.92857,0.24616 0.31115,0.29104 0.65284,0.52916 0.75931,0.52916 0.33151,0 0.21267,-0.33826 -0.21652,-0.61628 -0.38015,-0.24625 -0.53734,-0.63132 -0.33877,-0.82989 0.10054,-0.10054 0.50293,0.1165 0.89641,0.48352 0.27019,0.25201 0.37544,0.28376 0.63458,0.19141 0.48085,-0.17135 0.58826,-0.43389 0.32381,-0.79147 -0.27674,-0.3742 -1.01658,-0.8055 -1.43779,-0.83817 -0.17319,-0.0134 -0.94988,-0.43729 -1.72599,-0.94191 -1.03129,-0.67052 -1.75458,-1.26203 -2.68712,-2.19753 -0.7018,-0.70403 -1.34643,-1.28005 -1.4325,-1.28005 -0.0861,0 -0.27773,-0.17198 -0.42589,-0.38217 -0.14817,-0.2102 -0.36439,-0.48578 -0.48049,-0.61241 -0.26911,-0.29349 -0.90677,-1.59834 -1.05602,-2.16092 -0.0629,-0.23709 -0.19871,-1.00079 -0.3018,-1.69711 -0.17361,-1.17268 -0.17255,-1.39378 0.0144,-2.99861 0.19746,-1.69502 0.27956,-2.24391 0.53178,-3.55526 0.15238,-0.79222 0.55653,-3.27211 0.72825,-4.46852 0.17489,-1.21852 0.34375,-2.30254 0.4671,-2.99861 0.0573,-0.32338 0.16338,-0.93192 0.23572,-1.35231 0.33647,-1.95525 0.61445,-3.23913 1.08206,-4.99769 0.24021,-0.90335 0.87598,-2.79391 1.26544,-3.76296 0.052,-0.12935 0.21073,-0.52623 0.35278,-0.88195 0.14204,-0.35571 0.37931,-0.91134 0.52726,-1.23472 0.14795,-0.32338 0.36185,-0.79963 0.47534,-1.05833 0.11349,-0.25871 0.37831,-0.84079 0.58848,-1.29352 0.73742,-1.58846 1.11474,-2.42753 1.11474,-2.47893 0,-0.0285 0.0996,-0.27619 0.22128,-0.55036 0.88661,-1.99733 1.56742,-5.94274 1.89197,-10.96423 0.60103,-9.29936 0.38,-14.41017 -0.87475,-20.22593 -0.11163,-0.5174 -0.17554,-1.1524 -0.14203,-1.41111 l 0.0609,-0.47037 -0.69629,-0.31685 c -0.6376,-0.29015 -0.69629,-0.29872 -0.69629,-0.10172 0,0.27081 -0.36902,0.50993 -1.09446,0.7092 -1.1438,0.31418 -2.63073,-0.31479 -4.30102,-1.81933 -0.44113,-0.39736 -1.93858,-2.0862 -2.77721,-3.13217 -0.12935,-0.16134 -0.44685,-0.44834 -0.70555,-0.63779 -0.25871,-0.18944 -0.49683,-0.3712 -0.52917,-0.40391 -0.24288,-0.24564 -2.2324,-1.21765 -2.3177,-1.13235 -0.058,0.058 -0.21832,0.64834 -0.38711,1.42566 -0.35868,1.65185 -0.19888,4.42953 0.46511,8.08449 0.0617,0.33955 0.16465,0.90841 0.22881,1.26412 0.12169,0.6747 0.39992,2.41145 0.61226,3.82176 0.27735,1.84212 0.37519,2.47073 0.67726,4.35093 0.0624,0.38805 0.2223,1.47285 0.35546,2.41065 0.13316,0.9378 0.29592,2.04905 0.3617,2.46944 0.0658,0.4204 0.14287,0.97602 0.17131,1.23472 0.0284,0.25871 0.1051,0.86725 0.17034,1.35232 0.28023,2.08352 0.441,3.59849 0.79522,7.4934 0.0453,0.49761 0.0299,0.9116 -0.0371,0.99954 -0.0629,0.0826 -0.20693,0.4147 -0.3201,0.73808 -0.11318,0.32338 -0.25458,0.70702 -0.31423,0.85254 -0.0596,0.14552 -0.15598,0.38365 -0.21406,0.52917 -0.0581,0.14552 -0.18585,0.44979 -0.28393,0.67616 -0.44065,1.01699 -1.06282,2.55933 -1.1622,2.88102 -0.70257,2.2743 -0.89146,3.66029 -1.03368,7.58472 -0.107,2.95264 -0.26467,5.87051 -0.46704,8.64305 -0.14439,1.97813 -0.32984,5.11241 -0.41748,7.05556 -0.295,6.54121 -0.73048,9.8753 -1.58202,12.11204 -0.28972,0.761 -0.37153,1.2124 -0.36971,2.03987 10e-4,0.5087 0.0536,1.05158 0.11667,1.20641 0.0631,0.15482 0.14484,0.42332 0.18175,0.59665 0.12646,0.59388 0.29058,0.65481 1.5946,0.59201 0.75242,-0.0362 1.37477,-0.005 1.68475,0.0843 1.58334,0.4565 2.52594,0.8083 3.78417,1.41237 3.14722,1.51097 3.01348,1.43172 2.97495,1.76283 -0.0255,0.21878 -0.0946,0.29173 -0.25104,0.26501 -0.11874,-0.0203 -1.07124,-0.44706 -2.11666,-0.94841 -1.04543,-0.50134 -2.08598,-0.97957 -2.31235,-1.06272 -0.22636,-0.0832 -0.5174,-0.19593 -0.64676,-0.2506 -0.56348,-0.23817 -1.99289,-0.47654 -3.38419,-0.56434 -1.22329,-0.0772 -1.56221,-0.13883 -1.82268,-0.33144 -0.79154,-0.58531 -0.94058,-1.80956 -0.41663,-3.42231 0.19242,-0.59229 0.27303,-1.01181 0.20626,-1.0735 -0.20972,-0.19375 -2.59031,-0.93761 -4.34294,-1.35704 -2.70509,-0.64736 -2.73832,-0.65415 -3.19901,-0.65415 -0.23771,0 -0.72643,-0.0507 -1.08604,-0.11258 -0.35961,-0.0619 -1.02426,-0.17169 -1.47699,-0.24392 -1.96085,-0.31288 -3.12298,-0.85979 -3.53981,-1.66586 -0.27704,-0.53573 -0.1845,-1.83405 0.19531,-2.74014 0.0542,-0.12936 0.12444,-0.34102 0.15605,-0.47038 0.0316,-0.12935 0.0296,0.10878 -0.004,0.52917 -0.078,0.96379 0.13529,2.54491 0.37574,2.78535 0.0999,0.0999 0.35121,0.22539 0.55858,0.27897 0.20737,0.0536 0.5887,0.15779 0.8474,0.23157 0.47049,0.13418 1.21008,0.26367 2.64583,0.46325 1.56975,0.2182 3.00559,0.48084 3.88056,0.70982 0.22637,0.0592 0.72907,0.18548 1.11713,0.28053 1.16455,0.28524 1.94068,0.50767 3.10714,0.89046 0.60944,0.2 1.14264,0.32252 1.18488,0.27226 0.0422,-0.0503 0.1451,-0.3295 0.22857,-0.62054 0.0835,-0.29104 0.1985,-0.68259 0.25563,-0.8701 0.13486,-0.44262 0.13232,-0.7762 -0.006,-0.7762 -0.17674,0 -2.30289,-1.29109 -2.7156,-1.64903 -0.14741,-0.12785 -0.30754,-0.23245 -0.35584,-0.23245 -0.20549,0 -2.48123,-2.34891 -2.85672,-2.94858 -0.97835,-1.5624 -1.12874,-3.11411 -0.59945,-6.1849 0.43823,-2.54247 0.46275,-2.66876 0.81785,-4.21328 0.17843,-0.77611 0.34959,-1.58358 0.38035,-1.79438 0.0308,-0.21079 0.10299,-0.41235 0.16052,-0.44791 0.0575,-0.0355 0.1046,-0.17126 0.1046,-0.30157 0,-0.21306 0.68016,-2.78031 0.93049,-3.51216 0.0553,-0.16169 0.15913,-0.50565 0.23071,-0.76435 0.1826,-0.65997 0.68416,-2.28736 1.06913,-3.46898 0.17911,-0.54975 0.5198,-1.60808 0.75708,-2.35185 0.23729,-0.74378 0.4824,-1.4442 0.5447,-1.55651 0.0623,-0.1123 0.11326,-0.285 0.11326,-0.38377 0,-0.0988 0.05,-0.27147 0.11119,-0.38377 0.0612,-0.11231 0.24925,-0.65399 0.41798,-1.20373 0.16872,-0.54975 0.35681,-1.09142 0.41797,-1.20373 0.0611,-0.1123 0.11119,-0.27349 0.11119,-0.35818 0,-0.0847 0.22632,-0.52198 0.50293,-0.97174 1.38866,-2.25792 1.7704,-3.88091 1.90719,-8.10848 0.13813,-4.26856 0.43858,-8.09878 0.94235,-12.013 0.13537,-1.05185 0.16205,-1.61353 0.0833,-1.75423 -0.0994,-0.17763 -0.12754,-0.15365 -0.19845,0.16922 -0.0821,0.37385 -0.9585,2.59575 -1.46737,3.72023 -0.66647,1.47273 -0.89713,2.10393 -1.9552,5.35046 -0.43211,1.32586 -0.82575,2.51649 -0.87476,2.64584 -0.049,0.12935 -0.15322,0.47331 -0.23157,0.76435 -0.0784,0.29104 -0.19022,0.62105 -0.24859,0.73336 -0.0584,0.1123 -0.10613,0.29375 -0.10613,0.40322 0,0.10947 -0.05,0.36154 -0.1112,0.56016 -0.0612,0.19862 -0.19892,0.78446 -0.30613,1.30187 -0.35606,1.71836 -0.76214,2.99594 -1.32439,4.1667 -0.49112,1.02265 -1.63054,2.29971 -2.43048,2.72408 -0.29233,0.15508 -0.53151,0.35216 -0.53151,0.43796 0,0.28974 -2.17753,3.39424 -2.81963,4.01997 -0.39583,0.38572 -0.60907,0.76384 -0.76285,1.3527 -0.42722,1.63592 -0.76631,4.41912 -0.7675,6.29959 -5.2e-4,0.81384 -0.0284,1.50719 -0.062,1.54077 -0.0336,0.0336 -0.0837,1.27271 -0.11143,2.75362 -0.0614,3.28243 -0.23352,4.83952 -0.76558,6.92591 -0.2579,1.01132 -1.63024,4.56055 -1.78842,4.62531 -0.0526,0.0216 -0.10187,0.1803 -0.10938,0.35277 -0.009,0.2074 -0.0322,0.24235 -0.0683,0.10322 -0.0612,-0.23539 0.0875,-0.764 0.93285,-3.31741 0.74204,-2.2413 0.85167,-2.66687 1.07543,-4.17454 0.33175,-2.23533 0.42542,-3.229 0.43291,-4.59221 0.004,-0.74042 0.0557,-1.79601 0.11475,-2.34575 0.0591,-0.54975 0.12633,-1.87267 0.14952,-2.93982 0.0413,-1.90034 0.20416,-3.82542 0.38301,-4.52731 0.0835,-0.32766 0.0751,-0.34056 -0.11837,-0.18113 -0.21968,0.18107 -0.99074,1.26659 -1.4641,2.06121 -1.59366,2.67528 -2.93475,5.26251 -5.1818,9.99677 -1.49558,3.15101 -1.82665,3.81481 -1.90436,3.81831 -0.0945,0.004 0.47894,-1.61616 0.88995,-2.51471 0.167,-0.3651 0.30364,-0.68934 0.30364,-0.72055 0,-0.15856 3.66533,-7.63124 4.44031,-9.05268 0.44338,-0.81321 1.12216,-1.87031 1.2314,-1.91772 0.0497,-0.0216 0.0903,-0.0894 0.0903,-0.15071 0,-0.0906 1.19668,-1.77482 1.41082,-1.98555 0.0329,-0.0323 0.21559,-0.29692 0.40606,-0.58797 0.19047,-0.29104 0.40783,-0.58252 0.48304,-0.64773 0.39422,-0.34184 3.46212,-4.66366 3.46212,-4.87716 0,-0.0544 0.33073,-0.33591 0.73495,-0.62557 0.40423,-0.28966 0.84079,-0.65254 0.97014,-0.80639 0.66534,-0.79135 1.07524,-1.45727 1.50844,-2.45055 0.22496,-0.51584 1.13736,-3.52775 1.13738,-3.75462 10e-6,-0.0924 0.0491,-0.33054 0.10918,-0.52916 0.06,-0.19862 0.1959,-0.78446 0.30191,-1.30187 0.10601,-0.51741 0.2357,-1.07303 0.2882,-1.23472 0.0525,-0.16169 0.21525,-0.69086 0.36168,-1.17593 0.45287,-1.50022 1.07515,-3.45735 1.17777,-3.70417 0.0538,-0.12935 0.24187,-0.65852 0.41798,-1.17592 0.3081,-0.90521 0.49809,-1.36261 1.23671,-2.97742 0.18695,-0.40874 0.33992,-0.7665 0.33992,-0.79503 0,-0.0285 0.10303,-0.27619 0.22897,-0.55036 0.12593,-0.27417 0.34056,-0.86891 0.47695,-1.32164 0.13639,-0.45273 0.28999,-0.90252 0.34134,-0.99953 0.0841,-0.15892 -0.019,-1.08396 -0.34751,-3.11621 -0.10667,-0.65995 -0.21168,-1.24395 -0.45461,-2.52824 -0.68816,-3.63793 -0.8331,-4.83119 -0.8331,-6.8585 0,-1.67969 0.20886,-3.33508 0.4884,-3.87094 0.0878,-0.16838 -0.0143,-0.28224 -0.57293,-0.63874 -1.06009,-0.67651 -3.78002,-2.86017 -5.26822,-4.22952 -0.13061,-0.12018 -0.60665,-0.536 -1.05787,-0.92406 -2.21617,-1.90594 -2.86825,-2.51105 -5.17225,-4.7997 -1.16417,-1.15641 -2.3548,-2.39344 -2.64584,-2.74895 -0.29104,-0.35551 -0.62824,-0.76042 -0.74932,-0.89979 -0.12109,-0.13938 -0.43828,-0.54445 -0.70486,-0.90017 -0.26659,-0.35572 -0.55435,-0.69086 -0.63946,-0.74475 -0.50618,-0.32053 -1.02326,-0.90712 -1.25564,-1.42445 -0.60614,-1.34937 -0.58964,-1.06129 -0.59641,-10.41321 -0.006,-8.5999 -0.0337,-9.40569 -0.41334,-12.13456 -0.1677,-1.20527 -0.13263,-3.91327 0.064,-4.94075 0.35458,-1.853 1.21941,-3.83277 2.3335,-5.3419 0.56955,-0.7715 2.14914,-2.40028 3.91908,-4.04112 0.45347,-0.4204 1.08489,-1.10831 1.40316,-1.52871 0.31826,-0.42039 0.60512,-0.79081 0.63746,-0.82314 0.12143,-0.12144 0.49315,-0.78989 0.8501,-1.52871 0.2031,-0.42039 0.45941,-0.89664 0.56957,-1.05833 0.11016,-0.16169 0.22548,-0.55857 0.25626,-0.88195 0.0308,-0.32338 0.11945,-1.04554 0.19702,-1.6048 0.13933,-1.00452 0.0666,-2.64621 -0.2338,-5.27436 -0.30781,-2.69335 -0.26846,-3.74042 0.20326,-5.40926 0.43336,-1.53313 1.49807,-3.08401 2.39092,-3.48265 0.75469,-0.33695 0.92329,-0.40123 1.52871,-0.58281 0.35571,-0.10669 0.94132,-0.29394 1.30134,-0.41611 0.36003,-0.12218 0.82144,-0.22214 1.02536,-0.22214 0.20393,0 0.55326,-0.10249 0.7763,-0.22777 0.72631,-0.40794 1.59554,-0.59537 2.76106,-0.59537 1.05247,0 2.40958,0.22533 2.86559,0.4758 0.11231,0.0617 0.285,0.11216 0.38377,0.11216 0.0988,0 0.27147,0.0486 0.38377,0.10798 0.28965,0.15318 1.30866,0.59757 1.37025,0.59757 0.0283,0 0.45246,0.18521 0.94252,0.41158 0.49007,0.22636 1.06279,0.41215 1.27271,0.41285 1.122,0.004 2.91994,0.93293 3.93412,2.03318 1.10554,1.19937 1.14505,2.17528 0.16935,4.18298 l -0.36419,0.74938 0.26148,0.77932 c 0.54304,1.61852 0.1947,5.29782 -0.57439,6.06691 -0.20822,0.20822 -0.2488,1.08775 -0.066,1.4305 0.0645,0.12093 0.28506,0.76113 0.49013,1.42266 0.33034,1.06562 0.35693,1.25103 0.23318,1.626 -0.18378,0.55687 -0.70902,0.87437 -1.44739,0.87495 -0.47025,3.6e-4 -0.62657,0.0594 -0.91134,0.34417 -0.2868,0.2868 -0.34373,0.4396 -0.34373,0.92251 0,0.42945 -0.0607,0.63371 -0.23519,0.79163 -0.12935,0.11706 -0.23518,0.35617 -0.23518,0.53135 0,0.33386 -0.44977,0.87884 -0.82309,0.99733 -0.15076,0.0479 -0.25454,0.28431 -0.36194,0.82463 -0.16842,0.84733 -0.56224,1.33328 -1.27257,1.57027 -0.90909,0.3033 -1.49555,0.1014 -3.26697,-1.1247 -1.15449,-0.79909 -1.97782,-1.62812 -2.47904,-2.4962 -0.17081,-0.29583 -0.34613,-0.56433 -0.38961,-0.59667 -0.0435,-0.0323 -0.18147,-0.22822 -0.30666,-0.43531 l -0.22763,-0.37652 -0.48877,0.47441 c -0.49567,0.4811 -0.99885,1.39999 -1.11846,2.04252 -0.055,0.29571 0.0137,0.43996 0.42504,0.89177 0.71049,0.78041 1.63955,1.86933 1.83822,2.15452 0.0944,0.13546 0.2494,0.32568 0.34451,0.42269 0.6892,0.70295 3.18808,5.03451 3.18808,5.52622 0,0.0668 0.0512,0.2133 0.11388,0.32561 0.63397,1.13666 1.66557,5.95785 2.24532,10.49354 0.15258,1.19371 0.34573,2.44738 0.68843,4.46852 0.71167,4.19711 0.93596,6.86321 0.72543,8.62275 -0.13765,1.1504 -0.51431,3.33704 -0.72257,4.19484 -0.055,0.22637 -0.15073,0.62324 -0.21282,0.88195 -0.0621,0.2587 -0.30487,1.2112 -0.53951,2.11666 -0.5976,2.30618 -0.91916,3.82176 -0.81084,3.82176 0.0187,0 0.39288,-0.22888 0.83146,-0.50862 1.94858,-1.24286 4.00804,-1.84304 6.32427,-1.84304 2.87203,0 5.48846,1.00202 7.81991,2.99479 1.2189,1.04184 3.33209,3.30366 4.8213,5.16042 0.097,0.12095 0.22989,0.28016 0.29529,0.35379 0.0654,0.0736 0.3829,0.45137 0.70556,0.83942 0.32265,0.38806 0.61656,0.73202 0.65313,0.76435 0.0366,0.0323 0.51245,0.66734 1.05752,1.41111 1.42157,1.93979 2.05168,2.63655 3.403,3.76297 0.34915,0.29104 0.88119,0.75406 1.1823,1.02893 0.30112,0.27488 0.57737,0.49977 0.61388,0.49977 0.0365,0 0.71894,0.31089 1.51651,0.69087 2.39911,1.14298 3.76201,1.78732 4.53693,2.14495 0.40422,0.18655 1.06568,0.49177 1.4699,0.67826 0.40423,0.18649 1.31704,0.61504 2.02848,0.95233 0.71143,0.33729 1.63747,0.77254 2.05787,0.96722 2.64599,1.22533 4.01397,2.04342 5.06165,3.02704 l 0.60557,0.56854 0.84116,-0.32668 c 2.40094,-0.93245 4.49251,-1.02032 8.60226,-0.36139 2.87968,0.4617 5.25293,1.43529 6.74888,2.76863 0.84283,0.75122 2.00066,2.09808 2.0085,2.33643 0.002,0.0547 0.10293,0.2399 0.22474,0.41157 0.21483,0.30278 0.68671,1.58841 0.93462,2.5464 0.40367,1.55982 0.45808,3.93023 0.14442,6.2912 -0.0644,0.48507 -0.14825,1.14653 -0.18625,1.46991 -0.0849,0.72283 -0.63965,2.89847 -0.77806,3.05153 -0.0556,0.0614 -0.10101,0.20768 -0.10101,0.32497 0,0.1173 -0.0509,0.30515 -0.11308,0.41746 -0.0622,0.1123 -0.30335,0.75981 -0.53589,1.43891 -0.23254,0.6791 -0.46922,1.34056 -0.52596,1.46991 -0.34663,0.79026 -1.2433,3.78295 -1.55025,5.17407 -0.21061,0.95452 -0.20844,3.97968 0.003,4.52732 0.3156,0.81644 0.65053,1.42168 1.03587,1.87186 0.43903,0.5129 0.53277,1.06795 0.18037,1.06795 -0.11669,0 -0.47388,-0.16595 -0.79375,-0.36878 -0.579,-0.36714 -0.84507,-0.62262 -1.44023,-1.3829 l -0.31264,-0.39938 -0.0918,0.39938 c -0.65222,2.83839 -0.80731,4.45783 -0.76897,8.02993 0.0349,3.25658 0.0399,3.21713 -0.57006,4.49001 -0.30837,0.64345 -1.08744,1.57896 -1.31493,1.57896 -0.23139,0 -0.15895,-0.48626 0.1749,-1.17406 0.40603,-0.83648 0.45308,-0.97742 0.61141,-1.83163 0.16458,-0.88793 0.16514,-1.20649 0.004,-2.1025 -0.1978,-1.09759 -0.84385,-3.29384 -1.02252,-3.47606 -0.0317,-0.0323 -0.0255,0.23224 0.0137,0.58796 0.30064,2.72367 0.16413,4.74028 -0.41392,6.11481 -0.27678,0.65814 -0.7255,1.49223 -0.99758,1.85429 -0.54261,0.72207 -0.6333,0.20386 -0.23193,-1.32512 0.31586,-1.20321 0.21788,-2.87688 -0.22777,-3.89056 -0.18392,-0.41834 -2.68894,-4.04025 -2.79674,-4.04369 -0.056,-0.002 -0.0742,0.10253 -0.0404,0.23182 0.0338,0.12928 0.0135,0.2647 -0.0451,0.30092 -0.0586,0.0362 -0.10655,-0.04 -0.10655,-0.16933 0,-0.12935 -0.0454,-0.26327 -0.10096,-0.29758 -0.0555,-0.0343 -0.13399,-0.36817 -0.17435,-0.7419 -0.0404,-0.37372 -0.152,-1.36741 -0.24808,-2.2082 -0.19744,-1.72783 -0.24923,-6.82384 -0.0705,-6.93432 0.24184,-0.14946 0.32937,0.44283 0.39913,2.70099 0.04,1.29352 0.1325,3.1702 0.20563,4.17041 l 0.13298,1.81856 1.14533,1.53283 c 1.8978,2.53988 2.38668,3.42915 2.65438,4.82828 0.0893,0.46665 0.12983,1.04879 0.0901,1.29363 -0.0842,0.5186 0.1328,0.49042 0.23819,-0.0309 0.31294,-1.54802 0.43912,-2.65316 0.37947,-3.32343 -0.0934,-1.04967 -0.26089,-2.20061 -0.4021,-2.76343 -0.0649,-0.2587 -0.176,-0.70115 -0.24688,-0.98323 -0.0785,-0.31225 -0.0869,-0.56523 -0.0215,-0.64676 0.0674,-0.0841 10e-4,-0.48398 -0.17793,-1.07464 -0.4489,-1.48027 -0.60287,-2.5556 -0.66818,-4.6668 -0.0475,-1.53473 -0.0271,-1.99009 0.0936,-2.09027 0.23246,-0.19292 0.29863,0.0954 0.30478,1.32803 0.005,1.00506 0.30478,3.29264 0.57274,4.37071 0.0643,0.2587 0.14972,0.62912 0.18983,0.82315 0.0401,0.19403 0.11743,0.45861 0.17184,0.58796 0.0544,0.12935 0.12439,0.34102 0.15552,0.47037 0.0587,0.24368 0.7285,2.17313 0.89816,2.58704 0.053,0.12935 0.16151,0.47331 0.24111,0.76435 0.0796,0.29104 0.19785,0.68792 0.26279,0.88195 0.0649,0.19402 0.14736,1.12006 0.18315,2.05787 0.0605,1.58538 0.0754,1.67207 0.21194,1.23472 0.18597,-0.59558 0.2037,-2.80794 0.0359,-4.47558 -0.12961,-1.2878 -0.0365,-2.73074 0.26128,-4.04989 0.27343,-1.21122 0.37686,-1.62706 0.59326,-2.38537 l 0.22771,-0.79787 -0.34759,-1.08361 c -0.42371,-1.32093 -0.56601,-2.02558 -0.71752,-3.55305 -0.15058,-1.51822 -0.14212,-1.98716 0.0743,-4.11574 0.29262,-2.87781 0.27514,-2.78038 0.49094,-2.73734 0.21991,0.0439 0.21734,0.51978 -0.009,1.62021 -0.19315,0.94001 -0.18925,5.78595 0.005,6.52639 0.0849,0.32338 0.23583,0.90546 0.33529,1.29351 0.24162,0.94267 0.77635,2.03399 1.29153,2.63586 0.23143,0.27038 0.44059,0.47179 0.4648,0.44758 0.0242,-0.0242 -0.0615,-0.26243 -0.19051,-0.5294 -0.5146,-1.0651 -0.66273,-3.17609 -0.35173,-5.01256 0.1738,-1.02633 0.51093,-2.44057 0.7034,-2.95073 0.0488,-0.12936 0.23013,-0.68498 0.40294,-1.23473 0.28189,-0.89671 0.62589,-1.86993 0.89363,-2.52824 1.3469,-3.31167 1.7235,-4.81044 2.06538,-8.21956 0.33275,-3.31803 -0.20769,-5.91937 -1.66373,-8.00822 -2.09626,-3.00728 -6.56349,-4.78156 -12.04431,-4.78371 -2.05238,-8e-4 -3.05215,0.14693 -4.38032,0.64725 -0.89427,0.33687 -0.89335,0.55342 0.007,1.75574 1.05345,1.40606 1.49161,2.9589 0.9627,3.41177 -0.12936,0.11076 -0.23519,0.28559 -0.23519,0.38853 0,0.19623 -0.77815,1.5933 -0.94635,1.69906 -0.096,0.0604 -0.85902,1.63118 -1.21623,2.50395 -0.17878,0.4368 -0.15835,0.42508 0.78222,-0.44873 1.12384,-1.04406 2.16832,-1.75878 3.45826,-2.36642 1.18313,-0.55733 1.33078,-0.61484 1.68506,-0.65634 0.23929,-0.028 0.30053,0.0219 0.32918,0.2681 0.0321,0.27567 -0.041,0.33237 -0.82315,0.63874 -1.868,0.7317 -3.28046,1.62587 -4.58828,2.90464 -2.47278,2.41786 -3.78919,5.54527 -4.06946,9.66787 -0.0554,0.8154 -0.1268,1.18225 -0.23707,1.21871 -0.1286,0.0425 -0.14419,-0.19497 -0.0843,-1.28414 0.0912,-1.65992 0.3526,-3.24633 0.73357,-4.45252 0.18453,-0.58426 0.2287,-0.69456 0.67228,-1.6789 0.16839,-0.37366 0.30615,-0.70534 0.30615,-0.73708 0,-0.0317 0.21167,-0.40612 0.47037,-0.83196 0.25871,-0.42583 0.47037,-0.89466 0.47037,-1.04184 0,-0.23655 0.12787,-0.62635 0.46366,-1.41346 0.3991,-0.93552 0.49976,-1.16701 0.67752,-1.5581 0.11024,-0.24253 0.48443,-0.91703 0.83152,-1.49889 0.3471,-0.58185 0.72893,-1.34772 0.84851,-1.70194 0.19647,-0.58197 0.20078,-0.68385 0.0447,-1.05731 -0.22603,-0.54097 -0.79106,-1.41595 -1.35533,-2.09879 -0.26728,-0.32344 -0.45228,-0.67187 -0.45228,-0.85181 0,-0.48232 -1.50997,-1.87671 -2.82222,-2.6062 -0.29105,-0.16179 -0.71438,-0.39711 -0.94075,-0.52293 -0.22636,-0.12582 -0.70261,-0.35203 -1.05833,-0.50268 -1.27349,-0.53935 -3.40775,-1.52178 -6.56265,-3.02087 -0.73138,-0.34753 -1.34739,-0.63187 -1.3689,-0.63187 -0.0215,0 -0.81407,-0.37211 -1.76124,-0.82693 -0.94716,-0.45481 -1.89219,-0.85917 -2.10008,-0.89859 -0.23518,-0.0446 -0.71113,-0.36798 -1.25991,-0.85608 -0.48507,-0.43143 -1.0643,-0.93987 -1.28718,-1.12988 -1.22685,-1.04587 -1.94676,-1.82521 -3.03484,-3.28536 -0.0482,-0.0647 -0.40132,-0.54098 -0.78464,-1.05834 -0.38332,-0.51736 -0.72827,-0.96711 -0.76656,-0.99945 -0.0383,-0.0323 -0.43693,-0.50858 -0.88586,-1.05833 -2.21897,-2.71727 -4.93042,-5.50462 -6.52025,-6.70278 -0.46251,-0.34856 -1.7797,-1.06323 -2.36048,-1.28072 -0.22637,-0.0848 -0.51741,-0.19587 -0.64676,-0.2469 -0.9302,-0.36695 -3.03768,-0.62944 -4.23213,-0.5271 -1.00488,0.0861 -2.66464,0.40618 -2.81755,0.54337 -0.0614,0.0551 -0.18028,0.10024 -0.26408,0.10024 -0.2688,0 -1.89912,0.80201 -2.59533,1.27672 -1.29016,0.87972 -2.57302,2.14625 -3.25048,3.20914 l -0.19843,0.31132 0.93487,0.65882 c 0.51417,0.36235 1.00883,0.65882 1.09923,0.65882 0.0904,0 0.21463,0.0465 0.27608,0.10341 0.11286,0.10448 1.42157,0.37431 2.93393,0.60491 1.48358,0.22622 1.93117,0.35305 2.91356,0.82559 0.72288,0.34771 1.23019,0.86796 1.67908,1.72191 0.4412,0.83934 0.83431,1.06125 4.16801,2.35286 0.74377,0.28816 1.51106,0.59265 1.70509,0.67664 0.19403,0.084 0.85549,0.35592 1.46991,0.60431 0.99395,0.40181 2.43921,1.10579 3.82176,1.86157 0.2587,0.14142 0.76141,0.37933 1.11713,0.52867 0.35572,0.14935 0.85842,0.36555 1.11713,0.48044 0.2587,0.11489 0.89345,0.38387 1.41056,0.59773 1.12209,0.46408 3.15889,1.49749 3.78537,1.92058 0.70058,0.47313 9.81965,9.37807 11.18095,10.91839 0.7813,0.88406 2.04975,2.5308 2.7203,3.53161 0.56798,0.8477 0.71916,1.34636 0.4275,1.41006 -0.0623,0.0136 -0.48822,-0.5139 -0.94649,-1.17225 -1.68541,-2.42125 -4.42729,-5.40984 -8.23004,-8.97056 -0.58209,-0.54504 -1.98438,-1.89368 -3.11621,-2.99698 -1.91445,-1.86621 -2.13663,-2.0449 -3.18808,-2.56403 -0.62161,-0.3069 -1.16924,-0.55801 -1.21695,-0.55801 -0.0477,0 -0.27995,-0.0848 -0.51609,-0.18838 -0.48584,-0.21317 -0.68032,-0.29379 -1.42888,-0.59236 -0.58995,-0.2353 -3.06181,-1.48761 -3.88055,-1.966 -1.25551,-0.73358 -3.19291,-1.6289 -4.99769,-2.30956 -0.71143,-0.26832 -1.39935,-0.5323 -1.5287,-0.58663 -0.12935,-0.0543 -0.65852,-0.26732 -1.17593,-0.47333 -0.51741,-0.206 -1.33761,-0.55955 -1.82268,-0.78566 -0.48507,-0.22611 -1.14653,-0.51605 -1.46991,-0.64432 -0.32338,-0.12827 -0.77317,-0.3217 -0.99954,-0.42983 -0.23646,-0.11297 -0.69811,-0.19662 -1.08506,-0.19662 -0.57828,0 -0.7193,0.0458 -0.99757,0.3241 -0.27866,0.27865 -0.32403,0.41879 -0.32364,0.99953 9.4e-4,1.38005 0.89219,3.00406 1.9533,3.55921 0.72752,0.38063 3.84335,1.93215 5.97982,2.97764 1.92385,0.94144 3.48266,1.82606 4.64491,2.63596 0.51741,0.36055 0.9672,0.69277 0.99954,0.73828 0.10446,0.14699 1.74212,1.1713 1.87267,1.1713 0.0695,0 0.1264,0.0529 0.1264,0.11759 0,0.0647 0.0514,0.1176 0.11411,0.1176 0.0628,0 0.41995,0.13531 0.79375,0.30068 0.3738,0.16538 0.78548,0.34504 0.91483,0.39925 1.23008,0.51553 2.05787,1.01156 2.05787,1.23314 0,0.0455 0.0661,0.14904 0.14699,0.22999 0.0808,0.081 0.30574,0.34772 0.49977,0.59282 0.19402,0.2451 0.47563,0.58519 0.62578,0.75576 0.15015,0.17056 0.41443,0.49532 0.58729,0.72169 0.17286,0.22637 0.34272,0.43803 0.37747,0.47037 0.092,0.0856 2.58148,3.26837 2.98935,3.82185 0.19061,0.25866 0.37692,0.49674 0.41402,0.52908 0.0371,0.0323 0.43621,0.5615 0.88691,1.17592 0.45071,0.61442 0.88652,1.1874 0.96847,1.27329 0.082,0.0859 0.20568,0.26206 0.27494,0.39148 0.0693,0.12943 0.19748,0.32374 0.28491,0.4318 0.0874,0.10807 0.49092,0.64628 0.89666,1.19603 2.18225,2.95679 3.65034,4.22098 5.80531,4.99901 0.40296,0.14549 1.86277,0.40996 2.26366,0.41011 0.34621,1.2e-4 0.38217,0.0333 0.38217,0.35291 0,0.34741 -0.009,0.35275 -0.61736,0.35098 -0.33955,-10e-4 -1.03673,-0.10747 -1.54929,-0.23661 -0.90529,-0.22809 -2.20297,-0.77541 -2.28227,-0.96259 -0.0216,-0.0509 -0.0968,-0.0925 -0.16713,-0.0925 -0.0704,0 -0.2247,-0.0876 -0.34298,-0.19461 -0.18247,-0.16514 -0.21504,-0.16799 -0.21504,-0.0188 0,0.11771 -0.22349,0.22699 -0.67616,0.33063 -0.37189,0.0851 -1.23178,0.4166 -1.91088,0.73659 -2.03563,0.95918 -2.63857,1.14541 -3.70366,1.14397 -2.71679,-0.004 -4.43084,-1.57126 -5.33463,-4.87882 -0.18306,-0.66995 -0.36912,-2.05938 -0.36912,-2.75655 0,-0.45476 -0.0422,-0.59484 -0.17938,-0.59484 -0.41,0 -3.81141,-1.95516 -4.28914,-2.46543 -0.0323,-0.0345 -0.30679,-0.26204 -0.6099,-0.50554 -0.30312,-0.24351 -0.93812,-0.80765 -1.41112,-1.25365 -0.61653,-0.58134 -0.87186,-0.75819 -0.90192,-0.62469 -0.0231,0.10242 0.016,1.11635 0.0869,2.25318 0.31043,4.98005 0.25094,14.95284 -0.0983,16.47206 -0.36981,1.60887 -0.85901,2.77574 -1.52828,3.64537 -0.17421,0.22637 -0.37468,0.57033 -0.44549,0.76435 -0.0708,0.19403 -0.2697,0.74966 -0.44198,1.23473 -0.31531,0.88773 -0.39763,1.10686 -0.61847,1.64629 -0.15267,0.37292 -1.08543,3.235 -1.2072,3.70417 -0.0504,0.19403 -0.25579,0.9084 -0.45652,1.5875 -0.20073,0.6791 -0.42381,1.44639 -0.49574,1.70509 -0.0719,0.25871 -0.17143,0.60266 -0.2211,0.76435 -0.22615,0.73613 -0.36505,1.30244 -1.00947,4.11574 -0.0963,0.4204 -0.22211,0.94956 -0.27959,1.17593 -0.0575,0.22637 -0.16573,0.72907 -0.24055,1.11713 -0.0748,0.38806 -0.18102,0.91722 -0.23599,1.17593 -0.40028,1.8839 -0.43633,5.22256 -0.0707,6.55153 0.5915,2.15016 1.8106,3.63314 4.89375,5.95302 1.39131,1.04687 1.64563,1.19476 2.05787,1.19667 1.37622,0.006 2.28092,1.51985 1.55261,2.59736 -0.25682,0.37995 -0.30445,0.39946 -0.97014,0.39734 -0.63765,-0.002 -1.97937,-0.21626 -3.3459,-0.53426 -0.29104,-0.0677 -0.74083,-0.17026 -0.99953,-0.22787 -1.28087,-0.2852 -3.65501,-0.8889 -4.29213,-1.09141 -0.29105,-0.0925 -0.74084,-0.22714 -0.99954,-0.29917 -2.40419,-0.66945 -4.08603,-1.16497 -4.50345,-1.32687 -0.3699,-0.14347 -0.72942,-0.13161 -0.72942,0.0241 0,0.35076 1.01143,1.51746 1.31552,1.51746 0.11725,0 0.21318,0.051 0.21318,0.11342 0,0.0624 0.51594,0.63581 1.14653,1.27428 1.29207,1.30822 3.66675,2.96412 4.3655,3.04413 0.46195,0.0529 1.3045,0.59819 1.58444,1.02543 0.30945,0.47228 0.25716,1.35648 -0.1032,1.74512 -0.16362,0.17645 -0.42156,0.35196 -0.57321,0.39002 -0.15166,0.0381 -0.33416,0.19743 -0.40556,0.35414 -0.0754,0.16539 -0.23004,0.28494 -0.36868,0.28494 -0.13137,0 -0.32948,0.10583 -0.44023,0.23518 -0.23216,0.27115 -1.14722,0.33586 -1.24715,0.0882 -0.0384,-0.0953 -0.0626,-0.081 -0.0686,0.0406 -0.0234,0.47378 -0.76485,0.74516 -1.1054,0.40461 -0.15117,-0.15117 -0.17954,-0.144 -0.23258,0.0588 -0.0663,0.25358 -0.47087,0.30581 -0.81509,0.10524 z m 0.30358,-0.75948 c -0.0379,-0.0988 -0.18178,-0.23828 -0.31969,-0.30994 -0.23066,-0.11985 -0.22791,-0.10546 0.0343,0.17966 0.32792,0.35651 0.38157,0.38101 0.28536,0.13028 z m 11.90277,-7.27907 c 0.57734,-0.57734 -0.49462,-1.66216 -1.41434,-1.43132 -0.21415,0.0538 -0.38895,-0.0133 -0.67616,-0.25933 -0.21304,-0.1825 -0.57255,-0.45819 -0.79891,-0.61264 -0.22637,-0.15445 -0.43804,-0.31013 -0.47037,-0.34595 -0.0323,-0.0358 -0.36273,-0.29118 -0.73419,-0.56746 -1.19414,-0.88815 -2.51678,-2.21935 -3.35518,-3.37689 -0.28791,-0.3975 -0.74022,-1.40978 -0.94578,-2.11667 -0.67417,-2.31837 -0.66596,-3.49928 0.056,-8.05509 0.15887,-1.00248 0.33267,-1.98143 0.38622,-2.17546 0.0536,-0.19403 0.16438,-0.67028 0.24628,-1.05834 0.1199,-0.56809 0.62234,-2.60684 1.11573,-4.52731 0.0415,-0.16169 0.1182,-0.39981 0.17036,-0.52917 0.0521,-0.12935 0.15692,-0.47331 0.2328,-0.76435 0.27144,-1.04097 1.78546,-5.62344 2.11743,-6.4088 0.0547,-0.12935 0.20526,-0.52622 0.33463,-0.88194 0.12938,-0.35572 0.31974,-0.87273 0.42304,-1.14891 0.1033,-0.27618 0.18782,-0.62031 0.18782,-0.76472 0,-0.14442 0.18957,-0.527 0.42126,-0.85017 0.70578,-0.98446 1.06094,-1.80621 1.42289,-3.29222 0.24676,-1.01312 0.34093,-9.27934 0.15003,-13.17037 -0.0793,-1.6169 -0.16815,-3.53501 -0.19738,-4.26248 l -0.0531,-1.32267 -1.07762,-0.9696 c -0.59269,-0.53327 -1.77722,-1.66382 -2.63228,-2.51232 -0.85507,-0.8485 -1.57052,-1.52688 -1.58988,-1.50752 -0.0194,0.0194 0.0177,0.66032 0.0823,1.42434 0.36202,4.281 -0.10393,16.30834 -0.77132,19.90997 -0.0659,0.35572 -0.17354,0.9378 -0.23916,1.29352 -0.41893,2.27089 -1.34025,5.17408 -1.64199,5.17408 -0.0649,0 -0.19979,0.19843 -0.29967,0.44097 -0.18697,0.45402 -0.38678,0.92051 -0.68031,1.58832 -0.47371,1.07774 -1.5333,3.75681 -1.84062,4.65389 -0.19203,0.56052 -0.40066,1.11102 -0.46361,1.22332 -0.063,0.11231 -0.11446,0.28501 -0.11446,0.38377 0,0.0988 -0.0508,0.27147 -0.11296,0.38378 -0.0947,0.17116 -0.41594,1.22186 -0.76354,2.49724 -0.0441,0.16169 -0.13345,0.47919 -0.19864,0.70556 -0.13626,0.47317 -0.27766,1.09988 -0.43776,1.94028 -0.0616,0.32338 -0.14721,0.72628 -0.19023,0.89534 -0.0617,0.24236 -0.0306,0.31985 0.14708,0.3663 0.19784,0.0517 0.23368,0.20777 0.29403,1.28012 0.1451,2.57808 -0.17441,4.81033 -0.99955,6.98324 -0.40243,1.05976 -0.53419,1.27004 -0.7451,1.1891 -0.17805,-0.0683 -0.26946,0.26287 -0.41827,1.51553 -0.22104,1.86068 -0.25674,3.358 -0.10058,4.21872 0.18169,1.00148 0.25608,1.1656 0.54326,1.19859 0.12036,0.0138 0.85383,0.22059 1.62995,0.45948 0.77611,0.23888 1.56986,0.47978 1.76388,0.53533 0.57454,0.1645 1.15597,0.32813 1.46991,0.4137 0.25125,0.0685 1.31891,0.36902 2.64584,0.74479 0.97773,0.27689 1.39208,0.38193 2.52824,0.64093 0.67909,0.1548 1.55222,0.34486 1.94027,0.42235 0.38806,0.0775 0.86807,0.19063 1.06669,0.25142 0.19862,0.0608 0.51612,0.11424 0.70555,0.11878 0.18944,0.005 0.45026,0.0538 0.57962,0.10933 0.37552,0.16137 1.11892,0.13259 1.30191,-0.0504 z m -23.07821,-5.62345 c 0.25299,-1.80652 0.41415,-3.51332 0.49686,-5.26227 0.0839,-1.77329 0.31298,-5.76892 0.63047,-10.99491 0.0629,-1.03481 0.17301,-3.62773 0.24475,-5.76203 0.0718,-2.13431 0.1809,-4.13595 0.24256,-4.4481 0.0617,-0.31214 0.11212,-0.75579 0.11212,-0.98589 0,-0.2301 0.0491,-0.60971 0.10905,-0.84357 0.06,-0.23387 0.19638,-0.8221 0.30311,-1.30717 0.18027,-0.8193 0.93742,-2.92275 1.30707,-3.63117 0.0884,-0.1695 0.16113,-0.34844 0.16153,-0.39765 3.9e-4,-0.0492 0.11183,-0.34026 0.24762,-0.64676 0.42865,-0.9675 0.61559,-1.47853 0.79739,-2.1798 0.13427,-0.51792 -0.0229,-2.50655 -0.55936,-7.07934 -0.0607,-0.51741 -0.14015,-1.12595 -0.17654,-1.35231 -0.0364,-0.22637 -0.20011,-1.41699 -0.36381,-2.64584 -0.1637,-1.22884 -0.35049,-2.45991 -0.41509,-2.73571 -0.0646,-0.2758 -0.12081,-0.7256 -0.12491,-0.99954 -0.007,-0.45885 -0.0172,-0.47492 -0.13106,-0.2041 -0.29965,0.71266 -0.84576,7.46875 -1.04084,12.87639 -0.12818,3.55305 -0.26309,4.32547 -1.01385,5.80458 -0.24307,0.4789 -0.49727,0.93125 -0.56488,1.00523 -0.55849,0.61106 -0.67407,0.88874 -1.64409,3.94991 -0.23569,0.74378 -0.47396,1.45815 -0.52949,1.5875 -0.0555,0.12935 -0.21661,0.63206 -0.35794,1.11713 -0.536,1.83954 -0.8532,2.88901 -0.94187,3.11621 -0.0505,0.12935 -0.2355,0.76435 -0.41116,1.41111 -0.17565,0.64676 -0.35949,1.30821 -0.40854,1.4699 -0.15466,0.50995 -0.41349,1.41935 -0.95381,3.35139 -0.19897,0.71144 -0.40772,1.45227 -0.46389,1.6463 -0.0562,0.19403 -0.15802,0.55122 -0.22634,0.79375 -0.0683,0.24253 -0.18066,0.63941 -0.24964,0.88194 -0.50122,1.7624 -0.81911,3.54291 -0.88704,4.96829 -0.13087,2.74608 0.26457,3.84879 2.00133,5.58076 0.58795,0.58632 1.17483,1.14603 1.30418,1.24378 0.66065,0.49927 1.80221,1.28935 1.86293,1.28935 0.038,0 0.3195,0.15875 0.62545,0.35278 0.30595,0.19403 0.61842,0.35278 0.69437,0.35278 0.0866,0 0.20722,-0.4936 0.32336,-1.32292 z m 8.06365,-7.26134 c 0.0869,-0.29104 0.2017,-0.66146 0.25515,-0.82315 0.30826,-0.93261 0.46351,-2.27604 0.46351,-4.01073 0,-1.76878 -0.12092,-2.40054 -0.27331,-1.42793 -0.038,0.24254 -0.12694,0.78493 -0.19765,1.20533 -0.3787,2.25139 -0.94215,6.15738 -0.93298,6.46759 0.007,0.2387 0.48905,-0.7538 0.68528,-1.41111 z m 29.26837,-32.44513 c 0.44485,-0.18344 1.06168,-0.4747 1.37073,-0.64724 0.30905,-0.17254 0.91328,-0.43203 1.34273,-0.57665 0.42945,-0.14461 0.80065,-0.30755 0.82489,-0.36208 0.0242,-0.0545 -0.2938,-0.44995 -0.70676,-0.87871 -0.41297,-0.42875 -1.08477,-1.22934 -1.4929,-1.77908 -0.40813,-0.54975 -0.8057,-1.07892 -0.88349,-1.17593 -0.0778,-0.097 -0.40298,-0.5468 -0.72264,-0.99954 -0.31966,-0.45273 -0.61121,-0.8496 -0.64788,-0.88194 -0.0367,-0.0323 -0.27486,-0.34984 -0.52929,-0.70556 -0.25444,-0.35571 -0.49082,-0.67321 -0.52529,-0.70555 -0.0345,-0.0323 -0.38018,-0.48147 -0.76823,-0.99806 -1.11783,-1.4881 -3.94562,-5.04847 -5.14788,-6.48151 -0.77602,-0.92499 -0.82699,-0.96174 -1.94028,-1.39922 -1.16666,-0.45845 -2.92785,-1.3214 -3.21708,-1.5763 -0.39677,-0.34967 -3.0598,-2.19239 -3.77306,-2.61081 -0.43469,-0.255 -1.59886,-0.8617 -2.58704,-1.34821 -0.98818,-0.48651 -2.00263,-0.98911 -2.25432,-1.11689 -0.25169,-0.12777 -0.48388,-0.20605 -0.51599,-0.17394 -0.0321,0.0321 0.005,0.31125 0.0829,0.62032 0.39972,1.59024 0.52977,2.21456 0.77832,3.7364 0.17878,1.09456 0.22665,1.21586 0.69614,1.76389 0.90932,1.06142 2.26123,2.36982 4.13168,3.99868 0.0743,0.0647 0.63197,0.59384 1.23935,1.17593 2.81338,2.69624 4.13248,3.72066 6.04196,4.6922 0.7102,0.36135 1.32644,0.65728 1.36943,0.65763 0.043,3.5e-4 0.11606,-0.40948 0.16239,-0.91071 0.10059,-1.08823 0.24076,-1.5354 0.4239,-1.35226 0.0758,0.0758 0.0975,0.33116 0.0541,0.63651 -0.49394,3.47677 0.22743,6.74036 1.87479,8.48182 0.56732,0.59972 1.70001,1.21258 2.40435,1.30089 0.88988,0.11158 2.09891,-0.0478 2.91452,-0.38408 z m -24.58482,-25.23713 c 0.42619,-0.17808 0.42756,-0.18087 0.17472,-0.35797 -0.14016,-0.0982 -0.59787,-0.33902 -1.01714,-0.53522 -0.88101,-0.41227 -1.34314,-0.8889 -1.78219,-1.8381 -1.02029,-2.2058 -0.80845,-3.9975 0.54121,-4.57732 0.48758,-0.20947 1.2145,-0.0755 2.15775,0.39753 0.31364,0.1573 0.59574,0.26052 0.62689,0.22937 0.1078,-0.1078 -0.19688,-0.5282 -0.68663,-0.94741 -0.69621,-0.59593 -1.73114,-0.95888 -3.56792,-1.25129 -0.32338,-0.0515 -0.93192,-0.14856 -1.35232,-0.21573 -1.38378,-0.22112 -2.70463,-0.6926 -2.70463,-0.96543 0,-0.0589 -0.075,-0.1071 -0.16659,-0.1071 -0.0916,0 -0.18422,-0.0397 -0.20578,-0.0882 -0.0216,-0.0485 -0.33024,-0.30513 -0.68596,-0.57029 -0.65579,-0.48883 -2.35764,-2.11675 -2.99996,-2.86963 -0.91699,-1.07483 -1.45847,-1.75931 -2.08435,-2.63477 -0.37412,-0.5233 -0.75582,-1.0573 -0.84823,-1.18665 -0.60031,-0.84031 -2.41653,-3.62482 -2.41653,-3.70485 0,-0.0535 -0.0464,-0.11495 -0.10302,-0.13651 -0.0567,-0.0216 -0.35711,-0.43607 -0.66767,-0.92114 -0.31057,-0.48507 -0.59674,-0.9084 -0.63595,-0.94074 -0.0392,-0.0323 -0.33087,-0.42921 -0.64814,-0.88194 -0.31728,-0.45274 -0.60831,-0.84961 -0.64674,-0.88195 -0.0384,-0.0323 -0.27976,-0.32143 -0.53627,-0.64244 -0.25651,-0.321 -0.72362,-0.86003 -1.03803,-1.19784 -0.83105,-0.89291 -0.92963,-1.05638 -0.79204,-1.31345 0.21951,-0.41018 0.5411,-3.79995 0.66022,-6.95923 0.0953,-2.52883 0.17269,-3.26623 0.3158,-3.01052 0.0738,0.13182 0.0944,1.07503 0.055,2.52189 -0.057,2.09692 -0.13345,3.30121 -0.40631,6.40009 -0.0538,0.61085 -0.0456,1.11427 0.02,1.23472 0.0609,0.11185 0.36984,0.48887 0.68646,0.83783 0.31661,0.34897 0.90934,1.06334 1.31717,1.5875 0.75637,0.97212 3.59545,5.06969 3.59545,5.18922 0,0.0362 0.0541,0.12977 0.12024,0.20789 0.0661,0.0781 0.59367,0.84066 1.1723,1.69455 0.57863,0.85388 1.12928,1.64763 1.22366,1.76389 0.0944,0.11625 0.50137,0.6347 0.90441,1.15211 0.71632,0.91958 3.13282,3.46898 3.28814,3.46898 0.0431,0 0.27247,-0.2924 0.50976,-0.64978 0.23728,-0.35739 0.79036,-1.03207 1.22905,-1.49931 0.75635,-0.80556 0.80518,-0.89213 0.94355,-1.67267 0.0802,-0.45273 0.19983,-1.06128 0.26573,-1.35232 0.0659,-0.29104 0.1667,-0.74083 0.22402,-0.99953 0.20153,-0.90969 0.46316,-2.01137 0.76797,-3.2338 0.65031,-2.60801 0.85963,-3.6733 1.0045,-5.11212 0.21251,-2.1107 -0.0628,-5.20452 -0.87397,-9.82214 -0.0966,-0.54975 -0.26319,-1.71391 -0.37025,-2.58704 -0.10707,-0.87312 -0.24396,-1.77884 -0.3042,-2.01271 -0.0602,-0.23387 -0.10954,-0.5903 -0.10954,-0.79207 0,-0.20176 -0.0508,-0.5925 -0.1128,-0.8683 -0.062,-0.2758 -0.16721,-0.7925 -0.23372,-1.14821 -0.24834,-1.32834 -0.50955,-2.54794 -0.68001,-3.175 -0.0967,-0.35572 -0.20243,-0.79293 -0.23496,-0.97158 -0.0325,-0.17865 -0.10596,-0.35375 -0.16318,-0.38912 -0.0572,-0.0354 -0.10403,-0.15498 -0.10403,-0.26582 0,-0.24477 -0.60294,-1.83581 -1.03244,-2.72441 -0.78815,-1.63063 -1.63198,-2.90542 -3.15248,-4.7625 -1.12021,-1.36819 -1.60305,-1.84828 -1.82752,-1.81716 -0.40318,0.0559 -0.45515,-0.0137 -0.45515,-0.60924 0,-1.24112 0.56255,-2.64854 1.38939,-3.47605 0.52009,-0.52051 0.53565,-0.59489 0.26581,-1.2707 -0.24908,-0.6238 -0.35692,-1.16265 -0.47367,-2.36685 -0.11922,-1.22964 -0.0914,-1.69009 0.10217,-1.69009 0.0454,0 0.15113,0.56885 0.23489,1.26412 0.0838,0.69526 0.2064,1.44933 0.27256,1.67569 0.2258,0.77263 0.70951,1.89307 0.97987,2.26974 0.14847,0.20685 0.44562,0.71992 0.66034,1.14016 0.59402,1.1626 1.8592,2.33002 3.6642,3.38107 0.61276,0.35682 1.79612,0.37508 2.16289,0.0334 0.26277,-0.2448 0.28381,-0.29784 0.50328,-1.26846 0.0768,-0.33975 0.18728,-0.64714 0.24545,-0.6831 0.16865,-0.10423 0.12489,-0.25611 -0.1588,-0.55118 -0.56906,-0.59189 -0.67968,-0.76542 -0.60762,-0.95321 0.0462,-0.12053 0.20833,-0.1934 0.43017,-0.1934 0.40063,0 1.25169,-0.22186 1.46341,-0.38149 0.0767,-0.0578 0.17623,-0.27268 0.2212,-0.47745 0.045,-0.20478 0.15766,-0.48814 0.2504,-0.62968 0.14743,-0.22501 0.1455,-0.30207 -0.0154,-0.61324 -0.23531,-0.45505 -0.23282,-0.77179 0.009,-1.14085 0.23888,-0.36457 0.55443,-0.54191 0.79798,-0.44845 0.26876,0.10313 0.22668,0.27092 -0.099,0.39474 -0.33993,0.12925 -0.48102,0.49629 -0.31209,0.81193 0.12219,0.22832 0.52268,0.22884 0.66358,8.5e-4 0.0351,-0.0569 0.22449,-0.10339 0.42075,-0.10339 0.25795,0 0.37389,0.0652 0.41835,0.23518 0.0338,0.12935 0.10441,0.23519 0.15685,0.23519 0.15449,0 0.58339,-0.60312 0.57574,-0.80961 -0.004,-0.10446 -0.2335,-0.87785 -0.5103,-1.71864 l -0.50325,-1.5287 -0.42108,0.0333 c -0.2316,0.0183 -0.45488,-0.0214 -0.49618,-0.0882 -0.0413,-0.0668 -0.17968,-0.12152 -0.30749,-0.12152 -0.30727,0 -0.81207,-0.33734 -0.81207,-0.54269 0,-0.20881 0.12122,-0.20492 0.82909,0.0266 0.72641,0.23759 1.0262,0.15701 1.43457,-0.38562 0.48417,-0.64335 0.43255,-0.81377 -0.31208,-1.03024 -0.91065,-0.26473 -1.13254,-0.23469 -1.65888,0.22458 -0.45362,0.39583 -0.76307,0.52239 -0.76307,0.3121 0,-0.1928 0.47523,-0.70523 0.89414,-0.96413 0.36656,-0.22655 0.52191,-0.25004 1.22292,-0.18489 0.44166,0.041 0.87981,0.1041 0.97366,0.14012 0.38151,0.14639 0.56571,-1.74446 0.30925,-3.17442 -0.19488,-1.0866 -0.50438,-1.63856 -1.02343,-1.8252 -0.23994,-0.0863 -0.90684,-0.38719 -1.482,-0.66868 -1.10968,-0.5431 -1.53453,-0.6098 -2.3508,-0.36906 -0.59319,0.17495 -0.67058,0.2478 -1.0905,1.02655 -0.56552,1.04878 -1.04175,1.50581 -2.09574,2.01124 -0.53313,0.25566 -1.02429,0.46483 -1.09146,0.46483 -0.25178,0 -0.94581,0.83718 -1.28811,1.55378 -0.45148,0.94518 -0.88455,1.459 -1.29631,1.53805 -0.42328,0.0813 -0.61865,-0.093 -0.61865,-0.5518 0,-0.26776 -0.10153,-0.46008 -0.36487,-0.69116 -0.42224,-0.3705 -0.45828,-0.38181 -0.45828,-0.14377 0,0.1271 -0.13015,0.17638 -0.46579,0.17638 -0.32774,0 -0.53686,0.0763 -0.70556,0.25736 -0.29821,0.3201 -0.29807,0.41881 0.001,0.85977 0.38546,0.56793 0.58874,1.12877 0.56059,1.54668 -0.0193,0.28608 0.0582,0.47782 0.29165,0.72143 0.18475,0.19284 0.31788,0.46454 0.31788,0.64875 0,0.3969 -0.0799,0.39705 -0.49334,9.6e-4 -0.25719,-0.24641 -0.32981,-0.27326 -0.32981,-0.12198 0,0.23052 -1.17877,1.05557 -1.76389,1.2346 -0.22637,0.0693 -0.78199,0.16171 -1.23472,0.20546 -0.54116,0.0523 -1.07133,0.19887 -1.54761,0.42789 -0.83177,0.39996 -1.51176,0.45361 -1.96717,0.15521 -0.17288,-0.11327 -0.33714,-0.18313 -0.36502,-0.15525 -0.0279,0.0279 -0.31196,0.56077 -0.63127,1.18417 -0.31932,0.62341 -0.63907,1.20307 -0.71056,1.28815 -0.0715,0.0851 -0.3583,0.4559 -0.63736,0.82406 -0.70192,0.92606 -1.32093,1.5813 -2.14243,2.26781 -1.06427,0.8894 -2.53605,2.38931 -3.11803,3.17762 -0.28648,0.38806 -0.54764,0.73201 -0.58035,0.76435 -0.15999,0.15819 -1.12064,2.01061 -1.21966,2.35185 -0.72828,2.50991 -0.8107,3.91735 -0.4567,7.79819 0.19907,2.18232 0.26644,7.7697 0.16119,13.36848 -0.10191,5.42102 0.37064,8.12892 1.53753,8.81064 0.17435,0.10186 0.61808,0.58207 0.98607,1.06714 1.3772,1.81538 4.31111,4.88269 6.75202,7.05904 0.61442,0.54783 1.14358,1.02302 1.17592,1.05598 0.0323,0.033 0.90547,0.79805 1.94028,1.70019 1.03481,0.90214 1.90794,1.67095 1.94028,1.70846 0.205,0.2378 2.29494,1.87722 2.98803,2.34391 0.45855,0.30876 1.52532,0.90428 2.37061,1.32337 1.63378,0.81003 2.66336,1.50963 3.12138,2.121 1.15164,1.53723 2.84216,3.27622 3.8507,3.9611 1.18205,0.80272 2.35892,1.03799 3.27583,0.65488 z m -21.347,-39.41983 c -0.17177,-0.33897 -0.42162,-3.32177 -0.28933,-3.45406 0.18665,-0.18665 0.36557,0.75454 0.43308,2.27813 0.0337,0.75995 0.0386,1.38172 0.0109,1.38172 -0.0277,0 -0.0973,-0.0926 -0.15462,-0.20579 z m -0.35351,-5.52685 c 0.0458,-1.23559 0.24638,-1.9987 0.50831,-1.93403 0.1536,0.0379 0.12412,0.46886 -0.10617,1.55185 -0.10314,0.48507 -0.1876,1.05393 -0.18767,1.26412 -8e-5,0.2102 -0.0589,0.38218 -0.13074,0.38218 -0.0906,0 -0.11623,-0.38769 -0.0837,-1.26412 z m 18.60499,-15.14967 c 0.13746,-0.35823 0.0684,-0.49074 -0.29348,-0.56312 -0.5507,-0.11014 -0.64485,0.0332 -0.26607,0.40496 0.39522,0.38793 0.46393,0.40735 0.55955,0.15816 z m -15.4699,-5.3807 c 0.57472,-0.25045 1.27541,-0.44393 1.93492,-0.53428 0.93341,-0.12787 1.83981,-0.47047 2.25279,-0.8515 0.0614,-0.0567 0.21155,-0.10306 0.33356,-0.10306 0.17302,0 0.10341,-0.12295 -0.31625,-0.55857 -0.66924,-0.69469 -0.88848,-1.14492 -1.03916,-2.13402 -0.1875,-1.23084 0.15952,-2.11887 0.9899,-2.53312 0.47971,-0.23931 0.78152,-0.23113 1.21448,0.0329 0.59322,0.36176 1.35726,1.19358 1.42988,1.55672 0.079,0.39507 0.37937,0.45698 0.69342,0.14294 0.1103,-0.1103 0.34423,-0.52041 0.51985,-0.91134 0.4776,-1.06315 0.84212,-1.42091 2.04439,-2.00646 1.26552,-0.61636 1.5296,-0.84342 2.29279,-1.97137 0.66625,-0.98468 0.92502,-1.24077 1.37545,-1.36124 l 0.32668,-0.0874 0.008,-1.22876 c 0.008,-1.19992 -7.9e-4,-1.24169 -0.37309,-1.77948 -0.20969,-0.3029 -0.47999,-0.58206 -0.60067,-0.62036 -0.12069,-0.0383 -0.31547,-0.17578 -0.43286,-0.30549 -0.19035,-0.21033 -0.19423,-0.25505 -0.0359,-0.41341 0.39249,-0.39248 1.31883,0.36538 1.68239,1.37641 0.16245,0.45176 0.19892,0.83144 0.16168,1.68309 l -0.0481,1.09973 0.55319,0.0734 c 0.30425,0.0404 0.89555,0.24872 1.314,0.46301 1.39249,0.7131 2.06158,0.94426 2.25898,0.78044 0.0967,-0.0803 0.17579,-0.19291 0.17579,-0.25037 0,-0.0575 0.10391,-0.3288 0.23091,-0.60296 0.55933,-1.20746 0.51219,-2.07213 -0.1508,-2.76597 -0.96798,-1.01301 -2.90461,-2.02465 -3.87588,-2.02465 -0.26218,0 -0.85298,-0.20046 -1.52088,-0.51603 -1.19167,-0.56304 -2.32448,-1.00726 -3.15002,-1.23525 -0.29104,-0.0804 -0.69168,-0.19547 -0.89029,-0.25576 -0.689,-0.20916 -2.50058,-0.13152 -3.27642,0.14041 -0.39236,0.13753 -0.7727,0.29709 -0.8452,0.35459 -0.0725,0.0575 -0.57521,0.20678 -1.11713,0.33175 -0.54192,0.12496 -1.18375,0.2829 -1.42629,0.35097 -0.24253,0.0681 -0.6288,0.1717 -0.85838,0.23029 -1.27234,0.3247 -2.42334,1.27466 -2.93425,2.42171 -0.5399,1.21216 -0.68698,2.10678 -0.67668,4.11574 0.005,1.03482 0.0672,2.35774 0.13745,2.93982 0.35548,2.94389 0.41147,4.05577 0.25358,5.03614 -0.29951,1.85973 -0.29952,1.85795 0.007,2.09386 0.15327,0.11787 0.32302,0.21548 0.37722,0.21692 0.0542,0.001 0.50399,-0.17407 0.99953,-0.39002 z m 1.49252,-11.55263 c -0.54994,-1.31619 0.26156,-3.34748 1.48358,-3.7136 0.51645,-0.15474 0.80592,-0.0715 0.80592,0.23167 0,0.21272 -0.43098,0.49294 -0.75813,0.49294 -0.26083,0 -0.97956,0.79901 -1.13072,1.25702 -0.0885,0.26824 -0.11313,0.72142 -0.0664,1.22374 0.0855,0.92003 -0.0659,1.15032 -0.33421,0.50823 z m 2.77238,8.16635 c -0.7317,-1.17707 -0.38042,-2.39707 0.71396,-2.47963 0.1732,-0.0131 0.28537,-0.0716 0.24926,-0.12997 -0.0958,-0.15503 -1.08895,-0.0162 -1.28473,0.17953 -0.21101,0.211 -0.33307,1.20495 -0.23132,1.88351 0.0488,0.32564 0.21616,0.68631 0.45002,0.97002 0.49731,0.60333 0.56578,0.3213 0.10281,-0.42346 z m -14.88798,144.6652 c -0.61286,-0.38906 -0.99953,-0.79372 -0.99953,-1.04603 0,-0.40554 0.21963,-0.41345 0.66332,-0.0239 0.5278,0.46341 0.93022,0.61946 1.35618,0.5259 0.37305,-0.0819 0.4152,-0.19194 0.15596,-0.40708 -0.21878,-0.18158 -0.23322,-0.70556 -0.0194,-0.70556 0.0863,0 0.29736,0.15758 0.46897,0.35019 0.29184,0.32753 0.83905,0.57589 0.97324,0.4417 0.0327,-0.0327 -0.12848,-0.17569 -0.35825,-0.3177 -0.44121,-0.27268 -0.55639,-0.66356 -0.23219,-0.78797 0.22426,-0.0861 0.76129,0.29124 0.95284,0.66942 0.16339,0.32259 0.54324,0.41431 0.73899,0.17844 0.18019,-0.21711 -0.002,-0.57738 -0.55194,-1.08915 -0.44741,-0.41664 -0.45792,-0.67965 -0.0272,-0.67965 0.19246,0 0.3903,0.15299 0.63696,0.49258 0.30401,0.41855 0.42217,0.49366 0.78618,0.49977 0.85764,0.0144 0.61251,-0.6095 -0.46861,-1.19267 -0.36385,-0.19627 -0.50065,-0.58784 -0.2578,-0.73793 0.15734,-0.0972 0.9405,0.31928 1.32697,0.70576 0.30744,0.30743 0.33214,0.31258 0.61396,0.12793 0.16149,-0.10582 0.3274,-0.32695 0.36867,-0.4914 0.12587,-0.50148 -0.30148,-0.84461 -1.89399,-1.52076 -2.84874,-1.20953 -6.72783,-4.02166 -8.11895,-5.88579 -0.19051,-0.25529 -0.38042,-0.49062 -0.42203,-0.52296 -0.24541,-0.19075 -0.91786,-1.69891 -1.03392,-2.31886 -0.20166,-1.07724 0.15108,-2.78819 0.89167,-4.32495 l 0.28342,-0.58813 -0.0764,0.64676 c -0.042,0.35572 -0.11545,0.72613 -0.16323,0.82315 -0.35677,0.72446 -0.43061,3.1299 -0.12705,4.13834 0.54075,1.79635 4.59037,5.23006 8.23729,6.98447 2.18139,1.0494 2.396,1.17444 2.60608,1.51839 0.1185,0.19403 0.24694,0.51934 0.28542,0.72292 0.0944,0.49963 -0.31056,1.40679 -0.70915,1.5884 -0.16548,0.0754 -0.30087,0.22972 -0.30087,0.34294 0,0.29145 -0.66395,0.81424 -1.03796,0.81727 -0.2382,0.002 -0.35709,0.0945 -0.49074,0.38217 -0.15696,0.33782 -0.23218,0.38103 -0.68293,0.39228 -0.27859,0.007 -0.56699,0.0731 -0.64088,0.14699 -0.1749,0.17491 -0.59049,0.17209 -0.76778,-0.005 -0.10768,-0.10767 -0.20208,-0.0808 -0.41328,0.1176 -0.34713,0.32611 -1.0657,0.34107 -1.55208,0.0323 z m -2.88178,-0.82578 c -0.40626,-0.12358 -0.92943,-0.40199 -1.85631,-0.98785 -0.43382,-0.27421 -0.94751,-0.56981 -1.14154,-0.6569 -0.37555,-0.16855 -0.39464,-0.17616 -1.61843,-0.64535 -0.43741,-0.16769 -1.04595,-0.41683 -1.35232,-0.55365 -1.04016,-0.4645 -1.26201,-0.55593 -1.78385,-0.73518 -0.28669,-0.0985 -0.56825,-0.15002 -0.62567,-0.11454 -0.0574,0.0355 -0.47176,-0.0536 -0.92076,-0.19797 -0.5708,-0.18354 -0.95655,-0.39855 -1.28246,-0.71483 -0.73089,-0.70931 -0.84894,-1.11306 -0.78715,-2.69219 0.0291,-0.74378 0.11202,-1.57721 0.18424,-1.85209 0.25112,-0.95574 0.35573,-1.38516 0.47985,-1.96967 0.13734,-0.64681 0.55862,-2.09938 0.71619,-2.46945 0.0551,-0.12935 0.26071,-0.72567 0.45696,-1.32516 0.31485,-0.96177 1.43191,-3.82307 2.00763,-5.14243 0.11289,-0.2587 0.32342,-0.76141 0.46785,-1.11713 0.14442,-0.35572 0.3567,-0.85842 0.47174,-1.11713 0.11503,-0.2587 0.43062,-1.02599 0.70129,-1.70509 0.27068,-0.6791 0.54811,-1.36702 0.61652,-1.5287 0.0684,-0.16169 0.16848,-0.39982 0.22238,-0.52917 0.0539,-0.12935 0.28997,-0.81727 0.52458,-1.52871 0.23462,-0.71143 0.47006,-1.39935 0.52321,-1.5287 0.0531,-0.12935 0.13108,-0.36748 0.17318,-0.52917 0.0421,-0.16169 0.12131,-0.45273 0.17601,-0.64675 0.42206,-1.49695 0.69925,-2.7421 0.9424,-4.23334 0.0738,-0.45273 0.18059,-1.08773 0.23726,-1.41111 0.0567,-0.32338 0.16584,-0.98484 0.24258,-1.46991 0.22572,-1.4268 0.55594,-2.86544 0.88286,-3.84625 0.27957,-0.83878 1.13246,-2.6112 1.43986,-2.99224 1.13839,-1.41107 1.69181,-2.03492 2.90479,-3.27447 1.56733,-1.60166 1.97913,-2.24926 2.40563,-3.78312 0.50068,-1.80062 0.62045,-3.13258 0.52688,-5.85947 -0.16093,-4.68995 -0.13152,-12.53384 0.0512,-13.64074 0.23037,-1.396 0.299,-4.05352 0.11994,-4.64491 -0.43701,-1.44339 -0.54093,-1.70654 -1.36999,-3.46898 -0.9427,-2.00405 -1.56096,-4.40865 -1.56057,-6.06958 8e-5,-0.3806 0.085,-1.14179 0.18862,-1.69153 0.10365,-0.54975 0.21552,-1.14571 0.24858,-1.32436 0.0331,-0.17865 0.10694,-0.35375 0.16416,-0.38912 0.0572,-0.0354 0.10403,-0.15498 0.10403,-0.26582 0,-0.18996 0.53228,-1.65692 0.88186,-2.43043 0.0877,-0.19402 0.34473,-0.85548 0.57119,-1.4699 0.22646,-0.61443 0.44751,-1.20943 0.49121,-1.32225 0.0437,-0.11281 0.12683,-0.17583 0.18473,-0.14005 0.13732,0.0849 0.13503,0.67207 -0.004,1.01579 -0.0601,0.14856 -0.24953,0.66699 -0.42101,1.15206 -0.17147,0.48507 -0.36045,1.00101 -0.41994,1.14653 -0.0595,0.14552 -0.16108,0.39687 -0.22576,0.55856 -0.0647,0.16169 -0.16826,0.41305 -0.23019,0.55857 -0.18288,0.42972 -0.66782,2.20701 -0.81209,2.97629 -0.17074,0.91048 -0.17185,2.82908 -0.002,3.74881 0.20661,1.1198 0.67057,2.49183 1.27488,3.77004 0.49879,1.05503 0.75744,1.62326 1.07053,2.35185 0.41382,0.963 0.52153,1.58766 0.51703,2.99861 -0.003,0.80845 -0.0704,1.81387 -0.15065,2.23426 -0.34287,1.79541 -0.43226,3.62492 -0.39071,7.9963 0.097,10.20248 0.0929,10.35479 -0.32298,12.25262 -0.19294,0.88037 -0.75644,2.22784 -1.23004,2.94136 -0.24029,0.362 -1.16276,1.35154 -2.04993,2.19897 -2.10748,2.01307 -2.87999,3.15335 -3.55534,5.24792 -0.14521,0.45037 -0.30292,0.92468 -0.35047,1.05403 -0.16506,0.44907 -0.33496,1.30401 -0.64265,3.2338 -0.41091,2.57716 -0.4992,3.04308 -0.94703,4.99769 -0.35061,1.53023 -1.42367,4.90669 -2.05545,6.46759 -0.0523,0.12935 -0.21393,0.55268 -0.35907,0.94074 -0.26116,0.69831 -0.42751,1.11084 -0.74683,1.85208 -0.0906,0.2102 -0.35966,0.85843 -0.59802,1.44051 -0.23835,0.58209 -0.51362,1.24354 -0.6117,1.46991 -0.0981,0.22637 -0.22585,0.53064 -0.28393,0.67616 -0.0581,0.14552 -0.15706,0.38364 -0.21995,0.52916 -0.0629,0.14553 -0.22577,0.55563 -0.36195,0.91135 -0.13619,0.35571 -0.31907,0.80551 -0.4064,0.99953 -0.15074,0.33488 -0.8635,2.3528 -1.37066,3.88056 -0.36047,1.08584 -0.65092,2.26352 -0.79757,3.2338 -0.0733,0.48507 -0.18445,1.20726 -0.24698,1.60487 -0.29117,1.85155 0.70482,3.09883 2.4745,3.09883 0.2606,0 0.56571,0.0476 0.67801,0.10586 0.11231,0.0582 0.57461,0.25258 1.02734,0.43191 0.45273,0.17933 1.15425,0.47521 1.55892,0.65752 0.40468,0.1823 1.06356,0.44189 1.4642,0.57685 0.86286,0.29068 1.14086,0.42927 2.18534,1.08947 1.20837,0.76379 1.84724,1.01895 2.55125,1.01895 0.56341,0 0.70316,0.11184 0.58903,0.47142 -0.0622,0.19602 -0.17352,0.23249 -0.68375,0.22402 -0.33519,-0.006 -0.74207,-0.0505 -0.90418,-0.0998 z m 75.89063,-23.23194 c -0.0389,-0.10134 0.0825,-0.34698 0.28594,-0.57869 0.34789,-0.39622 0.59503,-1.1785 0.62714,-1.98506 0.009,-0.23055 0.0592,-0.0877 0.12921,0.36874 l 0.11423,0.74513 0.17212,-0.33355 c 0.40837,-0.7914 0.5258,-0.56268 0.20397,0.39729 -0.37875,1.12975 -1.30836,1.97052 -1.53261,1.38614 z m 1.65848,-3.29413 c 0.0186,-0.45206 0.0403,-1.07641 0.0483,-1.38743 0.009,-0.3439 0.0606,-0.53703 0.1321,-0.49283 0.17875,0.11047 0.14228,1.85456 -0.0483,2.30773 -0.16199,0.38527 -0.16507,0.37531 -0.13209,-0.42747 z m -1.10373,-0.49855 c -0.0855,-0.24254 -0.47164,-1.09553 -0.85813,-1.89554 -0.79083,-1.63694 -1.26546,-2.86997 -1.27313,-3.30742 -0.004,-0.24418 -0.0324,-0.21821 -0.16444,0.15204 -0.36201,1.01484 -1.50397,2.31689 -2.03203,2.31689 -0.29319,0 -0.1512,-0.58637 0.24325,-1.00457 0.21642,-0.22944 0.44372,-0.58675 0.50513,-0.79402 0.0672,-0.22671 0.0786,-1.45453 0.0288,-3.0815 -0.0759,-2.47775 -0.10881,-2.78355 -0.39218,-3.64537 -0.17013,-0.51741 -0.35748,-1.04658 -0.41634,-1.17593 -0.49131,-1.07969 -0.82494,-2.81269 -0.82262,-4.27307 0.002,-1.08043 0.13937,-1.72929 0.27777,-1.30928 0.0314,0.0952 0.0851,0.62288 0.11951,1.17263 0.0344,0.54975 0.11453,1.23766 0.17815,1.5287 0.0636,0.29105 0.14897,0.68792 0.18966,0.88195 0.0407,0.19403 0.11614,0.45861 0.16768,0.58796 0.0515,0.12935 0.29193,0.87019 0.5342,1.6463 0.24226,0.77611 0.48561,1.5434 0.54077,1.70509 0.25394,0.74439 0.56563,2.13243 0.64697,2.88102 0.0849,0.78178 0.0948,0.80246 0.19542,0.41157 0.20486,-0.79549 0.45691,-2.59012 0.85881,-6.11481 0.19738,-1.73097 0.33173,-2.23697 0.53896,-2.02975 0.0712,0.0712 0.0626,0.38743 -0.0233,0.86518 -0.0745,0.41414 -0.17489,1.01758 -0.22306,1.34096 -0.0482,0.32338 -0.1186,0.66733 -0.15653,0.76435 -0.0379,0.097 -0.0968,0.70555 -0.1308,1.35231 -0.0864,1.642 -0.30245,3.80279 -0.42894,4.28915 -0.0667,0.25637 -0.0635,0.45133 0.008,0.52329 0.0631,0.0631 0.11469,0.34644 0.11469,0.62968 0,0.56396 0.38138,1.61013 1.05679,2.89893 0.23957,0.45715 0.52981,1.12222 0.64496,1.47794 0.11515,0.35571 0.25562,0.76831 0.31214,0.91687 0.12848,0.33767 0.13321,0.72942 0.009,0.72942 -0.0517,0 -0.16391,-0.19844 -0.24938,-0.44097 z m -4.77278,-5.97152 c -0.61308,-0.30238 -1.68879,-1.21326 -2.1157,-1.7915 -0.3591,-0.4864 -1.08862,-1.85957 -1.35777,-2.55573 -0.5191,-1.34266 -0.87482,-3.28269 -0.99721,-5.43866 -0.0727,-1.27983 -0.0607,-1.44051 0.10761,-1.44051 0.15521,0 0.18975,0.14324 0.19144,0.79375 0.002,0.75609 0.20538,2.17726 0.47551,3.32199 0.0687,0.29104 0.15417,0.67534 0.18998,0.85399 0.0358,0.17865 0.11194,0.35375 0.16916,0.38911 0.0572,0.0354 0.10403,0.19035 0.10403,0.3444 0,0.15406 0.0529,0.31281 0.1176,0.35278 0.0647,0.04 0.11759,0.15135 0.11759,0.24752 0,0.29158 1.03245,2.31791 1.4033,2.75416 l 0.34726,0.40851 -0.16188,-0.55118 c -0.089,-0.30314 -0.18982,-0.93814 -0.22398,-1.41111 -0.0341,-0.47296 -0.0325,-0.7541 0.004,-0.62475 0.0361,0.12935 0.11345,0.28546 0.17185,0.3469 0.0584,0.0614 0.10617,0.23093 0.10617,0.37664 0,0.24764 0.0785,0.4918 0.39132,1.21674 0.20508,0.47532 0.90115,1.42541 1.27441,1.73948 0.21642,0.18211 0.33233,0.38044 0.31008,0.53058 -0.0468,0.31569 -0.19564,0.34833 -0.62434,0.13689 z m -1.82184,-5.81714 c 0,-0.19403 0.0529,-0.35278 0.1176,-0.35278 0.0647,0 0.11759,0.15875 0.11759,0.35278 0,0.19403 -0.0529,0.35278 -0.11759,0.35278 -0.0647,0 -0.1176,-0.15875 -0.1176,-0.35278 z m 0.002,-2.14606 c 0.004,-1.48838 0.37857,-3.45847 1.024,-5.37986 1.23244,-3.66885 3.11278,-6.16158 5.5506,-7.35832 1.6287,-0.79954 2.17638,-0.92774 3.94788,-0.92411 1.29418,0.003 1.66698,0.0547 3.05741,0.42688 0.81338,0.21772 2.85216,0.9034 3.37711,1.13578 0.27689,0.12258 0.79449,0.33997 1.1502,0.48309 0.35572,0.14313 0.70348,0.28406 0.77281,0.31318 0.29348,0.1233 0.42218,-0.59882 0.38843,-2.17941 -0.0241,-1.12931 0.006,-1.59544 0.1037,-1.62815 0.21791,-0.0726 0.30437,0.50572 0.3138,2.09906 0.005,0.92463 -0.0437,1.5876 -0.13096,1.76389 -0.0768,0.15535 -0.22008,0.5738 -0.31831,0.92989 -0.28628,1.03781 -1.12327,2.23136 -1.98181,2.82604 -0.40434,0.28008 -0.88915,0.63548 -1.07736,0.78978 -0.74602,0.61163 -1.99632,0.96962 -3.38641,0.96962 -0.82259,0 -0.83377,0.004 -1.31394,0.50195 -0.26637,0.27608 -0.79292,0.85816 -1.17012,1.29352 -0.61396,0.70862 -0.73102,0.79155 -1.11713,0.79142 -0.45831,-1.5e-4 -0.92811,-0.31576 -1.18132,-0.79361 -0.17214,-0.32484 -0.40825,-0.33504 -0.82852,-0.0358 -0.26986,0.19216 -0.47049,0.22138 -1.25287,0.18246 -0.51236,-0.0255 -0.98948,-0.0491 -1.06026,-0.0524 -0.0708,-0.003 -0.28245,-0.13997 -0.47037,-0.30364 -0.2334,-0.20326 -0.4162,-0.27326 -0.57686,-0.22088 -0.47495,0.15484 -1.25825,0.18918 -1.38665,0.0608 -0.0717,-0.0717 -0.21734,-0.13029 -0.32373,-0.13029 -0.10639,0 -0.28809,-0.10459 -0.40377,-0.23242 -0.11569,-0.12782 -0.25128,-0.2071 -0.30133,-0.17617 -0.14107,0.0872 -0.5765,1.65001 -0.80188,2.87803 -0.0653,0.35572 -0.17506,0.92861 -0.24395,1.27309 -0.0689,0.34449 -0.12526,0.83396 -0.12526,1.08773 0,0.25377 -0.0529,0.4614 -0.11759,0.4614 -0.0678,0 -0.11673,-0.36121 -0.11554,-0.85254 z m 10.10845,-4.29213 c 0.4072,-0.43657 0.96244,-1.03188 1.23386,-1.32292 l 0.49349,-0.52917 -0.2126,-0.47037 c -0.23491,-0.5197 -0.28925,-1.41247 -0.0934,-1.53354 0.18622,-0.11508 0.2275,-0.0288 0.30688,0.64149 0.0523,0.44159 0.16323,0.70718 0.40223,0.96303 0.29827,0.3193 0.38995,0.34985 0.95307,0.31754 0.61472,-0.0353 0.62285,-0.0406 0.60758,-0.40081 -0.0227,-0.53518 -0.33938,-0.93753 -1.06442,-1.35236 -0.58567,-0.33508 -0.8561,-0.61911 -0.71952,-0.75569 0.11179,-0.11178 1.35024,0.60589 1.74062,1.00869 0.22636,0.23356 0.49146,0.64654 0.58911,0.91772 l 0.17753,0.49306 0.64562,-0.31815 c 0.35508,-0.17498 0.67207,-0.35181 0.7044,-0.39297 0.0323,-0.0412 0.34984,-0.28953 0.70556,-0.55194 0.79783,-0.58858 1.02228,-0.83424 1.63386,-1.78833 0.59747,-0.93206 0.61829,-1.22561 0.10063,-1.41872 -0.59349,-0.22139 -1.88497,-0.72113 -2.14606,-0.83042 -0.23638,-0.0989 -1.45916,-0.49954 -2.11667,-0.69345 -1.90661,-0.5623 -4.56591,-0.70068 -5.87963,-0.30595 -1.80821,0.54332 -3.27438,1.54624 -4.38874,3.0021 -0.17323,0.22631 -0.3983,0.50416 -0.50016,0.61743 -0.30439,0.33851 -1.52424,2.84598 -1.59374,3.27602 -0.0487,0.30111 -0.003,0.46923 0.18552,0.68646 0.23318,0.26837 0.32934,0.2882 1.43209,0.29538 l 1.18212,0.008 0.50099,-0.57452 0.50099,-0.57451 0.34093,0.50359 c 0.51186,0.75607 0.86136,0.97609 1.34956,0.84958 0.3427,-0.0888 0.41093,-0.16589 0.47034,-0.53142 0.0382,-0.23515 0.13768,-0.50969 0.221,-0.61009 0.20638,-0.24867 0.86104,-0.23014 1.18673,0.0336 0.36661,0.29686 0.21618,0.51352 -0.24494,0.35278 -0.19341,-0.0674 -0.43036,-0.0924 -0.52657,-0.0555 -0.22475,0.0862 -0.22903,0.54488 -0.005,0.54488 0.0934,0 0.31831,0.12895 0.49977,0.28655 0.29777,0.25862 0.31455,0.31175 0.17211,0.54493 -0.13204,0.21616 -0.13204,0.27471 0,0.3584 0.28766,0.18232 0.40849,0.11011 1.15491,-0.69011 z m -3.83208,0.0385 c -0.07,-0.18244 -0.3988,-0.35171 -0.3988,-0.20531 0,0.0497 0.0635,0.15388 0.14111,0.23149 0.19244,0.19244 0.33598,0.17785 0.25769,-0.0262 z m -0.75157,-0.37167 c 0,-0.35285 -0.19386,-0.33298 -0.44526,0.0456 -0.16183,0.24374 -0.15419,0.25814 0.13693,0.25814 0.25314,0 0.30833,-0.0544 0.30833,-0.30378 z m 13.80108,-13.30011 c -0.9411,-2.74224 -3.32336,-4.69915 -7.1571,-5.87922 -2.35582,-0.72514 -4.26599,-0.79973 -6.35,-0.24796 -0.73488,0.19457 -1.73956,0.56323 -2.00768,0.7367 -0.13408,0.0867 -0.37221,0.17587 -0.52917,0.19804 -0.23675,0.0334 -0.28537,-0.01 -0.28537,-0.25367 0,-0.23447 0.11902,-0.35458 0.58796,-0.59332 2.53365,-1.28992 6.64336,-1.41021 9.87778,-0.28913 1.8152,0.62917 3.11976,1.44394 4.37003,2.72932 0.66158,0.68016 0.8434,0.97517 1.70535,2.76704 0.13578,0.28226 0.12328,0.88357 -0.0202,0.97225 -0.0651,0.0402 -0.15135,-0.0228 -0.1916,-0.14005 z"
       id="path34" /></g></svg>
