<?xml version="1.0" encoding="UTF-8" standalone="no"?>
<!-- Created with Inkscape (http://www.inkscape.org/) -->

<svg
   width="130.35136mm"
   height="57.724091mm"
   viewBox="0 0 130.35138 57.724091"
   version="1.1"
   id="svg1"
   xml:space="preserve"
   xmlns="http://www.w3.org/2000/svg"
   xmlns:svg="http://www.w3.org/2000/svg"><defs
     id="defs1" /><g
     id="layer1"
     transform="translate(189.76699,170.8436)"><path
       style="fill:#4d4d4d"
       d="m -120.54303,-113.1962 c -0.12648,-0.12648 -1.13532,-0.29666 -2.07859,-0.35063 -0.92849,-0.0531 -1.318,-0.18393 -1.7051,-0.5726 -0.26474,-0.26583 -0.76435,-1.18044 -0.76435,-1.39926 0,-0.0788 -0.16403,-0.2987 -0.36452,-0.48866 -1.09904,-1.04134 -1.33899,-1.98037 -0.69381,-2.71519 0.19403,-0.22099 0.35278,-0.48119 0.35278,-0.57823 0,-0.27625 0.35995,-0.75612 0.56717,-0.75612 0.12578,0 0.0302,-0.16424 -0.29085,-0.49977 -0.48324,-0.50504 -1.05102,-1.31244 -1.30241,-1.85208 -0.67942,-1.45848 -1.28698,-2.75118 -1.85148,-3.93935 -0.75925,-1.59813 -1.21936,-2.59537 -1.35637,-2.93982 -0.0514,-0.12935 -0.20466,-0.48596 -0.34045,-0.79247 -0.1358,-0.3065 -0.24691,-0.63723 -0.24691,-0.73495 0,-0.19688 -0.35897,-0.23596 -0.67775,-0.0738 -0.55969,0.28471 -1.81599,0.73995 -3.61438,1.30973 -0.84079,0.26638 -1.60808,0.51102 -1.70509,0.54364 -0.2372,0.0797 0.0947,0.3458 1.33478,1.06982 0.52705,0.30773 1.28216,0.8785 1.67803,1.26837 1.23618,1.21749 1.69089,2.43259 1.69089,4.51848 0,2.09823 -0.59006,3.42497 -1.97176,4.43348 -0.34069,0.24868 -0.8434,0.53607 -1.11713,0.63865 -0.27372,0.10258 -0.57706,0.21735 -0.67407,0.25505 -0.57073,0.22175 -1.98929,0.42681 -3.82176,0.55243 -0.90546,0.0621 -1.93733,0.16872 -2.29305,0.23699 -3.09737,0.59451 -7.96148,0.84116 -11.34769,0.57541 -0.71144,-0.0558 -1.90206,-0.12524 -2.64583,-0.15425 -0.74378,-0.029 -2.43711,-0.14405 -3.76297,-0.25565 -1.88679,-0.15882 -3.765,-0.20336 -8.64305,-0.20497 -8.08486,-0.003 -14.51049,0.2892 -19.142,0.86946 l -1.85589,0.23251 -0.29018,-0.19013 c -0.23834,-0.15617 -0.29017,-0.28599 -0.29017,-0.72682 0,-0.48592 0.19804,-1.28695 0.35486,-1.43533 0.22399,-0.21194 0.46829,-0.74852 0.46829,-1.02857 0,-1.71122 2.10615,-4.43048 4.15634,-5.36628 0.33339,-0.15217 1.18824,-0.47349 1.89967,-0.71405 2.85109,-0.96401 4.18286,-1.82599 5.51302,-3.56826 0.98586,-1.29129 1.52287,-1.67006 2.36775,-1.67006 0.49107,0 0.85719,0.17408 2.03597,0.96808 0.47416,0.31938 0.88278,0.56003 0.90803,0.53477 0.0253,-0.0253 -0.14259,-0.32586 -0.37301,-0.668 -0.50394,-0.74831 -1.23947,-2.31763 -1.46603,-3.12791 -0.21677,-0.77528 -0.19172,-2.971 0.0436,-3.82176 0.45676,-1.65134 1.75236,-4.52401 2.11257,-4.6841 0.0485,-0.0216 0.0882,-0.0901 0.0882,-0.1523 0,-0.15424 1.07341,-1.72808 1.46226,-2.14397 l 0.31452,-0.3364 -0.20763,-0.22943 c -0.11419,-0.12618 -0.86818,-0.55295 -1.67552,-0.94837 -1.71471,-0.83985 -1.57638,-0.73991 -3.21685,-2.32395 -1.08741,-1.05 -1.36142,-1.25391 -1.83159,-1.36303 -0.77979,-0.18097 -1.03882,-0.3463 -1.12977,-0.72113 -0.0436,-0.17957 -0.18751,-0.55312 -0.31987,-0.83012 -0.18182,-0.38052 -0.21958,-0.61049 -0.15445,-0.94074 0.0876,-0.44426 0.10543,-0.68351 0.14914,-2.00082 0.0206,-0.62108 0.072,-0.78453 0.31855,-1.01302 0.2385,-0.22104 0.29398,-0.38408 0.29398,-0.8639 0,-0.49036 0.0583,-0.65385 0.34117,-0.95665 0.45578,-0.48792 0.7748,-0.4695 2.00186,0.11561 0.5546,0.26445 1.14066,0.53521 1.30235,0.60168 0.16168,0.0665 0.38586,0.1676 0.49817,0.22473 0.1123,0.0571 0.26073,0.10388 0.32983,0.10388 0.0691,0 0.44698,0.21821 0.83972,0.48492 0.39275,0.26671 1.22328,0.72178 1.84564,1.01128 0.62235,0.28949 1.66071,0.77791 2.30747,1.08536 0.64676,0.30746 1.36113,0.62502 1.5875,0.70569 0.22636,0.0807 0.51741,0.18821 0.64676,0.23899 0.12935,0.0508 0.44685,0.14708 0.70555,0.214 0.25871,0.0669 0.68818,0.1788 0.95439,0.24859 0.56782,0.14888 1.57385,0.16901 1.57385,0.0315 0,-0.0525 -0.093,-0.198 -0.20664,-0.32338 -0.29662,-0.32721 -2.2339,-2.90293 -2.91325,-3.87333 -0.31694,-0.45273 -0.60923,-0.8496 -0.64953,-0.88194 -0.0403,-0.0323 -0.49627,-0.6938 -1.01328,-1.46991 -0.87332,-1.31101 -1.66488,-2.7803 -1.86646,-3.46451 -0.0469,-0.15924 -0.21151,-0.38881 -0.36578,-0.51016 -0.36622,-0.28806 -0.62534,-0.80214 -0.81576,-1.61841 -0.12957,-0.5554 -0.12754,-0.76223 0.0127,-1.29682 0.21632,-0.82443 0.53375,-1.09542 1.16495,-0.99449 0.33062,0.0529 0.60067,0.21073 0.92296,0.53952 0.38588,0.39365 0.49143,0.4456 0.68971,0.33949 0.24111,-0.12904 0.45513,-0.0345 0.77191,0.34088 0.0777,0.0921 0.38821,0.18392 0.69003,0.20409 0.6544,0.0438 0.75717,0.13012 2.17666,1.82943 1.06049,1.26954 1.5671,1.72293 1.69461,1.51662 0.0389,-0.063 0.5688,0.14627 1.19457,0.47167 0.61856,0.32165 1.22173,0.58482 1.34038,0.58482 0.11865,0 0.24466,0.0468 0.28003,0.10403 0.0354,0.0572 0.23692,0.1386 0.44791,0.18085 0.21099,0.0422 0.6482,0.13579 0.97158,0.20788 0.79728,0.17773 4.41254,0.17861 5.29167,0.001 0.38805,-0.0783 0.97014,-0.19794 1.29352,-0.26592 0.32338,-0.068 0.76043,-0.15296 0.97123,-0.18885 0.21079,-0.0359 0.41235,-0.11233 0.44791,-0.16986 0.0356,-0.0575 0.21715,-0.1046 0.40354,-0.1046 0.1864,0 0.3716,-0.0529 0.41158,-0.11759 0.04,-0.0647 0.19126,-0.1176 0.33619,-0.1176 0.14494,0 0.3138,-0.0421 0.37524,-0.0936 0.0614,-0.0515 0.32338,-0.1608 0.58208,-0.24296 0.25871,-0.0821 0.60267,-0.20587 0.76436,-0.27492 0.16169,-0.0691 0.42627,-0.17847 0.58796,-0.24314 0.62404,-0.24962 0.7959,-0.32446 1.80496,-0.78604 0.57234,-0.26181 1.08783,-0.47602 1.14553,-0.47602 0.0577,0 0.17014,-0.10442 0.24985,-0.23206 0.1011,-0.16189 0.7681,-0.43228 2.20585,-0.89421 2.03745,-0.65461 2.45475,-0.80147 2.85309,-1.00411 0.11231,-0.0571 0.30016,-0.10388 0.41746,-0.10388 0.11729,0 0.26353,-0.0421 0.32497,-0.0936 0.0614,-0.0515 0.32338,-0.1608 0.58208,-0.24295 0.25871,-0.0822 0.58944,-0.19879 0.73496,-0.25919 0.4701,-0.19513 0.78011,-0.31692 1.4993,-0.58903 0.38806,-0.14683 1.03761,-0.41657 1.44346,-0.59943 0.40584,-0.18286 0.76552,-0.33248 0.79929,-0.33248 0.0338,0 0.86588,-0.40471 1.84914,-0.89937 0.98326,-0.49466 1.90639,-0.95768 2.05141,-1.02894 0.14501,-0.0713 0.26408,-0.16924 0.26458,-0.21775 5e-4,-0.0485 0.0581,-0.0882 0.12794,-0.0882 0.11443,0 0.94862,-0.55771 2.81279,-1.88055 0.9777,-0.69378 1.99977,-0.98198 3.26222,-0.91985 l 1.02991,0.0507 1.10166,0.57081 c 1.61333,0.83592 2.79119,2.04112 3.8821,3.97219 0.13701,0.24254 0.35495,0.62618 0.4843,0.85255 0.12935,0.22637 0.34856,0.61001 0.48714,0.85255 1.29961,2.27454 2.47657,4.53253 2.81954,5.40925 0.22209,0.56774 0.37041,0.91977 0.47,1.11554 0.0571,0.1123 0.10387,0.285 0.10387,0.38377 0,0.0988 0.0464,0.27147 0.10316,0.38377 0.22341,0.44222 0.36721,1.07005 0.36721,1.60319 0,0.48261 0.0726,0.6535 0.53039,1.24842 0.69175,0.89899 1.57096,2.32293 2.05654,3.33072 0.21308,0.44224 0.46991,0.83572 0.57073,0.87441 0.29591,0.11356 0.61061,0.38206 1.54774,1.32056 1.49807,1.50027 2.39647,3.65805 2.52401,6.06218 0.007,0.13297 0.11825,0.39755 0.2471,0.58796 0.44907,0.66359 0.75497,1.48788 0.75497,2.03435 0,0.2433 0.071,0.5395 0.15785,0.65823 l 0.15785,0.21587 0.98868,-0.142 c 2.459617,-0.35325 5.108854,-0.99405 5.896576,-1.42627 0.112305,-0.0616 0.276154,-0.11204 0.364109,-0.11204 0.08796,0 0.313569,-0.0736 0.501364,-0.16356 0.187795,-0.09 0.553113,-0.25531 0.811817,-0.36744 0.258703,-0.11213 0.797765,-0.35602 1.197914,-0.54199 0.40015,-0.18597 0.748464,-0.33812 0.774032,-0.33812 0.02557,0 0.648105,-0.32311 1.383416,-0.71802 2.211306,-1.18761 3.304117,-1.45152 4.362218,-1.05343 0.6974,0.26238 1.135349,0.61595 1.699358,1.37195 0.18805,0.25206 0.368753,0.48475 0.401562,0.51709 0.03281,0.0323 0.133939,0.20298 0.224733,0.3792 0.264517,0.5134 1.189654,1.4983 1.586409,1.68889 0.200641,0.0964 0.55001,0.27649 0.776376,0.40024 0.509346,0.27846 0.675084,0.28327 1.705137,0.0495 0.452707,-0.10273 0.968625,-0.21457 1.146483,-0.24853 0.38752,-0.074 0.412528,-0.29985 0.103548,-0.93527 -0.489069,-1.00577 -0.58092,-1.5719 -0.344321,-2.12224 0.231115,-0.53759 2.556518,-2.73956 2.893127,-2.73956 0.06648,0 0.138511,-0.0397 0.160069,-0.0882 0.04576,-0.10297 0.939685,-0.54075 1.450309,-0.71026 0.591206,-0.19627 1.584426,-0.36506 2.881018,-0.48961 0.906808,-0.0871 1.465761,-0.21345 2.10467,-0.47573 l 0.869947,-0.35712 0.269239,0.17641 c 0.148082,0.097 0.710912,0.2266 1.250733,0.28794 0.539821,0.0613 1.217813,0.1938 1.506647,0.29437 0.679024,0.23642 0.678531,0.2365 0.613862,-0.1018 -0.04376,-0.22889 0.02601,-0.33884 0.339686,-0.53529 0.325805,-0.20405 0.542366,-0.24069 1.239889,-0.20979 0.716361,0.0317 0.922186,0.0916 1.350806,0.39283 0.938553,0.65964 1.625818,1.82904 1.625818,2.76637 0,0.20124 0.0968,0.50634 0.215116,0.67801 0.248036,0.3599 0.622642,1.29561 0.925288,2.31121 0.164739,0.55283 0.210431,1.12556 0.211081,2.64584 l 8.3e-4,1.94027 -0.366551,0.76435 c -0.350553,0.731 -0.732892,1.19476 -1.755854,2.12979 -0.568021,0.51919 -0.902363,0.69411 -2.110929,1.10439 -1.57126,0.5334 -2.331927,0.64639 -4.350882,0.64628 -1.786163,-9e-5 -2.536559,-0.09 -3.998192,-0.47903 -0.258704,-0.0689 -0.578995,-0.15215 -0.711759,-0.18509 -0.132764,-0.0329 -0.582555,0.0945 -0.999537,0.2833 -0.416982,0.18876 -0.923793,0.41471 -1.126249,0.50212 -0.407087,0.17577 -0.386015,0.22312 0.309304,0.69505 0.72763,0.49387 1.661719,1.54235 1.981767,2.22447 l 0.311289,0.66345 -0.0139,1.35231 -0.0139,1.35232 -0.365896,0.86294 c -0.543925,1.28282 -1.221046,2.1244 -2.55262,3.17261 -1.191384,0.93784 -4.706094,2.62138 -6.3435,3.03851 -0.129352,0.0329 -0.341018,0.10362 -0.47037,0.15703 -0.362134,0.14954 -0.669999,0.25346 -1.087732,0.36718 -0.458818,0.1249 -1.1146,0.30933 -1.675694,0.47127 -0.226366,0.0653 -0.623241,0.1706 -0.881945,0.23393 -0.258703,0.0633 -0.682037,0.16854 -0.94074,0.23379 -1.115613,0.28141 -2.099677,0.47642 -4.7625,0.94378 -1.144755,0.20092 -3.548757,0.51359 -5.350463,0.6959 -2.832973,0.28666 -4.407883,0.36691 -9.054633,0.46138 l -4.93889,0.10041 -0.84751,0.24497 c -0.46613,0.13473 -1.15404,0.38329 -1.5287,0.55235 -1.9813,0.89404 -2.35978,1.02493 -4.18126,1.446 -0.6024,0.13926 -3.17188,0.17995 -3.29958,0.0523 z m 2.79442,-0.87431 c 1.50649,-0.27149 2.33181,-0.51047 3.53486,-1.02355 2.60448,-1.11077 2.88921,-1.19952 4.22831,-1.31808 0.7142,-0.0632 2.75375,-0.11956 4.53234,-0.12517 3.26361,-0.0103 5.896532,-0.12158 8.055088,-0.34043 1.963983,-0.19913 4.575251,-0.52927 5.644445,-0.71362 0.388055,-0.0669 0.996597,-0.17 1.352315,-0.22907 1.576337,-0.26179 2.72797,-0.50379 4.468518,-0.93902 3.436169,-0.85921 6.365858,-1.90362 8.643055,-3.08116 0.388056,-0.20067 0.824206,-0.42381 0.969222,-0.49589 0.145016,-0.0721 0.264079,-0.17073 0.264583,-0.21923 5.05e-4,-0.0485 0.08256,-0.0882 0.182345,-0.0882 0.09978,0 0.615723,-0.43772 1.146528,-0.97272 1.065447,-1.07385 1.599419,-1.95353 1.907834,-3.14302 0.565163,-2.17972 -0.508526,-3.68875 -3.882549,-5.45676 -0.700383,-0.36701 -0.911541,-0.71457 -0.667565,-1.09879 0.07086,-0.11159 0.241547,-0.0728 0.712437,0.16184 l 0.619252,0.30858 1.373031,-0.65342 c 0.755167,-0.35939 1.855637,-0.84512 2.445488,-1.07941 l 1.072458,-0.42598 -0.316967,-0.31715 -0.316968,-0.31715 -0.687756,0.0415 c -0.784552,0.0473 -1.323976,-0.0901 -2.409707,-0.61394 -0.898679,-0.43357 -2.283051,-1.69325 -2.966448,-2.69927 -0.384774,-0.56642 -0.488758,-0.65527 -0.601931,-0.51433 -0.193681,0.2412 -1.911038,0.66987 -2.68367,0.66987 -0.834937,0 -1.94257,-0.53128 -2.482054,-1.19052 -0.209187,-0.25562 -0.499338,-0.60827 -0.64478,-0.78365 -0.145442,-0.17539 -0.264504,-0.38504 -0.264583,-0.46588 -7.9e-5,-0.0808 -0.04165,-0.14699 -0.09238,-0.14699 -0.05073,0 -0.190115,-0.16569 -0.309741,-0.3682 -0.314535,-0.53247 -1.12016,-1.28383 -1.597094,-1.48952 -0.4952,-0.21357 -1.73182,-0.22704 -2.262478,-0.0247 -0.210845,0.0804 -1.41523,0.64882 -2.676411,1.26313 -2.880899,1.40325 -3.296845,1.59119 -4.233333,1.91277 -0.226366,0.0777 -0.517408,0.18641 -0.646759,0.24151 -0.289785,0.12344 -1.621373,0.49799 -2.645834,0.74423 -0.944944,0.22712 -3.030791,0.54296 -3.585801,0.54296 -0.43833,0 -0.52,0.11705 -0.24242,0.34742 0.29176,0.24213 0.86536,1.2162 1.04187,1.76925 0.0929,0.29104 0.23096,0.92604 0.30683,1.41111 0.21038,1.34506 0.36794,2.00813 0.6113,2.57258 0.12206,0.2831 0.22192,0.63716 0.22192,0.78681 0,0.48159 -0.19895,0.48838 -1.08613,0.0371 -0.11231,-0.0571 -0.21814,-0.10394 -0.23519,-0.10403 -0.017,-9e-5 -0.0138,0.62168 0.007,1.38171 0.0361,1.30865 -0.0746,2.02864 -0.31205,2.02864 -0.14144,0 -0.60579,-0.45316 -0.96082,-0.93766 -1.04121,-1.42091 -1.63746,-2.00055 -2.41065,-2.34349 -0.19403,-0.0861 -0.44466,-0.20322 -0.55697,-0.26035 -0.29003,-0.14754 -0.4717,-0.12856 -0.36846,0.0385 0.0484,0.0783 0.17674,0.75298 0.28522,1.49931 0.10849,0.74632 0.23022,1.43632 0.27051,1.53333 0.0403,0.097 0.0198,0.25577 -0.0455,0.35278 -0.0983,0.14597 -0.18406,0.0953 -0.49719,-0.29398 -0.95705,-1.18968 -1.88601,-1.86121 -2.96813,-2.1456 -1.02663,-0.2698 -1.60797,-0.38264 -1.97136,-0.38264 h -0.38049 v 0.93486 c 0,0.51417 -0.0573,0.99216 -0.12733,1.06219 -0.20068,0.20068 -0.46518,0.0284 -0.63984,-0.41673 -0.27518,-0.70134 -1.21032,-1.41901 -2.52542,-1.93814 -0.79689,-0.31456 -0.99954,-0.41472 -0.99954,-0.49403 0,-0.0489 -0.0553,-0.0889 -0.1229,-0.0889 -0.22154,0 -1.83425,-1.15095 -2.16727,-1.54672 -0.3041,-0.3614 -0.54073,-0.80588 -0.69993,-1.31471 -0.0575,-0.18386 -0.17153,-0.1214 -0.77471,0.42445 -0.66806,0.60456 -2.26579,1.51774 -3.17315,1.81361 -0.3572,0.11647 -1.16292,0.22021 -3.41019,0.43905 -0.7098,0.0691 -1.30186,0.17971 -1.5875,0.29652 -0.12935,0.0529 -0.47331,0.16432 -0.76435,0.24762 -0.29104,0.0833 -0.57944,0.19516 -0.64088,0.24859 -0.0614,0.0534 -0.20048,0.0971 -0.30898,0.0971 -0.29499,0 -0.5331,0.32796 -0.36219,0.49887 0.0749,0.0749 0.13612,0.20359 0.13612,0.28605 0,0.0825 0.15875,0.49654 0.35278,0.92017 0.19403,0.42363 0.35278,0.79563 0.35278,0.82665 0,0.031 0.38697,0.83668 0.85992,1.79034 0.47296,0.95367 0.98569,2.05143 1.1394,2.43949 0.15371,0.38806 0.37529,0.87914 0.49239,1.09131 0.11711,0.21216 0.21292,0.46352 0.21292,0.55856 0,0.0951 0.04,0.17282 0.0889,0.17282 0.0489,0 0.16468,0.17122 0.25732,0.3805 0.0926,0.20928 0.41179,0.62388 0.70924,0.92133 0.44383,0.44383 0.64213,0.55471 1.10566,0.61824 0.74256,0.10178 1.45285,0.42904 1.92591,0.88735 0.24366,0.23606 0.62108,0.43297 1.03807,0.54158 0.36037,0.0939 0.81799,0.25186 1.01693,0.35111 0.52544,0.26212 1.33475,0.23146 1.75309,-0.0664 l 0.3467,-0.24687 -0.52175,-0.5578 c -0.90962,-0.97245 -1.25047,-1.92496 -1.00884,-2.81919 0.19947,-0.73819 0.29594,-0.83678 0.73319,-0.74933 0.36821,0.0736 1.61138,0.67981 1.72594,0.84156 0.0334,0.0471 0.24588,0.21289 0.47224,0.3684 0.22637,0.1555 0.49095,0.36558 0.58797,0.46683 0.30848,0.32197 1.34177,1.13944 1.63536,1.29379 0.34685,0.18235 1.21415,0.0956 2.4693,-0.24688 0.88774,-0.24226 1.1253,-0.30015 2.36293,-0.57585 2.96289,-0.66004 6.99354,-1.06162 13.673133,-1.36229 0.955617,-0.043 1.765719,-0.12389 1.800227,-0.17973 0.03451,-0.0558 0.174925,-0.10152 0.312037,-0.10152 0.778001,0 2.104033,-0.62633 3.852566,-1.81971 1.250449,-0.85343 2.845283,-1.69267 3.704167,-1.94921 0.258703,-0.0773 0.562256,-0.18692 0.674562,-0.24366 0.112305,-0.0567 0.360536,-0.10316 0.551624,-0.10316 0.191089,0 0.380138,-0.0529 0.42011,-0.11759 0.03997,-0.0647 0.225813,-0.11759 0.412981,-0.11759 0.187168,0 0.461857,-0.0474 0.610421,-0.10535 0.148564,-0.0579 0.508241,-0.17391 0.799283,-0.25772 0.721262,-0.20769 1.474233,-0.73559 1.842112,-1.29149 0.555529,-0.83946 0.978906,-0.4436 0.499897,0.46741 -0.355358,0.67584 -1.201993,1.53993 -1.508826,1.53993 -0.127237,0 -0.260431,0.0471 -0.295986,0.1046 -0.03556,0.0575 -0.237116,0.13396 -0.447913,0.16986 -1.103773,0.18795 -1.430017,0.27376 -3.499469,0.92049 -0.990304,0.30949 -1.920184,0.78098 -3.038789,1.54083 -1.611194,1.09444 -2.973868,1.84968 -3.339327,1.85077 -0.08155,2.4e-4 -0.308544,0.0982 -0.504432,0.21763 -0.373206,0.22759 -0.560801,0.24479 -5.347081,0.49008 -6.088317,0.31202 -10.173747,0.86985 -13.482317,1.84087 -1.55575,0.4566 -2.09698,0.47063 -2.76458,0.0717 -0.30155,-0.1802 -0.82429,-0.56577 -1.16165,-0.85681 -0.92585,-0.79875 -1.91744,-1.52608 -2.08243,-1.52747 -0.0808,-6.8e-4 -0.14699,-0.0542 -0.14699,-0.11883 0,-0.0647 -0.10271,-0.11759 -0.22824,-0.11759 -0.12554,0 -0.26095,-0.0529 -0.30092,-0.11759 -0.04,-0.0647 -0.17539,-0.11759 -0.30092,-0.11759 -0.38315,0 -0.31364,0.90516 0.11495,1.49681 0.31775,0.43865 1.64306,1.56059 1.84347,1.56059 0.17366,0 0.51796,0.39337 0.51796,0.59179 0,0.32365 -0.31402,0.52751 -0.53283,0.34591 -0.14981,-0.12433 -0.34314,-0.0675 -1.15108,0.33838 -0.53406,0.2683 -1.08876,0.48781 -1.23265,0.48781 -0.23688,0 -0.6975,-0.1951 -0.8464,-0.3585 -0.1013,-0.11117 -1.01219,-0.34705 -1.34016,-0.34705 -0.21172,0 -0.43222,-0.13542 -0.67997,-0.41759 -0.59275,-0.6751 -1.56599,-1.08997 -1.93094,-0.82311 l -0.20426,0.14935 0.26613,0.4306 c 0.14636,0.23683 0.45954,0.57468 0.69595,0.75079 0.2364,0.1761 0.45628,0.34695 0.48862,0.37966 0.15469,0.15645 0.60872,0.35344 0.81461,0.35344 0.12641,0 0.26254,0.0529 0.30252,0.1176 0.04,0.0647 0.31738,0.11759 0.61647,0.11759 0.29909,0 0.8573,0.11131 1.24047,0.24735 0.43176,0.15329 0.82865,0.22095 1.04377,0.17792 l 0.3471,-0.0694 -0.0364,0.43944 c -0.0309,0.37289 -0.0822,0.44476 -0.33858,0.47459 -0.26372,0.0307 -0.29555,0.0802 -0.25017,0.38942 0.0419,0.28567 0.004,0.36689 -0.1976,0.41953 -0.17953,0.0469 -0.2496,0.15782 -0.2496,0.39497 v 0.3297 l -0.78859,0.0845 c -0.77806,0.0833 -2.45799,-0.0546 -2.91557,-0.23934 l -0.23519,-0.095 0.17639,0.18462 c 0.097,0.10154 0.52035,0.24543 0.94074,0.31976 0.4204,0.0743 1.02894,0.1814 1.35232,0.23795 0.32338,0.0565 0.82609,0.15193 1.11713,0.21198 0.75061,0.15485 1.69311,0.15821 2.52116,0.009 z m 27.618495,-14.57141 c -0.539551,-0.39679 -0.970456,-0.98047 -1.345044,-1.82191 -0.204072,-0.45842 -0.277056,-0.90157 -0.331236,-2.01124 l -0.06949,-1.42327 -0.319745,-0.48317 c -0.18048,-0.27272 -0.691627,-0.73478 -1.173562,-1.06086 -1.128346,-0.76345 -1.500576,-1.2328 -1.500576,-1.89209 0,-0.51276 0.193999,-0.54245 0.420843,-0.0644 0.109606,0.23097 0.492005,0.6423 0.849775,0.91407 1.791015,1.36046 2.020775,1.72196 2.150534,3.38362 0.149976,1.92056 0.585816,2.94799 1.568494,3.69752 0.306369,0.23368 0.419613,0.40962 0.419613,0.65193 0,0.47748 -0.138715,0.50023 -0.669603,0.10981 z m 0.547093,-1.18434 c -0.200724,-0.37506 -0.05542,-0.57878 0.412801,-0.57878 h 0.415265 v 0.3402 c 0,0.50949 -0.591822,0.68 -0.828066,0.23858 z m -4.297826,-8.61913 c -0.140927,-0.36725 0.0017,-0.6027 0.365002,-0.6027 0.311791,0 0.351168,0.0396 0.351168,0.35277 0,0.29762 -0.05067,0.35861 -0.324049,0.39006 -0.206796,0.0238 -0.348679,-0.0269 -0.392121,-0.14013 z m -27.711842,22.89038 c -0.17786,-0.0269 -0.4689,-0.0269 -0.64676,0 -0.17786,0.0269 -0.0323,0.049 0.32338,0.049 0.35572,0 0.50124,-0.022 0.32338,-0.049 z m -65.46967,-0.62266 c 6.6053,-0.81266 23.20453,-1.16053 27.63426,-0.57913 0.48507,0.0637 1.70215,0.13839 2.70463,0.16605 1.00247,0.0277 2.40476,0.10307 3.1162,0.16757 2.54962,0.23116 6.7659,0.13394 9.70139,-0.22369 0.54975,-0.067 1.23766,-0.15026 1.5287,-0.18507 0.29105,-0.0348 0.635,-0.11014 0.76436,-0.16738 0.12935,-0.0572 1.02893,-0.13315 1.99907,-0.1687 2.59184,-0.095 3.5278,-0.26084 4.69531,-0.83204 2.59433,-1.26929 3.38343,-4.05084 1.9253,-6.78657 -0.42832,-0.80362 -1.49199,-1.91107 -2.21502,-2.3062 -0.25643,-0.14014 -0.68509,-0.37386 -0.95256,-0.51938 -0.26748,-0.14552 -0.70652,-0.45806 -0.97565,-0.69453 l -0.48933,-0.42994 -0.64125,0.17182 c -0.96582,0.2588 -2.58695,0.57579 -3.81624,0.74622 -2.90468,0.4027 -6.69141,0.53487 -7.70232,0.26883 -0.29104,-0.0766 -0.78596,-0.20489 -1.09981,-0.2851 -0.34949,-0.0893 -0.6377,-0.24817 -0.74366,-0.40988 -0.49096,-0.74931 -0.65328,-2.64217 -0.33348,-3.889 0.2779,-1.08349 1.02552,-2.46934 2.65736,-4.92588 0.83527,-1.25739 1.51867,-2.31653 1.51867,-2.35364 0,-0.0371 0.54397,-0.89615 1.20883,-1.90899 1.11795,-1.70308 1.64852,-2.64109 1.9562,-3.45843 0.17815,-0.47325 0.36274,-0.39468 0.36274,0.1544 0,0.6445 -0.51274,1.68654 -1.81901,3.69676 -0.58839,0.90546 -1.22547,1.91088 -1.41574,2.23425 -0.19026,0.32338 -0.44131,0.74672 -0.55788,0.94075 -0.11657,0.19402 -0.24313,0.44538 -0.28124,0.55856 -0.0381,0.11318 -0.11604,0.20579 -0.17318,0.20579 -0.0571,0 -0.10387,0.0553 -0.10387,0.1229 0,0.12427 -1.14619,1.88509 -1.29781,1.99376 -0.17479,0.12528 -0.98575,1.48731 -1.30576,2.19308 -0.42617,0.9399 -0.46496,2.1578 -0.0998,3.13378 0.2977,0.79567 0.50228,0.90906 2.17419,1.20504 1.11901,0.19811 1.78077,0.21021 3.05131,0.0558 0.52076,-0.0633 1.55538,-0.1734 2.29916,-0.24472 2.44841,-0.23477 4.45482,-0.61498 6.52639,-1.23671 1.45135,-0.4356 2.95963,-0.90917 3.17499,-0.9969 0.12936,-0.0527 0.57915,-0.20859 0.99954,-0.34643 0.42039,-0.13784 0.88341,-0.30006 1.02894,-0.36049 0.33605,-0.13956 0.77809,-0.3164 1.11713,-0.44692 0.27238,-0.10487 0.71197,-0.28437 1.17592,-0.48018 0.88387,-0.37305 2.55682,-0.82908 3.04148,-0.82908 0.19512,0 0.46775,-0.0605 0.60583,-0.13436 0.1397,-0.0748 0.65449,-0.1237 1.16052,-0.11032 1.26271,0.0334 2.48274,-0.42394 4.15861,-1.55881 1.42252,-0.96331 1.88048,-1.5237 1.99966,-2.44689 l 0.0661,-0.51211 -0.24208,0.57104 c -0.46759,1.10305 -1.32958,2.13058 -1.72366,2.05468 -0.41613,-0.0801 -0.30461,-0.44717 0.35105,-1.15537 0.77728,-0.83955 1.02458,-1.45693 1.30792,-3.26517 0.16551,-1.05626 0.17815,-1.35986 0.0624,-1.49931 -0.19606,-0.23623 -0.27676,-0.22257 -0.6776,0.11471 l -0.34413,0.28957 -0.0783,1.09215 c -0.11475,1.59973 -0.62662,2.91501 -1.49199,3.83372 -0.51959,0.55162 -0.73812,0.58255 -0.79417,0.11239 -0.0271,-0.22766 0.0979,-0.44081 0.50349,-0.8581 0.54861,-0.56448 0.96106,-1.31194 1.13376,-2.05467 0.1063,-0.45716 -2.7e-4,-3.08069 -0.13393,-3.29696 -0.14875,-0.24067 -0.56379,0.0877 -0.81906,0.64807 -0.27069,0.59421 -0.29596,0.99806 -0.0969,1.54855 0.11602,0.32082 0.10888,0.42185 -0.0421,0.59631 -0.1,0.11553 -0.37287,0.60693 -0.60645,1.092 -0.4605,0.9563 -1.05408,1.71169 -1.24992,1.59065 -0.23953,-0.14804 -0.11705,-0.65527 0.2856,-1.18277 0.37856,-0.49594 0.51307,-0.74658 0.8687,-1.61874 0.15157,-0.37171 0.18558,-2.90488 0.039,-2.90488 -0.36255,0 -0.72595,0.80062 -0.72738,1.60253 -7.2e-4,0.40917 -0.22041,0.97973 -0.58281,1.51367 -0.13169,0.19403 -0.23979,0.46401 -0.24021,0.59997 -0.001,0.45452 -0.49386,1.00528 -1.05911,1.18457 -0.47579,0.15091 -1.23818,0.4728 -1.79114,0.75622 -0.16,0.082 -0.21869,0.0444 -0.27394,-0.17575 -0.0494,-0.19663 0.0727,-0.54999 0.40942,-1.18557 0.26385,-0.498 0.47973,-1.00367 0.47973,-1.1237 0,-0.12004 0.046,-0.24666 0.10215,-0.28138 0.0562,-0.0347 0.14039,-0.2892 0.18714,-0.5655 l 0.085,-0.50238 0.11523,0.29398 c 0.12195,0.31114 0.0843,0.816 -0.11822,1.5842 -0.0677,0.25689 -0.10148,0.4887 -0.075,0.51514 0.0264,0.0264 0.32779,-0.066 0.66966,-0.20548 l 0.62159,-0.25356 0.44261,-0.94629 c 0.28011,-0.59886 0.48551,-1.25615 0.55947,-1.79029 0.0643,-0.4642 0.20446,-1.00967 0.31154,-1.21215 0.21637,-0.40919 0.70895,-0.74897 1.08577,-0.74897 0.21977,0 0.24818,0.0732 0.26246,0.67615 0.009,0.37189 0.0389,0.5571 0.067,0.41158 0.028,-0.14552 0.10019,-0.26459 0.16037,-0.26459 0.0602,0 0.10942,-0.062 0.10942,-0.13773 0,-0.24349 0.38081,-0.56782 0.66671,-0.56782 0.30282,0 0.70267,0.52613 0.82096,1.08025 l 0.0674,0.31589 0.31018,-0.29017 c 0.39306,-0.36772 0.77652,-0.46679 1.14929,-0.29695 l 0.29261,0.13333 -0.0297,1.20452 c -0.0171,0.69513 0.0238,1.30397 0.0968,1.4397 0.0695,0.12935 0.16326,0.50794 0.20826,0.84131 0.0579,0.42918 0.14086,0.62157 0.28403,0.65901 0.11122,0.0291 0.40129,0.43878 0.64461,0.91043 0.64071,1.24197 1.31185,2.18592 2.14031,3.01032 0.70176,0.69831 2.0068,1.57569 2.34372,1.57569 0.0897,0 0.19224,0.0471 0.22779,0.1046 0.0356,0.0575 0.23712,0.1347 0.44792,0.17149 0.21079,0.0368 0.6743,0.1247 1.03002,0.19536 0.35572,0.0707 0.84553,0.15782 1.08847,0.19371 0.24294,0.0359 0.47096,0.11257 0.50671,0.17041 0.0358,0.0578 0.16271,0.10517 0.28213,0.10517 0.36129,0 1.198,0.49732 1.79369,1.06611 l 0.56233,0.53695 v -0.411 c 0,-0.67569 -0.54138,-2.06727 -1.08136,-2.77956 -0.54659,-0.721 -1.53093,-1.58161 -2.66224,-2.32761 -1.93246,-1.27427 -3.21735,-2.63726 -3.00582,-3.18851 0.0776,-0.20221 0.39942,-0.26064 0.39942,-0.0725 0,0.17457 1.30139,1.45908 1.73449,1.712 0.2102,0.12275 0.38218,0.26469 0.38218,0.31542 0,0.0507 0.0694,0.0922 0.15422,0.0922 0.0848,0 0.26781,0.10584 0.40665,0.23519 0.13885,0.12935 0.30757,0.23518 0.37495,0.23518 0.0674,0 0.12251,0.0415 0.12251,0.0922 0,0.0507 0.15124,0.18158 0.33609,0.29077 0.91513,0.54058 1.91234,1.57759 2.45868,2.55681 0.14704,0.26353 0.302,0.39846 0.4308,0.37512 0.11065,-0.02 0.59032,0.15326 1.06594,0.38512 0.88426,0.43108 1.84952,1.26036 2.24365,1.92757 0.12008,0.20328 0.25984,0.3696 0.31057,0.3696 0.0507,0 0.0922,0.0552 0.0922,0.12272 0,0.0675 0.13805,0.26594 0.30679,0.44097 l 0.30679,0.31825 -0.0823,-0.35278 c -0.0452,-0.19402 -0.10661,-1.01423 -0.1364,-1.82268 -0.0675,-1.83102 -0.20388,-2.28036 -1.03545,-3.41019 -0.26181,-0.35571 -0.50398,-0.67321 -0.53815,-0.70555 -0.0342,-0.0323 -0.24598,-0.29675 -0.47067,-0.58758 -0.22469,-0.29082 -0.49744,-0.63478 -0.60611,-0.76435 -0.10867,-0.12956 -0.68004,-0.84411 -1.26972,-1.58789 -0.58968,-0.74377 -1.14901,-1.44552 -1.24294,-1.55944 -0.19785,-0.23996 -0.23084,-0.91 -0.0448,-0.91 0.15006,0 0.0978,-0.0542 1.58859,1.6464 1.67656,1.91246 2.47508,2.93292 2.97636,3.80358 0.57424,0.99741 0.67388,1.20595 0.82327,1.72317 0.2751,0.95244 0.46397,1.29351 0.7163,1.29351 0.26691,0 0.28103,-0.0581 0.13158,-0.54101 -0.058,-0.18751 -0.17071,-0.7378 -0.2504,-1.22287 -0.36256,-2.20679 -0.67729,-2.67271 -3.11308,-4.6086 -0.78671,-0.62525 -0.94074,-0.80335 -0.94074,-1.08775 0,-0.18704 0.0539,-0.35803 0.11971,-0.37998 0.0658,-0.022 0.56855,0.29658 1.11713,0.70784 l 0.99742,0.74773 0.0354,-0.50118 c 0.0417,-0.5896 -0.45782,-1.80006 -0.99147,-2.4028 -0.1856,-0.20963 -0.86662,-0.80364 -1.51338,-1.32003 -2.12186,-1.69415 -3.2338,-2.91586 -3.2338,-3.55304 0,-0.16621 0.0455,-0.30219 0.10101,-0.30219 0.0555,0 0.60143,0.48948 1.21305,1.08773 0.61162,0.59825 1.59804,1.47046 2.19205,1.93824 l 1.08,0.85051 v -0.50771 c 0,-1.05777 -0.76771,-2.82097 -1.73971,-3.99557 -0.53946,-0.65191 -1.74783,-1.72506 -1.94243,-1.72506 -0.0535,0 -0.33545,-0.16389 -0.6266,-0.3642 l -0.52936,-0.36421 0.0764,-0.4521 c 0.0658,-0.38943 0.0113,-0.5631 -0.39297,-1.25269 -0.95352,-1.62646 -2.02713,-2.9303 -3.28165,-3.9854 -1.29987,-1.09324 -2.93379,-1.95106 -5.02801,-2.63973 -0.66081,-0.21731 -3.26124,-0.18945 -3.88055,0.0416 -0.51032,0.19036 -0.55679,0.33368 -0.144,0.44408 0.81603,0.21824 1.6139,0.82964 1.6139,1.23671 0,0.41245 -0.20737,0.44767 -0.70336,0.11944 -0.89088,-0.58955 -2.56605,-0.98507 -2.77057,-0.65415 -0.0427,0.0691 -0.15461,0.0961 -0.2487,0.06 -0.21044,-0.0807 -0.89439,0.19522 -1.47152,0.59376 -0.91979,0.63515 -1.4076,1.85126 -1.62132,4.04196 -0.42837,4.39094 -1.07523,6.56624 -2.32385,7.81487 l -0.52991,0.5299 0.31496,0.11975 c 0.17322,0.0659 0.74067,0.11974 1.26098,0.11974 0.83009,0 1.02729,-0.0438 1.60924,-0.35751 0.7745,-0.4175 1.11934,-0.70775 1.60396,-1.35004 1.05483,-1.39801 1.50716,-2.96692 1.52198,-5.27898 0.009,-1.37045 0.24371,-1.52147 0.36433,-0.23422 0.19613,2.09296 -0.22822,3.9902 -1.29354,5.7834 -0.32469,0.54652 -0.38719,1.20724 -0.16604,1.7552 0.36419,0.90238 0.85958,1.79882 0.99405,1.79882 0.20032,0 0.32366,0.41517 0.23193,0.78065 -0.11595,0.46202 -0.43251,0.29152 -0.79623,-0.42885 -0.41952,-0.8309 -0.91527,-2.21542 -0.91527,-2.55615 0,-0.34746 -0.0474,-0.33749 -0.62697,0.13183 -0.80827,0.65454 -1.2305,0.81647 -2.25405,0.86449 -0.74796,0.0351 -1.20582,-0.0234 -2.23426,-0.28526 -1.14487,-0.29154 -1.29794,-0.36055 -1.33195,-0.60045 -0.0549,-0.38755 0.14083,-0.56573 0.87544,-0.79679 1.17381,-0.36921 2.12664,-1.5877 2.5687,-3.28486 0.16678,-0.64032 0.30284,-1.66438 0.59347,-4.46674 0.1688,-1.62759 0.45826,-3.0701 0.65952,-3.28671 0.0571,-0.0614 0.1038,-0.17642 0.1038,-0.25549 0,-0.26154 -1.54111,-2.6808 -2.03918,-3.20114 -1.96119,-2.0489 -4.7677,-2.49681 -6.18138,-0.98653 -0.41717,0.44568 -0.76794,0.74658 -1.54001,1.32107 -0.2173,0.16169 -0.52652,0.43951 -0.68716,0.61736 -0.16064,0.17786 -0.34106,0.32338 -0.40094,0.32338 -0.0599,0 -0.67291,0.35472 -1.36228,0.78827 -0.68937,0.43355 -2.15537,1.24052 -3.25777,1.79329 -1.92587,0.96565 -2.37049,1.17443 -3.40489,1.5988 -0.42206,0.17316 -0.80829,0.33718 -1.5287,0.64918 -0.97093,0.42051 -4.42056,1.64074 -5.35047,1.89262 -0.40442,0.10954 -0.83018,0.22991 -1.64629,0.46544 -0.87849,0.25353 -2.19999,0.55608 -2.82222,0.64613 -0.22637,0.0328 -0.51741,0.10643 -0.64676,0.16372 -0.12935,0.0573 -0.47331,0.13093 -0.76435,0.16365 -0.92693,0.10421 -1.46327,0.19971 -1.70509,0.30361 -0.23669,0.10169 -1.86357,0.27854 -2.41065,0.26205 -0.30821,-0.009 -1.7445,-0.19748 -2.49993,-0.32755 -0.24314,-0.0419 -0.47116,-0.12319 -0.50671,-0.18072 -0.0356,-0.0575 -0.16061,-0.1046 -0.27789,-0.1046 -0.11728,0 -0.92114,-0.3576 -1.78635,-0.79468 -0.86521,-0.43707 -1.93958,-0.94968 -2.38749,-1.13913 -0.44792,-0.18945 -1.26813,-0.64211 -1.82269,-1.00592 -1.3359,-0.87638 -3.91721,-2.14569 -4.26347,-2.09648 -0.28188,0.0401 -0.45664,0.51437 -0.3517,0.95453 0.0504,0.21164 0.73932,0.57168 0.99843,0.52184 0.1721,-0.0331 0.24089,0.6164 0.0899,0.84853 -0.0899,0.13814 -0.16746,0.14371 -0.41722,0.0299 -0.42842,-0.1952 -1.65023,-0.33096 -1.55228,-0.17248 0.0417,0.0674 0.27479,0.15686 0.51804,0.19874 0.95985,0.16527 1.09512,0.21255 1.20718,0.42193 0.0639,0.11941 0.0815,0.30737 0.0392,0.4177 -0.0666,0.17352 -0.19345,0.19074 -0.94032,0.12761 -0.48031,-0.0406 -0.86335,-0.0266 -0.86335,0.0316 0,0.15569 0.67794,0.36278 1.18763,0.36278 0.48278,0 0.70587,0.22261 0.60597,0.60466 -0.0495,0.18928 -0.185,0.21976 -1.01356,0.22804 l -0.95643,0.01 0.35278,0.16153 c 0.19403,0.0888 0.63225,0.16392 0.97383,0.16684 0.46314,0.004 0.63982,0.0542 0.69487,0.19768 0.13664,0.35606 -0.13303,0.5691 -0.79871,0.63099 l -0.6348,0.059 0.60832,0.0814 c 0.519,0.0694 0.69173,0.16436 1.17628,0.64654 1.35748,1.35086 3.42892,2.97582 3.79345,2.97582 0.18484,0 1.28863,0.73244 2.25507,1.49638 1.29314,1.0222 1.58615,1.21137 2.25493,1.45582 1.10585,0.4042 2.13735,0.26792 3.43509,-0.45385 1.34619,-0.74871 2.896,-1.46182 3.64537,-1.67734 0.25871,-0.0744 0.60893,-0.1765 0.77827,-0.2269 0.17072,-0.0508 0.39858,-0.0409 0.51143,0.0223 0.11194,0.0626 0.37026,0.076 0.57405,0.0296 0.20378,-0.0464 0.76739,-0.13049 1.25246,-0.18691 0.48507,-0.0564 1.25236,-0.15281 1.70509,-0.21421 0.45273,-0.0614 1.27294,-0.17157 1.82269,-0.24483 0.54974,-0.0733 1.34349,-0.17908 1.76388,-0.23518 0.42039,-0.0561 1.21414,-0.16166 1.76389,-0.23457 0.54974,-0.0729 1.31704,-0.17712 1.70509,-0.23157 0.72383,-0.10157 2.21674,-0.2872 3.88056,-0.48252 4.35472,-0.51121 6.89441,-1.33472 8.47972,-2.7496 l 0.57,-0.50871 0.002,-0.82652 c 0.002,-0.82933 0.0904,-1.10154 0.28981,-0.8971 0.0589,0.0604 0.16396,0.92996 0.23352,1.93244 0.0696,1.00248 0.17718,2.11373 0.23916,2.46944 0.23803,1.36618 0.49693,2.58101 0.62652,2.93982 0.035,0.097 0.0964,0.32491 0.13624,0.50645 0.0577,0.2628 0.11978,0.31506 0.30438,0.25647 0.32025,-0.10164 0.41544,0.206 0.23391,0.75601 l -0.14624,0.44312 0.72564,2.10578 c 1.09673,3.18271 1.11164,3.22051 1.27106,3.22175 0.0817,6.4e-4 0.24047,-0.0463 0.35278,-0.10436 0.1123,-0.058 0.43744,-0.20214 0.72253,-0.32022 1.25983,-0.52182 1.90781,-1.29947 2.4288,-2.91489 0.39989,-1.23992 0.75456,-1.71585 1.27865,-1.71585 0.28695,0 0.44299,0.0777 0.58198,0.28984 0.23911,0.36493 0.24621,0.76849 0.0135,0.76849 -0.097,0 -0.17639,-0.0529 -0.17639,-0.11759 0,-0.0647 -0.15266,-0.11759 -0.33925,-0.11759 -0.4198,0 -0.61782,0.28083 -0.96519,1.36887 -0.65275,2.04452 -1.33939,2.83354 -3.10528,3.56827 -0.19403,0.0807 -0.44466,0.19352 -0.55697,0.25065 -0.1123,0.0571 -0.30762,0.10387 -0.43403,0.10387 -0.12641,0 -0.25878,0.0468 -0.29414,0.10404 -0.0354,0.0572 -0.21046,0.13333 -0.38911,0.16915 -0.17866,0.0358 -0.56295,0.12217 -0.85399,0.1919 -1.42553,0.34152 -3.00817,0.55225 -5.27084,0.7018 l -1.68428,0.11133 -0.64993,0.50742 c -1.52731,1.19241 -2.81571,2.09139 -2.99975,2.09309 -0.25501,0.002 -0.39302,-0.42888 -0.20844,-0.65129 0.0783,-0.0943 0.57212,-0.47063 1.09745,-0.83628 0.98292,-0.68414 2.10328,-1.56603 2.16724,-1.70593 0.0199,-0.0435 0.33207,-0.3074 0.69372,-0.58641 0.72816,-0.56177 2.80678,-2.78162 3.98852,-4.25951 0.41981,-0.52502 0.8396,-1.04779 0.93286,-1.16172 0.0933,-0.11392 0.16956,-0.23252 0.16956,-0.26356 0,-0.031 0.18894,-0.30397 0.41988,-0.6065 l 0.41987,-0.55007 -0.0803,-0.59748 c -0.0441,-0.32861 -0.12099,-0.65039 -0.17075,-0.71507 -0.0498,-0.0647 -0.12029,-0.3028 -0.1567,-0.52917 -0.0364,-0.22636 -0.1252,-0.67615 -0.19732,-0.99953 -0.17612,-0.78981 -0.3408,-1.84314 -0.42599,-2.72471 l -0.0701,-0.72563 -0.64089,0.52201 c -1.68076,1.369 -4.16998,2.16606 -8.26993,2.64808 -0.54975,0.0646 -1.3435,0.16385 -1.76389,0.22048 -0.4204,0.0566 -1.21415,0.1629 -1.76389,0.23616 -0.54975,0.0733 -1.3435,0.17908 -1.76389,0.23518 -0.42039,0.0561 -1.21414,0.16165 -1.76389,0.23456 -0.54975,0.0729 -1.31704,0.17662 -1.70509,0.23046 -0.38806,0.0538 -1.15535,0.15647 -1.7051,0.22806 -0.54974,0.0716 -1.36995,0.17971 -1.82268,0.24026 -0.45273,0.0606 -1.27294,0.16619 -1.82269,0.23477 -1.72328,0.21498 -2.31084,0.33651 -2.95838,0.61193 -0.58748,0.24987 -0.96047,0.43844 -2.83305,1.43223 -0.40423,0.21452 -1.03744,0.45052 -1.40715,0.52443 -0.66956,0.13386 -0.73604,0.12557 -1.85605,-0.23141 -0.46672,-0.14877 -1.12019,-0.54603 -1.85208,-1.12596 l -0.49977,-0.396 v 0.26182 c 0,0.144 -0.3175,0.72538 -0.70555,1.29196 -0.38806,0.56658 -0.70556,1.08289 -0.70556,1.14736 0,0.0645 -0.0397,0.13487 -0.0882,0.15643 -0.0485,0.0216 -0.21978,0.30378 -0.38059,0.62716 -0.16082,0.32338 -0.31966,0.61442 -0.35297,0.64675 -0.0333,0.0323 -0.12109,0.19109 -0.19505,0.35278 -0.074,0.16169 -0.26972,0.58503 -0.43502,0.94074 -0.83029,1.78679 -0.93973,2.21239 -0.93742,3.64537 0.002,1.47713 0.16863,2.2793 0.70263,3.39047 0.66509,1.38393 1.81614,2.80155 2.60438,3.2075 0.17432,0.0898 0.34341,0.19084 0.37575,0.22459 0.0584,0.061 1.49072,0.76052 1.94028,0.94765 1.48652,0.61876 5.46552,1.45661 7.57359,1.59476 1.20785,0.0792 2.29186,-0.0975 5.47918,-0.89278 1.15072,-0.28713 1.59781,-0.38696 2.93982,-0.6564 3.6789,-0.73863 7.491,-0.28639 10.5498,1.25154 l 0.91548,0.4603 v 0.35146 c 0,0.42298 -0.26103,0.46465 -0.84897,0.13553 -1.28835,-0.72119 -3.5305,-1.37056 -5.38344,-1.55914 -2.16683,-0.22053 -4.22647,-0.0151 -7.40833,0.73901 -3.52459,0.83531 -4.17784,0.98066 -5.17408,1.15119 -0.42039,0.072 -1.02893,0.1784 -1.35231,0.23652 -0.32338,0.0581 -0.97161,0.16152 -1.44051,0.22979 -0.4689,0.0683 -1.20974,0.17676 -1.6463,0.24109 -0.43656,0.0643 -1.05833,0.14321 -1.38171,0.17529 -0.32338,0.0321 -1.06421,0.11079 -1.6463,0.17491 -0.58208,0.0641 -1.38906,0.15035 -1.79328,0.19162 -0.40423,0.0413 -0.73496,0.12159 -0.73496,0.1785 0,0.0569 -0.15925,0.10345 -0.35389,0.10345 -0.38189,0 -0.39673,-0.0173 -1.51541,-1.76388 -0.54007,-0.84322 -1.08034,-1.41661 -1.63432,-1.73449 -0.39417,-0.2262 -1.37863,-0.18067 -1.9055,0.0881 -0.61088,0.31164 -1.54324,1.24546 -2.23086,2.23432 -0.1574,0.22637 -0.31799,0.43804 -0.35687,0.47038 -0.0389,0.0323 -0.2201,0.25778 -0.40273,0.50099 -0.43827,0.58364 -1.56086,1.41788 -2.4812,1.84386 -0.70693,0.3272 -1.82786,0.65752 -3.23033,0.9519 -2.89258,0.60716 -5.48221,1.94597 -5.97338,3.08818 -0.21563,0.50146 -0.19101,0.52069 0.53472,0.41778 0.37189,-0.0527 1.12595,-0.15122 1.6757,-0.21886 z m 75.5746,-24.53455 c -0.0441,-0.0441 -0.0802,-0.20051 -0.0802,-0.34761 0,-0.14709 -0.0529,-0.30014 -0.11759,-0.34011 -0.0647,-0.04 -0.11759,-0.22518 -0.11759,-0.41158 0,-0.18639 -0.0529,-0.3716 -0.1176,-0.41157 -0.0647,-0.04 -0.11759,-0.18486 -0.11759,-0.32197 0,-0.2311 -0.14276,-0.7604 -0.3572,-1.32433 -0.0492,-0.12935 -0.15303,-0.42039 -0.23076,-0.64676 -0.67796,-1.97435 -1.70098,-3.71561 -2.85595,-4.86105 -0.73076,-0.72473 -1.20966,-1.13617 -1.32245,-1.13617 -0.033,0 -0.27051,-0.13932 -0.52783,-0.30961 -0.46498,-0.30771 -0.62982,-0.75233 -0.34434,-0.92877 0.18389,-0.11365 0.85963,0.24434 1.61625,0.85624 1.46232,1.18262 2.65551,2.89527 3.42037,4.90945 0.14736,0.38806 0.31662,0.79745 0.37612,0.90975 0.0595,0.11231 0.1082,0.285 0.1082,0.38377 0,0.0988 0.0478,0.27147 0.10613,0.38377 0.0969,0.18647 0.24514,0.67799 0.4871,1.61531 0.0501,0.19402 0.14876,0.54174 0.21929,0.7727 0.0705,0.23096 0.12741,0.54846 0.12642,0.70555 -0.002,0.33366 -0.15541,0.61839 -0.27082,0.50299 z m -13.25686,23.97976 c -0.22288,-0.24119 -0.43822,-0.46608 -0.47852,-0.49977 -0.0403,-0.0337 -0.21228,-0.26706 -0.38218,-0.51862 l -0.3089,-0.45738 v 0.37453 c 0,0.41087 0.24413,0.70986 0.99744,1.22164 0.62339,0.42351 0.65461,0.40168 0.17216,-0.1204 z m 3.7105,0.14116 c -0.25871,-0.0932 -0.61433,-0.17026 -0.79027,-0.17123 -0.46911,-0.003 -1.56345,-0.53891 -2.11335,-1.03571 -0.26338,-0.23795 -0.64595,-0.68072 -0.85015,-0.98394 l -0.37126,-0.5513 -0.15371,0.34725 -0.15371,0.34725 0.28918,0.37878 c 1.12304,1.47099 1.82672,1.8054 3.84929,1.82932 l 0.76435,0.009 z m -66.3251,-2.44404 c 1.00758,-0.49351 1.5342,-0.65431 4.11862,-1.25762 2.19294,-0.51191 3.2298,-0.9162 4.21994,-1.64541 0.49427,-0.36401 1.92039,-1.83709 2.13458,-2.20486 0.12241,-0.2102 0.26408,-0.38218 0.31481,-0.38218 0.0507,0 0.0922,-0.0534 0.0922,-0.11861 0,-0.27185 1.20694,-1.47149 1.70509,-1.69477 1.10513,-0.49534 1.14261,-0.49584 2.17547,-0.0291 0.30486,0.13776 1.29351,1.04479 1.29351,1.18672 0,0.14067 0.95848,1.52209 1.33026,1.91727 0.21865,0.23241 0.40611,0.34139 0.48355,0.28113 0.18563,-0.14445 0.8079,-0.25658 2.06675,-0.37241 1.13969,-0.10487 2.5585,-0.26976 3.82176,-0.44416 l 0.70555,-0.0974 -0.33103,-0.13794 c -0.18207,-0.0759 -0.4507,-0.13793 -0.59697,-0.13793 -0.35215,0 -2.47772,-0.60431 -3.65811,-1.04002 -1.25468,-0.46313 -1.89319,-0.76332 -2.52395,-1.18664 -0.34491,-0.23147 -0.61268,-0.33022 -0.78092,-0.28799 -0.14083,0.0353 -0.2914,0.007 -0.33461,-0.0629 -0.0432,-0.0699 -0.15325,-0.12712 -0.24453,-0.12712 -0.34408,0 -1.44346,-0.59354 -2.15938,-1.16583 -0.86715,-0.69318 -1.35624,-0.86539 -1.97361,-0.69493 -0.45071,0.12445 -1.08704,0.68687 -1.57308,1.39039 -0.74035,1.07161 -1.44665,1.74639 -2.47037,2.36011 -0.70835,0.42466 -2.45976,1.16944 -3.75575,1.59714 -0.29104,0.0961 -0.75349,0.27683 -1.02765,0.40174 -0.27417,0.12492 -0.55198,0.22712 -0.61736,0.22712 -0.0654,0 -0.11888,0.0529 -0.11888,0.11759 0,0.0647 -0.0766,0.1176 -0.17022,0.1176 -0.43262,0 -2.6729,2.55209 -3.06586,3.49259 -0.24734,0.59196 -0.21833,0.67917 0.1464,0.4402 0.17627,-0.1155 0.53346,-0.31431 0.79375,-0.4418 z m 74.95024,-12.07314 c -0.15014,-0.3392 -0.26487,-0.42164 -1.01102,-0.72652 -0.2102,-0.0859 -0.38218,-0.19615 -0.38218,-0.24504 0,-0.0489 -0.0523,-0.0889 -0.11625,-0.0889 -0.31541,0 -1.78423,-1.45845 -2.43719,-2.41997 -0.52866,-0.77848 -0.81184,-1.26246 -1.37067,-2.34253 -0.31176,-0.60255 -0.37036,-0.66264 -0.4014,-0.41157 -0.0521,0.4214 -0.26287,0.93773 -0.57348,1.40492 -0.2298,0.34564 -0.24603,0.43229 -0.1101,0.58796 0.0877,0.10042 0.24748,0.35635 0.35508,0.56874 0.28106,0.55473 1.44858,1.37311 3.00772,2.10828 0.74377,0.35071 1.4846,0.70022 1.64629,0.7767 0.46954,0.22208 1.40941,1.2188 1.42873,1.51516 0.0145,0.22277 0.0263,0.21276 0.067,-0.057 0.0271,-0.17995 -0.019,-0.48156 -0.1025,-0.67025 z m 44.153072,-2.43584 c -0.140824,-0.0274 -0.319282,-0.12604 -0.396574,-0.21917 -0.119851,-0.14441 -0.02852,-0.16933 0.620672,-0.16933 1.541422,0 2.088285,-0.42364 2.089232,-1.61849 3.22e-4,-0.4051 -0.04847,-0.82843 -0.108424,-0.94074 -0.05996,-0.11231 -0.137383,-0.29605 -0.172063,-0.40832 -0.05278,-0.17088 -0.154751,-0.19217 -0.625945,-0.1307 -0.30959,0.0404 -0.659098,0.12281 -0.776684,0.18316 l -0.213793,0.10972 0.177722,0.27123 c 0.102183,0.15596 0.168062,0.48789 0.154996,0.78097 -0.01959,0.43932 -0.07957,0.54832 -0.434299,0.78915 -0.434077,0.29469 -0.760837,0.30171 -2.146064,0.0461 l -0.558565,-0.10309 v 0.34435 c 0,0.27463 -0.07143,0.37131 -0.352778,0.47751 -0.456295,0.17223 -0.446915,0.29035 0.0294,0.37018 0.210197,0.0352 0.646759,0.11109 0.970139,0.16857 0.32338,0.0575 0.905463,0.10322 1.293519,0.10164 0.388055,-0.002 0.590335,-0.0253 0.449511,-0.0527 z m 3.254655,-0.28747 c 0.972583,-0.22989 1.999075,-0.58938 1.999075,-0.7001 0,-0.0602 0.304271,-0.25257 0.676157,-0.42741 1.024692,-0.48174 1.804452,-1.32638 2.121462,-2.29798 0.443917,-1.36055 0.327975,-3.87051 -0.249817,-5.40812 -0.147157,-0.39161 -0.31198,-0.65546 -0.390607,-0.62529 -0.255445,0.098 -0.510899,-0.3474 -0.510899,-0.89084 0,-0.68196 -0.229179,-0.90375 -1.402932,-1.35771 -0.281585,-0.1089 -0.744118,-0.008 -1.211162,0.26443 -0.181529,0.10585 -0.189747,0.20061 -0.07629,0.87962 0.07226,0.43246 0.09816,1.33831 0.06,2.09825 -0.07637,1.52062 -0.299609,2.14773 -0.957724,2.69042 -0.279245,0.23027 -0.434184,0.49235 -0.5387,0.9112 -0.08069,0.32338 -0.237438,0.75075 -0.348323,0.94971 l -0.20161,0.36175 0.219087,0.28501 c 0.179829,0.23394 0.219556,0.49706 0.221702,1.46834 l 0.0026,1.18332 -0.352778,0.33799 c -0.604866,0.57949 -0.485781,0.61461 0.940741,0.27741 z m 1.058334,-0.78281 c 0,-0.0516 0.30427,-0.28779 0.676157,-0.52487 0.371887,-0.23708 0.778139,-0.55037 0.902783,-0.69621 0.258977,-0.30302 0.363774,-0.15498 0.198332,0.28016 -0.200232,0.52665 -1.777272,1.36156 -1.777272,0.94092 z m 2.180503,-3.22817 c -0.02551,-0.0808 -0.07312,-0.30574 -0.105817,-0.49977 -0.20055,-1.19025 -0.610138,-1.7644 -1.345734,-1.88644 -0.644766,-0.10696 -0.753491,-0.15642 -0.700141,-0.31848 0.02661,-0.0808 0.286077,-0.16267 0.576858,-0.18192 0.460913,-0.0305 0.580713,0.0146 0.936902,0.35278 0.224627,0.21327 0.471977,0.5354 0.549665,0.71583 0.161083,0.37413 0.33435,1.96499 0.214015,1.96499 -0.04366,0 -0.100242,-0.0661 -0.125748,-0.14699 z m -6.158513,2.42182 c 0.118276,-0.10704 0.215047,-0.2756 0.215047,-0.3746 0,-0.27211 -0.479063,-0.72553 -0.755452,-0.71502 -0.134247,0.005 -0.17794,0.036 -0.09709,0.0686 0.08085,0.0326 0.146991,0.20757 0.146991,0.38877 0,0.40339 -0.370258,0.67409 -1.012466,0.74023 -0.265195,0.0273 -0.09068,0.0554 0.415244,0.0669 0.667404,0.0151 0.92327,-0.026 1.087731,-0.17485 z m -69.223381,-0.28948 c 1.64117,-0.18662 2.57224,-0.34981 3.88056,-0.68014 0.2587,-0.0653 0.61589,-0.15375 0.79375,-0.19652 0.17786,-0.0428 0.32338,-0.10073 0.32338,-0.1288 0,-0.0688 -1.67099,-5.02671 -1.71026,-5.07449 -0.017,-0.0207 -0.20563,0.21621 -0.41912,0.52651 -0.21349,0.31029 -0.45326,0.64474 -0.53283,0.74321 -0.0796,0.0985 -0.34104,0.44363 -0.58106,0.76701 -0.67958,0.91561 -1.94298,2.37923 -2.93106,3.39558 l -0.90037,0.92613 0.56814,-0.0858 c 0.31247,-0.0472 0.99147,-0.1339 1.50887,-0.19274 z m 66.573741,0.0431 c -0.01405,-0.17707 0.111151,-0.21058 0.897192,-0.24017 l 0.913525,-0.0344 -0.305189,-0.40012 c -0.178158,-0.23358 -0.289196,-0.51295 -0.266765,-0.67117 l 0.03842,-0.27105 0.924604,0.0341 c 0.977243,0.0361 1.555541,-0.0911 1.916086,-0.42145 0.226489,-0.20752 0.510698,-0.89445 0.510698,-1.23436 0,-0.2965 0.420533,-0.97992 0.873876,-1.42018 0.512609,-0.49781 0.590208,-0.81264 0.477324,-1.9366 -0.04978,-0.49565 -0.09862,-1.56264 -0.108532,-2.37109 -0.01384,-1.12868 -0.06345,-1.55027 -0.213709,-1.8161 -0.156164,-0.27627 -0.210372,-0.30791 -0.268403,-0.15669 l -0.07272,0.1895 -0.432114,-0.18791 c -0.237663,-0.10335 -0.776073,-0.22738 -1.196466,-0.27561 -0.420394,-0.0482 -0.870185,-0.12073 -0.999537,-0.16111 l -0.235185,-0.0734 v 1.23651 c 0,1.01435 -0.03647,1.27296 -0.202988,1.43945 -0.352098,0.35202 -0.376387,0.237 -0.254562,-1.20552 l 0.07048,-0.83451 -0.380677,-0.43356 c -0.209373,-0.23847 -0.407254,-0.40699 -0.439737,-0.37451 -0.08229,0.0823 -0.18161,0.86316 -0.175172,1.37722 0.003,0.23839 0.1129,0.57784 0.247497,0.76435 0.286195,0.39657 0.450741,0.98227 0.27596,0.98227 -0.230064,0 -1.056158,-1.06504 -1.129554,-1.45627 -0.0745,-0.39714 -0.03512,-0.61783 0.19651,-1.10119 0.14421,-0.30094 0.05982,-0.45363 -0.169606,-0.30689 -0.357379,0.22858 -1.017727,0.39148 -1.593636,0.39313 -0.926316,0.003 -2.64021,0.417 -3.469073,0.83864 -0.112305,0.0571 -0.284285,0.10387 -0.382176,0.10387 -0.09789,0 -0.177985,0.0468 -0.177985,0.10388 0,0.0571 -0.0926,0.13325 -0.205787,0.16914 -0.774346,0.24557 -2.651621,1.86723 -2.934279,2.53473 -0.203199,0.47986 -0.119389,1.10791 0.2636,1.97533 0.592656,1.3423 2.071461,3.11958 3.229244,3.88104 1.071618,0.70479 1.616177,0.8844 2.681328,0.8844 0.561436,0 1.043375,-0.0558 1.116913,-0.12935 0.182707,-0.18271 0.552685,-0.16086 0.552685,0.0326 0,0.0891 -0.07996,0.22835 -0.177693,0.30946 -0.157338,0.13058 -0.15397,0.16548 0.0294,0.30464 0.29628,0.22486 0.595616,0.20349 0.576201,-0.0411 z m 1.510725,-3.83696 c -0.09132,-0.21856 -0.300555,-0.55724 -0.464967,-0.75264 -0.164413,-0.19539 -0.332599,-0.52359 -0.373747,-0.72933 -0.101091,-0.50545 0.301547,-1.78503 0.546379,-1.73639 0.176911,0.0352 0.186575,0.16573 0.09788,1.32268 -0.046,0.6001 0.316534,1.42755 0.54308,1.23954 0.296676,-0.24622 0.456812,-1.11544 0.296907,-1.61161 -0.07995,-0.24809 -0.195454,-0.51431 -0.256666,-0.59159 -0.14467,-0.18266 -0.07465,-0.65098 0.106231,-0.71051 0.07737,-0.0255 0.258248,0.18205 0.401947,0.46116 0.490968,0.95359 0.327721,2.53892 -0.339843,3.30028 -0.25908,0.29549 -0.369564,0.2575 -0.557204,-0.19159 z m -6.916717,-1.5625 c -0.04312,-0.0431 -0.0784,-0.25984 -0.0784,-0.48161 0,-0.58407 -0.378816,-1.07118 -0.774248,-0.99558 l -0.310222,0.0593 0.09548,-0.28079 c 0.111928,-0.32916 0.108675,-0.58286 -0.01554,-1.21185 -0.08023,-0.40626 -0.06718,-0.45156 0.110418,-0.3834 0.121549,0.0466 0.335754,-0.022 0.540289,-0.17328 0.408659,-0.30213 1.067777,-0.24334 1.465992,0.13076 0.142284,0.13367 0.414811,0.23985 0.615631,0.23985 0.287976,0 0.389125,-0.0695 0.503726,-0.34619 0.158956,-0.38376 0.550488,-0.48515 1.296248,-0.33568 0.613371,0.12294 1.642926,0.49316 1.644724,0.59143 0.0039,0.21176 -0.657495,0.23191 -1.165252,0.0355 -0.832657,-0.32209 -1.024901,-0.34311 -1.10999,-0.12137 -0.09295,0.24222 -3.2e-5,0.41149 0.225884,0.41149 0.230138,0 0.222642,0.63261 -0.0098,0.82551 -0.09858,0.0818 -0.151285,0.17669 -0.117129,0.21085 0.03416,0.0342 0.194885,-0.0626 0.357177,-0.21511 0.21231,-0.19945 0.330898,-0.24138 0.422791,-0.14949 0.210675,0.21067 -0.0068,0.62252 -0.437176,0.82773 l -0.40384,0.19257 -0.193673,-0.19367 c -0.10652,-0.10652 -0.193673,-0.35494 -0.193673,-0.55205 v -0.35838 h -0.487914 -0.487914 l -0.257205,0.45764 c -0.141463,0.2517 -0.326044,0.58243 -0.410181,0.73495 -0.240665,0.43629 -0.689854,1.15927 -0.720253,1.15927 -0.01517,0 -0.06286,-0.0353 -0.105977,-0.0784 z m 0.15679,-2.07459 c 0,-0.27868 -0.07769,-0.60941 -0.172649,-0.73495 l -0.172649,-0.22827 -0.0037,0.65656 c -0.0021,0.36111 0.03154,0.69184 0.07465,0.73496 0.18499,0.18499 0.274383,0.0455 0.274383,-0.4283 z m 0.652671,-0.37682 c -0.123429,-0.82308 -0.299893,-0.7521 -0.299893,0.12062 v 0.77969 l 0.189095,-0.18909 c 0.144798,-0.1448 0.170753,-0.31141 0.110798,-0.71122 z m 1.111218,-0.29241 c -0.231762,-0.14978 -0.705556,-0.14978 -0.705556,0 0,0.0647 0.198438,0.11678 0.440972,0.11579 0.328011,-0.001 0.395788,-0.031 0.264584,-0.11579 z m 12.7,-1.59002 c 0,-0.0337 -0.136483,-0.26756 -0.303296,-0.51963 -0.64453,-0.97395 -1.927471,-1.51959 -2.796287,-1.18927 l -0.292671,0.11128 0.214063,0.56488 c 0.214763,0.56673 0.49828,0.76359 0.744755,0.51712 0.315758,-0.31576 1.607783,-0.0309 2.133575,0.47042 0.121874,0.1162 0.299861,0.14303 0.299861,0.0452 z m -99.283278,-4.94633 c 0.37504,-0.10249 0.99939,-0.23272 1.38745,-0.28941 0.81733,-0.11938 1.63687,-0.27497 2.46944,-0.46881 0.32338,-0.0753 0.77317,-0.17949 0.99954,-0.23156 1.28563,-0.29574 4.01798,-1.12922 5.46805,-1.66799 1.02211,-0.37976 2.68112,-1.00395 3.05741,-1.15034 0.12935,-0.0503 0.49977,-0.21073 0.82315,-0.35647 0.32338,-0.14574 0.6938,-0.30614 0.82315,-0.35646 1.67363,-0.65097 5.9237,-2.93161 5.68792,-3.0522 -0.16613,-0.085 -2.67618,0.12829 -3.92403,0.3334 -1.69319,0.27831 -5.36278,1.37229 -6.93855,2.06852 -0.25838,0.11417 -0.57562,0.24839 -0.70497,0.29828 -0.79494,0.30659 -8.12345,3.91057 -8.99584,4.42393 -0.66575,0.39177 -1.0162,0.63546 -0.91384,0.63546 0.0436,0 0.38607,-0.0839 0.76112,-0.18635 z m -0.6328,-0.91404 c 0.46438,-0.28183 2.3789,-1.28247 4.2545,-2.22363 3.16668,-1.58901 3.79068,-1.89116 5.24235,-2.53837 1.40608,-0.62689 3.54784,-1.39143 5.00613,-1.78703 0.50755,-0.13769 1.10803,-0.30251 1.3344,-0.36628 1.52456,-0.42944 2.67977,-0.57878 4.99081,-0.64521 l 2.1098,-0.0606 0.53604,-0.36457 c 0.29482,-0.20051 0.56249,-0.39465 0.59483,-0.43141 0.0323,-0.0368 0.35929,-0.29514 0.72655,-0.57415 0.36726,-0.27901 0.74359,-0.62303 0.83627,-0.76448 0.2126,-0.32446 1.03062,-0.73684 1.8257,-0.92036 0.77427,-0.17873 1.75035,-0.0147 2.76969,0.46533 1.46361,0.68929 2.41107,1.68135 3.59357,3.76271 l 0.62187,1.09458 0.42759,-0.42759 c 0.23517,-0.23517 0.73052,-0.56898 1.10077,-0.7418 l 0.67319,-0.31421 -0.003,-2.04154 c -0.002,-1.12285 0.0229,-2.06742 0.0546,-2.09905 0.21669,-0.21669 0.30834,0.24224 0.30834,1.54408 0,0.79561 0.0336,1.69207 0.0748,1.99214 l 0.0748,0.54557 h 0.51318 0.51318 v -0.33291 c 0,-0.33135 0.0999,-0.41485 0.85255,-0.71245 0.467,-0.18466 1.50046,-0.36575 2.08727,-0.36575 0.75379,0 2.48848,0.35039 2.96761,0.59942 0.11231,0.0584 0.27106,0.1078 0.35278,0.10983 0.15381,0.004 1.09191,0.45933 1.91248,0.92864 0.81404,0.46557 1.87454,1.26088 2.50669,1.87987 0.60792,0.59526 0.70353,0.61493 0.50416,0.10375 -0.0579,-0.14857 -0.1698,-0.50825 -0.24858,-0.79929 -0.0788,-0.29104 -0.19721,-0.66146 -0.26317,-0.82315 -0.066,-0.16169 -0.15905,-0.39981 -0.20688,-0.52916 -0.40168,-1.08632 -1.39562,-2.99838 -3.07169,-5.90903 -0.30092,-0.52257 -0.64294,-1.12144 -0.93497,-1.6371 -1.15916,-2.04684 -2.52059,-3.33099 -4.0476,-3.81785 -0.2587,-0.0825 -0.55751,-0.22165 -0.66402,-0.30927 -0.28745,-0.23645 -1.41813,-0.31744 -2.06696,-0.14805 -0.91605,0.23916 -2.43444,1.02472 -2.73707,1.41607 -0.0902,0.11667 -1.86067,1.2918 -1.94622,1.2918 -0.0414,0 -0.2177,0.10136 -0.39168,0.22525 -0.31527,0.22449 -3.81539,2.00901 -3.94043,2.00901 -0.0362,0 -0.39784,0.14943 -0.80368,0.33206 -0.40585,0.18263 -0.92311,0.39964 -1.14948,0.48224 -0.59074,0.21556 -0.83593,0.31072 -1.23472,0.47922 -0.45655,0.19291 -0.72945,0.29687 -1.23472,0.47037 -0.22636,0.0777 -0.5174,0.18735 -0.64676,0.24361 -0.12935,0.0563 -1.36902,0.47869 -2.75482,0.93875 -1.3858,0.46006 -2.68226,0.95572 -2.88102,1.10147 -0.19876,0.14574 -0.57305,0.35865 -0.83175,0.47313 -0.2587,0.11447 -0.76141,0.34029 -1.11713,0.5018 -0.65881,0.29914 -1.02709,0.45574 -1.4993,0.63753 -0.5142,0.19795 -0.91375,0.3657 -1.11554,0.46836 -0.1123,0.0571 -0.30016,0.10387 -0.41745,0.10387 -0.1173,0 -0.26354,0.0437 -0.32498,0.0971 -0.0614,0.0534 -0.34984,0.16546 -0.64088,0.24895 -0.29104,0.0835 -0.79375,0.24573 -1.11713,0.36051 -0.32338,0.11478 -0.90546,0.2721 -1.29352,0.34959 -0.38805,0.0775 -0.97013,0.20075 -1.29351,0.27391 -0.85517,0.19347 -4.65742,0.17762 -5.52685,-0.023 -1.32233,-0.30519 -2.6353,-0.82409 -3.38071,-1.33609 -0.20115,-0.13816 -0.41437,-0.19316 -0.56432,-0.14557 -0.39561,0.12556 -0.90237,-0.274 -1.86709,-1.4721 -0.74051,-0.91966 -1.79972,-1.99868 -1.96196,-1.99868 -0.0759,0 -0.17415,0.14433 -0.21843,0.32073 l -0.0805,0.32073 -0.51569,-0.58531 -0.51569,-0.58532 -0.005,0.44097 c -0.006,0.61925 -0.35672,0.60623 -0.63459,-0.0236 -0.30983,-0.70224 -0.96055,-1.29933 -1.41604,-1.29933 -0.51354,0 -0.65852,0.18492 -0.65852,0.83994 0,0.63708 0.32687,1.29118 0.73911,1.47901 0.18926,0.0862 0.31381,0.30284 0.42614,0.74113 0.22985,0.89682 1.19564,2.64659 2.17286,3.93668 0.24496,0.32338 0.54089,0.72025 0.65763,0.88194 0.51084,0.70755 3.1207,4.18719 3.23147,4.30841 0.33851,0.37044 0.5339,0.6447 0.5339,0.74942 0,0.21 0.24027,0.12315 1.09596,-0.39618 z"
       id="path3" /></g></svg>
