<?xml version="1.0" encoding="UTF-8" standalone="no"?>
<!-- Created with Inkscape (http://www.inkscape.org/) -->

<svg
   width="124.25291mm"
   height="102.6582mm"
   viewBox="0 0 124.25293 102.6582"
   version="1.1"
   id="svg1"
   xml:space="preserve"
   xmlns="http://www.w3.org/2000/svg"
   xmlns:svg="http://www.w3.org/2000/svg"><defs
     id="defs1" /><g
     id="layer1"
     transform="translate(-144.69304,-1637.9619)"><path
       style="fill:#4d4d4d"
       d="m 224.34539,1740.0593 c 0.38272,-0.9973 -0.0839,-1.1213 -2.29639,-0.6102 -1.19419,0.2759 -2.82467,0.4538 -3.6233,0.3955 l -1.45205,-0.1062 0.0145,-4.9389 c 0.008,-2.7164 0.14598,-8.0345 0.30668,-11.8181 0.3227,-7.5978 -0.0106,-11.4207 -1.19869,-13.7496 -0.6712,-1.3157 -0.67523,-1.4053 -0.0828,-1.8423 0.34251,-0.2527 1.68124,-1.8251 2.97497,-3.4943 3.13249,-4.0416 8.30759,-8.6114 11.20383,-9.8934 0.58795,-0.2602 1.06899,-0.5719 1.06899,-0.6925 0,-0.1971 -1.65427,-0.8255 -5.31671,-2.0198 -0.69287,-0.226 -1.83769,-0.4108 -2.54404,-0.4108 -1.21608,0 -1.30447,0.08 -1.66451,1.4993 -0.57757,2.2774 -2.32778,6.4139 -4.29135,10.1423 -1.96386,3.729 -2.91334,4.9306 -3.46228,4.3817 -0.23601,-0.236 0.1448,-1.2276 1.14642,-2.9852 2.86977,-5.0358 5.54914,-11.2529 5.54914,-12.876 0,-0.6359 -6.94898,-0.3625 -7.70995,0.3033 -1.22371,1.0708 -3.09244,1.752 -4.80587,1.752 -2.9617,0 -5.01124,-1.3288 -10.66083,-6.9117 -4.86629,-4.8089 -8.05006,-7.3067 -8.55304,-6.7103 -0.13547,0.1606 -0.70469,1.4033 -1.26496,2.7615 -1.24662,3.0221 -3.03872,6.2662 -4.4221,8.005 -0.56981,0.7162 -1.03603,1.3981 -1.03603,1.5153 0,0.1172 0.54446,0.1109 1.20991,-0.014 1.39564,-0.2618 3.06567,0.5431 3.73965,1.8024 0.42521,0.7945 6.0986,6.1537 6.51449,6.1537 0.12478,0 0.89049,0.4454 1.70156,0.9898 0.81107,0.5445 3.49685,2.0129 5.96839,3.2632 6.14789,3.1102 6.11294,3.7313 -0.2628,4.6706 -4.01112,0.591 -4.55042,0.7336 -12.49277,3.3032 -2.60373,0.8423 -4.88144,1.5315 -5.06156,1.5315 -0.18013,0 -1.62167,0.6131 -3.20344,1.3624 -1.58176,0.7494 -4.06655,1.8947 -5.52176,2.5452 -1.90359,0.851 -3.16625,1.7248 -4.50092,3.1149 -1.39368,1.4515 -1.95558,1.8316 -2.25914,1.528 -0.89339,-0.8934 2.66265,-4.2708 6.26529,-5.9506 l 1.79829,-0.8384 0.21092,-4.195 c 0.21916,-4.3588 0.97522,-6.9065 2.34318,-7.896 1.00921,-0.7299 7.78404,-8.0047 7.78404,-8.3584 0,-0.1835 -0.43656,-0.742 -0.97013,-1.2412 -0.69134,-0.6468 -1.20796,-0.8493 -1.79764,-0.7046 -0.45512,0.1116 -1.03077,0.034 -1.27921,-0.1719 -0.48641,-0.4037 -3.27943,3.1048 -7.39172,9.2852 -2.06411,3.1022 -2.07176,3.1234 -2.00094,5.5489 0.1364,4.6713 -2.04992,7.3374 -8.96174,10.928 -2.32834,1.2095 -5.36321,2.8799 -6.74417,3.7119 -3.07208,1.8508 -4.8104,2.2628 -5.79355,1.373 -2.16671,-1.9608 0.53056,-7.5754 6.89327,-14.3489 4.86974,-5.1841 7.97703,-9.1933 9.65593,-12.4586 0.60297,-1.1727 1.81635,-4.8897 2.70627,-8.2903 2.63348,-10.063 3.27064,-12.2051 4.20844,-14.1491 1.11757,-2.3166 1.11235,-2.4551 -0.0783,-2.0793 -0.53357,0.1685 -1.84326,0.4059 -2.91041,0.5277 -2.47674,0.2826 -3.62771,0.684 -7.85526,2.7394 -1.89504,0.9213 -4.05647,1.7729 -4.80317,1.8923 -1.24237,0.1986 -1.49477,0.446 -2.97296,2.9136 -3.49373,5.8323 -6.32675,12.7575 -8.17465,19.9827 -1.77292,6.932 -2.12409,10.2262 -2.11537,19.8437 0.006,6.4231 -0.0977,8.5549 -0.41559,8.5549 -0.24707,0 -0.54228,-0.8446 -0.70899,-2.0285 -0.42584,-3.024 -0.29253,-14.6968 0.20244,-17.7271 0.55738,-3.4122 1.82139,-9.6253 2.02665,-9.9617 0.0874,-0.1432 0.3969,-1.1751 0.68783,-2.2931 1.0621,-4.0813 3.82282,-10.4983 6.7906,-15.784 1.57329,-2.802 1.71978,-3.2331 1.26832,-3.7319 -0.65748,-0.7265 -0.65115,-2.2116 0.0149,-3.4996 0.28892,-0.5587 1.66888,-1.7812 3.06658,-2.7165 4.09455,-2.7402 10.72943,-9.7486 18.26798,-19.2965 5.10014,-6.4596 11.52731,-13.625 12.22117,-13.625 0.87568,0 0.52095,1.0537 -0.72214,2.1452 -1.58838,1.3946 -6.20267,6.7277 -10.96364,12.6715 -9.14724,11.4197 -13.78236,16.1677 -20.077,20.5657 -0.6717,0.4693 -0.90716,0.9447 -0.90716,1.8313 0,0.6586 0.13408,1.2803 0.29796,1.3816 0.37595,0.2323 2.96418,-0.7483 7.77027,-2.9439 2.06595,-0.9438 4.54858,-1.8309 5.51694,-1.9713 1.91967,-0.2783 2.64261,-0.6801 2.64261,-1.4688 0,-1.086 2.32886,-3.8104 5.15769,-6.0338 2.44846,-1.9245 2.9562,-2.4931 2.9562,-3.3106 0,-0.5429 0.30581,-1.792 0.67958,-2.7756 1.29217,-3.4008 3.3807,-5.3576 7.10469,-6.6567 1.85855,-0.6483 2.00471,-0.6496 4.78408,-0.042 3.46922,0.7586 6.23915,1.9812 8.0089,3.535 0.72527,0.6368 1.38756,1.089 1.47176,1.0048 0.47169,-0.4717 -2.8552,-11.3994 -4.70291,-15.4475 -0.70746,-1.5499 -0.71189,-2.1322 -0.0162,-2.1322 0.96252,0 4.22847,8.9774 5.58277,15.3458 0.41261,1.9403 0.89151,4.1628 1.06421,4.9389 0.1727,0.7761 0.59174,3.3753 0.9312,5.7759 0.59693,4.2215 0.65279,4.3866 1.70109,5.0278 0.59615,0.3646 1.32203,0.5656 1.61307,0.4467 1.36163,-0.5565 6.69238,-1.5467 11.04069,-2.0508 12.02113,-1.3937 21.73375,-0.1483 29.32341,3.7597 3.03144,1.561 7.62529,5.7141 9.51957,8.6063 0.79272,1.2103 1.20527,1.4974 2.43469,1.6939 3.41134,0.5454 6.06162,3.447 6.94954,7.6085 0.67375,3.1579 0.097,10.5762 -0.97605,12.5541 -0.60942,1.1233 -3.13072,3.2754 -4.13157,3.5266 -1.00995,0.2535 -1.13696,1.2002 -0.56943,4.2441 0.17677,0.9481 0.59015,4.1379 0.91861,7.0883 0.69064,6.2038 0.38601,10.31 -0.89873,12.1142 -0.83079,1.1667 -1.32572,1.3297 -8.63156,2.8423 -3.70449,0.767 -5.52434,1.3096 -6.06741,1.809 -0.72712,0.6687 -1.11392,0.6992 -2.92843,0.2315 -0.32667,-0.084 -0.49481,0.077 -0.43939,0.4205 0.0913,0.5663 -0.85647,1.184 -2.29925,1.4985 -0.54598,0.119 -0.91236,-0.039 -1.15894,-0.4998 -0.58257,-1.0885 -1.41305,-0.8567 -1.17606,0.3282 0.17205,0.8603 0.0586,1.0552 -0.80257,1.3781 -3.15587,1.1834 -4.12973,1.3143 -4.69657,0.6313 -0.71764,-0.8647 -1.42135,-0.6531 -1.42441,0.4283 -0.003,0.9858 -1.16189,1.8521 -2.47823,1.8521 -0.31704,0 -0.68612,0.1097 -0.82019,0.2437 -0.39474,0.3948 -3.75439,0.4883 -3.75439,0.1046 0,-0.1916 -0.23812,-0.3483 -0.52916,-0.3483 -0.29105,0 -0.52917,0.1587 -0.52917,0.3528 0,0.194 -0.25511,0.3527 -0.56691,0.3527 -0.37328,0 -0.49338,-0.1916 -0.35163,-0.561 z m 4.78764,-1.577 c -0.41613,-0.7776 -1.04688,-0.9135 -1.04688,-0.2256 0,0.6036 0.73805,1.3269 1.11576,1.0934 0.16349,-0.101 0.1325,-0.4916 -0.0689,-0.8678 z m 2.75283,-0.2653 c 0.0768,-0.2304 -0.11171,-0.4189 -0.41892,-0.4189 -0.30721,0 -0.55857,0.2514 -0.55857,0.5586 0,0.623 0.75945,0.5145 0.97749,-0.1397 z m 6.45731,-2.2798 c -0.0436,-0.4218 -0.52751,-0.3401 -0.6791,0.1147 -0.0776,0.2328 0.0494,0.3598 0.28222,0.2822 0.23283,-0.078 0.41143,-0.2562 0.39688,-0.3969 z m 5.08881,-2.0197 c -0.11991,-0.194 -0.36741,-0.3527 -0.54998,-0.3527 -0.18258,0 -0.33196,0.1587 -0.33196,0.3527 0,0.1941 0.24749,0.3528 0.54999,0.3528 0.30249,0 0.45187,-0.1587 0.33195,-0.3528 z m 11.47665,-3.3431 c 3.15242,-0.6745 6.09848,-1.4668 6.54681,-1.7605 2.09834,-1.3749 2.03451,-7.4252 -0.23462,-22.2366 -0.68759,-4.4882 -4.47802,-13.2241 -5.74104,-13.2316 -0.22337,0 -0.79896,-0.5791 -1.27909,-1.284 l -0.87296,-1.2815 -0.71454,0.9964 c -0.393,0.548 -1.22435,1.5748 -1.84745,2.2818 l -1.13292,1.2854 1.13292,0.4472 c 1.50841,0.5955 3.2761,2.9123 4.59598,6.0238 1.93082,4.5516 2.9923,11.6484 3.13959,20.9902 l 0.10012,6.35 -2.83426,0.2352 c -2.38463,0.1979 -6.024,0.9116 -7.85963,1.5412 -0.63753,0.2187 -0.17152,0.8695 0.62262,0.8695 0.35575,0 3.22606,-0.5519 6.37847,-1.2265 z m 2.83871,-31.4349 c 0.0169,-0.4109 0.10052,-0.4945 0.21313,-0.2131 0.10191,0.2547 0.0894,0.5589 -0.0279,0.6762 -0.11722,0.1172 -0.2006,-0.091 -0.18528,-0.4631 z m -101.27508,21.8871 c 1.06716,-0.6805 3.92466,-2.2504 6.35,-3.4887 6.38161,-3.2582 8.57715,-5.4243 8.86319,-8.7444 0.14356,-1.6664 -0.1511,-1.9378 -0.88603,-0.8161 -0.51024,0.7787 -1.62716,1.2546 -1.62716,0.6933 0,-0.407 0.83118,-1.7819 1.9054,-3.1518 0.60861,-0.7761 1.31012,-1.808 1.5589,-2.293 0.24878,-0.4851 2.74336,-4.0275 5.54351,-7.8721 6.42774,-8.8252 9.87879,-15.1084 9.67564,-17.6159 -0.13813,-1.7049 0.042,-2.3718 0.74188,-2.7463 0.54045,-0.2893 0.85868,-0.2813 1.23472,0.031 0.69542,0.5771 0.63503,0.9237 -0.19894,1.1418 -0.47508,0.1242 -0.70555,0.4812 -0.70555,1.0928 0,0.7003 0.22206,0.9604 0.97014,1.1362 1.43595,0.3375 3.61665,2.1264 8.73125,7.1625 5.12958,5.0509 7.0696,6.3813 9.30546,6.3813 1.31473,0 4.15456,-1.0787 4.62926,-1.7585 0.42636,-0.6105 1.82677,-1.0984 2.22741,-0.776 0.23711,0.1908 2.48211,0.2835 5.18092,0.2138 5.67317,-0.1463 6.87407,0.1293 12.69968,2.9149 10.59754,5.0674 13.9334,4.8658 18.58924,-1.1234 0.60334,-0.7761 2.02546,-1.9553 3.16028,-2.6204 2.87425,-1.6845 4.65739,-3.4478 4.92401,-4.869 0.18303,-0.9756 -5.9e-4,-1.5127 -1.06553,-3.1166 -1.1584,-1.7447 -4.86161,-5.5671 -6.51631,-6.7261 -2.8365,-1.9868 -7.9408,-3.8905 -13.27053,-4.9494 -3.39808,-0.6751 -13.73791,-0.7606 -17.99167,-0.1488 -4.91883,0.7076 -9.50812,1.5296 -10.01119,1.7931 -0.45891,0.2405 0.41026,0.9104 4.27855,3.2978 1.00957,0.6231 1.31833,1.6408 0.49778,1.6408 -0.2598,0 -1.01386,-0.4002 -1.67569,-0.8893 -2.70875,-2.0019 -8.23475,-5.5118 -9.95213,-6.3213 -2.0492,-0.9659 -6.47076,-2.3548 -9.41926,-2.9587 -1.06716,-0.2186 -3.05153,-0.714 -4.40973,-1.101 -1.35819,-0.387 -3.1622,-0.7082 -4.00891,-0.7139 -2.0993,-0.014 -4.16208,1.1952 -5.06788,2.9707 -0.39253,0.7694 -1.23946,2.1633 -1.88207,3.0975 -2.57307,3.7405 -3.31982,5.822 -6.6352,18.4947 -2.3149,8.8485 -4.0467,11.9889 -10.47501,18.9949 -5.1872,5.6534 -7.43579,8.4277 -8.43483,10.407 -1.10327,2.1857 -1.59168,4.0224 -1.22667,4.613 0.3884,0.6285 2.25807,0.085 4.39307,-1.2762 z m 57.84606,-32.4524 c -0.56208,-0.6773 0.0888,-2.9583 1.31485,-4.608 0.44622,-0.6004 0.81131,-1.5182 0.81131,-2.0396 0,-0.5213 0.21719,-1.0312 0.48265,-1.1331 0.26545,-0.1018 0.99292,-0.9727 1.61659,-1.9352 1.04843,-1.618 2.55809,-2.7963 3.58259,-2.7963 0.92098,0 2.70556,1.819 4.71518,4.8061 1.1587,1.7222 2.12512,3.1718 2.1476,3.2211 0.0225,0.049 0.56428,-0.1714 1.20401,-0.4905 0.97841,-0.4881 1.98728,-0.5511 6.35192,-0.3964 3.02998,0.1074 5.52104,0.3618 5.98742,0.6114 0.70164,0.3755 0.93334,0.3017 1.90743,-0.6076 1.56414,-1.46 3.237,-2.558 3.89727,-2.558 1.0551,0 0.56487,0.8799 -1.06336,1.9086 -2.07733,1.3124 -3.31263,2.6484 -3.31263,3.5826 0,0.4047 -0.37145,1.0848 -0.82545,1.5113 -1.29544,1.217 -2.72847,1.4706 -5.28628,0.9354 -2.40862,-0.5039 -7.91687,-2.8115 -8.56744,-3.5892 -0.21542,-0.2575 -0.70125,-0.4681 -1.07963,-0.4681 -0.37839,0 -1.71026,-0.4045 -2.95972,-0.8989 -1.24947,-0.4943 -3.14488,-1.1109 -4.21203,-1.3702 -1.06716,-0.2592 -2.17464,-0.5294 -2.46107,-0.6004 -0.33384,-0.083 -0.56623,0.1874 -0.64736,0.7528 -0.0696,0.4851 -0.49136,1.2788 -0.93723,1.7639 -0.8176,0.8895 -1.87542,3.3687 -1.56835,3.6758 0.0912,0.091 0.74049,0.036 1.44294,-0.1223 1.89785,-0.428 2.53836,0.1608 0.91343,0.8398 -1.65774,0.6926 -2.88247,0.6944 -3.45464,0 z m 26.95258,-1.2064 c 0.80603,-0.3065 1.87272,-1.6576 1.55749,-1.9728 -0.39183,-0.3919 -5.48411,-0.8821 -8.22489,-0.7919 l -3.16596,0.1043 1.41111,0.6772 c 1.97092,0.9459 5.84547,2.2575 6.76801,2.291 0.42393,0.015 1.16834,-0.1231 1.65424,-0.3078 z m -14.60281,-4.8676 c -0.004,-0.1455 -0.84374,-1.2965 -1.86648,-2.5577 -2.27672,-2.8075 -3.00956,-3.0014 -4.67378,-1.2368 -1.42692,1.513 -1.5132,1.9424 -0.39022,1.9424 0.98007,0 5.2066,1.3339 5.68507,1.7942 0.40383,0.3886 1.25514,0.4281 1.24541,0.058 z m 15.88158,-4.6533 c -0.6793,-0.3593 -1.52308,-0.9715 -1.87506,-1.3605 -1.05134,-1.1617 -0.06,-1.2605 1.7823,-0.1776 1.42378,0.8369 2.04455,0.9815 4.06188,0.9461 1.70342,-0.03 2.38125,0.085 2.38125,0.4033 0,0.6426 -0.84534,0.8753 -3.11566,0.8576 -1.23992,-0.01 -2.46886,-0.2638 -3.23471,-0.6689 z m -63.18143,36.0879 c 0.45538,-0.3189 1.56227,-0.8591 2.45975,-1.2003 0.89747,-0.3412 1.65315,-0.8343 1.67927,-1.0957 0.0261,-0.2615 0.0658,-0.6544 0.0882,-0.8732 0.0224,-0.2187 0.9535,-1.4908 2.06916,-2.8267 2.82166,-3.3787 6.0936,-7.7779 6.04408,-8.1263 -0.0227,-0.16 -1.02848,-1.2048 -2.23499,-2.3218 l -2.19364,-2.0309 -0.85182,1.1923 c -0.4685,0.6557 -2.46761,2.8786 -4.44247,4.9398 -4.01151,4.1868 -4.19083,4.5999 -4.42325,10.1887 -0.12472,2.999 0.14318,3.3186 1.80571,2.1541 z m 81.87902,-14.2367 c -0.20768,-0.3881 -0.53211,-0.7056 -0.72095,-0.7056 -0.1902,0 -0.14681,0.3148 0.0973,0.7056 0.24234,0.3881 0.56677,0.7056 0.72095,0.7056 0.15419,0 0.11041,-0.3175 -0.0973,-0.7056 z m 5.76721,-0.5259 c 0.66602,-0.6661 1.09668,-4.5696 0.79216,-7.1803 -0.56067,-4.8065 -2.2581,-7.6494 -5.14826,-8.6224 -1.65464,-0.557 -2.09957,-0.3797 -2.11126,0.8416 -0.0104,1.0879 -2.09319,3.4315 -4.21161,4.7391 l -2.13818,1.3197 1.14372,1.3337 c 0.62905,0.7335 1.41521,1.4348 1.74702,1.5584 0.33181,0.1236 1.20494,0.9547 1.94028,1.847 3.71368,4.506 3.93888,4.6891 5.76643,4.6891 1.03058,0 1.89969,-0.2059 2.2197,-0.5259 z m -25.61831,-1.8039 c -0.11722,-0.1172 -0.42149,-0.1298 -0.67615,-0.028 -0.28143,0.1127 -0.19783,0.1963 0.21313,0.2132 0.37189,0.015 0.58025,-0.068 0.46302,-0.1853 z m -2.02112,-0.6277 c 0,-0.074 -0.3175,-0.2182 -0.70556,-0.3197 -0.38805,-0.1015 -0.70555,-0.041 -0.70555,0.1352 0,0.1759 0.3175,0.3198 0.70555,0.3198 0.38806,0 0.70556,-0.061 0.70556,-0.1353 z m -2.11667,-0.8911 c -0.29104,-0.1647 -0.92604,-0.4144 -1.41111,-0.5549 -0.85655,-0.2482 -0.86163,-0.2396 -0.17639,0.2989 0.38806,0.3049 1.02306,0.5546 1.41111,0.5549 0.56692,4e-4 0.60158,-0.058 0.17639,-0.2989 z m -60.54008,-26.1089 c 1.0293,-0.7604 2.14408,-1.9113 2.47729,-2.5577 0.33322,-0.6463 0.86912,-1.6026 1.1909,-2.1252 0.32177,-0.5226 0.47107,-1.0641 0.33176,-1.2034 -0.38538,-0.3854 -4.16395,3.042 -5.46056,4.9531 -1.87886,2.7693 -1.42088,3.0619 1.46061,0.9332 z m 28.43731,-2.6156 c 0,-0.2587 -0.15312,-1.3303 -0.34027,-2.3813 -0.18714,-1.051 -0.4367,-2.5288 -0.55456,-3.284 -0.35474,-2.2729 -1.10877,-0.8557 -1.32048,2.4818 -0.1701,2.6814 -0.13179,2.8969 0.57557,3.2393 1.06207,0.514 1.63974,0.4944 1.63974,-0.056 z m -3.46605,-1.9991 c 0.1232,-2.112 0.21,-3.008 0.33746,-3.4837 0.0715,-0.2668 -0.0684,-0.5578 -0.31094,-0.6467 -0.26425,-0.097 -0.73375,0.5215 -1.17175,1.5434 -0.40195,0.9377 -0.9795,1.9799 -1.28344,2.3158 -0.5073,0.5606 -0.48353,0.6383 0.2898,0.9477 1.56299,0.6254 2.07233,0.4643 2.13887,-0.6765 z m -3.84878,64.9719 c -0.23961,-0.1497 -0.52735,-0.7406 -0.63942,-1.3131 -0.17703,-0.9042 0.0299,-1.2698 1.57708,-2.7864 1.61985,-1.5877 1.86899,-1.7147 2.75608,-1.4047 0.76259,0.2665 1.00004,0.5986 1.08892,1.5228 0.14166,1.4731 -0.43386,2.9148 -1.40589,3.5219 -0.91482,0.5713 -2.78974,0.8264 -3.37677,0.4595 z m 3.19894,-2.6189 c 1.07785,-2.2059 0.49843,-2.3314 -1.55616,-0.3372 l -1.91268,1.8565 1.41112,-0.098 c 1.24147,-0.086 1.48884,-0.257 2.05772,-1.4213 z m 19.63811,-28.8391 c 0,-0.3881 0.14389,-0.7056 0.31975,-0.7056 0.17586,0 0.23672,0.3175 0.13524,0.7056 -0.10148,0.388 -0.24536,0.7055 -0.31975,0.7055 -0.0744,0 -0.13524,-0.3175 -0.13524,-0.7055 z"
       id="path100" /></g></svg>
