<?xml version="1.0" encoding="UTF-8" standalone="no"?>
<!-- Created with Inkscape (http://www.inkscape.org/) -->

<svg
   width="128.36127mm"
   height="68.321983mm"
   viewBox="0 0 128.36128 68.321984"
   version="1.1"
   id="svg1"
   xml:space="preserve"
   xmlns="http://www.w3.org/2000/svg"
   xmlns:svg="http://www.w3.org/2000/svg"><defs
     id="defs1" /><g
     id="layer1"
     transform="translate(533.69859,-1635.0918)"><path
       style="fill:#333333;stroke-width:2.5"
       d="m -532.99851,1702.1685 c -1.18325,-1.3075 -1.1555,-1.323 2.37795,-1.3148 1.96635,0 6.10525,-0.7255 9.19758,-1.6225 3.0923,-0.897 6.42667,-1.796 7.40967,-1.9975 1.7337,-0.3552 1.77545,-0.4702 1.39183,-3.8342 -0.56928,-4.9923 -1.2217,-6.3213 -3.67803,-7.4925 -1.20045,-0.5725 -2.67625,-1.901 -3.27957,-2.9523 -1.07475,-1.8725 -1.18285,-1.9032 -5.34638,-1.5145 -3.15125,0.2943 -4.38885,0.17 -4.78892,-0.476 -0.34323,-0.5552 -0.12125,-1.1285 0.61047,-1.5752 7.52055,-4.5935 9.32928,-6.1693 11.43525,-9.9628 1.2118,-2.1827 2.5035,-5.1595 2.87043,-6.6147 1.8104,-7.1798 1.95082,-7.469 3.96657,-8.1718 2.33903,-0.8155 2.7419,0.277 0.73565,1.995 -0.6824,0.5843 -1.89772,3.106 -2.7007,5.604 -2.676,8.3245 -6.2664,13.233 -11.92545,16.3033 -2.62397,1.4235 -2.1997,2.2305 0.65035,1.237 1.85078,-0.6453 2.24738,-0.5248 4.10063,1.2465 2.34797,2.2437 2.9754,2.36 5.0183,0.929 1.0342,-0.7245 1.3647,-1.463 1.10975,-2.4805 -0.19975,-0.7968 0.1,-2.7603 0.6658,-4.3633 0.5659,-1.603 0.91082,-3.0325 0.76655,-3.1767 -0.35593,-0.3558 -3.0591,4.0727 -3.0591,5.0117 0,1.1963 -1.20065,0.8643 -1.47888,-0.409 -0.13925,-0.6365 0.78723,-2.7945 2.05855,-4.7955 5.70958,-8.9862 7.38633,-12.486 9.03165,-18.8515 1.6351,-6.326 3.2681,-10.0367 2.59453,-5.8957 -1.15023,7.071 -2.81415,12.589 -5.27535,17.4947 -2.52883,5.0405 -2.86585,6.2635 -3.14293,11.4055 -0.33775,6.268 -1.04105,7.7438 -3.7032,7.771 l -1.738,0.025 2.1613,1.801 c 1.78238,1.4855 2.27318,2.4973 2.79925,5.77 0.35085,2.183 0.81578,4.7873 1.03318,5.7878 0.3807,1.7522 0.29577,1.819 -2.30758,1.819 -1.5328,0 -5.23712,1.0022 -8.55732,2.3152 -6.70303,2.6505 -9.29173,2.884 -11.00383,0.9923 z m 23.8564,0.067 c -0.91785,-0.3595 -1.049,-0.643 -0.46442,-1.0043 0.44802,-0.277 1.24682,-0.3377 1.7751,-0.135 1.31895,0.5063 1.24322,-1.3545 -0.34808,-8.553 -1.23907,-5.6052 -1.66827,-8.9832 -0.89917,-7.0772 0.6552,1.6237 2.02637,0.782 3.2327,-1.9843 1.7663,-4.0507 10.50077,-15.9475 10.77335,-14.6737 0.24725,1.155 -2.51175,5.6682 -5.02625,8.222 -0.8942,0.9082 -2.4816,3.3465 -3.5276,5.4187 -1.046,2.072 -2.38763,4.0393 -2.98143,4.3715 -0.98927,0.5538 -0.96242,1.1033 0.32088,6.5695 1.8522,7.8893 1.83757,9.4533 -0.0878,9.393 -0.81858,-0.025 -2.06385,-0.2717 -2.7673,-0.5472 z m 13.57565,-7.0393 c -0.0327,-3.6525 -0.46967,-8.2662 -0.97077,-10.2527 -1.25928,-4.9915 -1.68303,-8.9088 -1.07093,-9.8993 0.531,-0.859 0.82255,0.15 1.67345,5.7883 0.233,1.5442 0.68858,2.9712 1.01235,3.1715 1.10403,0.6822 5.92318,-1.0698 8.06925,-2.9335 4.39885,-3.8205 7.10343,-4.3593 8.33345,-1.6595 1.29395,2.84 4.1612,6.2387 6.11565,7.2492 2.36928,1.2253 4.17878,0.5478 7.4162,-2.7765 2.72413,-2.797 3.34,-4.3257 2.84428,-7.0595 -0.18725,-1.0322 -0.0618,-1.6392 0.29315,-1.4197 0.34105,0.21 0.6201,1.086 0.6201,1.9452 0,1.2123 0.4637,1.6638 2.07082,2.0168 1.7411,0.3825 2.66268,0.037 5.78775,-2.1685 3.94125,-2.7815 4.69273,-4.3223 3.14228,-6.4425 -0.8845,-1.2098 -1.19283,-1.2435 -4.15908,-0.4578 -1.76207,0.4668 -3.7618,1.4 -4.44387,2.0735 -1.21123,1.1965 -1.18813,1.2715 0.99175,3.2193 1.2275,1.0967 2.01597,2.21 1.75217,2.4737 -0.2638,0.2638 -0.8863,0.1425 -1.38332,-0.2702 -0.497,-0.4125 -1.0925,-0.5613 -1.32333,-0.3305 -0.23075,0.23 -0.63325,-0.145 -0.89432,-0.8325 -0.7461,-1.9683 -1.75115,-2.6693 -9.80908,-6.8398 -1.09142,-0.5647 -2.096,-1.2875 -2.23242,-1.6057 -0.43333,-1.011 -2.70293,-3.0593 -3.38998,-3.0593 -0.3638,0 -1.24062,0.5793 -1.9485,1.287 -1.06722,1.0673 -1.1802,1.6595 -0.66145,3.4683 0.34405,1.1997 0.62558,3.079 0.62558,4.1762 0,2.4133 1.51302,3.5063 5.63685,4.0715 2.32387,0.3185 2.9621,0.676 2.9621,1.6598 0,2.8497 -3.33755,2.226 -7.46043,-1.3938 -1.5879,-1.3942 -2.2273,-2.446 -2.00462,-3.2975 0.36695,-1.4032 -1.8675,-4.0185 -3.43338,-4.0185 -1.29272,0 -1.2959,2.571 -0.005,3.0668 0.5436,0.2075 0.83,0.6355 0.6364,0.9487 -0.1935,0.3133 -1.35542,0.09 -2.5819,-0.4937 -2.7464,-1.3098 -4.33457,-0.79 -4.33457,1.4185 0,2.2322 -1.38955,2.143 -4.0185,-0.258 -2.10373,-1.9215 -2.11318,-1.959 -1.6581,-6.5773 0.35055,-3.5575 0.22325,-5.0977 -0.5437,-6.581 -1.34885,-2.6082 -2.09225,-10.1672 -1.15815,-11.7755 0.61087,-1.0517 0.72677,-0.827 0.74377,1.4408 0.01,1.4777 0.6384,5.0472 1.3941,7.9325 0.92853,3.545 1.2383,6.1505 0.95543,8.0367 -0.24775,1.6518 -0.11,3.3675 0.33685,4.2028 l 0.75537,1.4115 1.4177,-1.5218 c 1.23853,-1.3295 1.40075,-2.2072 1.28348,-6.9447 -0.0738,-2.9825 -0.4015,-6.6123 -0.72818,-8.0663 -0.66882,-2.9767 -0.35457,-3.8357 1.53405,-4.194 1.1234,-0.2125 2.14728,-1.5397 3.24498,-4.2047 0.14975,-0.3638 0.78947,0.04 1.42135,0.899 1.46217,1.986 4.27855,1.6497 8.2621,-0.9865 l 2.78815,-1.845 -2.69765,-0.8993 c -2.10245,-0.7007 -2.87495,-1.3895 -3.5011,-3.121 -0.84758,-2.344 -2.01008,-2.937 -5.8632,-2.9917 -2.19558,-0.03 -2.07565,-0.145 2.32295,-2.21 8.3261,-3.9083 11.22372,-3.6148 14.05527,1.4232 2.11908,3.7703 1.952,5.8158 -0.58212,7.1263 -1.13483,0.5867 -3.5236,2.116 -5.30843,3.3982 -2.4112,1.7323 -4.21817,2.4495 -7.03175,2.7908 -6.27797,0.7615 -6.7632,1.2597 -6.7632,6.9455 v 4.8607 l 4.35243,0.466 c 2.93582,0.3145 4.9927,0.2 6.31962,-0.3487 1.81888,-0.7535 2.12663,-0.662 4.08118,1.213 2.32,2.2252 9.03092,5.4382 11.35885,5.4382 2.70322,0 5.91837,-2.962 10.79555,-9.946 9.03822,-12.9422 12.7391,-15.4385 22.95435,-15.483 10.76297,-0.047 17.00037,3.1523 20.25167,10.3865 1.3552,3.0153 1.55948,4.5015 1.56738,11.4045 l 0.01,7.9375 -3.21915,6.284 c -3.97618,7.7615 -5.32805,9.6943 -7.5817,10.84 -1.13383,0.5763 -5.55873,1.0558 -12.3502,1.338 -5.82083,0.2425 -14.89935,0.715 -20.17448,1.051 -5.27512,0.336 -17.03255,0.9353 -26.1276,1.3318 -9.09505,0.3965 -17.19865,0.8582 -18.008,1.026 -0.96835,0.2 -1.68305,1.0372 -2.0901,2.4462 -0.49125,1.7008 -0.6308,0.775 -0.67817,-4.4995 z m 50.14348,-16.802 c -0.0623,-1.556 -0.107,-1.528 -0.55593,0.3495 -0.2685,1.1233 -0.7066,2.4628 -0.97352,2.9768 -0.26693,0.5137 -0.0175,0.3565 0.5559,-0.3495 0.5727,-0.7063 1.01077,-2.0458 0.97355,-2.9768 z m 0.86145,-6.1242 c -0.61738,-0.6175 -0.79375,-0.441 -0.79375,0.7937 0,1.2348 0.1765,1.411 0.79375,0.7938 0.61735,-0.6175 0.61735,-0.9703 0,-1.5875 z m -34.70728,-4.2363 c -0.21975,-0.22 -0.7903,-0.2425 -1.2678,-0.053 -0.52765,0.21 -0.37092,0.3678 0.39963,0.3995 0.6973,0.03 1.08797,-0.1275 0.86817,-0.3475 z m -29.16615,9.4948 c 0.97103,-1.91 2.74843,-6.6668 3.94978,-10.5705 2.3472,-7.6273 2.98865,-9.127 4.40787,-10.3048 0.5488,-0.4555 -0.11825,2.4673 -1.67287,7.3303 -3.09213,9.6725 -4.30993,12.7795 -5.95683,15.1987 -2.1073,3.0953 -2.58765,2.0043 -0.72795,-1.6537 z m -6.55302,-24.4975 c -0.528,-3.2535 0.10525,-5.4455 2.13522,-7.3903 3.17745,-3.0442 16.71708,-7.0125 23.5105,-6.8905 l 3.30728,0.06 -2.97655,0.586 c -12.85165,2.5305 -21.21983,5.3768 -23.3164,7.9308 -0.75233,0.9165 -1.15758,2.5422 -1.15758,4.644 0,3.6635 -0.9691,4.3477 -1.50247,1.0607 z"
       id="path77" /></g></svg>
