<?xml version="1.0" encoding="UTF-8" standalone="no"?>
<!-- Created with Inkscape (http://www.inkscape.org/) -->

<svg
   width="132.04648mm"
   height="98.771545mm"
   viewBox="0 0 132.04649 98.771545"
   version="1.1"
   id="svg1"
   xml:space="preserve"
   xmlns="http://www.w3.org/2000/svg"
   xmlns:svg="http://www.w3.org/2000/svg"><defs
     id="defs1" /><g
     id="layer1"
     transform="translate(243.2686,-1640.2601)"><path
       style="fill:#4d4d4d"
       d="m -212.61068,1738.8116 c -0.40971,-0.6629 0.64407,-0.941 4.51655,-1.192 l 3.81252,-0.2471 v -1.8563 c 0,-1.7665 -0.98103,-6.1101 -2.36287,-10.4621 l -0.63575,-2.0022 -2.03945,1.9089 -2.03945,1.9089 0.55875,2.1563 c 0.30731,1.1859 0.51068,2.8154 0.45195,3.621 l -0.1068,1.4648 -3.24548,0.049 c -3.83036,0.058 -5.40216,0.3857 -11.74757,2.4526 -7.6753,2.5 -8.82464,2.5507 -12.51839,0.5523 -1.82147,-0.9854 -2.48495,-0.9588 -3.5879,0.1442 -1.0572,1.0572 -2.1391,0.934 -1.54508,-0.1759 1.09364,-2.0435 3.26092,-2.277 6.38752,-0.6882 2.75616,1.4006 3.63002,1.3021 11.75185,-1.3253 5.31188,-1.7183 6.49242,-1.9767 9.81211,-2.1473 l 3.77373,-0.194 -0.21629,-1.0815 c -0.11896,-0.5948 -0.40522,-1.7236 -0.63613,-2.5086 -0.40652,-1.3818 -0.47589,-1.4328 -2.18666,-1.6087 -2.05697,-0.2115 -2.92087,-0.8002 -2.92087,-1.9904 0,-0.4679 0.71437,-2.6571 1.5875,-4.8646 1.78281,-4.5077 2.05899,-7.0108 0.96828,-8.7763 l -0.6155,-0.9963 -5.29167,-0.1024 c -5.83812,-0.113 -10.58147,-1.0646 -12.08211,-2.4238 -0.71384,-0.6466 -0.73985,-0.7775 -0.25988,-1.3078 0.29334,-0.3242 1.44404,-0.8028 2.55711,-1.0636 1.11307,-0.2608 2.61593,-0.8412 3.33967,-1.2899 0.72375,-0.4487 1.44937,-0.8158 1.6125,-0.8158 0.74143,0 4.63665,-4.428 6.0965,-6.9303 1.91794,-3.2877 4.30982,-8.9562 5.63495,-13.3544 0.23383,-0.7761 0.58486,-1.6122 0.78006,-1.858 0.25233,-0.3177 -0.0735,-1.2957 -1.1273,-3.3839 -1.21671,-2.4109 -1.51806,-3.411 -1.68234,-5.5832 -0.29472,-3.8969 0.44902,-5.8604 3.27111,-8.6358 4.64898,-4.5721 13.241,-7.3389 30.06346,-9.6811 1.80331,-0.251 3.44981,-0.6626 3.65891,-0.9145 0.42695,-0.5145 -0.0739,-2.0822 -1.1784,-3.6882 -0.35418,-0.515 -0.64396,-1.4357 -0.64396,-2.046 0,-0.6103 -0.2558,-1.6043 -0.56844,-2.2088 -0.64962,-1.2563 -0.52775,-4.1436 0.21254,-5.0356 0.40333,-0.486 0.54612,-0.4894 1.2472,-0.03 0.43544,0.2853 0.88485,0.4256 0.99868,0.3118 0.25191,-0.2519 12.48538,-0.4129 13.40335,-0.1764 0.58428,0.1506 0.62794,0.4137 0.41465,2.499 -0.178,1.7403 -0.54771,2.8565 -1.45931,4.4056 -0.67151,1.1411 -1.1756,2.1046 -1.12021,2.141 0.0554,0.036 1.124,0.3425 2.37469,0.68 5.24526,1.4155 8.05564,5.2787 6.37331,8.7607 l -0.69367,1.4357 1.2164,2.2136 c 1.11503,2.0292 3.28937,8.4695 3.8642,11.4456 0.27065,1.4013 1.06274,4.2774 1.89456,6.8792 0.81255,2.5415 0.54216,4.9959 -1.06133,9.6337 -0.96921,2.8033 -1.34608,4.4071 -1.2114,5.1553 0.82159,4.5637 1.22655,7.4113 1.08627,7.6383 -0.28636,0.4633 0.50506,2.0907 1.01675,2.0907 0.26898,0 1.66197,0.6479 3.09554,1.4397 2.13899,1.1814 3.05482,1.4745 5.10605,1.634 3.86116,0.3003 6.1551,-0.7958 7.54817,-3.6065 0.28751,-0.5801 1.17691,-1.8484 1.97646,-2.8186 0.79955,-0.9701 2.45908,-3.272 3.68784,-5.1152 5.86446,-8.7973 9.36161,-12.7043 12.73933,-14.2324 4.4352,-2.0065 5.14314,-2.2718 5.47385,-2.0514 0.53729,0.3581 1.52916,7.0852 1.52732,10.3588 -9e-4,1.6095 -0.16357,5.4784 -0.36148,8.5976 -0.25186,3.9695 -0.24522,7.0395 0.0221,10.2306 0.21008,2.5076 0.46349,7.258 0.56315,10.5565 0.2116,7.0035 -0.11866,8.7632 -1.83252,9.7641 -1.15244,0.6731 -5.47059,1.2923 -10.73684,1.5397 -1.84327,0.086 -4.38327,0.3097 -5.64445,0.4959 -3.99982,0.5906 -7.15195,1.044 -9.87777,1.4207 -1.45521,0.2012 -8.59896,1.3193 -15.875,2.4847 -17.95036,2.8751 -25.50465,3.2567 -31.75,1.6038 -1.73003,-0.4578 -1.98552,-0.4544 -2.35778,0.032 -0.62153,0.8117 -1.27406,0.219 -0.97631,-0.8868 0.73257,-2.7207 1.02109,-12.0076 0.51118,-16.4539 -0.24476,-2.1343 -0.43154,-4.1907 -0.41507,-4.5699 0.0165,-0.3791 -0.14737,-0.9029 -0.36412,-1.1641 -0.21674,-0.2612 -0.66196,-1.856 -0.98937,-3.544 -0.57952,-2.9878 -2.13292,-9.2556 -2.37478,-9.5818 -0.1868,-0.252 -1.75827,1.7363 -2.9167,3.6903 -0.57514,0.9702 -1.69719,3.8277 -2.49345,6.35 -1.6004,5.0697 -2.82621,7.2983 -5.0984,9.2693 l -1.51491,1.3141 1.36115,4.7625 c 2.26559,7.927 2.24285,11.0737 -0.0826,11.4281 -2.69941,0.4113 -7.68424,0.5064 -7.90404,0.1508 z m 46.07629,-1.9353 c 7.26137,-1.0393 10.94683,-1.7114 13.22916,-2.4124 1.63834,-0.5032 1.66345,-0.527 0.35278,-0.3351 -0.77611,0.1137 -2.36361,0.3413 -3.52778,0.5058 -1.16416,0.1644 -4.41854,0.6386 -7.23194,1.0537 -2.8134,0.415 -6.3587,0.8862 -7.87845,1.047 -1.51974,0.1608 -2.94849,0.478 -3.175,0.705 -0.47974,0.4807 2.22998,0.295 8.23123,-0.564 z m -19.58938,-1.4693 c 0.26093,-1.5444 0.99834,-3.812 1.35594,-4.1696 0.13297,-0.133 0.24177,-0.4487 0.24177,-0.7017 0,-0.2529 0.41746,-1.3774 0.92769,-2.4988 2.30819,-5.0731 6.43328,-9.9113 9.81484,-11.5116 1.67497,-0.7926 2.5291,-1.0472 6.6116,-1.9709 4.41393,-0.9986 7.42513,-0.1781 17.07633,4.653 4.05554,2.0301 8.27126,3.9519 9.36828,4.2707 2.62959,0.7641 7.88318,0.7724 9.90454,0.015 3.44194,-1.2887 8.59397,-4.2569 9.19689,-5.2985 0.15516,-0.2681 0.45426,-0.4874 0.66466,-0.4874 0.34341,0 1.22075,-0.893 4.86159,-4.9481 1.89421,-2.1098 2.16718,-2.9115 2.05505,-6.0359 l -0.1023,-2.8506 -3.9994,4.7832 c -2.19967,2.6308 -4.73967,5.3729 -5.64445,6.0936 -0.90477,0.7207 -1.80379,1.4884 -1.99782,1.706 -0.19403,0.2177 -1.38465,0.8498 -2.64583,1.4049 -1.74339,0.7672 -3.01277,1.0483 -5.29547,1.1726 -3.80277,0.2072 -6.18597,-0.5646 -14.02208,-4.5413 -7.54935,-3.8312 -10.67551,-4.761 -12.39778,-3.6876 -0.47345,0.2951 -1.18724,-0.3208 -1.56336,-1.3489 -0.10385,-0.2839 -0.33104,-0.2805 -0.8295,0.012 -0.4627,0.2718 -0.88752,0.2908 -1.30316,0.058 -1.3652,-0.7641 -7.11304,0.5238 -11.15532,2.4994 -7.64216,3.7349 -11.77166,10.9911 -12.10575,21.2716 -0.0559,1.7215 -0.0273,3.2044 0.0636,3.2953 0.42411,0.4241 0.70975,0.056 0.91945,-1.1854 z m 38.72757,-2.058 c -0.24253,-0.098 -0.63941,-0.098 -0.88194,0 -0.24254,0.098 -0.0441,0.178 0.44097,0.178 0.48507,0 0.68351,-0.08 0.44097,-0.178 z m 4.58611,-0.7055 c -0.24253,-0.098 -0.63941,-0.098 -0.88194,0 -0.24254,0.098 -0.0441,0.1779 0.44097,0.1779 0.48507,0 0.68351,-0.08 0.44097,-0.1779 z m 21.43125,-2.5298 c 0,-0.4593 -0.41937,-0.7648 -0.76051,-0.554 -0.36485,0.2255 -0.0503,0.848 0.42855,0.848 0.18258,0 0.33196,-0.1323 0.33196,-0.294 z m 4.73966,-0.3746 c 0.10735,-0.1737 -0.0265,-0.4009 -0.29747,-0.5049 -0.51728,-0.1985 -0.91441,0.03 -0.91441,0.5267 0,0.394 0.96565,0.3766 1.21188,-0.022 z m -93.38266,-5.812 c 1.24348,-1.1894 2.53773,-2.3212 2.87611,-2.5153 3.59942,-2.0639 4.97389,-4.3069 7.24171,-11.818 0.95886,-3.1758 2.90985,-6.5254 4.8596,-8.3434 1.58024,-1.4735 2.05975,-2.1091 3.21363,-4.2595 1.81498,-3.3825 1.99817,-4.582 1.89337,-12.3981 l -0.0963,-7.1801 -0.86216,-0.4775 c -2.11129,-1.1693 -4.7257,-0.023 -5.79731,2.5416 -0.27479,0.6576 -1.31057,4.3296 -2.30173,8.1598 -3.76801,14.5612 -5.78095,19.4481 -11.76772,28.5694 -0.46539,0.709 -1.04374,1.145 -1.52093,1.1465 -0.49396,0 -0.85242,0.2869 -0.99997,0.7962 -0.1265,0.4365 -0.77219,2.0808 -1.43488,3.6539 -1.71517,4.0716 -1.58526,4.6703 0.96058,4.4276 1.23724,-0.118 1.83965,-0.4894 3.73597,-2.3031 z m -1.51192,-8.8019 c 0.49618,-0.7312 0.90215,-1.4185 0.90215,-1.5274 0,-0.1089 -0.39551,-0.668 -0.87891,-1.2425 -0.4834,-0.5745 -1.14248,-1.9468 -1.46462,-3.0496 -0.54238,-1.8566 -0.5435,-2.2067 -0.0152,-4.7317 0.86319,-4.1255 2.40158,-7.0731 3.37694,-6.4703 0.20191,0.1248 -0.0734,1.132 -0.66772,2.4427 -1.27196,2.8053 -1.7802,6.294 -1.23165,8.4544 0.47476,1.8698 1.53488,3.6161 1.93547,3.1883 0.68056,-0.7267 3.85399,-7.2665 4.85429,-10.0036 1.94691,-5.3274 2.7548,-8.0379 5.18768,-17.4049 0.69729,-2.6848 1.56697,-5.4629 1.93261,-6.1737 1.63515,-3.1785 4.45362,-4.3717 6.90718,-2.9241 0.699,0.4124 1.32271,0.7499 1.38601,0.7499 0.13055,0 0.12148,0.04 1.40454,-6.1736 0.92052,-4.4579 1.57885,-6.1736 2.36876,-6.1736 0.40134,0 0.3068,0.8479 -0.37364,3.3513 -0.21095,0.7762 -0.71275,3.0733 -1.1151,5.1048 -0.40235,2.0315 -0.95719,4.2337 -1.23299,4.8938 -0.79305,1.898 -0.6241,6.6859 0.40656,11.5209 1.88348,8.8357 2.01475,10.214 1.31043,13.7583 -0.34701,1.7463 -0.58006,3.706 -0.51789,4.355 0.10467,1.0926 0.14955,1.1318 0.60614,0.5292 0.43953,-0.5801 0.49432,-0.4136 0.50432,1.5332 0.006,1.2012 0.16997,2.2822 0.364,2.4021 0.22164,0.1369 0.35278,-0.6518 0.35278,-2.1217 0,-2.038 0.0796,-2.3246 0.61736,-2.2221 0.50225,0.096 0.63681,0.5611 0.72167,2.4953 0.1118,2.5483 0.66386,3.2377 0.84453,1.0547 0.0815,-0.9846 0.25481,-1.2993 0.67779,-1.2305 0.44517,0.072 0.61946,-0.343 0.80446,-1.9171 0.2932,-2.4946 0.65036,-2.9378 2.36743,-2.9378 1.23009,0 1.42918,0.1341 2.07347,1.3971 0.392,0.7683 0.71273,1.5621 0.71273,1.7638 0,0.7747 -1.39781,0.3181 -2.11667,-0.6915 -0.9055,-1.2716 -1.84082,-1.4225 -1.64009,-0.2645 0.0757,0.4365 0.0176,1.6668 -0.12911,2.734 -0.14669,1.0671 -0.13345,2.0838 0.0294,2.2591 0.17157,0.1848 0.84968,-0.112 1.61223,-0.7055 0.72385,-0.5635 2.99336,-2.2947 5.04335,-3.8472 3.67373,-2.7822 3.7269,-2.8432 3.70236,-4.2465 -0.0137,-0.783 -0.27396,-1.894 -0.57836,-2.4689 -0.3044,-0.5748 -1.15214,-2.1448 -1.88388,-3.4888 -2.71718,-4.9906 -3.43592,-11.3503 -1.79397,-15.8738 0.94484,-2.603 1.78697,-4.0289 2.55299,-4.3229 0.96207,-0.3692 0.97017,0.2218 0.0286,2.0903 -2.04534,4.059 -2.51962,8.0913 -1.47357,12.5279 0.48539,2.0588 0.98268,3.1609 3.69905,8.1985 0.57543,1.0672 1.04967,2.3895 1.05386,2.9385 0.007,0.9405 0.0738,0.9839 1.15416,0.752 1.569,-0.3369 2.38125,-0.803 2.38125,-1.3666 0,-0.2605 0.25022,-0.6813 0.55605,-0.9351 0.45816,-0.3802 0.60648,-0.3799 0.8425,0 0.15755,0.2549 0.46437,0.3535 0.68183,0.2191 0.63414,-0.3919 1.82844,0.1508 1.7213,0.7822 -0.0743,0.4379 0.32239,0.6439 1.66637,0.8655 0.97014,0.1599 2.00202,0.3899 2.29306,0.5111 0.29104,0.1212 0.89265,0.2816 1.33691,0.3564 0.77853,0.1312 0.79995,0.069 0.59218,-1.7299 -0.11857,-1.0263 -0.43254,-2.9864 -0.69771,-4.3558 -0.54014,-2.7892 -0.45503,-3.377 1.18394,-8.1757 1.16363,-3.407 1.3825,-5.7338 0.73913,-7.8577 -0.20533,-0.6778 -1.06469,-3.9311 -1.9097,-7.2296 -0.84501,-3.2985 -1.80429,-6.791 -2.13175,-7.7611 -0.71239,-2.1106 -2.28769,-5.1153 -2.68181,-5.1153 -0.15492,0 -0.725,0.5842 -1.26685,1.2983 -2.96438,3.9065 -6.77476,6.3561 -9.23936,5.9398 -0.77362,-0.1308 -1.59391,-0.4634 -1.82287,-0.7393 -0.63841,-0.7692 -1.02702,-0.6077 -1.5515,0.645 -0.26403,0.6305 -0.58121,1.2469 -0.70484,1.3696 -0.25047,0.2485 -0.53021,5.2449 -0.29366,5.2449 0.57085,0 2.06369,-1.1567 4.38639,-3.3989 3.20764,-3.0965 4.8922,-3.967 6.11989,-3.1626 1.0973,0.719 5.23529,8.9882 5.96547,11.9211 0.86002,3.4545 1.01815,6.4646 0.49681,9.4571 -0.33307,1.9118 -0.60776,2.6458 -0.99012,2.6458 -0.38891,0 -0.50226,-0.3272 -0.42764,-1.2347 0.36078,-4.3879 0.18607,-8.7818 -0.43485,-10.9361 -0.88514,-3.071 -4.57895,-10.5276 -5.3644,-10.829 -0.52242,-0.2004 -2.72631,1.0687 -3.38656,1.9503 -1.2515,1.671 -4.99212,4.6563 -6.26319,4.9986 -0.79974,0.2153 -1.57134,0.7012 -1.80397,1.1358 -0.22357,0.4178 -0.67897,1.0521 -1.012,1.4095 -0.49862,0.5352 -0.6406,1.629 -0.80425,6.1959 -0.10931,3.0502 -0.31158,5.8315 -0.4495,6.1805 -0.37563,0.9508 -1.41289,0.5816 -1.31828,-0.4693 0.0431,-0.479 0.17881,-4.2047 0.30153,-8.2792 0.28332,-9.407 0.68398,-11.0318 3.14783,-12.7648 1.56126,-1.0981 2.99862,-4.1812 2.99862,-6.4319 0,-2.1398 -0.38934,-3.0247 -1.90173,-4.3221 -0.92636,-0.7946 -1.00534,-0.9771 -0.50802,-1.1733 0.86625,-0.3418 2.34552,0.7818 3.17831,2.4142 0.58425,1.1452 0.6903,1.8416 0.53733,3.5286 -0.16821,1.8551 -0.10078,2.1768 0.57468,2.7409 1.66673,1.3919 4.61465,0.4386 7.58236,-2.452 2.87798,-2.8033 3.60769,-5.4569 1.77087,-6.4399 -0.57175,-0.306 -1.07917,-0.2948 -2.11425,0.047 -0.74907,0.2472 -1.45705,0.3544 -1.57328,0.2382 -0.11623,-0.1163 -0.25509,-1.0224 -0.30858,-2.0137 -0.0535,-0.9913 -0.19985,-1.905 -0.32526,-2.0304 -0.12541,-0.1254 -1.45419,0.1445 -2.95286,0.5997 -5.02623,1.5269 -5.86039,1.6294 -7.44385,0.9154 -0.77917,-0.3514 -1.6945,-0.5322 -2.03408,-0.4019 -0.33957,0.1303 -2.76904,0.5541 -5.39883,0.9418 -16.99803,2.5058 -25.68119,5.8878 -28.30102,11.0231 -1.33801,2.6227 -1.21647,6.5655 0.31108,10.0914 0.58721,1.3554 1.51268,1.9575 1.51268,0.9841 0,-0.6986 2.11776,-3.0968 3.0465,-3.4499 0.69086,-0.2627 0.83831,-0.5761 0.85885,-1.8252 0.0414,-2.5176 0.32617,-2.8681 2.65505,-3.2675 l 2.08266,-0.3572 0.0679,-2.2669 c 0.0832,-2.7765 0.7032,-5.4922 1.38273,-6.0562 0.85817,-0.7122 0.94988,-0.099 0.35844,2.3974 -0.3125,1.3189 -0.58935,3.8267 -0.61522,5.5729 -0.0683,4.6083 -2.2326,13.9198 -4.04133,17.3869 -0.27476,0.5267 -0.50054,1.1623 -0.50174,1.4126 -0.003,0.7132 -1.23912,2.9634 -3.77647,6.8769 -3.02088,4.6593 -4.35398,7.3528 -4.88352,9.8672 -0.42447,2.0155 -0.30799,5.2023 0.19015,5.2023 0.14301,0 0.69862,0.6627 1.23469,1.4728 0.77207,1.1667 0.97111,1.8696 0.95752,3.3815 -0.009,1.0497 0.0402,1.8513 0.11034,1.7812 0.0701,-0.07 0.53346,-0.7258 1.02964,-1.4569 z m 31.45517,-20.2005 c -0.37699,-0.9824 -0.2299,-1.9115 0.30262,-1.9115 0.56654,0 1.24713,1.0462 1.24713,1.9171 0,0.7226 -1.27208,0.718 -1.54975,-0.01 z m -5.41761,19.4479 c 1.494,-0.2537 1.83304,-0.9801 0.38429,-0.8234 -0.80175,0.087 -1.11022,-0.1814 -2.11521,-1.8387 -0.81005,-1.3359 -1.17703,-2.3778 -1.17804,-3.3446 l -0.001,-1.4044 -1.10258,1.1026 c -1.09289,1.0929 -1.09934,1.1207 -0.73475,3.1682 0.2023,1.1361 0.53175,2.4916 0.73211,3.0122 0.33152,0.8615 0.46901,0.9199 1.5285,0.6497 0.64032,-0.1634 1.75953,-0.3981 2.48713,-0.5216 z m -31.63182,-4.696 c 0.21052,-0.1426 0.41146,-1.4412 0.44654,-2.8859 0.0797,-3.2819 1.35441,-6.403 4.69054,-11.4844 1.27385,-1.9403 2.75358,-4.4009 3.2883,-5.4681 0.53471,-1.0671 1.09941,-2.1938 1.25487,-2.5038 0.16377,-0.3265 0.0562,-1.2515 -0.2558,-2.1991 -0.52645,-1.5991 -0.44802,-2.7054 0.19179,-2.7054 0.17586,0 0.42095,0.506 0.54464,1.1245 0.33023,1.6511 0.78675,0.9238 1.82399,-2.9057 1.22565,-4.5251 1.24739,-4.282 -0.42707,-4.7768 -1.33919,-0.3957 -1.56727,-0.3634 -2.65604,0.3764 -1.57588,1.0709 -2.86956,3.5324 -4.50249,8.5669 -2.89456,8.9243 -5.93755,14.5296 -9.82213,18.0928 -2.72728,2.5016 -4.4546,3.4948 -6.99109,4.02 -2.11055,0.4369 -2.50847,0.9455 -1.02159,1.3058 0.58208,0.141 1.76044,0.4323 2.61857,0.6473 3.23909,0.8114 10.05334,1.3126 10.81697,0.7955 z m 27.42501,-3.2488 c 1.36869,-1.6266 1.81117,-3.3884 1.81868,-7.241 0.0122,-6.2589 -0.46186,-8.3126 -1.24633,-5.3994 -0.4641,1.7236 -2.09969,4.9585 -3.20914,6.3471 -0.63115,0.79 -0.69637,1.1129 -0.39197,1.9403 0.20085,0.5459 0.6463,1.9848 0.98991,3.1975 0.3436,1.2126 0.74424,2.2048 0.8903,2.2048 0.14606,0 0.6629,-0.4722 1.14855,-1.0493 z m 12.39988,-31.6038 c 0.296,-1.0182 0.53818,-2.2181 0.53818,-2.6664 0,-0.7353 -0.0534,-0.7616 -0.54545,-0.2696 -0.60068,0.6007 -1.56688,3.8613 -1.55581,5.2502 0.007,0.8442 0.0288,0.8532 0.51597,0.2095 0.27991,-0.3698 0.75111,-1.5055 1.04711,-2.5237 z m -26.10887,-1.4307 c 0.13501,-0.9003 0.33336,-1.866 0.44077,-2.1459 0.15812,-0.412 -0.0655,-0.4647 -1.17491,-0.2768 -2.4669,0.4177 -2.45793,0.4105 -2.31747,1.8833 0.10767,1.129 0.32093,1.4499 1.24416,1.872 0.61282,0.2802 1.21497,0.4633 1.3381,0.4069 0.12313,-0.056 0.33434,-0.8392 0.46935,-1.7395 z m 43.78731,-15.5202 c 0.15388,-0.8202 0.082,-1.3909 -0.20937,-1.6633 -0.3526,-0.3295 -0.39967,-0.1794 -0.22941,0.7319 0.16295,0.8721 0.0897,1.1465 -0.30613,1.1465 -0.58435,0 -0.6082,0.066 -0.30699,0.8511 0.31654,0.8249 0.7865,0.3486 1.0519,-1.0662 z m -0.5597,-2.6071 c 0,-0.194 -0.16812,-0.3528 -0.3736,-0.3528 -0.20548,0 -0.27549,0.1588 -0.15557,0.3528 0.11992,0.194 0.28804,0.3528 0.3736,0.3528 0.0856,0 0.15557,-0.1588 0.15557,-0.3528 z m -16.22778,-0.8611 c 0,-0.3724 -0.67702,-0.5288 -0.87839,-0.203 -0.12187,0.1972 0.0259,0.3586 0.3284,0.3586 0.3025,0 0.54999,-0.07 0.54999,-0.1556 z m 1.47776,-3.8823 c 0.90027,-0.3057 2.56325,-0.6171 3.69552,-0.6921 l 2.05866,-0.1364 1.32292,-2.2396 c 1.31269,-2.2222 1.82748,-3.6492 0.77375,-2.1448 -0.79141,1.1299 -1.05437,0.9735 -1.05437,-0.627 0,-0.7761 0.12267,-1.4111 0.2726,-1.4111 0.66086,0 0.18503,-0.7564 -0.68359,-1.0866 -1.21809,-0.4631 -7.56203,0.7731 -9.62886,1.8763 -1.5264,0.8147 -1.6638,1.2086 -0.93061,2.6674 0.26333,0.5239 0.56928,1.4288 0.67989,2.0109 0.39176,2.0617 0.93574,3.1035 1.41346,2.707 0.24408,-0.2026 1.18036,-0.6184 2.08063,-0.924 z"
       id="path98" /></g></svg>
