<?xml version="1.0" encoding="UTF-8" standalone="no"?>
<!-- Created with Inkscape (http://www.inkscape.org/) -->

<svg
   width="182.39182mm"
   height="167.21666mm"
   viewBox="0 0 182.39182 167.21666"
   version="1.1"
   id="svg1"
   xml:space="preserve"
   xmlns="http://www.w3.org/2000/svg"
   xmlns:svg="http://www.w3.org/2000/svg"><defs
     id="defs1" /><g
     id="layer1"
     transform="translate(-10.430163,-34.602647)"><path
       style="fill:#4d4d4d"
       d="m 88.657427,201.12952 c 0.424973,-0.64859 0.472735,-0.66137 0.79985,-0.21401 0.522847,0.71503 0.428455,0.90379 -0.451961,0.90379 h -0.79985 z m 16.758153,0.54009 c 0,-0.0823 0.12504,-0.38331 0.27786,-0.66886 0.30659,-0.57287 0.63424,-0.47823 1.05295,0.30412 0.24457,0.457 0.18565,0.51443 -0.52775,0.51443 -0.44168,0 -0.80306,-0.0674 -0.80306,-0.14969 z m -19.975014,-1.95227 c -0.290478,-0.10979 -1.019103,-0.14427 -1.619167,-0.0766 -0.64695,0.0729 -1.165261,0.003 -1.273411,-0.17214 -0.100312,-0.1623 -0.465989,-0.2951 -0.812615,-0.2951 -0.346625,0 -0.703813,-0.11907 -0.79375,-0.26459 -0.08994,-0.14552 -0.483916,-0.2664 -0.87551,-0.26863 -1.061077,-0.006 -1.343029,-0.29859 -1.406342,-1.45923 -0.03151,-0.57764 -0.162898,-1.18976 -0.291972,-1.36026 -0.142653,-0.18843 -0.100012,-0.52563 0.108737,-0.85989 0.260358,-0.4169 0.61581,-0.5499 1.469636,-0.5499 0.928382,0 1.317804,-0.17309 2.216851,-0.98532 1.007622,-0.91033 1.234231,-0.99292 2.977324,-1.08516 1.472636,-0.0779 2.031858,-0.22736 2.548152,-0.68095 0.363802,-0.31962 1.018645,-0.73877 1.455208,-0.93145 0.436562,-0.19269 1.109777,-0.51443 1.496031,-0.71498 0.386255,-0.20055 0.873978,-0.36464 1.08383,-0.36464 0.804918,0 2.014117,-0.83832 2.270647,-1.5742 0.146635,-0.42064 0.484476,-0.99271 0.750759,-1.27128 0.684914,-0.71651 1.104305,-1.45842 2.591587,-4.58456 l 0.954407,-2.00609 -0.27393,-2.8887 c -0.150662,-1.58879 -0.27403,-5.95457 -0.274151,-9.70173 -1.81e-4,-5.57804 -0.06565,-6.81302 -0.36116,-6.81302 -0.341882,0 -15.150409,-14.54931 -16.596817,-16.3063 -0.374978,-0.4555 -0.933512,-0.90807 -1.241186,-1.00572 -0.307674,-0.0977 -0.624271,-0.37982 -0.70355,-0.62704 -0.07928,-0.24722 -0.472321,-0.76272 -0.873429,-1.14557 -2.558291,-2.44182 -3.89288,-3.67925 -5.099122,-4.72787 -0.75327,-0.65485 -1.506963,-1.3174 -1.674874,-1.47235 -0.167911,-0.15495 -0.50345,-0.39307 -0.745642,-0.52917 -0.242192,-0.13609 -0.979393,-0.75351 -1.638223,-1.37203 -1.245595,-1.1694 -5.304999,-3.24104 -6.350841,-3.24104 -0.326083,0 -0.705988,-0.10419 -0.844233,-0.23155 -0.364681,-0.33594 -4.68477,-0.82672 -7.280732,-0.82712 -2.338731,-3.5e-4 -6.354691,0.43169 -7.258123,0.78084 -0.291041,0.11248 -1.005416,0.35473 -1.5875,0.53832 -1.080098,0.34069 -2.555629,0.95581 -4.566409,1.90366 -1.75182,0.82578 -5.884633,5.08078 -5.884633,6.05862 0,0.18778 -0.222842,0.82549 -0.495205,1.41714 -1.923678,4.17876 -2.493372,8.13771 -2.324994,16.15697 0.124155,5.9131 0.305998,7.95639 0.731481,8.21935 0.130149,0.0804 0.236635,0.39665 0.236635,0.70269 0,0.61684 0.721038,3.25869 1.082117,3.96484 0.126968,0.2483 0.303819,0.96268 0.393003,1.5875 0.170428,1.19401 1.019518,3.17163 2.292456,5.33936 0.417573,0.71109 0.698393,1.45142 0.624045,1.64517 -0.07435,0.19375 -0.02131,0.42264 0.117851,0.50864 0.308349,0.19057 0.337758,0.9189 0.0371,0.9189 -0.337035,0 -2.700898,-2.39566 -4.017409,-4.07146 -0.654844,-0.83355 -1.398985,-1.76497 -1.653646,-2.06982 -0.254662,-0.30485 -0.463021,-0.65375 -0.463021,-0.77534 0,-0.12159 -0.20836,-0.47756 -0.463021,-0.79103 -0.254661,-0.31348 -0.765909,-0.93992 -1.136106,-1.39209 -1.055904,-1.28972 -1.575873,-2.21267 -1.575873,-2.7972 0,-0.29616 -0.120989,-0.53847 -0.268864,-0.53847 -0.147875,0 -0.475297,-0.44649 -0.727604,-0.99219 -0.252308,-0.5457 -0.543408,-1.05588 -0.646891,-1.13374 -0.299356,-0.22521 -1.336986,-2.67967 -1.562028,-3.6949 -0.1129,-0.50933 -0.405183,-1.64042 -0.649518,-2.51355 -0.704034,-2.51585 -1.030193,-7.38403 -0.695804,-10.38544 0.743347,-6.67214 2.111836,-11.52764 3.940503,-13.9812 0.335613,-0.45029 0.610206,-1.02385 0.610206,-1.27456 0,-0.25071 0.386953,-0.94582 0.859896,-1.54469 1.493327,-1.89092 5.295534,-5.49015 5.799776,-5.49015 0.266243,0 0.484078,-0.11679 0.484078,-0.25954 0,-0.14275 0.297656,-0.33425 0.661458,-0.42556 0.363802,-0.0913 0.661459,-0.26942 0.661459,-0.39581 0,-0.36038 1.241981,-1.08384 2.648521,-1.54279 0.90711,-0.29598 1.464225,-0.68508 1.897497,-1.32522 0.64774,-0.95702 1.888944,-1.82021 2.663878,-1.85257 0.254661,-0.0106 0.463021,-0.12927 0.463021,-0.26362 0,-0.13436 0.30824,-0.61061 0.684978,-1.05834 l 0.684978,-0.81405 h 4.309708 c 3.131294,0 4.381528,-0.0904 4.572367,-0.33073 0.306268,-0.38564 0.608342,-8.50351 0.401362,-10.78612 -0.123995,-1.36743 -0.281276,-1.71541 -1.290562,-2.8553 -1.107532,-1.25084 -1.201116,-1.29808 -2.571552,-1.29808 -1.267276,0 -1.592127,-0.12661 -2.982257,-1.16228 -1.890739,-1.408636 -2.221522,-1.711946 -2.221522,-2.037016 0,-0.1381 -0.178594,-0.39931 -0.396875,-0.58047 -0.218282,-0.18115 -0.396875,-0.59787 -0.396875,-0.92604 0,-0.32816 0.178593,-0.74488 0.396875,-0.92604 0.622925,-0.51698 0.475081,-1.04167 -0.595313,-2.11274 -1.178518,-1.17926 -1.376773,-1.42793 -2.283124,-2.86368 -0.850461,-1.34722 -0.86439,-1.7287 -0.08568,-2.34656 0.895795,-0.71077 1.039495,-1.06682 0.692351,-1.71547 -0.517691,-0.96731 -0.996502,-3.43243 -0.846381,-4.35752 0.07755,-0.47786 0.365333,-1.07186 0.639525,-1.32 0.44338,-0.40126 0.455064,-0.4992 0.105618,-0.88533 -0.216102,-0.23879 -0.425425,-0.72548 -0.465163,-1.08154 -0.06366,-0.57038 0.02214,-0.63987 0.7215,-0.5843 1.324134,0.10521 3.618148,-0.42329 3.995497,-0.92048 0.194315,-0.25603 0.357085,-0.79548 0.361713,-1.19878 0.0064,-0.55904 -0.164476,-0.80033 -0.719189,-1.01549 -2.426539,-0.94117 -2.791836,-1.59564 -1.250151,-2.2398 0.804657,-0.33621 0.946403,-0.50733 0.817725,-0.98719 -0.08561,-0.31927 -0.157287,-0.66979 -0.159274,-0.77893 -0.002,-0.10914 -0.21461,-0.19844 -0.472496,-0.19844 -0.596762,0 -2.49613,-1.54969 -2.296085,-1.87337 0.0827,-0.13381 0.530291,-0.24334 0.994646,-0.2434 l 0.844281,-1e-4 -0.02547,-1.78583 c -0.01401,-0.98221 -0.169095,-2.6144 -0.344642,-3.62708 -0.503569,-2.90495 0.151667,-5.21354 1.676993,-5.90852 0.362133,-0.165 0.947501,-0.87005 1.300817,-1.56679 0.353316,-0.69673 0.874666,-1.47665 1.158554,-1.73316 0.813037,-0.73462 3.7614,-1.78258 5.015162,-1.78258 0.627251,0 1.136215,-0.0893 1.131031,-0.19844 -0.0052,-0.10914 -0.194587,-0.91281 -0.420897,-1.78593 -0.22631,-0.87313 -0.471396,-1.89918 -0.544635,-2.28011 -0.158628,-0.82505 0.563001,-2.3501 1.112031,-2.3501 0.382575,0 1.029844,-0.49034 2.532164,-1.91823 0.421041,-0.40018 1.064269,-0.72761 1.429396,-0.72761 0.365126,0 0.663866,-0.11114 0.663866,-0.24698 0,-0.28599 4.295596,-2.39885 4.877041,-2.39885 0.21435,0 0.692918,-0.13814 1.063484,-0.30698 0.813039,-0.37045 4.134689,0.12109 5.144035,0.76122 0.571164,0.36223 0.657094,0.35965 0.873043,-0.0262 0.361522,-0.64601 0.906604,-0.51491 1.245695,0.29959 0.166602,0.40019 0.597766,0.87644 0.958141,1.05834 0.360376,0.1819 0.951956,0.47956 1.314623,0.66146 0.362666,0.1819 0.660323,0.47955 0.661458,0.66145 0.0011,0.18191 0.09546,0.33073 0.209601,0.33073 0.114146,0 0.435604,0.38696 0.714352,0.8599 0.278748,0.47294 0.712988,1.08196 0.964976,1.35337 0.639231,0.68849 0.752332,1.76395 0.727201,6.91486 -0.01207,2.47385 -0.0099,4.62742 0.0049,4.78571 0.01477,0.15829 0.674204,0.60477 1.465409,0.99219 1.131016,0.5538 1.823914,0.70411 3.241146,0.70308 1.612679,-10e-4 3.11402,0.33168 5.109884,1.13288 1.338648,0.53738 2.38125,1.11088 2.38125,1.30985 0,0.11243 0.178594,0.20441 0.396875,0.20441 0.218282,0 0.396875,0.10616 0.396875,0.2359 0,0.12975 0.28411,0.30721 0.631356,0.39436 0.964701,0.24213 7.30615,6.71306 7.30615,7.45533 0,0.45641 0.48821,1.34463 1.08373,1.97165 0.65385,0.68843 2.09127,2.83996 2.09127,3.13021 0,0.1429 0.46562,1.07395 1.03472,2.069 0.56909,0.99505 1.17841,2.34496 1.35403,2.9998 0.17561,0.65485 0.65178,1.905 1.05814,2.77813 1.70837,3.67067 1.97644,4.51491 2.35235,7.40833 0.11343,0.87313 0.28247,1.82605 0.37564,2.11761 0.0932,0.29156 0.27744,1.59615 0.40951,2.89908 0.19359,1.90993 0.34795,2.45629 0.79661,2.81959 0.30607,0.24784 0.5565,0.570446 0.5565,0.716886 0,0.14645 0.0893,0.30596 0.19843,0.35447 0.10914,0.0485 0.408,0.50491 0.66412,1.01423 0.61245,1.21788 1.81987,3.27228 2.02154,3.43959 1.25521,1.04134 1.92705,7.56701 1.10124,10.69639 -0.52091,1.97395 -1.44603,3.42724 -3.60441,5.66226 l -1.96029,2.02989 -0.006,5.42396 c -0.003,2.98317 -0.0819,6.22763 -0.17462,7.20989 l -0.16867,1.78594 h 0.74994 c 0.41247,0 1.4418,-0.1429 2.28741,-0.31756 2.34429,-0.48421 6.7991,0.29824 11.00839,1.93353 0.33427,0.12986 2.50354,0.23611 4.8206,0.23611 3.58877,0 4.34141,-0.0717 5.08078,-0.48391 1.63317,-0.91057 2.69515,-0.91093 3.68233,-10e-4 0.21063,0.19409 0.6081,0.47991 0.88327,0.63516 0.27517,0.15524 0.58275,0.4529 0.68351,0.66146 0.10076,0.20855 0.45249,0.91497 0.78163,1.56981 0.41205,0.81979 0.63993,1.84678 0.73163,3.29729 0.0733,1.15867 0.27069,2.23023 0.43875,2.38125 0.7452,0.66967 1.98432,1.13048 2.68151,0.9972 0.71086,-0.13589 3.93908,-1.73662 4.46584,-2.21441 0.13824,-0.1254 0.46566,-0.22799 0.7276,-0.22799 0.26194,0 0.47625,-0.0927 0.47625,-0.20595 0,-0.11326 0.74414,-0.42138 1.65365,-0.68469 0.9095,-0.26331 2.24257,-0.76595 2.96236,-1.11697 0.7198,-0.35103 1.55919,-0.63823 1.86532,-0.63823 0.30612,0 0.68141,-0.12482 0.83398,-0.27739 0.40529,-0.40529 7.26264,-0.60988 9.88261,-0.29486 3.0017,0.36092 4.06778,0.62597 5.95312,1.48007 0.87313,0.39555 1.98477,0.89936 2.47031,1.11959 0.48555,0.22023 1.5286,0.98525 2.31791,1.70005 0.7893,0.71479 1.54875,1.29963 1.68767,1.29963 0.13892,0 0.64367,0.33125 1.12168,0.73611 0.478,0.40486 1.34535,0.97041 1.92743,1.25677 1.33398,0.65626 2.83325,1.84164 4.80555,3.79943 1.92652,1.91234 2.73508,2.86374 2.73508,3.21824 0,0.15141 0.39027,0.89464 0.86727,1.65163 2.13895,3.39448 2.99008,6.98675 2.92768,12.35657 -0.0702,6.03789 -0.34765,12.78454 -0.56588,13.75833 l -0.20754,0.92604 -4.35356,0.073 c -5.20996,0.0874 -5.04834,0.18238 -4.83636,-2.84315 l 0.14425,-2.05866 -1.68429,0.1551 c -1.96917,0.18135 -49.702,0.23006 -58.43741,0.0596 -3.27422,-0.0639 -7.50093,-0.20433 -9.39271,-0.31212 -1.89177,-0.10779 -4.13481,-0.23291 -4.98454,-0.27806 -1.98169,-0.10529 -2.15952,-0.39696 -0.37684,-0.61809 2.11648,-0.26253 72.3599,0.0455 73.95079,0.32434 0.76188,0.13351 1.4709,0.32842 1.57561,0.43313 0.1047,0.1047 0.23936,0.95971 0.29923,1.90001 l 0.10886,1.70963 h 3.64154 3.64155 l 0.18737,-1.65364 c 0.3523,-3.10926 0.20452,-5.09914 -0.5303,-7.14081 -0.3803,-1.05665 -0.76139,-2.1593 -0.84686,-2.45034 -0.0855,-0.29104 -0.22538,-0.5887 -0.3109,-0.66146 -0.19742,-0.16795 -0.92107,-1.70549 -1.36981,-2.91041 -0.4578,-1.22927 -1.76583,-3.3604 -2.31508,-3.77189 -0.24165,-0.18103 -0.61694,-0.67271 -0.83398,-1.0926 -0.21704,-0.4199 -0.67728,-0.95568 -1.02276,-1.19063 -0.34547,-0.23495 -1.1204,-0.91128 -1.72205,-1.50296 -0.60165,-0.59168 -1.96526,-1.5185 -3.03024,-2.05959 -2.23355,-1.1348 -3.03705,-1.57342 -3.22304,-1.75942 -0.34334,-0.34333 -2.96037,-1.05833 -3.87372,-1.05833 -0.56351,0 -1.4405,-0.12533 -1.94886,-0.27852 -1.1389,-0.34319 -7.09338,0.11883 -9.25867,0.7184 -1.49864,0.41497 -1.79168,0.53122 -4.83527,1.91822 -0.98591,0.4493 -1.95967,0.8169 -2.16392,0.8169 -0.20424,0 -0.52868,0.15502 -0.72098,0.34448 -0.19229,0.18947 -1.09376,0.68662 -2.00327,1.1048 -0.90951,0.41817 -1.65365,0.85846 -1.65365,0.97843 0,0.11997 -0.17443,0.21812 -0.38762,0.21812 -0.62336,0 -2.77454,0.78221 -4.77175,1.73509 -1.01865,0.48601 -2.56646,1.07944 -3.43958,1.31873 -0.87313,0.23929 -2.17643,0.72164 -2.89622,1.07188 -0.7198,0.35024 -1.44158,0.6368 -1.60395,0.6368 -0.16238,0 -0.82098,0.25402 -1.46356,0.56448 -0.64258,0.31046 -1.91831,0.62467 -2.83495,0.69825 -0.91664,0.0736 -1.72997,0.23629 -1.8074,0.36157 -0.20181,0.32653 -10.35791,0.29115 -10.56059,-0.0368 -0.0899,-0.14552 -1.05476,-0.26458 -2.14405,-0.26458 -2.03973,0 -4.85218,-0.54534 -6.42102,-1.24504 -0.49069,-0.21885 -1.23483,-0.49618 -1.65365,-0.6163 -0.72684,-0.20845 -0.76149,-0.1795 -0.76149,0.63627 0,0.47006 -0.0993,0.96776 -0.22059,1.10601 -0.12133,0.13824 -0.55078,1.32291 -0.95433,2.6326 -0.40356,1.30969 -0.86256,2.61937 -1.02,2.91042 -0.33813,0.62506 -0.79675,10.70866 -0.58578,12.87945 0.0803,0.8263 0.32209,1.92381 0.53731,2.4389 0.79303,1.89799 0.40261,5.18685 -0.61573,5.18685 -0.1381,0 -0.39931,0.1786 -0.58046,0.39688 -0.23842,0.28727 -0.86945,0.39687 -2.28495,0.39687 -1.92596,0 -2.62989,0.21907 -3.564534,1.10932 -0.899997,0.85724 -5.068798,1.5411 -9.377293,1.53827 -1.462484,-9.7e-4 -2.772171,0.10194 -2.910416,0.22867 -0.396945,0.36389 -1.524245,0.53196 -2.102412,0.31345 z m -1.191651,-1.57081 c 0,-0.5515 1.719516,-1.88348 2.431478,-1.88348 1.000243,0 0.936452,0.39933 -0.179244,1.12205 -0.507522,0.32876 -0.924241,0.70103 -0.926042,0.82727 -0.0056,0.39424 7.567011,-0.4207 8.525948,-0.91753 0.252686,-0.13092 0.788468,-0.24193 1.190625,-0.24668 0.816204,-0.01 2.931586,-0.70771 4.223784,-1.39384 0.958846,-0.50912 2.599456,-0.58488 3.689696,-0.17037 0.56658,0.21541 0.99383,0.18018 1.86931,-0.15417 1.11448,-0.42563 1.13475,-0.45559 1.12836,-1.6683 -0.004,-0.67919 -0.24171,-1.93798 -0.52917,-2.79731 -0.8868,-2.65097 -0.69535,-13.60696 0.27784,-15.90008 0.12351,-0.29104 0.30712,-0.82682 0.40801,-1.19062 0.10089,-0.3638 0.3914,-1.13771 0.64557,-1.71979 0.95015,-2.17597 1.32092,-3.49228 1.32092,-4.68959 0,-0.67777 0.10119,-1.29485 0.22486,-1.37128 0.39368,-0.24331 0.56027,-4.42031 0.29644,-7.43288 -0.54048,-6.17159 -1.01463,-8.9159 -1.65027,-9.55154 -0.27973,-0.27973 -0.23888,-4.28625 0.0535,-5.24634 0.13609,-0.4469 0.45789,-1.57414 0.7151,-2.50498 0.31862,-1.15309 0.6192,-1.73207 0.94318,-1.8168 0.57274,-0.14977 0.56833,-0.0599 0.0536,-1.09175 -0.34424,-0.69004 -0.4472,-2.19608 -0.55898,-8.17659 l -0.13701,-7.33075 1.81574,-1.89022 c 0.99866,-1.03962 2.32176,-2.60354 2.94022,-3.47537 l 1.12448,-1.58514 v -4.12958 -4.12958 l -1.19062,-1.91321 c -0.65485,-1.05227 -1.19088,-2.03536 -1.19119,-2.18464 -7.9e-4,-0.37452 -1.60774,-3.40937 -1.90946,-3.606156 -0.43028,-0.28063 -1.12785,-3.49327 -1.43029,-6.58714 -0.0925,-0.94589 -0.25794,-1.83886 -0.36773,-1.98438 -0.10978,-0.14552 -0.28711,-0.67324 -0.39407,-1.17272 -0.10695,-0.49948 -0.41836,-1.30678 -0.69201,-1.79399 -0.27365,-0.48721 -0.49804,-1.03105 -0.49865,-1.20852 -6.1e-4,-0.17748 -0.29827,-0.90841 -0.66146,-1.62429 -0.36319,-0.71589 -0.66035,-1.53096 -0.66035,-1.81126 0,-0.28031 -0.17047,-0.82568 -0.37882,-1.21193 -0.92926,-1.72273 -2.26701,-4.56401 -2.26701,-4.81494 0,-0.15156 -0.47625,-0.92024 -1.05834,-1.70818 -0.58208,-0.78794 -1.05833,-1.51762 -1.05833,-1.62151 0,-0.1039 -0.15899,-0.37687 -0.3533,-0.60661 -0.194315,-0.22974 -0.510546,-0.83443 -0.702735,-1.34375 -0.192189,-0.50933 -0.729803,-1.34276 -1.194698,-1.85209 -0.464894,-0.50932 -1.04249,-1.22165 -1.283546,-1.58294 -0.82103,-1.23057 -3.643229,-3.9733 -4.090107,-3.97494 -0.244974,-8.9e-4 -0.802594,-0.19581 -1.239157,-0.43315 -3.452029,-1.87668 -4.287186,-2.16387 -7.122515,-2.44923 -1.562563,-0.15726 -3.23229,-0.4716 -3.710503,-0.69853 -1.103949,-0.52385 -1.999274,-1.3531 -1.999274,-1.85172 0,-0.56365 -1.240068,-0.48437 -1.889654,0.12081 -0.625139,0.58241 -2.776818,1.3447 -3.795596,1.3447 -1.238413,0 -2.197108,-0.72194 -2.901241,-2.18477 -0.533895,-1.10916 -0.668306,-1.25144 -0.670803,-0.71007 -0.0017,0.37237 -0.17793,0.90815 -0.391583,1.19063 -0.213654,0.28247 -0.392247,0.73045 -0.396876,0.99551 -0.0099,0.56618 -0.69954,1.33252 -1.020604,1.1341 -0.122374,-0.0756 -0.17328,-0.47286 -0.113125,-0.88272 0.07681,-0.52337 -0.06037,-0.89883 -0.460828,-1.26124 l -0.570202,-0.51603 0.173323,0.69058 c 0.214154,0.85325 -0.625196,1.54401 -1.876155,1.54401 -0.801894,0 -0.842826,-0.0557 -1.16801,-1.58798 -0.306393,-1.44379 -1.201063,-2.90993 -1.775702,-2.90993 -0.117465,0 -0.362284,0.23812 -0.544042,0.52916 -0.216725,0.34703 -0.617016,0.52917 -1.162985,0.52917 -0.789768,0 -0.810031,0.0248 -0.394633,0.48385 0.297757,0.32902 0.437882,0.95815 0.437882,1.96598 0,1.33557 0.05886,1.49048 0.595312,1.56666 0.484406,0.0688 0.611176,0.27887 0.680463,1.12761 0.08827,1.08125 0.39847,1.452 1.794663,2.14494 0.565799,0.28081 0.928464,0.73188 1.165211,1.44922 0.189051,0.57284 0.533761,1.09265 0.76602,1.15515 0.232259,0.0625 1.464988,0.10529 2.739398,0.0951 1.27441,-0.0102 2.395582,0.0599 2.491493,0.15586 0.09591,0.0959 0.344907,0.17438 0.553322,0.17438 0.52233,0 2.194432,0.81389 2.862927,1.39351 0.303563,0.26321 0.952269,0.69327 1.441569,0.95568 0.4893,0.26242 1.014836,0.7044 1.167858,0.98219 0.153023,0.27779 0.314462,0.56116 0.358755,0.62971 0.199486,0.30872 0.573208,-0.74646 0.576875,-1.62876 0.0048,-1.14713 0.406851,-2.33233 0.791253,-2.33233 0.165861,0 0.271132,0.96417 0.271132,2.4833 0,1.68822 0.126544,2.72593 0.395245,3.24114 0.217384,0.41682 0.395978,1.03547 0.396875,1.37478 8.96e-4,0.33931 0.418348,1.12548 0.927671,1.74704 0.509323,0.62156 0.926042,1.2404 0.926042,1.37518 0,0.13479 0.245569,0.42019 0.545709,0.63421 0.300139,0.21403 0.72568,0.80586 0.945646,1.31518 0.610863,1.41444 1.046786,2.4339 1.4142,3.30729 0.18365,0.43657 0.477252,1.09141 0.652449,1.45521 0.175197,0.3638 0.482855,1.19724 0.683685,1.85209 0.20083,0.65484 0.876421,2.02098 1.501312,3.03586 1.094622,1.77777 1.399355,3.01954 0.924405,3.76689 -0.112013,0.17626 -0.616205,0.49906 -1.120428,0.71734 -0.504223,0.21828 -1.38418,0.87774 -1.955459,1.46547 -0.571279,0.58773 -1.128146,1.0686 -1.237481,1.0686 -0.109336,0 -0.898938,0.68461 -1.754671,1.52136 -2.463919,2.409236 -4.565627,4.005916 -6.548456,4.974886 -0.579863,0.28336 -1.223417,0.67401 -1.43012,0.8681 -0.675591,0.63436 -1.61593,0.83773 -3.873419,0.83773 -1.915041,0 -2.39743,0.0976 -3.488505,0.70591 -1.387458,0.77352 -2.891053,2.20451 -2.316371,2.20451 0.193996,0 0.60706,-0.35719 0.91792,-0.79375 0.31086,-0.43656 0.676155,-0.79375 0.811767,-0.79375 0.473733,0 0.241262,1.14763 -0.403781,1.99333 l -0.650348,0.85265 1.047223,0.96892 c 0.575972,0.53291 1.047222,1.14272 1.047222,1.35514 0,0.21242 0.165856,0.38621 0.368568,0.38621 0.346673,0 0.689766,0.53718 0.689766,1.07997 0,0.13362 -0.249111,0.24295 -0.55358,0.24295 -0.304469,0 -0.856307,0.23812 -1.226307,0.52916 -0.369999,0.29105 -0.835263,0.52917 -1.03392,0.52917 -0.251692,0 -0.361193,0.36096 -0.361193,1.19063 0,1.62119 0.58787,1.56789 1.45895,-0.1323 0.260949,-0.50932 0.664515,-1.06685 0.896814,-1.23895 0.599942,-0.44449 0.983611,0.021 0.635167,0.77059 -0.436472,0.93897 -0.874265,2.06422 -0.874265,2.24711 0,0.0915 0.446485,-0.26362 0.992188,-0.78912 1.789064,-1.72285 2.825056,-2.57713 3.125307,-2.57713 0.296654,0 1.967922,-1.69761 1.967922,-1.99894 0,-0.27381 1.90266,-2.49897 2.136789,-2.49897 0.121529,0 0.659583,-0.29766 1.195675,-0.66146 0.536092,-0.3638 1.315286,-0.66146 1.731542,-0.66146 0.416255,0 0.756828,-0.10182 0.756828,-0.22626 0,-0.34218 4.277197,-2.42427 4.974975,-2.42176 0.335142,10e-4 1.04739,-0.29547 1.582773,-0.65927 0.535383,-0.3638 1.064572,-0.66146 1.175975,-0.66146 0.111404,0 0.782594,-0.41672 1.491535,-0.92604 0.70894,-0.50932 1.431996,-0.92604 1.60679,-0.92604 0.174795,0 0.87495,-0.46654 1.555901,-1.03676 0.680951,-0.57022 1.952468,-1.359446 2.825593,-1.753826 2.333731,-1.05414 2.991667,-1.58099 2.866638,-2.2955 -0.05798,-0.33135 -0.214202,-2.09073 -0.347158,-3.90974 -0.23991,-3.28228 -0.379565,-4.24033 -1.13777,-7.80521 -0.375474,-1.76539 -0.507,-2.23096 -0.971688,-3.43959 -0.111898,-0.29104 -0.413343,-1.42213 -0.669878,-2.51354 -0.256534,-1.0914 -0.559944,-2.10344 -0.674245,-2.24896 -0.507109,-0.64561 -0.947337,-3.1899 -0.698144,-4.03489 0.302461,-1.02563 0.960287,-1.18884 0.769524,-0.19092 -0.132193,0.69152 0.372353,2.93886 0.778513,3.46764 0.126805,0.16509 0.393867,0.87947 0.593471,1.5875 0.199604,0.70804 0.673408,2.18031 1.052898,3.27172 0.37949,1.0914 0.80296,2.34156 0.941044,2.77812 0.429894,1.35913 0.817219,5.12087 0.967116,9.39271 0.169038,4.81735 -0.0055,5.31518 -2.260481,6.4478 -0.736605,0.369966 -1.600499,0.916036 -1.919764,1.213476 -0.319265,0.29744 -0.688112,0.5408 -0.819662,0.5408 -0.132719,0 -0.170336,0.67717 -0.08451,1.52136 0.08507,0.83674 0.222113,2.83104 0.304546,4.43177 0.180972,3.51421 0.418491,4.25372 0.679843,2.11666 0.106779,-0.87312 0.295999,-2.44246 0.420488,-3.48741 0.145804,-1.22387 0.400635,-2.0925 0.716164,-2.44115 0.751353,-0.83024 1.035921,-0.36145 0.357743,0.58933 l -0.600103,0.84132 0.0041,18.15776 c 0.003,13.07644 0.08881,18.3334 0.306737,18.78541 0.166436,0.34521 0.369201,0.83602 0.45059,1.09068 0.08139,0.25466 0.376815,0.46302 0.656503,0.46302 0.534389,0 0.561531,0.0852 1.053086,3.30729 0.281184,1.84311 0.799134,3.85293 1.090968,4.23333 0.11164,0.14553 0.271407,0.74084 0.355039,1.32292 0.08363,0.58208 0.225747,1.35599 0.315813,1.71979 0.363236,1.46722 0.648687,4.37071 0.606267,6.16669 -0.08303,3.51545 0.08694,19.86361 0.208564,20.06041 0.06617,0.10707 -6.92e-4,0.26946 -0.148587,0.36086 -0.147894,0.0914 -0.268899,0.36847 -0.268899,0.6157 0,0.24723 -0.292752,0.99944 -0.65056,1.67158 -0.357808,0.67214 -0.854137,1.73087 -1.102953,2.35272 -0.479391,1.19811 -1.788082,3.26067 -2.668526,4.20572 -0.509425,0.5468 -1.91449,1.17127 -4.706086,2.09158 -0.727605,0.23987 -1.48025,0.58637 -1.672545,0.77001 -0.192295,0.18365 -0.660092,0.3339 -1.039549,0.3339 -0.981267,0 -2.437583,0.53222 -3.439469,1.25697 -0.97594,0.70599 -1.143596,1.24998 -0.303015,0.98319 0.701477,-0.22264 2.934249,0.38332 2.807997,0.76208 -0.05174,0.15522 -0.408857,0.46594 -0.793597,0.69051 -0.384739,0.22456 -0.950718,0.73571 -1.257732,1.13589 -0.461409,0.60144 -0.486055,0.72761 -0.142127,0.72761 0.228843,0 0.416078,-0.10494 0.416078,-0.23319 z m 16.205725,-7.57875 c -1.100278,-1.17515 -0.554733,-1.99973 0.60328,-0.91183 0.93061,0.87426 1.35669,0.44986 1.54998,-1.54392 0.0944,-0.97397 0.28002,-2.48523 0.41243,-3.35835 0.13241,-0.87313 0.32428,-2.15305 0.42637,-2.84427 0.14994,-1.01523 0.28663,-1.25678 0.7112,-1.25678 0.48309,0 0.51438,0.13369 0.38712,1.65365 -0.47401,5.66111 -0.88324,7.74307 -1.69023,8.59896 -0.50303,0.53352 -1.74863,0.35839 -2.40015,-0.33746 z m 1.06971,-45.96462 c -0.13852,-0.1819 -0.45715,-0.77893 -0.70807,-1.32673 -0.41754,-0.91155 -0.974825,-1.53993 -3.316065,-3.73914 -0.448736,-0.42151 -0.815883,-0.86097 -0.815883,-0.97657 0,-0.33877 0.572901,-0.59525 0.757186,-0.33898 0.09287,0.12914 0.645106,0.55356 1.227189,0.94314 2.360253,1.57971 3.225813,2.71943 3.481403,4.58417 0.16184,1.18075 -0.10238,1.54139 -0.62576,0.85411 z M 69.447395,64.076304 c -0.299373,-0.67678 -0.544314,-1.33444 -0.544314,-1.46146 0,-0.12702 -0.119062,-0.23095 -0.264583,-0.23095 -0.431164,0 -0.301194,-0.53173 0.174598,-0.7143 0.667787,-0.25626 1.674562,1.15665 1.676171,2.35233 0.0019,1.43265 -0.422401,1.4548 -1.041872,0.0544 z m -8.834592,-5.0438 c -0.59924,-0.59924 0.38965,-1.4003 1.051034,-0.8514 0.277355,0.23018 0.29351,0.39232 0.06636,0.66602 -0.32185,0.3878 -0.830571,0.4722 -1.117394,0.18538 z M 80.280165,197.30577 c 0,-0.13693 -0.119063,-0.24897 -0.264583,-0.24897 -0.145521,0 -0.264584,0.18562 -0.264584,0.41249 0,0.22687 0.119063,0.33891 0.264584,0.24897 0.14552,-0.0899 0.264583,-0.27556 0.264583,-0.41249 z M 35.592727,175.18666 c -0.457458,-0.69064 -0.961474,-1.73762 -1.120036,-2.32664 -0.158561,-0.58901 -0.379993,-1.30905 -0.49207,-1.60009 -2.296023,-5.96232 -2.729792,-8.69208 -2.732816,-17.19792 -0.0027,-7.48738 0.624325,-11.73918 2.148987,-14.57298 0.150406,-0.27955 0.511702,-1.04405 0.802881,-1.69889 1.205755,-2.71167 3.85896,-5.19803 7.319032,-6.85879 4.979795,-2.39019 5.27136,-2.45225 12.170834,-2.59071 5.813471,-0.11667 8.489142,0.22494 11.161693,1.42503 0.754659,0.33887 1.436957,0.61613 1.516216,0.61613 0.417904,0 3.040241,1.93535 3.726258,2.75007 0.436563,0.51847 0.950631,0.94524 1.142374,0.94838 0.191742,0.003 1.056374,0.7201 1.921403,1.59322 0.865029,0.87312 1.663153,1.5875 1.773608,1.5875 0.110455,0 0.455848,0.26789 0.76754,0.59531 1.775205,1.8648 2.137834,2.21519 2.626793,2.53813 0.295884,0.19542 0.755084,0.75847 1.020445,1.25122 0.26536,0.49274 0.694086,0.96306 0.952723,1.04515 0.570606,0.1811 2.09753,1.70428 2.100048,2.0949 9.94e-4,0.15427 0.429542,0.57184 0.952328,0.92793 0.522787,0.35608 1.260153,1.07046 1.638593,1.5875 0.378439,0.51704 0.991688,1.20962 1.362775,1.53906 1.560988,1.38584 1.865329,1.72432 1.865329,2.07461 0,0.20301 0.113393,0.36911 0.251984,0.36911 0.210469,0 0.884381,0.64142 3.091846,2.94279 0.125425,0.13076 1.359139,1.3616 2.741587,2.7352 1.382448,1.37359 2.72356,2.77133 2.980249,3.10608 0.451952,0.58939 0.462157,0.51244 0.322792,-2.43407 -0.07915,-1.67349 -0.166188,-3.57457 -0.193411,-4.22462 -0.03045,-0.72712 -0.231016,-1.36344 -0.521229,-1.65365 -0.259454,-0.25945 -0.471734,-0.70624 -0.471734,-0.99285 0,-0.28662 -0.218474,-0.9117 -0.485497,-1.38907 -0.267023,-0.47736 -0.56003,-1.1656 -0.651127,-1.5294 -0.100824,-0.40265 -0.687291,-1.00198 -1.498878,-1.53175 -0.733287,-0.47867 -1.333248,-0.97666 -1.333248,-1.10665 0,-0.13 -0.221945,-0.3068 -0.493211,-0.39289 -0.271266,-0.0861 -1.551188,-1.1461 -2.844271,-2.35556 -4.388749,-4.10492 -4.99586,-4.67663 -6.055227,-5.70213 -0.582083,-0.56347 -1.259186,-1.24576 -1.504672,-1.51619 -0.245486,-0.27044 -1.138454,-1.1166 -1.984375,-1.88036 -0.84592,-0.76376 -2.251964,-2.04368 -3.124542,-2.84427 -0.872577,-0.80059 -1.744285,-1.45561 -1.937128,-1.45561 -0.192842,0 -0.504874,-0.14883 -0.693404,-0.33073 -1.176057,-1.13471 -1.989981,-1.64389 -5.307963,-3.32056 -0.436562,-0.22061 -1.109786,-0.62041 -1.496052,-0.88845 -0.386266,-0.26804 -0.844522,-0.48735 -1.018347,-0.48735 -0.173825,0 -0.691226,-0.16992 -1.149781,-0.37761 -0.458555,-0.20769 -1.309987,-0.43603 -1.89207,-0.50741 -0.582083,-0.0714 -2.546615,-0.32368 -4.365625,-0.56066 -4.44525,-0.57911 -11.397452,-0.44484 -12.148247,0.23462 -0.597117,0.54038 -2.048491,0.48057 -1.929548,-0.0795 0.05598,-0.2636 -0.09055,-0.31586 -0.529166,-0.18874 -0.33362,0.0967 -1.23166,0.24762 -1.995644,0.3354 -0.763984,0.0878 -1.389062,0.23246 -1.389062,0.32149 0,0.089 -0.564069,0.45933 -1.253486,0.82288 -0.689417,0.36355 -1.452692,0.85873 -1.696168,1.1004 -0.243475,0.24167 -0.895849,0.65444 -1.44972,0.91727 -0.894511,0.42447 -1.619071,1.01331 -3.539691,2.87667 -1.035054,1.00419 -3.438019,4.14578 -3.438019,4.4948 0,0.19249 -0.22737,0.80772 -0.505267,1.36717 -1.455701,2.93058 -1.71641,3.51451 -2.167037,4.85365 -0.269327,0.80036 -0.492613,1.93741 -0.496191,2.52677 -0.0036,0.58936 -0.124134,1.18919 -0.267902,1.33296 -0.735586,0.73559 -0.718671,13.75122 0.01886,14.51558 0.133393,0.13825 0.242191,0.6145 0.241773,1.05833 -7e-4,0.74293 1.220254,4.07362 1.605185,4.37886 0.09176,0.0728 0.711185,1.26338 1.376508,2.64583 0.665322,1.38245 1.577051,2.93026 2.026063,3.43959 0.449013,0.50932 0.892398,1.16416 0.9853,1.4552 0.144074,0.45135 1.752122,2.6393 2.236261,3.04271 0.08732,0.0728 0.206384,0.26458 0.264584,0.42626 0.175079,0.48637 1.644056,2.22474 1.771923,2.09687 0.06535,-0.0654 -0.255458,-0.68389 -0.712916,-1.37452 z M 191.58012,172.5167 c -0.0715,-1.27331 -0.25462,-2.67229 -0.40688,-3.10886 -0.15226,-0.43656 -0.46462,-1.44859 -0.69413,-2.24895 -0.43312,-1.51043 -0.73548,-2.287 -1.35513,-3.48041 -0.20056,-0.38626 -0.36464,-0.84011 -0.36464,-1.00857 0,-0.43856 -1.32378,-3.17679 -1.82568,-3.77642 -0.23281,-0.27813 -0.7619,-0.88369 -1.17577,-1.34567 -0.41386,-0.46199 -0.97177,-1.08695 -1.23979,-1.3888 -0.55282,-0.6226 -6.25288,-3.56365 -6.89331,-3.55674 -0.23041,0.002 -0.50748,-0.0848 -0.61571,-0.19391 -0.23232,-0.23427 -3.41055,-0.72727 -7.29975,-1.13231 -3.06328,-0.31903 -6.8096,-0.15431 -9.65729,0.42462 -1.01864,0.20709 -2.23201,0.37662 -2.69636,0.37674 -0.46436,1.2e-4 -0.90972,0.10609 -0.98969,0.23549 -0.08,0.1294 -0.4725,0.31737 -0.87229,0.41771 -0.39978,0.10034 -1.85942,0.72191 -3.24364,1.38127 -1.38422,0.65936 -2.93349,1.39412 -3.44281,1.63281 -0.50932,0.23869 -1.07586,0.63411 -1.25897,0.87872 -0.35979,0.48062 -1.80063,1.27505 -2.31255,1.27505 -0.17337,0 -0.53214,0.2397 -0.79727,0.53267 -0.26513,0.29296 -1.02773,0.79898 -1.69466,1.12448 -0.66692,0.32549 -1.25228,0.6811 -1.30079,0.79024 -0.0485,0.10915 -0.30937,0.19844 -0.57969,0.19844 -0.27033,0 -0.56509,0.11906 -0.65503,0.26459 -0.0899,0.14552 -0.38497,0.26458 -0.65563,0.26458 -0.27066,0 -0.82918,0.16942 -1.24116,0.37649 -1.30613,0.65651 -4.17277,1.74173 -4.59873,1.74094 -0.22556,-4.2e-4 -0.5275,0.11663 -0.67099,0.26012 -0.80723,0.80724 -11.78014,1.19894 -16.04557,0.57279 -1.98548,-0.29147 -6.02438,-1.94312 -6.02438,-2.46359 0,-0.12219 -0.11906,-0.22217 -0.26458,-0.22217 -0.14552,0 -0.26458,0.52876 -0.26458,1.17501 0,0.64626 -0.11907,1.2486 -0.26459,1.33853 -0.14552,0.0899 -0.27295,0.54345 -0.28318,1.00781 -0.0102,0.46435 -0.11457,1.0824 -0.23188,1.37344 -0.28563,0.70865 0.14387,1.19063 1.06101,1.19063 0.41016,0 0.81292,0.1087 0.89503,0.24156 0.0821,0.13286 0.65469,0.3182 1.27239,0.41187 0.6177,0.0937 1.36122,0.26795 1.65226,0.38728 2.64571,1.08479 16.51371,1.11875 18.58939,0.0455 0.25334,-0.13099 0.99639,-0.44323 1.65123,-0.69387 0.65485,-0.25064 1.42875,-0.54945 1.7198,-0.66401 1.88866,-0.74346 2.85129,-1.05127 3.28764,-1.05127 0.27434,0 0.95654,-0.23123 1.516,-0.51384 2.57967,-1.30315 4.48773,-2.13199 4.90801,-2.13199 0.55158,0 3.24723,-1.20051 4.19423,-1.8679 0.37219,-0.2623 1.20563,-0.67687 1.85208,-0.92126 1.89858,-0.71776 3.52743,-1.47344 3.95349,-1.83416 0.66658,-0.56434 4.48106,-1.67154 7.27605,-2.11196 3.2727,-0.51569 6.90182,-0.52251 8.99583,-0.0169 0.87312,0.21083 1.87016,0.38756 2.21563,0.39274 0.71974,0.0108 4.66501,1.92074 5.45729,2.64193 0.29104,0.26492 0.82682,0.57151 1.19062,0.6813 0.3638,0.10979 1.25677,0.81507 1.98438,1.56729 0.7276,0.75221 1.53397,1.44727 1.79194,1.54458 0.25796,0.0973 0.54799,0.3827 0.6445,0.63422 0.18166,0.47338 0.41016,0.76981 1.86283,2.41659 0.47283,0.53601 0.85978,1.1051 0.8599,1.26464 1.1e-4,0.15954 0.16782,0.63579 0.37268,1.05833 1.45017,2.991 2.27336,4.87273 2.27336,5.19668 0,0.36235 0.23256,0.73095 0.46117,0.73095 0.0596,0 0.0499,-1.0418 -0.0216,-2.3151 z m -0.44171,-7.40002 c -0.28659,-0.44675 -0.29442,-0.44605 -0.15009,0.0133 0.0837,0.26657 0.16608,0.68329 0.18296,0.92605 0.0276,0.39763 0.0425,0.39631 0.15009,-0.0133 0.0657,-0.25009 -0.0167,-0.66681 -0.18296,-0.92604 z m -0.49469,-1.31139 c -0.31191,-0.53637 -0.38722,-0.36469 -0.13191,0.30066 0.0907,0.23646 0.22072,0.37419 0.28884,0.30607 0.0681,-0.0681 -0.002,-0.34115 -0.15693,-0.60673 z m -61.15105,-0.60872 c 1.57978,-0.39673 4.5915,-1.35117 5.42396,-1.71888 0.43656,-0.19284 1.44859,-0.55935 2.24895,-0.81447 1.87974,-0.59916 3.20635,-1.1618 3.70417,-1.571 0.21828,-0.17942 1.50974,-0.90837 2.86991,-1.61988 1.36017,-0.71152 2.72939,-1.53432 3.04271,-1.82845 0.51632,-0.48471 1.18176,-0.86012 2.28946,-1.29162 0.42728,-0.16644 1.37169,-0.73422 1.5875,-0.95439 0.45197,-0.46112 3.34666,-1.61105 5.02709,-1.99705 1.0914,-0.25069 2.2225,-0.54919 2.51354,-0.66332 3.17848,-1.24645 11.03468,-1.37724 15.61042,-0.25988 0.58208,0.14214 1.83224,0.42702 2.77812,0.63306 0.94589,0.20605 1.95792,0.46141 2.24896,0.56747 1.10136,0.40137 3.44704,1.59526 3.62363,1.84434 0.10123,0.14278 0.27983,0.16308 0.39688,0.0451 0.29267,-0.29496 -1.15238,-1.40583 -2.06659,-1.58867 -0.41072,-0.0821 -0.96084,-0.36143 -1.22249,-0.62064 -0.26165,-0.25921 -1.3667,-1.12507 -2.45566,-1.92414 -2.56181,-1.87983 -2.37879,-1.74223 -3.34105,-2.51191 -0.45757,-0.366 -1.09442,-0.66545 -1.41522,-0.66545 -0.3208,0 -0.95846,-0.16186 -1.41701,-0.35969 -0.45856,-0.19783 -1.17589,-0.49964 -1.59407,-0.6707 -0.41818,-0.17105 -2.52672,-0.5057 -4.68564,-0.74366 -3.68327,-0.40599 -4.09923,-0.40432 -6.7461,0.0269 -1.55144,0.25279 -3.01478,0.55371 -3.25187,0.66871 -0.23708,0.11499 -0.80662,0.40468 -1.26563,0.64374 -0.45902,0.23906 -1.32222,0.43465 -1.91823,0.43465 -0.59601,0 -1.08366,0.097 -1.08366,0.21558 0,0.23459 -1.69528,1.10734 -2.15094,1.10734 -0.1545,0 -0.59695,0.2225 -0.98322,0.49445 -0.38626,0.27195 -0.99995,0.57709 -1.36376,0.67809 -0.3638,0.101 -0.89958,0.28595 -1.19062,0.411 -0.29104,0.12506 -0.85659,0.29844 -1.25677,0.38529 -0.67381,0.14624 -0.72761,0.2542 -0.72761,1.46018 0,0.71624 0.11907,1.37584 0.26459,1.46578 0.6576,0.40642 -0.11817,2.77813 -0.9087,2.77813 -0.10184,0 -0.56552,0.40328 -1.03039,0.89619 -1.11127,1.17829 -3.46773,1.83038 -4.78615,1.32446 -0.76709,-0.29436 -0.43139,-0.63315 0.62737,-0.63315 1.59758,0 2.87741,-0.7327 4.8036,-2.75002 0.62982,-0.65961 0.37753,-1.12903 -1.77992,-3.31176 l -1.67651,-1.69616 0.16278,-2.29321 c 0.12668,-1.78464 0.0633,-2.59277 -0.28589,-3.64401 -0.55583,-1.67345 -1.04029,-1.82644 -3.99389,-1.26125 -3.07087,0.58762 -7.44724,0.52447 -10.47287,-0.15112 -1.36816,-0.3055 -3.87768,-0.81151 -5.57672,-1.12448 -1.69905,-0.31297 -3.17741,-0.65833 -3.28525,-0.76747 -0.23464,-0.23747 -3.28301,-0.25822 -4.65313,-0.0317 -0.90353,0.1494 -0.99323,0.24884 -1.25026,1.38615 -0.44547,1.97115 -0.78557,5.00034 -0.62874,5.60004 0.14453,0.55272 0.16834,0.55371 12.03098,0.49801 l 11.88617,-0.0558 1.77074,1.87196 c 1.03868,1.09806 2.20426,2.04806 2.81939,2.29792 1.62236,0.65901 1.933,1.06025 1.933,2.49682 0,1.10974 -0.0934,1.32568 -0.7379,1.70641 -0.40585,0.23974 -1.16601,0.43589 -1.68927,0.43589 -0.7568,0 -0.95136,-0.10236 -0.95136,-0.50049 0,-0.30654 0.24416,-0.56176 0.63007,-0.65862 0.65989,-0.16562 1.04651,-1.17907 0.67755,-1.77606 -0.15364,-0.2486 -0.41295,-0.22246 -1.11957,0.11285 -1.23681,0.5869 -4.15915,1.49175 -4.83149,1.49599 -0.29832,0.002 -0.6555,0.10999 -0.79375,0.24025 -0.13824,0.13026 -1.02526,0.30447 -1.97114,0.38714 -0.94589,0.0827 -2.37464,0.26506 -3.175,0.40531 -2.21829,0.38871 -5.79846,0.33941 -7.49795,-0.10325 -0.83804,-0.21828 -1.86806,-0.39687 -2.28893,-0.39687 -0.42088,0 -0.83881,-0.11907 -0.92875,-0.26459 -0.0899,-0.14552 -0.41476,-0.26458 -0.72182,-0.26458 -0.30707,0 -1.20505,-0.365 -1.99551,-0.81111 -0.79046,-0.4461 -1.48834,-0.75996 -1.55084,-0.69745 -0.1046,0.10459 0.13907,2.43945 0.66826,6.40335 0.11656,0.87313 0.23008,1.50763 0.25227,1.41002 0.0222,-0.0976 0.58243,0.11074 1.24497,0.46302 0.66255,0.35227 1.32916,0.6405 1.48137,0.6405 0.15221,0 0.65193,0.16774 1.11048,0.37275 1.23074,0.55024 2.15842,0.7287 4.80249,0.92386 2.94657,0.21748 8.9405,0.0811 10.18646,-0.23184 z m 4.36621,-15.23993 c -0.43624,-0.22746 -0.97202,-0.56581 -1.19062,-0.75188 -0.21861,-0.18608 -0.96302,-0.49097 -1.65424,-0.67753 -0.69122,-0.18656 -1.25677,-0.42757 -1.25677,-0.53558 0,-0.10801 0.47658,-0.27259 1.05907,-0.36573 1.2267,-0.19616 2.43015,0.2257 3.82987,1.34254 1.52995,1.22075 0.98074,1.91007 -0.78731,0.98818 z m 55.94466,13.81633 c -0.25475,-0.23481 -0.28996,-0.19401 -0.1571,0.18203 0.0942,0.26657 0.18504,0.62375 0.20192,0.79375 0.0169,0.17 0.0876,0.0881 0.15711,-0.18203 0.0695,-0.27012 -0.0213,-0.62731 -0.20193,-0.79375 z M 128.68836,154.032 c 0.79456,-0.20178 1.71027,-0.36686 2.03491,-0.36686 0.32464,0 0.6557,-0.10591 0.7357,-0.23535 0.08,-0.12945 0.53352,-0.29812 1.00781,-0.37483 0.47429,-0.0767 1.43141,-0.27885 2.12693,-0.4492 l 1.26459,-0.30973 -1.1323,-0.81659 c -0.62276,-0.44912 -1.54901,-1.25287 -2.05833,-1.78612 l -0.92604,-0.96953 -9.12813,0.11416 -9.12813,0.11416 0.0853,2.37034 c 0.0822,2.28356 0.11122,2.38145 0.79375,2.67398 1.71783,0.73624 11.46943,0.76046 14.32396,0.0356 z m 55.17618,0.1623 c -0.0899,-0.14552 -0.28258,-0.26458 -0.4281,-0.26458 -0.14552,0 -0.191,0.11906 -0.10106,0.26458 0.0899,0.14552 0.28258,0.26459 0.4281,0.26459 0.14552,0 0.191,-0.11907 0.10106,-0.26459 z m -71.56979,-3.27086 v -2.21253 l -1.38906,-0.16956 c -0.76399,-0.0933 -1.63763,-0.23754 -1.94144,-0.32064 -0.48939,-0.13386 -0.5387,-0.058 -0.43251,0.66554 0.0659,0.44914 0.22519,0.88171 0.35393,0.96128 0.12874,0.0796 0.23408,0.53381 0.23408,1.00942 0,0.78095 0.1346,0.93025 1.38906,1.54079 0.76399,0.37183 1.47836,0.69005 1.5875,0.70714 0.10914,0.0171 0.19844,-0.96455 0.19844,-2.18144 z m 29.01204,-1.0924 c -0.62051,-0.62051 -0.77924,-0.47014 -0.25095,0.23773 0.26145,0.35033 0.5147,0.52999 0.56278,0.39924 0.0481,-0.13075 -0.0923,-0.41739 -0.31183,-0.63697 z m -46.066676,-4.31795 c -0.127664,-0.58125 -0.662181,-1.12892 -2.085577,-2.1369 -1.052656,-0.74545 -2.124565,-1.71195 -2.382021,-2.14779 -0.257455,-0.43584 -0.564298,-0.79243 -0.681872,-0.79243 -0.374879,0 -1.773543,-1.395 -3.448608,-3.43958 -2.126417,-2.5955 -2.074434,-2.5339 -3.631952,-4.30385 -0.738433,-0.83915 -1.415653,-1.89097 -1.504934,-2.33737 -0.08928,-0.44641 -0.39351,-1.13631 -0.676065,-1.53313 -0.282555,-0.39681 -0.588705,-1.02017 -0.680334,-1.38525 -0.09163,-0.36508 -0.771562,-1.13172 -1.510964,-1.70365 -0.739402,-0.57193 -1.729864,-1.3673 -2.201028,-1.76748 -0.471163,-0.40018 -1.079067,-0.73332 -1.350898,-0.74031 -0.271831,-0.007 -0.873653,-0.21535 -1.337382,-0.46303 -2.360653,-1.26079 -4.257709,-2.1701 -4.527403,-2.1701 -0.165905,0 -1.21349,-0.29766 -2.327968,-0.66146 -1.114477,-0.3638 -2.457609,-0.66212 -2.984737,-0.66293 -0.527128,-8.1e-4 -1.388977,-0.12108 -1.915219,-0.26725 -0.740098,-0.20558 -1.129612,-0.17565 -1.719792,0.13214 -0.419643,0.21885 -0.958608,0.39864 -1.197701,0.39954 -0.572082,0.002 -0.866896,-0.77479 -0.354576,-0.93443 0.215828,-0.0673 0.571008,-0.17807 0.78929,-0.24626 0.302064,-0.0944 0.389542,-0.52102 0.366183,-1.78594 -0.01688,-0.91407 -0.08908,-1.42383 -0.160449,-1.13278 -0.19249,0.785 -1.121931,2.77812 -1.295509,2.77812 -0.196706,0 0.129701,-2.62365 0.411458,-3.30729 0.119951,-0.29104 0.423163,-1.06495 0.673803,-1.71979 0.250641,-0.65485 0.557818,-1.38979 0.682616,-1.63322 0.361693,-0.7055 1.041689,-3.87141 1.041689,-4.84988 0,-0.4917 0.102045,-0.95707 0.226767,-1.03416 0.124722,-0.0771 0.29321,-0.78391 0.374417,-1.57074 0.08121,-0.78683 0.265215,-1.65352 0.408904,-1.92599 0.741041,-1.40516 0.918277,-2.706556 0.593459,-4.357576 -0.239764,-1.21869 -0.252468,-2.19682 -0.04916,-3.78536 0.811667,-6.34206 0.929053,-7.63428 0.891592,-9.81495 -0.0225,-1.30968 -0.11792,-2.97656 -0.212048,-3.70416 -0.141746,-1.0957 -0.110795,-1.26493 0.180202,-0.98529 0.884897,0.85037 1.338148,6.87415 0.743319,9.87886 -0.155174,0.78385 -0.316053,3.80643 -0.357508,6.71684 -0.06561,4.606306 -0.145245,5.463006 -0.614861,6.614586 -0.62447,1.5313 -1.145964,4.6302 -0.779187,4.6302 0.133506,0 0.678075,-0.47625 1.210151,-1.05833 0.532077,-0.58208 1.066682,-1.05833 1.188011,-1.05833 0.12133,0 0.558412,-0.28425 0.971294,-0.63167 0.821562,-0.6913 3.205647,-1.22042 5.49893,-1.22042 0.752064,0 1.367389,-0.11906 1.367389,-0.26458 0,-0.14552 -0.175716,-0.26458 -0.39048,-0.26458 -0.697894,0 -1.965205,-0.94365 -2.782461,-2.07184 -0.43952,-0.60674 -0.887678,-1.104526 -0.995906,-1.106196 -0.215862,-0.003 -0.881964,-1.44487 -1.352109,-2.92616 -0.164932,-0.51966 -0.299877,-1.92455 -0.299877,-3.122 0,-1.39134 -0.139439,-2.44681 -0.386323,-2.92423 -0.212477,-0.41089 -0.306299,-0.82709 -0.208493,-0.92489 0.356305,-0.35631 0.03144,-6.81881 -0.392272,-7.80332 -0.863752,-2.00698 -1.799307,-3.86358 -1.989475,-3.9481 -0.10914,-0.0485 -0.198437,-0.32142 -0.198437,-0.60648 0,-0.5274 -0.05029,-0.60763 -1.180603,-1.88339 -0.865746,-0.97715 -2.484221,-2.05214 -3.089653,-2.05214 -0.270734,0 -0.492244,-0.11906 -0.492244,-0.26458 0,-0.4756 -1.550404,-0.27794 -2.594146,0.33073 -2.051346,1.19625 -2.289091,1.45827 -2.281422,2.51442 0.004,0.54522 0.09282,1.31873 0.197465,1.71891 0.108522,0.415 0.08275,0.7276 -0.05998,0.7276 -0.32332,0 -1.074673,-1.50491 -1.110098,-2.22346 -0.01504,-0.30506 -0.139263,-0.0784 -0.276052,0.50367 -0.366487,1.55953 -0.788506,3.10329 -1.012615,3.70417 -0.108549,0.29104 -0.411973,1.21377 -0.674274,2.05052 -0.262302,0.83674 -0.576637,1.52135 -0.698522,1.52135 -0.334773,0 -0.266421,0.64689 0.153971,1.4572 l 0.37558,0.72393 0.606713,-1.289 c 0.960135,-2.03987 0.961222,-0.503 0.0032,4.53183 -0.236303,1.24188 -0.399798,1.72784 -1.246228,3.70417 -0.3662,0.85504 -0.485679,1.67295 -0.420584,2.87917 0.04403,0.81598 1.354207,2.25246 2.679454,2.93777 0.962926,0.49795 2.200655,0.0641 2.561979,-0.89812 0.331751,-0.88342 -0.07587,-15.90753 -0.441506,-16.27317 -0.143474,-0.14347 -0.260861,-0.57042 -0.260861,-0.94878 0,-0.37835 -0.142875,-0.83079 -0.3175,-1.00541 -0.246945,-0.24695 -0.246525,-0.38848 0.0019,-0.63689 0.515856,-0.51586 1.081678,0.28418 1.259526,1.7809 0.08604,0.72414 0.258669,1.55474 0.383608,1.84578 0.37688,0.87793 0.8776,5.57899 1.197705,11.24479 0.09455,1.67349 0.213577,3.11041 0.264507,3.19316 0.05093,0.0828 -0.160206,1.03525 -0.46919,2.11667 -0.588382,2.059276 -0.639651,3.294256 -0.327028,7.877406 0.121049,1.77462 0.08778,2.9369 -0.09467,3.30729 -0.317448,0.64445 -0.520565,2.01153 -0.743751,5.0058 -0.223177,2.99415 -0.411557,3.10592 -5.235122,3.10592 -3.567692,0 -3.744081,0.0249 -3.744081,0.52916 0,0.33503 0.176389,0.52917 0.480774,0.52917 0.264426,0 0.537703,0.14883 0.607282,0.33073 0.09604,0.25109 1.189523,0.31035 4.540859,0.24611 3.867908,-0.0742 4.503964,-0.14843 5.13828,-0.6001 0.821952,-0.58528 1.145726,-0.32698 0.783697,0.62523 -0.2711,0.71305 -0.492946,0.63159 4.607591,1.69186 2.602897,0.54107 3.90505,0.89274 4.365625,1.17902 0.218281,0.13567 0.605235,0.31664 0.859896,0.40215 0.254661,0.0855 0.463021,0.26064 0.463021,0.38919 0,0.12855 0.197121,0.23373 0.438046,0.23373 0.240926,0 0.806473,0.27878 1.256771,0.61951 0.450299,0.34073 1.161403,0.70401 1.580231,0.8073 0.418829,0.10328 1.122677,0.54896 1.564107,0.99039 0.44143,0.44143 1.184563,1.00732 1.651406,1.25753 1.21918,0.65344 4.010645,3.1883 9.501844,8.62839 2.643985,2.61938 5.620406,5.47688 6.614271,6.35 0.993865,0.87313 2.291626,2.02927 2.883913,2.56922 0.592288,0.53994 1.123191,0.9354 1.179785,0.87881 0.0566,-0.0566 0.02565,-0.4546 -0.06876,-0.88445 z m -1.584102,-4.08493 c -0.611355,-3.96262 -1.335898,-23.03036 -1.025425,-26.98599 l 0.160825,-2.04902 -1.559269,-1.47631 c -0.857598,-0.81198 -2.008718,-1.76852 -2.558045,-2.12566 -0.549326,-0.35713 -1.263701,-0.87688 -1.5875,-1.15499 -2.025637,-1.73981 -1.784654,-1.67582 -3.499141,-0.92911 -0.436563,0.19013 -1.448594,0.64156 -2.248959,1.00316 -0.800364,0.36161 -1.904253,0.77972 -2.453085,0.92914 -1.948481,0.53046 -4.058673,1.70342 -4.566258,2.53817 -1.13544,1.86728 -1.210063,2.22778 -0.772627,3.73251 0.324449,1.11607 0.67783,1.63365 1.71894,2.51768 0.720792,0.61204 1.31053,1.32684 1.31053,1.58845 0,0.30839 0.266553,0.5342 0.757996,0.64214 0.898827,0.19741 1.887838,1.05185 1.887838,1.63096 0,0.22653 0.22432,0.7279 0.49849,1.11417 0.837591,1.18005 2.67651,5.16114 2.67651,5.7944 0,0.32804 0.106155,0.59644 0.2359,0.59644 0.129745,0 0.307159,0.28392 0.394253,0.63093 0.08709,0.34701 0.695314,1.19939 1.3516,1.89417 0.656286,0.69479 1.193353,1.39314 1.193482,1.55189 1.29e-4,0.15875 0.451683,0.72657 1.003453,1.26182 0.55177,0.53525 1.17265,1.30916 1.379732,1.71979 0.207083,0.41064 1.020979,1.46099 1.808657,2.33411 0.787679,0.87313 1.982397,2.20128 2.654929,2.95146 0.672532,0.75018 1.265057,1.37526 1.316722,1.38907 0.05166,0.0138 0.01587,-0.48092 -0.07955,-1.09938 z m 25.710828,-1.68121 c -0.0879,-0.0879 -0.31612,-0.0973 -0.50712,-0.0209 -0.21106,0.0845 -0.14837,0.14716 0.15986,0.15985 0.27891,0.0115 0.43518,-0.051 0.34726,-0.13896 z M 78.140973,122.6466 c -1.280018,-1.86377 -1.56307,-2.05438 -3.050689,-2.05438 -0.76641,0 -1.457553,-0.10368 -1.535874,-0.23041 -0.07832,-0.12672 -0.498064,-0.30154 -0.932765,-0.38848 -0.434701,-0.0869 -1.639891,-0.57019 -2.6782,-1.0739 -1.867181,-0.9058 -2.975623,-1.02941 -2.337637,-0.26069 0.167054,0.20129 0.503467,0.36598 0.747587,0.36598 0.244119,0 0.556962,0.1046 0.695207,0.23245 0.138245,0.12784 1.106007,0.4923 2.150583,0.80989 1.044576,0.31759 2.034952,0.74098 2.200835,0.94086 0.379463,0.45722 2.276545,1.45638 2.765202,1.45638 0.201673,0 0.406366,0.0923 0.454873,0.20506 0.167726,0.38998 1.940593,1.36276 2.027187,1.11233 0.0478,-0.13824 -0.180039,-0.64003 -0.506309,-1.11509 z m -3.152475,-3.83122 c -0.218281,-0.0812 -0.783828,-0.56298 -1.256771,-1.0707 -0.750011,-0.80517 -0.859896,-1.10572 -0.859896,-2.35188 v -1.42875 l -0.727604,0.38214 c -0.400182,0.21018 -1.348952,0.91613 -2.108377,1.56878 -1.593006,1.36903 -1.555366,1.45097 0.983898,2.14192 0.945885,0.25738 1.898385,0.56893 2.116667,0.69234 0.218281,0.1234 0.813593,0.22197 1.322916,0.21904 0.509323,-0.003 0.747448,-0.0717 0.529167,-0.15289 z m -8.709784,-0.84357 c -0.48167,-0.37027 -0.720492,-0.41791 -0.965398,-0.19255 -0.250974,0.23093 -0.165105,0.33765 0.375409,0.46655 1.169545,0.27892 1.256641,0.23847 0.589989,-0.274 z m -2.346878,-0.82326 c -0.100584,-0.68532 -0.166877,-0.72773 -0.733826,-0.46941 -0.488043,0.22237 -0.769101,0.18841 -1.295549,-0.15653 l -0.672297,-0.4405 v 0.88804 c 0,0.48842 0.04955,0.93765 0.110114,0.99829 0.06056,0.0606 0.693317,0.0705 1.406122,0.0219 1.258091,-0.0858 1.292774,-0.11042 1.185436,-0.84176 z M 63.52121,114.5068 c 0.257884,-0.43656 0.592037,-0.79639 0.742563,-0.79963 0.512866,-0.011 1.618857,-1.08248 1.265871,-1.22634 -0.181901,-0.0741 -0.33073,-0.35597 -0.33073,-0.62629 0,-0.27033 -0.119062,-0.56509 -0.264583,-0.65503 -0.154319,-0.0954 -0.264583,0.17309 -0.264583,0.64419 0,0.62721 -0.221719,0.97079 -0.992188,1.53753 -0.557453,0.41005 -1.019803,0.99043 -1.055214,1.32458 -0.08853,0.83542 0.34444,0.73956 0.898864,-0.19901 z m -0.872653,-1.86542 c 0.996186,-0.58776 1.756607,-1.56338 1.756607,-2.25372 0,-0.33103 -0.21493,-0.24488 -0.908657,0.36422 -0.499761,0.4388 -1.154605,0.87587 -1.455208,0.97128 -0.355022,0.11268 -0.546551,0.39902 -0.546551,0.8171 0,0.77894 0.0044,0.77932 1.153809,0.10112 z m -0.110194,-3.31168 c -0.420711,-0.50693 -1.043615,-0.15996 -1.043615,0.5813 0,0.62224 0.01773,0.62764 0.666085,0.20282 0.506369,-0.33179 0.596894,-0.51981 0.37753,-0.78412 z m 28.662172,-3.75327 c -0.08217,-1.49121 -0.265198,-2.71129 -0.406727,-2.71129 -0.14153,0 -0.648429,0.32742 -1.126444,0.7276 -0.478015,0.40018 -1.206666,0.99003 -1.619225,1.31076 l -0.750107,0.58315 0.581045,0.54133 c 0.319575,0.29773 0.647149,0.54132 0.727942,0.54132 0.08079,0 0.709423,0.40823 1.396953,0.90717 0.687531,0.49894 1.271635,0.88559 1.29801,0.85921 0.02637,-0.0264 -0.01928,-1.26803 -0.101447,-2.75925 z M 55.144747,101.8068 v -1.5875 h -1.182321 c -1.017009,0 -1.157591,0.0647 -1.005455,0.46303 0.09728,0.25466 0.56979,0.86823 1.05003,1.3635 0.48024,0.49527 0.873163,1.00128 0.873163,1.12448 0,0.1232 0.05953,0.22399 0.132292,0.22399 0.07276,0 0.132291,-0.71437 0.132291,-1.5875 z m 19.745173,0.26459 c 0.324136,0 0.808683,-0.27885 1.076772,-0.61967 0.268089,-0.34082 1.012511,-0.95114 1.654272,-1.35627 0.641761,-0.405116 1.591916,-1.127966 2.111457,-1.606306 1.515913,-1.39572 5.627075,-4.65537 6.109247,-4.84389 0.401019,-0.15678 0.387131,-0.27597 -0.149678,-1.28444 l -0.591715,-1.11162 -1.192705,1.3762 c -0.655988,0.75691 -1.717676,2.03075 -2.359307,2.83076 -0.64163,0.8 -1.397797,1.49883 -1.68037,1.55296 -0.423107,0.0811 -2.814979,1.8535 -3.291895,2.4394 -0.07276,0.0894 -0.668073,0.49578 -1.322917,0.903086 -0.654843,0.40731 -1.273418,0.86809 -1.37461,1.02397 -0.129364,0.19927 -0.449141,0.18753 -1.077119,-0.0395 -1.288555,-0.46595 -1.744384,-0.4012 -0.986017,0.14006 1.029258,0.73459 1.958426,1.078 2.233892,0.82561 0.138245,-0.12667 0.516557,-0.2303 0.840693,-0.2303 z m -22.920173,-1.46351 c 0,-0.39934 -0.186948,-0.735626 -0.463021,-0.832876 -0.917077,-0.32307 -2.182812,-1.44499 -2.182812,-1.9348 0,-0.27504 -0.109902,-0.56801 -0.244227,-0.65102 -0.134325,-0.083 -0.32341,-0.51146 -0.420189,-0.95209 -0.147165,-0.67004 -0.269567,-0.77292 -0.74796,-0.62869 -0.855448,0.25792 -1.017074,0.49486 -1.046534,1.53416 -0.02708,0.95544 0.863146,2.28299 1.530926,2.28299 0.166481,0 0.770805,0.41663 1.342942,0.925836 1.269061,1.12948 2.230875,1.24006 2.230875,0.25649 z m 22.054912,-0.785446 c 0.218281,-0.21828 0.500791,-0.39688 0.6278,-0.39688 0.127009,0 0.729385,-0.523 1.338613,-1.16224 0.609228,-0.63923 1.615144,-1.42609 2.235369,-1.74859 0.620225,-0.32249 1.767117,-1.258 2.548647,-2.0789 0.781531,-0.82091 2.010383,-2.10965 2.730783,-2.86388 1.139679,-1.19319 1.271798,-1.44236 1.017122,-1.91823 -0.160983,-0.3008 -0.526632,-0.5469 -0.812554,-0.5469 -0.285921,0 -0.519857,-0.11907 -0.519857,-0.26459 0,-0.14552 -0.20836,-0.26987 -0.463021,-0.27634 -0.440266,-0.0112 -3.241146,-3.66567 -3.241146,-4.22893 0,-0.14148 -0.105544,-0.25723 -0.234542,-0.25723 -0.128997,0 -0.328454,-0.56554 -0.443236,-1.25677 -0.241437,-1.45395 -0.208572,-1.29489 -0.477791,-2.31245 -0.115116,-0.43511 -0.289159,-0.85192 -0.386763,-0.92624 -0.295501,-0.22504 -1.103502,-1.87311 -1.103502,-2.25081 0,-0.19436 -0.121669,-0.39394 -0.270376,-0.44351 -0.259198,-0.0864 -0.749532,-2.12306 -0.912557,-3.79043 -0.04268,-0.43656 -0.09164,-0.9155 -0.108796,-1.06431 -0.01715,-0.14881 -0.477672,-0.50286 -1.023375,-0.78679 -0.545703,-0.28392 -1.360613,-0.78724 -1.810912,-1.1185 -0.450298,-0.33125 -0.931045,-0.60227 -1.068327,-0.60227 -0.137282,0 -0.661825,-0.35235 -1.165651,-0.783 -1.031583,-0.88175 -2.009616,-1.0051 -3.178145,-0.40083 -0.541369,0.27995 -0.780611,0.60184 -0.780611,1.05028 0,0.35564 -0.231044,1.05798 -0.513432,1.56074 -0.282387,0.50277 -0.593541,1.34114 -0.691452,1.86306 -0.09791,0.52191 -0.283586,1.01417 -0.41261,1.09391 -0.129024,0.0797 -0.234589,0.67432 -0.234589,1.32129 0,1.08759 0.373311,2.08291 1.680679,4.48101 0.238,0.43656 0.433461,0.97829 0.434357,1.20385 8.97e-4,0.22556 0.150459,0.55905 0.33236,0.7411 0.24339,0.24359 0.311345,1.44325 0.257327,4.54281 -0.04138,2.37444 0.03854,4.4173 0.183196,4.68285 0.141128,0.25908 0.456787,1.65265 0.701465,3.09681 0.712537,4.20563 1.604536,5.87485 3.230575,6.045456 1.939987,0.20354 2.143263,0.18714 2.534952,-0.204546 z m -25.908818,-6.09831 c 0.657055,-0.43052 1.398554,-1.86919 1.111395,-2.15635 -0.09235,-0.0924 -0.167906,-0.009 -0.167906,0.18608 0,0.1947 -0.197046,0.57173 -0.437882,0.83785 -0.643673,0.71125 -2.107663,0.62315 -3.175164,-0.19107 -1.165498,-0.88897 -1.133978,-0.38557 0.04999,0.7984 1.022842,1.02284 1.66381,1.15132 2.619566,0.52509 z m 0.0397,-3.18765 c 0.401392,-2.1396 -0.727528,-5.09565 -1.957408,-5.12542 -0.249241,-0.006 -0.183269,0.30991 0.233044,1.11607 0.319386,0.61846 0.743723,1.4405 0.942971,1.82676 0.421861,0.8178 0.481888,2.49985 0.09768,2.7373 -0.413139,0.25533 -0.310331,0.66241 0.125095,0.49532 0.214324,-0.0823 0.465699,-0.55476 0.558613,-1.05003 z m -1.477458,-0.40732 c 0,-0.42072 -0.106819,-0.97169 -0.237375,-1.22437 -0.130557,-0.25269 -0.360623,-0.75709 -0.51126,-1.12089 -0.26451,-0.63882 -0.274785,-0.62977 -0.300206,0.26458 -0.02932,1.03156 -0.410669,1.65467 -1.192703,1.94886 -0.461069,0.17345 -0.399523,0.26663 0.529167,0.80119 1.215339,0.69956 1.712377,0.50527 1.712377,-0.66937 z m 3.385936,-2.6433 c -0.109577,-1.51488 -0.656005,-2.62526 -0.927515,-1.88477 -0.0667,0.1819 -0.284402,0.33073 -0.483788,0.33073 -0.293266,0 -0.280502,0.16427 0.06681,0.85989 0.236135,0.47294 0.528254,1.06664 0.649153,1.31933 0.120899,0.25268 0.223437,0.78847 0.227862,1.19062 0.0072,0.6526 0.03881,0.67825 0.294249,0.23866 0.15788,-0.2717 0.235547,-1.19285 0.173224,-2.05446 z m 34.30313,0.0996 c -0.208755,-0.40018 -0.380288,-0.93596 -0.381184,-1.19062 -8.97e-4,-0.25467 -0.09093,-0.46347 -0.200068,-0.46402 -0.10914,-5.4e-4 -0.417105,-0.56609 -0.684365,-1.25677 -0.26726,-0.69068 -0.713744,-1.68871 -0.992187,-2.21784 -0.278443,-0.52914 -0.50626,-1.21018 -0.50626,-1.51344 0,-0.30742 -0.355808,-0.81442 -0.804209,-1.14594 -0.764563,-0.56527 -2.635375,-3.84478 -2.635375,-4.61978 0,-0.686 -1.079843,-2.17125 -1.600517,-2.2014 -0.192585,-0.0112 0.03454,1.93824 0.245628,2.10825 0.09034,0.0728 0.294193,0.37042 0.452995,0.66146 0.158802,0.29104 0.68227,1.2387 1.163262,2.10592 0.480992,0.86722 0.894754,1.76019 0.919471,1.98438 0.07939,0.7201 0.445958,1.97192 0.82836,2.82885 0.204628,0.45856 0.372051,0.90974 0.372051,1.00263 0,0.0929 0.416719,0.78768 0.926042,1.54398 0.509323,0.7563 0.926042,1.56344 0.926042,1.79364 0,0.2302 0.386953,0.61113 0.859896,0.84651 1.302888,0.64842 1.555752,0.58789 1.110418,-0.26581 z m -39.218817,-3.04271 c -0.149395,-0.1819 -0.326354,-0.62838 -0.39324,-0.99218 -0.10776,-0.58612 -0.125717,-0.56854 -0.157644,0.15434 -0.03695,0.83666 0.124838,1.16857 0.569629,1.16857 0.150791,0 0.143224,-0.13352 -0.01875,-0.33073 z m 0.614589,-1.76833 c -0.09592,-0.1552 -0.435265,-0.28043 -0.754098,-0.27829 -0.555966,0.004 -0.552619,0.0182 0.08176,0.35249 0.726178,0.3827 0.940123,0.35908 0.672338,-0.0742 z m 3.282068,-0.13261 c 0.173268,-0.20878 0.277144,-0.7371 0.230835,-1.17405 l -0.0842,-0.79446 -1.124479,1.02124 c -0.618464,0.56169 -1.124479,1.09001 -1.124479,1.17405 0,0.32659 1.804626,0.13192 2.102322,-0.22678 z m 1.597793,-1.69709 c 0.0037,-0.56476 0.455956,-1.82112 1.084628,-3.01296 0.353788,-0.67071 0.296368,-5.07917 -0.07742,-5.94427 -0.17587,-0.40702 -0.703905,-1.1783 -1.17341,-1.71394 -0.729374,-0.83212 -0.900802,-0.91708 -1.177574,-0.58359 -0.261107,0.31462 -0.205679,0.60611 0.285805,1.50306 0.335353,0.61202 0.849075,1.37826 1.141605,1.70277 0.646744,0.71744 0.953269,2.51913 0.642352,3.77561 -0.126032,0.50932 -0.295452,1.28323 -0.376489,1.71979 -0.08104,0.43656 -0.251288,0.92483 -0.378336,1.08503 -0.127048,0.1602 -0.300505,0.87457 -0.38546,1.5875 -0.114096,0.95747 -0.08067,1.1925 0.127894,0.89935 0.155297,-0.21829 0.284181,-0.67654 0.286409,-1.01835 z m -2.615538,-0.83507 c 1.232702,-1.25892 1.296673,-1.39557 1.296673,-2.76982 0,-1.11564 -0.08277,-1.41381 -0.362664,-1.30641 -0.259012,0.0994 -0.325984,0.46458 -0.234328,1.27775 0.128549,1.14048 -0.447507,2.53523 -1.047098,2.53523 -0.143172,0 -0.635494,0.17168 -1.094049,0.38152 -0.458555,0.20984 -1.131393,0.42731 -1.495195,0.48328 l -0.661458,0.10176 0.661458,0.2937 c 1.155349,0.51299 1.608864,0.35902 2.936661,-0.99701 z m 2.355006,-4.77678 c 0,-0.5735 -0.119062,-1.04272 -0.264583,-1.04272 -0.145521,0 -0.264583,0.54281 -0.264583,1.20624 0,0.73678 0.102972,1.1426 0.264583,1.04272 0.145521,-0.0899 0.264583,-0.63275 0.264583,-1.20624 z m -2.260812,-0.14874 c 0.573145,-0.21994 1.203871,-1.48614 1.196596,-2.4022 -0.0032,-0.4074 -0.217017,-1.01514 -0.47507,-1.35052 -0.454119,-0.59019 -0.483372,-0.5941 -0.910937,-0.12164 -0.395526,0.43705 -0.401187,0.56631 -0.0541,1.23533 0.510822,0.98461 0.49004,1.27079 -0.141513,1.94868 -0.773175,0.8299 -0.633111,1.08104 0.385021,0.69035 z m 16.034302,-3.12971 c 0.137185,-0.13824 0.249427,-0.4085 0.249427,-0.60057 0,-0.19207 0.306251,-0.83435 0.680558,-1.42729 0.374307,-0.59294 0.642198,-1.10961 0.595313,-1.14815 -0.04688,-0.0385 -0.412667,-0.14862 -0.81285,-0.24462 -0.6852,-0.16438 -0.727604,-0.12218 -0.727604,0.72413 0,0.49428 -0.178594,1.04691 -0.396875,1.22806 -0.218281,0.18116 -0.396875,0.49339 -0.396875,0.69386 0,0.20046 -0.09909,0.36448 -0.220191,0.36448 -0.121105,0 -0.353817,0.43539 -0.517137,0.96753 -0.274798,0.89538 -0.243576,1.01871 0.418629,1.65365 l 0.715574,0.68611 0.0813,-1.32292 c 0.04472,-0.7276 0.193544,-1.43603 0.330729,-1.57427 z m -8.818733,1.07689 1.118297,-0.88911 -1.341152,-0.69582 c -1.876092,-0.97335 -2.271764,-0.93025 -2.135998,0.23268 0.05962,0.51067 0.214304,0.99395 0.343746,1.07395 0.129443,0.08 0.23535,0.37655 0.23535,0.659 0,0.74003 0.506393,0.63171 1.779757,-0.3807 z m 7.068011,-3.05787 c 0.680477,-1.44547 0.95023,-3.98537 0.42327,-3.98537 -0.139679,0 -0.38895,0.50601 -0.553935,1.12448 -0.164985,0.61846 -0.407889,1.33122 -0.539787,1.58391 -0.131899,0.25268 -0.239815,0.76243 -0.239815,1.13278 0,0.37034 -0.148829,0.73038 -0.33073,0.80008 -0.265904,0.10189 -0.382743,1.33788 -0.211551,2.23791 0.01384,0.0728 0.193947,-0.22489 0.400239,-0.66146 0.206292,-0.43656 0.679831,-1.44111 1.052309,-2.23233 z m -2.894642,1.83546 c -0.08994,-0.14552 -0.282584,-0.26458 -0.428105,-0.26458 -0.145521,0 -0.190999,0.11906 -0.101062,0.26458 0.08994,0.14552 0.282584,0.26458 0.428105,0.26458 0.145521,0 0.190998,-0.11906 0.101062,-0.26458 z m -1.163962,-1.08014 c 0.726289,-0.23128 1.462928,-0.52682 2.28946,-0.91854 0.03694,-0.0175 0.190905,-0.73583 0.342143,-1.59626 0.151237,-0.86044 0.406057,-1.8984 0.566267,-2.30657 0.252889,-0.64431 0.216505,-0.79452 -0.275997,-1.13949 -0.312007,-0.21854 -0.567286,-0.60225 -0.567286,-0.8527 0,-0.54627 -0.751547,-1.21819 -1.427723,-1.27645 -0.423934,-0.0365 -0.470616,0.10993 -0.35682,1.11951 0.150064,1.33137 -0.307186,2.00571 -0.980886,1.44659 -0.211298,-0.17536 -0.628017,-0.24144 -0.926041,-0.14686 -0.433621,0.13763 -0.541864,0.0561 -0.541864,-0.40808 0,-0.50341 0.104898,-0.55909 0.79375,-0.42132 0.792874,0.15857 0.79375,0.15736 0.79375,-1.09875 0,-0.93009 0.13778,-1.37548 0.529167,-1.71059 0.691538,-0.59211 0.691987,-2.03051 9.89e-4,-3.16385 -0.290498,-0.47646 -0.528461,-1.10442 -0.528806,-1.39546 -5.64e-4,-0.47485 -0.147456,-0.52001 -1.431025,-0.43999 -1.600334,0.0998 -2.539075,0.73579 -2.539075,1.7203 0,0.32903 -0.114067,0.7123 -0.253482,0.85171 -0.28161,0.28162 -0.35006,1.33715 -0.290686,4.48256 0.03348,1.77356 -0.06804,2.33903 -0.626253,3.48842 -0.563376,1.16001 -0.622566,1.49694 -0.383469,2.18281 0.247446,0.70982 0.406112,0.81107 1.271092,0.81107 0.543595,0 1.076274,0.0893 1.183731,0.19843 0.222376,0.22586 1.729222,0.80941 2.168439,0.83977 0.160186,0.0111 0.695968,-0.10875 1.190625,-0.26626 z m -2.504524,-2.37865 c -0.908248,-0.71443 -0.899137,-1.63558 0.02335,-2.36121 1.751708,-1.37789 4.452547,0.72346 3.144528,2.44656 -0.501869,0.66113 -2.279785,0.61323 -3.167882,-0.0854 z m -2.020056,-6.34819 c 0,-0.57038 0.560663,-1.30575 1.001496,-1.31357 0.422756,-0.007 0.422121,-0.0264 -0.0093,-0.27773 -1.140545,-0.6643 -0.115106,-1.15702 1.540414,-0.74015 0.865994,0.21806 1.171565,0.42483 1.171565,0.79276 0,0.27376 -0.162083,0.49775 -0.360184,0.49775 -0.241527,0 -0.318529,0.21791 -0.233739,0.66146 0.116022,0.60693 0.04757,0.66146 -0.830441,0.66146 -0.567855,0 -0.956886,-0.12908 -0.956886,-0.3175 0,-0.24694 -0.07056,-0.24694 -0.3175,0 -0.393422,0.39342 -1.005416,0.41504 -1.005416,0.0355 z m -4.454991,6.6712 c 0.375027,-0.28145 0.602012,-0.16622 1.541174,0.78238 l 1.101373,1.11243 -0.08597,-0.90087 c -0.0708,-0.74197 -0.186494,-0.89055 -0.655893,-0.84234 -0.747129,0.0767 -0.935044,-0.47752 -0.467469,-1.37877 0.206766,-0.39854 0.362127,-1.27656 0.345246,-1.95115 -0.01688,-0.67459 -0.08255,-0.9884 -0.14593,-0.69736 -0.06338,0.29104 -0.225707,0.76729 -0.360723,1.05833 -0.135017,0.29105 -0.362981,0.85376 -0.506587,1.25048 -0.153973,0.42536 -0.656801,0.91387 -1.225524,1.19063 -0.632253,0.30767 -1.096111,0.78826 -1.346772,1.39535 l -0.382351,0.92604 0.87481,-0.80755 c 0.481146,-0.44415 1.072721,-0.95607 1.314612,-1.1376 z m -0.794471,-1.09858 c 0.588973,-0.274 0.755014,-0.59949 1.018713,-1.99705 0.225595,-1.19561 0.236432,-1.91901 0.03816,-2.54779 -0.152287,-0.48295 -0.354878,-1.43392 -0.450204,-2.11327 l -0.173319,-1.23517 -1.021489,0.70601 -1.021489,0.706 -0.01004,3.64027 c -0.0093,3.38217 0.02279,3.62353 0.45298,3.4043 0.254661,-0.12977 0.779669,-0.38326 1.166684,-0.5633 z m 3.799459,-4.90753 c -0.18773,-2.75425 -0.124217,-3.19727 0.737689,-5.14561 0.632187,-1.42906 0.933765,-1.5875 3.02168,-1.5875 1.728459,0 1.951629,-0.0553 1.869462,-0.46302 -0.0795,-0.39451 -0.38584,-0.45883 -2.070234,-0.43469 -1.57563,0.0226 -2.257046,0.17027 -3.356882,0.7276 -0.758975,0.3846 -1.562506,0.69928 -1.785625,0.69928 -0.223119,0 -0.405671,0.0498 -0.405671,0.11065 0,0.0609 -0.07934,0.31742 -0.176319,0.57013 -0.161499,0.42086 -0.100747,0.41712 0.722758,-0.0445 0.494493,-0.2772 1.058591,-0.65282 1.253552,-0.83472 0.471798,-0.4402 0.845843,-0.41878 0.845843,0.0484 0,0.20854 -0.565547,0.83362 -1.256771,1.38906 -0.691224,0.55545 -1.344245,1.12897 -1.451157,1.27449 -0.363778,0.49514 -0.221447,2.98595 0.194386,3.40178 0.218281,0.21829 0.396875,0.591 0.396875,0.82827 0,0.23816 0.126399,0.35327 0.282187,0.25698 0.373134,-0.2306 1.021699,0.64893 1.032315,1.39995 0.0046,0.32742 0.08217,0.59531 0.172311,0.59531 0.09014,0 0.07826,-1.25635 -0.0264,-2.79189 z m 13.130887,-3.83354 c -0.05119,-0.35784 -0.110723,-1.17792 -0.132292,-1.82242 -0.03562,-1.06445 0.04121,-1.21914 0.83871,-1.68853 0.653465,-0.38461 0.954492,-0.44016 1.177396,-0.21726 0.164708,0.16471 0.459071,0.29947 0.654141,0.29947 0.61754,0 1.955744,1.15585 2.450619,2.11667 0.262329,0.50932 0.782078,1.21081 1.154999,1.55886 0.602164,0.56201 0.838172,0.614 2.109073,0.46463 0.78707,-0.0925 1.773462,-0.34678 2.191983,-0.56504 0.41852,-0.21827 0.911389,-0.39759 1.095265,-0.39849 0.183876,-8.9e-4 0.600594,-0.15045 0.926042,-0.33236 0.325447,-0.1819 0.627322,-0.34648 0.670834,-0.36574 0.04351,-0.0193 -0.186471,-0.49551 -0.511071,-1.05833 -0.492447,-0.85386 -0.604416,-1.5053 -0.67613,-3.93374 -0.08352,-2.82833 -0.347669,-4.20244 -1.017218,-5.29166 -0.178905,-0.29105 -0.400418,-0.8533 -0.492252,-1.24945 -0.213048,-0.91905 -1.146433,-1.79326 -1.914633,-1.79326 -0.327774,0 -0.670738,-0.12101 -0.762142,-0.2689 -0.0914,-0.1479 -0.26303,-0.20905 -0.381392,-0.1359 -0.118361,0.0731 -0.497087,-0.0785 -0.841613,-0.33695 -1.856914,-1.39311 -3.853898,-1.46596 -6.579536,-0.24004 -0.363802,0.16363 -0.840052,0.43031 -1.058334,0.59263 -0.218281,0.16232 -0.932656,0.45651 -1.5875,0.65374 -0.654843,0.19724 -1.378594,0.51605 -1.608333,0.70847 -0.22974,0.19243 -0.557162,0.34986 -0.727604,0.34986 -0.170443,0 -0.309896,0.11907 -0.309896,0.26459 0,0.14552 -0.170089,0.26458 -0.377976,0.26458 -0.207887,0 -0.545829,0.16785 -0.750981,0.373 -0.205152,0.20516 -0.987563,0.75115 -1.738691,1.21332 -1.424376,0.87643 -1.661548,1.47508 -1.101102,2.77931 0.216971,0.50491 0.228243,0.50188 0.245987,-0.0661 0.02036,-0.65186 0.04689,-0.66938 0.658415,-0.43471 0.230183,0.0883 0.418514,0.37843 0.418514,0.64466 0,0.3124 0.490604,0.74806 1.383406,1.22846 0.760873,0.40942 1.527853,1.03608 1.704399,1.39258 0.443221,0.89498 1.645539,2.12995 2.073646,2.12995 0.194752,0 0.720441,0.36634 1.168197,0.8141 0.667673,0.66767 0.814103,1.02808 0.814103,2.00377 0,0.99336 0.07641,1.17377 0.463021,1.09329 0.3233,-0.0673 0.434934,-0.29272 0.369946,-0.74701 z m 1.988095,-1.6428 c -0.0734,-0.1819 -0.133453,-0.0331 -0.133453,0.33073 0,0.3638 0.06005,0.51263 0.133453,0.33073 0.0734,-0.1819 0.0734,-0.47956 0,-0.66146 z m -6.789812,-1.21065 c 0,-0.12015 -0.297657,-0.4981 -0.661459,-0.83987 -0.363802,-0.34177 -0.661458,-0.81014 -0.661458,-1.04081 0,-0.23067 -0.255388,-0.57889 -0.567528,-0.77383 -0.514581,-0.32136 -0.547408,-0.30878 -0.35187,0.1348 0.118611,0.26907 0.266925,0.99523 0.329586,1.61369 0.109427,1.08005 0.149471,1.12448 1.013329,1.12448 0.49467,0 0.8994,-0.0983 0.8994,-0.21846 z m -3.625751,-2.71937 c -0.209271,-0.20927 -0.430408,-0.21155 -0.780521,-0.008 -0.428261,0.24893 -0.392242,0.28495 0.292001,0.292 0.569205,0.006 0.701465,-0.071 0.48852,-0.28395 z M 38.367948,186.68935 c -0.359677,-1.19463 -0.684291,-2.97053 -0.829736,-4.53931 -0.149068,-1.60787 -0.118019,-1.79983 0.278176,-1.71979 0.526434,0.10635 1.094906,1.62792 1.339446,3.58515 l 0.174885,1.39973 2.681493,0.004 c 1.474821,0.002 2.919618,0.0631 3.21066,0.13573 0.893115,0.22299 1.194972,-0.23727 1.36753,-2.08515 0.09119,-0.97647 0.297043,-1.86087 0.457463,-1.96532 0.160421,-0.10446 2.791986,-0.28525 5.847924,-0.40178 7.041321,-0.26848 43.178871,-0.52665 44.025251,-0.31452 3.8261,0.95896 -12.985741,1.69052 -36.358828,1.58213 l -13.235661,-0.0614 0.243219,2.08831 c 0.133771,1.14857 0.156851,2.17499 0.05129,2.28093 -0.105561,0.10595 -2.207109,0.23025 -4.670107,0.27622 -3.528767,0.0659 -4.500402,0.01 -4.583005,-0.26458 z M 10.430162,34.999524 c 0,-0.21829 0.174857,-0.39688 0.388572,-0.39688 0.236694,0 0.329045,0.15512 0.236275,0.39688 -0.197091,0.51361 -0.624847,0.51361 -0.624847,0 z"
       id="path3" /></g></svg>
