<?xml version="1.0" encoding="UTF-8" standalone="no"?>
<!-- Created with Inkscape (http://www.inkscape.org/) -->

<svg
   width="84.018532mm"
   height="153.14931mm"
   viewBox="0 0 84.018541 153.14931"
   version="1.1"
   id="svg1"
   xml:space="preserve"
   xmlns="http://www.w3.org/2000/svg"
   xmlns:svg="http://www.w3.org/2000/svg"><defs
     id="defs1" /><g
     id="layer1"
     transform="translate(-238.1272,-282.99866)"><path
       style="fill:#4d4d4d;stroke-width:1.27831"
       d="m 269.21204,436.04471 c -0.0564,-0.0566 -0.34732,-0.12218 -0.64634,-0.14572 -0.29901,-0.0235 -0.664,-0.15196 -0.81108,-0.28526 -0.20733,-0.18794 -0.33546,-0.2059 -0.57041,-0.08 -0.96939,0.51963 -2.18736,-0.12487 -2.35526,-1.24627 -0.2065,-1.37922 0.15983,-2.0243 3.01559,-5.31031 4.71185,-5.4217 6.35532,-8.14203 8.03919,-13.30661 0.23236,-0.71267 0.44338,-1.48745 0.46893,-1.72175 l 0.0465,-0.42601 -1.8024,-0.33285 c -2.26937,-0.4191 -3.84399,-0.76762 -4.36554,-0.96623 l -0.40521,-0.15431 0.10155,1.24493 c 0.13989,1.71414 0.63682,3.73653 1.24854,5.08116 0.28231,0.62057 0.61519,1.35295 0.73971,1.62751 0.31969,0.70484 0.41038,1.97842 0.1723,2.4197 -0.33061,0.61279 -1.19244,1.19109 -2.67719,1.79643 -1.90956,0.77856 -5.85427,2.09545 -9.12252,3.04543 -0.35208,0.10235 -0.70574,0.26525 -0.78593,0.36202 -0.16695,0.20149 -0.90087,3.77146 -0.90434,4.39894 -0.004,0.6026 -0.13565,0.72786 -0.98092,0.92853 -0.625,0.14836 -0.96018,0.13808 -1.9112,-0.0587 -1.0248,-0.21203 -2.64015,-0.73438 -3.48907,-1.12826 -0.5794,-0.26883 -2.11547,-0.87185 -3.4546,-1.35617 -0.74348,-0.2689 -1.63534,-0.6159 -1.98189,-0.77109 -0.34656,-0.15521 -0.6743,-0.2822 -0.72831,-0.2822 -0.0541,0 -0.31117,-0.0977 -0.57148,-0.21731 -0.86396,-0.39667 -3.61337,-1.25775 -4.57139,-1.43171 -2.07277,-0.37635 -2.80144,-0.9752 -2.78168,-2.28615 0.0193,-1.27829 0.7564,-1.68514 2.29867,-1.26869 0.68345,0.18454 1.22811,0.19777 3.1542,0.0766 5.66875,-0.35669 8.11789,-1.20771 9.76533,-3.39323 0.78771,-1.04499 1.53635,-2.47345 1.92089,-3.66519 0.17352,-0.53782 0.65333,-1.96305 1.06622,-3.16718 0.41289,-1.20413 0.81597,-2.45655 0.89573,-2.78316 0.0797,-0.3266 0.42506,-1.64316 0.76729,-2.92566 0.34225,-1.28251 0.71546,-2.70417 0.82936,-3.15926 0.11393,-0.45507 0.35889,-1.40286 0.54442,-2.10616 0.18551,-0.70332 0.33301,-1.68494 0.32775,-2.1814 -0.0131,-1.24521 -0.56755,-5.12746 -1.39636,-9.77864 -0.57002,-3.19882 -0.89645,-5.521 -1.0574,-7.52204 -0.0865,-1.07565 -0.23171,-2.60525 -0.32269,-3.39912 -0.3694,-3.22394 0.33365,-8.39162 1.75824,-12.9237 1.65834,-5.27578 2.34954,-6.98255 4.8131,-11.88481 0.93558,-1.86171 2.37439,-4.77274 3.19737,-6.46897 0.82298,-1.69621 1.87395,-3.62562 2.33548,-4.28755 0.46153,-0.66194 0.94711,-1.43655 1.07905,-1.72135 l 0.2399,-0.51782 -0.25459,-0.53474 c -0.79153,-1.66253 -1.27371,-3.55266 -1.4991,-5.87644 -0.0521,-0.53782 -0.15657,-1.1471 -0.23202,-1.35396 -0.0755,-0.20685 -0.20434,-0.56082 -0.28644,-0.78659 l -0.14929,-0.41049 -0.69329,0.29766 c -2.7418,1.17715 -5.19517,-1.28731 -5.17002,-5.19343 0.009,-1.38152 0.0843,-1.88082 0.52027,-3.44477 0.17076,-0.61259 0.19758,-0.91808 0.0865,-0.98675 -0.33347,-0.20644 -2.01419,-3.2492 -2.57963,-4.67014 -0.12261,-0.30827 -0.20952,-1.06693 -0.20952,-1.83008 v -1.30352 l 0.48815,-0.69422 c 0.26848,-0.38181 0.48815,-0.72608 0.48815,-0.76503 0,-0.0389 -0.25997,-0.0707 -0.57772,-0.0707 -0.75188,0 -1.52507,-0.38695 -1.52507,-0.76323 0,-0.25482 0.11355,-0.29037 0.93875,-0.2941 1.9759,-0.009 2.81318,-0.91464 3.12519,-3.38068 0.23169,-1.83116 -0.10882,-5.23687 -0.81219,-8.1238 -0.68151,-2.79715 -0.92347,-4.6923 -0.91233,-7.14593 0.0174,-3.82088 0.9281,-6.32753 3.04776,-8.38813 1.19353,-1.16029 2.46263,-1.73978 3.90361,-1.78248 0.63146,-0.0187 1.33836,-0.10746 1.57092,-0.19713 0.23255,-0.0897 1.04995,-0.16312 1.81643,-0.16312 2.21597,0 3.49761,0.55943 5.04966,2.20415 1.13545,1.20327 1.41856,1.64411 2.02771,3.15753 0.37734,0.93748 0.6322,1.96855 0.90259,3.65148 0.71071,4.42359 0.93169,5.19906 2.46885,8.66363 1.34924,3.04102 1.98449,4.8922 2.13934,6.23429 l 0.0424,0.36711 1.2016,0.26757 c 1.64589,0.36652 1.67784,0.36248 1.78797,-0.22552 0.0517,-0.27636 0.24516,-0.64419 0.42977,-0.8174 0.64973,-0.6096 1.07557,-0.66878 4.01554,-0.55812 3.70263,0.13936 4.35487,-0.0481 4.97224,-1.42926 l 0.26652,-0.59625 -0.73664,-0.0979 c -0.94047,-0.12499 -1.78508,-0.82383 -2.32062,-1.92019 -0.37317,-0.76395 -1.01512,-3.01029 -1.83311,-6.41456 l -0.37957,-1.57963 0.32203,-1.99831 c 0.17712,-1.09907 0.53204,-2.62227 0.78872,-3.38491 0.30595,-0.90906 0.48058,-1.74929 0.50703,-2.4397 0.0703,-1.83474 0.9375,-3.14511 2.5439,-3.84399 l 0.75099,-0.32673 3.6799,-0.0155 3.6799,-0.0155 1.15308,0.57135 c 1.40558,0.69646 2.66634,1.94987 3.21797,3.1992 0.39054,0.8845 0.62436,2.35867 0.76038,4.79397 0.10704,1.91732 -0.20623,3.15029 -1.45269,5.71675 -1.85617,3.82184 -1.72671,3.43145 -1.72114,5.1902 0.005,1.61905 0.26318,2.57382 0.97027,3.58997 l 0.24736,0.35551 1.87954,-0.0243 c 1.56903,-0.0202 2.01588,0.0269 2.70498,0.28507 1.1566,0.43343 1.97616,1.19044 2.54767,2.35322 0.42385,0.86234 0.49026,1.16768 0.55087,2.53259 0.0379,0.85361 -0.0149,2.22045 -0.11738,3.03741 -0.10245,0.81696 -0.24142,1.92543 -0.30878,2.46325 -0.0776,0.61916 -0.0898,0.12256 -0.0333,-1.35396 0.17037,-4.45788 0.13723,-5.09414 -0.31128,-5.975 -0.53184,-1.04453 -1.29559,-1.78286 -2.30818,-2.2314 l -0.83241,-0.36873 -1.97146,-5.6e-4 c -2.29387,-6.5e-4 -2.71505,-0.15983 -3.26699,-1.23467 -0.41737,-0.81285 -0.54076,-2.55629 -0.29074,-4.1086 0.15633,-0.97069 0.14896,-1.16437 -0.0554,-1.45668 -0.12968,-0.18543 -0.23618,-0.44056 -0.2367,-0.56694 -5e-4,-0.1264 -0.10192,-0.42371 -0.22529,-0.66072 -0.12339,-0.237 -0.22438,-0.49065 -0.22438,-0.56366 0,-0.0731 0.33166,-0.45455 0.73701,-0.84785 0.83128,-0.80654 1.17494,-1.68561 0.92075,-2.35526 -0.21493,-0.56623 -0.64962,-0.4885 -1.25959,0.22524 -0.40424,0.47304 -0.64224,0.62142 -1.02555,0.63937 l -0.49912,0.0234 0.0389,-0.67699 c 0.0215,-0.37234 0.0538,-1.35396 0.072,-2.18139 l 0.033,-1.50441 -0.57138,-1.14978 c -1.06847,-2.15011 -1.89441,-2.47741 -6.46022,-2.56001 l -2.83223,-0.0512 -0.35053,0.96774 c -0.43211,1.19291 -0.87002,3.12037 -0.76888,3.38431 0.0419,0.10951 0.40752,0.2277 0.82994,0.26836 1.44352,0.13893 1.828,0.74936 1.27951,2.03148 -0.26731,0.62491 -0.31998,0.72257 -0.89846,1.66614 l -0.39579,0.64555 0.58114,0.5141 c 0.31964,0.28275 0.68252,0.51477 0.80645,0.5156 0.1374,9.1e-4 0.0622,-0.12038 -0.19275,-0.3108 -0.3214,-0.24012 -0.37962,-0.35866 -0.25186,-0.51284 0.0915,-0.11027 0.27951,-0.16457 0.41804,-0.12064 0.57489,0.18242 0.92776,0.41714 0.92776,0.61713 0,0.23939 0.32696,0.18311 0.41147,-0.0709 0.0301,-0.0904 -0.16053,-0.41008 -0.42365,-0.71024 -0.26311,-0.30016 -0.44954,-0.57463 -0.4143,-0.60994 0.17534,-0.17563 0.75773,0.16401 1.02558,0.59809 0.54127,0.8772 0.32664,1.43194 -0.55404,1.43194 h -0.49566 v 0.42741 c 0,0.35975 0.12479,0.49671 0.78854,0.86504 0.43371,0.24068 0.92374,0.47452 1.08896,0.51962 0.51263,0.13994 0.33252,0.5044 -0.42936,0.86877 l -0.72977,0.34902 0.34234,0.36498 c 0.42646,0.45468 0.33184,0.56764 -0.29279,0.34954 -0.45842,-0.16006 -0.9755,-0.12768 -1.55647,0.0975 -0.1787,0.0692 -0.26284,0.0296 -0.26284,-0.12384 0,-0.1241 0.11827,-0.27607 0.26284,-0.33769 0.22532,-0.0961 0.2093,-0.12614 -0.11227,-0.21084 -0.31791,-0.0838 -0.39482,-0.22258 -0.50405,-0.9099 -0.10257,-0.64564 -0.0797,-0.89447 0.11227,-1.22004 0.33868,-0.57425 0.30206,-0.7781 -0.19015,-1.05852 -0.30421,-0.17331 -0.46455,-0.41462 -0.54984,-0.82743 -0.14782,-0.71553 -0.11444,-0.92414 0.22507,-1.40747 0.14637,-0.20836 0.31155,-0.52553 0.36709,-0.70484 0.0833,-0.26874 0.0506,-0.31281 -0.18614,-0.25082 -0.15792,0.0413 -0.53244,0.008 -0.83226,-0.0756 l -0.54517,-0.15075 v 0.33237 c 0,0.18279 0.10551,0.73585 0.23447,1.22901 0.12896,0.49315 0.32721,1.33668 0.44056,1.8745 0.66004,3.13183 1.29379,4.67706 2.22121,5.41586 0.38746,0.30865 0.63536,0.37568 1.38212,0.37375 0.75975,-0.003 1.13089,-0.10849 2.24781,-0.64531 2.33786,-1.1236 4.26788,-2.66567 5.05007,-4.035 0.25399,-0.44463 0.49953,-0.80841 0.54565,-0.80841 0.0462,0 0.0472,0.27329 0.003,0.60731 -0.18023,1.3458 -2.72095,3.70909 -5.24166,4.87559 -0.60772,0.28123 -1.28971,0.55779 -1.51555,0.61455 -0.28669,0.072 -0.41106,0.20046 -0.41208,0.42541 -0.003,0.60972 -0.71429,1.8846 -1.22948,2.20298 l -0.49635,0.30672 -3.30439,-0.0407 -3.3044,-0.0407 -0.56515,0.35193 c -0.31082,0.19356 -0.62975,0.47284 -0.70871,0.62062 -0.12658,0.23697 -0.0529,0.28072 0.62449,0.37073 2.03172,0.26995 3.05149,1.54521 3.22149,4.02858 0.0636,0.93004 0.23907,1.66867 0.68925,2.90237 0.80422,2.20393 2.36632,6.24516 2.67498,6.92028 0.0756,0.16548 0.44585,1.0794 0.82264,2.03095 0.37679,0.95153 0.74624,1.86547 0.82099,2.03095 0.0747,0.16548 0.26518,0.60552 0.42317,0.97786 0.19383,0.45678 0.74662,1.117 1.69945,2.02979 0.77671,0.74403 2.08809,2.01868 2.91419,2.83253 l 1.50198,1.47975 0.50713,-0.0806 c 0.64318,-0.10222 1.37283,-0.60027 1.77113,-1.20884 0.39696,-0.60654 0.79582,-1.98009 0.81861,-2.81915 0.0102,-0.35961 0.0668,-0.85692 0.12659,-1.10515 0.20933,-0.86807 0.33196,-0.003 0.2808,1.98309 -0.0586,2.27401 -0.1161,2.39169 -1.65551,3.38562 -0.55278,0.3569 -1.00902,0.72338 -1.01386,0.81439 -0.005,0.091 0.18127,0.42952 0.41357,0.75222 0.3264,0.45339 2.06106,2.98592 2.75655,4.02444 0.10461,0.15618 0.55329,-0.0897 1.10177,-0.60379 0.29502,-0.27651 1.25146,-0.91829 2.66916,-1.79105 1.05938,-0.65216 1.42667,-1.3098 1.71537,-3.07138 0.13472,-0.82207 0.30165,-1.45956 0.37096,-1.41666 0.0694,0.0428 0.12454,0.70022 0.12275,1.46069 -0.005,2.05115 -0.378,2.70332 -2.21215,3.86678 -0.43371,0.27511 -0.78855,0.53137 -0.78855,0.56948 0,0.0381 0.16019,0.51752 0.35596,1.06536 0.47335,1.32447 0.59466,2.45238 0.39704,3.69142 l -0.16286,1.02104 0.3603,0.62407 c 0.19815,0.34325 0.48709,0.99643 0.64208,1.45151 0.52842,1.55153 0.22098,6.22507 -0.47997,7.29657 -0.29354,0.44871 -0.72496,0.72201 -1.49024,0.94402 -0.33163,0.0962 -0.83479,0.34624 -1.11812,0.55562 -0.28335,0.20936 -0.7048,0.38067 -0.93658,0.38067 -0.23177,0 -0.42141,0.0751 -0.42141,0.16689 0,0.70266 -4.22046,9.32635 -7.42794,15.17757 -1.67047,3.04735 -1.75009,3.19082 -2.33749,4.21284 -1.03882,1.80742 -2.66559,5.07934 -3.15395,6.34353 -0.4662,1.20684 -0.81057,2.60494 -1.27226,5.16518 -0.11943,0.66194 -0.34339,1.58643 -0.49784,2.05441 l -0.28082,0.85089 0.27147,1.3305 c 0.29764,1.45877 0.47916,3.40624 0.73395,7.87469 0.34944,6.12816 0.78131,10.57296 1.26442,13.01312 0.50683,2.55997 1.22993,5.04451 1.56614,5.38127 0.0934,0.0935 0.16974,0.29454 0.16974,0.44677 0,0.15224 0.12632,0.52797 0.28059,0.83495 0.557,1.10801 1.36476,3.59992 1.67943,5.18104 l 0.32122,1.61405 -0.18268,1.46997 c -0.10053,0.80849 -0.22513,2.28923 -0.27698,3.29051 -0.10193,1.96714 -0.25419,2.3653 -0.87465,2.28653 -0.25462,-0.0324 -0.40955,0.0617 -0.54553,0.33095 -0.1407,0.27863 -0.30491,0.37326 -0.63361,0.36512 -0.25566,-0.006 -0.52132,0.0974 -0.62685,0.24453 -0.22121,0.30856 -0.68913,0.45036 -0.95108,0.28821 -0.10832,-0.067 -0.2771,-0.0324 -0.38948,0.0802 -0.10909,0.10925 -0.32704,0.16489 -0.48439,0.12371 -0.15735,-0.0412 -0.33149,-10e-4 -0.38701,0.0887 -0.0555,0.0899 -0.47386,0.16354 -0.9297,0.16354 -0.70721,0 -0.89041,-0.0617 -1.24883,-0.42071 -0.66897,-0.67004 -0.78556,-1.57046 -0.59415,-4.58849 0.28775,-4.53742 -0.13973,-7.91159 -1.54753,-12.21488 -0.27871,-0.85192 -0.4154,-1.07149 -0.71956,-1.15585 -0.20653,-0.0573 -0.81483,-0.21692 -1.3518,-0.35475 -0.53697,-0.13782 -1.32444,-0.37442 -1.74994,-0.52577 l -0.77365,-0.27517 -0.81993,1.90728 c -1.17564,2.73471 -1.2024,2.81681 -1.12267,3.44449 0.0397,0.31294 0.25619,1.20947 0.48096,1.99231 0.63356,2.20655 0.35923,3.10058 -1.44022,4.69367 -2.6712,2.36484 -5.41958,5.39301 -5.70934,6.29053 -0.65572,2.03113 -1.80203,3.00279 -2.44978,2.07651 -0.1286,-0.1839 -0.23381,-0.25333 -0.23381,-0.1543 0,0.21695 -0.77341,0.6391 -1.17087,0.6391 -0.15651,0 -0.40514,-0.13345 -0.55251,-0.29655 l -0.26794,-0.29654 -0.37639,0.29654 c -0.37357,0.29433 -0.94248,0.39104 -1.13948,0.19373 z m 1.08931,-1.15655 c 0.11585,-0.0933 0.47283,-0.52496 0.79328,-0.95945 0.32048,-0.4345 0.68193,-0.78999 0.80324,-0.78999 0.29689,0 0.28626,0.66072 -0.0147,0.91087 -0.12936,0.1076 -0.3345,0.38783 -0.45585,0.62289 l -0.22065,0.42736 0.24227,0.0931 c 0.3405,0.13087 0.95342,-0.36532 1.57062,-1.27153 0.28914,-0.42451 0.57853,-0.77429 0.64307,-0.77728 0.28913,-0.0134 0.28022,0.54508 -0.0178,1.10851 -0.38406,0.72633 -0.39854,0.84177 -0.1055,0.84177 0.33955,0 0.82568,-0.59503 1.22904,-1.50441 0.20186,-0.45507 0.47554,-1.03052 0.6082,-1.27874 0.51547,-0.96463 3.29688,-3.94027 5.05509,-5.40812 1.62731,-1.35855 2.13578,-2.77843 1.52194,-4.2499 -0.48059,-1.15208 -0.62838,-2.1746 -0.41968,-2.90378 0.10653,-0.37235 0.25856,-0.81238 0.33778,-0.97787 1.24721,-2.60568 1.97972,-4.6262 2.80883,-7.7477 0.79567,-2.99564 0.82982,-3.22401 0.59125,-3.95431 -0.11393,-0.34877 -0.38413,-1.27726 -0.60041,-2.06331 -0.21629,-0.78606 -0.45636,-1.63229 -0.53348,-1.88052 -0.35572,-1.14494 -2.31507,-9.22618 -2.70829,-11.17022 -0.1862,-0.92054 -0.44941,-1.27279 -0.44966,-0.60176 -7.9e-4,2.14254 -0.97497,8.87399 -1.81249,12.5242 -0.17088,0.74467 -0.37677,1.7263 -0.45755,2.18138 -0.31798,1.79122 -1.09095,5.3592 -1.41773,6.54418 -1.52969,5.54704 -2.22696,7.3743 -3.91598,10.26208 -1.15638,1.97713 -3.88971,5.50775 -6.79585,8.77813 -0.3355,0.37756 -0.78813,1.00568 -1.00584,1.39584 -0.50548,0.90586 -0.41697,1.36305 0.31041,1.60348 0.72837,0.24078 1.43135,-0.0102 1.79552,-0.64054 0.38199,-0.6614 1.25132,-1.50337 1.43488,-1.38974 0.26429,0.1636 0.16091,0.53243 -0.37654,1.34341 -0.58629,0.8847 -0.61892,0.98779 -0.31268,0.98779 0.11712,0 0.60716,-0.50463 1.08893,-1.12138 0.87787,-1.12384 1.40166,-1.4302 1.40166,-0.81983 0,0.17347 -0.27695,0.63044 -0.61546,1.01548 -0.3385,0.38503 -0.68225,0.82494 -0.76389,0.97757 -0.12988,0.24281 -0.10461,0.26403 0.2024,0.16964 0.19296,-0.0594 0.44563,-0.18413 0.56146,-0.27733 z m 21.80207,-1.14768 c 0.37877,0 0.68052,-0.63158 0.80961,-1.6945 0.14536,-1.19705 0.38356,-0.93335 0.38356,0.42463 0,0.66401 0.0626,1.11942 0.15392,1.11942 0.26936,0 0.49325,-0.79588 0.50785,-1.80529 0.0208,-1.43695 0.30663,-1.13729 0.35793,0.37519 0.0322,0.95062 0.0955,1.27966 0.24557,1.27966 0.40392,0 0.68734,-0.7112 0.68734,-1.72478 0,-0.54073 0.0604,-0.98316 0.13412,-0.98316 0.21896,0 0.31647,0.42101 0.31647,1.36629 0,0.50759 0.0662,0.89033 0.15392,0.89033 0.30488,0 0.47602,-0.82715 0.38406,-1.8562 -0.0711,-0.794 -0.0485,-1.01432 0.0981,-0.96545 0.21698,0.0723 0.37167,0.66974 0.39756,1.53539 0.0284,0.94613 0.29208,0.44623 0.47465,-0.89954 0.0895,-0.65952 0.265,-1.63916 0.39005,-2.17698 0.42182,-1.81429 -0.0645,-5.21966 -1.06339,-7.44682 -0.11138,-0.24822 -0.34844,-0.78982 -0.52689,-1.20353 -0.17845,-0.41371 -0.38399,-0.88759 -0.45674,-1.05307 -0.71566,-1.62765 -1.25936,-3.29161 -1.42556,-4.36279 -0.0514,-0.33097 -0.15808,-0.87256 -0.23717,-1.20353 -0.13825,-0.57858 -0.44726,-3.02051 -0.74246,-5.86718 -0.253,-2.43988 -0.58405,-7.02531 -0.67883,-9.40255 -0.0929,-2.32828 -0.48413,-5.20589 -0.9206,-6.76983 -0.66267,-2.37449 -1.89398,-5.08814 -2.82514,-6.22633 -0.55765,-0.68163 -0.98213,-1.68223 -0.98213,-2.31509 0,-0.9808 0.99137,-5.41869 2.32639,-10.41411 0.1216,-0.45509 0.36088,-1.43671 0.5317,-2.18139 0.17083,-0.74469 0.40714,-1.76017 0.52513,-2.25661 0.3224,-1.3565 0.91926,-3.91854 1.20913,-5.19022 0.67105,-2.94387 1.48353,-5.94959 2.03328,-7.52203 1.10445,-3.15896 1.78555,-5.86223 1.78555,-7.08681 0,-0.64426 -0.0222,-0.66275 -0.49803,-0.41449 -1.21013,0.63138 -3.01954,2.05783 -4.79202,3.77776 -2.92895,2.84214 -4.02454,3.44903 -6.23065,3.45141 -1.05715,10e-4 -1.35268,-0.0595 -2.08193,-0.42742 -1.21081,-0.61083 -1.58622,-1.10566 -1.56772,-2.06646 0.008,-0.42314 -0.03,-0.98999 -0.0848,-1.25966 -0.0649,-0.31901 -0.0299,-0.57454 0.10014,-0.73143 0.10985,-0.1326 0.18065,-0.46364 0.15724,-0.73563 -0.0233,-0.27197 0.0297,-0.53919 0.1179,-0.5938 0.0882,-0.0546 0.16041,-0.29011 0.16041,-0.52332 0,-0.72232 0.32068,-0.85054 1.45032,-0.57982 0.83284,0.19959 1.09126,0.20559 1.7183,0.0399 0.98359,-0.25989 1.59431,-0.64475 1.96347,-1.23733 l 0.3046,-0.48894 h -0.65831 c -0.36207,0 -1.05578,0.13992 -1.54158,0.31095 -1.29816,0.457 -2.03521,0.20793 -2.03521,-0.68778 0,-0.37204 0.14587,-0.63652 0.60434,-1.09572 0.84893,-0.85028 1.59591,-1.00394 4.26677,-0.87766 2.25398,0.10657 3.02475,-0.0161 4.36617,-0.69496 0.4609,-0.23325 1.82546,-1.06889 2.30768,-1.41318 0.0958,-0.0684 -0.61392,-1.14967 -1.44481,-2.20106 -0.88278,-1.11707 -2.19378,-2.47881 -3.52743,-3.66398 -2.46975,-2.19479 -3.21056,-4.15923 -3.07841,-8.16316 0.0371,-1.12673 0.18461,-2.87864 0.32764,-3.89313 l 0.26003,-1.84454 -0.83939,-1.43603 c -0.46166,-0.78982 -0.8394,-1.60711 -0.8394,-1.81619 0,-0.48928 0.30219,-0.39802 0.6008,0.18145 0.1239,0.24045 0.43331,0.77662 0.68755,1.19146 2.62881,4.28953 4.98772,8.55367 5.86843,10.60813 2.04699,4.77522 4.10183,7.38986 8.699,11.06887 2.14878,1.71963 3.49379,3.04673 3.91534,3.86319 0.14969,0.28997 0.28161,1.16894 0.36599,2.43874 0.11304,1.70094 0.19866,2.14526 0.59765,3.10141 0.25615,0.61383 0.53194,1.33779 0.61289,1.60883 0.16339,0.5471 0.32521,0.51669 0.72124,-0.1356 l 0.26558,-0.4374 -0.20328,-0.78495 c -0.16041,-0.61939 -0.16735,-0.9679 -0.0329,-1.65234 0.0938,-0.47708 0.21414,-0.86741 0.26761,-0.86741 0.45485,0 1.66608,1.49195 1.66608,2.05221 0,0.19373 -0.23656,0.66265 -0.5257,1.04204 -0.41138,0.5398 -0.52569,0.82964 -0.52569,1.33283 0,1.39975 -0.62719,2.20171 -1.2578,1.60833 l -0.32825,-0.30887 -0.17251,0.27668 c -0.25143,0.40322 0.0344,0.61617 0.82713,0.61617 0.53894,0 0.73748,-0.0824 1.07738,-0.44677 0.83611,-0.89651 1.80722,-2.49402 1.99184,-3.27664 0.21957,-0.93094 0.41559,-1.02831 0.41559,-0.20643 0,0.72452 -0.30286,1.46657 -0.98903,2.42319 l -0.52948,0.73819 0.4964,-0.13948 c 0.27304,-0.0768 0.67679,-0.33875 0.89725,-0.58231 0.50568,-0.55868 0.63734,-1.45224 0.64491,-4.37694 0.006,-2.70469 -0.0102,-2.74772 -2.33627,-5.73946 -0.94242,-1.21226 -2.18659,-2.90421 -2.76487,-3.75988 -3.04235,-4.50184 -3.43622,-4.96416 -7.79975,-9.15531 l -1.48797,-1.42919 -0.65997,-1.57962 c -0.36298,-0.8688 -0.96306,-2.35817 -1.33352,-3.3097 -0.37046,-0.95153 -0.76407,-1.93317 -0.8747,-2.18139 -0.30563,-0.68581 -1.28696,-3.22008 -1.28696,-3.32357 0,-0.0502 -0.0981,-0.30443 -0.21793,-0.56516 -0.1198,-0.26073 -0.47035,-1.11719 -0.77889,-1.90324 -0.4671,-1.18999 -0.5555,-1.58902 -0.52819,-2.38415 0.0414,-1.20378 -0.18908,-2.47661 -0.53576,-2.95942 -0.42334,-0.58955 -1.63407,-1.09729 -3.19622,-1.34039 -0.7848,-0.12218 -2.03522,-0.32161 -2.7787,-0.44332 -0.74349,-0.12166 -2.25159,-0.29681 -3.35132,-0.38913 -2.24239,-0.18826 -3.1914,-0.48244 -4.18383,-1.29698 -0.71744,-0.58882 -1.32147,-1.48241 -1.16905,-1.72944 0.0651,-0.10542 0.39016,0.11194 0.87421,0.5848 0.68265,0.66679 1.76111,1.3829 2.08263,1.3829 0.23375,0 0.10575,-1.91429 -0.19615,-2.93478 l -0.31194,-1.05426 -0.63376,0.60821 c -0.9357,0.89799 -2.19721,1.4515 -3.51212,1.541 l -1.08896,0.0741 v -0.32208 c 0,-0.24724 0.23001,-0.43532 0.99008,-0.80959 l 0.99007,-0.48753 -0.0978,-0.74356 c -0.0537,-0.40896 -0.13428,-0.80255 -0.17876,-0.87465 -0.0445,-0.0722 -0.50852,0.2802 -1.03118,0.78289 -1.47633,1.41993 -3.09581,1.99076 -4.32255,1.52359 l -0.3654,-0.13914 -0.085,1.38028 c -0.0485,0.78825 -0.22373,1.79971 -0.40852,2.35815 -0.26941,0.81421 -0.31166,1.21706 -0.25245,2.40705 0.073,1.46875 0.17474,1.80143 1.17246,3.83624 0.87775,1.79019 0.91624,4.45134 0.0937,6.4735 -0.51767,1.27249 -0.59395,1.17074 -0.56733,-0.75675 0.0127,-0.90787 -0.0464,-1.15849 -0.42817,-1.81753 -0.2435,-0.42044 -0.86413,-1.13127 -1.37919,-1.57963 -2.52699,-2.19972 -3.1497,-2.90294 -3.37824,-3.81493 l -0.0982,-0.39204 -0.35824,0.38716 c -0.19704,0.21295 -0.57796,0.48033 -0.84651,0.59418 -0.57665,0.24447 -1.63206,1.30809 -1.97393,1.98927 -0.55367,1.10319 -0.17987,2.57423 1.37559,5.41346 0.96151,1.75507 1.23657,2.11987 1.23657,1.63997 0,-0.40986 0.9293,-2.64593 1.06478,-2.56207 0.25186,0.15591 0.14033,0.73192 -0.47906,2.474 -1.14753,3.2275 -1.42044,5.17401 -0.94856,6.7656 0.4318,1.45635 1.2022,2.39398 2.27996,2.77485 0.55336,0.19554 0.7224,0.19636 1.36049,0.006 1.89133,-0.56256 2.97901,-2.05364 3.1695,-4.34499 0.0579,-0.69618 0.15592,-1.06419 0.29583,-1.11041 0.17248,-0.0569 0.19555,0.17876 0.13133,1.34215 -0.0885,1.60276 -0.3732,2.46548 -1.12242,3.40109 l -0.50916,0.63583 0.21776,0.64292 c 0.11981,0.35359 0.26137,0.9814 0.31468,1.39511 0.36623,2.84289 0.83849,4.56555 1.81461,6.61939 0.73452,1.54549 1.65227,2.67936 3.11603,3.84977 0.97218,0.77737 3.60485,2.44326 5.36561,3.39525 1.02519,0.55429 1.04084,0.64506 0.53527,3.10303 -1.20563,5.86158 -1.37038,12.82132 -0.52778,22.2976 l 0.3344,3.76101 -0.24258,1.57963 c -0.36764,2.39396 -0.0328,4.27891 1.06798,6.01193 0.36374,0.57267 0.55895,1.09702 0.64408,1.73006 0.15431,1.14734 0.73534,3.93763 1.50488,7.22687 0.17422,0.74468 0.37535,1.62476 0.44696,1.95573 0.0716,0.33096 0.30701,1.27875 0.52311,2.10617 0.21612,0.82743 0.48429,1.87674 0.59595,2.33182 0.11164,0.45509 0.33787,1.30132 0.50266,1.88052 0.1648,0.57919 0.37488,1.32387 0.46683,1.65485 0.56381,2.02923 1.67731,5.65982 2.5608,8.34946 0.39409,1.19976 0.78816,2.41833 0.8757,2.70792 0.0874,0.28961 0.30094,0.93274 0.47421,1.42919 1.46496,4.19769 1.95947,7.78343 1.65947,12.03299 -0.20292,2.87452 -0.11495,3.83713 0.40768,4.4592 0.22169,0.26388 0.46676,0.41455 0.59445,0.36546 0.11956,-0.0459 0.34519,-0.0835 0.50154,-0.0835 z m -15.76927,-91.14813 c -0.20685,-0.38712 -0.20728,-1.32611 -6.6e-4,-1.454 0.0878,-0.0544 0.29381,0.0228 0.45778,0.17138 0.22273,0.2019 0.2868,0.42402 0.25339,0.87847 -0.0506,0.68856 -0.44014,0.91012 -0.71051,0.40415 z m -12.24289,-11.03461 c -0.27772,-0.39715 -0.30709,-1.18692 -0.0536,-1.44084 0.0991,-0.0993 0.36777,-0.18053 0.59694,-0.18053 0.30953,0 0.47565,0.11412 0.64587,0.44385 0.30976,0.59996 0.28968,0.80072 -0.11854,1.18477 -0.44319,0.41703 -0.77561,0.41478 -1.07074,-0.008 z m 15.79353,-1.0998 c -1.31909,-0.48491 -2.56263,-1.70545 -3.37167,-3.30934 -0.6403,-1.2694 -1.02005,-3.37052 -0.6505,-3.59928 0.17031,-0.10542 0.25766,0.18913 0.38223,1.28891 0.2014,1.77829 1.57128,3.72689 3.1624,4.49839 0.58169,0.28203 0.87139,0.3256 1.77755,0.26735 1.17021,-0.0752 1.59019,-0.26652 2.54929,-1.16124 0.74205,-0.69224 1.09989,-1.40109 1.37957,-2.73281 l 0.22552,-1.07377 -0.24107,-1.29897 c -0.29571,-1.59327 -0.66927,-2.51802 -1.51518,-3.75083 -1.01663,-1.4816 -0.77026,-2.21004 0.27742,-0.82021 1.2411,1.64645 1.83018,3.43949 1.84108,5.60392 0.009,1.75429 -0.31778,2.94139 -1.14767,4.17132 -0.52056,0.77152 -1.60895,1.70731 -2.26526,1.94769 -0.64955,0.2379 -1.70916,0.22418 -2.40371,-0.0311 z m 1.69622,-1.87555 c -0.41497,-0.41561 -0.38499,-0.99063 0.0671,-1.28732 0.83744,-0.54959 1.70446,0.56601 0.9934,1.27821 -0.38904,0.38967 -0.67807,0.39215 -1.06049,0.009 z M 258.0062,431.83836 c 0.12747,-0.12768 0.26594,-0.76235 0.81566,-3.73942 0.2135,-1.15628 0.59757,-2.86386 0.82899,-3.68579 0.0815,-0.2896 0.34911,-1.33893 0.5946,-2.33183 0.70434,-2.84878 1.12362,-4.31035 1.96357,-6.84505 1.0753,-3.24487 1.8073,-4.77687 3.64081,-7.61985 1.97513,-3.06254 2.63211,-4.39153 3.63293,-7.34902 1.62268,-4.79517 2.08003,-7.13272 2.33853,-11.95218 0.17037,-3.17643 0.37458,-4.45236 0.94035,-5.87504 0.83769,-2.10649 2.70141,-4.73646 5.21351,-7.35699 l 0.77918,-0.81283 -0.17195,-1.66944 c -0.0946,-0.9182 -0.20961,-4.03889 -0.25563,-6.93488 -0.0838,-5.27548 0.0326,-8.10824 0.4528,-11.01978 0.11049,-0.76537 0.1608,-1.39116 0.11177,-1.39063 -0.0928,10e-4 -0.13206,0.0615 -1.32013,2.03 -0.39949,0.66194 -0.92804,1.53393 -1.17453,1.93775 -1.77872,2.91405 -2.25742,3.69318 -3.31368,5.39344 -0.65445,1.05343 -1.25819,2.03505 -1.34166,2.1814 -0.26062,0.45691 -1.41964,2.3327 -1.99842,3.23431 -1.19168,1.85635 -2.574,4.15818 -3.1864,5.30599 -0.35317,0.66194 -0.99546,1.77896 -1.42729,2.48227 -1.64117,2.67287 -2.173,4.05043 -2.173,5.62847 0,0.58747 0.0655,1.29708 0.14567,1.5769 0.0996,0.34809 0.0761,1.32181 -0.0746,3.08305 -0.28481,3.32859 -0.60308,5.23142 -1.81459,10.84851 -0.93464,4.33341 -1.14108,5.23403 -1.79322,7.82291 -1.52433,6.05128 -2.12301,8.20068 -2.63395,9.45649 -0.24041,0.5909 -0.43735,1.17691 -0.43762,1.30225 -9.9e-4,0.46914 -1.09975,3.42637 -1.7028,4.58325 -0.40885,0.78433 -0.9643,1.54097 -1.60211,2.18241 -1.75327,1.76325 -3.67238,2.41629 -8.26099,2.8111 -3.47429,0.29891 -3.62476,0.29761 -4.76715,-0.0415 l -0.93704,-0.2781 -0.25623,0.25665 -0.25623,0.25664 0.2448,0.51417 c 0.27622,0.58018 0.95671,0.87102 2.66745,1.14006 0.53697,0.0844 1.686,0.42884 2.5534,0.7653 2.26562,0.87886 4.2113,1.5912 5.93289,2.17217 0.8261,0.27876 2.27928,0.79161 3.22929,1.13967 0.95001,0.34804 2.06525,0.7232 2.4783,0.83367 0.80104,0.21422 2.10464,0.19382 2.33465,-0.0366 z m 6.15164,-6.81827 c 1.77611,-0.59691 3.79079,-1.24929 4.47708,-1.44973 2.99993,-0.87618 3.5338,-1.60731 2.5842,-3.53907 -1.31374,-2.67248 -1.89003,-5.8393 -1.73496,-9.53391 0.10602,-2.52713 -0.1101,-4.24117 -0.67472,-5.34964 l -0.32319,-0.63453 -0.3618,0.63799 c -0.19901,0.35091 -0.36182,0.66363 -0.36182,0.69495 0,0.0678 -0.78257,1.31845 -1.90326,3.04159 -0.44669,0.68681 -1.05337,1.71705 -1.34818,2.28944 -0.59882,1.16264 -0.59925,1.19044 -0.0555,3.53254 0.54258,2.33702 0.38981,3.68818 -0.5413,4.7877 -0.23783,0.28086 -1.05163,0.97514 -1.80843,1.54285 l -1.37602,1.03218 -0.23198,0.90708 c -0.42564,1.66451 -0.84608,3.38056 -0.84608,3.45339 0,0.0902 0.50156,-0.067 4.50599,-1.41283 z m -1.11623,-5.83421 c 0.95212,-0.8799 1.15902,-1.31157 1.16746,-2.4358 0.008,-1.03301 -0.47003,-3.46955 -0.68035,-3.46955 -0.0671,0 -0.12185,0.0745 -0.12185,0.16532 0,0.091 -0.0971,0.37864 -0.21567,0.63937 -0.39762,0.87402 -2.03336,6.06579 -2.0364,6.46342 -9.9e-4,0.15867 1.10527,-0.64048 1.88683,-1.36276 z m 24.99799,-3.28413 c 0,-0.0477 -0.32964,-1.08009 -0.73255,-2.29422 -0.40289,-1.21413 -0.88064,-2.68139 -1.06163,-3.26059 -0.181,-0.57919 -0.36472,-1.15464 -0.40826,-1.27875 -0.0436,-0.12409 -0.37696,0.94671 -0.74091,2.37962 -0.36396,1.4329 -0.72926,2.73165 -0.81179,2.88609 -0.23965,0.4485 -0.18342,0.88473 0.11278,0.87528 0.38838,-0.0128 2.43235,0.45779 2.71906,0.62546 0.27081,0.15837 0.92328,0.20579 0.92328,0.0672 z m -11.32863,-3.03493 c 0.0507,-0.22753 0.1863,-0.78605 0.30119,-1.24113 0.51896,-2.05547 0.8493,-3.61043 0.95872,-4.51301 0.0653,-0.53794 0.26508,-1.51967 0.4441,-2.18161 0.89854,-3.32237 1.65426,-8.0464 2.17799,-13.61488 0.28985,-3.08167 0.0948,-4.124 -1.10492,-5.90449 -1.08311,-1.60743 -1.30236,-3.19966 -0.83388,-6.05556 0.1221,-0.74467 0.22236,-1.97611 0.22268,-2.73653 l 5.6e-4,-1.38257 -0.72362,0.78081 c -1.19215,1.28635 -1.34879,1.4713 -2.57258,3.03742 -1.33947,1.71413 -2.09088,3.02774 -2.53864,4.438 -0.30497,0.96051 -0.65575,3.80456 -0.85311,6.91697 -0.0999,1.57468 -0.14196,1.87909 -0.5726,4.14043 -0.42828,2.24905 -1.24253,4.99488 -2.37327,8.00322 l -0.46361,1.23341 0.30311,0.49666 c 0.63232,1.03614 0.78235,1.97266 0.78235,4.88389 v 2.75299 l 0.33794,0.0647 c 0.18587,0.0357 0.81108,0.14071 1.38934,0.23353 1.19359,0.19157 2.83242,0.55242 3.8301,0.84334 1.01641,0.2964 1.18408,0.27093 1.28815,-0.19566 z m -16.23369,-14.70558 c 0.14181,-0.66194 0.38422,-1.77896 0.53867,-2.48227 1.49248,-6.79623 1.85067,-9.8893 1.56797,-13.53966 -0.0697,-0.8979 -0.0485,-1.76289 0.0566,-2.32685 0.24955,-1.3387 2.17441,-5.13786 4.50864,-8.89884 0.66149,-1.06583 1.411,-2.27638 1.66557,-2.69009 0.25456,-0.41371 0.99425,-1.59843 1.64375,-2.63271 0.6495,-1.03428 2.82597,-4.57151 4.83659,-7.86053 2.01061,-3.28901 3.74054,-5.98002 3.8443,-5.98002 0.1037,0 0.19156,-0.0846 0.19515,-0.18805 0.004,-0.10337 0.0619,-0.47451 0.12953,-0.82462 l 0.12301,-0.63659 -2.24841,-1.30065 c -3.59381,-2.07895 -5.01799,-3.26035 -6.29964,-5.22578 -0.49962,-0.76618 -0.58698,-0.84547 -0.50619,-0.45945 0.0817,0.39054 0.005,0.58656 -0.47411,1.20352 -1.20589,1.55444 -2.4591,3.77299 -3.64555,6.45376 -0.18309,0.41371 -1.29089,2.6816 -2.46175,5.03976 -2.73073,5.49979 -2.96024,6.05138 -4.22545,10.15475 -1.45437,4.71696 -2.10668,7.56943 -2.34699,10.26307 -0.14904,1.67082 -0.11112,2.79347 0.24771,7.3385 0.12722,1.61093 0.71047,5.44818 1.4178,9.32733 0.16596,0.91016 0.44241,2.67032 0.61431,3.91145 0.3132,2.26115 0.40321,2.72692 0.50568,2.61664 0.0302,-0.0325 0.17097,-0.60072 0.3128,-1.26267 z m 31.66679,-10.22997 c 0.13363,-0.74468 0.28814,-1.69245 0.34335,-2.10616 0.25718,-1.92758 2.0658,-6.22149 4.13134,-9.80835 0.48589,-0.84375 0.88342,-1.56852 0.88342,-1.61061 0,-0.0421 0.19093,-0.40107 0.42428,-0.79774 0.23335,-0.39666 0.75028,-1.3305 1.14875,-2.07518 0.71368,-1.33384 0.89711,-1.67488 2.18465,-4.0619 0.81584,-1.51252 3.6114,-7.11983 4.05019,-8.1238 0.72412,-1.65687 0.93119,-2.11732 1.06468,-2.3674 0.23036,-0.43156 0.16192,-0.63847 -0.30201,-0.91296 -0.2428,-0.14366 -0.48311,-0.39263 -0.53403,-0.55329 -0.11674,-0.3685 0.16088,-0.90524 0.46827,-0.90524 0.46007,0 0.0501,-1.43623 -0.88031,-3.08403 -0.30248,-0.53571 -0.34105,-0.8164 -0.3514,-2.55749 -0.0134,-2.25792 -0.1027,-2.5159 -1.3139,-3.79865 -0.60577,-0.64155 -0.83204,-0.78976 -1.10203,-0.72189 -0.3658,0.092 -3.30002,1.45181 -4.79849,2.22384 l -0.91765,0.4728 -0.0938,1.5351 c -0.10269,1.68201 -0.48005,3.4736 -1.07465,5.1029 -1.14975,3.15056 -1.90134,5.77892 -2.92525,10.22997 -0.17129,0.74468 -0.40887,1.76016 -0.52793,2.25662 -0.11904,0.49644 -0.39075,1.64732 -0.60379,2.55748 -1.31764,5.62962 -1.38756,5.91129 -1.88592,7.59727 -0.8393,2.83935 -1.04166,3.89856 -1.04166,5.45232 v 1.49954 l 0.47299,0.6988 c 0.60145,0.88859 1.93727,3.44501 2.39025,4.57435 0.19119,0.47669 0.39263,0.81519 0.44764,0.7522 0.055,-0.0629 0.20934,-0.72381 0.34298,-1.4685 z m -6.13216,-33.828 c 1.35295,-0.36199 2.04843,-0.85199 4.26957,-3.00813 1.2057,-1.17041 2.69841,-2.46111 3.3171,-2.86821 0.61871,-0.40711 1.3173,-0.87092 1.55241,-1.03068 0.45296,-0.30779 4.18846,-2.18963 5.76825,-2.90589 0.51631,-0.23408 0.93874,-0.47585 0.93874,-0.53726 0,-0.11476 -0.34766,-0.41058 -2.55339,-2.17301 -0.70219,-0.56107 -1.33076,-1.10869 -1.39681,-1.21693 -0.21768,-0.3567 -0.54937,-0.20868 -1.87434,0.83645 -2.43334,1.9194 -4.3595,3.03073 -5.74084,3.31225 -0.45436,0.0926 -1.87375,0.15557 -3.15419,0.13992 -2.59241,-0.0317 -3.36224,0.13621 -3.74774,0.81735 -0.17988,0.31783 -0.18381,0.42655 -0.0224,0.62129 0.16948,0.20454 0.24873,0.20865 0.59353,0.0307 0.57189,-0.29508 2.60983,-0.59428 3.24059,-0.47575 0.66901,0.12576 0.6778,0.34305 0.0486,1.20404 -0.26848,0.36745 -0.60214,0.83205 -0.7415,1.03246 -0.16685,0.23999 -0.61606,0.4812 -1.31585,0.70657 -1.04573,0.33678 -1.54395,0.3478 -2.76864,0.0611 -0.62967,-0.14734 -0.45751,0.1942 0.44397,0.88084 0.92423,0.70395 1.68317,0.74531 3.1736,0.17293 1.33422,-0.51239 1.99697,-0.61857 1.99697,-0.31989 0,0.12307 -0.0844,0.28743 -0.18774,0.36533 -0.28237,0.21297 -3.14132,1.10352 -3.53452,1.10096 -0.46492,-0.003 -1.27871,-0.35739 -1.88586,-0.82122 -0.58154,-0.44428 -0.80986,-0.34881 -0.45674,0.19099 0.39886,0.60971 0.99097,1.04629 1.68533,1.24265 0.56038,0.15846 0.88441,0.13852 2.30207,-0.14164 0.90745,-0.17932 1.71231,-0.28741 1.78859,-0.24021 0.0763,0.0472 0.13867,0.20175 0.13867,0.34343 0,0.20937 -0.33079,0.32089 -1.76799,0.596 -2.23952,0.42871 -2.91645,0.32013 -4.07108,-0.65298 -0.73837,-0.6223 -0.93776,-0.34864 -0.23708,0.32536 0.37625,0.36192 0.938,0.69552 1.4748,0.87582 0.76137,0.25573 0.97219,0.26948 1.72939,0.11284 0.4743,-0.0981 1.11174,-0.17839 1.41656,-0.17839 0.49102,0 0.5542,0.0429 0.5542,0.3761 v 0.3761 l -0.71344,0.006 c -0.3924,0.004 -1.00789,0.0636 -1.36774,0.13317 -0.74268,0.14371 -2.03553,-0.0986 -2.63904,-0.49472 -0.46103,-0.30256 -0.53677,-0.30672 -0.53677,-0.0295 0,0.44177 0.6777,0.98335 1.502,1.20032 1.05091,0.27662 1.83276,0.28583 2.7787,0.0328 z m 22.20956,-2.53719 0.31696,-0.54743 -0.36242,-0.3864 c -0.6855,-0.73086 -0.8974,-0.40793 -0.66332,1.01086 0.11189,0.67837 0.28209,0.65987 0.70878,-0.077 z m 1.98373,-8.03669 c 0.14491,-0.96798 -0.29909,-2.76717 -0.936,-3.79275 -0.0536,-0.0862 -1.85382,1.21409 -1.85382,1.33903 0,0.0624 0.25345,0.44534 0.56324,0.85088 0.30979,0.40553 0.8581,1.12246 1.21846,1.59317 0.36037,0.47071 0.71132,0.82111 0.77987,0.77867 0.0686,-0.0425 0.17128,-0.38848 0.22825,-0.769 z m -14.35521,-2.96389 c 0.53697,-0.41471 1.02961,-0.79866 1.09476,-0.85321 0.0651,-0.0545 -0.40797,-0.71662 -1.05139,-1.47126 -1.57509,-1.84734 -2.59225,-3.51132 -3.76678,-6.16209 -1.0607,-2.39385 -1.73843,-3.72916 -2.94189,-5.79627 -1.68774,-2.89893 -1.91749,-3.26658 -2.04137,-3.26658 -0.15326,0 -0.25757,0.70656 -0.45857,3.10601 -0.2665,3.18161 0.11547,5.5368 1.17982,7.27441 0.17739,0.28959 1.42319,1.64356 2.76843,3.00881 2.32507,2.35964 3.86519,4.30079 3.86519,4.87162 0,0.31534 0.07,0.27851 1.3518,-0.71144 z m -26.53353,-23.84806 c -0.14294,-0.38327 -0.42627,-0.96593 -0.62965,-1.29481 -1.31696,-2.1297 -1.47133,-3.6554 -0.64901,-6.41431 0.33867,-1.13622 0.47584,-1.90225 0.47584,-2.65741 v -1.06101 l -0.71346,-0.4403 c -1.52503,-0.94113 -2.82349,-2.67094 -3.57944,-4.7685 l -0.32791,-0.90987 -0.50585,-0.043 c -0.66544,-0.0565 -1.33195,-0.32659 -1.33195,-0.53959 0,-0.0935 0.35486,-0.54898 0.78856,-1.0122 0.78972,-0.84344 0.95861,-1.12826 1.99838,-3.36974 0.30706,-0.66194 0.83278,-1.60971 1.16827,-2.10617 0.69124,-1.02289 2.49668,-2.9336 2.77196,-2.9336 0.42495,0 0.12032,0.59656 -0.73219,1.4339 -1.44306,1.41734 -2.61096,3.2152 -3.50428,5.39446 -0.13189,0.32179 -0.51457,0.98825 -0.8504,1.48102 -0.33582,0.49276 -0.57576,0.9308 -0.5332,0.97343 0.21713,0.21749 1.28792,-0.58031 1.96775,-1.46609 0.84929,-1.10657 1.06898,-1.33565 2.05303,-2.14072 1.45529,-1.19061 2.3696,-3.14724 2.49414,-5.3375 0.0781,-1.37476 0.33857,-1.96997 0.33857,-0.77386 0,0.97205 0.60137,1.58777 2.72386,2.78888 1.90827,1.07987 3.61991,2.49737 4.27971,3.54424 0.79877,1.26738 1.03212,2.17881 1.03212,4.03134 0,1.963 -0.20437,2.80883 -1.13594,4.70126 -0.31567,0.64125 -0.53689,1.16592 -0.4916,1.16592 0.22799,0 1.31442,-1.01446 1.72226,-1.60818 1.5207,-2.21382 1.73514,-5.27906 0.53892,-7.70351 -0.52505,-1.06417 -1.80418,-2.32834 -3.53536,-3.49406 -2.31174,-1.55668 -3.02798,-2.10948 -3.74461,-2.89016 -0.55012,-0.59929 -0.84392,-1.3039 -0.54371,-1.3039 0.0521,0 0.45925,0.36812 0.90488,0.81803 0.44563,0.44992 1.72892,1.43976 2.85176,2.19965 2.29754,1.55486 3.52419,2.68772 4.2257,3.9026 0.52426,0.90792 0.5841,0.78115 0.31528,-0.66792 -0.69113,-3.7256 -1.43647,-5.46418 -3.01288,-7.02787 -1.5906,-1.57774 -3.21969,-2.18956 -5.32077,-1.99825 -1.44417,0.13149 -1.51467,0.18735 -1.20739,0.95657 0.26358,0.65982 0.33647,1.81719 0.11445,1.81719 -0.0732,0 -0.17656,-0.28992 -0.22961,-0.64426 -0.12734,-0.85025 -0.58591,-1.58079 -1.06856,-1.70212 -1.78933,-0.44981 -4.67372,1.58245 -5.89247,4.15168 -1.41601,2.98504 -1.46545,5.90306 -0.19753,11.65915 0.67502,3.06451 0.9379,5.44698 0.87147,7.89814 -0.0721,2.66284 -0.21029,3.23836 -0.98256,4.09455 l -0.55302,0.61312 0.37526,-0.10964 c 1.41394,-0.41302 2.58877,-2.53904 2.60323,-4.71087 0.005,-0.71855 0.0576,-0.94026 0.22424,-0.94026 0.18034,0 0.20334,0.22721 0.13314,1.31636 -0.0789,1.22566 -0.41356,2.42808 -0.88685,3.18716 -0.14355,0.23022 -0.1216,0.41222 0.11304,0.93619 0.39213,0.87568 0.9026,1.43248 2.44453,2.66634 1.80909,1.44764 2.33878,2.13701 2.67232,3.47788 0.10627,0.42715 0.13915,0.24632 0.17419,-0.958 0.0327,-1.12216 -0.0202,-1.65466 -0.21668,-2.18139 z m 12.9615,-8.80628 c -0.16032,-1.36636 -0.65857,-2.41631 -1.69713,-3.5764 -0.9161,-1.02329 -1.13523,-1.49724 -0.79083,-1.71044 0.24832,-0.15371 1.57576,1.39509 2.13351,2.48932 0.28745,0.56396 0.58137,1.45546 0.69436,2.10618 0.10781,0.62057 0.22059,1.21293 0.25073,1.31635 0.0537,0.18471 0.81522,0.27525 0.81522,0.097 0,-0.46664 -0.91998,-3.36741 -1.30704,-4.12122 -0.10628,-0.20686 -0.19354,-0.42287 -0.19404,-0.48003 -5e-4,-0.0572 -0.26358,-0.66646 -0.58459,-1.35398 -0.32101,-0.68751 -0.81083,-1.83805 -1.08851,-2.55676 l -0.50487,-1.30673 -0.17667,1.40903 c -0.13417,1.07008 -0.3046,1.66911 -0.70852,2.49032 l -0.53184,1.08131 0.23118,0.54647 c 0.12723,0.30056 0.30795,1.33903 0.40175,2.30771 l 0.17057,1.76125 0.75694,0.139 c 0.41632,0.0765 1.08728,0.14705 1.49107,0.15688 l 0.73411,0.0179 z m -10.08443,-3.37231 c 1.84259,-1.1535 3.23815,-3.37885 3.58512,-5.71684 0.26495,-1.78538 -0.0115,-4.03016 -0.58982,-4.7902 -0.19956,-0.26225 -1.13286,-0.92409 -2.07956,-1.47472 -0.94462,-0.54942 -2.01866,-1.26446 -2.38672,-1.58896 l -0.66923,-0.59002 -0.0977,0.73779 c -0.16681,1.25942 -0.94897,2.74691 -2.11437,4.02107 -0.49699,0.54336 -0.56375,0.90299 -0.13721,0.73904 0.29213,-0.11232 0.999,0.17639 0.88488,0.36135 -0.0512,0.0829 -0.43943,0.15072 -0.86282,0.15072 -0.99672,0 -1.99062,0.46888 -2.18641,1.03146 -0.0793,0.22799 -0.39171,0.6477 -0.69412,0.93267 -0.65686,0.61898 -0.64694,0.71738 0.25704,2.5491 1.64705,3.33741 4.90261,5.00747 7.09093,3.63754 z m -2.04862,-0.91702 0.3546,-0.31347 h -0.40698 c -0.43385,0 -1.42869,-0.41333 -1.42869,-0.59358 0,-0.0594 0.33794,-0.32729 0.75099,-0.59536 0.57596,-0.37383 0.75099,-0.57637 0.75099,-0.86907 0,-0.33574 -0.0468,-0.36987 -0.38987,-0.28366 -0.22204,0.0558 -0.48065,0.0225 -0.60079,-0.0774 -0.28004,-0.23278 -0.26915,-0.95589 0.018,-1.19459 0.27762,-0.23078 0.49978,-0.0649 0.24921,0.18605 -0.20025,0.20057 -0.24178,0.71961 -0.0576,0.71961 0.066,0 0.19402,-0.074 0.28428,-0.16437 0.11866,-0.11885 0.25884,-0.11361 0.50631,0.0191 0.28397,0.15223 0.37204,0.14252 0.51778,-0.0571 0.10832,-0.14844 0.3572,-0.22774 0.64991,-0.2071 0.52601,0.0371 0.56142,0.30704 0.0502,0.38239 -0.24339,0.0358 -0.32618,0.15231 -0.32618,0.45872 0,0.32792 0.0997,0.44676 0.4952,0.59 0.27238,0.0986 0.6112,0.26456 0.75295,0.3687 l 0.25773,0.18936 -0.37569,0.40525 c -0.20664,0.2229 -0.49477,0.47286 -0.64029,0.55547 l -0.2646,0.15022 0.30039,0.22956 0.30041,0.22957 -0.77626,0.005 c -0.42695,0.003 -0.90008,0.0443 -1.05141,0.0926 -0.21424,0.0683 -0.19667,0.0184 0.0794,-0.22567 z m 1.47561,-0.84442 c 0.53374,-0.35027 0.41306,-0.51004 -0.21554,-0.28536 -0.30979,0.11079 -0.935,0.2067 -1.38936,0.21327 l -0.82609,0.0115 0.3755,0.22347 c 0.44738,0.26627 1.53226,0.18007 2.05549,-0.16332 z m -0.0801,-0.61146 c 0.32088,-0.19863 -0.0986,-0.37623 -0.67654,-0.28641 -0.90865,0.14124 -1.14863,0.22619 -1.14863,0.40657 0,0.15995 1.53606,0.0589 1.82517,-0.12013 z m -0.76252,-0.70425 c -0.006,-0.06 -0.0115,-0.24846 -0.0115,-0.41883 0,-0.17037 -0.0676,-0.26792 -0.1502,-0.21679 -0.20294,0.12563 -0.1925,0.86663 0.0115,0.79859 0.0887,-0.0297 0.15639,-0.10299 0.15019,-0.16297 z m 0.90737,-1.5969 c -0.009,-0.11501 -0.13571,-0.29901 -0.28028,-0.40893 -0.14456,-0.10989 -0.19526,-0.20096 -0.11265,-0.20233 0.31046,-0.005 0.5527,0.26455 0.48279,0.53748 -0.0398,0.15558 -0.0803,0.18878 -0.0899,0.0738 z m -4.97402,-1.79235 c -0.67755,-0.0993 -0.6952,-0.33041 -0.0252,-0.33041 0.65746,0 1.6674,-0.34209 1.84113,-0.62365 0.0613,-0.0994 0.13318,-0.10554 0.18838,-0.016 0.13913,0.22547 -0.5687,0.80383 -1.12611,0.92018 -0.27648,0.0577 -0.67165,0.0802 -0.87818,0.0499 z m 5.15971,-0.93116 c -0.67952,-0.27461 -0.50193,-0.42365 0.40652,-0.34115 0.77767,0.0706 0.97446,0.0351 1.35186,-0.24441 0.4721,-0.34961 0.60624,-0.20349 0.19309,0.21031 -0.48753,0.48831 -1.28991,0.64261 -1.95147,0.37525 z m -0.65372,-1.2716 c 0,-0.30172 0.37766,-0.47553 1.28396,-0.59091 0.55599,-0.0707 0.83647,-0.0374 1.0514,0.1255 l 0.29314,0.22205 -0.64823,0.005 c -0.35651,0.003 -0.76205,0.0631 -0.90119,0.13441 -0.55592,0.28486 -1.07908,0.33538 -1.07908,0.10414 z m 4.90434,8.37892 c 1.96436,-2.11628 2.0478,-6.84211 0.16272,-9.21449 l -0.29885,-0.37611 0.10027,0.52655 c 0.41891,2.19866 0.18629,4.62606 -0.61787,6.44734 l -0.3616,0.81895 0.15826,1.02172 c 0.0872,0.56195 0.15827,1.05953 0.15827,1.10574 0,0.2115 0.34949,0.0466 0.69875,-0.3297 z m 19.87464,-2.95712 0.52173,-0.18869 -0.50296,-0.10081 c -1.04211,-0.20876 -1.81718,-0.0844 -1.81718,0.29145 0,0.26655 1.05911,0.26537 1.79841,-0.003 z m -0.79396,-0.9507 c -0.11547,-0.11719 -0.38666,-0.15113 -0.74333,-0.0931 -0.81193,0.13197 -0.68985,0.33655 0.18182,0.3047 0.58546,-0.0214 0.70472,-0.0663 0.56151,-0.21155 z m 11.39906,-1.92688 c 1.09387,-2.06475 1.32602,-2.66322 1.71951,-4.43288 0.29549,-1.32903 0.39049,-3.23354 0.16815,-3.37118 -0.0704,-0.0436 -0.16827,-0.5602 -0.21747,-1.14803 -0.16582,-1.98109 -1.54992,-3.86521 -3.55972,-4.84571 l -0.97629,-0.4763 -3.6799,0.008 -3.6799,0.008 -0.82609,0.37727 c -0.90596,0.41371 -1.52637,0.96498 -1.87594,1.66681 -0.235,0.47183 -0.31206,1.4603 -0.11418,1.46505 1.93432,0.0464 6.32323,0.33566 6.89734,0.45457 2.25979,0.46811 4.03842,4.20398 3.33451,7.00391 -0.0933,0.37077 -0.14096,0.70271 -0.10614,0.73764 0.12632,0.12652 0.72616,-0.11476 0.72616,-0.29201 0,-0.47466 1.20984,-1.1397 1.59217,-0.87521 0.86121,0.59579 0.57435,3.09939 -0.44829,3.91237 -0.18255,0.14513 -0.37688,0.33791 -0.43185,0.42842 -0.14117,0.2324 0.17536,1.29431 0.36675,1.23042 0.0872,-0.029 0.58709,-0.86221 1.11115,-1.85142 z m 0.89883,-5.31988 c -0.0612,-0.0991 -0.0317,-0.51302 0.0658,-0.91958 0.13603,-0.56797 0.13594,-0.86396 -4.2e-4,-1.2778 -0.0976,-0.29623 -0.13268,-0.65429 -0.0779,-0.79567 l 0.0995,-0.25707 0.21458,0.29202 c 0.28498,0.38786 0.29388,2.47543 0.0127,2.86127 -0.14618,0.20022 -0.23328,0.22712 -0.31367,0.0968 z m -5.34176,-5.41122 c 0,-0.75711 1.34034,-1.67744 2.43477,-1.67184 0.87697,0.005 1.92103,0.48928 1.92103,0.89199 0,0.37179 -0.10793,0.38132 -0.74027,0.0654 -0.34516,-0.17247 -0.74993,-0.22373 -1.39663,-0.17688 l -0.91064,0.066 -0.50595,0.55298 c -0.56097,0.61311 -0.80231,0.69504 -0.80231,0.27239 z m -7.47082,11.73074 c 0.10104,-0.38674 -0.11342,-0.73274 -0.24356,-0.39306 -0.13628,0.35568 -0.11891,0.67729 0.0367,0.67729 0.0729,0 0.16607,-0.12793 0.20688,-0.28423 z m -0.78271,-4.60896 c 0.89755,-0.46488 0.24351,-1.17554 -1.0083,-1.09561 l -0.72644,0.0464 -0.0451,0.46257 c -0.035,0.3593 0.032,0.49976 0.30039,0.62919 0.49023,0.23642 0.96737,0.2227 1.47945,-0.0426 z m 26.3526,129.4694 c -0.57826,-0.14925 -1.69349,-0.41867 -2.4783,-0.59872 -0.78478,-0.18005 -1.79863,-0.42573 -2.25297,-0.54594 -0.99004,-0.26196 -4.25185,-1.07428 -5.40721,-1.34661 -0.99608,-0.23478 -2.58369,-0.63343 -3.30439,-0.8297 -0.73941,-0.20138 -2.32865,-0.59992 -3.30439,-0.82864 -0.85676,-0.20083 -3.36847,-0.83105 -4.80639,-1.20596 -0.45435,-0.11847 -0.96129,-0.24288 -1.12651,-0.27648 -0.2316,-0.0471 -0.2144,-0.0636 0.0751,-0.072 0.20653,-0.006 0.64586,0.0476 0.97629,0.1191 1.45783,0.3153 4.16581,0.92458 5.40719,1.2166 0.7435,0.17489 1.75734,0.41263 2.25299,0.52832 0.49568,0.11565 1.44192,0.34047 2.10281,0.49952 2.38313,0.57355 5.88355,1.40928 7.1345,1.70336 0.70217,0.16508 1.68222,0.3965 2.17789,0.51427 0.49565,0.11782 1.37432,0.31523 1.95259,0.43878 0.57827,0.12359 1.19642,0.25733 1.37368,0.29725 0.21301,0.048 0.35859,-0.0164 0.42932,-0.18963 0.0589,-0.1442 0.0949,-19.79316 0.0802,-43.66435 -0.0336,-54.26521 0.1239,-97.26548 0.35552,-97.03357 0.11866,0.11885 0.17648,19.88726 0.20745,70.8644 l 0.0429,70.69963 -0.41843,-0.009 c -0.23015,-0.005 -0.89158,-0.13122 -1.46985,-0.28047 z m -63.98509,-15.01044 c -2.46994,-0.58072 -5.33806,-1.29087 -5.63249,-1.39462 -0.20653,-0.0728 -0.87326,-0.28078 -1.48162,-0.46224 -1.07039,-0.31926 -2.0609,-0.74273 -1.74169,-0.74463 0.086,-5e-4 0.55904,0.10696 1.0514,0.23866 0.49237,0.13179 1.77388,0.46467 2.8478,0.73977 4.35804,1.11631 5.42409,1.40252 5.78269,1.55249 l 0.37551,0.15702 -0.45061,-0.008 c -0.24781,-0.004 -0.58578,-0.0397 -0.75099,-0.0786 z m 56.24981,-76.54403 c 0,-0.0413 0.0339,-0.0752 0.0751,-0.0752 0.0412,0 0.0751,0.0339 0.0751,0.0752 0,0.0413 -0.0339,0.0752 -0.0751,0.0752 -0.0412,0 -0.0751,-0.0339 -0.0751,-0.0752 z m 0,-1.42919 c 0,-0.11028 0.0451,-0.15545 0.10014,-0.1003 0.055,0.0551 0.055,0.14542 0,0.20059 -0.055,0.0551 -0.10014,0.0102 -0.10014,-0.1003 z m 0.008,-0.56415 c 0.0159,-0.5197 0.27926,-2.55649 0.58824,-4.55084 0.17306,-1.11701 0.38576,-2.57253 0.47268,-3.23447 0.0869,-0.66194 0.21989,-1.26784 0.29551,-1.34644 0.26889,-0.27954 0.14581,1.07283 -0.46482,5.10746 -0.32903,2.17395 -0.58579,3.97734 -0.59438,4.17473 -0.003,0.062 -0.0725,0.11284 -0.15512,0.11284 -0.0826,0 -0.14656,-0.11847 -0.14211,-0.26328 z m -6.51216,-2.89599 c -0.0529,-0.12409 -0.12505,-2.49355 -0.16027,-5.26542 -0.0353,-2.77187 -0.1216,-5.4121 -0.19201,-5.86719 -0.13699,-0.88589 -0.10167,-1.65485 0.0761,-1.65485 0.17182,0 0.51846,4.75596 0.57565,7.89814 0.0507,2.78503 -0.10602,5.34308 -0.29944,4.88932 z m 7.85586,-7.29637 c 0,-0.0413 0.0339,-0.0752 0.0751,-0.0752 0.0412,0 0.0751,0.0339 0.0751,0.0752 0,0.0413 -0.0339,0.0752 -0.0751,0.0752 -0.0413,0 -0.0751,-0.0339 -0.0751,-0.0752 z m 0.0115,-0.6143 c 0.008,-0.17526 0.0428,-0.2109 0.0907,-0.0908 0.0434,0.10861 0.038,0.23835 -0.0115,0.28833 -0.0499,0.05 -0.0855,-0.0389 -0.079,-0.19745 z m -17.84824,-24.50618 c -0.18587,-0.13521 -0.33797,-0.34355 -0.33797,-0.46298 0,-0.26835 0.1202,-0.26665 0.60081,0.009 0.48959,0.28033 1.18329,0.28082 1.85112,10e-4 0.61196,-0.25611 0.83511,-0.0931 0.40559,0.29616 -0.42105,0.38167 -2.06951,0.48435 -2.51955,0.15694 z m 2.90059,-1.21108 c -0.58865,-0.50704 -0.95356,-0.58015 -2.29029,-0.45883 -0.8934,0.0811 -1.11514,0.0617 -1.0641,-0.0933 0.12556,-0.38096 0.77882,-0.58482 1.71247,-0.53437 0.72552,0.0392 1.03556,0.13749 1.46243,0.4636 0.53133,0.40592 0.97145,1.00356 0.73877,1.00319 -0.0649,-9e-5 -0.31654,-0.17125 -0.55928,-0.38035 z"
       id="path34-1" /></g></svg>
