<?xml version="1.0" encoding="UTF-8" standalone="no"?>
<!-- Created with Inkscape (http://www.inkscape.org/) -->

<svg
   width="218.05672mm"
   height="158.70343mm"
   viewBox="0 0 218.05672 158.70343"
   version="1.1"
   id="svg1"
   xml:space="preserve"
   xmlns="http://www.w3.org/2000/svg"
   xmlns:svg="http://www.w3.org/2000/svg"><defs
     id="defs1" /><g
     id="layer1"
     transform="translate(-213.87789,-494.32305)"><path
       style="fill:#4d4d4d"
       d="m 249.57993,652.62958 c 0.86782,-0.49609 1.5875,-0.49609 1.5875,0 0,0.292 -0.29716,0.3944 -1.12448,0.3875 -1.10825,-0.009 -1.11493,-0.0148 -0.46302,-0.3875 z m 8.0698,0.13229 c 0.0899,-0.14552 0.5207,-0.26458 0.95727,-0.26458 0.46179,0 0.72536,0.11065 0.63023,0.26458 -0.0899,0.14552 -0.52071,0.26459 -0.95728,0.26459 -0.46179,0 -0.72536,-0.11066 -0.63022,-0.26459 z m 49.60937,-1.32291 c 0.44075,-0.87313 0.95345,-1.5875 1.13932,-1.5875 0.27285,0 1.7711,2.5789 1.7711,3.04857 0,0.0695 -0.83515,0.12643 -1.85589,0.12643 h -1.8559 z m -53.90149,-4.69102 c -0.19764,-1.6623 -0.42892,-2.61515 -0.65282,-2.6895 -0.1907,-0.0633 -0.64736,-0.4366 -1.0148,-0.82948 -0.36744,-0.39289 -1.16694,-0.96884 -1.77666,-1.2799 -0.60972,-0.31105 -1.84216,-1.22011 -2.73875,-2.02012 -0.89658,-0.80001 -1.79914,-1.45457 -2.00568,-1.45457 -0.20653,0 -0.69753,-0.32239 -1.0911,-0.71643 -0.63862,-0.63939 -6.27118,-4.57523 -6.54758,-4.57523 -0.061,0 -0.76228,-0.41672 -1.55848,-0.92604 -0.7962,-0.50933 -1.52466,-0.92605 -1.6188,-0.92605 -0.22849,0 -2.06768,-0.85928 -2.23571,-1.04454 -0.2713,-0.29913 -1.90811,-1.07212 -2.2702,-1.07212 -0.20648,0 -0.37543,-0.0904 -0.37543,-0.20094 0,-0.46491 -1.29819,-0.98619 -2.77812,-1.11553 -1.73001,-0.1512 -2.039,-0.48739 -0.79375,-0.86364 1.35621,-0.40978 2.08743,-0.83242 2.91041,-1.68217 0.94677,-0.97755 2.87096,-2.22314 3.43433,-2.22314 0.22117,0 0.40213,-0.10839 0.40213,-0.24086 0,-0.13248 0.7466,-0.71239 1.65911,-1.2887 1.29656,-0.81884 1.82552,-1.35885 2.42058,-2.47111 0.41881,-0.78281 1.25889,-2.13766 1.86685,-3.01079 0.60797,-0.87312 1.31545,-2.12293 1.57219,-2.77735 0.25674,-0.65442 0.54529,-1.24973 0.64122,-1.32292 0.0959,-0.0732 0.42828,-0.49621 0.73855,-0.94006 0.5119,-0.73228 0.53296,-0.90378 0.22751,-1.85209 -0.18514,-0.57479 -0.41358,-1.5695 -0.50765,-2.21047 -0.0941,-0.64096 -0.25501,-1.2958 -0.35766,-1.4552 -0.33117,-0.51429 -0.84424,-2.12655 -0.85001,-2.67107 -0.003,-0.29105 -0.17967,-0.86287 -0.39241,-1.27072 -0.21273,-0.40786 -0.46563,-1.78594 -0.56199,-3.06241 -0.14739,-1.95248 -0.0977,-2.48407 0.31279,-3.34922 0.2684,-0.56561 0.50167,-1.21159 0.51837,-1.43551 0.0167,-0.22393 0.0507,-0.67424 0.0756,-1.0007 0.0252,-0.33059 0.76249,-1.32202 1.66412,-2.23775 0.89037,-0.90431 1.90749,-2.10141 2.26025,-2.66023 0.35277,-0.55882 0.84467,-1.08794 1.09312,-1.17583 0.49776,-0.17607 2.01173,-1.67077 2.82299,-2.78704 0.28555,-0.39291 0.88086,-0.85797 1.32292,-1.03346 0.44205,-0.1755 0.85206,-0.35679 0.91113,-0.40288 0.0591,-0.0461 -0.45484,-0.79944 -1.14203,-1.67412 -1.77611,-2.26071 -0.91884,-2.01633 1.61428,0.46018 3.2558,3.18303 5.68286,5.21802 6.69639,5.61465 0.50932,0.19931 1.46182,0.74377 2.11667,1.20991 0.65484,0.46614 1.48828,0.93775 1.85208,1.04802 0.3638,0.11027 0.9775,0.42299 1.36376,0.69494 0.38627,0.27195 1.04111,0.49968 1.45521,0.50607 0.95201,0.0147 2.83397,0.67534 2.95459,1.03719 0.0503,0.15076 0.32432,0.27412 0.60903,0.27412 0.69551,0 2.36213,0.87064 2.98498,1.55934 0.27722,0.30653 0.7762,0.55732 1.10886,0.55732 0.33266,0 0.67843,0.11906 0.76836,0.26459 0.46454,0.75164 5.38979,-0.11015 6.39937,-1.11973 l 0.61632,-0.61632 -0.50699,-2.90229 c -0.27885,-1.59626 -0.58209,-3.31901 -0.67387,-3.82833 -0.35307,-1.95925 -0.67132,-4.19688 -0.94079,-6.61458 -0.15408,-1.38245 -0.38932,-2.75167 -0.52276,-3.04271 -0.33185,-0.72382 -0.53542,-2.58257 -0.70167,-6.4068 -0.15602,-3.5889 -0.16589,-3.56326 1.94695,-5.05605 0.46973,-0.33188 1.04521,-1.04366 1.27885,-1.58174 0.80283,-1.84903 1.16782,-2.56716 1.62907,-3.20528 l 0.46222,-0.63945 -0.78063,0.19593 c -0.42935,0.10776 -1.3798,0.47303 -2.1121,0.81173 -1.91831,0.88721 -2.52249,1.03581 -2.52003,0.6198 10e-4,-0.19171 0.26903,-0.48309 0.59531,-0.64751 0.32629,-0.16442 1.18856,-0.59985 1.91617,-0.96761 2.11058,-1.06678 3.09491,-1.43393 4.34887,-1.62207 0.64563,-0.0969 1.5386,-0.33359 1.98438,-0.52604 0.44577,-0.19246 1.34628,-0.56073 2.00112,-0.81839 2.33006,-0.9168 6.16211,-2.9022 6.87635,-3.56267 1.73954,-1.60857 3.13902,-2.83757 3.9864,-3.50079 0.50116,-0.39225 1.37745,-1.07955 1.9473,-1.52733 0.56985,-0.44778 1.34376,-0.88835 1.7198,-0.97904 0.77112,-0.18599 1.77399,-0.8426 3.00703,-1.96881 0.46052,-0.42061 0.92983,-0.76476 1.04292,-0.76476 0.57495,0 0.0379,0.84128 -1.44803,2.26826 -2.05197,1.97059 -2.7955,2.8607 -3.13456,3.75248 -0.50195,1.32024 0.21247,4.81305 1.39324,6.81155 0.84373,1.42805 1.19002,2.3549 1.54188,4.12681 l 0.34662,1.74555 1.74542,0.0529 c 3.32107,0.10061 7.57021,0.63484 13.65168,1.71639 1.16416,0.20703 3.00963,0.45272 4.10104,0.54597 1.9091,0.16312 4.38792,0.97778 6.21771,2.04345 1.28386,0.74773 2.33243,1.21783 3.09394,1.3871 0.39199,0.0871 1.1038,0.51562 1.58181,0.95222 0.47801,0.43659 1.08003,0.86075 1.33782,0.94257 0.2578,0.0818 0.46872,0.2598 0.46872,0.39552 0,0.13571 0.12707,0.24675 0.28238,0.24675 0.71328,0 5.45127,4.46292 8.71345,8.20758 0.80037,0.91874 1.78073,2.03749 2.17859,2.48612 0.39785,0.44862 0.72528,0.90497 0.7276,1.01411 0.002,0.10915 0.13179,0.19844 0.28771,0.19844 0.34163,0 1.03943,0.66354 1.03943,0.98839 0,0.12784 0.86321,1.1429 1.91823,2.25568 1.05503,1.11279 2.39448,2.55686 2.97657,3.20904 0.58208,0.65219 1.2041,1.19345 1.38226,1.2028 0.17817,0.009 0.51198,0.38065 0.74182,0.8251 0.45332,0.87662 1.93892,2.45252 3.1042,3.29286 0.4017,0.28969 0.80227,0.75329 0.89017,1.03022 0.0879,0.27694 1.02939,1.35357 2.09221,2.39252 l 1.93239,1.889 1.32728,-0.29893 c 0.73,-0.16441 1.60297,-0.4771 1.93993,-0.69486 0.33696,-0.21776 1.20796,-0.61599 1.93557,-0.88496 1.41269,-0.52222 6.21771,-3.5202 6.21771,-3.8794 0,-0.11823 0.2231,-0.21496 0.49578,-0.21496 0.27269,0 1.24645,-0.6698 2.16393,-1.48846 0.91748,-0.81865 2.03383,-1.64454 2.48078,-1.83531 0.44695,-0.19077 1.3988,-0.89018 2.11524,-1.55425 0.71643,-0.66407 1.39507,-1.20739 1.50809,-1.20739 0.11301,0 0.71747,-0.34395 1.34323,-0.76433 0.62575,-0.42038 1.85211,-1.14744 2.72524,-1.6157 0.87312,-0.46825 1.70656,-0.94011 1.85208,-1.04856 0.14552,-0.10846 0.91943,-0.4078 1.71979,-0.66521 0.80037,-0.25741 1.66196,-0.5727 1.91464,-0.70065 0.7418,-0.37561 7.03049,-0.26998 9.06557,0.15227 3.13159,0.64976 4.98062,1.11316 6.08542,1.52513 0.58208,0.21705 1.77271,0.60311 2.64583,0.85791 0.87313,0.25479 1.85477,0.56684 2.18142,0.69343 0.32666,0.1266 1.57681,0.3031 2.77813,0.39223 1.20131,0.0891 2.60092,0.27861 3.11024,0.42107 1.6085,0.44993 3.67001,1.5757 4.70673,2.57032 0.55047,0.52811 1.2347,1.15156 1.5205,1.38543 0.89108,0.72916 1.3837,1.46834 1.58286,2.37511 0.10556,0.48062 0.34797,1.0299 0.53868,1.22061 0.43169,0.43169 1.60977,4.12944 1.95222,6.12763 0.73696,4.30018 0.88287,5.31883 0.9529,6.65247 0.0597,1.13661 0.0349,1.25246 -0.1132,0.52917 -0.25269,-1.23409 -0.63856,-2.16459 -1.87212,-4.51451 -0.56812,-1.08228 -1.35703,-2.60328 -1.75312,-3.38 -0.48549,-0.95205 -1.0729,-1.63276 -1.8027,-2.08902 -0.59539,-0.37225 -1.17822,-0.83891 -1.29516,-1.03704 -0.11695,-0.19813 -0.71226,-0.6225 -1.32292,-0.94305 -1.74686,-0.91697 -5.20295,-0.84574 -7.98946,0.16465 -1.16416,0.42213 -2.43407,0.98837 -2.822,1.25832 -0.38794,0.26994 -1.04824,0.55938 -1.46735,0.64321 -0.4191,0.0838 -1.13251,0.4698 -1.58535,0.85773 -0.95814,0.82081 -1.41398,1.19351 -2.85742,2.33625 -0.5816,0.46044 -1.80826,1.56448 -2.72591,2.45342 -0.91764,0.88894 -2.1678,1.92886 -2.77812,2.31094 -1.15914,0.72565 -2.19336,1.5132 -3.42936,2.61144 -0.4027,0.35782 -0.92724,0.65057 -1.16565,0.65057 -0.35951,0 -1.98779,1.03914 -2.4678,1.5749 -0.31702,0.35384 -4.14717,2.13153 -4.59022,2.13046 -0.26905,-6.5e-4 -0.92389,0.18954 -1.45521,0.42266 -1.71307,0.75163 -1.9871,0.82989 -4.42843,1.26467 -2.99651,0.53366 -7.55368,0.55089 -10.16364,0.0384 -2.41426,-0.47404 -5.43744,-1.47575 -7.91397,-2.62224 -0.35087,-0.16244 -1.22524,-0.86088 -1.94305,-1.5521 -0.71781,-0.69123 -1.44399,-1.25678 -1.61373,-1.25678 -0.36299,0 -1.75841,-1.24337 -1.75841,-1.56681 0,-0.30472 -1.62681,-1.87277 -1.94296,-1.87277 -0.32897,0 -2.23486,-2.06084 -2.42055,-2.61734 -0.0781,-0.23395 -0.61807,-0.76164 -1.20001,-1.17265 -0.58194,-0.41101 -1.53718,-1.4528 -2.12276,-2.3151 -0.58558,-0.86231 -1.1745,-1.56782 -1.30871,-1.56782 -0.39834,0 -1.61252,-1.39047 -2.00887,-2.30054 -0.20249,-0.46493 -0.51812,-0.94118 -0.70142,-1.05834 -0.39741,-0.254 -1.92216,-1.99403 -2.84681,-3.24875 -1.06488,-1.44503 -2.63197,-3.26008 -3.46262,-4.01055 -0.42389,-0.38297 -0.77071,-0.8158 -0.77071,-0.96185 0,-0.32988 -3.36393,-3.50122 -3.71385,-3.50122 -0.14019,0 -0.26132,-0.14883 -0.26916,-0.33073 -0.0218,-0.50454 -2.93846,-2.47805 -5.21965,-3.53175 -1.11971,-0.51721 -2.09679,-1.02059 -2.17128,-1.11864 -0.0745,-0.098 -1.207,-0.53509 -2.51668,-0.97121 l -2.38125,-0.79295 -6.39681,0.0169 c -4.0545,0.0107 -6.52498,0.11889 -6.74687,0.29544 -0.19254,0.15319 -0.82422,0.36417 -1.40372,0.46884 -0.57951,0.10467 -1.52461,0.41785 -2.10022,0.69596 -0.57561,0.2781 -1.13457,0.50565 -1.24213,0.50565 -0.10756,0 -1.08758,0.41202 -2.17782,0.91561 -1.09023,0.50359 -2.28955,0.99275 -2.66515,1.08702 -0.3756,0.0943 -0.68291,0.27755 -0.68291,0.4073 0,0.12974 -0.17859,0.2359 -0.39687,0.2359 -0.21829,0 -0.39688,0.11821 -0.39688,0.26269 0,0.14448 -0.8632,0.90124 -1.91823,1.68168 -1.45916,1.0794 -2.00568,1.66556 -2.28364,2.44929 -0.20097,0.56666 -0.76652,1.58203 -1.25677,2.25637 -0.49025,0.67434 -0.89136,1.33131 -0.89136,1.45994 0,0.12862 -0.28002,0.64845 -0.62228,1.15517 -0.34225,0.50673 -0.70693,1.37899 -0.8104,1.93836 -0.10347,0.55937 -0.52501,1.69047 -0.93675,2.51354 -0.41175,0.82308 -0.82846,1.79416 -0.92602,2.15796 -0.0976,0.3638 -0.28572,0.89958 -0.41812,1.19062 -0.13239,0.29105 -0.51116,1.48167 -0.84171,2.64584 -0.54354,1.91437 -0.59953,2.66032 -0.5858,7.8052 0.0145,5.43143 0.16167,7.04058 1.14956,12.56771 0.13005,0.72761 0.55086,2.57308 0.93514,4.10104 0.96831,3.85022 1.45807,6.03477 1.63123,7.27605 0.18024,1.292 1.33505,4.34599 2.82532,7.47181 0.47382,0.99382 0.83085,2.45006 0.60069,2.45006 -0.14522,0 -2.60768,-5.01099 -3.27775,-6.67008 -0.15926,-0.39432 -0.36967,-1.34682 -0.46758,-2.11666 -0.0979,-0.76985 -0.2598,-1.51878 -0.35974,-1.6643 -0.18321,-0.26674 -0.42501,-1.06056 -1.2089,-3.96875 -0.82517,-3.06128 -1.23726,-4.82694 -1.94518,-8.33438 -0.77586,-3.84399 -1.08813,-13.8731 -0.54626,-17.54411 0.29951,-2.02915 0.9571,-4.38612 1.33916,-4.79995 0.12763,-0.13824 0.23206,-0.47301 0.23206,-0.74392 0,-0.27091 0.40105,-1.34842 0.89122,-2.39448 0.49017,-1.04605 1.09973,-2.43769 1.35459,-3.09253 0.25485,-0.65485 0.59645,-1.48829 0.75909,-1.85209 0.38625,-0.86394 2.34686,-3.81098 2.611,-3.92465 0.11271,-0.0485 0.20493,-0.36796 0.20493,-0.70989 0,-0.42373 0.4002,-0.94287 1.25677,-1.6303 0.69123,-0.55473 1.79255,-1.51388 2.4474,-2.13144 0.72965,-0.68813 1.54915,-1.1894 2.11666,-1.29473 0.50933,-0.0945 1.2237,-0.37819 1.5875,-0.63036 0.65154,-0.45159 3.57692,-1.84946 3.87046,-1.84946 0.0828,0 0.52579,-0.16859 0.98435,-0.37464 0.45855,-0.20605 1.25045,-0.44327 1.75978,-0.52714 2.66305,-0.43855 7.46862,-0.9937 8.86354,-1.02395 1.70182,-0.0369 5.69581,0.41311 8.06979,0.90924 1.36249,0.28474 6.85257,2.68783 7.14375,3.12693 0.0728,0.10972 0.41291,0.28713 0.75589,0.39425 0.7479,0.23358 1.36047,0.69915 2.88366,2.19166 0.63117,0.61847 1.2441,1.12448 1.36206,1.12448 0.33846,0 2.93589,2.68619 2.93589,3.03623 0,0.17313 0.48885,0.70765 1.08634,1.1878 0.59749,0.48015 1.42263,1.40327 1.83364,2.05138 0.68103,1.07386 1.79883,2.45151 3.76075,4.63497 0.40018,0.44538 0.7276,0.88271 0.7276,0.97186 0,0.0892 0.41444,0.63704 0.92097,1.21753 0.50653,0.58049 0.92325,1.12462 0.92604,1.20917 0.003,0.0846 0.29735,0.31014 0.65456,0.50132 0.35722,0.19118 0.8344,0.73726 1.0604,1.21352 0.226,0.47626 1.12435,1.4914 1.99634,2.25587 0.872,0.76447 1.58544,1.53303 1.58544,1.70791 0,0.17488 0.52563,0.77961 1.16806,1.34385 1.79879,1.57985 2.60928,2.3702 3.32986,3.24712 0.3638,0.44273 0.98963,0.9425 1.39072,1.11059 0.4011,0.16809 1.19076,0.76712 1.75481,1.33117 0.56405,0.56405 1.10145,1.02554 1.19423,1.02554 0.0928,0 0.61279,0.27812 1.1556,0.61805 0.95902,0.60056 3.71202,1.4704 6.67547,2.10919 1.80538,0.38916 8.0952,0.36783 10.05417,-0.0341 0.80037,-0.16421 2.16958,-0.49097 3.04271,-0.72612 0.87312,-0.23516 1.94469,-0.49392 2.38125,-0.57502 0.43656,-0.0811 1.21047,-0.40109 1.71979,-0.71108 0.50932,-0.30999 1.38056,-0.79837 1.93608,-1.08529 0.55551,-0.28692 1.21707,-0.71318 1.47011,-0.94726 0.25305,-0.23407 0.90568,-0.57265 1.45029,-0.75239 0.54461,-0.17974 1.66576,-0.91796 2.49143,-1.64048 0.82568,-0.72253 1.92079,-1.51279 2.43359,-1.75613 0.51279,-0.24333 1.17088,-0.69887 1.46241,-1.0123 1.12541,-1.20997 5.05509,-4.71497 6.2434,-5.56869 1.65503,-1.18902 6.41905,-3.53436 7.55306,-3.71838 0.4959,-0.0805 0.96531,-0.24933 1.04313,-0.37524 0.0778,-0.12591 1.31054,-0.22892 2.73939,-0.22892 2.73795,0 4.16696,0.37427 5.17607,1.35566 0.29104,0.28305 1.10556,0.95163 1.81005,1.48575 0.81016,0.61423 1.48252,1.41307 1.82955,2.17371 0.30176,0.66142 0.69939,1.38145 0.88361,1.60005 0.18422,0.21861 0.53099,0.75439 0.77062,1.19063 l 0.43567,0.79316 -0.17888,-1.32292 c -0.0984,-0.7276 -0.2862,-1.52345 -0.41736,-1.76854 -0.13116,-0.2451 -0.23847,-0.63335 -0.23847,-0.86278 0,-0.22944 -0.24779,-0.9814 -0.55065,-1.67104 -1.14563,-2.6087 -1.30143,-2.99881 -1.30143,-3.25859 0,-0.36404 -2.12511,-3.15467 -2.40233,-3.15467 -0.12215,0 -0.4948,-0.29237 -0.82811,-0.6497 -0.33331,-0.35733 -1.55852,-1.13072 -2.72269,-1.71864 -1.7321,-0.87474 -2.39023,-1.06916 -3.6224,-1.0701 -0.82816,-6.3e-4 -1.57933,0.11791 -1.66926,0.26344 -0.0899,0.14552 -0.36486,0.26531 -0.61093,0.26621 -0.24607,9e-4 -0.78844,0.17949 -1.20526,0.39687 -0.41681,0.21739 -0.92283,0.39525 -1.12447,0.39525 -0.20165,0 -0.36664,0.11757 -0.36664,0.26126 0,0.31268 -1.7154,1.42889 -2.64583,1.72164 -0.3638,0.11446 -0.95911,0.43412 -1.32292,0.71034 -0.3638,0.27621 -1.3163,0.96822 -2.11666,1.53779 -0.80037,0.56956 -1.58077,1.13051 -1.73424,1.24654 -0.49481,0.37412 -1.29789,0.87101 -1.70535,1.05515 -0.21828,0.0986 -0.93265,0.68985 -1.5875,1.3138 -0.65484,0.62395 -1.50408,1.20372 -1.8872,1.28838 -0.38312,0.0847 -1.16613,0.55585 -1.74003,1.04709 -1.07442,0.91966 -6.03708,4.10551 -6.39524,4.10551 -0.11053,0 -0.59052,0.34779 -1.06664,0.77287 -0.47612,0.42508 -1.53936,1.03425 -2.36276,1.35371 -0.82339,0.31947 -2.15193,0.8808 -2.95229,1.24741 -3.67421,1.68297 -4.51454,1.91767 -6.86588,1.91767 -2.11911,0 -5.4224,-0.93279 -7.21793,-2.03822 -0.54281,-0.33418 -1.22742,-0.60761 -1.52135,-0.60761 -0.29393,0 -0.53443,-0.11906 -0.53443,-0.26458 0,-0.14552 -0.14882,-0.26908 -0.33073,-0.27457 -0.1819,-0.005 -1.08916,-0.72022 -2.01613,-1.58829 -0.92697,-0.86806 -1.99505,-1.72677 -2.37351,-1.90824 -0.37845,-0.18147 -0.82599,-0.60659 -0.99452,-0.9447 -0.39835,-0.79921 -2.39668,-2.95712 -2.73842,-2.95712 -0.14539,0 -0.4337,-0.32749 -0.64069,-0.72776 -0.35601,-0.68846 -1.00296,-1.39339 -3.19181,-3.47793 -0.51884,-0.49412 -0.94354,-1.0299 -0.94378,-1.19062 -2.3e-4,-0.16073 -0.83367,-1.05823 -1.85208,-1.99446 -1.01841,-0.93622 -1.85166,-1.85085 -1.85166,-2.0325 0,-0.18165 -0.38695,-0.59766 -0.8599,-0.92445 -1.16829,-0.80728 -1.5972,-1.26829 -2.45394,-2.63764 -0.40255,-0.64342 -0.92203,-1.2812 -1.15439,-1.41731 -0.23237,-0.1361 -0.89965,-0.7794 -1.48285,-1.42954 -0.58321,-0.65015 -1.77475,-1.97634 -2.64788,-2.9471 -0.87312,-0.97075 -1.79469,-2.0241 -2.04793,-2.34076 -0.25324,-0.31667 -0.71111,-0.57576 -1.01749,-0.57576 -0.47003,0 -1.90779,-0.80218 -2.35854,-1.31591 -0.54755,-0.62407 -2.54431,-2.12367 -2.82772,-2.12367 -0.19317,0 -1.68979,-0.64167 -3.32581,-1.42592 -3.65412,-1.75166 -5.0222,-2.22456 -7.73709,-2.67447 -1.16417,-0.19293 -3.36682,-0.61387 -4.89479,-0.93544 -2.55146,-0.53696 -3.01559,-0.56008 -5.68854,-0.28335 -3.99768,0.41388 -4.94226,0.5529 -5.55625,0.81774 -0.29105,0.12553 -0.88636,0.30314 -1.32292,0.39468 -0.43656,0.0915 -1.27,0.26469 -1.85208,0.38476 -0.58209,0.12008 -1.68283,0.5304 -2.4461,0.91182 -0.76327,0.38143 -1.46827,0.69351 -1.56667,0.69351 -0.0984,0 -0.36687,0.16823 -0.59661,0.37385 -0.22974,0.20562 -1.28091,0.80577 -2.33594,1.33368 -1.05502,0.5279 -1.91823,1.07404 -1.91823,1.21364 0,0.13961 -0.12756,0.25383 -0.28348,0.25383 -0.15591,0 -0.44038,0.14883 -0.63214,0.33073 -0.19176,0.1819 -0.68283,0.56885 -1.09127,0.85989 -1.09576,0.78081 -5.03283,4.67828 -5.34544,5.29167 -0.14832,0.29104 -0.93531,1.3626 -1.74886,2.38125 -0.81356,1.01865 -1.47985,2.11295 -1.48066,2.43178 -8.2e-4,0.31883 -0.12054,0.65328 -0.26606,0.74322 -0.14552,0.0899 -0.26459,0.39462 -0.26459,0.67707 0,0.28246 -0.0982,0.51356 -0.21812,0.51356 -0.11997,0 -0.54266,0.74414 -0.93931,1.65364 -0.39666,0.90951 -0.89381,1.99072 -1.1048,2.40269 -0.21098,0.41198 -0.3836,0.95371 -0.3836,1.20386 0,0.25014 -0.1121,0.56791 -0.24911,0.70616 -0.22557,0.2276 -0.74047,2.78893 -1.75258,8.71802 -0.66144,3.87485 -0.7316,6.88892 -0.25249,10.84792 0.24655,2.03729 0.55694,3.81727 0.68977,3.95552 0.13282,0.13824 0.24149,0.63464 0.24149,1.10311 0,1.86695 1.78377,7.06281 3.44082,10.02262 0.24441,0.43656 0.52758,1.2374 0.62926,1.77964 0.10168,0.54224 0.56854,1.67333 1.03746,2.51354 1.13672,2.03675 1.54202,2.98286 1.2778,2.98286 -0.36903,0 -0.98472,-0.86449 -1.60171,-2.24896 -0.55604,-1.2477 -1.99669,-4.27233 -3.59167,-7.54063 -0.82138,-1.6831 -1.1581,-2.62393 -1.46775,-4.10104 -0.12202,-0.58208 -0.46534,-2.07036 -0.76293,-3.30729 -0.97246,-4.04196 -1.0596,-4.59467 -1.2098,-7.67292 -0.22172,-4.5442 0.63074,-11.62958 1.7349,-14.41979 0.11517,-0.29104 0.28398,-1.18401 0.37512,-1.98437 0.0912,-0.80037 0.37766,-1.93146 0.6367,-2.51354 1.20745,-2.71328 1.35389,-3.08391 1.35389,-3.42651 0,-0.20122 0.10099,-0.40554 0.22442,-0.45405 0.34974,-0.13744 1.62766,-2.56523 1.62766,-3.09223 0,-0.25944 0.41663,-0.93983 0.92584,-1.51196 0.5092,-0.57214 0.92592,-1.12105 0.92604,-1.21979 1.1e-4,-0.0987 0.14903,-0.33687 0.33093,-0.52917 0.1819,-0.19229 0.68319,-0.82588 1.11397,-1.40796 0.43079,-0.58208 1.17242,-1.47505 1.64807,-1.98437 0.47566,-0.50933 0.75572,-0.96325 0.62236,-1.00873 -0.31765,-0.10832 -1.10074,0.69944 -1.59451,1.64476 -0.21611,0.41373 -1.01978,1.28778 -1.78594,1.94233 -0.76616,0.65454 -1.39301,1.33086 -1.39301,1.50291 0,0.33623 -1.61572,2.00414 -1.94142,2.00414 -0.29533,0 -2.25927,2.12671 -2.41597,2.61619 -0.0751,0.23459 -0.46295,0.60861 -0.8619,0.83116 -0.70459,0.39306 -0.72296,0.46191 -0.64187,2.40512 0.10007,2.39762 -0.29842,4.06603 -1.09454,4.58277 -1.72104,1.11708 -6.5026,1.83146 -7.01072,1.04742 -0.55587,-0.8577 -3.07034,-0.38361 -5.08358,0.95848 -0.3638,0.24253 -1.3163,0.6669 -2.11667,0.94305 -0.80036,0.27615 -1.51474,0.57637 -1.5875,0.66716 -0.0728,0.0908 -0.63991,0.42243 -1.26034,0.73698 -0.62043,0.31455 -1.57293,1.04994 -2.11667,1.6342 -0.54373,0.58427 -1.37313,1.30361 -1.84311,1.59855 l -0.85449,0.53624 0.82247,1.6354 c 0.45237,0.89947 0.91217,1.69494 1.0218,1.7677 0.10962,0.0728 0.39661,0.71581 0.63775,1.42899 0.24114,0.71319 0.65499,1.60616 0.91966,1.98438 0.94849,1.35537 2.67293,5.28149 2.67293,6.08559 0,0.45088 0.0991,0.81979 0.2203,0.81979 0.22103,0 0.82842,2.44446 1.35169,5.43988 0.37035,2.1201 0.35573,6.03876 -0.0313,8.38222 -0.2396,1.45085 -0.23774,3.47537 0.008,8.78222 0.17569,3.7932 0.38933,7.75992 0.47476,8.81495 0.16931,2.09091 -0.16227,2.57207 -0.63817,0.92604 -0.77224,-2.67104 -0.92852,-5.12223 -1.02477,-16.07344 -0.055,-6.25739 -0.20849,-11.85333 -0.34108,-12.43541 -0.1326,-0.58209 -0.38112,-1.77271 -0.55226,-2.64584 -0.33579,-1.71309 -0.99643,-3.79808 -1.3459,-4.24768 -0.49897,-0.64194 -2.35619,-4.58956 -2.374,-5.04606 -0.0106,-0.27271 -0.24462,-0.85303 -0.51997,-1.28959 -0.741,-1.17487 -1.57736,-2.96286 -1.57736,-3.37215 0,-0.19716 -0.13456,-0.49303 -0.29902,-0.6575 -0.2223,-0.2223 0.20195,-0.8473 1.65365,-2.43612 1.07397,-1.1754 2.19079,-2.21297 2.48183,-2.3057 0.29104,-0.0927 1.12289,-0.56809 1.84855,-1.05637 0.72567,-0.48828 1.47142,-0.88778 1.65724,-0.88778 0.34196,0 0.55288,-0.0869 2.13805,-0.88128 0.48474,-0.2429 1.10279,-0.44164 1.37345,-0.44164 0.27066,0 0.56569,-0.11906 0.65563,-0.26458 0.0899,-0.14553 0.42438,-0.27725 0.74322,-0.29273 0.51965,-0.0252 0.50433,-0.0579 -0.14791,-0.31566 -0.40018,-0.15814 -0.7276,-0.38359 -0.7276,-0.50102 0,-0.11743 -0.14653,-0.21351 -0.32562,-0.21351 -0.17909,0 -0.95039,-0.25896 -1.71401,-0.57546 l -1.3884,-0.57546 -1.26255,1.05746 c -1.21006,1.0135 -2.79397,1.94554 -3.30625,1.94554 -0.13344,0 -0.79975,0.4592 -1.4807,1.02043 -1.52334,1.25553 -2.15677,1.52208 -1.97621,0.83161 0.1678,-0.64164 2.29175,-2.3862 3.71164,-3.04863 0.61679,-0.28776 1.12281,-0.6125 1.12448,-0.72164 0.002,-0.10914 0.15186,-0.20272 0.33376,-0.20795 0.1819,-0.005 0.66403,-0.28228 1.0714,-0.61567 l 0.74066,-0.60615 -1.13754,-0.32707 c -1.51317,-0.43507 -2.60674,-0.94795 -3.26865,-1.53299 -0.70207,-0.62054 -1.32631,-1.01197 -2.63139,-1.64999 -1.19839,-0.58586 -2.53853,-1.67366 -4.40244,-3.57351 -1.19513,-1.21818 -1.32071,-1.281 -1.91971,-0.96042 -0.79915,0.42769 -2.27681,1.76228 -2.27681,2.05637 0,0.33 -1.5896,2.19186 -1.87134,2.19186 -0.32489,0 -1.05196,0.74798 -1.67596,1.72416 -0.27752,0.43416 -0.74558,0.96798 -1.04013,1.18626 -1.01276,0.75053 -2.49474,2.38179 -2.62849,2.89324 -0.0796,0.30457 0.0231,0.57242 0.25347,0.66083 0.32083,0.12311 0.29307,0.2686 -0.16153,0.84652 -0.43143,0.54848 -0.54893,1.07721 -0.54893,2.47013 0,2.17513 0.42381,4.54276 1.07376,5.99852 0.26895,0.6024 0.57051,1.43584 0.67014,1.85208 0.0996,0.41624 0.27102,0.87587 0.38086,1.02139 0.10984,0.14552 0.26005,0.80036 0.3338,1.4552 0.14808,1.3147 0.74328,3.49722 1.01019,3.70417 0.0938,0.0728 0.2593,0.66807 0.36771,1.32292 0.1084,0.65484 0.27844,1.25015 0.37787,1.32291 0.27956,0.2046 1.27133,2.43995 2.02444,4.56293 0.67498,1.90273 1.02598,3.31805 1.329,5.35895 0.22814,1.53649 2.32694,7.75779 3.64035,10.79075 0.23845,0.55064 0.43354,1.34728 0.43354,1.77032 0,0.42304 0.11426,0.83977 0.25391,0.92608 0.13965,0.0863 0.45216,0.83747 0.69446,1.66926 0.24231,0.83179 0.54522,1.75046 0.67314,2.04151 0.3851,0.87621 0.75993,3.2855 0.75683,4.86475 -0.003,1.73 -0.25577,3.46962 -0.50337,3.46962 -0.0948,0 -0.3102,-1.15846 -0.47854,-2.57435 z m -2.72707,-6.09075 c -0.34603,-0.40019 -1.17046,-1.27041 -1.83206,-1.93384 -0.66161,-0.66343 -1.53817,-1.64915 -1.94792,-2.19048 -0.40974,-0.54133 -1.2191,-1.28353 -1.79857,-1.64933 -0.57947,-0.3658 -1.12853,-0.86837 -1.22012,-1.11682 -0.19067,-0.51718 -1.84061,-2.22848 -2.49749,-2.59037 -0.2422,-0.13343 -0.97934,-0.74862 -1.63811,-1.36708 -0.65876,-0.61846 -1.30923,-1.12448 -1.44548,-1.12448 -0.13625,0 -0.38308,-0.16309 -0.54852,-0.36243 -0.16543,-0.19933 -1.04321,-0.73183 -1.95062,-1.18333 -0.90741,-0.45149 -2.18562,-1.18086 -2.84047,-1.62081 -1.20641,-0.81052 -1.85208,-1.00415 -1.85208,-0.55543 0,0.13572 -0.21092,0.3137 -0.46872,0.39552 -0.25779,0.0818 -0.83884,0.48683 -1.29123,0.90002 -0.94171,0.86012 -1.0437,0.73444 1.75995,2.16882 0.94589,0.48392 2.03583,1.09705 2.42209,1.3625 0.38627,0.26545 0.88825,0.48264 1.11551,0.48264 0.55657,0 2.28323,0.83741 2.28323,1.10734 0,0.11857 0.14053,0.21558 0.31229,0.21558 0.38581,0 3.65646,2.11025 3.65646,2.35917 0,0.0992 0.39582,0.32349 0.87959,0.49842 0.48378,0.17494 1.52557,0.92161 2.31511,1.65927 0.78953,0.73766 1.85223,1.53667 2.36155,1.77557 1.00746,0.47256 1.5875,0.94921 1.5875,1.30454 0,0.12454 0.33063,0.42174 0.73473,0.66045 0.4041,0.23871 0.95834,0.6811 1.23163,0.98309 0.2733,0.30199 0.6778,0.54907 0.8989,0.54907 0.30453,0 0.24945,-0.1764 -0.22715,-0.7276 z m 1.51303,-0.52917 c -0.0666,-0.25466 -0.121,-0.0463 -0.121,0.46302 0,0.50932 0.0545,0.71768 0.121,0.46302 0.0666,-0.25466 0.0666,-0.67138 0,-0.92604 z m -0.98019,-2.45413 c 0.002,-0.51303 -0.3494,-1.64412 -0.78139,-2.51354 -0.432,-0.86942 -0.78919,-1.73121 -0.79375,-1.91509 -0.005,-0.18387 -0.11997,-0.54106 -0.25645,-0.79375 -0.44947,-0.83217 -1.55384,-4.13881 -1.83242,-5.48651 -0.1504,-0.7276 -0.40572,-1.91823 -0.56738,-2.64583 -0.16166,-0.72761 -0.39264,-1.79917 -0.5133,-2.38125 -0.12065,-0.58209 -0.47496,-1.83224 -0.78735,-2.77813 -1.23051,-3.72588 -1.3463,-4.11901 -1.36372,-4.63021 -0.01,-0.29104 -0.24619,-0.88635 -0.52505,-1.32291 -0.27886,-0.43657 -0.64645,-1.06164 -0.81688,-1.38907 -0.38392,-0.73759 -0.75409,-0.77006 -0.75409,-0.0661 0,0.29104 -0.0893,0.52992 -0.19844,0.53084 -0.29329,0.002 -1.12448,1.55438 -1.12448,2.09951 0,0.25894 -0.29629,0.90742 -0.65844,1.44107 -1.56459,2.30556 -1.56239,2.28446 -0.47761,4.57763 0.94252,1.99241 0.98134,2.19 1.08176,5.50616 0.0797,2.63191 0.20112,3.5483 0.51711,3.9026 0.22712,0.25466 0.54332,0.46492 0.70267,0.46725 0.39886,0.006 1.72711,1.24611 2.62757,2.45358 0.41122,0.55143 1.19625,1.29945 1.74451,1.66227 0.54826,0.36282 1.15676,0.98322 1.35223,1.37865 0.51205,1.03586 2.99225,3.41903 3.22647,3.10023 0.10691,-0.14552 0.1962,-0.68433 0.19843,-1.19736 z m -11.23984,-11.70107 c -0.10255,-1.20054 -0.29354,-2.29592 -0.42441,-2.43416 -0.13087,-0.13825 -0.23795,-0.51818 -0.23795,-0.84429 0,-0.32611 -0.11906,-0.66651 -0.26458,-0.75644 -0.14552,-0.0899 -0.26458,-0.32734 -0.26458,-0.52756 0,-0.20022 -0.12271,-0.68678 -0.27268,-1.08124 l -0.27268,-0.71719 -0.65336,0.6138 c -0.35935,0.33759 -0.65337,0.76353 -0.65337,0.94654 0,0.41068 -1.01415,1.14605 -3.00507,2.179 -0.90892,0.47158 -1.3968,0.86373 -1.21463,0.97632 0.16745,0.10349 1.54889,0.82621 3.06987,1.60605 1.52098,0.77984 3.02371,1.59882 3.33941,1.81994 0.3157,0.22112 0.67896,0.40204 0.80725,0.40204 0.13083,0 0.15137,-0.95846 0.0468,-2.18281 z m 141.08437,-19.02271 c 0.69331,-0.16689 1.8889,-0.58361 2.65686,-0.92604 0.76796,-0.34243 1.51372,-0.6226 1.65724,-0.6226 0.14351,0 0.46768,-0.10263 0.72037,-0.22805 0.25269,-0.12543 1.16439,-0.57192 2.02601,-0.99219 0.86162,-0.42028 1.99272,-1.10377 2.51354,-1.51887 0.52083,-0.41511 1.48274,-1.0032 2.13759,-1.30688 0.65484,-0.30368 1.55905,-0.82725 2.00935,-1.16349 0.45029,-0.33625 0.9018,-0.61136 1.00335,-0.61136 0.19843,0 0.31639,-0.0868 1.78473,-1.31371 0.52853,-0.44162 1.16211,-0.80295 1.40796,-0.80295 0.24584,0 0.60659,-0.14883 0.80165,-0.33073 0.90748,-0.84623 3.34501,-2.72885 4.17211,-3.22232 0.50518,-0.30139 1.56005,-1.03915 2.34415,-1.63946 1.3011,-0.9961 1.98617,-1.41862 4.71739,-2.90946 0.50077,-0.27334 1.15562,-0.71321 1.45521,-0.97747 0.50161,-0.44245 1.55611,-0.99574 2.5291,-1.327 0.21828,-0.0743 0.0397,-0.14732 -0.39688,-0.16223 -0.7456,-0.0255 -2.56827,-0.47859 -5.95312,-1.47996 -0.80037,-0.23677 -1.75287,-0.48916 -2.11667,-0.56087 -0.3638,-0.0717 -0.89958,-0.2329 -1.19062,-0.35822 -2.1462,-0.92414 -8.50369,-1.32013 -10.397,-0.6476 -4.29845,1.52687 -8.90736,4.08601 -11.49804,6.3844 -0.54612,0.4845 -1.1243,0.88092 -1.28484,0.88092 -0.30826,0 -2.20937,1.40747 -2.88158,2.13336 -0.21828,0.23571 -0.99219,0.7561 -1.71979,1.15643 -0.72761,0.40032 -1.62058,0.99154 -1.98438,1.31381 -0.98205,0.86995 -2.77711,1.96744 -3.52495,2.15514 -0.36154,0.0907 -1.46997,0.57384 -2.46318,1.07355 -1.00627,0.50628 -2.42334,0.98114 -3.20051,1.07248 -1.48597,0.17465 -1.76922,0.48346 -0.79938,0.87154 0.32742,0.13102 1.26487,0.87512 2.08321,1.65356 0.81835,0.77844 1.88991,1.6118 2.38125,1.8519 1.96306,0.95926 3.96898,1.79948 4.29607,1.79948 0.19005,0 0.43314,0.0893 0.54021,0.19844 0.26914,0.27436 2.72664,0.79421 3.92463,0.8302 0.54361,0.0163 1.55565,-0.10686 2.24896,-0.27375 z M 280.78638,585.35514 c 0.35589,-0.54343 1.45721,-1.76687 2.44739,-2.71878 0.99018,-0.9519 1.80033,-1.8511 1.80033,-1.99823 0,-0.14713 0.62508,-0.92413 1.38906,-1.72667 0.76399,-0.80255 1.75893,-1.86787 2.21098,-2.36739 0.45205,-0.49953 1.31032,-1.26541 1.90727,-1.70198 0.59695,-0.43656 1.57652,-1.24023 2.17684,-1.78593 0.60031,-0.54571 1.26511,-0.99219 1.47733,-0.99219 0.21222,0 0.52966,-0.11492 0.70542,-0.25538 0.17576,-0.14046 0.73628,-0.60001 1.2456,-1.02121 1.0721,-0.88661 4.49859,-2.77968 4.68816,-2.59011 0.3772,0.3772 -2.544,2.80837 -3.37443,2.80837 -0.14047,0 -0.2554,0.13042 -0.2554,0.28984 0,0.15941 0.68461,-0.10188 1.52136,-0.58064 2.67179,-1.52872 4.57093,-2.3901 5.57328,-2.52782 0.53633,-0.0737 1.21328,-0.22706 1.50432,-0.34082 3.3132,-1.29497 8.39471,-1.97676 11.91532,-1.59869 2.40261,0.25801 4.7587,0.67964 5.15031,0.92167 0.14631,0.0904 0.83124,0.26699 1.52207,0.39237 4.30223,0.78083 8.06761,2.19287 10.21482,3.83062 0.48442,0.36949 1.05407,0.6718 1.26589,0.6718 0.21183,0 0.51759,0.13246 0.67948,0.29435 0.16189,0.16189 0.45066,0.24224 0.64171,0.17856 0.19467,-0.0649 -0.29415,-0.52615 -1.11202,-1.04934 -0.80266,-0.51345 -1.79351,-1.24322 -2.20191,-1.6217 -0.40839,-0.37849 -1.17748,-0.82628 -1.7091,-0.99509 -0.53161,-0.16881 -1.85954,-0.744 -2.95094,-1.2782 -2.81737,-1.37898 -5.13417,-2.04971 -8.33438,-2.41286 -3.6206,-0.41085 -6.36647,-0.79419 -7.54062,-1.0527 -1.67034,-0.36776 -6.21416,-1.05018 -7.87136,-1.18218 -1.35883,-0.10823 -1.38909,-0.0951 -1.39053,0.60165 -0.004,1.8347 -1.36598,4.54876 -2.283,4.54876 -0.223,0 -0.36061,-0.0893 -0.30579,-0.19844 1.15189,-2.2933 1.30041,-2.89602 1.18938,-4.82673 -0.14007,-2.43559 -0.614,-4.39506 -1.29662,-5.36079 -0.8405,-1.1891 -1.49567,-3.6634 -1.71617,-6.48123 -0.0855,-1.0922 -0.0319,-1.65364 0.15776,-1.65364 0.15794,0 0.28716,-0.1786 0.28716,-0.39688 0,-0.21828 -0.11906,-0.39687 -0.26458,-0.39687 -0.14552,0 -0.2654,0.0893 -0.26639,0.19843 -0.001,0.10914 -0.44049,0.4961 -0.97665,0.8599 -0.53617,0.3638 -1.77485,1.46513 -2.75263,2.44739 -0.97779,0.98227 -1.96704,1.78594 -2.19835,1.78594 -0.23131,0 -0.42057,0.10782 -0.42057,0.23959 0,0.23153 -3.84336,2.21371 -5.90236,3.04409 -0.55417,0.22349 -1.60216,0.48522 -2.32888,0.58162 -0.72672,0.0964 -1.76148,0.32661 -2.29947,0.51156 -0.86688,0.29801 -1.00012,0.46485 -1.17107,1.46625 -0.1061,0.62149 -0.29999,1.19814 -0.43087,1.28145 -0.13087,0.0833 -0.31866,0.63456 -0.4173,1.22499 -0.17517,1.0486 -1.3505,2.76295 -1.89422,2.76295 -0.15014,0 -0.53349,0.35237 -0.8519,0.78304 -0.71595,0.96838 -0.77644,3.37656 -0.18361,7.30981 0.21742,1.44253 0.39602,3.309 0.39687,4.14772 8.6e-4,0.83872 0.11156,1.73169 0.24601,1.98438 0.263,0.49429 1.07847,5.42779 1.07847,6.52458 0,0.88643 0.49104,0.66908 1.30853,-0.57919 z m 60.0748,-9.70914 c 0,-0.26834 -2.28137,-2.43562 -2.7494,-2.6119 -0.44595,-0.16797 -0.46036,-0.13814 -0.13229,0.27401 0.20248,0.25437 0.71855,0.76311 1.14681,1.13053 0.42826,0.36742 0.90451,0.81234 1.05833,0.9887 0.27968,0.32066 0.67655,0.44893 0.67655,0.21866 z m -46.0375,-2.5237 c 0,-0.14552 -0.0525,-0.26458 -0.11667,-0.26458 -0.0642,0 -0.19026,0.11906 -0.2802,0.26458 -0.0899,0.14552 -0.0374,0.26459 0.11668,0.26459 0.1541,0 0.28019,-0.11907 0.28019,-0.26459 z m 2.22616,76.00004 c -0.40788,-0.27947 -0.90324,-1.84239 -0.90324,-2.84983 0,-0.89573 0.57297,-1.61581 1.05075,-1.32052 0.38815,0.23989 1.06592,1.92715 1.06592,2.65352 0,0.74869 -0.82656,1.78191 -1.21343,1.51683 z m 11.93493,-0.57528 c -0.30246,-0.95296 0.16175,-2.8983 0.95188,-3.98905 0.42059,-0.58061 0.8534,-1.03056 0.96181,-0.99989 0.1084,0.0307 0.48202,-0.10189 0.83026,-0.29459 1.01665,-0.56256 5.89076,-1.87873 6.95744,-1.87873 0.53742,0 1.05071,-0.11906 1.14065,-0.26458 0.0899,-0.14552 0.4204,-0.26459 0.73437,-0.26459 0.31397,0 1.05108,-0.16352 1.63803,-0.36339 0.58695,-0.19986 1.4839,-0.48117 1.99322,-0.62513 0.50933,-0.14396 1.64042,-0.46766 2.51355,-0.71933 0.87312,-0.25166 1.94468,-0.55857 2.38125,-0.68201 0.43656,-0.12345 1.56765,-0.36231 2.51354,-0.53082 2.48672,-0.44299 3.4468,-0.68207 6.87916,-1.71302 0.80037,-0.2404 1.75287,-0.49576 2.11667,-0.56746 0.3638,-0.0717 0.89958,-0.23351 1.19063,-0.35959 0.70085,-0.30359 2.82591,-0.78449 4.6302,-1.0478 0.80037,-0.11681 2.11006,-0.41353 2.91042,-0.65939 0.80037,-0.24587 1.87193,-0.54618 2.38125,-0.66736 1.74581,-0.41539 5.15935,-1.36932 5.68854,-1.58971 0.89775,-0.37386 3.09787,-0.87158 4.7625,-1.07739 1.35371,-0.16736 5.1912,-1.1407 6.48229,-1.64417 0.7099,-0.27682 4.84531,-1.28335 6.87917,-1.67433 3.33643,-0.64139 4.95406,-1.02979 8.73125,-2.09639 3.06298,-0.86492 5.47683,-1.41951 7.40833,-1.70209 0.80037,-0.1171 2.58631,-0.53028 3.96875,-0.91819 1.38245,-0.38791 3.16839,-0.8663 3.96875,-1.0631 0.80037,-0.19679 2.11006,-0.53486 2.91042,-0.75126 0.80037,-0.21639 2.34818,-0.53095 3.43958,-0.69901 1.09141,-0.16806 2.57969,-0.47187 3.3073,-0.67514 0.7276,-0.20327 2.33494,-0.62417 3.57187,-0.93533 1.23693,-0.31117 2.66568,-0.68502 3.175,-0.8308 0.50932,-0.14577 1.58089,-0.41178 2.38125,-0.59113 0.80037,-0.17934 1.6338,-0.39919 1.85208,-0.48855 0.21829,-0.0894 1.70657,-0.35825 3.3073,-0.59754 1.60072,-0.23929 3.14854,-0.53602 3.43958,-0.65939 1.00368,-0.42546 4.39112,-1.12137 4.57302,-0.93948 0.10029,0.10029 0.22648,1.47207 0.28044,3.0484 l 0.0981,2.86606 -0.88828,0.39376 c -2.59464,1.15018 -6.21812,1.59965 -6.84141,0.84863 -0.18115,-0.21828 -0.49339,-0.39688 -0.69385,-0.39688 -0.20046,0 -0.36448,-0.10338 -0.36448,-0.22974 0,-0.12636 -0.48549,-0.29487 -1.07887,-0.37446 -1.34028,-0.17977 -2.09613,-0.83535 -2.09613,-1.81806 0,-0.74766 -0.57751,-1.05209 -0.92604,-0.48816 -0.0899,0.14553 -0.42041,0.26459 -0.73437,0.26459 -0.31397,0 -1.05109,0.16434 -1.63804,0.36521 -3.12967,1.07105 -4.67633,1.48434 -6.10239,1.63065 -0.86865,0.0891 -1.81749,0.26371 -2.10853,0.38798 -0.29105,0.12426 -0.88636,0.28313 -1.32292,0.35304 -0.94203,0.15086 -4.5376,1.18836 -5.29167,1.52692 -0.29104,0.13067 -1.06495,0.34811 -1.71979,0.48321 -0.65484,0.13509 -1.905,0.42056 -2.77812,0.63436 -1.67868,0.41105 -3.96994,0.90077 -5.29167,1.13101 -0.43656,0.076 -1.03188,0.24323 -1.32292,0.37152 -0.29104,0.12829 -1.30307,0.429 -2.24896,0.66824 -0.94588,0.23924 -1.95791,0.52966 -2.24895,0.64538 -1.25556,0.49921 -3.92136,1.06289 -5.02668,1.06289 -0.65902,0 -1.40496,0.11857 -1.65764,0.26349 -0.45417,0.26046 -3.56094,1.17876 -5.35423,1.5826 -0.50932,0.1147 -1.64041,0.41014 -2.51354,0.65654 -2.10489,0.59401 -4.44109,1.0899 -6.17465,1.31065 -0.77668,0.0989 -1.61012,0.2887 -1.85208,0.42178 -0.38237,0.21029 -2.80563,0.86849 -5.86389,1.59274 -0.50933,0.12062 -2.05714,0.52911 -3.43959,0.90777 -1.38244,0.37865 -3.40651,0.81095 -4.49791,0.96066 -1.74994,0.24004 -2.85491,0.49735 -4.23334,0.9858 -0.40187,0.1424 -2.75552,0.73699 -3.96875,1.0026 -0.3638,0.0797 -0.89958,0.24783 -1.19062,0.37373 -0.75263,0.32558 -3.16812,0.83481 -5.02708,1.05981 -1.57361,0.19046 -5.86128,1.17857 -6.87917,1.58533 -0.94002,0.37564 -3.72189,1.05484 -4.32043,1.05484 -0.31985,0 -0.78829,0.11686 -1.04097,0.25969 -0.25269,0.14283 -1.76912,0.49238 -3.36985,0.77678 -1.60073,0.28439 -4.16057,0.80142 -5.68854,1.14895 l -2.77813,0.63187 -0.19413,1.54345 c -0.32216,2.5614 -1.71848,4.52415 -2.18124,3.0661 z m 120.64814,-29.27962 c 0.46247,-0.11607 0.68758,-0.50913 1.0425,-1.8203 0.24896,-0.91974 0.413,-1.90815 0.36453,-2.19646 -0.0864,-0.51388 -0.12718,-0.51145 -2.07251,0.12352 -1.0914,0.35625 -2.72851,0.7152 -3.63802,0.79768 -0.9095,0.0825 -1.65364,0.25271 -1.65364,0.37831 0,0.1256 -0.27989,0.22836 -0.62198,0.22836 -0.92521,0 -2.28844,0.53554 -2.28844,0.89901 0,0.49432 0.57734,0.95307 1.19945,0.95307 0.31044,0 0.65236,0.0893 0.75982,0.19844 0.58436,0.59352 2.02211,0.84641 4.09782,0.7208 1.22134,-0.0739 2.48606,-0.201 2.81047,-0.28243 z m -131.73037,25.38864 c -0.85244,-0.91931 -1.36396,-1.89937 -1.11913,-2.1442 0.10815,-0.10814 0.30261,-0.019 0.43215,0.19804 0.12953,0.21707 0.54407,0.90069 0.92119,1.51915 0.78396,1.28566 0.70145,1.43609 -0.23421,0.42701 z m -1.22677,-0.3257 c 0,-0.25736 -1.82938,-1.54392 -3.04271,-2.13987 -1.71207,-0.84091 -4.2921,-2.91345 -7.42571,-5.96508 -1.046,-1.01865 -2.82001,-2.68552 -3.94222,-3.70417 -3.6094,-3.27629 -8.24273,-8.38416 -8.9401,-9.85573 -0.15517,-0.32742 -0.38207,-0.59531 -0.50423,-0.59531 -0.12216,0 -0.22212,-0.12409 -0.22212,-0.27575 0,-0.28136 -0.24721,-0.62291 -1.19805,-1.65522 -0.73637,-0.79947 -1.44778,-2.37298 -1.44778,-3.20225 0,-0.37819 -0.10289,-0.68762 -0.22864,-0.68762 -0.29096,0 -1.09428,-2.08302 -1.09428,-2.8375 0,-0.31397 -0.0975,-0.63109 -0.21659,-0.70471 -0.11913,-0.0736 -0.42428,-1.30104 -0.67811,-2.72759 -0.25384,-1.42656 -0.56744,-3.12952 -0.6969,-3.78436 -0.21527,-1.08893 -0.38759,-5.50217 -0.29763,-7.62239 0.0711,-1.67561 0.52017,-0.56251 0.70054,1.7364 0.31447,4.00815 1.28443,9.71437 2.12488,12.50057 0.24142,0.80037 0.50271,1.75287 0.58064,2.11667 0.0779,0.3638 0.23102,0.78052 0.34021,0.92604 0.10919,0.14552 0.28127,0.65154 0.38239,1.12448 0.10113,0.47294 0.26441,0.85989 0.36284,0.85989 0.0984,0 0.32472,0.32743 0.50284,0.72761 0.17813,0.40018 0.60896,1.0337 0.9574,1.40782 0.34844,0.37411 0.96522,1.20755 1.37064,1.85208 1.26701,2.01432 2.49712,3.39653 7.15728,8.04229 5.38024,5.36362 8.94848,8.75953 10.15653,9.66604 0.48482,0.3638 1.16644,0.92935 1.51471,1.25677 0.34827,0.32742 0.71869,0.59531 0.82316,0.59531 0.46114,0 2.96101,1.90465 2.96101,2.25599 0,0.21441 0.11906,0.38984 0.26458,0.38984 0.14552,0 0.26458,0.11907 0.26458,0.26459 0,0.14552 -0.11906,0.26458 -0.26458,0.26458 -0.14552,0 -0.26458,-0.10324 -0.26458,-0.22942 z m -36.35096,-15.93207 c -0.0662,-0.20623 -0.24558,-1.14887 -0.39858,-2.09476 -0.15299,-0.94588 -0.46,-2.73182 -0.68223,-3.96875 -0.22223,-1.23693 -0.40397,-2.58421 -0.40385,-2.99396 1.1e-4,-0.40974 -0.1239,-0.97687 -0.27557,-1.26027 -0.18259,-0.34119 -0.18808,-0.67053 -0.0163,-0.9748 0.2241,-0.39678 0.31187,-0.3331 0.64304,0.46653 0.21094,0.50932 0.46984,1.46182 0.57534,2.11667 0.10549,0.65484 0.2833,1.30969 0.39512,1.45521 0.53282,0.69339 1.01158,6.90089 0.56656,7.34592 -0.2012,0.2012 -0.31805,0.17462 -0.40358,-0.0918 z m -13.65529,-21.5699 c 0,-0.0883 0.4681,-0.74847 1.04022,-1.46703 0.57212,-0.71855 1.08528,-1.44163 1.14035,-1.60683 0.0556,-0.16689 0.30294,-0.22254 0.55653,-0.12523 0.4244,0.16286 0.4266,0.23278 0.0313,0.99728 -0.63312,1.22431 -1.73291,2.36237 -2.28293,2.36237 -0.26699,0 -0.48543,-0.0723 -0.48543,-0.16056 z m -32.76903,-1.53844 c 0.0511,-0.24931 0.80736,-0.84093 1.68049,-1.31471 0.87312,-0.47379 1.96117,-1.20992 2.41789,-1.63584 1.16849,-1.08971 1.62532,-1.43587 1.8949,-1.43587 0.12875,0 0.46022,-0.44648 0.7366,-0.99219 0.27638,-0.5457 0.89044,-1.54392 1.36458,-2.21826 0.47414,-0.67434 0.86207,-1.30233 0.86207,-1.39554 0,-0.0932 0.47625,-0.92357 1.05833,-1.84523 0.58208,-0.92166 1.05833,-1.86564 1.05833,-2.09773 0,-0.4385 0.53799,-1.80345 0.80184,-2.03438 0.0831,-0.0728 0.48584,-0.78714 0.89489,-1.5875 0.40906,-0.80037 0.90901,-1.64318 1.11101,-1.87292 0.20199,-0.22974 0.36726,-0.55716 0.36726,-0.7276 0,-0.17045 0.11907,-0.3099 0.26459,-0.3099 0.14552,0 0.26503,-0.32742 0.26557,-0.7276 5.4e-4,-0.40018 0.26393,-1.14433 0.58531,-1.65365 1.34975,-2.13909 1.98905,-3.63132 1.74362,-4.06987 -0.13387,-0.23921 -0.20096,-1.89189 -0.14909,-3.67263 0.10043,-3.44807 0.48854,-5.23025 1.63688,-7.51655 0.37412,-0.74484 0.68394,-1.45603 0.68851,-1.58041 0.005,-0.12439 0.36176,-0.93751 0.79375,-1.80693 0.432,-0.86942 0.78545,-1.71244 0.78545,-1.87338 0,-0.16095 0.29716,-0.87835 0.66035,-1.59424 0.36319,-0.71589 0.66085,-1.569 0.66146,-1.89581 6.1e-4,-0.3268 0.41782,-1.49636 0.92715,-2.59901 0.50932,-1.10265 0.92604,-2.06137 0.92604,-2.13049 0,-0.0691 0.40225,-0.7545 0.89389,-1.52306 0.49164,-0.76855 0.97302,-1.64669 1.06974,-1.95142 0.55713,-1.75539 3.62887,-3.49839 6.1723,-3.50236 0.92432,-10e-4 1.65365,-0.11928 1.65365,-0.26717 0,-0.14552 0.35719,-0.26458 0.79375,-0.26458 0.83536,0 1.85208,-0.79029 1.85208,-1.4396 0,-0.20969 0.10533,-0.44635 0.23406,-0.52591 0.12873,-0.0796 0.31824,-0.70609 0.42115,-1.39229 0.10443,-0.6964 0.54455,-1.77914 0.99615,-2.45064 0.75857,-1.12794 1.06268,-1.45112 2.62589,-2.79046 1.92482,-1.64917 4.69674,-3.30735 5.52875,-3.30735 0.92821,0 2.58683,-0.57193 2.99518,-1.03279 0.61457,-0.6936 1.41052,-2.25309 1.60735,-3.14926 0.10135,-0.46143 0.29417,-0.90689 0.4285,-0.98991 0.13432,-0.083 0.24422,-0.38204 0.24422,-0.66449 0,-0.28246 0.0956,-0.51355 0.21232,-0.51355 0.11677,0 0.43681,-0.6243 0.71119,-1.38733 0.53909,-1.49914 0.63126,-1.6438 1.91391,-3.00379 0.46917,-0.49746 1.15174,-1.55752 1.51683,-2.35568 0.36509,-0.79816 1.20193,-2.19076 1.85966,-3.09467 0.81485,-1.11985 1.14518,-1.80314 1.03679,-2.14465 -0.0875,-0.27565 -0.15628,-1.68253 -0.15286,-3.1264 0.006,-2.47345 0.45855,-4.59482 1.14798,-5.37946 0.12147,-0.13825 0.22085,-0.5145 0.22085,-0.83611 0,-1.13769 4.2048,-4.9822 5.92203,-5.4146 0.75637,-0.19046 1.63094,-0.73519 2.57286,-1.60251 l 1.42699,-1.31398 -0.89764,-0.81082 -0.89764,-0.81083 -0.35048,0.83355 c -0.446,1.06072 -1.75801,2.18598 -2.98517,2.56028 -1.41547,0.43174 -2.443,0.006 -4.24738,-1.76171 -0.38008,-0.37225 -0.90729,-0.75981 -1.17159,-0.86123 -0.26431,-0.10142 -0.54267,-0.42192 -0.61858,-0.71223 -0.0759,-0.29031 -0.2986,-0.52783 -0.49484,-0.52783 -0.19625,0 -0.75967,-0.35371 -1.25204,-0.78603 -0.80964,-0.71087 -1.02007,-0.77124 -2.20082,-0.63139 -1.42429,0.16868 -2.16489,-0.28534 -1.84124,-1.12877 0.15234,-0.39699 0.21637,-0.39195 0.71132,0.056 0.51895,0.46963 0.58042,0.47129 1.33885,0.036 1.08907,-0.62504 1.28242,-0.58549 2.31055,0.47264 0.49338,0.50777 1.01792,0.92322 1.16565,0.92322 0.14773,0 0.65209,-0.2925 1.12081,-0.65001 0.75499,-0.57586 1.18338,-0.63597 1.18149,-0.16579 -3.4e-4,0.0849 -0.35251,0.56607 -0.78259,1.06929 l -0.78196,0.91495 0.75604,0.31789 c 0.41583,0.17484 0.85729,0.48993 0.98103,0.7002 0.33455,0.5685 2.38247,1.78222 3.00715,1.78222 1.051,0 3.17095,-1.63974 3.17095,-2.45267 0,-0.72092 0.9633,-1.98251 1.87294,-2.4529 0.99228,-0.51313 0.98422,-0.11603 -0.0209,1.02869 -0.9282,1.05716 -0.96952,1.23105 -0.29256,1.23105 0.81127,0 2.14224,1.40726 1.96651,2.07924 -0.19718,0.75404 -2.85364,3.1664 -3.72862,3.38601 -1.18964,0.29857 -1.96349,0.81202 -3.9314,2.60844 -1.63555,1.49303 -1.97764,1.96205 -2.37162,3.25164 -0.25321,0.82883 -0.54545,1.62602 -0.64942,1.77154 -0.23145,0.32397 -0.50129,3.01859 -0.56963,5.68855 -0.0451,1.76308 -0.15319,2.14665 -0.96895,3.43958 -0.50499,0.80036 -1.00538,1.51474 -1.11198,1.5875 -0.10659,0.0728 -0.3256,0.62276 -0.48667,1.22223 -0.29307,1.09068 -1.10036,2.34303 -1.88391,2.92249 -0.22926,0.16955 -0.64927,0.79326 -0.93336,1.38603 -0.28408,0.59277 -0.60581,1.07913 -0.71495,1.0808 -0.10914,0.002 -0.19844,0.1934 -0.19844,0.42607 0,0.8417 -2.5628,6.17346 -2.99759,6.23631 -0.17033,0.0246 0.6428,0.13173 1.80697,0.23801 3.89941,0.35601 5.84459,0.96838 7.36388,2.31826 0.45039,0.40016 0.50543,0.39357 0.77719,-0.093 0.16087,-0.28801 0.98454,-1.2097 1.83039,-2.04819 0.84585,-0.83849 1.53806,-1.61239 1.53824,-1.71979 6.4e-4,-0.39027 1.20528,-1.57946 1.78561,-1.76272 0.46176,-0.14582 0.59531,-0.3872 0.59531,-1.0759 0,-0.5611 0.24347,-1.17726 0.66146,-1.67402 0.88974,-1.05739 0.86489,-1.97372 -0.0661,-2.43952 -0.40019,-0.20022 -0.93597,-0.53645 -1.19063,-0.74718 -0.41557,-0.34388 -0.46302,-0.32631 -0.46302,0.17141 0,0.30501 -0.11906,0.62815 -0.26458,0.71808 -0.14552,0.0899 -0.26459,0.48514 -0.26459,0.87822 0,0.39572 -0.29521,1.03306 -0.66145,1.42804 -0.36381,0.39235 -0.66146,0.78603 -0.66146,0.87485 0,0.58904 -4.1794,5.15327 -4.71878,5.15327 -0.57697,0 -0.31053,-0.68248 0.68388,-1.75171 0.5457,-0.58676 1.163,-1.38864 1.37176,-1.78195 0.20876,-0.39331 0.96335,-1.43957 1.67685,-2.32503 0.74306,-0.92212 1.4623,-2.16557 1.68353,-2.91053 0.3862,-1.30047 0.38613,-1.30084 -0.61852,-3.3433 -0.93871,-1.9084 -1.00458,-2.19924 -1.002,-4.42394 0.002,-1.30969 0.0962,-2.82773 0.21042,-3.37344 0.38217,-1.82593 0.71265,-1.04143 0.72447,1.7198 0.008,1.78799 0.15094,3.07255 0.42054,3.77031 0.22491,0.58208 0.54631,1.53458 0.71423,2.11666 0.16792,0.58209 0.54423,1.30483 0.83624,1.60609 1.09474,1.12945 2.77988,1.8472 2.77988,1.18403 0,-0.30621 1.54092,-0.62237 2.41273,-0.49503 0.54992,0.0803 0.47174,0.17252 -0.61525,0.72554 -0.86258,0.43884 -1.33008,0.87693 -1.52136,1.42562 -0.37707,1.08166 -0.3678,1.11559 0.40026,1.46554 0.77804,0.3545 0.63393,0.83509 -0.25041,0.83509 -0.70187,0 -1.17029,0.77596 -1.27777,2.11667 -0.0595,0.74219 -0.18621,0.92774 -0.6382,0.93462 -0.54255,0.008 -1.94959,1.38614 -1.94959,1.90921 0,0.32971 -0.88409,1.23845 -2.60541,2.67806 -1.33201,1.11401 -1.36786,1.17867 -0.98102,1.76906 0.22083,0.33703 0.65456,1.06687 0.96383,1.62185 1.12674,2.02188 1.40634,2.05843 1.68206,0.21983 0.0984,-0.65594 0.45108,-1.52061 0.78381,-1.92148 0.47303,-0.56991 0.57756,-0.95442 0.47929,-1.76312 -0.19738,-1.62417 1.40718,-4.42385 2.12437,-3.70666 0.15339,0.15339 -0.36118,1.65781 -0.88301,2.58159 -0.15115,0.26758 -0.28161,0.97902 -0.28992,1.58098 -0.01,0.72747 -0.22617,1.37119 -0.64455,1.91972 -0.3462,0.45388 -0.62945,1.07414 -0.62945,1.37836 0,0.30421 -0.12517,0.88234 -0.27815,1.28472 -0.20366,0.53567 -0.18595,1.04459 0.0661,1.90017 l 0.34431,1.16855 0.16989,-0.89075 c 0.0934,-0.48992 0.31961,-1.30747 0.50259,-1.8168 0.18298,-0.50932 0.41724,-1.16416 0.52057,-1.45521 0.31193,-0.87858 1.0605,-4.201 1.05813,-4.69635 -10e-4,-0.25466 0.11684,-0.46302 0.26236,-0.46302 0.14552,0 0.26519,-0.32742 0.26594,-0.7276 7.4e-4,-0.40019 0.29021,-1.20386 0.64326,-1.78594 0.5541,-0.91356 0.66821,-0.9902 0.83415,-0.56027 0.10573,0.27394 0.0668,0.699 -0.0866,0.94457 -0.41193,0.6596 -1.12759,3.62213 -1.12759,4.66774 0,0.49954 -0.10424,1.11501 -0.23165,1.36769 -0.12742,0.25269 -0.45246,1.17381 -0.72233,2.04693 -0.26987,0.87313 -0.77473,2.18106 -1.12191,2.90651 -0.52638,1.09989 -0.58485,1.45151 -0.35199,2.11666 0.15359,0.43872 0.36026,1.24968 0.45927,1.80213 0.16619,0.92723 0.21479,0.973 0.63213,0.59531 0.24866,-0.22503 0.53413,-0.40915 0.63439,-0.40915 0.10025,0 0.58085,-0.41042 1.068,-0.91205 0.48715,-0.50163 1.18631,-0.9875 1.5537,-1.07971 0.63006,-0.15813 1.7815,-1.22009 1.78716,-1.64827 0.001,-0.10803 0.49182,-0.61314 1.08976,-1.12247 0.59794,-0.50932 2.01074,-1.84877 3.13956,-2.97656 1.12883,-1.12779 2.23714,-2.05052 2.46292,-2.05052 0.22578,0 0.6275,-0.27152 0.89273,-0.60339 0.26522,-0.33186 0.95838,-0.95693 1.54034,-1.38906 2.19114,-1.62697 2.17569,-1.59437 1.37553,-2.90234 -2.01634,-3.29598 -2.35194,-4.36141 -2.32229,-7.37265 0.0174,-1.77051 0.003,-1.81116 -0.57591,-1.60923 -0.32658,0.11394 -1.69511,0.25488 -3.04118,0.3132 -1.34606,0.0583 -2.44739,0.20234 -2.44739,0.32006 0,0.53925 0.77495,0.78529 2.01201,0.63878 0.9973,-0.11812 1.39361,-0.0582 1.64874,0.24919 0.39517,0.47615 0.16028,0.57693 -1.9747,0.8473 -1.25491,0.15891 -1.42623,0.11071 -2.28439,-0.64276 l -0.92773,-0.81456 -0.36779,0.59575 c -0.20228,0.32766 -0.53388,0.92317 -0.73688,1.32336 -0.38405,0.75708 -1.07343,0.99342 -1.07343,0.36801 0,-0.19777 0.35281,-1.05903 0.78402,-1.91391 l 0.78401,-1.55432 -0.5982,-0.66578 c -1.30675,-1.45434 -1.36944,-1.83372 -1.32466,-8.01573 0.0231,-3.19214 0.12306,-6.23572 0.22207,-6.7635 l 0.18002,-0.9596 0.36454,0.65736 c 0.29033,0.52353 0.33468,1.73712 0.21784,5.96093 -0.16239,5.87065 0.0826,7.37504 1.41854,8.71099 0.57233,0.57234 0.92448,0.67459 2.41967,0.70265 5.58935,0.10486 5.56254,0.12661 5.58383,-4.53075 0.008,-1.81901 0.12412,-3.77738 0.25735,-4.35194 0.20929,-0.90255 0.17094,-1.0946 -0.28192,-1.41179 -0.70171,-0.4915 -1.88412,-2.39327 -1.68665,-2.71278 0.26535,-0.42935 0.87524,-0.28327 1.04455,0.25018 0.0881,0.27771 0.51098,0.90278 0.93965,1.38906 l 0.77939,0.88414 0.004,7.98804 c 0.003,5.03529 0.10203,8.04847 0.26881,8.15155 0.14552,0.0899 0.26459,0.36314 0.26459,0.60713 0,0.35454 1.1385,2.95684 1.52523,3.48625 0.17123,0.2344 0.58333,-0.65291 0.58738,-1.26473 0.002,-0.33915 0.12175,-0.53818 0.26864,-0.4474 0.53022,0.32769 0.27829,2.0135 -0.44839,3.00043 -0.77401,1.05121 -4.39937,4.27561 -4.8073,4.27561 -0.13806,0 -1.01521,0.8254 -1.94922,1.83422 -0.93401,1.00881 -2.28461,2.29847 -3.00133,2.86589 -0.71673,0.56743 -1.4738,1.35259 -1.6824,1.7448 -0.20859,0.39222 -0.65507,0.78234 -0.99218,0.86695 -0.33711,0.0846 -0.61293,0.23432 -0.61293,0.33269 0,0.0984 -0.32742,0.37562 -0.72761,0.6161 -0.40018,0.24049 -1.12271,0.80268 -1.60563,1.24932 -0.48292,0.44664 -1.42164,1.05972 -2.08606,1.3624 -0.66442,0.30267 -1.42973,0.75686 -1.70069,1.0093 -0.27096,0.25244 -1.01582,0.72026 -1.65523,1.0396 -0.63942,0.31934 -1.30927,0.75738 -1.48858,0.97342 -0.1793,0.21605 -0.46353,0.39281 -0.63162,0.39281 -0.36353,0 -3.15038,1.42327 -4.11211,2.10008 -0.37227,0.26198 -0.9745,0.56108 -1.33831,0.66468 -0.3638,0.10359 -1.14277,0.40586 -1.73105,0.67172 -1.67554,0.75723 -3.30384,0.91124 -4.47231,0.42302 -1.27953,-0.53462 -2.11164,-0.53149 -2.93965,0.011 -0.4524,0.29642 -0.98639,0.38688 -1.71049,0.28976 -1.47959,-0.19846 -1.31177,0.17118 0.26068,0.57419 1.83446,0.47016 2.11084,0.51402 3.38293,0.53692 1.54275,0.0278 1.47346,0.60416 -0.19612,1.63146 -0.80755,0.49689 -1.48781,1.16495 -1.75102,1.71963 -0.23674,0.49888 -1.13675,1.64019 -2.00003,2.53624 -1.21516,1.2613 -1.55165,1.78305 -1.49012,2.31056 0.087,0.74562 1.00552,1.15141 1.00552,0.4442 0,-0.45344 2.47696,-3.06559 2.90694,-3.06559 0.3409,0 0.33692,0.28592 -0.0239,1.71892 -0.39615,1.57325 -0.16649,2.07617 0.40159,0.87943 0.53313,-1.1231 2.20339,-2.93634 2.52291,-2.73886 0.24982,0.15439 -0.52102,1.99259 -0.83557,1.99259 -0.11521,0 -0.20946,0.13759 -0.20946,0.30575 0,0.16817 -0.28591,0.6806 -0.63534,1.13873 -0.47546,0.62336 -0.65856,1.24565 -0.72761,2.47286 -0.086,1.52922 -0.054,1.63984 0.47526,1.63939 0.45583,-3.9e-4 0.5935,-0.19575 0.69952,-0.99267 0.20876,-1.56918 0.77615,-3.3264 1.23207,-3.81577 0.51847,-0.55651 1.82184,-1.07171 2.16879,-0.85729 0.26468,0.16358 0.0591,1.6171 -0.29611,2.09337 -0.10853,0.14552 -0.26351,0.6964 -0.3444,1.22418 -0.0809,0.52777 -0.39507,1.47287 -0.69817,2.10021 -0.64572,1.33649 -0.69378,1.83499 -0.17692,1.83499 0.36391,0 2.00707,-2.38892 2.00707,-2.91798 0,-0.14531 0.1133,-0.47095 0.25177,-0.72363 0.13847,-0.25269 0.43612,-0.87615 0.66143,-1.38547 0.22532,-0.50933 0.73733,-1.30905 1.13781,-1.77717 0.7338,-0.85773 3.02948,-2.45617 3.52757,-2.45617 0.60463,0 2.03063,-0.92597 3.10416,-2.01568 1.79478,-1.82183 2.24863,-1.50857 0.71822,0.49575 -0.95226,1.24714 -2.40216,2.31368 -3.14531,2.31368 -0.42229,0 -0.78049,0.24399 -2.38396,1.62387 -0.64496,0.55502 -0.74794,0.7737 -0.50322,1.06857 0.16923,0.2039 0.4524,1.70496 0.62926,3.33568 0.25976,2.395 0.25399,3.4756 -0.03,5.62142 -0.38075,2.87675 -0.1531,5.1569 0.68202,6.83092 0.23062,0.4623 0.37349,0.97802 0.31748,1.14606 -0.12347,0.37041 -1.04512,-0.56472 -1.4853,-1.50703 -0.66797,-1.42993 -0.80091,-1.90705 -0.95713,-3.43511 -0.12448,-1.2176 -0.31424,-1.72871 -0.81437,-2.19352 -0.35864,-0.33331 -0.65207,-0.7147 -0.65207,-0.84752 0,-0.13282 -0.50602,-0.48788 -1.12448,-0.78903 -1.53619,-0.74801 -2.23166,-1.1669 -2.92034,-1.75899 -0.79354,-0.68223 -2.16849,-1.4224 -2.64229,-1.4224 -0.21327,0 -0.78762,-0.50602 -1.27634,-1.12448 -0.48873,-0.61846 -1.54602,-1.79323 -2.34955,-2.61058 -0.80353,-0.81736 -1.9731,-2.0202 -2.59904,-2.67299 -1.89611,-1.97742 -4.46145,-2.25096 -7.38429,-0.78739 -0.4672,0.23395 -0.94345,0.33103 -1.05833,0.21575 -0.24759,-0.24846 0.87703,-1.22239 1.41152,-1.22239 0.20413,0 0.60766,-0.11907 0.89673,-0.26459 0.28906,-0.14552 0.76208,-0.38364 1.05115,-0.52916 0.64691,-0.32567 2.83006,-0.34988 3.02556,-0.0336 0.0785,0.12707 0.79993,0.55254 1.60312,0.9455 0.80318,0.39296 1.46033,0.82478 1.46033,0.9596 0,0.13482 0.17859,0.24512 0.39687,0.24512 0.21828,0 0.39688,-0.11814 0.39688,-0.26254 0,-0.1444 0.36705,-0.58959 0.81567,-0.98931 0.44862,-0.39972 1.36417,-1.50197 2.03455,-2.44944 0.67039,-0.94746 1.32535,-1.79539 1.45547,-1.88428 0.29962,-0.20468 -0.44976,-0.49984 -1.26901,-0.49984 -0.34331,0 -0.69779,-0.11907 -0.78772,-0.26459 -0.0899,-0.14552 -0.37387,-0.26458 -0.63096,-0.26458 -0.25708,0 -0.7352,-0.28503 -1.06248,-0.6334 -0.52003,-0.55355 -0.55118,-0.70366 -0.24706,-1.19063 0.27523,-0.44071 0.61325,-0.55722 1.61657,-0.55722 0.69772,0 1.53629,-0.17541 1.86349,-0.3898 0.32721,-0.21439 0.88856,-0.43562 1.24747,-0.49162 0.51708,-0.0807 0.63345,-0.2332 0.56053,-0.73468 -0.0506,-0.34807 -0.12868,-0.67125 -0.1735,-0.71817 -0.0448,-0.0469 -0.772,0.23055 -1.61596,0.61658 -1.28585,0.58816 -1.94737,0.70916 -4.08263,0.74677 -1.69005,0.0298 -2.7704,-0.0735 -3.20815,-0.30659 -0.84597,-0.45048 -1.6427,-1.78993 -1.41224,-2.37421 0.14984,-0.37988 0.29339,-0.3115 0.92877,0.44238 0.99326,1.1785 2.33222,1.4251 5.20916,0.95939 3.04724,-0.49329 4.03408,-0.89255 4.22428,-1.70911 0.086,-0.36913 0.58229,-1.11763 1.1029,-1.66334 0.8512,-0.89221 1.08112,-0.99178 2.28194,-0.98813 1.75141,0.005 2.03823,0.2269 2.13409,1.6487 0.10482,1.55489 0.58575,2.27875 1.64614,2.47768 0.89095,0.16714 2.64629,-0.061 3.11139,-0.40438 0.14552,-0.10744 0.85989,-0.42421 1.5875,-0.70393 l 1.32291,-0.50858 -1.71979,-0.16999 c -1.77164,-0.17511 -4.94421,-0.84958 -5.20015,-1.10551 -0.0795,-0.0795 -0.0616,-0.27863 0.0397,-0.44255 0.19336,-0.31287 2.35646,-0.16705 4.07334,0.2746 0.88285,0.2271 1.50034,0.13152 4.70297,-0.72794 1.81992,-0.48839 2.03665,-0.7985 1.85662,-2.6566 -0.28354,-2.92647 -0.66183,-4.02773 -2.02948,-5.90807 -0.72948,-1.00295 -1.32633,-1.935 -1.32633,-2.07123 0,-0.60193 -2.25421,-2.43549 -4.065,-3.30644 -1.91658,-0.92184 -2.07456,-0.9519 -5.00297,-0.9519 -3.2126,0 -4.04197,0.17049 -6.14557,1.26326 -2.39488,1.24409 -3.95175,2.35557 -5.15938,3.68339 -1.80335,1.98283 -2.11667,2.42274 -2.11667,2.97194 0,0.78632 -0.94171,2.74695 -1.56817,3.26491 -0.54889,0.45383 -0.55172,0.48733 -0.0942,1.11617 0.25944,0.35656 0.56101,0.65203 0.67015,0.6566 0.36943,0.0155 0.20122,2.67503 -0.22081,3.49115 -0.49723,0.96155 -5.1872,5.77758 -5.62635,5.77758 -0.16742,0 -0.30441,0.13084 -0.30441,0.29075 0,0.43101 -0.85655,2.19429 -1.16917,2.40685 -0.14889,0.10122 -0.2061,0.24866 -0.12713,0.32762 0.34159,0.3416 3.94136,-2.87762 5.73056,-5.12476 0.5942,-0.74628 1.14637,-1.25007 1.22704,-1.11954 0.18603,0.30099 -1.34661,2.63463 -1.99712,3.04088 -0.26905,0.16802 -0.48918,0.39501 -0.48918,0.50442 0,0.40446 -1.24189,1.62349 -3.0427,2.98668 -2.11686,1.60243 -4.8948,4.32239 -4.8948,4.79264 0,0.17437 -0.0893,0.35672 -0.19843,0.40523 -0.18005,0.08 -1.40967,1.88246 -2.53567,3.7169 -0.24249,0.39506 -0.44168,0.93085 -0.44264,1.19063 -9.6e-4,0.25978 -0.2428,0.82951 -0.53743,1.26608 -0.29463,0.43656 -0.73343,1.21047 -0.97512,1.71979 -0.24169,0.50932 -0.71441,1.29472 -1.0505,1.74534 -0.3361,0.45061 -0.77949,1.37888 -0.98532,2.06281 -0.20584,0.68394 -0.49543,1.38954 -0.64354,1.568 -0.14812,0.17847 -0.64265,1.03424 -1.09898,1.90172 -0.45632,0.86748 -0.91687,1.63867 -1.02345,1.71375 -0.24846,0.17502 -0.93923,1.70465 -1.34611,2.98077 -0.17399,0.54571 -0.39641,0.99356 -0.49426,0.99523 -0.0979,0.002 -0.41378,0.50768 -0.70206,1.12448 -0.28828,0.61679 -0.91336,1.7408 -1.38906,2.49779 -0.47571,0.757 -0.86493,1.59988 -0.86493,1.87307 0,0.74332 -2.25955,4.60799 -3.70128,6.33056 -0.14711,0.17576 -0.27125,0.47341 -0.27588,0.66146 -0.0114,0.46452 -0.47679,1.00361 -1.57909,1.82932 -0.50932,0.38152 -1.22369,0.98407 -1.5875,1.339 -0.9619,0.93846 -2.27693,1.80935 -3.10991,2.05958 -0.3996,0.12004 -0.94698,0.30756 -1.2164,0.41671 -0.37656,0.15255 -0.46835,0.0936 -0.39688,-0.25484 z m 18.41538,-27.06311 c 0.1819,-0.39167 0.33073,-0.90991 0.33073,-1.15163 0,-0.24173 0.26789,-0.84852 0.59531,-1.34843 0.77747,-1.18706 1.52136,-2.51286 1.52136,-2.71147 0,-0.0867 -0.10993,-0.15761 -0.24429,-0.15761 -0.26083,0 -2.93071,5.2651 -2.93071,5.77947 0,0.54105 0.38717,0.3227 0.7276,-0.41033 z m 36.29541,-4.04622 c -0.006,-0.65485 -0.15482,-2.30235 -0.33098,-3.66112 -0.30748,-2.37167 -0.33865,-2.45022 -0.77908,-1.96355 -0.25233,0.27883 -0.4614,0.67618 -0.4646,0.883 -0.01,0.64546 -1.01347,2.63184 -1.88633,3.73392 l -0.83551,1.05491 0.76851,0.62836 c 0.42269,0.3456 0.90322,0.63264 1.06785,0.63788 0.16462,0.005 0.62768,0.44001 1.029,0.96617 l 0.72967,0.95665 0.35608,-1.0228 c 0.19584,-0.56254 0.35127,-1.55858 0.34539,-2.21342 z m -35.96468,-0.82221 c 0,-0.15413 0.40538,-0.67392 0.90085,-1.15509 0.49547,-0.48116 1.10539,-1.18701 1.35538,-1.56855 0.25,-0.38154 0.7315,-0.76322 1.07002,-0.84818 0.5043,-0.12657 0.66744,-0.42473 0.90312,-1.65054 0.15819,-0.82283 0.58099,-2.27291 0.93955,-3.2224 0.35855,-0.94949 0.65458,-1.84246 0.65784,-1.98438 0.003,-0.14191 0.35778,-0.9724 0.78782,-1.84553 0.43005,-0.87312 0.78457,-1.79464 0.78783,-2.04781 0.006,-0.47723 1.94319,-3.62813 2.81582,-4.58038 0.27357,-0.29852 0.96965,-0.89384 1.54686,-1.32292 0.5772,-0.42907 1.64876,-1.34004 2.38125,-2.02436 0.73248,-0.68433 1.3714,-1.13104 1.41982,-0.99269 0.14628,0.418 -0.94046,1.91478 -2.10437,2.89837 -1.85304,1.56596 -2.84395,2.60406 -3.6018,3.77329 -0.3998,0.61682 -0.78756,1.18103 -0.86168,1.25379 -0.35394,0.34744 -0.79623,1.37022 -0.79623,1.84126 0,0.28904 -0.28662,1.15386 -0.63694,1.92182 -0.35031,0.76796 -0.84624,1.99161 -1.10206,2.71921 -0.25582,0.72761 -0.56451,1.43603 -0.68598,1.57427 -0.12147,0.13825 -0.22085,0.35124 -0.22085,0.47332 0,0.12208 0.55691,-0.46728 1.23758,-1.30969 0.68066,-0.8424 1.33089,-1.59535 1.44494,-1.67321 0.11406,-0.0779 0.39413,-0.58853 0.62238,-1.13483 0.22826,-0.54629 0.82819,-1.56837 1.33318,-2.27128 0.505,-0.70291 0.91817,-1.46675 0.91817,-1.69742 0,-0.23067 0.26789,-0.69726 0.59531,-1.03688 1.31984,-1.36898 2.84427,-3.36004 2.84427,-3.71488 0,-0.2073 0.29766,-0.69809 0.66146,-1.09064 0.54612,-0.58928 0.66075,-0.97663 0.65741,-2.22145 -0.006,-2.12895 -0.0642,-2.17751 -2.28722,-1.89838 -2.39701,0.30098 -5.38165,1.85117 -5.38165,2.79518 0,0.18597 -0.62626,1.5665 -1.39169,3.06784 -1.71656,3.36691 -2.57706,5.29757 -2.57706,5.78204 0,0.20326 -0.19118,0.90933 -0.42486,1.56904 -0.59637,1.68369 -0.74646,2.05107 -1.57095,3.84531 -2.59494,5.64709 -2.39545,5.13284 -2.77113,7.14375 -0.16312,0.87312 -0.35713,1.82562 -0.43113,2.11666 -0.077,0.30273 0.10065,0.15846 0.41509,-0.33712 0.30231,-0.47646 0.54965,-0.9924 0.54965,-1.14654 z m 30.07866,-2.4024 c -0.0845,-0.21107 -0.14716,-0.14838 -0.15985,0.15985 -0.0115,0.27891 0.051,0.43518 0.13896,0.34726 0.0879,-0.0879 0.0973,-0.31612 0.0209,-0.50711 z m 0.70692,-2.33164 c 0.11956,-0.65152 0.0928,-0.80839 -0.0902,-0.52917 -0.14309,0.21828 -0.26199,0.68461 -0.26421,1.03628 -0.005,0.84922 0.14506,0.63398 0.35444,-0.50711 z m -5.20484,0.21497 c -0.0845,-0.21107 -0.14716,-0.14837 -0.15985,0.15985 -0.0115,0.27892 0.051,0.43519 0.13896,0.34727 0.0879,-0.0879 0.0973,-0.31612 0.0209,-0.50712 z m 0.60896,-1.61965 c 0.002,-0.11773 -0.11501,-0.14047 -0.26053,-0.0505 -0.14552,0.0899 -0.26276,0.36485 -0.26053,0.61092 0.003,0.38558 0.0395,0.39256 0.26053,0.0505 0.14106,-0.21829 0.2583,-0.4932 0.26053,-0.61093 z m 6.02691,-10.47681 c 0.25269,-0.13189 0.96804,-0.37557 1.58966,-0.54151 l 1.13023,-0.30169 -0.89146,-0.84755 c -0.49031,-0.46616 -0.94761,-1.02108 -1.01623,-1.23317 -0.19916,-0.61552 -1.21492,0.49228 -1.32191,1.44169 -0.0561,0.49807 -0.26084,0.82403 -0.55221,0.87929 -0.79897,0.15152 -0.62064,-1.74189 0.24961,-2.65024 0.51541,-0.53797 0.63261,-0.82384 0.42351,-1.03294 -0.43766,-0.43766 -1.40073,-0.0211 -1.40073,0.60586 0,0.44087 -0.12822,0.51767 -0.68619,0.41101 -0.62544,-0.11956 -0.67213,-0.0696 -0.52738,0.56447 0.0874,0.3826 0.22937,1.05945 0.31559,1.50411 0.22066,1.13788 1.61468,1.76067 2.68751,1.20067 z m -15.81244,-3.72893 c 0,-0.14552 -0.11907,-0.26458 -0.26459,-0.26458 -0.14552,0 -0.26458,0.11906 -0.26458,0.26458 0,0.14552 0.11906,0.26458 0.26458,0.26458 0.14552,0 0.26459,-0.11906 0.26459,-0.26458 z m 16.84949,-0.57878 c -0.0845,-0.21106 -0.14716,-0.14837 -0.15985,0.15986 -0.0115,0.27891 0.051,0.43518 0.13896,0.34726 0.0879,-0.0879 0.0973,-0.31612 0.0209,-0.50712 z m 9.60884,6.6834 c 0,-0.29428 1.2877,-1.34212 1.64934,-1.34212 0.48047,0 2.188,-0.89364 4.56837,-2.39085 2.10956,-1.32688 3.80569,-2.24618 8.06979,-4.37383 0.65484,-0.32674 1.57229,-0.66073 2.03878,-0.7422 1.30558,-0.22799 0.83782,0.37226 -0.98488,1.26384 -0.864,0.42263 -1.80679,0.98818 -2.09509,1.25677 -0.2883,0.26859 -0.67799,0.49214 -0.86598,0.49677 -0.18798,0.005 -0.5729,0.18322 -0.85538,0.39687 -0.28247,0.21366 -0.68795,0.38846 -0.90107,0.38846 -0.21311,0 -0.77772,0.29766 -1.25469,0.66146 -0.47697,0.3638 -0.99422,0.66146 -1.14945,0.66146 -0.15523,0 -0.28224,0.09 -0.28224,0.19999 0,0.11 -0.35983,0.35928 -0.79963,0.55395 -0.4398,0.19467 -0.94581,0.49615 -1.12448,0.66994 -0.43268,0.42088 -2.16017,1.22195 -2.6351,1.22195 -0.208,0 -0.96392,0.29716 -1.6798,0.66035 -1.42011,0.72047 -1.69849,0.78885 -1.69849,0.41719 z m -22.62187,-5.49587 c -1.00061,-0.54005 -1.43607,-1.10419 -1.4468,-1.87434 -0.008,-0.56496 0.0522,-0.54351 0.92645,0.33073 1.67126,1.67126 4.1034,1.20801 7.11641,-1.35547 0.57189,-0.48657 1.2155,-0.88467 1.43023,-0.88467 0.21473,0 0.75885,-0.27983 1.20915,-0.62183 1.21449,-0.92243 3.38174,-1.41434 4.4806,-1.01699 0.48048,0.17375 1.38123,0.3159 2.00165,0.3159 0.94039,0 1.39941,-0.20906 2.75934,-1.25677 0.89721,-0.69122 1.6717,-1.34819 1.72107,-1.45993 0.0494,-0.11174 0.25773,-0.37113 0.46302,-0.57641 0.20529,-0.20529 0.37325,-0.48253 0.37325,-0.61609 0,-0.36699 0.79258,-1.87968 1.07696,-2.05543 0.35435,-0.219 0.61987,0.6137 0.32112,1.00706 -0.13675,0.18005 -0.45765,0.89311 -0.71311,1.58458 -0.25547,0.69147 -0.68824,1.41393 -0.96171,1.60548 -0.27348,0.19155 -1.15814,0.96339 -1.96592,1.71521 -1.72115,1.60191 -2.31923,1.80418 -4.08332,1.38098 -1.78614,-0.42849 -5.0511,-0.0702 -5.0511,0.55426 0,0.12855 -0.18279,0.23373 -0.40619,0.23373 -0.48942,0 -1.52079,0.62853 -2.75152,1.67682 -1.97375,1.68118 -4.77071,2.24628 -6.49958,1.31318 z m -1.2635,-4.47399 c -0.39366,-0.39366 -0.15559,-0.60206 1.19735,-1.04814 0.76398,-0.2519 1.80365,-0.73772 2.31038,-1.0796 0.50672,-0.34188 1.24094,-0.6216 1.63159,-0.6216 0.39066,0 0.74997,-0.10199 0.79848,-0.22664 0.17038,-0.43781 3.74308,-2.71361 4.4966,-2.86432 0.41909,-0.0838 0.82606,-0.25608 0.90438,-0.3828 0.0783,-0.12673 0.47136,-0.23041 0.87341,-0.23041 0.40205,0 1.25822,-0.16245 1.90261,-0.361 2.35932,-0.72695 3.73428,-0.96183 5.60718,-0.95787 2.00934,0.004 3.25558,0.3794 2.03292,0.61195 -0.63226,0.12026 -6.07947,1.06262 -8.45286,1.46234 -1.20957,0.20372 -4.67534,1.89637 -5.97319,2.91725 -0.39202,0.30837 -0.93121,0.56066 -1.1982,0.56066 -0.45977,0 -2.10911,0.80865 -2.80913,1.37729 -0.17778,0.1444 -0.71356,0.3618 -1.19063,0.48311 -0.47707,0.1213 -1.10855,0.29501 -1.40329,0.38602 -0.29474,0.091 -0.62216,0.0792 -0.7276,-0.0262 z m 54.44219,-6.65195 c 0.10943,-0.5457 0.21797,-1.4089 0.2412,-1.91823 0.0528,-1.15754 0.38697,-2.87545 0.6948,-3.57187 0.12865,-0.29104 0.42505,-1.36261 0.65866,-2.38125 0.2336,-1.01865 0.64261,-2.2688 0.90891,-2.77813 0.26629,-0.50932 0.57039,-1.34276 0.67577,-1.85208 0.10539,-0.50932 0.27845,-1.0451 0.38459,-1.19063 0.55398,-0.75954 1.33422,-4.97518 1.616,-8.73125 0.41933,-5.58963 0.45963,-5.79338 1.60843,-8.13234 0.31198,-0.63519 0.28395,-2.7806 -0.0389,-2.98016 -0.14552,-0.0899 -0.26458,-0.38831 -0.26458,-0.66307 0,-0.27475 -0.29766,-1.05936 -0.66146,-1.74358 -0.3638,-0.68422 -0.66146,-1.47566 -0.66146,-1.75876 0,-0.2831 -0.69078,-1.48576 -1.53506,-2.67257 -0.84429,-1.18682 -1.75831,-2.51321 -2.03116,-2.94754 -0.45991,-0.73209 -1.24795,-1.64269 -3.13723,-3.62511 -0.8032,-0.84279 -0.76828,-1.38799 0.0419,-0.65476 0.26701,0.24165 0.60766,0.43935 0.757,0.43935 0.40142,0 2.95894,2.84168 3.93525,4.37251 0.27601,0.43278 0.5648,0.8464 0.64175,0.91916 0.077,0.0728 0.49012,0.60854 0.91816,1.19063 0.42805,0.58208 0.85544,1.11786 0.94977,1.19062 0.0943,0.0728 0.24215,0.57991 0.32849,1.12699 0.0863,0.54709 0.39779,1.3329 0.69212,1.74624 0.54965,0.77191 1.03776,2.33147 1.27061,4.0597 0.14772,1.09646 -0.51809,3.19707 -1.28824,4.06433 -0.38916,0.43823 -0.48932,1.01364 -0.50662,2.91042 -0.0274,3.00605 -0.413,8.31828 -0.72854,10.03711 -0.28146,1.53324 -1.16935,4.26366 -1.91801,5.89823 -1.17781,2.57157 -1.69868,4.43606 -2.01106,7.19865 -0.074,0.65484 -0.24215,1.30373 -0.37356,1.44198 -0.13141,0.13824 -0.23893,0.50138 -0.23893,0.80697 0,0.57714 -0.4541,1.19063 -0.88129,1.19063 -0.14358,0 -0.16331,-0.41376 -0.0473,-0.99219 z m -23.67765,-11.6668 c 0,-1.13779 1.63009,-1.8378 4.63021,-1.98836 1.30968,-0.0657 2.71038,-0.20445 3.11266,-0.30827 1.06387,-0.27458 0.70939,0.43007 -0.58126,1.15545 -0.81828,0.4599 -1.45151,0.571 -3.25455,0.571 -1.85883,0 -2.3421,0.0898 -2.84873,0.52917 -0.7592,0.65845 -1.05833,0.67004 -1.05833,0.041 z m 18.17607,-13.48754 c -1.5591,-0.17885 -4.36247,-2.04276 -3.84726,-2.55798 0.14726,-0.14726 1.53077,0.35595 1.81077,0.65861 0.42319,0.45745 2.90722,0.92407 4.10104,0.77038 1.48197,-0.1908 2.16311,0.13627 1.32292,0.63523 -0.61753,0.36672 -2.32511,0.61562 -3.38747,0.49376 z m -22.53517,-7.70958 c -0.0868,-0.1405 0.14406,-0.73377 0.51311,-1.31837 0.36904,-0.58461 0.67099,-1.13001 0.67099,-1.21202 0,-0.082 0.28621,-0.45776 0.63602,-0.83501 0.34981,-0.37726 0.78033,-0.99714 0.9567,-1.37752 0.6221,-1.34164 0.69728,-1.45493 1.04169,-1.56973 0.58529,-0.1951 -0.0883,2.46762 -0.79101,3.12709 -0.0775,0.0728 -0.53883,0.76111 -1.0251,1.52966 -0.91702,1.44936 -1.71977,2.1132 -2.0024,1.6559 z m 5.87858,-3.60635 c -0.14671,-0.14671 0.30656,-1.70499 0.83962,-2.8865 0.13131,-0.29104 0.30534,-0.73752 0.38673,-0.99219 0.0814,-0.25466 0.33258,-0.46302 0.5582,-0.46302 0.42863,0 0.40555,0.32105 -0.17123,2.38125 -0.50862,1.81677 -1.07218,2.50159 -1.61332,1.96046 z m 7.04142,-2.36108 c -0.0827,-0.21544 0.2195,-0.968 0.67148,-1.67235 0.45198,-0.70436 0.82178,-1.3983 0.82178,-1.54209 0,-0.68909 2.80847,-2.41356 3.2354,-1.98662 0.1267,0.1267 -0.29378,0.65432 -0.94996,1.19201 -0.64751,0.53058 -1.43724,1.50169 -1.75496,2.15802 -0.31773,0.65633 -0.68612,1.19332 -0.81866,1.19332 -0.13254,0 -0.24098,0.16586 -0.24098,0.36857 0,0.52661 -0.78287,0.7614 -0.9641,0.28914 z m -3.48707,-3.72725 c 0.0905,-0.44834 1.41975,-1.25914 3.39283,-2.06955 0.65485,-0.26897 1.56581,-0.65145 2.02437,-0.84997 0.97887,-0.42377 2.47355,-0.47857 2.47355,-0.0907 0,0.14864 -0.32742,0.40591 -0.7276,0.57171 -0.40019,0.1658 -1.32292,0.55978 -2.05052,0.87551 -0.72761,0.31572 -1.8587,0.73445 -2.51355,0.93051 -0.65484,0.19605 -1.37859,0.51389 -1.60833,0.70631 -0.57176,0.47889 -1.09448,0.43993 -0.99075,-0.0738 z"
       id="path18" /></g></svg>
