<?xml version="1.0" encoding="UTF-8" standalone="no"?>
<!-- Created with Inkscape (http://www.inkscape.org/) -->

<svg
   width="115.81405mm"
   height="92.973015mm"
   viewBox="0 0 115.81406 92.973016"
   version="1.1"
   id="svg1"
   xml:space="preserve"
   xmlns="http://www.w3.org/2000/svg"
   xmlns:svg="http://www.w3.org/2000/svg"><defs
     id="defs1" /><g
     id="layer1"
     transform="translate(-296.18017,-1413.8804)"><path
       style="fill:#4d4d4d;stroke-width:1.59429"
       d="m 313.96533,1506.3531 c -1.4545,-0.5254 -1.45438,-0.5339 0.0193,-1.2631 1.06288,-0.526 1.89759,-0.5186 2.94492,0.027 0.80388,0.4177 2.62767,0.9722 4.05286,1.2323 2.26027,0.4124 2.07112,0.4768 -1.48073,0.5033 -2.23957,0.016 -4.73085,-0.2074 -5.53618,-0.4982 z m 31.02193,-1.921 c -1.43264,-1.3249 -1.32503,-2.0635 0.42688,-2.9304 1.24084,-0.6141 1.48073,-0.5207 1.48073,0.5766 0,0.7203 0.44917,1.6541 0.99816,2.0755 1.25261,0.961 3.01291,-0.7237 3.75129,-3.5906 0.27839,-1.0808 0.98947,-2.4121 1.58016,-2.9582 1.45254,-1.3431 1.36715,-1.7711 -0.71392,-3.5791 -1.26337,-1.0973 -2.2566,-1.4153 -3.3854,-1.0841 -1.40004,0.4109 -1.53702,0.7996 -1.10844,3.1452 0.31959,1.7492 0.20996,2.6763 -0.31641,2.6763 -0.443,0 -0.80544,-0.3439 -0.80544,-0.7642 0,-0.5296 -2.26164,-0.6802 -7.3704,-0.4904 -6.52946,0.2425 -7.58535,0.4605 -9.2545,1.9105 -1.43595,1.2472 -1.88412,1.3839 -1.88412,0.574 0,-0.5841 0.49974,-1.4457 1.11055,-1.9144 0.6108,-0.4687 1.11053,-1.2437 1.11053,-1.7219 0,-0.4786 0.51249,-1.0518 1.13888,-1.274 1.45287,-0.5156 4.76728,-7.0491 4.77678,-9.4162 0.004,-1.2651 -0.77893,-2.3559 -2.6336,-3.6639 -2.43239,-1.7154 -2.67086,-1.7623 -3.02118,-0.5946 -0.2092,0.6973 -1.60283,4.6564 -3.09696,8.7981 l -2.71662,7.5302 -7.67527,0.6132 c -8.71228,0.6961 -12.89707,-0.1271 -18.23735,-3.5838 l -2.96144,-1.9175 0.10125,-5.0862 c 0.16389,-8.2348 2.17652,-12.1212 10.00564,-19.3206 6.29918,-5.7926 10.19349,-8.0142 14.04794,-8.0142 1.1587,0 1.39135,-0.5365 1.41015,-3.2517 0.0378,-5.4599 1.41144,-1.7273 1.63276,4.4366 0.20839,5.8041 -0.59069,7.7145 -3.22665,7.7145 -0.76453,0 -1.39007,0.3081 -1.39007,0.6846 0,1.0817 3.47475,0.7967 4.75836,-0.3902 1.25247,-1.1581 2.08544,-3.5796 2.2021,-6.4018 0.0446,-1.0802 0.45375,-1.692 1.05422,-1.5768 1.10074,0.2113 0.79946,-1.0163 -1.43231,-5.8361 -0.90288,-1.9497 -1.80643,-2.9094 -2.7395,-2.9094 -2.3455,0 -3.96625,-2.3387 -3.96625,-5.7235 0,-1.7014 0.35079,-3.6511 0.77952,-4.3327 0.61573,-0.9788 0.78667,-0.448 0.81341,2.526 0.0468,5.2016 0.70594,6.0144 3.98752,4.9171 1.41708,-0.4738 3.41975,-0.6657 4.45037,-0.4265 1.59704,0.3705 1.94926,0.158 2.38407,-1.4448 0.28059,-1.0337 0.12854,-3.7947 -0.33796,-6.1355 -1.0204,-5.1207 -1.04314,-5.8097 -0.19161,-5.8097 0.66345,0 1.85943,5.4695 2.67844,12.2493 0.40974,3.3918 -1.08408,12.5834 -3.35081,20.618 -1.12512,3.9881 1.07285,9.5816 4.19617,10.6786 0.95358,0.3348 3.32998,2.4572 5.2809,4.7163 2.52065,2.9188 4.13,4.1701 5.5613,4.3244 3.18333,0.3428 3.12586,-1.324 -0.25496,-7.3958 -3.47199,-6.2352 -3.38672,-7.7584 0.56119,-10.024 3.02076,-1.7335 6.1417,-4.4939 6.1417,-5.4322 0,-0.4483 0.41644,-1.1335 0.92545,-1.5229 0.70208,-0.5368 0.9447,-0.2224 1.00524,1.3029 0.0835,2.1026 -1.66312,3.8239 -7.11322,7.0108 -3.21,1.8771 -3.58354,3.8037 -1.22835,6.3355 1.80166,1.9366 1.8399,1.9437 6.06627,1.1241 5.44942,-1.057 7.41806,-2.2872 9.85026,-6.1557 1.08346,-1.7232 3.80233,-4.9732 6.04192,-7.2223 3.33834,-3.3521 3.73852,-3.9924 2.22107,-3.5541 -2.77595,0.8023 -5.73679,0.5188 -11.47558,-1.0985 -3.08815,-0.8703 -7.57611,-1.5159 -11.10542,-1.5975 -3.25758,-0.075 -6.65227,-0.5042 -7.54375,-0.9533 -0.9408,-0.4739 -1.797,-0.5531 -2.04062,-0.1886 -0.23084,0.3454 -0.05,0.7419 0.40187,0.8811 0.96154,0.2965 -0.8667,4.8675 -2.26679,5.6675 -1.42456,0.8143 -1.58627,0.018 -0.49732,-2.4468 0.566,-1.2816 1.26363,-3.8703 1.55029,-5.7529 0.28665,-1.8826 1.16057,-5.6506 1.94203,-8.3734 2.06957,-7.2107 1.89502,-11.4431 -0.61304,-14.8652 -2.67133,-3.6448 -3.09312,-3.867 -5.06737,-2.671 -2.02388,1.2262 -7.08138,0.9736 -7.56219,-0.3775 -0.2692,-0.7566 0.30855,-0.8777 2.74585,-0.5753 3.66969,0.4551 4.81038,-0.7094 5.56636,-5.682 0.43604,-2.8683 0.30703,-3.221 -1.67353,-4.5749 l -2.14602,-1.4672 -2.25975,2.179 c -1.87731,1.8103 -2.44453,3.1806 -3.35153,8.098 -1.42122,7.705 -2.44333,9.5916 -5.60405,10.3438 -3.74112,0.8904 -4.20179,-0.057 -2.38624,-4.908 0.85887,-2.2948 1.56157,-5.6555 1.56157,-7.4681 0,-8.0547 3.96269,-13.817 9.4964,-13.8092 4.29881,0 8.18098,1.2847 9.48418,3.1238 0.98969,1.3966 1.10772,2.757 0.67892,7.8251 l -0.51899,6.1344 2.6457,3.9633 c 2.55782,3.8319 2.6457,4.1841 2.6457,10.6069 v 6.6434 l 2.18431,1.0446 c 1.20137,0.5744 3.37808,1.0443 4.83715,1.0443 2.36361,0 3.30332,-0.6307 8.61907,-5.7851 5.79042,-5.6149 6.07609,-5.7914 9.69377,-5.9901 l 3.72751,-0.2047 0.16517,-4.4498 c 0.19168,-5.1645 1.90836,-8.7621 5.85272,-12.2651 2.23287,-1.9831 3.16152,-2.3389 6.10313,-2.3389 4.69107,0 6.20125,1.7004 6.19745,6.9785 -0.003,4.4995 -1.49,7.2047 -5.52323,10.0492 -1.8443,1.3006 -2.621,2.3484 -2.46922,3.331 0.20222,1.3089 0.86417,1.4735 7.62504,1.896 8.44027,0.5272 11.32687,1.2074 15.21075,3.584 3.47436,2.1259 5.45244,5.099 6.93804,10.4281 1.47927,5.3065 1.49394,11.1373 0.041,16.295 -1.45769,5.175 -5.88921,12.9567 -9.21668,16.1848 -2.97278,2.8839 -1.42273,2.6781 -30.03469,3.9869 -8.16228,0.3734 -15.3936,0.8752 -16.06962,1.115 -0.6859,0.2435 -1.74378,2.0731 -2.39357,4.1398 -0.64044,2.0371 -1.57158,3.752 -2.0692,3.8108 -3.5042,0.4152 -5.22868,0.2467 -6.14401,-0.5995 z m -17.75029,-27.1303 c -0.22768,-0.8387 -0.0705,-2.3601 0.34914,-3.3808 0.90721,-2.2064 0.0865,-2.4056 -1.83242,-0.445 -1.0176,1.0398 -1.14614,1.5452 -0.48853,1.9209 0.49083,0.2806 0.96472,1.3176 1.0531,2.3049 0.0883,0.9872 0.42434,1.6442 0.74666,1.46 0.3223,-0.1841 0.39973,-1.0211 0.17205,-1.86 z m -10.18887,-8.6254 c 2.91114,-1.6413 4.20047,-3.7518 3.61336,-5.9146 -0.40125,-1.4784 -0.61474,-1.5589 -2.09894,-0.792 -0.90874,0.4695 -1.85218,1.1051 -2.09654,1.4125 -0.24437,0.3075 -0.91069,0.6275 -1.48073,0.7112 -2.99329,0.4394 -4.6445,2.6651 -3.50159,4.7199 0.86592,1.5568 2.63751,1.5131 5.56444,-0.1368 z m 12.0781,-6.3094 c 0,-4.2532 -0.41553,-4.1407 -1.05355,0.2853 -0.29576,2.0517 -0.18785,3.2516 0.29242,3.2516 0.42307,0 0.76113,-1.5709 0.76113,-3.5369 z m 40.86116,-1.262 c 1.29284,-0.3751 2.08532,-0.3199 2.2574,0.1582 0.30994,0.8597 5.73,-2.1878 9.26196,-5.2076 3.26813,-2.7942 3.33485,-6.2395 0.18508,-9.5567 -1.2216,-1.2864 -2.22108,-2.7056 -2.22108,-3.1535 0,-0.5951 -1.14758,-0.6759 -4.25708,-0.2999 -2.34137,0.2834 -5.08995,0.5654 -6.10796,0.627 -1.018,0.062 -2.54991,0.1597 -3.40426,0.219 -1.04248,0.072 -1.99285,1.008 -2.88958,2.8468 -1.24409,2.5509 -1.25184,2.8259 -0.11249,3.9902 1.6637,1.6997 1.5509,2.0425 -0.75514,2.2949 -1.08839,0.1189 -2.09999,0.5584 -2.24801,0.9759 -0.35585,1.004 6.48204,1.879 7.4791,0.9572 0.50076,-0.463 0.3323,-0.6897 -0.51286,-0.6897 -0.69223,0 -1.25861,-0.3079 -1.25861,-0.6844 0,-0.3765 0.78797,-0.6846 1.75106,-0.6846 0.96307,0 2.5456,-0.5702 3.5167,-1.2671 6.20415,-4.4522 6.80207,-2.765 0.84021,2.3709 -3.14982,2.7134 -4.63231,3.5578 -5.69976,3.2461 -2.84844,-0.8314 -22.25337,-2.0924 -22.97255,-1.4927 -1.20405,1.0038 0.67013,2.9459 3.01946,3.1287 2.37418,0.1849 12.73457,2.0241 16.21326,2.8783 2.25815,0.5545 4.3379,0.3821 7.91511,-0.6562 z m -38.64005,-6.5369 c 0,-3.1398 -0.53676,-3.5553 -3.01013,-2.3314 -1.83129,0.9061 -1.80212,1.6222 0.16641,4.0841 2.0424,2.5544 2.84372,2.0606 2.84372,-1.7527 z m 10.36503,-0.9026 c 0,-0.3304 -0.49974,-0.9842 -1.11054,-1.453 -0.90065,-0.6911 -1.11054,-0.6637 -1.11054,0.145 0,0.5483 0.22211,1.2021 0.49359,1.453 0.7031,0.6502 1.72749,0.5645 1.72749,-0.145 z m 16.13776,-0.2587 c 0.42433,-0.4728 1.00879,-1.7821 1.29882,-2.9095 l 0.52731,-2.0498 -2.68887,2.359 c -1.47889,1.2975 -2.68889,2.6068 -2.68889,2.9094 0,0.8735 2.70116,0.6384 3.55163,-0.3091 z m 23.35688,-14.3953 c 0.55868,-1.2362 0.85804,-3.2415 0.66527,-4.4559 -0.20395,-1.2849 0.0604,-2.6658 0.63203,-3.3029 0.83228,-0.9272 0.76704,-1.2403 -0.42666,-2.0473 -0.77506,-0.5241 -2.01183,-0.9528 -2.7484,-0.9528 -0.73657,0 -1.33922,-0.4622 -1.33922,-1.0269 0,-1.5693 -1.31407,-1.2216 -1.90656,0.5045 -0.28909,0.8422 -1.28607,2.6136 -2.21551,3.9362 -1.7486,2.4885 -2.0308,3.591 -1.88607,7.3681 l 0.0854,2.2249 h 4.06205 c 3.89154,0 4.10467,-0.094 5.07781,-2.2479 z m 2.7059,-13.1146 c 0,-0.166 -0.33315,-0.4922 -0.74036,-0.7248 -0.40719,-0.2328 -0.74036,-0.098 -0.74036,0.3019 0,0.3986 0.33317,0.7248 0.74036,0.7248 0.40721,0 0.74036,-0.1352 0.74036,-0.3019 z"
       id="path70" /></g></svg>
