<?xml version="1.0" encoding="UTF-8" standalone="no"?>
<!-- Created with Inkscape (http://www.inkscape.org/) -->

<svg
   width="124.27928mm"
   height="71.00103mm"
   viewBox="0 0 124.27929 71.001031"
   version="1.1"
   id="svg1"
   xml:space="preserve"
   xmlns="http://www.w3.org/2000/svg"
   xmlns:svg="http://www.w3.org/2000/svg"><defs
     id="defs1" /><g
     id="layer1"
     transform="translate(54.762324,-63.303172)"><path
       style="fill:#4d4d4d;stroke-width:0.936058"
       d="m -53.012429,134.02485 c -0.35984,-0.31528 -0.654,-0.86455 -0.654,-1.22116 0,-0.13141 -0.043,-0.26219 -0.0955,-0.29063 -0.14519,-0.0786 -0.576756,-1.36254 -0.736492,-2.1911 -0.07811,-0.40514 -0.106786,-0.96153 -0.06373,-1.23642 0.249702,-1.59417 0.352884,-2.10147 0.672732,-3.30751 0.0714,-0.26918 0.15504,-1.3124 0.18591,-2.31829 0.0309,-1.00588 0.0994,-1.82888 0.15238,-1.82888 0.053,0 0.18755,0.35935 0.29912,0.79853 0.27366,1.07726 0.1236,2.44652 -0.55612,5.07449 -0.17827,0.68925 -0.256808,3.40131 -0.10241,3.5366 0.0696,0.061 0.12651,0.18631 0.12651,0.27855 0,0.0922 0.13621,0.46142 0.30269,0.82042 0.16649,0.359 0.27691,0.73914 0.24539,0.84476 -0.0336,0.11254 0.0645,0.31887 0.23692,0.49843 0.2345,0.24418 0.38813,0.30639 0.75667,0.30639 0.6708,0 0.79743,-0.28879 0.52018,-1.18625 -0.26519,-0.85841 -0.19414,-1.15786 0.48822,-2.05762 0.30012,-0.39573 0.95169,-1.41578 1.44795,-2.26678 1.11693,-1.91536 1.27473,-2.15989 2.08844,-3.23639 0.58241,-0.7705 1.89378,-2.0451 2.56775,-2.49577 2.01812,-1.34945 4.78129,-2.35488 8.22032,-2.9911 0.32338,-0.0598 0.79963,-0.15124 1.05834,-0.20313 0.2587,-0.0519 0.76141,-0.14177 1.11713,-0.19971 0.35571,-0.0579 0.91134,-0.15172 1.23472,-0.2084 4.22349,-0.7402 8.73564,-1.24067 12.46481,-1.38254 2.73251,-0.10396 3.2891,-0.29041 5.05648,-1.69379 0.64676,-0.51356 1.24208,-0.93379 1.32292,-0.93386 0.0808,-7e-5 0.14699,-0.0386 0.14699,-0.0858 0,-0.047 0.14552,-0.14999 0.32338,-0.22868 0.17786,-0.0787 0.54458,-0.27197 0.81494,-0.42955 0.27036,-0.15757 0.52677,-0.28649 0.56981,-0.28649 0.043,0 0.21871,-0.0856 0.39039,-0.19023 0.17167,-0.10462 0.68255,-0.36606 1.13528,-0.58097 0.45273,-0.21492 1.22002,-0.58616 1.7050899,-0.82499 0.48507,-0.23882 1.12007,-0.5504 1.41111,-0.69239 0.49067,-0.23939 0.69572,-0.34126 1.8226903,-0.90552 0.22636,-0.11334 0.59678,-0.2988 0.82315,-0.41214 0.22636,-0.11334 0.59678,-0.2988 0.82314,-0.41214 0.22637,-0.11334 0.58356,-0.29346 0.79375,-0.40026 0.52848,-0.26852 3.55824002,-1.77726 4.20394002,-2.09344 0.72229998,-0.35369 1.98405998,-0.98468 2.67522998,-1.33786 0.24254,-0.12393 0.69624,-0.34417 1.00824,-0.48942 0.43992,-0.20481 0.6511,-0.39644 0.94074,-0.85368 0.7162,-1.13062 1.63391,-1.96136 3.18859,-2.8864 1.75533,-1.04443 4.2552698,-2.045844 7.0626598,-2.82912 0.71144,-0.198486 1.38541,-0.402704 1.49771,-0.453813 0.11231,-0.05108 0.33408,-0.09292 0.49283,-0.09292 0.15875,0 0.32134,-0.04635 0.36131,-0.103033 0.04,-0.05669 0.22518,-0.103042 0.41158,-0.103042 0.18639,0 0.3716,-0.04635 0.41157,-0.103033 0.04,-0.05669 0.18486,-0.103033 0.32197,-0.103033 0.13711,0 0.4118,-0.0432 0.61042,-0.09606 0.33523,-0.08916 0.56875,-0.142612 1.83104,-0.419125 0.2587,-0.05669 0.66881,-0.147868 0.91134,-0.202675 0.24253,-0.05485 1.02306,-0.220085 1.73449,-0.367288 0.71144,-0.147202 1.38612,-0.290952 1.49931,-0.319438 l 0.20578,-0.05178 v -3.232585 c 0,-2.043916 0.0432,-3.256006 0.1176,-3.296268 0.0778,-0.04215 0.11759,1.63684 0.11759,4.959173 0,3.286614 0.0458,5.23868 0.13248,5.64726 0.21721,1.02381 0.54973,1.87172 0.92518,2.35915 0.1944,0.25239 0.35345,0.49017 0.35345,0.52842 0,0.0382 0.15875,0.27169 0.35278,0.51879 0.19403,0.2471 0.35278,0.47546 0.35278,0.50747 0,0.032 1.03187,1.4294 2.29305,3.10532 1.26118,1.67591 2.29306,3.0903 2.29306,3.14309 0,0.0528 0.0529,0.096 0.11759,0.096 0.0647,0 0.11759,0.0489 0.11759,0.10869 0,0.0598 0.21167,0.38179 0.47037,0.71559 0.25871,0.3338 0.47037,0.63707 0.47037,0.67393 0,0.0369 0.0983,0.1901 0.21855,0.34052 0.1202,0.15042 0.47165,0.69079 0.78099,1.20081 0.30935,0.51003 0.65547,1.02005 0.76916,1.13339 0.14574,0.14528 0.22076,0.43402 0.25431,0.97883 0.0748,1.21428 0.52753,1.85659 2.21033,3.13581 0.29104,0.22124 1.00542,0.80012 1.58751,1.28638 1.64795,1.37668 2.3641,1.86612 2.61642,1.78817 0.40452,-0.12498 -0.17198,-1.06047 -0.95853,-1.5554 -0.4318,-0.2717 -0.54077,-0.40128 -0.54077,-0.64298 0,-0.39241 0.21556,-0.38801 0.65415,0.0133 0.40246,0.36829 1.30442,0.90734 2.23877,1.33799 0.74684,0.34423 0.87004,0.36584 0.87004,0.15265 0,-0.23662 -0.61534,-0.79168 -1.36912,-1.23501 -0.8896,-0.5232 -1.21792,-0.78024 -1.21792,-0.95351 0,-0.31207 0.38163,-0.23466 1.14331,0.23194 1.18488,0.72583 2.07867,1.09383 2.70208,1.11254 0.30919,0.009 0.55941,-0.0333 0.58617,-0.0996 0.0805,-0.1996 -0.50372,-0.704 -0.97843,-0.84483 -0.24998,-0.0741 -0.58681,-0.18434 -0.7485,-0.24485 -0.16169,-0.0605 -0.42627,-0.15555 -0.58796,-0.2112 -0.56808,-0.19554 -0.64676,-0.25645 -0.64676,-0.50068 0,-0.25472 0.0244,-0.25953 0.70555,-0.1388 0.385,0.0683 0.55716,0.12336 1.35232,0.43306 1.25099,0.48724 1.59452,0.5454 1.85796,0.31458 0.25356,-0.22217 0.15061,-0.35109 -0.47625,-0.59639 -0.33955,-0.13288 -0.9084,-0.40977 -1.26412,-0.61533 -0.75262,-0.4349 -2.26667,-1.0888 -2.73403,-1.1808 -0.2195,-0.0432 -0.32338,-0.12922 -0.32338,-0.26776 0,-0.11226 0.0397,-0.20737 0.0882,-0.21136 0.0485,-0.004 0.40569,-0.0188 0.79375,-0.033 1.09115,-0.0398 2.14757,-0.6132 1.51908,-0.82451 -0.30464,-0.10244 -1.65481,-0.071 -2.0083,0.0468 -0.18048,0.0601 -0.75342,0.11736 -1.2732,0.12719 -0.84048,0.0159 -1.00646,-0.0137 -1.50003,-0.26709 -0.60363,-0.30996 -0.69201,-0.41534 -0.97937,-1.1678 -0.10538,-0.27593 -0.2921,-0.59741 -0.41493,-0.7144 -0.12284,-0.11699 -0.22334,-0.33086 -0.22334,-0.47525 0,-0.24309 -0.54812,-1.55325 -0.82158,-1.9638 -0.0655,-0.0984 -0.11917,-0.22641 -0.11917,-0.28447 0,-0.0581 -0.11199,-0.32529 -0.24886,-0.59385 -0.13688,-0.26856 -0.32209,-0.63899 -0.41158,-0.82316 -0.38527,-0.79293 -0.59157,-1.18722 -1.34186,-2.56466 -0.4365,-0.80137 -0.99199,-1.75188 -1.23441,-2.11223 -0.24242,-0.36035 -0.54453,-0.81747 -0.67136,-1.01581 -0.12683,-0.19834 -0.33127,-0.45634 -0.45432,-0.57333 -0.12304,-0.11699 -0.22372,-0.25166 -0.22372,-0.29925 0,-0.0476 -0.33073,-0.46189 -0.73495,-0.92067 l -0.73495,-0.83415 0.004,-3.348649 c 0.002,-1.94557 0.0617,-3.737184 0.14192,-4.275962 0.0759,-0.510022 0.19584,-1.414161 0.26651,-2.009183 0.0707,-0.595032 0.18244,-1.417026 0.24838,-1.826661 0.066,-0.409635 0.14204,-1.452863 0.16911,-2.318291 0.0462,-1.476949 0.10625,-1.948672 0.41028,-3.22207 0.20337,-0.851821 0.34015,-1.506557 0.47355,-2.266779 0.0696,-0.396685 0.17764,-0.999444 0.24007,-1.339455 0.11309,-0.615894 0.25273,-1.529198 0.40532,-2.650934 l 0.0803,-0.590221 -0.33773,-0.120399 c -0.49786,-0.177493 -4.15733,-0.177493 -5.04143,0 -4.31712,0.866699 -6.85292,2.700763 -9.34882,6.761713 -2.31992,3.774606 -3.52168,5.016793 -5.92535,6.124668 -2.23564,1.030426 -4.9364898,1.248207 -9.0086998,0.726409 -0.42039,-0.05389 -1.13477,-0.145503 -1.5875,-0.20363 -2.14891998,-0.2759 -3.35308998,-0.246819 -4.93889,0.119295 -1.40221,0.323723 -3.12612,1.20105 -3.94314,2.00673 -0.72094,0.710935 -1.3998603,1.711649 -1.6322003,2.405858 -0.0853,0.255012 -0.2084,0.591204 -0.27344,0.747098 -0.0849,0.203472 -0.0784,0.325502 0.0229,0.432504 0.0839,0.08857 0.10163,0.210745 0.0437,0.301047 -0.0902,0.140683 -1.8477899,1.198263 -1.9913499,1.198263 -0.13501,0 -4.55887,2.699119 -5.80845,3.543899 -0.42039,0.2842 -1.72908,1.35013 -2.9082,2.36872 -1.17912,1.01859 -2.21099,1.88898 -2.29306,1.93419 -0.15226,0.0839 -0.26466,0.0689 -1.08994,-0.14555 -0.6848,-0.17793 -2.21849,-0.84868 -3.15734,-1.38083 -0.77141,-0.43725 -2.37407,-1.18183 -3.01627,-1.40133 -0.16169,-0.0553 -0.38587,-0.14144 -0.49818,-0.1915 -0.1123,-0.05 -0.30762,-0.091 -0.43403,-0.091 -0.12641,0 -0.26254,-0.0464 -0.30252,-0.10303 -0.04,-0.0567 -0.22518,-0.10304 -0.41157,-0.10304 -0.18639,0 -0.36815,-0.0414 -0.4039,-0.0922 -0.0358,-0.0507 -0.26377,-0.11842 -0.50671,-0.15052 -0.24294,-0.0321 -0.75921,-0.10956 -1.14726,-0.17211 -0.38806,-0.0626 -1.73743,-0.15326 -2.99861,-0.20156 -2.15913,-0.0827 -2.68494,-0.14048 -3.6179,-0.39773 -0.36822,-0.10152 -3.15733,-1.371122 -4.26081,-1.939517 -1.04992,-0.540803 -1.79187,-0.858716 -2.00407,-0.858716 -0.11897,0 -0.24901,-0.04635 -0.28898,-0.103033 -0.04,-0.05669 -0.51793,-0.103033 -1.06212,-0.103033 -1.28628,0 -1.89485,0.262993 -2.17988,0.942052 -0.32841,0.782407 -0.35832,0.842717 -0.8871,1.788377 -0.54999,0.9836 -1.08078,1.82083 -1.20849,1.90615 -0.0424,0.0283 -0.17238,0.18261 -0.28884,0.34282 -0.18131,0.24946 -1.7568,1.87707 -1.96207,2.02699 -0.1761,0.12861 -0.79087,1.00468 -0.86764,1.23642 -0.0805,0.2429 -0.227842,1.47236 -0.381022,3.17884 -0.03881,0.43242 -0.0169,0.85249 0.05106,0.97884 0.06548,0.12173 0.207782,0.39791 0.316222,0.61373 0.10843,0.21582 0.25935,0.37473 0.33537,0.35313 0.18471,-0.0525 0.47384,-0.5888 0.79076,-1.46678 0.68635,-1.90148 1.98268,-3.3423 4.12353,-4.58309 1.69103,-0.98009 3.23013,-1.43446 4.8805,-1.44081 l 0.95472,-0.004 1.8675,0.5711 c 1.02712,0.3141 2.26437,0.68609 2.74944,0.82663 0.48507,0.14054 0.97383,0.30084 1.08613,0.35622 0.11231,0.0554 0.30762,0.10069 0.43404,0.10069 0.12641,0 0.25607,0.0371 0.28812,0.0826 0.0321,0.0455 0.32958,0.14736 0.66115,0.22647 0.33158,0.0791 0.6291,0.18103 0.66115,0.22648 0.0321,0.0455 0.17687,0.0826 0.32181,0.0826 0.14494,0 0.3138,0.0369 0.37524,0.082 0.0614,0.0451 0.32338,0.1409 0.58208,0.21288 0.2587,0.072 0.5762,0.17185 0.70556,0.22192 0.12935,0.05 0.48178,0.16095 0.78317,0.2464 2.17568,0.61689 6.01802,2.10273 7.09612,2.74409 1.53651,0.91408 2.21166,1.1541 3.33028,1.18392 l 0.98199,0.0262 0.3899,-0.29996 c 0.21445,-0.16498 0.72053,-0.72795 1.12463,-1.25106 0.4041,-0.5231 0.94849,-1.20611 1.20976,-1.51779 0.66578,-0.79424 1.86001,-2.17542 2.0936,-2.42133 0.10765,-0.11334 0.46861,-0.50745 0.80213,-0.8758 0.86968,-0.9605 2.25269,-2.2881 3.41129,-3.2746 0.91738,-0.78111 1.66159,-1.26729 3.5725499,-2.333887 1.3916003,-0.776721 1.9357303,-1.445257 2.6053703,-3.201024 0.40588,-1.064215 0.87811,-1.784815 1.56414,-2.386846 1.19637,-1.049887 2.80698,-1.690245 4.62288002,-1.837999 1.17111998,-0.09529 1.65729998,-0.007 1.60852998,0.293231 l -0.0362,0.222337 -1.18739998,0.06326 c -1.4538,0.07746 -2.53275002,0.366674 -3.50358002,0.939126 -1.58685,0.93569 -2.39442,1.925425 -3.36551,4.12465 -0.47961,1.086154 -0.84387,1.443085 -2.5655603,2.513942 -2.0704799,1.28778 -2.5699399,1.64673 -3.7830399,2.71874 -1.59146,1.40636 -2.97912,2.83884 -4.68659,4.83798 -0.36301,0.42502 -0.727,0.834 -0.80886,0.90884 -0.0819,0.0748 -0.29132,0.35304 -0.46547,0.61822 -0.60912,0.92749 -1.47171,1.99669 -1.89873,2.35355 -0.77849,0.65056 -0.96814,0.69942 -2.78248,0.71687 -2.20863,0.0212 -4.74062,0.29105 -6.76158,0.7205 -0.73278,0.15571 -2.62449,0.67727 -3.1162,0.85916 -1.45062,0.5366 -1.88887,0.70562 -2.82222,1.08842 -2.64878,1.08636 -3.95904,1.58582 -5.40506,2.06037 -0.60229,0.19766 -1.17724,0.35938 -1.27765,0.35938 -0.10042,0 -0.21167,0.0413 -0.24723,0.0917 -0.0356,0.0504 -0.23711,0.11661 -0.44791,0.14712 -0.2108,0.0305 -0.62139,0.10807 -0.91243,0.17238 -1.40157,0.30972 -1.89828,0.34273 -5.41561,0.35988 -4.15456,0.0202 -4.3919,0.0534 -4.51536,0.63002 -0.0385,0.17981 -0.0162,0.73793 0.0494,1.24029 0.0657,0.50236 0.11377,1.05248 0.10686,1.22249 l -0.0126,0.3091 -0.0937,-0.36062 c -0.11352,-0.43683 -0.393435,-1.10311 -0.504196,-1.20016 -0.04433,-0.0388 -0.08059,-0.40908 -0.08059,-0.82276 v -0.75216 l 0.399996,-0.35048 c 0.59303,-0.51962 1.26474,-0.59124 5.24445,-0.55918 2.29145,0.0185 3.51875,-0.0115 3.88055,-0.0946 0.29105,-0.0669 0.79375,-0.17683 1.11713,-0.24437 1.6286,-0.34014 3.67661,-1.02913 6.70278,-2.25496 1.37073,-0.55524 2.40227,-0.96024 3.35139,-1.31581 2.46128,-0.92204 4.63507,-1.41673 7.58472,-1.72604 0.84079,-0.0882 1.64744,-0.214 1.79255,-0.27962 l 0.26385,-0.1193 -0.93694,-0.54964 c -0.51531,-0.30229 -0.98682,-0.54962 -1.04779,-0.54962 -0.061,0 -0.1285,-0.0348 -0.15006,-0.0773 -0.092,-0.18134 -3.45773,-1.46849 -5.27207,-2.01617 -0.29104,-0.0879 -0.97896,-0.30495 -1.5287,-0.48243 -0.54975,-0.17748 -1.23767,-0.39064 -1.52871,-0.47369 -0.29104,-0.0831 -0.62105,-0.19592 -0.73336,-0.2508 -0.1123,-0.0549 -0.30762,-0.0998 -0.43403,-0.0998 -0.12641,0 -0.25607,-0.0372 -0.28812,-0.0826 -0.0321,-0.0455 -0.32958,-0.14736 -0.66115,-0.22647 -0.33158,-0.0791 -0.6291,-0.18103 -0.66115,-0.22648 -0.0321,-0.0455 -0.17864,-0.0826 -0.32573,-0.0826 -0.1471,0 -0.30206,-0.0303 -0.34437,-0.0674 -0.0738,-0.0647 -2.39722,-0.77926 -4.37199,-1.34469 l -0.94075,-0.26935 -1.09226,0.11973 c -2.09362,0.22948 -4.02967,1.1161 -5.73708,2.62729 -1.3217,1.16982 -1.5467,1.50415 -1.87886,2.79182 -0.30057,1.16521 -0.41299,1.41804 -0.79319,1.78379 -0.54503,0.52431 -1.611106,0.069 -1.611106,-0.68801 0,-0.11077 -0.04733,-0.22702 -0.10517,-0.25834 -0.175755,-0.0952 -0.274657,-0.86751 -0.284541,-2.22199 -0.01554,-2.12897 0.264482,-2.63577 3.035547,-5.49405 0.51741,-0.5337 1.06735,-1.17344 1.22209,-1.42166 0.38405,-0.61602 0.96228,-1.63767 1.08644,-1.91957 0.20122,-0.456806 0.36645,-0.801461 0.46861,-0.97743 0.0571,-0.0984 0.10388,-0.250043 0.10388,-0.336988 0,-0.23775 0.98109,-0.79591 1.67084,-0.950578 0.59765,-0.134016 1.43989,-0.06493 2.15092,0.176494 0.48759,0.16555 1.89295,0.77142 2.17546,0.937873 0.85996,0.506683 3.58593,1.755349 4.36278,1.998409 0.35698,0.11169 1.3009,0.19302 3.04555,0.26243 2.34548,0.0933 3.11658,0.16874 4.26273,0.41706 1.09107,0.23639 1.45428,0.32797 1.6447,0.41469 0.11231,0.0512 0.28501,0.093 0.38378,0.093 0.0988,0 0.27146,0.0409 0.38377,0.091 0.1123,0.05 0.33648,0.13793 0.49817,0.19527 0.57059,0.20236 1.5939,0.64892 2.12343,0.92665 0.29476,0.15459 0.92407,0.48403 1.39846,0.73209 0.9838,0.51442 2.06782,0.96002 2.803,1.15219 l 0.50406,0.13175 1.6714,-1.43899 c 2.79436,-2.4058 3.80293,-3.14628 6.37511,-4.680523 0.51741,-0.308626 0.95838,-0.595908 0.97994,-0.638412 0.0216,-0.0425 0.10093,-0.07789 0.17639,-0.07868 0.0754,-7.62e-4 0.26948,-0.09335 0.43117,-0.20575 0.16169,-0.112409 0.91576,-0.557688 1.6757,-0.989508 1.0110199,-0.574502 1.3817099,-0.840894 1.3817099,-0.99296 0,-0.736258 0.89318,-2.505782 1.7920903,-3.550394 0.98994,-1.150388 2.60475,-2.090548 4.44032,-2.585183 0.65817,-0.177362 2.43897002,-0.242236 3.58657,-0.130669 0.9994,0.09715 1.45734,0.160477 2.99861,0.41463 2.32082,0.382691 4.2034,0.460971 5.58565,0.232264 1.3327898,-0.220532 1.4729398,-0.251778 1.5370798,-0.34271 0.0354,-0.05012 0.1597,-0.09116 0.2763,-0.09116 0.1166,0 0.60917,-0.179008 1.0946,-0.397797 2.47574,-1.11583 3.67993,-2.30053 5.87946,-5.784323 0.9531,-1.509597 1.4824,-2.26535 2.09269,-2.988018 0.60633,-0.717981 1.91227,-1.863751 2.58422,-2.267279 0.22637,-0.135934 0.43803,-0.274804 0.47037,-0.30859 0.0789,-0.08245 1.16081,-0.638719 1.52871,-0.785992 1.54388,-0.618005 2.49673,-0.866882 4.07947,-1.065545 1.10933,-0.139237 2.18009,-0.134164 3.47118,0.01647 0.89398,0.104286 1.06737,0.10044 1.16102,-0.02576 0.14291,-0.192564 0.0705,-3.43675 -0.0872,-3.910742 -0.1857,-0.557898 -0.53309,-1.153367 -0.86045,-1.474908 -0.68024,-0.668168 -0.63946,-1.394586 0.10914,-1.944291 0.22943,-0.168468 1.26381,-0.709788 2.29863,-1.202943 2.96205,-1.411611 3.19629,-1.52868 3.97187,-1.985052 0.4025,-0.236847 1.18762,-0.812751 1.7447,-1.279795 1.63124,-1.367599 2.79679,-1.807331 3.39685,-1.281555 0.40638,0.356063 0.30575,0.900651 -0.3427,1.854638 -0.26003,0.382551 -2.2453,3.977272 -2.24484,4.064734 2.8e-4,0.05389 0.064,0.04223 0.14162,-0.02576 0.17126,-0.150068 2.66082,-0.171517 3.20192,-0.0276 0.19862,0.05284 0.59926,0.155 0.8903,0.227051 1.16387,0.288131 2.50041,1.127606 3.54819,2.228611 0.18598,0.195437 0.5462,0.399322 0.88194,0.499183 1.0983,0.326667 1.99356,1.049247 2.47529,1.997827 0.11723,0.230854 0.18502,0.675783 0.18838,1.236423 0.006,0.958008 -0.20075,1.462089 -0.87722,2.141569 -0.18533,0.186149 -0.33695,0.40931 -0.33695,0.495906 0,0.442956 -0.78701,1.568074 -1.55023,2.21623 l -0.80163,0.680777 v 0.970625 c 0,1.332542 -0.084,1.428609 -1.24979,1.428609 -0.84683,0 -1.21965,0.117937 -1.21965,0.385829 0,0.05029 -0.17682,0.228593 -0.39293,0.396237 -0.21611,0.167645 -0.41609,0.365711 -0.44441,0.440153 -0.0283,0.07448 -0.30941,0.177572 -0.62465,0.229172 -0.42697,0.06992 -0.68293,0.192406 -1.00357,0.480362 -0.50217,0.450974 -0.85215,0.644134 -1.1671,0.644134 -0.42194,0 -1.22987,-0.461752 -2.12173,-1.212625 -0.87803,-0.739219 -1.19394,-0.901484 -1.61524,-0.829661 l -0.21509,0.03663 -0.009,1.49223 c -0.005,0.820725 0.0326,1.863155 0.0838,2.316513 0.0512,0.453348 0.12259,3.289459 0.15865,6.302449 l 0.0656,5.478169 -0.70792,0.48732 c -0.38935,0.26802 -0.70791,0.50678 -0.70791,0.53058 0,0.12134 0.9694,-0.2615 2.62815,-1.037912 1.68124,-0.786947 2.88725,-0.961557 4.05606,-0.587224 0.9388,0.300661 1.41077,0.680662 2.37325,1.910806 0.90681,1.15898 1.28758,1.54981 1.838,1.88657 0.48782,0.29846 1.21593,0.30364 1.59049,0.0113 l 0.2763,-0.21565 -0.65574,-0.58288 c -0.92708,-0.82407 -1.33168,-1.31214 -1.74801,-2.108611 -0.58942,-1.127606 -0.43821,-1.736779 0.51802,-2.086859 0.28941,-0.10595 0.46788,-0.256991 0.55123,-0.466483 0.0878,-0.220698 0.22084,-0.326903 0.46257,-0.369259 0.18662,-0.03268 0.33931,-0.106511 0.33931,-0.164017 0,-0.160091 0.38119,-0.377925 0.66775,-0.381587 0.39529,-0.0053 0.63765,-0.271563 0.51146,-0.562402 -0.14283,-0.329164 -0.0363,-0.628784 0.2712,-0.762633 0.14007,-0.06098 1.07489,-0.133683 2.07736,-0.161581 1.00248,-0.02786 2.11373,-0.100238 2.46945,-0.160766 1.88835,-0.321305 2.85124,-0.220033 4.55771,0.479363 1.94044,0.79529 3.66329,2.823679 4.35863,5.131595 0.40329,1.33858 0.4764,3.36978 0.15947,4.43052 -0.16286,0.54509 -0.34276,1.09744 -0.51177,1.57129 -0.18533,0.51958 -0.26757,3.00891 -0.10414,3.1521 0.0684,0.0599 0.12436,0.19464 0.12436,0.29933 0,0.10471 0.25135,0.40845 0.55856,0.67497 0.57202,0.49627 1.24882,0.74202 2.04355,0.74202 0.58885,0 1.23869,0.38631 1.51443,0.9003 0.21632,0.40324 0.22659,0.49599 0.092,0.83071 -0.20219,0.50266 -0.87658,1.07475 -1.43972,1.22133 -0.53758,0.13992 -0.76971,0.0863 -0.76971,-0.17779 0,-0.22429 0.3333,-0.40474 0.74758,-0.40474 0.44443,0 1.01631,-0.55391 1.01631,-0.98438 0,-0.50966 -0.26118,-0.6294 -2.14041,-0.9813 -1.04202,-0.19513 -1.55572,-0.66455 -2.08724,-1.90732 -0.23474,-0.54884 -0.0338,-3.96964 0.24192,-4.11896 0.0578,-0.0314 0.10517,-0.1903 0.10517,-0.35327 0,-0.16297 0.0551,-0.42335 0.12249,-0.5786 0.16564,-0.38173 0.1522,-3.05672 -0.0186,-3.69799 -0.25226,-0.94726 -0.93295,-2.555194 -1.15588,-2.730435 -0.036,-0.0283 -0.14482,-0.187885 -0.24173,-0.354557 -0.0969,-0.166672 -0.57308,-0.657934 -1.05815,-1.091691 -0.8326,-0.744529 -1.37502,-1.050544 -2.52824,-1.426348 -0.26425,-0.08613 -2.86587,-0.331646 -2.95476,-0.278863 -0.008,0.0053 0.0187,0.357888 0.0598,0.784451 0.0411,0.426554 0.0572,0.855439 0.0357,0.953075 -0.0772,0.351428 -0.22602,0.166768 -0.298,-0.36989 -0.0404,-0.301065 -0.13318,-0.697583 -0.20621,-0.881139 l -0.13278,-0.333748 -0.48614,0.0311 -0.48614,0.03111 0.0322,0.412143 c 0.0251,0.321033 0.12254,0.482877 0.44097,0.732166 0.67637,0.529517 0.47044,0.778614 -0.24719,0.299014 -0.40665,-0.271764 -0.75514,-0.779911 -0.75514,-1.101084 0,-0.112137 -0.12618,-0.234823 -0.30164,-0.293275 -0.39616,-0.131975 -2.48584,-0.130057 -2.57925,0.0026 -0.0399,0.0566 0.006,0.201291 0.10232,0.321602 0.12879,0.161117 0.14521,0.287098 0.0623,0.478128 -0.0619,0.142664 -0.0922,0.277223 -0.0673,0.299032 0.1156,0.101298 0.44097,-0.116273 0.50425,-0.337182 0.0801,-0.279693 0.19129,-0.309712 0.38594,-0.104207 0.19909,0.210193 -0.0375,0.664628 -0.4107,0.788962 -0.22916,0.07632 -0.39869,0.06387 -0.6549,-0.0481 -0.19013,-0.08306 -0.42261,-0.125245 -0.51661,-0.09364 -0.2834,0.09529 -0.55293,0.70977 -0.46507,1.060279 0.066,0.2633 0.043,0.314225 -0.14224,0.314225 -0.12156,0 -0.27129,-0.04039 -0.33273,-0.08973 -0.22902,-0.183959 -0.72877,-0.22033 -0.87701,-0.06379 -0.08,0.08447 -0.19694,0.153555 -0.25988,0.153555 -0.28998,0 -0.79751,0.439461 -0.79751,0.690546 0,1.025371 1.24298,2.627781 2.72582,3.514061 l 0.55035,0.32894 h 0.85241 c 0.98939,0 1.55625,-0.13036 2.74342,-0.63091 0.65189,-0.27487 1.69177,-1.06271 1.94078,-1.4704 0.18191,-0.29782 0.35945,-0.35309 0.35945,-0.1119 0,0.25435 -0.53337,0.91978 -1.04453,1.30316 -0.52863,0.39647 -1.82109,1.01309 -2.12347,1.01309 -0.10733,0 -0.24542,0.0436 -0.30686,0.0969 -0.0614,0.0533 -0.53505,0.12657 -1.05246,0.16282 -1.26305,0.0885 -1.38505,0.13324 -0.88194,0.32332 0.56202,0.21234 1.91802,0.12358 3.41018,-0.22323 1.16887,-0.27167 2.26576,-1.11647 3.11769,-2.40119 0.5443,-0.820803 0.76287,-1.015409 0.76287,-0.67925 0,0.22731 -0.63163,1.21942 -1.19341,1.8745 -0.78136,0.91113 -1.88262,1.49471 -3.33391,1.76671 -0.38805,0.0727 -0.76922,0.14808 -0.84703,0.16743 -0.0778,0.0194 -0.27973,0.21825 -0.44871,0.44198 -0.46634,0.61745 -0.63611,1.67694 -0.49925,3.11575 0.18607,1.95614 -0.13875,3.01534 -1.16736,3.80666 -0.58202,0.44777 -1.9017,0.97495 -3.11682,1.2451 -0.53701,0.11939 -1.05576,0.23851 -1.15277,0.2647 -0.30648,0.0827 0.54174,0.32957 1.58815,0.46213 1.70456,0.21595 3.97266,-0.21825 5.34159,-1.02258 0.4166,-0.24478 0.82385,-0.42272 0.90499,-0.39544 0.0812,0.0272 0.33826,-0.0638 0.57135,-0.20239 0.2331,-0.1386 0.45161,-0.252 0.48559,-0.252 0.0657,0 1.00225,-0.55321 1.38745,-0.81959 0.40447,-0.2797 1.41135,-1.18066 1.71532,-1.53485 0.30613,-0.35672 0.61497,-0.80801 1.20918,-1.76696 0.19314,-0.31169 0.39695,-0.61075 0.45293,-0.66458 0.13208,-0.12702 0.13444,0.0927 0.004,0.33111 -0.81128,1.47774 -1.0174,1.83544 -1.08276,1.879 -0.0425,0.0283 -0.14344,0.16143 -0.22424,0.29576 -0.42169,0.70104 -1.63762,1.70393 -3.06767,2.53017 -0.64413,0.37217 -1.38234,0.86735 -1.64047,1.1004 -0.33783,0.30502 -0.48715,0.38298 -0.533,0.2783 -0.0504,-0.11518 -0.2281,-0.0745 -0.8538,0.1954 -0.43456,0.18746 -1.05469,0.39357 -1.37807,0.45803 -0.88293,0.17598 -2.96349,0.22542 -3.70417,0.088 -1.19351,-0.22142 -2.05315,-0.43315 -2.72832,-0.672 l -0.67044,-0.23718 -0.91706,0.18622 c -2.16491,0.43966 -3.59013,0.61955 -4.90845,0.61955 -1.14284,0 -1.14196,-8.7e-4 -0.76465,0.78478 0.19331,0.40256 0.34588,0.54952 0.76303,0.73499 0.57192,0.25429 1.56228,0.31177 2.1275,0.12348 0.17889,-0.0596 0.83244,-0.11355 1.45234,-0.11989 1.2913,-0.0132 1.69718,0.13328 1.82928,0.6603 0.0968,0.3862 -0.20309,0.78827 -0.74834,1.00327 -0.20558,0.0811 -0.37368,0.17379 -0.37357,0.20607 1.2e-4,0.0323 0.22848,0.18503 0.50746,0.33946 0.27899,0.15442 0.65943,0.39535 0.84542,0.53537 0.18598,0.14004 0.57431,0.31507 0.86294,0.38896 0.73243,0.18752 1.19416,0.58713 1.19416,1.03353 0,0.42921 -0.40111,0.8009 -0.86427,0.8009 -0.27987,0 -0.30469,0.025 -0.1982,0.1993 0.18596,0.30447 0.14679,0.56928 -0.12981,0.87738 l -0.25154,0.2802 -0.60101,-0.0413 c -0.33055,-0.0227 -0.69524,-0.0785 -0.81042,-0.12399 -0.18634,-0.0736 -0.20208,-0.0388 -0.14289,0.31593 0.0366,0.21924 0.0148,0.46654 -0.0483,0.54955 -0.16596,0.21808 -1.00238,0.16244 -1.41346,-0.094 -0.43035,-0.2685 -0.52278,-0.26631 -0.44019,0.0104 0.0843,0.28249 -0.20233,0.77469 -0.49923,0.85725 -0.26359,0.0733 -0.90305,-0.14387 -1.24555,-0.42303 -0.12985,-0.10583 -0.71193,-0.53892 -1.29352,-0.96241 -1.53967,-1.12115 -4.09306,-3.38835 -4.35468,-3.8666 -0.1489,-0.2722 -0.21841,-0.60032 -0.20473,-0.96633 0.0169,-0.4515 -0.0569,-0.69017 -0.39832,-1.28794 -0.56228,-0.98457 -0.55153,-0.97576 -1.08687,-0.88999 -0.54318,0.087 -1.54172,-0.0356 -2.59755,-0.31894 -0.91715,-0.24614 -0.90097,-0.24026 -2.52824,-0.91824 -2.15949,-0.89972 -1.79334,-0.84237 -3.95872,-0.61996 -1.0565,0.10851 -2.45008,0.29259 -3.09684,0.40905 -1.13649,0.20466 -1.46294,0.27407 -2.46944,0.52513 -0.2587,0.0645 -0.61654,0.14203 -0.79519,0.17224 -0.17865,0.0302 -0.35375,0.0959 -0.38912,0.14607 -0.0354,0.0501 -0.16772,0.0912 -0.29413,0.0912 -0.12642,0 -0.32173,0.0409 -0.43404,0.091 -0.1123,0.05 -0.33648,0.13659 -0.49817,0.19228 -0.16169,0.0557 -0.42627,0.15078 -0.58796,0.21129 -0.16169,0.0605 -0.50565,0.16891 -0.76435,0.24089 -0.25871,0.072 -0.52064,0.16778 -0.58209,0.21288 -0.0614,0.0451 -0.23029,0.082 -0.37523,0.082 -0.14494,0 -0.29262,0.0413 -0.32817,0.0917 -0.10235,0.14509 -0.83883,0.23504 -2.34018,0.28581 -1.19815,0.0405 -1.5003,0.0162 -2.1754598,-0.1747 -1.10469,-0.31245 -2.17433,-0.77403 -3.1594,-1.36339 -1.30829,-0.78272 -1.83707,-1.42947 -2.2189,-2.71392 -0.21412,-0.72032 -0.3352,-3.41819 -0.19142,-4.26525 0.0625,-0.36835 0.0927,-0.68961 0.067,-0.71392 -0.0455,-0.043 -0.49954,0.15512 -1.33733,0.58356 -1.62892,0.83301 -5.81666,2.92322 -6.52639,3.25748 -0.25871,0.12184 -0.49683,0.24471 -0.52917,0.27305 -0.0323,0.0283 -0.18511,0.11383 -0.33949,0.19 -0.43217,0.21321 -1.02928,0.51005 -1.4832,0.73732 -0.22636,0.11333 -0.61001,0.30339 -0.85254,0.42234 -0.24254,0.11895 -0.9172203,0.45204 -1.4993103,0.7402 -1.9889499,0.98462 -2.3523199,1.15936 -2.9398099,1.41365 -0.32338,0.13997 -0.61442,0.27831 -0.64676,0.30741 -0.057,0.0513 -0.14228,0.0952 -1.04505,0.53845 -0.6571,0.32261 -2.01212,1.16003 -2.66798,1.64885 -1.93283,1.44057 -2.4636,1.66712 -4.16567,1.77803 -0.48507,0.0316 -1.62278,0.10376 -2.52825,0.16032 -2.88152,0.17999 -4.96053,0.39274 -7.9375,0.81227 -1.28277,0.18078 -1.59499,0.22871 -2.05787,0.31593 -0.2587,0.0487 -0.78787,0.14379 -1.17592,0.21122 -5.72783,0.99519 -9.30888,2.17651 -11.51963,3.80011 -1.75744,1.29067 -2.70377,2.42381 -4.22328,5.05696 -0.70347,1.21902 -1.40998,2.43775 -1.57002,2.70829 -0.30173,0.51002 -0.33786,0.83106 -0.21133,1.87792 0.0625,0.51737 0.0356,0.67284 -0.16521,0.95308 l -0.23995,0.33487 h -0.57365 c -0.46703,0 -0.63292,-0.052 -0.89247,-0.27936 z m 65.80624,-19.20255 c 0.91639,-0.16279 1.53959,-0.30843 1.77127,-0.41394 0.1123,-0.0512 0.285,-0.093 0.38377,-0.093 0.0988,0 0.27146,-0.0416 0.38377,-0.0924 0.1123,-0.0508 0.60107,-0.19547 1.08613,-0.32138 0.48507,-0.1259 0.98778,-0.26424 1.11713,-0.30741 0.12936,-0.0432 0.63206,-0.18236 1.11713,-0.3093 0.48507,-0.12693 1.01424,-0.26863 1.17593,-0.31489 0.716,-0.20484 2.96322,-0.63482 4.10373,-0.7852 0.6857,-0.0904 1.28632,-0.19503 1.33469,-0.23249 0.0484,-0.0374 -0.29558,-0.24061 -0.76435,-0.45145 -0.91548,-0.41176 -1.52213,-0.70883 -1.61666,-0.79166 -0.0323,-0.0283 -0.17786,-0.10948 -0.32338,-0.18031 -0.14552,-0.0708 -0.38365,-0.18676 -0.52917,-0.25759 -0.14552,-0.0708 -0.29104,-0.15198 -0.32338,-0.18032 -0.0323,-0.0283 -0.18511,-0.11383 -0.33949,-0.18999 -0.15438,-0.0761 -0.47188,-0.23369 -0.70555,-0.35005 -1.47179,-0.73286 -1.643,-0.79719 -1.97084,-0.74032 -0.35571,0.0617 -1.83665,-0.38783 -3.39239,-1.02971 -0.45302,-0.18691 -1.08826,-0.44381 -1.41164,-0.5709 -1.6891,-0.66378 -2.22063,-1.00325 -2.36613,-1.51121 -0.12307,-0.42965 0.0833,-0.80165 0.47826,-0.86199 l 0.34123,-0.0521 -0.432,-0.28859 c -0.36977,-0.24702 -0.432,-0.34752 -0.432,-0.6977 0,-0.33583 0.0524,-0.43002 0.29246,-0.52587 0.25949,-0.10359 0.28434,-0.16125 0.22045,-0.51135 -0.0902,-0.49452 0.18476,-0.913 0.59999,-0.913 0.15638,0 0.31703,0.0464 0.357,0.10304 0.04,0.0567 0.14994,0.10303 0.24437,0.10303 0.12455,0 0.15137,-0.071 0.0977,-0.25834 -0.0989,-0.34536 0.22456,-0.77201 0.58536,-0.77201 0.34839,0 0.77467,0.37147 1.49024,1.29862 0.83729,1.08486 1.1005,1.24868 2.43304,1.51433 0.36793,0.0733 0.35599,-0.30188 -0.0243,-0.76276 -0.49902,-0.60483 -0.67932,-1.03966 -0.54121,-1.30527 0.0674,-0.12954 0.20274,-0.26251 0.30084,-0.2955 0.42238,-0.14201 1.78408,0.72124 2.11574,1.34128 0.0946,0.17683 0.22684,0.75206 0.29389,1.27828 0.12062,0.94654 0.28608,1.36153 0.54285,1.36153 0.11469,0 0.50041,0.12206 1.66309,0.52624 0.64142,0.22298 0.92515,0.32828 1.12068,0.41592 0.15445,0.0692 0.33942,0.018 0.70555,-0.19548 0.27292,-0.15913 0.65497,-0.35599 0.849,-0.4375 0.19403,-0.0815 0.73268,-0.37609 1.197,-0.65464 0.51544,-0.30922 0.91616,-0.48227 1.02894,-0.44436 0.271,0.0911 0.22863,-0.0635 -0.18461,-0.6739 -0.73845,-1.09064 -0.89492,-1.37906 -1.02262,-1.88492 -0.0715,-0.28334 -0.18448,-0.73277 -0.251,-0.9987 -0.0665,-0.26594 -0.12095,-1.252101 -0.12095,-2.191463 v -1.707935 l -0.32338,0.05862 c -0.30355,0.05494 -0.56242,0.110516 -1.64629,0.353181 -0.24254,0.05433 -0.73202,0.152258 -1.08774,0.217676 -0.35571,0.06545 -0.76831,0.160091 -0.91687,0.210377 -0.14857,0.05029 -0.3968,0.09143 -0.55163,0.09143 -0.15483,0 -0.31421,0.04635 -0.35418,0.103033 -0.04,0.05669 -0.25164,0.103041 -0.47037,0.103041 -0.21873,0 -0.4304,0.04635 -0.47037,0.103033 -0.04,0.05669 -0.19936,0.103033 -0.35419,0.103033 -0.15483,0 -0.40306,0.04153 -0.55162,0.09231 -0.14857,0.05073 -0.50824,0.150181 -0.79928,0.220926 -3.96089,0.962766 -7.7967,2.337348 -9.7712198,3.501568 -1.1817,0.69676 -2.45585,1.88574 -2.92334,2.72794 -0.73922,1.3317 -0.75422,1.4024 -0.75422,3.55471 0,2.03146 0.0154,2.11992 0.55592,3.2014 0.32043,0.64108 0.98541,1.16061 2.36891,1.85077 0.81539,0.40677 1.3867,0.64388 2.23367,0.92705 0.8182098,0.27355 2.2073198,0.35976 3.1366298,0.19466 z m 21.14624,-1.01455 c 0,-0.0525 -0.27254,-0.48139 -0.60564,-0.95308 -0.3331,-0.47168 -0.66491,-0.95424 -0.73734,-1.07235 -0.70828,-1.15491 -1.54415,-2.00051 -1.97746,-2.00051 -0.0542,0 -0.64074,-0.22575 -1.30341,-0.50166 -0.66267,-0.27591 -1.59996,-0.65229 -2.08286,-0.8364 -0.48291,-0.18411 -1.09394,-0.41959 -1.35786,-0.52331 -0.26391,-0.10372 -0.76662,-0.28735 -1.11713,-0.40807 -0.3505,-0.12071 -0.82249,-0.29014 -1.04885,-0.3765 -0.22637,-0.0864 -0.51741,-0.19246 -0.64676,-0.23577 -0.12936,-0.0433 -0.38071,-0.13131 -0.55857,-0.19556 -0.599,-0.21639 -0.85074,-0.30155 -1.26412,-0.42761 -0.73766,-0.22496 -1.11395,-0.39509 -1.29352,-0.58482 -0.30244,-0.31956 -0.47037,-0.89497 -0.47037,-1.61171 0,-0.37927 -0.0661,-0.79327 -0.14699,-0.92001 -0.2338,-0.36651 -0.70623,-0.79712 -0.87455,-0.79712 -0.0849,0 -0.15438,-0.0464 -0.15438,-0.10304 0,-0.0567 -0.1405,-0.10303 -0.31221,-0.10303 h -0.31221 l 0.18291,0.18031 c 0.32291,0.31834 0.5591,0.9631 0.5591,1.52627 0,0.30142 -0.0506,0.57543 -0.11245,0.60893 -0.18479,0.10006 -1.65158,-0.24086 -2.01691,-0.4688 -0.18654,-0.11638 -0.58892,-0.52155 -0.89418,-0.90037 -0.30526,-0.37881 -0.58359,-0.71194 -0.61849,-0.74027 -0.0349,-0.0283 -0.21139,-0.22539 -0.39217,-0.4379 -0.18078,-0.21251 -0.37892,-0.38638 -0.4403,-0.38638 -0.22358,0 -0.10316,0.43729 0.24117,0.87579 0.19402,0.2471 0.35277,0.49888 0.35277,0.55951 0,0.0606 0.0529,0.11022 0.1176,0.11022 0.0647,0 0.11759,0.0496 0.11759,0.11024 0,0.0606 0.15875,0.3124 0.35278,0.5595 0.33663,0.42871 0.4742,0.97883 0.24477,0.97883 -0.0594,0 -0.22333,-0.16351 -0.36429,-0.36336 -0.14097,-0.19984 -0.31726,-0.42008 -0.39177,-0.48941 -0.0745,-0.0693 -0.21056,-0.25357 -0.30233,-0.40941 -0.0918,-0.15584 -0.2397,-0.28335 -0.32873,-0.28335 -0.089,0 -0.29774,-0.11905 -0.46382,-0.26457 -0.37791,-0.33113 -0.85831,-0.50225 -1.01777,-0.36253 -0.0765,0.067 0.16515,0.35855 0.70795,0.85387 0.45327,0.41364 0.92428,0.86029 1.04668,0.99255 0.1224,0.13227 0.34154,0.3641 0.48699,0.51518 0.27266,0.28324 0.34307,0.58072 0.1608,0.67942 -0.0571,0.0309 -0.25559,-0.0993 -0.44097,-0.28938 -0.81801,-0.83891 -1.35372,-1.30025 -1.50987,-1.30025 -0.0926,0 -0.30343,-0.0539 -0.46844,-0.11978 -0.48985,-0.19556 -0.4877,-0.0106 0.005,0.41082 0.90745,0.77654 1.98926,1.89308 1.98926,2.05313 0,0.29746 -0.24771,0.24186 -0.79171,-0.17771 -0.29585,-0.22818 -0.59164,-0.41487 -0.65732,-0.41487 -0.0657,0 -0.27903,-0.0803 -0.47413,-0.17838 -0.19509,-0.0981 -0.38583,-0.15111 -0.42387,-0.11778 -0.14934,0.13086 0.0876,0.35885 0.61675,0.59348 1.46243,0.64847 2.59639,1.13482 3.0238,1.29691 0.2587,0.0981 0.5762,0.21958 0.70555,0.26993 0.95068,0.37004 1.91743,0.61784 2.21022,0.56653 0.37808,-0.0662 0.71129,0.0661 2.34256,0.93026 1.0366,0.54915 1.46467,0.76998 2.10449,1.08564 0.15438,0.0761 0.30715,0.16757 0.33949,0.20312 0.074,0.0814 5.911,2.57866 6.46759,2.76708 0.22637,0.0766 0.46449,0.16957 0.52917,0.20653 0.0647,0.037 0.35572,0.12685 0.64676,0.19975 0.29104,0.0729 0.635,0.17083 0.76435,0.21765 0.3256,0.11785 2.05787,0.12087 2.05787,0.004 z m 7.52593,-0.88182 c 2.10135,-0.2352 3.75677,-0.50919 4.14136,-0.68544 0.11111,-0.0509 0.82549,-0.1091 1.5875,-0.12929 1.32649,-0.0351 2.35661,-0.20431 3.14938,-0.51716 0.19403,-0.0766 0.56444,-0.22452 0.82315,-0.32877 0.69408,-0.27972 1.51261,-1.04372 1.7588,-1.64164 0.16417,-0.3987 0.22834,-0.98888 0.2909,-2.67529 0.0615,-1.65645 0.1253,-2.2538 0.27233,-2.54787 0.21848,-0.43698 0.2148,-0.44106 -0.49116,-0.54349 -0.28653,-0.0416 -0.70599,-0.16666 -0.93212,-0.27795 l -0.41115,-0.20235 -0.70166,0.17251 c -1.3731,0.33758 -2.09432,0.0205 -3.19516,-1.40478 -0.32284,-0.41798 -0.62711,-0.77543 -0.67615,-0.79432 -0.049,-0.0189 -0.0892,-0.0834 -0.0892,-0.14344 0,-0.2179 -1.09557,-1.225824 -1.5706,-1.444963 -0.41715,-0.192432 -0.67343,-0.224239 -1.78079,-0.220997 -1.46179,0.0044 -1.80979,0.10221 -3.23577,0.91047 -1.35056,0.76552 -2.25519,1.0835 -3.09129,1.0866 -0.18917,7.1e-4 -0.62522,0.17699 -1.02248,0.41337 -0.38096,0.22668 -0.74847,0.41214 -0.8167,0.41214 -0.0682,0 -0.12404,0.035 -0.12404,0.0779 0,0.0768 -0.10127,0.12146 -1.20533,0.53158 -0.30721,0.11412 -0.55856,0.22866 -0.55856,0.25451 0,0.0259 0.30058,0.50277 0.66796,1.05978 0.55292,0.83834 1.90299,3.22541 2.40844,4.25836 0.0693,0.14168 0.17278,0.3381 0.22991,0.4365 0.0571,0.0984 0.10388,0.24821 0.10388,0.33291 0,0.2511 0.54602,0.29914 1.98969,0.17504 1.28541,-0.11051 1.81291,-0.1841 3.06679,-0.42788 0.29104,-0.0566 1.00541,-0.17402 1.5875,-0.26097 0.58208,-0.0869 1.40229,-0.20954 1.82268,-0.27242 0.99573,-0.14893 1.49482,-0.37747 2.08408,-0.95435 0.26479,-0.25922 0.5392,-0.47132 0.60979,-0.47132 0.23394,0 0.13306,0.4388 -0.18483,0.80397 -0.81633,0.93778 -1.17653,1.09647 -2.86182,1.26077 -0.54974,0.0536 -1.23766,0.14428 -1.5287,0.20153 -0.29104,0.0572 -0.82021,0.15461 -1.17593,0.21637 -0.35571,0.0618 -0.88488,0.15529 -1.17592,0.2078 -0.67626,0.12203 -2.08445,0.29262 -3.02801,0.36683 -0.40423,0.0318 -0.73495,0.0762 -0.73495,0.0987 0,0.0225 0.0467,0.12143 0.10387,0.21983 0.0571,0.0984 0.15588,0.29483 0.21945,0.4365 0.20273,0.45182 0.40655,0.87043 0.51354,1.05472 0.0571,0.0984 0.10388,0.22024 0.10388,0.27076 0,0.0506 0.0801,0.2598 0.17796,0.46506 l 0.17797,0.37321 0.67458,-8.2e-4 c 0.37102,-4.6e-4 1.28312,-0.069 2.02689,-0.15219 z m 1.24139,-12.23415 c -0.39332,-0.49202 -0.0667,-1.007427 0.63836,-1.007427 0.74752,0 1.05781,0.487037 0.64182,1.007427 -0.13577,0.16984 -0.30111,0.229 -0.64009,0.229 -0.33898,0 -0.50432,-0.0591 -0.64009,-0.229 z m -12.25225,8.23998 c -0.0487,-0.0708 -0.73978,-1.00077 -1.53564,-2.06653 -0.79586,-1.06576 -1.44761,-1.99308 -1.44833,-2.06071 -7.1e-4,-0.0676 -0.13684,0.0277 -0.3025,0.21191 -0.16566,0.18417 -0.36351,0.33674 -0.43967,0.33905 -0.0762,0.003 -0.32168,0.1414 -0.5456,0.30911 -0.22392,0.1677 -0.47087,0.30492 -0.54876,0.30492 -0.0779,0 -0.15928,0.036 -0.18083,0.08 -0.0216,0.044 -0.31619,0.19885 -0.65473,0.34408 l -0.61553,0.26405 0.26275,0.10907 c 0.14452,0.06 0.44796,0.17847 0.67433,0.26327 1.88919,0.70773 4.28398,1.65515 4.6449,1.8376 0.42512,0.21492 0.81853,0.25152 0.68961,0.0641 z m 3.10435,-6.3504 c 0.11231,-0.05 0.34971,-0.14279 0.52757,-0.20607 0.17786,-0.0633 0.4689,-0.17164 0.64676,-0.24081 0.52471,-0.20404 2.71576,-1.49896 3.76296,-2.223926 l 0.97014,-0.671602 -6.8e-4,-4.903309 c -3.7e-4,-2.696811 -0.0498,-5.165976 -0.1098,-5.487026 -0.06,-0.321051 -0.12045,-1.596114 -0.13428,-2.833474 l -0.0251,-2.249745 0.56409,-0.02751 c 0.65988,-0.03216 0.87487,0.07141 1.88129,0.906365 0.38805,0.321953 0.9604,0.714195 1.27187,0.871632 0.48594,0.245635 0.60412,0.268539 0.83264,0.161379 0.14647,-0.06869 0.35952,-0.263133 0.47343,-0.432101 0.11392,-0.168967 0.38746,-0.382569 0.60788,-0.474667 0.39584,-0.165401 0.51183,-0.366078 0.28316,-0.489904 -0.0647,-0.03505 -0.1176,-0.193939 -0.1176,-0.353154 v -0.289463 l 0.81435,0.01218 c 0.66008,0.0099 0.87727,-0.02909 1.14653,-0.205689 0.29347,-0.192494 0.32761,-0.272614 0.29296,-0.687471 -0.0341,-0.407699 -1.7e-4,-0.491998 0.25699,-0.639639 0.30983,-0.177878 0.95816,-0.178229 0.95816,-5.26e-4 0,0.05669 -0.1323,0.119068 -0.29399,0.138669 -0.35528,0.04302 -0.58796,0.197049 -0.58796,0.389122 0,0.09895 0.15594,0.141937 0.51483,0.141937 0.40109,0 0.55304,0.05047 0.68783,0.228313 l 0.17301,0.228313 0.12972,-0.212375 c 0.0713,-0.116798 0.16584,-0.631718 0.21,-1.144263 l 0.0803,-0.931897 -0.28048,-0.07474 c -0.39804,-0.106039 -0.8025,-0.45681 -0.99784,-0.865376 -0.25522,-0.533811 -0.078,-0.527528 0.44614,0.01586 0.51679,0.535765 0.8835,0.622807 1.36888,0.324915 0.62933,-0.386223 -0.0376,-0.989499 -1.18507,-1.071915 -1.03524,-0.07439 -1.05706,-0.309108 -0.0287,-0.309108 0.80281,0 1.22116,0.155763 1.71805,0.6397 0.23522,0.229093 0.29728,0.171833 0.79682,-0.735241 0.39998,-0.726278 0.45739,-1.037848 0.19125,-1.037848 -0.0954,0 -0.27635,-0.197059 -0.40212,-0.437901 -0.12577,-0.240843 -0.3792,-0.563602 -0.56317,-0.717245 -0.35443,-0.295991 -1.17754,-0.59645 -1.63395,-0.59645 -0.1991,0 -0.32894,-0.102034 -0.47645,-0.374403 l -0.20276,-0.374402 0.22664,-0.140474 c 0.61141,-0.378959 0.75582,-0.574028 0.75582,-1.020981 0,-0.606754 -0.13842,-0.881112 -0.66723,-1.322562 -0.37516,-0.313182 -0.4206,-0.392768 -0.27351,-0.479074 0.13655,-0.08008 0.2839,-0.0018 0.65244,0.34873 0.64736,0.61493 0.84748,1.159737 0.63931,1.740354 -0.0863,0.240843 -0.25912,0.538797 -0.38392,0.662105 -0.25486,0.251813 -0.18585,0.445524 0.15872,0.445524 0.40859,0 1.28198,0.427729 1.55005,0.75911 0.77707,0.960601 1.15807,1.040923 1.67719,0.353592 0.27543,-0.364676 0.3269,-0.541039 0.3269,-1.120123 0,-0.585595 -0.0561,-0.773243 -0.37931,-1.268185 -0.20862,-0.319482 -0.54718,-0.693087 -0.75237,-0.830214 -0.46184,-0.308652 -1.42217,-0.676132 -1.76693,-0.676132 -0.17428,0 -0.33003,-0.118025 -0.48196,-0.365203 -0.19518,-0.317572 -0.75687,-0.820373 -1.56282,-1.398958 -0.3834,-0.275251 -1.5583,-0.811717 -1.7777,-0.811717 -0.11243,0 -0.25469,-0.04162 -0.31613,-0.09248 -0.12088,-0.100072 -0.71252,-0.184696 -1.96978,-0.281762 -1.38185,-0.106687 -2.58214,0.359227 -3.06065,1.188047 -0.11784,0.204104 -0.52318,0.834761 -0.90076,1.401456 -0.82126,1.232611 -0.80563,1.134423 -0.82867,5.203276 -0.01,1.705779 -0.0553,2.719164 -0.11455,2.546245 -0.0542,-0.157972 -0.10444,-1.797466 -0.11171,-3.643307 l -0.0132,-3.356077 0.75736,-1.147838 c 1.51665,-2.298585 1.86538,-2.865578 3.19217,-5.190116 0.62207,-1.089877 1.18043,-2.008333 1.2408,-2.041033 0.17316,-0.09377 0.12793,-0.627056 -0.0651,-0.767416 -0.36522,-0.265586 -1.03301,0.05853 -2.35338,1.142248 -0.97155,0.797409 -2.05423,1.499328 -3.12539,2.026225 -0.52913,0.260277 -3.02974,1.450488 -3.94979,1.879978 -0.83618,0.390332 -1.23458,0.670858 -1.44381,1.016644 -0.17802,0.294195 -0.037,0.586628 0.54724,1.135089 0.66411,0.623403 0.93033,1.869428 0.73835,3.455903 -0.0622,0.513851 -0.17035,1.652945 -0.24039,2.531314 -0.12838,1.610116 -0.214,2.294712 -0.46389,3.709276 -0.0751,0.425021 -0.18551,1.050956 -0.24541,1.390976 -0.21338,1.211381 -0.32784,1.757905 -0.46393,2.215258 -0.0759,0.255011 -0.18282,1.135966 -0.23765,1.957671 -0.15738,2.358666 -0.33543,4.213348 -0.69241,7.212468 -0.0641,0.538357 -0.16861,1.758221 -0.23229,2.710805 -0.0637,0.952585 -0.15042,1.827581 -0.19275,1.944432 -0.0423,0.116859 -0.01,0.751627 0.0723,1.410612 0.13226,1.061839 0.19053,1.249359 0.51223,1.648339 0.19964,0.24761 0.4159,0.52217 0.48058,0.61014 0.22843,0.31072 0.57279,0.63974 0.66956,0.63974 0.0539,0 0.18987,-0.0409 0.30217,-0.091 z m 5.55465,-19.073549 c 0,-0.07553 0.0353,-0.106467 0.0784,-0.06869 0.0431,0.03776 0.0431,0.0996 0,0.13738 -0.0431,0.03776 -0.0784,0.007 -0.0784,-0.06869 z m -0.0562,-0.305445 c -0.10603,-0.150331 -0.0428,-1.547063 0.0728,-1.609695 0.0555,-0.03005 0.10099,0.342159 0.10099,0.827191 0,0.858164 -0.0288,0.988027 -0.17381,0.782504 z m 0.003,-1.884052 c -0.0493,-0.09917 -0.0493,-0.261451 0,-0.36062 l 0.0896,-0.180314 0.0492,0.180314 c 0.0271,0.09917 0.0271,0.261451 0,0.36062 l -0.0492,0.180314 z m 1.18134,-2.734743 c -0.6588,-1.28011 -0.25682,-2.686008 0.81854,-2.862773 0.74732,-0.122844 1.22829,0.38256 1.22829,1.290677 v 0.520291 h 0.269 c 0.18668,0 0.61269,-0.312701 1.3922,-1.021919 0.8974,-0.816466 1.22287,-1.045436 1.61887,-1.138866 0.55959,-0.132026 1.42429,-0.05231 1.74172,0.160644 0.18412,0.123501 0.18855,0.154869 0.0347,0.245504 -0.097,0.05713 -0.25577,0.07299 -0.35278,0.03522 -0.097,-0.03776 -0.42659,-0.08808 -0.73239,-0.111742 -0.72325,-0.05599 -1.11786,0.157314 -2.09753,1.133766 -0.78979,0.787192 -1.28975,1.212257 -1.42609,1.212467 -0.18462,2.89e-4 -0.91807,-0.441371 -0.91807,-0.552824 0,-0.172709 -0.57433,-0.889542 -0.7127,-0.889542 -0.064,0 -0.16656,0.115914 -0.22804,0.257587 -0.0669,0.154186 -0.20456,0.257587 -0.34292,0.257587 -0.44812,0 -0.43581,0.207775 0.0722,1.217873 0.16967,0.337392 0.14125,0.636765 -0.0605,0.636765 -0.0569,0 -0.19391,-0.175811 -0.3045,-0.390691 z m -0.77539,-4.737152 c 0,-0.203437 0.45989,-0.847422 0.92775,-1.299132 0.37116,-0.35836 1.43351,-0.818464 1.58443,-0.686227 0.18322,0.160538 -0.008,0.384041 -0.38484,0.450098 -0.39686,0.06957 -1.35464,0.840167 -1.71832,1.382547 -0.24873,0.370942 -0.40902,0.430787 -0.40902,0.152714 z m -25.98796,28.362301 c 0,-0.0283 -0.0265,-0.0515 -0.0588,-0.0515 -0.0323,0 -0.0588,0.0232 -0.0588,0.0515 0,0.0283 0.0265,0.0515 0.0588,0.0515 0.0323,0 0.0588,-0.0232 0.0588,-0.0515 z m 37.15926,-4.791146 c 0,-0.05669 -0.056,-0.103033 -0.12453,-0.103033 -0.0685,0 -0.0918,0.04635 -0.0519,0.103033 0.04,0.05669 0.096,0.103033 0.12453,0.103033 0.0285,0 0.0519,-0.04635 0.0519,-0.103033 z m -4.58611,-12.945323 c 0,-0.100405 -0.39189,-0.33925 -0.5627,-0.342947 -0.11479,-0.0026 -0.12087,0.04626 -0.0253,0.202789 0.11384,0.186378 0.58797,0.29939 0.58797,0.140158 z m 16.28657,31.802079 c -1.85583,-0.5988 -2.58781,-0.91236 -2.62461,-1.12432 -0.0557,-0.32081 0.33905,-0.2812 1.57283,0.15785 1.27689,0.45439 2.08507,0.65322 2.66174,0.65484 0.60419,0.002 0.64555,-0.14604 0.094,-0.33586 -0.85353,-0.29377 -0.9254,-0.98877 -0.1479,-1.43027 0.61786,-0.35086 1.29162,-0.52035 1.9129,-0.48123 0.43809,0.0276 0.52916,0.0688 0.52916,0.2394 0,0.15431 -0.0886,0.21281 -0.35278,0.2329 -0.63266,0.0481 -1.66387,0.34025 -2.02992,0.57503 -0.2551,0.16362 0.0738,0.37698 0.58114,0.37698 0.25448,0 0.70515,0.0535 1.00149,0.11887 0.38305,0.0845 0.59659,0.0873 0.73875,0.009 0.27845,-0.15237 0.51647,8.8e-4 0.41899,0.27032 -0.0507,0.13998 -0.38664,0.34793 -0.93627,0.57956 l -0.85719,0.36125 -0.9872,-0.008 c -0.64865,-0.005 -1.18883,-0.0726 -1.57516,-0.19724 z m -5.29166,-0.62891 c -0.25871,-0.0348 -0.60267,-0.11285 -0.76436,-0.17346 -0.64688,-0.24252 -1.33474,-1.04025 -1.19029,-1.38042 0.0561,-0.13212 0.15242,-0.0567 0.41299,0.32344 0.44829,0.65398 1.03605,0.93073 1.97666,0.93073 0.51292,0 0.86196,-0.0682 1.27259,-0.24902 0.31121,-0.13695 0.5967,-0.22196 0.63444,-0.18889 0.45487,0.39856 -1.13647,0.89975 -2.34203,0.73762 z m 3.65355,-2.28313 c 0.10806,-0.30244 0.69683,-1.05203 1.1758,-1.49696 0.57225,-0.5316 1.22243,-1.75503 1.6959,-3.19115 0.13545,-0.41086 0.29695,-0.747 0.35889,-0.747 0.1417,0 0.14543,0.32871 0.007,0.63912 -0.0579,0.13017 -0.1698,0.44532 -0.24859,0.70033 -0.31779,1.02866 -0.76216,1.81112 -1.52141,2.67892 -0.37185,0.42502 -0.81706,0.96982 -0.98935,1.21066 -0.33776,0.47217 -0.61646,0.5922 -0.4785,0.20608 z m -6.29939,-3.31618 c 0,-0.37903 0.32641,-0.75948 1.57446,-1.83511 1.47078,-1.26759 1.89308,-1.84608 2.27134,-3.11133 0.21695,-0.72571 0.50513,-1.02684 0.50513,-0.52783 0,0.44089 -0.46477,1.82342 -0.79869,2.37585 -0.18529,0.30653 -0.86718,0.99661 -1.68056,1.70073 -0.75282,0.6517 -1.40089,1.26604 -1.44014,1.36522 -0.0856,0.21631 -0.43154,0.24233 -0.43154,0.0324 z m 8.52677,-6.8328 c 0.0499,-0.26918 0.081,-0.88353 0.0692,-1.36522 -0.0354,-1.44352 -0.45412,-2.561245 -1.249,-3.33426 -0.22495,-0.218771 -0.409,-0.439005 -0.409,-0.489422 0,-0.213461 0.35478,-0.06317 0.74558,0.315846 0.50546,0.490219 0.88145,1.111721 1.09364,1.807756 0.18365,0.60237 0.21493,2.58542 0.0423,2.67892 -0.0647,0.035 -0.11759,0.2464 -0.11759,0.46974 0,0.23317 -0.0566,0.40606 -0.13288,0.40606 -0.0929,0 -0.10558,-0.14741 -0.0422,-0.48942 z m -4.8814,-3.11682 c 0,-0.0755 0.0353,-0.106464 0.0784,-0.0687 0.0431,0.0378 0.0431,0.0996 0,0.13738 -0.0431,0.0378 -0.0784,0.007 -0.0784,-0.0687 z m 0.23519,-0.56061 c 0,-0.08166 0.0529,-0.177125 0.11759,-0.212156 0.0647,-0.03505 0.11884,-0.188445 0.12037,-0.34094 0.005,-0.494706 0.71577,-1.586589 1.27048,-1.95159 0.62107,-0.408662 1.43137,-0.481571 1.43137,-0.128793 0,0.150067 -0.0784,0.206066 -0.28845,0.206066 -0.15864,0 -0.43646,0.05704 -0.61736,0.126655 -0.38433,0.148 -1.09326,0.780471 -1.09326,0.975357 0,0.07395 -0.04,0.134419 -0.0889,0.134419 -0.0489,0 -0.16005,0.150681 -0.24703,0.334859 -0.46704,0.988956 -0.60483,1.183982 -0.60483,0.856123 z M 25.551321,86.598872 c -0.0388,-0.255011 -0.0937,-0.625944 -0.12209,-0.824282 -0.0284,-0.198347 -0.11378,-0.546086 -0.1898,-0.772769 -0.23236,-0.692878 -0.27186,-0.978836 -0.13522,-0.978836 0.38242,0 0.8749,2.13406 0.6336,2.745599 l -0.11598,0.293949 z"
       id="path20" /></g></svg>
