<?xml version="1.0" encoding="UTF-8" standalone="no"?>
<!-- Created with Inkscape (http://www.inkscape.org/) -->

<svg
   width="62.423523mm"
   height="160.71107mm"
   viewBox="0 0 62.423529 160.71108"
   version="1.1"
   id="svg1"
   xml:space="preserve"
   xmlns="http://www.w3.org/2000/svg"
   xmlns:svg="http://www.w3.org/2000/svg"><defs
     id="defs1" /><g
     id="layer1"
     transform="translate(459.86052,-270.10431)"><path
       style="fill:#666666"
       d="m -459.79022,430.78413 c -0.0387,-0.0387 -0.0703,-36.20744 -0.0703,-80.37506 v -80.30476 l 0.20579,0.0396 0.20578,0.0396 0.0588,18.46043 0.0588,18.46043 0.20566,-0.3761 c 0.11311,-0.20685 0.40311,-0.52435 0.64444,-0.70555 1.18939,-0.89307 1.63048,-1.33375 2.254,-2.25192 0.53904,-0.79377 1.06936,-2.42304 1.07223,-3.29417 0.004,-1.11426 0.40344,-1.113 0.84749,0.003 0.51779,1.30098 0.56182,1.55111 0.56182,3.19164 0,1.90037 -0.17221,3.12168 -0.77431,5.49129 -0.0626,0.24633 0.003,0.20821 0.40359,-0.23518 0.26306,-0.29105 0.48055,-0.59532 0.4833,-0.67616 0.003,-0.0808 0.0447,-0.14709 0.0932,-0.1472 0.0768,-1.8e-4 0.81745,-1.38758 1.09855,-2.05766 0.43047,-1.02616 0.81742,-2.62143 1.05079,-4.33203 0.20161,-1.47785 0.0163,-2.83795 -0.96387,-7.07445 -0.15428,-0.66686 -0.18927,-4.74903 -0.0453,-5.29167 0.0515,-0.19403 0.29015,-0.77811 0.53043,-1.29796 0.54722,-1.18392 1.42029,-2.14164 2.83675,-3.1118 1.30901,-0.89655 2.37333,-1.87273 2.62879,-2.41108 0.19818,-0.41763 0.53683,-0.56163 0.53683,-0.22826 0,0.32308 -0.44658,1.15727 -0.84641,1.58104 -0.47299,0.50133 -1.10012,0.9895 -2.03461,1.58379 -3.20072,2.03552 -4.23953,6.15262 -2.1372,8.47038 0.47897,0.52805 0.50683,0.47475 0.25572,-0.48934 -0.37333,-1.43331 -0.15481,-2.90822 0.57459,-3.87809 0.59204,-0.78725 1.51287,-1.38659 4.05006,-2.63608 2.67441,-1.31706 3.43453,-1.90409 3.83832,-2.9643 0.29099,-0.76403 0.2012,-2.24481 -0.17282,-2.84999 -0.24088,-0.38975 -0.25329,-0.76414 -0.0253,-0.76414 0.0547,0 0.5652,0.5775 1.13436,1.28334 0.56916,0.70584 1.13018,1.30828 1.24671,1.33875 0.11653,0.0305 0.31976,0.25995 0.45162,0.50994 0.54501,1.03323 0.0575,-1.07104 -0.52301,-2.25758 -0.78658,-1.6077 -2.4096,-2.78752 -4.87128,-3.54107 -0.46863,-0.14346 -1.08398,-0.19836 -2.23426,-0.19936 -1.35538,-10e-4 -1.77577,0.0467 -2.87512,0.32728 -1.09387,0.27921 -2.30845,0.72818 -3.00451,1.11062 -1.07625,0.59134 -1.43652,0.80931 -1.94028,1.17388 -1.12577,0.81472 -2.18969,1.84633 -3.14244,3.04702 -0.32076,0.40422 -0.62771,0.73495 -0.68213,0.73495 -0.0544,0 -0.13336,-0.10846 -0.17543,-0.24104 -0.0986,-0.3108 0.58654,-1.22352 1.94212,-2.58705 1.16062,-1.16743 2.81116,-2.34884 4.23335,-3.03012 1.14886,-0.55035 1.47561,-0.66182 3.48262,-1.18803 0.70948,-0.18602 3.55228,-0.16056 4.30215,0.0385 3.0359,0.80602 5.07502,2.47449 5.7261,4.68526 0.0714,0.24253 0.18278,0.61671 0.24746,0.8315 0.0647,0.21479 0.11759,0.57232 0.11759,0.79452 0,0.2222 0.0543,0.58886 0.12066,0.8148 0.17762,0.60472 0.19224,2.90837 0.0195,3.08105 -0.0771,0.0771 -0.14021,0.44818 -0.14021,0.82459 0,0.70664 0.21756,1.19215 0.90374,2.01681 0.33476,0.40232 0.62496,1.06108 0.62496,1.41867 0,0.34648 -0.59496,0.89641 -1.07824,0.99663 l -0.39166,0.0812 0.0248,0.40563 c 0.0137,0.2231 0.0593,0.63512 0.10152,0.9156 0.0478,0.31811 0.0274,0.55921 -0.0542,0.64088 -0.072,0.072 -0.13092,0.34871 -0.13092,0.61491 v 0.48399 l -0.45801,0.25742 c -0.52689,0.29613 -0.60032,0.43568 -0.60032,1.14088 0,0.28194 -0.0529,0.54532 -0.11759,0.58529 -0.0647,0.04 -0.1176,0.16543 -0.1176,0.27881 0,0.11337 -0.17198,0.33514 -0.38217,0.49282 l -0.38218,0.2867 -1.4594,0.0394 c -0.84801,0.0229 -1.68549,-0.0172 -1.99908,-0.0956 -1.0201,-0.2552 -1.48068,-0.39791 -1.6192,-0.50171 -0.26094,-0.19554 -0.42894,0.40393 -0.43921,1.56716 -0.0115,1.29866 0.13239,1.68977 0.6844,1.86068 0.20019,0.062 1.36939,0.14633 2.59823,0.18745 2.93393,0.0982 7.13275,-0.20186 10.81852,-0.77306 2.3777,-0.36848 2.45702,-0.39006 2.95243,-0.80346 0.20096,-0.1677 0.47484,-0.39362 0.60861,-0.50205 0.26756,-0.21687 0.24072,-0.57501 -0.0619,-0.82617 -0.0988,-0.082 -0.44892,-0.17634 -0.77805,-0.20964 -0.48215,-0.0488 -0.62575,-0.11555 -0.73905,-0.34359 -0.0773,-0.15567 -0.29589,-0.34832 -0.48567,-0.42811 -0.27409,-0.11525 -0.36036,-0.24082 -0.41949,-0.61063 -0.041,-0.25605 -0.18658,-0.60809 -0.32363,-0.78233 l -0.24918,-0.31678 -0.96669,0.0784 -0.96669,0.0784 -0.20278,-0.42733 c -0.13437,-0.28318 -0.19619,-0.67483 -0.18323,-1.16105 0.0107,-0.40355 -0.0207,-1.20092 -0.0699,-1.77194 l -0.0894,-1.03823 -0.53046,-0.25529 c -0.29175,-0.14042 -0.57316,-0.33467 -0.62534,-0.43169 -0.6001,-1.11571 -1.15094,-2.46966 -1.31563,-3.23379 -0.11152,-0.51741 -0.28874,-1.25825 -0.39383,-1.6463 -0.38915,-1.43701 -0.30749,-3.03648 0.20792,-4.07198 0.23759,-0.47735 0.91249,-1.08903 2.21995,-2.01201 0.48433,-0.34191 0.90082,-0.72661 0.92552,-0.85489 0.0558,-0.28987 0.32639,-0.64408 1.11027,-1.45356 1.04235,-1.07638 2.53836,-1.96429 4.45602,-2.64473 1.59212,-0.56493 3.40357,-0.37835 5.0059,0.51561 2.1395,1.19367 3.40196,2.60377 4.26115,4.75952 0.59503,1.49294 0.78114,2.85499 0.93998,6.87917 0.0549,1.39053 0.13678,2.73172 0.18198,2.98042 l 0.0822,0.45219 0.36801,-0.0601 c 0.2024,-0.033 0.87071,-0.20065 1.48513,-0.37247 1.52893,-0.42755 2.78516,-0.44807 3.59064,-0.0586 1.43934,0.6959 2.52029,2.4299 2.61769,4.19913 0.0383,0.69595 -2.9e-4,1.13058 -0.13774,1.5508 -0.10503,0.32112 -0.19096,0.60895 -0.19096,0.63963 0,0.0307 0.55464,0.74927 1.23253,1.59687 3.02099,3.77726 3.2787,4.44722 3.19864,8.31553 -0.0672,3.24572 -0.28978,5.07589 -0.82112,6.75065 -0.0913,0.2877 -0.22602,0.73476 -0.29942,0.99346 -0.28312,0.99785 -0.74246,2.48153 -0.84814,2.73956 -0.0609,0.14856 -0.11064,0.3968 -0.11064,0.55162 0,0.15483 -0.0529,0.31422 -0.11759,0.35419 -0.0647,0.04 -0.1176,0.22581 -0.1176,0.41298 0,0.18717 -0.0474,0.46186 -0.10539,0.61042 -0.058,0.14857 -0.16913,0.64053 -0.24702,1.09327 -0.0779,0.45273 -0.21119,1.19356 -0.29621,1.64629 -0.085,0.45273 -0.21559,1.19357 -0.29016,1.6463 -0.0746,0.45273 -0.18195,1.08773 -0.23863,1.41111 -0.0567,0.32338 -0.16391,0.98484 -0.2383,1.46991 -0.26882,1.75282 -0.38208,2.18707 -0.75144,2.88102 -0.20655,0.38805 -0.44773,0.89076 -0.53598,1.11713 -0.0882,0.22636 -0.41572,0.95992 -0.72772,1.63013 -0.71177,1.5289 -0.71169,1.52815 -0.13186,1.29504 0.18091,-0.0727 0.44798,-0.17856 0.5935,-0.23519 0.14552,-0.0566 0.38365,-0.15094 0.52917,-0.2096 0.54979,-0.22163 1.35605,-0.51732 2.32245,-0.85174 0.54975,-0.19023 1.10537,-0.39336 1.23472,-0.45138 0.2758,-0.12372 2.5188,-0.9052 3.11621,-1.08571 0.22636,-0.0684 0.54386,-0.16858 0.70555,-0.22263 0.71984,-0.24063 1.79403,-0.32826 2.39264,-0.19519 1.46205,0.325 2.70955,1.81609 3.13602,3.74833 0.17913,0.81162 0.1006,2.66658 -0.14388,3.39831 -0.0972,0.29104 -0.24449,0.76729 -0.32724,1.05833 -0.30792,1.08308 -0.35563,1.24656 -0.51484,1.76389 -0.0896,0.29104 -0.28357,0.92604 -0.43113,1.41111 -0.14756,0.48507 -0.31282,0.93221 -0.36724,0.99366 -0.0544,0.0614 -0.099,0.20768 -0.099,0.32497 0,0.1173 -0.0491,0.30515 -0.1092,0.41746 -0.0601,0.1123 -0.30502,0.73335 -0.54434,1.38011 -0.23933,0.64676 -0.48123,1.2262 -0.53756,1.28764 -0.0563,0.0614 -0.10242,0.18125 -0.10242,0.26624 0,0.40729 -2.80356,6.23211 -4.06299,8.44149 -0.36868,0.64676 -0.77566,1.36114 -0.9044,1.5875 -0.45365,0.79767 -1.305,2.18757 -1.99972,3.2647 l -0.70254,1.08924 0.80682,0.84459 c 2.69079,2.81677 3.37032,3.48084 4.21233,4.11652 0.51484,0.38868 1.01755,0.73722 1.11713,0.77455 0.23192,0.0869 1.36677,0.80845 1.67224,1.06319 0.55612,0.46376 0.66068,0.57765 1.03602,1.12851 0.34963,0.51313 0.39674,0.67372 0.40418,1.37783 0.0109,1.02596 -0.24473,1.34473 -1.0531,1.31345 l -0.52597,-0.0204 v 0.26678 c 0,0.36931 -0.3933,0.70084 -0.73091,0.61611 -0.21377,-0.0537 -0.31317,0.007 -0.47713,0.29309 -0.17069,0.29742 -0.26627,0.35218 -0.54361,0.31148 -0.24087,-0.0353 -0.37664,0.0149 -0.47778,0.17686 -0.11442,0.1832 -0.22638,0.21264 -0.5885,0.15473 -0.32153,-0.0514 -0.48815,-0.0222 -0.59292,0.10408 -0.37614,0.45322 -1.2532,-0.05 -1.52557,-0.8753 -0.0867,-0.2628 -0.2076,-0.47782 -0.26859,-0.47782 -0.061,0 -0.37831,-0.24043 -0.70514,-0.53428 -0.32684,-0.29386 -0.63003,-0.49229 -0.67376,-0.44098 -0.12341,0.14482 0.0774,8.80967 0.22562,9.7359 0.51186,3.19853 1.13497,4.66602 2.66805,6.28352 0.52506,0.55397 1.10681,1.19243 1.29277,1.4188 0.18596,0.22637 0.41417,0.49095 0.50712,0.58796 0.52567,0.54862 1.69393,2.53133 2.25187,3.82176 0.24647,0.57003 0.78644,2.77933 1.03466,4.23334 0.52007,3.04631 0.60231,4.84012 0.60867,13.2754 0.007,9.16241 0.13341,11.45922 0.81677,14.82923 0.28343,1.39775 0.28338,1.43616 -0.002,1.58881 -0.26158,0.14 -0.65699,0.27717 -1.34985,0.46828 -1.02793,0.28354 -2.19589,0.57265 -2.82222,0.6986 -0.38806,0.078 -0.8969,0.19108 -1.13077,0.2512 -0.23387,0.0601 -0.57169,0.10931 -0.75071,0.10931 -0.17902,0 -0.51684,0.0498 -0.75071,0.11067 -0.23387,0.0609 -1.06022,0.17067 -1.83633,0.244 -0.77611,0.0733 -1.49049,0.17381 -1.5875,0.22329 -0.097,0.0495 -0.42962,0.23072 -0.73913,0.40276 -0.7206,0.40055 -1.39474,0.42079 -1.6414,0.0493 l -0.17496,-0.2635 -0.30127,0.16124 c -0.18837,0.10081 -0.42564,0.12991 -0.63314,0.0776 -0.18252,-0.046 -0.53063,-0.11139 -0.77357,-0.14535 -0.24294,-0.034 -0.47096,-0.10907 -0.50671,-0.16692 -0.0358,-0.0578 -0.26706,-0.10517 -0.51403,-0.10517 -0.25568,0 -0.51206,-0.0759 -0.59542,-0.17639 -0.0958,-0.11549 -0.35793,-0.17639 -0.75916,-0.17639 -0.52677,0 -0.67171,-0.0536 -1.03278,-0.38217 -0.56581,-0.51484 -0.72416,-1.02516 -0.49547,-1.59672 0.096,-0.24001 0.2928,-0.5107 0.43726,-0.60152 0.65661,-0.41282 3.21905,-1.65292 3.41546,-1.65292 0.12041,0 0.43925,-0.14945 0.70852,-0.33211 0.26928,-0.18267 0.84441,-0.56428 1.27806,-0.84803 0.43366,-0.28376 0.7669,-0.53749 0.74053,-0.56386 -0.0264,-0.0264 -0.40764,0.0331 -0.84727,0.13227 -1.05864,0.23868 -1.98633,0.41675 -2.5632,0.492 -1.15801,0.15106 -2.31448,0.29189 -3.2926,0.40096 -1.95141,0.2176 -2.86138,0.35704 -3.90343,0.59816 -0.5695,0.13177 -1.30004,0.30103 -1.62342,0.37612 -0.32338,0.0751 -1.14359,0.13723 -1.82268,0.13807 -1.34124,0.002 -1.86189,-0.17578 -2.43669,-0.8304 -0.36734,-0.41834 -0.42401,-0.67738 -0.25857,-1.18192 0.19681,-0.60025 0.34423,-0.72175 1.91694,-1.58001 0.20171,-0.11008 0.45935,-0.20268 0.57253,-0.20579 0.11318,-0.003 0.20579,-0.0529 0.20579,-0.11066 0,-0.12557 0.0406,-0.1425 1.76388,-0.73578 0.74378,-0.25605 1.45815,-0.51019 1.5875,-0.56474 3.47562,-1.46581 4.38983,-2.19989 5.13257,-4.12132 0.11135,-0.28803 0.15679,-0.97631 0.15141,-2.29305 -0.008,-2.0453 -0.0485,-2.33907 -0.89166,-6.52639 -0.20185,-1.00248 -0.40791,-2.03435 -0.4579,-2.29306 -0.05,-0.2587 -0.14706,-0.76141 -0.21571,-1.11713 -0.19078,-0.9885 -0.56497,-2.67662 -0.78197,-3.52777 -0.10718,-0.4204 -0.22258,-0.91052 -0.25644,-1.08917 -0.0339,-0.17866 -0.10839,-0.35376 -0.16561,-0.38912 -0.0572,-0.0354 -0.10404,-0.16773 -0.10404,-0.29414 0,-0.12641 -0.0476,-0.32173 -0.10585,-0.43403 -0.0582,-0.11231 -0.25237,-0.57461 -0.43143,-1.02734 -0.17906,-0.45273 -0.50623,-1.22002 -0.72704,-1.70509 -0.2208,-0.48507 -0.55921,-1.30528 -0.75202,-1.82269 -0.1928,-0.51741 -0.40008,-1.06229 -0.46062,-1.21086 -0.0605,-0.14856 -0.11007,-0.3512 -0.11007,-0.45031 0,-0.15447 -0.37601,-1.21241 -0.70522,-1.9842 -0.82162,-1.92622 -1.79036,-4.8952 -2.28294,-6.99676 -0.23497,-1.00247 -0.47897,-2.02112 -0.54222,-2.26366 -0.0632,-0.24253 -0.16687,-0.63941 -0.23028,-0.88194 -0.0634,-0.24253 -0.24903,-1.02306 -0.41249,-1.73449 -0.16347,-0.71144 -0.34826,-1.47873 -0.41066,-1.70509 -0.17075,-0.61943 -0.81313,-3.3199 -0.95752,-4.02526 -0.13552,-0.66205 -0.28026,-1.29003 -0.46127,-2.00136 -0.17145,-0.67371 -0.72211,-3.06353 -1.07706,-4.67431 -0.13752,-0.62406 -0.19924,-0.89697 -0.6249,-2.76343 -0.177,-0.77611 -0.36797,-1.636 -0.42437,-1.91087 -0.0564,-0.27488 -0.15968,-0.75113 -0.22951,-1.05834 -0.0698,-0.30721 -0.15383,-0.80293 -0.18669,-1.1016 l -0.0597,-0.54304 -0.48946,-0.14503 c -0.26921,-0.0798 -0.77054,-0.29843 -1.11407,-0.4859 -0.34354,-0.18748 -0.74809,-0.34086 -0.899,-0.34086 -0.53037,0 -1.11623,-0.96038 -1.12046,-1.8367 l -0.002,-0.36679 -0.44098,-0.0729 c -0.24253,-0.0401 -0.68829,-0.0735 -0.99056,-0.0742 -0.79194,-0.002 -2.52227,-0.34797 -3.89678,-0.77945 -0.90074,-0.28275 -2.72606,-1.15889 -3.06937,-1.47326 -0.0956,-0.0876 -0.45852,-0.39736 -0.80641,-0.6884 -0.66339,-0.55499 -1.27564,-1.25703 -1.599,-1.8335 -0.10549,-0.18808 -0.22036,-0.36842 -0.25525,-0.40076 -0.10674,-0.0989 -0.65696,-1.44121 -0.79534,-1.94028 -0.55443,-1.99941 -0.58558,-3.90339 -0.13372,-8.17268 0.34087,-3.2207 0.12523,-6.62487 -0.58288,-9.20134 -0.33509,-1.21921 -0.64052,-2.01659 -1.19249,-3.11318 -0.60209,-1.19613 -1.00282,-1.86978 -1.30061,-2.18636 -0.13296,-0.14135 -0.33028,-0.40585 -0.43848,-0.58778 -0.10821,-0.18193 -1.20216,-1.29295 -2.431,-2.46894 -4.07004,-3.89498 -5.72221,-5.61176 -6.50712,-6.76161 -0.86535,-1.26769 -1.4376,-2.44934 -1.77394,-3.66309 -0.13129,-0.47376 -0.26645,-0.88913 -0.30035,-0.92303 -0.0339,-0.0339 -0.0616,27.22005 -0.0616,60.56435 0,51.90267 -0.0237,60.63511 -0.16489,60.68928 -0.0907,0.0348 -0.19653,0.0316 -0.23519,-0.007 z m 50.45959,-2.76003 c 0.18091,-0.078 0.54058,-0.28226 0.79929,-0.45383 0.38347,-0.25432 0.62168,-0.31586 1.28945,-0.33315 1.0495,-0.0272 4.0883,-0.4826 5.53092,-0.82893 0.2587,-0.0621 0.68203,-0.16359 0.94074,-0.22552 0.2587,-0.0619 0.92016,-0.2406 1.4699,-0.39706 l 0.99954,-0.28447 -0.0173,-0.34326 c -0.01,-0.1888 -0.0737,-0.66077 -0.14259,-1.04883 -0.0689,-0.38805 -0.24106,-1.68451 -0.3826,-2.88102 l -0.25734,-2.17546 0.0214,-7.8787 c 0.0203,-7.49014 -0.0402,-9.59442 -0.35005,-12.17084 -0.28346,-2.3571 -0.76258,-4.49117 -1.28042,-5.70324 -0.97925,-2.29203 -2.09315,-3.98801 -3.70584,-5.64238 -0.96023,-0.98504 -1.49801,-1.6932 -2.03715,-2.68257 -0.93435,-1.71458 -1.15741,-3.32839 -1.25489,-9.07875 -0.10802,-6.37245 -0.28093,-9.651 -0.62949,-11.93565 -0.26725,-1.75175 -0.47798,-2.57683 -0.71995,-2.81879 -0.2079,-0.2079 -0.23413,-0.33349 -0.17024,-0.81509 0.0488,-0.36821 0.0293,-0.59786 -0.0552,-0.65012 -0.0719,-0.0444 -0.13075,-0.17439 -0.13075,-0.28878 0,-0.20684 -0.48833,-1.53285 -0.70804,-1.92261 -0.14302,-0.25371 -0.15139,-1.17936 -0.012,-1.3304 0.32226,-0.34928 1.19257,-2.10322 1.63654,-3.29812 0.72604,-1.95408 0.8874,-2.93366 0.89774,-5.45008 0.009,-2.13803 -0.10333,-2.86346 -0.52999,-3.42909 l -0.19729,-0.26156 -0.74925,0.39205 c -0.41208,0.21562 -1.33133,0.69935 -2.04276,1.07494 -1.3984,0.73826 -5.70742,2.88498 -7.70232,3.83723 -2.2721,1.08457 -3.17612,1.50279 -5.14467,2.38001 -0.33955,0.15131 -0.61736,0.34067 -0.61736,0.42079 0,0.0801 0.0978,0.37496 0.21743,0.6552 0.54365,1.27396 0.4523,2.13902 -0.30595,2.89728 -0.59124,0.59123 -0.58743,0.36557 -0.0431,2.55112 0.32673,1.31187 0.44937,1.89158 0.72141,3.41019 0.63441,3.54143 1.02988,5.2351 1.94953,8.34907 0.57699,1.95371 1.66154,5.1149 2.21891,6.46759 0.0799,0.19403 0.21156,0.53799 0.29247,0.76436 0.27492,0.7692 0.42706,1.1466 0.8172,2.02719 0.1358,0.3065 0.2469,0.58287 0.2469,0.61414 0,0.39728 2.94318,6.03438 3.28704,6.2957 0.17544,0.13333 2.23981,3.15303 2.23981,3.27633 0,0.0736 0.0404,0.13386 0.0899,0.13386 0.10248,0 0.4244,0.70381 0.74715,1.6335 0.12104,0.34867 0.26764,0.69263 0.32577,0.76435 0.28796,0.35529 1.65226,3.04107 2.24651,4.42252 0.20866,0.48507 0.45057,1.04069 0.53757,1.23472 0.23657,0.52757 0.63823,1.57756 0.8322,2.17546 0.0944,0.29105 0.22006,0.635 0.2792,0.76436 0.13581,0.29703 0.64028,1.90412 0.87669,2.79282 0.0989,0.37189 0.2543,0.95397 0.34528,1.29352 0.66137,2.46848 1.16246,5.68539 1.52432,9.78583 0.15914,1.80329 0.0855,3.60995 -0.17756,4.35468 -0.47356,1.34079 -1.50886,2.62992 -2.98208,3.71319 -0.38805,0.28534 -0.73201,0.54684 -0.76435,0.58111 -0.22454,0.23793 -3.07093,1.9969 -3.23141,1.9969 -0.2539,0 -3.2937,1.49101 -3.46801,1.70105 -0.0994,0.11978 -0.0562,0.21428 0.18446,0.4036 0.45192,0.35548 1.45848,0.32042 1.45848,-0.0508 0,-0.18038 0.80916,-0.87792 1.0184,-0.87792 0.189,0 0.31022,0.40971 0.2124,0.71789 -0.0654,0.20601 -0.0145,0.18629 0.3035,-0.11759 0.42479,-0.40596 0.63936,-0.45746 0.74617,-0.17911 0.13156,0.34283 0.0736,0.50553 -0.30654,0.86082 -0.20785,0.19426 -0.34247,0.38865 -0.29914,0.43198 0.0433,0.0433 0.32341,-0.16584 0.62239,-0.46483 0.67627,-0.67627 0.99541,-0.71742 0.99541,-0.12834 0,0.26064 -0.0657,0.44046 -0.17639,0.48295 -0.097,0.0372 -0.17639,0.11328 -0.17639,0.16901 0,0.14631 0.33687,0.002 0.92241,-0.39473 0.28096,-0.19044 0.67784,-0.35351 0.88195,-0.36238 l 0.37111,-0.0161 v 0.40997 c 0,0.31146 -0.0545,0.42046 -0.22687,0.45365 -0.12478,0.024 -0.30054,0.11736 -0.39058,0.2074 -0.20079,0.20079 -0.13744,0.20558 0.28853,0.0218 z m -3.84023,-0.80892 c 0.19289,-0.36042 0.0745,-0.38413 -0.24101,-0.0483 -0.2238,0.23823 -0.23944,0.29352 -0.083,0.29352 0.10601,0 0.25182,-0.11036 0.32401,-0.24526 z m -8.17808,-4.21335 c 0.32338,-0.0642 0.83932,-0.17205 1.14653,-0.23969 0.30721,-0.0676 0.80992,-0.17605 1.11713,-0.2409 0.54294,-0.1146 2.93635,-0.44089 5.20347,-0.70937 0.61442,-0.0728 1.3288,-0.17667 1.5875,-0.23092 0.25871,-0.0543 0.78787,-0.16184 1.17593,-0.2391 0.38805,-0.0773 1.04133,-0.2463 1.45173,-0.37565 l 0.74617,-0.23518 -0.061,-1.54478 c -0.0336,-0.84963 -0.12971,-2.07395 -0.21363,-2.72071 -0.17529,-1.35084 -0.1964,-6.75445 -0.0452,-11.56651 0.0991,-3.15312 0.0368,-4.38141 -0.35134,-6.93183 -0.14528,-0.95452 -0.28224,-1.33085 -1.06988,-2.93982 -0.4968,-1.01484 -1.04642,-2.05684 -1.22139,-2.31554 -0.17496,-0.2587 -0.4126,-0.76141 -0.52809,-1.11713 -0.11548,-0.35572 -0.31913,-0.88488 -0.45255,-1.17593 -0.24459,-0.53354 -1.23872,-2.24279 -1.36788,-2.35185 -0.0383,-0.0323 -0.2485,-0.34145 -0.46712,-0.68693 -0.21861,-0.34547 -0.4578,-0.68943 -0.53153,-0.76435 -0.51634,-0.52472 -2.21852,-3.5821 -3.05467,-5.48668 -0.18456,-0.42039 -0.45409,-1.02894 -0.59896,-1.35232 -0.14486,-0.32338 -0.36956,-0.82608 -0.49933,-1.11713 -0.75353,-1.69002 -2.36417,-6.15454 -2.90598,-8.05509 -0.11062,-0.38805 -0.24249,-0.83785 -0.29303,-0.99954 -0.0505,-0.16168 -0.15708,-0.5321 -0.23675,-0.82314 -0.0797,-0.29104 -0.18814,-0.66146 -0.24103,-0.82315 -0.12984,-0.39694 -0.59539,-2.40113 -0.71021,-3.05741 -0.0509,-0.29104 -0.12409,-0.68792 -0.16259,-0.88194 -0.10472,-0.52769 -0.27151,-1.44151 -0.4078,-2.23426 -0.35116,-2.04257 -0.68071,-3.49067 -1.05708,-4.64491 -0.37896,-1.16219 -0.35477,-1.14455 -1.09122,-0.79585 -0.85389,0.4043 -1.68238,0.67826 -2.05113,0.67826 h -0.30358 l 0.0775,0.32338 c 0.1429,0.5962 0.62134,2.75186 1.01133,4.55671 0.0559,0.2587 0.15113,0.68204 0.21161,0.94074 0.0605,0.2587 0.22212,0.97308 0.35919,1.5875 0.13707,0.61442 0.29844,1.3288 0.3586,1.5875 0.0602,0.2587 0.16934,0.73495 0.24263,1.05833 0.0733,0.32338 0.18088,0.77318 0.2391,0.99954 0.0582,0.22637 0.18464,0.75553 0.28094,1.17593 0.45953,2.00613 0.67318,2.91487 0.77414,3.29259 0.0959,0.35902 0.44191,1.82229 0.83406,3.52778 0.13037,0.56698 0.27282,1.14482 0.45658,1.85208 0.063,0.24254 0.30114,1.23472 0.52915,2.20486 0.22801,0.97014 0.47549,1.97556 0.54994,2.23426 0.28956,1.0061 1.29561,3.97725 1.51306,4.46852 0.0573,0.12935 0.2477,0.65852 0.4232,1.17593 0.17549,0.5174 0.35373,0.99365 0.39608,1.05833 0.0423,0.0647 0.14622,0.35572 0.23081,0.64676 0.29059,0.9998 0.97664,2.99914 1.21052,3.52778 0.40475,0.91486 0.56356,1.29735 1.15962,2.79282 0.058,0.14552 0.15345,0.38365 0.21211,0.52917 0.38579,0.95703 0.73083,2.14463 1.07619,3.70416 0.167,0.75412 0.3168,1.41763 0.51104,2.26366 0.33949,1.4786 0.84104,4.13942 1.11935,5.93843 0.41101,2.65674 0.47986,5.06139 0.18518,6.46759 -0.16649,0.79447 -0.22633,0.96458 -0.63053,1.79242 -0.53783,1.10153 -2.31641,2.34181 -4.42576,3.08627 -0.38805,0.13696 -0.79744,0.29913 -0.90974,0.36039 -0.11231,0.0613 -0.28935,0.11138 -0.39342,0.11138 -0.10408,0 -0.32969,0.0983 -0.50137,0.21848 -0.17167,0.12017 -0.81544,0.38491 -1.43059,0.58831 -0.65713,0.21729 -1.17468,0.45986 -1.25477,0.5881 -0.075,0.12005 -0.30973,0.25296 -0.52169,0.29535 -0.48149,0.0963 -0.92684,0.38098 -0.92684,0.59248 0,0.0883 0.22489,0.2729 0.49977,0.41014 l 0.49977,0.24951 1.4699,-0.0556 c 0.80845,-0.0306 1.73449,-0.10808 2.05787,-0.17226 z m 14.11825,-2.80683 c 0.89271,-0.88794 1.07906,-1.22453 1.31606,-2.37715 0.37956,-1.84584 0.45238,-3.11033 0.26716,-4.63881 -0.0631,-0.52076 -0.17385,-1.47601 -0.24609,-2.12277 -0.15733,-1.40858 -0.59225,-3.96419 -0.92055,-5.40925 -0.45009,-1.9811 -1.86087,-6.40845 -2.04219,-6.40887 -0.0153,-3e-5 -0.0121,1.78591 0.007,3.96875 0.0192,2.18285 -0.01,5.00069 -0.0647,6.26187 -0.10283,2.36451 -0.005,6.00671 0.20139,7.48448 0.0645,0.46227 0.14929,1.5206 0.18839,2.35185 0.0391,0.83125 0.0929,1.58126 0.11962,1.6667 0.0594,0.1901 0.48456,-0.0913 1.17375,-0.7768 z m 2.70491,-48.56164 c -0.21029,-1.20263 -0.21347,-1.44051 -0.0193,-1.44051 0.10353,0 0.18823,0.0778 0.18823,0.17281 0,0.19998 0.40936,0.9663 0.67757,1.26842 0.34097,0.38407 0.29444,0.10122 -0.0751,-0.45673 -0.4003,-0.60434 -0.45367,-0.88398 -0.2077,-1.08812 0.12599,-0.10457 0.25582,-0.005 0.61736,0.47453 0.39803,0.52769 0.98698,1.06157 0.98698,0.8947 0,-0.0311 -0.1847,-0.28893 -0.41044,-0.57291 -0.45404,-0.57118 -0.55987,-1.16476 -0.20692,-1.16071 0.11318,0.001 0.44121,0.23942 0.72896,0.52917 0.31533,0.31751 0.62988,0.5268 0.79175,0.5268 h 0.26856 l -0.24275,-0.43218 c -0.1335,-0.2377 -0.47593,-0.67426 -0.76095,-0.97014 -0.53605,-0.55649 -0.67029,-1.01721 -0.33397,-1.14627 0.1299,-0.0498 0.44843,0.20269 1.04294,0.82684 0.64308,0.67514 0.93286,0.8986 1.1653,0.8986 0.27571,0 0.30937,-0.0452 0.30937,-0.41535 0,-0.90295 -0.59421,-1.63342 -1.89823,-2.33355 -1.38309,-0.74257 -2.012,-1.26108 -4.14249,-3.4153 l -2.21896,-2.24367 0.0768,0.47037 c 0.0422,0.25871 0.12981,0.78787 0.1946,1.17593 0.21564,1.2914 0.3313,2.33501 0.46268,4.17454 l 0.13018,1.82268 0.66855,0.61106 c 0.52405,0.47899 0.68913,0.5743 0.76374,0.44098 0.1585,-0.28324 0.2737,-0.19482 0.42951,0.32967 0.25666,0.86399 0.66673,1.48361 0.98977,1.49557 0.0556,0.002 0.0664,-0.1947 0.024,-0.43723 z m -3.25331,-13.49643 c 0.52406,-0.80992 0.95284,-1.52429 0.95284,-1.5875 0,-0.0632 0.0529,-0.11492 0.11759,-0.11492 0.0647,0 0.11759,-0.0461 0.11759,-0.10235 0,-0.0563 0.33406,-0.67807 0.74236,-1.38172 1.24015,-2.13724 2.89444,-5.31054 3.60949,-6.9238 0.14333,-0.32338 0.39264,-0.879 0.55401,-1.23472 0.16137,-0.35572 0.3977,-0.91134 0.52517,-1.23472 0.12747,-0.32338 0.30318,-0.74671 0.39047,-0.94074 0.68051,-1.51274 2.2886,-6.4395 2.29105,-7.01922 7.4e-4,-0.17404 0.0543,-0.34914 0.11894,-0.38911 0.0647,-0.04 0.11759,-0.19873 0.11759,-0.35278 0,-0.15406 0.0529,-0.31281 0.11759,-0.35278 0.16174,-0.1 0.14922,-2.3533 -0.016,-2.87267 -0.53293,-1.67563 -1.27311,-2.5 -2.58783,-2.88221 -0.87463,-0.25426 -1.65562,-0.0939 -3.65801,0.75127 -0.14553,0.0614 -0.50271,0.19003 -0.79375,0.2858 -0.87285,0.28722 -2.6293,0.90454 -2.88102,1.01256 -0.12936,0.0555 -0.76436,0.29483 -1.41111,0.53184 -1.17391,0.43019 -1.35545,0.49895 -1.97521,0.74812 -0.42257,0.16988 -0.90581,0.17001 -0.90581,2.4e-4 0,-0.0912 -0.0545,-0.0867 -0.17639,0.0144 -0.097,0.0805 -0.17639,0.1918 -0.17639,0.2473 0,0.0555 -0.19118,0.40621 -0.42485,0.77935 -1.72006,2.7468 -2.82362,3.9863 -6.04274,6.78709 -1.83221,1.59411 -3.92501,3.68168 -4.54483,4.53348 -1.16701,1.6038 -1.69014,2.779 -1.3348,2.99861 0.0647,0.04 0.11759,0.3606 0.11759,0.7125 0,0.3519 0.0228,0.63982 0.0506,0.63982 0.0278,0 0.38501,-0.15296 0.79375,-0.33992 0.40874,-0.18696 1.0342,-0.47245 1.38992,-0.63443 0.35572,-0.16198 1.07009,-0.4916 1.5875,-0.73249 0.51741,-0.2409 1.2847,-0.59476 1.70509,-0.78637 1.03936,-0.47373 7.43561,-3.67165 8.81945,-4.40944 2.36077,-1.25865 2.66137,-1.42012 3.175,-1.70546 0.29104,-0.16169 0.8202,-0.45375 1.17592,-0.64903 0.35572,-0.19527 0.98648,-0.5493 1.4017,-0.78673 0.41522,-0.23743 0.82532,-0.40469 0.91134,-0.37168 0.086,0.033 0.15641,0.21435 0.15641,0.40296 0,0.40962 -0.12604,0.50249 -2.17547,1.60306 -0.6205,0.33321 -1.57045,0.87131 -1.68753,0.95588 -0.0227,0.0164 0.0639,0.33755 0.19232,0.71371 0.12846,0.37616 0.29912,1.15485 0.37926,1.73044 0.24916,1.78961 -0.17465,5.41464 -0.82626,7.06737 -0.051,0.12935 -0.21208,0.55269 -0.35796,0.94074 -0.14587,0.38806 -0.5405,1.23472 -0.87695,1.88148 l -0.61172,1.17593 0.24942,0.70555 c 0.13717,0.38806 0.28084,0.75848 0.31925,0.82315 0.0384,0.0647 0.14198,0.36895 0.23017,0.67616 0.0882,0.30721 0.16979,0.55856 0.18135,0.55856 0.0116,0 0.4498,-0.66266 0.97387,-1.47258 z m -20.11699,-2.1181 c 1.34946,-0.47001 2.37794,-1.20468 2.67213,-1.90878 0.19508,-0.46688 0.22136,-1.27305 0.0618,-1.89523 -0.26099,-1.01762 -0.47415,-2.12733 -0.54688,-2.84706 l -0.0784,-0.77555 0.5227,-0.96365 c 1.08593,-2.00205 2.70238,-3.86169 5.32688,-6.12831 3.28994,-2.8413 5.23349,-5.08614 6.9231,-7.99629 0.3863,-0.66535 1.74728,-3.44884 1.95488,-3.99815 0.0856,-0.22637 0.19999,-0.46184 0.2543,-0.52329 0.0543,-0.0614 0.0987,-0.20048 0.0987,-0.30898 0,-0.1085 0.0849,-0.26772 0.18864,-0.35382 0.30598,-0.25394 0.41349,-0.65188 0.71207,-2.63567 0.15575,-1.03481 0.3392,-2.19898 0.40768,-2.58704 0.0685,-0.38805 0.16694,-0.97014 0.21879,-1.29351 0.17203,-1.07274 0.3548,-1.98505 0.65965,-3.2926 0.16586,-0.71143 0.32961,-1.46599 0.36388,-1.67678 0.0343,-0.2108 0.10939,-0.41236 0.16692,-0.44791 0.0575,-0.0356 0.1046,-0.15999 0.1046,-0.27652 0,-0.11653 0.18513,-0.78809 0.4114,-1.49237 0.68552,-2.13371 0.82863,-2.66147 1.12845,-4.16151 0.14669,-0.73391 0.27225,-1.93056 0.30958,-2.95027 0.12607,-3.44451 -0.39699,-4.83657 -3.20399,-8.52702 -0.59806,-0.78629 -1.14046,-1.52446 -1.20533,-1.64039 l -0.11795,-0.21077 -0.59376,0.25543 c -0.74559,0.32074 -0.77227,0.31983 -1.50615,-0.0515 l -0.60658,-0.30691 -0.64127,0.47374 c -0.3527,0.26056 -0.7155,0.54478 -0.80622,0.6316 -0.49561,0.47432 -1.59066,1.32478 -2.57559,2.0003 -1.14892,0.78798 -5.93187,3.86063 -7.55889,4.85596 -0.5032,0.30784 -0.96732,0.65762 -1.03137,0.7773 -0.0676,0.12633 -0.13387,1.85876 -0.158,4.13074 -0.0232,2.18637 -0.0976,4.1726 -0.16856,4.50111 -0.0699,0.32338 -0.18236,0.83932 -0.25,1.14653 -0.45801,2.08003 -1.04568,5.12461 -1.19257,6.17838 -0.16476,1.18206 -0.0572,2.65477 0.25939,3.55241 0.927,2.62809 1.43238,5.97956 1.37425,9.11342 l -0.0349,1.88148 0.41157,-0.0359 c 0.22637,-0.0198 0.58561,-0.0907 0.79831,-0.15761 0.45192,-0.1422 0.73001,0.0152 0.73105,0.41372 4.3e-4,0.16105 0.29086,-0.18971 0.81521,-0.98454 0.448,-0.67909 1.04302,-1.55706 1.32226,-1.95104 2.91208,-4.10861 3.54387,-5.0868 4.28422,-6.63322 0.31938,-0.66711 0.38361,-0.97379 0.50483,-2.41065 0.13286,-1.57473 0.18896,-2.0217 0.487,-3.88055 0.31062,-1.93722 0.35345,-2.34392 0.47061,-4.46852 0.12146,-2.20267 0.34063,-4.19789 0.57482,-5.23287 0.40837,-1.80484 0.47743,-2.30136 0.47743,-3.4326 0,-0.69147 0.0474,-1.2865 0.10528,-1.32228 0.4202,-0.25971 0.42661,2.58482 0.0106,4.69608 -0.29035,1.47344 -0.36562,1.99653 -0.53302,3.70417 -0.26493,2.70264 -0.51221,4.64625 -1.10363,8.67464 -0.069,0.4701 -0.12549,1.41705 -0.12549,2.10434 v 1.24961 l -0.53991,1.07066 c -0.47575,0.94343 -1.05347,1.99374 -1.49334,2.71495 -0.1499,0.24579 -1.60129,2.38771 -1.75436,2.58904 -0.0492,0.0647 -0.21258,0.27634 -0.36313,0.47037 -0.15054,0.19403 -0.58712,0.80257 -0.97017,1.35232 -0.38305,0.54974 -0.75993,1.07891 -0.83752,1.17592 -0.63655,0.79593 -4.61487,6.92435 -6.06872,9.34861 -1.95409,3.25839 -2.73063,4.74956 -2.98133,5.72502 -0.23368,0.90919 -0.16082,2.54437 0.15591,3.49928 0.22315,0.67278 0.17508,0.63839 1.22171,0.8738 0.16713,0.0376 0.50514,0.2283 0.75113,0.42378 0.51245,0.40725 1.00205,0.4547 1.80527,0.17494 z m -4.80875,-3.84705 c 0.54869,-2.84955 1.4601,-4.75985 4.24986,-8.90764 2.43394,-3.61877 4.09278,-6.23244 3.95607,-6.23318 -0.1275,-7e-4 -0.83253,0.11433 -2.91313,0.4753 -1.30689,0.22674 -3.63925,0.0419 -3.99796,-0.31678 -0.0718,-0.0718 -0.11291,-0.25578 -0.0913,-0.40876 0.035,-0.24763 0.0974,-0.27682 0.56852,-0.26604 0.29104,0.007 0.88609,0.054 1.32234,0.10514 1.04465,0.12254 3.31765,-0.14582 3.13181,-0.36975 -0.0877,-0.10563 -0.0826,-0.47119 0.0171,-1.23831 0.13188,-1.01467 0.0843,-2.19633 -0.17659,-4.38882 -0.25289,-2.12492 -0.79443,-4.1649 -1.63343,-6.15317 -0.62316,-1.47675 -0.71531,-1.66674 -0.80844,-1.66674 -0.0489,0 -0.0889,-0.0613 -0.0889,-0.1363 0,-0.19542 -0.81528,-1.24793 -1.93102,-2.49291 -0.52985,-0.59123 -1.27494,-1.52475 -1.65575,-2.07449 -0.93124,-1.34433 -1.06917,-1.4673 -1.84508,-1.64494 -1.21079,-0.27721 -2.05247,-0.94113 -1.90242,-1.50066 0.0936,-0.34918 0.19295,-0.33543 0.84549,0.117 l 0.55035,0.38158 0.99954,-0.002 c 0.89116,-0.002 1.05691,-0.0385 1.5287,-0.33465 0.87531,-0.5494 1.40956,-1.23902 1.58268,-2.04292 l 0.0823,-0.38218 h -0.28282 c -0.66037,0 -1.18727,-1.26458 -0.73509,-1.76423 0.1146,-0.12663 0.38631,-0.26363 0.6038,-0.30443 0.34988,-0.0656 0.39513,-0.1167 0.39284,-0.44327 -0.008,-1.11767 -1.18081,-2.29144 -2.48306,-2.48473 -0.28213,-0.0419 -1.04213,-0.016 -1.68889,0.0574 -1.11798,0.12699 -1.43939,0.17219 -3.2338,0.45472 -0.42039,0.0662 -1.31997,0.20653 -1.99907,0.31186 -1.09884,0.17044 -2.69575,0.48033 -3.88056,0.75305 -0.56081,0.12908 -2.51449,0.80886 -2.90108,1.00943 -0.57902,0.3004 -1.02582,-0.25393 -0.5385,-0.6681 0.90837,-0.77203 3.94393,-1.56782 8.67245,-2.27355 0.64676,-0.0965 1.51989,-0.23214 1.94028,-0.30136 0.98857,-0.16278 2.2612,-0.32422 3.58658,-0.45497 1.49072,-0.14706 2.67113,-0.31782 3.76296,-0.54435 0.51741,-0.10735 1.11321,-0.22135 1.32401,-0.25332 0.21079,-0.032 0.41235,-0.10521 0.44791,-0.16274 0.0356,-0.0575 0.16575,-0.1046 0.28931,-0.1046 0.2399,0 0.7144,-0.24528 1.72458,-0.89148 0.34566,-0.22112 0.68037,-0.40204 0.74379,-0.40204 0.0634,0 0.11536,-0.0397 0.11543,-0.0882 6e-5,-0.0485 0.27097,-0.24032 0.60201,-0.42626 1.76315,-0.9903 7.28464,-4.70299 8.0572,-5.41772 0.50817,-0.47013 2.25282,-1.74646 2.89062,-2.11468 0.55785,-0.32207 0.79727,-0.32065 0.79727,0.005 0,0.0965 0.18113,0.25113 0.4025,0.34363 0.3468,0.1449 0.45729,0.14529 0.79832,0.003 0.92331,-0.38578 1.44018,-1.48704 1.15467,-2.4602 -0.52427,-1.78693 -1.39995,-2.74408 -2.8684,-3.13525 -0.46576,-0.12407 -0.71637,-0.12447 -1.35231,-0.002 -0.91686,0.17636 -2.47771,0.5833 -2.69945,0.70378 -0.11201,0.0609 0.0591,0.34616 0.61736,1.02957 1.08601,1.3294 1.07088,1.42036 -0.34812,2.09234 -0.61623,0.29183 -1.14383,0.5306 -1.17244,0.5306 -0.0286,0 -0.33139,0.12691 -0.67286,0.28202 -0.34146,0.15511 -0.93834,0.41508 -1.3264,0.5777 -0.38806,0.16263 -1.11588,0.48551 -1.6174,0.71752 -0.50151,0.23201 -0.94403,0.42183 -0.98338,0.42183 -0.0394,0 -0.90385,0.41725 -1.92111,0.92721 -2.2209,1.11337 -3.90993,2.12098 -4.48547,2.67585 -0.50061,0.48264 -0.81272,0.55452 -4.75097,1.0941 -1.49682,0.20508 -1.7521,0.23554 -3.175,0.37886 -0.82148,0.0827 -3.37656,0.14643 -6.11482,0.15241 -4.62597,0.0101 -5.09353,0.0419 -6.11481,0.416 -1.0671,0.39085 -2.05787,1.09615 -2.05787,1.46493 0,0.79695 -1.21409,3.65165 -2.04849,4.81661 -0.94509,1.31951 -2.50116,2.57698 -2.84045,2.29539 -0.26853,-0.22286 -0.20125,-0.67071 0.13373,-0.89019 0.31703,-0.20773 0.84191,-1.1313 1.01028,-1.7777 0.0548,-0.2102 0.15599,-0.58061 0.22497,-0.82315 0.80797,-2.84099 0.91518,-5.76648 0.25319,-6.90863 -0.12028,-0.20753 -0.13669,-0.18091 -0.13984,0.2269 -0.006,0.73834 -0.45883,2.12378 -0.97816,2.99085 -0.53596,0.89483 -1.18648,1.60355 -1.95109,2.12566 -1.09879,0.75031 -1.23285,0.94841 -1.21821,1.80029 0.029,1.6869 0.85474,3.74746 2.25021,5.61517 0.73713,0.98658 2.84546,3.14901 4.36312,4.47506 1.57677,1.37771 3.90308,3.73537 4.60572,4.6678 0.73711,0.97816 1.9522,3.34779 2.33656,4.55667 0.14395,0.45273 0.30371,0.92898 0.35503,1.05834 0.0513,0.12935 0.11973,0.36747 0.15204,0.52916 0.0323,0.16169 0.14075,0.65784 0.241,1.10256 0.47906,2.12518 0.4908,3.41122 0.079,8.65763 -0.2522,3.21329 -0.11905,5.99583 0.36014,7.52592 0.35107,1.12103 1.18042,2.41619 2.09498,3.27167 1.79007,1.67441 5.13171,2.93054 8.29633,3.1186 0.32338,0.0192 0.67334,0.0445 0.77768,0.0561 0.14384,0.0161 0.22394,-0.15654 0.33124,-0.71376 z m 4.81995,-31.89699 c 0.261,-1.65586 0.34762,-2.10321 0.77413,-3.99815 0.54279,-2.41151 0.69388,-3.97892 0.69995,-7.26127 0.003,-1.60068 -0.0378,-2.91037 -0.0905,-2.91041 -0.0528,-4e-5 -0.21027,0.0611 -0.35001,0.13591 -0.13975,0.0748 -0.41409,0.17764 -0.60963,0.22855 -0.19555,0.0509 -0.56722,0.15246 -0.82592,0.22567 -0.5915,0.16736 -1.31418,0.31554 -2.29305,0.47016 -1.25983,0.199 -1.23983,0.17991 -0.76717,0.73211 1.10722,1.29354 1.46573,4.41574 0.69428,6.04645 -0.37729,0.79751 -1.29167,1.8015 -1.96703,2.15977 l -0.52338,0.27766 0.59854,0.88844 c 0.3292,0.48865 1.08304,1.39534 1.6752,2.01488 1.12137,1.17322 1.76637,2.04895 2.35364,3.19559 l 0.34656,0.67665 0.0773,-1.02943 c 0.0425,-0.56619 0.13573,-1.39985 0.20709,-1.85258 z m -22.74138,-17.73659 c 0.59297,-0.40008 1.72536,-0.74778 2.9139,-0.89471 0.44026,-0.0544 0.82316,-0.12165 0.85089,-0.14937 0.0277,-0.0277 -0.005,-0.50542 -0.0733,-1.06153 -0.0871,-0.71175 -0.0866,-1.21187 0.002,-1.68916 0.19197,-1.03846 0.19365,-1.03455 -0.66091,-1.53069 -0.43243,-0.25106 -1.08066,-0.72213 -1.44051,-1.04684 -0.35984,-0.3247 -0.80845,-0.66866 -0.9969,-0.76435 -0.52356,-0.26585 -1.40427,-1.10158 -1.65865,-1.57394 -0.12521,-0.2325 -0.26916,-0.42273 -0.3199,-0.42273 -0.15973,0 0.0422,1.06138 0.88368,4.64491 0.0769,0.32729 0.13938,1.48733 0.14103,2.6165 0.002,1.1157 0.0309,2.02851 0.065,2.02847 0.0341,-3e-5 0.16641,-0.0705 0.29398,-0.15656 z m 22.9332,-3.70824 c 0.11667,-0.10629 0.98735,-0.59293 2.28718,-1.27835 0.42039,-0.22168 0.7799,-0.44537 0.79891,-0.4971 0.019,-0.0517 0.21375,-0.3916 0.43274,-0.75528 0.71811,-1.19254 0.90756,-1.87154 0.86446,-3.09835 l -0.0382,-1.08864 -0.30121,-4.4e-4 c -0.38801,-5.6e-4 -0.81592,-0.40042 -0.81592,-0.76243 0,-0.38207 0.15235,-0.44963 0.38945,-0.17272 0.44795,0.52316 1.1217,0.13823 1.15557,-0.66021 0.0308,-0.7253 -0.0433,-1.69369 -0.10054,-1.31549 -0.0649,0.42823 -0.21892,0.40847 -0.45833,-0.0588 -0.25368,-0.4951 -0.4082,-0.58595 -0.63995,-0.37622 -0.2787,0.25221 -0.34564,0.21188 -0.3514,-0.21174 l -0.005,-0.38218 -0.2328,0.44098 c -0.24678,0.46744 -0.57996,0.59205 -0.57996,0.2169 0,-0.31847 0.45343,-1.12681 0.8396,-1.49679 0.57974,-0.55542 1.33774,-0.33711 1.67957,0.48375 0.14583,0.35016 0.32966,1.78967 0.34569,2.70702 0.005,0.2587 -0.0785,0.64234 -0.18458,0.85254 l -0.19281,0.38218 0.37317,-3.8e-4 c 0.63284,-6.4e-4 2.40255,-0.34848 2.92998,-0.5759 0.27532,-0.11872 0.64565,-0.36188 0.82295,-0.54037 0.26833,-0.27011 0.31171,-0.39591 0.25881,-0.75046 -0.035,-0.23427 -0.11398,-1.74886 -0.17559,-3.36576 -0.0616,-1.6169 -0.16344,-3.23086 -0.22627,-3.58658 -0.0628,-0.35571 -0.14795,-0.84568 -0.18916,-1.08882 -0.0412,-0.24313 -0.12201,-0.47115 -0.17954,-0.50671 -0.0575,-0.0356 -0.1046,-0.15745 -0.1046,-0.27088 0,-0.26419 -0.52034,-1.34433 -0.94484,-1.96131 -1.01449,-1.47451 -2.99946,-2.92316 -4.75548,-3.4706 -0.89992,-0.28055 -2.44564,-0.17696 -3.53069,0.23663 -0.74493,0.28394 -2.53696,1.23917 -2.93641,1.56524 -1.03777,0.84712 -1.5934,1.42919 -1.82915,1.91619 -0.22319,0.46105 -0.44796,0.70351 -1.27502,1.3754 -0.13932,0.11318 -0.30563,0.20579 -0.36956,0.20579 -0.0639,0 -0.11625,0.0494 -0.11625,0.10967 0,0.0603 -0.0957,0.14004 -0.21265,0.17716 -0.40981,0.13007 -1.29109,1.11931 -1.67142,1.8762 -0.32291,0.64261 -0.37257,0.84672 -0.31256,1.28458 0.0393,0.28632 0.1347,0.65962 0.21213,0.82954 0.1228,0.26953 0.21105,0.30896 0.69144,0.30896 0.91643,0 3.32394,-0.95597 3.06347,-1.21644 -0.17501,-0.17501 -0.15428,-1.35058 0.0349,-1.9792 0.20317,-0.67507 0.86546,-1.69007 1.20317,-1.84395 0.18654,-0.085 0.31779,-0.077 0.46156,0.0281 0.26457,0.19346 0.18033,0.59224 -0.13464,0.63739 -0.6002,0.086 -1.23592,1.20247 -1.26009,2.21293 -0.01,0.40093 0.0191,0.76585 0.0638,0.81093 0.0447,0.0451 0.34603,0.0141 0.66965,-0.0688 0.66037,-0.16924 1.33432,-0.0375 1.91309,0.37397 0.17168,0.12205 0.37117,0.22191 0.44331,0.22191 0.24739,0 1.0178,0.55974 1.3253,0.96289 0.16915,0.22177 0.42351,0.66469 0.56525,0.98428 0.70477,1.58915 0.7407,1.64108 1.11736,1.61505 0.19382,-0.0134 0.55083,-0.0589 0.79336,-0.10106 l 0.44097,-0.0767 v 0.30975 c 0,0.35986 -0.33199,0.53475 -1.18785,0.62575 l -0.5411,0.0575 -0.23074,-0.33666 c -0.12691,-0.18516 -0.303,-0.57479 -0.39132,-0.86583 -0.39652,-1.30668 -0.82339,-1.82162 -2.08972,-2.52084 -1.32266,-0.73033 -1.83177,-0.73444 -3.34648,-0.027 -1.52456,0.71202 -1.70551,0.77523 -2.50168,0.87387 l -0.70511,0.0874 0.0383,0.46993 c 0.021,0.25846 0.13989,0.78294 0.26413,1.16551 0.12424,0.38257 0.22588,0.76832 0.22588,0.85723 0,0.0889 0.10379,0.35798 0.23064,0.59794 0.42399,0.80205 0.40883,0.7934 0.84494,0.48235 0.3485,-0.24856 0.50955,-0.27882 1.38566,-0.26038 0.93619,0.0197 1.53691,0.18296 1.53691,0.41767 0,0.0596 -0.47089,0.0703 -1.09122,0.0247 l -1.09122,-0.0801 -0.37869,0.31864 c -0.20827,0.17526 -0.37868,0.3655 -0.37868,0.42277 0,0.0573 0.17198,0.19298 0.38217,0.3016 0.2102,0.10861 0.43896,0.27498 0.50837,0.36971 0.20227,0.27607 0.82898,0.0698 1.19969,-0.39475 0.35788,-0.44854 0.6144,-0.51972 0.6144,-0.1705 0,0.32874 -0.65101,1.02748 -1.11292,1.19451 -0.31127,0.11256 -0.4042,0.22131 -0.45462,0.53205 -0.0349,0.21481 -0.0139,0.56302 0.0465,0.77379 0.0605,0.21077 0.11072,0.75398 0.11171,1.20714 0.002,0.9088 0.0618,1.07467 0.40977,1.13555 0.16366,0.0286 0.22577,-0.0167 0.20423,-0.14895 -0.0631,-0.38741 0.33314,-0.52122 1.26568,-0.42743 0.2376,0.0239 0.30072,-0.0283 0.32911,-0.27232 0.0267,-0.2291 -0.0385,-0.33543 -0.27011,-0.44098 -0.16789,-0.0765 -0.41301,-0.13908 -0.54471,-0.13908 -0.35086,0 -0.20216,-0.28697 0.17164,-0.33121 0.41076,-0.0486 0.9618,0.34894 1.12247,0.80984 0.11046,0.31687 0.0915,0.3961 -0.15396,0.64151 l -0.27999,0.27998 0.22755,0.26237 c 0.12515,0.1443 0.25696,0.37954 0.2929,0.52275 0.07,0.27872 0.26692,0.34461 1.51574,0.50703 1.18686,0.15436 1.36055,0.33065 0.82315,0.83551 -0.33104,0.311 -0.37391,0.47037 -0.12653,0.47037 0.0921,0 0.29053,0.15582 0.44097,0.34627 0.28645,0.36263 0.44563,0.42747 0.63218,0.25751 z m 6.21405,-14.36936 c 0.14248,-0.89103 -0.37437,-2.1817 -1.18862,-2.96819 -0.49715,-0.48019 -0.62245,-0.88715 -0.30529,-0.99154 0.21698,-0.0714 1.05544,0.8632 1.37935,1.53755 0.53797,1.12 0.67086,2.8998 0.21652,2.8998 -0.14265,0 -0.16305,-0.0956 -0.10196,-0.47762 z m -19.48045,13.53437 c 0.27542,-0.2566 0.30793,-0.34375 0.50586,-1.35629 0.0759,-0.38806 0.21072,-0.78791 0.2997,-0.88857 0.22411,-0.25354 -0.0678,-0.66153 -0.56569,-0.79053 -0.50453,-0.13074 -0.53693,-0.34046 -0.0677,-0.43855 0.21362,-0.0447 0.66819,-0.27131 1.01015,-0.50365 l 0.62175,-0.42245 -0.0838,-0.3596 c -0.0461,-0.19779 -0.0859,-0.45684 -0.0884,-0.57567 -0.003,-0.11883 -0.17845,-0.40041 -0.39096,-0.62573 -0.21251,-0.22533 -0.38637,-0.51523 -0.38637,-0.64422 0,-0.26713 0.21025,-0.70917 0.39416,-0.82869 0.20418,-0.13269 0.32026,0.0205 0.19412,0.25623 -0.19121,0.35727 -0.13897,0.8042 0.10954,0.9372 0.30619,0.16387 0.30822,0.16332 0.6438,-0.17225 0.3689,-0.36891 0.65589,-0.38165 0.66216,-0.0294 l 0.005,0.26458 0.17474,-0.32206 0.17474,-0.32205 -0.25425,-0.49838 c -0.13984,-0.2741 -0.47194,-0.7835 -0.73801,-1.13199 -0.26608,-0.34848 -0.53601,-0.73335 -0.59985,-0.85526 -0.0907,-0.1731 -0.24777,-0.22165 -0.71741,-0.22165 -0.702,0 -1.37409,-0.20398 -1.30322,-0.39554 0.0272,-0.0735 0.1222,-0.11543 0.21113,-0.0932 1.0193,0.25485 1.45631,0.14891 1.68968,-0.40962 0.32279,-0.77256 0.26798,-0.86552 -0.51039,-0.86552 -0.72201,0 -1.24741,0.19221 -1.60477,0.58708 -0.26918,0.29745 -0.41237,0.30053 -0.41237,0.009 0,-0.48693 1.28807,-1.06634 2.37054,-1.06634 h 0.56928 v -0.27047 c 0,-0.14875 -0.045,-0.32073 -0.0999,-0.38217 -0.0549,-0.0614 -0.18826,-0.34022 -0.29624,-0.6195 -0.10798,-0.27929 -0.60542,-1.0095 -1.10541,-1.62269 l -0.90909,-1.1149 -0.0602,0.97666 c -0.11436,1.85466 -0.7285,2.44952 -4.64348,4.49772 -2.0653,1.0805 -2.73653,1.57279 -3.44272,2.52495 -0.85125,1.14774 -0.9196,2.57431 -0.20041,4.18308 0.48817,1.09202 2.21771,2.48268 3.79711,3.05313 0.23869,0.0862 0.59273,0.22533 0.78676,0.30916 0.63273,0.27337 1.62379,0.42903 2.82944,0.44439 1.02648,0.0131 1.21602,-0.0155 1.43133,-0.21613 z m 11.75466,-0.30734 0.32994,-0.30337 -0.29398,0.0666 c -0.16169,0.0366 -0.38659,0.0673 -0.49977,0.0682 -0.12686,9.9e-4 -0.20579,0.0918 -0.20579,0.23679 0,0.32277 0.27485,0.29478 0.6696,-0.0682 z m -1.31636,-0.51978 c -0.04,-0.0647 -0.12559,-0.1176 -0.19027,-0.1176 -0.0647,0 -0.0849,0.0529 -0.0449,0.1176 0.04,0.0647 0.12559,0.11759 0.19027,0.11759 0.0647,0 0.0849,-0.0529 0.0449,-0.11759 z m 8.70185,-1.29003 c 0.32338,-0.1461 0.86723,-0.39186 1.20854,-0.54614 0.34132,-0.15427 0.64402,-0.2805 0.67267,-0.2805 0.0559,0 0.88825,-0.37022 2.27256,-1.01084 l 0.86117,-0.39853 -0.23112,-0.32425 c -0.12711,-0.17834 -0.34266,-0.42506 -0.479,-0.54826 -0.13633,-0.12321 -0.24787,-0.34498 -0.24787,-0.49283 0,-0.14785 -0.0529,-0.30152 -0.11759,-0.34149 -0.0647,-0.04 -0.1176,-0.17539 -0.1176,-0.30093 0,-0.27733 -0.26578,-0.29836 -0.48177,-0.0381 -0.40172,0.48404 -1.88928,0.9493 -3.41016,1.06658 l -0.92936,0.0717 v 0.8495 c 0,0.79446 -0.35013,2.21448 -0.71337,2.89319 l -0.11854,0.22151 0.62174,-0.27747 c 0.34196,-0.1526 0.88632,-0.397 1.2097,-0.5431 z m -17.4037,-0.82825 c 0,-0.24915 -0.0499,-0.28881 -0.33768,-0.26828 -0.45016,0.0321 -0.48212,0.0849 -0.22993,0.37939 0.27615,0.32252 0.56761,0.26547 0.56761,-0.11111 z m 0.0168,-0.88033 c 0.22541,-0.22542 0.0545,-0.22281 -0.24506,0.004 -0.12812,0.0969 -0.16313,0.17264 -0.0798,0.17264 0.0817,0 0.22784,-0.0794 0.32486,-0.17638 z m 15.92048,-6.1671 c -0.0838,-0.15665 -0.24168,-0.23908 -0.44859,-0.23425 l -0.31925,0.007 0.26021,0.10473 c 0.14312,0.0576 0.32815,0.21352 0.41119,0.34648 0.18838,0.30164 0.27282,0.10514 0.0964,-0.22442 z m -35.86922,10.33202 c 0,-0.13464 0.17352,-0.54474 0.38561,-0.91134 0.3634,-0.62815 0.88772,-1.6802 1.29919,-2.60683 0.25073,-0.56463 0.71238,-2.00121 0.97306,-3.028 0.25277,-0.9956 0.447,-1.12167 0.36236,-0.23519 -0.1533,1.60564 -0.69338,3.24377 -1.75432,5.32107 -0.47256,0.92526 -0.60514,1.1637 -0.68652,1.23472 -0.0371,0.0323 -0.10154,0.1514 -0.1433,0.26458 -0.10686,0.28962 -0.43608,0.26017 -0.43608,-0.039 z m 3.13881,-8.67524 c 0.0786,-1.6568 0.72033,-3.37804 1.11301,-2.98536 0.1053,0.1053 0.0521,0.32585 -0.22571,0.93571 -0.19991,0.43886 -0.42249,1.03605 -0.49461,1.3271 -0.0721,0.29104 -0.18042,0.635 -0.24066,0.76435 -0.0602,0.12935 -0.13083,0.42039 -0.15688,0.64676 -0.026,0.22636 -0.0239,-0.0835 0.005,-0.68856 z"
       id="path29" /></g></svg>
