<?xml version="1.0" encoding="UTF-8" standalone="no"?>
<!-- Created with Inkscape (http://www.inkscape.org/) -->

<svg
   width="84.559181mm"
   height="74.461899mm"
   viewBox="0 0 84.55919 74.461899"
   version="1.1"
   id="svg1"
   xml:space="preserve"
   xmlns="http://www.w3.org/2000/svg"
   xmlns:svg="http://www.w3.org/2000/svg"><defs
     id="defs1" /><g
     id="layer1"
     transform="translate(379.00706,-1529.2404)"><path
       style="fill:#4d4d4d;stroke-width:2.06329"
       d="m -340.80653,1603.0395 c -0.88809,-0.9067 -0.81382,-2.3724 0.16215,-3.1991 0.44576,-0.3776 0.81047,-1.5258 0.81047,-2.5514 v -1.8649 l -7.9697,0.4154 c -4.38336,0.2287 -11.74332,0.4157 -16.35548,0.4157 h -8.38577 l -3.23109,-1.9717 -3.23111,-1.9718 0.0974,-3.4561 c 0.1454,-5.1562 1.90271,-10.4222 4.47278,-13.4026 2.69697,-3.1276 5.98291,-4.7347 11.01204,-5.3857 2.14732,-0.2779 4.32185,-0.669 4.8323,-0.8689 0.51046,-0.2001 0.9281,-0.1125 0.9281,0.1939 0,0.3062 -0.72878,0.8161 -1.61951,1.133 -2.05984,0.733 -3.17816,2.9708 -2.12929,4.261 1.06939,1.3154 2.97395,1.9098 4.87564,1.5214 2.27806,-0.4651 2.43588,-1.3081 0.88211,-4.7119 -1.65586,-3.6273 -2.04081,-5.7739 -2.08855,-11.6467 -0.0292,-3.58 0.2223,-5.2304 1.10817,-7.2746 0.63021,-1.4544 1.28415,-2.503 1.45319,-2.3304 0.16909,0.173 0.0525,0.7999 -0.25908,1.3942 -1.37715,2.6267 -1.73438,6.3598 -1.11516,11.6538 0.53459,4.5706 1.61828,8.3196 2.40492,8.3196 0.13356,0 0.0968,-0.7447 -0.0815,-1.6548 -0.49092,-2.5058 0.22374,-1.98 0.92564,0.6808 0.33886,1.2846 1.28644,3.2083 2.10573,4.2748 0.81929,1.0663 1.76689,2.8076 2.10578,3.8693 0.3389,1.0619 2.0378,3.8666 3.77537,6.2329 6.23653,8.4932 8.4446,13.5333 6.29749,14.3744 -1.04142,0.408 -1.04544,2.2243 -0.006,3.104 1.0744,0.9104 2.43831,0.3096 2.43831,-1.074 0,-0.6129 0.46214,-2.356 1.02698,-3.8734 0.97265,-2.6131 0.97804,-2.8249 0.1017,-4.0048 -2.75244,-3.7059 -6.63761,-13.1802 -5.76861,-14.0674 0.26825,-0.2737 2.91897,5.1935 3.77532,7.787 0.27379,0.8292 0.6783,0.9635 2.05479,0.6825 2.74172,-0.5598 7.4541,-2.9604 10.01329,-5.1012 1.30005,-1.0873 2.50402,-1.8338 2.67552,-1.6587 0.17154,0.1751 0.3983,3.9033 0.50401,8.2852 0.13907,5.7638 -0.0123,8.5581 -0.54677,10.1049 -0.66127,1.9131 -0.64636,2.1476 0.14173,2.2303 0.48442,0.05 2.15724,0.2598 3.71743,0.4643 3.1261,0.4094 3.41174,0.1 1.66184,-1.8016 -1.54191,-1.6754 -0.63854,-1.617 2.47658,0.1606 2.03427,1.1607 2.39822,1.5847 1.89301,2.2061 -0.79803,0.9817 -6.9832,1.038 -9.55913,0.088 -1.99012,-0.7346 -2.03153,-1.0254 -0.90422,-6.35 l 0.37951,-1.7926 -4.25501,0.054 c -6.1918,0.079 -6.85834,0.3635 -7.31813,3.113 -0.41439,2.478 -1.33538,4.587 -2.28588,5.2349 -0.92857,0.6329 -3.28188,0.4918 -3.99853,-0.2397 z m -9.78334,-24.609 c -1.12667,-2.2544 -2.57707,-3.7728 -3.09692,-3.2423 -0.66578,0.6798 2.71586,5.1831 4.00299,5.3309 0.0803,0 -0.3274,-0.9308 -0.90607,-2.0886 z m 31.83056,15.7936 c 0.001,-0.3996 0.50829,-3.8292 1.12688,-7.6212 1.45846,-8.9402 1.2637,-14.0234 -0.59621,-15.5608 -1.50641,-1.2452 -4.50049,-1.0367 -7.0318,0.4897 -1.2866,0.7759 -1.45224,1.1924 -1.36281,3.4267 0.10864,2.7161 -0.4351,4.3386 -1.81717,5.4217 -1.21612,0.9533 -1.56858,0.8662 -1.76528,-0.4354 -0.095,-0.6284 -0.83806,-1.5527 -1.65132,-2.0538 -1.38568,-0.8539 -1.58338,-0.8481 -3.14424,0.094 -2.01183,1.2132 -2.96572,0.6006 -1.05046,-0.6746 1.65436,-1.1015 3.77044,-3.2049 5.07738,-5.0473 0.6414,-0.9042 1.06784,-1.1403 1.23848,-0.6859 0.14316,0.3811 0.48264,0.5524 0.75445,0.3811 0.27179,-0.171 0.49416,-0.1084 0.49416,0.1417 0,0.2494 -0.54564,0.6984 -1.21257,0.9977 -2.19482,0.9857 -1.63263,4.1297 0.73841,4.1297 0.82507,0 1.01448,-0.4161 1.01448,-2.2289 0,-1.2257 0.53018,-3.8939 1.17817,-5.9291 1.39353,-4.3769 1.50969,-8.0411 0.34744,-10.9592 -0.46392,-1.1649 -1.1529,-3.1107 -1.53107,-4.3242 -0.37816,-1.2134 -0.82031,-2.5785 -0.98254,-3.0335 -0.24988,-0.7009 -0.1599,-0.7153 0.58904,-0.094 0.4862,0.4035 1.15747,1.6445 1.49173,2.7577 0.33424,1.1134 0.86103,2.7034 1.17066,3.5333 l 0.56294,1.5091 1.49651,-1.0878 c 0.82307,-0.5983 2.67488,-1.6035 4.11514,-2.2337 4.98821,-2.1826 15.11671,-1.2103 19.37649,1.8601 2.52286,1.8185 3.36061,3.1049 4.63436,7.1166 1.61528,5.0871 1.33783,12.9381 -0.62976,17.8203 -1.89134,4.693 -5.80688,10.5796 -7.4679,11.2271 -0.7632,0.2975 -4.06221,0.6973 -7.33114,0.8885 -3.26894,0.1917 -6.36903,0.4723 -6.88908,0.6247 -0.5599,0.1647 -0.94466,-0.021 -0.94337,-0.4494 z m -24.29346,-28.7276 c -1.34762,-10.2233 -1.62176,-11.5818 -2.72074,-13.4832 -1.37441,-2.378 -1.0967,-3.4326 1.72737,-6.56 2.03582,-2.2545 2.11724,-2.4778 1.5471,-4.2412 -0.331,-1.024 -1.32563,-2.5693 -2.21029,-3.4346 l -1.60846,-1.5731 v 1.6477 c 0,1.827 -0.83763,2.9712 -2.17515,2.9712 -1.48093,0 -3.23412,2.3392 -2.85689,3.8118 0.24626,0.9612 0.13703,1.2333 -0.41934,1.044 -1.04152,-0.3544 -2.46163,-2.9867 -3.25944,-6.0415 -0.57566,-2.2043 -0.54786,-2.7547 0.19789,-3.9164 0.97558,-1.5199 3.67448,-2.9788 6.03072,-3.2598 1.341,-0.1605 1.74079,0.123 2.7402,1.9419 1.23579,2.2487 2.98401,3.7062 2.98401,2.4878 0,-0.3728 -0.30036,-1.5256 -0.66746,-2.5618 -0.63749,-1.7997 -0.58858,-1.9563 1.08917,-3.4866 1.37743,-1.2562 2.27205,-1.6023 4.14436,-1.6023 5.22168,0 6.73148,1.717 7.12313,8.0997 0.40826,6.654 0.46216,6.7926 2.63956,6.7926 1.03445,0 1.88082,0.2673 1.88082,0.5939 0,1.0071 -3.09825,3.8187 -4.20812,3.8187 -1.46177,0 -3.71097,-1.9275 -4.10119,-3.5145 -0.21888,-0.8904 -1.04101,-1.6179 -2.50309,-2.2152 -1.19741,-0.489 -2.29051,-0.8891 -2.42909,-0.8891 -0.13867,0 -0.59938,0.8487 -1.02398,1.886 -0.42458,1.0373 -1.24551,2.1449 -1.82425,2.4609 -0.57877,0.3163 -1.34793,1.3035 -1.70929,2.1941 -0.54415,1.3411 -0.50808,1.9131 0.20994,3.3304 0.91294,1.8022 1.66515,2.1724 2.07591,1.0219 0.16071,-0.4503 0.88848,-0.067 2.09694,1.1032 2.06594,2.0009 4.39026,2.3659 5.26816,0.8272 0.49183,-0.862 0.55248,-0.8324 0.56717,0.2758 0.008,0.6825 0.25957,1.241 0.55675,1.241 0.29734,0 0.54123,1.4263 0.54233,3.1716 0.001,2.247 0.33238,3.7246 1.1355,5.0694 l 1.13348,1.8981 1.01376,-1.3465 c 0.55757,-0.7405 1.01918,-1.5256 1.02577,-1.7444 0.0329,-1.0861 -2.74363,-6.5525 -3.47327,-6.8383 -0.54983,-0.2153 -0.83058,-1.0177 -0.81782,-2.3373 l 0.0204,-2.0092 1.32646,1.6546 c 3.13587,3.9118 4.94685,11.4603 3.62476,15.1087 -0.4921,1.3581 -0.24973,1.5272 -4.1745,-2.9135 -1.74392,-1.9734 -1.89622,-2.4241 -1.89622,-5.6115 v -3.4659 l -2.38934,0.094 c -1.86338,0.073 -2.69548,-0.2001 -3.78011,-1.2393 -0.76491,-0.7336 -1.54915,-1.172 -1.74275,-0.9744 -0.1936,0.1981 -0.13376,3.2804 0.13294,6.8508 l 0.48495,6.4913 2.16127,-0.035 c 1.18872,-0.021 2.61145,-0.2416 3.16164,-0.4941 0.79842,-0.3664 0.96147,-0.2528 0.80763,0.5627 -0.13069,0.6929 -0.88702,1.1616 -2.35117,1.457 -1.18712,0.2395 -2.6708,0.5563 -3.29707,0.7041 -1.06059,0.2506 -1.18469,-0.081 -1.81,-4.8236 z m 7.02459,-28.1226 c -0.86969,-4.2473 -1.1319,-4.5306 -3.4639,-3.7451 -1.07127,0.3611 -2.07043,0.8589 -2.22033,1.1065 -0.47233,0.7801 0.65002,5.6534 1.41615,6.1489 0.40286,0.2606 1.38677,0.4776 2.18645,0.4822 0.79971,0 1.65041,0.3187 1.89047,0.6979 0.73254,1.1572 0.84144,-1.5147 0.19114,-4.6904 z m -19.67764,24.8914 c -0.46541,-2.3754 -0.3575,-6.5981 0.20258,-7.9287 0.30379,-0.7217 0.47751,0.7567 0.50235,4.2746 0.0208,2.9577 -0.0531,5.3777 -0.1646,5.3777 -0.1115,0 -0.35458,-0.7757 -0.54031,-1.7236 z"
       id="path72" /></g></svg>
