<?xml version="1.0" encoding="UTF-8" standalone="no"?>
<!-- Created with Inkscape (http://www.inkscape.org/) -->

<svg
   width="118.13931mm"
   height="80.94101mm"
   viewBox="0 0 118.13932 80.941009"
   version="1.1"
   id="svg1"
   xml:space="preserve"
   xmlns="http://www.w3.org/2000/svg"
   xmlns:svg="http://www.w3.org/2000/svg"><defs
     id="defs1" /><g
     id="layer1"
     transform="translate(391.71417,-1814.7851)"><path
       style="fill:#4d4d4d"
       d="m -341.12728,1895.3525 c 0,-0.2055 0.15875,-0.2755 0.35278,-0.1556 0.19403,0.12 0.35278,0.2881 0.35278,0.3736 0,0.086 -0.15875,0.1556 -0.35278,0.1556 -0.19403,0 -0.35278,-0.1681 -0.35278,-0.3736 z m 13.91397,0.056 c -4.60953,-0.5639 -5.45526,-2.7368 -4.5832,-11.7753 0.55931,-5.797 0.53477,-5.9633 -1.4885,-10.0823 -0.77587,-1.5795 -1.59401,-2.7414 -2.08931,-2.967 -0.44774,-0.204 -0.81407,-0.4725 -0.81407,-0.5965 0,-0.5397 0.85701,-1.0185 1.37696,-0.7694 0.90454,0.4333 9.20233,-0.132 11.32304,-0.7715 1.06715,-0.3217 3.21028,-0.8986 4.7625,-1.2819 5.71439,-1.4109 10.2271,-3.7194 13.28497,-6.7959 1.61269,-1.6224 7.6767,-8.6914 10.13437,-11.8138 1.84157,-2.3397 5.68483,-8.1816 5.68483,-8.6412 0,-0.6712 -2.62797,-4.6001 -3.42715,-5.1237 -0.85266,-0.5587 -1.11202,-1.8682 -0.36521,-1.8439 0.71138,0.023 2.52276,1.7885 3.78605,3.6898 0.64457,0.9702 1.93265,2.5235 2.86239,3.4518 1.79509,1.7923 2.4098,3.6445 1.95848,5.9011 -0.35268,1.7634 -2.17879,5.3221 -4.40514,8.5848 -1.16966,1.7141 -2.04532,3.3284 -1.94592,3.5875 0.0994,0.259 -0.21645,0.7312 -0.70188,1.0492 -0.87803,0.5753 -2.26776,0.4775 -5.52273,-0.3888 -0.84739,-0.2255 -0.83702,-0.1896 0.26458,0.9144 0.63059,0.632 1.14653,1.294 1.14653,1.4713 0,0.617 -1.08863,2.9226 -1.51299,3.2043 -0.3138,0.2083 -0.24591,0.4221 0.25557,0.8047 0.67329,0.5138 0.67205,0.5472 -0.0882,2.3814 -0.89468,2.1586 -0.92501,2.3766 -0.33009,2.3736 0.24254,0 0.7114,-0.4775 1.04193,-1.0583 0.44659,-0.7849 0.85887,-1.0561 1.60506,-1.0561 0.90834,0 1.13702,-0.2754 2.39766,-2.8875 1.66541,-3.4508 3.62893,-6.0544 5.16517,-6.8488 0.61724,-0.3192 2.11735,-1.5902 3.33357,-2.8246 6.29089,-6.3845 7.01746,-15.4417 1.84213,-22.9638 -2.59191,-3.7672 -4.70322,-5.9488 -6.91847,-7.1486 -1.60398,-0.8687 -2.21419,-1.0217 -3.3511,-0.8399 -1.49184,0.2386 -2.63898,1.2048 -2.96298,2.4957 -0.21728,0.8657 -0.40338,0.9487 -1.11509,0.4973 -0.66335,-0.4207 -0.19714,-1.9124 0.93094,-2.9787 1.03464,-0.9779 3.53466,-1.7902 4.44034,-1.4426 0.33646,0.1291 1.15441,-0.1621 1.96837,-0.7008 l 1.3927,-0.9216 -0.88503,-1.3042 c -0.48677,-0.7173 -0.8388,-1.5442 -0.78229,-1.8376 0.14813,-0.7692 2.63101,-2.3653 4.6963,-3.0191 3.64956,-1.1552 5.29296,0.5528 5.24632,5.4525 -0.0241,2.5286 -0.18387,3.3202 -1.01936,5.05 -0.54495,1.1282 -1.34354,2.3173 -1.77466,2.6425 l -0.78385,0.5913 1.1461,1.4144 c 3.11694,3.8465 4.56455,7.9746 4.5165,12.8796 -0.0495,5.0578 -1.84577,9.2231 -5.65287,13.1086 l -1.95579,1.9961 1.04534,0.5406 c 3.08975,1.5977 6.6766,5.5093 8.29796,9.0492 1.95307,4.264 2.2029,5.5815 2.20764,11.6416 0.007,8.6054 -1.3153,13.5777 -3.97582,14.9535 -1.86185,0.9628 -4.74472,1.2574 -10.48352,1.0715 -3.10445,-0.1006 -6.20007,-0.2437 -6.87917,-0.318 -5.19865,-0.5688 -9.16015,-0.8519 -10.05417,-0.7185 -1.11891,0.1668 -3.23995,0.3476 -10.40694,0.8869 -4.81562,0.3624 -9.05911,0.3748 -11.83881,0.035 z m 13.53395,-1.5942 c 2.96962,-0.2634 5.48837,-0.5679 5.59722,-0.6767 0.10886,-0.1089 -4.22583,-0.1085 -9.63264,10e-4 -6.71241,0.1358 -10.13827,0.077 -10.80069,-0.1855 -1.42136,-0.5632 -1.26726,-1.6459 0.35278,-2.4786 1.72128,-0.8848 5.18116,-4.0416 7.94454,-7.2488 3.44723,-4.0008 3.81873,-4.446 6.05402,-7.255 4.70971,-5.9187 9.4813,-9.9353 15.03406,-12.6553 0.49423,-0.2421 1.11185,-0.7816 1.37249,-1.199 0.43507,-0.6967 0.35421,-0.8651 -0.98679,-2.0551 -0.80338,-0.7129 -1.46069,-1.4731 -1.46069,-1.6893 0,-0.8544 -0.98397,-0.2866 -3.175,1.8321 -2.37751,2.2991 -6.07623,5.1832 -6.64714,5.1832 -0.17999,0 -0.58908,0.3996 -0.90908,0.888 -0.32,0.4884 -1.09232,1.4183 -1.71627,2.0666 -0.62395,0.6482 -2.5632,2.7227 -4.30945,4.61 -5.04858,5.4561 -12.12679,12.5438 -12.52714,12.5438 -0.57601,0 -1.10483,1.7729 -1.10483,3.7041 0,2.9921 0.78363,4.2541 2.96262,4.7714 1.82282,0.4327 8.09833,0.3622 13.95199,-0.1569 z m 11.9456,-31.1316 c -0.12935,-0.1294 -0.23518,-0.3992 -0.23518,-0.5997 0,-0.2211 0.16431,-0.2003 0.41745,0.053 0.2296,0.2296 0.33543,0.4995 0.23518,0.5997 -0.10024,0.1003 -0.2881,0.076 -0.41745,-0.053 z m 20.7293,31.3165 c 1.25636,-0.4922 -0.16064,-0.6483 -6.5006,-0.7165 -3.39548,-0.036 -7.24517,-0.1294 -8.55486,-0.2063 -3.96404,-0.2328 -2.66574,0.3975 1.5875,0.7708 4.86409,0.4269 12.54501,0.5136 13.46796,0.152 z m 3.48209,-1.2945 c 0.88605,-0.9556 1.67908,-3.1779 2.38364,-6.6799 0.53192,-2.6438 0.52821,-10.0018 -0.006,-12.3312 -1.37987,-6.0144 -5.13668,-11.3526 -9.58751,-13.6233 -1.84058,-0.939 -2.21137,-0.8708 -3.45247,0.6349 -1.34411,1.6306 -1.34984,1.8599 -0.0465,1.8599 0.57063,0 1.13563,0.1587 1.25554,0.3528 0.11992,0.194 0.45019,0.3528 0.73394,0.3528 0.95467,0 3.28449,1.8251 4.66663,3.6557 3.24692,4.3005 4.46305,12.0563 3.24362,20.6859 -0.23304,1.6493 -0.40407,3.4539 -0.38005,4.0103 0.024,0.5564 -0.13846,1.231 -0.36107,1.4993 -0.76867,0.9262 0.66167,0.5413 1.55045,-0.4172 z m 1.48432,-11.7924 c -0.11897,-0.1925 -0.0538,-0.629 0.14484,-0.9701 0.30979,-0.532 0.36267,-0.4822 0.37187,0.35 0.0112,1.0145 -0.15196,1.2103 -0.51671,0.6201 z m -2.61971,-13.2613 c 0.0169,-0.411 0.10052,-0.4946 0.21314,-0.2132 0.1019,0.2547 0.0894,0.559 -0.0279,0.6762 -0.11723,0.1172 -0.20061,-0.091 -0.18529,-0.463 z m -2.14452,-1.9317 c 0,-0.2055 0.15875,-0.2755 0.35278,-0.1556 0.19403,0.1199 0.35278,0.288 0.35278,0.3736 0,0.086 -0.15875,0.1556 -0.35278,0.1556 -0.19403,0 -0.35278,-0.1681 -0.35278,-0.3736 z m -5.29166,-4.2125 c 0,-0.1941 0.16811,-0.3528 0.37359,-0.3528 0.20548,0 0.27549,0.1587 0.15557,0.3528 -0.11991,0.194 -0.28803,0.3527 -0.3736,0.3527 -0.0856,0 -0.15556,-0.1587 -0.15556,-0.3527 z m -43.38191,11.2007 c 0.7659,-0.8247 1.39453,-1.6184 1.39695,-1.7639 0.002,-0.1456 -1.10685,-0.2646 -2.46504,-0.2646 -1.3582,0 -2.46945,0.059 -2.46945,0.1319 0,0.2659 1.82922,3.3959 1.9846,3.3959 0.0882,0 0.78703,-0.6747 1.55294,-1.4993 z m 36.85552,-14.7285 c -0.11992,-0.194 -0.77366,-0.3528 -1.45275,-0.3528 -0.73332,0 -1.14619,0.1433 -1.0167,0.3528 0.11992,0.194 0.77366,0.3528 1.45275,0.3528 0.73332,0 1.14619,-0.1433 1.0167,-0.3528 z m 2.05025,-4.1247 c 2.76792,-3.9163 4.17959,-6.9747 4.19865,-9.0965 0.0167,-1.8585 -0.80138,-3.73 -1.61517,-3.6949 -0.22022,0.01 -1.25832,1.3734 -2.3069,3.0308 -1.5185,2.4002 -5.73517,8.022 -6.71744,8.9559 -0.10753,0.1022 -0.88616,0.9183 -1.7303,1.8134 l -1.53479,1.6275 4.00424,-0.1172 4.00423,-0.1173 z m 7.20826,-26.8259 c 0.0794,-0.2382 -0.15186,-0.3173 -0.59134,-0.2024 -0.39696,0.1038 -0.6296,0.3378 -0.51699,0.52 0.25202,0.4078 0.93144,0.2131 1.10833,-0.3176 z m -4.49601,-3.2689 c 0,-0.194 -0.15875,-0.3527 -0.35278,-0.3527 -0.19403,0 -0.35278,0.1587 -0.35278,0.3527 0,0.1941 0.15875,0.3528 0.35278,0.3528 0.19403,0 0.35278,-0.1587 0.35278,-0.3528 z m 1.56396,-4.4076 c -0.64457,-1.1969 -1.56396,-1.6761 -1.56396,-0.8151 0,0.506 1.81607,2.4659 2.05944,2.2226 0.0938,-0.094 -0.12914,-0.7272 -0.49548,-1.4075 z m 11.68383,76.0517 c -0.11359,-0.1838 -0.0562,-0.4271 0.12763,-0.5407 0.18379,-0.1136 0.42709,-0.056 0.54068,0.1276 0.11358,0.1838 0.0562,0.4271 -0.12764,0.5407 -0.18379,0.1136 -0.42709,0.056 -0.54067,-0.1276 z m -112.90751,-0.2737 c -3.25802,-0.4242 -4.25484,-1.9174 -4.19402,-6.2829 0.0446,-3.1975 0.82548,-5.627 2.6876,-8.3613 1.82923,-2.6859 3.53,-2.889 10.63263,-1.2694 3.23043,0.7366 5.75547,1.7762 12.35108,5.0849 2.11113,1.059 3.89929,1.8646 3.97369,1.7902 0.0744,-0.074 -0.18866,-0.5471 -0.5846,-1.0504 -0.98809,-1.2562 -1.75944,-3.1982 -1.75944,-4.4298 0,-2.4712 1.63393,-4.6438 6.20552,-8.2513 4.37069,-3.4491 6.19655,-5.9844 7.17128,-9.958 1.00552,-4.099 4.75938,-10.4274 7.48434,-12.6172 0.82646,-0.6642 1.31047,-1.3138 1.19772,-1.6076 -0.14112,-0.3677 0.6415,-2.664 1.00009,-2.9343 0.0264,-0.02 1.79424,-0.143 3.92855,-0.2735 3.30113,-0.2019 4.0475,-0.3613 4.99863,-1.0675 0.641,-0.4759 1.03884,-1.0366 0.93239,-1.314 -0.10212,-0.2661 -0.0206,-0.4838 0.18107,-0.4838 0.20172,0 0.45659,-0.2778 0.56638,-0.6174 0.29591,-0.9151 2.29048,-2.0928 3.96192,-2.3394 0.80749,-0.1191 2.20972,-0.5345 3.11605,-0.923 0.9266,-0.3971 2.43105,-0.7063 3.43715,-0.7063 1.6245,0 1.91122,0.1282 3.11355,1.3921 0.72836,0.7656 1.43077,1.8769 1.56091,2.4694 0.25907,1.1796 0.43874,1.2692 1.25325,0.6252 1.20071,-0.9494 2.45533,-3.0813 3.88605,-6.6034 2.1805,-5.3678 2.3371,-5.5768 7.00282,-9.3466 3.75453,-3.0335 5.32455,-5.3667 5.32455,-7.9129 0,-1.4718 0.61932,-2.2798 1.38474,-1.8068 0.66987,0.414 0.32709,3.0411 -0.65282,5.0031 -0.94879,1.8998 -2.12342,3.2427 -4.43609,5.0716 -5.22993,4.1359 -5.56064,4.5704 -7.71885,10.1406 -1.24504,3.2133 -3.74236,7.0223 -4.84512,7.3899 -0.28528,0.095 -0.23479,0.4657 0.17012,1.2487 1.13491,2.1947 0.71374,3.6563 -1.85579,6.4402 -0.98497,1.0671 -1.79331,2.0245 -1.7963,2.1275 -0.003,0.103 0.48969,0.3741 1.09485,0.6026 0.93725,0.3537 1.06747,0.5461 0.87876,1.2979 -0.16694,0.6652 -0.0469,0.9761 0.48721,1.262 0.78451,0.4198 0.95813,1.6228 0.26776,1.8552 -0.24253,0.082 -0.44097,0.6108 -0.44097,1.1759 0,0.9014 -0.14075,1.0411 -1.14653,1.138 -1.2144,0.1171 -1.40055,0.3763 -0.74272,1.0341 0.30322,0.3033 0.16377,0.4641 -0.55983,0.6457 -0.87634,0.2199 -2.64448,-0.3405 -5.21905,-1.6541 -1.33115,-0.6792 -2.96569,-0.3232 -5.24176,1.1417 -1.24275,0.7999 -2.31247,1.5936 -2.37715,1.7639 -0.0647,0.1703 -0.27829,0.3096 -0.4747,0.3096 -0.19642,0 -0.80556,0.3193 -1.35365,0.7096 -0.54809,0.3903 -1.98104,1.198 -3.18433,1.7951 -1.73202,0.8593 -2.44679,1.0368 -3.43103,0.8522 -1.68409,-0.3159 -2.74766,-1.0695 -3.26201,-2.3113 -0.23617,-0.5702 -0.56053,-0.9556 -0.72079,-0.8566 -0.56405,0.3486 -0.0365,3.5461 1.04434,6.3293 0.60105,1.5478 1.09282,3.0433 1.09282,3.3233 0,0.28 0.46719,1.5536 1.03821,2.8303 1.11015,2.482 5.44775,13.455 5.82142,14.7266 0.90116,3.0667 -3.23262,4.8779 -6.12077,2.6818 -2.06874,-1.5731 -2.50275,-1.9932 -2.50275,-2.4225 0,-0.2241 -0.21024,-0.582 -0.46719,-0.7953 -0.25696,-0.2132 -1.14399,-1.7349 -1.97118,-3.3815 -1.80888,-3.6008 -1.76155,-4.142 0.64018,-7.3195 2.96284,-3.9198 3.0199,-4.2431 1.46877,-8.3236 -1.51411,-3.9831 -1.8038,-5.3518 -1.45562,-6.8778 0.16728,-0.7331 0.46091,-1.5268 0.65252,-1.7639 0.19161,-0.237 0.46227,-1.4628 0.60146,-2.724 0.26427,-2.3944 2.36992,-8.4243 3.10492,-8.8914 1.30221,-0.8277 1.24311,-0.083 -0.29245,3.6829 -0.75912,1.862 -1.33058,3.9588 -1.46177,5.3637 -0.19768,2.1169 -0.13659,2.4202 0.74321,3.6898 1.80454,2.6039 3.47293,2.2508 10.00958,-2.1188 5.30851,-3.5486 6.17533,-3.7672 9.18348,-2.316 2.93326,1.415 3.1567,1.4588 2.18866,0.4283 -1.03437,-1.101 -0.58869,-1.9348 0.67323,-1.2594 0.41964,0.2246 0.95262,0.3395 1.1844,0.2553 0.23178,-0.084 -0.006,-0.3541 -0.52932,-0.5998 -1.71738,-0.8071 -1.55648,-2.0946 0.1793,-1.4346 1.2954,0.4925 1.4955,-0.027 0.21738,-0.5647 -1.03681,-0.436 -1.2762,-1.2994 -0.38669,-1.3947 1.12893,-0.1209 1.23746,-0.2038 0.5956,-0.4545 -0.38385,-0.15 -1.22197,-0.1545 -1.86247,-0.01 -0.64051,0.1444 -2.23144,0.098 -3.53542,-0.1039 -2.22893,-0.3445 -2.47645,-0.3122 -4.13474,0.5403 -6.97177,3.5841 -9.89486,4.5421 -9.63886,3.159 0.072,-0.3889 0.72517,-0.8009 1.76535,-1.1134 1.29124,-0.388 1.69934,-0.6955 1.87257,-1.4111 0.12182,-0.5033 0.54515,-1.5924 0.94073,-2.4204 1.66918,-3.4934 1.0689,-5.5957 -1.70402,-5.9676 -1.68183,-0.2256 -4.88784,0.6456 -6.84621,1.8604 -3.48638,2.1625 -6.94626,7.5325 -8.60692,13.3586 -1.17679,4.1285 -2.61907,6.154 -7.23959,10.1668 l -1.94027,1.6851 2.09591,-1.2441 c 1.15275,-0.6843 2.29046,-1.2441 2.52824,-1.2441 0.23778,0 0.5032,-0.1985 0.58982,-0.441 0.0866,-0.2425 0.29369,-0.3133 0.46015,-0.1572 0.16647,0.1561 0.10345,0.4069 -0.14004,0.5574 -0.24349,0.1505 -0.35153,0.5112 -0.2401,0.8016 0.14495,0.3777 -0.19501,0.6592 -1.19453,0.989 -1.91727,0.6328 -4.73796,3.1892 -5.64281,5.1142 -1.38953,2.9561 -0.66797,6.5721 1.8726,9.3842 2.52909,2.7994 1.80723,4.9171 -1.91727,5.6248 -1.06686,0.2027 -5.2735,0.3485 -9.34809,0.3241 -4.07458,-0.024 -9.31333,0.128 -11.64166,0.3389 -2.32834,0.2108 -4.39209,0.3621 -4.58611,0.3361 -0.19403,-0.026 -0.82903,-0.1093 -1.41111,-0.1851 z m 50.41836,-1.0289 c 0.90055,-0.3456 0.64007,-0.8799 -0.37511,-0.7694 -0.58578,0.064 -0.99772,-0.095 -1.10663,-0.4276 -0.0954,-0.2911 -0.0515,-0.4157 0.0976,-0.277 0.14909,0.1387 0.55807,0.099 0.90884,-0.089 0.41628,-0.2227 0.71368,-0.2184 0.85638,0.012 0.12024,0.1945 0.36799,0.3537 0.55057,0.3537 0.40786,0 0.44478,-2.0053 0.0415,-2.2545 -0.49628,-0.3068 -4.29566,1.268 -4.29566,1.7804 0,0.2664 0.51594,0.799 1.14653,1.1835 1.26673,0.7724 1.37225,0.796 2.176,0.4876 z m -21.78264,-1.9885 c 0.7637,-0.7637 -0.36133,-1.8337 -2.70656,-2.5741 -1.06715,-0.3369 -2.65465,-0.9693 -3.52778,-1.4053 -3.17579,-1.5861 -9.42565,-3.7583 -12.64136,-4.3937 -2.14274,-0.4234 -4.60694,-0.6307 -7.05556,-0.5937 l -3.7628,0.057 v 2.2931 2.293 l 4.05695,0.2468 c 5.31202,0.323 12.79288,2.3646 14.87941,4.0607 0.8283,0.6732 1.80139,0.7769 6.06706,0.646 3.01006,-0.092 4.3306,-0.2697 4.69064,-0.6297 z m 17.09561,-1.5898 c -0.15589,-0.3395 -0.50308,-1.1333 -0.77153,-1.7639 -0.49255,-1.1569 -1.03897,-1.5247 -1.03897,-0.6992 0,0.4503 1.65783,3.0805 1.94163,3.0805 0.0838,0 0.0247,-0.2778 -0.13113,-0.6174 z m -1.56377,-4.7625 c 0.52671,-0.4365 1.65863,-1.4386 2.51538,-2.2269 1.5372,-1.4143 1.55074,-1.4468 1.02779,-2.4694 -0.29146,-0.57 -0.64103,-1.5522 -0.77683,-2.1828 -0.24104,-1.1193 -0.8964,-1.6129 -0.8964,-0.6752 0,0.2592 -0.78158,1.4452 -1.73684,2.6355 -0.95525,1.1903 -1.84279,2.498 -1.9723,2.906 -0.20308,0.6399 0.37642,2.8066 0.75064,2.8066 0.072,0 0.56185,-0.3572 1.08856,-0.7938 z m -18.59118,-6.66 c 0,-0.1961 0.4872,-1.0996 1.08267,-2.0077 l 1.08266,-1.651 -1.43544,1.5447 c -0.78949,0.8495 -1.43544,1.8511 -1.43544,2.2256 0,0.3746 0.15875,0.5829 0.35278,0.463 0.19402,-0.1199 0.35277,-0.3785 0.35277,-0.5746 z m 31.72656,-23.6434 c 0.98303,-0.6111 1.78733,-1.1793 1.78733,-1.2627 0,-0.2639 -2.27256,0.3221 -2.75329,0.7098 -0.50561,0.4078 -1.2505,1.664 -0.98673,1.664 0.0909,0 0.96966,-0.5 1.95269,-1.1111 z m 10.78506,-2.4182 c 2.32947,-1.8512 2.76766,-2.7597 1.61803,-3.3544 -3.08751,-1.5973 -4.09692,-1.9332 -5.192,-1.7278 -0.64091,0.1202 -1.31092,0.4004 -1.48892,0.6227 -0.3274,0.4088 -2.52373,4.4702 -2.52373,4.6668 0,0.059 0.75407,0.1094 1.6757,0.113 0.92163,0 2.15194,0.1577 2.73403,0.3426 1.5996,0.5083 1.74002,0.479 3.17689,-0.6629 z m -10.58523,0 c 0.11992,-0.194 -0.0295,-0.3528 -0.33196,-0.3528 -0.30249,0 -0.54998,0.1588 -0.54998,0.3528 0,0.194 0.14938,0.3528 0.33196,0.3528 0.18257,0 0.43007,-0.1588 0.54998,-0.3528 z m 14.2875,-4.6278 c 0,-0.194 -0.15875,-0.2546 -0.35278,-0.1347 -0.19402,0.1199 -0.35277,0.3768 -0.35277,0.5708 0,0.194 0.15875,0.2547 0.35277,0.1348 0.19403,-0.12 0.35278,-0.3768 0.35278,-0.5709 z m 41.275,44.4917 c 0,-0.194 0.16812,-0.3528 0.3736,-0.3528 0.20548,0 0.27548,0.1588 0.15557,0.3528 -0.11992,0.194 -0.28804,0.3528 -0.3736,0.3528 -0.0856,0 -0.15557,-0.1588 -0.15557,-0.3528 z m 0,-28.0458 c 0,-0.2911 0.15875,-0.5292 0.35278,-0.5292 0.19403,0 0.35278,0.2381 0.35278,0.5292 0,0.291 -0.15875,0.5291 -0.35278,0.5291 -0.19403,0 -0.35278,-0.2381 -0.35278,-0.5291 z m -65.96944,-0.5292 c 0,-0.194 0.15875,-0.3528 0.35278,-0.3528 0.19402,0 0.35277,0.1588 0.35277,0.3528 0,0.194 -0.15875,0.3528 -0.35277,0.3528 -0.19403,0 -0.35278,-0.1588 -0.35278,-0.3528 z m 61.73611,-3.175 c 0,-0.194 0.16812,-0.3528 0.3736,-0.3528 0.20548,0 0.27548,0.1588 0.15557,0.3528 -0.11992,0.194 -0.28804,0.3528 -0.3736,0.3528 -0.0856,0 -0.15557,-0.1588 -0.15557,-0.3528 z m -28.575,-1.0583 c 0,-0.1941 0.16812,-0.3528 0.3736,-0.3528 0.20548,0 0.27548,0.1587 0.15557,0.3528 -0.11992,0.194 -0.28804,0.3527 -0.3736,0.3527 -0.0856,0 -0.15557,-0.1587 -0.15557,-0.3527 z m -2.29306,-0.3528 c -0.11991,-0.1941 -0.0499,-0.3528 0.15557,-0.3528 0.20548,0 0.3736,0.1587 0.3736,0.3528 0,0.194 -0.07,0.3528 -0.15557,0.3528 -0.0856,0 -0.25368,-0.1588 -0.3736,-0.3528 z m 27.86945,-0.3528 c -0.11992,-0.194 -0.0499,-0.3528 0.15557,-0.3528 0.20548,0 0.37359,0.1588 0.37359,0.3528 0,0.194 -0.07,0.3528 -0.15556,0.3528 -0.0856,0 -0.25369,-0.1588 -0.3736,-0.3528 z m -28.75139,-0.7264 c 0,-0.2055 0.15875,-0.2755 0.35278,-0.1555 0.19402,0.1199 0.35277,0.288 0.35277,0.3735 0,0.086 -0.15875,0.1556 -0.35277,0.1556 -0.19403,0 -0.35278,-0.1681 -0.35278,-0.3736 z m -2.82222,-20.4403 c 0,-0.194 0.16812,-0.3527 0.37359,-0.3527 0.20548,0 0.27549,0.1587 0.15557,0.3527 -0.11991,0.1941 -0.28803,0.3528 -0.37359,0.3528 -0.0856,0 -0.15557,-0.1587 -0.15557,-0.3528 z m 6.02507,-4.4391 c 0.0169,-0.411 0.10052,-0.4946 0.21314,-0.2131 0.1019,0.2546 0.0894,0.5589 -0.0279,0.6761 -0.11723,0.1173 -0.20061,-0.091 -0.18529,-0.463 z m -1.79174,-4.7331 c 0,-0.194 0.16812,-0.3528 0.3736,-0.3528 0.20548,0 0.27548,0.1588 0.15557,0.3528 -0.11992,0.194 -0.28804,0.3528 -0.3736,0.3528 -0.0856,0 -0.15557,-0.1588 -0.15557,-0.3528 z m 2.46944,-2.1167 c 0,-0.194 0.15875,-0.3527 0.35278,-0.3527 0.19403,0 0.35278,0.1587 0.35278,0.3527 0,0.1941 -0.15875,0.3528 -0.35278,0.3528 -0.19403,0 -0.35278,-0.1587 -0.35278,-0.3528 z"
       id="path103" /></g></svg>
