<?xml version="1.0" encoding="UTF-8" standalone="no"?>
<!-- Created with Inkscape (http://www.inkscape.org/) -->

<svg
   width="222.92722mm"
   height="159.47888mm"
   viewBox="0 0 222.92722 159.47888"
   version="1.1"
   id="svg1"
   xml:space="preserve"
   xmlns="http://www.w3.org/2000/svg"
   xmlns:svg="http://www.w3.org/2000/svg"><defs
     id="defs1" /><g
     id="layer1"
     transform="translate(52.817211,-157.84245)"><path
       style="fill:#4d4d4d"
       d="m -23.112511,317.02394 c -0.164471,-0.16448 -1.089391,-0.334 -2.055378,-0.37673 -1.462071,-0.0647 -2.022468,-0.23622 -3.344717,-1.02388 -0.873607,-0.5204 -1.698905,-0.94619 -1.833996,-0.94619 -0.135092,0 -0.24562,-0.10616 -0.24562,-0.2359 0,-0.12975 -0.310795,-0.31391 -0.690656,-0.40924 -1.879951,-0.47184 -3.039283,-1.27539 -3.6885,-2.55656 -0.784235,-1.54762 -0.803341,-1.82538 -0.125555,-1.82538 0.306536,0 0.683272,0.31114 0.911788,0.75304 0.296717,0.57379 0.754964,0.86546 1.925023,1.22525 0.844585,0.2597 1.892795,0.73423 2.329357,1.05451 0.436563,0.32027 1.627188,1.03389 2.645834,1.58581 1.018646,0.55192 2.005036,1.12574 2.191978,1.27515 0.186942,0.14941 0.714519,0.26101 1.172393,0.24799 0.457874,-0.013 1.049062,0.0922 1.313751,0.23389 0.36814,0.19702 0.481253,0.16209 0.481253,-0.14863 0,-0.2234 -0.106155,-0.40618 -0.235901,-0.40618 -0.287612,0 -0.647887,-1.32107 -0.421904,-1.54706 0.08893,-0.0889 0.679249,0.41825 1.31181,1.12707 0.781715,0.87595 1.284917,1.23703 1.570969,1.12726 0.454032,-0.17423 0.581959,-0.70727 0.169741,-0.70727 -0.138115,0 -0.573155,-0.42221 -0.966754,-0.93825 -0.874683,-1.14676 -0.549615,-1.73758 0.447379,-0.81311 0.367613,0.34087 0.929485,0.7595 1.248606,0.93029 0.319121,0.17079 0.58022,0.54446 0.58022,0.83038 0,0.40123 0.181127,0.51986 0.79375,0.51986 0.436563,0 0.79375,-0.11907 0.79375,-0.26459 0,-0.14552 -0.116005,-0.26458 -0.257788,-0.26458 -0.382708,0 -1.126626,-1.57478 -0.955088,-2.0218 0.112811,-0.29398 0.402483,-0.15138 1.209768,0.59555 0.583793,0.54015 1.061442,1.14155 1.061442,1.33646 0,0.1949 0.119062,0.35437 0.264583,0.35437 0.388824,0 0.323286,-1.05685 -0.06615,-1.06664 -0.488148,-0.0123 -1.326723,-1.27985 -1.150501,-1.73908 0.123373,-0.3215 0.289721,-0.26884 0.88012,0.27861 0.400397,0.37126 0.877031,0.67503 1.059185,0.67503 0.182155,0 0.474375,0.22927 0.649377,0.5095 0.285734,0.45753 0.349464,0.46672 0.624855,0.0901 0.251032,-0.34331 0.151374,-0.55575 -0.54931,-1.17096 -0.470789,-0.41335 -1.143871,-0.75156 -1.495738,-0.75156 -0.351867,0 -0.76294,-0.12318 -0.913494,-0.27373 -0.150555,-0.15056 -1.513821,-0.8982 -3.02948,-1.66144 -1.515658,-0.76324 -3.30871,-1.76821 -3.984559,-2.23328 -1.363135,-0.93801 -1.620629,-1.62324 -1.958873,-5.21285 -0.154764,-1.64242 -0.12935,-1.80408 0.235952,-1.50091 0.225168,0.18688 0.544391,1.01518 0.709383,1.84068 0.606276,3.03335 0.815246,3.61804 1.3987,3.91351 1.611336,0.81601 6.450451,3.33652 6.796779,3.54019 0.218281,0.12837 0.715098,0.29998 1.104037,0.38136 0.388939,0.0814 1.051392,0.49219 1.472119,0.91292 0.420727,0.42072 0.994106,0.80909 1.274175,0.86302 0.28007,0.0539 0.546797,0.2932 0.592727,0.5317 0.09149,0.47508 -1.098811,1.80925 -1.614161,1.80925 -0.177128,0 -0.545581,0.29766 -0.818784,0.66146 -0.322831,0.42988 -0.756181,0.66146 -1.237809,0.66146 -0.407591,0 -0.814659,0.11906 -0.904596,0.26458 -0.217924,0.35261 -1.276253,0.33771 -1.637012,-0.0231 -0.207127,-0.20713 -0.337395,-0.20713 -0.465406,0 -0.246705,0.39917 -2.263207,0.37257 -2.263207,-0.0299 0,-0.24694 -0.07055,-0.24694 -0.3175,0 -0.401165,0.40117 -1.598572,0.41226 -1.992371,0.0185 z m 182.523591,-6.40872 c -0.19808,-0.23867 -0.23938,-1.03839 -0.12409,-2.40235 l 0.17284,-2.04459 -7.91197,0.16554 c -25.87266,0.54132 -133.46508,0.11849 -136.779482,-0.53753 l -0.809191,-0.16016 0.210922,2.18185 c 0.145177,1.50176 0.119274,2.29229 -0.0831,2.53613 -0.410806,0.49499 -9.4486163,0.51711 -9.6233273,0.0236 -0.199463,-0.56348 -0.721152,-4.47229 -0.847789,-6.35214 -0.07387,-1.09656 -0.222666,-1.72492 -0.384743,-1.62475 -0.282368,0.17452 -1.808788,-1.14751 -1.808788,-1.56658 0,-0.1376 -0.24184,-0.45994 -0.53742297,-0.71629 -0.295583,-0.25636 -0.8645,-0.91717 -1.26426,-1.46847 l -0.72683603,-1.00236 -3.03522,0.0633 c -1.66937,0.0348 -3.451938,0.16385 -3.961261,0.2868 -0.509323,0.12295 -1.9083067,0.29763 -3.1088537,0.38817 -1.842987,0.13901 -2.182812,0.10244 -2.182812,-0.23488 0,-0.57313 1.480917,-1.11258 4.4363657,-1.61602 2.400118,-0.40885 3.011746,-0.40653 6.146967,0.0233 0.509323,0.0698 0.781636,0.0592 0.605141,-0.0237 -0.413773,-0.19424 -2.721808,-3.42321 -2.721808,-3.80784 0,-0.33895 -0.655979,-1.42344 -1.468511,-2.4278 -0.310835,-0.38422 -1.188608,-1.99157 -1.950606,-3.57188 -0.761999,-1.58031 -1.49505,-3.08003 -1.629001,-3.33272 -0.1339517,-0.25269 -0.2435477,-0.73489 -0.2435477,-1.07156 0,-0.33667 -0.107385,-0.72524 -0.238633,-0.86349 -0.759655,-0.80015 -0.775409,-16.26699 -0.01839,-18.05703 0.141364,-0.33427 0.257026,-0.96096 0.257026,-1.39265 0,-0.43169 0.113294,-0.99164 0.2517657,-1.24432 0.138471,-0.25269 0.448267,-0.93569 0.688435,-1.51777 0.787322,-1.90819 0.871156,-2.1056 1.348351,-3.175 0.259741,-0.58208 0.683151,-1.28768 0.94091,-1.56799 0.257759,-0.28032 0.537569,-0.7268 0.6218,-0.99219 0.08423,-0.26539 0.264186,-0.48253 0.399901,-0.48253 0.135714,0 0.246753,-0.16401 0.246753,-0.36447 0,-0.20047 0.178594,-0.5127 0.396875,-0.69386 0.218281,-0.18116 0.396875,-0.5019 0.396875,-0.71275 0,-0.21086 0.175942,-0.55932 0.390981,-0.77436 0.21504,-0.21504 0.542462,-0.59947 0.727604,-0.85429 0.185143,-0.25482 0.584595,-0.63592 0.88767,-0.84689 0.512535,-0.35678 2.63759303,-2.15358 4.365149,-3.69088 1.244822,-1.10772 1.534121,-1.32291 1.778505,-1.32291 0.129109,0 0.446127,-0.23358 0.704485,-0.51906 0.258358,-0.28548 0.903565,-0.74518 1.433794,-1.02155 0.530229,-0.27637 1.498158,-1.0295 2.150953,-1.67361 2.6029383,-2.56832 6.0816923,-4.83574 6.0816923,-3.96399 0,0.38601 -1.908446,2.44198 -3.264904,3.51727 -0.7042923,0.55831 -1.1706203,1.0151 -1.0362853,1.0151 0.134335,0 0.331522,-0.0873 0.438194,-0.19395 0.226842,-0.22684 1.9554503,-0.80035 3.4661203,-1.14998 2.471144,-0.57191 3.777755,-0.71241 4.832134,-0.51961 1.100691,0.20128 1.120991,0.19154 1.120991,-0.53762 0,-0.40843 0.119063,-0.81619 0.264584,-0.90613 0.149439,-0.0924 0.264583,0.12434 0.264583,0.49794 0,0.3638 0.119062,0.73504 0.264583,0.82498 0.145521,0.0899 0.264584,0.3408 0.264584,0.55747 0,0.49344 1.028982,1.44076 2.910416,2.67944 1.693454,1.11492 1.972096,1.41597 2.6517,2.86495 0.535382,1.14149 1.477104,2.16065 1.747045,1.89071 0.08919,-0.0892 -0.02155,-0.34588 -0.246093,-0.57043 -0.224543,-0.22454 -0.792975,-1.09341 -1.263182,-1.93082 -0.470207,-0.83742 -1.031245,-1.72845 -1.246752,-1.98008 -0.347941,-0.40625 -0.343113,-0.4762 0.0431,-0.6244 0.455656,-0.17485 2.547519,1.66565 2.547519,2.24141 0,0.16264 0.119062,0.29571 0.264583,0.29571 0.145521,0 0.264583,0.14037 0.264583,0.31194 0,0.17157 0.386953,0.69366 0.859896,1.16021 0.472943,0.46654 1.141729,1.22504 1.486192,1.68554 0.344463,0.46051 0.683909,0.77967 0.754324,0.70926 0.07041,-0.0704 -0.181653,-0.53404 -0.560151,-1.03028 -0.378497,-0.49624 -0.688177,-0.98017 -0.688177,-1.07541 0,-0.0952 -0.652502,-0.97697 -1.450004,-1.9594 -1.330756,-1.63934 -1.815084,-2.71228 -1.224329,-2.71228 0.129846,0 0.873987,0.68461 1.653646,1.52135 0.779659,0.83675 1.744983,1.73246 2.145166,1.99048 0.718093,0.46299 0.727604,0.46124 0.727604,-0.13352 0,-0.40041 -0.398782,-0.91299 -1.188332,-1.52746 -1.139504,-0.88681 -1.677195,-1.81049 -1.35623,-2.32983 0.0831,-0.13445 0.642703,0.2232 1.243564,0.79478 1.147057,1.09117 1.575791,1.1475 1.117572,0.14682 -0.99463,-2.1721 -1.112215,-3.79374 -0.345741,-4.76815 0.291042,-0.37 0.529167,-0.7336 0.529167,-0.808 0,-0.17217 -2.11547,-0.69207 -3.836458,-0.94286 -2.115507,-0.30828 -3.371832,-1.12431 -4.736547,-3.07655 -0.669118,-0.95718 -1.216578,-1.85369 -1.216578,-1.99224 0,-0.13855 -0.10098,-0.2519 -0.2244,-0.2519 -0.12342,0 -0.447556,-0.50602 -0.720302,-1.12448 -0.272746,-0.61847 -0.564922,-1.18401 -0.649281,-1.25677 -0.234139,-0.20195 -1.051851,-2.02671 -1.051851,-2.34725 0,-0.27262 -0.584712,-1.6438 -2.073581,-4.86265 -0.387034,-0.83674 -0.793185,-1.52135 -0.902558,-1.52135 -0.109374,0 -0.198861,-0.18021 -0.198861,-0.40047 0,-0.22025 -0.113004,-0.60721 -0.25112,-0.85989 -0.592391,-1.0838 -2.095572,-4.57897 -2.587183,-6.01569 -0.149382,-0.43656 -0.358519,-1.0021 -0.464749,-1.25677 -0.135015,-0.32366 -0.07101,-0.46302 0.212658,-0.46302 0.428103,0 1.238311,1.37132 1.238311,2.0959 0,0.2349 0.297656,0.86514 0.661458,1.40052 0.363802,0.53539 0.661459,1.03058 0.661459,1.10043 0,0.19966 1.789905,3.92852 2.238578,4.66357 0.665037,1.08951 1.897021,4.01487 2.256387,5.35781 0.184968,0.69123 0.350598,1.26126 0.368066,1.26675 0.01747,0.005 0.954495,0.0753 2.082281,0.15514 1.388369,0.0983 2.050521,0.0523 2.050521,-0.14227 0,-0.15809 -0.112978,-0.28743 -0.251063,-0.28743 -0.138085,0 -0.450594,-0.68461 -0.694465,-1.52135 -0.243871,-0.83675 -0.535043,-1.75948 -0.647049,-2.05053 -0.194433,-0.50522 -0.885857,-3.80173 -1.179264,-5.62239 -0.331668,-2.05808 -0.51629,-2.62677 -1.103276,-3.39841 -0.34254,-0.4503 -0.6228,-0.94358 -0.6228,-1.09617 0,-0.1526 -0.165243,-0.34086 -0.367206,-0.41836 -0.465519,-0.17864 -0.644479,-1.39861 -0.977347,-6.66258 -0.33694,-5.32837 -0.231414,-10.2344 0.223396,-10.386 0.180074,-0.06 0.327407,-0.4352 0.327407,-0.83371 0,-0.39851 0.162448,-1.25179 0.360995,-1.89618 0.99885,-3.24177 1.123359,-4.325 0.664712,-5.78304 -0.613314,-1.94971 -0.898251,-2.26545 -1.961736,-2.17383 -1.314986,0.1133 -1.119442,-0.43939 0.425137,-1.2016 0.832928,-0.41103 1.761434,-0.59943 3.207016,-0.65071 l 2.034666,-0.0722 1.583713,1.51061 c 1.66583,1.58893 2.47629,1.85894 2.945914,0.98144 0.155761,-0.29104 0.546903,-0.53099 0.869205,-0.53322 0.780531,-0.005 1.165287,-0.28131 1.285703,-0.92199 0.05755,-0.30618 0.349173,-0.56479 0.692066,-0.61371 0.325935,-0.0465 0.592609,-0.23211 0.592609,-0.41245 0,-0.18035 0.165928,-0.55483 0.368729,-0.83217 0.362555,-0.49583 0.38453,-0.49576 1.312472,0.004 0.519058,0.27953 1.018411,0.43357 1.109674,0.34231 0.09126,-0.0913 0.230049,-0.87304 0.308415,-1.73727 0.136843,-1.50914 0.116133,-1.57796 -0.5231,-1.7384 -0.748719,-0.18791 -1.211486,-1.3783 -0.724467,-1.86357 0.214528,-0.21376 0.430489,-0.11446 0.802513,0.369 0.279949,0.3638 0.511645,0.80731 0.514881,0.98557 0.004,0.22238 0.275811,0.27274 0.865779,0.16044 0.472943,-0.09 0.89296,-0.18957 0.933371,-0.22121 0.04041,-0.0316 -0.465604,-0.6571 -1.124479,-1.38993 -0.658875,-0.73283 -1.197954,-1.46375 -1.197954,-1.62427 0,-0.66147 1.200108,-0.22894 2.157633,0.77762 0.559552,0.58821 1.017646,0.97517 1.017987,0.8599 3.42e-4,-0.11527 0.365807,-0.6263 0.812145,-1.13562 0.883791,-1.00851 1.386915,-2.03288 1.170468,-2.3831 -0.07547,-0.12211 -0.522806,-0.30567 -0.99408,-0.40791 -0.471274,-0.10224 -0.946159,-0.31976 -1.055299,-0.48338 -0.12971,-0.19445 -0.267165,-0.20585 -0.396875,-0.0329 -0.662096,0.88279 -1.993937,1.12426 -3.398864,0.61624 -0.785037,-0.28388 -0.933594,-0.24512 -1.774916,0.46302 -1.113521,0.93725 -1.506949,1.69487 -1.506949,2.90194 0,1.10381 -0.268523,1.13526 -1.588952,0.18612 -1.648868,-1.18523 -1.701395,-1.4292 -0.645514,-2.99823 0.509099,-0.75652 0.874529,-1.4266 0.812065,-1.48906 -0.229535,-0.22954 -1.223433,0.59314 -1.223433,1.01267 0,0.58067 -0.690673,1.12326 -1.187255,0.9327 -0.432275,-0.16588 -0.559353,-0.96394 -0.153491,-0.96394 0.135714,0 0.330016,-0.26234 0.431782,-0.58298 0.19022,-0.59933 0.739749,-1.26911 1.041256,-1.26911 0.322867,0 0.926042,-0.75713 0.926042,-1.16241 0,-0.68143 -0.866568,-0.96358 -1.943912,-0.63293 l -0.966505,0.29663 v 1.62248 c 0,0.89237 -0.137829,1.76031 -0.306287,1.92877 -0.231993,0.23199 -0.228876,0.39956 0.01285,0.69082 0.495825,0.59743 -0.168522,0.83906 -0.781567,0.28426 -0.616354,-0.55779 -0.63907,-0.82217 -0.115619,-1.34562 0.218281,-0.21828 0.396875,-0.63047 0.396875,-0.91596 0,-0.43728 -0.147333,-0.37176 -0.934861,0.41577 -1.340591,1.34059 -2.955814,1.21814 -4.687726,-0.35536 l -0.727796,-0.66123 -0.566446,0.60801 c -1.123403,1.20583 -1.919718,1.33653 -7.946761,1.30438 -5.7506253,-0.0307 -6.3149873,0.0476 -8.1551603,1.1306 -0.218281,0.12847 -1.051719,0.55289 -1.85208297,0.94316 -1.90849503,0.93061 -3.93713103,2.21397 -4.87797103,3.08591 -0.415552,0.38512 -0.853257,0.70022 -0.972678,0.70022 -0.543059,0 -3.207866,3.10088 -4.143815,4.82192 -0.330966,0.60858 -0.9302467,1.46926 -1.3317367,1.91261 -1.90433,2.1029 -4.690521,7.07263 -5.091298,9.08136 -0.166174,0.83288 -0.415602,1.99057 -0.554285,2.57265 -0.138682,0.58209 -0.417326,1.89178 -0.619208,2.91042 -0.584346,2.94847 -0.691721,3.40776 -0.927839,3.96875 -0.122496,0.29104 -0.431969,1.26747 -0.687717,2.16985 -0.394221,1.39096 -0.588846,1.69111 -1.278703,1.97204 -0.946319,0.38537 -1.287093,0.75921 -2.012776,2.20811 -0.6472,1.2922 -0.939353,1.77043 -2.042077,3.34274 -0.472943,0.67434 -0.859896,1.29617 -0.859896,1.38183 0,0.0857 -0.311957,0.84362 -0.693238,1.68434 -1.033349,2.27853 -1.329004,3.00822 -1.691398,4.17442 -0.180881,0.58209 -0.432709,1.33183 -0.559619,1.6661 -0.322681,0.84991 -0.2937,7.12731 0.03384,7.32974 0.145521,0.0899 0.264584,0.33481 0.264584,0.54417 0,0.20935 0.410423,0.95192 0.912052,1.65016 1.25066,1.74082 1.53343,2.5151 1.759248,4.81713 0.107061,1.0914 0.29004,2.46062 0.406619,3.0427 0.276318,1.37967 0.278827,18.5907 0.003,20.58643 -0.136309,0.98626 -0.323285,1.49877 -0.522155,1.43125 -0.219827,-0.0746 -0.309807,-1.36617 -0.309807,-4.44685 0,-2.38791 -0.07529,-4.46072 -0.167323,-4.60624 -0.09203,-0.14552 -0.248054,-0.64124 -0.346725,-1.10159 -0.09867,-0.46036 -0.767516,-1.50908 -1.486323,-2.3305 -0.718806,-0.82142 -1.306921,-1.68096 -1.306921,-1.91009 0,-0.22912 -0.209674,-0.60915 -0.465944,-0.8445 -0.256269,-0.23535 -0.819821,-0.90416 -1.252338,-1.48624 -0.432516,-0.58208 -1.170303,-1.47505 -1.639526,-1.98437 -1.764036,-1.91479 -2.454699,-2.78805 -2.458798,-3.10886 -0.0023,-0.1819 -0.114784,-0.33073 -0.249911,-0.33073 -0.135126,0 -0.421775,-0.17609 -0.636997,-0.39131 -0.517136,-0.51714 -2.802433,-1.72535 -3.263439,-1.72535 -0.199728,0 -0.830524,-0.3093 -1.401769,-0.68733 l -1.038628,-0.68734 -2.064554,0.45113 c -1.135504,0.24813 -2.338046,0.55743 -2.672315,0.68734 -0.334269,0.12991 -2.03091,0.2362 -3.770313,0.2362 h -3.162551 v -1.04358 c 0,-1.45845 0.897859,-2.46643 2.238444,-2.51298 0.893167,-0.031 1.051614,-0.1437 1.429326,-1.01652 0.554596,-1.28156 1.59965,-1.76137 4.702262,-2.1589 2.050525,-0.26273 2.84868,-0.51561 4.784585,-1.5159 1.27793,-0.66031 2.948587,-1.34873 3.712571,-1.52982 1.297765,-0.30761 1.389063,-0.38196 1.389063,-1.13123 0,-0.77126 -0.03606,-0.79613 -0.941299,-0.64923 -1.094407,0.1776 -1.704535,0.003 -1.704535,-0.48664 0,-0.19059 -0.133945,-0.39117 -0.297656,-0.44574 -0.672509,-0.22417 -0.304836,-1.62708 0.657573,-2.50906 1.159178,-1.06231 1.933163,-1.10473 3.38895,-0.18573 0.832849,0.52576 1.307664,0.65477 1.99771,0.54279 0.497855,-0.0808 1.198728,-0.0353 1.557496,0.10111 0.740155,0.28141 0.682221,0.38834 1.152545,-2.12732 0.176841,-0.94589 0.410085,-1.83886 0.51832,-1.98438 0.108235,-0.14552 0.35439,-0.6813 0.54701,-1.19062 1.018607,-2.69338 1.728684,-3.9388 3.403686,-5.96979 0.127574,-0.15469 0.36634,-0.53236 0.530593,-0.83927 0.164252,-0.30691 0.453277,-0.71613 0.642276,-0.90937 0.188999,-0.19325 0.490721,-0.70855 0.670492,-1.14512 0.201889,-0.49027 0.715666,-0.98071 1.343793,-1.28275 1.115139,-0.53622 1.206729,-0.74391 2.001249,-4.53808 0.243783,-1.16417 0.542706,-2.53338 0.664273,-3.04271 0.121567,-0.50932 0.346971,-1.61907 0.500899,-2.4661 0.153927,-0.84704 0.462981,-1.90713 0.686787,-2.35576 0.223806,-0.44863 0.40692,-1.15217 0.40692,-1.56343 0,-1.05156 0.725537,-2.79434 1.762447,-4.23349 0.485863,-0.67434 0.883387,-1.35895 0.883387,-1.52135 0,-0.16241 0.111039,-0.29528 0.246753,-0.29528 0.135715,0 0.319936,-0.23058 0.40938,-0.51239 0.08945,-0.28182 0.871375,-1.21895 1.737622,-2.08251 0.866247,-0.86357 1.574995,-1.70692 1.574995,-1.87412 0,-0.26683 0.9910377,-1.98599 1.6061987,-2.78628 0.944365,-1.22857 2.211838,-2.53429 2.460052,-2.53429 0.16528,0 0.863563,-0.52437 1.55174,-1.16526 0.688177,-0.64089 2.295265,-1.67962 3.571307,-2.30827 1.27604203,-0.62865 2.382031,-1.22793 2.457753,-1.33172 0.251796,-0.34515 1.695143,-0.82497 3.301907,-1.09767 1.603471,-0.27214 3.79077,-0.30695 8.8635413,-0.14105 2.60138,0.0851 2.84104,0.0488 3.767038,-0.57061 1.02788,-0.68752 1.188915,-1.02363 0.716691,-1.49585 -0.297992,-0.298 0.443314,-2.20832 0.856942,-2.20832 0.118569,0 0.215579,-0.17703 0.215579,-0.39341 0,-0.69463 2.880084,-6.0552 3.795135,-7.06371 1.415359,-1.55993 2.831714,-2.17039 4.563429,-1.96686 0.79694,0.0937 1.680094,0.31463 1.962564,0.49104 0.40301,0.25168 0.583359,0.25096 0.837685,-0.003 0.528681,-0.52868 3.64503,-0.3781 4.583896,0.22149 0.436562,0.2788 0.967181,0.58993 1.179152,0.69141 0.858058,0.41075 1.697141,1.37792 3.391643,3.90939 0.978562,1.4619 2.343454,3.25349 3.033092,3.98132 1.192667,1.25872 2.582571,3.67871 2.582571,4.49658 0,0.66092 -0.89404,2.36182 -1.530717,2.91216 -0.336695,0.29105 -1.171819,0.7278 -1.855832,0.97057 -1.133876,0.40244 -1.284676,0.40453 -1.708302,0.0237 -0.255554,-0.22975 -0.498004,-0.36885 -0.538779,-0.30911 -0.04077,0.0598 -0.517511,0.79323 -1.059414,1.62998 -0.595118,0.91891 -1.172901,1.52135 -1.459085,1.52135 -0.38212,0 -0.542401,0.38605 -0.82828,1.995 -0.414676,2.33381 -0.852979,2.7675 -2.129702,2.10728 -0.753133,-0.38946 -0.796139,-0.38395 -0.796139,0.10203 0,0.28255 -0.463164,0.88056 -1.029254,1.32891 -0.795001,0.62965 -1.201471,0.78112 -1.785937,0.66552 -0.602064,-0.11909 -0.810749,-0.0322 -1.021267,0.42505 -0.145521,0.3161 -0.579048,0.76071 -0.963394,0.98803 -0.635844,0.37606 -0.780814,0.37439 -1.608918,-0.0186 -0.50056,-0.23753 -1.370189,-0.97162 -1.93251,-1.63131 l -1.022401,-1.19944 h -1.784836 c -1.977866,0 -2.359264,0.25056 -1.57509,1.03473 0.775049,0.77505 1.164865,2.55146 0.992203,4.52152 -0.169141,1.92989 -0.409898,2.75433 -1.69982,5.82084 -0.477281,1.13462 -0.484397,1.45194 -0.151303,6.74687 0.192243,3.05594 0.275726,6.59524 0.185516,7.86511 -0.160198,2.25511 -0.149372,2.31452 0.464935,2.55146 1.250466,0.48232 2.162758,1.8866 2.60452,4.00912 0.165906,0.79712 0.409319,1.92556 0.540919,2.50764 0.1316,0.58209 0.362217,1.77271 0.512483,2.64584 0.294797,1.71292 0.708291,3.27467 1.173377,4.43177 0.314533,0.78254 1.149613,0.95652 2.33364,0.48618 0.334269,-0.13278 2.036512,-0.44051 3.782762,-0.68383 1.74625,-0.24332 3.413125,-0.54329 3.704167,-0.66659 0.291041,-0.1233 0.886354,-0.28393 1.322916,-0.35695 1.375266,-0.23003 5.168629,-1.13716 5.820833,-1.39197 0.145521,-0.0568 0.681303,-0.35863 1.190625,-0.67061 0.848775,-0.51991 1.312379,-0.56939 5.55625,-0.59304 4.352471,-0.0242 4.680137,-0.0614 5.462577,-0.61952 1.097714,-0.783 2.656337,-1.09938 3.665547,-0.74407 0.43657,0.15371 0.85328,0.3556 0.92604,0.44866 0.0728,0.0931 0.62528,0.31636 1.22782,0.49622 0.99826,0.298 1.19792,0.27123 2.24896,-0.30148 0.63439,-0.34569 1.29212,-0.7587 1.46163,-0.91782 0.1695,-0.15911 0.70529,-0.43873 1.19062,-0.62136 0.76687,-0.28859 2.46693,-1.03905 4.35195,-1.92109 0.86988,-0.40704 3.45307,-0.10391 5.92319,0.69507 1.23693,0.40009 2.60615,0.79085 3.04271,0.86836 0.87381,0.15515 2.19184,1.04048 3.48673,2.34209 0.83741,0.84175 1.58311,2.79457 1.26418,3.31061 -0.0922,0.14912 0.13014,0.56882 0.49399,0.93268 0.77857,0.77857 1.35628,2.91497 1.16795,4.31911 -0.13373,0.99698 -1.21584,3.40704 -2.48107,5.52577 -0.5935,0.99387 -0.63303,1.19617 -0.31019,1.5875 1.13135,1.37136 1.46225,3.58272 0.74403,4.97229 -0.21828,0.42232 -0.79389,1.18343 -1.27914,1.69137 -1.05436,1.10366 -1.8183,2.69633 -2.1616,4.50656 -0.14871,0.78413 -0.52478,1.62176 -0.91902,2.04693 -0.36703,0.39582 -0.66732,0.79662 -0.66732,0.89066 0,0.36355 -1.85123,1.02504 -2.86864,1.02504 -0.58788,0 -1.14246,0.11906 -1.2324,0.26458 -0.0899,0.14552 -0.78157,0.26549 -1.53697,0.26659 -1.78451,0.003 -4.70104,0.47921 -5.13469,0.83911 -0.51868,0.43047 -0.40797,0.88507 0.309,1.26878 0.35684,0.19097 0.75881,0.65758 0.89326,1.0369 0.13445,0.37931 0.61449,1.10638 1.06676,1.61571 0.45227,0.50932 0.82421,1.01397 0.82654,1.12145 0.005,0.25007 0.76334,1.18378 1.51168,1.86225 0.31978,0.28993 1.18899,1.51789 1.93159,2.72881 0.76407,1.24595 1.8325,2.57933 2.46129,3.07165 0.61112,0.47849 1.34925,1.16198 1.64029,1.51887 0.84837,1.04031 2.24896,3.4476 2.24896,3.86543 0,0.21099 0.11906,0.38362 0.26458,0.38362 0.14552,0 0.26458,0.17012 0.26458,0.37804 0,0.58539 1.71825,2.26779 2.31611,2.26779 0.2936,0 0.87486,0.17786 1.29167,0.39525 0.41682,0.21738 0.95918,0.39598 1.20526,0.39687 0.24607,9e-4 0.51321,0.10812 0.59365,0.23827 0.0804,0.13015 0.59348,0.30269 1.14009,0.38343 0.54662,0.0807 1.64869,0.26321 2.44906,0.4055 3.5179,0.62543 12.274169,0.16398 14.419789,-0.75992 0.29104,-0.12533 1.18401,-0.42631 1.98437,-0.66886 1.78305,-0.54035 4.49792,-1.74044 4.49792,-1.98828 0,-0.10005 0.62508,-0.3869 1.38906,-0.63745 0.76399,-0.25055 1.74625,-0.68495 2.18282,-0.96534 0.43656,-0.28039 1.00211,-0.58183 1.25677,-0.66987 0.25466,-0.088 0.46302,-0.26215 0.46302,-0.38693 0,-0.26262 5.35042,-2.88642 5.88595,-2.88642 0.19702,0 0.47132,-0.10983 0.60957,-0.24408 0.42194,-0.40973 3.4225,-1.07883 4.83799,-1.07883 0.73439,0 1.39833,-0.10205 1.47541,-0.22677 0.0771,-0.12472 0.76872,-0.3062 1.53697,-0.40328 0.76825,-0.0971 2.05166,-0.28401 2.85202,-0.41538 2.56548,-0.4211 9.34243,-0.32783 11.32271,0.15583 0.97579,0.23832 1.88728,0.53598 2.02552,0.66146 0.13825,0.12547 0.51066,0.22814 0.82759,0.22814 1.32764,0 3.91839,1.48771 5.75855,3.30677 1.63555,1.61681 3.08806,2.66085 4.27501,3.07279 0.58208,0.20202 1.27533,0.6352 1.54056,0.96262 0.26522,0.32743 0.59582,0.59532 0.73465,0.59532 0.53104,0 5.00051,4.35617 5.00073,4.87395 6e-5,0.13407 0.17275,0.43453 0.38376,0.6677 0.98598,1.08949 3.68514,6.54909 4.7675,9.64324 0.69899,1.9982 0.7287,2.28843 0.69067,6.74688 -0.0219,2.56237 -0.0542,5.07557 -0.0719,5.58489 -0.0177,0.50933 0.0491,1.46183 0.14847,2.11667 0.1672,1.10222 -0.10067,4.53048 -0.51168,6.54844 l -0.17513,0.85989 h -4.83237 c -3.73782,0 -4.89961,-0.081 -5.12927,-0.35775 z m 9.21732,-2.88339 c 0.41068,-1.81081 0.40507,-7.03911 -0.008,-7.46125 -0.13528,-0.13825 -0.24596,-0.57892 -0.24596,-0.97928 0,-0.69147 -0.46059,-2.70035 -1.08276,-4.72249 -0.46605,-1.51475 -1.48238,-3.58775 -2.42446,-4.94516 -0.48575,-0.69991 -1.04811,-1.60289 -1.24969,-2.00663 -0.51946,-1.04041 -2.35318,-2.7955 -3.44517,-3.29746 -0.50932,-0.23412 -1.46182,-0.80562 -2.11667,-1.27 -1.88026,-1.33338 -4.69173,-2.46526 -8.59895,-3.46187 -1.30388,-0.33258 -2.75271,-0.46312 -4.8948,-0.44102 -2.76464,0.0285 -3.73973,0.15495 -6.61458,0.85771 -3.09683,0.75702 -7.90723,2.46475 -10.14175,3.60041 -0.41198,0.20937 -0.9705,0.38068 -1.24116,0.38068 -0.27066,0 -0.56569,0.11907 -0.65563,0.26459 -0.0899,0.14552 -0.45011,0.26458 -0.80039,0.26458 -0.57339,0 -2.43974,0.71698 -2.77149,1.0647 -0.0728,0.0763 -0.78713,0.48227 -1.5875,0.90222 -1.38178,0.72503 -2.7742,1.47547 -5.81185,3.13226 -0.73971,0.40346 -1.90755,0.80173 -2.59519,0.88505 -0.68763,0.0833 -1.66697,0.34 -2.17629,0.5704 -0.85999,0.38904 -2.29568,0.80067 -4.89479,1.4034 -6.259699,1.4516 -17.406489,1.27948 -20.567759,-0.31759 -0.25269,-0.12766 -0.63548,-0.23211 -0.85065,-0.23211 -0.4036,0 -2.51783,-0.64367 -3.45242,-1.05107 -0.29105,-0.12687 -0.88636,-0.30568 -1.32292,-0.39736 -1.38741,-0.29134 -4.40159,-1.87013 -7.53538,-3.94693 -1.6706,-1.10713 -3.15888,-2.014 -3.30729,-2.01526 -0.14841,-0.001 -0.70837,-0.41799 -1.24436,-0.92605 -0.53598,-0.50806 -1.04368,-0.92374 -1.12821,-0.92374 -0.80565,0 -10.308896,-9.13175 -13.243096,-12.7254 -0.291042,-0.35646 -1.128247,-1.35977 -1.860455,-2.22958 -0.732209,-0.86982 -1.682714,-2.05773 -2.112233,-2.63982 -2.817168,-3.81782 -8.105451,-9.08264 -10.116375,-10.07148 -0.763984,-0.37568 -1.389062,-0.77315 -1.389062,-0.88326 0,-0.19632 -2.408794,-1.44797 -5.291667,-2.74964 -1.652019,-0.74592 -4.343681,-1.50916 -5.322253,-1.50916 -0.361532,0 -0.781611,-0.12428 -0.93351,-0.27618 -0.35365,-0.35365 -9.443211,-0.17619 -11.47132,0.22395 -1.739419,0.3432 -3.351732,0.77771 -4.1671873,1.12304 -1.663752,0.70458 -2.256646,1.06048 -4.738668,2.84448 -1.989498,1.42999 -2.800821,2.18657 -3.121672,2.91104 -0.238438,0.53839 -0.567962,1.21701 -0.732275,1.50805 -0.164312,0.29104 -0.48596597,0.88626 -0.71478597,1.32272 -0.22882,0.43645 -0.475758,0.85317 -0.54875,0.92604 -0.459973,0.4592 -1.58707803,3.84224 -1.58707803,4.76366 0,0.30965 -0.11725,0.78207 -0.260554,1.04984 -0.143305,0.26777 -0.396838,2.25424 -0.563409,4.41438 -0.305568,3.96271 -0.02944,10.34308 0.559287,12.92336 0.132811,0.58208 0.428214,1.89177 0.65645,2.91041 0.44931003,2.00533 1.60932503,5.85996 2.153188,7.15486 0.185923,0.44267 0.480952,1.39517 0.655621,2.11666 0.174669,0.7215 0.478493,1.687 0.675165,2.14555 0.196672,0.45856 0.357585,0.91779 0.357585,1.02051 0,0.10272 0.339098,0.91817 0.753551,1.8121 0.698166,1.50587 1.627699,4.8378 1.627699,5.83454 0,0.23613 0.148051,0.9037 0.329003,1.48349 l 0.329004,1.05417 h 3.772038 3.7720383 v -1.5686 c 0,-1.96153 0.377026,-2.39925 2.06942,-2.40259 0.680829,-10e-4 6.357559,-0.0906 12.614955,-0.19844 15.000081,-0.25841 84.950005,-0.25123 108.743755,0.0112 10.47753,0.11554 19.75331,0.33276 20.97398,0.49116 2.35962,0.3062 2.70287,0.55906 2.70984,1.99626 0.002,0.40975 0.0754,1.01289 0.16315,1.34031 0.15592,0.58181 0.24449,0.59531 3.9046,0.59531 h 3.74506 z M 3.0343447,301.24954 c -0.55939,-1.05899 -1.082818,-2.42298 -1.082818,-2.82171 0,-0.23464 -0.11269,-0.63336 -0.250422,-0.88605 -0.432251,-0.79302 -1.60166197,-3.97216 -1.60166197,-4.35425 0,-0.20073 -0.09504,-0.47808 -0.211202,-0.61633 -0.116161,-0.13824 -0.423927,-0.9062 -0.683923,-1.70656 -0.25999603,-0.80036 -0.57270603,-1.69333 -0.69491003,-1.98438 -0.122203,-0.29104 -0.296797,-0.88635 -0.387986,-1.32291 -0.09119,-0.43656 -0.338882,-1.62719 -0.550431,-2.64584 -0.936563,-4.50972 -1.357738,-12.71366 -0.828577,-16.13958 0.363918,-2.35609 1.003065,-5.28 1.257151,-5.7511 0.136287,-0.25268 0.247795,-0.59963 0.247795,-0.77099 0,-0.49645 0.87405703,-2.34145 1.10925203,-2.34145 0.117516,0 0.213665,-0.18431 0.213665,-0.40958 0,-0.22528 0.389654,-1.02895 0.865898,-1.78594 0.476243,-0.757 1.00660297,-1.69748 1.17857597,-2.08997 0.171974,-0.39248 0.645523,-0.92675 1.052332,-1.18727 0.406808,-0.26051 1.09684,-0.8029 1.533402,-1.20531 0.436563,-0.4024 1.002109,-0.79889 1.256771,-0.88108 0.254661,-0.0822 0.463021,-0.26047 0.463021,-0.39618 0,-0.13571 0.150045,-0.24675 0.333433,-0.24675 0.183388,0 0.630085,-0.27508 0.99266,-0.61127 0.362575,-0.3362 1.313859,-0.82872 2.113963,-1.09448 0.8001053,-0.26577 1.6928603,-0.58525 1.9839023,-0.70995 1.673162,-0.71693 11.407844,-1.0109 15.452061,-0.46663 1.196108,0.16097 2.225841,0.24158 2.288294,0.17912 0.06245,-0.0625 -0.04463,-0.32987 -0.237954,-0.59426 -0.272406,-0.37254 -0.461406,-0.41921 -0.839887,-0.2074 -0.342635,0.19175 -0.651454,0.18305 -1.034823,-0.0291 -0.80796,-0.4472 -1.737066,-1.28549 -1.737066,-1.56727 0,-0.54597 -1.739176,-2.39034 -3.17069,-3.36246 -1.633774,-1.10948 -2.914727,-2.45688 -2.914727,-3.06594 0,-0.43567 -0.266671,-0.44689 -2.778125,-0.11684 -2.226383,0.29258 -7.0276993,1.81854 -9.1368093,2.90387 -0.223058,0.11478 -0.788605,0.29282 -1.256771,0.39565 -0.468166,0.10283 -0.851211,0.29656 -0.851211,0.43052 0,0.13396 -0.178594,0.24356 -0.396875,0.24356 -0.218281,0 -0.396875,0.092 -0.396875,0.20442 0,0.11242 -0.386953,0.4154 -0.859896,0.67326 -0.472943,0.25787 -1.34682,0.91003 -1.941949,1.44923 -0.59512997,0.53921 -1.60358597,1.3971 -2.24101397,1.90642 -1.78351103,1.42508 -3.42380803,3.14106 -3.42380803,3.58178 0,0.42605 -1.160039,2.37856 -1.78369,3.00221 -0.323244,0.32324 -1.09068,1.88305 -1.902615,3.86705 -0.119107,0.29105 -0.363368,0.88636 -0.542804,1.32292 -0.571489,1.39042 -1.056737,3.15324 -1.059694,3.84969 -0.0016,0.37108 -0.139723,0.81155 -0.306997,0.97882 -0.4031547,0.40316 -0.4340407,14.23261 -0.03421,15.3173 0.153325,0.41595 0.48962,1.50042 0.747323,2.40992 0.257702,0.90951 0.568762,1.65365 0.691243,1.65365 0.122481,0 0.222692,0.11951 0.222692,0.26559 0,0.49208 2.350036,5.19996 2.769396,5.548 0.228453,0.18959 0.604644,0.7748 0.835979,1.30046 0.79082,1.79695 1.27743,2.67553 1.481876,2.67553 0.112429,0 0.204416,0.12766 0.204416,0.28368 0,0.15602 0.535475,0.84924 1.189945,1.54048 1.38876703,1.4668 3.555304,4.2846 3.565505,4.6373 0.0093,0.32323 0.822187,1.21146 1.108632,1.21146 0.1242,0 0.115756,-0.20836 -0.01876,-0.46302 z M 169.09746,292.46078 c -0.11166,-1.08665 -0.32002,-2.09273 -0.46302,-2.23573 -0.143,-0.14299 -0.26,-0.51002 -0.26,-0.81562 0,-0.30559 -0.0994,-0.66873 -0.22085,-0.80698 -0.12147,-0.13824 -0.43483,-0.84666 -0.69637,-1.57427 -0.26153,-0.7276 -0.96582,-1.97759 -1.56508,-2.77775 -1.33139,-1.77773 -2.54478,-3.65104 -2.54478,-3.92881 0,-0.26884 -1.27398,-1.39337 -2.11667,-1.86837 -0.3638,-0.20506 -1.30371,-0.8599 -2.08869,-1.4552 -1.80646,-1.36995 -4.12138,-2.62762 -5.91137,-3.21159 -0.76596,-0.24989 -1.55982,-0.58741 -1.76415,-0.75006 -0.53646,-0.42701 -13.67398,-0.37898 -14.10453,0.0516 -0.1728,0.17279 -0.54779,0.31417 -0.83331,0.31417 -0.49289,0 -2.86771,0.62886 -4.00524,1.06061 -0.29104,0.11046 -1.24354,0.4136 -2.11666,0.67364 -0.87313,0.26004 -2.17643,0.75012 -2.89622,1.08907 -0.7198,0.33894 -1.46556,0.61626 -1.65724,0.61626 -0.19168,0 -0.55526,0.10887 -0.80795,0.24192 -1.16712,0.61457 -3.55032,1.61017 -3.8543,1.61017 -0.35409,0 -4.13241,1.88632 -6.39471,3.19255 -0.7276,0.42011 -1.53128,0.76662 -1.78594,0.77002 -0.25466,0.003 -0.46302,0.12524 -0.46302,0.27076 0,0.14552 -0.13083,0.26458 -0.29074,0.26458 -0.15991,0 -0.72546,0.19074 -1.25677,0.42386 -1.60534,0.70435 -1.96528,0.82228 -3.47957,1.14009 -2.5499,0.53514 -2.76784,0.58839 -3.30729,0.8081 -2.09595,0.85364 -6.338969,1.42138 -10.583339,1.41609 -3.59028,-0.004 -5.88821,-0.34896 -7.73206,-1.15914 -0.69507,-0.30542 -1.65476,-0.72423 -2.13264,-0.93069 -0.47788,-0.20647 -1.15546,-0.37539 -1.50574,-0.37539 -0.35028,0 -0.71045,-0.11906 -0.80039,-0.26458 -0.0899,-0.14552 -0.32216,-0.26459 -0.51606,-0.26459 -0.32917,0 -6.99906,-4.33649 -7.28915,-4.73911 -0.0728,-0.10099 -0.57877,-0.45493 -1.12448,-0.78654 -0.5457,-0.33161 -0.99219,-0.71227 -0.99219,-0.84593 0,-0.13365 -0.14882,-0.24482 -0.33072,-0.24704 -0.34073,-0.004 -3.09545,-2.59426 -4.0349,-3.79376 -0.29104,-0.37161 -0.65792,-0.68115 -0.81528,-0.68788 -0.36259,-0.0155 -3.77043,-3.45582 -4.31939,-4.36055 -0.22652,-0.37332 -0.50334,-0.67877 -0.61515,-0.67877 -0.11182,0 -0.20331,-0.10113 -0.20331,-0.22473 0,-0.1236 -1.07847,-1.34399 -2.39661,-2.71198 -1.31814,-1.36799 -2.556947,-2.7849 -2.752908,-3.14871 -0.195962,-0.3638 -0.635533,-0.90796 -0.976825,-1.20923 -0.341291,-0.30128 -1.381585,-1.37285 -2.311762,-2.38125 -5.722685,-6.20398 -8.881479,-9.17704 -10.550494,-9.93014 -0.688613,-0.31072 -1.720872,-0.78897 -2.293908,-1.06278 -0.573036,-0.27382 -1.146527,-0.49785 -1.274424,-0.49785 -0.127897,0 -0.622788,-0.29765 -1.099757,-0.66146 -0.476969,-0.3638 -1.040525,-0.66145 -1.252347,-0.66145 -0.211821,0 -0.545528,-0.14883 -0.74157,-0.33073 -0.28851,-0.2677 -0.330433,-0.25509 -0.219975,0.0661 0.264833,0.7702 -0.263183,1.5875 -1.025601,1.5875 h -0.719486 l 0.681144,0.72761 c 0.631526,0.6746 0.649587,0.7596 0.247938,1.16686 -0.294296,0.2984 -1.15434,0.50584 -2.682163,0.64692 -1.360382,0.12562 -1.987612,0.26621 -1.5875,0.35583 1.112162,0.24911 2.645834,0.90104 2.645834,1.12469 0,0.11628 0.174554,0.21143 0.387898,0.21143 0.374208,0 2.252036,0.78785 2.522518,1.05833 0.07276,0.0728 0.549011,0.36111 1.058334,0.64077 0.509322,0.27966 1.020658,0.66555 1.136302,0.85753 0.115643,0.19198 0.859265,0.66684 1.652493,1.05524 0.793229,0.38841 2.099964,1.37174 2.903857,2.18518 4.013321,4.061 6.143077,6.40431 6.742764,7.41886 0.363802,0.61548 1.078177,1.56042 1.5875,2.09987 0.509323,0.53944 1.878542,2.09498 3.042708,3.45674 3.44766,4.03285 8.63547,9.05818 11.75823,11.38998 0.48721,0.3638 1.37467,1.08241 1.97214,1.59691 0.59746,0.5145 1.77091,1.27284 2.60765,1.68519 0.83675,0.41236 1.52136,0.8546 1.52136,0.98278 0,0.12817 0.11879,0.23303 0.26397,0.23303 0.14518,0 0.82979,0.40167 1.52135,0.8926 1.8549,1.31677 6.62565,3.5291 8.07366,3.74398 0.69301,0.10284 1.32512,0.29231 1.40468,0.42104 0.0796,0.12873 0.50264,0.23405 0.94018,0.23405 0.43754,0 1.04105,0.1314 1.34113,0.292 1.42092,0.76045 7.84553,1.37061 12.2778,1.16605 3.481529,-0.16068 6.012499,-0.59939 11.483479,-1.99052 0.65484,-0.16651 1.42875,-0.3372 1.71979,-0.37932 1.27728,-0.18483 4.01302,-1.38732 6.61458,-2.90744 0.87313,-0.51017 2.18282,-1.23096 2.91042,-1.60175 0.7276,-0.37079 1.50151,-0.77253 1.71979,-0.89276 1.22782,-0.67627 1.64437,-0.83001 2.24896,-0.83001 0.36775,0 0.87538,-0.10948 1.12807,-0.2433 3.10829,-1.64604 8.57145,-3.63541 11.83651,-4.31018 0.72761,-0.15037 1.56104,-0.37231 1.85209,-0.49319 1.14808,-0.47688 6.4877,-0.85618 7.89412,-0.56077 4.1859,0.87923 5.63992,1.21544 5.9965,1.38653 0.55108,0.26441 1.49802,0.64979 2.99957,1.22074 0.70387,0.26765 1.57321,0.75452 1.93186,1.08194 0.35865,0.32742 0.76501,0.59531 0.90304,0.59531 0.13802,0 0.25095,0.098 0.25095,0.21769 0,0.11972 0.56554,0.50007 1.25677,0.84521 1.54105,0.76948 3.77031,2.80886 3.77031,3.44918 0,0.259 0.0893,0.5106 0.19844,0.5591 0.50634,0.22504 3.14853,4.64565 3.36429,5.62875 0.0338,0.15415 0.12727,0.45888 0.20765,0.67716 0.3874,1.05209 0.99705,3.70467 1.03775,4.51527 0.0251,0.49978 0.11439,-0.16288 0.19844,-1.47257 0.084,-1.30968 0.0614,-3.27032 -0.0502,-4.35698 z m -70.837599,-6.8911 c 2.151799,-0.30117 3.881589,-0.64219 6.085419,-1.19972 0.94588,-0.2393 2.13651,-0.49062 2.64583,-0.55849 0.50932,-0.0679 1.16417,-0.22172 1.45521,-0.3419 1.58366,-0.65392 4.16343,-1.84688 5.80661,-2.68513 1.02647,-0.52364 2.52115,-1.27989 3.32151,-1.68056 0.80037,-0.40067 1.66196,-0.83543 1.91464,-0.96615 0.25269,-0.13072 0.65104,-0.23767 0.88522,-0.23767 0.38171,0 1.89082,-0.71858 2.22723,-1.06051 0.0728,-0.074 0.78713,-0.35196 1.5875,-0.61778 1.5612,-0.51851 1.97979,-0.67941 3.47957,-1.33744 0.53131,-0.23312 1.13258,-0.42386 1.33614,-0.42386 0.20357,0 0.48323,-0.0989 0.62148,-0.21985 0.13824,-0.12093 1.02526,-0.43173 1.97114,-0.69068 0.94589,-0.25896 1.95792,-0.56803 2.24896,-0.68683 0.77008,-0.31434 3.41241,-0.70921 8.05481,-1.20371 3.11833,-0.33215 4.40292,-0.36894 5.42396,-0.15533 0.73584,0.15395 1.87368,0.35257 2.52852,0.44137 1.74176,0.2362 3.799,0.72729 4.08781,0.97582 0.13825,0.11896 0.39839,0.2163 0.57809,0.2163 0.77478,0 2.51807,1.00311 4.94299,2.84427 1.45769,1.10677 1.95009,1.36825 1.64404,0.87306 -0.26784,-0.43337 -4.09034,-3.45275 -4.37115,-3.45275 -0.14696,0 -0.2672,-0.11906 -0.2672,-0.26458 0,-0.14552 -0.24049,-0.26459 -0.53442,-0.26459 -0.76167,0 -2.3739,-1.08143 -3.92573,-2.63326 -0.73451,-0.73452 -1.45029,-1.33549 -1.59061,-1.33549 -0.14033,0 -0.29483,-0.0893 -0.34333,-0.19843 -0.15134,-0.34052 -3.46868,-1.84017 -4.71841,-2.13303 -3.13823,-0.73541 -4.56473,-0.87401 -7.8052,-0.75838 -1.89177,0.0675 -3.91584,0.19607 -4.49792,0.28571 -0.58208,0.0896 -2.07037,0.28968 -3.30729,0.44453 -2.55101,0.31936 -5.95821,0.98064 -6.74688,1.30945 -0.29104,0.12134 -0.94588,0.39296 -1.45521,0.6036 -0.50932,0.21065 -1.6139,0.69495 -2.45462,1.07623 -0.84073,0.38128 -1.6444,0.69324 -1.78594,0.69324 -0.14154,0 -0.25735,0.11906 -0.25735,0.26458 0,0.14552 -0.11879,0.26459 -0.26397,0.26459 -0.14519,0 -0.84376,0.41653 -1.55239,0.92563 -0.70863,0.5091 -1.69117,1.00387 -2.18342,1.09949 -0.49226,0.0956 -1.49033,0.54561 -2.21793,0.99997 -1.15854,0.72347 -2.30812,1.26738 -4.23333,2.00293 -0.6329,0.24181 -3.02448,0.92407 -4.49792,1.28316 -1.6357,0.39862 -5.412149,0.83348 -7.157479,0.82418 -3.37716,-0.018 -10.0434,-1.36159 -10.87334,-2.19153 -0.0997,-0.0997 -0.36321,-0.18133 -0.58551,-0.18133 -0.22648,0 -0.004,0.28908 0.50711,0.65749 1.44126,1.03985 3.68915,3.40132 3.68929,3.87571 8e-5,0.23769 -0.26775,0.50395 -0.59517,0.5917 -1.42731,0.3825 -2.24163,0.16012 -4.05955,-1.1086 -2.30452,-1.60832 -2.70755,-1.75863 -3.29356,-1.22829 -0.43113,0.39016 -0.60898,0.26917 -2.54143,-1.72881 -2.09861,-2.16979 -2.3189,-2.48792 -2.58291,-3.7302 -0.23183,-1.09086 -2.71918,-3.42852 -5.43074,-5.10392 -2.61988,-1.61876 -2.68687,-1.68201 -5.35538,-5.05738 -1.53376,-1.94002 -1.68017,-2.05828 -1.75443,-1.41706 -0.0602,0.51958 -0.26368,0.73452 -0.7909,0.83531 -0.55711,0.10649 -0.89557,-0.0555 -1.57263,-0.75264 -0.72819,-0.74979 -0.86275,-0.80785 -0.86275,-0.37228 0,0.37074 -0.18186,0.51605 -0.64584,0.51605 -0.35521,0 -0.71943,-0.11906 -0.80936,-0.26458 -0.09,-0.14552 -0.28734,-0.26459 -0.43867,-0.26459 -0.30567,0 1.86762,2.58566 3.8121,4.53545 0.69123,0.6931 1.25972,1.35515 1.26331,1.47122 0.0235,0.75674 10.83303,10.92667 11.61391,10.92667 0.15719,0 0.2858,0.10031 0.2858,0.22292 0,0.1226 0.41672,0.44733 0.92605,0.72162 0.50932,0.27429 0.92604,0.5907 0.92604,0.70312 0,0.11243 0.10256,0.20442 0.22792,0.20442 0.12536,0 1.15284,0.62508 2.28328,1.38906 2.81662,1.90354 4.0654,2.57969 4.76442,2.57969 0.17333,0 1.01825,0.24501 1.87758,0.54446 2.04778,0.71358 3.18173,1.04244 4.47284,1.29717 1.47804,0.29161 6.80048,0.29591 8.86354,0.007 z m -13.5158,-6.68814 c -1.46374,-1.02035 -2.09462,-1.6296 -2.09462,-2.02285 0,-0.2669 -0.29186,-0.67651 -0.64858,-0.91024 -0.86242,-0.56508 -1.86502,-1.66374 -2.29618,-2.51617 -0.19239,-0.38038 -0.79915,-1.41884 -1.34835,-2.30769 -0.5492,-0.88885 -0.99855,-1.6957 -0.99855,-1.79299 0,-0.0973 -0.38695,-0.61051 -0.8599,-1.14049 -0.8018,-0.89849 -1.07202,-1.15684 -2.29822,-2.1973 -0.25725,-0.21828 -0.67693,-0.80303 -0.93262,-1.29945 -0.2557,-0.49641 -0.74957,-1.20957 -1.0975,-1.58479 -0.34793,-0.37523 -0.6326,-0.82235 -0.6326,-0.99362 0,-0.17126 -0.0963,-0.35107 -0.21401,-0.39957 -0.1177,-0.0485 -0.7421,-0.80257 -1.38756,-1.6757 -0.64545,-0.87312 -1.25889,-1.6512 -1.3632,-1.72905 -0.10431,-0.0778 -0.4424,-0.71292 -0.75131,-1.41126 -0.30891,-0.69835 -0.7749,-1.48297 -1.03554,-1.74361 -0.26064,-0.26064 -0.54895,-0.6376 -0.64069,-0.83769 -0.0917,-0.20009 -0.1174,0.38597 -0.057,1.30236 0.093,1.41107 0.0527,1.61877 -0.26315,1.35666 -0.20511,-0.17022 -0.37292,-0.47351 -0.37292,-0.67397 0,-0.20046 -0.0893,-0.36541 -0.19844,-0.36654 -0.28661,-0.003 -0.86136,-1.33199 -0.85148,-1.96892 0.005,-0.29841 0.18412,-0.7749 0.39887,-1.05888 0.36952,-0.48864 0.36359,-1.06687 -0.0307,-2.98941 -0.25551,-1.24588 -1.66118,-0.48489 -2.25596,1.22131 -0.4535,1.30091 -1.14291,1.00699 -1.24266,-0.52978 -0.0791,-1.21793 -0.0743,-1.22543 1.45521,-2.28395 0.89576,-0.61995 1.48834,-1.21166 1.42358,-1.42152 -0.061,-0.19772 -0.16268,-0.80451 -0.22592,-1.3484 -0.0842,-0.7239 -0.37241,-1.21494 -1.07565,-1.8324 -1.20058,-1.05412 -1.6302,-1.86792 -1.6302,-3.08802 0,-1.31191 1.0265,-3.34284 1.98438,-3.9261 l 0.79375,-0.48333 -0.92498,-0.0878 c -0.50874,-0.0483 -1.08299,-0.2189 -1.27611,-0.37918 -0.66516,-0.55204 -1.37079,-2.29253 -1.37079,-3.38121 v -1.09111 l -1.12448,0.8753 c -0.61846,0.48141 -1.18401,0.94686 -1.25677,1.03434 -0.0728,0.0875 -0.54901,0.38822 -1.05833,0.6683 -0.509324,0.28008 -0.985574,0.57376 -1.058335,0.65263 -0.28168,0.3053 -2.33602,0.81165 -4.205371,1.03652 -1.076027,0.12944 -2.028527,0.34771 -2.116666,0.48504 -0.20296,0.31624 -2.396329,1.37776 -2.846808,1.37776 -0.450238,0 -2.25052,0.8409 -2.68976,1.25637 -0.192077,0.18168 -0.668327,0.4065 -1.058334,0.4996 -1.161536,0.27727 -1.18239,0.38644 -0.176776,0.92542 0.527968,0.28297 1.378598,0.89675 1.890289,1.36395 1.768666,1.61487 2.19452,1.59645 3.299709,-0.14274 0.485482,-0.76398 0.974144,-1.42875 1.085915,-1.47726 0.11177,-0.0485 0.203219,-0.30016 0.203219,-0.55923 0,-0.90836 2.559495,-2.90797 3.208657,-2.50677 0.16864,0.10422 -0.245192,0.7224 -1.025698,1.53217 -0.719618,0.74659 -1.460087,1.7444 -1.645486,2.21734 -0.185398,0.47294 -0.422595,0.8599 -0.527103,0.8599 -0.104508,0 -0.32722,0.30113 -0.494917,0.66919 -0.167697,0.36805 -0.560014,0.76356 -0.871817,0.8789 -0.531974,0.19679 -0.507646,0.24468 0.394725,0.7771 l 0.961639,0.56738 v -0.80518 c 0,-0.53048 0.248232,-1.04654 0.727604,-1.51265 0.990695,-0.96328 2.619187,-2.16224 2.936861,-2.16224 0.143103,0 0.299875,-0.0893 0.348382,-0.19844 0.181497,-0.40837 2.131572,-1.12655 3.467111,-1.27689 1.0311,-0.11607 1.5184,-0.0512 1.91275,0.2545 0.52107,0.40397 0.51951,0.41038 -0.1017,0.41866 -0.61821,0.008 -0.62755,0.0442 -0.46563,1.79435 0.19992,2.16084 0.68452,4.89807 1.74485,9.85573 0.14005,0.65485 0.25983,1.59016 0.26617,2.07848 0.007,0.54814 0.2646,1.18862 0.67298,1.67394 0.52806,0.62756 0.66146,1.07622 0.66146,2.2246 0,1.90866 0.46149,2.70522 2.38765,4.12122 0.51285,0.37701 1.763,1.70365 2.77813,2.94808 1.01512,1.24444 2.01381,2.27091 2.21931,2.28106 1.25911,0.0622 4.13635,2.43985 5.42744,4.48507 0.36288,0.57484 0.78366,1.12172 0.93508,1.2153 0.15142,0.0936 0.2753,0.46654 0.2753,0.8288 0,0.46787 0.58482,1.24346 2.01915,2.67778 1.11053,1.11053 1.86581,1.73265 1.67841,1.38249 -0.39997,-0.74735 -0.79813,-2.3689 -0.58167,-2.3689 0.34594,0 1.11745,0.90984 1.11745,1.3178 0,0.5729 0.86256,1.34579 2.51354,2.25224 0.7276,0.39948 1.55386,0.888 1.83612,1.0856 0.28226,0.1976 0.57,0.30248 0.63941,0.23307 0.0694,-0.0694 0.0766,-0.16079 0.016,-0.20306 z M 55.610562,257.60626 c -0.481063,-0.54867 -1.691808,-1.83272 -2.690544,-2.85345 -0.998737,-1.02073 -2.303289,-2.35517 -2.899006,-2.96541 -0.595717,-0.61025 -1.377887,-1.18352 -1.738156,-1.27394 -0.360269,-0.0904 -1.131908,-0.3948 -1.714753,-0.6764 -0.582846,-0.2816 -1.163506,-0.512 -1.290357,-0.512 -0.12685,0 0.628014,0.80367 1.677477,1.78593 2.102781,1.96814 4.543501,4.42525 7.459204,7.5093 l 1.908974,2.01919 0.08091,-1.01783 c 0.06659,-0.83769 -0.07389,-1.19438 -0.79375,-2.01539 z m 1.960239,0.21169 c -0.43656,-0.2858 -0.86195,-1.31085 -0.60889,-1.46725 0.27132,-0.16768 1.87503,1.32942 1.87503,1.75037 0,0.14776 0.2547,0.58508 0.566,0.97184 l 0.566,0.70319 -0.18629,-0.77592 c -0.10246,-0.42675 -0.41669,-1.25278 -0.69829,-1.83563 -0.61463,-1.27213 -0.64932,-1.90935 -0.11512,-2.11434 0.83714,-0.32124 0.52264,-0.86647 -2.23405,-3.87307 -0.733844,-0.80036 -1.44357,-1.55506 -1.577176,-1.6771 -0.133605,-0.12204 -0.539874,-0.49232 -0.902819,-0.82286 -0.891865,-0.81222 -3.075187,-2.1547 -5.47242,-3.36488 -1.194683,-0.6031 -4.086506,-2.5523 -4.824428,-3.25185 -0.397863,-0.37717 -1.142004,-0.93275 -1.653646,-1.23463 -0.511642,-0.30188 -0.930259,-0.6539 -0.930259,-0.78227 0,-0.12838 -0.297656,-0.30812 -0.661458,-0.39943 -0.363802,-0.0913 -0.661459,-0.24836 -0.661459,-0.349 0,-0.38481 0.660428,-0.81798 1.247132,-0.81798 0.336673,0 0.818876,-0.11037 1.071563,-0.24527 0.252687,-0.1349 0.638024,-0.31273 0.856305,-0.39519 0.218282,-0.0825 0.575469,-0.25124 0.79375,-0.37507 1.061557,-0.60221 1.613918,-0.83655 1.971809,-0.83655 0.420308,0 1.790663,-0.55623 3.375942,-1.3703 0.540169,-0.27738 1.585443,-0.57579 2.322832,-0.66312 0.737388,-0.0873 1.403787,-0.26085 1.480885,-0.3856 0.0771,-0.12475 0.460574,-0.22841 0.852168,-0.23036 0.426805,-0.002 1.612801,-0.61544 2.960949,-1.53118 3.15842,-2.14541 3.90409,-3.61001 3.05777,-6.0059 -0.36739,-1.04006 -0.39418,-1.05702 -1.55147,-0.98231 -0.94568,0.0611 -1.33644,-0.0576 -1.983972,-0.60246 -0.443488,-0.37317 -0.880996,-1.01839 -0.972238,-1.43381 l -0.165896,-0.75532 -3.75616,-0.17627 c -4.542574,-0.21318 -7.111497,0.0783 -8.687521,0.98586 -0.634731,0.36549 -1.689837,0.74225 -2.344681,0.83723 -0.654844,0.095 -1.42875,0.2691 -1.719791,0.38692 -0.974906,0.39468 -3.090175,0.82747 -4.727484,0.96727 -0.892384,0.0762 -2.039235,0.24235 -2.548558,0.36924 -3.297203,0.82148 -5.015506,1.06511 -7.512336,1.06511 -1.543528,0 -2.806414,0.0742 -2.806414,0.16487 0,0.37994 1.766866,3.43614 2.315104,4.00451 0.327422,0.33944 0.595313,0.74997 0.595313,0.91227 0,0.4184 1.498101,1.70362 2.33693,2.00484 0.388178,0.1394 1.634765,0.46892 2.770193,0.73227 1.135428,0.26334 2.12472,0.57639 2.198427,0.69565 0.199825,0.32332 0.887526,0.262 1.277111,-0.11389 0.18853,-0.1819 0.686041,-0.61699 1.105581,-0.96687 0.419539,-0.34988 1.529246,-1.30238 2.466014,-2.11667 1.737627,-1.51044 2.436474,-2.00403 3.257723,-2.30091 0.254661,-0.092 0.46302,-0.25065 0.46302,-0.35243 0,-0.39334 7.39947,-3.72198 8.273842,-3.72198 0.106054,0 0.192825,0.17511 0.192825,0.38912 0,0.32722 -2.517676,1.72406 -3.116695,1.72918 -0.202988,0.002 -0.72617,0.27089 -2.83643,1.45924 -0.727604,0.40973 -1.92039,1.0597 -2.650634,1.44438 -0.730245,0.38468 -1.91291,1.26816 -2.628145,1.96329 -0.715235,0.69513 -1.725105,1.58072 -2.244157,1.96798 -0.519052,0.38726 -1.24017,0.972 -1.602485,1.29942 -0.362315,0.32742 -0.759949,0.59531 -0.883631,0.59531 -0.40524,0 -1.21794,1.17764 -1.226937,1.77789 -0.0048,0.323 0.229323,1.01123 0.520364,1.5294 0.291042,0.51818 0.529167,1.09889 0.529167,1.29048 0,0.65401 0.965023,1.46225 2.269198,1.90054 0.716472,0.24078 1.957521,0.73224 2.757885,1.09212 0.800365,0.35989 1.693333,0.76021 1.984375,0.8896 0.291042,0.12939 1.422136,0.58978 2.513542,1.02309 1.091406,0.43331 2.5701,1.09174 3.285987,1.46319 0.715886,0.37145 1.489792,0.67715 1.719791,0.67934 1.583978,0.0151 3.679648,1.50831 5.378698,3.83247 1.260799,1.72467 2.140573,2.73931 3.836878,4.42505 1.180877,1.17352 1.395987,1.54019 1.435287,2.44643 l 0.0462,1.06602 0.10323,-1.1644 c 0.0568,-0.64042 -0.006,-1.23573 -0.13891,-1.32291 z M 34.592452,242.37974 c -1.300387,-1.39708 -2.053686,-4.97175 -1.089363,-5.16941 0.359557,-0.0737 0.463021,0.0833 0.463021,0.70263 0,0.43864 0.119062,0.87112 0.264583,0.96105 0.145521,0.0899 0.264584,0.37226 0.264584,0.62738 0,0.61977 0.923871,2.50353 1.436473,2.92895 0.441019,0.36601 0.326234,0.8093 -0.209561,0.8093 -0.181147,0 -0.689528,-0.38695 -1.129737,-0.8599 z m 24.434019,9.26042 c -0.0752,-0.32742 -0.33239,-1.30557 -0.5715,-2.17366 -0.5568,-2.02149 -0.90393,-4.09094 -1.25648,-7.49062 -0.26801,-2.58452 -0.30969,-2.71127 -0.843102,-2.56322 -0.904948,0.25116 -3.339279,1.53871 -3.339279,1.76618 0,0.11479 -0.178594,0.20872 -0.396875,0.20872 -0.218282,0 -0.396875,0.10031 -0.396875,0.22292 0,0.1226 -0.412562,0.44509 -0.916804,0.71665 -0.93405,0.50302 -1.658435,1.70749 -1.338365,2.22538 0.09738,0.15756 0.884313,0.6435 1.748745,1.07986 2.100262,1.06021 3.377525,2.17211 6.327255,5.50807 1.09864,1.2425 1.1612,1.27429 0.98328,0.49972 z m 8.48242,-1.521 c 0.63576,-0.69875 1.02861,-1.76508 0.75214,-2.04155 -0.0905,-0.0904 -0.43218,-0.0362 -0.75938,0.12063 -0.3272,0.15679 -0.80327,0.35167 -1.05793,0.43306 -0.36194,0.11568 -0.46303,0.44568 -0.46303,1.5116 0,1.26049 0.035,1.33618 0.46303,1.00084 0.25466,-0.19953 0.73398,-0.66059 1.06517,-1.02458 z m 5.52032,0.92306 c 0.43823,-0.13181 1.00369,-1.38055 1.56627,-3.45888 0.45914,-1.69622 0.64504,-1.97213 2.70258,-4.01122 1.9899,-1.97206 2.20002,-2.27494 2.1139,-3.04704 -0.0824,-0.73884 -0.12807,-0.7858 -0.33035,-0.33986 -0.41079,0.90561 -1.14108,1.72364 -3.47748,3.89531 -1.06221,0.98732 -1.30569,1.36763 -2.08716,3.26015 -0.24036,0.58208 -0.54606,1.26508 -0.67935,1.51777 -0.13329,0.25268 -0.24234,0.63422 -0.24234,0.84787 0,0.21364 -0.30791,0.69634 -0.68425,1.07268 l -0.68424,0.68424 0.75039,-0.16515 c 0.41271,-0.0908 0.88613,-0.20597 1.05203,-0.25587 z m -2.75568,-0.46039 c 0.89616,-0.5097 1.10312,-0.77665 1.48716,-1.91823 0.81293,-2.4165 1.96706,-4.26932 3.70824,-5.95313 2.4012,-2.32209 4.03307,-4.96027 3.98874,-6.44845 -0.0162,-0.54462 -0.0247,-0.54313 -0.26092,0.0455 -0.42774,1.06601 -1.73443,2.78399 -3.33163,4.38032 -2.23,2.22877 -2.59588,2.55184 -2.88999,2.55184 -0.52709,0 -2.22723,1.92513 -2.46699,2.79347 -0.13545,0.49056 -0.18094,1.37904 -0.10109,1.9744 0.14041,1.04677 -0.24067,2.25262 -0.85406,2.70256 -0.4388,0.32187 0.0967,0.22655 0.72054,-0.12824 z m 6.67714,-1.13458 c 0.42655,-0.55924 0.67169,-1.2221 0.67169,-1.81628 0,-0.8658 0.4231,-1.85295 1.49601,-3.49043 0.73647,-1.12399 0.10783,-1.07127 -0.95533,0.0801 -1.5967,1.72921 -2.27394,2.76185 -2.65355,4.04605 -0.19357,0.65485 -0.49774,1.43298 -0.67594,1.72918 -0.30352,0.5045 -0.26807,0.53203 0.56071,0.43527 0.62106,-0.0725 1.08488,-0.36572 1.55641,-0.98392 z M -25.5696,247.46314 c -0.134535,-1.37704 -0.380444,-3.87293 -0.546465,-5.54642 -0.166022,-1.67349 -0.362818,-3.86895 -0.437324,-4.8788 -0.08421,-1.14137 -0.337895,-2.19253 -0.670471,-2.77812 -1.199262,-2.11166 -1.753374,-3.39638 -2.06101,-4.77849 -0.357815,-1.60756 -0.413095,-3.92112 -0.123878,-5.1845 l 0.187459,-0.81887 -1.474312,0.20007 c -1.548246,0.2101 -2.225896,0.11666 -3.32901,-0.45906 -0.854638,-0.44603 -1.08368,-0.44281 -0.908849,0.0128 0.07704,0.20076 -0.164822,0.60485 -0.53747,0.89798 -0.884468,0.69572 -0.854583,0.85367 0.16152,0.85367 0.947341,0 1.806771,0.64135 1.806771,1.34831 0,0.2599 0.105335,0.53764 0.234078,0.61721 0.128743,0.0796 0.293722,0.47355 0.366621,0.87551 0.215116,1.18616 0.812376,2.50473 1.449822,3.20078 0.327422,0.35752 0.595312,0.81125 0.595312,1.00828 0,0.19704 0.09514,0.35824 0.211432,0.35824 0.319765,0 0.789912,1.53598 0.992081,3.24115 0.09921,0.83674 0.25673,1.52135 0.350053,1.52135 0.260993,0 0.774873,1.83743 0.964229,3.4477 0.09359,0.7959 0.389147,2.04241 0.656789,2.77001 0.267642,0.72761 0.749481,2.15636 1.070754,3.175 0.81195,2.57441 1.155876,3.55052 1.226222,3.48018 0.03314,-0.0331 -0.04982,-1.18693 -0.184354,-2.56397 z m -5.310134,-16.99806 c -0.998458,-0.76659 -1.417874,-2.98281 -0.680332,-3.59491 0.491679,-0.40806 0.702242,-0.11066 0.709143,1.00159 0.0033,0.53119 0.233396,1.23895 0.523283,1.60955 0.871915,1.11468 0.494449,1.78728 -0.552094,0.98377 z m 64.052094,17.17258 c 0,-0.0549 -0.181319,-0.25037 -0.402932,-0.4343 -0.336906,-0.2796 -0.375623,-0.26324 -0.236276,0.0999 0.142319,0.37087 0.639208,0.63082 0.639208,0.3344 z m -60.999079,-1.0159 c -0.102826,-0.46816 -0.280741,-1.03371 -0.395366,-1.25677 -0.114625,-0.22306 -0.411815,-1.239 -0.660423,-2.25764 -0.585569,-2.39931 -1.666245,-5.95818 -1.987387,-6.54485 -0.138322,-0.25269 -0.251494,-0.82561 -0.251494,-1.27315 0,-0.82046 -1.202807,-3.69138 -1.546547,-3.69138 -0.19428,0 -0.809372,-1.12907 -1.401686,-2.57296 -0.330653,-0.80604 -0.407157,-0.84403 -1.384781,-0.6877 -0.936925,0.14982 -1.537168,0.439 -4.226036,2.03601 -1.252305,0.74378 -3.042808,1.21708 -4.670116,1.2345 -1.832671,0.0196 -3.124461,0.65067 -3.771092,1.84224 -0.635089,1.17029 -1.17395,1.5875 -2.050421,1.5875 -0.639661,0 -1.852067,0.82998 -1.850903,1.26707 0.0012,0.45848 3.684005,0.30276 5.705155,-0.24123 1.154754,-0.3108 2.841249,-0.68808 3.747766,-0.83839 1.605549,-0.26623 1.683055,-0.25165 2.994143,0.56337 0.740261,0.46017 1.521355,0.83668 1.735764,0.83668 0.954705,0 3.042077,1.40097 3.851974,2.58531 0.22602,0.33052 0.844447,1.06948 1.37428,1.64212 0.529833,0.57265 0.963333,1.16543 0.963333,1.31729 0,0.15186 0.115206,0.27611 0.256012,0.27611 0.140807,0 0.765885,0.68461 1.389062,1.52135 0.623178,0.83675 1.281879,1.67869 1.46378,1.87099 0.181901,0.19229 0.330729,0.5594 0.330729,0.81579 0,0.43757 0.215151,0.81895 0.461995,0.81895 0.06007,0 0.02509,-0.38304 -0.07774,-0.85121 z m -8.586337,-10.19834 c -0.760816,-0.25973 -1.377215,-1.1335 -1.225647,-1.7374 0.161042,-0.64164 1.106183,-1.76513 1.484923,-1.76513 0.375346,0 0.630861,0.56996 0.339449,0.75719 -0.559664,0.35957 -0.655781,1.38706 -0.179032,1.91386 0.505423,0.55848 0.2519,1.06076 -0.419693,0.83148 z m -4.762499,-3.32777 c 0,-0.43215 1.109493,-0.96851 2.003434,-0.96851 0.36059,0 1.333127,-0.23813 2.161193,-0.52917 2.029103,-0.71317 2.307338,-0.69669 1.781699,0.10554 -0.401419,0.61264 -0.754419,0.79547 -2.790111,1.44505 -1.33041,0.42454 -3.156215,0.39393 -3.156215,-0.0529 z m 108.954316,12.49243 c 0.077,-1.45842 0.0632,-1.49002 -0.83373,-1.91566 -0.50161,-0.23803 -1.03369,-0.43278 -1.18241,-0.43278 -0.14871,0 -0.63673,-0.36635 -1.08449,-0.8141 -1.42224,-1.42224 -0.91941,-3.41835 0.96511,-3.83125 0.40388,-0.0885 1.07952,-0.27012 1.50142,-0.40361 0.42189,-0.13349 1.07674,-0.24659 1.4552,-0.25134 0.37847,-0.005 1.34297,-0.24852 2.14333,-0.54171 0.80037,-0.29319 1.65648,-0.59899 1.90247,-0.67956 0.246,-0.0806 0.62572,-0.67024 0.84384,-1.31038 0.36201,-1.06243 0.28077,-1.45693 -0.20083,-0.97533 -0.35704,0.35704 -2.67902,1.13393 -3.38976,1.13415 -0.39159,1.2e-4 -0.78557,0.11928 -0.87551,0.2648 -0.0899,0.14552 -0.92881,0.26458 -1.86416,0.26458 -1.42908,0 -1.86304,0.11562 -2.71761,0.72404 -1.43828,1.02399 -2.3323,3.13635 -2.00982,4.74872 0.11727,0.58635 0.63215,1.08335 2.23413,2.15653 2.11776,1.41871 2.54657,1.99064 2.23308,2.97836 -0.13991,0.44082 -0.0762,0.53455 0.3129,0.46045 0.39395,-0.075 0.50373,-0.3802 0.56684,-1.57591 z m -2.27432,0.24448 c -0.24694,-0.24695 -0.3175,-0.17639 -0.3175,0.3175 0,0.49389 0.0706,0.56444 0.3175,0.3175 0.24695,-0.24695 0.24695,-0.38806 0,-0.635 z m 4.4438,-1.27 c 0.0801,-0.0728 0.34241,-0.44192 0.58281,-0.82035 0.24041,-0.37843 0.83504,-0.87689 1.3214,-1.10768 0.80459,-0.38181 4.97616,-4.2135 4.97616,-4.57074 0,-0.0831 0.29766,-0.54137 0.66146,-1.01834 0.57776,-0.75748 0.66095,-1.13189 0.65741,-2.95891 -0.002,-1.15043 -0.12832,-2.27029 -0.28021,-2.48857 -0.20154,-0.28965 -0.23092,-0.099 -0.10871,0.70552 0.26007,1.71228 -0.096,3.38745 -0.91492,4.30473 -0.39803,0.44582 -0.83218,0.81059 -0.96479,0.81059 -0.1326,0 -0.73517,0.44648 -1.33903,0.99218 -0.60387,0.54571 -1.8677,1.46844 -2.80851,2.05052 -2.09348,1.29524 -2.58143,2.0691 -2.55771,4.05634 0.0161,1.34596 0.0493,1.43202 0.32341,0.83846 0.16803,-0.36381 0.37108,-0.72099 0.45123,-0.79375 z m -36.775881,0.42927 c 0.0291,0.0466 -0.181319,-0.25038 -0.402932,-0.4343 -0.336906,-0.27961 -0.375623,-0.26324 -0.236276,0.0999 0.142319,0.37088 -3.198192,-5.80543 -3.041089,-5.55407 z m 35.189581,-3.01228 c 0,-0.20087 -0.17859,-0.5438 -0.39687,-0.76208 -0.21828,-0.21828 -0.39688,-0.72165 -0.39688,-1.1186 0,-0.66653 -0.0696,-0.7136 -0.90948,-0.61555 -0.50021,0.0584 -1.12134,0.34029 -1.38028,0.62641 -0.42384,0.46834 -0.43209,0.58879 -0.0827,1.20739 0.21346,0.37793 0.86435,0.9576 1.44643,1.28815 0.96647,0.54882 1.08705,0.5636 1.38907,0.17024 0.1819,-0.23692 0.33072,-0.5951 0.33072,-0.79596 z m 12.72034,-0.83619 c 0.56761,-1.08898 0.56839,-1.11071 0.0844,-2.34571 l -0.48854,-1.24655 -0.20938,2.24015 c -0.11517,1.23209 -0.32647,2.35723 -0.46955,2.50031 -0.14309,0.14309 -0.26016,0.36392 -0.26016,0.49073 0,0.41068 0.75524,-0.51081 1.34325,-1.63893 z m -11.13284,-0.94643 c 0.18116,-0.21828 0.4934,-0.39687 0.69386,-0.39687 0.20046,0 0.36448,-0.11907 0.36448,-0.26459 0,-0.14552 0.14883,-0.27144 0.33073,-0.27983 0.1819,-0.008 0.69913,-0.27628 1.14939,-0.59531 3.83974,-2.72061 4.34071,-3.38675 4.34071,-5.77175 0,-0.70983 -0.0538,-1.29061 -0.11955,-1.29061 -0.34976,0 -1.94324,1.94919 -1.83151,2.24036 0.0722,0.18829 -0.10116,0.86256 -0.38537,1.49839 -0.2842,0.63582 -0.5773,1.33464 -0.65133,1.55292 -0.15112,0.44556 -2.38147,1.60369 -4.08984,2.12368 -0.90503,0.27547 -1.12448,0.46309 -1.12448,0.96138 0,0.7221 0.79695,0.85598 1.32291,0.22223 z m 0.59511,-5.81152 c 0.41577,-0.17793 0.3956,-0.25094 -0.19844,-0.7182 -0.83348,-0.65562 -0.96226,-2.33382 -0.17908,-2.33382 0.52763,0 1.9939,2.01378 1.75166,2.40573 -0.22259,0.36017 0.0893,0.2904 0.80851,-0.18086 0.60666,-0.3975 0.61936,-0.45622 0.22789,-1.05367 -0.22801,-0.34799 -0.8104,-0.87735 -1.2942,-1.17636 -1.05464,-0.6518 -1.91877,-0.50911 -2.90811,0.48024 -0.59591,0.5959 -0.78445,0.65056 -1.41846,0.41125 -0.6623,-0.24999 -0.76154,-0.20747 -1.05308,0.45116 -0.59386,1.34163 -2.736,1.23499 -3.48992,-0.17373 -0.2776,-0.51869 -0.28489,-0.83266 -0.0354,-1.52269 0.17288,-0.47809 0.31433,-1.06917 0.31433,-1.3135 0,-0.54876 0.0938,-0.55009 1.21678,-0.0172 0.49494,0.23486 0.89988,0.57359 0.89988,0.75274 0,0.17914 0.23813,0.54122 0.52917,0.80461 0.30009,0.27157 0.52917,0.3466 0.52917,0.1733 0,-0.16808 -0.11906,-0.30559 -0.26459,-0.30559 -0.14552,0 -0.26458,-0.23813 -0.26458,-0.52917 0,-0.79085 1.01036,-0.68981 1.32292,0.13229 0.31102,0.81806 0.49165,0.82393 1.33352,0.0433 1.08879,-1.00958 1.95021,-1.0815 3.60086,-0.30062 0.98794,0.46738 1.55548,0.92577 1.76636,1.42667 l 0.31072,0.73804 1.38906,-1.02909 c 1.3688,-1.01408 1.38906,-1.04937 1.38906,-2.41892 0,-1.35063 -0.0476,-1.4386 -1.6871,-3.11892 -0.9279,-0.951 -1.76936,-1.98829 -1.86991,-2.30509 -0.22303,-0.70271 -0.96925,-0.74641 -1.56197,-0.0915 -0.34554,0.38183 -0.40741,0.81647 -0.29189,2.05052 0.24543,2.62167 -0.75666,3.11852 -1.07943,0.5352 -0.15693,-1.25603 -0.23882,-1.40325 -0.7118,-1.27956 -0.47919,0.12531 -0.51744,0.28455 -0.3699,1.5399 0.20262,1.72399 -0.184,2.09307 -1.08963,1.0402 -0.44612,-0.51864 -0.59043,-0.92846 -0.48079,-1.36531 0.1406,-0.5602 0.0679,-0.62452 -0.70827,-0.62714 -0.47571,-0.002 -1.28165,-0.0711 -1.79098,-0.15439 -1.39911,-0.22887 -2.78929,1.09151 -3.31312,3.14678 -0.4454,1.74752 -0.52227,4.8357 -0.12646,5.08032 0.14552,0.0899 0.26458,0.40275 0.26458,0.69514 0,0.51413 0.13275,0.52791 4.0349,0.41881 2.21919,-0.0621 4.24316,-0.20195 4.49771,-0.31089 z m 11.90229,-1.94959 c 0.11143,-0.0485 0.2026,-0.24326 0.2026,-0.43278 0,-0.18952 0.17787,-0.68561 0.39525,-1.10243 0.76537,-1.46754 0.24133,-5.65264 -0.70781,-5.65264 -0.13874,0 -0.17946,-0.22938 -0.0905,-0.50974 0.321,-1.01138 -0.82837,-2.88173 -2.55262,-4.15384 -1.21717,-0.898 -1.40934,-0.77518 -0.41311,0.26402 0.81544,0.8506 2.04436,3.96008 1.70086,4.30358 -0.38021,0.38021 -1.5071,-1.33844 -1.5071,-2.29851 0,-0.25361 -0.42002,-0.8299 -0.93339,-1.28064 -0.94795,-0.83231 -3.0024,-2.00227 -3.18875,-1.81592 -0.0562,0.0562 0.54252,0.7784 1.33041,1.60496 0.78788,0.82655 1.50824,1.74141 1.60079,2.033 0.0926,0.2916 0.2696,0.53018 0.39345,0.53018 0.12384,0 0.4644,0.38708 0.75679,0.86017 0.44521,0.72038 0.55875,1.50518 0.69854,4.82865 0.0918,2.18266 0.22556,4.25155 0.29722,4.59753 0.12303,0.59397 0.17728,0.56446 0.97252,-0.52917 0.46322,-0.63702 0.93339,-1.19791 1.04482,-1.24642 z m -3.10066,-6.89797 c -0.14774,-0.0589 -0.68533,-0.54996 -1.19465,-1.09136 -0.50932,-0.54139 -1.50322,-1.59783 -2.20865,-2.34763 -1.90332,-2.02305 -3.41432,-2.50319 -5.86114,-1.86246 -1.03088,0.26994 -3.57146,1.48695 -3.83646,1.83777 -0.30133,0.3989 -3.34869,1.65731 -4.47475,1.84785 -0.66758,0.11296 -1.00543,0.21938 -0.75077,0.2365 0.25466,0.0171 0.4668,0.12042 0.47143,0.22956 0.005,0.10914 0.17057,0.41224 0.36875,0.67356 0.5319,0.70134 1.7395,0.34809 1.7395,-0.50885 0,-0.56874 0.0788,-0.61578 0.72761,-0.43434 2.07686,0.58081 5.32919,-0.10864 6.71517,-1.42353 0.84326,-0.8 2.26037,-0.78451 2.717,0.0297 0.1602,0.28564 0.82705,1.0992 1.48189,1.8079 0.65485,0.7087 1.28953,1.46386 1.41042,1.67813 0.17055,0.30229 0.30318,0.32038 0.59194,0.0807 0.20469,-0.16987 0.58203,-0.22716 0.83854,-0.12731 0.4276,0.16645 0.4179,0.22113 -0.11658,0.65733 -0.53391,0.43575 -0.56643,0.61776 -0.38639,2.16316 l 0.19657,1.68737 0.16814,-1.51455 c 0.32203,-2.90074 0.91938,-2.46051 0.97807,0.7208 0.0705,3.82094 0.42206,3.65383 0.55665,-0.26458 0.0881,-2.56563 0.0413,-4.00658 -0.13229,-4.07575 z m -18.1031,0.1702 c -0.34486,-0.33163 -0.54421,-0.41768 -0.4529,-0.19549 0.0897,0.21828 0.23864,0.6131 0.33098,0.87738 0.11995,0.34329 0.24928,0.39912 0.45291,0.1955 0.20362,-0.20363 0.1091,-0.45417 -0.33099,-0.87739 z m -2.18097,-1.75304 c 0.26649,-0.16887 0.14973,-0.31847 -0.45877,-0.58782 -0.77348,-0.34237 -1.25442,-0.95272 -0.97271,-1.23443 0.071,-0.071 0.53826,0.0651 1.0384,0.30245 1.82648,0.86672 4.20356,0.40876 6.96823,-1.34249 0.75699,-0.4795 1.50113,-0.87183 1.65364,-0.87183 0.15251,0 0.27729,-0.11104 0.27729,-0.24675 0,-0.13572 0.2679,-0.33703 0.59532,-0.44736 0.58422,-0.19686 0.79201,-0.24311 1.45521,-0.32392 0.54914,-0.0669 0.37085,-0.56947 -0.20203,-0.56947 -0.51438,0 -0.76962,0.094 -2.04334,0.75244 -0.32545,0.16824 -0.7443,0.30589 -0.93077,0.30589 -0.18648,0 -0.75364,0.27951 -1.26036,0.62112 -2.26565,1.52742 -3.84161,2.23931 -4.6319,2.0923 -0.43304,-0.0805 -0.84686,-0.218 -0.91963,-0.30545 -0.28558,-0.34325 -2.16838,-1.08505 -2.75403,-1.08505 -1.051137,0 -2.273051,0.31746 -2.273051,0.59055 0,0.1429 0.167407,0.19557 0.372016,0.11706 0.407123,-0.15623 1.215484,0.59056 1.215484,1.1229 0,0.91192 1.977201,1.67627 2.871001,1.10986 z m -94.550998,-0.82067 c 0.09269,-0.14998 -0.01351,-0.19434 -0.248968,-0.10399 -0.458369,0.1759 -0.542234,0.36554 -0.161649,0.36554 0.136933,0 0.32171,-0.1177 0.410617,-0.26155 z m 106.832428,-4.40992 c -0.17913,-0.0725 -0.53632,-0.0769 -0.79375,-0.01 -0.25743,0.0671 -0.11087,0.12638 0.3257,0.13177 0.43656,0.005 0.64718,-0.0495 0.46805,-0.12197 z M 42.711586,173.59929 c 1.199295,-1.19929 1.074159,-2.19843 -0.477247,-3.81054 -3.100643,-3.22197 -4.019977,-4.39835 -4.555193,-5.82885 -0.575848,-1.53909 -1.52763,-2.96539 -1.995948,-2.99104 -0.147008,-0.008 -0.563727,-0.28351 -0.926042,-0.61214 -0.362315,-0.32863 -0.991779,-0.74535 -1.398808,-0.92604 -0.858564,-0.38115 -2.831821,-0.44187 -2.831821,-0.0871 0,0.13277 -0.922735,0.22207 -2.050521,0.19843 -1.88717,-0.0395 -2.139942,0.0203 -3.173009,0.75078 -0.617368,0.43657 -1.195822,1.06165 -1.285454,1.38907 -0.08963,0.32742 -0.269121,0.59531 -0.398866,0.59531 -0.129745,0 -0.2359,0.12198 -0.2359,0.27107 0,0.40446 -2.100339,3.65307 -2.606373,4.0313 -0.241243,0.18031 -0.76269,0.82701 -1.158771,1.4371 l -0.720146,1.10927 1.095074,0.93734 c 0.602291,0.51554 1.513527,1.01585 2.024969,1.1118 0.810601,0.15206 1.010737,0.0762 1.560065,-0.59141 0.346593,-0.42121 0.844275,-1.00397 1.105959,-1.29501 0.261685,-0.29104 0.561614,-0.80109 0.66651,-1.13343 0.572058,-1.81247 2.871925,-2.24752 4.332485,-0.81955 0.759088,0.74215 0.843978,0.98114 0.843978,2.37611 0,1.32041 -0.137663,1.76617 -0.926042,2.9986 -1.081375,1.69047 -1.09215,1.73764 -0.396875,1.73764 0.319871,0 0.529167,-0.17639 0.529167,-0.44596 0,-0.48644 0.995816,-1.6707 1.404843,-1.6707 0.139847,0 0.542112,-0.31059 0.89392,-0.6902 0.591395,-0.63812 0.749941,-0.67641 2.101577,-0.50754 1.314155,0.16419 1.565211,0.11108 2.483738,-0.52546 l 1.021812,-0.70812 0.594862,0.5542 c 0.345978,0.32233 0.947878,0.5542 1.438616,0.5542 1.194243,0 1.525242,0.52845 1.385614,2.21218 -0.10651,1.28437 -0.07094,1.40543 0.378372,1.28793 0.272762,-0.0713 0.846717,-0.48047 1.275455,-0.90921 z m -78.129993,134.86575 c -0.134974,-0.70607 0.288683,-1.98407 0.658997,-1.98792 0.109141,-0.001 0.198438,-0.24782 0.198438,-0.54818 0,-0.30037 0.308237,-1.22 0.684972,-2.04363 0.376735,-0.82362 0.800477,-2.15545 0.941649,-2.95961 0.270399,-1.54026 0.320301,-14.87344 0.06814,-18.20647 -0.1551,-2.05011 0.201947,-4.92838 0.860387,-6.93584 0.370122,-1.12843 2.028683,-4.59136 2.471071,-5.15938 0.113336,-0.14552 0.424542,-0.97895 0.691569,-1.85208 0.267026,-0.87312 0.556962,-1.64703 0.644301,-1.71979 0.08734,-0.0728 0.244081,-0.31089 0.348315,-0.52917 0.104233,-0.21828 0.33519,-0.635 0.513238,-0.92604 0.178047,-0.29104 0.660941,-1.09471 1.073097,-1.78594 0.751992,-1.26116 1.228259,-1.59633 1.228259,-0.8644 0,0.37939 -2.616721,5.68979 -2.935649,5.95763 -0.08664,0.0728 -0.232635,0.60854 -0.324437,1.19063 -0.0918,0.58208 -0.607466,1.9513 -1.145917,3.04271 -0.538452,1.0914 -1.072381,2.2225 -1.186509,2.51354 -0.603228,1.53831 -0.780866,4.59998 -0.851986,14.68437 -0.08686,12.31626 0.113492,10.9695 -2.374979,15.96455 -1.228519,2.46597 -1.447453,2.76924 -1.562958,2.16502 z m 9.394272,-10.92057 c 0.0843,-1.89537 0.267417,-3.66769 0.406935,-3.9385 0.139519,-0.2708 0.455449,-1.32581 0.702067,-2.34446 0.246618,-1.01864 0.558443,-1.96519 0.692945,-2.10343 0.134501,-0.13825 0.244548,-0.46728 0.244548,-0.7312 0,-0.26391 0.104246,-0.68658 0.231658,-0.93927 0.275955,-0.54728 0.891532,-2.66779 1.515909,-5.22193 0.249015,-1.01864 0.552995,-1.96519 0.675511,-2.10344 0.122516,-0.13824 0.222756,-0.45205 0.222756,-0.69736 0,-0.2453 0.17786,-0.78703 0.395245,-1.20385 0.217384,-0.41682 0.395978,-0.9424 0.396875,-1.16795 8.96e-4,-0.22556 0.10202,-0.52322 0.224719,-0.66146 0.122699,-0.13825 0.438032,-0.96573 0.700739,-1.83886 0.657753,-2.18608 1.548856,-4.12111 2.218547,-4.81758 0.308985,-0.32133 0.561791,-0.6628 0.561791,-0.75882 0,-0.096 0.373066,-0.59947 0.829035,-1.11879 0.981848,-1.11826 2.752745,-4.80243 3.020067,-6.28294 0.103755,-0.57463 0.27666,-1.16384 0.384232,-1.30937 0.107571,-0.14552 0.277833,-0.74083 0.378359,-1.32291 0.185983,-1.07691 0.508564,-2.27733 0.995398,-3.70417 0.148954,-0.43656 0.368987,-1.68672 0.488961,-2.77812 0.119975,-1.09141 0.350384,-2.57969 0.512019,-3.3073 0.9416557,-4.23887 1.3683497,-7.40612 1.8535347,-13.75833 0.57268,-7.49772 0.610778,-7.82379 0.902839,-7.72695 0.446477,0.14805 0.664265,2.28233 0.376115,3.68585 -0.141212,0.68782 -0.201762,1.46172 -0.134555,1.7198 0.0837,0.3214 0.131864,0.25802 0.152887,-0.20116 0.01688,-0.36871 0.453187,-1.32121 0.96957,-2.11667 0.516384,-0.79546 1.120564,-1.82334 1.342624,-2.28418 0.42022,-0.87209 2.361484,-2.99856 2.737392,-2.99856 0.118614,0 0.261175,-1.33946 0.316804,-2.97657 0.09664,-2.84419 0.146576,-3.0648 1.12282403,-4.96093 0.561925,-1.09141 1.154339,-2.25134 1.316476,-2.57763 0.162136,-0.32628 0.38408997,-0.59417 0.49323097,-0.59531 0.10914,-0.001 0.198437,-0.31149 0.198437,-0.68968 0,-0.74449 0.697565,-2.40586 1.246733,-2.9693 0.400673,-0.41109 0.404638,-0.58949 0.04809,-2.16392 -0.537625,-2.37399 -0.781304,-3.88576 -1.044873,-6.48229 -0.147715,-1.45521 -0.3933,-3.37455 -0.545746,-4.26519 -0.19566197,-1.14315 -0.19335797,-1.92123 0.0078,-2.64584 0.156755,-0.56456 0.285674,-2.14444 0.286486,-3.51084 0.0012,-2.01134 -0.08222,-2.54557 -0.43808097,-2.80579 -0.365993,-0.26762 -0.572199,-0.19465 -1.232138,0.43603 -0.435921,0.41659 -1.30968303,1.01569 -1.94169503,1.33133 -0.632011,0.31564 -1.149111,0.67185 -1.149111,0.79158 0,0.11972 -0.165855,0.21768 -0.368567,0.21768 -0.202713,0 -0.426369,0.14883 -0.497016,0.33073 -0.133909,0.34479 -2.636418,1.78594 -3.101228,1.78594 -0.672975,0 -0.154665,-0.837 0.901652,-1.45604 0.642496,-0.37653 1.325357,-0.87399 1.51747,-1.10547 0.462875,-0.55773 2.241889,-1.67183 2.669614,-1.67183 0.318455,0 1.78849203,-1.2038 1.78849203,-1.46458 0,-0.0661 -0.59096403,-0.85363 -1.31325403,-1.74998 -1.274869,-1.5821 -1.433594,-2.0771 -0.666033,-2.0771 0.411841,0 3.03762003,2.48239 3.03762003,2.87174 0,0.13565 0.195504,0.32166 0.43445397,0.41336 0.380497,0.14601 0.414167,-0.005 0.271107,-1.21249 -0.140368,-1.18518 -0.111254,-1.32562 0.206951,-0.99831 0.288776,0.29705 0.38735,1.63325 0.447756,6.06945 0.07955,5.84221 0.330003,9.25564 0.747406,10.18645 0.130511,0.29105 0.324447,1.12448 0.430969,1.85209 0.106522,0.7276 0.235261,1.50151 0.286086,1.71979 0.05083,0.21828 0.167425,0.9659 0.25911,1.66137 0.09168,0.69548 0.268766,1.32758 0.393514,1.40468 0.124747,0.0771 0.226814,0.56245 0.226814,1.07856 0,1.14458 0.675669,3.90167 1.221294,4.98351 0.220178,0.43657 0.73905,1.38907 1.15305,2.11667 0.413999,0.72761 0.76351,1.48352 0.776691,1.67981 0.01318,0.19629 0.212491,0.7916 0.442913,1.32291 0.230421,0.53132 0.587608,1.35702 0.79375,1.8349 0.206141,0.47788 0.374802,1.05641 0.374802,1.28563 0,0.3929 0.219116,0.68115 1.8633293,2.45119 0.831647,0.8953 3.163754,4.40981 3.163754,4.76782 0,0.14435 0.47625,0.7031 1.058333,1.24166 0.582084,0.53857 1.058334,1.13868 1.058334,1.33358 0,0.19491 0.09339,0.35438 0.207537,0.35438 0.114145,0 0.4326,0.38695 0.707678,0.85989 0.275077,0.47295 0.574801,0.91943 0.666054,0.99219 0.09125,0.0728 0.536303,0.6884 0.989,1.36808 0.75167,1.12856 0.839517,1.54234 0.327446,1.54234 -0.323222,0 -2.632836,-2.49495 -2.632988,-2.84427 -7.9e-5,-0.18191 -0.104902,-0.33073 -0.232939,-0.33073 -0.332908,0 -3.099435,-3.60093 -3.649944,-4.75079 -0.10142,-0.21184 -0.370622,-0.60246 -0.598226,-0.86806 -0.227605,-0.2656 -0.655331,-0.92571 -0.950504,-1.46692 -1.1864143,-2.17535 -2.0559083,-3.25927 -2.4828633,-3.09518 -0.231024,0.0888 -1.432074,0.2199 -2.669001,0.29135 -1.359866,0.0786 -3.138051,0.40815 -4.497917,0.8337 -1.96897497,0.61617 -2.454828,0.90009 -3.902604,2.28053 -0.909505,0.8672 -1.653646,1.72079 -1.653646,1.89685 0,0.38943 -0.472073,1.30892 -1.216112,2.3687 -0.79376,1.1306 -1.95895,5.97282 -2.322951,9.65357 -0.226654,2.2919 -0.83752,5.63511 -1.619536,8.86354 -0.246744,1.01864 -0.537883,2.56761 -0.646975,3.44215 -0.2402197,1.92571 -0.8255767,4.40237 -1.1218827,4.7467 -0.118961,0.13825 -0.21845,0.49543 -0.221086,0.79375 -0.0026,0.29832 -0.344895,1.1592 -0.760575,1.91307 -0.467594,0.84802 -0.709023,1.61528 -0.633153,2.01217 0.244449,1.27875 -1.009784,4.14735 -2.554148,5.84169 -0.800743,0.8785 -1.028487,1.36721 -1.155206,2.47896 -0.146477,1.28508 0.314743,3.68321 0.853169,4.43609 0.10407,0.14552 0.404989,0.97896 0.668709,1.85208 0.263721,0.87313 0.579186,1.85231 0.701035,2.17597 0.401103,1.06541 0.54453,5.97512 0.241739,8.27508 -0.826965,6.28153 -0.909231,7.90633 -0.449158,8.87111 0.240893,0.50516 0.330588,0.91847 0.199324,0.91847 -0.619209,0 -1.113394,-0.39635 -1.493857,-1.19812 -0.45453,-0.95785 -0.431827,-2.4042 0.137636,-8.76869 0.311817,-3.48496 0.15164,-6.35821 -0.498992,-8.9509 -0.146073,-0.58208 -0.417843,-1.71318 -0.603933,-2.51354 -0.18609,-0.80036 -0.44621,-1.62344 -0.578045,-1.82906 -0.131834,-0.20562 -0.235386,-1.09859 -0.230115,-1.98437 0.0099,-1.6564 -0.13428,-1.54881 -0.6781,0.50614 -0.721268,2.72547 -1.170863,4.27721 -1.379873,4.7625 -0.125349,0.29104 -0.421757,1.18401 -0.658686,1.98437 -0.236928,0.80037 -0.521374,1.69334 -0.632103,1.98438 -0.654935,1.72145 -0.893103,2.50719 -1.082674,3.57187 -0.33771,1.89667 -0.865887,3.63321 -1.569245,5.15938 -0.504797,1.09532 -1.413249,5.11738 -1.698348,7.51922 -0.202175,1.70325 -0.413659,2.53121 -0.668091,2.61558 -0.312374,0.10359 -0.347615,-0.43106 -0.219012,-3.32268 z M 0.84500973,224.10186 C 1.5620957,223.6813 2.3956837,223.56281 5.3966297,223.45489 l 3.673762,-0.13212 -0.781308,-1.13559 c -0.429719,-0.62457 -0.781307,-1.25893 -0.781307,-1.40967 0,-0.28876 -0.83202,-2.18239 -1.058334,-2.4087 -0.07276,-0.0728 -0.366595,-0.60855 -0.652966,-1.19063 -0.286371,-0.58208 -0.792387,-1.47292 -1.124479,-1.97965 -0.332093,-0.50672 -0.603805,-1.1318 -0.603805,-1.38906 0,-0.25726 -0.119062,-0.46775 -0.264583,-0.46775 -0.145521,0 -0.264583,-0.35718 -0.264583,-0.79375 0,-0.43656 -0.0893,-0.7919 -0.198438,-0.78963 -0.301268,0.006 -1.340753,2.3842 -1.51041,3.45526 -0.0824,0.5202 -0.386464,1.19983 -0.675695,1.51029 -0.28923097,0.31045 -0.52587397,0.6355 -0.52587397,0.72233 0,0.0868 -0.239608,0.68384 -0.532462,1.3267 -0.292854,0.64285 -0.595289,1.91624 -0.672078,2.82975 -0.07679,0.91351 -0.185738,2.04083 -0.242111,2.50516 -0.114462,0.94279 0.04631,0.94222 1.663051,-0.006 z m -24.65345373,5.72503 c -0.469141,-0.46914 -0.04613,-2.98917 0.783316,-4.6665 0.203723,-0.41198 0.370405,-0.95923 0.370405,-1.21613 0,-0.93899 1.490685,-3.1942 2.111359,-3.1942 0.493279,0 0.510742,0.48817 0.03911,1.09338 -0.737559,0.94646 -1.356723,2.25432 -1.356723,2.86582 0,0.30024 -0.104447,0.75264 -0.232104,1.00532 -0.283304,0.56078 -0.722121,2.01335 -0.957161,3.16838 -0.180128,0.88519 -0.463796,1.23834 -0.758206,0.94393 z m 14.9441437,-12.84715 c -0.682023,-1.79969 -1.9149287,-3.91668 -2.8891877,-4.96093 -0.824813,-0.88408 -1.427016,-2.05468 -1.326069,-2.5777 0.06438,-0.33358 0.236653,-0.25829 0.797418,0.34849 1.566624,1.6952 2.3191617,2.6397 2.3231897,2.9158 0.0023,0.15935 0.247908,0.51025 0.545741,0.77979 1.292351,1.16956 2.361681,5.1482 1.383671,5.1482 -0.114449,0 -0.490092,-0.74414 -0.834763,-1.65365 z m 3.051392,-7.8052 c -0.126563,-4.18462 -0.422216,-6.75669 -0.874375,-7.60678 -1.028872,-1.93433 -1.184061,-2.30386 -1.031571,-2.45635 0.362167,-0.36217 1.107204,0.46697 1.963905,2.18558 0.886965,1.77933 0.893336,1.81879 1.030333,6.38147 0.135577,4.51536 0.01264,5.39868 -0.751329,5.39868 -0.120411,0 -0.272044,-1.75617 -0.336963,-3.9026 z m 17.6190533,-0.26459 c -0.18391,-0.54922 -0.128181,-0.93375 0.227312,-1.56844 0.672179,-1.2001 1.06161,-4.54077 1.003731,-8.61035 -0.02748,-1.93237 0.04421,-3.98965 0.159323,-4.57173 0.201331,-1.01808 1.384439,-3.82801 1.726726,-4.10104 0.342518,-0.27322 1.051206,-2.91735 1.051206,-3.92208 0,-0.57448 -0.17786,-1.38555 -0.395245,-1.80236 -0.217384,-0.41682 -0.395978,-0.9424 -0.396875,-1.16796 -8.96e-4,-0.22555 -0.13413,-0.5426 -0.296076,-0.70455 -0.161945,-0.16194 -0.210877,-0.42966 -0.108736,-0.59493 0.297671,-0.48164 0.912138,0.19451 1.657366,1.82375 0.581488,1.27126 0.648392,1.70744 0.528985,3.44871 -0.123673,1.80347 -0.263753,2.20764 -1.470322,4.24234 -0.733493,1.23692 -1.504618,2.44126 -1.71361,2.67631 -0.28238,0.31758 -0.308842,0.55448 -0.103021,0.92226 0.15233,0.2722 0.250519,0.94309 0.218198,1.49087 -0.07462,1.26458 0.282276,1.26585 1.060449,0.004 1.581615,-2.56511 3.929304,-4.81106 3.929304,-3.75902 0,0.2534 -1.992784,3.12366 -2.380214,3.42829 -0.09254,0.0728 -0.553067,0.69784 -1.023396,1.38906 -0.47033,0.69122 -0.968487,1.25677 -1.107017,1.25677 -0.141058,0 -0.259347,1.13497 -0.26886,2.57969 -0.01922,2.91791 -0.423341,5.18034 -1.112826,6.22998 -0.301345,0.45875 -0.409051,0.94928 -0.302046,1.37562 0.237239,0.94524 -0.565835,0.88623 -0.884356,-0.065 z m 2.454544,-27.87526 c -0.261331,-0.67042 -0.03706,-3.75637 0.280608,-3.86109 0.29921,-0.0986 0.90398,1.57473 0.90398,2.50128 0,0.29442 -0.22928,0.81638 -0.50951,1.15993 -0.433483,0.53142 -0.534216,0.56124 -0.675078,0.19988 z"
       id="path7" /></g></svg>
