<?xml version="1.0" encoding="UTF-8" standalone="no"?>
<!-- Created with Inkscape (http://www.inkscape.org/) -->

<svg
   width="173.19414mm"
   height="135.58527mm"
   viewBox="0 0 173.19414 135.58527"
   version="1.1"
   id="svg1"
   xml:space="preserve"
   xmlns="http://www.w3.org/2000/svg"
   xmlns:svg="http://www.w3.org/2000/svg"><defs
     id="defs1" /><g
     id="layer1"
     transform="translate(-214.67779,-27.965038)"><path
       style="fill:#4d4d4d"
       d="m 264.88488,163.39473 c -0.58208,-0.13113 -1.6547,-0.17323 -2.3836,-0.0936 -1.23645,0.13515 -1.37525,0.0888 -2.07127,-0.6924 -0.4103,-0.4605 -1.09385,-0.95853 -1.519,-1.10673 -0.57761,-0.20136 -0.78076,-0.44684 -0.80369,-0.97119 -0.0196,-0.44813 -0.0744,-0.53439 -0.15169,-0.23871 -0.17997,0.68866 -1.01142,0.55998 -1.36265,-0.21088 -0.54706,-1.20067 -0.38227,-1.61371 0.88069,-2.20737 0.65326,-0.30707 1.29352,-0.55831 1.42281,-0.55831 0.12929,0 0.38329,-0.17859 0.56445,-0.39687 0.18115,-0.21828 0.49847,-0.39688 0.70515,-0.39688 0.20668,0 1.03942,-0.50601 1.85055,-1.12448 1.79106,-1.36563 2.95763,-2.01779 3.662,-2.04719 0.29105,-0.0121 0.82683,-0.19223 1.19063,-0.4002 0.3638,-0.20797 0.95911,-0.39194 1.32292,-0.40883 0.69162,-0.0321 1.59695,-0.51383 4.07983,-2.17086 0.81768,-0.5457 1.57941,-0.99219 1.69273,-0.99219 0.11331,0 1.33368,-0.74414 2.71192,-1.65364 2.41796,-1.59562 3.33846,-2.11624 4.2459,-2.40138 0.54379,-0.17088 2.43896,-2.46748 2.26658,-2.74669 -0.0712,-0.11536 -2.19475,-0.0937 -4.71896,0.0481 -2.5242,0.14183 -12.59644,0.2609 -22.38274,0.26459 l -17.79328,0.007 5e-5,2.15451 c 4e-5,1.72058 -0.0842,2.18685 -0.41847,2.3151 -0.23018,0.0883 -2.23966,0.1606 -4.46552,0.1606 -2.92209,0 -4.11951,-0.0919 -4.30786,-0.33073 -0.25237,-0.31997 -0.38817,-0.98637 -0.86634,-4.25153 -0.14363,-0.98074 -0.47191,-1.86267 -0.90445,-2.42974 -0.37344,-0.48961 -0.67898,-0.99645 -0.67898,-1.12631 0,-0.12986 -0.30848,-0.52476 -0.68551,-0.87755 -0.37703,-0.35279 -1.11724,-1.23675 -1.64491,-1.96435 -0.52768,-0.7276 -1.03184,-1.38245 -1.12036,-1.45521 -0.0885,-0.0728 -0.38601,-0.51924 -0.66109,-0.99219 -0.27507,-0.47294 -0.59353,-0.85989 -0.70767,-0.85989 -0.11415,0 -0.20754,-0.15557 -0.20754,-0.3457 0,-0.19014 -0.55191,-0.93428 -1.22646,-1.65365 -0.67455,-0.71937 -1.39384,-1.72466 -1.59843,-2.23399 -0.71374,-1.7771 -1.27744,-2.90459 -1.45357,-2.90761 -0.0976,-0.002 -0.26202,-0.38824 -0.36543,-0.85905 -0.1034,-0.47081 -0.36768,-1.13023 -0.58729,-1.46539 -1.09332,-1.66862 -1.69693,-6.11058 -1.71593,-12.62755 -0.0175,-6.02094 0.34034,-8.94461 1.48987,-12.170828 0.1037,-0.29105 0.66357,-1.48167 1.24416,-2.64584 0.58058,-1.16416 1.05166,-2.26549 1.04684,-2.44739 -0.005,-0.18191 0.1103,-0.33073 0.25582,-0.33073 0.14552,0 0.26459,-0.12701 0.26459,-0.28224 0,-0.87488 5.94743,-7.39068 6.74599,-7.39068 0.21877,0 0.39776,-0.11361 0.39776,-0.25246 0,-0.13886 0.5529,-0.67464 1.22867,-1.19063 0.67577,-0.51599 1.09249,-0.93816 0.92604,-0.93816 -0.16645,0 -0.30263,-0.17859 -0.30263,-0.39688 0,-0.21828 -0.1233,-0.39687 -0.27399,-0.39687 -0.15069,0 -0.50739,-0.54452 -0.79267,-1.21004 -0.449,-1.04748 -0.47793,-1.3719 -0.21532,-2.4148 0.24165,-0.95968 0.53745,-1.36975 1.45413,-2.01589 0.63292,-0.44612 1.15077,-0.90264 1.15077,-1.01448 0,-0.11184 0.26057,-0.44611 0.57905,-0.74282 0.47451,-0.44207 0.93232,-0.53947 2.53559,-0.53947 1.44693,0 1.92817,0.0861 1.84762,0.33073 -0.0599,0.1819 -0.39725,0.3633 -0.74966,0.4031 -1.81145,0.20462 -2.89338,0.67418 -3.26367,1.41644 -0.36325,0.72815 -0.35503,0.75438 0.19585,0.62517 0.31625,-0.0742 0.74887,-0.0219 0.96136,0.11619 0.33615,0.21844 0.33204,0.31333 -0.0316,0.73024 -0.22989,0.26354 -0.36739,0.618 -0.30557,0.78768 0.0618,0.16968 -0.10253,0.36423 -0.36525,0.43233 -0.38682,0.10027 -0.36741,0.12966 0.10204,0.15451 0.31883,0.0169 0.65328,-0.0884 0.74321,-0.23389 0.0899,-0.14552 0.35362,-0.26458 0.58596,-0.26458 0.23234,0 0.82132,-0.30425 1.30886,-0.67611 1.0623,-0.81027 1.41248,-0.66575 1.41248,0.58295 v 0.93395 l 0.81405,-0.68498 c 0.44772,-0.37674 1.01327,-0.6868 1.25677,-0.68903 0.37072,-0.003 0.38042,-0.0435 0.0596,-0.24641 -0.51952,-0.32867 0.77328,-0.65929 1.77552,-0.45406 4.45676,0.91258 5.02191,1.07088 6.8594,1.9213 1.53219,0.70913 2.24592,0.84078 1.72294,0.3178 -0.37674,-0.37674 -0.42163,-1.43899 -0.07,-1.65631 0.13613,-0.0841 0.54744,0.14696 0.91402,0.51355 0.36658,0.36658 0.77641,0.66651 0.91073,0.66651 0.49534,0 0.84276,0.68333 0.51438,1.01171 -0.23855,0.23856 0.18404,0.31121 1.81012,0.31121 1.34993,0 2.83643,0.20136 4.08782,0.55374 1.08156,0.30456 2.8327,0.6524 3.89143,0.77298 1.05872,0.12058 2.69096,0.46671 3.62719,0.76917 1.94845,0.62948 6.00351,0.75881 7.44529,0.23745 1.2171,-0.44011 3.49418,0.35858 5.22831,1.83385 1.38498,1.17823 1.72505,1.30847 2.19345,0.84007 0.20282,-0.20281 0.92009,0.003 2.50032,0.71805 1.21875,0.55135 2.28037,1.09267 2.35916,1.20293 0.0788,0.11026 1.06371,0.65762 2.18869,1.21636 2.12441,1.05511 2.30883,1.3804 0.78257,1.3804 -0.8821,0 -3.82333,-1.20145 -3.99646,-1.6325 -0.0485,-0.12077 -0.23713,-0.21958 -0.41916,-0.21958 -0.18203,0 -1.01329,-0.47798 -1.84726,-1.06217 l -1.51629,-1.06217 0.47114,0.79758 c 0.25913,0.43868 0.56454,0.79759 0.67869,0.79759 0.11414,0 0.20753,0.13056 0.20753,0.29013 0,0.15957 0.47625,0.83118 1.05834,1.49246 0.58208,0.66128 1.05833,1.36416 1.05833,1.56195 0,0.1978 0.0893,0.36056 0.19844,0.36169 0.53463,0.006 1.65364,3.59375 1.65364,5.30251 0,0.75549 0.11069,1.04543 0.39912,1.04543 0.32345,0 0.34061,-0.0937 0.0905,-0.49412 -0.49007,-0.78472 -0.10843,-1.26571 1.14066,-1.4376 1.30464,-0.17954 2.8676,-0.88304 2.8676,-1.29073 0,-0.1503 -0.29765,-0.50741 -0.66145,-0.79357 -0.7725,-0.60765 -0.87317,-1.6729 -0.19252,-2.03717 0.30059,-0.16087 0.90998,-0.15004 1.69748,0.0302 0.91081,0.20842 1.59355,0.19606 2.63991,-0.0478 2.90371,-0.67671 3.78309,-0.65399 5.23308,0.1352 0.73572,0.40043 1.33767,0.82819 1.33767,0.95058 0,0.1224 0.16402,0.22254 0.36448,0.22254 0.20046,0 0.51907,0.18627 0.70802,0.41393 0.2781,0.3351 0.80083,0.39441 2.74437,0.31141 2.41531,-0.10314 6.78485,-0.71174 7.03105,-0.9793 0.99796,-1.08451 6.05562,-1.74663 10.18646,-1.33354 l 1.32292,0.13229 0.0833,-1.1644 c 0.0538,-0.75246 -0.0398,-1.24245 -0.26458,-1.38502 -0.19134,-0.12133 -3.2764,-0.22243 -6.85568,-0.22466 -7.12717,-0.004 -6.82123,0.0516 -9.68524,-1.77303 -0.757,-0.48227 -1.45004,-0.87685 -1.54009,-0.87685 -0.30019,0 -3.56597,-2.42434 -3.89911,-2.89449 -0.22631,-0.31938 -0.82586,-0.50775 -1.93121,-0.60675 -2.81379,-0.252 -4.95133,-1.64478 -6.03764,-3.93402 -0.38927,-0.82033 -1.93468,-1.82516 -2.80707,-1.82516 -0.1417,0 -0.9396,-0.43625 -1.77312,-0.96945 -1.45958,-0.93368 -1.59646,-0.96756 -3.70998,-0.91824 -1.76071,0.0411 -2.43748,0.18042 -3.42384,0.70487 -1.30799,0.69546 -2.19685,0.82444 -2.63845,0.38283 -0.36599,-0.36598 -4.05148,-0.38104 -4.41448,-0.018 -0.15888,0.15888 -0.56433,0.28887 -0.901,0.28887 -0.33667,0 -0.81888,0.10154 -1.07156,0.22565 -2.30047,1.12989 -2.45267,1.17006 -3.82563,1.00979 -9.46593,-1.10499 -11.44892,-1.4141 -13.03797,-2.03238 -1.09111,-0.42453 -2.52831,-0.56904 -8.20209,-0.82467 -3.78354,-0.17047 -7.50424,-0.30292 -8.26822,-0.29432 -1.60198,0.018 -1.80528,-0.35882 -0.5722,-1.06064 0.88795,-0.50538 2.09355,-0.61965 2.09355,-0.19843 0,0.15623 0.94808,0.26458 2.3151,0.26457 2.31196,-1e-5 2.31608,-10e-4 3.02697,-0.89217 0.61217,-0.76723 0.88,-0.89554 1.91262,-0.91626 0.66043,-0.0133 1.47119,-0.20104 1.80169,-0.41729 0.73175,-0.4788 3.55522,-0.19214 3.92943,0.39894 0.12939,0.20437 0.23708,0.8776 0.23931,1.49606 0.004,1.04789 0.0536,1.12488 0.73165,1.13036 0.40018,0.003 1.02526,0.23872 1.38906,0.52329 0.869,0.67973 1.61363,0.71107 0.83424,0.0351 -1.02627,-0.89008 -0.6104,-3.31435 0.73089,-4.26071 0.30335,-0.21403 0.55154,-0.54145 0.55154,-0.7276 0,-0.18616 0.11597,-0.33847 0.25771,-0.33847 0.14673,0 0.2518,-0.90417 0.24399,-2.09953 -0.0115,-1.76705 0.0793,-2.22531 0.57355,-2.89385 0.323,-0.43688 0.91167,-0.9287 1.30814,-1.09292 0.39648,-0.16423 0.87176,-0.58055 1.05619,-0.92516 0.18443,-0.34461 0.70637,-0.76344 1.15985,-0.93073 2.16939,-0.8003 3.99817,-1.78497 4.95402,-2.66741 0.98571,-0.91 1.94885,-1.29665 3.22994,-1.29665 0.64814,0 3.88536,1.58075 3.88536,1.89724 0,0.12069 0.2311,0.21943 0.51355,0.21943 0.28246,0 0.57899,0.10587 0.65896,0.23527 0.08,0.1294 0.46247,0.31485 0.84998,0.41211 1.83296,0.46004 4.82338,3.20458 5.40201,4.95784 0.48763,1.47755 0.89022,1.80311 2.22976,1.80311 0.63238,0 1.7054,0.23816 2.38449,0.52926 1.32339,0.56727 3.0425,2.13966 3.0425,2.78284 0,0.21564 0.12308,0.39207 0.27351,0.39207 0.15043,0 0.51293,0.4058 0.80557,0.90178 0.5536,0.93829 0.96264,1.0848 4.75726,1.70397 0.66337,0.10824 1.61587,0.4361 2.11667,0.72858 0.75846,0.44297 0.91053,0.68397 0.91053,1.443 0,0.63357 -0.12092,0.91121 -0.39687,0.91121 -0.23963,0 -0.39688,-0.24513 -0.39688,-0.61867 0,-0.78863 -1.15979,-1.218 -3.9804,-1.47359 -2.26164,-0.20495 -4.21229,-0.97613 -4.66283,-1.84343 -0.36803,-0.70846 -1.17084,-1.48827 -1.53216,-1.48827 -0.15161,0 -0.27565,-0.11906 -0.27565,-0.26458 0,-0.14552 -0.21163,-0.26459 -0.47029,-0.26459 -0.569,0 -1.64638,-0.7176 -1.64638,-1.09659 0,-0.17021 0.42298,-0.21142 1.12448,-0.10955 l 1.12448,0.16329 -0.92604,-0.52582 c -0.5471,-0.31064 -1.43393,-0.53035 -2.1672,-0.5369 -0.68263,-0.006 -1.31474,-0.13016 -1.40467,-0.27568 -0.0899,-0.14552 -0.39836,-0.26458 -0.68538,-0.26458 -0.28702,0 -0.60018,-0.20836 -0.6959,-0.46302 -0.3106,-0.82629 -2.00028,-3.36708 -2.39523,-3.60173 -0.21133,-0.12556 -0.59,-0.42322 -0.84148,-0.66146 -0.25148,-0.23824 -1.04172,-0.73783 -1.75608,-1.1102 -2.68925,-1.4018 -4.20911,-2.23837 -4.33932,-2.38848 -0.45234,-0.52149 -1.99044,-0.75345 -3.01758,-0.45507 l -1.0857,0.31539 1.5875,0.17615 c 1.60634,0.17824 4.84865,1.5277 5.68854,2.36759 0.22885,0.22884 1.16752,0.78496 1.75924,1.04226 0.72114,0.31358 1.41576,1.29501 1.41576,2.00035 0,0.66066 1.03775,1.80128 2.76839,3.0428 1.65316,1.18595 1.64413,1.18077 3.05244,1.75169 0.65485,0.26546 1.25016,0.55224 1.32292,0.63728 0.0728,0.085 0.5044,0.30498 0.9592,0.48876 1.14719,0.46357 3.14465,2.64925 2.7666,3.0273 -0.20628,0.20629 -0.56908,0.0116 -1.28995,-0.69234 -0.55162,-0.53865 -1.09573,-0.97935 -1.20913,-0.97935 -0.1134,0 -0.38478,-0.1786 -0.60306,-0.39688 -0.21828,-0.21828 -0.61947,-0.39687 -0.89153,-0.39687 -0.27206,0 -0.56823,-0.11907 -0.65817,-0.26459 -0.0899,-0.14552 -0.3016,-0.26458 -0.47035,-0.26458 -0.16876,0 0.40008,0.71437 1.2641,1.5875 1.00667,1.01729 1.78774,1.5875 2.17453,1.5875 0.33198,0 0.60359,0.11906 0.60359,0.26458 0,0.14552 0.16895,0.26459 0.37544,0.26459 0.20649,0 0.7125,0.16688 1.12448,0.37084 0.41197,0.20397 1.20435,0.56343 1.76083,0.79882 l 1.01179,0.42797 -0.0858,-0.70959 c -0.10976,-0.90826 0.44203,-1.10594 0.86199,-0.30881 0.40163,0.76233 0.66299,0.9415 1.85571,1.27212 1.14498,0.31739 4.89718,0.4183 5.72936,0.15408 0.608,-0.19304 0.81724,-1.0433 0.33073,-1.34398 -0.5412,-0.33448 -0.23703,-0.66145 0.61534,-0.66145 1.59627,0 2.53395,1.73991 1.7386,3.22604 -0.20103,0.37562 -0.20601,0.59851 -0.016,0.71595 0.40594,0.25088 0.29095,1.91381 -0.18268,2.64173 -0.22566,0.34683 -0.76131,0.77819 -1.19033,0.95858 l -0.78002,0.32798 1.53837,0.98408 c 0.8461,0.54125 1.70596,1.15168 1.91081,1.35653 0.20484,0.20484 0.5383,0.37244 0.74103,0.37244 0.36576,0 2.57812,1.13769 3.25238,1.67252 0.19331,0.15333 1.09706,0.27878 2.00833,0.27878 1.35459,0 1.77317,-0.10887 2.29437,-0.59674 0.58411,-0.54678 3.7056,-2.14831 4.18718,-2.14831 0.52042,0 1.90892,-0.89143 2.19493,-1.40916 0.1877,-0.33979 0.32854,-1.76639 0.34409,-3.48563 0.0145,-1.60073 0.14836,-3.14854 0.29749,-3.43959 0.95529,-1.86434 1.15443,-2.34457 1.15443,-2.78395 0,-0.27066 -0.11588,-0.56372 -0.2575,-0.65125 -0.64872,-0.40093 -1.19628,-2.17852 -1.15707,-3.75627 0.0401,-1.61422 0.0315,-1.63496 -0.67268,-1.61494 -1.00925,0.0287 -1.77792,-0.45249 -2.18234,-1.36614 -0.19149,-0.4326 -0.58205,-0.82107 -0.86792,-0.86325 -0.3352,-0.0495 -0.59846,-0.38204 -0.7414,-0.93659 -0.1219,-0.47294 -0.31878,-0.8599 -0.4375,-0.8599 -0.11873,0 -0.54079,-0.2792 -0.93792,-0.62044 -0.69716,-0.59905 -0.71274,-0.66974 -0.45201,-2.05052 0.22898,-1.21261 0.20643,-1.47031 -0.14829,-1.69466 -1.19769,-0.75749 -1.93495,-1.56061 -1.93495,-2.10779 0,-0.33305 -0.16763,-0.74466 -0.37251,-0.91469 -0.20487,-0.17004 -0.572,-0.72956 -0.81583,-1.2434 -0.41277,-0.86985 -0.46804,-0.90092 -0.80195,-0.45085 -0.32976,0.44449 -0.39343,0.44912 -0.79113,0.0576 -1.02232,-1.00643 -1.08829,-4.63212 -0.10343,-5.68464 0.28521,-0.3048 0.45346,-0.72382 0.37389,-0.93117 -0.0868,-0.22616 0.38656,-0.90022 1.18315,-1.68483 0.73029,-0.71931 1.32781,-1.45834 1.32781,-1.64228 0,-0.42255 2.43317,-2.99275 2.83319,-2.99275 0.16374,0 0.3374,-0.0893 0.3859,-0.19843 0.18257,-0.41078 3.03064,-1.6621 3.79236,-1.6662 0.43657,-0.002 1.00842,-0.16705 1.27078,-0.366 0.40142,-0.30439 0.71779,-0.30557 1.99589,-0.007 1.53273,0.35756 3.74479,1.38113 3.74479,1.73279 0,0.10467 0.44649,0.1329 0.99219,0.0627 2.22566,-0.2862 4.04296,1.31559 4.21763,3.71747 0.0542,0.7454 0.2213,2.68414 0.37131,4.30833 0.19737,2.13682 0.1904,3.25891 -0.0252,4.05956 -0.26153,0.97124 -0.23929,1.15049 0.18191,1.4664 0.26392,0.19795 0.98588,0.43849 1.60434,0.53454 0.61846,0.0961 1.12448,0.27073 1.12448,0.38816 0,0.11744 0.38695,0.28996 0.8599,0.38338 1.31885,0.26051 2.3187,0.6907 3.82374,1.64517 0.757,0.48006 1.46014,0.87285 1.56253,0.87285 0.1024,0 0.5546,0.26789 1.0049,0.59531 0.4503,0.32742 1.26122,0.82028 1.80206,1.09523 0.88457,0.44971 2.16282,1.54152 4.98424,4.25726 0.51727,0.49789 1.11041,1.23856 1.31808,1.64592 0.20768,0.40736 0.77112,1.21371 1.2521,1.79189 0.48098,0.57818 0.94255,1.32232 1.0257,1.65365 0.0832,0.33132 0.25735,0.60241 0.3871,0.60241 0.12975,0 0.2359,0.16401 0.2359,0.36447 0,0.20047 0.16541,0.50176 0.36758,0.66954 0.35647,0.29585 0.44584,0.55602 0.96269,2.80244 1.28884,5.60186 1.5534,7.3761 1.85426,12.43542 0.16817,2.82812 0.15913,5.50681 -0.0273,8.06979 -0.25479,3.50369 -0.37824,4.60847 -0.91654,8.202088 l -0.17835,1.19062 5.25266,0.0291 c 2.88896,0.016 6.02657,0.13835 6.97245,0.27189 1.91642,0.27056 4.34958,1.33013 5.95313,2.59241 0.58208,0.45821 1.41552,1.00498 1.85208,1.21505 0.43656,0.21008 1.15094,0.74083 1.5875,1.17946 0.89538,0.89962 2.17739,1.76565 4.49792,3.03846 2.53684,1.39146 7.01145,6.32597 7.01145,7.73209 0,0.14615 0.19148,0.70045 0.4255,1.23176 0.23402,0.53132 0.60872,1.38275 0.83268,1.89207 0.22395,0.50933 0.50873,1.13279 0.63284,1.38548 0.12411,0.25268 0.22565,0.707 0.22565,1.00958 0,0.30258 0.12714,0.7877 0.28252,1.07805 1.00588,1.8795 1.18633,15.71783 0.26091,20.00867 -0.008,0.0364 -2.21692,0.0661 -4.90905,0.0661 h -4.8948 v -2.52285 c 0,-2.41458 -0.022,-2.51106 -0.51313,-2.24823 -0.85518,0.45768 -40.29655,0.34928 -47.04572,-0.1293 -1.57099,-0.1114 -2.07322,0.11281 -1.31657,0.58776 1.254,0.78713 1.6439,3.28147 0.71652,4.58385 -0.64063,0.89969 -2.09943,1.84544 -2.84653,1.84544 -0.31528,0 -1.45414,0.88052 -2.73767,2.11667 -1.2088,1.16416 -2.37118,2.11666 -2.58308,2.11666 -0.2119,0 -0.57324,0.16794 -0.80298,0.3732 -0.29715,0.26548 -1.21955,0.38332 -3.19584,0.40828 -4.42546,0.0559 -4.7625,0.0394 -4.7625,-0.23278 0,-0.14181 -0.71437,-0.33866 -1.5875,-0.43744 -0.87312,-0.0988 -1.5875,-0.2708 -1.5875,-0.38225 0,-0.11145 -0.2956,-0.48302 -0.65688,-0.82572 -0.43374,-0.41141 -0.65844,-0.9152 -0.66146,-1.48298 -0.004,-0.73112 0.09,-0.85989 0.62664,-0.85989 0.34717,0 0.97225,-0.17786 1.38906,-0.39525 0.41682,-0.21738 1.00968,-0.39597 1.31748,-0.39687 0.3078,-9e-4 0.84358,-0.21916 1.19063,-0.48504 0.34704,-0.26587 1.17397,-0.74182 1.83762,-1.05766 0.66364,-0.31584 1.54912,-0.93174 1.96773,-1.36868 0.4186,-0.43693 0.87828,-0.79442 1.0215,-0.79442 0.14321,0 0.48304,-0.2015 0.75517,-0.44777 0.47811,-0.43268 0.45594,-0.48394 -0.658,-1.52135 l -1.15278,-1.07359 -8.84616,0.0204 -8.84618,0.0204 -1.30857,0.83949 c -0.71971,0.46172 -1.45414,0.8395 -1.63205,0.8395 -0.17792,0 -0.81917,0.47625 -1.425,1.05833 -0.60583,0.58208 -1.2527,1.05833 -1.43748,1.05833 -0.18478,0 -1.03827,0.6951 -1.89664,1.54466 -0.85837,0.84957 -2.01607,1.76033 -2.57268,2.02393 -0.5566,0.26359 -1.20634,0.77587 -1.44388,1.1384 -0.23754,0.36252 -0.79417,0.88006 -1.23696,1.15009 -0.44279,0.27002 -0.65624,0.49139 -0.47434,0.49193 0.23733,7.1e-4 0.33073,0.60731 0.33073,2.148 0,1.79789 -0.10891,2.34643 -0.66979,3.37344 -1.0012,1.83329 -2.08824,2.42775 -4.42694,2.42093 -1.0531,-0.003 -2.21239,-0.0211 -2.57619,-0.0401 -1.19254,-0.0622 -3.28598,0.3421 -4.42889,0.8554 -0.61687,0.27705 -1.18242,0.50373 -1.25677,0.50373 -0.0743,0 -0.36702,0.23184 -0.65038,0.51521 -0.93218,0.93217 -4.49503,1.51683 -6.49625,1.06602 z m -2.25519,-2.1679 c 0.40521,-0.25307 0.77382,-0.25307 1.71999,0 0.66234,0.17715 1.61341,0.32209 2.11348,0.32209 1.23392,0 3.58887,-0.52346 4.23999,-0.94247 0.73375,-0.47218 3.50573,-0.93581 6.2084,-1.0384 2.50983,-0.0953 4.10841,-0.33496 4.90667,-0.73567 0.67284,-0.33776 1.45521,-1.1473 1.45521,-1.50573 0,-0.15161 0.1,-0.27565 0.22223,-0.27565 0.39106,0 0.87784,-1.945 0.78938,-3.15409 l -0.0856,-1.16972 -0.60714,1.22239 c -0.61391,1.23601 -1.71599,2.04309 -2.78989,2.04309 -0.74236,0 -1.76234,-1.02206 -1.76234,-1.76592 0,-0.76641 0.19538,-0.77258 0.98464,-0.0311 0.61704,0.57968 0.62898,0.58038 1.5384,0.0906 0.5041,-0.27147 0.91654,-0.65343 0.91654,-0.8488 0,-0.19537 0.092,-0.35521 0.20442,-0.35521 0.11243,0 0.43272,-0.42395 0.71177,-0.9421 0.40926,-0.75996 0.622,-0.91332 1.10038,-0.79326 0.46996,0.11796 0.79557,-0.0983 1.56906,-1.04227 0.53682,-0.65512 1.11052,-1.19124 1.27489,-1.1914 0.35092,-3.2e-4 3.07698,-2.56056 3.07698,-2.88981 0,-0.12354 0.38695,-0.41024 0.8599,-0.6371 0.91365,-0.43828 2.84427,-2.19522 2.84427,-2.5884 0,-0.12893 0.11964,-0.23441 0.26588,-0.23441 0.14623,0 0.88289,-0.29766 1.63702,-0.66146 0.75412,-0.3638 1.52744,-0.66146 1.71849,-0.66146 0.19105,0 0.34736,-0.11104 0.34736,-0.24675 0,-0.13572 0.20836,-0.313 0.46302,-0.39397 0.25466,-0.081 0.93927,-0.57099 1.52135,-1.08895 0.58209,-0.51795 1.47506,-1.25639 1.98438,-1.64097 1.41152,-1.06582 2.64584,-2.25873 2.64584,-2.55708 0,-0.14722 0.40491,-0.68941 0.8998,-1.20487 1.30823,-1.3626 3.06895,-4.76795 3.06895,-5.93556 0,-0.52907 0.10791,-1.16869 0.23981,-1.42138 0.1319,-0.25268 0.37473,-0.96519 0.53962,-1.58333 0.51939,-1.94714 1.67889,-2.55878 5.69409,-3.00369 3.54689,-0.39302 7.8426,-1.20157 8.47543,-1.59527 0.14553,-0.0905 1.15756,-0.38773 2.24896,-0.66045 1.09141,-0.27272 2.02407,-0.58515 2.07257,-0.69429 0.0485,-0.10914 0.76288,-0.20266 1.5875,-0.20781 0.82462,-0.005 1.79696,-0.17954 2.16077,-0.3875 0.3638,-0.20797 0.98185,-0.38235 1.37344,-0.3875 0.3916,-0.005 0.78558,-0.12844 0.87551,-0.27396 0.0899,-0.14552 0.44713,-0.26459 0.79375,-0.26459 0.34663,0 0.69816,-0.1099 0.78117,-0.24422 0.083,-0.13433 0.53653,-0.32856 1.00781,-0.43164 0.47127,-0.10307 1.47431,-0.46942 2.22897,-0.8141 0.75466,-0.34469 1.56616,-0.6267 1.80333,-0.6267 0.5313,0 1.41398,-0.45486 2.11623,-1.09052 1.11827,-1.01225 3.17387,-2.61365 3.35495,-2.61365 0.10431,0 0.51083,-0.29766 0.90338,-0.66146 0.39255,-0.3638 0.8626,-0.66146 1.04456,-0.66146 0.18196,0 0.70035,-0.42086 1.15199,-0.93524 0.80721,-0.91936 0.82116,-0.98255 0.82116,-3.7193 0,-1.53123 0.1083,-3.28326 0.24068,-3.8934 0.37932,-1.74835 0.81191,-4.354358 1.12843,-6.797888 0.71079,-5.48719 0.69061,-6.91889 -0.17893,-12.7 -0.22983,-1.52797 -0.48796,-3.34616 -0.57363,-4.04041 -0.0857,-0.69426 -0.25945,-1.32637 -0.38616,-1.40468 -0.12672,-0.0783 -0.23039,-0.53087 -0.23039,-1.00568 0,-1.40143 -0.77834,-3.28622 -2.46716,-5.97435 -2.16234,-3.44185 -2.69653,-4.13666 -4.5389,-5.90365 -1.6235,-1.55707 -4.86474,-3.89623 -5.3988,-3.89623 -0.16233,0 -0.29514,-0.11906 -0.29514,-0.26458 0,-0.14553 -0.15921,-0.26459 -0.35381,-0.26459 -0.19459,0 -0.99826,-0.44998 -1.78593,-0.99996 -1.684,-1.17582 -2.22214,-1.42939 -4.34256,-2.04617 -0.87312,-0.25398 -1.8975,-0.62144 -2.2764,-0.81659 -0.62048,-0.31957 -0.74336,-0.29646 -1.23716,0.2326 -0.30154,0.32308 -0.63397,0.9446 -0.73874,1.38116 -0.32787,1.36623 -1.1375,2.28917 -1.92783,2.19763 -0.6032,-0.0699 -0.70133,-0.20792 -0.71582,-1.007 -0.0682,-3.7605 -0.1338,-4.36183 -0.42196,-3.86565 -0.17601,0.30307 -0.22744,1.10204 -0.13059,2.02868 0.15739,1.50584 0.14534,1.54138 -0.80596,2.37664 -0.8889,0.78046 -0.99226,0.81168 -1.29889,0.39234 -0.18323,-0.25058 -0.48267,-1.03904 -0.66543,-1.75214 -0.18276,-0.71309 -0.42885,-1.29654 -0.54686,-1.29654 -0.11801,0 -0.21456,-0.31039 -0.21456,-0.68976 0,-0.56145 -0.0861,-0.65026 -0.46302,-0.47736 -0.95238,0.4369 -2.19596,0.2215 -2.86081,-0.49552 -0.35471,-0.38253 -0.64492,-0.83365 -0.64492,-1.00249 0,-0.2075 -0.23577,-0.24146 -0.72761,-0.1048 -0.40018,0.11119 -1.55863,0.21437 -2.57433,0.22928 -1.70016,0.025 -1.87082,0.0796 -2.15024,0.68857 -0.16693,0.3638 -0.36799,1.09424 -0.4468,1.62319 -0.13521,0.90753 -0.0868,0.98721 0.85898,1.41369 0.92329,0.41635 1.06649,0.41875 1.81737,0.0305 0.4483,-0.23183 0.9996,-0.42151 1.22511,-0.42151 0.22551,0 0.41002,-0.11906 0.41002,-0.26458 0,-0.14552 0.60404,-0.26458 1.34231,-0.26458 1.13553,0 1.32876,0.0713 1.25433,0.46302 -0.0541,0.28484 -0.59612,0.63803 -1.40847,0.91783 l -1.32047,0.45481 1.19063,-0.0579 c 1.38456,-0.0674 1.63339,0.467 0.51083,1.09707 -0.79869,0.4483 -2.09833,0.22142 -2.09833,-0.3663 0,-0.25161 -0.2604,-0.39104 -0.7276,-0.38962 -0.70474,0.002 -0.7297,0.0518 -0.79419,1.58097 l -0.0666,1.57876 0.79419,-0.15884 c 0.82892,-0.16578 1.09989,0.28952 0.51838,0.87102 -0.19134,0.19134 -0.15083,0.37951 0.13229,0.61448 0.22445,0.18628 0.40809,0.49442 0.40809,0.68476 0,0.19034 0.26789,0.38412 0.59532,0.43063 0.37563,0.0533 0.62558,0.29713 0.67734,0.66064 0.0451,0.31686 0.25428,0.71906 0.46481,0.89378 0.60916,0.50556 2.59116,-0.18788 3.89079,-1.36127 2.32578,-2.09987 4.63051,-3.91686 4.77941,-3.76795 0.23069,0.23068 -0.47296,1.45407 -1.25838,2.18784 l -0.69057,0.64517 1.06231,0.487 c 0.58427,0.26785 1.06231,0.62106 1.06231,0.78491 0,0.16978 0.20809,0.10958 0.48385,-0.13999 0.26612,-0.24083 0.60942,-0.43788 0.76289,-0.43788 0.39877,0 0.59757,-0.94089 0.60173,-2.84786 0.002,-0.91148 0.11487,-1.86398 0.25086,-2.11667 0.13599,-0.25268 0.40318,-0.84638 0.59376,-1.31932 0.19057,-0.47294 0.4451,-0.8599 0.56561,-0.8599 0.12051,0 0.13789,1.39899 0.0386,3.10886 l -0.18048,3.10885 -1.55843,1.4102 c -0.85713,0.77561 -1.55842,1.58164 -1.55842,1.79119 0,0.20955 -0.32263,0.88465 -0.71695,1.50022 -0.65247,1.01856 -0.71284,1.32738 -0.67116,3.43361 0.0252,1.27291 0.17117,2.54864 0.32441,2.83496 0.15323,0.28632 0.29919,1.38798 0.32434,2.44812 0.0454,1.91394 -0.16635,2.65294 -1.52519,5.32241 -0.20971,0.41198 -0.38129,0.91961 -0.38129,1.12807 0,0.20847 -0.11047,0.58577 -0.24549,0.83846 -0.28742,0.53787 -0.81284,3.86935 -0.81284,5.15383 0,0.48857 0.12565,1.01396 0.27923,1.16754 0.40412,0.40412 0.0167,1.64845 -0.64246,2.06331 -0.39746,0.25017 -1.64268,0.35781 -4.23849,0.36642 -2.21475,0.007 -3.7869,0.1234 -3.95552,0.29202 -0.15391,0.15392 -0.54407,0.27985 -0.86702,0.27985 -0.80806,0 -3.82282,0.74628 -4.45356,1.10244 -0.28399,0.16037 -2.10136,0.35206 -4.03859,0.42598 -2.93071,0.11183 -3.59937,0.066 -3.98156,-0.27312 -0.55901,-0.49597 -2.96401,-1.66524 -3.81205,-1.85334 -0.33881,-0.0752 -1.21134,-0.0468 -1.93894,0.063 -0.99063,0.14954 -1.11086,0.20858 -0.47864,0.23505 0.46436,0.0195 0.92609,0.16773 1.02609,0.32952 0.21008,0.33992 -0.33787,0.75421 -1.00534,0.76012 -0.25183,0.002 -1.10932,0.42077 -1.90552,0.93009 -0.7962,0.50932 -1.60218,0.92778 -1.79107,0.92989 -0.18889,0.002 -0.8765,0.18945 -1.52802,0.41628 -0.65152,0.22684 -1.52187,0.42202 -1.93411,0.43374 -0.52272,0.0149 -0.64464,0.092 -0.40292,0.25488 0.19064,0.12846 1.46773,0.19943 2.838,0.15772 2.64819,-0.0806 3.20744,0.17129 2.05567,0.92596 -0.34752,0.2277 -1.03652,0.46444 -1.53112,0.52609 -0.4946,0.0617 -0.16511,0.10028 0.73219,0.0858 1.69452,-0.0273 2.338,0.22182 1.66817,0.64571 -0.26438,0.167298 0.09,0.236588 1.10477,0.216018 0.99368,-0.0201 1.70008,0.11408 2.10939,0.40077 0.81986,0.57425 3.73394,0.59795 4.20183,0.0342 0.41606,-0.50132 1.94779,-0.5004 5.42396,0.003 3.00096,0.43479 9.65706,0.49261 11.64167,0.10113 0.72761,-0.14353 1.8587,-0.36603 2.51354,-0.49444 0.65485,-0.12842 1.96453,-0.429008 2.91042,-0.667978 0.94588,-0.23897 2.04867,-0.49935 2.45063,-0.57863 0.40197,-0.0793 0.79595,-0.24946 0.87551,-0.37821 0.0796,-0.12874 0.54048,-0.23407 1.02424,-0.23407 0.59639,0 0.93442,-0.14907 1.04995,-0.46302 0.0937,-0.25467 0.39953,-0.87974 0.67961,-1.38907 0.28007,-0.50932 0.51495,-1.151 0.52193,-1.42594 0.007,-0.27495 0.3699,-1.08041 0.80646,-1.78991 0.43657,-0.70951 0.79375,-1.36628 0.79375,-1.4595 0,-0.0932 0.27511,-0.53792 0.61136,-0.98821 0.79571,-1.06563 1.76989,-3.18435 1.76989,-3.84931 0,-0.54907 0.5931,-2.50204 1.16878,-3.84859 0.37366,-0.87402 0.72871,-1.89453 1.15064,-3.30729 0.15211,-0.50932 0.53317,-1.78069 0.8468,-2.82527 0.31363,-1.04457 0.74835,-2.04705 0.96604,-2.22771 0.3464,-0.2875 0.37272,-0.14954 0.21083,1.10548 -0.10173,0.78868 -0.29506,1.73053 -0.42962,2.093 -0.31227,0.84117 0.29395,1.35261 3.45436,2.9143 2.65874,1.31378 2.99262,1.44732 4.38604,1.75423 1.21609,0.26786 1.60769,0.89014 0.56015,0.89014 -1.43141,0 -4.74334,-0.85165 -5.7272,-1.47273 -0.56103,-0.35417 -1.11293,-0.64394 -1.22645,-0.64394 -0.11352,0 -0.52741,-0.29765 -0.91975,-0.66146 -0.39235,-0.3638 -0.75924,-0.66145 -0.81531,-0.66145 -0.0561,0 -0.24537,0.50601 -0.42064,1.12448 -0.17527,0.61846 -0.41556,1.3626 -0.53398,1.65364 -0.11842,0.29104 -0.43578,1.24354 -0.70523,2.11667 -0.26946,0.87312 -0.56135,1.64703 -0.64865,1.71979 -0.0873,0.0728 -0.37383,0.93908 -0.63673,1.92516 -0.51807,1.94311 -0.5112,6.42218 0.0109,7.10945 0.48225,0.63481 0.97115,2.5447 0.81411,3.1803 -0.42949,1.738238 -0.61256,2.256608 -0.97592,2.763288 -0.39445,0.55004 -1.84429,1.42597 -2.36027,1.42597 -0.14843,0 -0.95802,0.30444 -1.79908,0.67654 -2.37072,1.04884 -2.48719,1.09316 -4.17503,1.58857 -0.87312,0.25628 -1.76609,0.54833 -1.98437,0.64899 -0.38863,0.17923 -1.45797,0.64287 -3.04271,1.31923 -1.92094,0.81985 -2.67567,1.15085 -3.10526,1.36185 -0.25269,0.12411 -0.69236,0.22565 -0.97705,0.22565 -0.28468,0 -2.04247,0.76389 -3.90619,1.69752 -1.86372,0.93364 -3.78317,1.85637 -4.26544,2.05052 -0.70996,0.28581 -1.07795,0.75588 -1.93335,2.46967 -0.58107,1.16417 -1.19852,2.34783 -1.3721,2.63037 -1.44869,2.35798 -2.01431,3.35236 -2.49205,4.38109 -0.3041,0.65484 -0.92108,1.59902 -1.37105,2.09817 -0.44998,0.49915 -0.81814,1.11464 -0.81814,1.36774 0,0.4048 -2.45514,3.402 -2.97656,3.63374 -0.10914,0.0485 -0.19844,0.22832 -0.19844,0.39958 0,0.17126 -0.26789,0.61119 -0.59531,0.97761 -0.32742,0.36643 -0.82279,1.07078 -1.10081,1.56524 -0.55725,0.99104 -1.04213,1.63602 -1.94443,2.58646 -0.32882,0.34636 -0.76095,1.01014 -0.96029,1.47508 -0.19935,0.46493 -1.15071,1.66627 -2.11414,2.66962 -0.96343,1.00336 -1.75168,1.9328 -1.75168,2.06541 0,0.35316 -5.01614,5.23829 -5.37976,5.23925 -0.45597,0.001 -3.96963,1.80396 -4.27754,2.19468 -0.25019,0.31749 -3.52,2.567 -3.73129,2.567 -0.11837,0 -1.05635,0.75939 -1.65897,1.3431 -0.45693,0.44259 -1.51592,0.88446 -2.79568,1.16653 -0.42769,0.0943 -1.10091,0.4016 -1.49605,0.68296 -0.39515,0.28137 -0.81913,0.51224 -0.94218,0.51305 -0.791,0.005 -2.27728,0.6518 -3.03641,1.32093 -0.49033,0.4322 -0.9808,0.78771 -1.08994,0.79004 -0.30512,0.007 -0.23516,1.00863 0.0842,1.206 0.15544,0.0961 0.21871,0.34122 0.1406,0.54478 -0.0936,0.24383 0.0453,0.37011 0.40714,0.37011 0.37945,0 0.50211,0.12266 0.39688,0.39688 -0.0838,0.21828 -0.037,0.39687 0.10398,0.39687 0.14095,0 0.25628,0.23813 0.25628,0.52917 0,0.35886 -0.17639,0.52917 -0.54807,0.52917 -0.30143,0 -0.72665,0.17859 -0.94494,0.39687 -0.47951,0.47951 -0.2764,0.51497 0.42844,0.0748 z m 44.05937,-41.64146 c -1.36246,-0.49778 -2.20982,-1.30852 -1.79803,-1.72031 0.22103,-0.22103 0.5195,-0.1876 1.15484,0.12935 0.99675,0.49725 3.06451,0.57181 3.21644,0.11599 0.10868,-0.32603 0.73404,-0.0781 0.73404,0.29097 0,0.39454 -1.39127,1.60813 -1.82202,1.58932 -0.23482,-0.0103 -0.90319,-0.19265 -1.48527,-0.40532 z m 26.26203,-17.9845 c -0.3939,-0.3939 1.14729,-3.884298 2.10843,-4.775048 0.7855,-0.72798 2.28918,-0.83651 3.09938,-0.2237 0.28248,0.21365 0.7062,0.38846 0.94162,0.38846 0.55872,0 1.50748,0.69738 1.27078,0.93408 -0.10098,0.10098 -0.97323,0.0461 -1.93833,-0.12197 -0.96511,-0.16807 -1.97715,-0.23499 -2.249,-0.14871 -0.27493,0.0873 -0.93238,1.03153 -1.48162,2.12799 -0.90004,1.796788 -1.32843,2.241728 -1.75126,1.818898 z m 1.51922,-7.732538 c -0.99369,-0.34748 -1.52968,-0.77654 -1.34445,-1.07624 0.23086,-0.37353 1.08414,-0.38656 1.75633,-0.0268 0.61197,0.32751 1.64035,-0.13473 2.6108,-1.17352 0.59426,-0.63609 1.6098,-0.94482 1.60579,-0.48816 -0.003,0.31829 -0.91692,1.61648 -1.56033,2.21591 -0.62458,0.58189 -2.17863,0.85987 -3.06814,0.54882 z m 4.25979,-5.67515 c -0.6111,-0.61846 -1.31353,-1.44771 -1.56096,-1.84277 -0.56822,-0.90727 -0.62772,-3.38275 -0.0813,-3.38275 0.40362,0 0.68976,0.55566 0.68976,1.33942 0,0.69297 1.67461,3.24966 2.54268,3.88201 0.41209,0.30019 0.63356,0.64794 0.52476,0.82398 -0.34804,0.56315 -0.99691,0.3116 -2.11494,-0.81989 z m -23.04521,64.624488 c 0.0899,-0.14553 0.93881,-0.26459 1.88638,-0.26459 1.62442,0 1.79457,-0.0605 2.97798,-1.05833 0.69031,-0.58208 1.39628,-1.05833 1.56882,-1.05833 0.17253,0 0.31507,-0.0893 0.31674,-0.19844 0.003,-0.19313 0.40991,-0.40186 3.43654,-1.76258 1.62344,-0.72988 2.09623,-1.08603 2.57969,-1.94328 0.55166,-0.97819 0.38456,-1.53485 -0.88441,-2.94626 -1.53166,-1.70357 -2.22444,-1.78946 -2.22444,-0.2758 0,1.11531 -0.36993,2.09927 -0.78924,2.09927 -0.13279,0 -0.27743,-0.61281 -0.32142,-1.36181 -0.0521,-0.88733 -0.21825,-1.42842 -0.47684,-1.55299 -2.38599,-1.14938 -3.41046,-1.77976 -4.02549,-2.47698 -0.87061,-0.98696 -0.9107,-1.2228 -0.20785,-1.2228 0.29104,0 0.52917,0.11104 0.52917,0.24675 0,0.13572 0.26789,0.33036 0.59531,0.43254 0.32742,0.10218 0.65485,0.2619 0.72761,0.35493 0.18553,0.23723 2.91041,1.61227 2.91041,1.46866 0,-0.19164 -1.14017,-1.48693 -1.83331,-2.08274 -2.11543,-1.81836 -2.6646,-2.36973 -2.6646,-2.67525 0,-0.1878 -0.57205,-0.82039 -1.27121,-1.40576 -0.69916,-0.58537 -1.50283,-1.50908 -1.78594,-2.05268 -0.64191,-1.23257 -4.27857,-5.27094 -5.84561,-6.49134 -0.54103,-0.42135 -0.56292,-0.39644 -0.98466,1.12049 -0.23724,0.85327 -0.43133,1.85248 -0.43133,2.22045 0,0.36798 -0.10684,0.87579 -0.23743,1.12848 -0.13058,0.25268 -0.44632,0.96544 -0.70164,1.58391 -0.25532,0.61846 -0.5652,1.12447 -0.68862,1.12447 -0.12342,0 -0.2244,0.23813 -0.2244,0.52917 0,0.29104 0.0945,0.52917 0.20989,0.52917 0.11544,0 0.89157,0.57638 1.72474,1.28086 0.83317,0.70447 1.84005,1.44704 2.23751,1.65016 0.8801,0.44977 3.59894,2.41615 3.72127,2.69137 0.0485,0.10914 0.25095,0.19844 0.44987,0.19844 0.19892,0 0.45689,0.15001 0.57326,0.33335 0.11637,0.18335 0.66991,0.5703 1.23008,0.8599 1.23812,0.64009 2.2888,1.82459 2.2888,2.58031 0,0.61165 -0.96371,1.78269 -1.46707,1.78269 -0.17407,0 -0.77242,0.46977 -1.32965,1.04392 -0.92963,0.95786 -1.96233,1.58443 -3.88401,2.35655 -0.84757,0.34056 -0.96487,0.83287 -0.19844,0.83287 0.63582,0 0.67856,0.34197 0.1134,0.90714 -0.22868,0.22867 -0.29524,0.41577 -0.14791,0.41577 0.14733,0 0.34145,-0.11906 0.43139,-0.26458 0.30495,-0.49343 1.19062,-0.29661 1.19062,0.26458 0,0.29104 -0.11906,0.52917 -0.26458,0.52917 -0.14552,0 -0.26458,0.17859 -0.26458,0.39687 0,0.44959 1.19212,0.55797 1.4552,0.1323 z m -5.55625,-1.85209 c 0.19341,-0.31294 -0.0655,-0.31294 -0.79375,0 -0.51018,0.21923 -0.50837,0.22806 0.0505,0.24599 0.31883,0.0102 0.65328,-0.10047 0.74321,-0.24599 z m -72.89271,-6.33755 c 0,-2.17913 0.32565,-2.58749 2.21532,-2.77795 2.97951,-0.30031 44.1335,-0.46859 44.42045,-0.18165 0.40906,0.40907 1.4669,-0.41257 2.08103,-1.61637 0.29269,-0.57371 1.03265,-1.54361 1.64436,-2.15532 0.61172,-0.61171 1.49335,-1.7017 1.95919,-2.4222 0.46584,-0.7205 0.95478,-1.4384 1.08654,-1.59533 0.13176,-0.15693 0.53681,-0.75224 0.90012,-1.32291 0.36331,-0.57068 0.97301,-1.37115 1.3549,-1.77883 0.38188,-0.40768 0.69434,-0.85416 0.69434,-0.99219 0,-0.13802 0.11906,-0.25095 0.26458,-0.25095 0.14552,0 0.26458,-0.13005 0.26458,-0.289 0,-0.15894 0.23967,-0.59368 0.5326,-0.96608 l 0.53259,-0.67708 -0.57277,-0.29069 c -0.31502,-0.15988 -0.70352,-0.52252 -0.86332,-0.80587 -0.46633,-0.82683 -2.0692,-2.52741 -2.38358,-2.52886 -0.15852,-7.3e-4 -0.70494,-0.50305 -1.21427,-1.11627 -0.96043,-1.15635 -1.3338,-1.539 -3.06889,-3.14514 -0.56768,-0.52549 -1.53068,-1.47799 -2.13999,-2.11666 -0.60932,-0.63867 -1.41176,-1.39935 -1.78321,-1.69039 -0.37144,-0.29104 -0.67658,-0.64321 -0.67809,-0.7826 -0.004,-0.36189 -1.90342,-2.26011 -2.26165,-2.26011 -0.31465,0 -1.70983,-1.44631 -1.70983,-1.77249 0,-0.3029 -1.93095,-2.19626 -2.23986,-2.19626 -0.15421,0 -0.51532,-0.32742 -0.80248,-0.7276 -0.66861,-0.9318 -2.43821,-2.70256 -3.36497,-3.36718 -0.39533,-0.28351 -0.8676,-0.87477 -1.04951,-1.31393 -0.1819,-0.43915 -1.15815,-1.63427 -2.16945,-2.65581 -1.01129,-1.021548 -2.08432,-2.125248 -2.38451,-2.452668 -0.30019,-0.32742 -0.6367,-0.59531 -0.74779,-0.59531 -0.2216,0 -1.10722,-0.73496 -2.44023,-2.0251 -0.47422,-0.45896 -1.3859,-1.10122 -2.02598,-1.42724 -0.64007,-0.32602 -1.52095,-0.84951 -1.95752,-1.16332 -0.43656,-0.31381 -1.15093,-0.74292 -1.5875,-0.95359 -0.43656,-0.21067 -0.85328,-0.4455 -0.92604,-0.52186 -0.47186,-0.49516 -1.61978,-1.00491 -2.51915,-1.11865 -0.579,-0.0732 -1.94569,-0.37614 -3.0371,-0.67314 -3.09033,-0.84097 -5.65943,-1.20866 -7.05941,-1.01036 -2.52492,0.35764 -3.9456,0.63913 -5.376,1.06522 -0.80037,0.23841 -1.93146,0.50692 -2.51355,0.59669 -0.58208,0.0898 -1.35599,0.36747 -1.71979,0.61711 -0.3638,0.24963 -1.37583,0.84561 -2.24896,1.32438 -0.87312,0.47878 -1.94468,1.14986 -2.38125,1.49129 -1.82349,1.42613 -3.0427,2.54962 -3.0427,2.80383 0,0.14917 -0.21143,0.46377 -0.46985,0.69912 -1.00199,0.91257 -3.23432,4.885888 -3.23432,5.756768 0,0.35629 -0.16955,1.38665 -0.37677,2.28968 -0.57932,2.52457 -0.88152,6.26148 -0.64741,8.00579 0.11615,0.86547 0.39411,2.83997 0.61768,4.38776 0.22358,1.5478 0.4065,3.36512 0.4065,4.03849 0,0.67337 0.10445,1.43106 0.2321,1.68374 0.32424,0.6418 0.76144,2.12829 0.97253,3.30663 0.0981,0.54731 0.28384,1.06035 0.41286,1.14009 0.12903,0.0797 0.23881,0.46538 0.24397,0.85697 0.005,0.3916 0.17953,1.00965 0.3875,1.37345 0.20796,0.3638 0.38234,0.96507 0.3875,1.33615 0.005,0.37108 0.12769,0.79301 0.27231,0.93762 0.14461,0.14462 0.3326,1.03163 0.41775,1.97115 0.0851,0.93951 0.25524,1.94633 0.37798,2.23737 0.12273,0.29104 0.43227,1.12448 0.68785,1.85209 0.25558,0.7276 0.68155,1.53591 0.94659,1.79624 0.26504,0.26033 0.48189,0.69979 0.48189,0.97657 0,0.27679 0.10228,0.56646 0.22728,0.64372 0.12501,0.0772 0.30345,0.78852 0.39654,1.5806 0.2841,2.41726 0.0392,2.27891 4.0347,2.27891 h 3.54357 z m 148.88586,0.51672 c 0.17728,-0.21828 0.32739,-0.69453 0.3336,-1.05833 0.006,-0.36381 0.17177,-1.19724 0.36794,-1.85209 0.60011,-2.00329 0.17523,-5.15879 -1.05763,-7.85497 -0.34522,-0.75497 -0.62768,-1.44195 -0.62768,-1.52661 0,-0.0847 -0.29766,-0.62545 -0.66146,-1.20175 -0.3638,-0.5763 -0.66146,-1.16834 -0.66146,-1.31565 0,-0.41267 -0.96883,-1.52365 -2.96139,-3.39587 -0.15005,-0.14099 -0.86048,-0.86499 -1.57873,-1.60887 -0.71825,-0.74389 -1.45028,-1.35253 -1.62674,-1.35253 -0.17646,0 -0.61727,-0.27422 -0.97959,-0.60937 -1.20209,-1.11198 -4.8239,-3.35938 -5.41382,-3.35938 -0.31938,0 -0.6623,-0.0816 -0.76203,-0.18133 -0.0997,-0.0997 -0.62559,-0.34777 -1.16857,-0.5512 -3.42837,-1.28444 -7.51337,-1.25762 -13.02579,0.0855 -0.94589,0.23048 -2.13651,0.52055 -2.64584,0.64462 -1.12159,0.27322 -2.5018,0.80169 -3.57187,1.36763 -0.43656,0.23089 -1.09141,0.50829 -1.45521,0.61644 -0.3638,0.10815 -1.50739,0.59948 -2.5413,1.09185 -1.03392,0.49237 -2.10377,0.89522 -2.37746,0.89522 -0.42958,0 -2.19531,0.74249 -3.93509,1.65471 -2.79295,1.46442 -3.51385,1.78487 -4.01524,1.78487 -0.31931,0 -0.62025,0.0906 -0.66876,0.20142 -0.10028,0.22901 -4.17569,2.23279 -5.37986,2.64514 -1.85947,0.63675 -3.97107,0.91463 -8.20208,1.07936 l -4.49792,0.17513 1.85208,1.90781 c 3.48872,3.59371 4.34508,4.44284 5.01367,4.97135 0.36817,0.29104 0.67064,0.63657 0.67214,0.76784 0.002,0.13127 0.50875,0.69521 1.12722,1.25321 1.08425,0.97825 1.17179,1.00757 2.44739,0.81966 1.80386,-0.26572 31.82203,-0.24499 41.14271,0.0284 4.14734,0.12166 7.91362,0.33417 8.36951,0.47226 0.88847,0.26912 1.15563,0.92656 1.15535,2.84326 l -1.3e-4,0.95911 h 3.50586 c 2.79669,0 3.57107,-0.0803 3.82818,-0.39687 z m -73.0885,-4.91394 c -0.72443,-0.66537 -1.86859,-1.51005 -2.54259,-1.87708 -0.67399,-0.36702 -1.36694,-0.92395 -1.5399,-1.23763 -0.17295,-0.31367 -0.76862,-0.88681 -1.3237,-1.27365 l -1.00923,-0.70334 -1.21974,1.69553 c -0.67085,0.93254 -1.37368,1.69552 -1.56185,1.69552 -0.18817,0 -0.89942,0.56555 -1.58056,1.25678 l -1.23844,1.25677 5.52063,-0.0808 c 3.03636,-0.0444 5.91985,0.0341 6.40777,0.17457 1.45565,0.41898 1.46179,0.35545 0.0876,-0.9067 z m -86.8153,-3.75117 c -0.0752,-0.5457 -0.23963,-1.23031 -0.36536,-1.52135 -0.12572,-0.29104 -0.71824,-2.13651 -1.3167,-4.10104 -0.59847,-1.96453 -1.19237,-3.81 -1.31978,-4.10104 -0.24498,-0.55959 -0.35905,-1.17393 -0.81061,-4.36563 -0.15441,-1.09141 -0.38032,-2.2225 -0.50203,-2.51354 -0.9749,-2.33131 -1.24536,-11.46644 -0.42301,-14.2875 0.25452,-0.87313 0.6192,-2.21494 0.81041,-2.98182 0.44167,-1.77144 1.92727,-4.743158 2.65883,-5.318608 0.30852,-0.24268 0.86954,-0.93008 1.2467,-1.52755 0.75201,-1.19125 1.90169,-2.21056 2.49329,-2.21056 0.20805,0 0.67682,-0.3548 1.04171,-0.78845 0.36489,-0.43365 0.94367,-0.93966 1.28619,-1.12448 1.8403,-0.993 3.52599,-1.76051 4.19697,-1.91092 0.41624,-0.0933 1.24968,-0.39057 1.85209,-0.6606 2.28205,-1.02291 4.82798,-1.38908 8.76819,-1.26106 3.76794,0.12241 5.71088,0.42236 7.15486,1.10453 0.44267,0.20913 1.39517,0.53197 2.11666,0.71742 0.7215,0.18545 1.8476,0.62739 2.50244,0.98209 0.65485,0.35469 1.42875,0.77467 1.71979,0.93329 0.29105,0.15861 0.5887,0.35421 0.66146,0.43466 0.47955,0.53026 2.10582,1.57352 2.45284,1.57352 0.23018,0 1.2235,0.7739 2.20736,1.71979 0.98386,0.94588 1.90771,1.71979 2.053,1.71979 0.33991,0 1.48889,1.07525 1.48889,1.39334 0,0.13353 0.7739,0.99047 1.71979,1.904318 0.94588,0.91385 1.71979,1.83256 1.71979,2.04157 0,0.20901 0.78549,1.08749 1.74554,1.95217 0.96005,0.86468 2.0367,2.02431 2.39255,2.57697 0.35585,0.55265 0.85028,1.07958 1.09873,1.17096 0.56637,0.20829 1.83409,1.52369 2.70068,2.80223 0.3638,0.53675 0.86105,1.0405 1.105,1.11944 0.48685,0.15756 2.59917,2.18289 2.59917,2.49214 0,0.31111 0.96348,1.33228 1.25701,1.33228 0.1479,0 0.69595,0.50601 1.21789,1.12448 2.05932,2.44016 2.42892,2.83385 2.6652,2.83896 0.13493,0.003 0.56255,0.3853 0.95027,0.84973 l 0.70496,0.84442 0.18346,-1.1473 c 0.19207,-1.20119 0.88487,-2.40495 1.92828,-3.35045 0.33986,-0.30797 0.61793,-0.61015 0.61793,-0.67151 0,-0.0989 -2.21258,-2.58069 -2.91218,-3.26646 -0.14846,-0.14552 -0.83387,-0.85252 -1.52314,-1.57111 -0.68928,-0.71858 -2.20572,-2.27954 -3.36989,-3.46879 -1.98795,-2.03077 -5.31888,-5.56861 -9.1711,-9.740768 -3.5093,-3.80076 -7.33502,-7.57662 -7.67666,-7.57662 -0.19556,0 -0.65201,-0.26789 -1.01432,-0.59531 -0.85097,-0.76902 -2.82179,-2.05052 -3.15348,-2.05052 -0.14141,0 -0.35232,-0.14883 -0.46869,-0.33073 -0.27395,-0.42822 -1.28658,-0.99219 -1.7815,-0.99219 -0.21255,0 -0.94627,-0.29766 -1.63049,-0.66146 -0.68422,-0.3638 -1.35274,-0.66146 -1.4856,-0.66146 -0.13285,0 -0.85926,-0.27572 -1.61423,-0.61271 -2.4856,-1.10948 -3.18162,-1.26198 -7.59039,-1.6631 -2.40109,-0.21846 -5.02764,-0.51014 -5.83676,-0.64819 -1.9744,-0.33686 -9.16664,-0.32644 -9.37678,0.0136 -0.0899,0.14552 -0.44713,0.26458 -0.79375,0.26458 -0.34663,0 -0.70382,0.11906 -0.79375,0.26458 -0.0899,0.14552 -0.50518,0.26459 -0.92276,0.26459 -0.41758,0 -0.91657,0.15449 -1.10887,0.34331 -0.19229,0.18883 -1.064,0.87344 -1.93712,1.52136 -0.87313,0.64792 -1.94469,1.50957 -2.38125,1.91478 -0.43657,0.40521 -1.29609,1.11958 -1.91005,1.5875 -0.61397,0.46791 -1.12126,0.96982 -1.12733,1.11534 -0.006,0.14552 -0.46499,0.74083 -1.01982,1.32291 -0.55483,0.58209 -1.23609,1.41553 -1.5139,1.85209 -0.27782,0.43656 -0.71555,0.94933 -0.97274,1.13948 -0.25719,0.19015 -0.46762,0.63649 -0.46762,0.99187 0,0.35537 -0.4041,1.44995 -0.89799,2.43239 -0.4939,0.98244 -0.97763,2.08391 -1.07497,2.44772 -0.0973,0.363798 -0.27873,0.899578 -0.40311,1.190618 -0.63803,1.49297 -0.84987,2.70966 -1.08256,6.21771 -0.30854,4.65153 -0.0888,10.45656 0.47067,12.43542 0.61797,2.18566 1.09906,3.64408 1.37359,4.16404 0.54552,1.03321 1.61437,3.53984 1.61437,3.78595 0,0.42137 1.33411,2.41635 2.29039,3.42496 0.48401,0.51049 0.88105,1.077 0.88231,1.2589 0.001,0.1819 0.11909,0.33073 0.26184,0.33073 0.14275,0 0.34047,0.32742 0.43937,0.72761 0.0989,0.40018 0.75602,1.37644 1.46025,2.16948 0.70423,0.79303 1.28042,1.53717 1.28042,1.65364 0,0.11648 0.11158,0.21177 0.24795,0.21177 0.13637,0 0.18641,-0.44648 0.1112,-0.99219 z m 160.64452,-3.42075 c -0.17292,-1.61467 -0.84331,-4.18884 -1.43469,-5.50893 -1.12368,-2.5083 -1.39074,-3.18978 -1.53694,-3.92208 -0.22713,-1.13769 -1.64033,-3.27136 -2.96077,-4.47022 -0.59607,-0.54118 -1.08376,-1.11524 -1.08376,-1.27567 0,-0.41471 -0.54475,-0.90636 -1.60043,-1.44446 -0.50221,-0.25598 -1.44889,-0.84937 -2.10373,-1.31865 -0.65485,-0.46927 -1.69664,-1.07209 -2.31511,-1.3396 -0.61846,-0.2675 -1.12448,-0.56703 -1.12448,-0.66562 0,-0.0986 -0.50601,-0.24936 -1.12448,-0.33504 -0.61846,-0.0857 -1.89838,-0.34907 -2.84427,-0.58532 -1.96018,-0.48958 -5.58758,-0.94598 -7.54062,-0.94875 -1.85089,-0.003 -5.69435,0.44996 -8.20208,0.96584 -1.16417,0.23949 -2.77152,0.5258 -3.57188,0.63624 -1.85212,0.25558 -2.15061,0.39313 -3.39993,1.56686 -0.56531,0.5311 -1.20627,1.10427 -1.42437,1.27371 -0.79414,0.61698 -4.5614,2.47005 -5.02159,2.47005 -0.26007,0 -0.47286,0.10097 -0.47286,0.22439 0,0.24715 -2.4432,1.09852 -3.15247,1.09852 -0.24522,0 -0.55897,0.10809 -0.69722,0.2402 -0.13824,0.1321 -0.84666,0.30109 -1.57427,0.37552 -1.50216,0.15366 -3.97392,0.66595 -4.7625,0.98705 -0.29104,0.11851 -1.42213,0.41839 -2.51354,0.66641 -1.09141,0.24801 -2.2225,0.54416 -2.51354,0.65809 -0.29104,0.11394 -1.06495,0.27978 -1.71979,0.36854 -0.65485,0.0888 -1.96454,0.27259 -2.91042,0.40851 -0.94589,0.13592 -2.89204,0.25102 -4.32478,0.25578 -2.20075,0.007 -2.72424,0.0936 -3.37344,0.55584 -1.06396,0.75761 -0.96663,1.36915 0.35603,2.23687 0.61847,0.40574 1.9991,1.62829 3.06807,2.71678 l 1.94359,1.97907 2.9512,-0.17836 c 5.1015,-0.30831 8.58208,-0.87689 9.28798,-1.51727 0.13824,-0.12541 0.44837,-0.22803 0.68918,-0.22803 0.2408,0 1.37785,-0.47573 2.52677,-1.05718 1.14892,-0.58146 2.208,-1.05829 2.35352,-1.05963 0.25021,-0.002 2.13778,-0.9452 4.97494,-2.48512 0.69893,-0.37935 1.49557,-0.68973 1.77033,-0.68973 0.27475,0 0.57313,-0.11906 0.66307,-0.26459 0.0899,-0.14552 0.36485,-0.26531 0.61093,-0.26621 0.24607,-9e-4 0.78843,-0.17949 1.20525,-0.39687 0.41682,-0.21739 0.98236,-0.39525 1.25677,-0.39525 0.27441,0 0.49892,-0.10098 0.49892,-0.2244 0,-0.12342 0.50602,-0.43704 1.12448,-0.69693 0.61847,-0.2599 1.75281,-0.75423 2.52078,-1.09852 0.76796,-0.34429 1.5646,-0.62598 1.77032,-0.62598 0.20571,0 0.44761,-0.11906 0.53755,-0.26459 0.0899,-0.14552 0.50007,-0.26458 0.91141,-0.26458 0.41134,0 1.08892,-0.17786 1.50574,-0.39524 0.41682,-0.21739 1.06146,-0.39598 1.43254,-0.39688 0.37107,-9e-4 0.78779,-0.10152 0.92604,-0.22362 0.64954,-0.57365 3.63619,-0.96812 7.26281,-0.95926 l 3.83646,0.009 2.38125,1.00771 c 1.30969,0.55425 2.79797,1.24229 3.30729,1.52898 0.50932,0.28669 1.1344,0.58703 1.38906,0.66742 0.25466,0.0804 0.46302,0.25133 0.46302,0.37988 0,0.12855 0.13552,0.23372 0.30114,0.23372 0.16563,0 0.81782,0.47625 1.4493,1.05834 0.63149,0.58208 1.29965,1.05861 1.4848,1.05895 0.43282,8e-4 2.05643,1.38293 2.05643,1.75058 0,0.154 0.70592,0.90627 1.56871,1.67172 0.9096,0.80697 1.88232,1.99192 2.31511,2.82023 0.41051,0.78568 0.83569,1.42879 0.94483,1.42914 0.10914,3.5e-4 0.19843,0.12027 0.19843,0.26651 0,0.14623 0.29766,0.88289 0.66146,1.63702 0.3638,0.75412 0.66146,1.52744 0.66146,1.71849 0,0.19105 0.0734,0.34736 0.16312,0.34736 0.0897,0 0.078,-0.7952 -0.0261,-1.76711 z m -90.19067,-6.898 c 0.34523,-0.40018 0.70221,-0.96017 0.7933,-1.24443 0.0911,-0.28425 0.29872,-0.66707 0.46142,-0.85071 0.76679,-0.86545 0.95728,-1.14393 0.95728,-1.39942 0,-0.15166 0.10518,-0.27575 0.23373,-0.27575 0.12855,0 0.29599,-0.23812 0.3721,-0.52917 0.16668,-0.63736 0.11803,-0.64343 -0.90743,-0.11314 -0.80027,0.41383 -1.55048,0.35605 -1.55048,-0.11942 0,-0.249 3.24407,-2.40903 3.63154,-2.41802 0.30636,-0.007 1.92471,-2.57113 1.92471,-3.0494 0,-1.42467 2.072,-4.0896 3.17969,-4.0896 0.27129,0 0.55652,-0.10236 0.63384,-0.22747 0.28743,-0.46507 6.295,-3.74128 6.86037,-3.74128 0.23253,0 4.25807,-1.88693 6.56485,-3.07721 0.38625,-0.19931 1.01295,-0.36237 1.39265,-0.36237 0.37971,0 0.89712,-0.10574 1.1498,-0.23498 2.62313,-1.34158 3.22877,-1.61711 3.55458,-1.61711 0.20773,0 0.99471,-0.29765 1.74883,-0.66145 0.75413,-0.36381 1.5121,-0.66146 1.68438,-0.66146 0.17228,0 0.69587,-0.13836 1.16352,-0.30747 0.75628,-0.27347 0.86906,-0.44898 1.02009,-1.587498 0.33862,-2.55266 -0.293,-4.9017 -1.49031,-5.54247 -0.64783,-0.34671 -1.13376,0.033 -1.69236,1.32232 -0.22774,0.52566 -0.57516,1.33086 -0.77205,1.78934 -0.457,1.06419 -1.78306,2.06514 -3.30204,2.4925 -0.65484,0.18424 -1.30373,0.433968 -1.44198,0.554958 -0.13824,0.12099 -0.51817,0.21998 -0.84428,0.21998 -0.32611,0 -0.65746,0.10442 -0.73633,0.23204 -0.20378,0.32972 -2.34873,0.85875 -4.51803,1.11434 -6.01375,0.70854 -6.45075,0.84307 -10.26505,3.16007 -1.83,1.11164 -12.62142,11.69107 -12.62142,12.37349 0,0.11582 -0.48637,0.68124 -1.08082,1.25647 -1.04109,1.00744 -1.07674,1.09727 -0.96972,2.44344 0.0877,1.10269 0.28001,1.57719 0.91166,2.24896 0.4403,0.46827 1.02418,1.26812 1.29752,1.77744 1.10699,2.06276 1.64906,2.29222 2.65644,1.12448 z m 84.76201,-8.62409 c 0,-0.0502 -0.26789,-0.3181 -0.59531,-0.59532 l -0.59531,-0.50402 0.50403,0.59531 c 0.47366,0.55945 0.68659,0.71576 0.68659,0.50403 z m -87.48345,-2.56037 c 0.25977,-0.43976 1.01975,-1.33925 1.68883,-1.99887 l 1.21652,-1.19931 -2.07986,-1.90373 c -1.14392,-1.04705 -3.99158,-3.80133 -6.32814,-6.12063 -3.33909,-3.31442 -4.38025,-4.201608 -4.8649,-4.145458 -0.89568,0.10377 -1.53676,-0.61529 -2.06245,-2.31329 -0.25459,-0.82235 -0.54583,-1.55472 -0.6472,-1.62748 -1.46677,-1.05281 -2.64632,-2.13231 -6.46217,-5.91402 l -4.49906,-4.45881 -3.04271,-0.0475 c -2.22735,-0.0347 -3.60344,-0.2053 -5.13521,-0.63653 -1.15087,-0.32399 -2.15298,-0.5286 -2.22691,-0.45467 -0.0739,0.0739 -0.004,0.13441 0.15537,0.13441 0.15938,0 0.44712,0.14883 0.63941,0.33073 0.38804,0.36706 2.21918,1.25677 2.58661,1.25677 0.3864,0 4.60641,2.68674 5.0935,3.24286 0.24822,0.28339 0.79807,0.71148 1.2219,0.95131 1.17232,0.66335 1.96375,1.39374 2.69241,2.48475 0.36381,0.54471 0.76346,0.99119 0.88813,0.99219 0.3511,0.003 2.81604,2.71683 2.81604,3.10061 0,0.18743 0.12899,0.34078 0.28664,0.34078 0.44638,0 3.41753,3.218358 3.41753,3.701878 0,0.14678 0.10079,0.26687 0.22399,0.26687 0.29152,0 1.57806,1.27819 3.87705,3.85188 1.01864,1.14036 2.2691,2.49637 2.77878,3.01335 0.50969,0.51699 1.75985,1.89005 2.77813,3.05126 1.01828,1.1612 2.26814,2.57065 2.77746,3.1321 0.50933,0.56146 1.02126,1.18896 1.13763,1.39445 0.31404,0.55455 0.54849,0.46145 1.07268,-0.42594 z m 84.83762,0.006 c -0.50932,-0.42874 -1.06029,-0.78272 -1.22437,-0.78664 -0.16409,-0.004 -0.44894,-0.18858 -0.63302,-0.41038 -0.18407,-0.2218 -0.39142,-0.34653 -0.46077,-0.27718 -0.17705,0.17704 0.44623,0.75305 1.45827,1.34765 0.47294,0.27787 0.85989,0.59861 0.85989,0.71276 0,0.11415 0.20836,0.20433 0.46302,0.20042 0.33966,-0.005 0.2163,-0.2148 -0.46302,-0.78663 z m -2.64583,-1.85209 c 0,-0.14552 -0.20836,-0.26276 -0.46302,-0.26053 -0.3957,0.003 -0.40532,0.0414 -0.0661,0.26053 0.49933,0.32269 0.52917,0.32269 0.52917,0 z m -1.5875,-0.72358 c -0.21828,-0.084 -1.21504,-0.908 -2.21502,-1.8312 -0.99998,-0.9232 -1.94125,-1.67855 -2.0917,-1.67855 -0.15045,0 -0.66379,-0.29766 -1.14076,-0.66146 -0.47697,-0.3638 -0.9843,-0.66146 -1.1274,-0.66146 -0.14311,0 -0.29988,-0.0893 -0.34839,-0.19843 -0.20868,-0.46955 -3.16884,-1.68916 -4.69721,-1.9353 -0.91528,-0.1474 -3.82456,-0.29316 -6.46506,-0.32391 l -4.80092,-0.0559 -0.14856,2.24896 c -0.10892,1.64888 -0.30652,2.52201 -0.74057,3.27228 -0.32561,0.56282 -0.54856,1.06677 -0.49545,1.11988 0.0531,0.0531 0.44589,-0.0104 0.87286,-0.14113 0.42697,-0.13072 1.19302,-0.36254 1.70234,-0.51514 4.59618,-1.37708 13.68028,-1.3974 16.80105,-0.0376 0.29104,0.12681 0.82682,0.28799 1.19062,0.35817 0.3638,0.0702 1.25677,0.36547 1.98438,0.6562 0.7276,0.29074 1.50151,0.53054 1.71979,0.53291 0.35278,0.004 0.35278,-0.0127 0,-0.14835 z m -73.72059,-4.3035 c 0.21743,0 0.46993,-0.23503 0.5611,-0.52229 0.0912,-0.28726 0.54568,-0.78936 1.01002,-1.11577 0.46434,-0.32642 1.00436,-0.749 1.20004,-0.93909 0.19569,-0.19008 0.73148,-0.55031 1.19063,-0.8005 0.83405,-0.45447 0.83161,-0.45505 -2.60475,-0.61722 -3.39944,-0.16043 -4.8904,-0.36663 -5.67986,-0.78552 -0.22306,-0.11836 -0.97111,-0.41705 -1.66233,-0.66376 -0.69123,-0.24672 -1.25677,-0.55146 -1.25677,-0.67721 0,-0.12575 -0.55509,-0.22864 -1.23352,-0.22864 -1.12432,0 -3.21771,-0.47713 -4.81995,-1.09857 -0.7939,-0.30792 -1.13291,-0.0173 -0.42662,0.36571 0.92001,0.49893 10.15793,9.60681 10.17668,10.03341 0.004,0.0948 0.71462,-0.53025 1.57878,-1.38906 0.86417,-0.85882 1.74912,-1.56149 1.96655,-1.56149 z m 7.44261,-5.556 c -0.1749,-0.28299 -1.46287,-0.53291 -4.10119,-0.7958 -1.23694,-0.12324 -2.90381,-0.30287 -3.70418,-0.39918 -1.06936,-0.12866 -1.65949,-0.0678 -2.22564,0.22945 l -0.77045,0.40453 0.63815,0.12765 c 0.35099,0.0702 1.82878,0.26006 3.28399,0.4219 4.36766,0.48574 7.17534,0.49041 6.87932,0.0115 z m -17.59495,-8.466918 c 0.29113,-0.18814 0.10143,-0.25756 -0.71199,-0.26053 -0.60987,-0.002 -1.18245,-0.12311 -1.27238,-0.26863 -0.0899,-0.14552 -0.36486,-0.26396 -0.61093,-0.26319 -0.63934,0.002 0.99525,1.01407 1.66926,1.03354 0.29104,0.008 0.70776,-0.10012 0.92604,-0.24119 z m -10.40156,-0.46302 c -0.64588,-1.12387 -1.76927,-3.94274 -1.76927,-4.43952 0,-0.75218 -0.97221,-1.71305 -2.55898,-2.52916 -0.63393,-0.32604 -1.28458,-0.75182 -1.44588,-0.94618 -0.1613,-0.19435 -0.50979,-0.35337 -0.77443,-0.35337 -0.26463,0 -0.55474,-0.11906 -0.64467,-0.26458 -0.0899,-0.14552 -0.66251,-0.25821 -1.27239,-0.25041 l -1.10886,0.0142 0.91612,0.71343 c 0.91844,0.71524 4.01218,3.58453 6.40496,5.94029 0.70283,0.69196 1.27788,1.42737 1.27788,1.63425 0,0.20687 0.20836,0.43059 0.46302,0.49714 0.25466,0.0666 0.49981,0.13481 0.54478,0.15169 0.045,0.0169 0.0304,-0.0586 -0.0323,-0.16775 z m 50.08907,-0.74322 c 0,-0.22687 -0.121,-0.3377 -0.2689,-0.2463 -0.14789,0.0914 -0.2004,0.27703 -0.11668,0.41249 0.22682,0.36699 0.38558,0.29856 0.38558,-0.16619 z m -10.21255,-5.2099 c 0.0716,-0.47295 0.19062,-1.6533 0.26449,-2.62301 0.0739,-0.9697 0.36323,-2.27939 0.64303,-2.91041 1.00779,-2.2728 1.36753,-3.56997 1.36753,-4.93114 0,-1.21275 -0.10738,-1.4912 -0.86389,-2.24012 -1.53606,-1.52063 -1.78194,-2.11248 -1.78194,-4.28908 0,-1.99206 0.20192,-2.64341 1.1706,-3.77604 1.0258,-1.19941 1.25549,-0.5414 0.4169,1.1943 -0.60092,1.24376 -0.66565,3.14469 -0.15524,4.55881 0.33059,0.91591 0.33509,0.90573 0.48681,-1.10034 0.1374,-1.81668 0.48457,-3.01957 0.98014,-3.39599 0.41358,-0.31415 1.06954,-1.47806 1.06954,-1.89776 0,-0.37087 -0.28698,-0.47205 -1.52136,-0.53644 -1.30629,-0.0681 -1.58859,0.004 -1.99697,0.50757 -0.26159,0.3228 -0.79615,0.74054 -1.18792,0.92831 -0.65333,0.31313 -0.71345,0.47264 -0.7261,1.92663 -0.0148,1.70187 0.20842,2.74025 0.84008,3.90782 0.42057,0.77738 0.29326,2.1182 -0.26693,2.81131 -0.19278,0.23851 -0.30145,1.75317 -0.30373,4.23333 -0.003,3.43405 -0.0618,3.94099 -0.52917,4.57547 -0.67842,0.92097 -3.11072,2.06459 -4.39106,2.06459 -0.21356,0 -0.822,0.22112 -1.3521,0.49138 l -0.96381,0.49137 2.42922,0.18369 c 1.33607,0.10103 3.08406,0.27986 3.88443,0.39741 2.40336,0.35298 2.34545,0.36629 2.48745,-0.57166 z m -61.09267,-3.90261 c -0.0899,-0.14552 -0.48392,-0.25271 -0.87551,-0.23821 l -0.71199,0.0264 0.66146,0.21183 c 0.93913,0.30077 1.11192,0.30077 0.92604,0 z m 39.80057,-1.79864 c 0.49875,-0.24767 0.9543,-0.62891 1.01233,-0.84719 0.0651,-0.24476 0.0217,-0.29121 -0.11307,-0.1212 -0.12022,0.15163 -0.73403,0.44169 -1.36402,0.64458 -0.93011,0.29955 -1.37777,0.30877 -2.38125,0.049 -1.43158,-0.37053 -2.81164,-1.67008 -2.60652,-2.45445 0.10056,-0.38453 -0.0121,-0.49922 -0.49053,-0.49922 -0.34159,0 -0.68587,-0.10485 -0.76507,-0.23299 -0.1734,-0.28058 -1.47473,-0.55946 -1.47473,-0.31605 0,0.30732 1.96301,2.3196 2.84139,2.9127 0.9699,0.65491 2.78649,1.28157 3.77319,1.30164 0.36381,0.007 1.06953,-0.18919 1.56828,-0.43686 z m -65.34292,-1.21123 c 0.2786,-0.73544 0.18256,-0.80511 -0.56259,-0.40811 -0.61921,0.3299 -1.25524,1.00721 -1.27102,1.35352 -0.0193,0.42467 1.63839,-0.43005 1.83361,-0.94541 z m 10.52135,0.17077 c -0.54895,-0.0573 -1.38239,-0.0563 -1.85209,0.002 -0.4697,0.0585 -0.0206,0.10531 0.99809,0.10414 1.01865,-0.001 1.40294,-0.049 0.854,-0.10627 z m 4.4983,0.0332 c -0.0879,-0.0879 -0.31612,-0.0973 -0.50712,-0.0209 -0.21106,0.0845 -0.14837,0.14716 0.15986,0.15985 0.27891,0.0115 0.43518,-0.051 0.34726,-0.13896 z m -7.73355,-1.46556 c -2.28041,-0.47409 -3.03195,-0.47651 -3.28218,-0.0105 -0.21751,0.40501 -0.0319,0.4356 2.05068,0.33795 2.03339,-0.0953 2.17131,-0.13202 1.2315,-0.32741 z m 57.41459,-0.49126 c 0.0899,-0.14552 0.39462,-0.26458 0.67707,-0.26458 0.36237,0 0.5074,-0.17525 0.49266,-0.59531 -0.0115,-0.32742 -0.0809,-0.44649 -0.15434,-0.26459 -0.0734,0.1819 -0.30212,0.33073 -0.50828,0.33073 -0.20615,0 -0.37482,0.10724 -0.37482,0.2383 0,0.13107 -0.44649,0.35689 -0.99219,0.50182 l -0.99219,0.26353 0.84428,0.0273 c 0.46436,0.015 0.91787,-0.0917 1.00781,-0.23724 z m -32.45508,-2.55925 c -0.50392,-0.13346 -0.83109,-0.79984 -0.58677,-1.19515 0.0955,-0.15452 -0.0714,-0.14054 -0.39602,0.0332 -0.3086,0.16516 -0.56109,0.39135 -0.56109,0.50265 0,0.42734 0.66357,0.83605 1.30968,0.80666 0.40726,-0.0185 0.50009,-0.0769 0.2342,-0.14735 z m -2.8668,-0.7156 c 0,-0.34599 -0.17859,-0.77728 -0.39688,-0.95844 -0.21828,-0.18116 -0.39687,-0.49339 -0.39687,-0.69386 0,-0.20046 -0.11906,-0.36447 -0.26458,-0.36447 -0.14552,0 -0.26459,0.1845 -0.26459,0.41001 0,0.22551 -0.17744,0.75316 -0.39432,1.17256 -0.37531,0.72576 -0.36574,0.76805 0.19843,0.87687 1.32424,0.25541 1.51881,0.1987 1.51881,-0.44267 z m -3.05751,-0.62771 c 0.15263,-0.92339 -0.25342,-6.1111 -0.49742,-6.3551 -0.23936,-0.23937 -0.46789,2.43037 -0.3518,4.1098 0.0833,1.20524 0.005,2.01785 -0.24078,2.50988 -0.34734,0.69431 -0.33448,0.72761 0.281,0.72761 0.53978,0 0.67175,-0.16185 0.809,-0.99219 z m 9.91463,0.55809 c 0.0606,-0.0523 -0.13149,-0.0951 -0.42694,-0.0951 -0.64737,0 -1.93226,-1.22038 -1.93226,-1.83525 0,-0.24209 -0.10468,-0.55328 -0.23262,-0.69152 -0.12795,-0.13825 -0.37118,-0.68536 -0.54053,-1.2158 -0.24445,-0.76568 -0.41463,-0.93654 -0.82572,-0.82904 -0.44254,0.11573 -0.5178,-0.002 -0.5178,-0.80834 0,-0.58196 0.15903,-1.03276 0.41484,-1.17591 0.36704,-0.20541 0.34832,-0.34491 -0.16246,-1.21061 -0.4877,-0.82659 -1.22434,-1.49395 -1.64904,-1.49395 -0.0597,0 -0.44365,0.28796 -0.85324,0.63991 -0.4096,0.35195 -1.14249,0.71454 -1.62866,0.80574 -0.86218,0.16175 -0.88394,0.19838 -0.88394,1.48831 0,1.04402 0.13927,1.47267 0.66146,2.03582 0.3638,0.39235 0.66146,0.85799 0.66146,1.03476 0,0.17678 0.29224,0.0292 0.64943,-0.32802 1.18381,-1.18381 2.15681,-0.67176 1.11151,0.58493 -0.74522,0.89594 -0.64205,1.41147 0.28246,1.41147 0.95588,0 1.39269,-0.68121 1.03851,-1.61954 -0.36004,-0.95386 -0.0604,-1.24722 0.63298,-0.61971 0.78057,0.70641 1.39405,2.13371 1.24723,2.90176 -0.10616,0.55532 -0.0255,0.66041 0.50683,0.66041 0.34819,0 0.70128,0.17774 0.78464,0.39499 0.10655,0.27766 0.35951,0.3452 0.8516,0.22736 0.38501,-0.0922 0.74962,-0.21041 0.81026,-0.2627 z m -11.98793,-0.29351 c 0.41594,-0.54793 0.48018,-1.81786 0.10373,-2.05052 -0.14552,-0.0899 -0.26459,-0.75181 -0.26459,-1.47082 0,-0.71902 -0.11906,-1.3073 -0.26458,-1.3073 -0.14552,0 -0.26458,0.18357 -0.26458,0.40793 0,0.22437 -0.24274,0.66849 -0.53941,0.98693 -0.88325,0.94806 -0.92142,1.67801 -0.14876,2.84556 0.78737,1.1898 0.88869,1.23305 1.37819,0.58822 z m -2.41714,-0.26863 c -0.14954,-0.10692 -0.40938,-0.49205 -0.5774,-0.85585 -0.27304,-0.59118 -0.30741,-0.60383 -0.32341,-0.11906 -0.0191,0.57974 0.43868,1.18 0.89491,1.17334 0.18869,-0.003 0.19059,-0.0664 0.006,-0.19843 z m 20.00261,-0.50958 c 0.1489,-0.39163 0.23525,-1.01671 0.19189,-1.38906 -0.0727,-0.62476 -0.2099,-0.69145 -1.77724,-0.8643 -0.93411,-0.10302 -1.84883,-0.24503 -2.0327,-0.31559 -0.53682,-0.206 -2.08369,-2.81056 -2.60839,-4.3919 -0.98689,-2.97428 -1.39934,-3.42368 -4.3999,-4.79406 -1.01934,-0.46554 -1.52524,-0.34085 -2.43394,0.59988 -0.56174,0.58154 -0.98188,0.63351 -0.98188,0.12144 0,-1.1554 -1.98851,-0.42414 -2.27044,0.83494 -0.0892,0.39834 -0.26901,1.14098 -0.3996,1.6503 -0.13058,0.50932 -0.23809,1.14251 -0.2389,1.40708 -10e-4,0.44973 0.0485,0.44542 0.76697,-0.0661 0.42265,-0.30095 1.04773,-0.549 1.38906,-0.55123 1.05879,-0.007 1.38685,-0.39244 0.62813,-0.73814 -0.36794,-0.16764 -0.66897,-0.48595 -0.66897,-0.70735 0,-0.46295 0.35711,-0.51324 1.04193,-0.14674 0.29982,0.16046 0.7962,0.16454 1.33172,0.011 1.01488,-0.29106 2.91379,0.46864 3.52014,1.40832 0.56986,0.88312 1.24996,3.08399 1.24996,4.04498 0,0.47481 0.11906,0.93687 0.26458,1.02681 0.14552,0.0899 0.26459,0.46331 0.26459,0.82972 0,0.38354 0.32813,0.99433 0.77339,1.43959 0.66702,0.66701 0.97325,0.7734 2.22625,0.7734 1.30237,0 1.55161,-0.0959 2.40641,-0.92604 0.52447,-0.50933 1.07849,-0.92604 1.23117,-0.92604 0.39952,0 0.0206,1.07688 -0.62834,1.78593 l -0.54487,0.59532 h 0.71412 c 0.53182,0 0.78324,-0.18179 0.98486,-0.71207 z m 2.36201,0.45214 c 0.34122,-0.21651 0.31812,-0.33076 -0.16473,-0.81478 l -0.5616,-0.56296 -0.12018,0.81883 c -0.1243,0.84688 0.12904,1.01415 0.84651,0.55891 z m -28.04584,-1.19528 c 0,-0.79156 -0.28507,-0.84055 -0.905,-0.15554 -0.43479,0.48043 -0.43352,0.51221 0.0251,0.63077 0.84417,0.2182 0.87986,0.19892 0.87986,-0.47523 z m -2.38427,-0.32339 c 0.2927,-0.25062 0.53219,-0.55246 0.53219,-0.67076 0,-0.34028 -0.97922,0.27405 -1.15119,0.72221 -0.20118,0.52426 -0.0375,0.51065 0.619,-0.0514 z m 33.19623,-1.14434 c -0.64505,-0.67329 -0.70776,-0.84718 -0.38023,-1.05429 0.31003,-0.19603 0.26377,-0.24885 -0.22073,-0.25206 -0.62205,-0.004 -2.08468,-0.95736 -3.14472,-2.04954 -0.32047,-0.33019 -0.70641,-0.60034 -0.85764,-0.60034 -0.15124,0 -0.6665,-0.79596 -1.14503,-1.76879 -0.69624,-1.41544 -1.08731,-1.88367 -1.95758,-2.34388 -0.59814,-0.31631 -1.34921,-0.8189 -1.66904,-1.11687 -0.59818,-0.55728 -1.59324,-0.94747 -1.59324,-0.62474 0,0.0999 0.41693,0.57485 0.92651,1.05549 0.50958,0.48065 1.0052,1.18746 1.10139,1.57069 0.22861,0.91086 0.0762,0.72995 4.66898,5.5432 0.31242,0.32743 0.74913,0.59576 0.97048,0.5963 0.22134,5.5e-4 0.81915,0.26562 1.32848,0.58905 2.17545,1.38146 3.05366,1.58439 1.97237,0.45578 z m -6.22573,-1.75192 c -0.35279,-0.38836 -1.18818,-1.25156 -1.85642,-1.91823 -0.66824,-0.66667 -1.36969,-1.68166 -1.55878,-2.25555 -0.18909,-0.57388 -0.55508,-1.27021 -0.81331,-1.54738 -0.45181,-0.48497 -0.45583,-0.46559 -0.10648,0.51426 0.19967,0.56002 0.36826,1.20429 0.37465,1.43172 0.006,0.22742 0.30927,1.03051 0.67307,1.78464 0.3638,0.75412 0.66146,1.43125 0.66146,1.50472 0,0.0735 0.20836,0.3618 0.46302,0.64071 0.3146,0.34456 0.83826,0.51419 1.63362,0.52917 l 1.1706,0.0221 z m -17.23466,-3.65952 c 0.13998,-0.7276 0.34016,-1.56104 0.44485,-1.85208 0.15352,-0.42681 0.0844,-0.40122 -0.35757,0.13229 -0.38751,0.46781 -0.54964,1.04229 -0.5538,1.96233 -0.007,1.58097 0.12938,1.50999 0.46652,-0.24254 z m 11.69843,-3.51483 c 0,-0.11414 -0.38695,-0.43004 -0.85989,-0.70198 l -0.8599,-0.49444 0.66146,0.67407 c 0.68422,0.69727 1.05833,0.88191 1.05833,0.52235 z m -2.53504,-2.44326 c 0.16978,-0.16977 -0.11954,-0.25962 -0.83601,-0.25962 -1.07264,0 -1.56508,0.26734 -1.18765,0.64477 0.2371,0.2371 1.6751,-0.0366 2.02366,-0.38515 z m 58.80195,-3.50076 c -0.0734,-0.1819 -0.13345,-0.0331 -0.13345,0.33073 0,0.3638 0.06,0.51263 0.13345,0.33072 0.0734,-0.1819 0.0734,-0.47955 0,-0.66145 z m -2.86157,-1.49049 c 0.52108,-1.73923 1.61708,-3.45763 2.31739,-3.63339 0.65463,-0.1643 1.44745,-0.0632 2.29547,0.2927 0.4438,0.18626 0.46061,-0.0156 0.28785,-3.45797 -0.10935,-2.1789 -0.32581,-3.92854 -0.53583,-4.33097 -0.1938,-0.37136 -0.3531,-0.78029 -0.35399,-0.90875 -0.002,-0.34122 -1.08148,-1.22166 -1.49733,-1.22166 -0.19601,0 -0.35639,-0.11426 -0.35639,-0.25393 0,-0.13966 -0.32742,-0.23398 -0.7276,-0.2096 -0.40018,0.0244 -1.17409,-0.0453 -1.71979,-0.15493 -0.80445,-0.16156 -0.99219,-0.1219 -0.99219,0.2096 0,0.47925 -0.11112,0.50124 -0.73119,0.14468 -0.82505,-0.47441 -3.07288,-0.68324 -4.64712,-0.43173 -1.21393,0.19395 -1.75964,0.44889 -2.56591,1.19873 -0.56324,0.52382 -1.73229,1.58208 -2.5979,2.35169 -1.04899,0.93266 -1.53502,1.55028 -1.45745,1.85208 0.0731,0.28428 -0.38024,0.97206 -1.21807,1.84809 -0.97048,1.01472 -1.33445,1.60296 -1.33445,2.15667 v 0.76138 l 0.82173,-0.76761 c 0.92957,-0.86835 1.1074,-0.91551 1.53039,-0.40584 0.22837,0.27516 0.20445,0.44126 -0.0999,0.69385 -0.52375,0.43468 -0.50777,1.54004 0.0407,2.81467 l 0.44084,1.0245 0.18347,-0.84165 c 0.31927,-1.46463 0.83556,-1.7437 3.38807,-1.83131 1.26151,-0.0433 2.64804,-0.11444 3.08118,-0.15809 0.68744,-0.0693 0.80513,0.0191 0.92604,0.69547 0.17743,0.99251 1.18587,1.31607 2.34786,0.7533 0.99741,-0.48306 1.28562,-0.25975 2.0389,1.57972 0.28284,0.69068 0.58471,1.25623 0.67082,1.25677 0.0861,5.5e-4 0.29508,-0.46136 0.46439,-1.02647 z m 3.65337,-2.00383 c -0.0862,-0.22456 -0.27947,-0.40829 -0.42956,-0.40829 -0.38776,0 -0.33937,0.72591 0.0578,0.86777 0.44948,0.16053 0.55811,0.0263 0.37172,-0.45948 z m -25.17641,-25.80558 c -0.83174,-0.15105 -0.55322,-0.20024 1.30086,-0.22975 1.29756,-0.0206 2.3096,0.007 2.24897,0.0609 -0.26276,0.23451 -2.58117,0.34482 -3.54983,0.1689 z"
       id="path4" /></g></svg>
