<?xml version="1.0" encoding="UTF-8" standalone="no"?>
<!-- Created with Inkscape (http://www.inkscape.org/) -->

<svg
   width="180.06622mm"
   height="108.35283mm"
   viewBox="0 0 180.06622 108.35283"
   version="1.1"
   id="svg1"
   xml:space="preserve"
   xmlns="http://www.w3.org/2000/svg"
   xmlns:svg="http://www.w3.org/2000/svg"><defs
     id="defs1" /><g
     id="layer1"
     transform="translate(-183.77442,-180.38177)"><path
       style="fill:#4d4d4d"
       d="m 342.56818,288.25144 c -0.33966,-0.31644 -0.77742,-0.45456 -1.19046,-0.3756 -1.21479,0.23222 -1.93824,-1.51475 -1.03069,-2.48889 0.29805,-0.31991 0.5419,-0.93679 0.5419,-1.37085 0,-0.43406 0.11906,-0.86279 0.26458,-0.95272 0.50162,-0.31002 0.27795,-1.99279 -0.39687,-2.98588 -0.3638,-0.53538 -0.66146,-1.28021 -0.66146,-1.65518 0,-1.45635 -0.34885,-1.57657 -3.70417,-1.27658 -4.46336,0.39907 -15.11588,0.58205 -16.21515,0.27852 -0.81568,-0.22522 -1.17229,-0.14118 -2.8752,0.67758 -2.48593,1.19523 -2.80891,1.32161 -3.9284,1.5371 -0.50932,0.098 -1.0451,0.2618 -1.19062,0.36391 -0.23251,0.16315 -1.57993,0.59341 -4.23334,1.35178 -1.26116,0.36045 -5.42396,0.62357 -5.42396,0.34284 0,-0.45461 0.62724,-0.88305 1.29279,-0.88305 0.69906,0 3.77399,-0.68529 4.66034,-1.03862 0.29104,-0.11602 0.97969,-0.40605 1.53033,-0.6445 0.55064,-0.23845 1.32455,-0.44225 1.71979,-0.45289 0.39525,-0.0106 1.07582,-0.24612 1.51238,-0.52331 1.66411,-1.05658 6.13751,-3.16151 6.71886,-3.16151 0.33431,0 0.92385,-0.16739 1.31011,-0.37198 0.83463,-0.44207 4.75975,-1.6175 6.25853,-1.87419 0.58208,-0.0997 1.59412,-0.28284 2.24896,-0.40698 0.65484,-0.12415 2.56312,-0.23282 4.24061,-0.2415 3.66476,-0.019 3.92416,0.099 5.75259,2.61604 0.47009,0.64713 0.85651,1.48057 0.8587,1.85208 0.005,0.77862 0.43062,2.02624 1.26404,3.70174 0.60566,1.21761 0.7807,3.03869 0.31948,3.32374 -0.14552,0.0899 -0.26459,0.53578 -0.26459,0.99075 0,0.47681 -0.2359,1.07834 -0.55688,1.42001 -0.87218,0.92839 -0.33133,1.29628 0.57431,0.39065 0.62463,-0.62463 0.77632,-1.00494 0.77632,-1.9463 0,-0.79743 0.15407,-1.3094 0.48386,-1.60785 0.26612,-0.24083 0.54788,-0.43788 0.62613,-0.43788 0.31703,0 -0.1368,3.85916 -0.50314,4.27842 -0.34312,0.3927 -0.32429,0.47508 0.16888,0.73902 0.68346,0.36577 0.71986,0.27248 0.90856,-2.32825 0.13211,-1.8208 0.45307,-2.68919 0.99394,-2.68919 0.12771,0 0.23615,0.98226 0.24099,2.18281 0.007,1.78319 0.10528,2.29866 0.53578,2.81561 0.77731,0.93338 0.92145,0.49595 0.425,-1.2897 -0.4553,-1.63761 -0.55675,-2.71044 -0.28226,-2.98494 0.4259,-0.42589 0.88274,0.2712 1.18966,1.81528 0.3036,1.5274 0.38193,1.66542 0.74126,1.30609 0.31382,-0.31382 0.33186,-0.47171 0.0824,-0.72118 -0.17567,-0.17566 -0.31939,-0.65438 -0.31939,-1.06381 0,-0.40943 -0.14432,-0.97552 -0.32071,-1.25797 -0.39112,-0.62628 -0.0787,-1.01685 0.51415,-0.64286 0.45489,0.28693 0.72476,0.70613 0.98123,1.52411 0.11188,0.35685 0.2449,0.41775 0.48211,0.22074 0.21939,-0.18222 0.32345,-1.08783 0.31505,-2.74178 -0.0106,-2.08007 -0.13065,-2.76188 -0.76119,-4.32178 -0.8169,-2.02096 -1.45734,-4.05004 -1.67021,-5.29166 -0.0748,-0.43657 -0.26995,-0.96072 -0.43357,-1.16478 -0.16993,-0.21194 -0.31539,-1.53888 -0.33923,-3.09464 -0.023,-1.49799 -0.12538,-2.85893 -0.22759,-3.02431 -0.33631,-0.54416 -2.53894,-1.32521 -3.3977,-1.20481 -1.19818,0.16798 -2.07899,0.45002 -2.67569,0.85675 -0.28704,0.19566 -0.73514,0.35575 -0.99578,0.35575 -0.26064,0 -0.68063,0.10499 -0.93332,0.23332 -1.30383,0.66217 -3.75265,0.89275 -11.83651,1.11451 -9.48021,0.26007 -13.99482,0.5577 -15.54717,1.02495 -1.43816,0.43289 -3.69829,1.66248 -3.90623,2.12513 -0.52308,1.16383 -1.04493,1.98208 -1.32326,2.07486 -0.21544,0.0718 -0.25408,-0.0912 -0.12376,-0.5222 0.26406,-0.87321 0.99332,-2.45196 1.20608,-2.61099 0.31605,-0.23623 2.5008,-4.59914 2.86716,-5.72564 0.19593,-0.60249 0.63916,-1.42468 0.98494,-1.82709 0.34579,-0.40241 0.6287,-0.92745 0.6287,-1.16676 0,-0.2393 0.10688,-0.5482 0.23751,-0.68645 0.13062,-0.13824 0.35448,-1.15053 0.49746,-2.24952 0.14298,-1.099 0.57188,-2.6801 0.95312,-3.51357 0.38124,-0.83347 0.69316,-1.67838 0.69316,-1.87757 0,-0.19919 0.32742,-1.00308 0.7276,-1.78642 0.40018,-0.78333 0.89666,-1.83722 1.10329,-2.34197 0.20662,-0.50474 0.45047,-0.97725 0.54189,-1.05001 0.0914,-0.0728 0.38941,-0.88212 0.66222,-1.79858 0.27281,-0.91646 0.59451,-1.72715 0.71488,-1.80155 0.40533,-0.25051 0.23667,-0.88801 -0.19147,-0.72372 -0.23035,0.0884 -0.66556,-0.0816 -0.99219,-0.38755 -0.32001,-0.29976 -0.93903,-0.69052 -1.3756,-0.86835 -1.92737,-0.78509 -3.48451,-1.28279 -4.03848,-1.29078 -0.3294,-0.005 -0.80565,-0.11018 -1.05834,-0.23429 -0.25268,-0.12411 -0.93568,-0.43505 -1.51776,-0.69097 -0.58208,-0.25593 -1.35599,-0.63226 -1.71979,-0.8363 -0.3638,-0.20403 -1.55443,-0.80254 -2.64584,-1.33001 -1.0914,-0.52747 -2.34169,-1.22367 -2.77841,-1.54712 l -0.79404,-0.58809 0.0928,2.04407 c 0.0911,2.00688 -0.57729,5.29074 -1.07692,5.29074 -0.11327,0 -0.20595,0.28915 -0.20595,0.64256 0,0.35341 -0.15998,0.80254 -0.35551,0.99808 -0.19554,0.19553 -0.68617,0.87929 -1.09029,1.51947 -0.40413,0.64017 -0.96313,1.40906 -1.24222,1.70863 -0.2791,0.29958 -0.56957,0.84471 -0.64549,1.21141 -0.0759,0.3667 -0.22573,0.84532 -0.33293,1.0636 -0.10719,0.21828 -0.41433,1.11125 -0.68254,1.98437 -0.2682,0.87313 -0.58254,1.82563 -0.69853,2.11667 -0.11599,0.29104 -0.28558,0.79596 -0.37687,1.12205 -0.27133,0.96919 -2.55255,1.48719 -5.80172,1.3174 -2.50806,-0.13106 -4.38431,-0.57709 -4.38431,-1.04225 0,-0.11361 -0.32742,-0.20702 -0.72761,-0.20756 -0.89468,-0.001 -1.91208,-0.63354 -3.63802,-2.26106 -0.7276,-0.68611 -1.59213,-1.4249 -1.92117,-1.64174 -0.60476,-0.39855 -1.27802,-1.60706 -1.43649,-2.57851 -0.0657,-0.40288 -0.32699,-0.54902 -1.09477,-0.61238 -1.17635,-0.0971 -1.70165,0.25035 -1.81572,1.20089 -0.11079,0.92323 -1.40668,1.90459 -1.8685,1.41499 -0.26432,-0.28021 -0.25759,-0.37618 0.0338,-0.48214 0.65213,-0.23714 1.35599,-1.11187 1.35599,-1.68518 0,-0.6546 1.48337,-3.18239 2.63298,-4.4868 0.43898,-0.49809 0.80178,-1.08422 0.80622,-1.3025 0.009,-0.42692 0.64601,-2.35997 1.02609,-3.11221 0.12774,-0.25282 0.37963,-0.93592 0.55976,-1.518 0.41133,-1.32917 0.82337,-2.29137 2.28906,-5.34551 1.14133,-2.37825 2.14944,-3.51803 3.11163,-3.51803 0.23219,0 0.42217,-0.18021 0.42217,-0.40047 0,-0.22025 0.10906,-0.6072 0.24234,-0.85989 0.13329,-0.25269 0.43607,-0.90493 0.67284,-1.44943 0.29732,-0.68375 0.65206,-1.04382 1.14672,-1.16396 0.76416,-0.18559 1.9426,-0.88875 1.48948,-0.88875 -0.1488,0 -0.38365,0.10462 -0.5219,0.23249 -0.13824,0.12787 -0.69939,0.31215 -1.24699,0.40951 -0.76943,0.1368 -1.0314,0.0838 -1.15302,-0.23308 -0.2136,-0.55664 0.0746,-1.60435 0.58046,-2.11021 0.37744,-0.37745 0.37741,-0.41538 -4e-4,-0.41538 -0.22868,0 -0.41578,0.16586 -0.41578,0.36857 0,0.36275 -0.75848,0.81322 -0.98607,0.58564 -0.14437,-0.14437 1.64008,-2.98721 2.38429,-3.79848 0.30036,-0.32742 0.44115,-0.59531 0.31286,-0.59531 -0.12829,0 -0.96351,0.79392 -1.85606,1.76427 -1.27383,1.38487 -1.72985,1.7232 -2.12056,1.57327 -0.28143,-0.10799 -0.38533,-0.27106 -0.23908,-0.37521 0.37974,-0.27041 1.5903,-1.96239 1.78819,-2.49931 0.31243,-0.84766 -0.55052,-0.50188 -1.32062,0.52917 -0.40759,0.5457 -0.88075,1.14037 -1.05147,1.32149 -0.17072,0.18111 -0.52791,0.59843 -0.79375,0.92737 -0.60649,0.75045 -1.93153,1.61668 -2.14556,1.40264 -0.0886,-0.0886 -0.18534,-0.30647 -0.21497,-0.48416 -0.0296,-0.17769 -0.22423,-0.64444 -0.43242,-1.03723 -0.35318,-0.66631 -0.3988,-0.46526 -0.68079,3.00072 -0.18105,2.22528 -0.46433,4.03978 -0.70645,4.52512 -0.22231,0.44563 -0.4042,0.92278 -0.4042,1.06034 0,0.25028 -0.62452,1.77697 -1.08058,2.64158 -0.13329,0.25268 -0.24234,0.598 -0.24234,0.76737 0,0.8102 -1.52206,3.25439 -3.046,4.89141 -0.93148,1.00061 -2.06714,2.55814 -2.52369,3.46119 -0.96724,1.91319 -1.48634,2.46642 -1.72665,1.84018 -0.0874,-0.22769 0.19534,-1.11099 0.62825,-1.9629 l 0.7871,-1.54893 -0.71255,-0.31541 c -0.44825,-0.19841 -0.88455,-0.73268 -1.17622,-1.44033 -0.25501,-0.61871 -0.57573,-1.33178 -0.71272,-1.5846 -0.44523,-0.8217 -1.03472,-2.70065 -1.03867,-3.31064 -0.002,-0.32743 -0.1,-0.59532 -0.21751,-0.59532 -0.11752,0 -0.43254,-0.50601 -0.70004,-1.12448 -0.2675,-0.61846 -0.89933,-1.69474 -1.40406,-2.39173 -1.01676,-1.40405 -1.55951,-3.09837 -0.99253,-3.09837 0.18599,0 0.40371,-0.25067 0.48383,-0.55704 0.26492,-1.01308 0.83711,-0.36147 1.08726,1.23816 0.13485,0.86231 0.31345,1.62737 0.39688,1.70013 0.0834,0.0728 0.27652,0.35897 0.42908,0.63603 0.38779,0.70426 2.36753,1.25253 3.95595,1.09556 1.47632,-0.14589 2.57843,-0.40882 2.77812,-0.6628 0.0728,-0.0925 0.51015,-0.43202 0.97196,-0.75442 0.48807,-0.34073 0.91206,-0.91577 1.01255,-1.37328 0.0951,-0.43291 0.28277,-0.85503 0.4171,-0.93805 0.13432,-0.083 0.24423,-0.97735 0.24423,-1.98741 0,-1.77199 -0.035,-1.87129 -0.99742,-2.82865 -1.46297,-1.45531 -3.78073,-2.49374 -5.87011,-2.62999 -2.51624,-0.16409 -3.06804,-0.30642 -2.68251,-0.69195 0.19366,-0.19366 1.15639,-0.31608 2.48566,-0.31608 2.08912,0 2.63543,0.14309 4.78176,1.25248 0.48429,0.25032 0.48429,0.24079 0,-0.42099 -0.27253,-0.37242 -0.83341,-0.79861 -1.24641,-0.9471 -0.41299,-0.14849 -0.81383,-0.51065 -0.89075,-0.80479 -0.15076,-0.5765 -0.47671,-0.6956 -0.7396,-0.27023 -0.20146,0.32597 -3.49726,0.31969 -5.29166,-0.0101 -0.72761,-0.13372 -1.91823,-0.31628 -2.64584,-0.4057 -1.18729,-0.14591 -2.53065,-0.67838 -4.69724,-1.86185 -0.77469,-0.42316 -1.52555,-1.61722 -1.51271,-2.40558 0.006,-0.37752 0.1659,-0.3024 0.77115,0.36261 0.81111,0.89121 2.95125,2.20394 3.59308,2.20394 0.74101,0 2.58192,-1.80911 3.0819,-3.02866 0.18214,-0.44429 0.60359,-1.10424 0.93656,-1.46656 0.33296,-0.36231 0.60539,-0.92083 0.60539,-1.24115 0,-0.32032 0.11906,-0.65599 0.26458,-0.74593 0.14552,-0.0899 0.26458,-0.37632 0.26458,-0.63642 0,-0.41661 0.41649,-1.49278 1.02705,-2.65382 0.10986,-0.2089 0.0725,-0.65446 -0.0829,-0.99012 -0.22017,-0.47535 -0.49861,-0.61075 -1.25924,-0.61236 -0.53712,-0.001 -1.03965,0.1 -1.11675,0.22475 -0.0771,0.12474 -0.76287,0.30056 -1.52392,0.3907 -1.48435,0.17579 -2.60047,1.02262 -2.60047,1.97303 0,0.27334 -0.32742,0.80208 -0.7276,1.17498 -0.40018,0.3729 -1.29131,1.28555 -1.98029,2.02811 -0.68898,0.74256 -1.38433,1.35011 -1.54523,1.35011 -0.98962,0 -3.29486,2.48942 -2.67288,2.88644 0.13466,0.0859 0.49749,0.57299 0.8063,1.08231 0.30881,0.50933 0.56192,0.77722 0.56246,0.59532 0.002,-0.56518 0.54956,-0.36593 1.35005,0.491 1.19504,1.2793 0.87085,2.1733 -0.39762,1.0965 -0.52164,-0.44282 -0.52939,-0.44233 -0.17757,0.0112 0.29007,0.37393 0.29935,0.54181 0.0439,0.79375 -0.25395,0.25044 -0.49175,0.13272 -1.10004,-0.54456 l -0.77606,-0.86407 0.008,3.50991 c 0.006,2.54854 0.1075,3.64056 0.37016,3.98695 0.26824,0.35375 0.39428,0.38794 0.48768,0.13229 0.0951,-0.26025 0.20513,-0.27042 0.44904,-0.0415 0.25338,0.23781 0.22472,0.51058 -0.13281,1.26402 -0.52905,1.11489 -0.43339,2.78531 0.2364,4.12792 0.23826,0.47761 0.4332,1.18383 0.4332,1.56936 0,0.99539 2.65467,4.59683 3.81564,5.17647 0.29766,0.14862 0.66002,0.62487 0.80524,1.05834 0.14522,0.43347 1.06677,1.54758 2.04789,2.47581 0.98112,0.92823 1.85915,1.92493 1.95118,2.2149 0.092,0.28997 0.89887,1.26563 1.79296,2.16813 0.8941,0.9025 1.92329,1.99042 2.28709,2.41759 0.36381,0.42718 1.06657,1.07331 1.56171,1.43586 0.49513,0.36254 1.3881,1.10267 1.98437,1.64474 1.77945,1.61768 0.37184,1.23841 -2.15701,-0.58119 -1.20055,-0.86384 -2.18282,-1.51238 -2.18282,-1.44121 0,0.49379 2.06183,3.0212 2.46466,3.0212 0.14328,0 0.88269,0.65273 1.64313,1.4505 0.76286,0.80031 1.9179,1.67995 2.57678,1.96238 0.6568,0.28153 1.23716,0.61379 1.2897,0.73835 0.0885,0.20975 4.18674,2.30271 5.38719,2.7512 1.85918,0.6946 2.94051,0.8267 7.88012,0.96264 3.02438,0.0832 5.56163,0.25287 5.63832,0.37696 0.641,1.03717 -8.13977,1.21611 -10.60802,0.21619 -0.29104,-0.1179 -1.24354,-0.28049 -2.11667,-0.36131 -1.73564,-0.16065 -4.68208,-1.4427 -6.74687,-2.9357 -0.65485,-0.4735 -1.48828,-0.9522 -1.85209,-1.06378 -0.3638,-0.11158 -1.3163,-0.87303 -2.11666,-1.69211 -0.80037,-0.81908 -1.91027,-1.82701 -2.46644,-2.23985 -0.55618,-0.41284 -1.08527,-0.94354 -1.17575,-1.17933 -0.24834,-0.64717 -1.40215,-1.86637 -1.9226,-2.03156 -0.25303,-0.0803 -0.79702,-0.64833 -1.20888,-1.26227 -0.80687,-1.20279 -1.56543,-2.04231 -1.84536,-2.04231 -0.30713,0 -2.11868,-1.95435 -2.63644,-2.84427 -0.27516,-0.47294 -0.59935,-0.85989 -0.72043,-0.85989 -0.37695,0 -2.84077,-2.59994 -2.84077,-2.99772 0,-0.20739 -0.16758,-0.51615 -0.3724,-0.68614 -0.29677,-0.24629 -0.55202,-0.13062 -1.25677,0.56955 -1.09754,1.09039 -2.63304,1.67157 -3.3718,1.2762 -0.28627,-0.15321 -0.7578,-0.27856 -1.04785,-0.27856 -0.29005,0 -0.76149,-0.29766 -1.04766,-0.66146 -0.29743,-0.37812 -0.793,-0.66146 -1.15691,-0.66146 -0.35014,0 -0.7775,-0.14089 -0.9497,-0.31309 -0.1722,-0.1722 -0.38249,-0.24369 -0.4673,-0.15888 -0.16245,0.16245 10.3493,10.79044 10.6731,10.79112 0.10335,2.2e-4 0.92649,0.6992 1.8292,1.55329 0.90271,0.8541 2.48029,2.17487 3.50573,2.93507 1.02544,0.76019 1.86444,1.49419 1.86444,1.63111 0,0.13691 0.50602,0.4764 1.12448,0.7544 0.61847,0.27801 1.65595,0.98816 2.30552,1.5781 0.64957,0.58995 1.26614,1.07263 1.37016,1.07263 0.10402,0 0.34646,0.15015 0.53876,0.33367 0.19229,0.18352 1.48072,0.90943 2.86317,1.61314 1.38245,0.70371 2.69213,1.43725 2.91041,1.63009 0.21829,0.19285 0.72543,0.43262 1.12698,0.53284 0.40156,0.10022 0.79554,0.28809 0.87551,0.41749 0.08,0.1294 0.43766,0.23527 0.79484,0.23527 0.35719,0 0.85618,0.10848 1.10887,0.24107 1.12033,0.58785 4.26669,1.49455 9.26062,2.66867 0.62055,0.14589 2.07907,0.26526 3.24115,0.26526 1.16208,0 2.11287,0.10369 2.11287,0.23041 0,0.58435 -5.64937,0.60635 -7.94891,0.031 -0.64857,-0.16229 -1.65547,-0.40362 -2.23755,-0.53629 -1.28916,-0.29383 -2.96742,-0.88451 -3.21416,-1.13125 -0.0997,-0.0997 -0.42937,-0.18511 -0.73254,-0.18974 -0.30317,-0.005 -0.78233,-0.18322 -1.06481,-0.39688 -0.28247,-0.21365 -0.80445,-0.38846 -1.15994,-0.38846 -0.71202,0 -4.30961,-1.75197 -6.04706,-2.94483 -0.6083,-0.41763 -1.26527,-0.75933 -1.45993,-0.75933 -0.37741,0 -2.28418,-1.18744 -2.72573,-1.69745 -0.14552,-0.16808 -1.27661,-1.03768 -2.51354,-1.93243 -1.23693,-0.89476 -2.57118,-1.93235 -2.96501,-2.30577 -0.39384,-0.37341 -0.78647,-0.67894 -0.87253,-0.67894 -0.0861,0 -0.41868,-0.26938 -0.73916,-0.59862 -0.32047,-0.32925 -1.13643,-1.04193 -1.81325,-1.58375 -1.67716,-1.34263 -9.53855,-9.16524 -11.48103,-11.42439 -0.86674,-1.00804 -1.84379,-2.10396 -2.17121,-2.43537 -0.98896,-1.00101 -0.7858,-1.42037 0.68812,-1.42037 2.42979,0 3.90711,-0.89204 4.29018,-2.59052 0.20667,-0.91633 0.16354,-0.97855 -2.72605,-3.93277 -1.61483,-1.65094 -3.04039,-3.00171 -3.16791,-3.00171 -0.24628,0 -2.05572,-1.58415 -2.94654,-2.57968 -0.29299,-0.32743 -0.69219,-0.59532 -0.88712,-0.59532 -0.43355,0 -2.15749,-1.06966 -3.06486,-1.90165 -0.36702,-0.33654 -1.06582,-0.80678 -1.55287,-1.04497 -4.97398,-2.43256 -7.17599,-3.43115 -7.87387,-3.57073 -0.45535,-0.0911 -0.89198,-0.26926 -0.9703,-0.39599 -0.0783,-0.12672 -0.64139,-0.23459 -1.25127,-0.2397 -0.60987,-0.005 -1.88277,-0.17952 -2.82865,-0.38758 -2.312,-0.50855 -8.36558,-0.50857 -11.02308,-5e-5 -1.14059,0.21826 -2.40284,0.39685 -2.80499,0.39688 -0.40216,2e-5 -0.93794,0.11275 -1.19063,0.25051 -0.25269,0.13776 -1.11427,0.45071 -1.91464,0.69545 -0.80036,0.24474 -1.6338,0.59463 -1.85208,0.77752 -0.57562,0.48232 -2.54227,1.38677 -3.44789,1.58568 -0.42866,0.0941 -0.8473,0.28108 -0.93032,0.41541 -0.083,0.13432 -0.4118,0.24372 -0.73064,0.24311 -0.35877,-6.9e-4 -1.14383,0.57908 -2.06001,1.52135 -0.81418,0.83736 -1.84071,1.78677 -2.28118,2.10981 -0.44046,0.32303 -0.98915,0.98416 -1.21931,1.46917 -0.23015,0.48501 -0.67386,1.11297 -0.98601,1.39547 -0.73893,0.66872 -2.4699,3.66317 -2.89879,5.01469 -0.18471,0.58208 -0.43518,1.29646 -0.5566,1.5875 -0.55967,1.34154 -1.02148,2.97362 -1.02498,3.6224 -0.002,0.3916 -0.12292,0.78558 -0.26844,0.87551 -0.33446,0.20671 -0.35606,7.3395 -0.0233,7.68615 0.13272,0.13824 0.30345,0.9062 0.3794,1.70656 0.2374,2.5018 0.76675,5.29167 1.00404,5.29167 0.12504,0 0.22734,0.28305 0.22734,0.629 0,0.34595 0.18728,1.50681 0.41617,2.57969 0.41175,1.92992 0.90318,3.16381 2.6525,6.65998 0.49505,0.98939 0.90694,2.00142 0.91533,2.24896 0.008,0.24754 0.27628,0.82417 0.59532,1.28139 0.31903,0.45722 1.28396,1.85824 2.14428,3.11337 0.86033,1.25513 2.13595,2.9051 2.83472,3.6666 1.23557,1.34648 1.27076,1.3644 1.28005,0.65169 0.005,-0.40308 -0.26104,-1.17698 -0.59177,-1.71979 -1.19109,-1.95493 -2.2712,-4.53702 -3.01375,-7.20464 -1.02916,-3.69725 -1.52758,-5.24749 -1.97665,-6.14797 -0.12601,-0.25269 -0.22912,-0.73489 -0.22912,-1.07157 0,-0.33667 -0.10331,-0.72524 -0.22957,-0.86348 -0.55407,-0.60661 -1.62227,-7.17944 -1.62285,-9.9856 -3.9e-4,-1.92952 0.47844,-5.91129 0.8021,-6.66992 0.12416,-0.29104 0.30168,-0.91612 0.39448,-1.38906 0.0928,-0.47295 0.27833,-0.8599 0.41228,-0.8599 0.13396,0 0.24356,-0.1603 0.24356,-0.35623 0,-0.48205 0.73887,-1.98083 1.45482,-2.95106 0.32214,-0.43656 0.66591,-1.0475 0.76393,-1.35764 0.098,-0.31014 0.4098,-0.84592 0.69286,-1.19062 0.58148,-0.70814 0.5655,-0.69221 1.91704,-1.91109 0.5457,-0.49214 0.99219,-1.02412 0.99219,-1.18217 0,-0.34437 2.326,-2.16369 2.76628,-2.16369 0.16992,0 0.53975,-0.21399 0.82185,-0.47553 0.63309,-0.58694 4.72268,-2.57724 5.80458,-2.82493 2.95629,-0.67683 13.53545,-0.77485 15.61041,-0.14464 0.43657,0.13259 1.50813,0.44538 2.38125,0.69508 0.87313,0.24971 1.7661,0.54381 1.98438,0.65356 0.21828,0.10976 1.34937,0.64131 2.51354,1.18124 3.30409,1.53239 3.83646,1.8146 3.83646,2.03372 0,0.11243 0.14928,0.20442 0.33172,0.20442 0.18245,0 1.00654,0.62507 1.83132,1.38906 0.82477,0.76398 1.9826,1.80578 2.57295,2.3151 0.59034,0.50933 1.14783,1.16417 1.23885,1.45521 0.091,0.29104 0.6294,0.97543 1.19637,1.52085 0.56698,0.54543 1.03087,1.12555 1.03087,1.28917 0,0.42759 -0.57055,-0.0469 -3.20282,-2.66347 -3.11833,-3.09975 -3.58714,-3.50621 -5.31248,-4.60587 -0.82711,-0.52717 -1.57827,-1.07894 -1.66926,-1.22615 -0.091,-0.14721 -0.43587,-0.26765 -0.76642,-0.26765 -0.33055,0 -1.18673,-0.30288 -1.90261,-0.67306 -1.51398,-0.78286 -4.26975,-1.74603 -6.74628,-2.35789 -1.39828,-0.34546 -2.80289,-0.4113 -7.14375,-0.33482 -3.04079,0.0536 -5.98167,0.23778 -6.72617,0.4213 -0.7276,0.17936 -2.78525,1.05212 -4.57255,1.93947 -3.12668,1.5523 -3.59407,1.90632 -6.01976,4.55945 -0.29599,0.32373 -0.71341,0.69821 -0.92761,0.83218 -1.1749,0.73481 -4.16697,6.54681 -4.88273,9.48455 -0.948,3.89091 -0.4821,10.96659 1.05528,16.02673 0.24317,0.80037 0.50956,1.75287 0.59199,2.11667 0.0824,0.3638 0.23005,0.72099 0.32806,0.79375 0.28557,0.212 1.06586,3.26399 1.06586,4.16893 0,0.45481 0.11906,0.90051 0.26458,0.99044 0.14553,0.0899 0.26459,0.33184 0.26459,0.53755 0,0.34906 0.47849,1.48367 2.0141,4.77586 0.34496,0.73956 0.70542,1.75159 0.80103,2.24896 0.0956,0.49736 0.41322,1.24693 0.70581,1.66571 0.29394,0.4207 0.58756,1.36784 0.65618,2.11667 0.14928,1.62894 -0.23033,1.42964 -0.60712,-0.31876 -0.14654,-0.68002 -0.38467,-1.23734 -0.52916,-1.23847 -0.97768,-0.008 -2.98112,-1.56531 -3.96688,-3.08411 -0.49066,-0.75597 -3.40391,-4.58556 -3.58987,-4.71903 -0.10137,-0.0728 -0.38161,-0.71581 -0.62275,-1.429 -0.24113,-0.71318 -0.67187,-1.62453 -0.95718,-2.02522 -0.28531,-0.40068 -0.51875,-0.81456 -0.51875,-0.91974 0,-0.10517 -0.42194,-1.05675 -0.93766,-2.11462 -0.51571,-1.05787 -1.04403,-2.50125 -1.17404,-3.20752 -0.13001,-0.70626 -0.55556,-2.4152 -0.94566,-3.79765 -1.42015,-5.03277 -1.78276,-7.9032 -1.62108,-12.83229 0.11767,-3.58711 0.48263,-5.81425 1.04491,-6.37654 0.10667,-0.10667 0.19395,-0.3706 0.19395,-0.5865 0,-0.38319 0.6795,-1.97157 2.01774,-4.71658 0.36489,-0.74847 1.07717,-1.82004 1.58284,-2.38125 0.50567,-0.56121 1.11006,-1.41462 1.34307,-1.89646 0.23302,-0.48184 0.72645,-1.07715 1.09651,-1.32291 0.37007,-0.24577 1.34956,-1.12515 2.17666,-1.9542 0.8271,-0.82904 2.08488,-1.83097 2.79506,-2.2265 0.71019,-0.39554 1.41234,-0.88305 1.56034,-1.08336 0.29085,-0.39366 1.01622,-0.83923 2.57518,-1.58185 0.5457,-0.25995 0.99219,-0.56362 0.99219,-0.67481 0,-0.11119 0.26076,-0.20217 0.57948,-0.20217 0.48233,0 2.31516,-0.7651 4.51015,-1.88273 0.25269,-0.12866 0.69918,-0.23393 0.99219,-0.23393 0.29302,0 0.53276,-0.10329 0.53276,-0.22953 0,-0.27618 1.85146,-0.70984 5.42396,-1.27043 3.58303,-0.56224 13.483,-0.13535 15.67656,0.67598 0.76398,0.28257 1.38906,0.472 1.38906,0.42095 0,-0.0511 -0.43559,-0.50377 -0.96797,-1.00604 -0.83366,-0.78651 -0.98456,-1.11325 -1.08751,-2.35464 -0.22821,-2.75196 1.3813,-4.50439 6.45821,-7.03168 2.6134,-1.30094 5.88649,-1.73253 7.35026,-0.9692 0.93067,0.48533 1.39858,0.17293 0.96222,-0.64242 -0.1842,-0.34417 -0.55769,-0.55758 -0.97586,-0.55758 -0.3726,0 -1.03672,-0.25582 -1.47583,-0.5685 -0.80902,-0.57606 -1.66979,-2.16993 -1.40408,-2.59986 0.0798,-0.12906 0.024,-0.30944 -0.12387,-0.40084 -0.37318,-0.23064 -0.33737,-2.59842 0.0529,-3.49595 0.66178,-1.52206 1.5894,-2.51024 2.23971,-2.38593 0.62086,0.11869 0.83508,-0.17034 0.34894,-0.47079 -0.4894,-0.30247 -0.27012,-2.03489 0.41747,-3.29821 0.52629,-0.96699 1.17582,-1.57937 2.84427,-2.68164 l 2.16221,-1.42848 3.83646,-0.0169 c 6.50861,-0.0287 6.43906,-0.0447 8.38645,1.93169 1.53233,1.55512 2.72605,3.46924 2.72605,4.37116 0,0.81079 1.30236,3.01243 1.95892,3.31159 0.3778,0.17213 0.68785,0.46436 0.68898,0.64938 0.003,0.43149 1.21747,0.99786 2.14035,0.99786 0.39269,0 1.23216,-0.29623 1.86548,-0.65827 0.63331,-0.36205 1.35984,-0.65971 1.6145,-0.66146 0.25466,-0.002 0.46302,-0.0959 0.46302,-0.20913 0,-0.35367 3.00428,-1.11698 4.39627,-1.11698 1.64971,0 4.20922,0.45621 5.26103,0.93773 0.43656,0.19985 1.37651,0.57664 2.08877,0.8373 0.71227,0.26066 1.42664,0.7047 1.5875,0.98675 0.33615,0.58939 1.55305,2.03793 2.59539,3.08944 0.39348,0.39694 0.91391,1.32854 1.1565,2.07023 0.29303,0.89589 0.71273,1.54197 1.25038,1.9248 0.44511,0.31695 1.23437,1.05278 1.75392,1.63517 0.51954,0.58239 1.72759,1.84882 2.68456,2.81429 0.95697,0.96546 1.94009,2.04114 2.18472,2.39039 0.24463,0.34925 1.15829,1.373 2.03037,2.27499 0.87208,0.90199 1.58559,1.78577 1.58559,1.96395 0,0.17819 0.29766,0.71422 0.66146,1.19119 0.36381,0.47697 0.66146,0.98148 0.66146,1.12115 0,0.13966 0.16733,0.31813 0.37184,0.39661 0.4573,0.17548 1.86392,2.19452 2.13782,3.06859 0.1105,0.35262 0.40315,0.85819 0.65033,1.12351 0.24718,0.26531 0.7174,1.01899 1.04495,1.67484 0.32754,0.65584 0.81583,1.31034 1.08508,1.45444 0.26926,0.1441 0.64766,0.41161 0.84091,0.59446 0.19325,0.18286 1.04161,0.78391 1.88525,1.33568 0.84364,0.55176 1.60052,1.17684 1.68196,1.38906 0.0814,0.21222 0.34969,0.38585 0.59612,0.38585 0.612,0 3.03041,2.06494 3.5727,3.05053 0.24258,0.44086 0.69077,0.91711 0.99598,1.05833 0.30521,0.14122 0.80661,0.733 1.11422,1.31506 0.30762,0.58206 0.6486,1.098 0.75774,1.14652 0.10914,0.0485 0.19844,0.30942 0.19844,0.57974 0,0.27033 0.12534,0.56898 0.27854,0.66366 0.15321,0.0947 0.23208,0.31007 0.17528,0.47864 -0.0568,0.16856 0.11551,0.69705 0.38291,1.17442 0.2674,0.47737 0.48618,1.04292 0.48618,1.25677 0,0.21386 0.14883,0.38933 0.33073,0.38994 0.1819,6.1e-4 0.89891,0.28938 1.59336,0.64172 1.72958,0.87753 2.62849,1.03392 3.81328,0.66342 1.25877,-0.39363 3.8639,-0.71682 7.57127,-0.93927 2.64205,-0.15853 3.03123,-0.11682 5.15938,0.55303 2.06256,0.6492 4.39479,1.58341 5.67162,2.27186 0.25269,0.13624 0.68925,0.24771 0.97014,0.24771 0.28089,0 0.5504,0.0968 0.5989,0.21503 0.0485,0.11827 0.74304,0.69898 1.54341,1.29047 0.80036,0.59149 1.74385,1.38769 2.09664,1.76934 0.35279,0.38165 0.78566,0.69391 0.96194,0.69391 0.59571,0 3.1452,1.70587 4.34975,2.91042 0.0728,0.0728 0.53735,0.35808 1.03242,0.63403 1.2745,0.71043 4.78841,4.48312 4.78841,5.14106 0,0.21346 0.3939,0.87663 0.87534,1.4737 1.99739,2.47714 2.82031,4.40385 3.11932,7.30329 0.45188,4.38188 0.5612,8.1269 0.28962,9.92188 -0.16919,1.11826 -0.19613,2.5859 -0.068,3.70416 0.11672,1.01865 0.11537,1.95861 -0.003,2.0888 -0.22078,0.24282 -0.36415,-0.23586 -0.6256,-2.0888 -0.46609,-3.30323 -1.0555,-5.62581 -1.55425,-6.12457 -0.0997,-0.0997 -0.18133,-0.37035 -0.18133,-0.60138 0,-0.57154 -2.01839,-4.71561 -2.80444,-5.75795 -0.34933,-0.46324 -0.63515,-0.90972 -0.63515,-0.99219 0,-0.23744 -1.87995,-2.0457 -3.17966,-3.0584 -0.65228,-0.50824 -1.22565,-1.01425 -1.27416,-1.12448 -0.0485,-0.11022 -0.20236,-0.2004 -0.34189,-0.2004 -0.26625,0 -0.67323,-0.29417 -1.6848,-1.21778 -0.33511,-0.30597 -1.03929,-0.62609 -1.56482,-0.71137 -0.52554,-0.0853 -1.28182,-0.37716 -1.68062,-0.64862 -0.3988,-0.27145 -1.26087,-0.70973 -1.91571,-0.97394 -0.65485,-0.26421 -1.42875,-0.57811 -1.7198,-0.69754 -3.26564,-1.3401 -11.27124,-1.32817 -14.55208,0.0217 -0.29104,0.11975 -1.12448,0.4172 -1.85208,0.661 -0.72761,0.24381 -1.7817,0.67033 -2.34244,0.94784 -0.56074,0.2775 -1.51324,0.58071 -2.11667,0.67379 -0.60343,0.0931 -1.3948,0.3694 -1.7586,0.61405 -1.69096,1.13709 -5.84607,2.94963 -6.54289,2.85413 -0.67505,-0.0925 -0.61698,-0.15466 0.73264,-0.78396 0.80619,-0.37591 1.62444,-0.87462 1.81834,-1.10825 0.19389,-0.23363 0.4637,-0.42478 0.59956,-0.42478 0.13587,0 0.93564,-0.34165 1.77727,-0.75923 0.84163,-0.41758 1.99581,-0.90284 2.56484,-1.07837 0.56904,-0.17552 1.57039,-0.58817 2.22524,-0.91699 0.65484,-0.32881 1.7264,-0.75796 2.38125,-0.95366 0.65484,-0.1957 1.32237,-0.45384 1.4834,-0.57364 0.73172,-0.5444 3.28957,-0.83391 8.24239,-0.93292 5.20264,-0.10401 5.42036,-0.0871 7.40834,0.57628 1.12649,0.3759 2.28192,0.81631 2.56764,0.9787 1.39082,0.79048 3.46119,1.80775 3.67917,1.80775 0.29564,0 3.00532,1.77343 3.7226,2.43636 0.2821,0.26073 0.61247,0.47405 0.73415,0.47405 0.12168,0 0.33441,0.29766 0.47273,0.66146 0.13831,0.3638 0.39875,0.66146 0.57875,0.66146 0.35581,0 2.59625,2.098 2.59625,2.4312 0,0.1124 0.394,0.83175 0.87555,1.59856 0.89823,1.43028 1.99797,3.64019 2.57007,5.16451 0.41157,1.09656 0.90871,1.13416 0.69235,0.0524 -0.0888,-0.44414 -0.2334,-2.14078 -0.32127,-3.77031 -0.0879,-1.62953 -0.28207,-3.37951 -0.43155,-3.88883 -0.40972,-1.396 -1.80878,-4.26741 -2.37578,-4.87601 -0.27558,-0.2958 -0.79524,-1.13541 -1.1548,-1.8658 -0.35956,-0.73039 -1.24633,-1.91406 -1.9706,-2.63037 -0.72427,-0.71632 -1.37772,-1.49022 -1.4521,-1.71979 -0.12843,-0.39639 -1.27725,-1.07886 -1.81606,-1.07886 -0.13839,0 -0.85879,-0.2931 -1.6009,-0.65133 -2.58491,-1.24779 -5.07384,-1.97315 -8.1549,-2.37662 -3.43768,-0.45017 -7.08501,-0.31408 -7.08501,0.26436 0,0.18358 -0.54301,0.89248 -1.20667,1.57534 -0.83326,0.85736 -1.36016,1.20143 -1.70268,1.11186 -0.2728,-0.0713 -0.71207,0.0194 -0.97614,0.20161 -0.26408,0.18222 -0.89686,0.41155 -1.40618,0.50962 -0.50932,0.0981 -1.26315,0.24842 -1.67517,0.33409 -0.41202,0.0857 -1.06687,0.006 -1.45521,-0.1774 -0.38834,-0.18324 -0.95857,-0.44818 -1.26718,-0.58875 -0.44012,-0.20048 -0.98803,-0.0502 -2.5413,0.69686 -1.08912,0.52384 -2.16615,0.95244 -2.39342,0.95244 -0.22726,0 -0.4529,0.10235 -0.5014,0.22744 -0.11581,0.29864 -4.24745,1.62464 -5.06218,1.62464 -1.01115,0 -1.86751,1.32598 -2.17779,3.37205 -0.0937,0.6177 -0.27901,1.19028 -0.41187,1.27239 -0.13286,0.0821 -0.24156,0.84151 -0.24156,1.68754 0,1.58827 -0.69234,3.62409 -1.58076,4.64823 -0.47805,0.55108 -1.17824,1.85414 -2.02433,3.76728 -0.27278,0.61679 -0.58525,1.12281 -0.69439,1.12448 -0.10914,0.002 -0.19844,0.18163 -0.19844,0.39991 0,0.49275 -0.0461,0.49632 1.20707,-0.0935 1.79352,-0.84407 4.73408,-1.14559 13.6096,-1.39548 4.72942,-0.13316 9.73005,-0.33582 11.1125,-0.45037 2.60909,-0.21617 5.02708,-0.74956 5.02708,-1.10893 0,-0.3534 1.60552,-0.78822 2.91042,-0.78822 1.64244,0 2.86277,0.43091 3.85028,1.35959 0.76863,0.72284 0.81052,0.87104 0.86858,3.07337 0.0336,1.27265 0.16211,2.61157 0.28567,2.97537 0.12356,0.3638 0.43684,1.37584 0.69618,2.24896 0.93239,3.13915 0.86189,3.05338 2.3653,2.87717 0.84969,-0.0996 1.64134,-0.0264 2.20183,0.20345 l 0.87513,0.35896 0.1319,2.3644 c 0.0726,1.30041 0.19178,2.46127 0.26496,2.57968 0.0732,0.11842 1.77878,0.2153 3.7902,0.2153 h 3.65715 l 0.29599,-1.1755 c 0.1628,-0.64652 0.29599,-1.47022 0.29599,-1.83044 0,-0.87994 0.26637,-1.5221 0.55689,-1.34255 0.36654,0.22653 0.29454,5.24332 -0.0806,5.61849 -0.22316,0.22316 -1.71685,0.3175 -5.02708,0.3175 h -4.70958 v -2.79915 -2.79915 l -0.74779,0.16424 c -0.41128,0.0903 -1.08264,0.0369 -1.4919,-0.11867 -0.40927,-0.1556 -0.77781,-0.24922 -0.81898,-0.20805 -0.0412,0.0412 0.15393,0.72454 0.43357,1.5186 0.56259,1.59753 0.64249,2.70355 0.24851,3.43972 -0.16965,0.31699 -0.17009,0.74743 -0.001,1.23937 0.3658,1.06595 -0.0279,2.27222 -0.87602,2.68429 -0.42651,0.20722 -0.7894,0.6644 -0.9164,1.15453 -0.14821,0.57194 -0.5421,0.99785 -1.33439,1.44287 -1.31221,0.73705 -1.71605,0.77938 -2.17378,0.22785 -0.30017,-0.36168 -0.38119,-0.36168 -0.78083,0 -0.60877,0.55092 -1.6486,0.50704 -2.29688,-0.0969 z m -4.0605,-12.84751 c 0,-0.0654 -0.42816,-0.44541 -0.95147,-0.84455 -0.86676,-0.66111 -1.13179,-0.72076 -2.97657,-0.66987 -1.1138,0.0307 -2.67993,0.17957 -3.48029,0.33079 -3.69135,0.69741 -4.40871,0.84678 -5.02709,1.04676 -0.37704,0.12193 2.15431,0.2229 5.88698,0.2348 3.60164,0.0115 6.54844,-0.0326 6.54844,-0.0979 z m -45.24375,-22.80308 c 0,-0.7201 0.49254,-2.67353 0.79161,-3.13956 0.0934,-0.14552 0.39994,-1.00872 0.68123,-1.91822 0.28128,-0.90951 0.60075,-1.65365 0.70992,-1.65365 0.10917,0 0.19849,-0.21432 0.19849,-0.47628 0,-0.26195 0.61291,-1.23689 1.36203,-2.16653 0.74911,-0.92964 1.4702,-2.1143 1.60241,-2.63258 0.13222,-0.51828 0.37061,-1.35904 0.52976,-1.86836 0.15915,-0.50932 0.33798,-1.87854 0.39741,-3.04271 0.0916,-1.79436 0.005,-2.38953 -0.56887,-3.90864 -0.50384,-1.33381 -0.67476,-2.28089 -0.66849,-3.70417 0.007,-1.66688 0.34928,-2.83823 0.82854,-2.83823 0.0644,0 0.12266,1.18794 0.12937,2.63986 l 0.0122,2.63986 1.03208,1.17168 c 0.56765,0.64442 1.13889,1.18289 1.26942,1.19659 0.13054,0.0137 0.74589,0.44164 1.36745,0.95097 0.62156,0.50932 1.32226,0.92604 1.5571,0.92604 0.49189,0 2.30701,0.7228 2.51739,1.00245 0.0779,0.1035 0.61781,0.41261 1.1999,0.68691 0.58208,0.27431 1.61022,0.78033 2.28476,1.12448 0.67454,0.34416 1.59025,0.62574 2.03491,0.62574 0.44466,0 0.87255,0.10369 0.95087,0.23041 0.0783,0.12673 0.47713,0.29736 0.88624,0.37918 0.40911,0.0818 1.36409,0.57542 2.12217,1.09689 0.75809,0.52147 1.37834,0.84333 1.37834,0.71524 0,-0.36462 -1.35528,-1.62797 -1.74643,-1.62797 -0.51721,0 -4.1577,-3.61993 -3.96083,-3.93846 0.24031,-0.38883 0.93654,-0.0817 2.00309,0.88351 1.22064,1.10469 2.81438,2.2612 3.11608,2.2612 0.28991,0 3.49851,3.38641 3.49851,3.69238 0,0.11806 0.2501,0.28006 0.55578,0.36 0.30604,0.08 0.47737,0.27223 0.38126,0.42773 -0.30001,0.48543 -1.3597,0.3095 -2.06326,-0.34255 l -0.67433,-0.62494 -0.1569,0.78452 c -0.18184,0.90918 0.43001,2.13151 1.27464,2.5464 1.53529,0.75416 12.60908,1.12772 13.52726,0.45633 0.48298,-0.35317 0.46195,-0.38556 -0.39445,-0.60747 -1.10457,-0.28623 -1.33131,-0.7898 -0.49977,-1.10998 0.54954,-0.21159 0.56579,-0.25862 0.1477,-0.42744 -0.36583,-0.14772 -0.40257,-0.27067 -0.16604,-0.55567 0.22125,-0.26659 0.22308,-0.36597 0.007,-0.36597 -0.5454,0 -0.30524,-0.84113 0.28417,-0.99527 0.55179,-0.14429 0.55513,-0.16109 0.0661,-0.33262 -0.28325,-0.0994 -0.51591,-0.34725 -0.51702,-0.55086 -0.002,-0.27379 -0.29915,-0.34659 -1.14274,-0.27953 -0.62739,0.0499 -1.45991,-0.0226 -1.85006,-0.16115 -0.39014,-0.1385 -1.42372,-0.4708 -2.29684,-0.73844 -0.87313,-0.26764 -2.00209,-0.76067 -2.50882,-1.09563 -0.50672,-0.33495 -1.12477,-0.609 -1.37345,-0.609 -0.24867,0 -0.52571,-0.11907 -0.61565,-0.26459 -0.0899,-0.14552 -0.33567,-0.26458 -0.54608,-0.26458 -0.53178,0 -4.26302,-1.86187 -5.25559,-2.6225 -1.70191,-1.30424 -7.03062,-7.08509 -7.03062,-7.62718 0,-0.13087 -0.61129,-0.7655 -1.35841,-1.41028 -2.21997,-1.91587 -3.13898,-2.85406 -3.14831,-3.21403 -0.0111,-0.42813 -0.91689,-1.53018 -1.25768,-1.53018 -0.14059,0 -0.74317,-0.44648 -1.33907,-0.99218 -2.26819,-2.07713 -4.8829,-3.50573 -6.41637,-3.50573 -1.65792,0 -4.47183,2.01552 -4.47183,3.20304 0,0.17273 -0.41672,0.94187 -0.92604,1.7092 -0.50932,0.76733 -0.92662,1.49403 -0.92733,1.61489 -7.1e-4,0.12086 -0.41743,1.03064 -0.92605,2.02174 -0.50861,0.9911 -0.92475,2.02459 -0.92475,2.29664 0,0.27206 -0.36474,1.30663 -0.81054,2.29905 -1.69699,3.77779 -1.69591,3.77469 -2.20365,6.30836 -0.23396,1.16749 -0.42701,3.19155 -0.429,4.49791 -0.002,1.30637 -0.0815,2.66649 -0.17674,3.0225 -0.16035,0.59949 -0.18802,0.60926 -0.37467,0.13229 -0.30673,-0.7838 -0.28386,-8.26109 0.0258,-8.4525 0.14552,-0.0899 0.25519,-0.42438 0.2437,-0.74322 -0.0141,-0.3926 -0.0706,-0.45313 -0.17481,-0.18755 -0.22373,0.56998 -0.63942,0.93443 -1.66932,1.46358 -0.50221,0.25802 -1.15291,0.71994 -1.44601,1.02649 -0.71869,0.75168 -2.4178,2.01258 -2.71203,2.01258 -0.13064,0 -0.39121,0.32742 -0.57905,0.7276 -0.18784,0.40018 -0.50561,1.04363 -0.70617,1.42989 -0.20055,0.38625 -0.36464,0.86982 -0.36464,1.07458 0,0.20477 -0.20836,0.60312 -0.46302,0.88522 -0.25466,0.2821 -0.79213,1.01893 -1.19438,1.63739 l -0.73136,1.12448 h 0.9237 c 0.72231,0 1.02169,0.15863 1.37319,0.72761 0.66292,1.07309 2.79728,3.24114 3.19078,3.24114 0.18737,0 0.3409,0.0893 0.34119,0.19844 2.8e-4,0.10914 0.62535,0.6052 1.38906,1.10235 0.7637,0.49716 1.74574,1.14788 2.1823,1.44605 1.08658,0.74213 3.44929,1.16511 6.68073,1.19599 l 2.71198,0.0259 z m -7.90611,-3.32208 c -0.45383,-0.46418 -0.82514,-1.03568 -0.82514,-1.27 0,-0.23431 -0.12915,-0.55516 -0.28699,-0.713 -0.39637,-0.39638 -0.19498,-1.53864 0.27128,-1.53864 0.20965,0 0.68139,0.59531 1.04831,1.32291 0.36692,0.72761 0.93954,1.58513 1.27247,1.9056 0.77712,0.74802 0.76866,1.13711 -0.0247,1.13711 -0.35956,0 -0.98432,-0.36234 -1.45521,-0.84398 z m 21.88699,-18.72727 c -0.70448,-0.72325 -1.28088,-1.41851 -1.28088,-1.54503 0,-0.12651 -0.26789,-0.355 -0.59531,-0.50774 -0.76415,-0.35646 -2.57969,-1.92037 -2.57969,-2.22215 0,-0.127 -0.25003,-0.48094 -0.55563,-0.78654 -0.37902,-0.37902 -0.46953,-0.64172 -0.28474,-0.8265 0.25501,-0.25501 2.33214,1.2254 3.51696,2.50661 0.2355,0.25466 0.54892,0.46302 0.69648,0.46302 0.14756,0 0.60609,0.44648 1.01896,0.99219 0.41287,0.5457 1.02231,1.28862 1.35432,1.65094 0.64141,0.69996 0.8077,1.5902 0.29703,1.5902 -0.16864,0 -0.88301,-0.59175 -1.5875,-1.315 z m -4.45588,-7.63923 c 0,-0.12265 -0.54572,-0.50366 -1.21272,-0.84671 -1.37305,-0.70619 -2.13589,-1.5699 -1.65115,-1.86949 0.16664,-0.10299 0.49223,-0.0985 0.72353,0.01 2.50188,1.17317 2.53634,1.20039 2.62012,2.06934 0.0466,0.48301 -0.0404,0.85989 -0.19844,0.85989 -0.15474,0 -0.28134,-0.10034 -0.28134,-0.22298 z m -7.06735,-2.00405 c -0.82085,-0.38003 -1.46176,-1.70235 -1.35612,-2.79788 0.14577,-1.51159 0.84491,-1.33545 1.2672,0.31925 0.19628,0.7691 0.57705,1.55395 0.84616,1.7441 0.92414,0.65302 0.32402,1.23514 -0.75724,0.73453 z m 21.61943,28.19214 c 0,-0.12575 0.56555,-0.43265 1.25677,-0.682 0.69123,-0.24936 1.4949,-0.56428 1.78594,-0.69984 0.29104,-0.13556 1.18401,-0.4792 1.98438,-0.76365 l 1.4552,-0.51719 -2.20316,-0.01 c -2.08939,-0.009 -2.24416,-0.0505 -2.99692,-0.80329 -0.90203,-0.90204 -1.01762,-0.94814 -1.01762,-0.40586 0,0.35685 -0.52863,1.73806 -1.09064,2.84966 -0.38418,0.75988 -0.26629,1.26036 0.29689,1.26036 0.29104,0 0.52916,-0.10288 0.52916,-0.22864 z m -52.39634,-3.27709 c -0.0117,-0.43802 -2.19943,-2.84427 -2.58596,-2.84427 -0.16612,0 -0.49881,-0.38695 -0.73932,-0.85989 -0.24052,-0.47295 -0.63053,-1.05121 -0.86669,-1.28503 -0.23617,-0.23382 -0.67881,-0.71007 -0.98365,-1.05833 -0.30484,-0.34826 -0.82146,-0.8118 -1.14804,-1.03008 -0.32657,-0.21828 -0.88175,-0.96028 -1.23372,-1.64889 -0.35198,-0.6886 -0.94753,-1.45354 -1.32346,-1.69986 -0.37593,-0.24632 -1.08307,-1.04116 -1.57141,-1.76631 l -0.8879,-1.31845 0.0321,1.41086 c 0.0202,0.88588 0.18724,1.57312 0.44897,1.84693 0.22926,0.23985 0.85461,0.93344 1.38967,1.54132 0.53505,0.60788 1.06316,1.10523 1.17357,1.10523 0.27276,0 1.42547,1.09914 1.42547,1.35922 0,0.30015 2.11773,2.30508 2.97691,2.81833 0.40036,0.23918 0.8008,0.66442 0.88984,0.94498 0.17234,0.54298 1.24889,1.6826 2.25558,2.38771 0.73321,0.51356 0.75924,0.51692 0.748,0.0965 z m 69.97282,-1.7563 c 0.0799,-0.12922 -0.21077,-0.2872 -0.64584,-0.35105 -0.43508,-0.0639 -0.79105,-0.0734 -0.79105,-0.0211 0,0.0724 0.73771,0.42325 1.24115,0.59034 0.0278,0.009 0.11588,-0.089 0.19574,-0.21818 z m 14.5704,-0.82338 c -0.0899,-0.14552 -0.37636,-0.26459 -0.63649,-0.26459 -0.26013,0 -0.90204,-0.41672 -1.42648,-0.92604 -0.52443,-0.50932 -1.04105,-0.92604 -1.14804,-0.92604 -0.10698,0 -0.75932,-0.47625 -1.44964,-1.05833 -0.73605,-0.62065 -1.52994,-1.05834 -1.91964,-1.05834 -0.36549,0 -0.73811,-0.11906 -0.82805,-0.26458 -0.0899,-0.14552 -0.43957,-0.26458 -0.77696,-0.26458 -0.3374,0 -0.76167,-0.1786 -0.94283,-0.39688 -0.18115,-0.21828 -0.49501,-0.39687 -0.69744,-0.39687 -0.20244,0 -0.57481,-0.10425 -0.8275,-0.23166 -0.9671,-0.48764 -3.42503,-1.08227 -4.69277,-1.1353 -0.7276,-0.0304 -3.19599,0.0409 -5.48532,0.15848 l -4.1624,0.2138 0.72282,0.55865 c 0.39755,0.30725 0.76251,0.65012 0.81101,0.76192 0.0485,0.1118 0.41165,0.20327 0.80698,0.20327 0.39534,0 0.86693,0.14814 1.04799,0.3292 0.22342,0.22342 1.59135,0.35999 4.25716,0.42501 l 3.92797,0.0958 0.40796,1.03858 c 0.24263,0.61767 0.34762,1.41049 0.25905,1.95625 -0.14553,0.8968 0.0912,1.16424 0.59501,0.67213 0.33764,-0.3298 5.90774,-0.45423 8.05657,-0.17997 0.94588,0.12073 2.19604,0.37924 2.77812,0.57446 1.2976,0.4352 1.53315,0.45578 1.32292,0.11563 z m -13.89063,-3.20331 c 0,-0.12995 -0.67469,-0.23628 -1.4993,-0.23628 -1.64292,0 -1.71752,0.24757 -0.15727,0.5219 1.07553,0.18909 1.65657,0.0889 1.65657,-0.28562 z m -66.08638,-2.15451 c 0.33873,-0.32742 1.12986,-1.22039 1.75806,-1.98437 0.98579,-1.19887 1.06849,-1.38906 0.60399,-1.38906 -0.296,0 -0.60227,0.10368 -0.68059,0.23041 -0.0783,0.12672 -0.52189,0.3063 -0.98571,0.39907 -0.46382,0.0928 -1.23613,0.46828 -1.71625,0.83449 -0.78517,0.59888 -0.84559,0.73778 -0.60086,1.38148 0.22118,0.58173 0.65956,1.09661 0.95296,1.11924 0.0289,0.002 0.32966,-0.26383 0.6684,-0.59126 z m -19.34737,-1.55735 c 0.49465,-0.16532 1.2268,-0.60432 1.62698,-0.97554 0.66236,-0.61444 0.72724,-0.84252 0.72355,-2.54369 -0.002,-1.0278 -0.11947,-2.04732 -0.26053,-2.2656 -0.20181,-0.31228 -0.25734,-0.2502 -0.26053,0.29124 -0.008,1.442 -1.12792,4.01712 -1.98843,4.57416 -0.29104,0.18841 -0.88635,0.43456 -1.32292,0.54702 -0.71519,0.18423 -0.74138,0.2258 -0.26458,0.42013 0.7197,0.29332 0.72658,0.29314 1.74646,-0.0477 z m 30.73682,-1.55151 c 0.3148,2e-5 2.32051,-1.36358 3.30797,-2.24895 0.4869,-0.43656 1.12689,-1.32953 1.4222,-1.98437 0.29531,-0.65485 0.87295,-1.905 1.28363,-2.77813 0.41068,-0.87312 0.82723,-2.09351 0.92567,-2.71198 0.0984,-0.61846 0.27368,-1.12448 0.38944,-1.12448 0.11576,0 0.27274,-0.23812 0.34885,-0.52916 0.0761,-0.29105 0.0305,-0.52917 -0.10143,-0.52917 -0.1319,0 -0.23982,0.18519 -0.23982,0.41154 0,0.24039 -0.52264,0.63132 -1.25677,0.94003 -1.09564,0.46073 -1.35853,0.73446 -2.05052,2.1351 -0.68042,1.37723 -0.99596,1.71225 -2.21009,2.34657 -1.29443,0.67626 -2.325,1.84659 -1.95335,2.21825 0.0833,0.0833 0.0216,0.4191 -0.13714,0.7463 -0.15869,0.32721 -0.49605,1.19023 -0.74968,1.91783 -0.25364,0.72761 -0.56054,1.43603 -0.68201,1.57428 -0.12147,0.13824 -0.21638,0.55496 -0.21092,0.92604 0.01,0.65937 0.0292,0.65216 0.8599,-0.31751 0.46748,-0.54571 0.94181,-0.9922 1.05407,-0.99219 z m -12.47867,1e-5 c 0.21108,0 0.55279,-0.23449 0.75936,-0.52108 0.22828,-0.31672 1.0944,-0.70584 2.20846,-0.99219 1.08259,-0.27825 1.88257,-0.63357 1.95423,-0.86798 0.48567,-1.58865 1.6561,-4.24818 2.23034,-5.06793 0.37235,-0.53156 0.49196,-1.18002 0.49196,-2.66727 0,-1.82517 -0.0471,-1.99015 -0.66146,-2.31897 -0.3638,-0.1947 -0.66146,-0.45294 -0.66146,-0.57387 0,-0.12093 -0.1064,-0.21988 -0.23645,-0.21988 -0.13773,0 -0.13475,0.45269 0.007,1.08418 0.44805,1.99417 -0.38177,4.50107 -2.03825,6.15755 -0.53054,0.53055 -1.27918,1.03039 -1.66363,1.11077 -0.38446,0.0804 -0.90576,0.258 -1.15845,0.39473 -0.62057,0.3358 -2.75805,0.31528 -3.40828,-0.0327 -0.2891,-0.15472 -0.69733,-0.24402 -0.90717,-0.19843 -0.31934,0.0694 -0.32657,0.19068 -0.0444,0.74433 0.18543,0.3638 0.57169,1.4056 0.85836,2.3151 0.28667,0.90951 0.61054,1.65365 0.71971,1.65365 0.10917,0 0.19849,0.19705 0.19849,0.43788 0,0.40746 0.0336,0.40746 0.48385,0 0.26612,-0.24083 0.65656,-0.43788 0.86763,-0.43788 z m -20.86674,-0.7276 c 1.93028,-1.48958 2.76042,-4.19566 1.9769,-6.44426 -0.31881,-0.91492 -1.73683,-3.0099 -1.91602,-2.83071 -0.11151,0.11151 0.80168,2.81515 1.02694,3.04041 0.0942,0.0942 0.17119,0.97476 0.17119,1.95691 0,1.73846 -0.0298,1.81712 -1.12448,2.97153 -0.90133,0.95048 -1.43952,1.26614 -2.71198,1.59067 l -1.5875,0.40489 1.61104,0.0191 c 1.36911,0.0162 1.75263,-0.0902 2.55391,-0.70852 z m 2.22604,0.31931 c 0.23812,-0.62054 -0.0189,-0.69341 -0.38398,-0.10884 -0.20441,0.3273 -0.22196,0.51713 -0.0478,0.51713 0.15133,0 0.34564,-0.18373 0.43181,-0.40829 z m 67.76661,-1.50994 c -0.1623,-0.47294 -0.57283,-1.30401 -0.91228,-1.84683 -0.33946,-0.54281 -0.61719,-1.10097 -0.61719,-1.24036 0,-0.26582 -3.24422,-3.62122 -4.66172,-4.82149 -0.45389,-0.38432 -1.07897,-0.7793 -1.38906,-0.87772 -0.31009,-0.0984 -0.56381,-0.2761 -0.56381,-0.39484 0,-0.11874 -0.20836,-0.28586 -0.46302,-0.37137 -0.59269,-0.199 -1.31738,-0.67663 -2.16608,-1.4276 -0.80711,-0.71417 -1.1193,-0.76067 -0.8881,-0.13229 0.36119,0.98173 0.98088,1.69263 1.76996,2.03052 0.96314,0.41241 2.80557,1.95121 2.80557,2.34321 0,0.14932 0.56555,0.89572 1.25678,1.65867 0.69122,0.76294 1.5918,1.78648 2.00129,2.27452 0.56424,0.67249 3.74202,3.51837 4.07036,3.64524 0.0288,0.0111 -0.0804,-0.36672 -0.2427,-0.83966 z m -65.90707,-4.48138 c -0.0845,-0.21107 -0.14716,-0.14837 -0.15985,0.15985 -0.0115,0.27892 0.051,0.43519 0.13896,0.34727 0.0879,-0.0879 0.0973,-0.31612 0.0209,-0.50712 z m -4.2944,-0.53702 c -0.10283,-0.46816 -0.28369,-1.03371 -0.40192,-1.25677 -0.11823,-0.22306 -0.29118,-0.76178 -0.38434,-1.19717 -0.22804,-1.06581 -3.73048,-4.49311 -4.81281,-4.70958 -0.43942,-0.0879 -1.73941,-0.80387 -2.88887,-1.59109 -1.14946,-0.78722 -2.38598,-1.52485 -2.74781,-1.63918 -1.71273,-0.54118 -4.62523,-3.48424 -5.09825,-5.15174 l -0.33565,-1.1832 -2.10991,-0.62217 c -2.94355,-0.86798 -11.58881,-1.14332 -14.81334,-0.47178 -2.38288,0.49626 -3.97931,0.90584 -4.75907,1.221 -0.29104,0.11763 -1.12448,0.4214 -1.85208,0.67503 -2.31003,0.80526 -2.23604,1.14652 0.13229,0.61018 3.04352,-0.68924 4.05676,-0.82248 7.16556,-0.94226 2.50768,-0.0966 3.81335,-0.0207 5.29167,0.30755 1.07941,0.2397 2.55788,0.54845 3.28548,0.68611 0.7276,0.13765 1.8587,0.38191 2.51354,0.54279 1.45365,0.35712 5.89844,2.46169 6.3512,3.00723 0.1805,0.21748 0.58485,0.39543 0.89856,0.39543 0.5585,0 1.26258,0.43238 3.16054,1.94094 0.5192,0.41268 1.35698,0.96087 1.86173,1.2182 1.64122,0.83675 7.89948,6.59208 9.00798,8.28409 0.62322,0.95127 0.76442,0.91867 0.5355,-0.12361 z m 3.74324,-0.63045 c -0.0942,-0.24539 -0.23073,-0.38663 -0.30349,-0.31387 -0.0728,0.0728 -0.0553,0.33306 0.0389,0.57845 0.0942,0.24538 0.23074,0.38662 0.3035,0.31386 0.0728,-0.0728 0.0553,-0.33306 -0.0389,-0.57844 z m -0.9525,-1.93902 c 0,-0.34019 -0.76859,-1.07723 -1.12335,-1.07723 -0.16049,0 -0.0122,0.29765 0.3296,0.66145 0.68055,0.72442 0.79375,0.78371 0.79375,0.41578 z m 0.67991,-1.66035 c -0.49685,-0.70936 -0.54754,-0.26114 -0.0852,0.75355 0.24478,0.53723 0.35213,0.61011 0.41533,0.28195 0.0469,-0.24339 -0.10168,-0.70937 -0.33011,-1.0355 z m -0.83428,-0.90996 c 0.21792,-0.5679 -0.0341,-0.80555 -0.43212,-0.40751 -0.1722,0.1722 -0.55717,0.31491 -0.85549,0.31714 -0.44713,0.003 -0.47269,0.0491 -0.14552,0.26053 0.60428,0.39051 1.24728,0.31417 1.43313,-0.17016 z m 36.09772,-0.54636 c 1.41642,-0.66264 2.22662,-1.79565 1.03218,-1.44341 -0.77847,0.22957 -1.27611,0.57131 -1.8931,1.30003 -0.604,0.7134 -0.42223,0.74368 0.86092,0.14338 z m -40.87983,-0.6064 c -0.38898,-0.43656 -0.82924,-0.79375 -0.97836,-0.79375 -0.28416,0 -2.28724,-2.10178 -2.28724,-2.39994 0,-0.0947 -0.70514,-0.548 -1.56698,-1.00735 -0.86183,-0.45936 -1.60598,-0.93465 -1.65364,-1.0562 -0.1331,-0.3394 -3.08725,-2.68026 -3.38247,-2.68026 -0.14332,0 -0.57671,-0.66826 -0.96311,-1.48503 -0.77169,-1.63123 -0.77448,-3.23186 -0.009,-4.93097 0.21322,-0.47302 0.63839,-1.44713 0.94482,-2.16468 l 0.55715,-1.30463 -1.33193,1.38917 c -1.37275,1.43176 -2.12024,2.60477 -2.12024,3.32722 0,0.22748 -0.14471,0.64532 -0.32158,0.92854 -0.25239,0.40414 -0.25239,0.70629 0,1.40426 0.17687,0.48912 0.32158,1.07149 0.32158,1.29414 0,0.56867 4.14481,4.4524 4.75169,4.4524 0.2747,0 1.02943,0.40455 1.67719,0.89899 0.64776,0.49445 1.4215,1.02945 1.71943,1.1889 0.29792,0.15944 0.69979,0.442 0.89304,0.6279 0.19325,0.1859 0.95921,0.72383 1.70215,1.19538 0.74293,0.47156 1.56506,1.09414 1.82694,1.38352 0.26189,0.28938 0.57769,0.52614 0.70177,0.52614 0.12409,0 -0.0926,-0.35718 -0.48161,-0.79375 z m 3.96734,-0.81039 c -0.20361,-0.20361 -0.32347,-0.0838 -0.41972,0.41972 -0.123,0.64347 -0.0982,0.66824 0.28501,0.28501 0.29986,-0.29987 0.33833,-0.50111 0.13471,-0.70473 z m -1.14752,0.57547 c 0,-0.23358 -3.17973,-3.53501 -4.60891,-4.78531 -0.41154,-0.36003 -0.93981,-0.95534 -1.17393,-1.32291 -0.23412,-0.36757 -0.66587,-0.84456 -0.95944,-1.05998 -1.25694,-0.92231 -2.51814,-2.21252 -2.51814,-2.57607 0,-0.21594 -0.5459,-0.94623 -1.21311,-1.62286 -0.66721,-0.67663 -1.4183,-1.67768 -1.66908,-2.22454 l -0.45598,-0.99431 -0.44786,1.52347 c -0.40765,1.3867 -0.41135,1.61849 -0.0412,2.58181 0.22365,0.58208 0.47579,1.26669 0.5603,1.52135 0.0845,0.25466 0.2886,0.46317 0.45353,0.46335 0.16493,1.7e-4 0.64581,0.29783 1.06862,0.66145 0.42282,0.36363 0.84628,0.66114 0.94102,0.66114 0.0947,0 0.7476,0.53578 1.45079,1.19062 0.70319,0.65485 1.45876,1.19063 1.67904,1.19063 0.22029,0 1.07164,0.68461 1.89189,1.52135 1.50555,1.53582 3.22361,2.9578 3.97347,3.2887 0.59067,0.26066 1.069,0.25265 1.069,-0.0179 z m 27.3779,-1.68724 c -0.37799,-0.67629 -1.06694,-1.46831 -1.53101,-1.76003 -1.12504,-0.70724 -2.02531,-1.54543 -2.86537,-2.66781 -0.38121,-0.50932 -1.00504,-1.25959 -1.38628,-1.66727 -0.38124,-0.40768 -0.69316,-0.90304 -0.69316,-1.10079 0,-0.19776 -0.47625,-1.2 -1.05833,-2.22722 -0.58209,-1.02721 -1.05834,-2.04287 -1.05834,-2.25703 0,-0.21415 -0.11906,-0.46296 -0.26458,-0.5529 -0.14552,-0.0899 -0.26458,-0.49522 -0.26458,-0.90064 0,-0.40543 -0.23813,-0.95263 -0.52917,-1.21602 -0.51317,-0.46442 -0.52917,-0.46213 -0.52917,0.0757 0,0.30501 -0.1079,0.62125 -0.23979,0.70276 -0.13189,0.0815 -0.31997,0.73111 -0.41796,1.44356 -0.098,0.71244 -0.38299,1.51598 -0.63335,1.78564 -0.25035,0.26966 -0.68326,0.87724 -0.96201,1.35018 -0.27875,0.47294 -0.5873,0.8599 -0.68567,0.8599 -0.0984,0 -0.25513,0.30394 -0.34837,0.67542 -0.0978,0.38961 -0.57686,0.91576 -1.13211,1.24337 l -0.96259,0.56794 0.7727,0.23991 c 1.25012,0.38814 3.51541,0.73508 6.06464,0.92882 1.85151,0.14071 2.56721,0.31348 3.21584,0.77631 0.45888,0.32742 0.95091,0.59531 1.09342,0.59531 0.36832,0 2.17275,2.04845 2.17275,2.46659 0,0.3239 1.15169,1.50216 1.46829,1.50216 0.0777,0 0.40425,0.24585 0.72559,0.54633 0.86153,0.80561 0.88625,0.0885 0.0486,-1.41016 z m 15.79297,-1.05983 c 0.32403,-0.69959 0.94579,-1.49367 1.39489,-1.78148 0.44566,-0.28561 0.65977,-0.52128 0.47582,-0.52374 -0.34939,-0.005 -1.89326,-1.57001 -1.90674,-1.93328 -0.004,-0.11497 -0.45424,-0.66245 -0.99995,-1.21662 -1.36496,-1.38616 -1.49149,-1.5672 -2.67547,-3.82837 -0.57353,-1.09532 -1.62004,-2.57445 -2.32558,-3.28694 -0.70554,-0.7125 -1.61005,-1.72482 -2.01002,-2.2496 -0.39996,-0.52478 -1.05481,-1.11091 -1.4552,-1.3025 -0.4004,-0.1916 -0.96612,-0.81787 -1.25716,-1.39171 -0.29105,-0.57384 -0.73753,-1.27955 -0.99219,-1.56824 -0.25466,-0.28869 -0.46302,-0.62953 -0.46302,-0.75741 0,-0.30749 1.141,0.0539 1.36737,0.4331 0.78193,1.30982 1.89992,2.54153 2.58017,2.84264 0.44823,0.19841 0.81496,0.45709 0.81496,0.57486 0,0.11777 0.95462,1.156 2.12138,2.30719 1.51086,1.49068 2.16989,2.34327 2.2899,2.96243 0.0927,0.47816 0.41798,1.19559 0.72289,1.5943 0.3049,0.39871 1.12108,1.5298 1.81372,2.51354 3.20405,4.55062 2.79795,4.12709 3.50991,3.6606 0.87185,-0.57126 3.39037,-0.54992 4.38419,0.0371 0.42263,0.24966 0.76842,0.54732 0.76842,0.66146 0,0.11415 0.21049,0.20754 0.46775,0.20754 0.61455,0 2.34535,1.17422 3.47867,2.36003 0.49704,0.52006 0.82454,0.76735 0.72778,0.54954 -0.0968,-0.21782 -0.24943,-0.60439 -0.33926,-0.85905 -0.0898,-0.25466 -0.25559,-0.46302 -0.36836,-0.46302 -0.11277,0 -0.27631,-0.28395 -0.36341,-0.631 -0.0871,-0.34705 -0.57627,-1.25199 -1.08702,-2.01097 -0.51076,-0.75897 -0.92865,-1.41087 -0.92865,-1.44865 0,-0.0378 -0.39104,-0.48333 -0.86899,-0.9901 -0.47795,-0.50677 -1.09767,-1.47592 -1.37716,-2.15367 -0.27949,-0.67775 -0.61862,-1.23228 -0.75362,-1.23228 -0.25676,0 -0.57974,-0.34066 -1.89502,-1.99877 -0.89788,-1.13193 -2.72413,-3.20355 -4.10104,-4.65206 -2.51466,-2.64542 -4.16335,-4.60509 -4.7625,-5.66081 -0.8969,-1.58038 -4.17992,-5.10636 -5.15928,-5.54111 -3.62996,-1.61136 -10.47002,-1.45204 -13.05792,0.30416 -1.20208,0.81575 -2.55581,0.79929 -3.80005,-0.0462 -1.11603,-0.75836 -1.26608,-0.79518 -1.26608,-0.3107 0,0.5544 -1.13722,1.47742 -2.04365,1.6587 -0.52947,0.1059 -1.13521,0.0121 -1.68157,-0.26051 -0.4697,-0.23432 -0.89524,-0.42603 -0.94564,-0.42603 -0.0504,0 -0.0916,0.45244 -0.0916,1.00542 0,0.55298 -0.14288,1.14829 -0.3175,1.32291 -0.38285,0.38285 -2.32834,0.42706 -2.32834,0.0529 0,-0.14552 0.31197,-0.26458 0.69326,-0.26458 0.68342,0 0.69164,-0.0225 0.57883,-1.58194 -0.0629,-0.87006 -0.18155,-1.64906 -0.2636,-1.7311 -0.082,-0.0821 -0.58064,-0.21919 -1.108,-0.30477 -0.83026,-0.13474 -0.95882,-0.0857 -0.95882,0.36572 0,0.30301 0.28456,0.65097 0.67952,0.83093 0.48642,0.22162 0.6556,0.47729 0.59532,0.89966 -0.097,0.67962 -1.01026,0.99627 -1.01026,0.35027 0,-0.22895 -0.16867,-0.41627 -0.37482,-0.41627 -0.20616,0 -0.42798,-0.14883 -0.49295,-0.33073 -0.21139,-0.5919 -0.41225,-0.0861 -0.2667,0.67162 0.0884,0.46022 0.42798,0.88579 0.90268,1.13127 0.99356,0.51379 0.96088,0.99425 -0.12391,1.82166 -0.90274,0.68856 -1.49638,0.86245 -1.49638,0.43832 0,-0.26927 -0.9601,-1.29076 -2.57528,-2.73996 -0.93024,-0.83464 -1.29424,-0.99218 -2.29237,-0.99218 -0.6526,0 -1.26012,-0.11907 -1.35006,-0.26459 -0.0899,-0.14552 -0.35718,-0.26458 -0.59387,-0.26458 -0.52876,0 -1.65509,-1.0217 -1.65509,-1.50133 0,-0.45703 0.27931,-0.44329 0.9811,0.0483 0.31331,0.21945 1.32207,0.47422 2.24168,0.56614 2.03347,0.20326 2.851,0.59261 4.1581,1.98029 l 1.00396,1.06585 0.0193,-2.46199 c 0.0176,-2.24373 0.0738,-2.50604 0.63312,-2.95899 1.07384,-0.86955 3.66004,-0.27193 3.66439,0.84677 0.002,0.54001 1.32418,1.30878 2.60018,1.51196 0.7802,0.12423 1.11423,0.0303 1.70695,-0.47988 l 0.73694,-0.63434 -0.65813,-0.35222 c -0.36197,-0.19372 -0.78438,-0.71437 -0.93868,-1.157 -0.1543,-0.44263 -0.44222,-0.99111 -0.63982,-1.21884 -0.1976,-0.22773 -0.67718,-0.99245 -1.06573,-1.69938 -2.04899,-3.72794 -3.59131,-4.69049 -7.61334,-4.75141 -2.93473,-0.0445 -4.08291,0.24115 -5.24464,1.30456 -0.36495,0.33407 -1.19148,0.88658 -1.83672,1.22779 -1.81587,0.96025 -2.10782,1.72043 -2.07709,5.40823 0.0143,1.71778 0.0765,2.91488 0.13828,2.66022 0.0617,-0.25466 0.34165,-0.48088 0.62202,-0.50271 0.28037,-0.0218 0.64868,-0.0516 0.81845,-0.0661 0.55137,-0.0473 0.5227,0.56344 -0.0333,0.70884 -0.50226,0.13134 -0.53998,0.34431 -0.53998,3.04809 0,2.24974 0.0839,2.93906 0.371,3.04924 0.52398,0.20107 0.68733,-0.0458 0.68733,-1.03866 0,-1.42329 0.42566,-2.22209 1.18408,-2.22209 0.79237,0 0.77749,-0.12123 0.22775,1.85608 -0.29899,1.0754 -0.57491,1.58608 -0.8599,1.59155 -0.36234,0.007 -0.35787,0.0441 0.0327,0.27178 0.24881,0.14505 0.52995,0.67721 0.62476,1.18257 0.0948,0.50537 0.30796,0.92709 0.47366,0.93717 0.16571,0.0101 0.95613,0.0398 1.75649,0.0661 1.3984,0.046 1.46509,0.0814 1.70836,0.90773 0.15552,0.52826 0.42451,0.8599 0.69746,0.8599 0.53313,0 1.36715,1.62951 1.13871,2.22482 -0.12326,0.3212 0.009,0.42101 0.55627,0.42101 0.44751,0 0.91071,0.24519 1.22998,0.65108 l 0.51214,0.65108 1.01893,-0.71722 c 0.56042,-0.39448 1.35912,-1.22635 1.7749,-1.84861 0.93716,-1.40257 1.91618,-1.89401 4.53217,-2.275 2.00151,-0.29151 2.04289,-0.31279 1.96247,-1.00915 -0.0452,-0.39125 0.10521,-1.26321 0.3342,-1.93768 0.38225,-1.12589 0.38046,-1.29516 -0.0218,-2.06677 -0.81612,-1.56555 -0.89172,-1.75856 -0.89172,-2.27644 0,-0.28443 0.10953,-0.58484 0.24339,-0.66757 0.28566,-0.17654 1.24354,0.96862 1.50115,1.79466 0.0984,0.31542 0.29509,0.64822 0.43715,0.73955 0.16614,0.10681 0.14395,0.84394 -0.0622,2.06607 -0.17626,1.04501 -0.2425,2.31568 -0.14719,2.82372 0.19384,1.03327 1.199,3.04806 1.84086,3.68992 0.23109,0.23109 0.42016,0.70371 0.42016,1.05027 0,0.74922 0.43233,1.81388 1.17773,2.90024 0.76186,1.11036 1.20352,1.98977 1.20352,2.39638 0,0.19129 0.42973,0.80275 0.95496,1.35882 1.35455,1.43408 2.48462,2.8933 2.48462,3.20831 0,0.14798 0.53579,0.52842 1.19063,0.84542 0.65484,0.31701 1.19062,0.68482 1.19062,0.81736 0,0.13253 0.11907,0.24098 0.26459,0.24098 0.14873,0 0.26458,-0.73886 0.26458,-1.6874 0,-1.83253 -0.15077,-2.07519 -1.74125,-2.80242 -0.48712,-0.22274 -1.65148,-1.14912 -2.58746,-2.05862 -0.93598,-0.90951 -1.78218,-1.65365 -1.88044,-1.65365 -0.26713,0 -0.9346,-0.7192 -0.9346,-1.00703 0,-0.1381 -0.17859,-0.39931 -0.39687,-0.58047 -0.44402,-0.3685 -0.54094,-1.32291 -0.13434,-1.32291 0.1444,0 0.59089,0.37069 0.99219,0.82376 0.40131,0.45307 1.32496,1.10689 2.05256,1.45294 1.22121,0.5808 1.88553,1.0532 4.73596,3.36777 1.31907,1.0711 3.26966,2.99926 4.30587,4.25636 0.67789,0.8224 0.8677,0.92414 1.175,0.6298 0.20158,-0.19307 0.69393,-0.5606 1.09411,-0.81673 0.40018,-0.25613 0.7276,-0.62415 0.7276,-0.81783 0,-0.40752 1.18123,-1.75232 1.53919,-1.75232 0.13284,0 0.55973,0.25029 0.94863,0.5562 0.57397,0.45148 0.64703,0.62859 0.38803,0.94066 -0.27494,0.33128 -0.22376,0.34103 0.37005,0.0705 0.90927,-0.41429 1.5166,-0.15091 1.5166,0.65771 0,0.35978 0.11907,0.72773 0.26459,0.81766 0.34541,0.21348 0.34001,1.61364 -0.009,2.26527 -0.21358,0.39908 -0.14421,0.6853 0.31744,1.30972 l 0.59076,0.79903 0.60277,-0.7318 c 0.33152,-0.40249 0.86584,-1.29979 1.18738,-1.994 z m -44.11922,-19.38062 c 0.22664,-0.90301 1.19979,-1.97905 1.78981,-1.97905 0.71554,0 0.58499,0.65742 -0.33971,1.71058 -0.9894,1.12687 -1.69849,1.25815 -1.4501,0.26847 z m 11.52171,-0.18314 c -0.19085,-0.47843 -0.56434,-1.18591 -0.82998,-1.57217 -0.49944,-0.72626 -0.64281,-1.54666 -0.27029,-1.54666 0.11698,0 0.58552,0.38695 1.04121,0.8599 0.58113,0.60313 0.85339,1.16759 0.9118,1.89035 0.10557,1.3064 -0.3927,1.52177 -0.85274,0.36858 z m 21.6715,20.1224 c 0.31464,-0.61055 0.30589,-0.78448 -0.0661,-1.31564 l -0.42871,-0.61208 v 0.84059 c 0,0.55624 -0.23684,1.07744 -0.70012,1.54072 -0.55418,0.55417 -0.62454,0.74684 -0.33751,0.92423 0.40361,0.24944 0.94452,-0.23688 1.53249,-1.37782 z m 5.45639,1.10347 c 0.0927,-0.14998 -0.0135,-0.19434 -0.24897,-0.10399 -0.45837,0.1759 -0.54223,0.36554 -0.16165,0.36554 0.13694,0 0.32171,-0.1177 0.41062,-0.26155 z m -38.52553,-3.3425 c -1.48224,-2.79951 -1.83523,-3.27512 -2.43074,-3.27512 -0.21031,0 -1.08908,-0.63057 -1.95282,-1.40126 -2.41482,-2.15471 -3.85447,-3.10197 -3.33812,-2.19642 0.28696,0.50327 4.38064,4.92653 6.09856,6.58956 0.76398,0.73957 1.38906,1.44688 1.38906,1.57179 0,0.12491 0.32742,0.63924 0.72761,1.14297 1.2271,1.54461 0.98802,0.36672 -0.49355,-2.43152 z m 40.51178,1.9595 c 0,-0.32242 -0.12562,-0.2585 -0.95104,0.48396 l -0.76875,0.6915 0.85989,-0.48396 c 0.47294,-0.26618 0.8599,-0.57735 0.8599,-0.6915 z m -9.01443,-1.08304 c -0.0179,-0.5589 -0.0268,-0.56071 -0.24599,-0.0505 -0.31294,0.72827 -0.31294,0.98717 0,0.79375 0.14552,-0.0899 0.25622,-0.42438 0.24599,-0.74321 z m -29.79268,-2.49258 c -0.42678,-0.90116 -0.98523,-1.67995 -1.84698,-2.57574 -0.16782,-0.17445 -0.50085,-0.89364 -0.74005,-1.59821 -0.23921,-0.70456 -0.66745,-1.48269 -0.95164,-1.72917 -0.2842,-0.24649 -0.51672,-0.54283 -0.51672,-0.65854 0,-0.23621 -1.60499,-2.82929 -1.87841,-3.03484 -0.20936,-0.15738 -0.89508,-2.16088 -1.1546,-3.37343 -0.11612,-0.54257 -0.0811,-0.8599 0.0948,-0.8599 0.32968,0 1.08615,1.37939 1.08615,1.98054 0,0.38487 0.69658,1.67548 1.07309,1.98821 0.49966,0.41502 2.89566,4.38606 2.89566,4.79916 0,0.27088 0.092,0.49251 0.20442,0.49251 0.11243,0 0.43985,0.44648 0.7276,0.99218 0.28776,0.54571 0.76132,1.24421 1.05236,1.55224 0.29104,0.30802 0.67974,0.78427 0.86379,1.05833 0.28179,0.41962 0.30801,0.27037 0.16611,-0.9453 -0.17678,-1.51439 -0.92786,-2.9065 -2.35282,-4.36086 -0.85007,-0.86762 -1.45521,-1.81549 -1.45521,-2.27941 0,-0.1572 -0.28248,-0.66483 -0.62774,-1.12807 -0.7466,-1.00169 -2.18477,-3.46116 -2.6157,-4.47319 -0.36572,-0.85886 -0.85024,-1.09262 -1.52083,-0.73372 -0.71391,0.38207 -1.13616,0.32352 -0.96088,-0.13325 0.10941,-0.2851 -0.0272,-0.39687 -0.48524,-0.39687 -0.35065,0 -0.71113,0.11906 -0.80107,0.26458 -0.0899,0.14552 -0.39462,0.26459 -0.67707,0.26459 -0.28245,0 -0.51355,0.11906 -0.51355,0.26458 0,0.14552 0.31154,0.26458 0.69232,0.26458 0.56846,0 0.66685,0.0974 0.54998,0.54429 -0.11784,0.45063 -0.0765,0.48967 0.24012,0.22688 0.59011,-0.48975 0.71767,-0.11246 0.26073,0.77117 -0.85532,1.654 -1.27349,3.27341 -0.99535,3.85459 0.14639,0.30591 0.42498,0.9479 0.61908,1.42665 0.24225,0.5975 0.78153,1.11282 1.71978,1.64338 0.75178,0.42512 1.52569,0.98591 1.7198,1.24622 0.1941,0.2603 0.58075,0.65188 0.85921,0.87016 0.27847,0.21828 -0.21176,-0.61516 -1.08939,-1.85209 -2.24881,-3.16945 -2.7242,-4.14718 -2.7242,-5.60286 0,-0.68479 0.12699,-1.32355 0.28219,-1.41947 0.40398,-0.24968 0.46005,-0.13454 0.71861,1.47558 0.25178,1.56795 1.30171,3.32447 4.4215,7.39709 0.9468,1.23596 1.72145,2.4082 1.72145,2.60498 0,0.19679 0.20836,0.67433 0.46302,1.06122 0.94003,1.42812 1.13918,1.77663 1.45903,2.55325 l 0.32691,0.79375 0.0811,-1.11913 c 0.0493,-0.68003 -0.10426,-1.51051 -0.39133,-2.11666 z m 28.75273,1.91328 c 0.505,-0.94361 0.21215,-1.04837 -0.32318,-0.11561 -0.24516,0.42717 -0.35234,0.77667 -0.23818,0.77667 0.11416,0 0.36677,-0.29748 0.56136,-0.66106 z m 9.90375,-0.90068 c -0.0696,-0.0696 -0.33208,0.088 -0.58328,0.35028 -0.43637,0.4556 -0.43073,0.46124 0.12656,0.12656 0.32081,-0.19265 0.52633,-0.40723 0.45672,-0.47684 z m -2.75107,-0.42264 c 0.35905,-0.48948 0.35343,-0.50193 -0.0749,-0.16604 -0.25466,0.19972 -0.46302,0.48745 -0.46302,0.63941 0,0.15196 0.0337,0.22667 0.0749,0.16604 0.0412,-0.0606 0.24954,-0.34837 0.46302,-0.63941 z m -82.02955,-2.14752 c 0,-0.0558 -0.23813,-0.10144 -0.52917,-0.10144 -0.29104,0 -0.52917,0.10792 -0.52917,0.23982 0,0.13189 0.23813,0.17754 0.52917,0.10143 0.29104,-0.0761 0.52917,-0.18403 0.52917,-0.23981 z m 48.05268,-3.40174 c 0.21443,-0.21443 0.54588,-1.20859 0.73654,-2.20923 0.31684,-1.66285 0.30727,-1.84396 -0.11132,-2.10537 -0.25189,-0.15731 -0.53555,-0.69947 -0.63035,-1.2048 -0.0948,-0.50533 -0.33848,-0.98253 -0.54152,-1.06045 -0.20304,-0.0779 -0.40816,-0.41683 -0.45582,-0.75315 -0.0731,-0.51538 -0.26623,-0.62441 -1.22907,-0.69372 -1.0649,-0.0767 -1.12347,-0.0469 -0.86336,0.43915 0.17422,0.32554 0.46122,0.47375 0.76401,0.39457 0.70788,-0.18511 1.15554,0.52212 1.06038,1.67524 -0.0585,0.70897 -0.22072,1.03451 -0.54624,1.0962 -0.37011,0.0701 -0.47151,-0.11523 -0.50536,-0.92384 -0.0418,-0.99983 -0.0436,-1.00141 -0.15024,-0.13575 -0.0798,0.64734 -0.22402,0.85372 -0.55297,0.79105 -0.24479,-0.0466 -0.48492,-0.38123 -0.53362,-0.74355 -0.0487,-0.36232 -0.19753,-0.77186 -0.33073,-0.91011 -0.1332,-0.13824 -0.24789,-0.55496 -0.25487,-0.92604 -0.009,-0.47853 -0.37407,-0.96315 -1.25569,-1.66688 -0.68365,-0.5457 -1.39035,-0.99218 -1.57046,-0.99218 -0.1801,0 0.44449,1.24887 1.38798,2.77526 0.94349,1.5264 1.71544,2.95515 1.71544,3.175 0,0.21986 0.0934,0.39974 0.20754,0.39974 0.11415,0 0.43025,0.37702 0.70246,0.83783 0.2722,0.4608 0.89318,1.18751 1.37996,1.6149 0.48677,0.4274 0.88504,0.94334 0.88504,1.14655 0,0.47381 0.20405,0.4678 0.69227,-0.0204 z m -12.06935,-1.72678 c 0,-0.14552 -0.10289,-0.26458 -0.22864,-0.26458 -0.2674,0 -1.09428,-2.05694 -1.09428,-2.72213 0,-0.25051 0.28691,-1.0502 0.63757,-1.77709 0.69271,-1.4359 0.64171,-1.6554 -0.16876,-0.7263 -1.11158,1.27428 -1.33828,2.02569 -0.98828,3.27576 0.17801,0.6358 0.40814,1.15601 0.51139,1.15601 0.10325,0 0.32335,0.29765 0.48911,0.66145 0.29768,0.65336 0.84189,0.9099 0.84189,0.39688 z m 15.15215,-0.26458 c 0.2492,-0.29105 0.33519,-0.52917 0.19109,-0.52917 -0.14409,0 -0.50012,-0.23813 -0.79116,-0.52917 l -0.52916,-0.52916 v 1.05833 c 0,1.18711 0.40384,1.37636 1.12923,0.52917 z m -23.14366,-2.5623 c 0.5518,-1.00096 0.32737,-1.30808 -0.35107,-0.48041 -0.65411,0.798 -0.84105,2.0041 -0.458,2.95492 0.14152,0.35128 0.23587,0.157 0.34287,-0.70596 0.0812,-0.65485 0.29098,-1.45069 0.4662,-1.76855 z m 3.01912,-1.4726 c 1.09163,-1.07918 1.1841,-1.25677 0.65439,-1.25677 -0.60241,0 -2.56117,1.8617 -2.56117,2.43426 0,0.62903 0.21161,0.49835 1.90678,-1.17749 z m 2.06197,-1.68195 c 0,-0.0572 -0.17859,-0.10399 -0.39687,-0.10399 -0.21828,0 -0.39688,0.11533 -0.39688,0.25628 0,0.14096 0.1786,0.18775 0.39688,0.10399 0.21828,-0.0838 0.39687,-0.19909 0.39687,-0.25628 z m 1.46177,-1.43751 c 0.11155,-0.18049 -0.0879,-0.21321 -0.5797,-0.0951 -1.01373,0.24353 -1.10968,0.37026 -0.28032,0.37026 0.37947,0 0.76647,-0.12383 0.86002,-0.27519 z m 5.41662,-5.74408 -7.8e-4,-1.52136 -0.92526,-0.0199 c -0.85905,-0.0184 -0.92526,0.0378 -0.92526,0.78576 0,0.58173 0.23896,1.00985 0.85989,1.54058 0.47294,0.40424 0.88966,0.73526 0.92604,0.7356 0.0364,3.4e-4 0.0658,-0.68399 0.0654,-1.52073 z m -1.9836,-2.52052 c 0.34741,-0.0854 0.2338,-0.14062 -0.33072,-0.16077 -0.62942,-0.0225 -0.8599,0.0844 -0.8599,0.39858 0,0.31024 0.0917,0.35482 0.33073,0.16076 0.1819,-0.14767 0.56885,-0.32704 0.85989,-0.39857 z m 0.5984,-1.43158 c -0.25296,-0.0662 -0.72921,-0.0686 -1.05833,-0.005 -0.32912,0.0633 -0.12215,0.11747 0.45993,0.1204 0.58209,0.003 0.85137,-0.0488 0.5984,-0.11506 z m -40.08563,91.13231 c -0.33278,-0.42103 -0.64497,-7.07761 -0.33194,-7.07761 0.41203,0 0.60135,0.56425 0.83376,2.48495 0.12516,1.03437 0.29968,2.33035 0.38783,2.87995 l 0.16026,0.99927 3.74053,-0.0732 3.74054,-0.0732 0.081,-1.57835 c 0.0446,-0.86809 0.19444,-1.71496 0.33301,-1.88194 0.35956,-0.43324 3.168,-0.64012 12.9474,-0.95377 14.67771,-0.47074 28.45244,-0.63491 49.66451,-0.59188 l 20.42805,0.0414 -0.34845,-0.83396 c -0.83074,-1.98824 -0.95337,-18.04355 -0.14568,-19.07342 0.11459,-0.14611 0.24783,-0.68189 0.2961,-1.19063 0.10419,-1.09804 0.90659,-1.34904 0.84241,-0.26352 -0.34624,5.85692 -0.0782,18.99331 0.40513,19.85243 0.12548,0.22306 0.31619,0.80644 0.42381,1.29639 0.43595,1.98488 3.79372,4.25578 6.28777,4.25249 1.20333,-0.002 1.44472,0.76364 0.26458,0.83875 -2.84847,0.1813 -4.39945,-0.45438 -6.67608,-2.73624 l -1.23189,-1.23472 -4.74419,0.24982 c -9.78451,0.51522 -30.08709,0.85349 -52.50148,0.87475 -12.73308,0.0121 -23.59753,-0.0599 -24.14323,-0.15985 l -0.99219,-0.1818 v 2.23232 2.23233 h -4.7301 c -3.46828,0 -4.79984,-0.0882 -4.99151,-0.33073 z m 97.53965,-5.42396 c -0.15131,-0.40018 -0.86274,-1.24285 -1.58095,-1.8726 -1.27749,-1.12015 -1.66498,-1.89771 -0.9457,-1.89771 0.87916,0 3.60861,3.12478 3.60861,4.13128 0,0.654 -0.79898,0.38743 -1.08196,-0.36097 z m 8.13795,-1.5816 c -0.0977,-0.15815 0.40641,-0.33232 1.2483,-0.43127 0.77675,-0.0913 2.05377,-0.3548 2.83784,-0.58558 0.78407,-0.23078 2.08042,-0.60553 2.88079,-0.83279 0.80036,-0.22726 1.69333,-0.50368 1.98437,-0.61426 0.29105,-0.11058 1.24355,-0.39544 2.11667,-0.63302 0.87313,-0.23759 1.95314,-0.54715 2.40004,-0.68793 1.09335,-0.34441 1.17184,-0.32998 1.17184,0.21546 0,0.3345 -0.36499,0.57793 -1.25678,0.83824 -0.69122,0.20176 -1.43536,0.45691 -1.65364,0.567 -0.94734,0.4778 -2.70519,1.03377 -3.26855,1.03377 -0.3366,0 -0.69928,0.0873 -0.80596,0.19395 -0.71997,0.71997 -7.29184,1.52391 -7.65492,0.93643 z m 37.27021,-6.31268 c -0.0989,-0.30365 -0.71301,-0.8111 -1.36461,-1.12767 -0.65159,-0.31657 -1.11201,-0.6932 -1.02316,-0.83697 0.21149,-0.34219 1.45324,-0.33947 1.45324,0.003 0,0.14552 0.23586,0.26458 0.52413,0.26458 0.56603,0 0.94065,0.92095 0.71797,1.76501 -0.11653,0.4417 -0.14338,0.43575 -0.30757,-0.0681 z m -85.62542,-47.63643 c -0.86507,-0.9015 -0.95843,-0.93334 -2.29088,-0.78114 -1.51306,0.17282 -1.59401,0.13219 -0.97329,-0.48852 0.50509,-0.5051 2.51751,-0.55614 3.35284,-0.085 0.77496,0.43705 1.2397,1.02144 1.25005,1.57189 0.0152,0.80831 -0.42287,0.73724 -1.33872,-0.21718 z m -4.96497,-2.45017 c -0.25024,-0.15856 -0.27028,-0.28227 -0.0661,-0.40843 0.16106,-0.0995 0.29283,-0.39064 0.29283,-0.64688 0,-0.52966 1.35172,-2.14871 1.79392,-2.14871 0.49353,0 0.68909,0.59308 0.29678,0.90004 -0.20427,0.15982 -0.7004,0.7966 -1.10251,1.41507 -0.40211,0.61846 -0.75919,1.12265 -0.79351,1.12042 -0.0343,-0.002 -0.22393,-0.1064 -0.42137,-0.23151 z"
       id="path8" /></g></svg>
