<?xml version="1.0" encoding="UTF-8" standalone="no"?>
<!-- Created with Inkscape (http://www.inkscape.org/) -->

<svg
   width="173.37021mm"
   height="133.95795mm"
   viewBox="0 0 173.37021 133.95795"
   version="1.1"
   id="svg1"
   xml:space="preserve"
   xmlns="http://www.w3.org/2000/svg"
   xmlns:svg="http://www.w3.org/2000/svg"><defs
     id="defs1" /><g
     id="layer1"
     transform="translate(-345.36809,3.6037178)"><path
       style="fill:#4d4d4d"
       d="m 394.24983,130.09466 c -0.32742,-0.15791 -0.59532,-0.38797 -0.59532,-0.51126 0,-0.12328 -0.46774,-0.22415 -1.03943,-0.22415 -0.57169,0 -1.21803,-0.17859 -1.43631,-0.39687 -0.21828,-0.21828 -0.57978,-0.39688 -0.80334,-0.39688 -0.22355,0 -0.53885,-0.24736 -0.70065,-0.54969 -0.16682,-0.31171 -0.45569,-0.48771 -0.66724,-0.40653 -0.20518,0.0787 -0.69924,-0.13741 -1.0979,-0.48033 -0.67179,-0.57785 -0.6981,-0.67346 -0.35944,-1.30626 0.20097,-0.37552 0.75394,-0.811 1.22881,-0.96772 0.47488,-0.15672 1.0545,-0.57659 1.28806,-0.93304 0.23355,-0.35645 0.6718,-0.6481 0.97387,-0.6481 0.90298,0 2.37672,-0.83222 2.62359,-1.48155 0.16145,-0.42465 0.51205,-0.6506 1.16865,-0.75317 0.5159,-0.0806 1.36098,-0.21263 1.87795,-0.29341 0.51697,-0.0808 1.00372,-0.31308 1.08166,-0.5162 0.0779,-0.20311 0.63723,-0.53867 1.24287,-0.74567 2.01295,-0.68801 2.98728,-0.9725 3.3307,-0.9725 0.39739,0 1.30598,-0.71874 3.85586,-3.0502 3.42187,-3.12875 3.66498,-3.30843 4.70046,-3.47401 2.40929,-0.38526 0.19246,-0.49805 -4.96504,-0.25261 -6.9934,0.33281 -26.73844,0.36465 -32.08073,0.0517 l -4.03489,-0.23634 v 2.26903 2.26904 l -1.7088,0.18299 c -2.43626,0.2609 -7.46614,0.0504 -7.84483,-0.32825 -0.24754,-0.24754 -0.65582,-4.31423 -0.75269,-7.49725 -0.007,-0.22472 -0.50838,-0.93909 -1.11455,-1.5875 -0.60616,-0.6484 -1.92499,-2.22071 -2.93073,-3.49402 -1.00575,-1.27331 -1.92046,-2.31511 -2.03271,-2.31511 -0.11224,0 -0.42616,-0.4925 -0.69761,-1.094452 -0.27144,-0.60194 -0.85366,-1.45458 -1.29382,-1.89475 -0.82883,-0.82882 -1.3386,-1.57099 -1.62694,-2.36861 -0.0921,-0.25466 -0.27255,-0.46302 -0.4011,-0.46302 -0.12855,0 -0.23372,-0.14883 -0.23372,-0.33073 0,-0.1819 -0.59532,-1.52135 -1.32292,-2.97656 -0.7276,-1.45521 -1.32292,-2.9067 -1.32292,-3.22553 0,-0.31884 -0.0987,-0.64071 -0.21936,-0.71528 -0.12066,-0.0746 -0.38855,-0.82573 -0.59532,-1.66926 -0.2857,-1.16552 -0.37594,-3.59787 -0.37594,-10.13264 0,-8.25444 0.0242,-8.67125 0.60472,-10.40321 1.10036,-3.28302 3.96896,-8.06624 5.91551,-9.86378 0.48846,-0.45107 1.2673,-1.29702 1.73076,-1.8799 0.46346,-0.58289 1.25418,-1.25507 1.75715,-1.49375 0.50297,-0.23867 0.97979,-0.60411 1.0596,-0.81208 0.0798,-0.20797 0.59877,-0.59217 1.15326,-0.85379 0.55449,-0.26162 1.78018,-0.92546 2.72376,-1.4752 0.94357,-0.54975 2.02472,-0.99954 2.40255,-0.99954 0.37783,0 1.27269,-0.29716 1.98858,-0.66035 0.71588,-0.36319 1.43214,-0.66085 1.59169,-0.66146 0.15954,-6.1e-4 0.6743,-0.19278 1.14391,-0.42706 0.83411,-0.4161 2.52442,-0.94614 4.65142,-1.45857 2.32562,-0.56027 6.81227,-0.80908 11.90625,-0.66027 4.66225,0.13619 5.53954,0.23366 7.37557,0.81944 1.60958,0.51353 2.27202,0.61031 2.91041,0.42522 l 0.82652,-0.23964 -0.80102,-0.0239 c -0.90673,-0.027 -1.9771,-0.6739 -1.9771,-1.19488 0,-0.80414 4.1668,-0.90815 6.08541,-0.1519 0.73838,0.29104 1.57478,0.52916 1.85867,0.52916 0.28389,0 0.9518,0.46258 1.48423,1.02795 0.88133,0.93586 1.06533,1.01701 2.05373,0.90576 0.59712,-0.0672 1.32379,-0.22823 1.61483,-0.35782 0.29104,-0.12959 1.42214,-0.36434 2.51354,-0.52166 1.09141,-0.15732 2.75829,-0.39792 3.70417,-0.53466 3.62202,-0.52361 4.89362,-0.88638 5.55625,-1.58511 0.0728,-0.0767 0.8102,-0.34859 1.63876,-0.60414 1.48833,-0.45904 1.5086,-0.47891 1.68417,-1.64969 0.0977,-0.65178 0.28304,-1.25014 0.41177,-1.3297 0.12873,-0.0796 0.23405,-0.34154 0.23405,-0.58218 0,-0.24064 0.48509,-1.41676 1.07797,-2.61359 1.07162,-2.16325 1.07687,-2.18861 0.89187,-4.30936 l -0.18609,-2.1333 h -1.16996 c -1.08494,0 -1.19782,-0.0667 -1.55333,-0.91754 -0.42727,-1.02259 -0.50238,-2.15268 -0.15725,-2.36598 0.12437,-0.0769 0.50231,0.15424 0.83987,0.51355 0.66116,0.70377 1.7211,0.84406 2.37359,0.31416 0.53952,-0.43816 1.05833,-2.00143 1.05833,-3.18896 0,-0.93531 -0.32306,-1.76806 -0.95558,-2.46323 -0.16177,-0.17779 -0.57849,-0.92473 -0.92605,-1.65986 -0.48307,-1.02179 -0.83445,-1.40471 -1.49181,-1.62573 -0.47294,-0.15901 -0.85989,-0.44389 -0.85989,-0.63307 0,-0.18918 -0.18645,-0.4987 -0.41432,-0.68782 -0.22788,-0.18912 -0.59789,-0.69883 -0.82225,-1.1327 -0.34587,-0.66883 -0.35654,-0.94455 -0.0701,-1.81235 0.34661,-1.05024 0.8079,-1.22775 0.93527,-0.3599 0.0394,0.26858 0.22842,0.58643 0.41999,0.70632 0.58688,0.36729 0.56432,-0.91656 -0.0576,-3.27747 -0.85495,-3.2456096 -0.85806,-3.2675696 -0.54486,-3.8527896 0.15961,-0.29824 0.39967,-1.59151 0.53346,-2.87392 0.13378,-1.28242 0.37246,-2.66882 0.53039,-3.0809 0.36718,-0.95807 3.75509,-4.28336 4.8629,-4.77302 2.37237,-1.04861 3.10232,-1.07908 6.66569,-0.27829 0.9031,0.20295 1.75298,0.72384 2.83413,1.73703 0.67675,0.63420004 1.42523,1.27216004 1.66328,1.41768004 0.42028,0.25691 0.7406,0.76299 1.49082,2.35537996 0.19897,0.42233 0.82066,1.19624 1.38153,1.71979 0.56087,0.52355 1.5729,1.78434 2.24896,2.80175 l 1.22919,1.84984 0.057,3.6880596 0.057,3.68806 1.99357,1.90504 c 1.63237,1.5599 1.99356,2.05175 1.99356,2.71472 0,0.44532 0.11906,0.88326 0.26458,0.97319 0.4066,0.2513 0.31485,0.96052 -0.19844,1.5339 -0.4464,0.49868 -0.4302,0.54215 0.45149,1.21146 0.50298,0.38183 1.31183,1.09514 1.79744,1.58515 0.87056,0.87845 0.88185,0.92055 0.80651,3.00767 -0.0706,1.95477 -0.13373,2.16497 -0.82555,2.74709 -1.05689,0.88932 -2.8077,0.96558 -3.7018,0.16123 -0.962,-0.86542 -2.06262,-2.71256 -2.28356,-3.83245 l -0.22144,-1.12238 -0.029,1.10887 c -0.0159,0.60987 0.0901,1.18244 0.23559,1.27238 0.14552,0.0899 0.26458,0.43961 0.26458,0.77705 0,0.9345 0.71566,2.44553 1.37795,2.90942 0.39645,0.27769 1.18585,0.41457 2.39077,0.41457 1.65125,0 1.82307,-0.0531 2.09363,-0.6469 0.16211,-0.3558 0.46665,-0.71287 0.67675,-0.79349 0.30565,-0.11729 0.34526,0.0252 0.19819,0.71305 -0.24184,1.13103 -0.58348,1.52109 -1.33226,1.52109 -0.40349,0 -0.87042,0.34187 -1.35516,0.99219 -1.01281,1.35878 -1.13281,1.4273 -2.26393,1.29281 l -0.99219,-0.11798 v 1.21281 c 0,0.66705 0.11077,1.57845 0.24616,2.02535 0.13538,0.44689 0.45697,1.52691 0.71465,2.40003 0.25767,0.87313 0.74222,1.96651 1.07676,2.42974 0.33455,0.46324 0.60827,0.95822 0.60827,1.09996 0,0.39059 2.64675,2.68801 3.09672,2.68801 0.51879,0 4.31369,1.79389 4.90949,2.32077 0.35495,0.31389 0.60646,0.34727 1.05834,0.14048 0.75223,-0.34425 2.17924,-0.77597 3.37086,-1.01982 0.50933,-0.10422 1.34064,-0.47118 1.84736,-0.81546 0.5536,-0.37614 1.30745,-0.62597 1.88878,-0.62597 0.90497,0 0.98078,-0.0641 1.17342,-0.99219 0.26599,-1.28147 0.18108,-1.6916 -0.44029,-2.12682 -0.8941,-0.62625 -1.62012,-2.3911 -1.48006,-3.59778 0.4092,-3.52527 1.04476,-6.59037 1.6532,-7.97275 0.2028,-0.46078 0.35067,-1.74862 0.34935,-3.04271 -0.001,-1.3541 0.14892,-2.61098 0.37903,-3.16983 0.66015,-1.60324 0.0412,-2.01487 -1.69211,-1.12536 -1.18078,0.60595 -3.50384,0.61984 -4.09917,0.0245 -0.24167,-0.24167 -0.4394,-0.73769 -0.4394,-1.10227 0,-0.42562 -0.17756,-0.7093 -0.4961,-0.7926 -0.27505,-0.0719 -0.49609,-0.36393 -0.49609,-0.65536 0,-0.2891 -0.16935,-0.59062 -0.37634,-0.67005 -0.23033,-0.0884 -0.321,-0.35599 -0.23372,-0.68976 0.1289,-0.4929 0.0245,-0.54535 -1.08542,-0.54535 -1.08305,0 -1.25931,-0.0823 -1.49295,-0.69678 -0.17616,-0.46334 -0.1769,-1.17289 -0.002,-2.11786 0.26332,-1.42442 0.16457,-2.21245 -0.27725,-2.21245 -0.12995,0 -0.23627,-0.29063 -0.23627,-0.64584 0,-0.35521 -0.10342,-0.70976 -0.22982,-0.78788 -0.1264,-0.0781 -0.31308,-0.98701 -0.41484,-2.01975 -0.17634,-1.78953 -0.20593,-1.85402 -0.63008,-1.37304 -0.24478,0.27758 -0.77126,0.71609 -1.16996,0.97447 -0.81408,0.52757 -0.84487,0.49168 -1.12133,-1.30733 -0.47126,-3.0665096 -0.46487,-3.2025196 0.21247,-4.5262196 0.77045,-1.50566 2.32882,-3.27899 2.88151,-3.27899 0.21045,0 0.54193,-0.29766 0.73663,-0.66146 0.1947,-0.3638 0.51248,-0.66146 0.70617,-0.66146 0.19369,0 0.35217,-0.10031 0.35217,-0.22292 0,-0.1226 0.44323,-0.45002 0.98496,-0.7276 0.54173,-0.27758 1.21744,-0.71155996 1.50156,-0.96440996 0.28413,-0.25285 0.94223,-0.52429 1.46244,-0.6032 0.5202,-0.0789 1.31147,-0.25898 1.75836,-0.40016 0.4469,-0.14119 1.12448,-0.25671 1.50574,-0.25671 0.38126,0 0.76679,-0.11906 0.85673,-0.26458 0.19183,-0.31040004 1.98437,-0.36193004 1.98437,-0.0571 0,0.11415 0.36429,0.42273 0.80953,0.68574 0.44524,0.26301 0.91855,0.76493 1.05179,1.11538 0.18251,0.48004996 0.44032,0.63717996 1.04543,0.63717996 1.58688,0 5.03075,2.27792 5.03075,3.32754 0,0.2111 0.11906,0.62032 0.26458,0.90938 0.14553,0.28907 0.39051,0.77308 0.54442,1.07557 0.46702,0.9179 0.37707,3.5425296 -0.15972,4.6605596 -0.57561,1.19889 -0.86585,4.04987 -0.41229,4.04987 0.16532,0 0.27597,0.32742 0.24588,0.7276 -0.0619,0.82413 0.66765,2.0912 1.32674,2.3041 0.24164,0.0781 0.81985,0.49941 1.2849,0.93636 0.46505,0.43694 0.96141,0.79444 1.10303,0.79444 0.35163,0 1.99912,0.87867 2.10836,1.12448 0.0485,0.10914 0.19163,0.19843 0.31806,0.19843 0.55439,0 3.78572,2.53481 4.34176,3.4059 0.33695,0.52785 0.92454,1.24837 1.30575,1.60116 0.38121,0.35279 0.69311,0.79927 0.69311,0.99219 0,0.19291 0.0999,0.35075 0.22202,0.35075 0.12211,0 0.44953,0.47489 0.7276,1.0553 0.27808,0.58041 0.58543,1.05666 0.68301,1.05833 0.17665,0.003 0.51994,1.24458 0.62267,2.252 0.0297,0.29104 0.25886,1.71979 0.50928,3.175 0.29045,1.68782 0.39706,3.22064 0.29444,4.23333 -0.0885,0.87313 -0.26767,3.84969 -0.39822,6.61459 -0.42728,9.04978 -0.75826,12.24843 -1.51945,14.68437 -0.38652,1.23693 -0.98003,2.66355 -1.31893,3.17027 -0.33889,0.50673 -0.61617,1.07227 -0.61617,1.25677 0,0.18451 -0.11906,0.33546 -0.26458,0.33546 -0.14552,0 -0.26458,0.18021 -0.26458,0.40047 0,0.22025 -0.11047,0.6072 -0.24549,0.85989 -0.67646,1.26599 -1.07743,3.38892 -1.07743,5.70442 0,1.53953 -0.13262,2.75536 -0.34526,3.16523 -0.46686,0.89988 -2.48573,2.71849 -3.62349,3.26406 -0.50932,0.24423 -1.31299,0.8513 -1.78594,1.34904 -0.81619,0.85899 -1.09603,1.30177 -0.66145,1.04661 0.10914,-0.0641 0.79375,-0.38286 1.52135,-0.7084 0.7276,-0.32553 1.79176,-0.81591 2.3648,-1.08973 0.57304,-0.27381 1.23383,-0.49784 1.46844,-0.49784 0.2346,0 0.55247,-0.12591 0.70636,-0.27981 0.1539,-0.1539 0.98138,-0.34169 1.83886,-0.41733 0.85747,-0.0756 1.79716,-0.24602 2.08821,-0.37863 1.88791,-0.86021 9.15223,-1.32866 11.77395,-0.75926 0.65485,0.14222 1.66688,0.33171 2.24896,0.42108 0.58208,0.0894 1.1774,0.24903 1.32292,0.3548 0.14552,0.10576 0.80575,0.26266 1.46717,0.34865 0.66142,0.086 1.43533,0.23763 1.71979,0.33696 0.41757,0.14582 0.39597,0.0845 -0.11216,-0.31824 -0.34615,-0.27436 -1.31113,-1.10899 -2.1444,-1.85471 -0.83328,-0.74573 -1.97882,-1.5064 -2.54564,-1.69037 -0.56683,-0.18398 -1.33551,-0.54819 -1.70819,-0.80936 -0.37268,-0.26116 -0.99776,-0.5552 -1.38906,-0.65341 -0.39131,-0.0982 -0.71147,-0.28472 -0.71147,-0.41447 0,-0.12974 -0.21431,-0.2359 -0.47625,-0.2359 -0.26194,0 -0.58936,-0.11073 -0.7276,-0.24606 -0.7449,-0.7292 -2.83746,-1.09424 -7.19497,-1.25514 -3.99783,-0.14762 -4.52193,-0.21719 -4.23557,-0.56223 0.27538,-0.33181 1.03478,-0.36973 4.82694,-0.24101 5.05833,0.17169 6.02876,0.39918 9.52724,2.23342 0.72761,0.38148 1.58988,0.82141 1.91617,0.97762 0.32628,0.15621 0.59417,0.37332 0.59531,0.48246 10e-4,0.10914 0.2957,0.19844 0.65458,0.19844 0.37191,0 1.08304,0.38989 1.65364,0.90663 2.71001,2.4542 3.20204,2.84297 4.29591,3.39434 0.64796,0.3266 1.7646,1.15937 2.48141,1.85059 0.71682,0.69123 1.38879,1.25677 1.49328,1.25677 0.44066,0 2.18236,1.98363 2.69007,3.06372 0.30238,0.64329 0.65573,1.16962 0.78523,1.16962 0.12949,0 0.23544,0.12871 0.23544,0.28602 0,0.15731 0.4285,1.13957 0.95222,2.18281 0.93925,1.87099 1.25361,3.01299 1.68744,6.13013 0.12151,0.87312 0.30989,2.11246 0.41862,2.75407 0.10873,0.64162 0.0422,4.927872 -0.14793,9.525002 -0.29239,7.07095 -0.4107,8.40807 -0.76809,8.68074 -0.46034,0.35121 -5.75163,0.42803 -8.09538,0.11753 l -1.32292,-0.17526 0.0401,-2.31431 0.0401,-2.3143 -3.21507,0.19764 c -7.23338,0.44465 -36.19103,0.0331 -43.10101,-0.61253 -1.64145,-0.15337 -1.98225,0.17918 -1.09395,1.06748 0.27994,0.27994 0.42741,0.88557 0.42741,1.75529 0,1.6929 -0.56151,2.32185 -2.77327,3.10641 -0.90938,0.32257 -2.14239,0.9101 -2.74003,1.30562 -0.59764,0.39551 -1.57754,1.04654 -2.17756,1.44672 -0.60001,0.40018 -1.30166,0.73182 -1.55921,0.73698 -0.25756,0.005 -0.76594,0.17953 -1.12974,0.3875 -0.72735,0.41579 -3.09918,0.52065 -3.66511,0.16203 -0.21734,-0.13773 -0.66252,-0.0747 -1.13397,0.16046 -0.64204,0.32029 -1.00325,0.33271 -2.09039,0.0719 -0.72284,-0.1734 -1.38044,-0.42238 -1.46134,-0.55328 -0.0809,-0.1309 -0.64608,-0.23982 -1.25595,-0.24205 -0.60988,-0.002 -1.27482,-0.10913 -1.47765,-0.23757 -0.47514,-0.30086 -1.07732,-2.03214 -1.08244,-3.11203 l -0.004,-0.84011 1.69042,0.0256 c 1.93124,0.0293 4.00435,-0.81138 5.84373,-2.3697 0.57853,-0.49012 1.62032,-1.09302 2.31511,-1.33979 0.97931,-0.34782 1.26324,-0.57705 1.26324,-1.01989 0,-0.52156 -0.0863,-0.5527 -0.99219,-0.3582 -3.6044,0.77386 -18.76857,1.13978 -21.04429,0.50781 -0.90404,-0.25105 -1.0808,-0.21206 -1.80624,0.39835 -0.44227,0.37215 -0.88543,0.67664 -0.98481,0.67664 -0.0994,0 -0.95343,0.71153 -1.89792,1.58117 -0.94449,0.86965 -1.86609,1.58402 -2.04799,1.5875 -0.1819,0.003 -0.33073,0.11109 -0.33073,0.23912 0,0.12804 -0.68461,0.74717 -1.52135,1.37584 -2.91416,2.18949 -3.06298,2.4122 -3.00222,4.49288 0.0674,2.30811 -0.43997,3.44362 -2.06898,4.63047 -0.90562,0.65981 -1.5811,0.91992 -2.66786,1.02733 -2.77386,0.27415 -4.84348,0.64358 -5.00105,0.89268 -0.2596,0.41041 -2.61185,1.10634 -3.73945,1.10634 -0.577,0 -1.04909,0.11906 -1.04909,0.26458 0,0.15253 -0.82841,0.26459 -1.95606,0.26459 -1.56698,0 -1.98911,-0.0861 -2.12219,-0.43289 -0.14344,-0.37381 -0.22855,-0.38284 -0.62362,-0.0661 -1.28609,1.03096 -1.91368,1.18333 -2.9049,0.70528 z m 2.30725,-1.43432 c 0.58412,-0.34504 0.90007,-0.37686 1.53712,-0.15478 0.87662,0.30559 2.30569,0.0821 3.63011,-0.5678 0.43656,-0.21421 1.56765,-0.53691 2.51354,-0.71711 0.94588,-0.1802 1.77932,-0.40601 1.85208,-0.5018 0.31638,-0.41651 2.49065,-1.06377 3.57343,-1.06377 3.24783,0 5.23865,-1.46576 5.49295,-4.04424 0.20263,-2.0546 0.14985,-2.04398 -1.67495,0.33693 -0.59529,0.7767 -0.82712,0.88509 -1.89303,0.88509 -1.16041,0 -2.05882,-0.47908 -2.05882,-1.09788 0,-0.13956 0.62124,-0.23736 1.38053,-0.21734 1.28759,0.034 1.40781,-0.0177 1.78593,-0.76709 0.397,-0.78681 2.20516,-3.29499 3.29531,-4.57107 1.54083,-1.80362 2.02502,-2.21495 2.42613,-2.06104 0.35055,0.13452 0.26218,0.38223 -0.52939,1.48405 -0.52259,0.72741 -0.95017,1.41372 -0.95017,1.52512 0,0.11141 -0.31801,0.67668 -0.7067,1.25616 -0.57568,0.85829 -0.37654,0.72254 1.0743,-0.73233 0.97954,-0.98227 1.95239,-1.78594 2.1619,-1.78594 0.2095,0 0.38091,-0.0925 0.38091,-0.20562 0,-0.57843 4.72677,-4.76947 9.6573,-8.56274 0.87312,-0.67173 1.81431,-1.47396 2.09152,-1.78273 0.27722,-0.30878 0.66417,-0.56141 0.8599,-0.56141 0.19573,0 0.35587,-0.10418 0.35587,-0.23151 0,-0.12733 0.34818,-0.30115 0.77373,-0.38626 0.51694,-0.10338 1.03544,-0.53148 1.56224,-1.28984 0.43368,-0.6243 1.2259,-1.55182 1.76049,-2.06114 0.53459,-0.50932 1.16053,-1.342762 1.39097,-1.852082 0.6181,-1.36612 1.11864,-2.73716 1.12317,-3.07654 0.002,-0.16413 0.20333,-0.75945 0.44699,-1.32292 0.24365,-0.56348 0.41145,-1.3098 0.37287,-1.6585 -0.0386,-0.3487 0.0597,-0.91425 0.21845,-1.25677 0.15872,-0.34253 0.42777,-0.92043 0.59788,-1.28423 0.17011,-0.3638 0.45319,-0.66146 0.62906,-0.66146 0.17587,0 0.46753,-0.17805 0.64814,-0.39566 0.34425,-0.4148 1.28073,-0.70858 3.70517,-1.16235 3.80263,-0.71171 4.66465,-0.8439 10.58334,-1.62291 0.94588,-0.1245 3.2676,-0.35478 5.15937,-0.51174 3.37758,-0.28024 4.76948,-0.54459 6.35,-1.20596 0.43656,-0.18268 1.27,-0.47952 1.85208,-0.65966 0.58209,-0.18013 1.26508,-0.43196 1.51777,-0.55961 0.25268,-0.12766 0.62506,-0.23211 0.8275,-0.23211 0.20243,0 0.5,-0.15897 0.66126,-0.35328 0.16125,-0.1943 0.7848,-0.51552 1.38565,-0.71381 0.80228,-0.26478 1.35981,-0.72246 2.09901,-1.72307 0.55361,-0.74939 1.42059,-1.559 1.92663,-1.79913 0.50605,-0.24014 1.55749,-1.06144 2.33655,-1.82512 l 1.41647,-1.38851 -0.0584,-2.77927 c -0.0433,-2.0607 0.0558,-3.0871 0.38329,-3.96989 0.24296,-0.65485 0.52314,-1.25016 0.62262,-1.32292 0.20434,-0.14945 1.03691,-2.51406 1.03691,-2.94496 0,-0.15436 0.23021,-0.60394 0.51158,-0.99908 0.28136,-0.39515 0.59544,-1.06837 0.69794,-1.49606 0.1025,-0.42768 0.28223,-0.9007 0.39939,-1.05114 0.19329,-0.24818 0.94864,-4.12388 1.59679,-8.19313 0.34884,-2.19009 0.96619,-19.25567 0.7078,-19.56594 -0.11513,-0.13825 -0.20933,-0.5252 -0.20933,-0.8599 0,-0.3347 -0.11906,-0.60854 -0.26458,-0.60854 -0.14552,0 -0.26459,-0.12089 -0.26459,-0.26864 0,-0.54498 -2.80003,-4.15755 -4.74346,-6.11995 -1.39468,-1.40829 -2.57615,-2.31303 -3.88836,-2.97759 -2.42424,-1.22776 -5.65568,-3.98644 -5.65568,-4.82827 0,-0.23524 -0.33102,-0.35763 -0.96721,-0.35763 -0.62919,0 -1.27646,-0.23587 -1.85208,-0.67493 l -0.88487,-0.67492 v 0.79691 c 0,0.82207 -0.74111,1.73951 -1.63414,2.02295 -0.58407,0.18537 -0.60202,0.38753 -0.0941,1.0591 0.47783,0.63175 0.52359,2.51549 0.0746,3.06938 -0.18191,0.22437 -0.77591,0.73652 -1.32002,1.13809 -0.86078,0.63529 -1.01099,0.67359 -1.15633,0.29485 -0.11391,-0.29685 0.13759,-0.69548 0.79086,-1.25348 0.74083,-0.63281 0.95788,-1.01542 0.95788,-1.68853 0,-0.47868 -0.12402,-0.91167 -0.27561,-0.9622 -0.15158,-0.0505 -0.30325,-0.50693 -0.33704,-1.01423 -0.0338,-0.5073 -0.15492,-1.0712 -0.26917,-1.2531 -0.29851,-0.47523 0.0639,-0.9899 0.43543,-0.61836 0.47108,0.47107 1.32468,0.36041 1.13015,-0.14652 -0.0916,-0.23879 -0.004,-0.68527 0.19412,-0.99219 0.32705,-0.50596 0.28565,-0.61955 -0.44369,-1.21721 -0.60582,-0.49644 -0.7587,-0.54543 -0.61929,-0.19843 0.1018,0.2534 0.25737,0.63933 0.3457,0.85761 0.22515,0.55639 -0.51004,0.5084 -1.01341,-0.0661 -0.22311,-0.25466 -0.47247,-0.82021 -0.55414,-1.25677 -0.0817,-0.43656 -0.22991,-1.12534 -0.32942,-1.53062 -0.37181,-1.51419 1.56769,-2.35473 3.06656,-1.32899 0.83488,0.57135 1.04199,0.87797 1.04701,1.55009 0.007,0.97354 0.59785,1.82976 1.58762,2.30171 1.25157,0.59678 2.0609,0.63183 1.59381,0.069 -0.31967,-0.38517 -0.27658,-1.82549 0.15705,-5.24993 0.18764,-1.4818696 -0.24765,-3.3238696 -1.10474,-4.6748096 -0.90055,-1.41945 -2.58737,-2.64583 -3.63921,-2.64583 -0.58207,0 -2.45121,-1.24921 -2.86083,-1.91197996 -0.0953,-0.15416 -0.82452,-0.28029 -1.62054,-0.28029 -1.11175,0 -1.86884,0.20814 -3.26537,0.89769996 -0.99994,0.49373 -2.01753,1.14161 -2.26133,1.43973 -0.24379,0.29812 -1.0108,0.8339 -1.70447,1.19063 -1.17274,0.60309 -3.64568,2.88674 -3.39618,3.13624 0.061,0.061 0.3293,-0.0869 0.59631,-0.32852 0.26701,-0.24164 0.5654,-0.43935 0.66308,-0.43935 0.39669,0 0.14118,1.00928 -0.37341,1.47498 -0.30305,0.27426 -0.74326,0.91779 -0.97823,1.43007 -0.62959,1.3725796 -0.662,1.5116496 -0.22705,0.9741796 0.43677,-0.5397396 1.78185,-0.9661996 3.64499,-1.1556796 1.21995,-0.12406 1.23006,-0.11842 1.70167,0.9505096 0.35472,0.804 0.76199,1.21048 1.61415,1.61104 0.62684,0.29466 1.27393,0.53574 1.43798,0.53574 0.64163,0 2.35799,2.18486 2.52197,3.21039 0.11963,0.74807 0.29155,1.02294 0.63981,1.02294 0.41907,0 0.45821,-0.17468 0.32605,-1.45521 -0.12517,-1.21277 -0.0806,-1.45521 0.26749,-1.45521 0.29636,0 0.4705,0.36502 0.59955,1.25677 0.10004,0.69123 0.30982,1.41683 0.46619,1.61245 0.35303,0.44164 -0.71099,1.34929 -1.59221,1.35823 -0.31884,0.003 -0.65329,0.12495 -0.74322,0.27047 -0.0899,0.14552 -0.39462,0.26458 -0.67708,0.26458 -0.44264,0 -0.51409,-0.1918 -0.51745,-1.38906 -0.004,-1.54799 -0.39324,-2.51491 -1.18672,-2.95059 -0.29105,-0.15981 -0.5887,-0.36152 -0.66146,-0.44825 -0.0728,-0.0867 -0.44393,-0.23387 -0.82482,-0.32697 -0.68816,-0.1682 -2.35018,-1.65189 -2.35018,-2.098 0,-0.40363 -0.73566,-0.98936 -1.23787,-0.9856 -0.26506,0.002 -0.75925,0.0779 -1.0982,0.16864 -0.57824,0.15483 -0.60879,0.26485 -0.4949,1.78232 0.0668,0.88952 0.22502,1.99443 0.3517,2.45536 l 0.23031,0.83805 1.03943,-0.50732 c 1.08612,-0.53011 1.67639,-0.61616 2.37851,-0.34673 0.8202,0.31474 0.40513,0.84817 -0.9044,1.16232 -0.93743,0.22488 -1.32291,0.44705 -1.32291,0.76243 0,0.58291 1.22691,0.69429 1.76131,0.15989 0.62624,-0.62625 0.92715,-0.18472 0.47284,0.69381 -0.4927,0.95277 -1.07308,1.22116 -1.74004,0.80463 -0.41898,-0.26166 -0.49411,-0.23015 -0.49411,0.20722 0,0.28368 -0.11907,0.58937 -0.26459,0.67931 -0.14552,0.0899 -0.26458,0.45556 -0.26458,0.81249 0,0.60579 0.0684,0.63803 1.02824,0.48455 1.00729,-0.16107 1.03495,-0.14361 1.3574,0.85677 0.18103,0.56166 0.46247,1.18938 0.6254,1.39495 0.22581,0.28488 0.20243,0.40528 -0.0983,0.50634 -0.25102,0.0844 -0.0585,0.24818 0.52917,0.45032 0.82572,0.28403 0.9162,0.40862 0.8529,1.17432 l -0.0708,0.85658 1.12915,-0.13981 c 0.62103,-0.0769 1.73321,-0.28686 2.4715,-0.46657 1.1304,-0.27517 1.46461,-0.26418 2.11667,0.0696 2.84458,1.45601 4.0051,2.34566 3.70122,2.83735 -0.28019,0.45336 -0.78338,0.34916 -1.86793,-0.38683 -0.57629,-0.39109 -1.09791,-0.57943 -1.23237,-0.44497 -0.12822,0.12822 -0.23946,1.40109 -0.2472,2.8286 -0.008,1.42751 -0.12087,2.78861 -0.25142,3.02466 -0.39031,0.70576 -1.04778,2.91984 -1.04778,3.5285 0,0.312 -0.11264,0.93292 -0.2503,1.37981 -0.52053,1.68973 -0.73821,4.48756 -0.40998,5.2693 0.28784,0.68553 0.33208,0.53956 0.49647,-1.63806 0.0993,-1.31486 0.2866,-2.72509 0.41631,-3.13384 0.12972,-0.40876 0.318,-1.21945 0.4184,-1.80153 0.37642,-2.1823 0.68688,0.16073 0.6023,4.54556 l -0.0826,4.28097 0.75672,0.79097 c 0.55814,0.58341 1.14027,0.85706 2.21831,1.04279 0.80387,0.1385 1.65397,0.21417 1.88911,0.16816 0.23514,-0.046 0.88496,-0.1572 1.44405,-0.24708 l 1.01652,-0.16343 -0.19674,-2.82772 c -0.10821,-1.55525 -0.19853,-2.97655 -0.20072,-3.15845 -0.002,-0.1819 -0.15406,-0.33073 -0.3375,-0.33073 -0.45422,0 -1.95954,-1.86358 -1.95954,-2.42592 0,-0.94061 0.61349,-0.77178 1.73261,0.47683 0.63475,0.7082 1.15943,1.53171 1.16595,1.83003 0.006,0.29832 0.11873,0.65551 0.24934,0.79375 0.13062,0.13825 0.30232,0.7276 0.38157,1.30969 0.45821,3.36567 0.99313,5.51357 1.48259,5.95312 0.28617,0.25699 1.05739,1.99467 1.233,2.77813 0.0978,0.43656 0.27576,0.91924 0.39537,1.07262 0.14646,0.18783 -0.70764,0.38539 -2.61617,0.60513 -1.5585,0.17945 -3.48848,0.51475 -4.28884,0.74513 -1.37538,0.39589 -2.64632,0.59898 -7.02492,1.12255 -2.10103,0.25122 -4.25674,-0.0869 -6.20425,-0.97304 -0.65484,-0.29797 -1.6382,-0.68083 -2.18523,-0.85079 -0.54703,-0.16997 -1.14352,-0.45795 -1.32554,-0.63996 -0.18201,-0.18201 -0.68693,-0.41897 -1.12206,-0.52657 -0.6382,-0.15782 -0.7272,-0.13065 -0.4604,0.14058 0.81146,0.82493 0.0171,1.52832 -2.71198,2.40134 -0.43656,0.13966 -1.03187,0.36266 -1.32291,0.49556 -0.29104,0.1329 -1.00542,0.34925 -1.5875,0.48078 -0.9927,0.22431 -1.00911,0.24268 -0.26459,0.29618 0.43657,0.0314 1.00211,0.0358 1.25677,0.01 0.28239,-0.0287 0.46303,0.13338 0.46303,0.4155 0,0.55452 -1.00794,1.68733 -1.50133,1.68733 -0.19292,0 -0.35076,0.11906 -0.35076,0.26458 0,0.14552 -0.15409,0.26459 -0.34243,0.26459 -0.43193,0 -2.68884,2.08401 -2.48148,2.29137 0.0845,0.0845 0.56009,-0.27749 1.05696,-0.80433 0.49686,-0.52683 1.049,-0.95788 1.22697,-0.95788 0.17796,0 0.81041,-0.41672 1.40544,-0.92604 1.04002,-0.89021 2.04496,-1.21508 2.04496,-0.66108 0,0.34175 -1.92132,2.14734 -3.39805,3.19339 -0.632,0.44768 -1.08673,0.87632 -1.0105,0.95254 0.16351,0.16352 1.76272,-0.74032 1.76272,-0.99625 0,-0.29818 1.50582,-0.81708 2.10202,-0.72435 0.68866,0.1071 0.75218,0.58227 0.0948,0.70883 -0.26235,0.0505 -0.59606,0.2086 -0.74158,0.35132 -0.31715,0.31105 1.47775,0.0562 2.59161,-0.36791 0.53319,-0.20303 0.92423,-0.19745 1.40151,0.02 0.74267,0.33838 2.48917,0.40968 2.48917,0.10162 0,-0.2281 1.13552,-0.73525 2.11667,-0.94534 0.7357,-0.15754 9.27068,0.25434 12.56771,0.60649 1.16416,0.12434 2.89057,0.30891 3.83646,0.41016 1.18035,0.12634 2.34222,0.0553 3.70416,-0.22663 1.89144,-0.39148 4.04075,-0.34666 4.63021,0.0965 0.14552,0.10942 0.74083,0.27655 1.32292,0.37142 1.80646,0.2944 1.76827,0.55249 1.89268,-12.79332 0.0605,-6.48631 0.19512,-11.79329 0.29925,-11.79329 0.10412,0 0.3912,0.83326 0.63794,1.85169 0.62699,2.58787 0.89792,10.35721 0.47518,13.62643 -0.17876,1.38245 -0.42366,3.28745 -0.54422,4.23334 -0.74235,5.82432 -0.8057,5.93812 -3.15771,5.67258 -3.78726,-0.42758 -4.40152,-0.38045 -6.26579,0.48082 -0.75438,0.34851 -3.42787,0.15004 -10.07223,-0.74775 -1.25078,-0.16901 -1.38958,-0.13793 -1.39428,0.31218 -0.004,0.42157 -1.02803,3.52325 -1.72472,5.22603 -0.18534,0.45301 -0.0969,0.47939 1.09488,0.32649 3.95061,-0.50683 7.1324,-0.48159 6.59846,0.0524 -0.10145,0.10145 -0.9787,0.26109 -1.94945,0.35476 -2.05487,0.19828 -5.76216,0.86192 -6.52749,1.16848 -0.29104,0.11658 -0.88636,0.4649 -1.32292,0.77403 -1.41143,0.99946 -3.96371,1.97968 -5.1726,1.98658 -0.37108,0.002 -0.7878,0.10571 -0.92604,0.23019 -0.13825,0.12449 -0.9062,0.42894 -1.70657,0.67656 -0.80036,0.24761 -1.94808,0.67598 -2.55049,0.95191 -0.6024,0.27594 -1.43584,0.58322 -1.85208,0.68285 -0.41624,0.0996 -0.87586,0.26641 -1.02138,0.37062 -0.14553,0.1042 -1.07569,0.38864 -2.06704,0.63207 -0.99134,0.24344 -2.2689,0.73707 -2.83901,1.09697 -0.57011,0.35989 -1.12131,0.65435 -1.22488,0.65435 -0.10357,0 -0.61385,0.45635 -1.13395,1.01411 -0.5201,0.55776 -1.26656,1.09465 -1.6588,1.1931 -0.66946,0.16802 -2.5857,2.30835 -2.5857,2.88808 0,0.45341 -2.33652,4.01916 -2.89757,4.42197 -0.29811,0.21403 -0.54201,0.61238 -0.54201,0.88522 0,0.56752 -0.80401,2.03294 -1.11538,2.03294 -0.11415,0 -0.20754,0.11293 -0.20754,0.25095 0,0.13802 -0.27525,0.54795 -0.61167,0.91095 -0.33641,0.363 -0.84243,1.11028 -1.12448,1.66063 -0.28204,0.55034 -1.07835,1.80772 -1.76958,2.79417 -0.69122,0.98645 -1.25677,1.86845 -1.25677,1.95999 0,0.0916 -0.21966,0.35901 -0.48813,0.59436 -0.26847,0.23535 -0.7085,0.89494 -0.97786,1.46576 -0.26935,0.57082 -1.0669,1.608982 -1.77232,2.307022 -0.70543,0.69805 -1.45256,1.60023 -1.66029,2.00486 -0.45154,0.87956 -3.15064,3.89799 -6.10967,6.83251 -1.47551,1.46329 -2.49104,2.24201 -3.25083,2.49276 -0.63108,0.20827 -1.99585,1.13955 -3.18216,2.1714 -1.14245,0.9937 -2.2099,1.80672 -2.37212,1.80672 -0.16222,0 -0.29495,0.10085 -0.29495,0.2241 0,0.32978 -0.8136,1.17968 -1.71979,1.79652 -0.72688,0.49478 -3.93069,1.4213 -4.90904,1.41966 -0.22611,-3.8e-4 -0.81502,0.41602 -1.30867,0.92535 -0.70998,0.73251 -1.10388,0.92604 -1.88478,0.92604 -1.1865,0 -2.31868,1.11818 -1.78423,1.76216 0.23207,0.27962 0.1972,0.48074 -0.14982,0.8642 -0.44116,0.48747 -0.42477,0.49028 0.66637,0.11435 1.19347,-0.41118 2.09857,-0.39537 2.14107,0.0374 0.0143,0.14552 -0.23066,0.39568 -0.54434,0.5559 -1.02715,0.52468 -0.97678,0.71127 0.14564,0.53949 2.15648,-0.33003 2.6954,0.5502 0.69795,1.13998 -1.09612,0.32364 -2.43101,1.37427 -2.4545,1.93182 -0.0148,0.35176 1.07898,0.21122 1.83587,-0.23589 z M 434.9776,86.574768 c 0.0478,-0.24814 0.56253,-0.77996 1.14388,-1.18184 0.95229,-0.65831 1.28477,-0.73155 3.35648,-0.73947 2.28115,-0.009 2.9754,0.24611 2.35652,0.86499 -0.16417,0.16417 -1.398,0.36216 -2.74184,0.43996 -1.72185,0.0997 -2.63651,0.27819 -3.09752,0.60449 -0.82437,0.58347 -1.12829,0.58702 -1.01752,0.0119 z m 39.50712,-21.3011 c -0.43656,-0.15357 -0.93586,-0.3913 -1.10956,-0.52829 -0.17369,-0.13699 -0.91118,-0.40613 -1.63888,-0.59809 -1.12881,-0.29778 -1.59759,-0.28878 -3.19278,0.0613 -1.02833,0.22565 -1.94902,0.33096 -2.04597,0.23401 -0.25474,-0.25475 0.7475,-0.94623 1.38584,-0.95613 0.29831,-0.005 0.67719,-0.14322 0.84195,-0.30797 0.36711,-0.36712 3.07667,-0.3403 3.20066,0.0317 0.0491,0.14733 0.32927,0.26788 0.62257,0.26788 1.06138,0 3.51283,1.44152 3.22992,1.89928 -0.16254,0.26299 -0.27785,0.25376 -1.29375,-0.10361 z m -80.83021,62.778992 c 0,-0.13654 0.354,-0.63582 0.78666,-1.10952 0.43266,-0.4737 0.73413,-0.9138 0.66994,-0.97799 -0.2724,-0.27239 -1.65575,0.56753 -2.33334,1.41673 l -0.73331,0.91904 h 0.80503 c 0.44276,0 0.80502,-0.11172 0.80502,-0.24826 z m -3.59395,-1.5094 c 0.22404,-0.58383 0.0779,-0.68088 -0.72284,-0.47991 -0.43628,0.1095 -0.62448,0.30122 -0.53208,0.54204 0.19649,0.51203 1.05082,0.46974 1.25492,-0.0621 z m 1.74187,0.12485 c 0,-0.17045 0.19705,-0.52763 0.43788,-0.79375 0.25104,-0.2774 0.31039,-0.48386 0.13909,-0.48386 -0.16434,0 -0.4835,0.35719 -0.70926,0.79375 -0.23375,0.45201 -0.29363,0.79375 -0.13909,0.79375 0.14926,0 0.27138,-0.13945 0.27138,-0.30989 z m 59.02758,-7.27413 c 1.09909,-0.53734 2.74429,-1.64887 3.81096,-2.57477 0.43656,-0.37894 1.21047,-0.75902 1.71979,-0.8446 2.00102,-0.33626 3.96875,-1.59909 3.96875,-2.54702 0,-1.06284 -1.23101,-2.83088 -3.66967,-5.27056 -1.40142,-1.40201 -2.6671,-2.67468 -2.81262,-2.82817 -0.14552,-0.15349 -0.93444,-0.92382 -1.75316,-1.71185 -0.81872,-0.78803 -1.91721,-2.0752 -2.44109,-2.86038 -1.48724,-2.229012 -1.84872,-2.721332 -2.31094,-3.147382 -0.23681,-0.21828 -0.51934,-0.67793 -0.62782,-1.02143 -0.23108,-0.73165 -1.92987,-2.68274 -2.33584,-2.68274 -0.15353,0 -0.80321,-0.54693 -1.44372,-1.21541 -0.64052,-0.66848 -1.19203,-1.1745 -1.22557,-1.12448 -0.30174,0.44988 -0.95539,2.41794 -1.08471,3.26594 -0.1719,1.12715 -0.84341,3.40231 -1.22889,4.16359 -0.4744,0.9369 -0.24563,1.467052 0.93047,2.156292 0.63971,0.37489 1.6815,1.16721 2.3151,1.76072 0.6336,0.5935 1.56403,1.27604 2.06762,1.51677 0.50359,0.24072 1.6138,1.1251 2.46713,1.96529 0.85333,0.84018 1.8714,1.71657 2.26237,1.94752 0.39098,0.23096 0.85835,0.73243 1.03861,1.11439 0.40232,0.85251 0.43417,2.97022 0.0447,2.97022 -0.37191,0 -2.47694,1.43797 -3.84665,2.62771 -0.59784,0.51929 -1.55034,1.10977 -2.11666,1.31218 -0.98427,0.35179 -1.41369,0.70449 -1.4225,1.16834 -0.002,0.11739 0.26057,0.0281 0.58399,-0.19844 0.32342,-0.22653 0.74014,-0.41188 0.92604,-0.41188 0.4653,0 0.425,0.65676 -0.0653,1.06364 -0.77409,0.64244 -0.17986,0.54454 0.82215,-0.13545 l 1.01009,-0.68546 0.35814,0.68354 c 0.45173,0.86216 0.21327,1.65243 -0.54285,1.79907 -0.32054,0.0622 0.38117,0.12923 1.55936,0.14905 1.52117,0.0256 2.40322,-0.0916 3.04271,-0.40424 z m 4.8448,-7.03421 c 0.5187,-1.82152 0.50015,-1.98711 -0.27807,-2.48288 -0.41567,-0.2648 -0.8153,-0.54488 -0.88806,-0.62239 -0.0728,-0.0775 -0.58533,-0.37792 -1.13904,-0.66757 -1.41145,-0.73834 -2.2219,-1.63716 -1.82977,-2.02928 0.23029,-0.2303 0.79506,-0.003 2.30549,0.92954 1.10027,0.67901 2.09559,1.23456 2.21183,1.23456 0.47644,0 1.36191,1.2747 1.36191,1.96059 0,0.87509 -0.92496,2.27274 -1.50409,2.27274 -0.29873,0 -0.36379,-0.16126 -0.2402,-0.59531 z m -86.89113,0.61093 c 0,-1.17995 0.11823,-1.9121 0.33073,-2.04804 0.1819,-0.11636 1.87854,-0.30481 3.77031,-0.41877 5.28431,-0.31835 33.18268,-0.51764 36.90938,-0.26367 l 3.30729,0.22539 1.09504,-1.01967 c 0.60227,-0.56082 1.27031,-1.16155 1.48453,-1.33495 0.21422,-0.17341 0.76818,-0.87969 1.23104,-1.56953 0.46285,-0.68984 1.26189,-1.5828 1.77564,-1.98437 0.51375,-0.40157 1.16807,-1.18052 1.45404,-1.731 0.28597,-0.55047 1.09562,-1.58879 1.79924,-2.30736 0.70361,-0.718582 1.47266,-1.696942 1.70901,-2.174142 0.23634,-0.4772 1.07916,-1.77719 1.87293,-2.88888 1.36867,-1.91684 1.4189,-2.04326 0.97233,-2.4474 -0.25899,-0.23438 -0.60062,-0.42614 -0.75919,-0.42614 -0.15857,0 -0.78153,-0.47389 -1.38436,-1.05309 -0.60283,-0.5792 -1.62395,-1.2866 -2.26916,-1.57201 -0.64521,-0.28541 -1.29965,-0.79378 -1.4543,-1.12972 -0.26079,-0.56651 -1.70786,-1.79494 -2.94276,-2.49815 -0.2896,-0.16491 -1.14182,-0.94763 -1.89383,-1.73938 -0.75201,-0.79174 -1.70111,-1.64602 -2.10911,-1.89839 -0.408,-0.25236 -0.8179,-0.6571 -0.91088,-0.8994 -0.19251,-0.50168 -1.93858,-2.21753 -2.89285,-2.84279 -0.35085,-0.22989 -0.779,-0.72762 -0.95143,-1.10607 -0.34899,-0.76595 -1.52616,-2.01643 -2.4971,-2.65262 -0.34944,-0.22896 -0.86557,-0.86756 -1.14694,-1.41909 -0.28138,-0.55154 -1.05559,-1.45609 -1.72047,-2.01011 -0.66488,-0.55402 -1.61361,-1.61553 -2.10829,-2.35892 -0.49467,-0.74339 -1.23165,-1.56575 -1.63773,-1.82748 -0.81308,-0.52406 -1.84442,-1.56449 -2.45811,-2.47978 -0.21828,-0.32556 -0.81359,-0.78505 -1.32292,-1.0211 -0.50932,-0.23606 -1.3124,-0.81741 -1.78462,-1.29191 -1.15939,-1.16498 -2.5596,-2.21458 -2.95436,-2.21458 -0.17787,0 -0.70241,-0.27465 -1.16565,-0.61033 -0.46323,-0.33568 -1.31849,-0.8417 -1.90057,-1.12448 -0.58209,-0.28278 -1.11787,-0.57387 -1.19063,-0.64686 -0.21106,-0.21173 -1.35736,-0.70448 -2.64583,-1.13734 -1.85237,-0.62229 -4.00975,-0.82226 -8.59896,-0.79707 -6.70535,0.0368 -8.97818,0.48868 -12.13103,2.4118 -0.56019,0.34169 -1.54523,0.91532 -2.18898,1.27472 -1.68108,0.93854 -3.97028,3.37413 -5.05777,5.38121 -0.51574,0.95186 -1.07468,1.90924 -1.24208,2.12752 -0.16741,0.21828 -0.52952,1.11125 -0.80469,1.98438 -0.27517,0.87312 -0.59043,1.7101 -0.70056,1.85995 -0.35198,0.4789 -0.53009,9.38173 -0.26716,13.35359 0.13969,2.11005 0.45232,4.90802 0.69474,6.21771 0.24243,1.30968 0.50396,2.7693 0.5812,3.24359 0.0772,0.4743 0.24633,0.92781 0.37577,1.00781 0.12945,0.08 0.23609,0.46585 0.23698,0.85744 9e-4,0.39159 0.17949,1.05302 0.39688,1.46984 0.21738,0.41681 0.39524,1.03486 0.39524,1.37344 0,0.33858 0.10871,0.68279 0.24156,0.7649 0.13286,0.0821 0.3225,0.628342 0.42142,1.213842 0.0989,0.5855 0.5811,1.80526 1.0715,2.71059 1.91582,3.53672 2.76344,5.73895 2.76344,7.17978 0,0.5738 0.11493,1.40892 0.25541,1.85581 0.14047,0.4469 0.32133,1.13996 0.40191,1.54014 l 0.14651,0.72761 h 3.69913 3.69912 z m 148.25765,0.71199 c 0.85494,-4.93782 0.85264,-5.66354 -0.0283,-8.92969 -0.72837,-2.70051 -0.61983,-2.40879 -2.29163,-6.158792 -0.37481,-0.84073 -0.68147,-1.65578 -0.68147,-1.81124 0,-0.35893 -0.88483,-1.6408 -2.09865,-3.04038 -1.35318,-1.56026 -1.8701,-2.28466 -1.8701,-2.62072 0,-0.16189 -0.49766,-0.57404 -1.10591,-0.9159 -0.60824,-0.34185 -1.53098,-1.00542 -2.05052,-1.47459 -1.41649,-1.27916 -3.89859,-2.42804 -5.70711,-2.64161 -0.87313,-0.10312 -1.70657,-0.28129 -1.85209,-0.39594 -0.4459,-0.35131 -6.76615,-0.55883 -8.73125,-0.28668 -2.38157,0.32983 -6.52274,1.22728 -7.17077,1.55401 -2.59353,1.30764 -5.07931,2.44601 -5.34118,2.44601 -0.17619,0 -0.32034,0.10276 -0.32034,0.22836 0,0.1256 -0.68461,0.44307 -1.52135,0.70548 -0.83675,0.26241 -1.87854,0.69041 -2.31511,0.95111 -0.91133,0.54422 -2.08255,1.11209 -3.50573,1.69974 -0.5457,0.22533 -1.19893,0.52299 -1.45161,0.66146 -0.25269,0.13847 -0.75929,0.25176 -1.12578,0.25176 -0.36649,0 -1.28336,0.29766 -2.03748,0.66146 -0.75413,0.3638 -1.52907,0.66146 -1.72209,0.66146 -0.19302,0 -0.55769,0.10684 -0.81038,0.23742 -2.44943,1.26581 -6.81269,2.2945 -10.7318,2.53015 -2.95286,0.17756 -3.37248,-0.24465 -0.50661,-0.50973 2.36653,-0.2189 4.2587,-0.67025 7.40555,-1.76651 0.76398,-0.26615 1.38906,-0.42808 1.38906,-0.35984 0,0.0682 0.39501,-0.0978 0.87779,-0.36897 0.48279,-0.27117 1.25159,-0.57513 1.70845,-0.67547 0.45687,-0.10035 1.30626,-0.41223 1.88755,-0.69308 0.5813,-0.28085 1.31269,-0.51064 1.62532,-0.51064 0.31263,0 1.57084,-0.47625 2.79603,-1.05833 1.22518,-0.58208 2.40389,-1.05833 2.61935,-1.05833 0.21547,0 0.39176,-0.10614 0.39176,-0.23586 0,-0.31875 1.9673,-1.08706 2.78348,-1.08706 0.36085,0 0.6561,-0.10649 0.6561,-0.23664 0,-0.38972 6.40142,-3.46814 7.54237,-3.6271 0.58112,-0.081 1.29471,-0.24486 1.58576,-0.36422 0.8265,-0.33897 3.28065,-0.96965 5.04301,-1.29597 2.73458,-0.50635 5.53682,-0.34895 9.64136,0.54154 0.65484,0.14207 1.51805,0.32271 1.91823,0.40142 0.40018,0.0787 0.7276,0.24866 0.7276,0.37767 0,0.129 0.32743,0.23859 0.72761,0.24353 1.26866,0.0156 3.41483,1.28614 5.40375,3.19891 0.3971,0.38188 0.9091,0.76614 1.13778,0.85389 0.22868,0.0877 0.48758,0.34666 0.57533,0.57534 0.0877,0.22868 0.47201,0.74252 0.8539,1.14187 1.74423,1.82399 2.83272,3.34069 3.08204,4.29453 0.14907,0.57029 0.47649,1.27684 0.7276,1.57013 0.25112,0.29328 0.45658,0.60318 0.45658,0.68866 0,0.15469 0.65727,1.7279 1.03795,2.484362 0.19568,0.38885 0.9381,2.79038 1.18602,3.83646 0.15601,0.65827 -0.0354,-5.336092 -0.26187,-8.202092 -0.092,-1.16416 -0.2597,-2.23573 -0.37268,-2.38125 -0.11297,-0.14552 -0.28589,-0.6813 -0.38425,-1.19062 -0.0984,-0.50933 -0.40116,-1.40229 -0.67287,-1.98438 -1.62138,-3.47346 -2.1198,-4.59484 -2.1198,-4.76929 0,-0.3479 -3.22573,-3.03592 -3.64323,-3.03592 -0.15478,0 -0.32111,-0.0893 -0.36962,-0.19843 -0.0485,-0.10914 -0.50491,-0.42268 -1.01424,-0.69675 -2.89375,-1.55714 -4.21561,-2.21586 -4.78531,-2.38466 -1.65796,-0.49124 -6.21668,-1.02271 -8.84073,-1.03069 -4.11001,-0.0125 -9.82833,0.80558 -11.70493,1.67452 -0.61687,0.28564 -1.20032,0.51935 -1.29654,0.51935 -0.0962,0 -0.78213,0.29016 -1.52424,0.6448 -1.91425,0.9148 -3.33889,1.47186 -3.76415,1.47186 -0.20122,0 -0.98287,0.29766 -1.73699,0.66146 -0.75413,0.3638 -1.52745,0.66146 -1.7185,0.66146 -0.19104,0 -0.34735,0.0962 -0.34735,0.21367 0,0.23426 -1.84413,1.10925 -2.33787,1.10925 -0.16938,0 -0.30797,0.11906 -0.30797,0.26458 0,0.14552 -0.18599,0.26458 -0.4133,0.26458 -0.66207,0 -3.04561,0.7856 -4.48529,1.47831 -0.72969,0.3511 -1.51352,0.63836 -1.74184,0.63836 -0.22832,0 -0.49413,0.079 -0.5907,0.17557 -0.29067,0.29068 -2.89468,1.14735 -3.48757,1.14735 -0.3039,0 -0.67204,0.11949 -0.81808,0.26553 -0.14605,0.14605 -1.44978,0.38792 -2.89719,0.5375 -1.44741,0.14959 -3.46509,0.4022 -4.48374,0.56136 -2.91964,0.4562 -8.30113,0.44073 -8.58867,-0.0247 -0.18556,-0.30035 -0.36391,-0.31798 -0.85016,-0.084 -0.33843,0.16282 -0.4581,0.3041 -0.26592,0.31395 0.19217,0.01 0.91421,0.49416 1.60452,1.07624 0.69032,0.58208 1.37863,1.05833 1.52958,1.05833 0.35515,0 1.94045,1.51252 1.94045,1.85136 0,0.28685 0.57901,1.05203 1.5875,2.09795 0.80236,0.83214 2.11666,2.81431 2.11666,3.192242 0,0.15055 1.20998,1.52346 2.68884,3.05091 1.47886,1.52745 2.87375,3.04119 3.09976,3.36386 0.22601,0.32267 0.8615,1.06502 1.4122,1.64968 0.55071,0.58465 1.00129,1.22637 1.00129,1.42603 0,0.25912 0.17038,0.30599 0.59531,0.16376 1.54708,-0.51784 15.94516,-0.73137 27.97968,-0.41496 16.60288,0.43654 20.3899,0.6188 21.08137,1.01459 0.44643,0.25553 0.61457,0.67253 0.74678,1.85208 0.0938,0.83726 0.2178,1.67112 0.27544,1.85303 0.077,0.24295 1.04734,0.33072 3.65604,0.33072 h 3.55122 z m -83.03786,-3.93488 c 2.61971,-0.26284 12.31113,-0.19576 14.62089,0.1012 0.82287,0.1058 0.84228,0.0885 0.42201,-0.37589 -0.2423,-0.26773 -0.58213,-0.48679 -0.75518,-0.48679 -0.17306,0 -0.77968,-0.45556 -1.34806,-1.01237 -1.27572,-1.24975 -3.39745,-2.95638 -3.67546,-2.95638 -0.11346,0 -0.39886,-0.21754 -0.63421,-0.48342 -0.23535,-0.26589 -1.25083,-1.17823 -2.25662,-2.02742 l -1.82871,-1.544 -0.63838,0.77065 c -1.58251,1.91042 -2.8638,3.28419 -3.0631,3.28419 -0.30553,0 -1.9163,1.2185 -3.57648,2.7055 -0.77571,0.69479 -1.59602,1.26325 -1.82291,1.26325 -0.37677,0 -1.1037,0.70218 -1.12392,1.08564 -0.01,0.18161 1.49517,0.0957 5.68013,-0.32416 z m -76.59687,-5.78856 c 0,-0.14552 -0.11906,-0.26458 -0.26458,-0.26458 -0.14552,0 -0.26459,0.11906 -0.26459,0.26458 0,0.14552 0.11907,0.26458 0.26459,0.26458 0.14552,0 0.26458,-0.11906 0.26458,-0.26458 z m -1.27934,-2.72844 c -0.43937,-0.911 -0.88346,-2.009242 -0.98687,-2.440532 -0.1034,-0.43128 -0.26996,-0.90322 -0.37012,-1.04874 -0.10016,-0.14552 -0.39663,-1.21708 -0.65881,-2.38125 -0.26218,-1.16416 -0.57378,-2.35479 -0.69243,-2.64583 -0.26783,-0.65695 -0.37198,-1.57882 -0.92667,-8.20208 -0.37533,-4.48158 -0.39524,-5.87899 -0.13003,-9.12813 0.38027,-4.65891 0.75798,-6.48365 1.64303,-7.9375 0.13288,-0.21828 0.31156,-0.60523 0.39707,-0.8599 0.0855,-0.25466 0.26065,-0.46302 0.3892,-0.46302 0.12854,0 0.23372,-0.13088 0.23372,-0.29085 0,-0.15996 0.42725,-0.98304 0.94944,-1.82906 1.9547,-3.16686 7.05084,-6.96721 10.55993,-7.87486 4.57315,-1.18287 12.1577,-1.54014 15.30316,-0.72085 0.83804,0.21828 1.80852,0.39687 2.15664,0.39687 0.34811,0 0.70652,0.11907 0.79645,0.26459 0.0899,0.14552 0.39426,0.26458 0.67627,0.26458 0.58413,0 4.34545,1.93115 5.14457,2.64134 0.29104,0.25866 1.06888,0.70455 1.72853,0.99087 0.65965,0.28632 1.49631,0.87348 1.85924,1.3048 0.36293,0.43132 1.04361,1.01089 1.51261,1.28794 0.46901,0.27705 0.85274,0.58421 0.85274,0.68258 0,0.0984 0.26909,0.24639 0.59798,0.32894 0.32889,0.0825 0.80905,0.50739 1.06702,0.94411 0.25798,0.43672 1.17951,1.41197 2.04786,2.16724 0.86834,0.75526 1.57881,1.48454 1.57881,1.62062 0,0.13607 0.89297,1.15497 1.98437,2.26421 1.09141,1.10924 1.98452,2.14091 1.9847,2.2926 4.3e-4,0.37044 1.18578,1.731 1.50808,1.731 0.32581,0 1.32582,1.13857 2.26078,2.57404 0.39956,0.61345 1.05441,1.28545 1.45521,1.49333 0.4008,0.20787 1.08592,0.83021 1.52248,1.38297 0.43656,0.55276 1.14438,1.30874 1.57293,1.67994 0.42855,0.37121 1.50626,1.41907 2.39491,2.32857 0.88865,0.90951 1.72864,1.65468 1.86665,1.65595 0.28668,0.003 2.11448,1.68381 2.42564,2.23108 0.1136,0.19978 0.85664,0.79982 1.65121,1.33342 0.79457,0.5336 1.73354,1.25905 2.0866,1.61211 0.35306,0.35306 0.75933,0.64192 0.90283,0.64192 0.27886,0 -0.0846,-0.53622 -1.05561,-1.55743 -0.3302,-0.34727 -0.60037,-0.90579 -0.60037,-1.24116 0,-0.33537 -0.11906,-0.68334 -0.26458,-0.77328 -0.34505,-0.21325 -0.34505,-2.24896 0,-2.24896 0.14552,0 0.26458,-0.24595 0.26458,-0.54656 0,-0.73039 0.4257,-1.50124 1.48076,-2.68136 0.48137,-0.53843 1.12764,-1.49093 1.43616,-2.11666 0.30852,-0.62574 0.74574,-1.48248 0.97159,-1.90386 0.4046,-0.75486 0.39554,-0.77931 -0.61445,-1.65854 -0.5638,-0.49081 -1.45029,-1.11987 -1.96997,-1.3979 -0.51969,-0.27803 -1.68358,-1.22833 -2.58643,-2.11178 -0.90286,-0.88344 -1.75758,-1.60626 -1.8994,-1.60626 -0.14181,0 -0.25784,-0.1071 -0.25784,-0.238 0,-0.1309 -0.98227,-1.24998 -2.18281,-2.48685 -3.67345,-3.78458 -5.48991,-5.75164 -5.49416,-5.94964 -0.002,-0.10398 -0.10262,-0.34445 -0.22309,-0.5344 -0.17221,-0.27152 -0.49083,-0.20083 -1.49056,0.33073 -0.69934,0.37185 -1.50585,0.67608 -1.79225,0.67608 -0.28639,0 -0.9829,-0.47625 -1.5478,-1.05833 -0.56489,-0.58209 -1.10713,-1.05834 -1.20497,-1.05834 -0.0979,0 -0.39679,-0.19809 -0.66433,-0.4402 -0.41233,-0.37316 -0.58283,-0.38862 -1.11939,-0.10146 l -0.63297,0.33876 0.90012,0.79032 c 0.49507,0.43467 0.90013,0.95658 0.90013,1.15978 0,0.20321 0.17302,0.36947 0.38449,0.36947 0.21146,0 1.082,0.80367 1.93451,1.78594 0.85252,0.98226 2.01986,2.26219 2.59411,2.84427 0.57424,0.58208 1.45988,1.54467 1.96809,2.13908 1.30561,1.52709 5.45063,5.96554 8.79536,9.41802 1.56435,1.61474 2.84427,3.04154 2.84427,3.17067 0,0.8511 -3.48198,-2.26153 -8.48395,-7.58402 -0.13676,-0.14552 -0.70517,-0.74083 -1.26312,-1.32292 -1.38678,-1.44674 -4.34294,-4.69295 -6.26022,-6.87446 -0.87313,-0.99346 -1.91492,-2.15766 -2.31511,-2.58712 -0.40018,-0.42946 -0.7276,-0.87739 -0.7276,-0.99539 0,-0.11801 -0.0936,-0.25424 -0.20799,-0.30275 -0.1144,-0.0485 -0.4797,-0.47515 -0.81177,-0.94809 -0.47978,-0.68331 -0.78861,-0.8599 -1.50388,-0.8599 -0.69331,0 -1.03492,-0.18235 -1.48694,-0.79375 -0.32277,-0.43656 -0.76344,-0.79375 -0.97928,-0.79375 -0.62054,0 -1.36014,-0.81672 -1.36014,-1.50196 0,-0.40596 -0.5098,-1.13601 -1.44946,-2.07566 -0.7972,-0.7972 -1.52802,-1.44946 -1.62405,-1.44946 -0.096,0 -0.69127,-0.47625 -1.32276,-1.05833 -0.63149,-0.58209 -1.32941,-1.05834 -1.55094,-1.05834 -0.22153,0 -0.40279,-0.11906 -0.40279,-0.26458 0,-0.14552 -0.12865,-0.26458 -0.28589,-0.26458 -0.15724,0 -0.90138,-0.40231 -1.65365,-0.89402 -2.68951,-1.75797 -4.05358,-2.17956 -8.37921,-2.58977 -4.2862,-0.40647 -9.76415,-0.41043 -13.09687,-0.009 -2.85148,0.34307 -5.13196,0.79849 -5.55625,1.10961 -0.14552,0.10671 -0.62177,0.2761 -1.05834,0.37642 -0.43656,0.10032 -1.46654,0.59299 -2.28883,1.09482 -0.8223,0.50182 -1.62597,0.91241 -1.78594,0.91241 -0.15997,0 -0.29085,0.09 -0.29085,0.19999 0,0.11 -0.37059,0.36404 -0.82353,0.56453 -1.00038,0.44281 -4.06615,3.47819 -5.59219,5.53676 -0.61318,0.82716 -1.38502,1.76613 -1.7152,2.0866 -0.33018,0.32048 -0.60033,0.78062 -0.60033,1.02253 0,0.24192 -0.28092,0.99174 -0.62426,1.66628 -0.90362,1.77525 -1.1445,2.39195 -1.51245,3.87227 -0.73227,2.94595 -1.34135,9.51749 -1.15257,12.43541 0.26806,4.14332 1.25792,8.40367 2.65496,11.42685 0.34887,0.75497 0.63432,1.50483 0.63432,1.66635 0,0.16153 0.41672,0.94512 0.92604,1.74132 0.50932,0.7962 0.92794,1.53462 0.93027,1.64093 0.002,0.10632 0.37229,0.61002 0.82214,1.11934 0.44985,0.50933 1.04651,1.41106 1.32589,2.00386 0.27939,0.5928 0.98099,1.539702 1.55911,2.104222 0.57812,0.56452 1.05113,1.12633 1.05113,1.24845 0,0.12213 0.14883,0.3839 0.33073,0.5817 0.639,0.69485 0.50361,-0.1479 -0.28715,-1.7875 z m 71.35866,-11.359362 c -0.56269,-0.54607 -1.04093,-1.23112 -1.06276,-1.52232 -0.0218,-0.29121 -0.0516,-0.66837 -0.0661,-0.83814 -0.0637,-0.74362 0.65156,-0.43196 1.12415,0.4898 0.28466,0.55523 0.74912,1.27465 1.03214,1.59872 l 0.51458,0.58922 0.60637,-0.64545 c 0.66102,-0.70362 1.08677,-1.37818 1.73113,-2.74277 0.23032,-0.48778 0.64886,-1.13384 0.93009,-1.4357 0.28123,-0.30187 0.58024,-0.76598 0.66447,-1.03137 0.0842,-0.26539 0.26418,-0.48252 0.3999,-0.48252 0.13571,0 0.24675,-0.15784 0.24675,-0.35076 0,-0.19291 0.29766,-0.63038 0.66146,-0.97216 0.3638,-0.34177 0.66146,-0.7818 0.66146,-0.97783 0,-0.67042 1.36085,-2.41391 2.01162,-2.57724 0.35745,-0.0897 0.91426,-0.47894 1.23737,-0.86494 2.25272,-2.69124 2.13032,-2.5958 4.95309,-3.86203 0.80037,-0.35902 2.22912,-1.00899 3.175,-1.44436 2.09403,-0.96385 4.53494,-1.80402 5.94082,-2.04484 0.57532,-0.0986 1.46828,-0.39284 1.98438,-0.65398 0.51609,-0.26113 1.35506,-0.56151 1.86439,-0.66751 2.20871,-0.45968 5.55624,-2.84473 5.55624,-3.95872 0,-0.24473 0.29766,-1.0957 0.66146,-1.89105 0.80784,-1.76611 0.85078,-2.48875 0.14791,-2.48875 -0.28245,0 -0.58714,-0.11906 -0.67707,-0.26458 -0.0899,-0.14552 -1.0197,-0.26641 -2.06614,-0.26864 -1.04644,-0.002 -2.07024,-0.11017 -2.27512,-0.23987 -0.4241,-0.26848 -1.46429,0.11867 -2.26196,0.84189 -0.72058,0.65333 -2.35359,1.04565 -3.47599,0.83509 -0.51878,-0.0973 -1.20162,-0.056 -1.51743,0.0919 -0.31581,0.14788 -1.09366,0.40984 -1.72856,0.58215 -0.71523,0.19411 -1.20181,0.49468 -1.27906,0.7901 -0.0686,0.26225 -0.41232,0.63075 -0.76386,0.81889 -0.35155,0.18814 -0.63917,0.44102 -0.63917,0.56195 0,0.34815 -1.40754,0.23923 -1.91823,-0.14844 -0.25467,-0.19332 -0.46302,-0.50088 -0.46302,-0.68348 0,-0.41594 -1.07474,0.25845 -2.38125,1.49422 -0.50933,0.48174 -1.01534,0.87693 -1.12448,0.87819 -0.10914,0.001 -0.19844,0.12986 -0.19844,0.28578 0,0.35044 -0.66691,1.03943 -1.00611,1.03943 -0.13759,0 -0.83071,0.62058 -1.54026,1.37905 -0.70955,0.75848 -1.90191,1.97887 -2.64969,2.71198 -0.74777,0.73311 -1.99765,2.16637 -2.77751,3.18502 -0.77985,1.01864 -1.50749,1.89177 -1.61696,1.94027 -0.10948,0.0485 -0.19905,0.20584 -0.19905,0.34963 0,0.14379 -0.14883,0.42739 -0.33073,0.63023 -0.7305,0.81457 -0.99219,1.1668 -0.99219,1.33545 0,0.54233 -1.67383,3.32121 -2.61619,4.34337 -1.88454,2.04415 -2.03008,4.16608 -0.41807,6.09553 0.47886,0.57316 1.13187,1.46476 1.45112,1.98133 l 0.58047,0.93922 0.46608,-0.86905 0.46607,-0.86905 z m 21.06963,0.30323 c 1.45521,-0.15244 3.65787,-0.37757 4.8948,-0.50029 2.49657,-0.24771 4.42033,-0.62608 4.70684,-0.92577 0.30377,-0.31774 -8.06731,0.44654 -10.20075,0.93133 -0.62055,0.14101 -1.78141,0.25638 -2.57968,0.25638 -0.79828,0 -1.45141,0.11907 -1.45141,0.26459 0,0.33319 1.26763,0.32601 4.6302,-0.0262 z m 12.28108,-1.99454 c 0.24818,-0.21587 -1.72727,-0.0691 -2.08087,0.1546 -0.24785,0.1568 0.0324,0.18923 0.79375,0.0918 0.64728,-0.0828 1.22649,-0.19369 1.28712,-0.24643 z m -31.36248,-12.53131 c 0.3852,-0.58208 0.85919,-1.05833 1.05331,-1.05833 0.19411,0 0.57034,-0.48211 0.83606,-1.07137 0.44098,-0.97792 0.91502,-1.4751 2.8887,-3.02967 0.3695,-0.29104 0.67305,-0.65383 0.67456,-0.8062 0.003,-0.32249 1.6308,-1.90584 2.78086,-2.70522 0.43656,-0.30345 1.47715,-1.20371 2.31241,-2.00057 l 1.51866,-1.44885 -1.12178,-0.58132 c -0.61699,-0.31972 -1.31555,-0.7776 -1.55236,-1.0175 -0.75464,-0.76447 -1.55177,-1.36222 -1.8166,-1.36222 -0.32632,0 -2.11846,-1.72913 -2.11846,-2.04398 0,-0.12981 -0.76217,-1.02102 -1.69372,-1.98048 -0.93155,-0.95945 -1.77867,-2.02403 -1.88249,-2.36573 -0.10383,-0.3417 -0.4016,-0.85939 -0.66173,-1.15043 -0.47774,-0.53451 -0.8625,-1.18963 -2.25324,-3.83646 -0.42054,-0.80036 -0.784,-1.48987 -0.80767,-1.53224 -0.10293,-0.18416 -3.0199,3.0044 -3.0199,3.30107 0,0.45104 -5.04798,5.5265 -5.70351,5.73456 -0.59293,0.18819 -2.49857,1.95486 -2.49857,2.31637 0,0.12892 -0.16585,0.23441 -0.36857,0.23441 -0.20271,0 -0.43306,0.16807 -0.51189,0.3735 -0.0788,0.20543 -0.55874,0.52372 -1.06648,0.70732 -0.50773,0.1836 -1.07044,0.60904 -1.25047,0.94543 -0.29702,0.55498 -0.23697,0.69161 0.64848,1.47549 1.16579,1.03208 2.68796,2.52193 3.63087,3.55378 0.37679,0.41233 1.12438,1.08493 1.66131,1.49468 0.53693,0.40975 1.25345,1.18365 1.59227,1.71979 0.33882,0.53614 1.22915,1.39152 1.97851,1.90084 0.74936,0.50932 1.42048,1.10464 1.49138,1.32292 0.20678,0.63665 1.26497,1.70654 2.01046,2.03269 0.37825,0.16549 0.97357,0.66221 1.32291,1.10383 0.34935,0.44162 0.76818,0.80954 0.93075,0.81759 0.16256,0.008 0.61074,-0.46161 0.99594,-1.0437 z m 12.50668,-13.35298 c -0.082,-0.21362 -0.0199,-0.46822 0.13797,-0.56578 0.18718,-0.11569 0.13715,-0.26124 -0.14385,-0.4185 -0.68525,-0.38348 -0.50621,-1.11942 0.54212,-2.22833 l 0.97298,-1.0292 -1.2866,-0.0826 c -1.42589,-0.0916 -2.01681,-0.58784 -1.9138,-1.60717 0.0401,-0.39665 -0.12815,-0.74103 -0.45238,-0.92604 -1.52385,-0.86955 -2.93361,-1.97852 -3.00893,-2.36694 -0.12472,-0.64319 0.48406,-0.54193 1.81969,0.30266 0.64695,0.4091 1.87373,1.08421 2.72619,1.50023 l 1.54991,0.7564 1.09592,-0.55173 c 0.60276,-0.30346 1.86983,-0.76056 2.81571,-1.01579 0.94589,-0.25523 1.8329,-0.56299 1.97115,-0.68391 0.13824,-0.12092 0.46963,-0.21986 0.73642,-0.21986 0.38551,0 0.29318,-0.19189 -0.44979,-0.93486 -0.98966,-0.98966 -1.20242,-1.95329 -0.55068,-2.49419 0.21932,-0.18202 0.63092,-0.24052 0.95917,-0.13634 0.33303,0.1057 0.51097,0.0789 0.42284,-0.0637 -0.0837,-0.13542 -0.64296,-0.40818 -1.24282,-0.60615 -1.0452,-0.34495 -2.11064,-1.33011 -2.11108,-1.952 -1.1e-4,-0.16228 -0.41683,-0.76316 -0.92604,-1.3353 -0.50921,-0.57214 -0.92583,-1.19883 -0.92583,-1.39265 0,-0.19383 -0.10311,-0.55915 -0.22912,-0.81184 -0.60163,-1.2064 -0.85844,-2.55102 -1.00997,-5.28807 -0.0906,-1.63711 -0.25097,-2.97657 -0.35631,-2.97657 -0.18436,0 -1.03571,-1.77367 -1.77796,-3.70416 -0.37717,-0.98098 -0.75118,-2.81255 -1.10758,-5.42396 -0.24463,-1.7925 -0.74182,-3.58049 -1.0999,-3.95552 -0.132,-0.13825 -0.24,-0.51856 -0.24,-0.84514 0,-0.83824 -0.98735,-1.80583 -2.38125,-2.33357 -0.65484,-0.24793 -1.39594,-0.63509 -1.64689,-0.86036 -0.5672,-0.50916 -2.29174,-0.29071 -3.33311,0.42221 -0.3897,0.26678 -1.0459,0.68998 -1.45824,0.94045 -1.11893,0.67965 -1.41258,1.7552 -1.59398,5.83818 -0.2076,4.67252 -0.24981,4.82886 -2.73617,10.13265 -0.49777,1.06182 -1.02241,2.60963 -1.16587,3.43959 -0.14346,0.82995 -0.33332,1.92573 -0.42191,2.43505 -0.0886,0.50932 -0.23368,0.98557 -0.32243,1.05833 -0.50145,0.41113 -3.24028,3.76752 -3.99417,4.8948 -0.4866,0.7276 -1.21502,1.66729 -1.61871,2.0882 -0.40369,0.42091 -0.929,1.19481 -1.16736,1.71979 -0.23835,0.52498 -0.93532,1.43076 -1.54882,2.01284 -0.6135,0.58208 -1.45057,1.50535 -1.86015,2.0517 -0.40959,0.54635 -1.35525,1.43539 -2.10147,1.97564 -0.74621,0.54025 -1.43506,1.09451 -1.53076,1.23167 -0.21792,0.31235 -1.65003,-0.24548 -2.76139,-1.0756 -0.4503,-0.33634 -0.93786,-0.61154 -1.08347,-0.61154 -0.14561,0 -0.48105,-0.23901 -0.74542,-0.53113 -0.4079,-0.45073 -1.83558,-1.32095 -2.16713,-1.32095 -0.0568,0 -0.0683,0.20045 -0.0255,0.44544 0.0498,0.28508 -0.16039,0.51232 -0.58372,0.63122 -0.64797,0.18199 -0.64392,0.18977 0.19844,0.38138 0.47294,0.10759 0.8599,0.28067 0.8599,0.38465 0,0.10397 0.29531,0.32359 0.65624,0.48804 0.40943,0.18655 0.60076,0.4436 0.50871,0.68347 -0.0811,0.21146 0.0998,0.6318 0.40209,0.93409 0.30229,0.3023 0.54962,0.78775 0.54962,1.07879 0,0.33534 0.17639,0.52917 0.48155,0.52917 0.26484,0 0.96838,0.41672 1.56341,0.92604 0.98263,0.8411 2.18838,1.23698 2.18838,0.71851 0,-0.11415 0.38695,-0.43489 0.85989,-0.71276 0.47295,-0.27787 0.99824,-0.63096 1.16732,-0.78465 0.16908,-0.15369 0.98453,-0.81521 1.81211,-1.47006 0.82757,-0.65484 1.92875,-1.63711 2.44706,-2.18281 0.5183,-0.5457 1.09081,-0.99219 1.27224,-0.99219 0.18144,0 1.10379,-0.7739 2.04967,-1.71979 0.94589,-0.94588 1.79143,-1.71979 1.87899,-1.71979 0.30446,0 1.65403,-1.46296 2.50179,-2.71198 0.46916,-0.69122 0.96063,-1.25677 1.09215,-1.25677 0.13153,0 0.64385,-0.41672 1.1385,-0.92604 0.49464,-0.50932 0.98513,-0.92604 1.08997,-0.92604 0.40425,0 0.94662,-0.78388 0.94803,-1.37017 0.003,-1.20441 0.53891,-2.51117 1.71531,-4.18181 0.6565,-0.93231 1.19363,-1.82616 1.19363,-1.98634 0,-0.16017 0.52157,-1.13717 1.15903,-2.17111 1.66302,-2.69734 2.54514,-4.67576 2.54514,-5.70823 0,-0.64847 0.25451,-1.18658 0.91503,-1.93462 0.76184,-0.86279 0.91687,-0.94646 0.92604,-0.49982 0.006,0.29504 -0.17296,0.79909 -0.39781,1.12012 -0.22486,0.32102 -0.47238,1.21071 -0.55006,1.9771 -0.13573,1.33924 -0.36594,2.10762 -0.97237,3.2455 -0.15511,0.29104 -0.29895,1.77932 -0.31964,3.30729 -0.0698,5.15306 -1.27674,7.22683 -4.19083,7.20064 -1.38894,-0.0125 -1.47264,0.0252 -1.73662,0.7825 -0.28294,0.81162 0.11304,2.06187 0.78445,2.47683 0.15553,0.0961 0.39422,0.43109 0.53041,0.74438 0.27946,0.64282 0.65691,1.26725 1.46384,2.4217 0.30515,0.43656 0.6031,0.94139 0.66213,1.12184 0.35853,1.09622 7.12986,7.90495 8.98817,9.03782 1.08239,0.65986 1.1415,0.6703 0.94858,0.16756 z m -3.92453,-17.64583 c -1.27226,-1.3435 -1.39646,-1.49774 -2.41221,-2.99542 -0.58831,-0.86743 -0.71458,-1.34664 -0.71458,-2.71198 0,-0.92919 0.11634,-1.65837 0.26459,-1.65837 0.14552,0 0.26458,0.0377 0.26458,0.0837 0,1.0228 0.70393,3.29243 1.19122,3.84078 0.34493,0.38815 0.90262,1.08785 1.23931,1.55489 0.3367,0.46703 0.87166,1.18798 1.18881,1.60211 0.37971,0.49581 0.49878,0.87892 0.34866,1.12181 -0.17647,0.28555 -0.48602,0.0964 -1.37038,-0.83752 z m -27.11187,11.68423 c 0.98729,-0.77489 1.63298,-1.46445 2.02467,-2.16221 0.21828,-0.38885 0.99218,-1.33529 1.71979,-2.10319 0.7276,-0.76789 1.08479,-1.29512 0.79375,-1.17161 -1.03225,0.43805 -3.50182,0.63014 -8.38491,0.65218 -2.71992,0.0123 -5.01272,0.13139 -5.0951,0.26468 -0.2354,0.38089 1.41638,1.87432 2.07305,1.87432 0.32498,0 0.98262,0.383 1.46142,0.85112 0.4788,0.46811 1.59584,1.29715 2.4823,1.8423 1.31682,0.80981 1.68564,0.93246 2.01556,0.67024 0.2221,-0.17653 0.63136,-0.49955 0.90947,-0.71783 z m -10.21782,-0.15985 c -0.0879,-0.0879 -0.31613,-0.0973 -0.50712,-0.0209 -0.21107,0.0845 -0.14837,0.14716 0.15985,0.15985 0.27892,0.0115 0.43519,-0.051 0.34727,-0.13896 z m -1.43656,-0.80884 c 0.46572,-0.24174 0.72769,-0.46945 0.58217,-0.50603 -0.14552,-0.0366 -0.592,-0.13871 -0.99218,-0.22697 -0.55327,-0.12202 -0.72761,-0.31655 -0.72761,-0.81185 0,-0.49556 0.17406,-0.68952 0.72761,-0.81081 1.68891,-0.37007 1.78032,-0.56377 0.59616,-1.26327 -0.4361,-0.25761 -1.16294,-0.92884 -1.61521,-1.49163 -0.45227,-0.56279 -1.1968,-1.17411 -1.6545,-1.35848 -0.4577,-0.18437 -1.28538,-0.71684 -1.83929,-1.18326 -0.55391,-0.46641 -1.26829,-0.91078 -1.5875,-0.98748 -0.31922,-0.0767 -1.53289,-0.39078 -2.69706,-0.69797 -1.93091,-0.5095 -2.66233,-0.54979 -8.33437,-0.459 -5.81336,0.0931 -9.08596,0.44533 -9.68017,1.042 -0.10868,0.10914 -0.4684,0.19844 -0.79936,0.19844 -0.33096,0 -0.65694,0.0893 -0.7244,0.19844 -0.0675,0.10914 1.68168,0.16016 3.88699,0.11339 3.81899,-0.081 6.92296,0.14717 9.83048,0.72266 0.7276,0.14402 2.00658,0.38839 2.84217,0.54306 1.46267,0.27074 3.05008,0.98107 3.92554,1.75659 0.22973,0.20352 0.55716,0.37003 0.7276,0.37003 0.17044,0 0.30989,0.092 0.30989,0.20441 0,0.11243 0.41672,0.42884 0.92605,0.70313 0.50932,0.27428 0.92604,0.59902 0.92604,0.72162 0,0.12261 0.14116,0.22292 0.3137,0.22292 0.3599,0 2.74269,1.924 3.50589,2.83085 0.61078,0.72574 0.50203,0.71388 1.55136,0.16921 z m 64.57981,-1.66562 1.02681,-0.0115 -0.17706,-0.99219 c -0.0974,-0.5457 -0.24868,-1.61727 -0.33622,-2.38125 -0.19067,-1.6641 -0.64439,-1.80298 -1.93909,-0.59356 -1.03303,0.96499 -2.1405,1.48947 -3.63614,1.72201 -1.3055,0.20298 -1.41537,0.4887 -0.39688,1.03209 0.40019,0.2135 1.05496,0.67684 1.45505,1.02963 0.63794,0.56251 0.86583,0.61467 1.85209,0.42388 0.61855,-0.11966 1.5867,-0.22275 2.15144,-0.22909 z m 3.27267,-0.72307 c -1.31024,-0.3424 0.6994,-2.03405 2.23984,-1.88542 1.07819,0.10403 1.42755,1.00947 0.38949,1.00947 -0.35783,0 -0.99164,0.18892 -1.40846,0.41983 l -0.75785,0.41983 0.79375,-0.18765 c 0.43657,-0.10321 1.86532,-0.28689 3.175,-0.40818 1.30969,-0.12129 2.81356,-0.29668 3.34192,-0.38974 l 0.96068,-0.16921 -1.0282,-1.62838 c -0.56551,-0.89561 -1.13909,-1.8665 -1.27463,-2.15754 -0.13554,-0.29105 -0.25398,-0.40941 -0.2632,-0.26303 -0.0353,0.56102 -1.72832,1.00379 -3.82665,1.00081 -1.71421,-0.002 -2.34867,-0.11922 -3.16941,-0.58341 l -1.02616,-0.58037 0.18342,1.53591 c 0.10088,0.84476 0.24672,2.10147 0.32409,2.79269 0.13569,1.21227 0.17022,1.25568 0.97503,1.22608 0.4589,-0.0169 0.626,-0.0851 0.37134,-0.15169 z m -11.50937,-0.7866 c -0.1819,-0.0734 -0.47956,-0.0734 -0.66146,0 -0.1819,0.0734 -0.0331,0.13345 0.33073,0.13345 0.3638,0 0.51263,-0.06 0.33073,-0.13345 z m -5.45231,-1.01539 c -0.21828,-0.21829 -0.47949,-0.39688 -0.58046,-0.39688 -0.10097,0 -0.0354,0.17859 0.14579,0.39688 0.18116,0.21828 0.44236,0.39687 0.58046,0.39687 0.1381,0 0.0725,-0.17859 -0.14579,-0.39687 z m 1.15283,-0.92605 c -0.21828,-0.14106 -0.51594,-0.25648 -0.66146,-0.25648 -0.14552,0 -0.086,0.11542 0.13229,0.25648 0.21828,0.14107 0.51594,0.25648 0.66146,0.25648 0.14552,0 0.086,-0.11541 -0.13229,-0.25648 z m -41.34079,-0.27864 c 6.043,-0.0217 6.15728,-0.0323 6.45477,-0.59932 0.16657,-0.31748 0.46339,-0.67208 0.6596,-0.78799 0.19621,-0.11591 0.81877,-0.88982 1.38347,-1.71979 0.56469,-0.82998 1.86112,-2.35729 2.88095,-3.39403 1.47531,-1.49976 1.88549,-2.09453 2.00714,-2.91041 0.50053,-3.3568 1.18179,-6.22286 1.5719,-6.61297 0.10407,-0.10406 0.18921,-1.00961 0.18921,-2.01232 0,-1.59256 0.39893,-4.06522 0.71488,-4.43103 0.23927,-0.27703 0.60018,0.71585 0.60399,1.6616 0.002,0.60363 0.11016,0.94222 0.26863,0.84428 0.14552,-0.0899 0.26458,-0.93267 0.26458,-1.87274 0,-1.67405 -0.0131,-1.70593 -0.63768,-1.54917 -0.47893,0.1202 -0.66889,0.0391 -0.76306,-0.32569 -0.11329,-0.43891 -0.12914,-0.43472 -0.16448,0.0434 -0.0215,0.29104 -0.21391,0.76028 -0.42757,1.04276 -0.21365,0.28247 -0.38846,0.78146 -0.38846,1.10886 0,0.3274 -0.1213,0.67025 -0.26956,0.76187 -0.16496,0.10195 -0.24196,1.36576 -0.19844,3.25677 0.0595,2.58596 -0.0108,3.26284 -0.43101,4.14849 -0.27617,0.58208 -0.57711,1.11787 -0.66876,1.19063 -0.0916,0.0728 -0.38497,0.66807 -0.65183,1.32291 -0.26686,0.65485 -0.71006,1.64836 -0.98489,2.20782 -0.27482,0.55945 -0.49967,1.2478 -0.49967,1.52966 0,0.28185 -0.20836,0.57695 -0.46302,0.65577 -0.25467,0.0788 -0.66977,0.25367 -0.92246,0.38857 -0.25268,0.1349 -0.62971,0.24527 -0.83784,0.24527 -0.20813,0 -0.41811,0.0893 -0.46661,0.19843 -0.13911,0.31299 -1.80302,1.12448 -2.30568,1.12448 -0.25015,0 -0.56792,0.10267 -0.70616,0.22814 -0.402,0.36488 -3.69404,1.09478 -4.93769,1.09478 -0.6259,0 -1.53729,0.11452 -2.02531,0.25448 -0.48802,0.13996 -2.03505,0.33001 -3.43783,0.42233 l -2.55053,0.16785 -1.11435,-1.05366 c -0.69011,-0.65252 -1.44559,-1.10014 -1.98438,-1.17576 -0.47851,-0.0672 -1.07838,-0.21252 -1.33304,-0.32302 -0.35325,-0.15329 -0.46302,-0.076 -0.46302,0.32613 0,0.57382 -1.0216,1.37484 -1.77663,1.39303 -0.25978,0.006 0.27181,0.26103 1.18132,0.56616 1.1296,0.37897 1.65364,0.69212 1.65364,0.98815 0,0.4781 0.78916,1.2431 1.67651,1.62518 0.31485,0.13557 1.28683,0.18927 2.15995,0.11932 0.87313,-0.07 4.35587,-0.13711 7.73942,-0.14925 z m 21.69894,-6.16747 c 0.73538,-1.35904 1.34981,-3.40415 1.36221,-4.5341 l 0.0116,-1.05833 -0.50561,0.65807 c -0.27808,0.36193 -0.57433,1.02439 -0.65832,1.47212 -0.084,0.44773 -0.5682,1.21675 -1.07601,1.70894 -0.50781,0.49219 -0.92329,1.10263 -0.92329,1.35653 0,0.25391 -0.11906,0.53524 -0.26458,0.62518 -0.63642,0.39332 -0.23727,0.81659 0.67016,0.71065 0.71934,-0.084 1.03822,-0.30037 1.38382,-0.93906 z m 15.19262,-8.7548 c 0.32293,-0.44956 -0.0578,-0.67409 -1.14299,-0.67409 -0.82219,0 -1.23831,-0.17524 -1.83647,-0.77339 -0.96143,-0.96144 -1.01,-0.55985 -0.0798,0.65972 1.19167,1.56236 2.29819,1.84729 3.05926,0.78776 z m 1.22545,-3.54876 c 0.63012,-0.39957 1.10711,-1.6631 1.10711,-2.93267 0,-1.25182 -0.39963,-1.83562 -1.91095,-2.79162 -0.23005,-0.14552 -1.14435,-0.82911 -2.03178,-1.5191 -1.0458,-0.81312 -1.61352,-1.11568 -1.61352,-0.8599 0,0.21705 0.1029,0.39463 0.22866,0.39463 0.4251,0 3.21093,2.81671 3.21093,3.24652 0,0.23453 0.11906,0.5 0.26458,0.58994 0.55348,0.34207 -0.0369,2.70721 -0.79222,3.17405 -0.36531,0.22578 -0.62129,-0.41117 -0.29598,-0.73648 0.16195,-0.16195 0.28234,-0.83618 0.26753,-1.4983 -0.0243,-1.08761 -0.14818,-1.3124 -1.28269,-2.32799 l -1.25577,-1.12414 0.2457,1.52101 c 0.55103,3.41116 2.4247,5.77319 3.8584,4.86405 z m -5.81526,-4.22282 c -0.20246,-2.75269 -0.34078,-3.42092 -0.88737,-4.28677 -0.73202,-1.1596 -0.4575,-1.63925 0.41568,-0.72629 l 0.57498,0.60118 -0.18845,-0.62143 c -0.10365,-0.34179 -0.35828,-0.81804 -0.56585,-1.05834 -0.20757,-0.24029 -0.66678,-0.776 -1.02047,-1.19047 -0.35369,-0.41446 -0.75983,-0.71211 -0.90253,-0.66145 -0.23523,0.0835 0.0789,1.02212 1.19743,3.5783 0.4834,1.10466 0.89062,3.2991 0.89062,4.79936 0,0.98166 0.49996,3.10938 0.67824,2.88644 0.0262,-0.0327 -0.0604,-1.52696 -0.19228,-3.32053 z m -16.70939,-4.3292 c -0.0845,-0.21107 -0.14715,-0.14837 -0.15985,0.15985 -0.0115,0.27892 0.051,0.43519 0.13897,0.34727 0.0879,-0.0879 0.0973,-0.31612 0.0209,-0.50712 z m 20.04581,-1.12537 c -0.24401,-0.37241 -0.56041,-0.6771 -0.70311,-0.6771 -0.1427,0 -0.60526,-0.24624 -1.02791,-0.54719 -0.64165,-0.45689 -0.76844,-0.47872 -0.76844,-0.13229 0,0.34517 1.16039,1.62809 2.47385,2.73508 0.50341,0.42428 0.52281,-0.61968 0.0256,-1.3785 z m -20.49113,0.42224 c 0,-0.12297 -0.23377,-0.43514 -0.51949,-0.69372 -0.50798,-0.45971 -0.51238,-0.4548 -0.19844,0.22152 0.3092,0.66612 0.71793,0.93494 0.71793,0.4722 z m 2.64583,-1.11496 c 0,-0.88398 -0.0849,-1.04272 -0.55747,-1.04272 -0.42278,0 -0.51419,0.11188 -0.37835,0.46302 0.0985,0.25467 0.24482,0.78851 0.32511,1.18633 0.20788,1.03004 0.61071,0.6299 0.61071,-0.60663 z m -2.04736,-0.5797 c -0.17128,-0.69968 -0.56821,-1.25677 -0.89545,-1.25677 -0.38007,0 -0.26677,0.41384 0.31618,1.15495 0.66989,0.85162 0.76701,0.86869 0.57927,0.10182 z m -2.46601,-1.31482 c -0.60925,-0.6335 -0.60684,-0.56071 0.0233,0.70395 0.28213,0.56621 0.41081,0.65851 0.47237,0.33882 0.0465,-0.24166 -0.17652,-0.7109 -0.49569,-1.04277 z m 18.98986,0.39823 c -0.24253,-0.24253 -0.50901,-0.37294 -0.59216,-0.28978 -0.0831,0.0832 0.0472,0.34963 0.28978,0.59216 0.24253,0.24254 0.50901,0.37294 0.59216,0.28978 0.0832,-0.0832 -0.0473,-0.34962 -0.28978,-0.59216 z m 2.85372,-0.0756 c -0.0899,-0.14552 -0.30532,-0.26276 -0.47863,-0.26054 -0.18934,0.002 -0.15671,0.10643 0.0818,0.26054 0.50829,0.32848 0.59989,0.32848 0.39687,0 z m -15.61041,-1.06413 c 0.43656,-0.27296 1.50812,-0.86126 2.38125,-1.30734 1.40473,-0.71767 1.58749,-0.902 1.58749,-1.60104 0,-0.4345 -0.0893,-0.78999 -0.19843,-0.78999 -0.48108,0 -0.1235,-0.87198 0.7276,-1.7743 0.87106,-0.92349 0.92604,-1.08847 0.92604,-2.77874 0,-0.9883296 -0.10021,-1.7969596 -0.2227,-1.7969596 -0.12249,0 -0.36053,-0.46002 -0.52898,-1.02227 -0.40253,-1.34352 -1.4553,-2.44102 -3.08477,-3.21585 -0.72761,-0.34599 -1.50152,-0.77402 -1.7198,-0.95119 -0.62706,-0.50896 -2.04185,0.13764 -3.66304,1.67411 -1.96155,1.85904 -1.83546,2.29983 0.68714,2.40226 1.80126,0.0731 1.92318,0.11713 2.08231,0.75113 0.21457,0.85494 -0.36225,2.6227396 -1.1684,3.5807996 -0.70658,0.83972 -0.57965,1.44603 0.20069,0.95869 0.3847,-0.24025 0.58891,-0.2318 0.91378,0.0378 0.72205,0.59925 0.33935,1.65019 -0.42818,1.17583 -0.17455,-0.10788 -0.58894,-0.20803 -0.92087,-0.22256 -0.63316,-0.0277 -1.38485,-0.80337 -1.39918,-1.44377 -0.005,-0.20683 0.18863,-0.59378 0.42947,-0.8599 0.41326,-0.45665 0.40021,-0.48385 -0.23208,-0.48385 -0.63086,0 -0.66288,0.0656 -0.5485,1.12448 0.0668,0.61846 -0.0195,1.66026 -0.19169,2.3151 -0.58948,2.2413 -0.61799,3.16171 -0.11512,3.71738 0.25682,0.28377 0.62708,0.51595 0.82281,0.51595 0.19572,0 0.35586,0.11907 0.35586,0.26459 0,0.45948 2.46187,0.25821 3.3073,-0.27038 z m -3.39168,-1.52877 c -0.35775,-0.39531 -0.40843,-0.71879 -0.24031,-1.53372 0.19173,-0.92934 0.30275,-1.04141 1.10862,-1.1191 0.94276,-0.0909 2.92573,0.6924 2.89787,1.14467 -0.009,0.14553 -0.22493,0.62178 -0.47991,1.05834 -0.39012,0.66793 -0.65139,0.80619 -1.64826,0.87226 -0.89509,0.0593 -1.29546,-0.0439 -1.63801,-0.42245 z m 3.55258,-6.29463 c -0.32779,-0.37699 -0.5316,-0.8532396 -0.4529,-1.0583296 0.16504,-0.43008 0.84496,-0.49791 1.08575,-0.10831 0.0899,0.14552 0.50665,0.26458 0.92604,0.26458 0.41938,0 0.8361,-0.11906 0.92604,-0.26458 0.27602,-0.44662 0.92604,-0.29327 0.92604,0.21846 0,0.7309396 -1.1161,1.6336196 -2.01986,1.6336196 -0.5258,0 -0.997,-0.23217 -1.39111,-0.68544 z m 2.78437,-2.2636796 c -0.27187,-0.15795 -1.08101,-0.23082 -1.79808,-0.16191 -1.09509,0.10522 -1.29081,0.0572 -1.22275,-0.30008 0.11522,-0.60486 3.4144,-0.76036 3.89315,-0.18349 0.18095,0.21803 0.25219,0.5207 0.15832,0.6726 -0.21186,0.3428 -0.4026,0.33778 -1.03064,-0.0271 z m 11.15995,10.1103496 c -0.35778,-0.28143 -0.96915,-1.12586 -1.3586,-1.8765 -0.63296,-1.22001 -0.70808,-1.65267 -0.70808,-4.07787 0,-2.9583296 -0.18357,-3.5568996 -1.76036,-5.7402196 -0.48701,-0.67434 -0.89006,-1.32919 -0.89567,-1.45521 -0.006,-0.12602 -0.38615,-0.46726 -0.84565,-0.7583 -0.54719,-0.34659 -1.02447,-1.00116 -1.38328,-1.89711 -0.5507,-1.37512 -1.46053,-2.48498996 -3.18594,-3.88643 -0.78773,-0.63982 -1.07907,-0.72873 -1.88963,-0.57667 -0.78065,0.14645 -0.93061,0.10758 -0.80887,-0.20966 0.14418,-0.37573 -0.67972,-0.81053 -0.97547,-0.51478 -0.33375,0.33375 0.73519,1.39611 1.40475,1.39611 1.06938,0 3.14494,1.42152004 3.36459,2.30437 0.28904,1.16173 1.11632,2.50096 2.23854,3.62383 0.56805,0.56837 1.03282,1.13912 1.03282,1.26832 0,0.1292 0.2827,0.53978 0.62821,0.91241 0.34552,0.37262 0.75472,1.11157 0.90934,1.64209 0.70192,2.4084596 0.89942,3.5302496 0.75164,4.2691596 -0.11213,0.56064 -0.0569,0.79648 0.18659,0.79648 0.25671,0 0.31534,0.36832 0.2274,1.42868 -0.10956,1.32125 -0.0533,1.50029 0.74835,2.38125 0.47676,0.52391 1.08582,0.95257 1.35348,0.95257 0.26766,0 0.48666,0.11907 0.48666,0.26459 0,0.14552 0.25418,0.26458 0.56484,0.26458 0.54722,0 0.54454,-0.016 -0.0857,-0.51169 z m -4.84481,-0.28206 c -0.19749,-0.62225 0.19044,-0.69984 0.66146,-0.13229 0.51902,0.62537 0.86978,0.46258 0.41188,-0.19117 -0.23226,-0.33159 -0.41188,-1.13539 -0.41188,-1.84316 v -1.25512 l -0.92338,0.54481 c -0.50785,0.29964 -1.0734,0.85238 -1.25677,1.22831 -0.42952,0.88059 -0.99485,1.07291 -0.99485,0.33844 0,-0.63314 0.72673,-1.86482 1.10031,-1.86482 0.13514,0 0.55628,-0.28799 0.93588,-0.63997 0.63094,-0.58505 0.68717,-0.80645 0.65506,-2.57969 -0.0233,-1.28418 -0.19133,-2.2303196 -0.49731,-2.7996096 -0.25421,-0.47294 -0.52441,-0.86017 -0.60046,-0.86051 -0.0761,-3.4e-4 -0.0991,0.89358 -0.0512,1.9864896 0.0843,1.92235 0.0563,2.02916 -0.8599,3.27721 -0.52086,0.70956 -0.94702,1.47548 -0.94702,1.70206 0,0.22658 -0.11906,0.48554 -0.26458,0.57548 -0.14552,0.0899 -0.26458,0.43696 -0.26458,0.77116 0,0.48084 0.3451,0.78013 1.65364,1.43411 0.90951,0.45455 1.69144,0.82893 1.73762,0.83195 0.0462,0.003 0.008,-0.23264 -0.084,-0.52368 z m -15.62388,-1.41403 c 0.43791,-0.57413 0.66694,-1.2013 0.65218,-1.78593 -0.0211,-0.83529 -0.0376,-0.85217 -0.22624,-0.23127 -0.23199,0.76357 -0.76925,1.76131 -1.31338,2.43905 -0.23259,0.28972 -0.26239,0.46302 -0.0796,0.46302 0.16067,0 0.59584,-0.39819 0.96705,-0.88487 z m -1.44174,-0.45979 c 0,-0.12184 -0.35695,-0.19656 -0.79323,-0.16604 -0.89517,0.0626 -1.01296,0.30369 -0.33405,0.68363 0.46288,0.25904 1.12728,-0.046 1.12728,-0.51759 z m 13.55436,-2.22721 c 0.16709,-0.43656 0.579,-1.16218 0.91535,-1.61248 0.68855,-0.92183 0.74905,-1.54595 0.30235,-3.1193296 -0.50004,-1.76125 -0.6903,-1.65093 -0.54939,0.31854 0.11443,1.5991896 0.0417,2.0294496 -0.55088,3.2600896 -0.84259,1.74981 -1.08981,2.73732 -0.79826,3.18866 0.1532,0.23718 0.24747,0.0965 0.30018,-0.44798 0.0423,-0.43656 0.21356,-1.15094 0.38065,-1.5875 z m 32.35084,-0.66146 c -0.0899,-0.14552 -0.34211,-0.26458 -0.56039,-0.26458 -0.21828,0 -0.32329,0.11906 -0.23336,0.26458 0.0899,0.14552 0.34212,0.26458 0.5604,0.26458 0.21828,0 0.32329,-0.11906 0.23335,-0.26458 z m -44.60425,-2.71198 c -0.0209,-1.2938596 -0.50169,-3.6516696 -0.82008,-4.0216696 -0.11896,-0.13824 -0.21629,-0.90619 -0.21629,-1.70656 0,-1.09451 -0.0752,-1.37998 -0.30349,-1.15171 -0.45429,0.45428 -0.36164,3.71437 0.14853,5.22629 0.48174,1.4276896 1.03768,2.7781296 1.14369,2.7781296 0.0362,0 0.0576,-0.50602 0.0476,-1.12448 z m 4.2553,-1.6320096 c 0,-0.0609 0.0723,-0.29898 0.1606,-0.52916 0.13467,-0.35097 -0.0788,-0.41852 -1.32292,-0.41852 -1.05988,0 -1.48352,0.10074 -1.48352,0.35278 0,0.19403 0.0794,0.43215 0.17639,0.52917 0.18945,0.18944 2.46945,0.25013 2.46945,0.0657 z m -2.32416,-6.56262 c 0.34453,-0.22574 0.85958,-0.45892 1.14456,-0.51818 0.48423,-0.10068 0.47757,-0.13009 -0.10182,-0.44939 -0.97963,-0.53987 -1.77956,-0.1701 -2.39866,1.10879 -0.79483,1.64191 -0.7377,2.42841 0.0881,1.2131 0.35276,-0.51913 0.92327,-1.12857 1.2678,-1.35432 z m 0.60249,1.12006 c 0.0927,-0.14999 -0.0135,-0.19434 -0.24897,-0.10399 -0.45837,0.17589 -0.54223,0.36554 -0.16164,0.36554 0.13693,0 0.32171,-0.1177 0.41061,-0.26155 z m 8.85604,0.0631 c -0.005,-0.10914 -0.17953,-0.49609 -0.3875,-0.85989 -0.20797,-0.36381 -0.38234,-0.87833 -0.3875,-1.14338 -0.005,-0.26506 -0.16115,-0.6337 -0.34666,-0.81920996 -0.53111,-0.53111 -2.23274,-1.26644 -2.70464,-1.16877 -0.33589,0.0695 -0.22518,0.30993 0.51305,1.11409 0.51776,0.56399996 0.94138,1.18104996 0.94138,1.37122996 0,0.19019 0.22242,0.41639 0.49427,0.50267 0.27185,0.0863 0.70702,0.39196 0.96705,0.67929 0.47806,0.52824 0.92776,0.68825 0.91055,0.32397 z m -3.78528,-1.9168 c -0.36668,-0.43578 -0.74302,-1.03281996 -0.83632,-1.32675996 -0.0933,-0.29394 -0.26937,-0.47279 -0.39128,-0.39744 -0.34005,0.21016 -1.08085,-0.15122 -0.90227,-0.44016 0.0868,-0.14047 0.39985,-0.34493 0.69565,-0.45435 0.48075,-0.17784 0.43305,-0.24865004 -0.44967,-0.66753004 -1.30604,-0.61976 -2.43502,-0.38894 -3.74172,0.76501004 l -1.03077,0.91028 0.9565,0.011 c 0.87049,0.01 1.74757,0.48273 2.83271,1.52671996 0.51066,0.4913 0.60673,0.41702 0.42048,-0.32508 -0.229,-0.91240996 0.14707,-0.82790996 1.17754,0.26458 0.48041,0.50932 1.1125,0.92604 1.40466,0.92604 0.50169,0 0.49417,-0.044 -0.13551,-0.79232 z m -7.18555,-0.79518 c 0.26339,-0.29103996 0.41936,-0.52915996 0.3466,-0.52915996 -0.0728,0 -0.3478,0.23812 -0.61118,0.52915996 -0.26339,0.29104 -0.41936,0.52917 -0.3466,0.52917 0.0728,0 0.34779,-0.23813 0.61118,-0.52917 z"
       id="path5" /></g></svg>
