<?xml version="1.0" encoding="UTF-8" standalone="no"?>
<!-- Created with Inkscape (http://www.inkscape.org/) -->

<svg
   width="125.04881mm"
   height="80.654778mm"
   viewBox="0 0 125.04882 80.654777"
   version="1.1"
   id="svg1"
   xml:space="preserve"
   xmlns="http://www.w3.org/2000/svg"
   xmlns:svg="http://www.w3.org/2000/svg"><defs
     id="defs1" /><g
     id="layer1"
     transform="translate(575.06648,-1810.3686)"><path
       style="fill:#4d4d4d"
       d="m -527.97064,1890.8443 c -19.29318,-1.3758 -24.17176,-1.5529 -31.22084,-1.1335 -12.54747,0.7466 -15.09658,0.5336 -15.61254,-1.3043 -0.14435,-0.5141 -0.26246,-3.7283 -0.26246,-7.1425 0,-4.7162 0.11531,-6.3466 0.4799,-6.7858 0.38694,-0.4662 1.10441,-0.5684 3.70416,-0.5276 1.82957,0.029 3.83467,-0.1475 4.63539,-0.4075 3.82891,-1.2431 5.5685,-2.0622 8.73125,-4.1115 2.72882,-1.7682 3.4349,-2.3944 3.41693,-3.0304 -0.039,-1.3792 -0.84083,-4.7277 -1.25618,-5.2457 -1.60025,-1.9957 -2.10121,-6.029 -0.96091,-7.7366 1.15017,-1.7223 2.81295,-3.2686 5.41474,-5.0353 3.62623,-2.4624 5.77002,-4.5454 6.51361,-6.3289 1.16988,-2.806 1.42274,-3.2152 3.1737,-5.1359 2.09077,-2.2934 3.56431,-3.2673 6.97812,-4.6119 4.12956,-1.6266 6.7999,-2.0912 18.68658,-3.2509 3.71235,-0.3622 4.18601,-0.4868 4.67206,-1.2286 0.2975,-0.454 0.8856,-1.1466 1.30689,-1.5391 0.58975,-0.5494 0.79153,-1.2042 0.87695,-2.8455 0.19588,-3.7638 2.20787,-6.8275 5.6346,-8.5798 1.20707,-0.6172 5.3491,-1.388 5.83734,-1.0863 0.16865,0.1042 0.8682,-0.3887 1.55455,-1.0955 3.76133,-3.8731 7.15972,-3.0061 13.91004,3.5487 2.38524,2.3162 4.46037,4.036 5.03598,4.1739 1.12331,0.2689 3.78347,2.5403 3.78347,3.2305 0,0.5762 1.57121,1.8347 3.07526,2.4632 0.62424,0.2609 3.37364,0.8244 6.10977,1.2523 4.99154,0.7805 5.98441,1.1828 5.98441,2.4247 0,1.3663 -1.89155,2.1633 -7.3276,3.0875 -2.93107,0.4984 -3.58454,0.7175 -3.41984,1.1466 0.11198,0.2919 1.84013,2.9948 3.84033,6.0066 2.67449,4.027 3.83704,6.1308 4.39381,7.9511 0.4554,1.4888 1.03673,2.6498 1.45881,2.9134 1.1572,0.7227 0.84415,2.7099 -0.70718,4.4892 -0.33835,0.388 -0.72296,1.1602 -0.85469,1.7159 -0.48258,2.0358 -5.2573,5.5385 -8.72498,6.4006 -0.649,0.1613 -0.98686,0.5197 -1.10619,1.1732 -0.0945,0.5174 -0.37869,1.444 -0.63157,2.0591 -0.37844,0.9204 -0.37793,1.2169 0.003,1.6757 0.95197,1.147 3.12652,0.4663 8.33144,-2.608 3.70998,-2.1913 4.72249,-2.2699 6.39521,-0.4963 0.66249,0.7025 1.65984,2.1791 2.21632,3.2815 0.55647,1.1024 1.65787,2.8217 2.44754,3.8207 1.48017,1.8726 1.41266,2.725 -0.13549,1.7106 -0.78843,-0.5166 -3.00377,-3.4078 -3.00377,-3.9201 0,-0.5026 -2.59018,-4.093 -3.18078,-4.4091 -0.64296,-0.3441 -2.32688,0.3948 -7.04977,3.0932 -1.06716,0.6097 -2.61497,1.2161 -3.43959,1.3474 -0.82461,0.1313 -1.4993,0.3541 -1.4993,0.495 0,0.1409 0.37947,0.6656 0.84327,1.1661 l 0.84328,0.9099 2.59631,-0.6424 c 4.98948,-1.2344 5.35261,-1.239 7.79123,-0.097 1.21738,0.5698 2.64997,1.1417 3.18355,1.271 0.64623,0.1565 0.97014,0.4646 0.97014,0.9227 0,0.4664 -0.17032,0.6224 -0.52917,0.4847 -1.04289,-0.4002 -0.52429,0.8986 0.74556,1.8672 1.23308,0.9405 1.2907,0.9504 1.76388,0.3033 0.26905,-0.368 0.48917,-0.7974 0.48917,-0.9543 0,-0.157 0.23812,-0.2854 0.52917,-0.2854 0.3169,0 0.52466,0.3184 0.51794,0.7937 -0.0336,2.3776 -2.64143,2.7861 -4.69248,0.735 -0.71144,-0.7114 -1.29352,-1.5663 -1.29352,-1.8997 0,-0.6619 -1.41596,-1.7457 -2.28064,-1.7457 -0.29787,0 -0.54158,-0.1417 -0.54158,-0.315 0,-0.6276 -1.03814,-0.6856 -3.40589,-0.1902 -1.32808,0.2779 -2.77193,0.5052 -3.20856,0.5052 -0.43664,0 -0.79388,0.063 -0.79388,0.141 0,0.077 0.5498,0.9579 1.22177,1.9565 1.4188,2.1083 1.76314,3.5497 1.50883,6.316 -0.19984,2.1738 -1.8535,5.4157 -3.33089,6.5301 -0.74109,0.559 -0.83868,0.5638 -1.03553,0.051 -0.12419,-0.3236 0.0797,-0.8989 0.47578,-1.3422 1.70713,-1.9107 2.33895,-3.489 2.49824,-6.2406 0.14504,-2.5055 0.0827,-2.8258 -0.81406,-4.1809 -0.53412,-0.8071 -1.51942,-1.8063 -2.18954,-2.2205 -1.66877,-1.0313 -2.53935,-1.9936 -3.30757,-3.656 -1.44433,-3.1254 -3.70253,-5.3964 -4.80285,-4.8299 -0.82445,0.4244 -1.51307,0.1594 -1.51307,-0.5821 0,-0.5797 1.20398,-1.1688 4.93889,-2.4165 3.73455,-1.2476 7.15718,-2.7288 8.42112,-3.6443 1.32255,-0.9581 3.12364,-3.382 2.77331,-3.7323 -0.0962,-0.096 -1.66214,-0.3277 -3.47982,-0.5143 -3.89096,-0.3996 -6.28225,-1.1211 -7.71721,-2.3286 l -1.03902,-0.8743 -1.25576,0.9578 c -0.69067,0.5268 -1.57168,1.4015 -1.9578,1.9438 -0.38613,0.5422 -1.04415,1.0945 -1.46228,1.2272 -1.77013,0.5618 -7.10782,5.1023 -7.71153,6.5598 -0.25704,0.6205 -0.33377,1.6692 -0.19579,2.6759 0.2542,1.8545 1.86521,3.8195 4.08655,4.9845 2.20753,1.1576 4.04597,2.2262 5.02471,2.9206 0.52499,0.3724 1.4378,0.8456 2.02847,1.0515 0.59066,0.2059 1.07393,0.4983 1.07393,0.6499 0,0.1515 0.47947,0.474 1.06548,0.7168 2.97702,1.2331 3.64777,4.3555 1.75512,8.1702 -1.14303,2.3037 -3.02589,4.8796 -3.56687,4.8796 -0.81834,0 -0.64895,-1.1533 0.35572,-2.4218 1.46398,-1.8484 2.85232,-4.9054 2.85655,-6.2898 0.002,-0.6836 -0.32841,-1.5127 -0.84025,-2.1077 l -0.84371,-0.9809 -1.14682,1.1212 c -2.98348,2.917 -7.51473,3.3758 -10.13946,1.0268 -1.92212,-1.7202 -2.39098,-4.7699 -1.13347,-7.3726 0.69157,-1.4314 0.69293,-1.4851 0.0537,-2.1244 -0.63923,-0.6392 -0.67152,-0.5905 -1.27737,1.9266 -2.12595,8.8324 -5.72358,15.4734 -9.44295,17.4311 -0.52871,0.2783 -2.83058,0.838 -5.11528,1.2439 -3.36849,0.5983 -5.92177,0.7579 -13.50261,0.8437 -5.14173,0.058 -11.01548,-0.013 -13.05277,-0.1582 z m 24.31066,-1.6915 c 0.54416,-0.2097 -4.98848,-0.3291 -15.34583,-0.3311 -8.90823,0 -15.87928,0.056 -15.49122,0.1285 4.0235,0.7506 28.98941,0.9146 30.83705,0.2026 z m -60.95694,-0.8004 c 1.67267,0.019 4.32107,-0.1259 5.88534,-0.322 2.47691,-0.3106 3.1774,-0.5701 5.42545,-2.0098 5.71148,-3.6579 11.93472,-9.1184 16.03664,-14.0712 0.80348,-0.9701 2.72954,-3.2901 4.28013,-5.1554 3.10913,-3.7403 7.84094,-9.7515 7.84094,-9.961 0,-0.073 -0.67469,-0.2282 -1.49931,-0.344 -0.82462,-0.1157 -2.01524,-0.3159 -2.64583,-0.4448 -0.85065,-0.1739 -1.14732,-0.1092 -1.14959,0.2507 -0.002,0.2668 -0.51992,1.0407 -1.15164,1.7198 -0.63172,0.6791 -3.05128,3.6129 -5.3768,6.5195 -4.62272,5.7779 -6.7398,8.1842 -9.69628,11.0209 -3.9561,3.7959 -9.8495,7.2454 -14.41847,8.4394 -2.76452,0.7225 -8.32618,1.5323 -10.54055,1.5348 h -1.85209 v 1.1641 c 0,1.8048 0.51724,2.0887 3.35139,1.8394 1.3582,-0.1194 3.838,-0.2016 5.51067,-0.1825 z m -7.80372,-1.2543 c 0,-0.3025 0.16134,-0.4503 0.35853,-0.3284 0.19719,0.1218 0.2672,0.3693 0.15557,0.5499 -0.30242,0.4894 -0.5141,0.3981 -0.5141,-0.2215 z m 80.40836,-5.2709 c 1.33837,-2.7021 2.25912,-5.2073 3.17662,-8.643 0.23316,-0.8732 0.59888,-2.1432 0.81271,-2.8223 0.67487,-2.1433 0.43917,-9.3117 -0.41758,-12.7 -0.41702,-1.6492 -0.98878,-3.4988 -1.27056,-4.1102 -0.28178,-0.6114 -0.51233,-1.2679 -0.51233,-1.4588 0,-0.7299 -1.56243,-1.3651 -2.64584,-1.0756 -0.58208,0.1555 -1.73302,0.4503 -2.55764,0.6551 -1.5751,0.3911 -1.91979,0.8633 -0.88194,1.2083 0.33955,0.1128 1.09361,0.8718 1.67569,1.6866 2.69842,3.7771 3.5384,7.3619 3.24516,13.8494 -0.11475,2.5385 -0.3737,5.3244 -0.57544,6.1908 -1.38056,5.9287 -1.92504,7.9779 -2.21882,8.3508 -0.18438,0.234 -0.24509,0.5714 -0.13491,0.7497 0.11019,0.1783 -0.26248,0.963 -0.82815,1.7439 -0.56568,0.7809 -0.92071,1.5276 -0.78897,1.6594 0.41554,0.4155 2.46979,-2.3522 3.922,-5.2841 z m 14.27324,-3.1359 c 0.64506,-0.2695 1.59298,-0.9431 2.10648,-1.4969 l 0.93364,-1.0069 -0.79489,-0.6119 c -0.43719,-0.3365 -1.05129,-0.6154 -1.36468,-0.6197 -0.31338,0 -0.94951,-0.2857 -1.41361,-0.6252 -0.9326,-0.6823 -2.10177,-1.376 -3.56584,-2.1157 -0.52972,-0.2677 -1.05502,-0.6353 -1.16735,-0.8171 -0.36974,-0.5982 -0.77585,-0.3466 -1.23691,0.7665 -0.64233,1.5508 -0.56602,3.9687 0.16022,5.0771 1.15543,1.7634 4.02347,2.419 6.34294,1.4498 z m 5.80072,-13.5934 c 0.10117,-0.6907 0.006,-0.7647 -0.70556,-0.5459 -1.12095,0.345 -1.16693,0.42 -0.64353,1.0507 0.59788,0.7204 1.20278,0.494 1.34909,-0.5048 z m -75.55997,-6.0165 c 0.9418,-0.8581 1.95049,-1.9009 2.24153,-2.3174 2.3842,-3.4115 4.87426,-5.3727 6.18356,-4.8703 0.5714,0.2193 0.69737,-0.2482 0.20906,-0.7758 -0.64011,-0.6917 -1.13359,-2.9774 -0.90541,-4.1937 0.31679,-1.6887 1.21557,-1.6881 1.21557,8e-4 0,2.1289 1.27376,4.5656 2.75947,5.2789 0.71361,0.3426 1.57101,0.757 1.90532,0.9209 0.33432,0.1638 2.15994,0.7117 4.05695,1.2175 5.62795,1.5006 12.36905,1.3025 20.55882,-0.6042 3.82358,-0.8902 8.3884,-2.0593 9.525,-2.4395 2.81759,-0.9425 7.22022,-1.7516 8.36355,-1.5371 0.90306,0.1694 1.19264,0.1224 1.01524,-0.1646 -0.13652,-0.2209 -0.71509,-0.4016 -1.28572,-0.4016 -0.57064,0 -1.03752,-0.1342 -1.03752,-0.2981 0,-0.4098 1.02389,-1.2687 2.29306,-1.9236 0.86998,-0.449 0.95242,-0.5876 0.46325,-0.7789 -0.32883,-0.1287 -0.50925,-0.4565 -0.40323,-0.7328 0.11246,-0.2931 -0.0249,-0.5 -0.33186,-0.5 -0.28804,0 -0.72134,-0.2381 -0.96288,-0.5291 -0.24155,-0.2911 -0.80724,-0.5292 -1.2571,-0.5292 -0.44986,0 -0.91604,-0.1588 -1.03596,-0.3528 -0.45117,-0.73 -1.50609,-0.2974 -3.54305,1.4529 -3.55206,3.0523 -7.97602,4.6308 -14.31873,5.1093 -3.89192,0.2936 -8.97307,-0.3503 -11.46667,-1.4531 -1.08401,-0.4794 -2.9755,-1.1819 -4.20331,-1.5612 -2.62901,-0.812 -4.78234,-1.8612 -5.43586,-2.6487 -0.66692,-0.8036 -0.17169,-1.1026 0.88736,-0.5358 0.83765,0.4483 0.96002,0.4092 1.74999,-0.5581 1.55509,-1.9042 1.98125,-3.1634 1.72482,-5.0964 -0.20658,-1.5573 -0.16407,-1.7503 0.34271,-1.5558 0.31821,0.1221 0.67131,0.641 0.78469,1.1532 0.11337,0.5122 0.28457,1.2189 0.38044,1.5704 0.23595,0.8653 -1.52584,4.3843 -2.43989,4.8735 -0.6589,0.3526 -0.67464,0.4272 -0.152,0.7196 0.32067,0.1795 1.31077,0.5453 2.20021,0.813 l 1.61716,0.4867 1.29579,-1.2366 c 3.26063,-3.1117 9.03745,-4.6003 14.29742,-3.6843 1.72025,0.2995 2.54482,0.305 3.07671,0.02 0.68971,-0.3691 0.69711,-0.4339 0.14577,-1.2754 -0.53889,-0.8224 -0.53897,-0.9328 -10e-4,-1.5272 0.38188,-0.4219 0.45155,-0.72 0.20407,-0.8729 -0.5652,-0.3493 -0.45149,-1.8052 0.18206,-2.331 0.43745,-0.3631 0.70283,-0.3724 1.22993,-0.043 0.94366,0.5893 1.09432,0.5311 0.96846,-0.374 -0.0864,-0.6213 0.082,-0.8163 0.77516,-0.8973 0.65648,-0.077 1.52334,0.445 3.35139,2.0168 1.35622,1.1661 2.56566,2.1255 2.68764,2.1319 0.12198,0.01 0.4221,-0.4718 0.66692,-1.0629 0.565,-1.364 1.47553,-1.2386 1.77897,0.245 0.48332,2.3632 0.31737,2.3607 4.80858,0.075 2.63828,-1.3428 4.51837,-2.5487 5.1295,-3.2901 0.53061,-0.6437 1.81284,-1.7333 2.84941,-2.4214 1.03657,-0.688 2.09046,-1.4989 2.34198,-1.802 0.25151,-0.303 0.77521,-0.551 1.16376,-0.551 0.59398,0 0.67335,0.1655 0.49853,1.0396 -0.26071,1.3036 2.0468,7.9716 4.09616,11.8368 2.89653,5.4629 2.88967,5.4371 2.20455,8.2903 -0.32595,1.3573 1.40941,2.2609 5.2843,2.7514 6.7564,0.8553 6.50406,0.8586 6.93555,-0.089 0.58106,-1.2753 0.22008,-1.7406 -1.86775,-2.4074 -2.67546,-0.8546 -5.36081,-2.4871 -5.86939,-3.5682 -1.45755,-3.0982 -2.31307,-5.6933 -3.44369,-10.4457 -0.53085,-2.2313 -1.42001,-5.5359 -1.97592,-7.3436 -0.55591,-1.8077 -1.01179,-3.6333 -1.01307,-4.057 -0.003,-0.9965 -1.14153,-2.7146 -2.18128,-3.2915 -1.17818,-0.6538 -2.83691,-0.5775 -4.95636,0.2281 -1.02073,0.3879 -2.18569,0.7054 -2.5888,0.7055 -0.7285,2e-4 -3.97733,1.1885 -6.6754,2.4417 -0.77611,0.3605 -2.04611,0.9393 -2.82222,1.2863 -0.77612,0.3469 -1.8325,0.9201 -2.34752,1.2737 -0.51502,0.3536 -1.1651,0.643 -1.44463,0.643 -0.27952,0 -0.77976,0.3 -1.11163,0.6667 -0.98899,1.0928 -4.93792,2.861 -6.38951,2.861 -0.81504,0 -1.4897,0.2199 -1.74467,0.5686 -0.36471,0.4988 -1.71195,0.5753 -10.975,0.6233 -11.9,0.062 -13.1784,0.2778 -16.72412,2.8251 -1.87331,1.3458 -2.83098,1.6062 -2.83098,0.7696 0,-0.5866 1.40915,-1.645 4.40224,-3.3065 1.82668,-1.014 1.96001,-1.1514 0.95208,-0.9806 -1.80856,0.3065 -6.78777,2.9398 -8.28416,4.3812 -0.76814,0.7399 -2.03042,2.6968 -2.95088,4.5747 -1.71829,3.5058 -1.91111,3.6955 -8.83705,8.6981 -3.96201,2.8618 -4.86557,5.3179 -3.27725,8.9086 l 0.70456,1.5928 2.43495,-0.1376 c 2.30724,-0.1304 2.52474,-0.2194 4.14731,-1.6978 z m 53.04153,-11.6708 c 0,-0.2055 0.15875,-0.2755 0.35278,-0.1556 0.19403,0.1199 0.35278,0.288 0.35278,0.3736 0,0.085 -0.15875,0.1556 -0.35278,0.1556 -0.19403,0 -0.35278,-0.1682 -0.35278,-0.3736 z m 10.82436,10.5511 c 0.59676,-0.5142 1.44238,-1.1262 1.87915,-1.36 0.74083,-0.3965 0.58389,-0.5196 -2.33872,-1.8355 -1.72306,-0.7758 -3.33512,-1.5755 -3.58234,-1.7771 -0.76416,-0.6232 -0.79569,-0.1192 -0.10607,1.6957 0.36433,0.9588 0.77766,2.5369 0.91852,3.5068 0.34053,2.3446 0.4492,2.4655 1.3633,1.5162 0.42963,-0.4461 1.2694,-1.2319 1.86616,-1.7461 z m -60.56602,0.7377 c 0,-0.1825 -0.15875,-0.3319 -0.35278,-0.3319 -0.19403,0 -0.35278,0.2475 -0.35278,0.55 0,0.3025 0.15875,0.4518 0.35278,0.3319 0.19403,-0.1199 0.35278,-0.3674 0.35278,-0.55 z m 65.72544,-4.3007 c 1.04634,-0.9729 1.97751,-4.7328 2.26285,-9.1372 0.17547,-2.7083 0.10425,-3.2731 -0.6018,-4.7725 -1.39076,-2.9536 -2.82816,-6.7315 -2.82816,-7.4333 0,-1.2119 -0.41246,-1.1419 -2.42613,0.4119 -3.25428,2.5111 -3.37071,2.7 -2.65835,4.3128 0.33054,0.7484 0.85637,2.9482 1.16851,4.8885 l 0.56753,3.5278 1.49783,0.4744 c 1.61753,0.5124 2.04617,1.4658 0.65897,1.4658 -0.46137,0 -1.38588,-0.2285 -2.05446,-0.5079 -0.93688,-0.3914 -1.31074,-0.8255 -1.63058,-1.893 -0.22824,-0.7618 -0.41499,-1.8137 -0.41499,-2.3375 0,-1.255 -0.59237,-2.3171 -1.29238,-2.3171 -0.30911,0 -1.38326,-0.4699 -2.38701,-1.0442 l -1.825,-1.0441 -1.13688,0.6913 c -0.62529,0.3803 -1.35174,0.6914 -1.61433,0.6914 -0.2626,0 -0.67508,0.2381 -0.91662,0.5292 -0.68136,0.821 0.0352,1.3715 2.49565,1.9173 1.58059,0.3507 2.23241,0.6659 2.35629,1.1397 0.0942,0.3602 0.54265,0.7481 0.99658,0.862 0.45392,0.1139 1.01002,0.4297 1.23576,0.7017 0.22575,0.272 0.72015,0.4946 1.09867,0.4946 0.46894,0 0.64753,0.1967 0.56049,0.6173 -0.0962,0.4649 -0.41969,0.5936 -1.30941,0.5212 -1.20192,-0.098 -3.2007,0.5723 -3.2007,1.073 0,0.1514 0.39688,0.4263 0.88195,0.6107 1.09619,0.4168 1.13668,1.1847 0.0882,1.6727 -0.77111,0.3588 -0.77363,0.3766 -0.0882,0.6251 1.31946,0.4784 4.21205,1.7559 6.51901,2.8793 2.79748,1.3622 2.92627,1.3744 3.99671,0.3791 z m 4.7307,-4.1451 c 0.62545,-0.7701 0.51976,-2.8163 -0.21689,-4.199 l -0.63951,-1.2005 -0.21632,2.4352 c -0.11897,1.3393 -0.32638,2.9114 -0.4609,3.4935 -0.2317,1.0025 -0.20905,1.0304 0.42964,0.5291 0.37082,-0.291 0.86761,-0.7673 1.10398,-1.0583 z m 12.292,-1.6264 c -0.57018,-2.2718 -1.94416,-4.6307 -6.00341,-10.3071 -0.64836,-0.9066 -1.53201,-2.33 -1.96368,-3.163 -1.53487,-2.9619 -1.27305,-1.8026 1.84049,8.1491 0.72889,2.3297 1.22699,3.404 1.5252,3.2896 0.27536,-0.1057 0.38672,0.053 0.29444,0.421 -0.16458,0.6554 1.58304,1.8257 2.72629,1.8257 0.37234,0 0.67697,0.1587 0.67697,0.3528 0,0.194 0.25534,0.3527 0.56741,0.3527 0.43548,0 0.51367,-0.2141 0.33629,-0.9208 z m -2.61706,-1.163 c -0.35488,-0.2205 -0.37162,-0.3635 -0.0647,-0.5532 0.48408,-0.2992 0.8475,-0.034 0.6683,0.487 -0.0734,0.2135 -0.32244,0.2408 -0.60358,0.066 z m -44.06201,0.8365 c 1.6964,-0.2967 3.813,-0.8519 4.70356,-1.2336 0.89056,-0.3817 1.9329,-0.6941 2.31632,-0.6941 0.38342,0 0.60168,-0.1544 0.48503,-0.3432 -0.43543,-0.7045 -3.11452,-1.0872 -7.84015,-1.1198 -4.0077,-0.028 -5.35561,0.103 -7.62237,0.7391 -2.71227,0.761 -5.62335,2.164 -4.95356,2.3872 2.63623,0.8788 8.69029,1.0027 12.91117,0.2644 z m 9.81874,-4.2542 c 0.47038,-0.5035 1.30797,-1.151 1.86129,-1.4388 0.95305,-0.4957 0.99313,-0.6101 0.76075,-2.1713 -0.28971,-1.9465 -0.46572,-2.2081 -0.92884,-1.3806 -0.57814,1.0331 -1.50443,0.7006 -3.77645,-1.3554 -1.19723,-1.0834 -2.17679,-1.7978 -2.17679,-1.5875 0,0.2103 0.15068,0.3824 0.33483,0.3824 0.18415,0 0.75891,0.556 1.27723,1.2355 0.77308,1.0136 0.86362,1.3305 0.50392,1.7639 -0.72504,0.8736 -1.47726,0.6124 -3.24226,-1.1261 -0.92382,-0.9099 -1.77219,-1.5619 -1.88527,-1.4488 -0.11307,0.1131 0.59756,0.8972 1.5792,1.7426 0.98163,0.8454 1.78486,1.7355 1.78496,1.978 2.6e-4,0.6645 -1.00996,0.5301 -2.02651,-0.2695 -1.38032,-1.0858 -1.49185,-0.4192 -0.12202,0.7293 0.96161,0.8062 1.1202,1.1077 0.79115,1.5041 -0.33659,0.4056 -0.10591,0.6096 1.26676,1.1204 0.92306,0.3434 1.82911,0.7623 2.01343,0.9308 0.56019,0.5122 1.0887,0.35 1.98462,-0.609 z m 1.20802,-2.9651 c -0.11992,-0.1941 -0.0499,-0.3528 0.15557,-0.3528 0.20548,0 0.3736,0.1587 0.3736,0.3528 0,0.194 -0.07,0.3528 -0.15557,0.3528 -0.0856,0 -0.25368,-0.1588 -0.3736,-0.3528 z m 11.19719,-2.5012 c -0.37958,-0.5995 -0.79276,-1.0786 -0.91817,-1.0646 -0.83957,0.093 -1.98874,0.5083 -1.98874,0.7181 0,0.3324 2.11808,1.3325 2.94506,1.3907 0.62493,0.044 0.62335,6e-4 -0.0382,-1.0442 z m -43.21912,-6.1786 c -0.11723,-0.1173 -0.4215,-0.1298 -0.67616,-0.028 -0.28142,0.1126 -0.19783,0.1962 0.21314,0.2132 0.37188,0.015 0.58024,-0.068 0.46302,-0.1853 z m 21.05089,-0.4359 c 0.10071,-0.163 -0.57219,-0.6377 -1.49532,-1.0549 -1.53143,-0.6921 -1.93957,-0.7285 -4.6602,-0.4162 -1.63998,0.1883 -4.3821,0.4401 -6.09362,0.5594 -1.71152,0.1194 -3.04011,0.2888 -2.95244,0.3765 0.0877,0.088 3.39301,0.2862 7.34518,0.4412 3.95218,0.155 7.29547,0.3062 7.42954,0.336 0.13407,0.03 0.32616,-0.079 0.42686,-0.242 z m 45.10229,-1.2039 c 3.46214,-0.7634 4.41681,-1.3166 2.29306,-1.3286 -2.45947,-0.014 -9.31277,-1.4536 -10.52579,-2.2112 -0.35355,-0.2208 -0.7315,-0.3127 -0.83988,-0.2044 -0.27108,0.2711 0.75431,2.6463 1.68708,3.9079 0.88449,1.1963 1.25499,1.1881 7.38553,-0.1637 z m -41.09021,-0.3268 c -0.13835,-0.415 -0.25804,-0.4917 -2.17099,-1.3914 -0.55883,-0.2628 -1.17963,-0.8368 -1.37954,-1.2756 -0.4729,-1.0379 -0.66793,-1.0076 -1.59599,0.2477 -0.75917,1.0268 -0.76068,1.0519 -0.0849,1.4135 0.73651,0.3942 4.12025,1.3599 4.89964,1.3984 0.2587,0.013 0.408,-0.1639 0.33178,-0.3926 z m 3.25479,-0.9953 c 0.48507,-0.3794 1.08039,-0.6934 1.32292,-0.6977 0.24254,0 0.44097,-0.1666 0.44097,-0.3606 0,-0.3827 -2.76736,-0.4871 -3.67531,-0.1387 -0.66355,0.2547 -0.72161,0.8923 -0.13469,1.4792 0.58235,0.5824 1.01757,0.5223 2.04611,-0.2822 z m 7.05556,-3.8805 c 0,-0.1941 -0.14938,-0.3528 -0.33196,-0.3528 -0.18258,0 -0.43007,0.1587 -0.54999,0.3528 -0.11991,0.194 0.0295,0.3527 0.33196,0.3527 0.3025,0 0.54999,-0.1587 0.54999,-0.3527 z m 2.25127,-1.6059 c 0.12047,-0.3139 0.0613,-0.4555 -0.13864,-0.3319 -0.19181,0.1185 -0.34874,0.3649 -0.34874,0.5475 0,0.5074 0.25286,0.3956 0.48738,-0.2156 z m 2.86401,-0.8636 c 0.11991,-0.194 0.60553,-0.3528 1.07915,-0.3528 1.14169,0 1.09215,-0.4475 -0.10901,-0.9847 -0.53358,-0.2387 -1.3617,-0.6625 -1.84027,-0.9417 -0.47857,-0.2793 -0.92203,-0.456 -0.98545,-0.3925 -0.0634,0.063 0.089,0.7699 0.33866,1.5699 0.43589,1.3966 1.05623,1.8472 1.51692,1.1018 z m 8.63962,-2.8336 c 0.002,-0.1033 -1.33492,-1.5628 -2.97067,-3.2433 -4.31785,-4.4361 -6.77759,-5.8349 -9.12182,-5.1876 -1.36853,0.3778 -3.50709,2.4452 -2.795,2.7019 0.74724,0.2694 2.53656,2.2961 3.27715,3.7119 0.72915,1.3939 1.00736,1.5577 1.61476,0.9503 0.26168,-0.2617 0.69179,-0.1041 1.44439,0.5291 0.58946,0.496 1.28696,0.9135 1.54999,0.9276 0.26304,0.014 0.94193,0.298 1.50866,0.6306 0.98251,0.5767 1.13407,0.5714 3.25977,-0.1139 1.22614,-0.3954 2.23089,-0.8033 2.23277,-0.9066 z m 13.58538,69.5086 c 0.11991,-0.194 0.28803,-0.3528 0.37359,-0.3528 0.0856,0 0.15557,0.1588 0.15557,0.3528 0,0.194 -0.16812,0.3528 -0.37359,0.3528 -0.20548,0 -0.27549,-0.1588 -0.15557,-0.3528 z m 3.19006,-1.3867 c -0.11163,-0.1806 -0.0416,-0.4281 0.15557,-0.55 0.19719,-0.1219 0.35853,0.026 0.35853,0.3284 0,0.6197 -0.21168,0.7109 -0.5141,0.2216 z m -2.95797,-7.4327 c 0,-0.4851 0.0801,-0.6835 0.17793,-0.441 0.0979,0.2425 0.0979,0.6394 0,0.8819 -0.0979,0.2426 -0.17793,0.044 -0.17793,-0.4409 z m 13.5555,-4.8916 c -0.15196,-0.2459 -0.18103,-0.5423 -0.0646,-0.6588 0.31573,-0.3157 0.65997,0.1487 0.48944,0.6602 -0.11949,0.3585 -0.20259,0.3583 -0.42485,0 z m -12.90565,-17.3334 c 0,-0.1941 0.15875,-0.3528 0.35278,-0.3528 0.19403,0 0.35278,0.1587 0.35278,0.3528 0,0.194 -0.15875,0.3527 -0.35278,0.3527 -0.19403,0 -0.35278,-0.1587 -0.35278,-0.3527 z m 7.9375,-8.4667 c -0.11991,-0.194 -0.0593,-0.3528 0.13475,-0.3528 0.19403,0 0.45089,0.1588 0.57081,0.3528 0.11991,0.194 0.0593,0.3528 -0.13475,0.3528 -0.19403,0 -0.45089,-0.1588 -0.57081,-0.3528 z m -0.87487,-1.596 c 0.24544,-0.2958 0.5189,-0.4651 0.60769,-0.3763 0.24465,0.2447 -0.25243,0.914 -0.67878,0.914 -0.23392,0 -0.20716,-0.2025 0.0711,-0.5377 z"
       id="path102" /></g></svg>
