<?xml version="1.0" encoding="UTF-8" standalone="no"?>
<!-- Created with Inkscape (http://www.inkscape.org/) -->

<svg
   width="140.90103mm"
   height="99.569923mm"
   viewBox="0 0 140.90105 99.569924"
   version="1.1"
   id="svg1"
   xml:space="preserve"
   xmlns="http://www.w3.org/2000/svg"
   xmlns:svg="http://www.w3.org/2000/svg"><defs
     id="defs1" /><g
     id="layer1"
     transform="translate(39.100451,-1401.0249)"><path
       style="fill:#4d4d4d;stroke-width:0.958041"
       d="m -24.828812,1500.2857 c -3.47157,-0.6133 -10.35248,-3.6076 -12.80146,-5.5707 -3.02952,-2.4285 -1.11598,-14.9152 3.35528,-21.8945 5.47209,-8.5415 11.71313,-11.1635 28.1210199,-11.8139 8.86653,-0.3515 12.13818,-0.7702 12.71834,-1.6277 2.13555,-3.1562 -1.38146,-3.6582 -14.99833,-2.1409 -3.7708599,0.4203 -3.7079199,-0.1739 0.17513,-1.6533 2.17044,-0.827 4.71185,-1.025 8.50888997,-0.6632 5.24610003,0.5 5.44212003,0.4489 6.31565003,-1.646 1.68691,-4.0458 2.84631,-2.5102 3.9337701,5.2101 0.10412,0.7393 2.31656,1.8153 5.55483,2.7016 7.13002,1.9513 15.39316,5.4484 17.21761,7.2866 0.80778,0.8138 1.98857,1.4798 2.62395,1.4798 1.58442,0 2.18817,1.0899 1.31629,2.3763 -1.01012,1.4903 -4.37368,-0.2165 -5.43292,-2.7568 -1.31111,-3.1444 -13.94903,-7.2551 -22.5562101,-7.3367 -4.55341,-0.043 -7.31752,0.3092 -8.30971003,1.0595 -2.43415997,1.8407 -1.83801,7.5283 1.65298003,15.7707 3.91576,9.2452 3.80214,9.0852 5.77025,8.1248 2.0059101,-0.9789 3.2000501,-8.724 1.8458101,-11.9719 -0.5083201,-1.2191 -0.7945001,-2.3349 -0.6359501,-2.4794 0.15857,-0.1446 2.7415101,0.4333 5.7399001,1.2842 2.99837,0.851 8.3356,1.6655 11.86048,1.81 3.52489,0.1446 6.41072,0.5392 6.41295,0.8772 0.002,0.3379 -0.33167,0.6143 -0.74201,0.6143 -0.41033,0 -2.1016,1.7509 -3.75839,3.891 -1.65679,2.14 -4.13441,5.0846 -5.50585,6.5437 l -2.49351,2.6527 2.19276,4.31 2.19275,4.3099 -13.23404,0.5423 c -27.44538,1.1248 -33.98373,1.2501 -37.04026,0.7103 z m 32.7535399,-4.4627 c 2.4195301,-0.9216 2.9492301,-1.5147 2.5614101,-2.8669 -0.26892,-0.9376 -1.1492401,-1.6981 -1.9562701,-1.69 -1.88266,0.018 -9.21463003,4.5255 -8.46914003,5.2052 0.95928003,0.8747 4.66946003,0.5688 7.86400003,-0.6483 z m 19.9979701,3.0215 c 0.83643,-0.5321 0.86091,-1.3974 0.10321,-3.6487 -1.63805,-4.8666 -0.52139,-6.5266 9.79647,-14.5635 9.84545,-7.6691 12.70524,-11.0099 12.77238,-14.9207 0.0388,-2.2612 -1.97727,-4.7646 -3.84451,-4.7739 -0.58231,0 0.84796,-1.4955 3.17838,-3.317 4.96542,-3.8808 6.22421,-7.0477 5.29175,-13.3131 -0.81156,-5.4531 -3.39432,-9.3307 -8.86808,-13.3142 -5.89492,-4.29 -6.52439,-4.9334 -3.06952,-3.1372 5.08401,2.6429 9.12504,6.0824 10.92397,9.2976 l 1.72552,3.0842 5.21061,-1.6193 c 4.26411,-1.3253 6.67926,-1.5372 13.29574,-1.1661 15.38267,0.8626 22.20834,4.9055 25.54874,15.1331 3.301312,10.1078 2.095552,20.2959 -3.62493,30.6289 -4.1505,7.4972 -6.88968,10.9625 -9.53395,12.0609 -1.34894,0.5606 -10.11105,1.3016 -20.40311,1.7254 -21.60028,0.89 -33.25738,1.5612 -36.90414,2.1247 -1.62155,0.2506 -2.25827,0.1386 -1.59853,-0.2811 z m 12.04848,-40.6378 c -0.88876,-0.9764 -10.05313,-3.273 -13.04751,-3.2697 -0.63857,8e-4 -0.88096,-1.4628 -0.67562,-4.0798 l 0.32022,-4.081 -3.1213,1.759 c -4.1049,2.3133 -7.0972,2.222 -9.86375,-0.3005 -2.6806,-2.4443 -3.3812,-5.1512 -3.36272,-12.9923 0.0102,-4.0707 0.27722,-5.4647 0.88459,-4.6076 0.47897,0.6757 0.87703,3.36 0.8846,5.965 0.0224,7.7314 3.22277,12.7328 7.51851,11.7497 1.17589,-0.2691 4.24902,-1.8133 6.82916,-3.4317 2.58013,-1.6184 4.93401,-2.721 5.23083,-2.4504 0.29683,0.2707 -0.34549,1.0575 -1.4274,1.7485 -1.57104,1.0033 -1.96708,2.0685 -1.96708,5.29 0,3.7421 0.17854,4.0671 2.47046,4.4961 1.35875,0.2543 3.93225,0.8143 5.7189,1.2441 5.06204,1.2186 5.8971,0.9895 8.06828,-2.2138 1.98607,-2.9303 1.99754,-3.0808 0.52244,-6.8679 -1.71295,-4.3978 -1.79117,-4.8808 -0.79028,-4.8808 1.01254,0 2.8755,4.999 2.8755,7.7162 0,2.7113 -2.1914,7.1779 -4.42654,9.0225 -1.36068,1.1227 -1.76174,1.1507 -2.64129,0.1844 z m -5.50903,-13.6466 c -1.00444,-0.5918 -0.50331,-0.7972 1.96826,-0.8066 1.82368,-0.011 3.56562,0.3561 3.871,0.8066 0.71609,1.0567 -4.04635,1.0567 -5.83926,0 z m -15.4965,-1.7039 c -1.73859,-0.9233 -2.25397,-6.8257 -0.67377,-7.7163 0.5415,-0.305 0.89835,0.7907 0.89835,2.7587 0,3.4229 1.0734,4.1954 4.95115,3.5633 1.86324,-0.3037 5.82903,-5.0501 5.82903,-6.9763 0,-0.5978 -1.21277,-2.1463 -2.69505,-3.4413 -1.48228,-1.2949 -2.67847,-2.9305 -2.6582,-3.6347 0.0228,-0.7914 1.40593,0.1002 3.62355,2.3375 2.73231,2.756 3.83631,3.3901 4.63456,2.6622 0.57633,-0.5255 2.59673,-0.9554 4.48978,-0.9554 4.06909,0 5.2862,1.7282 2.90606,4.1263 -2.17944,2.1958 -2.95062,2.0171 -2.41061,-0.5586 0.42652,-2.0346 0.29609,-2.1302 -2.14401,-1.5717 -1.42901,0.327 -2.62987,0.6567 -2.66861,0.7327 -1.50964,2.9626 -4.89261,6.8153 -7.02592,8.0014 -3.12675,1.7386 -4.75623,1.8938 -7.05631,0.6722 z M 8.4100479,1426.0096 c -1.12491,-0.2748 -1.26555,-1.6452 -0.85141,-8.296 0.49216,-7.9036 2.34947,-13.1434 5.5051701,-15.5315 1.87016,-1.4153 3.79492,-1.5584 3.83971,-0.2856 0.0224,0.6382 0.55879,1.3179 1.19185,1.5103 0.63306,0.1924 1.03731,-0.1454 0.89835,-0.7508 -0.1422,-0.6196 0.33651,-0.9773 1.09486,-0.8183 0.74114,0.1553 1.9539,0.398 2.69505,0.5392 9.35386,1.7829 14.91201,3.8647 13.98178,5.2373 -0.24696,0.3641 0.13156,1.3617 0.84116,2.2166 1.53235,1.8459 1.70636,4.7362 0.41736,6.9324 -1.56258,2.6622 -2.66345,1.7773 -2.66345,-2.1413 0,-3.4242 -0.23514,-3.8159 -2.90701,-4.8402 -3.6666,-1.4058 -5.94783,-0.4167 -6.67389,2.8935 -0.8975,4.0918 -2.22732,3.6797 -1.92711,-0.597 0.27232,-3.8794 0.21725,-3.975 -2.41637,-4.1958 -2.36063,-0.1981 -2.90904,0.1848 -4.41961,3.0865 l -1.72456,3.3127 2.6229,2.569 c 2.07078,2.0281 2.2447,2.4365 0.82623,1.94 -4.5011,-1.5754 -4.60355,-1.525 -5.9162,2.9125 -1.27308,4.3039 -1.90438,4.9198 -4.4148101,4.3065 z m 5.7749601,-16.8664 c 2.47978,-4.7247 2.19587,-6.6699 -0.51486,-3.5276 -0.9809,1.1371 -1.55254,2.4081 -1.27032,2.8245 0.28224,0.4163 0.13627,0.8806 -0.32436,1.0317 -0.46064,0.1511 -1.12851,1.3435 -1.48414,2.6496 -0.9843401,3.6153 0.99326,1.9764 3.59368,-2.9782 z m 9.67663,13.1362 c -0.59292,-0.5405 -1.04611,-1.5543 -1.0071,-2.2525 0.045,-0.8044 0.23349,-0.9041 0.51455,-0.2717 0.244,0.5489 1.86911,1.2418 3.61135,1.5398 2.22695,0.381 2.80782,0.7499 1.9559,1.2421 -1.72085,0.9944 -3.81839,0.8879 -5.0747,-0.2577 z"
       id="path65" /></g></svg>
