<?xml version="1.0" encoding="UTF-8" standalone="no"?>
<!-- Created with Inkscape (http://www.inkscape.org/) -->

<svg
   width="131.41833mm"
   height="95.278236mm"
   viewBox="0 0 131.41835 95.278236"
   version="1.1"
   id="svg1"
   xml:space="preserve"
   xmlns="http://www.w3.org/2000/svg"
   xmlns:svg="http://www.w3.org/2000/svg"><defs
     id="defs1" /><g
     id="layer1"
     transform="translate(-322.18206,-1653.2667)"><path
       style="fill:#4d4d4d"
       d="m 367.42072,1748.3138 c -0.11599,-0.1159 -0.14861,-0.3938 -0.0725,-0.6173 0.0761,-0.2236 0.30566,-1.9691 0.51009,-3.879 0.20443,-1.9099 0.5342,-3.7762 0.73283,-4.1474 0.2808,-0.5247 0.15865,-1.0203 -0.54911,-2.228 -0.50063,-0.8542 -1.14984,-1.6451 -1.44269,-1.7575 -0.75839,-0.291 -1.97975,-3.2389 -1.96925,-4.753 0.0227,-3.2723 -2.83481,-11.5601 -5.16465,-14.9795 -1.24426,-1.8261 -1.80381,-2.9624 -1.65031,-3.3514 0.19522,-0.4947 0.3832,-0.4094 1.17954,0.5349 l 0.94732,1.1234 2.15716,-1.0354 c 1.18643,-0.5694 2.80864,-1.6868 3.6049,-2.4831 3.34325,-3.3432 6.88519,-9.5745 7.34369,-12.9196 0.2532,-1.8473 0.91337,-2.254 1.82712,-1.1255 0.63743,0.7872 0.66698,0.7908 1.02082,0.1262 0.20041,-0.3764 0.78934,-1.9544 1.30874,-3.5066 1.07426,-3.2104 2.39029,-5.5196 4.68921,-8.2279 1.64579,-1.9389 4.95234,-4.6485 5.67256,-4.6485 0.95942,0 0.26507,1.0568 -1.69381,2.578 -2.52008,1.9571 -4.83335,4.8182 -6.28586,7.7747 -2.05787,4.1887 -2.27624,6.2167 -0.67167,6.2381 0.42348,0.01 1.88122,0.3169 3.23942,0.6917 2.93434,0.8097 9.22169,1.6592 9.5857,1.2952 0.14099,-0.141 -0.36207,-2.0317 -1.11792,-4.2016 -1.03357,-2.9673 -1.37897,-4.5168 -1.39325,-6.2503 -0.024,-2.9119 0.59852,-3.3389 0.93544,-0.6416 0.30242,2.421 0.97235,4.898 2.21654,8.1955 0.50855,1.3478 0.89911,2.8559 0.86793,3.3514 -0.19065,3.029 0.78815,4.507 4.15077,6.2677 2.31749,1.2135 8.24723,2.7694 9.1819,2.4093 0.82961,-0.3196 0.4477,-0.5168 -3.78961,-1.9566 -4.03033,-1.3695 -4.47712,-1.5847 -5.76414,-2.7758 -1.42457,-1.3185 -2.05564,-2.6791 -1.77856,-3.8345 0.54739,-2.2825 1.13654,-2.8674 4.50689,-4.4742 3.05852,-1.4581 3.43181,-1.7528 5.03634,-3.9758 1.72246,-2.3863 2.48982,-3.6412 4.70389,-7.6926 2.78767,-5.1009 4.92798,-8.2364 7.2303,-10.5922 5.24945,-5.3716 9.53264,-5.9094 22.12343,-2.778 6.24368,1.5528 10.48047,3.3489 12.18841,5.1669 2.50186,2.6631 3.26563,9.2482 1.8721,16.1408 -1.94869,9.6384 -6.5944,18.752 -11.04567,21.6686 -1.6254,1.065 -21.43183,7.6679 -29.54799,9.8504 -1.06716,0.287 -6.67148,1.8851 -12.45406,3.5514 -5.78257,1.6663 -10.74351,3.0296 -11.0243,3.0296 -0.69921,0 -0.64195,0.6981 0.10683,1.3025 0.9861,0.796 5.47581,2.9309 6.16366,2.9309 0.34502,0 0.62731,0.2381 0.62731,0.5291 0,1.4453 -4.77789,-0.2369 -7.46938,-2.6299 -1.03358,-0.9189 -2.29906,-1.8937 -2.81218,-2.1662 -0.51313,-0.2726 -2.99749,-2.4515 -5.5208,-4.8421 -6.36874,-6.0338 -7.16068,-6.5596 -11.2616,-7.4772 -1.63456,-0.3658 -1.95016,-0.3377 -2.82223,0.2506 -0.54002,0.3644 -1.41842,0.882 -1.952,1.1503 -0.53358,0.2684 -0.97014,0.659 -0.97014,0.8681 0,0.2091 0.40143,1.6507 0.89206,3.2036 0.49063,1.5528 1.04626,3.3109 1.23472,3.9068 0.18847,0.5958 0.34267,1.4028 0.34267,1.7932 0,1.1898 0.39211,1.2085 1.8094,0.086 0.74686,-0.5915 1.62892,-1.0233 1.96014,-0.9595 0.33121,0.064 1.5047,1.2288 2.60773,2.5889 1.65663,2.0427 2.47312,2.7071 4.69329,3.8192 3.77512,1.891 3.50558,2.8409 -0.35239,1.2419 l -1.81906,-0.754 -1.52329,0.8422 c -1.22893,0.6794 -1.64963,1.183 -2.17709,2.606 -1.34507,3.6289 -1.66342,4.9975 -1.66714,7.1669 -0.005,2.7185 -0.67299,4.2172 -1.50821,3.3819 z m -2.37616,-31.8285 c 2.11761,-1.0017 9.12696,-8.1192 10.32509,-10.4845 0.90573,-1.7881 1.67085,-5.008 1.6676,-7.018 l -0.002,-1.0817 -0.84953,1.0583 -0.84953,1.0584 -0.2453,-0.9702 c -0.31256,-1.2361 -0.73053,-1.2384 -1.03992,-0.01 -0.39199,1.5618 -2.56435,6.0554 -3.90061,8.0686 -2.47305,3.7258 -7.30734,7.9003 -9.14894,7.9003 -0.72136,0 -0.69631,0.1243 0.3635,1.8032 0.81391,1.2893 0.96739,1.3844 1.49931,0.9293 0.32592,-0.2789 1.30695,-0.845 2.18008,-1.258 z m 10.53607,-0.5376 c 5.5172,-3.9819 7.92357,-4.2002 20.50837,-1.8605 7.18777,1.3363 9.34682,1.4654 12.55922,0.7507 1.50964,-0.3359 2.99233,-0.733 3.29487,-0.8824 0.30254,-0.1494 1.29687,-0.6156 2.20963,-1.036 3.18793,-1.4681 7.74134,-5.2626 10.73764,-8.948 1.23623,-1.5205 3.28722,-4.9352 5.87088,-9.7746 4.66177,-8.7317 8.24391,-13.3071 11.86447,-15.1541 3.24443,-1.6552 6.31777,-0.2004 7.60419,3.5996 1.25766,3.7151 0.59192,9.2364 -2.09232,17.3526 -1.52098,4.599 -1.87035,6.155 -0.97525,4.3438 0.85801,-1.7362 2.19611,-4.8883 2.19611,-5.1733 0,-0.1662 0.38064,-1.4712 0.84588,-2.9 1.43382,-4.4034 2.07017,-8.6713 1.92275,-12.8957 -0.23091,-6.6174 -1.81581,-8.4923 -9.19512,-10.8779 -6.33197,-2.047 -14.83713,-3.6497 -14.23993,-2.6834 0.10401,0.1683 0.86744,0.3969 1.69652,0.508 1.30482,0.1748 4.87069,1.0726 12.6199,3.1774 1.06715,0.2899 2.41653,0.7321 2.99861,0.9827 1.04925,0.4517 1.04017,0.4574 -1.05833,0.6633 -4.38817,0.4305 -7.04686,2.8191 -12.70211,11.4117 -0.87196,1.3249 -1.58539,2.5274 -1.58539,2.6723 0,0.4099 -3.87646,7.5506 -4.43837,8.1758 -0.27528,0.3063 -0.50052,0.6756 -0.50052,0.8206 0,0.4998 -3.31118,4.6244 -5.21822,6.5 -1.99383,1.9609 -5.34002,4.2933 -6.15955,4.2933 -0.26156,0 -0.62637,0.143 -0.8107,0.3178 -0.18433,0.1748 -1.52576,0.5475 -2.98097,0.8282 -3.38983,0.654 -7.46706,0.3619 -12.17084,-0.8719 -6.00778,-1.5758 -7.09238,-1.7458 -11.19212,-1.7536 -4.05701,-0.01 -6.54122,0.528 -9.79815,2.1133 -1.22276,0.5951 -7.62133,5.2046 -7.93964,5.7197 -0.0909,0.1471 0.34864,0.4594 0.97676,0.6941 0.62813,0.2346 1.45955,0.5598 1.8476,0.7226 1.18309,0.4963 1.60639,0.3891 3.30413,-0.8361 z m 27.12514,-6.6695 c -0.0796,-0.2425 -0.6088,-0.4662 -1.17592,-0.4969 -0.71933,-0.039 -0.79111,-0.01 -0.23738,0.1127 0.43656,0.093 0.79375,0.3164 0.79375,0.4969 0,0.1806 0.17198,0.3283 0.38218,0.3283 0.21019,0 0.31701,-0.1985 0.23737,-0.441 z m -4.85288,-1.8608 c 0,-0.1018 -0.35719,-0.3342 -0.79375,-0.5165 -0.43656,-0.1822 -1.54781,-0.9079 -2.46945,-1.6126 -1.16762,-0.8927 -1.67569,-1.1192 -1.67569,-0.747 0,0.4715 0.99756,1.2422 3.3464,2.5856 0.76711,0.4388 1.59249,0.5893 1.59249,0.2905 z m -8.37362,-7.1188 c -0.4339,-0.084 -1.22765,-0.086 -1.76389,0 -0.53625,0.081 -0.18124,0.1496 0.7889,0.1522 0.97014,0 1.40888,-0.064 0.97499,-0.1474 z m -5.12748,-0.6704 c -0.11723,-0.1172 -0.4215,-0.1297 -0.67616,-0.028 -0.28142,0.1126 -0.19783,0.1962 0.21314,0.2131 0.37189,0.015 0.58024,-0.068 0.46302,-0.1853 z m -2.99126,-0.726 c -0.24254,-0.098 -0.63941,-0.098 -0.88195,0 -0.24253,0.098 -0.0441,0.1779 0.44098,0.1779 0.48507,0 0.6835,-0.08 0.44097,-0.1779 z m -2.20486,-0.4719 c 0,-0.1941 -0.15875,-0.3528 -0.35278,-0.3528 -0.19403,0 -0.35278,0.1587 -0.35278,0.3528 0,0.194 0.15875,0.3528 0.35278,0.3528 0.19403,0 0.35278,-0.1588 0.35278,-0.3528 z m 19.78719,-0.9201 c 0.22414,-0.2701 0.62622,-0.491 0.8935,-0.491 0.26729,0 0.48597,-0.1588 0.48597,-0.3528 0,-0.4884 -0.41775,-0.4423 -1.67527,0.185 -1.2543,0.6258 -1.82658,1.5983 -0.77933,1.3244 0.36718,-0.096 0.85099,-0.3955 1.07513,-0.6656 z m 25.27282,-27.5153 c -0.11723,-0.1172 -0.4215,-0.1297 -0.67616,-0.028 -0.28142,0.1126 -0.19783,0.1962 0.21313,0.2131 0.37189,0.015 0.58025,-0.068 0.46303,-0.1853 z m -32.18362,72.2503 c -0.97014,-0.5363 -2.74886,-1.6708 -3.95271,-2.5212 -1.20385,-0.8503 -3.25969,-1.8931 -4.56853,-2.3172 -2.68373,-0.8695 -3.32109,-1.5821 -1.41519,-1.5821 1.69756,0 3.93455,1.0234 7.1855,3.2872 3.25132,2.264 4.74622,3.0628 5.73202,3.0628 0.40754,0 0.72307,0.2309 0.72307,0.5292 0,0.8425 -1.74007,0.627 -3.70416,-0.4587 z m -57.98345,-0.1587 c -1.87742,-1.0112 -4.28147,-3.3566 -5.68914,-5.5503 -1.17578,-1.8323 -3.88435,-8.1683 -3.88435,-9.0864 0,-0.9463 1.32306,0.5093 1.79917,1.9794 0.90076,2.7813 3.4024,7.3198 5.0037,9.0776 0.92818,1.019 2.39662,2.1958 3.2632,2.6154 0.86657,0.4195 1.57559,0.9866 1.57559,1.2604 0,0.6793 -0.35057,0.6291 -2.06817,-0.2961 z m 9.2104,-0.3527 c 0.08,-0.2426 1.34017,-1.076 2.80038,-1.8521 1.4602,-0.7761 3.27328,-1.8227 4.02907,-2.3257 0.75578,-0.5031 2.60447,-1.589 4.10818,-2.4132 1.50372,-0.8242 2.73403,-1.6886 2.73403,-1.921 0,-0.5177 -4.04111,-5.5834 -5.79398,-7.2629 -1.2669,-1.214 -1.28449,-1.2187 -2.41541,-0.6539 -0.62657,0.313 -2.25047,1.0133 -3.60867,1.5564 -1.35819,0.543 -2.78257,1.1944 -3.1653,1.4475 -0.92648,0.6128 -1.59719,0.5823 -1.59719,-0.073 0,-0.3022 0.87831,-0.9493 2.02847,-1.4945 1.11566,-0.5287 2.07951,-0.9882 2.1419,-1.0209 0.27583,-0.1447 -1.56929,-2.5878 -1.95738,-2.5917 -0.23806,0 -0.69288,0.3925 -1.01071,0.8776 -0.31783,0.485 -0.71837,0.8819 -0.89008,0.8819 -0.61489,0 -0.28163,-1.2609 0.72633,-2.7481 0.88435,-1.3048 1.78369,-4.0701 1.78369,-5.4846 0,-0.5544 -2.65234,-3.0965 -5.74137,-5.5026 -3.30363,-2.5732 -5.06022,-5.2042 -4.62702,-6.9302 0.29362,-1.1699 0.84339,-1.0771 0.84339,0.1423 0,1.5548 2.097,4.1355 5.33844,6.57 1.62351,1.2194 3.70807,3.0563 4.63235,4.0822 0.92428,1.0258 1.75528,1.7903 1.84667,1.6989 0.0914,-0.091 -0.0494,-1.2976 -0.31294,-2.6805 -0.55348,-2.9047 -0.23077,-5.5634 0.89812,-7.3993 l 0.70233,-1.1422 -0.83528,-0.3806 c -0.56137,-0.2558 -1.10865,-1.0959 -1.66895,-2.562 -0.45852,-1.1997 -1.13271,-2.7173 -1.49821,-3.3723 -0.72821,-1.3051 -0.58407,-1.8126 0.35119,-1.2364 0.60073,0.3701 1.40755,1.7722 2.25955,3.9267 0.49194,1.2439 0.89306,1.4483 1.21193,0.6173 0.11168,-0.291 0.50358,-0.5291 0.87087,-0.5291 1.08608,0 0.7696,-0.5787 -0.83149,-1.5203 -3.04797,-1.7926 -3.99799,-3.9713 -2.93985,-6.742 0.92655,-2.4262 1.58072,-2.8375 3.70284,-2.3285 3.06303,0.7348 4.53479,-0.1613 7.72276,-4.7025 1.50478,-2.1436 2.43312,-4.3337 2.01363,-4.7505 -0.38519,-0.3828 -4.14215,-0.209 -5.55385,0.2569 -0.86389,0.2851 -1.32188,0.6691 -1.39585,1.1703 -0.12604,0.8541 -0.99204,1.3042 -0.99204,0.5156 0,-0.7441 -0.83504,-0.9641 -2.18465,-0.5753 -0.64171,0.1848 -2.99236,0.4347 -5.22368,0.5553 -3.50939,0.1896 -4.17598,0.3249 -4.93889,1.0023 -0.96033,0.8527 -4.08914,2.7555 -6.87917,4.1835 -3.32737,1.703 -5.21056,4.1381 -5.97948,7.7317 -0.24567,1.1482 -0.74013,1.2656 -1.00846,0.2395 -0.26912,-1.0291 0.62627,-3.8163 1.68856,-5.2561 1.03585,-1.4041 4.00129,-3.5306 7.39392,-5.3022 1.30047,-0.6791 2.91233,-1.6855 3.58192,-2.2366 1.15131,-0.9475 2.48221,-2.9515 2.16849,-3.2652 -0.0795,-0.079 -1.74898,0.6556 -3.70991,1.6335 -3.25844,1.625 -4.47065,2.5861 -5.59781,4.4384 -0.70344,1.156 -1.23835,0.1469 -0.60986,-1.1506 0.81195,-1.6761 1.71834,-2.3689 5.95319,-4.5506 2.1343,-1.0996 4.1388,-2.2274 4.45445,-2.5063 0.31564,-0.2789 0.83751,-1.3337 1.15971,-2.3439 1.54551,-4.8457 4.11405,-7.7998 7.1718,-8.2484 0.72883,-0.1069 3.7064,-1.3576 6.61681,-2.7792 5.19847,-2.5393 10.07594,-4.5896 15.06496,-6.3327 2.70348,-0.9445 3.80865,-1.0955 3.80865,-0.5203 0,0.4248 -0.0901,0.4642 -6.70277,2.9265 -5.5841,2.0793 -14.81667,6.1801 -14.81667,6.5811 0,0.138 0.61215,0.4344 1.36033,0.6585 0.74818,0.2242 1.95486,0.8111 2.68151,1.3042 0.83495,0.5666 1.47035,0.7819 1.72648,0.585 0.22291,-0.1714 1.19904,-0.5158 2.16918,-0.7652 2.12084,-0.5454 6.12219,-2.6521 9.31026,-4.9019 1.28227,-0.9049 2.77544,-1.841 3.31814,-2.0802 1.24022,-0.5467 3.15474,-0.5621 3.68713,-0.03 0.53552,0.5355 -0.30195,2.1943 -1.50621,2.9834 -1.1764,0.7708 -1.11044,1.3053 0.12752,1.0334 0.70002,-0.1537 1.14515,-0.048 1.47656,0.3516 1.12654,1.3574 -2.08759,4.0292 -4.85993,4.04 -1.72745,0.01 -1.82268,0.2807 -0.7969,2.2927 1.04161,2.043 1.27304,3.6513 0.56454,3.9231 -0.64572,0.2478 -2.53555,-0.4101 -3.47397,-1.2095 -0.71726,-0.6109 -0.70063,-0.6236 -1.31242,0.9967 -0.41799,1.107 -6.89195,14.3463 -8.97039,18.3445 -1.08822,2.0933 -1.42487,3.5277 -0.82794,3.5277 0.24969,0 1.00678,-0.3671 1.68241,-0.8158 2.68847,-1.7856 6.98861,-3.0592 6.62271,-1.9615 -0.0729,0.2187 -0.99185,0.7182 -2.04209,1.11 -2.14162,0.7989 -5.066,2.3273 -7.33863,3.8356 -0.83435,0.5537 -1.63285,1.0067 -1.77446,1.0067 -0.14161,0 -0.78632,0.5607 -1.4327,1.246 -0.64637,0.6853 -1.63112,1.4817 -2.18832,1.7699 -2.31547,1.1973 -3.0793,4.8376 -2.04843,9.7624 0.52193,2.4935 0.91046,3.4983 1.67019,4.3196 1.35307,1.4626 2.17543,2.8508 2.17543,3.6722 0,0.3777 0.43901,1.058 0.97559,1.5118 2.91532,2.4656 8.62254,10.6524 9.42868,13.5251 0.75467,2.6892 0.77166,3.1363 0.12427,3.2698 -0.44887,0.093 -0.6761,-0.3092 -0.98224,-1.7367 -0.42245,-1.9698 -1.72563,-4.8845 -2.1839,-4.8845 -0.56306,0 -2.37238,0.9445 -6.65684,3.4752 -5.87405,3.4696 -8.37931,4.5595 -8.02722,3.4922 z m 4.15106,-18.3772 c -0.55523,-0.5332 -0.8418,-0.629 -0.95704,-0.3201 -0.0905,0.2426 -0.38939,0.441 -0.66426,0.441 -0.59073,0 -0.67043,-1.7026 -0.16258,-3.4734 0.27902,-0.9729 0.21994,-1.3015 -0.34254,-1.9053 -0.52424,-0.5627 -0.71241,-0.616 -0.82258,-0.2331 -0.0786,0.2731 -0.37135,1.2903 -0.65062,2.2604 l -0.50775,1.7639 1.41269,1.6502 c 1.40412,1.6402 1.41898,1.647 2.44996,1.1139 l 1.03728,-0.5364 z m 5.26181,-22.4203 c 1.02315,-0.8484 1.21969,-1.2502 1.27702,-2.6108 0.0477,-1.1322 0.49894,-2.3937 1.52476,-4.2628 0.80136,-1.4601 1.45701,-2.7922 1.45701,-2.9601 0,-0.168 -0.51594,-0.5523 -1.14653,-0.8539 -1.13669,-0.5438 -1.15909,-0.537 -2.61139,0.7934 -0.80568,0.7381 -2.12087,1.5385 -2.92265,1.7788 -1.25654,0.3764 -1.63578,0.3518 -2.74719,-0.1782 -1.27333,-0.6072 -1.29719,-0.6046 -1.91478,0.2051 -0.82162,1.0773 -1.12639,2.5301 -0.84519,4.029 0.17363,0.9255 0.57943,1.4339 1.70978,2.1418 0.81517,0.5105 1.56149,1.0236 1.65851,1.1401 0.18404,0.221 2.86745,1.7014 3.175,1.7516 0.097,0.016 0.72055,-0.4225 1.38565,-0.974 z m 8.29181,-17.6755 c 1.636,-3.3955 3.07645,-6.5883 3.20101,-7.0953 0.21039,-0.8562 0.11189,-0.9505 -1.38711,-1.328 -1.80885,-0.4554 -2.07888,-0.9305 -0.68087,-1.1977 0.84602,-0.1617 2.25119,0.2757 3.65339,1.1373 1.1254,0.6915 2.94512,1.4229 3.1157,1.2523 0.0984,-0.098 -0.15729,-0.9326 -0.56824,-1.8536 -1.54618,-3.4655 -1.40424,-3.8749 1.42308,-4.1047 1.88017,-0.1528 4.14335,-1.083 4.14335,-1.703 0,-0.1522 -0.79375,-0.2767 -1.76389,-0.2767 -2.26597,0 -2.28459,-0.4982 -0.097,-2.5947 3.23018,-3.0955 0.77061,-2.4918 -4.89268,1.2009 -4.23121,2.759 -6.79645,4.0024 -9.03325,4.3786 -0.82462,0.1387 -1.49931,0.3344 -1.49931,0.4348 0,0.1005 0.38508,0.6403 0.85572,1.1997 1.63462,1.9426 2.50688,6.7815 1.49018,8.2668 -0.26198,0.3827 -0.57051,1.2974 -0.68562,2.0326 -0.11512,0.7352 -0.84182,2.284 -1.61489,3.4417 l -1.40558,2.1048 0.94468,0.5176 c 0.51957,0.2847 1.14315,0.4822 1.38573,0.4389 0.24257,-0.043 1.77959,-2.8568 3.41558,-6.2523 z m -3.07432,-5.1986 c -0.0811,-0.5362 -0.1496,-0.1812 -0.15225,0.7889 -0.003,0.9701 0.0637,1.4089 0.14744,0.975 0.0837,-0.4339 0.0859,-1.2276 0.005,-1.7639 z m -2.01703,-5.1468 c 0,-0.063 -0.43657,-0.4998 -0.97014,-0.9702 l -0.97014,-0.8552 0.85524,0.9701 c 0.79936,0.9068 1.08504,1.132 1.08504,0.8553 z m -33.41413,46.8287 c -0.15188,-0.372 -0.27615,-2.8988 -0.27615,-5.6152 0,-4.155 0.084,-4.9389 0.52917,-4.9389 0.4144,0 0.54186,0.5356 0.58768,2.4694 0.0322,1.3582 0.0965,3.7069 0.14288,5.2194 0.0862,2.8111 -0.4125,4.264 -0.98358,2.8653 z m 1.31391,-13.9505 c 0.003,-1.1917 1.69998,-6.5684 2.7099,-8.5837 1.10888,-2.2128 3.12411,-5.1236 3.54935,-5.1265 0.7414,-0.01 0.49848,0.8002 -0.78645,2.6075 -1.21276,1.7057 -3.23449,6.5793 -4.07291,9.8181 -0.23763,0.9179 -0.6504,1.8502 -0.91725,2.0717 -0.39549,0.3282 -0.48473,0.1827 -0.48264,-0.7871 z m 71.8402,-11.8645 c -0.63923,-1.0343 -1.39033,-5.3591 -1.42394,-8.1988 -0.0346,-2.9247 0.0657,-3.5296 0.78749,-4.7511 3.14995,-5.3303 -0.17292,-11.8054 -7.09027,-13.8165 -2.53014,-0.7356 -4.59771,-1.9264 -4.12422,-2.3754 0.0862,-0.082 1.50616,0.3017 3.1554,0.8522 2.9319,0.9786 4.58611,1.2713 4.58611,0.8113 0,-0.1261 -0.38739,-1.0389 -0.86087,-2.0284 -0.85506,-1.7869 -1.02157,-2.4915 -0.94364,-3.9929 0.0678,-1.3066 0.99267,-0.5527 1.24308,1.0133 0.12504,0.7819 0.55218,2.0584 0.94919,2.8366 0.71886,1.4091 0.72851,1.414 2.32158,1.1751 1.94935,-0.2924 3.72437,-1.2388 5.53479,-2.9512 1.97057,-1.8639 2.67497,-3.6145 2.68423,-6.6709 0.008,-2.6365 0.35405,-3.1608 1.28055,-1.9403 0.28621,0.377 0.47302,0.4457 0.47987,0.1764 0.0105,-0.4116 1.42233,-0.6632 1.42233,-0.2535 0,0.1031 -0.33693,1.1747 -0.74874,2.3813 -0.7007,2.053 -0.72969,2.5671 -0.45189,8.0145 0.57386,11.2528 0.15608,13.8202 -2.49686,15.3442 -1.81779,1.0442 -3.47843,1.3856 -4.38367,0.9011 -0.59247,-0.3171 -0.80046,-0.2459 -1.22033,0.4175 -1.04259,1.6473 -1.30678,4.2773 -0.74375,7.4036 0.90897,5.0473 0.99578,5.9197 0.58901,5.9197 -0.20895,0 -0.4544,-0.1205 -0.54545,-0.2678 z m 7.76518,-25.2401 c -0.22449,-4.9351 -0.37461,-5.7433 -0.90681,-4.8822 -0.59918,0.9695 0.1241,10.4452 0.76696,10.0479 0.24046,-0.1486 0.28807,-1.9074 0.13985,-5.1657 z m -10.28711,-1.3032 c 0.11991,-0.194 0.0499,-0.3528 -0.15557,-0.3528 -0.20548,0 -0.3736,0.1588 -0.3736,0.3528 0,0.1941 0.07,0.3528 0.15557,0.3528 0.0856,0 0.25368,-0.1587 0.3736,-0.3528 z m -15.15474,-5.9017 c -1.3081,-0.3323 -4.07165,-2.3544 -4.07165,-2.9792 0,-0.1602 0.3175,-0.2913 0.70556,-0.2913 0.38805,0 0.70555,0.1295 0.70555,0.2878 0,0.1583 0.67469,0.6725 1.49931,1.1426 1.17095,0.6675 2.00148,0.8526 3.79236,0.8449 3.02146,-0.013 5.06281,-1.0765 8.83344,-4.6028 2.10805,-1.9714 2.97795,-2.5828 3.26565,-2.2951 0.74087,0.7409 -5.12984,6.0125 -8.29625,7.4496 -1.45183,0.659 -4.7033,0.8831 -6.43397,0.4435 z"
       id="path101" /></g></svg>
