<?xml version="1.0" encoding="UTF-8" standalone="no"?>
<!-- Created with Inkscape (http://www.inkscape.org/) -->

<svg
   width="132.87753mm"
   height="73.322174mm"
   viewBox="0 0 132.87755 73.322175"
   version="1.1"
   id="svg1"
   xml:space="preserve"
   xmlns="http://www.w3.org/2000/svg"
   xmlns:svg="http://www.w3.org/2000/svg"><defs
     id="defs1" /><g
     id="layer1"
     transform="translate(198.20098,-1017.3004)"><path
       style="fill:#000000"
       d="m -188.06712,1090.351 c -0.86526,-0.3558 -2.27555,-1.3015 -2.90063,-1.9452 -0.0797,-0.082 -1.71847,-1.5042 -2.23245,-1.9373 -0.76403,-0.6439 -2.1742,-2.1231 -2.52972,-2.6536 -0.19385,-0.2892 -0.38217,-0.5523 -0.41851,-0.5846 -0.15355,-0.1367 -1.05173,-2.0552 -1.05173,-2.2465 0,-0.115 -0.0529,-0.2418 -0.11759,-0.2818 -0.0647,-0.04 -0.1176,-0.1791 -0.1176,-0.3091 0,-0.1301 -0.17062,-0.4841 -0.37916,-0.7868 -0.51518,-0.7478 -0.51528,-1.285 -3.4e-4,-1.8163 0.20873,-0.2154 0.38119,-0.4684 0.38324,-0.5624 0.005,-0.2243 0.24024,-0.5194 0.48854,-0.6125 0.12744,-0.048 0.21148,-0.2339 0.23519,-0.521 0.0291,-0.353 0.1047,-0.479 0.36027,-0.6009 0.25149,-0.12 0.32421,-0.2378 0.32712,-0.53 0.005,-0.4659 0.23649,-0.7874 0.56778,-0.7874 0.21619,0 0.25162,-0.068 0.25162,-0.4821 0,-0.3949 0.075,-0.5572 0.41475,-0.8969 0.37938,-0.3794 0.45961,-0.4097 0.94074,-0.3554 0.48494,0.055 0.526,0.039 0.526,-0.2059 0,-0.1458 0.0818,-0.333 0.18175,-0.416 0.25705,-0.2133 0.99475,-0.1582 1.34488,0.1005 0.33498,0.2475 0.69352,0.8968 0.70198,1.2713 0.003,0.1376 0.0861,0.3169 0.18442,0.3985 0.0983,0.082 0.46979,0.6834 0.82548,1.3374 0.75323,1.3847 1.17985,2.1304 1.45392,2.5412 0.10787,0.1617 0.26233,0.4263 0.34323,0.588 0.0809,0.1617 0.509,0.7967 0.95133,1.4111 0.90605,1.2586 0.69676,1.1807 2.53847,0.944 2.11604,-0.2719 3.29345,-0.4774 5.43866,-0.9493 0.30721,-0.067 0.71731,-0.1505 0.91134,-0.1844 0.19403,-0.034 0.45861,-0.1068 0.58796,-0.1622 0.24749,-0.106 0.68534,-0.2106 1.32401,-0.3162 0.21079,-0.035 0.41235,-0.1105 0.44791,-0.168 0.0356,-0.058 0.19132,-0.1046 0.34615,-0.1046 0.15483,0 0.40307,-0.047 0.55163,-0.1048 0.14856,-0.058 0.66699,-0.2242 1.15206,-0.3701 2.17255,-0.6534 4.71902,-1.5271 7.52593,-2.5821 1.42824,-0.5368 1.36826,-0.5114 2.52824,-1.0686 0.58208,-0.2796 1.27953,-0.6564 1.54989,-0.8373 0.27035,-0.1808 0.52677,-0.3288 0.56982,-0.3288 0.043,0 0.96997,-0.6086 2.05982,-1.3523 1.08986,-0.7438 2.03729,-1.3523 2.10541,-1.3523 0.0681,0 0.12385,-0.047 0.12385,-0.1039 0,-0.057 0.0926,-0.1333 0.20579,-0.1692 0.21811,-0.069 0.87112,-0.4452 0.97014,-0.5587 0.0323,-0.037 0.13817,-0.103 0.23518,-0.1466 0.097,-0.043 0.54681,-0.2914 0.99954,-0.5508 0.72102,-0.4132 4.77075,-2.4306 5.40926,-2.6947 0.23338,-0.096 1.16874,-0.515 1.67476,-0.7493 0.25343,-0.1173 0.24182,-0.1368 -0.29958,-0.5014 -0.30978,-0.2086 -0.71043,-0.5723 -0.89035,-0.8081 -0.40686,-0.5335 -1.12643,-1.9393 -1.12939,-2.2065 -0.001,-0.1093 -0.0493,-0.2279 -0.1068,-0.2635 -0.0575,-0.035 -0.13814,-0.2635 -0.17913,-0.5067 -0.50919,-3.0201 -0.28794,-4.3626 1.05155,-6.3805 0.70785,-1.0663 2.05782,-2.4423 3.11274,-3.1727 0.22636,-0.1567 0.43803,-0.3174 0.47037,-0.3571 0.2432,-0.2988 4.79338,-3.0361 6.64398,-3.9969 3.01549,-1.5657 3.81246,-2.015 4.86945,-2.7452 1.17035,-0.8085 4.00879,-3.6484 4.00879,-4.0109 0,-0.049 -0.0916,-0.053 -0.20345,-0.011 -0.11189,0.043 -0.60137,0.1256 -1.08773,0.1837 -1.16957,0.1397 -2.06021,-0.066 -2.06021,-0.476 0,-0.2565 0.0479,-0.2736 0.8291,-0.2965 1.25561,-0.037 2.14869,-0.5686 2.96802,-1.767 0.19888,-0.2908 1.41319,-2.5793 2.06909,-3.8992 0.0721,-0.1451 0.1707,-0.2641 0.21921,-0.2646 0.0485,-5e-4 0.0882,-0.054 0.0882,-0.118 0,-0.2109 1.45301,-2.0401 2.24917,-2.8314 0.4286,-0.426 1.02381,-0.9291 1.32269,-1.1179 0.29889,-0.1889 0.5262,-0.3963 0.50514,-0.461 -0.0211,-0.065 -0.29877,-0.144 -0.61714,-0.1764 -0.46883,-0.048 -0.58535,-0.1042 -0.6131,-0.298 -0.0295,-0.206 0.0685,-0.2605 0.70556,-0.3922 1.55024,-0.3206 2.89394,-1.1853 4.78858,-3.0815 0.70718,-0.7078 2.24243,-2.6018 2.24243,-2.7665 0,-0.038 0.0997,-0.2099 0.22164,-0.3816 0.12191,-0.1716 0.36874,-0.5767 0.54853,-0.9001 0.17978,-0.3233 0.42679,-0.7665 0.54889,-0.9847 0.1221,-0.2182 0.2986,-0.4733 0.39222,-0.5669 0.0936,-0.094 0.17021,-0.2136 0.17021,-0.2667 0,-0.053 0.28664,-0.383 0.63698,-0.7334 1.59555,-1.5955 4.08499,-2.0984 6.8319,-1.3801 1.14756,0.3 1.51943,0.4522 2.6302,1.0761 1.33898,0.752 2.5907,1.9271 3.24861,3.0496 0.22585,0.3854 0.41064,0.7515 0.41064,0.8136 0,0.062 0.0478,0.2047 0.10613,0.3171 0.0584,0.1123 0.17034,0.4423 0.24882,0.7333 0.0785,0.2911 0.19237,0.6662 0.25307,0.8336 0.11813,0.3258 0.0646,3.3034 -0.0717,3.9877 -0.17753,0.8914 -0.72401,1.9288 -1.28128,2.4323 -0.40363,0.3646 -1.99549,1.2131 -2.27603,1.2131 -0.17029,0 -0.62437,1.4418 -0.62437,1.9825 0,0.5574 -0.89223,0.8174 -1.48102,0.4317 l -0.31788,-0.2083 -0.37436,0.4459 c -0.278,0.3311 -0.42954,0.4247 -0.58874,0.3636 -0.1421,-0.055 -0.30591,0 -0.48588,0.1728 -0.22578,0.2121 -0.35952,0.243 -0.79398,0.1835 -0.43762,-0.06 -0.59451,-0.023 -0.96611,0.2294 -0.9788,0.6643 -1.44952,0.4806 -2.29962,-0.897 -0.2792,-0.4525 -0.54837,-0.8226 -0.59817,-0.8226 -0.0498,0 -0.0905,0.1826 -0.0905,0.4058 0,0.6775 -0.52225,2.4356 -0.94946,3.1963 -0.19033,0.3388 -0.22778,0.6512 -0.23473,1.9577 -0.005,0.855 -0.0513,1.6603 -0.10398,1.7897 -0.0851,0.2092 0.22892,1.025 0.47529,1.2347 0.13766,0.1172 0.80586,1.5963 0.87655,1.9403 l 0.0725,0.3528 -0.23917,-0.294 c -0.13154,-0.1617 -0.30627,-0.4263 -0.38829,-0.588 -0.28831,-0.5683 -1.04741,-1.6463 -1.15938,-1.6463 -0.1507,0 -0.14458,-0.8156 0.009,-1.2574 0.0675,-0.1935 0.10714,-0.7921 0.0882,-1.3303 -0.0334,-0.9494 -0.0396,-0.9682 -0.2089,-0.6358 -0.0959,0.1884 -0.35029,0.6136 -0.56523,0.9448 l -0.39079,0.6024 0.1881,0.8675 c 0.10346,0.4772 0.23322,1.0793 0.28837,1.338 0.0551,0.2587 0.0687,0.6556 0.0301,0.8819 l -0.0702,0.4116 -0.0852,-0.4704 c -0.0469,-0.2587 -0.17238,-0.7878 -0.27891,-1.1759 -0.10654,-0.388 -0.23167,-0.8642 -0.27806,-1.0581 l -0.0844,-0.3526 -0.2892,0.3475 c -0.63676,0.765 -1.84741,1.9307 -2.34707,2.2598 -0.7481,0.4927 -1.23969,0.6672 -1.90686,0.6767 l -0.58005,0.01 0.0806,0.3528 c 0.21843,0.9556 0.32464,1.5136 0.63801,3.3514 0.15765,0.9245 0.3081,1.7414 0.46569,2.5282 0.0648,0.3234 0.15222,0.76 0.19434,0.9702 0.0421,0.2101 0.14497,0.3821 0.22853,0.3821 0.29394,0 1.14961,0.5331 1.41558,0.882 0.14793,0.194 0.30638,0.5115 0.3521,0.7055 l 0.0831,0.3528 -0.45616,-0.4176 c -1.05359,-0.9645 -2.13603,-1.1289 -6.1006,-0.9268 -3.28193,0.1674 -4.58,0.3279 -7.47551,0.9247 -1.64955,0.3399 -6.30103,1.7092 -7.28236,2.1437 -0.16169,0.072 -0.39981,0.1689 -0.52917,0.2163 -0.35087,0.1285 -0.91369,0.3664 -1.14493,0.4841 -0.3916,0.1992 -0.67775,0.1244 -0.67775,-0.1772 0,-0.2482 0.14766,-0.3389 1.26412,-0.7759 2.09839,-0.8214 2.36605,-0.914 4.38032,-1.5155 2.056,-0.6139 3.8301,-1.0623 4.93889,-1.2483 0.22637,-0.038 0.72908,-0.1222 1.11713,-0.1873 1.32824,-0.2229 2.35297,-0.3393 4.05695,-0.461 0.9378,-0.067 1.83738,-0.1428 1.99907,-0.1685 0.16169,-0.026 1.02471,-0.051 1.91782,-0.056 1.03433,-0.01 1.59784,-0.052 1.55221,-0.1255 -0.0394,-0.064 -0.119,-0.3945 -0.17691,-0.735 -0.97405,-5.7271 -1.25206,-6.903 -2.12036,-8.9681 -0.0544,-0.1294 -0.1661,-0.4469 -0.24825,-0.7056 -0.0822,-0.2587 -0.19149,-0.5206 -0.24296,-0.5821 -0.0515,-0.061 -0.0936,-0.2077 -0.0936,-0.325 0,-0.1172 -0.0464,-0.3051 -0.10316,-0.4174 -0.31826,-0.63 -0.4593,-1.4857 -0.26468,-1.606 0.10976,-0.068 0.48543,0.8099 0.48543,1.1342 0,0.1072 0.0529,0.2276 0.1176,0.2676 0.0647,0.04 0.11759,0.1761 0.11759,0.3025 0,0.1264 0.0488,0.3217 0.10846,0.4341 0.15149,0.2851 0.78198,1.9614 1.01672,2.703 0.17208,0.5436 0.40352,0.8303 0.40352,0.4998 0,-0.065 0.0566,-0.1176 0.12581,-0.1176 0.23016,0 1.21788,-0.7433 1.89025,-1.4226 1.51947,-1.5349 2.49128,-3.4433 2.80858,-5.5154 0.25821,-1.6862 -0.42259,-3.3973 -1.5907,-3.9981 -0.48767,-0.2508 -0.71043,-0.2878 -1.67132,-0.2776 -0.6518,0.01 -1.16342,0.067 -1.24156,0.1446 -0.0731,0.073 -0.20228,0.1329 -0.28706,0.1329 -0.25338,0 -1.22121,0.4821 -1.97427,0.9835 -0.98346,0.6547 -2.08461,1.7302 -2.90607,2.8383 -0.38355,0.5174 -0.8388,1.126 -1.01165,1.3523 -0.51727,0.6774 -1.54299,1.7287 -1.97105,2.0201 -0.22045,0.1502 -0.40119,0.3344 -0.40163,0.4094 -0.002,0.3331 -2.4584,2.9681 -3.94016,4.2267 -1.26748,1.0766 -1.91812,1.4985 -3.88056,2.5163 -0.58208,0.3018 -1.30968,0.6899 -1.61689,0.8623 -0.30721,0.1723 -0.78346,0.4374 -1.05834,0.5889 -1.51632,0.8361 -4.84587,2.9091 -5.02708,3.1298 -0.0323,0.039 -0.42621,0.3312 -0.87527,0.6484 -2.22757,1.5734 -3.73078,3.2416 -4.24134,4.7069 -0.19056,0.5469 -0.41024,1.8064 -0.41022,2.3518 5e-5,1.3594 0.59698,3.4078 1.23799,4.2482 0.93641,1.2277 2.03637,1.7747 4.35912,2.1679 1.3606,0.2304 4.10093,0.012 6.83211,-0.5435 0.58321,-0.1188 2.81203,-2.3582 3.91347,-3.9323 0.47281,-0.6756 0.82581,-0.8416 0.82581,-0.3883 0,0.4936 -2.9897,3.8176 -4.58611,5.0989 -0.35572,0.2855 -0.67322,0.5504 -0.70556,0.5887 -0.1862,0.2203 -2.78941,1.9198 -3.57205,2.332 -1.56219,0.8228 -1.96941,1.1666 -2.1965,1.8547 -0.28087,0.851 -8.3e-4,1.3317 1.18751,2.0381 0.27199,0.1617 1.12515,0.9148 1.89591,1.6735 0.77076,0.7587 1.57668,1.5131 1.79093,1.6765 0.21424,0.1634 0.56392,0.6407 0.77705,1.0606 0.38094,0.7505 0.70511,0.9927 0.70511,0.5267 0,-0.1302 -0.0613,-0.3349 -0.13615,-0.4548 -0.13624,-0.2181 -0.07,-0.6038 0.10306,-0.5998 0.0505,0 0.2728,0.2786 0.49392,0.6166 0.22111,0.338 0.4237,0.5494 0.4502,0.47 0.0265,-0.079 -0.0618,-0.299 -0.19624,-0.4878 -0.27713,-0.3892 -0.30357,-0.5505 -0.10987,-0.6702 0.0791,-0.049 0.36491,0.1661 0.69405,0.5222 0.81,0.8764 1.15976,0.772 0.46939,-0.1401 -0.31961,-0.4223 -0.36479,-0.7832 -0.098,-0.7832 0.064,0 0.35618,0.2667 0.64919,0.5926 0.29301,0.3259 0.55187,0.5734 0.57524,0.55 0.0234,-0.023 -0.0733,-0.3165 -0.2148,-0.6515 -0.19017,-0.4501 -0.22287,-0.6434 -0.12535,-0.7409 0.0975,-0.097 0.25225,-0.01 0.59314,0.3529 0.35021,0.3682 0.55051,0.4849 0.8322,0.4849 0.36172,0 0.37099,-0.013 0.37099,-0.5333 0,-0.6541 -0.2237,-1.014 -0.92923,-1.4948 -0.7491,-0.5106 -1.30736,-1.0909 -2.12818,-2.2122 -0.47711,-0.6517 -1.48976,-1.6304 -1.81501,-1.754 -0.16591,-0.063 -0.30165,-0.1924 -0.30165,-0.2874 0,-0.2271 0.454,-0.5387 0.78498,-0.5387 0.14425,0 0.38383,-0.047 0.5324,-0.1053 0.14856,-0.058 0.50824,-0.169 0.79928,-0.2467 0.29104,-0.078 0.62105,-0.1891 0.73336,-0.2474 0.11231,-0.058 0.285,-0.1062 0.38377,-0.1062 0.0988,0 0.27147,-0.049 0.38377,-0.1082 0.11231,-0.06 0.52169,-0.2283 0.90975,-0.3751 1.22195,-0.4623 2.65768,-1.2361 4.33156,-2.3346 0.8905,-0.5845 1.64658,-1.0626 1.68018,-1.0626 0.0336,0 0.13624,-0.075 0.22811,-0.167 0.1898,-0.1898 0.10443,-0.271 -2.06531,-1.9644 -1.56193,-1.219 -2.7335,-2.4024 -3.41966,-3.4543 -0.59558,-0.9129 -0.64605,-1.0225 -0.88384,-1.9181 -0.22248,-0.8381 -0.1269,-1.1981 0.3181,-1.1981 0.31422,0 0.34016,-0.033 0.34176,-0.4409 0.003,-0.6899 0.23326,-1.0323 0.68105,-1.0116 0.33481,0.015 0.37555,-0.017 0.37555,-0.3035 0,-0.4691 0.45074,-0.6912 0.85936,-0.4234 0.16512,0.1082 0.38508,0.3262 0.4888,0.4845 0.15267,0.233 0.23111,0.265 0.41201,0.1682 0.12289,-0.066 0.27262,-0.1196 0.33273,-0.1196 0.34307,0 1.14564,1.276 1.55324,2.4695 0.0773,0.2264 0.19884,0.5339 0.27007,0.6835 0.1351,0.2836 1.02377,1.0009 1.12037,0.9043 0.0305,-0.03 -0.18417,-0.3117 -0.47706,-0.6248 -0.67778,-0.7246 -0.77443,-1.0138 -0.47396,-1.4181 0.46525,-0.626 1.25428,-0.4232 2.22751,0.5727 0.68569,0.7016 0.87832,1.2192 0.9944,2.6718 0.11963,1.4971 0.2839,1.8721 1.00233,2.288 0.33169,0.192 0.35068,0.1889 0.70946,-0.1176 0.20275,-0.1732 0.73022,-0.5787 1.17215,-0.9012 0.44192,-0.3224 0.90697,-0.6664 1.03344,-0.7643 0.32056,-0.2483 2.0839,-2.0089 2.2983,-2.2948 0.29303,-0.3907 1.17794,-2.2201 1.1769,-2.4331 -5.4e-4,-0.1093 0.0519,-0.2315 0.11662,-0.2715 0.0647,-0.04 0.11759,-0.1987 0.11759,-0.3528 0,-0.154 0.0613,-0.318 0.13633,-0.3643 0.23177,-0.1433 0.0247,1.3441 -0.29636,2.1282 -0.2754,0.6727 -0.27977,0.721 -0.0938,1.0367 0.33442,0.5678 1.70869,2.2134 2.67769,3.2064 1.53887,1.5768 2.25097,2.3925 3.36837,3.8583 0.58641,0.7692 1.33545,1.7004 1.66453,2.0692 0.32909,0.3689 0.67629,0.8243 0.77156,1.0121 0.33686,0.6639 1.10956,1.7571 1.49266,2.1118 0.21345,0.1977 0.82553,0.5875 1.36018,0.8664 0.53465,0.2789 1.21938,0.6876 1.52162,0.9082 0.30225,0.2206 0.57657,0.3574 0.6096,0.3039 0.10437,-0.1689 -0.0768,-0.331 -0.98274,-0.879 -0.58413,-0.3533 -0.89464,-0.6173 -0.91952,-0.7816 -0.0488,-0.3224 0.2589,-0.3273 0.77537,-0.012 0.21176,0.1291 0.44489,0.2347 0.51807,0.2347 0.0732,0 0.31004,0.135 0.52637,0.3 0.55395,0.4225 1.2188,0.6854 1.36466,0.5395 0.11955,-0.1195 0.0215,-0.1985 -1.73428,-1.3969 -0.4519,-0.3084 -0.83946,-0.6533 -0.86124,-0.7664 -0.0873,-0.4534 0.3474,-0.3164 1.54426,0.4866 1.12497,0.7547 1.84372,1.1057 1.84372,0.9004 0,-0.112 -0.31595,-0.4159 -0.43258,-0.4161 -0.0531,-10e-5 -0.2362,-0.1191 -0.40682,-0.2646 -0.17063,-0.1454 -0.55788,-0.4378 -0.86055,-0.6498 -0.35675,-0.2498 -0.53669,-0.4562 -0.51157,-0.5866 0.0545,-0.2828 0.35349,-0.309 0.62737,-0.055 0.2511,0.233 1.65536,1.2032 1.7415,1.2032 0.029,0 0.0842,-0.082 0.12266,-0.1824 0.15269,-0.3979 -0.7613,-1.0457 -4.15591,-2.9456 -0.35828,-0.2006 -0.83319,-0.4678 -1.05535,-0.5938 -0.34862,-0.1979 -0.47307,-0.4056 -0.90888,-1.5169 -0.27772,-0.7083 -0.55507,-1.3936 -0.61633,-1.5229 -0.6154,-1.2994 -1.74239,-3.5623 -2.0791,-4.1745 -0.73349,-1.3338 -1.59909,-2.8527 -2.13776,-3.7511 -0.85388,-1.4242 -0.96835,-1.6526 -0.96835,-1.9322 0,-0.1468 -0.0478,-0.3172 -0.10619,-0.3786 -0.0584,-0.062 -0.13582,-0.3499 -0.17204,-0.6409 -0.0362,-0.2911 -0.12269,-0.8731 -0.19217,-1.2935 -0.0695,-0.4204 -0.17546,-1.32 -0.2355,-1.9991 -0.0601,-0.6791 -0.11933,-1.3141 -0.13174,-1.4111 -0.0124,-0.097 -0.009,-0.3616 0.006,-0.588 0.029,-0.4111 0.0292,-0.4109 0.2044,0.1764 0.0965,0.3234 0.21691,0.7996 0.26768,1.0583 0.20526,1.0459 0.3435,1.0706 0.76113,0.1359 0.45385,-1.0158 0.53854,-1.2536 0.54243,-1.5231 0.004,-0.3056 0.34219,-0.8174 0.36043,-0.5461 0.0752,1.1188 -0.44104,2.6458 -1.13806,3.3663 -0.16235,0.1678 -0.10111,2.151 0.0937,3.0356 0.13533,0.6143 0.20866,0.7657 1.05974,2.1873 1.4721,2.459 3.275,5.8259 3.90142,7.2858 0.68058,1.5862 0.7812,1.7569 1.03515,1.7569 0.23003,0 0.70762,0.1272 1.32782,0.3537 0.12935,0.047 0.6056,0.2014 1.05833,0.3425 0.45274,0.1412 0.92899,0.3015 1.05834,0.3564 0.12935,0.055 0.42039,0.1632 0.64676,0.241 1.29607,0.445 4.186714,1.9096 5.468053,2.7704 0.646759,0.4345 1.202384,0.8227 1.234722,0.8626 0.03234,0.04 0.244005,0.2117 0.47037,0.3818 0.226366,0.1702 0.543866,0.4259 0.705556,0.5683 0.337263,0.297 0.985983,0.5909 1.304302,0.5909 0.33513,0 1.518186,-0.6867 1.517502,-0.8808 -2.3e-4,-0.065 -0.291084,-0.251 -0.646341,-0.4127 -0.355258,-0.1617 -0.646111,-0.3272 -0.646341,-0.3679 -2.3e-4,-0.041 -0.167622,-0.1432 -0.371983,-0.2278 -0.20436,-0.085 -0.75731,-0.5384 -1.228778,-1.0084 -0.941381,-0.9383 -1.372836,-1.7159 -1.501108,-2.7055 -0.07016,-0.5412 -0.04614,-0.6438 0.226633,-0.968 0.167812,-0.1994 0.515881,-0.4257 0.773486,-0.5029 0.271261,-0.081 0.567914,-0.2801 0.704897,-0.4725 0.130088,-0.1827 0.289367,-0.3322 0.353955,-0.3322 0.06459,0 0.285879,-0.1283 0.491761,-0.2852 0.213278,-0.1626 0.576702,-0.3017 0.8447,-0.3234 l 0.47037,-0.038 0.0588,-0.6429 c 0.05258,-0.575 0.102302,-0.6723 0.47037,-0.9203 0.323829,-0.2182 0.499319,-0.2605 0.823148,-0.1985 0.226366,0.043 0.917997,0.1035 1.536958,0.1338 1.108636,0.054 1.13051,0.05 1.469907,-0.2777 0.745353,-0.7199 0.801359,-0.7434 2.062784,-0.8674 0.671855,-0.066 1.724263,-0.1713 2.338684,-0.234 1.829623,-0.1866 2.998863,0.047 3.98142,0.7968 0.410775,0.3133 0.832825,1.0823 0.837294,1.5256 0.0014,0.1409 0.06971,0.3261 0.151764,0.4116 0.372569,0.3881 1.279874,1.6899 1.448237,2.078 0.102433,0.2361 0.23471,0.5211 0.293949,0.6334 0.139426,0.2644 0.138593,0.7624 -0.0014,0.8489 -0.06002,0.037 -0.14284,-0.052 -0.184046,-0.1988 -0.101286,-0.36 -0.547911,-1.2697 -0.765161,-1.5585 -0.09701,-0.129 -0.395711,-0.4536 -0.663773,-0.7214 -0.292167,-0.2919 -0.51884,-0.6456 -0.565917,-0.883 -0.132557,-0.6684 -0.32839,-1.0877 -0.659935,-1.413 -0.292539,-0.2869 -0.541891,-0.4238 -1.437898,-0.7892 -0.374995,-0.1529 -2.181357,-0.1792 -2.408488,-0.035 -0.118428,0.075 -0.100245,0.2059 0.08561,0.6156 0.129786,0.2861 0.237432,0.626 0.239213,0.7553 0.0018,0.1294 0.0551,0.4219 0.118488,0.6501 0.110727,0.3985 0.133835,0.413 0.588915,0.3696 0.923837,-0.088 2.211686,0.5364 2.038255,0.9883 -0.09003,0.2346 -0.194931,0.21 -0.474397,-0.1114 -0.315965,-0.3634 -1.274218,-0.6038 -1.724454,-0.4326 -0.265632,0.101 -0.310731,0.1724 -0.245249,0.3882 0.10582,0.3488 0.105901,0.3293 -0.003,0.7349 -0.277533,1.0331 -1.001443,1.8355 -2.115714,2.3452 -0.361507,0.1653 -0.708634,0.3006 -0.771393,0.3006 -0.06276,0 -0.114107,0.075 -0.114107,0.1661 0,0.102 0.181116,0.1966 0.470038,0.2454 0.786447,0.1329 0.999869,0.3922 0.999869,1.2149 0,0.8057 -0.185891,1.0866 -1.010655,1.5268 -0.603421,0.3221 -1.089721,0.3265 -1.528831,0.014 l -0.341533,-0.2432 v 1.2245 1.2245 l 0.472888,0.7317 c 0.260088,0.4024 0.612981,0.8717 0.784205,1.0429 0.480064,0.4801 1.071544,0.4458 3.967035,-0.2299 1.283158,-0.2994 2.05074,-0.6026 2.861809,-1.1304 0.698029,-0.4542 1.439063,-1.259 1.439063,-1.563 0,-0.1111 0.150674,-0.4885 0.33483,-0.8386 0.184156,-0.3501 0.366198,-0.7655 0.404539,-0.9233 0.03834,-0.1577 0.133729,-0.5513 0.211975,-0.8747 0.140954,-0.5825 0.143326,-0.5848 0.257243,-0.2489 0.132651,0.3912 -0.04744,1.3638 -0.399685,2.1585 -0.121516,0.2742 -0.220939,0.5827 -0.220939,0.6856 0,0.374 -0.881506,1.5052 -1.565063,2.0084 -1.272832,0.937 -2.587154,1.3943 -5.020122,1.7466 -0.291041,0.042 -0.644411,0.1324 -0.785266,0.2005 -0.140855,0.068 -0.405438,0.086 -0.587963,0.04 -0.698936,-0.1761 -1.248238,-0.2044 -1.519714,-0.078 -0.155131,0.072 -0.427578,0.1958 -0.605436,0.2749 -0.711877,0.3166 -1.680364,1.0595 -2.221518,1.704 -0.314219,0.3742 -0.610994,0.6981 -0.659501,0.7196 -0.04851,0.022 -0.08819,0.1142 -0.08819,0.2058 0,0.092 -0.05292,0.1666 -0.117593,0.1666 -0.06468,0 -0.117592,0.055 -0.117592,0.1225 0,0.067 -0.105834,0.2361 -0.235186,0.375 -0.321673,0.3452 -0.301393,0.6513 0.11899,1.7956 0.35478,0.9657 1.245827,2.4583 1.895336,3.175 0.175854,0.194 0.432064,0.4828 0.569356,0.6417 l 0.249621,0.289 0.279664,-0.3478 c 0.384041,-0.4775 0.611908,-0.2728 0.362009,0.3253 -0.154708,0.3703 -0.155032,0.438 -0.0027,0.5644 0.0952,0.079 0.173094,0.2454 0.173094,0.3698 0,0.1906 -0.06003,0.2155 -0.382176,0.1584 -0.357785,-0.063 -0.407666,-0.028 -0.781577,0.5485 -0.505056,0.7792 -0.607956,1.4752 -0.264101,1.7864 0.237644,0.2151 0.253146,0.2132 0.778998,-0.095 0.592708,-0.3473 1.015351,-0.9076 1.291863,-1.7125 0.09998,-0.291 0.227742,-0.635 0.283913,-0.7644 0.465544,-1.072 0.46429,-1.1171 -0.03107,-1.1171 -0.348967,0 -0.528412,-0.1367 -1.465214,-1.1167 -1.122175,-1.1738 -1.785621,-2.0793 -2.240481,-3.0578 -0.150314,-0.3234 -0.320425,-0.6799 -0.378023,-0.7922 -0.158919,-0.3098 -0.132136,-1.0592 0.03586,-1.0032 0.07732,0.026 0.176187,0.18 0.219709,0.3427 0.150534,0.5629 0.819549,1.8459 1.288593,2.4712 0.259006,0.3453 0.876657,1.0379 1.372559,1.5391 l 0.901641,0.9114 h 0.822934 c 0.452614,0 0.985442,-0.048 1.184061,-0.1078 2.262696,-0.6751 3.745005,-1.3808 5.920114,-2.8187 0.793785,-0.5248 1.490522,-0.9541 1.548302,-0.9541 0.05778,0 0.122695,-0.043 0.144254,-0.096 0.02156,-0.053 0.383156,-0.3255 0.803549,-0.6056 1.95851,-1.3047 3.564129,-2.6071 4.903324,-3.9775 1.310512,-1.341 1.428411,-1.4973 1.365652,-1.8111 -0.05733,-0.2867 -0.0249,-0.3549 0.196172,-0.4127 0.24063,-0.063 0.258145,-0.1183 0.191444,-0.6049 -0.249804,-1.8226 -2.187981,-3.544 -5.304277,-4.7112 -0.388056,-0.1454 -0.797442,-0.313 -0.909747,-0.3725 -0.112305,-0.06 -0.30762,-0.1082 -0.434032,-0.1082 -0.126413,0 -0.263079,-0.054 -0.303703,-0.1195 -0.129455,-0.2095 -0.292796,0 -0.292796,0.3812 0,0.5456 -0.07504,0.3552 -0.161082,-0.4087 -0.07441,-0.6606 -0.06952,-0.6761 0.213318,-0.6761 0.159212,0 0.411028,0.048 0.559592,0.1075 0.148564,0.059 0.719908,0.2801 1.269654,0.491 2.572387,0.9871 4.57882,2.4495 5.222793,3.8066 0.108625,0.2289 0.222194,0.4162 0.252375,0.4162 0.06668,0 0.557649,-0.2708 0.639646,-0.3528 0.216742,-0.2168 1.820864,-1.0215 2.557418,-1.283 1.18413,-0.4204 1.783998,-0.2927 2.037302,0.434 0.142623,0.4091 -0.03516,0.8648 -0.530696,1.3604 -0.364596,0.3646 -2.292388,1.5173 -3.096092,1.8513 -0.496515,0.2064 -0.615154,0.3093 -0.615154,0.534 0,0.153 -0.05292,0.2783 -0.117592,0.2783 -0.06468,0 -0.117593,0.047 -0.117593,0.1041 0,0.1926 -2.576118,4.2893 -2.818413,4.482 -0.04067,0.032 -0.203031,0.2434 -0.360814,0.469 -1.109214,1.586 -3.338747,3.4657 -5.581421,4.7055 -4.27797,2.365 -6.455682,3.1508 -7.895478,2.8488 -0.363964,-0.076 -0.706106,-0.1114 -0.760315,-0.078 -0.05421,0.034 -0.190574,0.2571 -0.303034,0.4969 -0.11246,0.2397 -0.272972,0.5062 -0.356694,0.5921 -0.08372,0.086 -0.205586,0.2559 -0.270808,0.3777 -0.19153,0.3579 -1.123835,0.936 -1.509425,0.936 -0.879816,0 -1.138243,-1.3802 -0.484367,-2.587 0.685515,-1.2652 0.671518,-1.1148 0.155849,-1.6742 -0.530628,-0.5757 -1.452117,-1.8971 -1.452117,-2.0823 0,-0.068 -0.05292,-0.1241 -0.117592,-0.1241 -0.06468,0 -0.117593,-0.053 -0.117593,-0.1188 0,-0.1146 -0.375077,-1.0169 -0.597572,-1.4377 -0.05939,-0.1123 -0.107983,-0.3006 -0.107983,-0.4185 0,-0.1178 -0.06958,-0.3094 -0.154618,-0.4257 -0.146218,-0.2 -0.164653,-0.1964 -0.339387,0.066 -0.101624,0.1524 -0.323024,0.4359 -0.491999,0.63 -0.168975,0.194 -0.307292,0.4174 -0.307371,0.4964 -7.9e-5,0.079 -0.277956,0.2238 -0.617505,0.3217 -2.947761,0.8499 -7.137544,0.9114 -10.847924,0.1593 -1.62419,-0.3293 -1.87511,-0.3886 -2.88102,-0.6815 -0.48507,-0.1412 -1.02811,-0.2849 -1.20676,-0.3193 -0.17865,-0.034 -0.35375,-0.1094 -0.38912,-0.1666 -0.0354,-0.057 -0.16772,-0.104 -0.29413,-0.104 -0.12642,0 -0.32173,-0.047 -0.43404,-0.1039 -0.26899,-0.1368 -0.69694,-0.3096 -1.20372,-0.486 -0.72961,-0.254 -1.11289,-0.4499 -1.30507,-0.6674 -0.10337,-0.1169 -0.66224,-0.5427 -1.24193,-0.9462 -0.5797,-0.4034 -1.46665,-1.087 -1.97101,-1.5191 l -0.91702,-0.7856 -0.37644,0.2028 c -0.38747,0.2086 -0.46293,0.2688 -1.71202,1.3656 -1.80572,1.5854 -3.143,1.999 -6.46347,1.999 -1.77707,0 -2.16331,-0.043 -3.29915,-0.3681 -0.51009,-0.146 -0.72585,-0.2348 -2.47569,-1.019 -0.41696,-0.1869 -0.95165,-0.4035 -1.18821,-0.4814 -0.40128,-0.1321 -0.45112,-0.1206 -0.74389,0.1722 -0.26181,0.2618 -0.38809,0.3038 -0.76228,0.2536 -0.38848,-0.052 -0.4694,-0.021 -0.60488,0.2321 -0.1302,0.2433 -0.21948,0.282 -0.53294,0.2312 -0.2649,-0.043 -0.39616,-0.01 -0.44269,0.1112 -0.0463,0.1207 -0.21425,0.1637 -0.55966,0.1433 -0.30378,-0.018 -0.51168,0.025 -0.54079,0.1127 -0.076,0.2281 -0.51053,0.1634 -0.74884,-0.1113 -0.19537,-0.2253 -0.21958,-0.2299 -0.21958,-0.042 0,0.2913 -0.36673,0.548 -0.55715,0.3899 -0.14699,-0.122 -0.34782,-0.1009 -1.32433,0.1386 -1.17131,0.2873 -2.345,0.3784 -6.05602,0.4701 -4.00073,0.099 -4.8143,0.1849 -6.11481,0.6469 -0.51744,0.1839 -1.7051,0.8077 -1.7051,0.8956 0,0.052 -0.27781,0.2798 -0.61736,0.5072 -0.33955,0.2274 -1.2259,1.0024 -1.96967,1.7222 -0.74378,0.7199 -1.65811,1.5186 -2.03186,1.775 -1.30603,0.896 -3.76904,1.7582 -6.84638,2.3966 -0.87847,0.1822 -1.39202,0.2684 -3.175,0.533 -0.72869,0.1081 -3.50884,0.2767 -7.70232,0.4669 -2.30818,0.1047 -3.23589,0.1976 -4.52731,0.4532 -1.04052,0.206 -1.28894,0.2644 -1.52871,0.3595 -0.12935,0.051 -0.6056,0.2088 -1.05833,0.35 -0.87011,0.2713 -0.95337,0.3032 -1.88148,0.721 -1.74523,0.7856 -2.219,0.8452 -3.27298,0.4119 z m 2.42831,-0.76 c 0.30288,-0.1353 0.78823,-0.3518 1.07857,-0.4811 0.29034,-0.1294 0.60472,-0.2352 0.69862,-0.2352 0.0939,0 0.20343,-0.053 0.2434,-0.1176 0.04,-0.065 0.19873,-0.1176 0.35278,-0.1176 0.15406,0 0.30904,-0.047 0.3444,-0.104 0.0354,-0.057 0.21047,-0.1323 0.38912,-0.1667 0.17865,-0.034 0.53648,-0.124 0.79519,-0.1988 1.89216,-0.5477 4.04913,-0.786 7.99629,-0.8834 3.1803,-0.078 5.41663,-0.2756 7.40833,-0.6531 2.0773,-0.3937 2.58429,-0.5028 3.58658,-0.7721 1.98891,-0.5344 4.07218,-1.3967 4.82107,-1.9957 0.15398,-0.1231 0.81234,-0.732 1.46301,-1.3531 2.10054,-2.0049 2.72106,-2.515 3.54712,-2.9158 1.13931,-0.5528 1.20339,-0.5745 2.80238,-0.9461 0.32325,-0.075 2.45957,-0.1815 4.82239,-0.24 2.40026,-0.059 4.49684,-0.1644 4.82891,-0.2417 1.05037,-0.2446 1.46882,-0.3837 1.46882,-0.4886 0,-0.1954 -0.39916,-0.7108 -1.10967,-1.4327 -0.39216,-0.3985 -0.92917,-0.9616 -1.19336,-1.2513 -0.68984,-0.7565 -1.42502,-1.3551 -2.04126,-1.662 -0.88728,-0.4418 -1.54015,-0.9249 -1.77896,-1.3166 -0.27652,-0.4535 -0.2943,-1.2459 -0.0394,-1.758 0.17543,-0.3524 0.95089,-1.1407 1.12222,-1.1407 0.0882,0 3.47726,-2.0425 4.16892,-2.5125 0.44674,-0.3035 0.44944,-0.3097 0.13619,-0.3097 -0.17578,0 -0.54525,0.052 -0.82105,0.116 -3.61286,0.8354 -5.30192,1.3467 -7.49822,2.2699 -1.06108,0.446 -3.93167,1.8986 -4.11574,2.0826 -0.0323,0.032 -0.18511,0.13 -0.33949,0.2169 -0.15438,0.087 -0.44542,0.2541 -0.64676,0.3715 -2.44513,1.4257 -4.06463,2.3164 -5.48215,3.015 -1.93171,0.952 -3.24727,1.5707 -3.33968,1.5707 -0.0345,0 -0.34962,0.1312 -0.70028,0.2916 -0.78025,0.3569 -3.8105,1.5024 -5.01386,1.8953 -0.48507,0.1583 -0.97383,0.3396 -1.08614,0.4028 -0.1123,0.063 -0.30016,0.1149 -0.41745,0.1149 -0.11729,0 -0.26353,0.043 -0.32497,0.097 -0.0615,0.053 -0.50859,0.2213 -0.99366,0.3739 -0.48507,0.1527 -0.93222,0.3209 -0.99366,0.374 -0.0614,0.053 -0.2303,0.096 -0.37524,0.096 -0.14493,0 -0.29622,0.053 -0.33619,0.1176 -0.04,0.065 -0.19127,0.1176 -0.3362,0.1176 -0.14494,0 -0.3138,0.044 -0.37524,0.099 -0.0614,0.054 -0.66734,0.2712 -1.34643,0.482 -0.6791,0.2108 -1.52577,0.4814 -1.88149,0.6014 -1.10497,0.3728 -5.17395,1.5061 -6.35,1.7686 -0.29104,0.065 -0.74083,0.1688 -0.99953,0.2307 -0.901,0.2156 -2.62369,0.5639 -3.25291,0.6577 -0.36866,0.055 -0.53799,-0.01 -1.17592,-0.4416 -1.43665,-0.9749 -2.51961,-2.2855 -3.43895,-4.1619 -0.31688,-0.6467 -0.62803,-1.3082 -0.69145,-1.4699 -0.11651,-0.2971 -0.23532,-0.6045 -0.42031,-1.0877 -0.1009,-0.2636 -0.20495,-0.611 -0.48417,-1.6169 -0.33587,-1.2099 -0.61573,-1.6959 -1.00397,-1.7433 -0.73918,-0.09 -0.97217,0.7321 -0.52723,1.8609 0.27469,0.6969 0.29999,1.0583 0.0741,1.0583 -0.0908,0 -0.22634,-0.233 -0.3106,-0.5339 -0.15118,-0.54 -0.46612,-0.831 -0.77221,-0.7136 -0.23624,0.091 -0.20947,0.3102 0.12564,1.03 0.16105,0.346 0.29335,0.6952 0.29398,0.7761 0.002,0.2517 -0.40736,0.1608 -0.52953,-0.1176 -0.0718,-0.1635 -0.2396,-0.2788 -0.43946,-0.3018 -0.39554,-0.046 -0.39678,-0.01 -0.0294,0.8965 0.16169,0.398 0.29398,0.7775 0.29398,0.8435 0,0.2074 -0.339,0.1302 -0.46546,-0.1061 -0.20093,-0.3755 -0.47207,-0.591 -0.65507,-0.5208 -0.23782,0.091 -0.21246,0.3956 0.0622,0.7468 0.23991,0.3067 0.30921,0.7635 0.1324,0.8728 -0.0565,0.035 -0.20138,-0.068 -0.32189,-0.2283 -0.26052,-0.3469 -0.75125,-0.3983 -0.75125,-0.079 0,0.1171 0.0926,0.3183 0.20578,0.4469 0.31474,0.3578 0.49977,0.723 0.49977,0.9864 0,0.1311 0.0468,0.3302 0.10388,0.4425 0.0571,0.1123 0.16992,0.363 0.25065,0.557 0.73699,1.7713 1.88175,3.2308 3.81067,4.8582 0.91516,0.7721 1.55753,1.3339 2.11298,1.8478 0.92169,0.8528 2.21849,1.7259 2.99331,2.0154 0.55448,0.2071 1.46816,0.1292 2.17227,-0.1852 z m 102.033093,-4.605 c 1.078689,-0.3528 2.817133,-1.2142 4.238783,-2.1002 3.416693,-2.1294 4.532726,-2.9628 5.483262,-4.0951 0.312018,-0.3716 0.593849,-0.7022 0.62629,-0.7345 0.03244,-0.032 0.133987,-0.2043 0.225658,-0.3822 0.09167,-0.1779 0.210649,-0.3234 0.264396,-0.3234 0.05375,0 0.09772,-0.053 0.09772,-0.119 0,-0.065 0.230674,-0.4755 0.512609,-0.9113 1.121599,-1.7337 1.730811,-2.7627 1.671016,-2.8225 -0.06285,-0.063 -0.60115,0.4679 -1.595662,1.5732 -0.734833,0.8167 -4.177111,3.5731 -4.462181,3.5731 -0.05738,0 -0.12197,0.044 -0.143529,0.098 -0.04261,0.1066 -1.941885,1.3925 -3.453835,2.3384 -1.437027,0.899 -3.328729,1.8602 -4.237199,2.1531 -0.448156,0.1444 -0.920663,0.3073 -1.050015,0.362 -0.129352,0.055 -0.47331,0.1138 -0.764352,0.1315 -0.492457,0.03 -0.531834,0.057 -0.567613,0.385 -0.02115,0.194 -0.08729,0.403 -0.146991,0.4645 -0.0597,0.061 -0.108544,0.2299 -0.108544,0.3744 0,0.1943 0.08405,0.2774 0.323379,0.3193 0.6606,0.1159 2.334459,-0.038 3.086806,-0.2844 z m -102.566013,-2.1085 c 0.18862,0 0.49637,-0.046 0.68388,-0.103 0.18751,-0.057 0.60551,-0.159 0.92889,-0.2276 0.32338,-0.069 0.87901,-0.1892 1.23473,-0.268 0.97287,-0.2155 5.66931,-1.4902 6.62745,-1.7988 0.46182,-0.1488 1.55405,-0.4968 2.42718,-0.7733 0.87312,-0.2766 1.69333,-0.5459 1.82268,-0.5986 0.12935,-0.053 0.44685,-0.1629 0.70556,-0.2451 0.2587,-0.082 0.52064,-0.1915 0.58208,-0.243 0.0614,-0.051 0.2303,-0.094 0.37524,-0.094 0.14493,0 0.29622,-0.053 0.33619,-0.1176 0.04,-0.065 0.17611,-0.1176 0.30252,-0.1176 0.12641,0 0.32173,-0.051 0.43403,-0.1139 0.11231,-0.063 0.44232,-0.1921 0.73336,-0.2876 1.12091,-0.3679 3.28969,-1.1628 4.87035,-1.7851 1.6602,-0.6536 1.84734,-0.7323 3.24354,-1.3631 1.51165,-0.683 4.96586,-2.4818 6.22051,-3.2394 0.47852,-0.2889 1.04737,-0.6259 1.26412,-0.7487 0.69385,-0.3932 1.14537,-0.6528 1.68759,-0.9701 1.92681,-1.1277 4.23333,-2.1251 6.87917,-2.9747 l 1.41111,-0.4531 -0.99954,-0.069 c -1.00368,-0.069 -1.32899,-0.1251 -2.14727,-0.3675 -0.31452,-0.093 -0.51823,-0.095 -0.70556,-0.01 -0.14485,0.069 -0.44858,0.204 -0.67494,0.3008 -2.53368,1.0833 -7.57861,3.5461 -7.87871,3.8462 -0.11631,0.1163 -0.76865,0.4862 -0.97014,0.5501 -0.11318,0.036 -0.20578,0.112 -0.20578,0.1692 0,0.057 -0.0575,0.1038 -0.12785,0.1038 -0.0703,0 -1.08938,0.6552 -2.2646,1.456 -1.17521,0.8007 -2.33477,1.568 -2.57678,1.7051 -0.24202,0.137 -0.63847,0.3636 -0.88101,0.5035 -0.64734,0.3735 -1.41068,0.7319 -2.20486,1.0354 -0.12935,0.049 -0.36747,0.1459 -0.52916,0.2144 -1.33839,0.5669 -5.43933,2.0084 -7.40834,2.6041 -0.48507,0.1467 -0.97383,0.3143 -1.08613,0.3723 -0.11231,0.058 -0.33408,0.1055 -0.49283,0.1055 -0.15875,0 -0.32134,0.053 -0.36131,0.1176 -0.04,0.065 -0.22518,0.1176 -0.41158,0.1176 -0.18639,0 -0.36799,0.047 -0.40354,0.1046 -0.0356,0.057 -0.25035,0.1369 -0.47731,0.1764 -0.22697,0.039 -0.59837,0.1041 -0.82533,0.1436 -0.22697,0.04 -0.44176,0.1188 -0.47731,0.1764 -0.0356,0.057 -0.21778,0.1046 -0.40495,0.1046 -0.18717,0 -0.46186,0.047 -0.61042,0.1043 -0.14857,0.057 -0.56116,0.1658 -0.91688,0.241 -0.35572,0.075 -0.85842,0.1833 -1.11713,0.2405 -0.8332,0.1842 -2.48829,0.4527 -4.40972,0.7154 -0.65419,0.09 -1.0528,0.2031 -1.1537,0.3291 -0.1392,0.1737 -0.18485,0.157 -0.47037,-0.1721 -0.52989,-0.6106 -0.68015,-0.8103 -1.28997,-1.714 -0.8908,-1.3201 -1.75883,-2.7939 -3.38152,-5.7415 -0.089,-0.1616 -0.19124,-0.438 -0.22716,-0.6141 -0.11506,-0.5639 -0.84229,-1.0466 -1.30778,-0.868 -0.15009,0.058 -0.17543,0.1951 -0.127,0.6889 0.0761,0.7755 0.18527,1.3722 0.30656,1.6752 0.0518,0.1293 0.20965,0.6056 0.35081,1.0583 0.30323,0.9726 0.31166,0.9935 0.94045,2.3378 0.26865,0.5743 0.72664,1.4124 1.01775,1.8624 1.05568,1.6319 3.0565,3.3106 3.59971,3.0201 0.10893,-0.058 0.35239,-0.1059 0.54102,-0.1059 z m 89.454439,-2.1275 c 1.69215,-0.2875 2.054338,-0.3968 2.5813,-0.7792 0.542436,-0.3937 1.551037,-1.6479 1.886491,-2.346 0.193576,-0.4028 1.074982,-1.5268 1.645795,-2.0988 0.577071,-0.5782 1.77726,-1.3504 2.098997,-1.3504 0.08268,0 0.243174,-0.068 0.356643,-0.1508 0.191932,-0.1404 0.18033,-0.1834 -0.166528,-0.6174 -0.647567,-0.8103 -0.854685,-1.6577 -0.705332,-2.8858 0.05055,-0.4156 0.07267,-0.7774 0.04916,-0.804 -0.02351,-0.026 -0.267971,0.063 -0.543247,0.1989 -0.275276,0.1359 -0.738627,0.2868 -1.029669,0.3353 -0.657686,0.1096 -0.677047,0.1095 -1.158987,0 -0.308774,-0.073 -0.51345,-0.034 -0.94074,0.1814 -0.300359,0.1513 -0.572565,0.3093 -0.604903,0.3512 -0.03234,0.042 -0.258843,0.1881 -0.503345,0.325 -0.821946,0.46 -1.811759,0.2665 -2.663082,-0.5207 -0.548175,-0.5069 -0.886142,-0.7773 -1.213897,-0.9713 -0.177858,-0.1053 -0.323379,-0.2329 -0.323379,-0.2836 0,-0.051 -0.04918,-0.092 -0.109277,-0.092 -0.0601,0 -0.443749,-0.2224 -0.852547,-0.4944 -0.986508,-0.6561 -3.321542,-1.8427 -4.565032,-2.3196 -0.54974,-0.2109 -1.10537,-0.4277 -1.23472,-0.482 -0.12935,-0.054 -0.44685,-0.1623 -0.70555,-0.2403 -0.25871,-0.078 -0.57621,-0.1812 -0.70556,-0.2295 -0.26337,-0.098 -1.0373,-0.3086 -1.44051,-0.3913 -0.30129,-0.062 -0.33863,0.103 -0.12811,0.565 0.0751,0.1648 0.22058,0.3007 0.32338,0.3022 0.1028,0 0.3192,0.1061 0.48089,0.2325 0.16169,0.1265 0.3348,0.2312 0.3847,0.2326 0.0499,0 0.28802,0.1267 0.52916,0.2784 0.24115,0.1516 0.94116,0.5563 1.55558,0.8992 1.47217,0.8217 2.28802,1.4362 2.51748,1.8962 0.239,0.4791 0.24468,1.1149 0.0108,1.2047 -0.097,0.037 -0.17638,0.2051 -0.17638,0.3731 0,0.4328 -0.2044,0.7603 -0.47451,0.7603 -0.14618,0 -0.23105,0.08 -0.23105,0.2169 0,0.3526 -0.40546,0.6392 -0.7861,0.5556 -0.27001,-0.059 -0.3533,-0.023 -0.44887,0.1947 -0.18468,0.421 -0.78593,0.4208 -1.32547,-5e-4 -0.241,-0.1882 -0.91442,-0.5964 -1.4965,-0.9071 -0.58209,-0.3107 -1.23564,-0.7291 -1.45234,-0.9297 -0.42782,-0.3959 -1.31109,-1.6276 -1.31109,-1.8281 0,-0.068 -0.0529,-0.124 -0.11759,-0.124 -0.0647,0 -0.11759,-0.075 -0.11759,-0.167 0,-0.092 -0.25621,-0.4489 -0.56936,-0.7937 -0.31314,-0.3448 -0.74981,-0.865 -0.97038,-1.156 -0.22056,-0.2911 -0.84022,-1.0917 -1.37702,-1.7792 l -0.97599,-1.2501 -0.67006,-0.072 c -1.1962,-0.1284 -7.35956,-0.2155 -7.83275,-0.1107 l -0.45991,0.1019 1.16546,0.8716 c 0.64101,0.4793 1.69463,1.268 2.34139,1.7526 1.34016,1.0042 2.54461,2.0222 3.8263,3.2341 1.41079,1.334 3.1816,2.7014 3.81722,2.9476 0.12935,0.05 0.6056,0.1386 1.05834,0.1965 3.19084,0.4085 3.97358,0.5176 4.99768,0.6968 1.4338,0.2508 1.82265,0.3291 2.23426,0.4499 0.39791,0.1168 0.70873,0.2061 1.70509,0.49 0.81251,0.2315 1.612315,0.3669 2.645835,0.4477 0.895065,0.07 0.999537,0.1029 0.999537,0.3135 0,0.2214 -0.07243,0.2341 -1.234722,0.2173 -1.35405,-0.02 -2.20011,-0.1257 -2.30073,-0.2886 -0.0358,-0.058 -0.2175,-0.1051 -0.4039,-0.1051 -0.18639,0 -0.3716,-0.053 -0.41157,-0.1176 -0.04,-0.065 -0.22518,-0.1176 -0.41158,-0.1176 -0.18639,0 -0.36799,-0.047 -0.40354,-0.1046 -0.0356,-0.058 -0.26358,-0.1383 -0.50671,-0.1795 -0.24313,-0.041 -0.7331,-0.1265 -1.08882,-0.1895 -0.71678,-0.1269 -1.69544,-0.2706 -3.1162,-0.4577 -0.8756,-0.1152 -1.59738,-0.2172 -3.05741,-0.4318 -0.32338,-0.047 -0.75164,-0.1544 -0.95169,-0.2375 -0.34904,-0.1449 -1.96694,-1.3054 -2.4608,-1.765 -0.13062,-0.1215 -0.47458,-0.4272 -0.76435,-0.6793 -0.28978,-0.2521 -0.81791,-0.7294 -1.17362,-1.0607 -1.30375,-1.2143 -2.59398,-2.2594 -4.58612,-3.715 -3.61553,-2.6418 -4.59143,-3.4288 -4.76934,-3.8464 -0.10418,-0.2445 -0.23812,-0.9893 -0.29766,-1.6551 -0.0595,-0.6658 -0.1803,-1.3801 -0.26837,-1.5875 -0.19076,-0.4491 -0.73226,-1.0307 -1.23757,-1.3292 -0.20076,-0.1186 -0.36502,-0.2571 -0.36502,-0.3079 0,-0.051 -0.0794,-0.092 -0.17639,-0.092 -0.18313,0 -0.25694,0.5342 -0.0839,0.6076 0.39936,0.1693 0.83814,1.4557 0.67348,1.9745 -0.10692,0.3369 -0.21335,0.3071 -0.92911,-0.2596 -0.56349,-0.4462 -1.13034,-1.2075 -1.13034,-1.5182 0,-0.1697 -0.77964,-1.769 -0.98818,-2.0271 -0.34268,-0.4241 -0.71236,0.195 -0.4327,0.7246 0.0593,0.1123 0.19525,0.5044 0.30209,0.8714 0.10685,0.3669 0.37583,0.9686 0.59774,1.3371 0.59522,0.9885 0.51034,1.5447 -0.11135,0.7296 -0.49061,-0.6432 -1.13148,-2.4348 -1.13148,-3.1632 0,-0.2348 -0.54595,-1.1145 -0.84657,-1.364 -0.0985,-0.082 -0.22569,-0.093 -0.32807,-0.03 -0.1409,0.087 -0.14413,0.2017 -0.0205,0.7283 0.38078,1.6223 0.41514,1.7184 1.14756,3.2092 0.51095,1.0401 0.61505,1.4086 0.4468,1.5816 -0.0884,0.091 -0.39083,-0.3881 -0.88535,-1.4025 -0.64179,-1.3165 -0.8143,-1.7749 -0.97646,-2.5948 -0.0677,-0.342 -0.43831,-0.8154 -0.63844,-0.8154 -0.0844,0 -0.13319,0.2589 -0.13319,0.7071 0,0.71 0.0293,0.8174 0.40103,1.4684 0.11079,0.194 0.2308,0.4453 0.26669,0.5585 0.0359,0.1132 0.11201,0.2058 0.16914,0.2058 0.0571,0 0.10388,0.057 0.10388,0.1258 0,0.069 0.16232,0.3617 0.36071,0.6501 0.39662,0.5765 0.61253,1.4104 0.34179,1.3202 -0.0861,-0.029 -0.21323,-0.1537 -0.28253,-0.2776 -0.0693,-0.124 -0.31307,-0.5177 -0.54172,-0.875 -0.42244,-0.66 -0.7963,-1.3997 -1.05634,-2.09 -0.21603,-0.5735 -0.46821,-0.4944 -0.46821,0.147 0,0.291 0.0529,0.5291 0.11759,0.5291 0.0647,0 0.1176,0.056 0.1176,0.1241 0,0.2625 1.01893,1.6153 1.76655,2.3454 0.99218,0.9689 1.15687,1.1103 2.93715,2.5219 0.80845,0.641 1.48755,1.2089 1.50911,1.262 0.0216,0.053 0.10093,0.097 0.17638,0.097 0.0755,10e-5 0.29595,0.1358 0.48997,0.3016 0.19403,0.1658 0.67028,0.5703 1.05834,0.8988 0.38805,0.3285 2.68993,2.5927 5.11527,5.0315 2.42535,2.4387 4.85952,4.7885 5.40926,5.2216 1.25175,0.9861 3.45361,2.4432 3.99815,2.6457 0.22637,0.084 0.51741,0.1979 0.64676,0.2528 0.12935,0.055 0.6056,0.2151 1.05833,0.3563 0.45274,0.1412 0.92899,0.2966 1.05834,0.3454 1.34688,0.5083 5.07051,1.2096 7.11435,1.3399 1.0212,0.065 3.986713,-0.045 4.762498,-0.1768 z m -27.001059,-2.5851 c 2.3716,-0.3857 2.99545,-0.6529 4.44343,-1.9031 0.50633,-0.4371 1.09344,-0.9399 1.3047,-1.1173 l 0.38412,-0.3226 -1.37012,-1.4109 c -5.65719,-5.8255 -7.16663,-7.2853 -7.95378,-7.6925 -0.17741,-0.092 -0.32257,-0.2108 -0.32257,-0.2646 0,-0.054 -0.0794,-0.098 -0.17639,-0.098 -0.097,0 -0.17639,0.053 -0.17639,0.1176 0,0.065 -0.0503,0.1176 -0.11178,0.1176 -0.0615,0 -0.92137,0.5329 -1.91088,1.1842 -2.0514,1.3503 -3.73392,2.2282 -5.38567,2.8102 -0.22637,0.08 -0.51741,0.1866 -0.64676,0.2374 -0.12935,0.051 -0.47331,0.1589 -0.76435,0.2403 -0.29104,0.082 -0.72365,0.2086 -0.96135,0.2826 l -0.43219,0.1346 0.61048,0.6421 c 0.33576,0.3532 0.8469,0.9542 1.13586,1.3355 0.28896,0.3813 0.96279,1.0586 1.49741,1.5051 0.94678,0.7908 1.32223,1.2713 1.44235,1.8459 0.0667,0.3193 0.1229,0.3555 1.17596,0.7578 0.42039,0.1606 1.16122,0.4781 1.64629,0.7056 1.12817,0.5291 1.84899,0.7775 2.29306,0.79 0.19403,0.01 0.45861,0.055 0.58796,0.1111 0.33888,0.1456 2.77656,0.1397 3.69061,-0.01 z m 55.355554,-6.6461 c 1.776943,-0.8565 2.501587,-1.388 2.50982,-1.8411 0.0031,-0.1723 -0.105031,-0.2058 -0.664068,-0.2058 -0.717888,0 -1.262812,0.1492 -1.924048,0.5267 -1.597692,0.9121 -1.994418,1.1848 -1.937891,1.3321 0.03368,0.088 0.06123,0.3209 0.06123,0.5181 0,0.3415 0.0188,0.3555 0.396857,0.2941 0.218271,-0.035 0.919417,-0.3163 1.5581,-0.6241 z m -21.886902,-2.0469 c 0.03997,-0.065 0.172127,-0.1176 0.293678,-0.1176 0.121551,0 0.51841,-0.1632 0.881908,-0.3627 0.664059,-0.3644 0.999876,-0.3835 0.999876,-0.057 0,0.097 0.111987,0.2359 0.248859,0.3092 0.202403,0.1083 0.350576,0.082 0.79375,-0.1422 0.656477,-0.3318 0.782514,-0.4431 0.89187,-0.7876 0.115152,-0.3628 -0.107746,-0.5934 -0.658766,-0.6815 -0.304552,-0.049 -0.555123,-0.1891 -0.74908,-0.4196 -0.348962,-0.4147 -0.348558,-0.4096 -0.06862,-0.8687 0.150257,-0.2464 0.503495,-0.4994 1.093581,-0.7833 0.995223,-0.4788 1.667181,-1.1405 1.850834,-1.8225 0.09137,-0.3393 0.07981,-0.678 -0.04554,-1.3331 -0.206688,-1.0803 -0.33464,-1.4255 -0.711204,-1.9192 -0.16161,-0.2119 -0.293837,-0.4464 -0.293837,-0.5212 0,-0.092 -0.316117,-0.1359 -0.976018,-0.1359 -0.964715,0 -1.356707,0.1363 -1.159032,0.4029 0.117757,0.1589 0.362002,0.99 0.382673,1.3022 0.03469,0.524 -0.02108,0.7429 -0.207564,0.8144 -0.300433,0.1153 -0.421084,-0.092 -0.259536,-0.4471 0.117886,-0.2587 0.108339,-0.4253 -0.05325,-0.9292 -0.32612,-1.017 -0.366545,-1.0381 -0.90339,-0.4716 -0.606965,0.6406 -0.606751,0.9484 0.0011,1.6079 0.258704,0.2806 0.470371,0.544 0.470371,0.5853 0,0.3894 -1.230985,-0.6512 -1.42346,-1.2034 -0.140789,-0.4038 -0.229558,-0.4301 -1.810337,-0.5367 -0.517407,-0.035 -1.059803,-0.031 -1.205324,0.01 -0.303384,0.082 -0.36115,0.3964 -0.07271,0.3964 0.156428,0 0.180049,0.088 0.127868,0.4772 -0.0618,0.4608 -0.05322,0.476 0.2491,0.441 0.264452,-0.031 0.307845,-0.087 0.279256,-0.3596 -0.03613,-0.3451 0.07493,-0.4117 0.304311,-0.1823 0.209418,0.2094 0.172157,0.4575 -0.114572,0.7627 -0.286215,0.3046 -0.549012,0.3366 -1.107749,0.1345 -0.553124,-0.2 -0.934542,0.075 -1.036291,0.7483 -0.129163,0.8542 -0.204902,0.9007 -0.876528,0.5379 -0.480977,-0.2597 -0.607098,-0.2873 -0.715587,-0.1566 -0.07243,0.087 -0.301925,0.226 -0.509977,0.3083 -0.208052,0.082 -0.470881,0.2285 -0.584064,0.3248 -0.240327,0.2047 -0.269979,0.8026 -0.06348,1.2798 0.166447,0.3847 0.958713,1.5925 1.315434,2.0054 0.274656,0.3179 1.125849,0.8518 1.357997,0.8518 0.08209,0 0.478604,0.1572 0.881153,0.3493 0.40255,0.1921 0.939282,0.4241 1.192738,0.5154 0.540263,0.1948 1.884378,0.2462 1.989534,0.076 z m -4.527315,-6.0009 c 0,-0.1408 -0.331685,-0.2918 -0.428421,-0.195 -0.102977,0.1029 0.07169,0.3163 0.258972,0.3163 0.0932,0 0.169449,-0.055 0.169449,-0.1213 z m -23.459727,-0.534 c 1.48755,0.039 2.96795,0.1042 3.28977,0.1458 l 0.58514,0.076 -1.1313,-1.1648 c -1.2337,-1.2703 -2.07772,-2.2617 -2.67654,-3.1441 l -0.38558,-0.5682 -0.3874,0.5682 c -0.48354,0.7092 -0.9921,1.2455 -1.82233,1.9218 -0.35571,0.2897 -0.7042,0.5799 -0.77442,0.6449 -0.0702,0.065 -0.55719,0.4315 -1.08217,0.8145 -0.52498,0.383 -0.93453,0.7287 -0.91012,0.7682 0.0244,0.04 0.61722,0.026 1.31735,-0.03 0.70014,-0.056 2.49006,-0.07 3.9776,-0.032 z m 0.32961,-20.8642 c 0.99713,-0.9334 2.55141,-2.7773 2.55141,-3.0267 0,-0.082 0.0397,-0.1487 0.0882,-0.1492 0.0485,-5e-4 0.14645,-0.1195 0.21765,-0.2646 0.0712,-0.145 0.24063,-0.4753 0.37652,-0.734 0.45511,-0.8664 0.72874,-1.5123 0.72874,-1.7202 0,-0.1134 0.0471,-0.2353 0.1046,-0.2708 0.20701,-0.128 0.50277,-2.836 0.3668,-3.3586 l -0.0763,-0.2931 -0.0721,0.2756 c -0.0982,0.3755 -0.25272,0.2456 -0.42786,-0.3596 -0.0805,-0.2781 -0.19566,-0.6682 -0.25595,-0.8668 -0.19036,-0.6271 -0.0916,-1.6715 0.24397,-2.5787 0.48365,-1.3077 1.52071,-2.5552 2.87827,-3.4622 0.88909,-0.594 2.28764,-1.3003 2.57462,-1.3003 0.0973,0 0.20956,-0.053 0.24953,-0.1176 0.04,-0.065 0.25476,-0.1176 0.47731,-0.1176 0.3414,0 0.40454,0.041 0.40405,0.2646 -5e-4,0.2254 -0.12928,0.3055 -0.87,0.5414 -2.37373,0.7558 -4.38816,2.2377 -5.28701,3.8891 -0.41579,0.764 -0.54094,2.0529 -0.26916,2.772 0.15385,0.4071 0.17889,0.4291 0.18606,0.1632 0.0113,-0.4187 0.62018,-1.8662 1.04399,-2.4819 0.49514,-0.7194 1.42174,-1.551 2.12549,-1.9076 1.52421,-0.7724 3.06511,-0.8291 5.07029,-0.1865 1.37592,0.4409 2.45834,0.4979 2.91935,0.1537 0.3707,-0.2768 0.70574,-0.8231 0.71743,-1.1699 0.0115,-0.3425 0.12786,-0.627 0.25636,-0.627 0.20084,0 0.10435,1.0623 -0.1446,1.5919 -0.13729,0.2921 -0.26285,0.781 -0.27904,1.0865 -0.0354,0.6673 -0.1905,1.3355 -0.45314,1.9515 -0.10678,0.2504 -0.19414,0.5083 -0.19414,0.5729 0,0.1844 0.34147,-0.1452 0.69295,-0.6687 0.30058,-0.4477 0.39167,-0.6921 0.70885,-1.9019 0.16035,-0.6116 0.16749,-2.946 0.009,-3.0438 -0.0647,-0.04 -0.11759,-0.2258 -0.11759,-0.4129 0,-0.3777 -0.094,-0.6426 -0.62567,-1.7625 -0.24962,-0.5259 -0.63974,-1.0437 -1.25029,-1.6597 -1.3002,-1.3116 -2.30987,-1.9148 -4.25289,-2.5405 -0.86697,-0.2792 -1.17644,-0.3178 -2.573,-0.3211 -1.38544,0 -1.68479,0.032 -2.35185,0.2763 -1.36447,0.4998 -2.17274,1.1722 -3.15004,2.6205 -0.57283,0.8489 -0.72937,1.1072 -1.41191,2.33 -0.79421,1.4229 -1.57574,2.3484 -3.26255,3.8634 -0.6912,0.6208 -1.82696,1.4462 -2.17087,1.5775 -0.097,0.037 0.0725,0.072 0.37664,0.077 0.30417,0.01 0.70104,-0.05 0.88195,-0.1229 0.1809,-0.073 0.4612,-0.1851 0.62289,-0.2497 0.64938,-0.2593 1.73665,-0.8465 2.27525,-1.2288 0.5656,-0.4014 0.89975,-0.4397 0.89975,-0.1031 0,0.3084 -1.14691,1.1021 -2.56112,1.7723 -0.34147,0.1619 -0.69553,0.2943 -0.78681,0.2943 -0.0913,0 -0.19867,0.053 -0.23864,0.1176 -0.04,0.065 -0.22041,0.1175 -0.40097,0.1175 -0.44099,0 -1.07235,0.2292 -1.35389,0.4915 -0.12637,0.1178 -0.27561,0.2141 -0.33164,0.2141 -0.43847,0 -2.65779,1.9348 -3.50704,3.0574 -0.22017,0.2911 -0.46721,0.5991 -0.54899,0.6846 -0.0818,0.085 -0.14868,0.2007 -0.14868,0.2562 0,0.055 -0.0661,0.1723 -0.14699,0.2597 -0.23583,0.2551 -0.50773,0.7531 -1.36797,2.5059 -0.445,0.9066 -0.98964,1.8856 -1.21033,2.1754 -0.62441,0.8201 -0.63345,0.8446 -0.25141,0.6816 0.51186,-0.2183 1.69522,-1.0825 2.16911,-1.584 0.23492,-0.2487 0.83546,-1.0342 1.33453,-1.7456 0.91568,-1.3053 2.2284,-2.7634 2.48787,-2.7634 0.0773,0 0.15823,-0.043 0.17979,-0.096 0.0639,-0.157 1.41916,-1.0371 1.98503,-1.289 2.04497,-0.9103 3.32663,-0.9128 4.54627,-0.01 2.6343,1.9522 1.82081,7.2002 -1.64103,10.5868 -1.12064,1.0962 -0.0144,0.4491 1.24057,-0.7258 z m 7.53016,-6.7027 c 0.30595,-0.1941 0.66027,-0.3528 0.78737,-0.3528 0.19944,0 0.23111,-0.082 0.23111,-0.5978 0,-0.3287 0.0397,-0.5788 0.0882,-0.5556 0.0485,0.023 0.39461,0.1936 0.76912,0.3786 l 0.68092,0.3365 0.28921,-0.2717 c 0.15907,-0.1495 0.28922,-0.3866 0.28922,-0.527 0,-0.3843 0.38214,-0.6674 0.84155,-0.6234 0.47411,0.045 0.52197,0.2581 0.0698,0.3101 -0.17785,0.02 -0.32337,0.1096 -0.32337,0.198 0,0.088 0.14552,0.1775 0.32337,0.198 0.23242,0.027 0.31366,0.095 0.28883,0.243 -0.0399,0.2375 0.26624,0.2815 0.40853,0.059 0.0516,-0.081 0.18178,-0.57 0.28922,-1.0872 l 0.19535,-0.9402 -0.38348,-0.3724 c -0.3214,-0.3122 -0.62018,-0.8633 -0.46798,-0.8633 0.0241,0 0.22908,0.1852 0.45545,0.4115 0.22636,0.2264 0.51668,0.4116 0.64514,0.4116 0.37926,0 0.8326,-0.2575 0.8326,-0.4729 0,-0.1831 -0.64356,-0.5833 -1.2151,-0.7557 -0.11856,-0.036 -0.19332,-0.1312 -0.16613,-0.212 0.0741,-0.2201 0.66212,-0.1108 1.2566,0.2335 l 0.52212,0.3025 0.30144,-0.3611 c 0.32131,-0.3849 0.62764,-1.108 0.89839,-2.1208 0.22702,-0.8492 0.23089,-0.8417 -0.3332,-0.6452 -0.60562,0.211 -1.64327,0.1332 -2.59618,-0.1947 -1.20411,-0.4142 -2.30287,-0.5376 -3.27163,-0.3671 -1.917,0.3372 -3.34503,1.4284 -4.21127,3.2181 -0.26117,0.5395 -0.47485,1.0567 -0.47485,1.1493 0,0.1984 0.50217,1.61 0.71275,2.0034 0.0804,0.1503 0.29693,0.4813 0.4811,0.7356 0.18417,0.2542 0.33485,0.5218 0.33485,0.5947 0,0.1601 0.65084,0.8905 0.7935,0.8905 0.0557,0 0.35152,-0.1587 0.65747,-0.3527 z m 1.72403,-0.4578 c 0,-0.1225 -0.0853,-0.2553 -0.18948,-0.2953 -0.13869,-0.053 -0.17021,-0.023 -0.11759,0.1146 0.0395,0.103 0.0719,0.2359 0.0719,0.2953 0,0.059 0.0529,0.108 0.11759,0.108 0.0647,0 0.11759,-0.1002 0.11759,-0.2226 z m 24.042851,37.4916 c -0.121506,-0.1966 0.01246,-0.2559 0.557741,-0.2469 1.055621,0.018 1.744868,-0.3744 2.146223,-1.2202 0.239872,-0.5055 0.599335,-0.5676 0.481499,-0.083 -0.120558,0.4956 -0.668425,1.1178 -1.242685,1.4111 -0.556915,0.2846 -1.797993,0.3735 -1.942778,0.1392 z m -30.596011,-26.8033 c 0,-0.291 0.0229,-0.4101 0.051,-0.2646 0.028,0.1456 0.028,0.3837 0,0.5292 -0.028,0.1455 -0.051,0.026 -0.051,-0.2646 z"
       id="path55" /></g></svg>
