<?xml version="1.0" encoding="UTF-8" standalone="no"?>
<!-- Created with Inkscape (http://www.inkscape.org/) -->

<svg
   width="207.01898mm"
   height="111.03692mm"
   viewBox="0 0 207.01898 111.03692"
   version="1.1"
   id="svg1"
   xml:space="preserve"
   xmlns="http://www.w3.org/2000/svg"
   xmlns:svg="http://www.w3.org/2000/svg"><defs
     id="defs1" /><g
     id="layer1"
     transform="translate(263.87443,-520.00529)"><path
       style="fill:#4d4d4d"
       d="m -88.15475,630.96332 c -0.10072,-0.10072 -1.40419,-0.2166 -2.89659,-0.25752 -1.49241,-0.0409 -3.42785,-0.2525 -4.30097,-0.47019 -2.91299,-0.72629 -4.22591,-1.13601 -5.11614,-1.59658 -0.48554,-0.2512 -1.91429,-0.57993 -3.175,-0.7305 -4.22297,-0.50437 -4.82092,-0.61362 -4.81399,-0.87958 0.01,-0.36616 7.5661,-0.49704 8.7395,-0.15137 0.50933,0.15005 1.75948,0.52804 2.77813,0.83999 2.38163,0.72936 3.80565,1.02493 6.03111,1.25183 0.98877,0.10081 1.88174,0.31516 1.98437,0.47631 0.22101,0.34706 2.17098,0.61803 2.17098,0.30169 0,-0.1199 -0.27845,-0.32387 -0.61878,-0.45326 -0.34032,-0.12939 -0.91769,-0.59051 -1.28305,-1.02471 -0.36535,-0.43419 -0.89057,-0.83303 -1.16716,-0.88629 -0.81025,-0.15604 -0.57783,-0.61155 0.35807,-0.70176 0.6673,-0.0643 1.11978,0.1291 2.01162,0.8599 0.63287,0.51858 1.22771,0.94288 1.32186,0.94288 0.42175,0 0.10629,-0.69345 -0.55642,-1.22311 -0.88064,-0.70385 -0.60701,-1.11385 0.47163,-0.70671 0.76422,0.28846 0.77309,0.28228 0.38678,-0.26926 -0.52868,-0.7548 -0.49837,-0.97592 0.13378,-0.97592 0.29104,0 0.52917,0.11906 0.52917,0.26459 0,0.14552 0.13945,0.26458 0.30989,0.26458 0.17044,0 0.54953,0.20836 0.84242,0.46302 0.29288,0.25466 0.1832,0.0165 -0.24375,-0.52916 -0.42695,-0.5457 -0.91052,-0.99218 -1.0746,-0.99219 -0.16409,0 -0.44171,-0.17276 -0.61695,-0.38391 -0.17524,-0.21115 -0.87443,-0.46661 -1.55375,-0.56768 -2.01529,-0.29984 -5.86535,-2.61572 -5.86535,-3.52811 0,-0.13297 -0.44648,-0.3804 -0.99219,-0.54984 -1.184,-0.36763 -3.47834,-1.45807 -4.03592,-1.91817 -0.9715,-0.80164 -2.6448,-2.96132 -2.6448,-3.41355 0,-0.27345 -0.28392,-0.94693 -0.63093,-1.49662 -0.347,-0.5497 -0.8133,-1.82725 -1.03622,-2.83901 -0.85616,-3.886 -0.99842,-5.77907 -0.81602,-10.8594 l 0.18021,-5.01971 -1.10394,-0.49781 c -0.92355,-0.41646 -1.29896,-0.45318 -2.29734,-0.22472 -1.03396,0.23661 -1.23721,0.21052 -1.52144,-0.19527 -0.18043,-0.2576 -0.6106,-0.50992 -0.95594,-0.56072 -0.97334,-0.14317 -1.29745,-0.87738 -0.78402,-1.77602 0.40187,-0.70338 0.39713,-0.76619 -0.0804,-1.06443 -0.36272,-0.22653 -0.45767,-0.48359 -0.33281,-0.90109 0.30494,-1.01967 2.57006,-3.09813 4.25734,-3.90651 1.80389,-0.86424 2.26247,-1.43087 1.22735,-1.51654 -0.9866,-0.0817 -3.24956,-1.6388 -3.24956,-2.23602 0,-1.04364 0.66519,-1.32607 2.65306,-1.12644 l 1.84485,0.18527 0.0186,-1.41591 c 0.0102,-0.77876 0.1073,-1.642 0.21572,-1.91832 0.10841,-0.27632 0.0312,-1.28836 -0.17161,-2.24896 -0.20279,-0.9606 -0.5296,-2.52046 -0.72624,-3.46635 -0.43736,-2.10381 -0.67735,-2.96125 -0.92569,-3.30729 -0.10444,-0.14552 -0.26444,-0.57739 -0.35556,-0.95972 -0.0911,-0.38232 -0.44542,-0.87844 -0.78734,-1.10247 -0.34192,-0.22404 -1.16735,-0.95302 -1.8343,-1.61997 l -1.21263,-1.21263 -2.46828,0.0265 c -4.58784,0.0493 -13.41085,1.10979 -15.16829,1.8232 -0.29104,0.11814 -1.48166,0.41269 -2.64583,0.65454 -1.16417,0.24185 -2.32341,0.55124 -2.5761,0.68753 -0.25269,0.13629 -0.81121,0.24779 -1.24115,0.24779 -0.42995,0 -0.85531,0.11907 -0.94525,0.26459 -0.0899,0.14552 -0.57409,0.26458 -1.07588,0.26458 -0.5018,0 -1.47704,0.28934 -2.1672,0.64297 -0.69016,0.35364 -1.93442,0.96047 -2.76503,1.34851 -0.8306,0.38804 -1.64886,0.87261 -1.81833,1.07682 -0.16948,0.20421 -0.54307,0.37128 -0.83021,0.37128 -0.28714,0 -0.83811,0.22139 -1.22438,0.49197 -1.6328,1.14378 -4.31527,2.04065 -4.98405,1.66638 -0.39968,-0.22367 -0.33846,-0.30906 0.45473,-0.6342 l 0.9166,-0.37573 -2.11666,-0.17916 c -2.61936,-0.22171 -4.10105,-0.61653 -4.10105,-1.09278 0,-0.29206 0.50545,-0.3375 2.57969,-0.23193 2.53008,0.12879 2.56822,0.12202 1.98322,-0.35193 -0.32806,-0.26578 -1.1615,-0.71089 -1.85209,-0.98912 -0.69058,-0.27824 -1.55326,-0.7091 -1.91707,-0.95748 -0.3638,-0.24837 -0.95911,-0.53091 -1.32291,-0.62786 -1.81069,-0.48251 -2.64584,-0.79058 -2.64584,-0.97601 0,-0.11242 -0.25085,-0.28402 -0.55745,-0.38133 -0.62355,-0.19791 -1.21337,-0.63677 -2.59699,-1.93232 l -0.94298,-0.88296 -0.34378,0.84251 c -0.32324,0.79216 -0.29962,0.88079 0.39506,1.48283 0.40637,0.35218 1.24238,0.88581 1.8578,1.18585 1.38095,0.67328 2.98209,2.23646 2.98209,2.9114 0,0.64813 -0.57586,0.64778 -0.98077,-5.9e-4 -0.24313,-0.3893 -4.27934,-3.27713 -5.13601,-3.67471 -0.0912,-0.0423 -0.23914,0.13626 -0.32874,0.39688 -0.0896,0.26061 -0.3937,0.83102 -0.67581,1.26759 -0.2821,0.43656 -0.52161,0.98096 -0.53224,1.20978 -0.0106,0.22882 -0.7082,1.06225 -1.55013,1.85208 -0.84194,0.78983 -1.75482,1.79324 -2.02863,2.2298 -0.60547,0.96538 -1.43147,1.71979 -1.88298,1.71979 -0.18388,0 -0.37403,0.0893 -0.42253,0.19844 -0.0485,0.10914 -0.52637,0.57446 -1.06192,1.03404 -1.10285,0.94641 -1.03515,1.09584 0.94588,2.08792 0.56677,0.28383 1.4179,0.87325 1.89139,1.30981 0.47349,0.43656 1.25993,1.01969 1.74763,1.29583 0.48771,0.27614 1.106,0.69141 1.37399,0.92283 0.51847,0.44771 1.49712,2.29729 1.49712,2.82944 0,0.17517 0.29101,0.39153 0.64668,0.4808 0.35568,0.0893 1.39747,0.67629 2.31511,1.3045 0.91763,0.62821 2.23397,1.35816 2.92519,1.62211 0.69123,0.26396 1.25677,0.56477 1.25677,0.66847 0,0.36479 4.40663,0.79857 8.10907,0.79823 3.71165,-3.3e-4 3.7566,-0.008 5.29167,-0.84661 1.44993,-0.79254 1.775,-0.85809 5.1201,-1.03232 4.21099,-0.21933 6.0548,-0.51423 7.67485,-1.22755 0.65378,-0.28785 1.90306,-0.73412 2.77619,-0.99169 1.93052,-0.56951 4.36562,-1.65925 4.36562,-1.95367 0,-0.11834 0.41672,-0.43958 0.92604,-0.71387 0.50933,-0.27429 0.92604,-0.59069 0.92604,-0.70312 0,-0.11243 0.22812,-0.20442 0.50694,-0.20442 0.27881,0 0.88413,-0.47625 1.34515,-1.05833 0.46102,-0.58209 0.95225,-1.05834 1.09163,-1.05834 0.13937,0 0.51632,-0.25238 0.83766,-0.56085 0.32134,-0.30846 1.29862,-0.90447 2.17175,-1.32445 1.32427,-0.63699 1.60204,-0.6957 1.67519,-0.35407 0.0482,0.22524 -0.20221,0.63756 -0.55652,0.91627 -0.40899,0.32171 -0.91769,1.30786 -1.39322,2.70085 -1.06353,3.11547 -1.22149,7.55397 -0.38411,10.79309 0.31977,1.23692 0.63378,2.66567 0.69779,3.175 0.064,0.50932 0.60906,1.93807 1.21121,3.175 1.35298,2.77924 1.46456,3.07957 2.45757,6.61458 0.22248,0.79202 0.58433,3.10472 0.91075,5.82083 0.33077,2.7523 0.33802,8.39719 0.011,8.59927 -0.46446,0.28705 -0.79325,-1.15553 -0.79325,-3.48037 v -2.25499 l -1.10257,0.18627 c -3.14018,0.53053 -61.55597,1.22065 -95.40425,1.1271 l -27.58287,-0.0762 5e-5,2.31511 6e-5,2.3151 h -4.8948 c -2.69213,0 -4.90002,-0.0893 -4.90641,-0.19844 -0.006,-0.10914 -0.13671,-1.0914 -0.2896,-2.18281 -0.42659,-3.04518 -0.42108,-3.83646 0.0267,-3.83646 0.22104,0 0.48785,0.39707 0.62225,0.92605 0.12941,0.50932 0.41806,1.55112 0.64144,2.3151 l 0.40615,1.38906 h 3.51661 3.51662 l 0.16407,-1.52135 c 0.26311,-2.43974 -0.074,-2.29361 5.72287,-2.48084 2.82224,-0.0911 6.44103,-0.23724 8.04176,-0.32465 1.60073,-0.0874 7.91105,-0.22489 14.02292,-0.3055 6.11188,-0.0806 14.74391,-0.22109 19.18229,-0.31217 11.54108,-0.23684 70.05645,-0.21564 74.54072,0.027 l 3.76468,0.20371 -0.0993,-1.14883 c -0.21208,-2.45245 -0.96089,-6.23272 -1.48539,-7.49883 -0.12056,-0.29104 -0.36047,-1.00541 -0.53312,-1.5875 -0.17265,-0.58208 -0.76476,-2.12989 -1.31581,-3.43958 -0.55105,-1.30969 -1.19897,-3.09562 -1.43983,-3.96875 -0.24086,-0.87312 -0.55,-1.79424 -0.68699,-2.04693 -0.13699,-0.25269 -0.24908,-0.73595 -0.24908,-1.07391 0,-0.33796 -0.14883,-0.81107 -0.33073,-1.05134 -0.3382,-0.44673 -0.96408,-0.23756 -5.3978,1.80392 -0.45855,0.21114 -1.08363,0.38389 -1.38906,0.38389 -0.30543,0 -0.55532,0.11906 -0.55532,0.26458 0,0.14552 -0.19899,0.26458 -0.44219,0.26458 -0.24321,0 -0.63016,0.16175 -0.8599,0.35945 -0.22974,0.19769 -1.25114,0.80782 -2.26979,1.35584 -1.01865,0.54802 -1.97115,1.08555 -2.11667,1.1945 -0.14552,0.10896 -0.97895,0.38091 -1.85208,0.60433 -0.87312,0.22342 -2.30187,0.60863 -3.175,0.85602 -4.9014,1.38877 -8.33216,1.80271 -15.08125,1.81966 -6.03526,0.0152 -9.19539,-0.39281 -11.30735,-1.45978 -0.25269,-0.12765 -0.72894,-0.23589 -1.05834,-0.24051 -0.32939,-0.005 -0.83001,-0.18323 -1.11249,-0.39688 -0.28247,-0.21365 -0.84964,-0.38846 -1.26036,-0.38846 -0.41072,0 -0.95351,-0.10847 -1.2062,-0.24103 -0.25269,-0.13257 -1.17381,-0.57684 -2.04693,-0.98726 -0.87313,-0.41042 -2.25679,-1.19493 -3.07481,-1.74334 -0.81801,-0.54842 -1.74075,-0.99712 -2.05052,-0.99712 -0.30977,0 -0.56321,-0.11906 -0.56321,-0.26458 0,-0.14552 -0.16402,-0.26459 -0.36448,-0.26459 -0.20046,0 -0.51104,-0.17659 -0.69016,-0.39242 -0.17913,-0.21583 -1.47363,-1.21545 -2.87667,-2.22139 -1.40304,-1.00593 -3.19712,-2.43668 -3.98685,-3.17945 -0.78973,-0.74277 -1.50536,-1.35049 -1.5903,-1.35049 -0.38324,0 -7.55323,-7.68962 -9.35085,-10.02853 -0.4582,-0.59618 -0.92668,-1.08397 -1.04106,-1.08397 -0.11438,0 -0.20797,-0.12414 -0.20797,-0.27588 0,-0.37202 -1.98772,-3.07851 -3.08459,-4.19998 -0.48629,-0.4972 -0.88416,-1.10858 -0.88416,-1.35862 0,-0.43947 -2.03651,-2.63218 -2.44467,-2.63218 -0.11064,0 -0.20116,-0.1786 -0.20116,-0.39688 0,-0.21828 -0.10031,-0.39687 -0.22292,-0.39687 -0.12261,0 -0.44771,-0.41741 -0.72245,-0.92757 -0.27474,-0.51016 -0.71587,-0.99624 -0.9803,-1.08016 -0.26442,-0.0839 -1.29625,-0.97621 -2.29296,-1.98285 -0.99671,-1.00664 -1.98042,-1.83026 -2.18603,-1.83026 -0.20562,0 -0.99165,-0.52735 -1.74675,-1.17189 -0.7551,-0.64454 -1.90885,-1.43955 -2.56388,-1.76669 -0.65503,-0.32714 -1.19096,-0.69275 -1.19096,-0.81248 0,-0.11973 -0.19238,-0.21769 -0.42751,-0.21769 -0.45926,0 -3.05755,-0.83922 -3.27666,-1.05833 -0.3635,-0.3635 -1.3645,-0.77681 -2.28253,-0.94244 -0.56362,-0.10169 -1.14382,-0.27347 -1.28934,-0.38173 -0.39351,-0.29276 -1.7902,-0.53457 -4.94268,-0.85572 -2.88912,-0.29432 -7.02039,-0.05 -9.34482,0.55257 -0.58209,0.1509 -1.65365,0.40567 -2.38125,0.56614 -0.72761,0.16048 -1.62698,0.45782 -1.9986,0.66076 -0.37162,0.20295 -1.38366,0.63195 -2.24896,0.95335 -0.8653,0.3214 -2.20694,0.98733 -2.98143,1.47985 -1.28898,0.8197 -1.89014,1.33575 -4.49889,3.86198 -0.48398,0.46866 -1.12505,1.32837 -1.4246,1.91045 -0.29956,0.58208 -0.61795,1.11786 -0.70755,1.19062 -0.30738,0.24964 -2.13302,4.10109 -2.50832,5.29167 -0.20643,0.65484 -0.44717,1.84547 -0.535,2.64583 -0.0878,0.80037 -0.2741,2.34818 -0.41394,3.43959 -0.70793,5.5249 0.21296,18.90729 1.53043,22.24031 0.14047,0.35538 0.46657,1.39597 0.72466,2.31243 0.25809,0.91646 0.56775,1.72716 0.68812,1.80155 0.12038,0.0744 0.21887,0.41887 0.21887,0.7655 0,0.34662 0.10532,0.69532 0.23405,0.77488 0.12873,0.0796 0.31727,0.71166 0.41897,1.40468 0.10171,0.69301 0.84044,2.61267 1.64162,4.26591 0.96662,1.99461 1.3681,3.09449 1.19334,3.26925 -0.17475,0.17476 -0.4393,-0.13439 -0.78633,-0.9189 -0.37136,-0.83952 -0.72372,-1.23265 -1.21544,-1.35606 -0.38085,-0.0956 -0.69246,-0.34707 -0.69246,-0.55884 0,-0.21177 -0.32742,-0.56143 -0.72761,-0.77701 -0.40018,-0.21558 -0.97702,-0.66513 -1.28187,-0.99898 -1.08386,-1.187 -2.97698,-3.59575 -3.62094,-4.60718 -0.3596,-0.56481 -0.96627,-1.36047 -1.34816,-1.76815 -0.38189,-0.40768 -0.69434,-0.90667 -0.69434,-1.10887 0,-0.20219 -0.11906,-0.44121 -0.26458,-0.53115 -0.14552,-0.0899 -0.26459,-0.44712 -0.26459,-0.79375 0,-0.34662 -0.11519,-0.70142 -0.25598,-0.78843 -0.22865,-0.14132 -0.79733,-1.27293 -2.23615,-4.44972 -0.2503,-0.55264 -0.57515,-1.74327 -0.72189,-2.64583 -0.26376,-1.62232 -0.45199,-2.48952 -0.9879,-4.55143 -0.47839,-1.84057 -0.93857,-6.76275 -0.93997,-10.05417 -0.002,-4.07446 0.73297,-8.92012 1.48233,-9.77635 0.12099,-0.13825 0.21998,-0.69367 0.21998,-1.23428 0,-0.98219 1.65415,-4.52914 2.63872,-5.65812 0.25381,-0.29104 0.74505,-1.10976 1.09164,-1.81938 0.3466,-0.70962 0.90825,-1.54306 1.24811,-1.85208 1.27746,-1.16155 1.96248,-1.9176 2.72657,-3.00927 0.43288,-0.61846 0.93862,-1.12448 1.12388,-1.12448 0.18526,0 0.91935,-0.56555 1.63132,-1.25677 1.53397,-1.48927 3.26541,-2.70926 3.84729,-2.71085 0.22929,-6.2e-4 0.69653,-0.29878 1.0383,-0.66259 0.34178,-0.3638 0.7185,-0.66145 0.83717,-0.66145 0.11867,0 1.02989,-0.52185 2.02495,-1.15967 1.03997,-0.66661 2.30668,-1.2418 2.97927,-1.35283 0.64354,-0.10624 1.28914,-0.27732 1.43466,-0.38018 1.38882,-0.98163 8.43089,-1.90052 14.35364,-1.87294 1.78263,0.008 3.24115,-0.0374 3.24115,-0.10145 0,-0.0641 -0.28276,-0.69187 -0.62836,-1.39505 -0.3456,-0.70318 -0.70975,-1.81429 -0.80923,-2.46913 -0.22287,-1.46722 -0.2109,-7.61195 0.0182,-9.34083 0.18891,-1.42557 0.99678,-2.80193 1.91262,-3.25853 0.33531,-0.16717 0.7425,-0.43679 0.90488,-0.59917 0.31462,-0.31462 1.24772,-0.40913 1.24772,-0.12637 0,0.0929 -0.47625,0.68551 -1.05833,1.317 -1.16906,1.26828 -1.05587,0.60014 -1.18266,6.98081 -0.059,2.97024 0.24499,6.67346 0.61903,7.54063 0.92874,2.15317 0.8428,2.08632 3.26377,2.53911 0.7705,0.14411 1.93668,0.38075 2.59153,0.52587 0.65484,0.14512 1.78593,0.36762 2.51354,0.49444 0.7276,0.12682 1.72091,0.43385 2.20734,0.6823 0.84492,0.43154 0.91585,0.42901 1.5875,-0.0566 1.32887,-0.9608 2.67647,-1.45144 3.4936,-1.27197 0.89932,0.19752 0.91461,0.13752 0.36626,-1.43727 -0.64561,-1.85408 -1.34287,-2.6665 -2.28853,-2.6665 -0.94882,0 -3.57181,-1.20023 -4.23384,-1.93732 -0.68599,-0.76378 -0.75408,-1.24352 -0.38219,-2.69289 0.29497,-1.14956 0.45875,-1.36429 1.24986,-1.63871 0.50073,-0.17369 0.71979,-0.32251 0.4868,-0.33073 -0.23299,-0.008 -0.97587,-0.31496 -1.65085,-0.68165 -0.67497,-0.3667 -1.77057,-0.96202 -2.43465,-1.32292 -1.52651,-0.8296 -2.05323,-0.82387 -3.17876,0.0346 -0.49812,0.37994 -1.07046,0.62757 -1.27185,0.55029 -0.54433,-0.20888 -0.73784,-1.73526 -0.4646,-3.66466 0.13312,-0.94005 0.18082,-2.02947 0.10599,-2.42093 -0.10318,-0.53973 -0.0307,-0.71175 0.29996,-0.71175 0.23981,0 0.50738,0.18595 0.5946,0.41324 0.13416,0.34961 0.26528,0.31656 0.85159,-0.21467 0.93308,-0.84543 1.88736,-1.22162 3.61338,-1.42448 1.19381,-0.14031 1.44526,-0.25888 1.44526,-0.6815 0,-0.6758 0.61762,-1.26759 1.32292,-1.26759 0.63197,0 1.31844,0.57007 1.33133,1.10558 0.006,0.26025 0.0908,0.24569 0.33073,-0.057 0.47116,-0.59435 1.93475,-1.57784 2.34753,-1.57747 0.4779,4.4e-4 1.81124,1.16715 1.81124,1.58489 0,0.23272 0.25204,0.28261 0.83685,0.16565 0.9479,-0.18958 1.80899,0.3819 1.80899,1.20056 0,0.63871 0.31901,0.62085 0.73234,-0.041 0.45323,-0.72573 1.22275,-0.66399 1.64891,0.13229 0.29244,0.54643 0.54975,0.66146 1.47961,0.66146 1.54961,0 2.75372,0.99927 2.75372,2.28526 0,0.50341 -0.22208,1.37496 -0.49352,1.93677 -0.27144,0.5618 -0.42026,1.12694 -0.33073,1.25586 0.28634,0.41227 3.70696,2.45961 4.10944,2.45961 0.21326,0 0.45273,0.10514 0.53216,0.23366 0.0794,0.12851 0.81999,0.31807 1.64571,0.42123 0.82572,0.10317 1.69049,0.28567 1.92173,0.40556 1.02098,0.52935 2.38346,1.05621 2.73141,1.05621 0.20842,0 0.46054,0.0816 0.56027,0.18133 0.42639,0.42639 4.3218,1.66416 5.24906,1.66789 0.3916,0.002 0.77708,0.10819 0.85664,0.23692 0.0796,0.12873 0.65214,0.31062 1.27239,0.40419 1.22165,0.18431 2.99206,0.74101 3.28356,1.03251 0.0997,0.0997 0.41339,0.18133 0.69703,0.18133 0.53534,0 2.88952,0.69862 3.69199,1.09562 0.25269,0.12501 0.64126,0.2273 0.86349,0.2273 0.22223,0 0.64056,0.11906 0.92963,0.26458 0.28906,0.14552 0.76208,0.38364 1.05115,0.52917 0.858,0.43192 1.32616,0.31556 1.33056,-0.33073 0.006,-0.87465 0.29881,-1.15916 1.17431,-1.14084 0.57804,0.0121 0.93456,0.24282 1.36944,0.88626 l 0.58794,0.8699 0.52215,-0.56047 c 0.48459,-0.52014 0.75722,-0.5558 3.78994,-0.4957 1.79729,0.0356 3.50592,0.17819 3.79696,0.31684 0.68435,0.32601 1.44181,1.26554 1.44932,1.79768 0.003,0.22929 0.30354,0.69653 0.66735,1.03831 0.3638,0.34177 0.66145,0.76978 0.66145,0.95114 0,0.18135 0.36849,0.41066 0.81886,0.50958 0.81924,0.17993 2.26977,0.97598 5.00198,2.74507 0.80036,0.51823 1.87193,1.14107 2.38125,1.38409 0.50932,0.24301 1.24827,0.75158 1.6421,1.13015 0.39383,0.37856 0.84031,0.6883 0.99218,0.6883 0.15188,0 0.27613,0.0908 0.27613,0.20184 0,0.20209 0.78398,0.68002 1.65365,1.00811 0.25466,0.0961 0.46302,0.27986 0.46302,0.40841 0,0.12855 0.12478,0.23372 0.27729,0.23372 0.40331,0 3.16154,1.78406 4.08834,2.64439 0.43656,0.40525 1.06402,0.81827 1.39436,0.91781 0.33033,0.0995 1.13966,0.59246 1.7985,1.09537 0.65885,0.5029 1.30239,0.8498 1.43009,0.77088 0.1277,-0.0789 0.509,-0.0312 0.84733,0.10613 0.33832,0.1373 0.91992,0.31399 1.29244,0.39265 0.76511,0.16156 2.49123,2.35909 2.28177,2.90493 -0.17192,0.44801 0.0312,0.7216 1.07916,1.45359 l 0.86324,0.60296 2.04718,-0.59376 c 1.12595,-0.32657 2.16624,-0.67224 2.31176,-0.76816 0.14552,-0.0959 1.21709,-0.38343 2.38125,-0.63892 1.16417,-0.25548 2.48231,-0.57383 2.92921,-0.70744 0.44689,-0.13361 1.28033,-0.24466 1.85208,-0.24678 1.15761,-0.004 2.75696,-0.50039 4.16777,-1.29279 0.51309,-0.28818 1.3599,-0.60408 1.88182,-0.70199 0.52191,-0.0979 1.01417,-0.28359 1.09391,-0.41261 0.0797,-0.12903 0.4118,-0.23459 0.73791,-0.23459 0.32611,0 0.73361,-0.14068 0.90555,-0.31262 0.41003,-0.41003 5.83216,-0.45336 6.69589,-0.0535 0.35087,0.16243 0.99514,0.44286 1.4317,0.62317 1.40485,0.58023 2.63396,1.11846 3.10526,1.35979 0.62739,0.32125 2.84786,0.29838 2.84786,-0.0293 0,-0.34892 2.83044,-0.34347 3.04634,0.006 0.0919,0.14875 0.8431,0.76867 1.66926,1.3776 0.82616,0.60893 1.90733,1.49925 2.40259,1.9785 0.49527,0.47925 1.1052,0.87136 1.3554,0.87136 0.56178,0 2.04022,1.66888 2.56341,2.89361 1.18696,2.77853 4.16639,5.57306 5.94179,5.57306 0.89021,0 2.05928,0.71117 4.00008,2.43335 1.47228,1.30643 2.06623,1.40844 4.17507,0.71709 1.71268,-0.56149 1.93867,-0.58079 2.58284,-0.22068 0.58507,0.32707 0.71974,0.60834 0.78658,1.64285 0.0546,0.84493 0.19842,1.24822 0.44519,1.24822 0.44554,0 0.73837,0.82329 0.50715,1.42586 -0.10667,0.27798 0.0384,0.62252 0.39087,0.9282 0.60813,0.52743 0.73204,1.21287 0.2708,1.49793 -0.16359,0.1011 0.18198,0.39024 0.79375,0.66414 0.6324,0.28313 1.08347,0.66624 1.08347,0.92022 0,0.52034 -0.82107,1.97198 -1.11538,1.97198 -0.11415,0 -0.20754,0.16402 -0.20754,0.36448 0,0.20046 -0.17083,0.50626 -0.37962,0.67954 -0.28287,0.23476 -0.37962,0.98094 -0.37962,2.92796 0,1.4618 -0.13392,2.86315 -0.30399,3.18093 -0.23003,0.42981 -0.22771,0.7522 0.01,1.32493 0.25796,0.62278 0.23006,0.9819 -0.15747,2.02652 -0.25905,0.69828 -0.68203,1.57751 -0.93997,1.95385 -0.3827,0.55837 -0.4617,1.19113 -0.42943,3.43958 0.0411,2.86692 -0.2029,3.76658 -1.30119,4.79663 -1.06142,0.99546 -1.41775,1.47413 -1.69989,2.28347 -0.37203,1.06721 -2.91693,2.95128 -3.98642,2.95128 -0.90111,0 -0.97617,-0.39458 -0.15537,-0.81673 0.75193,-0.38672 2.04908,-1.84912 2.0499,-2.31102 4.8e-4,-0.26871 -0.0912,-0.25778 -0.39625,0.0472 -0.21828,0.21828 -0.39688,0.49538 -0.39688,0.61577 0,0.26953 -1.10423,0.72599 -2.51354,1.03903 -0.58208,0.1293 -1.06416,0.35415 -1.07128,0.49967 -0.0524,1.07035 -0.46099,2.77812 -0.66472,2.77812 -0.1366,0 -0.24837,-0.85603 -0.24837,-1.9023 0,-2.24086 -0.42099,-4.68884 -1.06064,-6.16749 -0.25181,-0.58208 -0.54671,-1.35599 -0.65535,-1.71979 -0.10863,-0.3638 -0.48135,-1.04047 -0.82826,-1.5037 -0.34691,-0.46323 -0.63075,-0.95096 -0.63075,-1.08383 0,-0.57815 -0.8854,-1.92338 -2.09909,-3.18923 -0.72075,-0.75173 -1.50697,-1.69424 -1.74716,-2.09449 -0.34816,-0.58014 -2.0271,-2.02011 -2.7818,-2.38584 -0.0802,-0.0388 -0.5481,0.28857 -1.03984,0.7276 -0.49175,0.43903 -1.09619,0.79824 -1.3432,0.79824 -0.24702,0 -0.59734,0.17859 -0.7785,0.39688 -0.18115,0.21828 -0.49339,0.39687 -0.69385,0.39687 -0.20046,0 -0.36448,0.13277 -0.36448,0.29504 0,0.78651 -2.88163,2.73236 -3.35111,2.26288 -0.15536,-0.15536 0.53974,-0.97042 0.82759,-0.97042 0.24961,0 1.72977,-1.57721 1.72977,-1.84319 0,-0.32976 1.45133,-1.33181 1.92894,-1.33181 0.21563,0 1.11019,-0.69188 1.98792,-1.5375 0.87772,-0.84563 2.07924,-1.75548 2.67004,-2.02189 0.59079,-0.26641 1.14439,-0.70563 1.23022,-0.97604 0.0858,-0.27041 0.25449,-0.49165 0.37481,-0.49165 0.12033,0 0.60223,-0.34255 1.0709,-0.76122 1.19367,-1.06631 1.3657,-1.20125 2.25342,-1.76753 1.39667,-0.89094 3.51147,-3.05074 3.8292,-3.91069 0.17001,-0.46013 0.39845,-1.0152 0.50764,-1.23348 0.10919,-0.21828 0.3618,-1.1404 0.56137,-2.04916 0.38467,-1.75168 0.81483,-1.86668 0.86122,-0.23026 0.0148,0.52283 0.0927,0.86196 0.17303,0.75361 0.0803,-0.10834 0.58462,-0.52374 1.12062,-0.92309 1.73997,-1.29641 2.1218,-0.76889 0.58512,0.80837 -1.36174,1.39771 -2.05977,2.99162 -1.83496,4.19 0.18906,1.00774 0.23407,0.98603 -1.00109,0.48279 -0.23763,-0.0968 -0.51095,0.32974 -0.84955,1.3259 l -0.49921,1.46865 0.61709,0.59233 0.61709,0.59232 -0.17081,-0.73303 c -0.094,-0.40317 -0.0544,-0.95048 0.0878,-1.21624 0.15567,-0.29088 0.16261,-0.5792 0.0174,-0.72439 -0.13924,-0.13924 -0.14355,-0.39916 -0.0102,-0.61492 0.19574,-0.31672 0.33536,-0.30536 0.91502,0.0744 0.71709,0.46985 0.91845,1.36496 0.35331,1.57056 -0.61674,0.22438 0.19883,1.10138 1.2783,1.37459 1.36618,0.34577 2.76389,1.80349 3.41806,3.56481 0.29104,0.78362 0.91612,1.8034 1.38906,2.26619 0.47294,0.46279 0.8599,0.98526 0.8599,1.16105 0,0.17579 0.12222,0.24408 0.2716,0.15176 0.14938,-0.0923 0.24129,-0.30771 0.20425,-0.47864 -0.037,-0.17093 0.19552,-0.84941 0.5168,-1.50775 0.32129,-0.65833 0.66098,-1.58107 0.75487,-2.05052 0.16133,-0.80665 0.12802,-0.85355 -0.60623,-0.85355 -0.77397,0 -1.93504,-0.8198 -1.93504,-1.36629 0,-0.27316 0.58897,-0.2171 2.02053,0.19232 0.5016,0.14345 0.57695,0.0398 0.66845,-0.91968 0.10135,-1.06271 0.0884,-1.08135 -0.74815,-1.08135 -0.4682,0 -0.91632,-0.10524 -0.99581,-0.23387 -0.17393,-0.28142 1.27336,-0.92285 1.73504,-0.76895 0.17913,0.0597 0.6019,-0.4109 0.93948,-1.04581 0.72839,-1.3699 0.73139,-1.39095 0.19802,-1.39095 -0.69301,0 -1.17173,-0.7022 -1.17173,-1.71872 0,-0.84237 -0.0662,-0.94177 -0.52917,-0.79482 -0.63936,0.20292 -0.73422,-0.54448 -0.16747,-1.31955 0.31745,-0.43413 0.28507,-0.57128 -0.26458,-1.12093 -0.44749,-0.44749 -0.62628,-0.92498 -0.62628,-1.67259 0,-0.94995 -0.0632,-1.04631 -0.68676,-1.04631 -0.37772,0 -1.01443,0.23333 -1.41492,0.5185 -1.15314,0.82111 -2.61986,0.86944 -3.37799,0.1113 -0.34639,-0.34639 -0.78793,-0.6298 -0.98121,-0.6298 -0.19328,0 -0.86129,-0.46607 -1.48448,-1.03572 -1.08302,-0.98998 -1.70018,-1.36765 -3.16714,-1.93815 -2.72528,-1.05984 -4.47469,-2.54347 -5.74126,-4.86901 -0.86292,-1.58438 -2.13481,-3.07733 -3.02547,-3.55128 -0.72166,-0.38403 -1.60275,-1.13456 -3.64503,-3.10491 l -1.45338,-1.40221 -2.09398,0.42429 c -2.50005,0.50658 -3.70764,0.28791 -6.54899,-1.18588 -0.73931,-0.38347 -3.7029,-1.06421 -4.63305,-1.06421 -0.682,0 -0.90675,0.11397 -0.91309,0.46302 -0.0175,0.9657 -1.67261,2.18281 -2.96824,2.18281 -0.34192,0 -0.73479,0.10341 -0.87303,0.2298 -0.13825,0.12638 -0.84667,0.44454 -1.57427,0.70702 -0.72761,0.26247 -1.47679,0.59455 -1.66486,0.73795 -0.42135,0.32127 -0.99665,-0.16296 -0.72186,-0.60759 0.22763,-0.36831 3.43223,-1.86093 3.99536,-1.86093 0.22262,0 0.96378,-0.2609 1.64702,-0.57977 0.87138,-0.40669 1.10014,-0.61071 0.76624,-0.68336 -0.42735,-0.093 -2.82458,0.59663 -3.49274,1.00477 -0.14552,0.0889 -0.97896,0.38045 -1.85208,0.64791 -0.87313,0.26746 -1.94469,0.63339 -2.38125,0.81318 -0.43656,0.1798 -1.86531,0.47085 -3.175,0.64678 -1.30969,0.17593 -2.55984,0.38753 -2.77813,0.47023 -0.21828,0.0827 -1.4089,0.41827 -2.64583,0.74572 l -2.24896,0.59536 4.15158,0.0217 c 2.3975,0.0125 4.21802,-0.0858 4.30884,-0.23279 0.10068,-0.16291 0.39811,-0.16291 0.82659,0 0.36812,0.13996 1.01115,0.25447 1.42896,0.25447 0.598,0 1.20737,0.45076 2.86388,2.11842 2.10084,2.11501 2.95661,3.41187 2.95661,4.48055 0,0.31122 0.21679,1.0076 0.48175,1.54751 0.26496,0.5399 0.63187,1.4579 0.81535,2.03998 l 0.33361,1.05833 4.01329,0.0303 c 3.79617,0.0287 6.18475,0.30969 7.98204,0.93897 0.9295,0.32545 2.58774,1.08925 2.77813,1.27964 0.0728,0.0728 0.54901,0.3423 1.05833,0.59897 1.75096,0.88239 3.16256,1.73205 3.59345,2.16293 0.39912,0.39912 0.51113,0.30928 1.48712,-1.19273 0.75824,-1.16691 1.13627,-1.54359 1.34232,-1.33753 0.31574,0.31573 -0.0182,1.14072 -1.03072,2.54649 -0.31445,0.43656 -0.64762,1.15281 -0.7404,1.59167 -0.0928,0.43885 -0.58518,1.27229 -1.09426,1.85208 -0.50907,0.57979 -1.01175,1.17972 -1.11706,1.33319 -0.63138,0.92001 -0.88555,1.35982 -1.02378,1.77149 -0.0855,0.25466 -0.26064,0.46302 -0.38919,0.46302 -0.12855,0 -0.23373,0.1317 -0.23373,0.29266 0,0.16096 -0.35719,0.74364 -0.79375,1.29484 -0.43656,0.55121 -0.79375,1.05697 -0.79375,1.12392 0,0.067 0.29766,0.44291 0.66146,0.83546 0.74182,0.80043 0.86333,1.48021 0.26458,1.48021 -0.21828,0 -0.39687,-0.11832 -0.39687,-0.26293 0,-0.1446 -0.50602,-0.62432 -1.12448,-1.06604 -1.10429,-0.7887 -2.05358,-2.06001 -2.6132,-3.49968 -0.15556,-0.40018 -0.39025,-0.7276 -0.52154,-0.7276 -0.13128,0 -0.2387,-0.1034 -0.2387,-0.22977 0,-0.12638 -0.53875,-0.76853 -1.19723,-1.427 -1.22257,-1.22258 -1.81842,-1.45157 -4.30409,-1.65412 -0.65292,-0.0532 -1.31338,-0.22299 -1.4677,-0.3773 -0.37105,-0.37105 -2.29031,-0.35618 -4.17127,0.0323 -1.07413,0.22185 -1.93675,0.23641 -2.96498,0.05 -1.94292,-0.35217 -1.77154,0.2364 0.25483,0.87516 1.3764,0.43387 1.48371,0.43275 2.33242,-0.0243 0.4893,-0.26351 1.02708,-0.39416 1.19505,-0.29035 0.39801,0.24598 -2.86155,3.57448 -3.50046,3.57448 -0.25524,0 -0.46543,0.0893 -0.4671,0.19844 -0.002,0.10914 -0.45424,0.41443 -1.00571,0.67843 -0.88647,0.42436 -2.63317,2.19329 -2.39054,2.42095 0.0506,0.0475 0.96394,-0.31792 2.02965,-0.812 1.06571,-0.49407 2.03995,-0.89832 2.16498,-0.89832 0.12503,0 0.3029,-0.23812 0.39528,-0.52916 0.0924,-0.29104 0.27048,-0.52917 0.3958,-0.52917 0.12532,0 0.41802,-0.19016 0.65043,-0.42257 0.23242,-0.23242 0.61306,-0.34948 0.84587,-0.26014 0.34102,0.13086 0.19826,0.40628 -0.7344,1.41685 -1.24481,1.34881 -3.1092,2.70544 -3.71802,2.70544 -0.45805,0 -2.33448,1.87811 -2.33448,2.33657 0,0.20816 0.19691,0.14644 0.53364,-0.16727 0.56308,-0.52459 0.98045,-0.74539 2.90595,-1.53728 0.65484,-0.26931 1.30969,-0.62505 1.45521,-0.79053 0.14552,-0.16547 0.65153,-0.46469 1.12448,-0.66493 0.47294,-0.20024 0.85989,-0.46257 0.85989,-0.58296 0,-0.30102 0.69891,-0.97485 1.01113,-0.97485 0.14034,0 0.32371,-0.17859 0.40747,-0.39687 0.0838,-0.21828 0.34265,-0.39688 0.5753,-0.39688 0.70339,0 0.19359,1.08146 -1.02702,2.17868 -0.60454,0.54343 -1.24583,0.98992 -1.42509,0.99219 -0.17925,0.002 -0.75502,0.42085 -1.27948,0.93018 -0.52446,0.50932 -1.09218,0.92868 -1.26159,0.93192 -0.1694,0.003 -0.60567,0.23871 -0.96947,0.52328 l -0.66146,0.5174 0.92605,0.005 c 1.04572,0.006 2.13141,-0.57775 3.35736,-1.8037 0.75705,-0.75705 1.9343,-1.14031 1.9343,-0.62972 0,0.11304 -0.47233,0.67859 -1.04963,1.25677 -0.57729,0.57817 -1.05354,1.14279 -1.05833,1.25471 -0.0201,0.46903 1.50685,-0.20632 2.24025,-0.99087 0.95938,-1.02628 2.88571,-2.5199 3.24993,-2.5199 0.14485,0 0.59562,-0.41672 1.0017,-0.92604 0.86293,-1.08232 1.43692,-1.19425 1.43692,-0.2802 0,0.35521 0.10336,0.70973 0.2297,0.78781 0.12634,0.0781 0.30682,0.7232 0.40105,1.43359 0.0976,0.7356 0.38011,1.48056 0.6563,1.73051 0.26673,0.24138 1.00759,1.19698 1.64636,2.12354 0.80266,1.16429 1.43248,1.78267 2.03899,2.00199 1.08672,0.39297 0.95958,0.95874 -0.19414,0.86392 -1.08678,-0.0893 -1.9167,-0.70604 -2.78909,-2.07257 -0.38072,-0.59638 -1.04357,-1.34408 -1.47299,-1.66157 -0.5378,-0.39761 -0.78077,-0.80531 -0.78077,-1.31015 0,-0.40311 -0.1099,-0.84603 -0.24422,-0.98427 -0.13433,-0.13825 -0.28315,-0.58705 -0.33073,-0.99734 -0.0849,-0.7325 -0.0961,-0.73711 -0.61567,-0.25532 -0.29104,0.26986 -0.77741,0.66508 -1.08081,0.87827 -0.30341,0.21319 -1.1491,0.912 -1.87932,1.5529 -0.73023,0.64091 -1.85121,1.3644 -2.49107,1.60777 -0.76807,0.29212 -1.12415,0.57045 -1.04792,0.81909 0.0635,0.20713 0.21368,1.92442 0.33372,3.81619 0.58931,9.28741 0.80678,11.16412 1.51761,13.09688 l 0.34058,0.92604 h 9.4412 c 11.12827,0 10.8733,-0.0555 10.8733,2.36571 0,2.25197 -0.19977,2.14933 3.89233,1.99991 l 3.62311,-0.13229 0.37439,-1.5875 c 0.53183,-2.25507 0.77038,-2.77812 1.26703,-2.77812 0.37005,0 0.40952,0.19244 0.25774,1.25677 -0.0986,0.69122 -0.24768,1.91161 -0.33136,2.71198 -0.0837,0.80036 -0.27122,1.60403 -0.41675,1.78593 -0.19393,0.24239 -1.52815,0.33073 -4.99472,0.33073 h -4.7301 v -2.28521 -2.2852 l -2.57969,0.23468 c -3.13977,0.28564 -9.20358,0.25464 -13.22917,-0.0676 -1.63711,-0.13106 -2.97656,-0.161 -2.97656,-0.0665 0,0.0945 0.17859,0.31999 0.39687,0.50114 0.21828,0.18116 0.39688,0.4375 0.39688,0.56965 0,0.61458 3.08532,2.89668 4.57477,3.3838 0.5516,0.1804 1.74135,0.97201 2.64389,1.75915 0.90254,0.78713 1.73748,1.43115 1.85541,1.43115 0.11793,0 0.65246,0.29766 1.18784,0.66146 0.53539,0.3638 1.18052,0.66146 1.43363,0.66146 0.25311,0 1.13326,0.29766 1.95588,0.66146 0.82262,0.3638 1.72891,0.66146 2.01398,0.66146 0.28506,0 0.92299,0.41671 1.41761,0.92604 0.49462,0.50932 1.08384,0.92604 1.30938,0.92604 0.60424,0 0.87595,1.01882 0.5813,2.17967 -0.35112,1.38332 -2.29298,2.79377 -3.24756,2.35884 -0.34429,-0.15687 -0.68728,-0.18604 -0.76221,-0.0648 -0.0749,0.12123 -0.70425,0.28091 -1.39851,0.35486 -0.69426,0.0739 -1.4471,0.2121 -1.67298,0.30701 -0.22588,0.0949 -0.4931,0.0901 -0.59383,-0.0106 z m 2.9889,-1.96561 c 0,-0.13693 -0.11907,-0.24896 -0.26459,-0.24896 -0.14552,0 -0.26458,0.18562 -0.26458,0.41249 0,0.22686 0.11906,0.3389 0.26458,0.24896 0.14552,-0.0899 0.26459,-0.27555 0.26459,-0.41249 z m 2.38125,-0.0884 c 0,-0.20271 -0.15308,-0.42731 -0.34018,-0.4991 -0.2031,-0.0779 -0.34018,0.0706 -0.34018,0.36857 0,0.2745 0.15308,0.4991 0.34018,0.4991 0.1871,0 0.34018,-0.16585 0.34018,-0.36857 z m -1.32292,-1.32036 c 0,-0.0558 -0.23829,-0.16375 -0.52953,-0.23991 -0.29124,-0.0762 -0.46281,-0.0305 -0.38126,0.10143 0.14241,0.23043 0.91079,0.34725 0.91079,0.13848 z m -166.12805,-20.07663 c -0.3077,-0.63562 -0.55946,-1.36798 -0.55946,-1.62747 0,-0.25948 -0.16242,-0.84697 -0.36094,-1.30552 -0.19851,-0.45856 -0.56995,-1.36952 -0.82542,-2.02436 -0.25547,-0.65485 -0.56005,-1.42875 -0.67684,-1.7198 -0.93098,-2.31984 -2.13321,-7.10312 -2.09476,-8.33437 0.0114,-0.3638 -0.11109,-1.43536 -0.27212,-2.38125 -0.87276,-5.12653 -1.10148,-9.72673 -0.67091,-13.49375 0.38671,-3.38332 1.02727,-7.54875 1.3427,-8.73125 0.30974,-1.16119 2.2471,-4.87872 2.7798,-5.33408 0.28265,-0.2416 0.51391,-0.67895 0.51391,-0.97188 0,-0.54655 1.1313,-2.10061 1.84764,-2.53809 0.22073,-0.13481 1.12581,-0.93848 2.01129,-1.78594 0.88549,-0.84746 1.74869,-1.54084 1.91823,-1.54084 0.16954,0 0.30826,-0.11906 0.30826,-0.26459 0,-0.14552 0.1205,-0.26458 0.26779,-0.26458 0.14728,0 1.18907,-0.42489 2.3151,-0.9442 3.14479,-1.45034 3.54652,-1.61394 4.82544,-1.96518 0.65485,-0.17984 1.54781,-0.46201 1.98438,-0.62703 0.51481,-0.19461 3.11824,-0.29972 7.40833,-0.29912 6.53037,9.2e-4 6.64064,0.0101 8.66128,0.72445 1.12568,0.39794 2.61396,0.97493 3.30729,1.28221 0.69333,0.30728 1.49872,0.65461 1.78976,0.77185 1.96984,0.79347 4.26003,2.08897 5.46632,3.09213 0.77707,0.64622 1.84254,1.35185 2.36771,1.56808 0.52517,0.21623 1.11621,0.69462 1.31341,1.0631 0.1972,0.36847 1.10696,1.26548 2.0217,1.99336 0.91474,0.72788 1.66316,1.43132 1.66316,1.5632 0,0.30861 0.91996,1.39621 2.20012,2.60102 0.55522,0.52255 1.23953,1.39125 1.52069,1.93044 0.28116,0.5392 0.98494,1.47836 1.56395,2.08702 0.57901,0.60867 1.12311,1.32837 1.20911,1.59934 0.086,0.27096 0.26741,0.49266 0.40312,0.49266 0.13572,0 0.24676,0.1786 0.24676,0.39688 0,0.21828 0.11906,0.39687 0.26458,0.39687 0.14552,0 0.26458,0.13518 0.26458,0.30039 0,0.16522 0.26789,0.55857 0.59532,0.87413 0.84589,0.81523 1.91689,2.07975 2.44799,2.89031 0.25021,0.38186 0.88821,1.15101 1.41779,1.70922 0.52957,0.55821 1.79811,1.89842 2.81896,2.97825 1.79089,1.89435 4.70031,4.56834 6.34599,5.83248 0.43656,0.33535 0.8896,0.76398 1.00675,0.95251 0.11715,0.18853 0.5934,0.50513 1.05833,0.70356 0.79942,0.34119 1.48549,0.83952 2.69742,1.9593 0.76998,0.71144 1.74812,1.26971 2.58641,1.47619 0.40389,0.0995 0.94362,0.39015 1.1994,0.64594 0.25579,0.25578 0.93737,0.67524 1.51463,0.93213 0.57725,0.25688 1.28768,0.60287 1.57872,0.76887 1.51624,0.86478 3.11208,1.52464 3.68726,1.52464 0.35592,0 0.72072,0.11906 0.81066,0.26458 0.0899,0.14552 0.42438,0.26612 0.74322,0.268 0.31883,0.002 1.3536,0.25469 2.29949,0.56182 4.74856,1.54181 13.00836,1.68343 20.90208,0.35836 1.53023,-0.25687 4.58876,-0.96842 5.23797,-1.21857 0.33427,-0.12881 0.86607,-0.23419 1.18178,-0.23419 0.61779,0 2.88751,-0.78541 3.10525,-1.07454 0.0728,-0.0966 0.84667,-0.52896 1.71979,-0.96077 0.87313,-0.43181 1.82563,-0.92682 2.11667,-1.1 0.29104,-0.17319 1.18401,-0.53783 1.98437,-0.81031 1.26478,-0.43059 3.76305,-1.43776 6.13972,-2.47521 0.71334,-0.31139 0.71576,-0.32194 0.71832,-3.13069 0.001,-1.55003 0.11316,-3.10091 0.24833,-3.44638 0.13517,-0.34548 0.46166,-1.31275 0.72553,-2.1495 0.26387,-0.83674 0.57418,-1.52135 0.68956,-1.52135 0.11539,0 0.2098,-0.17859 0.2098,-0.39687 0,-0.21829 -0.0606,-0.39688 -0.13459,-0.39688 -0.17415,0 -1.57869,1.21778 -2.67016,2.3151 -0.47042,0.47295 -0.93458,0.8599 -1.03147,0.8599 -0.0969,0 -1.09811,0.7132 -2.22492,1.58489 -1.19648,0.9256 -2.42563,1.65179 -2.95474,1.7457 -0.4983,0.0884 -1.38225,0.37174 -1.96433,0.62955 -0.58209,0.25781 -1.35599,0.55129 -1.7198,0.65218 -0.67041,0.18592 -1.08474,0.34281 -2.51354,0.95175 -0.5005,0.21331 -2.55265,0.38479 -5.55468,0.46416 -4.46413,0.11803 -4.81847,0.16497 -5.68382,0.75299 -0.50758,0.34491 -1.2454,0.62711 -1.63959,0.62711 -0.3942,0 -0.7903,0.11907 -0.88024,0.26459 -0.0946,0.15304 -1.74641,0.28166 -3.91822,0.3051 l -3.7547,0.0405 2.49688,0.26475 c 2.56344,0.27182 6.95539,-2.2e-4 9.14479,-0.56641 2.88917,-0.74717 3.4445,-0.85458 3.95059,-0.7641 0.54159,0.0968 0.54178,0.10022 0.0182,0.32355 -0.29104,0.12413 -0.5887,0.29454 -0.66146,0.37869 -0.67676,0.7827 -6.58198,1.95058 -9.92187,1.96225 -3.17214,0.0111 -7.94067,-0.82021 -9.76724,-1.70271 -0.57628,-0.27843 -1.32016,-0.50624 -1.65307,-0.50624 -0.66813,0 -4.48027,-1.91833 -6.29959,-3.17005 -0.63848,-0.43928 -1.32121,-0.7987 -1.51719,-0.7987 -0.19598,0 -0.96164,-0.44648 -1.70148,-0.99218 -0.73984,-0.54571 -1.61092,-1.17078 -1.93574,-1.38907 -0.32483,-0.21828 -0.90693,-0.66462 -1.29356,-0.99186 -0.38663,-0.32724 -0.8518,-0.59514 -1.0337,-0.59531 -0.1819,-1.8e-4 -0.33154,-0.0896 -0.33253,-0.19876 -0.001,-0.10914 -0.41264,-0.4782 -0.91476,-0.82012 -0.99466,-0.67733 -2.4006,-2.36706 -2.16529,-2.60237 0.0806,-0.0806 1.13444,0.62164 2.34182,1.56058 1.20738,0.93893 2.90962,2.15658 3.78274,2.70587 0.87313,0.54929 1.88516,1.26403 2.24896,1.5883 0.3638,0.32427 1.25677,0.80337 1.98438,1.06466 0.7276,0.26129 1.62708,0.75712 1.99885,1.10184 0.37176,0.34472 0.87778,0.62676 1.12448,0.62676 0.2467,0 0.44854,0.10517 0.44854,0.23372 0,0.23397 1.08651,0.62005 1.25913,0.44742 0.0504,-0.0504 -0.36113,-0.3668 -0.91448,-0.70314 -0.55336,-0.33634 -1.06564,-0.69106 -1.1384,-0.78827 -0.0728,-0.0972 -0.37148,-0.25124 -0.66382,-0.34228 -0.29235,-0.091 -0.64953,-0.39324 -0.79375,-0.67154 -0.14422,-0.27829 -0.48266,-0.93109 -0.75209,-1.45067 -0.36695,-0.70763 -0.70975,-0.98592 -1.36617,-1.10907 -0.48196,-0.0904 -1.09496,-0.36498 -1.36221,-0.61014 -0.26726,-0.24516 -1.14076,-0.84599 -1.94113,-1.33518 -0.80036,-0.48919 -1.612,-1.11245 -1.80363,-1.38503 -0.19163,-0.27257 -0.73407,-0.65673 -1.20542,-0.85367 -0.47135,-0.19694 -1.19515,-0.67146 -1.60844,-1.05449 -0.41329,-0.38303 -0.90635,-0.69641 -1.09568,-0.69641 -0.97591,0 -4.86203,-2.60261 -5.42562,-3.63364 -0.17766,-0.32501 -0.56067,-0.66635 -0.85113,-0.75854 -0.29046,-0.0922 -0.79106,-0.45135 -1.11245,-0.79814 -0.32139,-0.34678 -0.69719,-0.63052 -0.83511,-0.63052 -0.26861,0 -2.08739,-1.80106 -3.67381,-3.63802 -0.53411,-0.61846 -1.17058,-1.12448 -1.41438,-1.12448 -0.24379,0 -1.50986,-0.7067 -2.81348,-1.57045 -2.48736,-1.64808 -4.24012,-3.64829 -5.67751,-6.47909 -0.52924,-1.04227 -0.95235,-1.45669 -2.11667,-2.07319 -0.80037,-0.42378 -2.05052,-1.34295 -2.77813,-2.04258 -0.7276,-0.69963 -1.72006,-1.47167 -2.20545,-1.71563 -0.4854,-0.24396 -1.25931,-0.82913 -1.71979,-1.30038 -0.46049,-0.47124 -1.01585,-0.93841 -1.23413,-1.03814 -0.47292,-0.21608 -1.24846,-0.71767 -1.82887,-1.18285 -0.97864,-0.78436 -4.93019,-3.30321 -5.55427,-3.54049 -0.37329,-0.14192 -1.03768,-0.41792 -1.47643,-0.61332 -1.7324,-0.77156 -5.45159,-1.06427 -12.96856,-1.02065 -7.88161,0.0457 -9.43881,0.22698 -11.90625,1.38575 -0.7276,0.3417 -1.38244,0.69533 -1.45521,0.78584 -0.11775,0.14647 -0.86772,0.58448 -2.51354,1.46799 -0.29104,0.15624 -0.58869,0.35297 -0.66146,0.43718 -0.0728,0.0842 -0.77681,0.50067 -1.56456,0.92546 -0.78775,0.4248 -2.03602,1.35427 -2.77393,2.06549 -0.73791,0.71123 -1.79465,1.5791 -2.34831,1.92862 -0.55367,0.34951 -1.10847,0.90323 -1.23289,1.23049 -0.12442,0.32725 -0.74488,1.06698 -1.37878,1.64384 -1.31871,1.20002 -2.60778,2.84384 -2.60778,3.32544 0,0.18015 -0.16484,0.51552 -0.36632,0.74526 -0.20147,0.22974 -0.92571,1.48927 -1.60942,2.79896 -1.16196,2.22582 -1.55614,3.48233 -1.90905,6.08541 -0.0789,0.58209 -0.27891,1.22564 -0.44444,1.43012 -0.39783,0.49144 -0.38142,13.33468 0.0177,13.83467 0.15174,0.19009 0.34419,0.94094 0.42767,1.66855 0.51033,4.44778 0.78502,5.62955 1.90649,8.20208 0.3172,0.7276 0.80258,1.88802 1.07862,2.57869 0.27605,0.69068 0.59121,1.25623 0.70035,1.25677 0.10914,5.5e-4 0.19843,0.21395 0.19843,0.47422 0,0.56817 0.93,2.46271 1.3912,2.83407 0.30692,0.24713 1.96139,2.64991 2.47859,3.59965 0.12719,0.23355 1.06469,1.34221 2.08334,2.46368 1.01865,1.12147 1.89425,2.15821 1.94579,2.30387 0.0515,0.14566 0.15446,0.20407 0.22872,0.12981 0.0743,-0.0743 -0.11673,-0.65507 -0.42443,-1.2907 z m 113.95221,-18.7686 c 0.24695,-0.24695 0.38806,-0.24695 0.635,0 0.24695,0.24694 0.17639,0.3175 -0.3175,0.3175 -0.49388,0 -0.56444,-0.0706 -0.3175,-0.3175 z m 68.20392,18.38211 c 0.51755,-0.25988 1.11374,-0.96211 1.63513,-1.92595 0.75959,-1.4042 0.91432,-1.94788 1.27979,-4.497 l 0.13278,-0.92604 -0.48044,0.79375 c -0.26424,0.43656 -0.6999,1.42213 -0.96813,2.19014 -0.35918,1.02839 -0.93356,1.83571 -2.17957,3.06347 -0.93053,0.9169 -1.62487,1.7341 -1.54297,1.81599 0.20447,0.20447 1.14614,-0.0236 2.12341,-0.51436 z m -0.85708,-2.54832 c 1.34152,-1.40437 1.76335,-2.09475 1.75903,-2.87885 -0.003,-0.51477 -0.20741,-0.38911 -1.45622,0.89444 -0.87474,0.89908 -1.51832,1.82036 -1.61727,2.3151 -0.0904,0.45197 -0.0793,0.82177 0.0246,0.82177 0.10393,0 0.68436,-0.51861 1.28984,-1.15246 z m 5.25771,-2.50709 c 0.10344,-1.11595 0.25057,-2.56478 0.32694,-3.21962 0.10161,-0.87126 -9e-4,-0.65835 -0.38217,0.79375 -0.50723,1.93185 -0.72923,5.04967 -0.33129,4.65278 0.10914,-0.10885 0.28307,-1.11096 0.38652,-2.22691 z m 1.77952,-2.12538 c -0.0211,-2.8794 -0.37329,-2.14918 -0.62068,1.28701 -0.17024,2.36464 -0.15672,2.46865 0.22824,1.75569 0.28398,-0.52592 0.40408,-1.45709 0.39244,-3.0427 z m -6.27123,0.44429 c 0.6935,-0.68177 1.26092,-1.31496 1.26092,-1.40708 0,-0.17808 -1.48252,0.8114 -2.06942,1.3812 -0.1923,0.18669 -0.43728,0.33943 -0.5444,0.33943 -0.19454,0 -1.09035,1.84136 -1.09035,2.24126 0,0.11624 0.26602,-0.13212 0.59116,-0.55193 0.32514,-0.41981 1.15858,-1.3211 1.85209,-2.00288 z m -4.41178,-3.40985 c -0.227,-0.88605 -0.41272,-1.87523 -0.41272,-2.19817 0,-0.32295 -0.098,-0.70029 -0.21783,-0.83853 -0.1198,-0.13825 -0.43414,-0.96573 -0.69852,-1.83885 -0.91838,-3.03297 -1.70244,-4.82953 -1.94751,-4.46246 -0.0984,0.14733 -1.10158,0.95819 -2.22937,1.80191 -1.12779,0.84372 -2.05052,1.57432 -2.05052,1.62356 0,0.19661 1.46725,1.43485 1.71709,1.44909 0.14701,0.008 0.88985,0.75252 1.65076,1.65365 0.76091,0.90112 1.68364,1.96064 2.05052,2.35447 0.36687,0.39383 0.66816,0.81055 0.66953,0.92604 0.001,0.11549 0.38832,0.86483 0.8599,1.66519 l 0.85741,1.45521 0.082,-0.99005 c 0.0451,-0.54453 -0.10374,-1.71501 -0.33073,-2.60106 z m 2.95967,2.25889 c -0.0358,-0.0282 -0.33299,-0.19069 -0.66041,-0.36104 -0.56604,-0.2945 -0.59531,-0.26147 -0.59531,0.67174 v 0.98147 l 0.66041,-0.62043 c 0.36323,-0.34123 0.63112,-0.64351 0.59531,-0.67174 z m 3.79139,-1.35851 0.64143,-0.70636 -0.71929,0.50792 c -0.39561,0.27936 -0.72303,0.59722 -0.72761,0.70636 -0.0136,0.32582 0.13143,0.23434 0.80547,-0.50792 z m -2.18213,-0.25957 c 0.53128,-0.14227 0.42951,-0.23064 -0.73992,-0.64247 -0.84677,-0.2982 -1.69673,-0.85585 -2.26352,-1.48507 -0.69964,-0.77671 -0.90901,-0.89569 -0.91374,-0.51925 -0.009,0.7407 1.02864,2.03936 1.95079,2.44078 0.94609,0.41184 1.12694,0.43079 1.96639,0.20601 z m 1.48976,-1.31547 c 0.34913,-0.13397 0.29813,-0.23276 -0.27319,-0.52916 -0.38635,-0.20045 -0.97948,-0.36444 -1.31806,-0.36444 -0.33858,0 -0.6803,-0.10469 -0.75938,-0.23265 -0.18846,-0.30494 -1.21036,-0.56955 -1.21036,-0.31341 0,0.10898 0.44648,0.41292 0.99218,0.67543 0.54571,0.26251 1.17079,0.57191 1.38907,0.68756 0.50648,0.26836 0.65506,0.27801 1.17974,0.0767 z m 1.86997,-0.8425 c -0.0815,-0.0815 -0.29496,-1.7e-4 -0.47444,0.18065 -0.25936,0.26131 -0.22897,0.2917 0.14812,0.14811 0.26093,-0.0994 0.40778,-0.2473 0.32632,-0.32876 z m -5.69555,-1.05614 c 0,-0.1162 -0.48303,-0.71397 -1.0734,-1.32837 -0.59037,-0.6144 -1.24055,-1.50159 -1.44485,-1.97153 -0.2043,-0.46994 -0.37611,-0.65969 -0.38181,-0.42166 -0.0164,0.68654 0.66749,1.81691 1.75942,2.90792 1.09584,1.09493 1.14064,1.12689 1.14064,0.81364 z m 7.14375,-0.0905 c 0,-0.12508 -0.32742,-0.23131 -0.7276,-0.23606 -0.65728,-0.008 -2.20356,-0.48422 -4.05858,-1.25046 -0.7487,-0.30927 -2.88673,-2.5982 -2.88673,-3.09048 0,-0.43211 -1.987,-2.44925 -2.85082,-2.89406 -0.54426,-0.28026 -0.7906,-0.2962 -1.00466,-0.065 -0.39909,0.43099 0.39033,1.78958 1.29615,2.23064 0.39074,0.19026 1.11427,0.96417 1.60786,1.71979 1.50378,2.30213 2.70211,3.28511 4.52334,3.71046 0.90666,0.21175 4.10104,0.11454 4.10104,-0.1248 z m 1.45521,0.0372 c 0.0899,-0.14552 0.0374,-0.26458 -0.11668,-0.26458 -0.1541,0 -0.28019,0.11906 -0.28019,0.26458 0,0.14552 0.0525,0.26459 0.11667,0.26459 0.0642,0 0.19026,-0.11907 0.2802,-0.26459 z m -1.85936,-1.69045 c -0.28704,-0.20214 -0.92311,-1.24951 -1.4135,-2.32747 -0.72292,-1.58911 -1.09066,-2.07449 -1.94367,-2.56542 l -1.05207,-0.6055 -0.38643,0.55172 c -0.26672,0.3808 -0.68915,0.55818 -1.36362,0.5726 -0.53745,0.0115 -0.82835,0.0809 -0.64645,0.15434 0.1819,0.0734 0.33073,0.241 0.33073,0.37245 0,0.98645 3.05343,3.67945 4.18354,3.6897 0.24566,0.002 0.62526,0.11947 0.84354,0.26053 0.21828,0.14107 0.75079,0.25831 1.18335,0.26054 0.74499,0.004 0.75895,-0.0153 0.26458,-0.36349 z m -90.54637,-2.98266 c -0.1819,-0.0734 -0.47956,-0.0734 -0.66146,0 -0.1819,0.0734 -0.0331,0.13345 0.33073,0.13345 0.3638,0 0.51263,-0.06 0.33073,-0.13345 z m 66.43155,-2.31642 c 0.0791,-0.20624 -0.0369,-0.44436 -0.25792,-0.52916 -0.73242,-0.28106 -0.91531,-0.17101 -0.62311,0.37497 0.33204,0.62041 0.67883,0.68111 0.88103,0.15419 z m 15.43184,-1.3334 c -0.0895,-0.23314 -0.47237,-0.40769 -0.89258,-0.40689 l -0.73591,10e-4 0.79375,0.49164 c 0.87813,0.5439 1.06895,0.52421 0.83474,-0.0861 z m -13.21588,-2.26073 c 0.30142,-0.65505 1.0376,-1.72655 1.63595,-2.38113 0.59834,-0.65458 1.0879,-1.26105 1.0879,-1.3477 0,-0.49904 -0.81184,-0.9412 -6.74688,-3.67463 -0.58208,-0.26808 -1.59411,-0.62525 -2.24896,-0.79371 -0.65484,-0.16846 -1.66687,-0.43513 -2.24896,-0.59261 -0.58208,-0.15748 -2.63591,-0.33416 -4.56406,-0.39262 l -3.50573,-0.10629 -0.003,1.40338 c -0.002,0.77186 -0.18017,1.98785 -0.39687,2.7022 -0.21671,0.71435 -0.39401,1.37151 -0.39401,1.46035 0,0.0888 0.89315,0.11643 1.98479,0.0613 1.61043,-0.0813 2.20874,0.005 3.17212,0.45788 0.65302,0.30696 1.59045,0.55811 2.08317,0.55811 1.96551,0 2.64332,0.32412 4.5221,2.16238 1.0154,0.9935 1.90969,1.81041 1.98731,1.81534 0.0776,0.005 0.60998,0.2307 1.18301,0.50169 1.03531,0.48959 1.04459,0.48912 1.4729,-0.0751 0.23707,-0.3123 0.67766,-1.10377 0.97908,-1.75881 z m -87.32898,-6.74651 c -0.21828,-0.21829 -0.47949,-0.39688 -0.58047,-0.39688 -0.10097,0 -0.0354,0.17859 0.14579,0.39688 0.18116,0.21828 0.44237,0.39687 0.58047,0.39687 0.13809,0 0.0725,-0.17859 -0.14579,-0.39687 z m 0.99554,-2.38158 c 0.42282,-0.36362 0.84949,-0.66113 0.94816,-0.66113 0.27776,0 2.38354,-2.00506 2.38872,-2.27446 0.003,-0.1315 0.70116,-0.99233 1.55251,-1.91297 0.85135,-0.92064 1.90845,-2.40892 2.3491,-3.30729 0.44066,-0.89837 1.09391,-2.22872 1.45167,-2.95632 0.35777,-0.72761 0.89172,-1.74769 1.18656,-2.26686 0.29484,-0.51917 0.61677,-1.3526 0.7154,-1.85208 0.17244,-0.87333 0.47683,-1.71489 0.97312,-2.69049 0.12854,-0.25269 0.23371,-0.58099 0.23371,-0.72956 0,-0.43285 2.8681,-4.52099 4.08484,-5.82247 0.61221,-0.65485 1.32501,-1.72641 1.58401,-2.38125 0.25899,-0.65485 0.57773,-1.39737 0.70831,-1.65006 0.13058,-0.25268 0.23742,-0.69214 0.23742,-0.97657 0,-0.28443 0.11907,-0.59073 0.26459,-0.68066 0.14552,-0.0899 0.25703,-0.54345 0.24781,-1.00781 -0.0153,-0.77096 -0.0375,-0.79258 -0.25606,-0.24896 -0.46374,1.15373 -0.96772,0.69314 -1.12369,-1.02695 -0.0866,-0.95555 -0.31922,-1.79438 -0.56592,-2.04107 -0.38202,-0.38203 -0.41881,-0.31063 -0.41881,0.81289 0,1.28267 -0.40889,1.91213 -0.70239,1.08127 -0.57077,-1.61577 -0.97025,-2.30921 -1.07663,-1.86885 -0.12846,0.53174 -0.30602,0.54887 -1.89392,0.18279 -1.20559,-0.27794 -1.75527,-0.13236 -1.0819,0.28654 0.31993,0.19903 0.33034,0.33712 0.0585,0.77578 -0.1819,0.2935 -0.33073,0.68739 -0.33073,0.87531 0,0.18791 -0.23949,0.54672 -0.53219,0.79734 -1.37563,1.17785 -2.95572,-0.012 -3.17042,-2.38742 -0.17682,-1.95628 -0.67591,-2.09441 -0.8673,-0.24004 -0.1209,1.17141 -0.0326,1.66906 0.48291,2.72137 0.48443,0.98889 0.63279,1.73306 0.63914,3.20604 0.005,1.05502 0.1146,1.91823 0.24455,1.91823 0.68213,0 0.44879,1.90197 -0.50312,4.10104 -0.12599,0.29104 -0.29744,0.77606 -0.38101,1.07783 -0.0836,0.30177 -0.35895,0.77812 -0.61194,1.05855 -0.253,0.28044 -0.81359,0.98603 -1.24577,1.568 -0.43217,0.58196 -0.87995,1.17718 -0.99506,1.3227 -0.11512,0.14552 -0.44475,0.57926 -0.73252,0.96387 -0.28777,0.38461 -1.02371,0.96017 -1.63543,1.27901 -0.61171,0.31884 -1.65489,1.05792 -2.31817,1.6424 -0.66328,0.58448 -1.53339,1.23237 -1.93357,1.43977 -0.48266,0.25014 -0.7276,0.58794 -0.7276,1.00344 0,0.34449 -0.15303,0.68507 -0.34005,0.75684 -0.26171,0.10043 -0.34015,-0.42645 -0.34046,-2.28679 -4.9e-4,-2.9868 -0.66143,-5.4745 -1.80863,-6.80758 -1.38409,-1.60833 -1.79354,-2.14538 -2.33394,-3.06129 -0.28647,-0.48554 -0.61459,-0.88279 -0.72916,-0.88279 -0.51483,0 -1.10026,-1.90301 -0.91775,-2.98324 0.40188,-2.37875 1.31482,-2.77224 1.04536,-0.45058 -0.14847,1.27918 -0.0958,1.72934 0.26733,2.28349 1.38807,2.11846 2.50259,2.73347 4.95886,2.73635 0.69122,8.1e-4 1.25677,0.0967 1.25677,0.21314 0,0.52607 -0.7401,0.84667 -1.9545,0.84667 h -1.3195 l 0.71096,0.74208 c 0.39103,0.40815 0.71096,1.03918 0.71096,1.40229 0,0.36312 0.10039,0.77332 0.22309,0.91157 0.27988,0.31534 1.05279,2.91788 1.15531,3.89018 0.0767,0.727 0.0804,0.72533 1.90984,-0.8599 1.00817,-0.87357 1.97222,-1.58831 2.14233,-1.58831 0.69706,0 2.24867,-2.0303 1.79635,-2.35056 -0.1266,-0.0896 -0.88172,-0.58975 -1.67803,-1.11137 -2.11101,-1.38278 -2.2416,-1.60945 -2.2416,-3.89091 0,-1.70253 -0.0736,-2.01863 -0.52917,-2.27327 -0.29104,-0.16267 -0.59287,-0.38044 -0.67073,-0.48393 -0.0779,-0.1035 -0.5933,-0.37693 -1.14542,-0.60762 -0.55212,-0.23069 -1.32772,-0.74132 -1.72355,-1.13474 -1.07382,-1.06726 -3.07628,-2.44997 -5.08882,-3.51387 -0.98474,-0.52056 -1.94649,-1.06937 -2.13721,-1.21958 -0.19072,-0.15021 -0.94208,-0.48812 -1.66968,-0.7509 -0.72761,-0.26279 -1.43603,-0.57717 -1.57428,-0.69864 -0.13824,-0.12147 -1.98371,-0.22922 -4.10104,-0.23945 -3.99043,-0.0193 -5.75241,-0.28011 -3.97757,-0.58882 1.97463,-0.34346 8.17793,-0.21402 9.38512,0.19583 1.45051,0.49246 5.79158,2.7562 5.91221,3.08305 0.0485,0.13142 0.23102,0.23895 0.40559,0.23895 0.36848,0 1.2224,0.64413 3.41989,2.57969 0.86738,0.76398 1.74481,1.38906 1.94985,1.38906 0.35385,0 1.65882,0.72541 1.94168,1.07936 0.0728,0.091 0.78714,0.36803 1.5875,0.61554 0.80037,0.2475 1.63859,0.54812 1.86272,0.66804 0.22412,0.11992 1.26592,0.30425 2.3151,0.40961 2.06747,0.20763 2.20057,0.10872 1.66689,-1.23874 -0.13239,-0.33427 -0.39303,-1.50074 -0.57921,-2.59214 -0.18617,-1.09141 -0.62663,-2.56333 -0.9788,-3.27095 -0.52814,-1.06119 -0.5889,-1.3994 -0.34684,-1.93068 0.36879,-0.8094 0.37832,-0.76418 -0.16954,-0.80429 -1.53119,-0.11209 -4.59876,-0.75976 -5.57819,-1.17775 -0.63053,-0.26908 -1.37216,-0.48925 -1.64807,-0.48925 -0.44879,0 -2.26174,-0.53767 -5.80447,-1.72144 -0.65485,-0.21881 -1.61727,-0.39725 -2.13872,-0.39653 -0.52145,7.2e-4 -1.02002,-0.0706 -1.10793,-0.15853 -0.19432,-0.19432 -5.8812,-2.21531 -6.80752,-2.41924 -0.3638,-0.0801 -0.72099,-0.22739 -0.79375,-0.32733 -0.0728,-0.0999 -0.94081,-0.3824 -1.929,-0.62769 -1.07051,-0.26572 -2.32595,-0.81798 -3.10614,-1.36636 -0.72019,-0.50621 -1.40491,-0.92038 -1.52161,-0.92038 -0.11669,0 -0.65397,-0.41672 -1.19395,-0.92604 -0.53998,-0.50932 -1.05893,-0.92604 -1.15323,-0.92604 -0.3692,0 -2.99743,-1.39509 -3.28814,-1.74538 -0.16948,-0.20421 -0.41499,-0.37129 -0.54559,-0.37129 -0.13059,0 -0.70896,-0.29765 -1.28526,-0.66146 -0.5763,-0.3638 -1.17955,-0.66145 -1.34055,-0.66145 -0.161,0 -0.81801,-0.37723 -1.46003,-0.83829 -0.64201,-0.46106 -1.22629,-0.77929 -1.29839,-0.70718 -0.0721,0.0721 0.28488,0.61709 0.79331,1.21107 0.50843,0.59399 0.92441,1.14807 0.92441,1.23129 0,0.0832 -0.53578,0.0779 -1.19062,-0.0119 -0.9265,-0.12699 -1.19063,-0.0802 -1.19063,0.21078 0,0.52952 0.75243,1.54918 1.82716,2.47608 1.20233,1.03695 1.88941,1.72665 2.53847,2.54814 0.29104,0.36836 0.74883,0.74999 1.0173,0.84808 0.26848,0.0981 0.55026,0.41585 0.62618,0.70616 0.0759,0.29031 0.2432,0.52783 0.37175,0.52783 0.12855,0 0.23373,0.29185 0.23373,0.64855 0,0.3567 0.17859,1.33422 0.39687,2.17225 0.21828,0.83804 0.39688,1.90483 0.39688,2.37064 0,0.62092 0.21723,1.02973 0.81405,1.53191 0.91833,0.77273 1.53593,0.84955 2.57252,0.31997 0.39296,-0.20075 1.12885,-0.45436 1.63532,-0.56357 0.84199,-0.18157 0.88927,-0.16052 0.55214,0.2457 -0.20279,0.24435 -0.99517,0.75101 -1.76083,1.12592 -2.48396,1.21628 -4.32928,0.19413 -4.74642,-2.6291 -0.1024,-0.69302 -0.2915,-1.32512 -0.42023,-1.40468 -0.12873,-0.0796 -0.23405,-0.39706 -0.23405,-0.70557 0,-0.3085 -0.11494,-0.92655 -0.25541,-1.37344 -0.14047,-0.4469 -0.32946,-1.16973 -0.41996,-1.60629 l -0.16455,-0.79375 -0.33477,0.96937 c -0.4618,1.33721 -1.40984,2.41717 -2.65097,3.01986 l -1.04753,0.50869 1.17935,0.0846 c 0.64863,0.0465 1.39882,0.2832 1.66707,0.52596 0.68759,0.62226 1.4976,2.39396 1.4976,3.27563 0,0.63853 0.10507,0.74406 0.74083,0.74406 0.98513,0 1.37584,0.44172 1.37584,1.55548 0,0.50627 0.10976,1.28613 0.24392,1.73302 0.76542,2.5497 1.07899,3.84534 1.07899,4.4582 0,0.3788 0.10557,0.75397 0.23459,0.83372 0.12903,0.0797 0.31302,0.56301 0.40887,1.07394 0.0958,0.51093 0.26902,0.92897 0.38482,0.92897 0.20651,0 0.82606,1.01408 2.67589,4.37988 0.50932,0.92673 1.16417,1.96382 1.45521,2.30466 0.29104,0.34083 0.76061,1.03007 1.04348,1.53164 0.64117,1.13685 0.95493,1.45822 1.6342,1.67381 0.29498,0.0936 0.77053,0.37722 1.05679,0.63022 1.74178,1.53943 1.7091,1.54344 0.88782,-0.10899 -0.42308,-0.85122 -0.77296,-1.81644 -0.77753,-2.14493 -0.0152,-1.09058 -1.40899,-3.21187 -3.36657,-5.12364 -1.06337,-1.03849 -1.9334,-1.9848 -1.9334,-2.10292 0,-0.57908 0.59927,-0.44777 1.3806,0.30251 0.4776,0.45862 1.37579,1.18436 1.99598,1.61276 1.12181,0.7749 2.70152,3.09849 2.70635,3.98076 0.003,0.55207 2.02352,4.50347 2.64254,5.16792 0.24473,0.26268 0.67357,0.83169 0.95298,1.26445 0.72581,1.12418 1.37196,1.85802 2.99313,3.39933 0.78473,0.74607 1.55864,1.51386 1.71979,1.70619 1.0666,1.27295 2.82029,2.58652 4.40355,3.2984 2.07533,0.93312 2.09527,0.9383 3.69466,0.9609 1.18839,0.0168 1.59617,-0.10066 2.22397,-0.64057 z m -5.49025,-1.67415 c -0.24084,-0.26612 -0.43788,-0.61339 -0.43788,-0.7717 0,-0.15832 -0.0893,-0.32754 -0.19844,-0.37605 -0.29233,-0.12992 -1.65365,-1.99863 -1.65365,-2.26999 0,-0.53248 -1.56475,-1.6355 -3.10459,-2.18847 -0.90715,-0.32578 -1.79056,-0.76244 -1.96313,-0.97036 -0.26824,-0.32321 -0.10575,-0.3508 1.12022,-0.19019 2.52396,0.33066 4.74125,1.61975 4.74125,2.75646 0,0.23824 0.28098,0.69712 0.62439,1.01974 0.34341,0.32262 0.84942,1.05638 1.12448,1.63058 0.27505,0.57421 0.58939,1.04538 0.69853,1.04705 0.10914,0.002 0.19844,0.18162 0.19844,0.39991 0,0.54532 -0.61984,0.49842 -1.14962,-0.087 z m 2.01296,-1.96354 c -1.32849,-0.93153 -1.53475,-2.02214 -0.21945,-1.16032 0.86253,0.56515 2.99211,0.55815 4.13822,-0.0136 0.97095,-0.48437 2.8908,-2.26398 2.8908,-2.67962 0,-0.26763 0.79329,-0.66688 0.97132,-0.48886 0.38997,0.38998 -2.20187,3.87938 -2.88151,3.87938 -0.14041,0 -0.55803,0.23813 -0.92803,0.52917 -0.94881,0.74634 -2.85799,0.71454 -3.97135,-0.0661 z m -9.59459,-16.2919 c 0,-0.12016 0.29765,-0.4981 0.66146,-0.83988 0.64786,-0.60864 0.66145,-0.70199 0.66145,-4.54403 0,-2.15745 0.10493,-3.92263 0.23318,-3.92263 0.40311,0 0.82527,2.2676 0.82224,4.41664 -0.004,2.72918 -0.21828,3.90368 -0.83326,4.56377 -0.49806,0.53461 -1.54507,0.75561 -1.54507,0.32613 z m -13.75834,-7.93525 c 0,-0.37834 0.37199,-0.71959 1.25677,-1.15291 1.1252,-0.55106 1.30467,-0.76502 1.71426,-2.04363 0.51033,-1.59314 1.24307,-2.60274 1.54013,-2.12208 0.10147,0.16418 0.0878,0.61348 -0.0304,0.99844 -0.11818,0.38496 -0.36742,1.23571 -0.55388,1.89056 -0.46453,1.63142 -0.35763,1.54713 -3.59618,2.83546 -0.19921,0.0793 -0.33073,-0.0821 -0.33073,-0.40584 z m 4.63021,-9.0899 c -0.58208,-0.13718 -1.47505,-0.31494 -1.98437,-0.39503 -1.19777,-0.18834 -2.11667,-1.22093 -2.11667,-2.37856 0,-1.14976 0.27166,-1.11807 0.92604,0.10802 0.40576,0.76024 0.71429,1.0099 1.32292,1.0705 0.98921,0.0985 3.32848,0.82906 3.7674,1.17658 0.1803,0.14276 0.26257,0.36513 0.18282,0.49416 -0.17227,0.27874 -0.6706,0.26076 -2.09814,-0.0757 z m 49.9046,32.13046 c 0.71075,-0.25243 1.29228,-0.56043 1.29228,-0.68444 0,-0.124 -0.35719,-0.36028 -0.79375,-0.52507 -0.43656,-0.16478 -0.79375,-0.39257 -0.79375,-0.50618 0,-0.11362 -0.15005,-0.20658 -0.33343,-0.20658 -0.18339,0 -0.65445,-0.29766 -1.04679,-0.66146 -0.39234,-0.3638 -0.78659,-0.66146 -0.87609,-0.66146 -0.0895,0 -0.33942,-0.17667 -0.55536,-0.39262 -0.34711,-0.3471 -0.51361,-0.26543 -1.43631,0.70453 -0.57403,0.60343 -1.04369,1.19408 -1.04369,1.31256 0,0.44901 2.92617,1.97581 3.93324,2.05227 0.19875,0.0151 0.94289,-0.17911 1.65365,-0.43155 z m 4.49979,-2.54162 c 1.10929,-0.53248 2.3313,-0.96815 2.71557,-0.96815 0.38428,0 0.90543,-0.10905 1.15811,-0.24234 1.20603,-0.63615 2.45065,-1.08058 3.02619,-1.08058 0.34909,0 0.74781,-0.0998 0.88606,-0.22176 0.13824,-0.12197 1.26338,-0.43889 2.50031,-0.70428 1.23693,-0.26538 2.36207,-0.58231 2.50031,-0.70428 0.13825,-0.12197 0.73356,-0.22358 1.32292,-0.22581 1.93208,-0.007 2.12576,-0.63342 0.4101,-1.3257 -0.50932,-0.20551 -1.40229,-0.79406 -1.98437,-1.30789 -0.58209,-0.51383 -1.47506,-1.16682 -1.98438,-1.45109 -0.50932,-0.28427 -1.47656,-1.06725 -2.14942,-1.73994 -0.67285,-0.6727 -1.62535,-1.41453 -2.11666,-1.6485 -0.49131,-0.23398 -1.13498,-0.64163 -1.43038,-0.90589 -0.2954,-0.26426 -0.9418,-0.70817 -1.43645,-0.98645 -0.49464,-0.27828 -1.14592,-0.71753 -1.44728,-0.9761 -0.30136,-0.25857 -1.26231,-0.84234 -2.13543,-1.29727 -0.87313,-0.45493 -1.94469,-1.14941 -2.38125,-1.54329 -0.88944,-0.80247 -2.41285,-1.89508 -2.64229,-1.89508 -0.0826,0 -1.4189,-0.83344 -2.96958,-1.85208 -1.55067,-1.01865 -2.91667,-1.85208 -3.03554,-1.85208 -0.11888,0 -0.21614,-0.11907 -0.21614,-0.26459 0,-0.14552 -0.14882,-0.26151 -0.33072,-0.25776 -0.36426,0.008 -1.25678,1.75787 -1.25678,2.4647 0,0.24534 -0.11053,0.65282 -0.24562,0.90551 -0.1351,0.25268 -0.50933,1.03824 -0.83163,1.74568 l -0.586,1.28626 0.89777,0.87127 c 1.0838,1.05181 1.55519,1.62268 1.57125,1.90286 0.007,0.11528 0.53802,0.74381 1.1809,1.39673 1.25838,1.27801 1.23772,1.98963 -0.038,1.30784 -0.71358,-0.38136 -2.74245,-2.84802 -2.74245,-3.33419 0,-0.14409 -0.29765,-0.42128 -0.66145,-0.61598 -0.36381,-0.1947 -0.66146,-0.45295 -0.66146,-0.57388 0,-0.52561 -1.06916,-0.1511 -1.69627,0.59418 -0.8949,1.06352 -0.86728,1.31694 0.26033,2.38859 2.34483,2.22845 3.5526,3.53478 3.5526,3.84252 0,0.18329 0.35719,0.54425 0.79375,0.80213 0.43657,0.25789 0.79375,0.53381 0.79375,0.61317 0,0.0793 0.41444,0.61923 0.92097,1.19972 0.50653,0.58049 0.92325,1.20427 0.92604,1.38617 0.003,0.1819 0.11073,0.33073 0.23986,0.33073 0.12913,0 0.91105,0.837 1.73759,1.86 1.38233,1.71088 2.39454,2.54658 4.50992,3.72347 0.43656,0.24289 0.85328,0.4146 0.92604,0.3816 0.0728,-0.033 1.03989,-0.49568 2.14918,-1.02817 z m -9.8616,-0.98561 1.15113,-1.31654 -0.88654,-1.18411 c -0.4876,-0.65126 -1.40225,-1.75009 -2.03255,-2.44185 -1.63789,-1.79759 -1.96532,-2.18797 -2.8303,-3.37441 -0.42437,-0.58209 -1.34042,-1.59444 -2.03566,-2.24967 -0.69524,-0.65523 -1.2652,-1.42914 -1.26658,-1.71979 -0.004,-0.74239 -1.12951,1.18218 -1.86697,3.19107 -0.31742,0.86467 -0.68148,1.68525 -0.80903,1.82349 -0.12755,0.13825 -0.23191,0.52902 -0.23191,0.86839 0,0.33938 -0.17588,1.03798 -0.39085,1.55247 -0.37921,0.90759 -0.36938,0.95417 0.33073,1.56577 0.39687,0.3467 1.13829,0.84467 1.64762,1.10661 0.50932,0.26193 0.98557,0.53864 1.05833,0.6149 0.40801,0.42765 3.06456,1.58285 3.66244,1.59261 0.38675,0.006 1.17944,0.29571 1.76152,0.64312 0.58208,0.3474 1.1774,0.63453 1.32292,0.63807 0.14552,0.004 0.78259,-0.58603 1.4157,-1.31013 z m 22.24824,-7.67172 c -0.29999,-0.29999 -0.74648,-0.5028 -0.99219,-0.45069 -0.34002,0.0721 -0.25712,0.19989 0.347,0.53484 1.07805,0.59773 1.29833,0.56899 0.64519,-0.0841 z m -39.80709,-3.24966 c 0.49206,-0.49206 2.5171,-3.82843 2.5171,-4.14707 0,-0.14296 -0.62507,-0.26515 -1.38906,-0.27153 -0.76398,-0.006 -1.86531,-0.18319 -2.44739,-0.3929 -0.58209,-0.2097 -1.3192,-0.38307 -1.63804,-0.38526 -0.31883,-0.002 -0.65328,-0.12304 -0.74321,-0.26856 -0.35807,-0.57937 -0.52917,-0.19502 -0.52917,1.18871 0,1.57391 -0.0415,1.51412 2.51748,3.62804 1.38761,1.14628 1.26211,1.09874 1.71229,0.64857 z m -32.45796,-1.68429 c -0.41909,-0.83084 -0.92718,-1.69405 -1.1291,-1.91823 -0.20191,-0.22418 -0.44891,-0.73537 -0.54889,-1.13598 -0.21543,-0.8632 -1.30693,-1.8358 -3.05344,-2.72082 -0.69656,-0.35298 -1.33695,-0.7558 -1.42308,-0.89517 -0.37352,-0.60436 -3.11216,-1.92426 -3.74258,-1.80375 -0.62956,0.12035 -2.28076,-0.30305 -2.65971,-0.68201 -0.0997,-0.0997 -0.429,-0.18132 -0.7317,-0.18132 -0.61819,0 0.29922,0.70844 4.65613,3.59562 1.4093,0.93389 2.81639,2.05473 3.12687,2.49076 0.31048,0.43603 0.74769,0.79278 0.97157,0.79278 0.22388,0 1.25757,0.81764 2.29709,1.81697 1.67189,1.60727 2.26887,2.05498 2.84129,2.13089 0.0866,0.0115 -0.18537,-0.65889 -0.60445,-1.48974 z m -2.77875,-7.55135 c -0.24949,-3.29086 -0.35166,-3.44771 -1.76549,-2.71035 -0.41682,0.21739 -1.07166,0.39947 -1.45521,0.40462 -0.38355,0.005 -0.97524,0.16352 -1.31486,0.35191 l -0.61749,0.34254 0.67433,0.44184 c 0.37088,0.24301 0.75416,0.44184 0.85174,0.44184 0.0976,0 0.42918,0.26957 0.73691,0.59904 0.56561,0.60558 2.16619,1.50051 2.70348,1.5116 0.18956,0.004 0.25497,-0.48096 0.18659,-1.38304 z m 41.1934,-4.54442 c 0,-0.21287 -0.37636,-0.40256 -0.92604,-0.46673 -1.06846,-0.12474 -1.06041,-0.13622 -0.50213,0.71582 0.34296,0.52342 0.51982,0.59566 0.92605,0.37825 0.27616,-0.1478 0.50212,-0.4301 0.50212,-0.62734 z m -59.79584,0.39507 c 0,-0.37232 -0.7858,-0.54741 -2.18369,-0.48657 -1.74467,0.0759 -1.57365,0.42239 0.26546,0.53779 0.83675,0.0525 1.61065,0.11798 1.71979,0.1455 0.10915,0.0275 0.19844,-0.061 0.19844,-0.19672 z m 59.98876,-2.02977 c -0.0879,-0.0879 -0.31612,-0.0973 -0.50712,-0.0209 -0.21106,0.0845 -0.14837,0.14716 0.15986,0.15985 0.27891,0.0115 0.43518,-0.051 0.34726,-0.13896 z m -45.10594,-5.19645 c 0.75418,-0.87216 0.9308,-1.63063 0.44905,-1.92837 -0.1532,-0.0947 -0.22882,-0.31007 -0.16804,-0.47864 0.0608,-0.16856 -0.0103,-0.54037 -0.158,-0.82623 -0.23517,-0.45523 -0.32114,-0.3567 -0.69259,0.79375 -0.69082,2.13961 -0.89255,2.35962 -2.11877,2.31073 -0.89857,-0.0358 -1.08197,0.0413 -1.08197,0.45523 0,0.36307 0.23348,0.52861 0.8599,0.60968 1.41803,0.18352 2.14417,-0.05 2.91042,-0.93615 z m -3.05594,-1.25828 c 0.91823,0 1.13771,-0.0917 1.13771,-0.47518 0,-0.40967 -0.16925,-0.45527 -1.22749,-0.33073 -1.00231,0.11795 -1.27201,0.26579 -1.47017,0.80591 -0.19467,0.53061 -0.17691,0.59603 0.0898,0.33073 0.18285,-0.1819 0.84443,-0.33073 1.47017,-0.33073 z m 0.99016,-2.09199 c 0.0815,-0.13195 -0.09,-0.1776 -0.38126,-0.10144 -0.61779,0.16156 -0.69589,0.34135 -0.14827,0.34135 0.2097,0 0.44799,-0.10796 0.52953,-0.23991 z m -0.73113,-1.40075 c 0.48327,-0.17475 0.87868,-0.41253 0.87868,-0.5284 0,-0.11587 -0.39946,-0.6575 -0.88769,-1.20362 -0.48823,-0.54612 -0.95508,-1.17154 -1.03744,-1.38982 -0.11911,-0.31564 -0.15404,-0.3021 -0.17065,0.0661 -0.0115,0.25466 -0.19084,0.46302 -0.39856,0.46302 -0.64986,0 -1.41842,-1.27684 -1.61089,-2.67625 -0.17726,-1.28882 -0.21315,-1.33647 -0.88404,-1.17379 -0.3846,0.0933 -1.11599,0.26217 -1.62532,0.37536 -1.25529,0.27896 -2.42424,0.87681 -2.65528,1.35802 -0.41945,0.87361 -0.7843,2.33225 -0.7843,3.13556 v 0.84903 l 0.77578,-0.57356 c 0.65899,-0.48721 0.9813,-0.54629 2.14098,-0.39246 0.75087,0.0996 1.80075,0.44699 2.33308,0.77197 1.78877,1.09201 2.02427,1.20536 2.53658,1.22098 0.28071,0.009 0.90579,-0.12742 1.38907,-0.30218 z m 11.67492,-2.62672 c 0.47147,-1.85745 -0.0937,-2.61179 -1.95693,-2.61179 -0.57163,0 -1.07023,-0.19065 -1.34847,-0.51561 -0.50894,-0.5944 -0.80978,-0.48745 -1.15062,0.40902 -0.13294,0.34967 -0.33395,0.63197 -0.4467,0.62734 -0.46839,-0.0192 -1.08576,-0.71744 -1.17146,-1.32487 -0.0789,-0.55959 -0.25029,-0.66254 -1.2192,-0.73259 -1.00381,-0.0726 -1.16904,-0.18128 -1.50785,-0.99219 -0.44234,-1.05865 -1.15735,-1.19176 -2.16099,-0.40229 -0.59568,0.46856 -0.60779,0.52062 -0.15452,0.66448 0.27049,0.0858 0.72114,0.36765 1.00146,0.62622 0.28031,0.25858 1.40263,0.92159 2.49404,1.47337 1.0914,0.55178 2.36508,1.23768 2.83039,1.52423 1.1914,0.73367 4.14809,2.32228 4.34732,2.33579 0.0914,0.006 0.29103,-0.4803 0.44353,-1.08111 z m -12.04798,-2.52076 c -0.17913,-0.0725 -0.53632,-0.0769 -0.79375,-0.01 -0.25743,0.0671 -0.11087,0.12638 0.32569,0.13177 0.43657,0.005 0.64719,-0.0495 0.46806,-0.12197 z m -0.79878,-1.32459 c -0.18191,-0.0734 -0.47956,-0.0734 -0.66146,0 -0.1819,0.0734 -0.0331,0.13345 0.33073,0.13345 0.3638,0 0.51263,-0.0601 0.33073,-0.13345 z m 0,-1.32292 c -0.18191,-0.0734 -0.33073,-0.30212 -0.33073,-0.50828 0,-0.20615 -0.11907,-0.37482 -0.26459,-0.37482 -0.14552,0 -0.26458,0.23812 -0.26458,0.52916 0,0.37857 0.16943,0.52322 0.59531,0.50828 0.32742,-0.0115 0.44649,-0.0809 0.26459,-0.15434 z m 99.22976,104.28657 c -0.93424,-0.65436 -1.40007,-1.91538 -1.40007,-3.78998 0,-1.84234 0.45985,-3.55153 0.91444,-3.39882 0.16138,0.0542 0.28084,1.01814 0.28739,2.31897 0.0128,2.53414 0.19258,3.23168 1.0798,4.18851 0.34583,0.37296 0.62878,0.76862 0.62878,0.87925 0,0.34155 -0.91048,0.22223 -1.51034,-0.19793 z m 4.51709,-2.82065 c -0.87451,-0.42367 -1.0876,-1.19704 -1.29713,-4.70754 -0.16117,-2.7003 -0.1325,-3.2328 0.16862,-3.13242 0.19955,0.0665 0.4418,0.46879 0.53834,0.89395 0.0965,0.42516 0.30668,1.34028 0.46698,2.03359 0.16029,0.69331 0.29144,1.83036 0.29144,2.52677 0,1.45052 0.32615,1.90121 1.37584,1.90121 0.40745,0 0.74083,0.11906 0.74083,0.26458 0,0.14552 -0.22839,0.26458 -0.50753,0.26458 -0.27914,0 -0.66609,0.0515 -0.85989,0.11453 -0.19381,0.063 -0.60668,-0.009 -0.9175,-0.15925 z m 5.7245,-34.35678 c 0,-0.39979 1.22049,-0.884 1.73272,-0.68744 0.36011,0.13819 0.38207,0.24428 0.11677,0.56395 -0.36726,0.44251 -1.84949,0.54148 -1.84949,0.12349 z m -57.31855,-4.8882 c -0.10007,-0.26079 0.12236,-0.65895 0.60008,-1.07416 0.65563,-0.56983 0.97511,-0.64984 2.34394,-0.58701 1.21124,0.0556 1.60402,0.17351 1.66619,0.50018 0.0651,0.34208 -0.25135,0.46442 -1.58484,0.61273 -0.91641,0.10192 -1.93623,0.36021 -2.26627,0.57398 -0.53255,0.34494 -0.61798,0.34204 -0.7591,-0.0257 z m 20.69662,-2.50645 c -0.35481,-0.12445 -0.24688,-0.25702 0.49875,-0.61259 0.52336,-0.24956 1.07835,-0.45376 1.23332,-0.45376 0.15497,0 0.65694,-0.16376 1.1155,-0.36391 0.45855,-0.20015 1.42905,-0.54976 2.15665,-0.77692 1.21007,-0.37778 2.30408,-0.74498 3.70417,-1.24331 0.29104,-0.10359 0.97969,-0.38344 1.53033,-0.62189 0.55064,-0.23845 1.26502,-0.43386 1.5875,-0.43423 0.32249,-3.7e-4 1.2451,-0.38733 2.05026,-0.8599 0.80515,-0.47256 1.93625,-1.0962 2.51354,-1.38584 0.57729,-0.28965 1.10915,-0.59823 1.18191,-0.68573 0.0728,-0.0875 0.72761,-0.37927 1.45521,-0.64839 0.7276,-0.26911 1.59081,-0.65884 1.91823,-0.86606 0.54899,-0.34745 0.59531,-0.33289 0.59531,0.18712 0,0.39889 -0.29031,0.68948 -0.99219,0.99314 -1.90321,0.82343 -2.1149,0.93968 -2.74211,1.50584 -0.34723,0.31343 -1.10757,0.808 -1.68966,1.09904 -0.58208,0.29104 -1.11786,0.6065 -1.19062,0.70101 -0.0728,0.0945 -0.78714,0.38369 -1.5875,0.64264 -0.80037,0.25894 -1.8124,0.66796 -2.24896,0.90892 -0.43656,0.24096 -1.50813,0.64829 -2.38125,0.90518 -0.87313,0.25688 -1.82563,0.56405 -2.11667,0.68259 -1.54496,0.62928 -6.0153,1.52925 -6.59172,1.32705 z m -32.30203,-5.0351 c -0.33712,-0.54547 0.21115,-0.79375 1.7528,-0.79375 0.87411,0 1.83859,-0.13342 2.14329,-0.29649 0.75462,-0.40386 4.96745,-0.65682 4.96745,-0.29827 0,0.33509 -0.59345,0.59839 -1.98437,0.88041 -0.58208,0.11802 -1.59412,0.33497 -2.24896,0.48211 -1.55041,0.34837 -4.42101,0.36449 -4.63021,0.026 z m 62.36531,-1.0971 c -1.34129,-1.29901 -1.56602,-1.79502 -0.91205,-2.01301 0.35758,-0.11919 3.23737,2.60188 3.23737,3.05894 0,0.68938 -0.9962,0.24129 -2.32532,-1.04593 z m 27.06041,-1.79869 c -2.06158,-1.63433 -2.24551,-1.83134 -2.24551,-2.40518 0,-0.47541 0.0697,-0.50157 0.59532,-0.22334 1.56,0.82581 3.50572,2.62785 3.50572,3.24684 0,0.57079 -0.61341,0.36639 -1.85553,-0.61832 z m 9.30018,0.11897 c -0.86461,-0.76367 -1.25136,-0.9148 -2.51097,-0.98117 -1.17003,-0.0617 -1.50782,-0.17764 -1.57707,-0.54148 -0.077,-0.40479 0.14172,-0.46303 1.73927,-0.46303 1.75149,0 1.86768,0.0403 2.79753,0.97014 0.86489,0.8649 1.30242,1.95872 0.7717,1.92927 -0.10914,-0.006 -0.65835,-0.41724 -1.22046,-0.91373 z m -22.5259,-2.83115 c -0.58208,-0.13719 -1.42397,-0.36027 -1.87086,-0.49573 -0.4469,-0.13546 -1.20699,-0.2463 -1.6891,-0.2463 -1.22022,0 -2.8663,-0.5307 -3.03858,-0.97966 -0.11595,-0.30214 0.0742,-0.3428 0.97836,-0.20925 1.20609,0.17815 3.53055,0.44194 8.46445,0.96057 2.02446,0.21281 3.10886,0.43552 3.10886,0.63848 0,0.60755 -3.86846,0.82322 -5.95313,0.33189 z m 12.43542,-0.14273 c -0.58208,-0.058 -1.17144,-0.2166 -1.30969,-0.35239 -0.13824,-0.1358 -0.65603,-0.24691 -1.15064,-0.24691 -1.31182,0 -2.47663,-0.64825 -4.417,-2.45821 -1.45089,-1.35337 -1.72163,-1.74404 -1.72163,-2.48427 0,-0.48309 -0.092,-0.87835 -0.20442,-0.87835 -0.24856,0 -0.85391,-2.50638 -0.85391,-3.53552 0,-0.91317 0.6196,-0.81716 0.75296,0.11666 0.0503,0.35241 0.18132,0.7598 0.29112,0.90532 0.10979,0.14552 0.35508,1.01958 0.54509,1.94234 0.28958,1.40641 0.52065,1.84154 1.42866,2.69034 1.18062,1.10362 2.08003,1.79665 3.00842,2.31806 0.79087,0.44418 4.36703,1.11895 5.93053,1.11901 1.3702,5e-5 1.83478,0.35121 1.03261,0.78052 -0.51104,0.27349 -1.24166,0.29178 -3.3321,0.0834 z"
       id="path16" /></g></svg>
