<?xml version="1.0" encoding="UTF-8" standalone="no"?>
<!-- Created with Inkscape (http://www.inkscape.org/) -->

<svg
   width="123.3263mm"
   height="94.281364mm"
   viewBox="0 0 123.32631 94.281366"
   version="1.1"
   id="svg1"
   xml:space="preserve"
   xmlns="http://www.w3.org/2000/svg"
   xmlns:svg="http://www.w3.org/2000/svg"><defs
     id="defs1" /><g
     id="layer1"
     transform="translate(330.95141,-661.33366)"><path
       style="fill:#000000"
       d="m -274.21636,755.43254 c -0.30506,-0.16542 -0.52347,-0.54528 -1.10943,-1.92951 -0.26874,-0.63487 -1.01398,-2.16841 -1.08575,-2.23426 -0.0353,-0.0323 -0.19249,-0.29692 -0.34941,-0.58796 -0.42639,-0.79079 -1.85424,-2.89912 -2.29638,-3.39079 -0.21317,-0.23703 -0.55292,-0.69269 -0.75502,-1.01256 -0.30823,-0.48785 -0.36745,-0.69766 -0.36745,-1.30175 0,-0.65137 0.0388,-0.76553 0.40657,-1.19514 l 0.40656,-0.47498 -0.58379,-0.37829 c -0.61796,-0.40042 -1.17008,-1.02669 -1.17008,-1.32722 0,-0.0992 -0.0794,-0.24617 -0.17639,-0.32668 -0.14742,-0.12236 -0.17639,-0.10515 -0.17639,0.10479 0,0.13815 -0.0488,0.34306 -0.10846,0.45537 -0.0597,0.1123 -0.28189,0.65398 -0.49385,1.20373 -0.21197,0.54974 -0.5225,1.26412 -0.69007,1.5875 -0.16757,0.32338 -0.4033,0.85254 -0.52384,1.17592 -0.43529,1.16771 -1.03971,1.84116 -2.15962,2.40627 -1.63833,0.8267 -3.42911,0.98003 -5.69597,0.48772 -2.74184,-0.59547 -3.16293,-0.62255 -10.61291,-0.68239 -8.06584,-0.0648 -9.21915,-0.015 -14.2875,0.61729 -1.22806,0.1532 -2.91874,0.20994 -7.46713,0.2506 l -5.87963,0.0526 -0.64534,-0.39045 c -0.73915,-0.44721 -0.99914,-0.87227 -0.88986,-1.45481 0.1033,-0.55061 0.55628,-0.73572 1.94678,-0.79557 1.1216,-0.0483 1.59618,-0.12188 2.08727,-0.3237 0.14552,-0.0598 0.38364,-0.1554 0.52916,-0.21244 1.91172,-0.74933 4.67697,-2.45077 5.73383,-3.52799 0.70475,-0.71832 1.29233,-1.42321 1.29233,-1.55034 0,-0.1463 -0.71923,-0.22722 -2.01961,-0.22722 -1.43909,0 -1.92459,-0.15569 -2.05056,-0.65757 -0.19948,-0.7948 0.41628,-1.18749 2.17804,-1.389 0.9292,-0.10629 1.44101,-0.23236 1.98378,-0.48866 0.40233,-0.18998 0.7315,-0.38518 0.7315,-0.43379 0,-0.0486 0.0566,-0.0884 0.1258,-0.0884 0.0692,0 0.34727,-0.15237 0.61795,-0.3386 0.52427,-0.36071 1.17274,-0.74171 1.84328,-1.08302 1.91998,-0.97727 2.80933,-1.2858 3.93936,-1.36663 1.04908,-0.075 1.36562,0.13704 1.66807,1.11762 0.11385,0.3691 0.24272,0.69755 0.28638,0.72989 0.12342,0.0914 3.26684,-0.0856 3.92518,-0.22102 0.71813,-0.14774 1.45542,-0.3092 2.23426,-0.48929 0.32338,-0.0748 0.77317,-0.17786 0.99953,-0.22908 0.22637,-0.0512 0.80845,-0.18304 1.29352,-0.29293 1.39837,-0.3168 5.17035,-0.29344 6.93796,0.043 1.49133,0.28384 1.97305,0.39917 2.95273,0.70697 l 0.65966,0.20726 0.0786,-1.30295 c 0.26476,-4.38809 0.50451,-6.43002 1.12293,-9.56383 0.20602,-1.04398 0.79114,-3.28072 0.90744,-3.46891 0.0336,-0.0544 -0.14461,-0.37428 -0.39604,-0.71092 -0.77746,-1.04097 -1.23296,-2.27817 -1.56744,-4.25743 -0.18106,-1.07142 -0.0143,-3.7101 0.25231,-3.99227 0.058,-0.0614 0.10554,-0.20768 0.10554,-0.32498 0,-0.11729 0.0529,-0.31838 0.1176,-0.44685 0.0647,-0.12847 0.17051,-0.3387 0.23518,-0.46718 0.0647,-0.12847 0.11759,-0.31368 0.11759,-0.41157 0,-0.0979 0.04,-0.17799 0.0889,-0.17799 0.0489,0 0.16213,-0.17198 0.25166,-0.38217 0.33739,-0.79219 1.78278,-2.55764 2.09397,-2.55764 0.28613,0 0.15327,0.44 -0.27072,0.89656 -0.46837,0.50434 -1.4423,1.92147 -1.6669,2.42543 -0.0793,0.17786 -0.19703,0.45567 -0.26171,0.61736 -0.0647,0.16169 -0.16652,0.41304 -0.22633,0.55856 -0.45204,1.09995 -0.57586,4.0821 -0.21849,5.26227 0.37102,1.22524 1.06978,2.57611 1.67165,3.23167 0.29538,0.32173 0.53706,0.62395 0.53706,0.67159 0,0.0476 -0.0994,0.13979 -0.2208,0.20478 -0.12143,0.065 -0.25004,0.23883 -0.2858,0.38632 -0.061,0.25156 -0.13145,0.50463 -0.44301,1.59106 -0.12241,0.42685 -0.21422,0.82451 -0.46151,1.99907 -0.3583,1.70184 -0.51077,2.69659 -0.68939,4.49792 -0.0609,0.61442 -0.14577,1.20376 -0.18855,1.30965 -0.0428,0.10588 -0.0943,1.95797 -0.11458,4.11574 -0.0202,2.15777 -0.0774,4.46424 -0.12703,5.12549 -0.0669,0.8918 -0.0529,1.24729 0.0544,1.37657 0.21563,0.25982 0.0466,0.41998 -0.44111,0.41806 -0.60041,-0.002 -1.25751,-0.23632 -3.13866,-1.11749 -1.74604,-0.81789 -2.10823,-0.94406 -3.21597,-1.12031 -1.11327,-0.17714 -2.21086,-0.0295 -4.42755,0.59547 -0.19403,0.0547 -0.48507,0.13391 -0.64676,0.17601 -0.16169,0.0421 -0.39981,0.11902 -0.52916,0.17093 -0.12936,0.0519 -0.47331,0.15848 -0.76436,0.23683 -0.29104,0.0784 -0.62105,0.19021 -0.73335,0.24859 -0.11231,0.0584 -0.33408,0.10613 -0.49283,0.10613 -0.15875,0 -0.31757,0.0468 -0.35294,0.10403 -0.0354,0.0572 -0.21046,0.13334 -0.38911,0.16916 -0.78513,0.1574 -2.81552,0.69518 -4.55815,1.20729 -0.47486,0.13955 -1.13171,0.21017 -2.00888,0.21598 -1.24226,0.008 -1.32557,-0.007 -1.77807,-0.32019 -0.2611,-0.18085 -0.88035,-0.87789 -1.37611,-1.54897 -0.96792,-1.31022 -1.47079,-1.70878 -2.15599,-1.70878 -0.3649,0 -0.50391,0.087 -0.96342,0.60287 -2.04634,2.29744 -3.6916,3.5781 -6.12263,4.76582 -1.56193,0.7631 -2.31662,1.0989 -2.46976,1.0989 -0.0663,0 -0.21235,0.0467 -0.32466,0.1037 -0.45729,0.23224 -1.3147,0.36336 -1.61916,0.24761 -0.69735,-0.26513 -1.23086,0.0248 -1.23086,0.66886 0,0.4661 0.52443,0.50718 6.48443,0.50788 5.52629,6.4e-4 6.4655,-0.0444 9.80214,-0.47014 2.60211,-0.33201 5.62557,-0.46171 10.81852,-0.46407 4.94117,-0.002 8.68062,0.15027 10.11296,0.41246 0.19403,0.0355 0.77611,0.14178 1.29352,0.23614 0.51741,0.0944 1.15241,0.17177 1.41111,0.17203 0.25871,2.6e-4 0.97308,0.0308 1.5875,0.0679 1.30015,0.0785 2.09011,-0.0611 3.1346,-0.55421 1.18462,-0.5592 1.86959,-1.40248 2.23444,-2.75088 0.0875,-0.32338 0.2675,-1.35525 0.40001,-2.29305 0.13251,-0.9378 0.32093,-2.15489 0.41873,-2.70463 0.0978,-0.54975 0.23174,-1.31704 0.29767,-1.7051 0.0659,-0.38805 0.16775,-0.97013 0.22627,-1.29351 0.0585,-0.32338 0.15961,-0.90547 0.22464,-1.29352 0.11441,-0.6828 0.18342,-1.03852 0.46768,-2.41065 0.0737,-0.35572 0.18175,-0.88488 0.24013,-1.17593 0.14798,-0.7377 0.31628,-1.4948 0.47053,-2.11666 0.0722,-0.29104 0.15806,-0.68792 0.19083,-0.88195 0.0328,-0.19402 0.1049,-0.45861 0.1603,-0.58796 0.0554,-0.12935 0.13353,-0.39394 0.17363,-0.58796 0.0882,-0.4265 0.23833,-1.02257 0.40735,-1.6169 0.069,-0.24254 0.17362,-0.61295 0.23253,-0.82315 0.0589,-0.2102 0.24866,-0.8461 0.42167,-1.41313 l 0.31455,-1.03095 -0.40578,-0.61534 c -1.22111,-1.85173 -1.65476,-3.84582 -1.28458,-5.90701 0.23192,-1.29136 0.19833,-1.20373 1.29008,-3.36607 0.0204,-0.0404 -0.19,-0.16293 -0.46756,-0.27227 -2.18244,-0.85977 -4.84469,-2.15065 -5.29278,-2.56639 -0.0861,-0.0799 -0.3934,-0.32994 -0.68284,-0.55564 -0.28944,-0.22571 -1.01148,-0.87864 -1.60451,-1.45096 -1.19086,-1.14925 -1.12153,-0.99469 -1.56501,-3.48914 -0.0747,-0.42039 -0.18273,-0.97602 -0.23998,-1.23472 -0.0573,-0.2587 -0.13509,-0.65558 -0.17298,-0.88194 -0.0379,-0.22637 -0.11811,-0.6497 -0.17826,-0.94074 -0.0601,-0.29105 -0.16568,-0.82021 -0.2345,-1.17593 -0.24874,-1.28557 -0.31375,-1.59035 -0.93432,-4.38032 -0.16771,-0.75401 -0.31472,-1.34414 -0.59321,-2.38125 -0.40882,-1.52248 -0.42825,-1.58846 -0.866,-2.93982 -0.23045,-0.71143 -0.41505,-1.47873 -0.41021,-1.70509 0.005,-0.22637 -0.0299,-0.91428 -0.0771,-1.52871 -0.10174,-1.32261 0.0425,-2.25026 0.49357,-3.1735 0.34107,-0.69816 1.17513,-1.60039 1.74054,-1.88279 0.19402,-0.0969 0.37923,-0.20283 0.41157,-0.23537 0.0323,-0.0326 0.21755,-0.13704 0.41157,-0.23221 1.34179,-0.65813 2.39271,-1.68954 2.92358,-2.86931 0.66987,-1.48866 0.67191,-1.68122 0.0807,-7.59941 -0.17118,-1.71345 0.0186,-4.9448 0.36941,-6.2912 0.49054,-1.88245 1.88011,-3.11245 3.91708,-3.46727 0.45274,-0.0789 1.07665,-0.19078 1.38647,-0.24871 0.30983,-0.0579 1.23587,-0.13855 2.05787,-0.17915 1.67097,-0.0825 2.5349,0.0657 3.86254,0.66277 0.61321,0.27578 2.08817,1.18334 2.27692,1.40103 0.0596,0.0688 0.4883,0.27498 0.97014,0.46669 1.54074,0.61301 2.36017,1.28966 2.50652,2.06978 0.17618,0.93912 -0.1199,1.98727 -0.90956,3.21987 -0.22971,0.35855 -0.25263,0.54179 -0.23543,1.88149 0.0175,1.36009 -0.006,1.54326 -0.28541,2.18979 -0.47435,1.09922 -0.47317,1.13696 0.0697,2.23282 0.66628,1.34499 0.59103,1.58649 -0.61841,1.98491 -0.24065,0.0793 -0.43921,0.5342 -0.43921,1.00628 0,0.50532 -0.69194,1.74516 -1.12243,2.01122 -0.28032,0.17324 -0.42515,0.39427 -0.57913,0.88384 -0.26661,0.84761 -0.5624,1.05192 -1.36817,0.94503 -0.32788,-0.0435 -0.68414,-0.12339 -0.79168,-0.17755 -0.10754,-0.0541 -0.35428,-0.17069 -0.54831,-0.25898 -0.19403,-0.0883 -0.37923,-0.19013 -0.41157,-0.22632 -0.0323,-0.0362 -0.17328,-0.14389 -0.31321,-0.23932 -0.13992,-0.0954 -0.68532,-0.66122 -1.21199,-1.25731 -0.52667,-0.59608 -1.02123,-1.08378 -1.09902,-1.08378 -0.21642,0 -0.43191,0.42115 -0.49769,0.97271 -0.0563,0.47204 -0.0262,0.53289 0.59478,1.20275 0.70663,0.76222 1.80962,2.17127 2.07114,2.64583 0.0891,0.16169 0.18847,0.32044 0.2208,0.35278 0.17015,0.17015 0.95034,1.69865 1.50058,2.93982 0.26897,0.60671 1.01984,2.91534 1.1474,3.52777 0.0471,0.22637 0.31252,0.86137 0.58972,1.41112 0.58969,1.16947 0.90325,1.8764 1.12141,2.52824 0.0866,0.2587 0.19954,0.52064 0.25101,0.58208 0.0515,0.0614 0.0936,0.2303 0.0936,0.37524 0,0.14493 0.0529,0.29622 0.11759,0.33619 0.0647,0.04 0.11759,0.19873 0.11759,0.35278 0,0.15406 0.0529,0.31281 0.11759,0.35278 0.0647,0.04 0.1176,0.23085 0.1176,0.42418 0,0.54092 0.93479,2.38182 1.89666,3.73513 0.47672,0.67072 1.0389,1.46447 1.2493,1.76389 0.21039,0.29941 0.44927,0.62377 0.53084,0.72078 0.0816,0.097 0.27841,0.3616 0.43742,0.58796 0.15901,0.22637 0.36992,0.50063 0.46869,0.60946 0.0988,0.10884 0.41771,0.48546 0.70875,0.83694 0.5462,0.65961 1.47153,1.33577 2.29306,1.67559 0.82914,0.34297 2.10933,1.00683 2.35185,1.21959 0.31444,0.27586 2.22063,0.68375 3.27827,0.7015 0.3155,0.005 0.633,0.0568 0.70556,0.11434 0.0726,0.0576 0.29066,0.13345 0.48469,0.16859 0.19403,0.0351 0.56444,0.12485 0.82315,0.19935 0.2587,0.0745 0.60266,0.16221 0.76435,0.19492 0.16169,0.0327 0.39981,0.10238 0.52917,0.15481 0.12935,0.0524 0.47331,0.16031 0.76435,0.23973 0.29104,0.0794 0.635,0.18498 0.76435,0.23459 0.12935,0.0496 0.63206,0.21288 1.11713,0.36284 1.115,0.3447 3.08497,1.15697 3.90122,1.60857 1.14236,0.63202 1.56561,0.87551 1.68443,0.969 0.0647,0.0509 0.30878,0.19903 0.54245,0.32919 0.85038,0.47368 0.98731,0.55381 1.04505,0.61155 0.0648,0.0648 0.50628,0.30227 2.35185,1.26508 0.6791,0.35428 1.34055,0.70944 1.46991,0.78924 0.12935,0.0798 0.6056,0.34682 1.05833,0.59336 0.45273,0.24654 1.12452,0.65125 1.49285,0.89936 0.36834,0.24811 0.69847,0.45111 0.73361,0.45111 0.0792,0 0.42512,0.27606 1.07902,0.86115 0.52355,0.46845 1.09434,1.50082 1.35069,2.44297 l 0.14712,0.5407 1.24373,-0.61615 c 2.25944,-1.11934 3.37049,-1.40737 5.35946,-1.38941 1.3469,0.0122 1.62572,0.0507 2.34445,0.32371 0.97883,0.37186 1.70996,0.78825 2.28571,1.30174 0.23448,0.20912 1.16716,0.87073 2.07262,1.47026 1.79598,1.18915 2.87779,2.15434 3.60986,3.22073 0.53646,0.78143 1.15264,1.91363 1.15264,2.11789 0,0.15351 1.05479,1.50393 1.52781,1.95604 1.45196,1.38774 2.91885,2.68207 3.4573,3.05059 0.13627,0.0933 0.27422,0.20165 0.30656,0.24085 0.0323,0.0392 0.244,0.19601 0.47037,0.34846 0.82214,0.55371 1.43751,1.25186 1.88857,2.14264 0.25133,0.49635 0.5121,0.93653 0.57949,0.97818 0.15547,0.0961 0.47175,0.84563 0.47175,1.118 0,0.11356 0.11834,0.28505 0.26297,0.38108 0.22715,0.15083 0.2412,0.20083 0.10319,0.36713 -0.32944,0.39695 -0.72932,0.1949 -1.2481,-0.63064 -0.43035,-0.6848 -0.53294,-0.75272 -1.39491,-0.92343 -0.39697,-0.0786 -0.87702,-0.19313 -1.06678,-0.25447 -0.18977,-0.0613 -0.36238,-0.0942 -0.38359,-0.073 -0.0863,0.0863 1.11352,1.4705 1.69928,1.96027 0.82714,0.6916 1.51549,1.04264 2.05734,1.04917 0.24253,0.003 0.44097,0.0582 0.44097,0.12291 0,0.0647 0.10583,0.11759 0.23519,0.11759 0.16958,0 0.23518,0.0784 0.23518,0.28103 0,0.21773 -0.11891,0.33692 -0.52788,0.52917 -0.93197,0.43807 -1.46888,0.30867 -2.80011,-0.67485 -0.73882,-0.54584 -1.78194,-1.06184 -1.90261,-0.94117 -0.0282,0.0282 0.50564,0.41475 1.18633,0.859 1.66569,1.08712 2.39798,1.82117 2.39798,2.40376 0,0.13484 0.10387,0.51854 0.23083,0.85266 0.22105,0.58177 0.22357,0.80614 0.009,0.80614 -0.0545,0 -0.20595,-0.1812 -0.33661,-0.40266 -0.19193,-0.32528 -0.36928,-0.44152 -0.92296,-0.60489 -1.73016,-0.51051 -2.57079,-0.87089 -4.18377,-1.79359 -0.24253,-0.13874 -0.44097,-0.22644 -0.44097,-0.19489 0,0.0316 0.12696,0.32055 0.28214,0.64222 0.40231,0.83394 0.49318,1.81784 0.24654,2.66932 -0.33389,1.15271 -0.64152,1.32293 -0.62988,0.34853 0.0142,-1.1924 -0.95811,-2.36958 -2.36824,-2.86713 -0.8214,-0.28982 -2.87415,-0.0705 -2.99819,0.32028 -0.11736,0.36976 -1.08924,0.62772 -3.11663,0.82723 -1.58617,0.15609 -3.07093,0.47414 -4.13732,0.88626 -0.92498,0.35747 -4.8623,2.33466 -5.0349,2.52836 -0.15026,0.16862 -2.47778,1.21989 -3.27838,1.48074 -1.38229,0.45036 -3.33739,0.49377 -5.50479,0.12222 -0.91786,-0.15735 -1.7403,-0.35911 -1.82766,-0.44835 -0.27356,-0.27948 -0.42439,-0.83445 -0.49153,-1.80856 -0.0624,-0.90598 -0.14611,-1.44249 -0.42171,-2.70463 -0.21514,-0.98519 -0.54832,-2.66405 -0.7118,-3.58657 -0.2254,-1.27203 -0.3369,-2.56971 -0.45973,-5.35047 -0.0686,-1.55222 -0.15193,-2.94289 -0.18526,-3.09039 l -0.0606,-0.26817 -0.37916,0.2892 c -0.70986,0.54143 -1.44328,0.77645 -2.41713,0.77454 -1.30243,-0.003 -1.91509,-0.25244 -2.89791,-1.18195 l -0.59142,-0.55934 -2.03216,1.3419 c -1.11768,0.73804 -2.0538,1.3419 -2.08026,1.3419 -0.10799,0 -4.35361,2.85854 -4.76778,3.21011 -0.0985,0.0836 -0.44123,0.33237 -0.76169,0.55285 -0.32046,0.22048 -0.66322,0.46689 -0.7617,0.54756 -0.47416,0.38847 -2.69787,1.99608 -4.00709,2.8969 -0.80499,0.55388 -1.52753,1.06379 -1.60565,1.13315 -0.0781,0.0693 -0.19717,0.1261 -0.26458,0.1261 -0.0674,0 -0.12256,0.0529 -0.12256,0.11759 0,0.0647 -0.0794,0.11759 -0.17638,0.11759 -0.097,0 -0.17639,0.0529 -0.17639,0.11759 0,0.0647 -0.0566,0.1176 -0.12581,0.1176 -0.0692,0 -0.35654,0.15875 -0.63855,0.35277 -0.282,0.19403 -0.56935,0.35278 -0.63854,0.35278 -0.2518,0 -0.11402,0.22561 0.43276,0.70866 0.90562,0.80006 1.51221,1.17282 1.90851,1.17282 1.04703,0 1.76754,1.08848 1.22923,1.85703 -0.41237,0.58873 -1.08701,0.6919 -2.52038,0.38542 -0.29104,-0.0622 -0.68792,-0.14643 -0.88195,-0.18711 -0.19402,-0.0407 -0.45861,-0.11558 -0.58796,-0.16642 -0.36072,-0.14178 -1.01652,-0.3324 -1.44051,-0.4187 -0.35066,-0.0714 -0.38217,-0.0534 -0.38217,0.21859 0,0.16301 0.0529,0.32909 0.11759,0.36906 0.0647,0.04 0.11759,0.17098 0.11759,0.29113 0,0.12014 0.0397,0.23608 0.0882,0.25764 0.0485,0.0216 0.21571,0.27732 0.37156,0.56836 0.15586,0.29105 0.63655,1.00542 1.06822,1.5875 0.43166,0.58209 0.91269,1.25612 1.06894,1.49785 0.15626,0.24174 0.37403,0.44018 0.48393,0.44098 0.10991,8e-4 0.45,0.23776 0.75575,0.52658 0.54774,0.51742 0.55603,0.53623 0.56452,1.28115 0.0106,0.92937 -0.21266,1.25113 -0.86805,1.25113 -0.23574,0 -0.48631,-0.0577 -0.55682,-0.1282 -0.0925,-0.0925 -0.18791,-0.0271 -0.34286,0.23519 -0.18676,0.31617 -0.28011,0.36338 -0.71846,0.36338 -0.36406,0 -0.50382,0.0478 -0.50382,0.17225 0,0.0947 -0.11218,0.23229 -0.24929,0.30567 -0.20321,0.10876 -0.30867,0.0895 -0.57057,-0.10412 l -0.32128,-0.23754 -0.31265,0.31265 c -0.26414,0.26414 -0.34436,0.28993 -0.51715,0.1663 -0.38073,-0.27242 -0.48875,-0.28452 -0.86485,-0.0969 -0.20644,0.10298 -0.38044,0.18513 -0.38667,0.18254 -0.006,-0.003 -0.15883,-0.0847 -0.3391,-0.18245 z m 1.9657,-0.85695 c -0.0444,-0.10484 -0.10743,-0.32291 -0.14013,-0.4846 -0.0327,-0.16169 -0.10964,-0.35759 -0.17098,-0.43533 -0.12316,-0.15609 -0.009,-0.65843 0.12968,-0.57249 0.048,0.0297 0.21327,0.30824 0.36728,0.61907 0.32933,0.66466 0.68321,1.09431 0.90134,1.09431 0.23001,0 0.18867,-0.47397 -0.0797,-0.91419 -0.24042,-0.39433 -0.31298,-0.8497 -0.13538,-0.8497 0.14977,0 0.43453,0.36521 0.61628,0.79038 0.11203,0.26206 0.2668,0.40184 0.50219,0.45354 0.44742,0.0983 0.61542,-0.15233 0.32028,-0.47775 -0.11822,-0.13035 -0.35391,-0.49024 -0.52375,-0.79974 -0.51569,-0.93973 -0.34078,-1.43961 0.20427,-0.58379 0.60883,0.95597 1.38551,1.52074 1.91023,1.38904 0.27772,-0.0697 0.32486,-0.19556 0.28911,-0.77168 -0.0208,-0.33496 -0.75663,-1.05834 -1.07657,-1.05834 -0.13118,0 -0.51741,-0.4609 -1.05931,-1.26412 -0.46908,-0.69526 -0.89652,-1.28176 -0.94989,-1.30331 -0.0534,-0.0216 -0.097,-0.0906 -0.097,-0.15345 0,-0.0628 -0.20177,-0.41561 -0.44839,-0.78395 -0.43795,-0.65411 -0.62874,-1.02202 -1.01031,-1.94818 -0.23429,-0.56868 -0.24183,-1.5616 -0.016,-2.10217 0.16389,-0.39225 1.26433,-1.49945 1.4903,-1.49945 0.0593,0 0.1577,-0.13128 0.2187,-0.29173 0.0683,-0.17959 0.17424,-0.26744 0.27564,-0.22853 0.0906,0.0348 0.3701,-0.0521 0.62112,-0.19301 0.7516,-0.42193 4.57058,-3.04259 6.15965,-4.22686 0.60209,-0.44872 1.86392,-1.36781 2.58138,-1.88024 0.40749,-0.29104 0.93533,-0.68791 1.17298,-0.88194 0.23764,-0.19403 0.82627,-0.61696 1.30807,-0.93984 0.4818,-0.32289 0.94246,-0.65015 1.02368,-0.72725 0.0812,-0.0771 0.25321,-0.17368 0.38218,-0.21461 0.12897,-0.0409 0.23449,-0.12378 0.23449,-0.18409 0,-0.0603 0.0533,-0.10967 0.11857,-0.10967 0.21474,0 5.51324,-3.49901 6.62119,-4.37249 1.89172,-1.49138 3.35089,-2.91509 3.66405,-3.57502 0.11073,-0.23335 0.17952,-0.71189 0.17952,-1.24886 0,-0.75546 -0.0444,-0.94055 -0.33575,-1.39997 -0.57653,-0.9091 -2.02152,-1.82825 -4.80892,-3.05893 -0.27488,-0.12136 -0.72467,-0.32287 -0.99954,-0.4478 -0.27487,-0.12493 -0.71144,-0.29449 -0.97014,-0.37679 -0.2587,-0.0823 -0.52064,-0.19175 -0.58208,-0.24322 -0.0615,-0.0515 -0.2303,-0.0936 -0.37524,-0.0936 -0.14494,0 -0.29246,-0.0468 -0.32782,-0.10403 -0.0354,-0.0572 -0.21047,-0.13224 -0.38912,-0.16671 -0.17865,-0.0345 -0.51002,-0.1163 -0.73639,-0.18183 -1.8647,-0.53982 -4.9206,-1.23827 -6.76157,-1.54541 -1.14219,-0.19055 -2.03202,-0.25548 -3.51937,-0.25678 l -1.99065,-0.002 -0.47879,-0.45798 c -0.56733,-0.54267 -0.70775,-0.57419 -0.61103,-0.13713 0.18882,0.85318 0.30126,3.00657 0.18426,3.52865 -0.18776,0.8378 -0.4207,1.02214 -0.87337,0.69114 -0.16398,-0.11991 -0.23029,-0.34712 -0.26199,-0.89776 -0.0233,-0.40548 -0.0934,-0.83247 -0.15571,-0.94887 -0.0623,-0.1164 -0.11326,-0.34428 -0.11326,-0.50641 0,-0.16212 -0.0471,-0.32386 -0.1046,-0.35941 -0.10388,-0.0642 -0.19927,-0.4903 -0.32426,-1.44854 -0.0737,-0.56483 0.14104,-0.70837 0.26385,-0.17639 0.0411,0.17786 0.17816,0.64088 0.30467,1.02893 0.1265,0.38806 0.26021,1.11545 0.29713,1.61642 0.0425,0.57727 0.12886,0.9621 0.2357,1.05077 0.249,0.20665 0.34751,-0.0248 0.44262,-1.03976 0.0951,-1.01498 -0.0406,-1.73469 -0.55093,-2.92095 -0.57367,-1.33358 -0.6163,-1.45698 -0.53231,-1.54097 0.11197,-0.11197 0.44287,0.18485 0.56543,0.50721 0.0563,0.14818 0.19635,0.26993 0.31113,0.27055 0.11479,6.3e-4 0.44181,0.18645 0.72672,0.41293 0.28491,0.22647 0.53696,0.39284 0.56011,0.36969 0.0731,-0.0731 -0.28375,-0.83223 -0.50919,-1.08332 -0.39331,-0.43807 -0.90838,-0.72454 -2.09764,-1.16669 -0.64676,-0.24045 -1.46984,-0.59284 -1.82907,-0.7831 -0.71536,-0.37887 -2.30083,-1.61703 -3.23197,-2.52398 -1.19981,-1.16865 -2.96811,-2.62042 -4.16998,-3.42352 -0.6791,-0.45379 -1.53316,-1.11024 -1.89792,-1.45878 -0.75856,-0.72486 -0.96471,-1.24424 -1.15844,-2.91865 -0.0641,-0.55421 -0.20021,-1.7485 -0.30241,-2.65396 -0.1022,-0.90546 -0.23531,-1.99025 -0.29582,-2.41065 -0.0605,-0.42039 -0.1644,-1.18768 -0.2309,-1.70509 -0.27685,-2.15413 -0.35636,-2.74797 -0.48023,-3.58657 -0.17083,-1.15646 -0.19413,-2.46609 -0.044,-2.47289 0.12179,-0.006 0.20485,0.38142 0.4046,1.88492 0.0644,0.48507 0.16837,1.25237 0.23093,1.7051 0.0626,0.45273 0.16924,1.24648 0.23704,1.76389 0.0678,0.5174 0.22665,1.70803 0.35299,2.64583 0.12634,0.9378 0.28802,2.2078 0.3593,2.82222 0.3486,3.00516 0.48999,3.57307 0.99358,3.99102 0.10174,0.0844 0.18498,0.22435 0.18498,0.31093 0,0.24292 0.40908,0.58193 1.94028,1.60791 1.3025,0.87275 2.33517,1.71093 3.52967,2.86491 1.25644,1.21382 1.92942,1.72018 2.19927,1.65477 0.9126,-0.22121 1.19253,-0.31184 1.30235,-0.42166 0.0861,-0.0861 0.0761,-0.84384 -0.0331,-2.50798 -0.0861,-1.31154 -0.19453,-4.28962 -0.24105,-6.61795 -0.10145,-5.0773 -0.25202,-6.66738 -0.86854,-9.17223 -0.4742,-1.92661 -0.92285,-3.19253 -1.68785,-4.7625 -0.23636,-0.48507 -0.47125,-0.89958 -0.52196,-0.92114 -0.0507,-0.0216 -0.0922,-0.0901 -0.0922,-0.1523 0,-0.34635 -1.77747,-2.70469 -2.90469,-3.85394 -0.3427,-0.34939 -0.62003,-0.71981 -0.61631,-0.82315 0.0111,-0.30709 0.40272,-1.69608 0.55644,-1.97345 0.1972,-0.35585 0.18386,-0.4239 -0.15935,-0.81259 -0.93952,-1.06402 -1.35722,-2.09202 -1.12302,-2.76385 0.20736,-0.59484 0.16743,-1.00989 -0.10399,-1.08087 -0.13074,-0.0342 -0.23519,-0.1604 -0.23519,-0.28418 0,-0.12247 -0.0602,-0.28289 -0.13381,-0.35649 -0.0761,-0.0761 -0.1395,-0.55522 -0.14699,-1.11125 -0.0113,-0.83665 0.0247,-1.0306 0.2501,-1.34654 0.30401,-0.42619 0.74478,-0.5771 1.12085,-0.38372 0.42412,0.21808 0.90893,0.72174 0.90893,0.94427 0,0.11344 0.0562,0.24097 0.12484,0.28341 0.0687,0.0424 0.17319,0.20431 0.23228,0.35972 0.0591,0.1554 0.16861,0.28255 0.24339,0.28255 0.17802,0 1.28097,-1.18871 1.28097,-1.38058 0,-0.0815 0.0467,-0.14812 0.10388,-0.14812 0.0571,0 0.13418,-0.0926 0.17122,-0.20579 0.037,-0.11318 0.20821,-0.44391 0.38039,-0.73495 1.00664,-1.70164 1.66774,-2.23309 2.77876,-2.23382 l 0.67083,-4.4e-4 0.0789,-0.42049 c 0.10386,-0.55365 -0.017,-1.39104 -0.25263,-1.75069 -0.23499,-0.35864 -0.13081,-0.58455 0.19032,-0.41269 0.48492,0.25953 0.77136,1.33879 0.59948,2.2588 -0.0838,0.4484 -0.0664,0.54653 0.11689,0.66101 0.11839,0.0739 0.31869,0.13443 0.4451,0.13443 0.12641,0 0.26254,0.0529 0.30252,0.11759 0.04,0.0647 0.15398,0.1176 0.25337,0.1176 0.0994,0 0.33029,0.10652 0.51313,0.23671 l 0.33243,0.23672 0.22848,-0.32491 c 1.3006,-1.84952 0.93266,-3.39218 -0.98763,-4.14088 -1.21212,-0.47259 -1.33932,-0.53171 -1.33932,-0.62246 0,-0.0489 -0.0661,-0.089 -0.14699,-0.0892 -0.0808,-1.5e-4 -0.3322,-0.1589 -0.55857,-0.35276 -0.47736,-0.40884 -1.81081,-1.09103 -2.65158,-1.35656 -0.6726,-0.21241 -3.70855,-0.25163 -4.22678,-0.0546 -0.17055,0.0648 -0.48396,0.1179 -0.69647,0.1179 -0.2125,0 -0.53979,0.0467 -0.7273,0.10387 -0.18751,0.0571 -0.57905,0.17374 -0.87009,0.25913 -1.12546,0.33022 -2.57116,1.36098 -2.58332,1.84186 -0.002,0.0808 -0.0566,0.14699 -0.12131,0.14699 -0.0647,0 -0.11759,0.0952 -0.11759,0.21167 0,0.11641 -0.0437,0.26193 -0.0972,0.32337 -0.13451,0.15469 -0.33053,0.89733 -0.49808,1.8871 -0.14289,0.84406 -0.10295,2.3129 0.126,4.63341 0.0606,0.61443 0.1446,1.61136 0.18662,2.2154 0.0736,1.0575 0.0894,1.10616 0.42577,1.31074 0.19216,0.11686 0.58835,0.27938 0.88042,0.36115 0.62884,0.17607 1.41885,0.0249 2.25442,-0.43132 0.64865,-0.35417 0.86573,-0.36053 0.81652,-0.0239 -0.0233,0.15929 -0.23879,0.3744 -0.56674,0.5657 -1.1245,0.65594 -2.33181,0.75016 -3.27992,0.25597 l -0.48305,-0.25177 -0.008,0.85066 c -0.008,0.8555 -0.21578,2.11272 -0.37646,2.2734 -0.0475,0.0475 -0.0864,0.17594 -0.0864,0.28543 0,0.58633 -1.4546,2.70155 -1.8578,2.70155 -0.0777,0 -0.14168,0.0397 -0.14219,0.0882 -5e-4,0.0485 -0.11957,0.14645 -0.26458,0.21765 -0.68107,0.33439 -1.33634,0.70726 -1.47739,0.84068 -0.0855,0.0809 -0.19735,0.147 -0.24862,0.147 -0.0513,0 -0.35177,0.25465 -0.66776,0.56589 -0.56153,0.55308 -0.95491,1.2056 -1.21134,2.00929 -0.16444,0.51538 -0.16516,2.8392 -0.001,3.46719 0.11789,0.4512 0.49196,1.75178 0.69725,2.42429 0.0494,0.16169 0.15431,0.53211 0.23322,0.82315 0.0789,0.29104 0.19088,0.65072 0.24883,0.79928 0.0579,0.14857 0.10534,0.3968 0.10534,0.55163 0,0.15483 0.0473,0.31076 0.10517,0.34651 0.0578,0.0358 0.13291,0.26376 0.16682,0.5067 0.0339,0.24294 0.12176,0.67984 0.19524,0.97088 0.14332,0.5677 0.29954,1.25415 0.4148,1.82269 0.0393,0.19402 0.11725,0.56444 0.17315,0.82314 0.0559,0.25871 0.16316,0.78787 0.23834,1.17593 0.0752,0.38806 0.18102,0.91722 0.23519,1.17593 0.12034,0.57475 0.28132,1.39498 0.57697,2.93981 0.65656,3.43061 0.60396,3.25395 1.12078,3.76469 0.45678,0.45141 1.26163,1.18158 2.01609,1.82903 1.07689,0.92412 2.38062,1.61916 5.17339,2.75799 0.90052,0.36721 1.82251,0.74713 2.04888,0.84427 0.22636,0.0971 0.5174,0.21705 0.64676,0.26648 1.42835,0.5458 2.05787,0.95221 2.05787,1.32851 0,0.0752 0.21034,0.54103 0.46743,1.03518 0.34215,0.65765 0.51805,1.19457 0.65631,2.00328 0.29841,1.74539 0.69382,2.43006 1.11225,1.92589 0.14858,-0.17903 0.13602,-0.39104 -0.11487,-1.93819 -0.13819,-0.85217 -0.14977,-2.35185 -0.0182,-2.35185 0.0571,0 0.13618,0.33073 0.17564,0.73495 0.075,0.76879 0.24192,1.97411 0.37038,2.67523 0.0961,0.52449 0.3586,1.10931 0.61139,1.3621 0.18446,0.18446 0.20639,0.17157 0.34092,-0.2003 0.18345,-0.5071 0.19553,-1.25111 0.035,-2.15426 -0.28621,-1.61017 -0.37121,-2.01905 -0.47373,-2.27897 -0.0633,-0.16037 -0.0645,-0.34988 -0.003,-0.45978 0.0897,-0.1602 0.12658,-0.14641 0.25809,0.0964 0.0844,0.15586 0.19685,0.52151 0.24988,0.81255 0.20977,1.15143 0.34391,2.09527 0.40946,2.88102 0.0793,0.95023 0.17504,1.11713 0.64111,1.11713 0.43422,0 0.46506,0.38194 0.0527,0.65217 -0.26246,0.17196 -0.31035,0.17108 -0.58797,-0.0108 -0.27026,-0.17708 -0.30223,-0.17838 -0.30223,-0.0122 0,0.10217 -0.10583,0.24241 -0.23518,0.31164 -0.30386,0.16262 -0.67672,-0.0264 -0.82587,-0.41872 -0.12533,-0.32964 -0.25945,-0.36131 -0.46765,-0.11045 -0.45088,0.54328 -1.08339,-0.0775 -1.35658,-1.33143 -0.21467,-0.98528 -0.54309,-2.0175 -0.9046,-2.8431 -0.37104,-0.84739 -0.42121,-0.98138 -0.49534,-1.32292 -0.0386,-0.17786 -0.14927,-0.32338 -0.24593,-0.32338 -0.0967,0 -0.26763,-0.0485 -0.37993,-0.10773 -0.11231,-0.0592 -0.6227,-0.2707 -1.1342,-0.46989 l -0.92999,-0.36218 -0.18714,0.25721 c -0.39371,0.54116 -0.83906,1.42031 -1.07645,2.125 -0.35408,1.05111 -0.3506,3.12569 0.007,4.20203 0.81282,2.44625 2.81745,4.45535 5.17104,5.18256 1.4802,0.45735 2.7043,0.57427 7.98297,0.76248 l 5.21617,0.18598 0.95744,-0.5847 c 0.86567,-0.52865 2.37007,-1.28752 3.13291,-1.58035 0.16169,-0.0621 0.38586,-0.15959 0.49817,-0.21672 0.1123,-0.0571 0.30762,-0.10388 0.43403,-0.10388 0.12641,0 0.25893,-0.0471 0.29449,-0.1046 0.0356,-0.0575 0.23711,-0.1347 0.44791,-0.17149 0.2108,-0.0368 0.67431,-0.12494 1.03002,-0.19588 1.10532,-0.22046 1.34762,-0.20774 1.38768,0.0728 0.0365,0.25531 -0.28195,0.38735 -1.38768,0.57545 -0.22636,0.0385 -0.58404,0.0998 -0.79483,0.13623 -0.2108,0.0364 -0.41236,0.11328 -0.44792,0.17081 -0.0356,0.0575 -0.1603,0.1046 -0.27721,0.1046 -0.62514,0 -3.5686,1.44277 -4.13836,2.02847 -0.23593,0.24253 -0.52042,0.44097 -0.6322,0.44097 -0.57167,0 -3.21029,2.73704 -4.64794,4.8213 -0.15614,0.22636 -0.34992,0.47964 -0.43063,0.56284 -0.0807,0.0832 -0.23938,0.3081 -0.3526,0.49977 -0.11323,0.19167 -0.24737,0.3485 -0.2981,0.3485 -0.0507,0 -0.0922,0.0525 -0.0922,0.11657 0,0.0985 -0.42463,0.71174 -0.97782,1.41213 -0.0766,0.097 -0.45339,0.59973 -0.83727,1.11713 -0.88663,1.19503 -2.67373,2.98727 -3.88815,3.89934 -1.00373,0.75382 -4.1235,2.86224 -4.23519,2.86224 -0.0368,0 -0.13078,0.0543 -0.2089,0.12068 -0.0781,0.0664 -0.38459,0.27721 -0.68106,0.46852 -0.29647,0.19131 -0.86532,0.64517 -1.26412,1.0086 -0.67421,0.6144 -0.72508,0.69635 -0.72508,1.16803 0,0.87489 0.59443,1.9519 2.13954,3.87645 0.3108,0.38712 0.56509,0.76635 0.56509,0.84274 0,0.0764 0.0397,0.15654 0.0882,0.17809 0.13739,0.0611 0.4374,0.61435 1.26461,2.33226 1.37166,2.84858 1.23763,2.64125 1.734,2.68233 0.49826,0.0412 0.53401,-0.0515 0.30922,-0.80174 -0.093,-0.31052 -0.0954,-0.5046 -0.008,-0.66041 0.10162,-0.18105 0.13405,-0.18899 0.18072,-0.0443 0.23879,0.74063 0.4956,1.34301 0.62976,1.47717 0.21116,0.21116 0.54446,0.0822 0.43795,-0.16942 z m -11.64485,-87.07922 c -0.27139,-0.70725 1.11699,-2.70605 1.94679,-2.80273 0.4073,-0.0474 0.42264,0.2226 0.0243,0.42857 -0.52007,0.26894 -1.10106,1.01487 -1.41872,1.82145 -0.28101,0.71355 -0.43252,0.86514 -0.55241,0.55271 z m 47.93218,80.12643 c 0.99216,-0.32416 1.77964,-0.67989 3.08515,-1.39363 2.89832,-1.58454 3.09382,-1.68498 4.32153,-2.22024 1.56479,-0.68222 2.88692,-1.0312 4.52731,-1.19499 1.55845,-0.15562 2.6246,-0.35272 2.71705,-0.5023 0.0331,-0.0536 0.15307,-0.0975 0.26651,-0.0975 0.11343,0 0.35503,-0.15531 0.53689,-0.34513 0.3702,-0.3864 0.35463,-0.73086 -0.0593,-1.31215 -0.12505,-0.17562 -0.22737,-0.35369 -0.22737,-0.39572 0,-0.042 -0.1585,-0.24553 -0.35223,-0.45222 -0.19373,-0.20669 -0.35248,-0.49717 -0.35278,-0.64551 -3e-4,-0.14835 -0.12517,-0.40412 -0.27749,-0.56839 -0.25959,-0.27996 -0.30633,-0.28987 -0.74591,-0.15817 -0.25793,0.0773 -0.91049,0.45676 -1.45013,0.8433 -1.04662,0.74967 -1.73225,1.11627 -2.5835,1.38138 -0.29104,0.0906 -0.57943,0.20852 -0.64088,0.26195 -0.0614,0.0534 -0.23029,0.0971 -0.37523,0.0971 -0.14494,0 -0.29623,0.0529 -0.3362,0.11759 -0.04,0.0647 -0.22518,0.1176 -0.41157,0.1176 -0.1864,0 -0.36784,0.0468 -0.4032,0.10403 -0.0354,0.0572 -0.21046,0.13224 -0.38912,0.16671 -0.17865,0.0345 -0.52325,0.11995 -0.76579,0.18995 -1.36679,0.39448 -1.8278,0.51449 -2.79282,0.72706 -1.6895,0.37215 -3.37089,0.58234 -5.13271,0.64162 l -1.31094,0.0441 -0.0731,-0.49578 c -0.24854,-1.68641 -0.32535,-3.60717 -0.39833,-9.96197 -0.0449,-3.9129 -0.0708,-7.13412 -0.0574,-7.15828 0.0134,-0.0242 0.1,-0.0149 0.19241,0.0206 0.21636,0.083 0.33689,3.74208 0.29707,9.01919 -0.0249,3.30505 0.0956,6.10139 0.32124,7.45282 l 0.0762,0.45605 1.81623,-0.0844 c 0.99893,-0.0464 1.98418,-0.1326 2.18946,-0.19148 0.20527,-0.0589 0.54555,-0.10704 0.75618,-0.10704 0.24492,0 0.38295,-0.0578 0.38295,-0.16029 0,-0.22568 -0.94947,-1.08681 -2.05787,-1.8664 -1.65707,-1.1655 -2.36124,-2.10241 -2.89581,-3.85294 -0.20322,-0.66545 -0.21648,-3.60752 -0.0196,-4.35092 0.6868,-2.59354 0.98749,-3.82588 1.10469,-4.52732 0.16062,-0.96142 0.46627,-1.69983 1.21234,-2.92885 0.29678,-0.4889 0.5396,-0.94272 0.5396,-1.0085 0,-0.0658 0.0221,-0.11959 0.0492,-0.11959 0.0271,0 0.14127,-0.0353 0.25383,-0.0785 0.35937,-0.13791 0.1115,0.58564 -0.52251,1.5252 -0.67817,1.00501 -0.84565,1.4599 -1.17752,3.19824 -0.13582,0.71143 -0.38305,1.76977 -0.5494,2.35185 -0.57493,2.01175 -0.63222,2.34735 -0.63643,3.72783 -0.009,2.8501 0.84699,4.40531 3.29775,5.99378 0.55488,0.35965 1.2428,0.92554 1.5287,1.25753 0.55612,0.64576 0.62914,0.67297 1.27583,0.47551 0.23096,-0.0705 0.57867,-0.16921 0.7727,-0.21929 0.48317,-0.12473 1.34942,-0.36637 1.70509,-0.47564 0.16169,-0.0497 0.53211,-0.15689 0.82315,-0.23825 2.34092,-0.65444 3.57933,-1.19532 4.78512,-2.08989 1.05867,-0.78543 1.42366,-0.96445 1.96636,-0.96445 0.32486,0 0.44241,0.0786 0.70003,0.46785 0.17028,0.25731 0.31175,0.53513 0.31438,0.61736 0.003,0.0822 0.16138,0.33272 0.35278,0.55664 0.1914,0.22393 0.348,0.44698 0.348,0.49569 0,0.0487 0.15875,0.33887 0.35278,0.64482 0.19402,0.30595 0.35265,0.69144 0.3525,0.85663 l -2.7e-4,0.30036 1.07915,-0.0383 c 0.60936,-0.0216 1.19819,0.0168 1.35259,0.0882 0.15039,0.0696 0.41439,0.19261 0.58667,0.27346 0.5083,0.23853 1.43221,1.1321 1.77705,1.71871 l 0.32036,0.54495 0.0363,-0.63985 c 0.0273,-0.4806 -0.0281,-0.76507 -0.22249,-1.14304 -0.52589,-1.0225 -2.21772,-2.25275 -4.01777,-2.92161 -0.45032,-0.16733 -0.55857,-0.26142 -0.55857,-0.48555 0,-0.18702 0.0674,-0.27746 0.20579,-0.27632 0.2761,0.002 2.35731,1.01139 3.38079,1.63925 1.28246,0.78674 1.58373,0.95775 2.52824,1.43513 0.48507,0.24517 0.94881,0.4471 1.03053,0.44873 0.0817,0.002 0.24047,0.0507 0.35278,0.10911 0.1123,0.0584 0.44231,0.16749 0.73335,0.24249 0.29105,0.075 0.75407,0.20991 1.02894,0.29981 0.58373,0.19092 0.65686,0.0601 0.23504,-0.4206 -0.25395,-0.28938 -1.29248,-1.05098 -1.43313,-1.05098 -0.0374,0 -0.58348,-0.33643 -1.21354,-0.74763 -0.63005,-0.41119 -1.51596,-0.96589 -1.9687,-1.23267 -0.45273,-0.26677 -0.90535,-0.55211 -1.00582,-0.63408 -0.24279,-0.1981 -0.93445,-1.21624 -0.93445,-1.37556 0,-0.0692 -0.0529,-0.1258 -0.1176,-0.1258 -0.0647,0 -0.11759,-0.0715 -0.11759,-0.15889 0,-0.14755 -0.84081,-1.13405 -1.73449,-2.03501 -0.41242,-0.41579 -0.43554,-0.47945 -0.26947,-0.74202 0.15822,-0.25017 1.32614,0.94821 2.23357,2.29182 0.71908,1.06472 1.3484,1.48115 2.91511,1.92897 1.35963,0.38862 1.87514,0.63712 2.95288,1.42347 0.44042,0.32134 0.90227,0.58232 1.02635,0.57996 0.138,-0.003 0.0369,-0.0928 -0.26029,-0.23224 -0.63317,-0.29704 -1.93706,-1.57736 -2.81292,-2.76208 -0.79705,-1.0781 -0.71611,-0.98221 -1.63175,-1.93325 -0.38347,-0.39829 -0.849,-0.81382 -1.0345,-0.9234 -0.19364,-0.11439 -0.47264,-0.47501 -0.6551,-0.84676 -0.1748,-0.35613 -0.3575,-0.66515 -0.40601,-0.68671 -0.0485,-0.0216 -0.0882,-0.13621 -0.0882,-0.25479 0,-0.11857 -0.0397,-0.23322 -0.0882,-0.25478 -0.0485,-0.0216 -0.2734,-0.40742 -0.49977,-0.85746 -0.25214,-0.50131 -0.71985,-1.13901 -1.20742,-1.6463 -0.74412,-0.7742 -0.90953,-1.1025 -0.60634,-1.20343 0.22062,-0.0734 1.50642,1.31178 1.88743,2.03338 0.20151,0.38163 0.54518,1.03783 0.76372,1.45822 0.21853,0.4204 0.46002,0.83082 0.53662,0.91204 0.0766,0.0812 0.1709,0.2473 0.20954,0.36904 0.0386,0.12174 0.27073,0.35401 0.51576,0.51616 0.24503,0.16216 0.65345,0.50251 0.90759,0.75634 0.64416,0.64336 2.24545,1.67976 2.59533,1.67976 0.39387,0 1.35947,0.24166 1.54437,0.3865 0.25296,0.19817 0.28943,0.008 0.0778,-0.40497 -0.43673,-0.85299 -0.96354,-1.43092 -2.04189,-2.24007 -0.61906,-0.46452 -1.18444,-0.90044 -1.25639,-0.96872 -0.072,-0.0683 -0.46743,-0.41517 -0.87883,-0.77089 -1.93785,-1.67555 -3.10076,-2.93984 -3.48827,-3.79236 -0.0808,-0.17786 -0.21132,-0.4689 -0.28995,-0.64676 -0.31227,-0.70636 -1.56535,-2.41433 -2.1905,-2.98568 -0.36392,-0.3326 -1.42974,-1.12613 -2.3685,-1.7634 -0.93876,-0.63727 -2.06772,-1.42043 -2.50881,-1.74035 -1.2177,-0.88323 -2.3265,-1.21192 -4.05976,-1.20349 -1.74831,0.009 -2.88703,0.32029 -5.04709,1.38192 -0.85787,0.42162 -1.61193,0.73434 -1.6757,0.69493 -0.0638,-0.0394 -0.11594,-0.22479 -0.11594,-0.41196 0,-0.68532 -0.62206,-1.90707 -1.35231,-2.65597 -0.58194,-0.5968 -1.92957,-1.57595 -2.16901,-1.57595 -0.0682,0 -0.12405,-0.0529 -0.12405,-0.1176 0,-0.0647 -0.0501,-0.11759 -0.11129,-0.11759 -0.0612,0 -0.4184,-0.17845 -0.79375,-0.39655 -0.37535,-0.21811 -1.291,-0.71306 -2.03477,-1.0999 -1.95902,-1.0189 -2.75815,-1.4696 -2.80263,-1.58067 -0.0216,-0.0538 -0.0901,-0.0979 -0.1523,-0.0979 -0.0622,0 -0.49436,-0.25552 -0.96034,-0.56782 -1.50533,-1.00889 -3.96235,-2.11624 -6.49168,-2.92572 -0.71143,-0.22769 -1.39935,-0.4535 -1.5287,-0.5018 -0.58666,-0.21905 -1.09517,-0.35559 -1.32433,-0.35559 -0.13711,0 -0.27838,-0.0471 -0.31394,-0.1046 -0.0356,-0.0575 -0.23711,-0.13367 -0.44791,-0.16921 -0.2108,-0.0355 -0.67431,-0.12475 -1.03002,-0.19825 -0.35572,-0.0735 -0.99072,-0.1786 -1.41112,-0.23356 -0.42039,-0.055 -1.00247,-0.16111 -1.29351,-0.23589 -0.6608,-0.16978 -2.73033,-0.37351 -3.82176,-0.37621 -0.92985,-0.002 -3.31751,0.20129 -4.29213,0.36599 -0.35572,0.0601 -0.88489,0.14415 -1.17593,0.18676 -0.29104,0.0426 -0.635,0.12271 -0.76435,0.17802 -0.22248,0.0951 -0.35772,0.1248 -1.35232,0.29667 -0.22636,0.0391 -0.5174,0.11645 -0.64675,0.17185 -0.12936,0.0554 -0.36748,0.1282 -0.52917,0.16179 -0.78984,0.16408 -1.10289,0.2667 -1.13838,0.37317 -0.0347,0.10397 1.55409,0.92412 3.39083,1.75041 0.7203,0.32405 1.69838,1.01904 1.98088,1.40755 0.097,0.13342 0.22931,0.52448 0.29398,0.86904 l 0.1176,0.62646 1.70509,0.0452 c 1.77569,0.0471 2.31215,0.12219 5.82854,0.81596 2.89943,0.57205 5.66694,1.29851 6.93025,1.81915 0.12936,0.0533 0.36748,0.15022 0.52917,0.21536 0.16169,0.0651 0.54534,0.23097 0.85255,0.36851 0.30721,0.13755 0.79669,0.35592 1.08773,0.48527 1.24561,0.5536 1.69189,0.78654 2.46944,1.28894 1.72283,1.11316 2.45216,2.21169 2.46229,3.70874 0.007,1.09738 -0.36173,1.76513 -1.75673,3.17771 -1.17412,1.18892 -1.46019,1.43166 -2.96921,2.51951 -0.27488,0.19815 -0.49977,0.40874 -0.49977,0.46797 0,0.0592 0.215,0.29172 0.47777,0.51665 0.47781,0.40898 0.93334,0.6174 0.93334,0.42702 0,-0.15213 0.77823,-0.49068 1.02177,-0.4445 0.15182,0.0288 0.22343,0.16668 0.24945,0.48037 0.0354,0.42666 0.0504,0.44 0.49423,0.44 0.25176,0 0.60575,-0.0604 0.78665,-0.13412 0.86243,-0.35167 1.108,-0.48143 1.44039,-0.76112 0.3273,-0.2754 0.35843,-0.36383 0.35843,-1.01813 0,-0.75077 -0.15876,-2.34475 -0.35582,-3.57245 -0.11265,-0.70185 -0.069,-1.09937 0.12064,-1.09937 0.27094,0 0.41791,1.20464 0.58824,4.8213 0.36446,7.73863 0.47084,8.71999 1.42771,13.17037 0.0626,0.29104 0.13845,0.71437 0.16862,0.94074 0.0696,0.52235 0.26728,1.55047 0.42956,2.23426 0.1304,0.54945 0.49194,1.05833 0.75191,1.05833 0.0825,0 0.19824,0.0861 0.25715,0.19137 0.0631,0.1127 0.36758,0.23607 0.74079,0.30012 2.34034,0.40166 3.98705,0.36007 5.51545,-0.13931 z m 7.87705,-8.83636 c -0.29104,-0.0604 -0.84667,-0.19129 -1.23472,-0.29074 -0.38806,-0.0995 -0.86513,-0.22117 -1.06016,-0.27046 -0.19502,-0.0493 -0.56544,-0.18289 -0.82314,-0.29686 -0.78722,-0.34816 -1.52372,-0.70549 -1.58568,-0.76932 -0.0323,-0.0333 -0.19936,-0.13292 -0.37116,-0.22135 -0.61287,-0.31545 -1.39273,-1.08854 -1.39273,-1.38063 0,-0.33577 0.11204,-0.3542 0.4188,-0.0689 0.31212,0.29031 1.91798,1.34829 2.31523,1.52533 0.96141,0.42846 2.01628,0.77179 2.91041,0.94725 1.44631,0.28382 2.06499,0.37279 2.59225,0.37279 0.55765,0 0.91505,0.21811 0.76232,0.46522 -0.0926,0.14979 -1.79075,0.14149 -2.53142,-0.0124 z m 0.72221,-3.63088 c -0.47591,-0.12541 -1.26966,-0.42213 -1.76389,-0.65938 -0.77783,-0.3734 -2.57504,-1.49876 -3.17249,-1.98652 -0.10755,-0.0878 -0.64534,-0.51704 -1.19509,-0.95385 -0.54974,-0.43682 -1.02599,-0.82353 -1.05833,-0.85937 -0.0323,-0.0359 -0.32338,-0.27234 -0.64676,-0.52555 -0.88592,-0.69368 -1.05425,-0.95079 -0.70916,-1.08321 0.1457,-0.0559 1.30309,0.81471 4.07171,3.06286 1.15751,0.93991 3.08256,1.95034 4.39856,2.30875 1.17773,0.32074 1.29352,0.37908 1.29352,0.6517 0,0.3022 -0.21108,0.30992 -1.21807,0.0446 z m 2.9795,-7.33644 c -0.74073,-0.76815 -0.98854,-0.93487 -2.41065,-1.62189 -1.61198,-0.77874 -3.08825,-1.37824 -3.93689,-1.59874 -0.25871,-0.0672 -0.68818,-0.17932 -0.95439,-0.24911 -0.2662,-0.0698 -1.1261,-0.12691 -1.91088,-0.12691 h -1.42686 v -0.29398 -0.29398 h 1.52701 c 0.83986,0 1.77913,0.061 2.08727,0.13547 0.61987,0.14989 1.84088,0.52963 2.20655,0.68625 0.12935,0.0554 0.47331,0.19661 0.76435,0.3138 0.29104,0.11718 1.16417,0.52578 1.94028,0.90799 1.22648,0.604 1.53035,0.81531 2.32245,1.615 0.84271,0.85078 1.15062,1.41077 0.76436,1.39011 -0.0808,-0.004 -0.51852,-0.39313 -0.9726,-0.86401 z m -42.50726,18.10503 c 0,-0.36658 -0.0238,-0.38532 -0.67491,-0.53103 -0.75034,-0.16792 -1.65829,-0.73244 -2.54201,-1.58051 -0.65058,-0.62432 -0.74573,-0.62316 -1.42855,0.0175 -0.45929,0.43096 -0.67731,0.77187 -0.8185,1.27984 -0.0732,0.26335 -0.0157,0.29715 0.87785,0.51565 0.22637,0.0554 0.62325,0.1606 0.88195,0.23388 1.04666,0.29646 1.44496,0.37932 2.17546,0.45254 0.4204,0.0421 0.93633,0.0576 1.14653,0.0344 0.34361,-0.038 0.38218,-0.0806 0.38218,-0.42226 z m -44.00231,-2.89021 c 0.30351,-0.0665 0.81643,-0.17457 1.13981,-0.2401 0.55086,-0.11164 0.81417,-0.17588 1.99907,-0.48771 0.921,-0.24237 1.29626,-0.35743 1.49771,-0.4592 0.11231,-0.0567 0.32662,-0.10316 0.47625,-0.10316 0.14963,0 0.32233,-0.0484 0.38377,-0.10764 0.0614,-0.0592 0.24401,-0.12534 0.4057,-0.14699 0.57257,-0.0766 0.22744,-0.27564 -0.61537,-0.3548 -2.91743,-0.27403 -4.11851,-0.34476 -6.89605,-0.40611 -2.59567,-0.0573 -3.08638,-0.0424 -3.00787,0.0913 0.16321,0.27809 1.27843,1.56347 1.51603,1.74735 0.76473,0.59182 1.81191,0.74953 3.10095,0.46702 z m 28.74172,-0.93739 c 0.0652,-0.16169 0.16532,-0.38587 0.22245,-0.49818 0.0571,-0.1123 0.10388,-0.30762 0.10388,-0.43403 0,-0.12641 0.0529,-0.26254 0.11759,-0.30252 0.0647,-0.04 0.11759,-0.19872 0.11759,-0.35277 0,-0.15406 0.0529,-0.31281 0.11759,-0.35278 0.0647,-0.04 0.1176,-0.19872 0.1176,-0.35278 0,-0.15405 0.0529,-0.3128 0.11759,-0.35278 0.0647,-0.04 0.11759,-0.22518 0.11759,-0.41157 0,-0.18639 0.0529,-0.3716 0.11759,-0.41157 0.0647,-0.04 0.1176,-0.22518 0.1176,-0.41158 0,-0.18639 0.0529,-0.3716 0.11759,-0.41157 0.0647,-0.04 0.11759,-0.22518 0.11759,-0.41158 0,-0.18639 0.0529,-0.3716 0.11759,-0.41157 0.0647,-0.04 0.1176,-0.22518 0.1176,-0.41158 0,-0.18639 0.0529,-0.3716 0.11759,-0.41157 0.0647,-0.04 0.11759,-0.18486 0.11759,-0.32197 0,-0.23492 0.15275,-0.79649 0.36022,-1.32433 0.0508,-0.12935 0.11831,-0.36747 0.14994,-0.52916 0.0316,-0.16169 0.22099,-0.92898 0.42081,-1.70509 0.19981,-0.77612 0.57432,-2.46945 0.83224,-3.76297 0.25792,-1.29352 0.51899,-2.58997 0.58016,-2.88102 0.29659,-1.41119 0.28453,-1.56056 -0.16087,-1.99225 -0.30133,-0.29206 -0.42661,-0.35401 -0.46923,-0.23203 -0.0727,0.2081 -0.76175,2.51226 -0.89373,2.98864 -0.21147,0.76328 -0.59683,2.26135 -0.71086,2.76342 -0.0661,0.29104 -0.1734,0.74084 -0.23845,0.99954 -0.065,0.2587 -0.1683,0.69526 -0.22944,0.97014 -0.4394,1.97548 -0.48601,2.20868 -0.93431,4.6743 -0.0647,0.35572 -0.17051,0.9378 -0.23518,1.29352 -0.0647,0.35572 -0.16863,0.92457 -0.23101,1.26412 -0.0624,0.33955 -0.17206,0.96132 -0.24374,1.38171 -0.0717,0.4204 -0.18034,1.0554 -0.24147,1.41112 -0.0611,0.35571 -0.13947,0.96426 -0.17411,1.35231 l -0.063,0.70556 0.1954,-0.41158 c 0.10747,-0.22636 0.24876,-0.54386 0.31398,-0.70555 z m 3.70607,0.64432 c 0.19716,-0.0984 0.42344,-0.25711 0.50284,-0.35278 0.0794,-0.0957 0.21285,-0.17395 0.29655,-0.17395 0.0837,0 0.16983,-0.0428 0.19139,-0.095 0.0216,-0.0523 0.30378,-0.27387 0.62716,-0.49245 1.50739,-1.01885 4.30862,-3.05758 4.99769,-3.63729 0.93026,-0.78264 1.43527,-1.31038 2.42752,-2.53679 1.02388,-1.26551 0.96705,-1.19272 1.60663,-2.05787 0.31079,-0.4204 0.63067,-0.84493 0.71085,-0.9434 0.0802,-0.0985 0.32578,-0.44243 0.54577,-0.76435 1.01461,-1.48472 2.29643,-3.05492 3.49639,-4.28302 0.47049,-0.48151 0.85543,-0.89162 0.85543,-0.91134 0,-0.0197 -1.00153,-0.0359 -2.22561,-0.0359 h -2.22561 l -0.32771,0.67616 c -0.18023,0.37189 -0.36934,0.6938 -0.42022,0.71535 -0.0509,0.0216 -0.0925,0.0897 -0.0925,0.15151 0,0.21063 -1.44923,2.27622 -2.31844,3.30447 -0.95251,1.12679 -2.08743,2.19038 -3.79637,3.55778 -0.61442,0.49162 -1.19651,0.95867 -1.29352,1.03787 -0.097,0.0792 -0.3616,0.2738 -0.58796,0.43244 -0.22637,0.15864 -0.4823,0.35713 -0.56875,0.44108 -0.0864,0.084 -0.35102,0.29706 -0.58796,0.47357 -0.23694,0.17651 -0.45725,0.34906 -0.48959,0.38344 -0.0323,0.0344 -0.29692,0.24558 -0.58796,0.46935 -0.29104,0.22376 -0.59013,0.46052 -0.66463,0.52612 -0.0745,0.0656 -0.53419,0.40852 -1.02154,0.76202 -0.52695,0.38223 -0.98902,0.82589 -1.14007,1.09464 -0.22556,0.40133 -0.23704,0.4939 -0.10263,0.82717 0.17244,0.42755 0.70417,0.9473 1.36181,1.33111 0.24746,0.14442 0.45503,0.26625 0.46126,0.27074 0.006,0.004 0.17264,-0.0723 0.3698,-0.17068 z m -12.55375,-3.70242 0.002,-2.17616 -0.32338,-0.12998 c -0.49157,-0.19758 -1.96796,-0.58597 -2.61643,-0.68829 -3.82729,-0.6039 -6.22698,-0.52787 -9.81898,0.31108 -0.52701,0.12309 -1.24137,0.28139 -2.11667,0.46903 -0.32338,0.0693 -1.24942,0.14727 -2.05787,0.17321 -0.80845,0.0259 -1.58845,0.10774 -1.73335,0.18179 -0.34942,0.17858 -0.67713,-0.10794 -1.03332,-0.90342 -0.14479,-0.32338 -0.38101,-0.69379 -0.52493,-0.82314 -0.383,-0.34425 -1.26555,-0.27889 -2.41851,0.17911 -2.03461,0.80822 -2.86959,1.23244 -4.18779,2.12761 -0.3769,0.25595 -1.11388,0.68213 -1.63774,0.94709 -0.88566,0.44794 -1.02794,0.4836 -2.02855,0.50844 -1.05717,0.0262 -1.48766,0.11152 -1.48766,0.29469 0,0.19236 0.47017,0.26102 2.41065,0.35205 1.62012,0.076 2.05927,0.0627 2.31661,-0.0703 0.45122,-0.23321 1.02915,-0.20251 1.49125,0.0792 0.33189,0.20233 0.51671,0.23073 1.11713,0.17167 1.34247,-0.13204 7.70409,0.18243 10.47964,0.51804 2.33769,0.28266 2.34,0.28269 3.06734,0.038 0.38259,-0.1287 0.90729,-0.28982 1.16599,-0.35803 0.2587,-0.0682 0.68818,-0.18114 0.95438,-0.25094 0.68464,-0.1795 2.62295,-0.15747 3.36141,0.0382 0.75173,0.19919 1.09505,0.32987 2.09301,0.7967 1.84605,0.86354 2.26897,1.04427 2.88101,1.23117 0.33968,0.10372 0.35817,0.0901 0.49799,-0.36647 0.0926,-0.30229 0.14585,-1.26313 0.14699,-2.65035 z m 11.56366,-0.35797 c 0.52896,-0.39396 1.04111,-0.77943 1.13812,-0.85659 0.097,-0.0772 0.41452,-0.32478 0.70556,-0.55026 0.29104,-0.22547 0.55562,-0.43641 0.58796,-0.46875 0.0323,-0.0323 0.29692,-0.24058 0.58797,-0.46276 0.46252,-0.35309 3.13425,-2.5539 3.29259,-2.71224 0.0323,-0.0323 0.45446,-0.40275 0.93805,-0.82315 1.51359,-1.31579 2.90381,-2.88445 3.98158,-4.4926 0.33397,-0.49832 0.6084,-0.94811 0.60983,-0.99954 0.001,-0.0514 0.1061,-0.2258 0.23258,-0.38749 0.12647,-0.16169 0.23113,-0.3505 0.23257,-0.41958 0.002,-0.0806 -0.85088,-0.17505 -2.37864,-0.26359 -3.64663,-0.21133 -5.2428,-0.54298 -6.87934,-1.42937 -0.36242,-0.19629 -0.72403,-0.3569 -0.80358,-0.3569 -0.0883,0 -0.16846,0.24044 -0.20584,0.61736 -0.0337,0.33955 -0.11625,0.88194 -0.18351,1.20532 -0.0673,0.32338 -0.17157,0.85255 -0.23183,1.17593 -0.15934,0.85505 -0.35237,1.81329 -0.47378,2.35185 -0.0583,0.2587 -0.16067,0.73495 -0.22744,1.05833 -0.19798,0.95891 -0.72818,3.11375 -0.89395,3.63325 -0.0847,0.26537 -0.27092,0.93229 -0.41387,1.48203 -0.14295,0.54975 -0.30852,1.09143 -0.36794,1.20373 -0.0594,0.11231 -0.10804,0.29376 -0.10804,0.40323 0,0.18218 -0.13712,0.67738 -0.35278,1.27406 -0.16489,0.45622 -0.35278,1.07609 -0.35278,1.1639 0,0.0489 0.13608,-0.0729 0.30239,-0.2705 0.16631,-0.19765 0.73517,-0.6817 1.26412,-1.07567 z m 7.62605,-29.29418 c 0.24752,-0.0539 0.67493,-0.15432 0.94981,-0.22304 0.60594,-0.15151 1.52116,-0.33444 2.11163,-0.42206 l 0.43593,-0.0647 -1.08269,-1.02607 c -0.59549,-0.56433 -1.34458,-1.26013 -1.66466,-1.54623 -0.32008,-0.28609 -0.79604,-0.7186 -1.0577,-0.96114 -0.26165,-0.24253 -0.52187,-0.44097 -0.57826,-0.44097 -0.0564,0 -0.0708,0.35719 -0.0319,0.79375 0.0388,0.43657 0.10516,1.54646 0.1474,2.46643 0.0508,1.10632 0.11804,1.64718 0.19861,1.59739 0.067,-0.0414 0.32433,-0.11943 0.57185,-0.17337 z m 7.53543,-1.11026 1.61733,-0.0763 -1.26455,-0.61444 c -1.28375,-0.62376 -1.97942,-1.17417 -2.678,-2.11881 -0.19132,-0.2587 -0.43032,-0.54974 -0.53112,-0.64675 -0.1008,-0.097 -0.3105,-0.3616 -0.466,-0.58797 -0.15551,-0.22636 -0.3142,-0.43803 -0.35264,-0.47037 -0.0384,-0.0323 -0.72892,-0.9825 -1.53437,-2.11147 -1.41099,-1.97771 -1.99029,-2.93405 -1.99256,-3.28944 -5.9e-4,-0.0924 -0.0504,-0.33055 -0.1107,-0.52917 -0.0603,-0.19861 -0.17226,-0.59925 -0.24882,-0.89029 -0.15147,-0.5758 -0.31761,-1.10132 -0.4647,-1.46991 -0.0516,-0.12935 -0.16149,-0.42039 -0.24415,-0.64676 -0.25297,-0.69274 -0.69198,-1.62956 -0.79287,-1.69191 -0.0525,-0.0325 -0.0542,0.18941 -0.004,0.49306 0.21659,1.30295 0.3335,2.96494 0.39455,5.60858 0.0358,1.55222 0.0941,3.21909 0.12954,3.70416 0.0736,1.00792 -0.14256,0.74109 2.58869,3.1958 0.76833,0.69054 1.63508,1.50162 1.92612,1.80239 l 0.52917,0.54687 0.94074,-0.0654 c 0.51741,-0.036 1.66854,-0.0998 2.55808,-0.14178 z m -9.46387,-26.53389 c 0.0659,-0.0809 0.17598,-0.3529 0.24469,-0.60458 0.0687,-0.25167 0.24219,-0.5824 0.3855,-0.73495 l 0.26058,-0.27737 -0.28508,-0.323 c -0.1568,-0.17765 -0.32477,-0.34081 -0.37328,-0.36258 -0.0485,-0.0218 -0.0882,-0.141 -0.0882,-0.26496 0,-0.18909 0.0861,-0.22539 0.535,-0.22539 0.81674,0 1.18098,-0.24119 1.2777,-0.84604 0.0813,-0.50828 0.45319,-1.03544 0.7305,-1.03544 0.2353,0 0.74939,-0.26117 0.74939,-0.3807 0,-0.0593 -0.2249,-0.57984 -0.49977,-1.1568 l -0.49977,-1.04903 -0.44002,0.0687 c -0.33172,0.0518 -0.54156,0.006 -0.85255,-0.18623 -0.22688,-0.14022 -0.41252,-0.30355 -0.41252,-0.36295 0,-0.1462 0.55557,-0.13796 0.64676,0.01 0.04,0.0647 0.25222,0.11759 0.47166,0.11759 0.33751,0 0.45152,-0.077 0.73997,-0.49977 0.18755,-0.27487 0.31797,-0.56591 0.28983,-0.64676 -0.0869,-0.2496 -0.78709,-0.16319 -1.57368,0.1942 -0.69775,0.31702 -1.01469,0.36569 -0.87137,0.13379 0.15791,-0.2555 1.63423,-0.84257 2.04437,-0.81296 0.63106,0.0456 0.72199,-0.0572 0.72125,-0.81549 -10e-4,-1.20248 -0.4841,-2.4919 -0.93328,-2.4919 -0.0702,0 -0.21948,-0.0478 -0.33178,-0.10613 -0.11231,-0.0584 -0.44232,-0.16779 -0.73336,-0.24316 -0.29104,-0.0754 -0.69167,-0.18635 -0.89029,-0.24664 -0.49422,-0.15003 -0.66126,-0.13886 -1.085,0.0725 -0.4156,0.20733 -1.2908,1.13961 -1.54961,1.65068 -0.41284,0.81522 -1.31436,2.03718 -1.83998,2.494 -0.31292,0.27196 -0.60783,0.49447 -0.65536,0.49447 -0.25985,0 -1.2175,-0.75271 -1.34577,-1.05778 -0.21104,-0.50193 -0.60273,-0.4846 -0.65223,0.0288 -0.0536,0.55641 -0.26065,0.46758 -0.34257,-0.147 -0.0593,-0.44454 -0.0767,-0.47275 -0.10932,-0.17638 -0.0695,0.63221 0.009,1.16641 0.24913,1.68569 0.19442,0.42118 0.2648,0.48529 0.405,0.36893 0.23202,-0.19255 0.37997,0.18507 0.19104,0.4876 -0.0749,0.1199 -0.13595,0.60237 -0.13571,1.07215 4.7e-4,0.91891 0.12829,1.23459 0.78102,1.92897 0.19091,0.2031 0.66058,0.75723 1.04369,1.23141 1.50944,1.86819 2.12294,2.48861 2.71701,2.74761 0.25054,0.10923 0.5349,0.244 0.63191,0.29949 0.27206,0.15561 1.24998,0.13282 1.38449,-0.0323 z m 1.32014,-2.08727 c 0,-0.15679 -0.0784,-0.23518 -0.23518,-0.23518 -0.29009,0 -0.30571,0.18242 -0.0294,0.34335 0.27211,0.15849 0.26458,0.16157 0.26458,-0.10817 z"
       id="path41" /></g></svg>
