<?xml version="1.0" encoding="UTF-8" standalone="no"?>
<!-- Created with Inkscape (http://www.inkscape.org/) -->

<svg
   width="101.46011mm"
   height="71.762306mm"
   viewBox="0 0 101.46012 71.762307"
   version="1.1"
   id="svg1"
   xml:space="preserve"
   xmlns="http://www.w3.org/2000/svg"
   xmlns:svg="http://www.w3.org/2000/svg"><defs
     id="defs1" /><g
     id="layer1"
     transform="translate(-300.76066,-1533.9447)"><path
       style="fill:#4d4d4d;stroke-width:2.5"
       d="m 371.78026,1605.1995 c -0.23975,-0.3877 0.7981,-1.73 2.30617,-2.9827 1.50808,-1.2528 2.74195,-2.5505 2.74195,-2.8843 0,-0.3607 -15.412,-0.6065 -38.03387,-0.6065 h -38.03385 v -15.9462 -15.9463 l 3.8413,3.544 c 6.51297,6.0088 12.04677,7.777 18.0535,5.7685 3.2304,-1.08 3.38805,-1.3795 2.20962,-4.2 -0.87865,-2.1027 -0.91772,-2.8085 -0.227,-4.0992 0.64103,-1.1978 0.65353,-1.7398 0.054,-2.3393 -2.4261,-2.4262 0.7402,-6.305 4.47683,-5.4845 2.60277,0.5718 2.8795,1.1263 1.69837,3.4028 -0.95455,1.84 -0.90957,1.9455 2.15325,5.0567 2.3018,2.3385 3.5515,3.127 4.7308,2.9855 0.88143,-0.105 1.72563,-0.567 1.87593,-1.0247 0.2005,-0.6105 -0.40333,-0.7378 -2.26408,-0.4773 l -2.53742,0.3548 2.48047,-2.0673 c 1.36428,-1.137 2.48048,-2.3305 2.48048,-2.652 0,-0.3215 -1.41388,-1.3205 -3.14193,-2.22 -1.72807,-0.8995 -2.69972,-1.6495 -2.15922,-1.6665 0.54047,-0.025 2.5491,0.7618 4.46362,1.7305 l 3.48095,1.7613 3.81915,-4.0763 c 2.10053,-2.242 4.2161,-4.0765 4.70128,-4.0765 0.4852,0 1.7226,0.7073 2.7498,1.5715 1.76135,1.4823 7.58285,2.9495 8.41202,2.1203 0.207,-0.2075 -0.127,-0.9323 -0.7419,-1.6118 -0.615,-0.6797 -1.396,-2.9427 -1.73557,-5.029 -0.8166,-5.0175 -1.25948,-6.3 -2.19878,-6.3677 -0.43022,-0.03 -2.35722,0 -4.2822,0.05 -2.4983,0.075 -4.16555,-0.287 -5.82557,-1.2665 -1.27908,-0.7548 -3.1779,-1.3723 -4.2196,-1.3723 -1.56968,0 -1.9692,-0.3422 -2.33303,-1.9987 -0.58487,-2.663 0.20225,-7.0355 1.50023,-8.3335 0.81282,-0.8128 2.115,-0.9915 5.84825,-0.803 2.64145,0.1325 5.01365,0.4535 5.27157,0.7115 0.25793,0.2577 -0.1565,0.9972 -0.92102,1.643 -0.7645,0.6457 -1.4764,2.067 -1.582,3.1585 -0.13,1.3435 -0.8946,2.505 -2.36803,3.597 -2.6459,1.9607 -1.93515,2.597 3.53165,3.1612 3.6389,0.3755 3.96095,0.18 3.67058,-2.2242 -0.0503,-0.4168 0.6125,-0.7145 1.47295,-0.6615 1.41092,0.087 1.65052,0.5807 2.44217,5.0357 0.48278,2.717 1.29703,5.6935 1.80945,6.6148 0.9204,1.6545 0.92713,1.6467 0.5539,-0.6403 -0.8506,-5.212 -0.58182,-11.1852 0.5833,-12.9632 1.00405,-1.5325 1.4793,-1.7075 3.88835,-1.432 3.09388,0.3535 9.02838,4.0125 9.02838,5.5665 0,0.8047 -0.48255,0.71 -2.48048,-0.4868 -1.36425,-0.8172 -2.95952,-1.8917 -3.54502,-2.3875 -0.58553,-0.4957 -2.19473,-1.046 -3.57603,-1.223 l -2.51145,-0.3215 0.41968,9.435 c 0.23075,5.1893 0.71872,10.457 1.08425,11.7063 0.8153,2.7865 0.3086,3.4727 -1.17708,1.594 -0.8087,-1.0228 -2.19557,-1.5348 -5.08107,-1.876 -4.44278,-0.5255 -6.34775,-1.3065 -6.1119,-2.5053 0.35042,-1.781 -2.65965,-0.2 -5.79435,3.0458 -1.819,1.8827 -3.94553,3.9142 -4.7256,4.5145 -1.14765,0.883 -1.3361,1.514 -0.98755,3.3072 0.36292,1.867 1.00312,2.5018 4.06415,4.0293 1.99837,0.9972 5.71502,2.4622 8.25927,3.2552 4.36095,1.3595 4.96708,1.3925 10.58333,0.576 3.2766,-0.4765 7.8346,-1.0002 10.12887,-1.1637 3.44095,-0.245 4.1349,-0.4898 3.9628,-1.3968 -0.30425,-1.6035 -5.86467,-1.8642 -8.12795,-0.3812 -2.60422,1.7062 -8.59047,0.8467 -14.6389,-2.1018 -2.68422,-1.3087 -4.8804,-2.5807 -4.8804,-2.8267 0,-0.245 2.6045,-0.419 5.78778,-0.384 4.6681,0.052 6.60362,0.4035 10.0052,1.8202 4.30905,1.795 5.3737,1.804 5.3737,0.045 0,-0.5482 0.79205,-3.9502 1.7601,-7.5605 1.43645,-5.3567 1.92572,-6.4262 2.66077,-5.8162 0.49535,0.4112 0.72505,1.3007 0.51043,1.977 -0.2145,0.6762 -0.147,1.2295 0.1505,1.2292 0.29737,-2e-4 0.50965,1.1003 0.47172,2.4455 -0.051,1.8115 -0.47995,2.7095 -1.65365,3.462 -2.06452,1.3235 -2.53375,2.0345 -2.09572,3.176 0.2475,0.6453 1.18375,0.8688 3.02057,0.7215 2.44975,-0.1975 2.71295,-0.055 3.30435,1.7708 0.35343,1.0915 1.06963,2.4757 1.59155,3.0762 1.43465,1.6508 0.219,2.036 -6.98497,2.2128 -7.0434,0.1725 -9.8452,1.0937 -10.43113,3.4282 -0.60412,2.407 1.24403,4.5038 7.7911,8.8393 5.27685,3.4942 8.43445,6.1962 8.47083,7.2482 0.007,0.1825 -0.90425,1.37 -2.02343,2.64 l -2.03487,2.3095 2.18637,0.447 c 1.69088,0.3458 2.83378,0.068 5.04278,-1.2267 3.35282,-1.9648 3.31282,-3.0128 -0.26723,-7.0025 -1.23482,-1.376 -3.04327,-4.1295 -4.0188,-6.1185 -0.9755,-1.989 -2.08372,-3.626 -2.4627,-3.6375 -0.37895,0 -1.2541,-0.4488 -1.94472,-0.9715 -1.5624,-1.1825 -0.5959,-2.6503 2.1038,-3.195 0.98875,-0.2 2.56467,-0.5543 3.50202,-0.7885 1.69393,-0.4233 1.70923,-0.3905 2.51315,5.417 1.13728,8.2157 1.17643,8.3502 3.05683,10.5137 2.61235,3.006 2.02055,4.7778 -2.31333,6.9263 -3.9107,1.9385 -10.91437,3.0325 -11.6627,1.8217 z m -38.60813,-25.4032 c 0,-0.5455 -0.29767,-0.8083 -0.66147,-0.5833 -0.3638,0.225 -0.66145,0.8553 -0.66145,1.401 0,0.5458 0.29765,0.8083 0.66145,0.5833 0.3638,-0.225 0.66147,-0.8553 0.66147,-1.401 z m 59.9722,18.4887 c -0.2425,-0.2425 -0.44095,-0.8512 -0.44095,-1.353 0,-0.6837 0.57875,-0.8032 2.3151,-0.4775 1.2733,0.24 2.3194,0.1775 2.32468,-0.135 0.005,-0.3135 -0.64433,-2.579 -1.44355,-5.0347 -1.57908,-4.8518 -1.3739,-4.7273 -7.49573,-4.5463 -1.70337,0.05 -1.79702,-0.028 -0.66145,-0.545 0.7276,-0.3317 2.689,-0.6245 4.35868,-0.65 2.68812,-0.04 3.13187,0.1625 3.87517,1.7725 1.01523,2.2 2.66315,7.472 2.67305,8.5518 0.0175,1.9897 -4.11682,3.8057 -5.505,2.4175 z m -1.76387,-5.2365 c -0.9095,-0.5047 -2.84428,-0.9545 -4.29948,-0.9997 l -2.64585,-0.082 2.97658,-0.596 c 3.20082,-0.6408 5.95312,0.2125 5.95312,1.8447 0,0.4843 -0.0745,0.8513 -0.16525,0.8158 -0.091,-0.035 -0.9095,-0.4778 -1.819,-0.9825 z m -7.4414,-7.9322 c -0.27285,-0.2758 -0.4961,-1.2853 -0.4961,-2.2433 0,-0.958 -0.31945,-2.0612 -0.70988,-2.4517 -0.50552,-0.5055 -0.0292,-1.1305 1.65413,-2.1708 6.36617,-3.9345 5.914,-8.2945 -1.71473,-16.5337 -3.05437,-3.2988 -4.3591,-4.2055 -7.05807,-4.9055 -3.94263,-1.0228 -6.72353,-2.715 -6.72353,-4.0918 0,-0.8075 0.34538,-0.7442 1.819,0.3323 1.00045,0.731 3.82345,1.7442 6.27333,2.252 2.44985,0.5075 5.12877,1.361 5.95312,1.8965 0.82435,0.5355 3.058,1.4887 4.96368,2.118 1.9057,0.6292 3.63477,1.4192 3.84242,1.7552 0.49788,0.8055 6.7248,0.7908 7.22415,-0.025 0.2135,-0.3455 -0.73635,-0.819 -2.11072,-1.0522 -2.52558,-0.4285 -10.0923,-4.0193 -13.74363,-6.5218 -4.03995,-2.7687 -6.28385,-5.2662 -6.28385,-6.994 0,-0.9392 -0.46795,-2.3755 -1.0399,-3.1922 -1.49895,-2.14 -7.95845,-5.1973 -12.89722,-6.1043 -7.41798,-1.3622 -7.92545,-1.5517 -4.91445,-1.8347 5.95315,-0.5595 18.14915,3.868 19.88122,7.2175 0.5251,1.0155 0.95473,2.2935 0.95473,2.84 0,3.8477 7.32692,9.1662 17.49855,12.702 3.29077,1.144 5.94982,2.3402 5.909,2.6585 -0.26488,2.0652 -8.22638,3.017 -10.54808,1.261 -0.70617,-0.534 -1.96847,-0.9805 -2.8051,-0.992 -0.83662,0 -2.42697,-0.4895 -3.53412,-1.062 -2.81995,-1.4583 -3.15435,-0.6465 -0.7735,1.8775 3.12735,3.3157 5.49802,7.9145 5.49802,10.6652 0,1.987 -0.46712,2.884 -2.4455,4.6965 -1.95375,1.79 -2.51905,2.8595 -2.8112,5.3185 -0.201,1.6928 -0.58892,2.8523 -0.86177,2.5765 z m -35.5534,-11.5258 c -0.5457,-0.3525 -0.69453,-0.6412 -0.33073,-0.6412 0.3638,0 1.10795,0.2887 1.65365,0.6412 0.5457,0.3528 0.69453,0.6413 0.33073,0.6413 -0.3638,0 -1.10795,-0.2885 -1.65365,-0.6413 z"
       id="path76" /></g></svg>
