<?xml version="1.0" encoding="UTF-8" standalone="no"?>
<!-- Created with Inkscape (http://www.inkscape.org/) -->

<svg
   width="127.1713mm"
   height="54.896458mm"
   viewBox="0 0 127.17132 54.896458"
   version="1.1"
   id="svg1"
   xml:space="preserve"
   xmlns="http://www.w3.org/2000/svg"
   xmlns:svg="http://www.w3.org/2000/svg"><defs
     id="defs1" /><g
     id="layer1"
     transform="translate(-229.86819,1.2862942)"><path
       style="fill:#4d4d4d"
       d="m 231.17542,53.409213 c -0.51932,-0.3047 -0.7138,-0.76569 -0.9241,-2.19052 -0.10501,-0.71144 -0.24824,-1.63748 -0.31829,-2.05787 -0.12618,-0.7573 -0.0597,-1.99814 0.12586,-2.34713 0.64873,-1.22045 1.5436,-3.28397 1.69081,-3.89891 0.23656,-0.98819 0.41142,-2.77617 0.41532,-4.24672 0.003,-1.28971 0.20267,-1.96795 0.64817,-2.20637 0.34907,-0.18682 0.46938,-0.51417 0.62697,-1.70597 0.10673,-0.80719 0.51515,-2.10508 0.72158,-2.29305 0.0355,-0.0323 0.14223,-0.21755 0.23717,-0.41158 0.0949,-0.19402 0.31022,-0.56444 0.47841,-0.82314 0.38424,-0.59101 1.28888,-2.45479 1.28888,-2.6554 0,-0.0826 0.0501,-0.31264 0.11143,-0.51126 0.0613,-0.19862 0.17327,-0.83737 0.24887,-1.41946 0.2386,-1.8372 0.48178,-2.55031 1.09274,-3.20439 0.47071,-0.50393 0.94718,-0.50218 2.15252,0.008 2.01024,0.85069 3.88975,1.25982 6.89414,1.50072 1.74544,0.13996 3.52905,0.0778 7.25679,-0.25268 3.11924,-0.27657 3.89709,-0.34332 5.35046,-0.45913 2.59145,-0.20649 4.29928,-0.11298 5.25953,0.288 0.24096,0.10062 0.27546,0.0279 0.80738,-1.70217 0.2088,-0.67909 0.42406,-1.28499 0.47835,-1.34643 0.0543,-0.0614 0.0987,-0.20768 0.0987,-0.32498 0,-0.11729 0.0467,-0.30514 0.10387,-0.41745 0.0571,-0.1123 0.15589,-0.33648 0.21946,-0.49817 0.20272,-0.51565 0.40655,-0.99341 0.51354,-1.20373 0.0571,-0.11231 0.10387,-0.2584 0.10387,-0.32466 0,-0.0663 0.11029,-0.35509 0.24508,-0.64185 l 0.24507,-0.52137 -0.13695,-0.62387 c -0.15456,-0.70408 -0.10311,-3.40603 0.0791,-4.15165 0.0632,-0.25871 0.21196,-0.68204 0.33056,-0.94074 0.21707,-0.4735 0.84846,-1.23472 1.02413,-1.23472 0.20569,0 0.078,0.57051 -0.1998,0.89305 -0.73373,0.85173 -1.10543,2.41952 -0.89508,3.77526 0.15698,1.01177 0.17172,2.5457 0.0272,2.82981 -0.13561,0.26658 -0.44202,1.00123 -0.73501,1.76229 -0.056,0.14552 -0.15128,0.38365 -0.21168,0.52917 -0.0604,0.14552 -0.17704,0.47625 -0.25919,0.73495 -0.0821,0.25871 -0.19149,0.52064 -0.24296,0.58209 -0.0515,0.0614 -0.0936,0.23029 -0.0936,0.37523 0,0.14494 -0.0529,0.29623 -0.11759,0.3362 -0.0647,0.04 -0.11759,0.17611 -0.11759,0.30252 0,0.12641 -0.048,0.32172 -0.10675,0.43403 -0.10309,0.19721 -0.3935,1.09066 -0.61105,1.87989 -0.0579,0.21019 -0.15404,0.55415 -0.21356,0.76435 -0.58924,2.08115 -1.3029,5.3845 -1.3029,6.0308 0,0.26718 -0.0396,0.5254 -0.088,0.57383 -0.16622,0.16621 -0.34714,1.60499 -0.21285,1.69261 0.0685,0.0447 0.48947,0.10769 0.93555,0.14003 0.59506,0.0431 0.84489,0.11274 0.9381,0.26134 0.23212,0.37009 -0.0333,0.43407 -1.33758,0.32247 -3.81719,-0.32661 -4.48307,-0.35403 -5.66812,-0.23342 -1.77142,0.18029 -2.20451,0.2502 -2.27706,0.36758 -0.0358,0.0579 -0.19167,0.10517 -0.3465,0.10517 -0.15483,0 -0.40306,0.0474 -0.55163,0.10535 -0.14856,0.0579 -0.50824,0.16981 -0.79928,0.24859 -0.29104,0.0788 -0.635,0.1838 -0.76435,0.23336 -0.12936,0.0496 -0.94956,0.31455 -1.82269,0.58884 -0.87312,0.27429 -1.71979,0.54366 -1.88148,0.59861 -0.47291,0.1607 -1.97749,0.53889 -3.05741,0.76849 -0.75256,0.16001 -1.52253,0.21257 -3.1162,0.21272 l -2.11667,2e-4 -1.99907,-0.43915 c -1.09949,-0.24153 -2.21074,-0.4866 -2.46945,-0.54459 -0.2587,-0.058 -1.04424,-0.1736 -1.74564,-0.25689 l -1.27527,-0.15145 -0.19464,0.24166 c -0.10705,0.1329 -0.28415,0.27294 -0.39357,0.31117 -0.10941,0.0382 -0.29462,0.21554 -0.41157,0.39399 -0.17535,0.26757 -0.22656,0.68625 -0.29199,2.38757 -0.0941,2.44706 -0.33075,3.46755 -1.26968,5.47572 -0.73272,1.56713 -0.76349,1.64022 -0.94043,2.23393 -0.15134,0.50779 -0.10649,1.89907 0.0966,2.99651 0.0658,0.35572 0.15615,0.91135 0.20072,1.23473 0.0851,0.6177 0.42376,1.11713 0.75742,1.11713 0.23073,0 0.60757,-0.38951 0.85916,-0.88803 0.13019,-0.25798 0.16312,-0.55723 0.11712,-1.06453 -0.0935,-1.03064 0.17556,-1.47384 1.95546,-3.22152 0.82335,-0.80845 1.7986,-1.84818 2.16723,-2.31052 1.59174,-1.99639 2.36642,-2.61183 3.95633,-3.14311 1.48823,-0.4973 3.11242,-0.60187 5.65087,-0.36379 2.94247,0.27597 6.99051,0.34274 11.16129,0.18411 5.24424,-0.19946 10.41,-0.50124 10.52355,-0.61479 0.0286,-0.0286 -0.0117,-0.42043 -0.0896,-0.87071 -0.0916,-0.52952 -0.14111,-2.21012 -0.14009,-4.75804 0.002,-4.28823 0.16593,-7.30197 0.6408,-11.75926 0.0655,-0.61442 0.17549,-1.6463 0.24452,-2.29305 0.069,-0.64676 0.17055,-1.62572 0.22561,-2.17547 0.0551,-0.54974 0.16969,-1.68745 0.25474,-2.52824 0.28626,-2.8302 0.14337,-6.23685 -0.37734,-8.9958302 -0.0671,-0.35572 -0.1761,-0.9378 -0.24215,-1.29352 -0.0661,-0.35572 -0.16441,-0.85843 -0.21858,-1.11713 -0.1498,-0.71542 -0.32923,-1.680239 -0.47017,-2.528241 -0.0699,-0.420393 -0.17441,-0.870185 -0.23229,-0.999537 -0.54269,-1.212657 -0.77685,-2.883376 -0.44995,-3.210278 0.0776,-0.07761 0.33859,-0.141111 0.57996,-0.141111 0.52589,0 0.80964,0.332771 1.16537,1.366734 0.25203,0.732522 0.76964,1.455561 1.88381,2.631414 0.39834,0.420394 0.98996,1.161227 1.31471,1.646299 0.32475,0.48507 0.77295,1.07373 0.99598,1.30814 l 0.40552,0.42619 0.26856,-0.26856 c 0.15087,-0.15087 0.76291,-0.42692 1.39664,-0.62992 1.32865,-0.4256 2.05389,-0.57711 5.1951,-1.08527 0.83418,-0.134948 1.81532,-0.317689 2.46944,-0.459939 0.25871,-0.05626 0.76141,-0.163754 1.11713,-0.238876 0.35572,-0.07512 0.76831,-0.183543 0.91688,-0.240936 0.14856,-0.05739 0.42325,-0.10435 0.61042,-0.10435 0.18717,0 0.36955,-0.04733 0.4053,-0.105171 0.0358,-0.05784 0.26377,-0.13291 0.50671,-0.166813 0.24294,-0.0339 0.67984,-0.121762 0.97088,-0.195241 0.29104,-0.07348 0.74083,-0.180728 0.99953,-0.238331 0.25871,-0.0576 0.68204,-0.155205 0.94075,-0.216895 1.52704,-0.364133 2.01866,-0.455939 4.05694,-0.75759 3.03519,-0.449188 6.81953,-0.67165 11.40648,-0.670529 4.36142,0.0011 6.72516,0.295869 10.49514,1.308943 0.82279,0.221101 2.60167,0.80645 2.82063,0.928143 0.1123,0.06242 0.285,0.113484 0.38377,0.113484 0.0988,0 0.27146,0.04674 0.38377,0.103873 0.19107,0.0972 0.42547,0.196305 1.14493,0.48409 0.16169,0.06468 0.42628,0.170509 0.58797,0.235185 0.16168,0.06468 0.41304,0.169093 0.55856,0.232033 0.73751,0.31898 3.49187,1.19251 4.26132,1.35144 l 0.87748,0.18125 0.63829,-0.4083 c 0.35106,-0.22457 0.87462,-0.60841 1.16348,-0.85297 0.80816,-0.684236 0.94848,-0.787404 1.26316,-0.928692 0.72761,-0.326691 0.99902,-0.415673 2.11502,-0.693404 0.16169,-0.04024 0.47919,-0.126023 0.70556,-0.190633 0.42165,-0.120349 0.91258,-0.245488 1.79328,-0.457107 2.40417,-0.577688 4.39277,-0.469225 6.08542,0.331913 0.93691,0.443441 1.8104,1.324565 2.27894,2.298833 0.53368,1.10973 0.61627,1.37185 0.78819,2.50142 0.17857,1.17329 0.0435,2.36362 -0.55218,4.8657002 -0.77381,3.25037 -1.20957,4.37393 -2.07979,5.36255 -0.71367,0.81078 -1.45899,1.10504 -2.79886,1.10504 -0.73037,0 -1.47518,0.0958 -2.3779,0.306 -1.06354,0.2476 -1.48941,0.29311 -2.23125,0.23844 -1.11416,-0.0821 -2.21589,0.21674 -2.82612,0.76656 -0.11834,0.10663 -0.34324,0.21836 -0.49977,0.24828 -0.55969,0.10699 -0.85753,-0.0481 -1.35324,-0.70466 l -0.48951,-0.64835 -0.65541,0.077 c -0.36047,0.0424 -0.6799,0.10152 -0.70984,0.13147 -0.0514,0.0513 0.13695,0.77372 0.33637,1.29032 0.0499,0.12936 0.15689,0.47331 0.23768,0.76436 0.16894,0.60861 0.34468,1.22335 0.47064,1.64629 0.0481,0.16169 0.15274,0.53211 0.23242,0.82315 0.0797,0.29104 0.18801,0.66146 0.24073,0.82315 0.0527,0.16169 0.29037,0.92898 0.5281,1.70509 0.3697,1.20694 0.87273,2.65593 1.2247,3.52778 0.0522,0.12935 0.14143,0.3565 0.19825,0.50477 l 0.10329,0.26958 0.99853,0.045 c 0.92258,0.0416 1.76225,0.14036 3.58557,0.42188 0.38805,0.0599 1.47284,0.15994 2.41064,0.22228 0.93781,0.0623 2.10209,0.14789 2.5873,0.19011 l 0.8822,0.0768 0.74682,-0.7476 c 0.41075,-0.41118 0.97346,-1.0651 1.25047,-1.45315 0.45233,-0.63367 1.34227,-2.27962 1.6054,-2.96921 0.0555,-0.14553 0.14785,-0.38365 0.20515,-0.52917 0.31682,-0.80454 0.73406,-2.86051 0.65595,-3.23218 -0.35458,-1.68712 -0.89995,-2.51249 -2.28701,-3.4612 -1.20034,-0.821 -1.64813,-1.2771 -1.64813,-1.67872 0,-0.40179 0.10913,-0.37913 0.58039,0.12049 0.21832,0.23146 0.8685,0.73792 1.44485,1.12545 1.02666,0.69033 1.73773,1.50093 1.73773,1.98099 0,0.10375 0.052,0.24066 0.11559,0.30424 0.3162,0.3162 0.30879,3.69795 -0.01,4.31017 -0.0584,0.1123 -0.10614,0.31146 -0.10614,0.44256 0,0.13111 -0.0467,0.33027 -0.10388,0.44257 -0.12193,0.23969 -0.28328,0.63175 -0.49538,1.20373 -0.3447,0.92954 -1.49858,2.6848 -2.42228,3.68473 l -0.41655,0.45093 3.21835,-0.0627 c 3.53379,-0.0688 4.46671,-0.15674 7.04011,-0.66326 1.57424,-0.30986 2.89266,-0.25527 3.34551,0.13853 0.0614,0.0534 0.19773,0.0971 0.30288,0.0971 0.33574,0 0.74065,0.53766 0.65673,0.87204 -0.10026,0.39948 -0.47641,0.57893 -1.05955,0.50548 -0.26518,-0.0334 -0.586,-0.0216 -0.71293,0.0261 l -0.23079,0.0869 0.28958,0.18275 c 2.44824,1.54503 2.57971,1.65359 2.80117,2.31303 0.20149,0.59995 0.16627,0.82037 -0.18913,1.18351 -0.17786,0.18172 -0.38206,0.42901 -0.45379,0.54951 -0.2275,0.38223 -0.45755,0.26453 -0.45755,-0.23408 0,-0.39958 -0.0789,-0.52659 -0.66663,-1.07376 -0.37379,-0.34796 -1.03242,-0.79308 -1.49931,-1.01328 -0.58065,-0.27385 -0.83267,-0.45715 -0.83267,-0.60563 0,-0.1171 0.0755,-0.24189 0.16779,-0.2773 0.30288,-0.11623 1.71251,0.69319 2.40907,1.3833 0.37062,0.36719 0.74943,0.67837 0.84178,0.69151 0.32526,0.0463 0.46191,-0.006 0.46191,-0.17581 0,-0.18705 -0.89079,-1.12168 -1.06906,-1.12168 -0.0932,0 -0.96011,-0.5314 -2.10594,-1.29092 -0.16169,-0.10718 -0.3905,-0.23082 -0.50846,-0.27476 -0.65053,-0.24234 0.48295,-1.00804 1.50476,-1.01651 l 0.58473,-0.005 -0.23195,-0.1555 c -0.12757,-0.0855 -0.53631,-0.22629 -0.9083,-0.31281 -0.67758,-0.1576 -1.27675,-0.10793 -2.85143,0.23637 -2.46439,0.53883 -3.11479,0.58471 -8.28824,0.58471 -5.30549,0 -7.0748,-0.11064 -9.60674,-0.60076 -0.33488,-0.0648 -1.26092,-0.13942 -2.05787,-0.16578 l -1.449,-0.0479 -0.0747,-0.32772 c -0.0411,-0.18025 -0.31123,-0.80397 -0.6003,-1.38606 -0.49526,-0.99729 -0.92828,-2.14621 -1.2631,-3.35139 -0.0809,-0.29104 -0.19016,-0.66145 -0.24289,-0.82314 -0.0527,-0.16169 -0.21193,-0.79669 -0.35376,-1.41111 -0.14183,-0.61443 -0.30023,-1.22297 -0.352,-1.35232 -0.0518,-0.12935 -0.12456,-0.38071 -0.16177,-0.55856 -0.0372,-0.17786 -0.0981,-0.4689 -0.13531,-0.64676 -0.0372,-0.17786 -0.10964,-0.42922 -0.16096,-0.55857 -0.0513,-0.12935 -0.2088,-0.6056 -0.34996,-1.05833 -0.14116,-0.45273 -0.30146,-0.92898 -0.35622,-1.05833 -0.0548,-0.12936 -0.18947,-0.44686 -0.29935,-0.70556 -0.54692,-1.28759 -1.3727,-2.62938 -2.14284,-3.48183 -0.56572,-0.62618 -0.49811,-0.9024 0.31958,-1.30564 0.35571,-0.17542 0.73116,-0.32094 0.83432,-0.32338 0.10316,-0.002 0.28334,-0.11026 0.4004,-0.23961 0.11706,-0.12936 0.25755,-0.23519 0.31221,-0.23519 0.17644,0 0.10554,0.68712 -0.11187,1.08416 -0.2604,0.47552 -0.54707,1.34945 -0.52757,1.60832 0.008,0.10584 0.23038,0.54779 0.49424,0.98211 0.26386,0.43432 0.48143,0.85678 0.48349,0.9388 0.002,0.082 0.0749,0.24295 0.16196,0.35764 l 0.15821,0.20852 0.0673,-0.25726 c 0.0561,-0.21447 0.0968,-0.23272 0.24507,-0.10971 0.0978,0.0811 0.21243,0.26183 0.25478,0.40151 0.0423,0.13968 0.20584,0.42595 0.36332,0.63614 0.39356,0.52532 0.97049,0.53805 1.33268,0.0294 0.2203,-0.30938 0.32172,-0.35278 0.82449,-0.35278 0.45438,0 0.61024,0.0528 0.75144,0.25435 0.242,0.34551 0.11129,0.50507 -0.23037,0.28121 -0.34098,-0.22342 -0.87519,-0.24075 -0.87519,-0.0284 0,0.0849 0.15914,0.30686 0.35365,0.4932 0.24057,0.23049 0.34397,0.43358 0.32338,0.63519 -0.0445,0.43519 0.2917,0.44318 0.72738,0.0173 0.20217,-0.19763 0.44407,-0.35933 0.53754,-0.35933 0.0935,0 0.38269,-0.0851 0.64271,-0.18916 l 0.47275,-0.18915 v -0.68374 c 0,-0.60293 0.0417,-0.72544 0.35277,-1.03652 0.19403,-0.19403 0.35278,-0.43623 0.35278,-0.53822 0,-0.28549 0.18375,-0.22171 0.52307,0.18154 0.41782,0.49655 0.65286,1.09455 0.65286,1.66103 v 0.47057 l 0.61736,-0.0673 c 0.33955,-0.037 0.85549,-0.12404 1.14653,-0.19341 0.29104,-0.0694 0.72309,-0.15785 0.96012,-0.19662 0.54437,-0.089 0.59126,-0.22582 0.62875,-1.83424 0.0193,-0.82963 0.0909,-1.39441 0.20862,-1.64629 0.88688,-1.89788 0.82343,-2.05298 -1.26369,-3.08879 -0.95512,-0.47401 -1.17352,-0.54198 -1.3919,-0.43316 -0.14247,0.071 -0.47996,0.19161 -0.74999,0.26805 -0.42781,0.12112 -0.53991,0.1104 -0.87164,-0.0833 -0.49409,-0.28857 -0.75009,-0.94741 -0.48575,-1.25012 0.0988,-0.11318 0.27974,-0.20579 0.40201,-0.20579 0.29164,0 0.79958,-0.5141802 0.79958,-0.8094002 0,-0.24041 -0.28748,-0.60171 -0.47877,-0.60171 -0.0601,0 -0.10919,0.23626 -0.10919,0.52503 0,0.39873 -0.0547,0.55431 -0.22746,0.64676 -0.35901,0.19214 -0.39539,0.15191 -0.31535,-0.34864 0.0861,-0.53854 -0.0722,-0.6122 -0.5885,-0.27388 -0.24409,0.15993 -0.31786,0.16739 -0.39655,0.0401 -0.0532,-0.086 -0.0695,-0.22737 -0.0362,-0.31408 0.0678,-0.17671 -0.17448,-0.20739 -0.41821,-0.053 -0.11163,0.0707 -0.1346,0.21475 -0.0765,0.47945 0.0719,0.32726 0.0537,0.37269 -0.13442,0.33646 -0.17667,-0.034 -0.21752,-0.15113 -0.21752,-0.62356 v -0.58167 l 0.39956,-0.26927 c 0.5534,-0.37293 1.98219,-0.38959 2.48857,-0.029 0.70558,0.50241 0.66425,1.57233 -0.0862,2.2312102 -0.33459,0.29378 -0.39081,0.39648 -0.26172,0.4781 0.1825,0.1154 0.92479,0.0198 1.09926,-0.14161 0.19867,-0.18375 0.9375,-0.10523 1.2406,0.13186 0.16169,0.12648 0.33737,0.23113 0.39039,0.23257 0.053,10e-4 0.31761,0.14975 0.58796,0.32959 0.27036,0.17984 0.64163,0.40288 0.82505,0.49565 0.85086,0.43036 1.11292,1.05356 0.76454,1.81817 -0.0752,0.16501 -0.10198,0.33473 -0.0596,0.37715 0.16747,0.16748 1.02752,-0.2259 1.5801,-0.72271 0.32071,-0.28835 0.61679,-0.49058 0.65796,-0.44941 0.45831,0.45831 -0.94769,1.68397 -2.26319,1.9729 -0.29224,0.0642 -0.42936,0.18336 -0.55388,0.48137 -0.17273,0.4134 -0.21485,1.44157 -0.09,2.1969 l 0.0729,0.44097 h 0.50825 c 0.4743,0 0.71585,-0.0653 1.46005,-0.39454 0.30861,-0.13654 1.29352,-1.04166 1.29352,-1.18873 0,-0.047 0.0968,-0.22598 0.21512,-0.39765 0.46289,-0.67167 0.89,-2.02015 1.38384,-4.36908 0.53534,-2.5463402 0.58512,-4.6824602 0.13956,-5.9879502 -0.13626,-0.39923 -0.70296,-1.33675 -0.96858,-1.60237 -0.59075,-0.590749 -1.83074,-1.14956 -3.23938,-1.459846 -1.00007,-0.220288 -2.77509,-0.092 -4.73311,0.342075 -0.30721,0.06811 -0.78346,0.173853 -1.05833,0.234993 -2.36602,0.526269 -2.69029,0.679155 -4.47477,2.109718 l -0.8,0.64133 0.29214,0.24459 c 0.36548,0.30599 1.01388,1.33843 1.01388,1.61439 0,0.11365 0.0602,0.33873 0.13375,0.50017 0.10603,0.23271 0.23397,0.30088 0.61736,0.32892 0.42803,0.0313 0.48361,0.0692 0.48361,0.32935 0,0.25462 -0.0588,0.29885 -0.43931,0.33038 -0.55214,0.0457 -0.95857,-0.32119 -1.08149,-0.97639 -0.0916,-0.4883 -0.57182,-1.26162 -1.02426,-1.64943 -0.15783,-0.13529 -0.63155,-0.3036 -1.10031,-0.39094 -1.11586,-0.2079 -3.2081,-0.85578 -5.05648,-1.56577 -1.44554,-0.55525 -1.68209,-0.64836 -2.32245,-0.914152 -0.14552,-0.0604 -0.47625,-0.177037 -0.73496,-0.259191 -0.2587,-0.08215 -0.52064,-0.191485 -0.58208,-0.242958 -0.0614,-0.05147 -0.2303,-0.09359 -0.37523,-0.09359 -0.14494,0 -0.29623,-0.05292 -0.3362,-0.117593 -0.04,-0.06468 -0.22518,-0.117593 -0.41158,-0.117593 -0.18639,0 -0.3716,-0.05292 -0.41157,-0.117592 -0.04,-0.06468 -0.22518,-0.117593 -0.41158,-0.117593 -0.18639,0 -0.36798,-0.04707 -0.40354,-0.1046 -0.0356,-0.05753 -0.23712,-0.133968 -0.44791,-0.169862 -0.2108,-0.03589 -0.64785,-0.123545 -0.97123,-0.19478 -1.52208,-0.33529 -2.75877,-0.529776 -4.93889,-0.77671 -2.79405,-0.316472 -11.03021,-0.02264 -14.99306,0.534883 -1.53481,0.21593 -3.5465,0.601683 -4.93888,0.94706 -0.29105,0.07219 -0.68792,0.158066 -0.88195,0.190831 -0.19403,0.03277 -0.45861,0.10528 -0.58796,0.161141 -0.12935,0.05586 -0.39394,0.128375 -0.58797,0.161141 -0.19402,0.03277 -0.5909,0.11864 -0.88194,0.190832 -0.29104,0.07219 -0.74083,0.17822 -0.99954,0.235618 -0.2587,0.0574 -0.73495,0.165545 -1.05833,0.240315 -1.52795,0.35331 -2.14768,0.4693 -4.7037,0.88037 -1.91213,0.30752 -3.12723,0.59955 -4.17356,1.00306 l -0.98459,0.3797 0.43792,0.3513 c 0.52912,0.42448 1.04293,1.16551 1.21468,1.75185 0.16105,0.54983 -0.0684,1.6809002 -0.56269,2.7744102 -0.12468,0.27581 -0.36816,0.91081 -0.54105,1.41112 -0.36544,1.05749 -0.36316,0.95074 -0.17177,8.02399 0.13174,4.86863 0.24184,6.12674 0.72548,8.29028 0.0723,0.32338 0.16006,0.78673 0.19505,1.02967 0.035,0.24294 0.11094,0.47096 0.16878,0.50671 0.0578,0.0357 0.10517,0.1925 0.10517,0.34835 0,0.39379 0.2022,0.27787 0.76435,-0.43821 0.25871,-0.32954 0.53249,-0.66295 0.60841,-0.74091 0.63933,-0.65649 2.26266,-3.64571 2.96952,-5.46811 0.47963,-1.23658 0.66088,-1.66379 1.02006,-2.40434 0.15516,-0.31991 0.28211,-0.65064 0.28211,-0.73496 0,-0.0843 0.04,-0.1533 0.0889,-0.1533 0.0489,0 0.16398,-0.17198 0.25575,-0.38217 0.0918,-0.2102 0.29764,-0.58169 0.45749,-0.82554 0.15984,-0.24385 0.26415,-0.46984 0.23178,-0.50221 -0.0324,-0.0324 -0.33768,9.6e-4 -0.67848,0.074 -0.50327,0.10794 -0.63865,0.10287 -0.72091,-0.0269 -0.22142,-0.34946 -0.0374,-0.47454 1.01225,-0.68789 1.04214,-0.21184 1.26763,-0.32047 1.54236,-0.743 0.16594,-0.25524 0.54355,-0.52838 1.13353,-0.81997 0.48658,-0.24048 0.94417,-0.43723 1.01687,-0.43723 0.0727,0 0.22407,-0.0478 0.33638,-0.10613 0.1123,-0.0584 0.41586,-0.16026 0.67456,-0.22642 1.39796,-0.35748 1.83191,-0.39569 3.76568,-0.33159 3.11744,0.10334 4.47735,0.38386 5.60108,1.15539 0.17168,0.11787 0.3739,0.2143 0.44938,0.2143 0.0755,0 0.2187,0.0815 0.31826,0.18103 l 0.18103,0.18103 0.13735,-0.18783 c 0.27428,-0.3751 3.52767,-0.34547 7.24491,0.066 1.63917,0.18144 4.85586,0.45191 8.29027,0.69707 0.84079,0.06 2.3139,0.16887 3.27358,0.24189 0.95969,0.073 1.76611,0.11153 1.79205,0.0856 0.0259,-0.0259 -0.0581,-0.16017 -0.18678,-0.29828 -0.12867,-0.13811 -0.23394,-0.35603 -0.23394,-0.48427 0,-0.93536 0.96869,0.46214 1.94802,2.81037 0.33029,0.79195 1.23912,2.54011 1.79442,3.4516 0.26999,0.44317 0.49089,0.85327 0.49089,0.91134 0,0.0581 0.0529,0.10557 0.1176,0.10557 0.0647,0 0.11759,0.0558 0.11759,0.12405 0,0.0682 0.21167,0.43574 0.47037,0.81669 0.2587,0.38096 0.47037,0.71661 0.47037,0.74589 0,0.0293 0.21399,0.40547 0.47554,0.83598 0.51979,0.8556 1.8247,3.45542 2.15715,4.29776 0.11486,0.29105 0.28927,0.71438 0.38756,0.94075 0.23894,0.55023 0.40325,0.94997 0.50753,1.23472 0.36789,1.00462 0.62461,1.50442 0.96377,1.87634 0.26781,0.29368 0.44122,0.36167 1.11713,0.43795 0.44007,0.0497 1.0647,0.14474 1.38808,0.21128 0.32338,0.0665 1.35525,0.20085 2.29305,0.29848 2.22907,0.23204 3.6921,0.11939 7.05556,-0.54328 2.7586,-0.5435 4.88712,-0.84389 8.23148,-1.16168 0.61442,-0.0584 1.31563,-0.14142 1.55825,-0.18453 0.52588,-0.0934 1.11773,0.15506 2.37215,0.99601 1.20188,0.80574 2.08751,1.20934 2.55533,1.16452 l 0.39344,-0.0377 -0.69702,-0.47037 c -0.76718,-0.51771 -0.96409,-0.75568 -0.85676,-1.03539 0.0587,-0.15289 0.24242,-0.0835 1.04765,0.39551 0.92353,0.54941 1.52473,0.71805 1.67765,0.47062 0.0654,-0.10588 -1.24197,-0.94787 -1.4718,-0.94787 -0.0612,0 -0.1113,-0.04 -0.1113,-0.0889 0,-0.0489 -0.15942,-0.15946 -0.35427,-0.2457 -0.4607,-0.20393 -0.67745,-0.57862 -0.39698,-0.68625 0.16832,-0.0646 1.13855,0.33327 1.33922,0.54917 0.0323,0.0348 0.31296,0.19138 0.6236,0.34796 0.31064,0.15658 0.69429,0.40469 0.85254,0.55136 0.55813,0.51726 0.23917,1.21864 -0.55419,1.21864 -0.32012,0 -0.44726,0.0662 -0.57087,0.29716 -0.29636,0.55374 -1.0716,0.53611 -2.27404,-0.0517 -0.80876,-0.39538 -1.7505,-0.937 -1.84001,-1.05824 -0.0323,-0.0438 -0.27046,-0.2032 -0.52916,-0.35422 -0.41458,-0.24201 -0.60825,-0.27242 -1.63283,-0.25643 -0.63935,0.01 -1.20942,0.0472 -1.26682,0.0827 -0.0574,0.0355 -0.67201,0.11288 -1.36579,0.17201 -1.95141,0.16631 -4.33272,0.51132 -6.37669,0.92387 -3.6055,0.72773 -5.69424,0.86611 -8.23183,0.54538 l -1.58785,-0.20069 -0.64976,0.39109 c -0.57276,0.34474 -1.15331,0.62081 -1.93658,0.92093 -0.40987,0.15704 -1.15826,0.33801 -1.69042,0.40877 -0.85637,0.11387 -0.95541,0.21365 -0.95541,0.96252 v 0.65813 l 0.41994,0.39606 c 0.23097,0.21784 0.52549,0.39606 0.65449,0.39606 0.36038,0 0.68945,0.21968 0.68945,0.46025 0,0.55409 -1.89387,0.7405 -2.78145,0.27377 -1.14244,-0.60075 -1.86728,-2.14842 -1.5662,-3.34414 0.0733,-0.29126 0.11584,-0.6626 0.0944,-0.82519 l -0.0389,-0.29563 -0.94074,0.70071 c -1.36565,1.0172 -1.96374,1.53053 -3.39359,2.91264 -1.34862,1.30359 -2.15459,2.32099 -2.52141,3.18284 -0.27533,0.6469 -0.42474,1.52087 -0.26,1.52087 0.0654,0 0.11898,-0.0555 0.11898,-0.12325 0,-0.28442 0.91456,-1.52268 1.69414,-2.29376 0.78068,-0.77217 2.39577,-2.05109 3.77392,-2.98841 0.32338,-0.21994 0.61442,-0.43779 0.64676,-0.4841 0.0323,-0.0463 0.16463,-0.10272 0.29398,-0.12535 0.16333,-0.0286 0.24553,0.031 0.26905,0.19509 0.0263,0.18351 -0.43477,0.59444 -2.066,1.84131 -1.15493,0.88278 -2.39636,1.87604 -2.75874,2.20723 -1.22922,1.12345 -2.05137,2.74048 -1.90149,3.73994 0.0691,0.46064 0.0535,0.51886 -0.12952,0.48287 -0.29982,-0.059 -0.52376,-0.9279 -0.52587,-2.04051 -0.004,-2.02055 1.08403,-3.92597 3.53772,-6.19642 0.60797,-0.56257 1.2377,-1.13585 1.39939,-1.27396 0.24338,-0.20789 0.2535,-0.23749 0.0588,-0.17197 -0.21973,0.0739 -0.70045,0.16195 -2.29306,0.41983 -1.22882,0.19897 -2.88679,0.35475 -4.47875,0.4208 l -1.59773,0.0663 -0.81291,-0.38844 c -0.44711,-0.21364 -0.92631,-0.51729 -1.06491,-0.67477 -0.31634,-0.35946 -0.42168,-0.99797 -0.32321,-1.95908 l 0.0766,-0.74803 -0.45628,0.0569 c -1.9047,0.23748 -4.28907,0.16671 -6.2771,-0.18629 -1.04882,-0.18623 -1.79157,-0.3366 -2.29306,-0.46421 -0.2587,-0.0658 -0.62912,-0.15251 -0.82315,-0.19261 -0.19403,-0.0401 -0.45861,-0.11587 -0.58796,-0.16836 -0.12935,-0.0525 -0.65852,-0.22856 -1.17593,-0.39128 -1.71069,-0.53798 -4.95861,-1.98285 -5.83133,-2.59413 -0.29106,-0.20387 -0.24484,-0.23681 -1.04765,0.74671 -1.16744,1.43025 -2.58849,2.8701 -3.73892,3.7884 -0.45521,0.36335 -3.17218,2.20882 -3.25192,2.20882 -0.0428,0 -0.3895,0.21167 -0.77045,0.47038 -0.38096,0.2587 -0.72708,0.47037 -0.76915,0.47037 -0.0421,0 -0.21695,0.0996 -0.38863,0.22141 -0.35156,0.24939 -0.28084,0.2082 -3.48713,2.03107 -1.29352,0.73541 -2.8281,1.56674 -3.41019,1.8474 -0.58208,0.28067 -1.14316,0.5534 -1.24683,0.60606 -0.10368,0.0527 -0.42118,0.13004 -0.70556,0.17195 -0.46935,0.0692 -0.81928,0.0296 -2.28094,-0.25803 l -0.47037,-0.0926 -0.52524,-1.04228 -0.52524,-1.04228 -1.12105,0.0757 c -8.15179,0.55076 -15.62402,0.7191 -18.70116,0.42131 -2.54967,-0.24674 -6.06844,-0.23328 -7.01759,0.0268 -1.19298,0.32696 -2.73908,1.13188 -2.74537,1.42929 -0.001,0.0723 -0.21802,0.29011 -0.4811,0.48414 -0.26307,0.19403 -0.91005,0.88092 -1.43773,1.52642 -0.52767,0.6455 -1.48153,1.69785 -2.11967,2.33855 -1.31359,1.31885 -1.60908,1.84683 -1.68291,3.007 -0.0945,1.48532 -0.20991,1.7802 -0.82387,2.1054 -0.32132,0.17021 -0.36997,0.16506 -0.79458,-0.0841 z m 42.86744,-10.46069 c 0.99596,-0.50635 2.03469,-1.06198 2.30828,-1.23473 0.27358,-0.17275 0.52261,-0.31409 0.55339,-0.31409 0.0308,0 0.33609,-0.16614 0.67849,-0.3692 0.72053,-0.42732 1.329,-0.77704 2.45851,-1.41302 0.15438,-0.0869 0.30715,-0.18451 0.33949,-0.21685 0.0323,-0.0323 0.19109,-0.13497 0.35278,-0.22807 1.11259,-0.64062 4.10552,-2.5588 4.23333,-2.71316 0.0323,-0.0391 0.17029,-0.14732 0.30656,-0.24059 0.89732,-0.61414 2.71923,-2.3462 3.70063,-3.51812 0.35075,-0.41884 0.69063,-0.82441 0.75531,-0.90128 2.03014,-2.41274 3.57624,-3.86263 3.83886,-3.60001 0.19723,0.19723 0.0162,0.53161 -0.49046,0.9058 -0.71266,0.52636 -2.2257,2.12002 -2.13494,2.2487 0.31134,0.44145 4.70437,2.33432 6.69464,2.88458 0.2102,0.0581 0.58062,0.16258 0.82315,0.23213 0.7791,0.22343 2.18655,0.50779 3.49838,0.7068 1.19763,0.18169 5.33514,0.27099 5.63491,0.12161 0.13459,-0.0671 0.37161,-0.13737 0.52669,-0.15623 0.32029,-0.0389 0.31843,-0.036 0.83516,-1.32781 0.26334,-0.65834 0.35745,-0.8699 0.86717,-1.94923 0.45061,-0.9542 2.05147,-3.56737 2.29974,-3.75401 0.043,-0.0323 0.20622,-0.244 0.36266,-0.47037 0.15645,-0.22636 0.35156,-0.48073 0.43359,-0.56525 0.21286,-0.21932 0.82836,-1.29616 1.5589,-2.72734 0.99959,-1.95827 1.83955,-3.175 2.19182,-3.175 0.33713,0 0.31868,0.36278 -0.0378,0.7427 -0.54102,0.57666 -0.99904,1.31248 -1.7094,2.74624 -0.35793,0.72242 -0.82498,1.56908 -1.03789,1.88148 -0.40522,0.59457 -1.05891,1.46687 -1.1747,1.56754 -0.0372,0.0323 -0.2992,0.40276 -0.58224,0.82315 -0.28304,0.42039 -0.55881,0.81727 -0.61282,0.88194 -0.5291,0.63358 -2.08954,3.49927 -2.33718,4.29213 -0.19355,0.6197 -0.35195,1.50144 -0.41825,2.32813 -0.0821,1.02386 0.27259,1.77211 1.12333,2.36963 l 0.3978,0.2794 2.01284,-0.1407 c 2.76242,-0.19309 5.62098,-0.59894 6.82229,-0.96859 0.18751,-0.0577 0.45712,-0.1049 0.59913,-0.1049 0.14202,0 0.57068,-0.19844 0.9526,-0.44098 0.38191,-0.24253 0.76053,-0.44626 0.84137,-0.45273 0.33284,-0.0266 0.38218,-0.0547 0.38218,-0.21712 0,-0.20108 0.69409,-1.40868 1.05124,-1.82899 0.58986,-0.69417 1.5932,-1.64629 1.73485,-1.64629 0.0845,0 0.15373,-0.0529 0.15373,-0.1176 0,-0.16223 -0.24623,-0.14397 -1.46991,0.10902 -2.91556,0.60277 -3.94191,0.76388 -6.08331,0.95492 -1.21724,0.1086 -1.56355,0.1042 -1.85208,-0.0235 -0.19519,-0.0864 -0.35454,-0.21032 -0.35411,-0.27537 0.002,-0.24321 0.49166,-0.84583 1.66854,-2.05172 1.38057,-1.41461 1.52945,-1.58874 2.17631,-2.54556 0.57355,-0.84838 1.56363,-2.7127 1.56363,-2.94432 0,-0.21662 0.33222,-0.3466 0.48793,-0.19089 0.0804,0.0804 0.0806,0.19109 7.9e-4,0.339 -0.0652,0.1208 -0.36034,0.71046 -0.65586,1.31033 -0.84558,1.71645 -1.54139,2.68167 -3.04101,4.21848 -0.76671,0.78573 -1.34437,1.45929 -1.28368,1.4968 0.0607,0.0375 0.53836,0.0352 1.06149,-0.005 l 0.95114,-0.0734 -0.23031,-0.29278 c -0.26525,-0.33721 -0.28186,-0.48963 -0.0975,-0.89435 0.18361,-0.40298 0.70177,-0.60772 1.05694,-0.41764 0.59335,0.31755 0.86733,0.94584 0.55058,1.26258 -0.26018,0.26019 0.81658,0.14917 3.05129,-0.31461 1.1802,-0.24494 2.17262,-0.47213 2.20536,-0.50488 0.0328,-0.0327 -0.14419,-0.47823 -0.3932,-0.98997 -0.24902,-0.51175 -0.62027,-1.2744 -0.82502,-1.69479 -0.20474,-0.4204 -0.5316,-1.02894 -0.72635,-1.35232 -0.19476,-0.32338 -0.38826,-0.66734 -0.43001,-0.76435 -0.0417,-0.097 -0.22576,-0.39759 -0.4089,-0.66795 -0.18314,-0.27035 -0.33298,-0.52394 -0.33298,-0.56353 0,-0.0396 -0.055,-0.13588 -0.1223,-0.21399 -0.54807,-0.63646 -2.12788,-3.56524 -2.97857,-5.52189 -0.10545,-0.24254 -0.27378,-0.61913 -0.37407,-0.83687 l -0.18235,-0.39589 -0.84659,-0.0713 c -0.46562,-0.0392 -1.29638,-0.10476 -1.84612,-0.14563 l -0.99954,-0.0743 -0.29398,0.26021 c -0.83561,0.7396 -2.29959,1.63245 -3.46898,2.11564 -0.19403,0.0802 -0.44466,0.19251 -0.55697,0.24964 -0.11231,0.0571 -0.30762,0.10387 -0.43403,0.10387 -0.12641,0 -0.25909,0.0473 -0.29484,0.10517 -0.27573,0.44614 -5.48286,0.44834 -6.32669,0.003 -0.1123,-0.0593 -0.32661,-0.10784 -0.47625,-0.10784 -0.14963,0 -0.32232,-0.0437 -0.38377,-0.0971 -0.0614,-0.0534 -0.34983,-0.17069 -0.64088,-0.26056 -0.52672,-0.16266 -1.27937,-0.53013 -2.17546,-1.06213 -0.54296,-0.32235 -0.44186,-0.24898 -1.60503,-1.16467 -0.49472,-0.38945 -0.94736,-0.70809 -1.00587,-0.70809 -0.0585,0 -0.28014,-0.17927 -0.4925,-0.39837 -0.46476,-0.4795 -1.50534,-1.01597 -2.30586,-1.18877 -2.07591,-0.44811 -5.56965,-0.46747 -7.17315,-0.0398 -2.01898,0.53855 -2.82148,1.06977 -4.01404,2.65711 -0.68163,0.90728 -1.50893,2.46757 -2.05687,3.87928 -0.13911,0.3584 -0.31078,0.7868 -0.47121,1.17593 -0.0733,0.17785 -0.17377,0.42921 -0.22319,0.55856 -0.89209,2.33455 -2.32122,4.67998 -3.74392,6.14435 l -0.48567,0.4999 v 1.58183 c 0,0.87001 -0.0462,1.70339 -0.10256,1.85195 -0.0564,0.14857 -0.16874,0.48179 -0.24964,0.74049 -0.16603,0.53091 -0.43094,0.88194 -0.66557,0.88194 -0.2043,0 -0.20167,-0.29265 0.006,-0.68741 0.0904,-0.17167 0.22819,-0.55025 0.30623,-0.84129 0.078,-0.29104 0.18374,-0.63852 0.23489,-0.77218 0.1301,-0.33996 -0.17022,-3.86562 -0.38998,-4.57828 -0.15645,-0.50736 -0.33486,-1.49881 -0.61368,-3.41019 -0.0377,-0.2587 -0.11534,-2.00495 -0.17244,-3.88055 -0.0683,-2.2439 -0.20727,-4.32511 -0.40626,-6.08537 -0.35451,-3.13585 -0.35476,-3.13373 0.6099,-5.11947 0.35458,-0.72988 0.66538,-1.5236302 0.69068,-1.7638902 0.0253,-0.24025 0.0776,-0.65529 0.11613,-0.92231 l 0.0701,-0.48548 -0.56955,-0.57903 c -0.31325,-0.31847 -0.87784,-0.81068 -1.25464,-1.09381 -0.58613,-0.44043 -1.37278,-1.35027 -1.37278,-1.58777 0,-0.20965 -1.06186,-1.589324 -1.81154,-2.353742 -0.80726,-0.82313 -1.15623,-1.355322 -1.49447,-2.279153 -0.16328,-0.445935 -0.64976,-1.072109 -0.83293,-1.072109 -0.0735,0 -0.0862,0.12516 -0.0329,0.32338 0.19913,0.740017 0.48835,2.205439 0.64404,3.263194 0.0571,0.388056 0.24266,1.52576 0.41231,2.52824 0.43143,2.54936 0.62576,4.06025 0.8618,6.7006202 0.15083,1.68713 -0.0297,4.39215 -0.67895,10.17392 -0.49597,4.41668 -0.69246,7.32354 -0.78727,11.64691 -0.10956,4.99668 0.15144,7.22684 1.04285,8.91054 l 0.38397,0.72526 0.44227,0.0707 c 0.24325,0.0389 0.47697,0.10536 0.51937,0.14776 0.0424,0.0424 0.48371,0.0771 0.98068,0.0771 h 0.90359 z m 50.0826,-1.17781 c 0,-0.0547 -0.11125,-0.20005 -0.24722,-0.3231 -0.3955,-0.35792 -0.57593,-0.8155 -0.57593,-1.46058 0,-1.10044 0.61205,-1.99093 2.44698,-3.56019 0.21091,-0.18037 0.3659,-0.36558 0.34442,-0.41157 -0.16651,-0.35649 -0.31936,-0.73317 -0.43954,-1.08316 -0.3718,-1.08274 -0.69954,-1.76489 -0.70288,-1.46294 -0.002,0.14477 -0.2572,0.4619 -0.63555,0.78855 -0.70943,0.61247 -1.62245,1.77114 -1.90739,2.42058 -0.10359,0.2361 -0.2491,0.55644 -0.32335,0.71186 -0.0795,0.16637 -0.13135,0.84339 -0.12611,1.64629 0.01,1.50505 0.14043,1.92531 0.72859,2.34412 0.47902,0.34109 1.43798,0.60127 1.43798,0.39014 z m 1.31718,-3.35822 c 1.40675,-0.37249 2.91616,-1.02716 2.91616,-1.26481 0,-0.12115 -0.0298,-0.12723 -0.77093,-0.15716 -0.327,-0.0132 -0.72727,-0.11097 -0.88949,-0.21726 l -0.29494,-0.19325 -1.05079,0.99299 c -1.14374,1.08083 -1.13484,1.16382 0.09,0.83949 z m -80.55765,-1.25278 c 1.15566,-0.11792 3.10903,-0.47825 3.74603,-0.69102 0.16169,-0.054 0.53211,-0.16328 0.82315,-0.24283 0.29104,-0.0795 0.635,-0.18521 0.76435,-0.23482 0.12935,-0.0496 0.63206,-0.20775 1.11713,-0.35145 0.48507,-0.1437 0.97383,-0.30875 1.08613,-0.36678 0.11231,-0.058 0.28501,-0.10551 0.38378,-0.10551 0.0988,0 0.27146,-0.0478 0.38377,-0.10613 0.1123,-0.0584 0.44231,-0.17024 0.73336,-0.24859 0.29104,-0.0784 0.635,-0.18536 0.76435,-0.23779 0.12935,-0.0524 0.39393,-0.12815 0.58796,-0.16825 0.19403,-0.0401 0.56445,-0.12354 0.82315,-0.18541 0.2587,-0.0619 0.99954,-0.19721 1.6463,-0.30076 1.14935,-0.184 1.54315,-0.18147 4.06707,0.0261 l 0.89208,0.0734 0.14819,-0.5293 c 0.0815,-0.29112 0.12924,-0.62825 0.10608,-0.74919 l -0.0421,-0.21988 -2.57535,-0.0768 c -1.41644,-0.0422 -3.00332,-0.13738 -3.52639,-0.21145 -1.99823,-0.28293 -2.58322,-0.37825 -4.30243,-0.70102 -1.86122,-0.34943 -2.97805,-0.45496 -6.2912,-0.59446 -2.7678,-0.11653 -4.12841,-0.0686 -5.17408,0.18231 -0.75859,0.18202 -1.85844,1.09319 -2.83187,2.34606 -0.35797,0.46074 -1.57785,2.4334 -1.57785,2.55154 0,0.0335 0.17198,0.0995 0.38217,0.14657 4.98327,1.11585 5.7436,1.21207 7.86625,0.99549 z m -7.9885,-2.57056 c 1.64345,-2.7262 3.05948,-3.9984 4.79657,-4.30936 0.70226,-0.12572 2.72991,-0.10622 5.46805,0.0526 2.66926,0.15482 3.76413,0.27952 6.29121,0.71656 1.56151,0.27005 2.23084,0.37467 3.0574,0.47788 1.30937,0.1635 6.04856,0.39001 6.38633,0.30524 0.23966,-0.0602 0.3042,-0.16409 0.35644,-0.57397 0.0631,-0.49506 0.19274,-1.1789 0.41818,-2.20561 0.0639,-0.29104 0.16841,-0.76894 0.23222,-1.06199 0.0638,-0.29306 0.22563,-0.95125 0.35958,-1.46266 0.3123,-1.1923 0.30745,-1.28904 -0.0733,-1.46251 -0.68496,-0.31209 -3.89927,-0.2712 -8.20864,0.10443 -0.64676,0.0564 -1.96967,0.17082 -2.93981,0.25433 -1.9526,0.16808 -6.62803,0.20706 -7.81991,0.0652 -2.11402,-0.25162 -4.62787,-0.91776 -5.9043,-1.56458 -1.45991,-0.73979 -1.90426,-0.13734 -2.56783,3.48149 -0.35929,1.95941 -0.63902,2.72675 -1.41798,3.88974 -0.77866,1.16253 -1.39878,2.32584 -1.39878,2.62402 0,0.0963 -0.0529,0.20784 -0.11759,0.24781 -0.0647,0.04 -0.11759,0.43791 -0.11759,0.88431 v 0.81163 l 1.02893,0.0402 c 0.56592,0.0221 1.10376,0.0374 1.19522,0.034 0.0915,-0.003 0.53046,-0.61036 0.97558,-1.34873 z m 70.85252,-13.07451 c 1.56905,-0.36272 1.9003,-0.47083 2.9709,-0.96958 0.87019,-0.40539 2.35185,-1.34317 2.35185,-1.48854 0,-0.0533 -0.38365,-0.12608 -0.85255,-0.1617 -0.4689,-0.0356 -1.61984,-0.12139 -2.55764,-0.1906 -3.31904,-0.24494 -5.5656,-0.46132 -7.43085,-0.71572 -0.43279,-0.059 -1.83508,-0.10511 -3.11621,-0.10242 l -2.32932,0.005 0.47037,0.41867 c 1.10073,0.97976 2.56839,1.88074 3.88055,2.38222 0.38806,0.14831 0.81139,0.31342 0.94074,0.36692 0.27198,0.11249 0.68663,0.2045 1.56904,0.34816 0.34557,0.0563 0.65866,0.13264 0.69576,0.16974 0.12052,0.12052 2.83111,0.0712 3.40736,-0.062 z m 25.1959,-3.35286 c 0,-0.5016 -0.38747,-1.45652 -0.59101,-1.45652 -0.10436,0 -0.35018,0.84042 -0.34793,1.18957 0.002,0.33672 0.0971,0.49167 0.40977,0.66899 0.43157,0.24472 0.52917,0.17057 0.52917,-0.40204 z m -6.50679,0.11138 c -0.0431,-0.0431 -0.0784,-0.008 -0.0784,0.0784 0,0.0862 0.0353,0.12151 0.0784,0.0784 0.0431,-0.0431 0.0431,-0.11367 0,-0.15679 z m -2.20657,-4.29008 c 0.071,-0.20368 0.1291,-0.41891 0.1291,-0.47829 0,-0.14054 -0.48077,0.005 -0.6977,0.21082 -0.14589,0.1386 -0.13949,0.19219 0.0476,0.39895 0.29164,0.32225 0.36967,0.30256 0.52098,-0.13148 z m 12.24113,16.79756 c 0,-0.19844 0.49985,-0.66386 1.88506,-1.75524 2.40905,-1.89803 3.05771,-3.00488 3.3954,-5.79375 0.0705,-0.58208 0.12829,-1.36261 0.12847,-1.73449 1.9e-4,-0.37189 0.0514,-0.67616 0.11379,-0.67616 0.43085,0 0.55461,1.99638 0.20411,3.29259 -0.11368,0.4204 -0.46975,1.3048 -0.79126,1.96535 -0.66962,1.3757 -1.5083,2.35846 -2.85831,3.34935 -0.46339,0.34013 -1.0542,0.81747 -1.3129,1.06077 -0.48319,0.45442 -0.76436,0.56168 -0.76436,0.29158 z m -5.82673,-1.26734 c -0.0432,-0.0699 0.0727,-0.28884 0.25764,-0.48646 0.37058,-0.39602 2.11459,-1.7302 2.39409,-1.8315 0.097,-0.0352 0.39759,-0.21378 0.66795,-0.39691 0.27036,-0.18314 0.52541,-0.33298 0.56678,-0.33298 0.0414,0 0.30595,-0.15875 0.58796,-0.35278 0.28201,-0.19403 0.56495,-0.35278 0.62875,-0.35278 0.0638,0 0.13364,-0.0397 0.1552,-0.0882 0.0216,-0.0485 0.27732,-0.27189 0.56836,-0.49639 0.8518,-0.65706 1.37958,-1.17482 1.91154,-1.87524 0.27419,-0.36101 0.52765,-0.68284 0.56326,-0.71518 0.0969,-0.088 0.74535,-1.20116 0.85078,-1.46044 0.0685,-0.16851 0.12564,-0.19186 0.22538,-0.0921 0.17495,0.17496 -0.40093,1.32334 -1.19571,2.38438 -0.62832,0.83883 -1.77173,1.95841 -2.34733,2.29842 -0.19838,0.11719 -0.36069,0.25458 -0.36069,0.30531 0,0.0507 -0.075,0.0922 -0.16659,0.0922 -0.0916,0 -0.18423,0.0397 -0.20579,0.0882 -0.0216,0.0485 -0.19795,0.18091 -0.39197,0.29422 -1.77659,1.03755 -2.9236,1.79036 -3.67255,2.41041 -0.48825,0.40423 -0.90365,0.73496 -0.92311,0.73496 -0.0195,0 -0.0707,-0.0572 -0.11395,-0.12715 z m -2.63895,-6.21976 c -0.2856,-0.18056 0.008,-0.35818 0.77578,-0.46906 0.94209,-0.13608 1.61213,-0.37694 3.33898,-1.20023 0.80845,-0.38544 1.6022,-0.75648 1.76389,-0.82454 0.16169,-0.0681 0.37509,-0.16376 0.47423,-0.21266 0.43381,-0.21401 0.9006,-0.24543 1.04586,-0.0704 0.20511,0.24715 0.0702,0.40111 -0.29105,0.33206 -0.1679,-0.0321 -0.42051,-0.006 -0.56137,0.0579 -0.49794,0.22597 -1.20262,0.5871 -1.66721,0.85439 -1.70681,0.98195 -2.28163,1.21606 -3.64537,1.48467 -0.96884,0.19083 -1.00544,0.19225 -1.23374,0.0479 z m 9.97612,-17.5993502 c -0.76776,-0.64278 -1.38649,-0.86578 -2.40213,-0.86578 h -0.87219 v -0.29398 c 0,-0.25729 0.055,-0.29681 0.44097,-0.31666 0.86775,-0.0446 1.62272,0.0484 2.04366,0.25178 0.7021,0.33922 1.51351,1.08082 1.51351,1.3833 0,0.36796 -0.12844,0.33981 -0.72382,-0.15866 z"
       id="path16" /></g></svg>
