<?xml version="1.0" encoding="UTF-8" standalone="no"?>
<!-- Created with Inkscape (http://www.inkscape.org/) -->

<svg
   width="130.86794mm"
   height="62.817005mm"
   viewBox="0 0 130.86795 62.817006"
   version="1.1"
   id="svg1"
   xml:space="preserve"
   xmlns="http://www.w3.org/2000/svg"
   xmlns:svg="http://www.w3.org/2000/svg"><defs
     id="defs1" /><g
     id="layer1"
     transform="translate(-132.43613,-1000.1747)"><path
       style="fill:#4d4d4d"
       d="m 170.41924,1062.8849 c -0.42039,-0.054 -1.18768,-0.147 -1.70509,-0.2067 -0.51741,-0.06 -1.62866,-0.191 -2.46944,-0.2918 -0.84079,-0.1007 -1.86247,-0.1849 -2.27041,-0.1869 -2.73802,-0.014 -6.42056,-1.1722 -9.37126,-2.9479 -0.32338,-0.1946 -0.66734,-0.3877 -0.76435,-0.4291 -0.097,-0.041 -0.31685,-0.1724 -0.48853,-0.2913 -0.17167,-0.1188 -0.47345,-0.216 -0.67062,-0.216 -0.54265,0 -1.30817,-0.3264 -2.28412,-0.9739 -0.77906,-0.5168 -1.53898,-1.4289 -2.06846,-2.4826 -0.33285,-0.6624 -0.4443,-0.9863 -0.85386,-2.4819 -0.50431,-1.8416 -1.49648,-3.0738 -3.62164,-4.4977 -1.0631,-0.7124 -1.28516,-0.8077 -2.53638,-1.0885 -1.5278,-0.3429 -3.07485,-0.8122 -3.56076,-1.0802 -0.21216,-0.1171 -0.43996,-0.2128 -0.50622,-0.2128 -0.18589,0 -1.49908,-0.9135 -2.26886,-1.5784 -1.74033,-1.503 -1.93481,-1.7655 -2.40852,-3.2513 -0.24919,-0.7815 -0.13917,-2.5026 0.22121,-3.4606 0.0487,-0.1293 0.15662,-0.4733 0.23991,-0.7643 0.0833,-0.2911 0.19516,-0.5795 0.24859,-0.6409 0.0534,-0.062 0.0971,-0.2303 0.0971,-0.3753 0,-0.1449 0.0529,-0.2962 0.11759,-0.3362 0.0647,-0.04 0.11759,-0.1761 0.11759,-0.3025 0,-0.1264 0.0478,-0.3217 0.10613,-0.434 0.0584,-0.1123 0.16421,-0.4291 0.23519,-0.704 0.30138,-1.1671 0.42148,-1.5294 0.68346,-2.0619 0.92588,-1.8818 3.92087,-2.9796 5.6803,-2.082 0.2412,0.123 0.89605,0.2806 1.45522,0.35 0.55917,0.07 1.16112,0.1843 1.33768,0.255 0.17655,0.071 0.42684,0.1658 0.55619,0.2112 0.74568,0.2618 1.42714,0.6966 1.69618,1.0823 0.4189,0.6004 0.67244,0.6873 2.00447,0.6873 1.14005,0 1.16799,0.01 1.52317,0.3619 0.39682,0.3968 0.42912,0.5377 0.22558,0.9844 -0.18246,0.4005 0.0879,0.7007 0.79025,0.8776 0.29987,0.075 0.52192,0.2 0.52192,0.2926 0,0.2367 0.25494,0.6817 0.57008,0.995 0.18592,0.1849 0.25852,0.3664 0.2223,0.5559 -0.0412,0.2155 0.0798,0.4207 0.51766,0.8773 0.54791,0.5715 0.62203,0.7519 0.57739,1.4053 -0.0211,0.3092 -0.9025,1.2504 -1.65224,1.7644 -0.22637,0.1552 -0.43803,0.3141 -0.47037,0.3532 -0.0554,0.067 -0.63661,0.3442 -1.49931,0.7153 -0.21019,0.09 -0.38217,0.2229 -0.38217,0.2944 0,0.3822 0.96145,1.3695 1.72491,1.7711 0.75701,0.3983 1.66826,0.2003 4.80148,-1.0435 0.64675,-0.2568 1.41405,-0.5429 1.70509,-0.6359 0.29104,-0.093 0.62105,-0.2202 0.73336,-0.2829 0.1123,-0.063 0.30762,-0.1138 0.43403,-0.1138 0.12641,0 0.25877,-0.047 0.29414,-0.1041 0.0354,-0.057 0.21046,-0.1333 0.38911,-0.1691 0.17865,-0.036 0.56295,-0.1257 0.85399,-0.1996 1.32222,-0.336 3.63732,-0.5537 3.76098,-0.3536 0.0615,0.1 0.15483,0.1079 0.3096,0.028 0.12185,-0.063 0.3803,-0.187 0.57432,-0.2753 0.19403,-0.088 0.37924,-0.1896 0.41158,-0.2251 0.0323,-0.036 0.244,-0.192 0.47037,-0.3475 1.40582,-0.9662 3.01938,-2.9854 4.36948,-5.4679 0.79165,-1.4557 2.91968,-5.8517 3.24466,-6.7028 0.84322,-2.2082 0.99913,-2.6083 1.16863,-2.9986 1.32406,-3.049 2.47587,-4.2744 4.40909,-4.6907 0.78453,-0.1689 1.08635,-0.1071 2.8758,0.5891 1.78479,0.6944 3.57173,1.6209 5.97433,3.0976 2.59858,1.5972 3.42775,2.2156 5.10801,3.8096 l 0.54024,0.5124 0.099,-0.3949 c 0.0544,-0.2171 0.12705,-0.5673 0.16139,-0.7781 0.0343,-0.2108 0.10951,-0.4124 0.16704,-0.4479 0.0575,-0.036 0.1046,-0.1907 0.1046,-0.3448 0,-0.154 0.0529,-0.3128 0.11759,-0.3527 0.0647,-0.04 0.1176,-0.1761 0.1176,-0.3026 0,-0.1264 0.0485,-0.3217 0.1077,-0.434 0.0592,-0.1123 0.19153,-0.4026 0.29398,-0.6452 0.38802,-0.9185 0.60749,-1.3569 1.251,-2.4988 0.36448,-0.6468 0.79595,-1.4141 0.95881,-1.7051 0.57899,-1.0346 0.85096,-1.4704 0.9418,-1.5091 0.0506,-0.022 0.0921,-0.092 0.0921,-0.1562 0,-0.064 0.31133,-0.4966 0.69186,-0.9604 0.60705,-0.7399 0.96751,-1.0671 1.80925,-1.6421 0.19754,-0.1349 0.19562,-0.1659 -0.0379,-0.6124 -0.20318,-0.3885 -0.23756,-0.6236 -0.19775,-1.3522 0.10395,-1.9027 1.31002,-3.2824 3.48659,-3.9886 1.3022,-0.4225 2.36997,-0.3537 6.18358,0.398 1.92332,0.3792 3.23451,0.531 4.59673,0.5322 0.95138,9e-4 1.14538,-0.037 1.76389,-0.3477 0.38222,-0.1918 0.89986,-0.5185 1.15032,-0.726 0.42445,-0.3517 0.4409,-0.3879 0.24211,-0.5332 -0.1173,-0.086 -0.33233,-0.156 -0.47784,-0.156 -0.14551,0 -0.29727,-0.053 -0.33724,-0.1176 -0.04,-0.065 -0.17611,-0.1176 -0.30252,-0.1176 -0.20542,0 -0.65843,-0.1963 -0.81461,-0.3529 -0.0323,-0.033 -0.21472,-0.1383 -0.40529,-0.2352 -0.49063,-0.2495 -1.10659,-0.8914 -1.19556,-1.2459 -0.0939,-0.374 0.12606,-0.8178 0.63554,-1.2822 0.23472,-0.2139 0.40296,-0.4916 0.42756,-0.7055 0.0223,-0.1941 0.0466,-0.3938 0.054,-0.4439 0.007,-0.05 0.1457,-0.1414 0.30739,-0.2029 0.16169,-0.062 0.29398,-0.1649 0.29398,-0.2299 0,-0.065 0.21167,-0.2261 0.47037,-0.3581 0.42908,-0.2189 0.47037,-0.2808 0.47037,-0.7052 0,-0.6761 0.31469,-0.8419 1.73895,-0.9164 1.09597,-0.057 1.16261,-0.077 1.67095,-0.484 0.63685,-0.5103 0.99333,-0.7166 1.2381,-0.7166 0.10047,0 0.40545,-0.1183 0.67775,-0.263 0.44421,-0.2359 0.65822,-0.2623 2.08258,-0.2567 1.63327,0.01 2.20291,0.1083 3.51177,0.6288 0.70061,0.2786 1.47256,0.779 1.85327,1.2013 0.34991,0.3882 0.86737,1.3586 0.86737,1.6267 0,0.1232 0.0459,0.2524 0.102,0.2871 0.0561,0.035 0.13505,0.2891 0.17546,0.5655 0.14803,1.0124 0.21105,1.3305 0.30918,1.5608 0.42347,0.9935 0.37288,3.1591 -0.12225,5.2328 -0.16627,0.6965 -0.34312,1.6051 -0.41198,2.1167 -0.0305,0.2264 -0.11289,0.7713 -0.18316,1.2109 -0.22282,1.3939 0.2716,3.2007 0.986,3.6031 0.21412,0.1206 0.31506,0.2644 0.29398,0.4189 -0.043,0.3148 -0.57429,0.3704 -1.1101,0.1161 -0.4649,-0.2206 -1.17377,-0.9249 -1.29526,-1.2869 -0.0498,-0.1484 -0.13522,0.2381 -0.22338,1.0112 -0.0785,0.6883 -0.28728,1.7466 -0.46395,2.3518 -0.42032,1.4398 -0.51238,2.655 -0.2334,3.0808 0.23262,0.355 0.166,0.6664 -0.1419,0.6633 -0.25428,0 -0.85968,-0.9106 -1.0953,-1.6428 -0.11413,-0.3546 -0.18208,-0.4511 -0.20717,-0.294 -0.1078,0.6751 -0.61504,1.7481 -1.34888,2.8534 -0.85825,1.2926 -1.22308,2.0145 -1.39505,2.7603 -0.22529,0.977 -0.35459,0.8952 -0.51082,-0.3234 -0.0952,-0.7426 -0.1701,-0.9995 -0.29138,-0.9995 -0.0528,0 -0.12907,0.093 -0.16955,0.2057 -0.2639,0.7379 -0.33841,0.9779 -0.47729,1.5377 -0.0855,0.3445 -0.12877,0.7281 -0.0962,0.8526 0.0946,0.3618 -0.30646,0.2766 -0.4577,-0.097 -0.072,-0.1779 -0.17127,-0.8888 -0.22068,-1.58 -0.0494,-0.6911 -0.12477,-1.313 -0.16745,-1.3821 -0.0852,-0.1379 -0.65115,0.4634 -0.65115,0.6919 0,0.075 -0.0847,0.2996 -0.18826,0.4999 -0.26617,0.5147 -0.39444,0.2454 -0.40306,-0.8461 -0.008,-1.0439 -0.14903,-2.2157 -0.40266,-3.3514 -0.10111,-0.4528 -0.24171,-1.4582 -0.31245,-2.2343 -0.0708,-0.7761 -0.17455,-1.4905 -0.23067,-1.5875 -0.0783,-0.1354 -0.10287,-0.11 -0.10562,0.1093 -0.002,0.1571 -0.0557,0.4481 -0.11932,0.6467 -0.0637,0.1986 -0.21956,0.7845 -0.34644,1.3019 -0.12688,0.5174 -0.31504,1.2847 -0.41814,1.7051 -0.1031,0.4204 -0.2349,0.9495 -0.2929,1.1759 -0.058,0.2264 -0.16504,0.6762 -0.23788,0.9995 -0.0729,0.3234 -0.17951,0.7732 -0.23703,0.9996 -0.097,0.3815 -0.13582,0.5607 -0.31277,1.4416 -0.0359,0.1784 -0.0147,0.3901 0.047,0.4703 0.0617,0.08 0.28726,0.5957 0.50127,1.1455 0.48454,1.2447 0.55289,1.3251 1.00475,1.1818 0.43334,-0.1375 2.1993,-0.4839 3.59645,-0.7056 1.02467,-0.1626 2.47959,-0.1572 2.89132,0.011 0.91859,0.3746 1.10157,0.4885 1.34611,0.8386 0.25836,0.3698 0.37479,0.4885 0.94258,0.9606 0.15096,0.1255 0.72428,0.6231 1.27402,1.1058 0.54975,0.4827 1.15829,1.0161 1.35232,1.1854 1.91853,1.6739 7.33126,5.6532 7.68954,5.6532 0.0717,0 0.13036,0.053 0.13036,0.1176 0,0.065 0.058,0.1176 0.12884,0.1176 0.0709,0 0.2693,0.1 0.44097,0.2215 0.17168,0.1217 0.49735,0.3263 0.72371,0.4546 0.22637,0.1283 0.86137,0.513 1.41111,0.855 1.93095,1.201 4.61093,2.8199 4.66826,2.8199 0.0319,0 0.1984,0.1 0.37007,0.2214 0.17167,0.1218 0.51057,0.3334 0.75311,0.4703 0.24253,0.137 0.63941,0.3623 0.88194,0.5008 1.4889,0.8502 1.39804,0.8182 1.93621,0.6827 0.27711,-0.07 0.68905,-0.1728 0.91541,-0.2289 1.09892,-0.2724 2.44267,-0.6826 2.73243,-0.834 0.11231,-0.059 0.28501,-0.1068 0.38378,-0.1068 0.0988,0 0.27146,-0.049 0.38377,-0.1084 0.1123,-0.06 0.65398,-0.2804 1.20373,-0.4906 2.4129,-0.9223 4.5298,-1.9571 4.7162,-2.3054 0.37598,-0.7025 1.49747,-1.0114 2.14101,-0.5898 0.32217,0.2111 0.47877,0.7937 0.3441,1.2801 -0.10304,0.3722 -0.95896,1.2884 -2.56274,2.7433 -0.64165,0.5821 -1.77584,1.6136 -2.52043,2.2922 -0.74459,0.6787 -1.56031,1.4195 -1.81273,1.6463 -0.25241,0.2268 -0.57154,0.5182 -0.70916,0.6476 -0.13763,0.1293 -0.8307,0.7643 -1.54014,1.4111 -0.70945,0.6468 -1.32739,1.2284 -1.37321,1.2925 -0.12648,0.1771 0.07,0.3116 0.63241,0.4331 0.28007,0.061 0.74735,0.1652 1.03839,0.2328 0.82487,0.1916 4.41873,0.2622 5.17407,0.1017 1.06841,-0.2269 1.56317,-0.3887 2.05787,-0.6728 2.08088,-1.1951 2.92544,-1.3976 3.42182,-0.8205 0.32782,0.3811 0.34423,0.5218 0.11288,0.9677 -0.14795,0.2852 -0.14749,0.3691 0.004,0.6613 0.11468,0.2217 0.13729,0.4036 0.0671,0.5393 -0.0583,0.1126 -0.0906,0.5751 -0.0717,1.0279 0.0188,0.4527 -0.0123,1.0083 -0.0692,1.2347 -0.0569,0.2264 -0.13331,0.6038 -0.16978,0.8387 -0.0901,0.5807 -0.69545,0.9785 -1.64832,1.0835 -0.65448,0.072 -1.63722,0.2034 -2.85236,0.3812 -0.27528,0.04 -0.52975,0.1206 -0.5655,0.1785 -0.0358,0.058 -0.16843,0.1051 -0.29484,0.1051 -0.12641,0 -0.32173,0.047 -0.43403,0.1039 -0.11231,0.057 -0.36295,0.1749 -0.55697,0.2617 -0.32714,0.1464 -1.19927,0.7171 -2.55702,1.6733 -0.53291,0.3753 -1.17473,0.7166 -1.88764,1.0037 -1.06384,0.4284 -1.77693,-0.07 -3.25945,-2.2782 -1.00657,-1.4993 -2.32824,-2.6943 -4.70191,-4.2515 -1.31802,-0.8646 -1.5053,-0.963 -2.73403,-1.436 -0.14552,-0.056 -0.4101,-0.1619 -0.58796,-0.2352 -0.17786,-0.073 -0.44244,-0.1792 -0.58797,-0.2352 -0.14552,-0.056 -0.39687,-0.1567 -0.55856,-0.2237 -0.16169,-0.067 -0.59825,-0.2329 -0.97014,-0.3685 -0.37189,-0.1357 -0.95397,-0.3484 -1.29352,-0.4728 -1.39884,-0.5123 -3.5916,-1.2948 -4.08634,-1.4583 -0.52251,-0.1727 -1.36532,-0.4813 -1.82269,-0.6674 -0.12935,-0.053 -0.47331,-0.1844 -0.76435,-0.2927 -0.29104,-0.1084 -0.70114,-0.272 -0.91134,-0.3637 -0.2102,-0.092 -0.58061,-0.2514 -0.82315,-0.3548 -2.58674,-1.1028 -4.59497,-2.6582 -6.10366,-4.7276 -0.63033,-0.8645 -0.6983,-0.8737 -1.92044,-0.2585 -0.12847,0.065 -0.31368,0.1176 -0.41157,0.1176 -0.0979,0 -0.17799,0.053 -0.17799,0.1176 0,0.065 -0.0668,0.1176 -0.1484,0.1176 -0.0816,0 -1.76173,0.8113 -3.73357,1.8029 -1.97183,0.9915 -3.77036,1.87 -3.99673,1.9521 -0.54366,0.1972 -0.95338,0.3647 -1.20373,0.4921 -0.1123,0.057 -0.285,0.1038 -0.38377,0.1038 -0.0988,0 -0.27147,0.047 -0.38377,0.1032 -0.33974,0.1716 -1.02856,0.3672 -1.29333,0.3672 -0.13711,0 -0.27766,0.046 -0.31233,0.102 -0.0347,0.056 -0.28915,0.135 -0.56551,0.1753 -0.27636,0.04 -0.81997,0.1306 -1.20802,0.2006 -1.30483,0.2353 -2.57544,0.3516 -4.58367,0.4198 l -1.99664,0.068 -0.96501,0.7243 c -1.00906,0.7573 -2.31513,1.4727 -3.2144,1.7607 -0.85239,0.273 -1.50884,0.3552 -2.82223,0.3535 -2.05507,0 -3.6774,-0.3377 -6.7224,-1.3881 -1.29391,-0.4463 -1.55139,-0.4999 -1.96048,-0.408 -0.92784,0.2085 -3.30425,0.3158 -4.75595,0.2147 -1.24862,-0.087 -1.8796,-0.186 -3.44476,-0.5406 -0.15395,-0.035 -0.58864,0.1491 -1.17592,0.4978 -0.51243,0.3042 -1.22273,0.7249 -1.57845,0.9348 -1.16571,0.6882 -2.44661,1.3898 -4.524,2.478 -0.77429,0.4057 -1.42442,0.7874 -1.44475,0.8484 -0.0468,0.1403 1.20716,0.4973 1.74313,0.4961 0.22213,-4e-4 1.19761,-0.1097 2.16775,-0.2429 1.08,-0.1482 2.42498,-0.244 3.46898,-0.247 1.69209,0 2.25538,0.075 5.29167,0.7538 0.29104,0.065 1.76969,0.1419 3.28588,0.1709 2.9786,0.057 4.42788,-0.064 5.24798,-0.4377 0.73421,-0.3345 3.38231,-0.8412 4.49934,-0.8609 0.93417,-0.017 0.99303,0 1.25991,0.3078 0.26421,0.3068 0.56575,1.1149 0.94486,2.5323 0.20628,0.7712 0.21317,1.1171 0.021,1.053 -0.156,-0.052 -0.27912,-0.3578 -0.68987,-1.7138 -0.14342,-0.4734 -0.36738,-0.9963 -0.49768,-1.162 -0.23525,-0.2991 -0.2461,-0.3007 -1.53912,-0.2335 -0.71621,0.037 -1.77845,0.179 -2.36053,0.3149 -0.58209,0.1359 -1.24354,0.2908 -1.46991,0.3442 -0.22637,0.053 -0.67616,0.1935 -0.99954,0.3113 -0.51629,0.188 -1.00363,0.2149 -3.99814,0.2206 -3.62,0.01 -3.39627,0.031 -5.93843,-0.6368 -0.22637,-0.06 -0.9672,-0.1712 -1.6463,-0.2483 -1.05855,-0.1202 -1.52833,-0.1094 -3.29259,0.075 -1.13183,0.1185 -2.67645,0.2348 -3.43248,0.2583 -1.30964,0.041 -1.40692,0.027 -2.05787,-0.2874 -0.37579,-0.1816 -0.74515,-0.3309 -0.8208,-0.3318 -0.0756,-8e-4 -0.28732,-0.1348 -0.47037,-0.2977 -0.5245,-0.4667 -1.582,-1.2398 -2.09672,-1.5329 -0.67604,-0.3849 -5.02412,-2.5689 -5.99722,-3.0124 -2.00122,-0.9121 -3.28567,-1.4655 -3.73357,-1.6087 -0.12276,-0.039 -0.20578,-0.183 -0.20578,-0.3565 0,-0.316 0.17421,-0.4983 0.29279,-0.3065 0.0406,0.066 0.15069,0.1195 0.24459,0.1195 0.0939,0 0.40828,0.1059 0.69862,0.2352 0.29034,0.1294 0.75278,0.3325 1.02765,0.4514 1.53124,0.6625 2.25486,1.0068 4.49792,2.1402 1.35819,0.6862 2.66063,1.3579 2.89431,1.4925 0.23367,0.1346 0.54848,0.3158 0.69956,0.4028 0.36598,0.2105 0.40525,0.2388 1.26554,0.9117 l 0.74367,0.5817 1.78457,-0.9155 c 0.98151,-0.5034 1.99624,-1.037 2.25494,-1.1856 0.25871,-0.1486 0.73496,-0.4128 1.05834,-0.5871 1.53687,-0.8284 3.50773,-2.0154 3.82176,-2.3017 0.28538,-0.2603 0.31289,-0.263 0.94074,-0.096 2.11887,0.565 5.14178,0.7277 7.4463,0.4008 l 1.1551,-0.1639 1.60833,0.5474 c 3.03251,1.032 4.30616,1.2886 6.42962,1.2953 1.40854,0 1.77366,-0.035 2.52824,-0.271 1.11251,-0.3484 2.40914,-1.0289 3.46874,-1.8205 l 0.82339,-0.6151 1.46991,-0.082 c 3.29511,-0.1844 5.35678,-0.4383 7.11435,-0.876 1.14416,-0.2849 2.23002,-0.6224 2.70463,-0.8407 0.12935,-0.059 0.71143,-0.3146 1.29352,-0.567 0.58208,-0.2524 2.5243,-1.2004 4.31603,-2.1068 1.79174,-0.9063 3.43216,-1.7148 3.64537,-1.7966 0.21322,-0.082 0.56236,-0.2147 0.77588,-0.2956 0.59588,-0.2255 0.89071,-0.07 1.56655,0.8291 1.62166,2.156 3.84015,3.6985 7.39385,5.1409 0.16169,0.066 0.38587,0.1661 0.49817,0.2232 0.11231,0.057 0.30016,0.1039 0.41746,0.1039 0.11729,0 0.26353,0.042 0.32497,0.094 0.0614,0.052 0.32338,0.1608 0.58209,0.243 0.2587,0.082 0.5762,0.1961 0.70555,0.2532 0.12935,0.057 0.47331,0.1828 0.76435,0.2791 1.35876,0.4498 4.75622,1.7089 6.87917,2.5493 0.97014,0.3841 1.83003,0.6981 1.91088,0.6979 0.0808,-2e-4 0.14699,0.053 0.14699,0.1172 0,0.065 0.10271,0.1176 0.22824,0.1176 0.12554,0 0.26095,0.053 0.30093,0.1176 0.04,0.065 0.17352,0.1176 0.29678,0.1176 0.12326,0 0.28045,0.1053 0.34931,0.234 0.0689,0.1286 0.51624,0.4978 0.99417,0.8203 2.16638,1.4618 3.59917,2.897 5.20145,5.21 0.20577,0.2971 0.51172,0.6303 0.6799,0.7405 0.28376,0.1859 0.35993,0.187 1.05809,0.015 0.81032,-0.2 1.25886,-0.4508 2.64238,-1.4774 0.94799,-0.7034 2.27117,-1.4263 2.61076,-1.4263 0.11308,0 0.23468,-0.047 0.27024,-0.1046 0.0356,-0.058 0.26357,-0.1384 0.50671,-0.1796 0.24313,-0.041 0.7331,-0.1281 1.08882,-0.1931 0.35571,-0.065 1.01717,-0.1486 1.4699,-0.1858 0.45669,-0.038 0.90822,-0.1428 1.01422,-0.2364 0.10509,-0.093 0.23738,-0.156 0.29398,-0.1405 0.0566,0.015 0.23521,-0.019 0.3969,-0.077 l 0.29398,-0.105 -0.35278,-0.066 c -0.55024,-0.103 -0.54559,-0.5273 0.009,-0.795 0.52472,-0.2534 0.57598,-0.4323 0.13827,-0.4827 -0.42022,-0.048 -0.46327,-0.537 -0.0588,-0.6674 0.24975,-0.08 0.24481,-0.089 -0.0882,-0.1618 -0.27639,-0.06 -0.35278,-0.1397 -0.35278,-0.3678 0,-0.1978 0.0755,-0.3057 0.23519,-0.3364 0.12935,-0.025 0.33956,-0.1182 0.46714,-0.2074 0.22266,-0.1558 0.21967,-0.1623 -0.0748,-0.1623 -0.16868,0 -0.45548,0.077 -0.63733,0.1716 -0.24041,0.1247 -0.37242,0.1368 -0.48381,0.044 -0.22679,-0.1882 -0.19154,-0.2976 0.21141,-0.656 0.20053,-0.1784 0.44051,-0.4708 0.53328,-0.6498 0.15149,-0.2923 0.14826,-0.3333 -0.0316,-0.4024 -0.11058,-0.042 -0.36265,0.017 -0.56268,0.1322 -0.9563,0.5515 -2.05413,1.0882 -2.47904,1.2119 -1.67589,0.4881 -4.20286,0.7202 -5.55767,0.5105 -0.85287,-0.132 -1.13097,-0.1926 -2.32103,-0.5054 -0.58531,-0.1539 -1.80259,-0.5442 -2.11667,-0.6787 -0.12935,-0.055 -0.47331,-0.1974 -0.76435,-0.3156 -1.80673,-0.7339 -5.53453,-2.7996 -5.99722,-3.3234 -0.0323,-0.037 -0.14555,-0.1195 -0.25158,-0.1842 -0.50577,-0.3085 -6.43865,-4.4196 -7.00098,-4.8512 -0.18269,-0.1402 -0.7555,-0.5785 -1.27291,-0.9739 -1.35907,-1.0387 -3.85394,-3.2226 -4.56386,-3.995 -0.33561,-0.3652 -0.86522,-1.0965 -1.1769,-1.6251 -1.17376,-1.9909 -2.27393,-2.3042 -7.19442,-2.0492 -4.31768,0.2237 -6.86316,0.4684 -8.99583,0.8647 -1.30144,0.2419 -1.84202,0.346 -2.76343,0.532 -0.51741,0.1044 -1.15967,0.2339 -1.42726,0.2876 -0.48913,0.098 -3.34001,0.728 -4.21718,0.9316 -0.25871,0.06 -0.99954,0.2194 -1.6463,0.354 -0.64676,0.1346 -1.40082,0.2955 -1.6757,0.3576 -0.96507,0.2178 -1.50255,0.3358 -1.85208,0.4067 -0.19403,0.039 -0.57767,0.1216 -0.85255,0.1828 -0.27487,0.061 -0.72466,0.1613 -0.99953,0.2224 -0.27487,0.061 -0.71144,0.1646 -0.97014,0.2298 -0.2587,0.065 -0.68204,0.1705 -0.94074,0.2338 -0.44534,0.109 -0.88112,0.2278 -1.82269,0.4968 -0.22636,0.065 -0.57032,0.1623 -0.76435,0.2168 -0.19403,0.055 -0.77611,0.2378 -1.29352,0.4071 -0.8959,0.2932 -0.9494,0.2979 -1.1225,0.1 -0.16989,-0.1943 -0.28066,-0.2688 -0.96477,-0.6488 -0.14552,-0.081 -0.29104,-0.176 -0.32338,-0.2115 -0.0323,-0.035 -0.244,-0.1932 -0.47037,-0.3506 -0.92714,-0.6447 -2.05763,-1.762 -2.9116,-2.8775 -0.29706,-0.3881 -0.56155,-0.732 -0.58776,-0.7642 -0.0262,-0.032 -0.11447,0.033 -0.19615,0.1445 -0.25405,0.3474 -3.92696,1.4568 -7.32879,2.2136 -0.27487,0.061 -0.72467,0.1615 -0.99954,0.2231 -0.27487,0.062 -0.68498,0.1434 -0.91134,0.1817 -0.22637,0.038 -0.70262,0.1212 -1.05833,0.1841 -0.35572,0.063 -0.95332,0.1465 -1.328,0.1856 -0.60999,0.064 -0.71445,0.1158 -0.99886,0.4977 -0.1747,0.2346 -0.34456,0.4529 -0.37747,0.4853 -0.16442,0.1615 -0.82345,1.3285 -0.82345,1.4581 0,0.082 -0.0363,0.1852 -0.0806,0.2296 -0.20143,0.2014 -0.3864,1.0253 -0.38801,1.7284 -9.8e-4,0.4237 -0.0679,0.913 -0.14876,1.0874 -0.22133,0.4774 -0.98711,0.7883 -1.939,0.7873 -2.11957,0 -5.46357,0.3903 -6.15017,0.7221 -0.50238,0.2427 -0.8837,0.2818 -0.99486,0.1019 -0.04,-0.065 -0.22786,-0.1176 -0.41752,-0.1176 -0.21145,0 -0.39882,-0.086 -0.48439,-0.2235 -0.0768,-0.1229 -0.2054,-0.1981 -0.28588,-0.1673 -0.0805,0.031 -0.25627,-0.054 -0.39062,-0.1881 -0.13435,-0.1343 -0.32053,-0.2443 -0.41372,-0.2443 -0.0932,0 -0.20265,-0.054 -0.24323,-0.1193 -0.0406,-0.066 -0.25111,-0.1935 -0.46785,-0.2841 -0.78675,-0.3287 -0.85166,-1.2514 -0.12287,-1.7466 l 0.39733,-0.27 -0.34399,-0.1523 c -0.19899,-0.088 -0.375,-0.2758 -0.41755,-0.4453 -0.15932,-0.6348 0.45257,-1.1627 1.66159,-1.4335 0.6614,-0.1481 1.93655,-0.4598 2.46944,-0.6036 0.31607,-0.085 0.29302,-0.097 -0.22154,-0.1073 -0.58924,-0.012 -0.90586,0.053 -2.77707,0.5738 -0.63657,0.1772 -1.17876,0.3711 -3.41019,1.2196 -0.9378,0.3566 -2.07551,0.7639 -2.52824,0.9049 -0.45273,0.1411 -0.91503,0.3034 -1.02734,0.3606 -0.36171,0.1843 -0.79317,0.1123 -1.56941,-0.2621 -0.81375,-0.3925 -1.36842,-0.945 -1.80929,-1.8021 l -0.2696,-0.5242 -0.71959,0.371 c -0.65052,0.3353 -0.82339,0.3714 -1.80128,0.3761 -0.71465,0 -1.13162,-0.045 -1.22884,-0.1419 -0.31981,-0.3195 -0.39421,-0.1379 -0.40972,0.9998 -0.0161,1.1784 -0.21609,2.099 -0.59565,2.7416 -0.24491,0.4146 -0.3301,0.3165 1.25804,1.4485 0.48507,0.3458 1.17566,0.9136 1.53465,1.2619 0.65817,0.6385 1.40516,1.6271 1.40516,1.8597 0,0.069 0.0434,0.1258 0.0963,0.1258 0.053,0 0.16929,0.2679 0.25847,0.5954 0.0892,0.3275 0.20457,0.6216 0.25644,0.6537 0.0519,0.032 0.0943,0.1769 0.0943,0.3218 0,0.1449 0.0421,0.3138 0.0936,0.3752 0.0515,0.062 0.16334,0.3234 0.2486,0.5821 0.5209,1.5806 1.64661,3.2463 2.55285,3.7774 0.61795,0.3622 1.70843,0.7499 2.10888,0.7499 0.14504,0 0.61212,0.2117 1.03795,0.4704 0.42584,0.2587 0.82371,0.4704 0.88417,0.4704 0.0605,0 0.12755,0.041 0.14911,0.092 0.0538,0.1264 2.07914,1.1109 3.1554,1.5338 1.94663,0.7649 3.12713,1.0098 5.76204,1.195 1.00248,0.07 2.27248,0.1865 2.82222,0.2578 0.54975,0.071 1.26412,0.1442 1.5875,0.1621 0.32338,0.018 0.87901,0.096 1.23473,0.1726 0.9027,0.1956 4.67627,0.2798 5.87962,0.1312 0.54975,-0.068 2.05788,-0.1798 3.35139,-0.2486 5.9379,-0.3162 8.16864,-0.6006 11.17976,-1.4256 0.59799,-0.1638 1.06942,-0.2299 1.27414,-0.1785 0.41045,0.103 0.89286,0.6156 0.89286,0.9487 0,0.6846 0.62599,0.8338 0.91135,0.2172 0.21059,-0.455 0.19725,-0.5093 -0.32338,-1.3148 -0.47051,-0.7279 -0.58116,-1.0726 -0.34438,-1.0726 0.38214,0 1.16752,1.3166 1.16752,1.9572 v 0.5 l 0.353,-0.123 c 0.48189,-0.168 0.50898,-0.2482 0.29587,-0.8759 -0.27067,-0.7972 -0.36666,-0.9397 -0.82377,-1.2222 -0.38306,-0.2367 -0.54326,-0.6121 -0.32011,-0.75 0.1783,-0.1102 0.87969,0.3255 1.09943,0.6829 0.12178,0.1981 0.30985,0.638 0.41794,0.9776 0.10809,0.3395 0.23411,0.6173 0.28006,0.6173 0.23642,0 0.17032,-0.4334 -0.20492,-1.3435 -0.39287,-0.9529 -0.44042,-1.3611 -0.15854,-1.3611 0.13515,0 0.29464,0.3316 0.77508,1.6115 0.27396,0.7299 0.29857,0.8942 0.1777,1.186 -0.20391,0.4923 -1.14085,1.1531 -1.77107,1.2492 -0.28935,0.044 -0.61489,0.1606 -0.72342,0.2588 -0.12424,0.1124 -0.36492,0.1648 -0.64983,0.1414 l -0.45251,-0.037 -0.0367,-0.5805 c -0.042,-0.6644 -0.33122,-1.007 -0.85004,-1.007 -0.1769,0 -0.77746,0.1321 -1.33458,0.2936 -2.6867,0.7785 -4.22249,0.9674 -11.00781,1.3538 -1.06715,0.061 -2.62819,0.1623 -3.46898,0.2256 -1.78277,0.1342 -3.68013,0.131 -4.7625,-0.01 z m 80.30059,-10.7727 c 0.49135,-0.4366 1.05751,-0.9525 1.25812,-1.1466 0.20061,-0.194 0.80608,-0.7496 1.3455,-1.2347 0.53941,-0.485 1.03945,-0.9348 1.11118,-0.9995 0.0717,-0.065 0.44737,-0.4086 0.83473,-0.7644 0.38736,-0.3557 1.23099,-1.123 1.87473,-1.7051 1.88705,-1.7063 3.70119,-3.5148 3.70257,-3.6912 7.1e-4,-0.09 -0.0913,-0.2337 -0.2045,-0.3196 -0.45202,-0.3431 -1.16454,-0.1052 -1.68673,0.5632 -0.28492,0.3647 -0.99477,0.7765 -2.39961,1.3921 -0.85551,0.3749 -1.37932,0.5975 -1.6463,0.6995 -0.12935,0.049 -0.38071,0.1499 -0.55856,0.2232 -0.60958,0.2513 -0.85311,0.345 -1.26412,0.4861 -0.22637,0.078 -0.51741,0.1826 -0.64676,0.233 -0.12936,0.051 -0.63206,0.2103 -1.11713,0.3552 -0.48507,0.1448 -1.01424,0.3045 -1.17593,0.3549 -0.16169,0.05 -0.72646,0.2089 -1.25504,0.3523 l -0.96105,0.2608 -0.62645,-0.3456 c -0.34454,-0.1901 -0.82488,-0.4609 -1.06741,-0.6017 -0.24254,-0.1409 -0.62956,-0.363 -0.86005,-0.4935 -0.23049,-0.1306 -0.55276,-0.325 -0.71614,-0.4321 -0.51325,-0.3363 -1.03248,-0.6279 -1.24604,-0.6998 -0.11318,-0.038 -0.20578,-0.116 -0.20578,-0.1732 0,-0.057 -0.0488,-0.1038 -0.1085,-0.1038 -0.10637,0 -1.56956,-0.8764 -3.75491,-2.249 -0.60498,-0.38 -1.12383,-0.6908 -1.15298,-0.6908 -0.0291,0 -0.36469,-0.2117 -0.74565,-0.4704 -0.38096,-0.2587 -0.74847,-0.4704 -0.8167,-0.4704 -0.0682,0 -0.12404,-0.053 -0.12404,-0.1176 0,-0.065 -0.0794,-0.1176 -0.17639,-0.1176 -0.097,0 -0.17639,-0.053 -0.17639,-0.1176 0,-0.065 -0.0566,-0.1176 -0.1258,-0.1176 -0.11112,0 -1.02896,-0.5844 -1.34411,-0.8559 -0.0647,-0.056 -0.57525,-0.4283 -1.13461,-0.828 -1.09465,-0.7822 -2.29627,-1.6933 -2.55033,-1.9338 -0.0864,-0.082 -0.35029,-0.2935 -0.58633,-0.4704 -0.23604,-0.1769 -0.56219,-0.4339 -0.72478,-0.5711 -0.59477,-0.5021 -3.12212,-2.6906 -3.26552,-2.8277 -0.0812,-0.078 -0.25321,-0.1747 -0.38218,-0.2156 -0.12897,-0.041 -0.23449,-0.1436 -0.23449,-0.2281 0,-0.2085 -0.69516,-0.9233 -1.05833,-1.0884 -0.67281,-0.3057 -1.75652,-0.4083 -2.86282,-0.271 -0.59209,0.073 -1.23904,0.1829 -1.43766,0.2433 -0.19862,0.06 -0.4859,0.1097 -0.63841,0.1097 -0.1525,0 -0.43979,0.051 -0.63841,0.1129 -0.19862,0.062 -0.61248,0.1795 -0.91969,0.2609 -0.30721,0.081 -0.55856,0.1861 -0.55856,0.2328 0,0.047 0.12715,0.4453 0.28257,0.8857 0.15542,0.4404 0.39797,1.1976 0.53901,1.6827 0.35696,1.2277 0.36929,1.245 0.8376,1.1759 0.67275,-0.099 5.54332,-0.058 6.04313,0.051 0.67952,0.1483 1.65202,0.6126 1.98925,0.9498 0.3353,0.3353 0.88082,1.132 1.12668,1.6455 0.0929,0.194 0.72789,0.9084 1.41106,1.5875 1.61557,1.6059 2.83004,2.6336 5.07473,4.2944 0.66924,0.4952 1.36414,1.0108 1.54423,1.1459 0.18008,0.135 1.55592,1.0836 3.05741,2.1079 1.50148,1.0243 3.10642,2.123 3.56651,2.4415 1.01417,0.7021 1.5474,1.0179 2.92643,1.7332 1.17316,0.6085 3.31944,1.5435 3.57328,1.5566 0.0897,0 0.56511,-0.3488 1.05647,-0.7853 z m -87.76772,-6.0549 c 0.51741,-0.052 1.94616,-0.137 3.175,-0.1883 2.17776,-0.091 2.6944,-0.1793 2.96248,-0.5061 0.0718,-0.088 0.16589,-0.5297 0.20903,-0.9824 0.0431,-0.4528 0.13272,-0.9819 0.19906,-1.176 0.13806,-0.4038 0.80828,-1.8229 0.94411,-1.999 0.94664,-1.2277 1.54776,-1.91 2.99306,-3.3975 3.2486,-3.3434 4.87355,-5.5784 5.4383,-7.4799 0.0864,-0.291 0.19999,-0.635 0.25233,-0.7643 0.13536,-0.3345 0.25019,-1.1326 0.33437,-2.324 0.0962,-1.3615 0.29824,-1.3846 0.34224,-0.039 0.0254,0.7753 0.0892,1.1262 0.24613,1.3523 0.11653,0.1679 0.59859,1.0726 1.07122,2.0104 0.90316,1.7921 1.44379,2.8235 1.86453,3.5572 0.13908,0.2425 0.3629,0.6353 0.49739,0.8728 0.27428,0.4843 1.10033,1.7161 1.38914,2.0715 1.18067,1.4528 2.02053,2.2983 2.88274,2.9018 0.13535,0.095 0.34868,0.2668 0.47406,0.3822 0.12537,0.1154 0.29294,0.2099 0.37237,0.2099 0.0794,0 0.16206,0.04 0.18362,0.088 0.0567,0.1276 1.03079,0.6174 1.22783,0.6174 0.0918,0 0.25876,-0.048 0.37106,-0.1062 0.11231,-0.058 0.44232,-0.1693 0.73336,-0.2466 0.29104,-0.077 0.62105,-0.1883 0.73336,-0.2467 0.1123,-0.058 0.33408,-0.1061 0.49283,-0.1061 0.15875,0 0.31772,-0.047 0.35328,-0.1046 0.0356,-0.057 0.23712,-0.1331 0.44791,-0.1679 0.2108,-0.035 0.59493,-0.1176 0.85364,-0.184 0.2587,-0.066 0.70849,-0.1785 0.99953,-0.2491 0.29105,-0.071 0.72761,-0.1788 0.97014,-0.2405 1.12727,-0.2869 1.8695,-0.4533 3.56138,-0.7987 0.64906,-0.1325 1.3132,-0.2915 1.47585,-0.3534 0.48989,-0.1862 1.20544,-1.4612 1.75922,-3.1347 0.20229,-0.6112 0.21417,-3.6491 0.0151,-3.8482 -0.19394,-0.194 -0.16895,-1.3451 0.0424,-1.9518 0.8456,-2.4279 2.72356,-4.2971 6.11071,-6.0822 0.58208,-0.3068 1.1086,-0.6031 1.17004,-0.6584 0.0614,-0.055 0.20697,-0.1006 0.32338,-0.1006 0.11642,0 0.21167,-0.053 0.21167,-0.1176 0,-0.065 0.10583,-0.1176 0.23518,-0.1176 0.12936,0 0.23519,-0.053 0.23519,-0.1175 0,-0.065 0.10583,-0.1176 0.23519,-0.1176 0.12935,0 0.23559,-0.04 0.2361,-0.088 0.001,-0.1022 0.56757,-0.3822 0.77316,-0.3822 0.23,0 0.30958,-0.4474 0.38694,-2.1755 0.044,-0.9838 0.12102,-1.6413 0.1913,-1.634 0.21492,0.022 0.27042,0.9096 0.16474,2.6336 -0.0984,1.6048 -0.18449,2.407 -0.45446,4.2333 -0.44977,3.0426 -0.43836,4.0061 0.0634,5.3505 0.16897,0.4527 0.56963,1.5639 0.89036,2.4694 0.32073,0.9055 0.68618,1.9047 0.81211,2.2205 0.12593,0.3159 0.22896,0.652 0.22896,0.7471 0,0.1435 0.16428,0.1612 0.97014,0.1046 2.50574,-0.176 2.79282,-0.2151 2.79282,-0.3798 0,-0.2376 -1.02221,-3.312 -1.29557,-3.8964 -0.12822,-0.2742 -0.23313,-0.5527 -0.23313,-0.619 0,-0.066 -0.0468,-0.2124 -0.10388,-0.3247 -0.0571,-0.1123 -0.15769,-0.3364 -0.22346,-0.4981 -0.0658,-0.1617 -0.2307,-0.5448 -0.3665,-0.8513 -0.25276,-0.5705 -0.33337,-1.5972 -0.14136,-1.8004 0.0581,-0.062 0.13317,-0.3234 0.16692,-0.5821 0.0709,-0.5434 0.15949,-0.9843 0.33079,-1.6463 0.16068,-0.621 0.33404,-1.3154 0.45508,-1.8227 0.1713,-0.718 0.37653,-1.462 0.47037,-1.7051 0.0499,-0.1294 0.15893,-0.4733 0.24223,-0.7644 0.0833,-0.291 0.19516,-0.5794 0.24859,-0.6408 0.0534,-0.061 0.0971,-0.2229 0.0971,-0.3587 0,-0.1358 0.0526,-0.2995 0.11686,-0.3638 0.0643,-0.064 0.14995,-0.4585 0.19038,-0.8761 0.0404,-0.4175 0.13915,-0.865 0.21936,-0.9943 0.18645,-0.3007 0.34048,-1.9203 0.23948,-2.5181 l -0.0773,-0.4578 -1.07932,-0.074 c -3.16716,-0.2165 -3.75778,-0.2112 -4.78758,0.043 -1.57596,0.3894 -2.82457,1.0477 -3.75194,1.9782 -0.43466,0.4361 -0.88532,1.01 -1.00147,1.2752 -0.25477,0.5818 -0.9707,1.2127 -1.07316,0.9457 -0.0362,-0.095 -0.009,-0.3751 0.0595,-0.6235 0.069,-0.2484 0.12583,-0.6104 0.12634,-0.8044 0.001,-0.555 0.48613,-1.7549 0.9886,-2.4474 0.48514,-0.6686 1.35238,-1.3661 2.27664,-1.8308 0.3063,-0.1541 0.64879,-0.326 0.7611,-0.3822 0.1123,-0.056 0.30761,-0.1021 0.43403,-0.1021 0.12641,0 0.25893,-0.047 0.29448,-0.1046 0.0356,-0.058 0.23712,-0.134 0.44792,-0.1699 0.21079,-0.036 0.62139,-0.1181 0.91243,-0.1826 0.29104,-0.064 0.76729,-0.1693 1.05833,-0.2329 0.71636,-0.1564 1.60636,-0.4635 2.17547,-0.7506 0.49656,-0.2505 1.5875,-1.1105 1.5875,-1.2514 0,-0.046 -0.18521,-0.15 -0.41158,-0.2318 -0.22636,-0.082 -0.41157,-0.2087 -0.41157,-0.2819 0,-0.073 -0.17198,0.028 -0.38218,0.2257 -0.54325,0.5101 -1.40064,1.0678 -2.15276,1.4004 -1.05881,0.4683 -2.51138,0.3768 -6.51969,-0.4104 -2.8525,-0.5602 -3.87619,-0.6639 -4.79381,-0.4856 -0.92708,0.18 -1.76801,0.5626 -2.55715,1.1632 -0.93149,0.7089 -1.05098,0.9425 -1.09811,2.1466 -0.0511,1.3063 0.1049,1.6342 0.77886,1.637 0.56694,0 0.76228,0.1343 0.71314,0.4819 -0.0344,0.2431 -0.12188,0.2907 -0.65345,0.3556 -1.16326,0.142 -2.24575,1.0189 -3.42202,2.7722 -0.3997,0.5957 -0.72672,1.1021 -0.72672,1.1253 0,0.023 -0.34747,0.6205 -0.77216,1.3274 -1.55229,2.584 -2.51167,4.837 -2.87576,6.7534 -0.0553,0.291 -0.13682,0.6768 -0.18117,0.8572 -0.0732,0.2977 0.008,0.4101 0.87804,1.2186 0.98197,0.9123 1.88785,2.2696 1.89116,2.8337 0.003,0.4834 -0.28757,0.2731 -0.68552,-0.4965 -0.47114,-0.9112 -1.55228,-2.0364 -2.67297,-2.782 -1.49201,-0.9926 -2.52568,-1.631 -2.64084,-1.631 -0.0627,0 -0.11393,-0.053 -0.11393,-0.1176 0,-0.065 -0.0558,-0.1176 -0.12404,-0.1176 -0.0682,0 -0.43574,-0.2116 -0.8167,-0.4704 -0.38096,-0.2587 -0.74847,-0.4703 -0.8167,-0.4703 -0.0682,0 -0.12404,-0.053 -0.12404,-0.1176 0,-0.065 -0.0477,-0.1176 -0.1059,-0.1176 -0.14397,0 -2.44022,-1.4514 -3.59827,-2.2744 -1.87138,-1.3299 -2.6375,-1.8413 -2.75811,-1.8413 -0.0676,0 -0.12291,-0.053 -0.12291,-0.1176 0,-0.065 -0.12916,-0.1176 -0.28704,-0.1176 -0.15787,0 -0.31974,-0.053 -0.35972,-0.1176 -0.04,-0.065 -0.27809,-0.1176 -0.52916,-0.1176 -0.25107,0 -0.4892,0.053 -0.52917,0.1176 -0.04,0.065 -0.16966,0.1176 -0.2882,0.1176 -0.30589,0 -1.33618,0.9613 -1.93846,1.8088 -0.67306,0.9469 -0.8279,1.2246 -2.30291,4.1296 -1.55106,3.0548 -1.96946,3.8235 -2.83872,5.2157 -0.37774,0.605 -0.6868,1.1221 -0.6868,1.1491 0,0.1326 -2.64197,3.9788 -3.26179,4.7485 -1.51107,1.8764 -3.43524,3.4741 -5.03745,4.1827 -0.88925,0.3933 -2.28991,0.7554 -2.92175,0.7554 -0.28842,0 -0.55709,0.053 -0.59707,0.1176 -0.04,0.065 -0.1761,0.1176 -0.30251,0.1176 -0.12642,0 -0.32173,0.045 -0.43404,0.1 -1.18496,0.5791 -1.27826,0.7874 -0.3081,0.6878 0.38053,-0.039 0.8103,-0.106 0.95503,-0.1487 0.19126,-0.056 0.28519,-0.02 0.34379,0.1325 0.12892,0.3359 0.51363,0.6635 0.69672,0.5933 0.0934,-0.036 0.23279,0.038 0.31318,0.1673 0.0879,0.1408 0.27372,0.2319 0.473,0.2319 0.18144,0 0.35808,0.078 0.39505,0.1742 0.0545,0.1421 0.11347,0.1483 0.31968,0.033 0.13906,-0.078 0.67617,-0.1836 1.19357,-0.2359 z m 37.75389,-33.159 c -0.25229,-0.3602 -0.2296,-0.6122 0.0884,-0.9819 0.24555,-0.2855 0.29607,-0.3002 0.52917,-0.1547 0.19235,0.1202 0.2577,0.2752 0.2577,0.6115 0,0.7335 -0.5135,1.0416 -0.87528,0.5251 z m -58.25181,32.9568 c 0.29569,-0.2754 0.56598,-0.7862 0.56598,-1.0696 0,-0.1181 0.0529,-0.2475 0.11759,-0.2874 0.0656,-0.041 0.11759,-0.5869 0.11759,-1.2348 0,-0.7225 0.0492,-1.1924 0.13015,-1.2424 0.0933,-0.058 0.0903,-0.1051 -0.0106,-0.1675 -0.0814,-0.05 -0.25802,0.03 -0.41879,0.1911 -0.23601,0.236 -0.39507,0.2781 -1.05189,0.2781 -0.5208,0 -0.87058,-0.063 -1.06969,-0.1939 -0.82008,-0.5373 -0.84815,-1.8772 -0.0533,-2.543 0.22868,-0.1915 0.24257,-0.283 0.16955,-1.1171 -0.0985,-1.1257 -0.33766,-1.6152 -1.04688,-2.1432 -0.88685,-0.6603 -1.21759,-1.5987 -0.85807,-2.4345 0.0778,-0.1809 0.45042,-0.7867 0.82801,-1.3462 0.62474,-0.9257 0.912,-1.5423 0.912,-1.9577 0,-0.085 -0.29255,-0.2836 -0.65011,-0.4417 -1.07425,-0.4751 -2.00615,-0.3791 -3.52019,0.3627 -1.06253,0.5206 -1.52684,1.0711 -1.93121,2.2896 -0.41859,1.2613 -0.48367,1.4802 -0.48367,1.6265 0,0.077 -0.11111,0.3907 -0.24691,0.6972 -0.1358,0.3065 -0.30072,0.6896 -0.3665,0.8513 -0.0658,0.1617 -0.16633,0.3859 -0.22346,0.4982 -0.0571,0.1123 -0.10388,0.285 -0.10388,0.3837 0,0.099 -0.0487,0.2715 -0.10826,0.3838 -0.0595,0.1123 -0.16864,0.654 -0.24244,1.2037 -0.14593,1.0871 -0.006,2.1058 0.40844,2.9798 0.19998,0.4214 0.96146,1.2536 1.14713,1.2536 0.052,0 0.42825,0.3042 0.83607,0.6761 1.04269,0.9509 1.09909,0.9909 2.01689,1.4306 1.31789,0.6314 2.29049,0.9498 4.11486,1.347 0.35877,0.078 0.75873,-0.029 1.02152,-0.274 z m -3.69787,-2.0543 c -0.54414,-0.1942 -0.73159,-0.3298 -1.2924,-0.935 -0.46467,-0.5015 -0.61196,-1.1312 -0.26458,-1.1312 0.097,0 0.17639,0.054 0.17639,0.1208 0,0.4343 1.4122,1.4079 2.04219,1.4079 0.33367,0 0.59868,0.2781 0.50289,0.5277 -0.0838,0.2184 -0.56854,0.2225 -1.16449,0.01 z m -2.12535,-8.9649 c -0.0431,-0.043 -0.0784,-0.2211 -0.0784,-0.3956 0,-0.5932 1.04089,-1.3364 1.99907,-1.4273 0.3669,-0.035 0.41158,-0.01 0.41158,0.2432 0,0.241 -0.1027,0.3156 -0.70201,0.5102 -0.85575,0.2778 -1.35587,0.6174 -1.35587,0.9207 0,0.2273 -0.12697,0.2962 -0.27438,0.1488 z m 25.22337,8.1437 c 0.89669,-0.3092 2.4724,-1.1088 2.68527,-1.3626 0.0323,-0.038 0.24401,-0.199 0.47037,-0.3564 0.77775,-0.5412 2.69816,-2.5902 3.41302,-3.6417 0.1539,-0.2264 0.31309,-0.438 0.35376,-0.4704 0.15563,-0.1237 1.28971,-1.8769 1.28971,-1.9937 0,-0.068 0.0529,-0.1229 0.11759,-0.1229 0.0647,0 0.11759,-0.058 0.11759,-0.1289 0,-0.071 0.0996,-0.2693 0.22142,-0.441 0.12178,-0.1716 0.32745,-0.4973 0.45704,-0.7237 0.1296,-0.2263 0.53853,-0.9407 0.90875,-1.5875 0.37022,-0.6467 1.36504,-2.5782 2.21072,-4.2921 2.1923,-4.4431 2.86612,-5.4141 4.22668,-6.0906 0.79462,-0.3951 1.40463,-0.5143 1.86533,-0.3645 0.67175,0.2184 2.02936,0.89 2.32899,1.1521 0.57014,0.4987 5.22483,3.5391 5.41815,3.5391 0.0657,0 0.1194,0.053 0.1194,0.1176 0,0.065 0.0553,0.1176 0.12291,0.1176 0.0676,0 0.51499,0.2646 0.99422,0.588 0.47923,0.3233 0.89835,0.5879 0.93139,0.5879 0.033,0 0.50655,0.2911 1.05227,0.6468 0.54572,0.3557 1.02379,0.6467 1.06238,0.6467 0.40836,0 -0.77332,-1.3672 -1.93106,-2.2342 -0.2159,-0.1617 -0.52864,-0.4063 -0.69497,-0.5436 -0.91792,-0.7575 -4.88153,-3.1622 -6.59362,-4.0003 -1.69727,-0.8308 -1.95808,-0.941 -3.18175,-1.3442 -0.96578,-0.3183 -1.13326,-0.3411 -1.71361,-0.2339 -0.8044,0.1487 -1.52421,0.4773 -1.99142,0.9089 -0.60196,0.5562 -1.49267,2.0126 -1.94756,3.1846 -0.17455,0.4497 -0.33293,0.8411 -0.45208,1.1171 -0.0628,0.1456 -0.34921,0.8203 -0.63643,1.4993 -0.64595,1.5273 -4.43591,9.1122 -4.99438,9.9954 -0.22493,0.3557 -0.59623,0.8772 -0.8251,1.1587 -0.45312,0.5575 -2.03554,1.8987 -2.24009,1.8987 -0.0698,0 -0.12684,0.045 -0.12684,0.099 0,0.054 -0.25135,0.2191 -0.55856,0.3657 -0.30721,0.1466 -0.6644,0.3237 -0.79375,0.3935 -0.99195,0.5357 -2.69907,1.1218 -4.02035,1.3803 -0.74372,0.1455 -1.44771,0.4857 -1.44771,0.6995 0,0.066 0.25136,0.1201 0.55857,0.1211 0.30721,10e-4 0.62827,0.046 0.71348,0.1001 0.18631,0.1181 1.74279,-0.121 2.51027,-0.3856 z m -14.70503,-1.6033 c 0.46315,-0.191 0.91491,-0.3472 1.00391,-0.3472 0.089,0 0.25369,-0.049 0.366,-0.108 0.1123,-0.059 0.46845,-0.2245 0.79144,-0.3669 0.77251,-0.3405 1.44215,-0.8087 2.10573,-1.4723 0.74289,-0.7429 0.72802,-1.0154 -0.10299,-1.8872 l -0.64381,-0.6754 -0.44094,0.1353 c -0.62686,0.1924 -0.68967,0.068 -0.48895,-0.9687 l 0.17129,-0.8847 -0.59379,-0.2849 c -0.385,-0.1847 -0.71844,-0.2649 -0.9483,-0.2281 -0.45399,0.073 -0.9978,-0.3279 -0.9978,-0.7348 0,-0.3585 0.2589,-0.3721 0.41308,-0.022 0.0639,0.1451 0.21555,0.2826 0.33712,0.3055 0.19141,0.036 0.21138,-0.011 0.14894,-0.3521 -0.0848,-0.4632 0.0587,-0.7514 0.32371,-0.6497 0.27375,0.105 0.23063,-0.073 -0.062,-0.2553 -0.3187,-0.199 -2.92474,-0.271 -2.92474,-0.081 0,0.2396 -0.72272,1.0036 -0.94931,1.0036 -0.30274,0 -0.28825,-0.055 0.12906,-0.4919 0.47684,-0.4989 0.556,-0.8621 0.2711,-1.2437 -0.4107,-0.5501 -0.60582,-0.5979 -0.92789,-0.2275 -0.2349,0.2702 -0.28685,0.4566 -0.28685,1.029 0,0.5429 -0.0394,0.699 -0.17639,0.699 -0.28474,0 -0.23862,-1.3837 0.0588,-1.7639 0.12647,-0.1617 0.23061,-0.3734 0.23143,-0.4704 0.003,-0.307 -1.79426,-0.7922 -2.65473,-0.7169 -0.0716,0.01 -0.16396,0.334 -0.20518,0.7283 -0.0557,0.5334 -0.17102,0.8572 -0.45013,1.2642 -0.20635,0.3009 -0.55058,0.8038 -0.76496,1.1175 -0.27385,0.4007 -0.38977,0.704 -0.38977,1.0199 0,0.4808 0.10861,0.6425 1.15659,1.7224 0.65462,0.6745 0.6848,0.7794 0.78064,2.7139 0.0399,0.8046 0.0167,1.0883 -0.0891,1.0897 -0.0787,0 0.029,0.1121 0.23916,0.2468 0.2102,0.1346 0.38218,0.2635 0.38218,0.2864 0,0.023 -0.18185,0.1281 -0.40411,0.2335 -0.51306,0.2435 -0.43505,0.5007 0.18176,0.5993 0.25164,0.04 0.45753,0.1194 0.45753,0.1758 0,0.2076 0.37202,0.094 0.64047,-0.1958 l 0.27645,-0.2983 0.57048,0.3189 c 0.31376,0.1754 0.72922,0.3598 0.92325,0.4098 0.58562,0.1509 1.65029,-0.01 2.54164,-0.3728 z m -6.51826,-0.6045 c -0.0375,-0.094 -0.0654,-0.066 -0.071,0.071 -0.005,0.1239 0.0227,0.1934 0.0618,0.1543 0.0391,-0.039 0.0433,-0.1405 0.009,-0.2254 z m 33.2345,-1.4969 c 0.27118,-0.059 0.81055,-0.1695 1.1986,-0.2448 1.62012,-0.3142 3.93572,-0.8683 5.46806,-1.3086 1.08359,-0.3113 3.30492,-1.03 3.37767,-1.0928 0.0145,-0.013 -0.10073,-0.2096 -0.25596,-0.4381 -0.26976,-0.397 -0.48601,-0.7639 -1.0642,-1.8055 -0.69287,-1.2483 -1.0325,-1.8933 -1.8264,-3.469 -0.47251,-0.9378 -0.91625,-1.7432 -0.98609,-1.7898 -0.12029,-0.08 -0.16915,0.086 -0.37992,1.2911 -0.0369,0.2108 -0.11408,0.4124 -0.17161,0.4479 -0.0575,0.036 -0.1046,0.1681 -0.1046,0.2945 0,0.1264 -0.0471,0.3218 -0.10473,0.4341 -0.0576,0.1123 -0.22784,0.4687 -0.37832,0.7921 -0.61045,1.3119 -1.41785,2.303 -3.78105,4.6413 l -2.37989,2.3549 0.4477,3e-4 c 0.24623,10e-5 0.66957,-0.048 0.94074,-0.1076 z m 30.45304,-1.4835 c 1.95047,-0.4248 2.40731,-0.5259 3.4363,-0.7605 1.10788,-0.2526 1.55162,-0.3417 3.49838,-0.7023 0.98304,-0.1821 1.39361,-0.2422 2.14607,-0.3141 0.38805,-0.037 0.74658,-0.1054 0.79672,-0.1517 0.0951,-0.088 -0.91524,-2.6684 -1.13898,-2.909 -0.0971,-0.1044 -0.72585,0.014 -2.59756,0.4893 -1.35819,0.3449 -3.18382,0.767 -4.05694,0.938 -0.87313,0.171 -1.77885,0.361 -2.01272,0.4221 -0.23387,0.061 -0.58105,0.1111 -0.77152,0.1111 -0.32057,0 -0.3573,0.046 -0.49432,0.6173 -0.16716,0.6973 -0.21008,0.8107 -0.67787,1.7919 -0.18464,0.3872 -0.35334,0.7444 -0.3749,0.7937 -0.0669,0.1531 0.27771,0.1032 2.24734,-0.3258 z m -53.53731,-1.76 c 0,-0.097 -0.0729,-0.1764 -0.16199,-0.1764 -0.0891,0 -0.22787,0.079 -0.30838,0.1764 -0.12379,0.1492 -0.0988,0.1764 0.16199,0.1764 0.19572,0 0.30838,-0.064 0.30838,-0.1764 z m 54.79815,-2.1853 c 1.11842,-0.2114 2.96183,-0.6312 5.64444,-1.2853 1.07853,-0.263 1.33041,-0.341 1.43358,-0.4442 0.07,-0.07 -0.005,-0.4551 -0.20192,-1.0381 -0.72682,-2.1505 -0.7601,-3.6691 -0.1681,-7.6708 0.0703,-0.4754 0.10796,-0.8843 0.0836,-0.9086 -0.0695,-0.069 -2.96247,1.3728 -4.26338,2.1256 -2.16786,1.2544 -3.66974,2.6533 -4.41966,4.1166 -0.65253,1.2733 -0.7675,1.7357 -0.59342,2.3865 0.0803,0.3002 0.17395,1.0766 0.20811,1.7252 0.0801,1.5204 0.0631,1.4776 0.53516,1.3522 0.21409,-0.057 0.9978,-0.2184 1.74157,-0.3591 z m 15.75111,-6.1638 c 0.0517,-0.1293 0.2016,-0.4733 0.33299,-0.7643 0.66187,-1.4661 0.82888,-2.1605 0.9741,-4.0499 0.10569,-1.3752 0.25002,-1.8626 0.42019,-1.4192 0.0751,0.1956 -0.1866,3.0131 -0.39871,4.2931 -0.0482,0.2911 -0.0597,0.7673 -0.0254,1.0584 l 0.0623,0.5291 0.28238,-0.5879 c 0.15531,-0.3234 0.43157,-0.8092 0.61391,-1.0795 0.18234,-0.2704 0.33153,-0.5255 0.33153,-0.5668 0,-0.041 0.14758,-0.2964 0.32796,-0.5668 0.18038,-0.2704 0.45075,-0.7561 0.60083,-1.0795 0.15008,-0.3234 0.32,-0.6799 0.3776,-0.7922 0.0576,-0.1123 0.10472,-0.3076 0.10472,-0.434 0,-0.1264 0.0529,-0.2626 0.1176,-0.3025 0.0647,-0.04 0.11759,-0.2781 0.11759,-0.5292 0,-0.2511 0.058,-0.4923 0.12884,-0.5361 0.0736,-0.046 0.10091,-0.2375 0.0637,-0.4479 -0.0358,-0.2026 -0.11257,-0.6329 -0.17054,-0.9563 -0.11224,-0.6261 -0.42542,-1.6306 -0.61366,-1.968 -0.14913,-0.2674 -0.14627,-0.8791 0.005,-0.9723 0.0651,-0.04 0.1493,0.023 0.18705,0.1401 0.0377,0.1172 0.11327,0.319 0.16784,0.4484 0.0917,0.2174 0.44282,1.282 0.69807,2.1166 0.0593,0.1941 0.16674,1.0655 0.23866,1.9366 0.0719,0.8711 0.14807,1.601 0.1692,1.6222 0.0211,0.021 0.10328,-0.3212 0.18255,-0.7606 0.0793,-0.4395 0.27522,-1.3282 0.43545,-1.975 0.29846,-1.2048 0.51151,-3.465 0.37306,-3.9578 -0.14086,-0.5013 -0.1035,-1.9079 0.0755,-2.8435 0.097,-0.5069 0.17637,-0.9435 0.17637,-0.9702 0,-0.027 0.0524,-0.048 0.11634,-0.048 0.073,0 0.10588,0.69 0.0883,1.8521 -0.0271,1.7842 -0.0168,1.8757 0.28003,2.4988 0.30079,0.6314 1.19097,1.6369 0.98894,1.1171 -0.2431,-0.6255 -0.35144,-1.3965 -0.34694,-2.4694 0.005,-1.091 0.0823,-1.7065 0.39738,-3.1456 0.31273,-1.4285 0.36813,-1.734 0.46877,-2.585 0.0591,-0.5002 0.14278,-0.9664 0.18585,-1.0361 0.0825,-0.1335 -0.13733,-1.5341 -0.30379,-1.9352 -0.0537,-0.1293 -0.12353,-0.4468 -0.15521,-0.7055 -0.0317,-0.2587 -0.10798,-0.682 -0.16954,-0.9408 -0.10575,-0.4443 -0.11268,-0.4236 -0.12546,0.3753 -0.007,0.4651 -0.0604,0.8746 -0.11775,0.91 -0.11471,0.071 -0.24443,-0.3118 -0.24695,-0.7285 -0.003,-0.549 -0.30913,-1.2679 -0.71282,-1.6755 -0.60554,-0.6114 -1.90384,-1.207 -2.6379,-1.2101 -0.684,0 -1.71332,0.4297 -2.3476,0.9866 -0.48096,0.4223 -1.26821,1.6076 -1.82869,2.7534 -0.59534,1.217 -1.24781,2.1405 -1.78969,2.533 l -0.48037,0.348 h 0.48929 c 0.98905,0 2.01091,-0.7153 2.87108,-2.0098 0.64448,-0.9699 1.25619,-1.6377 1.83811,-2.0067 0.66957,-0.4247 0.8609,-0.4294 0.81244,-0.02 -0.0257,0.2173 -0.16406,0.3838 -0.44878,0.5404 -0.59409,0.3265 -0.8858,0.6233 -1.58732,1.6149 -1.26876,1.7934 -2.09757,2.4298 -3.3301,2.557 -0.62195,0.064 -0.6949,0.1085 -1.4854,0.9013 -1.13676,1.1402 -2.15989,1.6339 -4.29811,2.0743 -2.65485,0.5469 -3.67118,0.9854 -4.75584,2.0521 -0.68568,0.6743 -1.04942,1.2661 -1.34248,2.1838 -0.21204,0.6641 -0.15138,0.8055 0.10403,0.2426 0.34135,-0.7522 1.77808,-2.1162 2.71705,-2.5793 0.42884,-0.2115 0.95801,-0.4389 1.17593,-0.5052 1.53095,-0.4661 1.6524,-0.478 4.45316,-0.4389 2.18335,0.031 2.88068,0 3.32199,-0.134 0.30721,-0.095 0.55857,-0.214 0.55857,-0.2646 0,-0.051 0.0661,-0.092 0.14699,-0.092 0.0808,-10e-5 0.30574,-0.1383 0.49977,-0.3072 1.03909,-0.9042 1.35231,-1.048 1.35231,-0.6208 0,0.3639 -1.22039,1.4614 -2.11667,1.9034 l -0.76435,0.377 -0.0149,0.9996 c -0.008,0.5497 -0.0805,1.317 -0.16066,1.7051 -0.0802,0.388 -0.14469,0.9966 -0.14344,1.3523 0.004,1.2455 0.35408,4.9655 0.53614,5.7032 0.0319,0.1294 0.12424,0.6218 0.20515,1.0943 l 0.14712,0.8591 0.27388,-0.2954 c 0.15064,-0.1625 0.27389,-0.348 0.27389,-0.4123 0,-0.064 0.0754,-0.1592 0.16764,-0.2109 0.12406,-0.07 0.19989,-0.5526 0.29168,-1.8579 0.19284,-2.7424 0.55743,-4.7721 1.41524,-7.8787 0.14797,-0.5359 0.25717,-0.7644 0.36534,-0.7644 0.23035,0 0.23519,0.2935 0.017,1.0338 -0.47238,1.6033 -1.09366,4.38 -1.25523,5.6102 -0.19458,1.4814 -0.31673,4.28 -0.23649,5.4184 0.0498,0.7064 0.11351,1.205 0.14162,1.108 0.0281,-0.097 0.0934,-0.2822 0.14519,-0.4116 z m -2.19271,-19.3552 c 0.57889,-0.4772 1.17021,-1.3805 2.01313,-3.0753 0.83301,-1.6748 1.47652,-2.3861 2.65582,-2.9356 l 0.8107,-0.3777 -0.3762,-0.1602 c -1.07342,-0.4574 -2.18262,-0.7278 -2.99111,-0.7292 h -0.85102 l 0.2529,0.5205 c 0.23196,0.4775 0.23914,0.5563 0.0867,0.9526 -0.0914,0.2377 -0.21914,0.4135 -0.28382,0.3908 -0.0647,-0.023 -0.0965,-0.094 -0.0706,-0.1588 0.22506,-0.5637 0.0354,-1.4699 -0.30765,-1.4699 -0.31399,0 -0.85643,0.4751 -0.85643,0.7502 0,0.2732 0.38904,0.7785 0.59948,0.7785 0.066,0 0.0873,0.053 0.0473,0.1176 -0.13533,0.2189 -0.39101,0.1191 -0.7842,-0.3061 l -0.39173,-0.4237 -1.27618,0.063 c -0.7019,0.035 -1.30844,0.096 -1.34786,0.135 -0.0394,0.039 -0.005,0.1784 0.0764,0.3089 0.0815,0.1304 0.11405,0.3446 0.0724,0.4758 -0.0597,0.1881 -0.0297,0.2299 0.1414,0.1973 0.11943,-0.023 0.23406,-0.16 0.25472,-0.3048 0.0471,-0.3304 0.21596,-0.3409 0.31788,-0.02 0.15066,0.4747 -0.60946,0.9252 -0.96356,0.5711 -0.1562,-0.1562 -0.61806,0.3883 -0.64403,0.7592 -0.01,0.1368 -0.0282,0.3281 -0.0414,0.4252 -0.0132,0.097 -0.0318,0.2432 -0.0414,0.3249 -0.0136,0.116 -0.10778,0.1108 -0.42898,-0.023 -0.36916,-0.1542 -0.41158,-0.1528 -0.41158,0.014 0,0.1021 -0.23812,0.4074 -0.52916,0.6784 -0.29105,0.271 -0.52917,0.5908 -0.52917,0.7105 0,0.2459 0.85691,1.1091 1.29773,1.3073 0.15937,0.072 0.51967,0.2436 0.80065,0.3821 0.28098,0.1386 0.66151,0.2519 0.84561,0.2519 0.1841,0 0.36743,0.053 0.4074,0.1176 0.04,0.065 0.50729,0.1176 1.03848,0.1176 0.90624,0 0.99304,-0.022 1.40742,-0.364 z m 9.80281,-4.4867 c -0.0326,-0.081 -0.0593,-0.015 -0.0593,0.147 0,0.1617 0.0267,0.2278 0.0593,0.147 0.0326,-0.081 0.0326,-0.2131 0,-0.294 z m -0.33402,-0.6311 c -0.84423,-1.0771 -1.79691,-1.6195 -3.68321,-2.0971 -1.56152,-0.3953 -1.97404,-0.3953 -1.12501,-10e-5 0.35139,0.1636 0.70669,0.3942 0.78956,0.5125 0.10298,0.147 0.24612,0.1969 0.45219,0.1575 0.7065,-0.1351 2.6465,0.678 3.25954,1.366 0.37199,0.4175 0.62588,0.4681 0.30693,0.061 z"
       id="path57" /></g></svg>
