<?xml version="1.0" encoding="UTF-8" standalone="no"?>
<!-- Created with Inkscape (http://www.inkscape.org/) -->

<svg
   width="131.78847mm"
   height="89.124611mm"
   viewBox="0 0 131.78848 89.124611"
   version="1.1"
   id="svg1"
   xml:space="preserve"
   xmlns="http://www.w3.org/2000/svg"
   xmlns:svg="http://www.w3.org/2000/svg"><defs
     id="defs1" /><g
     id="layer1"
     transform="translate(584.3531,-1658.2205)"><path
       style="fill:#4d4d4d"
       d="m -554.11189,1747.2146 c 0,-0.8475 1.03695,-1.1418 4.0393,-1.1464 4.42026,-0.01 4.75906,-0.1287 4.74164,-1.7088 -0.0172,-1.5626 -0.49484,-3.8422 -1.63656,-7.8113 -0.4744,-1.6493 -0.96633,-3.4433 -1.09316,-3.9868 -0.12683,-0.5435 -0.38931,-0.9647 -0.58328,-0.9359 -0.34569,0.051 -3.471,2.8491 -3.82832,3.4272 -0.0999,0.1616 0.0941,1.3531 0.43093,2.6479 0.33686,1.2947 0.54488,2.9331 0.46227,3.6407 l -0.15021,1.2867 -2.37179,-0.2337 c -2.95884,-0.2916 -5.55479,0.2267 -12.77142,2.5499 -7.64904,2.4625 -8.32878,2.5199 -11.46273,0.9688 -1.39012,-0.688 -2.73193,-1.2509 -2.98181,-1.2509 -0.24988,0 -0.97274,0.5024 -1.60636,1.1165 -1.00257,0.9718 -1.18234,1.0377 -1.38554,0.5082 -0.15532,-0.4048 0.0992,-0.9558 0.76027,-1.6458 1.31408,-1.3716 2.75243,-1.3535 5.48554,0.069 1.89478,0.9861 2.34302,1.0829 4.13069,0.8919 1.10289,-0.1178 4.14838,-0.9371 6.76776,-1.8206 6.24259,-2.1057 8.66342,-2.6469 11.83995,-2.6469 1.44316,0 2.62394,-0.096 2.62394,-0.2141 0,-0.1178 -0.26412,-1.3084 -0.58693,-2.6459 l -0.58693,-2.4317 -1.61793,-0.01 c -1.81135,-0.01 -2.22,-0.1925 -2.78814,-1.2725 -0.4582,-0.8709 -0.2551,-1.728 1.24378,-5.2485 2.03838,-4.7876 2.27418,-7.4575 0.82518,-9.3429 -0.65354,-0.8503 -0.78595,-0.8732 -4.49024,-0.7746 -7.69179,0.2047 -15.80218,-2.2012 -13.41157,-3.9785 0.34971,-0.26 1.22284,-0.5789 1.94028,-0.7088 1.87815,-0.3399 5.33656,-2.0904 7.08254,-3.5849 3.59528,-3.0774 7.05415,-9.5088 10.0879,-18.7573 l 0.96031,-2.9276 -1.23337,-2.3641 c -3.11741,-5.9753 -2.39367,-11.1059 2.10897,-14.9503 2.73963,-2.3392 6.0423,-3.8963 12.46059,-5.8747 1.81757,-0.5602 11.16181,-2.3422 16.19573,-3.0886 4.34432,-0.6441 4.38305,-0.6582 5.08363,-1.8456 1.38101,-2.3406 5.73623,-3.403 10.89657,-2.658 3.40519,0.4915 5.23675,1.2792 7.03463,3.0252 2.78288,2.7025 2.66632,4.667 -0.49898,8.4097 -5.78977,6.8459 -8.93667,8.5081 -12.19566,6.4415 -0.4534,-0.2875 -0.86128,-0.4703 -0.9064,-0.4063 -0.94891,1.346 -1.54492,3.0415 -1.71837,4.8883 -0.24773,2.6377 -0.97814,4.5786 -2.39842,6.3733 l -1.00304,1.2674 -0.19132,6.6701 c -0.10901,3.8008 -0.0524,6.8854 0.13156,7.1706 0.27738,0.43 0.53843,0.423 1.85272,-0.05 9.67589,-3.48 19.09458,-2.382 24.57616,2.8652 l 1.87964,1.7992 h 4.3592 c 2.39756,0 4.74877,0.1481 5.22492,0.3292 1.31156,0.4986 3.34678,2.4221 3.98426,3.7655 0.31241,0.6583 0.68955,1.197 0.83809,1.197 0.44196,0 2.4868,-2.6829 6.18425,-8.1139 1.91538,-2.8134 4.1365,-5.9277 4.93583,-6.9206 1.6912,-2.1008 4.69591,-4.8439 6.08391,-5.5542 2.2379,-1.1452 5.81411,-2.3945 6.05354,-2.1147 0.14215,0.1661 0.48445,1.572 0.76065,3.1242 0.56416,3.1706 0.64892,10.3361 0.20655,17.4625 -0.18568,2.9912 -0.15934,6.0746 0.0708,8.2903 0.57695,5.5541 0.87637,13.9121 0.59314,16.5569 -0.34083,3.1826 -1.00636,3.8646 -4.27945,4.3856 -1.34138,0.2135 -3.62951,0.4711 -5.08471,0.5726 -1.45521,0.1014 -3.67771,0.2757 -4.93889,0.3873 -3.84714,0.3405 -24.1771,3.309 -29.98611,4.3784 -15.69537,2.8895 -24.73799,3.3478 -31.49191,1.5958 -1.62374,-0.4212 -1.86129,-0.4091 -2.24783,0.1137 -0.34246,0.4633 -0.52356,0.4946 -0.87216,0.1509 -0.34293,-0.3382 -0.34779,-0.6105 -0.0221,-1.2348 0.47791,-0.9159 1.10861,-10.0628 0.89443,-12.9717 -0.29784,-4.045 -0.91151,-8.3465 -1.40303,-9.8345 -0.28056,-0.8493 -0.65103,-2.4368 -0.82327,-3.5277 -0.37215,-2.3571 -1.88933,-8.03 -2.24188,-8.3825 -0.44899,-0.449 -2.0605,1.4206 -3.23498,3.7531 -0.63504,1.2611 -1.58347,3.7047 -2.10762,5.43 -0.52415,1.7254 -1.3241,3.9762 -1.77767,5.0018 -0.88359,1.998 -3.48506,5.0904 -4.28222,5.0904 -0.70632,0 -0.59925,1.1924 0.42784,4.765 1.4026,4.8787 2.03858,8.6711 1.76266,10.511 -0.23838,1.5897 -0.27037,1.6231 -1.7234,1.7993 -3.27661,0.3976 -8.00689,0.5712 -8.00689,0.294 z m 45.74239,-1.8521 c 5.35701,-0.7273 8.13778,-1.2047 10.3902,-1.7837 0.70161,-0.1804 1.81286,-0.3304 2.46945,-0.3334 0.65658,0 1.43192,-0.1593 1.72296,-0.3473 0.87733,-0.567 -2.10769,-0.4231 -6.46572,0.3117 -2.16767,0.3655 -6.74489,1.0386 -10.17158,1.4957 -3.42669,0.4571 -6.15576,0.9519 -6.06459,1.0994 0.26995,0.4368 2.56418,0.3118 8.11928,-0.4424 z m -18.3713,-1.0725 c 0.39727,-2.1915 2.24428,-7.1781 3.88527,-10.4895 1.59225,-3.213 2.46089,-4.4819 4.49675,-6.5692 3.29467,-3.3778 4.70364,-4.1001 9.15438,-4.6931 0.73669,-0.098 1.29232,-0.2802 1.23472,-0.4045 -0.0576,-0.1242 -0.66034,-1.2219 -1.33944,-2.4393 -1.09928,-1.9706 -1.32987,-2.1903 -2.10219,-2.0032 -1.28652,0.3116 -4.60058,1.9926 -4.60058,2.3335 0,0.1626 -0.16553,0.2956 -0.36784,0.2956 -0.50125,0 -3.82586,2.5065 -4.97581,3.7514 -1.75041,1.895 -3.70946,5.3434 -4.71248,8.2952 -0.83688,2.4628 -1.0347,3.7427 -1.20519,7.7978 -0.12051,2.8665 -0.0722,4.8072 0.11799,4.7434 0.17708,-0.059 0.36356,-0.3375 0.41442,-0.6181 z m 36.83446,-2.0975 c 0.71883,-0.2302 0.57202,-0.2889 -0.79375,-0.3176 -0.92163,-0.019 -1.67569,0.1236 -1.67569,0.3176 0,0.4083 1.19462,0.4083 2.46944,0 z m 4.50203,-0.9479 c -0.33728,-0.088 -0.97228,-0.091 -1.41111,-0.01 -0.43882,0.084 -0.16286,0.1567 0.61325,0.1606 0.77611,0 1.13515,-0.065 0.79786,-0.1534 z m 5.11602,-0.7115 c -0.4339,-0.084 -1.22765,-0.086 -1.76389,0 -0.53625,0.081 -0.18124,0.1496 0.7889,0.1523 0.97014,0 1.40888,-0.064 0.97499,-0.1474 z m 4.22848,-0.6909 c -0.24253,-0.098 -0.63941,-0.098 -0.88194,0 -0.24254,0.098 -0.0441,0.1779 0.44097,0.1779 0.48507,0 0.6835,-0.08 0.44097,-0.1779 z m 16.49236,-1.359 c 1.45521,-0.129 3.16177,-0.3914 3.79236,-0.583 1.43371,-0.4358 1.53806,-1.1414 0.12283,-0.8306 -1.11552,0.245 -5.81862,0.8523 -8.76588,1.1319 -1.01865,0.097 -1.85209,0.322 -1.85209,0.5006 0,0.3143 1.0911,0.2787 6.70278,-0.2189 z m -92.075,-5.9759 c 1.06715,-1.0068 2.41653,-2.1252 2.99861,-2.4855 1.5569,-0.9638 3.66758,-3.0011 4.56858,-4.4099 0.43434,-0.679 1.2262,-2.584 1.75968,-4.2333 1.73297,-5.3574 2.0337,-6.1507 2.94197,-7.7611 0.49245,-0.8731 1.86249,-2.6219 3.04452,-3.8862 1.18203,-1.2643 2.66111,-3.2635 3.28685,-4.4426 1.77805,-3.3504 2.10261,-5.4351 1.98915,-12.776 -0.0987,-6.3841 -0.11065,-6.4729 -0.96348,-7.1437 -0.5271,-0.4146 -1.41602,-0.6793 -2.28153,-0.6793 -1.20736,0 -1.57858,0.1949 -2.49923,1.3118 -1.22412,1.485 -1.50395,2.2854 -3.55008,10.1535 -3.18296,12.2397 -6.19269,20.1677 -9.50088,25.0267 -0.5361,0.7874 -1.41881,2.1063 -1.96158,2.9309 -0.54278,0.8247 -1.2034,1.4993 -1.46806,1.4993 -0.70457,0 -0.5946,-0.5399 0.44562,-2.1877 0.8146,-1.2904 0.86943,-1.5565 0.45294,-2.1978 -2.11011,-3.2494 -2.49193,-5.3049 -1.68864,-9.0908 0.63982,-3.0155 2.69405,-6.5662 3.26467,-5.643 0.108,0.1748 -0.12046,0.9366 -0.50769,1.6929 -2.00066,3.9074 -2.33419,8.4174 -0.81432,11.0108 l 0.92821,1.5839 0.67244,-0.8473 c 1.2889,-1.6241 4.13375,-7.9365 5.70805,-12.6654 1.51182,-4.5413 2.33023,-7.4245 4.35593,-15.3458 0.49618,-1.9403 1.18777,-4.0937 1.53685,-4.7854 1.70183,-3.3721 4.44193,-4.6259 6.9175,-3.1653 0.70484,0.4159 1.40532,0.6286 1.55664,0.4728 0.15131,-0.1558 0.61384,-2.1089 1.02785,-4.3402 0.41401,-2.2313 0.92756,-4.6541 1.14124,-5.384 0.37535,-1.2823 1.17003,-2.3045 1.51965,-1.9549 0.0935,0.093 -0.22553,1.9814 -0.70891,4.1954 -0.48338,2.214 -1.06659,4.8986 -1.29603,5.9657 -0.22944,1.0672 -0.57711,2.1489 -0.7726,2.4038 -0.57471,0.7494 -0.39093,8.7341 0.26947,11.7073 1.2877,5.7976 1.57914,7.7013 1.59694,10.4312 0.0232,3.5539 -0.66788,5.9407 -2.25779,7.7982 l -1.23391,1.4415 1.09463,0.2189 c 1.05589,0.2112 1.08665,0.2689 0.86902,1.6299 -0.24661,1.5422 -0.0715,1.7076 0.88833,0.839 0.74236,-0.6719 2.10697,-0.3829 1.42283,0.3012 -0.43063,0.4307 -0.56037,1.7684 -0.20589,2.1229 0.25729,0.2573 7.56677,-7.2601 8.18623,-8.419 0.41184,-0.7706 0.35215,-0.9581 -0.63427,-1.9926 -0.59889,-0.6281 -1.65127,-2.1354 -2.33862,-3.3496 -1.39458,-2.4636 -1.67768,-4.7504 -0.76124,-6.1491 0.64783,-0.9887 0.98389,-4.7375 1.15593,-12.8945 0.11815,-5.6022 0.1984,-6.235 1.01745,-8.024 0.57455,-1.255 1.21923,-2.0926 1.82194,-2.3673 0.57352,-0.2613 1.31203,-1.179 1.91756,-2.3829 1.81719,-3.6128 1.70391,-6.1988 -0.36507,-8.3335 -0.60219,-0.6213 -0.95081,-1.2187 -0.77472,-1.3275 0.5402,-0.3338 2.49655,1.0825 3.09578,2.2413 0.55493,1.0731 0.80005,4.2037 0.38209,4.8799 -0.39177,0.6339 0.17779,1.372 1.52893,1.9813 1.3202,0.5953 1.37741,0.5898 3.29448,-0.3171 1.74945,-0.8277 3.39191,-2.2381 5.53421,-4.7523 0.88084,-1.0337 0.95199,-3.0762 0.13848,-3.9752 -0.65243,-0.7209 -2.23767,-0.8575 -2.84966,-0.2455 -0.81714,0.8172 -1.46402,0.046 -1.5745,-1.8772 -0.0834,-1.4519 -0.24563,-1.8935 -0.72937,-1.9855 -0.34215,-0.065 -2.13867,0.3701 -3.99226,0.9669 -3.82238,1.2307 -4.5019,1.2939 -5.92587,0.5513 -1.10948,-0.5786 -0.4037,-0.6483 -10.97922,1.0831 -5.36521,0.8784 -12.94291,2.6036 -14.46388,3.293 -0.38806,0.1759 -1.26118,0.5268 -1.94028,0.7798 -2.05206,0.7645 -5.29446,2.789 -6.6703,4.1649 -3.29735,3.2973 -3.71955,7.6557 -1.24195,12.8206 0.72984,1.5215 1.06409,1.6478 1.401,0.5292 0.30764,-1.0214 2.22327,-3.065 3.24805,-3.465 0.68696,-0.2682 0.79375,-0.5663 0.79375,-2.2157 0,-1.0994 0.18661,-2.0567 0.44098,-2.2623 0.24253,-0.1961 1.27441,-0.4685 2.29305,-0.6055 l 1.85209,-0.249 v -2.0094 c 0,-2.0773 0.84568,-5.9652 1.42342,-6.5439 0.64992,-0.651 0.80565,0.1897 0.37168,2.0064 -0.24314,1.0179 -0.57915,3.9938 -0.7467,6.6131 -0.5837,9.1255 -3.45682,17.6739 -8.72171,25.9499 -3.98373,6.2621 -4.66103,7.9355 -4.66878,11.5351 -0.005,2.0917 0.10044,2.4754 0.8571,3.1333 2.15025,1.8696 2.30093,5.0297 0.4687,9.829 -0.40741,1.0671 -0.85284,2.099 -0.98986,2.293 -0.13702,0.1941 -0.4496,0.9746 -0.69463,1.7345 -0.39897,1.2373 -0.37792,1.431 0.20147,1.8547 1.15129,0.8418 2.96344,0.1979 5.09097,-1.8091 z m 79.98003,-1.4655 c 5.26802,-1.7705 8.3105,-3.759 13.21988,-8.6401 3.41162,-3.392 3.81108,-4.1737 3.81266,-7.4613 7.3e-4,-1.5037 -0.13584,-2.734 -0.30348,-2.734 -0.16764,0 -0.7582,0.6747 -1.31236,1.4993 -0.55416,0.8246 -2.47095,3.0988 -4.25955,5.0537 -3.57038,3.9025 -7.04068,6.4573 -9.8219,7.2309 -2.71742,0.7558 -6.29525,0.6313 -9.34861,-0.3254 -1.45521,-0.456 -3.67121,-1.1435 -4.92443,-1.5278 -1.25323,-0.3843 -2.72059,-1.0135 -3.26079,-1.3982 -0.98538,-0.7016 -1.69256,-0.6316 -1.69256,0.1677 0,0.2353 -0.49454,1.0279 -1.09898,1.7612 -0.60444,0.7333 -1.041,1.3688 -0.97014,1.4124 1.83985,1.1298 7.48721,3.7202 9.78349,4.4875 3.59774,1.2022 7.47324,1.3828 10.17677,0.4741 z m -24.12975,-4.076 c 1.39489,-0.7423 3.48093,-2.5727 3.9551,-3.4705 0.25619,-0.4851 1.34883,-1.9138 2.4281,-3.175 l 1.9623,-2.2931 0.005,-2.8902 c 0.004,-2.3186 -0.14331,-3.1414 -0.7444,-4.1602 -0.83104,-1.4085 -0.72332,-1.8392 0.32031,-1.2806 1.15638,0.6188 1.84009,2.5732 1.84009,5.2598 0,1.9238 0.1228,2.5137 0.55802,2.6807 1.06698,0.4094 1.99206,0.209 3.01741,-0.6538 0.5673,-0.4773 1.5824,-0.9712 2.25579,-1.0976 1.16818,-0.2191 1.22433,-0.2981 1.22433,-1.7224 0,-1.9622 -1.3098,-4.4006 -2.84565,-5.2976 -1.02722,-0.5999 -1.86048,-0.7062 -5.61842,-0.7166 -4.83728,-0.013 -5.47157,-0.225 -7.47607,-2.4951 -1.33246,-1.5091 -4.96597,-3.2654 -7.69597,-3.72 -2.24355,-0.3736 -10.65473,-0.1733 -11.37333,0.2708 -0.53895,0.3331 0.40607,0.7593 2.2442,1.0121 0.91539,0.1259 1.90598,0.4959 2.20132,0.8223 0.29534,0.3263 0.94756,2.1735 1.44938,4.1049 1.36558,5.2558 2.56282,6.8761 5.09895,6.9004 0.88781,0.01 2.2492,0.2571 3.02532,0.5524 0.77611,0.2952 1.64923,0.6121 1.94027,0.704 0.35231,0.1114 0.85095,-0.4105 1.49194,-1.5613 1.13615,-2.0399 1.8594,-2.7509 2.21423,-2.1768 0.13266,0.2147 -0.14289,0.9764 -0.61234,1.6928 -0.46945,0.7164 -1.29778,2.2173 -1.84074,3.3352 -1.5525,3.1967 -2.72613,3.1825 -6.3218,-0.076 -1.25138,-1.1341 -2.49691,-2.197 -2.76785,-2.362 -1.4835,-0.9039 -2.76013,-3.6382 -3.79669,-8.132 -0.23275,-1.009 -0.60767,-1.9866 -0.83316,-2.1723 -0.22549,-0.1857 -1.30672,-0.5027 -2.40274,-0.7044 -2.13334,-0.3927 -3.86516,-0.1105 -5.07909,0.8277 -0.65968,0.5099 -0.66186,0.5491 -0.0507,0.9146 1.46135,0.8741 3.07982,2.5855 4.67966,4.9485 0.93508,1.3812 1.99534,2.6914 2.35613,2.9117 0.91187,0.5567 2.21416,2.7383 2.08604,3.4946 -0.17281,1.02 1.2956,3.0619 4.50784,6.2682 3.05125,3.0456 4.28899,3.7579 6.65704,3.8308 0.64334,0.02 1.51647,-0.1485 1.94028,-0.374 z m -32.63797,-4.0077 c 0.058,-0.047 0.01,-0.4666 -0.10742,-0.9329 -0.16002,-0.6376 -0.44856,-0.8447 -1.1637,-0.8354 -0.78867,0.01 -0.97066,-0.1604 -1.06668,-1.0007 -0.0637,-0.5572 0.0554,-1.1843 0.26458,-1.3935 0.2092,-0.2092 0.38036,-0.5073 0.38036,-0.6625 0,-0.4001 -1.32667,-0.3515 -1.57964,0.058 -0.1904,0.3081 0.70421,4.3913 1.10375,5.0378 0.13826,0.2237 1.81607,0.014 2.16875,-0.2706 z m 11.27172,-5.579 c 2.37684,-1.766 4.32153,-3.3459 4.32153,-3.5109 0,-0.4126 -2.01944,-3.3807 -3.13874,-4.6131 -0.50502,-0.5561 -1.74569,-1.6283 -2.75706,-2.3826 -1.4131,-1.054 -1.9274,-1.7005 -2.22132,-2.792 -0.42814,-1.59 -1.05511,-1.5635 -1.05511,0.045 0,1.3947 1.38548,4.0615 3.3863,6.5179 1.53353,1.8828 1.60006,2.0513 1.14921,2.9101 -0.26321,0.5014 -2.10575,2.5702 -4.09453,4.5973 -1.98879,2.0272 -3.61598,3.8236 -3.61598,3.9921 0,0.6261 3.83696,-1.6512 8.0257,-4.7634 z m 39.54829,1.8121 c -0.39867,-0.723 -0.46195,-0.7411 -0.58216,-0.1659 -0.0742,0.3549 0.0776,1.1486 0.33735,1.7639 l 0.47221,1.1186 0.10995,-0.9527 c 0.0605,-0.524 -0.0913,-1.3177 -0.33735,-1.7639 z m -80.5063,-1.3575 c 0.20344,-0.2034 0.30145,-1.1162 0.21779,-2.0285 -0.31069,-3.3877 1.36209,-7.4965 5.41478,-13.3002 0.81293,-1.1642 2.06948,-3.2952 2.79234,-4.7356 l 1.31428,-2.6189 -0.59324,-1.882 c -0.63511,-2.0148 -0.49013,-2.9066 0.35805,-2.2027 0.27377,0.2272 0.49776,0.7112 0.49776,1.0755 0,1.6499 0.69148,0.3404 1.73788,-3.2911 1.0771,-3.7381 1.10516,-3.9783 0.51515,-4.4098 -1.12532,-0.8228 -3.1481,-0.5653 -4.25437,0.5417 -1.09552,1.0962 -2.89215,4.2004 -3.12206,5.3943 -0.24307,1.2621 -1.94285,6.3493 -2.8738,8.6008 -2.19905,5.3185 -4.67861,9.2833 -7.58852,12.1342 -2.04426,2.0029 -5.76106,4.0596 -8.02837,4.4427 -0.78822,0.1331 -1.43313,0.3662 -1.43313,0.5179 0,0.2526 5.79311,1.5744 8.29028,1.8915 2.33437,0.2964 6.40721,0.2182 6.75518,-0.1298 z m 28.22287,-4.6749 c 1.0991,-2.1674 1.40859,-5.4461 0.8471,-8.9739 -0.58361,-3.6668 -0.66931,-3.9229 -1.09012,-3.2575 -0.18062,0.2856 -0.33083,0.8171 -0.3338,1.1812 -0.007,0.8271 -1.88728,4.5841 -3.09198,6.1773 -0.69084,0.9136 -0.81811,1.3314 -0.5408,1.7754 0.19947,0.3194 0.47215,1.1312 0.60597,1.8039 0.13381,0.6727 0.37724,1.62 0.54095,2.1051 0.16371,0.4851 0.39522,1.1813 0.51447,1.5473 0.21245,0.652 0.23163,0.652 0.95314,0 0.40498,-0.366 1.12277,-1.4274 1.59507,-2.3588 z m 11.05944,-9.0663 c 0,-0.194 -0.15875,-0.3528 -0.35277,-0.3528 -0.19403,0 -0.35278,0.1588 -0.35278,0.3528 0,0.194 0.15875,0.3528 0.35278,0.3528 0.19402,0 0.35277,-0.1588 0.35277,-0.3528 z m 0.38933,-21.3846 c 0.76841,-2.7711 0.82876,-3.4502 0.27626,-3.1087 -0.62941,0.3889 -1.64481,3.0005 -1.91067,4.9141 -0.23053,1.6593 -0.20916,1.7296 0.36016,1.1856 0.33288,-0.3181 0.90629,-1.664 1.27425,-2.991 z m -26.33739,0.1297 c 0.0745,-0.2425 0.22706,-1.2088 0.33915,-2.1472 l 0.2038,-1.7063 -1.49675,0.2433 c -1.92977,0.3137 -2.05031,0.4525 -1.78922,2.0614 0.14766,0.9099 0.45838,1.4418 0.9609,1.6449 1.07654,0.4351 1.62822,0.4054 1.78212,-0.096 z m 43.77903,-16.2991 c 0.3778,-0.9042 0.41605,-1.4619 0.14852,-2.1656 -0.46615,-1.226 -0.55525,-1.0841 -0.85098,1.355 -0.27965,2.3065 -0.0387,2.5846 0.70246,0.8106 z m -16.77263,-4.0738 c 0,-0.194 -0.15875,-0.3528 -0.35278,-0.3528 -0.19403,0 -0.35278,0.1588 -0.35278,0.3528 0,0.194 0.15875,0.3528 0.35278,0.3528 0.19403,0 0.35278,-0.1588 0.35278,-0.3528 z"
       id="path96" /></g></svg>
