<?xml version="1.0" encoding="UTF-8" standalone="no"?>
<!-- Created with Inkscape (http://www.inkscape.org/) -->

<svg
   width="200.60611mm"
   height="144.62743mm"
   viewBox="0 0 200.60611 144.62743"
   version="1.1"
   id="svg1"
   xml:space="preserve"
   xmlns="http://www.w3.org/2000/svg"
   xmlns:svg="http://www.w3.org/2000/svg"><defs
     id="defs1" /><g
     id="layer1"
     transform="translate(-709.66996,-680.45214)"><path
       style="fill:#4d4d4d"
       d="m 844.52915,824.70415 c -0.2616,-0.19128 -0.68733,-0.34779 -0.94608,-0.34779 -1.19758,0 -4.4555,-2.3755 -4.4555,-3.24871 0,-0.34947 1.36475,-1.51348 1.77523,-1.51411 0.11503,-1.8e-4 0.56156,-0.30339 0.99228,-0.67381 0.43072,-0.37042 1.41369,-1.03426 2.18437,-1.4752 1.49382,-0.85467 1.92729,-1.39988 1.92729,-2.42407 0,-0.706 0.80431,-2.33053 2.05857,-4.15785 0.80543,-1.17343 0.81066,-1.20208 0.36236,-1.98437 -0.25785,-0.44996 -1.02388,-1.08024 -1.76863,-1.45521 -0.72256,-0.3638 -1.37329,-0.73644 -1.44605,-0.82808 -0.0728,-0.0916 -0.87665,-0.25218 -1.78641,-0.35676 -0.90977,-0.10458 -1.72047,-0.29749 -1.80155,-0.42869 -0.0811,-0.13121 -0.43104,-0.23855 -0.77766,-0.23855 -0.34663,0 -0.6933,-0.10205 -0.77038,-0.22677 -0.0771,-0.12472 -0.76872,-0.30397 -1.53697,-0.39834 -4.07923,-0.50105 -7.40186,-1.24862 -9.01619,-2.02859 -0.59344,-0.28672 -1.40511,-0.5213 -1.80371,-0.5213 -0.39861,0 -1.65616,-0.4305 -2.79458,-0.95666 -1.39529,-0.64488 -2.5872,-0.99626 -3.65734,-1.0782 -0.87313,-0.0669 -1.88516,-0.24734 -2.24896,-0.40107 -1.08664,-0.45918 -2.75066,-1.32566 -3.175,-1.65326 -0.70062,-0.54091 -1.95664,-1.002 -2.98849,-1.09707 -1.35156,-0.12454 -2.86006,-0.65841 -5.08166,-1.79843 -1.01845,-0.52263 -2.00055,-0.95081 -2.18245,-0.95152 -0.1819,-7.1e-4 -0.33073,-0.11233 -0.33073,-0.24805 0,-0.13571 -0.20836,-0.31315 -0.46302,-0.39431 -0.25467,-0.0812 -1.05834,-0.68263 -1.78594,-1.3366 -0.72761,-0.65397 -1.49075,-1.1909 -1.69587,-1.19318 -0.20513,-0.002 -1.04072,-0.62923 -1.85688,-1.39322 -0.81616,-0.76398 -2.07708,-1.8627 -2.80205,-2.4416 -2.92328,-2.3343 -8.85874,-8.28896 -8.85874,-8.88741 0,-0.55452 0.59003,-0.12632 3.21503,2.33318 1.51429,1.41883 3.37493,3.10032 4.13474,3.73666 0.75981,0.63633 1.38148,1.29188 1.38148,1.45676 0,0.16489 0.35126,0.45529 0.78059,0.64532 0.42932,0.19004 1.51618,1.05421 2.41524,1.92039 0.89905,0.86617 2.06583,1.77886 2.59284,2.02819 0.52701,0.24932 1.19633,0.7058 1.48737,1.01438 0.67711,0.71793 2.43299,1.81782 4.62398,2.89649 3.89063,1.91545 4.45924,2.06878 3.3814,0.91186 -0.69831,-0.74955 -2.57989,-3.48364 -2.58079,-3.75011 -3.5e-4,-0.10252 -0.29829,-0.48406 -0.66209,-0.84787 -0.66284,-0.66283 -0.7989,-1.34381 -0.67673,-3.38688 0.0548,-0.91556 -0.0362,-1.04455 -1.35208,-1.9177 -0.77593,-0.51486 -1.70843,-1.13864 -2.07223,-1.38616 -1.21445,-0.8263 -3.49083,-2.80806 -5.65272,-4.92112 -1.22368,-1.19604 -2.65286,-2.31699 -3.33704,-2.61735 -0.65819,-0.28895 -1.52749,-0.7023 -1.93179,-0.91854 -0.74806,-0.40012 -2.15374,-0.28829 -2.45249,0.1951 -0.083,0.13432 -0.33632,0.24423 -0.5629,0.24423 -0.22658,0 -0.97335,0.41209 -1.65948,0.91576 -1.40183,1.02904 -3.36163,1.51321 -3.72768,0.92093 -0.32531,-0.52637 -0.0572,-0.77836 0.82819,-0.77836 0.7805,0 1.74836,-0.49046 2.73694,-1.38695 0.2821,-0.25583 0.72156,-0.46513 0.97658,-0.46513 0.25501,0 0.53258,-0.11153 0.61682,-0.24783 0.25181,-0.40744 1.76582,-1.07509 2.43793,-1.07509 0.34457,0 1.07041,0.29134 1.613,0.64741 0.54258,0.35608 1.58182,0.72428 2.30943,0.81823 1.30901,0.16903 4.29049,-0.2241 5.12456,-0.67569 0.36381,-0.19698 2.21041,-0.97556 4.40044,-1.85536 0.29104,-0.11692 1.18401,-0.41628 1.98437,-0.66526 0.80037,-0.24897 1.7287,-0.55674 2.06297,-0.68392 0.33427,-0.12719 0.83625,-0.23124 1.11551,-0.23124 0.55708,0 2.2796,-0.7226 2.90694,-1.21947 0.40194,-0.31834 1.62521,-1.03358 3.59659,-2.10288 0.59568,-0.3231 1.57558,-0.89838 2.17756,-1.27839 0.60197,-0.38001 1.19748,-0.69093 1.32334,-0.69093 0.12585,0 0.45564,-0.25494 0.73286,-0.56654 0.60648,-0.68169 2.38926,-1.53627 3.22168,-1.54432 0.40484,-0.004 0.69714,-0.24327 0.89562,-0.73341 0.16205,-0.40018 0.69121,-1.56104 1.1759,-2.57969 0.4847,-1.01865 1.06927,-2.50693 1.29905,-3.30729 0.22978,-0.80037 0.53151,-1.82085 0.67051,-2.26774 0.139,-0.4469 0.25272,-1.29207 0.25272,-1.87816 0,-0.58608 0.29578,-2.40287 0.65728,-4.03729 0.4171,-1.88577 0.70727,-4.19665 0.79409,-6.32393 0.27986,-6.85773 0.4474,-8.00774 1.32676,-9.10694 0.43656,-0.5457 0.87602,-0.99218 0.97657,-0.99218 0.47165,-2e-5 0.39868,0.52398 -0.19452,1.39696 -0.47911,0.70507 -0.64976,1.30906 -0.64976,2.29971 0,1.18961 0.0758,1.3723 0.66146,1.59499 0.3638,0.13831 0.66146,0.36653 0.66146,0.50715 0,0.32007 3.02586,2.66785 3.43838,2.66785 0.16697,0 0.49298,0.18939 0.72447,0.42088 0.35753,0.35753 0.36464,0.45668 0.0472,0.65868 -0.2055,0.13079 -0.55223,0.166 -0.77051,0.0783 -0.21828,-0.0877 -0.635,-0.21739 -0.92604,-0.2881 -1.39604,-0.33921 -2.34236,-0.99862 -3.06231,-2.13386 l -0.77415,-1.22072 v 4.0698 c 0,3.84229 -0.33642,6.41093 -1.05727,8.07235 -0.12627,0.29104 -0.29002,0.88635 -0.36388,1.32291 -0.0738,0.43657 -0.21575,1.12559 -0.31533,1.53118 -0.15505,0.63156 -0.0339,0.86738 0.84386,1.64263 0.5637,0.49786 1.15227,0.91016 1.30793,0.91622 0.15566,0.006 0.52626,0.29077 0.82356,0.6327 0.84123,0.9675 2.72988,4.91518 2.72988,5.70604 0,0.3906 0.0988,0.8233 0.21947,0.96155 0.32452,0.37167 0.91818,3.74542 0.71649,4.07177 -0.0954,0.15434 0.0122,0.28062 0.23905,0.28062 0.22687,0 0.41249,-0.0901 0.41249,-0.20016 0,-0.11009 0.50107,-0.35655 1.1135,-0.54768 0.61242,-0.19114 1.61792,-0.57732 2.23444,-0.85817 1.18505,-0.53986 1.94373,-0.65425 1.94373,-0.29307 0,0.2498 -2.04049,1.6345 -2.40859,1.6345 -0.13443,0 -0.45117,0.11208 -0.70386,0.24907 -0.25268,0.13699 -1.1738,0.44454 -2.04693,0.68345 -0.87312,0.2389 -1.79424,0.54353 -2.04693,0.67696 -0.25269,0.13343 -0.58069,0.2426 -0.7289,0.2426 -0.14821,0 -0.88648,0.29766 -1.64061,0.66146 -0.75412,0.3638 -1.4685,0.66146 -1.5875,0.66146 -0.119,0 -0.83337,0.29766 -1.5875,0.66146 -0.75412,0.3638 -1.53336,0.66146 -1.73163,0.66146 -0.49593,0 -1.88934,0.74297 -2.55302,1.36128 -0.30184,0.2812 -0.81905,0.57911 -1.14937,0.66201 -0.33032,0.0829 -0.60058,0.23814 -0.60058,0.34497 0,0.10683 -0.41672,0.41866 -0.92604,0.69295 -0.50932,0.27429 -0.92604,0.59069 -0.92604,0.70312 0,0.11243 -0.12707,0.20442 -0.28238,0.20442 -0.32199,0 -2.03575,1.32982 -3.25839,2.52841 -0.45367,0.44475 -1.18039,0.98053 -1.61493,1.19063 -0.76481,0.36978 -1.20636,0.70277 -2.78701,2.10179 -1.31633,1.16507 -1.57958,1.34923 -2.31559,1.6199 -0.9028,0.33201 -3.50004,3.90113 -3.50004,4.80977 0,0.74541 0.31638,1.40467 1.48545,3.09533 0.45282,0.65484 0.91279,1.47621 1.02216,1.82527 0.32369,1.03306 4.07089,4.44879 5.14899,4.69351 0.37278,0.0846 1.18796,0.31938 1.8115,0.5217 0.62355,0.20232 1.83692,0.36785 2.69637,0.36785 0.85945,0 1.63622,0.11907 1.72616,0.26459 0.0899,0.14552 0.45577,0.26458 0.81295,0.26458 0.35719,0 0.85618,0.11329 1.10887,0.25177 0.25269,0.13847 0.93568,0.44826 1.51776,0.68843 0.58209,0.24017 1.29646,0.53755 1.5875,0.66086 0.8337,0.3532 3.81482,1.04477 4.50367,1.04477 0.34346,0 0.68839,0.10342 0.76651,0.22982 0.0781,0.1264 1.00788,0.31179 2.06614,0.41199 1.05825,0.10019 2.28129,0.28636 2.71785,0.41371 0.43656,0.12735 1.32953,0.37147 1.98437,0.54249 1.08772,0.28407 2.46723,0.76258 3.83646,1.33076 0.29104,0.12077 1.12448,0.41281 1.85209,0.64899 1.73298,0.56251 2.8448,1.43673 3.55147,2.7925 0.52049,0.99859 0.53591,1.14379 0.16498,1.55366 -0.22504,0.24867 -0.40916,0.68726 -0.40916,0.97465 0,0.2874 -0.28538,1.11146 -0.63418,1.83125 -0.3488,0.7198 -0.69299,1.88869 -0.76486,2.59754 -0.0949,0.93605 -0.31648,1.46108 -0.80948,1.91822 -0.37334,0.34618 -0.75148,0.62942 -0.8403,0.62942 -0.0888,0 -0.5405,0.27984 -1.00373,0.62187 -0.46324,0.34203 -1.43121,0.89977 -2.15106,1.23942 -0.71985,0.33966 -1.16382,0.66589 -0.98661,0.72496 0.17722,0.0591 1.03638,-0.26428 1.90925,-0.71856 1.3852,-0.72091 1.60811,-0.77103 1.75276,-0.39408 0.0922,0.24025 0.002,0.54228 -0.20355,0.68068 -0.24015,0.16179 0.0702,0.18821 0.88749,0.0755 0.88527,-0.12203 1.25677,-0.0812 1.25677,0.13801 0,0.17119 0.20836,0.29125 0.46302,0.2668 0.84711,-0.0813 1.65364,0.32632 1.65364,0.83581 0,0.27406 -0.11906,0.4983 -0.26458,0.4983 -0.14552,0 -0.26458,0.16402 -0.26458,0.36448 0,0.20046 -0.1786,0.5127 -0.39688,0.69386 -0.69525,0.577 -0.43024,0.80515 0.72761,0.62639 1.13621,-0.17543 1.95063,-0.62695 3.63802,-2.01696 2.01674,-1.66132 2.18347,-1.88331 3.12862,-4.16568 0.8671,-2.09389 2.01895,-4.35921 2.82734,-5.56048 0.50776,-0.75452 0.9232,-1.47032 0.9232,-1.59066 0,-0.12033 0.27106,-0.43579 0.60235,-0.70101 0.97454,-0.78021 2.27189,-3.56128 2.00185,-4.29128 -0.6816,-1.84253 -2.18748,-2.93874 -4.03391,-2.93651 -1.35174,0.002 -3.3246,-0.61001 -6.31658,-1.95831 -0.84072,-0.37886 -1.64601,-0.68884 -1.78953,-0.68884 -0.14352,0 -0.46768,-0.11036 -0.72037,-0.24524 -0.25269,-0.13488 -1.2524,-0.59987 -2.22158,-1.0333 -0.96919,-0.43343 -2.15981,-1.16859 -2.64584,-1.63367 -0.48602,-0.46508 -1.41946,-1.15554 -2.0743,-1.53434 -1.229,-0.71093 -4.8268,-3.47024 -4.98299,-3.82168 -0.0485,-0.10914 -0.18903,-0.19843 -0.31227,-0.19843 -0.12324,0 -1.03605,-0.37676 -2.02847,-0.83724 -0.99242,-0.46048 -2.38421,-0.89371 -3.09287,-0.96275 -1.34281,-0.13081 -4.70227,0.35177 -5.55295,0.79767 -0.64705,0.33916 -1.13359,-0.11488 -0.59876,-0.55875 0.99555,-0.82624 3.22032,-1.34935 5.7387,-1.34935 1.39663,0 2.61636,0.077 2.71052,0.17119 0.0942,0.0942 0.79147,0.38117 1.54959,0.63782 1.37119,0.4642 1.38532,0.4633 2.70055,-0.17119 0.72718,-0.3508 1.47846,-0.63782 1.66951,-0.63782 0.19104,0 0.34735,-0.092 0.34735,-0.20442 0,-0.27605 1.45362,-0.97712 2.91042,-1.40368 0.65484,-0.19175 1.60734,-0.55715 2.11667,-0.81201 0.50932,-0.25485 1.2237,-0.58821 1.5875,-0.74079 0.69438,-0.29123 1.62752,-0.8384 1.85208,-1.08602 0.0728,-0.0802 0.72761,-0.35976 1.45521,-0.62117 1.65131,-0.59328 4.10533,-1.77498 4.56287,-2.19718 1.08879,-1.00469 2.67527,-2.19515 2.92539,-2.19515 0.50836,0 1.54115,-1.6679 2.03328,-3.28364 0.39126,-1.28458 0.44651,-2.08488 0.3094,-4.48133 -0.0918,-1.60461 -0.2875,-3.03805 -0.43487,-3.18542 -0.14737,-0.14737 -0.27183,-0.69061 -0.27658,-1.20721 -0.008,-0.89677 -0.7828,-3.53869 -1.14309,-3.89899 -0.27484,-0.27483 -0.19693,-1.40591 0.0968,-1.40591 0.14741,0 0.52008,0.56555 0.82815,1.25677 0.30808,0.69123 0.66372,1.46352 0.79031,1.7162 0.1266,0.25269 0.23018,0.76253 0.23018,1.13298 0,0.37045 0.1786,1.10098 0.39688,1.6234 0.21828,0.52242 0.39687,1.15887 0.39687,1.41432 0,0.58468 0.61866,1.12123 0.94557,0.82006 0.26276,-0.24208 2.38245,-0.93397 3.68464,-1.20271 1.40899,-0.29078 7.08581,-0.75895 9.12813,-0.7528 2.51647,0.008 7.09974,0.50988 7.50021,0.82198 0.16775,0.13073 1.16081,0.56 2.20679,0.95393 1.04599,0.39393 1.93896,0.79796 1.98438,0.89783 0.1217,0.26762 1.78832,1.10763 2.19759,1.10763 0.32513,0 2.7581,1.46428 3.49622,2.1042 0.17575,0.15237 0.40821,0.27705 0.51657,0.27705 0.10835,0 0.55986,0.34371 1.00335,0.76381 0.44349,0.4201 1.37245,1.0599 2.06437,1.42178 1.12618,0.58902 2.88107,1.87283 3.7937,2.77534 0.18394,0.1819 0.44379,0.33073 0.57744,0.33073 0.33898,0 1.38229,0.93462 1.38229,1.23829 0,0.13759 0.70065,0.9662 1.557,1.84134 0.85635,0.87515 1.76472,1.99876 2.01861,2.49692 0.25389,0.49816 0.86293,1.45748 1.35342,2.13182 0.4905,0.67434 0.89181,1.3 0.89181,1.39036 0,0.0904 0.29394,0.7736 0.6532,1.51831 0.42074,0.87216 0.79821,2.40181 1.06064,4.29818 0.22408,1.61929 0.52545,3.75004 0.66971,4.73501 0.31125,2.12521 0.31837,6.40617 0.0137,8.26331 -0.11935,0.72761 -0.13008,1.56105 -0.0239,1.85209 0.22787,0.62431 -0.0912,3.35974 -0.32406,2.77812 -0.0874,-0.21828 -0.35726,-1.64703 -0.59971,-3.175 -0.24245,-1.52797 -0.53133,-3.01625 -0.64194,-3.30729 -0.54627,-1.43729 -2.84325,-5.90507 -3.19666,-6.21771 -0.0822,-0.0728 -0.46879,-0.78713 -0.85899,-1.5875 -0.3902,-0.80036 -1.18242,-1.93146 -1.76049,-2.51354 -0.57807,-0.58208 -1.05688,-1.15837 -1.06402,-1.28064 -0.0292,-0.50041 -1.49821,-2.28034 -1.88631,-2.28558 -0.22997,-0.003 -0.94435,-0.49135 -1.5875,-1.08499 -1.30421,-1.20378 -3.7636,-2.88941 -4.21576,-2.88941 -0.16152,0 -0.91138,-0.28054 -1.66636,-0.62341 -2.81604,-1.27891 -4.72941,-2.02243 -5.20452,-2.02243 -0.26933,0 -0.53928,-0.14883 -0.5999,-0.33073 -0.0825,-0.2477 -1.26702,-0.33073 -4.7184,-0.33073 -4.93765,0 -4.71861,-0.0426 -9.1061,1.77094 -0.72761,0.30075 -2.0373,0.79067 -2.91042,1.08872 -0.87313,0.29806 -1.94469,0.68144 -2.38125,0.85196 -0.43656,0.17053 -1.21047,0.46776 -1.71979,0.66052 -0.50933,0.19275 -1.23096,0.55988 -1.60364,0.81584 -0.37268,0.25596 -1.02752,0.55258 -1.45521,0.65916 -0.42769,0.10657 -1.27677,0.47168 -1.88686,0.81134 -0.61009,0.33966 -1.34357,0.61757 -1.62996,0.61757 -0.28639,0 -1.93972,0.71327 -3.67408,1.58505 -1.73436,0.87178 -3.56072,1.65702 -4.05858,1.74498 -0.49787,0.088 -1.53355,0.44625 -2.30151,0.7962 -0.76796,0.34995 -1.5679,0.63627 -1.77763,0.63627 -0.64234,0 -0.16249,0.68185 0.80431,1.14288 0.50292,0.23983 0.91441,0.55704 0.91441,0.70492 0,0.14787 0.36456,0.26886 0.81013,0.26886 0.69497,0 2.70483,0.75327 4.27951,1.6039 0.25268,0.1365 0.60987,0.24868 0.79375,0.24929 0.18387,6.1e-4 0.91623,0.29634 1.62746,0.65717 0.71123,0.36084 1.8785,0.73372 2.59395,0.82862 1.52219,0.20193 2.74017,0.94871 3.58008,2.19505 0.4861,0.72133 0.57801,1.14886 0.48211,2.24266 -0.20188,2.30274 -0.6342,3.59228 -1.4731,4.39415 -0.37164,0.35522 -0.98843,1.536 -1.15463,2.2104 l -0.18611,0.7552 1.26874,-0.14354 c 0.6978,-0.0789 3.82858,-0.2812 6.95727,-0.44946 5.97751,-0.32147 28.33102,-0.21795 29.17032,0.13509 0.73766,0.31028 0.54155,0.62667 -0.52917,0.85376 -0.5457,0.11573 -9.17647,0.21042 -19.17948,0.21042 h -18.1873 l -0.27388,0.78569 c -0.5189,1.48863 -1.157,2.78619 -1.37015,2.78619 -0.11752,0 -0.21367,0.16867 -0.21367,0.37482 0,0.20616 -0.0931,0.41452 -0.20682,0.46302 -0.11376,0.0485 -0.54995,0.77281 -0.96931,1.60955 -0.41937,0.83675 -0.86705,1.52136 -0.99486,1.52136 -0.12781,0 -0.49371,0.24346 -0.81311,0.54102 -0.3194,0.29757 -0.87997,0.69805 -1.24571,0.88996 -0.36574,0.1919 -1.02217,0.54302 -1.45873,0.78025 -0.43656,0.23724 -1.12117,0.43207 -1.52135,0.43297 -0.40019,9e-4 -0.72761,0.0916 -0.72761,0.20163 0,0.76429 -4.49919,1.10495 -5.44634,0.41237 z m 2.00676,-1.47843 c 0,-0.7478 -0.15061,-0.76812 -0.97646,-0.13173 -0.44528,0.34311 -0.16751,0.8844 0.45384,0.8844 0.39796,0 0.52262,-0.17954 0.52262,-0.75267 z m -5.68854,-2.30894 c 0.0899,-0.14552 -0.0221,-0.26458 -0.24897,-0.26458 -0.22687,0 -0.41249,0.11906 -0.41249,0.26458 0,0.14552 0.11203,0.26458 0.24897,0.26458 0.13693,0 0.32255,-0.11906 0.41249,-0.26458 z m 68.57002,-15.94115 c -0.0734,-0.1819 -0.13346,-0.0331 -0.13346,0.33073 0,0.36381 0.0601,0.51263 0.13346,0.33073 0.0734,-0.1819 0.0734,-0.47956 0,-0.66146 z m -0.004,-1.93094 c -0.0907,-0.66184 -0.29216,-2.89426 -0.44766,-4.96094 -0.30694,-4.0793 -0.49088,-4.98787 -1.53744,-7.59405 -0.72639,-1.8089 -0.88814,-2.08092 -1.78469,-3.00149 -0.30553,-0.31371 -0.76162,-1.00852 -1.01353,-1.54402 -0.25191,-0.53549 -0.7163,-1.21907 -1.03199,-1.51907 -3.71186,-3.52737 -4.08358,-3.80863 -6.69245,-5.06383 -1.4941,-0.71886 -2.84202,-1.30701 -2.99539,-1.30701 -0.15336,0 -0.27884,-0.11906 -0.27884,-0.26458 0,-0.14552 -0.19789,-0.26459 -0.43976,-0.26459 -0.4498,0 -2.9741,-0.68972 -3.92586,-1.07268 -0.68059,-0.27384 -4.84598,-0.58994 -8.0698,-0.61238 -3.8459,-0.0268 -9.21945,0.75179 -9.90864,1.43565 -0.13825,0.13718 -0.51817,0.24941 -0.84428,0.24941 -0.32611,0 -0.66651,0.11907 -0.75645,0.26459 -0.0899,0.14552 -0.4314,0.26458 -0.7588,0.26458 -0.3274,0 -0.82639,0.17481 -1.10886,0.38846 -0.28247,0.21365 -0.78148,0.39225 -1.1089,0.39687 -0.32742,0.005 -0.59532,0.11423 -0.59532,0.24356 0,0.12932 -0.44648,0.31511 -0.99218,0.41286 -1.53048,0.27413 -2.68029,0.68334 -4.69636,1.67136 -1.01864,0.49921 -2.27487,0.93051 -2.79161,0.95843 -0.51674,0.0279 -1.29307,0.30251 -1.72518,0.6102 -0.43211,0.30769 -1.4083,0.76309 -2.16932,1.01201 -0.76102,0.24892 -1.38368,0.55793 -1.38368,0.6867 0,0.12877 -0.2311,0.23413 -0.51355,0.23413 -0.28245,0 -0.57899,0.10588 -0.65896,0.23528 -0.08,0.1294 -0.46669,0.31591 -0.85937,0.41446 -0.39268,0.0986 -1.03068,0.40472 -1.41778,0.68035 -0.38709,0.27564 -1.28732,0.68537 -2.00051,0.91053 -2.68624,0.84803 -3.18268,1.02548 -4.4717,1.59838 -0.72761,0.32338 -1.79917,0.76908 -2.38125,0.99045 -1.94359,0.73915 -2.38429,0.95544 -1.98353,0.97348 0.47303,0.0213 2.61165,1.50935 3.95336,2.75074 0.52589,0.48657 1.29022,0.96852 1.69853,1.071 0.4083,0.10247 1.01376,0.47916 1.34546,0.83708 0.78389,0.84582 1.34041,0.82053 3.14601,-0.143 0.8181,-0.43656 1.76355,-0.79375 2.101,-0.79375 0.33745,0 0.72665,-0.10798 0.8649,-0.23996 0.51453,-0.49123 6.11494,-3.16974 7.2535,-3.46915 0.64972,-0.17085 1.46945,-0.53729 1.82161,-0.81431 0.35217,-0.27701 0.77308,-0.50416 0.93536,-0.50477 0.16227,-6.1e-4 0.89036,-0.30638 1.61796,-0.67948 1.77909,-0.9123 4.36922,-1.96524 4.83428,-1.96524 0.37828,0 1.05342,-0.27521 3.76468,-1.53459 0.80037,-0.37177 1.69333,-0.76187 1.98438,-0.86689 0.29104,-0.10503 0.94588,-0.3518 1.4552,-0.54838 1.27489,-0.49208 12.51636,-0.51516 13.00449,-0.0267 0.18178,0.1819 0.53358,0.33073 0.78176,0.33073 0.24819,0 0.90898,0.22767 1.46844,0.50593 3.48277,1.73227 5.50711,2.66907 5.76758,2.66907 0.16431,0 0.71764,0.38696 1.22962,0.8599 1.19299,1.10202 3.07004,2.57969 3.27692,2.57969 0.19918,0 1.34312,1.132 1.48575,1.47024 0.32324,0.76653 1.47549,2.22784 1.75888,2.23065 0.1819,0.002 0.33073,0.12865 0.33073,0.28189 0,0.15324 0.29766,0.71666 0.66146,1.25205 0.3638,0.53538 0.66146,1.14647 0.66146,1.35797 0,0.2115 0.22445,0.63035 0.49879,0.93077 0.27434,0.30042 0.87781,1.26059 1.34105,2.13372 0.46324,0.87312 1.06352,1.94469 1.33395,2.38125 0.27044,0.43656 0.5004,1.00211 0.51104,1.25677 0.0106,0.25466 0.15458,0.46302 0.31988,0.46302 0.20446,0 0.24782,-0.38471 0.13561,-1.20334 z M 808.85168,785.34922 c 0.20789,-0.20789 0.37798,-0.4664 0.37798,-0.57448 0,-0.10808 0.19232,-0.40901 0.42738,-0.66875 0.38529,-0.42574 0.38715,-0.51248 0.0189,-0.88073 -0.22467,-0.22466 -0.51637,-0.40848 -0.64823,-0.40848 -0.27719,0 -1.65014,-1.48432 -1.65014,-1.78399 0,-0.11058 -0.56581,-0.69881 -1.25736,-1.30717 -0.69155,-0.60836 -1.61047,-1.69198 -2.04205,-2.40805 -0.78382,-1.3005 -0.78603,-1.30181 -1.98379,-1.17106 -0.6595,0.072 -1.43394,0.29256 -1.72098,0.49016 -0.28704,0.1976 -0.78603,0.35928 -1.10886,0.35928 -0.94696,0 -0.99039,0.50134 -0.11584,1.33711 0.44866,0.42875 0.88154,0.77955 0.96196,0.77955 0.16091,0 1.76871,1.43078 3.34484,2.97657 0.55642,0.5457 1.11119,0.99218 1.23283,0.99218 0.28795,0 2.75834,1.88559 3.03313,2.31511 0.27803,0.43459 0.66455,0.41843 1.13023,-0.0473 z m 4.08214,-3.77209 c 0.65485,-0.47861 1.53789,-1.22893 1.96233,-1.66736 0.42444,-0.43844 0.96613,-0.79716 1.20377,-0.79716 0.23764,0 1.1988,-0.7095 2.1359,-1.57668 0.9371,-0.86718 2.00275,-1.72827 2.3681,-1.91355 0.36535,-0.18527 1.15861,-0.76041 1.76279,-1.27808 0.60417,-0.51767 1.55667,-1.17462 2.11666,-1.45989 0.55999,-0.28527 1.07769,-0.57839 1.15045,-0.65139 0.24851,-0.2493 1.45432,-0.76591 1.98134,-0.84887 0.61812,-0.0973 0.82497,-0.84129 0.454,-1.63288 -0.33111,-0.70651 -0.95483,-2.56624 -1.40798,-4.19809 -0.29962,-1.079 -0.42475,-1.23259 -0.88655,-1.08824 -0.65655,0.20524 -2.71089,1.57469 -3.48731,2.32468 -0.31261,0.30197 -1.25593,0.90622 -2.09628,1.34278 -0.84035,0.43657 -1.65614,0.91282 -1.81287,1.05834 -0.37391,0.34716 -3.28516,2.27548 -4.08553,2.70612 -0.34405,0.18512 -0.87983,0.34037 -1.19062,0.345 -0.31079,0.005 -0.79619,0.18322 -1.07866,0.39688 -0.28248,0.21365 -0.76468,0.38846 -1.07156,0.38846 -0.30689,0 -0.67109,0.095 -0.80933,0.2112 -0.13825,0.11616 -0.9062,0.43145 -1.70656,0.70065 -0.80037,0.2692 -1.57427,0.56943 -1.71979,0.66718 -0.14553,0.0978 -0.7706,0.3373 -1.38907,0.53232 -0.61846,0.19503 -1.12448,0.41413 -1.12448,0.4869 0,0.0728 0.87428,1.03598 1.94284,2.14046 1.06856,1.10449 2.60784,2.70507 3.42063,3.55684 1.00564,1.05388 1.58952,1.48094 1.82748,1.33664 0.19232,-0.11662 0.88546,-0.60364 1.5403,-1.08226 z m 47.49271,-1.7189 c 0.43657,-0.26326 1.3593,-0.55405 2.05052,-0.64622 0.69123,-0.0922 1.25677,-0.27129 1.25677,-0.39807 0,-0.12677 0.2311,-0.23049 0.51356,-0.23049 0.28245,0 0.57879,-0.10557 0.65853,-0.23459 0.0797,-0.12903 0.56645,-0.31366 1.08157,-0.4103 0.51512,-0.0966 1.32011,-0.39625 1.78886,-0.66581 0.46875,-0.26956 1.26899,-0.57493 1.77832,-0.67859 0.50932,-0.10367 1.0451,-0.27884 1.19062,-0.38928 0.14552,-0.11043 0.6813,-0.27366 1.19063,-0.36273 0.50932,-0.0891 2.05713,-0.35765 3.43958,-0.59687 3.03046,-0.52437 8.88735,-0.78393 9.33927,-0.41388 0.17491,0.14322 1.15146,0.33542 2.17011,0.42711 3.26863,0.29421 6.66184,1.06419 7.67291,1.74112 0.37736,0.25264 2.51354,1.06832 2.51354,0.95976 0,-0.15122 -2.66399,-1.75719 -2.91485,-1.75719 -0.12862,0 -0.32906,-0.15598 -0.44544,-0.34661 -0.29244,-0.47907 -5.05929,-3.62214 -5.49341,-3.62214 -0.19379,0 -1.16826,-0.40203 -2.16547,-0.89341 -0.99721,-0.49137 -2.3489,-1.0989 -3.00374,-1.35007 -0.65485,-0.25118 -1.3797,-0.55248 -1.61079,-0.66958 -1.50031,-0.76021 -11.11664,-0.98509 -13.99963,-0.32738 -0.65484,0.14939 -2.14746,0.48324 -3.31693,0.74189 l -2.12631,0.47028 0.01,2.53549 c 0.007,1.82443 -0.11299,2.79518 -0.42766,3.46153 -0.24051,0.50932 -0.70521,1.50244 -1.03265,2.20692 -0.32814,0.70597 -0.87409,1.40788 -1.21635,1.56382 -0.34155,0.15562 -0.62099,0.37916 -0.62099,0.49675 0,0.26164 0.66257,0.0261 1.71979,-0.61146 z m -28.72014,-10.26732 c 0.93882,-0.3157 2.01038,-0.72733 2.38125,-0.91474 0.37087,-0.18742 1.12079,-0.42159 1.6665,-0.52039 1.00034,-0.18112 1.17549,-0.36943 0.77233,-0.83036 -0.12092,-0.13824 -0.43589,-0.99041 -0.69994,-1.89371 -0.45002,-1.53956 -0.51493,-1.62349 -1.03691,-1.34083 -0.30626,0.16584 -2.00977,0.36912 -3.78558,0.45174 l -3.22873,0.1502 0.36763,0.79375 c 0.67591,1.45932 1.19505,3.31642 1.19505,4.27498 0,0.72852 0.0769,0.88574 0.33073,0.67627 0.1819,-0.1501 1.09885,-0.53121 2.03767,-0.84691 z m -2.10382,-6.06548 c 0.65485,-0.15378 2.07321,-0.40004 3.15192,-0.54725 1.07871,-0.14722 2.00655,-0.31292 2.06186,-0.36823 0.0553,-0.0553 -0.0996,-0.5618 -0.34432,-1.12552 -0.24469,-0.56372 -0.54745,-1.29283 -0.6728,-1.62026 -0.56105,-1.46551 -0.91724,-1.97044 -2.08388,-2.95417 l -1.24463,-1.04949 -0.33022,1.10886 c -0.48223,1.61936 -1.1093,3.13302 -1.61028,3.88699 -0.24172,0.3638 -0.75943,1.24065 -1.15046,1.94854 l -0.71096,1.28708 0.87157,-0.14348 c 0.47937,-0.0789 1.40736,-0.2693 2.0622,-0.42307 z m -95.25,56.9294 c -3.53893,-0.0757 -4.23333,-0.19663 -4.23333,-0.73731 0,-0.21748 -0.11047,-0.60216 -0.24549,-0.85485 -0.37532,-0.70241 -1.07743,-3.13819 -1.07743,-3.73784 0,-0.29323 -0.13771,-0.83539 -0.30602,-1.2048 -0.21821,-0.47892 -0.22646,-0.84312 -0.0288,-1.26922 l 0.27728,-0.59757 0.2927,0.66146 c 0.16098,0.3638 0.40843,0.84005 0.54988,1.05833 0.14145,0.21828 0.68347,1.35592 1.20449,2.52809 l 0.9473,2.13121 3.82323,0.0377 3.82323,0.0377 v -2.21344 c 0,-2.40814 0.13919,-3.05043 0.66108,-3.05043 0.45668,0 0.59476,0.68298 0.812,4.01637 l 0.18415,2.82574 -0.89476,0.13653 c -1.66799,0.25451 -2.74029,0.29755 -5.78956,0.23233 z m 164.46018,-0.68014 c -0.41991,-0.30704 -0.46758,-0.57564 -0.31808,-1.79235 0.0967,-0.78715 0.24841,-2.29439 0.33709,-3.34941 0.0887,-1.05503 0.24083,-1.91823 0.33811,-1.91823 0.45076,0 0.81187,0.72384 0.81187,1.62739 0,0.54582 0.12893,1.59357 0.28651,2.32833 l 0.28651,1.33594 h 2.85744 2.85744 l 0.71434,-1.52135 c 0.39288,-0.83675 0.85315,-1.81901 1.02281,-2.18281 0.31997,-0.68609 0.68177,-1.04731 1.05597,-1.05429 0.38176,-0.007 -0.12322,2.85132 -0.85329,4.82997 l -0.70578,1.91286 -4.0985,0.0726 c -3.13722,0.0555 -4.21436,-0.0122 -4.59244,-0.28861 z m -130.99039,-5.91148 c -0.29104,-0.0587 -6.06557,-0.21691 -12.83229,-0.35161 -6.76672,-0.13469 -12.57101,-0.25137 -12.89843,-0.25928 -0.34435,-0.008 -0.59532,-0.18045 -0.59532,-0.4083 0,-0.21665 0.0298,-0.39663 0.0661,-0.39995 0.0364,-0.003 10.78177,-0.0804 23.87864,-0.17129 25.32746,-0.17575 72.59561,0.27179 77.37217,0.73257 3.30743,0.31906 3.89022,0.58222 1.73825,0.78491 -1.78854,0.16846 -75.90604,0.23892 -76.72917,0.0729 z m -40.63055,-4.04572 c -0.44323,-0.72035 -1.02687,-1.37986 -1.29698,-1.46559 -0.27011,-0.0857 -0.8054,-0.56792 -1.18952,-1.07154 -0.38413,-0.50361 -0.8571,-0.91566 -1.05104,-0.91566 -0.42465,0 -2.08467,-1.79175 -2.6211,-2.82909 -0.21162,-0.40922 -0.65248,-0.98188 -0.97969,-1.27258 -0.74963,-0.66597 -2.05534,-2.68471 -3.45333,-5.33915 -0.59647,-1.13256 -1.28809,-2.35897 -1.53693,-2.72534 -0.59065,-0.86964 -1.87768,-4.23543 -1.87601,-4.90602 10e-4,-0.45627 -0.44361,-2.00711 -1.06043,-3.69762 -0.35069,-0.96114 -0.84739,-3.14874 -1.11137,-4.89479 -0.39055,-2.58317 -0.55418,-10.26521 -0.24495,-11.49981 0.14712,-0.58734 0.4709,-1.99063 0.71952,-3.11842 0.24863,-1.12778 0.53981,-2.05052 0.64708,-2.05052 0.10727,0 0.25447,-0.32742 0.3271,-0.7276 0.43942,-2.42092 2.6325,-6.69471 4.35434,-8.48557 0.18489,-0.19229 0.33616,-0.51045 0.33616,-0.70701 0,-0.19656 0.82353,-1.20747 1.83007,-2.24647 1.00654,-1.039 1.89681,-2.063 1.97837,-2.27556 0.0816,-0.21255 0.35936,-0.46479 0.61733,-0.56053 0.25796,-0.0957 0.64761,-0.36123 0.86589,-0.58998 0.80801,-0.84676 3.59098,-2.99696 4.16017,-3.21425 0.32355,-0.12353 1.20012,-0.64546 1.94791,-1.15985 0.7478,-0.51439 1.52487,-0.93526 1.72682,-0.93526 0.20195,0 0.36763,-0.0893 0.36818,-0.19844 0.002,-0.34109 3.75652,-1.65364 4.73058,-1.65364 0.57034,0 2.7683,-0.60347 3.86738,-1.06182 0.29105,-0.12137 1.24355,-0.41916 2.11667,-0.66174 0.87313,-0.24259 1.86786,-0.55247 2.21052,-0.68863 1.05361,-0.41864 3.85596,-0.63111 3.6363,-0.27569 -0.10423,0.16864 -0.35487,0.30663 -0.55698,0.30663 -0.20212,0 -1.89173,0.50601 -3.7547,1.12447 l -3.38722,1.12448 1.85208,0.0634 c 4.8878,0.16736 12.77052,0.18172 12.67211,0.0231 -0.0608,-0.0979 -0.48529,-0.26041 -0.94341,-0.36103 -0.45811,-0.10062 -1.46306,-0.58603 -2.23321,-1.07869 -0.77015,-0.49266 -1.45056,-0.89574 -1.51202,-0.89574 -0.0615,0 -0.56235,-0.41274 -1.11309,-0.91719 -0.89944,-0.82386 -0.99952,-1.04598 -0.98352,-2.18282 0.015,-1.0673 0.13234,-1.34854 0.74864,-1.79479 1.68367,-1.21909 2.96979,-2.76054 3.89403,-4.66711 0.53891,-1.1117 0.97985,-2.10801 0.97985,-2.21403 0,-0.10601 0.35718,-0.59956 0.79375,-1.09678 0.43656,-0.49722 0.79375,-1.03034 0.79375,-1.18471 0,-0.65226 1.15709,-1.81946 2.435,-2.45627 1.70099,-0.84764 2.53665,-0.88016 2.82162,-0.10982 0.14079,0.38061 0.27708,0.46987 0.40396,0.26458 0.10531,-0.1704 0.53461,-0.30982 0.954,-0.30982 0.41939,0 0.82531,-0.10159 0.90205,-0.22576 0.0767,-0.12416 1.0141,-0.2919 2.08303,-0.37274 2.28487,-0.17281 3.44416,-0.61136 4.61928,-1.74748 1.18062,-1.14142 1.95949,-1.09195 2.56919,0.16317 0.26509,0.54571 0.53519,0.84336 0.60022,0.66146 0.27427,-0.76715 1.92623,0.0577 1.92623,0.96183 0,0.22604 0.23722,0.18473 0.77982,-0.13579 0.65107,-0.3846 0.89609,-0.40767 1.48411,-0.13976 0.51292,0.23371 0.66722,0.46264 0.56786,0.84257 -0.11198,0.42825 -0.003,0.52167 0.61092,0.52167 1.56909,0 1.58437,0.0346 1.58437,3.58996 v 3.26875 l 2.04782,3.28668 2.04781,3.28668 1.48112,-0.13431 c 1.38384,-0.12548 4.38454,0.41167 5.50865,0.9861 0.79276,0.4051 2.53589,0.77004 4.33027,0.90658 2.14504,0.16322 4.91325,0.65093 5.54897,0.97763 0.25269,0.12985 0.69917,0.2361 0.99219,0.2361 0.29302,0 0.53276,0.1389 0.53276,0.30868 0,0.16977 0.0697,0.23895 0.15495,0.15372 0.0852,-0.0852 -0.0388,-1.2921 -0.2755,-2.68195 -0.40016,-2.34912 -0.39943,-2.587 0.0104,-3.37956 0.67947,-1.31396 2.4615,-3.0801 3.76432,-3.73076 1.29162,-0.64506 3.02027,-2.47247 2.90259,-3.06842 -0.16344,-0.82776 -0.89555,-0.94618 -2.76289,-0.44692 -0.99524,0.2661 -2.48178,0.53664 -3.30342,0.60121 -1.27231,0.1 -1.5961,0.0285 -2.18282,-0.4816 -0.43764,-0.38053 -0.6889,-0.87109 -0.6889,-1.34503 0,-0.5652 -0.12602,-0.74604 -0.51986,-0.74604 -0.28592,0 -0.64395,-0.23187 -0.79562,-0.51527 -0.2229,-0.41648 -0.14629,-0.64474 0.39959,-1.19062 l 0.67536,-0.67536 h -0.91917 c -1.24981,0 -1.756,-0.55622 -1.56686,-1.72174 0.12744,-0.78529 0.0741,-0.92409 -0.35495,-0.92409 -1.64813,0 -2.18608,-1.8014 -1.00167,-3.35423 0.72246,-0.9472 0.92423,-2.2918 0.41962,-2.79641 -0.16785,-0.16786 -0.30702,-1.02552 -0.30924,-1.90592 -0.003,-1.06332 -0.0847,-1.4732 -0.24442,-1.22087 -0.34461,0.54459 -1.07445,-0.10671 -1.07445,-0.95882 0,-0.35555 -0.13416,-0.89715 -0.29814,-1.20354 -0.53123,-0.9926 -0.30013,-3.49418 0.45182,-4.89088 0.98154,-1.82314 2.15693,-2.77429 4.1145,-3.32955 0.92672,-0.26286 1.92307,-0.5829 2.21411,-0.7112 0.72547,-0.3198 2.04212,-0.49207 6.21771,-0.81351 3.57411,-0.27514 5.29167,-0.17944 5.29167,0.29483 0,0.13893 0.14883,0.2545 0.33073,0.25682 0.1819,0.002 0.71259,0.32975 1.17932,0.72761 0.46672,0.39786 1.30016,1.00099 1.85208,1.3403 0.96375,0.59249 2.55427,2.41379 3.23237,3.70137 0.60785,1.15421 1.07841,3.51125 1.07841,5.4018 v 1.88906 l 0.52917,-0.56799 c 0.29104,-0.3124 0.52917,-0.71218 0.52917,-0.88839 0,-0.17622 0.33429,-0.92534 0.74287,-1.66471 0.40857,-0.73937 0.90534,-1.8801 1.10391,-2.53494 0.19857,-0.65484 0.61084,-1.54781 0.91615,-1.98437 0.30531,-0.43657 0.72859,-1.15094 0.94061,-1.5875 0.21202,-0.43657 0.65609,-1.23787 0.98681,-1.78068 0.47453,-0.77885 0.60131,-1.37854 0.60131,-2.84427 0,-1.02154 0.0942,-1.85735 0.20929,-1.85735 0.33776,0 0.819,-6.06137 0.55447,-6.98374 -0.12902,-0.44988 -0.23459,-1.15157 -0.23459,-1.55931 0,-0.71302 0.0379,-0.7343 0.99219,-0.55714 0.5457,0.10131 1.23031,0.33855 1.52135,0.5272 0.46259,0.29986 0.60289,0.26004 1.11507,-0.31641 0.4776,-0.53752 0.51428,-0.68691 0.19844,-0.80811 -0.21311,-0.0818 -0.38747,-0.4336 -0.38747,-0.78184 0,-0.60352 0.0813,-0.63315 1.73719,-0.63315 1.86513,0 2.37951,0.18433 3.81906,1.36858 1.65629,1.36253 1.85209,1.62273 1.85209,2.46126 0,0.45476 0.14883,0.97534 0.33073,1.15684 0.226,0.22551 0.38684,1.85507 0.50792,5.14615 0.0975,2.64887 0.26018,5.3367 0.36161,5.97295 0.25699,1.61214 -0.39029,1.35987 -0.98061,-0.38219 -0.33349,-0.98414 -0.44701,-2.31806 -0.46302,-5.44074 -0.016,-3.1221 -0.11817,-4.32285 -0.41646,-4.89479 -0.21739,-0.41682 -0.39598,-1.04032 -0.39688,-1.38556 -10e-4,-0.5279 -0.0647,-0.57534 -0.3985,-0.29833 -0.21828,0.18116 -0.39688,0.49339 -0.39688,0.69386 0,0.50336 -0.77375,0.45987 -0.97116,-0.0546 -0.11804,-0.30759 -0.21352,-0.33376 -0.35899,-0.0984 -0.35551,0.57522 -0.84666,-0.0295 -0.67965,-0.83679 0.0867,-0.41933 0.23077,-1.11961 0.32004,-1.55617 0.10305,-0.5039 0.0547,-0.79375 -0.13229,-0.79375 -0.16204,0 -0.29461,0.33337 -0.29461,0.74083 0,0.40746 -0.10898,0.85394 -0.24218,0.99219 -0.1332,0.13824 -0.28203,0.54901 -0.33073,0.91281 -0.0498,0.37222 -0.26209,0.66146 -0.48543,0.66146 -0.2995,0 -0.39276,-0.30879 -0.38013,-1.25859 0.01,-0.72202 -0.0733,-1.11682 -0.19439,-0.92605 -0.11612,0.18291 -0.21295,0.71951 -0.21517,1.19245 -0.004,0.92963 -0.58732,1.18903 -1.00297,0.4463 -0.39553,-0.70677 -0.96554,2.22405 -0.61123,3.1428 0.15797,0.40966 0.28723,2.03223 0.28723,3.60571 0,2.9375 -0.27719,4.09743 -1.33506,5.58672 -0.65548,0.92281 -2.10453,3.74014 -2.10453,4.09176 0,0.44074 -0.63731,1.70931 -0.85989,1.71163 -0.10914,10e-4 -0.19844,0.15211 -0.19844,0.33549 0,0.18339 -0.26789,0.63668 -0.59531,1.00731 -0.32742,0.37064 -0.81884,1.0838 -1.09204,1.5848 -1.1941,2.18979 -1.61422,2.83929 -2.64288,4.08592 -0.60038,0.7276 -1.21794,1.44198 -1.37235,1.5875 -0.15441,0.14552 -0.62507,0.74083 -1.04591,1.32292 -0.42085,0.58208 -1.22532,1.49811 -1.78773,2.03562 -0.5624,0.53751 -1.4886,1.69837 -2.05823,2.57969 -0.56962,0.88132 -1.1527,1.60239 -1.29572,1.60239 -0.34314,0 -1.25086,0.96495 -1.99115,2.11667 -0.32738,0.50932 -1.20731,1.34276 -1.9554,1.85208 -0.7481,0.50933 -1.3604,1.01507 -1.36068,1.12387 -0.002,0.68342 -2.72896,2.84488 -3.58949,2.84488 -0.19441,0 -0.4487,0.16814 -0.56507,0.37363 -0.11637,0.20549 -0.6487,0.84503 -1.18295,1.42119 -0.53426,0.57615 -1.11139,1.51487 -1.28251,2.08604 -0.27024,0.90195 -0.2436,1.15873 0.20259,1.95313 0.28255,0.50306 0.64703,1.50957 0.80996,2.23669 0.9281,4.14189 1.11036,5.10601 1.10973,5.87048 -3.8e-4,0.46436 0.0958,0.90389 0.21365,0.97675 0.11789,0.0729 0.24392,0.70391 0.28008,1.40234 0.0666,1.28617 0.32834,2.31703 1.50142,5.9127 0.3575,1.09578 0.64999,2.23282 0.64999,2.52677 0,0.29395 0.11084,0.64756 0.24631,0.78581 0.38393,0.39179 1.40063,4.38562 1.36055,5.34458 -0.0422,1.00916 0.30186,1.08929 1.13593,0.26458 0.33114,-0.32742 1.06987,-0.97505 1.64162,-1.43918 0.57175,-0.46412 1.45071,-1.1785 1.95325,-1.5875 0.50254,-0.40899 1.33108,-1.19011 1.8412,-1.73582 0.51012,-0.5457 1.02669,-0.99218 1.14794,-0.99218 0.12125,0 0.72421,-0.37976 1.33992,-0.8439 l 1.11948,-0.84389 -0.0896,-3.58788 -0.0896,-3.58788 -0.98929,-1.4552 c -1.00373,-1.47644 -2.4156,-4.20784 -2.4156,-4.67321 0,-0.24283 -0.91688,-2.11403 -1.72913,-3.52888 -0.50578,-0.88102 -0.49745,-1.85208 0.0159,-1.85208 0.22188,0 0.5438,0.32742 0.71536,0.7276 l 0.31194,0.72761 0.0909,-0.92604 c 0.13636,-1.38975 0.74204,-2.41089 2.04017,-3.43959 1.04589,-0.82882 1.17027,-1.04447 1.18466,-2.05411 0.009,-0.62044 0.11499,-1.33481 0.23589,-1.5875 0.1209,-0.25269 0.41856,-0.85603 0.66146,-1.34077 0.2429,-0.48473 0.44164,-1.0097 0.44164,-1.16658 0,-0.38507 2.02531,-3.0771 2.95576,-3.92881 0.41163,-0.37678 0.75137,-0.7935 0.755,-0.92604 0.004,-0.13254 0.78114,-1.00907 1.72781,-1.94785 1.20595,-1.19589 1.85744,-2.09273 2.17623,-2.99579 0.25025,-0.7089 0.63661,-1.48862 0.85859,-1.73271 0.61453,-0.67574 2.53799,-3.80602 2.74974,-4.475 0.27905,-0.88155 1.92385,-2.42262 3.4837,-3.264 0.42421,-0.22882 1.00942,-0.54402 1.30047,-0.70044 0.29104,-0.15643 1.01653,-0.4849 1.61221,-0.72995 1.11959,-0.46056 1.95966,-1.74875 1.95966,-3.00498 0,-0.91288 0.48837,-0.66222 0.67787,0.34793 0.13487,0.71893 0.0236,1.17485 -0.50815,2.08223 -0.6553,1.11818 -1.1049,1.43313 -3.38673,2.37245 -1.08992,0.44867 -4.45591,3.69301 -4.45591,4.29488 0,0.21522 -0.10206,0.59805 -0.2268,0.85074 -0.80562,1.63193 -1.25834,2.40058 -1.80194,3.05941 -0.81225,0.98445 -0.78102,1.1608 0.24281,1.37083 0.47294,0.097 1.33614,0.39644 1.91823,0.66538 0.58208,0.26893 1.53458,0.56476 2.11666,0.6574 0.58209,0.0926 1.29646,0.26693 1.5875,0.38729 0.29104,0.12036 0.90984,0.36176 1.3751,0.53644 0.46527,0.17468 1.50158,0.93084 2.30291,1.68035 0.80134,0.74951 1.81965,1.6604 2.26291,2.0242 0.44326,0.3638 1.04942,1.13771 1.34703,1.71979 0.29761,0.58209 0.79566,1.38381 1.10678,1.78161 0.31112,0.3978 0.50139,0.78756 0.42282,0.86612 -0.30642,0.30642 -0.94094,-0.25554 -2.43436,-2.15599 -0.85487,-1.08787 -1.86691,-2.17719 -2.24896,-2.42072 -0.38205,-0.24353 -0.9923,-0.75278 -1.3561,-1.13168 -0.64922,-0.67615 -1.32415,-1.03367 -3.70417,-1.96216 -3.55356,-1.38631 -5.23366,-1.85756 -6.25517,-1.75452 -0.16613,0.0168 -0.37141,0.29836 -0.45618,0.62578 -0.19821,0.76552 -1.19092,1.98746 -2.85976,3.5201 -0.48396,0.44447 -1.19098,1.21838 -1.57116,1.7198 -0.38018,0.50141 -1.08235,1.32838 -1.56038,1.8377 -0.96056,1.02344 -1.45368,2.04915 -2.03522,4.23334 -0.39295,1.47587 -0.21619,3.61289 0.49719,6.01098 0.15687,0.52736 0.1597,1.01892 0.007,1.29102 -0.20863,0.3728 -0.31234,0.30623 -0.68421,-0.43919 -0.24107,-0.48323 -0.51124,-1.33472 -0.60038,-1.89219 -0.0892,-0.55748 -0.26551,-1.07752 -0.39191,-1.15564 -0.12641,-0.0781 -0.23789,-0.40291 -0.24774,-0.72174 l -0.0179,-0.5797 -0.28451,0.58949 c -0.15648,0.32422 -0.4928,0.6556 -0.74739,0.7364 -0.83692,0.26563 -1.57326,3.41567 -1.08865,4.65724 0.80232,2.05559 1.20402,2.88041 1.4028,2.88041 0.12342,0 0.2244,0.12157 0.2244,0.27015 0,0.14858 0.38695,1.06609 0.8599,2.03891 l 0.85989,1.76876 0.18226,-2.36964 c 0.24883,-3.23531 0.48653,-4.61859 0.79363,-4.61859 0.33344,0 0.0382,8.49416 -0.44839,12.90036 -0.29336,2.65638 -0.4692,3.38367 -0.97199,4.02026 -0.33761,0.42745 -0.75652,0.78377 -0.9309,0.79182 -0.17438,0.008 -1.19065,0.87784 -2.25838,1.93287 -1.06773,1.05502 -2.18724,2.09682 -2.4878,2.3151 -0.30055,0.21828 -1.3266,1.09454 -2.28011,1.94723 -1.88666,1.6872 -4.63096,3.60684 -5.15821,3.60818 -0.1819,4.6e-4 -0.33073,0.10059 -0.33073,0.22249 0,0.32463 -2.61655,1.55149 -3.77032,1.76785 -1.45317,0.27251 -1.2248,-0.19599 0.52917,-1.08559 0.83675,-0.42439 2.40767,-1.33716 3.49095,-2.02839 1.08327,-0.69122 2.11233,-1.25677 2.2868,-1.25677 0.35727,0 0.6384,-0.58897 0.6384,-1.33748 0,-0.43367 -0.60111,-1.9782 -1.35732,-3.48757 -0.1266,-0.25269 -0.23018,-0.73489 -0.23018,-1.07157 0,-0.33667 -0.10186,-0.72524 -0.22634,-0.86348 -0.28093,-0.31197 -1.09658,-2.84833 -1.09658,-3.40992 0,-0.57844 -0.15234,-0.52517 -1.10681,0.38696 -0.46057,0.44015 -1.1441,0.87328 -1.51894,0.96252 -0.37485,0.0892 -0.8006,0.25115 -0.94612,0.35981 -0.50372,0.37609 -2.03799,0.57528 -3.14849,0.40875 -0.72731,-0.10907 -1.57023,-0.52856 -2.42299,-1.20583 -0.71923,-0.57122 -1.60768,-1.26807 -1.97434,-1.54857 -0.87267,-0.66759 -1.43299,-1.74078 -1.21097,-2.31936 0.14972,-0.39015 0.37118,-0.27027 1.43331,0.7759 0.69093,0.68054 1.34939,1.23734 1.46324,1.23734 0.11385,0 0.62959,0.32233 1.14609,0.71628 0.82394,0.62845 1.16898,0.71417 2.81407,0.69911 1.15639,-0.0106 1.91359,-0.133 1.97572,-0.3194 0.0554,-0.16623 0.27416,-0.30224 0.48611,-0.30224 0.21195,0 0.85373,-0.23894 1.42618,-0.53098 0.96276,-0.49117 1.02863,-0.59534 0.87824,-1.38906 -0.0894,-0.47195 -0.26488,-1.05862 -0.3899,-1.30371 -0.12502,-0.24509 -0.22914,-0.89994 -0.23137,-1.45521 -0.002,-0.55527 -0.0915,-0.87379 -0.19844,-0.70782 -0.26415,0.41006 -2.17536,0.60837 -8.26417,0.85749 -2.83766,0.1161 -5.32309,0.25995 -5.52318,0.31967 -0.20009,0.0597 -0.40828,-0.0105 -0.46264,-0.156 -0.0544,-0.14552 0.52607,-0.54826 1.28984,-0.89498 1.28572,-0.58365 1.80755,-0.64023 7.0381,-0.76313 l 5.64941,-0.13275 -0.18606,-1.73739 c -0.10233,-0.95556 -0.29308,-2.01889 -0.42389,-2.36294 -0.13081,-0.34406 -0.23783,-0.96525 -0.23783,-1.38044 0,-1.7339 -0.36024,-1.94531 -4.35389,-2.55521 -1.46166,-0.22322 -3.19335,-0.5101 -3.8482,-0.6375 -0.65484,-0.12741 -2.02406,-0.35828 -3.0427,-0.51305 -1.01865,-0.15478 -2.09021,-0.38421 -2.38125,-0.50986 -0.97597,-0.42134 -2.69951,-0.81588 -3.56415,-0.81588 -0.85183,0 -3.19896,1.0221 -3.99731,1.74069 -0.22974,0.20679 -0.49763,0.37598 -0.59532,0.37598 -0.43384,0 -0.0976,-0.58638 0.86855,-1.51476 l 1.04616,-1.00524 -0.52709,-0.65823 c -0.2899,-0.36203 -1.29319,-1.84599 -2.22953,-3.29769 -1.91103,-2.96284 -2.19989,-4.02535 -1.80773,-6.64936 0.31516,-2.10884 0.0953,-2.74972 -0.9434,-2.74972 -0.83357,0 -1.31227,-0.39266 -0.7534,-0.61797 0.18281,-0.0737 0.0347,-0.13962 -0.32908,-0.14648 -0.3638,-0.007 -0.89257,0.16233 -1.17505,0.37599 -0.73819,0.55834 -0.88922,0.49686 -1.32161,-0.53799 -0.36789,-0.8805 -0.4223,-0.91039 -1.09721,-0.60289 -0.65739,0.29953 -0.76582,0.25683 -1.46025,-0.57498 l -0.75013,-0.89854 -0.54436,0.69204 c -0.2994,0.38062 -0.77226,0.76437 -1.05081,0.85278 -0.33192,0.10535 -0.5347,0.45192 -0.58841,1.00566 -0.1073,1.10618 -1.008,1.3839 -1.008,0.3108 0,-0.63897 -0.0724,-0.69259 -0.7276,-0.53912 -0.40019,0.0937 -1.04478,0.51376 -1.43243,0.93341 -0.73524,0.79591 -1.01497,0.78703 -1.01497,-0.0322 0,-0.39841 -0.20087,-0.48035 -1.12448,-0.45869 -3.51438,0.0824 -2.74199,0.87098 1.78594,1.8233 5.36276,1.12791 6.20577,1.71154 6.21381,4.30189 0.002,0.69122 0.10362,1.25677 0.22551,1.25677 0.12188,0 0.4493,0.67618 0.7276,1.50263 0.38196,1.13427 0.74424,1.66937 1.47789,2.18281 0.53454,0.3741 1.10084,0.91831 1.25843,1.20935 0.1576,0.29104 0.57829,1.00542 0.93486,1.5875 0.35658,0.58208 0.65349,1.30241 0.6598,1.60073 0.006,0.29832 0.13614,0.66706 0.28851,0.81943 0.15236,0.15237 0.32187,1.33704 0.37668,2.6326 0.0548,1.29557 0.18316,2.74253 0.28521,3.21547 0.2497,1.15718 -0.38098,1.16338 -1.06204,0.0104 -0.48132,-0.81481 -1.99355,-2.45857 -1.99355,-2.16694 0,0.33891 0.67347,1.37259 1.48738,2.2829 0.85819,0.95984 1.68762,2.56228 1.68762,3.26045 0,0.19012 -0.1686,0.51426 -0.37466,0.72032 -0.32315,0.32315 -0.23222,0.52587 0.66146,1.47464 0.56986,0.605 1.03611,1.19314 1.03611,1.30699 0,0.11385 0.38696,0.43303 0.8599,0.70929 1.29659,0.75738 2.57967,1.82508 2.57968,2.14664 0,0.15723 0.56555,0.69057 1.25678,1.18519 1.73775,1.2435 2.71198,2.13475 2.71198,2.48101 0,0.54107 3.33554,3.58855 3.92775,3.58855 0.31359,0 0.57016,0.11906 0.57016,0.26458 0,0.14552 0.40759,0.26459 0.90574,0.26459 0.56328,0 1.18853,0.23566 1.65365,0.62327 0.41135,0.34279 1.18586,0.70378 1.72114,0.80218 0.98875,0.18176 1.55901,0.63818 3.61968,2.89703 1.92586,2.11108 0.59294,2.03601 -1.4849,-0.0836 -1.24498,-1.27003 -2.40761,-1.92208 -4.9601,-2.78184 -0.7276,-0.24508 -1.53127,-0.55511 -1.78594,-0.68896 -0.28868,-0.15174 -0.46302,-0.14758 -0.46302,0.011 0,0.13993 0.42309,0.45518 0.94021,0.70057 0.51711,0.24538 0.88564,0.58834 0.81895,0.76212 -0.0681,0.17744 0.2801,0.4611 0.79417,0.64699 0.50348,0.18206 0.86785,0.46977 0.8097,0.63935 -0.12967,0.3782 -1.61421,0.27862 -3.69566,-0.24788 -1.20859,-0.30571 -2.00109,-0.33081 -3.83646,-0.12152 -1.27226,0.14508 -2.64062,0.34103 -3.0408,0.43545 -0.96099,0.22675 -0.94088,-0.23128 0.0408,-0.93032 0.48028,-0.34199 1.18049,-0.54719 1.86721,-0.54719 0.60432,0 1.64429,-0.13736 2.31105,-0.30525 0.91587,-0.23062 1.33179,-0.23062 1.70107,0 0.26884,0.16789 0.7583,0.29771 1.0877,0.28848 l 0.5989,-0.0168 -0.59531,-0.23929 c -0.38276,-0.15384 -0.59532,-0.46333 -0.59532,-0.86677 0,-0.58326 -1.77646,-2.5622 -2.30357,-2.56613 -0.11548,-8.6e-4 -1.08148,-0.89383 -2.14666,-1.98437 -1.06518,-1.09055 -2.03171,-1.98281 -2.14785,-1.98281 -0.24706,0 -4.5124,-4.21089 -4.51864,-4.46096 -0.002,-0.0931 -0.36819,-0.58227 -0.81302,-1.08707 -0.44483,-0.5048 -0.88942,-1.05353 -0.98796,-1.21939 -0.28637,-0.48202 -2.57705,-0.62489 -3.37568,-0.21056 -0.38524,0.19987 -0.93647,0.36339 -1.22496,0.36339 -0.4097,0 -0.2438,0.25834 0.75785,1.18012 0.7053,0.64907 1.38896,1.18485 1.51924,1.19063 0.13028,0.006 1.00698,0.78441 1.94822,1.73029 0.94125,0.94589 1.79722,1.7198 1.90217,1.7198 0.23195,0 7.25357,7.06056 7.37802,7.41893 0.26334,0.75836 -0.92263,0.0366 -2.51726,-1.53196 -0.99859,-0.98226 -2.37392,-2.24292 -3.05629,-2.80145 -0.68237,-0.55853 -1.30421,-1.2157 -1.38186,-1.46036 -0.0777,-0.24467 -0.54204,-0.66072 -1.03196,-0.92456 -0.83724,-0.45088 -2.22975,-1.71547 -3.27911,-2.97786 -0.25486,-0.30661 -0.70783,-0.63461 -1.0066,-0.7289 -0.29877,-0.0943 -0.91432,-0.5578 -1.36789,-1.03003 -0.45357,-0.47224 -1.05444,-1.09673 -1.33525,-1.38777 -0.87539,-0.90726 -1.63944,-1.45521 -2.02913,-1.45521 -0.20606,0 -0.59165,-0.27338 -0.85687,-0.60752 -0.46322,-0.58357 -2.84643,-2.39302 -3.93,-2.98384 -3.982,-2.17122 -4.77921,-2.45606 -9.25223,-3.30577 -2.01882,-0.3835 -3.80581,-0.50041 -7.54062,-0.49332 -4.70538,0.009 -5.58411,0.0718 -10.58334,0.75671 -2.21802,0.3039 -5.29166,1.27288 -5.29166,1.66822 0,0.11166 -0.12701,0.20302 -0.28224,0.20302 -0.15523,0 -0.67249,0.29765 -1.14945,0.66146 -0.47697,0.3638 -1.04801,0.66146 -1.26897,0.66146 -0.22097,0 -1.1027,0.66146 -1.9594,1.46991 -0.85671,0.80845 -2.00414,1.70384 -2.54984,1.98975 -0.5457,0.28591 -0.99219,0.62501 -0.99219,0.75354 0,0.30377 -1.45022,1.99297 -2.71198,3.15887 -0.5457,0.50425 -0.99218,1.08007 -0.99218,1.2796 0,0.44775 -0.72592,1.59655 -1.52079,2.40671 -0.32774,0.33403 -0.59588,0.7706 -0.59588,0.97014 0,0.19954 -0.0893,0.40248 -0.19844,0.45099 -0.31151,0.13845 -1.65364,2.95397 -1.65364,3.46902 0,0.25455 -0.10425,0.66956 -0.23166,0.92224 -0.12741,0.25269 -0.43337,1.17381 -0.67989,2.04693 -0.24653,0.87313 -0.56117,1.95913 -0.6992,2.41335 -0.56225,1.85018 -0.81405,6.76459 -0.51939,10.13689 0.15978,1.82862 0.40313,3.74148 0.54077,4.25081 0.65234,2.41396 1.39642,5.50173 1.49831,6.2177 0.17254,1.21247 0.96796,3.57188 1.20418,3.57188 0.11539,0 0.20979,0.17229 0.20979,0.38287 0,0.21059 0.3136,0.95473 0.69688,1.65365 1.24102,2.26301 1.94896,3.77331 1.94896,4.15784 0,0.20687 0.0992,0.41581 0.22037,0.46432 0.1212,0.0485 0.6606,0.74304 1.19866,1.5434 2.71451,4.03785 4.12872,5.78265 5.11148,6.30634 0.31757,0.16923 0.65302,0.54594 0.74544,0.83713 0.0924,0.2912 0.27704,0.52945 0.41027,0.52945 0.13323,0 0.006,-0.42034 -0.28241,-0.93409 -0.28856,-0.51375 -0.52465,-1.09545 -0.52465,-1.29267 0,-0.19722 -0.17786,-0.69962 -0.39524,-1.11643 -0.21739,-0.41682 -0.39598,-0.96621 -0.39688,-1.22087 -8.9e-4,-0.25466 -0.0996,-0.46302 -0.21946,-0.46302 -0.1198,0 -0.55632,-1.0418 -0.97003,-2.31511 -0.41371,-1.27331 -0.85147,-2.42821 -0.9728,-2.56646 -0.12132,-0.13824 -0.22059,-0.53302 -0.22059,-0.87729 0,-0.34426 -0.1189,-0.8481 -0.26422,-1.11964 -0.14532,-0.27153 -0.37758,-1.36503 -0.51612,-2.43 -0.13855,-1.06496 -0.37889,-2.53161 -0.53408,-3.25921 -0.1552,-0.72761 -0.40934,-2.21589 -0.56477,-3.30729 -0.15543,-1.09141 -0.39855,-2.4011 -0.54028,-2.91042 -0.32856,-1.18079 -0.13656,-10.70109 0.25998,-12.89144 0.16397,-0.90565 0.52684,-2.15581 0.8064,-2.77812 0.27955,-0.62232 0.5683,-1.5482 0.64167,-2.05752 0.11702,-0.81238 1.5201,-3.52082 2.29006,-4.42061 0.15039,-0.17576 0.27345,-0.44738 0.27345,-0.60361 0,-0.15623 0.16243,-0.34639 0.36096,-0.42257 0.19852,-0.0762 0.67461,-0.75844 1.05796,-1.51612 0.38335,-0.75769 1.02295,-1.61436 1.42132,-1.90371 0.39837,-0.28935 1.3808,-1.1505 2.18318,-1.91367 0.80238,-0.76316 1.6077,-1.38824 1.7896,-1.38906 0.1819,-8.2e-4 0.33073,-0.11109 0.33073,-0.24505 0,-0.13396 0.3852,-0.32817 0.85601,-0.43157 0.47081,-0.10341 1.09589,-0.34275 1.38906,-0.53188 1.01153,-0.65253 4.24432,-1.75311 6.61847,-2.2532 3.37161,-0.7102 10.62568,-0.71648 13.3941,-0.0116 2.64516,0.6735 6.31736,2.11396 6.31736,2.47807 0,0.10999 0.24989,0.19999 0.55532,0.19999 0.73218,0 2.27337,0.74328 3.06779,1.47953 0.34939,0.32379 1.01657,0.78351 1.48263,1.0216 1.1381,0.58138 3.46176,2.10759 4.04197,2.65482 0.15629,0.1474 0.66122,0.56567 1.12208,0.92947 0.46085,0.3638 0.83899,0.78122 0.84031,0.9276 0.001,0.14638 0.32982,0.41449 0.73,0.5958 0.99807,0.4522 2.24903,1.61163 2.85249,2.64379 0.27651,0.47294 0.63781,0.85989 0.80289,0.85989 0.46907,0 3.02535,2.71588 3.02535,3.21423 0,0.24521 0.14883,0.49899 0.33073,0.56396 0.1819,0.065 0.23173,0.2235 0.11073,0.35229 -0.12355,0.13151 -0.45261,-0.0851 -0.75052,-0.4941 -0.29179,-0.40056 -1.06775,-1.23378 -1.72437,-1.8516 -0.65662,-0.61783 -2.02465,-1.92699 -3.04006,-2.90926 -1.01542,-0.98226 -2.01942,-1.78593 -2.23112,-1.78593 -0.2117,0 -0.45503,-0.18273 -0.54074,-0.40607 -0.0857,-0.22334 -0.68317,-0.7689 -1.32771,-1.21235 -0.64454,-0.44346 -1.52729,-1.1537 -1.96167,-1.57831 -0.43437,-0.42461 -0.93449,-0.78073 -1.11137,-0.79136 -0.17689,-0.0106 -0.6788,-0.24745 -1.11536,-0.52626 -0.43656,-0.2788 -0.97234,-0.58883 -1.19062,-0.68896 -0.21828,-0.10013 -0.45641,-0.26224 -0.52917,-0.36024 -0.27742,-0.37365 -2.41904,-1.59831 -3.50064,-2.00179 -0.62126,-0.23176 -1.36769,-0.51735 -1.65874,-0.63465 -0.29104,-0.1173 -0.94588,-0.36222 -1.4552,-0.54425 -0.50933,-0.18204 -1.28323,-0.47526 -1.7198,-0.65161 -3.7099,-1.49862 -13.97659,-1.12561 -18.25625,0.66328 -1.02801,0.42971 -1.64205,0.66669 -2.77812,1.0722 -0.50932,0.1818 -1.49122,0.68224 -2.18199,1.11209 -1.61918,1.00758 -5.39495,4.65167 -5.61818,5.42223 -0.0946,0.32656 -0.3167,0.74328 -0.49356,0.92604 -0.45609,0.47132 -2.37212,3.59582 -2.88089,4.69792 -0.23513,0.50933 -0.56605,1.52136 -0.7354,2.24896 -0.16934,0.7276 -0.37918,1.50151 -0.46632,1.71979 -0.79707,1.99666 -1.03199,9.54281 -0.44479,14.2875 1.06084,8.57173 1.37475,10.50928 1.73913,10.73448 0.12875,0.0796 0.23408,0.36735 0.23408,0.63951 0,0.57863 1.71208,5.84058 2.22942,6.85197 0.19461,0.38047 0.44197,1.22753 0.54968,1.88238 0.10772,0.65484 0.41945,1.50666 0.69275,1.89292 0.2733,0.38627 0.4969,0.78499 0.4969,0.88606 0,0.31024 0.8626,2.09217 1.21657,2.51317 0.18376,0.21854 0.4585,0.72456 0.61055,1.12448 0.45582,1.19888 -0.16667,0.85363 -1.05038,-0.58259 z m 45.71066,-61.17596 c 0.18912,-0.15696 0.34385,-0.73684 0.34385,-1.28862 0,-0.91937 -0.11093,-1.0715 -1.32689,-1.81969 -0.72979,-0.44904 -1.49667,-0.81644 -1.70418,-0.81644 -0.2075,0 -0.45087,-0.11906 -0.5408,-0.26458 -0.0899,-0.14553 -0.72204,-0.25981 -1.40468,-0.25396 l -1.24116,0.0106 1.41074,0.60889 c 2.40824,1.03941 3.42639,2.65974 2.38455,3.7949 l -0.62029,0.67585 1.1775,-0.1808 c 0.64763,-0.0994 1.33224,-0.30922 1.52136,-0.46617 z m 2.7251,-0.0331 c 0,-0.48572 -1.09191,-2.56876 -1.34652,-2.56876 -0.32822,0 -0.31014,0.14331 0.21833,1.73077 0.29401,0.88316 0.57967,1.33351 0.79375,1.25136 0.18394,-0.0706 0.33444,-0.2566 0.33444,-0.41337 z m -7.31265,-0.31981 c 0.089,-0.232 0.48549,-0.39687 0.95435,-0.39687 0.44113,0 0.80205,-0.12325 0.80205,-0.27389 0,-0.55727 -0.87026,-1.57819 -1.3453,-1.57819 -0.50007,0 -2.17025,-0.83864 -2.88803,-1.45016 -0.67838,-0.57795 -2.06299,-1.19568 -2.68006,-1.19568 -0.32431,0 -0.9553,-0.10976 -1.4022,-0.24392 -2.69243,-0.80827 -3.91912,-1.10331 -4.04865,-0.97378 -0.0808,0.0808 0.0785,0.22179 0.35398,0.31331 1.20554,0.4005 3.47992,1.53356 4.25355,2.11905 0.46323,0.35058 1.02878,0.63743 1.25677,0.63743 0.22799,0 0.41453,0.11906 0.41453,0.26458 0,0.14552 0.15688,0.26458 0.34862,0.26458 0.19175,0 1.05227,0.65485 1.91227,1.45521 0.86,0.80036 1.64287,1.45521 1.73973,1.45521 0.0969,0 0.24463,-0.1786 0.32839,-0.39688 z m 4.2155,-4.59307 c -0.89733,-0.89732 -2.22223,-1.62463 -2.95951,-1.62463 -0.28968,0 -0.59051,-0.10327 -0.66852,-0.22949 -0.078,-0.12622 -0.71011,-0.30606 -1.40468,-0.39964 -0.69456,-0.0936 -1.50097,-0.22225 -1.79201,-0.28592 -0.29104,-0.0637 -1.06495,-0.19062 -1.71979,-0.28211 -0.65485,-0.0915 -1.42875,-0.26845 -1.7198,-0.39326 -0.29104,-0.12481 -1.18401,-0.28706 -1.98437,-0.36054 -1.87459,-0.17212 -4.37862,-0.75406 -5.55625,-1.29129 -0.50932,-0.23235 -1.31137,-0.49997 -1.78233,-0.59471 -0.52375,-0.10536 -1.07684,-0.482 -1.42423,-0.96987 -0.48519,-0.68138 -0.54414,-1.02544 -0.40455,-2.36102 0.15211,-1.45528 -0.0616,-1.99184 -0.50662,-1.27183 -0.0991,0.16037 -0.55757,0.44926 -1.01881,0.64198 -0.46123,0.19271 -0.99751,0.64731 -1.19173,1.01021 -0.47097,0.88002 -0.17407,2.55372 0.45328,2.55526 0.24807,6.1e-4 1.02029,0.28993 1.71606,0.64294 0.69576,0.353 1.88639,0.83726 2.64583,1.07612 0.75945,0.23885 1.61893,0.53776 1.90997,0.66423 0.72245,0.31394 3.10736,0.82505 5.02709,1.07735 0.87312,0.11475 2.71859,0.4032 4.10104,0.64101 1.38245,0.2378 3.04932,0.52343 3.70417,0.63472 2.00305,0.34044 3.37997,0.86256 4.29014,1.62681 1.08782,0.91342 1.31054,0.51861 0.28562,-0.50632 z m -17.08284,-2.04907 c -0.0879,-0.0879 -0.31612,-0.0973 -0.50712,-0.0209 -0.21106,0.0845 -0.14837,0.14716 0.15986,0.15985 0.27891,0.0115 0.43518,-0.051 0.34726,-0.13896 z m 17.79874,-0.52051 c 0,-0.5191 -3.99622,-3.0238 -4.82444,-3.0238 -0.25697,0 -0.46722,-0.11907 -0.46722,-0.26459 0,-0.14552 -0.2311,-0.26458 -0.51356,-0.26458 -0.28245,0 -0.5783,-0.10477 -0.65743,-0.23282 -0.16645,-0.26931 -2.56343,-1.0901 -3.18347,-1.0901 -0.40026,0 -2.51316,-1.20164 -2.78929,-1.58631 -0.0728,-0.10136 -0.45821,-0.26405 -0.85655,-0.36153 -0.39834,-0.0975 -0.93036,-0.50276 -1.18225,-0.90063 -0.2519,-0.39787 -1.03753,-1.33521 -1.74585,-2.08297 -1.45698,-1.5381 -2.03619,-2.51469 -2.03619,-3.43318 0,-0.34717 -0.09,-0.63121 -0.19999,-0.63121 -0.26186,0 -0.88718,1.4219 -0.89491,2.03491 -0.01,0.76845 1.4466,4.62769 2.12751,5.63801 0.61417,0.91127 2.42887,2.38125 2.93967,2.38125 0.14358,0 0.26106,0.10084 0.26106,0.2241 0,0.12326 1.33945,0.29674 2.97656,0.3855 2.74617,0.14889 4.19949,0.41582 5.2342,0.96136 0.22306,0.11761 0.81663,0.30412 1.31904,0.41447 0.50241,0.11034 1.19147,0.38278 1.53124,0.6054 1.60181,1.04955 2.96187,1.61285 2.96187,1.22672 z m 1.85209,-0.0739 c 0,-0.46376 -0.63805,-2.03611 -0.95548,-2.35458 -0.1813,-0.1819 -0.45721,-0.33073 -0.61312,-0.33073 -0.15592,0 -0.28349,-0.1786 -0.28349,-0.39688 0,-0.21828 -0.13945,-0.39687 -0.30989,-0.39687 -0.17045,0 -0.49787,-0.16676 -0.72761,-0.37057 -0.66257,-0.58779 -2.86024,-1.7461 -3.31289,-1.7461 -0.22666,0 -0.41211,-0.11906 -0.41211,-0.26458 0,-0.14552 -0.2311,-0.26458 -0.51355,-0.26458 -0.28245,0 -0.57845,-0.10502 -0.65778,-0.23337 -0.0793,-0.12835 -0.93965,-0.31855 -1.91184,-0.42266 -0.97219,-0.10412 -2.07518,-0.31158 -2.45108,-0.46104 -0.3759,-0.14946 -0.92158,-0.35947 -1.21262,-0.46671 -0.29104,-0.10723 -0.97565,-0.38813 -1.52136,-0.62423 -0.5457,-0.2361 -0.99071,-0.3419 -0.98891,-0.23511 0.004,0.26058 1.56986,1.26059 2.37186,1.51513 0.35359,0.11223 0.79736,0.35851 0.98614,0.5473 0.18879,0.18878 0.99207,0.47794 1.78508,0.64256 0.793,0.16463 2.01331,0.58928 2.7118,0.94366 0.69848,0.35438 1.40888,0.64483 1.57865,0.64544 0.16978,6.1e-4 0.34837,0.096 0.39688,0.21202 0.0485,0.11599 0.62397,0.46192 1.27882,0.76871 1.69206,0.79273 3.4084,2.10205 3.75623,2.86545 0.27919,0.61276 1.00627,0.92182 1.00627,0.42774 z m -6.68073,-0.75103 c -0.25466,-0.0666 -0.67138,-0.0666 -0.92604,0 -0.25467,0.0666 -0.0463,0.121 0.46302,0.121 0.50932,0 0.71768,-0.0544 0.46302,-0.121 z m -2.18282,-0.61136 c -0.29104,-0.12507 -0.82682,-0.2274 -1.19062,-0.2274 -0.60294,0 -0.61464,0.0201 -0.13229,0.2274 0.29104,0.12506 0.82682,0.22739 1.19062,0.22739 0.60294,0 0.61464,-0.0201 0.13229,-0.22739 z m -2.77812,-0.51819 c -0.3638,-0.1165 -1.4949,-0.35323 -2.51354,-0.52606 -1.01865,-0.17284 -2.17499,-0.37424 -2.56966,-0.44757 -0.90832,-0.16876 -3.16022,-2.3142 -3.72226,-3.54627 -0.2351,-0.51538 -0.63674,-1.6167 -0.89253,-2.4474 -0.25579,-0.83069 -0.54842,-1.51035 -0.65028,-1.51035 -0.10186,0 -0.53301,0.52511 -0.95812,1.1669 -0.71877,1.08514 -0.75957,1.28013 -0.58235,2.78312 0.10481,0.88892 0.33875,1.79476 0.51985,2.01298 0.48655,0.58625 1.77274,1.0996 3.56368,1.42234 0.87313,0.15734 2.12328,0.41586 2.77813,0.57448 1.41015,0.34158 3.7818,0.68639 4.89479,0.71164 0.76607,0.0174 0.77068,0.0106 0.13229,-0.19381 z m 9.12812,-3.33715 c -0.89558,-0.74615 -2.47022,-1.56785 -2.65342,-1.38464 -0.0665,0.0665 0.40092,0.3816 1.03877,0.70016 0.63786,0.31856 1.30644,0.75596 1.48574,0.97201 0.1793,0.21604 0.46025,0.38852 0.62433,0.38329 0.16409,-0.005 -0.0589,-0.3071 -0.49542,-0.67082 z m -4.10104,-2.16873 c -1.51975,-0.69692 -2.7227,-1.14752 -3.70416,-1.38754 -2.53073,-0.61887 -3.22956,-0.81577 -3.64697,-1.02753 -0.24974,-0.12671 -0.78557,-0.38563 -1.19072,-0.57538 -0.40516,-0.18975 -0.99419,-0.76919 -1.30895,-1.28764 -0.31477,-0.51845 -0.64709,-1.00217 -0.73849,-1.07493 -0.0914,-0.0728 -0.39125,-0.51924 -0.66633,-0.99219 -0.27507,-0.47294 -0.59353,-0.85989 -0.70767,-0.85989 -0.11415,0 -0.20754,-0.41672 -0.20754,-0.92604 0,-1.04693 0.42178,-1.22534 0.7819,-0.33073 0.13181,0.32742 0.60804,1.01203 1.0583,1.52135 0.45026,0.50932 0.88092,1.16417 0.95703,1.45521 0.29256,1.11888 3.47795,2.47795 5.86917,2.50412 0.47366,0.005 1.47821,0.30708 2.23233,0.67088 0.75413,0.3638 1.4793,0.66146 1.61151,0.66146 0.1322,0 0.58617,0.24623 1.00881,0.54718 0.42265,0.30095 0.76845,0.42704 0.76845,0.2802 0,-0.14684 -0.11906,-0.34057 -0.26458,-0.43051 -0.14552,-0.0899 -0.26459,-0.45265 -0.26459,-0.80604 0,-0.46134 -0.29695,-0.82999 -1.05307,-1.3073 -0.57919,-0.36563 -1.21023,-0.66478 -1.40229,-0.66478 -0.19207,0 -0.46233,-0.10522 -0.60057,-0.23382 -0.13825,-0.1286 -1.68011,-0.43588 -3.42636,-0.68284 -4.43019,-0.62654 -5.42396,-1.42674 -5.42396,-4.36746 0,-1.16058 -0.0509,-1.26761 -0.54175,-1.13925 -0.57718,0.15093 -1.8395,1.63195 -1.8395,2.1582 0,0.1733 0.47392,1.20958 1.05316,2.30286 1.49894,2.82915 2.86206,3.89047 6.09059,4.7421 0.94589,0.24951 1.95792,0.55925 2.24896,0.68831 0.56275,0.24955 3.52412,0.98542 3.96875,0.98619 0.14552,2.5e-4 -0.15213,-0.19064 -0.66146,-0.42419 z m 0.89158,-4.99926 c -0.22011,-0.877 -0.88526,-1.67668 -1.39461,-1.67668 -0.21199,0 -0.75108,-0.11695 -1.19797,-0.25988 -0.93221,-0.29817 -4.95351,-1.30557 -6.04182,-1.51358 -0.66776,-0.12763 -1.43926,-0.92007 -1.87968,-1.9307 -0.0951,-0.21828 -0.10589,-0.0992 -0.0239,0.26458 0.082,0.3638 0.21778,1.10618 0.30183,1.64973 0.084,0.54354 0.30925,1.1181 0.50045,1.27678 0.58061,0.48186 3.06542,1.03577 4.66135,1.0391 0.82816,0.002 1.57932,0.1222 1.66926,0.26772 0.0899,0.14553 0.33427,0.26459 0.54297,0.26459 0.53958,0 2.49974,0.87883 2.49974,1.12075 0,0.11119 0.12133,0.20216 0.26962,0.20216 0.15988,0 0.19765,-0.28677 0.0928,-0.70457 z m 33.63655,-3.03864 c 1.16417,-0.30257 2.74988,-0.60766 3.52382,-0.67796 1.26148,-0.11458 1.42217,-0.0704 1.55221,0.42689 0.24824,0.94925 0.61262,0.60901 0.61021,-0.56978 -0.004,-1.77889 -0.31397,-3.9026 -0.57027,-3.9026 -0.12885,0 -0.33753,0.27159 -0.46374,0.60353 -0.28133,0.73997 -2.12888,2.57147 -2.594,2.57147 -0.55852,0 -0.38756,-0.51977 0.52146,-1.58531 0.47294,-0.55438 1.1994,-1.65988 1.61435,-2.45666 0.61357,-1.17816 0.70004,-1.5504 0.46302,-1.99326 -0.16029,-0.29951 -0.29144,-0.90256 -0.29144,-1.3401 0,-0.43754 -0.1079,-0.86222 -0.23979,-0.94373 -0.48114,-0.29736 -0.6222,-2.73434 -0.2065,-3.56762 0.3414,-0.68436 0.34373,-0.83365 0.0172,-1.1046 -0.61141,-0.50743 -0.74113,-0.0791 -0.66372,2.19162 0.0531,1.55651 -0.023,2.20649 -0.27695,2.36751 -0.43776,0.27755 -2.78862,0.30088 -2.95645,0.0293 -0.0682,-0.1104 -0.0267,-0.73292 0.0922,-1.38338 0.26094,-1.42697 -0.0879,-2.23529 -1.36265,-3.158 -0.48713,-0.35258 -1.03451,-0.82883 -1.2164,-1.05833 -0.87448,-1.10336 -1.65726,-2.48454 -1.93668,-3.41718 -0.30467,-1.01691 -0.31745,-1.02501 -1.04471,-0.66221 -0.80311,0.40065 -1.66117,1.53452 -1.65753,2.19031 0.0141,2.53092 0.0555,2.6914 0.61709,2.39085 0.29824,-0.15962 0.86379,-0.2531 1.25677,-0.20775 0.94337,0.10887 0.94822,0.8492 0.006,0.95806 -1.07907,0.12471 -1.38568,0.70776 -1.39764,2.6578 -0.009,1.38829 -0.13605,1.93388 -0.6061,2.59286 -0.81516,1.14281 -0.75035,1.51658 0.33073,1.9075 0.84473,0.30546 0.92604,0.42629 0.92604,1.37607 0,0.813 0.10149,1.0425 0.46302,1.04709 0.25467,0.003 0.76068,0.23636 1.12448,0.51806 0.52465,0.40623 0.60404,0.60506 0.38385,0.96125 -0.21639,0.35003 -0.14345,0.58323 0.33073,1.05741 0.33459,0.33459 0.60834,0.8535 0.60834,1.15313 0,0.53917 0.53111,1.60434 0.79125,1.5869 0.0741,-0.005 1.08729,-0.2566 2.25146,-0.55918 z m -6.21771,-11.45532 c 0,-0.64255 0.85237,-1.47022 1.51408,-1.47022 0.49518,0 0.41437,0.44731 -0.24092,1.33363 -0.70337,0.95136 -1.27316,1.01248 -1.27316,0.13659 z m 15.83256,8.11544 c 0.92255,-0.97924 1.79466,-2.10001 1.93803,-2.49059 0.14337,-0.39058 0.53618,-0.89067 0.87292,-1.11131 0.56719,-0.37163 0.60188,-0.5336 0.47138,-2.20027 -0.14152,-1.80727 -0.37572,-2.26316 -1.03308,-2.01091 -0.2769,0.10626 -0.35473,-0.29383 -0.35473,-1.82364 0,-1.89288 -0.25166,-2.59477 -0.93037,-2.59477 -0.19499,0 -0.26411,0.54309 -0.20337,1.5981 0.0692,1.20223 -0.0126,1.70268 -0.33018,2.02028 -0.62522,0.62523 -0.96812,0.1055 -0.71959,-1.09068 0.13821,-0.66525 0.0729,-1.57762 -0.19276,-2.6917 -0.37294,-1.5641 -0.45419,-1.68544 -1.12946,-1.68671 -0.86212,-0.002 -0.92283,0.34037 -0.19843,1.11791 0.67319,0.72259 0.6698,1.53655 -0.012,2.8729 -0.53056,1.03999 -1.16136,1.53728 -1.50901,1.18963 -0.0964,-0.0964 -0.15771,-1.33147 -0.13631,-2.74466 0.036,-2.37813 0.0117,-2.51034 -0.3271,-1.77569 -0.20131,0.43656 -0.44065,1.32953 -0.53188,1.98437 -0.0912,0.65485 -0.29612,1.45709 -0.45532,1.78278 -0.21371,0.43719 -0.20063,0.99109 0.05,2.11666 0.38232,1.71704 0.9918,3.6698 1.36732,4.38085 0.13799,0.2613 0.25616,1.86864 0.26258,3.57188 l 0.0117,3.09679 0.70614,-0.86538 c 0.38838,-0.47597 1.46096,-1.66659 2.3835,-2.64584 z m 5.33411,-6.33716 c 0,-0.0404 -0.23813,-0.0735 -0.52917,-0.0735 -0.35191,0 -0.52917,0.17639 -0.52917,0.52658 0,0.50122 0.0255,0.50476 0.52917,0.0735 0.29104,-0.2492 0.52917,-0.48616 0.52917,-0.52657 z m -12.9161,-3.10636 c -0.10557,-1.65797 -0.0818,-1.73532 0.78121,-2.54476 0.48955,-0.45915 1.31048,-1.23748 1.82429,-1.72964 0.66766,-0.63952 1.17823,-0.89482 1.78953,-0.89482 0.47043,0 1.06943,-0.13371 1.33111,-0.29713 0.58258,-0.36383 2.16287,0.34631 2.16287,0.97193 0,0.21815 0.32721,0.52103 0.72712,0.67308 1.10933,0.42177 1.65413,1.03769 1.65413,1.87007 0,0.41507 0.32105,1.34912 0.71344,2.07566 0.551,1.0202 0.85813,1.32097 1.3489,1.32097 0.62418,0 0.63195,-0.0293 0.43788,-1.65364 -0.10867,-0.90951 -0.22034,-2.01083 -0.24815,-2.4474 -0.0713,-1.1185 -0.39764,-2.8148 -0.6618,-3.43958 -0.12305,-0.29104 -0.33608,-0.88648 -0.4734,-1.3232 -0.13732,-0.43671 -0.53408,-1.22679 -0.8817,-1.75573 -0.34762,-0.52894 -0.8343,-1.33151 -1.0815,-1.78348 -0.2472,-0.45197 -0.90205,-1.0311 -1.45521,-1.28697 -0.55316,-0.25586 -1.08032,-0.56747 -1.17146,-0.69245 -0.3256,-0.44652 -2.502,-0.47993 -4.10581,-0.063 -0.89413,0.23242 -2.23138,0.42258 -2.97165,0.42258 -1.65337,0 -4.73717,0.46179 -6.52944,0.97776 -1.07728,0.31014 -1.55271,0.65108 -2.44606,1.75412 l -1.10887,1.36916 0.68382,0.086 c 0.59767,0.0752 0.66146,0.17517 0.5063,0.79375 l -0.17752,0.70774 0.61685,-0.56246 c 0.81861,-0.74645 2.45405,-1.48906 3.03353,-1.37746 0.35152,0.0677 0.53637,0.52838 0.75978,1.89353 0.29087,1.77743 0.32369,1.83052 2.22187,3.59445 l 1.92663,1.79038 0.0375,1.63026 c 0.0296,1.28608 0.1248,1.63026 0.4511,1.63026 0.34367,0 0.39521,-0.28918 0.30474,-1.70995 z m 16.28565,-1.2011 c 0.11128,-3.4e-4 0.55389,-0.68495 0.98357,-1.52135 0.42969,-0.8364 1.04271,-1.87791 1.36227,-2.31448 0.93706,-1.28016 2.50155,-4.3921 2.33972,-4.65395 -0.0819,-0.13246 -0.0227,-0.24084 0.13136,-0.24084 0.1541,0 0.28019,-0.23812 0.28019,-0.52917 0,-0.29104 0.11907,-0.52916 0.26459,-0.52916 0.14552,0 0.26458,-0.12701 0.26458,-0.28224 0,-0.15523 0.28292,-0.66125 0.62871,-1.12448 0.34579,-0.46323 0.76088,-1.25896 0.92243,-1.76828 0.33011,-1.04081 0.44422,-5.46287 0.17751,-6.87917 -0.0959,-0.50932 -0.0669,-1.40341 0.0644,-1.98687 0.23137,-1.02793 0.21137,-1.07494 -0.64484,-1.51576 -0.72604,-0.37379 -0.88362,-0.38793 -0.88362,-0.0793 0,0.20661 0.11907,0.44925 0.26459,0.53918 0.62434,0.38587 0.24637,4.27002 -0.59596,6.12433 -0.14193,0.31244 -0.25308,1.50306 -0.24699,2.64583 0.01,1.86057 -0.45713,3.84781 -1.01685,4.32672 -0.085,0.0728 -0.31533,0.52938 -0.51176,1.01472 -0.19643,0.48534 -0.48733,1.02146 -0.64644,1.19138 -0.48081,0.51349 -1.70268,3.16012 -1.88256,4.07775 -0.0927,0.47294 -0.27817,0.8599 -0.41213,0.8599 -0.13396,0 -0.24356,0.23812 -0.24356,0.52916 0,0.29105 -0.10616,0.52917 -0.2359,0.52917 -0.12975,0 -0.30373,0.27026 -0.38664,0.60058 -0.0829,0.33032 -0.39347,0.86112 -0.69014,1.17956 -0.29667,0.31844 -0.53896,0.79232 -0.53842,1.05307 6.8e-4,0.32663 0.16406,0.20664 0.52528,-0.38581 0.28836,-0.47295 0.61534,-0.86018 0.72662,-0.86053 z m 13.20984,-24.40718 c -0.0734,-0.1819 -0.13345,-0.0331 -0.13345,0.33073 0,0.3638 0.06,0.51263 0.13345,0.33073 0.0734,-0.1819 0.0734,-0.47956 0,-0.66146 z m -2.55648,-1.12448 c 0,-0.21828 -0.11532,-0.39688 -0.25628,-0.39688 -0.14095,0 -0.18774,0.1786 -0.10398,0.39688 0.0838,0.21828 0.19909,0.39687 0.25628,0.39687 0.0572,0 0.10398,-0.17859 0.10398,-0.39687 z m 22.225,122.29992 c 0,-0.18396 0.47317,-0.53945 1.05148,-0.78999 0.73984,-0.32053 1.0059,-0.57427 0.89773,-0.85617 -0.0846,-0.22035 -0.33136,-0.40063 -0.54846,-0.40063 -0.41069,0 -2.22807,-0.78068 -2.45908,-1.05633 -0.0728,-0.0868 -0.9564,-0.56927 -1.96364,-1.07212 -2.11011,-1.05343 -2.63181,-1.74666 -1.13121,-1.50314 0.90501,0.14686 2.95956,1.09058 5.93912,2.72802 1.92364,1.05714 1.91924,2.10196 -0.0124,2.95717 -0.95349,0.42214 -1.77349,0.41899 -1.77349,-0.007 z m -21.56354,-8.29696 c -0.7276,-0.21817 -1.8587,-0.5686 -2.51354,-0.77873 -0.65484,-0.21013 -1.55981,-0.38147 -2.01104,-0.38075 -0.45123,7.2e-4 -1.1656,-0.10542 -1.5875,-0.23587 -0.4219,-0.13044 -1.48146,-0.44341 -2.35458,-0.69547 -0.87313,-0.25206 -1.70061,-0.56204 -1.83886,-0.68886 -0.13824,-0.12681 -0.41111,-0.23057 -0.60637,-0.23057 -0.63725,0 -2.71415,-2.51727 -2.71415,-3.28964 0,-0.71471 0.44198,-0.4598 1.59911,0.92225 0.70846,0.84618 1.39924,1.39279 1.88222,1.48939 0.41966,0.0839 0.8271,0.25628 0.90542,0.38301 0.0783,0.12672 0.38728,0.23041 0.68658,0.23041 0.55828,0 2.89947,0.68944 3.72048,1.09562 0.25268,0.12501 0.74362,0.22729 1.09097,0.22729 0.8562,0 4.39772,0.89888 5.32973,1.35275 0.41454,0.20188 0.80219,0.51587 0.86144,0.69777 0.14279,0.43836 -0.78349,0.40108 -2.44991,-0.0986 z m -48.02187,-23.36427 c 0,-0.45672 0.81231,-1.06177 1.79784,-1.33911 0.53916,-0.15173 1.2114,-0.45253 1.49387,-0.66845 0.45193,-0.34545 0.45944,-0.39259 0.0626,-0.39259 -0.45438,0 -0.66408,0.0849 -2.22452,0.90011 -1.13947,0.59531 -3.27362,0.83305 -3.99803,0.44536 -0.31422,-0.16816 -0.57131,-0.53969 -0.57131,-0.82561 0,-0.62063 0.0756,-0.63117 1.02098,-0.1423 0.47142,0.24378 0.86518,0.29209 1.11134,0.13634 0.20967,-0.13267 0.64912,-0.24303 0.97654,-0.24526 0.32742,-0.002 0.59531,-0.0985 0.59531,-0.21385 0,-0.35898 2.84045,-1.19552 4.16416,-1.22637 0.69289,-0.0162 1.40768,-0.12278 1.58843,-0.23696 0.18075,-0.11418 0.52035,-0.10031 0.75466,0.0308 0.36584,0.20473 0.31941,0.31849 -0.32863,0.80519 -0.41506,0.31173 -0.89846,0.68713 -1.07422,0.83424 -0.17576,0.1471 -0.4229,0.26746 -0.5492,0.26746 -0.12629,0 -0.50926,0.29766 -0.85103,0.66146 -0.34178,0.3638 -0.8847,0.66146 -1.20651,0.66146 -0.3218,0 -0.92612,0.17786 -1.34294,0.39524 -0.86514,0.45121 -1.4193,0.51087 -1.4193,0.15282 z m -3.12503,-2.84542 c -0.43855,-0.17543 0.35982,-1.14223 0.94324,-1.14223 0.21011,0 0.7572,-0.16792 1.21576,-0.37316 0.45855,-0.20523 1.01233,-0.44435 1.23061,-0.53137 0.21828,-0.087 -0.6353,-0.0977 -1.89685,-0.0238 -2.58462,0.15144 -3.13023,0.0316 -3.13023,-0.68747 0,-0.54697 0.39282,-0.67093 0.6757,-0.21322 0.0978,0.1582 0.43222,0.21091 0.74322,0.11713 3.17433,-0.95717 9.06436,-1.10179 9.35506,-0.2297 0.0969,0.29082 -2.89438,1.41244 -3.76693,1.41244 -0.23261,0 -0.92475,0.28016 -1.53809,0.62258 -0.61334,0.34243 -1.46969,0.68278 -1.903,0.75633 -0.43331,0.0736 -0.96643,0.20068 -1.18471,0.2825 -0.21828,0.0818 -0.55298,0.0863 -0.74378,0.01 z m -1.04216,-3.96329 c -0.86596,-0.34942 0.42173,-1.14484 1.86453,-1.15174 1.37121,-0.007 1.71397,-0.42469 0.50642,-0.61779 -1.13208,-0.18102 -1.99255,-0.86851 -1.34242,-1.07254 0.76796,-0.24101 4.03104,-0.39864 5.13103,-0.24787 0.63589,0.0872 1.39526,0.38123 1.68749,0.65348 0.29224,0.27226 0.88648,0.49502 1.32054,0.49502 0.43406,0 0.85616,0.10834 0.938,0.24076 0.0821,0.13288 -0.88896,0.32257 -2.1672,0.42333 -1.2738,0.10041 -2.66171,0.34926 -3.08425,0.55299 -0.42254,0.20373 -1.04059,0.37042 -1.37345,0.37042 -0.33285,0 -0.67877,0.11906 -0.76871,0.26459 -0.16619,0.2689 -2.10842,0.33289 -2.71198,0.0894 z m 4.82864,-1.94144 c 0.34892,-0.14993 0.39398,-0.23234 0.1323,-0.24193 -0.21828,-0.008 -0.57547,0.10087 -0.79375,0.24193 -0.48365,0.31256 -0.0659,0.31256 0.66145,0 z m 54.63646,-1.89506 c 0,-0.39315 1.57995,-2.89231 2.11062,-3.33858 0.54585,-0.45903 3.54938,-1.91011 3.95368,-1.91011 0.82223,0 -0.0128,0.95344 -1.64615,1.87953 -2.04431,1.15911 -2.22352,1.3163 -3.06057,2.68453 -0.57877,0.94607 -1.35758,1.33882 -1.35758,0.68463 z m 17.90348,-5.16049 c -0.097,-0.097 -0.17639,-0.50671 -0.17639,-0.91043 0,-0.40372 -0.10591,-0.79949 -0.23535,-0.87949 -0.12944,-0.08 -0.29835,-0.53351 -0.37535,-1.0078 -0.077,-0.4743 -0.33757,-1.57673 -0.57906,-2.44985 -0.24149,-0.87313 -0.49827,-1.88516 -0.57063,-2.24896 -0.15287,-0.76865 -0.2915,-1.11843 -1.36318,-3.43958 -1.9516,-4.22697 -2.43268,-5.31888 -2.43268,-5.52139 0,-0.11905 -0.61814,-1.09665 -1.37364,-2.17244 -0.7555,-1.07579 -1.83104,-2.82955 -2.3901,-3.89723 -1.28571,-2.45546 -2.13151,-3.79674 -2.68257,-4.25408 -0.23807,-0.19758 -0.43286,-0.52326 -0.43286,-0.72372 0,-0.20046 -0.11906,-0.36448 -0.26458,-0.36448 -0.14552,0 -0.26459,-0.18096 -0.26459,-0.40213 0,-0.22117 -0.30132,-0.87946 -0.6696,-1.46285 -0.36828,-0.5834 -0.74364,-1.44423 -0.83414,-1.91297 -0.16147,-0.83633 -0.15461,-0.84348 0.36682,-0.3828 0.29225,0.25821 0.75422,0.88329 1.0266,1.38907 0.27239,0.50578 0.58723,0.9196 0.69966,0.9196 0.11243,0 0.20441,0.2095 0.20441,0.46557 0,0.25606 0.5723,1.08156 1.27177,1.83446 0.69947,0.75289 1.49081,1.8233 1.75853,2.3787 0.96475,2.00137 2.74335,4.76455 3.51451,5.46007 0.32543,0.29351 0.67002,0.96008 0.76577,1.48128 0.0957,0.52119 0.24621,1.00716 0.33436,1.07992 0.47662,0.39341 2.9384,5.37211 2.9384,5.94263 0,0.20688 0.11906,0.44972 0.26458,0.53966 0.14552,0.0899 0.26458,0.52545 0.26458,0.96782 0,0.44236 0.16859,1.17947 0.37464,1.63803 0.20606,0.45855 0.43823,1.19092 0.51595,1.62748 0.0777,0.43657 0.38601,1.96496 0.6851,3.39643 0.29909,1.43147 0.47661,2.71139 0.39448,2.84427 -0.17595,0.2847 -0.48826,0.31239 -0.73544,0.0652 z m -17.90348,-9.35385 c 0,-0.14841 0.29766,-1.00238 0.66146,-1.8977 0.8299,-2.0424 0.82932,-2.60961 -0.004,-3.392 -0.39725,-0.3732 -0.56847,-0.7212 -0.42528,-0.86439 0.31309,-0.31309 1.25926,0.19473 1.62052,0.86976 0.30371,0.56749 0.16282,2.97188 -0.23554,4.01965 -0.41584,1.09373 -1.61766,2.03331 -1.61766,1.26468 z m -4.49791,-1.20276 c 0,-0.22785 0.12234,-0.64287 0.27187,-0.92226 0.28806,-0.53825 0.70983,-2.28482 1.00512,-4.16218 0.21142,-1.34421 0.58872,-1.54952 0.87568,-0.47651 0.29272,1.09452 -0.0115,2.9667 -0.74513,4.58615 -0.59521,1.31382 -1.40754,1.8764 -1.40754,0.9748 z m -62.97084,-18.20788 c 0,-0.22086 0.15781,-0.49677 0.35068,-0.61315 0.19288,-0.11637 0.43161,-0.43124 0.53051,-0.69972 0.0989,-0.26848 0.38758,-0.5468 0.6415,-0.61851 0.25393,-0.0717 0.92693,-0.77477 1.49555,-1.56238 1.12312,-1.55563 1.48063,-1.75803 1.47794,-0.8367 -0.002,0.80237 -0.74409,1.87448 -2.25927,3.26556 -1.41565,1.29972 -2.23691,1.69068 -2.23691,1.0649 z m 60.06042,-9.06821 c -0.21828,-0.0713 -0.635,-0.22512 -0.92604,-0.34188 -0.29104,-0.11676 -0.86219,-0.34618 -1.26922,-0.50982 -0.88708,-0.35664 -2.13702,-0.38544 -2.76927,-0.0638 -1.4433,0.73421 -1.90558,0.86315 -2.46174,0.68663 -0.59605,-0.18918 -0.59831,-0.20266 -0.0977,-0.58328 1.05101,-0.79904 2.83921,-1.3954 4.18414,-1.3954 1.08738,0 1.67956,0.18176 2.80154,0.85989 0.78248,0.47295 1.41123,0.97599 1.3972,1.11787 -0.0315,0.31831 -0.33729,0.40013 -0.85894,0.2298 z m 1.59235,-21.11525 c -0.39508,-0.81613 -0.49668,-1.31434 -0.32911,-1.61378 0.20653,-0.36905 0.36596,-0.28329 1.07709,0.57943 0.91194,1.10634 0.99683,1.4178 0.51717,1.89745 -0.50072,0.50073 -0.65631,0.39458 -1.26515,-0.8631 z M 709.95175,680.49354 c 0.62231,-0.0559 1.57481,-0.0551 2.11667,0.002 0.54186,0.0569 0.0327,0.10258 -1.13147,0.10162 -1.16417,-9.6e-4 -1.60751,-0.0475 -0.9852,-0.10337 z"
       id="path25" /></g></svg>
