<?xml version="1.0" encoding="UTF-8" standalone="no"?>
<!-- Created with Inkscape (http://www.inkscape.org/) -->

<svg
   width="173.79184mm"
   height="125.89356mm"
   viewBox="0 0 173.79184 125.89356"
   version="1.1"
   id="svg1"
   xml:space="preserve"
   xmlns="http://www.w3.org/2000/svg"
   xmlns:svg="http://www.w3.org/2000/svg"><defs
     id="defs1" /><g
     id="layer1"
     transform="translate(-582.87161,-161.75494)"><path
       style="fill:#4d4d4d"
       d="m 689.46376,287.45742 c -0.0707,-0.11446 -0.88144,-0.23487 -1.80155,-0.26759 -2.35079,-0.0836 -3.30001,-0.51385 -3.16249,-1.43352 0.0156,-0.10418 -0.27592,-0.49366 -0.64779,-0.86553 -0.79174,-0.79175 -0.78088,-1.8076 0.0207,-1.93255 0.76767,-0.11966 1.72975,-0.63029 2.47188,-1.31198 0.39674,-0.36442 0.98441,-0.59531 1.51521,-0.59531 0.50123,0 1.18268,-0.25119 1.61501,-0.59531 0.41135,-0.32742 1.16462,-0.79061 1.67395,-1.02931 2.46003,-1.15293 4.00684,-1.81496 4.24056,-1.81496 0.14154,0 0.25735,-0.11907 0.25735,-0.26459 0,-0.14552 0.15751,-0.26458 0.35002,-0.26458 0.19251,0 0.90409,-0.62508 1.58129,-1.38906 1.73626,-1.95877 2.01948,-2.37526 2.02903,-2.98384 0.005,-0.29504 0.16968,-0.77129 0.36679,-1.05833 0.1971,-0.28704 0.42835,-0.81955 0.51388,-1.18335 0.57386,-2.44097 0.93411,-4.09864 0.89416,-4.11449 -0.0256,-0.0102 -1.7135,0.0716 -3.75079,0.1818 -11.13982,0.60234 -25.35152,0.84556 -55.65461,0.95248 l -33.69418,0.11889 0.0921,2.15826 0.0921,2.15827 -4.83292,0.0721 c -5.7186,0.0853 -5.18479,0.50461 -5.48169,-4.30547 -0.20858,-3.37903 -0.47447,-4.09245 -1.97104,-5.28862 -0.36204,-0.28937 -1.49841,-1.36355 -2.52527,-2.38708 -2.57441,-2.56607 -6.97644,-9.15098 -7.00724,-10.482 -0.005,-0.23685 -0.18856,-0.57885 -0.40684,-0.76001 -0.21828,-0.18115 -0.39688,-0.54589 -0.39688,-0.81053 0,-0.26463 -0.10587,-0.54659 -0.23527,-0.62656 -0.1294,-0.08 -0.31591,-0.46669 -0.41447,-0.85937 -0.0986,-0.39268 -0.39131,-1.01889 -0.65055,-1.39156 -1.12323,-1.61468 -1.67014,-5.42657 -1.67258,-11.65781 -0.002,-5.57626 0.3605,-9.28097 1.06361,-10.86449 0.28672,-0.64573 0.73338,-1.76936 0.99258,-2.49697 0.2592,-0.7276 0.54448,-1.38245 0.63395,-1.45521 0.38249,-0.31106 1.07803,-1.60666 1.09582,-2.04121 0.0368,-0.89848 2.57128,-4.32883 4.74741,-6.42545 3.1084,-2.99484 3.78847,-3.48383 5.29268,-3.80564 0.3667,-0.0784 0.90248,-0.3595 1.19063,-0.62455 0.28814,-0.26506 1.00015,-0.69215 1.58223,-0.9491 0.58209,-0.25695 1.29646,-0.60159 1.5875,-0.76587 1.44407,-0.81511 1.90927,-0.99546 2.57164,-0.99696 0.39576,-9e-4 1.11013,-0.21846 1.5875,-0.48347 0.47737,-0.26501 1.52279,-0.68632 2.32315,-0.93625 0.80037,-0.24993 1.69334,-0.56133 1.98438,-0.69199 1.30037,-0.58382 7.07942,-1.42136 9.78958,-1.41877 2.38942,0.002 5.42306,0.32552 5.82084,0.62023 0.14552,0.10782 0.84763,0.2805 1.56024,0.38374 0.71261,0.10324 1.48651,0.29057 1.71979,0.41628 0.23327,0.12571 1.13851,0.48082 2.01163,0.78913 0.87313,0.30832 1.82563,0.71287 2.11667,0.899 0.29104,0.18614 1.04688,0.40666 1.67965,0.49005 0.63277,0.0834 1.40667,0.38233 1.71979,0.66431 0.31312,0.28198 0.98162,0.73823 1.48556,1.01388 1.13091,0.6186 2.2489,1.55662 4.64,3.89306 1.01864,0.99537 2.03068,1.80379 2.24896,1.79651 0.21828,-0.007 1.29383,-0.0903 2.39011,-0.18454 1.90021,-0.16329 2.03296,-0.13787 2.84427,0.54481 0.46807,0.39385 0.85103,0.8841 0.85103,1.08945 0,0.20534 0.11907,0.37335 0.26459,0.37335 0.14552,0 0.26458,0.2311 0.26458,0.51356 0,0.28245 0.10327,0.57737 0.22949,0.65538 0.12622,0.078 0.29185,0.69507 0.36806,1.37126 0.0762,0.67618 0.30037,1.33481 0.49812,1.46362 0.685,0.44619 1.63401,0.57063 2.05414,0.26934 0.83768,-0.60074 3.04479,-1.62732 3.49868,-1.62732 0.25521,0 0.53761,-0.11906 0.62755,-0.26459 0.0899,-0.14552 0.34162,-0.26458 0.5593,-0.26458 0.70498,0 2.63749,-1.01092 4.93142,-2.57969 0.69156,-0.47294 1.37617,-0.85989 1.52135,-0.85989 0.14519,0 0.26397,-0.11906 0.26397,-0.26459 0,-0.14552 0.12907,-0.26458 0.28682,-0.26458 0.15774,0 0.90809,-0.59295 1.66742,-1.31766 1.22128,-1.16559 1.4372,-1.53964 1.87098,-3.24114 0.2697,-1.05792 0.71689,-2.24923 0.99376,-2.64735 1.07874,-1.55119 1.04962,-6.13214 -0.0479,-7.52736 -0.29579,-0.37602 -0.53779,-0.83942 -0.53779,-1.02975 0,-0.9362 -1.79359,-3.02216 -2.59857,-3.02216 -0.12976,0 -0.31634,1.06529 -0.41463,2.36731 -0.0983,1.30201 -0.32373,2.64169 -0.50099,2.97705 -0.90725,1.71656 -2.00974,2.59314 -3.26141,2.59314 -0.69487,0 -0.9109,0.15568 -1.27198,0.9166 -0.23922,0.50412 -0.696,1.09944 -1.01506,1.32291 -0.72867,0.51039 -2.14977,0.52668 -2.56248,0.0294 -0.25502,-0.30728 -0.14057,-0.45869 0.61933,-0.81928 1.60582,-0.76201 1.73673,-2.47717 0.31578,-4.13723 -0.51458,-0.60118 -0.86822,-1.20209 -0.78586,-1.33535 0.0824,-0.13327 0.0105,-0.57848 -0.15969,-0.98937 -0.24412,-0.58936 -0.22935,-1.01883 0.07,-2.03455 0.35212,-1.19484 0.339,-1.39522 -0.18229,-2.78463 -0.30894,-0.82343 -0.76862,-1.72577 -1.0215,-2.00521 -0.6835,-0.75526 -0.59471,-2.7189 0.20166,-4.45995 0.55868,-1.2214 0.66146,-1.83936 0.66146,-3.97722 0,-1.54299 0.1662,-3.10284 0.42573,-3.99558 0.43785,-1.50617 1.49848,-2.98261 2.14261,-2.98261 0.20031,0 0.62711,-0.25026 0.94845,-0.55614 1.87929,-1.78887 4.17682,-2.8264 5.4437,-2.4583 0.38324,0.11135 1.33942,0.21849 2.12486,0.23809 1.20417,0.03 1.52564,0.14908 2.05052,0.75929 l 0.62246,0.72365 v -0.94605 c 0,-0.55332 0.27459,-1.38104 0.66146,-1.99387 0.3638,-0.5763 0.66522,-1.13948 0.66982,-1.25152 0.0146,-0.35488 1.18304,-1.55161 1.72228,-1.76392 0.28507,-0.11224 1.53035,-0.3018 2.76727,-0.42123 2.2359,-0.2159 3.3993,-0.68838 6.15963,-2.50153 0.60873,-0.39985 1.03419,-0.45264 2.4658,-0.30597 2.20669,0.22608 2.88053,0.58151 4.75049,2.50568 0.61805,0.63596 1.25459,1.07542 1.41453,0.97657 0.15994,-0.0988 0.2908,-0.0536 0.2908,0.10047 0,0.15411 0.21585,0.2802 0.47967,0.2802 0.59292,0 1.58659,1.07936 2.41651,2.62491 0.53346,0.99346 0.64651,1.65125 0.75031,4.36563 0.0977,2.55599 0.0363,3.40105 -0.30694,4.22042 -0.23602,0.56347 -0.42913,1.36714 -0.42913,1.78593 0,0.70294 0.0762,0.76168 0.99219,0.76458 0.5457,0.002 1.64703,0.17891 2.44739,0.39374 0.80037,0.21482 1.9542,0.392 2.56408,0.39373 0.60987,0.002 1.17278,0.10656 1.2509,0.23297 0.0781,0.12641 0.62613,0.30724 1.2178,0.40185 1.03045,0.16478 1.3766,0.29434 2.70628,1.01298 0.32743,0.17695 1.43753,0.75292 2.46691,1.27992 2.50102,1.28044 5.65094,3.335 5.83054,3.80303 0.0797,0.20763 0.67229,0.62543 1.31692,0.92844 0.64463,0.30301 1.84165,1.20467 2.66005,2.00369 0.8184,0.79902 1.61156,1.45276 1.76259,1.45276 0.15103,0 1.06274,0.81195 2.02604,1.80433 0.96329,0.99238 2.13376,2.03017 2.60105,2.30621 0.46728,0.27603 0.92232,0.744 1.0112,1.03994 0.0889,0.29593 0.83595,1.19291 1.66015,1.99327 0.82421,0.80037 1.7062,1.89489 1.95998,2.43229 0.25378,0.53739 0.81926,1.33492 1.25662,1.77228 0.93037,0.93037 2.42038,3.81096 2.78625,5.38658 0.0253,0.10914 0.061,0.55679 0.0792,0.99477 0.0193,0.46546 0.26947,0.98766 0.602,1.25677 1.05433,0.85327 2.60608,2.55659 2.60608,2.86065 0,0.081 0.28006,0.76468 0.62237,1.51934 0.92681,2.0433 1.49478,4.97323 1.49039,7.68842 -0.004,2.28399 -0.084,2.68138 -1.22416,6.05296 -0.0861,0.25466 -0.25801,0.46302 -0.38199,0.46302 -0.12398,0 -0.15689,0.1786 -0.0731,0.39688 0.0838,0.21828 0.419,0.39687 0.74496,0.39687 0.32597,0 0.85476,0.22732 1.1751,0.50514 0.69003,0.59846 2.55358,2.12156 3.16676,2.58822 0.23805,0.18117 0.65971,0.33318 0.93701,0.33781 0.27731,0.005 0.89444,0.30607 1.37141,0.66988 0.47697,0.3638 0.99422,0.66145 1.14945,0.66145 0.15523,0 0.28224,0.10087 0.28224,0.22416 0,0.12328 0.23425,0.33164 0.52056,0.46302 0.82677,0.37937 3.91104,3.10938 4.77111,4.22308 0.99701,1.29103 2.64583,4.16424 2.64583,4.61058 0,0.15998 0.22373,0.53102 0.49718,0.82454 1.28019,1.37412 2.13407,8.70201 1.64,14.07431 -0.17672,1.92162 -0.36903,4.56542 -0.42735,5.87511 -0.15784,3.54476 -0.5258,6.14433 -0.94042,6.64391 -0.32774,0.3949 -0.86182,0.42718 -4.84093,0.29256 -3.28663,-0.11119 -4.53136,-0.24408 -4.69438,-0.50118 -0.122,-0.19243 -0.22365,-1.38329 -0.22588,-2.64636 l -0.004,-2.29648 -4.0349,-0.10693 c -2.21919,-0.0588 -4.28605,-0.19577 -4.59301,-0.30434 -0.49532,-0.17519 -0.57775,-0.0747 -0.73258,0.89361 -0.096,0.60007 -0.28128,1.29418 -0.41183,1.54249 -0.13055,0.24831 -0.43173,0.92772 -0.6693,1.5098 -0.23756,0.58208 -0.54523,1.26508 -0.6837,1.51776 -0.13847,0.25269 -0.25176,0.94869 -0.25176,1.54668 0,0.59799 -0.17013,1.40327 -0.37805,1.78953 -0.20793,0.38625 -0.53535,1.09641 -0.72761,1.57812 -0.34247,0.85812 -2.31008,2.43145 -3.04075,2.43145 -0.19333,0 -0.35151,0.11906 -0.35151,0.26458 0,0.55955 -1.46302,0.26311 -1.95864,-0.39687 -0.31279,-0.41652 -0.75846,-0.66146 -1.20353,-0.66146 -1.49347,0 -2.63496,-2.3622 -1.37856,-2.8528 0.2675,-0.10445 0.86281,-0.50964 1.32292,-0.90043 0.73347,-0.62296 0.83656,-0.87412 0.83656,-2.03807 0,-1.2574 -0.10347,-1.64855 -0.96323,-3.64139 -0.19783,-0.45856 -0.35969,-0.92543 -0.35969,-1.0375 0,-0.11207 -0.18836,-0.4119 -0.41858,-0.66629 -0.33833,-0.37386 -0.56423,-0.41175 -1.17835,-0.19767 -0.83603,0.29144 -9.00323,0.13295 -11.97018,-0.23229 l -1.79315,-0.22075 -0.27632,0.93266 c -0.3465,1.16957 -0.16488,7.12811 0.26634,8.73786 0.48307,1.8033 0.83769,4.25226 0.65788,4.5432 -0.28609,0.4629 -0.81244,-0.87347 -1.78943,-4.5432 -0.86133,-3.23531 -1.03222,-4.48217 -0.85829,-6.26232 0.38281,-3.918 1.11438,-8.63702 1.4697,-9.48038 0.12261,-0.29105 0.42217,-1.5412 0.66568,-2.77813 0.46558,-2.36495 0.90628,-3.90433 1.25787,-4.39382 0.52436,-0.73001 0.83388,-3.17801 0.83279,-6.58639 -0.001,-4.03307 -0.3207,-5.93624 -1.30729,-7.78954 -0.80024,-1.50324 -0.80038,-1.9164 -9.7e-4,-2.84518 0.68964,-0.80125 1.26689,-0.6514 0.7401,0.19212 -0.73165,1.17156 -0.11231,2.26522 1.10919,1.95865 0.94141,-0.23629 0.86279,-0.59326 -0.15276,-0.69355 -0.46173,-0.0456 -0.88403,-0.2187 -0.93843,-0.38467 -0.0974,-0.2973 0.30936,-0.39081 3.36545,-0.77355 0.80037,-0.10024 1.57427,-0.27073 1.71979,-0.37887 0.14552,-0.10814 0.74084,-0.27887 1.32292,-0.37939 1.08569,-0.1875 2.50223,-0.58669 3.43958,-0.96929 1.11924,-0.45685 3.43645,-1.0336 4.15266,-1.0336 0.41212,0 0.95606,-0.10851 1.20875,-0.24113 0.25268,-0.13262 1.05474,-0.43952 1.78234,-0.68201 3.13754,-1.04563 6.84312,-2.8806 7.331,-3.63025 0.21691,-0.33329 0.48253,-1.08224 0.59026,-1.66432 0.10774,-0.58208 0.31053,-1.1971 0.45064,-1.36671 0.36138,-0.43744 0.11367,-7.54516 -0.33191,-9.52358 -0.26929,-1.19569 -0.71948,-2.10518 -1.68999,-3.41415 -1.71416,-2.31199 -1.97576,-2.77176 -1.98047,-3.48074 -0.002,-0.323 -0.26209,-1.03737 -0.57766,-1.5875 -0.31557,-0.55013 -0.86591,-1.5954 -1.223,-2.32282 -0.35708,-0.72741 -0.90256,-1.5794 -1.21218,-1.8933 -0.75802,-0.76852 -1.00257,-1.11217 -1.60583,-2.25665 -0.28255,-0.53604 -0.79618,-1.12578 -1.14142,-1.31054 -0.34523,-0.18477 -1.06411,-0.93682 -1.59752,-1.67122 -1.18687,-1.63414 -1.31916,-1.76596 -2.25978,-2.25186 -0.41248,-0.21306 -1.10436,-0.80838 -1.53752,-1.32291 -1.37385,-1.63195 -2.15725,-2.39073 -2.4683,-2.39073 -0.16607,0 -1.0426,-0.69608 -1.94785,-1.54684 -0.90524,-0.85076 -1.96991,-1.71397 -2.36593,-1.91823 -0.39602,-0.20426 -1.34975,-0.8774 -2.11939,-1.49587 -0.76965,-0.61846 -1.48403,-1.12503 -1.5875,-1.1257 -0.10348,-6.7e-4 -0.56864,-0.35786 -1.03369,-0.79375 -0.46505,-0.43589 -1.04237,-0.79253 -1.28293,-0.79253 -0.46192,0 -2.27695,-0.77744 -2.50173,-1.07158 -0.11796,-0.15435 -1.27343,-0.70121 -2.77813,-1.31483 -1.60034,-0.65263 -3.29255,-1.06892 -6.35,-1.56215 -0.7276,-0.11738 -1.72265,-0.36464 -2.21122,-0.54946 -0.73762,-0.27904 -0.92735,-0.27388 -1.11844,0.0305 -0.12658,0.20158 -0.16851,0.56475 -0.0932,0.80704 0.0779,0.25053 -0.0751,0.59288 -0.35456,0.79375 -0.27033,0.19427 -0.71983,0.76994 -0.99889,1.27926 -0.27906,0.50933 -0.79955,1.25367 -1.15663,1.65411 -0.61526,0.68995 -0.62437,0.74625 -0.17411,1.07549 0.44895,0.32828 0.44076,0.36971 -0.14849,0.75144 -0.343,0.2222 -0.93241,0.47996 -1.3098,0.57279 -1.21663,0.29928 -1.95455,1.32888 -2.44006,3.40456 -0.24884,1.06388 -0.44807,2.52964 -0.44273,3.25724 0.009,1.25735 0.10418,1.7656 0.79094,4.23333 0.16199,0.58209 0.40685,1.50226 0.54414,2.04484 0.13728,0.54258 0.68108,1.90808 1.20843,3.03445 1.13542,2.42517 1.40172,4.13867 1.41366,9.09645 0.008,3.23296 -0.0575,3.75529 -0.6528,5.22026 -0.78472,1.93121 -0.84394,3.76953 -0.26161,8.12067 0.49694,3.71318 0.49375,5.4239 -0.0165,8.86354 -0.40963,2.76113 -0.54367,3.38611 -1.16589,5.43631 l -0.32494,1.07069 -2.4228,0.0138 c -4.47642,0.0255 -4.84299,0.0594 -5.19165,0.47947 -0.20943,0.25235 -0.23129,0.40805 -0.0573,0.40805 0.15475,0 0.35495,-0.11906 0.44489,-0.26458 0.0899,-0.14552 0.45415,-0.26458 0.80936,-0.26458 0.9997,0 0.77597,0.69805 -0.38837,1.21176 -0.56882,0.25096 -1.16264,0.73815 -1.3196,1.08265 -0.15696,0.34449 -0.76313,1.06561 -1.34704,1.60248 -0.5839,0.53687 -1.06164,1.11993 -1.06164,1.29569 0,0.17577 -0.14883,0.37962 -0.33073,0.45302 -0.24841,0.10024 -0.24211,0.13865 0.0253,0.15434 0.50174,0.0294 1.89293,-1.0058 1.89293,-1.4086 0,-0.36064 1.01255,-1.32788 2.1735,-2.07624 0.794,-0.51182 1.26608,-0.59286 1.26608,-0.21733 0,0.26162 -0.20036,0.47861 -1.61651,1.75073 -0.85899,0.77162 -0.89285,0.87259 -0.79843,2.38125 l 0.0986,1.57546 0.34612,-1.15705 c 0.3868,-1.29307 1.56063,-2.67941 2.26868,-2.67941 0.25523,0 0.53763,-0.11907 0.62757,-0.26459 0.0899,-0.14552 0.29078,-0.26458 0.44631,-0.26458 0.43364,0 0.0602,1.79034 -0.70373,3.37391 -0.36774,0.7623 -0.66862,1.81033 -0.66862,2.32895 0,1.29516 0.41844,0.9302 0.62007,-0.54082 0.16744,-1.22162 0.6797,-2.44246 1.29508,-3.08645 0.18699,-0.19569 0.48487,-0.68322 0.66195,-1.0834 0.17708,-0.40018 0.45375,-0.72761 0.6148,-0.72761 0.37446,0 0.18247,2.8836 -0.29237,4.39127 -0.2076,0.65915 -0.25363,1.28132 -0.11744,1.5875 0.17223,0.38724 0.26008,0.198 0.38039,-0.81939 0.2214,-1.87218 1.60002,-4.04914 1.60002,-2.52657 0,0.44645 -0.2255,1.75007 -0.67428,3.898 -0.2686,1.28555 -2.20474,0.81169 -2.25763,-0.55254 -0.0192,-0.49467 -0.0548,-0.48016 -0.33073,0.13478 -0.51154,1.13987 -0.99534,1.55987 -1.79684,1.55987 -0.7144,0 -0.76329,-0.0693 -0.7927,-1.12448 -0.0172,-0.61846 -0.012,-1.27331 0.0116,-1.45521 0.0763,-0.58768 -0.22163,-0.35445 -0.94652,0.74094 -0.56745,0.85746 -0.84583,1.05578 -1.39282,0.99219 -0.85359,-0.0992 -1.04697,-1.14921 -0.43691,-2.37212 0.22811,-0.45725 0.41475,-1.11924 0.41475,-1.47108 0,-0.58155 -0.0378,-0.60191 -0.41578,-0.22393 -0.4619,0.46191 -2.75922,0.58779 -2.75922,0.15119 0,-0.14552 -0.23572,-0.26458 -0.52382,-0.26458 -0.56004,0 -2.6956,-0.7764 -2.91577,-1.06004 -0.24475,-0.31533 -1.71347,-1.02047 -2.45412,-1.17825 -0.40389,-0.086 -0.94067,-0.36175 -1.19286,-0.61271 -0.25218,-0.25096 -1.11236,-0.86434 -1.9115,-1.36307 -0.79913,-0.49873 -1.6911,-1.10818 -1.98214,-1.35434 -0.29104,-0.24616 -0.85962,-0.52575 -1.2635,-0.62131 -0.40389,-0.0956 -1.41953,-0.85532 -2.257,-1.68837 -0.83746,-0.83304 -1.86216,-1.69197 -2.2771,-1.90872 -0.41494,-0.21676 -1.06387,-0.81207 -1.44208,-1.32292 -0.73896,-0.99812 -1.8617,-2.1181 -3.18522,-3.17738 -0.45428,-0.36358 -0.89246,-0.87055 -0.97372,-1.12659 -0.0813,-0.25603 -0.97287,-1.29721 -1.98134,-2.31371 -1.00847,-1.01651 -1.83358,-1.97381 -1.83358,-2.12734 0,-0.15352 -0.83344,-1.11755 -1.85209,-2.14227 -1.01864,-1.02473 -1.85208,-1.96751 -1.85208,-2.09507 0,-0.12757 -0.38695,-0.6263 -0.8599,-1.10828 -0.47294,-0.48199 -1.51474,-1.634 -2.3151,-2.56002 -0.80036,-0.92602 -1.67281,-1.93461 -1.93876,-2.24133 -0.58001,-0.6689 -2.13387,-2.28672 -2.61289,-2.72043 -0.18873,-0.17088 -0.73316,-0.73643 -1.20984,-1.25677 -0.47669,-0.52035 -0.93929,-0.94608 -1.028,-0.94608 -0.0887,0 -0.41307,-0.26789 -0.72079,-0.59531 -0.30773,-0.32743 -1.45248,-1.24714 -2.54389,-2.04382 -1.0914,-0.79668 -2.0439,-1.51381 -2.11666,-1.59361 -0.39496,-0.43322 -1.64018,-1.05893 -2.10736,-1.05893 -0.29616,0 -0.53848,-0.11906 -0.53848,-0.26458 0,-0.14552 -0.14712,-0.26459 -0.32693,-0.26459 -0.29353,0 -1.93174,-0.715 -3.99399,-1.7432 -0.41197,-0.2054 -1.01324,-0.37346 -1.33614,-0.37346 -0.32291,0 -0.70021,-0.10227 -0.83846,-0.22726 -0.56551,-0.51131 -4.39037,-0.83108 -9.94082,-0.83108 -3.23586,0 -6.24902,0.111 -6.69591,0.24666 -0.4469,0.13566 -1.34832,0.39453 -2.00316,0.57527 -0.65485,0.18074 -1.48828,0.47714 -1.85209,0.65867 -0.3638,0.18153 -1.40559,0.65794 -2.3151,1.05869 -0.9095,0.40075 -1.65365,0.82679 -1.65365,0.94676 0,0.11997 -0.30184,0.21812 -0.67076,0.21812 -0.84406,0 -1.78121,0.58409 -3.29799,2.05548 -0.65484,0.63525 -1.51804,1.35129 -1.91822,1.59118 -0.40019,0.2399 -0.72761,0.50876 -0.72761,0.59747 0,0.2035 -2.30216,3.20543 -2.73097,3.56108 -0.52217,0.43308 -1.23778,1.66897 -1.23778,2.1377 0,0.24009 -0.28474,0.98842 -0.63276,1.66295 -0.83766,1.62356 -1.64039,3.52825 -2.24526,5.32747 -0.17123,0.50933 -0.50182,2.71198 -0.73466,4.8948 -0.68451,6.41724 -0.005,12.12636 1.93667,16.27032 0.37541,0.80122 0.90608,1.92561 1.17928,2.49864 0.2732,0.57304 0.49673,1.17982 0.49673,1.34842 0,0.5044 0.81187,2.00804 1.99513,3.69512 0.61238,0.87312 1.3218,1.99724 1.5765,2.49804 0.79793,1.56891 4.79501,6.28914 5.08233,6.00182 0.0563,-0.0564 -0.18759,-0.74172 -0.54208,-1.52304 -0.79786,-1.7585 -1.23271,-3.13088 -1.23271,-3.89035 0,-0.31906 -0.1031,-0.78686 -0.22912,-1.03954 -0.3466,-0.69502 -0.85552,-2.20044 -1.09447,-3.23756 -0.11735,-0.50932 -0.40642,-1.58088 -0.64239,-2.38125 -0.23597,-0.80036 -0.4946,-1.93146 -0.57473,-2.51354 -0.0801,-0.58208 -0.2505,-1.29646 -0.37858,-1.5875 -0.29486,-0.67001 -0.78488,-7.18548 -0.78488,-10.43602 0,-5.30011 1.02269,-10.11089 2.83494,-13.33575 0.47808,-0.85073 0.87091,-1.7437 0.87296,-1.98438 0.002,-0.24068 0.66685,-1.09244 1.47733,-1.89281 0.81047,-0.80036 1.70377,-1.77406 1.98509,-2.16376 0.28133,-0.38971 0.92622,-0.84542 1.43309,-1.01271 0.50688,-0.16728 0.92296,-0.38421 0.92463,-0.48207 0.002,-0.0978 0.47792,-0.40543 1.05833,-0.6835 0.58041,-0.27808 1.0553,-0.6055 1.0553,-0.72761 0,-0.12211 0.21828,-0.22202 0.48507,-0.22202 0.26679,0 0.57234,-0.0873 0.67902,-0.19394 0.3075,-0.30751 2.23632,-0.86672 4.39216,-1.2734 2.36801,-0.4467 8.87181,-0.50319 11.34658,-0.0986 2.49245,0.40752 4.77667,1.01548 5.85133,1.55737 0.50933,0.25682 1.46183,0.72765 2.11667,1.0463 2.90465,1.4134 4.1659,2.21772 5.42058,3.45681 0.73861,0.72944 1.46386,1.32626 1.61165,1.32626 0.34092,0 2.22819,1.91937 2.22819,2.26609 0,0.14268 0.49032,0.67344 1.08961,1.17947 1.61616,1.36468 2.34997,2.18907 2.34997,2.64005 0,0.22137 0.37267,0.69884 0.82817,1.06104 1.42342,1.13191 3.14058,3.10543 3.14058,3.60946 0,0.19601 0.0997,0.35639 0.22152,0.35639 0.45539,0 3.48265,3.20606 3.48265,3.68835 0,0.1346 0.22047,0.31472 0.48995,0.40024 0.56229,0.17847 3.4788,3.18218 3.4788,3.58283 0,0.14634 0.12746,0.26608 0.28326,0.26608 0.41272,0 2.8541,2.11396 3.02085,2.61571 0.078,0.23485 0.7289,0.77489 1.44634,1.20009 0.71745,0.4252 1.8697,1.35578 2.56057,2.06796 0.69087,0.71218 1.64909,1.45906 2.12939,1.65974 0.4803,0.20069 1.18269,0.6743 1.56088,1.05249 0.88637,0.88636 2.31377,1.78306 5.27058,3.31099 1.30969,0.67678 2.61938,1.3563 2.91042,1.51006 1.8904,0.99868 3.2838,1.44539 5.29166,1.69645 6.06197,0.75799 12.52818,1.10494 13.03073,0.69917 0.22553,-0.1821 0.33073,-0.17554 0.33073,0.0206 0,0.7153 -1.16534,0.87843 -5.38218,0.75344 -2.35131,-0.0697 -4.69183,-0.19955 -5.20115,-0.28859 -0.50932,-0.089 -1.92266,-0.28532 -3.14076,-0.43621 -2.03958,-0.25263 -5.09164,-1.09745 -5.72278,-1.58408 -0.29422,-0.22685 -2.21234,-1.29856 -4.23334,-2.36529 -1.98851,-1.04959 -2.80453,-1.60697 -3.96602,-2.70895 -0.58059,-0.55084 -1.26579,-1.00153 -1.52267,-1.00153 -0.25687,0 -1.032,-0.56655 -1.72251,-1.259 -0.6905,-0.69245 -1.73171,-1.60614 -2.31379,-2.03042 -1.36967,-0.99836 -2.64316,-2.19566 -8.37332,-7.87238 -2.59796,-2.57373 -4.72356,-4.7809 -4.72356,-4.90481 0,-0.12392 -0.74414,-0.9947 -1.65365,-1.93507 -0.9095,-0.94038 -2.12459,-2.33486 -2.7002,-3.09884 -0.5756,-0.76398 -1.12702,-1.38906 -1.22537,-1.38906 -0.24563,0 -1.82911,-1.63896 -1.82911,-1.89319 0,-0.34154 -1.39232,-1.65045 -2.4476,-2.30097 -0.54581,-0.33646 -1.14112,-0.81349 -1.32291,-1.06006 -0.43474,-0.58966 -2.96386,-2.4187 -3.34448,-2.4187 -0.16347,0 -0.8619,-0.28391 -1.55206,-0.63091 -1.18437,-0.59549 -2.25177,-1.07774 -3.76837,-1.70255 -0.3638,-0.14988 -0.95911,-0.33389 -1.32292,-0.40891 -0.3638,-0.075 -1.19724,-0.2606 -1.85208,-0.41241 -1.35275,-0.3136 -7.05892,-0.82307 -7.50893,-0.67042 -0.16295,0.0553 -1.4869,0.22543 -2.94211,0.37811 -2.90282,0.30458 -4.51606,0.81493 -7.58509,2.39955 -1.11587,0.57615 -2.18894,1.04754 -2.3846,1.04754 -0.19567,0 -0.59237,0.32396 -0.88157,0.7199 -0.2892,0.39594 -1.16918,1.37821 -1.95551,2.18281 -0.82891,0.84818 -1.61452,1.96324 -1.86954,2.65354 -0.24193,0.65484 -0.71732,1.78594 -1.05643,2.51354 -0.9726,2.08683 -1.03337,2.26801 -1.46436,4.36563 -0.22425,1.0914 -0.53472,2.57969 -0.68994,3.30729 -0.32941,1.54411 -0.16403,8.99931 0.25237,11.37708 0.83096,4.74496 2.11898,10.20386 2.46765,10.45838 0.1052,0.0768 0.27455,0.96977 0.37633,1.98438 0.10179,1.01461 0.26408,1.90427 0.36065,1.97703 0.0966,0.0728 0.39618,0.84667 0.6658,1.7198 0.26962,0.87312 0.70867,1.97807 0.97567,2.45544 0.26699,0.47737 0.48544,1.01785 0.48544,1.20106 0,0.18322 0.39868,1.10233 0.88594,2.04247 0.48727,0.94015 0.96501,2.24514 1.06164,2.89998 0.0966,0.65485 0.31579,1.75618 0.487,2.4474 l 0.3113,1.25677 h 3.38956 c 1.86426,0 3.47674,0.0298 3.58328,0.0661 0.10654,0.0364 0.22883,-0.52917 0.27174,-1.25677 0.13248,-2.24619 0.226,-2.43435 1.31802,-2.65173 0.54706,-0.10891 4.03074,-0.2935 7.74152,-0.41021 25.0311,-0.78728 32.33094,-0.90157 57.74532,-0.90408 l 27.7151,-0.003 v -2.54169 -2.54169 l -2.71346,-0.13849 c -2.00688,-0.10243 -2.95421,-0.27319 -3.63802,-0.65579 -0.50851,-0.28451 -1.22222,-0.59327 -1.58602,-0.68613 -0.3638,-0.0928 -1.37583,-0.89596 -2.24896,-1.78468 l -1.5875,-1.61586 0.003,-2.29388 c 0.003,-2.05823 0.16494,-2.8661 0.93762,-4.67513 1.32169,-3.09436 1.34008,-3.41646 0.1836,-3.2165 -1.99222,0.34447 -2.57969,0.51139 -2.57969,0.73299 0,0.12901 -0.18661,0.23455 -0.4147,0.23455 -0.30697,0 -0.36798,-0.15465 -0.23485,-0.59531 0.25204,-0.83421 0.31766,-0.87013 2.19619,-1.20202 1.83019,-0.32335 2.9499,-1.17698 2.95291,-2.25119 9e-4,-0.31993 0.17949,-0.92272 0.39687,-1.33953 0.21739,-0.41682 0.39525,-0.91829 0.39525,-1.11439 0,-0.19609 0.40926,-1.22428 0.90946,-2.28486 0.50021,-1.06057 0.98692,-2.24602 1.0816,-2.63433 0.0947,-0.3883 0.52318,-1.0992 0.95224,-1.57979 0.79257,-0.88773 0.88446,-1.12822 1.14856,-3.00587 0.56087,-3.98763 0.97721,-8.34877 1.19979,-12.56771 0.14203,-2.69213 0.32243,-5.31151 0.4009,-5.82083 0.0785,-0.50932 0.18659,-4.31932 0.24026,-8.46667 0.0537,-4.14734 0.1202,-7.60015 0.14784,-7.67291 0.0276,-0.0728 0.17291,0.22489 0.32283,0.66146 0.28232,0.82209 0.58821,3.17806 0.90177,6.94531 l 0.18168,2.18281 h 0.86116 c 0.87214,0 2.44905,1.21201 4.90546,3.77031 0.52396,0.54571 1.14955,0.99219 1.39018,0.99219 0.24064,0 0.43752,0.0947 0.43752,0.21034 0,0.11569 0.53578,0.43128 1.19062,0.70133 0.65485,0.27005 1.19063,0.56305 1.19063,0.65112 0,0.0881 0.34149,0.31128 0.75887,0.49603 0.84426,0.37371 3.04626,2.43257 4.66509,4.36186 l 1.05833,1.2613 1.98438,-0.69683 c 1.0914,-0.38326 2.28929,-0.91316 2.66197,-1.17757 0.37268,-0.2644 0.99775,-0.56108 1.38906,-0.65929 0.39131,-0.0982 0.71147,-0.28473 0.71147,-0.41447 0,-0.12975 0.15059,-0.2359 0.33464,-0.2359 0.18406,0 0.79052,-0.24433 1.34769,-0.54296 1.04934,-0.56241 1.61574,-0.60097 1.28575,-0.0875 -0.24842,0.38651 -3.12573,2.21798 -3.48454,2.21798 -0.15251,0 -0.27729,0.11906 -0.27729,0.26458 0,0.14552 -0.15096,0.26458 -0.33546,0.26458 -0.1845,0 -0.75005,0.27572 -1.25677,0.61271 -0.57183,0.38029 -1.92497,0.80308 -3.56715,1.11456 -1.45521,0.27602 -2.70536,0.56683 -2.77812,0.64624 -0.0728,0.0794 -0.78714,0.3684 -1.5875,0.64219 -0.80037,0.27379 -1.56832,0.60024 -1.70657,0.72543 -0.13824,0.12519 -0.45574,0.22762 -0.70555,0.22762 -0.24981,0 -0.49389,0.10381 -0.5424,0.23068 -0.0971,0.2539 -2.98235,1.62141 -3.42098,1.62141 -0.15092,0 -0.6534,0.28771 -1.11664,0.63936 -0.46323,0.35166 -1.37802,0.84637 -2.03286,1.09938 -0.65485,0.25301 -1.36922,0.5955 -1.5875,0.76111 -0.21829,0.1656 -0.71291,0.45881 -1.09917,0.65158 -0.48717,0.24312 -0.7608,0.64486 -0.89329,1.3115 -0.33173,1.66919 -0.2108,6.40326 0.2442,9.55998 0.24121,1.67349 0.5565,4.88818 0.70064,7.14375 0.14414,2.25558 0.36849,5.5298 0.49856,7.27605 0.72045,9.6722 0.64245,12.73791 -0.45167,17.75364 -0.23469,1.07584 -1.31182,3.5557 -1.65484,3.8099 -0.0982,0.0728 -0.25749,0.56207 -0.35401,1.08737 -0.3085,1.67903 -4.58056,5.26263 -6.27367,5.26263 -0.24893,0 -1.1493,0.3739 -2.00082,0.8309 -0.85153,0.45699 -1.88441,1.00586 -2.2953,1.21971 -0.41089,0.21385 -0.81031,0.55364 -0.88762,0.75508 -0.0773,0.20145 -0.25432,0.29595 -0.39337,0.21001 -0.27255,-0.16844 -1.9032,0.41727 -1.70725,0.61322 0.065,0.065 0.37922,-0.0216 0.69835,-0.19241 1.15251,-0.61681 1.00824,0.16671 -0.26911,1.46156 -1.32052,1.3386 -1.62839,1.98109 -0.94931,1.98109 0.20616,0 0.43488,0.14883 0.50828,0.33073 0.0734,0.1819 0.14285,0.0911 0.15434,-0.20178 0.0115,-0.29288 0.31855,-0.75605 0.68235,-1.02925 0.3638,-0.2732 0.66146,-0.71143 0.66146,-0.97384 0,-0.54798 0.95284,-1.30086 1.64637,-1.30086 0.61051,0 0.61263,0.80607 0.003,0.96561 -0.45922,0.12009 -1.80845,2.47398 -1.41807,2.47398 0.26537,0 1.62124,-1.42445 1.62124,-1.70324 0,-0.32897 1.0881,-1.20718 1.49569,-1.20718 0.41736,0 0.47494,0.42467 0.0899,0.66267 -0.21746,0.13439 -1.32097,2.15741 -1.32097,2.42168 0,0.041 0.41065,0.0591 0.91256,0.0402 0.76972,-0.0289 0.92502,-0.1398 0.99219,-0.70829 0.0748,-0.63281 2.00399,-2.41629 2.61374,-2.41629 0.54042,0 0.1857,0.76903 -0.83504,1.81033 -1.15798,1.18133 -0.9979,1.63826 0.38919,1.11089 0.39837,-0.15146 1.5444,-0.27539 2.54672,-0.27539 1.59016,0 3.0086,-0.32857 3.43481,-0.79566 0.0728,-0.0797 0.62069,-0.3602 1.21763,-0.62323 0.59693,-0.26304 1.37672,-0.73601 1.73284,-1.05104 1.18136,-1.04501 1.77358,-1.23423 3.86288,-1.23423 1.55253,0 2.30053,-0.12998 3.04534,-0.52917 1.16888,-0.62648 1.25381,-0.63819 1.25381,-0.17277 0,0.64798 -0.91173,1.42062 -1.85208,1.56953 -2.87603,0.45542 -4.4471,1.15242 -5.82084,2.58239 -0.85892,0.89408 -2.6975,1.31252 -5.76712,1.31252 -1.85494,0 -3.16264,0.11949 -3.48056,0.31803 -0.38027,0.23748 -0.66416,0.24356 -1.12089,0.024 -1.09226,-0.52509 -1.42159,-0.55526 -2.08017,-0.19054 -0.73075,0.40468 -1.47932,0.48062 -1.67156,0.16958 z m -3.87136,-3.62835 c 0.34177,-0.36381 0.49617,-0.66146 0.3431,-0.66146 -0.15307,0 -0.42653,0.17859 -0.60769,0.39687 -0.18115,0.21828 -0.50042,0.39688 -0.70947,0.39688 -0.20905,0 -0.30651,0.11906 -0.21657,0.26458 0.25269,0.40886 0.5162,0.32102 1.19063,-0.39687 z m 43.65625,-7.67292 c 0,-0.97014 0.11533,-1.71979 0.26458,-1.71979 0.14552,0 0.26458,-0.13518 0.26458,-0.30039 0,-0.16522 0.28056,-0.5604 0.62346,-0.87819 0.3429,-0.3178 0.67735,-0.73948 0.74322,-0.93708 0.20259,-0.60778 0.74999,-0.0178 0.74999,0.80836 0,1.00188 0.66847,1.03903 0.90941,0.0505 0.20005,-0.82068 0.56672,-2.45227 0.81758,-3.63802 0.0924,-0.43657 0.32435,-1.15094 0.51553,-1.5875 1.23733,-2.82547 1.56602,-3.89262 1.50016,-4.87053 -0.0651,-0.96676 -0.90962,-2.14093 -1.53984,-2.14093 -0.19292,0 -0.35076,-0.11907 -0.35076,-0.26459 0,-0.15648 -0.95783,-0.26458 -2.34432,-0.26458 -3.05895,0 -4.66156,-0.23257 -5.24921,-0.76175 -0.26194,-0.23588 -1.33877,-0.84559 -2.39296,-1.35492 -1.05418,-0.50932 -1.91739,-1.01533 -1.91823,-1.12448 -8.4e-4,-0.10914 -0.35169,-0.19843 -0.77966,-0.19843 -0.42798,0 -0.85172,-0.11907 -0.94166,-0.26459 -0.0899,-0.14552 -0.33745,-0.26458 -0.55004,-0.26458 -0.21258,0 -0.83064,-0.27272 -1.37345,-0.60605 -0.54281,-0.33333 -1.52271,-0.83161 -2.17755,-1.10729 -0.65484,-0.27568 -1.43642,-0.71733 -1.73685,-0.98145 -0.30042,-0.26412 -0.6576,-0.47928 -0.79375,-0.47814 -0.19742,0.002 -1.97368,5.02158 -1.96864,5.56363 7.3e-4,0.078 0.20968,0.15216 0.46434,0.1649 0.38998,0.0195 4.23175,0.49353 6.01927,0.74269 0.29105,0.0406 1.27331,0.089 2.18282,0.10753 1.49492,0.0305 1.65364,0.0873 1.65364,0.59161 0,0.47684 -0.10566,0.5311 -0.7276,0.37362 -0.40018,-0.10133 -2.47273,-0.28273 -4.60565,-0.4031 -2.13292,-0.12038 -4.11939,-0.34804 -4.41438,-0.50591 -0.76901,-0.41156 -0.8357,-0.37345 -0.8357,0.47753 0,0.83068 -0.0835,0.80415 5.02708,1.59779 0.80037,0.12429 2.05052,0.36793 2.77813,0.54141 1.23926,0.29549 1.59072,0.41414 3.10885,1.04957 0.32742,0.13705 1.01203,0.32998 1.52136,0.42874 1.50562,0.29195 2.32823,0.84825 2.81293,1.90227 0.25082,0.54543 0.68503,1.3246 0.96492,1.73149 0.9728,1.41423 1.5411,4.96733 0.96628,6.04138 -0.20177,0.37703 -0.20027,0.6283 0.005,0.87595 0.15851,0.191 0.3156,1.01582 0.34909,1.83293 0.0845,2.0621 0.45777,1.87485 0.45777,-0.22964 z m 0.16197,-4.97925 c -0.0851,-0.31735 -0.15637,-0.89081 -0.15836,-1.27436 -0.002,-0.38355 -0.18148,-1.03839 -0.39886,-1.45521 -0.21738,-0.41682 -0.39598,-0.96511 -0.39687,-1.21844 -9e-4,-0.25332 -0.41688,-0.72957 -0.9244,-1.05833 -1.19332,-0.773 -1.22672,-1.29886 -0.0694,-1.09306 0.95055,0.16903 2.05052,1.19488 2.05052,1.91236 0,0.25382 0.10377,0.57461 0.23061,0.71285 0.12683,0.13825 0.29995,1.04439 0.38471,2.01365 0.1179,1.34831 0.0698,1.79463 -0.20454,1.89992 -0.2141,0.0822 -0.421,-0.0949 -0.51339,-0.43938 z m -1.95411,4.82303 c 0.127,-0.86529 0.0836,-0.88457 -1.0788,-0.47936 -0.93007,0.32423 -1.05049,0.68296 -0.3911,1.16512 0.67402,0.49286 1.3427,0.1809 1.4699,-0.68576 z m 3.47186,0.8825 c 0.0679,-0.10987 -0.10366,-0.48025 -0.38126,-0.82306 l -0.50471,-0.6233 v 0.82306 c 0,0.76943 0.55454,1.15957 0.88597,0.6233 z m 23.19081,-7.12681 c 1.6e-4,-0.31884 0.10562,-0.64479 0.23435,-0.72435 0.12873,-0.0796 0.31063,-0.6553 0.40422,-1.27942 0.0936,-0.62412 0.3448,-1.47136 0.55823,-1.88275 0.31365,-0.60455 0.33921,-1.13593 0.1333,-2.77109 -0.40617,-3.22547 -1.01735,-5.08284 -2.81055,-8.54121 -0.34976,-0.67454 -0.63592,-1.41868 -0.63592,-1.65364 0,-0.23497 -0.10031,-0.42722 -0.22292,-0.42722 -0.1226,0 -0.44734,-0.41672 -0.72162,-0.92604 -0.27429,-0.50932 -0.5907,-0.92604 -0.70313,-0.92604 -0.11242,0 -0.20441,-0.1284 -0.20441,-0.28533 0,-0.15693 -0.44649,-0.74096 -0.99219,-1.29784 -0.5457,-0.55689 -1.27012,-1.38218 -1.60981,-1.83398 -0.33969,-0.4518 -1.17313,-1.19403 -1.85208,-1.6494 -0.67896,-0.45536 -1.35353,-0.9705 -1.49905,-1.14475 -0.14552,-0.17425 -0.97896,-0.71291 -1.85208,-1.19702 -0.87313,-0.48411 -1.97807,-1.09888 -2.45544,-1.36615 -0.47737,-0.26727 -1.19175,-0.48526 -1.5875,-0.48441 -0.39576,8.4e-4 -2.16228,-0.19744 -3.9256,-0.44063 -3.02748,-0.41753 -3.41061,-0.41596 -6.87916,0.0281 -2.06873,0.26486 -4.16921,0.69136 -4.80886,0.97643 -0.62466,0.27838 -1.63669,0.70318 -2.24896,0.94398 -0.61228,0.24081 -1.52995,0.69461 -2.03927,1.00847 -1.30173,0.80214 -3.34507,1.54047 -3.68384,1.33111 -0.19237,-0.1189 -0.28943,0.40905 -0.29883,1.62546 -0.008,0.99085 -0.17449,2.69452 -0.37073,3.78593 -0.19625,1.0914 -0.33882,1.98437 -0.31681,1.98437 0.022,0 0.4366,0.20836 0.92134,0.46302 0.48473,0.25466 1.05028,0.46302 1.25677,0.46302 0.20649,0 0.37543,0.11907 0.37543,0.26459 0,0.14552 0.27002,0.26458 0.60004,0.26458 0.33002,0 1.01463,0.27522 1.52136,0.61159 0.50672,0.33637 1.51662,0.82073 2.24423,1.07634 1.48448,0.52152 5.09914,2.21211 5.65313,2.644 0.73382,0.57208 2.35823,0.95813 5.19478,1.23457 2.00207,0.19511 3.11323,0.42976 3.56023,0.75186 0.97207,0.70044 1.6443,2.07991 1.54927,3.17924 -0.0925,1.07054 -0.24573,1.03279 2.80156,0.69035 1.45238,-0.16322 3.69117,0.0901 6.00641,0.67961 l 0.95288,0.24263 0.16833,2.05168 c 0.27768,3.38448 -0.0775,3.11001 4.02438,3.11001 3.48513,0 3.55823,-0.0119 3.55852,-0.5797 z m -33.23384,-5.28695 c -0.56617,-0.17072 -1.29027,-0.31955 -1.6091,-0.33073 -0.31883,-0.0112 -0.65328,-0.1394 -0.74322,-0.28492 -0.0899,-0.14552 -0.51519,-0.26458 -0.94501,-0.26458 -0.42981,0 -1.64318,-0.24938 -2.69636,-0.55419 -1.05318,-0.3048 -2.35057,-0.64403 -2.88308,-0.75384 -0.95932,-0.19781 -0.96925,-0.19091 -1.08166,0.75263 -0.0624,0.52375 -0.19351,1.13087 -0.29135,1.34915 -0.1551,0.34604 0.55594,0.39688 5.55064,0.39688 4.79128,0 5.56011,-0.0508 4.69914,-0.3104 z M 701.65321,257.04 c -0.39005,-8.83391 -1.41947,-21.25506 -2.10864,-25.4433 -0.0531,-0.32256 -0.55035,0.32821 -2.10452,2.75415 -0.18605,0.29041 -0.54664,0.84458 -0.8013,1.23147 -0.25466,0.38689 -0.46352,0.92318 -0.46413,1.19176 -6.1e-4,0.26857 -0.29826,1.07404 -0.66146,1.78993 -0.36319,0.71589 -0.66035,1.49307 -0.66035,1.72707 0,0.234 -0.16127,0.6603 -0.35837,0.94734 -0.19711,0.28704 -0.42317,0.81955 -0.50236,1.18335 -0.13475,0.61906 -0.53405,1.81856 -1.01289,3.04271 -0.11384,0.29104 -0.26506,0.88636 -0.33603,1.32292 -0.071,0.43656 -0.37369,1.80578 -0.67269,3.04271 -0.90231,3.73263 -0.72967,5.14574 0.80818,6.6154 0.8446,0.80714 3.87861,2.38043 4.59055,2.38043 0.19954,0 0.43638,0.11906 0.52632,0.26458 0.0899,0.14552 0.48392,0.26641 0.87551,0.26864 0.3916,0.002 0.89058,0.11947 1.10887,0.26053 0.21828,0.14106 0.73483,0.2583 1.14788,0.26053 l 0.75102,0.004 z m -3.5121,1.32292 c -0.28361,-0.25466 -1.07997,-0.91748 -1.76968,-1.47292 -0.68972,-0.55545 -1.25403,-1.18053 -1.25403,-1.38906 0,-0.51995 0.3354,-0.47544 1.13053,0.15 0.37,0.29104 0.75725,0.52917 0.86056,0.52917 0.30655,0 2.24224,2.02881 2.24224,2.35012 0,0.44308 -0.62633,0.35645 -1.20962,-0.16731 z m 57.37294,-5.35781 c -0.10049,-3.30703 -0.40132,-4.97949 -1.15345,-6.41256 -0.13262,-0.25269 -0.24112,-0.62972 -0.24112,-0.83785 0,-0.20812 -0.10165,-0.4181 -0.22588,-0.46661 -0.12424,-0.0485 -0.64807,-0.98116 -1.16408,-2.07257 -1.46786,-3.10467 -2.8714,-4.64488 -5.22463,-5.73337 -1.0914,-0.50484 -2.46062,-1.14325 -3.0427,-1.41871 -0.58209,-0.27545 -1.53459,-0.58038 -2.11667,-0.67762 -0.58208,-0.0972 -1.1774,-0.26623 -1.32292,-0.37555 -0.80826,-0.60717 -9.35253,-0.83355 -12.43541,-0.32947 -2.71256,0.44352 -5.67105,1.03849 -6.87917,1.38343 -0.58208,0.1662 -1.50884,0.41598 -2.05946,0.55508 -0.55062,0.13909 -1.20547,0.35776 -1.45521,0.48592 -0.24974,0.12817 -1.10892,0.37248 -1.90929,0.54292 -0.80036,0.17044 -1.88331,0.49059 -2.40654,0.71144 -0.81977,0.34601 -0.93378,0.49916 -0.82439,1.10738 0.0698,0.38822 0.22773,0.83433 0.35091,0.99138 0.12318,0.15704 0.3598,1.19883 0.52582,2.3151 0.23852,1.60368 0.39505,2.02957 0.74595,2.02957 0.24425,0 0.55719,-0.10913 0.69544,-0.24252 0.13824,-0.13338 0.78714,-0.53158 1.44198,-0.88488 0.65484,-0.35329 1.54781,-0.84026 1.98437,-1.08215 1.7991,-0.99684 3.97902,-1.81156 5.50447,-2.05722 0.89163,-0.1436 1.75235,-0.36998 1.91272,-0.50307 0.46926,-0.38945 5.88955,-0.58068 8.19323,-0.28906 3.38849,0.42895 7.01146,1.26126 7.01146,1.61075 0,0.0942 0.47748,0.38198 1.06107,0.63946 0.58359,0.25748 1.46448,0.84594 1.95753,1.30769 0.49306,0.46175 1.2955,1.06963 1.7832,1.35085 0.48771,0.28121 1.1844,0.85535 1.5482,1.27586 0.3638,0.42051 1.38454,1.57584 2.2683,2.5674 0.88376,0.99156 1.95532,2.50101 2.38125,3.35434 0.42592,0.85333 0.8637,1.5912 0.97284,1.63971 0.10914,0.0485 0.19889,0.2271 0.19944,0.39687 5.4e-4,0.16978 0.35728,1.02306 0.79275,1.89618 0.43547,0.87313 0.8063,1.7661 0.82406,1.98438 0.0178,0.21828 0.11829,0.0397 0.22338,-0.39688 0.1051,-0.43656 0.14224,-2.40109 0.0825,-4.36562 z m -74.68415,-3.20623 c 0,-0.14552 -0.11907,-0.191 -0.26459,-0.10106 -0.14552,0.0899 -0.26458,0.28258 -0.26458,0.4281 0,0.14552 0.11906,0.191 0.26458,0.10106 0.14552,-0.0899 0.26459,-0.28258 0.26459,-0.4281 z m 2.54585,-3.33195 c -0.16208,-0.16208 -0.95929,1.52414 -0.95254,2.01477 0.003,0.2323 0.24343,-0.10138 0.53387,-0.74151 0.29043,-0.64013 0.47883,-1.2131 0.41867,-1.27326 z m -5.85698,-0.5881 c 0.16845,-0.76697 0.84528,-1.63426 1.65342,-2.11872 0.44432,-0.26636 0.44452,-0.29353 0.004,-0.55773 -0.72233,-0.43327 -0.55561,-0.92439 0.65525,-1.9302 l 1.11828,-0.92891 -0.7214,-0.56745 c -0.39677,-0.3121 -0.7214,-0.7168 -0.7214,-0.89935 0,-0.31302 -3.19131,-0.95869 -4.71703,-0.95436 -0.84096,0.002 -4.50478,-1.76379 -5.41874,-2.61214 l -0.74306,-0.68973 -0.93253,1.12264 c -0.69864,0.84108 -1.12218,1.12264 -1.68872,1.12264 -0.4159,0 -0.82259,-0.10744 -0.90375,-0.23876 -0.0812,-0.13132 -0.50925,0.0991 -0.95129,0.51203 -0.44205,0.41293 -1.06729,0.78887 -1.38941,0.83541 -0.53385,0.0771 -0.48032,0.18372 0.60495,1.20447 0.65484,0.61591 1.32444,1.12132 1.48799,1.12314 0.38692,0.004 5.49634,3.39196 5.61166,3.72066 0.0485,0.13826 0.25687,0.25139 0.46302,0.25139 0.20615,0 0.37483,0.11906 0.37483,0.26458 0,0.14552 0.27116,0.26458 0.60258,0.26458 0.33143,0 0.8837,0.1969 1.22728,0.43755 0.34357,0.24065 1.2928,0.76318 2.10939,1.16116 1.628,0.79346 2.00451,0.70691 2.27462,-0.5229 z m 8.20592,-6.48509 c 0.7276,-4.1e-4 1.63414,0.0943 2.01452,0.21038 0.57307,0.17493 0.71621,0.11705 0.83513,-0.3377 0.13837,-0.52913 0.0458,-0.54881 -2.58153,-0.54881 -2.12368,0 -2.75721,0.0838 -2.87078,0.37978 -0.17195,0.44808 0.31939,0.70789 0.88287,0.46686 0.21828,-0.0934 0.99218,-0.17011 1.71979,-0.17051 z m -3.52363,-1.07301 c 0.43236,-0.3638 1.04486,-0.67057 1.36112,-0.6817 0.6226,-0.0219 1.26421,-0.12753 2.19688,-0.36161 0.32706,-0.0821 0.66851,-0.0298 0.75878,0.1163 0.0903,0.14605 0.43093,0.26555 0.75703,0.26555 0.51274,0 0.63785,-0.21761 0.92534,-1.60952 0.18285,-0.88523 0.46689,-1.92703 0.6312,-2.3151 0.55638,-1.31401 0.93142,-3.82163 0.69799,-4.66703 -0.12891,-0.46685 -0.55425,-1.00912 -0.99642,-1.27031 l -0.7715,-0.45574 -0.30148,1.52083 c -0.16582,0.83646 -0.4103,2.0974 -0.5433,2.80209 -0.26206,1.38847 -0.60656,1.94359 -1.44572,2.32954 -1.30126,0.59849 -1.87068,1.01154 -1.39994,1.01551 0.83251,0.007 0.49129,0.62844 -1.27064,2.31406 -1.73061,1.65567 -2.08738,2.24924 -0.59934,0.99713 z m -19.94025,-2.4352 c 0.24482,-0.0857 0.76288,-0.44912 1.15123,-0.80749 0.74728,-0.68957 1.57438,-0.6079 0.98883,0.0976 -0.38388,0.46256 -0.33188,0.5128 0.74223,0.71714 0.93074,0.17705 1.32188,-0.0865 2.11099,-1.42234 0.25611,-0.43355 0.79008,-0.93189 1.1866,-1.10741 0.39653,-0.17551 0.86846,-0.59474 1.04875,-0.93161 0.18029,-0.33687 1.04947,-1.3168 1.93152,-2.17764 0.88205,-0.86083 2.02045,-2.06495 2.52977,-2.67582 0.50932,-0.61087 1.37253,-1.40627 1.91823,-1.76756 0.5457,-0.3613 0.99219,-0.79543 0.99219,-0.96474 0,-0.16931 0.72409,-1.07117 1.60909,-2.00412 0.88501,-0.93295 1.79274,-2.05139 2.01718,-2.48542 0.22445,-0.43403 0.6473,-0.98285 0.93967,-1.2196 0.43892,-0.35541 0.47965,-0.52749 0.23365,-0.98714 -0.18929,-0.35369 -0.32911,-2.85588 -0.38343,-6.86144 -0.0824,-6.07708 -0.49253,-11.12472 -0.97749,-12.03091 -0.29741,-0.55572 -0.0231,-0.84083 0.43959,-0.45685 0.19529,0.16207 0.35507,0.63026 0.35507,1.04042 0,0.41016 0.10591,0.81119 0.23535,0.89119 0.12944,0.08 0.30077,0.53351 0.38073,1.0078 0.08,0.4743 0.26996,1.5172 0.42222,2.31756 0.15227,0.80037 0.26903,4.57396 0.25948,8.38577 -0.0142,5.64776 -0.0869,6.98825 -0.393,7.24229 -0.20659,0.17145 -0.37561,0.455 -0.37561,0.63009 0,0.38575 1.07898,1.43082 1.8997,1.83999 0.32814,0.16359 0.95768,0.79132 1.39898,1.39493 0.4413,0.60362 1.21908,1.31641 1.7284,1.58398 0.50932,0.26757 0.96573,0.57579 1.01424,0.68493 0.0485,0.10914 0.25095,0.19844 0.44987,0.19844 0.19892,0 0.47773,0.20737 0.61956,0.46081 0.45348,0.81032 0.61733,0.15476 0.32485,-1.29973 -0.15595,-0.77552 -0.31518,-2.54113 -0.35385,-3.92358 -0.062,-2.21851 0.006,-2.66883 0.5804,-3.83646 0.6072,-1.23447 0.66195,-1.69439 0.81886,-6.87917 l 0.16815,-5.55625 -0.78534,-1.15343 c -0.44254,-0.64996 -0.86092,-1.03116 -0.95848,-0.8733 -0.60844,0.98448 -3.47831,-3.51029 -3.85843,-6.04306 -0.0983,-0.65484 -0.55615,-1.95146 -1.01749,-2.88136 -0.70036,-1.41169 -0.99558,-1.74258 -1.78871,-2.00481 -0.52245,-0.17274 -1.38447,-0.64553 -1.9156,-1.05064 -0.85552,-0.65253 -1.18934,-0.73657 -2.92602,-0.73657 -1.72312,0 -2.20386,0.11872 -3.97277,0.98107 -1.51998,0.741 -2.05296,1.14253 -2.17804,1.64087 -0.21255,0.84688 0.2684,2.45211 0.95576,3.18989 0.29454,0.31616 0.53554,0.65112 0.53554,0.74436 0,0.0932 0.16463,0.54469 0.36585,1.00325 0.64606,1.47228 0.91475,2.39105 1.09497,3.74415 0.0969,0.7276 0.27001,1.44198 0.38467,1.5875 0.11466,0.14552 0.27103,0.6813 0.3475,1.19062 0.0765,0.50933 0.26454,1.4023 0.41795,1.98438 0.15342,0.58208 0.29309,3.05149 0.31039,5.48758 0.0173,2.43609 0.13854,4.49543 0.26943,4.57633 0.28439,0.17576 -0.13936,0.98676 -1.14024,2.18227 -0.40018,0.47801 -0.7276,1.06281 -0.7276,1.29955 0,0.51832 -1.87422,3.78448 -2.17164,3.78448 -0.11529,0 -0.20961,0.17009 -0.20961,0.37797 0,0.20789 -0.15999,0.53796 -0.35552,0.7335 -0.19554,0.19553 -0.68617,0.8793 -1.09029,1.51947 -0.40413,0.64017 -0.96842,1.41143 -1.254,1.7139 -0.28557,0.30247 -1.07486,1.24124 -1.75398,2.08615 l -1.23476,1.53621 -1.43166,-0.1715 c -0.78741,-0.0943 -1.63658,-0.29948 -1.88704,-0.4559 -0.32133,-0.20068 -0.79559,-0.20286 -1.61105,-0.007 l -1.15566,0.27698 1.24115,0.0318 c 0.68264,0.0175 1.31678,0.15413 1.40921,0.30368 0.17073,0.27625 -1.31917,1.84476 -1.7523,1.84476 -0.13013,0 -0.2366,0.11714 -0.2366,0.2603 0,0.27601 1.86657,-0.49508 2.15323,-0.88951 0.0929,-0.12778 0.31099,-0.14449 0.48471,-0.0371 0.2217,0.13701 0.0974,0.4232 -0.41679,0.95994 l -0.73266,0.76472 h 0.69535 c 0.38244,0 0.75817,0.10166 0.83495,0.2259 0.1345,0.21762 -0.92958,0.83244 -1.44072,0.83244 -0.13701,0 -0.47814,0.1961 -0.75806,0.43578 -0.54745,0.46874 -0.46778,1.15172 0.13434,1.15172 0.20271,0 0.38762,0.14883 0.41091,0.33073 0.0233,0.1819 0.0909,-0.0631 0.15018,-0.54434 0.063,-0.51078 0.29315,-0.93997 0.55297,-1.03097 z m 16.05554,1.50916 c 0.0899,-0.14552 0.3455,-0.26458 0.56792,-0.26458 0.22242,0 1.06217,-0.64222 1.86611,-1.42716 0.94931,-0.92687 1.99893,-1.64055 2.99422,-2.03587 1.63562,-0.64967 1.56196,-0.5405 2.39428,-3.54843 0.79874,-2.88655 0.8174,-3.83646 0.0754,-3.83646 -0.41456,0 -4.84992,-4.46323 -4.86359,-4.89416 -0.005,-0.14587 -0.17677,-0.0429 -0.38254,0.22877 -0.20577,0.27169 -0.73776,0.8936 -1.18221,1.38201 -0.44445,0.48842 -0.80809,0.94983 -0.80809,1.02536 0,0.32288 -4.19837,4.82335 -7.59793,8.14464 -1.05016,1.02599 -1.84781,1.96506 -1.77256,2.08682 0.33102,0.5356 5.57295,2.87473 6.45072,2.87853 0.51447,0.002 1.11399,0.11947 1.33227,0.26053 0.50834,0.32852 0.72301,0.32852 0.92604,0 z m 3.84233,-0.79928 c 1.37168,-1.29184 1.21471,-1.6999 -0.21756,-0.56553 -1.42173,1.12604 -1.82599,1.62939 -1.30861,1.62939 0.21811,0 0.90489,-0.47873 1.52617,-1.06386 z m 33.25997,0.37485 c -0.0879,-0.0879 -0.31612,-0.0973 -0.50711,-0.0209 -0.21107,0.0845 -0.14838,0.14715 0.15985,0.15985 0.27891,0.0115 0.43518,-0.0511 0.34726,-0.13896 z m 29.12842,-2.30661 c -0.19239,-0.19239 -0.90011,-0.55996 -1.5727,-0.81683 -0.6726,-0.25687 -1.57678,-0.78407 -2.0093,-1.17156 -3.41997,-3.06396 -3.13218,-2.97837 -5.33182,-1.58585 -0.96492,0.61085 -2.2737,1.30874 -2.90841,1.55086 l -1.15401,0.44022 3.66755,0.15309 c 3.44853,0.14394 5.89197,0.47623 7.10714,0.96651 0.77396,0.31227 2.08319,0.75272 2.334,0.7852 0.11954,0.0155 0.0599,-0.12926 -0.13245,-0.32164 z m -86.33905,-1.23771 c 0.0899,-0.14552 0.39462,-0.26458 0.67707,-0.26458 0.81725,0 0.59467,-0.52618 -0.29811,-0.70473 -0.85071,-0.17014 -1.73697,-1.19163 -1.44448,-1.66489 0.0939,-0.15192 0.61017,-0.28808 1.14728,-0.30259 0.84139,-0.0227 0.88501,-0.0517 0.31512,-0.20928 -0.42234,-0.11679 -0.69379,-0.40766 -0.75089,-0.80462 -0.0659,-0.45825 0.0128,-0.58249 0.29929,-0.47254 0.21379,0.082 0.84935,-0.015 1.41234,-0.21573 0.563,-0.20069 0.87802,-0.37012 0.70004,-0.37651 -0.4172,-0.015 -6.42328,-5.93067 -6.42328,-6.32662 0,-0.16477 -0.15096,-0.29958 -0.33546,-0.29958 -0.59557,0 -2.17453,-1.23541 -2.57887,-2.01776 -0.21613,-0.4182 -0.6364,-0.95813 -0.93393,-1.19984 -0.71465,-0.58057 -1.60836,-2.26209 -1.34289,-2.52664 0.11529,-0.11488 0.44973,0.0888 0.7432,0.45258 1.8876,2.33997 4.20363,4.38946 4.55887,4.03421 0.26549,-0.26549 3.12677,-1.11553 3.76963,-1.1199 0.3153,-0.002 0.61295,-0.11732 0.66146,-0.25595 0.10408,-0.29746 2.94051,-1.07086 3.92733,-1.07086 0.37688,0 0.79835,-0.095 0.93659,-0.2112 0.13825,-0.11617 0.9062,-0.4342 1.70657,-0.70675 0.80036,-0.27254 2.43601,-0.99767 3.63477,-1.61138 1.19877,-0.61372 2.49079,-1.19396 2.87116,-1.28942 l 0.6916,-0.17358 -0.57318,-0.49712 c -0.61772,-0.53574 -0.80602,-1.87569 -0.34382,-2.4467 0.29486,-0.36427 0.5524,-2.77372 0.7292,-6.82219 0.0604,-1.38244 0.0236,-2.27541 -0.0818,-1.98437 -0.10537,0.29104 -0.46897,1.12448 -0.80799,1.85208 -0.97099,2.08392 -1.05292,2.31556 -1.22744,3.47052 -0.18394,1.21729 -0.73226,1.77276 -4.10251,4.15603 -2.53879,1.79531 -5.32283,3.35366 -5.9914,3.35366 -0.28621,0 -1.13738,0.29766 -1.89151,0.66146 -0.75412,0.3638 -1.5545,0.66146 -1.77862,0.66146 -0.22411,0 -0.67118,0.16959 -0.99348,0.37686 -0.50244,0.32312 -1.92069,0.53072 -3.02309,0.44252 -0.56979,-0.0456 -1.39937,-1.16423 -1.39937,-1.88696 0,-1.18833 -1.75418,-4.22409 -2.44084,-4.22409 -0.16348,0 -0.0384,0.27557 0.27805,0.61237 0.9805,1.04369 0.59084,2.03346 -0.80055,2.03346 -0.41609,0 -0.74098,0.14498 -0.74117,0.33073 -2.2e-4,0.2093 0.38668,0.33073 1.05373,0.33073 1.11941,0 1.59423,0.47244 0.61489,0.6118 -0.37952,0.054 -0.53012,0.21441 -0.43472,0.46302 0.0803,0.20922 0.0593,0.38039 -0.0465,0.38039 -0.10587,0 -2.22142,-2.08359 -4.70123,-4.63021 -2.4798,-2.54661 -4.65818,-4.63021 -4.84085,-4.63021 -0.18266,0 -0.3718,-0.094 -0.42031,-0.20887 -0.0833,-0.19725 -1.98396,-1.41589 -3.83979,-2.46193 -0.46264,-0.26077 -1.05796,-0.46961 -1.32291,-0.46408 -0.26496,0.006 -1.49819,-0.35105 -2.74051,-0.79238 -5.26136,-1.86911 -6.05229,-2.00839 -11.42546,-2.01199 -3.57064,-0.002 -5.04382,0.0875 -5.27844,0.32213 -0.179,0.179 -0.6686,0.32546 -1.08799,0.32546 -0.4194,0 -1.61598,0.28866 -2.65906,0.64147 -1.04309,0.35281 -2.13466,0.7039 -2.4257,0.7802 -0.29104,0.0763 0.007,0.0709 0.66146,-0.0121 4.22539,-0.53528 15.0932,0.0851 16.55017,0.94471 0.46585,0.27486 1.19486,0.57614 1.62004,0.66953 0.42517,0.0934 1.45786,0.58232 2.29487,1.08653 0.83701,0.50421 1.70828,0.91674 1.93616,0.91674 1.04911,0 9.34876,6.74205 9.34876,7.59427 0,0.18878 0.15887,0.34323 0.35304,0.34323 0.19417,0 0.87878,0.5667 1.52136,1.25933 2.58475,2.78612 5.26935,5.83889 5.26935,5.99199 0,0.15936 1.14319,1.45681 3.37344,3.82864 0.61846,0.65773 1.12448,1.3299 1.12448,1.49373 0,0.16382 0.7739,1.0451 1.71979,1.95839 0.94588,0.9133 1.71979,1.7925 1.71979,1.95378 0,0.3454 2.5468,2.82872 2.90103,2.82872 0.13351,0 0.31632,-0.11906 0.40626,-0.26458 z m 7.41168,-3.61881 c 0.2892,-0.38962 0.92351,-1.19329 1.40957,-1.78594 1.88964,-2.304 2.2136,-2.74387 3.81402,-5.17858 0.90873,-1.38245 1.74153,-2.55323 1.85067,-2.60174 0.10914,-0.0485 0.20162,-0.34616 0.20551,-0.66146 0.004,-0.31529 0.47934,-1.08859 1.05656,-1.71844 0.86691,-0.94596 1.00215,-1.23365 0.77737,-1.65365 -0.14967,-0.27965 -0.45791,-0.50846 -0.68499,-0.50846 -0.22708,0 -0.75031,-0.24028 -1.16274,-0.53396 -0.46285,-0.32958 -0.8136,-0.43085 -0.91635,-0.26458 -0.0916,0.14815 -0.3802,0.26937 -0.6414,0.26937 -0.26121,0 -0.77102,0.27442 -1.13292,0.60982 -0.3619,0.3354 -1.36156,0.95098 -2.22145,1.36796 -0.85989,0.41698 -1.62298,0.83965 -1.69574,0.93927 -0.0728,0.0996 -0.78713,0.32541 -1.5875,0.50177 -0.80036,0.17635 -1.87192,0.47745 -2.38125,0.66909 -0.50932,0.19165 -1.9976,0.67534 -3.30729,1.07487 -3.39803,1.03659 -4.22167,1.29465 -4.32061,1.35375 -0.10109,0.0604 3.5013,3.52248 5.23189,5.02815 0.64672,0.56266 1.58601,1.43975 2.08732,1.94907 0.86051,0.87428 2.23322,1.76013 2.82558,1.82345 0.14736,0.0157 0.50455,-0.29014 0.79375,-0.67976 z m 34.28032,-1.25032 c 0.0368,-1.49629 0.62046,-2.64177 1.58127,-3.10314 l 0.89891,-0.43164 -1.22627,-0.0975 c -1.37943,-0.10971 -1.33655,-0.18658 -1.79054,3.20977 -0.10698,0.80037 -0.29122,1.69334 -0.40942,1.98438 -0.18051,0.44446 -0.1236,0.42739 0.35551,-0.10663 0.31373,-0.34969 0.57947,-1.00453 0.59054,-1.45521 z m 6.0942,-5.57934 c 0.63895,-0.50791 1.36015,-0.92463 1.60269,-0.92604 0.24253,-0.001 0.48066,-0.0938 0.52917,-0.20521 0.14045,-0.3227 3.29566,-1.98843 5.446,-2.87511 0.61847,-0.25502 1.12448,-0.56898 1.12448,-0.69769 0,-0.65315 -2.71443,-2.65197 -4.63021,-3.40954 -2.41896,-0.95655 -3.08705,-1.05756 -6.42563,-0.97152 l -3.36395,0.0867 -0.0748,3.96875 c -0.0411,2.18281 -0.14089,4.41523 -0.2217,4.96093 l -0.14692,0.99219 h 2.49957 c 2.45703,0 2.51932,-0.0157 3.66127,-0.92347 z m 9.8915,-5.42815 c -0.2642,-0.29193 -0.53279,-0.47836 -0.59687,-0.41428 -0.1548,0.1548 0.53279,0.92218 0.83778,0.935 0.1317,0.006 0.0233,-0.22879 -0.24091,-0.52072 z m -41.67041,-6.59146 c -0.14538,-4.33904 -0.52916,-5.75605 -0.52916,-1.9538 0,1.31408 -0.12158,3.03032 -0.27018,3.81387 -0.23451,1.23659 -0.21038,1.46836 0.18286,1.75591 0.24917,0.1822 0.51958,0.3315 0.60091,0.33179 0.0813,2.9e-4 0.0883,-1.7762 0.0156,-3.94777 z m 37.43854,3.1535 c -0.0899,-0.14552 -0.28258,-0.26459 -0.4281,-0.26459 -0.14552,0 -0.191,0.11907 -0.10106,0.26459 0.0899,0.14552 0.28258,0.26458 0.4281,0.26458 0.14552,0 0.191,-0.11906 0.10106,-0.26458 z m -0.92604,-0.63315 c 0,-0.0572 -0.18478,-0.17489 -0.41061,-0.26156 -0.23546,-0.0904 -0.34167,-0.046 -0.24897,0.10399 0.15538,0.25141 0.65958,0.37186 0.65958,0.15757 z m -5.29166,-0.82941 c 1.52796,-0.0352 2.99668,0.051 3.2638,0.19158 0.26713,0.14053 0.55206,0.18914 0.63318,0.10802 0.0811,-0.0811 -0.0779,-0.23092 -0.35339,-0.33287 -0.27549,-0.10195 -0.56042,-0.25358 -0.63318,-0.33696 -0.0728,-0.0834 -0.68192,-0.593 -1.35368,-1.1325 -0.67177,-0.5395 -1.85342,-1.75989 -2.62589,-2.71198 -1.20735,-1.48808 -1.52511,-1.73107 -2.26381,-1.73107 -0.73954,0 -0.89573,0.11987 -1.12047,0.8599 -0.14363,0.47294 -0.3326,1.57427 -0.41992,2.4474 -0.0873,0.87312 -0.20235,1.92907 -0.25561,2.34655 l -0.0968,0.75905 1.22384,-0.20159 c 0.67311,-0.11087 2.474,-0.23036 4.00197,-0.26553 z M 688.1105,200.81605 c -0.29176,-1.05661 -0.63561,-2.00795 -1.17146,-3.24115 -0.32014,-0.73676 -0.81748,-3.2038 -0.81748,-4.05508 0,-0.60963 -0.10972,-0.70742 -0.79375,-0.70742 -0.91556,0 -0.92496,0.0173 -0.54776,1.00941 0.15575,0.40966 0.28318,1.03474 0.28318,1.38906 0,0.35433 0.11906,0.64424 0.26458,0.64424 0.14552,0 0.26459,0.2311 0.26459,0.51355 0,0.28245 0.11906,0.58714 0.26458,0.67707 0.14552,0.0899 0.26458,0.35299 0.26458,0.58456 0,0.74033 1.86276,4.31023 2.24907,4.31023 0.0277,0 -0.0893,-0.50601 -0.26013,-1.12447 z m -22.40065,-7.01068 -0.0388,-1.78672 -0.17929,1.85208 c -0.11471,1.18491 -0.38631,2.18568 -0.75396,2.77813 -0.31607,0.50932 -0.57285,1.0451 -0.57063,1.19062 0.002,0.14552 0.35897,-0.30061 0.79276,-0.9914 0.68973,-1.09835 0.78386,-1.48025 0.74993,-3.04271 z m -1.97891,2.17979 c 0.5164,-1.09068 0.68797,-1.85618 0.66821,-2.98156 l -0.0266,-1.51412 -0.23914,1.05834 c -0.24041,1.06396 -0.49902,1.74572 -1.18738,3.13029 -0.41006,0.8248 -0.50715,2.14359 -0.14116,1.91739 0.12719,-0.0786 0.54391,-0.80326 0.92605,-1.61034 z m -1.2681,-3.19265 c 0.7135,-2.08705 0.73933,-2.22907 0.40542,-2.22907 -0.129,0 -0.2978,0.32742 -0.3751,0.72761 -0.0773,0.40018 -0.28048,1.20385 -0.45152,1.78593 -0.17104,0.58209 -0.35137,1.47505 -0.40074,1.98438 -0.0494,0.50932 -0.0286,0.62838 0.0461,0.26458 0.0747,-0.3638 0.42385,-1.50385 0.77584,-2.53343 z m -2.00564,1.93812 c 1.1e-4,-0.32742 0.2209,-1.1764 0.49063,-1.88661 l 0.49041,-1.2913 -0.71601,-0.69308 c -0.39381,-0.38119 -0.84883,-1.05026 -1.01116,-1.48682 -0.2826,-0.76 -0.28864,-0.74875 -0.14202,0.26458 0.0842,0.58208 0.31846,1.19052 0.52053,1.35208 0.56451,0.45136 0.44251,0.63229 -0.42635,0.63229 -0.58752,0 -0.78832,0.1203 -0.77286,0.46303 0.0125,0.2766 0.0746,0.32986 0.15434,0.13229 0.1754,-0.43471 1.14769,-0.42854 1.14769,0.007 0,0.1859 -0.19018,0.60952 -0.42262,0.94138 -0.35247,0.50322 -0.36911,0.73259 -0.1002,1.38179 0.38275,0.92404 0.78731,1.01809 0.78762,0.1831 z m 9.78936,-3.078 c 0,-0.12855 0.20836,-0.30368 0.46302,-0.38919 0.25467,-0.0855 0.70115,-0.30775 0.99219,-0.49388 0.29104,-0.18613 0.57053,-0.35993 0.62109,-0.38624 0.0727,-0.0378 -0.54941,-1.28057 -0.96479,-1.92747 -0.0435,-0.0678 -0.66156,0.51033 -1.37344,1.28466 -1.03547,1.12631 -1.23131,1.47965 -0.97922,1.7668 0.35315,0.40225 1.24115,0.50623 1.24115,0.14532 z m 16.06793,0.0739 c -0.0879,-0.0879 -0.31612,-0.0973 -0.50712,-0.0209 -0.21107,0.0845 -0.14837,0.14715 0.15985,0.15985 0.27892,0.0115 0.43519,-0.0511 0.34727,-0.13896 z m -3.76862,-1.09692 c -1.07099,-1.68833 -1.75285,-2.18282 -3.00991,-2.18282 -1.35444,0 -1.44089,-0.12304 1.29394,1.84153 1.77389,1.27427 2.38489,1.3958 1.71597,0.34129 z m -14.75182,-0.38955 c 0.64753,-0.32339 1.41827,-0.92636 1.71276,-1.33993 0.52342,-0.73507 0.52437,-0.76494 0.0423,-1.33025 -0.27123,-0.31806 -0.64198,-0.84457 -0.82388,-1.17002 -0.39352,-0.70405 -0.44478,-3.93676 -0.0661,-4.17077 0.14552,-0.0899 0.26459,-0.56903 0.26459,-1.06464 0,-1.37439 -1.21479,-1.84707 -2.72393,-1.05989 -0.65569,0.34201 -0.75736,0.33933 -0.89666,-0.0237 -0.25455,-0.66336 0.83126,-1.52951 1.9174,-1.52951 0.91391,0 0.94785,-0.0328 0.79963,-0.77391 -0.0851,-0.42565 -0.15478,-1.17869 -0.15478,-1.67342 0,-0.74232 -0.12715,-0.94463 -0.7276,-1.15767 -0.40018,-0.14198 -0.95244,-0.38846 -1.22725,-0.54773 -0.51625,-0.29921 -1.74931,0.12308 -1.74931,0.5991 0,0.12093 -0.12757,0.21988 -0.28349,0.21988 -0.62366,0 -0.95992,0.75588 -1.12462,2.528 l -0.17284,1.85969 0.8245,0.48705 c 0.81427,0.481 0.82243,0.50688 0.65741,2.08564 -0.0947,0.90615 -0.35642,1.80783 -0.6042,2.08161 -0.39461,0.43605 -0.39606,0.48301 -0.0148,0.48301 0.23224,0 0.49585,-0.11906 0.58578,-0.26459 0.2994,-0.48443 1.19063,-0.29807 1.19063,0.24897 0,0.61999 -0.13015,0.71053 -1.35037,0.93945 -0.70709,0.13265 -1.06117,0.0664 -1.38705,-0.25946 -0.55216,-0.55217 -0.58075,-0.0291 -0.0505,0.92313 0.32357,0.58102 0.39022,0.60515 0.5481,0.19844 0.11248,-0.28978 0.46029,-0.46303 0.92956,-0.46303 0.4124,0 0.82341,-0.11906 0.91334,-0.26458 0.33835,-0.54745 1.20948,-0.24641 1.7227,0.59531 0.59411,0.97442 0.65959,1.733 0.23083,2.67403 -0.56457,1.23909 -3.14415,1.01831 -3.14415,-0.2691 0,-0.34044 -0.23813,-0.85711 -0.52917,-1.14816 -0.67243,-0.67242 -0.6672,-0.45221 0.0231,0.97377 1.0688,2.20785 2.49244,2.69984 4.66813,1.61325 z m -2.11016,-8.54014 c -0.0696,-0.3638 -0.0537,-0.66716 0.0353,-0.67412 0.089,-0.007 0.78683,-0.0672 1.55081,-0.13391 1.16215,-0.10143 1.38906,-0.0501 1.38906,0.31423 0,0.64916 -0.80343,1.13736 -1.88738,1.14684 -0.81835,0.007 -0.98015,-0.09 -1.08779,-0.65304 z m 21.92924,6.25173 c 0.12553,-0.0915 0.35633,-0.39821 0.51291,-0.68163 0.15657,-0.28343 0.66013,-0.70015 1.119,-0.92604 0.52299,-0.25746 0.94276,-0.73161 1.1249,-1.27062 0.15982,-0.47295 0.39799,-0.8599 0.52926,-0.8599 0.13128,0 0.47934,-0.47171 0.77346,-1.04824 0.29413,-0.57653 0.79525,-1.2909 1.1136,-1.5875 0.31836,-0.29659 0.4519,-0.53926 0.29676,-0.53926 -0.15515,0 -0.4303,0.17859 -0.61146,0.39688 -0.18115,0.21828 -0.60543,0.39687 -0.94282,0.39687 -0.3374,0 -0.68703,0.11906 -0.77697,0.26458 -0.297,0.48056 -1.63023,0.27598 -2.31057,-0.35454 l -0.66805,-0.61913 -0.44461,0.75266 c -0.24454,0.41397 -0.85426,1.07953 -1.35495,1.47903 -0.67965,0.54229 -0.91035,0.93086 -0.91035,1.53334 -10e-6,0.85877 -0.40316,1.44198 -0.9968,1.44198 -0.2549,0 -0.30584,-0.17587 -0.17242,-0.59531 0.10415,-0.32743 0.16925,-1.16827 0.14468,-1.86855 -0.0538,-1.53424 0.10001,-1.85808 0.72411,-1.52407 0.5488,0.29371 0.77338,0.15601 1.54706,-0.94859 0.46251,-0.66034 0.50841,-0.86494 0.21896,-0.97601 -0.20142,-0.0773 -0.40522,-0.41449 -0.45289,-0.74932 -0.12522,-0.87961 -1.01271,-0.98481 -1.01271,-0.12004 0,0.36588 0.11906,0.73883 0.26458,0.82876 0.34171,0.21119 0.34261,1.11117 10e-4,1.3221 -0.14479,0.0895 -0.54126,-0.46903 -0.88104,-1.24116 l -0.61777,-1.40385 -0.17891,1.33248 c -0.0984,0.73287 -0.36353,1.59607 -0.58918,1.91823 -0.80356,1.14725 -2.94227,0.47538 -2.61805,-0.82245 0.51326,-2.05459 0.0455,-3.7899 -1.21095,-4.49237 -1.28671,-0.71939 -2.68801,-2.28212 -3.07209,-3.426 -0.0855,-0.25466 -0.3096,-0.46302 -0.49799,-0.46302 -0.23229,0 -0.37136,0.51101 -0.43216,1.58798 l -0.0897,1.58799 0.90245,-4.9e-4 c 0.68055,-3.6e-4 1.08714,0.2064 1.65364,0.84092 0.89509,1.00257 0.89897,1.03115 0.21902,1.61334 -0.67286,0.57612 -1.55072,0.58693 -1.76759,0.0218 -0.11907,-0.31028 -0.3078,-0.0742 -0.66242,0.82858 -0.27275,0.69438 -0.46198,1.29121 -0.4205,1.32631 0.0415,0.0351 0.45392,0.25623 0.91655,0.49143 0.46263,0.23519 0.91858,0.69681 1.01323,1.02583 0.0946,0.32902 0.34665,0.98488 0.56002,1.45747 0.24884,0.55115 0.32542,1.19258 0.21356,1.78884 -0.33419,1.78139 0.70191,2.15713 2.92829,1.06193 0.72761,-0.35792 1.56105,-0.65405 1.85209,-0.65805 0.65371,-0.009 2.21504,0.91741 2.41224,1.43129 0.08,0.20856 0.49138,0.45516 0.91412,0.54801 0.42274,0.0928 0.83705,0.27956 0.92071,0.41491 0.28854,0.46688 -0.68839,0.56665 -1.53477,0.15673 -1.2532,-0.60694 -1.22984,-0.31257 0.0765,0.96398 l 1.16333,1.13681 0.44155,-1.30429 c 0.24285,-0.71736 0.54424,-1.37913 0.66976,-1.4706 z m -25.8131,-0.0558 c -0.22801,-1.44234 -0.37325,-1.70579 -0.79628,-1.44434 -0.44562,0.27541 -0.32879,2.40027 0.18083,3.28902 l 0.46303,0.80749 0.17991,-0.67006 c 0.0989,-0.36853 0.0866,-1.26048 -0.0275,-1.98211 z m 11.42349,1.22071 c -0.34197,-0.45857 -0.48648,-0.52042 -0.55141,-0.23602 -0.10824,0.47405 0.45772,1.20173 0.77982,1.00266 0.12925,-0.0799 0.0265,-0.42487 -0.22841,-0.76664 z m 2.31471,0.157 c 0,-0.25978 -1.64699,-1.12009 -1.81763,-0.94944 -0.16305,0.16305 1.10411,1.16199 1.4869,1.17218 0.1819,0.005 0.33073,-0.0954 0.33073,-0.22274 z m 0.67492,-1.44708 c -0.3712,-0.48668 -0.67492,-1.01254 -0.67492,-1.16858 0,-0.15604 -0.0923,-0.32339 -0.20506,-0.3719 -0.11278,-0.0485 -0.46796,-0.50491 -0.78929,-1.01424 l -0.58424,-0.92604 -0.004,1.07173 c -0.005,1.28066 0.50362,2.4916 1.05387,2.50746 0.21828,0.006 0.69453,0.18159 1.05834,0.38956 0.3638,0.20797 0.69728,0.38235 0.74107,0.3875 0.0438,0.005 -0.22411,-0.38881 -0.59532,-0.87549 z m 6.73341,0.76819 c 0,-0.0642 -0.11906,-0.19026 -0.26458,-0.2802 -0.14552,-0.0899 -0.26458,-0.0374 -0.26458,0.11668 0,0.15411 0.11906,0.2802 0.26458,0.2802 0.14552,0 0.26458,-0.0525 0.26458,-0.11668 z m -12.02581,-2.63372 c -0.14253,-1.33099 -0.26847,-1.68354 -0.56127,-1.57118 -0.5334,0.20468 -0.51704,2.43256 0.0194,2.6384 0.21829,0.0838 0.39688,0.33799 0.39688,0.56496 0,0.22696 0.074,0.33868 0.1644,0.24826 0.0904,-0.0904 0.0817,-0.93661 -0.0194,-1.88044 z m -11.79074,0.17469 c 0.002,-0.17972 0.34707,-0.89409 0.76631,-1.5875 0.83298,-1.37774 1.49598,-3.19175 1.25472,-3.43301 -0.0838,-0.0838 -0.23644,0.073 -0.33912,0.34845 -0.10267,0.27549 -0.57,1.09621 -1.0385,1.82381 -0.52561,0.81628 -0.91665,1.82955 -1.02109,2.64583 -0.12052,0.94199 -0.0911,1.20864 0.10218,0.92604 0.1493,-0.21828 0.27327,-0.54391 0.2755,-0.72362 z m 13.6892,-1.72377 c -0.0587,-0.47294 -0.10671,-0.086 -0.10671,0.85989 0,0.94589 0.048,1.33284 0.10671,0.8599 0.0587,-0.47294 0.0587,-1.24685 0,-1.71979 z m 3.66683,0.53872 c -0.251,-0.14047 -0.41864,-0.58687 -0.41864,-1.11478 0,-0.91467 -0.56714,-1.64575 -1.04675,-1.34933 -0.15189,0.0939 -0.27617,0.3558 -0.27617,0.58206 0,0.502 1.07842,2.46781 1.35381,2.46781 0.10892,0 0.29264,0.26789 0.40828,0.59531 0.19869,0.56261 0.2154,0.55296 0.30418,-0.17574 0.0613,-0.50344 -0.0514,-0.85236 -0.32471,-1.00533 z m -18.75612,0.39236 c -0.0671,-0.25744 -0.12638,-0.11087 -0.13178,0.32569 -0.005,0.43656 0.0495,0.64719 0.12197,0.46806 0.0725,-0.17914 0.0769,-0.53632 0.01,-0.79375 z m 4.76928,-2.08591 c -0.25743,-0.25743 -0.98389,0.41839 -0.98389,0.91529 0,0.34018 0.11399,0.30929 0.58062,-0.15734 0.31933,-0.31933 0.50081,-0.66041 0.40327,-0.75795 z m 8.10445,-1.62865 c 0.8686,-2.24743 0.41633,-6.71061 -0.80564,-7.95044 -0.38715,-0.39281 -1.78913,-0.84469 -2.59241,-0.83558 -0.39292,0.004 -0.30071,0.11945 0.35476,0.44241 0.48712,0.24001 0.95467,0.62425 1.039,0.85387 0.0843,0.22962 0.44365,0.88335 0.79848,1.45275 0.6121,0.98221 0.63959,1.20242 0.53652,4.29822 -0.0597,1.79464 -0.0318,3.17424 0.062,3.06579 0.0938,-0.10845 0.36712,-0.70561 0.60729,-1.32702 z m -10.70281,-1.11913 c 0.33317,-0.96306 0.70755,-5.26668 0.4344,-4.99353 -0.0856,0.0856 -0.37367,1.45256 -0.6401,3.03763 -0.26643,1.58507 -0.57585,3.12007 -0.6876,3.41111 l -0.20317,0.52917 0.38805,-0.52917 c 0.21343,-0.29104 0.53222,-0.94588 0.70842,-1.45521 z m 3.20197,0.80937 c 0,-0.44355 -0.46925,-0.55339 -0.62543,-0.14639 -0.0922,0.24015 8.3e-4,0.39536 0.23686,0.39536 0.21372,0 0.38857,-0.11204 0.38857,-0.24897 z m 19.21086,-0.21405 c 0.19331,-0.25466 0.35527,-0.72389 0.35989,-1.04272 0.005,-0.31884 0.12748,-0.65328 0.273,-0.74322 0.14552,-0.0899 0.26459,-0.34303 0.26459,-0.56244 0,-0.64981 1.34339,-2.21569 1.90088,-2.21569 1.21345,0 2.27144,0.97435 3.19181,2.93944 0.5648,1.20591 0.651,1.27256 1.65418,1.27907 1.15601,0.007 2.6232,-0.42827 3.52227,-1.04613 0.50932,-0.35002 0.59286,-0.72133 0.74457,-3.30939 0.17292,-2.95001 -0.24446,-7.38977 -0.72249,-7.68521 -0.13038,-0.0806 -0.23706,-0.35533 -0.23706,-0.61056 0,-0.51676 -1.30709,-1.88597 -1.80041,-1.88597 -0.17394,0 -0.31625,-0.17859 -0.31625,-0.39687 0,-0.21828 -0.12701,-0.39688 -0.28224,-0.39688 -0.15523,0 -0.66125,-0.28121 -1.12448,-0.62491 -1.92154,-1.42573 -5.13921,-1.65666 -6.00162,-0.43073 -0.24503,0.34833 -1.82128,1.05564 -2.35249,1.05564 -0.28968,0 -0.59177,0.10531 -0.67132,0.23401 -0.13318,0.2155 -2.01978,0.60794 -4.45318,0.92631 -1.17713,0.15402 -2.45659,0.99583 -2.65256,1.74524 -0.0768,0.29372 -0.0615,0.53395 0.034,0.53386 0.0955,-9e-5 0.13241,0.59523 0.082,1.32292 -0.0898,1.29577 -0.0761,1.32347 0.66145,1.34168 1.16462,0.0288 1.64326,0.31015 2.28122,1.34112 0.93524,1.51141 1.81812,2.42371 3.16781,3.27337 0.86821,0.54656 1.25644,0.96796 1.25677,1.36413 2.6e-4,0.3153 0.14787,0.6224 0.32803,0.68245 0.2189,0.073 0.31511,0.6508 0.29003,1.74184 -0.04,1.73836 0.0448,1.90314 0.6016,1.16964 z m -20.5375,-3.10886 c 0.005,-2.36681 0.34689,-3.00996 2.12039,-3.98749 0.50933,-0.28073 0.98558,-0.58634 1.05834,-0.67912 0.32206,-0.41071 2.28745,-1.02573 3.40575,-1.06575 0.81496,-0.0292 0.51659,-0.0976 -0.89221,-0.2047 -1.16417,-0.0885 -2.47386,-0.0862 -2.91042,0.005 l -0.79375,0.16606 0.76342,0.2086 0.76341,0.20861 -0.63112,0.34983 c -0.34712,0.1924 -0.81873,0.35404 -1.04803,0.3592 -0.48209,0.0108 -1.32608,0.90468 -1.75764,1.86146 -0.37173,0.82412 -0.68514,5.84778 -0.32977,5.2858 0.13599,-0.21506 0.24922,-1.34351 0.25163,-2.50768 z m 11.10812,0.52917 c 0,-0.7276 -0.11541,-1.50151 -0.25648,-1.71979 -0.17728,-0.27433 -0.25648,0.25671 -0.25648,1.71979 0,1.46308 0.0792,1.99412 0.25648,1.71979 0.14107,-0.21828 0.25648,-0.99219 0.25648,-1.71979 z m 1.77896,-0.59028 c -0.0671,-0.25743 -0.12638,-0.11087 -0.13177,0.3257 -0.005,0.43656 0.0495,0.64718 0.12197,0.46805 0.0725,-0.17913 0.0769,-0.53632 0.01,-0.79375 z m -5.28516,-1.05973 c -0.0608,-0.40218 -0.1122,-0.13593 -0.11419,0.59168 -0.002,0.7276 0.0478,1.05666 0.11058,0.73124 0.0628,-0.32542 0.0644,-0.92074 0.004,-1.32292 z m 4.75599,-0.79235 c -0.0671,-0.25743 -0.12638,-0.11087 -0.13177,0.32569 -0.005,0.43657 0.0495,0.64719 0.12197,0.46806 0.0725,-0.17913 0.0769,-0.53632 0.01,-0.79375 z m -2.21469,-1.6212 c -0.25862,-0.59695 -0.61647,-1.14149 -0.79523,-1.21009 -0.20238,-0.0777 -0.14625,0.1949 0.14877,0.72238 0.26059,0.46591 0.57203,1.20429 0.69209,1.64085 0.14124,0.51358 0.2547,0.6417 0.32144,0.36299 0.0567,-0.23692 -0.10845,-0.91918 -0.36707,-1.51613 z m -10.36872,-0.69894 c 0.17204,-0.3486 0.03,-0.27586 -0.41627,0.21319 -0.37258,0.4083 -0.67363,0.88455 -0.66901,1.05833 0.009,0.34509 0.66888,-0.42781 1.08528,-1.27152 z m 13.17292,-0.76 c -0.0131,-0.18746 -0.0705,-0.17541 -0.15434,0.0324 -0.0734,0.1819 -0.30915,0.33072 -0.52389,0.33072 -0.21474,0 -0.31329,0.12485 -0.21898,0.27744 0.20662,0.33432 0.92934,-0.18166 0.89721,-0.64056 z m -5.16998,-2.33366 c -0.0948,-0.15341 -0.57862,-0.20533 -1.10989,-0.11912 -0.518,0.0841 -1.08629,0.0329 -1.26285,-0.11359 -0.21727,-0.18031 -0.73581,-0.15832 -1.60423,0.068 l -1.2832,0.33447 0.918,0.13902 c 1.46176,0.22136 4.53477,0.003 4.34217,-0.30881 z m 37.07232,106.67668 c -0.10515,-0.17014 -0.0594,-0.44114 0.10171,-0.60222 0.1995,-0.1995 0.2454,-1.35218 0.14395,-3.61497 -0.16263,-3.62779 0.0963,-6.39087 0.61508,-6.56345 0.25479,-0.0848 0.33073,0.80273 0.33073,3.86516 0,2.36472 0.10719,4.04143 0.26458,4.13871 0.14552,0.0899 0.26458,0.49141 0.26458,0.89215 0,0.85508 -1.40549,2.39452 -1.72063,1.88462 z M 695.1174,216.29075 c 0,-0.76766 -0.13237,-1.05538 -0.5782,-1.25677 -0.31801,-0.14364 -0.63161,-0.42807 -0.69689,-0.63206 -0.0925,-0.28914 0.0731,-0.33253 0.75141,-0.19687 1.27608,0.25522 1.58201,0.6271 1.58201,1.92307 0,0.98184 -0.0806,1.15823 -0.52917,1.15823 -0.43541,0 -0.52916,-0.17639 -0.52916,-0.9956 z m 14.02291,-12.96934 c -0.64901,-0.0785 -1.59488,-0.42608 -2.38125,-0.87508 -0.21828,-0.12463 -0.79445,-0.42709 -1.28037,-0.67214 -1.17335,-0.5917 -3.57747,-2.85495 -3.44734,-3.24534 0.062,-0.18586 0.78157,0.1688 1.80557,0.88987 0.93641,0.65938 1.80976,1.19888 1.94078,1.19888 0.13102,0 0.56172,0.23035 0.95711,0.51189 1.2613,0.89813 3.79581,1.28938 7.03571,1.0861 1.60073,-0.10043 3.1916,-0.10995 3.53526,-0.0212 0.57178,0.14774 0.58738,0.19253 0.18372,0.52754 -0.27094,0.22486 -1.27751,0.40201 -2.60921,0.45921 -1.19246,0.0512 -2.82295,0.12172 -3.62331,0.15667 -0.80037,0.035 -1.75287,0.0276 -2.11667,-0.0164 z"
       id="path10" /></g></svg>
