<?xml version="1.0" encoding="UTF-8" standalone="no"?>
<!-- Created with Inkscape (http://www.inkscape.org/) -->

<svg
   width="137.58333mm"
   height="106.9909mm"
   viewBox="0 0 137.58334 106.9909"
   version="1.1"
   id="svg1"
   xml:space="preserve"
   xmlns="http://www.w3.org/2000/svg"
   xmlns:svg="http://www.w3.org/2000/svg"><defs
     id="defs1" /><g
     id="layer1"
     transform="translate(397.68416,-153.50737)"><path
       style="fill:#4d4d4d"
       d="m -397.68416,260.38067 c 0,-0.0647 0.0529,-0.11759 0.11759,-0.11759 0.0647,0 0.11759,0.0529 0.11759,0.11759 0,0.0647 -0.0529,0.1176 -0.11759,0.1176 -0.0647,0 -0.11759,-0.0529 -0.11759,-0.1176 z m 0.82315,0 c 0,-0.0647 0.13229,-0.11759 0.29398,-0.11759 0.16169,0 0.29398,0.0529 0.29398,0.11759 0,0.0647 -0.13229,0.1176 -0.29398,0.1176 -0.16169,0 -0.29398,-0.0529 -0.29398,-0.1176 z m 1.17592,0 c 0,-0.0647 0.13229,-0.11759 0.29398,-0.11759 0.16169,0 0.29398,0.0529 0.29398,0.11759 0,0.0647 -0.13229,0.1176 -0.29398,0.1176 -0.16169,0 -0.29398,-0.0529 -0.29398,-0.1176 z m 1.17593,0 c 0,-0.0647 0.13229,-0.11759 0.29398,-0.11759 0.16169,0 0.29398,0.0529 0.29398,0.11759 0,0.0647 -0.13229,0.1176 -0.29398,0.1176 -0.16169,0 -0.29398,-0.0529 -0.29398,-0.1176 z m 1.17592,0 c 0,-0.0647 0.13229,-0.11759 0.29398,-0.11759 0.16169,0 0.29399,0.0529 0.29399,0.11759 0,0.0647 -0.1323,0.1176 -0.29399,0.1176 -0.16169,0 -0.29398,-0.0529 -0.29398,-0.1176 z m 1.17593,0 c 0,-0.0647 0.13229,-0.11759 0.29398,-0.11759 0.16169,0 0.29398,0.0529 0.29398,0.11759 0,0.0647 -0.13229,0.1176 -0.29398,0.1176 -0.16169,0 -0.29398,-0.0529 -0.29398,-0.1176 z m 1.17592,0 c 0,-0.0647 0.1323,-0.11759 0.29399,-0.11759 0.16169,0 0.29398,0.0529 0.29398,0.11759 0,0.0647 -0.13229,0.1176 -0.29398,0.1176 -0.16169,0 -0.29399,-0.0529 -0.29399,-0.1176 z m 1.17593,0 c 0,-0.0647 0.13229,-0.11759 0.29398,-0.11759 0.16169,0 0.29398,0.0529 0.29398,0.11759 0,0.0647 -0.13229,0.1176 -0.29398,0.1176 -0.16169,0 -0.29398,-0.0529 -0.29398,-0.1176 z m 1.17593,0 c 0,-0.0647 0.13229,-0.11759 0.29398,-0.11759 0.16169,0 0.29398,0.0529 0.29398,0.11759 0,0.0647 -0.13229,0.1176 -0.29398,0.1176 -0.16169,0 -0.29398,-0.0529 -0.29398,-0.1176 z m 1.17592,0 c 0,-0.0647 0.13229,-0.11759 0.29398,-0.11759 0.16169,0 0.29399,0.0529 0.29399,0.11759 0,0.0647 -0.1323,0.1176 -0.29399,0.1176 -0.16169,0 -0.29398,-0.0529 -0.29398,-0.1176 z m 1.17593,0 c 0,-0.0647 0.13229,-0.11759 0.29398,-0.11759 0.16169,0 0.29398,0.0529 0.29398,0.11759 0,0.0647 -0.13229,0.1176 -0.29398,0.1176 -0.16169,0 -0.29398,-0.0529 -0.29398,-0.1176 z m 1.17592,0 c 0,-0.0647 0.1323,-0.11759 0.29399,-0.11759 0.16169,0 0.29398,0.0529 0.29398,0.11759 0,0.0647 -0.13229,0.1176 -0.29398,0.1176 -0.16169,0 -0.29399,-0.0529 -0.29399,-0.1176 z m 1.17593,0 c 0,-0.0647 0.13229,-0.11759 0.29398,-0.11759 0.16169,0 0.29398,0.0529 0.29398,0.11759 0,0.0647 -0.13229,0.1176 -0.29398,0.1176 -0.16169,0 -0.29398,-0.0529 -0.29398,-0.1176 z m 1.17593,0 c 0,-0.0647 0.13229,-0.11759 0.29398,-0.11759 0.16169,0 0.29398,0.0529 0.29398,0.11759 0,0.0647 -0.13229,0.1176 -0.29398,0.1176 -0.16169,0 -0.29398,-0.0529 -0.29398,-0.1176 z m 1.17592,0 c 0,-0.0647 0.13229,-0.11759 0.29398,-0.11759 0.16169,0 0.29398,0.0529 0.29398,0.11759 0,0.0647 -0.13229,0.1176 -0.29398,0.1176 -0.16169,0 -0.29398,-0.0529 -0.29398,-0.1176 z m 1.17593,0 c 0,-0.0647 0.13229,-0.11759 0.29398,-0.11759 0.16169,0 0.29398,0.0529 0.29398,0.11759 0,0.0647 -0.13229,0.1176 -0.29398,0.1176 -0.16169,0 -0.29398,-0.0529 -0.29398,-0.1176 z m 1.17592,0 c 0,-0.0647 0.1323,-0.11759 0.29399,-0.11759 0.16169,0 0.29398,0.0529 0.29398,0.11759 0,0.0647 -0.13229,0.1176 -0.29398,0.1176 -0.16169,0 -0.29399,-0.0529 -0.29399,-0.1176 z m 1.17593,0 c 0,-0.0647 0.13229,-0.11759 0.29398,-0.11759 0.16169,0 0.29398,0.0529 0.29398,0.11759 0,0.0647 -0.13229,0.1176 -0.29398,0.1176 -0.16169,0 -0.29398,-0.0529 -0.29398,-0.1176 z m 1.17593,0 c 0,-0.0647 0.13229,-0.11759 0.29398,-0.11759 0.16169,0 0.29398,0.0529 0.29398,0.11759 0,0.0647 -0.13229,0.1176 -0.29398,0.1176 -0.16169,0 -0.29398,-0.0529 -0.29398,-0.1176 z m 1.17592,0 c 0,-0.0647 0.13229,-0.11759 0.29398,-0.11759 0.16169,0 0.29398,0.0529 0.29398,0.11759 0,0.0647 -0.13229,0.1176 -0.29398,0.1176 -0.16169,0 -0.29398,-0.0529 -0.29398,-0.1176 z m 1.17593,0 c 0,-0.0647 0.13229,-0.11759 0.29398,-0.11759 0.16169,0 0.29398,0.0529 0.29398,0.11759 0,0.0647 -0.13229,0.1176 -0.29398,0.1176 -0.16169,0 -0.29398,-0.0529 -0.29398,-0.1176 z m 1.17592,0 c 0,-0.0647 0.1323,-0.11759 0.29398,-0.11759 0.16169,0 0.29399,0.0529 0.29399,0.11759 0,0.0647 -0.1323,0.1176 -0.29399,0.1176 -0.16168,0 -0.29398,-0.0529 -0.29398,-0.1176 z m 1.17593,0 c 0,-0.0647 0.13229,-0.11759 0.29398,-0.11759 0.16169,0 0.29398,0.0529 0.29398,0.11759 0,0.0647 -0.13229,0.1176 -0.29398,0.1176 -0.16169,0 -0.29398,-0.0529 -0.29398,-0.1176 z m 1.17593,0 c 0,-0.0647 0.13229,-0.11759 0.29398,-0.11759 0.16169,0 0.29398,0.0529 0.29398,0.11759 0,0.0647 -0.13229,0.1176 -0.29398,0.1176 -0.16169,0 -0.29398,-0.0529 -0.29398,-0.1176 z m 1.17592,0 c 0,-0.0647 0.13229,-0.11759 0.29398,-0.11759 0.16169,0 0.29398,0.0529 0.29398,0.11759 0,0.0647 -0.13229,0.1176 -0.29398,0.1176 -0.16169,0 -0.29398,-0.0529 -0.29398,-0.1176 z m 1.17593,0 c 0,-0.0647 0.13229,-0.11759 0.29398,-0.11759 0.16169,0 0.29398,0.0529 0.29398,0.11759 0,0.0647 -0.13229,0.1176 -0.29398,0.1176 -0.16169,0 -0.29398,-0.0529 -0.29398,-0.1176 z m 1.17592,0 c 0,-0.0647 0.13229,-0.11759 0.29398,-0.11759 0.16169,0 0.29399,0.0529 0.29399,0.11759 0,0.0647 -0.1323,0.1176 -0.29399,0.1176 -0.16169,0 -0.29398,-0.0529 -0.29398,-0.1176 z m 1.17593,0 c 0,-0.0647 0.13229,-0.11759 0.29398,-0.11759 0.16169,0 0.29398,0.0529 0.29398,0.11759 0,0.0647 -0.13229,0.1176 -0.29398,0.1176 -0.16169,0 -0.29398,-0.0529 -0.29398,-0.1176 z m 1.17592,0 c 0,-0.0647 0.1323,-0.11759 0.29399,-0.11759 0.16169,0 0.29398,0.0529 0.29398,0.11759 0,0.0647 -0.13229,0.1176 -0.29398,0.1176 -0.16169,0 -0.29399,-0.0529 -0.29399,-0.1176 z m 1.17593,0 c 0,-0.0647 0.13229,-0.11759 0.29398,-0.11759 0.16169,0 0.29398,0.0529 0.29398,0.11759 0,0.0647 -0.13229,0.1176 -0.29398,0.1176 -0.16169,0 -0.29398,-0.0529 -0.29398,-0.1176 z m 1.17593,0 c 0,-0.0647 0.13229,-0.11759 0.29398,-0.11759 0.16169,0 0.29398,0.0529 0.29398,0.11759 0,0.0647 -0.13229,0.1176 -0.29398,0.1176 -0.16169,0 -0.29398,-0.0529 -0.29398,-0.1176 z m 1.17592,0 c 0,-0.0647 0.13229,-0.11759 0.29398,-0.11759 0.16169,0 0.29399,0.0529 0.29399,0.11759 0,0.0647 -0.1323,0.1176 -0.29399,0.1176 -0.16169,0 -0.29398,-0.0529 -0.29398,-0.1176 z m 1.17593,0 c 0,-0.0647 0.13229,-0.11759 0.29398,-0.11759 0.16169,0 0.29398,0.0529 0.29398,0.11759 0,0.0647 -0.13229,0.1176 -0.29398,0.1176 -0.16169,0 -0.29398,-0.0529 -0.29398,-0.1176 z m 1.17592,0 c 0,-0.0647 0.1323,-0.11759 0.29399,-0.11759 0.16169,0 0.29398,0.0529 0.29398,0.11759 0,0.0647 -0.13229,0.1176 -0.29398,0.1176 -0.16169,0 -0.29399,-0.0529 -0.29399,-0.1176 z m 1.17593,0 c 0,-0.0647 0.13229,-0.11759 0.29398,-0.11759 0.16169,0 0.29398,0.0529 0.29398,0.11759 0,0.0647 -0.13229,0.1176 -0.29398,0.1176 -0.16169,0 -0.29398,-0.0529 -0.29398,-0.1176 z m 1.17593,0 c 0,-0.0647 0.13229,-0.11759 0.29398,-0.11759 0.16169,0 0.29398,0.0529 0.29398,0.11759 0,0.0647 -0.13229,0.1176 -0.29398,0.1176 -0.16169,0 -0.29398,-0.0529 -0.29398,-0.1176 z m 1.17592,0 c 0,-0.0647 0.13229,-0.11759 0.29398,-0.11759 0.16169,0 0.29398,0.0529 0.29398,0.11759 0,0.0647 -0.13229,0.1176 -0.29398,0.1176 -0.16169,0 -0.29398,-0.0529 -0.29398,-0.1176 z m 1.17593,0 c 0,-0.0647 0.13229,-0.11759 0.29398,-0.11759 0.16169,0 0.29398,0.0529 0.29398,0.11759 0,0.0647 -0.13229,0.1176 -0.29398,0.1176 -0.16169,0 -0.29398,-0.0529 -0.29398,-0.1176 z m 1.17592,0 c 0,-0.0647 0.1323,-0.11759 0.29399,-0.11759 0.16169,0 0.29398,0.0529 0.29398,0.11759 0,0.0647 -0.13229,0.1176 -0.29398,0.1176 -0.16169,0 -0.29399,-0.0529 -0.29399,-0.1176 z m 1.17593,0 c 0,-0.0647 0.13229,-0.11759 0.29398,-0.11759 0.16169,0 0.29398,0.0529 0.29398,0.11759 0,0.0647 -0.13229,0.1176 -0.29398,0.1176 -0.16169,0 -0.29398,-0.0529 -0.29398,-0.1176 z m 1.17593,0 c 0,-0.0647 0.13229,-0.11759 0.29398,-0.11759 0.16169,0 0.29398,0.0529 0.29398,0.11759 0,0.0647 -0.13229,0.1176 -0.29398,0.1176 -0.16169,0 -0.29398,-0.0529 -0.29398,-0.1176 z m 1.17592,0 c 0,-0.0647 0.13229,-0.11759 0.29398,-0.11759 0.16169,0 0.29398,0.0529 0.29398,0.11759 0,0.0647 -0.13229,0.1176 -0.29398,0.1176 -0.16169,0 -0.29398,-0.0529 -0.29398,-0.1176 z m 1.17593,0 c 0,-0.0647 0.13229,-0.11759 0.29398,-0.11759 0.16169,0 0.29398,0.0529 0.29398,0.11759 0,0.0647 -0.13229,0.1176 -0.29398,0.1176 -0.16169,0 -0.29398,-0.0529 -0.29398,-0.1176 z m 1.17592,0 c 0,-0.0647 0.1323,-0.11759 0.29398,-0.11759 0.16169,0 0.29399,0.0529 0.29399,0.11759 0,0.0647 -0.1323,0.1176 -0.29399,0.1176 -0.16168,0 -0.29398,-0.0529 -0.29398,-0.1176 z m 1.17593,0 c 0,-0.0647 0.13229,-0.11759 0.29398,-0.11759 0.16169,0 0.29398,0.0529 0.29398,0.11759 0,0.0647 -0.13229,0.1176 -0.29398,0.1176 -0.16169,0 -0.29398,-0.0529 -0.29398,-0.1176 z m 1.17593,0 c 0,-0.0647 0.13229,-0.11759 0.29398,-0.11759 0.16169,0 0.29398,0.0529 0.29398,0.11759 0,0.0647 -0.13229,0.1176 -0.29398,0.1176 -0.16169,0 -0.29398,-0.0529 -0.29398,-0.1176 z m 1.17592,0 c 0,-0.0647 0.13229,-0.11759 0.29398,-0.11759 0.16169,0 0.29398,0.0529 0.29398,0.11759 0,0.0647 -0.13229,0.1176 -0.29398,0.1176 -0.16169,0 -0.29398,-0.0529 -0.29398,-0.1176 z m 1.17593,0 c 0,-0.0647 0.13229,-0.11759 0.29398,-0.11759 0.16169,0 0.29398,0.0529 0.29398,0.11759 0,0.0647 -0.13229,0.1176 -0.29398,0.1176 -0.16169,0 -0.29398,-0.0529 -0.29398,-0.1176 z m 1.17592,0 c 0,-0.0647 0.13229,-0.11759 0.29398,-0.11759 0.16169,0 0.29399,0.0529 0.29399,0.11759 0,0.0647 -0.1323,0.1176 -0.29399,0.1176 -0.16169,0 -0.29398,-0.0529 -0.29398,-0.1176 z m 1.17593,0 c 0,-0.0647 0.13229,-0.11759 0.29398,-0.11759 0.16169,0 0.29398,0.0529 0.29398,0.11759 0,0.0647 -0.13229,0.1176 -0.29398,0.1176 -0.16169,0 -0.29398,-0.0529 -0.29398,-0.1176 z m 1.17592,0 c 0,-0.0647 0.1323,-0.11759 0.29399,-0.11759 0.16169,0 0.29398,0.0529 0.29398,0.11759 0,0.0647 -0.13229,0.1176 -0.29398,0.1176 -0.16169,0 -0.29399,-0.0529 -0.29399,-0.1176 z m 1.17593,0 c 0,-0.0647 0.13229,-0.11759 0.29398,-0.11759 0.16169,0 0.29398,0.0529 0.29398,0.11759 0,0.0647 -0.13229,0.1176 -0.29398,0.1176 -0.16169,0 -0.29398,-0.0529 -0.29398,-0.1176 z m 1.17593,0 c 0,-0.0647 0.13229,-0.11759 0.29398,-0.11759 0.16169,0 0.29398,0.0529 0.29398,0.11759 0,0.0647 -0.13229,0.1176 -0.29398,0.1176 -0.16169,0 -0.29398,-0.0529 -0.29398,-0.1176 z m 1.17592,0 c 0,-0.0647 0.13229,-0.11759 0.29398,-0.11759 0.16169,0 0.29399,0.0529 0.29399,0.11759 0,0.0647 -0.1323,0.1176 -0.29399,0.1176 -0.16169,0 -0.29398,-0.0529 -0.29398,-0.1176 z m 1.17593,0 c 0,-0.0647 0.13229,-0.11759 0.29398,-0.11759 0.16169,0 0.29398,0.0529 0.29398,0.11759 0,0.0647 -0.13229,0.1176 -0.29398,0.1176 -0.16169,0 -0.29398,-0.0529 -0.29398,-0.1176 z m 1.17592,0 c 0,-0.0647 0.1323,-0.11759 0.29399,-0.11759 0.16169,0 0.29398,0.0529 0.29398,0.11759 0,0.0647 -0.13229,0.1176 -0.29398,0.1176 -0.16169,0 -0.29399,-0.0529 -0.29399,-0.1176 z m 1.17593,0 c 0,-0.0647 0.13229,-0.11759 0.29398,-0.11759 0.16169,0 0.29398,0.0529 0.29398,0.11759 0,0.0647 -0.13229,0.1176 -0.29398,0.1176 -0.16169,0 -0.29398,-0.0529 -0.29398,-0.1176 z m 1.17593,0 c 0,-0.0647 0.13229,-0.11759 0.29398,-0.11759 0.16169,0 0.29398,0.0529 0.29398,0.11759 0,0.0647 -0.13229,0.1176 -0.29398,0.1176 -0.16169,0 -0.29398,-0.0529 -0.29398,-0.1176 z m 1.17592,0 c 0,-0.0647 0.13229,-0.11759 0.29398,-0.11759 0.16169,0 0.29399,0.0529 0.29399,0.11759 0,0.0647 -0.1323,0.1176 -0.29399,0.1176 -0.16169,0 -0.29398,-0.0529 -0.29398,-0.1176 z m 1.17593,0 c 0,-0.0647 0.13229,-0.11759 0.29398,-0.11759 0.16169,0 0.29398,0.0529 0.29398,0.11759 0,0.0647 -0.13229,0.1176 -0.29398,0.1176 -0.16169,0 -0.29398,-0.0529 -0.29398,-0.1176 z m 1.17592,0 c 0,-0.0647 0.1323,-0.11759 0.29399,-0.11759 0.16169,0 0.29398,0.0529 0.29398,0.11759 0,0.0647 -0.13229,0.1176 -0.29398,0.1176 -0.16169,0 -0.29399,-0.0529 -0.29399,-0.1176 z m 1.17593,0 c 0,-0.0647 0.13229,-0.11759 0.29398,-0.11759 0.16169,0 0.29398,0.0529 0.29398,0.11759 0,0.0647 -0.13229,0.1176 -0.29398,0.1176 -0.16169,0 -0.29398,-0.0529 -0.29398,-0.1176 z m 1.17593,0 c 0,-0.0647 0.13229,-0.11759 0.29398,-0.11759 0.16169,0 0.29398,0.0529 0.29398,0.11759 0,0.0647 -0.13229,0.1176 -0.29398,0.1176 -0.16169,0 -0.29398,-0.0529 -0.29398,-0.1176 z m 1.17592,0 c 0,-0.0647 0.13229,-0.11759 0.29398,-0.11759 0.16169,0 0.29398,0.0529 0.29398,0.11759 0,0.0647 -0.13229,0.1176 -0.29398,0.1176 -0.16169,0 -0.29398,-0.0529 -0.29398,-0.1176 z m 1.17593,0 c 0,-0.0647 0.13229,-0.11759 0.29398,-0.11759 0.16169,0 0.29398,0.0529 0.29398,0.11759 0,0.0647 -0.13229,0.1176 -0.29398,0.1176 -0.16169,0 -0.29398,-0.0529 -0.29398,-0.1176 z m 1.17592,0 c 0,-0.0647 0.1323,-0.11759 0.29398,-0.11759 0.16169,0 0.29399,0.0529 0.29399,0.11759 0,0.0647 -0.1323,0.1176 -0.29399,0.1176 -0.16168,0 -0.29398,-0.0529 -0.29398,-0.1176 z m 1.17593,0 c 0,-0.0647 0.13229,-0.11759 0.29398,-0.11759 0.16169,0 0.29398,0.0529 0.29398,0.11759 0,0.0647 -0.13229,0.1176 -0.29398,0.1176 -0.16169,0 -0.29398,-0.0529 -0.29398,-0.1176 z m 1.17593,0 c 0,-0.0647 0.13229,-0.11759 0.29398,-0.11759 0.16169,0 0.29398,0.0529 0.29398,0.11759 0,0.0647 -0.13229,0.1176 -0.29398,0.1176 -0.16169,0 -0.29398,-0.0529 -0.29398,-0.1176 z m 1.17592,0 c 0,-0.0647 0.13229,-0.11759 0.29398,-0.11759 0.16169,0 0.29398,0.0529 0.29398,0.11759 0,0.0647 -0.13229,0.1176 -0.29398,0.1176 -0.16169,0 -0.29398,-0.0529 -0.29398,-0.1176 z m 1.17593,0 c 0,-0.0647 0.13229,-0.11759 0.29398,-0.11759 0.16169,0 0.29398,0.0529 0.29398,0.11759 0,0.0647 -0.13229,0.1176 -0.29398,0.1176 -0.16169,0 -0.29398,-0.0529 -0.29398,-0.1176 z m 1.17592,0 c 0,-0.0647 0.13229,-0.11759 0.29398,-0.11759 0.16169,0 0.29399,0.0529 0.29399,0.11759 0,0.0647 -0.1323,0.1176 -0.29399,0.1176 -0.16169,0 -0.29398,-0.0529 -0.29398,-0.1176 z m 1.17593,0 c 0,-0.0647 0.13229,-0.11759 0.29398,-0.11759 0.16169,0 0.29398,0.0529 0.29398,0.11759 0,0.0647 -0.13229,0.1176 -0.29398,0.1176 -0.16169,0 -0.29398,-0.0529 -0.29398,-0.1176 z m 1.17592,0 c 0,-0.0647 0.1323,-0.11759 0.29399,-0.11759 0.16169,0 0.29398,0.0529 0.29398,0.11759 0,0.0647 -0.13229,0.1176 -0.29398,0.1176 -0.16169,0 -0.29399,-0.0529 -0.29399,-0.1176 z m 1.17593,0 c 0,-0.0647 0.13229,-0.11759 0.29398,-0.11759 0.16169,0 0.29398,0.0529 0.29398,0.11759 0,0.0647 -0.13229,0.1176 -0.29398,0.1176 -0.16169,0 -0.29398,-0.0529 -0.29398,-0.1176 z m 1.17593,0 c 0,-0.0647 0.13229,-0.11759 0.29398,-0.11759 0.16169,0 0.29398,0.0529 0.29398,0.11759 0,0.0647 -0.13229,0.1176 -0.29398,0.1176 -0.16169,0 -0.29398,-0.0529 -0.29398,-0.1176 z m 1.17592,0 c 0,-0.0647 0.13229,-0.11759 0.29398,-0.11759 0.16169,0 0.29399,0.0529 0.29399,0.11759 0,0.0647 -0.1323,0.1176 -0.29399,0.1176 -0.16169,0 -0.29398,-0.0529 -0.29398,-0.1176 z m 1.17593,0 c 0,-0.0647 0.13229,-0.11759 0.29398,-0.11759 0.16169,0 0.29398,0.0529 0.29398,0.11759 0,0.0647 -0.13229,0.1176 -0.29398,0.1176 -0.16169,0 -0.29398,-0.0529 -0.29398,-0.1176 z m 1.17592,0 c 0,-0.0647 0.1323,-0.11759 0.29399,-0.11759 0.16169,0 0.29398,0.0529 0.29398,0.11759 0,0.0647 -0.13229,0.1176 -0.29398,0.1176 -0.16169,0 -0.29399,-0.0529 -0.29399,-0.1176 z m 1.17593,0 c 0,-0.0647 0.13229,-0.11759 0.29398,-0.11759 0.16169,0 0.29398,0.0529 0.29398,0.11759 0,0.0647 -0.13229,0.1176 -0.29398,0.1176 -0.16169,0 -0.29398,-0.0529 -0.29398,-0.1176 z m 1.17593,0 c 0,-0.0647 0.13229,-0.11759 0.29398,-0.11759 0.16169,0 0.29398,0.0529 0.29398,0.11759 0,0.0647 -0.13229,0.1176 -0.29398,0.1176 -0.16169,0 -0.29398,-0.0529 -0.29398,-0.1176 z m 1.17592,0 c 0,-0.0647 0.13229,-0.11759 0.29398,-0.11759 0.16169,0 0.29399,0.0529 0.29399,0.11759 0,0.0647 -0.1323,0.1176 -0.29399,0.1176 -0.16169,0 -0.29398,-0.0529 -0.29398,-0.1176 z m 1.17593,0 c 0,-0.0647 0.13229,-0.11759 0.29398,-0.11759 0.16169,0 0.29398,0.0529 0.29398,0.11759 0,0.0647 -0.13229,0.1176 -0.29398,0.1176 -0.16169,0 -0.29398,-0.0529 -0.29398,-0.1176 z m 1.17592,0 c 0,-0.0647 0.1323,-0.11759 0.29399,-0.11759 0.16169,0 0.29398,0.0529 0.29398,0.11759 0,0.0647 -0.13229,0.1176 -0.29398,0.1176 -0.16169,0 -0.29399,-0.0529 -0.29399,-0.1176 z m 1.17593,0 c 0,-0.0647 0.13229,-0.11759 0.29398,-0.11759 0.16169,0 0.29398,0.0529 0.29398,0.11759 0,0.0647 -0.13229,0.1176 -0.29398,0.1176 -0.16169,0 -0.29398,-0.0529 -0.29398,-0.1176 z m 1.17593,0 c 0,-0.0647 0.13229,-0.11759 0.29398,-0.11759 0.16169,0 0.29398,0.0529 0.29398,0.11759 0,0.0647 -0.13229,0.1176 -0.29398,0.1176 -0.16169,0 -0.29398,-0.0529 -0.29398,-0.1176 z m 1.17592,0 c 0,-0.0647 0.13229,-0.11759 0.29398,-0.11759 0.16169,0 0.29398,0.0529 0.29398,0.11759 0,0.0647 -0.13229,0.1176 -0.29398,0.1176 -0.16169,0 -0.29398,-0.0529 -0.29398,-0.1176 z m 1.17593,0 c 0,-0.0647 0.13229,-0.11759 0.29398,-0.11759 0.16169,0 0.29398,0.0529 0.29398,0.11759 0,0.0647 -0.13229,0.1176 -0.29398,0.1176 -0.16169,0 -0.29398,-0.0529 -0.29398,-0.1176 z m 1.17592,0 c 0,-0.0647 0.1323,-0.11759 0.29399,-0.11759 0.16168,0 0.29398,0.0529 0.29398,0.11759 0,0.0647 -0.1323,0.1176 -0.29398,0.1176 -0.16169,0 -0.29399,-0.0529 -0.29399,-0.1176 z m 1.17593,0 c 0,-0.0647 0.13229,-0.11759 0.29398,-0.11759 0.16169,0 0.29398,0.0529 0.29398,0.11759 0,0.0647 -0.13229,0.1176 -0.29398,0.1176 -0.16169,0 -0.29398,-0.0529 -0.29398,-0.1176 z m 1.17593,0 c 0,-0.0647 0.13229,-0.11759 0.29398,-0.11759 0.16169,0 0.29398,0.0529 0.29398,0.11759 0,0.0647 -0.13229,0.1176 -0.29398,0.1176 -0.16169,0 -0.29398,-0.0529 -0.29398,-0.1176 z m 1.17592,0 c 0,-0.0647 0.13229,-0.11759 0.29398,-0.11759 0.16169,0 0.29398,0.0529 0.29398,0.11759 0,0.0647 -0.13229,0.1176 -0.29398,0.1176 -0.16169,0 -0.29398,-0.0529 -0.29398,-0.1176 z m 1.17593,0 c 0,-0.0647 0.13229,-0.11759 0.29398,-0.11759 0.16169,0 0.29398,0.0529 0.29398,0.11759 0,0.0647 -0.13229,0.1176 -0.29398,0.1176 -0.16169,0 -0.29398,-0.0529 -0.29398,-0.1176 z m 1.17592,0 c 0,-0.0647 0.13229,-0.11759 0.29398,-0.11759 0.16169,0 0.29399,0.0529 0.29399,0.11759 0,0.0647 -0.1323,0.1176 -0.29399,0.1176 -0.16169,0 -0.29398,-0.0529 -0.29398,-0.1176 z m 1.17593,0 c 0,-0.0647 0.13229,-0.11759 0.29398,-0.11759 0.16169,0 0.29398,0.0529 0.29398,0.11759 0,0.0647 -0.13229,0.1176 -0.29398,0.1176 -0.16169,0 -0.29398,-0.0529 -0.29398,-0.1176 z m 1.17592,0 c 0,-0.0647 0.1323,-0.11759 0.29399,-0.11759 0.16169,0 0.29398,0.0529 0.29398,0.11759 0,0.0647 -0.13229,0.1176 -0.29398,0.1176 -0.16169,0 -0.29399,-0.0529 -0.29399,-0.1176 z m 1.17593,0 c 0,-0.0647 0.13229,-0.11759 0.29398,-0.11759 0.16169,0 0.29398,0.0529 0.29398,0.11759 0,0.0647 -0.13229,0.1176 -0.29398,0.1176 -0.16169,0 -0.29398,-0.0529 -0.29398,-0.1176 z m 1.17593,0 c 0,-0.0647 0.13229,-0.11759 0.29398,-0.11759 0.16169,0 0.29398,0.0529 0.29398,0.11759 0,0.0647 -0.13229,0.1176 -0.29398,0.1176 -0.16169,0 -0.29398,-0.0529 -0.29398,-0.1176 z m 1.17592,0 c 0,-0.0647 0.13229,-0.11759 0.29398,-0.11759 0.16169,0 0.29399,0.0529 0.29399,0.11759 0,0.0647 -0.1323,0.1176 -0.29399,0.1176 -0.16169,0 -0.29398,-0.0529 -0.29398,-0.1176 z m 1.17593,0 c 0,-0.0647 0.13229,-0.11759 0.29398,-0.11759 0.16169,0 0.29398,0.0529 0.29398,0.11759 0,0.0647 -0.13229,0.1176 -0.29398,0.1176 -0.16169,0 -0.29398,-0.0529 -0.29398,-0.1176 z m 1.17592,0 c 0,-0.0647 0.1323,-0.11759 0.29399,-0.11759 0.16169,0 0.29398,0.0529 0.29398,0.11759 0,0.0647 -0.13229,0.1176 -0.29398,0.1176 -0.16169,0 -0.29399,-0.0529 -0.29399,-0.1176 z m 1.17593,0 c 0,-0.0647 0.13229,-0.11759 0.29398,-0.11759 0.16169,0 0.29398,0.0529 0.29398,0.11759 0,0.0647 -0.13229,0.1176 -0.29398,0.1176 -0.16169,0 -0.29398,-0.0529 -0.29398,-0.1176 z m 1.17593,0 c 0,-0.0647 0.13229,-0.11759 0.29398,-0.11759 0.16169,0 0.29398,0.0529 0.29398,0.11759 0,0.0647 -0.13229,0.1176 -0.29398,0.1176 -0.16169,0 -0.29398,-0.0529 -0.29398,-0.1176 z m 1.17592,0 c 0,-0.0647 0.13229,-0.11759 0.29398,-0.11759 0.16169,0 0.29399,0.0529 0.29399,0.11759 0,0.0647 -0.1323,0.1176 -0.29399,0.1176 -0.16169,0 -0.29398,-0.0529 -0.29398,-0.1176 z m 1.17593,0 c 0,-0.0647 0.13229,-0.11759 0.29398,-0.11759 0.16169,0 0.29398,0.0529 0.29398,0.11759 0,0.0647 -0.13229,0.1176 -0.29398,0.1176 -0.16169,0 -0.29398,-0.0529 -0.29398,-0.1176 z m 1.17592,0 c 0,-0.0647 0.1323,-0.11759 0.29399,-0.11759 0.16169,0 0.29398,0.0529 0.29398,0.11759 0,0.0647 -0.13229,0.1176 -0.29398,0.1176 -0.16169,0 -0.29399,-0.0529 -0.29399,-0.1176 z m 1.17593,0 c 0,-0.0647 0.13229,-0.11759 0.29398,-0.11759 0.16169,0 0.29398,0.0529 0.29398,0.11759 0,0.0647 -0.13229,0.1176 -0.29398,0.1176 -0.16169,0 -0.29398,-0.0529 -0.29398,-0.1176 z m 1.17593,0 c 0,-0.0647 0.13229,-0.11759 0.29398,-0.11759 0.16169,0 0.29398,0.0529 0.29398,0.11759 0,0.0647 -0.13229,0.1176 -0.29398,0.1176 -0.16169,0 -0.29398,-0.0529 -0.29398,-0.1176 z m 1.17592,0 c 0,-0.0647 0.13229,-0.11759 0.29398,-0.11759 0.16169,0 0.29398,0.0529 0.29398,0.11759 0,0.0647 -0.13229,0.1176 -0.29398,0.1176 -0.16169,0 -0.29398,-0.0529 -0.29398,-0.1176 z m 1.17593,0 c 0,-0.0647 0.13229,-0.11759 0.29398,-0.11759 0.16169,0 0.29398,0.0529 0.29398,0.11759 0,0.0647 -0.13229,0.1176 -0.29398,0.1176 -0.16169,0 -0.29398,-0.0529 -0.29398,-0.1176 z m 1.17592,0 c 0,-0.0647 0.1323,-0.11759 0.29399,-0.11759 0.16168,0 0.29398,0.0529 0.29398,0.11759 0,0.0647 -0.1323,0.1176 -0.29398,0.1176 -0.16169,0 -0.29399,-0.0529 -0.29399,-0.1176 z m 1.17593,0 c 0,-0.0647 0.13229,-0.11759 0.29398,-0.11759 0.16169,0 0.29398,0.0529 0.29398,0.11759 0,0.0647 -0.13229,0.1176 -0.29398,0.1176 -0.16169,0 -0.29398,-0.0529 -0.29398,-0.1176 z m 1.17593,0 c 0,-0.0647 0.13229,-0.11759 0.29398,-0.11759 0.16169,0 0.29398,0.0529 0.29398,0.11759 0,0.0647 -0.13229,0.1176 -0.29398,0.1176 -0.16169,0 -0.29398,-0.0529 -0.29398,-0.1176 z m 1.17592,0 c 0,-0.0647 0.13229,-0.11759 0.29398,-0.11759 0.16169,0 0.29398,0.0529 0.29398,0.11759 0,0.0647 -0.13229,0.1176 -0.29398,0.1176 -0.16169,0 -0.29398,-0.0529 -0.29398,-0.1176 z m 1.17593,0 c 0,-0.0647 0.13229,-0.11759 0.29398,-0.11759 0.16169,0 0.29398,0.0529 0.29398,0.11759 0,0.0647 -0.13229,0.1176 -0.29398,0.1176 -0.16169,0 -0.29398,-0.0529 -0.29398,-0.1176 z m 1.17592,0 c 0,-0.0647 0.13229,-0.11759 0.29398,-0.11759 0.16169,0 0.29399,0.0529 0.29399,0.11759 0,0.0647 -0.1323,0.1176 -0.29399,0.1176 -0.16169,0 -0.29398,-0.0529 -0.29398,-0.1176 z m 1.17593,0 c 0,-0.0647 0.13229,-0.11759 0.29398,-0.11759 0.16169,0 0.29398,0.0529 0.29398,0.11759 0,0.0647 -0.13229,0.1176 -0.29398,0.1176 -0.16169,0 -0.29398,-0.0529 -0.29398,-0.1176 z m 1.17593,0 c 0,-0.0647 0.13229,-0.11759 0.29398,-0.11759 0.16169,0 0.29398,0.0529 0.29398,0.11759 0,0.0647 -0.13229,0.1176 -0.29398,0.1176 -0.16169,0 -0.29398,-0.0529 -0.29398,-0.1176 z m 1.17592,0 c 0,-0.0647 0.0794,-0.11759 0.17639,-0.11759 0.097,0 0.17639,0.0529 0.17639,0.11759 0,0.0647 -0.0794,0.1176 -0.17639,0.1176 -0.097,0 -0.17639,-0.0529 -0.17639,-0.1176 z m -122.53148,-6.19824 c -0.097,-0.0357 -0.27015,-0.14657 -0.38475,-0.24645 l -0.20836,-0.1816 -0.41299,0.19694 c -0.55219,0.26333 -0.94171,0.24821 -1.23796,-0.048 -0.13475,-0.13475 -0.41256,-0.26567 -0.61736,-0.29095 -0.20481,-0.0253 -0.45512,-0.14685 -0.55625,-0.27014 -0.10112,-0.1233 -0.39217,-0.26011 -0.64675,-0.30403 -0.54631,-0.0943 -0.72675,-0.21957 -1.11063,-0.77137 -0.15748,-0.22637 -0.40213,-0.53819 -0.54366,-0.69294 -0.14154,-0.15476 -0.32203,-0.5124 -0.40109,-0.79478 -0.29935,-1.06919 0.2237,-1.65712 2.12165,-2.3848 0.54975,-0.21078 1.10537,-0.42576 1.23472,-0.47775 0.12936,-0.052 0.4204,-0.15812 0.64676,-0.23585 0.67855,-0.233 0.99117,-0.40036 1.1532,-0.61736 0.0845,-0.11318 0.23075,-0.20578 0.32498,-0.20578 0.0942,0 0.2632,-0.0496 0.3755,-0.11033 0.11231,-0.0607 0.72253,-0.36064 1.35605,-0.6666 0.63352,-0.30595 1.17931,-0.60071 1.21287,-0.65501 0.0549,-0.0888 -2.39276,-1.34329 -3.72105,-1.90723 -1.83877,-0.78067 -4.09947,-1.90045 -4.85033,-2.40249 -0.25859,-0.1729 -0.61112,-0.39374 -0.7834,-0.49075 -1.10467,-0.62205 -1.60129,-1.69881 -1.15323,-2.50044 0.33608,-0.6013 0.45742,-0.67456 1.1172,-0.67456 0.62338,0 0.91022,0.1256 1.57429,0.68936 0.14292,0.12134 0.66129,0.17075 2.00838,0.19145 0.99866,0.0154 2.07613,0.0855 2.39439,0.15586 0.31826,0.0704 0.89615,0.18558 1.28421,0.25599 0.38806,0.0704 0.93121,0.1788 1.20701,0.24084 1.33229,0.29969 3.00542,0.0501 3.89087,-0.58037 0.19123,-0.13617 0.3806,-0.24758 0.42082,-0.24758 0.20822,0 2.58359,-2.74254 3.36102,-3.88055 0.15465,-0.22637 0.31444,-0.43803 0.35511,-0.47037 0.15564,-0.12377 1.28971,-1.87693 1.28971,-1.99376 0,-0.0676 0.0529,-0.12291 0.11759,-0.12291 0.0647,0 0.11759,-0.0566 0.11759,-0.1258 0,-0.0692 0.15375,-0.34927 0.34167,-0.6224 0.18791,-0.27312 0.78972,-1.26162 1.33735,-2.19665 0.54763,-0.93503 1.1167,-1.81917 1.26459,-1.96475 l 0.2689,-0.2647 -0.15388,-0.67604 c -0.34225,-1.50362 -1.45706,-5.60393 -2.00618,-7.37882 -0.43328,-1.40048 -0.84311,-2.61877 -0.93896,-2.79123 -0.0624,-0.11231 -0.11349,-0.285 -0.11349,-0.38377 0,-0.0988 -0.0467,-0.27147 -0.10387,-0.38377 -0.13647,-0.26827 -0.26649,-0.58911 -0.72609,-1.7917 -0.21009,-0.54974 -0.4268,-1.0498 -0.48157,-1.11125 -0.0548,-0.0614 -0.0996,-0.20696 -0.0996,-0.32338 0,-0.11641 -0.048,-0.21166 -0.10662,-0.21166 -0.0586,0 -0.14376,0.51594 -0.18916,1.14653 -0.12651,1.75718 -0.33293,2.41985 -1.52007,4.87985 -0.87687,1.81705 -1.02648,2.41504 -1.04774,4.18786 l -0.0174,1.45359 0.44097,0.38155 c 0.50945,0.44081 0.5498,0.72 0.15779,1.09159 -0.35607,0.33751 -0.55784,0.3333 -0.97819,-0.0204 -0.48574,-0.40873 -1.08826,-1.74829 -1.09208,-2.428 -0.002,-0.3898 -0.12403,-0.8148 -0.23359,-0.8148 -0.0496,0 -0.11911,0.11907 -0.15449,0.26459 -0.0354,0.14552 -0.124,0.47625 -0.19694,0.73495 -0.77795,2.7593 -0.63442,4.08426 0.69977,6.45968 0.31155,0.55468 0.27358,0.88892 -0.12641,1.11267 -0.25791,0.14427 -0.36647,0.14734 -0.67614,0.0191 -1.06211,-0.43994 -1.72731,-1.76881 -2.12245,-4.24002 -0.30718,-1.9211 -0.49592,-2.77165 -0.78282,-3.52778 l -0.15617,-0.41157 -0.006,1.20364 c -0.015,2.9865 -0.99071,4.4996 -2.90144,4.4996 h -0.6324 v -0.35647 c 0,-0.19606 0.0661,-0.37522 0.14699,-0.39814 0.0808,-0.0229 0.36951,-0.10205 0.64146,-0.17583 0.27196,-0.0738 0.66034,-0.27373 0.86308,-0.44432 0.26184,-0.22033 0.39373,-0.26949 0.45537,-0.16975 0.1091,0.17652 0.52827,-0.66181 0.69766,-1.39531 0.32695,-1.41577 0.20779,-4.07693 -0.32645,-7.29074 -0.44907,-2.7014 -0.54835,-3.70624 -0.37668,-3.81233 0.18119,-0.11199 0.3478,0.36404 0.48493,1.38551 0.062,0.46163 0.16647,1.15682 0.23221,1.54488 0.22375,1.32065 0.35611,2.23284 0.45659,3.14656 0.0552,0.50177 0.17656,1.00448 0.26974,1.11713 0.47483,0.57407 0.92825,2.10059 1.28333,4.32057 0.36518,2.28311 0.89404,3.65509 1.58292,4.10647 0.47468,0.31102 0.55404,0.17612 0.24164,-0.41072 -0.6976,-1.31044 -0.96931,-2.86251 -0.7729,-4.41507 0.14945,-1.18142 0.66616,-3.19516 1.05254,-4.10198 0.0551,-0.12935 0.21635,-0.55268 0.35831,-0.94074 0.32286,-0.88253 0.40717,-1.10189 0.56494,-1.46991 0.12328,-0.28754 0.15102,-0.43408 0.37848,-1.99907 0.33384,-2.29693 0.39324,-3.07377 0.38664,-5.05648 -0.004,-1.1965 -0.0465,-2.56347 -0.0945,-3.03771 -0.0572,-0.56556 -0.0443,-0.90522 0.0376,-0.98715 0.0881,-0.0881 0.14159,-0.042 0.18162,0.15669 0.30787,1.5285 0.32842,1.86473 0.26571,4.34704 -0.0367,1.45053 -0.12154,3.03421 -0.18865,3.51928 -0.0671,0.48507 -0.15137,1.25236 -0.18726,1.70509 -0.0596,0.75171 -0.13768,1.09337 -0.40312,1.76389 -0.58076,1.46701 -0.58872,1.50418 -0.58872,2.75137 0,0.9365 0.0562,1.40386 0.22405,1.86306 0.2024,0.55376 0.5991,1.14012 0.5991,0.88554 0,-0.0564 -0.0594,-0.1619 -0.13207,-0.23454 -0.18971,-0.18971 -0.17952,-3.02516 0.013,-3.62017 0.0835,-0.25813 0.20274,-0.62809 0.26493,-0.82211 0.13301,-0.41507 0.18018,-0.52711 0.74251,-1.76389 1.22211,-2.68792 1.57665,-3.95217 1.57926,-5.63148 0.001,-0.87321 -0.0403,-1.19549 -0.16702,-1.29352 -0.22143,-0.17125 -0.53731,-2.78534 -0.53499,-4.42743 0.003,-2.24235 0.49151,-3.55243 1.81802,-4.87719 0.94954,-0.9483 2.0088,-1.55512 3.41841,-1.95832 1.4034,-0.40143 3.98545,-0.3732 6.15337,0.0673 1.69469,0.34432 2.68951,0.66659 3.24874,1.05243 0.52292,0.36079 0.9926,0.88945 1.07228,1.20695 0.0696,0.27739 0.17396,0.34714 0.31231,0.20879 0.36469,-0.36469 -2.28494,-2.52118 -4.40868,-3.58816 -0.53573,-0.26916 -1.10635,-0.54098 -1.26804,-0.60406 -0.16169,-0.0631 -0.38587,-0.16142 -0.49818,-0.21855 -0.1123,-0.0571 -0.30762,-0.10387 -0.43403,-0.10387 -0.12641,0 -0.26254,-0.0529 -0.30251,-0.11759 -0.04,-0.0647 -0.18486,-0.1176 -0.32198,-0.1176 -0.13711,0 -0.4118,-0.0488 -0.61042,-0.10857 -1.12499,-0.33823 -1.7692,-0.39354 -4.40964,-0.3786 -1.52452,0.009 -3.16873,-0.0428 -3.6538,-0.11426 -1.22007,-0.17975 -2.29959,0.0229 -3.175,0.59595 -1.10265,0.72184 -1.77428,0.94623 -2.83223,0.94623 -1.46125,0 -2.61264,-0.60917 -4.21695,-2.23105 -1.00593,-1.01694 -1.28624,-1.21785 -2.03485,-1.45841 -0.11318,-0.0364 -0.20578,-0.17362 -0.20578,-0.305 0,-0.18772 0.0765,-0.23888 0.35746,-0.23888 0.589,0 1.24486,0.42423 2.51172,1.62468 1.36143,1.29005 1.66991,1.55032 1.83746,1.55032 0.0648,0 0.20973,0.0473 0.32204,0.10505 0.1123,0.0578 0.482,0.16851 0.82155,0.24606 0.61711,0.14094 1.51226,0.0338 2.05627,-0.24606 0.11231,-0.0578 0.26064,-0.10505 0.32962,-0.10505 0.069,0 0.32106,-0.13563 0.56016,-0.3014 l 0.43474,-0.3014 -0.57569,0.0821 c -0.80667,0.1151 -0.76052,0.1147 -1.54098,0.0133 -1.15269,-0.14975 -2.15785,-0.58423 -2.89782,-1.2526 -0.25301,-0.22853 -0.89513,-1.0736 -1.42693,-1.87795 -1.1495,-1.73861 -1.74815,-2.24172 -2.66746,-2.24172 -0.67399,0 -1.17303,0.30263 -1.74742,1.05968 -0.47456,0.62546 -0.55898,0.67293 -0.64075,0.36025 -0.13339,-0.51007 0.955,-1.77466 1.71111,-1.98812 0.23227,-0.0656 0.73638,-0.46906 1.30466,-1.04423 0.50937,-0.51555 1.13114,-1.06407 1.38171,-1.21894 0.25057,-0.15486 0.45558,-0.32199 0.45558,-0.3714 0,-0.0494 0.0794,-0.0898 0.17639,-0.0898 0.097,0 0.17639,-0.0516 0.17639,-0.11465 0,-0.0644 -0.16761,-0.086 -0.38217,-0.0493 -1.14259,0.19548 -3.28863,1.49513 -3.98357,2.41246 -0.86608,1.14323 -1.20764,2.12493 -1.38611,3.98387 -0.12376,1.28919 -0.0195,2.07101 0.56848,4.26273 0.62008,2.31142 0.73279,2.8126 0.89249,3.96875 0.48066,3.47978 -0.1109,7.31046 -1.33019,8.61366 -0.39988,0.42739 -0.13542,0.41177 0.50657,-0.0299 1.22158,-0.84046 2.08158,-2.40473 2.74732,-4.99715 0.22829,-0.88895 0.30314,-1.6491 0.30106,-3.05741 -0.003,-1.71706 -0.0998,-2.28929 -0.53463,-3.144 -0.16049,-0.31548 -0.12542,-0.79535 0.0581,-0.79535 0.22422,0 0.3582,0.20576 0.53602,0.82315 0.0838,0.29104 0.20277,0.66781 0.2643,0.83726 0.13789,0.37967 0.0477,4.03215 -0.12161,4.92478 -0.0675,0.35572 -0.18076,0.91134 -0.25176,1.23472 -0.071,0.32338 -0.15929,0.73413 -0.19619,0.91278 -0.0369,0.17865 -0.1139,0.35375 -0.17112,0.38912 -0.0572,0.0354 -0.10471,0.15378 -0.10553,0.26314 -0.002,0.23309 -0.87836,1.98968 -1.13698,2.27833 -0.75395,0.84151 -0.63024,2.98664 0.30731,5.32885 0.0518,0.12935 0.14706,0.36748 0.21174,0.52917 0.0647,0.16169 0.18466,0.45273 0.26665,0.64676 0.082,0.19403 0.18781,0.45861 0.23518,0.58796 0.0474,0.12935 0.14265,0.36748 0.21174,0.52917 0.17883,0.41854 0.55202,1.60739 0.71112,2.26534 0.2533,1.04753 0.13406,2.35859 -0.3207,3.52609 -0.1749,0.449 0.02,0.40384 0.43616,-0.10109 0.46054,-0.55871 0.52564,-0.88441 0.52624,-2.63294 4.7e-4,-1.37014 -0.0786,-2.14884 -0.3823,-3.76296 -0.0669,-0.35572 -0.18486,-0.99072 -0.26208,-1.41111 -0.17983,-0.97897 -0.18619,-3.52914 -0.0107,-4.29213 0.31906,-1.38719 0.32864,-1.41111 0.56525,-1.41111 0.25956,0 0.27048,0.18894 0.0544,0.94074 -0.21462,0.74667 -0.47072,2.55877 -0.40717,2.88102 0.0319,0.16169 0.10926,0.77023 0.17194,1.35231 0.24681,2.29205 0.25897,2.3341 1.10527,3.82176 0.94417,1.6597 1.51718,3.15492 1.64487,4.29213 l 0.066,0.58797 -0.23233,-0.27762 c -0.12778,-0.15268 -0.23233,-0.34497 -0.23233,-0.42729 0,-0.20629 -0.87514,-2.29126 -1.2668,-3.01809 l -0.3207,-0.59514 -0.0677,1.57111 c -0.0372,0.8641 -0.10789,1.70339 -0.15705,1.86508 -0.34283,1.12777 -1.05326,1.91952 -1.83441,2.04444 -0.90216,0.14426 -1.09083,-0.28063 -0.43868,-0.9879 1.00461,-1.0895 1.37246,-2.57446 1.0114,-4.08286 -0.22704,-0.94853 -0.5879,-2.05934 -0.88031,-2.7098 -0.15351,-0.34147 -0.2791,-0.66226 -0.2791,-0.71287 0,-0.0506 -0.10583,-0.31107 -0.23519,-0.5788 -0.12935,-0.26772 -0.23518,-0.55812 -0.23518,-0.64532 0,-0.0872 -0.0434,-0.20883 -0.0964,-0.27027 -0.23685,-0.27443 -0.84432,-2.69006 -0.84432,-3.3575 v -0.34682 l -0.34044,0.17604 c -0.51279,0.26518 -1.19837,0.33837 -1.75797,0.18769 -0.67378,-0.18143 -0.98268,-0.50533 -0.93653,-0.98199 l 0.0363,-0.37524 0.39183,0.0382 c 0.43109,0.042 1.04686,-0.20382 1.33362,-0.53249 0.64141,-0.73513 1.19348,-2.35022 1.40829,-4.11992 0.23131,-1.90571 -0.15332,-4.7495 -1.07773,-7.96821 -0.0743,-0.2587 -0.1608,-0.62912 -0.19222,-0.82315 -0.0314,-0.19402 -0.10368,-0.45861 -0.16057,-0.58796 -0.0569,-0.12935 -0.1296,-0.47331 -0.16157,-0.76435 -0.032,-0.29104 -0.0945,-0.8373 -0.13901,-1.21391 -0.049,-0.41525 -0.0317,-0.78551 0.044,-0.94075 0.0687,-0.14079 0.15171,-0.41474 0.18454,-0.60877 0.16435,-0.97146 0.38843,-1.85194 0.58357,-2.29305 0.72909,-1.64811 2.48026,-3.08881 4.57273,-3.76203 0.7962,-0.25616 1.99803,-0.28025 2.99036,-0.0599 0.45525,0.10107 1.61757,-0.42504 2.33293,-1.05598 0.78249,-0.69015 1.59257,-0.5049 1.89,0.43221 0.0661,0.20838 0.13747,0.22813 0.56341,0.15596 0.26823,-0.0454 0.85275,-0.10624 1.29893,-0.13511 l 0.81125,-0.0525 0.34924,0.35721 c 0.2319,0.2372 0.46503,0.3572 0.6939,0.3572 0.41151,0 0.98103,0.27093 1.40756,0.66959 l 0.31024,0.28996 -0.0599,1.25472 c -0.0329,0.69009 -0.10639,1.30499 -0.16325,1.36643 -0.0568,0.0614 -0.10338,0.25676 -0.10338,0.43403 0,0.17728 -0.0529,0.35502 -0.11759,0.395 -0.0647,0.04 -0.11759,0.19872 -0.11759,0.35277 0,0.15406 -0.0529,0.31281 -0.11759,0.35278 -0.0647,0.04 -0.1176,0.20532 -0.1176,0.36743 0,0.16211 -0.17982,0.68395 -0.39961,1.15965 l -0.39961,0.8649 0.5466,0.23454 c 0.77571,0.33284 1.94847,0.52093 2.65225,0.42537 1.39446,-0.18936 3.32667,-1.0277 5.02183,-2.17886 0.37374,-0.2538 0.71258,-0.46145 0.75299,-0.46145 0.0404,0 0.30419,-0.15875 0.5862,-0.35278 0.28201,-0.19403 0.56495,-0.35278 0.62875,-0.35278 0.0638,0 0.13364,-0.0438 0.1552,-0.0974 0.0547,-0.13584 1.91442,-1.02907 2.62624,-1.26136 0.82359,-0.26878 2.24433,-0.34982 3.01155,-0.1718 0.3486,0.0809 0.96173,0.30097 1.3625,0.48907 0.74171,0.3481 1.79956,1.27686 1.79956,1.57996 0,0.0919 0.0529,0.16711 0.11759,0.16711 0.0647,0 0.11759,0.0952 0.11759,0.21166 0,0.11642 0.0661,0.27782 0.14699,0.35867 0.0997,0.0997 0.14512,0.54257 0.14119,1.3754 -0.007,1.42534 -0.14649,1.29143 1.54192,1.47758 3.86068,0.42565 6.93092,0.96496 9.253,1.62535 0.24254,0.069 0.61296,0.17394 0.82315,0.23325 0.47427,0.13382 1.02959,0.31424 1.26952,0.41245 0.14839,0.0608 0.20866,-0.0936 0.32813,-0.8403 0.0805,-0.50309 0.19712,-1.07722 0.25918,-1.27584 0.0621,-0.19862 0.11285,-0.49977 0.11285,-0.66922 0,-0.16945 0.0529,-0.34079 0.11759,-0.38076 0.0647,-0.04 0.11759,-0.19936 0.11759,-0.35419 0,-0.15483 0.0471,-0.40306 0.1047,-0.55162 0.0576,-0.14857 0.27882,-0.82574 0.49163,-1.50484 0.21281,-0.6791 0.43028,-1.28499 0.48326,-1.34644 0.053,-0.0614 0.0963,-0.18108 0.0963,-0.26586 0,-0.0848 0.10007,-0.37847 0.22238,-0.65264 0.1223,-0.27417 0.37171,-0.84245 0.55423,-1.26284 0.36689,-0.84503 1.97065,-4.04009 2.37578,-4.7331 0.28625,-0.48964 0.60184,-1.04037 0.97712,-1.70509 0.13692,-0.24254 0.34859,-0.58144 0.47037,-0.75311 0.12178,-0.17167 0.22142,-0.33956 0.22142,-0.37308 0,-0.14535 1.96091,-3.25215 2.42333,-3.83944 0.63599,-0.80773 1.57685,-1.89419 1.92146,-2.21881 0.54254,-0.51105 1.71227,-1.31163 1.91644,-1.31163 0.0876,0 0.22341,-0.0641 0.30174,-0.14241 0.0938,-0.0938 0.55323,-0.14035 1.34643,-0.13637 0.93911,0.005 1.3722,0.0649 1.96837,0.2737 0.4204,0.14721 0.81463,0.31441 0.87607,0.37156 0.0614,0.0571 0.18164,0.10389 0.2671,0.10389 0.14816,0 0.3449,0.1144 1.76908,1.02863 0.34055,0.21861 1.09475,0.85004 1.67599,1.40317 1.15029,1.09464 0.96458,1.03188 2.17334,0.73458 0.2587,-0.0636 0.81433,-0.16645 1.23472,-0.2285 2.31987,-0.34242 2.7552,-0.54576 3.77222,-1.76195 0.251,-0.30015 0.81389,-1.44226 0.81389,-1.65138 0,-0.0636 -0.0478,-0.20759 -0.10613,-0.31989 -0.39427,-0.75855 -0.54106,-2.13469 -0.53608,-5.02549 0.004,-2.32944 0.0986,-3.41216 0.40566,-4.64491 0.0725,-0.29104 0.17369,-0.74083 0.22487,-0.99953 0.0512,-0.25871 0.18791,-0.68204 0.30385,-0.94074 0.11594,-0.25871 0.25638,-0.58944 0.31209,-0.73496 0.19275,-0.50347 0.30917,-0.79577 0.50393,-1.2653 0.10758,-0.25936 0.21191,-0.84144 0.23183,-1.29352 0.0265,-0.60143 0.11875,-0.98451 0.34378,-1.42779 0.33077,-0.65158 1.51596,-1.92242 1.79285,-1.92242 0.0928,0 0.16872,-0.0529 0.16872,-0.11759 0,-0.0647 0.0955,-0.11759 0.21216,-0.11759 0.11669,0 0.44742,-0.14786 0.73496,-0.32859 1.53494,-0.96474 2.97443,-1.36146 4.68697,-1.29171 1.44398,0.0588 2.24439,0.30378 3.34872,1.02491 1.66542,1.08753 3.28787,3.12797 3.83953,4.82872 0.30561,0.94217 0.15169,2.98924 -0.26038,3.4631 -0.0534,0.0614 -0.0983,0.19374 -0.0998,0.29398 -0.003,0.22847 -0.46154,0.83026 -0.46514,0.61082 -10e-4,-0.0877 0.0811,-0.48227 0.1833,-0.87686 0.13083,-0.50492 0.17438,-1.10215 0.14699,-2.01605 -0.0464,-1.54918 -0.29783,-2.20367 -1.34368,-3.49809 -1.13287,-1.40213 -2.41539,-2.32532 -3.98691,-2.86987 -0.74265,-0.25734 -2.82334,-0.29325 -3.58657,-0.0619 -1.26103,0.38222 -1.86027,0.68939 -1.90293,0.97544 -0.0275,0.18437 -0.1924,0.30081 -0.62531,0.44156 -0.82297,0.26755 -1.22967,0.50656 -1.79413,1.05435 -0.72117,0.69988 -1.27136,1.88651 -0.78884,1.70135 0.17151,-0.0658 1.01893,0.10696 1.52463,0.31085 0.48972,0.19744 0.96172,0.33266 1.5875,0.45479 0.35572,0.0694 0.79228,0.15446 0.97014,0.18898 0.9537,0.18506 1.20349,0.26257 1.76229,0.54684 0.11231,0.0571 0.28429,0.10387 0.38218,0.10387 0.0979,0 0.17798,0.0529 0.17798,0.11759 0,0.0647 0.0661,0.11927 0.147,0.12131 0.38791,0.01 1.14678,0.96574 1.35064,1.70138 0.2411,0.87005 0.48673,1.64126 0.7865,2.46944 0.16387,0.45273 0.29906,1.00151 0.30042,1.21951 l 0.002,0.39635 0.47024,-0.48455 c 0.37097,-0.38226 0.55546,-0.48455 0.87394,-0.48455 1.03302,0 1.16606,1.47751 0.2884,3.2028 -0.0571,0.11231 -0.10387,0.28429 -0.10387,0.38218 0,0.0979 -0.0529,0.17798 -0.1176,0.17798 -0.0647,0 -0.11759,0.0834 -0.11759,0.1854 0,0.4318 2.11026,-2.70806 2.87037,-4.27082 0.12322,-0.25335 0.30648,-0.36061 0.30292,-0.17731 -0.0126,0.64788 -1.60612,3.55632 -2.64722,4.83154 -0.0878,0.10755 -0.50878,0.63211 -0.9355,1.16568 -0.42672,0.53358 -0.84764,0.97014 -0.93538,0.97014 -0.18826,0 -0.88925,0.76743 -0.88989,0.97423 -2.5e-4,0.0786 -0.30752,0.75144 -0.68283,1.49522 -0.37531,0.74377 -0.74911,1.59044 -0.83067,1.88148 -0.0816,0.29104 -0.19762,0.69167 -0.25792,0.89029 -0.18758,0.61793 -0.13125,1.04747 0.17511,1.33528 l 0.28473,0.26749 2.09652,-0.0791 c 4.63547,-0.17497 5.13227,-0.1418 6.31986,0.42197 0.43015,0.2042 1.25609,1.02236 1.4505,1.43684 0.0808,0.17236 0.21314,0.45378 0.29398,0.62538 0.0916,0.19449 0.14699,0.83399 0.14699,1.69801 v 1.386 l 0.76436,0.23828 c 0.42039,0.13105 1.39935,0.40168 2.17546,0.6014 3.57914,0.92103 4.86685,1.5551 5.98222,2.94564 l 0.45538,0.56772 0.48128,-0.37615 c 0.2647,-0.20688 0.57661,-0.46028 0.69314,-0.56312 0.11652,-0.10284 0.35648,-0.2615 0.53325,-0.35259 0.17677,-0.0911 0.34785,-0.19455 0.38019,-0.22991 0.20137,-0.2202 1.6259,-0.82278 2.09028,-0.88418 0.46136,-0.061 0.61038,-0.0303 0.87893,0.18127 0.27918,0.21992 0.32303,0.33796 0.3208,0.86356 -0.004,0.84172 -0.31093,1.43898 -1.13025,2.19633 -0.7069,0.65342 -2.66084,1.76389 -3.10369,1.76389 h -0.23199 v 0.81546 c 0,1.16121 -0.34426,2.67219 -0.87249,3.82944 -0.48452,1.0615 -0.69013,1.46677 -1.01421,1.99908 -0.19688,0.32338 -0.38825,0.68057 -0.42527,0.79375 -0.037,0.11318 -0.11406,0.20579 -0.17119,0.20579 -0.0571,0 -0.10388,0.0475 -0.10388,0.10548 0,0.16415 -3.60666,6.04742 -3.98486,6.50018 -0.0716,0.0857 -0.42311,0.53785 -0.78107,1.00468 -0.79899,1.04196 -1.73191,1.72804 -2.78444,2.04774 l -0.79753,0.24224 0.0679,0.31211 c 0.0374,0.17166 0.11647,0.46552 0.1758,0.65303 0.0593,0.18751 0.108,0.66376 0.10816,1.05833 l 2.9e-4,0.71741 1.2852,1.10043 c 0.70686,0.60524 1.40788,1.18426 1.55782,1.28671 0.14993,0.10244 0.29906,0.21928 0.3314,0.25964 0.12532,0.15638 1.16616,0.8222 1.28531,0.8222 0.0692,0 0.1258,0.04 0.1258,0.0889 0,0.0489 0.17198,0.15818 0.38218,0.24288 0.2102,0.0847 0.47406,0.20345 0.58637,0.26389 0.1123,0.0604 0.285,0.1099 0.38377,0.1099 0.0988,0 0.27146,0.0472 0.38377,0.10493 0.41882,0.21523 1.67296,0.36544 3.05125,0.36544 h 1.42178 l 0.73853,-1.49894 c 0.65865,-1.33683 1.41364,-2.6525 1.75182,-3.05281 0.066,-0.0781 0.12004,-0.18395 0.12012,-0.23519 8e-5,-0.0512 0.11914,-0.23477 0.26459,-0.40785 0.14544,-0.17309 0.51278,-0.65415 0.81632,-1.06903 1.19322,-1.63094 3.80197,-4.32523 5.83663,-6.02802 0.47478,-0.39734 0.83995,-0.79594 0.84121,-0.91822 0.004,-0.40905 -0.83281,-1.7081 -1.61986,-2.51402 -0.93237,-0.95474 -1.29918,-1.27396 -2.55246,-2.22128 -2.53317,-1.91478 -4.21526,-2.78144 -6.13888,-3.16292 -0.39725,-0.0788 -0.56535,-0.35251 -0.43119,-0.70213 0.0647,-0.16849 0.17125,-0.19389 0.57909,-0.13799 0.65342,0.0896 1.81643,0.49114 2.69501,0.93056 0.61703,0.30861 2.78752,1.70393 3.33335,2.14288 0.1088,0.0875 0.54177,0.43558 0.96216,0.77354 1.58995,1.27816 2.5213,2.3077 3.21461,3.55351 0.17224,0.3095 0.31317,0.63203 0.31317,0.71672 0,0.0847 0.10583,0.24977 0.23518,0.36683 0.46336,0.41934 0.3153,0.66608 -1.14653,1.91069 -2.07499,1.76666 -4.00952,3.72376 -5.61543,5.68092 -0.39169,0.47735 -1.38502,1.89258 -1.81099,2.58015 -0.59159,0.95493 -1.7752,3.27275 -1.7752,3.47633 0,0.25182 0.34276,0.34947 0.61965,0.17654 0.12965,-0.081 0.42278,-0.25227 0.65139,-0.38067 1.8792,-1.05549 4.37332,-3.17952 5.93291,-5.05257 1.18776,-1.42649 2.47493,-3.47569 2.92571,-4.65782 0.0555,-0.14552 0.15032,-0.38365 0.21072,-0.52917 0.0604,-0.14552 0.173,-0.47625 0.25022,-0.73495 0.0772,-0.2587 0.18656,-0.59192 0.24296,-0.74049 0.0564,-0.14856 0.10256,-0.42205 0.10256,-0.60774 0,-0.1857 0.0321,-0.42133 0.0714,-0.52363 0.0792,-0.20646 0.46194,-0.25197 0.57538,-0.0684 0.11201,0.18123 0.85166,0.1393 1.25905,-0.0714 0.48025,-0.24835 1.51783,-1.22284 1.43856,-1.3511 -0.18626,-0.30138 -2.32673,0.40959 -2.95621,0.98192 -0.32062,0.29152 -0.62334,0.19353 -0.62334,-0.20178 0,-0.32163 0.64024,-0.86554 1.41078,-1.19852 0.22655,-0.0979 0.50083,-0.22461 0.60951,-0.28159 0.31688,-0.16612 1.66443,-0.25423 1.86027,-0.12164 0.12521,0.0848 0.17187,0.31065 0.16082,0.77849 -0.0183,0.77736 -0.35801,1.28768 -1.26792,1.90497 -0.70777,0.48015 -1.31371,0.65021 -1.80981,0.50793 l -0.37569,-0.10774 v 0.26635 c 0,0.25619 -0.35892,1.49129 -0.59274,2.03968 -0.062,0.14552 -0.15865,0.38365 -0.21467,0.52917 -0.54507,1.41584 -1.559,2.94327 -3.27844,4.93879 l -1.08914,1.26403 0.73541,0.54141 c 0.40448,0.29778 0.89417,0.62277 1.08819,0.72219 0.19403,0.0994 0.56471,0.3257 0.82374,0.50284 0.48615,0.33246 0.94353,0.60099 2.05728,1.20782 0.35572,0.19381 0.69968,0.39068 0.76435,0.43748 0.0647,0.0468 0.59385,0.33854 1.17593,0.64831 2.12855,1.13274 3.42231,2.10031 3.94996,2.95406 l 0.24734,0.40021 -0.1402,2.37835 c -0.0771,1.30809 -0.18749,3.19856 -0.24527,4.20104 -0.17838,3.09473 -0.25706,9.38262 -0.13388,10.69896 0.0635,0.67802 0.0938,1.28909 0.0673,1.35793 -0.0264,0.0688 -0.24491,0.12716 -0.48555,0.12962 -0.24063,0.002 -0.91377,0.0916 -1.49585,0.19812 -0.58208,0.10652 -1.61396,0.19429 -2.29306,0.19505 -0.67909,7.6e-4 -1.76389,0.0625 -2.41064,0.13725 l -1.17593,0.13585 0.0399,0.5584 c 0.0472,0.65988 -0.11333,1.01274 -0.54686,1.20205 -0.17393,0.076 -1.24227,0.1737 -2.3741,0.21722 -1.13183,0.0435 -3.32787,0.13803 -4.88009,0.21002 -1.72126,0.0798 -4.45954,0.10087 -7.01934,0.0539 -3.26066,-0.0598 -4.31797,-0.0431 -4.73874,0.0747 -0.44381,0.12426 -0.59342,0.12391 -0.82856,-0.002 -0.22894,-0.12252 -0.44775,-0.12615 -1.08211,-0.018 -0.43733,0.0746 -1.03327,0.1618 -1.32431,0.1938 -0.29104,0.032 -0.9525,0.11404 -1.4699,0.18231 -3.22171,0.42509 -6.75865,0.75233 -10.11297,0.93566 -2.37124,0.12959 -2.88163,0.21348 -4.58611,0.75379 -0.88038,0.27908 -1.07901,0.24905 -1.27825,-0.19325 -0.47045,-1.04438 -0.7102,-2.52508 -0.60369,-3.72835 0.09,-1.01713 -0.0165,-2.35706 -0.18747,-2.35706 -0.0606,0 -0.10605,1.48261 -0.10605,3.45936 0,1.90265 -0.0321,3.54307 -0.0714,3.64537 -0.23156,0.60343 -0.2814,-0.28005 -0.2814,-4.98807 v -5.17407 h 0.18914 c 0.13664,0 0.17143,-0.0734 0.12535,-0.26458 -0.0906,-0.37596 -0.37329,-4.79792 -0.37329,-5.83998 0,-1.30834 0.2424,-1.21396 0.34019,0.13245 0.0436,0.60061 0.13182,1.80639 0.196,2.67952 0.27457,3.73545 0.36791,5.24246 0.45517,7.34953 0.0509,1.22885 0.14592,2.42633 0.21117,2.66107 0.17885,0.64344 0.74743,1.74889 0.89854,1.74694 0.0733,-9.4e-4 0.37132,-0.0878 0.66236,-0.19301 1.07516,-0.3887 2.39801,-0.53986 6.52639,-0.74575 2.76817,-0.13806 4.10289,-0.26118 7.64352,-0.70505 2.16023,-0.27081 2.71621,-0.34405 3.19054,-0.42029 l 0.48592,-0.0781 0.0736,-0.78013 c 0.0682,-0.72324 -0.0184,-1.71009 -0.29022,-3.30836 -0.26362,-1.54991 -0.45955,-3.43474 -0.70289,-6.76157 -0.19816,-2.70909 -0.20362,-3.26001 -0.0329,-3.31789 0.22072,-0.0748 0.28666,0.32731 0.40499,2.46974 0.15849,2.86969 0.3365,4.75398 0.68554,7.25694 0.0586,0.42039 0.1412,1.02894 0.18349,1.35232 0.0423,0.32338 0.12484,0.72025 0.18345,0.88194 0.0586,0.16169 0.1263,0.73804 0.15044,1.28078 l 0.0439,0.98679 6.57272,-0.0227 c 3.615,-0.0125 7.10189,-0.0782 7.74865,-0.14591 0.64676,-0.0678 1.96968,-0.13148 2.93981,-0.14161 0.97014,-0.0101 1.83004,-0.0609 1.91088,-0.11287 0.23481,-0.15088 0.17178,-0.28404 -0.17573,-0.37126 -0.65005,-0.16315 -0.61802,0.25523 -0.61802,-8.07278 V 224.515 h 0.23519 0.23518 v 7.34954 c 0,4.04225 0.0136,7.34954 0.0302,7.34954 0.0166,0 0.21503,-0.0557 0.44097,-0.12373 0.89793,-0.27044 1.67921,-0.36694 3.82098,-0.47194 2.03887,-0.1 2.9791,-0.19586 4.01978,-0.41003 l 0.3744,-0.077 0.0612,-5.07367 c 0.0561,-4.64846 0.12602,-6.58135 0.37169,-10.27198 l 0.0877,-1.31776 -1.86943,0.0559 c -3.65228,0.10927 -7.28219,0.46905 -13.65809,1.35372 -1.60519,0.22272 -3.07397,0.41259 -5.49745,0.71067 -1.69106,0.20798 -3.13757,0.32681 -5.47114,0.44942 -1.26288,0.0664 -2.63872,0.17817 -3.05741,0.24846 -0.75469,0.12671 -1.58506,0.22135 -4.02446,0.45868 -14.25493,1.38684 -23.1069,1.88251 -34.48403,1.93095 -7.5157,0.032 -8.24025,0.0811 -9.5133,0.64419 -0.37622,0.16642 -0.55271,0.19359 -0.64673,0.0996 -0.0711,-0.0711 -0.12922,-0.1055 -0.1291,-0.0764 1.2e-4,0.0291 0.0829,0.79375 0.18392,1.69921 0.50185,4.49736 0.5877,6.73172 0.35244,9.17222 -0.22284,2.31165 -0.40994,3.4508 -0.77257,4.7037 -0.0749,0.25871 -0.16435,0.61654 -0.19882,0.79519 -0.0345,0.17865 -0.10949,0.35376 -0.16671,0.38912 -0.0572,0.0354 -0.10403,0.16773 -0.10403,0.29414 0,0.12641 -0.0467,0.32172 -0.10388,0.43403 -0.29995,0.58964 -0.39964,0.857 -0.3413,0.91535 0.0356,0.0356 0.61337,-0.003 1.2839,-0.0861 1.60816,-0.19896 5.09858,-0.19463 6.86359,0.009 0.77611,0.0893 2.91924,0.18626 4.7625,0.2154 3.64617,0.0576 4.37336,-0.0194 4.83668,-0.51261 l 0.25794,-0.27456 -0.13258,-0.44253 c -0.18818,-0.62808 -0.3737,-6.17115 -0.37296,-11.14338 5.7e-4,-3.84364 0.0732,-4.96589 0.28514,-4.40643 0.0361,0.0952 0.0906,2.31622 0.12109,4.93559 0.0588,5.04189 0.21304,9.11806 0.37827,9.99537 0.0812,0.43086 0.14288,0.52398 0.33226,0.50121 0.12792,-0.0154 2.00529,-0.057 4.17194,-0.0924 4.36986,-0.0715 5.41139,-0.17326 6.32358,-0.61788 0.68982,-0.33624 0.93384,-0.26032 0.8056,0.25065 -0.097,0.38669 -1.05313,0.85183 -2.0727,1.00841 -0.42039,0.0645 -2.68258,0.15407 -5.02708,0.19892 -2.95521,0.0565 -4.26278,0.12097 -4.26288,0.21007 -2.2e-4,0.19384 -0.4903,0.70049 -0.823,0.85082 -0.84626,0.3824 -1.24653,0.41156 -4.8801,0.35558 -2.00495,-0.0309 -4.28037,-0.12329 -5.05648,-0.20533 -1.77498,-0.18763 -4.56675,-0.19146 -5.64444,-0.008 -1.57424,0.26837 -2.22887,0.29155 -2.61367,0.0926 -0.62702,-0.32425 -0.63396,-1.04197 -0.0157,-1.61955 0.18495,-0.17277 0.33627,-0.38815 0.33627,-0.47862 0,-0.0905 0.0437,-0.21475 0.0971,-0.2762 0.0534,-0.0614 0.16529,-0.34983 0.24859,-0.64088 0.0833,-0.29104 0.19434,-0.635 0.24677,-0.76435 0.0524,-0.12935 0.12862,-0.39393 0.16931,-0.58796 0.0407,-0.19403 0.12455,-0.5909 0.18636,-0.88195 0.69016,-3.24939 0.6926,-8.7097 0.006,-12.69999 -0.0724,-0.4204 -0.17171,-1.02881 -0.22074,-1.35202 l -0.0892,-0.58767 -1.58609,-1.20139 c -0.87235,-0.66077 -1.64082,-1.2033 -1.70772,-1.20562 -0.0669,-0.002 -0.21193,0.14862 -0.32229,0.33544 -0.19503,0.33015 -1.19443,1.70108 -1.43537,1.96897 -0.0659,0.0733 -0.30499,0.36244 -0.53136,0.64264 -0.42,0.5199 -2.0355,2.16018 -2.65528,2.69601 -0.75083,0.64914 -2.32425,1.7937 -4.28268,3.11537 -1.65347,1.11587 -3.85784,2.71022 -4.88095,3.53023 -0.12071,0.0967 -0.14168,0.86477 -0.10115,3.70417 0.0497,3.48237 0.009,4.11789 -0.33009,5.11081 -0.19456,0.57023 -1.08246,2.29305 -1.18179,2.29305 -0.0502,0 -0.0912,0.0553 -0.0912,0.12291 0,0.20204 -1.12019,1.78749 -1.55975,2.20757 -0.34222,0.32707 -0.48171,0.38415 -0.86208,0.35278 -0.34275,-0.0283 -0.49184,-0.10935 -0.6093,-0.3314 -0.22713,-0.42938 -0.11191,-1.54854 0.2053,-1.99402 0.14014,-0.19681 0.20818,-0.35784 0.1512,-0.35784 -0.15438,0 -0.66778,0.60055 -0.82937,0.97014 -0.0778,0.17786 -0.20151,0.45245 -0.275,0.6102 -0.0735,0.15775 -0.12182,0.51493 -0.10738,0.79375 0.0579,1.11804 0.0404,1.30794 -0.13173,1.43471 -0.0975,0.0718 -0.27287,0.33239 -0.38965,0.57908 l -0.21231,0.44851 -0.42249,-0.0364 c -0.34487,-0.0297 -0.43049,0.007 -0.46605,0.19824 -0.024,0.12906 -0.0973,0.30079 -0.16289,0.38164 -0.14513,0.17875 -0.63546,0.19417 -0.74106,0.0233 -0.0421,-0.068 -0.24361,-0.10771 -0.44792,-0.0882 l -0.37147,0.0355 -0.17798,-0.52917 c -0.0979,-0.29104 -0.22975,-0.60854 -0.29303,-0.70556 -0.19591,-0.30036 -0.40731,-0.98385 -0.40916,-1.32291 -9.8e-4,-0.17786 -0.0272,-0.32338 -0.0584,-0.32338 -0.0311,0 -0.52062,0.21685 -1.08773,0.48189 -1.00704,0.47063 -1.31332,0.60529 -1.91307,0.84108 -0.16169,0.0636 -0.38587,0.16232 -0.49817,0.21945 -0.11231,0.0571 -0.30762,0.10387 -0.43404,0.10387 -0.12641,0 -0.25877,0.0468 -0.29413,0.10404 -0.0354,0.0572 -0.21047,0.13224 -0.38912,0.16671 -0.17865,0.0345 -0.51003,0.11536 -0.73639,0.17976 -0.69821,0.19862 -1.67294,0.44784 -2.39592,0.6126 l -0.69083,0.15742 -0.16172,-0.22116 c -0.13359,-0.18271 -0.16172,-0.18863 -0.16172,-0.0341 0,0.27109 -0.80439,1.03532 -1.35231,1.28481 -0.48353,0.22015 -0.69296,0.24863 -0.99954,0.1359 z m 0.97787,-0.99448 c 0.14127,-0.0754 0.46852,-0.33941 0.72722,-0.58661 l 0.47037,-0.44944 0.14699,0.19751 c 0.12852,0.17269 0.147,0.17424 0.147,0.0124 0,-0.21053 0.39915,-0.3267 2.20595,-0.64204 0.21079,-0.0368 0.41235,-0.11396 0.44791,-0.17149 0.0356,-0.0575 0.19453,-0.1046 0.35328,-0.1046 0.15875,0 0.38053,-0.048 0.49283,-0.10674 0.11231,-0.0587 0.46878,-0.18551 0.79215,-0.28179 0.76261,-0.22703 2.09318,-0.75995 3.36528,-1.34785 0.86766,-0.40099 1.02335,-0.51699 1.08247,-0.8065 0.17937,-0.87848 0.3081,-1.4352 0.43166,-1.86684 0.074,-0.25871 0.1638,-0.60267 0.19944,-0.76436 0.0356,-0.16169 0.26621,-0.72963 0.5124,-1.26208 0.67149,-1.45231 1.83431,-2.57746 3.54794,-3.43299 0.62019,-0.30963 0.87151,-0.79402 0.75621,-1.45752 -0.27132,-1.5613 -0.54151,-2.76599 -0.90142,-4.01917 -0.0743,-0.2587 -0.1633,-0.61653 -0.19777,-0.79518 -0.0345,-0.17866 -0.10949,-0.35376 -0.16671,-0.38912 -0.0572,-0.0354 -0.10403,-0.2168 -0.10403,-0.4032 0,-0.18639 -0.0529,-0.3716 -0.11759,-0.41157 -0.0647,-0.04 -0.1176,-0.20184 -0.1176,-0.35972 0,-0.46317 -0.17553,-0.33773 -0.70904,0.50671 -2.34298,3.70847 -4.92032,6.78433 -7.51847,8.97273 -0.41822,0.35226 -0.86801,0.73845 -0.99954,0.8582 -0.96279,0.87657 -5.7539,3.60402 -6.33091,3.60402 -0.10236,0 -0.25754,0.10199 -0.34484,0.22663 -0.0873,0.12464 -0.3152,0.28998 -0.50644,0.36742 -0.19124,0.0774 -0.45354,0.18365 -0.58289,0.23603 -0.12935,0.0524 -0.57914,0.21139 -0.99953,0.35336 -1.01702,0.34346 -2.232,0.89474 -2.49348,1.13137 -0.3061,0.27702 -0.26021,0.59404 0.14458,0.99884 0.44142,0.44141 0.74524,0.39215 1.58025,-0.25624 0.63108,-0.49003 0.76865,-0.49836 0.76865,-0.0465 0,0.32502 -0.29553,0.66264 -0.99744,1.13949 l -0.46827,0.31813 h 0.50458 c 0.43158,0 0.58171,-0.0723 1.03778,-0.49977 0.29327,-0.27487 0.59444,-0.49976 0.66925,-0.49976 0.0748,0 0.15171,0.15974 0.17086,0.35498 0.0264,0.26894 -0.052,0.43816 -0.32338,0.69815 -0.19701,0.18875 -0.3582,0.37886 -0.3582,0.42247 0,0.20873 0.65201,-0.0838 1.08345,-0.48612 0.50412,-0.47009 0.68044,-0.49324 0.68044,-0.0894 0,0.26702 -0.35224,0.92255 -0.49572,0.92255 -0.0507,0 -0.0922,0.0587 -0.0922,0.13034 0,0.26161 0.6474,-0.0362 1.19767,-0.55088 0.30588,-0.28611 0.61132,-0.5202 0.67877,-0.5202 0.21379,0 0.13236,0.66147 -0.12109,0.98368 l -0.24372,0.30984 h 0.36904 c 0.20298,0 0.48463,-0.0617 0.6259,-0.13717 z m 11.64101,-2.65566 c 0.0391,-0.75994 0.1513,-1.67235 0.24936,-2.02758 0.24519,-0.8882 0.80423,-1.95346 1.37656,-2.62303 0.38362,-0.44879 0.51211,-0.53366 0.64322,-0.42485 0.26686,0.22148 0.19009,0.51965 -0.25845,1.00374 -1.15337,1.24479 -1.46837,2.03882 -1.54934,3.9055 l -0.0578,1.33309 0.27977,-0.0396 c 0.21561,-0.0305 0.28624,-0.12046 0.30798,-0.39234 0.0266,-0.33249 0.10105,-0.84787 0.39489,-2.73352 0.15496,-0.99441 0.49378,-1.69498 1.13432,-2.34536 0.53047,-0.53863 0.73807,-0.61083 0.96613,-0.33602 0.2036,0.24532 0.0491,0.60548 -0.32654,0.76106 -0.17788,0.0737 -0.45319,0.34396 -0.61181,0.60061 -0.15863,0.25666 -0.32883,0.46665 -0.37824,0.46665 -0.0494,0 -0.0898,0.0801 -0.0898,0.17799 0,0.0979 -0.0467,0.26987 -0.1037,0.38217 -0.22292,0.43895 -0.36667,1.37151 -0.36667,2.37883 v 1.05412 l 0.27387,-0.12478 c 0.48004,-0.21872 0.67566,-1.09148 0.40958,-1.82732 -0.10225,-0.28276 -0.10543,-0.4584 -0.0119,-0.65511 0.0703,-0.14782 0.19563,-0.45397 0.27848,-0.68034 0.21907,-0.59848 0.75067,-1.34369 1.13056,-1.58484 0.18152,-0.11522 0.47017,-0.33968 0.64145,-0.49879 0.25292,-0.23496 0.35538,-0.26577 0.54548,-0.16403 0.20059,0.10735 0.254,0.0772 0.37341,-0.21113 0.18924,-0.45687 0.90716,-1.22394 1.05816,-1.13062 0.23904,0.14774 0.11621,0.65538 -0.28611,1.18245 -0.22456,0.29419 -0.48897,0.70492 -0.58759,0.91274 -0.0986,0.20782 -0.4176,0.66835 -0.70884,1.0234 -0.29125,0.35505 -0.52954,0.67565 -0.52954,0.71246 0,0.0368 0.15279,0.17987 0.33953,0.31793 l 0.33953,0.25103 0.45731,-0.4935 c 0.43168,-0.46583 1.44206,-2.07206 1.78982,-2.84534 0.0873,-0.19403 0.2054,-0.44466 0.26253,-0.55697 0.0571,-0.11231 0.10387,-0.30016 0.10387,-0.41745 0,-0.1173 0.0621,-0.2754 0.13809,-0.35135 0.19035,-0.19035 0.23425,-4.21992 0.0817,-7.50199 -0.42775,-9.20453 -0.55215,-10.57854 -1.14375,-12.63289 -0.0652,-0.22636 -0.15602,-0.54386 -0.20184,-0.70555 -0.0458,-0.16169 -0.16169,-0.38466 -0.25748,-0.49549 -0.0959,-0.11096 -0.21903,-0.61296 -0.27403,-1.11713 -0.0549,-0.50359 -0.15291,-1.36542 -0.21774,-1.91516 -0.0648,-0.54975 -0.17169,-1.47579 -0.23745,-2.05787 -0.0658,-0.58208 -0.17298,-1.50813 -0.23826,-2.05787 -0.0653,-0.54975 -0.25424,-2.19016 -0.41991,-3.64537 -0.16567,-1.45521 -0.35194,-3.06917 -0.41394,-3.58658 -0.062,-0.5174 -0.14586,-1.41075 -0.18636,-1.9852 -0.0609,-0.8643 -0.0453,-1.0351 0.0906,-0.99012 0.1199,0.0397 0.23658,0.6687 0.43257,2.33198 0.14761,1.2527 0.2799,2.28898 0.29398,2.30283 0.028,0.0276 0.74048,-0.11894 1.52491,-0.3136 0.87851,-0.21801 2.12791,-0.48886 3.2044,-0.69465 2.69072,-0.51439 5.54849,-0.73971 7.51032,-0.59217 1.5393,0.11577 2.73862,0.29553 3.22553,0.48345 0.14857,0.0573 0.3968,0.10424 0.55163,0.10424 0.15483,0 0.31421,0.0529 0.35418,0.1176 0.04,0.0647 0.19873,0.11759 0.35278,0.11759 0.15406,0 0.31281,0.0529 0.35278,0.11759 0.04,0.0647 0.16545,0.11759 0.27883,0.11759 0.11339,0 0.42521,0.10584 0.69294,0.23519 0.26773,0.12935 0.59957,0.23518 0.73743,0.23518 0.13786,0 1.02677,-0.25729 1.97536,-0.57177 4.75361,-1.57591 8.91429,-2.52857 13.42516,-3.07392 1.4461,-0.17483 4.24445,-0.35946 4.36055,-0.28771 0.19497,0.1205 0.1144,0.6291 -0.11948,0.75427 -0.1251,0.0669 -0.62565,0.12173 -1.11233,0.12173 -0.48668,0 -1.29714,0.0539 -1.80102,0.11975 -0.50388,0.0659 -1.36594,0.17792 -1.91568,0.24901 -2.91414,0.37682 -6.43288,1.09874 -9.17222,1.8818 -0.22637,0.0647 -0.54387,0.14441 -0.70556,0.17712 -0.16169,0.0327 -0.39981,0.10238 -0.52917,0.15481 -0.12935,0.0524 -0.47331,0.15944 -0.76435,0.23779 -0.29104,0.0784 -0.62105,0.19021 -0.73336,0.24859 -0.1123,0.0584 -0.30762,0.10613 -0.43403,0.10613 -0.12641,0 -0.26254,0.0529 -0.30252,0.11759 -0.04,0.0647 -0.19872,0.11759 -0.35277,0.11759 -0.15406,0 -0.31281,0.0529 -0.35278,0.11759 -0.04,0.0647 -0.19126,0.1176 -0.3362,0.1176 -0.14494,0 -0.31379,0.0421 -0.37524,0.0936 -0.0614,0.0515 -0.32338,0.16117 -0.58208,0.24376 -0.2587,0.0826 -0.86724,0.3009 -1.35231,0.48512 -0.48507,0.18421 -1.56987,0.58414 -2.41065,0.88873 -1.81077,0.65597 -2.38173,0.91078 -3.19259,1.42482 -0.86133,0.54603 -1.24308,1.06055 -2.12191,2.8599 -0.72549,1.4854 -1.86143,3.45057 -2.19095,3.79032 -0.0802,0.0827 -0.27265,0.33555 -0.42767,0.56191 -0.75103,1.09669 -2.48416,3.00173 -4.09759,4.50405 l -0.60646,0.56469 0.0602,0.90521 c 0.0332,0.49787 0.0885,1.1698 0.12291,1.49318 0.0345,0.32338 0.11184,1.46109 0.17195,2.52824 0.0601,1.06716 0.14294,2.5053 0.18409,3.19588 l 0.0748,1.25561 0.8963,-0.66702 c 0.49297,-0.36686 0.92277,-0.69799 0.95511,-0.73584 0.0323,-0.0378 1.10704,-0.77088 2.38823,-1.62896 1.28119,-0.85808 2.86869,-1.95798 3.52778,-2.44423 1.34786,-0.9944 3.74936,-3.36223 4.54973,-4.48595 0.29104,-0.40862 0.64816,-0.88373 0.79361,-1.0558 0.14544,-0.17207 0.2645,-0.37459 0.26458,-0.45004 8e-5,-0.0755 0.0422,-0.15483 0.0937,-0.17639 0.14214,-0.0596 1.17686,-2.12033 1.5129,-3.01313 0.16334,-0.43397 0.39758,-1.15474 0.52053,-1.60172 0.25313,-0.92019 0.29374,-0.98817 0.47939,-0.80252 0.099,0.0989 0.0942,0.31601 -0.0186,0.84762 -0.0834,0.39304 -0.13092,0.73447 -0.10557,0.75875 0.0254,0.0243 0.46942,-0.006 0.98682,-0.0672 1.56374,-0.1851 4.2674,-0.33564 8.23149,-0.45833 4.87031,-0.15075 7.6,-0.37618 11.28888,-0.93231 0.45274,-0.0683 1.03482,-0.15098 1.29352,-0.18382 0.54738,-0.0695 1.46311,-0.2368 3.82176,-0.6982 4.89431,-0.95743 7.37572,-2.77135 8.20838,-6.00035 0.0667,-0.2587 0.17616,-0.68203 0.24321,-0.94074 0.0671,-0.2587 0.15489,-0.73495 0.19518,-1.05833 0.29159,-2.34032 0.58107,-4.07814 0.85698,-5.14468 l 0.11408,-0.44097 -6.7198,0.002 c -3.69588,9.9e-4 -6.77524,0.0407 -6.84303,0.0882 -0.1118,0.0784 -0.34707,0.44729 -1.06313,1.66705 -0.30583,0.52096 -0.63631,0.62246 -0.63631,0.19543 0,-0.28019 0.22104,-0.75707 0.66489,-1.43448 0.10456,-0.15959 0.16198,-0.31829 0.12759,-0.35268 -0.0566,-0.0566 -1.02589,0.13121 -2.26239,0.43837 -1.0164,0.25248 -1.93148,0.33219 -3.05741,0.26632 -1.30412,-0.0763 -2.10906,-0.26674 -2.71803,-0.64311 -0.43456,-0.26857 -0.80136,-0.96215 -0.70458,-1.33227 0.0323,-0.1233 -0.0179,-0.37219 -0.11146,-0.5531 -0.19582,-0.37868 -0.22515,-0.99825 -0.0523,-1.10508 0.07,-0.0433 0.0883,-0.32337 0.0452,-0.69049 -0.0965,-0.82133 0.12004,-1.06618 0.86845,-0.98182 l 0.51847,0.0584 -0.072,-0.38382 c -0.0853,-0.45471 0.0739,-0.93936 0.34235,-1.04238 0.27503,-0.10555 0.86132,0.18554 1.46653,0.7281 0.54735,0.49069 0.77938,0.56435 2.15002,0.68261 l 0.7919,0.0683 -0.40972,-0.78606 c -0.43191,-0.82862 -0.48675,-1.11089 -0.28799,-1.48226 0.17356,-0.32431 0.92233,-0.29824 1.62234,0.0565 0.30818,0.15617 0.98637,0.59984 1.5071,0.98593 1.26572,0.93848 1.37105,0.98955 1.74647,0.84682 0.17013,-0.0647 0.46031,-0.11761 0.64484,-0.11761 0.54888,0 0.68557,-0.10766 1.02228,-0.80516 0.1765,-0.36561 0.35116,-0.69121 0.38813,-0.72355 0.037,-0.0323 0.19812,-0.31015 0.35811,-0.61736 0.16,-0.30721 0.33068,-0.55856 0.3793,-0.55856 0.0486,0 0.0884,-0.0577 0.0884,-0.12819 0,-0.0705 0.59753,-1.00977 1.32784,-2.08726 2.2811,-3.36552 2.877,-4.5273 3.08576,-6.01603 0.0408,-0.29105 0.12485,-0.82021 0.18675,-1.17593 0.0619,-0.35572 0.14253,-0.84553 0.17917,-1.08847 0.0366,-0.24294 0.11505,-0.47164 0.17425,-0.50823 0.13985,-0.0864 0.45549,0.67113 0.45549,1.0932 0,0.49439 -0.29235,1.76881 -0.58756,2.56137 -0.47484,1.2748 -0.47559,1.26767 0.30576,2.93981 0.57633,1.23341 1.24849,2.12109 2.82012,3.72431 l 1.4212,1.44977 0.57788,-0.0798 c 0.31783,-0.0439 0.92183,-0.13289 1.34223,-0.1978 0.42039,-0.0649 1.14022,-0.16753 1.59962,-0.22807 0.45939,-0.0605 0.93041,-0.16331 1.04671,-0.22839 0.11629,-0.0651 0.30721,-0.42786 0.42426,-0.80617 l 0.21282,-0.68784 -0.42734,-0.76745 c -0.23504,-0.42209 -0.53199,-0.95265 -0.6599,-1.17902 -0.72221,-1.27821 -1.16729,-2.13043 -2.66254,-5.09809 -0.90766,-1.80147 -1.65148,-3.33605 -1.65291,-3.41018 -10e-4,-0.0741 -0.1061,-0.26707 -0.23257,-0.42876 -0.13364,-0.17085 -0.23106,-0.47936 -0.23257,-0.73655 -0.001,-0.24342 -0.0497,-0.53446 -0.10734,-0.64676 -0.0576,-0.11231 -0.22598,-0.45809 -0.37417,-0.7684 -0.55015,-1.15201 -1.69915,-1.86114 -3.01558,-1.86114 -0.65945,0 -0.91129,0.0649 -1.61272,0.4157 -2.00401,1.0022 -4.38031,3.18939 -7.93381,7.30244 -0.16817,0.19465 -0.54375,0.6709 -0.83463,1.05833 -0.29088,0.38744 -0.55915,0.73089 -0.59617,0.76323 -0.037,0.0323 -0.38111,0.51004 -0.76465,1.06156 -1.65187,2.37534 -2.03181,2.90181 -2.75522,3.81781 -0.42039,0.53232 -0.9231,1.17306 -1.11713,1.42387 -0.9035,1.16792 -3.38113,4.25236 -3.62698,4.51527 -0.15119,0.16169 -0.30812,0.38659 -0.34874,0.49977 -0.0955,0.26608 -0.3031,0.25696 -0.66918,-0.0294 -0.16169,-0.12648 -0.36013,-0.23114 -0.44098,-0.23258 -0.0808,-0.001 -0.1474,-0.0423 -0.1479,-0.0908 -10e-4,-0.0962 0.004,-0.0933 -1.70418,-0.94354 -3.51458,-1.74911 -8.18121,-2.88091 -14.58178,-3.53654 -0.64693,-0.0663 -1.26995,-0.15645 -1.3845,-0.2004 -0.15341,-0.0589 -0.35464,0.0758 -0.76404,0.5114 -0.63786,0.67864 -1.27898,1.06949 -1.82357,1.11172 -0.3032,0.0235 -0.37852,-0.0149 -0.37852,-0.19302 0,-0.12231 0.0794,-0.25952 0.17639,-0.30492 1.57385,-0.73651 1.98902,-1.09433 2.35009,-2.02548 0.18992,-0.48976 0.24429,-0.82363 0.20106,-1.23472 -0.16664,-1.5849 -0.58877,-2.3353 -1.6055,-2.85399 -0.62744,-0.3201 -1.47818,-0.60559 -1.31332,-0.44073 0.18357,0.18357 0.16598,0.81785 -0.0301,1.08603 -0.23815,0.32568 -0.92897,0.29558 -1.30408,-0.0568 -0.3402,-0.3196 -0.37762,-0.65902 -0.11414,-1.03519 l 0.18305,-0.26135 -0.27125,-0.013 c -1.12399,-0.0539 -2.67391,0.43706 -3.82021,1.21019 -0.27036,0.18234 -0.54817,0.33153 -0.61737,0.33153 -0.0692,0 -0.1258,0.0529 -0.1258,0.1176 0,0.0647 -0.0516,0.11759 -0.11459,0.11759 -0.063,0 -0.6848,0.37584 -1.38172,0.8352 -1.62323,1.06992 -3.45249,1.93634 -4.5483,2.15428 -0.0584,0.0116 0.41785,0.0874 1.05833,0.1684 1.87109,0.23665 3.17384,0.56419 4.6335,1.16499 2.25015,0.92616 4.80962,2.68647 5.62397,3.86797 0.37287,0.54098 0.33986,1.15046 -0.0854,1.57568 l -0.34103,0.34103 -0.18814,-0.28714 c -0.10348,-0.15792 -0.18814,-0.33662 -0.18814,-0.39711 0,-0.23993 -0.86506,-0.95433 -1.55915,-1.2876 -1.30733,-0.62772 -1.90712,-0.77402 -3.99611,-0.97474 -2.18835,-0.21027 -4.43002,0.0766 -5.85122,0.74875 -0.61704,0.29184 -1.72298,1.08977 -2.14639,1.54862 -0.53792,0.58295 -1.19704,1.90423 -1.37069,2.74769 -0.32249,1.56641 -0.0834,3.65077 0.57594,5.02129 0.24893,0.51741 0.53627,1.13918 0.63853,1.38172 0.10227,0.24253 0.27071,0.63941 0.37432,0.88194 0.26406,0.61814 0.35536,0.85168 0.51718,1.32292 0.17095,0.49784 0.34438,0.92909 0.48409,1.20372 0.0571,0.11231 0.10387,0.28501 0.10387,0.38378 0,0.0988 0.0517,0.27146 0.11491,0.38377 0.13949,0.24786 0.52669,1.43373 1.16404,3.56507 0.47399,1.58507 0.64006,2.17469 1.09027,3.87106 0.40143,1.5126 0.42132,1.57871 0.58355,1.94028 0.10388,0.23154 0.18634,1.14084 0.23991,2.64583 0.0449,1.26118 0.1369,2.61056 0.20446,2.99862 0.0676,0.38805 0.15689,0.90448 0.19852,1.14761 0.0416,0.24314 0.12277,0.47116 0.1803,0.50671 0.0575,0.0356 0.1046,0.19453 0.1046,0.35328 0,0.15876 0.0511,0.38053 0.11348,0.49283 0.14413,0.25933 0.75861,2.15307 0.92478,2.85003 0.38442,1.61239 0.57564,2.83078 0.67361,4.29213 0.0517,0.77205 0.13835,1.2436 0.25212,1.37296 0.0953,0.10837 0.15542,0.28397 0.13358,0.39022 -0.0433,0.21067 -0.13613,0.26702 -1.65324,1.00345 -1.7518,0.85035 -2.59347,1.82373 -3.35269,3.87735 -0.57924,1.5668 -0.88338,3.36232 -0.66564,3.92973 0.13413,0.34955 0.2814,0.1866 0.28357,-0.31376 0.006,-1.35261 0.62917,-3.66005 1.22711,-4.54268 0.41518,-0.61285 0.60167,-0.71128 0.7087,-0.37405 0.0524,0.165 -0.0548,0.45415 -0.34007,0.91781 -0.22909,0.37231 -0.52541,0.99443 -0.65849,1.38249 -0.41244,1.20265 -0.75107,4.08849 -0.50824,4.33132 0.19542,0.19542 0.2443,-0.01 0.31085,-1.30332 z m 4.27526,-3.0476 c -0.0431,-0.0431 -0.11368,-0.0431 -0.15679,0 -0.0431,0.0431 -0.008,0.0784 0.0784,0.0784 0.0862,0 0.12151,-0.0353 0.0784,-0.0784 z m -12.06216,-3.6552 c 1.50345,-1.08959 1.6824,-1.24597 3.46148,-3.02491 1.60613,-1.60603 2.08675,-2.12902 2.75844,-3.00168 0.22402,-0.29104 0.43668,-0.55563 0.4726,-0.58797 0.12451,-0.11212 1.72434,-2.41592 2.40897,-3.46898 0.74238,-1.1419 0.78083,-1.31685 0.53547,-2.43666 -0.0748,-0.34141 -0.18592,-0.8464 -0.24692,-1.1222 -0.061,-0.2758 -0.11091,-0.96183 -0.11091,-1.5245 0,-1.26586 0.0109,-1.27446 -1.33543,1.05337 -0.55096,0.95262 -1.1638,1.96757 -1.36186,2.25544 -0.19806,0.28788 -0.36012,0.55647 -0.36012,0.59687 0,0.1227 -0.91827,1.45357 -1.98725,2.88015 -1.26845,1.69278 -3.17692,3.63683 -3.89238,3.96493 -1.41996,0.65117 -3.4354,0.66078 -6.46759,0.0308 -0.35572,-0.0739 -1.41405,-0.16061 -2.35185,-0.19268 l -1.70509,-0.0583 -0.41046,-0.31296 c -0.60871,-0.46412 -0.92607,-0.60694 -1.34865,-0.60694 -0.82865,0 -1.0046,0.8527 -0.26621,1.29019 0.20846,0.12351 0.43392,0.26739 0.50102,0.31973 0.36104,0.28165 3.60601,1.92889 5.16967,2.62428 2.08989,0.92942 4.41749,2.08129 4.63411,2.2933 0.21405,0.20951 0.4156,0.10663 1.90296,-0.97128 z m 35.33019,-17.43527 c 1.02446,-0.52229 2.20058,-0.59291 10.58811,-0.63568 7.28564,-0.0372 9.09929,-0.089 14.74879,-0.42148 5.61014,-0.33017 11.42143,-0.78963 17.69769,-1.39923 0.58208,-0.0565 1.75487,-0.16104 2.60619,-0.23223 0.85132,-0.0712 1.69799,-0.18732 1.88148,-0.25806 0.1835,-0.0707 1.3655,-0.17764 2.62668,-0.23755 3.54724,-0.1685 5.40602,-0.36777 12.52361,-1.34261 5.52369,-0.75653 7.65883,-0.96863 11.62401,-1.15468 l 2.92215,-0.13712 -0.49895,-0.56635 c -0.67931,-0.77106 -1.8499,-1.53669 -3.87662,-2.53551 -1.89561,-0.9342 -2.43577,-1.23491 -3.42478,-1.90653 -0.37229,-0.25281 -0.70564,-0.45966 -0.74079,-0.45966 -0.0351,0 -0.15711,-0.0783 -0.27104,-0.17391 -0.65027,-0.54599 -2.10097,-1.44417 -2.22217,-1.37582 -0.0778,0.0439 -0.42361,0.34522 -0.76834,0.66959 -1.68447,1.58497 -4.44581,3.42023 -5.0043,3.32599 -0.17825,-0.0301 -0.21832,0.0846 -0.27528,0.78794 -0.11467,1.41562 -0.54146,2.29306 -1.11536,2.29306 -0.35393,0 -0.5564,-0.27733 -0.72088,-0.98737 -0.18335,-0.79153 -0.0313,-1.39003 0.54717,-2.15438 l 0.4486,-0.5927 -0.53298,-0.073 c -0.29314,-0.0402 -0.82989,-0.0731 -1.19277,-0.0731 -0.60277,0 -1.84322,-0.20946 -2.42359,-0.40925 -0.46169,-0.15893 -1.7646,-0.8146 -1.80309,-0.90738 -0.0216,-0.052 -0.10419,-0.0945 -0.18361,-0.0945 -0.0794,0 -0.247,-0.0944 -0.37238,-0.2099 -0.12538,-0.11544 -0.33945,-0.28742 -0.47572,-0.38217 -0.2892,-0.20108 -1.16504,-0.93507 -2.32799,-1.95093 l -0.82462,-0.72032 -0.14646,0.28231 c -0.3572,0.6885 -1.04238,1.00494 -1.51105,0.69785 -0.83929,-0.54992 -0.86081,-1.96951 -0.0668,-4.40554 0.13451,-0.41265 0.24456,-0.81594 0.24456,-0.89621 0,-0.0966 -0.38777,-0.19356 -1.14653,-0.28676 -0.63059,-0.0775 -1.41111,-0.19801 -1.73449,-0.2679 -0.77416,-0.1673 -2.67431,-0.79276 -2.81634,-0.92704 -0.0615,-0.0581 -0.18187,-0.10561 -0.26761,-0.10561 -0.19232,0 0.0247,0.45091 0.6903,1.43406 0.24935,0.36834 0.45337,0.70145 0.45337,0.74026 0,0.0388 0.27173,0.47325 0.60384,0.96542 0.76574,1.13477 1.51531,2.43592 2.38751,4.1444 0.37786,0.74015 0.83834,1.60237 1.02329,1.91606 0.18496,0.31368 0.33629,0.62092 0.33629,0.68275 0,0.0618 0.04,0.11242 0.0889,0.11242 0.0489,0 0.15476,0.14881 0.23527,0.33069 0.0805,0.18188 0.24114,0.43323 0.35696,0.55857 0.432,0.46748 0.96518,1.33677 0.96518,1.57362 0,0.29622 -0.43584,0.98677 -0.74445,1.17949 -0.12284,0.0767 -0.52404,0.13804 -0.89155,0.13628 -0.51613,-0.002 -0.82753,-0.0867 -1.36819,-0.37011 -0.38499,-0.20181 -0.75024,-0.41629 -0.81169,-0.47662 -0.0614,-0.0603 -0.23093,-0.1097 -0.37664,-0.1097 -0.54872,0 -1.73626,-0.70234 -2.95582,-1.74817 -0.84836,-0.7275 -2.17482,-1.66201 -2.35909,-1.66201 -0.0621,0 -0.34283,-0.11335 -0.62382,-0.25188 -0.28098,-0.13854 -0.64317,-0.30437 -0.80486,-0.36852 -0.65937,-0.26158 -0.90603,-0.38791 -1.41111,-0.72273 -0.98996,-0.65624 -1.29246,-1.14611 -1.29308,-2.09402 -3.8e-4,-0.58022 0.0836,-0.83777 0.60543,-1.85587 0.52936,-1.03287 0.61296,-1.29267 0.66203,-2.0573 0.0501,-0.78112 0.0213,-0.94646 -0.26858,-1.53889 -0.20887,-0.42692 -0.65704,-0.98942 -1.25605,-1.57648 l -0.93132,-0.91274 -0.78769,0.0585 c -0.43322,0.0322 -0.84892,0.11844 -0.92377,0.19176 -0.30954,0.30321 -0.71381,1.97181 -0.97248,4.01386 -0.0737,0.58208 -0.1852,1.28399 -0.2477,1.55979 -0.0625,0.2758 -0.11364,0.63223 -0.11364,0.79206 0,0.35062 -0.22275,1.33192 -0.36667,1.6153 -0.057,0.11231 -0.1037,0.2753 -0.1037,0.3622 0,0.35139 -0.58124,1.55109 -1.14288,2.35897 -0.91447,1.31541 -2.31557,2.27728 -4.26857,2.93042 -1.21609,0.4067 -3.32638,0.8974 -5.17188,1.2026 -3.50944,0.58038 -5.79278,0.87681 -8.58426,1.11444 -1.426,0.1214 -2.23178,0.15741 -7.9963,0.35744 -1.97262,0.0684 -4.03637,0.17583 -4.58611,0.23863 -1.79919,0.20554 -2.70461,0.37556 -2.70607,0.50816 -7.9e-4,0.0717 -0.18052,0.54055 -0.3994,1.0419 l -0.39797,0.91154 0.4876,0.40595 c 0.26818,0.22327 1.01676,0.80015 1.66352,1.28196 0.64676,0.48181 1.30422,1.01342 1.46101,1.18135 0.34318,0.36756 0.52164,0.37829 1.13033,0.068 z m -19.08861,-1.86374 c 0.4539,-0.42894 1.22326,-1.22969 1.70969,-1.77943 1.21768,-1.37619 1.34596,-1.52951 1.67247,-1.99908 0.1574,-0.22636 0.31703,-0.43803 0.35472,-0.47037 0.0943,-0.0809 0.81529,-1.20506 1.31981,-2.05787 0.22957,-0.38805 0.75879,-1.39713 1.17604,-2.24239 0.41725,-0.84527 0.91005,-1.70678 1.09511,-1.91448 0.70189,-0.78775 1.844,-1.38197 4.34814,-2.26228 1.99202,-0.70028 2.22874,-0.79623 2.27005,-0.92018 0.0234,-0.0703 -0.0645,-0.1278 -0.19544,-0.1278 -0.13093,0 -0.26698,-0.0468 -0.30234,-0.10403 -0.0354,-0.0572 -0.21047,-0.13334 -0.38912,-0.16916 -0.17865,-0.0358 -0.56294,-0.1246 -0.85399,-0.19731 -0.81533,-0.20368 -1.64021,-0.35288 -2.36609,-0.42795 -0.62354,-0.0645 -1.31964,0.0928 -2.39641,0.54152 -0.12935,0.0539 -0.42039,0.16161 -0.64676,0.23934 -0.22636,0.0777 -0.53063,0.1889 -0.67615,0.24705 -0.14552,0.0582 -0.39688,0.15864 -0.55857,0.22332 -0.16169,0.0647 -0.41304,0.16496 -0.55856,0.22286 -1.98847,0.79115 -2.36368,1.18421 -3.74469,3.92291 -0.59502,1.17999 -1.2673,2.48939 -1.49395,2.90979 -0.22666,0.42039 -0.47022,0.883 -0.54125,1.02801 -0.071,0.14502 -0.16883,0.26408 -0.21733,0.26459 -0.0485,5e-4 -0.0882,0.0562 -0.0882,0.12382 0,0.0676 -0.26458,0.515 -0.58796,0.99422 -0.57538,0.85268 -0.69418,1.2643 -0.48409,1.67729 0.18533,0.36433 0.34803,0.78237 0.49135,1.26253 0.0772,0.2587 0.18656,0.59192 0.24296,0.74048 0.0564,0.14857 0.10256,0.4158 0.10256,0.59385 0,0.35168 0.20685,0.63733 0.38278,0.5286 0.0605,-0.0374 0.48133,-0.41891 0.93522,-0.84785 z m -1.86382,-4.77624 c 0.23552,-0.35472 0.42822,-0.69427 0.42822,-0.75455 0,-0.0603 0.0397,-0.12724 0.0882,-0.1488 0.10671,-0.0474 0.35385,-0.50992 1.64177,-3.07241 1.34445,-2.67499 1.8506,-3.52902 2.42655,-4.09438 0.49769,-0.48853 1.73444,-1.28028 1.99988,-1.28028 0.0806,0 0.19684,-0.0478 0.25828,-0.10627 0.0614,-0.0584 0.34984,-0.19163 0.64088,-0.29596 l 0.52917,-0.18969 -1.23473,0.0581 c -1.78697,0.084 -4.02376,0.45788 -6.67338,1.11541 -0.27487,0.0682 -0.70228,0.16816 -0.9498,0.2221 -0.72253,0.15748 -0.76478,0.21316 -0.67373,0.88796 0.11528,0.85429 0.29174,2.31708 0.42011,3.48248 0.0606,0.54974 0.16571,1.44933 0.23368,1.99907 0.068,0.54975 0.15539,1.40964 0.19429,1.91088 0.0389,0.50124 0.10934,0.91134 0.15655,0.91134 0.0472,0 0.27854,-0.29022 0.51406,-0.64495 z m 80.3683,-0.23372 c 0.17651,-0.3874 0.42168,-1.81913 0.32762,-1.9132 -0.10378,-0.10378 -0.71827,0.64519 -0.95803,1.16769 -0.25795,0.56216 -0.15498,1.03622 0.22509,1.03622 0.17612,0 0.31982,-0.10307 0.40532,-0.29071 z m -11.33052,-0.64371 0.20712,-0.22887 -0.27142,-0.38849 c -0.14928,-0.21367 -0.30812,-0.41495 -0.35296,-0.44729 -0.0448,-0.0323 -0.35365,-0.50248 -0.68624,-1.04477 -0.56732,-0.92501 -0.99299,-1.69842 -2.27269,-4.12931 -0.99538,-1.8908 -1.08681,-2.05803 -1.1572,-2.11666 -0.0388,-0.0323 -0.13859,-0.18776 -0.22169,-0.34537 -0.0831,-0.15762 -0.19741,-0.34283 -0.25401,-0.41158 -0.72009,-0.87472 -2.6729,-4.30291 -3.18599,-5.59305 -0.0643,-0.16169 -0.16366,-0.38587 -0.22079,-0.49818 -0.0571,-0.1123 -0.10387,-0.30762 -0.10387,-0.43403 0,-0.12641 -0.0529,-0.26254 -0.11759,-0.30251 -0.0647,-0.04 -0.1176,-0.20185 -0.1176,-0.35972 0,-0.4745 -0.46115,-0.28388 -0.63449,0.26227 -0.10454,0.32937 -1.26186,0.74692 -3.04665,1.09918 l -0.68253,0.13472 0.88271,0.92392 c 1.79066,1.87426 1.97136,3.0162 0.79041,4.99518 -0.64652,1.08343 -0.83723,1.57372 -0.83723,2.15251 0,0.79149 0.51737,1.20833 2.67524,2.15545 1.00656,0.4418 1.61783,0.75063 1.65609,0.83672 0.0216,0.0485 0.0906,0.0882 0.15344,0.0882 0.13722,0 1.22343,0.7291 2.51199,1.68613 0.51741,0.38428 1.54929,0.98183 2.29306,1.32788 0.74377,0.34604 1.43169,0.67947 1.5287,0.74095 0.33103,0.20975 1.23885,0.14573 1.46419,-0.10327 z m 0.41271,-6.84886 c 0.20695,-0.22213 0.23953,-0.41127 0.238,-1.38172 -0.002,-1.00426 -0.15999,-1.85448 -0.38801,-2.08249 -0.0443,-0.0443 -0.0818,-0.19084 -0.0833,-0.32558 -0.002,-0.19626 -0.0339,-0.17482 -0.15958,0.10779 -0.25769,0.57938 -0.66089,1.89458 -0.66089,2.15577 0,0.27129 0.30056,1.48637 0.41245,1.66741 0.11827,0.19137 0.3865,0.13232 0.6413,-0.14118 z m 0.90415,-4.49279 c 1.82148,-0.48499 2.85157,-1.54531 5.03853,-5.18643 0.50501,-0.84078 1.33361,-2.14917 1.84136,-2.90752 0.50774,-0.75836 1.02385,-1.55809 1.14691,-1.77718 0.12306,-0.21909 0.29486,-0.52467 0.38179,-0.67905 0.0869,-0.15438 0.18459,-0.30715 0.21703,-0.33949 0.0324,-0.0323 0.11834,-0.19109 0.19089,-0.35278 0.0725,-0.16169 0.24165,-0.5321 0.37579,-0.82314 0.63155,-1.37033 0.9553,-2.73804 0.94641,-3.99815 l -0.007,-0.99954 -0.17411,0.58796 c -0.67978,2.2956 -0.6389,2.18488 -1.34582,3.64537 -0.67674,1.39815 -1.43439,2.63388 -2.66765,4.35093 -1.05292,1.46597 -2.12892,2.89687 -2.25486,2.99861 -0.04,0.0323 -0.20079,0.24401 -0.35724,0.47037 -0.15644,0.22637 -0.3391,0.47037 -0.40591,0.54222 -0.0668,0.0719 -0.28021,0.3345 -0.47424,0.58365 -1.63893,2.10452 -2.48536,3.05264 -3.1402,3.51744 -0.23974,0.17016 -0.28683,0.26323 -0.19139,0.37823 0.15464,0.18633 0.13586,0.18657 0.87977,-0.0115 z m -1.16043,-1.01287 c 0.6796,-0.41434 1.19789,-0.95695 2.75096,-2.88004 0.83571,-1.03481 1.5838,-1.96086 1.66243,-2.05787 0.0786,-0.097 0.27374,-0.3616 0.43359,-0.58796 0.15984,-0.22637 0.35407,-0.49095 0.43162,-0.58797 0.84217,-1.05362 2.78341,-3.80715 3.27466,-4.6449 0.18963,-0.32338 0.43777,-0.74672 0.55143,-0.94074 0.20474,-0.34952 0.56273,-1.08353 0.86028,-1.76389 0.36019,-0.8236 0.87923,-2.66799 0.87923,-3.12435 0,-0.33909 -0.83102,-1.52158 -1.45583,-2.07156 -0.44664,-0.39315 -1.43593,-0.95318 -2.36593,-1.33933 -0.30462,-0.12649 -1.48726,-0.4587 -3.46898,-0.97447 -0.87313,-0.22724 -1.77001,-0.49018 -1.99308,-0.58432 l -0.40558,-0.17117 -0.15299,0.29488 c -0.0841,0.16219 -0.15298,0.34233 -0.15298,0.40032 0,0.058 -0.11111,0.35621 -0.24691,0.66271 -0.13579,0.30651 -0.29454,0.67635 -0.35277,0.82187 -0.0582,0.14552 -0.1553,0.38365 -0.2157,0.52917 -0.0604,0.14552 -0.17356,0.47625 -0.25148,0.73495 -0.0779,0.25871 -0.18091,0.57621 -0.22889,0.70556 -0.048,0.12935 -0.26246,0.79081 -0.47664,1.4699 -0.56145,1.78023 -1.45111,3.60818 -2.57545,5.29167 -0.53993,0.80845 -1.01593,1.49637 -1.05777,1.5287 -0.0418,0.0323 -0.15239,0.17029 -0.24565,0.30656 -0.44708,0.65323 -2.00859,2.40663 -3.19758,3.59052 -0.58949,0.58696 -0.67088,0.86898 -0.42634,1.47725 0.0727,0.1809 0.17232,0.43475 0.22131,0.5641 0.049,0.12935 0.30604,0.69924 0.57123,1.26642 l 0.48216,1.03124 0.21656,-0.13524 c 0.16977,-0.10603 0.3163,-0.0912 0.67825,0.0685 1.5365,0.678 2.55989,0.94438 4.34224,1.13023 0.58209,0.0607 1.11125,0.13208 1.17593,0.15862 0.22743,0.0933 0.35631,0.0638 0.73867,-0.16934 z m -32.84145,-2.50353 1.29352,-0.36019 7.99629,-0.0803 c 8.08339,-0.0812 9.03258,-0.13026 11.1713,-0.57782 1.93899,-0.40576 1.98357,-0.43188 3.66867,-2.1494 0.84166,-0.85785 1.76282,-1.82432 2.04702,-2.1477 0.28419,-0.32338 0.5439,-0.61442 0.57713,-0.64676 0.0332,-0.0323 0.29708,-0.34984 0.58635,-0.70555 0.28926,-0.35572 0.55772,-0.67322 0.59657,-0.70556 0.17261,-0.14366 1.76462,-2.61216 2.19933,-3.41018 0.54212,-0.9952 1.08424,-2.31547 1.52096,-3.70417 0.16272,-0.51741 0.33545,-1.04657 0.38385,-1.17593 0.0484,-0.12935 0.15174,-0.44685 0.22966,-0.70555 0.0779,-0.2587 0.19107,-0.58943 0.25147,-0.73495 0.0604,-0.14553 0.15566,-0.38365 0.21168,-0.52917 0.16856,-0.43784 0.36,-0.89313 0.51551,-1.22597 0.18191,-0.38938 0.15342,-2.64367 -0.05,-3.95816 l -0.1426,-0.92139 -0.47695,-0.31702 c -1.05111,-0.69864 -1.83268,-0.78431 -5.56791,-0.61033 -1.57118,0.0732 -3.03798,0.0991 -3.25956,0.0575 -0.65169,-0.12226 -0.99809,-0.56087 -0.99809,-1.26378 0,-0.32614 0.0485,-0.75548 0.10774,-0.9541 0.62358,-2.09009 0.64795,-2.15307 1.52484,-3.94046 0.58345,-1.18926 0.49915,-1.4694 -0.21936,-0.72902 -0.40876,0.4212 -1.10812,0.82481 -2.05998,1.18884 -0.23901,0.0914 -1.38006,0.65615 -2.23426,1.10582 -0.39976,0.21044 -0.66455,0.24622 -1.76389,0.23831 l -1.29352,-0.009 -0.58796,-0.31199 c -0.41651,-0.22101 -0.60162,-0.26942 -0.63478,-0.16599 -0.36264,1.131 -1.50119,2.64769 -2.24624,2.99227 -0.288,0.1332 -0.75875,0.24318 -2.17546,0.50825 -1.21872,0.22802 -3.25669,0.76316 -3.61438,0.94907 -0.11231,0.0584 -0.285,0.10614 -0.38377,0.10614 -0.0988,0 -0.27147,0.0487 -0.38377,0.10819 -0.11231,0.0595 -0.52169,0.22342 -0.90975,0.36424 -0.76911,0.27911 -0.81553,0.29814 -1.94765,0.79824 l -0.77173,0.3409 -0.21228,1.0463 c -0.36235,1.78607 -0.86951,3.79778 -1.16794,4.63287 -0.10401,0.29104 -0.18988,0.62192 -0.19082,0.73529 -0.002,0.20369 0.0869,0.11721 1.29181,-1.26043 0.22636,-0.25883 0.78199,-0.86574 1.23472,-1.3487 2.41409,-2.57527 3.8805,-3.82452 5.23287,-4.45793 l 0.88195,-0.41308 0.99953,-0.003 c 1.33697,-0.004 2.11592,0.36982 2.93982,1.41031 0.33819,0.4271 0.94074,1.81536 0.94074,2.16746 0,0.43239 2.66911,5.8787 4.47581,9.13287 0.19002,0.34226 0.51251,0.92655 0.71665,1.29844 0.20413,0.37189 0.43965,0.77681 0.52336,0.89982 l 0.1522,0.22367 1.10069,-2.22274 c 1.12687,-2.27561 1.57863,-3.11858 1.72685,-3.22228 0.15435,-0.10799 1.25234,-1.81641 1.47373,-2.29305 0.12016,-0.25871 0.24275,-0.72173 0.27242,-1.02894 0.0825,-0.85469 0.37681,-0.66222 0.37681,0.24646 0,0.6664 -0.36396,1.51518 -1.15271,2.68822 -1.29041,1.91912 -2.33765,3.97154 -2.95767,5.79657 -0.20874,0.61442 -0.55546,1.46109 -0.7705,1.88148 -0.21503,0.4204 -0.41806,0.85132 -0.45118,0.95761 -0.0438,0.14049 -0.26318,0.21456 -0.80366,0.27128 -0.4089,0.0429 -1.00803,0.12445 -1.33141,0.18118 -0.32338,0.0567 -0.95838,0.16154 -1.41111,0.23291 -0.45274,0.0714 -1.11419,0.18012 -1.46991,0.24167 -0.35572,0.0616 -1.30822,0.21633 -2.11667,0.34396 -5.45767,0.86154 -7.73023,1.24049 -9.94808,1.65883 -0.85012,0.16035 -0.93495,0.12705 -2.34338,-0.91993 -1.47782,-1.09856 -2.40761,-1.4882 -2.40761,-1.00895 0,0.10707 0.42333,0.60789 0.94074,1.11293 0.994,0.97025 1.19158,1.39703 0.64676,1.39703 -0.16169,0 -0.29398,-0.0468 -0.29398,-0.10409 0,-0.0573 -0.51594,-0.0969 -1.14653,-0.0882 -0.63059,0.009 -1.3582,-0.0476 -1.6169,-0.12529 -0.2587,-0.0776 -0.61488,-0.171 -0.79151,-0.20746 -0.17662,-0.0365 -0.49955,-0.24471 -0.71762,-0.46277 -0.41245,-0.41246 -0.88388,-0.71533 -0.97368,-0.62554 -0.1084,0.10841 0.17681,0.62538 0.50084,0.90778 0.49912,0.43503 1.05812,0.67786 1.92317,0.83544 0.29105,0.053 0.71438,0.13047 0.94075,0.17211 0.48538,0.0893 0.70494,0.32169 0.618,0.65415 -0.0555,0.21227 -0.13136,0.23285 -0.66372,0.18007 -1.33745,-0.13261 -1.40638,-0.15462 -3.48206,-1.11201 -0.72605,-0.33488 -1.02565,-0.4074 -1.1112,-0.26898 -0.11805,0.19101 0.59342,0.78076 1.13715,0.94262 0.27677,0.0824 0.62477,0.19721 0.77333,0.25515 0.14856,0.0579 0.40131,0.10534 0.56166,0.10534 0.16034,0 0.63622,0.0654 1.05751,0.14531 0.64544,0.12244 0.77683,0.18856 0.83497,0.42018 0.0379,0.15119 0.0118,0.33203 -0.058,0.40188 -0.0883,0.0883 -0.0901,0.19598 -0.006,0.35336 0.0666,0.12449 0.0904,0.30655 0.0528,0.40457 -0.0577,0.15049 -0.33229,0.17193 -1.76497,0.1378 -1.79593,-0.0428 -1.9352,0.0127 -0.5954,0.2373 1.73874,0.29145 2.70749,0.23639 4.46852,-0.25398 z m -3.76296,-0.90568 c -0.04,-0.0647 -0.21508,-0.11816 -0.38912,-0.11886 -0.40665,-0.002 -1.4005,-0.30279 -1.74571,-0.52898 -0.14715,-0.0964 -0.35526,-0.1753 -0.46247,-0.1753 -0.29981,0 0.0314,0.34773 0.53943,0.56627 0.75321,0.32405 2.21191,0.50613 2.05787,0.25687 z m -4.64491,-2.56486 c 0,-0.11716 0.0926,-0.31743 0.20579,-0.44506 0.31424,-0.35435 0.7842,-0.96773 2.60414,-3.39887 0.91991,-1.22884 1.73631,-2.31364 1.81424,-2.41065 0.0779,-0.097 0.27067,-0.3616 0.42832,-0.58796 0.15765,-0.22637 0.3182,-0.43804 0.35677,-0.47037 0.0386,-0.0323 0.19732,-0.24401 0.35278,-0.47037 0.15545,-0.22637 0.31341,-0.43804 0.35101,-0.47037 0.0376,-0.0323 0.52853,-0.66734 1.09097,-1.41111 0.56243,-0.74378 1.18232,-1.53753 1.37753,-1.76389 0.19768,-0.22922 0.35506,-0.54685 0.35521,-0.71689 1.5e-4,-0.16792 0.0739,-0.45896 0.16384,-0.64676 0.31755,-0.6629 0.52409,-1.16982 0.66613,-1.63496 0.079,-0.25871 0.18319,-0.57621 0.23153,-0.70556 0.0825,-0.22067 0.19418,-0.62533 0.46257,-1.67569 0.062,-0.24254 0.17239,-0.73202 0.24538,-1.08774 0.073,-0.35571 0.18104,-0.8381 0.2401,-1.07197 0.0591,-0.23387 0.10739,-0.63577 0.10739,-0.89312 0,-0.51775 0.16689,-0.72147 0.82315,-1.00483 0.22637,-0.0977 0.66235,-0.2897 0.96886,-0.42658 0.3065,-0.13688 0.61149,-0.24887 0.67775,-0.24887 0.0663,0 0.21236,-0.0467 0.32466,-0.10387 0.34604,-0.17603 0.77135,-0.34437 1.26253,-0.49971 0.8039,-0.25425 0.83363,-0.3519 0.26771,-0.87919 -0.87832,-0.81837 -2.01933,-1.61896 -2.98093,-2.09158 -1.58189,-0.77748 -2.01445,-0.89416 -3.31481,-0.89416 -0.58984,0 -1.10515,0.0529 -1.14512,0.11759 -0.04,0.0647 -0.15183,0.11759 -0.24858,0.11759 -0.53513,0 -2.49586,1.72027 -3.49682,3.06798 -0.30791,0.41458 -0.62402,0.83315 -0.70246,0.93017 -0.20204,0.24988 -2.63984,4.13496 -3.13593,4.99768 -0.11157,0.19403 -0.34168,0.59091 -0.51136,0.88195 -0.78607,1.34832 -2.5175,4.92969 -2.97036,6.14401 -0.10255,0.27498 -0.23161,0.6058 -0.2868,0.73515 -0.0863,0.2022 -0.25377,0.70799 -0.9374,2.83058 -0.064,0.19861 -0.11631,0.46584 -0.11631,0.59384 0,0.12799 -0.0475,0.28298 -0.10555,0.34443 -0.0581,0.0614 -0.13436,0.32338 -0.16958,0.58208 -0.0352,0.2587 -0.12388,0.78787 -0.19702,1.17593 -0.0731,0.38805 -0.14234,0.79954 -0.15379,0.91441 -0.0157,0.15752 0.23933,0.32116 1.03752,0.66569 1.3655,0.58943 2.96147,1.43415 3.58657,1.89832 0.37228,0.27643 0.47037,0.27909 0.47037,0.0127 z m 16.40417,-1.6626 c 1.22884,-0.19885 2.5253,-0.41181 2.88101,-0.47326 0.35572,-0.0615 1.01718,-0.17061 1.46991,-0.24258 1.50212,-0.2388 2.17547,-0.37966 2.17547,-0.45508 0,-0.041 -0.48059,-0.54972 -1.06798,-1.13046 -1.59583,-1.57775 -2.39613,-2.80332 -3.17026,-4.85487 l -0.14671,-0.3888 -0.1838,0.3888 c -0.10109,0.21385 -0.21259,0.41527 -0.24776,0.4476 -0.0352,0.0323 -0.14193,0.21755 -0.23721,0.41158 -0.13419,0.27323 -2.70666,4.21914 -3.14707,4.82728 -0.0869,0.11998 -0.22698,0.35909 -0.53046,0.90536 -0.0809,0.14552 -0.17345,0.29104 -0.20579,0.32338 -0.0932,0.0932 -0.35278,0.57729 -0.35278,0.65791 0,0.0402 0.11906,0.0442 0.26458,0.009 0.14552,-0.0353 1.27,-0.22692 2.49885,-0.42577 z m -53.59415,-3.25464 c 0.28555,-0.0765 0.24947,-0.27901 -0.0497,-0.27901 -0.10128,0 -0.49371,-0.13892 -0.87208,-0.30873 l -0.68794,-0.30872 -0.41569,0.36498 -0.4157,0.36498 0.26578,0.0578 c 0.78987,0.17182 1.75911,0.22024 2.17534,0.10868 z m -4.53779,-0.43678 c 0.42382,-0.20797 0.8858,-0.61912 1.21011,-1.07695 l 0.1666,-0.23518 0.0864,0.22312 c 0.0475,0.12272 0.0293,0.37443 -0.0405,0.55936 l -0.12691,0.33623 0.35191,-0.20658 c 0.98046,-0.57554 1.95735,-1.96792 2.33125,-3.32278 0.0803,-0.29104 0.18812,-0.635 0.23956,-0.76435 0.22523,-0.56636 0.26573,-0.75701 0.34976,-1.6463 0.0489,-0.51741 0.0488,-1.04661 -1.6e-4,-1.176 -0.11417,-0.30168 -0.97726,-0.76428 -1.42592,-0.76428 -0.19019,0 -0.47467,-0.0844 -0.63218,-0.18764 l -0.28638,-0.18764 -0.20163,0.42282 c -0.1109,0.23256 -0.28444,0.4196 -0.38565,0.41565 -0.1012,-0.004 -0.34588,-0.22885 -0.54373,-0.49977 l -0.35972,-0.49258 -0.46343,0.0388 c -0.29432,0.0246 -0.53238,0.12701 -0.65241,0.28062 -0.19115,0.24462 -0.97008,0.34311 -1.2662,0.16009 -0.18119,-0.11198 -0.16814,-0.4593 0.0147,-0.39059 0.44382,0.16679 0.63448,0.189 0.78919,0.0919 0.14182,-0.089 0.11483,-0.16064 -0.15449,-0.41023 -0.23127,-0.21434 -0.30465,-0.3707 -0.25191,-0.53685 0.14015,-0.44158 -0.26133,-0.40014 -0.81102,0.0837 -0.28628,0.252 -0.77668,0.58538 -1.08977,0.74085 -0.88003,0.43699 -0.89352,0.45408 -0.62637,0.7937 0.28358,0.36052 0.29397,0.59682 0.0421,0.95649 -0.14078,0.20098 -0.21573,0.23404 -0.28319,0.12488 -0.0505,-0.0816 -0.0342,-0.24059 0.0361,-0.35322 0.0974,-0.156 0.0808,-0.27654 -0.0696,-0.50615 -0.46586,-0.711 -0.97648,-0.5689 -0.9209,0.25628 0.0212,0.31535 0.13485,0.52405 0.43488,0.79887 0.51565,0.47232 0.5402,0.72581 0.0421,0.43513 -0.51713,-0.3018 -0.83335,-0.79633 -0.85342,-1.33464 -0.01,-0.2604 -0.0766,-0.46425 -0.15235,-0.46463 -0.22432,-0.001 -1.47222,0.69283 -2.10815,1.17231 -0.63795,0.481 -1.57856,1.39631 -1.57856,1.5361 0,0.0465 0.17198,0.15279 0.38217,0.23611 0.69227,0.27442 1.32683,0.89865 2.20247,2.16663 1.28844,1.86573 2.00726,2.42062 3.70656,2.86127 0.73363,0.19023 2.39379,0.11316 2.89862,-0.13456 z m 96.82639,-6.06998 c 1.35769,-0.82483 1.95844,-1.54396 1.67242,-2.00196 -0.39241,-0.62835 -2.15361,0.0574 -3.84705,1.49784 l -0.40425,0.34387 0.20837,0.66245 0.20836,0.66246 0.7247,-0.36583 c 0.39859,-0.2012 1.04544,-0.56068 1.43745,-0.79883 z m -45.25811,-1.673 c -0.0375,-0.0938 -0.0654,-0.0659 -0.071,0.0711 -0.005,0.12396 0.0227,0.19341 0.0618,0.15434 0.0391,-0.0391 0.0433,-0.1405 0.009,-0.22539 z m -57.97508,-0.29153 c -0.0431,-0.0431 -0.11367,-0.0431 -0.15679,0 -0.0431,0.0431 -0.008,0.0784 0.0784,0.0784 0.0862,0 0.12151,-0.0353 0.0784,-0.0784 z m 8.22228,-0.71476 c -0.12846,-0.12846 -0.21654,0.0758 -0.12432,0.28831 l 0.0915,0.21086 0.051,-0.21499 c 0.028,-0.11824 0.0199,-0.24612 -0.0182,-0.28418 z m -0.65715,0.0288 c 0,-0.0323 -0.0265,-0.0588 -0.0588,-0.0588 -0.0323,0 -0.0588,0.0265 -0.0588,0.0588 0,0.0323 0.0265,0.0588 0.0588,0.0588 0.0323,0 0.0588,-0.0265 0.0588,-0.0588 z m 68.27756,-12.26157 c 0.49912,-0.16256 1.72199,-0.70703 3.48724,-1.55264 0.73941,-0.3542 1.84816,-1.28249 1.84816,-1.54736 0,-0.0631 0.21166,-0.42645 0.47037,-0.80741 0.2587,-0.38096 0.47037,-0.74847 0.47037,-0.81669 0,-0.17002 0.27329,-0.15621 0.45405,0.0229 0.11891,0.11785 0.24015,0.0488 0.61148,-0.34822 0.49145,-0.52545 0.57446,-0.73951 0.28678,-0.73951 -0.22796,0 -0.2276,-0.42819 7.3e-4,-0.86599 0.23081,-0.44256 0.22161,-0.53512 -0.0462,-0.46507 -0.12205,0.0319 -0.25906,-0.002 -0.30445,-0.0755 -0.0612,-0.099 -0.12608,-0.0974 -0.25066,0.006 -0.28513,0.23664 -0.60186,-0.18689 -0.80383,-1.07488 -0.10067,-0.44261 -0.18304,-0.91395 -0.18304,-1.0474 0,-0.13346 -0.10243,-0.46697 -0.22762,-0.74114 -0.1252,-0.27417 -0.28814,-0.73661 -0.36209,-1.02766 -0.29932,-1.17794 -0.40713,-1.43805 -0.72482,-1.74865 -0.39664,-0.38779 -1.20919,-0.83838 -1.51186,-0.83838 -0.11942,0 -0.24984,-0.0529 -0.28981,-0.11759 -0.04,-0.0647 -0.21132,-0.1176 -0.38077,-0.1176 -0.16945,0 -0.47059,-0.0493 -0.66921,-0.10962 -0.19862,-0.0603 -0.59926,-0.17129 -0.8903,-0.24665 -0.29104,-0.0754 -0.62105,-0.18478 -0.73336,-0.24315 -0.1123,-0.0584 -0.31422,-0.10613 -0.4487,-0.10613 -0.13448,0 -0.33364,-0.0457 -0.44257,-0.1015 -0.10893,-0.0558 -0.49513,-0.13481 -0.85822,-0.17553 l -0.66016,-0.074 -0.2633,0.67531 c -1.01614,2.60623 -1.01985,2.63751 -0.30097,2.53898 0.48992,-0.0672 1.23702,0.11182 1.23838,0.29666 3e-4,0.0407 0.15905,0.24303 0.35278,0.44972 0.19373,0.20669 0.35223,0.43159 0.35223,0.49977 0,0.25187 -0.26971,0.11003 -0.77045,-0.4052 l -0.51429,-0.52916 -0.56295,0.002 c -0.67234,0.002 -0.76331,0.0556 -0.9718,0.57058 l -0.1603,0.39599 0.24047,0.19197 c 0.13226,0.10558 0.33255,0.33749 0.44509,0.51535 l 0.20462,0.32338 h 0.80268 c 0.44148,0 0.83399,0.0507 0.87226,0.11259 0.0909,0.14708 -0.54878,0.47537 -0.92627,0.47537 -0.57694,0 -1.48128,-0.55693 -1.48128,-0.91224 0,-0.31525 -0.28833,-0.0681 -0.38861,0.33307 -0.24154,0.96642 -0.30376,2.50116 -0.19935,4.91757 0.0604,1.39742 0.15266,2.75244 0.20508,3.01114 0.20348,1.00418 0.82801,1.59776 1.79399,1.70509 0.60472,0.0672 1.64975,-0.0322 2.19053,-0.20833 z m -2.28307,-2.38229 c -0.082,-0.13133 -0.2998,-0.26891 -0.48396,-0.30574 -0.2526,-0.0505 -0.33484,-0.13398 -0.33484,-0.33979 0,-0.15006 -0.10551,-0.42258 -0.23446,-0.60561 -0.3324,-0.47179 -0.43407,-0.85197 -0.24402,-0.91246 0.0853,-0.0272 0.43028,-0.0718 0.76662,-0.0992 l 0.61152,-0.0498 0.0352,0.24676 c 0.0228,0.15998 0.1373,0.26116 0.32545,0.2877 0.31642,0.0446 0.8243,0.55893 0.83051,0.84101 0.002,0.097 0.0816,0.2791 0.17654,0.40465 0.33725,0.44588 0.22795,0.57372 -0.41735,0.48812 -0.47219,-0.0626 -0.60384,-0.0422 -0.65934,0.10244 -0.0933,0.24313 -0.19359,0.22748 -0.37191,-0.0581 z m 0.73154,-0.45422 c 0.0357,-0.0578 -0.15962,-0.21641 -0.43403,-0.35253 -0.27442,-0.13613 -0.6206,-0.33516 -0.76929,-0.4423 l -0.27034,-0.1948 0.13463,0.29548 c 0.074,0.16251 0.32799,0.40759 0.56432,0.54463 0.46863,0.27172 0.67461,0.31148 0.77471,0.14952 z m 0.0527,-0.69655 c -0.14522,-0.23253 -0.80933,-0.42651 -0.80933,-0.23639 0,0.0535 0.0794,0.0972 0.17639,0.0972 0.097,0 0.17639,0.0404 0.17639,0.0897 0,0.0877 0.49253,0.35705 0.56671,0.30985 0.0207,-0.0131 -0.0289,-0.13031 -0.11016,-0.2604 z m -0.92692,-0.49194 c 0,-0.0647 -0.0529,-0.11759 -0.1176,-0.11759 -0.0647,0 -0.11759,0.0529 -0.11759,0.11759 0,0.0647 0.0529,0.11759 0.11759,0.11759 0.0647,0 0.1176,-0.0529 0.1176,-0.11759 z m 0.70555,-0.47444 c 0,-0.15121 -0.0914,-0.27704 -0.22705,-0.31251 -0.12488,-0.0327 -0.25551,-0.13353 -0.29029,-0.22417 -0.0348,-0.0906 -0.1378,-0.16481 -0.22892,-0.16481 -0.26298,0 -0.46614,-0.32865 -0.45458,-0.73539 0.0112,-0.39495 0.27522,-0.67572 0.63536,-0.67572 0.25884,0 0.27327,0.15782 0.0361,0.39497 -0.15705,0.15705 -0.14729,0.18075 0.0882,0.21419 0.17615,0.025 0.30422,0.15962 0.38261,0.40214 0.0964,0.29819 0.1606,0.34872 0.35278,0.2776 0.12922,-0.0478 0.38651,-0.0585 0.57176,-0.0238 l 0.33682,0.0632 -0.13103,-0.24485 c -0.17609,-0.32901 -0.16556,-0.61308 0.0227,-0.61308 0.19903,0 0.5795,0.86168 0.53065,1.20181 -0.0582,0.40534 -0.52267,0.58368 -1.00036,0.38409 -0.33229,-0.13884 -0.3896,-0.13874 -0.3896,6.6e-4 0,0.0899 -0.0529,0.19616 -0.11759,0.23613 -0.0647,0.04 -0.1176,-0.0412 -0.1176,-0.18046 z m 3.46898,-3.60734 c -0.29925,-0.0717 -0.96146,-0.69883 -1.03504,-0.9802 -0.0887,-0.33903 0.21878,-0.35903 0.52276,-0.034 0.41167,0.44017 0.66854,0.54549 1.51056,0.61934 0.60093,0.0527 0.77144,0.11066 0.80237,0.27271 0.0345,0.18075 -0.0583,0.20413 -0.76309,0.19215 -0.4413,-0.007 -0.9082,-0.039 -1.03756,-0.07 z m 1.66197,-1.37015 c -0.17627,-0.30077 -0.4478,-0.57398 -0.65629,-0.66034 -0.33487,-0.13871 -0.55289,-0.12845 -1.32709,0.0625 -0.17678,0.0436 -0.41491,0.0429 -0.52917,-0.002 l -0.20775,-0.0809 0.27761,-0.22645 c 0.35136,-0.28661 1.50988,-0.3115 2.02799,-0.0436 0.31369,0.16221 1.04579,1.12047 1.04579,1.36885 0,0.27408 -0.36838,0.0298 -0.63109,-0.41847 z m 3.26233,6.27508 c 0.18687,0 0.82543,-0.69827 0.72782,-0.79588 -0.0334,-0.0334 -0.13638,0.002 -0.22877,0.0786 -0.0942,0.0782 -0.29776,0.10684 -0.46355,0.0652 -0.31001,-0.0778 -0.40757,0.0267 -0.67054,0.71837 l -0.12066,0.31737 0.29281,-0.19186 c 0.16105,-0.10552 0.36935,-0.19186 0.46289,-0.19186 z m 1.36691,-1.46991 c 0,-0.0323 -0.0265,-0.0588 -0.0588,-0.0588 -0.0323,0 -0.0588,0.0265 -0.0588,0.0588 0,0.0323 0.0265,0.0588 0.0588,0.0588 0.0323,0 0.0588,-0.0265 0.0588,-0.0588 z m 0.47037,-3.01205 v -0.45693 h -0.29812 c -0.2583,0 -0.28186,0.0304 -0.17639,0.22745 0.067,0.1251 0.12206,0.48229 0.12245,0.79375 l 7.3e-4,0.5663 0.17566,-0.33682 c 0.0966,-0.18525 0.17567,-0.54244 0.17567,-0.79375 z m -83.37315,58.39816 c 0,-0.41048 0.0445,-0.63312 0.11759,-0.58796 0.0647,0.04 0.1176,0.30455 0.1176,0.58796 0,0.28341 -0.0529,0.54799 -0.1176,0.58796 -0.0731,0.0452 -0.11759,-0.17748 -0.11759,-0.58796 z m 1.10676,-17.25671 c 0.0454,-0.4689 0.0902,-0.93192 0.0995,-1.02894 0.0366,-0.38081 -0.17788,-1.88612 -0.27749,-1.94768 -0.0581,-0.0359 -0.10561,-0.1687 -0.10561,-0.29511 0,-0.12642 -0.0461,-0.32173 -0.1025,-0.43404 -0.90702,-1.80696 -1.07998,-2.09093 -2.64979,-4.35034 -0.66493,-0.95703 -0.77673,-1.34327 -0.4093,-1.41403 0.31684,-0.061 2.51826,3.42916 3.24747,5.14861 0.50868,1.19943 0.78439,2.60171 0.6961,3.54043 -0.12119,1.28869 -0.20573,1.63364 -0.40033,1.63364 -0.15336,0 -0.16814,-0.12849 -0.098,-0.85254 z m 83.91268,-43.91619 c 0,-0.1753 0.15533,-0.63832 0.34517,-1.02893 0.18984,-0.39061 0.40363,-0.9351 0.47509,-1.20997 0.0715,-0.27488 0.18839,-0.49977 0.25985,-0.49977 0.21858,0 0.0265,1.56014 -0.26294,2.13562 -0.45836,0.91136 -0.81717,1.17616 -0.81717,0.60305 z m -6.16816,-4.02338 c -0.037,-0.0598 -0.007,-0.25827 0.0665,-0.44097 0.0735,-0.18271 0.17335,-0.43803 0.22178,-0.56738 0.41934,-1.12003 1.0705,-1.99758 1.68148,-2.2661 0.42831,-0.18823 2.10609,-0.19075 2.2934,-0.003 0.31923,0.31922 0.1292,0.39256 -1.06421,0.41071 l -1.20532,0.0183 -0.48296,0.53088 c -0.46696,0.51329 -0.55384,0.66151 -1.09507,1.86818 -0.26135,0.58266 -0.30457,0.62944 -0.4156,0.44978 z m -5.23652,-1.62162 c -0.002,-0.52152 0.0536,-0.67635 0.36844,-1.03494 0.44779,-0.51001 0.90727,-0.76244 1.38781,-0.76244 0.53377,0 0.43596,0.18254 -0.27132,0.50634 -0.65283,0.29888 -1.25016,0.93153 -1.25334,1.32745 -9.9e-4,0.12325 -0.0531,0.30346 -0.11579,0.40047 -0.0817,0.12636 -0.11451,0.002 -0.1158,-0.43688 z"
       id="path24" /></g></svg>
