<?xml version="1.0" encoding="UTF-8" standalone="no"?>
<!-- Created with Inkscape (http://www.inkscape.org/) -->

<svg
   width="72.760429mm"
   height="86.455612mm"
   viewBox="0 0 72.760437 86.455613"
   version="1.1"
   id="svg1"
   xml:space="preserve"
   xmlns="http://www.w3.org/2000/svg"
   xmlns:svg="http://www.w3.org/2000/svg"><defs
     id="defs1" /><g
     id="layer1"
     transform="translate(361.4326,-1621.0793)"><path
       style="fill:#333333;stroke-width:2.5"
       d="m -358.12517,1705.8406 c 0,-1.0633 0.41857,-2.5055 0.93015,-3.205 0.82112,-1.123 0.74362,-1.5905 -0.66148,-3.988 -0.87537,-1.4938 -1.5916,-3.1588 -1.5916,-3.7 0,-0.5413 1.33153,-2.7478 2.95895,-4.903 2.3953,-3.172 2.9623,-4.447 2.97655,-6.693 l 0.0175,-2.7743 -2.64582,0.3188 c -1.4552,0.175 -2.64583,0.205 -2.64583,0.065 0,-0.14 0.49428,-1.245 1.0984,-2.456 1.24498,-2.4955 0.83788,-4.8418 -2.12535,-12.2488 -0.8904,-2.2255 -1.6189,-4.7755 -1.6189,-5.6665 0,-2.264 1.76323,-4.5352 4.3647,-5.6222 4.86083,-2.031 7.7795,-0.8578 12.49678,5.0237 3.12015,3.89 3.38932,4.068 5.6103,3.707 1.2831,-0.2075 3.59795,-0.5697 5.14412,-0.8025 1.54615,-0.2325 2.8112,-0.688 2.8112,-1.0112 0,-0.3233 -1.0418,-3.8103 -2.31512,-7.749 -2.48823,-7.697 -2.9547,-12.6265 -1.3229,-13.981 0.5457,-0.4528 0.99217,-1.1818 0.99217,-1.62 0,-0.5058 0.71188,-0.692 1.9494,-0.5105 1.29723,0.19 2.625,-0.195 3.96875,-1.1518 1.4798,-1.0537 2.01935,-1.1915 2.01935,-0.516 0,1.7333 -2.95157,3.7983 -5.4289,3.7983 -2.46372,0 -3.1698,0.7855 -3.17035,3.5267 -5.2e-4,2.6043 4.63803,18.5558 6.60535,22.7153 l 1.93113,4.083 6.25712,-0.3735 c 5.55173,-0.331 6.44298,-0.2275 7.90538,0.9232 1.20705,0.9495 2.81155,1.3285 5.9947,1.4163 l 4.3465,0.12 -0.62,-1.6308 c -1.4925,-3.9255 -3.59848,-7.408 -5.3148,-8.7887 -1.71603,-1.3803 -1.85293,-1.8378 -1.85293,-6.1923 0,-2.586 -0.32392,-5.0257 -0.71982,-5.4217 -0.3959,-0.396 -0.71983,-2.4645 -0.71983,-4.5968 v -3.877 l 3.14193,0.4435 c 1.72805,0.245 3.71432,0.9918 4.41392,1.6618 1.16778,1.1182 1.19845,1.451 0.3743,4.0617 -0.49372,1.564 -0.9352,4.5553 -0.98105,6.647 -0.078,3.5568 0.015,3.8035 1.4447,3.8035 0.84045,0 1.52808,-0.2977 1.52808,-0.6615 0,-0.3637 0.33237,-0.6615 0.7386,-0.6615 0.41977,0 0.58502,0.5873 0.3828,1.3608 -0.26608,1.0172 0.55227,2.2685 3.24505,4.9612 5.50537,5.5055 7.5398,9.1023 7.5398,13.3303 0,3.2595 -0.15825,3.6147 -2.14975,4.829 -1.18235,0.721 -2.67063,1.3117 -3.30728,1.3132 -1.01722,0 -1.16027,0.7443 -1.17985,6.121 -0.0267,7.3188 -0.41602,13.7225 -0.8614,14.1678 -0.1775,0.1775 -0.53432,-1.6525 -0.79287,-4.0668 -0.43403,-4.0527 -0.0693,-10.509 0.7944,-14.0612 l 0.35977,-1.4795 -7.18022,0.4112 c -3.9491,0.225 -7.03138,0.2475 -6.84948,0.05 0.182,-0.2 3.88055,-0.852 8.21923,-1.4512 7.62697,-1.0533 10.14492,-1.7833 11.07367,-3.2105 0.91398,-1.4045 0.0965,-6.237 -1.42842,-8.4435 -3.85728,-5.582 -7.39995,-9.201 -9.0067,-9.201 -2.4387,0 -2.50153,1.3195 -0.28583,6.003 2.97025,6.2787 3.0483,6.1712 -4.09397,5.6322 -3.82495,-0.2887 -6.50013,-0.8182 -7.16225,-1.4175 -1.19408,-1.0805 -10.07068,-1.2425 -12.00128,-0.22 -1.36942,0.726 -2.00362,0.092 -4.38695,-4.3765 -2.1827,-4.0937 -3.29207,-4.3237 -9.76765,-2.0247 -2.78695,0.9892 -5.5135,1.5637 -6.38495,1.345 -1.09505,-0.275 -1.96502,0.09 -3.10697,1.3065 -0.8723,0.9285 -2.3114,1.6882 -3.19798,1.6882 -1.50882,0 -1.58062,0.1575 -1.12205,2.4805 0.26945,1.3643 0.4335,7.5185 0.36455,13.6763 -0.12275,10.9742 -0.74155,14.7187 -2.62412,15.8822 -1.3334,0.824 -0.78473,2.3568 0.8437,2.3568 2.3085,0 2.7404,-0.976 3.6055,-8.149 0.8575,-7.1098 2.58332,-14.86 3.59837,-16.1595 1.06205,-1.3595 2.76713,-0.947 4.78338,1.1575 2.12155,2.2145 3.29942,2.498 3.89797,0.938 0.68675,-1.7895 0.4694,-3.7038 -0.36215,-3.19 -0.47315,0.2925 -0.58412,0.1825 -0.2917,-0.2915 0.7368,-1.1923 1.7432,-0.9088 3.1579,0.89 1.46553,1.863 3.28958,2.1342 4.50488,0.67 0.66302,-0.799 0.48405,-1.619 -0.95323,-4.3678 -0.97322,-1.8612 -1.57742,-3.5762 -1.34267,-3.811 0.57757,-0.5775 1.99292,1.4533 3.42345,4.912 0.64972,1.5708 1.63082,2.9613 2.1802,3.09 0.5494,0.13 3.82662,0.035 7.28275,-0.205 5.31777,-0.3722 6.41405,-0.2775 7.13075,0.617 2.93632,3.6648 4.2808,16.6448 2.30432,22.2468 l -1.16685,3.3072 -9.59115,0.4963 c -8.59097,0.4442 -23.5615,0.678 -29.76562,0.4642 -1.2733,-0.042 -3.28248,0.1275 -4.46485,0.3818 -2.04018,0.438 -2.14973,0.363 -2.14973,-1.4715 z m 9.09505,-39.1903 c 1.9586,-1.634 1.88182,-2.2345 -0.54685,-4.278 -4.636,-3.901 -9.83608,-0.2772 -5.78708,4.0328 1.73095,1.8425 4.3001,1.942 6.33393,0.245 z m 43.16015,-6.282 c 0,-0.16 -0.29765,-0.4757 -0.66145,-0.7005 -0.3638,-0.225 -0.66145,-0.092 -0.66145,0.2915 0,0.3853 0.29765,0.7005 0.66145,0.7005 0.3638,0 0.66145,-0.1325 0.66145,-0.2915 z m -46.96353,-4.7402 c 0,-0.1425 -0.4465,-0.2598 -0.9922,-0.2598 -0.5457,0 -0.99217,0.2883 -0.99217,0.6405 0,0.3525 0.44647,0.4695 0.99217,0.26 0.5457,-0.21 0.9922,-0.4977 0.9922,-0.6407 z m 47.625,-1.0315 c 0,-0.3033 -0.4465,-0.5513 -0.9922,-0.5513 -0.5457,0 -0.99217,0.2475 -0.99217,0.5513 0,0.303 0.44647,0.5512 0.99217,0.5512 0.5457,0 0.9922,-0.2475 0.9922,-0.5512 z m 1.20473,-6.3578 c 1.04975,-3.1447 0.42792,-4.1155 -2.63645,-4.1155 h -2.6131 l 0.2035,2.7958 c 0.16075,2.2097 0.54845,2.967 1.8496,3.6125 1.87975,0.9325 2.19557,0.706 3.19655,-2.2928 z m -21.28405,19.8625 c -0.1785,-0.6367 -0.84073,-3.6877 -1.47145,-6.78 -1.0529,-5.1622 -2.32238,-8.4487 -4.395,-11.3785 -1.34198,-1.8967 0.0387,-2.1692 1.51055,-0.298 1.64445,2.0905 2.71467,2.15 8.84875,0.491 6.59847,-1.7847 9.63335,-2.2335 9.63335,-1.4247 0,0.3732 -0.81858,0.86 -1.81903,1.0817 -1.00045,0.2225 -3.45612,0.8445 -5.45702,1.3843 -2.00093,0.5397 -4.6054,1.1407 -5.78778,1.3357 -1.18235,0.195 -2.14972,0.4825 -2.14972,0.6395 0,0.1575 0.59362,1.0915 1.31915,2.0773 2.5302,3.4377 5.26497,13.5515 3.642,13.469 -0.3637,-0.025 -0.84848,-0.8675 -1.07728,-1.8865 -0.22875,-1.019 -0.7309,-2.5968 -1.11582,-3.5063 l -0.69983,-1.6537 -0.042,1.658 c -0.0225,0.912 0.235,2.6235 0.57335,3.8035 0.47925,1.671 0.41598,2.1452 -0.28615,2.1452 -0.4958,0 -1.04755,-0.5207 -1.22615,-1.1575 z m 25.02885,-14.2327 c 0.176,-1.7343 0.77142,-4.0265 1.32322,-5.0935 2.16383,-4.1843 0.99583,-8.1295 -3.172,-10.7143 -4.19945,-2.6045 -7.12545,-3.2942 -13.33955,-3.1447 -3.11702,0.075 -5.82237,-0.025 -6.01187,-0.2075 -0.1895,-0.19 2.42197,-0.5478 5.80332,-0.7958 6.5797,-0.4832 9.5817,0.1525 14.19418,3.0025 4.2763,2.643 5.63695,7.8465 3.46705,13.2593 -0.7807,1.9475 -1.68155,4.285 -2.00188,5.1945 -0.43042,1.222 -0.49892,0.8305 -0.26247,-1.4998 z m -34.54855,-18.9845 c -0.42653,-0.683 -1.23958,-3.243 -1.80683,-5.6888 -0.91425,-3.9422 -0.91977,-4.6175 -0.0488,-5.9467 1.99008,-3.0373 7.15123,-2.8613 11.08093,0.378 2.5002,2.0607 3.28627,4.1692 2.42372,6.501 -0.77792,2.103 -1.70097,1.7535 -3.21677,-1.2178 -1.68453,-3.3017 -4.91725,-3.8767 -7.52305,-1.338 -1.12403,1.0953 -1.1632,1.5243 -0.42158,4.6158 0.89055,3.7122 0.72348,4.6357 -0.48772,2.6965 z"
       id="path78" /></g></svg>
