<?xml version="1.0" encoding="UTF-8" standalone="no"?>
<!-- Created with Inkscape (http://www.inkscape.org/) -->

<svg
   width="121.40692mm"
   height="90.553909mm"
   viewBox="0 0 121.40693 90.55391"
   version="1.1"
   id="svg1"
   xml:space="preserve"
   xmlns="http://www.w3.org/2000/svg"
   xmlns:svg="http://www.w3.org/2000/svg"><defs
     id="defs1" /><g
     id="layer1"
     transform="translate(375.84874,-1731.5678)"><path
       style="fill:#333333;stroke-width:2.5"
       d="m -371.52761,1820.0339 0.4575,-2.083 -2.38933,0.3878 c -2.07817,0.3372 -2.3893,0.215 -2.3893,-0.9365 0,-2.0213 7.12353,-8.4123 9.92188,-8.9013 4.24745,-0.7425 13.80885,-3.945 15.7399,-5.272 0.38195,-0.2625 -2.78323,-6.2475 -3.304,-6.2475 -0.2913,0 -0.52965,-0.744 -0.52965,-1.6535 0,-1.6295 -0.0798,-1.654 -5.45703,-1.664 -3.00137,0 -5.8752,-0.2747 -6.3863,-0.5982 -1.48485,-0.9403 -0.45947,-10.9548 1.66498,-16.2615 2.00582,-5.0105 6.42247,-10.0198 10.8398,-12.2943 4.41897,-2.2752 10.24337,-2.1627 16.0699,0.3105 4.78162,2.0298 6.29032,1.9435 3.7022,-0.2125 l -1.582,-1.3172 1.53177,-0.025 c 0.84248,0 2.13693,0.3017 2.87655,0.6975 1.10815,0.5932 1.94435,0.338 4.75208,-1.4498 9.50077,-6.0497 12.79375,-6.5967 15.51605,-2.5772 1.90495,2.8127 1.71415,7.1962 -0.41205,9.467 -0.74525,0.796 -1.93865,2.8117 -2.65205,4.4797 -1.33188,3.114 -1.33615,3.1168 -8.13355,5.5703 -1.68173,0.607 -4.06298,2.037 -5.29168,3.1775 -1.73455,1.6102 -2.83845,2.078 -4.93772,2.092 l -2.70373,0.025 0.56293,2.5055 c 0.3096,1.378 1.79157,5.3962 3.29325,8.9297 2.82687,6.6515 3.64387,12.5338 1.9729,14.2048 -2.26288,2.2627 0.42655,3.3162 3.13992,1.23 1.51765,-1.167 1.54605,-1.3425 0.75273,-4.6495 -0.45345,-1.8903 -0.76003,-5.4305 -0.68128,-7.8675 0.0788,-2.4373 0.1545,-5.257 0.16825,-6.2663 0.015,-1.0095 -0.7669,-2.9442 -1.73482,-4.2995 l -1.75988,-2.4642 2.16188,-0.16 c 9.49722,-0.7075 15.87617,-2.6103 21.452,-6.3985 4.08905,-2.778 9.80425,-8.7313 13.46227,-14.0228 l 3.4004,-4.919 -1.47645,-1.1955 c -1.25682,-1.0177 -1.32012,-1.2555 -0.42565,-1.5987 1.1237,-0.4313 5.77038,4.1175 5.7641,5.6425 -0.002,0.4537 -0.7367,2.0155 -1.633,3.4707 -1.86717,3.0315 -2.02735,4.2205 -0.79552,5.9053 1.28505,1.7572 3.24937,0.2885 5.46155,-4.0838 1.59467,-3.1517 1.74642,-4.0242 1.406,-8.0847 -0.44893,-5.355 -1.55353,-7.75 -5.2117,-11.3 -2.59275,-2.5163 -2.85305,-2.6113 -7.14808,-2.6113 -4.24222,0 -4.59927,0.125 -7.3997,2.59 -1.72697,1.52 -3.87207,4.4215 -5.1931,7.0243 -2.39217,4.713 -3.5104,4.794 -1.6494,0.12 2.54203,-6.385 7.15358,-10.4063 12.1998,-10.638 4.57358,-0.21 5.2564,-1.0153 3.94785,-4.654 -0.866,-2.4083 -0.89065,-3.0658 -0.15275,-4.0748 1.45568,-1.9907 1.02938,-2.4145 -1.9314,-1.92 -3.99845,0.6678 -6.57585,2.6433 -6.3209,4.8445 0.122,1.053 0.79393,2.007 1.6907,2.4005 1.82873,0.8023 1.93368,1.662 0.20275,1.662 -1.63465,0 -3.3448,-2.4125 -3.3448,-4.7185 0,-2.5265 2.98975,-4.778 7.6675,-5.7737 2.1494,-0.4575 4.82213,-1.1118 5.93935,-1.4538 2.95685,-0.9047 3.4452,-0.7977 4.6343,1.0173 1.4559,2.2217 2.1399,5.5965 1.56503,7.7212 l -0.47438,1.7535 2.9702,-1.012 c 1.9345,-0.6592 4.18545,-0.8867 6.45543,-0.6525 16.94342,1.7488 22.87677,25.6073 11.08845,44.5875 -4.69968,7.567 -3.97945,7.096 -11.58023,7.5743 -3.72255,0.235 -16.963,0.4575 -29.4232,0.4962 l -22.65495,0.07 v 5.5393 c 0,3.2635 0.41275,6.709 1.00468,8.3867 1.12565,3.1905 1.14757,3.1555 -3.31978,5.2875 -2.78812,1.3305 -6.94532,1.728 -6.94532,0.664 0,-0.3455 1.0418,-1.4225 2.3151,-2.3937 2.90287,-2.214 3.01982,-4.423 0.56637,-10.6968 -2.47315,-6.3242 -3.1122,-6.8645 -4.81582,-4.07 -1.62865,2.6715 -1.70965,4.253 -0.38075,7.4335 1.49947,3.5888 1.2866,7.2018 -0.52455,8.9033 -2.1339,2.0045 -4.2057,2.5532 -14.35828,3.8027 -4.91132,0.6043 -9.80525,1.5503 -10.8754,2.102 -2.98122,1.5373 -5.38862,2.0785 -6.39927,1.4385 -0.66073,-0.4185 -0.435,-0.5827 0.8113,-0.59 0.94967,0 2.83057,-0.7592 4.17975,-1.6747 2.0294,-1.3773 4.17175,-1.8885 12.40512,-2.96 11.52125,-1.4995 13.98325,-2.5103 14.31078,-5.8743 0.116,-1.1915 -0.25608,-3.537 -0.82683,-5.212 -1.43802,-4.2205 -1.30065,-6.3017 0.54758,-8.296 2.20037,-2.3742 2.31837,-3.0012 1.25082,-6.6442 -0.9004,-3.0728 -0.85477,-5.6883 0.2265,-12.9838 0.45275,-3.0547 1.49268,-4.659 3.00855,-4.6415 0.56738,0 0.62843,0.18 0.174,0.4963 -1.05615,0.733 -2.51492,7.714 -2.0222,9.6772 0.57093,2.2748 2.04173,2.1998 5.9918,-0.3052 1.75878,-1.1155 4.76603,-2.6148 6.68275,-3.332 5.43083,-2.0318 5.10485,-3.8483 -0.5992,-3.3388 -0.88125,0.078 -1.1137,-0.195 -0.81932,-0.961 0.30585,-0.797 0.13125,-0.9637 -0.6823,-0.6515 -0.87713,0.3368 -0.94125,0.2375 -0.3243,-0.507 0.6105,-0.7355 0.49345,-0.9985 -0.5679,-1.276 -0.77555,-0.2025 -1.33685,-0.9015 -1.33685,-1.6637 0,-1.4595 -1.20268,-2.1188 -3.85748,-2.114 -3.45597,0 -9.22337,6.9047 -12.0806,14.4497 -1.60095,4.2275 -2.4686,5.2018 -8.53587,9.584 -2.7455,1.983 -4.38395,5.0673 -2.69185,5.0673 0.3891,0 0.70747,-0.326 0.70747,-0.7248 0,-1.3437 2.66413,-4.479 4.64655,-5.468 1.1313,-0.5645 1.96803,-0.6957 1.96803,-0.3092 0,0.37 -0.52663,0.8105 -1.17028,0.9787 -1.40642,0.3678 -4.1214,4.1568 -4.1214,5.7515 0,1.0908 2.44888,6.151 4.11223,8.4975 0.63947,0.902 0.5675,1.368 -0.3716,2.4058 -1.73053,1.9122 -8.64568,4.8052 -12.84945,5.3757 -2.42933,0.3295 -4.04993,0.9455 -4.74445,1.8033 -0.58018,0.7165 -1.8677,1.8352 -2.8612,2.4862 -1.09248,0.7158 -1.80635,1.779 -1.80635,2.6905 0,1.267 -1.0932,2.3098 -2.42175,2.3098 -0.181,0 -0.12325,-0.9375 0.12825,-2.083 z m 1.65017,-4.3022 c 0.8995,-0.6015 2.46525,-1.8588 3.47943,-2.7935 1.45165,-1.3383 2.59487,-1.723 5.37372,-1.8085 2.2285,-0.067 5.02005,-0.7775 7.57223,-1.9228 4.45862,-2.001 5.9617,-3.314 4.95077,-4.325 -0.41542,-0.4152 -2.03442,0.053 -4.58357,1.3273 -2.16773,1.0832 -6.14843,2.348 -8.84603,2.8105 -4.43165,0.76 -5.21177,1.1355 -8.08837,3.8937 -1.751,1.6788 -3.18365,3.2458 -3.18365,3.482 0,0.7798 1.66307,0.4478 3.32547,-0.6637 z m 81.3412,-37.531 c 0,-1.7523 -1.28197,-2.5673 -2.67952,-1.7035 -0.74093,0.4577 -0.6812,0.808 0.32787,1.923 1.62095,1.7912 2.35165,1.723 2.35165,-0.22 z m -26.41485,-6.378 c 2.00365,-1.0723 1.64718,-3.6878 -0.60985,-4.4745 -2.15115,-0.75 -3.0491,-0.3735 -3.62887,1.5212 -0.54995,1.7975 0.36412,2.9893 2.75045,3.5858 0.11475,0.03 0.78457,-0.2558 1.48827,-0.6325 z m 30.49688,-26.8683 c 1.86335,-1.6862 1.43402,-2.3625 -0.77475,-1.2202 -1.9894,1.0287 -2.6615,2.315 -1.20963,2.315 0.4261,0 1.31908,-0.4925 1.98438,-1.0948 z"
       id="path84" /></g></svg>
