<?xml version="1.0" encoding="UTF-8" standalone="no"?>
<!-- Created with Inkscape (http://www.inkscape.org/) -->

<svg
   width="125.80815mm"
   height="111.53015mm"
   viewBox="0 0 125.80816 111.53015"
   version="1.1"
   id="svg1"
   xml:space="preserve"
   xmlns="http://www.w3.org/2000/svg"
   xmlns:svg="http://www.w3.org/2000/svg"><defs
     id="defs1" /><g
     id="layer1"
     transform="translate(333.1098,-821.40598)"><path
       style="fill:#000000"
       d="m -263.08704,932.82758 c -1.47892,-0.28622 -2.21069,-0.57153 -3.27181,-1.27562 -1.15315,-0.76516 -1.8529,-1.53348 -2.45542,-2.69603 -0.35235,-0.67985 -0.38165,-0.8224 -0.3809,-1.85362 7.9e-4,-1.09393 0.0123,-1.14033 0.55424,-2.23426 0.30439,-0.61442 0.71401,-1.38171 0.91027,-1.70509 0.19626,-0.32338 0.39236,-0.66734 0.43578,-0.76436 0.11042,-0.24674 0.34589,-0.47037 0.49527,-0.47037 0.27135,0 0.09,0.51016 -0.79914,2.2484 -1.12211,2.19361 -1.27691,2.7444 -1.03343,3.67682 0.51821,1.98442 2.56206,3.71868 5.07146,4.30326 0.6076,0.14154 2.91648,0.18635 3.12003,0.0606 0.064,-0.0395 0.68534,-0.12501 1.38081,-0.18993 0.69548,-0.0649 1.76721,-0.16606 2.38163,-0.22474 4.88469,-0.46648 7.70212,-0.62798 16.40417,-0.94034 1.74625,-0.0627 3.57187,-0.1649 4.05694,-0.22715 3.49471,-0.4485 9.21733,-0.53129 21.05172,-0.30459 5.33468,0.10219 5.58478,0.0896 6.46495,-0.32598 0.47577,-0.22462 0.60525,-0.4083 0.56608,-0.803 -0.0308,-0.31025 -0.10882,-0.39675 -0.47018,-0.52123 -0.2383,-0.0821 -0.68809,-0.18172 -0.99954,-0.22143 -1.05173,-0.13408 -2.32498,-0.29088 -3.32969,-0.41004 -1.49358,-0.17714 -2.40324,-0.44086 -3.09128,-0.89618 -0.69057,-0.457 -1.38782,-1.1964 -2.05185,-2.17587 -0.32555,-0.4802 -0.71776,-0.98962 -0.87159,-1.13205 -0.29861,-0.27648 -1.03647,-0.62298 -1.32663,-0.62298 -0.35295,0 -1.44473,0.48079 -2.47764,1.09108 -1.53399,0.90636 -2.29803,1.22768 -4.11574,1.73092 -0.62848,0.174 -2.32929,0.23969 -3.23379,0.12489 -1.24445,-0.15793 -2.14897,-0.36323 -4.14514,-0.9408 -2.87446,-0.83169 -6.13131,-1.66201 -7.9375,-2.02362 -0.27487,-0.055 -0.75112,-0.15298 -1.05833,-0.21766 -0.30722,-0.0647 -0.84961,-0.17258 -1.20533,-0.23978 -0.35572,-0.0672 -0.91134,-0.17479 -1.23472,-0.23908 -0.32338,-0.0643 -0.90546,-0.17804 -1.29352,-0.25279 -0.78465,-0.15113 -5.09173,-0.18603 -5.64444,-0.0457 -0.93307,0.23685 -2.97714,1.28829 -4.22815,2.1749 -1.18477,0.83967 -1.4163,0.92 -1.4163,0.49138 0,-0.23153 0.23718,-0.4499 1.23472,-1.13681 0.6791,-0.46763 1.59025,-1.02658 2.02479,-1.24213 0.43453,-0.21554 0.79172,-0.43449 0.79375,-0.48654 0.002,-0.0521 0.21936,-0.41225 0.48296,-0.80042 0.66741,-0.9828 1.88829,-2.2023 3.63647,-3.63235 1.07395,-0.87852 2.44046,-2.22898 3.45062,-3.41009 0.5255,-0.61442 0.98579,-1.14358 1.02288,-1.17592 0.0371,-0.0323 0.14375,-0.17029 0.23702,-0.30656 0.20778,-0.30359 0.97209,-1.21618 2.00497,-2.39395 0.42739,-0.48733 1.91117,-2.02377 3.29729,-3.41431 2.92101,-2.93029 3.24635,-3.29796 4.3183,-4.88009 1.18209,-1.74468 1.93844,-3.49361 2.44102,-5.64444 0.33941,-1.45253 0.31132,-4.47506 -0.0541,-5.81968 -0.27827,-1.024 -1.13943,-2.93484 -1.51465,-3.3609 -0.27239,-0.30929 -0.50429,-0.71711 -0.50429,-0.88684 0,-0.29529 -0.78607,-1.6494 -1.93295,-3.32977 -1.39016,-2.03681 -1.96686,-3.09711 -2.30704,-4.2417 -0.0769,-0.2587 -0.18623,-0.56226 -0.24296,-0.67456 -0.0567,-0.11231 -0.10316,-0.3133 -0.10316,-0.44665 0,-0.13336 -0.10583,-0.46151 -0.23519,-0.72924 -0.14332,-0.29666 -0.23518,-0.72743 -0.23518,-1.10294 0,-0.33889 -0.0553,-1.01343 -0.12279,-1.49899 -0.10202,-0.73349 -0.0894,-1.00843 0.0743,-1.6254 0.1084,-0.40843 0.24202,-1.29821 0.29694,-1.97731 0.0549,-0.6791 0.1637,-1.86972 0.24176,-2.64583 0.19252,-1.91411 0.19697,-7.75256 0.007,-8.81945 -0.35278,-1.97844 -0.42945,-2.33612 -0.73096,-3.41018 -0.0726,-0.25871 -0.17569,-0.62912 -0.22905,-0.82315 -0.52271,-1.90092 -1.59925,-4.13589 -2.56078,-5.31639 -0.48323,-0.59328 -0.74083,-0.84856 -1.64794,-1.63311 -0.1569,-0.1357 -1.0036,-0.69133 -1.88155,-1.23473 -1.27223,-0.78742 -1.62923,-1.06664 -1.75859,-1.37542 -0.13989,-0.33393 -0.4399,-0.73735 -0.92649,-1.24586 -0.0687,-0.0718 -0.3935,-0.52748 -0.72171,-1.01254 -0.95346,-1.40918 -1.57464,-2.77525 -2.01858,-4.43912 -0.0733,-0.27488 -0.19309,-0.70645 -0.2661,-0.95905 l -0.13276,-0.45929 -0.5434,0.38085 c -0.68208,0.47804 -1.25536,0.7415 -2.08213,0.95684 -0.9862,0.25687 -1.3014,0.23032 -2.54761,-0.21461 -0.22979,-0.082 -0.32338,-0.19641 -0.32338,-0.39517 0,-0.31283 0.30584,-0.37604 0.72752,-0.15036 0.13294,0.0711 0.6771,0.12935 1.20925,0.12935 0.8618,0 1.06267,-0.045 1.83784,-0.4118 0.47866,-0.22649 1.02251,-0.53905 1.20854,-0.69458 l 0.33825,-0.28279 -0.007,-1.99438 c -0.004,-1.10517 -0.0631,-2.1411 -0.13247,-2.32344 -0.0688,-0.18099 -0.1251,-0.46738 -0.1251,-0.63644 0,-0.16905 -0.0493,-0.46988 -0.10963,-0.6685 -0.0603,-0.19862 -0.17216,-0.59925 -0.24859,-0.89029 -0.0764,-0.29104 -0.18585,-0.64823 -0.24315,-0.79375 -0.26869,-0.68233 -0.33406,-0.83534 -0.61597,-1.44189 -0.16569,-0.35647 -0.50196,-0.9214 -0.74728,-1.25539 -0.24532,-0.334 -0.72719,-1.05384 -1.07082,-1.59966 -0.90653,-1.43989 -1.51864,-1.96587 -2.84419,-2.44397 -0.65003,-0.23445 -0.98421,-0.27533 -2.23426,-0.27328 -1.59335,0.003 -1.94264,0.0778 -3.64537,0.78443 -1.11617,0.46323 -5.4232,2.62708 -5.52217,2.77434 -0.0349,0.052 -0.54247,0.41504 -1.12791,0.80686 -0.58544,0.39183 -1.3646,0.98675 -1.73147,1.32205 -1.42096,1.29868 -2.55411,3.58042 -2.26532,4.56152 0.17914,0.60858 0.89166,1.45015 1.39502,1.64766 0.46317,0.18175 0.55574,0.16962 1.78472,-0.23387 0.94423,-0.31001 1.84185,-0.77751 2.78229,-1.44909 1.22863,-0.87739 2.05929,-1.07788 2.94043,-0.70972 0.81093,0.33883 2.32032,1.5956 2.9865,2.48666 0.4831,0.64617 1.13271,1.34776 1.36128,1.4702 0.15676,0.084 0.27082,-0.0454 0.61132,-0.69338 0.4988,-0.94921 0.73604,-1.18477 1.28254,-1.27345 0.48862,-0.0793 1.20466,0.22068 1.4126,0.59179 0.29701,0.53009 0.42997,1.36195 0.43454,2.7187 0.004,1.20779 -0.029,1.46649 -0.22961,1.7955 -0.1609,0.2639 -0.20215,0.44819 -0.13159,0.58796 0.26436,0.52366 0.36683,1.13347 0.36683,2.18319 0,0.62688 -0.0463,1.23167 -0.10287,1.34397 -0.0566,0.11231 -0.21007,0.42423 -0.34109,0.69316 l -0.23821,0.48898 0.32694,0.31323 c 0.60731,0.58183 0.85266,1.23791 0.88898,2.37717 0.0181,0.56945 -0.0182,1.27348 -0.0808,1.56452 -0.58107,2.70218 -0.7307,3.53697 -0.92746,5.17408 -0.20441,1.70072 -0.30029,4.81459 -0.2104,6.83275 0.1002,2.2498 0.239,3.49888 0.6781,6.10243 0.06,0.35572 0.14284,0.91134 0.18412,1.23472 0.0413,0.32338 0.12109,0.6938 0.17737,0.82315 0.0563,0.12935 0.12873,0.44685 0.161,0.70555 0.0561,0.44963 0.18152,1.1431 0.41478,2.29306 0.059,0.29104 0.14115,0.74083 0.18248,0.99954 0.12608,0.78923 0.32796,1.35231 0.48483,1.35231 0.36802,0 1.12827,-2.32246 1.29821,-3.96584 0.0416,-0.40262 0.12145,-0.70377 0.17736,-0.66921 0.16323,0.10088 0.11314,2.03294 -0.076,2.92996 -0.16717,0.79295 -0.58967,2.01079 -0.76862,2.21554 -0.0475,0.0544 -0.53762,0.2505 -1.0891,0.43581 -0.55148,0.18532 -1.2584,0.45037 -1.57094,0.58901 -0.71825,0.31859 -1.33197,0.57294 -1.97937,0.82033 -0.21887,0.0836 -0.46775,0.18832 -1.5287,0.64301 -1.85866,0.79657 -3.83659,1.65834 -4.52732,1.97253 -0.35572,0.16181 -0.91134,0.41064 -1.23472,0.55297 -0.68232,0.3003 -2.037,0.93409 -3.07923,1.44062 -0.82823,0.40252 -1.0491,0.39249 -2.8592,-0.12991 -0.22636,-0.0653 -0.62324,-0.17903 -0.88194,-0.25267 -0.70098,-0.19954 -1.96301,-0.36255 -2.25951,-0.29185 -0.63065,0.15037 0.0456,0.58884 1.62302,1.0524 0.84631,0.24871 1.18909,0.49013 1.14295,0.80499 -0.029,0.19758 -0.12912,0.25138 -0.50646,0.27205 -0.2587,0.0142 -0.92016,0.22348 -1.46991,0.46513 -1.39738,0.61424 -2.22727,0.62016 -3.70417,0.0264 -1.66113,-0.66783 -2.45358,-0.69585 -1.79324,-0.0634 0.88722,0.84974 1.8464,1.34966 3.08676,1.60882 0.38806,0.0811 0.79744,0.19566 0.90975,0.25463 0.11231,0.059 0.30718,0.10721 0.43305,0.10721 0.24056,0 0.43228,0.3796 0.2999,0.59379 -0.0784,0.12691 -0.60734,0.0683 -1.05473,-0.11687 -0.12936,-0.0535 -0.47331,-0.16232 -0.76436,-0.24174 -0.29104,-0.0794 -0.635,-0.18891 -0.76435,-0.24333 -0.12935,-0.0544 -0.52622,-0.12506 -0.88194,-0.157 -0.35572,-0.0319 -1.00395,-0.0934 -1.44051,-0.13656 -0.67131,-0.0664 -0.79375,-0.0504 -0.79375,0.10322 0,0.24963 0.2819,0.50949 0.79923,0.73673 1.32382,0.5815 1.68564,0.65089 3.2826,0.62955 l 1.50382,-0.0201 0.036,0.29615 c 0.0332,0.27234 -0.0102,0.30252 -0.53998,0.37537 -0.31683,0.0436 -1.20618,0.0641 -1.97634,0.0457 -0.92305,-0.0221 -1.51579,0.0161 -1.73919,0.11211 -0.33479,0.14386 -0.33622,0.1486 -0.11759,0.39132 0.48985,0.54381 0.86965,0.50665 4.40356,-0.43083 0.87117,-0.23111 0.93302,-0.22294 0.93302,0.12327 0,0.35853 -0.21827,0.45555 -1.70472,0.75774 -1.18755,0.24143 -2.44372,0.67879 -2.35622,0.82037 0.20041,0.32428 1.59248,0.22855 3.53178,-0.24288 1.12089,-0.27248 4.42832,-1.86637 5.59144,-2.69458 0.17847,-0.12708 0.38247,-0.23106 0.45333,-0.23106 0.0709,0 0.12884,-0.0529 0.12884,-0.11759 0,-0.0647 0.058,-0.1176 0.12884,-0.1176 0.0709,0 0.26929,-0.0994 0.44097,-0.22084 0.693,-0.49031 3.03718,-1.15617 6.66213,-1.89235 4.67839,-0.95013 6.60507,-1.72966 11.46528,-4.63888 0.87313,-0.52263 1.64042,-0.9767 1.70509,-1.00904 0.52429,-0.26214 1.31509,-0.78606 1.41111,-0.93488 0.0647,-0.10023 0.15385,-0.36745 0.19816,-0.59382 0.0443,-0.22637 0.13981,-0.6497 0.21222,-0.94074 0.21985,-0.88367 0.36849,-1.56668 0.71657,-3.29259 0.0587,-0.29104 0.15637,-0.82021 0.21705,-1.17593 0.0607,-0.35572 0.18979,-1.09655 0.28691,-1.64629 0.44405,-2.5135 0.57828,-4.13961 0.50257,-6.08823 -0.0409,-1.05254 -0.12359,-2.26962 -0.18378,-2.70463 -0.19357,-1.39905 -0.38624,-4.17836 -0.34421,-4.96548 0.0311,-0.58289 0.0827,-0.76435 0.2172,-0.76435 0.14666,0 0.1902,0.33694 0.25835,1.99908 0.0451,1.09949 0.17234,2.81928 0.2828,3.82175 0.26226,2.38006 0.26534,5.53598 0.007,7.23195 -0.27041,1.77572 -0.42479,2.7176 -0.55896,3.41018 -0.0627,0.32338 -0.16953,0.87901 -0.23752,1.23473 -0.21883,1.14488 -0.68725,3.27877 -0.92928,4.23333 -0.0574,0.22636 -0.13444,0.55709 -0.1712,0.73495 -0.0368,0.17786 -0.14387,0.32338 -0.238,0.32338 -0.0941,0 -1.03239,0.5104 -2.08502,1.13422 -1.88685,1.1182 -2.24891,1.32923 -3.11921,1.81813 -0.71956,0.40421 -0.7662,0.4668 -0.68808,0.92333 0.34167,1.99656 0.60532,3.31294 0.89593,4.47339 0.0729,0.29105 0.161,0.70164 0.19581,0.91244 0.0348,0.21079 0.11036,0.41235 0.16789,0.44791 0.0575,0.0356 0.1046,0.17683 0.1046,0.31394 0,0.13711 0.0532,0.4118 0.11824,0.61042 1.30321,3.98023 1.62888,4.90313 2.21459,6.27588 0.23573,0.55249 0.37354,1.08292 0.3868,1.48882 0.019,0.58021 -0.025,0.69478 -0.55048,1.43479 -0.55155,0.77672 -1.68616,2.27127 -1.81571,2.39173 -0.0896,0.0833 -0.59468,0.71136 -0.9414,1.17064 -0.16169,0.21418 -0.39276,0.50142 -0.51349,0.63832 -0.49226,0.55817 -2.30873,3.07491 -2.30873,3.19876 0,0.0392 -0.0996,0.21171 -0.22142,0.38338 -0.12178,0.17168 -0.33344,0.51058 -0.47037,0.75311 -0.13692,0.24254 -0.36293,0.63941 -0.50224,0.88195 -0.13931,0.24253 -0.36421,0.65263 -0.49977,0.91134 -0.13556,0.2587 -0.27302,0.49683 -0.30546,0.52916 -0.0324,0.0323 -0.13772,0.21755 -0.23395,0.41158 -0.44373,0.89468 -2.6156,4.5856 -3.21032,5.45568 l -0.35324,0.5168 0.34075,-0.0748 c 0.98421,-0.21604 1.55763,-0.34576 1.92824,-0.43623 0.22637,-0.0553 0.57033,-0.13329 0.76435,-0.17339 0.19403,-0.0401 0.45861,-0.11742 0.58797,-0.17181 0.12935,-0.0544 0.48986,-0.16877 0.80114,-0.25418 0.64526,-0.17705 0.88393,-0.42937 2.07987,-2.19878 0.81994,-1.21309 1.6356,-1.94424 2.31017,-2.07079 0.74341,-0.13946 1.23332,0.38397 0.96876,1.03506 -0.1343,0.3305 -0.76061,1.01147 -0.93482,1.01638 -0.0366,10e-4 -0.1855,0.21355 -0.3309,0.47225 -0.2386,0.42453 -0.24439,0.47037 -0.0594,0.47037 0.63182,0 2.34075,-0.87159 2.76675,-1.41111 0.19993,-0.25321 0.42493,-0.79616 0.58477,-1.41111 0.29093,-1.11927 0.48228,-1.48365 0.8385,-1.59671 0.2867,-0.091 0.66977,0.32755 0.67393,0.73635 0.002,0.18965 0.0846,0.2665 0.31624,0.29399 0.41084,0.0487 0.64386,0.66648 0.47854,1.26864 -0.0974,0.35484 -0.0796,0.42985 0.13584,0.57291 0.20374,0.13528 0.24761,0.28257 0.24615,0.82643 -9.7e-4,0.364 -0.0753,0.87314 -0.1652,1.13143 -0.11465,0.32947 -0.12829,0.53527 -0.0457,0.68961 0.49918,0.93271 -1.15872,3.62388 -2.69577,4.37589 -0.9898,0.48426 -1.38745,0.54547 -4.08833,0.62921 -2.9246,0.0907 -3.05611,0.12571 -6.64398,1.76903 -1.94876,0.89258 -2.07959,0.95061 -3.46898,1.5388 -0.12935,0.0548 -0.6056,0.21421 -1.05833,0.35434 -0.45274,0.14013 -0.91504,0.30159 -1.02734,0.35882 -0.11231,0.0572 -0.33408,0.10404 -0.49283,0.10404 -0.15875,0 -0.31773,0.0471 -0.35329,0.1046 -0.0356,0.0575 -0.23711,0.13396 -0.44791,0.16986 -0.21079,0.0359 -0.63462,0.12111 -0.94183,0.18938 -2.23639,0.49695 -3.70935,0.73818 -5.85023,0.95809 -1.71261,0.17593 -1.80648,0.17603 -3.99815,0.004 -1.89452,-0.14849 -2.76787,-0.26375 -3.61597,-0.47723 -0.27487,-0.0692 -0.69821,-0.17519 -0.94074,-0.23557 -0.24254,-0.0604 -0.65264,-0.17062 -0.91134,-0.24499 -0.25871,-0.0744 -0.72173,-0.18372 -1.02894,-0.243 -0.8997,-0.17362 -1.63835,-0.32395 -2.20486,-0.44874 -0.4948,-0.10899 -0.82031,-0.18751 -1.99907,-0.4822 -0.25871,-0.0647 -0.68204,-0.17051 -0.94074,-0.23518 -0.25871,-0.0647 -0.66881,-0.16611 -0.91135,-0.22541 -0.24253,-0.0593 -1.07597,-0.27022 -1.85208,-0.46874 -0.77611,-0.19851 -1.98078,-0.4485 -2.67704,-0.55554 -1.12926,-0.1736 -1.28794,-0.17546 -1.46991,-0.0173 -0.11218,0.0975 -0.43988,0.21322 -0.7282,0.25707 -0.28832,0.0438 -0.92332,0.21482 -1.41111,0.37992 -1.49772,0.50694 -2.26255,0.35108 -4.12015,-0.83961 -1.92737,-1.23541 -2.96606,-1.19355 -5.70378,0.22989 -1.34359,0.69859 -1.69957,0.839 -2.85162,1.12477 -0.30343,0.0753 -0.49976,0.19149 -0.49976,0.29583 0,0.0945 0.0423,0.17185 0.094,0.17185 0.14629,0 0.3764,0.73516 0.3764,1.20256 0,0.23184 -0.11907,0.64551 -0.26459,0.91928 -0.31274,0.58838 -1.03224,1.40594 -1.23729,1.40594 -0.20052,0 -0.18036,-0.38703 0.0448,-0.85908 0.17396,-0.3648 0.17386,-0.42628 -10e-4,-0.76475 -0.1909,-0.36915 -1.44679,-1.31598 -1.74554,-1.31598 -0.0876,0 -0.20959,-0.0437 -0.27104,-0.0972 -0.0614,-0.0534 -0.34983,-0.16285 -0.64087,-0.24315 -0.29105,-0.0803 -0.69168,-0.19534 -0.8903,-0.25563 -0.19862,-0.0603 -0.55322,-0.10963 -0.78801,-0.10963 -0.23479,0 -0.73374,-0.0845 -1.10878,-0.18774 -1.17516,-0.32356 -1.60165,-0.41227 -2.31378,-0.48128 -0.53763,-0.0521 -0.70369,-0.11493 -0.74761,-0.28287 -0.0545,-0.2085 -0.0716,-0.20821 -0.49621,0.008 -0.8954,0.4568 -1.05007,1.17426 -0.47124,2.18594 0.55748,0.97438 1.04838,1.39307 1.98728,1.69496 0.87424,0.28111 1.13477,0.47585 1.02373,0.76522 -0.0562,0.14644 -0.34436,0.17787 -1.63005,0.17779 -2.4456,-1.5e-4 -4.0774,-0.44358 -4.86391,-1.32175 -0.5307,-0.59253 -0.87242,-1.42094 -0.87242,-2.11492 0,-0.65359 0.19855,-1.19185 0.74125,-2.00956 l 0.45385,-0.68383 -1.93278,-1.97051 c -2.4158,-2.46296 -3.4789,-3.98295 -3.95703,-5.65767 -0.0831,-0.29104 -0.19849,-0.65071 -0.25643,-0.79928 -0.14881,-0.38157 -0.13108,-2.66457 0.0252,-3.24402 0.88178,-3.26943 4.20096,-6.53177 6.83896,-6.72185 0.30839,-0.0222 0.70526,-0.14233 0.88194,-0.26693 0.79012,-0.55717 1.33811,-0.72717 2.344,-0.72717 1.11602,0 1.24573,-0.0542 2.16614,-0.90533 0.71176,-0.65817 0.9938,-0.7782 1.69123,-0.71975 0.38224,0.032 0.48173,0.10193 0.67383,0.47344 0.26494,0.51239 0.48808,0.6072 1.10543,0.46973 0.24998,-0.0557 0.61219,-0.0586 0.80493,-0.007 0.19274,0.0521 0.54048,0.0643 0.77277,0.0271 0.37762,-0.0604 0.46815,-0.0192 0.85496,0.389 0.37706,0.39791 0.54208,0.47647 1.2851,0.61175 1.48559,0.27049 2.03257,0.74633 2.37552,2.06657 0.26894,1.03536 0.23118,2.0125 -0.12083,3.12682 -0.41297,1.30727 -0.99921,2.58111 -1.18786,2.58111 -0.20298,0 -0.19884,-0.46147 0.008,-0.89327 0.70529,-1.47232 0.92084,-2.20738 0.98398,-3.35552 0.0593,-1.07898 -0.0649,-1.67597 -0.46821,-2.25086 -0.2615,-0.37269 -1.0095,-0.79109 -1.41429,-0.79109 -0.15068,0 -0.57246,-0.0777 -0.93728,-0.17277 l -0.66333,-0.17277 -0.40795,0.40796 c -0.22438,0.22437 -0.46695,0.40796 -0.53904,0.40796 -0.0721,0 -0.23466,-0.17198 -0.36126,-0.38218 -0.1266,-0.2102 -0.32426,-0.50782 -0.43925,-0.66138 -0.11498,-0.15356 -0.23552,-0.31617 -0.26786,-0.36136 -0.0323,-0.0452 -0.28752,-0.0591 -0.56708,-0.031 -0.41148,0.0414 -0.53439,0.11022 -0.64533,0.36136 -0.25897,0.58623 -0.70185,0.74495 -1.30803,0.46876 -0.28679,-0.13067 -0.50992,-0.51877 -0.37552,-0.65317 0.0359,-0.0359 0.2476,0.0212 0.47038,0.12688 0.22278,0.10571 0.48925,0.1599 0.59217,0.1204 0.26203,-0.10055 0.23335,-0.54936 -0.0481,-0.75219 -0.26142,-0.18842 -0.31642,-0.65318 -0.0882,-0.74527 0.0808,-0.0326 7.5e-4,-0.0635 -0.17799,-0.0686 -0.41873,-0.012 -0.71593,0.15888 -1.43891,0.82713 -0.32338,0.2989 -0.76236,0.61663 -0.9755,0.70607 -0.30705,0.12883 -0.37224,0.21146 -0.31389,0.3978 0.17749,0.56676 0.18266,0.75307 0.035,1.25963 -0.21593,0.74053 -0.39042,0.68974 -0.3992,-0.1162 -0.004,-0.37019 -0.0173,-0.78363 -0.0294,-0.91877 -0.0406,-0.45227 -1.12713,-0.71102 -1.43384,-0.34146 -0.18216,0.21949 -0.008,0.95497 0.46842,1.97345 0.34088,0.72935 0.30476,0.94403 -0.0877,0.52097 -0.4243,-0.45742 -0.85046,-1.39244 -0.85046,-1.86597 0,-0.24907 -0.0493,-0.45286 -0.10956,-0.45286 -0.0602,0 -0.33807,0.18945 -0.61736,0.421 -0.27929,0.23155 -0.88515,0.66811 -1.34636,0.97014 -0.46121,0.30203 -1.09621,0.76867 -1.41111,1.03699 -0.3149,0.26832 -0.70484,0.59729 -0.86653,0.73104 l -0.29398,0.24319 0.39793,0.004 c 1.31092,0.0129 2.67405,0.75473 5.04796,2.74718 1.29913,1.09038 2.3392,1.71048 3.60874,2.15157 0.74906,0.26025 3.08934,0.29901 3.70416,0.0614 1.24527,-0.48137 2.23445,-1.24382 2.58286,-1.99082 0.082,-0.17574 0.18826,-0.3989 0.2362,-0.49592 0.0479,-0.097 0.18014,-0.19466 0.29377,-0.21699 0.17996,-0.0354 0.19738,0.0253 0.13503,0.47037 -0.0394,0.28103 -0.10038,0.80201 -0.13559,1.15773 -0.10954,1.10698 -0.34385,1.72942 -0.96313,2.55856 l -0.26151,0.35013 0.50809,0.0696 c 0.7393,0.10134 1.74273,0.44611 2.77836,0.95464 0.70643,0.34688 1.83872,1.04985 1.99907,1.24111 0.32887,0.39224 1.46539,0.82314 2.17108,0.82314 0.57777,0 1.44774,0.69045 2.52829,2.00658 0.96259,1.17244 1.83177,1.96014 2.48432,2.2514 1.02281,0.45654 2.04054,0.71737 3.81122,0.97677 2.0849,0.30543 3.20603,0.52228 4.64491,0.89841 2.53184,0.66185 3.11589,0.81106 3.64537,0.93131 0.29104,0.0661 0.74083,0.17083 0.99953,0.23273 0.50474,0.12077 1.32308,0.29479 2.17547,0.4626 0.29104,0.0573 0.75406,0.16041 1.02893,0.22913 0.27487,0.0687 0.69821,0.17436 0.94074,0.23474 0.24254,0.0604 0.65264,0.1702 0.91134,0.24405 1.48874,0.425 3.51093,0.63734 6.11482,0.64207 2.39858,0.004 4.33369,-0.22826 7.26134,-0.87291 0.30721,-0.0676 0.78346,-0.17191 1.05834,-0.23171 0.27487,-0.0598 0.68497,-0.16265 0.91134,-0.22856 0.22636,-0.0659 0.59678,-0.16945 0.82315,-0.2301 0.54155,-0.14509 1.51264,-0.47035 1.88148,-0.6302 0.16169,-0.0701 0.39981,-0.16784 0.52916,-0.21727 0.38106,-0.14561 1.18746,-0.50413 3.2926,-1.46387 0.38805,-0.17691 0.8643,-0.38917 1.05833,-0.47167 0.19403,-0.0825 0.60356,-0.26201 0.91006,-0.39889 0.30651,-0.13688 0.63411,-0.24887 0.72801,-0.24887 0.0939,0 0.20344,-0.0529 0.24341,-0.11759 0.04,-0.0647 0.19126,-0.11759 0.3362,-0.11759 0.14494,0 0.32124,-0.0577 0.39177,-0.12825 0.0773,-0.0773 0.84539,-0.14552 1.9344,-0.17174 3.825,-0.0921 5.04272,-0.42755 6.03422,-1.66223 0.30193,-0.37599 0.62507,-0.77682 0.71809,-0.89075 0.40547,-0.4966 0.10787,-0.32737 -0.62139,0.35335 -0.43477,0.40584 -0.84488,0.7201 -0.91134,0.69835 -0.0665,-0.0218 -0.13149,-0.16776 -0.14451,-0.32447 -0.0184,-0.22123 0.15272,-0.43179 0.76549,-0.94207 0.48447,-0.40343 0.88757,-0.85745 1.04403,-1.17592 0.34395,-0.70011 0.73063,-1.84365 0.6505,-1.92378 -0.1336,-0.1336 -0.26088,-0.0575 -0.26088,0.15593 0,0.43719 -0.37103,1.09413 -0.90915,1.60975 -0.3016,0.28897 -0.60406,0.50684 -0.67215,0.48414 -0.27017,-0.0901 -0.0974,-0.5583 0.40555,-1.09892 0.77368,-0.83168 0.92386,-1.22174 1.02274,-2.65631 0.0445,-0.64537 0.0223,-0.79375 -0.11846,-0.79375 -0.104,0 -0.19845,0.15266 -0.23645,0.38218 -0.16376,0.98917 -0.22994,1.19795 -0.66981,2.11319 -0.26027,0.54154 -0.96471,1.28484 -1.51808,1.60181 -0.23051,0.13205 -0.29187,0.13205 -0.37556,0 -0.15658,-0.24705 -0.12611,-0.33388 0.21331,-0.6077 0.58319,-0.47047 1.26923,-1.20193 1.40181,-1.49462 0.0722,-0.15937 0.19853,-0.43217 0.28075,-0.60622 0.20135,-0.42623 0.20868,-1.54825 0.0117,-1.78564 -0.22575,-0.27201 -0.34034,-0.14275 -0.43257,0.48794 -0.22217,1.51932 -0.96271,2.28968 -2.98972,3.11011 -0.16169,0.0654 -0.38586,0.16573 -0.49817,0.22286 -0.28693,0.14596 -0.88331,0.12936 -0.98012,-0.0273 -0.0446,-0.0721 0.0419,-0.4993 0.19214,-0.94924 0.19911,-0.59618 0.40228,-0.94335 0.74908,-1.27995 0.26172,-0.25403 0.51609,-0.46187 0.56526,-0.46187 0.0492,0 0.0894,-0.0794 0.0894,-0.17639 0,-0.24887 -0.3865,-0.21896 -0.90777,0.0703 -0.66492,0.36893 -0.93772,0.65454 -1.67379,1.75242 -1.48431,2.21392 -1.30012,2.02846 -2.31862,2.33459 -0.50636,0.15219 -1.05295,0.32117 -1.21464,0.37551 -0.9576,0.32185 -3.85534,0.86664 -6.52639,1.22701 -2.172,0.29304 -3.51695,0.52586 -6.52639,1.12973 -2.28154,0.45782 -3.19301,0.58067 -4.84554,0.65308 -1.35083,0.0592 -1.52566,0.0436 -1.82268,-0.16282 -0.68602,-0.4767 -5.49314,-2.79419 -7.79566,-3.75825 -0.22637,-0.0948 -0.50346,-0.22079 -0.61577,-0.28003 -0.1123,-0.0592 -0.3372,-0.1077 -0.49977,-0.1077 -0.16257,0 -0.29558,-0.044 -0.29558,-0.0977 0,-0.094 -0.1929,-0.20239 -0.82314,-0.46251 -0.16169,-0.0667 -0.47919,-0.20075 -0.70556,-0.29781 -0.22636,-0.0971 -1.53647,-0.63202 -2.91135,-1.18881 -3.72047,-1.5067 -3.67383,-1.48397 -3.67383,-1.79 0,-0.36175 0.14527,-0.42262 0.54428,-0.22803 0.18571,0.0906 1.34308,0.57126 2.57192,1.0682 1.22884,0.49694 2.41947,0.98301 2.64583,1.08015 0.52611,0.22578 0.93769,0.3956 1.23473,0.50944 0.12935,0.0496 0.48596,0.20125 0.79246,0.33704 0.68302,0.30261 0.77492,0.30417 1.34249,0.0227 1.99423,-0.98887 5.43647,-2.12752 8.24259,-2.72654 0.27487,-0.0587 0.75112,-0.16204 1.05833,-0.22968 0.54445,-0.11988 1.09523,-0.23272 2.23426,-0.45772 0.30721,-0.0607 0.69086,-0.13698 0.85255,-0.16954 1.45396,-0.29286 2.17288,-0.33773 3.15269,-0.19676 0.56202,0.0809 1.15414,0.18858 1.31583,0.23939 0.16169,0.0508 0.53211,0.15747 0.82315,0.23702 0.29104,0.0795 0.635,0.18775 0.76435,0.24045 1.16023,0.47272 3.56355,1.24116 4.60962,1.47389 0.88437,0.19675 2.87281,0.19304 3.35338,-0.006 0.20379,-0.0845 1.15333,-1.65218 2.13846,-3.53053 0.13568,-0.25871 0.27315,-0.49683 0.30548,-0.52917 0.0589,-0.0589 0.50896,-0.88479 0.75249,-1.3808 0.0712,-0.14501 0.16915,-0.26408 0.21765,-0.26458 0.0485,-5e-4 0.0882,-0.0564 0.0882,-0.12415 0,-0.22935 2.06452,-3.20186 2.67701,-3.85437 0.0818,-0.0872 0.2929,-0.35235 0.46907,-0.58929 0.17616,-0.23694 0.40215,-0.51017 0.50219,-0.60718 0.17233,-0.16711 1.88316,-2.44363 2.45221,-3.26302 l 0.26529,-0.38201 -0.52398,-1.32308 c -0.7466,-1.88522 -0.90076,-2.29654 -1.14467,-3.05408 -0.31643,-0.98276 -0.39762,-1.0908 -0.95635,-1.2725 -0.27884,-0.0907 -1.22135,-0.5287 -2.09448,-0.97338 -0.87312,-0.44468 -3.47828,-1.76326 -5.78923,-2.93017 l -4.20174,-2.12166 -0.85475,0.20199 c -1.92453,0.45479 -3.20515,0.93352 -4.11653,1.53886 -0.43578,0.28945 -0.81402,0.52627 -0.84052,0.52627 -0.0265,0 -0.41079,0.22082 -0.85396,0.4907 -1.50807,0.91839 -4.59106,2.21012 -5.28824,2.2157 -0.12168,9.8e-4 -0.42429,0.0725 -0.67247,0.15888 l -0.45124,0.15711 0.86281,0.77377 c 1.40716,1.26194 1.51038,1.34723 2.92069,2.41343 0.74377,0.5623 1.37877,1.05279 1.41111,1.08998 0.0323,0.0372 0.40275,0.2978 0.82315,0.57914 0.42039,0.28133 0.79081,0.54829 0.82315,0.59324 0.10537,0.14648 3.10009,2.07752 3.7127,2.39401 0.32808,0.1695 0.86323,0.4021 1.18922,0.51691 0.82955,0.29213 1.15323,0.52619 1.06079,0.76707 -0.0823,0.21444 -0.61089,0.27216 -0.72984,0.0797 -0.04,-0.0647 -0.16216,-0.11826 -0.27153,-0.11909 -0.30811,-0.002 -1.88104,-0.84217 -3.15866,-1.68656 -1.30969,-0.86558 -2.93738,-1.9959 -3.24053,-2.25034 -0.11172,-0.0938 -0.40836,-0.3063 -0.6592,-0.4723 -0.48716,-0.32238 -0.47608,-0.32275 -1.84231,0.0609 -0.2587,0.0727 -0.6688,0.18149 -0.91134,0.24187 -1.25081,0.31137 -1.47706,0.36561 -1.91088,0.4581 -0.78384,0.1671 -1.91832,0.39023 -3.58657,0.7054 -2.10228,0.39715 -3.28598,0.65096 -4.7464,1.0177 -1.24828,0.31348 -3.93259,1.17785 -4.12933,1.32969 -0.24449,0.18868 -0.70283,0.23247 -0.88012,0.0841 -0.26351,-0.22055 -3.0493,-1.11979 -4.07998,-1.31699 -1.43926,-0.27538 -1.83329,-0.23496 -2.47346,0.25368 -0.48315,0.3688 -0.61147,0.41361 -1.0045,0.35076 -0.53998,-0.0864 -0.77027,0.0242 -1.52888,0.73377 -0.90112,0.8429 -1.70896,2.02001 -2.55681,3.72553 -0.22506,0.45274 -0.43681,0.84961 -0.47056,0.88195 -0.0337,0.0323 -0.14065,0.2138 -0.23756,0.40326 -0.29777,0.58212 -1.25068,1.5404 -2.04897,2.0605 -1.06185,0.69183 -2.24826,1.08153 -3.51653,1.15509 l -1.03837,0.0602 0.0388,-0.34023 c 0.0384,-0.33678 0.0484,-0.34094 0.97957,-0.41072 1.02756,-0.077 1.21442,-0.1189 2.17546,-0.48786 0.87618,-0.33638 1.82009,-0.99083 2.52825,-1.75293 0.67908,-0.73081 0.72676,-0.80837 1.78981,-2.91079 1.53814,-3.04202 3.37121,-4.46498 5.8537,-4.54403 0.85693,-0.0273 1.06563,-0.0694 1.09668,-0.22138 0.0427,-0.20881 1.32776,-1.12502 1.57798,-1.12502 0.0876,0 0.2096,-0.0437 0.27104,-0.0971 0.17185,-0.14945 0.95787,-0.34654 1.96935,-0.4938 1.63925,-0.23867 3.44305,0.32995 4.60852,1.45275 0.63387,0.61067 0.56772,0.59842 1.76532,0.32689 1.42412,-0.32289 2.12916,-0.46982 3.46898,-0.72294 3.45182,-0.65211 5.1826,-1.0252 6.52639,-1.40686 0.25871,-0.0735 0.58944,-0.16254 0.73496,-0.19792 0.36161,-0.0879 0.33531,-0.17433 -0.17478,-0.57432 -0.87758,-0.68817 -2.22351,-1.87071 -2.97012,-2.60956 -0.75028,-0.74249 -0.77539,-0.75603 -1.43551,-0.77405 -0.72728,-0.0198 -1.02354,-0.23545 -1.0309,-0.75026 -0.002,-0.16389 -0.12449,-0.32437 -0.32712,-0.42975 -0.61129,-0.31793 -1.08566,-0.8714 -1.08904,-1.27063 -7.2e-4,-0.0851 -0.5511,-0.72437 -1.22306,-1.42061 -1.06392,-1.10234 -1.29922,-1.42332 -1.82138,-2.48452 -0.32979,-0.67026 -0.59962,-1.27872 -0.59962,-1.35215 0,-0.0734 -0.0478,-0.22539 -0.10613,-0.3377 -0.22116,-0.42549 -0.66372,-2.42746 -0.94848,-4.29053 -0.16744,-1.09548 -0.29588,-1.91014 -0.70916,-4.49792 -0.36292,-2.2724 -0.62162,-3.71657 -0.82679,-4.6155 -0.0627,-0.27488 -0.1641,-0.72467 -0.22525,-0.99954 -0.23731,-1.06672 -0.61745,-2.63015 -0.70766,-2.91042 -0.052,-0.16169 -0.16144,-0.5321 -0.2431,-0.82315 -0.21248,-0.75729 -1.04278,-3.29726 -1.19164,-3.64537 -0.0691,-0.16169 -0.17245,-0.38586 -0.22958,-0.49817 -0.0571,-0.1123 -0.10388,-0.2565 -0.10388,-0.32043 0,-0.0639 -0.16532,-0.47476 -0.36739,-0.91294 -0.79469,-1.72332 -1.54895,-3.54537 -1.83885,-4.44207 -0.16727,-0.5174 -0.40076,-1.04998 -0.51885,-1.1835 -0.1181,-0.13352 -0.21472,-0.3055 -0.21472,-0.38218 0,-0.0767 -0.044,-0.13941 -0.0977,-0.13941 -0.0537,0 -0.15414,-0.11906 -0.2231,-0.26458 -1.43406,-3.02639 -1.8347,-3.70122 -3.08924,-5.20347 -0.92776,-1.11095 -4.18833,-4.25424 -5.01081,-4.83056 -1.30558,-0.91485 -1.36067,-0.96159 -1.67386,-1.42 -0.16653,-0.24375 -0.25342,-0.55145 -0.25342,-0.89739 0,-0.43688 0.0638,-0.58886 0.3751,-0.89319 0.59074,-0.57756 1.21702,-0.49376 2.44712,0.32743 0.27813,0.18568 0.6642,0.378 1.05834,0.52722 0.097,0.0367 0.44097,0.22719 0.76435,0.42325 1.68725,1.02295 6.30051,3.15507 8.05509,3.72283 1.96444,0.63567 3.17913,1.48863 3.65637,2.56752 0.24799,0.56061 0.20969,0.78133 -0.37029,2.13436 -0.12577,0.29342 -0.22867,0.60692 -0.22867,0.69667 0,0.0897 0.48311,0.66477 1.07359,1.27784 0.59047,0.61306 1.28131,1.39514 1.53519,1.73795 0.25388,0.34281 0.52558,0.70266 0.60378,0.79968 0.44875,0.55673 0.83011,1.17495 1.49074,2.41666 0.27343,0.51395 1.52899,3.54951 1.67552,4.05093 0.0283,0.097 0.11257,-0.61736 0.18717,-1.5875 0.0746,-0.97014 0.18906,-2.42535 0.25437,-3.2338 0.15719,-1.94552 0.14861,-2.53 -0.0587,-3.99814 -0.32521,-2.30305 -0.47448,-2.75387 -1.67415,-5.05649 -1.06469,-2.0435 -1.5507,-3.01472 -1.70652,-3.41018 -0.0637,-0.16169 -0.16257,-0.38587 -0.2197,-0.49817 -0.0571,-0.11231 -0.10388,-0.28501 -0.10388,-0.38378 0,-0.0988 -0.0478,-0.27146 -0.10613,-0.38377 -0.0584,-0.1123 -0.17562,-0.44231 -0.26056,-0.73335 -0.23649,-0.81039 -0.75329,-1.72591 -1.347,-2.38626 -0.67674,-0.7527 -0.86845,-1.12421 -0.95434,-1.84943 -0.0817,-0.69017 0.0995,-1.1992 0.52667,-1.47909 0.49207,-0.32241 0.89692,-0.23359 1.62001,0.35543 0.36198,0.29487 0.85226,0.62351 1.08952,0.73031 2.05445,0.92483 2.85907,1.37985 3.66517,2.07267 1.16349,1 2.65382,2.56593 4.61637,4.85053 0.17834,0.2076 0.56198,0.52773 0.85255,0.71139 0.49139,0.31061 0.5283,0.36902 0.5283,0.83608 0,0.47089 -0.19089,0.93364 -0.69515,1.68522 -0.9193,1.37015 -1.0645,2.84852 -0.47931,4.88009 0.0745,0.2587 0.16369,0.61654 0.19816,0.79519 0.0345,0.17865 0.10949,0.35375 0.16671,0.38911 0.0572,0.0354 0.10403,0.19035 0.10403,0.3444 0,0.15406 0.0468,0.30904 0.10404,0.3444 0.0572,0.0354 0.13224,0.21047 0.16671,0.38912 0.0345,0.17865 0.11995,0.52325 0.18995,0.76579 0.30032,1.04058 0.38426,1.35202 0.49917,1.85208 0.65937,2.8696 0.85124,4.00471 1.29202,7.64352 0.0831,0.68579 0.14651,3.63704 0.1643,7.64352 l 0.029,6.52638 2.39339,1.19936 c 1.31636,0.65965 2.47633,1.20204 2.57771,1.20532 0.10138,0.003 1.08034,-0.3946 2.17546,-0.8842 2.73262,-1.22166 3.38334,-1.50615 3.87263,-1.69312 0.48223,-0.18427 0.839,-0.33387 1.41111,-0.59171 0.32338,-0.14574 0.70702,-0.31119 0.85254,-0.36767 0.54612,-0.21197 0.80892,-0.32116 1.35104,-0.56135 0.3065,-0.1358 0.60083,-0.2469 0.65407,-0.2469 0.0532,0 0.30992,-0.10298 0.57042,-0.22884 l 0.47364,-0.22884 -0.10814,-0.6825 c -0.10538,-0.66513 -0.20165,-1.18491 -0.44218,-2.3876 -0.18091,-0.90451 -0.31962,-1.63276 -0.47037,-2.46944 -0.0757,-0.4204 -0.18603,-1.02894 -0.24506,-1.35232 -0.28134,-1.54117 -0.55672,-3.6306 -0.72068,-5.46805 -0.3631,-4.06916 0.0387,-9.46199 0.98123,-13.17037 0.074,-0.29104 0.15694,-1.03394 0.18437,-1.65088 l 0.0499,-1.1217 -0.48764,-0.55399 c -0.2682,-0.30469 -0.5408,-0.55399 -0.60579,-0.55399 -0.16712,0 -0.46328,0.36731 -1.3274,1.6463 -0.68859,1.0192 -2.01957,2.39485 -2.6981,2.78865 -0.43694,0.2536 -1.27264,0.18427 -1.71528,-0.14229 -0.48457,-0.35751 -0.5541,-0.46036 -0.71587,-1.05886 -0.20633,-0.76341 -0.41175,-0.99954 -0.86952,-0.99954 -0.56073,0 -0.97135,-0.21324 -1.05539,-0.54808 -0.0391,-0.15586 -0.19383,-0.33004 -0.34381,-0.38706 -0.19476,-0.0741 -0.31654,-0.26608 -0.42617,-0.672 -0.23242,-0.86058 -0.39667,-0.99779 -1.08508,-0.90647 -0.82167,0.109 -1.32036,-0.16012 -1.61026,-0.86896 -0.15228,-0.37235 -0.13016,-1.32764 0.0625,-2.69963 0.0879,-0.62563 -0.23989,-1.35313 -1.02128,-2.26687 -0.67596,-0.79046 -1.12906,-1.65973 -1.46917,-2.8186 -0.22983,-0.78309 -0.3038,-0.9022 -0.68225,-1.0986 -0.81214,-0.42146 -1.67291,-1.8654 -1.56693,-2.62852 0.1398,-1.00669 0.20759,-1.21749 0.77085,-2.39703 0.49027,-1.02667 1.45432,-2.17271 2.50679,-2.97999 0.47348,-0.36318 0.9138,-0.70253 0.97847,-0.75412 0.0647,-0.0516 0.19697,-0.12439 0.29398,-0.16178 0.097,-0.0374 0.50115,-0.31253 0.89809,-0.61143 0.39693,-0.2989 0.76232,-0.54345 0.81197,-0.54345 0.0497,0 1.18011,-0.54502 2.51211,-1.21116 1.332,-0.66614 2.81869,-1.33403 3.30376,-1.48419 0.48507,-0.15016 1.03536,-0.31951 1.22287,-0.37634 0.53624,-0.1625 2.46161,-0.12076 3.19079,0.0692 1.47359,0.38383 2.64998,1.19861 3.35616,2.32454 0.2136,0.34056 0.73849,1.14836 1.16643,1.79512 0.79085,1.19524 1.2943,2.1526 1.2943,2.46122 0,0.0939 0.0468,0.19967 0.10404,0.23503 0.0572,0.0354 0.13157,0.21047 0.16523,0.38912 0.0336,0.17865 0.17255,0.74815 0.30866,1.26556 0.53385,2.02936 0.63403,2.70794 0.65968,4.46851 0.0141,0.97014 0.0619,1.92264 0.10624,2.11667 0.25948,1.13657 0.36284,1.51255 0.67888,2.46944 0.92262,2.79348 2.72759,5.23961 4.81025,6.5189 2.0082,1.23356 3.39524,2.43728 4.23728,3.67724 0.54627,0.80442 1.36519,2.50832 1.74028,3.62099 0.14172,0.4204 0.3027,0.87019 0.35774,0.99954 0.055,0.12935 0.1345,0.36748 0.17661,0.52917 0.0421,0.16169 0.12941,0.47919 0.19402,0.70555 0.67974,2.38151 1.05449,4.99616 1.07024,7.46713 0.007,1.13345 -0.17372,4.09815 -0.37681,6.17361 -0.49433,5.05187 -0.52313,6.80934 -0.12814,7.81991 0.0506,0.12935 0.15567,0.44685 0.23358,0.70555 0.0779,0.25871 0.184,0.57621 0.23574,0.70556 0.0517,0.12935 0.14738,0.36748 0.21252,0.52916 0.47439,1.17761 1.14398,2.33251 2.55669,4.40973 0.52783,0.77611 1.12995,1.77499 1.33806,2.21972 0.2081,0.44474 0.52803,1.02683 0.71094,1.29352 1.30887,1.90843 1.89339,4.08713 1.89099,7.04838 -0.002,2.68667 -0.46264,4.75807 -1.557,7.00425 -1.08491,2.22679 -1.7447,3.05445 -5.4953,6.89338 -3.71151,3.79893 -4.83229,5.01359 -6.27353,6.79901 -0.76544,0.94825 -1.63857,1.94137 -1.94027,2.20695 -0.30171,0.26557 -0.52318,0.51746 -0.49215,0.55974 0.031,0.0423 0.33853,0.0586 0.68335,0.0362 0.59928,-0.0389 1.66096,0.10187 2.67042,0.35416 1.05164,0.26282 1.42228,0.36448 1.6463,0.45152 0.56728,0.22041 3.883,1.19176 6.4088,1.87748 1.00247,0.27215 1.95497,0.53687 2.11666,0.58826 0.30357,0.0965 0.92444,0.26316 1.79329,0.48145 0.27487,0.0691 0.66228,0.17489 0.8609,0.23518 0.19862,0.0603 0.47331,0.10963 0.61042,0.10963 0.13711,0 0.27854,0.0473 0.31429,0.10517 0.0357,0.0578 0.26377,0.13458 0.50671,0.17052 0.24294,0.0359 0.81213,0.13223 1.26486,0.21397 1.42173,0.25669 4.87752,0.15268 5.06612,-0.15248 0.0347,-0.0561 0.16258,-0.102 0.28425,-0.102 0.12167,0 0.52865,-0.16694 0.9044,-0.37099 2.13504,-1.15941 2.18663,-1.18034 2.77509,-1.12587 0.69359,0.0642 1.28898,0.51113 1.68293,1.26332 0.15246,0.29109 0.85686,1.09885 1.56532,1.79502 1.80415,1.77282 2.30097,2.00154 4.53763,2.08902 1.62654,0.0636 2.14965,0.18318 2.65123,0.60599 0.34247,0.28869 0.58256,0.73483 0.58256,1.08252 v 0.3478 l -0.32338,-0.35247 c -0.58947,-0.64249 -1.2819,-0.86339 -3.11407,-0.99347 -2.22381,-0.15788 -2.67485,-0.37202 -4.52018,-2.14602 -0.74218,-0.71348 -1.44652,-1.48597 -1.56521,-1.71665 -0.26778,-0.52041 -0.7764,-1.0105 -1.22442,-1.1798 -0.41531,-0.15694 -0.80759,-0.05 -2.12913,0.58022 -1.96695,0.93808 -2.41875,1.09076 -3.85115,1.30145 -1.28544,0.18908 -2.64325,0.0323 -5.14468,-0.59417 -0.29104,-0.0729 -0.70163,-0.161 -0.91243,-0.19581 -0.2108,-0.0348 -0.41236,-0.11036 -0.44791,-0.16789 -0.0356,-0.0575 -0.19133,-0.1046 -0.34616,-0.1046 -0.15483,0 -0.40306,-0.0474 -0.55162,-0.10535 -0.14857,-0.0579 -0.50824,-0.16814 -0.79929,-0.24489 -0.29104,-0.0767 -0.74083,-0.19524 -0.99953,-0.26332 -0.25871,-0.0681 -0.62912,-0.17054 -0.82315,-0.22767 -0.19403,-0.0571 -1.46403,-0.41722 -2.82222,-0.80019 -1.3582,-0.38298 -2.83986,-0.80969 -3.2926,-0.94826 -0.45273,-0.13857 -1.00835,-0.30348 -1.23472,-0.36647 -0.22636,-0.063 -0.59678,-0.16797 -0.82315,-0.2333 -1.08967,-0.31448 -1.45115,-0.36967 -2.75945,-0.42128 -1.3933,-0.055 -1.98243,0.0289 -2.64981,0.37699 -0.64724,0.33763 -3.50634,3.17677 -3.35326,3.32985 0.0336,0.0336 0.18001,0.003 0.32543,-0.067 0.14543,-0.0704 0.47608,-0.16964 0.73478,-0.22054 0.72524,-0.1427 3.30219,-0.1154 4.35093,0.0461 0.5174,0.0797 1.12594,0.17359 1.35231,0.2087 0.22637,0.0351 0.59678,0.11063 0.82315,0.16783 0.22636,0.0572 0.72907,0.16481 1.11713,0.23914 0.38805,0.0743 0.89076,0.18016 1.11713,0.23518 0.22636,0.055 0.72907,0.16299 1.11713,0.23992 0.38805,0.0769 0.8643,0.18064 1.05833,0.23045 0.19403,0.0498 0.67028,0.1576 1.05833,0.23952 0.97433,0.20568 4.56185,1.1142 6.05602,1.53365 1.81229,0.50877 2.00069,0.55755 2.64584,0.6851 0.32337,0.0639 0.86981,0.17198 1.21429,0.2401 2.30753,0.45631 4.74072,-0.25798 8.49662,-2.49427 0.94572,-0.56309 1.99513,-0.54475 2.74874,0.048 0.16694,0.13131 0.59166,0.72833 0.94382,1.32671 1.16969,1.98746 2.21852,2.64212 4.64699,2.90052 2.95297,0.31421 3.46461,0.33698 3.59954,0.16021 0.17305,-0.22674 0.2419,-0.21573 0.31133,0.0498 0.0359,0.13742 0.2743,0.29431 0.63108,0.41537 0.67064,0.22756 0.84334,0.35067 1.195,0.85186 0.35471,0.50553 0.32942,0.88587 -0.0859,1.29192 -0.37452,0.36617 -1.3796,0.91087 -1.94689,1.05513 -0.63331,0.16105 -11.86362,-0.0132 -16.48791,-0.25583 -1.3015,-0.0683 -1.71197,-0.0539 -1.85533,0.0651 -0.13435,0.1115 -0.44536,0.13417 -1.15098,0.0839 -1.01373,-0.0722 -4.65049,0.0838 -6.25855,0.26844 -2.57824,0.29607 -3.74052,0.36718 -7.70232,0.47125 -6.48222,0.17028 -11.00476,0.48105 -17.05092,1.17166 -1.92887,0.22032 -2.18212,0.22606 -2.99861,0.068 z m -59.91343,-8.47602 c 0,-0.035 -0.11266,-0.18057 -0.25035,-0.32338 -0.13769,-0.14282 -0.45257,-0.56809 -0.69973,-0.94505 -0.79109,-1.20653 -0.74442,-2.27638 0.13393,-3.06991 0.66698,-0.60258 1.04744,-0.73272 1.28128,-0.43829 0.12566,0.15822 0.39906,0.25404 0.88719,0.31094 0.38805,0.0452 0.99659,0.15812 1.35231,0.25086 1.11587,0.29093 2.27834,0.51538 2.6697,0.51548 0.41367,1.1e-4 0.67417,0.0915 1.76792,0.62004 0.99376,0.48026 1.60768,1.03253 1.92274,1.72966 0.23561,0.5213 0.27942,0.56132 0.41671,0.3806 0.21961,-0.2891 0.19947,-1.26848 -0.0334,-1.62387 -0.26741,-0.40811 -1.13972,-0.98874 -1.48544,-0.98874 -0.15676,0 -0.42728,-0.13185 -0.60116,-0.29299 -0.17389,-0.16115 -0.4462,-0.32564 -0.60514,-0.36553 -0.22547,-0.0566 -0.28899,-0.14901 -0.28899,-0.42048 0,-0.3046 0.033,-0.33864 0.26459,-0.2732 0.4814,0.13601 1.55619,0.56403 1.66981,0.66498 0.19282,0.17132 2.08432,0.10906 2.65171,-0.0873 0.29105,-0.10071 1.20895,-0.52734 2.03979,-0.94806 1.77252,-0.89756 2.3663,-1.09666 3.27575,-1.09839 0.87168,-0.002 1.3818,0.19355 2.81634,1.07768 0.49496,0.30506 1.09673,0.63688 1.33728,0.73739 0.6148,0.25688 1.47169,0.22726 2.35626,-0.0815 0.73832,-0.25767 0.96713,-0.44136 0.54978,-0.44136 -0.30972,0 -1.92776,-0.53253 -2.4908,-0.81978 -0.50753,-0.25892 -1.5935,-1.27618 -2.1377,-2.00244 -0.93743,-1.25105 -1.79909,-1.92772 -2.75463,-2.16323 -1.31475,-0.32404 -1.55507,-0.42775 -2.34855,-1.01348 -1.86865,-1.37941 -4.5071,-2.28649 -5.79399,-1.99192 -0.27755,0.0635 -0.72734,0.21433 -0.99953,0.3351 -1.89835,0.84226 -4.15559,1.10412 -6.31574,0.73267 -0.48507,-0.0834 -1.17298,-0.20194 -1.5287,-0.26339 -0.35572,-0.0614 -1.00395,-0.14248 -1.44051,-0.18007 -0.72788,-0.0627 -0.79375,-0.0906 -0.79375,-0.33647 0,-0.14747 0.0707,-0.29526 0.15713,-0.32842 0.18692,-0.0717 2.19604,0.10593 3.19426,0.28245 1.15055,0.20346 3.79732,0.26278 4.52731,0.10146 2.65309,-0.5863 4.21501,-1.65861 4.79013,-3.28859 0.22204,-0.62928 0.18943,-0.63482 -0.38069,-0.0647 -0.93303,0.93303 -2.20667,1.35046 -4.11545,1.34884 -1.08283,-9.2e-4 -2.16165,-0.1728 -2.36576,-0.3769 -0.0462,-0.0462 -0.15755,-0.0841 -0.24733,-0.0841 -0.14107,0 -1.51444,-0.85899 -1.67904,-1.05018 -0.0323,-0.0376 -0.24401,-0.20711 -0.47037,-0.37678 -0.22637,-0.16967 -0.59679,-0.47573 -0.82315,-0.68013 -0.82361,-0.7437 -2.28124,-1.7938 -2.97857,-2.14581 -0.93008,-0.4695 -2.11221,-0.51458 -2.82921,-0.10789 -0.29044,0.16473 -0.49829,0.21842 -0.5696,0.14712 -0.21987,-0.21987 -0.0239,-0.55261 0.47316,-0.80351 0.27751,-0.14007 0.44949,-0.28871 0.38217,-0.33032 -0.31356,-0.19379 -0.0794,-0.55811 0.81184,-1.26307 0.51384,-0.40643 0.93717,-0.77955 0.94075,-0.82915 0.01,-0.13424 -1.1498,0.47763 -1.69454,0.89422 -0.72082,0.55126 -1.79522,1.68964 -2.28539,2.42146 -0.44575,0.66552 -0.95246,1.67105 -0.95246,1.89009 0,0.0663 -0.0482,0.21236 -0.10721,0.32466 -0.41932,0.79862 -0.42942,2.9304 -0.0188,3.96716 0.24929,0.62942 1.10529,2.29089 1.28038,2.48517 0.10887,0.12081 0.34737,0.41962 0.52998,0.66402 0.18262,0.24441 1.13042,1.24395 2.10623,2.2212 1.63135,1.63378 1.78687,1.7595 1.93162,1.56153 0.21112,-0.28871 0.2051,-1.79208 -0.009,-2.30205 -0.19657,-0.46776 -0.70509,-1.17164 -1.2688,-1.75623 -0.51243,-0.53141 -0.62167,-0.80089 -0.36464,-0.89952 0.27676,-0.1062 1.31157,1.05581 1.77041,1.98805 0.84597,1.7188 0.78306,2.70417 -0.2922,4.57658 -0.22995,0.40042 -0.33828,0.60365 -0.61888,1.16104 -0.16537,0.32851 -0.14647,1.48222 0.0294,1.79438 0.41576,0.73791 1.44422,1.40824 2.47176,1.61104 0.57312,0.11312 1.84977,0.15469 1.84977,0.0602 z m 4.14514,-7.88549 c -0.20886,-0.0948 -0.18228,-0.47876 0.039,-0.56368 0.1023,-0.0393 0.40657,-0.0716 0.67615,-0.072 0.26959,-3.2e-4 0.93995,-0.16198 1.48969,-0.35925 0.77009,-0.27633 1.31039,-0.38042 2.3537,-0.45344 1.1421,-0.0799 1.48898,-0.15395 2.21499,-0.4726 0.88157,-0.38692 1.24074,-0.39936 1.17164,-0.0406 -0.10141,0.52661 -1.98252,1.20886 -3.33309,1.20886 -0.89731,0 -2.08904,0.26321 -2.6684,0.58936 -0.23867,0.13435 -1.73112,0.25973 -1.9437,0.16329 z m 42.95069,-0.16638 c 1.11196,-0.13682 1.97293,-0.27357 2.93982,-0.46693 0.38805,-0.0776 0.91722,-0.18333 1.17592,-0.23493 0.25871,-0.0516 0.76142,-0.15487 1.11713,-0.22948 1.13248,-0.23753 2.46848,-0.45533 4.70371,-0.76681 2.8419,-0.39601 2.76208,-0.37582 2.94919,-0.74585 0.0884,-0.17475 0.35796,-0.61531 0.5991,-0.97902 0.43404,-0.65468 1.15541,-1.84707 1.15541,-1.90984 0,-0.0179 -0.44257,-0.009 -0.98348,0.0191 -1.21367,0.0637 -2.45722,-0.17018 -4.30819,-0.81026 -1.22278,-0.42285 -3.36927,-1.12573 -4.30047,-1.40822 -0.47296,-0.14348 -3.08137,-0.1412 -3.72353,0.003 -0.2758,0.062 -0.81896,0.17217 -1.20701,0.24473 -1.27226,0.23791 -2.58034,0.53235 -4.52732,1.01907 -2.44203,0.61048 -4.77864,1.38861 -6.25037,2.08149 l -0.54712,0.25758 0.37074,0.15308 c 0.62847,0.2595 1.35406,0.57661 2.75198,1.20271 1.2262,0.54919 3.66823,1.76952 4.55672,2.27708 1.04389,0.59634 1.05632,0.59737 3.52777,0.29328 z m -39.57446,-16.45275 c 0.12361,-0.23097 0.0543,-0.59648 -0.11304,-0.59648 -0.11631,0 -0.23518,0.30204 -0.23518,0.59758 0,0.29069 0.19238,0.29008 0.34822,-10e-4 z m -0.98632,-0.45229 c -0.20317,-0.19405 -0.20632,-0.1909 -0.0717,0.0717 0.0775,0.15106 0.17311,0.2424 0.21253,0.20298 0.0394,-0.0394 -0.024,-0.16301 -0.14086,-0.27465 z m 26.53873,-2.8708 1.77269,-0.60994 -0.44121,-0.38139 c -0.49601,-0.42877 -1.35961,-0.86817 -1.7063,-0.86817 -0.12624,0 -0.26223,-0.0529 -0.3022,-0.11759 -0.11784,-0.19066 -0.466,-0.13513 -0.73726,0.11759 -0.32723,0.30486 -0.85428,0.29955 -1.25111,-0.0126 -0.32101,-0.25251 -0.46395,-0.25407 -1.36302,-0.0149 -0.89883,0.23915 -2.30929,1.03381 -1.99358,1.1232 0.094,0.0266 1.07048,0.34276 2.16997,0.70255 1.09949,0.35979 2.01713,0.65798 2.0392,0.66265 0.0221,0.005 0.83784,-0.26598 1.81282,-0.60145 z m 36.10835,-7.59402 c -0.49132,-0.42248 -2.62772,-1.89923 -3.44787,-2.38329 -1.00376,-0.59241 -1.43098,-0.83504 -1.94028,-1.10192 -0.2587,-0.13556 -0.49683,-0.27543 -0.52917,-0.31081 -0.0323,-0.0354 -0.37629,-0.21439 -0.76435,-0.39778 -0.38805,-0.18339 -1.15875,-0.55693 -1.71266,-0.83009 -1.00196,-0.49412 -1.01057,-0.49596 -1.68693,-0.36091 -0.55687,0.1112 -0.64885,0.16146 -0.50854,0.27791 0.0942,0.0782 2.20271,1.16895 4.68555,2.4239 2.48284,1.25495 4.80529,2.44059 5.16101,2.63476 0.35572,0.19417 0.75259,0.35679 0.88194,0.36138 0.19866,0.007 0.17711,-0.0416 -0.1387,-0.31315 z m -0.0389,-1.60514 c -0.079,-0.26413 -0.18593,-0.61254 -0.23765,-0.77423 -0.0517,-0.16169 -0.13039,-0.47919 -0.17483,-0.70556 -0.0444,-0.22636 -0.13159,-0.62324 -0.19368,-0.88194 -0.27393,-1.14151 -0.56513,-2.72165 -0.64505,-3.50026 -0.0383,-0.37292 -0.11001,-0.70301 -0.15941,-0.73354 -0.0494,-0.0305 -0.47954,0.14477 -0.95587,0.38956 -1.50341,0.77261 -3.21413,1.4001 -5.01676,1.84014 -0.47196,0.11521 -0.83751,0.23008 -0.81232,0.25527 0.0252,0.0252 0.64946,0.3549 1.38728,0.7327 1.68432,0.86244 2.38354,1.23504 2.45862,1.31011 0.0643,0.0643 0.42089,0.27189 1.05833,0.61608 0.22637,0.12223 1.07303,0.68367 1.88148,1.24764 1.56115,1.08906 1.67964,1.10621 1.40986,0.20403 z m -29.88758,-3.18724 c 0.15465,-0.33942 0.56195,-0.5268 1.1451,-0.5268 0.22216,0 0.40392,-0.0202 0.40392,-0.045 0,-0.0247 -0.21167,-0.25662 -0.47037,-0.51533 -0.50979,-0.50979 -0.58858,-0.86491 -0.28731,-1.29502 0.24955,-0.35629 0.83657,-0.342 1.87532,0.0457 1.32224,0.49345 2.43946,0.76868 2.8609,0.70478 0.50771,-0.077 1.7835,-0.57162 1.7835,-0.69149 0,-0.0509 -0.0926,-0.12295 -0.20579,-0.16018 -1.21162,-0.39858 -1.83291,-1.09752 -1.54238,-1.73516 0.25509,-0.55987 0.7868,-0.64053 2.33613,-0.3544 l 0.41157,0.076 -0.47037,-0.32336 c -0.2587,-0.17785 -0.6859,-0.54135 -0.94933,-0.80777 -1.4029,-1.41885 -1.88113,-2.73652 -3.35538,-9.24506 -0.26522,-1.1709 -0.5737,-2.34355 -0.70522,-2.68076 -0.0579,-0.14857 -0.10534,-0.3968 -0.10534,-0.55163 0,-0.15483 -0.0529,-0.31421 -0.1176,-0.35418 -0.0647,-0.04 -0.11759,-0.22518 -0.11759,-0.41158 0,-0.18639 -0.0529,-0.3716 -0.11759,-0.41157 -0.0647,-0.04 -0.11759,-0.20256 -0.11759,-0.36131 0,-0.15875 -0.0478,-0.38053 -0.10614,-0.49283 -0.0584,-0.11231 -0.17246,-0.44232 -0.25353,-0.73336 -0.31814,-1.14207 -1.18573,-3.68546 -1.75875,-5.15588 -0.54476,-1.39792 -0.95342,-2.26535 -1.76934,-3.75561 -0.47112,-0.86049 -1.89388,-2.67737 -3.14549,-4.0168 -0.97129,-1.03945 -1.19824,-1.34953 -1.19824,-1.6372 0,-0.19519 0.0466,-0.38369 0.10356,-0.41889 0.0569,-0.0352 0.13023,-0.18384 0.16284,-0.33032 0.0326,-0.14647 0.19131,-0.61897 0.35268,-1.04998 l 0.29339,-0.78366 -0.27011,-0.45296 c -0.43165,-0.72384 -1.4945,-1.4295 -3.1118,-2.066 -0.16169,-0.0636 -0.38587,-0.16244 -0.49817,-0.21957 -0.11231,-0.0571 -0.30762,-0.10387 -0.43404,-0.10387 -0.12641,0 -0.26254,-0.0529 -0.30251,-0.11759 -0.04,-0.0647 -0.16511,-0.11759 -0.27807,-0.11759 -0.47885,0 -5.31864,-2.22181 -6.34544,-2.91301 -0.17295,-0.11642 -0.47321,-0.28209 -0.66723,-0.36815 -0.19403,-0.0861 -0.44467,-0.20321 -0.55697,-0.26034 -0.11231,-0.0571 -0.27609,-0.10387 -0.36395,-0.10387 -0.0879,0 -0.26057,-0.112 -0.38377,-0.24888 -0.45743,-0.50819 -1.22614,-0.9519 -1.52095,-0.8779 -0.32753,0.0822 -0.87853,0.59658 -0.87853,0.82015 0,0.23419 0.36607,0.59144 0.82445,0.80457 0.22708,0.10559 0.62396,0.36324 0.88194,0.57256 1.00997,0.81944 4.86955,4.80569 5.59659,5.78027 0.72778,0.97555 0.97,1.36363 1.57376,2.5214 0.14167,0.27166 0.43984,0.72145 0.66259,0.99953 0.50054,0.62487 1.05843,1.75424 1.4406,2.91626 0.25843,0.78578 0.95932,2.48887 1.71799,4.17453 0.42723,0.94923 0.55928,1.26275 0.76771,1.82269 0.10834,0.29104 0.24226,0.635 0.2976,0.76435 0.0553,0.12935 0.21611,0.6056 0.35727,1.05833 0.14116,0.45274 0.2966,0.92899 0.34541,1.05834 0.0488,0.12935 0.15385,0.47331 0.2334,0.76435 0.0795,0.29104 0.18721,0.66146 0.23926,0.82315 0.0871,0.27046 0.28087,1.05986 0.75066,3.0574 0.36912,1.56948 1.10872,5.67562 1.47207,8.17269 0.0753,0.51741 0.18554,1.23178 0.24501,1.5875 0.0595,0.35572 0.13355,0.83197 0.16462,1.05833 0.0789,0.57475 0.27569,1.60677 0.42602,2.23426 0.0697,0.29104 0.15608,0.67534 0.1919,0.85399 0.0358,0.17865 0.11193,0.35375 0.16915,0.38911 0.0572,0.0354 0.10404,0.14113 0.10404,0.23503 0,0.18148 0.37807,1.08951 0.65755,1.57928 0.57238,1.00304 1.28005,2.11666 1.34507,2.11666 0.042,0 0.13705,-0.13335 0.21132,-0.29634 z m 12.81575,-4.31486 0.97737,-0.47703 -0.507,-0.29004 c -0.27886,-0.15952 -1.22138,-0.63255 -2.09451,-1.05119 -0.87312,-0.41863 -1.66687,-0.80261 -1.76389,-0.85329 -0.15215,-0.0795 -0.18669,-0.98699 -0.25137,-6.60585 -0.0412,-3.58254 -0.13207,-7.01642 -0.20184,-7.63084 -0.0698,-0.61442 -0.18032,-1.59338 -0.24566,-2.17546 -0.15742,-1.40239 -0.42207,-3.01902 -0.70745,-4.32153 -0.0673,-0.30721 -0.17131,-0.78346 -0.2311,-1.05833 -0.0598,-0.27487 -0.16564,-0.69821 -0.23519,-0.94074 -0.31108,-1.08474 -0.382,-1.33935 -0.44266,-1.58924 -0.0356,-0.14648 -0.11126,-0.29512 -0.16821,-0.33032 -0.057,-0.0352 -0.10355,-0.16743 -0.10355,-0.29384 0,-0.12641 -0.0517,-0.32173 -0.11491,-0.43403 -0.19503,-0.34655 -0.69339,-1.9707 -0.88176,-2.87362 -0.21182,-1.01535 -0.23135,-2.07025 -0.0468,-2.52851 0.27711,-0.68812 0.63368,-1.40427 0.9249,-1.85762 0.3068,-0.47759 0.51451,-0.89214 0.63339,-1.26412 0.047,-0.14716 0.002,-0.20578 -0.15906,-0.20578 -0.1427,0 -0.81793,-0.67279 -1.84839,-1.84171 -3.22953,-3.66345 -3.92044,-4.22209 -6.85644,-5.54392 -0.29104,-0.13103 -0.73285,-0.41464 -0.98181,-0.63024 -0.24895,-0.2156 -0.66071,-0.5112 -0.91502,-0.65688 -0.43458,-0.24896 -0.47984,-0.25345 -0.75269,-0.0747 -0.51909,0.34012 -0.32984,0.97964 0.688,2.3248 0.58433,0.77224 1.02078,1.53777 1.02078,1.79042 0,0.0918 0.0468,0.25875 0.10404,0.37106 0.0572,0.11231 0.22092,0.57461 0.36377,1.02734 0.2584,0.81897 0.68769,1.72334 2.14906,4.52731 0.86287,1.65562 1.29458,2.82998 1.57782,4.29213 0.13066,0.67449 0.0996,5.87199 -0.0495,8.26975 -0.0949,1.52742 -0.1717,2.08712 -0.30667,2.23626 -0.16263,0.1797 -0.1451,0.30671 0.18136,1.31405 0.19876,0.61332 0.40144,1.22096 0.4504,1.35031 0.049,0.12935 0.1541,0.47331 0.23365,0.76435 0.0795,0.29105 0.18528,0.66146 0.23495,0.82315 0.0497,0.16169 0.15551,0.53211 0.23519,0.82315 0.0797,0.29104 0.18551,0.66146 0.23518,0.82315 0.17033,0.55442 0.46889,1.64913 0.70556,2.58703 0.0734,0.29105 0.17861,0.68792 0.23371,0.88195 0.0551,0.19403 0.45302,1.78153 0.88428,3.52778 0.92351,3.73948 1.25269,4.52436 2.36328,5.63496 0.55215,0.55214 1.02746,0.87716 1.97436,1.35008 1.14565,0.57218 1.24714,0.65006 1.24714,0.95695 0,0.2991 0.0462,0.33913 0.44098,0.38222 0.64917,0.0708 0.92628,-0.002 2.00631,-0.5294 z m 6.98872,-31.04875 c 0.14333,-0.0808 0.4282,-0.30574 0.63306,-0.49976 0.20485,-0.19403 0.61031,-0.54907 0.90101,-0.78897 0.48436,-0.39972 1.13627,-1.34737 1.146,-1.66589 0.002,-0.0727 0.23847,-0.44968 0.52499,-0.83774 1.15995,-1.571 1.4515,-2.03042 1.64349,-2.5898 0.23251,-0.67743 0.18343,-1.43821 -0.15167,-2.35092 -0.11909,-0.3244 -0.19476,-0.65512 -0.16815,-0.73496 0.0266,-0.0798 -0.009,-0.14515 -0.079,-0.14515 -0.17813,0 -0.15982,-0.55587 0.0221,-0.67031 0.42916,-0.27001 0.53,-1.10147 0.30819,-2.54096 -0.19819,-1.28615 -0.43124,-1.59983 -1.19338,-1.60629 -0.41865,-0.004 -0.46874,0.0384 -0.95814,0.8019 -0.28402,0.4431 -0.53546,0.90612 -0.55876,1.02894 -0.075,0.39532 -0.68833,0.35229 -1.12974,-0.0793 -0.20933,-0.20466 -0.3806,-0.42244 -0.3806,-0.48396 0,-0.40289 -1.32909,-1.87758 -2.32287,-2.57733 -1.54877,-1.09054 -2.26303,-1.06346 -4.04013,0.15319 -0.95155,0.65146 -1.9732,1.14668 -3.1032,1.5042 -0.72821,0.23041 -0.75258,0.27286 -0.55763,0.97159 0.0947,0.3395 0.19763,0.75475 0.22866,0.92277 0.031,0.16802 0.17399,0.45292 0.31766,0.63311 l 0.26123,0.32761 0.40421,-0.35439 c 0.78172,-0.6854 1.26086,-0.87452 2.37104,-0.93586 0.88977,-0.0492 1.03178,-0.0312 1.03178,0.1305 0,0.19584 -0.0725,0.21108 -1.17593,0.24729 -0.70723,0.0232 -1.33506,0.29429 -1.99907,0.86315 -0.31016,0.2657 -0.3826,0.39358 -0.29399,0.51892 0.55437,0.78416 0.84476,1.14242 0.96726,1.19332 0.19761,0.0821 0.87195,-0.21345 1.29042,-0.56557 0.19018,-0.16003 0.44647,-0.51918 0.56952,-0.7981 0.24408,-0.55329 0.41108,-0.72609 0.5589,-0.57828 0.13048,0.13049 -0.42148,1.30563 -0.75985,1.61777 -0.3265,0.30118 -1.1047,0.7461 -1.30691,0.7472 -0.1798,9.8e-4 -0.26553,3.46273 -0.0967,3.90667 0.15835,0.41649 0.53699,0.48711 0.72529,0.13528 0.12929,-0.24158 0.23636,-0.27977 0.78442,-0.27977 0.62303,0 0.63402,-0.006 0.5975,-0.32338 -0.023,-0.19986 -0.13827,-0.36771 -0.3018,-0.43945 -0.40774,-0.17889 -0.33453,-0.43484 0.11188,-0.39114 0.75389,0.0738 1.0547,1.25323 0.38461,1.508 -0.27665,0.10518 -0.40735,0.35153 -0.18651,0.35153 0.0573,0 0.19536,0.19212 0.30679,0.42693 l 0.20259,0.42692 1.10433,-0.0578 c 0.96134,-0.0503 1.10409,-0.0332 1.10255,0.13164 -0.002,0.22784 -0.27483,1.03437 -0.38801,1.14754 -0.16845,0.16846 -0.0682,0.34727 0.26516,0.47312 0.28666,0.1082 0.37987,0.24828 0.54533,0.81953 0.33067,1.14164 1.12967,1.70827 1.84215,1.30638 z m -3.04073,-2.72989 c 0.28352,-0.43272 0.23926,-0.53702 -0.19227,-0.45307 -0.44116,0.0858 -0.55306,0.20938 -0.47164,0.52075 0.0817,0.31259 0.43858,0.27622 0.66391,-0.0677 z m -1.01786,-0.60435 c -0.0391,-0.0391 -0.1405,-0.0433 -0.22539,-0.009 -0.0938,0.0375 -0.0659,0.0654 0.071,0.071 0.12397,0.005 0.19342,-0.0227 0.15435,-0.0618 z m 12.26147,21.82568 c 0,-0.29289 0.0465,-0.45553 0.1176,-0.41158 0.0647,0.04 0.11759,0.22518 0.11759,0.41158 0,0.18639 -0.0529,0.3716 -0.11759,0.41157 -0.0711,0.044 -0.1176,-0.11868 -0.1176,-0.41157 z m -0.10902,-3.38493 c -0.18552,-2.66732 -0.0373,-10.97182 0.19722,-11.04973 0.11641,-0.0387 0.14699,1.30937 0.14699,6.48042 0,3.59108 -0.0448,6.55696 -0.0997,6.59084 -0.0548,0.0339 -0.16486,-0.87581 -0.24455,-2.02153 z m -14.15437,-32.4452 c -0.0309,-0.0519 -0.0285,-0.61163 0.005,-1.2438 0.0547,-1.01974 0.10293,-1.21763 0.42765,-1.75425 0.38882,-0.64256 1.0355,-1.22905 1.42433,-1.29176 0.41337,-0.0667 0.26424,0.32054 -0.28513,0.74037 -0.71299,0.54486 -1.05659,1.25414 -1.07559,2.22031 -0.008,0.4204 -0.0509,0.89272 -0.0947,1.04962 -0.082,0.29351 -0.30229,0.4467 -0.4019,0.27951 z m 13.83165,-2.59325 c -0.45841,-1.31782 -1.54868,-2.83548 -2.18119,-3.03623 -0.21913,-0.0695 -0.28324,-0.34377 -0.10598,-0.45332 0.17039,-0.10531 0.76441,0.25028 1.30875,0.78345 0.52406,0.51331 1.41016,2.18767 1.41016,2.66463 0,0.30125 -0.33034,0.33298 -0.43174,0.0415 z"
       id="path48" /></g></svg>
