<?xml version="1.0" encoding="UTF-8" standalone="no"?>
<!-- Created with Inkscape (http://www.inkscape.org/) -->

<svg
   width="193.45206mm"
   height="140.1844mm"
   viewBox="0 0 193.45206 140.1844"
   version="1.1"
   id="svg1"
   xml:space="preserve"
   xmlns="http://www.w3.org/2000/svg"
   xmlns:svg="http://www.w3.org/2000/svg"><defs
     id="defs1" /><g
     id="layer1"
     transform="translate(13.852678,-674.41456)"><path
       style="fill:#4d4d4d"
       d="m 27.806758,814.28758 c -0.23773,-0.23772 -2.11148,-0.34688 -6.86594,-0.39997 -7.80032,-0.0871 -8.97106,-0.28111 -10.2519,-1.69885 -0.50375,-0.55759 -1.1319004,-1.01381 -1.3958804,-1.01381 -0.26398,0 -0.73556,-0.23812 -1.04796,-0.52916 -0.3124,-0.29105 -0.67377,-0.52917 -0.80305,-0.52917 -0.31999,0 -2.16832,-1.81515 -2.16832,-2.1294 0,-0.13852 -0.16038,-0.25185 -0.35639,-0.25185 -0.45603,0 -1.49569,-0.89516 -1.49569,-1.28781 0,-0.16483 -0.27855,-0.29969 -0.61899,-0.29969 -0.78947,0 -1.25582,-0.93553 -0.91951,-1.84461 0.28915,-0.7816 0.67102,-1.05631 1.47594,-1.06176 0.3294,-0.002 0.81635,-0.13985 1.08213,-0.30582 0.46461,-0.29016 0.46516,-0.33856 0.0143,-1.25677 -0.90674,-1.84679 -1.11789,-3.0995 -0.96223,-5.70858 0.0828,-1.38735 0.06,-2.52246 -0.0505,-2.52246 -0.11057,0 -0.36416,-0.49429 -0.56354,-1.09842 -0.23339,-0.70716 -1.07313,-1.85153 -2.35745996,-3.21264 -1.09721,-1.16282 -2.27166004,-2.6033 -2.60988004,-3.20106 -0.33822,-0.59776 -0.72518,-1.12653 -0.8599,-1.17503 -0.13472,-0.0485 -0.24495,-0.20135 -0.24495,-0.33965 0,-0.1383 -0.34828,-0.5919 -0.77395,-1.00801 -0.75621,-0.73922 -1.87188,-2.63646 -1.87188,-3.1832 0,-0.15098 -0.4023,-0.84034 -0.894,-1.5319 -0.4917,-0.69156 -0.984,-1.55504 -1.094,-1.91884 -0.10999,-0.3638 -0.27944,-0.72099 -0.37655,-0.79375 -0.39437,-0.29548 -1.07504,-2.11658 -1.07504,-2.87621 0,-0.44652 -0.23812,-1.23582 -0.52916,-1.754 -0.2910396,-0.51817 -0.5291696,-1.18446 -0.5291696,-1.48065 0,-0.29618 -0.12803,-0.77774 -0.28452,-1.07014 -0.52076,-0.97305 -0.86699,-4.80367 -0.8695,-9.62004 -0.002,-4.85312 0.27572,-7.58811 1.03634,-10.18646 0.23429,-0.80036 0.4898896,-1.72486 0.5679996,-2.05443 0.0781,-0.32957 0.24688,-0.66402 0.37502,-0.74322 0.12815,-0.0792 0.23299,-0.44225 0.23299,-0.80679 0,-0.99345 1.20847,-3.44093 2.39209,-4.84463 0.57612,-0.68325 1.0475,-1.37496 1.0475,-1.53714 0,-0.37439 1.59436,-2.06338 2.10314,-2.22798 0.3112,-0.10067 0.27385,-0.27781 -0.19843,-0.94107 -0.31999,-0.44938 -0.58001,-0.97726 -0.57782,-1.17308 0.003,-0.30597 0.84251,-1.30474 3.46666,-4.12634 0.30451004,-0.32743 0.77928004,-0.59532 1.05505004,-0.59532 0.27577,0 0.5014,-0.11906 0.5014,-0.26458 0,-0.14552 0.26911,-0.26458 0.59800996,-0.26458 0.72868,0 2.04782,-1.16794 2.04782,-1.8131 0,-0.25782 -0.23613,-0.95749 -0.52473,-1.55484 -0.28861,-0.59734 -0.5072,-1.54244 -0.48577,-2.10021 0.0214,-0.55778 -0.11779,-1.3801 -0.3094,-1.82738 -0.58305,-1.36101 0.0202,-2.64877 1.67524,-3.57622 0.67197,-0.37655 0.7552,-0.57325 0.79302,-1.87418 0.0355,-1.22139 0.18066,-1.61893 0.90902,-2.48971 1.36991,-1.63779 1.71551,-1.96228 2.08996,-1.96228 0.52925,0 0.42275,0.43294 -0.27917,1.13486 -0.34636,0.34636 -0.71157,0.88756 -0.81158,1.20265 -0.10001,0.3151 -0.29287,0.57291 -0.42859,0.57291 -0.13571,0 -0.23878,0.74414 -0.22905,1.65364 l 0.0177,1.65365 0.33839,-1.0809 c 0.18612,-0.5945 0.66838,-1.75535 1.07169,-2.57969 0.70877,-1.44868 1.20035,-1.9064 1.20035,-1.11768 0,0.51288 -1.31596,4.16422 -1.65058,4.57983 -0.41332,0.51334 0.0415,0.39364 1.29452,-0.34066 1.16584,-0.68322 2.2081504,-2.35893 2.2081504,-3.55002 0,-0.51629 -0.1869304,-0.74022 -1.4552104,-1.74331 -0.37793,-0.2989 -0.43329,-0.45833 -0.19371,-0.55782 0.42005,-0.17442 0.83987,-0.59618 1.51663,-1.52363 0.2910404,-0.39885 1.0649404,-1.03397 1.7197904,-1.41136 1.66806,-0.96132 2.11579,-1.38885 2.12248,-2.02671 0.003,-0.30486 0.2355,-1.06032 0.51623,-1.67878 0.40079,-0.88298 0.65119,-1.12448 1.16591,-1.12448 0.36052,0 0.84591,0.19042 1.07865,0.42315 0.3365,0.33651 0.5022,0.35754 0.80921,0.10275 0.47533,-0.39449 1.68112,-0.13053 1.88998,0.41375 0.12035,0.31364 0.28494,0.25069 0.80131,-0.30649 0.45217,-0.4879 0.73402,-0.61704 0.92653,-0.42452 0.19252,0.19251 0.55139,0.12238 1.17978,-0.23057 1.14173,-0.64127 1.44589,-0.63585 2.30653,0.0411 0.59201,0.46568 0.69748,0.75495 0.69943,1.91823 0.002,1.20644 0.11489,1.48865 0.94606,2.36561 0.51908,0.54766 1.29195,1.17579 1.7175,1.39586 0.42555,0.22006 0.77373,0.51611 0.77373,0.6579 0,0.14178 0.24287,0.25778 0.53971,0.25778 0.7568,0 2.43294,0.89851 3.33232,1.78631 1.27854,1.26208 2.64801,1.76076 4.85922,1.76945 1.95517,0.008 3.14562,-0.29422 5.72549,-1.45199 0.60241,-0.27034 1.43584,-0.57628 1.85208,-0.67986 0.41625,-0.10358 1.14532,-0.40565 1.62017,-0.67125 0.47485,-0.26561 1.36782,-0.55287 1.98437,-0.63836 1.20258,-0.16675 2.23056,-0.57391 2.79356,-1.10648 0.58731,-0.55557 2.21662,-0.39123 3.27908,0.33073 0.53539,0.3638 1.14638,0.66145 1.35777,0.66145 0.21139,0 1.01818,0.47625 1.79286,1.05834 0.84149,0.63229 1.69927,1.05833 2.13078,1.05833 0.68761,0 1.12536,0.13888 3.03612,0.96322 0.45855,0.19784 1.12624,0.3597 1.48374,0.3597 1.00806,0 4.19375,1.75347 5.22315,2.87492 0.50932,0.55488 1.31299,1.16149 1.78593,1.34803 0.47295,0.18654 0.8599,0.44378 0.8599,0.57165 0,0.12786 0.12747,0.23248 0.28326,0.23248 0.24108,0 2.76132,1.9257 3.15632,2.41174 0.0728,0.0895 0.3887,0.24273 0.70208,0.34045 0.31338,0.0977 0.76201,0.58278 0.99696,1.0779 0.23495,0.49512 1.03738,1.56788 1.7832,2.38392 1.32712,1.45209 1.99464,2.52673 3.6733,5.91375 l 0.83102,1.67673 0.57078,-0.50536 c 0.31393,-0.27795 1.22563,-0.91154 2.02599,-1.40797 0.80037,-0.49643 1.67182,-1.09961 1.93656,-1.34039 0.26474,-0.24078 0.80534,-0.50259 1.20135,-0.58179 0.396,-0.0792 1.33739,-0.56868 2.09196,-1.08774 0.75458,-0.51906 1.4423,-0.94374 1.52828,-0.94374 0.086,0 0.53534,-0.26819 0.99857,-0.59598 0.85732,-0.60664 1.02837,-0.71817 3.05035,-1.98879 0.63238,-0.39739 1.7505,-1.1037 2.48471,-1.56959 0.734212,-0.46589 1.705102,-0.91931 2.157522,-1.0076 0.45242,-0.0883 1.12023,-0.28858 1.48404,-0.4451 1.26446,-0.544 1.72881,-0.70504 3.30729,-1.14701 0.87312,-0.24447 1.93269,-0.55122 2.35458,-0.68167 0.4219,-0.13045 1.77963,-0.23718 3.01718,-0.23718 1.86477,0 2.49522,0.11597 3.6815,0.67717 0.78727,0.37244 1.38432,0.81892 1.32677,0.99218 -0.0696,0.20966 -1.02662,0.34174 -2.86109,0.39488 -1.51604,0.0439 -2.86955,0.19275 -3.0078,0.33073 -0.13824,0.13798 -0.59099,0.25088 -1.0061,0.25088 -1.2661,0 -4.48289,0.79607 -5.95967,1.47486 -0.76796,0.35299 -1.48991,0.6418 -1.60434,0.6418 -0.11442,0 -1.27203,0.53306 -2.572452,1.18456 -1.30043,0.65151 -2.6238,1.18729 -2.94083,1.19063 -0.31703,0.003 -0.73375,0.15518 -0.92604,0.33743 -0.1923,0.18225 -0.82588,0.5687 -1.40796,0.85877 -0.58209,0.29008 -1.41385,0.76604 -1.84836,1.0577 -1.17777,0.79055 -2.00117,1.19175 -2.44592,1.19175 -0.21853,0 -0.96501,0.41672 -1.65885,0.92604 -0.69383,0.50932 -1.35019,0.92604 -1.45856,0.92604 -0.10837,0 -0.89474,0.47625 -1.74749,1.05833 -0.85276,0.58209 -1.77632,1.05834 -2.05238,1.05834 -0.27605,0 -0.84294,0.17786 -1.25976,0.39524 -1.07735,0.56188 -1.80906,0.49403 -2.66132,-0.24676 l -0.74236,-0.64527 1.48517,0.14938 c 0.9668,0.0973 1.54942,0.0454 1.66926,-0.14848 0.10125,-0.16382 0.41441,-0.29786 0.69591,-0.29786 0.44585,0 0.36711,-0.23078 -0.61093,-1.79054 -0.61751,-0.9848 -1.35412,-2.24288 -1.63692,-2.79575 -0.2828,-0.55286 -1.07514,-1.60902 -1.76077,-2.34701 -0.68562,-0.73799 -1.40674,-1.65279 -1.60248,-2.03289 -0.50851,-0.98744 -0.99668,-1.4497 -2.27413,-2.15345 -0.61847,-0.34071 -1.12448,-0.7042 -1.12448,-0.80775 0,-0.10356 -0.62508,-0.5855 -1.38907,-1.07098 -0.76398,-0.48548 -1.42875,-0.97414 -1.47725,-1.08591 -0.0485,-0.11177 -0.23351,-0.20322 -0.41112,-0.20322 -0.17761,0 -0.73323,-0.42454 -1.23472,-0.94343 -0.50149,-0.51888 -1.32852,-1.13775 -1.83784,-1.37527 -0.50933,-0.23752 -0.98558,-0.51074 -1.05834,-0.60716 -0.30792,-0.40804 -1.8837,-1.04289 -2.58859,-1.04289 -0.41954,0 -0.8418,-0.079 -0.93837,-0.17557 -0.22043,-0.22044 -2.8316,-1.14735 -3.23215,-1.14735 -0.20484,0 -0.25966,0.64726 -0.17648,2.08403 0.30201,5.21718 -2.10517,7.31939 -8.74097,7.63351 -1.27331,0.0603 -2.3151,0.22021 -2.3151,0.3554 0,0.1352 0.11906,0.24581 0.26458,0.24581 0.14552,0 0.26458,0.15784 0.26458,0.35075 0,0.42185 1.10045,1.50133 1.53049,1.50133 0.16817,0 0.56337,0.34844 0.87823,0.77431 0.31486,0.42587 1.09844,1.15203 1.74129,1.61369 0.64285,0.46166 1.43955,1.13135 1.77043,1.4882 1.13807,1.22735 5.9997,1.81763 8.31849,1.00999 1.70968,-0.59548 2.37214,0.0545 0.77618,0.76161 -1.50646,0.66742 -1.87094,0.73449 -3.96619,0.72988 -1.1292,-0.002 -2.05308,0.0319 -2.05308,0.0763 0,0.0445 0.83177,0.96199 1.84837,2.03894 1.01661,1.07695 1.85005,2.0922 1.85209,2.2561 0.002,0.1639 0.96632,0.53975 2.14286,0.83521 l 2.13916,0.53722 -0.19168,-0.70293 c -0.36097,-1.32378 -0.0584,-2.95188 0.54861,-2.95188 0.30388,0 0.39265,0.37121 0.39545,1.65365 0.005,2.20365 0.19993,2.81887 0.95404,3.00814 0.34642,0.0869 0.62985,0.26423 0.62985,0.39398 0,0.12974 0.16121,0.2359 0.35824,0.2359 0.19703,0 0.66259,0.28206 1.03458,0.62681 0.37199,0.34475 1.01343,0.71142 1.42543,0.81482 0.75341,0.1891 3.32321,1.88631 3.48765,2.30342 0.0485,0.12303 0.1997,0.2237 0.33599,0.2237 0.13628,0 0.69191,0.2782 1.23472,0.61823 0.54281,0.34003 1.58224,0.83983 2.30984,1.11067 0.72761,0.27083 1.79917,0.75264 2.38125,1.07068 0.58208,0.31804 1.62353,0.76921 2.31431,1.0026 1.19513,0.40377 1.29769,0.39891 2.11667,-0.10044 0.47338,-0.28862 1.30486,-0.52521 1.84774,-0.52576 0.67666,-6.7e-4 1.44698,-0.2952 2.44967,-0.93661 1.44547,-0.92466 1.49285,-0.93485 4.04003,-0.86877 2.56057,0.0664 2.58692,0.0606 4.03262,-0.88576 0.80037,-0.52395 1.97121,-1.44269 2.60188,-2.04165 0.630662,-0.59897 1.316102,-1.08903 1.523192,-1.08903 0.20708,0 1.1962,-0.82131 2.19804,-1.82513 1.00183,-1.00383 2.09363,-1.9115 2.4262,-2.01706 0.33258,-0.10555 0.91106,-0.4788 1.28551,-0.82944 0.37444,-0.35064 1.33565,-0.94159 2.13602,-1.31323 0.80036,-0.37164 1.66195,-0.78442 1.91463,-0.9173 0.25269,-0.13287 0.78853,-0.24159 1.19075,-0.24159 0.48349,0 1.12253,-0.35761 1.88581,-1.05532 1.08251,-0.98951 1.62339,-1.14848 1.62339,-0.47714 0,0.15861 -0.40887,0.68547 -0.9086,1.1708 -0.49973,0.48534 -1.12481,1.27127 -1.38906,1.74652 -0.26426,0.47526 -0.5555,0.92363 -0.64721,0.99639 -0.52013,0.41267 -1.05559,4.00309 -0.94702,6.35005 0.10308,2.22833 0.46736,4.6018 0.74943,4.88281 0.0549,0.0547 2.03452,0.0322 4.39923,-0.05 l 4.29948,-0.14939 v -9.48057 c 0,-9.29751 -0.20327,-12.42095 -0.91916,-14.12365 -0.32781,-0.77966 -0.55613,-0.94147 -2.59271,-1.83739 -1.12042,-0.49289 -1.08254,-0.93769 0.0798,-0.93769 0.69535,0 1.5311,0.36241 3.11084,1.34897 0.90944,0.56796 1.22067,3.09708 1.0206,8.29379 -0.11288,2.93189 -0.0639,5.40174 0.13972,7.05136 l 0.31345,2.53892 0.81277,-0.26338 c 0.44702,-0.14486 1.05089,-0.35902 1.34193,-0.47592 0.94958,-0.3814 2.6303,-0.76367 3.36423,-0.76518 0.41935,-8.6e-4 1.09472,-0.33189 1.62243,-0.79523 0.49722,-0.43656 1.013,-0.79375 1.14619,-0.79375 0.13318,0 0.90537,-0.70274 1.71596,-1.56164 l 1.47381,-1.56164 1.95327,-0.17895 c 1.0743,-0.0984 2.90578,-0.1627 4.06994,-0.14284 1.16417,0.0198 3.26223,-0.0413 4.66235,-0.13588 2.00858,-0.13569 2.7085,-0.0878 3.31738,0.22709 0.75556,0.39071 0.78461,0.38022 1.3887,-0.50139 l 0.617,-0.90045 -1.47668,-1.50042 c -1.44142,-1.4646 -2.29104,-2.80719 -2.29104,-3.62039 0,-0.22211 0.31371,-0.6506 0.69714,-0.9522 0.50808,-0.39965 0.57983,-0.54837 0.26459,-0.54837 -0.62227,0 -0.56162,-1.23523 0.0774,-1.57724 0.2805,-0.15012 0.70229,-0.19915 0.93732,-0.10897 0.38253,0.14679 0.37883,0.0623 -0.0352,-0.80602 -0.42563,-0.89256 -0.42901,-1.0253 -0.0424,-1.66241 0.36875,-0.60773 0.37466,-0.8012 0.0483,-1.58221 -0.51128,-1.22366 -0.15706,-1.75148 1.47338,-2.19546 1.04948,-0.28578 1.3462,-0.48476 1.36132,-0.91291 0.0287,-0.81204 0.85794,-2.09106 1.58848,-2.45002 0.35263,-0.17327 1.0824,-0.69738 1.62172,-1.16469 l 0.98059,-0.84965 -1.17902,-0.74772 c -0.88633,-0.56209 -1.17902,-0.91336 -1.17902,-1.415 0,-0.8365 0.27161,-0.84325 1.03953,-0.0258 0.49789,0.52999 0.95415,0.67093 2.6258,0.81113 2.34253,0.19646 3.94542,0.88355 5.08253,2.17865 0.9407,1.0714 0.98399,1.46084 0.15025,1.35158 -0.34478,-0.0452 -0.94009,0.0855 -1.32291,0.29036 -0.62949,0.33689 -0.69604,0.52001 -0.69604,1.9153 0,0.84853 0.0934,1.54279 0.20754,1.54279 0.35704,0 1.11538,1.50468 1.11538,2.21311 0,0.4552 -0.42903,1.11211 -1.31256,2.00969 -1.48809,1.51178 -1.2714,1.81719 0.28907,0.40741 1.06817,-0.96503 1.75481,-1.14722 2.29349,-0.60855 0.24694,0.24695 0.3175,0.24695 0.3175,0 0,-0.20325 0.46126,-0.3175 1.28191,-0.3175 1.72516,0 2.29747,0.61905 2.26967,2.455 -0.0189,1.24856 -0.10331,1.41422 -1.23271,2.41924 -1.43645,1.27826 -1.64022,1.83631 -1.393,3.81502 l 0.18595,1.48828 0.58021,-0.67453 c 0.31912,-0.371 1.22982,-1.15831 2.02378,-1.74959 1.96643,-1.46444 4.51761,-4.17815 5.37015,-5.71228 0.53397,-0.96087 0.70362,-1.63391 0.70362,-2.79136 0,-0.83886 -0.12181,-1.64701 -0.2707,-1.79589 -0.14888,-0.14889 -0.3276,-0.73825 -0.39715,-1.30969 -0.0695,-0.57144 -0.19789,-1.39618 -0.28521,-1.83274 -0.16678,-0.83395 -1.6139,-3.30729 -1.93505,-3.30729 -0.10291,0 -0.41792,-0.20992 -0.70002,-0.46648 -0.44698,-0.40652 -1.18805,-0.76603 -3.42333,-1.66076 -0.29104,-0.1165 -1.00541,-0.2882 -1.5875,-0.38156 -0.58208,-0.0934 -2.07036,-0.35691 -3.30729,-0.58567 -1.23693,-0.22876 -3.46935,-0.46719 -4.96094,-0.52984 -1.49158,-0.0626 -2.71197,-0.20518 -2.71197,-0.31675 0,-0.21709 0.66144,-0.56883 2.05899,-1.09493 0.93412,-0.35165 4.03354,-0.24497 7.86288,0.27064 2.75905,0.3715 3.67888,0.68427 5.17653,1.76022 0.68017,0.48866 1.41236,0.88846 1.62708,0.88846 0.4514,0 1.26618,0.82214 1.26618,1.27761 0,0.17044 0.10014,0.30989 0.22254,0.30989 0.12239,0 0.53911,0.58166 0.92604,1.29258 0.52702,0.96831 0.70351,1.66908 0.70351,2.79335 0,1.1085 0.17289,1.81046 0.66145,2.68557 0.88232,1.58037 0.93233,4.3127 0.10724,5.85847 -0.73768,1.38202 -4.2979,5.09712 -4.88463,5.09712 -0.25538,0 -0.85457,0.29765 -1.33154,0.66145 -0.47697,0.36381 -0.97087,0.66146 -1.09755,0.66146 -0.12669,0 -0.63424,0.41672 -1.12789,0.92604 -0.49366,0.50933 -1.04801,0.92605 -1.23191,0.92605 -0.18389,0 -0.47904,0.50601 -0.65588,1.12448 -0.17684,0.61846 -0.44951,1.29271 -0.60593,1.49833 -0.1857,0.2441 -0.25621,2.01824 -0.20317,5.11181 0.0667,3.89 0.001,4.98324 -0.36574,6.10844 -0.24583,0.75376 -0.55367,1.50583 -0.68408,1.67125 -0.38542,0.4889 -1.49016,2.75216 -1.64551,3.37112 -0.0789,0.31458 -0.36069,0.80773 -0.62607,1.09587 -0.26539,0.28815 -0.68816,0.82156 -0.93951,1.18536 -0.25134,0.3638 -1.05752,1.27486 -1.7915,2.02456 -1.50431,1.53653 -2.74356,2.19884 -3.22098,1.72142 -0.2225,-0.2225 -0.42784,-0.18272 -0.80128,0.15524 -0.38072,0.34455 -1.21639,0.49715 -3.45643,0.6312 -2.91011,0.17414 -6.27888,0.61471 -7.05534,0.92269 -0.63931,0.25358 -3.98248,0.69955 -5.49011,0.73237 -1.47879,0.0322 -1.76932,0.3684 -0.8556,0.99015 0.39247,0.26705 0.56648,0.74761 0.65839,1.81821 0.16038,1.86832 -0.64838,3.76338 -1.84451,4.32198 -2.96315,1.38382 -3.93292,1.72745 -5.69734,2.01881 -1.09141,0.18022 -2.28203,0.42561 -2.64583,0.5453 -0.36381,0.11969 -1.13771,0.29066 -1.7198,0.37994 -0.58208,0.0893 -1.53458,0.38029 -2.11666,0.64671 -1.66979,0.76428 -3.90701,1.35272 -4.21653,1.10904 -0.15476,-0.12185 -0.72271,-0.30102 -1.26211,-0.39817 -0.89771,-0.16167 -1.84829,-0.97107 -2.12881,-1.81261 -0.0638,-0.19134 -0.34133,-0.0833 -0.73996,0.2881 -0.35084,0.32686 -0.93792,0.66563 -1.30462,0.75283 -0.3667,0.0872 -0.78579,0.24423 -0.93131,0.34898 -0.14552,0.10474 -1.09802,0.3981 -2.11666,0.65191 -1.01865,0.2538 -2.09021,0.55382 -2.38125,0.6667 -1.14945,0.44581 -3.55419,0.89279 -5.82084,1.08195 -2.718372,0.22685 -4.149302,0.52471 -6.213972,1.29349 -0.79831,0.29725 -1.65186,0.54045 -1.89679,0.54045 -0.24492,0 -0.78238,0.16758 -1.19436,0.3724 -0.41197,0.20482 -1.0467,0.48765 -1.4105,0.62852 -0.3638,0.14086 -1.01865,0.40127 -1.45521,0.57869 -0.72606,0.29507 -1.85814,0.66934 -3.96875,1.31209 -0.43656,0.13295 -2.28203,0.31717 -4.10104,0.40938 -3.03617,0.15391 -3.773,0.29335 -5.08964,0.96312 -0.25268,0.12855 -0.60987,0.23397 -0.79375,0.23429 -0.55494,9.4e-4 -3.44633,1.60866 -4.43536,2.46623 -0.50932,0.44163 -1.0606,1.11856 -1.22506,1.50429 -0.16446,0.38573 -0.96813,1.3977 -1.78593,2.24883 -0.81781,0.85112 -1.48692,1.69011 -1.48692,1.86442 0,0.35275 -1.9389,2.49899 -2.25758,2.49899 -0.11138,0 -0.61417,0.44648 -1.11731,0.99219 -0.50314,0.5457 -1.21172,1.31171 -1.57463,1.70224 -0.36291,0.39053 -1.04112,0.89099 -1.50714,1.11213 -0.46602,0.22114 -1.06784,0.64576 -1.33738,0.94359 -0.26953,0.29783 -0.6502,0.54152 -0.84593,0.54152 -0.19573,0 -0.35587,0.11906 -0.35587,0.26458 0,0.14552 -0.11727,0.26458 -0.2606,0.26458 -0.14334,0 -0.8559,0.36629 -1.58347,0.81397 -0.72758,0.44768 -1.76591,0.93629 -2.30741,1.08581 -0.5415,0.14951 -1.40439,0.55714 -1.91753,0.90583 -0.51315,0.34869 -1.14348,0.63398 -1.40074,0.63398 -0.25726,0 -0.46775,0.0928 -0.46775,0.20633 0,0.11349 -0.59531,0.43736 -1.32291,0.71971 -0.72761,0.28235 -1.32292,0.58022 -1.32292,0.66194 0,0.14247 -1.44321,0.5849 -2.97656,0.91248 -0.40018,0.0855 -0.72761,0.27225 -0.72761,0.41499 0,0.14275 -0.18596,0.25955 -0.41326,0.25955 -0.49401,0 -3.02926,1.16655 -4.41012,2.02925 -0.54282,0.33912 -1.15009,0.61658 -1.34949,0.61658 -0.19941,0 -0.64826,0.36607 -0.99745,0.81349 -0.71992,0.92246 -2.35151,3.91878 -2.36081,4.33551 -0.0114,0.51151 -1.70673,2.12345 -2.86314,2.72235 -1.27614,0.66091 -2.41084,0.76562 -2.90809,0.26836 z m 2.94196,-1.16143 c 0.99969,-0.13702 1.23556,-0.27847 1.37221,-0.82294 0.16862,-0.67184 0.89906,-2.42197 1.66429,-3.98762 0.23521,-0.48124 0.69722,-1.16585 1.02669,-1.52135 0.42337,-0.45683 0.48823,-0.64637 0.22119,-0.64637 -0.68834,0 -2.09645,1.0365 -2.78084,2.04695 -1.10795,1.63582 -3.45866,1.86281 -4.40802,0.42566 -0.45711,-0.69199 -0.0399,-1.07087 0.54028,-0.49067 0.88436,0.88436 2.42779,0.32224 3.46605,-1.26234 0.45879,-0.7002 1.40861,-1.26504 2.79189,-1.66026 0.3638,-0.10395 0.72099,-0.26224 0.79375,-0.35177 0.51641,-0.63541 2.11667,-1.06415 2.11667,-0.5671 0,0.14143 0.56554,-0.0531 1.25677,-0.43237 2.49107,-1.36671 3.36655,-1.74402 4.35392,-1.87646 0.55214,-0.0741 1.00389,-0.23803 1.00389,-0.36439 0,-0.12636 0.188,-0.22975 0.41777,-0.22975 0.22978,0 1.30615,-0.47625 2.39194,-1.05833 1.0858,-0.58209 2.09981,-1.05834 2.25337,-1.05834 0.15355,0 0.60249,-0.23021 0.99763,-0.51157 0.39514,-0.28137 1.06837,-0.58829 1.49605,-0.68204 1.02698,-0.22514 1.9198,-0.64741 2.91926,-1.3807 0.45029,-0.33038 0.95631,-0.60069 1.12448,-0.60069 0.16816,0 0.30575,-0.093 0.30575,-0.20677 0,-0.11372 0.79375,-0.61974 1.76388,-1.12448 1.48171,-0.77089 2.53317,-1.63852 4.45383,-3.67512 0.14552,-0.1543 0.94919,-0.88888 1.78594,-1.63239 0.83674,-0.74351 1.52135,-1.47936 1.52135,-1.63522 0,-0.15587 0.5286,-0.78988 1.17466,-1.40891 0.64606,-0.61904 1.50926,-1.58336 1.91823,-2.14294 1.89327,-2.59055 5.5072,-4.88258 8.44427,-5.35555 0.85784,-0.13814 2.0955,-0.38702 2.75034,-0.55306 0.65485,-0.16604 2.0836,-0.40416 3.175,-0.52915 2.04387,-0.23408 3.9668,-0.71473 4.89479,-1.22351 0.29105,-0.15956 1.42214,-0.55456 2.51355,-0.87776 2.10204,-0.62249 3.3882,-1.08987 5.23665,-1.90295 0.62458,-0.27474 1.69614,-0.55974 2.38125,-0.63333 3.897252,-0.41865 6.127352,-0.70665 7.066472,-0.91257 0.58208,-0.12764 2.01083,-0.43134 3.175,-0.67489 2.77684,-0.58094 4.30487,-1.12122 5.35781,-1.8944 l 0.8599,-0.63143 v -5.26621 -5.26621 l -0.99219,-0.15874 c -0.5457,-0.0873 -1.19893,-0.27129 -1.45162,-0.40886 -0.25268,-0.13757 -0.69214,-0.25013 -0.97657,-0.25013 -0.28443,0 -0.58647,-0.11218 -0.67121,-0.24929 -0.0848,-0.13712 -0.71685,-0.32661 -1.40468,-0.42109 -1.35255,-0.18579 -2.82968,-0.57957 -3.56212,-0.9496 -0.25269,-0.12765 -0.60987,-0.23584 -0.79375,-0.2404 -0.18388,-0.005 -1.03193,-0.35502 -1.88456,-0.77879 l -1.55024,-0.77048 -0.93919,0.50338 c -0.705362,0.37805 -1.241612,0.4646 -2.153932,0.34761 -0.6681,-0.0857 -1.32784,-0.25939 -1.46609,-0.38605 -0.39437,-0.36132 -1.06845,-0.2734 -2.17103,0.28318 -0.55946,0.28241 -1.49345,0.70914 -2.07553,0.94829 -0.58208,0.23914 -1.26508,0.54386 -1.51776,0.67715 -0.25269,0.13329 -0.68581,0.24234 -0.96248,0.24234 -0.27668,0 -1.26056,0.34395 -2.18641,0.76434 -0.92584,0.42039 -2.75491,1.2005 -4.0646,1.73359 -1.30969,0.53308 -2.58799,1.0821 -2.84068,1.22003 -0.25269,0.13794 -0.69214,0.25079 -0.97657,0.25079 -0.28443,0 -0.58258,0.10587 -0.66255,0.23527 -0.08,0.1294 -0.45444,0.31284 -0.83215,0.40764 -0.37771,0.0948 -0.97956,0.46518 -1.33745,0.82306 -0.35788,0.35788 -0.82388,0.6507 -1.03554,0.6507 -0.21167,0 -0.38485,0.0999 -0.38485,0.22211 0,0.12216 -0.32742,0.36972 -0.72761,0.55012 -1.13448,0.51142 -5.88698,3.72732 -5.88698,3.98357 0,0.12608 -0.35196,0.30654 -0.78213,0.40102 -0.45014,0.0989 -1.49174,0.86588 -2.45385,1.80696 -0.91943,0.89935 -2.03015,1.93283 -2.46826,2.29663 -0.43811,0.36381 -1.01535,1.13771 -1.28276,1.7198 -0.26741,0.58208 -0.82867,1.41552 -1.24723,1.85208 -1.2641,1.31846 -2.07945,2.35551 -2.23623,2.84427 -0.0817,0.25466 -0.28131,0.46302 -0.44359,0.46302 -0.16229,0 -1.21117,0.9525 -2.33084,2.11667 -1.11968,1.16416 -2.17686,2.11666 -2.34931,2.11666 -0.17244,0 -1.10984,0.80368 -2.0831,1.78594 -0.97326,0.98227 -2.18307,2.01671 -2.68846,2.29876 -0.50538,0.28206 -1.20598,0.85402 -1.55687,1.27104 -0.3509,0.41701 -1.30662,1.2218 -2.12383,1.7884 -0.8172,0.56661 -1.85902,1.36386 -2.31515,1.77168 -0.45613,0.40781 -1.1705,1.0263 -1.5875,1.37442 -0.417,0.34812 -0.95903,0.80627 -1.20453,1.01811 -0.66143,0.57076 -1.08086,0.16662 -0.5354,-0.51587 0.85313,-1.06745 1.14322,-1.33714 5.61196,-5.21743 0.50932,-0.44225 1.00732,-0.806 1.10665,-0.80832 0.0993,-0.002 0.25425,-0.23626 0.34426,-0.51986 0.09,-0.2836 0.41411,-0.59512 0.72021,-0.69227 0.59791,-0.18977 1.76203,-1.16144 3.54541,-2.95928 0.61349,-0.61847 1.276,-1.12448 1.47225,-1.12448 0.19624,0 1.1712,-0.83344 2.16656,-1.85209 0.99537,-1.01864 1.9044,-1.85208 2.02006,-1.85208 0.30886,0 1.85377,-1.49202 1.85377,-1.7903 0,-0.14029 0.7739,-1.01058 1.71979,-1.93398 1.2919,-1.26118 1.71979,-1.85974 1.71979,-2.40575 0,-0.56432 0.51576,-1.23228 2.30633,-2.98696 1.53447,-1.50371 2.50849,-2.26009 2.91041,-2.26009 0.33225,0 0.60409,-0.09 0.60409,-0.2 0,-0.10999 0.35856,-0.3587 0.79679,-0.55269 0.43824,-0.19398 1.29617,-0.81835 1.90653,-1.3875 0.61035,-0.56915 1.26383,-1.03481 1.45217,-1.03481 0.18833,0 0.34243,-0.10462 0.34243,-0.23249 0,-0.12786 0.35719,-0.38043 0.79375,-0.56126 0.43656,-0.18083 0.79375,-0.42107 0.79375,-0.53386 0,-0.27314 -1.51312,-1.58876 -3.01835,-2.62438 -0.66824,-0.45977 -1.21498,-0.93492 -1.21498,-1.0559 0,-0.30356 -1.96201,-2.29905 -2.59194,-2.63618 -0.28275,-0.15133 -0.70571,-0.67895 -0.93991,-1.17249 -0.23421,-0.49355 -1.08074,-1.50138 -1.88119,-2.23963 -0.80044,-0.73824 -1.69496,-1.79706 -1.98781,-2.35293 -0.29284,-0.55587 -1.18924,-1.72371 -1.99198,-2.59521 -0.80274,-0.87149 -1.53411,-1.82399 -1.62526,-2.11666 -0.0912,-0.29268 -0.24731,-0.59167 -0.34701,-0.66443 -0.0997,-0.0728 -0.65733,-0.78713 -1.23918,-1.5875 -1.06401,-1.46361 -1.53844,-2.34448 -1.46064,-2.71198 0.0231,-0.10914 -0.19612,-0.19843 -0.48717,-0.19843 -0.29104,0 -0.52916,-0.11907 -0.52916,-0.26459 0,-0.14552 -0.13084,-0.26458 -0.29075,-0.26458 -0.35115,0 -1.97143,-0.69039 -2.88425,-1.22896 -0.3638,-0.21465 -1.43537,-0.7591 -2.38125,-1.20989 -0.94589,-0.4508 -2.25117,-1.24733 -2.90063,-1.77008 -1.44836,-1.16578 -3.37404,-2.40565 -3.73628,-2.40565 -0.62747,0 -1.90831,-0.89811 -3.39614,-2.38133 -0.87579,-0.87308 -1.65229,-1.58742 -1.72555,-1.58742 -0.0733,0 -0.82105,-0.31196 -1.66177,-0.69324 -2.77895,-1.26029 -3.1273,-1.39346 -4.45011,-1.70113 -0.7215,-0.16781 -1.7455,-0.42694 -2.27557,-0.57584 -0.61722,-0.17338 -2.75777,-0.20177 -5.95312,-0.079 -2.74416,0.10546 -6.15821,0.2314 -7.58679,0.27986 -1.56706,0.0532 -2.75578,0.21954 -2.99663,0.41942 -0.21957,0.18223 -0.8962,0.57793 -1.50363,0.87934 -1.3451904,0.66751 -1.6047004,1.63625 -0.6712904,2.50586 0.4207304,0.39197 0.5131904,0.63775 0.3146204,0.83633 -0.3678504,0.36785 -2.0822704,-0.3345 -3.0282504,-1.24059 -0.58002,-0.55555 -0.71888,-0.5964 -0.8516,-0.25054 -0.0872,0.22728 -0.36221,0.41324 -0.61111,0.41324 -0.43262,0 -1.48545,0.29639 -3.08063,0.86724 -0.85618,0.3064 -2.03968996,1.18478 -2.03968996,1.51383 0,0.35321 1.57052996,1.04841 1.99793996,0.8844 0.21082,-0.0809 0.37952,-0.045 0.3749,0.0797 -0.0163,0.43865 -0.71606,1.15278 -1.12962,1.15278 -0.23003,0 -0.49182,0.11907 -0.58176,0.26459 -0.0899,0.14552 -0.62571996,0.26458 -1.19062996,0.26458 -0.5649,0 -1.10068004,-0.11906 -1.19062004,-0.26458 -0.31006,-0.50169 -0.58776,-0.26294 -0.46163,0.39687 0.11158,0.58369 0.0354,0.66146 -0.64792,0.66146 -0.97039,0 -2.18464,1.14083 -2.8715,2.69786 -0.27624,0.62623 -0.57137,1.19813 -0.65584,1.27089 -0.52193,0.44958 -1.56788,2.09762 -1.72119,2.71198 -0.0999,0.40018 -0.28773,0.7276 -0.41748,0.7276 -0.12974,0 -0.2359,0.18021 -0.2359,0.40047 0,0.22025 -0.11359,0.60721 -0.25243,0.85989 -0.13884,0.25269 -0.37061,1.11428 -0.51504,1.91464 -0.14442,0.80037 -0.39587,1.99099 -0.55877,2.64584 -0.6511696,2.61768 -0.8294596,5.38093 -0.7047696,10.92341 0.0713,3.17023 0.24485,5.90866 0.3856396,6.08542 0.14078,0.17675 0.32437,0.67856 0.40796,1.11512 0.0836,0.43657 0.2847,1.50813 0.44691,2.38125 0.16221,0.87313 0.39218,1.82563 0.51104,2.11667 0.11886,0.29104 0.43544,1.06495 0.7035,1.71979 0.26807,0.65484 0.55685,1.25016 0.64173,1.32292 0.0849,0.0728 0.41206,0.66807 0.72706,1.32291 0.31499,0.65485 0.73728,1.48829 0.9384,1.85209 0.20113,0.3638 0.59162,1.13771 0.86775,1.71979 0.55652,1.17313 0.64267,1.29889 1.70662,2.49121 0.40843,0.45771 0.8991,1.18576 1.09038,1.61789 0.19128,0.43213 0.43778,0.78569 0.54778,0.78569 0.10999,0 0.19999,0.15898 0.19999,0.35328 0,0.19431 0.53578004,0.89674 1.19063004,1.56097 0.86426,0.87665 1.19061996,1.07879 1.19061996,0.73745 0,-0.25863 -0.17859,-0.61846 -0.39686996,-0.79962 -0.21829,-0.18115 -0.39688,-0.495 -0.39688,-0.69744 0,-0.20244 -0.10955,-0.57481 -0.24344,-0.8275 -0.46876,-0.88467 -1.42517004,-3.55518 -1.66468004,-4.64813 -0.24752,-1.12957 -0.45007,-2.18724 -0.99657,-5.20401 -0.17135,-0.94588 -0.41704,-2.13651 -0.54597,-2.64583 -0.60549,-2.39185 -0.83647,-5.64074 -0.68659,-9.65729 0.17498,-4.68924 0.35155,-6.61489 0.67929,-7.40834 0.12022,-0.29104 0.35674,-1.18401 0.52559,-1.98437 0.98948,-4.69012 1.19633,-5.39825 1.84161004,-6.30446 0.30888,-0.43378 0.56219,-0.88937 0.56291,-1.01243 7.2e-4,-0.12305 0.29997,-0.58092 0.66499,-1.01749 0.36502996,-0.43656 0.83499996,-1.18162 1.04437996,-1.65569 0.45151,-1.02229 2.46592,-3.2391 2.94336,-3.2391 0.18405,0 0.55716,-0.2829 0.82914,-0.62867 0.9394,-1.19425 4.33371,-3.15186 5.6954604,-3.28475 0.69122,-0.0675 1.25677,-0.20057 1.25677,-0.29581 0,-0.21742 1.72786,-0.7118 3.96875,-1.13555 2.10124,-0.39735 8.76256,-0.41473 11.1125,-0.029 1.76365,0.28949 3.69192,0.768 4.63021,1.14901 0.29104,0.11818 1.05241,0.28783 1.69194,0.37699 0.63952,0.0892 1.47296,0.37417 1.85208,0.63335 0.37912,0.25918 1.38047,0.81358 2.22521,1.232 0.84474,0.41842 1.79724,1.01764 2.11667,1.33159 0.31942,0.31396 0.87842,0.64645 1.24222,0.73887 0.7225,0.18355 4.95467,4.1907 6.20312,5.87331 0.42854,0.57757 0.94172,1.14934 1.14039,1.27061 0.84559,0.51614 2.0964,1.77386 2.45555,2.46914 0.21307,0.41248 0.73062,1.04761 1.1501,1.41141 0.41949,0.3638 1.13387,1.05701 1.5875,1.54047 1.24442,1.32619 2.39564,2.47523 3.32986,3.32353 0.46213,0.41963 1.1149,1.19806 1.4506,1.72984 0.3357,0.53179 1.0225,1.24928 1.52621,1.59444 0.50372,0.34515 1.18665,1.02275 1.51762,1.50577 0.87428,1.27594 1.49255,1.94762 1.79274,1.94762 0.22544,0 1.79755,1.62125 2.92602,3.01747 0.28398,0.35137 0.2729,0.42211 -0.0661,0.42211 -0.22402,0 -0.40731,-0.17859 -0.40731,-0.39687 0,-0.21828 -0.11446,-0.39688 -0.25436,-0.39688 -0.1399,0 -0.72587,-0.47625 -1.30217,-1.05833 -0.57629,-0.58208 -1.12338,-1.05833 -1.21575,-1.05833 -0.0924,0 -1.0437,-0.89297 -2.11406,-1.98438 -1.07036,-1.09141 -2.06766,-1.98437 -2.21622,-1.98437 -0.14856,0 -0.34016,-0.20836 -0.42578,-0.46303 -0.23069,-0.68615 -2.00369,-2.53285 -2.98919,-3.11343 -0.47313,-0.27873 -0.93137,-0.73091 -1.0183,-1.00483 -0.18291,-0.57628 -2.10081,-2.56246 -2.47438,-2.56246 -0.13853,0 -0.60913,-0.50602 -1.04578,-1.12448 -1.10237,-1.56137 -2.28928,-2.84427 -2.63144,-2.84427 -0.15815,0 -0.78985,-0.68461 -1.40378,-1.52136 -0.61392,-0.83674 -1.24276,-1.56895 -1.3974,-1.62711 -0.15465,-0.0582 -0.99556,-0.84616 -1.86868,-1.7511 -1.52301,-1.57848 -5.58789,-4.36085 -6.37096,-4.36085 -0.20675,0 -0.37592,-0.10518 -0.37592,-0.23373 0,-0.12854 -0.20836,-0.30368 -0.46302,-0.38919 -0.25466,-0.0855 -0.64161,-0.26419 -0.85989,-0.39707 -1.21805,-0.7415 -4.42936,-1.61448 -5.96636,-1.62193 -0.44384,-0.002 -0.93361,-0.13055 -1.08839,-0.28533 -0.16283,-0.16282 -2.10839,-0.34298 -4.61698,-0.42753 -4.09887,-0.13814 -5.94584,0.001 -9.23036,0.69768 -0.65484,0.13881 -1.86327,0.38649 -2.6854,0.55041 -0.82212,0.16393 -1.71509,0.50302 -1.9843704,0.75354 -0.26928,0.25052 -0.8695,0.64482 -1.33383,0.87623 -1.65801,0.82629 -5.34584,4.04679 -5.91109,5.16203 -0.20597,0.40637 -0.58948,1.02724 -0.85225,1.37973 -0.26278,0.35248 -0.71703,1.18175 -1.00944996,1.84282 -0.29242,0.66107 -0.61635,1.26565 -0.71983,1.3435 -0.35815,0.26944 -0.92588,1.99866 -1.04543004,3.18426 -0.066,0.65484 -0.22759,1.30373 -0.359,1.44197 -0.13141,0.13825 -0.23893,0.57735 -0.23893,0.97577 0,0.39843 -0.19563,1.53548 -0.43473,2.52677 -0.90298,3.74373 -0.40656,16.82574 0.71835,18.93054 0.13505,0.25269 0.24555,0.94469 0.24555,1.53779 0,0.99525 0.39548004,2.6569 1.09897004,4.61736 0.15665,0.43657 0.45795,1.32953 0.66954,1.98438 0.2116,0.65484 0.61839996,1.70761 0.90400996,2.33947 0.2856,0.63187 0.59107,1.70343 0.6788,2.38125 0.0877,0.67782 0.3268,1.42558 0.53125,1.6617 0.33027,0.38141 1.26626,2.60892 1.54285,3.67174 0.0568,0.21828 0.33318,1.05172 0.61415,1.85209 0.76711,2.18514 1.18422,4.30816 1.05832,5.38663 -0.10136,0.86823 -0.0507,0.96337 0.51325,0.96337 0.34415,0 0.85917,0.12493 1.14448,0.27763 0.40774,0.21821 0.6933,0.15334 1.33435,-0.30313 0.66963,-0.47682 1.1300704,-0.57068 2.5727104,-0.52446 2.18481,0.07 2.03104,0.076 3.5668,-0.13884 1.22519,-0.17139 1.27232,-0.20897 1.09058,-0.86964 -0.34326,-1.24792 -0.44491,-5.1038 -0.14251,-5.4062 0.15672,-0.15672 0.28495,-0.48635 0.28495,-0.73251 0,-0.61112 0.48432,-0.69465 5.95312,-1.02674 5.36057,-0.32552 14.22333,-0.0451 14.73465,0.46625 0.43777,0.43777 0.0558,0.51115 -3.88673,0.74664 -4.49667,0.2686 -10.23686,0.26158 -13.28009,-0.0162 l -2.43216,-0.22203 -0.0814,3.47822 -0.0814,3.47822 2.34566,-4.6e-4 c 2.32253,-4.6e-4 2.36299,-0.0118 4.10105,-1.15174 3.05497,-2.00363 4.0539,-2.41754 6.49432,-2.69097 0.86018,-0.0964 1.75314,-0.27332 1.98438,-0.3932 1.06225,-0.55076 2.3905,-1.05622 2.77551,-1.05622 0.23267,0 0.42303,-0.0976 0.42303,-0.2169 0,-0.32565 2.68284,-1.64354 2.97642,-1.4621 0.26645,0.16467 -0.92193,1.41442 -1.34497,1.41442 -0.13405,0 -0.37571,0.15901 -0.53701,0.35337 -0.66046,0.79581 -6.08241,2.82163 -7.55188,2.82163 -0.36029,0 -0.72051,0.10587 -0.80048,0.23527 -0.08,0.1294 -0.47276,0.31743 -0.87286,0.41785 -0.4001,0.10042 -0.78818,0.27049 -0.8624,0.37793 -0.0742,0.10743 -0.89984,0.66354 -1.83471,1.23579 l -1.69977,1.04045 -3.64326,0.0215 c -2.39726,0.0141 -3.77295,0.12912 -4.02247,0.33619 -0.24494,0.20329 -1.28987,0.29878 -2.95129,0.26971 -1.95422,-0.0342 -2.6281904,0.0439 -2.8056404,0.32527 -0.15456,0.24504 -0.092,0.47617 0.18488,0.68339 0.23014,0.17222 0.3444804,0.43279 0.25408,0.57905 -0.0904,0.14626 0.0465,0.3843 0.3042404,0.52898 0.43858,0.24621 0.4347,0.27463 -0.0606,0.44384 -2.0675204,0.70639 -3.7041704,1.45344 -3.7041704,1.69078 0,0.15438 0.0893,0.28068 0.19844,0.28068 0.10914,0 0.60665,0 1.10558,0 0.49893,0 1.08574,-0.17859 1.30402,-0.39687 0.54329,-0.5433 2.8159204,-0.54736 2.8159204,-0.005 0,0.21551 -0.32742,0.46314 -0.7276,0.55031 -0.40019,0.0872 -1.2493104,0.41387 -1.8869504,0.72602 l -1.15934,0.56755 0.8388,0.34227 c 0.46134,0.18824 0.90649,0.51864 0.98921,0.73422 0.0827,0.21558 0.3016904,0.39196 0.4865804,0.39196 0.1849,0 0.49958,0.19704 0.6993,0.43786 0.89611,1.08053 2.00075,1.27269 7.63917,1.32886 2.98317,0.0297 6.31692,0.16089 7.40833,0.2915 2.76174,0.33049 3.20088,0.34562 4.57292,0.15756 z m 38.95861,-39.35148 c -0.30026,-0.21956 -0.42569,-0.52734 -0.32345,-0.79375 0.13285,-0.34622 0.54393,-0.43513 2.01174,-0.43513 1.01463,0 1.91247,0.10953 1.9952,0.24339 0.0827,0.13387 -0.16442,0.49106 -0.54923,0.79375 -0.80711,0.63488 -2.39535,0.73204 -3.13426,0.19174 z m 8.59138,-0.69972 c 0,-0.14552 -0.19268,-0.26458 -0.42818,-0.26458 -0.5183,0 -1.94294,-1.55699 -1.94884,-2.12989 -0.002,-0.22556 -0.13141,-0.53729 -0.28686,-0.69274 -0.41499,-0.41499 -0.20068,-2.33674 0.26058,-2.33674 0.3865,0 0.65297,0.64111 0.93477,2.24895 0.30427,1.73613 0.68522,1.97359 3.33178,2.07685 2.3765,0.0927 2.79301,0.30482 2.05259,1.04524 -0.38724,0.38724 -3.91584,0.43492 -3.91584,0.0529 z m 26.722922,-3.98426 c 0,-0.15405 0.34452,-0.7196 0.76561,-1.25677 0.65698,-0.83809 0.79092,-1.29578 0.94396,-3.22563 0.20799,-2.62261 0.37434,-3.43958 0.70036,-3.43958 0.41158,0 0.28274,5.75652 -0.14745,6.58843 -0.56866,1.09967 -2.26248,2.09804 -2.26248,1.33355 z M 5.2737076,806.41245 c 0,-0.14552 -0.11906,-0.26458 -0.26458,-0.26458 -0.14552,0 -0.26459,0.11906 -0.26459,0.26458 0,0.14552 0.11907,0.26459 0.26459,0.26459 0.14552,0 0.26458,-0.11907 0.26458,-0.26459 z m 1.78043,-0.68902 c -0.0879,-0.0879 -0.31613,-0.0973 -0.50712,-0.0209 -0.21107,0.0845 -0.14837,0.14715 0.15985,0.15985 0.27892,0.0115 0.43519,-0.0511 0.34727,-0.13897 z m -1.16313,-1.17868 c 0.41227,-0.25033 0.6368,-0.52485 0.49896,-0.61004 -0.26863,-0.16602 -3.76209,0.0981 -3.76209,0.28444 0,0.0613 0.11923,0.33421 0.26496,0.6065 0.21387,0.39963 0.45618,0.46415 1.25677,0.33466 0.54549,-0.0882 1.32912,-0.36523 1.7414,-0.61556 z M 120.10239,771.306 c 0.50905,-0.086 1.29419,-0.43753 1.74476,-0.7812 0.49927,-0.38081 1.17975,-0.62485 1.74234,-0.62485 0.50771,0 1.00652,-0.0834 1.10846,-0.18534 0.33109,-0.3311 3.18709,-1.12967 4.05442,-1.13368 0.46435,-0.002 0.90973,-0.1098 0.98973,-0.23924 0.08,-0.12944 0.53351,-0.29786 1.00781,-0.37425 1.2331,-0.19861 2.84672,-0.80366 2.84672,-1.06741 0,-0.12354 -0.23813,-0.28689 -0.52917,-0.363 -0.61133,-0.15986 -0.66163,-0.36753 -0.20065,-0.82851 0.23696,-0.23696 0.24636,-0.38075 0.0337,-0.51594 -0.37206,-0.23654 -0.14442,-1.90125 0.2631,-1.92398 0.16538,-0.009 0.0328,-0.12445 -0.29462,-0.25606 -0.96044,-0.38605 -0.7513,-1.05008 0.33073,-1.05008 0.74966,0 0.92605,-0.1008 0.92605,-0.52917 0,-0.63315 0.0383,-0.62874 -1.14982,-0.13229 -0.52242,0.21828 -1.25134,0.39687 -1.61981,0.39687 -0.36848,0 -0.66996,0.11906 -0.66996,0.26459 0,0.14552 -0.16867,0.26458 -0.37482,0.26458 -0.20616,0 -0.42433,0.14883 -0.48483,0.33073 -0.0757,0.22749 -0.95467,0.35927 -2.81605,0.42216 l -2.70603,0.0914 -1.16118,-1.22929 c -0.63864,-0.67611 -1.22964,-1.44503 -1.31333,-1.70871 -0.15533,-0.4894 -0.67418,-0.60153 -4.85694,-1.04972 l -1.67463,-0.17945 0.16527,1.85986 c 0.0909,1.02292 0.29458,2.44109 0.45262,3.15149 0.16248,0.73033 0.21375,2.08353 0.11798,3.11391 -0.23805,2.5614 -0.003,3.73891 0.85406,4.28507 0.45209,0.28797 0.98286,0.39349 1.49476,0.29717 0.43656,-0.0822 1.21024,-0.21971 1.7193,-0.3057 z m -2.09691,-4.24445 c -0.77551,-0.94083 -0.81285,-1.09646 -0.8094,-3.37344 0.004,-2.72696 0.16789,-3.57774 0.6887,-3.57774 0.27374,0 0.37763,0.4836 0.41207,1.91823 0.10014,4.17128 0.15502,4.38846 1.27652,5.05094 1.00595,0.59423 1.01352,0.96833 0.0196,0.96833 -0.57237,0 -0.98667,-0.25741 -1.5875,-0.98632 z m 16.71563,-1.30557 c -0.1819,-0.0734 -0.47956,-0.0734 -0.66146,0 -0.1819,0.0734 -0.0331,0.13345 0.33073,0.13345 0.3638,0 0.51263,-0.06 0.33073,-0.13345 z m -59.861982,-3.39665 c 0.18115,-0.21828 0.43884,-0.39687 0.57262,-0.39687 0.13379,0 0.50617,-0.24888 0.8275,-0.55306 0.32134,-0.30418 1.00243,-0.73672 1.51353,-0.9612 l 0.92929,-0.40815 -1.49557,-1.55234 c -0.82256,-0.85379 -1.59124,-1.55234 -1.70818,-1.55234 -0.11693,0 -1.07182,-0.8632 -2.12196,-1.91823 -1.05015,-1.05502 -2.39629,-2.31899 -2.99142,-2.80881 -0.59514,-0.48982 -1.08206,-1.02925 -1.08206,-1.19873 0,-0.7303 -5.52604,-5.18673 -6.43162,-5.18673 -0.19127,0 -0.60337,-0.23812 -0.91576,-0.52916 -0.3124,-0.29105 -0.6242,-0.52917 -0.69289,-0.52917 -0.46834,0 -3.86893,-1.77542 -4.4613,-2.3292 -0.40018,-0.37412 -0.7276,-0.5488 -0.7276,-0.38818 0,0.16062 0.0893,0.33172 0.19844,0.38023 0.29028,0.12901 2.44739,2.77354 2.44739,3.0004 0,0.20408 1.1201,1.58344 2.36192,2.90862 0.4091,0.43657 0.96776,1.15089 1.24147,1.5874 0.68328,1.08968 1.18053,1.69757 1.92461,2.35287 1.07071,0.94295 1.51622,1.46321 1.8974,2.21576 0.20146,0.39773 1.11428,1.43752 2.0285,2.31064 0.91421,0.87313 1.66139,1.69889 1.6604,1.83503 -0.003,0.38307 1.10658,1.47226 1.49953,1.47226 0.19292,0 0.35076,0.0934 0.35076,0.20754 0,0.11414 0.36487,0.42307 0.81083,0.68651 0.44596,0.26343 0.94133,0.76536 1.10081,1.11538 0.33162,0.72784 0.78652,0.81409 1.26336,0.23953 z m 53.445832,-0.80704 c 0.50933,-0.1009 1.10464,-0.33654 1.32292,-0.52363 0.44862,-0.38453 4.50318,-1.20376 4.86677,-0.98334 0.37479,0.22721 1.80249,0.12343 2.39643,-0.17418 0.2981,-0.14938 1.13732,-0.38329 1.86492,-0.5198 0.72761,-0.13652 1.97776,-0.44478 2.77813,-0.68504 0.99887,-0.29985 3.09279,-0.4988 6.67726,-0.63444 5.21634,-0.19739 5.22327,-0.19846 6.33239,-0.97799 1.29157,-0.90774 4.36235,-4.813 4.619,-5.8742 0.0966,-0.39962 0.57505,-1.59849 1.06312,-2.66414 0.48807,-1.06565 0.8874,-2.2027 0.8874,-2.52677 0,-0.32407 0.13027,-0.71949 0.28949,-0.87872 0.18396,-0.18396 0.23266,-0.90253 0.13357,-1.97114 -0.42592,-4.59365 -0.47054,-6.04728 -0.18563,-6.04728 0.16045,0 0.29173,-0.19133 0.29173,-0.42519 0,-0.23386 0.35689,-1.17298 0.79308,-2.08694 0.58992,-1.23606 0.75061,-1.87411 0.62729,-2.49073 -0.0912,-0.45594 -0.26948,-0.89306 -0.39621,-0.97138 -0.34576,-0.2137 -0.27729,-2.33971 0.0871,-2.70409 0.48437,-0.48437 -0.32907,-0.41225 -1.05063,0.0932 -0.54678,0.38298 -0.63097,0.36596 -1.24949,-0.25255 -0.67363,-0.67363 -0.79076,-1.10536 -0.5032,-1.85473 0.2024,-0.52743 0.63374,-0.28171 0.63374,0.36102 0,0.26689 0.17859,0.55378 0.39687,0.63754 0.54417,0.20882 1.19063,-0.074 1.19063,-0.52086 0,-0.20271 -0.1786,-0.36857 -0.39688,-0.36857 -0.21828,0 -0.39687,-0.19248 -0.39687,-0.42773 0,-0.29748 0.16115,-0.38559 0.52917,-0.28936 0.46923,0.12271 0.52916,0.008 0.52916,-1.01186 0,-0.63263 0.11906,-1.22382 0.26459,-1.31376 0.38437,-0.23756 0.32408,-0.65523 -0.11913,-0.82531 -0.51338,-0.197 -2.52671,1.81446 -2.52671,2.52436 0,0.73474 -0.45801,0.69288 -1.72452,-0.15763 -1.79719,-1.20687 -1.82641,-1.42178 -0.326,-2.39732 0.61846,-0.40211 1.26952,-0.90981 1.44679,-1.12823 0.40293,-0.49643 0.4366,-2.17821 0.0513,-2.56348 -0.1583,-0.1583 -0.28207,-1.10485 -0.27503,-2.10344 0.0108,-1.52888 0.10264,-1.88874 0.58172,-2.27864 0.3129,-0.25466 0.76081,-0.46302 0.99535,-0.46302 0.83585,0 -0.67774,-0.79377 -1.99044,-1.04386 -0.70001,-0.13335 -1.4651,-0.31683 -1.70021,-0.40771 -0.28507,-0.11021 -0.81634,0.21422 -1.59483,0.97389 -0.64204,0.62653 -1.50682,1.37935 -1.92172,1.67293 l -0.75436,0.53378 1.24383,-0.0989 c 1.01417,-0.0807 1.36242,0.0125 1.88617,0.50452 0.35328,0.3319 0.64234,0.75278 0.64234,0.9353 0,0.18252 0.19016,0.52202 0.42257,0.75443 0.48666,0.48666 0.30725,1.26312 -0.24307,1.05194 -0.20333,-0.078 -0.53131,-0.46297 -0.72885,-0.85543 -0.19754,-0.39247 -0.39697,-0.76728 -0.44318,-0.83293 -0.0462,-0.0656 -0.73026,-0.19048 -1.5201,-0.27742 -1.37353,-0.15118 -1.44894,-0.12704 -1.73113,0.55424 -0.27491,0.66368 -1.91864,1.56233 -2.85769,1.56233 -0.2503,0 -0.23103,0.15114 0.075,0.58804 0.57788,0.82503 0.51235,1.77629 -0.1627,2.36176 l -0.57458,0.49832 0.73131,0.76332 c 0.95345,0.99518 0.82866,1.74205 -0.29084,1.74065 -0.73728,-9.2e-4 -0.79772,0.055 -0.55307,0.51219 0.22389,0.41834 0.14558,0.62425 -0.42366,1.11389 l -0.69833,0.60067 0.66936,1.19894 c 0.36815,0.65941 1.20215,1.74713 1.85333,2.41715 1.25065,1.28683 1.37232,1.64455 0.87617,2.57611 -0.52243,0.9809 -2.24436,2.03538 -2.58066,1.58036 -0.42236,-0.57145 -1.51321,-0.87015 -3.17775,-0.87015 -2.50109,0 -2.58589,0.41539 -0.13024,0.63792 1.98868,0.18021 3.28604,0.57188 3.28604,0.99205 0,0.12216 -1.63711,0.22301 -3.63803,0.22411 -2.00091,10e-4 -4.37459,0.12154 -5.27484,0.26765 -1.7987,0.29193 -4.51718,1.55827 -5.44377,2.53586 -0.37852,0.39936 -0.89707,0.62658 -1.4366,0.6295 -1.11267,0.006 -1.3325,-0.40576 -0.39169,-0.73372 0.41128,-0.14338 1.08337,-0.57169 1.49353,-0.95182 0.41016,-0.38012 0.95657,-0.69114 1.21423,-0.69114 0.25767,0 0.50817,-0.0893 0.55668,-0.19843 0.27896,-0.62766 2.14016,-1.65684 3.0471,-1.68495 0.55542,-0.0172 1.36703,-0.1222 1.80359,-0.23328 0.56337,-0.14336 0.13574,-0.21106 -1.47333,-0.23328 -2.4386,-0.0337 -5.00896,0.54377 -5.00896,1.12529 0,0.37351 -1.91922,2.0184 -2.35503,2.0184 -0.14816,0 -0.56971,0.32389 -0.93678,0.71976 -0.55634,0.59999 -0.60215,0.75627 -0.27529,0.93919 0.21566,0.12069 0.3921,0.31347 0.3921,0.4284 0,0.28329 -1.22514,0.82307 -1.86812,0.82307 -0.28617,0 -0.72705,0.10636 -0.97974,0.23637 -0.4536,0.23336 -2.19918,0.64949 -4.06278,0.96852 -0.94345,0.1615 -0.95987,0.18593 -1.11698,1.66232 -0.0877,0.82413 -0.2356,1.98628 -0.32867,2.58255 l -0.16923,1.08414 1.41849,0.17034 c 0.78017,0.0937 2.1257,0.17136 2.99006,0.17263 0.86437,10e-4 2.27046,0.14665 3.12466,0.32308 0.98366,0.20317 1.62004,0.22742 1.73571,0.0661 0.44296,-0.61757 2.67992,-2.22484 3.32011,-2.38552 0.3872,-0.0972 0.76943,-0.28256 0.8494,-0.41196 0.08,-0.1294 0.40627,-0.23906 0.7251,-0.24369 0.51635,-0.008 0.53269,-0.0442 0.14954,-0.33587 -0.5541,-0.42181 -2.08338,-2.829 -2.08338,-3.27939 0,-0.58216 0.63961,-0.3839 1.19397,0.3701 1.42174,1.93372 2.0362,2.45982 2.86833,2.45584 1.72811,-0.008 4.13978,-1.3087 4.13978,-2.23226 0,-0.18074 0.24949,-0.61473 0.55442,-0.96442 0.30492,-0.34969 0.71462,-0.94373 0.91044,-1.3201 0.64931,-1.248 3.03306,-2.69068 3.03306,-1.83565 0,0.14199 -0.42146,0.64168 -0.93657,1.11043 -0.90069,0.8196 -1.50592,1.68449 -1.86583,2.6663 -0.0934,0.25466 -0.27491,0.46302 -0.40346,0.46302 -0.12855,0 -0.23372,0.22206 -0.23372,0.49348 0,0.73658 -0.98665,1.85071 -2.02206,2.28333 -0.50315,0.21023 -1.82689,0.57064 -2.94164,0.80089 -1.11474,0.23026 -2.15058,0.51006 -2.30187,0.62177 -0.15128,0.11172 -0.78278,0.36325 -1.40333,0.55897 -0.62054,0.19571 -1.2602,0.51481 -1.42145,0.70911 -0.16126,0.1943 -0.40619,0.35328 -0.54428,0.35328 -0.1381,0 -0.43628,0.18519 -0.66261,0.41152 -0.35705,0.35705 -1.44912,0.40235 -8.24933,0.34215 -4.3108,-0.0381 -11.52875,0.0663 -16.03989,0.23202 -4.51115,0.16577 -8.662542,0.23248 -9.225312,0.14824 -0.56277,-0.0842 -1.60457,-0.54437 -2.31511,-1.02253 -1.15326,-0.77609 -1.29187,-0.81451 -1.29187,-0.35809 0,0.2812 -0.23813,0.7494 -0.52917,1.04044 -0.44097,0.44097 -0.88195,0.52917 -2.64583,0.52917 -1.17753,0 -2.11667,0.11282 -2.11667,0.25427 0,0.47402 1.15471,1.33323 1.79174,1.33323 0.37646,0 0.99863,0.37584 1.53294,0.92604 0.54468,0.56087 1.15453,0.92604 1.54654,0.92604 0.35598,0 0.80456,0.14883 0.99686,0.33073 0.89854,0.84997 4.502822,1.36337 5.134782,0.73141 0.17132,-0.17132 1.4829,0.1596 3.82323,0.96463 1.95935,0.67398 4.21729,1.32125 5.01766,1.43838 0.80036,0.11714 2.22911,0.40409 3.175,0.63768 3.39016,0.8372 9.89141,1.63456 15.46152,1.89631 2.35891,0.11085 2.79415,0.0559 4.23333,-0.53445 0.88226,-0.3619 2.43754,-0.92105 3.45619,-1.24256 1.77102,-0.55897 2.75839,-0.73279 7.32116,-1.28885 1.42932,-0.17419 2.64212,-0.54012 4.10105,-1.23736 1.13934,-0.54451 2.13107,-1.06631 2.20383,-1.15956 0.0728,-0.0932 0.54901,-0.33581 1.05834,-0.53905 0.50932,-0.20324 1.05453,-0.53898 1.21157,-0.74608 0.22338,-0.29461 0.40674,-0.31169 0.8425,-0.0785 0.30633,0.16395 0.85543,0.29808 1.22021,0.29808 0.7328,0 1.12993,0.39233 0.67914,0.67093 -0.1587,0.0981 -0.88088,0.19807 -1.60484,0.22218 -0.72397,0.0241 -1.39974,0.16046 -1.50171,0.30298 -0.22065,0.30836 -1.02328,0.82599 -1.81336,1.16947 -0.31329,0.1362 -0.65383,0.3839 -0.75675,0.55044 -0.26024,0.42107 -2.42234,1.31734 -3.17788,1.31734 -0.34315,0 -0.69749,0.11906 -0.78743,0.26458 -0.0899,0.14552 -1.07923,0.26551 -2.19842,0.26665 -1.18839,10e-4 -2.91545,0.2291 -4.15158,0.54783 -1.16416,0.30017 -2.81715,0.64532 -3.67329,0.767 -0.85615,0.12168 -1.63006,0.32784 -1.7198,0.45814 -0.0897,0.1303 -0.63941,0.46155 -1.22149,0.73611 -1.20852,0.57004 -4.1024,0.68149 -7.79832,0.30034 l -2.24208,-0.23122 0.91916,0.76011 c 0.50554,0.41806 1.15728,0.97715 1.44832,1.24241 0.53885,0.49112 1.48706,0.49955 3.83646,0.0341 z m -0.26458,-3.48727 c -0.50932,-0.24519 -0.98557,-0.5197 -1.05833,-0.61001 -0.2441,-0.303 -1.9287,-1.0488 -2.36899,-1.0488 -0.45691,0 -1.0706,-0.48533 -1.0706,-0.84667 0,-0.11642 0.3892,-0.21167 0.86489,-0.21167 1.10165,0 6.01428,2.4293 6.01428,2.97406 0,0.35613 -1.42781,0.20208 -2.38125,-0.25691 z M 99.881568,752.0349 c -0.28042,-0.21215 -0.41937,-0.47625 -0.30878,-0.5869 0.27365,-0.27378 5.613022,-0.25665 5.889032,0.0189 0.12124,0.12104 -0.0105,0.38893 -0.29274,0.59531 -0.71211,0.52071 -4.58961,0.50068 -5.287512,-0.0273 z m 54.213102,-20.24653 c -0.21378,-0.34592 0.34532,-1.04675 0.83506,-1.04675 0.20143,0 0.62504,-0.29765 0.94136,-0.66145 0.31632,-0.36381 0.70362,-0.66146 0.86065,-0.66146 0.15703,0 0.43423,-0.23813 0.61599,-0.52917 0.36767,-0.58874 1.11973,-0.71713 1.11973,-0.19116 0,0.43358 -0.75252,1.51408 -1.0545,1.51408 -0.1269,0 -0.67259,0.41672 -1.21263,0.92604 -0.9801,0.92436 -1.78289,1.17212 -2.10566,0.64987 z m -0.25742,-12.49912 c -1.12197,-0.68184 -1.24501,-1.38205 -0.19843,-1.12922 1.2177,0.29418 2.18858,0.79004 2.09671,1.07086 -0.12842,0.39256 -1.28961,0.42826 -1.89828,0.0584 z m -72.439252,39.61596 c 0.81284,-0.3718 1.81724,-0.74387 2.23201,-0.82683 0.41477,-0.0829 0.75412,-0.255 0.75412,-0.38233 0,-0.12733 0.17157,-0.23151 0.38126,-0.23151 0.68724,0 0.73685,-0.54478 0.10576,-1.16129 -0.34062,-0.33275 -0.95181,-1.04102 -1.3582,-1.57394 -0.48866,-0.64081 -0.95377,-0.96894 -1.37344,-0.96894 -0.34901,0 -0.69544,-0.0985 -0.76985,-0.21888 -0.0744,-0.12039 -0.93019,-0.18453 -1.90176,-0.14253 -1.42457,0.0616 -1.83962,0.18076 -2.1443,0.61576 -0.2078,0.29667 -0.52592,0.5394 -0.70694,0.5394 -0.18101,0 -0.62836,0.14122 -0.99409,0.31382 -0.64224,0.30309 -0.64856,0.33023 -0.18504,0.79375 0.26396,0.26396 0.56923,0.48389 0.67837,0.48873 0.29456,0.0131 1.38906,0.96891 1.38906,1.21308 0,0.28794 1.90333,2.21771 2.18732,2.21771 0.12531,0 0.89289,-0.3042 1.70572,-0.676 z m 6.82259,-3.29275 c 0.26339,-0.29105 0.61827,-0.52917 0.78863,-0.52917 0.17037,0 0.56208,-0.26789 0.87048,-0.59531 0.3084,-0.32743 1.01377,-0.82871 1.56748,-1.11396 0.55371,-0.28526 1.03931,-0.53611 1.07911,-0.55745 0.0398,-0.0213 -0.003,-0.23443 -0.0944,-0.47354 -0.0918,-0.23911 -0.44258,-0.43474 -0.77962,-0.43474 -0.60709,0 -2.00623,-1.18361 -2.50847,-2.12205 -0.446,-0.83335 0.34225,-1.31386 2.20459,-1.34391 0.89911,-0.0145 1.9324,-0.11155 2.29621,-0.21566 0.52553,-0.1504 0.35147,-0.22233 -0.84708,-0.35007 -2.21724,-0.23629 -6.56186,0.0521 -7.56585,0.50221 -1.34931,0.60494 -2.8633,0.18584 -7.99124,-2.2121 -2.83018,-1.32345 -3.53668,-1.69782 -3.83646,-2.03292 -0.2973,-0.33232 -3.43466,-2.27967 -3.67276,-2.27967 -0.0844,0 -0.80486,-0.41672 -1.60106,-0.92604 -0.7962,-0.50932 -1.5625,-0.92604 -1.70288,-0.92604 -0.14039,0 -0.29493,-0.0958 -0.34344,-0.21281 -0.0485,-0.11705 -0.92163,-0.54767 -1.94028,-0.95695 -2.89313,-1.1624 -3.12798,-1.29333 -3.83404,-2.13753 -0.36513,-0.43656 -1.37256,-1.4486 -2.23872,-2.24896 -0.86617,-0.80036 -2.20131,-2.05786 -2.967,-2.79444 -0.76568,-0.73658 -1.68541,-1.49618 -2.04384,-1.68801 -0.35842,-0.19182 -1.34725,-1.01792 -2.19739,-1.83577 -0.85014,-0.81784 -1.87399,-1.72511 -2.27521,-2.01615 -0.40123,-0.29105 -1.15172,-1.36261 -1.66775,-2.38125 -0.51603,-1.01865 -1.2964,-2.41322 -1.73416,-3.09905 -0.43776,-0.68583 -0.75521,-1.45837 -0.70545,-1.71676 0.0819,-0.42529 0.14656,-0.4137 0.68275,0.12249 0.64002,0.64002 0.79256,0.37664 0.26817,-0.46305 -0.25575,-0.40952 -0.25575,-0.58732 0,-0.84307 0.20348,-0.20348 0.41329,-0.23056 0.56375,-0.0728 0.54556,0.5722 1.34785,2.29616 1.34785,2.89626 0,0.35444 0.19775,1.05912 0.43945,1.56597 0.33242,0.69708 0.54186,0.87015 0.8599,0.71056 0.23124,-0.11604 1.65868,-0.36379 3.17208,-0.55055 3.23147,-0.3988 4.5418,-1.05985 5.65957,-2.8552 0.61253,-0.98385 0.71692,-1.43891 0.71692,-3.12537 v -1.97385 l -1.23804,-0.78514 c -0.68093,-0.43183 -1.47545,-0.86049 -1.7656,-0.95258 -0.29016,-0.0921 -0.76752,-0.391 -1.06081,-0.66424 -0.59272,-0.5522 -1.01041,-0.61495 -1.69383,-0.25446 -1.98049,1.04467 -4.75443,1.78621 -5.16099,1.37965 -0.30014,-0.30015 -1.95605,0.17166 -3.69002,1.05137 -0.75704,0.38408 -2.63066,0.81662 -4.30842,0.99465 l -1.5875,0.16845 -0.0829,1.19062 c -0.0456,0.65485 -0.1944,1.30374 -0.33073,1.44198 -0.39028,0.39575 -0.31581,1.05879 0.0829,0.73764 0.45036,-0.3628 2.0515,-0.68726 2.04647,-0.4147 -0.008,0.44845 -0.42504,0.80051 -1.62815,1.3754 -0.67942,0.32466 -1.69145,0.9188 -2.24895,1.32032 -1.34246,0.96686 -1.93968,1.18261 -1.93968,0.70074 0,-0.39868 0.78766,-1.24202 1.78593,-1.91218 0.49499,-0.33229 0.59532,-0.64133 0.59532,-1.83373 0,-0.87454 0.16672,-1.68854 0.4273,-2.08623 l 0.42731,-0.65215 h -1.37074 c -1.4717,0 -2.14585,-0.25138 -3.18804,-1.18877 -0.3638,-0.32722 -1.4949,-1.08488 -2.51354,-1.68371 -2.30271,-1.35367 -3.17079,-1.99655 -4.43177,-3.28206 -0.83116,-0.84733 -0.99219,-1.19337 -0.99219,-2.13218 0,-1.86419 -1.23792,-2.3517 -2.6138,-1.02934 -0.20067,0.19286 -0.53259,0.28629 -0.73762,0.20761 -0.20503,-0.0787 -0.44054,0.0335 -0.52336,0.24937 -0.20178,0.52583 -0.86395,0.49594 -1.48609,-0.0671 -0.4821,-0.43629 -0.52473,-0.43629 -0.84376,0 -0.45653,0.62435 -0.81686,0.57969 -1.88281,-0.23335 -0.81729,-0.62337 -0.90878,-0.64327 -0.91224,-0.19844 -0.002,0.27194 -0.182,1.00587 -0.39973,1.63097 -0.29334,0.84216 -0.32281,1.27307 -0.11378,1.66364 0.37205,0.69519 0.0679,1.61934 -0.49744,1.51164 -0.24222,-0.0461 -0.47846,-0.35057 -0.52496,-0.67651 -0.0822,-0.57626 -0.57691,-0.85754 -0.57691,-0.32802 0,0.14552 -0.23812,0.26458 -0.52917,0.26458 -0.73504,0 -0.66177,0.64601 0.1323,1.1663 0.71338,0.46742 0.89338,1.21495 0.29256,1.21495 -0.20289,0 -0.74562,-0.35191 -1.20606,-0.78203 l -0.83717,-0.78204 -0.76898,0.68516 -0.7689704,0.68515 0.6277104,0.49376 c 0.34524,0.27156 0.79899,0.49375 1.00834,0.49375 0.51956,0 2.04944,0.78176 2.04944,1.04725 0,0.1181 0.75671,0.15399 1.68157,0.0797 1.53644,-0.12333 1.71859,-0.0821 2.11058,0.47753 0.5373,0.7671 0.44305,0.86493 -0.49109,0.50977 -0.40878,-0.15542 -1.25572,-0.20459 -1.88878,-0.10966 -1.14422,0.17159 -1.1477,0.17548 -1.1477,1.28251 0,1.04023 0.0711,1.14654 1.12448,1.68239 0.61847,0.31459 1.14383,0.486 1.16748,0.38091 0.0236,-0.10509 0.11813,-0.5301 0.20996,-0.94447 0.14277,-0.64429 0.26169,-0.72962 0.82112,-0.58921 0.5253,0.13184 0.70157,0.0395 0.89477,-0.46863 0.13232,-0.34805 0.54714,-0.87394 0.92181,-1.16866 0.37467,-0.29471 0.68122,-0.66162 0.68122,-0.81535 0,-0.47626 0.86728,-0.81423 1.38223,-0.53864 0.38827,0.2078 0.46985,0.60886 0.46985,2.30973 v 2.05827 l 1.08334,0.57826 c 0.59583,0.31804 1.33237,0.57825 1.63674,0.57825 1.23566,0 4.10719,0.91851 5.35052,1.71145 0.72805,0.46432 1.64315,0.92439 2.03356,1.02238 0.64898,0.16288 1.49382,1.11591 2.79372,3.15148 0.65692,1.02869 1.0513,0.90435 1.2534,-0.39521 0.0962,-0.61846 0.24333,-1.3626 0.32699,-1.65364 l 0.15211,-0.52917 0.20684,0.52917 c 0.11376,0.29104 0.21521,1.3352 0.22543,2.32036 0.0149,1.4366 0.1502,1.99967 0.68338,2.84427 0.36563,0.57919 0.76879,1.05308 0.89591,1.05308 0.12712,0 0.97262,0.71437 1.87889,1.5875 0.90627,0.87312 1.8128,1.5875 2.01451,1.5875 0.20171,0 0.36674,0.11104 0.36674,0.24675 0,0.13571 0.26789,0.32206 0.59532,0.41411 1.24439,0.34981 2.84038,1.28991 3.87084,2.28007 0.58831,0.5653 1.19331,1.02782 1.34445,1.02782 0.15115,0 0.27481,0.11906 0.27481,0.26458 0,0.14552 0.26789,0.26975 0.59531,0.27606 0.32742,0.006 1.07157,0.30308 1.65365,0.65948 0.58208,0.35641 1.47505,0.85726 1.98437,1.11301 0.50933,0.25574 0.96573,0.55429 1.01424,0.66343 0.0485,0.10914 0.30182,0.19844 0.56292,0.19844 0.26109,0 0.60665,0.15897 0.76791,0.35327 0.16126,0.1943 0.7888,0.51684 1.39454,0.71676 0.60575,0.19991 1.15322,0.56183 1.21662,0.80426 0.0664,0.25378 0.88474,0.74267 1.92896,1.15236 0.99753,0.39136 2.29619,1.0611 2.88592,1.48829 0.58972,0.4272 1.23356,0.77672 1.43074,0.77672 0.54494,0 2.10561,0.82603 2.58752,1.3695 0.23535,0.26542 0.53301,0.48308 0.66146,0.48369 0.12845,6.1e-4 0.82886,0.30824 1.55647,0.68362 0.7276,0.37539 1.97776,0.89765 2.77812,1.16059 0.80036,0.26294 2.7649,1.13206 4.36563,1.93138 2.04391,1.02061 3.61937,1.60033 5.29166,1.94716 2.3108,0.47924 2.42612,0.53887 3.89769,2.01521 1.67331,1.67873 2.64166,1.9524 3.51065,0.99219 z m -5.71499,-3.7499 c -1.36395,-0.98354 -2.63492,-2.36092 -2.45185,-2.65714 0.16365,-0.26479 0.89021,-0.27221 0.8926,-0.009 0.001,0.10914 0.43738,0.49515 0.96973,0.85779 0.53236,0.36265 1.30545,0.99688 1.71799,1.40942 1.43761,1.43761 0.68223,1.70472 -1.12847,0.39904 z m -59.33561,-37.97327 c -0.26551,-0.2655 -0.19786,-1.35497 0.0954,-1.53621 0.14552,-0.0899 0.26458,-1.05938 0.26458,-2.15433 0,-1.45109 0.0877,-1.96158 0.32343,-1.883 0.41092,0.13698 0.67485,1.07734 0.70853,2.52448 0.0378,1.62507 -0.85661,3.58438 -1.39193,3.04906 z m 70.4203,40.53637 c 1.62414,-0.54914 1.64934,-0.57181 1.01359,-0.91205 -0.57288,-0.3066 -0.74774,-0.28071 -1.4418,0.21351 -0.43441,0.30933 -0.90208,0.56242 -1.03925,0.56242 -0.29896,0 -1.3887,0.91405 -1.3887,1.16482 0,0.0972 0.26789,0.0322 0.59531,-0.14442 0.32742,-0.17663 1.34481,-0.57455 2.26085,-0.88428 z m -17.48753,-0.94778 c 0.3562,-0.0134 0.30952,-0.0891 -0.1853,-0.30055 -1.86988,-0.79899 -2.34362,-1.08431 -3.43958,-2.07155 -1.14476,-1.0312 -2.62804,-1.94932 -2.82731,-1.75005 -0.23735,0.23735 0.29706,0.93696 1.55051,2.02979 0.74705,0.65133 1.72689,1.55579 2.17743,2.00992 0.76697,0.77309 0.86468,0.80259 1.53362,0.46302 0.39296,-0.19947 0.92874,-0.37073 1.19063,-0.38058 z m 25.349992,-5.55509 c -0.43491,-0.12971 -1.506472,-0.3027 -2.381252,-0.38442 -1.53529,-0.14342 -1.56294,-0.13519 -0.79675,0.2371 0.43657,0.21212 1.50813,0.38511 2.381252,0.38442 1.3455,-10e-4 1.46696,-0.0372 0.79675,-0.2371 z m 7.73342,-0.24783 h 3.04007 l -0.42731,-0.65215 c -0.23501,-0.35869 -0.42912,-0.8647 -0.43135,-1.12448 -0.008,-0.90146 -0.43101,-1.26922 -1.10322,-0.95853 -0.33689,0.15571 -0.96971,0.4319 -1.40627,0.61375 -0.43657,0.18186 -0.97235,0.43355 -1.19063,0.55933 -0.21828,0.12577 -1.02195,0.52708 -1.78593,0.89179 -1.56634,0.74774 -1.79081,1.08136 -0.56224,0.83565 0.45475,-0.091 2.19485,-0.16536 3.86688,-0.16536 z m -14.880172,-1.32292 c -0.52822,-0.34983 -1.2363,-0.52491 -2.11666,-0.52337 -1.48263,0.003 -2.70239,0.49855 -1.32292,0.53791 0.43656,0.0125 1.03188,0.12498 1.32292,0.25004 0.29104,0.12507 1.06495,0.23498 1.71979,0.24425 l 1.19062,0.0168 z m 2.56854,0.2319 c 0.12941,-0.38825 4.200032,-0.38051 4.928532,0.009 0.63361,0.3391 2.07769,0.38369 2.20432,0.0681 0.0485,-0.1209 1.01093,-0.66116 2.13872,-1.20057 1.12778,-0.53941 2.04768,-1.06557 2.04421,-1.16924 -0.003,-0.10368 -0.13879,-0.66475 -0.30071,-1.24683 -0.16191,-0.58209 -0.36743,-2.04071 -0.45671,-3.24138 l -0.16231,-2.18305 -0.92604,0.79336 c -0.50933,0.43635 -1.00721,0.79365 -1.1064,0.79399 -0.0992,3.4e-4 -0.744,0.59593 -1.4329,1.32354 -0.6889,0.7276 -1.40181,1.32291 -1.58426,1.32291 -0.18244,0 -0.96639,0.57721 -1.7421,1.28268 -1.601862,1.4568 -3.455762,2.68607 -4.050962,2.68607 -0.22117,0 -0.40213,0.15875 -0.40213,0.35278 0,0.65478 0.66064,0.97258 0.84874,0.40829 z m 13.372612,-2.77991 c 0.56546,-0.15154 0.59531,-0.28819 0.59531,-2.72482 0,-1.96247 0.11667,-2.81011 0.4965,-3.60716 0.71836,-1.50749 0.90787,-2.23251 0.58353,-2.23251 -0.1532,0 -0.99659,0.37639 -1.8742,0.83642 -1.12465,0.58953 -1.56136,0.9605 -1.47946,1.25677 0.0639,0.23119 0.19749,1.73004 0.29686,3.33077 0.0994,1.60073 0.23463,2.99971 0.30058,3.10885 0.14323,0.23701 0.29778,0.24154 1.08088,0.0317 z m 14.41979,-2.91889 c -0.1819,-0.0734 -0.47956,-0.0734 -0.66146,0 -0.1819,0.0734 -0.0331,0.13346 0.33073,0.13346 0.3638,0 0.51263,-0.0601 0.33073,-0.13346 z m 4.88928,-1.30754 c -0.0879,-0.0879 -0.31612,-0.0973 -0.50712,-0.0209 -0.21106,0.0845 -0.14837,0.14715 0.15986,0.15985 0.27891,0.0115 0.43518,-0.0511 0.34726,-0.13897 z M -0.01796236,734.44579 c 0,-0.14552 -0.11906,-0.26458 -0.26458,-0.26458 -0.14552,0 -0.26458,-0.24516 -0.26458,-0.54479 0,-0.29962 -0.11906,-0.47119 -0.26459,-0.38126 -0.14552,0.0899 -0.26458004,0.45416 -0.26458004,0.80937 0,0.46945 0.14452004,0.64584 0.52917004,0.64584 0.29104,0 0.52916,-0.11906 0.52916,-0.26458 z m 0.79375,-3.59049 c 0,-0.0728 -0.23812,-0.005 -0.52916,0.15091 -0.29104,0.15576 -0.52917,0.34273 -0.52917,0.41549 0,0.0728 0.23813,0.005 0.52917,-0.15091 0.29104,-0.15576 0.52916,-0.34273 0.52916,-0.41549 z m 4.77482996,-1.87905 c 0.11671,-0.12045 0.2632,-0.80649 0.32553,-1.52454 0.12384,-1.42662 -0.17123,-1.86967 -1.92677,-2.89311 l -0.8482,-0.49448 0.18967,0.89136 c 0.10432,0.49024 0.35501,1.07932 0.5571,1.30906 0.40268,0.45779 0.51096,2.625 0.13115,2.625 -0.12995,0 -0.29919,0.16394 -0.37608,0.36432 -0.11127,0.28997 0.0515,0.32117 0.79779,0.15286 0.51568,-0.1163 1.03309,-0.31001 1.14981,-0.43047 z m 2.99904,-0.23274 c 0.0904,-0.23546 0.046,-0.34167 -0.10398,-0.24897 -0.14385,0.0889 -0.26155,0.27368 -0.26155,0.41061 0,0.38059 0.18964,0.29673 0.36553,-0.16164 z m 27.2172804,-0.29378 c -0.1819,-0.0734 -0.33073,-0.29607 -0.33073,-0.49482 0,-0.19874 -0.44648,-0.69416 -0.99219,-1.10092 -0.5457,-0.40676 -1.06698,-0.84287 -1.15841,-0.96914 -0.26281,-0.36298 -2.38438,-0.66776 -2.98939,-0.42944 -0.3017,0.11884 -0.78668,0.29983 -1.07772,0.4022 -0.4015,0.14121 -0.11427,0.29747 1.19063,0.64772 2.33103,0.62566 2.66183,0.74574 4.00015,1.45202 0.63757,0.33647 1.27828,0.61493 1.42381,0.6188 0.14552,0.004 0.11575,-0.053 -0.0661,-0.12642 z M 9.0778176,726.07231 c -0.37928,-0.19677 -0.88435,-0.35022 -1.12237,-0.341 -0.29561,0.0115 -0.24409,0.0926 0.16253,0.25606 0.36298,0.1459 0.59531,0.46514 0.59531,0.81798 0,0.56118 0.016,0.56426 0.52707,0.10172 0.52359,-0.47385 0.52252,-0.47935 -0.16254,-0.83476 z m 2.2617604,0.0155 c -0.17041,-0.20533 -0.44408,-0.36392 -0.60816,-0.35243 -0.18746,0.0131 -0.17541,0.0705 0.0324,0.15434 0.1819,0.0734 0.33073,0.30915 0.33073,0.52389 0,0.21474 0.12484,0.31329 0.27743,0.21898 0.18965,-0.11721 0.1794,-0.28957 -0.0324,-0.54478 z M 164.4892,725.40404 c 0.23594,-0.62507 0.24062,-0.93156 0.0183,-1.19944 -0.49677,-0.59857 -0.81893,-0.24757 -0.85063,0.92682 -0.0355,1.31632 0.38623,1.45447 0.83233,0.27262 z M 14.534128,725.6347 c 0.67521,-0.55735 1.05833,-1.45769 1.05833,-2.48707 0,-0.86979 -0.1952,-1.16779 -1.64886,-2.51713 -0.90688,-0.8418 -1.77909,-1.53054 -1.93826,-1.53054 -0.36158,0 -1.29063,-1.01525 -1.57377,-1.71979 -0.19052,-0.47407 -0.2242,-0.48096 -0.32341,-0.0661 -0.0609,0.25466 -0.2210804,0.46302 -0.3559304,0.46302 -0.13485,0 -0.24519,0.23137 -0.24519,0.51416 0,0.57242 0.9312104,1.33792 1.6275404,1.33792 0.65794,0 2.34121,1.68697 2.34121,2.34635 0,0.31024 0.11907,0.56407 0.26459,0.56407 0.45087,0 0.3088,2.42301 -0.1733,2.95573 -0.40969,0.4527 -0.40543,0.48331 0.0661,0.47544 0.27721,-0.005 0.68262,-0.15584 0.9009,-0.33601 z m 4.84604,0.044 c 0.31785,-0.16525 0.78146,-0.5123 1.03024,-0.7712 0.54583,-0.56806 0.97453,-2.01598 0.51231,-1.73031 -0.16675,0.10305 -0.30318,0.30709 -0.30318,0.45342 0,0.29004 -1.33287,1.4949 -2.22184,2.00845 -0.49173,0.28406 -0.50054,0.32244 -0.0759,0.33073 0.26422,0.005 0.74047,-0.12583 1.05833,-0.29109 z m -6.52597,-0.35252 c -0.082,-0.21362 -0.0464,-0.45187 0.0792,-0.52943 0.1255,-0.0776 0.18701,-0.34927 0.13667,-0.60379 -0.0503,-0.25451 -0.15498,-0.76822 -0.23254,-1.14157 -0.20168,-0.97078 -0.90427,-1.68122 -2.2838,-2.30929 -0.6612804,-0.30106 -1.3583004,-0.83884 -1.5489404,-1.19505 -0.61076,-1.14121 -2.26361,-0.11977 -2.09721,1.29604 0.0656,0.55787 0.36597,0.87916 1.26532,1.35332 0.64863,0.34197 1.24395,0.70902 1.32291,0.81567 0.079,0.10665 0.6793604,0.53836 1.3342104,0.95936 0.65484,0.421 1.36921,0.98386 1.5875,1.25079 0.48089,0.58809 0.63675,0.62519 0.43673,0.10395 z m -2.55341,-0.0144 c 0,-0.076 -1.0120304,-0.7979 -2.2489504,-1.60417 -2.22712,-1.45171 -2.24902,-1.47671 -2.25485,-2.57375 l -0.006,-1.10781 -0.5174,0.66146 c -1.07053,1.3686 -0.53743,2.10333 2.64584,3.64648 2.5219404,1.22256 2.3812504,1.16479 2.3812504,0.97779 z m 12.89467,-0.32479 c 1.06145,-0.43638 1.12609,-0.52393 1.12321,-1.52136 -0.004,-1.24524 -0.0666,-1.34852 -1.45017,-2.37792 -0.58208,-0.43307 -1.31011,-1.05747 -1.61784,-1.38755 -0.30773,-0.33009 -0.72117,-0.60015 -0.91876,-0.60015 -0.20209,0 -0.0976,0.18326 0.23876,0.41887 0.70919,0.49674 1.90097,2.85211 1.90097,3.75699 0,0.35048 -0.24623,0.98304 -0.54719,1.40569 -0.64925,0.91179 -0.36819,0.97932 1.27102,0.30543 z m 4.59912,-0.8099 c 0.31652,-0.8325 0.20425,-2.48881 -0.17716,-2.61376 -0.15704,-0.0514 -0.28998,0.32598 -0.30531,0.86677 -0.0195,0.68965 -0.25668,1.19471 -0.84678,1.80354 l -0.81962,0.84563 0.94487,-0.1103 c 0.71931,-0.084 1.00673,-0.27302 1.204,-0.79188 z m -10.59715,-0.24849 c 1.07317,-1.15302 1.1152,-1.33721 0.4598,-2.01505 -0.33526,-0.34674 -0.79858,-0.85375 -1.02961,-1.1267 -0.77421,-0.91471 -1.82876,-1.68696 -2.29394,-1.67985 -0.35567,0.005 -0.30987,0.10102 0.20045,0.41836 1.20249,0.74777 2.11666,2.31543 2.11666,3.62972 0,0.70639 -0.1348,1.24684 -0.33072,1.3259 -0.18191,0.0734 -0.21128,0.14285 -0.0653,0.15434 0.14599,0.0115 0.57018,-0.30653 0.94265,-0.70672 z m 13.34999,-0.34043 c 0.1837,-0.29724 -0.38565,-1.15405 -0.61467,-0.92503 -0.075,0.075 -0.29618,0.004 -0.49147,-0.15829 -0.2838,-0.23554 -0.35507,-0.1332 -0.35507,0.50982 0,0.44248 -0.0769,1.00487 -0.17086,1.24976 -0.15862,0.41337 -0.11246,0.41506 0.64468,0.0235 0.44855,-0.23195 0.89287,-0.54685 0.98739,-0.69978 z m -10.19246,-1.48651 c 0,-0.19573 -0.13945,-0.35587 -0.30989,-0.35587 -0.17045,0 -0.52836,-0.19771 -0.79538,-0.43935 -0.63196,-0.57192 -0.96433,-0.23955 -0.39241,0.39242 0.24164,0.26701 0.43935,0.76244 0.43935,1.10096 0,0.59873 0.0144,0.60244 0.52916,0.1366 0.29105,-0.26339 0.52917,-0.63903 0.52917,-0.83476 z m 5.82083,0.0173 c 0,-0.69233 -0.89003,-1.67076 -1.53482,-1.68725 -0.21357,-0.005 -0.0881,0.32699 0.33073,0.87606 0.37121,0.48668 0.67493,1.02246 0.67493,1.19063 0,0.16816 0.11906,0.30575 0.26458,0.30575 0.14552,0 0.26458,-0.30833 0.26458,-0.68519 z M 4.6718076,719.20364 c -0.0465,-0.0465 -0.58822,0.40418 -1.20373,1.0016 -1.04539,1.01466 -1.09091,1.11737 -0.69106,1.5592 0.4039,0.44631 0.4718,0.38981 1.20373,-1.0016 0.42662,-0.81102 0.7376,-1.51266 0.69106,-1.5592 z m 102.0034624,2.63154 c -0.1819,-0.0734 -0.47955,-0.0734 -0.66145,0 -0.1819,0.0734 -0.0331,0.13345 0.33073,0.13345 0.3638,0 0.51263,-0.0601 0.33072,-0.13345 z m 1.85209,-0.52917 c -0.1819,-0.0734 -0.47956,-0.0734 -0.66146,0 -0.1819,0.0734 -0.0331,0.13345 0.33073,0.13345 0.3638,0 0.51263,-0.0601 0.33073,-0.13345 z m -88.172402,-1.01036 c 0,-0.38435 -1.21238,-0.86522 -1.48758,-0.59003 -0.10691,0.10691 0.69728,0.64653 1.42143,0.9538 0.0364,0.0154 0.0661,-0.14826 0.0661,-0.36377 z m -7.56617,-2.75488 c -0.28267,-0.56663 -0.36754,-1.15617 -0.25374,-1.76274 0.20049,-1.0687 -0.1408,-1.18688 -0.74862,-0.25923 -0.54486,0.83156 -0.52933,1.45372 0.0537,2.15109 0.41371,0.49484 1.12587,0.91762 1.30608,0.77537 0.037,-0.0292 -0.12383,-0.43624 -0.35742,-0.90449 z m 6.8467,0.35043 c 0.71271,-0.17008 0.73341,-0.22424 0.66145,-1.73074 -0.0408,-0.85534 -0.15707,-1.55589 -0.25827,-1.55678 -0.18915,-0.002 -0.66623,0.80296 -1.37175,2.31349 -0.22089,0.47295 -0.53379,0.8599 -0.69532,0.8599 -0.16154,0 -0.21712,0.12391 -0.12353,0.27535 0.0936,0.15144 0.36851,0.21662 0.61093,0.14485 0.24241,-0.0718 0.77183,-0.2095 1.17649,-0.30607 z m 33.46166,-7.17568 c -0.25466,-0.0666 -0.67138,-0.0666 -0.92604,0 -0.25467,0.0666 -0.0463,0.121 0.46302,0.121 0.50932,0 0.71768,-0.0544 0.46302,-0.121 z m 114.967672,91.92662 c -0.38994,-1.12321 -0.74462,-7.0776 -0.42158,-7.0776 0.46546,0 0.87839,0.63943 0.87839,1.36022 0,0.39887 0.10342,0.78913 0.22983,0.86726 0.1264,0.0781 0.30849,0.65069 0.40462,1.27238 0.0961,0.62169 0.30072,1.52068 0.45463,1.99776 l 0.27984,0.86742 3.47371,-0.0737 3.47371,-0.0737 0.41414,-1.37526 c 0.22779,-0.7564 0.49973,-1.46085 0.60433,-1.56545 0.10461,-0.10461 0.19019,-0.50976 0.19019,-0.90036 0,-0.82908 0.51259,-2.44013 0.84734,-2.66317 0.13181,-0.0878 0.12907,-0.42964 -0.006,-0.79375 -0.13082,-0.35173 -0.31846,-1.37064 -0.41699,-2.26425 -0.15991,-1.45026 -0.84624,-3.84293 -1.4551,-5.0727 -0.84767,-1.71211 -2.40278,-5.08107 -2.65395,-5.74944 -0.16643,-0.44287 -0.74483,-1.2795 -1.28533,-1.85916 -0.54051,-0.57967 -1.33992,-1.51738 -1.77649,-2.08381 -0.43656,-0.56643 -1.01504,-1.21809 -1.28551,-1.44813 -0.27046,-0.23005 -0.82685,-0.74569 -1.23641,-1.14587 -0.40957,-0.40018 -0.85276,-0.7276 -0.98489,-0.7276 -0.13212,0 -0.39416,-0.28763 -0.5823,-0.63917 -0.18814,-0.35155 -0.53568,-0.70528 -0.77231,-0.78607 -0.23664,-0.0808 -0.60884,-0.25562 -0.82712,-0.3885 -0.21828,-0.13288 -0.75406,-0.39909 -1.19062,-0.59158 -0.43657,-0.19249 -0.97235,-0.48295 -1.19063,-0.64547 -0.46077,-0.34305 -3.99523,-1.92106 -5.15937,-2.30347 -0.43657,-0.14341 -2.10344,-0.41931 -3.70417,-0.61311 -4.00442,-0.48483 -10.02251,0.0499 -11.09927,0.98629 -0.13825,0.12022 -0.39783,0.21858 -0.57685,0.21858 -0.17903,0 -1.07795,0.34332 -1.99761,0.76294 -3.20784,1.46366 -4.25604,1.88289 -4.70779,1.88289 -0.44218,0 -2.12227,0.72994 -2.38827,1.03761 -0.22817,0.26391 -2.11708,1.07906 -2.50047,1.07906 -0.20122,0 -0.40554,0.0988 -0.45404,0.21958 -0.11931,0.29704 -2.99337,1.6325 -3.51334,1.6325 -0.22836,0 -0.97987,0.28391 -1.67003,0.63092 -0.69015,0.347 -1.73108,0.85301 -2.31316,1.12447 -0.58209,0.27147 -1.11787,0.56837 -1.19063,0.6598 -0.0728,0.0914 -0.78713,0.37789 -1.5875,0.6366 -1.80157,0.58235 -2.26176,0.75254 -3.47957,1.28686 -0.53131,0.23312 -1.07857,0.42385 -1.21612,0.42385 -0.13755,0 -0.63432,0.19168 -1.10393,0.42595 -0.90747,0.45271 -3.07158,1.11983 -4.38684,1.35231 -0.43656,0.0772 -0.9465,0.26224 -1.13319,0.41128 -0.19218,0.15341 -2.54542,0.32312 -5.42396,0.39115 -7.500042,0.17728 -10.345042,-0.39039 -16.044212,-3.20136 -1.36178,-0.67167 -2.04542,-1.13449 -1.75783,-1.19008 0.25884,-0.05 0.60084,0.0393 0.76001,0.19844 0.15916,0.15917 0.53674,0.28939 0.83906,0.28939 0.30232,0 0.78452,0.15305 1.07157,0.34011 0.28704,0.18705 1.17673,0.55435 1.9771,0.81621 0.80036,0.26186 1.69333,0.57058 1.98437,0.68604 1.53103,0.60739 10.269052,1.72693 10.833192,1.38798 0.13742,-0.0826 1.08992,-0.23243 2.11666,-0.33303 2.14836,-0.21049 4.80078,-0.69857 5.57098,-1.02513 0.29105,-0.1234 1.06495,-0.37774 1.7198,-0.5652 0.65484,-0.18747 1.54781,-0.5157 1.98437,-0.7294 0.43656,-0.2137 0.97692,-0.47589 1.2008,-0.58264 0.22388,-0.10675 0.90786,-0.27871 1.51997,-0.38212 0.6121,-0.10341 1.1801,-0.29673 1.26221,-0.42959 0.0821,-0.13286 0.38039,-0.24156 0.66284,-0.24156 0.28246,0 0.51356,-0.11906 0.51356,-0.26458 0,-0.14552 0.16431,-0.26459 0.36514,-0.26459 0.29847,0 3.20133,-1.32882 5.25366,-2.40493 0.25269,-0.1325 0.62135,-0.2409 0.81925,-0.2409 0.35958,0 1.69154,-0.55959 2.69007,-1.13016 2.18371,-1.2478 5.68092,-2.8284 6.26824,-2.83301 0.39159,-0.003 0.77876,-0.11362 0.86037,-0.24567 0.0816,-0.13205 1.07091,-0.62294 2.19843,-1.09085 1.12752,-0.46792 2.52629,-1.07042 3.10838,-1.33888 0.58208,-0.26847 1.77271,-0.61606 2.64583,-0.77242 0.87313,-0.15636 2.12328,-0.4054 2.77813,-0.55342 3.16056,-0.71443 5.56684,-0.70825 8.46666,0.0217 0.65485,0.16484 1.84547,0.40727 2.64584,0.53872 0.80036,0.13146 2.0797,0.54143 2.84297,0.91107 0.76327,0.36963 1.46641,0.67206 1.56252,0.67206 0.0961,0 0.54319,0.27031 0.99349,0.60069 0.4503,0.33038 1.17591,0.76106 1.61247,0.95708 1.55383,0.69766 1.95952,0.97474 3.7238,2.54327 2.39579,2.12997 2.50611,2.24097 3.41995,3.441 0.43657,0.57328 1.12005,1.38107 1.51886,1.79508 1.06626,1.10692 1.52385,1.82898 1.52385,2.40459 0,0.2813 0.29766,0.90171 0.66146,1.37868 0.3638,0.47697 0.66146,1.05375 0.66146,1.28175 0,0.22799 0.11906,0.41452 0.26458,0.41452 0.14552,0 0.26459,0.18021 0.26459,0.40047 0,0.22026 0.11329,0.60721 0.25176,0.8599 0.13847,0.25268 0.41995,0.87614 0.6255,1.38547 0.96745,2.39719 0.98135,2.37917 0.81625,-1.05834 -0.0874,-1.81901 -0.26602,-3.88909 -0.39701,-4.60017 -0.13099,-0.71109 -0.23817,-1.74504 -0.23817,-2.29767 0,-1.0145 -0.79578,-3.19373 -2.09071,-5.7254 -0.66543,-1.30096 -2.45998,-3.58071 -3.57223,-4.5381 -0.27696,-0.23839 -0.81274,-0.77971 -1.19063,-1.20292 -1.42953,-1.60099 -2.44503,-2.46271 -3.66281,-3.10812 -0.69167,-0.36657 -2.04812,-1.08693 -3.01434,-1.60078 -2.34435,-1.24679 -4.03392,-1.79767 -5.5135,-1.79767 -0.67257,0 -1.34738,-0.12452 -1.49957,-0.2767 -0.32444,-0.32445 -8.38346,-0.17265 -11.47079,0.21606 -2.33858,0.29444 -4.7625,0.89582 -4.7625,1.18159 0,0.11108 -0.14883,0.20255 -0.33073,0.20326 -0.1819,7.1e-4 -1.13081,0.41188 -2.10867,0.91372 -1.69298,0.86882 -2.27675,0.92452 -1.81222,0.17291 0.23508,-0.38038 0.73718,-0.67877 3.06099,-1.81909 1.76085,-0.86408 3.10928,-1.28088 4.89479,-1.51299 0.65485,-0.0851 1.78594,-0.26276 2.51354,-0.39474 1.78136,-0.32313 9.19959,-0.30539 10.84792,0.026 0.7276,0.14626 1.79917,0.32451 2.38125,0.39612 0.58208,0.0716 1.29646,0.22977 1.5875,0.35147 1.58691,0.66356 3.76304,1.75589 4.16719,2.09175 0.25466,0.21163 0.46302,0.291 0.46302,0.17638 0,-0.33407 -1.1202,-1.23356 -2.00895,-1.61314 -0.45007,-0.19222 -1.29546,-0.74266 -1.87863,-1.22321 -1.30481,-1.07518 -3.44369,-2.63643 -4.0891,-2.98479 -0.75553,-0.40779 -0.87554,-1.00448 -0.15759,-0.78355 1.02337,0.31492 3.6824,1.96415 4.91243,3.04686 0.64882,0.57112 1.39144,1.03839 1.65027,1.03839 0.41231,0 3.40915,2.44785 3.64414,2.97656 0.0485,0.10914 0.25082,0.19844 0.44959,0.19844 0.72646,0 5.67992,5.31489 5.67992,6.09436 0,0.28612 0.11906,0.52022 0.26459,0.52022 0.14552,0 0.26458,0.16402 0.26458,0.36448 0,0.20047 0.16708,0.50314 0.37128,0.67262 0.3971,0.32956 1.74539,2.94088 1.74539,3.3804 0,0.14504 0.18746,0.6395 0.41659,1.0988 0.66785,1.33872 1.25227,5.66941 1.36141,10.08832 0.10933,4.42638 0.0119,5.29747 -0.59242,5.29747 -0.43981,0 -0.50943,0.29677 -0.15827,0.67468 0.12845,0.13825 0.37005,1.21282 0.53688,2.38793 0.25099,1.76797 0.23419,2.42985 -0.0974,3.83646 -0.22037,0.93494 -0.40244,2.20972 -0.40459,2.83286 -0.002,0.62314 -0.17643,1.54587 -0.38729,2.05052 l -0.38337,0.91755 h -4.85514 -4.85514 z m -65.42444,-5.80437 c -21.002852,-0.19653 -40.805882,-0.61347 -42.399482,-0.8927 -1.39744,-0.24485 -1.23443,-0.64445 0.26458,-0.64858 0.69123,-0.002 4.82865,-0.0912 9.19427,-0.19844 18.85793,-0.46321 82.797292,-0.0289 94.134822,0.63936 2.94969,0.17387 3.66966,0.58005 1.62356,0.91596 -1.63384,0.26822 -41.3883,0.38493 -62.81775,0.1844 z M 64.483048,728.77165 c -0.47779,-0.50141 -1.01658,-1.09066 -1.19731,-1.30947 -0.75116,-0.90941 -1.63128,-3.80047 -1.4427,-4.73903 0.089,-0.44294 0.131,-0.4375 0.57504,0.0745 0.26347,0.30378 0.55931,0.98023 0.65742,1.50323 0.18772,1.00058 1.08238,2.54681 2.31593,4.00256 1.34315,1.5851 0.54697,1.99548 -0.90838,0.46822 z m -78.05391,-54.31576 c 0.62231,-0.0559 1.57481,-0.0551 2.11667,0.002 0.54186,0.0569 0.0327,0.10258 -1.13147,0.10162 -1.16417,-9.6e-4 -1.60751,-0.0475 -0.9852,-0.10337 z"
       id="path22" /></g></svg>
