<?xml version="1.0" encoding="UTF-8" standalone="no"?>
<!-- Created with Inkscape (http://www.inkscape.org/) -->

<svg
   width="52.343906mm"
   height="136.77287mm"
   viewBox="0 0 52.343912 136.77287"
   version="1.1"
   id="svg1"
   xml:space="preserve"
   xmlns="http://www.w3.org/2000/svg"
   xmlns:svg="http://www.w3.org/2000/svg"><defs
     id="defs1" /><g
     id="layer1"
     transform="translate(551.83468,-302.73562)"><path
       style="fill:#4d4d4d;stroke-width:0.844766"
       d="m -551.77578,439.4816 c -0.0325,-0.0329 -0.0589,-30.81421 -0.0589,-68.4029 v -68.34308 l 0.17256,0.0337 0.17255,0.0337 0.0493,15.71069 0.0493,15.71068 0.17245,-0.32008 c 0.0948,-0.17604 0.33802,-0.44625 0.54038,-0.60046 0.99735,-0.76004 1.36721,-1.13508 1.89006,-1.91649 0.452,-0.67553 0.89669,-2.06211 0.8991,-2.80349 0.003,-0.94828 0.33829,-0.94721 0.71064,0.003 0.43419,1.10719 0.47111,1.32006 0.47111,2.71623 0,1.6173 -0.14441,2.65669 -0.64929,4.67334 -0.0525,0.20964 0.003,0.1772 0.33843,-0.20015 0.22058,-0.24769 0.40295,-0.50664 0.40526,-0.57544 0.003,-0.0688 0.0375,-0.12518 0.0781,-0.12527 0.0644,-1.6e-4 0.68546,-1.1809 0.92117,-1.75117 0.36096,-0.87331 0.68543,-2.23096 0.88112,-3.68676 0.16906,-1.25772 0.0137,-2.41522 -0.80823,-6.02068 -0.12937,-0.56753 -0.15871,-4.04165 -0.038,-4.50346 0.0432,-0.16513 0.2433,-0.66221 0.44478,-1.10462 0.45886,-1.00757 1.19096,-1.82264 2.37871,-2.64829 1.09765,-0.763 1.99011,-1.59378 2.20433,-2.05194 0.16618,-0.35542 0.45015,-0.47797 0.45015,-0.19426 0,0.27496 -0.37448,0.98489 -0.70975,1.34554 -0.39661,0.42665 -0.92248,0.84211 -1.70608,1.34788 -2.68391,1.73232 -3.55499,5.23616 -1.79212,7.20868 0.40164,0.4494 0.425,0.40404 0.21443,-0.41645 -0.31304,-1.21981 -0.12981,-2.47503 0.48182,-3.30043 0.49644,-0.66999 1.26859,-1.18005 3.3961,-2.24343 2.24258,-1.12088 2.87997,-1.62047 3.21856,-2.52275 0.24401,-0.65023 0.16871,-1.91044 -0.14491,-2.42548 -0.20199,-0.33169 -0.2124,-0.65032 -0.0212,-0.65032 0.0459,0 0.47394,0.49148 0.9512,1.09218 0.47726,0.60071 0.94769,1.11341 1.04541,1.13934 0.0977,0.026 0.26812,0.22123 0.37869,0.43399 0.45701,0.87932 0.0482,-0.91151 -0.43856,-1.92131 -0.65957,-1.36823 -2.02053,-2.37231 -4.08472,-3.01361 -0.39297,-0.1221 -0.90896,-0.16882 -1.8735,-0.16967 -1.13653,-8.5e-4 -1.48905,0.0397 -2.41089,0.27853 -0.91724,0.23762 -1.93571,0.61972 -2.51938,0.94519 -0.90247,0.50326 -1.20456,0.68876 -1.62698,0.99903 -0.944,0.69336 -1.83613,1.57131 -2.63504,2.59315 -0.26897,0.34401 -0.52636,0.62548 -0.57199,0.62548 -0.0456,0 -0.11183,-0.0923 -0.1471,-0.20514 -0.0827,-0.2645 0.49183,-1.04127 1.62853,-2.2017 0.97321,-0.99353 2.35725,-1.99897 3.5498,-2.57877 0.96336,-0.46837 1.23735,-0.56324 2.92029,-1.01107 0.59492,-0.15831 2.9787,-0.13664 3.60749,0.0328 2.5457,0.68596 4.25557,2.1059 4.80152,3.98737 0.0599,0.20641 0.15327,0.52485 0.20751,0.70765 0.0542,0.18279 0.0986,0.48707 0.0986,0.67617 0,0.1891 0.0455,0.50115 0.10118,0.69343 0.14894,0.51465 0.1612,2.47516 0.0163,2.62212 -0.0646,0.0656 -0.11757,0.38142 -0.11757,0.70176 0,0.60139 0.18243,1.01458 0.75781,1.7164 0.28071,0.34239 0.52405,0.90303 0.52405,1.20736 0,0.29487 -0.49889,0.76288 -0.90414,0.84817 l -0.32842,0.0691 0.0208,0.34521 c 0.0115,0.18987 0.0497,0.54052 0.0851,0.77922 0.0401,0.27072 0.023,0.47591 -0.0455,0.54542 -0.0604,0.0613 -0.10978,0.29676 -0.10978,0.52331 v 0.4119 l -0.38406,0.21908 c -0.44181,0.25202 -0.50339,0.37078 -0.50339,0.97094 0,0.23994 -0.0444,0.46409 -0.0986,0.49811 -0.0543,0.034 -0.0986,0.14079 -0.0986,0.23728 0,0.0965 -0.14421,0.28522 -0.32046,0.41941 l -0.32047,0.244 -1.22376,0.0335 c -0.71108,0.0195 -1.41334,-0.0146 -1.67629,-0.0814 -0.85539,-0.21719 -1.2416,-0.33864 -1.35775,-0.42698 -0.21881,-0.16642 -0.35968,0.34376 -0.3683,1.33372 -0.01,1.10522 0.11102,1.43808 0.5739,1.58353 0.16786,0.0528 1.14827,0.12453 2.1787,0.15953 2.46019,0.0836 5.98104,-0.17179 9.07168,-0.65791 1.99378,-0.3136 2.06029,-0.33196 2.47571,-0.68378 0.16851,-0.14272 0.39817,-0.33499 0.51034,-0.42727 0.22435,-0.18457 0.20185,-0.48936 -0.0519,-0.70311 -0.0829,-0.0698 -0.37643,-0.15007 -0.65242,-0.17841 -0.4043,-0.0415 -0.52471,-0.0983 -0.61972,-0.29242 -0.0648,-0.13248 -0.24811,-0.29643 -0.40725,-0.36434 -0.22983,-0.0981 -0.30217,-0.20495 -0.35175,-0.51967 -0.0344,-0.21791 -0.15646,-0.51751 -0.27138,-0.6658 l -0.20894,-0.26959 -0.8106,0.0667 -0.8106,0.0667 -0.17004,-0.36368 c -0.11268,-0.241 -0.16451,-0.57431 -0.15365,-0.98811 0.009,-0.34344 -0.0173,-1.02203 -0.0586,-1.508 l -0.075,-0.88358 -0.44481,-0.21726 c -0.24464,-0.11951 -0.48062,-0.28482 -0.52437,-0.36739 -0.5032,-0.94952 -0.9651,-2.1018 -1.1032,-2.75211 -0.0935,-0.44034 -0.24212,-1.07083 -0.33024,-1.40108 -0.32631,-1.22296 -0.25784,-2.58418 0.17435,-3.46544 0.19923,-0.40625 0.76515,-0.92681 1.8615,-1.71231 0.40613,-0.29098 0.75537,-0.61838 0.77608,-0.72755 0.0468,-0.2467 0.27369,-0.54815 0.931,-1.23705 0.87404,-0.91605 2.12849,-1.6717 3.73651,-2.25079 1.33505,-0.48078 2.85401,-0.32199 4.19761,0.43881 1.79404,1.01587 2.85266,2.21593 3.57312,4.05057 0.49895,1.27056 0.65501,2.42973 0.7882,5.85449 0.046,1.18341 0.1147,2.32482 0.1526,2.53648 l 0.0689,0.38483 0.30859,-0.0511 c 0.16972,-0.0281 0.73012,-0.17077 1.24533,-0.31699 1.28206,-0.36387 2.33545,-0.38133 3.01087,-0.0499 1.20693,0.59224 2.11335,2.06795 2.19502,3.57365 0.0321,0.59229 -2.4e-4,0.96218 -0.1155,1.3198 -0.0881,0.27329 -0.16013,0.51825 -0.16013,0.54436 0,0.0261 0.46509,0.63766 1.03352,1.35901 2.5332,3.21462 2.7493,3.78479 2.68216,7.0769 -0.0564,2.76226 -0.24299,4.31982 -0.68853,5.74512 -0.0766,0.24484 -0.18953,0.62531 -0.25108,0.84548 -0.2374,0.84921 -0.62257,2.11189 -0.71119,2.33149 -0.0511,0.12643 -0.0928,0.33769 -0.0928,0.46945 0,0.13177 -0.0444,0.26742 -0.0986,0.30144 -0.0542,0.034 -0.0986,0.19217 -0.0986,0.35146 0,0.15929 -0.0397,0.39307 -0.0884,0.5195 -0.0486,0.12644 -0.14182,0.54512 -0.20714,0.93042 -0.0653,0.38529 -0.17708,1.01578 -0.24838,1.40107 -0.0713,0.38529 -0.18078,1.01578 -0.24331,1.40108 -0.0625,0.38529 -0.15257,0.92571 -0.20009,1.20092 -0.0476,0.27521 -0.13745,0.83814 -0.19983,1.25096 -0.22541,1.49173 -0.32038,1.8613 -0.6301,2.45188 -0.1732,0.33025 -0.37544,0.75808 -0.44944,0.95073 -0.074,0.19264 -0.3486,0.81694 -0.61022,1.38732 -0.59684,1.30116 -0.59677,1.30052 -0.11057,1.10214 0.1517,-0.0619 0.37565,-0.15197 0.49767,-0.20016 0.12203,-0.0482 0.32171,-0.12846 0.44373,-0.17838 0.46102,-0.18862 1.13709,-0.44026 1.94745,-0.72487 0.46098,-0.1619 0.92689,-0.33477 1.03535,-0.38415 0.23127,-0.10529 2.1121,-0.77036 2.61305,-0.92399 0.18981,-0.0582 0.45604,-0.14347 0.59162,-0.18947 0.60361,-0.20478 1.50435,-0.27936 2.00631,-0.16611 1.22598,0.27659 2.27204,1.54558 2.62965,3.19 0.15021,0.69073 0.0844,2.26939 -0.12064,2.89212 -0.0815,0.24769 -0.20502,0.653 -0.27441,0.90069 -0.2582,0.92175 -0.2982,1.06088 -0.43171,1.50115 -0.0751,0.24769 -0.23778,0.7881 -0.36151,1.20092 -0.12374,0.41282 -0.26231,0.79336 -0.30794,0.84565 -0.0456,0.0523 -0.083,0.17675 -0.083,0.27657 0,0.0998 -0.0412,0.25969 -0.0916,0.35527 -0.0504,0.0956 -0.25577,0.62412 -0.45644,1.17454 -0.20069,0.55043 -0.40353,1.04356 -0.45077,1.09584 -0.0472,0.0523 -0.0859,0.15426 -0.0859,0.22659 0,0.34662 -2.35087,5.30381 -3.40695,7.1841 -0.30915,0.55042 -0.65041,1.15839 -0.75837,1.35103 -0.3804,0.67886 -1.09428,1.86173 -1.67683,2.77841 l -0.5891,0.927 0.67655,0.71878 c 2.25631,2.3972 2.82612,2.96236 3.53217,3.50335 0.43171,0.33079 0.85325,0.62741 0.93675,0.65918 0.19447,0.074 1.14608,0.68803 1.40223,0.90482 0.46632,0.39469 0.554,0.49161 0.86874,0.96042 0.29317,0.4367 0.33267,0.57337 0.33891,1.1726 0.009,0.87314 -0.20521,1.14442 -0.88306,1.1178 l -0.44104,-0.0174 v 0.22704 c 0,0.3143 -0.32979,0.59645 -0.61289,0.52434 -0.17925,-0.0457 -0.2626,0.006 -0.40009,0.24943 -0.14313,0.25312 -0.22328,0.29973 -0.45583,0.26509 -0.20198,-0.03 -0.31583,0.0127 -0.40064,0.15051 -0.0959,0.15592 -0.18982,0.18097 -0.49347,0.13169 -0.26962,-0.0437 -0.40933,-0.0189 -0.49719,0.0886 -0.3154,0.38572 -1.05085,-0.0426 -1.27924,-0.74492 -0.0727,-0.22365 -0.17408,-0.40664 -0.22522,-0.40664 -0.0512,0 -0.31722,-0.20462 -0.59128,-0.4547 -0.27407,-0.25009 -0.5283,-0.41896 -0.56497,-0.3753 -0.10348,0.12325 0.0649,7.49744 0.18919,8.28571 0.42921,2.72209 0.95171,3.971 2.23725,5.34756 0.44028,0.47146 0.92809,1.01482 1.08402,1.20747 0.15594,0.19265 0.3473,0.41782 0.42524,0.50038 0.44079,0.4669 1.42042,2.15428 1.88827,3.2525 0.20667,0.48512 0.65945,2.36533 0.86759,3.60276 0.4361,2.59255 0.50506,4.11917 0.51039,11.29799 0.006,7.79763 0.11187,9.75232 0.68489,12.62036 0.23767,1.18955 0.23763,1.22224 -0.002,1.35215 -0.21934,0.11915 -0.5509,0.23588 -1.13189,0.39853 -0.86195,0.2413 -1.84132,0.48735 -2.36652,0.59454 -0.3254,0.0664 -0.75208,0.16262 -0.94819,0.21378 -0.19611,0.0511 -0.47938,0.093 -0.62949,0.093 -0.15012,0 -0.43339,0.0424 -0.6295,0.0942 -0.19611,0.0518 -0.88903,0.14525 -1.53982,0.20766 -0.65079,0.0624 -1.24983,0.14792 -1.33117,0.19003 -0.0813,0.0421 -0.36025,0.19635 -0.61979,0.34277 -0.60424,0.34088 -1.16953,0.35811 -1.37636,0.0419 l -0.14671,-0.22425 -0.25263,0.13723 c -0.15795,0.0858 -0.35691,0.11055 -0.53091,0.066 -0.15305,-0.0392 -0.44495,-0.0948 -0.64866,-0.1237 -0.20371,-0.0289 -0.39492,-0.0928 -0.42489,-0.14206 -0.03,-0.0492 -0.22394,-0.0895 -0.43103,-0.0895 -0.2144,0 -0.42938,-0.0646 -0.49928,-0.15012 -0.0803,-0.0983 -0.30014,-0.15012 -0.63658,-0.15012 -0.44172,0 -0.56325,-0.0456 -0.86602,-0.32524 -0.47445,-0.43815 -0.60723,-0.87246 -0.41547,-1.35888 0.0805,-0.20426 0.24552,-0.43463 0.36666,-0.51192 0.55058,-0.35133 2.69927,-1.40672 2.86397,-1.40672 0.10097,0 0.36833,-0.12719 0.59412,-0.28264 0.2258,-0.15546 0.70806,-0.48023 1.07169,-0.72171 0.36364,-0.24149 0.64307,-0.45743 0.62096,-0.47987 -0.0221,-0.0225 -0.34182,0.0282 -0.71046,0.11257 -0.88771,0.20312 -1.6656,0.35467 -2.14933,0.41871 -0.97103,0.12856 -1.94077,0.24841 -2.76095,0.34124 -1.63632,0.18518 -2.39936,0.30385 -3.27315,0.50906 -0.47755,0.11214 -1.09013,0.25619 -1.3613,0.32009 -0.27116,0.0639 -0.95893,0.11679 -1.52837,0.11751 -1.12468,0.002 -1.56126,-0.1496 -2.04325,-0.70671 -0.30802,-0.35603 -0.35554,-0.57648 -0.21682,-1.00587 0.16504,-0.51084 0.28865,-0.61424 1.60742,-1.34466 0.16914,-0.0937 0.38518,-0.17249 0.48009,-0.17514 0.0949,-0.003 0.17256,-0.045 0.17256,-0.0942 0,-0.10687 0.034,-0.12128 1.47907,-0.62619 0.62368,-0.21791 1.22271,-0.43419 1.33117,-0.48062 2.91442,-1.24747 3.68101,-1.87221 4.30383,-3.50743 0.0934,-0.24513 0.13147,-0.83089 0.12696,-1.95149 -0.007,-1.74065 -0.0407,-1.99066 -0.74769,-5.55426 -0.16925,-0.85316 -0.34204,-1.73133 -0.38396,-1.95151 -0.0419,-0.22016 -0.12332,-0.64799 -0.18088,-0.95072 -0.15998,-0.84126 -0.47375,-2.27793 -0.65571,-3.0023 -0.0899,-0.35778 -0.18664,-0.7749 -0.21503,-0.92693 -0.0284,-0.15205 -0.0909,-0.30107 -0.13887,-0.33116 -0.048,-0.0301 -0.0872,-0.14275 -0.0872,-0.25033 0,-0.10758 -0.0399,-0.27381 -0.0888,-0.36938 -0.0488,-0.0956 -0.21162,-0.48902 -0.36177,-0.87431 -0.15015,-0.3853 -0.42449,-1.0383 -0.60965,-1.45112 -0.18514,-0.41281 -0.46891,-1.11085 -0.63059,-1.55119 -0.16167,-0.44034 -0.33548,-0.90406 -0.38624,-1.0305 -0.0507,-0.12643 -0.0923,-0.29888 -0.0923,-0.38323 0,-0.13146 -0.3153,-1.03182 -0.59135,-1.68865 -0.68896,-1.6393 -1.50128,-4.16604 -1.91432,-5.95457 -0.19703,-0.85314 -0.40163,-1.72006 -0.45467,-1.92648 -0.053,-0.2064 -0.13993,-0.54416 -0.1931,-0.75057 -0.0532,-0.2064 -0.20882,-0.87067 -0.34588,-1.47613 -0.13708,-0.60547 -0.29203,-1.25847 -0.34435,-1.45111 -0.14318,-0.52716 -0.68184,-2.82539 -0.80292,-3.42568 -0.11363,-0.56344 -0.235,-1.09788 -0.38679,-1.70325 -0.14376,-0.57336 -0.60551,-2.60721 -0.90315,-3.97806 -0.11531,-0.5311 -0.16707,-0.76336 -0.524,-2.3518 -0.14842,-0.66051 -0.30855,-1.39232 -0.35584,-1.62624 -0.0473,-0.23394 -0.1339,-0.63925 -0.19246,-0.9007 -0.0585,-0.26145 -0.12899,-0.68333 -0.15654,-0.93751 l -0.0501,-0.46215 -0.41043,-0.12343 c -0.22574,-0.0679 -0.64612,-0.25398 -0.93418,-0.41353 -0.28807,-0.15955 -0.6273,-0.29008 -0.75384,-0.29008 -0.44474,0 -0.936,-0.81733 -0.93955,-1.56312 l -0.002,-0.31216 -0.36978,-0.062 c -0.20337,-0.0341 -0.57715,-0.0626 -0.83062,-0.0631 -0.66406,-0.002 -2.115,-0.29614 -3.26757,-0.66335 -0.7553,-0.24064 -2.28589,-0.98627 -2.57377,-1.25381 -0.0802,-0.0746 -0.38448,-0.33818 -0.6762,-0.58587 -0.55628,-0.47232 -1.06967,-1.06979 -1.34081,-1.56039 -0.0885,-0.16006 -0.18478,-0.31354 -0.21404,-0.34106 -0.0895,-0.0842 -0.55088,-1.22654 -0.66692,-1.65127 -0.46491,-1.70159 -0.49103,-3.32197 -0.11213,-6.95533 0.28583,-2.74097 0.10501,-5.63807 -0.48876,-7.83077 -0.28098,-1.0376 -0.5371,-1.71621 -0.99994,-2.64946 -0.50487,-1.01796 -0.8409,-1.59127 -1.09061,-1.86069 -0.11149,-0.1203 -0.27695,-0.3454 -0.36768,-0.50023 -0.0907,-0.15483 -1.00805,-1.10036 -2.03847,-2.10118 -3.41286,-3.31481 -4.79826,-4.77587 -5.45643,-5.75445 -0.72563,-1.07886 -1.20548,-2.0845 -1.48751,-3.11746 -0.11009,-0.40319 -0.22342,-0.75669 -0.25185,-0.78554 -0.0284,-0.0288 -0.0516,23.16553 -0.0516,51.54307 0,44.17158 -0.0199,51.60329 -0.13827,51.6494 -0.0761,0.0296 -0.1648,0.0269 -0.19721,-0.006 z m 42.31201,-2.34891 c 0.1517,-0.0664 0.45329,-0.24022 0.67023,-0.38623 0.32155,-0.21644 0.5213,-0.26881 1.08125,-0.28353 0.88004,-0.0231 3.42817,-0.41071 4.63785,-0.70546 0.21693,-0.0529 0.57191,-0.13922 0.78884,-0.19192 0.21693,-0.0527 0.77159,-0.20477 1.23256,-0.33792 l 0.83815,-0.2421 -0.0145,-0.29213 c -0.008,-0.16068 -0.0618,-0.56234 -0.11956,-0.8926 -0.0578,-0.33025 -0.20214,-1.4336 -0.32083,-2.45188 l -0.21578,-1.85142 0.0179,-6.70514 c 0.017,-6.37446 -0.0337,-8.1653 -0.29353,-10.35795 -0.23769,-2.006 -0.63945,-3.82219 -1.07367,-4.85372 -0.82114,-1.95062 -1.75518,-3.39398 -3.10747,-4.80193 -0.80518,-0.83831 -1.25613,-1.44099 -1.70822,-2.28299 -0.78348,-1.45919 -0.97052,-2.83261 -1.05226,-7.72644 -0.0906,-5.42325 -0.23557,-8.21345 -0.52785,-10.15779 -0.2241,-1.49082 -0.4008,-2.193 -0.6037,-2.39892 -0.17433,-0.17693 -0.19633,-0.28382 -0.14275,-0.69368 0.0409,-0.31336 0.0246,-0.50881 -0.0463,-0.55328 -0.0603,-0.0378 -0.10964,-0.14842 -0.10964,-0.24577 0,-0.17603 -0.40948,-1.30452 -0.59371,-1.63623 -0.11993,-0.21592 -0.12695,-1.00369 -0.0101,-1.13223 0.27023,-0.29725 1.00001,-1.78994 1.3723,-2.80685 0.6088,-1.66302 0.74411,-2.49668 0.75278,-4.63827 0.008,-1.81957 -0.0866,-2.43694 -0.44441,-2.91832 l -0.16544,-0.2226 -0.62827,0.33366 c -0.34554,0.1835 -1.11636,0.59517 -1.71292,0.91482 -1.1726,0.62829 -4.78586,2.45525 -6.45865,3.26566 -1.90522,0.92302 -2.66328,1.27894 -4.31397,2.0255 -0.28472,0.12877 -0.51767,0.28992 -0.51767,0.35811 0,0.0682 0.082,0.31911 0.18232,0.55761 0.45587,1.0842 0.37927,1.8204 -0.25655,2.46572 -0.49578,0.50316 -0.49258,0.31111 -0.0361,2.17112 0.27397,1.11646 0.37681,1.60982 0.60492,2.90223 0.53198,3.01392 0.86359,4.45531 1.63475,7.10544 0.48382,1.6627 1.39325,4.35302 1.86063,5.50422 0.067,0.16513 0.1774,0.45786 0.24524,0.65051 0.23053,0.65462 0.35811,0.97581 0.68525,1.72523 0.11387,0.26085 0.20703,0.49605 0.20703,0.52266 0,0.33811 2.46796,5.13554 2.75629,5.35794 0.14712,0.11347 1.87816,2.68337 1.87816,2.7883 0,0.0626 0.0339,0.11393 0.0754,0.11393 0.0859,0 0.35588,0.59897 0.62651,1.39018 0.1015,0.29673 0.22443,0.58946 0.27317,0.6505 0.24146,0.30236 1.38547,2.58809 1.88377,3.76377 0.17497,0.41281 0.37782,0.88567 0.45077,1.0508 0.19837,0.44899 0.53518,1.34258 0.69783,1.85142 0.0792,0.24769 0.18453,0.54041 0.23412,0.6505 0.11388,0.25279 0.53689,1.6205 0.73513,2.37682 0.0829,0.3165 0.21324,0.81188 0.28953,1.10085 0.55458,2.10079 0.97476,4.83853 1.27819,8.32819 0.13344,1.53469 0.0717,3.07224 -0.14889,3.70604 -0.39709,1.14107 -1.26523,2.23818 -2.50057,3.1601 -0.32539,0.24283 -0.61381,0.46538 -0.64093,0.49455 -0.18829,0.20249 -2.57508,1.69945 -2.70965,1.69945 -0.2129,0 -2.76187,1.26892 -2.90803,1.44767 -0.0833,0.10194 -0.0471,0.18237 0.15467,0.34349 0.37895,0.30253 1.22298,0.27269 1.22298,-0.0432 0,-0.15351 0.67851,-0.74715 0.85397,-0.74715 0.15848,0 0.26013,0.34868 0.1781,0.61096 -0.0548,0.17532 -0.0122,0.15854 0.25449,-0.10007 0.3562,-0.34549 0.53613,-0.38932 0.62569,-0.15244 0.11032,0.29177 0.0617,0.43023 -0.25704,0.7326 -0.17429,0.16533 -0.28717,0.33076 -0.25084,0.36764 0.0363,0.0369 0.27119,-0.14114 0.52189,-0.39559 0.56708,-0.57554 0.83469,-0.61056 0.83469,-0.10923 0,0.22182 -0.0551,0.37485 -0.14791,0.41102 -0.0813,0.0317 -0.14791,0.0964 -0.14791,0.14383 0,0.12452 0.28248,0.002 0.77347,-0.33593 0.2356,-0.16208 0.56839,-0.30086 0.73955,-0.3084 l 0.31118,-0.0137 v 0.34891 c 0,0.26506 -0.0457,0.35783 -0.19023,0.38607 -0.10464,0.0204 -0.25202,0.0999 -0.32752,0.17651 -0.16837,0.17088 -0.11525,0.17496 0.24194,0.0185 z m -3.22016,-0.68843 c 0.16175,-0.30673 0.0625,-0.32691 -0.20209,-0.0411 -0.18767,0.20275 -0.20078,0.2498 -0.0696,0.2498 0.0889,0 0.21116,-0.0939 0.27169,-0.20872 z m -6.85759,-3.58576 c 0.27117,-0.0546 0.7038,-0.14642 0.96141,-0.20398 0.2576,-0.0575 0.67914,-0.14983 0.93675,-0.20502 0.45527,-0.0975 2.46222,-0.37522 4.36328,-0.60371 0.51521,-0.062 1.11424,-0.15035 1.33117,-0.19652 0.21693,-0.0462 0.66065,-0.13773 0.98605,-0.20349 0.32539,-0.0658 0.87319,-0.20961 1.21733,-0.31969 l 0.62568,-0.20015 -0.0512,-1.31468 c -0.0282,-0.72308 -0.10876,-1.76503 -0.17913,-2.31545 -0.14699,-1.14963 -0.16469,-5.74835 -0.0379,-9.84364 0.0831,-2.68345 0.0308,-3.72878 -0.29461,-5.89931 -0.12183,-0.81234 -0.23667,-1.13261 -0.89713,-2.50192 -0.41659,-0.86368 -0.87746,-1.75047 -1.02418,-1.97063 -0.14671,-0.22017 -0.34598,-0.648 -0.44282,-0.95073 -0.0968,-0.30274 -0.2676,-0.75308 -0.37948,-1.00077 -0.20509,-0.45407 -1.03871,-1.90872 -1.14701,-2.00154 -0.0321,-0.0275 -0.20838,-0.29059 -0.3917,-0.58461 -0.18331,-0.29401 -0.38388,-0.58673 -0.4457,-0.65049 -0.43297,-0.44656 -1.8603,-3.04854 -2.56144,-4.66942 -0.15476,-0.35777 -0.38077,-0.87568 -0.50225,-1.15089 -0.12147,-0.27521 -0.30989,-0.70303 -0.4187,-0.95073 -0.63186,-1.43828 -1.98244,-5.2378 -2.43676,-6.85525 -0.0928,-0.33025 -0.20334,-0.71305 -0.24572,-0.85066 -0.0423,-0.1376 -0.13171,-0.45284 -0.19852,-0.70053 -0.0668,-0.24769 -0.15776,-0.56293 -0.20211,-0.70054 -0.10888,-0.33781 -0.49925,-2.04347 -0.59554,-2.602 -0.0427,-0.24768 -0.10405,-0.58545 -0.13633,-0.75057 -0.0878,-0.44909 -0.22767,-1.22679 -0.34196,-1.90146 -0.29445,-1.73832 -0.57079,-2.97072 -0.88639,-3.95303 -0.31777,-0.98908 -0.29749,-0.97407 -0.91503,-0.67731 -0.71601,0.34408 -1.41073,0.57724 -1.71993,0.57724 h -0.25457 l 0.065,0.27521 c 0.11983,0.50739 0.52101,2.34196 0.84803,3.87797 0.0469,0.22016 0.12673,0.58045 0.17744,0.80061 0.0507,0.22017 0.18626,0.82814 0.3012,1.35104 0.11494,0.5229 0.25025,1.13087 0.3007,1.35103 0.0505,0.22017 0.14199,0.62548 0.20345,0.90069 0.0615,0.27521 0.15167,0.65801 0.20049,0.85066 0.0488,0.19265 0.15483,0.64299 0.23558,1.00077 0.38533,1.70731 0.56448,2.48069 0.64914,2.80214 0.0804,0.30555 0.37056,1.55086 0.69939,3.00231 0.10932,0.48253 0.22877,0.97429 0.38285,1.57621 0.0528,0.20641 0.25252,1.0508 0.44371,1.87643 0.1912,0.82564 0.39872,1.6813 0.46115,1.90146 0.2428,0.85624 1.08641,3.38483 1.26875,3.80292 0.048,0.11008 0.2077,0.56043 0.35486,1.00077 0.14716,0.44033 0.29662,0.84564 0.33213,0.90069 0.0355,0.0551 0.12261,0.30273 0.19354,0.55042 0.24367,0.85088 0.81895,2.55241 1.01506,3.00231 0.3394,0.77858 0.47256,1.1041 0.97238,2.37682 0.0486,0.12384 0.12867,0.3265 0.17786,0.45034 0.3235,0.81448 0.61283,1.82518 0.90242,3.15242 0.14004,0.64179 0.26565,1.20646 0.42853,1.92648 0.28467,1.25835 0.70524,3.52283 0.93861,5.05388 0.34464,2.261 0.40238,4.30747 0.15528,5.50421 -0.13961,0.67614 -0.18979,0.82091 -0.52872,1.52544 -0.45099,0.93745 -1.94239,1.99299 -3.71115,2.62656 -0.32539,0.11656 -0.66868,0.25457 -0.76284,0.3067 -0.0942,0.0522 -0.24263,0.0948 -0.3299,0.0948 -0.0873,0 -0.27646,0.0837 -0.42041,0.18594 -0.14396,0.10227 -0.68378,0.32758 -1.1996,0.50068 -0.55103,0.18492 -0.98501,0.39136 -1.05217,0.5005 -0.0629,0.10217 -0.25971,0.21528 -0.43745,0.25136 -0.40375,0.082 -0.77719,0.32423 -0.77719,0.50422 0,0.0752 0.18858,0.23226 0.41908,0.34905 l 0.41907,0.21235 1.23256,-0.0473 c 0.67791,-0.026 1.45443,-0.092 1.72559,-0.1466 z m 11.83862,-2.38874 c 0.74856,-0.75568 0.90482,-1.04213 1.10356,-2.02306 0.31827,-1.5709 0.37933,-2.64704 0.22402,-3.94785 -0.0529,-0.44319 -0.14578,-1.25615 -0.20636,-1.80657 -0.13192,-1.19877 -0.49662,-3.37371 -0.77191,-4.60353 -0.37741,-1.686 -1.5604,-5.45388 -1.71244,-5.45424 -0.0128,-3e-5 -0.0102,1.51989 0.006,3.37759 0.0161,1.85771 -0.008,4.25582 -0.0542,5.32914 -0.0862,2.01231 -0.004,5.11199 0.16887,6.36964 0.0541,0.39341 0.12518,1.2941 0.15797,2.00153 0.0328,0.70744 0.0779,1.34573 0.10031,1.41844 0.0498,0.16179 0.40631,-0.0777 0.98422,-0.66109 z m 2.26815,-41.32821 c -0.17633,-1.02349 -0.179,-1.22594 -0.0162,-1.22594 0.0868,0 0.15784,0.0662 0.15784,0.14707 0,0.17019 0.34326,0.82237 0.56816,1.07948 0.28591,0.32687 0.2469,0.0862 -0.063,-0.38869 -0.33567,-0.51432 -0.38042,-0.75231 -0.17417,-0.92604 0.10565,-0.089 0.21452,-0.004 0.51768,0.40384 0.33376,0.44909 0.82761,0.90345 0.82761,0.76143 0,-0.0265 -0.15487,-0.24589 -0.34416,-0.48757 -0.38073,-0.4861 -0.46947,-0.99126 -0.17351,-0.98782 0.0949,8.5e-4 0.36997,0.20376 0.61125,0.45035 0.26442,0.27022 0.52818,0.44833 0.66391,0.44833 h 0.2252 l -0.20355,-0.3678 c -0.11195,-0.2023 -0.39909,-0.57383 -0.63809,-0.82564 -0.44949,-0.4736 -0.56206,-0.86569 -0.28004,-0.97553 0.10892,-0.0424 0.37602,0.1725 0.87454,0.70368 0.53924,0.57458 0.78223,0.76475 0.97714,0.76475 0.23119,0 0.25942,-0.0385 0.25942,-0.35348 0,-0.76845 -0.49827,-1.39011 -1.59173,-1.98596 -1.15977,-0.63196 -1.68713,-1.07324 -3.47361,-2.90658 l -1.86067,-1.90946 0.0644,0.4003 c 0.0354,0.22018 0.10885,0.67052 0.16317,1.00077 0.18083,1.09905 0.27781,1.98721 0.38798,3.55273 l 0.10916,1.55119 0.5606,0.52004 c 0.43943,0.40764 0.57786,0.48875 0.64042,0.37529 0.13291,-0.24105 0.2295,-0.1658 0.36016,0.28057 0.21521,0.73529 0.55907,1.26262 0.82995,1.2728 0.0466,0.002 0.0557,-0.1657 0.0201,-0.37211 z m -2.728,-11.48609 c 0.43944,-0.68928 0.79898,-1.29724 0.79898,-1.35103 0,-0.0538 0.0444,-0.0978 0.0986,-0.0978 0.0543,0 0.0986,-0.0392 0.0986,-0.0871 0,-0.0479 0.28012,-0.57707 0.62249,-1.17591 1.03991,-1.81889 2.42708,-4.51951 3.02668,-5.89247 0.12018,-0.27521 0.32924,-0.74807 0.46455,-1.05081 0.13532,-0.30273 0.33349,-0.77559 0.44037,-1.0508 0.10689,-0.27521 0.25423,-0.63548 0.32743,-0.80061 0.57063,-1.28742 1.91906,-5.48032 1.92112,-5.97369 6.2e-4,-0.14811 0.0455,-0.29713 0.0997,-0.33115 0.0543,-0.034 0.0986,-0.16912 0.0986,-0.30023 0,-0.13111 0.0444,-0.26621 0.0986,-0.30023 0.13562,-0.0851 0.12512,-2.00277 -0.0134,-2.44478 -0.44688,-1.42603 -1.06754,-2.12761 -2.16998,-2.45289 -0.7334,-0.21639 -1.38829,-0.0799 -3.06736,0.63937 -0.12203,0.0523 -0.42154,0.16172 -0.66558,0.24322 -0.73192,0.24444 -2.20476,0.76981 -2.41583,0.86174 -0.10848,0.0472 -0.64094,0.25091 -1.18327,0.45262 -0.98436,0.36611 -1.13658,0.42463 -1.65627,0.63669 -0.35434,0.14457 -0.75955,0.14468 -0.75955,2e-4 0,-0.0776 -0.0457,-0.0738 -0.14791,0.0122 -0.0813,0.0685 -0.14791,0.16324 -0.14791,0.21047 0,0.0472 -0.16031,0.3457 -0.35625,0.66326 -1.44233,2.33766 -2.3677,3.39253 -5.06704,5.77613 -1.53636,1.35666 -3.29125,3.13328 -3.81098,3.8582 -0.97858,1.36491 -1.41724,2.36506 -1.11928,2.55196 0.0543,0.034 0.0986,0.30689 0.0986,0.60637 0,0.29948 0.0191,0.54452 0.0424,0.54452 0.0233,0 0.32285,-0.13018 0.66559,-0.28929 0.34274,-0.15911 0.86721,-0.40208 1.16549,-0.53993 0.29829,-0.13785 0.89731,-0.41838 1.33117,-0.62338 0.43387,-0.20502 1.07727,-0.50617 1.42978,-0.66924 0.87153,-0.40317 6.235,-3.12475 7.39539,-3.75264 1.97959,-1.07117 2.23165,-1.20859 2.66234,-1.45143 0.24405,-0.1376 0.68777,-0.38616 0.98605,-0.55235 0.29828,-0.16618 0.8272,-0.46748 1.17537,-0.66954 0.34818,-0.20207 0.69206,-0.34441 0.76419,-0.31632 0.0721,0.0281 0.13116,0.18242 0.13116,0.34294 0,0.3486 -0.10569,0.42764 -1.82421,1.36428 -0.52031,0.28357 -1.31687,0.74152 -1.41505,0.81349 -0.019,0.014 0.0536,0.28727 0.16127,0.6074 0.10772,0.32013 0.25082,0.98283 0.31802,1.47269 0.20893,1.52304 -0.14645,4.60811 -0.69284,6.01466 -0.0428,0.11008 -0.17784,0.47036 -0.30016,0.80061 -0.12232,0.33026 -0.45323,1.05081 -0.73536,1.60123 l -0.51294,1.00077 0.20914,0.60046 c 0.11503,0.33025 0.2355,0.6455 0.26771,0.70053 0.0322,0.0551 0.11905,0.314 0.193,0.57545 0.074,0.26145 0.14238,0.47536 0.15207,0.47536 0.01,0 0.37717,-0.56396 0.81662,-1.25324 z m -16.86876,-1.8026 c 1.13157,-0.4 1.99398,-1.02524 2.24067,-1.62446 0.16358,-0.39733 0.18562,-1.08342 0.0518,-1.61293 -0.21885,-0.86604 -0.39759,-1.81045 -0.45857,-2.42298 l -0.0657,-0.66003 0.4383,-0.82011 c 0.91058,-1.70383 2.26603,-3.28647 4.46676,-5.21547 2.75872,-2.41808 4.38845,-4.32854 5.80524,-6.80522 0.32393,-0.56624 1.46516,-2.93512 1.63923,-3.40261 0.0718,-0.19265 0.1677,-0.39304 0.21324,-0.44534 0.0455,-0.0523 0.0828,-0.17062 0.0828,-0.26296 0,-0.0923 0.0712,-0.22784 0.15818,-0.30112 0.25657,-0.21611 0.34672,-0.55478 0.59709,-2.24307 0.1306,-0.88067 0.28443,-1.87144 0.34185,-2.20169 0.0574,-0.33025 0.13999,-0.82564 0.18347,-1.10084 0.14425,-0.91295 0.29751,-1.68937 0.55313,-2.80216 0.13908,-0.60546 0.27639,-1.24762 0.30513,-1.42701 0.0288,-0.1794 0.0917,-0.35094 0.13997,-0.3812 0.0482,-0.0303 0.0877,-0.13615 0.0877,-0.23533 0,-0.0992 0.15524,-0.6707 0.34497,-1.27007 0.57483,-1.81589 0.69483,-2.26504 0.94624,-3.54164 0.12301,-0.62459 0.22829,-1.643 0.2596,-2.51082 0.10571,-2.93144 -0.33289,-4.11614 -2.68665,-7.25689 -0.5015,-0.66917 -0.95632,-1.29738 -1.01071,-1.39605 l -0.0989,-0.17937 -0.49788,0.21738 c -0.62521,0.27297 -0.64758,0.27219 -1.26296,-0.0438 l -0.50864,-0.26119 -0.53772,0.40317 c -0.29575,0.22175 -0.59997,0.46364 -0.67605,0.53752 -0.41558,0.40367 -1.33382,1.12745 -2.15971,1.70235 -0.96341,0.67061 -4.97407,3.28558 -6.33838,4.13265 -0.42195,0.26199 -0.81113,0.55966 -0.86483,0.66152 -0.0567,0.10751 -0.11226,1.58189 -0.13249,3.51545 -0.0195,1.8607 -0.0818,3.55108 -0.14135,3.83065 -0.0586,0.27521 -0.15291,0.7143 -0.20963,0.97575 -0.38405,1.77021 -0.87684,4.36128 -1.00001,5.25809 -0.13815,1.00599 -0.048,2.25933 0.21751,3.02327 0.77732,2.23662 1.2011,5.08888 1.15235,7.75594 l -0.0293,1.60123 0.34511,-0.0306 c 0.18982,-0.0168 0.49106,-0.0772 0.66941,-0.13413 0.37895,-0.12102 0.61214,0.0129 0.61301,0.3521 3.6e-4,0.13706 0.2439,-0.16146 0.68358,-0.83789 0.37566,-0.57794 0.87461,-1.32513 1.10876,-1.66043 2.44187,-3.49662 2.97165,-4.3291 3.59246,-5.64518 0.26781,-0.56774 0.32167,-0.82874 0.42331,-2.05157 0.11141,-1.34017 0.15845,-1.72056 0.40837,-3.30253 0.26046,-1.64866 0.29638,-1.99478 0.39462,-3.80292 0.10185,-1.87457 0.28563,-3.5726 0.48201,-4.45341 0.34243,-1.53601 0.40034,-1.95857 0.40034,-2.92131 0,-0.58847 0.0397,-1.09487 0.0883,-1.12532 0.35235,-0.22102 0.35772,2.19981 0.009,3.99659 -0.24347,1.25396 -0.30659,1.69913 -0.44696,3.15242 -0.22215,2.30007 -0.4295,3.95417 -0.92543,7.38252 -0.0579,0.40007 -0.10523,1.20597 -0.10523,1.79089 v 1.06347 l -0.45273,0.91119 c -0.39893,0.8029 -0.88337,1.69676 -1.25221,2.31054 -0.1257,0.20918 -1.34274,2.03206 -1.47109,2.2034 -0.0413,0.0551 -0.17826,0.23518 -0.3045,0.4003 -0.12623,0.16513 -0.49232,0.68303 -0.81352,1.15089 -0.3212,0.46785 -0.63722,0.9182 -0.70228,1.00076 -0.53377,0.67738 -3.86972,5.89295 -5.08882,7.9561 -1.63857,2.77305 -2.28972,4.0421 -2.49994,4.87226 -0.19595,0.77376 -0.13486,2.16538 0.13073,2.97805 0.18712,0.57257 0.14681,0.5433 1.02444,0.74365 0.14015,0.032 0.42358,0.19429 0.62985,0.36065 0.42971,0.34659 0.84025,0.38697 1.51378,0.14888 z m -4.03229,-3.27402 c 0.4601,-2.42509 1.22434,-4.05085 3.56365,-7.58081 2.04093,-3.07974 3.43193,-5.3041 3.31729,-5.30473 -0.10691,-5.9e-4 -0.6981,0.0973 -2.44275,0.40451 -1.09587,0.19296 -3.05163,0.0357 -3.35242,-0.2696 -0.0602,-0.0611 -0.0947,-0.21768 -0.0766,-0.34787 0.0294,-0.21075 0.0817,-0.23559 0.47672,-0.22641 0.24405,0.006 0.74302,0.0459 1.10883,0.0895 0.87597,0.10428 2.78195,-0.1241 2.62612,-0.31468 -0.0735,-0.0899 -0.0693,-0.401 0.0143,-1.05386 0.11059,-0.86353 0.0707,-1.86918 -0.14808,-3.73509 -0.21205,-1.8084 -0.66615,-3.54452 -1.36968,-5.23663 -0.52254,-1.25678 -0.59981,-1.41847 -0.6779,-1.41847 -0.041,0 -0.0746,-0.0522 -0.0746,-0.116 0,-0.16631 -0.68364,-1.06205 -1.61922,-2.12158 -0.4443,-0.50317 -1.06908,-1.29764 -1.3884,-1.76549 -0.78088,-1.14409 -0.89654,-1.24874 -1.54716,-1.39992 -1.01529,-0.23592 -1.72107,-0.80095 -1.59524,-1.27713 0.0785,-0.29717 0.16179,-0.28547 0.70897,0.0996 l 0.46148,0.32474 0.83815,-0.002 c 0.74727,-0.002 0.88625,-0.0328 1.28186,-0.2848 0.73398,-0.46757 1.18197,-1.05447 1.32713,-1.73862 l 0.069,-0.32526 h -0.23715 c -0.55374,0 -0.99556,-1.07621 -0.6164,-1.50144 0.0961,-0.10777 0.32394,-0.22436 0.50631,-0.25908 0.29339,-0.0558 0.33133,-0.0993 0.32941,-0.37724 -0.007,-0.95119 -0.99015,-1.95013 -2.08213,-2.11462 -0.23657,-0.0357 -0.87386,-0.0136 -1.41619,0.0489 -0.93746,0.10807 -1.20697,0.14654 -2.71164,0.38698 -0.35251,0.0563 -1.10684,0.17577 -1.67629,0.26541 -0.92141,0.14505 -2.26047,0.40878 -3.25397,0.64088 -0.47026,0.10985 -2.10849,0.68838 -2.43266,0.85907 -0.48552,0.25566 -0.86018,-0.2161 -0.45154,-0.56858 0.76169,-0.65703 3.30711,-1.33429 7.27213,-1.9349 0.54233,-0.0821 1.27447,-0.19756 1.62698,-0.25647 0.82895,-0.13853 1.89609,-0.27593 3.00747,-0.3872 1.25002,-0.12515 2.23983,-0.27048 3.15536,-0.46327 0.43387,-0.0914 0.93347,-0.18838 1.11023,-0.21558 0.17675,-0.0272 0.34577,-0.0895 0.37559,-0.1385 0.0299,-0.0489 0.13898,-0.089 0.24259,-0.089 0.20117,0 0.59905,-0.20875 1.44612,-0.75869 0.28985,-0.18819 0.57051,-0.34216 0.62369,-0.34216 0.0532,0 0.0967,-0.0338 0.0968,-0.0751 5e-5,-0.0413 0.22722,-0.20452 0.50481,-0.36277 1.47846,-0.84279 6.10841,-4.00246 6.75622,-4.61073 0.42612,-0.4001 1.88907,-1.48632 2.42388,-1.79969 0.46778,-0.2741 0.66854,-0.27289 0.66854,0.004 0,0.0821 0.15188,0.21372 0.33751,0.29244 0.2908,0.12332 0.38345,0.12365 0.66941,0.003 0.77423,-0.32831 1.20764,-1.26554 0.96823,-2.09374 -0.43961,-1.52076 -1.1739,-2.33534 -2.40524,-2.66824 -0.39056,-0.10559 -0.6007,-0.10593 -1.13396,-0.002 -0.76882,0.15009 -2.07764,0.49642 -2.26358,0.59895 -0.0939,0.0518 0.0496,0.2946 0.51768,0.87622 0.91065,1.13138 0.89797,1.20879 -0.29191,1.78067 -0.51673,0.24836 -0.95914,0.45157 -0.98313,0.45157 -0.024,0 -0.27788,0.10801 -0.56421,0.24001 -0.28633,0.13201 -0.78683,0.35325 -1.11223,0.49165 -0.3254,0.13841 -0.93571,0.41319 -1.35625,0.61064 -0.42053,0.19745 -0.7916,0.359 -0.82459,0.359 -0.033,0 -0.75791,0.3551 -1.61092,0.7891 -1.86229,0.94753 -3.2786,1.80505 -3.76121,2.27727 -0.41978,0.41075 -0.68149,0.47192 -3.98384,0.93113 -1.25513,0.17453 -1.46919,0.20046 -2.66234,0.32243 -0.68884,0.0704 -2.83136,0.12462 -5.12748,0.12971 -3.87902,0.009 -4.27109,0.0357 -5.12747,0.35403 -0.89479,0.33263 -1.72559,0.93288 -1.72559,1.24673 0,0.67824 -1.01805,3.10772 -1.71772,4.09915 -0.79249,1.12297 -2.09731,2.19313 -2.38181,1.95349 -0.22517,-0.18967 -0.16876,-0.57081 0.11213,-0.7576 0.26584,-0.17678 0.70597,-0.96278 0.84716,-1.5129 0.0459,-0.17889 0.1308,-0.49413 0.18864,-0.70054 0.67751,-2.41781 0.76741,-4.90754 0.21231,-5.87956 -0.10086,-0.17662 -0.11462,-0.15397 -0.11726,0.1931 -0.005,0.62836 -0.38474,1.80743 -0.82022,2.54535 -0.44942,0.76154 -0.9949,1.3647 -1.63605,1.80904 -0.92137,0.63854 -1.03379,0.80714 -1.02151,1.53213 0.0243,1.43563 0.71673,3.18926 1.88687,4.77877 0.61811,0.83962 2.38601,2.67995 3.65862,3.80848 1.32218,1.1725 3.27286,3.17897 3.86205,3.97251 0.61809,0.83246 1.63698,2.84913 1.95928,3.87794 0.12071,0.3853 0.25467,0.79061 0.2977,0.9007 0.043,0.11008 0.1004,0.31273 0.12749,0.45034 0.0271,0.1376 0.11803,0.55985 0.20209,0.93833 0.40171,1.80862 0.41155,2.9031 0.0662,7.36804 -0.21148,2.73466 -0.0998,5.10273 0.30198,6.40491 0.29439,0.95405 0.98983,2.05629 1.75671,2.78434 1.50104,1.425 4.30311,2.49403 6.95675,2.65408 0.27116,0.0163 0.56461,0.0379 0.65211,0.0477 0.12061,0.0137 0.18778,-0.13322 0.27775,-0.60744 z m 4.04169,-27.14581 c 0.21885,-1.40922 0.29149,-1.78993 0.64913,-3.40261 0.45515,-2.05231 0.58184,-3.38625 0.58693,-6.17968 0.003,-1.36226 -0.0317,-2.47686 -0.0759,-2.4769 -0.0443,-3e-5 -0.17632,0.052 -0.29349,0.11567 -0.11719,0.0637 -0.34723,0.15118 -0.5112,0.19451 -0.16397,0.0433 -0.47563,0.12975 -0.69256,0.19205 -0.49599,0.14243 -1.10198,0.26854 -1.92279,0.40013 -1.05641,0.16936 -1.03964,0.15311 -0.6433,0.62306 0.92844,1.10086 1.22906,3.758 0.58217,5.14581 -0.31637,0.67872 -1.0831,1.53316 -1.64941,1.83806 l -0.43888,0.2363 0.5019,0.75611 c 0.27604,0.41586 0.90816,1.1875 1.40471,1.71475 0.94031,0.99847 1.48116,1.74376 1.9736,2.7196 l 0.29061,0.57586 0.0648,-0.87609 c 0.0356,-0.48186 0.11382,-1.19134 0.17366,-1.57663 z m -19.06939,-15.09466 c 0.49722,-0.34049 1.44677,-0.6364 2.4434,-0.76144 0.36917,-0.0463 0.69024,-0.10353 0.7135,-0.12713 0.0232,-0.0236 -0.004,-0.43013 -0.0615,-0.90341 -0.073,-0.60573 -0.0726,-1.03135 0.002,-1.43755 0.16097,-0.88378 0.16238,-0.88045 -0.5542,-1.30269 -0.3626,-0.21366 -0.90616,-0.61456 -1.20791,-0.89091 -0.30174,-0.27633 -0.67791,-0.56906 -0.83593,-0.6505 -0.43902,-0.22625 -1.17753,-0.93749 -1.39083,-1.33949 -0.105,-0.19787 -0.2257,-0.35976 -0.26825,-0.35976 -0.13394,0 0.0354,0.90328 0.74099,3.95303 0.0645,0.27854 0.11688,1.26579 0.11826,2.22676 0.002,0.94952 0.0259,1.72636 0.0545,1.72633 0.0286,-3e-5 0.13954,-0.06 0.24651,-0.13324 z m 19.23023,-3.15589 c 0.0978,-0.0905 0.82793,-0.50461 1.91788,-1.08793 0.35251,-0.18866 0.65397,-0.37903 0.66991,-0.42306 0.0159,-0.044 0.17924,-0.33327 0.36287,-0.64278 0.60216,-1.0149 0.76102,-1.59277 0.72487,-2.63684 l -0.032,-0.92648 -0.25257,-3.7e-4 c -0.32536,-4.8e-4 -0.68418,-0.34078 -0.68418,-0.64887 0,-0.32516 0.12775,-0.38265 0.32657,-0.14699 0.37562,0.44523 0.94058,0.11764 0.96898,-0.56187 0.0258,-0.61726 -0.0363,-1.44141 -0.0843,-1.11954 -0.0544,0.36444 -0.18358,0.34762 -0.38433,-0.05 -0.21272,-0.42136 -0.34229,-0.49868 -0.53662,-0.32019 -0.2337,0.21465 -0.28983,0.18032 -0.29466,-0.1802 l -0.004,-0.32525 -0.19521,0.3753 c -0.20693,0.39781 -0.48632,0.50386 -0.48632,0.18459 0,-0.27104 0.38022,-0.95897 0.70404,-1.27384 0.48613,-0.47269 1.12173,-0.2869 1.40837,0.41169 0.12228,0.29801 0.27643,1.5231 0.28987,2.3038 0.004,0.22017 -0.0658,0.54666 -0.15477,0.72555 l -0.16168,0.32526 0.31291,-3.3e-4 c 0.53066,-5.4e-4 2.01462,-0.29657 2.45689,-0.49011 0.23086,-0.10104 0.5414,-0.30798 0.69007,-0.45988 0.225,-0.22988 0.26138,-0.33694 0.21702,-0.63868 -0.0294,-0.19937 -0.0956,-1.48836 -0.14724,-2.86442 -0.0516,-1.37606 -0.13705,-2.74961 -0.18973,-3.05234 -0.0527,-0.30273 -0.12407,-0.71972 -0.15862,-0.92664 -0.0346,-0.20692 -0.10231,-0.40097 -0.15055,-0.43123 -0.0482,-0.0303 -0.0877,-0.134 -0.0877,-0.23054 0,-0.22483 -0.43632,-1.14408 -0.79228,-1.66916 -0.85068,-1.25488 -2.51515,-2.48775 -3.98763,-2.95364 -0.75461,-0.23876 -2.05074,-0.1506 -2.96059,0.20138 -0.62465,0.24165 -2.12733,1.05459 -2.46228,1.33209 -0.8702,0.72094 -1.33612,1.21631 -1.5338,1.63077 -0.18715,0.39237 -0.37563,0.59872 -1.06915,1.17053 -0.11682,0.0963 -0.25628,0.17513 -0.30989,0.17513 -0.0536,0 -0.0975,0.042 -0.0975,0.0933 0,0.0513 -0.0802,0.11918 -0.17832,0.15077 -0.34364,0.1107 -1.08262,0.95258 -1.40154,1.59673 -0.27077,0.54689 -0.31241,0.7206 -0.26209,1.09324 0.033,0.24367 0.11295,0.56137 0.17788,0.70598 0.10297,0.22938 0.17697,0.26294 0.57979,0.26294 0.76846,0 2.78723,-0.81358 2.56882,-1.03525 -0.14675,-0.14894 -0.12937,-1.14941 0.0293,-1.68439 0.17036,-0.57452 0.72571,-1.43833 1.00889,-1.56929 0.15642,-0.0723 0.26648,-0.0655 0.38704,0.0239 0.22185,0.16464 0.15121,0.50402 -0.1129,0.54244 -0.50329,0.0732 -1.03636,1.02336 -1.05663,1.88331 -0.008,0.34121 0.016,0.65177 0.0535,0.69014 0.0375,0.0384 0.29016,0.012 0.56152,-0.0586 0.55374,-0.14403 1.11887,-0.0319 1.60419,0.31826 0.14396,0.10387 0.31124,0.18886 0.37173,0.18886 0.20744,0 0.85346,0.47636 1.11131,0.81946 0.14183,0.18874 0.35512,0.56569 0.47398,0.83767 0.59097,1.35244 0.6211,1.39664 0.93694,1.37448 0.16252,-0.0114 0.46189,-0.0501 0.66526,-0.086 l 0.36977,-0.0653 v 0.26361 c 0,0.30626 -0.27839,0.4551 -0.99605,0.53255 l -0.45373,0.0489 -0.19349,-0.28651 c -0.10642,-0.15758 -0.25407,-0.48918 -0.32813,-0.73686 -0.3325,-1.11205 -0.69044,-1.55029 -1.7523,-2.14536 -1.10909,-0.62154 -1.536,-0.62504 -2.80613,-0.023 -1.2784,0.60596 -1.43013,0.65975 -2.09774,0.7437 l -0.59126,0.0744 0.0321,0.39993 c 0.0176,0.21997 0.1173,0.66632 0.22148,0.99191 0.10418,0.32558 0.1894,0.65387 0.1894,0.72954 0,0.0757 0.087,0.30466 0.1934,0.50887 0.35553,0.68259 0.34282,0.67522 0.70851,0.41051 0.29223,-0.21154 0.42728,-0.23729 1.16192,-0.2216 0.78503,0.0168 1.28875,0.15571 1.28875,0.35546 0,0.0507 -0.39485,0.0598 -0.91502,0.021 l -0.91502,-0.0682 -0.31755,0.27118 c -0.17464,0.14915 -0.31753,0.31105 -0.31753,0.35979 0,0.0488 0.14421,0.16424 0.32046,0.25668 0.17626,0.0924 0.36808,0.23402 0.42628,0.31464 0.16961,0.23495 0.69513,0.0594 1.00598,-0.33595 0.3001,-0.38173 0.5152,-0.44231 0.5152,-0.1451 0,0.27977 -0.5459,0.87443 -0.93322,1.01658 -0.26101,0.0958 -0.33894,0.18834 -0.38122,0.4528 -0.0293,0.18281 -0.0117,0.47915 0.039,0.65853 0.0507,0.17937 0.0928,0.64167 0.0937,1.02733 0.002,0.77343 0.0518,0.9146 0.3436,0.96641 0.13724,0.0243 0.18932,-0.0142 0.17126,-0.12677 -0.0529,-0.3297 0.27935,-0.44358 1.06131,-0.36376 0.19924,0.0203 0.25216,-0.0241 0.27597,-0.23176 0.0224,-0.19497 -0.0323,-0.28546 -0.2265,-0.37529 -0.14078,-0.0651 -0.34632,-0.11836 -0.45675,-0.11836 -0.29421,0 -0.16952,-0.24423 0.14392,-0.28188 0.34444,-0.0414 0.8065,0.29697 0.94123,0.68921 0.0926,0.26967 0.0767,0.3371 -0.1291,0.54596 l -0.23478,0.23827 0.19081,0.22329 c 0.10494,0.12281 0.21547,0.32301 0.2456,0.44489 0.0587,0.2372 0.22383,0.29328 1.271,0.4315 0.99522,0.13137 1.14087,0.2814 0.69024,0.71106 -0.27759,0.26468 -0.31354,0.40031 -0.1061,0.40031 0.0772,0 0.24362,0.13261 0.36977,0.29469 0.2402,0.30861 0.37367,0.3638 0.5301,0.21915 z m 5.21069,-12.22899 c 0.11947,-0.75831 -0.31393,-1.85673 -0.9967,-2.52607 -0.41688,-0.40866 -0.52194,-0.755 -0.256,-0.84385 0.18195,-0.0608 0.88503,0.73463 1.15663,1.30853 0.45111,0.95317 0.56254,2.46787 0.18156,2.46787 -0.11961,0 -0.13672,-0.0814 -0.0855,-0.40648 z m -16.335,11.51838 c 0.23095,-0.21838 0.25821,-0.29255 0.42418,-1.15427 0.0636,-0.33026 0.1767,-0.67055 0.25131,-0.75621 0.18793,-0.21578 -0.0569,-0.563 -0.47435,-0.67278 -0.42306,-0.11127 -0.45023,-0.28975 -0.0568,-0.37323 0.17913,-0.038 0.5603,-0.2309 0.84705,-0.42863 l 0.52136,-0.35952 -0.0703,-0.30604 c -0.0387,-0.16833 -0.072,-0.38879 -0.0741,-0.48992 -0.003,-0.10113 -0.14964,-0.34077 -0.32783,-0.53253 -0.1782,-0.19176 -0.32399,-0.43848 -0.32399,-0.54826 0,-0.22734 0.17631,-0.60353 0.33052,-0.70525 0.17121,-0.11293 0.26855,0.0174 0.16278,0.21806 -0.16034,0.30406 -0.11653,0.68441 0.0919,0.7976 0.25675,0.13946 0.25845,0.139 0.53985,-0.14659 0.30933,-0.31396 0.54998,-0.3248 0.55524,-0.025 l 0.004,0.22517 0.14653,-0.27409 0.14652,-0.27408 -0.21319,-0.42414 c -0.11727,-0.23327 -0.39574,-0.6668 -0.61885,-0.96338 -0.22312,-0.29657 -0.44946,-0.62411 -0.50299,-0.72786 -0.0761,-0.14732 -0.20777,-0.18864 -0.60158,-0.18864 -0.58865,0 -1.15222,-0.17359 -1.09279,-0.33662 0.0228,-0.0625 0.10247,-0.0982 0.17704,-0.0793 0.85472,0.21689 1.22116,0.12673 1.41685,-0.3486 0.27067,-0.65749 0.22471,-0.7366 -0.42798,-0.7366 -0.60542,0 -1.04599,0.16358 -1.34565,0.49963 -0.22571,0.25314 -0.34578,0.25577 -0.34578,0.008 0,-0.4144 1.08009,-0.90751 1.98777,-0.90751 h 0.47736 v -0.23018 c 0,-0.12659 -0.0377,-0.27295 -0.0838,-0.32524 -0.046,-0.0523 -0.15786,-0.28955 -0.2484,-0.52723 -0.0906,-0.23768 -0.50767,-0.85913 -0.92693,-1.38098 l -0.7623,-0.94883 -0.0505,0.83118 c -0.0959,1.5784 -0.61087,2.08466 -3.89371,3.82777 -1.73182,0.91956 -2.29467,1.33852 -2.88683,2.14885 -0.7138,0.97678 -0.77111,2.19086 -0.16805,3.55999 0.40935,0.92936 1.85962,2.11288 3.184,2.59836 0.20015,0.0734 0.49702,0.19177 0.65972,0.26311 0.53057,0.23265 1.3616,0.36512 2.37258,0.3782 0.86074,0.0111 1.01967,-0.0132 1.20022,-0.18394 z m 9.85667,-0.26156 0.27667,-0.25819 -0.24652,0.0567 c -0.13558,0.0311 -0.32416,0.0573 -0.41907,0.058 -0.10638,8.5e-4 -0.17256,0.0781 -0.17256,0.20152 0,0.2747 0.23047,0.25087 0.56148,-0.058 z m -1.10381,-0.44236 c -0.0335,-0.0551 -0.10531,-0.10008 -0.15955,-0.10008 -0.0543,0 -0.0712,0.045 -0.0376,0.10008 0.0335,0.0551 0.10531,0.10007 0.15955,0.10007 0.0543,0 0.0712,-0.045 0.0376,-0.10007 z m 7.29678,-1.09788 c 0.27117,-0.12434 0.7272,-0.33349 1.0134,-0.46479 0.28621,-0.13129 0.54004,-0.23872 0.56406,-0.23872 0.0469,0 0.74483,-0.31507 1.90562,-0.86027 l 0.72211,-0.33917 -0.1938,-0.27595 c -0.10658,-0.15177 -0.28733,-0.36174 -0.40165,-0.46659 -0.11432,-0.10486 -0.20785,-0.2936 -0.20785,-0.41942 0,-0.12583 -0.0444,-0.25661 -0.0986,-0.29063 -0.0543,-0.034 -0.0986,-0.14926 -0.0986,-0.2561 0,-0.23602 -0.22286,-0.25392 -0.40398,-0.0324 -0.33685,0.41194 -1.58422,0.8079 -2.85953,0.90771 l -0.77929,0.061 v 0.72297 c 0,0.67612 -0.2936,1.88462 -0.59819,2.46223 l -0.0994,0.18852 0.52135,-0.23614 c 0.28675,-0.12987 0.74321,-0.33787 1.01437,-0.4622 z m -14.59357,-0.70488 c 0,-0.21203 -0.0418,-0.24579 -0.28315,-0.22832 -0.37748,0.0273 -0.40427,0.0723 -0.19281,0.32288 0.23157,0.27448 0.47596,0.22593 0.47596,-0.0946 z m 0.0141,-0.7492 c 0.18902,-0.19184 0.0457,-0.18962 -0.20549,0.003 -0.10743,0.0825 -0.13679,0.14692 -0.0669,0.14692 0.0685,0 0.19105,-0.0676 0.2724,-0.15011 z m 13.34984,-5.24849 c -0.0703,-0.13331 -0.20265,-0.20346 -0.37615,-0.19935 l -0.26771,0.006 0.2182,0.0891 c 0.12001,0.049 0.27516,0.18172 0.34479,0.29487 0.15797,0.25671 0.22877,0.0895 0.0808,-0.19099 z m -30.07751,8.79303 c 0,-0.11458 0.14551,-0.4636 0.32335,-0.77559 0.30472,-0.53459 0.74438,-1.42993 1.08941,-2.21853 0.21025,-0.48053 0.59736,-1.70313 0.81595,-2.57697 0.21195,-0.8473 0.37482,-0.9546 0.30385,-0.20016 -0.12855,1.36647 -0.58143,2.7606 -1.47106,4.52848 -0.39626,0.78744 -0.50743,0.99036 -0.57567,1.0508 -0.0311,0.0275 -0.0851,0.12885 -0.12016,0.22517 -0.0896,0.24648 -0.36567,0.22142 -0.36567,-0.0332 z m 2.632,-7.38303 c 0.0659,-1.41001 0.60402,-2.87487 0.93329,-2.54068 0.0883,0.0896 0.0437,0.27731 -0.18926,0.79633 -0.16763,0.37349 -0.35427,0.88173 -0.41475,1.12943 -0.0605,0.24769 -0.15129,0.54041 -0.2018,0.65049 -0.0505,0.11009 -0.10971,0.35778 -0.13155,0.55043 -0.0218,0.19264 -0.02,-0.0711 0.004,-0.586 z"
       id="path29" /></g></svg>
