<?xml version="1.0" encoding="UTF-8" standalone="no"?>
<!-- Created with Inkscape (http://www.inkscape.org/) -->

<svg
   width="122.24492mm"
   height="63.306709mm"
   viewBox="0 0 122.24493 63.30671"
   version="1.1"
   id="svg1"
   xml:space="preserve"
   xmlns="http://www.w3.org/2000/svg"
   xmlns:svg="http://www.w3.org/2000/svg"><defs
     id="defs1" /><g
     id="layer1"
     transform="translate(-106.46418,172.57625)"><path
       style="fill:#4d4d4d"
       d="m 215.01849,-109.42992 c -0.1387,-0.0971 -0.34891,-0.16814 -0.46714,-0.15776 -0.47895,0.042 -0.62484,-0.0434 -1.03996,-0.60886 -0.23839,-0.32476 -0.66648,-0.75081 -0.95131,-0.94678 l -0.51787,-0.35631 -1.67514,0.0604 c -0.92132,0.0332 -2.11559,0.093 -2.65393,0.13285 l -0.97879,0.0724 -0.37974,-0.2602 c -0.20886,-0.14311 -0.48583,-0.42508 -0.61548,-0.62659 -0.21436,-0.33315 -0.71944,-1.7988 -1.13937,-3.3062 l -0.16379,-0.58797 -1.16461,-0.1404 c -0.64053,-0.0772 -1.74669,-0.19999 -2.45812,-0.27282 -0.71144,-0.0728 -2.24602,-0.26701 -3.41019,-0.43149 -2.40883,-0.34034 -4.47319,-0.33981 -5.24807,0.001 -0.89044,0.39203 -1.5512,1.14346 -1.87269,2.12964 -0.25957,0.79623 -0.52609,0.79999 -0.5132,0.007 0.0233,-1.4312 0.44598,-2.65517 1.15179,-3.33509 0.20205,-0.19464 0.67205,-0.53668 1.04445,-0.76009 l 0.67709,-0.40619 -0.38311,-0.0669 c -0.65299,-0.11398 -2.50966,-0.48606 -3.26413,-0.65413 -0.29104,-0.0648 -0.79375,-0.17277 -1.11713,-0.23987 -0.32338,-0.0671 -0.79963,-0.17265 -1.05833,-0.23455 -0.25871,-0.0619 -0.7085,-0.16556 -0.99954,-0.23035 -0.29104,-0.0648 -1.34937,-0.33332 -2.35185,-0.59674 -4.53443,-1.19151 -4.59488,-1.19308 -7.17315,-0.18561 -3.0572,1.19461 -4.66851,1.4631 -6.46764,1.0777 -2.23564,-0.47891 -4.1919,-1.6155 -6.21509,-3.61098 l -0.86467,-0.85283 -0.23917,0.14936 c -1.01534,0.63409 -3.11681,1.73962 -4.44028,2.33592 -0.95707,0.43122 -3.88253,1.67189 -3.94224,1.67189 -0.0322,0 -0.30925,0.1111 -0.61576,0.2469 -0.3065,0.1358 -0.66311,0.28915 -0.79246,0.34079 -0.47555,0.18983 -1.7573,0.73944 -2.46945,1.05887 -1.30869,0.58702 -1.59466,0.70529 -1.7054,0.70529 -0.0663,0 -0.21236,0.0514 -0.32466,0.11425 -0.31419,0.17579 -1.78176,0.56362 -2.43845,0.6444 -0.55282,0.068 -1.59212,-0.0344 -2.93982,-0.2895 -0.32338,-0.0612 -0.83932,-0.14628 -1.14653,-0.18902 l -0.55856,-0.0777 -0.003,0.81013 c -0.003,0.93104 -0.25269,1.59104 -0.77494,2.04808 -0.37597,0.32903 -1.35392,0.81992 -1.63344,0.81992 -0.0986,0 -0.27115,0.0478 -0.38346,0.10613 -0.1123,0.0584 -0.44231,0.17136 -0.73335,0.25108 -1.0237,0.28041 -1.2415,0.34542 -1.99908,0.5967 -1.12484,0.3731 -2.07809,0.87856 -2.93981,1.55887 -0.4204,0.33188 -1.00248,0.73572 -1.29352,0.89741 l -0.52917,0.29398 -2.29305,-0.0307 c -1.5875,-0.0213 -2.43775,-0.0812 -2.76331,-0.19482 -0.56675,-0.19774 -1.23484,-0.84271 -1.23484,-1.19212 0,-0.4125 0.49781,-0.83248 1.24383,-1.04936 2.37475,-0.69035 3.58451,-1.64568 5.73612,-4.52972 l 1.09661,-1.46991 -0.42231,-0.0896 c -1.52963,-0.3244 -4.2745,-0.70793 -6.46727,-0.90365 -0.7377,-0.0658 -1.43851,-0.15058 -1.55736,-0.1883 -0.38453,-0.12204 -5.54818,-0.0764 -6.20146,0.0548 -0.34838,0.07 -1.04791,0.12722 -1.55452,0.12722 -1.10301,0 -1.51871,0.19119 -2.40807,1.10754 -0.59495,0.613 -2.3827,3.13931 -2.814,3.97651 -0.1765,0.34262 -0.24793,0.40035 -0.32498,0.26266 -0.28599,-0.51103 1.07346,-2.97261 2.41084,-4.36535 0.38937,-0.40549 1.05,-0.96011 1.46806,-1.23249 l 0.7601,-0.49522 1.43318,-0.025 c 0.78825,-0.0137 1.93345,-0.09 2.5449,-0.16945 1.12459,-0.14617 3.00751,-0.0712 6.05587,0.24101 2.6329,0.26968 3.38901,0.37295 5.99722,0.81905 0.32338,0.0553 0.82609,0.13146 1.11713,0.16923 l 0.52916,0.0687 1.33847,-1.8223 c 0.73616,-1.00227 1.40258,-1.94253 1.48093,-2.08948 0.0784,-0.14694 0.31688,-0.55821 0.53005,-0.91393 0.55413,-0.9247 0.82509,-1.40954 0.82509,-1.4764 0,-0.26631 -2.17371,-0.64065 -3.70417,-0.63791 -2.2602,0.004 -4.31999,0.28315 -7.29074,0.98789 -0.64676,0.15343 -1.46696,0.3358 -1.82268,0.40528 -0.35572,0.0695 -1.12301,0.21836 -1.70509,0.33087 -1.16537,0.22524 -2.64984,0.25452 -3.46899,0.0684 -0.81939,-0.18616 -1.80901,-0.53515 -3.59384,-1.26736 -0.90147,-0.36982 -1.87715,-0.74504 -2.16819,-0.83384 -1.02189,-0.31176 -1.79439,-0.16818 -2.55764,0.47541 -0.30768,0.25943 -0.38057,0.40618 -0.37391,0.75277 0.005,0.23679 0.0446,0.52213 0.089,0.63411 0.11421,0.28813 -0.0558,3.11243 -0.2213,3.67697 -0.20862,0.71148 -0.27676,0.8723 -0.74738,1.76388 -0.9583,1.8155 -1.49746,3.02075 -1.62648,3.63588 -0.14741,0.70277 0.008,3.01492 0.25972,3.857 0.30173,1.01053 1.2023,1.52022 1.51279,0.8562 0.34998,-0.74847 0.37755,-0.84513 0.65425,-2.29305 l 0.14607,-0.76435 0.0791,0.64675 c 0.16267,1.32967 0.10145,2.22785 -0.1791,2.62768 -0.37998,0.54156 -0.56873,0.65701 -1.08095,0.66118 -0.82339,0.007 -1.55324,-0.83078 -1.78071,-2.04331 -0.0487,-0.25971 -0.27245,-0.66156 -0.54116,-0.97204 -0.25196,-0.29111 -0.52799,-0.69664 -0.61341,-0.90117 -0.18442,-0.4416 -0.23993,-2.15107 -0.0732,-2.25412 0.064,-0.0395 0.11636,-0.15025 0.11636,-0.246 0,-0.29372 0.7128,-1.2528 1.82269,-2.45248 1.0512,-1.13623 1.19128,-1.32728 1.46983,-2.00446 0.0798,-0.19403 0.19185,-0.44467 0.24898,-0.55697 0.0571,-0.11231 0.10387,-0.29041 0.10387,-0.39579 0,-0.10538 0.0907,-0.44688 0.20149,-0.75889 0.17974,-0.50609 0.18446,-0.65368 0.0437,-1.3681 -0.0868,-0.44044 -0.18154,-1.09298 -0.21058,-1.45008 l -0.0528,-0.64928 0.47946,-0.54469 c 0.2637,-0.29959 0.48121,-0.64241 0.48336,-0.76184 0.006,-0.31924 0.58935,-1.10814 0.99563,-1.34586 0.68055,-0.39818 1.42589,-0.2662 3.2338,0.57262 2.36661,1.09805 2.87023,1.22241 5.23287,1.2922 1.75675,0.0519 3.07047,-0.0469 4.35092,-0.32714 0.25871,-0.0566 0.84079,-0.16457 1.29352,-0.23987 0.45273,-0.0753 0.92898,-0.17986 1.05834,-0.23234 0.12935,-0.0525 0.3807,-0.12587 0.55856,-0.16308 0.17786,-0.0372 0.4689,-0.0981 0.64676,-0.13531 0.17786,-0.0372 0.42921,-0.11259 0.55857,-0.16753 0.12935,-0.0549 0.39393,-0.13269 0.58796,-0.17279 0.19403,-0.0401 0.56444,-0.12636 0.82315,-0.19168 1.8619,-0.47009 3.4281,-0.60432 5.76203,-0.49381 1.03482,0.049 1.95509,0.0902 2.04506,0.0915 0.20726,0.003 0.30061,-0.18049 0.83596,-1.64387 0.14196,-0.38806 0.30014,-0.81139 0.35151,-0.94074 0.0514,-0.12936 0.34487,-0.87019 0.65224,-1.6463 0.30736,-0.77611 0.66321,-1.64924 0.79077,-1.94028 0.46696,-1.06545 0.54338,-1.24997 0.85222,-2.05787 0.17307,-0.45273 0.35923,-0.92898 0.41369,-1.05833 0.0545,-0.12935 0.16193,-0.44685 0.23882,-0.70556 0.0769,-0.2587 0.18623,-0.56225 0.24296,-0.67456 0.0567,-0.1123 0.10316,-0.30825 0.10316,-0.43544 0,-0.12718 0.0595,-0.37926 0.13223,-0.56016 0.0727,-0.1809 0.17149,-0.43474 0.21946,-0.5641 0.10808,-0.29144 0.27567,-0.69829 0.50861,-1.23472 0.37495,-0.86345 0.5488,-1.38423 0.78236,-2.34367 0.28502,-1.17076 0.66685,-1.88144 1.37932,-2.56723 0.86037,-0.82814 1.32328,-1.0077 2.74006,-1.06287 l 1.23472,-0.0481 0.88619,-0.84023 c 1.64978,-1.56423 2.01806,-1.75542 3.36216,-1.7455 2.12383,0.0157 4.49483,1.36048 7.3998,4.19706 0.25206,0.24612 1.80418,1.26988 3.38486,2.2326 0.50704,0.30882 1.16225,0.74496 1.45602,0.9692 0.56234,0.42924 0.54728,0.42785 1.67902,0.15477 1.24511,-0.30045 2.37508,-0.37923 3.57384,-0.24918 1.11248,0.12069 1.42896,0.17399 2.86436,0.48241 1.66843,0.3585 4.49047,0.40586 5.73263,0.0962 1.61887,-0.40355 2.4533,-0.68378 4.17454,-1.40194 l 1.23472,-0.51517 1.06005,-1.06044 c 0.58303,-0.58324 1.204,-1.25429 1.37994,-1.49123 0.17593,-0.23693 0.38857,-0.50152 0.47252,-0.58796 0.084,-0.0864 0.28064,-0.34238 0.43709,-0.56874 0.15644,-0.22637 0.31455,-0.43804 0.35135,-0.47037 0.0368,-0.0323 0.43442,-0.56151 0.8836,-1.17593 1.81191,-2.47843 3.11162,-3.94555 4.2349,-4.78039 0.38805,-0.28841 0.78891,-0.58758 0.8908,-0.66482 0.47108,-0.35714 1.3694,-0.82532 2.16661,-1.12917 0.38805,-0.14791 0.81138,-0.31464 0.94074,-0.37052 0.65401,-0.28254 1.88681,-0.55708 4.23333,-0.94275 2.61921,-0.43049 3.59919,-0.79009 4.59379,-1.68565 0.25448,-0.22914 0.52305,-0.41784 0.59682,-0.41934 0.16445,-0.003 0.28075,-0.60202 0.34316,-1.76662 0.0709,-1.32286 0.31335,-3.17737 0.42437,-3.24598 0.0538,-0.0333 0.0979,-0.1632 0.0979,-0.28874 0,-0.12553 0.0602,-0.22824 0.13379,-0.22824 0.0939,0 0.1095,0.20148 0.0523,0.67615 -0.0448,0.37189 -0.13339,1.09949 -0.19682,1.6169 -0.0634,0.51741 -0.16307,1.37705 -0.2214,1.91031 -0.0583,0.53326 -0.13597,1.01797 -0.17253,1.07712 -0.0959,0.15521 0.0523,0.48155 0.21868,0.48155 0.0779,0 0.24755,0.0987 0.377,0.21928 0.59713,0.55631 1.46721,0.6477 2.32549,0.24426 l 0.51487,-0.24201 -0.0625,-1.22429 -0.0625,-1.22429 0.31597,-0.41426 c 0.37849,-0.49623 0.72824,-0.60494 1.32809,-0.41279 0.78502,0.25147 0.97638,0.51988 0.97638,1.36951 0,0.40912 0.0426,0.74385 0.0947,0.74385 0.0521,0 0.43574,-0.28504 0.85255,-0.63344 0.70689,-0.59086 1.02642,-0.90504 2.36723,-2.32759 0.59478,-0.63104 1.01436,-0.78209 1.59216,-0.57315 0.22144,0.0801 0.4345,0.11372 0.47345,0.0748 0.039,-0.039 0.0747,-0.33185 0.0794,-0.65086 0.007,-0.50099 -0.0435,-0.63379 -0.37361,-0.9745 -0.4124,-0.42567 -0.48987,-0.76091 -0.20141,-0.8716 0.25249,-0.0969 0.63291,0.27818 0.8928,0.88025 0.25072,0.5808 0.27881,1.10922 0.0881,1.65643 l -0.13189,0.37836 0.32768,0.34202 c 0.46291,0.48318 0.96153,0.62603 1.53126,0.43868 0.63738,-0.20959 0.80992,-0.58671 0.52197,-1.14091 -0.12007,-0.23112 -0.38446,-0.59928 -0.58752,-0.81814 -0.23552,-0.25385 -0.32838,-0.43875 -0.25647,-0.51066 0.13524,-0.13524 0.5727,0.0734 0.87368,0.41674 0.28303,0.32283 0.37399,0.18063 0.20738,-0.3242 -0.16885,-0.51163 -1.16756,-1.63052 -1.62423,-1.81968 -0.1828,-0.0757 -0.41716,-0.28094 -0.5208,-0.45606 -0.17608,-0.29753 -1.58843,-1.69971 -2.19431,-2.17851 -0.14881,-0.1176 -0.46417,-0.32168 -0.70081,-0.45351 -0.23663,-0.13182 -0.48316,-0.27993 -0.54784,-0.32913 -0.0647,-0.0492 -0.46155,-0.21198 -0.88194,-0.36172 -1.14359,-0.40735 -2.53425,-0.38567 -3.42134,0.0533 -0.36185,0.17907 -0.8681,0.51946 -1.125,0.75641 -0.4178,0.38537 -1.45088,1.77954 -1.45088,1.958 0,0.0386 -0.10584,0.18376 -0.23519,0.32261 -0.12935,0.13884 -0.23518,0.19267 -0.23518,0.11961 0,-0.0731 0.0529,-0.16553 0.11759,-0.2055 0.0647,-0.04 0.11759,-0.16258 0.11759,-0.27246 0,-0.2185 0.48128,-1.17266 0.79944,-1.58492 0.43353,-0.56176 1.39774,-1.39465 1.90262,-1.6435 0.44844,-0.22103 0.72515,-0.26187 1.76646,-0.2607 1.06656,0.001 1.33528,0.0436 1.97306,0.31107 1.6333,0.6851 1.92195,0.9185 5.66668,4.58217 0.9822,0.96094 1.24153,1.54533 1.14724,2.58522 -0.0514,0.56698 -0.14082,0.81113 -0.42784,1.16828 -0.32149,0.40006 -0.36284,0.53822 -0.36284,1.21241 0,0.79608 -0.23784,2.23915 -0.46735,2.83569 -0.0738,0.19195 -0.31969,0.57527 -0.5463,0.85182 -0.52442,0.63999 -0.60433,1.12333 -0.28676,1.73446 0.289,0.55614 0.30761,0.97577 0.059,1.33068 -0.15303,0.21849 -0.29382,0.26135 -0.85843,0.26135 -0.77696,0 -0.95759,0.12718 -0.95759,0.67425 0,0.32241 -0.0721,0.43459 -0.40636,0.63178 -0.22349,0.13186 -0.43801,0.33947 -0.47669,0.46135 -0.0439,0.13844 -0.27284,0.27879 -0.61,0.37402 -0.55413,0.15651 -0.61634,0.22097 -0.86911,0.90052 -0.20426,0.54913 -0.72422,0.83766 -1.51051,0.8382 -0.53918,3.7e-4 -0.82361,-0.0945 -1.82269,-0.60829 -0.986,-0.50702 -1.29187,-0.61017 -1.83056,-0.61736 -0.35572,-0.005 -0.81874,0.0639 -1.02894,0.15262 l -0.38217,0.16126 -0.004,1.01467 c -0.005,1.13095 -0.11931,1.66963 -0.79148,3.7193 -0.25452,0.77611 -0.63246,2.23132 -0.83987,3.23379 -0.96996,4.68822 -1.04493,4.95052 -1.98313,6.93797 -0.69126,1.46433 -0.72317,1.58921 -0.75137,2.93981 -0.0142,0.6791 -0.0594,1.36702 -0.10054,1.52871 -0.12013,0.47234 -0.2863,-0.82604 -0.25505,-1.9929 0.032,-1.19638 0.18591,-1.73539 0.89132,-3.12238 0.29605,-0.58209 0.53904,-1.14782 0.53999,-1.25718 9.5e-4,-0.10937 0.0483,-0.22765 0.10527,-0.26285 0.057,-0.0352 0.13265,-0.18384 0.16821,-0.33032 0.0356,-0.14647 0.12477,-0.47799 0.19825,-0.73669 0.29768,-1.04812 0.48524,-1.91175 0.70231,-3.2338 0.0584,-0.35571 0.16717,-0.96425 0.24171,-1.35231 0.0745,-0.38806 0.17865,-0.94368 0.23135,-1.23472 0.0527,-0.29104 0.14932,-0.66146 0.21468,-0.82315 0.0654,-0.16169 0.28653,-0.7267 0.49148,-1.25557 l 0.37264,-0.9616 -0.0565,-1.44905 c -0.0745,-1.9102 -0.19364,-2.44554 -0.71177,-3.19784 -0.39911,-0.5795 -0.4767,-1.01464 -0.18091,-1.01464 0.1394,0 0.66656,0.84841 1.01081,1.62683 l 0.28005,0.63323 0.31915,-0.0859 c 0.17554,-0.0472 0.69211,-0.10978 1.14795,-0.13896 l 0.82879,-0.053 1.17028,0.59621 c 0.95057,0.48426 1.28235,0.59624 1.76715,0.59642 0.63763,2.3e-4 0.88048,-0.1692 1.22165,-0.85233 0.0888,-0.17786 0.19225,-0.32455 0.22983,-0.32599 0.0376,-0.001 0.19631,-0.101 0.35274,-0.22126 l 0.28442,-0.21864 -0.25638,-0.43453 c -0.14101,-0.23899 -0.22619,-0.48338 -0.18928,-0.5431 0.0369,-0.0597 0.34688,-0.10856 0.68885,-0.10856 1.07535,0 1.74426,-0.54848 1.23309,-1.01108 -0.12234,-0.11071 -0.22243,-0.31817 -0.22243,-0.46102 0,-0.3432 0.54766,-0.87975 0.89798,-0.87975 0.35757,0 0.35293,0.14593 -0.0134,0.42104 -0.54506,0.40932 -0.4896,0.56139 0.17599,0.48256 0.48756,-0.0577 0.63577,-0.0304 0.81678,0.15059 0.31545,0.31545 0.35177,0.10419 0.17114,-0.9954 -0.085,-0.5174 -0.15734,-1.00527 -0.16077,-1.08415 -0.004,-0.0871 -0.16586,-0.13741 -0.41244,-0.12814 -0.44231,0.0166 -0.65098,-0.11335 -1.02485,-0.63841 -0.34486,-0.4843 -0.13114,-0.62551 0.40023,-0.26443 0.4665,0.31699 0.96478,0.37108 1.43687,0.15598 0.33223,-0.15137 0.37257,-0.28114 0.15252,-0.49066 -0.33349,-0.31755 -0.83504,-0.44297 -1.45942,-0.36496 -0.71597,0.0894 -0.78683,0.022 -0.26199,-0.2494 0.36861,-0.19061 1.27479,-0.18708 2.01539,0.008 0.2884,0.0759 0.32338,0.0537 0.32338,-0.20502 0,-0.15958 0.0589,-0.45896 0.13078,-0.66529 0.0809,-0.23199 0.0997,-0.66498 0.0494,-1.13467 l -0.0813,-0.75954 h -0.40995 c -0.5227,0 -0.77793,-0.13844 -1.55048,-0.84104 -0.51788,-0.47097 -0.70425,-0.57007 -1.07212,-0.57007 -0.47104,0 -0.51969,0.0398 -3.09053,2.52918 -0.89592,0.86753 -1.23565,1.06136 -1.66944,0.95249 -0.30711,-0.0771 -0.42309,-0.45354 -0.18506,-0.60065 0.26401,-0.16316 0.0284,-1.15354 -0.30486,-1.28142 -0.11939,-0.0458 -0.13036,0.006 -0.0474,0.22455 0.12852,0.33802 -0.0893,0.55003 -0.25707,0.25023 -0.31578,-0.56428 -0.99278,0.19647 -0.88565,0.99522 0.0444,0.3308 0.0186,0.45818 -0.0927,0.45818 -0.0867,0 -0.13323,-0.0901 -0.10629,-0.20579 0.0263,-0.11318 0.001,-0.47037 -0.056,-0.79375 l -0.10388,-0.58796 -0.0138,0.89379 c -0.008,0.49159 0.0459,1.0653 0.11903,1.27491 0.10964,0.31453 0.18205,0.37172 0.41438,0.3273 0.33735,-0.0645 0.46795,0.0948 0.27164,0.33137 -0.17996,0.21684 -0.64536,0.22139 -0.84364,0.008 -0.12884,-0.1385 -0.1958,-0.13287 -0.44561,0.0375 -0.53132,0.36228 -1.23694,0.50229 -1.79295,0.35577 -0.27506,-0.0725 -0.63239,-0.21852 -0.79408,-0.32452 -0.16169,-0.106 -0.45274,-0.27446 -0.64676,-0.37436 l -0.35278,-0.18164 -0.49396,0.48644 c -0.53126,0.52316 -1.64993,1.11119 -2.50465,1.31656 -0.29104,0.0699 -1.05834,0.20969 -1.70509,0.31057 -5.1983,0.81081 -7.75196,1.9855 -10.28114,4.72935 -0.60601,0.65746 -1.9324,2.36686 -3.81095,4.91143 -0.37081,0.50227 -0.80703,1.03044 -1.08995,1.31969 -0.13627,0.13932 -0.4952,0.56825 -0.79762,0.95318 -0.30241,0.38492 -0.77454,0.86123 -1.04918,1.05846 -0.53122,0.38149 -2.7901,1.4396 -3.0733,1.4396 -0.0928,0 -0.19751,0.0466 -0.23271,0.10356 -0.0352,0.057 -0.18384,0.13264 -0.33031,0.1682 -0.14648,0.0356 -0.47799,0.12478 -0.7367,0.19825 -2.73238,0.77604 -4.89401,0.84327 -7.76111,0.24137 -1.48012,-0.31072 -1.96852,-0.377 -3.22681,-0.43789 -1.89861,-0.0919 -3.40635,0.27885 -5.47504,1.34624 -0.32338,0.16685 -0.70661,0.36015 -0.85163,0.42955 -0.14501,0.0694 -0.26262,0.1791 -0.26135,0.24378 0.001,0.0647 1.3051,0.99072 2.89739,2.05787 1.59229,1.06715 2.95344,1.9961 3.02477,2.06434 0.0713,0.0682 0.47367,0.35543 0.89406,0.63822 0.88346,0.59428 2.39424,1.73899 2.82222,2.13838 0.60605,0.56555 0.8343,0.61715 2.08472,0.4713 2.7173,-0.31695 7.02754,-0.27776 10.73288,0.0976 0.54974,0.0557 1.42915,0.13765 1.95424,0.18214 l 0.9547,0.0809 0.069,-0.33759 c 0.0379,-0.18568 0.11661,-0.57572 0.17483,-0.86676 0.19017,-0.95063 0.85096,-3.32274 1.31029,-4.70371 0.56021,-1.68427 0.77718,-2.16403 2.56621,-5.67443 0.69051,-1.3549 1.00466,-2.21759 1.60869,-4.41763 0.48697,-1.77371 1.21875,-3.29583 1.92465,-4.00332 0.45002,-0.45104 0.55979,-0.50573 0.90322,-0.45 0.29205,0.0474 0.44271,0.006 0.59561,-0.16272 0.23415,-0.25873 0.73455,-0.30177 0.82318,-0.0708 0.0377,0.0982 0.18825,0.13648 0.40896,0.10409 0.43941,-0.0645 0.67338,0.126 0.76688,0.62438 0.0525,0.27966 0.15159,0.40952 0.35074,0.4595 0.20127,0.0505 0.29831,0.18007 0.35291,0.47111 0.12991,0.69249 -0.0379,1.11111 -0.60586,1.51145 -0.57825,0.40759 -0.62268,0.49973 -0.28371,0.58837 0.31076,0.0813 0.49508,0.60025 0.40037,1.12734 -0.17981,1.00078 -1.90067,2.98574 -3.3401,3.85271 -0.29269,0.17629 -0.58663,0.65216 -0.58663,0.94971 0,0.085 -0.0473,0.24643 -0.10505,0.35874 -0.11092,0.21559 -0.25972,0.88216 -0.47869,2.14446 -0.26779,1.54369 -0.39889,2.08597 -0.82445,3.41019 -0.23902,0.74377 -0.39384,1.3688 -0.34405,1.38895 0.12615,0.051 3.00174,-1.89063 4.28048,-2.89027 1.88929,-1.47695 1.82637,-1.40378 1.94493,-2.26164 0.0581,-0.4204 0.16436,-1.13477 0.23612,-1.5875 0.0718,-0.45273 0.16601,-1.74919 0.20943,-2.88102 0.0502,-1.30763 0.12183,-2.03644 0.19656,-1.99908 0.16055,0.0803 0.13837,3.19384 -0.0322,4.52732 -0.23324,1.82276 -0.35828,2.68107 -0.49682,3.41018 -0.33299,1.75248 -0.62299,4.45206 -0.61898,5.76204 0.003,1.05437 0.22339,3.04599 0.61099,5.52685 0.23295,1.49101 0.70398,4.18824 0.95492,5.46806 0.23619,1.20455 0.33307,1.7326 0.40994,2.23426 0.0789,0.51474 0.32276,1.31089 0.9186,2.99861 0.54697,1.54931 0.98872,3.05747 1.18832,4.05695 0.10978,0.54974 0.24844,1.09142 0.30814,1.20372 0.0597,0.11231 0.10853,0.27929 0.10853,0.37107 0,0.25195 0.4892,1.1166 0.8175,1.4449 l 0.29026,0.29026 0.76904,-0.0637 c 0.42296,-0.035 1.543,-0.11267 2.48896,-0.17252 0.94597,-0.0599 1.82742,-0.14294 1.9588,-0.18463 0.16616,-0.0527 0.34003,0.0179 0.57129,0.23228 0.18284,0.16945 0.46555,0.38686 0.62825,0.48314 0.16269,0.0963 0.47224,0.44202 0.68789,0.76832 0.27205,0.41164 0.42961,0.55574 0.51468,0.47068 0.19261,-0.19261 0.0171,-0.65356 -0.49582,-1.30251 -0.6032,-0.76311 -0.88022,-0.93877 -1.98124,-1.25634 -0.55326,-0.15957 -0.89915,-0.32093 -0.89915,-0.41946 0,-0.23364 0.69295,-0.26534 1.29751,-0.0593 l 0.5158,0.17575 -0.0688,-0.34404 c -0.0744,-0.37219 0.0453,-0.43286 0.43869,-0.22232 0.19025,0.10182 0.22746,0.0826 0.22746,-0.11759 0,-0.67451 1.60538,0.12391 2.41374,1.20045 0.25526,0.33996 0.49658,0.64456 0.53626,0.6769 0.0397,0.0323 0.10235,0.13817 0.13928,0.23518 0.0369,0.097 0.0713,0.005 0.0764,-0.20358 0.008,-0.31334 -0.1292,-0.52678 -0.78047,-1.21715 -1.25912,-1.33474 -1.51638,-1.47045 -2.97321,-1.56846 -3.47801,-0.23398 -3.70344,-0.30207 -4.09596,-1.23727 -0.31427,-0.74876 -0.58247,-1.72434 -0.66462,-2.41752 -0.18639,-1.57275 -0.69819,-5.41928 -0.87619,-6.58519 -0.24437,-1.60063 -0.34995,-2.49522 -0.34693,-2.93981 l 0.003,-0.47037 0.21024,0.76435 c 0.23908,0.86918 0.38693,1.7506 0.82349,4.90949 0.0603,0.43656 0.16617,1.17838 0.23519,1.64848 0.069,0.4701 0.12548,1.03895 0.12548,1.26412 0,0.46855 0.0784,0.49324 0.61379,0.19318 0.53678,-0.30086 0.92561,-0.38645 3.03158,-0.66729 0.35572,-0.0474 0.98163,-0.24315 1.39092,-0.43492 0.40928,-0.19177 0.77783,-0.315 0.81899,-0.27384 0.12969,0.1297 -0.13945,0.43226 -0.62923,0.70736 -0.45372,0.25485 -0.77657,0.33458 -1.93345,0.4775 -0.80777,0.0998 -2.32239,0.50089 -2.55614,0.67692 -0.08,0.0603 -0.22385,0.0795 -0.31962,0.0427 -0.0958,-0.0367 -0.20777,-0.0124 -0.2489,0.0542 -0.0798,0.12907 0.21947,1.48019 0.5115,2.30954 0.33577,0.95358 0.50339,1.03655 2.43677,1.2063 3.01873,0.26504 2.92193,0.24865 3.35139,0.56738 0.6548,0.48597 1.92526,1.81461 2.10098,2.19719 0.0884,0.19244 0.20746,0.44178 0.26459,0.55408 0.19694,0.38715 0.12167,1.19821 -0.13131,1.41482 -0.12936,0.11076 -0.23519,0.29714 -0.23519,0.41419 0,0.26413 -0.22048,0.49504 -0.47268,0.49504 -0.10476,0 -0.30549,0.13229 -0.44608,0.29398 -0.29851,0.34332 -0.35573,0.35302 -0.69219,0.11736 z m 0.31743,-0.92306 c 0,-0.41133 -0.0712,-0.58623 -0.36288,-0.89145 -0.33718,-0.35283 -0.64848,-0.4352 -0.36813,-0.0974 0.0691,0.0833 0.19105,0.41527 0.271,0.73779 0.12108,0.48846 0.26972,0.75114 0.43061,0.76099 0.0162,9.9e-4 0.0294,-0.22847 0.0294,-0.50992 z m 0.91955,-0.52662 c 0.0207,-0.14056 -0.0463,-0.33943 -0.14877,-0.44194 -0.10251,-0.1025 -0.33054,-0.38023 -0.50674,-0.61717 -0.46481,-0.62504 -0.83581,-0.93896 -1.49137,-1.26191 -0.31932,-0.1573 -0.60323,-0.28601 -0.63091,-0.28601 -0.0277,0 0.40045,0.42487 0.9514,0.94415 0.61589,0.58048 1.09843,1.14986 1.25277,1.47821 0.25921,0.55143 0.50788,0.63149 0.57362,0.18467 z m -85.40816,-0.70659 c 0.32247,-0.11893 1.04986,-0.51949 1.61643,-0.89014 1.27049,-0.83113 2.60496,-1.46014 4.14395,-1.95326 0.64676,-0.20724 1.26781,-0.4238 1.38012,-0.48127 0.1123,-0.0575 0.33407,-0.10448 0.49282,-0.10448 0.15875,0 0.32134,-0.0529 0.36131,-0.11759 0.04,-0.0647 0.16216,-0.1189 0.27153,-0.12051 0.10936,-0.002 0.44778,-0.18557 0.75203,-0.40881 0.97637,-0.71641 1.1249,-1.95535 0.47225,-3.9392 -0.17731,-0.53896 -0.31274,-1.27766 -0.34825,-1.89948 -0.0516,-0.9041 -0.0259,-1.08764 0.23117,-1.6463 0.26124,-0.56782 1.37718,-2.14886 1.93779,-2.74542 0.12156,-0.12936 0.40053,-0.49977 0.61995,-0.82315 0.21942,-0.32338 0.4301,-0.61442 0.46819,-0.64676 0.0381,-0.0323 0.41007,-0.56151 0.82663,-1.17593 0.62894,-0.92767 2.15817,-3.01921 2.76299,-3.77895 0.68339,-0.85845 1.67987,-2.48155 2.30039,-3.74697 0.94061,-1.91818 1.21507,-3.13296 1.15487,-5.11151 -0.0268,-0.87999 0.001,-1.42751 0.0745,-1.44829 0.14519,-0.0413 0.3294,1.07518 0.34021,2.06188 0.005,0.41151 0.0608,0.73747 0.1279,0.74066 0.0659,0.003 0.35798,0.2987 0.64902,0.6568 0.29104,0.35811 0.66145,0.79305 0.82314,0.96654 0.16169,0.17349 0.53138,0.60554 0.82153,0.9601 0.29016,0.35456 0.55592,0.67111 0.59059,0.70345 0.0347,0.0323 0.32644,0.37593 0.64838,0.76355 0.32193,0.38761 0.65228,0.77584 0.73411,0.86272 0.0818,0.0869 0.29322,0.35183 0.46977,0.58877 0.17656,0.23693 0.45921,0.56308 0.62812,0.72477 0.16891,0.16169 0.43121,0.47919 0.58289,0.70556 0.15168,0.22636 0.3083,0.43803 0.34804,0.47037 0.0397,0.0323 0.86251,1.04259 1.82835,2.24501 2.11342,2.63108 2.1296,2.65132 2.96987,3.7174 0.36724,0.46592 0.71375,0.84957 0.77004,0.85254 0.0563,0.003 0.47965,0.38906 0.94083,0.85796 0.46118,0.4689 1.10304,1.06422 1.42637,1.32292 0.32333,0.2587 0.61433,0.49857 0.64667,0.53303 0.16279,0.17348 1.32762,0.84845 2.03383,1.17853 0.8965,0.41901 1.26389,0.52623 2.60293,0.7596 1.55632,0.27125 3.25121,-0.0786 6.12296,-1.26387 1.04306,-0.4305 1.30814,-0.49124 2.34601,-0.53756 1.44787,-0.0646 2.22685,0.0693 5.00353,0.86021 1.1965,0.3408 2.33421,0.65477 2.52824,0.6977 0.19403,0.0429 0.57767,0.12813 0.85254,0.18933 2.67478,0.59553 2.67959,0.59656 4.40973,0.93903 2.20833,0.43712 2.3698,0.44574 4.38032,0.23383 0.71144,-0.075 2.1931,-0.15548 3.29259,-0.17889 1.98364,-0.0422 2.56934,-0.13793 3.2926,-0.53805 0.23394,-0.12942 0.34003,-0.26986 0.31494,-0.4169 -0.0659,-0.38647 -0.24102,-1.26042 -0.36834,-1.83863 -0.24792,-1.12593 -0.34773,-1.5682 -0.45778,-2.02847 -0.22674,-0.94834 -0.37819,-1.65734 -0.45128,-2.1127 -0.0612,-0.38144 -0.23746,-0.62553 -0.96732,-1.33984 -0.96524,-0.94467 -2.39805,-2.10185 -4.49905,-3.63357 -0.73276,-0.53422 -1.56825,-1.17829 -1.85665,-1.43128 l -0.52437,-0.45997 0.14711,-0.6266 c 0.23069,-0.98266 0.32734,-1.30888 1.07397,-3.62521 0.38568,-1.1965 0.78272,-2.59879 0.88232,-3.1162 0.0996,-0.51741 0.24088,-1.25824 0.31396,-1.6463 0.37797,-2.00689 0.73099,-2.97395 1.25562,-3.43958 0.23682,-0.2102 0.47025,-0.38218 0.51873,-0.38218 0.26954,0 1.54517,-1.26828 2.0605,-2.04863 0.37822,-0.57274 0.53946,-1.47915 0.26312,-1.47915 -0.0655,0 -0.31181,0.30428 -0.5474,0.67616 -0.67618,1.06737 -1.09901,1.5581 -1.3425,1.5581 -0.27681,0 -0.30354,-0.37664 -0.0421,-0.5936 0.29108,-0.24158 0.52237,-0.91612 0.52237,-1.52347 v -0.55964 l 0.44097,-0.33085 c 0.24254,-0.18197 0.48551,-0.40388 0.53993,-0.49312 0.0544,-0.0892 0.33224,-0.26227 0.61736,-0.38449 0.37025,-0.1587 0.51841,-0.29062 0.51841,-0.46157 0,-0.30236 -0.11857,-0.30067 -0.67258,0.01 -1.08275,0.60635 -2.03205,1.4343 -2.03205,1.7723 0,0.24153 -0.22336,1.21859 -0.35783,1.56532 -0.0502,0.12935 -0.1221,0.33114 -0.15985,0.44842 -0.0377,0.11729 -0.12192,0.18031 -0.18705,0.14005 -0.15345,-0.0948 -0.15411,-0.84652 -8.3e-4,-0.94125 0.0647,-0.04 0.11759,-0.2781 0.11759,-0.52917 0,-0.25107 0.0529,-0.48919 0.1176,-0.52916 0.0647,-0.04 0.11759,-0.22563 0.11759,-0.41256 0,-0.24032 0.14641,-0.49146 0.49977,-0.85726 0.52744,-0.54601 1.50893,-1.25842 1.73373,-1.25842 0.17541,0 0.10387,-0.73171 -0.0773,-0.79114 -0.0753,-0.0247 -0.30939,0.20936 -0.52019,0.52011 -0.21081,0.31076 -0.51533,0.67084 -0.67671,0.80019 -0.79576,0.63783 -1.0402,0.89504 -1.2832,1.35031 -0.14521,0.27203 -0.26401,0.59231 -0.26401,0.71174 0,0.11942 -0.0529,0.24983 -0.11759,0.2898 -0.0647,0.04 -0.11759,0.19873 -0.11759,0.35278 0,0.15406 -0.0529,0.31281 -0.1176,0.35278 -0.0647,0.04 -0.11759,0.16484 -0.11759,0.27748 0,0.35877 -0.2867,0.83778 -0.50201,0.83873 -0.16738,7.4e-4 -0.19293,-0.0623 -0.13077,-0.32246 0.0425,-0.17786 0.11334,-0.3763 0.15744,-0.44097 0.0441,-0.0647 0.14868,-0.35572 0.23238,-0.64676 0.0837,-0.29104 0.19372,-0.635 0.2445,-0.76435 0.0508,-0.12936 0.15981,-0.4204 0.24231,-0.64676 0.0825,-0.22637 0.25748,-0.57033 0.38885,-0.76435 0.25677,-0.37924 1.00881,-1.11713 1.13854,-1.11713 0.12779,0 0.71616,-0.94568 0.67158,-1.07942 -0.0505,-0.15161 -1.97158,1.78762 -1.97208,1.99076 -2e-4,0.0808 -0.0533,0.14699 -0.11796,0.14699 -0.0647,0 -0.11759,0.10271 -0.11759,0.22824 0,0.12554 -0.0529,0.26095 -0.1176,0.30093 -0.0647,0.04 -0.11759,0.1761 -0.11759,0.30251 0,0.12642 -0.049,0.32173 -0.10901,0.43404 -0.0599,0.1123 -0.13895,0.30014 -0.17556,0.41743 -0.0366,0.11741 -0.12482,0.17722 -0.19621,0.1331 -0.12352,-0.0763 -0.10644,-0.35874 0.0707,-1.16949 l 0.0771,-0.35278 -0.15771,0.29398 c -0.20747,0.38676 -0.39356,0.94629 -0.62575,1.88148 -0.33439,1.34683 -0.90404,3.08862 -1.15133,3.52033 -0.73028,1.27491 -2.34763,4.58886 -2.77596,5.68793 -0.27239,0.69892 -0.62629,1.81017 -0.78645,2.46945 -0.46713,1.92283 -0.78241,3.05871 -0.93655,3.37415 -0.079,0.16169 -0.17998,0.56228 -0.22437,0.8902 -0.064,0.47239 -0.0417,0.62856 0.10696,0.75197 0.10322,0.0857 0.47152,0.63757 0.81844,1.22646 1.33447,2.26522 2.97538,4.09875 5.44587,6.08517 0.49947,0.4016 2.0254,1.39434 2.14322,1.39434 0.0676,0 0.1229,0.0529 0.1229,0.1176 0,0.0647 0.0475,0.11759 0.10558,0.11759 0.0581,0 0.46817,0.21374 0.91134,0.47497 0.44317,0.26124 0.88161,0.51613 0.9743,0.56643 0.29633,0.1608 0.42979,0.46519 0.27279,0.62218 -0.11007,0.11007 -0.46728,-0.0246 -1.61425,-0.60839 -0.8101,-0.41236 -1.47291,-0.79201 -1.47291,-0.84367 0,-0.0517 -0.0661,-0.0949 -0.14699,-0.0961 -0.18443,-0.003 -0.71902,-0.42751 -1.78449,-1.41806 -0.45757,-0.4254 -1.27986,-1.16874 -1.82731,-1.65186 -1.19592,-1.05541 -2.52075,-2.661 -3.18986,-3.8659 -0.26938,-0.48507 -0.64175,-1.10839 -0.8275,-1.38515 -0.18576,-0.27677 -0.33774,-0.63083 -0.33774,-0.78681 0,-0.39229 -0.15587,-0.46218 -1.23472,-0.55356 -0.51741,-0.0438 -1.6022,-0.14518 -2.41065,-0.22522 -1.71815,-0.17012 -8.24362,-0.19043 -9.87777,-0.0307 -0.61442,0.06 -1.22965,0.0891 -1.36716,0.0645 -0.13751,-0.0246 -0.69314,-0.39849 -1.23472,-0.83093 -1.13174,-0.90366 -3.0301,-2.28209 -4.39488,-3.1912 -0.51741,-0.34466 -0.9672,-0.66254 -0.99954,-0.70639 -0.0876,-0.11877 -6.71853,-4.47721 -7.02616,-4.6182 -0.14552,-0.0667 -0.26458,-0.16569 -0.26458,-0.21998 0,-0.0543 -0.0566,-0.0987 -0.1258,-0.0987 -0.0692,0 -0.34701,-0.15143 -0.61736,-0.3365 -0.27036,-0.18508 -1.04719,-0.67901 -1.72628,-1.09762 -0.6791,-0.41862 -1.68452,-1.04155 -2.23426,-1.38429 -0.54975,-0.34275 -1.17808,-0.72472 -1.3963,-0.84884 -0.21821,-0.12412 -0.47203,-0.30095 -0.56405,-0.39296 -0.42656,-0.42657 -1.5836,-0.76102 -2.63411,-0.76142 -0.48048,-1.8e-4 -1.34885,-0.0586 -1.92972,-0.12985 -1.04635,-0.12832 -2.2025,0.002 -2.36648,0.26787 -0.0331,0.0536 -0.13591,0.0975 -0.22836,0.0975 -0.0925,0 -0.26132,0.0757 -0.37524,0.16823 -0.11392,0.0925 -0.37604,0.30632 -0.58248,0.47508 -0.40844,0.3339 -1.09456,1.58995 -1.09456,2.00376 0,0.14171 -0.0467,0.41107 -0.10387,0.59858 -0.0571,0.18751 -0.17217,0.57905 -0.25563,0.87009 -0.0835,0.29104 -0.19548,0.57944 -0.24891,0.64088 -0.0534,0.0614 -0.0971,0.18108 -0.0971,0.26587 0,0.0848 -0.1111,0.40493 -0.2469,0.71143 -0.38091,0.85975 -0.43295,0.99348 -0.58291,1.49803 -0.0769,0.2587 -0.18622,0.56225 -0.24296,0.67456 -0.0567,0.1123 -0.10315,0.33408 -0.10315,0.49283 0,0.15875 -0.0529,0.32134 -0.1176,0.36131 -0.0647,0.04 -0.11759,0.1761 -0.11759,0.30252 0,0.12641 -0.0467,0.32172 -0.10387,0.43403 -0.10861,0.2135 -0.33449,0.74364 -0.48784,1.14493 -0.10844,0.28378 -0.35932,0.87244 -0.67659,1.5875 -0.31246,0.70424 -1.58188,3.87508 -1.90662,4.7625 -0.30452,0.83215 -0.45983,1.2187 -0.60176,1.49771 -0.0571,0.11231 -0.10387,0.30016 -0.10387,0.41745 0,0.1173 -0.0421,0.26354 -0.0936,0.32498 -0.0515,0.0614 -0.16081,0.32338 -0.24296,0.58208 -0.14342,0.45163 -0.1915,0.58151 -0.45706,1.23473 -0.53202,1.30862 -1.69909,3.36948 -2.57814,4.55257 -0.56633,0.76222 -1.06057,1.41231 -1.0983,1.44465 -0.0377,0.0323 -0.19579,0.244 -0.35125,0.47037 -0.15546,0.22636 -0.31329,0.43803 -0.35074,0.47037 -0.0374,0.0323 -0.30497,0.37629 -0.59449,0.76435 -2.74912,3.68472 -3.91379,4.9309 -5.11899,5.47722 -2.25729,1.02325 -2.87282,1.33425 -2.87282,1.45154 0,0.12246 0.21974,0.23399 0.99954,0.5073 0.19403,0.068 1.20019,0.12928 2.23592,0.13616 1.55884,0.0104 1.98411,-0.0247 2.46944,-0.20372 z m -23.09478,-4.36989 c 0.15582,-0.74395 0.35665,-1.39365 0.63093,-2.04118 0.1057,-0.24953 0.16789,-0.47797 0.1382,-0.50765 -0.0297,-0.0297 -0.31452,0.26805 -0.63298,0.66162 -1.13128,1.39813 -1.43652,2.37214 -0.9766,3.11631 0.14132,0.22866 0.34544,0.46558 0.45359,0.5265 0.17153,0.0966 0.20014,0.0329 0.22402,-0.49905 0.0151,-0.33538 0.0883,-0.90083 0.16284,-1.25655 z m 84.2359,-1.48143 c 1.37114,-0.62509 2.78454,-0.60277 8.00166,0.12633 3.18309,0.44485 4.04262,0.53267 4.11217,0.42014 0.0265,-0.0429 -0.087,-0.52475 -0.25227,-1.07081 -0.16525,-0.54606 -0.32691,-1.13901 -0.35924,-1.31766 -0.0323,-0.17865 -0.10561,-0.35375 -0.16283,-0.38912 -0.0572,-0.0354 -0.10404,-0.167 -0.10404,-0.29254 0,-0.28338 -0.0599,-0.28457 -0.45221,-0.009 -0.30873,0.21683 -0.67866,0.35306 -1.6193,0.59634 -0.26621,0.0688 -1.51894,0.12518 -2.78385,0.12518 -1.26491,0 -2.58169,0.0564 -2.92617,0.12526 -0.34449,0.0689 -0.91738,0.18026 -1.2731,0.2475 -0.71586,0.13529 -0.86014,0.18276 -1.68832,0.55538 -0.78617,0.35373 -1.39642,0.86926 -1.72497,1.45727 l -0.27694,0.49561 0.45804,-0.39969 c 0.25192,-0.21982 0.72503,-0.5214 1.05137,-0.67017 z m -44.9738,-1.0446 c 0.35572,-0.11232 0.75259,-0.24603 0.88194,-0.29713 0.12935,-0.0511 0.4204,-0.15738 0.64676,-0.23617 0.22637,-0.0788 0.59678,-0.22269 0.82315,-0.3198 0.79462,-0.34086 1.23689,-0.52624 1.46991,-0.61611 0.12935,-0.0499 0.49977,-0.20995 0.82314,-0.35569 0.32338,-0.14574 0.6938,-0.30592 0.82315,-0.35595 0.12935,-0.05 0.48596,-0.20209 0.79247,-0.33788 0.30651,-0.1358 0.58489,-0.24691 0.61864,-0.24691 0.0337,0 0.28568,-0.10219 0.55985,-0.2271 0.27417,-0.1249 1.02765,-0.4469 1.67441,-0.71555 1.14157,-0.47419 5.23208,-2.44531 5.35046,-2.57826 0.0323,-0.0363 0.20432,-0.14104 0.38218,-0.23271 0.17786,-0.0917 0.32308,-0.19742 0.32272,-0.235 -5.3e-4,-0.0556 -0.69859,-0.96842 -1.44611,-1.89101 -0.0786,-0.097 -1.0412,-1.28764 -2.13909,-2.64583 -1.0979,-1.35819 -2.09914,-2.58851 -2.22498,-2.73403 -0.24564,-0.28406 -0.4235,-0.32313 -0.74654,-0.16399 -0.11231,0.0553 -0.91857,0.45135 -1.79169,0.88006 -0.87313,0.42871 -2.2391,1.20365 -3.03549,1.7221 -0.79639,0.51844 -1.49754,0.94262 -1.5581,0.94262 -0.0606,0 -0.11011,0.0529 -0.11011,0.11759 0,0.0647 -0.075,0.11759 -0.16659,0.11759 -0.0916,0 -0.18423,0.0397 -0.20579,0.0882 -0.0216,0.0485 -0.27732,0.27188 -0.56837,0.49639 -0.29104,0.2245 -0.72973,0.59216 -0.97486,0.81702 -1.4543,1.33396 -2.32732,1.7734 -3.5232,1.7734 h -0.83319 l -0.7519,0.79375 c -1.64512,1.7367 -2.05401,3.55505 -1.29441,5.75627 l 0.1299,0.3764 0.65462,0.0718 c 0.36004,0.0395 0.89274,0.1218 1.18379,0.18297 0.29104,0.0612 0.76729,0.16106 1.05833,0.22199 0.75673,0.15842 2.41812,0.07 3.175,-0.16899 z m -25.04722,-7.12504 c 0.29104,-0.0637 0.87313,-0.16284 1.29352,-0.22029 0.9251,-0.12644 1.43291,-0.23158 3.6671,-0.75927 2.52642,-0.59671 4.17033,-0.79336 6.62225,-0.79216 1.88714,9.1e-4 2.22138,0.0317 3.08225,0.28368 0.98851,0.28937 1.20988,0.26125 1.20988,-0.1537 0,-0.10564 0.0363,-0.22833 0.0806,-0.27266 0.0796,-0.0796 0.38458,-0.88997 0.38801,-1.03105 0.006,-0.24102 -1.15674,-0.34717 -3.29082,-0.30048 -2.48307,0.0543 -3.14579,0.14283 -4.99769,0.66737 -0.2587,0.0733 -0.68203,0.18505 -0.94074,0.24838 -0.60824,0.1489 -1.12702,0.27711 -1.99907,0.49402 -0.38806,0.0965 -0.9966,0.23197 -1.35232,0.30099 -0.35571,0.069 -0.91134,0.17773 -1.23472,0.24159 -3.22548,0.63692 -5.87502,0.37925 -8.64305,-0.84054 -1.05895,-0.46664 -1.59173,-0.70753 -1.7917,-0.81009 -0.1123,-0.0576 -0.30761,-0.10472 -0.43403,-0.10472 -0.12641,0 -0.26254,-0.0529 -0.30251,-0.11759 -0.21164,-0.34244 -1.29257,0.15015 -1.48376,0.67615 l -0.0962,0.26459 h 0.79994 c 0.83233,0 1.7249,0.23756 2.93772,0.78188 0.91007,0.40845 2.69258,1.10169 3.19273,1.24169 1.12006,0.31353 2.41944,0.39333 3.29259,0.20221 z m 22.7306,-0.88974 c 0.34983,-0.1791 1.1565,-0.80175 1.84505,-1.42416 0.16103,-0.14556 0.32922,-0.26466 0.37377,-0.26466 0.0445,0 0.15093,-0.0697 0.23639,-0.15495 0.24158,-0.2409 3.2722,-2.2494 4.54168,-3.00994 1.18634,-0.71073 2.21775,-1.25613 3.02204,-1.59803 0.2587,-0.10997 0.58482,-0.25394 0.72471,-0.31994 l 0.25434,-0.11999 -0.37193,-0.4181 c -0.77228,-0.86812 -0.75143,-0.85468 -1.10516,-0.71246 -1.26622,0.50913 -3.69744,1.70026 -4.49964,2.20452 -1.14167,0.71764 -3.45146,2.26569 -4.03229,2.70249 -0.52011,0.39114 -0.81267,0.77538 -2.00384,2.63172 l -0.43387,0.67616 h 0.53621 c 0.29491,0 0.70556,-0.0867 0.91254,-0.19266 z m 56.55144,-2.71714 c -0.13889,-0.84281 -0.32956,-2.72764 -0.44317,-4.38094 -0.0923,-1.34261 -0.11799,-1.41111 -0.53014,-1.41111 -0.42151,0 -0.43162,0.0743 -0.0509,0.37379 0.57271,0.45048 0.30986,1.52563 -0.41172,1.68411 -0.60104,0.13201 -1.05135,-0.0365 -1.25855,-0.47103 l -0.18617,-0.39039 0.19232,-0.48065 c 0.15555,-0.38878 0.1618,-0.48065 0.0327,-0.48065 -0.32669,0 -1.79778,0.82714 -2.34118,1.31635 l -0.56242,0.50634 0.6711,0.47037 c 1.88191,1.31902 3.47228,2.58588 4.15793,3.31212 0.42039,0.44528 0.78612,0.79531 0.81273,0.77783 0.0266,-0.0175 -0.0105,-0.38923 -0.0825,-0.82614 z m -51.89483,-3.59765 c 0.47854,-0.29915 1.02094,-0.61069 1.20532,-0.69231 0.18439,-0.0816 0.33524,-0.21485 0.33524,-0.29607 0,-0.0812 0.0977,-0.24537 0.21708,-0.36476 0.31287,-0.31287 0.86387,-1.16021 1.19703,-1.8408 0.15829,-0.32338 0.33657,-0.62271 0.39617,-0.66518 0.114,-0.0812 -0.36135,-0.73462 -1.18282,-1.62581 -0.26932,-0.29218 -0.59829,-0.66352 -0.73104,-0.82521 l -0.24137,-0.29398 -0.004,0.28563 c -0.002,0.1571 -0.0557,0.44814 -0.11892,0.64676 -0.75185,2.36081 -1.50308,3.86255 -3.18988,6.37667 l -0.83017,1.23735 1.0386,-0.69919 c 0.57122,-0.38455 1.43012,-0.94395 1.90867,-1.2431 z m 46.59128,-1.14302 c 0.62882,-0.59006 2.22705,-1.46765 2.80947,-1.54268 0.25504,-0.0329 0.29132,-0.0924 0.27394,-0.44944 -0.011,-0.22637 -0.079,-0.67616 -0.15113,-0.99954 -0.0721,-0.32338 -0.16223,-0.86577 -0.20031,-1.20532 -0.0438,-0.39071 -0.12503,-0.61736 -0.22125,-0.61736 -0.0836,0 -0.16966,0.044 -0.19122,0.0977 -0.055,0.13714 -2.03793,1.45393 -2.75042,1.82649 l -0.59148,0.30927 -0.15553,0.73536 c -0.0855,0.40445 -0.2228,0.94509 -0.30501,1.20143 -0.15182,0.47342 -0.12242,0.76865 0.0766,0.76865 0.0605,0 0.22353,0.10584 0.36237,0.23519 0.13885,0.12935 0.28789,0.23518 0.33122,0.23518 0.0433,0 0.36408,-0.26771 0.71278,-0.59492 z m 3.24064,0.51652 c -0.0431,-0.0431 -0.11367,-0.0431 -0.15679,0 -0.0431,0.0431 -0.008,0.0784 0.0784,0.0784 0.0862,0 0.12151,-0.0353 0.0784,-0.0784 z m -46.09444,-1.38394 0.9622,-0.46106 -0.43303,-0.562 c -0.43032,-0.55847 -0.72702,-0.72401 -0.72702,-0.40562 0,0.0915 -0.2157,0.57352 -0.47934,1.07112 -0.26364,0.49761 -0.43562,0.88536 -0.38218,0.86168 0.0534,-0.0237 0.53016,-0.25054 1.05937,-0.50412 z m 47.66234,-1.45482 c 0,-0.31092 0.10711,-1.42971 0.23803,-2.4862 0.13091,-1.0565 0.21394,-1.94499 0.1845,-1.97442 -0.0294,-0.0294 -0.41436,0.23416 -0.85539,0.58578 -0.44102,0.35162 -0.92093,0.71347 -1.06645,0.80412 -0.398,0.24793 -0.33746,1.13407 0.21427,3.13626 l 0.13772,0.49976 h 0.57366 0.57366 z m -35.33657,-6.60734 c 1.02918,-0.50109 0.98391,-0.45879 0.70537,-0.65911 -0.12925,-0.093 -0.31438,-0.235 -0.41139,-0.31567 -0.097,-0.0807 -0.62618,-0.40731 -1.17593,-0.72589 -1.20238,-0.69679 -2.69651,-1.68086 -2.93997,-1.93634 -0.0971,-0.10189 -0.5204,-0.4763 -0.94067,-0.83201 -0.42027,-0.35572 -0.91226,-0.77687 -1.09331,-0.9359 -1.12411,-0.98733 -2.71733,-1.93326 -3.7867,-2.24823 -0.2587,-0.0762 -0.59192,-0.18469 -0.74048,-0.2411 -0.56014,-0.21266 -1.43481,-0.11464 -2.18903,0.24531 -0.89162,0.42553 -2.28543,1.64488 -2.03831,1.78318 0.0905,0.0506 0.63674,0.13977 1.21387,0.19805 1.11414,0.11252 1.87299,0.38839 2.46043,0.89448 0.19403,0.16716 0.41893,0.30398 0.49977,0.30406 0.0808,8e-5 0.14699,0.0531 0.14699,0.11774 0,0.0647 0.0537,0.11759 0.11941,0.11759 0.0657,0 0.3964,0.17923 0.73495,0.39828 0.33855,0.21906 1.4093,0.88947 2.37944,1.4898 0.97014,0.60033 2.14515,1.34715 2.61113,1.65959 0.46597,0.31244 0.90254,0.56807 0.97013,0.56807 0.0676,0 0.12291,0.0529 0.12291,0.1176 0,0.0647 0.0794,0.11759 0.17639,0.11759 0.097,0 0.17638,0.0529 0.17638,0.11759 0,0.0647 0.0794,0.11759 0.17639,0.11759 0.097,0 0.17639,0.0529 0.17639,0.1176 0,0.0647 0.0662,0.11877 0.14699,0.1202 0.0808,0.001 0.27683,0.1024 0.43553,0.22436 l 0.28853,0.22174 0.47582,-0.31769 c 0.2617,-0.17473 0.84623,-0.49805 1.29897,-0.71848 z m 34.04125,-7.26879 c 9.9e-4,-0.0847 -0.0511,-0.12122 -0.11579,-0.0813 -0.0647,0.04 -0.11678,0.18862 -0.11579,0.33032 0.001,0.20946 0.0231,0.22466 0.11579,0.0813 0.0627,-0.097 0.1148,-0.24566 0.11579,-0.33032 z m 18.67724,-4.1088 c -0.0238,-0.12531 -0.16753,-0.22057 -0.36765,-0.2436 l -0.32862,-0.0378 0.15213,0.2436 c 0.18937,0.30324 0.59989,0.33176 0.54414,0.0378 z m -5.56566,-8.94863 c -0.0888,-0.0888 -0.29219,0.12385 -0.29219,0.30559 0,0.16051 0.0273,0.1546 0.16678,-0.0361 0.0917,-0.12544 0.14816,-0.24669 0.12541,-0.26943 z m 3.47078,48.98519 c 0,-0.27874 -0.0404,-0.26112 1.5875,-0.69226 0.73012,-0.19337 1.14464,-0.35936 2.41064,-0.96534 1.56605,-0.74959 3.08282,-1.89904 4.2828,-3.24561 0.31825,-0.35713 0.91833,-1.01726 1.33353,-1.46696 0.58569,-0.63436 0.92621,-1.16557 1.51915,-2.36984 0.82249,-1.67047 1.04608,-2.59434 1.08646,-4.48922 0.01,-0.47099 0.0691,-0.99011 0.13127,-1.15361 0.1367,-0.35954 0.40706,-0.25325 0.28574,0.11233 -0.0459,0.13822 -0.097,1.02788 -0.11366,1.97701 l -0.0303,1.7257 -0.49485,1.15532 c -0.27217,0.63543 -0.74157,1.57268 -1.04311,2.08278 -0.72071,1.21918 -3.44085,4.14072 -4.68516,5.03205 -0.80846,0.57912 -2.41036,1.46453 -3.18324,1.75944 -0.14553,0.0555 -0.38365,0.14785 -0.52917,0.20515 -0.14552,0.0573 -0.50271,0.16865 -0.79375,0.24743 -0.29104,0.0788 -0.65072,0.19065 -0.79928,0.24859 -0.14857,0.0579 -0.42638,0.10535 -0.61737,0.10535 -0.28314,0 -0.34724,-0.0495 -0.34724,-0.26831 z m 0,-5.37243 c 0,-0.15808 0.0772,-0.2389 0.22824,-0.2389 0.12554,0 0.2575,-0.0473 0.29325,-0.10517 0.0358,-0.0578 0.26376,-0.13453 0.5067,-0.17041 0.24294,-0.0359 0.7063,-0.11632 1.02968,-0.17875 0.32338,-0.0624 0.90546,-0.17118 1.29352,-0.24168 1.49494,-0.2716 1.78211,-0.33616 2.35185,-0.52875 0.32338,-0.10932 0.82609,-0.31339 1.11713,-0.4535 0.57098,-0.27488 2.11666,-1.76097 2.11666,-2.03505 0,-0.092 0.0468,-0.16724 0.10388,-0.16724 0.0571,0 0.13517,-0.0926 0.17341,-0.20579 0.13654,-0.40408 0.9863,-1.85208 1.0869,-1.85208 0.31985,0 0.0373,0.81943 -0.77042,2.23426 -1.09247,1.91364 -2.37203,2.87867 -4.59191,3.46318 -0.29105,0.0766 -0.69168,0.18866 -0.8903,0.24895 -0.19862,0.0603 -0.53283,0.10963 -0.74268,0.10963 -0.20986,0 -0.47069,0.0458 -0.57962,0.10171 -0.10893,0.0559 -0.76691,0.13699 -1.46217,0.1801 l -1.26412,0.0784 z m -7.97471,-2.3131 c 0.0242,-0.2015 0.16092,-0.37778 0.38998,-0.50271 0.6838,-0.37293 1.53396,-0.88042 1.99967,-1.19368 0.77989,-0.52461 2.01594,-1.1963 2.58645,-1.40554 0.12935,-0.0474 0.38319,-0.14575 0.56409,-0.21848 0.18091,-0.0727 0.45559,-0.13224 0.61042,-0.13224 0.4146,0 0.43685,-0.1381 0.12514,-0.77684 -0.15446,-0.31651 -0.31028,-0.66887 -0.34626,-0.78302 -0.036,-0.11416 -0.18584,-0.25406 -0.33302,-0.31091 -0.45476,-0.17563 -1.26713,-1.26872 -1.26713,-1.70498 0,-0.0871 -0.0794,-0.22429 -0.17639,-0.3048 -0.12187,-0.10115 -0.17639,-0.1056 -0.17639,-0.0144 0,0.0726 -0.10271,0.13199 -0.22825,0.13199 -0.12553,0 -0.26095,0.0529 -0.30092,0.11759 -0.04,0.0647 -0.4633,0.11759 -0.94074,0.11759 -0.47743,0 -0.90077,-0.0529 -0.94074,-0.11759 -0.04,-0.0647 -0.15132,-0.11759 -0.24744,-0.11759 -0.2219,0 -1.7255,-1.01911 -2.32498,-1.57583 -0.49779,-0.46228 -0.71077,-0.53738 -0.61673,-0.21746 0.0333,0.11318 0.0903,0.65558 0.12666,1.20533 l 0.0662,0.99953 -0.17201,-0.58796 c -0.27311,-0.93354 -0.56713,-2.62986 -0.49046,-2.82967 0.0585,-0.15246 0.14286,-0.12813 0.51172,0.14763 0.24292,0.1816 0.52121,0.41699 0.61844,0.52308 0.43214,0.47153 1.57906,1.28885 2.27409,1.62056 0.89446,0.42688 1.47957,0.45898 2.18185,0.11967 l 0.50159,-0.24234 -0.0734,-0.43433 c -0.12457,-0.73728 -0.0978,-2.76711 0.041,-3.11619 0.0724,-0.18207 0.13168,-0.45429 0.13168,-0.60493 0,-0.15064 0.15353,-0.43823 0.34116,-0.6391 0.28619,-0.30636 0.42849,-0.36521 0.88302,-0.36521 0.44105,0 0.6102,-0.0653 0.90923,-0.35109 0.28572,-0.27304 0.43578,-0.33502 0.67509,-0.2788 0.16924,0.0398 0.35256,0.11295 0.40737,0.16265 0.0548,0.0497 0.25052,0.004 0.43491,-0.10205 0.29072,-0.16685 0.38682,-0.17148 0.72349,-0.0348 0.78174,0.31729 0.91253,0.30708 1.25036,-0.0976 l 0.31675,-0.37943 0.54518,0.0818 c 0.40483,0.0607 0.6769,0.20216 1.05686,0.54949 0.78429,0.71694 1.10054,0.84361 2.15797,0.86441 0.95601,0.0188 1.23314,0.0659 2.17547,0.36995 0.72628,0.23432 1.76388,0.7494 1.76388,0.87561 0,0.0571 0.0657,0.10379 0.14591,0.10379 0.2488,0 1.505,1.42181 1.80423,2.04209 0.3258,0.67535 0.32258,0.66254 0.16653,0.66254 -0.0647,0 -0.11759,-0.0784 -0.11759,-0.17414 0,-0.29127 -0.55662,-0.33656 -1.56723,-0.12753 -0.81845,0.16929 -1.87372,0.56052 -2.07814,0.77046 -0.0323,0.0332 -0.29692,0.24434 -0.58796,0.46918 -0.29105,0.22484 -0.7667,0.67463 -1.057,0.99954 -1.1736,1.31347 -2.32246,2.39375 -2.80962,2.6419 -1.84355,0.93907 -3.49235,0.73691 -5.0347,-0.61729 -0.46003,-0.40392 -0.47034,-0.38005 -0.125,0.2895 0.61797,1.19816 1.70175,1.74639 3.44902,1.74471 1.17723,-0.001 1.9694,-0.24204 3.64726,-1.10916 1.30122,-0.67247 2.10642,-0.88194 2.10642,-0.54798 0,0.0982 -0.28491,0.25434 -0.70555,0.38677 -0.38806,0.12216 -0.93045,0.32588 -1.20533,0.45271 -0.81217,0.37474 -1.60025,0.72433 -1.85208,0.82159 -0.12935,0.0499 -0.41251,0.15772 -0.62924,0.23947 -0.23729,0.0895 -0.89221,0.14364 -1.6463,0.13605 -1.03879,-0.0105 -1.34243,-0.057 -1.7814,-0.27325 -0.71379,-0.3516 -1.42789,-0.31616 -2.64584,0.13128 -0.47828,0.17571 -1.41235,0.64815 -1.45031,0.73356 -0.0216,0.0485 -0.0914,0.0882 -0.1552,0.0882 -0.0638,0 -0.35932,0.1674 -0.65671,0.37202 -0.88715,0.61037 -2.65265,1.62705 -2.82543,1.62705 -0.10482,0 -0.14788,-0.10807 -0.12363,-0.31032 z m 11.28494,-4.47224 c 0.37256,-0.20222 1.26186,-0.97852 2.26735,-1.97924 1.71426,-1.70612 2.57175,-2.36607 3.62497,-2.78987 0.33903,-0.13642 0.66264,-0.288 0.71912,-0.33685 0.24704,-0.21365 -2.4559,-2.5763 -2.94736,-2.5763 -0.068,0 -0.16041,0.27718 -0.20535,0.61595 -0.10821,0.81569 -0.34606,1.28935 -0.77457,1.54248 -0.29886,0.17654 -0.36166,0.18213 -0.41728,0.0372 -0.036,-0.0939 0.0666,-0.30271 0.22832,-0.46443 0.3021,-0.30211 0.47761,-0.90038 0.40777,-1.39004 -0.0258,-0.18089 -0.15675,-0.31866 -0.37585,-0.39541 -0.29996,-0.10507 -0.36653,-0.0799 -0.61678,0.23282 -0.31084,0.38851 -0.35108,0.7164 -0.14376,1.17141 0.1071,0.23506 0.10533,0.33485 -0.008,0.44651 -0.1152,0.11359 -0.18251,0.0944 -0.32036,-0.0914 -0.12575,-0.16946 -0.16779,-0.49702 -0.1504,-1.1721 l 0.0241,-0.93691 -0.63544,-0.40561 c -0.34949,-0.22309 -0.81408,-0.52486 -1.03243,-0.67061 -0.46767,-0.31217 -0.67005,-0.26817 -0.75766,0.16474 -0.0352,0.17372 -0.17281,0.43209 -0.3059,0.57416 -0.34906,0.37259 -0.20295,0.62364 0.36295,0.62364 0.2556,0 0.43866,0.0422 0.4068,0.0937 -0.0319,0.0516 -0.3128,0.0912 -0.62431,0.0882 l -0.56636,-0.005 -0.12906,-0.39927 c -0.1626,-0.50308 -0.78639,-0.86872 -1.1778,-0.69038 -0.14204,0.0647 -0.398,0.37442 -0.5688,0.68823 -0.1708,0.31381 -0.36907,0.60674 -0.4406,0.65095 -0.16144,0.0998 -0.44022,-0.26189 -0.52646,-0.68298 -0.0609,-0.29718 -0.39108,-0.57346 -0.39108,-0.32721 0,0.0627 -0.31564,0.11391 -0.70142,0.11391 -0.82545,0 -0.89992,0.0852 -1.1303,1.29344 -0.16315,0.8556 -0.041,3.19968 0.21309,4.09061 0.14473,0.50739 0.85427,1.55659 1.10888,1.63972 0.0754,0.0246 0.17153,-0.064 0.21372,-0.19693 0.0956,-0.30131 0.25805,-0.3114 0.34998,-0.0217 0.10441,0.32898 0.99863,1.17784 1.53355,1.45576 0.69794,0.36263 1.08527,0.43665 2.02478,0.38698 0.65164,-0.0345 0.99128,-0.12219 1.46185,-0.37761 z m 7.68667,-5.33364 c 0.0823,-0.13314 -1.00556,-1.19167 -1.4719,-1.43224 -0.16169,-0.0834 -0.3308,-0.20312 -0.37579,-0.26603 -0.045,-0.0629 -0.11236,-0.0838 -0.14972,-0.0465 -0.0374,0.0374 0.17403,0.32687 0.46974,0.64336 0.29572,0.31648 0.61581,0.72095 0.71131,0.8988 0.17737,0.33032 0.66294,0.45079 0.81636,0.20256 z m -11.92546,-3.4418 c -0.0946,-0.0946 -0.12881,-0.0359 -0.1262,0.21712 0.003,0.3041 0.0191,0.32011 0.12978,0.12977 0.0904,-0.1556 0.0894,-0.25389 -0.004,-0.34689 z m 12.923,4.91494 c 0,-0.0323 0.0265,-0.0588 0.0588,-0.0588 0.0323,0 0.0588,0.0265 0.0588,0.0588 0,0.0323 -0.0265,0.0588 -0.0588,0.0588 -0.0323,0 -0.0588,-0.0265 -0.0588,-0.0588 z m -17.63889,-33.8097 c 0,-0.0765 0.0848,-0.33222 0.18838,-0.56836 0.10361,-0.23614 0.23051,-0.53518 0.28199,-0.66453 0.54417,-1.36712 0.92054,-2.11841 1.35546,-2.70565 0.55619,-0.751 0.96937,-1.07258 1.14827,-0.89368 0.0967,0.0967 0.005,0.26295 -0.3464,0.6306 -0.49604,0.51843 -1.07193,1.34334 -1.29264,1.8516 -0.2503,0.57639 -0.42704,1.00299 -0.51155,1.23472 -0.31273,0.85754 -0.82351,1.5493 -0.82351,1.1153 z m -1.40934,-2.7322 c 9.8e-4,-0.0162 0.0823,-0.24106 0.18061,-0.49977 0.0984,-0.2587 0.20957,-0.56297 0.24713,-0.67616 0.0376,-0.11318 0.11504,-0.20578 0.17217,-0.20578 0.14228,0 0.13156,0.32179 -0.0137,0.41157 -0.0647,0.04 -0.11759,0.20185 -0.11759,0.35972 0,0.15787 -0.0529,0.28704 -0.1176,0.28704 -0.0647,0 -0.11759,0.0794 -0.11759,0.17639 0,0.097 -0.0529,0.17639 -0.11759,0.17639 -0.0647,0 -0.1168,-0.0132 -0.11582,-0.0294 z m 5.36829,-2.40085 c -0.17256,-0.17256 -0.0592,-0.40715 0.30378,-0.62845 0.75305,-0.45914 2.68072,-0.2211 2.47844,0.30606 -0.0513,0.13373 -0.21729,0.15382 -0.78788,0.0954 -0.5349,-0.0548 -0.84094,-0.0247 -1.17697,0.11568 -0.49217,0.20564 -0.69539,0.23333 -0.81737,0.11135 z"
       id="path4" /></g></svg>
