<?xml version="1.0" encoding="UTF-8" standalone="no"?>
<!-- Created with Inkscape (http://www.inkscape.org/) -->

<svg
   width="124.73484mm"
   height="68.909103mm"
   viewBox="0 0 124.73485 68.909103"
   version="1.1"
   id="svg1"
   xml:space="preserve"
   xmlns="http://www.w3.org/2000/svg"
   xmlns:svg="http://www.w3.org/2000/svg"><defs
     id="defs1" /><g
     id="layer1"
     transform="translate(573.32311,-1019.6174)"><path
       style="fill:#4d4d4d"
       d="m -464.9102,1087.2536 c 0.0808,-1.4648 -0.0973,-2.3545 -0.69686,-3.4829 -0.37831,-0.7119 -1.32497,-1.7581 -2.14442,-2.3697 -0.25724,-0.192 -0.49417,-0.3763 -0.52651,-0.4096 -0.3111,-0.3205 -1.71689,-1.0727 -2.49752,-1.3364 -1.37729,-0.4652 -2.18197,-0.5447 -5.43998,-0.5372 l -3.175,0.01 0.88194,0.2884 c 0.48507,0.1587 1.54341,0.4196 2.35185,0.5799 7.24852,1.4369 7.37927,1.4708 7.61229,1.9746 0.36438,0.7878 0.38828,0.9224 0.24726,1.3931 -0.16443,0.5489 -0.58615,0.9232 -1.04,0.9232 -0.28133,0 -0.33083,0.056 -0.39278,0.4433 -0.0525,0.3282 -0.16323,0.4978 -0.4266,0.6534 -0.23901,0.1412 -0.35572,0.3029 -0.35572,0.4929 0,0.3177 -0.42099,0.7738 -0.63759,0.6907 -0.0778,-0.03 -0.21321,0.08 -0.30095,0.2438 -0.12058,0.2253 -0.25297,0.2981 -0.54219,0.2981 -0.26839,0 -0.48801,0.1054 -0.73544,0.3528 -0.19403,0.194 -0.43373,0.3528 -0.53268,0.3528 -0.18845,0 -0.79537,-0.2411 -0.89652,-0.3561 -0.0323,-0.037 -0.2376,-0.1918 -0.45615,-0.3446 -0.31011,-0.2167 -0.44181,-0.2499 -0.59987,-0.1512 -0.15492,0.097 -0.46234,0.042 -1.30774,-0.2316 -0.60787,-0.1969 -1.21106,-0.3987 -1.34041,-0.4485 -0.12935,-0.05 -0.42039,-0.1551 -0.64676,-0.2338 -1.71574,-0.5972 -2.23954,-0.9366 -3.64537,-2.3618 -1.00646,-1.0204 -1.47261,-1.4089 -1.82268,-1.5191 -0.25871,-0.081 -0.60266,-0.2371 -0.76435,-0.346 -0.75462,-0.5082 -3.31383,-1.4677 -5.70325,-2.1383 -0.2587,-0.073 -0.76141,-0.2234 -1.11712,-0.3351 -0.35572,-0.1117 -1.04364,-0.3259 -1.52871,-0.4758 -0.48507,-0.15 -0.93221,-0.3161 -0.99366,-0.3691 -0.0614,-0.053 -0.18306,-0.096 -0.27026,-0.096 -0.0872,0 -0.3776,-0.1059 -0.64533,-0.2352 -0.26773,-0.1294 -0.55621,-0.2352 -0.64108,-0.2352 -0.0849,0 -0.1543,-0.053 -0.1543,-0.1176 0,-0.065 -0.0926,-0.1188 -0.20579,-0.1202 -0.11318,0 -0.33807,-0.1061 -0.49976,-0.2326 -0.16169,-0.1265 -0.33792,-0.2311 -0.39161,-0.2325 -0.0537,0 -0.58206,-0.3334 -1.17415,-0.7376 -1.12781,-0.77 -3.28453,-2.8164 -4.56221,-4.3289 -1.70062,-2.0131 -1.90056,-2.2272 -2.08609,-2.2338 -0.1066,0 -0.51131,-0.1566 -0.89937,-0.3396 -0.38806,-0.1829 -0.7244,-0.3153 -0.74744,-0.2942 -0.023,0.021 0.0167,0.4735 0.0882,1.0051 0.163,1.2112 0.16802,2.903 0.01,3.3516 -0.14425,0.4094 -0.68797,0.7799 -1.40858,0.9597 -0.68506,0.1709 -4.5905,0.3226 -8.17269,0.3174 -3.83487,-0.01 -6.99941,-0.2496 -11.40648,-0.8795 -1.06258,-0.1519 -1.80419,-0.2692 -4.05694,-0.6418 -0.22637,-0.037 -0.70262,-0.1227 -1.05833,-0.1895 -0.35572,-0.067 -0.93781,-0.1743 -1.29352,-0.239 -1.52806,-0.2778 -1.96861,-0.3648 -2.44585,-0.4827 -0.49703,-0.1229 -1.3023,0.019 -1.60522,0.2821 -0.0614,0.053 -0.2303,0.097 -0.37523,0.097 -0.14494,0 -0.29623,0.053 -0.3362,0.1176 -0.04,0.065 -0.19126,0.1176 -0.3362,0.1176 -0.14494,0 -0.3138,0.042 -0.37524,0.094 -0.0614,0.052 -0.32338,0.1608 -0.58208,0.2429 -0.2587,0.082 -0.58943,0.1988 -0.73495,0.2592 -0.47963,0.1991 -0.78255,0.3183 -1.79329,0.7058 -1.97413,0.7569 -2.64315,1.2233 -3.02771,2.111 -0.11152,0.2574 -0.24321,0.4681 -0.29262,0.4681 -0.0494,0 -0.0899,0.077 -0.0899,0.1704 0,0.193 -0.62458,0.7035 -1.06184,0.8679 -0.37734,0.1419 -0.90644,-0.1189 -1.05988,-0.5225 -0.13864,-0.3646 -0.14376,-1.1077 -0.009,-1.3201 0.0725,-0.1145 0.18467,-0.01 0.40978,0.3969 0.17046,0.305 0.30992,0.5952 0.30992,0.6448 0,0.05 0.0718,0.1177 0.15954,0.1514 0.30624,0.1175 0.71042,-0.2174 1.06786,-0.8849 0.19806,-0.3698 0.46594,-0.7987 0.59529,-0.9529 0.43343,-0.5169 1.70959,-1.2988 2.82222,-1.7292 0.12935,-0.05 0.48596,-0.2021 0.79247,-0.3379 0.3065,-0.1358 0.61149,-0.2469 0.67775,-0.2469 0.0663,0 0.22559,-0.053 0.35406,-0.1176 0.12847,-0.065 0.3387,-0.1705 0.46718,-0.2352 0.12847,-0.065 0.33702,-0.1176 0.46343,-0.1176 0.12641,0 0.26254,-0.053 0.30252,-0.1176 0.04,-0.065 0.19302,-0.1176 0.34012,-0.1176 0.14709,0 0.30312,-0.036 0.34673,-0.079 0.0436,-0.044 0.58114,-0.2473 1.19452,-0.4527 0.99506,-0.3332 1.14111,-0.3553 1.35547,-0.2052 0.13213,0.093 0.54268,0.2172 0.91234,0.2769 0.36966,0.06 0.9367,0.1611 1.26008,0.2251 0.54127,0.1073 0.95987,0.1849 2.58703,0.4794 7.30491,1.3219 12.51357,1.7096 19.93195,1.4835 1.71391,-0.052 3.35433,-0.1543 3.64537,-0.2268 1.03283,-0.2575 1.23674,-0.8369 1.11591,-3.1707 -0.0503,-0.9714 -0.13706,-1.6576 -0.21761,-1.721 -0.0737,-0.058 -0.2927,-0.1418 -0.48673,-0.1863 -0.19403,-0.044 -0.5909,-0.1352 -0.88194,-0.2016 -0.589,-0.1343 -1.73764,-0.2699 -3.76297,-0.4443 -2.53714,-0.2184 -3.63025,-0.3399 -3.75545,-0.4172 -0.0688,-0.043 -0.1251,-0.01 -0.1251,0.078 0,0.2736 1.3364,1.1519 1.75265,1.1519 0.28565,0 0.52708,0.2999 0.43487,0.5402 -0.0886,0.2309 -0.47344,0.1627 -1.23568,-0.219 -0.48442,-0.2425 -1.42221,-1.0775 -1.42221,-1.2663 0,-0.047 -0.15992,-0.1509 -0.35537,-0.2319 -0.38239,-0.1583 -3.42967,-0.1894 -3.6756,-0.037 -0.24776,0.1531 -1.98849,0.2787 -4.84727,0.3496 -2.88991,0.072 -4.82058,-0.049 -6.16837,-0.3857 -0.54109,-0.1352 -2.75546,-1.1455 -4.53256,-2.068 -1.50367,-0.7806 -1.60803,-0.8005 -2.61845,-0.5005 -0.67859,0.2016 -0.85715,0.4024 -1.54269,1.7351 -0.24114,0.4688 -0.54093,0.984 -0.66619,1.1448 -0.52386,0.6726 -1.86917,1.9049 -3.23687,2.9651 -1.79679,1.3928 -2.88802,2.4373 -3.28221,3.1417 -0.0557,0.099 -0.13993,0.1421 -0.18724,0.095 -0.13736,-0.1373 0.2904,-0.9646 0.78545,-1.519 0.4105,-0.4597 0.69161,-1.0642 0.69338,-1.491 9e-4,-0.2167 0.45488,-0.8395 0.86453,-1.1861 0.18588,-0.1572 0.39827,-0.3424 0.47199,-0.4115 0.0737,-0.069 0.34185,-0.281 0.59583,-0.4709 0.65359,-0.4887 1.25985,-1.1557 2.03752,-2.2418 0.37047,-0.5174 0.75609,-1.032 0.85692,-1.1435 0.10084,-0.1115 0.52465,-0.7878 0.9418,-1.5029 1.75739,-3.0125 1.86017,-3.1143 3.12647,-3.0952 0.60633,0.01 0.90713,0.1 1.88148,0.5677 1.4821,0.7116 2.27689,1.0118 2.27689,0.86 0,-0.2996 -1.90186,-3.9931 -2.38053,-4.6232 -0.57639,-0.7587 -1.31027,-1.4814 -1.97039,-1.9403 -0.22637,-0.1574 -0.47613,-0.3487 -0.55502,-0.4251 -0.0789,-0.076 -0.55515,-0.3342 -1.05834,-0.5728 -0.50319,-0.2386 -1.00677,-0.4821 -1.11908,-0.5411 -0.1123,-0.059 -0.30761,-0.1072 -0.43403,-0.1072 -0.12641,0 -0.25877,-0.047 -0.29414,-0.1041 -0.0354,-0.057 -0.21046,-0.1342 -0.38911,-0.1711 -0.17865,-0.037 -0.5894,-0.1221 -0.91278,-0.1894 -1.97178,-0.4103 -4.83339,-0.7002 -6.97699,-0.7068 h -1.45013 l 0.067,2.6753 c 0.0369,1.4713 0.0987,3.0649 0.13739,3.5411 0.0454,0.5581 0.025,0.9113 -0.0574,0.9937 -0.092,0.092 -0.12843,0.08 -0.13013,-0.043 -0.001,-0.094 -0.0614,-0.5145 -0.13347,-0.9349 -0.0721,-0.4203 -0.16364,-1.9814 -0.20342,-3.4689 l -0.0723,-2.7047 -1.76389,-0.072 c -0.97014,-0.04 -1.91704,-0.1135 -2.10422,-0.164 -0.32905,-0.089 -0.33759,-0.08 -0.25746,0.2486 0.0456,0.1872 0.10974,0.4992 0.14256,0.6932 0.0328,0.194 0.10539,0.4586 0.16125,0.588 0.0559,0.1293 0.12838,0.3939 0.16114,0.5879 0.0328,0.194 0.11864,0.5909 0.19084,0.882 0.36041,1.453 0.66413,3.2192 0.83462,4.8535 0.1165,1.1168 0.1146,1.6513 -0.01,2.7634 -0.22741,2.0329 -0.32191,2.1579 -2.07276,2.7424 -0.67452,0.2252 -1.1949,0.489 -1.54224,0.7817 -1.40131,1.181 -1.19863,0.7762 -1.57534,3.1465 -0.14073,0.8855 -0.27147,1.6121 -0.44957,2.4988 -0.0617,0.3072 -0.15954,0.8125 -0.21741,1.1229 -0.0579,0.3104 -0.16614,0.6252 -0.24059,0.6997 -0.0744,0.074 -0.13954,0.2703 -0.14464,0.4352 -0.005,0.1649 -0.0348,0.2372 -0.066,0.1607 -0.0787,-0.1931 0.25779,-2.3107 0.78131,-4.9173 0.12096,-0.6023 0.28041,-1.5294 0.49553,-2.8811 0.0669,-0.4203 0.13642,-2.1872 0.15447,-3.9263 0.0194,-1.8647 0.0826,-3.2637 0.15425,-3.4101 0.0668,-0.1366 0.14823,-0.4335 0.18099,-0.6599 0.0328,-0.2263 0.11541,-0.6761 0.18368,-0.9995 0.0683,-0.3234 0.17911,-0.879 0.24632,-1.2347 0.0672,-0.3557 0.1685,-0.8849 0.22511,-1.1759 0.11795,-0.6064 0.33657,-1.8131 0.46872,-2.5871 0.0497,-0.291 0.25676,-1.6668 0.46015,-3.0574 0.33671,-2.302 0.46266,-3.2175 0.66731,-4.8507 0.0444,-0.3545 0.12771,-0.5585 0.22802,-0.5585 0.12115,0 0.1456,0.1715 0.10475,0.7349 -0.0293,0.4042 -0.0794,0.8673 -0.11133,1.0289 -0.0319,0.1617 -0.10923,0.6909 -0.1718,1.176 -0.0626,0.485 -0.16671,1.2523 -0.23143,1.7051 -0.27789,1.9441 -0.30976,2.3526 -0.18975,2.432 0.31794,0.2105 1.86956,0.3384 5.42628,0.4474 3.74424,0.1147 5.43019,0.2282 7.17167,0.4827 1.73802,0.254 3.72375,0.841 4.80801,1.4213 0.77369,0.4141 1.09998,0.6161 1.31439,0.8137 0.13352,0.123 0.28045,0.2237 0.32651,0.2237 0.10788,0 0.82875,0.6326 1.40703,1.2347 0.69623,0.725 1.34516,1.7305 1.92209,2.9783 1.11934,2.4211 1.48703,3.0721 2.08299,3.6882 0.90177,0.9323 1.26239,1.1621 2.42648,1.5462 1.40989,0.4652 3.3153,0.543 5.05648,0.2066 0.35572,-0.069 1.04364,-0.1576 1.52871,-0.1975 l 0.88194,-0.072 1.50669,0.7839 c 0.82867,0.4311 1.72825,0.8628 1.99907,0.9594 1.08413,0.3864 2.96609,0.6595 6.84239,0.9926 1.68038,0.1445 2.72903,0.2819 3.52778,0.4624 0.32338,0.073 0.7864,0.1615 1.02893,0.1965 0.24254,0.035 0.44098,0.1109 0.44098,0.1687 0,0.058 0.0712,0.1053 0.15832,0.1053 0.0871,0 0.31197,0.076 0.49977,0.1692 0.62208,0.3082 1.04489,0.4568 1.21594,0.4274 0.16922,-0.029 0.31488,0.1157 1.30097,1.2936 1.01223,1.2092 1.46789,1.704 2.75859,2.9959 1.42001,1.4212 1.91201,1.8338 3.23863,2.7154 0.87242,0.5798 2.79497,1.5707 3.04752,1.5707 0.0719,0 0.22256,0.047 0.33486,0.1039 0.36602,0.1862 0.77719,0.334 1.6741,0.6019 0.48507,0.1448 1.01424,0.3044 1.17593,0.3545 0.16169,0.05 0.69085,0.2065 1.17592,0.3474 2.04728,0.5948 3.54111,1.1301 4.6506,1.6665 0.64989,0.3141 1.27784,0.5712 1.39545,0.5712 0.11761,0 0.8763,0.6634 1.68597,1.4742 1.64745,1.6499 2.28658,2.0377 4.55641,2.7651 0.64676,0.2072 1.28176,0.4199 1.41111,0.4725 0.45079,0.1835 0.97668,0.2416 1.05408,0.1163 0.11877,-0.1921 0.21954,-0.1557 0.78296,0.2833 0.31926,0.2487 0.68215,0.4207 0.93064,0.441 0.37387,0.03 0.40398,0.01 0.3667,-0.2608 -0.0223,-0.1617 -0.0885,-0.3116 -0.14699,-0.3331 -0.14873,-0.055 -0.13314,-0.4596 0.0214,-0.5551 0.0703,-0.043 0.29768,0.086 0.50537,0.2871 0.39189,0.3798 0.89558,0.4916 0.89558,0.1987 0,-0.092 -0.24592,-0.3774 -0.5465,-0.6344 -0.37531,-0.3208 -0.52381,-0.5262 -0.47406,-0.6559 0.1157,-0.3015 0.34615,-0.2243 1.00183,0.3353 0.36218,0.3092 0.68482,0.4969 0.78672,0.4578 0.095,-0.036 0.17275,-0.091 0.17275,-0.1202 0,-0.1657 -0.31997,-0.5989 -0.73117,-0.9901 -0.44051,-0.4191 -0.52708,-0.6869 -0.2517,-0.7786 0.0658,-0.022 0.31845,0.1182 0.56154,0.3113 0.51595,0.4101 0.87107,0.5458 1.02499,0.3919 0.16658,-0.1666 0.0163,-0.4321 -0.37575,-0.6637 -0.44922,-0.2653 -0.82585,-0.6675 -0.74607,-0.7966 0.10675,-0.1727 0.528,-0.1087 0.86517,0.1313 0.17848,0.1271 0.54008,0.2656 0.80355,0.3077 0.41358,0.066 0.52035,0.035 0.78137,-0.2257 0.40471,-0.4047 0.38111,-0.7144 -0.0798,-1.048 -0.52195,-0.3776 -0.88593,-0.5296 -1.4405,-0.6014 -0.55385,-0.072 -1.54983,-0.2595 -2.29306,-0.4324 -0.29104,-0.068 -1.00542,-0.2009 -1.5875,-0.2961 -2.97169,-0.4859 -4.57052,-0.9384 -6.78969,-1.9216 -0.30651,-0.1358 -0.60258,-0.2469 -0.65793,-0.2469 -0.0554,0 -0.19643,-0.1058 -0.31349,-0.2352 -0.11706,-0.1293 -0.30304,-0.2351 -0.41328,-0.2351 -0.18418,0 -1.62666,-0.6779 -1.76218,-0.8281 -0.0323,-0.036 -0.24401,-0.194 -0.47037,-0.3513 -0.22637,-0.1574 -0.68169,-0.5517 -1.01183,-0.8763 -0.33013,-0.3246 -1.11895,-0.9606 -1.75294,-1.4133 -0.63398,-0.4528 -1.21053,-0.8778 -1.28123,-0.9446 -0.0707,-0.067 -0.31375,-0.2495 -0.54012,-0.4059 -0.22636,-0.1565 -0.43803,-0.316 -0.47037,-0.3546 -0.0323,-0.039 -0.244,-0.1984 -0.47037,-0.3553 -0.22636,-0.1568 -0.46449,-0.3272 -0.52916,-0.3786 -0.0647,-0.052 -0.64676,-0.4932 -1.29352,-0.9816 -0.64676,-0.4884 -1.2828,-0.977 -1.41343,-1.0856 -0.13063,-0.1086 -0.43032,-0.3422 -0.66598,-0.5191 -0.23566,-0.1769 -0.4992,-0.3889 -0.58564,-0.4711 -0.0865,-0.082 -0.34238,-0.2976 -0.56875,-0.4784 -0.22636,-0.1809 -1.41699,-1.3232 -2.64583,-2.5384 -2.75027,-2.7198 -3.25673,-3.0822 -5.18133,-3.7083 -1.17415,-0.382 -1.86243,-0.7805 -3.05015,-1.7658 -0.51741,-0.4293 -1.03395,-0.8577 -1.14787,-0.9519 -0.11393,-0.094 -0.23668,-0.1715 -0.2728,-0.1715 -0.0361,0 -0.28686,-0.1493 -0.55722,-0.3319 -0.56523,-0.3817 -3.72738,-1.9361 -6.42998,-3.1607 -0.35572,-0.1612 -0.9378,-0.4259 -1.29352,-0.5883 -1.13252,-0.5168 -1.69781,-0.7673 -1.96968,-0.8729 -0.14552,-0.056 -0.4101,-0.1626 -0.58796,-0.236 -0.39752,-0.1639 -0.61574,-0.2479 -1.44051,-0.5546 -1.44034,-0.5357 -2.72572,-0.9509 -4.23333,-1.3677 -2.75258,-0.7608 -2.51467,-0.6424 -2.62152,-1.3051 -0.0513,-0.3182 -0.13425,-1.022 -0.18433,-1.564 -0.0591,-0.6398 -0.15164,-1.0316 -0.26381,-1.1172 -0.095,-0.072 -0.30057,-0.3169 -0.45677,-0.5432 -0.1562,-0.2264 -0.31331,-0.4381 -0.34913,-0.4704 -0.0358,-0.032 -0.22178,-0.2687 -0.41323,-0.5252 -1.01777,-1.3637 -1.90796,-1.9576 -4.79917,-3.2016 -1.1135,-0.4792 -2.19652,-0.9479 -2.40672,-1.0416 -0.2102,-0.094 -0.56738,-0.2499 -0.79375,-0.3469 -0.22636,-0.097 -0.59678,-0.2557 -0.82315,-0.3528 -0.22636,-0.097 -0.61001,-0.2612 -0.85254,-0.365 -0.24254,-0.1037 -0.6791,-0.2956 -0.97014,-0.4264 -0.29104,-0.1309 -0.64823,-0.2841 -0.79375,-0.3406 -0.3584,-0.1391 -0.7868,-0.3108 -1.17593,-0.4712 -1.55257,-0.6401 -3.21279,-1.1766 -5.3588,-1.7316 -0.72302,-0.187 -1.49979,-0.3785 -1.72615,-0.4255 -0.22637,-0.047 -0.62324,-0.1337 -0.88195,-0.1925 -0.8058,-0.1832 -2.67797,-0.4896 -4.23333,-0.6929 -2.20288,-0.2879 -2.29653,-0.3098 -2.79401,-0.6546 -0.55102,-0.3819 -1.14534,-1.3952 -1.14534,-1.9527 0,-0.3798 0.0305,-0.3728 -0.88243,-0.204 -0.37974,0.07 -0.91419,0.094 -1.18767,0.053 -0.61239,-0.092 -1.92805,-0.9433 -1.92805,-1.2478 0,-0.3869 0.23896,-0.3692 0.75808,0.056 0.89653,0.7346 1.44956,0.8173 2.8285,0.423 0.45231,-0.1294 1.07449,-0.2352 1.38262,-0.2352 0.68541,0 1.47535,-0.3533 2.02981,-0.9077 0.48129,-0.4813 0.49126,-0.5669 0.15062,-1.2916 -0.14229,-0.3027 -0.2587,-0.7254 -0.2587,-0.9394 0,-0.367 -0.0237,-0.3892 -0.41746,-0.3909 -0.77189,0 -0.81246,-0.1379 -0.27327,-0.9066 l 0.48392,-0.6899 -0.38535,-0.3768 c -0.23276,-0.2276 -0.50582,-0.3768 -0.68956,-0.3768 -0.36733,0 -0.67032,-0.3883 -0.67032,-0.8591 0,-0.4456 0.25322,-0.3576 0.38014,0.1322 0.11144,0.4301 0.44107,0.5109 0.44675,0.1096 0.007,-0.4832 0.48043,-0.8848 0.62393,-0.5292 0.0326,0.081 0.0635,0.021 0.0686,-0.134 0.0125,-0.3791 -0.30311,-0.5927 -0.88246,-0.5972 -0.26409,0 -0.51851,-0.042 -0.56536,-0.089 -0.0469,-0.047 -0.35196,-0.1925 -0.67801,-0.3235 l -0.59281,-0.2383 -0.46367,0.4411 c -0.32146,0.3058 -0.57036,0.441 -0.81151,0.441 -0.43721,0 -0.4508,-0.2019 -0.0244,-0.3635 0.55455,-0.2101 0.85293,-0.5752 0.8488,-1.0387 -0.004,-0.4214 -0.21622,-0.832 -0.43059,-0.832 -0.42861,0 -1.08815,1.2245 -1.09258,2.0285 -0.002,0.3528 -0.16935,0.434 -0.28319,0.1373 -0.22611,-0.5892 0.0919,-1.5144 0.7364,-2.142 l 0.51891,-0.5054 -0.60416,-0.5824 c -0.33228,-0.3203 -0.68371,-0.5823 -0.78093,-0.5823 -0.0972,0 -0.17678,-0.04 -0.17678,-0.089 0,-0.049 -0.17198,-0.1582 -0.38218,-0.2429 -0.2102,-0.085 -0.47233,-0.2024 -0.58251,-0.2615 -0.23757,-0.1274 -0.27189,-0.08 -0.38181,0.528 -0.12562,0.6948 -0.56923,1.4762 -1.14968,2.025 -0.59111,0.5589 -0.8539,1.2254 -0.69281,1.7571 0.0567,0.1871 0.22105,0.737 0.36531,1.2221 0.14426,0.485 0.30944,1.0035 0.36706,1.152 0.16923,0.4364 0.12111,0.9642 -0.11859,1.3008 -0.12285,0.1725 -0.24191,0.4453 -0.26458,0.6061 -0.037,0.2621 -0.0887,0.2887 -0.49923,0.2559 -0.2519,-0.02 -0.60909,0.026 -0.79375,0.1024 -0.28517,0.1181 -0.33575,0.2058 -0.33575,0.5817 0,0.352 0.0655,0.4855 0.32036,0.6525 0.1762,0.1154 0.42184,0.3044 0.54586,0.42 0.54104,0.504 1.7198,0.8601 1.8972,0.573 0.04,-0.065 0.14893,-0.1176 0.24213,-0.1176 0.22541,0 0.21539,0.4086 -0.0188,0.766 -0.13201,0.2014 -0.21588,0.7388 -0.28078,1.7988 -0.0598,0.9776 -0.1574,1.637 -0.27613,1.8666 -0.21138,0.4088 -0.66758,0.7427 -1.01461,0.7427 -0.30076,0 -0.31032,0.2864 -0.0199,0.5981 0.35272,0.3786 0.95655,1.7145 0.95655,2.1162 0,0.1947 0.038,0.2134 0.22745,0.1121 0.29374,-0.1572 0.32295,-0.1541 0.39853,0.043 0.0347,0.091 -0.0685,0.3419 -0.22944,0.5585 -0.6311,0.8496 -1.02292,2.1036 -1.16105,3.716 -0.0457,0.5335 -0.12665,0.9701 -0.17985,0.9701 -0.0532,0 -0.12071,0.093 -0.15003,0.2058 -0.0293,0.1132 -0.028,-0.4292 0.003,-1.2053 0.0566,-1.4212 0.1977,-2.2039 0.54828,-3.0424 0.22522,-0.5387 0.24685,-1.343 0.0485,-1.8028 -0.15004,-0.3478 -0.76178,-1.3016 -0.96965,-1.5118 -0.0677,-0.069 -0.28193,-0.2044 -0.47596,-0.3018 -0.19403,-0.097 -0.45861,-0.2333 -0.58796,-0.3019 -0.35464,-0.1882 -1.04249,-0.3889 -1.33286,-0.3889 -0.14181,0 -0.34972,-0.048 -0.46202,-0.1061 -0.11231,-0.058 -1.08207,-0.5376 -2.15504,-1.0649 -1.07296,-0.5273 -2.14599,-1.1196 -2.3845,-1.3162 -0.6003,-0.4948 -1.31351,-1.5819 -1.70494,-2.5987 -0.056,-0.1455 -0.15693,-0.3968 -0.22425,-0.5585 -0.44335,-1.065 -0.46331,-1.2147 -0.36837,-2.7635 0.16582,-2.7048 0.23148,-2.8784 1.79592,-4.7467 0.57591,-0.6878 1.10558,-1.3431 1.17705,-1.4563 0.0715,-0.1131 0.22827,-0.2057 0.34845,-0.2057 0.22684,0 0.7158,-0.4663 1.23326,-1.176 0.54327,-0.745 1.59818,-1.7061 2.16514,-1.9724 0.45423,-0.2134 0.76457,-0.2618 1.67827,-0.2618 0.98951,0 1.20691,0.04 1.85337,0.3404 0.4028,0.1873 1.02341,0.5847 1.37913,0.8831 0.35572,0.2985 0.96426,0.7085 1.35232,0.9111 0.38805,0.2026 0.84914,0.4431 1.02463,0.5345 0.47579,0.2476 1.20645,1.1328 1.62889,1.9735 0.35702,0.7105 0.4116,0.761 1.19792,1.1083 0.45311,0.2001 0.93607,0.3641 1.07324,0.3643 0.13716,3e-4 0.42137,0.1053 0.63157,0.2335 0.33131,0.202 0.38217,0.2973 0.38217,0.7159 0,0.3122 -0.087,0.5936 -0.24607,0.7955 l -0.24607,0.3126 0.48126,0.4147 c 0.37446,0.3228 0.48125,0.4974 0.48125,0.7868 0,0.2047 0.0529,0.4048 0.11759,0.4447 0.15268,0.094 0.15268,0.7288 0,0.8232 -0.2021,0.1249 -0.12607,0.9232 0.1176,1.2347 0.14455,0.1848 0.23092,0.4797 0.23257,0.7939 0.002,0.4342 -0.0622,0.5628 -0.49066,0.9786 -0.68824,0.6679 -1.35345,1.0299 -2.16406,1.1775 -0.38173,0.07 -0.73914,0.1699 -0.79423,0.223 -0.12836,0.1237 0.44249,1.2667 0.77791,1.5576 0.40575,0.3519 0.91448,0.5375 1.67412,0.6108 1.87466,0.1809 4.55924,0.6271 6.70277,1.1141 2.29019,0.5203 5.99638,1.7163 7.9375,2.5615 0.22637,0.099 0.51741,0.22 0.64676,0.2699 0.12935,0.05 0.49977,0.21 0.82315,0.3557 0.32338,0.1457 0.6938,0.3058 0.82315,0.3557 0.12935,0.05 0.42039,0.1713 0.64676,0.2699 0.22636,0.099 0.69835,0.2919 1.04886,0.4297 0.3505,0.1378 0.85748,0.3508 1.1266,0.4734 0.26913,0.1226 0.74964,0.3256 1.06781,0.451 0.98058,0.3867 2.66805,1.2194 3.22432,1.591 0.72711,0.4858 1.82381,1.5592 2.52824,2.4745 0.79231,1.0294 0.88195,1.0488 0.88195,0.1905 0,-0.3822 0.0529,-0.7277 0.11759,-0.7676 0.0647,-0.04 0.11759,-0.1813 0.11759,-0.314 0,-0.4215 0.80801,-1.8934 1.46522,-2.6692 0.75392,-0.8898 1.71892,-1.6364 2.76811,-2.1416 0.4204,-0.2024 0.85624,-0.4154 0.96855,-0.4732 0.1123,-0.058 0.31146,-0.1053 0.44256,-0.1053 0.13111,0 0.33027,-0.047 0.44257,-0.1051 0.33189,-0.171 1.84438,-0.3654 2.82281,-0.3629 1.08959,0 2.55557,0.2453 3.08787,0.5108 0.21211,0.1058 0.45691,0.1924 0.54399,0.1924 0.0871,0 0.15832,0.053 0.15832,0.1176 0,0.065 0.15947,0.1176 0.35437,0.1176 0.19491,0 0.44626,0.047 0.55857,0.1047 0.1123,0.058 0.89211,0.3254 1.73289,0.5952 2.99779,0.9617 5.49141,2.0531 8.52547,3.7314 1.20305,0.6655 2.16861,1.1755 4.29213,2.2669 1.16416,0.5983 2.16958,1.1295 2.23426,1.1804 0.0647,0.051 0.30878,0.1991 0.54245,0.3293 0.85037,0.4737 0.9873,0.5538 1.04505,0.6115 0.0323,0.032 0.17785,0.125 0.32337,0.2058 0.14553,0.081 0.38365,0.2132 0.52917,0.294 0.14552,0.081 0.29104,0.1735 0.32338,0.2058 0.0747,0.075 0.25469,0.1764 2.29306,1.2956 1.45889,0.8011 2.26012,1.4292 3.07408,2.4098 0.47822,0.5761 0.98286,1.4518 0.98286,1.7056 0,0.071 0.21167,0.4404 0.47037,0.8214 0.2587,0.381 0.47037,0.7271 0.47037,0.7691 0,0.042 0.096,0.217 0.21327,0.3887 0.31734,0.4644 0.5332,1.2462 0.46574,1.6868 -0.0858,0.5606 0.0105,0.7584 0.22215,0.4562 0.0938,-0.1338 0.27022,-0.2434 0.39209,-0.2434 0.12187,0 0.25067,-0.047 0.28622,-0.1046 0.12027,-0.1946 0.94191,-0.2803 2.71266,-0.2831 1.80753,0 2.95465,0.1038 3.0668,0.2853 0.0348,0.056 0.21579,0.1024 0.40218,0.1024 0.1864,0 0.3716,0.053 0.41158,0.1176 0.04,0.065 0.16833,0.1176 0.28524,0.1176 0.45119,0 3.00794,1.141 4.04889,1.8069 0.34362,0.2198 1.03899,0.8072 1.54528,1.3053 0.71937,0.7078 0.94182,0.8677 1.01797,0.7316 0.0758,-0.1355 0.19547,-0.152 0.53938,-0.074 0.24307,0.055 0.94466,0.111 1.5591,0.1247 1.02754,0.023 1.46538,-0.068 1.76386,-0.3664 0.0323,-0.032 0.27046,-0.1726 0.52917,-0.3117 0.2587,-0.139 0.68203,-0.3728 0.94074,-0.5196 0.96042,-0.5447 1.35216,-0.6974 1.78923,-0.6974 0.38464,0 0.52801,0.083 1.00999,0.5879 0.30895,0.3234 0.60608,0.588 0.6603,0.588 0.12049,0 1.30082,1.7758 1.57507,2.3696 0.33341,0.722 0.26429,1.0736 -0.32737,1.6653 l -0.52565,0.5256 0.5635,0.5126 c 0.75503,0.6868 1.02839,0.9011 1.46866,1.1514 0.2043,0.1161 0.55666,0.3211 0.78303,0.4555 1.23446,0.7331 3.95218,1.2863 5.58564,1.1369 2.10512,-0.1925 3.17584,-0.8585 3.67294,-2.2848 0.17576,-0.5043 0.19308,-1.2575 0.0312,-1.3576 -0.13224,-0.082 -0.15969,-0.5654 -0.0389,-0.6862 0.11425,-0.1142 0.50931,0.2771 0.50931,0.5046 0,0.1063 0.0437,0.2437 0.0971,0.3051 0.18654,0.2145 0.40207,1.087 0.30666,1.2414 -0.0695,0.1125 -0.13481,0.06 -0.23721,-0.1904 l -0.14126,-0.3456 -0.14504,0.5263 c -0.23374,0.8482 -0.42606,1.2089 -0.90204,1.6916 -0.93255,0.9457 -2.36819,1.3248 -4.56391,1.205 -2.76769,-0.1509 -4.96043,-1.1479 -7.11001,-3.2328 -0.48613,-0.4715 -0.56106,-0.5046 -0.99988,-0.4426 -0.2609,0.037 -0.87124,0.1186 -1.35631,0.1818 -0.48507,0.063 -1.14653,0.15 -1.46991,0.193 -0.32338,0.043 -0.66734,0.147 -0.76435,0.2309 -0.16591,0.1436 -1.27906,0.5365 -2.46944,0.8717 -0.29105,0.082 -0.66146,0.1916 -0.82315,0.2436 -1.27162,0.4093 -5.41955,1.2484 -8.70185,1.7604 -0.48507,0.076 -1.13591,0.1858 -1.4463,0.2448 -1.05887,0.2011 -1.65574,0.1413 -1.97279,-0.1975 -0.30394,-0.3248 -1.32639,-1.1065 -1.44736,-1.1065 -0.0399,0 -0.0724,0.2954 -0.0724,0.6564 0,0.3813 -0.11856,1.0098 -0.28286,1.4994 -0.53474,1.5935 -0.51863,2.384 0.0618,3.0342 0.37561,0.4207 0.3817,0.4394 0.2241,0.6887 -0.0883,0.1397 -0.14062,0.1457 -0.2569,0.029 -0.0803,-0.08 -0.2589,-0.146 -0.39687,-0.146 -0.13798,0 -0.28553,-0.035 -0.3279,-0.077 -0.0424,-0.042 -0.30254,-0.174 -0.57816,-0.2926 l -0.50113,-0.2154 0.58796,0.5324 c 0.32338,0.2928 0.72025,0.601 0.88194,0.6849 0.16169,0.084 0.49403,0.2669 0.73853,0.4068 0.24451,0.1399 0.52304,0.2544 0.61896,0.2544 0.0959,0 0.26629,0.048 0.3786,0.1061 0.83913,0.4362 2.66979,0.6027 6.31901,0.5748 2.18993,-0.017 3.43042,0.019 3.70416,0.1075 0.22637,0.073 0.78199,0.2493 1.23472,0.3918 1.16619,0.3672 2.22986,0.9287 3.33099,1.7585 2.08608,1.5719 3.06947,3.272 3.08507,5.3334 l 0.007,0.9589 0.16031,-0.5291 c 0.0882,-0.2911 0.22608,-0.9261 0.30649,-1.4112 0.0804,-0.485 0.18423,-0.9877 0.23074,-1.1171 0.13278,-0.3693 0.27511,0.554 0.1779,1.154 -0.0439,0.2708 -0.11014,0.7448 -0.14727,1.0533 -0.0371,0.3086 -0.1136,0.5895 -0.16991,0.6243 -0.0563,0.035 -0.1024,0.1667 -0.1024,0.2931 0,0.1265 -0.0485,0.3218 -0.10778,0.4341 -0.0593,0.1123 -0.17154,0.3762 -0.24945,0.5863 -0.0901,0.243 -0.22116,0.3822 -0.35984,0.3822 -0.20328,0 -0.21341,-0.086 -0.14847,-1.2641 z m -19.57433,-12.119 c -0.0395,-0.6992 0.0182,-0.9897 0.4556,-2.2935 0.71366,-2.1271 0.68598,-2.196 -1.65592,-4.1206 -0.22463,-0.1846 -1.20672,-1.122 -2.18243,-2.0831 l -1.77401,-1.7475 -0.46025,0.119 c -0.53214,0.1376 -0.87345,0.29 -1.48918,0.6653 -0.64479,0.3929 -0.60868,0.7817 0.14699,1.5823 0.35675,0.378 0.58796,0.73 0.58796,0.8951 0,0.2549 0.0328,0.2673 0.51526,0.1949 0.75673,-0.1134 0.80077,0.05 0.28301,1.0493 -0.18941,0.3656 0.10139,0.7798 0.49259,0.7016 0.45288,-0.091 0.95498,0.3636 0.98185,0.8882 0.0117,0.2282 -0.0422,0.4194 -0.12664,0.4491 -0.0914,0.032 -0.147,-0.056 -0.147,-0.2339 0,-0.3218 -0.38975,-0.7384 -0.58055,-0.6205 -0.0688,0.043 -0.125,0.2593 -0.125,0.4819 0,0.2812 -0.0538,0.4046 -0.17639,0.4046 -0.24318,0 -0.22222,0.3209 0.0294,0.4503 0.11318,0.058 0.43148,0.1344 0.70732,0.1695 0.27584,0.035 0.70047,0.1675 0.94363,0.2943 l 0.44209,0.2304 0.19032,-0.4457 c 0.15198,-0.3558 0.28172,-0.471 0.64388,-0.5716 0.95059,-0.2639 1.21401,-0.045 0.34504,0.2872 -0.6845,0.2614 -0.8887,0.6927 -0.608,1.2842 0.10624,0.2239 0.27554,0.4895 0.37622,0.5902 0.16569,0.1656 0.21843,0.1583 0.55566,-0.077 0.20492,-0.1429 0.42461,-0.3419 0.48819,-0.4421 0.21838,-0.3444 0.43283,-1.0955 0.37544,-1.3149 -0.0342,-0.1307 0.004,-0.2197 0.0942,-0.2197 0.23385,0 0.29955,0.4563 0.14753,1.0246 -0.13975,0.5225 -0.6821,1.2213 -1.05617,1.3607 -0.11318,0.042 -0.20579,0.1196 -0.20579,0.1721 0,0.1691 1.49925,1.6759 1.66757,1.6759 0.12717,0 0.1529,-0.1752 0.11756,-0.8007 z m -2.48969,-0.728 c -0.0652,-0.1293 -0.1715,-0.3403 -0.23618,-0.4688 -0.0647,-0.1284 -0.11759,-0.2967 -0.11759,-0.3738 0,-0.2111 -0.82191,-0.9213 -1.06618,-0.9213 -0.1174,0 -0.24616,-0.053 -0.28614,-0.1176 -0.04,-0.065 -0.27562,-0.1176 -0.52367,-0.1176 -0.33537,0 -0.54462,-0.087 -0.81621,-0.3411 -0.41331,-0.3861 -0.4394,-0.5472 -0.18666,-1.1521 0.16922,-0.405 0.16517,-0.4415 -0.0774,-0.6997 -0.14077,-0.1499 -0.3534,-0.3034 -0.47253,-0.3412 -0.13504,-0.043 -0.21658,-0.1805 -0.21658,-0.3657 0,-0.1633 -0.10312,-0.428 -0.22916,-0.5882 -0.17914,-0.2277 -0.20478,-0.3554 -0.11748,-0.585 0.0981,-0.2581 0.047,-0.3603 -0.42002,-0.8408 -0.6515,-0.6703 -0.84256,-1.251 -0.60145,-1.8281 0.1027,-0.2458 0.30852,-0.463 0.53275,-0.5622 0.20096,-0.089 0.34779,-0.215 0.32628,-0.28 -0.0535,-0.1616 -2.19961,-0.22 -2.35552,-0.064 -0.0672,0.067 -0.20756,0.1222 -0.31183,0.1222 -0.10427,0 -0.40863,0.1058 -0.67636,0.2352 -0.26773,0.1294 -0.55812,0.2352 -0.64533,0.2352 -0.0872,0 -0.22299,0.064 -0.30176,0.1432 -0.0927,0.093 -0.52107,0.1409 -1.21367,0.1366 l -1.07046,-0.01 1.27835,1.2458 c 1.34606,1.3118 1.82916,1.7451 2.53305,2.2715 0.23652,0.1768 0.50206,0.3885 0.5901,0.4703 0.21385,0.1988 0.83472,0.6776 2.38853,1.842 0.71143,0.5332 1.37289,1.0325 1.4699,1.1097 0.097,0.077 0.3616,0.2711 0.58797,0.4309 0.22636,0.1598 0.49095,0.3543 0.58796,0.4322 0.62825,0.5042 1.60174,1.2068 1.67669,1.2101 0.0491,0 0.0358,-0.1018 -0.0294,-0.2312 z m -57.15099,-3.8696 c 1.37116,-1.1114 2.50847,-2.2077 2.93909,-2.8332 0.15585,-0.2263 0.31238,-0.438 0.34783,-0.4703 0.0808,-0.074 0.30397,-0.4644 0.7389,-1.2936 0.36884,-0.7031 0.80199,-1.1759 1.07738,-1.1759 0.096,0 0.20729,-0.053 0.24726,-0.1176 0.04,-0.065 0.43497,-0.1176 0.87777,-0.1176 0.60515,0 0.93198,0.066 1.31598,0.2646 0.28098,0.1455 0.53734,0.2938 0.56968,0.3295 0.0896,0.099 0.85177,0.4412 1.67317,0.7514 0.40561,0.1531 1.05497,0.4575 1.44303,0.6764 1.29175,0.7286 1.80899,0.8524 4.3691,1.046 1.90957,0.1445 4.244,0.097 6.50821,-0.1319 0.61443,-0.062 1.47565,-0.1469 1.91384,-0.1882 0.43819,-0.041 0.81935,-0.1118 0.84703,-0.1566 0.0277,-0.045 -0.56896,-0.3986 -1.32587,-0.7863 l -1.3762,-0.7049 -1.05833,0.091 c -0.58209,0.05 -1.34938,0.1542 -1.7051,0.2317 -0.84466,0.1841 -2.82598,0.1835 -3.64537,-10e-4 -1.78049,-0.4011 -2.99508,-1.0915 -3.81807,-2.1705 -0.2268,-0.2974 -0.36779,-0.3809 -0.57593,-0.3411 -0.35744,0.068 -1.03811,-0.169 -2.45906,-0.8574 -2.23253,-1.0816 -3.00092,-0.8482 -4.08825,1.242 -0.36771,0.7068 -1.93644,3.1584 -2.1069,3.2926 -0.0411,0.032 -0.20269,0.244 -0.35914,0.4703 -0.15644,0.2264 -0.34272,0.4719 -0.41395,0.5457 -0.0712,0.074 -0.25818,0.2854 -0.41545,0.4705 -0.15726,0.185 -0.69067,0.6661 -1.18536,1.0691 -0.90172,0.7345 -1.864,1.7341 -1.864,1.9364 0,0.1527 0.14061,0.054 1.52871,-1.0709 z m 66.04556,0.5813 c 2.43914,-0.4053 3.41765,-0.5875 5.74471,-1.0699 0.25871,-0.054 0.68204,-0.1508 0.94074,-0.2161 0.25871,-0.065 0.68204,-0.1705 0.94075,-0.2338 0.2587,-0.063 0.65557,-0.1686 0.88194,-0.2339 1.08724,-0.3138 1.37633,-0.3912 1.67713,-0.4493 0.17865,-0.034 0.35376,-0.1095 0.38912,-0.1667 0.0354,-0.057 0.19346,-0.104 0.35134,-0.104 0.15787,0 0.28704,-0.04 0.28704,-0.089 0,-0.218 0.93458,-0.4741 2.29305,-0.6283 2.2374,-0.2539 2.84493,-0.423 3.28207,-0.9136 0.22284,-0.2501 0.22056,-0.2604 -0.28226,-1.2804 -0.2788,-0.5655 -0.65563,-1.1722 -0.83739,-1.3482 -0.38576,-0.3735 -0.88672,-0.5323 -1.07741,-0.3416 -0.0729,0.073 -0.19995,0.1325 -0.28238,0.1325 -0.0824,0 -0.71126,0.37 -1.3974,0.8222 -0.68614,0.4522 -1.70096,1.0376 -2.25514,1.3009 -0.93647,0.4449 -1.12882,0.4905 -2.72422,0.6453 -1.13834,0.1104 -3.24309,0.1674 -6.24803,0.169 h -4.53142 l -0.40606,-0.4998 c -0.35861,-0.4414 -0.85906,-0.995 -2.03956,-2.2562 -0.52057,-0.5562 -1.34475,-1.6506 -1.5006,-1.9927 -0.0771,-0.1693 -0.18468,-0.3078 -0.23898,-0.3078 -0.0543,0 -0.0987,-0.069 -0.0987,-0.1542 0,-0.085 -0.10583,-0.2678 -0.23518,-0.4067 -0.12935,-0.1388 -0.23519,-0.3076 -0.23519,-0.3749 0,-0.067 -0.0415,-0.1225 -0.0922,-0.1225 -0.0507,0 -0.18812,-0.1624 -0.30531,-0.3607 -0.11718,-0.1984 -0.4932,-0.6614 -0.83559,-1.029 -1.32088,-1.4178 -1.45198,-1.5818 -1.3913,-1.7399 0.0344,-0.09 0.12822,-0.163 0.20847,-0.163 0.13756,0 0.94555,0.8183 1.7986,1.8216 l 0.38218,0.4495 v -0.3643 c 0,-0.2003 -0.0529,-0.397 -0.11759,-0.4369 -0.0647,-0.04 -0.1176,-0.1754 -0.1176,-0.3009 0,-0.1256 -0.0529,-0.2283 -0.11759,-0.2283 -0.0647,0 -0.11759,-0.061 -0.11759,-0.1363 0,-0.075 -0.20044,-0.4057 -0.44543,-0.735 -0.24498,-0.3292 -0.63603,-0.9955 -0.86899,-1.4805 -0.83241,-1.7333 -1.75955,-2.5085 -4.97678,-4.1615 -0.71144,-0.3655 -1.55811,-0.8246 -1.88149,-1.0202 -0.32338,-0.1956 -0.68056,-0.3859 -0.79375,-0.4229 -0.11318,-0.037 -0.20578,-0.1141 -0.20578,-0.1712 0,-0.057 -0.0566,-0.1039 -0.12581,-0.1039 -0.0692,0 -0.35654,-0.1587 -0.63854,-0.3528 -0.28201,-0.194 -0.54796,-0.3527 -0.591,-0.3527 -0.043,0 -0.23134,-0.109 -0.41844,-0.2423 -0.1871,-0.1332 -1.17422,-0.6605 -2.19361,-1.1718 -1.66445,-0.8348 -2.23554,-1.1393 -3.68941,-1.9672 -0.23367,-0.1331 -0.55117,-0.3131 -0.70555,-0.4 -0.15439,-0.087 -0.30716,-0.1868 -0.33949,-0.2219 -0.10027,-0.1089 -2.72185,-1.373 -3.52778,-1.7011 -0.97221,-0.3957 -3.17348,-1.1945 -3.93935,-1.4294 -0.32338,-0.099 -0.70952,-0.2281 -0.85808,-0.2863 -0.14857,-0.058 -0.42138,-0.106 -0.60625,-0.106 -0.29144,0 -0.60896,-0.1225 -1.56209,-0.6026 -0.1123,-0.057 -0.285,-0.1029 -0.38377,-0.1029 -0.0988,0 -0.27147,-0.049 -0.38377,-0.1092 -0.4663,-0.2492 -2.26855,-0.3765 -3.42271,-0.2417 -2.23793,0.2613 -3.64928,0.8186 -5.04787,1.9932 -1.1868,0.9968 -1.9186,2.0625 -2.42509,3.5318 -0.22415,0.6502 -0.25555,3.4989 -0.0471,4.2781 0.12074,0.4515 0.1948,0.5354 0.57221,0.6485 0.90511,0.2711 0.88134,0.3095 0.83736,-1.3515 -0.0453,-1.711 0.15362,-2.7582 0.7237,-3.8095 0.50708,-0.9352 2.00846,-2.384 2.23534,-2.1571 0.17664,0.1766 0.0595,0.5168 -0.24458,0.7105 -0.17785,0.1133 -0.57741,0.4717 -0.88789,0.7965 -1.26694,1.3253 -1.8681,3.5647 -1.47189,5.4829 l 0.13907,0.6733 1.12506,0.3185 c 1.07893,0.3054 2.86559,0.8942 3.35931,1.1071 0.12935,0.056 0.6056,0.243 1.05833,0.4161 0.45274,0.1731 1.00836,0.3959 1.23473,0.4951 0.42839,0.1878 0.94525,0.4102 1.64629,0.7082 0.22637,0.096 0.75554,0.3347 1.17593,0.5299 0.42039,0.1951 0.97602,0.4506 1.23472,0.5676 0.25871,0.117 1.62105,0.7719 3.02743,1.4553 1.40639,0.6834 2.57195,1.2425 2.59015,1.2425 0.0803,0 -0.0667,-1.0109 -0.16157,-1.1113 -0.058,-0.061 -0.10555,-0.2567 -0.10555,-0.434 0,-0.1773 -0.0529,-0.355 -0.11759,-0.395 -0.0647,-0.04 -0.11759,-0.1761 -0.11759,-0.3025 0,-0.1264 -0.0612,-0.3482 -0.13595,-0.4928 -0.28527,-0.5518 -0.33442,-0.6767 -0.33442,-0.8494 0,-0.098 -0.0529,-0.178 -0.11759,-0.178 -0.0647,0 -0.1176,-0.1058 -0.1176,-0.2351 0,-0.1294 -0.0529,-0.2352 -0.11759,-0.2352 -0.0647,0 -0.11759,-0.055 -0.11759,-0.1221 0,-0.067 -0.31132,-0.5831 -0.69183,-1.1466 -0.69869,-1.0346 -1.60606,-2.0456 -2.63016,-2.9308 -0.51308,-0.4434 -0.75286,-0.9746 -0.43996,-0.9746 0.37974,0 2.53543,2.2221 3.36534,3.469 0.73563,1.1052 0.82769,1.2835 1.57846,3.0574 0.0548,0.1293 0.1155,0.3359 0.135,0.459 0.0249,0.1575 0.559,0.4898 1.79935,1.1196 1.73905,0.8831 2.07403,1.0346 3.35139,1.5157 0.56571,0.213 2.06181,0.7018 2.41839,0.79 0.12951,0.032 0.36112,0.9357 0.45113,1.7601 0.13252,1.2138 0.49787,2.0193 1.18264,2.6073 l 0.47516,0.4081 0.0378,-0.3085 c 0.0728,-0.5942 1.00949,-0.631 1.31947,-0.052 0.0974,0.1821 0.10165,0.3329 0.0146,0.5239 -0.1048,0.23 -0.0856,0.2768 0.1349,0.3282 0.14141,0.033 0.49523,0.021 0.78627,-0.026 0.51255,-0.084 0.68375,-0.1476 1.94028,-0.7248 0.47265,-0.217 0.79877,-0.2711 1.66289,-0.2755 0.99668,-0.01 1.2029,0.038 1.93799,0.4059 0.10677,0.054 0.24163,0.045 0.30642,-0.02 0.0759,-0.076 -0.2224,-0.4624 -0.86686,-1.123 -0.97866,-1.0032 -1.20864,-1.4491 -0.74739,-1.4491 0.12936,0 0.23519,0.051 0.23519,0.1139 0,0.063 0.72371,0.8167 1.60825,1.6757 0.88454,0.859 2.32652,2.2605 3.2044,3.1146 1.71274,1.6662 1.96035,1.8922 2.59568,2.3698 0.22637,0.1702 0.43804,0.3376 0.47037,0.3722 0.0323,0.034 0.45567,0.3618 0.94074,0.7273 0.48507,0.3655 1.0407,0.824 1.23473,1.0189 0.19402,0.1949 0.4664,0.3574 0.60529,0.3611 0.13888,0 1.51471,-0.203 3.0574,-0.4594 z m -12.45519,-2.3096 c -0.0391,-0.039 -0.1405,-0.043 -0.22539,-0.01 -0.0938,0.038 -0.0659,0.065 0.0711,0.071 0.12396,0.01 0.19342,-0.023 0.15434,-0.062 z m -65.34845,-2.8517 c 1.11774,-0.341 1.59895,-0.5868 1.74631,-0.8921 0.31352,-0.6497 0.39302,-3.2979 0.15024,-5.0046 -0.0782,-0.5497 -0.1719,-1.2376 -0.20821,-1.5287 -0.0363,-0.291 -0.11381,-0.5794 -0.17222,-0.6409 -0.0584,-0.061 -0.10619,-0.3096 -0.10619,-0.5516 0,-0.2419 -0.0529,-0.4726 -0.11759,-0.5126 -0.0647,-0.04 -0.1176,-0.2113 -0.1176,-0.3807 0,-0.1695 -0.0481,-0.4706 -0.10696,-0.6693 -0.2457,-0.8295 -0.34669,-1.2232 -0.49575,-1.9324 -0.12586,-0.5989 -0.212,-0.7691 -0.43167,-0.8526 -0.69061,-0.2626 -0.72175,-0.2094 -1.07616,1.8359 -0.33029,1.9062 -0.72612,4.0501 -0.83044,4.498 -0.064,0.2748 -0.16971,0.7246 -0.23484,0.9995 -0.0651,0.2749 -0.14042,1.7962 -0.16731,3.3808 -0.0269,1.5845 -0.0877,3.0878 -0.13518,3.3406 l -0.0863,0.4596 0.75455,-0.6401 c 0.58924,-0.4999 0.94749,-0.699 1.6353,-0.9088 z m 85.33691,0.3769 c 0.24132,-0.094 0.1658,-0.1995 -1.05833,-1.4728 -0.725,-0.7541 -1.5182,-1.5153 -1.76265,-1.6915 -1.62578,-1.1717 -4.21989,-2.2068 -6.88465,-2.7471 -0.87903,-0.1782 -2.52642,-0.158 -3.43066,0.042 -1.59248,0.3525 -1.69696,0.4239 -1.29622,0.886 0.13087,0.1509 0.23794,0.3145 0.23794,0.3637 0,0.1868 1.42318,1.9713 2.29144,2.8732 0.49809,0.5174 1.04587,1.126 1.21729,1.3523 0.17143,0.2264 0.35001,0.4402 0.39685,0.4751 0.14211,0.1059 10.00991,0.028 10.28899,-0.081 z m -4.14041,-1.7569 c -0.2587,-0.1586 -0.54974,-0.3175 -0.64676,-0.3532 -0.097,-0.036 -0.26827,-0.114 -0.38058,-0.1739 -0.1123,-0.06 -0.285,-0.109 -0.38377,-0.109 -0.0988,0 -0.27147,-0.049 -0.38377,-0.1083 -0.44756,-0.2373 -2.18993,-0.3971 -2.83094,-0.2596 -0.34024,0.073 -0.77845,0.1327 -0.97379,0.1327 -0.29845,0 -0.34917,-0.041 -0.31759,-0.2574 0.0754,-0.5169 1.98065,-0.7331 3.5066,-0.3979 1.3724,0.3015 2.03919,0.5656 2.91037,1.1529 0.90443,0.6096 0.44527,0.953 -0.49977,0.3737 z m 7.17315,1.0703 c 0.51741,-0.2472 1.46991,-0.8017 2.11667,-1.2321 0.64676,-0.4304 1.34875,-0.8523 1.55999,-0.9375 0.3533,-0.1425 0.36743,-0.1675 0.17639,-0.3125 -0.41772,-0.317 -0.57482,-0.2648 -2.67712,0.89 -0.38806,0.2131 -0.82758,0.4537 -0.97672,0.5347 -0.14913,0.081 -0.33702,0.2372 -0.41752,0.3473 -0.1287,0.176 -0.22988,0.1847 -0.83817,0.072 -0.38049,-0.07 -1.06573,-0.1256 -1.52276,-0.1228 l -0.83095,0.01 0.7475,0.6799 c 0.71998,0.6549 0.76544,0.6771 1.23473,0.6025 0.26797,-0.043 0.91055,-0.2796 1.42796,-0.5269 z m -32.73095,-2.4964 c -0.0719,-0.1799 -0.18732,-0.7983 -0.25657,-1.3742 -0.14755,-1.227 -0.25759,-1.4812 -0.64116,-1.4812 -0.1556,0 -0.31561,-0.053 -0.35558,-0.1176 -0.04,-0.065 -0.19872,-0.1176 -0.35278,-0.1176 -0.15405,0 -0.3128,-0.053 -0.35277,-0.1176 -0.04,-0.065 -0.17611,-0.1176 -0.30252,-0.1176 -0.12641,0 -0.32173,-0.047 -0.43403,-0.1038 -0.11231,-0.057 -0.33649,-0.1559 -0.49818,-0.2195 -0.64183,-0.2523 -0.90545,-0.363 -1.4699,-0.6172 -0.90064,-0.4055 -2.45601,-1.1942 -2.58116,-1.3089 -0.26232,-0.2405 -0.40242,-0.1007 -0.33931,0.3386 0.10135,0.7054 0.2762,1.3229 0.37458,1.3229 0.05,0 0.19347,0.093 0.31885,0.2058 0.12538,0.1131 0.519,0.4431 0.87472,0.7333 0.35572,0.2901 0.67322,0.5592 0.70556,0.5978 0.25813,0.3084 1.51878,0.991 2.27097,1.2297 1.15431,0.3664 1.74691,0.6406 2.49153,1.153 0.32338,0.2225 0.60831,0.3859 0.63319,0.3629 0.0249,-0.023 -0.0136,-0.1889 -0.0854,-0.3688 z m -63.45979,-25.5508 c 0.04,-0.065 0.21707,-0.1176 0.39356,-0.1176 0.18014,0 0.49615,-0.1463 0.72049,-0.3336 l 0.39961,-0.3336 0.0172,-1.3421 c 0.009,-0.7381 0.0393,-1.4183 0.0663,-1.5115 0.0289,-0.099 -0.0479,-0.1877 -0.18603,-0.2139 -0.34585,-0.065 -1.1938,-0.4675 -1.48527,-0.7043 -0.82678,-0.6717 -1.01661,-0.8868 -1.15652,-1.3108 -0.28998,-0.8786 0.29618,-1.6585 1.24654,-1.6585 0.42971,0 0.51331,-0.037 0.51331,-0.2282 0,-0.1256 0.0529,-0.261 0.11759,-0.301 0.14143,-0.087 0.15801,-1.1412 0.0204,-1.2994 -0.0534,-0.061 -0.1688,-0.3498 -0.25637,-0.6408 -0.0876,-0.2911 -0.19307,-0.5821 -0.23445,-0.6468 -0.0414,-0.065 -0.14476,-0.3383 -0.22974,-0.608 -0.23498,-0.7458 0.006,-1.3991 0.92141,-2.4929 0.76404,-0.9135 1.18259,-1.6462 1.18723,-2.0784 0.003,-0.3088 -0.96384,-1.0549 -1.75904,-1.357 -0.7975,-0.3031 -2.02958,-0.2994 -2.85239,0.01 -0.65097,0.2435 -1.58046,1.029 -2.0891,1.7653 -0.31405,0.4547 -1.27803,1.4111 -1.4222,1.4111 -0.0737,0 -1.68484,1.8428 -2.26221,2.5874 -0.54093,0.6976 -0.90355,2.3115 -0.8996,4.0039 0.002,0.6929 0.18771,1.5161 0.38801,1.7164 0.0443,0.044 0.0806,0.1563 0.0806,0.2489 0,0.3517 0.98146,2.1577 1.33361,2.454 0.20256,0.1705 0.71297,0.4669 1.13424,0.6589 1.33524,0.6082 2.2927,1.0727 2.35345,1.1416 0.14665,0.1664 1.58684,0.8297 1.80145,0.8297 0.25865,0 0.96987,0.2039 1.25596,0.3602 0.25021,0.1366 0.79574,0.132 0.88194,-0.01 z m -5.49956,-4.4439 c -0.68145,-0.4899 -1.10992,-1.3165 -0.88802,-1.713 0.16158,-0.2887 0.33156,-0.233 0.33156,0.1086 0,0.166 0.0605,0.4173 0.13449,0.5586 0.12305,0.235 0.25446,0.3603 0.95888,0.914 0.13276,0.1043 0.20031,0.247 0.15312,0.3234 -0.11739,0.1899 -0.18582,0.1709 -0.69003,-0.1916 z m 2.47477,-9.0658 c 0.46369,-0.3969 0.92024,-0.6204 1.91601,-0.9379 0.62405,-0.1989 1.09188,-0.1631 1.38059,0.1059 0.14155,0.1319 0.25736,0.285 0.25736,0.3402 0,0.1709 -0.31676,0.2322 -0.45996,0.089 -0.25813,-0.2582 -1.42914,-0.1606 -2.14586,0.1788 -0.36547,0.173 -0.69909,0.3706 -0.74137,0.439 -0.0423,0.068 -0.19282,0.1222 -0.33452,0.1196 -0.23596,0 -0.22521,-0.033 0.12775,-0.3346 z m 12.59174,5.7615 c 0.10009,-0.063 0.115,-0.1286 0.04,-0.1749 -0.14739,-0.091 -0.49353,0.031 -0.49353,0.1746 0,0.1326 0.2445,0.1328 0.45352,3e-4 z m -15.43882,52.8792 c -0.14231,-0.2032 -0.21296,-0.2288 -0.32417,-0.1176 -0.18343,0.1834 -0.9469,0.1842 -1.12998,0 -0.0776,-0.078 -0.14111,-0.3422 -0.14111,-0.588 0,-0.2458 -0.0472,-0.4468 -0.10484,-0.4468 -0.20044,0 -0.26318,-0.606 -0.0901,-0.8702 0.15066,-0.2299 0.14293,-0.2925 -0.0728,-0.5885 -0.22535,-0.3094 -0.22898,-0.3519 -0.0548,-0.6417 0.10256,-0.1706 0.48324,-0.469 0.84595,-0.6631 0.76654,-0.41 1.30318,-0.8796 1.71315,-1.499 0.17276,-0.261 0.50741,-0.5429 0.82084,-0.6915 0.47702,-0.2262 0.65662,-0.2438 1.82268,-0.178 1.54911,0.087 2.06314,-0.023 2.24847,-0.4806 0.32442,-0.802 0.423,-1.6558 0.35069,-3.0375 -0.14984,-2.8634 -0.21125,-6.8125 -0.12125,-7.797 0.0914,-0.9999 0.094,-1.0064 0.17179,-0.4275 0.0434,0.3234 0.0866,1.9426 0.096,3.5982 0.009,1.6557 0.0701,3.2901 0.13499,3.6321 0.15921,0.8395 0.14956,3.1191 -0.0154,3.6387 -0.46798,1.4741 -0.67509,1.5917 -2.83174,1.6081 -1.55606,0.012 -1.62715,0.023 -2.02295,0.3252 -0.22562,0.172 -0.6319,0.5967 -0.90286,0.9436 -0.27095,0.347 -0.74864,0.7827 -1.06152,0.9684 -0.63022,0.374 -0.71155,0.514 -0.29863,0.514 0.17585,0 0.46188,-0.1997 0.79375,-0.5541 1.357,-1.4491 1.75363,-1.7978 2.04504,-1.7978 0.22251,0 0.29648,0.061 0.29648,0.2462 0,0.1438 -0.0938,0.2707 -0.22553,0.3052 -0.12404,0.032 -0.6929,0.56 -1.26412,1.1724 -0.57122,0.6124 -1.26348,1.2474 -1.53836,1.4111 -0.55723,0.3319 -0.67856,0.583 -0.17638,0.3651 0.55641,-0.2414 1.1769,-0.6572 1.58087,-1.0595 0.47965,-0.4776 1.07755,-0.9312 1.63681,-1.2417 0.23367,-0.1298 0.53662,-0.3057 0.67322,-0.391 0.17462,-0.1091 0.2853,-0.1182 0.37275,-0.031 0.22133,0.2214 -0.001,0.4841 -0.74379,0.8773 -0.39987,0.2118 -1.05443,0.6996 -1.45456,1.084 -0.73436,0.7055 -1.46426,1.2599 -1.65866,1.2599 -0.11856,0 -0.49484,0.387 -0.49484,0.509 0,0.1311 0.45623,0.089 0.73338,-0.068 0.14291,-0.081 0.39354,-0.2798 0.55697,-0.4421 0.75354,-0.7484 3.59771,-2.8211 3.87115,-2.8211 0.0716,0 0.13017,0.1214 0.13017,0.2697 0,0.201 -0.2352,0.4417 -0.92258,0.9445 -0.50741,0.3711 -1.02335,0.7662 -1.14652,0.878 -0.12318,0.1118 -0.52644,0.3848 -0.89615,0.6067 -0.66113,0.3968 -0.86298,0.6282 -0.73236,0.8395 0.0364,0.059 0.15828,0.107 0.27092,0.107 0.25727,0 0.83751,-0.2644 0.83873,-0.3822 5.1e-4,-0.049 0.0671,-0.088 0.14791,-0.088 0.0808,-2e-4 0.3322,-0.1629 0.55857,-0.3615 1.14986,-1.0092 2.50535,-1.6373 3.53322,-1.6373 0.24807,0 0.48375,-0.053 0.52372,-0.1176 0.04,-0.065 0.30753,-0.1176 0.59456,-0.1176 0.43027,0 0.60107,-0.072 0.97288,-0.4075 0.24804,-0.224 0.54727,-0.6209 0.66495,-0.8819 0.11769,-0.261 0.25886,-0.4745 0.31371,-0.4745 0.0548,0 0.10054,-0.1191 0.10153,-0.2646 10e-4,-0.1929 0.0291,-0.2214 0.10274,-0.1053 0.0578,0.091 0.0494,0.3175 -0.0196,0.5292 -0.65884,2.0223 -0.87251,2.2146 -2.68607,2.4168 -1.25952,0.1404 -2.08192,0.4332 -3.0663,1.0917 -0.36833,0.2464 -0.72552,0.4479 -0.79375,0.4479 -0.0682,0 -0.12404,0.044 -0.12404,0.098 0,0.054 -0.14552,0.1727 -0.32338,0.2643 -0.17786,0.092 -0.34984,0.1933 -0.38218,0.2257 -0.42378,0.4251 -1.42627,0.4802 -1.69733,0.093 z m 105.56362,-0.4458 c 0,-0.291 0.0229,-0.4101 0.051,-0.2646 0.028,0.1456 0.028,0.3837 0,0.5292 -0.028,0.1455 -0.051,0.026 -0.051,-0.2646 z m 11.19429,-0.4765 c -0.0433,-0.07 -0.14845,-0.1008 -0.23357,-0.068 -0.19251,0.074 -0.29681,-0.1753 -0.2109,-0.5038 0.10825,-0.4139 -0.8106,-1.2274 -1.66842,-1.4771 -1.07522,-0.3129 -1.81913,-0.2052 -4.8213,0.698 -1.40737,0.4234 -2.75004,0.4459 -3.76296,0.063 -0.38806,-0.1467 -0.81463,-0.2657 -0.94794,-0.2645 -0.14697,0 -0.3549,-0.1621 -0.5282,-0.415 -0.36971,-0.5396 -1.53952,-1.5115 -2.12405,-1.7647 -0.25121,-0.1088 -0.45676,-0.2383 -0.45676,-0.2877 0,-0.05 -0.0976,-0.09 -0.21696,-0.09 -0.28777,0 -0.65272,-0.4147 -0.56534,-0.6424 0.0927,-0.2417 0.30876,-0.224 0.66471,0.054 0.16169,0.1265 0.3469,0.2317 0.41158,0.2338 0.0647,0 0.43405,0.2415 0.82083,0.5318 0.38678,0.2904 0.74417,0.528 0.79419,0.528 0.05,0 0.3421,0.2393 0.64907,0.5318 0.30697,0.2926 0.84642,0.6743 1.19879,0.8484 0.54853,0.2709 0.78527,0.3157 1.64629,0.3112 0.5531,0 1.3496,-0.095 1.76999,-0.2047 0.99195,-0.2588 2.33786,-0.6564 2.68077,-0.792 0.14856,-0.059 0.79737,-0.1068 1.44179,-0.1068 0.96205,0 1.27137,0.046 1.72895,0.2598 0.30651,0.1429 0.62958,0.3304 0.71793,0.4168 0.0883,0.086 0.21975,0.1374 0.29199,0.1133 0.0722,-0.024 0.18884,0.066 0.25911,0.2005 0.0703,0.1344 0.26959,0.4976 0.44296,0.8071 0.32465,0.5796 0.39725,0.9602 0.20574,1.0785 -0.0602,0.037 -0.14494,0.01 -0.18829,-0.06 z m 2.02441,-0.4231 c -0.0442,-0.044 -0.0804,-0.4431 -0.0804,-0.8864 0,-0.6696 -0.0514,-0.8837 -0.30338,-1.2645 -0.28763,-0.4346 -1.08111,-1.0652 -1.34039,-1.0652 -0.0661,0 -0.12012,-0.041 -0.12012,-0.092 0,-0.051 -0.25135,-0.1609 -0.55856,-0.2451 -0.30721,-0.084 -0.6644,-0.1974 -0.79375,-0.2515 -0.38352,-0.1606 -1.58885,-0.231 -2.53089,-0.1479 -0.93474,0.083 -0.9501,0.066 0.29663,0.3273 0.19403,0.041 0.45861,0.1185 0.58796,0.1729 0.12935,0.054 0.40717,0.1691 0.61736,0.255 0.2102,0.086 0.38218,0.1962 0.38218,0.2451 0,0.049 0.069,0.089 0.15332,0.089 0.22231,0 0.90501,0.7395 0.90501,0.9803 0,0.1807 -0.0311,0.1752 -0.26458,-0.047 -0.3079,-0.293 -1.23592,-0.7332 -1.91088,-0.9064 -1.24314,-0.319 -1.66899,-0.3797 -2.66359,-0.3797 -1.16623,0 -2.93859,-0.1804 -3.68641,-0.3752 -1.01648,-0.2647 -1.42061,-0.4201 -2.52046,-0.969 -1.3975,-0.6975 -2.47723,-1.4401 -2.47723,-1.7039 0,-0.1269 0.0417,-0.2564 0.0926,-0.2878 0.0509,-0.032 0.48746,0.1953 0.97014,0.5039 1.6717,1.069 2.58058,1.4855 4.11504,1.8859 0.60695,0.1584 2.70166,0.104 3.52413,-0.091 1.86795,-0.444 2.54359,-0.5148 3.50572,-0.3676 1.23024,0.1883 2.5206,0.6255 2.91935,0.989 0.43164,0.3936 0.65425,0.5329 0.75356,0.4715 0.0617,-0.038 0.11211,0.013 0.11211,0.114 0,0.1009 0.0522,0.1834 0.11601,0.1834 0.23469,0 0.48876,0.8958 0.50753,1.7894 0.0175,0.8354 -0.10818,1.2738 -0.308,1.0739 z m -1.55027,-4.7007 c -1.11202,-0.9844 -2.77214,-1.6372 -5.64444,-2.2195 -0.19403,-0.039 -0.57767,-0.1216 -0.85255,-0.1828 -0.27487,-0.061 -0.75112,-0.1671 -1.05833,-0.2354 -0.30721,-0.068 -0.73103,-0.1535 -0.94183,-0.1894 -0.2108,-0.036 -0.41236,-0.1123 -0.44791,-0.1698 -0.0356,-0.058 -0.19069,-0.1046 -0.34475,-0.1046 -0.15406,0 -0.31281,-0.053 -0.35278,-0.1176 -0.04,-0.065 -0.17105,-0.1176 -0.2913,-0.1176 -0.3203,0 -1.79263,-0.812 -2.40928,-1.3288 -0.29754,-0.2493 -0.53321,-0.5482 -0.53321,-0.6761 0,-0.2709 0.26358,-0.3022 0.46828,-0.056 0.1899,0.2288 1.72333,1.2372 1.88137,1.2372 0.0676,0 0.2281,0.053 0.35657,0.1176 0.12847,0.065 0.33871,0.1705 0.46718,0.2352 0.12847,0.065 0.35602,0.1176 0.50565,0.1176 0.14963,0 0.32233,0.047 0.38377,0.1056 0.0614,0.058 0.32338,0.1353 0.58208,0.1717 0.25871,0.036 0.78787,0.1233 1.17593,0.1931 1.41019,0.2534 1.61267,0.2671 1.70635,0.1155 0.0726,-0.1175 0.24936,-0.1171 0.8815,0 0.78581,0.1483 1.67602,0.1168 3.35057,-0.1187 1.30087,-0.1829 1.64614,-0.2564 1.71313,-0.3648 0.0356,-0.057 0.15839,-0.1046 0.27296,-0.1046 0.5936,0 2.11263,-1.0663 2.40913,-1.6911 0.10438,-0.22 0.2629,-0.428 0.35226,-0.4623 0.36966,-0.1419 -0.13935,1.1079 -0.71461,1.7545 -0.29581,0.3325 -1.19128,0.9159 -1.68101,1.0951 -0.22637,0.083 -0.51741,0.1947 -0.64676,0.2484 -0.40454,0.1681 -1.01463,0.2494 -2.33122,0.3108 l -1.27289,0.059 0.97209,0.4891 c 0.87692,0.4413 1.95715,1.3369 2.54846,2.1129 0.25198,0.3306 -0.005,0.2149 -0.50441,-0.2273 z m -95.54398,-1.029 c 0,-0.3496 0.15245,-0.8966 0.24989,-0.8966 0.11733,0 0.13875,0.5929 0.0315,0.8723 -0.0877,0.2287 -0.2814,0.2454 -0.2814,0.024 z m 69.05625,-0.5041 c -0.0808,-0.033 -0.14699,-0.155 -0.14699,-0.272 0,-0.2283 0.17467,-0.2931 1.11713,-0.4146 0.32338,-0.042 0.72026,-0.1174 0.88195,-0.1684 0.16169,-0.051 0.50564,-0.1565 0.76435,-0.2344 0.53512,-0.1613 0.72828,-0.2362 1.46991,-0.5695 0.94141,-0.4231 1.34225,-0.592 1.88148,-0.7928 0.29104,-0.1083 0.635,-0.2376 0.76435,-0.2873 0.69197,-0.2659 1.1811,-0.3704 2.04405,-0.437 l 0.95456,-0.074 v 0.296 c 0,0.2508 -0.0675,0.3072 -0.44097,0.3689 -0.24254,0.04 -0.63692,0.073 -0.87641,0.074 -0.2395,7e-4 -0.557,0.047 -0.70556,0.1039 -0.14856,0.056 -0.48178,0.1657 -0.74049,0.2429 -0.2587,0.077 -0.5762,0.1828 -0.70555,0.2345 -0.68198,0.2729 -0.86678,0.3506 -1.35232,0.5688 -1.8282,0.8218 -2.65032,1.1048 -3.81395,1.3133 -0.74801,0.134 -0.86749,0.1391 -1.09554,0.047 z m -77.2129,-5.759 c -0.33267,-0.3327 -0.38561,-0.6225 -0.18289,-1.0013 0.0699,-0.1306 0.10495,-0.2597 0.0779,-0.2868 -0.0632,-0.063 -1.54441,0.8874 -1.5965,1.0245 -0.0216,0.057 -0.16707,0.1032 -0.32337,0.1032 -0.5295,0 -0.32103,-0.386 0.51016,-0.9446 1.1556,-0.7766 1.40083,-0.8627 2.83354,-0.995 0.23993,-0.022 0.53894,-0.1734 0.76435,-0.3866 0.43167,-0.4082 0.83715,-0.6367 0.94276,-0.531 0.18633,0.1863 0.0374,0.4988 -0.36671,0.7697 -0.24253,0.1625 -0.59972,0.4341 -0.79375,0.6034 -0.19403,0.1694 -0.41892,0.308 -0.49977,0.3081 -0.0808,0 -0.14699,0.053 -0.14699,0.1177 0,0.065 -0.0953,0.1176 -0.21167,0.1176 -0.2898,0 -0.49388,0.2284 -0.49388,0.5527 0,0.347 0.10652,0.3404 0.85471,-0.053 0.68219,-0.3586 1.49218,-0.6043 2.01847,-0.6122 0.51438,-0.01 1.74097,-0.4752 1.98789,-0.7575 0.38415,-0.4393 0.53004,-0.9756 0.61648,-2.2659 l 0.0847,-1.265 0.20969,0.6423 c 0.3165,0.9695 0.28071,1.6902 -0.13116,2.6414 -0.056,0.1293 -0.11789,0.341 -0.1375,0.4703 -0.0394,0.2601 -1.04381,0.8567 -1.46883,0.8724 -0.1417,0.01 -0.29035,0.062 -0.33032,0.1272 -0.04,0.065 -0.31715,0.1176 -0.61595,0.1176 -0.63726,0 -1.12629,0.1423 -2.0758,0.6039 -0.85709,0.4168 -1.13078,0.4216 -1.52555,0.027 z m -7.40343,-6.7455 c 0.0259,-0.7438 0.10165,-1.5972 0.16834,-1.8965 0.0841,-0.3775 0.0827,-0.8212 -0.005,-1.449 -0.14179,-1.0194 -0.15844,-9.1125 -0.0205,-9.9425 l 0.088,-0.5292 0.0765,0.6468 c 0.12396,1.0481 0.17617,11.273 0.0621,12.1708 -0.0575,0.4527 -0.1546,0.929 -0.21579,1.0584 -0.0612,0.1293 -0.13148,0.4733 -0.15621,0.7643 -0.0247,0.291 -0.0238,-0.079 0.002,-0.8231 z m 13.46634,0.5291 c 0.002,-0.194 0.0288,-0.2591 0.0586,-0.1447 0.0298,0.1144 0.0279,0.2731 -0.004,0.3527 -0.0322,0.08 -0.0566,-0.014 -0.0542,-0.208 z m -13.42848,-30.8369 c -0.29382,-0.1132 -0.70526,-0.6613 -0.70541,-0.9398 -1.7e-4,-0.3023 0.49819,-0.6796 0.7633,-0.5779 0.23112,0.089 0.22913,0.3106 -0.003,0.3106 -0.46135,0 -0.27034,0.7437 0.2228,0.8674 0.38473,0.097 0.51198,0.4294 0.15937,0.4169 -0.14349,-0.01 -0.34026,-0.04 -0.43728,-0.077 z"
       id="path53" /></g></svg>
