<?xml version="1.0" encoding="UTF-8" standalone="no"?>
<!-- Created with Inkscape (http://www.inkscape.org/) -->

<svg
   width="121.34614mm"
   height="148.61354mm"
   viewBox="0 0 121.34615 148.61354"
   version="1.1"
   id="svg1"
   xml:space="preserve"
   xmlns="http://www.w3.org/2000/svg"
   xmlns:svg="http://www.w3.org/2000/svg"><defs
     id="defs1" /><g
     id="layer1"
     transform="translate(-95.977684,-462.91743)"><path
       style="fill:#4d4d4d;stroke-width:0.52334"
       d="m 114.35857,611.13514 c -0.59344,-0.32935 -0.91919,-0.42029 -1.57044,-0.43845 -1.00638,-0.0281 -2.24483,-0.36882 -3.45011,-0.94933 -0.49996,-0.2408 -0.93748,-0.43782 -0.97227,-0.43782 -0.0349,0 -0.49757,-0.21455 -1.02841,-0.47678 -1.04712,-0.51727 -2.1345,-0.88248 -5.96993,-2.00506 -2.275361,-0.66597 -2.172941,-0.6161 -2.589902,-1.26124 -0.315022,-0.48744 -0.349582,-0.6842 -0.293833,-1.67297 0.04251,-0.75266 0.199377,-1.46801 0.478059,-2.17887 0.228185,-0.58206 0.764815,-1.93752 1.192476,-3.01212 0.46322,-1.16386 0.73825,-2.05406 0.68027,-2.20176 -0.16353,-0.41661 -1.475811,-1.79109 -2.852029,-2.98723 -1.63964,-1.42509 -2.004767,-1.95609 -2.004767,-2.91538 0,-1.18959 0.459478,-1.64807 2.463863,-2.4585 0.550542,-0.22259 1.233322,-0.54797 1.517322,-0.72309 0.500861,-0.3088 1.847781,-1.51313 2.948461,-2.63625 1.54162,-1.57305 2.81518,-2.60159 4.00662,-3.23578 0.92863,-0.49431 1.0584,-0.66457 1.23372,-1.61859 0.46394,-2.52446 0.85419,-4.27214 1.22327,-5.47831 0.50042,-1.63543 1.66575,-3.792 2.66966,-4.94055 0.28846,-0.33 0.5583,-0.71314 0.59966,-0.85143 0.0414,-0.13828 0.74418,-0.99097 1.56182,-1.89484 0.81765,-0.90387 1.48664,-1.67429 1.48664,-1.71203 0,-0.0376 0.15921,-0.27761 0.35379,-0.53304 0.56868,-0.74654 0.85068,-1.46565 1.10285,-2.81233 0.32762,-1.74955 0.61402,-6.81656 0.4907,-8.68117 -0.4389,-6.63536 -0.42806,-7.44219 0.12534,-9.32781 0.65917,-2.24596 0.68317,-2.66481 0.2154,-3.75768 -0.18139,-0.42378 -0.76625,-1.44847 -1.29967,-2.2771 -1.54026,-2.39257 -1.79462,-3.13393 -1.81683,-5.29535 -0.0196,-1.91075 0.11053,-2.60757 0.79096,-4.23322 0.48083,-1.14888 1.14404,-2.29979 1.93103,-3.35096 0.47522,-0.63476 0.57893,-0.87738 0.50554,-1.18282 -0.0507,-0.21133 -0.19265,-0.91652 -0.31528,-1.56707 -0.12265,-0.65055 -0.25624,-1.29487 -0.29686,-1.43182 -0.0407,-0.13696 -0.1868,-0.78129 -0.32483,-1.43184 -0.13803,-0.65055 -0.3171,-1.43494 -0.39792,-1.7431 -0.0809,-0.30815 -0.21288,-1.28864 -0.29344,-2.17887 -0.24638,-2.72273 -0.44497,-4.55397 -0.62109,-5.72732 -0.85742,-5.71216 -1.32329,-7.85625 -2.48891,-11.45463 -0.13374,-0.41287 -0.19908,-1.41926 -0.19401,-2.98817 l 0.006,-2.36563 0.50147,-1.15979 c 0.66471,-1.53733 1.26561,-2.40948 2.40652,-3.49286 0.30785,-0.29232 2.24391,-1.60774 3.40361,-2.3125 2.46144,-1.49586 4.55174,-4.07301 5.20661,-6.41933 0.14335,-0.5136 0.33458,-1.15726 0.42494,-1.43038 0.20035,-0.60549 0.19757,-3.12296 -0.005,-3.7672 -0.33807,-1.07972 -0.52095,-3.35807 -0.33923,-4.22643 0.18533,-0.88574 0.53726,-1.86177 0.84321,-2.33856 0.6871,-1.07082 2.28439,-2.41475 3.47996,-2.92799 0.847,-0.36359 1.5733,-0.62379 1.74121,-0.62379 0.0847,0 0.51488,-0.13805 0.956,-0.30678 0.44113,-0.16872 1.08881,-0.36483 1.4393,-0.43577 0.35048,-0.071 0.93177,-0.19019 1.29172,-0.26499 0.7617,-0.15826 3.22804,-0.0846 4.35028,0.12996 0.42349,0.081 1.0789,0.20237 1.45647,0.26982 1.02447,0.18299 1.52817,0.41411 2.53881,1.16482 0.74106,0.55049 1.04905,0.69501 1.61692,0.75876 2.37155,0.26625 3.99962,1.32633 4.59833,2.99411 0.30664,0.85417 0.16833,2.18942 -0.31019,2.99471 -0.16852,0.2836 -0.14655,0.43713 0.264,1.84662 0.35005,1.2017 0.24647,2.42062 -0.27626,3.2506 l -0.40055,0.63598 0.33095,0.54684 c 0.18201,0.30077 0.52468,0.76535 0.76147,1.03243 0.72891,0.82212 0.54488,1.40454 -0.55068,1.74282 -0.94379,0.29143 -1.2315,0.6775 -1.11064,1.49039 0.0705,0.47334 0.0292,0.73576 -0.15885,1.01247 -0.13962,0.20543 -0.24219,0.57953 -0.22795,0.83131 0.0165,0.2933 -0.0643,0.51697 -0.2253,0.62253 -0.83748,0.54922 -0.95226,0.69827 -1.05634,1.3719 -0.17289,1.11878 -0.87889,1.46975 -2.95651,1.46975 -1.93559,0 -4.02066,-0.78756 -5.84422,-2.20743 -0.68341,-0.53212 -1.39239,-1.13559 -1.57551,-1.34102 -0.39009,-0.43761 -0.45857,-0.38944 -0.97374,0.68479 -0.56395,1.17601 -0.53321,2.38589 0.0737,2.89592 0.23656,0.19882 2.37982,2.18246 2.83091,2.62006 0.9952,0.96547 2.24887,2.69007 2.6426,3.63527 0.11408,0.27391 0.31111,0.59385 0.43781,0.71096 0.17125,0.15828 0.24007,0.58982 0.26809,1.68085 0.0207,0.80736 0.11458,1.69202 0.20853,1.96593 1.41764,4.13297 2.06152,7.18085 2.49875,11.82816 0.27856,2.96074 0.0494,8.29636 -0.47601,11.08111 -0.43204,2.29013 -0.64014,3.27624 -0.78419,3.71621 -0.0863,0.26346 -0.12426,0.50536 -0.0845,0.53757 0.0399,0.0323 0.6962,-0.11045 1.45864,-0.31697 0.76242,-0.20652 2.21854,-0.47073 3.23584,-0.58711 l 1.84959,-0.21162 1.89969,0.20631 c 2.11773,0.22999 3.57526,0.58651 5.5185,1.34988 2.26231,0.88871 4.98279,2.57501 6.72229,4.16686 0.49518,0.45315 0.97406,0.8859 1.06416,0.96167 0.31038,0.26099 1.85216,2.00678 2.37578,2.69015 1.45273,1.89587 4.20707,4.61735 5.89945,5.82904 0.35226,0.25221 0.78043,0.56083 0.95147,0.68583 0.97252,0.71068 3.23353,1.76472 4.93078,2.29862 1.09396,0.34411 1.62934,0.47114 3.77282,0.89508 0.29644,0.0586 0.85081,0.14113 1.23193,0.18332 0.38114,0.0422 1.10875,0.12829 1.61693,0.1913 0.50817,0.063 1.79015,0.20292 2.84886,0.31088 1.05869,0.10798 2.71035,0.31131 3.67031,0.45187 l 1.74542,0.25557 0.79547,-0.25081 c 0.43751,-0.13796 1.21124,-0.27707 1.71941,-0.30916 0.50818,-0.0322 1.72087,-0.12624 2.69487,-0.20922 3.5849,-0.30546 8.37292,0.0703 11.01048,0.86393 3.12445,0.94023 5.45755,2.52365 6.68589,4.5376 0.62513,1.02495 1.00301,2.1954 0.6522,2.0201 -0.0976,-0.0487 -0.17744,-0.16187 -0.17744,-0.25136 0,-0.38225 -1.13312,-1.94609 -1.91856,-2.64782 -1.99985,-1.78677 -4.59824,-2.91281 -8.32195,-3.60644 -1.03866,-0.19347 -1.84802,-0.22724 -5.15875,-0.2153 -2.78339,0.0101 -4.275,0.0684 -5.12259,0.20026 -0.65768,0.10234 -1.36799,0.15948 -1.57843,0.12694 -0.54194,-0.0837 -0.50986,0.30488 0.0407,0.49483 0.67629,0.2333 1.71983,0.95797 2.12293,1.47425 0.78643,1.00726 1.09719,3.5035 0.48464,3.89316 -0.12643,0.0804 -0.30356,0.43483 -0.39362,0.78754 -0.39325,1.54022 -1.77094,3.2514 -4.04778,5.02759 l -1.36151,1.06214 -0.0113,0.68097 c -0.006,0.37452 -0.0686,0.9611 -0.13858,1.30348 -0.82064,4.01183 -1.0999,5.73066 -1.13275,6.9724 -0.0225,0.85051 0.0398,1.1234 0.42612,1.8676 0.59211,1.1405 1.22167,1.93237 1.29426,1.62792 0.029,-0.12184 -0.0229,-0.46473 -0.11551,-0.76198 -0.29211,-0.93795 -0.19824,-4.31965 0.15364,-5.53495 0.16854,-0.58208 0.37847,-1.33845 0.46654,-1.68084 0.0881,-0.3424 0.28241,-0.7346 0.43187,-0.87156 0.14945,-0.13696 0.53788,-0.61319 0.86319,-1.05831 1.15387,-1.57885 3.61952,-3.26628 5.66337,-3.87587 3.31514,-0.98874 6.89202,-0.79267 10.88618,0.59675 2.44173,0.8494 3.10521,1.038 3.65143,1.038 0.84154,0 1.63025,-0.50402 2.19187,-1.4007 0.28619,-0.45692 0.47055,-0.43249 0.46973,0.0623 -5.9e-4,0.42734 -0.54328,1.1789 -1.26978,1.75878 -0.2329,0.18592 -0.42347,0.42267 -0.42347,0.52612 0,0.30265 -0.89488,1.67582 -1.54872,2.37645 -0.60077,0.64376 -1.60998,1.39616 -2.31495,1.72586 -1.28653,0.60168 -2.28154,0.92747 -2.83499,0.92824 -1.02092,0.002 -2.03169,0.58435 -3.18026,1.8341 -0.33896,0.36882 -0.76623,0.68587 -0.98384,0.73002 -0.46758,0.0949 -1.24157,-0.1366 -1.77304,-0.53028 -0.51788,-0.38361 -0.72998,-0.36831 -1.43819,0.10368 -0.52094,0.34718 -0.64461,0.37928 -1.01994,0.26474 -0.24591,-0.075 -0.51559,-0.085 -0.6357,-0.0236 -0.41037,0.21023 -1.01329,0.1191 -1.26473,-0.19116 -0.33481,-0.41312 -0.76729,-0.49691 -1.57254,-0.30469 l -0.68217,0.16285 0.002,1.18678 c 0.005,3.41512 0.32432,9.27362 0.52656,9.64056 0.42677,0.7743 0.96208,2.22517 1.31391,3.56111 0.28355,1.07669 0.44199,2.36148 0.6142,4.98027 0.2248,3.41912 0.4677,5.95402 0.62634,6.53661 0.24661,0.90572 0.35815,2.17888 0.19089,2.17888 -0.23256,0 -0.46917,-0.89251 -0.65184,-2.45853 -0.0891,-0.76464 -0.19066,-1.46275 -0.22551,-1.55135 -0.0349,-0.0887 -0.10328,-1.19763 -0.15214,-2.46448 -0.13365,-3.46791 -0.54961,-6.30976 -1.19367,-8.1552 -0.54219,-1.5535 -0.61828,-1.73599 -0.93074,-2.2324 l -0.30801,-0.48929 -0.0619,-4.17972 c -0.0705,-4.76234 -0.13402,-6.20642 -0.28604,-6.5082 -0.0588,-0.11652 -0.3397,-0.27402 -0.62441,-0.34998 -0.66687,-0.17795 -1.41378,-0.86834 -1.54329,-1.42651 -0.27629,-1.19077 -0.75924,0.70556 -0.76005,2.98441 -5.8e-4,1.81407 0.2497,3.36586 0.63778,3.95336 0.2393,0.36225 0.1731,0.59115 -0.17094,0.59115 -0.29498,0 -1.70215,-1.57638 -2.16892,-2.42974 -0.21649,-0.39581 -0.44832,-0.66936 -0.51519,-0.6079 -0.14428,0.13261 -0.54783,5.87136 -0.55067,7.83116 -0.002,2.15389 0.11703,2.7833 1.12917,5.91408 0.34312,1.06142 0.66744,2.06992 0.72065,2.24111 0.37133,1.19442 1.32948,3.79724 2.08542,5.66507 1.11858,2.76382 1.33908,3.35786 1.59444,4.29549 0.68156,2.50252 1.02788,3.32262 1.47243,3.48672 0.12705,0.047 0.39351,0.15382 0.59213,0.23758 0.39264,0.16561 1.48057,0.33865 3.20144,0.50922 0.66774,0.0662 1.47956,0.25558 2.06963,0.48282 0.53404,0.20565 1.0271,0.34586 1.09572,0.31157 0.35426,-0.17702 0.0404,-0.54892 -0.91472,-1.08412 -1.41029,-0.79025 -2.04039,-1.27705 -2.04039,-1.57641 0,-0.3122 0.0933,-0.31239 0.84695,-0.002 0.68864,0.28385 1.121,0.30567 2.23378,0.11273 1.21941,-0.21144 1.61495,-0.0616 2.61699,0.99142 0.33292,0.34985 1.03789,0.76345 1.3013,0.76345 0.23536,0 0.0348,-0.58964 -0.33337,-0.97989 -0.92636,-0.98195 -1.65945,-1.37786 -3.03316,-1.63806 -0.90183,-0.17084 -1.10018,-0.25346 -1.14082,-0.47526 -0.0438,-0.23959 0.0225,-0.26855 0.61597,-0.26909 1.46322,-8.7e-4 2.69875,0.64037 4.37795,2.27387 0.33177,0.32274 0.60381,0.46589 0.88544,0.46589 0.2236,0 0.40654,-0.0256 0.40654,-0.0568 0,-0.0312 -0.72401,-0.64577 -1.6089,-1.36557 -1.52767,-1.24268 -1.79175,-1.38616 -2.7029,-1.46865 -0.30865,-0.028 -0.38376,-0.10274 -0.3789,-0.37726 0.005,-0.27524 -0.0631,-0.34239 -0.34648,-0.34239 -0.3901,0 -0.4857,-0.34059 -0.16776,-0.59764 0.25366,-0.2051 0.0627,-0.18906 -1.18575,0.0996 -1.33965,0.30975 -1.97395,0.31031 -2.81271,0.002 -1.18203,-0.43379 -1.04808,-1.07899 0.14394,-0.69337 0.73198,0.2368 1.82278,0.1888 2.93777,-0.12928 0.83922,-0.23939 1.91518,-0.21667 2.65686,0.0561 0.69578,0.25589 1.92491,1.13234 1.92491,1.37259 0,0.087 0.42543,0.48865 0.9454,0.89242 l 0.94539,0.73416 -0.0886,0.53215 c -0.0605,0.36341 -0.0184,0.60879 0.13255,0.77385 0.51064,0.55818 0.0175,1.31464 -0.85686,1.31464 -0.28973,0 -0.46196,0.064 -0.46196,0.17151 0,0.0943 -0.10611,0.24275 -0.23588,0.32981 -0.44447,0.29824 -1.35149,-0.0557 -2.40954,-0.94063 l -0.96353,-0.80575 h -0.88131 c -0.48472,0 -0.92148,0.0526 -0.97055,0.11675 -0.049,0.0642 0.22295,0.29045 0.60456,0.50273 0.78849,0.43863 1.00643,0.70294 1.00643,1.22064 0,0.86357 -1.07404,0.9984 -2.7379,0.34369 -0.89894,-0.35371 -1.35994,-0.44938 -2.57596,-0.53455 l -1.4811,-0.10376 0.11188,0.25443 c 0.0615,0.13994 0.11783,0.51189 0.12513,0.82655 0.006,0.31467 0.0934,0.65085 0.19126,0.74705 0.20456,0.20105 0.84469,1.32676 1.14123,2.00697 0.16523,0.37899 0.16564,0.51683 0.002,0.76368 -0.16361,0.24717 -0.16281,0.38301 0.005,0.75699 0.22909,0.51221 0.10486,0.78654 -0.46133,1.01882 -0.18543,0.076 -0.49492,0.25816 -0.68778,0.40465 -0.43639,0.33147 -0.71948,0.3355 -1.21975,0.0173 -0.21536,-0.13696 -0.43127,-0.24901 -0.47981,-0.24901 -0.0486,0 -0.046,0.24924 0.006,0.55388 l 0.0939,0.55388 -0.41453,0.0842 c -0.31786,0.0644 -0.5649,-0.002 -1.0593,-0.28325 -1.30666,-0.74453 -2.52182,-1.26526 -3.6476,-1.56309 -1.69095,-0.44735 -2.84706,-0.71511 -3.08765,-0.71511 -0.2779,0 -2.80966,-1.00713 -2.94866,-1.17298 -0.0592,-0.0707 -0.10317,-0.77403 -0.0978,-1.56318 0.0148,-2.17121 -0.45192,-4.76986 -1.4877,-8.2827 -0.42216,-1.43173 -1.16305,-4.23853 -1.31464,-4.98028 -0.084,-0.41087 -0.25458,-1.22328 -0.37917,-1.80534 -0.51399,-2.40144 -0.71934,-4.22645 -0.84756,-7.53267 -0.12789,-3.29755 -0.3086,-5.34994 -0.83862,-9.52478 -0.12606,-0.99294 -0.30629,-2.75783 -0.4005,-3.92198 -0.0942,-1.16413 -0.19652,-2.18282 -0.22735,-2.26373 -0.0377,-0.0989 -0.47504,-0.004 -1.33535,0.28943 -1.71421,0.58496 -2.21594,0.66725 -5.74509,0.94226 -0.36874,0.0287 -0.47126,-0.0165 -0.50791,-0.22395 -0.0272,-0.15365 -0.26393,-0.34399 -0.579,-0.46547 -1.42413,-0.54909 -2.38736,-1.69963 -3.30158,-3.94359 -0.67683,-1.66128 -0.88127,-1.99568 -1.51852,-2.48394 -0.81782,-0.6266 -3.18801,-2.11111 -4.91241,-3.07678 -0.82499,-0.46199 -1.53464,-0.87088 -1.57698,-0.90865 -0.0423,-0.0376 -0.49278,-0.31487 -1.00095,-0.61578 -1.12432,-0.66578 -4.35159,-3.26867 -5.38357,-4.34202 -0.41342,-0.43001 -0.80265,-0.73816 -0.86496,-0.68479 -0.0623,0.0534 -0.32178,0.6013 -0.57658,1.21761 -1.75487,4.2443 -4.46551,8.98464 -7.22639,12.63744 -1.75178,2.3177 -4.04453,4.97505 -5.78492,6.70489 -0.50648,0.50341 -1.21639,1.38352 -1.57754,1.95578 -0.62163,0.985 -1.89408,2.57488 -2.49013,3.11135 -0.15001,0.13501 -0.54601,0.52503 -0.88004,0.86672 -0.33402,0.34169 -1.77652,1.56961 -3.20557,2.72872 l -2.59824,2.10748 -0.36122,0.88069 c -1.5139,3.69127 -2.03518,6.28301 -1.56273,7.76978 0.28652,0.90167 0.38538,1.03314 1.464,1.9469 0.43359,0.36732 0.78836,0.72093 0.78836,0.7858 0,0.21065 3.33015,2.72867 4.09351,3.09522 0.40803,0.19592 1.23,0.55231 1.82664,0.79199 0.85135,0.342 1.14914,0.53675 1.38381,0.90509 0.37339,0.58603 0.21055,1.06422 -0.45488,1.33572 -1.08755,0.44376 -5.15837,0.0603 -8.41256,-0.79239 -0.66648,-0.17464 -1.86606,-0.39222 -4.21125,-0.76385 -1.92284,-0.30472 -4.08054,-0.83381 -4.52932,-1.11066 -0.25315,-0.15618 -0.25264,-0.15485 0.34981,0.87939 0.35522,0.60982 0.55297,0.79602 1.0237,0.96394 0.32089,0.11447 0.86772,0.45748 1.21516,0.76224 0.79316,0.6957 0.87643,1.36919 0.23356,1.88898 -0.3553,0.28726 -0.48475,0.31469 -1.20249,0.2548 -0.51199,-0.0428 -1.38871,-0.29127 -2.41219,-0.68381 -1.49251,-0.57244 -3.28824,-1.11406 -5.14971,-1.55325 -2.80265,-0.66123 -2.7113,-0.64662 -2.86946,-0.45916 -0.0882,0.1045 -0.12175,0.84831 -0.0811,1.79691 0.0884,2.06532 0.23838,2.35712 1.77473,3.45455 1.71132,1.22239 1.99911,1.4054 4.25938,2.70852 3.73338,2.15246 4.59253,2.61466 4.86024,2.61466 0.14579,0 0.59021,0.23811 0.98762,0.52914 0.62018,0.45416 0.73421,0.61264 0.80455,1.11813 0.0939,0.67484 -0.22972,1.21638 -0.72696,1.21638 -0.17812,0 -0.39777,0.15211 -0.53938,0.37352 -0.18198,0.28453 -0.34511,0.37352 -0.68469,0.37352 -0.36858,0 -0.46309,0.0637 -0.54572,0.36788 -0.11301,0.41613 -0.53523,0.58135 -0.98653,0.38606 -0.45917,-0.19869 -0.74114,-0.15876 -0.83053,0.11762 -0.0897,0.27714 -0.56111,0.32883 -1.05403,0.11554 -0.25418,-0.10999 -0.37299,-0.0771 -0.67549,0.18676 -0.49041,0.42785 -0.96711,0.40349 -1.8659,-0.0953 z m 1.48415,-0.50149 c 0,-0.0935 -0.1386,-0.31242 -0.30798,-0.48653 -0.1694,-0.17412 -0.30801,-0.40578 -0.30801,-0.51482 0,-0.33895 0.488,-0.2195 1.26366,0.30931 0.83648,0.57029 1.31617,0.61232 0.6829,0.0598 -0.47612,-0.41535 -0.56706,-0.98089 -0.13712,-0.85279 0.1482,0.0442 0.47736,0.20388 0.73145,0.35492 0.69031,0.41033 1.43506,0.69019 1.5247,0.57294 0.0436,-0.057 -0.16038,-0.30907 -0.45325,-0.56012 -0.48758,-0.41795 -0.66399,-0.80604 -0.44637,-0.98201 0.0473,-0.0383 0.43545,0.12045 0.86245,0.35277 0.42696,0.23232 0.87329,0.42239 0.99183,0.42239 0.42103,0 0.19887,-0.3166 -0.48051,-0.68478 -0.46565,-0.25234 -0.68936,-0.46202 -0.68958,-0.64632 -5.5e-4,-0.4405 0.22627,-0.43489 0.96963,0.024 0.78168,0.48257 1.67811,0.63318 1.76476,0.2965 0.0755,-0.29319 -0.69838,-0.98153 -1.10344,-0.98153 -0.18879,0 -0.91556,-0.32217 -1.61507,-0.71593 -5.90236,-3.32246 -9.15916,-5.43599 -9.6965,-6.2926 -1.05642,-1.68414 -1.03564,-3.1688 0.0814,-5.81569 0.4096,-0.97059 1.70639,-3.19876 2.86226,-4.91802 0.36831,-0.54783 0.88675,-1.33222 1.15212,-1.7431 0.80016,-1.23899 3.22929,-5.35264 3.35122,-5.67519 0.0626,-0.16562 0.19961,-0.38518 0.30445,-0.4879 0.10485,-0.10271 0.43722,-0.56123 0.73861,-1.01896 2.74644,-4.17098 5.0062,-6.59752 8.73586,-9.38066 0.55052,-0.41081 1.11785,-0.94231 1.26073,-1.18111 0.84534,-1.41292 1.33848,-2.45917 1.81851,-3.85812 0.73527,-2.14289 1.1073,-2.85033 2.52071,-4.79351 0.4981,-0.68478 1.20995,-1.68759 1.5819,-2.22844 1.22931,-1.78754 2.4436,-5.18019 3.05716,-8.54141 0.13125,-0.71904 0.30574,-1.67151 0.38777,-2.11662 0.29177,-1.58328 0.61819,-6.07602 0.61644,-8.48466 l -0.002,-2.44608 -1.2055,-0.91692 c -1.11738,-0.84987 -1.94059,-1.32829 -5.64717,-3.28193 -0.76225,-0.40177 -1.42058,-0.76209 -1.46293,-0.80071 -0.0423,-0.0386 -0.49277,-0.31877 -1.00095,-0.62251 -0.98539,-0.589 -3.1479,-2.01894 -4.14792,-2.74281 -2.65843,-1.92429 -5.78459,-4.41923 -5.78459,-4.61661 0,-0.0832 -0.13858,-0.009 -0.30799,0.16538 -0.16938,0.17412 -0.30798,0.34877 -0.30798,0.38813 0,0.0394 -0.26175,0.42271 -0.58168,0.8519 -0.67564,0.90643 -0.87855,1.26238 -1.25811,2.207 -0.67615,1.68282 -0.70108,1.81405 -0.69854,3.67815 0.003,2.41161 0.22674,3.11421 1.79113,5.63168 0.66505,1.07021 1.20919,2.04978 1.20919,2.17681 0,0.12703 0.11108,0.36807 0.24689,0.53562 0.25998,0.32082 0.23103,1.188 -0.0956,2.86151 -0.63082,3.23273 -0.65085,3.56289 -0.68248,11.24913 -0.035,8.51451 -0.0482,8.63123 -1.1641,10.42398 -0.34408,0.55273 -1.05965,1.44919 -1.59012,1.99211 -1.23318,1.26213 -3.63489,4.2636 -4.18162,5.22586 -1.08511,1.90982 -2.041,5.03917 -2.56549,8.39874 -0.0908,0.58205 -0.21978,1.17036 -0.28646,1.30732 -0.0667,0.13696 -0.23872,0.6412 -0.38233,1.12056 -0.31663,1.05699 -0.95285,2.72664 -1.23353,3.23718 -0.27372,0.49783 -1.06896,2.1649 -2.22725,4.66901 -0.52265,1.1299 -1.04432,2.25047 -1.15927,2.49014 -0.44464,0.92715 -1.00193,2.18797 -1.00193,2.26677 0,0.0455 -0.0791,0.24038 -0.17584,0.43315 -0.19898,0.39659 -1.00654,2.2088 -2.026351,4.54723 -0.84221,1.93119 -1.145765,3.42843 -0.87801,4.33083 0.1018,0.34303 0.24555,0.62369 0.31948,0.62369 0.074,0 0.50012,0.13644 0.947101,0.30321 0.44697,0.16677 1.64422,0.53701 2.66059,0.82275 2.07209,0.58259 3.93917,1.28672 6.03503,2.27599 1.33314,0.62927 2.39862,0.97655 3.551,1.1574 0.39915,0.0626 0.50047,0.0376 0.50047,-0.12378 0,-0.28371 0.35944,-0.25185 0.70759,0.0628 0.72758,0.65734 2.06427,1.10127 2.06427,0.68555 z m 79.61908,-5.36308 c -0.2484,-0.37529 -1.02877,-0.67843 -1.85287,-0.71977 l -0.69297,-0.0348 v -0.31126 c 0,-0.26461 0.0807,-0.31765 0.53898,-0.3539 0.29644,-0.0235 0.8916,0.0205 1.32259,0.0978 0.64629,0.11582 0.92579,0.2617 1.59483,0.83242 0.55155,0.47048 0.86151,0.65133 0.96834,0.56496 0.10678,-0.0864 0.0428,-0.27941 -0.20003,-0.60304 -0.65873,-0.87805 -1.38333,-1.2853 -2.28684,-1.2853 -0.79803,0 -1.39889,-0.24508 -1.39889,-0.57057 v -0.29717 l 0.96245,0.0754 c 1.44838,0.1134 2.1876,0.41845 2.69291,1.11125 0.65114,0.89277 0.86144,1.07484 1.14116,0.98805 0.21634,-0.067 0.18421,-0.16159 -0.23233,-0.68313 -0.26587,-0.33289 -0.67186,-0.86227 -0.9022,-1.17645 -0.46588,-0.63537 -0.86089,-0.80752 -2.12207,-0.92487 -0.7118,-0.0663 -0.84695,-0.11855 -0.84695,-0.32782 0,-0.2029 0.12832,-0.26054 0.69296,-0.31127 l 0.69296,-0.0623 -0.5124,-0.17473 c -0.28182,-0.0961 -0.62475,-0.31337 -0.76206,-0.48282 l -0.24969,-0.30808 0.49503,-0.35761 c 0.60779,-0.43907 1.3776,-0.4731 2.1355,-0.0944 0.61538,0.3075 0.84201,0.22621 0.42014,-0.15069 -0.69614,-0.62194 -1.59252,-0.75221 -2.92646,-0.4253 -0.41579,0.1019 -1.17173,0.2177 -1.6799,0.25732 -1.03244,0.0805 -1.75144,-0.14507 -2.27729,-0.71453 -0.35104,-0.38016 -0.87825,-1.9593 -0.88323,-2.64553 -0.002,-0.27856 -0.0785,-0.73056 -0.16992,-1.00447 -0.10373,-0.31086 -0.21572,-3.51634 -0.29789,-8.52873 -0.0725,-4.41688 -0.17726,-8.42289 -0.23302,-8.90225 -0.0559,-0.47935 -0.0234,-1.57189 0.0718,-2.42788 0.16311,-1.46608 0.31425,-3.20392 0.63346,-7.28366 0.26877,-3.43513 0.60838,-5.81362 1.11998,-7.84393 0.10349,-0.41087 0.18823,-1.67151 0.18823,-2.8014 v -2.05436 l -0.42348,-0.69681 c -0.47855,-0.7874 -0.56423,-1.48207 -0.18283,-1.48207 0.36509,0 1.12666,1.47786 1.26617,2.45704 l 0.12002,0.8424 1.62087,-1.30733 c 2.45396,-1.97926 3.32491,-3.30749 3.4698,-5.29154 0.0451,-0.61631 0.15402,-1.24136 0.24227,-1.38899 0.20606,-0.34479 -0.18955,-1.22543 -0.78883,-1.75593 -0.51557,-0.45637 -1.43879,-0.93759 -2.1722,-1.13219 -0.29919,-0.0794 -0.66233,-0.25607 -0.80694,-0.39263 -0.14461,-0.13657 -0.4146,-0.24828 -0.59999,-0.24828 -0.18538,0 -0.54987,-0.0523 -0.80996,-0.11647 -0.44418,-0.1094 -1.31701,-0.21261 -5.86266,-0.69322 -7.11935,-0.75273 -10.67649,-2.04719 -14.87273,-5.41227 -1.44379,-1.1578 -2.36516,-2.09954 -3.91505,-4.00158 -3.00428,-3.68685 -5.48799,-6.05296 -7.78953,-7.42073 -1.84399,-1.09584 -4.18607,-1.95533 -6.45407,-2.36847 -1.42636,-0.25982 -5.21511,-0.28954 -6.4677,-0.0507 -1.36894,0.261 -3.7583,0.90047 -3.94775,1.05654 -0.0963,0.0792 -0.45421,1.01256 -0.79555,2.07398 -0.34133,1.06143 -0.72401,2.22377 -0.8504,2.583 l -0.22979,0.65315 0.96962,0.68828 c 1.35424,0.96131 2.98429,1.80289 3.49197,1.80289 0.2329,0 0.58264,0.0523 0.77719,0.11608 0.19455,0.0639 0.76952,0.21281 1.27768,0.33104 2.56026,0.59566 4.61351,1.78607 5.40047,3.13107 0.51164,0.87443 0.58324,1.96665 0.14589,2.22523 -0.4939,0.29199 -0.81686,0.19922 -1.7683,-0.50798 -0.83794,-0.62285 -1.95019,-1.14976 -2.12636,-1.00734 -0.0395,0.032 0.16067,0.29885 0.44493,0.59305 0.609,0.6303 0.44505,0.49791 2.35281,1.90005 1.97348,1.45045 2.28107,1.82439 2.21941,2.69804 l -0.0473,0.66807 -0.42348,0.0394 c -0.37427,0.0349 -0.42349,0.0913 -0.42349,0.48628 0,0.28187 -0.13869,0.59389 -0.37561,0.84505 l -0.37562,0.39816 1.01643,1.04542 c 2.6271,2.70198 5.18474,4.75547 7.58843,6.09263 0.29644,0.1649 0.60827,0.3431 0.69297,0.396 0.0847,0.0529 1.00887,0.5936 2.05371,1.20157 2.21701,1.29003 3.93998,2.50415 4.25696,2.99976 0.12313,0.19252 0.47077,0.94672 0.77256,1.67598 0.7536,1.82116 1.2042,2.57586 1.8841,3.15564 0.72626,0.61932 1.24178,0.8511 1.4745,0.66295 0.30606,-0.24747 1.06998,-0.14158 1.83237,0.25397 l 0.75174,0.39001 0.80693,-0.0767 c 0.9139,-0.0869 2.4128,-0.46083 3.60285,-0.89893 l 0.80452,-0.29618 0.0425,-1.96412 c 0.0266,-1.22939 0.1,-1.95291 0.19642,-1.93412 0.0847,0.0165 0.16948,0.40869 0.1884,0.87154 0.0995,2.43408 0.46719,6.23808 0.88159,9.12125 0.50061,3.48302 0.67848,5.65348 0.77037,9.40027 0.0856,3.49064 0.32171,6.13093 0.70141,7.84394 0.0758,0.3424 0.2487,1.1548 0.38402,1.80535 0.48034,2.30936 1.11158,4.77443 1.99271,7.78169 0.20063,0.68479 0.44072,1.52521 0.53355,1.86759 0.21921,0.80868 0.47367,3.21252 0.47534,4.49051 l 8.1e-4,1.0043 0.96245,0.38705 c 1.00473,0.40404 1.75068,0.61367 3.61922,1.01714 0.61426,0.13263 1.8616,0.56759 2.77187,0.96657 2.10714,0.92358 2.56036,1.06391 2.63266,0.81516 0.0295,-0.1016 -0.0271,-0.3067 -0.12572,-0.45577 z m 3.0749,-2.12723 c 0,-0.10443 -0.24279,-0.57964 -0.53952,-1.05604 -0.58881,-0.94537 -0.84102,-1.07095 -1.77038,-0.88154 -0.36603,0.0746 -0.42952,0.11394 -0.19785,0.1226 0.52098,0.0195 1.35295,0.68664 1.72262,1.38142 0.31324,0.58874 0.78513,0.84933 0.78513,0.43356 z m -2.46389,-2.65927 c 0,-0.14827 -0.5954,-0.26667 -0.69377,-0.13797 -0.0429,0.0563 0.009,0.13056 0.11534,0.16525 0.31549,0.10283 0.57843,0.0905 0.57843,-0.0273 z m -2.88541,-1.77485 c 0.61298,-0.14644 1.41154,-0.29232 1.77458,-0.32417 0.46834,-0.041 0.61957,-0.0994 0.52063,-0.20064 -0.22841,-0.2338 -0.769,-1.78438 -1.17833,-3.37992 -0.31861,-1.24191 -1.77303,-5.20195 -2.24069,-6.10084 -0.18913,-0.36352 -1.0367,-2.79513 -1.45386,-4.17099 -0.58999,-1.94585 -1.04595,-3.3182 -1.15492,-3.47603 -0.24671,-0.35731 -0.34392,4.93345 -0.16107,8.76759 0.29436,6.1726 0.61385,8.17882 1.36812,8.59097 0.45243,0.24722 1.17392,0.56028 1.2912,0.56028 0.0659,0 0.62138,-0.11981 1.23434,-0.26625 z m -71.98698,-1.04603 c 0.0769,-0.4344 -0.60236,-1.09134 -1.35813,-1.31347 -0.52944,-0.15559 -0.75997,-0.31452 -0.99673,-0.68706 -0.16938,-0.26656 -0.90827,-1.27147 -1.64196,-2.23314 -0.73369,-0.96167 -1.48876,-2.0262 -1.67795,-2.36563 -0.18917,-0.33943 -0.41766,-0.74748 -0.50774,-0.90677 -0.27026,-0.47798 -0.21299,-2.01385 0.0944,-2.53244 0.18636,-0.31437 0.85743,-0.82594 2.15589,-1.6435 1.03693,-0.65289 2.05908,-1.31592 2.27144,-1.47342 0.21236,-0.15749 1.11322,-0.79051 2.0019,-1.40668 0.8887,-0.61618 1.65074,-1.14843 1.69345,-1.18282 0.29007,-0.23344 2.31301,-1.72188 3.46652,-2.55058 1.43595,-1.03162 6.22724,-4.85802 7.17409,-5.72936 1.44736,-1.33191 3.21807,-3.49798 3.21807,-3.93657 0,-0.19518 0.42854,-0.72625 1.19682,-1.48318 2.04086,-2.01068 4.49455,-4.81456 6.04383,-6.90644 0.20287,-0.27392 0.42378,-0.5167 0.4909,-0.53952 0.0671,-0.0228 0.12206,-0.0939 0.12206,-0.15811 0,-0.0642 0.16276,-0.3256 0.36169,-0.58104 0.683,-0.87701 2.80849,-4.18975 3.53332,-5.50695 0.13189,-0.23967 0.42688,-0.77194 0.65552,-1.18281 0.7913,-1.42197 2.84111,-5.96709 2.84111,-6.2997 0,-0.0425 -0.24187,-0.32338 -0.53749,-0.62405 -0.2956,-0.30066 -0.53814,-0.6134 -0.53896,-0.69496 -5.9e-4,-0.0816 -0.0583,-0.17665 -0.12763,-0.21131 -0.0694,-0.0347 -0.0967,0.0988 -0.0609,0.29652 0.0814,0.44862 -0.53445,0.99688 -1.11978,0.99688 -0.24279,0 -0.42989,0.0846 -0.48203,0.21789 -0.60999,1.55958 -1.36545,2.71707 -3.9582,6.06445 -0.84642,1.09277 -2.05878,2.82964 -2.69415,3.85971 -1.72915,2.80334 -3.25809,4.71707 -6.57141,8.22514 -0.7774,0.82309 -1.46486,1.66352 -1.52771,1.86761 -0.16817,0.54603 -1.19367,2.2744 -1.81225,3.05427 -1.29823,1.63676 -3.36797,3.45325 -7.53263,6.61088 -1.87306,1.42018 -5.50301,3.98555 -7.17221,5.0688 -0.49307,0.31999 -0.84669,0.75287 -1.52507,1.86685 -0.95432,1.56713 -2.51524,4.19677 -3.26282,5.49675 -0.88111,1.53217 -2.97383,5.04314 -3.21818,5.39915 -0.27235,0.3968 -0.17327,0.51172 0.56339,0.65344 0.69831,0.13435 3.45879,0.80525 3.77283,0.91696 0.16939,0.0602 0.74677,0.22712 1.28306,0.37082 0.53631,0.1437 1.4025,0.43706 1.9249,0.65193 1.97568,0.81257 3.37095,1.02697 3.45868,0.53146 z m 87.46202,-1.33348 c -0.0757,-0.18572 -1.30672,-0.96495 -1.52446,-0.96495 -0.0838,0 0.10317,0.25213 0.41551,0.5603 0.52146,0.5145 1.26415,0.78551 1.10895,0.40465 z m -73.72466,-0.63196 c 0,-0.46352 -0.44765,-0.87619 -1.08106,-0.99662 -0.21346,-0.0405 -0.7332,-0.25399 -1.15495,-0.47423 -0.95217,-0.49721 -5.69188,-4.35913 -6.46764,-5.26981 l -0.57165,-0.67108 1.1e-4,-1.72104 c 1.3e-4,-1.85834 0.18776,-2.69793 1.12198,-5.02046 0.78823,-1.95959 0.76466,-1.8817 0.53748,-1.77581 -0.112,0.0522 -0.61578,0.40311 -1.1194,0.77975 -0.50363,0.37663 -1.22161,0.90512 -1.59551,1.17441 -0.3739,0.26928 -1.02782,0.74551 -1.45314,1.0583 -1.00471,0.73885 -2.75423,1.96889 -3.2382,2.27668 -0.2091,0.13299 -0.34013,0.29425 -0.29114,0.35834 0.10724,0.1402 -0.34363,2.77756 -0.62937,3.6819 -0.11176,0.35389 -0.48574,1.26409 -0.83098,2.02264 -0.34522,0.75855 -0.62767,1.43687 -0.62767,1.50737 0,0.0705 0.1581,0.17679 0.35134,0.2362 0.19323,0.0594 0.66098,0.22376 1.03944,0.36525 1.21556,0.45444 2.99587,0.8452 5.46188,1.19885 1.28754,0.18465 2.5407,0.43387 3.46483,0.6891 1.40603,0.38831 2.52906,0.55379 5.85171,0.86222 0.55052,0.0511 1.05292,0.10174 1.11645,0.1125 0.0635,0.0109 0.11549,-0.16674 0.11549,-0.39446 z m -31.77377,-3.88142 c 0.46467,-1.02718 0.91923,-2.0357 1.01016,-2.24113 0.0909,-0.20543 0.25166,-0.5416 0.35719,-0.74705 0.10554,-0.20542 0.51537,-1.01784 0.91072,-1.80533 0.39535,-0.78752 0.7819,-1.54389 0.859,-1.68085 0.17308,-0.30743 0.99535,-2.36515 1.13188,-2.83253 0.0749,-0.25607 0.0423,-0.3424 -0.12854,-0.3424 -0.38939,0 -2.20188,1.35968 -3.31913,2.48994 -2.76848,2.80068 -3.63246,3.47054 -5.621071,4.35809 -1.300523,0.58044 -1.373283,0.68581 -1.380875,1.99963 l -0.0048,0.81696 0.919456,0.86387 c 0.505684,0.47515 1.233299,1.14759 1.616919,1.49436 0.811911,0.7339 1.053131,0.97955 1.449581,1.47615 l 0.29012,0.36343 0.53223,-1.17276 c 0.29274,-0.64503 0.91241,-2.0132 1.37709,-3.04038 z m 103.68828,3.36168 c 0,-0.0342 -0.0346,-0.0622 -0.077,-0.0622 -0.0423,0 -0.077,0.028 -0.077,0.0622 0,0.0343 0.0346,0.0623 0.077,0.0623 0.0423,0 0.077,-0.0281 0.077,-0.0623 z m -2.36122,-1.63934 c -0.0565,-0.0457 -0.14886,-0.0457 -0.20532,0 -0.0565,0.0456 -0.0102,0.083 0.10271,0.083 0.11289,0 0.15911,-0.0374 0.1027,-0.083 z m -87.04019,-2.15812 c 0.1467,-0.37663 0.3576,-0.85288 0.46864,-1.05831 0.21964,-0.40637 0.57722,-1.31498 0.84326,-2.1428 0.0926,-0.28831 0.2126,-0.98866 0.26652,-1.55633 l 0.0981,-1.03213 -0.52586,0.34331 c -0.28924,0.18883 -1.09733,0.69158 -1.79579,1.11725 -1.41848,0.86446 -1.52844,1.04854 -1.38585,2.31986 0.10258,0.91427 1.36786,3.05605 1.65209,2.79644 0.0618,-0.0563 0.23224,-0.41065 0.37895,-0.78729 z m 2.02807,-11.26788 c 0.0949,-0.0685 0.3724,-0.25981 0.61657,-0.42519 1.60994,-1.09041 3.06279,-2.15263 5.90098,-4.31437 0.72526,-0.5524 1.69328,-1.28076 2.15115,-1.61859 1.14991,-0.84842 3.37912,-2.96269 4.28044,-4.05977 0.93309,-1.13571 1.73974,-2.48497 1.73974,-2.91 0,-0.26052 0.53045,-1.00414 0.92849,-1.30163 0.0459,-0.0343 0.69789,-0.731 1.44906,-1.54834 2.68321,-2.9196 4.94375,-5.84509 6.27531,-8.12118 0.63693,-1.08875 1.78224,-2.79015 1.95599,-2.90568 0.0515,-0.0343 0.17573,-0.17431 0.27609,-0.31126 0.10032,-0.13696 0.7641,-1.00541 1.47497,-1.92987 1.26775,-1.64866 2.26937,-3.20397 2.26937,-3.52387 0,-0.0888 0.0832,-0.22876 0.18479,-0.31094 0.14372,-0.11621 0.12661,-0.14941 -0.077,-0.14941 -0.1482,0 -0.26178,0.096 -0.26178,0.22132 0,0.35029 -0.44773,0.77474 -0.81726,0.77474 -0.44569,0 -4.20564,-2.53754 -5.04038,-3.40168 -0.35018,-0.36252 -1.05323,-1.30023 -1.56233,-2.08379 -0.50909,-0.78357 -1.19606,-1.70999 -1.5266,-2.0587 -0.33054,-0.34873 -0.60096,-0.72555 -0.60096,-0.8374 0,-0.11187 -0.13833,-0.38683 -0.30743,-0.61105 l -0.3074,-0.40765 -3.6e-4,1.68084 c -1.9e-4,0.92447 -0.0708,2.4092 -0.15704,3.29943 -0.47544,4.91117 -0.6495,6.35737 -0.90659,7.53267 -0.74349,3.39882 -0.96289,4.21249 -1.66192,6.1631 -0.38488,1.07398 -1.36706,2.75103 -3.05915,5.22338 -0.65392,0.95547 -1.37562,2.10404 -1.60377,2.5524 -0.40072,0.78747 -0.52656,1.10273 -1.24483,3.11857 -0.18299,0.51359 -0.62896,1.43953 -0.99105,2.05765 -0.56721,0.96829 -0.80465,1.22524 -1.71558,1.85646 -1.75847,1.21854 -3.58595,2.79584 -4.91378,4.24108 -1.23064,1.33947 -3.45813,4.20694 -3.45813,4.45169 0,0.11176 0.24184,-0.004 0.71039,-0.34296 z m 84.5672,-14.44985 c 0.18825,-0.10661 0.34226,-0.25318 0.34226,-0.32573 0,-0.0725 0.42241,-0.51714 0.9387,-0.98798 l 0.93871,-0.85607 -0.39979,-0.38413 c -0.51898,-0.4987 -0.62488,-0.87153 -0.40237,-1.41664 0.26697,-0.65408 0.46453,-0.53806 0.46572,0.27353 l 8.1e-4,0.71591 0.50894,0.28014 c 0.51032,0.28088 1.10361,0.35671 1.43946,0.18395 0.38067,-0.1958 -0.31662,-1.96925 -0.93829,-2.38639 -0.29432,-0.1975 -0.3143,-0.38108 -0.0415,-0.38108 0.57342,0 1.80112,1.61339 1.80112,2.36697 0,0.34169 0.18078,0.3153 1.40573,-0.20515 0.94971,-0.40349 2.59807,-1.61173 2.59807,-1.90438 0,-0.0529 0.31185,-0.47988 0.69297,-0.94906 0.91258,-1.12338 0.90211,-1.24621 -0.11549,-1.35419 -0.44465,-0.0472 -1.38696,-0.30653 -2.09401,-0.57633 -0.70704,-0.26979 -1.32025,-0.49053 -1.36266,-0.49053 -0.0424,0 -0.29547,-0.0772 -0.56237,-0.1716 -2.55986,-0.90522 -6.16491,-1.22116 -8.56001,-0.75021 -3.23438,0.63601 -5.90691,2.52401 -7.41193,5.23613 -0.24834,0.44752 -0.45153,0.96867 -0.45153,1.1581 0,0.55847 0.90353,1.83914 1.4974,2.12244 0.5462,0.26057 1.94962,0.34934 2.11441,0.13375 0.0541,-0.0708 0.28033,-0.0708 0.58555,0 0.70602,0.1637 0.69901,0.16668 0.90258,-0.38271 0.20276,-0.54717 0.30455,-0.59694 0.61075,-0.29863 0.11256,0.10966 0.56736,0.38698 1.01064,0.61625 l 0.80598,0.41685 0.62385,-0.27386 c 0.41617,-0.18267 0.62429,-0.35919 0.62514,-0.53018 5.9e-4,-0.141 0.088,-0.34758 0.19376,-0.45907 0.23056,-0.24282 1.18457,-0.394 1.48266,-0.23496 0.33396,0.17818 0.0514,0.39009 -0.5202,0.39009 -0.89705,0 -0.89362,0.46882 0.006,0.73165 0.57617,0.16845 0.76929,0.63626 0.26413,0.63983 -0.2303,8.7e-4 -0.23589,0.0194 -0.0385,0.1226 0.3321,0.17352 0.65247,0.15225 1.04368,-0.0692 z m -5.28072,-0.0523 c 0.051,-0.0669 -0.008,-0.27696 -0.13167,-0.4669 l -0.22457,-0.34534 -0.10475,0.33531 c -0.14718,0.47124 0.19484,0.8251 0.46099,0.47693 z m 1.08653,-0.11917 c -0.0559,-0.0731 -0.1752,-0.1328 -0.26526,-0.1328 -0.10214,0 -0.0905,0.0714 0.031,0.18977 0.2112,0.20577 0.39997,0.15984 0.23423,-0.057 z m -51.98214,-18.90221 -0.003,-0.4669 -0.85194,-0.49354 c -1.0437,-0.60463 -2.63496,-1.8742 -2.93509,-2.34177 -0.13682,-0.21312 -0.17148,-0.41756 -0.0906,-0.5344 0.10384,-0.15002 0.30285,-0.0295 0.96026,0.58164 0.81078,0.7537 3.10471,2.22716 4.13405,2.65545 0.6626,0.2757 1.25386,0.17376 1.25386,-0.21617 0,-0.41692 -1.40273,-1.4538 -3.33518,-2.46535 -0.91676,-0.47988 -1.72316,-0.95392 -1.79203,-1.0534 -0.14075,-0.20335 -0.0209,-0.42795 0.22828,-0.42795 0.20376,0 3.22654,1.52137 4.0106,2.01854 0.6914,0.4384 1.89804,0.96963 2.20247,0.96963 0.12095,0 0.26451,-0.14373 0.31904,-0.31938 0.0766,-0.24702 -8.1e-4,-0.40507 -0.34355,-0.69777 -0.57076,-0.48792 -1.96525,-1.33935 -2.75257,-1.68067 -2.19037,-0.94956 -2.30989,-1.01741 -2.35862,-1.33863 -0.0291,-0.19174 0.0272,-0.32129 0.13963,-0.32129 0.22261,0 3.25522,1.3415 4.41187,1.95164 0.86477,0.45617 1.87818,0.83689 1.98907,0.74724 0.33495,-0.27083 -0.75537,-1.31911 -2.71901,-2.61414 -0.46584,-0.30722 -1.19346,-0.93109 -1.61693,-1.38637 -0.42347,-0.45528 -0.92588,-0.98707 -1.11644,-1.18176 -0.39837,-0.40696 -0.42597,-0.54546 -0.14618,-0.73321 0.14488,-0.0972 0.4538,-0.0812 1.11644,0.0577 0.898,0.18839 1.65744,0.55565 2.33322,1.12831 0.43968,0.37261 0.71353,0.3633 0.97593,-0.0331 l 0.21218,-0.32054 -0.36166,-0.55118 c -0.67579,-1.02996 -2.23241,-1.93087 -4.24544,-2.45707 -1.82649,-0.47745 -2.3078,-0.58391 -2.63982,-0.58391 -0.40906,0 -1.55754,-0.49105 -2.44193,-1.04405 -1.66543,-1.04141 -2.9566,-2.10234 -5.77624,-4.74627 -2.26752,-2.12619 -2.73062,-2.58922 -4.85591,-4.85502 -1.09196,-1.16414 -2.56575,-2.69401 -3.27508,-3.39972 l -1.2897,-1.28311 -0.0512,-1.39379 c -0.0282,-0.76658 -0.0923,-2.71046 -0.14263,-4.3197 -0.0503,-1.60926 -0.15975,-3.65428 -0.24326,-4.54451 -0.0836,-0.89022 -0.22165,-2.431 -0.30696,-3.42394 -0.27349,-3.18349 -0.63238,-6.03169 -1.16099,-9.2135 -0.43588,-2.62365 -0.44292,-2.73916 -0.16714,-2.73916 0.24808,0 0.33471,0.18797 0.45903,0.99605 0.24985,1.62392 0.43815,2.78626 0.56481,3.48619 0.13502,0.74615 0.3624,2.58792 0.76859,6.22536 0.22083,1.97753 0.45404,5.6593 0.66719,10.53367 l 0.18024,4.12155 0.70251,0.67197 c 0.38637,0.36955 1.59372,1.62443 2.68298,2.78856 1.79852,1.92214 3.57174,3.7628 3.77825,3.92197 0.0444,0.0343 0.42572,0.39722 0.84731,0.80663 0.42159,0.4094 0.94813,0.91366 1.17007,1.12057 1.95265,1.82026 2.64749,2.43053 2.76735,2.43053 0.077,0 0.13995,-0.16611 0.13995,-0.36916 0,-0.20305 0.0983,-0.60924 0.21833,-0.90268 0.9423,-2.30269 1.93791,-5.92933 2.54229,-9.26077 0.71539,-3.94331 0.71388,-10.40491 -0.003,-13.99524 -0.62471,-3.12758 -0.70685,-3.47247 -1.36427,-5.72732 -0.76025,-2.6076 -0.931,-3.43232 -0.93334,-4.50812 -0.002,-1.13886 -0.19087,-1.70534 -1.00835,-3.03181 -0.42763,-0.69391 -2.39747,-2.98647 -2.82874,-3.29217 -0.0484,-0.0343 -0.51062,-0.45446 -1.02736,-0.93381 -2.2877,-2.12213 -2.51655,-3.15366 -1.11224,-5.01359 0.61881,-0.81959 0.6822,-1.01564 0.44266,-1.36907 -0.37842,-0.55833 -0.63543,-1.16203 -0.85086,-1.99856 -0.29153,-1.1321 -0.29732,-1.51708 -0.0229,-1.51708 0.2137,0 0.4,0.503 0.40925,1.10501 0.005,0.29725 0.28465,1.02493 0.735,1.90962 0.36452,0.7161 1.08844,1.45544 2.72371,2.78184 l 1.69702,1.37646 1.23094,0.42218 c 1.05167,0.36071 1.41035,0.42247 2.46288,0.42413 2.09396,0.003 2.36666,-0.14867 2.5487,-1.42037 0.0539,-0.37663 0.14741,-0.77547 0.20779,-0.88628 0.0811,-0.14898 -0.0718,-0.29875 -0.58698,-0.57463 -0.74041,-0.39653 -0.74168,-0.46231 -0.0136,-0.71089 0.2541,-0.0868 0.77382,-0.36862 1.15496,-0.62638 l 0.69296,-0.46866 0.0771,-0.63883 c 0.068,-0.56439 0.0331,-0.66961 -0.30057,-0.90302 -0.41659,-0.29152 -0.50228,-1.02232 -0.15907,-1.35667 0.29888,-0.29118 0.46817,-0.0847 0.36371,0.44349 -0.13108,0.6627 0.24159,0.78942 0.8761,0.29792 0.35155,-0.27233 0.49521,-0.31804 0.63758,-0.20294 0.44369,0.35875 0.83823,0.004 0.58784,-0.52834 -0.0779,-0.16569 -0.38803,-0.50637 -0.68916,-0.75708 -0.30113,-0.25071 -0.58908,-0.58977 -0.63989,-0.75348 -0.0755,-0.24332 -0.14387,-0.27536 -0.37435,-0.17563 -0.61737,0.26714 -2.1501,-0.0581 -2.1501,-0.45625 0,-0.16658 0.0998,-0.18496 0.57747,-0.10639 1.1072,0.18208 1.45949,0.12308 1.91833,-0.32128 0.53938,-0.52238 0.55241,-0.83212 0.0394,-0.93621 -0.58583,-0.11888 -1.24058,0.0277 -1.99275,0.44611 -1.19108,0.66257 -1.392,0.42343 -0.29825,-0.35498 0.72317,-0.51469 1.2877,-0.64836 2.52765,-0.59855 l 0.53899,0.0216 -0.0388,-0.80929 c -0.0417,-0.8686 -0.25251,-1.69691 -0.58872,-2.31355 -0.29927,-0.54888 -1.58565,-0.84725 -3.68756,-0.85532 l -1.57653,-0.007 -0.92367,0.74704 c -0.88351,0.71457 -1.24257,0.89366 -3.62946,1.81037 -0.77786,0.29874 -1.14833,0.52805 -1.42443,0.88168 -0.20524,0.26286 -0.37315,0.51012 -0.37315,0.54949 0,0.0393 -0.14003,0.32008 -0.31116,0.62383 -0.39117,0.69421 -0.8224,0.92424 -1.82361,0.97266 l -0.79109,0.0383 v -0.4149 c 0,-0.2282 -0.0613,-0.41491 -0.13603,-0.41491 -0.0749,0 -0.17227,-0.11205 -0.21658,-0.249 -0.17206,-0.53201 -1.03332,-0.0481 -1.03332,0.58062 0,0.32123 -0.23976,0.48864 -0.37318,0.26056 -0.0503,-0.086 -0.0601,0.13346 -0.0219,0.48775 0.0987,0.91236 0.36819,1.20164 1.35745,1.45727 0.31532,0.0815 0.36288,0.55431 0.0651,0.64671 -0.11244,0.0349 -0.3998,0.003 -0.63857,-0.0701 -0.36719,-0.11288 -0.47907,-0.0944 -0.72552,0.11943 -0.16026,0.13908 -0.37531,0.2584 -0.47787,0.26516 -0.10259,0.007 -0.77551,0.0259 -1.49544,0.0427 -0.71991,0.0167 -1.79853,0.074 -2.39694,0.12732 -0.88232,0.0786 -1.18159,0.0578 -1.58295,-0.10999 -0.56466,-0.23609 -0.79388,-0.17515 -0.79388,0.21108 0,0.61101 -1.09795,2.63022 -2.08094,3.82703 -0.91087,1.10898 -2.36147,2.28792 -4.09128,3.32512 -2.29021,1.37321 -3.11492,2.09553 -4.05054,3.54769 -0.9161,1.42185 -1.36541,3.05342 -1.347,4.89146 0.0125,1.24548 0.16193,1.95516 1.11441,5.29154 1.00822,3.5316 1.87373,8.58286 2.144,12.51295 0.15278,2.22147 0.37547,3.98088 0.59884,4.73126 0.0815,0.27392 0.26097,1.14235 0.39875,1.92986 0.28287,1.617 0.60834,2.88255 0.97658,3.79746 0.20866,0.51842 0.57284,0.88344 2.17744,2.18253 3.86699,3.13073 7.71013,5.68352 11.77065,7.8186 2.1678,1.13987 4.20808,2.38286 4.96603,3.02542 0.84268,0.71439 1.74437,1.83936 1.74437,2.17633 0,0.14725 0.11542,0.34463 0.25649,0.43861 0.37009,0.24656 1.10275,1.21311 2.13843,2.82108 0.75517,1.1724 1.09725,1.55391 2.06544,2.30338 1.10632,0.85642 2.29642,1.68189 2.99399,2.0767 0.17724,0.10033 0.45661,0.28242 0.6208,0.40466 0.16418,0.12223 0.3201,0.22223 0.34649,0.22223 0.0262,0 0.0464,-0.2101 0.0446,-0.4669 z m -0.94908,-62.87599 c -0.0336,-0.14349 -0.2215,-0.2312 -0.55027,-0.25689 -0.54115,-0.0423 -0.66201,0.13673 -0.22973,0.34031 0.43763,0.20608 0.83779,0.16328 0.78,-0.0834 z m 0.0205,-0.77471 c 0.15385,-0.0666 0.32203,-0.21017 0.37374,-0.3191 0.0725,-0.15253 -0.0119,-0.13707 -0.36686,0.0673 -0.61562,0.35442 -0.62006,0.51716 -0.006,0.25182 z m -16.90671,-4.16779 c 0.81809,-0.003 1.53535,-0.045 1.59393,-0.0918 0.0585,-0.0469 -0.039,-0.42524 -0.21697,-0.84092 -0.38726,-0.90475 -0.41795,-1.988 -0.0729,-2.57581 0.7399,-1.26065 2.49984,-1.21693 2.76241,0.0687 0.13893,0.68013 0.18884,0.75637 0.49526,0.75637 0.40899,0 1.0173,-0.57568 1.47508,-1.39593 0.51473,-0.9223 1.11775,-1.37456 2.29811,-1.72359 1.6961,-0.50151 2.16732,-0.74709 3.3826,-1.763 l 1.19344,-0.99764 v -0.80009 c 0,-1.12256 -0.37992,-1.68776 -1.69391,-2.51997 l -0.38498,-0.24382 0.26983,-0.0849 c 0.65099,-0.2049 1.67326,0.31371 2.05565,1.04286 0.36705,0.69991 0.55547,1.83564 0.38658,2.33018 l -0.14636,0.42859 h 0.75442 c 0.92273,0 3.14977,0.34602 3.71774,0.57763 l 0.41619,0.16972 0.16043,-0.46706 c 0.21355,-0.62175 0.20471,-1.69283 -0.019,-2.29645 -0.0997,-0.26879 -0.44855,-0.73438 -0.77545,-1.03464 -0.79748,-0.73252 -1.9158,-1.15671 -3.32376,-1.26074 -0.93444,-0.069 -1.15466,-0.1286 -1.30893,-0.35403 -0.24076,-0.35177 -1.28983,-1.10023 -1.87942,-1.34088 -1.50595,-0.61465 -5.85602,-0.85462 -7.69961,-0.42474 -0.50817,0.11848 -1.06255,0.26624 -1.23193,0.32835 -0.52026,0.19074 -1.66548,0.57642 -2.2329,0.75197 -0.82124,0.2541 -2.01521,0.90794 -2.63845,1.44488 -1.70742,1.47099 -2.33344,3.35749 -1.99399,6.00871 0.10181,0.79515 0.2937,1.89 0.42642,2.433 0.26414,1.08069 0.19967,2.269 -0.16933,3.12113 -0.11854,0.27374 -0.18028,0.5438 -0.13721,0.60014 0.18877,0.24696 0.81618,0.32897 1.89468,0.24762 0.63522,-0.0478 1.82428,-0.0901 2.64236,-0.0937 z m -3.10433,-5.86574 c 0,-0.0383 -0.0746,-0.45853 -0.16587,-0.93395 -0.18551,-0.96667 -0.10554,-1.28384 0.64393,-2.55526 0.46596,-0.79042 1.91205,-2.04408 2.35786,-2.04408 0.43163,0 0.26317,0.25314 -0.58603,0.88065 -0.45647,0.33732 -0.97139,0.85658 -1.14426,1.15392 -0.3458,0.59479 -0.71564,2.44782 -0.57743,2.89307 0.11108,0.35789 -0.0364,0.67517 -0.31368,0.67517 -0.11798,0 -0.21452,-0.0313 -0.21452,-0.0696 z m 79.39962,114.66794 c -0.0514,-0.10832 -0.0934,-0.29282 -0.0934,-0.41 0,-0.11717 -0.68021,-1.30319 -1.51156,-2.63558 -1.33105,-2.13323 -1.98675,-3.4496 -2.47808,-4.97493 l -0.14037,-0.43577 -0.0138,0.34061 c -0.0287,0.70402 -0.78125,2.86344 -1.29147,3.70586 -0.41785,0.68992 -0.81311,0.75344 -0.77471,0.12451 0.0146,-0.23967 0.0758,-0.73316 0.13595,-1.09663 0.10293,-0.62223 -0.14823,-1.80435 -0.54737,-2.57633 -0.0709,-0.13695 -0.32505,-0.69723 -0.56495,-1.24506 l -0.43618,-0.99606 v -2.38487 c 0,-1.31168 -0.052,-2.3589 -0.1155,-2.32715 -0.0635,0.0317 -0.11549,0.18694 -0.11549,0.3449 0,0.42035 -0.98834,1.94775 -1.5337,2.3702 -0.36967,0.28635 -0.51035,0.3318 -0.65785,0.21255 -0.1475,-0.11926 -0.14728,-0.20393 8e-4,-0.39592 0.22683,-0.29366 0.26127,-3.06512 0.0438,-3.52751 -0.23471,-0.49908 -0.39505,-2.50101 -0.19222,-2.39965 0.0941,0.047 0.21205,0.29363 0.26213,0.54803 0.0501,0.25439 0.22629,1.05081 0.39166,1.76985 0.16536,0.71902 0.30058,1.64349 0.3005,2.05436 l -1.5e-4,0.74703 0.27632,-0.37352 c 0.41364,-0.55915 0.77059,-1.41768 0.88001,-2.1166 0.14676,-0.93754 0.20828,-1.04236 0.45362,-0.77299 0.17763,0.19505 0.20043,0.14812 0.18148,-0.37352 -0.0119,-0.32812 0.0477,-0.61087 0.13233,-0.62831 0.0975,-0.0202 0.18851,1.05314 0.2481,2.9259 0.0922,2.89763 0.2169,3.76944 0.83266,5.8213 0.14384,0.47935 0.38747,1.31978 0.54138,1.86761 0.15391,0.54783 0.28992,1.02406 0.30224,1.05831 0.0558,0.15512 0.59873,-1.65584 0.76523,-2.55249 0.10168,-0.54789 0.23115,-2.61636 0.2876,-4.59659 0.0791,-2.77511 0.14827,-3.61269 0.30172,-3.65388 0.15992,-0.043 0.19528,0.62885 0.17971,3.41377 -0.0156,2.80701 0.0298,3.65687 0.23827,4.46327 0.50607,1.95645 1.25168,3.47808 2.94098,6.00192 0.23859,0.35646 0.44547,0.6366 0.45972,0.62253 0.0143,-0.0141 -0.0366,-0.66105 -0.11267,-1.43772 -0.18707,-1.90557 -0.10871,-6.27235 0.11366,-6.33215 0.1189,-0.032 0.19573,1.12566 0.25957,3.91169 0.0699,3.04773 0.14988,4.16448 0.34822,4.85947 0.24998,0.87592 0.2304,1.2765 -0.0624,1.2765 -0.0783,0 -0.18442,-0.0887 -0.23583,-0.19694 z m 3.65871,-2.88461 c -0.0569,-0.18831 -0.45808,-0.93067 -0.89145,-1.6497 -0.4334,-0.71902 -1.01944,-1.81158 -1.30233,-2.42789 -0.28288,-0.61631 -0.57173,-1.23262 -0.64187,-1.36958 -0.34982,-0.68305 -0.84963,-2.48888 -1.15441,-4.17099 -0.24267,-1.33919 -0.29336,-4.57442 -0.076,-4.85226 0.12621,-0.16136 0.15205,-0.16136 0.21613,0 0.0399,0.10079 0.11075,1.21978 0.15717,2.48664 0.0464,1.26686 0.15058,2.49948 0.23143,2.73915 0.0808,0.23969 0.26242,0.88399 0.40345,1.43183 0.14103,0.54783 0.42757,1.41627 0.63676,1.92985 0.3687,0.90525 1.58793,3.3617 1.66853,3.3617 0.022,0 0.006,-0.88244 -0.037,-1.96099 -0.0897,-2.28817 0.2148,-4.6123 0.75129,-5.73434 0.1821,-0.38082 0.49752,-0.21163 0.38879,0.20853 -0.0467,0.18021 -0.22403,0.91594 -0.39422,1.63498 -0.55042,2.32558 -0.37501,5.80578 0.38773,7.69265 0.11863,0.29342 0.21567,0.6436 0.21567,0.77817 0,0.37008 -0.4415,0.29299 -0.5596,-0.0978 z m 4.17286,-8.62938 c -0.0554,-0.0724 -0.28706,-0.0987 -0.51476,-0.0583 -0.2277,0.0404 -0.72326,-0.0147 -1.1012,-0.12251 -2.22001,-0.6333 -3.31181,-3.15353 -3.49192,-8.0605 -0.0548,-1.49267 -0.0311,-2.33451 0.0657,-2.33451 0.0842,0 0.19513,0.62078 0.2502,1.4007 0.31725,4.49265 0.89297,6.55224 2.14914,7.6883 0.37676,0.34073 1.13837,0.70217 1.26456,0.60016 0.0437,-0.0353 -0.095,-0.31672 -0.30835,-0.62531 -0.89888,-1.30032 -1.05257,-2.52144 -0.55425,-4.40363 0.26339,-0.99489 0.73574,-2.29038 1.08629,-2.97938 0.0696,-0.13696 0.24336,-0.52915 0.38595,-0.87154 0.14257,-0.3424 0.32074,-0.7346 0.39593,-0.87155 0.0752,-0.13696 0.20493,-0.52916 0.28835,-0.87155 0.29535,-1.21253 0.47895,-1.85912 0.63448,-2.2346 1.10341,-2.66368 2.08155,-6.17795 2.47962,-8.90877 0.10757,-0.73792 0.18532,1.8156 0.0853,2.80141 -0.14531,1.43235 -0.41927,2.3439 -1.38449,4.60675 -0.99909,2.34222 -1.64792,4.30932 -1.64792,4.99606 0,0.18596 -0.0925,0.42658 -0.20552,0.5347 -0.35386,0.33846 -1.29891,2.87211 -1.64492,4.41004 -0.19547,0.86884 -0.14174,1.77456 0.15393,2.59475 0.21608,0.59938 1.08868,1.61884 1.54523,1.80526 0.41662,0.17013 0.76885,0.63852 0.65715,0.87388 -0.0926,0.19508 -0.44842,0.21328 -0.58843,0.0301 z m -2.38131,-22.00362 c 0,-0.12221 0.13858,-0.54103 0.30799,-0.93069 0.37437,-0.86121 0.38417,-1.23369 0.0534,-2.03099 -1.00248,-2.41698 -5.51059,-4.42024 -10.65364,-4.73415 l -1.41125,-0.0861 v -0.28605 c 0,-0.15733 0.0693,-0.3207 0.15408,-0.36305 0.0848,-0.0424 0.93193,0.0157 1.88266,0.12869 1.70422,0.20281 4.1362,0.77063 5.60431,1.30851 2.01553,0.73844 3.99353,2.09404 4.69615,3.21848 0.44112,0.70592 0.57917,2.1608 0.27754,2.92477 -0.34899,0.8839 -0.91133,1.40879 -0.91133,0.85062 z m -6.05158,-0.71242 c -0.49128,-0.49782 -1.15074,-0.7539 -2.39702,-0.93079 -0.47736,-0.0677 -1.38768,-0.2129 -2.02289,-0.32251 -0.63522,-0.10962 -1.45646,-0.24985 -1.82499,-0.31162 -1.66022,-0.27823 -1.87083,-0.35605 -1.87083,-0.69114 v -0.31739 l 0.65447,0.0837 c 0.35996,0.0461 1.0356,0.15612 1.50142,0.2446 0.46583,0.0885 1.40132,0.25475 2.07891,0.36948 3.52768,0.59738 4.3033,0.91829 4.49203,1.8586 0.11434,0.5697 -0.0609,0.57458 -0.6111,0.0171 z m 11.44132,-0.4972 c 0,-0.0343 0.0346,-0.0622 0.077,-0.0622 0.0423,0 0.077,0.028 0.077,0.0622 0,0.0342 -0.0346,0.0623 -0.077,0.0623 -0.0423,0 -0.077,-0.0281 -0.077,-0.0623 z"
       id="path39" /></g></svg>
