<?xml version="1.0" encoding="UTF-8" standalone="no"?>
<!-- Created with Inkscape (http://www.inkscape.org/) -->

<svg
   width="124.13908mm"
   height="81.703819mm"
   viewBox="0 0 124.1391 81.703819"
   version="1.1"
   id="svg1"
   xml:space="preserve"
   xmlns="http://www.w3.org/2000/svg"
   xmlns:svg="http://www.w3.org/2000/svg"><defs
     id="defs1" /><g
     id="layer1"
     transform="translate(-131.54498,-1380.1027)"><path
       style="fill:#4d4d4d"
       d="m 182.48877,1461.539 c -0.58694,-0.1815 -1.61882,-0.8999 -2.29306,-1.5963 l -1.22588,-1.2662 v -4.843 c 0,-4.1105 -0.0983,-4.9933 -0.65021,-5.8375 -1.03533,-1.5837 -0.33234,-1.7798 2.80571,-0.7826 3.92171,1.2462 6.4362,1.6303 10.52109,1.6074 3.88535,-0.022 5.74445,-0.4815 6.33958,-1.5676 0.21263,-0.388 1.06129,-1.7053 1.88591,-2.9273 0.82462,-1.2219 1.49931,-2.2935 1.49931,-2.3812 0,-0.088 -0.83344,-0.1614 -1.85209,-0.1637 -2.52574,-0.01 -4.74553,-0.6622 -8.90764,-2.6343 -7.45257,-3.5312 -10.01642,-4.2718 -13.22633,-3.8206 -1.06871,0.1502 -2.18124,0.2433 -2.47228,0.207 -0.29104,-0.036 -1.55625,0.094 -2.81158,0.2899 -4.14322,0.6463 -5.91563,2.4755 -5.53258,5.7097 0.2488,2.1007 2.30994,6.4175 5.00535,10.483 3.95167,5.9604 4.36408,7.2239 2.72145,8.3379 -0.82951,0.5626 -1.6605,0.6571 -5.73264,0.6519 -2.61937,0 -7.46125,-0.1446 -10.75972,-0.3138 -3.9973,-0.2051 -8.52654,-0.169 -13.58195,0.1083 -8.40555,0.4611 -11.00902,0.2321 -12.08264,-1.0624 -1.35377,-1.6324 -0.42495,-4.584 3.12656,-9.9354 4.69873,-7.0801 9.44724,-10.5858 16.85796,-12.4457 3.17092,-0.7958 3.1748,-0.7977 2.71991,-1.3458 -0.23148,-0.2789 -0.29979,-0.9679 -0.16574,-1.6715 0.60835,-3.1932 2.655,-4.8739 6.29056,-5.1657 2.37884,-0.191 6.53817,0.3147 9.41647,1.1449 1.85016,0.5336 2.05915,0.4458 2.05915,-0.8646 0,-0.5088 0.3175,-1.5477 0.70555,-2.3089 0.38806,-0.7611 0.70556,-1.7556 0.70556,-2.21 0,-1.7553 3.23543,-5.0745 5.54975,-5.6934 1.28021,-0.3424 1.7198,-2.4055 1.2046,-5.6535 -1.09828,-6.9241 -1.07929,-6.8582 -2.26288,-7.8443 -0.62061,-0.517 -1.27461,-0.8497 -1.45333,-0.7392 -0.17871,0.1104 -0.22317,0.036 -0.0988,-0.1651 0.12438,-0.2012 -0.074,-1.2382 -0.44078,-2.3043 -1.83823,-5.3429 -1.93786,-15.161 -0.20132,-19.8402 0.63192,-1.7027 1.94144,-2.4893 2.76807,-1.6627 0.48057,0.4806 0.63014,0.4757 1.42751,-0.047 2.00903,-1.3164 4.06169,-0.3769 3.30892,1.5145 -0.46305,1.1634 -0.42216,7.589 0.0585,9.1884 0.45544,1.5156 0.45868,4.6136 0.008,8.1162 -0.28124,2.1881 -0.5773,2.9908 -1.71133,4.6398 l -1.37124,1.9939 0.64818,3.4741 c 0.88458,4.7412 0.86636,7.506 -0.0631,9.5789 -1.15135,2.5677 -2.55496,4.6529 -3.13786,4.6616 -0.29104,0 -1.29176,0.6793 -2.22382,1.5 -1.57566,1.3872 -1.71673,1.6505 -2.00905,3.749 -0.2709,1.9448 -0.21849,2.445 0.37891,3.616 0.81408,1.5957 1.58824,1.8419 1.22276,0.3888 -0.84974,-3.3784 0.28156,-6.7787 2.87501,-8.6411 0.82174,-0.5902 1.91316,-1.6778 2.4254,-2.4169 1.3079,-1.8873 2.41811,-2.5293 4.09701,-2.3692 l 1.39749,0.1333 -0.21815,-1.1629 c -0.45104,-2.4042 2.16565,-1.4779 4.46426,1.5804 1.08457,1.4431 1.7013,1.8663 1.7013,1.1676 0,-0.1825 0.77638,-1.9684 1.7253,-3.9688 2.37499,-5.0065 3.34361,-8.399 3.11569,-10.9125 -0.1794,-1.9785 -1.17706,-4.6683 -1.62806,-4.3896 -0.13058,0.081 -0.11083,1.855 0.0439,3.9429 0.29314,3.9559 0.0195,5.1317 -0.84114,3.615 -0.31233,-0.5505 -0.48862,-2.2631 -0.52135,-5.065 -0.0272,-2.3283 -0.15135,-4.4781 -0.2759,-4.7773 -0.14312,-0.3437 0.62987,-1.8247 2.10046,-4.0241 2.95347,-4.4173 5.18433,-8.8545 6.18742,-12.3067 0.43218,-1.4874 0.92504,-2.7044 1.09525,-2.7044 0.74955,0 0.68618,1.3615 -0.18701,4.0181 -1.15299,3.5077 -2.56229,6.3485 -5.4869,11.0602 l -2.24265,3.613 1.25722,1.855 c 0.69147,1.0203 1.44235,2.5674 1.66861,3.438 0.77652,2.9878 -0.27912,7.5422 -3.05593,13.1843 -0.65505,1.3309 -1.18852,2.6009 -1.18548,2.8222 0.003,0.2212 1.80424,-1.4474 4.00268,-3.708 2.19844,-2.2607 4.65025,-4.4435 5.44848,-4.8507 1.62245,-0.8277 4.14463,-0.9704 5.9044,-0.3341 0.9315,0.3368 1.26763,0.3062 1.96533,-0.1793 1.43948,-1.0016 6.3097,-5.9834 6.3097,-6.4543 0,-0.7754 1.80736,-2.1615 3.31354,-2.5412 0.79693,-0.2009 3.27742,-0.4384 5.5122,-0.5279 5.83651,-0.2335 6.39821,0.3425 5.87835,6.0277 -0.1837,2.0091 -0.17632,3.4737 0.0185,3.6685 0.17836,0.1784 2.1378,0.5601 4.35432,0.8482 2.21651,0.2882 4.89728,0.6818 5.95726,0.8746 4.72015,0.8588 9.40738,4.2915 11.27653,8.2583 2.90073,6.1562 2.28892,13.0269 -2.15417,24.1913 -2.74382,6.8946 -3.66321,8.407 -5.84978,9.6233 -5.52585,3.0738 -20.88119,4.9174 -38.71371,4.6483 -8.35533,-0.1261 -9.81847,-0.3364 -9.98101,-1.4347 -0.1537,-1.0385 2.79145,-4.6795 7.67269,-9.4855 7.6822,-7.5638 9.52557,-10.6105 8.07153,-13.3406 -0.55827,-1.0482 -1.16655,-1.4972 -3.69762,-2.7296 -2.96993,-1.4461 -4.38217,-1.8267 -13.66545,-3.6827 -8.52828,-1.7051 -11.41523,-2.5157 -13.93848,-3.9133 -1.51505,-0.8392 -1.5732,-0.8444 -2.6198,-0.2331 -2.09293,1.2223 -3.28148,4.8875 -2.36587,7.2958 0.31419,0.8264 0.5208,0.9052 2.38125,0.9091 2.96119,0.01 5.08124,0.6808 10.93012,3.4786 2.87001,1.3729 6.07785,2.6778 7.12853,2.8998 2.32473,0.4912 5.0296,0.2149 6.94195,-0.7091 1.95119,-0.9427 3.19561,-1.219 3.47252,-0.7709 0.1353,0.2189 -0.76189,0.8517 -2.16638,1.5279 -2.31492,1.1145 -2.47853,1.2815 -4.76055,4.8584 -1.29978,2.0373 -2.37134,4.0233 -2.38125,4.4135 -0.0281,1.1046 -3.07819,5.4173 -5.48746,7.7589 -3.62178,3.52 -7.28017,4.9685 -10.238,4.0536 z m 4.50988,-1.7124 c 0.30157,-0.3015 -0.18318,-0.4025 -1.93219,-0.4025 -1.28412,0 -2.62556,-0.093 -2.98097,-0.2059 -0.48018,-0.1531 -0.42057,-0.01 0.23202,0.5659 0.71881,0.6317 1.18686,0.7422 2.5784,0.6085 0.9351,-0.09 1.88133,-0.3445 2.10274,-0.566 z m -39.93106,-2.607 c 1.80236,-2.2033 4.62821,-4.1582 8.15927,-5.6446 2.46174,-1.0362 2.80525,-1.0858 7.72542,-1.1156 3.88257,-0.024 5.29265,0.088 5.73264,0.453 0.92159,0.7647 0.69268,0.092 -0.82088,-2.4133 l -1.4044,-2.3244 -3.62269,0.2571 c -9.89411,0.7021 -15.68826,3.3862 -19.59299,9.0761 -2.10459,3.0668 -2.04975,3.312 0.77745,3.4756 1.45803,0.084 1.60287,5e-4 3.04618,-1.7639 z m 33.73072,0.3744 c -0.11261,-0.2814 -0.1962,-0.1978 -0.21313,0.2132 -0.0153,0.3719 0.0681,0.5802 0.18528,0.463 0.11723,-0.1172 0.12976,-0.4215 0.0279,-0.6762 z m 12.67651,-2.8801 c 0.85052,-0.9395 1.5463,-1.8118 1.54619,-1.9385 -1.2e-4,-0.1268 -1.30981,-0.2438 -2.91042,-0.26 -3.59622,-0.036 -9.89225,-1.3242 -11.00992,-2.2518 -0.34558,-0.2868 -0.49744,3e-4 -0.67136,1.2692 -0.32412,2.3646 -0.27636,4.3635 0.10424,4.3635 0.18096,0 0.43346,-0.3291 0.56112,-0.7313 0.22161,-0.6983 0.2628,-0.7036 0.91044,-0.1175 0.75003,0.6788 4.98046,1.41 8.03013,1.3881 1.80891,-0.013 1.96202,-0.09 3.43958,-1.7217 z m 58.74555,-13.5485 c 0.21886,-0.9203 0.51601,-1.9908 0.66034,-2.3788 1.02165,-2.7469 1.55021,-8.3319 1.09321,-11.5511 -0.84025,-5.919 -4.64261,-9.939 -10.73793,-11.3526 -2.20125,-0.5105 -2.53594,-0.5018 -5.20417,0.1355 -1.56839,0.3746 -3.03707,0.8254 -3.26374,1.0019 -0.22668,0.1765 -0.94051,0.4987 -1.58631,0.7161 -2.66582,0.8974 -7.18828,4.5047 -11.34944,9.0528 -2.20222,2.4071 -6.34391,8.0158 -6.34725,8.5955 -0.002,0.2757 -0.22257,0.3944 -0.52111,0.2798 -0.42061,-0.1614 -0.50377,0.1476 -0.44098,1.638 0.0426,1.0103 -0.0447,2.2734 -0.19391,2.807 -0.36333,1.2992 0.15674,1.2383 0.74339,-0.087 0.25736,-0.5814 0.9174,-1.5736 1.46674,-2.2049 0.97384,-1.119 4.22412,-5.0477 6.46877,-7.8189 4.98404,-6.1533 7.75974,-8.4721 11.87713,-9.922 2.88461,-1.0159 8.46778,-0.9756 10.43101,0.075 3.38842,1.8137 5.62491,5.707 6.20753,10.806 0.42417,3.7123 0.1479,9.6782 -0.55657,12.019 -0.26371,0.8762 -0.37906,1.6935 -0.25634,1.8162 0.27793,0.278 0.98472,-1.4205 1.50963,-3.6278 z m -86.03321,-3.5811 c 0.27331,-1.0451 2.71247,-2.4528 5.03368,-2.905 1.1575,-0.2254 2.14257,-0.437 2.18904,-0.4701 0.0465,-0.033 -0.11228,-0.4876 -0.35278,-1.0101 -0.4443,-0.9653 -0.59639,-1.0293 -4.847,-2.0382 -2.68436,-0.6371 -8.79143,-0.6303 -9.99474,0.011 -1.29928,0.6926 -1.90406,1.7426 -2.05081,3.5603 l -0.12528,1.5519 3.52778,0.5954 c 1.94028,0.3274 3.92465,0.7614 4.40972,0.9642 1.34253,0.5615 2.01639,0.4824 2.21039,-0.2595 z m 44.8528,-6.8871 c 7.31538,-2.6534 11.3295,-8.5212 9.61473,-14.0546 -0.46028,-1.4853 -0.46022,-1.7442 4.9e-4,-2.2049 0.28709,-0.2871 0.99952,-0.522 1.58316,-0.522 0.97591,0 1.04392,-0.078 0.84658,-0.977 -0.28202,-1.284 0.15901,-1.7687 3.23949,-3.5605 3.62231,-2.1069 3.96041,-3.1319 1.63619,-4.9601 -1.64186,-1.2915 -7.07695,-0.7492 -8.83671,0.8817 -0.83648,0.7752 -0.87388,0.9298 -0.46429,1.9186 0.51093,1.2335 0.24108,1.7274 -0.64242,1.1756 -0.5067,-0.3164 -1.06318,0.05 -3.33814,2.1957 l -2.73007,2.5754 1.12215,0.1107 c 0.61719,0.061 1.18729,0.3092 1.26691,0.5517 0.23223,0.7075 -3.00357,0.5402 -5.12129,-0.2647 -2.31749,-0.8808 -2.7956,-0.8791 -4.88733,0.017 -1.23681,0.5302 -2.84351,1.914 -6.02647,5.1907 -2.38703,2.4573 -4.34006,4.4959 -4.34006,4.5302 0,0.034 0.51594,0.1429 1.14653,0.2414 0.63059,0.098 2.25778,0.3737 3.61597,0.6117 1.44748,0.2536 3.74663,0.351 5.55558,0.2353 4.59711,-0.294 6.49252,-1.5557 7.50902,-4.9984 0.47966,-1.6245 1.43554,-1.9566 1.335,-0.4639 -0.17656,2.6216 -2.61219,5.4855 -5.44268,6.3996 -2.39664,0.774 -7.04174,0.7356 -11.07358,-0.091 -4.35169,-0.8928 -4.79599,-1.1158 -6.50454,-3.2651 -1.76752,-2.2234 -2.69592,-2.905 -2.31283,-1.698 0.34474,1.0862 -0.28583,1.3789 -2.482,1.1522 l -1.8346,-0.1893 -0.23998,1.2792 c -0.20547,1.0952 -0.37713,1.2794 -1.19412,1.2809 h -0.95416 l 1.05834,0.8497 c 1.58035,1.2688 6.8311,2.7582 15.69861,4.453 4.10852,0.7853 9.21083,2.0232 9.4901,2.3024 0.32838,0.3284 1.4409,0.1168 3.70642,-0.7049 z m -33.09728,-8.9304 c -0.38538,-0.3853 -0.64963,0.2275 -0.37295,0.865 0.26235,0.6044 0.28137,0.6039 0.42754,-0.012 0.0841,-0.3548 0.0596,-0.7384 -0.0546,-0.8526 z m 1.37993,-0.7955 c 0.11991,-0.194 0.0499,-0.3528 -0.15557,-0.3528 -0.20548,0 -0.3736,0.1588 -0.3736,0.3528 0,0.194 0.07,0.3528 0.15557,0.3528 0.0856,0 0.25368,-0.1588 0.3736,-0.3528 z m 46.20723,-8.1442 c -0.18065,-0.8225 -0.33697,-0.9756 -0.69375,-0.6795 -0.3567,0.296 -0.37477,0.6617 -0.0802,1.6216 0.3029,0.987 0.44423,1.1254 0.69375,0.6795 0.17234,-0.3079 0.20841,-1.0377 0.0802,-1.6216 z m 4.96005,-8.7657 c -0.12789,-0.2069 -0.40135,-0.3762 -0.60769,-0.3762 -0.23392,0 -0.20716,0.2024 0.0711,0.5377 0.48385,0.583 0.91628,0.4529 0.53659,-0.1615 z m -48.40105,-3.1278 c 0.13856,-0.7273 0.0914,-1.0835 -0.12571,-0.9493 -0.19111,0.1181 -0.34747,0.7081 -0.34747,1.3111 0,1.3325 0.17606,1.1979 0.47318,-0.3618 z m -4.70651,-1.1995 c 0,-0.7271 -0.12145,-1.0075 -0.34123,-0.7877 -0.18767,0.1877 -0.24853,0.6957 -0.13524,1.1289 0.29057,1.1111 0.47647,0.978 0.47647,-0.3412 z m -0.8247,-8.4843 c -0.0979,-0.2426 -0.17793,-0.044 -0.17793,0.4409 0,0.4851 0.0801,0.6836 0.17793,0.441 0.0979,-0.2425 0.0979,-0.6394 0,-0.8819 z m 5.38601,-5.1153 c -0.0173,-1.6575 -0.11694,-2.1668 -0.32798,-1.6757 -0.50865,1.1837 -0.35699,4.0569 0.21413,4.0569 0.0763,0 0.12749,-1.0715 0.11385,-2.3812 z m 9.07943,4.9683 c -0.12935,-0.1294 -0.23519,-0.5432 -0.23519,-0.9197 0,-0.5188 -0.14943,-0.6196 -0.61736,-0.4165 -0.96512,0.419 -2.29788,0.3786 -2.45442,-0.074 -0.0781,-0.2261 0.22387,-0.5246 0.67111,-0.6634 1.85113,-0.5744 3.81179,-1.6821 3.81179,-2.1535 0,-0.9903 -1.36246,-3.1436 -2.80951,-4.4404 -1.32418,-1.1866 -1.61126,-2.033 -0.68957,-2.033 0.56991,0 3.51742,2.8932 4.11434,4.0386 0.30861,0.5921 0.66483,1.5529 0.7916,2.135 l 0.2305,1.0583 0.94521,-1.8404 c 0.51986,-1.0122 0.9452,-2.1594 0.9452,-2.5495 0,-0.7851 -1.05889,-1.5769 -2.5827,-1.9311 -1.20508,-0.2802 -1.07399,-1.0445 0.20524,-1.1967 1.14893,-0.1367 2.93488,0.7609 3.45763,1.7377 0.85116,1.5904 -0.38322,4.7125 -3.02471,7.6505 -1.56705,1.7429 -2.2304,2.1272 -2.75916,1.5985 z"
       id="path88" /></g></svg>
