<?xml version="1.0" encoding="UTF-8" standalone="no"?>
<!-- Created with Inkscape (http://www.inkscape.org/) -->

<svg
   width="192.74364mm"
   height="109.74389mm"
   viewBox="0 0 192.74364 109.74389"
   version="1.1"
   id="svg1"
   xml:space="preserve"
   xmlns="http://www.w3.org/2000/svg"
   xmlns:svg="http://www.w3.org/2000/svg"><defs
     id="defs1" /><g
     id="layer1"
     transform="translate(-251.09557,-702.44911)"><path
       style="fill:#4d4d4d"
       d="m 291.88494,811.96483 c -0.0797,-0.12903 -0.59278,-0.31481 -1.14009,-0.41286 -1.34655,-0.24123 -2.80808,-0.75031 -3.0254,-1.05381 -0.11019,-0.15389 -0.56463,-0.13942 -1.19063,0.0379 -3.40597,0.96481 -4.67189,1.0633 -6.30408,0.49047 -1.90069,-0.66706 -3.69876,-1.49041 -3.96875,-1.81731 -0.61134,-0.7402 -2.04763,-1.76445 -2.27619,-1.62319 -0.33119,0.20469 -1.87395,-0.77684 -2.29012,-1.45701 -0.18313,-0.29931 -0.50781,-0.5442 -0.7215,-0.5442 -0.2137,0 -0.59454,-0.3144 -0.84633,-0.69868 -0.25179,-0.38428 -0.78864,-0.89989 -1.19301,-1.1458 -0.82292,-0.50044 -2.33014,-2.45106 -2.33014,-3.01562 0,-0.59196 0.56823,-0.87751 2.0864,-1.04844 1.66037,-0.18695 1.84538,-0.30735 1.40933,-0.91717 -0.67329,-0.94162 -0.93643,-1.83074 -1.05337,-3.55918 -0.10261,-1.51659 -0.0565,-1.78594 0.3059,-1.78594 0.23471,0 0.42674,0.1786 0.42674,0.39688 0,0.21828 0.10098,0.39687 0.2244,0.39687 0.42149,0 1.62768,3.42156 1.62768,4.61721 v 0.74318 l 4.29948,-0.16395 c 2.36471,-0.0902 5.62476,-0.23941 7.24456,-0.33163 l 2.94508,-0.16769 0.16377,-1.19486 c 0.0901,-0.65718 0.16378,-1.99711 0.16378,-2.97762 0,-1.21252 0.11949,-1.88194 0.37359,-2.09282 0.55053,-0.4569 13.58788,-0.28352 13.8767,0.18454 0.15613,0.25301 0.46448,0.14941 1.2468,-0.41891 0.57165,-0.41528 1.20848,-0.96038 1.41518,-1.21133 0.20669,-0.25095 0.75182,-0.61338 1.21138,-0.8054 0.45957,-0.19202 1.45529,-0.89952 2.21271,-1.57221 0.75742,-0.6727 1.46977,-1.22309 1.58299,-1.22309 0.11323,0 0.43932,-0.20836 0.72465,-0.46302 0.28533,-0.25466 1.34958,-1.02387 2.36499,-1.70934 1.01542,-0.68547 2.18373,-1.60821 2.59624,-2.05052 0.41252,-0.44231 0.89477,-0.80421 1.07167,-0.80421 0.40209,0 3.33768,-2.59393 3.33768,-2.94923 0,-0.14359 0.29765,-0.65132 0.66146,-1.12829 0.3638,-0.47697 0.66145,-0.97053 0.66145,-1.09681 0,-0.12628 0.4562,-0.71035 1.01378,-1.29794 0.5908,-0.62261 1.15394,-1.5651 1.34974,-2.25898 0.18478,-0.65484 0.57731,-1.74534 0.87227,-2.42333 0.57606,-1.32412 0.53764,-2.04667 -0.24401,-4.58812 -0.55527,-1.80544 -0.96956,-2.77813 -1.18326,-2.77813 -0.0984,0 -0.25742,-0.35719 -0.35331,-0.79375 -0.0959,-0.43656 -0.28394,-0.79375 -0.41789,-0.79375 -0.13396,0 -0.24357,-0.15716 -0.24357,-0.34925 0,-0.19209 -0.39595,-0.81716 -0.8799,-1.38906 -0.97656,-1.15404 -1.50954,-2.04619 -2.28089,-3.81794 -0.2851,-0.65484 -0.69667,-1.48828 -0.91462,-1.85208 -0.7548,-1.25994 -2.01,-4.63482 -2.01,-5.40433 0,-0.75423 -7.12491,-7.45545 -9.26042,-8.70974 -0.65484,-0.38463 -1.65739,-1.10971 -2.22788,-1.61129 -0.5705,-0.50158 -1.64206,-1.1084 -2.38125,-1.34848 -0.7392,-0.24008 -1.52259,-0.57971 -1.74087,-0.75473 -0.21828,-0.17502 -0.69453,-0.44959 -1.05833,-0.61015 -0.3638,-0.16057 -1.34932,-0.60192 -2.19005,-0.98078 -0.84072,-0.37886 -1.68011,-0.68884 -1.86531,-0.68884 -0.1852,0 -0.44983,-0.10518 -0.58808,-0.23374 -0.42334,-0.39367 -3.51992,-0.83743 -6.99823,-1.0029 -3.39282,-0.16139 -9.5502,0.46906 -9.74548,0.99784 -0.0485,0.13134 -0.25745,0.2388 -0.46432,0.2388 -0.46279,0 -4.42736,1.93803 -4.87125,2.38125 -0.0729,0.0728 -0.54333,0.36149 -1.04546,0.64163 -1.70283,0.94998 -4.25056,3.66889 -5.98002,6.38181 -0.93828,1.47184 -1.70597,2.93607 -1.70597,3.25386 0,0.31779 -0.10746,0.78455 -0.23879,1.03723 -0.13134,0.25269 -0.35843,0.93568 -0.50465,1.51777 -0.14622,0.58208 -0.45548,1.72364 -0.68725,2.53679 -0.23176,0.81316 -0.42139,1.86178 -0.42139,2.33029 0,0.4685 -0.13858,1.69095 -0.30796,2.71657 -0.23639,1.43139 -0.23363,2.55001 0.0119,4.81346 0.36996,3.4108 1.03291,7.25347 1.35926,7.87868 0.12404,0.23762 0.41386,1.34385 0.64405,2.45827 0.23019,1.11443 0.53239,2.2297 0.67156,2.47838 0.43867,0.78387 2.67542,7.70591 2.90879,9.00184 0.12281,0.68194 0.76928,2.77713 1.4366,4.65598 0.66732,1.87885 1.21331,3.51596 1.21331,3.63802 0,0.51311 -0.42657,0.16042 -0.77162,-0.63797 -0.20439,-0.47294 -0.82877,-1.441 -1.3875,-2.15123 -0.55874,-0.71023 -1.01588,-1.40588 -1.01588,-1.54589 0,-0.14 -0.62508,-0.94781 -1.38906,-1.79514 -0.76399,-0.84733 -1.62605,-1.99715 -1.9157,-2.55516 -0.28965,-0.55801 -0.59627,-1.07409 -0.68138,-1.14685 -0.0851,-0.0728 -0.38391,-0.54545 -0.664,-1.05041 -0.28008,-0.50497 -0.7176,-1.1525 -0.97226,-1.43896 -0.25466,-0.28645 -0.46302,-0.60894 -0.46302,-0.71662 0,-0.10769 -0.1537,-0.35313 -0.34155,-0.54543 -0.71579,-0.7327 -1.24595,-1.6794 -1.24595,-2.2249 0,-0.3118 -0.23223,-0.86214 -0.51607,-1.22298 -0.28384,-0.36084 -0.85176,-1.29963 -1.26206,-2.0862 -0.4103,-0.78657 -0.86171,-1.60872 -1.00314,-1.827 -0.33861,-0.5226 -0.91387,-2.15392 -0.91891,-2.60585 -0.002,-0.19629 -0.19472,-0.7916 -0.42784,-1.32292 -0.79007,-1.80071 -0.87014,-2.02277 -1.30235,-3.61186 -0.23748,-0.87312 -0.53143,-1.94468 -0.65323,-2.38125 -0.1218,-0.43656 -0.29092,-1.92484 -0.37583,-3.30729 -0.27695,-4.50898 0.6651,-9.93259 2.37371,-13.66603 0.20985,-0.45855 0.38335,-0.99433 0.38554,-1.19062 0.007,-0.60755 0.6311,-2.17358 1.19773,-3.00436 0.29714,-0.43566 0.77339,-1.25318 1.05834,-1.81671 0.28494,-0.56353 0.72643,-1.15771 0.98109,-1.32042 0.25466,-0.1627 0.46302,-0.49439 0.46302,-0.73708 0,-0.49589 2.27238,-3.4002 2.66037,-3.4002 0.30687,0 1.30838,-0.97621 1.30838,-1.27533 0,-0.27377 1.64949,-1.62434 2.70432,-2.21424 0.43949,-0.24578 1.0526,-0.67725 1.36248,-0.95884 0.30987,-0.28158 1.15872,-0.83647 1.88633,-1.23308 0.7276,-0.39662 1.51088,-0.88788 1.74062,-1.09169 0.22974,-0.20381 0.60967,-0.37057 0.84428,-0.37057 0.23462,0 0.50016,-0.11906 0.5901,-0.26458 0.0899,-0.14552 0.50394,-0.26458 0.92001,-0.26458 0.90143,0 1.59353,-0.23601 1.59353,-0.5434 0,-0.1222 -0.82648,-0.79098 -1.83662,-1.48617 -1.01014,-0.69519 -1.96264,-1.54056 -2.11667,-1.87861 -0.40769,-0.89479 -0.34264,-3.8149 0.10907,-4.89599 0.21402,-0.51221 0.80933,-1.37684 1.32292,-1.9214 0.82279,-0.87242 0.9338,-1.15419 0.9338,-2.37027 0,-1.16345 0.14191,-1.566 0.9038,-2.56382 0.79608,-1.0426 1.98288,-2.06743 2.39418,-2.06743 0.35289,0 0.0861,0.69475 -0.45406,1.18221 -0.32762,0.29567 -0.76892,0.77571 -0.98067,1.06675 -0.21175,0.29104 0.0322,0.14222 0.54211,-0.33073 1.20997,-1.12223 1.76126,-1.1455 1.11533,-0.0471 -0.26289,0.44705 -0.68634,1.03738 -0.941,1.31185 -0.66941,0.72147 -0.56966,1.66486 0.26458,2.50242 l 0.7276,0.73051 0.14269,-1.02516 c 0.0785,-0.56383 0.34839,-1.47264 0.59979,-2.01957 0.48644,-1.05821 0.39965,-1.98214 -0.28559,-3.04048 -0.36189,-0.55892 -0.34674,-0.59531 0.24802,-0.59531 0.34842,0 0.80511,-0.23812 1.01489,-0.52917 0.20977,-0.29104 0.51597,-0.52916 0.68046,-0.52916 0.16448,0 0.85887,-0.29766 1.54309,-0.66146 0.69521,-0.36965 1.68545,-0.66146 2.24463,-0.66146 0.77758,0 1.15777,-0.1764 1.70579,-0.79146 0.38785,-0.4353 0.70519,-0.9565 0.70519,-1.15823 0,-0.20172 0.19129,-0.52552 0.42508,-0.71955 0.36024,-0.29897 0.5824,-0.26224 1.45647,0.24082 0.73108,0.42075 1.16586,0.52372 1.49316,0.35362 0.25396,-0.13198 0.69988,-0.15284 0.99092,-0.0463 0.29104,0.1065 0.78777,0.0767 1.10385,-0.0663 0.38807,-0.17553 0.85197,-0.16328 1.42855,0.0377 0.46962,0.16371 1.35341,0.29766 1.96399,0.29766 1.45634,0 1.9859,0.58346 1.9859,2.18803 0,0.67118 -0.11906,1.29391 -0.26458,1.38384 -0.41179,0.2545 -0.31207,1.12783 0.19843,1.73796 1.15104,1.37567 1.62106,1.75029 3.10896,2.47791 0.87307,0.42696 1.88505,0.97851 2.24885,1.22567 0.36381,0.24717 1.34303,0.59026 2.17606,0.76243 1.46919,0.30365 1.54852,0.29036 2.64584,-0.44339 1.54765,-1.03489 2.46802,-1.40937 4.17394,-1.69833 0.80036,-0.13557 1.99099,-0.33686 2.64583,-0.44731 0.65485,-0.11045 2.00577,-0.58731 3.00206,-1.0597 0.99629,-0.47238 2.15963,-0.92851 2.5852,-1.01363 0.42556,-0.0851 0.83783,-0.25843 0.91615,-0.38516 0.20193,-0.32671 1.43409,-0.28701 1.43409,0.0462 0,0.15214 -0.98226,0.75383 -2.18281,1.3371 -1.20055,0.58327 -1.94469,0.98569 -1.65365,0.89427 1.9949,-0.62662 3.25719,-0.69934 4.88781,-0.2816 0.92037,0.23579 1.71734,0.38478 1.77103,0.33109 0.0537,-0.0537 -0.38078,-0.42916 -0.9655,-0.83437 -1.26042,-0.87347 -1.43756,-1.55757 -0.33552,-1.29575 0.40018,0.0951 0.91557,0.33548 1.14531,0.53421 0.22974,0.19874 0.55716,0.36134 0.7276,0.36134 0.17044,0 0.3099,0.09 0.3099,0.2 0,0.10999 0.35983,0.35927 0.79963,0.55394 0.4398,0.19468 0.98825,0.54257 1.21879,0.77311 0.24927,0.24927 1.39732,0.56396 2.83262,0.77644 1.32741,0.1965 2.52918,0.47298 2.67059,0.61439 0.14142,0.14142 0.45,0.25712 0.68574,0.25712 0.23575,0 0.91547,0.41672 1.5105,0.92604 0.59503,0.50933 1.18201,0.92709 1.3044,0.92837 0.12238,10e-4 1.1349,0.87906 2.25002,1.95061 1.42788,1.37208 2.29448,1.99837 2.93021,2.11763 0.49649,0.0932 1.13192,0.37779 1.41208,0.63254 0.28016,0.25475 1.01539,0.68807 1.63386,0.96293 0.61846,0.27486 1.12447,0.60073 1.12447,0.72415 0,0.12342 0.1786,0.2244 0.39688,0.2244 0.21828,0 0.39687,0.11104 0.39687,0.24675 0,0.13572 0.2564,0.32813 0.56977,0.42759 0.78321,0.24858 3.09293,2.64017 3.28364,3.40004 0.0856,0.34116 0.44427,0.77473 0.79697,0.9635 0.35271,0.18876 0.64129,0.44734 0.64129,0.57462 0,0.12729 0.30076,0.55365 0.66836,0.94748 0.36761,0.39383 0.87362,1.16925 1.12448,1.72315 0.42725,0.94336 0.51473,0.99797 1.38216,0.86283 1.23457,-0.19233 4.48777,-0.80613 6.61458,-1.24802 2.16343,-0.44949 10.15621,-0.43503 13.09688,0.0237 2.75053,0.42907 5.42746,0.44883 7.40833,0.0547 3.46748,-0.68993 7.23509,-0.90945 9.49108,-0.55302 1.18282,0.18689 3.28168,0.33809 4.66413,0.33602 2.25645,-0.003 3.36911,-0.1816 7.14375,-1.14422 5.3693,-1.36929 6.38453,-1.57879 9.03814,-1.86502 2.79947,-0.30196 3.66186,-0.60239 3.66186,-1.27565 0,-0.27908 0.17859,-0.57594 0.39687,-0.65971 0.21829,-0.0838 0.39688,-0.41079 0.39688,-0.72674 0,-0.31595 0.19017,-0.71351 0.42261,-0.88346 0.37757,-0.2761 0.34938,-0.39604 -0.26459,-1.1257 -0.37795,-0.44917 -0.68719,-1.10679 -0.68719,-1.46138 0,-0.65139 0.10957,-0.73399 2.18282,-1.6456 0.84257,-0.37048 0.99218,-0.56126 0.99218,-1.26521 0,-0.67522 0.32254,-1.13903 1.73933,-2.50113 0.95662,-0.9197 1.84959,-1.67218 1.98437,-1.67218 0.13478,0 0.24505,-0.11906 0.24505,-0.26458 0,-0.14552 -0.17859,-0.26459 -0.39687,-0.26459 -0.45792,0 -0.52761,-0.94461 -0.1441,-1.95331 0.13903,-0.36567 0.67645,-1.13382 1.19428,-1.70699 0.80418,-0.89013 1.15017,-1.06821 2.37201,-1.22087 1.14562,-0.14313 1.71133,-0.0646 2.84062,0.39416 2.20325,0.8951 2.39764,0.9718 3.59827,1.4197 0.62141,0.23181 1.37501,0.42148 1.67467,0.42148 1.72212,0 6.05904,2.59375 6.05904,3.62369 0,0.20002 0.19436,0.66032 0.43192,1.02288 0.33406,0.50983 0.40206,1.07658 0.30012,2.50132 -0.0976,1.36339 -0.0379,1.92007 0.22954,2.14202 0.19873,0.16494 0.36134,0.52115 0.36134,0.79159 0,0.42431 0.15412,0.4723 1.12448,0.35006 0.86001,-0.10834 1.33426,-0.0101 2.01645,0.41755 0.78527,0.49232 0.87527,0.66219 0.7523,1.41999 -0.28092,1.73113 -1.34679,3.41228 -3.62728,5.72118 -2.11798,2.14436 -3.4962,3.17639 -4.24192,3.17639 -0.3616,0 -1.84487,1.44591 -1.84487,1.79841 0,0.13839 -0.59531,0.82911 -1.32291,1.53494 -0.72761,0.70583 -1.32292,1.38418 -1.32292,1.50743 0,0.54392 -0.84306,0.98028 -1.89933,0.98309 -1.07214,0.003 -1.175,0.069 -1.65092,1.06234 -0.44587,0.9306 -0.46998,1.22201 -0.19843,2.3984 0.49889,2.1613 0.3913,3.38045 -0.49987,5.66435 -0.11357,0.29104 -0.26839,0.88635 -0.34404,1.32291 -0.0757,0.43657 -0.96552,2.16297 -1.97747,3.83646 l -1.83991,3.04271 0.69925,0.66146 c 0.3846,0.3638 1.23504,0.95331 1.88989,1.31003 1.38001,0.75173 3.0545,1.98592 4.80877,3.5443 0.68029,0.60434 1.79012,1.51551 2.46627,2.02483 0.67615,0.50933 1.46711,1.25347 1.75768,1.65365 0.29057,0.40018 0.64424,0.7276 0.78594,0.7276 0.73999,0 2.23879,2.17006 3.92891,5.68855 1.40408,2.92298 1.51857,3.18997 2.09899,4.89479 0.65431,1.92186 1.09427,8.80588 0.83702,13.09687 -0.0436,0.72761 0.0686,2.09683 0.24927,3.04271 0.29087,1.52244 0.25884,2.17516 -0.27912,5.68806 -0.33423,2.18255 -0.75673,4.11732 -0.93889,4.29948 -0.46031,0.46031 -8.98167,0.47256 -9.2655,0.0133 -0.30001,-0.48542 -0.47127,-6.03211 -0.18625,-6.03211 0.44135,0 0.88066,0.62212 0.88066,1.24713 0,0.33668 0.11187,0.81888 0.2486,1.07157 0.13673,0.25268 0.31759,0.78685 0.40191,1.18703 l 0.15332,0.7276 h 3.30225 c 2.22319,0 3.30225,-0.095 3.30225,-0.29074 0,-0.15991 0.17097,-0.66592 0.37993,-1.12448 0.20896,-0.45855 0.62799,-1.68779 0.93119,-2.73163 0.30319,-1.04384 0.68423,-1.94222 0.84674,-1.99639 0.20856,-0.0695 0.21542,-0.25063 0.0233,-0.61565 -0.29793,-0.56614 -0.85827,-3.37805 -0.85827,-4.30698 0,-0.32063 -0.10906,-0.78972 -0.24234,-1.0424 -0.48411,-0.91778 -1.08058,-2.39834 -1.08058,-2.68223 0,-0.15991 -0.094,-0.29075 -0.20878,-0.29075 -0.11484,0 -0.67034,-0.92273 -1.23445,-2.05052 -1.1618,-2.32269 -2.77037,-4.59893 -4.04376,-5.72221 -0.47466,-0.4187 -0.86301,-0.92037 -0.86301,-1.11483 0,-0.19446 -0.74414,-0.97021 -1.65365,-1.72389 -0.9095,-0.75368 -1.71317,-1.44709 -1.78593,-1.5409 -0.45296,-0.58402 -4.16905,-2.9721 -5.93275,-3.81258 -2.68223,-1.27819 -4.45684,-1.73302 -7.46765,-1.91396 -3.28164,-0.19722 -6.19066,0.24832 -9.85357,1.50915 -1.68964,0.58159 -3.48879,1.15024 -3.99812,1.26366 -0.50932,0.11342 -1.75478,0.64165 -2.76768,1.17386 -1.01291,0.5322 -1.94703,0.96764 -2.07583,0.96764 -0.12879,0 -0.56274,0.23396 -0.96433,0.51992 -0.40159,0.28595 -1.2534,0.60168 -1.89293,0.70162 -0.63952,0.0999 -1.22239,0.25294 -1.29526,0.33998 -0.25008,0.29874 -1.89483,1.08431 -2.2702,1.08431 -0.20649,0 -0.37543,0.11907 -0.37543,0.26459 0,0.14552 -0.16895,0.26458 -0.37544,0.26458 -0.44149,0 -2.0985,0.83694 -2.2263,1.12448 -0.0485,0.10914 -0.30937,0.19844 -0.5797,0.19844 -0.27032,0 -0.56295,0.11561 -0.65028,0.25691 -0.0873,0.1413 -0.7492,0.33524 -1.47082,0.43096 -0.72163,0.0957 -1.31205,0.27777 -1.31205,0.40455 0,0.12677 -0.18021,0.23049 -0.40046,0.23049 -0.22026,0 -0.60721,0.10155 -0.8599,0.22566 -1.2029,0.59081 -2.4674,1.10591 -4.16359,1.69607 -3.08896,1.07473 -3.715,1.25337 -4.38441,1.25105 -0.35347,-10e-4 -1.47612,0.18609 -2.49476,0.41624 -1.01865,0.23016 -2.35981,0.52881 -2.98036,0.66368 -1.54227,0.3352 -8.80159,0.31012 -10.33008,-0.0357 -2.60617,-0.58961 -3.63179,-0.86584 -3.88748,-1.047 -0.14552,-0.10311 -0.9302,-0.26203 -1.74372,-0.35317 -1.30399,-0.14608 -4.07624,-1.3168 -4.85763,-2.05138 -0.13825,-0.12996 -0.48497,-0.23629 -0.7705,-0.23629 -0.51928,0 -3.00795,0.66854 -4.00523,1.07593 -0.29104,0.11889 -0.94589,0.29349 -1.45521,0.38799 -0.50932,0.0945 -1.43622,0.33957 -2.05977,0.54458 -0.62355,0.20501 -1.57605,0.35894 -2.11666,0.34206 -0.57924,-0.0181 -0.76561,-0.085 -0.45378,-0.1629 0.29104,-0.0727 0.5887,-0.21338 0.66146,-0.3126 0.18539,-0.25279 2.90306,-1.34589 3.34617,-1.34589 0.20085,0 0.57192,-0.10425 0.82461,-0.23166 0.25269,-0.12741 1.1738,-0.4389 2.04693,-0.69219 0.87312,-0.2533 1.82562,-0.56351 2.11667,-0.68938 0.29104,-0.12586 1.27002,-0.34301 2.17551,-0.48255 0.90549,-0.13955 2.03658,-0.42377 2.51354,-0.63162 0.47696,-0.20784 1.58157,-0.60143 2.4547,-0.87464 0.87312,-0.27321 1.64703,-0.5693 1.71979,-0.65797 0.0728,-0.0887 0.60854,-0.3116 1.19062,-0.49539 0.58209,-0.1838 1.41552,-0.48694 1.85209,-0.67366 1.82946,-0.78246 2.63063,-0.90702 4.85457,-0.75478 2.92145,0.19999 5.8945,-0.22345 7.58084,-1.07972 0.72761,-0.36945 1.48313,-0.67223 1.67895,-0.67283 0.19582,-6.1e-4 0.69181,-0.24021 1.10221,-0.53244 0.4104,-0.29223 1.11587,-0.60526 1.56771,-0.69563 0.45183,-0.0904 0.8856,-0.26799 0.96392,-0.39472 0.0783,-0.12672 0.38123,-0.23041 0.67312,-0.23041 0.54907,0 4.16017,-2.59807 4.18598,-3.01167 0.008,-0.12845 0.22906,-0.42611 0.49121,-0.66146 0.26215,-0.23535 0.75307,-0.88241 1.09092,-1.43791 0.97539,-1.60372 2.16474,-2.20814 5.04702,-2.56485 1.38245,-0.17109 3.25739,-0.5483 4.16654,-0.83824 0.90914,-0.28994 2.27836,-0.62595 3.04271,-0.74669 0.76434,-0.12074 2.22315,-0.41991 3.2418,-0.66481 2.68178,-0.64476 5.77782,-0.91534 13.09687,-1.1446 3.61962,-0.11338 6.7744,-0.3306 7.14375,-0.49188 0.85978,-0.37543 3.73931,-3.42235 4.20098,-4.44518 0.19704,-0.43656 0.46381,-0.97234 0.59281,-1.19062 0.12901,-0.21828 0.34599,-0.6532 0.48219,-0.96649 0.1362,-0.31328 0.38043,-0.65168 0.54274,-0.752 0.16231,-0.10031 0.66636,-0.97508 1.1201,-1.94393 0.76546,-1.63442 0.83357,-2.01807 0.94392,-5.31634 0.0963,-2.87976 0.21668,-3.72885 0.63372,-4.47135 0.41303,-0.73538 0.44592,-0.96024 0.16636,-1.13751 -0.19165,-0.12152 -0.44069,-0.22277 -0.55343,-0.225 -0.11274,-0.002 -0.32305,-0.31459 -0.46736,-0.69414 -0.23854,-0.62742 -0.35208,-0.67333 -1.25022,-0.50549 -1.23204,0.23023 -1.72282,0.62132 -1.56018,1.24324 0.13669,0.52271 -0.21271,0.65912 -0.49954,0.19503 -0.55273,-0.89434 -5.14584,-1.81945 -5.14584,-1.03644 0,0.14552 -0.31493,0.26458 -0.69984,0.26458 -0.74087,0 -4.18184,1.55136 -5.51787,2.48773 -0.43656,0.30597 -0.99597,0.67508 -1.24313,0.82023 -0.24716,0.14516 -0.92396,0.60212 -1.50399,1.01547 -0.58003,0.41335 -1.44937,0.85223 -1.93186,0.97529 -0.4825,0.12306 -1.77024,0.46743 -2.86164,0.76527 -1.09141,0.29784 -2.60243,0.54357 -3.35783,0.54606 -0.75539,0.003 -1.44703,0.1236 -1.53696,0.26912 -0.0899,0.14552 -0.40801,0.26458 -0.70683,0.26458 -0.29882,0 -1.63125,0.55244 -2.96095,1.22763 -2.00774,1.01949 -2.63072,1.21682 -3.67441,1.16385 -2.99403,-0.15195 -5.54212,-0.0788 -8.13594,0.23352 -3.08918,0.37198 -14.83978,0.20241 -16.93333,-0.24437 -0.65485,-0.13974 -1.63267,-0.3204 -2.17294,-0.40145 -0.75896,-0.11386 -1.15,-0.38439 -1.71979,-1.18978 -0.59825,-0.84561 -1.06217,-1.14959 -2.45727,-1.61011 -0.94589,-0.31223 -1.8329,-0.67202 -1.97115,-0.79953 -0.13824,-0.12751 -0.43695,-0.23184 -0.66379,-0.23184 -0.22684,0 -1.46941,-0.5394 -2.76127,-1.19866 -1.29185,-0.65927 -2.39793,-1.14956 -2.45794,-1.08955 -0.29773,0.29772 0.28414,1.49446 0.72663,1.49446 1.31659,0 3.68793,1.62842 3.68793,2.53253 0,0.43875 -0.24906,0.733 -0.85989,1.0159 -1.23069,0.56999 -4.07728,1.00122 -5.6224,0.85174 -3.68607,-0.35661 -4.99788,-0.41353 -4.36562,-0.18944 0.3638,0.12894 0.98888,0.24631 1.38906,0.26081 0.40018,0.0145 0.7276,0.13598 0.7276,0.26994 0,0.25357 0.59269,0.40254 2.71198,0.68167 0.69123,0.091 1.25677,0.27729 1.25677,0.4139 0,0.35181 -3.78365,0.30925 -4.67913,-0.0526 -0.40965,-0.16555 -1.16154,-0.37591 -1.67087,-0.46747 -0.78941,-0.14192 -0.92786,-0.27394 -0.93841,-0.89488 -0.023,-1.35364 0.0845,-1.38522 4.43476,-1.30241 3.71457,0.0707 6.56944,-0.23376 6.551,-0.69864 -0.004,-0.0946 -0.50977,-0.4017 -1.12448,-0.68238 -0.61471,-0.28069 -1.29793,-0.69741 -1.51826,-0.92605 -0.22033,-0.22864 -0.63092,-0.54388 -0.91242,-0.70053 -1.08606,-0.60439 -0.99801,-2.82117 0.11842,-2.98145 0.34968,-0.0502 0.76152,0.0789 0.9152,0.28691 0.15367,0.20799 0.61119,0.46079 1.0167,0.56176 0.40551,0.10098 1.47707,0.52113 2.38125,0.93366 0.90417,0.41254 1.90532,0.83185 2.22477,0.9318 1.55677,0.48709 3.93727,1.92813 4.24342,2.56877 0.18234,0.38154 0.50344,0.83639 0.71357,1.01078 0.58797,0.48797 13.8433,0.91025 18.51962,0.58999 2.07978,-0.14243 4.00659,-0.37732 4.28179,-0.52196 0.2752,-0.14464 1.00638,-0.47189 1.62484,-0.72721 0.61847,-0.25532 1.12448,-0.5405 1.12448,-0.63374 0,-0.23843 2.2322,-0.80844 3.16589,-0.80844 0.42738,0 1.44966,0.17519 2.27174,0.38932 1.31573,0.3427 1.60627,0.3427 2.42647,0 0.51248,-0.21413 1.36372,-0.39455 1.89165,-0.40094 0.52793,-0.006 1.43613,-0.18318 2.01821,-0.39289 0.58209,-0.2097 1.32784,-0.38307 1.65724,-0.38526 0.32939,-0.002 0.80564,-0.11607 1.05833,-0.25306 0.25269,-0.13699 1.17381,-0.45661 2.04693,-0.71026 0.87313,-0.25366 1.95593,-0.73689 2.40623,-1.07385 0.45029,-0.33695 0.91573,-0.61265 1.03429,-0.61265 0.11856,0 0.8471,-0.47681 1.61899,-1.05959 1.27718,-0.96428 1.79444,-1.24526 3.40716,-1.85082 0.29104,-0.10928 0.85443,-0.32905 1.25197,-0.48836 1.41766,-0.56814 4.05236,-0.67001 5.45584,-0.21096 1.16914,0.38241 1.3942,0.38641 2.06468,0.0367 0.41388,-0.21586 1.05612,-0.39321 1.4272,-0.39411 0.37107,-8.9e-4 0.81878,-0.14572 0.9949,-0.32184 0.25057,-0.25057 0.51783,-0.11677 1.22873,0.61514 0.49968,0.51444 1.37896,1.0763 1.95396,1.24858 1.00849,0.30215 1.89459,0.20251 1.89459,-0.21304 0,-0.11024 0.35529,-0.60351 0.78953,-1.09617 0.43423,-0.49267 0.79142,-1.04458 0.79375,-1.22648 0.002,-0.1819 0.10454,-0.33073 0.22714,-0.33073 0.12261,0 0.4397,-0.40254 0.70466,-0.89453 0.31823,-0.59092 1.07325,-1.23269 2.22448,-1.89082 0.9585,-0.54795 2.15945,-1.34018 2.66878,-1.7605 1.23721,-1.02102 1.35661,-1.11151 2.16989,-1.64438 0.38551,-0.2526 0.82271,-0.8086 0.97155,-1.23556 0.25946,-0.74432 0.23848,-0.7763 -0.50937,-0.7763 -1.07419,0 -1.11911,-0.97181 -0.0524,-1.1334 0.5737,-0.0869 0.51374,-0.11861 -0.28348,-0.14987 -1.04615,-0.041 -1.92438,-0.62934 -1.636,-1.09595 0.27611,-0.44675 -1.43955,-0.3027 -2.33917,0.19641 -0.45902,0.25466 -0.87426,0.55232 -0.92277,0.66146 -0.0485,0.10914 -0.2579,0.19844 -0.46531,0.19844 -0.20742,0 -0.84749,0.34073 -1.42239,0.75718 -0.57489,0.41646 -1.43706,0.91571 -1.91593,1.10946 -0.47887,0.19375 -0.93021,0.42905 -1.00297,0.52289 -0.17436,0.22488 -3.75407,1.57922 -4.17409,1.57922 -0.30636,0 -2.18536,0.85096 -3.36653,1.52464 -0.29104,0.16599 -0.94589,0.47261 -1.45521,0.68138 -3.36672,1.37997 -4.03473,1.5457 -7.18141,1.78174 -1.7983,0.1349 -4.04354,0.35155 -4.98942,0.48145 -0.94589,0.1299 -2.91042,0.36961 -4.36563,0.53268 -1.45521,0.16306 -3.30068,0.41218 -4.10104,0.55358 -0.80036,0.1414 -2.83724,0.33566 -4.52639,0.43169 -2.56488,0.14582 -3.21495,0.10288 -3.94325,-0.26045 -0.47964,-0.23927 -1.03399,-0.43505 -1.23189,-0.43505 -0.36358,0 -0.56685,-0.0829 -2.16002,-0.88127 -1.20228,-0.60247 -2.8197,-0.5544 -4.22425,0.12553 -1.10655,0.53567 -1.29856,0.54909 -3.45697,0.24161 -1.25695,-0.17907 -2.55885,-0.43429 -2.89312,-0.56718 -0.33427,-0.13288 -1.28677,-0.23926 -2.11666,-0.2364 -0.8299,0.003 -3.74736,-0.19923 -6.48324,-0.44908 -4.37562,-0.3996 -5.39468,-0.41204 -8.46667,-0.10339 -6.73814,0.677 -7.44815,0.78535 -8.784,1.34052 -0.29104,0.12095 -1.06495,0.35629 -1.71979,0.52297 -0.65484,0.16669 -1.57821,0.40258 -2.05193,0.52421 -0.90776,0.23307 -1.34337,-0.0154 -0.78943,-0.45035 0.1803,-0.14156 0.92313,-0.47384 1.65074,-0.73839 0.7276,-0.26455 1.3663,-0.51318 1.41932,-0.55251 0.053,-0.0393 -0.21262,-0.40516 -0.59033,-0.81295 -0.37771,-0.40779 -1.3681,-1.57488 -2.20087,-2.59352 -1.87632,-2.29512 -4.1751,-4.63021 -4.55821,-4.63021 -0.15819,0 -0.28762,-0.11906 -0.28762,-0.26459 0,-0.14552 -0.1765,-0.26458 -0.39222,-0.26458 -0.21572,0 -1.19798,-0.49749 -2.18281,-1.10554 -0.98483,-0.60805 -2.37665,-1.39213 -3.09295,-1.74241 -0.71629,-0.35027 -1.78991,-1.13853 -2.38583,-1.75168 -1.653,-1.70082 -3.89453,-3.4498 -4.91768,-3.8371 -0.50553,-0.19136 -1.15726,-0.44548 -1.4483,-0.56471 -0.29105,-0.11923 -1.00542,-0.29701 -1.5875,-0.39506 -0.58209,-0.098 -1.40475,-0.24291 -1.82815,-0.3219 -0.6775,-0.12641 -0.74361,-0.0838 -0.55132,0.35561 0.31118,0.71101 0.31014,1.80845 -0.002,1.89879 -0.14552,0.0422 -0.30081,-0.15228 -0.34508,-0.43207 -0.28401,-1.7949 -5.20049,-3.64168 -7.79049,-2.92635 -0.61867,0.17086 -2.16857,0.30903 -3.44422,0.30704 -1.27565,-0.002 -2.37975,0.0941 -2.45356,0.21351 -0.0738,0.11942 -0.69697,0.29216 -1.3848,0.38386 -1.34292,0.17903 -2.22558,0.44853 -3.89644,1.18969 -1.86252,0.82618 -3.51436,2.71705 -2.77354,3.1749 0.54049,0.33404 -0.29228,1.51306 -1.55693,2.20426 -1.64078,0.89677 -2.03068,1.80937 -1.97936,4.63287 0.0221,1.21537 0.17092,2.34051 0.33073,2.50031 0.15981,0.15981 0.29056,0.63131 0.29056,1.04778 0,1.00553 1.19621,3.51272 2.29346,4.80697 0.48485,0.5719 0.88154,1.18424 0.88154,1.36076 0,0.17652 0.1695,0.38598 0.37667,0.46548 0.20716,0.0795 0.88344,0.83638 1.50285,1.68195 0.6194,0.84558 1.96794,2.38398 2.99677,3.41867 1.02882,1.03468 2.40637,2.55965 3.06121,3.38882 0.65485,0.82916 1.39678,1.76854 1.64874,2.0875 0.25197,0.31896 0.5819,0.72641 0.73318,0.90546 0.15129,0.17904 0.34374,0.71482 0.42768,1.19062 0.084,0.4758 0.37909,1.36981 0.65589,1.98669 0.27679,0.61688 0.50326,1.29446 0.50326,1.50574 0,0.21128 0.11906,0.45773 0.26458,0.54767 0.14553,0.0899 0.26459,0.36536 0.26459,0.61205 0,0.2467 0.47625,1.43039 1.05833,2.63043 0.58208,1.20004 1.05833,2.36039 1.05833,2.57856 0,0.21817 0.0999,0.39666 0.22202,0.39666 0.12211,0 0.44953,0.47489 0.72761,1.0553 0.27807,0.58042 0.59488,1.05667 0.70402,1.05834 0.10914,0.002 0.19844,0.16424 0.19844,0.36127 0,0.19703 0.29791,0.6797 0.66203,1.07259 0.81911,0.88383 1.45463,2.08458 1.45463,2.74836 0,0.27571 0.2358,0.71469 0.524,0.9755 0.28819,0.26082 0.60137,0.90435 0.69595,1.43007 0.0946,0.52573 0.26225,1.07493 0.37258,1.22045 0.11034,0.14552 0.2851,1.00872 0.38836,1.91823 0.1479,1.30275 0.11205,1.6545 -0.16897,1.6577 -0.27597,0.003 -0.26839,0.0599 0.0335,0.25081 0.3415,0.21596 0.33377,0.42183 -0.0619,1.64959 -0.24867,0.77156 -0.57933,1.91498 -0.7348,2.54094 -0.15548,0.62596 -0.45504,1.20424 -0.6657,1.28508 -0.21065,0.0808 -0.38301,0.26414 -0.38301,0.40734 0,0.14319 -0.41598,0.74634 -0.92441,1.34033 -0.50843,0.59398 -0.8526,1.14869 -0.76483,1.23268 0.0878,0.084 0.35493,-0.14236 0.59369,-0.503 0.23875,-0.36064 0.64246,-0.86666 0.89712,-1.12448 0.25466,-0.25782 0.46302,-0.58782 0.46302,-0.73335 0,-0.39302 0.41805,-0.32039 0.79918,0.13884 0.23271,0.2804 0.28994,0.946 0.18767,2.18281 -0.15308,1.85136 0.02,4.29268 0.30433,4.29328 0.0902,1.9e-4 0.12386,-1.37513 0.0748,-3.05627 -0.0969,-3.31899 0.0284,-4.12138 0.56094,-3.5909 0.18406,0.18337 0.38688,1.42103 0.47334,2.88852 l 0.15129,2.56768 0.0471,-2.93246 c 0.0259,-1.61286 0.12468,-3.00999 0.21943,-3.10474 0.23474,-0.23475 0.86724,0.63624 0.87764,1.20856 0.005,0.25466 0.0977,0.46346 0.20685,0.46401 0.10914,5.5e-4 0.4255,0.56609 0.70302,1.25677 0.27751,0.69068 0.84306,1.72572 1.25677,2.30009 0.72108,1.00112 0.75219,1.01571 0.75219,0.35278 0,-0.38034 -0.10457,-0.73122 -0.23237,-0.77973 -0.12781,-0.0485 -0.54453,-0.55129 -0.92604,-1.1173 -0.5386,-0.79906 -0.69367,-1.35275 -0.69367,-2.47683 0,-1.30583 0.10542,-1.57362 1.07574,-2.73257 0.97845,-1.16864 1.12802,-1.25572 1.65365,-0.96276 1.11659,0.62235 2.03311,1.61773 2.03311,2.20807 0,0.32799 0.11906,0.66993 0.26458,0.75986 0.16587,0.10251 0.26458,-0.4686 0.26458,-1.53073 0,-1.66334 -0.0321,-1.73966 -1.75969,-4.1828 -0.96784,-1.3687 -2.02041,-2.78621 -2.33906,-3.15001 -0.51768,-0.59104 -0.82198,-1.17745 -2.12815,-4.10104 -0.86898,-1.94504 -1.18143,-2.8941 -1.18143,-3.58857 0,-0.41021 -0.11906,-0.81941 -0.26458,-0.90935 -0.14552,-0.0899 -0.26532,-0.36485 -0.26622,-0.61092 -8.9e-4,-0.24608 -0.17949,-0.78844 -0.39687,-1.20526 -0.21739,-0.41681 -0.39525,-0.92445 -0.39525,-1.12807 0,-0.20362 -0.11598,-0.57696 -0.25774,-0.82965 -0.2761,-0.49213 -1.31691,-3.66358 -1.844,-5.61881 -0.33197,-1.23143 -1.63521,-4.79521 -2.28839,-6.25769 -0.2048,-0.45856 -0.37237,-0.95655 -0.37237,-1.10665 0,-0.1501 -0.20835,-0.33962 -0.46302,-0.42116 -0.25466,-0.0815 -0.81572,-0.83369 -1.2468,-1.67147 -0.43108,-0.83778 -0.8599,-1.58277 -0.95293,-1.65553 -0.33007,-0.25816 -2.36433,-4.78051 -2.36433,-5.25613 0,-0.47967 -0.73191,-2.16298 -1.05082,-2.41678 -0.27147,-0.21605 -1.59501,-3.15911 -1.59501,-3.54671 0,-0.19649 -0.16882,-0.49735 -0.37515,-0.66859 -0.29489,-0.24475 -0.36625,-1.10066 -0.33357,-4.00115 0.0229,-2.02939 0.11757,-3.6898 0.21046,-3.6898 0.0929,0 0.33229,0.1976 0.53201,0.43912 0.26354,0.31871 0.36312,1.3164 0.36312,3.63803 0,2.66678 0.0851,3.35293 0.51166,4.12493 0.28142,0.50932 0.8172,1.51092 1.19063,2.22576 l 0.67896,1.29973 3.175,0.0298 c 3.74612,0.0352 10.21138,0.62747 10.57011,0.96835 0.13824,0.13137 0.52519,0.23885 0.85989,0.23885 0.3347,0 0.60854,0.11906 0.60854,0.26458 0,0.14553 0.15842,0.26459 0.35204,0.26459 0.19362,0 0.93776,0.29716 1.65364,0.66035 0.71589,0.36319 1.40683,0.66085 1.53542,0.66146 0.61947,0.003 3.60265,4.94125 3.60265,5.96378 0,0.21303 0.10555,0.38732 0.23455,0.38732 0.12899,0 0.31899,0.56319 0.42221,1.25152 0.10323,0.68834 0.4144,1.56992 0.6915,1.95908 0.27711,0.38915 0.50383,0.82673 0.50383,0.9724 0,0.14567 0.42613,0.7749 0.94695,1.39829 0.52083,0.62338 1.20544,1.58623 1.52136,2.13966 0.31592,0.55342 0.72366,1.00715 0.90608,1.00827 0.18243,10e-4 0.75792,0.23048 1.27887,0.50969 0.88708,0.47545 0.97963,0.47964 1.4586,0.0661 0.28129,-0.24283 0.89642,-0.51514 1.36697,-0.60512 l 0.85554,-0.16361 -0.89687,-0.0348 c -1.3473,-0.0523 -2.12726,-1.39836 -1.23795,-2.13643 0.3742,-0.31055 8.27832,-0.44205 8.57767,-0.1427 0.0732,0.0732 -0.0963,0.30668 -0.37675,0.51883 -0.38364,0.29025 -1.42674,0.39546 -4.21401,0.42507 -3.18793,0.0339 -3.50232,0.0728 -2.25584,0.27935 0.79658,0.13201 1.56454,0.35621 1.70656,0.49824 0.14203,0.14202 1.23672,0.25823 2.43264,0.25823 1.19592,0 2.36787,0.0742 2.60434,0.16498 0.39516,0.15164 0.39552,0.20301 0.004,0.63519 -0.2811,0.31061 -0.32988,0.52933 -0.14371,0.64438 0.49857,0.30814 0.3061,0.65083 -0.84266,1.50041 -0.84287,0.62335 -0.95883,0.78323 -0.46303,0.63839 0.36381,-0.10628 1.01865,-0.2566 1.45521,-0.33404 0.43657,-0.0774 0.95696,-0.27141 1.15643,-0.43105 0.19947,-0.15964 1.86635,-0.37819 3.70417,-0.48567 1.83782,-0.10748 3.87727,-0.26865 4.53211,-0.35815 0.78523,-0.10732 2.09151,0.032 3.83646,0.40908 1.45521,0.3145 3.12208,0.66914 3.70417,0.78809 0.58208,0.11896 1.9513,0.41666 3.0427,0.66158 1.09141,0.24491 2.87735,0.54346 3.96875,0.66345 1.09141,0.11999 2.81782,0.36108 3.83646,0.53576 2.20646,0.37836 8.95731,0.3856 9.60111,0.0103 0.29138,-0.16986 0.32829,-0.26698 0.10343,-0.27216 -0.19229,-0.004 -0.53281,-0.19123 -0.7567,-0.41512 -0.34539,-0.34539 -0.95813,-0.3798 -4.04336,-0.22709 -2.48697,0.1231 -3.69172,0.0903 -3.81167,-0.10381 -0.27314,-0.44195 0.27423,-0.64323 2.45047,-0.90112 5.33475,-0.63218 4.86626,-0.68031 6.43658,0.66125 1.11868,0.95573 1.50008,1.14765 1.86966,0.94082 0.53158,-0.29749 1.51194,-0.0664 1.51194,0.35642 0,0.78983 -1.71826,1.2961 -2.32833,0.68602 -0.24695,-0.24694 -0.38806,-0.24694 -0.635,0 -0.17463,0.17463 -0.58432,0.3175 -0.91043,0.3175 -0.32611,0 -0.65555,0.10134 -0.7321,0.22519 -0.39868,0.64508 -7.04912,0.49415 -10.60768,-0.24075 -0.72761,-0.15026 -2.09682,-0.38772 -3.04271,-0.52768 -3.58313,-0.53021 -5.18277,-0.82852 -5.89373,-1.09912 -0.57774,-0.2199 -0.83166,-0.19326 -1.19063,0.12493 -0.31331,0.27772 -1.53395,0.49817 -3.89585,0.7036 -3.27701,0.28502 -5.70612,0.74322 -6.11669,1.15379 -0.10407,0.10407 -0.43726,0.18862 -0.74043,0.1879 -0.48268,-0.001 -2.07553,0.45317 -3.72621,1.06279 -1.31326,0.485 -3.54322,1.05512 -4.1243,1.05443 -0.85304,-10e-4 -3.14004,0.92054 -8.16463,3.28997 -0.79256,0.37375 -1.61475,0.67954 -1.82711,0.67954 -0.45744,0 -2.12115,1.20395 -2.685,1.94301 -0.21828,0.28611 -0.6741,0.76965 -1.01294,1.07453 -1.62242,1.45986 -2.29467,2.00954 -2.45763,2.00954 -0.0977,0 -0.56809,0.36474 -1.04531,0.81053 -0.47723,0.4458 -1.22128,1.08727 -1.65347,1.4255 l -0.78578,0.61498 0.56715,0.60876 c 0.31193,0.33482 0.56714,0.689 0.56714,0.78707 0,0.0981 0.35719,0.62778 0.79375,1.17712 0.74399,0.93619 0.79375,1.14249 0.79375,3.29076 0,1.26057 0.10883,2.40506 0.24183,2.5433 0.133,0.13825 0.28183,0.60854 0.33073,1.04511 0.0765,0.68311 -0.006,0.80476 -0.58977,0.87274 -1.00257,0.11671 -2.03179,-1.03465 -2.25491,-2.52249 -0.17312,-1.15448 -0.76318,-2.18671 -1.25,-2.18671 -0.12623,0 -0.453,0.26789 -0.72614,0.59531 -0.79223,0.94966 -0.70443,3.42398 0.16181,4.55968 0.56504,0.74079 0.6628,1.11806 0.59532,2.29745 -0.0711,1.24335 -0.14365,1.4006 -0.60991,1.32274 -0.74943,-0.12513 -1.88046,-1.26868 -2.50733,-2.53508 l -0.53496,-1.08073 -2.1e-4,2.29949 c -1.2e-4,1.30728 -0.11901,2.37292 -0.27555,2.46966 -0.15144,0.0936 -0.20828,0.38147 -0.12632,0.63972 0.27779,0.87523 -0.47167,1.14479 -1.89008,0.67981 l -1.28013,-0.41964 -0.0424,-1.73923 c -0.0233,-0.95658 -0.17216,-1.86897 -0.33073,-2.02754 -0.36145,-0.36145 -0.37793,-1.68335 -0.0237,-1.90227 0.14553,-0.0899 0.25078,-0.48391 0.2339,-0.87551 -0.0228,-0.5292 -0.0641,-0.58094 -0.16083,-0.20153 -0.14846,0.58233 -0.70846,1.20933 -1.0801,1.20933 -0.1381,0 -0.38961,0.16692 -0.55892,0.37092 -0.16931,0.204 -0.62397,0.45026 -1.01037,0.54724 -0.38639,0.097 -1.33392,0.82304 -2.10563,1.61346 -0.77171,0.79042 -1.56075,1.43713 -1.75342,1.43713 -0.19267,0 -1.02804,0.6617 -1.85638,1.47043 -0.82833,0.80874 -1.91437,1.64104 -2.41342,1.84955 -0.49905,0.20852 -1.00321,0.53777 -1.12036,0.73167 -0.20351,0.33682 -2.34443,2.03633 -4.13342,3.28119 -0.46315,0.32228 -1.36201,1.03665 -1.99746,1.5875 -1.51802,1.3159 -3.73363,2.72133 -4.29007,2.72133 -0.24359,0 -0.58141,0.16691 -0.75072,0.37092 -0.16931,0.204 -0.61374,0.44769 -0.98764,0.54153 -0.37389,0.0938 -1.17268,0.39639 -1.77508,0.67232 -0.60241,0.27594 -1.75013,0.69667 -2.55049,0.93496 -0.80037,0.23828 -1.7287,0.54273 -2.06297,0.67655 -0.33427,0.13382 -0.78647,0.2433 -1.0049,0.2433 -0.21842,0 -1.07602,0.44381 -1.90578,0.98625 l -1.50864,0.98624 -8.33438,0.0748 c -4.5839,0.0411 -8.78086,0.0736 -9.32656,0.0721 -0.5457,-10e-4 -0.99219,0.0905 -0.99219,0.20442 0,0.1139 0.84079,0.15958 1.86841,0.10151 1.63355,-0.0923 1.94474,-0.0339 2.47561,0.46485 0.33395,0.31373 1.04098,0.64082 1.57117,0.72686 0.72841,0.1182 0.96398,0.28335 0.96398,0.6758 0,0.46586 -0.1295,0.50276 -1.25677,0.35805 -1.20808,-0.15507 -3.03858,0.25233 -3.20629,0.7136 -0.18468,0.50798 0.13996,0.78873 0.63925,0.55284 0.28408,-0.13422 1.16836,-0.24059 1.96507,-0.23638 1.16433,0.006 1.46664,0.0985 1.54075,0.47068 0.0701,0.35202 -0.0869,0.46504 -0.6548,0.47143 -0.41085,0.005 -0.94285,0.15744 -1.18223,0.33958 -0.3586,0.27285 -0.37675,0.41112 -0.10312,0.78533 0.18265,0.2498 0.56819,0.45418 0.85675,0.45418 0.28856,0 1.40653,0.62508 2.48437,1.38906 l 1.95973,1.38906 5.02708,0.0241 c 3.99928,0.0192 5.27051,0.11447 6.21771,0.46593 0.65484,0.24298 1.39898,0.5139 1.65364,0.60203 0.25467,0.0881 0.46303,0.26542 0.46303,0.39397 0,0.12855 0.28307,0.23372 0.62906,0.23372 0.81942,0 1.41924,0.66184 0.81126,0.89515 -0.6146,0.23584 -1.3861,0.2004 -1.55408,-0.0714 z m -20.45256,-9.99313 c -0.17913,-0.0725 -0.53632,-0.0769 -0.79375,-0.01 -0.25743,0.0671 -0.11087,0.12638 0.32569,0.13177 0.43656,0.005 0.64719,-0.0495 0.46806,-0.12197 z m -3.05326,-1.30922 c -0.0879,-0.0879 -0.31612,-0.0973 -0.50712,-0.0209 -0.21106,0.0845 -0.14837,0.14716 0.15986,0.15986 0.27891,0.0115 0.43518,-0.051 0.34726,-0.13897 z m 19.2436,-1.94006 c 0.19237,-0.31127 1.70444,-1.07509 2.12826,-1.07509 0.17425,0 0.84057,-0.27756 1.4807,-0.6168 0.64014,-0.33925 1.57775,-0.69884 2.08358,-0.7991 0.50583,-0.10026 1.3988,-0.41018 1.98438,-0.68871 0.58557,-0.27853 1.75135,-0.73459 2.59061,-1.01347 0.83926,-0.27887 1.5855,-0.56661 1.65831,-0.63942 0.20245,-0.20245 -3.8118,0.0531 -5.24778,0.33405 -0.69839,0.13665 -2.39503,0.24845 -3.77032,0.24845 -2.3926,0 -2.50051,0.0249 -2.50051,0.57653 0,0.31709 -0.1291,1.0017 -0.28689,1.52136 -0.15778,0.51965 -0.38557,1.27224 -0.50618,1.67243 -0.20738,0.68806 0.0553,1.01465 0.38584,0.47977 z m -21.63703,-10.91428 c -0.0845,-0.21106 -0.14716,-0.14837 -0.15986,0.15985 -0.0115,0.27892 0.0511,0.43519 0.13897,0.34727 0.0879,-0.0879 0.0973,-0.31612 0.0209,-0.50712 z m -0.59848,-2.1332 c -0.0943,-0.76399 -0.39601,-1.78282 -0.67057,-2.26408 -0.27456,-0.48126 -0.49919,-1.08253 -0.49919,-1.33615 0,-0.25362 -0.095,-0.57423 -0.21121,-0.71248 -0.11616,-0.13824 -0.42392,-0.9062 -0.68392,-1.70656 -0.26,-0.80037 -0.56908,-1.69334 -0.68685,-1.98438 -0.65711,-1.62386 -1.06386,-3.00978 -1.06386,-3.62493 0,-0.38325 -0.24699,-1.27224 -0.54886,-1.97553 -0.86376,-2.01233 -1.63997,-6.1231 -1.94007,-10.27454 -0.20199,-2.79418 0.37456,-9.08874 0.89667,-9.78958 0.10841,-0.14552 0.27637,-0.78355 0.37324,-1.41784 0.0969,-0.63429 0.41079,-1.63892 0.69758,-2.23251 0.28679,-0.59359 0.52144,-1.29097 0.52144,-1.54975 0,-0.60065 0.82316,-2.34053 1.10734,-2.34053 0.11857,0 0.21558,-0.12088 0.21558,-0.26863 0,-0.46415 2.71433,-4.04704 3.93856,-5.19887 0.64413,-0.60603 1.47997,-1.26069 1.85744,-1.45479 0.37746,-0.1941 0.74582,-0.41374 0.81858,-0.48809 0.31699,-0.32394 2.39195,-1.58545 2.60777,-1.58545 0.13082,0 0.38607,-0.17859 0.56723,-0.39687 0.18116,-0.21829 0.55293,-0.39688 0.82615,-0.39688 0.27322,0 0.49677,-0.0901 0.49677,-0.20016 0,-0.29766 2.01463,-0.88884 3.96875,-1.16461 5.16058,-0.72827 6.70821,-0.81815 9.22027,-0.53549 5.66472,0.63741 6.64108,0.83665 8.65253,1.76576 1.10528,0.51054 2.06615,0.92825 2.13527,0.92825 0.0691,0 0.77712,0.41672 1.57332,0.92604 0.7962,0.50933 1.62553,0.92604 1.84296,0.92604 0.65785,0 2.19744,1.01533 4.01671,2.64894 0.32223,0.28933 0.66063,0.52606 0.75202,0.52606 0.46717,0 4.62968,3.73136 4.46313,4.00084 -0.07,0.11327 0.13524,0.34645 0.45611,0.51817 0.32087,0.17172 1.09474,0.86231 1.71971,1.53463 l 1.13632,1.22241 0.007,-0.99219 c 0.004,-0.5457 -0.0853,-0.99219 -0.19866,-0.99219 -0.25877,0 -1.79014,-1.48671 -2.83656,-2.75384 -0.43656,-0.52865 -1.81945,-2.01694 -3.07309,-3.30732 -1.25363,-1.29038 -2.79693,-3.1334 -3.42955,-4.09562 -0.63262,-0.96221 -1.24402,-1.74947 -1.35868,-1.74947 -0.11466,0 -0.20847,-0.13477 -0.20847,-0.2995 0,-0.16472 -0.26719,-0.73027 -0.59376,-1.25677 -0.32657,-0.5265 -0.59446,-1.02077 -0.59532,-1.09838 -8.5e-4,-0.0776 -0.41994,-0.55951 -0.9313,-1.07087 -0.60668,-0.60667 -1.06116,-1.41229 -1.30788,-2.31832 -0.23767,-0.87281 -0.71244,-1.73281 -1.27822,-2.31536 -0.79697,-0.82062 -1.10183,-0.9462 -2.66087,-1.09608 -2.79247,-0.26846 -12.97931,-0.16349 -14.72536,0.15174 -3.15351,0.56932 -6.93555,1.46652 -7.16992,1.7009 -0.10687,0.10687 -0.43838,0.19431 -0.73668,0.19431 -0.73742,0 -2.83927,0.81568 -3.38649,1.31422 -0.24484,0.22306 -0.89969,0.64255 -1.45521,0.9322 -0.55551,0.28965 -1.06956,0.58765 -1.14232,0.66221 -0.0728,0.0746 -0.806,0.5757 -1.62941,1.11362 -1.84302,1.20402 -6.25394,5.58355 -6.72894,6.68105 -0.19188,0.44334 -0.71095,1.34185 -1.1535,1.9967 -0.44255,0.65484 -0.80515,1.32953 -0.80577,1.4993 -6.2e-4,0.16978 -0.10212,0.34837 -0.22555,0.39688 -0.38941,0.15303 -1.62772,2.59442 -1.62636,3.20644 0.001,0.51488 -0.46254,2.15139 -1.06563,3.76092 -1.1855,3.1639 -1.59234,8.05629 -1.04566,12.57465 0.24831,2.05231 0.44568,2.86601 1.05729,4.35868 0.44852,1.09463 1.0527,3.15355 1.0527,3.58737 0,0.24771 0.7648,1.93599 1.69955,3.75172 0.93476,1.81573 1.73843,3.52662 1.78594,3.80196 0.0475,0.27534 0.29474,0.73143 0.5494,1.01353 0.25466,0.2821 0.46302,0.64051 0.46302,0.79645 0,0.15595 0.26789,0.57999 0.59531,0.9423 0.83771,0.92698 1.93742,2.66189 2.18076,3.44035 0.11312,0.3619 0.2938,0.71752 0.4015,0.79028 0.10771,0.0728 0.55875,0.7067 1.00232,1.40876 0.66747,1.05645 1.80293,2.41706 2.11308,2.53208 0.0414,0.0154 -0.002,-0.59717 -0.0961,-1.36115 z m 176.21465,-4.49792 c -0.12526,-3.01346 -0.40048,-4.77692 -0.89948,-5.76337 -0.11283,-0.22306 -0.2935,-0.81837 -0.40148,-1.32292 -0.25295,-1.18197 -3.07955,-7.29435 -3.54423,-7.66423 -0.0914,-0.0728 -0.499,-0.57877 -0.90576,-1.12448 -0.40676,-0.5457 -0.85457,-0.99219 -0.99513,-0.99219 -0.14057,0 -0.75959,-0.50601 -1.3756,-1.12447 -0.61602,-0.61847 -1.56651,-1.35159 -2.11222,-1.62917 -0.5457,-0.27758 -0.99218,-0.5886 -0.99218,-0.69117 0,-0.10257 -0.64292,-0.26206 -1.4287,-0.35441 -0.78579,-0.0923 -1.88711,-0.3929 -2.4474,-0.66789 -1.10108,-0.5404 -3.20882,-0.94826 -7.3687,-1.42587 -5.64402,-0.648 -10.49923,-0.18471 -17.06562,1.62843 -1.09141,0.30136 -2.42724,0.55074 -2.96851,0.55416 -0.54128,0.003 -1.38277,0.23012 -1.86999,0.50377 -0.48721,0.27366 -1.29059,0.58645 -1.7853,0.69511 -0.93262,0.20483 -1.14925,0.29153 -2.54515,1.01853 -0.45901,0.23906 -1.02618,0.43465 -1.26036,0.43465 -0.23418,0 -0.63253,0.10517 -0.88522,0.23372 -0.8911,0.4533 -1.79108,0.78528 -2.57609,0.95025 -0.72072,0.15146 -3.57375,1.42359 -6.38141,2.84539 -0.66064,0.33455 -1.28084,0.4785 -1.57509,0.36559 -0.40066,-0.15375 -0.27975,-0.29485 0.69286,-0.80857 3.67578,-1.94148 6.10737,-3.07501 6.89802,-3.21562 0.49213,-0.0875 1.49009,-0.43838 2.2177,-0.77969 3.64978,-1.71203 5.21797,-2.28374 7.94152,-2.89518 1.01643,-0.22819 2.08619,-0.51753 2.37723,-0.64298 0.29104,-0.12546 1.48167,-0.43537 2.64583,-0.68871 3.05478,-0.66475 3.11892,-0.72791 0.95733,-0.94273 -1.59623,-0.15864 -2.10383,-0.11211 -2.77812,0.25467 -0.45377,0.24682 -1.71801,0.66301 -2.80942,0.92486 -1.0914,0.26184 -2.2225,0.57672 -2.51354,0.69972 -0.29104,0.123 -0.88635,0.28148 -1.32291,0.35218 -0.43657,0.0707 -1.27,0.25457 -1.85209,0.40859 -0.58208,0.15403 -2.03357,0.28289 -3.22553,0.28637 -1.19196,0.003 -2.24078,0.12537 -2.33072,0.27089 -0.0899,0.14552 -0.45127,0.26458 -0.80297,0.26458 -0.89781,0 -2.27492,0.89975 -2.758,1.80197 -0.72556,1.35508 -1.97139,2.8703 -2.99432,3.64179 -0.55131,0.4158 -0.93984,0.90775 -0.86694,1.09772 0.0957,0.24951 -0.048,0.29904 -0.52232,0.17999 -0.40134,-0.10073 -0.65441,-0.0508 -0.65441,0.12902 0,0.16129 -0.14257,0.29326 -0.31682,0.29326 -0.25595,0 -4.29413,1.866 -6.36969,2.94337 -0.25784,0.13384 -1.03175,0.31674 -1.71979,0.40644 -0.68804,0.0897 -1.48364,0.28285 -1.76799,0.42922 -0.28434,0.14636 -1.87012,0.24919 -3.52395,0.22851 -2.91085,-0.0364 -5.3734,0.41241 -5.76827,1.05132 -0.0791,0.12805 -0.42749,0.23281 -0.77411,0.23281 -0.34663,0 -0.70381,0.11906 -0.79375,0.26458 -0.0899,0.14553 -0.36486,0.26532 -0.61093,0.26622 -0.24607,8.9e-4 -0.78844,0.17949 -1.20525,0.39687 -0.41682,0.21739 -0.97534,0.39525 -1.24116,0.39525 -0.26582,0 -0.55174,0.11073 -0.63538,0.24606 -0.0836,0.13534 -0.83481,0.32183 -1.66926,0.41443 -0.83445,0.0926 -1.75531,0.27338 -2.04635,0.40175 -0.29105,0.12837 -0.75601,0.2693 -1.03325,0.31318 -0.57389,0.0908 -0.48945,0.14112 2.35616,1.40308 4.0796,1.8092 14.61661,2.50267 20.10824,1.32337 1.01859,-0.21874 2.29148,-0.39771 2.82865,-0.39771 0.53717,0 1.04059,-0.10342 1.11872,-0.22983 0.0781,-0.1264 0.59185,-0.30175 1.14163,-0.38967 0.54977,-0.0879 1.48317,-0.39348 2.07422,-0.67904 0.59105,-0.28556 1.42379,-0.60611 1.85054,-0.71233 0.42676,-0.10622 1.13311,-0.39281 1.56967,-0.63685 0.43656,-0.24405 1.25489,-0.5302 1.81851,-0.63589 0.56362,-0.10569 1.21846,-0.28919 1.45521,-0.40778 0.23674,-0.11859 0.7281,-0.3406 1.0919,-0.49336 0.73956,-0.31054 3.85492,-1.73454 6.11095,-2.79327 0.81441,-0.38219 1.62353,-0.69489 1.79806,-0.69489 0.17452,0 1.90049,-0.77391 3.83547,-1.71979 1.93498,-0.94589 3.7687,-1.7198 4.07492,-1.7198 0.30622,0 1.11658,-0.29765 1.8008,-0.66145 0.68422,-0.36381 1.44061,-0.66146 1.68088,-0.66146 0.24026,0 0.54995,-0.0946 0.68819,-0.21024 0.2923,-0.24448 2.53449,-0.92209 4.59824,-1.38962 1.8295,-0.41446 7.56867,-0.4101 8.91422,0.007 0.56452,0.1749 1.44312,0.4423 1.95244,0.59421 1.94978,0.58158 6.61332,3.08377 7.6274,4.09243 0.19325,0.19222 0.5802,0.47196 0.8599,0.62165 0.27969,0.14968 0.50853,0.42451 0.50853,0.61072 0,0.18621 0.40281,0.53065 0.89514,0.76542 0.49232,0.23477 1.29599,0.93036 1.78593,1.54575 0.48995,0.61539 1.42659,1.66901 2.08143,2.34137 1.49827,1.53834 2.38125,2.68615 2.38125,3.09545 0,0.17457 0.0893,0.35708 0.19844,0.40559 0.25161,0.11183 1.14899,1.69975 2.2508,3.98285 0.47193,0.97789 0.94369,1.78156 1.04835,1.78593 0.10467,0.004 0.12968,-1.45056 0.0556,-3.23319 z m -108.94117,-4.48138 c -0.0845,-0.21106 -0.14716,-0.14837 -0.15986,0.15985 -0.0115,0.27892 0.051,0.43519 0.13897,0.34727 0.0879,-0.0879 0.0973,-0.31612 0.0209,-0.50712 z m -2.03525,-9.07559 c 0.26876,-0.32385 0.17775,-0.57105 -0.51144,-1.38907 -0.46111,-0.54731 -1.07449,-1.27825 -1.36307,-1.62433 -0.84349,-1.01153 -0.84393,-0.49583 -10e-4,1.32502 1.04479,2.25727 1.25012,2.4421 1.87565,1.68838 z m 1.8545,-1.9839 c 0,-0.13341 0.56512,-0.63137 1.25581,-1.10658 1.27925,-0.88015 2.71294,-2.21553 2.71294,-2.52691 0,-0.29066 -1.13287,-1.39673 -1.43518,-1.40122 -0.39438,-0.006 -1.7266,-1.25229 -2.62245,-2.45358 -0.41122,-0.55143 -1.21614,-1.31261 -1.78871,-1.69152 -0.59117,-0.39122 -1.34325,-1.24422 -1.74043,-1.97396 -0.38467,-0.70678 -0.80522,-1.28505 -0.93454,-1.28505 -0.37091,0 -2.85577,-2.58191 -2.85577,-2.96731 0,-0.19067 -0.31768,-0.58329 -0.70596,-0.87249 -0.38828,-0.2892 -1.04258,-0.88301 -1.45399,-1.31957 -0.71717,-0.76102 -0.74807,-0.7692 -0.74924,-0.19844 -6.7e-4,0.32742 0.0943,0.59531 0.21109,0.59531 0.11678,0 0.42649,0.62508 0.68826,1.38907 0.26177,0.76398 0.63604,1.75069 0.83173,2.19268 0.64003,1.44567 1.97186,5.77513 1.97186,6.41007 0,1.20046 1.12833,3.07502 2.922,4.85452 0.99675,0.98886 2.00938,2.09877 2.2503,2.46647 0.35571,0.54287 0.53242,0.61802 0.94016,0.3998 0.27617,-0.1478 0.50212,-0.37788 0.50212,-0.51129 z m 4.89042,-4.75882 c 0.0875,-0.14163 0.60057,-0.44919 1.14009,-0.68348 0.53953,-0.23428 1.15955,-0.53989 1.37783,-0.67912 0.21828,-0.13923 1.08148,-0.57416 1.91823,-0.9665 0.83674,-0.39234 1.52135,-0.78319 1.52135,-0.86856 0,-0.0854 -0.50601,-0.4139 -1.12448,-0.73009 -0.61846,-0.31619 -1.87788,-1.28979 -2.7987,-2.16356 -0.92082,-0.87378 -1.77227,-1.58869 -1.89211,-1.58869 -0.24778,0 -12.44096,-12.11229 -12.44096,-12.35843 0,-0.0881 -0.80367,-0.95587 -1.78594,-1.9284 -0.98226,-0.97254 -1.9773,-1.99562 -2.21119,-2.27352 -1.10527,-1.31324 -5.60004,-5.40006 -5.93909,-5.40006 -0.58504,0 -0.46569,1.16547 0.26436,2.58162 0.3558,0.69016 0.85319,1.73109 1.10532,2.31317 0.25213,0.58208 0.65979,1.35599 0.9059,1.71979 0.2461,0.3638 0.53917,0.95912 0.65126,1.32292 0.11208,0.3638 0.62876,1.3163 1.14817,2.11666 0.5194,0.80037 1.21671,1.98039 1.54957,2.62228 0.33286,0.64189 1.6475,2.21208 2.92144,3.48932 3.74095,3.75066 5.42613,5.57768 6.50596,7.05358 0.5581,0.7628 1.10599,1.38691 1.21753,1.38691 0.28584,0 1.86879,1.54373 1.86879,1.82248 0,0.37658 2.02205,2.34516 2.59597,2.52731 0.29158,0.0925 0.59694,0.34233 0.67858,0.55507 0.16986,0.44264 0.58784,0.50838 0.82212,0.1293 z m 89.73842,-3.02614 c -0.69909,-0.64184 -1.53106,-1.23224 -1.84882,-1.31199 -0.31776,-0.0797 -1.04311,-0.57126 -1.61189,-1.09225 l -1.03415,-0.94724 -0.94772,0.92056 c -0.52124,0.50631 -1.3049,1.06209 -1.74147,1.23507 -0.76458,0.30295 -0.71597,0.3278 1.32292,0.67629 1.16417,0.19899 2.39016,0.48127 2.72443,0.62729 0.33427,0.14602 0.92958,0.27087 1.32292,0.27743 0.39333,0.007 1.07234,0.17549 1.5089,0.37539 1.47579,0.67575 1.58166,0.41165 0.30488,-0.76055 z m -81.26738,-1.21706 c 0.57084,-0.21734 2.01351,-0.61136 3.70417,-1.01167 0.58208,-0.13783 1.59411,-0.43739 2.24896,-0.6657 4.51761,-1.57503 8.76358,-2.54608 11.29917,-2.5841 2.31554,-0.0347 5.97259,-0.39547 4.64197,-0.4579 -0.47294,-0.0222 -0.85989,-0.14589 -0.85989,-0.2749 0,-0.129 -0.32742,-0.29787 -0.72761,-0.37526 -0.40018,-0.0774 -1.23785,-0.27104 -1.8615,-0.43035 -1.0121,-0.25853 -1.29516,-0.21588 -2.63532,0.39712 -1.04076,0.47606 -1.7482,0.63978 -2.30569,0.53359 -0.44234,-0.0842 -1.28051,-0.22923 -1.86259,-0.32218 -0.58208,-0.0929 -1.20152,-0.28187 -1.37652,-0.41983 -0.21435,-0.16898 -0.50908,-0.073 -0.90313,0.2941 -1.18034,1.09966 -6.14201,1.84517 -6.4827,0.97406 -0.0612,-0.15642 -0.63809,-0.30817 -1.28203,-0.33722 -0.64394,-0.029 -1.65344,-0.286 -2.24334,-0.57101 -0.5899,-0.28501 -1.13937,-0.41007 -1.22105,-0.27791 -0.0817,0.13215 -0.35732,0.24028 -0.61254,0.24028 -0.25521,0 -1.08104,0.29766 -1.83517,0.66146 -0.75412,0.3638 -1.53047,0.66146 -1.72521,0.66146 -0.73249,0 -0.68331,0.38178 0.15134,1.17478 0.47388,0.45023 1.09972,1.11423 1.39077,1.47555 0.29104,0.36133 0.97565,0.88407 1.52135,1.16164 0.5457,0.27758 0.99219,0.60245 0.99219,0.72194 0,0.11948 0.32742,0.0859 0.7276,-0.0746 0.40018,-0.16052 0.96573,-0.38252 1.25677,-0.49334 z m -6.55782,-4.92741 c 0.69638,-0.38328 1.38522,-0.78926 1.53074,-0.90219 0.14552,-0.11293 0.66553,-0.30884 1.15557,-0.43535 l 0.89099,-0.23003 -1.02328,-0.52143 c -1.06772,-0.54407 -1.77884,-1.21293 -2.94544,-2.77039 -0.3815,-0.50932 -0.9477,-1.22369 -1.25822,-1.5875 -0.31052,-0.3638 -0.72888,-1.19724 -0.92968,-1.85208 -0.20081,-0.65484 -0.63811,-1.7437 -0.97179,-2.41967 -0.33368,-0.67598 -0.60669,-1.31876 -0.60669,-1.42841 0,-0.22951 -1.65003,-3.62586 -1.8582,-3.82484 -0.0761,-0.0728 -0.33864,-0.44733 -0.58339,-0.83238 -0.31016,-0.48799 -0.84941,-0.80375 -1.77982,-1.04221 -0.73416,-0.18816 -1.33484,-0.42478 -1.33484,-0.52582 0,-0.10103 -0.23813,-0.24597 -0.52917,-0.32208 -0.61912,-0.1619 -0.72079,0.2111 -0.12034,0.44151 0.22485,0.0863 0.5944,0.60504 0.82123,1.15279 0.22683,0.54774 0.81676,1.56173 1.31097,2.25329 0.49421,0.69156 0.89856,1.37617 0.89856,1.52135 0,0.14518 0.091,0.26397 0.20217,0.26397 0.20665,0 1.12074,1.92568 1.12074,2.36102 0,0.13239 0.0915,0.2804 0.20322,0.32891 0.11177,0.0485 0.61648,0.73828 1.12158,1.53283 0.5051,0.79456 1.24542,1.77922 1.64516,2.18815 0.39975,0.40893 0.7952,1.06853 0.87878,1.46578 0.0836,0.39725 0.25464,0.91426 0.38011,1.14892 0.51278,0.95902 0.86131,3.59133 0.55202,4.16924 -0.38423,0.71795 -0.30147,0.70897 1.22902,-0.13338 z m 9.73282,-0.62605 c 0.37711,-0.16205 0.11101,-0.22374 -0.92604,-0.21469 -1.20051,0.0105 -1.31628,0.0481 -0.66146,0.21469 1.0338,0.26306 0.97533,0.26306 1.5875,0 z m -12.11599,-1.46769 c -0.15665,-1.51786 -1.12024,-3.51546 -1.99822,-4.14251 -0.26409,-0.18861 -0.70602,-0.70011 -0.98207,-1.13668 -0.27605,-0.43656 -0.56419,-0.85328 -0.64031,-0.92604 -0.0761,-0.0728 -0.40699,-0.66807 -0.73525,-1.32292 -0.32826,-0.65484 -0.95103,-1.78593 -1.38392,-2.51354 -1.33287,-2.24029 -2.12028,-3.80118 -2.12028,-4.20304 0,-0.2113 -0.41672,-0.77723 -0.92604,-1.25764 -0.50932,-0.48041 -0.92604,-1.02359 -0.92604,-1.20708 0,-0.18349 -0.32742,-0.40611 -0.72761,-0.49471 -0.40018,-0.0886 -1.08479,-0.25948 -1.52135,-0.37973 -0.91377,-0.2517 -5.95313,-0.62111 -5.95313,-0.4364 0,0.0677 0.53383,0.43595 1.18629,0.81832 1.41793,0.83096 2.25612,1.59103 2.93603,2.66237 0.27706,0.43656 0.59961,0.91281 0.71678,1.05833 0.11718,0.14552 0.68317,0.90097 1.25777,1.67877 1.05634,1.42992 1.72982,2.10639 3.67769,3.69398 0.59035,0.48116 1.07336,1.02162 1.07336,1.20102 0,0.1794 0.77391,1.08168 1.71979,2.00508 1.53048,1.49408 1.71979,1.79147 1.71979,2.70158 0,0.70499 0.11622,1.02269 0.3741,1.02269 0.20575,0 1.00155,0.59532 1.76845,1.32292 0.7669,0.72761 1.44865,1.32292 1.515,1.32292 0.0664,0 0.0525,-0.66046 -0.0308,-1.46769 z m 11.75141,0.0102 c 3.73768,-0.23003 4.63832,-0.59144 1.22911,-0.49322 -3.57205,0.10292 -4.96557,0.33228 -4.96557,0.81729 0,0.29097 0.0928,0.32879 0.33073,0.13481 0.1819,-0.1483 1.71448,-0.35479 3.40573,-0.45888 z m 44.9722,-6.1402 c 0.42263,-0.24966 0.76842,-0.54732 0.76842,-0.66146 0,-0.11415 0.1786,-0.20754 0.39688,-0.20754 0.21828,0 0.39687,-0.11906 0.39687,-0.26458 0,-0.33466 -3.61772,-0.35392 -3.82387,-0.0204 -0.083,0.13433 -0.51528,0.32425 -0.96058,0.42205 -1.02835,0.22587 -0.88276,0.35827 0.86174,0.78367 0.77505,0.18899 1.45033,0.35679 1.50064,0.37288 0.0503,0.0161 0.43726,-0.17501 0.8599,-0.42466 z m -71.49396,-7.68202 c -0.47505,-0.83674 -0.96554,-1.56288 -1.08999,-1.61363 -0.12445,-0.0508 -0.81607,-0.48918 -1.53695,-0.97429 -0.92075,-0.61962 -1.31068,-0.76733 -1.31068,-0.49649 0,0.21204 0.29176,0.49645 0.64835,0.63203 0.7022,0.26698 3.3204,2.71203 3.3204,3.10082 0,0.23272 0.53817,0.87291 0.7338,0.87291 0.0543,0 -0.28988,-0.6846 -0.76493,-1.52135 z m 76.49572,-4.53836 c 0.94588,-0.17113 2.67229,-0.4346 3.83646,-0.58548 1.16416,-0.15089 2.9501,-0.38191 3.96875,-0.51339 1.01864,-0.13148 3.26936,-0.35898 5.0016,-0.50555 1.73223,-0.14658 3.19399,-0.31097 3.24834,-0.36533 0.0544,-0.0543 -0.30368,-0.40584 -0.79564,-0.78107 -0.49196,-0.37524 -1.04022,-1.03412 -1.21836,-1.46418 -0.29945,-0.72295 -0.40714,-0.7729 -1.42783,-0.66229 -1.14049,0.1236 -3.55587,0.73257 -4.62213,1.16533 -0.33427,0.13567 -0.8419,0.24667 -1.12807,0.24667 -0.28617,0 -0.72705,0.11359 -0.97973,0.25241 -0.25269,0.13883 -1.531,0.50547 -2.84068,0.81475 -6.90367,1.6303 -7.2071,1.67369 -9.30274,1.33017 -3.82603,-0.62715 -3.48537,-0.59552 -2.73581,-0.25402 0.36381,0.16575 0.95912,0.41838 1.32292,0.56139 0.3638,0.14302 1.30592,0.59282 2.09361,0.99957 1.34905,0.69663 1.50256,0.72018 2.64583,0.40586 0.66753,-0.18353 1.98759,-0.4737 2.93348,-0.64484 z m -80.9625,0.66815 c 0,-0.0549 -0.20836,-0.2633 -0.46302,-0.46302 -0.41965,-0.32911 -0.42901,-0.31975 -0.0999,0.0999 0.34565,0.44073 0.56292,0.58088 0.56292,0.36312 z m 67.61661,-2.17066 c 0.46998,-0.38294 0.47244,-0.4054 0.0289,-0.26458 -0.26656,0.0846 -1.27859,0.15571 -2.24895,0.15794 -1.23677,0.003 -1.64563,0.0807 -1.36743,0.26053 0.64498,0.41682 3.01163,0.3153 3.58745,-0.15389 z m 2.29953,-0.29742 c -0.32742,-0.0631 -0.8632,-0.0631 -1.19062,0 -0.32742,0.0631 -0.0595,0.11466 0.59531,0.11466 0.65484,0 0.92273,-0.0516 0.59531,-0.11466 z m 31.42301,-1.15851 c 0.79831,-0.30332 1.6896,-0.62151 1.98064,-0.70709 0.29104,-0.0856 1.05291,-0.43273 1.69305,-0.77144 0.64014,-0.3387 1.31017,-0.61582 1.48896,-0.61582 0.49032,0 1.00564,-0.70899 0.66729,-0.9181 -0.48308,-0.29856 -0.30045,-1.29395 0.33973,-1.8516 1.16474,-1.01456 1.49427,-1.76908 1.24851,-2.85866 -0.12382,-0.54899 -0.41566,-1.28894 -0.64853,-1.64434 -0.5948,-0.90778 -0.52761,-2.45518 0.16325,-3.75954 0.32346,-0.6107 0.505,-1.19348 0.40343,-1.29505 -0.10158,-0.10158 -0.78894,-0.24274 -1.52747,-0.31371 -0.9814,-0.0943 -1.46233,-0.28749 -1.78692,-0.71782 l -0.44413,-0.58879 -0.69285,0.68995 c -0.38106,0.37948 -1.02137,0.98291 -1.42292,1.34097 -1.20096,1.07091 -2.06632,2.35323 -1.89294,2.80504 0.26793,0.69822 -0.29765,1.36691 -1.31803,1.55834 -1.04138,0.19536 -1.95897,0.67087 -1.95897,1.01516 0,0.11754 0.24091,0.71235 0.53536,1.3218 0.44017,0.91104 0.48264,1.23537 0.23884,1.82396 -0.23836,0.57544 -0.21362,0.83426 0.12609,1.31926 0.57879,0.82634 0.5365,1.25962 -0.10654,1.09146 -0.29105,-0.0761 -0.52917,-0.24355 -0.52917,-0.3721 0,-0.12855 -0.11906,-0.23373 -0.26458,-0.23373 -0.14552,0 -0.26459,0.15005 -0.26459,0.33344 0,0.18339 -0.31189,0.6698 -0.6931,1.08091 l -0.69311,0.74748 1.01139,1.03576 c 1.20352,1.23251 2.1117,1.33368 4.34731,0.48426 z m 1.18689,-8.76051 c -0.56191,-0.31864 -0.91533,-0.73612 -0.92199,-1.08911 -0.002,-0.11806 0.56149,-0.13326 1.25272,-0.0338 1.27149,0.18299 2.28846,0.78948 2.02866,1.20983 -0.20127,0.32567 -1.73118,0.2693 -2.35939,-0.0869 z m 1.85208,-1.95298 c -0.77288,-0.87171 -1.78478,-1.17828 -2.11667,-0.64127 -0.2654,0.42942 -0.66145,0.30269 -0.66145,-0.21167 0,-0.72393 0.5378,-1.11125 1.54303,-1.11125 0.69845,0 1.1137,0.21808 1.79916,0.94488 0.88736,0.94087 1.19,1.98857 0.56041,1.94005 -0.1819,-0.014 -0.68792,-0.42835 -1.12448,-0.92074 z m 4.63021,7.10715 c 0,-0.37786 0.30372,-1.08521 0.67492,-1.57189 0.61981,-0.8126 0.79267,-0.88487 2.11667,-0.88487 1.26535,0 1.44174,0.0647 1.44174,0.52917 0,0.43208 -0.17639,0.52917 -0.9614,0.52917 -0.71714,0 -1.11776,0.18196 -1.57683,0.71622 -0.68923,0.8021 -0.6656,1.03704 0.0651,0.64707 0.26883,-0.14349 2.1259,-1.06421 4.12681,-2.04606 2.00091,-0.98185 3.63802,-1.86589 3.63802,-1.96454 0,-0.0986 0.47625,-0.32204 1.05833,-0.49643 1.13364,-0.33965 1.24172,-0.53854 0.73423,-1.35117 -0.25575,-0.40952 -0.25575,-0.58732 0,-0.84307 0.3683,-0.3683 0.44804,-3.12869 0.0904,-3.12869 -0.12855,0 -0.29254,-0.22493 -0.36443,-0.49984 -0.0719,-0.27491 -0.82992,-1.04874 -1.68451,-1.71962 -1.24168,-0.97477 -1.76065,-1.21982 -2.5836,-1.21996 -1.81711,-2.9e-4 -7.03998,-1.80183 -7.03998,-2.42831 0,-0.11973 -0.64557,-0.21769 -1.43459,-0.21769 -1.35994,0 -1.48484,0.0585 -2.39998,1.12448 l -0.96538,1.12448 0.82765,0.084 c 0.4552,0.0462 0.89308,0.25459 0.97307,0.46302 0.08,0.20844 0.36378,0.37898 0.63067,0.37898 0.26688,0 0.55883,0.11907 0.64876,0.26459 0.0899,0.14552 0.54345,0.26837 1.00781,0.273 1.41572,0.0141 2.23711,1.00646 1.46891,1.77466 -0.16823,0.16822 -0.31437,1.2146 -0.33073,2.36802 -0.0235,1.65825 0.0883,2.29863 0.56599,3.24078 0.32743,0.6458 0.59532,1.27343 0.59532,1.39474 0,0.32677 -1.37354,2.39017 -1.93023,2.89968 -0.40669,0.37223 -0.43009,0.52523 -0.14916,0.97507 0.41771,0.66886 0.75647,0.483 0.75647,-0.41503 z m -127.19234,-5.71171 c 0.25802,-0.39259 0.63505,-0.7138 0.83785,-0.7138 0.2028,0 0.40842,-0.0893 0.45692,-0.19843 0.0485,-0.10914 0.44538,-0.40045 0.88195,-0.64734 0.54579,-0.30867 0.79375,-0.65259 0.79375,-1.10097 0,-0.35864 0.0893,-0.74202 0.19843,-0.85197 0.45331,-0.45664 0.12728,-0.81018 -1.05833,-1.14767 -1.10888,-0.31564 -3.67396,-1.50599 -4.03489,-1.87243 -0.0728,-0.0739 -0.59201,-0.36854 -1.15389,-0.65483 -0.56187,-0.28628 -1.44873,-1.04179 -1.97079,-1.6789 -0.9131,-1.11432 -0.94973,-1.24046 -0.96279,-3.31594 l -0.0136,-2.15756 -1.23415,0.077 c -1.02452,0.0639 -1.30388,-0.0225 -1.6447,-0.50912 l -0.41055,-0.58614 -0.74526,0.85359 c -0.87577,1.00306 -1.65152,0.91211 -1.65793,-0.19438 -0.003,-0.5396 -0.0608,-0.6095 -0.25268,-0.30607 -0.21274,0.33647 -0.37446,0.34274 -1.12043,0.0435 -1.64046,-0.65818 -1.6607,-0.65424 -2.0412,0.39801 -0.19848,0.54888 -0.52367,1.16076 -0.72264,1.35974 -0.19898,0.19897 -0.2909,0.47645 -0.20428,0.61661 0.17335,0.28048 -0.3455,1.02542 -0.7142,1.02542 -0.1277,0 -0.23218,-0.2242 -0.23218,-0.49821 0,-0.76223 -1.48583,-0.59601 -2.1394,0.23934 -0.48749,0.62307 -0.5314,0.63188 -0.88122,0.17689 -0.23287,-0.30288 -0.43186,-0.37581 -0.54147,-0.19844 -0.0953,0.15423 -0.38596,0.28042 -0.64586,0.28042 -0.2599,0 -0.69407,0.24478 -0.96482,0.54396 -0.40546,0.44802 -0.43602,0.63407 -0.1733,1.05475 0.17544,0.28092 0.31898,0.86958 0.31898,1.30811 0,0.43854 0.12822,0.79734 0.28494,0.79734 0.27078,0 0.93066,0.6179 2.32463,2.17672 0.34386,0.38452 0.71862,1.09386 0.83281,1.57631 l 0.20762,0.87718 0.0271,-1.10243 c 0.0149,-0.60633 -0.0622,-1.14212 -0.17136,-1.19062 -0.10914,-0.0485 -0.37965,-0.44538 -0.60114,-0.88195 -0.24339,-0.47976 -0.84521,-0.99483 -1.52135,-1.30206 -0.61526,-0.27957 -1.11865,-0.607 -1.11865,-0.72761 0,-0.30339 0.25056,-0.27829 1.74388,0.17473 0.71435,0.2167 1.75099,0.3953 2.30364,0.39687 1.08274,0.003 2.30248,0.98285 2.30248,1.84949 0,0.24553 0.0783,0.52477 0.17409,0.62052 0.32718,0.32718 0.88424,-0.41408 0.88424,-1.17663 0,-0.58496 0.12259,-0.76135 0.52917,-0.76135 0.66839,0 0.72589,1.23335 0.11278,2.41898 -0.572,1.10611 -0.2655,1.26592 0.68373,0.3565 0.56659,-0.54283 0.79099,-1.00648 0.79099,-1.63436 0,-1.00256 0.64049,-1.22658 0.8807,-0.30803 0.27481,1.05089 -0.13439,2.06721 -1.18078,2.93266 l -1.02639,0.84891 0.92079,0.55572 c 0.50643,0.30565 1.13231,0.73964 1.39084,0.96443 0.25852,0.22478 0.81997,0.49214 1.24766,0.59412 0.42768,0.10198 1.08389,0.40351 1.45824,0.67007 0.37434,0.26656 1.39364,0.57122 2.26509,0.67703 0.87146,0.10581 1.8226,0.31189 2.11364,0.45795 0.9036,0.45348 2.35668,2.17736 2.91041,3.45282 l 0.52917,1.21887 0.13229,-2.58175 c 0.095,-1.85317 0.26468,-2.78318 0.60141,-3.29554 z m -11.18069,-6.46848 c 0.007,-0.35591 0.37659,-0.74213 1.31887,-1.3792 0.50932,-0.34435 1.1762,-0.90204 1.48195,-1.23932 0.59529,-0.65667 0.8993,-0.57753 0.8993,0.23412 0,0.48246 -0.57066,1.25992 -0.9248,1.25992 -0.0929,0 -0.55909,0.29765 -1.03606,0.66146 -0.83247,0.63495 -1.74775,0.87861 -1.73926,0.46302 z m 8.46262,11.39413 c 0,-0.5477 -1.23006,-1.40611 -2.01489,-1.40611 -0.47536,0 -0.92838,-0.10369 -1.0067,-0.23041 -0.0783,-0.12673 -0.4723,-0.29715 -0.87551,-0.37871 -0.40321,-0.0816 -0.97124,-0.37085 -1.26228,-0.64285 -0.29104,-0.272 -0.70776,-0.57707 -0.92604,-0.67794 -0.39919,-0.18446 -1.18712,-0.67157 -1.70535,-1.05427 -1.94114,-1.43346 -4.27156,-2.83666 -4.71113,-2.83666 -0.30432,0 -0.77105,-0.19704 -1.03717,-0.43788 -0.45052,-0.40771 -0.48385,-0.40723 -0.48385,0.007 0,0.56715 2.00931,2.56931 3.04593,3.03509 0.43479,0.19536 1.14771,0.54136 1.58428,0.7689 2.17062,1.13131 3.34195,1.65402 3.70646,1.65402 0.22097,0 0.66803,0.13765 0.99348,0.30589 1.21639,0.62881 1.51906,0.75247 1.8449,0.75376 0.18388,7.2e-4 0.69151,0.29409 1.12807,0.65194 0.74745,0.61267 1.7198,0.88874 1.7198,0.48827 z m -15.63964,-0.35366 0.95526,-0.006 -0.66146,-0.5174 c -0.50917,-0.39828 -1.08786,-0.51967 -2.51354,-0.52726 -2.07151,-0.011 -3.51456,-0.42034 -4.49863,-1.27598 -0.36341,-0.31598 -0.66074,-0.47699 -0.66074,-0.35779 0,0.4104 1.54939,1.59102 3.43958,2.62092 0.42018,0.22894 1.0851,0.30731 1.82286,0.21485 0.63878,-0.0801 1.59128,-0.14822 2.11667,-0.15145 z m 11.73703,-0.16935 c -0.1819,-0.0734 -0.47956,-0.0734 -0.66146,0 -0.1819,0.0734 -0.0331,0.13345 0.33073,0.13345 0.3638,0 0.51263,-0.06 0.33073,-0.13345 z m -1.38906,-0.48623 c -0.18116,-0.21828 -0.62417,-0.39687 -0.98448,-0.39687 -0.548,0 -3.95118,-1.43492 -5.72202,-2.41263 -0.81926,-0.45233 -0.83947,-0.009 -0.0377,0.82789 0.48975,0.51119 1.02108,0.79099 1.50206,0.79099 0.40934,0 0.74425,0.0893 0.74425,0.19849 0,0.26291 3.26773,1.25719 4.46417,1.35832 0.29301,0.0248 0.29953,-0.0459 0.0337,-0.36619 z m -5.82083,-0.13229 c -0.51297,-0.3315 -0.79375,-0.3315 -0.79375,0 0,0.14552 0.26789,0.26276 0.59531,0.26053 0.48139,-0.003 0.51936,-0.0531 0.19844,-0.26053 z m 156.63333,-0.39687 c 0,-0.21829 -0.0468,-0.39688 -0.10399,-0.39688 -0.0572,0 -0.17252,0.17859 -0.25628,0.39688 -0.0838,0.21828 -0.037,0.39687 0.10399,0.39687 0.14095,0 0.25628,-0.17859 0.25628,-0.39687 z m -169.63397,-3.17527 c 0.003,-1.3826 0.0787,-2.63275 0.16851,-2.77813 0.0899,-0.14537 0.067,-0.26387 -0.0507,-0.26332 -0.11773,5.4e-4 -0.4309,0.56609 -0.69593,1.25677 -0.26503,0.69068 -0.59246,1.46252 -0.7276,1.71521 -0.13515,0.25269 -0.24573,0.59149 -0.24573,0.75291 0,0.39409 1.03605,1.83037 1.32033,1.83037 0.12428,0 0.22828,-1.13122 0.23112,-2.51381 z m 8.03711,1.93948 c -1.00243,-1.25042 -1.75752,-1.80201 -2.67547,-1.95445 -0.52798,-0.0877 -1.53256,-0.3175 -2.2324,-0.51073 l -1.27244,-0.35131 0.17413,0.83551 c 0.24644,1.18244 1.03775,1.69022 3.1645,2.03066 1.01864,0.16307 1.97114,0.33842 2.11666,0.38968 0.14552,0.0512 0.47178,0.10259 0.72502,0.11408 0.43752,0.0199 0.43752,-0.008 0,-0.55344 z m 162.02853,-0.66969 c -0.0794,-0.0793 -0.35776,-0.0516 -0.6187,0.0616 -0.44693,0.19399 -0.44759,0.21235 -0.0114,0.31667 0.25466,0.0609 0.47683,0.25085 0.49371,0.42208 0.0169,0.17123 0.0869,0.0937 0.15568,-0.1724 0.0688,-0.26605 0.0601,-0.54865 -0.0193,-0.628 z m -2.35542,0.29042 c -0.0879,-0.0879 -0.31612,-0.0973 -0.50711,-0.0209 -0.21107,0.0845 -0.14838,0.14715 0.15985,0.15985 0.27891,0.0115 0.43518,-0.0511 0.34726,-0.13896 z m -170.2297,-1.37466 c 0.10392,-0.5455 0.0685,-0.81262 -0.0943,-0.71199 -0.14332,0.0886 -0.26059,0.53107 -0.26059,0.98329 0,0.99944 0.13204,0.89849 0.35488,-0.2713 z m 13.93262,0.0949 c 0,-0.0642 -0.11907,-0.19026 -0.26459,-0.28019 -0.14552,-0.0899 -0.26458,-0.0374 -0.26458,0.11667 0,0.15411 0.11906,0.2802 0.26458,0.2802 0.14552,0 0.26459,-0.0525 0.26459,-0.11668 z m -12.80638,-2.72759 c 0.39946,-0.83674 0.77243,-1.61065 0.82882,-1.71979 0.0564,-0.10914 0.0384,-0.19844 -0.04,-0.19844 -0.21185,0 -1.73539,2.72482 -1.73828,3.10886 -0.005,0.61763 0.22173,0.33377 0.94948,-1.19063 z m 2.58005,1.13295 c 0.082,-0.21362 0.0352,-0.45877 -0.10398,-0.54478 -0.13917,-0.086 -0.25303,0.0888 -0.25303,0.3884 0,0.63886 0.14714,0.70331 0.35701,0.15638 z m 4.75057,-0.40657 c -0.46505,-0.43589 -0.9144,-0.79253 -0.99857,-0.79253 -0.0842,0 -0.75882,-0.41671 -1.49924,-0.92604 -0.74043,-0.50932 -1.50296,-0.92604 -1.69452,-0.92604 -0.19155,0 -0.53538,-0.1871 -0.76406,-0.41577 -0.51055,-0.51055 -0.5221,-0.34595 -0.053,0.755 0.70078,1.64464 2.8339,3.05338 4.66431,3.08036 l 1.19063,0.0176 z m 1.50701,-2.07429 c 0,-0.12289 -0.29752,-0.56937 -0.66114,-0.99219 -0.36362,-0.42281 -0.66128,-0.84309 -0.66146,-0.93394 -1.8e-4,-0.0909 -0.39234,-0.59316 -0.87146,-1.11624 l -0.87115,-0.95107 -0.26827,0.71937 c -0.44579,1.19537 -0.0896,1.99506 1.00374,2.25363 0.52649,0.12451 1.17677,0.44824 1.44506,0.7194 0.52867,0.53433 0.88468,0.65547 0.88468,0.30104 z m 2.90643,-2.08137 c 0.0107,-0.15028 -1.18272,-1.13478 -1.37562,-1.13478 -0.12182,0 -0.0398,0.35127 0.18218,0.78061 0.22202,0.42933 0.4089,1.17347 0.41529,1.65364 l 0.0116,0.87304 0.38128,-1.05833 c 0.2097,-0.58209 0.38307,-1.08346 0.38526,-1.11418 z m 0.71389,0.40311 c -0.0845,-0.21107 -0.14716,-0.14837 -0.15985,0.15985 -0.0115,0.27892 0.051,0.43519 0.13896,0.34727 0.0879,-0.0879 0.0973,-0.31613 0.0209,-0.50712 z m 10.9557,97.6052 c 0.37698,-0.32219 0.97852,-1.18111 1.33676,-1.90872 0.35824,-0.7276 0.97019,-1.88846 1.35988,-2.57968 0.38968,-0.69123 0.66999,-1.25678 0.62289,-1.25678 -0.0471,0 -0.78888,0.24622 -1.64841,0.54716 -1.74917,0.61241 -3.18382,0.71576 -3.63754,0.26204 -0.42559,-0.4256 0.10926,-0.70638 1.7057,-0.89546 1.37904,-0.16333 3.11776,-1.17839 4.25689,-2.48518 0.94318,-1.08199 1.75788,-1.49765 2.20618,-1.12559 0.28166,0.23375 0.80066,0.0938 2.29438,-0.61879 5.94717,-2.83709 7.69894,-3.62279 8.09989,-3.63297 0.24479,-0.006 1.09991,-0.35932 1.90027,-0.78469 1.53651,-0.81661 3.2848,-1.66919 4.6702,-2.27751 0.45855,-0.20135 1.22553,-0.36609 1.7044,-0.36609 1.04483,0 4.06201,-1.71939 5.35696,-3.05275 0.48928,-0.5038 0.97719,-0.916 1.08423,-0.916 0.24398,0 3.05784,-2.86686 3.063,-3.12068 0.006,-0.30626 7.6269,-7.99182 7.92434,-7.99182 0.15068,0 0.27395,0.10269 0.27395,0.2282 0,0.56198 -3.16028,4.00513 -3.67609,4.00513 -0.12941,0 -0.30678,0.28485 -0.39416,0.63299 -0.0874,0.34814 -0.83479,1.25074 -1.66092,2.00578 -0.82613,0.75503 -1.69028,1.71364 -1.92033,2.13025 -0.50145,0.90805 -2.05989,2.63932 -2.37585,2.63932 -0.12372,0 -0.92919,0.68461 -1.78994,1.52135 l -1.565,1.52136 4.11146,-0.18282 c 12.02024,-0.53449 30.53101,-0.74762 64.31342,-0.74051 20.65169,0.004 37.91329,0.0809 38.35913,0.17002 0.44584,0.0892 0.76655,0.29514 0.71268,0.45772 -0.13257,0.40009 -5.16561,0.57217 -27.70398,0.94718 -23.00969,0.38285 -77.59795,0.21956 -79.3525,-0.23737 -0.64247,-0.16732 -1.23778,-0.20314 -1.32292,-0.0796 -0.19784,0.28707 -1.47775,0.77025 -2.66816,1.00727 -0.50923,0.1014 -1.7493,0.58509 -2.75571,1.07488 -1.00641,0.48979 -1.98875,0.89053 -2.18298,0.89053 -0.19423,0 -0.35315,0.10289 -0.35315,0.22864 0,0.26824 -2.05784,1.09427 -2.72608,1.09427 -0.25269,0 -0.90355,0.27821 -1.44636,0.61824 -0.54281,0.34003 -1.58224,0.84108 -2.30985,1.11345 -0.7276,0.27237 -1.6801,0.69356 -2.11666,0.93598 -0.43657,0.24243 -1.4486,0.66411 -2.24896,0.93708 -0.80037,0.27296 -1.4949,0.58559 -1.5434,0.69473 -0.0485,0.10914 -0.20997,0.19844 -0.3588,0.19844 -0.50145,0 -2.34354,1.63776 -2.77028,2.463 -0.23278,0.45013 -0.58638,0.98157 -0.78579,1.18098 -0.19941,0.19941 -0.36257,0.53266 -0.36257,0.74055 0,0.20788 -0.09,0.37797 -0.19999,0.37797 -0.11,0 -0.37025,0.38695 -0.57834,0.8599 -0.5339,1.21346 -1.82093,2.94334 -2.34835,3.1564 -0.96553,0.39004 -1.23925,0.19827 -0.55354,-0.38779 z m 4.20939,-6.27434 c 0,-0.14552 -0.0525,-0.26459 -0.11668,-0.26459 -0.0642,0 -0.19026,0.11907 -0.28019,0.26459 -0.0899,0.14552 -0.0374,0.26458 0.11667,0.26458 0.15411,0 0.2802,-0.11906 0.2802,-0.26458 z m 42.60644,-32.19139 c -0.35911,-0.0768 -0.83536,-0.34463 -1.05833,-0.59512 -0.22297,-0.25049 -0.60067,-0.5277 -0.83933,-0.61604 -1.03864,-0.38441 -1.69441,-3.4397 -1.01197,-4.71485 0.44004,-0.82222 0.87253,-0.62147 0.68467,0.31781 -0.20177,1.00886 0.19906,2.61184 0.85596,3.42307 0.82258,1.01584 4.10312,1.6824 5.28048,1.07291 0.24509,-0.12687 1.07493,-0.2884 1.84409,-0.35894 1.57201,-0.14416 1.70692,0.15928 0.40808,0.91785 -0.8198,0.47879 -4.8295,0.83874 -6.16365,0.55331 z m 32.79981,-10.12684 c -0.21828,-0.1201 -0.75406,-0.37531 -1.19062,-0.56713 -0.86671,-0.38081 -2.24896,-1.53552 -2.24896,-1.87873 0,-0.39973 0.73249,-0.21853 2.33925,0.57867 0.8799,0.43656 1.83488,0.79375 2.12218,0.79375 1.32014,0 1.88559,0.8556 0.76409,1.15615 -0.7803,0.20912 -1.29922,0.18508 -1.78594,-0.0827 z m 20.41688,-9.77192 c -0.73871,-0.46826 0.6696,-0.56202 8.51049,-0.56655 9.60968,-0.006 12.21272,-0.3354 15.17876,-1.92331 1.03154,-0.55225 1.13762,-0.5584 1.13762,-0.066 0,0.58218 -1.77225,1.67741 -3.66589,2.26548 -1.54433,0.47958 -2.46171,0.52185 -11.24479,0.51813 -5.2598,-0.002 -9.72209,-0.10472 -9.91619,-0.22776 z m -13.36804,-4.47018 c -0.33704,-0.54534 2.5344,-1.37728 6.68997,-1.93829 1.08067,-0.14589 2.04105,-0.31234 2.13417,-0.36989 0.19463,-0.1203 2.01846,0.47178 2.29014,0.74346 0.0997,0.0997 0.4889,0.18315 0.86483,0.18538 0.92642,0.005 1.37122,0.31911 1.09241,0.77023 -0.17491,0.28302 -0.56705,0.31584 -1.77197,0.14832 -1.99853,-0.27786 -3.48958,-0.24221 -5.78068,0.13823 -2.70911,0.44984 -5.345,0.6039 -5.51887,0.32256 z m -20.81445,-3.42309 c -0.92484,-0.63927 -1.20308,-0.93772 -1.82441,-1.95689 -1.12593,-1.84687 -0.39534,-1.76452 1.47468,0.16622 1.76194,1.81915 1.97593,2.91475 0.34973,1.79067 z m 20.71092,-3.94016 c -0.1819,-0.0823 -0.33073,-0.23978 -0.33073,-0.34993 0,-0.21823 2.14886,-0.7349 3.83646,-0.92245 0.58209,-0.0647 2.17446,-0.25039 3.5386,-0.41266 1.36415,-0.16228 2.52781,-0.24751 2.58592,-0.1894 0.27518,0.27518 -0.28162,0.93829 -0.91677,1.09182 -0.39041,0.0944 -1.18608,0.28682 -1.76816,0.42767 -1.25357,0.30334 -6.47019,0.56994 -6.94532,0.35495 z m 5.10433,-7.28319 c -0.96046,-0.22498 -1.45187,-0.58979 -1.46225,-1.08554 -0.005,-0.22116 1.91445,-0.0327 3.76626,0.36983 1.51283,0.32887 1.60493,0.62281 0.26458,0.84435 -1.16472,0.19252 -1.20648,0.19043 -2.56859,-0.12864 z m 40.80088,-0.9088 c -0.42046,-0.43192 -0.17516,-0.9094 0.46719,-0.9094 0.36609,0 1.14,-0.14805 1.71979,-0.32901 0.82052,-0.25608 1.05417,-0.46133 1.05417,-0.92604 0,-0.32837 0.11906,-0.59704 0.26458,-0.59704 0.40964,0 0.31269,2.01195 -0.11402,2.36609 -0.45277,0.37577 -3.10934,0.68547 -3.39171,0.3954 z m -122.43594,-1.81618 c -1.99747,-0.52803 -2.7704,-0.92657 -2.43925,-1.25772 0.21394,-0.21394 0.83857,-0.19576 2.32037,0.0675 2.1555,0.383 2.96372,0.76718 2.65723,1.26309 -0.22727,0.36774 -0.95004,0.34699 -2.53835,-0.0729 z m 29.75005,-0.27543 c -0.28247,-0.21366 -0.67992,-0.39225 -0.88321,-0.39688 -0.70904,-0.0161 -4.78975,-3.62126 -4.78975,-4.23152 0,-0.78009 2.11162,0.53991 4.11041,2.56946 0.46577,0.47294 1.04116,0.8599 1.27864,0.8599 0.23748,0 0.43178,0.11906 0.43178,0.26458 0,0.14552 0.17859,0.26458 0.39688,0.26458 0.22048,0 0.39687,0.23519 0.39687,0.52917 0,0.62936 -0.2468,0.66624 -0.94162,0.14071 z m 0.45858,-4.98641 c -0.31641,-0.3368 -0.57529,-0.69457 -0.57529,-0.79504 0,-0.10048 -0.2885,-0.78071 -0.64111,-1.51163 -0.78701,-1.6314 -1.15685,-3.29611 -1.38145,-6.21817 -0.11791,-1.53392 -0.0821,-2.23988 0.11361,-2.23988 0.36746,0 0.61623,0.79742 0.86672,2.77813 0.35649,2.81898 1.39151,5.85297 2.53872,7.44182 0.88987,1.23246 0.14093,1.67536 -0.9212,0.54477 z m -21.95665,-2.57294 c -0.7744,-0.72146 -0.73022,-0.85869 0.20999,-0.65218 0.87091,0.19128 4.75279,-0.33322 5.15085,-0.69596 0.13824,-0.12598 0.58892,-0.22905 1.00149,-0.22905 0.90762,0 1.75288,-0.52511 3.50531,-2.17764 0.72999,-0.68838 1.41656,-1.25393 1.5257,-1.25677 0.10914,-0.003 0.19843,-0.18377 0.19843,-0.40205 0,-0.21828 0.11907,-0.39688 0.26459,-0.39688 0.14552,0 0.26458,-0.35016 0.26458,-0.77813 0,-1.13268 0.47307,-1.24515 0.67649,-0.16082 0.13652,0.72767 0.0271,1.17864 -0.50729,2.09047 -0.90544,1.54502 -3.60487,3.87557 -4.48899,3.87557 -0.37183,0 -0.74324,0.1087 -0.82536,0.24156 -0.0821,0.13286 -0.62429,0.32181 -1.20485,0.4199 -0.58056,0.0981 -1.12274,0.28703 -1.20485,0.41989 -0.0821,0.13286 -1.01279,0.24156 -2.06816,0.24156 -1.56537,0 -2.02555,-0.0994 -2.49793,-0.53947 z"
       id="path23" /></g></svg>
