<?xml version="1.0" encoding="UTF-8" standalone="no"?>
<!-- Created with Inkscape (http://www.inkscape.org/) -->

<svg
   width="128.23325mm"
   height="76.007805mm"
   viewBox="0 0 128.23326 76.007805"
   version="1.1"
   id="svg1"
   xml:space="preserve"
   xmlns="http://www.w3.org/2000/svg"
   xmlns:svg="http://www.w3.org/2000/svg"><defs
     id="defs1" /><g
     id="layer1"
     transform="translate(47.608366,102.3727)"><path
       style="fill:#4d4d4d"
       d="m 87.252077,-102.58315 c -0.13376,-0.18784 -0.2432,-0.48597 -0.2432,-0.66251 0,-0.46317 -0.24081,-1.23349 -0.51324,-1.64179 -0.12946,-0.19403 -1.90541,-2.00814 -3.94654,-4.03137 -2.82236,-2.79759 -3.81255,-3.70897 -4.13452,-3.80544 -0.72752,-0.21797 -8.2333,0.0319 -10.74968,0.35782 -0.8214,0.10639 -1.72292,0.24718 -3.05741,0.47747 -3.02606,0.52219 -5.23657,0.70724 -8.46666,0.70878 -1.55222,7.4e-4 -3.40431,-0.0563 -4.11574,-0.12665 -0.71144,-0.0704 -2.2942,-0.13036 -3.51725,-0.13327 l -2.22373,-0.005 -0.48335,-0.48399 c -0.9138,-0.91503 -1.25917,-2.08622 -1.27083,-4.30953 -0.009,-1.66601 0.23562,-2.93723 0.8469,-4.40595 0.94971,-2.28183 1.59441,-3.42143 4.07866,-7.20956 0.73418,-1.11952 1.33487,-2.08525 1.33487,-2.14607 0,-0.0608 0.0468,-0.11057 0.10388,-0.11057 0.0571,0 0.13418,-0.0926 0.17123,-0.20579 0.037,-0.11318 0.20196,-0.4321 0.36649,-0.70871 0.16453,-0.27661 0.29914,-0.53375 0.29914,-0.57143 0,-0.0377 -0.19843,-0.0362 -0.44097,0.003 -0.45773,0.0746 -1.79428,0.2319 -3.61597,0.42561 -1.27991,0.1361 -2.13022,0.27603 -4.23333,0.69665 -4.00257,0.80051 -6.94252,1.12734 -9.41726,1.0469 l -1.225137,-0.0398 1.32e-4,1.67016 c 7.8e-5,0.98031 -0.05527,1.80602 -0.133985,1.99908 -0.365923,0.89739 -0.481406,1.09787 -0.757515,1.31506 -0.796924,0.62686 -2.256249,0.63627 -4.019562,0.0259 -0.59919,-0.2074 -1.141586,-0.34486 -1.205324,-0.30547 -0.06374,0.0394 -0.115889,0.43794 -0.115889,0.88565 0,0.44771 -0.05025,1.1722 -0.111667,1.60996 -0.06142,0.43776 -0.190948,1.41775 -0.287849,2.17775 -0.240671,1.88762 -0.693219,2.80762 -1.593352,3.23918 -0.505844,0.24252 -2.032844,0.27857 -2.258104,0.0533 -0.08084,-0.0808 -0.269417,-0.14699 -0.41905,-0.14699 -0.149632,0 -0.363944,-0.0478 -0.47625,-0.10613 -0.112305,-0.0584 -0.442316,-0.17341 -0.733358,-0.25564 -0.291041,-0.0822 -0.579437,-0.19321 -0.640879,-0.24664 -0.06144,-0.0534 -0.207681,-0.0971 -0.324976,-0.0971 -0.117294,0 -0.305148,-0.0467 -0.417453,-0.10388 -0.112306,-0.0571 -0.336483,-0.15757 -0.498173,-0.22319 -1.285271,-0.52168 -2.795734,-1.27311 -3.7899,-1.88544 -0.405578,-0.2498 -1.160749,-0.71769 -1.678156,-1.03976 -0.517407,-0.32207 -1.073032,-0.66133 -1.234722,-0.75392 -0.16169,-0.0926 -0.321185,-0.20419 -0.354432,-0.24799 -0.03325,-0.0438 -0.562415,-0.16146 -1.175926,-0.26146 -0.6135122,-0.1 -1.3668302,-0.23614 -1.6740402,-0.30254 -2.471246,-0.53409 -6.477705,-1.32264 -8.07941596,-1.5902 -3.91934804,-0.65469 -4.46759804,-0.70139 -7.58979804,-0.64644 -1.6169,0.0285 -4.9506498,0.0508 -7.4083298,0.0497 -4.66929,-0.002 -5.09367,-0.0421 -5.52654,-0.52044 -0.31794,-0.35131 -0.36728,-1.17768 -0.0907,-1.51922 0.19898,-0.24572 0.31731,-0.2787 0.93367,-0.26021 0.72248,0.0217 0.88308,-0.0336 1.78488,-0.61404 0.28131,-0.18108 0.75756,-0.46418 1.05833,-0.6291 2.32028,-1.27232 3.47137,-2.12493 4.07909,-3.02137 0.77375,-1.14135 1.29217,-1.48233 2.2537098,-1.48233 0.78265,0 1.15584,0.18722 2.07735,1.04217 1.08411,1.00581 2.06101,1.51849 2.93384,1.53968 l 0.21379,0.005 -0.23361,-0.32808 c -1.13991,-1.60086 -1.90161,-4.20205 -1.89703,-6.4783 0.002,-1.11414 0.21085,-2.26985 0.61126,-3.38646 l 0.26057,-0.72664 -0.15182,-0.86086 c -0.0835,-0.47348 -0.20165,-1.20483 -0.26255,-1.62522 -0.30929,-2.13522 -1.13712,-3.4684 -3.39932,-5.47448 -1.1618198,-1.03029 -3.6425598,-2.76156 -5.1889998,-3.62133 l -0.77928,-0.43325 -0.13135,0.52166 c -0.21133,0.83927 -0.35423,3.52349 -0.38249,7.18471 -0.029,3.75727 -0.0702,4.03719 -0.76335,5.18832 -0.21893,0.36356 -0.39804,0.68612 -0.39804,0.71681 0,0.0307 -0.0996,0.19625 -0.22142,0.36793 -0.12178,0.17167 -0.33345,0.51057 -0.47037,0.7531 -0.13693,0.24254 -0.35479,0.62618 -0.48414,0.85255 -0.12935,0.22636 -0.34737,0.61001 -0.48448,0.85255 -0.35869,0.63446 -1.57265,2.37689 -1.95395,2.80454 -0.60679,0.68055 -1.38268,1.60847 -1.5529,1.85718 -0.0933,0.13627 -0.20259,0.27422 -0.24295,0.30656 -0.0404,0.0323 -0.25293,0.32338 -0.47238,0.64676 -0.49259,0.72587 -1.06046,1.47656 -1.65799,2.19178 -0.25065,0.30002 -0.45572,0.58486 -0.45572,0.63297 0,0.0481 -0.0951,0.17306 -0.21137,0.27766 -0.3527,0.31736 -0.67713,0.86706 -0.84095,1.42491 -0.32751,1.11524 -0.40974,1.35582 -0.50039,1.46402 -0.0515,0.0614 -0.0936,0.20059 -0.0936,0.3092 0,0.28726 -0.86243,1.13045 -1.37891,1.34815 -0.24408,0.10287 -0.78773,0.21279 -1.20812,0.24426 -1.00801,0.0755 -1.33888,-0.0923 -1.3895,-0.70464 -0.0444,-0.53745 0.14514,-0.78423 0.96139,-1.25151 0.6476,-0.37074 0.61384,-0.40035 -0.60559,-0.53117 l -0.73971,-0.0794 -0.84779,0.87315 c -1.1634,1.19822 -1.55141,1.45754 -1.90093,1.27049 -0.210998,-0.11293 -0.327408,-0.11354 -0.534338,-0.003 -0.22145,0.11851 -0.31488,0.10417 -0.57327,-0.088 -0.16978,-0.12627 -0.32602,-0.34658 -0.34721,-0.48956 -0.0212,-0.14299 -0.11575,-0.28961 -0.21014,-0.32583 -0.3238,-0.12426 -0.49284,-0.67382 -0.50313,-1.63575 l -0.0102,-0.94843 0.8182,-0.98627 c 0.45002,-0.54245 0.93896,-1.03311 1.08653,-1.09035 0.147578,-0.0572 1.358428,-0.11213 2.690778,-0.12197 1.67532,-0.0124 2.47444,-0.061 2.59098,-0.15776 0.21508,-0.1785 2.3613,-4.4723 3.86778,-7.73803 0.20885,-0.45274 0.55907,-1.21165 0.77828,-1.68648 0.33697,-0.72992 0.87195,-1.84713 2.40207,-5.0163 0.40202,-0.83265 0.46204,-1.64454 0.46204,-6.24974 v -4.51255 l -0.2469,-0.55728 c -0.1358,-0.30651 -0.28915,-0.66312 -0.34079,-0.79247 -0.16361,-0.40986 -0.48612,-1.15435 -0.78959,-1.82269 -0.16151,-0.35571 -0.34103,-0.76582 -0.39893,-0.91134 -0.0579,-0.14552 -0.15486,-0.38364 -0.21547,-0.52917 -0.0606,-0.14552 -0.14355,-0.38364 -0.18431,-0.52916 -0.0958,-0.3419 -0.24954,-0.33798 -0.33652,0.009 -0.18281,0.7284 -1.23248,1.70925 -2.19119,2.04752 -0.91517,0.32291 -2.71111,-0.0214 -2.87954,-0.55212 -0.0894,-0.28176 0.25806,-1.06301 0.4728,-1.06301 0.37402,0 1.06518,-0.5671 1.30729,-1.07263 0.47975,-1.00174 0.51149,-1.17398 0.51149,-2.77571 0,-2.06503 -0.13994,-2.51548 -1.58078,-5.0887 -1.53492,-2.7412 -2.08701,-4.19163 -2.40674,-6.32278 -0.52774,-3.5177 0.65653,-6.29282 3.22316,-7.55287 0.45273,-0.22226 1.03482,-0.54181 1.29352,-0.71012 1.34548,-0.87531 3.25307,-1.40723 5.04216,-1.406 2.97087,0.002 5.36446,1.18673 7.36371,3.64455 0.28934,0.35572 0.55724,0.67322 0.59532,0.70556 0.0381,0.0323 0.28918,0.37629 0.558,0.76435 0.26881,0.38805 0.78618,1.12732 1.14971,1.64281 0.36353,0.51549 0.94299,1.49961 1.2877,2.18693 0.3457198,0.68934 0.8415898,1.47329 1.1059198,1.74841 0.50182,0.52229 1.42495,0.94824 2.05507,0.94824 0.7957,0 1.80954,-0.56266 2.12982,-1.18201 0.0986,-0.19068 0.2573,-0.3467 0.35265,-0.3467 0.1389,0 0.17302,0.1929 0.1716,0.97014 -0.002,0.92142 -0.12112,1.47452 -0.4427,2.05014 -0.0789,0.14127 -0.14349,0.27982 -0.14349,0.30788 0,0.0281 0.35652,0.25644 0.79228,0.5075 1.03199,0.59459 2.705194,2.26989 3.64683604,3.65144 0.404224,0.59307 0.734954,1.13677 0.734954,1.20824 0,0.17525 0.513092,0.35929 1.00165896,0.35929 1.261949,0 3.888037,1.81066 4.109469,2.83343 0.125546,0.57989 0.117634,1.25004 -0.02347,1.98787 -0.142234,0.74375 -0.153657,0.7292 0.791969,1.00846 0.355718,0.10504 0.752593,0.23258 0.881945,0.28342 0.129352,0.0508 0.47331,0.15741 0.764352,0.23683 0.774336,0.2113 1.213835,0.38883 2.6041972,1.05197 1.271431,0.60641 2.069145,0.72777 2.509066,0.38173 0.170117,-0.13381 0.580666,-0.33343 0.912332,-0.44359 0.742021,-0.24646 1.346143,-0.12911 2.676257,0.51986 1.107085,0.54015 1.769303,1.18465 1.982655,1.92961 0.08798,0.30721 0.207046,0.55856 0.264584,0.55856 0.05754,0 0.104613,0.0835 0.104613,0.18561 0,0.10209 0.199143,0.3799 0.442539,0.61736 0.977059,0.95325 1.545941,1.88363 1.773936,2.9012 0.07246,0.32338 0.265601,1.43463 0.42921,2.46945 0.365501,2.31175 0.503003,2.87133 0.782043,3.18257 0.119703,0.13352 0.217642,0.31082 0.217642,0.39399 0,0.29338 3.988119,-0.0143 7.525926,-0.5807 1.264188,-0.20238 3.437257,-0.50826 4.997687,-0.70347 4.42818,-0.55397 10.66523,-0.30463 17.63889,0.70514 0.38805,0.0562 1.12889,0.1622 1.64629,0.23558 0.51741,0.0734 1.25824,0.18518 1.6463,0.24844 0.38806,0.0633 1.41993,0.16344 2.29306,0.22261 2.18769,0.14826 3.90415,0.43865 4.88009,0.82562 0.12935,0.0513 0.47331,0.18101 0.76435,0.28827 1.39686,0.51481 2.86558,1.68117 3.48074,2.76418 0.75147,1.32298 1.10072,3.39989 0.8755,5.20628 -0.38023,3.04961 -1.48888,5.08041 -4.33136,7.93413 -0.53333,0.53544 -0.59193,0.63661 -0.41157,0.71057 0.3919,0.1607 8.12098,0.0992 9.26493,-0.0738 0.58208,-0.088 1.34938,-0.20251 1.70509,-0.25447 2.45459,-0.35857 3.73566,-0.62783 4.70371,-0.98864 1.70244,-0.63454 1.83807,-0.66975 2.39001,-0.62057 0.31203,0.0278 0.70563,0.15381 0.87468,0.28002 0.64132,0.47882 0.73976,0.73437 0.85558,2.2212 0.0602,0.77216 0.15771,1.69497 0.2168,2.05068 0.0591,0.35572 0.14203,0.85843 0.18432,1.11713 0.0423,0.25871 0.13143,0.68204 0.1981,0.94074 0.0667,0.25871 0.16976,0.66881 0.2291,0.91135 0.31619,1.29234 0.37018,1.4004 0.66291,1.32693 0.23104,-0.058 0.30395,-0.005 0.43707,0.31597 0.14071,0.33957 0.4958,1.74728 0.89814,3.56057 0.17578,0.79224 0.56553,1.90876 0.83176,2.38277 0.1198,0.21329 0.21782,0.46557 0.21782,0.56062 0,0.0951 0.0529,0.17281 0.1176,0.17281 0.0647,0 0.11759,0.0675 0.11759,0.14999 0,0.0825 0.15709,0.46614 0.34909,0.85254 0.19199,0.38641 0.35074,0.79205 0.35277,0.90141 0.002,0.10937 0.0505,0.22778 0.10773,0.26315 0.0572,0.0354 0.13065,0.21046 0.16318,0.38911 0.0325,0.17865 0.13735,0.61586 0.23294,0.97158 0.0956,0.35572 0.23311,0.96426 0.3056,1.35232 0.0725,0.38805 0.23836,1.23232 0.36858,1.87616 0.13023,0.64383 0.23678,1.33624 0.23678,1.53868 0,0.53018 -0.44349,1.8127 -0.78116,2.259 -0.23897,0.31585 -0.36834,0.38218 -0.74552,0.38218 -0.36954,0 -0.50266,-0.065 -0.69958,-0.34154 z m 1.58223,-1.95152 c -0.0409,-0.2587 -0.12038,-1.07891 -0.1766,-1.82269 -0.0562,-0.74377 -0.16155,-1.61689 -0.23404,-1.94027 -0.0725,-0.32338 -0.16199,-0.73414 -0.19889,-0.91279 -0.0369,-0.17865 -0.1139,-0.35375 -0.17112,-0.38911 -0.0572,-0.0354 -0.10404,-0.19034 -0.10404,-0.3444 0,-0.15406 -0.0529,-0.31281 -0.11759,-0.35278 -0.0647,-0.04 -0.11759,-0.1495 -0.11759,-0.2434 0,-0.16085 -0.12134,-0.4578 -0.76549,-1.87326 -0.75421,-1.65735 -0.78959,-1.76616 -1.41448,-4.35093 -0.29708,-1.22884 -0.60281,-2.29846 -0.67939,-2.37692 -0.10909,-0.11176 -0.35575,-0.10393 -1.13879,0.0361 -1.71927,0.30754 -2.21363,0.39671 -2.91042,0.52498 -3.01411,0.55485 -5.86091,0.86229 -8.02569,0.86673 -1.90824,0.004 -4.11782,-0.18802 -12.6412,-1.0981 -0.58209,-0.0622 -1.64042,-0.17188 -2.35186,-0.24384 -0.71143,-0.072 -1.35816,-0.15255 -1.43717,-0.17907 -0.079,-0.0265 -0.39206,0.21413 -0.69564,0.53478 -0.56671,0.59854 -1.01094,0.75205 -1.14739,0.39649 -0.0916,-0.23869 0.0137,-0.4135 0.48738,-0.80889 0.2102,-0.17547 0.38218,-0.41894 0.38218,-0.54106 0,-0.12211 0.14552,-0.31516 0.32338,-0.42899 0.44728,-0.28628 0.50681,-0.35112 1.05651,-1.15076 0.50383,-0.73293 0.59134,-0.83885 1.89067,-2.28841 0.87769,-0.97916 1.6865,-1.78561 4.15595,-4.14381 0.9278,-0.88601 1.89858,-1.91115 2.15728,-2.2781 0.25871,-0.36694 0.52329,-0.72825 0.58796,-0.8029 0.5864,-0.67682 1.60462,-2.5785 1.95816,-3.65716 0.22822,-0.69627 0.26837,-1.05876 0.26048,-2.35185 -0.008,-1.32653 -0.0494,-1.64306 -0.31267,-2.39341 -0.54171,-1.54422 -1.40444,-2.52622 -2.78201,-3.16661 -2.25923,-1.05024 -3.98716,-1.46429 -7.00266,-1.67802 -0.84079,-0.0596 -1.8462,-0.162 -2.23426,-0.22757 -1.46437,-0.24742 -5.08412,-0.74184 -6.87917,-0.93962 -4.01113,-0.44194 -10.23725,-0.56806 -12.87638,-0.26082 -1.65523,0.1927 -3.880212,0.49566 -5.350467,0.72855 -2.425111,0.38414 -3.843734,0.54874 -6.056019,0.70265 l -1.881481,0.1309 -0.160464,-0.23907 -0.160463,-0.23908 -0.309907,0.16455 c -0.170449,0.0905 -0.5036,0.24889 -0.740337,0.35198 -0.236736,0.10309 -0.607153,0.40508 -0.823148,0.6711 -0.215995,0.26602 -0.448596,0.5436 -0.516891,0.61685 -0.06829,0.0733 -0.159238,0.22578 -0.202096,0.33896 -0.05795,0.15304 -0.210664,0.20579 -0.595771,0.20579 -0.542568,0 -2.184248,-0.48146 -2.630999,-0.77159 -0.341025,-0.22148 -0.34822,-0.21934 -0.435838,0.12976 -0.04802,0.19134 -0.01335,0.36057 0.09637,0.47029 0.301607,0.3016 0.658713,1.44887 0.658713,2.11623 0,0.69346 0.02649,0.7197 0.470371,0.46596 0.662514,-0.37873 2.231659,-0.1082 3.193153,0.55051 0.426107,0.29192 0.547797,0.26938 0.591397,-0.10954 0.02215,-0.19251 0.108589,-0.32338 0.213598,-0.32338 0.146338,0 0.166372,0.15026 0.117593,0.88195 -0.09044,1.35666 -0.04397,4.02667 0.0962,5.52685 0.0695,0.74377 0.18019,2.5694 0.245987,4.05694 0.0658,1.48755 0.153857,3.29195 0.19569,4.00979 l 0.07606,1.30515 -0.512758,0.0648 c -0.541973,0.0684 -1.097984,0.005 -2.629424,-0.29925 -0.517408,-0.10286 -1.489038,-0.27364 -2.159179,-0.37952 -1.954223,-0.30877 -3.513294,-0.89363 -6.131099,-2.29998 -0.291042,-0.15635 -0.5468062,-0.32397 -0.5683642,-0.37247 -0.02156,-0.0485 -0.09594,-0.0882 -0.16529,-0.0882 -0.270987,0 -0.912642,-0.60648 -0.912642,-0.86261 0,-0.29045 -0.371384,-1.40598 -0.711122,-2.136 -0.502697,-1.0802 -1.26524,-1.59661 -2.320465,-1.57149 -0.369919,0.009 -0.540289,0.0397 -0.378599,0.0687 0.16169,0.029 0.344253,0.10118 0.405695,0.16038 0.06144,0.0592 0.187577,0.10763 0.280299,0.10763 0.33969,0 1.31308,1.51514 1.31308,2.04388 0,0.44562 -0.194046,0.38264 -2.351852,-0.76332 -0.291041,-0.15456 -0.9921,-0.74404 -1.557908,-1.30996 -0.565808,-0.56591 -1.081746,-1.02893 -1.146528,-1.02893 -0.06478,0 -0.117786,0.13105 -0.117786,0.29122 0,0.20857 0.277564,0.56734 0.977981,1.26412 1.181494,1.17535 1.726649,1.94403 1.726649,2.43459 0,0.50662 -0.23525,0.45311 -0.611046,-0.13899 -0.407938,-0.64273 -2.712118,-2.9102 -2.957322,-2.9102 -0.28271296,0 -0.110109,0.34911 0.656447,1.32773 0.404324,0.51619 0.922376,1.01367 1.313726,1.26157 0.569861,0.36098 0.64682,0.45594 0.651804,0.80423 l 0.0057,0.39493 -0.322842,-0.081 c -0.452621,-0.1136 -1.243543,-0.79066 -1.890805,-1.6186 -0.93605496,-1.19734 -1.05622396,-1.32719 -1.14567996,-1.23794 -0.156893,0.15652 -0.07131,0.76834 0.146754,1.04909 0.246622,0.31753 1.48641896,1.54036 2.02412696,1.99643 0.422141,0.35805 0.447287,0.49012 0.149933,0.78747 l -0.215365,0.21536 0.538744,0.14209 c 0.29631,0.0782 0.701252,0.1929 0.899872,0.25501 0.198619,0.0621 0.542578,0.11525 0.764352,0.11811 0.44469,0.006 1.460748,0.24878 1.593052,0.38108 0.04625,0.0463 0.201915,0.0841 0.34592,0.0841 0.144006,0 0.889249,0.3615 1.656096,0.80334 0.766848,0.44183 1.6323932,0.93706 1.9234352,1.1005 0.291042,0.16345 0.727604,0.41049 0.970139,0.54898 0.242535,0.1385 0.63941,0.36384 0.881944,0.50077 0.242535,0.13692 0.581433,0.34859 0.753107,0.47037 0.171674,0.12178 0.365701,0.22141 0.431173,0.22141 0.06547,0 0.136677,0.0397 0.158236,0.0882 0.03728,0.0839 0.39659,0.32917 1.450308,0.99008 0.537004,0.33682 3.058001,1.59475 3.762963,1.87765 0.840237,0.33719 1.753549,0.66955 2.23426,0.81307 0.258703,0.0772 0.562256,0.18686 0.674562,0.24359 0.112305,0.0567 0.334078,0.10316 0.492828,0.10316 0.158751,0 0.321342,0.0529 0.361313,0.11759 0.104037,0.16834 1.541663,0.14548 1.849132,-0.0294 0.900472,-0.51215 1.261735,-1.41442 1.565514,-3.90995 0.287686,-2.36332 0.521317,-3.95632 0.598566,-4.08132 0.07959,-0.12878 0.154136,-0.11121 1.235122,0.29107 1.276842,0.47517 2.21657,0.62069 2.949279,0.45672 0.956917,-0.21415 1.318415,-0.61779 1.627431,-1.81716 0.138309,-0.53681 0.09929,-2.14024 -0.06233,-2.56142 -0.04269,-0.11125 -0.378247,-0.22974 -0.916878,-0.32377 -1.289617,-0.22513 -2.003939,-0.38599 -2.229661,-0.50212 -0.112306,-0.0578 -0.30016,-0.10506 -0.417454,-0.10506 -0.117294,0 -0.263533,-0.0421 -0.324975,-0.0936 -0.14948,-0.12522 -0.999513,-0.41012 -1.05578,-0.35385 -0.02448,0.0245 -0.15318,0.28069 -0.285994,0.56936 l -0.241479,0.52484 0.06457,-0.82315 c 0.0715,-0.91148 0.259386,-2.07573 0.408012,-2.52824 0.05311,-0.16169 0.164014,-0.53986 0.24646,-0.84038 0.177035,-0.6453 0.39399,-0.97727 0.568288,-0.86955 0.158032,0.0977 0.162294,0.58154 0.0078,0.88838 -0.06468,0.12847 -0.170509,0.3387 -0.235185,0.46718 -0.06468,0.12847 -0.117593,0.33702 -0.117593,0.46343 0,0.12641 -0.05292,0.26254 -0.117593,0.30252 -0.06468,0.04 -0.117592,0.2683 -0.117592,0.5074 0,0.46876 0.08303,0.53196 1.117129,0.85029 0.258704,0.0796 0.576204,0.18485 0.705556,0.23379 0.222856,0.0843 0.590011,0.16165 2.234259,0.47057 0.84896,0.15951 6.169392,0.0774 7.408332,-0.11425 1.75915,-0.2722 2.25485,-0.35355 2.82222,-0.46317 0.32338,-0.0625 0.90547,-0.17279 1.29352,-0.24515 0.38806,-0.0724 0.97014,-0.18218 1.29352,-0.24405 1.60969,-0.308 3.0097,-0.4987 5.17407,-0.70475 0.64676,-0.0616 1.44051,-0.16986 1.76389,-0.24063 0.32338,-0.0708 1.30566,-0.15553 2.18285,-0.18834 1.95319,-0.0731 2.46206,0.0664 2.46206,0.6748 v 0.37212 l -0.38217,-0.0862 c -0.2102,-0.0474 -0.96606,-0.10936 -1.67968,-0.13763 l -1.29751,-0.0514 -0.24884,0.44767 c -0.13687,0.24621 -0.36635,0.65906 -0.50996,0.91744 -0.14361,0.25838 -0.41348,0.69125 -0.59972,0.96193 -0.18623,0.27068 -0.3386,0.54876 -0.3386,0.61795 0,0.0692 -0.0529,0.1258 -0.11759,0.1258 -0.0647,0 -0.1176,0.0794 -0.1176,0.17639 0,0.097 -0.0494,0.17639 -0.10966,0.17639 -0.0603,0 -0.14316,0.10552 -0.1841,0.23449 -0.0409,0.12897 -0.13876,0.30095 -0.21741,0.38217 -0.22316,0.2305 -1.623,2.3921 -2.26597,3.49908 -0.66699,1.14832 -1.38677,2.61784 -2.1023,4.29213 -0.11056,0.2587 -0.24787,0.5762 -0.30513,0.70556 -0.4515,1.01993 -0.64353,2.7043 -0.45762,4.014 0.3095,2.18035 1.139,3.24298 2.37716,3.04532 0.74043,-0.1182 1.31421,-0.10851 3.91179,0.0661 4.91831,0.33058 9.07447,0.17434 12.93519,-0.48627 3.8984,-0.66705 5.49957,-0.80411 10.42696,-0.89253 l 3.84178,-0.0689 0.45436,0.25536 c 0.24989,0.14045 0.55838,0.4127 0.68553,0.60501 0.12715,0.1923 1.79223,1.8834 3.70017,3.75799 1.90794,1.8746 3.59578,3.60354 3.75076,3.8421 0.15498,0.23856 0.27732,0.59041 0.27188,0.78189 -0.0117,0.41194 0.24526,0.95287 0.53407,1.12419 0.16764,0.0994 0.27832,0.0406 0.59712,-0.31754 0.34813,-0.39108 0.38312,-0.49154 0.31696,-0.90998 z m -62.032835,-23.8713 c 0,-0.0323 0.02646,-0.0588 0.0588,-0.0588 0.03234,0 0.0588,0.0265 0.0588,0.0588 0,0.0323 -0.02646,0.0588 -0.0588,0.0588 -0.03234,0 -0.0588,-0.0265 -0.0588,-0.0588 z m 49.859265,9.59269 c 0.35571,-0.0622 1.123,-0.17687 1.70509,-0.2549 0.58208,-0.078 1.10413,-0.18241 1.1601,-0.23196 0.056,-0.0496 0.0246,-0.24 -0.0698,-0.42343 -0.15232,-0.296 -0.48944,-0.97095 -1.13558,-2.2736 -0.22964,-0.46294 -0.3914,-0.48654 -1.71865,-0.25074 -0.65258,0.11594 -0.94851,0.17262 -2.49884,0.47856 -0.62728,0.12378 -1.27292,0.28038 -1.96968,0.47773 -0.2587,0.0733 -0.65558,0.17911 -0.88194,0.23519 -0.85264,0.21122 -1.17897,0.31021 -4.39255,1.33248 -1.44931,0.46104 -1.58559,0.52624 -1.23472,0.59076 0.41865,0.077 2.329,0.26911 4.27495,0.42996 1.4303,0.11823 5.86865,0.046 6.76158,-0.11005 z m 5.52631,-0.89949 c 0.86884,-0.16645 1.61437,-0.32406 1.65674,-0.35024 0.075,-0.0463 0.003,-0.4707 -0.25246,-1.49319 -0.3242,-1.29663 -0.54554,-2.69693 -0.69837,-4.41821 -0.065,-0.73227 -0.17548,-1.43839 -0.24546,-1.56916 -0.07,-0.13077 -0.36811,-0.34431 -0.6625,-0.47453 l -0.53525,-0.23676 -0.71881,0.14995 c -0.39535,0.0825 -0.93048,0.23905 -1.18919,0.34796 -0.76955,0.32397 -1.84922,0.67389 -2.35185,0.76223 -5.1045,0.89721 -6.50843,1.03341 -9.76018,0.9469 -1.3582,-0.0361 -3.10117,-0.0745 -3.87328,-0.0853 l -1.40383,-0.0196 -1.53598,1.58398 c -2.4895,2.56727 -3.99268,4.40497 -3.68707,4.50757 0.49612,0.16656 4.95392,0.54567 5.63809,0.47949 1.16196,-0.1124 4.23266,-0.90795 5.68521,-1.47291 0.12936,-0.0503 0.63206,-0.20991 1.11713,-0.35466 0.48507,-0.14476 0.98778,-0.30582 1.11713,-0.35793 0.12936,-0.0521 0.39394,-0.12754 0.58797,-0.16765 0.19402,-0.0401 0.55121,-0.12346 0.79375,-0.18524 1.3202,-0.3363 2.00323,-0.49395 3.0574,-0.70569 1.37119,-0.27542 1.842,-0.35266 2.56425,-0.42069 l 0.77096,-0.0726 0.98625,1.95444 c 0.65232,1.2927 1.04946,1.95445 1.17294,1.95445 0.10269,0 0.89757,-0.13618 1.76641,-0.30263 z m -73.0342632,-3.62281 c -0.265902,-0.24363 -1.695645,-1.01344 -1.882212,-1.01344 -0.132865,0 -0.462662,-0.12521 -0.732883,-0.27825 -0.520321,-0.29467 -1.037247,-0.43864 -2.372791,-0.66087 -1.088575,-0.18114 -2.508329,-0.70647 -2.626235,-0.97176 -0.02156,-0.0485 -0.107477,-0.0882 -0.19093,-0.0882 -0.240575,0 -1.66554296,-1.37231 -1.82519596,-1.75774 -0.07953,-0.19201 -0.125428,-0.59019 -0.101992,-0.88486 0.03497,-0.43973 0.01082,-0.52353 -0.134759,-0.46755 -0.46187404,0.17761 -2.31120004,0.30895 -3.52876004,0.25061 -1.8899,-0.0906 -2.39431,-0.3037 -3.53555,-1.494 -0.35999,-0.37547 -0.85108,-0.79307 -1.09131,-0.92799 -0.94568,-0.53116 -1.9571898,-0.16671 -2.4159898,0.87047 -0.32251,0.72908 -0.89525,1.31032 -1.7612,1.78732 -0.42886,0.23623 -1.28245,0.71834 -1.89688,1.07134 -1.28118,0.73607 -1.73463,0.99537 -2.12995,1.21796 -0.15438,0.0869 -0.30715,0.18981 -0.33949,0.22864 -0.14661,0.17602 -0.60635,0.34144 -0.96241,0.34629 -0.21445,0.003 -0.54865,0.0734 -0.74268,0.15669 l -0.35278,0.1514 0.64676,0.16242 c 0.89362,0.22442 9.0527598,0.22605 11.2804098,0.002 1.74625,-0.17543 3.3879,-0.0623 7.00523804,0.48273 2.24045196,0.33758 9.21621996,1.68984 9.33621796,1.80984 0.02837,0.0284 0.130966,0.0516 0.22798,0.0516 0.09701,0 0.15434,-0.0202 0.127392,-0.0449 z m -37.4227978,-0.89311 c 0.54482,-0.24073 1.32393,-1.18633 1.32875,-1.6127 0.002,-0.1417 0.0558,-0.29035 0.12051,-0.33032 0.0647,-0.04 0.1176,-0.22518 0.1176,-0.41157 0,-0.1864 0.0529,-0.3716 0.11759,-0.41158 0.0647,-0.04 0.11759,-0.19872 0.11759,-0.35277 0,-0.15406 0.0529,-0.31281 0.11759,-0.35278 0.0647,-0.04 0.1176,-0.19043 0.1176,-0.33434 0,-0.16326 0.24866,-0.50338 0.66121,-0.9044 0.36367,-0.35351 1.05509,-1.17191 1.53649,-1.81867 0.48141,-0.64676 0.94033,-1.2565 1.01983,-1.35497 0.0795,-0.0985 0.32386,-0.44243 0.54302,-0.76435 0.21915,-0.32192 0.42914,-0.61177 0.46663,-0.64411 0.0375,-0.0323 0.30534,-0.34983 0.5952,-0.70555 0.28986,-0.35572 0.59752,-0.7208 0.68367,-0.81128 0.20184,-0.21198 1.78469,-2.56964 1.78469,-2.65829 0,-0.037 0.3198,-0.54285 0.71067,-1.12416 0.39087,-0.58131 0.91937,-1.46563 1.17443,-1.96516 l 0.46376,-0.90824 0.004,-0.88195 c 0.002,-0.48507 0.0527,-1.21949 0.1123,-1.63205 0.0596,-0.41256 0.11475,-1.68256 0.12248,-2.82222 0.0253,-3.73254 0.3246,-6.65826 0.70522,-6.89349 0.0563,-0.0348 0.29091,0.0436 0.52145,0.17421 0.23054,0.1306 0.60437,0.34328 0.83073,0.47263 0.22637,0.12935 0.61002,0.34697 0.85255,0.48359 0.47218,0.26599 2.9888,1.97009 3.08681,2.09019 0.0323,0.0396 0.4027498,0.36299 0.8231398,0.71857 2.54767,2.15492 3.59402,3.98489 4.0565,7.09442 0.0979,0.65785 0.23101,1.3598 0.29593,1.55989 0.0991,0.30532 0.0635,0.48485 -0.22145,1.11713 -1.10571,2.45375 -0.92776,5.15529 0.5415,8.22047 0.17051,0.35572 0.5899,0.93128 0.93198,1.27902 l 0.62197,0.63227 0.97313,-0.071 c 1.79263904,-0.13086 2.01375904,-0.19799 2.16190104,-0.65632 0.07174,-0.22197 0.270179,-0.515 0.440973,-0.65118 0.170793,-0.13619 0.310533,-0.35575 0.310533,-0.48791 0,-0.26465 0.404274,-0.52488 0.75054696,-0.48312 0.135262,0.0163 0.234473,-0.0556 0.255037,-0.18494 0.0498,-0.31314 0.286139,-0.55272 0.545249,-0.55272 0.466058,0 0.932358,0.38259 1.538495,1.26228 0.392001,0.56892 0.556043,0.57827 0.556043,0.0317 0,-0.63797 0.255689,-0.75741 1.427915,-0.66702 0.502771,0.0388 1.035398,0.13847 1.183616,0.22155 0.424433,0.23789 1.038462,0.82713 1.217025,1.16788 0.127045,0.24244 0.274359,0.32464 0.666124,0.37167 0.498966,0.0599 1.008834,0.17604 1.9141162,0.43604 0.258704,0.0743 0.629121,0.15973 0.823149,0.18985 0.629447,0.0977 1.392733,0.29922 2.293055,0.6054 1.830009,0.62236 2.158384,0.84065 2.026018,1.34682 -0.07263,0.27772 -0.166913,0.25944 -1.666828,-0.32323 -0.610895,-0.23731 -1.589853,-0.52959 -2.175463,-0.6495 -0.58561,-0.11992 -1.276412,-0.27675 -1.535116,-0.34851 -0.258704,-0.0718 -0.6820372,-0.18237 -0.9407412,-0.24577 -0.258703,-0.0634 -0.560035,-0.14241 -0.669627,-0.17557 -0.168239,-0.0509 -0.184535,-0.009 -0.104688,0.26896 0.210005,0.73111 0.619389,1.45059 0.980429,1.72307 0.5573712,0.42064 1.8974032,1.14076 3.2040722,1.72182 0.323379,0.14381 0.679849,0.30859 0.792154,0.36619 0.112305,0.0576 0.30016,0.10472 0.417454,0.10472 0.117294,0 0.263533,0.0444 0.324975,0.0987 0.06144,0.0543 0.429213,0.1644 0.817269,0.24474 0.388055,0.0803 0.917222,0.19182 1.175926,0.24774 0.258703,0.0559 0.761412,0.13384 1.117129,0.17317 0.355718,0.0393 1.163281,0.17781 1.794586,0.30772 0.631305,0.12991 1.319221,0.21966 1.528704,0.19944 0.330368,-0.0319 0.379902,-0.0796 0.373527,-0.36013 -0.004,-0.17786 -0.01727,-0.98209 -0.0294,-1.78718 l -0.02205,-1.4638 -0.572564,-0.68226 c -1.650736,-1.96701 -4.114108,-4.13082 -6.600585,-5.79793 -0.420393,-0.28186 -0.78199,-0.55583 -0.803549,-0.60882 -0.02156,-0.053 -0.09061,-0.0964 -0.153443,-0.0964 -0.06284,0 -0.415613,-0.20257 -0.783951,-0.45015 -0.368338,-0.24758 -0.74908,-0.4845 -0.846094,-0.52649 -0.09701,-0.042 -0.440972,-0.23758 -0.764352,-0.43466 -0.468607,-0.28559 -3.6532292,-1.88622 -6.2912042,-3.16204 -0.296632,-0.14346 -0.421965,-0.28798 -0.448783,-0.51748 -0.06907,-0.59113 0.412759,-0.45517 3.076331,0.86808 0.248647,0.12353 0.473543,0.22459 0.499769,0.22459 0.08792,0 0.04887,-0.54283 -0.08812,-1.22494 -0.102835,-0.51206 -0.197218,-0.69956 -0.388804,-0.7724 -0.631794,-0.24021 -1.356876,-1.12682 -1.356876,-1.65915 0,-0.1156 -0.05292,-0.24289 -0.117593,-0.28286 -0.06467,-0.04 -0.117592,-0.18486 -0.117592,-0.32197 0,-0.24568 -0.151064,-0.77801 -0.401217,-1.41386 -0.07137,-0.18142 -0.192649,-0.29981 -0.274809,-0.26828 -0.08533,0.0327 -0.229388,-0.12711 -0.343205,-0.38084 -0.149428,-0.33313 -0.19606,-0.78736 -0.195789,-1.90718 l 3.56e-4,-1.46991 0.322183,-0.68793 c 0.177201,-0.37836 0.529921,-0.87894 0.783821,-1.11238 0.468348,-0.43062 0.487197,-0.52344 0.231419,-1.1395 -0.229118,-0.55186 -1.216362,-2.51633 -1.536497,-3.05741 -0.19133,-0.32338 -0.428947,-0.74671 -0.528037,-0.94074 -0.09909,-0.19403 -0.280786,-0.48374 -0.403769,-0.64381 l -0.223605,-0.29103 -0.606755,0.21819 -0.606754,0.21818 -0.193946,-0.19394 c -0.145575,-0.14558 -0.163155,-0.24276 -0.07049,-0.38967 0.141262,-0.22395 0.183138,-0.24872 1.243264,-0.73549 1.145435,-0.52594 1.620213,-1.06726 2.201004,-2.50949 0.178626,-0.44357 0.160255,-1.01899 -0.04393,-1.37618 l -0.168055,-0.29398 -0.0042,0.26044 c -0.0061,0.38059 -0.392839,0.55391 -0.636126,0.28508 -0.256362,-0.28328 -0.241308,-0.67179 0.03681,-0.94991 l 0.227996,-0.22799 -0.443039,-0.40026 c -0.771748,-0.69723 -2.244524,-1.25542 -3.33663196,-1.26461 -0.65797,-0.006 -1.67723304,-0.2554 -2.26486404,-0.55522 -0.470035,-0.23982 -1.230995,-0.98191 -1.862445,-1.81625 -0.31972,-0.42245 -0.35204,-0.91693 -0.0599,-0.91693 0.0642,0 0.49721,0.38724 0.96221,0.86053 0.84085,0.85583 1.362516,1.18904 2.08907804,1.33435 l 0.380444,0.0761 -0.388747,-0.57692 c -1.14741504,-1.70282 -2.32461504,-2.82774 -4.02424504,-3.8455 l -0.90745,-0.54339 -0.56246,0.25351 c -0.7684,0.34634 -2.37436,0.3449 -3.38357,-0.003 -0.38745,-0.13358 -0.7156598,-0.23166 -0.7293698,-0.21796 -0.0137,0.0137 0.5468698,0.60766 1.2456998,1.31992 0.97869,0.99747 1.36155,1.48281 1.66641,2.11245 l 0.39579,0.81746 0.004,1.29351 c 0.004,1.36821 -0.0451,1.5734 -0.6844,2.86419 -0.40058,0.8088 -1.62391,2.18703 -1.86691,2.1033 -0.1689,-0.0582 -0.16745,-0.17429 0.0216,-1.73369 0.14046,-1.15875 0.0775,-2.40438 -0.14809,-2.93004 -0.4169798,-0.97158 -1.3161998,-1.65701 -2.6465598,-2.01731 -1.57289,-0.42599 -1.94723,-0.59112 -2.56788,-1.13275 -0.31617,-0.27591 -0.65291,-0.92958 -0.74482,-1.44583 l -0.0733,-0.41157 -0.21387,0.41157 c -0.29845,0.57436 -0.53822,0.82315 -0.79329,0.82315 -0.1202,0 -0.31044,0.0464 -0.42274,0.10316 -0.34309,0.17333 -1.02962,0.36721 -1.30027,0.36721 -0.33167,0 -0.32319,0.0665 0.0671,0.52626 0.75255,0.88644 0.86464,1.0889 1.09211,1.97259 0.25652,0.99655 -0.16301,1.96686 -1.38546,3.20439 -0.31944,0.32338 -0.82373,0.72923 -1.12063,0.90188 -0.69783,0.4058 -1.12944,1.07082 -1.33992,2.06453 -0.17242,0.81407 -0.15927,1.04752 0.20177,3.58263 0.14643,1.02818 0.14076,2.48167 -0.0148,3.79911 -0.0687,0.58209 -0.12565,2.5399 -0.12644,4.3507 -8e-4,1.8108 -0.0493,3.35 -0.10774,3.42043 -0.19756,0.23806 -1.05002,1.96152 -1.05002,2.1229 0,0.0881 -0.0529,0.16014 -0.11759,0.16014 -0.0647,0 -0.11759,0.0657 -0.11759,0.14595 0,0.0803 -0.1816,0.51683 -0.40355,0.97014 -0.39323,0.8031 -1.08539,2.2717 -1.91255,4.05798 -0.22462,0.48507 -0.72143,1.51859 -1.10402,2.29672 -0.38259,0.77812 -0.69562,1.47926 -0.69562,1.5581 0,0.0788 -0.0529,0.14333 -0.11759,0.14333 -0.0647,0 -0.1176,0.10584 -0.1176,0.23519 0,0.12935 -0.0529,0.23518 -0.11759,0.23518 -0.0647,0 -0.11759,0.0735 -0.11759,0.16336 0,0.0898 -0.2579,0.6587 -0.5731,1.26412 -0.3152,0.60542 -0.63681,1.2992 -0.71468,1.54174 -0.0779,0.24253 -0.17716,0.44838 -0.22065,0.45744 -0.0435,0.009 -1.19032,0.0487 -2.54852,0.0882 l -2.46944,0.0717 -0.0398,0.35278 c -0.0398,0.35302 -0.43011,0.89466 -1.384925,1.92191 -0.53727,0.57803 -0.61074,0.72393 -0.36455,0.72393 0.0831,0 0.2374,-0.14552 0.34297,-0.32338 0.10557,-0.17786 0.57223,-0.71454 1.037035,-1.19263 0.647,-0.6655 0.86938,-0.83088 0.94874,-0.70555 0.25525,0.40308 0.10704,0.67045 -1.02351,1.84639 -0.473775,0.49278 -0.750715,0.87953 -0.750715,1.04837 0,0.52179 0.37139,0.21149 1.087235,-0.90839 0.22738,-0.35572 0.65276,-0.87768 0.9453,-1.15992 l 0.5319,-0.51316 0.12889,0.24085 c 0.20324,0.37976 0.16981,0.45344 -0.56318,1.24135 -0.71462,0.76817 -1.04335,1.24921 -0.85367,1.24921 0.0599,0 0.61543,-0.50991 1.23462,-1.13314 l 1.12581,-1.13315 0.32761,0.12658 c 0.18019,0.0696 0.80387,0.18516 1.38595,0.25676 1.15449,0.14201 1.3951,0.29513 1.27943,0.81424 -0.12257,0.55011 -0.46629,0.88632 -1.20026,1.17402 -0.39526,0.15494 -0.68705,0.33284 -0.64843,0.39533 0.0987,0.15963 1.17107,9e-5 1.76583,-0.26271 z m 20.9108398,-25.24413 c -1.33563,-0.20241 -2.42005,-1.28422 -2.9514998,-2.94439 -0.22921,-0.71604 -0.37889,-3.917 -0.18316,-3.917 0.1746,0 0.2282,0.30504 0.29654,1.68757 0.10249,2.0735 0.7692598,3.33267 2.1131998,3.99074 0.84281,0.41268 2.15428,0.44973 2.93467,0.0829 1.5772,-0.74138 2.31756,-2.05085 2.31756,-4.09908 0,-0.65335 0.11753,-0.75274 0.40491,-0.34245 0.35911,0.51271 0.13995,1.98224 -0.48693,3.26493 -0.38699,0.79184 -1.20795,1.6299 -1.92566,1.96576 -0.54286,0.25404 -1.83948,0.41409 -2.51963,0.31102 z m -0.10943,-2.69549 c -0.40092,-0.40091 -0.0755,-1.42498 0.36712,-1.15531 0.32153,0.19588 0.35731,1.05094 0.0508,1.21495 -0.17907,0.0958 -0.27639,0.0819 -0.41797,-0.0596 z m -27.4248178,24.96964 c 0.22742,-0.27379 0.38934,-0.52195 0.35982,-0.55147 -0.0295,-0.0295 -0.13622,0.0642 -0.23711,0.20823 -0.1009,0.14405 -0.31375,0.39221 -0.47301,0.55147 -0.15927,0.15926 -0.23864,0.28956 -0.17638,0.28956 0.0623,0 0.29925,-0.224 0.52668,-0.49779 z m 37.3634258,0.41352 c -0.245759,-0.0972 -0.806144,-0.58685 -1.56830096,-1.37041 -0.59443,-0.61112 -0.675705,-0.66116 -0.672418,-0.41398 0.0021,0.15464 0.0682,0.36484 0.146991,0.4671 0.274523,0.35633 1.79125796,1.39796 2.02473296,1.39051 0.15659,-0.005 0.179647,-0.0295 0.069,-0.0732 z m -36.6990858,-1.15045 c 0,-0.0323 -0.0265,-0.0588 -0.0588,-0.0588 -0.0323,0 -0.0588,0.0265 -0.0588,0.0588 0,0.0323 0.0264,0.0588 0.0588,0.0588 0.0323,0 0.0588,-0.0265 0.0588,-0.0588 z m 55.15409,-6.0912 c -0.06642,-0.3104 -0.120758,-1.27546 -0.120758,-2.14459 v -1.58024 l -0.440972,-0.2771 c -0.411003,-0.25827 -0.78065,-0.4364 -1.593033,-0.76766 -0.491004,-0.20021 -1.096867,-0.16263 -1.586652,0.0984 -0.631184,0.33642 -0.780702,0.48293 -0.962724,0.94339 -0.22788,0.57647 -0.774432,1.38133 -1.337847,1.97015 l -0.478659,0.50023 0.289527,0.22513 c 0.159239,0.12382 0.659943,0.50208 1.112675,0.84059 1.235287,0.92361 2.321219,1.89565 3.821759,3.42092 l 1.352315,1.3746 0.03256,-2.01974 c 0.01791,-1.11086 -0.02178,-2.27371 -0.08819,-2.5841 z m -14.8516812,3.60951 c -0.03907,-0.0391 -0.140498,-0.0433 -0.225385,-0.009 -0.09381,0.0375 -0.06594,0.0654 0.07104,0.071 0.123962,0.005 0.193415,-0.0227 0.15434,-0.0618 z m 8.6061482,-6.13197 c 0.881822,-0.89091 1.237125,-1.54926 1.348592,-2.49884 0.08687,-0.74007 -0.06835,-1.84445 -0.334115,-2.3772 -0.09975,-0.19996 -0.181369,-0.42985 -0.181369,-0.51087 0,-0.0883 -0.09211,-0.12323 -0.229853,-0.0872 -0.327128,0.0856 -0.462648,-0.47726 -0.187998,-0.78075 0.142979,-0.15799 0.159916,-0.2423 0.06096,-0.30346 -0.09318,-0.0576 -0.112061,-0.2845 -0.05901,-0.70911 0.06925,-0.55427 0.05076,-0.639 -0.164615,-0.75427 -0.19499,-0.10435 -0.242632,-0.0952 -0.242632,0.0465 0,0.097 -0.105833,0.23303 -0.235185,0.30226 -0.129352,0.0692 -0.235185,0.19324 -0.235185,0.27559 0,0.0824 -0.248837,0.26421 -0.552971,0.40412 l -0.55297,0.25439 -0.224092,-0.20247 c -0.12325,-0.11136 -0.345115,-0.44111 -0.493032,-0.73279 -0.267785,-0.52804 -0.995048,-1.40995 -1.162709,-1.40995 -0.147399,0 -1.181768,-0.73658 -1.2923042,-0.92025 -0.182721,-0.30362 -0.911212,-0.96124 -1.064837,-0.96124 -0.172779,0 -0.994364,0.57261 -1.612297,1.1237 -0.235853,0.21035 -0.632728,0.47229 -0.881945,0.5821 -1.016573,0.44794 -0.962929,0.39288 -0.841465,0.86366 0.0609,0.23603 0.137488,0.56145 0.170198,0.72314 0.128386,0.63463 0.595901,1.6407 0.798567,1.71847 0.102061,0.0392 0.370432,-0.1451 0.676363,-0.46439 0.535656,-0.55904 0.961277,-0.73995 1.451412,-0.61694 0.212284,0.0533 0.318166,0.17777 0.369498,0.43443 0.03957,0.19786 0.143801,0.38732 0.231619,0.42102 0.184836,0.0709 0.215922,0.57543 0.04208,0.68287 -0.06468,0.04 -0.117593,0.156 -0.117593,0.25784 0,0.25338 -0.590256,0.74138 -0.896944,0.74155 -0.429761,2.5e-4 -0.495266,0.22101 -0.348974,1.17607 l 0.135092,0.88195 0.42134,0.22728 0.42134,0.22729 0.32632,-0.25669 c 0.55925,-0.4399 0.718612,-0.33022 0.660739,0.45478 -0.0192,0.26042 0.106127,0.3727 0.9524062,0.85329 1.548962,0.87963 1.677832,0.95846 1.719267,1.05169 0.02156,0.0485 0.104185,0.0882 0.183614,0.0882 0.07943,0 0.249412,0.0978 0.37774,0.21737 0.227866,0.21229 0.472214,0.34263 0.677339,0.36131 0.05608,0.005 0.455506,-0.34791 0.887613,-0.78447 z m -6.0134322,-5.59727 c 0.506562,-0.50656 -0.423062,-0.75614 -0.992387,-0.26643 -0.269998,0.23225 -0.300882,0.31092 -0.179475,0.45721 0.174364,0.21009 0.887005,0.0941 1.171862,-0.19078 z m 10.6917442,-0.98791 c 0.244742,-0.67279 1.394168,-1.6757 1.920501,-1.6757 0.379583,0 0.519839,-0.3122 0.358698,-0.79844 -0.439912,-1.32742 -0.734666,-2.58564 -0.896846,-3.82839 -0.203312,-1.55793 -0.439711,-2.1825 -1.164054,-3.07548 l -0.476929,-0.58796 -0.264583,0.26873 c -0.145521,0.1478 -0.264583,0.36211 -0.264583,0.47625 0,0.24764 -0.21924,0.48974 -0.443493,0.48974 -0.0887,0 -0.240644,0.0794 -0.337658,0.17639 -0.284801,0.2848 -0.697936,0.21051 -1.031081,-0.18541 -0.16744,-0.19899 -0.304435,-0.40356 -0.304435,-0.45459 0,-0.051 -0.300141,-0.40415 -0.666979,-0.78472 -0.453422,-0.4704 -0.641679,-0.60723 -0.587963,-0.42737 0.04346,0.14552 0.110367,0.36553 0.148684,0.4889 0.09452,0.30433 -0.286396,0.66473 -0.805487,0.76211 -0.548723,0.10294 -1.482274,-0.25016 -2.294576,-0.8679 -0.340861,-0.25921 -0.67159,-0.4713 -0.734954,-0.4713 -0.06336,0 -0.115207,-0.0529 -0.115207,-0.11759 0,-0.0647 -0.10271,-0.1176 -0.228245,-0.1176 -0.125535,0 -0.26095,-0.0529 -0.300921,-0.11759 -0.03997,-0.0647 -0.43183,-0.11759 -0.8707962,-0.11759 h -0.798119 l -0.685927,0.67506 c -0.950883,0.93582 -1.702103,1.98482 -1.702103,2.3768 0,0.26041 -0.09682,0.37115 -0.510622,0.58397 -0.799599,0.41125 -1.336325,0.9778 -1.576647,1.66425 -0.1824,0.521 -0.195094,2.36589 -0.0175,2.54348 0.267196,0.2672 1.692965,-0.38673 2.586473,-1.18628 0.596773,-0.53403 1.424143,-1.01284 1.750144,-1.01284 0.115801,0 0.289927,0.11907 0.386947,0.26459 0.289838,0.43473 1.3951382,1.4993 1.5566642,1.4993 0.29996,0 1.32015,1.06119 1.693375,1.76144 0.329683,0.61855 0.417871,0.70718 0.637667,0.6409 0.402535,-0.12139 0.469538,-0.23899 0.502011,-0.88114 0.0388,-0.76734 0.279591,-1.05083 0.892555,-1.05083 0.947169,0 1.388748,0.59861 1.388748,1.88258 0,0.45977 0.04429,0.80856 0.09842,0.77511 0.05413,-0.0335 0.490694,0.0939 0.970139,0.28299 1.040621,0.41044 2.067589,0.47901 2.188682,0.14613 z m -3.643229,-1.4095 c -0.02703,-0.17874 -0.04987,-0.0604 -0.05075,0.26297 -8.83e-4,0.32338 0.02123,0.46963 0.04914,0.325 0.02791,-0.14463 0.02863,-0.40922 0.0016,-0.58797 z m -1.417098,-0.57978 c -0.04312,-0.0431 -0.0784,-0.008 -0.0784,0.0784 0,0.0862 0.03528,0.12152 0.0784,0.0784 0.04312,-0.0431 0.04312,-0.11367 0,-0.15679 z m -7.0813352,-7.87841 0.635891,-0.83463 -0.432448,-0.0856 c -0.237847,-0.0471 -0.72349,-0.12875 -1.079207,-0.18154 -0.355718,-0.0528 -0.79228,-0.13259 -0.970139,-0.17734 -0.25297,-0.0636 -0.32338,-0.04 -0.32338,0.10874 0,0.10455 0.05292,0.1901 0.117593,0.1901 0.06468,0 0.117592,0.0744 0.117592,0.16527 0,0.0909 0.113347,0.39518 0.251883,0.67616 0.138536,0.28099 0.304366,0.64317 0.368511,0.80486 0.06415,0.16169 0.17149,0.4132 0.238543,0.55891 l 0.121913,0.26493 0.158679,-0.32764 c 0.08727,-0.1802 0.44483,-0.70322 0.794569,-1.16226 z m 10.0974052,0.15638 c -0.02455,-0.3474 -0.633618,-1.29625 -1.088038,-1.69503 -0.165734,-0.14544 -0.437914,-0.2645 -0.604844,-0.26458 -0.203952,-1e-4 -0.355534,-0.0974 -0.462114,-0.2965 -0.214646,-0.40107 -0.01752,-0.58559 0.625608,-0.58559 h 0.492793 l -0.03647,-0.29398 c -0.119664,-0.96449 -2.044772,-1.24322 -3.14238,-0.45498 l -0.52713,0.37856 -0.675249,-0.12567 c -0.371387,-0.0691 -1.204415,-0.38439 -1.851175,-0.70062 -0.6467592,-0.31622 -1.4140512,-0.64698 -1.7050922,-0.73502 -0.291042,-0.088 -0.873125,-0.26438 -1.293519,-0.39185 -0.420393,-0.12748 -0.856238,-0.2786 -0.968543,-0.33583 -0.112305,-0.0572 -0.30762,-0.10404 -0.434032,-0.10404 -0.126413,0 -0.262546,-0.0529 -0.302517,-0.11759 -0.127144,-0.20572 -0.626074,-0.13283 -0.700724,0.10237 -0.0384,0.12098 -0.326338,0.47185 -0.639869,0.77972 l -0.570055,0.55975 0.478145,0.83718 c 0.546027,0.95604 0.646804,1.04089 1.373706,1.15662 1.680975,0.26763 2.549447,0.32603 3.856298,0.25929 1.4253952,-0.0728 1.6322652,-0.0445 2.4937022,0.34089 0.294319,0.13168 1.300448,0.77004 1.411112,0.89531 0.101753,0.11518 0.579583,0.36054 0.702154,0.36054 0.06456,0 -0.09324,-0.27782 -0.350676,-0.61736 -0.633026,-0.83495 -0.610173,-1.4757 0.04191,-1.17504 0.649158,0.2993 0.945172,0.38129 1.37669,0.38129 0.408084,0 0.550817,0.0834 1.157303,0.67615 0.380495,0.37189 0.776322,0.87926 0.879615,1.12749 0.209336,0.50307 0.497919,0.52706 0.463395,0.0385 z m 0.380012,-1.01031 c -0.166335,-0.26349 -0.325635,-0.47908 -0.354,-0.47908 -0.0618,0 0.337723,0.91036 0.447863,1.0205 0.04237,0.0424 0.08496,0.18728 0.09465,0.32202 0.0127,0.17661 0.03106,0.15716 0.06577,-0.0697 0.03074,-0.2009 -0.0612,-0.48789 -0.254279,-0.79375 z m 0.758856,-0.009 c 0,-0.12935 -0.04796,-0.23519 -0.106584,-0.23519 -0.05862,0 -0.07891,0.10584 -0.04508,0.23519 0.03383,0.12935 0.08179,0.23518 0.106584,0.23518 0.02479,0 0.04508,-0.10583 0.04508,-0.23518 z m -3.442033,0.0465 c -0.03908,-0.0391 -0.140499,-0.0433 -0.225386,-0.009 -0.09381,0.0375 -0.06594,0.0654 0.07104,0.071 0.123963,0.005 0.193416,-0.0227 0.154341,-0.0618 z m 3.206848,-0.45812 c 0,-0.0323 -0.02646,-0.0588 -0.0588,-0.0588 -0.03234,0 -0.0588,0.0265 -0.0588,0.0588 0,0.0323 0.02646,0.0588 0.0588,0.0588 0.03234,0 0.0588,-0.0265 0.0588,-0.0588 z m -0.235185,-0.47037 c 0,-0.0323 -0.02646,-0.0588 -0.0588,-0.0588 -0.03234,0 -0.0588,0.0265 -0.0588,0.0588 0,0.0323 0.02646,0.0588 0.0588,0.0588 0.03234,0 0.0588,-0.0265 0.0588,-0.0588 z m -0.410922,-0.52845 c -0.117421,-0.12975 -0.267432,-0.2359 -0.333357,-0.2359 -0.06593,0 0.0042,0.13208 0.15588,0.29351 0.323553,0.34441 0.491856,0.28978 0.177477,-0.0576 z m -39.34055,-2.37697 c -0.16649,-0.78452 -0.0441,-1.60214 0.38757,-2.5891 0.26655,-0.60942 1.12137,-1.5382 1.67547,-1.82044 0.58352,-0.29721 0.88195,-0.63678 0.88195,-1.00353 0,-0.63212 -0.73265,-1.98114 -1.44993,-2.66974 -0.36671,-0.35205 -0.66674,-0.68278 -0.66674,-0.73496 0,-0.21473 0.4027,-0.0697 0.87022,0.31339 0.49612,0.40653 1.24645,1.65307 1.24645,2.07076 0,0.11645 0.0529,0.24444 0.11759,0.28441 0.0647,0.04 0.11759,0.20184 0.11759,0.35972 0,0.38853 0.178,0.36134 0.43028,-0.0657 0.11462,-0.19403 0.25546,-0.35278 0.31299,-0.35278 0.0575,0 0.0726,-0.21167 0.0334,-0.47037 -0.0391,-0.25871 -0.10379,-0.68862 -0.14369,-0.95536 -0.0603,-0.4035 -0.21729,-0.6288 -0.93396,-1.34084 -0.72548,-0.72079 -0.94135,-0.86798 -1.36797,-0.93278 -0.49215,-0.0748 -0.84547,-0.1945 -1.3297,-0.45065 -0.93723,-0.49577 -1.19028,-0.65772 -1.80533,-1.15537 -0.38088,-0.30819 -0.93747,-0.88622 -1.23688,-1.28451 -0.2994,-0.39829 -0.54436,-0.67817 -0.54436,-0.62196 0,0.0562 0.10732,0.48949 0.23849,0.96282 0.42468,1.53252 1.24398,2.88629 2.59264,4.28395 1.2938,1.3408 1.03361,1.74359 -0.67671,1.04757 -0.90988,-0.37028 -1.63627,-0.84114 -2.33081,-1.51086 -0.58583,-0.5649 -1.11216,-1.23192 -1.11499,-1.413 -0.001,-0.0754 -0.0418,-0.15483 -0.0903,-0.17639 -0.0485,-0.0216 -0.21396,-0.30378 -0.36768,-0.62716 -0.50588,-1.06427 -0.55236,-1.22182 -0.77799,-2.63774 -0.15938,-1.00014 -0.0802,-2.14424 0.18149,-2.62293 0.0614,-0.11231 0.11163,-0.25841 0.11163,-0.32466 0,-0.0663 0.11111,-0.37125 0.2469,-0.67776 0.41901,-0.94572 0.54589,-1.29623 0.7693,-2.12516 0.0232,-0.0862 0.10837,-0.13343 0.18919,-0.1049 0.17399,0.0614 0.14862,1.13016 -0.0311,1.30988 -0.0638,0.0638 -0.11596,0.21192 -0.11596,0.32922 0,0.11729 -0.0478,0.30515 -0.10613,0.41745 -0.0584,0.11231 -0.16779,0.44232 -0.24315,0.73336 -0.0754,0.29104 -0.18635,0.69167 -0.24665,0.89029 -0.14817,0.48811 -0.14161,3.1918 0.008,3.28425 0.0647,0.04 0.11759,0.17082 0.11759,0.29078 0,0.81639 1.73892,2.98316 2.96772,3.69791 0.62364,0.36275 0.92193,0.36667 0.58887,0.008 -0.78452,-0.84543 -1.78249,-2.69202 -2.08728,-3.86217 -0.2036,-0.78168 -0.23749,-3.17855 -0.0551,-3.89723 0.28082,-1.10654 0.4057,-1.42795 0.66572,-1.71331 0.17097,-0.18764 0.3408,-0.61113 0.44799,-1.11713 0.2108,-0.99508 0.22002,-1.50163 0.0366,-2.00895 -0.0771,-0.21316 -0.10725,-0.42046 -0.067,-0.46067 0.0402,-0.0402 0.56685,0.42466 1.17031,1.03305 0.60346,0.60839 1.26863,1.18204 1.47815,1.27478 0.20952,0.0927 0.38094,0.20863 0.38094,0.25751 0,0.0489 0.097,0.0889 0.21559,0.0889 0.11857,0 0.25185,0.0363 0.29618,0.0806 0.13776,0.13776 0.9431,0.38615 1.258,0.38801 0.16493,9.8e-4 0.3623,-0.0607 0.4386,-0.13696 0.10369,-0.1037 0.20616,-0.10555 0.40569,-0.007 0.24304,0.11962 2.32483,0.27941 2.32483,0.17845 0,-0.26293 -1.35124,-1.09071 -1.78044,-1.09071 -0.11416,0 -0.32912,-0.0462 -0.47768,-0.10255 -0.14856,-0.0564 -0.48178,-0.16993 -0.74049,-0.25227 -0.80206,-0.25529 -1.77936,-1.0054 -2.29044,-1.758 -0.26014,-0.38307 -0.47298,-0.76819 -0.47298,-0.85582 0,-0.0876 -0.0582,-0.21749 -0.12928,-0.2886 -0.15227,-0.15227 -0.0236,-0.65897 0.14149,-0.55697 0.0621,0.0384 0.22856,0.31695 0.36996,0.61907 0.47689,1.01898 1.47069,1.79257 3.18054,2.47576 0.1809,0.0723 0.40637,0.13142 0.50105,0.13142 0.724,0 2.10974,1.14762 2.76885,2.29305 0.35294,0.61336 0.45506,1.18628 0.19354,1.08584 -0.11244,-0.0432 -0.14972,0.29236 -0.1586,1.42793 -0.006,0.81641 -0.0505,1.96063 -0.0981,2.54272 -0.0679,0.83059 -0.0484,1.1469 0.0906,1.4699 0.34542,0.8027 1.15945,1.40387 2.5473,1.88125 1.93443,0.66537 3.0055198,1.4165 3.5105898,2.46187 0.30244,0.62597 0.41277,1.7744 0.2493,2.59485 -0.0709,0.35571 -0.15926,0.83051 -0.19641,1.0551 l -0.0675,0.40834 0.50559,-0.52594 c 0.27808,-0.28926 0.63166,-0.81081 0.78574,-1.15901 l 0.28015,-0.63307 -0.0456,-1.83637 c -0.0251,-1.01 -0.0887,-1.99512 -0.14143,-2.18915 -0.18315,-0.67406 -0.64241,-1.21705 -1.97145,-2.33095 -1.7877398,-1.49833 -3.2590898,-3.13929 -3.2609598,-3.63687 -10e-4,-0.33934 0.18548,-0.24039 0.90337,0.47867 1.0671,1.06883 2.5120798,1.6694 4.2273998,1.75701 1.22298,0.0625 1.81072,-0.0758 2.31582,-0.54477 0.3542,-0.32887 0.66653,-0.95285 0.66653,-1.33163 v -0.22937 l -0.32338,0.2544 c -0.49695,0.39095 -1.05975,0.58582 -1.69191,0.58582 -1.57709,0 -2.43488,-0.73625 -3.6392398,-3.12362 -0.72644,-1.43998 -1.31271,-2.45291 -1.52712,-2.63842 -0.0374,-0.0323 -0.29642,-0.39773 -0.57566,-0.81199 -0.56568,-0.83919 -0.66015,-0.96017 -1.41492,-1.81196 -1.41604,-1.59808 -2.58655,-2.43742 -4.12736,-2.95963 -0.82987,-0.28125 -1.23374,-0.3432 -2.52453,-0.38722 -1.30954,-0.0447 -1.69185,-0.0139 -2.58704,0.20818 -0.91219,0.22629 -1.35898,0.40684 -2.7252,1.10129 -0.14501,0.0737 -0.26407,0.1737 -0.26458,0.22221 -5e-4,0.0485 -0.0562,0.0882 -0.12382,0.0882 -0.15158,0 -1.7912,1.09907 -2.26295,1.5169 -1.05272,0.93239 -1.49474,2.16754 -1.49461,4.17636 1.8e-4,2.55136 0.61885,4.53841 2.24798,7.22001 0.25111,0.41333 0.45656,0.79902 0.45656,0.85708 0,0.0581 0.0404,0.10558 0.0898,0.10558 0.0494,0 0.18011,0.19843 0.29042,0.44097 0.11031,0.24253 0.27705,0.57326 0.37053,0.73495 0.59173,1.02351 0.80287,1.79828 0.86527,3.175 0.0637,1.40455 -0.14166,2.44974 -0.71305,3.62983 -0.25555,0.52779 -0.95047,1.30906 -1.16437,1.30906 -0.0703,0 -0.0594,0.0733 0.0262,0.17639 0.4039,0.48667 2.15067,-0.01 2.86284,-0.81341 0.76383,-0.86207 1.1461,-2.99982 0.77523,-4.3353 -0.12461,-0.44875 -0.0621,-0.90731 0.1237,-0.90731 0.19297,0 0.34318,0.77464 0.42184,2.17547 0.0706,1.25683 0.2004,1.94496 0.51028,2.70463 0.0528,0.12935 0.14946,0.36747 0.21487,0.52916 0.0654,0.16169 0.27947,0.63794 0.47569,1.05834 0.19621,0.42039 0.42758,0.9386 0.51416,1.15158 0.22409,0.55126 0.27638,0.15644 0.0934,-0.70561 z m -3.27022,-22.13677 c -0.48464,-0.52577 -0.60001,-0.76939 -0.36436,-0.76939 0.27361,0 1.05631,1.09394 0.89681,1.25344 -0.0247,0.0247 -0.26429,-0.19313 -0.53245,-0.48405 z m 7.06885,11.63442 c 0.24313,-0.0454 0.47115,-0.12964 0.5067,-0.18717 0.0356,-0.0575 0.15681,-0.1046 0.26945,-0.1046 0.38528,0 0.80307,-0.28222 0.94884,-0.64095 0.4216,-1.03751 0.59637,-1.59962 0.59637,-1.9181 0,-0.13711 0.0529,-0.282 0.11759,-0.32197 0.0662,-0.0409 0.11759,-0.60647 0.11759,-1.29352 0,-0.68705 -0.0514,-1.25262 -0.11759,-1.29352 -0.0647,-0.04 -0.11759,-0.17613 -0.11759,-0.30257 0,-0.26596 -0.46029,-1.01754 -0.67473,-1.10172 -0.08,-0.0314 -0.40051,-0.091 -0.71213,-0.13229 l -0.56657,-0.0752 -0.16233,0.51189 c -0.31544,0.99472 -0.86069,1.42975 -1.52697,1.21828 -0.36385,-0.11548 -0.28727,-0.24398 0.27291,-0.45792 0.49027,-0.18723 0.68172,-0.41081 0.84211,-0.98343 0.1645,-0.58728 -0.84773,-0.14845 -1.29617,0.56192 -0.16214,0.25686 -0.3435,0.46702 -0.40301,0.46702 -0.21245,0 -0.24897,-0.46035 -0.0704,-0.88767 0.231,-0.55286 0.23996,-0.52344 -0.15926,-0.52344 -0.61144,0 -2.00774,-0.82751 -3.01055,-1.78419 l -0.58796,-0.56092 -0.0836,0.72561 c -0.0764,0.66322 -0.17292,1.02188 -0.45148,1.6783 -0.41196,0.97079 -0.45726,1.33397 -0.34017,2.72705 0.1705,2.02842 0.17796,2.05516 0.7295,2.61628 0.58222,0.59234 1.96515,1.59187 2.55643,1.8477 0.22637,0.0979 0.49095,0.22541 0.58797,0.28326 0.18946,0.11299 2.00784,0.0677 2.73512,-0.0682 z m -1.20225,-1.14432 c 0.002,-0.14552 0.0798,-0.39687 0.17222,-0.55856 0.0924,-0.16169 0.16993,-0.44568 0.17222,-0.63108 0.004,-0.29636 -0.0278,-0.32709 -0.26041,-0.25427 -0.51232,0.16037 -0.72208,0.12304 -0.86242,-0.15351 -0.14578,-0.28726 -0.096,-0.72503 0.0824,-0.72503 0.0571,0 0.10388,0.0729 0.10388,0.16199 0,0.0891 0.0732,0.22274 0.16265,0.29698 0.12543,0.1041 0.17842,0.0939 0.2315,-0.0444 0.0379,-0.0987 0.20279,-0.17939 0.36651,-0.17939 0.17449,0 0.29767,-0.0671 0.29767,-0.16204 0,-0.0891 0.11906,-0.2466 0.26459,-0.34993 l 0.26458,-0.18788 -0.20826,-0.12767 c -0.11454,-0.0702 -0.17757,-0.17734 -0.14005,-0.23804 0.12257,-0.19832 0.39786,-0.11621 0.58914,0.17573 0.14582,0.22255 0.15856,0.34009 0.0574,0.52917 -0.0716,0.13369 -0.2076,0.24307 -0.30234,0.24307 -0.0947,0 -0.17225,0.081 -0.17225,0.18008 0,0.099 -0.0794,0.21054 -0.17639,0.24777 -0.22131,0.0849 -0.23333,0.51289 -0.0144,0.51289 0.0891,0 0.22787,-0.0794 0.30838,-0.17639 0.18486,-0.22274 1.36783,-0.24744 1.44029,-0.0301 0.10372,0.31116 -0.21321,0.95056 -0.66125,1.33407 -0.40588,0.34741 -0.55232,0.40109 -1.09419,0.40109 h -0.62559 z m 1.40946,-0.3978 c 0.2942,-0.19469 0.46785,-0.39966 0.46785,-0.55223 v -0.24263 l -0.38777,0.37585 c -0.21328,0.20671 -0.42872,0.37584 -0.47877,0.37584 -0.05,0 -0.17037,0.0794 -0.26739,0.17639 -0.3063,0.3063 0.13542,0.21796 0.66608,-0.13322 z m -0.47289,-0.39226 c 0,-0.0626 -0.0794,-0.0834 -0.17639,-0.0462 -0.097,0.0372 -0.17639,0.0885 -0.17639,0.11391 0,0.0254 0.0794,0.0462 0.17639,0.0462 0.097,0 0.17639,-0.0513 0.17639,-0.11391 z m 0.23519,-0.18008 c 0,-0.0323 -0.0265,-0.0588 -0.0588,-0.0588 -0.0323,0 -0.0588,0.0265 -0.0588,0.0588 0,0.0323 0.0265,0.0588 0.0588,0.0588 0.0323,0 0.0588,-0.0265 0.0588,-0.0588 z m 0.47037,-0.2226 c 0,-0.0254 -0.0794,-0.0767 -0.17639,-0.1139 -0.097,-0.0372 -0.17639,-0.0164 -0.17639,0.0462 0,0.0627 0.0794,0.1139 0.17639,0.1139 0.097,0 0.17639,-0.0208 0.17639,-0.0462 z m -5.52685,-0.42819 c -0.15268,-0.10216 -0.1457,-0.14144 0.0519,-0.29218 0.12554,-0.0958 0.33222,-0.17416 0.45927,-0.17416 0.34011,0 0.9808,-0.53374 1.20315,-1.00232 0.10669,-0.22483 0.24253,-0.40879 0.30187,-0.40879 0.25086,0 0.23201,0.41278 -0.042,0.91979 -0.42367,0.78393 -1.47305,1.29298 -1.97417,0.95766 z m -0.77877,-0.40269 c -0.11228,-0.29261 0.19521,-1.00095 0.61808,-1.42382 0.4566,-0.45661 1.08538,-0.75649 1.58616,-0.75649 h 0.33841 v 0.41157 c 0,0.35927 -0.0369,0.41158 -0.2904,0.41158 -0.54809,0 -1.48793,0.63536 -1.78252,1.20504 -0.18445,0.35667 -0.36838,0.41624 -0.46973,0.15212 z"
       id="path2" /><path
       style="fill:#4d4d4d"
       d="m 7.3846337,-26.458702 c -0.420393,-0.0831 -0.870185,-0.18989 -0.999537,-0.23725 -1.858301,-0.68038 -3.33312,-2.45364 -3.916638,-4.70919 -0.06693,-0.25871 -0.178792,-0.68818 -0.248589,-0.95439 -0.0698,-0.2662 -0.126902,-0.61294 -0.126902,-0.77052 v -0.28651 l -1.38171304,-0.008 c -1.102966,-0.006 -1.507207,-0.0565 -2.00376896,-0.24999 -1.83409,-0.7147 -2.89387,-1.73759 -3.446378,-3.3264 -0.225386,-0.64813 -0.262047,-0.99518 -0.259835,-2.4597 0.0027,-1.778279 0.124104,-2.48363 0.620823,-3.606546 0.255627,-0.577886 0.553762,-0.979562 0.72706,-0.979562 0.05465,0 0.09937,0.502709 0.09937,1.11713 0,0.614421 0.0464,1.11713 0.103112,1.11713 0.25222,0 0.651628,-1.255004 0.696773,-2.189373 l 0.04613,-0.954651 -0.393607,-0.144895 c -0.731726,-0.269365 -2.060502,-0.604457 -3.744995,-0.944415 -0.291042,-0.05874 -0.767292,-0.159297 -1.058334,-0.223467 -0.291041,-0.06417 -0.687916,-0.148487 -0.881944,-0.187372 -0.543602,-0.108943 -1.2623537,-0.308811 -1.5874997,-0.441446 -0.161689,-0.06596 -0.413049,-0.165759 -0.558569,-0.221782 -0.57609,-0.221785 -0.97441,-0.430078 -2.55763,-1.337461 -0.90547,-0.518943 -2.09609,-1.170096 -2.64584,-1.447006 -1.6059,-0.808906 -2.11897,-1.367878 -2.1125,-2.301538 0.002,-0.330826 0.0696,-0.71924 0.14955,-0.863142 0.16183,-0.291231 0.87653,-0.85549 1.08358,-0.85549 0.13514,0 1.23142,-0.42698 2.14349,-0.834844 0.27488,-0.122919 0.75113,-0.334319 1.05834,-0.469777 0.30721,-0.135457 0.8496,-0.379128 1.20532,-0.54149 0.35572,-0.162362 0.75259,-0.337301 0.88194,-0.388753 0.12936,-0.05145 0.48597,-0.204657 0.79247,-0.340454 0.30651,-0.135797 0.626654,-0.246904 0.711438,-0.246904 0.08478,0 0.204423,-0.04453 0.2658647,-0.09896 0.114085,-0.101056 1.335634,-0.479957 2.287176,-0.709438 2.426322,-0.585151 5.552362,-0.610482 8.17268496,-0.06623 l 0.82314804,0.170973 0.323639,-0.38313 0.323639,-0.38313 -0.06497,-0.881944 c -0.06214,-0.843564 0.101641,-2.092002 0.39693,-3.025675 l 0.120131,-0.37984 -0.784872,-0.226354 c -0.75414304,-0.217492 -1.22562004,-0.325961 -2.58713004,-0.5952 -0.79860396,-0.157924 -3.22927996,-0.160347 -4.04218496,-0.004 -1.384822,0.266296 -1.990315,0.405747 -3.62176,0.834127 -3.2970977,0.865743 -3.3257077,0.869615 -6.3499977,0.859348 -1.51989,-0.0052 -3.21322,-0.0708 -3.76297,-0.145877 -0.54974,-0.07507 -2.11078,-0.272859 -3.46898,-0.439526 -1.35819,-0.166667 -2.94569,-0.379273 -3.52777,-0.472457 -0.58209,-0.09319 -1.90816,-0.248142 -2.94684,-0.344349 -2.49261,-0.230881 -3.52801,-0.118392 -4.4263,0.480887 -0.34274,0.228655 -1.17879,0.681324 -1.85788,1.005932 -1.17463,0.561469 -1.36871,0.648643 -2.05787,0.924309 -0.16169,0.06468 -0.42628,0.170509 -0.58797,0.235185 -0.16169,0.06468 -0.42627,0.170509 -0.58796,0.235185 -0.16169,0.06468 -0.41304,0.1664 -0.55856,0.226052 -0.14552,0.05965 -0.6017,0.231632 -1.01373,0.382176 -0.48008,0.175408 -0.8152,0.379303 -0.93305,0.567698 -0.34176,0.546308 -0.65064,0.823148 -0.9184,0.823148 -0.1466,0 -0.29925,-0.05292 -0.33922,-0.117592 -0.04,-0.06468 -0.25476,-0.117593 -0.47731,-0.117593 -0.22255,0 -0.40464,-0.05292 -0.40464,-0.117592 0,-0.06468 -0.12581,-0.117593 -0.27958,-0.117593 -0.15377,0 -0.34282,-0.0762 -0.42011,-0.169329 -0.0773,-0.09313 -0.25575,-0.185736 -0.39658,-0.205787 -0.15375,-0.02189 -0.32651,-0.188119 -0.43243,-0.416089 -0.13709,-0.295046 -0.25031,-0.380198 -0.50817,-0.382176 -0.38818,-0.003 -0.63056,-0.21352 -0.79767,-0.692903 -0.0919,-0.263595 -0.21533,-0.362448 -0.52516,-0.420574 -0.54811,-0.102826 -0.802,-0.503286 -0.70038,-1.104741 l 0.0776,-0.459521 -0.28694,-0.07202 c -0.38668,-0.09705 -0.62331,-0.667099 -0.45825,-1.103946 0.0672,-0.177858 0.15265,-0.658593 0.18989,-1.068299 0.0372,-0.409705 0.15495,-0.912414 0.26157,-1.117129 0.10662,-0.204716 0.23133,-0.450856 0.27714,-0.546977 0.0458,-0.09612 0.28964,-0.223328 0.54185,-0.28268 0.29933,-0.07044 0.72082,-0.344276 1.21372,-0.788527 0.67601,-0.609297 1.6717,-1.187762 3.09602,-1.798681 1.02881,-0.441279 1.33579,-0.57095 1.5581,-0.658156 0.4148,-0.162712 1.98187,-0.934376 2.52824,-1.244967 0.6238,-0.3546 0.93167,-0.341154 2.5603,0.111819 l 1.0904,0.303273 0.6147,-0.139256 c 0.33808,-0.07659 1.35553,-0.513164 2.26099,-0.970163 0.96719,-0.488151 2.30115,-1.040957 3.2338,-1.340112 0.87312,-0.280063 1.67938,-0.556656 1.79169,-0.614652 0.1123,-0.058 0.30762,-0.105447 0.43403,-0.105447 0.12641,0 0.26255,-0.05292 0.30252,-0.117593 0.04,-0.06468 0.19126,-0.117592 0.3362,-0.117592 0.14494,0 0.31379,-0.04211 0.37523,-0.09359 0.0615,-0.05147 0.32338,-0.160804 0.58209,-0.242958 0.2587,-0.08216 0.58943,-0.19879 0.73495,-0.259191 0.52808,-0.219189 0.80656,-0.326742 1.49931,-0.579061 0.38805,-0.141342 0.832,-0.30748 0.98654,-0.369197 0.61093,-0.243972 2.8115,-0.816793 3.76621,-0.980368 0.55511,-0.09511 1.79408,-0.227699 2.75327,-0.294647 2.32271,-0.162118 7.1349977,-0.167099 7.2945457,-0.0076 0.153834,0.153834 0.91702,0.155215 2.194645,0.004 1.298548,-0.15372 3.307942,-0.64379 3.905273,-0.952454 0.112305,-0.05803 0.25840196,-0.105514 0.32466096,-0.105514 0.06626,0 0.371247,-0.111991 0.677753,-0.248868 0.306506,-0.136878 0.742491,-0.326805 0.968857,-0.42206 0.22636604,-0.09526 2.02553304,-0.976479 3.99814804,-1.958274 1.972616,-0.981795 3.824699,-1.880774 4.115741,-1.997732 0.291042,-0.116958 0.635,-0.254372 0.764352,-0.305366 0.129352,-0.05099 0.3674773,-0.149239 0.5291663,-0.218323 0.370338,-0.158233 1.540425,-0.535939 2.23426,-0.721225 0.291041,-0.07772 0.691673,-0.190642 0.890293,-0.250935 0.19862,-0.06029 0.530483,-0.109625 0.737475,-0.109625 0.406956,0 0.37721,0.04358 0.842805,-1.234722 0.141341,-0.388056 0.304742,-0.824618 0.363113,-0.970139 0.05837,-0.145521 0.152341,-0.383646 0.208824,-0.529167 0.270919,-0.697993 1.254739,-2.762368 1.664535,-3.492738 l 0.22776,-0.405933 -0.194433,-0.296742 c -0.106938,-0.163209 -0.297853,-0.509706 -0.424255,-0.769994 -0.126402,-0.260288 -0.276113,-0.565137 -0.332692,-0.677442 -0.144737,-0.287295 -0.127956,-1.192252 0.02936,-1.583563 0.248679,-0.61855 0.396981,-0.913646 0.573322,-1.140816 1.212907,-1.562517 2.328618,-2.055608 3.351389,-1.481152 0.5123,0.287742 0.529166,0.288344 0.529166,0.0189 0,-0.248237 0.623912,-0.851749 1.23588,-1.195471 0.575777,-0.323395 1.648577,-0.317036 2.35271,0.01394 0.602693,0.283299 1.110355,0.825174 1.125221,1.201052 0.0081,0.2056 0.0326,0.186595 0.125134,-0.09722 0.105319,-0.323004 0.191185,-0.84313 0.407675,-2.469445 0.05238,-0.393491 0.198621,-0.743545 0.442142,-1.058335 0.48254,-0.62377 0.511196,-0.65201 1.176339,-1.15938 0.7587,-0.57874 1.271258,-0.7809 1.97995,-0.7809 1.180407,0 1.992387,0.96112 2.483648,2.939819 0.345285,1.390741 0.441867,2.382477 0.498157,5.115278 0.05086,2.468965 0.250114,4.619805 0.529624,5.716884 0.05958,0.233869 0.108335,0.596718 0.108335,0.806331 0,0.315762 0.03529,0.367074 0.205787,0.299237 0.113183,-0.04503 0.523287,-0.134598 0.911343,-0.199035 1.553907,-0.258024 4.026576,-0.769327 5.556249,-1.148931 0.274873,-0.06821 0.698206,-0.171677 0.940741,-0.229922 0.725967,-0.17434 2.235206,-0.593161 2.766308,-0.767664 0.744609,-0.244654 2.425106,-0.727205 3.025127,-0.868659 0.291042,-0.06861 0.777495,-0.180931 1.081008,-0.249597 0.303512,-0.06867 1.308929,-0.124035 2.234259,-0.123042 2.375977,0.0025 3.806339,0.384628 4.84109,1.293151 0.588469,0.516683 0.761473,0.98614 1.007854,2.734885 0.275241,1.953579 0.535097,3.005231 0.93359,3.778299 l 0.309144,0.59973 1.411111,-0.006 c 0.776111,-0.0033 1.781527,-0.07161 2.234259,-0.151782 0.452731,-0.08017 0.995618,-0.175919 1.206414,-0.212768 0.210796,-0.03685 0.412357,-0.114068 0.447912,-0.171598 0.03556,-0.05753 0.220991,-0.1046 0.41208,-0.1046 0.191088,0 0.439319,-0.04642 0.551625,-0.103157 0.312219,-0.157734 1.02043,-0.367213 1.241475,-0.367213 0.153708,0 0.197689,-0.110694 0.198569,-0.499769 9.46e-4,-0.418434 0.101218,-0.633731 0.616132,-1.322917 0.819827,-1.097296 1.076538,-1.344177 1.482031,-1.425275 0.935817,-0.187164 1.655805,1.18154 1.143089,2.173022 -0.306171,0.592071 -0.05348,0.648132 0.705116,0.156436 0.383575,-0.24862 0.773244,-0.544408 0.865931,-0.657306 0.09269,-0.112898 0.38038,-0.313352 0.639318,-0.445452 0.418349,-0.213425 0.602627,-0.231626 1.654163,-0.163377 2.168893,0.140771 2.157706,0.137249 2.977867,0.937329 0.567515,0.553619 0.86012,0.974071 1.277222,1.835272 0.29758,0.614421 0.698383,1.441075 0.890673,1.837008 l 0.349618,0.719879 0.607419,-0.229338 c 0.334081,-0.126136 0.843003,-0.411955 1.130937,-0.635152 0.287935,-0.223198 0.592206,-0.379456 0.676157,-0.347241 0.199518,0.07656 0.214822,-2.486089 0.01852,-3.100697 -0.569269,-1.782318 -1.258739,-3.003104 -2.274763,-4.027729 -1.865899,-1.881695 -3.906941,-2.93605 -4.291754,-2.217021 -0.07052,0.131771 -0.337787,0.283442 -0.621498,0.352694 -2.087329,0.509509 -4.801687,1.810858 -6.137902,2.942704 -1.401028,1.186746 -2.981174,3.010773 -3.432922,3.962761 -0.212408,0.447617 -0.458225,0.6065 -0.646719,0.418005 -0.152005,-0.152004 0.422514,-1.245516 1.198393,-2.280966 2.026396,-2.704325 5.020916,-4.722753 8.344992,-5.624865 0.568796,-0.154364 0.831978,-0.26393 1.293519,-0.538509 0.408959,-0.243297 1.153396,-0.119245 1.977775,0.329574 0.367432,0.200042 0.694517,0.394992 0.726855,0.433222 0.03234,0.03823 0.248938,0.211093 0.481333,0.384142 1.09836,0.817873 2.594207,2.567764 3.042013,3.55865 0.448657,0.992768 0.592394,1.395461 0.592394,1.659651 0,0.149975 0.04733,0.301931 0.105171,0.33768 0.220858,0.136498 0.333533,1.8772 0.242167,3.741242 -0.0103,0.210197 0.02088,0.953314 0.0693,1.651372 0.09962,1.436298 -2.62e-4,1.917993 -0.578051,2.787749 -0.583276,0.878017 -1.330015,1.491495 -2.218165,1.822316 -0.787381,0.293287 -0.829637,0.372574 -0.674215,1.26507 0.07836,0.449965 0.146685,2.733411 0.168346,5.625959 0.02005,2.67773 0.07615,5.57492 0.124662,6.4382 0.08722,1.552065 0.01973,2.177634 -0.350942,3.253067 -0.204998,0.594759 -0.794122,1.432772 -1.158593,1.648071 -0.649533,0.383689 -2.362092,0.132246 -4.084344,-0.599676 -0.358794,-0.15248 -1.284836,-0.438681 -2.057871,-0.636002 -1.401604,-0.357768 -1.796046,-0.481146 -2.463851,-0.770674 -0.194027,-0.08412 -0.590902,-0.247109 -0.881944,-0.362196 -1.499069,-0.592776 -3.618044,-1.917521 -5.859991,-3.66356 -0.668297,-0.520473 -1.356949,-1.07021 -1.530339,-1.221638 -0.173389,-0.151429 -0.508375,-0.420046 -0.744413,-0.596926 -0.236037,-0.17688 -0.499885,-0.390212 -0.586328,-0.474071 -0.08644,-0.08386 -0.696531,-0.587512 -1.35575,-1.119227 -0.65922,-0.531716 -1.230146,-1.017829 -1.268725,-1.080252 -0.04103,-0.06638 -0.544146,0.06083 -1.212068,0.306464 -1.513758,0.556707 -4.659832,1.62201 -5.287062,1.790268 -1.786131,0.479143 -3.696367,0.864615 -5.909027,1.1924 -0.877716,0.130026 -1.471998,0.230645 -2.70463,0.457928 -0.355718,0.06559 -0.990718,0.1786 -1.411111,0.251133 -0.420394,0.07253 -1.002477,0.17689 -1.293519,0.231904 -0.4943,0.09343 -1.008,0.170211 -3.138728,0.469108 -0.465121,0.06525 -1.840954,0.118622 -3.057408,0.118611 -2.12185,-2e-5 -3.039608,-0.0986 -4.445993,-0.477561 -0.258704,-0.06971 -0.576204,-0.152781 -0.705556,-0.184602 -0.129351,-0.03182 -0.427734,0.02303 -0.663071,0.121884 -0.37468,0.157392 -0.549032,0.395907 -1.40213,1.918122 -0.852212,1.520635 -2.479121,4.098461 -2.692737,4.266622 -0.04108,0.03234 -0.201882,0.244004 -0.357339,0.47037 -0.155458,0.226366 -0.316982,0.438033 -0.358942,0.470371 -0.148171,0.114193 -1.404947,2.041463 -1.404947,2.154491 0,0.0714 0.365843,0.08559 0.970139,0.03762 4.924283,-0.39089 13.560977,-0.02618 14.77576,0.623955 0.346662,0.185528 0.520513,0.994552 0.364204,1.694844 -0.12569,0.563116 -0.551706,1.587894 -0.715653,1.7215 -0.03968,0.03234 -0.09331,0.119408 -0.119179,0.193489 -0.11624,0.332902 -1.587805,1.977282 -2.308769,2.579902 -1.59831,1.33595 -4.323615,2.879804 -6.533426,3.701109 -0.530762,0.197264 -1.056907,0.408701 -1.169212,0.469859 -0.112305,0.06116 -0.30016,0.111197 -0.417454,0.111197 -0.117294,0 -0.278083,0.06482 -0.357308,0.144046 -0.113667,0.113667 -0.193029,0.113457 -0.376297,-9.96e-4 l -0.23225,-0.145043 -0.0013,0.441969 c -0.0029,0.996284 -0.611978,2.394006 -1.332848,3.058476 -0.877618,0.80896 -2.34391,1.31607 -3.839909,1.32801 l -0.646803,0.005 0.47037,0.16945 c 0.258704,0.0932 0.612769,0.17026 0.78681,0.17123 0.371439,0.002 0.49181,0.14859 0.388782,0.4732 -0.0445,0.1402 -0.177974,0.23413 -0.332711,0.23413 -0.14212,0 -0.469284,0.11419 -0.727029,0.25377 -0.257746,0.13957 -0.704575,0.29879 -0.992952,0.35381 -0.288377,0.055 -0.568607,0.14433 -0.622733,0.19846 -0.139056,0.13905 1.483643,0.84058 2.292122,0.99094 1.072422,0.19943 2.180074,-0.0707 4.322989,-1.05438 1.318725,-0.60533 1.708437,-0.72636 2.469445,-0.76692 l 0.646759,-0.0345 v 0.29169 c 0,0.2222 -0.12085,0.35835 -0.507289,0.57152 -0.279009,0.15391 -0.781717,0.57731 -1.11713,0.94088 -0.732907,0.79445 -2.094539,2.14802 -2.325408,2.31165 -0.24423,0.1731 -1.049785,0.52535 -1.694618,0.74101 -0.194027,0.0649 -0.802868,0.17963 -1.352979,0.25496 l -1.000201,0.13697 6.64e-4,0.36408 c 5.73e-4,0.31397 -0.09876,0.43237 -0.721695,0.86026 -1.12399,0.77206 -2.03329,1.02375 -3.685933,1.02024 -1.043318,-0.002 -1.606299,-0.065 -2.307608,-0.2573 -1.214962,-0.33316 -2.61599,-1.08901 -3.424593,-1.84757 l -0.649067,-0.6089 0.07563,0.84405 c 0.121934,1.36078 0.206564,1.89507 0.319029,2.0141 0.05805,0.0614 0.105548,0.18331 0.105548,0.27082 0,0.26672 0.546756,0.9822 0.884469,1.1574 0.175087,0.0908 0.510729,0.16634 0.745871,0.16778 0.588811,0.004 1.013553,0.3428 0.915991,0.73152 -0.149742,0.59662 -1.36613,0.88234 -2.663924,0.62573 z m 0.881945,-0.83924 c -0.51833,-0.26958 -0.822043,-0.58926 -1.086895,-1.14405 -0.442177,-0.92622 -0.500605,-1.15179 -0.500605,-1.93267 0,-0.76515 -0.137254,-1.73907 -0.377238,-2.67678 -0.187623,-0.73312 -0.552907,-1.41275 -1.110237,-2.06568 -0.505083,-0.59172 -0.678532,-1.16812 -0.351511,-1.16812 0.210178,0 1.376786,1.55103 1.702286,2.26322 0.725085,1.58649 2.548661,2.92135 4.7884303,3.50513 1.608869,0.41934 3.552425,0.29071 4.840129,-0.32035 0.465824,-0.22104 0.462979,-0.22473 -0.613619,-0.79502 -0.452731,-0.23981 -0.981898,-0.58307 -1.175926,-0.76279 -0.194027,-0.17972 -0.893748,-0.5959 -1.554934,-0.92485 -1.797188,-0.89413 -3.2155263,-2.03201 -4.1281873,-3.31188 -0.33892,-0.47529 -0.507337,-1.18216 -0.281658,-1.18216 0.05018,0 0.365862,0.36697 0.701511,0.8155 1.0028453,1.34008 2.9180083,2.73551 4.6753053,3.40653 0.388056,0.14818 0.811389,0.31114 0.940741,0.36214 0.246881,0.0973 0.798933,0.24373 1.736178,0.46039 0.683685,0.15805 2.348085,0.1697 2.841584,0.0199 0.19862,-0.0603 0.599252,-0.1769 0.890294,-0.25913 1.060078,-0.29952 2.085279,-0.99656 3.002833,-2.04167 0.371886,-0.42359 0.642839,-0.80347 0.602118,-0.84419 -0.04072,-0.0407 -0.670055,0.19285 -1.398522,0.51905 -1.989874,0.89105 -2.406874,1.00149 -3.594231,0.95191 -1.166992,-0.0487 -1.530947,-0.18963 -3.836497,-1.48517 -1.374518,-0.77237 -2.771998,-1.88748 -2.771998,-2.2119 0,-0.0901 -0.04043,-0.16372 -0.08985,-0.16372 -0.09765,0 -0.413042,-0.67342 -0.729904,-1.55847 -0.110058,-0.30741 -0.23522,-0.59404 -0.278137,-0.63696 -0.04292,-0.0429 -0.07803,-0.17576 -0.07803,-0.29521 0,-0.11945 -0.04776,-0.30907 -0.106132,-0.421373 -0.05837,-0.112305 -0.174542,-0.442316 -0.258155,-0.733358 -0.08361,-0.291042 -0.326895,-0.94396 -0.540627,-1.45093 -0.2137333,-0.506969 -0.3886053,-1.022907 -0.3886053,-1.146527 0,-0.429571 0.3636353,-0.23021 0.6088533,0.3338 0.133568,0.30721 0.359531,0.823148 0.50214,1.146527 0.14261,0.32338 0.379468,0.905463 0.526353,1.293519 0.773232,2.042802 0.888892,2.299472 1.351242,2.998612 0.499433,0.75521 1.310526,1.49001 1.749932,1.58532 0.797967,0.17309 1.868377,0.19811 2.221301,0.0519 l 0.356172,-0.14753 -0.314446,-0.16475 c -1.001802,-0.5249 -1.698656,-1.36289 -3.465527,-4.167416 -0.271862,-0.431521 -0.622993,-0.93423 -0.780291,-1.117129 -0.314558,-0.365755 -0.383545,-0.861712 -0.119863,-0.861712 0.198719,0 1.009384,1.056593 1.639053,2.136284 0.772233,1.324143 1.629809,2.386873 1.957949,2.426323 1.173571,0.14112 2.704609,0.15221 3.281811,0.0238 0.902403,-0.20078 1.897463,-0.72369 2.343214,-1.23137 0.66688,-0.75954 0.733514,-1.067849 0.697865,-3.228965 l -0.03215,-1.948738 -0.276289,0.705556 c -0.367633,0.93882 -0.761419,1.754722 -0.870239,1.803087 -0.04851,0.02156 -0.08819,0.105745 -0.08819,0.187081 0,0.08134 -0.232299,0.393809 -0.51622,0.694385 -0.547781,0.579914 -1.394849,1.019614 -1.964255,1.019614 -0.543329,0 -1.410216,-0.460624 -2.005956,-1.065873 -0.514346,-0.522555 -1.393199,-1.766356 -1.393199,-1.971731 0,-0.05127 -0.106158,-0.312943 -0.235906,-0.581491 -0.473152,-0.979313 -0.617903,-1.964044 -0.643429,-4.377202 -0.01334,-1.26118 -0.07773,-2.531181 -0.143079,-2.822222 -0.558738,-2.488248 -2.041865,-3.645371 -4.6724083,-3.645371 -0.599208,0 -0.81313,-0.05474 -1.137556,-0.291069 -0.930782,-0.67804 -2.187958,-1.120042 -3.18571,-1.120042 -0.478989,0 -1.757432,0.231176 -2.270338,0.410536 -0.414606,0.144985 -1.756115,0.818222 -1.99377304,1.000575 -0.6579,0.504802 -1.809711,1.693553 -2.01887196,2.083619 -0.693314,1.292965 -0.749854,1.418947 -0.749854,1.670809 0,0.126412 -0.0459,0.258207 -0.101996,0.292877 -0.203973,0.126062 -0.293157,1.23386 -0.282415,3.50802 0.006,1.277349 0.02201,2.467974 0.03551,2.645833 0.05012,0.660478 -0.139917,2.111195 -0.374444,2.858448 -0.241958,0.770928 -0.930512,1.874654 -1.169494,1.874654 -0.06967,0 -0.186586,-0.15875 -0.259823,-0.35278 -0.07324,-0.19403 -0.165386,-0.352775 -0.204775,-0.352775 -0.119549,0 -0.34746,1.158155 -0.343091,1.743465 0.0058,0.77873 0.2881,2.26787 0.524233,2.76549 0.754405,1.58979 4.13764796,3.1198 5.637621,2.54951 0.267637,-0.10175 0.301636,-0.1802 0.301636,-0.69594 0,-0.31969 0.032,-0.66465 0.07112,-0.76658 0.130558,-0.34023 0.281659,-0.0619 0.281659,0.51887 0,0.31575 0.05292,0.60679 0.117593,0.64676 0.06468,0.04 0.117592,0.34123 0.117592,0.66945 0,0.32823 0.05711,0.81459 0.126903,1.0808 0.0698,0.2662 0.182542,0.69568 0.250547,0.95438 0.068,0.2587 0.222564,0.69469 0.343467,0.96886 0.120903,0.27416 0.219824,0.52921 0.219824,0.56677 0,0.13352 0.756082,1.17476 1.110113,1.52879 0.496121,0.49612 1.336783,1.05096 1.829702,1.20761 0.226366,0.0719 0.570324,0.18109 0.764352,0.24255 0.194028,0.0615 0.617361,0.11561 0.94074,0.12032 l 0.587963,0.009 z m -3.326046,-23.908749 c 0.06547,-0.681341 0.302748,-1.069657 1.284124,-2.101506 0.878106,-0.923268 1.138647,-1.323065 1.228531,-1.885172 0.07875,-0.492457 0.330752,-0.731861 0.448202,-0.425791 0.100256,0.261262 -0.17648,1.356504 -0.443142,1.753828 -0.13022,0.194028 -0.638426,0.780791 -1.129346,1.303918 -0.618006,0.658551 -0.927519,1.089889 -1.006156,1.40218 -0.06247,0.248072 -0.187114,0.475163 -0.276994,0.504645 -0.130049,0.04266 -0.151535,-0.07008 -0.105219,-0.552102 z m 12.5570643,19.448769 c 0,-0.0323 -0.02646,-0.0588 -0.0588,-0.0588 -0.03234,0 -0.0588,0.0265 -0.0588,0.0588 0,0.0323 0.02646,0.0588 0.0588,0.0588 0.03234,0 0.0588,-0.0265 0.0588,-0.0588 z m -0.673919,-0.25352 c -0.07961,-0.0322 -0.238364,-0.0342 -0.352778,-0.004 -0.114414,0.0298 -0.04928,0.0562 0.144753,0.0586 0.194027,0.002 0.287639,-0.022 0.208025,-0.0542 z m 2.703168,-10.147286 c 0.561171,-0.355884 1.227846,-1.159365 1.566223,-1.887622 0.105178,-0.226365 0.318183,-0.673318 0.473344,-0.993227 0.15516,-0.31991 0.28211,-0.642437 0.28211,-0.716729 0,-0.07429 0.09825,-0.223986 0.218324,-0.332655 0.19109,-0.172934 0.236237,-0.175999 0.36191,-0.02457 0.213325,0.257041 0.469137,1.44544 0.47391,2.201595 l 0.0042,0.663578 0.911343,-0.34795 c 2.645067,-1.009885 5.149676,-2.205026 6.432883,-3.069624 0.390977,-0.263432 0.737325,-0.509398 0.769663,-0.54659 0.03234,-0.03719 0.296921,-0.250768 0.587963,-0.474612 1.276854,-0.982047 2.519022,-2.390138 2.888426,-3.274247 0.293035,-0.701332 0.22325,-1.137001 -0.243791,-1.521975 -1.004179,-0.82773 -2.912971,-1.029385 -8.75945,-0.925396 -2.295995,0.04084 -4.901165,0.107205 -5.789267,0.147482 -1.41674,0.06425 -1.623607,0.0501 -1.687124,-0.115422 -0.0411,-0.107098 0.03633,-0.32975 0.179109,-0.515035 0.138326,-0.179509 0.652918,-0.934922 1.143538,-1.678695 0.490619,-0.743774 0.924983,-1.378774 0.965251,-1.411112 0.147672,-0.118589 0.811028,-1.022597 1.38062,-1.881481 0.604262,-0.911164 1.04708,-1.650526 2.250506,-3.757616 0.557936,-0.976896 0.771843,-1.250405 1.041557,-1.331774 0.503339,-0.151851 1.332545,-0.561185 1.889312,-0.932651 0.270357,-0.180378 0.54376,-0.32796 0.607562,-0.32796 0.0638,0 0.133643,-0.03969 0.155202,-0.08819 0.02156,-0.04851 0.344802,-0.320554 0.718318,-0.60455 3.191572,-2.426644 5.060044,-6.788134 5.446198,-12.712812 0.05208,-0.799089 0.113371,-1.151744 0.173711,-0.999537 0.139345,0.351492 0.128412,4.062308 -0.01409,4.782927 -0.06812,0.344483 -0.178866,0.890916 -0.246099,1.214295 -0.355403,1.70943 -1.429405,4.107246 -2.475524,5.526853 -1.00404,1.362506 -2.754736,3.009966 -4.120871,3.877869 -0.571236,0.362905 -0.442114,0.403977 2.203852,0.701016 1.899876,0.213281 3.531746,0.117121 6.996759,-0.412295 0.420393,-0.06423 1.042164,-0.168095 1.381713,-0.230808 0.339548,-0.06271 0.921632,-0.169096 1.293518,-0.236408 0.371887,-0.06731 0.901813,-0.173146 1.177614,-0.235185 0.275801,-0.06204 0.632229,-0.1128 0.792062,-0.1128 0.159833,0 0.516262,-0.05099 0.792062,-0.113302 0.275801,-0.06232 0.898332,-0.170461 1.383401,-0.240322 2.251229,-0.324226 4.789663,-0.901473 6.650447,-1.512328 1.091222,-0.358225 4.285252,-1.482032 4.697238,-1.652705 1.024442,-0.424395 1.11713,-0.42035 1.11713,0.04875 0,0.261388 0.975518,1.137556 3.824757,3.435229 2.56698,2.070055 4.700385,3.518814 6.347002,4.310141 1.913275,0.919477 3.541409,1.504957 4.938889,1.776034 0.452731,0.08782 1.114189,0.276314 1.469907,0.418878 1.717598,0.688375 3.02417,0.874631 3.629034,0.517329 0.385497,-0.227719 0.747913,-0.777465 0.924296,-1.402056 0.448867,-1.589492 0.464069,-2.187216 0.102674,-4.036821 -0.149217,-0.763683 -0.163013,-1.074503 -0.06264,-1.411112 0.127586,-0.427847 0.07841,-6.753401 -0.07404,-9.523464 -0.04481,-0.814186 -0.02354,-1.265143 0.06469,-1.37145 0.0723,-0.08711 0.532378,-0.348788 1.022402,-0.581499 1.485443,-0.705434 2.211706,-1.667904 2.345592,-3.108464 0.10678,-1.148915 0.01245,-1.339032 -0.39866,-0.803511 -1.1599,1.510894 -1.24075,1.595826 -2.32048,2.437627 -0.452731,0.352968 -0.998385,0.79885 -1.212565,0.990849 -0.655735,0.587828 -1.344976,0.999913 -1.991833,1.190883 -0.339548,0.100243 -0.617894,0.244652 -0.618546,0.320907 -6.52e-4,0.07626 -0.05487,1.461564 -0.120491,3.078462 -0.109298,2.69323 -0.246617,3.896431 -0.590505,5.174074 -0.449924,1.671597 -0.729118,3.506572 -0.644107,4.233334 0.125784,1.075331 0.123194,1.506519 -0.0093,1.551719 -0.227429,0.07757 -0.409806,-0.596445 -0.437872,-1.618265 l -0.02712,-0.987251 -0.701599,-0.494089 c -0.656419,-0.462271 -1.286296,-0.84062 -1.906005,-1.144883 -0.145016,-0.0712 -0.264078,-0.169141 -0.264583,-0.217648 -5.05e-4,-0.04851 -0.05842,-0.08819 -0.12869,-0.08819 -0.215209,0 -1.816886,-1.157945 -2.251668,-1.627861 -0.22538,-0.243591 -0.757647,-0.969161 -1.182816,-1.612378 -0.802144,-1.213523 -1.084352,-1.486938 -2.242359,-2.172496 -0.379136,-0.224455 -0.895073,-0.640445 -1.146528,-0.924424 -0.382985,-0.432521 -0.45719,-0.599904 -0.45719,-1.031272 0,-0.870785 0.643007,-1.661584 1.715376,-2.109649 l 0.4355,-0.181963 -0.07444,-1.137803 c -0.04094,-0.625792 -0.1064,-1.98447 -0.145466,-3.019285 l -0.07103,-1.881481 0.238938,-0.702773 c 0.131416,-0.386524 0.226799,-0.71491 0.211963,-0.729745 -0.01484,-0.01484 -0.263032,0.05707 -0.551549,0.159794 -1.10819,0.394558 -3.330797,0.734333 -4.839545,0.739831 -0.898851,0.0033 -1.057429,-0.02824 -1.312482,-0.260858 -0.686784,-0.626365 -1.206335,-2.043255 -1.606197,-4.380324 -0.411024,-2.40231 -0.890059,-3.030367 -2.761721,-3.62086 -0.714203,-0.225324 -1.079948,-0.259023 -2.763426,-0.254612 l -1.940277,0.0051 -1.234723,0.325177 c -0.679097,0.178847 -1.658055,0.459806 -2.175463,0.624354 -1.535272,0.488253 -2.442089,0.760529 -2.910416,0.873865 -0.242535,0.05869 -0.665868,0.162525 -0.940741,0.230738 -0.274873,0.06821 -0.724664,0.174046 -0.999537,0.235185 -2.30345,0.512352 -2.615322,0.580298 -3.233796,0.704525 -1.25898,0.252879 -1.8212,0.353901 -2.351852,0.422591 -0.307211,0.03977 -0.558565,0.118487 -0.558565,0.174934 0,0.159531 -0.199876,0.121141 -0.397331,-0.07631 -0.134338,-0.134337 -0.161504,-0.326209 -0.10898,-0.769693 0.03938,-0.332548 0.01523,-0.704056 -0.05526,-0.84999 -0.06888,-0.142583 -0.153645,-0.464243 -0.188375,-0.714799 -0.03473,-0.250557 -0.146551,-0.54772 -0.248492,-0.660363 -0.147291,-0.162755 -0.195642,-0.588308 -0.235494,-2.072683 -0.10545,-3.927644 -0.266031,-5.435325 -0.787602,-7.394731 -0.470391,-1.767136 -1.411965,-2.667936 -2.466996,-2.360166 -1.062464,0.30994 -2.47739,1.746374 -2.614409,2.654147 -0.04393,0.291042 -0.134562,0.899584 -0.201403,1.352315 -0.338733,2.294302 -0.716051,4.663217 -0.927135,5.820834 -0.07666,0.420393 -0.185316,1.028935 -0.241466,1.352315 -0.05615,0.323379 -0.152554,0.852546 -0.21423,1.175926 -0.06168,0.323379 -0.174113,0.931921 -0.24986,1.352315 -0.07575,0.420393 -0.186109,1.015706 -0.245249,1.322916 -0.05914,0.307211 -0.153997,0.809919 -0.210791,1.11713 -0.242699,1.312799 -1.006899,4.958755 -1.429565,6.820371 -0.06241,0.274873 -0.169727,0.751123 -0.238486,1.058333 -0.06876,0.307211 -0.178959,0.770232 -0.244888,1.028935 -0.06593,0.258704 -0.165079,0.655579 -0.220335,0.881945 -0.05526,0.226366 -0.162169,0.657814 -0.237584,0.958773 l -0.137117,0.547199 0.461718,0.687523 c 0.846414,1.260358 1.230149,2.022442 1.148269,2.280421 -0.106884,0.336762 -0.323456,0.135853 -0.713973,-0.662335 -0.442657,-0.90476 -1.195501,-1.731289 -1.508058,-1.655661 -0.135135,0.0327 -0.616117,0.147236 -1.068848,0.254528 -0.452732,0.107293 -1.015946,0.250443 -1.251588,0.318111 -0.482046,0.138429 -0.68869,0.06292 -0.68869,-0.251656 0,-0.369874 0.257937,-0.485496 1.5875,-0.711605 1.462046,-0.248641 1.676317,-0.34 1.743338,-0.743315 0.0343,-0.206373 0.12235,-0.613349 0.195678,-0.90439 0.07333,-0.291042 0.160133,-0.687917 0.192899,-0.881945 0.03276,-0.194028 0.105279,-0.458611 0.161141,-0.587963 0.05586,-0.129352 0.129262,-0.393935 0.163111,-0.587963 0.06387,-0.366121 0.215248,-1.071209 0.403932,-1.881482 0.467121,-2.005964 1.528057,-7.275222 2.024352,-10.054167 0.05198,-0.291041 0.1515,-0.846666 0.221161,-1.234722 0.06966,-0.388056 0.183925,-1.049514 0.25392,-1.469908 0.06999,-0.420393 0.171647,-1.028935 0.225896,-1.352314 0.330486,-1.970056 0.35557,-2.330492 0.175998,-2.528916 -0.09668,-0.106828 -0.175778,-0.273446 -0.175778,-0.370263 0,-0.09682 -0.124169,-0.29268 -0.275932,-0.435254 -0.285981,-0.268666 -1.386603,-0.722512 -1.752162,-0.722512 -0.3366,0 -1.251445,0.475408 -1.615598,0.839561 -0.185001,0.185001 -0.398948,0.336365 -0.475439,0.336365 -0.07649,0 0.0149,0.145521 0.203079,0.323379 0.188185,0.177859 0.577114,0.64088 0.864288,1.028936 0.287174,0.388055 0.588593,0.747872 0.66982,0.799593 0.226218,0.144043 0.175558,0.726232 -0.0836,0.960769 -0.127209,0.115123 -0.360042,0.209314 -0.517407,0.209314 -0.225341,0 -0.30147,0.07675 -0.358385,0.36133 -0.102446,0.512232 -0.387763,0.90279 -0.659519,0.90279 -0.173861,0 -0.232474,0.07962 -0.232474,0.315801 0,0.367806 -0.415579,0.860125 -0.726054,0.860125 -0.134568,0 -0.214687,0.0857 -0.214687,0.229652 0,1.04271 -1.193474,1.284772 -1.994481,0.404524 l -0.38206,-0.419855 -0.663813,1.342685 c -1.010122,2.04316 -1.388016,2.940679 -2.008143,4.769449 -1.056973,3.11704 -1.754082,6.472365 -2.307539,11.106648 -0.06278,0.525679 -0.189596,0.694491 -0.339503,0.451935 -0.169962,-0.275003 0.445336,-4.746947 0.980376,-7.125315 0.0582,-0.258704 0.143856,-0.655579 0.19035,-0.881944 0.04649,-0.226366 0.21068,-0.871729 0.364859,-1.434141 0.154178,-0.562411 0.280325,-1.051891 0.280325,-1.087731 0,-0.105068 -0.905084,-0.07476 -1.199791,0.04018 -0.148564,0.05794 -0.508242,0.168932 -0.799284,0.246646 -0.291041,0.07771 -0.621052,0.189059 -0.733358,0.247432 -0.112305,0.05837 -0.285002,0.106131 -0.383771,0.106131 -0.09877,0 -0.271466,0.04674 -0.383772,0.103873 -0.189355,0.09633 -0.443122,0.203721 -1.1155343,0.4721 -0.797477,0.318297 -1.537865,0.670806 -4.968287,2.365472 -4.44439104,2.195577 -4.48809204,2.215326 -6.065338,2.740825 -2.450543,0.816461 -2.594795,0.83006 -8.9277167,0.841671 -4.886819,0.009 -5.846179,0.03927 -6.701719,0.211727 -2.19798,0.443061 -3.94704,0.977217 -6.02768,1.840819 -0.14552,0.0604 -0.47625,0.177036 -0.73495,0.259191 -0.25871,0.08215 -0.52064,0.191485 -0.58209,0.242958 -0.0614,0.05147 -0.23029,0.09359 -0.37523,0.09359 -0.14494,0 -0.29623,0.05292 -0.3362,0.117592 -0.04,0.06468 -0.19872,0.117593 -0.35278,0.117593 -0.15405,0 -0.3128,0.05292 -0.35278,0.117593 -0.04,0.06468 -0.1761,0.117592 -0.30251,0.117592 -0.12642,0 -0.32173,0.04642 -0.43404,0.103158 -0.1123,0.05674 -0.41585,0.166748 -0.67456,0.24447 -1.26768,0.380849 -3.17118,1.15353 -4.17453,1.694551 -0.61443,0.331303 -1.30234,0.671253 -1.52871,0.755443 -0.68736,0.255645 -1.95606,0.21551 -2.81217,-0.08896 -1.03426,-0.367837 -1.64571,-0.338738 -2.29693,0.109311 -0.28541,0.196366 -0.57553,0.357029 -0.64472,0.357029 -0.0692,0 -0.12581,0.05292 -0.12581,0.117593 0,0.06468 -0.0801,0.117593 -0.17798,0.117593 -0.0979,0 -0.26987,0.04674 -0.38218,0.103872 -0.18872,0.09601 -0.42489,0.196009 -1.11553,0.472371 -0.14552,0.05823 -0.51536,0.216981 -0.82187,0.352778 -0.3065,0.135798 -0.58765,0.246905 -0.62477,0.246905 -0.15167,0 -1.67279,0.769888 -2.11054,1.06821 -0.2587,0.176304 -0.74621,0.58843 -1.08334,0.915835 l -0.61297,0.595282 0.172,0.411652 c 0.20816,0.498201 0.22221,0.889576 0.0319,0.889576 -0.077,0 -0.0455,0.06911 0.07,0.15358 0.12911,0.0944 0.1944,0.264312 0.16947,0.440972 -0.0315,0.223149 -0.11943,0.294239 -0.39334,0.31802 -0.52297,0.0454 -1.23473,0.284583 -1.23473,0.414918 0,0.0704 0.23583,0.07971 0.61736,0.02437 1.03213,-0.149718 1.08417,-0.142343 1.12692,0.159708 0.0266,0.187787 -0.0774,0.390869 -0.32338,0.631314 -0.36911,0.360874 -0.48156,0.85405 -0.21557,0.945426 0.0808,0.02777 0.30574,0.0018 0.49977,-0.0578 0.19402,-0.05956 0.73486,-0.205272 1.20185,-0.323801 0.46699,-0.118528 1.36657,-0.491808 1.99907,-0.829511 1.38379,-0.738828 2.47658,-1.288844 2.7963,-1.407406 0.37027,-0.137311 1.16753,-0.506696 2.88102,-1.334825 3.48404,-1.68384 4.03863,-1.825871 8.99583,-2.303832 3.72257,-0.358921 5.60341,-0.546408 6.58518,-0.656428 0.32338,-0.03624 1.06422,-0.116172 1.6463,-0.177629 3.34881,-0.353571 7.22452,-0.927483 9.4662037,-1.401748 0.291042,-0.06158 0.79375,-0.166854 1.11713,-0.233953 0.32338,-0.0671 0.79963,-0.172814 1.058333,-0.234921 0.258704,-0.06211 0.686115,-0.15948 0.949803,-0.216383 0.263688,-0.0569 0.55473,-0.150471 0.646759,-0.207928 0.09203,-0.05746 1.596077,-0.09065 3.342327,-0.07376 4.879405,0.04718 10.133136,-0.406696 13.4055563,-1.158135 0.258703,-0.05941 0.624953,-0.109304 0.813888,-0.110885 0.188936,-0.0016 0.436955,-0.08743 0.551155,-0.190783 0.1142,-0.10335 0.263888,-0.153143 0.332639,-0.110653 0.219711,0.135789 0.131443,0.463299 -0.238931,0.886524 -1.654322,1.890394 -3.3166023,4.008035 -4.3384003,5.526853 -0.282823,0.420393 -0.557582,0.78199 -0.610575,0.803549 -0.259,0.105367 -0.06419,0.494167 0.344622,0.687793 0.570506,0.270209 1.324759,1.028174 1.616904,1.624861 0.161955,0.330782 0.242844,0.785174 0.27257,1.531159 0.03687,0.925288 0.0055,1.143893 -0.245459,1.711396 -0.31905,0.721429 -0.959418,1.519946 -1.218915,1.519946 -0.348928,0 -0.298698,-0.36028 0.113903,-0.81698 0.688827,-0.76245 0.830631,-1.132454 0.836107,-2.181632 0.0054,-1.025788 -0.122049,-1.374678 -0.772526,-2.115531 -0.653119,-0.743861 -1.885395,-1.099326 -2.872336,-0.828559 -0.394393,0.108201 -0.487149,0.164227 -0.287887,0.173889 0.375628,0.01821 0.696321,0.261308 0.722435,0.547624 0.04935,0.54107 -0.03109,0.753976 -0.34645,0.917058 -0.289752,0.149837 -0.374529,0.148653 -0.7017,-0.0098 -0.429729,-0.208124 -0.54799,-0.479853 -0.43424,-0.997756 l 0.08072,-0.367514 -0.352194,0.250785 c -0.811338,0.577723 -1.510144,1.698316 -1.73523,2.782583 -0.116388,0.560659 -0.115142,1.630219 0.003,2.541698 0.07474,0.576798 0.05669,0.680802 -0.142878,0.823148 -0.250897,0.178962 -0.694984,0.809692 -0.570091,0.809692 0.04299,0 0.230166,-0.07861 0.415951,-0.174679 1.092447,-0.564926 2.629996,-0.826535 3.740423,-0.636421 0.851882,0.145849 2.102323,0.65494 2.485492,1.011916 0.285108,0.265619 1.301254,0.477071 2.4066203,0.500799 1.023679,0.02197 1.645606,0.304621 2.366805,1.075642 1.012244,1.082171 1.386233,2.37261 1.521762,5.250807 0.0404,0.858005 0.103587,1.638526 0.140413,1.734491 0.05548,0.14458 0.402483,0.174482 2.024826,0.174482 1.076829,0 2.135008,-0.0508 2.351508,-0.112894 0.344027,-0.09867 0.401234,-0.08385 0.453911,0.117593 0.03315,0.126767 0.08152,0.230486 0.10748,0.230486 0.02596,0 0.403437,-0.219266 0.838831,-0.487257 0.935079,-0.575555 2.364974,-1.434918 3.025885,-1.818547 0.52431,-0.304339 2.744763,-1.407451 3.63156,-1.804144 0.380544,-0.17023 0.613578,-0.217414 0.691067,-0.139925 0.153962,0.153963 0.0076,0.722095 -0.186039,0.722095 -0.08308,0 -0.412803,0.12695 -0.732713,0.282111 -0.319909,0.15516 -0.79332,0.377909 -1.052024,0.494997 -1.245559,0.563733 -3.75095,2.030727 -6.702777,3.924712 -0.776111,0.497977 -1.860903,1.18916 -2.410648,1.535962 -0.549746,0.346802 -1.021666,0.646296 -1.048712,0.665542 -0.107152,0.07625 0.312192,0.712421 0.842549,1.278195 1.079956,1.152074 1.964232,1.381086 2.940967,0.761659 z m -3.780037,-12.984336 c -0.262818,-0.316677 -0.1116,-0.600207 0.34064,-0.638692 1.167513,-0.09936 2.090869,-1.173613 2.452222,-2.852978 0.199129,-0.925439 -0.09331,-1.586487 -0.926561,-2.09444 -0.548115,-0.334135 -0.803336,-0.328357 -0.737376,0.01669 0.07341,0.384026 -0.373649,0.908723 -0.774264,0.908723 -0.588433,0 -0.783269,-0.53354 -0.43712,-1.197012 0.09041,-0.173287 0.134179,-0.345266 0.09727,-0.382176 -0.141905,-0.141904 -0.960714,-0.05696 -1.65823,0.172019 -1.190453,0.390806 -1.909208,0.848658 -3.095811,1.972054 -0.368052,0.348447 -0.725239,0.598896 -0.79375,0.556554 -0.2581873,-0.159569 -0.107717,-0.580804 0.375203,-1.050363 2.069846,-2.012582 3.950939,-2.742348 5.828787,-2.261265 0.785501,0.201236 1.672832,0.733245 1.963908,1.177484 0.853986,1.303347 0.58298,3.579263 -0.579408,4.865887 -0.665827,0.736992 -1.757959,1.166038 -2.05551,0.807512 z m 1.045233,-6.013009 c 0,-0.03234 -0.02646,-0.0588 -0.0588,-0.0588 -0.03234,0 -0.0588,0.02646 -0.0588,0.0588 0,0.03234 0.02646,0.0588 0.0588,0.0588 0.03234,0 0.0588,-0.02646 0.0588,-0.0588 z m 29.315521,-6.880759 c -0.557789,-0.545343 -0.784484,-1.126501 -0.870907,-2.232667 -0.239002,-3.059132 -0.286973,-3.297817 -0.931294,-4.633775 -0.479948,-0.995142 -0.70221,-1.925215 -0.70221,-2.93846 0,-0.681857 0.04415,-0.897932 0.215047,-1.052596 0.118275,-0.107038 0.264636,-0.194614 0.325247,-0.194614 0.06461,0 0.09171,0.540176 0.06551,1.30557 -0.04338,1.267446 -0.01408,1.439134 0.369254,2.163411 1.00158,1.89241 1.030417,2.001722 1.093433,4.144761 l 0.05447,1.852462 0.290078,0.598142 c 0.16866,0.347778 0.413445,0.654352 0.584813,0.732433 0.348539,0.158805 0.409088,0.609703 0.08187,0.609703 -0.117074,0 -0.375968,-0.159467 -0.57532,-0.35437 z m 2.757858,-0.362027 c -0.216986,-0.124883 -0.299338,-0.975794 -0.106003,-1.095282 0.147358,-0.09107 0.605771,0.376488 0.605771,0.617858 0,0.358776 -0.265401,0.612311 -0.499768,0.477424 z m -30.75192,-0.60652 c -0.148821,-0.184682 0.01729,-0.655771 0.264713,-0.750716 0.247963,-0.09515 0.530494,0.16472 0.530494,0.48795 0,0.38178 -0.552252,0.564265 -0.795207,0.262766 z m 27.647193,-10.029068 c -0.0418,-0.108939 -0.02841,-0.390662 0.02975,-0.626052 0.138635,-0.561019 0.583539,-0.673672 0.707648,-0.179182 0.147111,0.586139 -0.535457,1.331494 -0.737402,0.805234 z m -11.951239,-1.880859 c -0.138719,-0.901695 -0.453705,-4.979916 -0.410009,-5.308501 l 0.04419,-0.332267 0.08558,0.47037 c 0.04707,0.258704 0.136918,0.632877 0.199667,0.831497 0.06275,0.19862 0.114091,0.679273 0.114091,1.068119 0,0.549543 0.193554,1.981485 0.286901,2.122532 0.01656,0.02502 1.151916,-0.149815 2.064951,-0.317981 1.010701,-0.186155 2.061311,-0.375155 2.675232,-0.481262 0.339548,-0.05869 0.895173,-0.157737 1.234722,-0.220113 0.339548,-0.06238 0.934861,-0.168432 1.322916,-0.235677 0.388056,-0.06725 0.970139,-0.170431 1.293519,-0.229302 0.32338,-0.05887 0.931921,-0.169011 1.352315,-0.244757 0.420393,-0.07575 1.002477,-0.18158 1.293518,-0.235186 2.51178,-0.462629 3.214053,-0.569914 3.321991,-0.507493 0.04851,0.02805 0.08819,0.173295 0.08819,0.322762 0,0.283744 -0.306935,0.409329 -1.469907,0.601425 -0.796146,0.131505 -1.675094,0.283408 -2.351852,0.406455 -0.355717,0.06468 -0.937801,0.170509 -1.293518,0.235185 -0.355718,0.06468 -0.924572,0.164827 -1.264121,0.222558 -0.339548,0.05773 -0.934861,0.166209 -1.322916,0.241062 -0.388056,0.07485 -1.023056,0.190897 -1.411111,0.257876 -0.388056,0.06698 -0.943681,0.164699 -1.234723,0.217155 -0.291041,0.05246 -1.164166,0.209945 -1.940277,0.349975 -0.776112,0.14003 -1.614119,0.285371 -1.862239,0.322981 -0.267638,0.04057 -0.474906,0.145229 -0.50959,0.257322 -0.195428,0.631576 -0.235172,0.65552 -0.307517,0.185265 z m -17.637844,35.634234 c 0.336134,-0.226366 0.666157,-0.411574 0.733384,-0.411574 0.06723,0 0.122232,-0.05292 0.122232,-0.117593 0,-0.06468 0.05343,-0.117592 0.118733,-0.117592 0.135413,0 1.638948,-0.968638 1.642762,-1.058334 0.0014,-0.03234 -0.870612,-0.0588 -1.93775,-0.0588 h -1.94025 l -8.1e-5,0.298674 c -8.2e-5,0.302236 0.304425,1.585957 0.420905,1.774426 0.0999,0.161645 0.190284,0.128377 0.840065,-0.309211 z m -19.0180553,-2.565999 c -0.363835,-3.332126 0.78929,-6.142803 3.33076496,-8.118548 0.266462,-0.207147 0.432721,-0.436208 0.432721,-0.596173 v -0.259776 l -0.911343,-0.147072 c -2.17278196,-0.350643 -5.34437696,-0.356167 -6.82036996,-0.01188 -0.274873,0.06412 -0.751123,0.175508 -1.058333,0.247538 -0.70521,0.165347 -1.905992,0.550757 -2.1738677,0.697739 -0.112305,0.06162 -0.258403,0.112039 -0.324661,0.112039 -0.06626,0 -0.371243,0.11199 -0.677753,0.248868 -0.30651,0.136877 -0.74249,0.328274 -0.96886,0.425326 -0.22636,0.09705 -0.72907,0.324263 -1.11713,0.504916 -1.11255,0.517927 -3.12951,1.359903 -3.64537,1.521749 -0.2587,0.08117 -0.58696,0.220652 -0.72946,0.309968 -0.30889,0.193614 -0.46343,0.861226 -0.27908,1.205688 0.19448,0.363387 1.0081,0.869664 2.09036,1.30073 0.53033,0.21123 1.42991,0.67794 1.99908,1.037134 2.59959,1.640568 3.324017,1.909999 7.0320657,2.615362 0.388055,0.07382 0.868062,0.183949 1.066682,0.244737 0.198619,0.06079 0.459446,0.110522 0.579614,0.110522 0.218368,0 0.373797,0.04348 1.5875,0.44406 l 0.646759,0.213462 0.03981,-0.416955 c 0.0219,-0.229326 -0.02271,-0.989572 -0.09913,-1.689436 z m -0.763829,-2.875788 c -0.194028,-0.111462 -0.379236,-0.232177 -0.411574,-0.268257 -0.11261,-0.12564 -1.592367,-0.788966 -2.293056,-1.027902 -0.715359,-0.243938 -1.521136,-0.426596 -2.587037,-0.586443 l -0.587963,-0.08817 -0.03721,-0.321265 -0.03721,-0.321265 0.566375,0.0017 c 1.009973,0.0031 3.197839,0.633699 4.399814,1.268139 1.033942,0.545748 1.208657,0.65656 1.492147,0.946377 0.212393,0.217135 0.240754,0.311155 0.133015,0.440972 -0.171426,0.206556 -0.205358,0.204217 -0.637304,-0.04392 z m -37.6884227,-8.43414 c 0.0844,-0.101669 0.0958,-0.176389 0.027,-0.176389 -0.0657,0 -0.14987,0.07937 -0.1871,0.176389 -0.0372,0.09701 -0.0494,0.176389 -0.027,0.176389 0.0224,0 0.10658,-0.07938 0.1871,-0.176389 z m -0.003,-0.881944 c 0.12178,0 0.16309,0.149789 0.12972,0.47037 -0.0132,0.127022 0.0405,0.109193 0.19186,-0.0637 0.19726,-0.2253 0.368,-0.320724 1.09216,-0.610386 0.16169,-0.06468 0.45273,-0.184669 0.64676,-0.266652 0.19403,-0.08198 0.47184,-0.194896 0.61736,-0.250918 0.51419,-0.197955 0.91374,-0.365704 1.11553,-0.468357 0.11231,-0.05713 0.2565,-0.103873 0.32044,-0.103873 0.28993,0 2.85492,-1.256771 4.0599,-1.989236 l 0.82156,-0.499399 2.52983,0.05876 c 1.3914,0.03232 2.84732,0.112236 3.23538,0.177601 1.7507,0.294889 7.19621,0.977288 9.4662,1.186248 2.85011,0.262362 4.51845,0.119959 7.5466687,-0.644154 0.926393,-0.233757 1.896017,-0.476654 2.154721,-0.539771 3.180871,-0.776049 5.737665,-0.780143 8.643055,-0.01384 0.355718,0.09382 0.765822,0.197934 0.911343,0.231361 0.145521,0.03343 0.264583,0.107524 0.264583,0.16466 0,0.05714 0.07938,0.103884 0.176389,0.103884 0.09701,0 0.176389,-0.04719 0.176389,-0.104874 0,-0.234973 1.073916,-1.277276 1.588931,-1.542158 0.432977,-0.222689 0.739317,-0.284863 1.421709,-0.288548 0.478397,-0.0026 0.869836,-0.04615 0.869864,-0.09681 1.51e-4,-0.269417 3.04569,-4.481097 4.2240403,-5.841431 0.193757,-0.223681 0.332472,-0.426507 0.308255,-0.450724 -0.02422,-0.02422 -0.485024,0.04062 -1.024016,0.144084 -1.8522623,0.355554 -2.0658363,0.386218 -5.4485053,0.782296 -0.646759,0.07573 -3.186759,0.156482 -5.64444404,0.179451 -2.70024896,0.02524 -4.65465296,0.09214 -4.93888896,0.169076 -1.969083,0.532967 -5.8015337,1.287113 -8.3490737,1.642924 -3.30856,0.462101 -5.43432,0.711016 -8.99583,1.053362 -5.07626,0.487949 -7.29672,0.723257 -7.70232,0.816237 -0.2587,0.05931 -0.78787,0.175164 -1.17592,0.257464 -0.86694,0.18386 -1.7643,0.547505 -3.82176,1.548721 -0.87313,0.424886 -1.98438,0.930603 -2.46945,1.123815 -0.48507,0.193212 -1.46403,0.628005 -2.17546,0.966206 -0.71144,0.338201 -1.58456,0.734499 -1.94028,0.880663 -0.57524,0.236367 -0.65095,0.307595 -0.68465,0.644168 -0.0208,0.208128 -0.13991,0.48791 -0.26459,0.621736 -0.12467,0.133827 -0.22668,0.308308 -0.22668,0.387737 0,0.07943 -0.0662,0.16804 -0.147,0.196913 -0.0808,0.02887 -0.11108,0.09123 -0.0672,0.138577 0.0439,0.04734 0.20262,-0.102999 0.35277,-0.334097 0.29954,-0.461028 0.54563,-0.61132 0.71829,-0.438666 0.11919,0.119191 -0.13601,0.836473 -0.29761,0.836473 -0.0489,0 -0.0889,0.08747 -0.0889,0.194382 0,0.20425 -0.0121,0.214808 0.62299,-0.545179 0.11628,-0.139156 0.27503,-0.232071 0.35278,-0.206479 0.24018,0.07906 0.22293,0.500209 -0.0299,0.72898 -0.1322,0.119639 -0.24036,0.295438 -0.24036,0.390665 0,0.105974 0.20426,-0.01514 0.52654,-0.312207 0.2896,-0.266941 0.58064,-0.485347 0.64676,-0.485347 z m -2.7902,-0.866372 c 0.41986,-0.361093 0.4078,-0.423751 -0.0588,-0.305628 -0.82049,0.207716 -1.07419,0.308233 -1.11927,0.443457 -0.0902,0.270628 0.82806,0.163194 1.17806,-0.137829 z m 116.152085,-4.197569 c 0,-0.246967 0.04628,-0.477636 0.102851,-0.512597 0.05657,-0.03496 0.135496,-0.342355 0.175394,-0.683097 0.0399,-0.340743 0.128016,-0.989949 0.195815,-1.442681 0.283853,-1.895425 0.672622,-7.300386 0.535003,-7.438006 -0.07144,-0.07144 -0.872029,0.216384 -1.36184,0.489597 -0.226366,0.126265 -0.717798,0.381878 -1.092071,0.568028 l -0.680497,0.338454 -1.318577,-0.05081 c -0.725218,-0.02795 -1.583161,-0.113831 -1.90654,-0.190859 -0.32338,-0.07703 -0.984838,-0.16835 -1.469908,-0.202936 -0.485069,-0.03459 -0.932215,-0.110621 -0.993657,-0.168965 -0.575982,-0.546935 -2.668243,0.949829 -2.37951,1.702256 0.03755,0.09785 0.481012,0.404432 0.985476,0.681298 1.218922,0.668983 1.64489,1.075094 2.547262,2.428518 1.231397,1.846912 1.775731,2.327176 4.412174,3.892842 0.751675,0.446387 1.493699,0.92182 1.648942,1.056518 0.369951,0.320991 0.599683,0.141873 0.599683,-0.467562 z m -1.307951,-9.872115 c 0.398301,-0.212292 0.69692,-0.413248 0.663599,-0.446569 -0.03332,-0.03332 -0.281703,-0.05192 -0.551959,-0.04133 -0.270256,0.01059 -0.607619,-0.05691 -0.749695,-0.150004 -0.341091,-0.223491 -0.671673,-0.12364 -0.982484,0.296755 -0.193915,0.262283 -0.347893,0.342945 -0.654664,0.342945 -0.220613,0 -0.433818,0.05292 -0.47379,0.117592 -0.03997,0.06468 -0.215074,0.123854 -0.389116,0.131506 l -0.31644,0.01391 0.352778,0.09716 c 0.194028,0.05344 0.80836,0.0807 1.365183,0.06059 0.879466,-0.03177 1.107499,-0.08725 1.736588,-0.422553 z m -3.788243,-0.145195 c -0.03262,-0.08085 -0.05931,-0.0147 -0.05931,0.146991 0,0.161689 0.02669,0.227835 0.05931,0.14699 0.03262,-0.08084 0.03262,-0.213136 0,-0.293981 z m -0.64122,-0.05115 c -0.0332,-0.173653 -0.297307,-0.546023 -0.586914,-0.827489 -0.289607,-0.281466 -0.496779,-0.541535 -0.460383,-0.577932 0.104687,-0.104687 0.902769,0.195636 0.926267,0.34856 0.01165,0.07583 0.05134,-0.254842 0.08819,-0.734825 0.03685,-0.479982 0.123994,-0.891443 0.193642,-0.914356 0.06965,-0.02291 0.36069,0.14439 0.64676,0.371786 0.286069,0.227395 0.560947,0.41396 0.610841,0.414587 0.04989,6.28e-4 0.294648,0.136098 0.543899,0.301045 0.337405,0.223284 0.534784,0.279422 0.772586,0.219737 0.275168,-0.06906 0.308609,-0.122811 0.241461,-0.388097 -0.223863,-0.884439 -0.21133,-1.019691 0.107966,-1.165172 0.546734,-0.249109 1.829946,0.205431 1.829946,0.648204 0,0.174547 -0.417432,0.110609 -0.640879,-0.09816 -0.144546,-0.135053 -1.005417,-0.136322 -1.005417,-0.0015 0,0.05659 0.156618,0.134217 0.34804,0.172502 0.328142,0.06563 1.063071,0.700246 1.063071,0.917971 0,0.138803 -0.438393,0.125541 -0.713286,-0.02158 -0.251241,-0.13446 -0.314736,0.02678 -0.08046,0.204336 0.08085,0.06127 0.385116,0.179682 0.676158,0.263135 l 0.529166,0.151733 0.293982,-0.391881 c 0.161689,-0.215535 0.605495,-0.70991 0.986235,-1.098611 0.616059,-0.62894 0.74363,-0.706729 1.159008,-0.706729 0.481356,0 0.621773,0.106907 1.219596,0.928549 l 0.248635,0.341722 0.629318,-0.520215 c 0.346125,-0.286119 0.733696,-0.61282 0.861269,-0.726003 0.127574,-0.113183 0.28078,-0.205787 0.340458,-0.205787 0.05985,0 0.07465,-0.180453 0.03301,-0.402404 -0.04378,-0.233388 -0.02459,-0.433866 0.04571,-0.477311 0.148954,-0.09206 0.157256,-0.464287 0.01648,-0.738779 -0.114369,-0.222997 -0.460567,-0.993379 -0.77874,-1.732895 -0.644404,-1.497766 -0.926738,-1.965663 -1.539214,-2.550851 -0.836364,-0.799101 -1.043014,-0.908892 -1.720279,-0.913964 -0.306011,-0.0023 -0.914951,-0.06565 -1.353202,-0.140806 -0.96835,-0.166054 -1.2429,-0.06182 -2.377085,0.902512 -0.621727,0.528616 -0.837435,0.645238 -1.193451,0.645238 -0.38763,0 -0.461001,-0.05073 -0.679393,-0.469722 -0.206474,-0.39613 -0.222881,-0.5179 -0.10472,-0.777233 0.120336,-0.26411 0.10861,-0.330547 -0.08308,-0.470715 -0.284674,-0.208159 -0.597923,-0.02347 -0.892815,0.526384 -0.262104,0.488721 -0.388898,0.478108 -0.462185,-0.03868 l -0.0588,-0.414611 -0.282387,0.414578 -0.282388,0.414578 0.161594,0.30194 c 0.142362,0.266007 0.137483,0.31957 -0.04099,0.450075 -0.111422,0.08147 -0.202585,0.202165 -0.202585,0.268204 0,0.06604 -0.173335,0.252279 -0.385189,0.413868 -0.211854,0.161589 -0.542583,0.577974 -0.734954,0.9253 l -0.349765,0.631501 v 2.410649 c 0,2.454479 0.101529,3.222166 0.51057,3.860552 0.141557,0.220926 0.245743,0.261151 0.538046,0.207731 0.199372,-0.03644 0.44187,-0.01502 0.538884,0.0476 0.09701,0.06262 0.34103,0.114658 0.542258,0.115649 l 0.365869,0.0018 z m 5.796211,-3.353205 c -0.630583,-0.359304 -1.027305,-1.143957 -0.977133,-1.932613 0.04162,-0.654254 0.239303,-0.740881 0.338224,-0.148215 0.102094,0.611675 0.472406,1.297111 0.906854,1.678562 0.29397,0.258109 0.353913,0.369171 0.238692,0.442245 -0.195519,0.124 -0.222603,0.121863 -0.506637,-0.03998 z m 1.126855,-0.92305 c -0.221746,-1.033965 -0.651437,-1.600782 -1.587958,-2.094716 -0.390956,-0.206196 -0.427806,-0.255969 -0.242237,-0.327179 0.131582,-0.05049 0.23731,-0.02865 0.265115,0.05476 0.02544,0.07631 0.148808,0.138748 0.274156,0.138748 0.125349,0 0.43284,0.135618 0.683313,0.301373 0.853202,0.564623 1.598496,2.52085 0.960407,2.52085 -0.175619,0 -0.253586,-0.131238 -0.352796,-0.593839 z m -5.418985,4.024913 c 0,-0.23704 -0.781457,-1.432 -0.936472,-1.432 -0.05889,0 -0.07619,0.198438 -0.03844,0.440972 0.133935,0.860575 0.974916,1.715454 0.974916,0.991028 z m 0.66046,-0.33765 c -0.08271,-0.238894 -0.220661,-0.457781 -0.306564,-0.486416 -0.112466,-0.03749 -0.13025,0.01004 -0.06353,0.169771 0.05096,0.122007 0.118479,0.340895 0.15004,0.486415 0.03156,0.145521 0.127819,0.264584 0.213907,0.264584 0.129195,0 0.130268,-0.07584 0.0061,-0.434354 z m 3.823096,0.04014 c 0.218095,-0.08746 0.487224,-0.190902 0.598063,-0.22986 0.170094,-0.05978 0.182055,-0.126686 0.07669,-0.428935 -0.184715,-0.529874 -0.178423,-0.533349 -1.108372,0.612036 -0.200712,0.247209 -0.09471,0.25864 0.433618,0.04676 z m -2.754344,-0.638516 c -0.220181,-0.04688 -0.552916,0.160484 -0.552916,0.344594 0,0.05842 0.171979,0.01491 0.382176,-0.09668 0.300882,-0.159734 0.3372,-0.212469 0.17074,-0.247916 z m 5.02031,-0.02738 c 0.255287,-0.24936 -0.462466,-1.291739 -0.889455,-1.291739 -0.41195,0 -0.427203,0.947176 -0.02178,1.352597 0.194634,0.194634 0.683069,0.162014 0.911237,-0.06086 z m 3.757232,-3.081156 c 0.460244,-0.323488 0.534271,-0.397228 0.945894,-0.942224 l 0.331253,-0.438585 -0.785032,0.409187 c -0.431768,0.225053 -0.866224,0.409187 -0.965458,0.409187 -0.116212,0 -0.155022,0.0662 -0.109048,0.186006 0.03926,0.102304 0.07138,0.287512 0.07138,0.411574 0,0.287281 0.05795,0.283295 0.511014,-0.03514 z m -10.388791,-6.265676 c 0,-0.03234 -0.02646,-0.0588 -0.0588,-0.0588 -0.03234,0 -0.0588,0.02646 -0.0588,0.0588 0,0.03234 0.02646,0.0588 0.0588,0.0588 0.03234,0 0.0588,-0.02646 0.0588,-0.0588 z m -1.175926,-0.352778 c 0,-0.03234 -0.02646,-0.0588 -0.0588,-0.0588 -0.03234,0 -0.0588,0.02646 -0.0588,0.0588 0,0.03234 0.02646,0.0588 0.0588,0.0588 0.03234,0 0.0588,-0.02646 0.0588,-0.0588 z m 0.940741,0 c 0,-0.03234 -0.02646,-0.0588 -0.0588,-0.0588 -0.03234,0 -0.0588,0.02646 -0.0588,0.0588 0,0.03234 0.02646,0.0588 0.0588,0.0588 0.03234,0 0.0588,-0.02646 0.0588,-0.0588 z m -48.16967,-4.598635 c -0.01546,-0.364355 -0.179202,-0.603881 -1.013432,-1.482506 -0.461117,-0.485657 -0.510306,-0.62388 -0.32584,-0.915619 0.09026,-0.142746 0.274787,-0.01282 0.967479,0.681215 0.670946,0.672244 0.919456,0.850156 1.149783,0.823148 0.351003,-0.04116 0.465206,-0.410984 0.162754,-0.527045 -0.536769,-0.205978 -1.572,-1.202505 -1.572,-1.513228 0,-0.459934 0.192666,-0.430577 0.784818,0.119587 0.312123,0.289991 0.620414,0.52908 0.68509,0.53131 0.06468,0.0022 0.26862,0.08282 0.453211,0.179095 0.18459,0.09627 0.383027,0.14574 0.440972,0.109928 0.185957,-0.114927 0.112639,-0.46048 -0.129832,-0.611905 -0.129351,-0.08078 -0.235185,-0.218243 -0.235185,-0.305469 0,-0.08723 -0.265479,-0.424073 -0.589954,-0.748548 -0.402065,-0.402065 -0.566588,-0.650847 -0.516586,-0.781151 0.110177,-0.287115 0.253262,-0.237962 0.85331,0.293135 0.58947,0.521734 1.492819,1.019908 1.619573,0.893153 0.171796,-0.171795 -1.267709,-1.791105 -1.930145,-2.171234 -0.467825,-0.268455 -1.282638,-0.182534 -1.825659,0.192512 -0.574295,0.396647 -1.257265,1.123026 -1.449829,1.541979 -0.384212,0.835912 -0.418607,1.032021 -0.261454,1.490727 0.416246,1.214965 1.828362,2.672044 2.513244,2.593268 0.182874,-0.02103 0.231737,-0.108304 0.219682,-0.392352 z m 57.939771,8.148089 c -0.232508,-0.232509 -0.133337,-0.404993 0.446952,-0.777364 0.570282,-0.365949 1.093814,-1.000375 1.244384,-1.50797 0.04317,-0.14552 0.161057,-0.264583 0.261979,-0.264583 0.148607,0 0.169008,0.09058 0.107307,0.476448 -0.09531,0.596041 -0.512517,1.266815 -1.077682,1.732672 -0.504982,0.416249 -0.803862,0.519874 -0.98294,0.340797 z m -9.926892,-5.097757 c -0.155616,-0.155616 -0.07154,-0.36979 0.303781,-0.773883 0.436332,-0.469775 0.888338,-0.722315 1.835059,-1.025265 0.457016,-0.146245 0.709571,-0.175456 0.810775,-0.09378 0.353313,0.285156 0.124255,0.501737 -0.970139,0.917296 -0.713198,0.270812 -1.091508,0.482425 -1.345179,0.752446 -0.282353,0.300551 -0.485462,0.372017 -0.634297,0.223182 z"
       id="path8" /></g></svg>
