<?xml version="1.0" encoding="UTF-8" standalone="no"?>
<!-- Created with Inkscape (http://www.inkscape.org/) -->

<svg
   width="128.94989mm"
   height="46.393604mm"
   viewBox="0 0 128.9499 46.393605"
   version="1.1"
   id="svg1"
   xml:space="preserve"
   xmlns="http://www.w3.org/2000/svg"
   xmlns:svg="http://www.w3.org/2000/svg"><defs
     id="defs1" /><g
     id="layer1"
     transform="translate(336.42115,91.813568)"><path
       style="fill:#4d4d4d"
       d="m -312.0411,-45.434725 c -0.0647,-0.023 -0.7526,-0.0979 -1.52871,-0.16644 -1.34855,-0.11905 -1.7322,-0.17089 -3.46898,-0.46874 -3.2073,-0.55006 -4.00905,-0.63023 -6.35,-0.63497 -2.41333,-0.005 -4.29234,0.166 -6.99676,0.63637 -1.28845,0.22409 -2.50812,0.26678 -2.91436,0.10201 -0.45801,-0.18578 -1.02712,-0.74432 -1.24734,-1.22417 -0.32661,-0.7117 -0.35674,-0.84799 -0.48086,-2.17546 -0.21706,-2.32139 -0.23643,-2.46646 -0.58895,-4.40972 -0.0704,-0.38806 -0.20912,-1.15535 -0.30828,-1.70509 -0.0992,-0.54975 -0.22858,-1.95204 -0.28762,-3.116207 -0.059,-1.164167 -0.13966,-2.454045 -0.17916,-2.866397 -0.0602,-0.628874 -0.0352,-0.799476 0.1552,-1.058333 0.12487,-0.169732 0.26645,-0.467057 0.31463,-0.660723 0.11887,-0.477829 0.28001,-0.647417 0.61516,-0.647417 0.18895,0 0.31756,-0.09224 0.3884,-0.278539 0.0582,-0.153196 0.22891,-0.378092 0.37926,-0.499768 0.15035,-0.121677 0.34799,-0.365874 0.43919,-0.542661 0.21252,-0.411976 0.53497,-0.511612 0.89413,-0.276284 0.39765,0.260548 0.49816,0.234864 0.58243,-0.148836 0.0902,-0.410484 0.71491,-1.032243 1.14319,-1.137725 0.21034,-0.0518 0.43624,-0.0069 0.67501,0.13413 0.28074,0.165837 0.38984,0.181017 0.50113,0.06973 0.25484,-0.254838 0.66569,-0.151931 1.09085,0.273229 0.34575,0.345754 0.41549,0.499706 0.41549,0.917222 0,0.27595 -0.0644,0.566133 -0.14312,0.64485 -0.17202,0.172019 -0.15776,1.392754 0.0291,2.490952 0.29452,1.731007 0.48744,2.749949 0.70132,3.704167 0.24253,1.082004 0.61758,2.614094 0.73021,2.982914 l 0.12089,0.39588 1.83844,-0.0723 c 4.05224,-0.15938 6.94783,-0.35687 9.65835,-0.65873 2.42048,-0.26956 3.65482,-0.38617 4.34157,-0.41016 l 0.75499,-0.0264 0.52301,-0.57645 c 0.28765,-0.31705 0.87395,-0.94735 1.30288,-1.40067 2.17396,-2.297605 2.58547,-2.785854 3.42294,-4.061252 0.74986,-1.141966 1.17868,-2.136594 1.17868,-2.733869 0,-0.316631 0.47733,-1.716223 0.94068,-2.758206 0.17831,-0.400989 0.30523,-0.725741 0.58596,-1.499305 0.14082,-0.388056 0.30473,-0.797442 0.36424,-0.909747 0.0595,-0.112306 0.1082,-0.30762 0.1082,-0.434033 0,-0.126412 0.0529,-0.262545 0.11759,-0.302517 0.0647,-0.03997 0.11759,-0.198722 0.11759,-0.352777 0,-0.154056 0.0529,-0.312806 0.11759,-0.352778 0.0647,-0.03997 0.1176,-0.22518 0.1176,-0.411574 0,-0.186394 0.0529,-0.371602 0.11759,-0.411574 0.0647,-0.03997 0.11759,-0.244179 0.11759,-0.453792 0,-0.209614 0.0475,-0.431386 0.10555,-0.492829 0.0581,-0.06144 0.134,-0.323379 0.16878,-0.582083 0.0348,-0.258704 0.12195,-0.734954 0.1937,-1.058333 0.0718,-0.32338 0.15816,-0.746713 0.19201,-0.940741 0.0339,-0.194028 0.10437,-0.458611 0.15672,-0.587963 0.0524,-0.129352 0.15949,-0.526227 0.23811,-0.881944 0.0786,-0.355718 0.18981,-0.805509 0.24711,-0.999537 0.0573,-0.194028 0.21983,-0.749653 0.36117,-1.234722 0.23336,-0.800886 0.90337,-2.600645 1.35708,-3.645371 0.48266,-1.111346 0.66955,-1.69591 0.86473,-2.704629 0.33346,-1.723411 0.34513,-1.764221 0.7311,-2.558722 0.51596,-1.062046 1.56571,-1.953697 2.74586,-2.332324 0.31657,-0.101564 0.78725,-0.278748 1.04595,-0.393741 0.2587,-0.114993 0.65934,-0.269417 0.89029,-0.343164 0.49844,-0.159156 1.93206,-0.177097 2.41415,-0.03021 0.18751,0.05713 0.57906,0.173159 0.8701,0.25784 0.79974,0.232692 2.1515,0.97633 3.53595,1.945227 0.68359,0.478407 1.34505,0.96283 1.46991,1.076497 0.12485,0.113666 0.80909,0.600253 1.52053,1.081305 1.42203,0.961534 5.74356,4.018102 6.11074,4.32205 0.61664,0.510448 3.33955,2.206762 3.8301,2.386063 0.62136,0.227115 1.39092,0.728087 1.96434,1.278752 0.27618,0.265222 0.4928,0.365984 0.78681,0.365984 0.22313,0 0.43479,-0.04707 0.47035,-0.1046 0.0356,-0.05753 0.23711,-0.134701 0.44791,-0.171491 0.21079,-0.03679 0.67431,-0.122895 1.03002,-0.191344 1.02813,-0.19784 2.81907,-0.357008 5.29167,-0.470292 1.26118,-0.05778 3.13972,-0.165648 4.17454,-0.239701 1.03481,-0.07405 2.33127,-0.104639 2.88102,-0.06797 0.54974,0.03667 2.00313,0.07178 3.22974,0.07801 l 2.23021,0.01133 0.2553,-0.709433 c 0.33873,-0.941256 0.66251,-1.445638 1.27297,-1.982988 0.64317,-0.566135 1.44181,-0.801828 2.04982,-0.604938 0.92901,0.300835 1.24521,0.511377 2.3445,1.561078 1.02518,0.978932 2.46664,2.201682 3.54831,3.009932 0.21638,0.161689 0.45661,0.356097 0.53384,0.432017 0.36962,0.363361 2.00452,1.334231 2.27748,1.352454 1.15747,0.07728 1.80965,-0.201202 2.76795,-1.181896 l 0.57819,-0.591696 -0.18932,-0.564005 c -0.10412,-0.310202 -0.35108,-0.953133 -0.54879,-1.428734 -0.24821,-0.597112 -0.35946,-1.059269 -0.35946,-1.493321 v -0.628591 l 0.39327,-0.299966 c 0.2163,-0.164981 0.50161,-0.299966 0.63401,-0.299966 0.15666,0 0.26571,-0.09949 0.31223,-0.284844 0.0984,-0.392044 0.5339,-0.524714 1.95308,-0.594973 0.99759,-0.04939 0.96395,-0.03774 0.87927,-0.304536 -0.0977,-0.307881 0.20431,-0.65816 0.65236,-0.756567 0.18603,-0.04086 0.60609,0.0118 0.95794,0.120089 0.94122,0.289679 2.43224,0.644905 2.70692,0.644905 0.13349,0 0.56719,-0.159743 0.96378,-0.354985 l 0.72108,-0.354985 1.7198,-0.01693 1.71981,-0.01693 0.55688,0.32635 c 0.62803,0.368055 1.52572,1.212744 1.94332,1.828595 0.15349,0.226366 0.30809,0.438033 0.34354,0.470371 0.0354,0.03234 0.13559,0.185108 0.22251,0.33949 0.0869,0.154382 0.257,0.456861 0.37793,0.672176 0.31825,0.566613 0.80109,2.062977 0.99841,3.094144 0.28646,1.496988 0.17424,3.581002 -0.25064,4.654837 -0.0819,0.206888 -0.0698,0.2163 0.10001,0.07823 0.22414,-0.18222 2.6688,-0.134461 3.39354,0.0663 0.34382,0.09524 0.51459,0.07638 0.88195,-0.09741 0.82,-0.387922 1.5932,-0.265729 2.30978,0.365026 0.27584,0.242803 0.5786,0.593359 0.6728,0.779014 0.0942,0.185655 0.36384,0.628596 0.59918,0.984313 0.61633,0.931555 1.9385,3.734514 2.08328,4.416475 0.51983,2.448611 0.16603,4.123101 -1.14536,5.42079 -0.71702,0.709529 -1.94987,1.334031 -2.63355,1.334031 -0.10946,0 -0.29092,0.04825 -0.40322,0.107211 -0.11231,0.05897 -0.52169,0.16734 -0.90975,0.240831 -0.38805,0.07349 -0.94401,0.185582 -1.23546,0.249089 -0.61873,0.134823 -3.37867,-0.03908 -3.74678,-0.236086 -0.12934,-0.06922 -0.45401,-0.12586 -0.72148,-0.12586 -0.6263,0 -1.46337,0.556275 -1.74085,1.156884 -0.10942,0.236839 -0.22771,0.457075 -0.26287,0.489413 -0.0352,0.03234 -0.42097,0.535046 -0.85736,1.117128 -0.76174,1.01605 -1.72455,2.77831 -1.72455,3.15649 0,0.0996 -0.0529,0.21372 -0.11759,0.2537 -0.0647,0.04 -0.11759,0.19872 -0.11759,0.35277 0,0.15406 -0.0529,0.31281 -0.1176,0.35278 -0.0647,0.04 -0.11759,0.17611 -0.11759,0.30252 0,0.12641 -0.0529,0.33495 -0.11759,0.46343 -0.0647,0.12847 -0.17051,0.33942 -0.23519,0.46877 -0.29966,0.59934 -0.45082,0.80349 -1.00127,1.35232 -0.53751,0.53593 -1.01229,0.82872 -1.99734,1.23174 -0.50607,0.20705 -2.45508,0.27899 -3.35139,0.1237 -0.42039,-0.0728 -0.93682,-0.1621 -1.14762,-0.19836 -0.21079,-0.0363 -0.41235,-0.11301 -0.44791,-0.17054 -0.0356,-0.0575 -0.19069,-0.1046 -0.34475,-0.1046 -0.15405,0 -0.3128,-0.0529 -0.35277,-0.11759 -0.04,-0.0647 -0.17611,-0.11759 -0.30252,-0.11759 -0.12641,0 -0.32173,-0.0467 -0.43403,-0.10388 -0.18907,-0.0962 -0.43506,-0.20031 -1.11554,-0.47222 -0.14552,-0.0581 -0.44979,-0.16932 -0.67615,-0.24705 -0.22637,-0.0777 -0.51741,-0.18624 -0.64676,-0.24113 -0.7277,-0.3088 -2.52263,-0.8172 -2.88518,-0.8172 -0.15158,0 -0.28867,0.14552 -0.40948,0.43464 -0.0999,0.23905 -0.31789,0.61332 -0.48446,0.83171 l -0.30286,0.39707 -0.89882,-0.0527 c -0.92242,-0.0541 -1.42686,-0.1413 -1.83957,-0.31805 -0.12936,-0.0554 -0.4204,-0.13317 -0.64676,-0.17282 -0.22637,-0.0397 -0.67616,-0.11842 -0.99954,-0.17504 -0.32338,-0.0566 -0.93192,-0.15984 -1.35231,-0.2294 -2.28739,-0.37849 -3.16437,-0.63492 -4.87624,-1.4258 l -1.04359,-0.48214 -0.53125,0.20289 c -0.29219,0.11158 -0.95783,0.49367 -1.47921,0.84909 -1.50765,1.02773 -2.5127,1.56589 -4.00536,2.14469 -1.98399,0.76932 -4.11773,0.9874 -6.30145,0.64404 -1.00943,-0.15872 -1.31013,-0.22439 -2.4004,-0.52419 -0.93852,-0.25808 -1.71732,-0.54768 -2.55363,-0.94959 -0.59677,-0.2868 -0.38396,-0.28726 -3.20841,0.007 -1.8508,0.19284 -3.57797,0.51106 -4.99769,0.92079 -0.22636,0.0653 -0.59678,0.17032 -0.82314,0.23331 -0.22637,0.063 -0.782,0.22649 -1.23473,0.36334 -1.62718,0.49186 -2.48613,0.59373 -4.99768,0.5927 -2.54118,-0.001 -4.72707,-0.1423 -5.69597,-0.36809 -0.31937,-0.0744 -1.09532,-0.14089 -1.72431,-0.14769 -1.01934,-0.011 -1.17988,0.0164 -1.47718,0.25224 -1.00629,0.79826 -3.77854,1.96644 -5.94861,2.50665 -0.24253,0.0604 -0.66586,0.166 -0.94074,0.23473 -1.94744,0.48693 -4.30141,0.76596 -7.7905,0.92347 -1.42288,0.0642 -2.98392,0.14006 -3.46899,0.16851 -0.48507,0.0284 -0.93486,0.0329 -0.99953,0.01 z m 7.05555,-0.98076 c 2.74256,-0.27332 4.45941,-0.5743 6.64398,-1.16476 1.75569,-0.47454 4.30648,-1.57818 4.41136,-1.90864 0.0822,-0.25907 0.43904,-0.48919 1.07173,-0.69118 0.51059,-0.163 1.5472,-0.12421 2.74839,0.10285 1.01907,0.19264 2.93959,0.35219 5.17408,0.42985 2.34085,0.0814 3.98931,-0.0995 5.87963,-0.64505 0.22636,-0.0653 0.61001,-0.17468 0.85254,-0.243 0.24254,-0.0683 0.63941,-0.18066 0.88195,-0.24964 2.20829,-0.62803 4.44601,-0.99479 6.8517,-1.12297 l 1.35424,-0.0722 0.58603,0.2583 c 0.32232,0.14207 0.67792,0.30691 0.79023,0.3663 0.1123,0.0594 0.30762,0.10798 0.43403,0.10798 0.12641,0 0.26255,0.0529 0.30252,0.11759 0.04,0.0647 0.19872,0.11759 0.35278,0.11759 0.15405,0 0.3128,0.0529 0.35277,0.1176 0.04,0.0647 0.19936,0.11759 0.35419,0.11759 0.15483,0 0.40306,0.0479 0.55162,0.10638 0.39593,0.15592 1.42073,0.3381 2.6035,0.46282 1.50824,0.15904 3.60797,-0.13018 5.10435,-0.70309 0.14552,-0.0557 0.38365,-0.14682 0.52917,-0.20247 0.80471,-0.3077 2.18581,-1.07753 3.35139,-1.86808 0.7276,-0.49349 1.32291,-0.92725 1.32291,-0.96391 0,-0.0366 -0.33073,-0.18858 -0.73495,-0.33762 -0.40423,-0.14904 -0.82684,-0.32075 -0.93915,-0.38158 -0.35468,-0.19211 -0.44233,-0.17625 -3.49997,0.63308 -1.36757,0.36199 -2.58143,0.46696 -3.74701,0.32402 -0.60564,-0.0743 -1.29356,-0.2154 -1.5287,-0.31362 -0.46761,-0.19533 -1.07429,-0.7207 -1.07429,-0.93029 0,-0.0727 -0.093,-0.2348 -0.20663,-0.36018 -0.11365,-0.12538 -0.2724,-0.37597 -0.35278,-0.55687 -0.19792,-0.44544 -0.18834,-1.42996 0.0156,-1.59919 0.0889,-0.0738 0.19347,-0.33278 0.23228,-0.57548 0.0533,-0.333372 0.15035,-0.477175 0.39685,-0.588093 0.17946,-0.08075 0.47951,-0.231719 0.66679,-0.335486 l 0.34051,-0.188667 0.49929,0.543793 c 0.50112,0.545793 0.88372,0.744033 0.6582,0.341043 -0.17013,-0.304006 0.0239,-0.552843 0.62408,-0.800346 0.29481,-0.121576 0.53603,-0.281255 0.53603,-0.35484 0,-0.07359 -0.25136,-0.260461 -0.55857,-0.415277 -0.30721,-0.154817 -0.58502,-0.308657 -0.61736,-0.341868 -0.0323,-0.03321 -0.27046,-0.171393 -0.52917,-0.307073 -0.2587,-0.13568 -0.70849,-0.378487 -0.99953,-0.53957 -2.50069,-1.384059 -3.40914,-1.847182 -3.76297,-1.918341 -0.57001,-0.114638 -1.89746,-0.519078 -2.14446,-0.653367 -0.11231,-0.06106 -0.25841,-0.111013 -0.32467,-0.111013 -0.12564,0 -1.06305,-0.394804 -1.47022,-0.619204 -0.81538,-0.44938 -0.87367,-0.464204 -1.06659,-0.271282 -0.10171,0.101712 -0.34937,0.184931 -0.55036,0.184931 -0.20098,0 -0.52793,0.04933 -0.72655,0.109624 -0.19862,0.06029 -0.57279,0.166388 -0.8315,0.235766 -0.2587,0.06938 -1.68745,0.519067 -3.175,0.999309 -1.48754,0.480241 -3.1015,0.988187 -3.58657,1.128769 -0.48507,0.140582 -1.01424,0.299411 -1.17593,0.352954 -0.16169,0.05354 -0.69085,0.212293 -1.17592,0.352778 -0.48507,0.140485 -1.01424,0.296707 -1.17593,0.34716 -0.16169,0.05045 -0.53211,0.156299 -0.82315,0.235211 -0.29104,0.07891 -0.65072,0.190882 -0.79928,0.248823 -0.14856,0.05794 -0.3968,0.105347 -0.55163,0.105347 -0.15482,0 -0.31059,0.04707 -0.34615,0.1046 -0.0356,0.05753 -0.23712,0.133081 -0.44791,0.167892 -0.2108,0.03481 -0.60816,0.120032 -0.88304,0.189381 -0.64665,0.163147 -1.23899,0.30541 -1.96967,0.473056 -4.39335,1.008002 -7.9938,2.42185 -9.21079,3.61696 -0.27539,0.27044 -0.65232,0.4286 -1.25495,0.52658 -0.32338,0.0526 -0.85255,0.14827 -1.17593,0.21266 -0.53605,0.10674 -0.97296,0.18782 -2.52824,0.46917 -0.29104,0.0526 -0.84667,0.1566 -1.23472,0.231 -0.38806,0.0744 -1.02306,0.18741 -1.41111,0.25114 -3.83187,0.6293 -5.48969,0.81831 -9.17223,1.04573 -1.03481,0.0639 -2.72814,0.17137 -3.76296,0.23881 -7.82131,0.50973 -8.90877,0.56076 -9.08985,0.42654 -0.1751,-0.1298 -0.52814,-0.8699 -0.77258,-1.61961 -0.28695,-0.88011 -0.42675,-1.64334 -0.54632,-2.98252 -0.0635,-0.71144 -0.16531,-1.558103 -0.22622,-1.881482 -0.15344,-0.814718 -0.14889,-1.771137 0.0154,-3.249056 0.11337,-1.019486 0.10982,-1.448178 -0.0185,-2.239677 -0.29581,-1.824135 -0.64078,-2.17076 -1.15178,-1.15731 -0.18028,0.357536 -0.25938,0.707751 -0.2459,1.088647 0.0246,0.695664 -0.0868,0.823051 -0.38687,0.442118 -0.6998,-0.88853 -1.17759,-1.179911 -1.30551,-0.796159 -0.0675,0.202534 0.16445,0.810087 0.41532,1.087801 0.23783,0.26328 0.38671,0.738007 0.26852,0.856203 -0.11588,0.115872 -0.46161,-0.129662 -0.59494,-0.42251 -0.0638,-0.14023 -0.15644,-0.254964 -0.20578,-0.254964 -0.0493,0 -0.0897,-0.100172 -0.0897,-0.222604 0,-0.241823 -0.24276,-0.390159 -0.43579,-0.266285 -0.29113,0.186832 -0.28191,0.617026 0.0268,1.247944 0.17213,0.351816 0.27996,0.693059 0.23963,0.758318 -0.14884,0.240839 -0.43805,-0.03664 -0.73735,-0.707441 -0.24386,-0.546573 -0.3401,-0.662286 -0.46476,-0.55883 -0.22347,0.185469 -0.19473,0.623341 0.078,1.187776 0.25256,0.522744 0.30975,1.030566 0.11606,1.030566 -0.0655,0 -0.23481,-0.238125 -0.37621,-0.529167 -0.14139,-0.291041 -0.29683,-0.529166 -0.3454,-0.529166 -0.2008,0 -0.30398,0.403217 -0.19306,0.754465 0.063,0.199465 0.10591,0.888454 0.0954,1.531085 -0.0195,1.191891 0.0284,1.560608 0.55146,4.240838 0.16408,0.84079 0.34426,1.76683 0.4004,2.05787 0.10659,0.55262 0.28846,1.98455 0.45554,3.58657 0.10348,0.99228 0.24465,1.68429 0.44514,2.1821 0.20025,0.49719 0.70694,1.01756 1.05325,1.08168 0.37776,0.0699 2.42215,-0.0784 3.61827,-0.26244 1.93823,-0.29831 2.68373,-0.37569 4.35093,-0.45159 0.97014,-0.0442 2.4518,-0.0458 3.29259,-0.004 1.41962,0.0712 2.03183,0.14351 3.88056,0.458 1.53215,0.26063 2.15124,0.35589 2.98036,0.45855 0.47503,0.0588 0.89766,0.14093 0.93919,0.18246 0.11028,0.11028 7.63456,-0.0277 9.01563,-0.16537 z m 78.02679,-4.1371 c 1.34819,-0.44259 2.13418,-1.16668 2.76866,-2.55059 0.15656,-0.34146 0.28464,-0.69553 0.28464,-0.78681 0,-0.0913 0.0529,-0.19867 0.1176,-0.23864 0.0647,-0.04 0.11759,-0.19872 0.11759,-0.35278 0,-0.15405 0.0529,-0.3128 0.11759,-0.35277 0.0647,-0.04 0.11759,-0.17611 0.11759,-0.30252 0,-0.12641 0.0469,-0.32173 0.10411,-0.43403 0.0573,-0.11231 0.25569,-0.51427 0.44097,-0.89325 0.18528,-0.37898 0.68083,-1.12105 1.10122,-1.64905 0.42039,-0.527995 0.85499,-1.154861 0.96577,-1.393035 0.11078,-0.238173 0.39466,-0.646945 0.63085,-0.908383 l 0.42945,-0.475341 -0.20521,-0.432445 c -0.15905,-0.335161 -0.19024,-0.610989 -0.13867,-1.226108 0.0715,-0.85283 0.24179,-1.270969 0.72552,-1.781444 0.16854,-0.177858 0.25138,-0.323379 0.18409,-0.323379 -0.2415,0 -0.13334,-0.691404 0.13022,-0.832454 l 0.25257,-0.135173 -0.0725,0.362456 -0.0725,0.362456 0.37848,0.162076 c 0.69559,0.297865 1.21455,0.433417 1.65935,0.433417 0.43738,0 0.77701,-0.207621 0.77701,-0.474999 0,-0.07646 -0.0959,-0.0206 -0.21309,0.124132 -0.16264,0.200853 -0.27853,0.242379 -0.48953,0.175412 l -0.27643,-0.08774 0.22494,-0.122937 c 0.30251,-0.165332 0.39667,-0.322289 0.40327,-0.672204 l 0.006,-0.293981 0.17265,0.228262 c 0.14682,0.194117 0.17265,0.1992 0.17265,0.03398 0,-0.263827 -0.45918,-0.673447 -0.75713,-0.675421 -0.89741,-0.0059 -1.03761,-0.487284 -0.33061,-1.135045 0.48476,-0.444133 1.08694,-0.784998 1.19502,-0.676445 0.038,0.03817 -0.20976,0.316215 -0.55059,0.617871 -0.34083,0.301656 -0.61864,0.581871 -0.61736,0.6227 10e-4,0.04083 0.22723,0.133661 0.5021,0.206294 0.84104,0.222238 0.96541,0.382609 0.96793,1.248068 0.003,1.022869 -0.24409,1.290143 -1.18013,1.276613 -0.35981,-0.0052 -0.77015,-0.06306 -0.91186,-0.128571 -0.14171,-0.06551 -0.40183,-0.176874 -0.57805,-0.24747 l -0.3204,-0.128355 -0.33005,0.495889 c -0.54085,0.812611 -0.79458,1.841953 -0.49906,2.024594 0.0647,0.03997 0.11759,0.198721 0.11759,0.352777 0,0.359982 0.16572,0.455407 0.82059,0.472528 0.29245,0.0076 0.82277,0.07642 1.17849,0.152837 0.85969,0.184675 3.32016,0.213279 4.05694,0.04716 1.21539,-0.274023 1.77924,-0.391964 2.29306,-0.479636 0.75909,-0.129524 1.27246,-0.427721 1.92293,-1.116965 0.6826,-0.723297 0.82103,-0.974234 1.07224,-1.943668 0.30813,-1.189131 0.10741,-2.806941 -0.52688,-4.24661 -0.18522,-0.420394 -0.40594,-0.936331 -0.49049,-1.146528 -0.0846,-0.210197 -0.19373,-0.382176 -0.24262,-0.382176 -0.0489,0 -0.0889,-0.06615 -0.089,-0.146991 -8e-5,-0.08084 -0.13555,-0.30444 -0.30104,-0.496879 -0.1655,-0.192439 -0.38155,-0.536397 -0.48012,-0.764352 -0.0986,-0.227955 -0.22768,-0.506349 -0.28692,-0.618654 -0.0592,-0.112306 -0.1077,-0.266061 -0.1077,-0.341678 0,-0.244677 -0.57585,-0.900769 -0.95787,-1.091344 -0.47226,-0.235598 -0.63924,-0.237079 -0.40576,-0.0036 0.31071,0.310708 0.5871,0.994467 0.45528,1.126291 -0.0796,0.07962 -0.21713,-0.04804 -0.41903,-0.389039 -0.33146,-0.559835 -0.70462,-0.919126 -0.95459,-0.919126 -0.25869,0 -0.87162,0.6381 -0.96312,1.002676 -0.0603,0.240331 -0.01,0.471957 0.18158,0.832735 0.23019,0.433927 0.32943,0.509727 0.75298,0.575135 0.8616,0.133056 1.23242,0.299309 1.59909,0.716929 0.36251,0.412877 0.44736,0.684379 0.25168,0.805318 -0.19192,0.118615 -0.42339,-0.04888 -0.71128,-0.514699 -0.19239,-0.311285 -0.39328,-0.479522 -0.62886,-0.526638 -0.60534,-0.121068 -0.63694,-0.09715 -0.69696,0.527489 -0.0741,0.77116 -0.36141,1.143191 -1.21872,1.578098 -0.38178,0.193675 -0.76442,0.418918 -0.85031,0.500539 -0.22265,0.211592 -0.61835,0.411077 -0.6844,0.345027 -0.0989,-0.09888 0.84765,-0.985727 1.26272,-1.183094 0.78904,-0.375191 1.04775,-0.693436 1.04775,-1.288833 0,-0.483322 -0.24547,-1.121867 -0.59906,-1.558324 -0.13479,-0.166376 -0.16981,-0.849937 -0.0627,-1.224395 l 0.0841,-0.293982 -0.47364,-0.14699 c -0.2605,-0.08084 -0.84489,-0.146991 -1.29864,-0.146991 h -0.825 v 0.765953 c 0,0.715237 -0.13818,1.180316 -0.40816,1.373724 -0.18723,0.134124 -0.1888,0.04429 -0.01,-0.550989 0.14446,-0.480009 0.14633,-0.624777 0.0122,-0.945774 -0.2243,-0.536816 -0.36461,-0.577174 -0.64374,-0.185166 -0.25729,0.361327 -0.3185,0.947546 -0.13479,1.290815 0.0987,0.184405 -0.0292,0.621629 -0.14108,0.482297 -0.54028,-0.672899 -0.67553,-1.123817 -0.41516,-1.384187 0.10975,-0.109754 0.0887,-0.141112 -0.0948,-0.141112 -0.12972,0 -0.41812,-0.136283 -0.64088,-0.302851 -0.72036,-0.538646 -1.04608,-0.671419 -1.24405,-0.507119 -0.14841,0.123173 -0.15013,0.159671 -0.0112,0.23744 0.17615,0.09858 0.14194,0.759166 -0.0453,0.874891 -0.1625,0.100431 -0.12199,0.520788 0.0502,0.520788 0.0848,0 0.27003,-0.107895 0.41158,-0.239766 0.20619,-0.192094 0.25736,-0.203784 0.25736,-0.0588 0,0.25749 -0.42733,0.65134 -0.70671,0.65134 -0.12999,0 -0.32695,-0.105833 -0.43771,-0.235185 -0.11075,-0.129352 -0.33942,-0.235185 -0.50814,-0.235185 -0.34973,0 -0.51897,0.25665 -0.68789,1.043147 -0.15837,0.737398 -0.28133,0.811367 -0.72631,0.436938 l -0.37632,-0.31665 -0.30693,0.286464 c -0.16882,0.157556 -0.51397,0.358804 -0.76702,0.447218 -0.27739,0.09692 -0.54571,0.300833 -0.67572,0.513531 -0.23499,0.384445 -0.28312,1.174981 -0.10689,1.75554 0.0603,0.19862 0.17627,0.599252 0.25772,0.890293 0.18668,0.667018 0.66362,1.378175 1.56881,2.339204 1.04532,1.10981 1.4246,1.443483 2.08758,1.836557 0.68968,0.408897 0.91772,0.690009 0.72008,0.887648 -0.24237,0.242367 -1.42269,-0.465154 -2.47312,-1.482461 -0.53744,-0.520502 -0.97717,-0.983065 -0.97717,-1.027918 0,-0.04485 -0.18284,-0.321082 -0.40631,-0.613843 l -0.40631,-0.532293 -0.12286,0.229563 c -0.0676,0.12626 -0.12286,0.289654 -0.12286,0.363097 0,0.07344 -0.16129,0.367965 -0.35842,0.65449 l -0.35843,0.520956 h -0.63558 c -0.73156,0 -1.03571,-0.113147 -1.96311,-0.730274 -0.36833,-0.245109 -0.72552,-0.445652 -0.79375,-0.445652 -0.0682,0 -0.12404,-0.04 -0.12404,-0.08889 0,-0.100941 -0.40364,-0.275488 -1.17593,-0.508511 -0.29104,-0.08782 -0.97896,-0.378246 -1.5287,-0.645401 -1.06015,-0.51519 -1.5506,-0.690794 -2.26366,-0.810497 -0.38714,-0.06499 -0.44097,-0.04534 -0.44097,0.160953 0,0.12924 -0.0482,0.356533 -0.10708,0.505097 -0.0589,0.148564 -0.19952,0.69345 -0.3125,1.210857 -0.11299,0.517408 -0.49428,1.946158 -0.84733,3.175 -0.35305,1.228843 -0.66777,2.432697 -0.69939,2.675232 l -0.0575,0.440972 h 0.59863 c 0.96282,0 2.12445,0.342643 4.80594,1.417596 0.28593,0.11462 0.36458,0.55049 0.11651,0.64568 -0.0814,0.0312 -0.8343,-0.21312 -1.67302,-0.54305 -1.43448,-0.56428 -2.92925,-0.931738 -3.79171,-0.932103 -0.31913,-1.35e-4 -0.39117,0.0516 -0.45013,0.323223 -0.0386,0.17786 -0.11295,0.42921 -0.16522,0.55856 -0.0523,0.12935 -0.15915,0.47331 -0.2375,0.76435 -0.0784,0.29104 -0.19022,0.62106 -0.24859,0.73336 -0.0584,0.11231 -0.10613,0.33408 -0.10613,0.49283 0,0.15875 -0.0529,0.32134 -0.11759,0.36131 -0.0647,0.04 -0.11759,0.20257 -0.11759,0.36132 0,0.15875 -0.0478,0.38052 -0.10614,0.49282 -0.19302,0.37137 -0.3897,1.16104 -0.34587,1.38865 0.0237,0.12318 0.14836,0.23913 0.27697,0.25768 0.41596,0.06 1.55676,0.39227 2.11531,0.61614 0.12936,0.0518 0.55269,0.21041 0.94074,0.35237 1.1408,0.41734 1.70969,0.6456 2.08568,0.83687 0.1123,0.0571 0.285,0.10387 0.38377,0.10387 0.0988,0 0.27146,0.0478 0.38377,0.10614 0.11231,0.0584 0.41586,0.16043 0.67456,0.22681 0.25871,0.0664 0.65558,0.17196 0.88195,0.23464 0.22636,0.0627 0.99814,0.11936 1.71507,0.12597 1.02865,0.009 1.46131,-0.0398 2.05199,-0.23372 z m 11.0496,-11.983909 c 0,-0.06468 0.20854,-0.117592 0.46343,-0.117592 0.25489,0 0.49613,-0.05292 0.53611,-0.117593 0.04,-0.06468 0.30455,-0.117592 0.58796,-0.117592 0.28341,0 0.54799,-0.05292 0.58796,-0.117593 0.04,-0.06468 0.22518,-0.117593 0.41158,-0.117593 0.18639,0 0.3716,-0.05292 0.41157,-0.117592 0.04,-0.06468 0.15102,-0.117593 0.24676,-0.117593 0.0958,0 0.44911,-0.185208 0.78524,-0.411574 0.67469,-0.454358 0.79068,-0.490487 0.79068,-0.246266 0,0.224643 -0.90844,0.810572 -1.54164,0.994334 -0.28393,0.0824 -0.67873,0.199144 -0.87735,0.259437 -0.19862,0.06029 -0.55269,0.109625 -0.78681,0.109625 -0.23413,0 -0.45839,0.05292 -0.49836,0.117592 -0.04,0.06468 -0.30768,0.117593 -0.5949,0.117593 -0.28723,0 -0.52223,-0.05292 -0.52223,-0.117593 z m 5.36264,-2.538916 c -0.0395,-0.102885 0.0282,-0.327781 0.15046,-0.499768 0.25595,-0.360124 0.48251,-1.103106 0.48346,-1.585447 5.1e-4,-0.253727 0.0492,-0.322036 0.20645,-0.289733 0.17245,0.03542 0.20098,0.155856 0.17615,0.743576 -0.0313,0.740289 -0.16425,1.120018 -0.54407,1.553853 -0.27426,0.313263 -0.37561,0.329892 -0.47245,0.07752 z m -29.26771,13.563225 c 0.42225,-0.46087 0.84582,-1.52692 1.31992,-3.32199 0.2729,-1.03328 0.39327,-1.43074 0.4892,-1.61531 0.0584,-0.1123 0.10613,-0.31146 0.10613,-0.44256 0,-0.13111 0.0478,-0.33027 0.10614,-0.44257 0.0584,-0.11231 0.16936,-0.44232 0.24664,-0.73336 0.0773,-0.291042 0.18828,-0.621053 0.24665,-0.733358 0.0584,-0.112306 0.10613,-0.334079 0.10613,-0.492829 0,-0.15875 0.0468,-0.317571 0.10403,-0.352934 0.0572,-0.03536 0.13224,-0.210465 0.16671,-0.389116 0.0345,-0.17865 0.11697,-0.510027 0.18332,-0.736393 0.1648,-0.562228 0.33374,-1.15471 0.46943,-1.646296 0.0625,-0.226366 0.22372,-0.808449 0.35832,-1.293519 0.4006,-1.443654 0.9164,-3.617391 1.1859,-4.997684 0.13891,-0.711436 0.30434,-1.524852 0.36763,-1.807591 0.0633,-0.28274 0.0818,-0.547323 0.0412,-0.587963 -0.14297,-0.143069 -3.63057,-0.07639 -4.28768,0.08198 -1.07609,0.25934 -2.80515,0.935174 -3.05741,1.195045 -0.0323,0.03331 -0.19314,0.129596 -0.35735,0.21396 -0.38864,0.199669 -1.49814,1.031074 -2.11521,1.585031 -0.26753,0.240167 -0.51553,0.436667 -0.55112,0.436667 -0.17244,0 0.1062,-1.012545 0.52401,-1.904119 1.05438,-2.249992 2.87646,-4.364714 4.59727,-5.335619 0.56721,-0.320031 1.35092,-0.628171 2.07694,-0.816613 0.65712,-0.170558 2.7456,-0.402216 3.99052,-0.442634 0.72432,-0.02352 0.79592,-0.0462 0.64029,-0.202866 -0.27341,-0.27523 -1.16183,-1.619094 -1.16183,-1.757437 0,-0.251263 -0.23908,-0.109798 -0.76541,0.452884 -0.91328,0.976377 -2.42732,1.510986 -3.38452,1.195082 -0.59175,-0.195298 -1.68288,-0.936154 -2.38997,-1.622745 -0.3308,-0.321223 -0.71984,-0.666952 -0.86452,-0.768288 -0.24036,-0.168356 -0.73523,-0.596844 -2.40872,-2.085607 -1.40847,-1.252998 -2.32853,-1.883376 -2.74344,-1.879681 -0.12703,0.0011 -0.15345,0.03392 -0.0711,0.08819 0.21503,0.141659 0.30251,0.589767 0.16521,0.846304 -0.28427,0.53117 -0.99643,0.123166 -0.92049,-0.527356 l 0.0439,-0.376122 -0.35665,0.14964 c -1.06215,0.445653 -1.9093,1.762604 -2.00205,3.112361 -0.0288,0.419167 -0.054,0.804933 -0.056,0.857257 -0.0104,0.270567 -0.23884,-0.100283 -0.23884,-0.387719 v -0.337501 l -0.6468,-0.134275 c -0.74931,-0.155555 -7.56134,-0.08698 -10.23052,0.102994 -0.90546,0.06444 -2.4665,0.151995 -3.46898,0.19456 -1.00248,0.04257 -2.00789,0.125026 -2.23426,0.183248 -0.22636,0.05822 -0.59302,0.106153 -0.8148,0.106514 -0.22177,3.61e-4 -0.56573,0.04999 -0.76435,0.11028 -0.19862,0.06029 -0.59925,0.175328 -0.89029,0.255632 -0.29105,0.0803 -0.57944,0.189724 -0.64088,0.243154 -0.0614,0.05343 -0.19642,0.09714 -0.29994,0.09714 -0.25965,0 -0.82104,0.271299 -0.82215,0.397322 -5.1e-4,0.05684 0.18429,0.308344 0.41065,0.558904 0.22637,0.250559 0.41158,0.531662 0.41158,0.624673 0,0.423402 -0.32693,0.254414 -1.27311,-0.658063 -0.56097,-0.540995 -1.20136,-1.11547 -1.42309,-1.276611 -0.22172,-0.161141 -0.53922,-0.405511 -0.70555,-0.543045 -0.3715,-0.307178 -4.0891,-2.74855 -4.18536,-2.74855 -0.0381,0 -0.37068,-0.199863 -0.73902,-0.44414 -0.36834,-0.244278 -0.81523,-0.517803 -0.99309,-0.607834 -0.17786,-0.09003 -0.32338,-0.207668 -0.32338,-0.261415 0,-0.05375 -0.0588,-0.09772 -0.13067,-0.09772 -0.0719,0 -0.37614,-0.200443 -0.67616,-0.445429 -1.19169,-0.973107 -5.18312,-3.670312 -5.43146,-3.670312 -0.0614,0 -0.11212,-0.03969 -0.11262,-0.08819 -5.1e-4,-0.04851 -0.11957,-0.145699 -0.26459,-0.215983 -0.14501,-0.07028 -0.687,-0.389712 -1.2044,-0.709841 -1.11161,-0.687772 -2.63843,-1.436824 -3.70417,-1.817259 -1.66062,-0.592785 -3.40614,-0.279504 -4.61903,0.829015 -0.72538,0.662958 -1.37819,2.001273 -1.37819,2.82541 0,0.152507 -0.0494,0.439791 -0.10972,0.638411 -0.54645,1.798509 -0.79675,2.509805 -1.5133,4.300478 -0.77147,1.927923 -1.1176,2.965306 -1.41247,4.233333 -0.23786,1.022867 -0.36444,1.593574 -0.49556,2.234259 -0.0728,0.355718 -0.18122,0.809267 -0.24094,1.007886 -0.0597,0.19862 -0.10857,0.459446 -0.10857,0.579614 0,0.120169 -0.0493,0.380995 -0.10962,0.579615 -0.0603,0.198619 -0.17129,0.599251 -0.24665,0.890293 -0.0754,0.291041 -0.18478,0.621053 -0.24315,0.733358 -0.0584,0.112305 -0.10613,0.30762 -0.10613,0.434032 0,0.126413 -0.0529,0.262545 -0.11759,0.302517 -0.0647,0.03997 -0.1176,0.198722 -0.1176,0.352778 0,0.154056 -0.0529,0.312806 -0.11759,0.352778 -0.0647,0.03997 -0.11759,0.176104 -0.11759,0.302517 0,0.126412 -0.0467,0.321727 -0.10387,0.434032 -0.0571,0.112305 -0.16297,0.349712 -0.23519,0.527571 -0.0722,0.177859 -0.19131,0.4689 -0.26464,0.646759 -0.0733,0.177859 -0.17377,0.429213 -0.22319,0.558565 -0.0494,0.129352 -0.17062,0.420393 -0.26931,0.646759 -0.0987,0.226366 -0.26408,0.781991 -0.36755,1.234722 -0.23315,1.020235 -0.49524,1.839229 -0.80905,2.528241 -0.33404,0.733417 -1.48287,2.431233 -2.03284,3.004268 -0.25127,0.261815 -0.82728,0.895153 -1.28001,1.407417 -1.11416,1.260664 -3.80424,3.963644 -4.20394,4.224094 -0.39106,0.25482 -0.42215,0.44621 -0.0588,0.36203 0.23402,-0.0542 1.11761,-0.16803 2.94389,-0.3792 0.38522,-0.0445 0.60005,-0.13494 0.68126,-0.28668 0.10261,-0.19173 0.56857,-0.44884 1.46073,-0.806 0.12935,-0.0518 0.47331,-0.19893 0.76435,-0.32698 0.46467,-0.20444 1.36487,-0.50921 2.53659,-0.8588 0.19862,-0.0593 0.89329,-0.10774 1.5437,-0.10774 0.88003,0 1.21815,-0.0429 1.32164,-0.16756 0.0993,-0.11963 0.13394,-0.93535 0.12114,-2.851624 l -0.0179,-2.684058 0.43129,-1.058334 c 0.6069,-1.489271 2.39024,-5.092886 2.64782,-5.350462 0.0323,-0.03234 0.12992,-0.185109 0.21684,-0.339491 0.0869,-0.154382 0.25094,-0.445423 0.36448,-0.646759 0.11353,-0.201336 0.4741,-0.775499 0.80127,-1.275919 0.61067,-0.934062 1.75715,-3.119784 2.02084,-3.852646 0.0815,-0.226366 0.20274,-0.543866 0.26954,-0.705555 0.0668,-0.16169 0.1673,-0.413044 0.22332,-0.558565 0.4667,-1.212264 0.7777,-1.818914 0.86229,-1.68203 0.0426,0.06891 0.0224,0.29697 -0.0449,0.506789 -0.0673,0.20982 -0.23284,0.725449 -0.36785,1.145843 -0.13502,0.420393 -0.28978,0.870185 -0.3439,0.999537 -0.0541,0.129351 -0.21826,0.552685 -0.36475,0.94074 -0.46268,1.225718 -1.55742,3.255558 -2.10605,3.904991 -0.066,0.07811 -0.11999,0.173623 -0.11999,0.212239 0,0.03862 -0.20746,0.375715 -0.46102,0.749108 -0.25357,0.373393 -0.57107,0.873198 -0.70556,1.110677 -0.13449,0.23748 -0.35793,0.630219 -0.49652,0.872754 -0.52918,0.926003 -1.29924,2.545929 -1.86798,3.929527 l -0.59123,1.438323 -0.0668,1.446514 c -0.0368,0.795583 -0.022,1.446317 0.0327,1.446075 0.0547,-2.42e-4 0.27278,-0.106075 0.48454,-0.235185 0.21176,-0.12911 0.45534,-0.234746 0.54129,-0.234746 0.19972,0 0.74477,-1.70384 0.84638,-2.645833 0.1076,-0.997414 0.57295,-1.906537 2.2873,-4.468518 1.52559,-2.279881 1.95051,-2.938981 2.35512,-3.653039 0.12588,-0.222148 0.34355,-0.602343 0.4837,-0.844878 1.308,-2.26343 2.23744,-4.559559 2.80124,-6.9203 0.35071,-1.468487 0.32004,-1.599006 -0.55713,-2.370684 l -0.73487,-0.646487 -0.0732,0.366017 c -0.10204,0.510221 -0.27975,0.341477 -0.27975,-0.265639 0,-0.345846 -0.0701,-0.567461 -0.22346,-0.706232 -0.29438,-0.266407 -0.39148,-0.654396 -0.18374,-0.734117 0.0968,-0.03715 0.57228,0.334205 1.17605,0.918536 0.55745,0.539494 1.107,1.033814 1.22123,1.09849 0.11423,0.06468 0.57236,0.540926 1.01807,1.058333 0.4457,0.517408 0.87805,1.011467 0.96076,1.097911 0.0827,0.08644 0.29481,0.351026 0.47132,0.587963 0.17651,0.236936 0.34832,0.457251 0.3818,0.489589 0.0335,0.03234 0.4013,0.535047 0.81739,1.11713 1.1708,1.637902 2.28515,2.897416 4.31766,4.880092 1.98332,1.934696 2.49273,2.401401 3.33381,3.054369 0.28943,0.224695 0.5527,0.438344 0.58503,0.474776 0.22719,0.255941 2.43275,1.77541 2.97617,2.050357 0.36806,0.186222 0.66921,0.382849 0.66921,0.436949 0,0.0541 0.10271,0.09836 0.22824,0.09836 0.12554,0 0.26095,0.05292 0.30092,0.117592 0.0884,0.143014 1.5875,0.158878 1.5875,0.0168 0,-0.05544 -0.25135,-0.360889 -0.55856,-0.678783 -0.30721,-0.317894 -0.63921,-0.682641 -0.73777,-0.810549 -0.29801,-0.386738 -0.70274,-1.328651 -0.70274,-1.635449 0,-0.416604 0.21421,-0.486835 0.30874,-0.101225 0.0986,0.402293 0.85248,1.530827 1.25114,1.872983 0.85195,0.73119 3.31626,2.159373 3.72597,2.159373 0.0696,0 0.21848,0.04776 0.33079,0.106131 0.1123,0.05837 0.44232,0.169716 0.73336,0.247431 0.29104,0.07771 0.65072,0.188706 0.79928,0.246646 0.14856,0.05794 0.37569,0.105347 0.50472,0.105347 0.19635,0 1.79537,0.818628 3.51729,1.800697 0.45953,0.262085 1.31768,0.729435 2.11667,1.152744 0.29104,0.154195 0.55563,0.306814 0.58796,0.339152 0.20925,0.209245 1.14218,0.588256 1.45163,0.589733 0.39588,0.0019 0.97268,0.1808 1.54698,0.479841 0.19403,0.10103 0.61737,0.320387 0.94075,0.487458 l 0.58796,0.303766 2.46944,0.132551 c 2.41913,0.12984 4.88671,0.35891 6.4088,0.59492 2.99521,0.46444 4.27755,0.56541 4.41227,0.34741 0.0519,-0.084 0.12747,-0.51313 0.16784,-0.95353 l 0.0734,-0.800716 -0.34523,-0.120346 c -0.18987,-0.06619 -0.93264,-0.121388 -1.65059,-0.12266 -1.57683,-0.0028 -2.86717,-0.2088 -3.83361,-0.612046 -0.16169,-0.06747 -0.39982,-0.162954 -0.52917,-0.212199 -0.12935,-0.04924 -0.52622,-0.222377 -0.88194,-0.384738 -0.35572,-0.162362 -0.91134,-0.411959 -1.23472,-0.554659 -0.32338,-0.1427 -0.85255,-0.377605 -1.17593,-0.52201 -0.53715,-0.239864 -2.00156,-0.806598 -4.46852,-1.729345 -0.51741,-0.193532 -1.03263,-0.400684 -1.14493,-0.460338 -0.11231,-0.05965 -0.2584,-0.108463 -0.32466,-0.108463 -0.0663,0 -0.34479,-0.09957 -0.61896,-0.221265 -0.27417,-0.121696 -0.68369,-0.285786 -0.91006,-0.364645 -0.22637,-0.07886 -0.54387,-0.198037 -0.70556,-0.264839 -0.16169,-0.0668 -0.39981,-0.162021 -0.52916,-0.211598 -0.12935,-0.04958 -0.48596,-0.201247 -0.79247,-0.337045 -0.30651,-0.135797 -0.58299,-0.246904 -0.61442,-0.246904 -0.0314,0 -0.38918,-0.152142 -0.79503,-0.338093 -0.579,-0.265291 -0.79045,-0.436211 -0.98195,-0.79375 -0.69278,-1.293476 -0.7553,-1.430477 -0.75725,-1.659385 -0.006,-0.675412 -0.78195,-1.794883 -1.24447,-1.794883 -0.0759,0 -0.28956,-0.07905 -0.47481,-0.175664 -0.18525,-0.09662 -0.40297,-0.175991 -0.48381,-0.176389 -0.28172,-0.0014 -0.14411,0.557774 0.26344,1.070458 0.30005,0.37746 0.41074,0.63278 0.41157,0.949365 8.7e-4,0.329183 0.0575,0.450951 0.23633,0.507693 0.25168,0.07988 0.33067,0.573867 0.11324,0.708241 -0.0671,0.04145 -0.53008,0.03776 -1.02893,-0.0082 l -0.907,-0.08356 -0.52916,-0.555566 c -0.29105,-0.305561 -0.70129,-0.672872 -0.91167,-0.816247 -0.22724,-0.15487 -0.49899,-0.515378 -0.66951,-0.888157 -0.15785,-0.345112 -0.34292,-0.662029 -0.41125,-0.70426 -0.0683,-0.04223 -0.12424,-0.335755 -0.12424,-0.652275 0,-0.611593 -0.17371,-1.125767 -0.41112,-1.216867 -0.19296,-0.07405 -0.46941,1.088087 -0.36393,1.529886 0.044,0.184331 0.12164,0.520356 0.17251,0.746721 0.10877,0.484077 0.38474,1.039905 0.86436,1.740959 0.34697,0.507159 0.36933,0.900395 0.0441,0.775592 -0.0953,-0.03659 -0.39002,-0.399071 -0.65483,-0.80552 -0.48527,-0.744826 -0.70718,-1.548966 -0.70874,-2.568262 -0.001,-0.758172 -0.59271,-1.651342 -0.94818,-1.431646 -0.10788,0.06667 -0.0868,0.25299 0.19208,1.700914 0.39997,2.076328 0.40228,2.083364 0.81903,2.488257 0.44292,0.430332 0.53293,0.804336 0.19357,0.804336 -0.26872,0 -0.78912,-0.538116 -0.96151,-0.994232 -0.0722,-0.19111 -0.18574,-0.720276 -0.25225,-1.175926 -0.0665,-0.455649 -0.1724,-1.119495 -0.23529,-1.475212 -0.21944,-1.241095 -0.2314,-1.694448 -0.0508,-1.925136 0.22074,-0.281923 0.68446,-0.180801 1.06783,0.232854 l 0.27551,0.297281 0.13018,-0.24324 c 0.35997,-0.672627 1.17894,0.04172 1.17979,1.02909 3.2e-4,0.371601 0.0951,0.645638 0.35322,1.020725 0.19403,0.282009 0.35284,0.556127 0.35292,0.60915 1.9e-4,0.127452 0.5323,0.743164 0.64225,0.743164 0.0472,0 0.31908,0.20528 0.60411,0.456176 0.48891,0.430353 1.37616,0.784292 1.60755,0.641282 0.19496,-0.120493 -0.0354,-0.63047 -0.50187,-1.111161 -0.65543,-0.675374 -0.75647,-1.451868 -0.26218,-2.014769 0.25161,-0.286528 0.37137,-0.265361 1.33058,0.235185 0.98724,0.515171 1.31722,0.904908 1.51831,1.793287 0.14924,0.659322 0.31893,1.12098 0.50673,1.378616 0.0822,0.112764 0.17229,0.109725 0.41644,-0.01405 0.40654,-0.206099 2.1384,-0.669978 3.36896,-0.902377 2.56618,-0.48464 5.04811,-0.519559 6.70277,-0.0943 0.52669,0.13536 2.66263,0.780103 3.11621,0.940639 0.16169,0.05723 0.87606,0.236124 1.5875,0.397548 1.64967,0.37431 3.6545,0.490461 5.05648,0.292949 1.47504,-0.207805 1.51522,-0.206728 1.56546,0.04194 0.0699,0.345842 -0.10706,0.429769 -1.28342,0.608822 -2.47743,0.377086 -4.88449,0.04674 -8.62287,-1.183408 l -1.28528,-0.422932 -1.06657,0.136166 c -0.58662,0.07489 -1.46345,0.213235 -1.94852,0.307431 -1.39823,0.271523 -5.55972,1.224022 -5.68438,1.301063 -0.0622,0.03845 0.23485,0.207819 0.66014,0.376373 0.42529,0.168554 0.81251,0.345709 0.86048,0.393677 0.048,0.04797 0.16032,0.08722 0.24968,0.08722 0.0894,0 0.38152,0.105833 0.64925,0.235185 0.26773,0.129352 0.55693,0.235185 0.64268,0.235185 0.0857,0 0.24778,0.04674 0.36008,0.103873 0.27464,0.13971 0.70589,0.313138 1.20373,0.48409 0.38802,0.133238 0.56828,0.202016 1.20533,0.459874 0.14552,0.0589 1.19062,0.464238 2.32245,0.900744 1.13183,0.436507 2.6135,1.052564 3.29259,1.369017 1.25157,0.583218 1.5529,0.716917 2.02848,0.900002 0.14552,0.05602 0.39687,0.155824 0.55856,0.221781 0.6566,0.267845 1.31761,0.377949 2.99861,0.499477 0.97014,0.07014 1.98402,0.144714 2.25306,0.165729 l 0.48917,0.03821 0.0775,-0.542925 c 0.0426,-0.298609 0.11355,-2.302554 0.15759,-4.45321 0.0507,-2.475532 0.12322,-3.910141 0.19766,-3.909892 0.17217,5.75e-4 0.13821,7.935039 -0.0388,9.054898 -0.26454,1.674117 -0.35516,2.529097 -0.29497,2.783167 0.0423,0.17849 -0.0139,0.2947 -0.18754,0.38761 -0.13637,0.073 -0.29377,0.10437 -0.34979,0.0697 -0.056,-0.0346 -0.65023,-0.11523 -1.32048,-0.17913 -0.67026,-0.0639 -1.5626,-0.16683 -1.983,-0.22872 -1.98271,-0.2919 -2.65504,-0.37413 -4.35092,-0.53211 -1.00248,-0.0934 -2.61644,-0.20724 -3.58658,-0.25301 -0.97014,-0.0458 -1.86972,-0.0951 -1.99907,-0.10964 -0.12935,-0.0145 -0.35425,-0.0332 -0.49977,-0.0414 -0.14552,-0.008 -0.26458,-0.0817 -0.26458,-0.16324 0,-0.0815 -0.35273,-0.33288 -0.78384,-0.558561 -0.66883,-0.350133 -0.89742,-0.409752 -1.5581,-0.406371 -0.72536,0.0037 -1.53843,0.26729 -1.53873,0.498826 -6e-5,0.04685 0.43809,0.07486 0.97367,0.06225 1.12604,-0.02651 1.3237,0.0499 1.21804,0.470867 -0.11284,0.44958 -0.96673,0.74512 -1.69872,0.58793 -0.30342,-0.0652 -0.80779,-0.0943 -1.12081,-0.0647 l -0.56914,0.0538 -0.57739,-0.62477 -0.57739,-0.624768 v 0.322238 c 0,0.41762 0.30043,0.86883 0.72452,1.08813 0.18525,0.0958 0.7727,0.20616 1.30545,0.24525 1.06363,0.078 1.26851,0.16738 1.17797,0.51362 -0.0518,0.19803 -0.16294,0.23061 -0.78161,0.22908 -1.33083,-0.003 -2.30121,-0.48396 -2.70809,-1.3414 -0.23262,-0.49019 -0.4238,-0.54678 -0.4238,-0.12544 0,0.58946 0.4488,1.30428 0.97576,1.55412 0.67605,0.32054 1.27312,0.50246 1.64903,0.50246 0.25764,0 0.31503,0.0536 0.31503,0.29399 v 0.29398 l -0.49977,0.0177 -0.49977,0.0177 0.52917,0.0705 c 0.40788,0.0544 0.55612,0.13419 0.64676,0.34826 l 0.11759,0.27772 1.0437,-0.0773 c 1.02374,-0.0758 1.39568,-0.15671 3.51301,-0.76422 0.2102,-0.0603 0.51447,-0.14732 0.67616,-0.19337 0.16169,-0.046 0.35986,-0.13525 0.44037,-0.19823 0.099,-0.0775 0.36527,-0.0296 0.82315,0.14797 1.07369,0.41641 2.32262,0.9595 3.02212,1.31414 1.93977,0.98343 3.45884,1.44734 6.1213,1.86937 1.20952,0.19172 1.86432,0.32019 2.35186,0.46143 0.2587,0.075 0.69577,0.17688 0.97126,0.22652 0.2755,0.0496 0.53567,0.12502 0.57817,0.16752 0.0425,0.0425 0.29735,0.0773 0.56633,0.0773 0.35697,0 0.55455,-0.0715 0.73149,-0.26458 z m -32.98867,-15.328043 c -0.51864,-0.629209 -1.07301,-1.890925 -1.08358,-2.466188 -0.002,-0.12476 -0.0709,-0.346921 -0.15234,-0.49369 l -0.14817,-0.266853 -0.21617,0.601125 c -0.26289,0.731088 -0.41547,0.589979 -0.41809,-0.386661 -10e-4,-0.534256 0.0427,-0.695846 0.21537,-0.788246 0.14942,-0.07997 0.25948,-0.07392 0.35278,0.01938 0.18138,0.181381 0.18216,-0.03338 0.002,-0.429765 -0.27261,-0.598313 0.31095,-1.309687 0.78813,-0.960759 0.2443,0.178636 0.17125,0.602829 -0.10002,0.580818 -0.33025,-0.0268 -0.27248,0.763096 0.18178,2.485776 0.16624,0.630417 0.57463,1.335375 1.01756,1.756492 0.1998,0.189959 0.36327,0.441313 0.36327,0.558564 0,0.357156 -0.42665,0.245452 -0.80207,-0.209994 z m -20.01182,-11.688858 c 0,-0.08623 0.0353,-0.121512 0.0784,-0.0784 0.0431,0.04312 0.0431,0.113673 0,0.156791 -0.0431,0.04312 -0.0784,0.0078 -0.0784,-0.0784 z m 0.26247,-0.705555 c 0,-0.226366 0.0242,-0.31897 0.0538,-0.205787 0.0296,0.113183 0.0296,0.298391 0,0.411574 -0.0296,0.113183 -0.0538,0.02058 -0.0538,-0.205787 z m 0.22647,-0.705556 c 0,-0.161689 0.0267,-0.227835 0.0593,-0.14699 0.0326,0.08085 0.0326,0.213136 0,0.293981 -0.0326,0.08085 -0.0593,0.0147 -0.0593,-0.146991 z m -32.94449,26.810122 c 1.13183,-0.0641 3.2485,-0.19426 4.7037,-0.28922 1.45521,-0.095 3.6248,-0.23379 4.8213,-0.30851 2.28676,-0.1428 2.70463,-0.22244 2.70463,-0.5155 0,-0.0986 0.0397,-0.18039 0.0882,-0.18172 0.0485,-0.001 0.35278,-0.24167 0.67616,-0.5341 l 0.58796,-0.53168 -1.17592,0.0639 c -0.64676,0.0351 -1.62572,0.11539 -2.17546,0.17835 -3.35206,0.38391 -4.53493,0.46988 -9.68896,0.70421 -1.85537,0.0844 -2.73778,0.0846 -2.83883,7e-4 -0.0807,-0.0669 -0.17559,-0.26551 -0.21098,-0.44129 -0.0354,-0.17578 -0.12053,-0.54449 -0.18918,-0.81936 -0.3072,-1.22993 -0.37997,-1.5315 -0.48944,-2.02848 -0.45099,-2.047408 -0.74273,-3.745372 -0.93354,-5.43338 -0.1137,-1.005847 -0.10517,-1.191473 0.0719,-1.564511 0.17158,-0.361592 0.17818,-0.465616 0.0452,-0.714002 -0.17193,-0.321269 -0.65029,-0.499164 -0.83786,-0.311593 -0.1894,0.189406 -0.19858,9.380556 -0.01,9.569726 0.0808,0.0809 0.14699,0.30474 0.14699,0.49741 0,0.33594 0.13501,0.85665 0.3848,1.48413 0.30298,0.76108 0.36074,0.90033 0.48131,1.16028 l 0.12909,0.27834 0.82531,-0.0736 c 0.45393,-0.0405 1.75136,-0.12601 2.88319,-0.19012 z m 20.40231,-2.00637 c 0.38806,-0.0704 0.95691,-0.17674 1.26413,-0.23627 1.43916,-0.27885 1.72311,-0.33095 2.4032,-0.44095 0.79762,-0.12902 0.93618,-0.19279 2.04517,-0.94123 1.07219,-0.72361 2.66844,-1.46679 4.29381,-1.999123 1.33294,-0.436557 1.73243,-0.553541 2.81129,-0.823256 0.2587,-0.06468 0.68203,-0.17051 0.94074,-0.235186 0.2587,-0.06468 0.68203,-0.170509 0.94074,-0.235185 0.2587,-0.06468 0.68203,-0.170509 0.94074,-0.235185 1.40956,-0.352391 2.37581,-0.605876 2.76342,-0.72496 0.16169,-0.04967 0.53211,-0.155508 0.82315,-0.235185 0.29104,-0.07968 0.66146,-0.188897 0.82315,-0.24271 0.16169,-0.05381 0.69086,-0.209915 1.17593,-0.346893 2.37103,-0.669551 7.90007,-2.407275 8.25928,-2.595815 0.11231,-0.05895 0.32397,-0.109078 0.47037,-0.111404 l 0.26618,-0.0042 -0.35278,-0.289168 c -0.36849,-0.302049 -1.26348,-0.411611 -1.41111,-0.172744 -0.04,0.06468 -0.22518,0.117593 -0.41157,0.117593 -0.1864,0 -0.37161,0.05292 -0.41158,0.117592 -0.04,0.06468 -0.20256,0.117593 -0.36131,0.117593 -0.15875,0 -0.38052,0.04776 -0.49283,0.106131 -0.1123,0.05837 -0.44232,0.170343 -0.73336,0.248823 -0.29104,0.07848 -0.66146,0.183335 -0.82315,0.233009 -0.16169,0.04967 -0.5321,0.155507 -0.82314,0.235185 -0.29105,0.07968 -0.66146,0.189627 -0.82315,0.244332 -0.16169,0.0547 -2.06669,0.606626 -4.23334,1.226491 -2.16664,0.619865 -4.07164,1.171374 -4.23333,1.225576 -0.16169,0.0542 -0.53211,0.163632 -0.82315,0.243181 -0.29104,0.07955 -0.635,0.187533 -0.76435,0.239966 -0.39478,0.160023 -0.87403,0.244114 -2.5487,0.447209 -0.88437,0.107252 -1.64726,0.234691 -1.69529,0.283198 -0.048,0.04851 -0.16159,0.08819 -0.25234,0.08819 -0.198,0 -1.11428,0.61634 -1.65424,1.112725 -0.59429,0.546344 -1.78813,1.236544 -2.27294,1.314064 -0.44448,0.0711 -0.5671,0.24928 -0.57072,0.82947 -0.002,0.3797 -0.15777,0.42523 -1.37835,0.40388 -0.60981,-0.0107 -1.33003,0.0388 -1.60049,0.10982 -0.27046,0.0711 -0.70341,0.18398 -0.96211,0.2509 -0.25871,0.0669 -0.60266,0.17565 -0.76435,0.24161 -0.16169,0.066 -0.39982,0.16003 -0.52917,0.20905 -0.12935,0.049 -0.42039,0.17762 -0.64676,0.28577 l -0.41157,0.19665 0.52916,-0.0652 c 0.29104,-0.0359 0.84667,-0.12286 1.23472,-0.19328 z m 42.47788,-0.0628 c -0.0391,-0.0391 -0.1405,-0.0433 -0.22539,-0.009 -0.0938,0.0375 -0.0659,0.0654 0.071,0.071 0.12396,0.005 0.19342,-0.0227 0.15434,-0.0618 z m -0.64431,-0.24202 c -0.0808,-0.0326 -0.21314,-0.0326 -0.29398,0 -0.0808,0.0326 -0.0147,0.0593 0.14699,0.0593 0.16169,0 0.22783,-0.0267 0.14699,-0.0593 z m -0.44983,-0.2473 c -0.13739,-0.0939 -0.46302,-0.66768 -0.56619,-0.99774 -0.0799,-0.25557 -0.3069,-0.27159 -0.3069,-0.0217 0,0.4115 0.51241,1.11047 0.81198,1.10759 0.11647,-0.001 0.13963,-0.0345 0.0611,-0.0882 z m -35.48852,-2.740425 c 0.37742,-0.198537 0.71352,-0.398342 0.74689,-0.444011 0.0334,-0.04567 0.2988,-0.266402 0.58984,-0.490516 0.29104,-0.224114 0.63175,-0.500559 0.75712,-0.614323 0.12538,-0.113763 0.29736,-0.206842 0.38218,-0.206842 0.0848,0 0.15422,-0.05292 0.15422,-0.117592 0,-0.06468 0.097,-0.117593 0.21558,-0.117593 0.11858,0 0.25343,-0.03784 0.29968,-0.08409 0.17482,-0.174815 1.21944,-0.376093 1.97784,-0.381088 0.43341,-0.0029 1.09487,-0.08915 1.46991,-0.191768 1.71436,-0.469079 1.53089,-0.416242 6.09115,-1.754138 2.13431,-0.626165 4.06577,-1.189479 4.29213,-1.251809 0.22637,-0.06233 0.57033,-0.160277 0.76435,-0.217659 0.19403,-0.05738 0.55122,-0.160233 0.79375,-0.228555 0.52108,-0.146788 1.09646,-0.311017 1.7051,-0.48668 0.24253,-0.07 0.58714,-0.155476 0.76579,-0.189947 0.17865,-0.03447 0.35375,-0.109491 0.38911,-0.16671 0.0354,-0.05722 0.21345,-0.104034 0.39574,-0.104034 0.18229,0 0.38613,-0.06615 0.45298,-0.146991 0.0911,-0.110229 -0.16258,-0.359825 -1.01454,-0.99801 -0.62484,-0.468061 -1.26913,-0.970769 -1.43175,-1.11713 -0.16263,-0.14636 -0.61242,-0.527319 -0.99954,-0.846576 -0.38712,-0.319256 -1.67292,-1.55371 -2.85733,-2.743232 -1.96018,-1.968629 -2.44983,-2.548912 -4.53074,-5.369301 -0.49426,-0.66991 -1.31784,-1.662103 -1.81311,-2.184315 -0.54859,-0.578432 -0.72796,-0.535219 -0.73219,0.176389 -0.004,0.639907 -0.87694,3.621457 -1.42566,4.86828 -0.13094,0.297538 -0.53339,1.123062 -0.89433,1.834497 -0.36093,0.711435 -0.71453,1.412168 -0.78578,1.557184 -0.0712,0.145017 -0.16922,0.264079 -0.21773,0.264584 -0.0485,5.04e-4 -0.0882,0.05852 -0.0882,0.128919 0,0.121553 -2.8915,4.569602 -3.05092,4.693294 -0.30654,0.237837 -0.89501,1.639189 -1.08638,2.587037 -0.2458,1.217534 -0.32517,1.619668 -0.43772,2.217811 -0.16832,0.894539 -0.38077,1.148277 -1.30887,1.563265 -0.67956,0.303856 -0.81889,0.413492 -0.81889,0.644388 0,0.39204 0.39779,0.36572 1.25031,-0.08273 z m 73.10534,-6.475324 c 0.14127,-0.07344 0.26839,-0.1423 0.28249,-0.153031 0.0141,-0.01073 0.10966,-0.220601 0.21235,-0.466379 l 0.18672,-0.44687 -0.62393,0.0764 c -2.356,0.288506 -2.5407,0.365643 -1.74106,0.727127 0.96918,0.438126 1.25903,0.483366 1.68343,0.262749 z m -0.18412,-1.644925 c 0.96455,-0.154212 0.95382,-0.135155 0.67616,-1.201196 -0.25202,-0.96756 -0.22841,-1.984252 0.0592,-2.547962 0.2615,-0.512592 0.44039,-0.636669 1.08591,-0.753181 0.47334,-0.08544 0.67759,-0.31974 0.67759,-0.777291 0,-0.06606 0.14552,-0.183214 0.32338,-0.260337 0.17786,-0.07712 0.44966,-0.261197 0.604,-0.409053 0.20571,-0.197071 0.41919,-0.26883 0.79975,-0.26883 h 0.51913 l 0.17039,-0.407797 c 0.0937,-0.224288 0.16621,-0.475642 0.1611,-0.558565 -0.007,-0.11803 -0.0222,-0.11885 -0.0686,-0.0038 -0.0846,0.209759 -0.51008,0.182353 -0.51008,-0.03286 0,-0.09892 0.2111,-0.446906 0.4691,-0.773309 0.43342,-0.548312 0.56978,-0.793858 0.91959,-1.655876 0.0705,-0.173787 0.1649,-0.848475 0.20973,-1.499305 0.0848,-1.231083 0.201,-1.497047 0.32438,-0.742356 0.0898,0.548983 -0.0412,2.367324 -0.17656,2.450956 -0.055,0.03397 -0.0999,0.162599 -0.0999,0.285839 0,0.12324 -0.134,0.464075 -0.29776,0.757412 -0.2348,0.420559 -0.26042,0.533339 -0.12117,0.533339 0.18515,0 1.0232,0.435237 1.12448,0.583989 0.0323,0.0475 0.17605,0.148092 0.31937,0.223544 0.22402,0.117947 0.28484,0.0998 0.43363,-0.129387 0.45601,-0.702385 0.58708,-1.410805 0.59325,-3.206387 0.004,-1.130781 -0.0496,-1.953821 -0.14889,-2.293055 -0.0852,-0.291042 -0.20779,-0.714375 -0.27236,-0.940741 -0.0646,-0.226366 -0.16238,-0.517407 -0.21736,-0.646759 -0.055,-0.129352 -0.17023,-0.407164 -0.25612,-0.617361 -0.0859,-0.210197 -0.19615,-0.382176 -0.24504,-0.382176 -0.0489,0 -0.0889,-0.07269 -0.0889,-0.161531 0,-0.3391 -2.27859,-2.543099 -2.62917,-2.543099 -0.0382,0 -0.14566,0.145521 -0.23885,0.32338 -0.0932,0.177859 -0.26796,0.429213 -0.38839,0.558565 -0.64503,0.692826 -1.11939,1.757734 -1.33572,2.998611 -0.32142,1.84378 -0.62248,2.502947 -1.51672,3.320913 -1.10652,1.012138 -2.43069,1.444626 -3.52274,1.150568 -0.78119,-0.210352 -0.76391,0.0065 0.0425,0.533972 0.58605,0.383307 1.13991,0.517781 2.14022,0.519628 1.21449,0.0022 1.65182,-0.215655 2.74713,-1.368733 0.44095,-0.464199 0.83255,-0.813166 0.87024,-0.775482 0.15597,0.155971 0.0484,0.602984 -0.26337,1.094028 -0.52585,0.828348 -1.38372,1.397118 -2.59184,1.718412 -0.56167,0.149373 -0.7885,0.153492 -1.486,0.02699 -0.45273,-0.08211 -1.03973,-0.268785 -1.30443,-0.414828 -0.42795,-0.236106 -0.75374,-0.280199 -2.93982,-0.397881 -4.62206,-0.248819 -6.48434,0.06339 -8.51455,1.427456 -1.32702,0.891606 -2.48425,2.219072 -3.41847,3.921343 -0.39244,0.715083 -0.40586,0.892582 -0.0419,0.554935 0.81509,-0.756262 2.64181,-1.726558 3.98959,-2.119146 1.94942,-0.567832 3.06428,-0.615169 5.52686,-0.234674 1.78276,0.275458 4.59696,0.349772 5.11527,0.135079 0.37155,-0.1539 0.58797,-0.08025 0.58797,0.200098 0,0.28801 -0.10764,0.343878 -1.03717,0.538363 -0.88632,0.185441 -1.96831,0.208259 -2.667,0.05624 -0.2587,-0.05629 -0.79481,-0.136285 -1.19135,-0.177773 l -0.72098,-0.07543 -0.0794,0.386434 c -0.21055,1.024378 -0.21403,1.268379 -0.0181,1.268379 0.10468,0 0.28222,0.04776 0.39452,0.106132 0.69477,0.361114 1.64863,0.417702 3.78783,0.224715 0.57083,-0.0515 0.62991,0.287089 0.0984,0.564158 -0.29579,0.154202 -0.70068,0.205346 -1.68301,0.212588 -1.25971,0.0093 -1.91115,-0.110345 -2.64583,-0.485893 l -0.29398,-0.150274 -0.0387,0.24321 c -0.0658,0.413547 0.0621,0.552317 0.58907,0.639046 0.27938,0.04598 1.1165,0.360935 1.86027,0.699897 0.74377,0.338962 1.59044,0.676649 1.88148,0.750414 0.94614,0.239801 2.48294,0.241223 3.96875,0.0037 z m -36.00978,-0.558485 c 0.77449,-0.185822 1.91087,-0.452141 2.52529,-0.59182 0.61442,-0.139679 1.32879,-0.303898 1.5875,-0.36493 0.2587,-0.06103 0.60266,-0.131465 0.76435,-0.156518 0.16169,-0.02505 -0.13854,-0.05276 -0.66719,-0.06156 -0.52864,-0.0088 -1.24301,0.04149 -1.5875,0.111777 -2.48794,0.507616 -4.3305,0.997394 -4.3305,1.151108 0,0.11036 0.12746,0.249804 0.22834,0.249804 0.0394,0 0.70522,-0.152036 1.47971,-0.337857 z m 39.29119,-4.537164 c -0.0383,-0.0998 -0.12421,-0.18146 -0.19092,-0.18146 -0.17233,0 -0.15083,0.322626 0.0257,0.385676 0.19977,0.07134 0.24805,0.01166 0.16521,-0.204216 z m -7.1324,-4.532143 c -0.1491,-0.209399 -0.23591,-0.483931 -0.21379,-0.676157 0.0442,-0.384545 0.31994,-0.405785 1.15436,-0.08893 0.71941,0.273177 1.81853,0.172607 2.5641,-0.234616 1.34279,-0.733412 1.99334,-1.684493 2.37287,-3.469054 0.0756,-0.355718 0.18641,-0.809266 0.24612,-1.007886 0.0597,-0.19862 0.10858,-0.473309 0.10858,-0.610421 0,-0.137112 0.0529,-0.281999 0.11759,-0.321971 0.0647,-0.03997 0.11759,-0.151832 0.11759,-0.248577 0,-0.09675 0.21167,-0.487594 0.47037,-0.868552 0.25871,-0.380958 0.47037,-0.771807 0.47037,-0.868553 0,-0.09674 0.0575,-0.211455 0.12784,-0.254909 0.081,-0.05008 0.0868,-0.120048 0.0158,-0.191076 -0.14199,-0.141996 -2.85651,-0.135333 -2.99921,0.0074 -0.0632,0.06322 -0.0536,0.445634 0.0239,0.944769 0.0716,0.461207 0.10629,0.95632 0.0772,1.100251 -0.16327,0.807177 -0.20591,0.921174 -0.32922,0.880071 -0.0869,-0.02896 -0.14278,-0.434979 -0.15628,-1.134907 -0.016,-0.829108 -0.0668,-1.135587 -0.21233,-1.281142 -0.14944,-0.149437 -0.22241,-0.160246 -0.33328,-0.04937 -0.0781,0.07807 -0.26244,0.141951 -0.4097,0.141951 -0.15789,0 -0.34913,0.124188 -0.46607,0.302665 l -0.19831,0.302664 0.25379,0.491086 c 0.13958,0.270097 0.31834,0.581151 0.39723,0.691232 0.0789,0.110081 0.10042,0.242372 0.0478,0.293981 -0.0526,0.05161 -0.33253,-0.167072 -0.62212,-0.485957 l -0.52652,-0.579793 0.0383,-0.596133 0.0383,-0.596134 -0.29399,-0.03429 c -0.16169,-0.01886 -0.39981,-0.08079 -0.52916,-0.137615 -0.33088,-0.145364 -1.08245,-0.271451 -1.7051,-0.286054 l -0.52916,-0.01241 0.0379,0.38931 c 0.0208,0.21412 -0.0301,0.471201 -0.11316,0.57129 -0.12567,0.151431 -0.11345,0.209453 0.0728,0.345643 0.307,0.224478 0.38296,0.209344 0.70763,-0.140983 0.2675,-0.288641 0.52958,-0.301302 0.52958,-0.02559 0,0.159307 -0.42962,0.536637 -0.71364,0.626782 -0.23748,0.07537 -0.80516,-0.17762 -1.04381,-0.465184 -0.25748,-0.310239 -0.89605,-0.233631 -1.16063,0.139237 -0.1262,0.177859 -0.24947,0.428605 -0.27394,0.557214 -0.0727,0.381967 -0.43344,0.350001 -0.80099,-0.07097 -0.25993,-0.29771 -0.37265,-0.355918 -0.4943,-0.255265 -0.0867,0.07171 -0.31468,0.148296 -0.50666,0.170188 -0.23203,0.02646 -0.40836,0.145916 -0.5259,0.356264 -0.18424,0.329725 -0.1499,0.518932 0.28401,1.565021 0.3711,0.894674 0.41456,1.024867 0.41456,1.24185 0,0.127187 0.0483,0.323134 0.10738,0.43544 0.0591,0.112305 0.24449,0.495233 0.41209,0.85095 0.48374,1.026761 0.67169,1.304826 1.40608,2.080303 0.73708,0.778323 0.78255,0.795925 2.1688,0.839744 l 0.62537,0.01977 z m -41.23264,-2.175706 c 0.0372,-0.09701 0.14706,-0.176389 0.24407,-0.176389 0.33246,0 0.0506,-0.339476 -0.51635,-0.622029 -0.86288,-0.429991 -1.31704,-0.713487 -3.47442,-2.168801 -1.94251,-1.310373 -2.93516,-2.003683 -3.6309,-2.535984 -0.18606,-0.142358 -1.2444,-0.876054 -2.35185,-1.630435 -1.10745,-0.754381 -2.06867,-1.420861 -2.13604,-1.481066 -0.42107,-0.376257 -4.9462,-3.297845 -5.54932,-3.582841 -1.14437,-0.54076 -2.84166,-0.86604 -3.01929,-0.578636 -0.0341,0.05512 0.35497,0.237561 0.86451,0.405437 0.90034,0.296628 2.83981,1.19539 3.86292,1.790094 0.48009,0.279066 3.23538,2.103406 3.49025,2.310977 1.36963,1.115463 5.12471,3.742359 5.3496,3.742359 0.0668,0 0.12151,0.05292 0.12151,0.117592 0,0.06468 0.0525,0.117593 0.11666,0.117593 0.12092,0 3.89509,2.434271 3.99908,2.579338 0.0323,0.04511 0.29693,0.247319 0.58797,0.449355 0.29104,0.202036 0.82021,0.606629 1.17592,0.899096 0.72251,0.594039 0.76988,0.613976 0.86568,0.36434 z m 38.05747,-5.291666 c 0,-0.235185 -0.0588,-0.293982 -0.29398,-0.293982 -0.36392,0 -0.3771,0.163629 -0.0326,0.404907 0.33359,0.233653 0.32661,0.236022 0.32661,-0.110925 z m 0.47037,-0.47037 c 0,-0.03234 -0.0265,-0.0588 -0.0588,-0.0588 -0.0323,0 -0.0588,0.02646 -0.0588,0.0588 0,0.03234 0.0265,0.0588 0.0588,0.0588 0.0323,0 0.0588,-0.02646 0.0588,-0.0588 z"
       id="path6" /></g></svg>
