<?xml version="1.0" encoding="UTF-8" standalone="no"?>
<!-- Created with Inkscape (http://www.inkscape.org/) -->

<svg
   width="101.93901mm"
   height="118.5348mm"
   viewBox="0 0 101.93902 118.5348"
   version="1.1"
   id="svg1"
   xml:space="preserve"
   xmlns="http://www.w3.org/2000/svg"
   xmlns:svg="http://www.w3.org/2000/svg"><defs
     id="defs1" /><g
     id="layer1"
     transform="translate(539.33192,-1371.3571)"><path
       style="fill:#000000"
       d="m -498.40016,1489.651 c -0.21685,-0.2328 -0.23306,-0.2336 -0.58851,-0.03 -0.32781,0.1881 -0.38406,0.1912 -0.54511,0.03 -0.0988,-0.099 -0.19174,-0.3264 -0.20659,-0.5058 -0.0274,-0.3317 -0.13751,-0.352 -0.71294,-0.1312 -0.22022,0.084 -0.55525,-0.2471 -0.55525,-0.5496 0,-0.2137 -0.0553,-0.2265 -0.67616,-0.1566 -0.57756,0.065 -0.72135,0.04 -0.98606,-0.1685 -0.36565,-0.2885 -0.51305,-0.9015 -0.33198,-1.3807 0.21033,-0.5566 0.6633,-0.931 1.67851,-1.3875 1.49578,-0.6726 1.97032,-0.912 2.66754,-1.3459 0.80391,-0.5003 2.38197,-1.5552 2.96978,-1.9852 0.24285,-0.1776 0.66618,-0.4807 0.94074,-0.6734 0.97421,-0.6838 2.19534,-1.7174 2.44769,-2.0718 0.2283,-0.3206 0.25378,-0.4952 0.23567,-1.6144 -0.026,-1.6082 -0.27093,-3.0454 -0.89512,-5.2532 -0.44376,-1.5696 -0.69845,-2.8756 -0.99754,-5.1153 -0.13387,-1.0024 -0.29179,-2.1666 -0.35093,-2.587 -0.0591,-0.4204 -0.1658,-1.2141 -0.23702,-1.7639 -0.19418,-1.4988 -0.41906,-2.74 -0.80961,-4.4685 -0.32059,-1.4188 -0.48384,-2.1203 -0.65294,-2.8056 -0.33317,-1.3502 -0.52343,-2.4095 -0.64715,-3.6032 -0.26931,-2.5982 -0.36036,-3.3281 -0.51512,-4.1294 -0.0889,-0.4603 -0.20335,-0.9044 -0.25436,-0.9869 -0.12958,-0.2097 -0.0804,-2.1488 0.0711,-2.8059 0.42608,-1.8477 1.63691,-3.5699 3.26074,-4.638 0.80093,-0.5268 2.2724,-1.2569 2.5331,-1.2569 0.0796,0 0.19493,-0.042 0.25638,-0.093 0.0614,-0.051 0.42921,-0.1899 0.81726,-0.3078 0.38806,-0.118 0.83785,-0.2589 0.99954,-0.3131 0.3458,-0.116 1.51817,-0.3512 2.14607,-0.4306 0.39189,-0.05 0.44097,-0.092 0.44097,-0.3866 0,-0.2923 -0.0583,-0.3447 -0.49977,-0.4496 -0.61042,-0.1449 -1.44066,-0.3661 -2.91042,-0.7752 -0.61442,-0.1711 -1.59338,-0.4382 -2.17546,-0.5936 -1.2554,-0.3351 -2.92175,-0.7983 -3.82176,-1.0623 -0.35572,-0.1043 -0.75259,-0.2175 -0.88194,-0.2516 -0.29423,-0.078 -1.08946,-0.3064 -1.96681,-0.5662 -0.61802,-0.1829 -0.70397,-0.184 -1.047,-0.013 -0.54877,0.2738 -0.7125,0.2419 -0.66877,-0.1301 0.0285,-0.2429 0.12302,-0.3387 0.40589,-0.4114 0.59072,-0.152 1.4683,-0.8122 1.919,-1.4437 0.39502,-0.5534 0.41685,-0.6338 0.41514,-1.5287 -0.002,-0.8576 -0.0362,-0.9989 -0.3758,-1.5351 -0.4356,-0.6879 -0.75015,-0.9816 -1.49944,-1.3999 -0.71646,-0.4 -1.27941,-0.5374 -2.76786,-0.6756 -1.80299,-0.1673 -4.85771,0.092 -6.99676,0.5942 -0.2587,0.061 -0.77464,0.179 -1.14653,0.2628 -0.37188,0.084 -0.67616,0.1913 -0.67616,0.2386 0,0.047 0.25136,0.1184 0.55857,0.1578 1.6626,0.2131 2.72141,0.4685 3.57764,0.863 1.00175,0.4614 1.61638,0.9344 2.02534,1.5585 0.18739,0.2859 0.49166,0.7463 0.67616,1.0231 0.42148,0.6323 0.45182,1.0182 0.0709,0.9014 -0.37776,-0.1158 -0.55857,-0.2851 -0.55857,-0.5231 0,-0.1138 -0.18589,-0.3486 -0.41309,-0.5219 -1.18586,-0.9045 -2.902,-1.2386 -4.93737,-0.961 -2.11153,0.2879 -3.45766,0.7278 -5.46805,1.7871 -1.38232,0.7284 -1.89334,0.8821 -3.64537,1.0964 -0.54975,0.067 -1.26412,0.1734 -1.5875,0.236 -0.32338,0.062 -0.88375,0.1168 -1.24526,0.1207 l -0.6573,0.01 -0.15423,0.8174 c -0.16541,0.8767 -0.10935,2.6527 0.10505,3.3277 0.28454,0.8958 1.08701,3.4907 1.26368,4.0864 0.10551,0.3557 0.23314,0.7526 0.28363,0.8819 0.0505,0.1294 0.2553,0.7908 0.45515,1.4699 0.19985,0.6791 0.4102,1.3935 0.46745,1.5875 0.0572,0.1941 0.19276,0.7232 0.30115,1.176 0.10839,0.4527 0.2437,1.0083 0.3007,1.2347 0.48719,1.9349 0.5494,3.5061 0.22581,5.7032 -0.0887,0.6023 -0.13212,2.4004 -0.12068,4.9977 0.01,2.2313 -0.0356,4.5332 -0.10091,5.1153 -0.0653,0.5821 -0.1791,1.7992 -0.25283,2.7046 -0.16811,2.0645 -0.27351,3.1122 -0.5146,5.1153 -0.10509,0.8731 -0.2372,1.9844 -0.29358,2.4694 -0.23757,2.044 -0.34924,2.4381 -0.80396,2.8374 -0.97728,0.858 -2.44719,1.1649 -4.53694,0.947 -2.91475,-0.3038 -3.78793,-0.1114 -5.17284,1.14 -1.13655,1.0269 -1.87664,1.9867 -0.92658,1.2017 2.09794,-1.7336 3.31147,-2.3657 4.53305,-2.3613 0.59633,0 0.82533,0.1284 0.76905,0.4239 -0.0362,0.1898 -0.18316,0.2295 -1.04051,0.2806 -1.0849,0.065 -1.41032,0.1938 -2.24242,0.889 -0.28551,0.2385 -0.81032,0.6178 -1.16624,0.8427 -0.68109,0.4306 -1.29316,1.0453 -1.29362,1.2993 -7.1e-4,0.3871 0.39079,0.265 0.97583,-0.3046 0.33626,-0.3274 0.87597,-0.7922 1.19935,-1.0329 0.32338,-0.2407 0.61442,-0.4716 0.64676,-0.5131 0.38652,-0.4954 1.62553,-0.9428 2.61644,-0.9447 0.63219,0 0.67615,0.017 0.67615,0.2758 0,0.2618 -0.0528,0.2815 -0.95404,0.3567 -1.07063,0.089 -1.3457,0.202 -2.10336,0.8618 -0.29104,0.2535 -0.78138,0.6323 -1.08963,0.8419 -0.97218,0.661 -1.286,1.1498 -0.95246,1.4833 0.14993,0.1499 0.23279,0.1469 0.66569,-0.024 0.27195,-0.1075 0.57279,-0.3045 0.66854,-0.4379 0.51012,-0.7105 1.85763,-1.9721 2.3895,-2.2371 0.52997,-0.2641 0.74481,-0.2984 1.86922,-0.2984 1.26561,0 1.27043,0 1.27043,0.2846 0,0.3522 -0.27286,0.42 -1.59669,0.397 -1.27212,-0.022 -1.78549,0.2309 -2.86935,1.4146 -0.45409,0.4959 -0.82562,0.948 -0.82562,1.0048 0,0.057 0.2864,0.079 0.63646,0.05 0.54099,-0.045 0.79233,-0.1588 1.67569,-0.7595 1.44383,-0.982 1.84079,-1.1585 2.24554,-0.9986 0.91793,0.3626 2.85826,0.846 3.66616,0.9134 1.24971,0.1042 1.96763,-0.081 2.65394,-0.6853 0.29618,-0.2607 0.6454,-0.6835 0.77603,-0.9396 0.30024,-0.5885 0.64089,-1.9146 0.88296,-3.4371 0.10353,-0.6512 0.23329,-1.4485 0.28836,-1.7719 0.54195,-3.1822 0.61423,-3.57 0.87677,-4.7037 0.10484,-0.4528 0.23706,-1.0348 0.29383,-1.2935 0.0568,-0.2587 0.26644,-1.1054 0.46593,-1.8815 0.72116,-2.8056 1.14741,-5.4192 1.53422,-9.4074 0.0753,-0.7761 0.21388,-1.6493 0.308,-1.9403 0.0979,-0.3026 0.19837,-1.2341 0.23471,-2.1755 0.0801,-2.0732 -0.0784,-4.0937 -0.65479,-8.349 -0.0526,-0.3881 -0.15737,-1.2348 -0.23291,-1.8815 -0.0755,-0.6468 -0.18612,-1.4141 -0.24572,-1.7051 -0.0596,-0.2911 -0.1438,-1.3362 -0.18711,-2.3225 -0.0679,-1.5466 -0.0546,-1.7933 0.0967,-1.7933 0.20967,0 0.32502,0.6892 0.32502,1.942 0,1.4288 0.0318,1.4957 0.86224,1.8118 1.9431,0.7397 3.70245,1.6225 5.95813,2.9899 0.54975,0.3332 1.10537,0.6699 1.23472,0.7483 0.12936,0.078 0.31456,0.1802 0.41158,0.2266 0.097,0.046 0.38583,0.2147 0.64181,0.3743 0.4165,0.2595 1.4539,0.7869 5.88458,2.9914 2.52565,1.2567 2.97623,1.5676 2.68878,1.855 -0.0925,0.092 -0.3209,0.024 -0.82051,-0.2467 -0.92116,-0.4988 -2.26115,-1.1719 -4.74929,-2.3857 -2.22423,-1.085 -3.56351,-1.8144 -3.62577,-1.9745 -0.0216,-0.055 -0.0819,-0.1009 -0.13413,-0.1009 -0.0522,0 -0.88124,-0.4661 -1.84228,-1.0359 -2.45022,-1.4525 -5.60248,-2.9622 -6.18516,-2.9622 -0.18851,0 -0.21885,0.052 -0.15459,0.2646 0.044,0.1455 0.12917,0.7143 0.18935,1.2641 0.0602,0.5497 0.13928,1.1398 0.17577,1.3114 0.0365,0.1715 0.11504,0.7271 0.17455,1.2347 0.0595,0.5076 0.19338,1.5843 0.2975,2.3928 0.28408,2.2057 0.35657,6.338 0.12686,7.2319 -0.19052,0.7414 -0.30389,1.5699 -0.61149,4.4685 -0.10295,0.9702 -0.23287,2.002 -0.28871,2.2931 -0.0558,0.291 -0.13241,0.8202 -0.17017,1.1759 -0.0377,0.3557 -0.11928,0.8849 -0.18117,1.1759 -0.0619,0.2911 -0.19564,0.9261 -0.29724,1.4111 -0.1016,0.4851 -0.23262,1.0672 -0.29116,1.2936 -0.0585,0.2263 -0.26904,1.0995 -0.46777,1.9402 -0.19874,0.8408 -0.41149,1.714 -0.47278,1.9403 -0.10476,0.3869 -0.3398,1.5447 -0.58487,2.881 -0.0593,0.3234 -0.19219,1.2759 -0.29529,2.1167 -0.37431,3.0524 -0.90532,4.6759 -1.85458,5.67 -0.73908,0.774 -2.07272,1.1182 -3.38002,0.8723 -1.09004,-0.2049 -1.30769,-0.2605 -2.67449,-0.6824 -0.74396,-0.2297 -1.42369,-0.3759 -1.55429,-0.3345 -0.12766,0.04 -0.55713,0.313 -0.95438,0.6054 -1.41231,1.0397 -1.97498,1.2232 -2.84467,0.928 -0.34184,-0.1161 -0.71377,-0.1536 -1.05703,-0.1065 -0.44184,0.061 -0.57092,0.031 -0.77886,-0.1767 -0.13708,-0.137 -0.25039,-0.3153 -0.25179,-0.3962 -10e-4,-0.081 -0.17338,-0.2264 -0.38217,-0.3234 -0.35842,-0.1665 -0.38299,-0.2186 -0.43966,-0.9321 -0.035,-0.4408 -0.002,-0.9307 0.0804,-1.1759 0.18431,-0.5516 1.91375,-2.1845 2.81148,-2.6545 0.64342,-0.3368 0.73804,-0.3525 2.096,-0.3465 0.78219,0 2.21592,0.03 3.18605,0.059 1.64077,0.049 1.80198,0.034 2.30952,-0.2091 0.30009,-0.1439 0.67856,-0.4195 0.84103,-0.6126 0.355,-0.4219 0.37801,-0.5493 1.02087,-5.652 0.0611,-0.4851 0.19346,-1.7816 0.29411,-2.8811 0.10065,-1.0995 0.24683,-2.5017 0.32485,-3.1162 0.0928,-0.7307 0.13249,-2.5825 0.1148,-5.3537 -0.0151,-2.3594 0.0269,-4.7042 0.0946,-5.2917 0.0669,-0.5803 0.17006,-1.4699 0.22926,-1.977 0.18102,-1.5505 -0.26445,-4.0199 -1.35042,-7.4859 -0.17224,-0.5497 -0.38243,-1.2377 -0.46709,-1.5287 -0.0847,-0.291 -0.26667,-0.8996 -0.40449,-1.3523 -0.13782,-0.4528 -0.33262,-1.1142 -0.43289,-1.4699 -0.10027,-0.3557 -0.22556,-0.7791 -0.27842,-0.9408 -0.0926,-0.2831 -0.36594,-1.2585 -0.59325,-2.1166 -0.06,-0.2264 -0.12671,-0.5174 -0.14834,-0.6468 -0.0216,-0.1293 -0.099,0.1088 -0.17202,0.5292 -0.14922,0.8595 -0.2815,1.4097 -0.56542,2.3518 -0.1072,0.3557 -0.24114,0.9378 -0.29764,1.2935 -0.29661,1.8675 -0.64734,3.387 -0.83358,3.6114 -0.26957,0.3248 -0.33222,0.1039 -0.33222,-1.1714 0,-1.1826 -0.16718,-2.4217 -0.41645,-3.0867 -0.20634,-0.5505 -0.65509,-1.4955 -0.69096,-1.4551 -0.0214,0.024 0.003,0.335 0.0553,0.6907 0.1231,0.845 0.12322,2.6226 2.3e-4,3.2926 -0.0534,0.2911 -0.18256,0.9525 -0.28695,1.4699 -0.21528,1.067 -0.24777,3.0662 -0.0669,4.1158 0.15447,0.8963 0.15468,3.2244 3.3e-4,3.6304 -0.21933,0.5769 -0.29965,0.3118 -0.30727,-1.014 -0.007,-1.2358 -0.032,-1.3732 -0.37797,-2.0873 -0.20369,-0.4204 -0.52233,-0.9902 -0.70808,-1.2662 l -0.33772,-0.5019 -0.13144,0.7959 c -0.39173,2.3719 -0.40082,2.4884 -0.25967,3.3253 0.0765,0.4535 0.10334,1.0845 0.0596,1.4022 -0.11124,0.8089 0.14979,1.3256 0.83143,1.646 0.28591,0.1344 0.51983,0.3173 0.51983,0.4065 0,0.089 0.11043,0.1909 0.24541,0.2262 0.34492,0.09 0.24327,0.4472 -0.16616,0.5837 -0.56206,0.1872 -1.29628,-0.1003 -1.95454,-0.7655 -0.5308,-0.5365 -1.18212,-1.6461 -1.18212,-2.014 0,-0.084 -0.0397,-0.1932 -0.0882,-0.2416 -0.0485,-0.048 -0.14879,-0.2821 -0.22286,-0.5194 -0.12811,-0.4103 -0.13526,-0.3874 -0.14699,0.471 -0.007,0.4963 -0.0693,1.1843 -0.13888,1.5287 -0.17499,0.8661 -0.48614,2.0136 -0.58432,2.1551 -0.0449,0.065 -0.14671,0.3196 -0.22626,0.5664 -0.0796,0.2469 -0.17906,0.4144 -0.22112,0.3724 -0.0421,-0.042 -0.0807,-0.6145 -0.0859,-1.272 -0.0114,-1.4449 -0.22552,-2.0875 -1.34143,-4.0268 -0.304,-0.5283 -0.58779,-1.0334 -0.63064,-1.1225 -0.0429,-0.089 -0.21079,-0.3736 -0.37317,-0.6323 -0.73486,-1.1708 -1.10639,-2.1574 -1.38823,-3.6865 l -0.13762,-0.7466 -0.21128,0.7122 c -0.2368,0.7981 -0.80215,1.7033 -1.28516,2.0575 -0.31113,0.2282 -0.32748,0.2288 -0.55856,0.02 -0.26242,-0.2375 -0.29535,-0.4304 -0.12616,-0.7392 0.13148,-0.2399 0.3974,-0.8814 0.57207,-1.3801 0.64532,-1.8423 0.6545,-5.7653 0.0217,-9.2898 -0.13206,-0.7356 -0.32409,-2.232 -0.48289,-3.763 -0.4169,-4.0193 -0.56537,-8.5002 -0.3437,-10.3726 0.35132,-2.9675 1.14452,-4.9632 2.51918,-6.338 0.88913,-0.8893 1.61535,-1.3398 2.15963,-1.3398 0.18367,0 0.38421,-0.044 0.44565,-0.098 0.0614,-0.054 0.45567,-0.1894 0.87607,-0.3016 0.42039,-0.1121 0.9231,-0.251 1.11713,-0.3087 0.64986,-0.1932 2.90326,-0.3623 3.74914,-0.2814 0.46033,0.044 1.04292,0.1837 1.29464,0.3105 0.5498,0.2768 1.6002,1.2348 1.6002,1.4594 0,0.088 0.10724,0.2675 0.23832,0.3986 0.22233,0.2224 0.33165,0.2331 1.62993,0.1597 1.30691,-0.074 1.42051,-0.062 1.86624,0.1881 0.51164,0.2876 0.73403,0.6417 0.73403,1.1691 0,0.3524 0.19185,0.4769 1.05833,0.6869 0.26653,0.065 0.46319,0.2062 0.55804,0.4018 0.0806,0.1662 0.30041,0.3659 0.48857,0.4438 0.33659,0.1395 0.47732,0.4047 0.48049,0.9056 9.3e-4,0.147 0.2271,0.4689 0.53657,0.7639 1.02042,0.9725 1.12461,1.6499 0.45094,2.9319 -0.41731,0.7942 -0.94301,1.3533 -2.09103,2.2239 -0.2985,0.2263 -0.65532,0.5033 -0.79294,0.6154 -0.13762,0.1122 -0.42831,0.2683 -0.64598,0.347 -0.21768,0.079 -0.39577,0.1782 -0.39577,0.2211 0,0.043 0.2249,0.2306 0.49977,0.417 0.27487,0.1865 0.52622,0.3657 0.55856,0.3982 0.0323,0.033 0.36053,0.2121 0.72931,0.3991 0.56374,0.2859 0.7229,0.3206 0.99953,0.2179 0.29317,-0.1088 0.79239,-0.2531 2.15172,-0.6219 0.71876,-0.195 2.50767,-0.4644 3.0868,-0.4648 0.30721,-2e-4 0.55857,-0.053 0.55857,-0.1163 0,-0.1524 0.5708,-0.3799 1.5875,-0.6326 0.45273,-0.1125 1.00835,-0.254 1.23472,-0.3145 1.27604,-0.3407 4.2769,-0.6961 5.87963,-0.6963 2.87596,-4e-4 4.666,0.6547 5.65038,2.068 0.98114,1.4086 0.92996,3.092 -0.13686,4.5015 -0.25953,0.3429 -0.4553,0.6355 -0.43506,0.6503 0.0202,0.015 0.35432,0.1203 0.74237,0.2347 1.17206,0.3454 1.38796,0.4105 1.97379,0.5952 0.30947,0.097 0.65784,0.1773 0.77415,0.1773 0.11631,0 0.24875,0.037 0.2943,0.083 0.0456,0.045 0.54386,0.2013 1.10733,0.346 0.56348,0.1448 1.52722,0.404 2.14164,0.576 0.61442,0.172 1.38171,0.3827 1.70509,0.4683 0.32338,0.086 1.09067,0.2886 1.70509,0.4513 0.61442,0.1626 1.23619,0.3315 1.38172,0.3752 0.24619,0.074 0.26453,0.044 0.26392,-0.4338 -8.8e-4,-0.6944 -0.20803,-1.3955 -0.41231,-1.3955 -0.21673,0 -0.40965,-0.3678 -0.41221,-0.786 -0.001,-0.1978 -0.11953,-0.4425 -0.29398,-0.608 -0.3134,-0.2973 -0.37935,-0.7058 -0.15084,-0.9343 0.0958,-0.096 0.0995,-0.1411 0.0115,-0.1411 -0.18971,0 -0.36917,-0.6084 -0.26015,-0.882 0.0516,-0.1293 0.0645,-0.4594 0.0287,-0.7334 -0.0358,-0.274 -0.0339,-0.6222 0.004,-0.7736 0.078,-0.3109 0.51389,-0.5508 1.00065,-0.5508 0.2885,0 0.32189,-0.038 0.28438,-0.3234 -0.0603,-0.4593 1.26446,-1.8416 1.87481,-1.9561 0.67354,-0.1263 1.79562,0.1742 3.4053,0.9121 0.49762,0.2281 1.21199,0.4775 1.5875,0.5543 0.61198,0.1252 0.73759,0.1152 1.21191,-0.096 1.34691,-0.5991 2.27834,-0.9726 2.42584,-0.9726 0.18488,0 0.21037,-0.2618 0.0545,-0.5602 -0.0587,-0.1123 -0.27614,-0.6804 -0.4833,-1.2625 -0.20716,-0.5821 -0.42215,-1.1642 -0.47776,-1.2935 -0.0556,-0.1294 -0.26306,-0.6585 -0.46098,-1.1759 -0.19793,-0.5174 -0.4112,-1.0598 -0.47392,-1.2054 -0.0627,-0.1455 -0.16407,-0.3836 -0.22522,-0.5291 -0.3043,-0.7243 -0.67149,-1.5398 -1.12503,-2.4989 -0.82037,-1.7347 -0.96203,-2.0772 -1.22106,-2.9525 -0.4058,-1.3711 -0.39491,-1.4053 0.78157,-2.4521 1.55554,-1.3842 3.6719,-3.4718 4.74797,-4.6836 0.52894,-0.5957 1.12833,-1.2683 1.33199,-1.4946 1.48848,-1.6545 4.30859,-5.4772 5.75135,-7.796 0.43446,-0.6983 1.27068,-2.2065 1.85825,-3.3514 2.46556,-4.8046 3.12929,-5.6737 5.80273,-7.5981 1.85992,-1.3388 2.05655,-1.5418 2.05655,-2.1235 0,-0.3616 -0.0888,-0.587 -0.36134,-0.9177 -0.19873,-0.2411 -0.43072,-0.4383 -0.51553,-0.4383 -0.24038,0 -0.80775,-0.7281 -2.10763,-2.7047 -0.65929,-1.0024 -1.36937,-2.0608 -1.57798,-2.3518 -0.2086,-0.2911 -0.4553,-0.635 -0.54822,-0.7644 -0.92734,-1.2909 -1.9013,-2.5359 -2.53282,-3.2376 -0.42039,-0.4671 -0.93427,-1.0989 -1.14195,-1.4041 -0.51724,-0.7599 -0.69164,-0.8949 -0.91592,-0.7087 -0.34961,0.2901 -0.21664,1.711 0.31708,3.3883 0.12994,0.4083 0.20437,0.7743 0.16538,0.8133 -0.039,0.039 -0.0709,-0.013 -0.0709,-0.1153 0,-0.1024 -0.0422,-0.2038 -0.0937,-0.2254 -0.14898,-0.062 -0.61081,-1.1252 -0.7496,-1.7253 -0.0697,-0.3015 -0.1504,-0.92 -0.17926,-1.3745 -0.0481,-0.7579 -0.0279,-0.8528 0.24426,-1.1465 0.17106,-0.1846 0.42168,-0.3202 0.59175,-0.3202 0.29136,0 0.77339,0.3974 0.77578,0.6395 10e-4,0.1403 0.81898,1.2556 1.35691,1.8509 1.30197,1.441 2.38127,2.9011 4.59162,6.2115 0.62617,0.9378 1.45723,2.0216 1.84679,2.4086 1.06751,1.0603 1.37567,1.536 1.37567,2.1236 0,0.4247 -0.0777,0.5852 -0.52277,1.0802 -0.28752,0.3198 -0.82992,0.8149 -1.20532,1.1002 -0.37541,0.2853 -0.70902,0.5454 -0.74135,0.5781 -0.0323,0.033 -0.37512,0.2974 -0.76174,0.5883 -1.25156,0.9416 -2.53086,2.3839 -2.53086,2.8533 0,0.2805 0.93854,1.0596 2.29306,1.9037 0.71143,0.4433 1.50518,0.9683 1.76389,1.1665 1.27918,0.9802 2.48295,2.6084 3.45074,4.6674 0.84908,1.8065 1.03133,2.3986 1.42427,4.6272 0.15531,0.8809 0.15918,4.6659 0.006,6.2956 -0.0639,0.6821 -0.22486,2.5101 -0.35763,4.0624 -0.13276,1.5522 -0.31886,3.4572 -0.41356,4.2333 -0.30955,2.5372 -0.34339,4.2098 -0.11292,5.5815 0.11372,0.6768 0.24657,1.3118 0.29522,1.4111 0.0486,0.099 0.17833,0.3922 0.28818,0.6509 0.19015,0.4478 1.0931,1.9335 1.25067,2.0579 0.17852,0.1408 1.98543,2.7129 2.37638,3.3827 1.2646,2.1664 1.72879,3.7756 1.72879,5.993 0,3.6841 -1.39501,7.0102 -3.51678,8.385 -0.32687,0.2118 -0.80856,0.7008 -1.13491,1.152 -0.57921,0.8009 -2.56137,3.2995 -2.95421,3.7238 -0.11974,0.1294 -0.34023,0.394 -0.49,0.588 -0.14976,0.194 -0.43997,0.5389 -0.64491,0.7665 -0.20494,0.2275 -0.68935,0.7831 -1.07647,1.2347 -0.38711,0.4516 -0.7319,0.8475 -0.76618,0.8798 -0.0343,0.032 -0.51098,0.588 -1.05935,1.2348 -0.54836,0.6467 -1.05025,1.2333 -1.1153,1.3035 -0.065,0.07 -0.30348,0.3587 -0.52985,0.641 -0.22637,0.2823 -0.54698,0.6747 -0.71247,0.8719 -1.32221,1.5756 -3.52885,4.7416 -4.34796,6.2382 -0.66744,1.2195 -0.72881,1.2871 -0.85937,0.9469 -0.0921,-0.2401 0.69908,-1.7031 1.84761,-3.4164 0.70027,-1.0445 2.28119,-3.2372 2.41641,-3.3514 0.0383,-0.032 0.22675,-0.2704 0.4188,-0.5291 0.33397,-0.4499 2.73717,-3.3468 2.87782,-3.469 0.0372,-0.032 0.38439,-0.4292 0.77151,-0.8819 0.38712,-0.4528 0.73363,-0.8496 0.77002,-0.882 0.0364,-0.032 0.80147,-0.9319 1.70018,-1.9991 0.89871,-1.0671 1.66282,-1.9667 1.69802,-1.999 0.0352,-0.032 0.30124,-0.3763 0.5912,-0.7644 0.28995,-0.388 0.72638,-0.9471 0.96984,-1.2423 0.24346,-0.2952 0.44265,-0.6454 0.44265,-0.7782 0,-0.1737 0.21973,-0.3698 0.78221,-0.698 1.85177,-1.0807 3.04374,-3.2838 3.52346,-6.5125 0.13074,-0.8799 0.13935,-1.3668 0.0406,-2.2931 -0.12163,-1.1405 -0.18158,-1.4085 -0.56552,-2.5282 -0.53656,-1.5647 -2.70464,-4.9345 -3.72524,-5.7901 -0.70283,-0.5891 -1.46929,-2.3953 -1.64791,-3.8834 -0.0447,-0.3728 -0.11809,-0.7005 -0.163,-0.7282 -0.0449,-0.028 -0.47528,0.3218 -0.95639,0.7767 -1.25206,1.184 -2.62717,2.1426 -4.26764,2.9749 -1.25518,0.6368 -1.65284,0.8187 -2.72193,1.2452 -0.70005,0.2793 -3.58114,1.1782 -4.46852,1.3943 -0.2587,0.063 -0.86724,0.2166 -1.35231,0.3413 -0.48507,0.1247 -1.21268,0.2979 -1.6169,0.3848 -0.6688,0.1438 -0.73496,0.1851 -0.73496,0.4588 0,0.2974 0.25713,1.0868 0.61397,1.885 0.1012,0.2263 0.21544,0.5067 0.25385,0.6229 0.057,0.1727 0.15104,0.198 0.51236,0.1381 0.24338,-0.04 0.5748,-0.1176 0.73649,-0.1718 0.16169,-0.054 0.77023,-0.1844 1.35232,-0.2893 0.58208,-0.105 1.29645,-0.2454 1.5875,-0.3121 0.29104,-0.067 1.07656,-0.1523 1.74561,-0.1904 0.96113,-0.055 1.23737,-0.035 1.31619,0.092 0.17887,0.2894 -0.12096,0.4632 -0.79899,0.4632 -0.35651,0 -0.99826,0.06 -1.42611,0.1323 -1.33179,0.2265 -5.10868,0.9899 -5.77559,1.1674 -0.51719,0.1377 -2.30891,0.3944 -4.8213,0.6908 -1.30601,0.1541 -2.22262,0.3055 -3.76296,0.6218 -2.76065,0.5668 -2.72837,0.5606 -5.05648,0.9682 -4.02667,0.705 -6.05908,1.3276 -7.89572,2.4187 -1.39343,0.8278 -2.33903,1.8811 -2.84874,3.1731 -0.32043,0.8122 -0.38902,2.7033 -0.13927,3.8401 0.36286,1.6516 0.41595,1.9647 0.53525,3.1566 0.30742,3.0713 0.44487,3.8762 1.18472,6.938 0.0625,0.2587 0.19202,0.854 0.28778,1.3229 0.49837,2.4401 0.60869,3.0914 0.94122,5.5562 0.43198,3.202 0.84823,5.5534 1.41558,7.9963 0.40124,1.7278 0.77423,3.2549 0.876,3.5866 0.0595,0.194 0.16456,0.9546 0.23342,1.6901 0.11884,1.2695 0.11226,1.3639 -0.12994,1.8642 -0.14031,0.2899 -0.55201,0.8266 -0.91489,1.1927 -1.192,1.2027 -6.05186,4.57 -7.49863,5.1957 -1.12828,0.4879 -2.27076,1.0883 -2.45199,1.2886 -0.26881,0.297 -0.17785,0.721 0.20005,0.9324 0.4146,0.232 1.08215,0.062 2.07177,-0.5275 0.39414,-0.2348 0.77206,-0.3926 0.83982,-0.3508 0.22691,0.1403 0.12648,0.3968 -0.25898,0.6616 -0.63144,0.4338 -1.1112,1.047 -0.81913,1.047 0.0507,0 0.37964,-0.291 0.73094,-0.6468 0.3513,-0.3557 0.68022,-0.6467 0.73093,-0.6467 0.17674,0 0.0905,0.585 -0.14253,0.9673 -0.2684,0.4402 -0.30974,0.9142 -0.0797,0.9142 0.20075,0 0.618,-0.4557 0.71713,-0.7833 0.0423,-0.1397 0.20526,-0.3381 0.36215,-0.4409 0.2661,-0.1744 0.29343,-0.1717 0.40676,0.04 0.0883,0.1649 0.0801,0.2694 -0.0301,0.3821 -0.23017,0.2357 -0.55352,0.7242 -0.55352,0.8363 0,0.2881 0.57562,-0.05 0.99363,-0.5835 0.26195,-0.3343 0.52919,-0.5934 0.59387,-0.5756 0.0647,0.018 0.10255,0.2702 0.0842,0.5608 -0.0233,0.3681 0.0225,0.5749 0.15077,0.6814 0.15826,0.1313 0.28714,0.046 0.91537,-0.6061 0.70128,-0.728 0.76482,-0.7651 1.55432,-0.908 0.45273,-0.082 0.92898,-0.1924 1.05833,-0.2456 0.12935,-0.053 0.49977,-0.1903 0.82315,-0.3046 0.55325,-0.1955 0.92876,-0.3634 3.50534,-1.5673 0.56974,-0.2662 1.10155,-0.484 1.1818,-0.484 0.0802,0 0.19618,-0.043 0.25763,-0.096 0.0614,-0.053 0.50858,-0.1904 0.99365,-0.3061 0.97696,-0.233 1.86884,-0.5255 2.07425,-0.6803 0.0737,-0.055 0.16016,-0.2379 0.19218,-0.4054 0.097,-0.5073 -0.2751,-2.6927 -0.73772,-4.3332 -0.21833,-0.7742 -0.45262,-1.809 -0.70554,-3.1162 -0.1314,-0.6791 -0.28822,-1.4729 -0.3485,-1.7639 -0.0603,-0.2911 -0.14053,-0.7673 -0.17834,-1.0583 -0.0378,-0.2911 -0.11642,-0.8467 -0.17467,-1.2348 -0.53083,-3.5361 -0.60979,-4.9478 -0.70379,-12.5824 -0.0891,-7.2393 -0.0943,-7.3211 -0.59364,-9.3486 -0.28612,-1.1618 -1.12025,-3.136 -1.47484,-3.4905 -0.35035,-0.3504 -0.65583,-0.9843 -0.58375,-1.2114 0.11302,-0.3561 0.26113,-0.2913 0.67455,0.2953 0.24837,0.3523 0.43442,0.5094 0.55053,0.4649 0.14964,-0.057 0.98723,0.1863 1.8329,0.5334 0.12935,0.053 0.6056,0.184 1.05833,0.291 0.45273,0.1069 1.00836,0.2424 1.23472,0.3011 0.85073,0.2207 3.57762,0.4644 5.19575,0.4644 1.64113,0 4.86457,-0.2499 6.03434,-0.4678 0.32338,-0.06 1.19651,-0.2 1.94028,-0.3107 0.74377,-0.1107 1.40573,-0.2646 1.47102,-0.3419 0.0667,-0.079 0.28045,-0.117 0.48804,-0.087 0.52669,0.077 3.22216,-0.4413 5.68446,-1.0936 4.35899,-1.1548 7.26014,-2.9037 8.66827,-5.2255 0.44529,-0.7342 0.65977,-1.2419 0.98098,-2.3224 0.17067,-0.5741 0.34612,-0.6564 0.34612,-0.1623 0,0.7331 -0.79374,2.6971 -1.36535,3.3783 -0.15744,0.1876 -0.48898,0.5793 -0.73675,0.8703 -0.46722,0.5488 -1.91634,1.6401 -2.83679,2.1363 -1.11752,0.6024 -3.04113,1.3287 -4.7625,1.7982 -1.26956,0.3463 -1.518,0.4078 -2.41065,0.597 -0.48507,0.1028 -1.06715,0.232 -1.29352,0.287 -0.86021,0.2093 -2.18258,0.4761 -2.35254,0.4747 -0.0974,-8e-4 -0.24976,0.1705 -0.3386,0.3807 -1.13534,2.6864 -2.19796,3.9561 -4.11237,4.9136 -0.52674,0.2635 -0.55778,0.3087 -0.87912,1.281 -0.1832,0.5544 -0.40165,1.1667 -0.48544,1.3607 -0.0838,0.194 -0.24317,0.6174 -0.35416,0.9407 -0.11099,0.3234 -0.27619,0.7547 -0.3671,0.9585 -0.0909,0.2038 -0.1653,0.4295 -0.1653,0.5014 0,0.072 -0.0475,0.2227 -0.10552,0.335 -0.058,0.1123 -0.19751,0.4423 -0.30995,0.7334 -0.11244,0.291 -0.27662,0.6959 -0.36485,0.8997 -0.0882,0.2038 -0.16042,0.4028 -0.16042,0.4422 0,0.1121 -0.41598,1.0106 -1.52928,3.303 -1.19336,2.4572 -1.31959,2.7376 -1.58826,3.5278 -0.10996,0.3233 -0.23991,0.6938 -0.28879,0.8231 -0.45668,1.2087 -0.63536,2.5351 -0.55775,4.1404 0.0775,1.6037 0.36165,2.2594 1.19805,2.7646 0.98065,0.5923 0.98936,0.5927 14.81859,0.6317 11.02356,0.031 13.18734,0.065 14.64587,0.2288 1.32563,0.1489 1.96893,0.167 2.8541,0.08 1.09017,-0.1071 2.12783,-0.025 2.33802,0.1854 0.0503,0.05 0.32009,0.5393 0.59957,1.0867 0.27948,0.5474 1.01381,1.8155 1.63185,2.818 2.14882,3.4854 2.80796,5.2454 2.44713,6.5342 -0.0813,0.2904 -0.11807,0.5578 -0.0817,0.5942 0.11179,0.1118 0.54936,-0.077 0.80117,-0.3467 0.49296,-0.5268 0.90167,-1.8073 0.69822,-2.1874 -0.0671,-0.1254 -0.12199,-0.8101 -0.12199,-1.5216 0,-0.7114 -0.0586,-1.4425 -0.13017,-1.6246 -0.17648,-0.4488 -0.20004,-3.41 -0.0307,-3.8588 0.0732,-0.194 0.22615,-0.6703 0.33986,-1.0583 0.11371,-0.3881 0.24889,-0.8114 0.30041,-0.9408 0.0515,-0.1293 0.17915,-0.6585 0.28363,-1.1759 0.10448,-0.5174 0.24012,-1.1664 0.30143,-1.4422 0.1739,-0.7823 0.13833,-1.3789 -0.0943,-1.5821 -0.4263,-0.3724 -1.06949,-0.4786 -2.31052,-0.3816 -3.13552,0.245 -8.74526,0.09 -10.83045,-0.2995 -0.32338,-0.06 -1.06422,-0.1922 -1.6463,-0.2929 -0.58208,-0.1007 -1.24354,-0.2306 -1.46991,-0.2888 -0.22636,-0.058 -0.78199,-0.1953 -1.23472,-0.3048 -0.89916,-0.2174 -1.64879,-0.4337 -2.64583,-0.7633 -0.35572,-0.1176 -0.83197,-0.2659 -1.05834,-0.3296 -0.22636,-0.064 -0.86136,-0.2559 -1.41111,-0.4272 -2.89358,-0.9016 -4.71798,-1.2561 -6.82037,-1.3254 -1.54494,-0.051 -2.14622,0.031 -3.64537,0.498 -0.87433,0.2723 -1.15387,0.2436 -1.02027,-0.1045 0.14938,-0.3893 1.74032,-0.8389 3.37602,-0.954 1.79438,-0.1264 4.22666,0.2311 6.81647,1.0018 1.09945,0.3272 3.15481,0.9235 3.70417,1.0747 0.2587,0.071 0.7085,0.1978 0.99954,0.2813 0.89766,0.2577 2.94819,0.7399 3.99814,0.9403 0.54975,0.1049 1.18475,0.2372 1.41112,0.294 0.6418,0.1609 3.42387,0.4451 5.15855,0.5269 0.86459,0.041 2.76959,0.01 4.23333,-0.07 3.25515,-0.1756 3.86124,-0.1189 4.42594,0.4137 0.39253,0.3702 0.41081,0.4236 0.40933,1.1967 -10e-4,0.7457 -0.11138,1.4006 -0.63934,3.8079 -0.45898,2.0928 -0.47623,2.2938 -0.44681,5.2073 0.023,2.2721 0.0683,3.0073 0.20579,3.3364 0.28645,0.6856 0.22797,1.4418 -0.15863,2.0514 -0.56477,0.8906 -1.6765,1.5883 -2.08893,1.311 -0.0868,-0.058 -0.12639,-0.6427 -0.11759,-1.7343 l 0.0133,-1.6463 -0.4799,-0.9996 c -0.26395,-0.5497 -1.02644,-1.8991 -1.69443,-2.9986 -0.66799,-1.0995 -1.42577,-2.3959 -1.68395,-2.881 -0.25819,-0.4851 -0.52757,-0.9224 -0.59863,-0.9719 -0.0711,-0.05 -1.02878,-0.078 -2.12827,-0.064 -1.09949,0.014 -2.92512,-0.047 -4.05695,-0.1361 -1.52885,-0.1204 -5.17152,-0.1691 -14.1699,-0.1895 -13.24673,-0.03 -12.9748,-0.016 -14.08377,-0.7162 -0.89003,-0.5619 -1.27874,-1.1818 -1.57287,-2.5084 -0.18967,-0.8554 -0.0917,-1.8821 0.33654,-3.5278 0.12624,-0.485 0.30104,-1.1745 0.38845,-1.5321 0.24943,-1.0204 0.54352,-1.853 1.03729,-2.9364 0.0737,-0.1617 0.40088,-0.798 0.72709,-1.4139 0.32621,-0.616 0.66576,-1.3039 0.75455,-1.5287 0.0888,-0.2249 0.2618,-0.6469 0.38447,-0.938 0.12267,-0.291 0.26766,-0.635 0.32221,-0.7643 0.0546,-0.1294 0.18754,-0.4469 0.29552,-0.7056 0.10798,-0.2587 0.24156,-0.5762 0.29684,-0.7055 0.0553,-0.1294 0.19273,-0.4998 0.30546,-0.8232 0.11273,-0.3233 0.24913,-0.6382 0.30312,-0.6996 0.054,-0.062 0.0981,-0.1858 0.0981,-0.2763 0,-0.09 0.0732,-0.3312 0.1626,-0.535 0.0894,-0.2038 0.22966,-0.5558 0.31163,-0.7821 0.082,-0.2264 0.21466,-0.5703 0.2949,-0.7644 0.33682,-0.8145 0.53123,-1.3847 0.48716,-1.4287 -0.0259,-0.026 -0.27946,0.052 -0.56349,0.1725 -0.47735,0.203 -1.08641,0.3992 -2.2803,0.7346 -0.2587,0.073 -1.34349,0.1578 -2.41065,0.1891 -1.89318,0.055 -3.64365,-0.1129 -5.64444,-0.543 -0.29104,-0.063 -0.60854,-0.116 -0.70556,-0.1187 -0.1547,0 -0.17636,0.7865 -0.17616,6.4331 1.5e-4,4.5301 0.044,6.7516 0.14809,7.4963 0.0813,0.5821 0.25461,1.9315 0.38508,2.9986 0.30261,2.4751 0.49165,3.632 0.98958,6.056 0.31328,1.5252 0.41286,1.9556 0.4761,2.0579 0.0346,0.056 0.11143,0.3303 0.17066,0.6095 0.0592,0.2792 0.21705,0.9812 0.35069,1.56 0.32567,1.4104 0.34751,3.5644 0.0372,3.67 -0.11318,0.038 -0.47037,0.1897 -0.79375,0.3361 -0.32338,0.1464 -1.1965,0.4326 -1.94027,0.636 -0.74378,0.2035 -1.4442,0.421 -1.55651,0.4833 -0.11231,0.062 -0.25607,0.1134 -0.31947,0.1134 -0.0634,0 -0.6627,0.2615 -1.33177,0.581 -2.04771,0.9779 -3.39991,1.4696 -4.40638,1.6022 -0.63554,0.084 -0.6946,0.1292 -1.64551,1.2648 -0.1451,0.1732 -0.36999,0.315 -0.49977,0.315 -0.2457,0 -0.6377,-0.3232 -0.73083,-0.6026 -0.0389,-0.1167 -0.17499,-0.055 -0.48916,0.2204 -0.51081,0.4485 -0.5807,0.4599 -0.87609,0.1429 z m -33.70526,-37.3315 c 0.0405,-0.5174 0.013,-1.4699 -0.0611,-2.1167 -0.16192,-1.414 -0.19394,-1.6065 -0.83136,-4.9977 -0.13307,-0.7079 -0.1399,-1.4871 -0.0118,-1.3464 0.0559,0.061 0.19191,0.588 0.30221,1.17 0.19649,1.0371 0.2971,1.463 0.59719,2.5283 0.082,0.291 0.23848,0.8466 0.34776,1.2347 0.10928,0.3881 0.24194,0.8378 0.29481,0.9995 0.0529,0.1617 0.18447,0.6115 0.29245,0.9996 0.28888,1.0381 0.94005,2.3074 1.44376,2.8142 0.42845,0.4311 0.94245,0.7226 1.06249,0.6025 0.0323,-0.032 -0.0737,-0.1091 -0.23553,-0.1707 -0.45214,-0.1719 -0.97794,-0.8946 -1.12994,-1.5531 -0.18584,-0.8051 -0.16588,-1.9505 0.0561,-3.2216 0.25646,-1.4684 0.3309,-3.5936 0.15639,-4.4643 -0.17035,-0.8499 -0.44496,-1.9135 -0.57795,-2.2385 -0.0529,-0.1294 -0.18914,-0.4733 -0.30269,-0.7644 -0.11354,-0.291 -0.27862,-0.6959 -0.36685,-0.8997 -0.26102,-0.6029 -0.15392,-1.0039 0.16017,-0.5996 0.36879,0.4747 1.27821,3.1077 1.45034,4.199 0.11307,0.7169 0.47644,1.6283 0.70696,1.7731 0.0552,0.035 0.2941,0.4315 0.53094,0.8819 0.34526,0.6566 0.41479,0.7374 0.35073,0.4074 -0.20041,-1.0324 -0.20363,-2.8785 -0.006,-3.5866 0.10817,-0.3881 0.25211,-0.9437 0.31987,-1.2347 0.16189,-0.6954 0.15886,-3.8091 -0.004,-4.4097 -0.0703,-0.2587 -0.17555,-0.6556 -0.23396,-0.882 -0.0584,-0.2264 -0.21491,-0.6232 -0.34777,-0.8819 -0.13286,-0.2587 -0.53787,-1.0468 -0.90001,-1.7514 -0.58666,-1.1413 -0.82334,-1.9528 -0.56956,-1.9528 0.0489,0 0.16405,0.172 0.25591,0.3822 0.13745,0.3145 1.27226,2.1928 2.00706,3.3221 0.31993,0.4917 0.82313,1.3805 0.82387,1.4552 4e-4,0.04 0.0752,0.2162 0.1663,0.3907 0.33348,0.6393 0.51146,1.4677 0.70652,3.2888 0.005,0.043 0.0414,0.1114 0.0817,0.1517 0.0403,0.04 0.13273,-0.286 0.20537,-0.7251 0.26849,-1.6231 0.37608,-2.1691 0.5573,-2.8283 0.43342,-1.5765 0.67769,-3.1737 0.59984,-3.9222 -0.1031,-0.9912 -0.30467,-2.175 -0.42158,-2.4757 -0.59225,-1.5234 -0.98608,-2.1939 -1.81883,-3.0963 -0.79636,-0.8631 -0.71886,-1.4111 0.0873,-0.6174 0.90065,0.8867 1.8455,2.4661 2.03139,3.3955 0.0368,0.1838 0.10983,0.3077 0.16237,0.2752 0.0525,-0.033 0.3067,0.025 0.56481,0.1287 0.60726,0.243 1.74737,0.1827 4.01474,-0.2124 1.98246,-0.3455 2.0311,-0.3616 3.78343,-1.2541 3.13205,-1.595 6.52738,-2.1293 8.82816,-1.3891 0.3071,0.099 0.5248,0.1253 0.4838,0.059 -0.11861,-0.1919 -1.44195,-0.7413 -2.27687,-0.9454 -1.79693,-0.439 -2.33512,-0.4983 -4.52732,-0.4983 -2.39941,0 -2.4226,0 -4.88009,0.7643 -2.42172,0.7496 -2.49016,0.7644 -3.53596,0.7644 -0.83943,0 -1.10156,-0.048 -1.56958,-0.2889 -0.53265,-0.274 -1.47965,-1.1997 -1.47965,-1.4464 0,-0.071 -0.28264,-0.085 -0.73495,-0.037 -1.08845,0.1148 -2.34303,-0.1022 -3.18431,-0.5505 -0.72665,-0.3873 -2.23513,-1.771 -2.85176,-2.6158 -0.18883,-0.2587 -0.46239,-0.6021 -0.60791,-0.7631 -0.27512,-0.3044 -0.3505,-0.7574 -0.14699,-0.8832 0.0647,-0.04 0.11759,-0.027 0.11759,0.03 0,0.056 0.093,0.205 0.20666,0.3303 0.11367,0.1254 0.48106,0.5757 0.81643,1.0006 1.92965,2.4449 4.02855,3.3589 6.27735,2.7337 l 0.7117,-0.1979 -0.62528,-0.1583 c -0.60632,-0.1536 -1.76832,-0.687 -2.17449,-0.9982 -0.58332,-0.4469 -2.00388,-1.973 -2.16787,-2.329 -0.10412,-0.226 -0.24999,-0.5431 -0.32415,-0.7048 -0.15968,-0.3482 -0.33695,-1.1772 -0.47776,-2.2343 -0.29518,-2.216 -0.63508,-2.8674 -2.05407,-3.9363 -0.61488,-0.4632 -0.77648,-0.6498 -0.77648,-0.8969 0,-0.1717 0.0661,-0.3626 0.14699,-0.4243 0.35103,-0.2681 1.6281,-0.4457 3.2044,-0.4457 1.50588,0 1.72069,0.027 2.51856,0.3232 0.47974,0.1778 0.89257,0.303 0.91739,0.2782 0.10191,-0.102 -0.88269,-0.7939 -1.31929,-0.9273 -0.26793,-0.082 -1.10299,-0.1415 -1.94027,-0.1387 -1.44219,0 -2.36041,0.1455 -3.88056,0.5946 -0.35572,0.1051 -0.85495,0.2179 -1.1094,0.2507 -0.64356,0.083 -1.52751,0.6427 -2.35985,1.4944 -1.72186,1.7617 -2.40264,4.3903 -2.40758,9.2962 -0.003,3.1073 0.10619,4.4014 0.93374,11.0537 0.0563,0.4527 0.16157,1.2464 0.23388,1.7638 0.16257,1.1632 0.17579,5.1995 0.0197,5.9973 -0.1883,0.9621 -0.34657,1.5205 -0.59563,2.1015 -0.22801,0.532 -0.22837,0.5455 -0.0115,0.4294 0.69749,-0.3733 1.40865,-2.2747 1.42294,-3.8045 0.008,-0.8985 0.1322,-1.6098 0.28578,-1.6419 0.0713,-0.015 0.12061,0.5658 0.12768,1.5044 0.0119,1.5812 0.10509,2.1633 0.60239,3.7629 0.48607,1.5636 0.98114,2.5811 1.98692,4.0838 0.85944,1.284 1.44083,2.5893 1.46949,3.2993 0.0204,0.5049 0.33479,-0.9274 0.40744,-1.8562 z m -2.76981,-17.9329 c 0,-0.8408 0.0451,-1.5287 0.10016,-1.5287 0.13795,0 0.25957,1.7292 0.17303,2.4599 -0.13029,1.1001 -0.27319,0.613 -0.27319,-0.9312 z m -0.0947,-2.1755 c 0.002,-0.194 0.0288,-0.2591 0.0586,-0.1447 0.0298,0.1144 0.0279,0.2732 -0.004,0.3528 -0.0322,0.08 -0.0566,-0.014 -0.0542,-0.2081 z m -0.6016,-2.4792 c 0.006,-0.137 0.0335,-0.1649 0.071,-0.071 0.034,0.085 0.0298,0.1863 -0.009,0.2253 -0.0391,0.039 -0.0669,-0.03 -0.0618,-0.1543 z m -0.17953,-0.5488 c -0.0249,-0.081 -0.1236,-0.3851 -0.21933,-0.6761 -0.0957,-0.2911 -0.23797,-0.7673 -0.31607,-1.0584 -0.0781,-0.291 -0.18875,-0.6492 -0.24589,-0.7961 -0.0571,-0.1468 -0.16712,-0.8734 -0.24439,-1.6148 -0.19259,-1.8475 0.0828,-3.9391 0.51866,-3.9391 0.14485,0 0.10283,0.4998 -0.0992,1.1801 -0.30998,1.0439 -0.1575,2.8986 0.47336,5.7579 0.0928,0.4204 0.20507,0.8834 0.2496,1.0289 0.0445,0.1456 0.0467,0.2646 0.005,0.2646 -0.0419,0 -0.0966,-0.066 -0.12147,-0.147 z m 57.28482,24.5421 c 1.5669,-0.2053 1.89513,-0.2994 3.5632,-1.0213 1.66522,-0.7206 2.92545,-1.5734 3.64537,-2.4667 0.44344,-0.5502 1.52871,-2.4295 1.52871,-2.6472 0,-0.075 -1.07398,0.035 -1.94028,0.1984 -1.20315,0.2272 -2.32103,0.3588 -4.018,0.4728 -0.95922,0.065 -2.03508,0.1482 -2.3908,0.1861 -1.1764,0.1252 -5.24461,-0.3014 -6.99676,-0.7339 -0.86157,-0.2126 -2.39514,-0.7088 -2.67363,-0.865 -0.11231,-0.063 -0.22862,-0.1146 -0.25847,-0.1146 -0.0659,0 0.16857,0.7173 0.2883,0.882 0.173,0.2379 0.68794,2.0297 0.87868,3.0574 0.37922,2.0432 0.44552,2.2876 0.63687,2.3473 0.47444,0.1481 2.6482,0.5308 3.65649,0.6438 0.61443,0.069 1.27588,0.1437 1.46991,0.1663 0.76884,0.09 1.27862,0.069 2.61041,-0.1054 z m -6.66735,-16.9867 c 0.42039,-0.064 1.21414,-0.2004 1.76389,-0.3034 0.54974,-0.103 1.23766,-0.231 1.5287,-0.2845 0.29104,-0.054 0.92604,-0.1766 1.41111,-0.2734 2.32956,-0.4651 3.07565,-0.586 5.52685,-0.8953 1.68817,-0.2131 1.67249,-0.2068 1.58088,-0.6356 -0.0436,-0.2042 -0.11677,-0.4242 -0.16252,-0.4889 -0.0458,-0.065 -0.25979,-0.5829 -0.47563,-1.1517 -0.37183,-0.9798 -0.40844,-1.0309 -0.69698,-0.9724 -0.86989,0.1764 -1.90902,0.2998 -2.5306,0.3006 -0.61068,7e-4 -0.78608,0.058 -1.41112,0.4619 -0.83258,0.5378 -1.90782,0.9142 -3.0656,1.0731 -0.45273,0.062 -1.37877,0.195 -2.05787,0.2951 -0.6791,0.1001 -1.61837,0.2127 -2.08727,0.2502 l -0.85255,0.068 v 0.7648 c 0,0.6781 0.0357,0.7979 0.31451,1.0563 l 0.31451,0.2915 -0.27262,0.2056 c -0.31879,0.2405 -0.22393,0.5013 0.15058,0.414 0.14156,-0.033 0.60133,-0.1122 1.02173,-0.176 z m 12.86677,-2.1881 c 0.22912,-0.088 0.23543,-0.3102 0.0225,-0.7928 -0.38671,-0.8763 -0.54203,-1.4044 -0.54203,-1.8428 0,-0.5119 -0.15248,-0.583 -0.7567,-0.3533 -0.34386,0.1307 -0.37131,0.3038 -0.13505,0.8514 0.0916,0.2124 0.24626,0.5714 0.34364,0.7978 0.0974,0.2263 0.24698,0.6364 0.33243,0.9113 0.15477,0.4979 0.31332,0.5903 0.73523,0.4284 z m -51.46355,-1.9465 c -0.25948,-0.1647 -0.35626,-0.108 -0.28289,0.1658 0.039,0.1455 0.0737,0.3704 0.0771,0.4998 0.004,0.1662 0.0575,0.117 0.18098,-0.1676 0.14007,-0.3228 0.14499,-0.4217 0.0248,-0.498 z m 39.36113,0.6638 c 0.51741,-0.094 1.21289,-0.171 1.54552,-0.1723 0.85733,0 2.34445,-0.3212 3.0732,-0.6571 0.34132,-0.1573 0.67205,-0.286 0.73496,-0.286 0.0629,0 0.11437,-0.1322 0.11437,-0.2939 0,-0.2672 0.0456,-0.2942 0.49977,-0.296 0.72255,0 5.41346,-0.6378 5.61003,-0.7593 0.047,-0.029 0.37162,-0.1045 0.72139,-0.1678 0.56509,-0.1022 1.22477,-0.2557 2.57622,-0.5996 1.3618,-0.3466 1.99366,-0.5333 4.11574,-1.2163 0.72312,-0.2328 1.69904,-0.618 2.44326,-0.9643 0.34132,-0.1589 0.64085,-0.2889 0.66563,-0.2889 0.10762,0 1.8453,-1.0229 2.63644,-1.552 0.91025,-0.6087 1.40439,-1.0309 2.4501,-2.0933 0.73001,-0.7417 0.71359,-0.5866 0.33612,-3.175 -0.10846,-0.7438 -0.24463,-1.6963 -0.3026,-2.1167 -0.29857,-2.1652 -0.58885,-4.2335 -0.88295,-6.2912 -0.18699,-1.3083 -0.46291,-3.3625 -0.63972,-4.7625 -0.1422,-1.1261 -0.34692,-2.3541 -0.47046,-2.8222 -0.0597,-0.2264 -0.19528,-0.782 -0.30121,-1.2348 -0.10593,-0.4527 -0.24101,-0.915 -0.30018,-1.0273 -0.0592,-0.1123 -0.10758,-0.263 -0.10758,-0.335 0,-0.1342 -0.13919,-0.4744 -0.5733,-1.4011 -0.49959,-1.0664 -1.08613,-1.9963 -1.63189,-2.587 -0.33033,-0.3576 -0.45737,-0.7947 -0.28194,-0.9701 0.17187,-0.1719 0.46795,0.1005 1.15325,1.0608 0.93636,1.3122 1.75339,3.3165 2.216,5.4361 0.10586,0.4851 0.23909,1.0936 0.29606,1.3524 0.057,0.2587 0.18763,1.1318 0.29038,1.9402 0.10274,0.8085 0.23496,1.7081 0.29382,1.9991 0.0589,0.291 0.13921,0.8731 0.17856,1.2935 0.0393,0.4204 0.11875,1.029 0.17644,1.3523 0.0577,0.3234 0.18825,1.223 0.29013,1.9991 0.10187,0.7761 0.23472,1.7286 0.29521,2.1167 0.0605,0.388 0.19643,1.3935 0.30208,2.2342 0.10565,0.8408 0.26227,1.7933 0.34805,2.1167 0.14966,0.5642 0.15655,0.5713 0.17057,0.1764 0.0189,-0.5329 0.17929,-2.2975 0.4168,-4.5861 0.10404,-1.0025 0.23493,-2.5371 0.29086,-3.4102 0.0559,-0.8731 0.16229,-2.5135 0.23633,-3.6454 0.17575,-2.6863 0.0448,-4.5673 -0.4299,-6.1736 -0.21587,-0.7305 -0.25091,-0.8156 -0.87102,-2.1167 -1.25879,-2.6409 -2.49777,-4.0843 -4.63639,-5.4012 -1.4634,-0.9012 -2.39779,-1.6208 -2.72018,-2.0949 -0.1208,-0.1777 -0.27663,-0.3232 -0.34628,-0.3234 -0.0697,-2e-4 -0.45476,0.6479 -0.8558,1.4402 -1.20769,2.3859 -1.81058,3.4718 -2.95405,5.321 -0.93361,1.5098 -3.13868,4.6885 -3.56991,5.1462 -0.0754,0.08 -0.29488,0.3571 -0.48771,0.6159 -0.19282,0.2587 -0.76387,0.9598 -1.269,1.5579 l -0.9184,1.0877 0.0627,3.1457 c 0.13058,6.5502 0.37489,14.49 0.44811,14.5633 0.0656,0.066 2.76159,-1.0147 4.7906,-1.9197 1.07001,-0.4772 4.86357,-2.3817 5.10551,-2.5631 0.2218,-0.1664 0.22146,-0.1847 -0.0211,-1.1413 -0.13559,-0.5347 -0.35692,-1.422 -0.49185,-1.9718 -0.13493,-0.5497 -0.29307,-1.1582 -0.35142,-1.3523 -0.0584,-0.194 -0.14124,-0.538 -0.1842,-0.7643 -0.043,-0.2264 -0.12466,-0.5703 -0.18158,-0.7644 -0.0569,-0.194 -0.18866,-0.7232 -0.29276,-1.1759 -0.1041,-0.4527 -0.2351,-1.0084 -0.2911,-1.2347 -0.056,-0.2264 -0.18675,-0.8085 -0.29054,-1.2935 -0.56889,-2.6589 -0.92153,-3.6648 -1.70626,-4.8669 -0.82676,-1.2664 -1.11518,-1.8176 -1.32989,-2.5415 -0.28983,-0.977 -0.45255,-1.9345 -0.36677,-2.1581 0.12539,-0.3267 0.36155,-0.02 0.44317,0.5754 0.0966,0.7047 0.47663,1.5769 1.1251,2.5823 0.60968,0.9452 0.66813,1.045 1.16863,1.9958 0.20333,0.3863 0.36969,0.7939 0.36969,0.9058 0,0.1119 0.0475,0.3251 0.10553,0.4736 0.058,0.1486 0.19254,0.7993 0.29888,1.4461 0.10634,0.6467 0.24111,1.3611 0.29949,1.5875 0.0584,0.2263 0.22278,0.9142 0.36534,1.5287 0.14257,0.6144 0.32682,1.4081 0.40946,1.7639 0.14401,0.6198 0.36914,1.4898 1.0499,4.0569 0.17151,0.6468 0.3496,1.3347 0.39575,1.5287 0.0461,0.194 0.16111,0.3528 0.25547,0.3528 0.28608,0 0.39419,0.2981 0.18424,0.5081 -0.32917,0.3292 -3.60992,2.0483 -5.65712,2.9643 -0.32338,0.1447 -0.86238,0.3884 -1.19779,0.5414 -0.3354,0.1531 -0.6381,0.2783 -0.67267,0.2783 -0.0346,0 -0.36868,0.1353 -0.74249,0.3007 -0.98462,0.4356 -0.9959,0.4403 -2.79631,1.1681 -0.90546,0.3659 -1.87061,0.7673 -2.14478,0.8918 -0.27417,0.1246 -0.53075,0.2264 -0.57019,0.2264 -0.073,0 -0.17033,0.042 -1.66324,0.7103 -1.16437,0.5216 -1.75133,0.4531 -3.61785,-0.422 -1.48885,-0.6981 -2.70746,-0.9156 -3.32806,-0.5941 -0.2993,0.155 -1.03493,0.8793 -1.24902,1.2298 -0.12227,0.2001 0.3469,0.1119 1.47423,-0.2773 0.44039,-0.152 0.84326,-0.2281 0.92848,-0.1755 0.19303,0.1193 0.0664,0.4549 -0.20444,0.5417 -0.11465,0.037 -0.31429,0.1107 -0.44364,0.1644 -0.49454,0.2051 -1.40358,0.469 -1.61575,0.469 -0.12185,0 -0.48284,0.085 -0.8022,0.19 -0.48321,0.158 -0.58066,0.2376 -0.58066,0.474 0,0.3828 0.23843,0.4494 1.03478,0.289 1.17972,-0.2376 1.48821,-0.2243 1.52964,0.066 0.0441,0.3091 -0.0743,0.3519 -1.37088,0.4954 -1.08078,0.1195 -1.32401,0.2447 -1.06997,0.5508 0.12285,0.148 0.27248,0.176 0.6359,0.1187 1.53344,-0.2417 2.00798,-0.2789 2.1416,-0.168 0.37902,0.3145 -0.0418,0.469 -2.12731,0.781 -0.68523,0.1025 -0.78008,0.2543 -0.32634,0.5224 0.29044,0.1715 0.39013,0.1766 0.79488,0.04 0.63571,-0.2146 2.00822,-0.3472 2.09753,-0.2027 0.13585,0.2198 -0.0733,0.489 -0.3832,0.4932 -0.3687,0.01 -1.58241,0.2848 -1.78901,0.4125 -0.26875,0.1661 0.25936,0.4067 0.88332,0.4024 0.32719,0 1.01822,-0.081 1.53563,-0.1741 z m -36.20282,-4.6634 c 0.71432,-0.1317 0.73952,-0.1477 0.55389,-0.3528 -0.10695,-0.1182 -0.24271,-0.2149 -0.30168,-0.2149 -0.12698,0 -0.82916,-0.5031 -1.32624,-0.9502 -0.19403,-0.1746 -0.47493,-0.3542 -0.62422,-0.3992 -0.1931,-0.058 -0.26097,-0.1553 -0.23518,-0.3364 0.0293,-0.2057 0.12637,-0.2607 0.50662,-0.287 0.51765,-0.036 1.53795,-0.5115 1.98405,-0.9252 0.157,-0.1456 0.55003,-0.4275 0.87339,-0.6264 0.67849,-0.4175 1.0936,-0.9195 1.50706,-1.8227 0.40154,-0.877 0.3121,-1.293 -0.42893,-1.9946 -0.31285,-0.2962 -0.60126,-0.6407 -0.64091,-0.7657 -0.0906,-0.2856 -0.59857,-0.3611 -1.03312,-0.1537 -0.28248,0.1349 -0.33504,0.1305 -0.39779,-0.033 -0.0398,-0.1036 -0.0123,-0.2483 0.0609,-0.3216 0.14479,-0.1448 0.17689,-0.6586 0.0601,-0.9629 -0.13238,-0.3449 -0.83518,-0.5442 -1.63162,-0.4626 -0.71288,0.073 -0.73369,0.067 -0.98384,-0.2843 -0.18658,-0.2621 -0.21751,-0.3824 -0.11458,-0.446 0.0837,-0.052 0.20977,0.016 0.31045,0.1681 0.34342,0.5172 0.90612,0.2325 0.68712,-0.3477 -0.1054,-0.2792 -0.0983,-0.3689 0.0357,-0.4517 0.1385,-0.086 0.14079,-0.1352 0.0134,-0.2887 -0.1249,-0.1505 -0.42793,-0.1853 -1.61158,-0.1853 h -1.45775 l 0.0879,0.3233 c 0.0484,0.1779 0.0837,0.4629 0.0786,0.6334 -0.0113,0.3772 -0.46362,1.0423 -0.70879,1.0423 -0.14568,0 -0.13356,-0.072 0.0668,-0.396 0.13463,-0.2179 0.24478,-0.5494 0.24478,-0.7368 0,-0.4642 -0.34871,-1.0788 -0.74699,-1.3166 -0.32305,-0.1929 -0.3343,-0.19 -0.62153,0.1564 -0.24814,0.2992 -0.28333,0.4375 -0.2319,0.9112 0.0333,0.3072 0.14942,0.7457 0.25795,0.9744 0.19848,0.4182 0.17265,0.6154 -0.0616,0.4705 -0.46986,-0.2903 -0.75839,-1.993 -0.44157,-2.6056 l 0.18311,-0.3541 -0.60922,-0.1927 c -1.13661,-0.3596 -1.27532,-0.3584 -3.78422,0.032 -0.51741,0.08 -0.98519,0.1869 -1.03952,0.2366 -0.0543,0.05 0.13391,0.2504 0.4183,0.4461 1.40461,0.9664 1.95927,2.047 2.15448,4.1974 0.23201,2.5558 1.36116,4.2792 3.45875,5.2792 0.93386,0.4452 1.07735,0.4794 2.02148,0.4811 0.82495,0 1.06154,-0.039 1.25671,-0.2156 0.25481,-0.2302 0.49045,-0.1775 0.49045,0.1099 0,0.244 -1.03191,1.1872 -1.5581,1.4241 -0.5261,0.2368 -0.54573,0.3643 -0.1176,0.7636 0.85638,0.7988 1.94258,1.0484 3.39649,0.7805 z m 44.85171,-2.3934 c 0.19082,-0.099 0.34379,-0.2442 0.33993,-0.3234 -0.0288,-0.5907 -0.92419,-4.5073 -1.16208,-5.0828 -0.0535,-0.1294 -0.28254,-0.7908 -0.50906,-1.4699 -0.22652,-0.6791 -0.57628,-1.6846 -0.77724,-2.2343 -0.4522,-1.237 -0.59708,-2.3824 -0.33865,-2.6772 0.0983,-0.1121 0.26104,-0.3667 0.36175,-0.5657 0.1007,-0.1991 0.82146,-1.253 1.60168,-2.342 l 1.41858,-1.9802 v -0.686 c 0,-0.3773 -0.0235,-0.6859 -0.0521,-0.6859 -0.0287,0 -0.33239,0.3042 -0.67492,0.6761 -1.00809,1.0945 -3.25068,3.2754 -4.34839,4.2289 l -1.0185,0.8846 0.17184,0.6035 c 0.31047,1.0906 0.52534,1.5986 1.73284,4.0972 0.42849,0.8866 0.77908,1.6459 0.77908,1.6873 0,0.041 0.0722,0.242 0.16042,0.4458 0.0882,0.2038 0.25416,0.6087 0.36875,0.8997 0.11458,0.291 0.28052,0.6959 0.36875,0.8997 0.0882,0.2038 0.16041,0.4294 0.16041,0.5014 0,0.072 0.0496,0.2227 0.11029,0.335 0.28878,0.5347 0.83045,2.2084 0.83045,2.5661 0,0.4596 0.009,0.4638 0.47621,0.2221 z m 1.36537,-1.9829 c -0.0594,-1.264 -0.14121,-3.827 -0.3679,-11.5289 -0.036,-1.2243 -0.0874,-2.2478 -0.11416,-2.2746 -0.0268,-0.027 -0.12712,0.1018 -0.22302,0.2857 -0.0959,0.1838 -0.57951,0.861 -1.0747,1.5048 -0.49518,0.6439 -1.08934,1.5086 -1.32036,1.9217 -0.39616,0.7084 -0.41628,0.7958 -0.35404,1.5383 0.0363,0.4329 0.12953,0.944 0.20718,1.1357 0.0777,0.1917 0.18472,0.4544 0.23793,0.5838 0.0532,0.1293 0.26287,0.6585 0.4659,1.1759 0.20303,0.5174 0.41829,1.0466 0.47834,1.1759 0.17021,0.3666 0.61576,1.919 0.81004,2.8222 0.0556,0.2588 0.21027,0.9731 0.34361,1.5875 0.13334,0.6145 0.24314,1.2599 0.24399,1.4344 0.001,0.304 0.0169,0.3119 0.36784,0.1896 l 0.36631,-0.1277 z m -44.52769,-5.0627 c 0,-0.2481 -0.21974,-0.3425 -0.41672,-0.179 -0.2556,0.2121 -0.20756,0.3485 0.12274,0.3485 0.17757,0 0.29398,-0.067 0.29398,-0.1695 z m -0.74527,-0.8007 c -0.0326,-0.081 -0.0593,-0.015 -0.0593,0.147 0,0.1617 0.0267,0.2278 0.0593,0.147 0.0326,-0.081 0.0326,-0.2131 0,-0.294 z m 19.26963,11.2046 c -0.39857,-0.4404 -0.18822,-1.1818 0.33426,-1.178 0.35781,0 0.51408,0.1314 0.6066,0.5 0.0977,0.3892 -0.19817,0.9093 -0.51729,0.9093 -0.11784,0 -0.30844,-0.1041 -0.42357,-0.2313 z m 12.71773,-1.7365 c -0.0296,-0.049 -0.13996,-0.5134 -0.24527,-1.0308 -0.1053,-0.5174 -0.24056,-1.1789 -0.30057,-1.4699 -0.06,-0.2911 -0.19485,-0.979 -0.29962,-1.5287 -0.10478,-0.5498 -0.23694,-1.1848 -0.29369,-1.4111 -0.0567,-0.2264 -0.27078,-1.1524 -0.47565,-2.0579 -0.20486,-0.9055 -0.4931,-2.0432 -0.64053,-2.5283 -1.14425,-3.7647 -1.38882,-5.3382 -1.01443,-6.5263 0.52378,-1.6623 1.89832,-3.5088 3.05867,-4.1088 0.20142,-0.1042 0.36623,-0.241 0.36623,-0.304 0,-0.063 0.0574,-0.1146 0.12764,-0.1146 0.41424,0 3.31661,-2.216 5.44772,-4.1595 0.57642,-0.5256 1.10767,-1.0086 1.18054,-1.0733 0.58249,-0.517 2.17494,-2.0263 4.39572,-4.1664 l 2.62616,-2.5308 -0.0556,-0.4732 c -0.0685,-0.583 -0.26766,-1.3466 -0.37895,-1.4526 -0.0456,-0.043 -0.75133,0.6136 -1.56838,1.4599 -1.83214,1.8978 -2.65148,2.5875 -3.42079,2.8799 -0.73118,0.2778 -1.16639,0.2854 -1.70217,0.03 -0.48783,-0.2327 -0.7723,-0.7625 -0.7723,-1.4384 0,-0.2651 -0.0397,-0.4822 -0.0882,-0.4824 -0.0485,-10e-5 -0.3197,-0.1999 -0.60266,-0.4439 -0.39297,-0.3389 -0.51443,-0.5263 -0.51432,-0.7935 9e-5,-0.2 -0.1236,-0.497 -0.28904,-0.6937 -0.19555,-0.2326 -0.27111,-0.4387 -0.23334,-0.6363 0.1383,-0.7234 -0.31125,-1.1952 -1.13895,-1.1952 -0.41614,0 -0.88794,-0.3529 -0.91,-0.6807 -0.0301,-0.4477 0.0588,-0.7007 0.55139,-1.5689 0.28314,-0.499 0.54781,-1.1137 0.58816,-1.366 0.0664,-0.4152 0.0284,-0.5107 -0.3998,-1.0054 -0.26024,-0.3007 -0.50172,-0.6408 -0.53662,-0.7557 -0.16644,-0.5481 -0.42477,-2.7665 -0.42477,-3.6477 0,-0.8692 -0.0347,-1.0322 -0.29168,-1.3691 -0.7362,-0.9652 -0.798,-1.959 -0.20338,-3.2704 0.57236,-1.2624 1.72283,-2.2427 2.93496,-2.5011 0.21011,-0.045 0.44824,-0.1703 0.52916,-0.2789 0.0809,-0.1086 0.70277,-0.6084 1.38186,-1.1105 0.6791,-0.5022 1.28764,-0.9532 1.35232,-1.0023 0.0647,-0.049 0.3028,-0.2013 0.52916,-0.3384 1.71417,-1.0381 2.68124,-1.3309 4.39534,-1.3307 2.71289,2e-4 4.82623,0.7705 5.67735,2.0695 0.14354,0.2191 0.15881,0.3283 0.0597,0.4274 -0.0991,0.099 -0.24633,0.019 -0.57605,-0.314 -1.06639,-1.0765 -3.34482,-1.6869 -5.79339,-1.552 -1.58219,0.087 -2.55032,0.5066 -4.71919,2.0447 -1.29531,0.9186 -2.10118,1.612 -2.10118,1.8079 0,0.048 -0.25136,0.1247 -0.55857,0.1695 -1.08422,0.1581 -1.87696,0.7826 -2.66787,2.1015 -0.34802,0.5804 -0.41893,0.8109 -0.41893,1.3616 0,0.547 0.0648,0.7608 0.37091,1.2229 0.204,0.308 0.44304,0.5876 0.53119,0.6215 0.0881,0.034 0.46364,-0.085 0.83441,-0.2649 0.97346,-0.4713 0.96103,-0.4664 1.73247,-0.6916 1.24088,-0.3623 1.24143,-0.3627 1.14429,-0.7985 -0.17153,-0.7697 -0.0838,-1.717 0.21547,-2.3253 0.1576,-0.3203 0.35468,-0.6094 0.43798,-0.6424 0.24882,-0.098 0.30948,0.2912 0.10043,0.6451 -0.25624,0.4338 -0.35922,1.2361 -0.26028,2.0279 l 0.0798,0.6387 h 0.79227 c 0.96839,0 1.16684,0.097 2.13495,1.0435 0.49043,0.4795 1.10147,0.9208 1.70509,1.2315 1.18943,0.6123 1.41619,0.8269 1.65756,1.5689 0.34371,1.0566 0.87068,1.389 0.87068,0.5493 0,-0.6053 0.16112,-1.0086 0.54514,-1.3645 0.77408,-0.7174 1.9516,-0.067 2.24585,1.2409 0.12048,0.5355 0.11572,0.7551 -0.028,1.2919 -0.0952,0.3557 -0.17378,0.6604 -0.17455,0.6771 -0.005,0.1038 1.52692,0.7416 2.03343,0.8467 0.53346,0.1106 1.64483,0.031 1.77472,-0.1279 0.0196,-0.024 0.18016,-0.3535 0.35669,-0.7322 0.31106,-0.6674 0.32104,-0.7527 0.32319,-2.7634 0.002,-2.0899 -0.0936,-2.8082 -0.57009,-4.2741 -0.28224,-0.8682 -0.12026,-0.9177 0.27929,-0.085 0.56786,1.183 0.77987,2.4698 0.6955,4.2217 -0.11493,2.3863 -0.21242,2.8997 -0.73749,3.8838 -0.94114,1.7639 -2.36951,3.7785 -3.79345,5.3504 -1.54341,1.7039 -7.41585,7.4609 -9.77595,9.5838 -0.61116,0.5498 -1.34945,1.219 -1.64065,1.4871 -0.78153,0.7198 -2.25836,1.9587 -2.71644,2.2789 -0.22003,0.1538 -0.42651,0.3088 -0.45885,0.3444 -0.0323,0.036 -0.34984,0.2578 -0.70555,0.4936 -1.17425,0.7786 -2.75692,2.2669 -3.3115,3.1141 -0.71899,1.0985 -0.89069,1.4736 -1.05366,2.302 -0.16676,0.8476 -0.0136,2.0884 0.43967,3.5619 0.39895,1.2969 0.46315,1.5428 0.87488,3.3514 0.19878,0.8731 0.40756,1.7727 0.46395,1.999 0.14276,0.573 0.71039,3.3002 0.95453,4.5862 0.0675,0.3557 0.17135,0.8686 0.2307,1.1398 0.0593,0.2711 0.10791,0.6252 0.10791,0.7868 0,0.2944 -0.17181,0.508 -0.27273,0.3389 z m 8.58687,-30.9853 c 0.33215,-0.1462 1.66866,-1.2375 2.24876,-1.8363 0.17293,-0.1785 0.62368,-0.7041 1.00166,-1.1681 0.37799,-0.4639 0.88534,-1.0476 1.12744,-1.2971 0.57585,-0.5933 1.08346,-1.339 1.5003,-2.2038 0.33653,-0.6982 0.59771,-1.5492 1.06134,-3.4582 0.0386,-0.1591 0.17192,-0.3972 0.29618,-0.5292 0.35437,-0.3762 0.56036,-0.9793 0.56036,-1.6404 0,-0.4927 -0.0621,-0.6818 -0.32873,-1.0012 -0.27429,-0.3285 -0.40818,-0.3938 -0.80843,-0.3938 -0.60189,0 -0.7062,0.066 -0.92249,0.5837 -0.22433,0.5369 -0.22123,0.8165 0.01,0.9052 0.11075,0.043 0.16957,0.177 0.14699,0.336 -0.033,0.2326 -0.0954,0.2603 -0.50801,0.226 -0.60614,-0.05 -0.95014,-0.2758 -1.05205,-0.6891 -0.0448,-0.1816 -0.19282,-0.5548 -0.329,-0.8294 -0.24646,-0.4969 -0.2982,-0.533 -1.63884,-1.1449 -0.23806,-0.1087 -0.86546,-0.6143 -1.39421,-1.1235 -0.8197,-0.7894 -1.0377,-0.9373 -1.47939,-1.0035 -1.00011,-0.15 -2.95223,0.2326 -4.21948,0.827 -0.19403,0.091 -0.56372,0.2421 -0.82153,0.3358 -0.58286,0.2117 -0.67297,0.5246 -0.58189,2.0204 0.0945,1.5517 0.3467,2.5246 0.54108,2.0873 0.0216,-0.049 0.25195,-0.2265 0.51198,-0.3954 1.06103,-0.6894 2.9962,-0.9386 2.9962,-0.3858 0,0.1245 -0.19833,0.1638 -0.82573,0.1638 -0.80463,0 -1.4778,0.2274 -2.53957,0.8579 l -0.24909,0.1479 0.3135,0.3755 c 0.28289,0.3389 0.35889,0.3686 0.77826,0.3042 0.64229,-0.099 0.98457,-0.3234 1.46429,-0.9616 0.36796,-0.4895 0.41558,-0.5193 0.44939,-0.2811 0.079,0.5568 -1.15941,1.6739 -1.85581,1.6739 -0.19897,0 -0.23987,0.075 -0.23987,0.4428 0,0.2435 -0.10597,0.6272 -0.23549,0.8525 -0.12951,0.2254 -0.43095,0.791 -0.66987,1.2569 -0.42546,0.8297 -0.42991,0.8521 -0.21666,1.0877 0.11975,0.1324 0.34368,0.2406 0.49762,0.2406 0.23855,0 0.26223,-0.033 0.16032,-0.2234 -0.22087,-0.4127 0.3757,-0.4385 0.84405,-0.036 0.16834,0.1445 0.23552,0.1483 0.38812,0.022 0.28377,-0.2355 0.16848,-0.7334 -0.21182,-0.9149 -0.3396,-0.162 -0.33423,-0.3782 0.009,-0.3717 0.29283,0.01 0.54216,0.2401 0.72081,0.6783 0.18628,0.4569 0.0199,0.9027 -0.37542,1.0061 -0.17704,0.046 -0.21242,0.1148 -0.14181,0.2745 0.0517,0.117 0.11664,0.435 0.14423,0.7066 0.0446,0.439 0.10364,0.5217 0.53159,0.7448 0.27374,0.1426 0.69964,0.2509 0.98728,0.2509 0.27823,0 0.53561,0.048 0.57197,0.107 0.0364,0.059 -0.19611,0.3691 -0.51661,0.6896 l -0.58272,0.5828 0.35236,0.2717 c 0.28463,0.2195 0.3643,0.3845 0.41449,0.8586 0.0889,0.84 0.37707,1.1161 1.16505,1.1161 0.3414,0 0.76874,-0.065 0.94964,-0.1448 z m 8.27024,-5.1507 c 1.26926,-1.451 2.93811,-3.7111 2.93509,-3.975 -4.9e-4,-0.043 -0.35767,-0.084 -0.79375,-0.092 -0.58702,-0.01 -0.96643,-0.094 -1.46147,-0.3234 -0.36775,-0.1702 -0.72565,-0.3094 -0.79535,-0.3094 -0.0697,0 -0.224,-0.061 -0.3429,-0.135 -0.17621,-0.1101 -0.26287,-0.088 -0.46877,0.1176 -0.13893,0.1389 -0.2526,0.3612 -0.2526,0.4939 0,0.2969 -0.3311,1.8472 -0.4633,2.1693 -0.0531,0.1294 -0.19323,0.4733 -0.31145,0.7644 -0.11821,0.291 -0.42362,0.8651 -0.67867,1.2756 l -0.46373,0.7465 0.19422,0.6162 c 0.10682,0.3389 0.19554,0.8232 0.19716,1.0762 l 0.003,0.46 0.96721,-1.0033 c 0.53196,-0.5518 1.31288,-1.3985 1.73538,-1.8815 z m -10.82234,2.235 c 0,-0.1543 -0.67177,-0.1468 -0.76784,0.01 -0.0419,0.068 -0.046,0.2019 -0.009,0.2981 0.059,0.1538 0.1099,0.1527 0.42199,-0.01 0.19519,-0.1009 0.3549,-0.2351 0.3549,-0.2981 z m 12.93518,-15.3745 c -0.29104,-0.367 -0.91281,-1.0386 -1.38171,-1.4923 -0.4689,-0.4537 -0.85255,-0.8719 -0.85255,-0.9293 0,-0.2107 0.74804,0.054 1.30211,0.4606 0.67376,0.4945 1.19713,1.1268 1.51791,1.8337 0.46697,1.0291 0.17895,1.0917 -0.58576,0.1273 z"
       id="path68" /></g></svg>
