<?xml version="1.0" encoding="UTF-8" standalone="no"?>
<!-- Created with Inkscape (http://www.inkscape.org/) -->

<svg
   width="134.97833mm"
   height="98.883942mm"
   viewBox="0 0 134.97835 98.883941"
   version="1.1"
   id="svg1"
   xml:space="preserve"
   xmlns="http://www.w3.org/2000/svg"
   xmlns:svg="http://www.w3.org/2000/svg"><defs
     id="defs1" /><g
     id="layer1"
     transform="translate(-306.49281,-974.50563)"><path
       style="fill:#4d4d4d"
       d="m 307.22777,1073.3197 c -0.22269,-0.096 -0.26459,-0.2051 -0.26459,-0.6884 0,-0.4768 0.0595,-0.6366 0.35032,-0.9409 0.58728,-0.6145 1.29347,-0.9139 3.50244,-1.4845 0.66381,-0.1715 1.72214,-0.4972 2.35185,-0.7238 1.18749,-0.4274 3.34982,-1.4403 3.41839,-1.6013 0.0215,-0.051 0.10418,-0.092 0.18361,-0.092 0.0794,0 0.247,-0.095 0.37238,-0.2107 0.12537,-0.1159 0.49254,-0.3912 0.81592,-0.6118 0.32338,-0.2205 1.30249,-1.1179 2.1758,-1.9941 1.81166,-1.8177 1.86036,-1.859 2.61482,-2.2133 0.40557,-0.1906 0.77544,-0.2618 1.35869,-0.2618 0.97942,0 1.46305,0.2697 2.73218,1.5238 1.48593,1.4684 1.25717,1.3874 3.64212,1.2887 1.64938,-0.068 2.2913,-0.1465 3.2338,-0.3938 1.11527,-0.2926 2.26916,-0.6559 2.85162,-0.8977 0.14552,-0.061 0.38364,-0.1557 0.52916,-0.2118 0.14552,-0.056 0.39688,-0.1567 0.55857,-0.2237 0.16169,-0.067 0.61148,-0.238 0.99954,-0.38 0.38805,-0.1419 0.83784,-0.3129 0.99953,-0.3799 0.41842,-0.1735 0.70549,-0.2817 1.17593,-0.4432 0.22636,-0.078 0.51741,-0.182 0.64676,-0.2316 1.17396,-0.4508 3.7785,-1.1058 5.40926,-1.3605 1.48721,-0.2322 4.67522,-0.3446 5.79143,-0.204 0.4689,0.059 0.85255,0.072 0.85255,0.028 0,-0.044 -0.2782,-0.3383 -0.61822,-0.6549 -1.38052,-1.2854 -3.47373,-3.2121 -4.02069,-3.7009 -0.32008,-0.2861 -0.79633,-0.7213 -1.05833,-0.9671 -0.56764,-0.5327 -0.29985,-0.5567 -3.47498,0.3114 -0.35572,0.097 -1.0701,0.2918 -1.5875,0.4323 -1.13037,0.3071 -7.18989,1.839 -7.9375,2.0067 -0.29105,0.065 -0.74084,0.172 -0.99954,0.237 -0.2587,0.065 -0.69527,0.1683 -0.97014,0.2295 -0.27487,0.061 -0.73789,0.164 -1.02893,0.2287 -0.29105,0.065 -0.7673,0.1705 -1.05834,0.2352 -0.29104,0.065 -0.76729,0.1705 -1.05833,0.2352 -0.29104,0.065 -0.76729,0.1705 -1.05833,0.2352 -0.80155,0.1781 -1.58193,0.3405 -2.23426,0.4649 -0.32338,0.062 -0.85255,0.1652 -1.17593,0.23 -3.57755,0.7171 -9.30311,1.557 -12.87639,1.8888 -0.74377,0.069 -1.85502,0.178 -2.46944,0.242 -0.61442,0.064 -1.43728,0.1158 -1.82857,0.1152 -0.39129,-6e-4 -0.76587,0.053 -0.8324,0.1199 -0.22312,0.2231 -0.74922,-0.3181 -0.74922,-0.7708 0,-0.8542 0.49617,-1.3178 1.73775,-1.6237 0.81963,-0.2019 1.82795,-0.6555 2.57557,-1.1587 0.27036,-0.1819 0.54817,-0.3308 0.61736,-0.3308 0.0692,0 0.1258,-0.047 0.1258,-0.1033 0,-0.057 0.15875,-0.1691 0.35278,-0.2494 0.19403,-0.08 0.35278,-0.1842 0.35278,-0.2306 0,-0.047 0.12817,-0.1429 0.28481,-0.2142 0.15665,-0.071 0.38155,-0.209 0.49977,-0.3058 0.11823,-0.097 0.63829,-0.4888 1.1557,-0.871 1.33713,-0.9877 2.37566,-2.0284 2.7539,-2.7596 0.0918,-0.1774 0.21083,-0.3226 0.26458,-0.3226 0.0537,0 0.0977,-0.056 0.0977,-0.124 0,-0.1886 0.93956,-1.5316 1.28387,-1.8352 0.43312,-0.382 1.00182,-0.5448 1.70037,-0.4869 0.78078,0.065 1.51742,0.4382 2.42409,1.229 0.39947,0.3483 0.87797,0.7118 1.06333,0.8077 0.38582,0.1995 1.72859,0.2347 2.28064,0.06 0.68927,-0.2184 2.01294,-0.6879 3.04318,-1.0795 l 1.03577,-0.3936 -0.0706,-0.4116 c -0.13071,-0.7625 -0.23775,-4.2846 -0.15724,-5.1741 0.0439,-0.4851 0.0836,-1.6184 0.0882,-2.5184 0.005,-0.9001 0.0468,-1.5981 0.0938,-1.5511 0.047,0.047 0.0745,1.339 0.0611,2.8712 -0.0248,2.8381 0.10157,5.4204 0.31193,6.3724 0.0643,0.291 0.15105,0.6879 0.19276,0.8819 0.18805,0.8747 1.09512,2.0579 1.57768,2.0579 0.11077,0 0.24058,0.04 0.28846,0.088 0.0479,0.048 0.44035,0.1411 0.87215,0.2058 1.02219,0.1531 3.09748,-0.078 4.60685,-0.5124 0.22636,-0.065 0.54386,-0.1529 0.70555,-0.195 0.16169,-0.042 0.39982,-0.1191 0.52917,-0.171 0.12935,-0.052 0.47331,-0.1628 0.76435,-0.2465 0.29104,-0.084 0.58208,-0.1861 0.64676,-0.2274 0.0647,-0.041 0.35572,-0.1476 0.64676,-0.2359 1.59648,-0.4847 5.56588,-2.4036 6.83852,-3.3058 0.17168,-0.1217 0.37011,-0.2213 0.44097,-0.2213 0.0709,0 0.12884,-0.049 0.12884,-0.1097 0,-0.06 0.10552,-0.1431 0.23449,-0.1841 0.12897,-0.041 0.30095,-0.1396 0.38218,-0.2193 0.0812,-0.08 0.39907,-0.3169 0.70632,-0.5271 l 0.55864,-0.3823 -0.19512,-0.3765 c -0.24342,-0.4697 -0.37234,-0.9709 -0.52027,-2.0228 -0.40738,-2.8967 -0.41732,-2.937 -0.99927,-4.0569 -0.15124,-0.291 -0.75612,-1.4949 -1.34416,-2.6752 -0.58805,-1.1804 -1.13745,-2.1461 -1.22089,-2.1461 -0.15271,0 -1.37542,1.2392 -3.52954,3.5772 -1.24705,1.3535 -2.06225,2.033 -3.11474,2.5964 -0.61672,0.3301 -0.66426,0.3868 -0.74058,0.882 -0.0772,0.5011 -0.22607,1.2184 -0.39221,1.8899 -0.21952,0.8874 -0.95739,2.8635 -1.08434,2.904 -0.2493,0.08 -0.16877,-0.4695 0.24836,-1.6935 0.21744,-0.6381 0.46174,-1.3983 0.54288,-1.6893 0.0812,-0.2911 0.19428,-0.6826 0.25142,-0.8701 0.0571,-0.1875 0.10692,-0.6109 0.11065,-0.9408 0.004,-0.3299 0.0434,-0.8058 0.0882,-1.0576 0.0745,-0.4191 0.023,-1.0732 -0.32505,-4.1283 -0.28694,-2.5184 -0.53493,-7.8145 -0.5286,-11.2889 0.006,-3.4583 0.13571,-4.1906 1.15342,-6.5264 0.0705,-0.1617 0.33414,-0.6044 0.58597,-0.9839 0.48922,-0.7371 0.47628,-0.6237 0.23994,-2.1029 -0.0441,-0.2759 -0.13469,-0.4409 -0.24204,-0.4409 -0.51757,0 -6.1767,-2.486 -7.505,-3.2969 -0.32338,-0.1974 -0.68057,-0.3892 -0.79375,-0.4262 -0.11318,-0.037 -0.20579,-0.1141 -0.20579,-0.1712 0,-0.057 -0.0694,-0.1039 -0.15421,-0.1039 -0.0848,0 -0.26782,-0.1058 -0.40666,-0.2352 -0.13884,-0.1293 -0.28617,-0.2352 -0.3274,-0.2352 -0.0412,0 -0.21542,-0.1 -0.38709,-0.2213 -0.68367,-0.4846 -2.87666,-1.6668 -3.38443,-1.8244 -0.21064,-0.065 -0.28945,0.01 -0.49977,0.4536 -0.47659,1.0139 -0.2965,1.4802 0.92623,2.3982 0.82347,0.6182 1.63175,1.4606 2.30672,2.4042 0.37938,0.5304 0.78286,1.0669 0.89662,1.1922 0.11377,0.1254 0.20685,0.293 0.20685,0.3724 0,0.079 0.044,0.1621 0.0977,0.1836 0.15923,0.064 1.48192,2.1014 1.82941,2.818 0.17659,0.3642 0.39669,0.9463 0.48911,1.2936 0.18968,0.7126 0.22193,2.7371 0.0551,3.4592 -0.0605,0.2618 -0.19704,0.9497 -0.30346,1.5287 -0.10642,0.579 -0.23851,1.2908 -0.29354,1.5819 -0.77578,4.1026 -1.16707,6.7997 -1.40752,9.7013 -0.25302,3.0535 -0.41343,4.3623 -0.48278,3.9394 -0.0812,-0.4952 -0.0476,-1.4552 0.13587,-3.8806 0.34034,-4.4993 0.7738,-7.6291 1.53089,-11.0537 0.39746,-1.7978 0.49526,-2.6885 0.43258,-3.9393 -0.0581,-1.1588 -0.10832,-1.3625 -0.59476,-2.4107 -0.23676,-0.5102 -1.09537,-1.8784 -1.2545,-1.999 -0.0426,-0.032 -0.41254,-0.5615 -0.82201,-1.176 -1.16172,-1.7432 -1.68928,-2.3837 -2.4275,-2.947 -1.62553,-1.2406 -2.18218,-2.0514 -2.18218,-3.1789 0,-0.4167 0.0689,-0.7783 0.17795,-0.934 0.17616,-0.2515 0.70507,-0.5836 0.92942,-0.5836 0.39258,0 2.99223,1.4105 4.58354,2.4868 0.36834,0.2492 0.72553,0.453 0.79375,0.453 0.0682,0 0.12446,0.04 0.12496,0.088 5.1e-4,0.048 0.11957,0.1475 0.26459,0.2199 0.14501,0.072 0.76637,0.3913 1.38079,0.7087 0.61442,0.3173 1.40817,0.7011 1.76389,0.8529 1.93747,0.8267 4.27567,1.7757 4.37523,1.7757 0.11902,0 0.0962,-0.3774 -0.1603,-2.6458 -0.39305,-3.4767 0.042,-7.5658 1.07594,-10.113 0.0525,-0.1293 0.21696,-0.5527 0.36545,-0.9407 0.59679,-1.5596 1.71349,-3.41465 2.92184,-4.85378 0.39141,-0.46617 0.71166,-0.90839 0.71166,-0.98272 0,-0.0743 0.24051,-0.36889 0.53447,-0.65459 1.19877,-1.1651 1.97058,-2.48026 2.42271,-4.12829 0.22012,-0.80232 0.23106,-0.9774 0.10404,-1.66502 -0.098,-0.53066 -0.125,-1.7326 -0.0872,-3.88462 0.0511,-2.9051 0.11023,-3.56495 0.44267,-4.93889 0.0704,-0.29104 0.15652,-0.70163 0.19133,-0.91243 0.0348,-0.2108 0.11036,-0.41236 0.16789,-0.44791 0.0575,-0.0356 0.1046,-0.16808 0.1046,-0.29449 0,-0.12641 0.0467,-0.32173 0.10387,-0.43403 0.0571,-0.11231 0.16936,-0.36294 0.2494,-0.55697 0.7383,-1.78985 1.8174,-3.03537 2.93418,-3.3867 0.78228,-0.24609 1.57075,-0.43506 1.81531,-0.43506 0.1485,0 0.57792,-0.10159 0.95427,-0.22575 0.72412,-0.23889 1.40695,-0.21705 3.87955,0.12407 1.64643,0.22715 2.33589,0.4417 3.1162,0.96973 0.625,0.42293 0.90301,0.69156 1.29221,1.24862 0.37693,0.5395 0.4491,0.60461 0.97796,0.88222 0.81064,0.42554 1.53866,1.05341 1.90065,1.63919 0.32609,0.52768 0.35603,0.6629 0.35109,1.58537 -0.004,0.72623 -0.0765,1.20597 -0.25933,1.71405 -0.21286,0.5914 -0.24565,0.88771 -0.20268,1.83144 0.063,1.38456 -0.0356,1.74932 -0.65509,2.42134 -0.48376,0.52482 -0.48567,0.53054 -0.40636,1.21392 0.0791,0.68176 0.29424,1.45176 0.44874,1.60626 0.0443,0.0443 0.0806,0.31396 0.0806,0.5992 0,0.7316 -0.47294,1.20608 -1.20216,1.20608 -0.62869,0 -0.79692,0.1517 -0.79692,0.71862 0,0.32922 -0.0794,0.50575 -0.32338,0.71877 -0.17786,0.1553 -0.38078,0.3849 -0.45095,0.51022 -0.0702,0.12532 -0.29103,0.27735 -0.49082,0.33785 -0.35107,0.1063 -0.61633,0.47107 -0.61633,0.84752 0,0.30267 -0.44093,0.8244 -0.868,1.02706 -0.74352,0.35282 -1.66061,0.18111 -2.71857,-0.50901 -0.25871,-0.16876 -0.61171,-0.37806 -0.78446,-0.46512 -0.17274,-0.0871 -0.55907,-0.38972 -0.8585,-0.67257 -0.29942,-0.28284 -0.58856,-0.51427 -0.64253,-0.51427 -0.14603,0 -0.42309,0.46695 -0.59307,0.99954 -0.0826,0.2587 -0.19584,0.59095 -0.2517,0.73833 -0.0714,0.18845 -0.0353,0.41525 0.12171,0.76435 0.2862,0.63628 1.09079,2.74184 1.4254,3.73019 1.07758,3.18288 1.39851,4.84148 2.22991,11.52408 0.0684,0.5497 0.17406,1.3964 0.23482,1.8815 0.46661,3.7251 0.40422,7.0218 -0.22365,11.818 -0.0677,0.5174 -0.15717,1.214 -0.19874,1.548 l -0.0756,0.6072 0.92533,-0.056 c 0.8695,-0.053 2.55,0.1378 3.60091,0.4086 0.69668,0.1796 2.3179,1.0383 3.21059,1.7005 0.79764,0.5918 2.4951,2.2009 2.94358,2.7904 0.12368,0.1626 0.38363,0.4181 0.57765,0.5678 0.19403,0.1497 0.69674,0.5992 1.11713,0.9989 1.56425,1.4873 3.58303,3.1524 5.85688,4.8307 1.29874,0.9585 3.18926,1.9501 3.71815,1.9501 0.20532,0 0.42358,0.048 0.48502,0.106 0.30982,0.294 7.90157,0.3955 10.51866,0.1406 2.32789,-0.2268 6.38248,-0.2984 7.17315,-0.1267 1.90869,0.4144 3.15388,1.1629 3.88375,2.3346 l 0.32035,0.5143 0.37346,-0.7007 c 0.41054,-0.7703 1.28741,-1.7545 1.86945,-2.0983 0.20535,-0.1213 0.37336,-0.262 0.37336,-0.3128 0,-0.051 0.058,-0.092 0.12883,-0.092 0.0709,0 0.2693,-0.097 0.44098,-0.2147 0.17167,-0.118 0.49734,-0.2821 0.7237,-0.3646 0.22637,-0.082 0.51741,-0.1927 0.64676,-0.2448 0.75682,-0.3052 1.53315,-0.4079 2.99861,-0.397 1.453,0.011 1.68215,0.043 2.70463,0.3852 1.27586,0.4263 1.39947,0.4746 2.09839,0.8192 0.28098,0.1385 0.58525,0.2519 0.67615,0.2519 0.0909,0 0.16528,0.053 0.16528,0.1176 0,0.065 0.0661,0.1179 0.14699,0.1183 0.0808,4e-4 1.00847,0.4237 2.06138,0.9407 1.05292,0.517 1.94314,0.94 1.97828,0.94 0.0351,0 0.68178,0.2982 1.43699,0.6626 1.13198,0.5462 1.50219,0.7942 2.10807,1.4121 0.4507,0.4597 0.73496,0.6755 0.73496,0.558 0,-0.1629 0.10078,-0.1809 0.67615,-0.1207 0.37189,0.039 0.99366,0.1265 1.38172,0.1946 0.38805,0.068 1.02305,0.1775 1.41111,0.2433 1.18536,0.2011 4.01746,0.2655 4.62963,0.1054 0.75792,-0.1983 1.32618,-0.3669 1.60277,-0.4757 0.23047,-0.091 0.40013,-0.1307 1.46991,-0.3477 1.53454,-0.3113 2.37179,-0.2401 3.29259,0.28 0.22637,0.1279 0.62324,0.335 0.88195,0.4602 0.87032,0.4214 2.17546,2.0359 2.17546,2.6912 0,0.1275 0.0531,0.331 0.11791,0.4521 0.0789,0.1475 0.0788,0.2445 -3.2e-4,0.2934 -0.0786,0.049 -0.0764,0.1512 0.006,0.3061 0.0686,0.1282 0.10842,0.4293 0.0885,0.669 -0.0453,0.5459 -0.33925,0.6194 -0.99163,0.2478 -0.25063,-0.1427 -0.66735,-0.3639 -0.92605,-0.4913 -0.2587,-0.1275 -0.56226,-0.2781 -0.67456,-0.3347 -0.29649,-0.1494 -0.94837,-0.1261 -1.36416,0.049 -0.3404,0.1432 -0.34784,0.1597 -0.13269,0.294 0.12537,0.078 0.33137,0.1424 0.45778,0.1424 0.12641,0 0.26568,0.058 0.30948,0.1288 0.0499,0.081 0.26517,0.1011 0.57582,0.054 0.2729,-0.041 0.63422,-0.022 0.80292,0.042 0.67171,0.2554 0.46451,1.5875 -0.2959,1.9025 -0.77202,0.3197 -2.01169,0.1019 -3.64346,-0.6404 -2.08941,-0.9505 -3.11105,-1.1838 -4.17519,-0.9534 -0.24525,0.053 -0.22879,0.09 0.26851,0.6094 0.66595,0.6951 0.87469,1.1113 0.87469,1.7443 0,0.7142 0.38466,1.3704 0.94573,1.6135 0.45856,0.1986 0.81816,0.6887 0.81816,1.115 0,0.1204 0.1042,0.3307 0.23155,0.4674 0.51254,0.5501 0.7083,1.0196 0.70875,1.6997 2.4e-4,0.3681 0.0534,0.702 0.11803,0.7419 0.26866,0.1661 0.11854,0.8385 -0.29505,1.3217 -1.14096,1.333 -3.49686,1.9238 -5.52871,1.3866 l -0.82608,-0.2185 -1.34939,0.5065 c -0.74216,0.2786 -1.5875,0.6109 -1.87855,0.7385 -0.29104,0.1276 -0.70114,0.3052 -0.91134,0.3947 -0.35958,0.1531 -0.55658,0.2374 -1.64629,0.7045 -0.41899,0.1796 -0.89056,0.3923 -2.29306,1.0343 -0.33955,0.1554 -0.93486,0.4257 -1.32292,0.6007 -2.00834,0.9053 -3.00683,1.3559 -3.64537,1.6449 -0.38805,0.1757 -0.89076,0.3985 -1.11713,0.4951 -0.37708,0.1609 -0.5432,0.2303 -1.23472,0.5153 -1.30318,0.537 -3.36117,1.095 -4.7037,1.2751 -0.38806,0.052 -0.89038,0.1545 -1.11627,0.2275 -0.22589,0.073 -0.59631,0.1002 -0.82315,0.06 -0.40033,-0.07 -1.88144,-0.709 -1.99993,-0.8623 -0.0323,-0.042 -0.24401,-0.205 -0.47037,-0.3627 -0.79173,-0.5516 -2.12032,-2.0247 -3.12493,-3.4649 -0.3158,-0.4528 -0.64147,-0.8931 -0.7237,-0.9786 -0.0822,-0.085 -0.14952,-0.2007 -0.14952,-0.2562 0,-0.055 -0.0679,-0.1707 -0.15086,-0.2561 -0.083,-0.085 -0.28066,-0.3406 -0.4393,-0.567 -0.15864,-0.2264 -0.35207,-0.491 -0.42984,-0.588 -0.0778,-0.097 -0.39508,-0.4939 -0.70514,-0.8819 -0.31005,-0.3881 -0.70324,-0.8643 -0.87375,-1.0583 -0.1705,-0.1941 -0.63694,-0.7365 -1.03653,-1.2054 -0.42763,-0.5018 -0.81803,-0.8525 -0.94896,-0.8525 -0.23203,0 -1.3901,0.5962 -1.79932,0.9264 -0.13003,0.1049 -0.77095,0.6577 -1.42427,1.2285 -2.24394,1.9604 -3.41562,2.6018 -5.51964,3.0213 -0.90769,0.181 -1.98734,0.01 -3.10596,-0.5019 -0.9141,-0.4155 -2.05218,-2.0452 -2.31991,-3.322 -0.0407,-0.194 -0.12489,-0.5909 -0.18712,-0.8819 -0.0622,-0.2911 -0.14564,-0.7541 -0.18536,-1.029 l -0.0722,-0.4998 h -1.30763 c -1.75746,0 -4.54925,-0.3929 -5.83493,-0.8148 -0.16169,-0.053 -0.53211,-0.1647 -0.82315,-0.2481 -0.29104,-0.083 -0.57944,-0.1954 -0.64088,-0.2488 -0.0614,-0.053 -0.18108,-0.097 -0.26587,-0.097 -0.25184,0 -2.41225,-1.0083 -3.44418,-1.6075 -0.93807,-0.5446 -1.323,-0.7581 -2.99861,-1.6627 -0.90546,-0.4889 -1.85796,-1.0137 -2.11667,-1.1663 -0.2587,-0.1526 -0.56297,-0.3078 -0.67615,-0.3448 -0.11319,-0.037 -0.20579,-0.1141 -0.20579,-0.1713 0,-0.057 -0.0566,-0.1038 -0.1258,-0.1038 -0.0692,0 -0.35654,-0.1588 -0.63855,-0.3528 -0.28201,-0.1941 -0.55938,-0.3528 -0.61638,-0.3528 -0.057,0 -0.22294,-0.1112 -0.36876,-0.247 -0.51466,-0.4795 -0.36339,-0.1294 0.34063,0.7883 0.39183,0.5107 0.82943,1.0825 0.97244,1.2706 0.14302,0.1881 0.31474,0.3998 0.3816,0.4704 0.46708,0.4932 3.51199,4.7281 3.56182,4.9538 0.0209,0.095 0.0871,0.1722 0.14699,0.1722 0.0599,0 0.10897,0.079 0.10897,0.1764 0,0.097 0.0529,0.1764 0.1176,0.1764 0.0647,0 0.11759,0.057 0.11759,0.1258 0,0.069 0.14714,0.347 0.32697,0.6174 0.17984,0.2703 0.40465,0.6503 0.49958,0.8443 0.0949,0.194 0.20214,0.3792 0.23823,0.4116 0.12455,0.1116 1.02869,2.0594 1.21642,2.6205 0.10353,0.3095 0.18824,0.709 0.18824,0.8879 0,0.1788 0.0575,0.3826 0.12784,0.4529 0.0921,0.092 0.0921,0.15 0,0.2069 -0.0712,0.044 -0.12784,0 -0.12784,-0.1043 0,-0.1009 -0.0529,-0.1834 -0.11759,-0.1834 -0.0647,0 -0.11759,-0.1065 -0.11759,-0.2367 0,-0.1303 -0.0477,-0.3287 -0.10603,-0.441 -0.0583,-0.1123 -0.49329,-0.998 -0.9666,-1.9681 -0.47331,-0.9701 -0.88862,-1.7903 -0.9229,-1.8227 -0.0343,-0.032 -0.19039,-0.2969 -0.34689,-0.5879 -0.32451,-0.6035 -1.99589,-3.2036 -2.11654,-3.2926 -0.0438,-0.032 -0.20688,-0.244 -0.36234,-0.4704 -0.15546,-0.2264 -0.31196,-0.438 -0.34778,-0.4704 -0.0358,-0.032 -0.20955,-0.2526 -0.38606,-0.4896 -0.17651,-0.2369 -0.38788,-0.5015 -0.4697,-0.5879 -0.0818,-0.086 -0.29349,-0.3511 -0.47037,-0.588 -0.17688,-0.2369 -0.39159,-0.5015 -0.47713,-0.588 -0.0855,-0.086 -0.8774,-1.0662 -1.75971,-2.1773 -0.8823,-1.1111 -1.84499,-2.2715 -2.13931,-2.5787 l -0.53512,-0.5585 -0.004,0.6972 c -0.004,0.8037 -0.16302,1.0775 -0.68509,1.1819 -0.28774,0.058 -0.36951,0.1347 -0.36951,0.3486 0,0.3999 -0.4576,0.7872 -0.82315,0.6965 -0.64294,-0.1593 -0.7629,-0.1311 -0.79996,0.1882 -0.048,0.4134 -0.50541,0.661 -0.89418,0.4839 -0.26501,-0.1208 -0.29806,-0.097 -0.47042,0.3334 -0.16306,0.4075 -0.23183,0.4633 -0.57112,0.4633 -0.53375,0 -1.13372,-0.5255 -1.60105,-1.4023 -0.20942,-0.3929 -0.40568,-0.7143 -0.43613,-0.7143 -0.0304,0 -0.6875,0.4235 -1.46012,0.9411 -1.5117,1.0128 -1.79258,1.1824 -3.23322,1.9524 -0.51741,0.2765 -0.94074,0.557 -0.94074,0.6233 0,0.066 0.37042,0.4471 0.82315,0.8463 3.8678,3.4107 5.56267,4.9641 8.24942,7.5607 1.44233,1.394 1.84651,1.9521 1.41367,1.9521 -0.0857,0 -0.28328,-0.1356 -0.43897,-0.3013 -0.15569,-0.1658 -0.44273,-0.3996 -0.63786,-0.5197 -0.54617,-0.3362 -2.48903,-0.5136 -4.81921,-0.44 -2.39661,0.076 -3.9611,0.332 -6.94205,1.1373 -0.47565,0.1285 -2.16972,0.694 -2.49884,0.8342 -0.14552,0.062 -0.39688,0.1655 -0.55857,0.2302 -0.16169,0.065 -0.41304,0.1657 -0.55856,0.2245 -2.50776,1.013 -4.78026,1.7762 -6.20301,2.0833 -1.03488,0.2233 -4.20028,0.3127 -4.82602,0.1362 -0.16429,-0.046 -0.86358,-0.6416 -1.55399,-1.3229 -0.74153,-0.7317 -1.3504,-1.2387 -1.48765,-1.2387 -0.12779,0 -0.26506,-0.053 -0.30503,-0.1176 -0.04,-0.065 -0.41039,-0.1176 -0.82315,-0.1176 -0.41276,0 -0.78317,0.053 -0.82314,0.1176 -0.04,0.065 -0.15263,0.1176 -0.25034,0.1176 -0.31525,0 -1.16615,0.6718 -2.11571,1.6703 -1.2709,1.3364 -2.02745,2.0682 -2.51395,2.4319 -0.22631,0.1691 -0.5141,0.4002 -0.63954,0.5133 -0.12543,0.1132 -0.29304,0.2058 -0.37247,0.2058 -0.0794,0 -0.16205,0.04 -0.18361,0.088 -0.0551,0.1239 -0.57441,0.4171 -1.81522,1.0248 -0.98127,0.4806 -2.97364,1.2005 -5.04435,1.8227 -0.45273,0.1361 -0.92898,0.2918 -1.05833,0.3461 -0.70685,0.2965 -1.44221,0.6848 -1.67539,0.8846 -0.27968,0.2396 -0.37769,0.6216 -0.1179,0.4595 0.0808,-0.051 1.54928,-0.132 3.2632,-0.1813 6.59695,-0.1894 11.11993,-0.4901 13.69953,-0.9108 0.38806,-0.063 1.07597,-0.1738 1.52871,-0.2456 0.45273,-0.072 1.11419,-0.1776 1.4699,-0.2351 2.51359,-0.4068 3.76561,-0.5657 5.52685,-0.7014 2.64029,-0.2034 7.96903,-0.5723 10.11297,-0.7001 1.1965,-0.071 3.02213,-0.1925 4.05694,-0.2693 2.5924,-0.1923 12.339,-0.1818 13.85811,0.015 1.45123,0.188 4.29614,0.1964 5.0743,0.015 1.10212,-0.257 1.46501,-0.4769 1.93185,-1.1706 0.24179,-0.3593 0.51427,-0.8252 0.60551,-1.0354 0.0912,-0.2102 0.20588,-0.3822 0.25477,-0.3822 0.0489,0 0.0889,-0.1058 0.0889,-0.2352 0,-0.1293 0.0529,-0.2352 0.11759,-0.2352 0.17419,0 0.14475,0.2222 -0.12266,0.9258 -0.43413,1.1422 -0.96007,2.0323 -1.3366,2.262 -1.08811,0.6638 -2.8671,0.7718 -7.71296,0.4682 -3.16198,-0.198 -8.24154,-0.2083 -11.40648,-0.023 -4.867,0.2849 -8.24161,0.4898 -9.93658,0.6033 -0.97014,0.065 -2.21368,0.1459 -2.76342,0.1798 -0.95558,0.059 -1.57869,0.1166 -4.35093,0.4027 -1.57257,0.1622 -2.46418,0.2885 -5.05648,0.716 -3.41729,0.5636 -4.83838,0.718 -8.52546,0.9265 -1.85931,0.1051 -3.1449,0.1597 -7.05556,0.2995 -0.84079,0.03 -1.92558,0.082 -2.41065,0.1164 -0.48507,0.034 -1.001,0.01 -1.14652,-0.053 z m 100.34175,-4.9321 c 0.0614,-0.059 0.3763,-0.1347 0.69968,-0.1687 0.32338,-0.034 0.879,-0.1205 1.23472,-0.1921 0.35572,-0.072 0.81923,-0.1604 1.03003,-0.1971 0.21079,-0.037 0.41235,-0.114 0.44791,-0.1715 0.0356,-0.058 0.19069,-0.1046 0.34475,-0.1046 0.15405,0 0.3128,-0.053 0.35277,-0.1176 0.04,-0.065 0.16575,-0.1176 0.2795,-0.1176 0.36928,0 3.26882,-1.2277 7.51101,-3.1802 0.27488,-0.1265 0.7379,-0.3358 1.02894,-0.4652 1.1383,-0.5059 1.55759,-0.6955 2.31504,-1.0466 0.43249,-0.2005 0.81457,-0.3645 0.84906,-0.3645 0.0345,0 0.34211,-0.1277 0.68357,-0.2838 0.68762,-0.3143 4.33825,-1.7586 4.78448,-1.8929 0.2199,-0.066 0.32994,-0.023 0.49313,0.1932 0.20265,0.2686 0.26525,0.2783 1.77479,0.2758 1.36581,0 1.63781,-0.036 2.1395,-0.2651 1.00839,-0.4607 1.29347,-0.9848 1.17702,-2.1642 -0.0983,-0.9956 -0.14482,-1.1246 -0.53816,-1.4922 -0.268,-0.2504 -0.39096,-0.4901 -0.44,-0.8575 -0.0625,-0.4685 -0.11361,-0.5322 -0.62933,-0.7848 -0.39726,-0.1946 -0.60888,-0.3889 -0.72422,-0.6649 -0.26595,-0.6365 -0.83059,-0.6494 -1.47794,-0.034 -0.37905,0.3605 -1.46159,1.0932 -2.64815,1.7923 -0.51613,0.3041 -1.04425,0.6469 -1.17361,0.7617 -0.13867,0.1232 -0.76597,0.3135 -1.5287,0.464 -1.88573,0.372 -3.9554,0.8701 -4.50345,1.0839 -0.14856,0.058 -0.39679,0.1053 -0.55162,0.1053 -0.15483,0 -0.31422,0.053 -0.35419,0.1176 -0.04,0.065 -0.22518,0.1176 -0.41157,0.1176 -0.1864,0 -0.3716,0.053 -0.41158,0.1176 -0.04,0.065 -0.20256,0.1176 -0.36131,0.1176 -0.15875,0 -0.38052,0.048 -0.49283,0.1061 -0.1123,0.058 -0.44232,0.1703 -0.73336,0.2486 -0.29104,0.078 -0.635,0.1831 -0.76435,0.2327 -0.12935,0.05 -0.63206,0.2105 -1.11713,0.3577 -0.48507,0.1471 -1.27882,0.3967 -1.76389,0.5547 -5.45695,1.7768 -6.35294,1.9569 -6.72401,1.3511 -0.21901,-0.3576 -2.1336,-3.0765 -2.29732,-3.2625 -0.0569,-0.065 -0.33541,-0.4615 -0.61882,-0.8819 -0.28341,-0.4204 -0.55865,-0.782 -0.61164,-0.8036 -0.053,-0.022 -0.0964,-0.1097 -0.0964,-0.1959 0,-0.086 -0.0433,-0.1745 -0.0963,-0.196 -0.053,-0.022 -0.32512,-0.3782 -0.60473,-0.7924 -0.2796,-0.4143 -0.57877,-0.8376 -0.6648,-0.9408 -0.086,-0.1031 -0.7154,-0.9813 -1.3986,-1.9514 -0.68319,-0.9701 -1.31208,-1.8483 -1.39754,-1.9514 -0.0854,-0.1032 -0.38384,-0.5265 -0.66308,-0.9408 -0.27924,-0.4142 -0.54163,-0.7796 -0.58309,-0.812 -0.18886,-0.1473 -0.82421,-1.178 -0.82421,-1.3371 0,-0.5481 0.39939,-0.1829 1.4699,1.344 0.25871,0.369 0.74674,1.0608 1.08453,1.5373 0.33778,0.4766 1.06167,1.5015 1.60864,2.2776 0.54697,0.7761 1.04047,1.464 1.09666,1.5287 0.0562,0.065 0.33204,0.4565 0.61298,0.8708 0.28095,0.4142 0.57983,0.8376 0.66418,0.9407 0.0843,0.1032 0.48963,0.6638 0.90064,1.2459 2.12253,3.006 2.84466,4.0049 2.94339,4.0713 0.14584,0.098 0.48897,0.01 2.96584,-0.7779 1.16416,-0.3694 2.27541,-0.7128 2.46944,-0.763 0.19403,-0.05 0.75898,-0.2301 1.25546,-0.3996 0.49647,-0.1694 0.98283,-0.3081 1.08079,-0.3081 0.29053,0 0.33329,-0.2013 0.1897,-0.893 -0.0747,-0.3599 -0.10604,-0.6842 -0.0696,-0.7206 0.1298,-0.1298 0.42469,0.2363 0.42469,0.5273 0,0.1628 0.0926,0.3663 0.20579,0.4522 0.24268,0.1842 0.92468,0.2148 1.02893,0.046 0.04,-0.065 0.20256,-0.1176 0.36131,-0.1176 0.15876,0 0.38053,-0.048 0.49283,-0.1061 0.11231,-0.058 0.44232,-0.1703 0.73336,-0.2488 0.29104,-0.079 0.66146,-0.1849 0.82315,-0.2364 0.16169,-0.052 0.5416,-0.1617 0.84425,-0.2448 0.648,-0.1779 0.65071,-0.1663 -0.31418,-1.3435 -0.35861,-0.4375 -0.68252,-0.933 -0.7198,-1.1012 -0.15288,-0.6896 -0.44901,-1.3223 -0.82406,-1.7604 -0.6494,-0.7587 -0.43718,-1.1536 0.29076,-0.5411 0.33923,0.2855 0.55409,0.7444 0.82583,1.764 0.0694,0.2606 0.368,0.757 0.66343,1.1031 0.57917,0.6785 0.88007,1.1835 0.88007,1.4769 0,0.1801 0.2866,0.1728 0.82314,-0.021 0.097,-0.035 0.3616,-0.1047 0.58797,-0.1548 1.23471,-0.273 1.68642,-0.3693 2.68434,-0.5728 0.68196,-0.139 1.19347,-0.312 1.35231,-0.4574 0.14051,-0.1286 0.4936,-0.3529 0.78464,-0.4984 0.29105,-0.1455 0.75037,-0.4161 1.02073,-0.6012 0.27035,-0.1852 0.54817,-0.3367 0.61736,-0.3367 0.0692,0 0.1258,-0.053 0.1258,-0.1176 0,-0.065 0.075,-0.1176 0.16659,-0.1176 0.0916,0 0.18423,-0.042 0.20579,-0.093 0.0216,-0.051 0.38239,-0.3684 0.80185,-0.7056 0.56979,-0.4579 0.85972,-0.6129 1.14652,-0.6129 0.32238,0 0.38388,-0.043 0.38388,-0.271 0,-0.6411 -1.26143,-2.0438 -2.70463,-3.0076 -0.86749,-0.5793 -1.24202,-0.7421 -2.51062,-1.0913 -0.33851,-0.093 -0.8051,-0.3573 -1.14786,-0.6499 -0.31764,-0.2711 -0.7386,-0.6077 -0.93548,-0.7479 -0.23779,-0.1693 -0.34591,-0.3363 -0.32205,-0.4976 0.0579,-0.3915 0.23376,-0.3519 0.91353,0.2057 0.35267,0.2893 0.88157,0.6417 1.17533,0.7831 0.29375,0.1414 0.62598,0.3017 0.73829,0.3561 0.1123,0.054 0.285,0.099 0.38377,0.099 0.0988,0 0.27147,0.048 0.38377,0.1077 0.11231,0.059 0.40051,0.193 0.64046,0.2973 0.44306,0.1925 1.49536,0.9399 1.64458,1.1681 0.0571,0.087 0.20155,0.082 0.47872,-0.018 0.47678,-0.1724 2.62895,-0.1928 2.7321,-0.026 0.04,0.065 0.17397,0.1176 0.29776,0.1176 0.1238,0 0.45141,0.1318 0.72802,0.2929 1.6712,0.9732 3.10672,1.4536 3.89943,1.3049 0.37466,-0.07 0.42525,-0.1211 0.42525,-0.4272 0,-0.308 -0.0403,-0.3475 -0.35406,-0.3475 -0.19473,0 -0.57838,-0.098 -0.85254,-0.2185 -0.98204,-0.4305 -1.16167,-0.487 -1.54796,-0.487 -0.43496,0 -0.69809,-0.2306 -0.63112,-0.5529 0.0294,-0.1414 0.13353,-0.2016 0.31429,-0.1816 0.24228,0.027 0.76171,-0.1488 1.33531,-0.4513 0.39769,-0.2098 1.58127,-0.125 2.05589,0.1473 0.79902,0.4584 1.49044,0.7961 1.53622,0.7503 0.0527,-0.053 -0.46324,-0.6722 -0.99345,-1.193 -0.44909,-0.4412 -1.07271,-0.5549 -2.42448,-0.4422 -0.92416,0.077 -0.92837,0.076 -0.88865,-0.197 0.0496,-0.3412 0.44609,-0.4679 1.56861,-0.5011 0.95066,-0.028 1.76015,0.2288 2.15637,0.6845 0.13985,0.1609 0.25428,0.3223 0.25428,0.3588 0,0.036 0.0794,0.1456 0.17638,0.2427 0.30811,0.3081 0.19541,-0.064 -0.18814,-0.6219 -0.58997,-0.8575 -0.93012,-1.0112 -2.06304,-0.9322 -0.81514,0.057 -0.96857,0.038 -1.03096,-0.1242 -0.1097,-0.2859 0.14648,-0.514 0.57721,-0.514 0.56778,0 1.12251,-0.1319 1.04979,-0.2495 -0.0351,-0.057 -0.40632,-0.1033 -0.82493,-0.1033 -0.79786,0 -1.05036,-0.1717 -0.76248,-0.5186 0.34503,-0.4157 -2.58762,-0.2877 -3.69541,0.1613 -0.12935,0.052 -0.47331,0.1604 -0.76435,0.24 -0.29104,0.08 -0.66146,0.1886 -0.82315,0.2424 -0.16169,0.054 -0.70255,0.1606 -1.20191,0.2372 -0.90868,0.1394 -2.15883,0.058 -3.82517,-0.2486 -0.33955,-0.062 -0.92163,-0.1688 -1.29352,-0.2361 -0.37189,-0.067 -0.90181,-0.1731 -1.17761,-0.2352 -0.82535,-0.1856 -0.87186,-0.1679 -0.78431,0.2988 0.11019,0.5874 -0.2058,0.5363 -0.52593,-0.085 -0.17134,-0.3325 -0.72455,-0.9511 -1.14625,-1.2815 -0.32865,-0.2576 -1.41552,-0.8434 -1.92215,-1.0361 -0.22637,-0.086 -1.54928,-0.7104 -2.93981,-1.3875 -2.84701,-1.3864 -3.29657,-1.5943 -3.88056,-1.7952 -0.22637,-0.078 -0.51741,-0.1831 -0.64676,-0.2339 -0.75817,-0.2976 -2.40209,-0.5901 -3.29967,-0.5872 -0.85285,0 -2.60785,0.313 -3.28551,0.5806 -0.42087,0.1662 -1.40959,0.647 -1.46991,0.7147 -0.0323,0.036 -0.24401,0.1933 -0.47037,0.3488 -1.0679,0.7336 -1.99742,2.2254 -2.04508,3.2821 -0.0213,0.4715 -0.28534,0.422 -0.37486,-0.07 -0.19579,-1.0765 -1.03631,-2.177 -2.03901,-2.6697 -1.63732,-0.8045 -3.67853,-0.9371 -8.41744,-0.547 -2.77399,0.2283 -6.02632,0.3269 -7.78895,0.2359 -0.98545,-0.051 -1.90049,-0.064 -2.03344,-0.029 -0.26557,0.069 -1.40205,-0.1342 -2.23085,-0.3997 -0.80671,-0.2585 -1.73052,-0.7274 -2.70463,-1.3728 -0.95776,-0.6346 -3.71275,-2.7068 -3.99815,-3.0072 -0.097,-0.1022 -0.43404,-0.3927 -0.74895,-0.6456 -0.31491,-0.2529 -0.68609,-0.5702 -0.82485,-0.7051 -0.13875,-0.1348 -0.46318,-0.4221 -0.72095,-0.6382 -0.25777,-0.2162 -1.39472,-1.3072 -2.52655,-2.4244 -2.59508,-2.5617 -3.82263,-3.4041 -5.93781,-4.075 -0.70624,-0.2241 -1.08864,-0.2611 -2.70463,-0.2623 -2.75115,0 -4.81436,0.4652 -6.96491,1.5767 -0.85349,0.4412 -1.15595,0.5486 -1.22747,0.4359 -0.16832,-0.2652 -0.11144,0.2389 0.2551,2.2611 0.0762,0.4204 0.18656,1.0422 0.24525,1.3817 0.0587,0.3395 0.15961,0.9084 0.22429,1.2641 0.0647,0.3557 0.16682,0.9246 0.22698,1.2641 0.19047,1.075 0.31805,1.5378 0.63769,2.3134 0.17119,0.4153 0.31126,0.8784 0.31126,1.0289 0,0.1505 0.0529,0.2737 0.11759,0.2737 0.0647,0 0.11759,0.057 0.11759,0.1258 0,0.4137 2.92819,3.5946 3.20921,3.4862 0.19748,-0.076 1.92625,-1.3841 2.47956,-1.8759 0.67166,-0.5969 1.22125,-0.8703 1.39679,-0.6948 0.16764,0.1677 0.0184,0.4627 -0.33184,0.6559 -0.12503,0.069 -0.51837,0.3672 -0.87409,0.6626 -0.35572,0.2955 -1.05629,0.8438 -1.55683,1.2187 -0.50054,0.3748 -0.8912,0.7151 -0.86814,0.7563 0.0469,0.084 0.32227,0.725 0.52696,1.227 0.0738,0.1809 0.13748,0.4455 0.14157,0.588 0.007,0.2573 0.008,0.2572 0.11727,-0.015 0.10903,-0.272 0.11426,-0.2701 0.7275,0.2641 0.33973,0.296 0.82368,0.7459 1.07545,0.9997 0.25177,0.2538 0.83385,0.7165 1.29352,1.0283 0.45966,0.3118 0.85339,0.607 0.87495,0.6561 0.0216,0.049 0.0928,0.089 0.15824,0.089 0.0655,0 0.2595,0.1 0.43117,0.2215 0.17168,0.1217 0.51057,0.3334 0.75311,0.4703 0.24253,0.1369 0.61695,0.3487 0.83204,0.4706 0.21508,0.1219 0.88977,0.4871 1.4993,0.8116 1.09259,0.5815 1.54756,0.8377 3.51889,1.9815 1.34144,0.7783 2.66405,1.4064 3.58657,1.7032 0.25871,0.083 0.52065,0.1935 0.58209,0.245 0.0614,0.051 0.20768,0.094 0.32497,0.094 0.1173,0 0.30515,0.05 0.41746,0.1121 0.24963,0.1371 1.54372,0.4523 2.73243,0.6655 0.98623,0.1769 2.47062,0.2945 4.05694,0.3215 l 1.05834,0.018 0.0728,0.7055 c 0.28392,2.7499 1.13768,4.433 2.57298,5.0726 1.13962,0.5079 1.41111,0.5242 1.41111,0.085 0,-0.3678 0.29164,-0.6214 0.72069,-0.6266 0.23293,0 0.3444,0.082 0.4523,0.3419 0.0788,0.1902 0.1085,0.4018 0.0661,0.4704 -0.10276,0.1663 0.60542,0.1634 1.12459,0 1.27872,-0.4138 2.21456,-1.0002 3.94119,-2.4695 1.74635,-1.4861 1.93427,-1.6274 2.80734,-2.1111 l 0.7541,-0.4178 -0.29974,-0.3466 c -0.16485,-0.1906 -0.46654,-0.5497 -0.67043,-0.7981 -0.20388,-0.2483 -0.4693,-0.5658 -0.58982,-0.7055 -0.12051,-0.1397 -0.35834,-0.4393 -0.52849,-0.6656 -0.17016,-0.2264 -0.33953,-0.4381 -0.37637,-0.4704 -0.25973,-0.2279 -1.64321,-2.3759 -1.66771,-2.5893 -0.0593,-0.5166 0.23088,-0.3476 0.75525,0.4399 0.47393,0.7118 2.25564,3.058 2.43601,3.2077 0.0389,0.032 0.36046,0.4028 0.71448,0.8232 0.35403,0.4204 0.67229,0.7908 0.70726,0.8231 0.035,0.032 0.38031,0.4287 0.76743,0.8808 0.38712,0.452 0.76753,0.8899 0.84536,0.973 0.0778,0.083 0.34242,0.4006 0.58797,0.7056 0.24555,0.3049 0.54406,0.6608 0.66336,0.7908 0.11929,0.13 0.38038,0.4745 0.5802,0.7656 0.19981,0.291 0.39722,0.5556 0.43868,0.5879 0.0415,0.032 0.30588,0.4028 0.5876,0.8232 1.99238,2.9731 3.99398,5.1081 5.33206,5.6873 0.20376,0.088 0.50277,0.2169 0.66446,0.286 0.36588,0.1563 1.20841,0.1779 1.35819,0.035 z m 0.75818,-7.8602 c -3.2e-4,-0.093 -1.32911,-1.7549 -2.86159,-3.5779 -0.50689,-0.603 -1.00522,-1.1999 -1.1074,-1.3265 -0.46811,-0.5798 -2.77503,-4.1763 -3.09273,-4.8217 -1.02985,-2.0919 -0.93114,-3.8243 0.28811,-5.0562 0.68542,-0.6926 1.38347,-1.0613 3.01094,-1.5903 0.4204,-0.1366 0.85624,-0.2989 0.96855,-0.3605 0.1123,-0.062 0.26719,-0.112 0.34419,-0.112 0.077,0 0.58188,-0.2139 1.12197,-0.4753 0.98674,-0.4776 1.2119,-0.5028 1.20921,-0.1352 -0.003,0.3423 -1.13395,0.9181 -2.58558,1.3159 -0.29105,0.08 -0.66146,0.1856 -0.82315,0.2353 -0.16169,0.05 -0.53211,0.1615 -0.82315,0.2484 -2.04173,0.61 -2.74407,1.5657 -2.75734,3.7519 -0.006,0.9683 0.0102,1.0292 0.48031,1.8227 0.26751,0.4516 0.59824,1.0194 0.73495,1.262 0.13671,0.2425 0.35439,0.6261 0.48375,0.8525 0.12935,0.2264 0.34739,0.6098 0.48454,0.852 0.45362,0.8011 0.96332,1.4916 1.58444,2.1466 0.89512,0.9439 2.30181,2.6082 2.70043,3.195 0.19022,0.2801 0.43,0.6027 0.53284,0.717 0.31163,0.3462 0.49507,0.7653 0.4203,0.9602 -0.0713,0.1858 -0.31304,0.2599 -0.31359,0.096 z m 1.31243,-0.9544 c -0.0749,-0.25 -0.13621,-0.6173 -0.13621,-0.8162 0,-0.1989 -0.0529,-0.3943 -0.11759,-0.4343 -0.0647,-0.04 -0.11759,-0.2025 -0.11759,-0.3613 0,-0.1587 -0.0474,-0.3805 -0.10524,-0.4928 -0.0579,-0.1123 -0.28046,-0.5746 -0.49463,-1.0273 -0.21416,-0.4528 -0.53722,-1.0444 -0.71791,-1.3147 -0.18068,-0.2704 -0.32852,-0.5438 -0.32852,-0.6076 0,-0.064 -0.0414,-0.1336 -0.0921,-0.1552 -0.16136,-0.069 -0.61349,-0.9258 -0.61349,-1.1631 0,-0.1256 0.0661,-0.2278 0.147,-0.227 0.15239,0 0.67615,0.7279 0.67615,0.9377 0,0.066 0.0529,0.1192 0.1176,0.1192 0.0647,0 0.11759,0.057 0.11759,0.1258 0,0.069 0.14892,0.347 0.33095,0.6174 0.91798,1.3635 1.47157,2.87 1.61735,4.4015 0.0895,0.9402 -0.0586,1.1482 -0.28339,0.3979 z m 15.19405,-4.0364 c -0.68027,-0.5133 -2.25604,-2.1725 -2.71543,-2.8591 -0.58802,-0.8789 -1.12516,-1.411 -1.60394,-1.5889 -0.81964,-0.3046 -0.89793,-0.3543 -0.89793,-0.5709 0,-0.3584 0.31093,-0.3839 0.97264,-0.08 0.62702,0.2881 1.12365,0.7407 1.61948,1.4759 0.15266,0.2263 0.30688,0.438 0.3427,0.4703 0.0358,0.032 0.22089,0.2675 0.41126,0.5226 0.38131,0.511 1.00065,1.1332 1.85645,1.8651 0.52438,0.4484 0.69547,0.807 0.45574,0.9552 -0.0571,0.035 -0.25551,-0.05 -0.44097,-0.1904 z m 3.65966,-1.8044 c -0.258,-0.2287 -0.70721,-0.5565 -0.99825,-0.7285 -0.29104,-0.1719 -0.89959,-0.6654 -1.35232,-1.0966 -0.45273,-0.4312 -1.0019,-0.94 -1.22037,-1.1306 -0.31181,-0.272 -0.37952,-0.4023 -0.31485,-0.6061 0.0823,-0.2594 0.0827,-0.2594 0.39723,-0.031 0.17317,0.1256 0.67889,0.5738 1.12383,0.996 0.44494,0.4223 1.02702,0.9139 1.29352,1.0926 1.26101,0.8453 1.9323,1.4504 1.87062,1.6863 -0.087,0.3328 -0.26437,0.2925 -0.79941,-0.1818 z m -13.16908,-7.0425 c -0.86579,-0.3916 -1.66289,-0.5587 -2.24663,-0.4712 -0.41331,0.062 -0.52846,0.04 -0.5874,-0.1139 -0.23397,-0.6098 1.10178,-0.7415 2.48176,-0.2447 0.91718,0.3301 1.39165,0.632 1.44862,0.9216 0.0534,0.2718 -0.37096,0.2362 -1.09635,-0.092 z m -106.59769,14.9907 c 0.6791,-0.062 1.92264,-0.1708 2.76343,-0.2428 3.40848,-0.2919 8.08399,-0.935 12.05324,-1.6578 0.35572,-0.065 0.9378,-0.1699 1.29352,-0.2335 0.66907,-0.1198 1.32196,-0.2495 2.23426,-0.4437 0.29104,-0.062 0.8202,-0.1725 1.17592,-0.2457 0.35572,-0.073 0.87166,-0.1836 1.14653,-0.2455 0.27487,-0.062 0.73789,-0.1654 1.02893,-0.2301 0.29105,-0.065 0.7673,-0.1705 1.05834,-0.2351 0.29104,-0.065 0.75406,-0.1677 1.02893,-0.2288 0.27488,-0.061 0.71144,-0.1644 0.97014,-0.2294 0.25871,-0.065 0.7085,-0.1713 0.99954,-0.2361 1.02099,-0.2273 8.37703,-2.1103 9.76018,-2.4985 0.22637,-0.064 0.59679,-0.1614 0.82315,-0.2174 1.1167,-0.2767 1.33027,-0.3425 1.42822,-0.4405 0.0629,-0.063 -0.1188,-0.2937 -0.44678,-0.5677 -0.62019,-0.5181 -0.67232,-0.5636 -1.18043,-1.0297 l -0.36276,-0.3329 -0.63046,0.283 c -0.34676,0.1557 -0.94797,0.4032 -1.33603,0.5501 -0.38805,0.1469 -0.81139,0.3121 -0.94074,0.3672 -0.12935,0.055 -0.6056,0.2147 -1.05833,0.3548 -0.45273,0.1402 -0.91504,0.3016 -1.02734,0.3589 -0.11231,0.057 -0.33408,0.104 -0.49283,0.104 -0.15875,0 -0.31773,0.047 -0.35328,0.1046 -0.0356,0.057 -0.23712,0.134 -0.44792,0.1699 -0.21079,0.036 -0.64785,0.1237 -0.97123,0.1951 -1.96349,0.4339 -4.10889,0.4338 -5.03201,-10e-5 -1.01979,-0.4793 -1.8434,-1.5698 -1.85073,-2.4503 -0.003,-0.3486 -0.0262,-0.391 -0.12323,-0.2244 -0.12099,0.2077 -0.78818,0.5416 -2.34264,1.1726 -0.16169,0.066 -0.38586,0.166 -0.49817,0.2232 -0.1123,0.057 -0.30762,0.1038 -0.43403,0.1038 -0.12641,0 -0.25909,0.047 -0.29484,0.1052 -0.0358,0.058 -0.26377,0.1332 -0.50671,0.1674 -0.24294,0.034 -0.69665,0.1 -1.00824,0.1462 -0.98677,0.1463 -1.6674,-0.1669 -3.0103,-1.3853 -1.65927,-1.5054 -2.99503,-1.312 -4.11929,0.5963 -1.05661,1.7936 -2.62588,3.3306 -5.06268,4.9586 -0.42039,0.2808 -0.78199,0.554 -0.80355,0.607 -0.0216,0.053 -0.0906,0.096 -0.15344,0.096 -0.0628,0 -0.41561,0.202 -0.78395,0.4489 -0.66407,0.4451 -2.14159,1.1974 -2.35171,1.1974 -0.1948,0 -1.36623,0.5068 -1.69878,0.7349 -0.6753,0.4633 -0.44758,0.5115 1.5581,0.3299 z m 44.14934,-11.9671 c 0.0425,-0.1108 0.0413,-0.6135 -0.003,-1.1171 -0.0698,-0.8006 -0.0558,-0.9158 0.11169,-0.9158 0.10902,0 0.19157,0.095 0.19157,0.2208 0,0.6345 0.75584,1.5955 1.14653,1.4577 0.22057,-0.078 0.17712,-0.6867 -0.0882,-1.2359 -0.26066,-0.5395 -0.29787,-0.8603 -0.11302,-0.9746 0.0682,-0.042 0.21044,0.1313 0.32194,0.3924 0.21792,0.5102 1.07507,1.1543 1.38034,1.0372 0.26716,-0.1026 0.21192,-0.429 -0.22313,-1.3188 -0.21878,-0.4474 -0.3744,-0.8532 -0.34584,-0.9017 0.12713,-0.2159 0.35602,-0.041 0.65391,0.4988 0.30742,0.5575 0.78911,0.8695 1.00651,0.652 0.0455,-0.045 0.0777,-0.409 0.0715,-0.8078 -0.008,-0.545 -0.10197,-0.9233 -0.37638,-1.5224 -0.42832,-0.9352 -0.57139,-1.1272 -1.77075,-2.3764 -0.49752,-0.5181 -1.06178,-1.1538 -1.25392,-1.4125 -0.19214,-0.2587 -0.3774,-0.4968 -0.41169,-0.5292 -0.0343,-0.032 -0.17487,-0.2969 -0.31242,-0.5879 -0.59652,-1.2623 -0.90798,-2.1261 -1.01761,-2.8222 -0.0356,-0.2264 -0.20497,-1.2054 -0.37627,-2.1755 -0.1713,-0.9701 -0.3642,-2.0814 -0.42866,-2.4694 -0.0645,-0.3881 -0.16108,-0.9437 -0.21468,-1.2348 -0.0536,-0.291 -0.15944,-0.8731 -0.23519,-1.2935 -0.0757,-0.4204 -0.18588,-1.0289 -0.24475,-1.3523 -0.0589,-0.3234 -0.16206,-0.9055 -0.22931,-1.2935 -0.0672,-0.3881 -0.1733,-0.9834 -0.23567,-1.3229 -0.0624,-0.3396 -0.16445,-0.8952 -0.22683,-1.2348 -0.21309,-1.1599 -0.36741,-2.1459 -0.3543,-2.2636 0.007,-0.065 0.0592,-0.8055 0.11547,-1.6463 0.16799,-2.5088 0.45186,-4.6601 0.931,-7.0556 0.0647,-0.3233 0.17171,-0.879 0.23784,-1.2347 0.0661,-0.3557 0.16768,-0.8584 0.22564,-1.1171 0.10947,-0.4886 0.98552,-4.8496 1.18112,-5.8797 0.22508,-1.1853 0.50335,-3.1309 0.62939,-4.4005 0.0156,-0.1566 0.10031,-0.3085 0.18836,-0.3375 0.1298,-0.043 0.14686,0.1223 0.0902,0.8727 -0.0958,1.268 -0.35619,3.0927 -0.65645,4.6003 -0.24702,1.2402 -0.34967,1.7454 -0.46,2.2637 -0.062,0.291 -0.17252,0.8202 -0.24569,1.1759 -0.0732,0.3557 -0.17695,0.8584 -0.23059,1.1171 -0.89222,4.3026 -1.09476,5.4844 -1.42083,8.2903 -0.15414,1.3264 -0.16496,4.1606 -0.0184,4.8223 0.15654,0.7069 0.29728,1.47 0.67663,3.669 l 0.31868,1.8472 0.35217,-0.2963 c 0.96357,-0.8108 4.1163,-1.9525 5.72637,-2.0737 0.40616,-0.031 0.41259,-0.04 0.48824,-0.6778 0.0422,-0.3557 0.13902,-1.123 0.21523,-1.7051 0.69016,-5.2715 0.69098,-8.292 0.004,-13.4055 -0.0695,-0.5174 -0.17607,-1.3376 -0.23673,-1.8227 -0.39079,-3.1253 -0.57223,-4.2904 -0.93394,-5.9972 -0.23185,-1.094 -1.37886,-4.67758 -1.82548,-5.70326 -0.0845,-0.19403 -0.27373,-0.67028 -0.42052,-1.05834 -0.1468,-0.38805 -0.31158,-0.75582 -0.36617,-0.81727 -0.13857,-0.15596 -0.12444,-0.97597 0.0183,-1.06421 0.0647,-0.04 0.11759,-0.20256 0.11759,-0.36131 0,-0.15875 0.0485,-0.38053 0.10771,-0.49283 0.44481,-0.84329 0.50207,-1.09412 0.31495,-1.3797 -0.40551,-0.61888 -0.65785,-1.13648 -0.65785,-1.34937 0,-0.12357 -0.0529,-0.25737 -0.11759,-0.29734 -0.0647,-0.04 -0.11759,-0.19873 -0.11759,-0.35278 0,-0.15406 -0.0529,-0.31281 -0.11759,-0.35278 -0.19443,-0.12016 -0.13289,-0.94437 0.11341,-1.51895 0.20379,-0.47543 0.20889,-0.53892 0.0433,-0.53892 -0.10325,0 -0.36595,-0.18898 -0.58378,-0.41995 -0.34338,-0.36408 -0.39644,-0.50095 -0.39887,-1.02893 -0.002,-0.33495 -0.048,-0.80354 -0.10326,-1.04131 -0.15529,-0.66835 0.0735,-1.45498 0.54304,-1.86726 0.82075,-0.72063 1.79756,-0.24425 2.14501,1.04609 l 0.13171,0.48914 h 0.63967 c 0.61736,0 0.66188,-0.0222 1.27652,-0.63685 0.35026,-0.35026 0.80974,-0.89266 1.02105,-1.20532 1.07752,-1.59433 1.78873,-2.15219 2.96272,-2.32389 0.47216,-0.069 0.5583,-0.1215 0.5568,-0.33906 -0.003,-0.43267 -0.29039,-1.11676 -0.69743,-1.66002 -0.21292,-0.28416 -0.3848,-0.55975 -0.38195,-0.61241 0.0126,-0.23244 0.26918,-0.14608 0.57395,0.19316 0.56413,0.62792 0.85998,1.25704 0.85998,1.82873 0,0.40037 0.0502,0.54619 0.20578,0.5972 0.47938,0.15724 1.5399,0.67592 2.06473,1.00982 0.31483,0.2003 0.60572,0.31326 0.65634,0.25488 0.32922,-0.37972 0.48678,-2.17732 0.23404,-2.67022 -0.24433,-0.4765 -0.86344,-1.0383 -1.65793,-1.50447 -0.43455,-0.25497 -0.93726,-0.65959 -1.11713,-0.89917 -0.59345,-0.79042 -0.67429,-0.87027 -1.32657,-1.31034 -0.60558,-0.40856 -0.86415,-0.5115 -2.05787,-0.81929 -1.0336,-0.26649 -3.94859,-0.48657 -4.46852,-0.33736 -0.19403,0.0557 -0.61736,0.14867 -0.94074,0.20665 -1.51765,0.2721 -1.8152,0.3493 -2.41065,0.62543 -0.71626,0.33214 -1.63228,1.45491 -2.22188,2.72336 -0.15032,0.32338 -0.32043,0.67985 -0.37803,0.79215 -0.0576,0.11231 -0.10472,0.30762 -0.10472,0.43404 0,0.12641 -0.0529,0.26254 -0.11759,0.30251 -0.0647,0.04 -0.1176,0.22518 -0.1176,0.41158 0,0.18639 -0.0529,0.3716 -0.11759,0.41157 -0.0647,0.04 -0.11759,0.24687 -0.11759,0.45977 0,0.21289 -0.0506,0.5405 -0.11236,0.72801 -0.0618,0.18751 -0.12795,1.88171 -0.14699,3.76488 l -0.0346,3.42396 0.35278,0.14092 c 0.19402,0.0775 0.44466,0.19037 0.55696,0.25081 0.25536,0.13743 0.50419,0.1397 0.76755,0.007 0.1123,-0.0566 0.44231,-0.22386 0.73336,-0.37174 1.50176,-0.76305 1.86907,-0.91518 2.38988,-0.98981 l 0.56719,-0.0813 -0.038,0.33188 c -0.0291,0.2536 -0.10736,0.3401 -0.33201,0.36675 -0.62599,0.0742 -1.36261,0.39761 -2.2572,0.9909 -0.54774,0.36325 -0.77535,0.44414 -1.24976,0.44414 -0.31903,0 -0.77173,-0.0801 -1.00599,-0.17797 l -0.42594,-0.17797 v 0.5518 c 0,0.30348 -0.0493,0.7143 -0.10962,0.91292 -0.0603,0.19862 -0.17463,0.59925 -0.25409,0.89029 -0.24047,0.88085 -0.92885,2.18753 -1.5314,2.90688 -0.31313,0.37383 -0.74805,0.93227 -0.96649,1.24097 -0.21844,0.3087 -0.63169,0.81141 -0.91835,1.11713 -0.28665,0.30572 -0.6489,0.74106 -0.805,0.96743 -0.15609,0.22636 -0.31445,0.43803 -0.3519,0.47037 -0.27469,0.23719 -1.37253,2.33918 -1.99606,3.82178 -0.42495,1.0104 -0.92156,3.0976 -1.14714,4.8213 -0.13864,1.0594 -0.0998,5.4737 0.0606,6.8792 0.15132,1.3263 0.2479,2.013 0.52925,3.7629 0.45195,2.8111 0.49337,3.3132 0.48979,5.9385 -0.004,2.7623 -0.096,3.5564 -0.59065,5.0831 -0.37311,1.1516 -0.99664,2.4062 -1.57712,3.1731 -0.25049,0.331 -0.42875,0.6284 -0.39614,0.6611 0.0326,0.033 0.10755,0.8441 0.16654,1.8034 0.059,0.9592 0.15726,2.1145 0.21839,2.5672 0.15754,1.1668 0.34846,2.8051 0.43511,3.7336 0.0407,0.4366 0.12158,0.7937 0.17965,0.7937 0.22402,0 1.7186,-1.0827 2.39105,-1.7321 0.38806,-0.3748 1.09763,-1.1306 1.57683,-1.6795 0.4792,-0.5489 1.3138,-1.4355 1.85467,-1.9701 l 0.98339,-0.972 -0.3078,-0.6743 c -0.16929,-0.3708 -0.46678,-1.0182 -0.66108,-1.4386 -0.19431,-0.4204 -0.45383,-0.9893 -0.57673,-1.2641 -0.12289,-0.2749 -0.33598,-0.7512 -0.47353,-1.0584 -0.23429,-0.5233 -0.30589,-0.6939 -0.60453,-1.4405 -0.0647,-0.1617 -0.16076,-0.3998 -0.21353,-0.5291 -0.44215,-1.084 -0.80801,-2.5331 -0.92008,-3.6443 -0.21742,-2.1559 0.0209,-8.7174 0.45493,-12.5247 0.32594,-2.8593 0.42931,-4.3308 0.59887,-8.5255 0.11153,-2.7589 0.18974,-3.5784 0.35851,-3.7571 0.0581,-0.061 0.10555,-0.1988 0.10555,-0.3053 0,-0.2972 0.35748,-0.94629 0.4796,-0.8708 0.15704,0.097 0.13106,0.3928 -0.0873,0.9939 -0.33293,0.9164 -0.41281,1.6266 -0.51576,4.5861 -0.0983,2.8273 -0.21348,4.5364 -0.46341,6.8791 -0.14215,1.3324 -0.27062,2.6092 -0.48514,4.8213 -0.19714,2.033 -0.19766,8.7269 -7.4e-4,9.525 0.0798,0.3234 0.17444,0.7605 0.21033,0.9713 0.0359,0.2108 0.11233,0.4123 0.16986,0.4479 0.0575,0.036 0.1046,0.168 0.1046,0.2945 0,0.1264 0.0468,0.3217 0.10388,0.434 0.0571,0.1123 0.15588,0.3365 0.21945,0.4982 0.362,0.9207 0.5377,1.3176 1.35354,3.0574 0.28813,0.6144 0.78126,1.6727 1.09585,2.3518 0.47311,1.0213 1.58672,3.2557 3.22343,6.4676 0.32186,0.6316 0.40597,0.85 0.56624,1.4699 0.22625,0.8752 0.37558,1.7212 0.37558,2.1278 0,0.8485 0.47907,2.2154 1.26341,3.6049 0.62671,1.1102 0.83091,1.3817 1.03921,1.3817 0.14259,0 0.29403,-0.091 0.33653,-0.2014 z m -3.03156,-67.97293 c 0.0768,-0.58353 0.28929,-1.13938 0.888,-2.32246 0.42235,-0.83456 0.59322,-1.04411 1.11379,-1.36583 0.66326,-0.40992 0.68883,-0.1807 0.0476,0.42644 -0.70491,0.66741 -1.32293,1.82549 -1.61521,3.02666 -0.11872,0.48791 -0.25373,0.79375 -0.35038,0.79375 -0.11951,0 -0.13961,-0.13406 -0.0838,-0.55856 z m -10.54605,49.18533 c 0.26106,-0.5186 0.47422,-1.0325 0.47369,-1.1418 -5.4e-4,-0.1094 0.0519,-0.2316 0.11662,-0.2715 0.0647,-0.04 0.11759,-0.1988 0.11759,-0.3528 0,-0.1541 0.0473,-0.3094 0.10517,-0.3451 0.0578,-0.036 0.13532,-0.2638 0.17217,-0.5067 0.48631,-3.2061 0.48468,-4.1194 -0.0147,-8.2028 l -0.0863,-0.7056 -0.26458,0.3709 c -0.14552,0.204 -0.26459,0.4289 -0.26459,0.4998 0,0.071 -0.04,0.1288 -0.0889,0.1288 -0.0793,0 -0.18978,0.2239 -0.49321,0.9996 -0.0506,0.1293 -0.14596,0.3674 -0.21192,0.5291 -0.29068,0.7126 -0.48161,1.6221 -0.64185,3.0574 -0.15814,1.4166 -0.1665,2.5602 -0.039,5.3405 l 0.10199,2.2243 0.27155,-0.3406 c 0.14935,-0.1873 0.48515,-0.7649 0.74622,-1.2835 z m 20.83626,-35.60397 c 0.17271,-0.1452 0.44261,-0.59039 0.59979,-0.9893 l 0.28579,-0.7253 -0.23443,-0.4102 c -0.39175,-0.68547 -0.23603,-0.83132 0.78847,-0.73848 l 0.86679,0.0785 0.0554,-0.50352 c 0.0342,-0.31075 -0.006,-0.60323 -0.10488,-0.76397 -0.0881,-0.14324 -0.16025,-0.3515 -0.16025,-0.46279 0,-0.27328 0.46031,-0.74667 0.72605,-0.74667 0.30138,0 0.26698,0.17388 -0.0793,0.40076 -0.3313,0.21708 -0.36575,0.36743 -0.13666,0.59651 0.10118,0.10118 0.21657,0.11981 0.32338,0.0522 0.23523,-0.14891 0.74096,-0.13355 0.90191,0.0274 0.1031,0.10311 0.17901,0.10053 0.31294,-0.0106 0.32559,-0.27021 0.31906,-0.58144 -0.034,-1.62084 -0.19297,-0.5681 -0.36795,-1.16466 -0.38884,-1.32569 -0.0241,-0.18593 -0.12381,-0.3057 -0.27317,-0.32819 -0.41663,-0.0627 -1.33836,-0.52537 -1.40794,-0.7067 -0.11338,-0.29546 0.0244,-0.30416 0.6565,-0.0415 0.79729,0.33134 0.96879,0.31913 1.42575,-0.10144 0.37286,-0.34317 0.37739,-0.35856 0.15577,-0.52916 -0.30225,-0.23268 -1.38722,-0.2281 -1.84335,0.008 -0.19515,0.10092 -0.44359,0.1664 -0.55207,0.14551 -0.14773,-0.0285 -0.0856,-0.12314 0.24745,-0.37718 0.39133,-0.29848 0.54255,-0.33918 1.25998,-0.33918 0.48246,0 0.88811,0.0604 0.99367,0.14804 0.0981,0.0814 0.25843,0.11732 0.35627,0.0798 0.23219,-0.0891 0.25845,-2.16685 0.0309,-2.44393 -0.23982,-0.29201 -1.49091,-1.06131 -2.10619,-1.29509 -1.57121,-0.59702 -3.08504,0.14944 -4.56764,2.25226 -1.11694,1.58421 -1.816,2.00957 -2.76895,1.68487 -0.42483,-0.14475 -0.52319,-0.23146 -0.52319,-0.4612 0,-0.29787 -0.17632,-0.38615 -0.2715,-0.13593 -0.0371,0.0977 -0.16157,0.0372 -0.37084,-0.18017 -0.26311,-0.27333 -0.37932,-0.31508 -0.70632,-0.25373 -0.30634,0.0575 -0.41877,0.0263 -0.51733,-0.14322 -0.096,-0.16515 -0.12664,0.0489 -0.12892,0.9005 -0.003,1.00191 0.0258,1.15311 0.27619,1.46606 0.20826,0.26029 0.37991,0.34992 0.67558,0.35278 0.36214,0.004 0.39962,0.0376 0.43387,0.3946 0.028,0.29209 -0.0314,0.45051 -0.23519,0.62737 -0.24217,0.21013 -0.27233,0.33899 -0.2696,1.15208 0.005,1.43323 0.39821,2.02333 2.74776,4.12156 1.23338,1.10145 1.75507,1.38189 2.59963,1.39746 0.50992,0.009 0.7132,-0.0439 0.96077,-0.25208 z m 1.56747,-1.96542 c 0,-0.0842 -0.11906,-0.19717 -0.26458,-0.251 -0.29812,-0.11028 -0.31816,-0.0725 -0.13903,0.2622 0.13412,0.2506 0.40361,0.24312 0.40361,-0.0112 z"
       id="path58" /></g></svg>
