<?xml version="1.0" encoding="UTF-8" standalone="no"?>
<!-- Created with Inkscape (http://www.inkscape.org/) -->

<svg
   width="99.66848mm"
   height="69.373352mm"
   viewBox="0 0 99.66849 69.373353"
   version="1.1"
   id="svg1"
   xml:space="preserve"
   xmlns="http://www.w3.org/2000/svg"
   xmlns:svg="http://www.w3.org/2000/svg"><defs
     id="defs1" /><g
     id="layer1"
     transform="translate(-136.67014,-1731.7262)"><path
       style="fill:#333333;stroke-width:2.5"
       d="m 221.20008,1800.026 c -0.57623,-0.6942 -0.9626,-3.4205 -1.10155,-7.7722 -0.29275,-9.1683 -0.4371,-9.6793 -2.73473,-9.6793 -2.85105,0 -3.52347,1.2513 -3.99902,7.4415 -0.11375,1.4815 -1.24775,0.085 -2.29488,-2.8275 -1.147,-3.1897 -1.2789,-3.3087 -3.2726,-2.9532 -1.14257,0.205 -6.63657,1.0745 -12.2089,1.9347 -5.57232,0.8605 -10.28545,1.7183 -10.4736,1.9063 -0.18825,0.1875 -0.50922,1.5885 -0.71355,3.1117 l -0.37147,2.7698 -2.44545,-0.3913 c -1.345,-0.215 -3.88305,-1.0267 -5.6401,-1.804 -2.67113,-1.1817 -3.9076,-1.341 -7.5454,-0.973 -13.78618,1.3953 -13.5809,1.4113 -22.87163,-1.7762 l -8.59897,-2.95 -0.211,-3.894 c -0.41025,-7.5733 1.88402,-15.2203 5.95542,-19.85 1.2405,-1.4108 2.79585,-3.8043 3.45633,-5.3188 1.2959,-2.9715 3.84342,-5.6577 7.93317,-8.3647 l 2.58188,-1.709 2.3644,1.949 c 2.76797,2.2815 3.6736,2.459 3.19425,0.626 -0.19025,-0.7278 -0.11,-1.323 0.1785,-1.323 0.28845,0 0.68257,0.8185 0.87582,1.819 0.81263,4.207 1.72463,6.7877 4.38645,12.412 3.32473,7.0252 4.7967,10.9045 4.13763,10.9045 -0.26203,0 -1.44718,-2.0838 -2.63365,-4.6303 -1.62438,-3.4865 -2.48635,-4.6302 -3.48975,-4.6302 -1.12365,0 -1.31073,-0.389 -1.19325,-2.4805 0.0795,-1.417 -0.49368,-3.8983 -1.33713,-5.7878 -1.35567,-3.0367 -1.53917,-3.199 -2.24402,-1.9842 -0.4222,0.7275 -0.79293,3.3535 -0.82385,5.8352 -0.031,2.4845 -0.38075,4.714 -0.77835,4.961 -0.39718,0.2475 -0.82655,1.1868 -0.95418,2.0893 -0.1975,1.3967 -0.70867,1.7202 -3.4398,2.176 -2.0998,0.3505 -3.5063,0.2875 -4.0721,-0.1825 -0.6733,-0.5588 -1.2468,0.09 -2.59447,2.9397 -0.95155,2.0115 -1.90963,4.555 -2.12905,5.652 -0.3448,1.724 -0.20575,1.9948 1.02315,1.9948 0.78217,0 3.1159,-0.5953 5.18607,-1.323 2.07015,-0.7275 4.26925,-1.3228 4.8869,-1.3228 0.61763,0 3.51353,2.3398 6.43533,5.1993 6.75112,6.6075 16.51297,11.7222 19.20147,10.0607 1.15445,-0.7135 1.28335,-13.0405 0.177,-16.9137 -0.41572,-1.4553 -0.7313,-3.8365 -0.7013,-5.2915 0.0503,-2.4398 0.15025,-2.285 1.2832,1.9842 0.67575,2.5468 1.24488,5.248 1.26468,6.0033 0.02,0.755 0.8029,2.0932 1.7402,2.974 1.4474,1.3597 2.49857,1.637 6.9769,1.8402 6.22115,0.2825 14.31302,-0.7885 19.53732,-2.5857 2.0563,-0.7075 4.12468,-1.2865 4.5964,-1.2865 0.47173,0 1.46223,1.3667 2.20113,3.0372 1.1637,2.6305 1.69632,6.1968 2.25502,15.0973 0.097,1.5455 0.55383,2.0742 2.29973,2.6622 1.19827,0.4035 1.96282,0.9493 1.69897,1.2133 -0.87487,0.8747 -4.05192,0.4965 -4.95352,-0.5898 z m 8.0016,0.264 c 0,-0.4197 0.63865,-1.4427 1.4192,-2.2737 l 1.4192,-1.5105 -1.793,-0.6818 c -0.98613,-0.375 -2.41325,-0.6817 -3.17138,-0.6817 -1.35297,0 -1.36992,-0.17 -0.92057,-9.249 0.51817,-10.469 -0.0408,-13.7743 -2.681,-15.851 -2.3719,-1.8658 -5.20678,-1.7305 -14.86333,0.7082 -10.87192,2.746 -12.01962,2.7305 -16.28015,-0.2175 -3.3664,-2.3302 -7.06877,-3.5875 -12.30802,-4.18 -2.20585,-0.25 -2.48533,-0.135 -2.09068,0.8568 1.50968,3.7927 1.7167,19.8562 0.24425,18.9462 -0.3125,-0.1925 -0.5726,-0.8545 -0.57795,-1.4697 -0.01,-1.052 -0.3639,-1.81 -2.5275,-5.4 -0.82287,-1.3653 -0.78312,-1.4343 0.57868,-1.002 2.70335,0.858 3.5184,-3.3585 1.58377,-8.1935 -0.56992,-1.4245 -0.942,-3.7375 -0.82682,-5.1398 0.21625,-2.632 0.7889,-2.9397 3.44917,-1.8535 1.10935,0.4528 1.20588,0.2883 0.8299,-1.415 -0.234,-1.06 -0.5701,-4.0107 -0.74687,-6.5575 -0.2829,-4.0757 -0.2405,-4.3132 0.35375,-1.9842 1.8215,7.1382 1.95642,7.4582 3.10742,7.3672 0.71573,-0.058 1.23043,0.452 1.35728,1.341 0.23725,1.6633 0.93775,2.0045 5.30215,2.5835 3.08352,0.409 3.29872,0.328 5.59515,-2.106 2.9157,-3.0905 3.80425,-2.6455 1.49937,0.7508 -0.92747,1.3667 -1.6904,3.1132 -1.69535,3.881 -0.005,0.7677 -0.185,2.0522 -0.40005,2.8542 -0.30807,1.149 -0.0553,1.5425 1.1924,1.8558 3.06605,0.7695 4.92293,-0.6055 6.16945,-4.5685 0.63315,-2.013 0.97575,-4.3308 0.76135,-5.1508 -0.2145,-0.8197 0.1095,-2.8962 0.7195,-4.614 1.04288,-2.9362 1.04088,-3.267 -0.033,-5.519 -1.43025,-2.9992 -5.10367,-4.7387 -11.82662,-5.6005 -2.66323,-0.3412 -7.22345,-1.3842 -10.13388,-2.3177 -8.90302,-2.8553 -18.2581,-2.894 -22.15885,-0.092 -0.6059,0.4352 -0.52862,0.1675 0.1985,-0.6875 2.96898,-3.4915 10.77925,-3.5458 23.87663,-0.1675 l 7.34417,1.8952 1.17008,-1.476 c 0.64355,-0.8117 2.43542,-3.113 3.98197,-5.114 1.6379,-2.119 4.0491,-4.283 5.77523,-5.183 2.77022,-1.4445 3.48062,-1.521 10.90085,-1.1747 8.47315,0.3955 14.1716,1.5997 16.7783,3.546 0.8847,0.6605 2.52382,2.821 3.6425,4.8012 1.79787,3.1823 2.06365,4.3388 2.28957,9.964 0.3059,7.616 -1.07927,13.9115 -5.165,23.4743 -2.06807,4.8405 -2.8563,7.7767 -3.45302,12.8627 -0.42528,3.6248 -0.59078,6.7728 -0.3678,6.9958 0.223,0.2225 2.41257,0.8972 4.86572,1.4985 2.45315,0.6012 4.5779,1.4525 4.72165,1.8917 0.229,0.7 -0.73702,1.2855 -5.94865,3.6045 -0.73105,0.3253 -1.15755,0.235 -1.15755,-0.2475 z M 213.985,1764.244 c -0.72072,-1.124 -0.7394,-1.1225 -0.37755,0.03 0.2095,0.6663 0.40418,1.5593 0.4329,1.9843 0.0378,0.5577 0.14275,0.5497 0.37755,-0.03 0.179,-0.4413 -0.015,-1.334 -0.4329,-1.9845 z m -30.22705,-1.0722 c 0.186,-0.485 -0.0797,-0.882 -0.5907,-0.882 -0.51102,0 -0.92912,0.397 -0.92912,0.882 0,1.1425 1.08137,1.1425 1.51982,0 z m 27.25363,-3.0868 c -0.22475,-0.3637 -0.70648,-0.6615 -1.07028,-0.6615 -0.3638,0 -0.4775,0.2978 -0.25265,0.6615 0.22475,0.3638 0.70645,0.6615 1.07025,0.6615 0.36383,0 0.4775,-0.2977 0.25268,-0.6615 z"
       id="path87" /></g></svg>
