<?xml version="1.0" encoding="UTF-8" standalone="no"?>
<!-- Created with Inkscape (http://www.inkscape.org/) -->

<svg
   width="131.08554mm"
   height="80.601463mm"
   viewBox="0 0 131.08555 80.601463"
   version="1.1"
   id="svg1"
   xml:space="preserve"
   xmlns="http://www.w3.org/2000/svg"
   xmlns:svg="http://www.w3.org/2000/svg"><defs
     id="defs1" /><g
     id="layer1"
     transform="translate(60.983571,-1655.6032)"><path
       style="fill:#4d4d4d"
       d="m -32.590116,1735.8861 c -0.33749,-0.2494 -0.854255,-1.0293 -1.148367,-1.7333 -0.294113,-0.7039 -0.939783,-1.5452 -1.434824,-1.8695 -1.894034,-1.2411 -3.948829,-5.1586 -4.97152,-9.4783 -0.275613,-1.1642 -0.681886,-2.5289 -0.902827,-3.0326 l -0.401712,-0.916 -4.259399,3.0731 c -6.839453,4.9346 -10.586302,6.5258 -12.995931,5.519 -0.694515,-0.2902 -1.531486,-0.9378 -1.859934,-1.439 -0.554762,-0.8467 -0.55609,-0.9742 -0.0187,-1.7943 0.318164,-0.4856 3.487467,-3.7797 7.042897,-7.3202 8.792817,-8.7559 10.804213,-11.9432 10.804213,-17.1209 v -2.2829 l -1.322917,0.2042 c -0.727604,0.1123 -3.069166,0.2928 -5.203472,0.4013 -4.413531,0.2241 -6.35,-0.2019 -6.35,-1.3973 0,-0.7091 0.742592,-1.1627 5.485929,-3.3509 2.514406,-1.1599 6.678276,-5.3076 9.20853,-9.1727 1.079658,-1.6492 3.196774,-5.5386 4.704702,-8.643 4.90843,-10.1053 8.009279,-13.7069 12.502446,-14.5217 2.956568,-0.5361 6.597784,2.9875 8.899994,8.6126 0.500965,1.2241 0.946783,1.4141 1.655019,0.7056 0.273924,-0.2741 1.627754,-0.4682 3.5763124,-0.5129 2.73662,-0.063 3.351513,0.04 4.833242,0.8077 3.094068,1.6033 5.754659,5.3698 5.754659,8.1465 0,0.9965 0.0107,0.9971 1.547602,0.09 3.041261,-1.7943 4.741985,-2.1799 10.0940646,-2.2885 4.625495,-0.094 5.127345,-0.1654 5.241316,-0.7481 0.136151,-0.696 2.075476,-3.2024 3.499796,-4.5231 0.484412,-0.4492 1.760396,-1.2474 2.835522,-1.7738 3.5521,-1.7393 6.648495,-0.7153 8.31761,2.7507 0.488294,1.0139 0.994455,2.8322 1.124801,4.0406 0.209677,1.9439 0.371668,2.2998 1.405425,3.0883 l 1.168432,0.8912 1.697299,-1.9556 c 1.850348,-2.132 3.644933,-4.9516 6.278997,-9.8654 3.607664,-6.73 6.366115,-10.1169 9.419694,-11.566 1.762298,-0.8362 5.251758,-1.3047 9.740431,-1.3077 4.188764,0 5.728887,0.4069 6.239086,1.66 0.501297,1.2311 0.612673,8.4545 0.194662,12.6248 -0.74635,7.4461 -0.812326,9.5332 -0.413945,13.0945 1.055905,9.4394 0.928049,14.4095 -0.422737,16.4329 -1.405861,2.1058 -6.088449,4.0505 -20.519445,8.5218 -1.552223,0.4809 -4.092223,1.3505 -5.644445,1.9324 -5.514315,2.0672 -8.524252,3.2159 -13.042147,4.9775 -2.516515,0.9812 -4.778702,1.784 -5.027084,1.784 -0.248381,0 -0.451602,0.2127 -0.451602,0.4728 0,0.7592 3.72223,1.4694 7.584722,1.4471 3.375117,-0.02 3.667156,-0.084 6.748604,-1.499 2.500197,-1.1477 3.469509,-1.4288 4.332305,-1.2563 1.218944,0.2438 2.501036,1.6064 2.501036,2.6582 0,3.9498 -7.865333,9.4661 -13.497247,9.4661 -2.088806,0 -2.92916,-0.3886 -4.354299,-2.0135 l -1.094602,-1.248 -4.257719,0.4454 c -6.137028,0.642 -8.882689,0.3784 -10.861258,-1.0425 -1.6615786,-1.1932 -3.0473726,-1.4448 -4.2912306,-0.7791 -0.415576,0.2224 -1.250163,0.4043 -1.854637,0.4043 -1.128768,0 -2.903225,0.7461 -3.946348,1.6593 -0.52272395,0.4577 -0.63076295,0.4384 -0.95649795,-0.1702 -0.296161,-0.5534 -0.200568,-0.8427 0.49404,-1.4953 0.60010795,-0.5637 0.80162095,-1.0467 0.66458495,-1.5927 -0.233522,-0.9304 0.774158,-1.7296 3.738547,-2.965 1.067153,-0.4447 2.138716,-0.9686 2.38125,-1.1641 0.773817,-0.6239 0.475961,-0.9361 -0.709651,-0.7437 -0.868849,0.141 -1.310119,0.01 -1.801916,-0.5329 -0.636577,-0.7034 -0.630924,-0.7386 0.250218,-1.5552 0.952801,-0.883 3.650623,-1.6632 5.8160396,-1.6819 1.192668,-0.01 1.243529,-0.051 0.637885,-0.5097 -0.361966,-0.2742 -1.66562,-0.7283 -2.8970096,-1.0091 -2.623349,-0.5984 -5.76061,-0.1824 -9.67403795,1.2829 -4.72505305,1.7691 -6.00091405,2.6916 -8.17441205,5.9106 -3.8317524,5.6748 -6.1712204,7.3014 -9.1075934,6.3323 -0.772761,-0.2551 -1.668174,-0.7545 -1.989806,-1.1099 -0.562103,-0.6211 -0.637599,-0.5985 -1.946392,0.5839 -0.748884,0.6766 -1.510531,1.2302 -1.692549,1.2302 -0.848972,0 -0.587309,-0.7323 0.726429,-2.0331 l 1.435472,-1.4212 -0.934983,-2.7708 c -1.655414,-4.9057 -3.319329,-12.4765 -3.34769,-15.232 -0.01304,-1.2666 0.08888,-1.5051 0.60108,-1.4064 0.407141,0.078 0.703299,0.5968 0.87133,1.5251 1.945977,10.7515 3.855699,17.4754 5.278715,18.5857 1.923084,1.5004 3.562815,1.2505 5.752501,-0.8768 2.214814,-2.1516 5.2830134,-6.8493 5.7824894,-8.8534 0.236194,-0.9477 0.73995,-2.3317 1.119457,-3.0756 0.886035,-1.7368 4.482753,-5.3532 7.27622705,-7.316 2.32723095,-1.6353 3.32697995,-2.8696 1.59743795,-1.9723 -1.57257795,0.8158 -1.61449895,-0.014 -0.101543,-2.0093 0.790298,-1.0424 1.437589,-2.2878 1.438423,-2.7676 l 0.0015,-0.8722 -0.58248,0.8722 c -0.956429,1.4323 -2.69906495,3.1653 -3.18275695,3.1653 -0.248507,0 -0.711873,0.3969 -1.029703,0.882 -0.63078105,0.9627 -1.55506005,1.1843 -1.55506005,0.3729 0,-0.2799 0.331614,-1.071 0.736921,-1.758 0.405306,-0.6869 0.6748,-1.4353 0.598875,-1.6631 -0.220403,-0.6612 -2.289439,1.7795 -3.532777,4.1674 -1.137613,2.1848 -1.683574,2.5234 -1.683574,1.0441 0,-1.7264 4.190717,-7.2786 5.49379805,-7.2786 0.738974,0 1.296722,1.0135 1.065263,1.9357 -0.487298,1.9416 0.762859,0.6304 2.11538295,-2.2185 0.948521,-1.998 1.618669,-2.5139 2.411141,-1.8562 0.337738,0.2803 0.565351,0.2927 0.721883,0.04 0.41488,-0.6713 1.598087,-0.4228 1.598087,0.3356 0,0.8163 0.63448,0.9485 0.924539,0.1926 0.108262,-0.2821 0.913091,-0.8597 1.788509,-1.2835 1.3586096,-0.6576 1.9609426,-0.7387 4.1136156,-0.5538 1.387071,0.1192 3.997697,0.6967 5.80139,1.2835 1.803694,0.5867 3.430881,1.0668 3.615972,1.0668 0.185091,0 0.33653,-0.8042 0.33653,-1.7871 0,-1.8831 0.515464,-3.3109 1.071254,-2.9674 0.502044,0.3102 0.05716,5.4171 -0.547064,6.2797 -0.288305,0.4117 -0.52419,0.942 -0.52419,1.1786 0,0.2366 -0.62317,1.7491 -1.384822,3.3611 -0.761652,1.612 -2.558104,5.4709 -3.992115,8.5754 l -2.607293,5.6444 -3.458574,0.2481 c -1.902215,0.1365 -3.5409046,0.3305 -3.6415326,0.4311 -0.100628,0.1007 0.235932,0.3423 0.747911,0.5369 1.9036536,0.7238 0.9138916,2.1625 -2.703875,3.9304 -2.683493,1.3114 -3.912148,2.0854 -3.31019,2.0854 0.138452,0 0.527389,-0.1393 0.864305,-0.3097 2.970405,-1.5018 4.406044,-1.7912 4.244011,-0.8556 -0.164254,0.9484 2.6727436,1.402 4.2035006,0.672 1.274825,-0.6079 5.588089,-4.9379 6.46305,-6.488 0.592678,-1.0501 4.925664,-7.7401 6.101143,-9.4201 0.406233,-0.5805 1.522908,-2.2474 2.4815,-3.7041 0.958592,-1.4568 2.180537,-3.2083 2.715432,-3.8924 1.130479,-1.4457 1.965316,-3.9409 2.241691,-6.7 0.223758,-2.2338 -0.113131,-2.7796 -3.114981,-5.0468 -1.911356,-1.4437 -2.447221,-2.0937 -2.813929,-3.4136 -0.134768,-0.4851 -0.818244,-1.3558 -1.518836,-1.9349 -1.266933,-1.0474 -1.303473,-1.054 -6.774961,-1.2348 -4.573971,-0.1511 -5.501158,-0.2709 -5.501158,-0.7108 0,-0.3224 0.482484,-0.626 1.234723,-0.777 0.679097,-0.1362 -0.311881,-0.1802 -2.202174,-0.098 -5.9909466,0.2613 -8.7335296,1.4927 -13.5886736,6.1009 l -1.856126,1.7617 2.276626,1.6246 c 1.25214505,0.8935 2.523964,1.7195 2.826265,1.8355 0.69287,0.2658 0.725292,1.5465 0.03915,1.5465 -0.475536,0 -3.59849,-2.1725 -6.609539,-4.5979 -0.714555,-0.5756 -1.408496,-1.0465 -1.542092,-1.0465 -0.133595,0 -2.168335,-0.9351 -4.5216434,-2.078 -2.353308,-1.1429 -5.628117,-2.5809 -7.277353,-3.1956 -1.649236,-0.6147 -3.51154,-1.3424 -4.138454,-1.6173 -0.643985,-0.2823 -1.436726,-0.3885 -1.822297,-0.244 -1.351246,0.5063 -8.720779,9.4939 -9.755351,11.8974 -0.250562,0.582 -0.809912,2.0108 -1.243,3.175 -0.433088,1.1641 -1.131963,2.9104 -1.553056,3.8805 -0.421094,0.9701 -0.981302,2.3195 -1.244907,2.9986 -0.263606,0.6791 -1.009901,2.0772 -1.658433,3.1069 -0.650894,1.0334 -1.066012,2.0607 -0.926607,2.293 0.149033,0.2484 0.0079,0.2225 -0.344342,-0.063 -0.846931,-0.687 -0.769197,-1.0852 0.806226,-4.1296 0.771712,-1.4913 1.339247,-2.8148 1.261189,-2.9411 -0.07806,-0.1263 -0.669097,-0.2244 -1.31342,-0.2179 -1.140952,0.011 -1.168476,0.047 -1.055616,1.3596 0.25138,2.924 -1.52747,7.5651 -4.254953,11.1014 -0.791575,1.0262 -4.193221,4.6222 -7.559214,7.9909 -3.365992,3.3687 -6.119986,6.368 -6.119986,6.6651 0,0.2971 0.357187,0.654 0.79375,0.7932 2.481477,0.791 5.123594,-0.3799 12.474133,-5.5281 l 4.977606,-3.4862 0.187544,-2.0683 c 0.285971,-3.1537 1.706782,-5.1566 8.926021,-12.5826 4.489474,-4.6181 6.625031,-7.3167 8.078601,-10.2087 0.737662,-1.4677 1.308267,-2.1719 1.818933,-2.2448 1.655645,-0.2363 6.942115,3.6646 7.411997,5.4694 0.111272,0.4274 1.061037,1.4255 2.110589,2.2179 2.265968,1.7108 4.5056064,4.4394 5.0850854,6.1952 0.812044,2.4606 -0.418199,5.3435 -3.3126554,7.763 -1.556231,1.3009 -1.569271,1.3303 -1.383855,3.1268 0.144453,1.3996 0.0579,1.9209 -0.379166,2.2837 -0.684016,0.5677 -0.767531,0.3847 -1.094878,-2.3987 -0.123371,-1.049 -0.447444,-2.3387 -0.720162,-2.8661 -0.773269,-1.4953 -1.199892,-5.0138 -1.260542,-10.3961 -0.05848,-5.1898 -0.272818,-6.0832 -1.787122,-7.4488 -1.674334,-1.5098 -5.347396,-3.2874 -4.730517,-2.2893 0.55341,0.8955 -2.987149,5.6712 -8.320288,11.223 -7.817616,8.138 -9.119519,9.9375 -9.119519,12.6049 0,1.0013 -0.148046,1.9713 -0.32899,2.1557 -0.432831,0.4409 2.06762,8.7173 3.339886,11.0548 0.823263,1.5126 1.927993,2.6108 1.927993,1.9165 0,-0.12 -0.769224,-1.9009 -1.709386,-3.9577 -1.765682,-3.8628 -2.49728,-6.552 -1.711793,-6.2922 0.491882,0.1626 0.629447,0.4258 3.248821,6.2147 1.11471,2.4636 1.882624,4.6118 1.761437,4.9277 -0.11817,0.3079 0.223231,1.3972 0.75867,2.4206 1.018021,1.9459 0.865976,2.9436 -0.315535,2.0707 z m 69.09274,-10.3188 c 4.132173,-1.645 8.305842,-5.8757 7.332523,-7.4327 -0.66966,-1.0713 -2.297237,-0.925 -5.285339,0.475 -2.539023,1.1896 -3.130274,1.3229 -6.502669,1.4653 -3.283897,0.1387 -3.992505,0.057 -6.173611,-0.7137 -3.559946,-1.2575 -4.833401,-1.7319 -5.708521,-2.1267 -0.686547,-0.3097 -1.096487,-0.021 -3.585952,2.5222 -1.739273,1.7771 -3.091203,2.8719 -3.546365,2.8719 -1.061594,0 -0.904594,0.6448 0.234563,0.9634 1.301317,0.3639 6.960588,0.3438 10.714849,-0.038 2.873803,-0.2924 3.078535,-0.2675 3.704167,0.4495 1.583575,1.8151 2.356351,2.4742 3.072646,2.6207 1.260388,0.2578 3.456266,-0.1462 5.743709,-1.0568 z m -6.757516,-0.8455 c -0.127894,-0.2069 -0.156875,-0.4519 -0.0644,-0.5444 0.09247,-0.092 0.262138,0.077 0.377032,0.3763 0.238543,0.6216 0.03523,0.7309 -0.31263,0.1681 z m -30.74274955,-13.1571 c 1.006213,-0.4583 2.18666595,-0.9453 2.62322795,-1.0821 0.436563,-0.1368 0.79375,-0.3803 0.79375,-0.5411 0,-0.5621 3.929715,-4.0792 5.749248,-5.1456 2.8287766,-1.658 6.2199616,-2.6284 9.1851086,-2.6284 h 2.572319 l 0.812713,-1.8521 c 0.446992,-1.0186 0.889566,-2.0478 0.983497,-2.2871 0.279079,-0.7108 -6.649269,-0.2964 -9.565383,0.5722 -4.8519126,1.4451 -9.3215566,4.7403 -12.20694655,8.9994 -0.48507,0.716 -1.49076205,2.0885 -2.23487105,3.05 -0.74411,0.9615 -1.1705,1.7481 -0.947534,1.7481 0.222966,0 1.228658,-0.375 2.23487105,-0.8333 z m -7.91801205,-4.4061 c -0.07166,-0.2071 -0.505001,0.2123 -0.962984,0.9321 l -0.8326974,1.3087 0.9629844,-0.932 c 0.529641,-0.5127 0.904355,-1.1016 0.832697,-1.3088 z m 49.2576706,-3.8732 c 7.150666,-2.4647 12.774108,-7.9096 21.552403,-20.8682 0.987755,-1.4581 2.535567,-3.7351 3.439583,-5.06 0.904016,-1.3248 1.643666,-2.6295 1.643666,-2.8993 0,-0.2698 0.215413,-0.4078 0.478697,-0.3068 0.525518,0.2017 0.583876,-0.1042 1.318064,-6.9086 0.302515,-2.8037 0.328077,-4.3839 0.08275,-5.1153 -0.305786,-0.9116 -0.390246,-0.5816 -0.60932,2.3806 -0.13988,1.8914 -0.158908,3.5933 -0.04228,3.782 0.257758,0.417 -0.612837,2.1764 -1.400421,2.83 -0.74889,0.6215 -5.824704,7.9495 -5.824704,8.4092 0,0.1951 -0.119063,0.4076 -0.264584,0.4723 -0.313946,0.1395 -2.557639,3.3923 -2.557639,3.7079 0,0.12 -1.147795,1.7426 -2.550657,3.6056 -3.890411,5.1667 -7.375368,8.6262 -10.288711,10.2136 -3.989168,2.1736 -5.653731,2.5892 -10.000498,2.4968 -2.087171,-0.044 -3.970481,-0.216 -4.185135,-0.3814 -0.25431,-0.196 -0.838104,0.3737 -1.675694,1.6352 -1.451417,2.186 -1.659052,3.1852 -0.604598,2.9094 0.37445,-0.098 1.207887,-0.043 1.852083,0.1222 2.0794,0.5329 6.472393,0.066 9.637003,-1.0252 z m -10.758792,-0.06 c 0,-0.194 0.168119,-0.3528 0.373597,-0.3528 0.205479,0 0.275485,0.1588 0.155569,0.3528 -0.119915,0.194 -0.288034,0.3528 -0.373597,0.3528 -0.08556,0 -0.155569,-0.1588 -0.155569,-0.3528 z m 29.704705,-0.1378 c 2.386093,-0.8519 4.97335,-1.8405 5.749461,-2.1968 l 1.411111,-0.648 -1.148651,-0.1187 c -0.747206,-0.077 -1.505999,0.1358 -2.171126,0.6094 -0.56236,0.4004 -1.284604,0.728 -1.604986,0.728 -0.320382,0 -1.96275,0.5744 -3.649708,1.2764 -1.686957,0.7021 -3.384695,1.4057 -3.772751,1.5637 -0.676297,0.2753 -0.673337,0.2882 0.07137,0.3111 0.42731,0.013 2.729185,-0.6732 5.115277,-1.5251 z m -69.892013,-1.9376 c -0.895964,-1.2583 -3.095234,-3.2162 -3.612607,-3.2162 -0.478892,0 0.08224,0.6968 2.172137,2.6973 1.832082,1.7538 2.4880224,1.99 1.44047,0.5189 z m 15.8801344,-2.7983 c 0.563112,-0.8879 1.023841,-2.069 1.023841,-2.6245 0,-1.2191 -0.535843,-1.001 -0.862752,0.3511 -0.129446,0.5354 -0.632777,1.7428 -1.118514,2.6831 -1.075224,2.0813 -0.453658,1.8154 0.957425,-0.4097 z m 63.2979796,-2.2576 c 0.04963,-1.3417 0.02791,-1.4441 -0.07747,-0.3652 -0.08054,0.8246 -0.296491,1.4993 -0.479888,1.4993 -0.183397,0 -0.333449,0.3492 -0.333449,0.7761 0,0.5906 0.09821,0.6779 0.410919,0.3652 0.226005,-0.226 0.441955,-1.2499 0.479888,-2.2754 z m -106.371361,-0.5812 c 0,-0.2872 0.207996,-0.7728 0.462213,-1.0791 0.254217,-0.3064 0.749264,-1.5095 1.100105,-2.6737 0.35084,-1.1641 1.032013,-2.7929 1.513717,-3.6196 1.217208,-2.0887 4.613933,-6.4681 6.764714,-8.7216 0.990168,-1.0375 2.120309,-2.6329 2.511424,-3.5453 0.640958,-1.4953 0.66883,-1.8637 0.282505,-3.7341 -0.314736,-1.5238 -0.324299,-2.1795 -0.03599,-2.4678 0.21594,-0.2159 0.53807,-0.3027 0.715846,-0.1928 0.352556,0.2179 1.011019,2.9758 1.333494,5.5853 0.196529,1.5903 0.261364,1.6682 1.836525,2.2049 0.898043,0.306 1.67382,0.5563 1.72395,0.5563 0.240966,0 4.016501,-5.9553 4.016501,-6.3354 0,-1.0668 -3.008424,-6.0936 -4.43246,-7.4062 -1.369254,-1.2621 -1.748879,-1.4278 -3.27154,-1.4278 -1.950774,0 -3.542931,0.891 -5.440543,3.0446 -1.807771,2.0517 -2.43167,3.0945 -5.792259,9.6817 -4.123857,8.0832 -6.593311,11.8155 -10.134116,15.3167 -2.701153,2.6709 -5.428952,4.4185 -8.235331,5.2759 -1.397207,0.4269 -0.851444,0.9005 1.037661,0.9005 1.007277,0 3.586964,-0.1766 5.732639,-0.3924 3.280776,-0.3301 4.181757,-0.3077 5.665117,0.141 1.595856,0.4826 1.805897,0.4799 2.204861,-0.028 0.242534,-0.3087 0.440972,-0.7962 0.440972,-1.0833 z m -3.527778,-6.7097 c 0,-0.1941 0.15875,-0.4509 0.352778,-0.5708 0.194028,-0.12 0.352778,-0.059 0.352778,0.1347 0,0.194 -0.15875,0.4509 -0.352778,0.5708 -0.194028,0.1199 -0.352778,0.059 -0.352778,-0.1347 z m 77.61111,7.3667 c 0,-0.1941 -0.247494,-0.3528 -0.549986,-0.3528 -0.302493,0 -0.451874,0.1587 -0.331958,0.3528 0.119916,0.194 0.36741,0.3527 0.549987,0.3527 0.182576,0 0.331957,-0.1587 0.331957,-0.3527 z m 3.432096,-2.33 c -0.246908,-0.2469 -1.315429,0.2537 -1.315429,0.6162 0,0.1802 0.33084,0.1504 0.73577,-0.066 0.404673,-0.2166 0.66552,-0.464 0.579659,-0.5499 z m -5.019596,-2.9617 c 0.119916,-0.194 0.04991,-0.3528 -0.155569,-0.3528 -0.205478,0 -0.373597,0.1588 -0.373597,0.3528 0,0.194 0.07001,0.3528 0.155569,0.3528 0.08556,0 0.253682,-0.1588 0.373597,-0.3528 z m 1.675695,-4.0057 c 1.721909,-1.7818 1.685735,-2.4471 -0.264583,-4.8654 -0.894633,-1.1094 -3.708517,-2.7706 -4.693007,-2.7706 -0.432646,0 -1.417204,0.6958 -2.324849,1.643 -1.512568,1.5785 -1.551763,1.6731 -0.998203,2.4069 0.316901,0.4202 1.505006,1.4331 2.640233,2.251 1.135228,0.8179 2.403657,2.0626 2.818733,2.7661 0.692615,1.1739 0.785281,1.224 1.126721,0.6085 0.204621,-0.3688 0.967351,-1.2866 1.694955,-2.0395 z m 1.962326,0.5 c 0.0882,-0.2646 -0.0441,-0.3969 -0.30868,-0.3087 -0.254662,0.085 -0.532474,0.3627 -0.617361,0.6173 -0.08819,0.2646 0.0441,0.3969 0.30868,0.3087 0.254662,-0.085 0.532474,-0.3627 0.617361,-0.6173 z m -10.181991,-7.2353 c 0.743891,-0.7918 0.764209,-0.91 0.245667,-1.4285 -0.310912,-0.311 -0.712185,-0.8278 -0.891716,-1.1486 -0.279601,-0.4996 -0.409982,-0.5139 -0.908989,-0.1 -1.22192,1.0141 -1.360156,1.7726 -0.482542,2.6476 1.054116,1.0511 1.077335,1.0514 2.03758,0.029 z m -3.706809,-2.2481 c 0.112042,-0.353 0.705858,-1.0131 1.319593,-1.4668 1.022009,-0.7556 1.192353,-0.7822 2.024923,-0.3155 0.499973,0.2802 1.116503,0.9411 1.370068,1.4685 0.380097,0.7907 0.577289,0.8968 1.123336,0.6046 0.36427,-0.195 1.012102,-0.3545 1.439627,-0.3545 0.738222,0 0.765398,-0.1014 0.540319,-2.0165 -0.423135,-3.6002 -2.236683,-5.5954 -4.977604,-5.4761 -2.925438,0.1273 -5.476644,1.7812 -7.599204,4.9262 -1.513998,2.2433 -1.320523,2.698 1.254488,2.9481 1.162462,0.1129 2.380682,0.232 2.707155,0.2646 0.326474,0.033 0.685258,-0.2296 0.797299,-0.5826 z m 28.58002,-19.0701 c -0.228493,-0.2285 -2.9342,2.3997 -3.405308,3.3078 -0.201326,0.3881 0.521688,-0.1583 1.606699,-1.214 1.08501,-1.0558 1.894384,-1.998 1.798609,-2.0938 z m 15.008259,-1.3917 c 0,-0.7109 -8.618132,-0.7347 -9.327051,-0.026 -0.109099,0.1091 1.944855,0.2313 4.564344,0.2714 2.653687,0.041 4.762707,-0.068 4.762707,-0.2456 z m -105.833332,76.8426 c 0,-0.1941 0.15875,-0.3528 0.352778,-0.3528 0.194027,0 0.352777,0.1587 0.352777,0.3528 0,0.194 -0.15875,0.3527 -0.352777,0.3527 -0.194028,0 -0.352778,-0.1587 -0.352778,-0.3527 z m -20.880035,-5.5327 c 0.254662,-0.1019 0.558933,-0.089 0.676158,0.028 0.117225,0.1172 -0.09113,0.2006 -0.463021,0.1852 -0.410966,-0.017 -0.494559,-0.1005 -0.213137,-0.2131 z m 49.4550354,-5.7562 c 0,-0.1941 0.168119,-0.3528 0.373597,-0.3528 0.205479,0 0.275485,0.1587 0.155569,0.3528 -0.119916,0.194 -0.288034,0.3528 -0.373597,0.3528 -0.08556,0 -0.155569,-0.1588 -0.155569,-0.3528 z m -32.5731484,-0.2352 c -0.129352,-0.1294 -0.235185,-0.3992 -0.235185,-0.5997 0,-0.2211 0.164313,-0.2003 0.417453,0.053 0.2296,0.2296 0.335433,0.4995 0.235186,0.5997 -0.100248,0.1003 -0.288102,0.076 -0.417454,-0.053 z m 34.3648874,-3.8512 c 0.01693,-0.4109 0.100521,-0.4945 0.213137,-0.2131 0.101907,0.2547 0.08937,0.5589 -0.02785,0.6762 -0.117225,0.1172 -0.200604,-0.091 -0.185287,-0.4631 z m -1.086184,-7.5137 c 0,-0.194 0.15875,-0.4508 0.352778,-0.5708 0.194028,-0.1199 0.352778,-0.059 0.352778,0.1348 0,0.194 -0.15875,0.4509 -0.352778,0.5708 -0.194028,0.1199 -0.352778,0.059 -0.352778,-0.1348 z m -45.8611104,-17.4663 c 0,-0.076 0.238125,-0.2301 0.529166,-0.3418 0.291042,-0.1116 0.529167,-0.049 0.529167,0.1387 0,0.1879 -0.238125,0.3417 -0.529167,0.3417 -0.291041,0 -0.529166,-0.062 -0.529166,-0.1386 z m 2.116666,-1.2725 c 0,-0.194 0.15875,-0.3528 0.352778,-0.3528 0.194028,0 0.352778,0.1588 0.352778,0.3528 0,0.194 -0.15875,0.3528 -0.352778,0.3528 -0.194028,0 -0.352778,-0.1588 -0.352778,-0.3528 z m 30.978298,0.1118 c 0.254662,-0.1019 0.558932,-0.089 0.676157,0.028 0.117226,0.1173 -0.09113,0.2006 -0.46302,0.1853 -0.410966,-0.017 -0.494559,-0.1005 -0.213137,-0.2131 z m 22.4675354,-5.0503 c -0.119916,-0.194 -0.04991,-0.3528 0.155569,-0.3528 0.205479,0 0.373598,0.1588 0.373598,0.3528 0,0.194 -0.07001,0.3528 -0.155569,0.3528 -0.08556,0 -0.253682,-0.1588 -0.373598,-0.3528 z m -44.9791664,-1.5695 c 0,-0.1346 0.238125,-0.4829 0.529166,-0.774 0.291042,-0.291 0.529167,-0.3785 0.529167,-0.1943 0,0.1841 -0.238125,0.5324 -0.529167,0.7739 -0.291041,0.2416 -0.529166,0.329 -0.529166,0.1944 z m -0.705556,-1.9583 c 0,-0.194 0.168119,-0.3528 0.373598,-0.3528 0.205479,0 0.275485,0.1588 0.155569,0.3528 -0.119916,0.194 -0.288035,0.3528 -0.373598,0.3528 -0.08556,0 -0.155569,-0.1588 -0.155569,-0.3528 z"
       id="path99" /></g></svg>
