<?xml version="1.0" encoding="UTF-8" standalone="no"?>
<!-- Created with Inkscape (http://www.inkscape.org/) -->

<svg
   width="129.08063mm"
   height="50.850666mm"
   viewBox="0 0 129.08064 50.850666"
   version="1.1"
   id="svg1"
   xml:space="preserve"
   xmlns="http://www.w3.org/2000/svg"
   xmlns:svg="http://www.w3.org/2000/svg"><defs
     id="defs1" /><g
     id="layer1"
     transform="translate(189.29305,90.87957)"><path
       style="fill:#4d4d4d"
       d="m -186.47611,-40.430382 c -0.20224,-0.21019 -0.40261,-0.52387 -0.44526,-0.69704 -0.0426,-0.173184 -0.14552,-0.340961 -0.2286,-0.372843 -0.23883,-0.09165 -0.34516,-1.294651 -0.14774,-1.671446 l 0.16546,-0.315789 0.0743,0.879152 c 0.0409,0.483534 0.1036,0.955481 0.1394,1.048771 0.0901,0.234752 1.01677,0.819675 1.23272,0.778085 0.10262,-0.0198 0.24579,-0.29232 0.34139,-0.649911 0.0906,-0.338731 0.20388,-0.615875 0.25183,-0.615875 0.12596,0 0.46676,0.75765 0.46676,1.037686 0,0.13078 -0.137,0.4006 -0.30444,0.59959 -0.43369,0.51542 -1.03799,0.50745 -1.54584,-0.0204 z m 1.26412,-1.99045 c 0.002,-0.351414 0.048,-0.409085 0.82134,-1.035719 1.56603,-1.269011 3.27412,-3.09794 4.69417,-5.026253 0.49957,-0.678374 0.70013,-0.861022 0.99386,-0.905094 0.2024,-0.03037 1.42633,-0.08338 2.71984,-0.117792 1.29352,-0.03442 3.01331,-0.1207 3.82176,-0.191739 1.2062,-0.105989 1.77582,-0.09572 3.175,0.05721 2.39441,0.261717 6.98595,0.609619 10.14599,0.768761 1.47337,0.0742 2.98149,0.184659 3.35139,0.245463 0.36989,0.0608 1.36756,0.113829 2.21703,0.117834 2.17875,0.01027 2.55686,-0.192791 4.21114,-2.261597 0.77617,-0.970661 1.91652,-1.952044 3.94575,-3.395707 1.32625,-0.943538 2.58823,-1.874051 2.70463,-1.994244 0.0323,-0.03339 0.34984,-0.29738 0.70556,-0.586643 0.35571,-0.289264 0.67321,-0.553823 0.70555,-0.58791 0.0323,-0.03409 0.64088,-0.570911 1.35232,-1.192942 1.80121,-1.574863 3.15707,-3.014164 4.1381,-4.392759 0.81372,-1.143492 1.90183,-2.843646 2.23899,-3.498379 0.19126,-0.371432 0.24454,-0.383476 0.69833,-0.157868 0.46338,0.230376 0.84314,0.382222 1.39124,0.556276 0.25871,0.08215 0.52064,0.191485 0.58209,0.242958 0.0614,0.05147 0.23029,0.09359 0.37523,0.09359 0.14494,0 0.29623,0.05292 0.3362,0.117593 0.04,0.06468 0.19872,0.117593 0.35278,0.117593 0.15405,0 0.3128,0.05292 0.35278,0.117592 0.04,0.06468 0.19872,0.117593 0.35277,0.117593 0.15406,0 0.30904,0.04682 0.3444,0.104034 0.0354,0.05722 0.21047,0.133339 0.38912,0.169154 0.33844,0.06785 0.78266,0.173594 1.97111,0.469212 2.36274,0.58771 3.52145,0.701332 6.41748,0.629296 4.47722,-0.111367 7.8855,-0.591336 10.99416,-1.548247 0.26706,-0.08221 0.41332,-0.446483 1.58164,-3.93919 0.65217,-1.949688 0.84066,-2.579567 0.99285,-3.317839 0.0455,-0.220665 0.11972,-0.298542 0.24041,-0.252227 0.18057,0.06929 0.15528,0.68004 -0.0553,1.335807 -0.0519,0.16169 -0.16145,0.532107 -0.2434,0.823149 -0.35528,1.261843 -0.9976,3.103422 -2.11226,6.056017 -0.12209,0.32338 -0.33778,0.95838 -0.47933,1.411111 -0.14155,0.452732 -0.29935,0.928982 -0.35067,1.058334 -0.0513,0.129351 -0.12612,0.393935 -0.16622,0.587962 -0.0401,0.194028 -0.12448,0.564445 -0.1875,0.823149 -0.063,0.258703 -0.16546,0.830952 -0.22765,1.271665 -0.0622,0.440712 -0.14218,0.848411 -0.17777,0.905997 -0.0843,0.136335 1.19049,1.801402 2.22216,2.902574 1.24874,1.332856 4.33932,3.681109 5.77549,4.388274 0.19403,0.09554 0.37924,0.20167 0.41158,0.235848 0.0323,0.03418 0.64088,0.35075 1.35231,0.703493 2.916013,1.445814 4.562954,2.479702 4.826894,3.030141 0.225743,0.47078 0.827468,1.083199 1.294209,1.317208 1.041233,0.522043 1.210277,0.68322 1.292645,1.232489 0.0438,0.292081 0.048,0.657116 0.0093,0.81119 l -0.07031,0.280135 -0.854159,0.09105 c -0.656551,0.06999 -0.786147,0.111633 -0.560178,0.18002 0.38632,0.116917 1.672529,0.132737 1.822685,0.02242 0.247047,-0.181503 0.418187,-0.644326 0.489088,-1.322667 0.04047,-0.387203 0.120271,-0.704005 0.177334,-0.704005 0.166519,0 0.333115,0.560678 0.333115,1.121094 0,0.411973 0.03606,0.503985 0.176389,0.450134 0.13602,-0.0522 0.176389,-0.278522 0.176389,-0.988906 0,-0.506671 0.04737,-0.950497 0.105271,-0.98628 0.143494,-0.08868 0.24714,0.217693 0.249308,0.736955 0.0023,0.543836 0.132547,0.75665 0.400296,0.653905 0.212472,-0.08153 0.214613,-0.556132 0.0062,-1.369078 -0.06222,-0.242679 -0.04018,-0.323379 0.08831,-0.323379 0.187353,0 0.444158,0.471855 0.444158,0.8161 0,0.30533 0.295105,0.383276 0.518118,0.136849 0.438267,-0.48428 0.01791,-1.645862 -0.961913,-2.658042 -0.591971,-0.611522 -1.685567,-1.588195 -2.087443,-1.864262 -0.518956,-0.356494 -1.606177,-0.663978 -2.347733,-0.663978 -0.663198,0 -1.291681,-0.152119 -1.471029,-0.35605 -0.03234,-0.03677 -0.244005,-0.194048 -0.470371,-0.349506 -0.226365,-0.155457 -0.438032,-0.311995 -0.47037,-0.34786 -0.03234,-0.03587 -0.307934,-0.250082 -0.612437,-0.476036 -1.177941,-0.874085 -4.839936,-4.750838 -6.719526,-7.113603 -0.3087,-0.388055 -0.63738,-0.798764 -0.7304,-0.912686 -0.22285,-0.272936 -0.21498,-1.00421 0.0169,-1.571795 0.10232,-0.250433 0.76867,-1.631679 1.48079,-3.069435 0.78865,-1.592286 1.31954,-2.810366 1.35816,-3.116203 0.0398,-0.315444 0.16225,-0.589533 0.32929,-0.737287 0.14624,-0.129352 0.43962,-0.552685 0.65195,-0.940741 0.70424,-1.287013 1.515637,-2.937658 1.518153,-3.088401 0.0014,-0.08172 0.05024,-0.240472 0.108612,-0.352777 0.364594,-0.701461 0.450947,-2.129273 0.18825,-3.112647 -0.04723,-0.17678 -0.05113,-0.411934 -0.0087,-0.522564 0.06416,-0.167192 0.115719,-0.137785 0.305459,0.174218 l 0.228273,0.375364 0.472865,-0.189203 c 0.260076,-0.104062 0.833771,-0.196572 1.274878,-0.205578 l 0.802013,-0.01637 -0.0089,-1.646296 c -0.01007,-1.861347 0.132351,-2.508585 0.667929,-3.035539 0.373911,-0.36789 0.598077,-0.364696 0.653291,0.0093 0.02408,0.163096 -0.06852,0.31682 -0.270594,0.449224 -0.571635,0.374549 -0.689095,0.788421 -0.682749,2.405676 0.0062,1.579363 -0.0081,1.526179 0.823103,3.052348 0.67756,1.244 0.869301,1.504937 1.329768,1.809659 0.552183,0.365418 0.67124,0.373509 1.056924,0.07182 0.16169,-0.126475 0.399815,-0.231942 0.529167,-0.234371 0.491916,-0.0092 0.587924,-0.172024 0.413376,-0.700909 -0.242452,-0.734638 -0.06779,-0.833099 0.88685,-0.499928 l 0.762922,0.266261 0.287627,-0.326869 c 0.310252,-0.352582 0.363386,-0.503258 0.177466,-0.503258 -0.06468,0 -0.117593,-0.181367 -0.117593,-0.403039 0,-0.295348 0.08279,-0.46816 0.30984,-0.646759 0.364405,-0.286641 0.630901,-0.315082 0.630901,-0.06733 0,0.09701 -0.0729,0.176389 -0.16199,0.176389 -0.252722,0 -0.453311,0.316578 -0.368968,0.58232 0.05905,0.186044 0.176284,0.240828 0.515364,0.240828 0.24141,0 0.504631,0.0657 0.584935,0.146008 0.199266,0.199266 0.344189,-0.04661 0.432604,-0.733971 0.03744,-0.291042 0.122133,-0.766033 0.188212,-1.055536 0.09459,-0.414417 0.0871,-0.536859 -0.03524,-0.575687 -0.229561,-0.07286 -1.037327,-0.969743 -1.037327,-1.151769 0,-0.264451 0.229122,-0.17591 0.623357,0.240888 0.458091,0.48431 0.883,0.604394 1.243969,0.351562 l 0.264264,-0.185098 -0.202867,-0.224165 c -0.289179,-0.31954 -0.848929,-0.576145 -1.431752,-0.656356 l -0.502566,-0.06916 0.236474,-0.165634 c 0.37854,-0.265139 1.628839,0.04106 2.00158,0.490179 0.0815,0.09821 0.186308,0.178559 0.232897,0.178559 0.116454,0 0.537742,-0.897712 0.689815,-1.469907 0.302471,-1.138094 0.299529,-1.151262 -0.426635,-1.909254 -0.835259,-0.871868 -1.023065,-1.104199 -1.254749,-1.552226 -0.207877,-0.40199 -0.723245,-0.713057 -1.181375,-0.713057 -0.168977,0 -0.634625,0.150994 -1.034775,0.335543 -1.161007,0.535454 -1.363168,0.605094 -1.762012,0.606968 -0.207154,9.74e-4 -0.580995,0.07291 -0.830759,0.159868 -0.463393,0.161328 -1.250977,0.795005 -1.250977,1.006518 0,0.156405 -0.374498,0.342068 -0.557535,0.276405 -0.162113,-0.05816 -0.439918,-0.623641 -0.550802,-1.121182 -0.09267,-0.415808 -0.391001,-0.415925 -0.549054,-2.15e-4 -0.06758,0.177741 -0.194651,0.402637 -0.282388,0.499769 -0.08774,0.09713 -0.176657,0.38827 -0.197602,0.646974 -0.04855,0.599608 -0.217772,0.566382 -0.414479,-0.08138 -0.242311,-0.797936 0.05328,-1.89178 0.651276,-2.410041 0.947129,-0.820847 1.90674,-0.09542 1.733895,1.310749 l -0.07286,0.592707 0.23475,-0.293981 c 0.129112,-0.16169 0.235927,-0.323925 0.237365,-0.360522 0.0049,-0.125584 0.916577,-0.580219 1.163465,-0.580219 0.337943,0 1.315423,-0.23569 1.602575,-0.386413 0.129352,-0.0679 0.507961,-0.273312 0.841353,-0.45648 0.333392,-0.183168 0.745604,-0.333033 0.916027,-0.333033 0.421186,0 1.114023,0.369488 1.580947,0.843113 l 0.386069,0.391609 0.342663,-0.407132 c 0.344753,-0.409614 0.415761,-0.745387 0.355311,-1.680136 -0.01569,-0.242535 0.0089,-0.440972 0.05465,-0.440972 0.210911,0 0.395931,0.464604 0.399335,1.00277 0.0039,0.62067 -0.126766,0.897128 -0.727797,1.53954 l -0.343217,0.366847 0.446577,0.368106 c 0.245618,0.202459 0.500666,0.368042 0.566775,0.367963 0.06611,-7.9e-5 0.27395,-0.13237 0.461868,-0.293981 0.387711,-0.333433 0.540275,-0.369016 0.540275,-0.12601 0,0.09231 -0.197265,0.33043 -0.438367,0.529166 -0.480696,0.396231 -0.403986,0.45563 0.2406,0.186304 0.659756,-0.275664 1.020915,-0.84091 1.020915,-1.597826 v -0.633532 l -0.646759,-0.597134 c -0.47693,-0.440336 -0.64676,-0.680536 -0.64676,-0.914752 0,-0.526769 -0.476849,-1.397006 -1.108713,-2.023374 -0.793875,-0.786968 -1.166077,-0.95042 -2.826346,-1.241186 -0.450893,-0.07897 -1.105947,-0.300965 -1.457742,-0.494032 -0.565323,-0.310254 -0.741182,-0.348253 -1.527339,-0.330025 -1.303293,0.03022 -1.614157,0.216763 -3.371692,2.023299 l -1.531184,1.573876 -0.262103,0.779788 c -0.144156,0.428883 -0.262103,0.891145 -0.262103,1.027247 0,0.310809 -0.217014,1.227646 -0.430006,1.816688 -0.08924,0.246798 -0.131474,0.498528 -0.09385,0.559401 0.144761,0.234228 0.830702,0.493575 1.341908,0.507361 l 0.534266,0.01441 v 0.293387 0.293387 l -0.587963,0.0291 c -0.37384,0.0185 -0.759261,-0.049 -1.058333,-0.185357 l -0.470371,-0.214458 -0.631779,0.288773 c -0.538897,0.246318 -0.895608,0.302661 -2.426321,0.38324 -2.8318,0.149071 -3.90676,0.385938 -5.70255,1.25656 -0.78541,0.380777 -2.1955,1.242709 -2.35185,1.437591 -0.0323,0.04031 -0.244,0.201592 -0.47037,0.358408 -0.22637,0.156816 -0.51697,0.381784 -0.64579,0.49993 -0.35159,0.322463 -2.22245,1.628423 -2.85553,1.993312 -3.1114,1.793331 -4.63266,2.086081 -8.43433,1.623103 -0.51741,-0.06301 -1.20532,-0.171224 -1.5287,-0.240473 -0.32338,-0.06925 -0.73413,-0.156098 -0.91278,-0.192998 -0.17865,-0.0369 -0.35376,-0.113905 -0.38912,-0.171124 -0.0354,-0.05722 -0.16773,-0.104035 -0.29414,-0.104035 -0.12641,0 -0.32172,-0.04674 -0.43403,-0.103873 -0.11231,-0.05713 -0.33648,-0.155997 -0.49817,-0.219705 -0.3968,-0.156342 -1.53722,-0.72691 -2.46945,-1.235494 -2.68686,-1.465842 -6.13835,-1.450334 -8.58705,0.03858 -0.35418,0.21536 -0.67042,0.420976 -0.70276,0.456926 -0.0323,0.03595 -0.27046,0.222967 -0.52917,0.415592 -1.60429,1.194521 -3.39161,3.663666 -3.65035,5.042894 -0.0647,0.345092 -0.28184,0.651075 -0.9218,1.299199 -3.05989,3.098941 -4.96314,5.10946 -6.13114,6.47671 -0.38675,0.452731 -0.73102,0.849606 -0.76502,0.881944 -0.034,0.03234 -0.24431,0.296922 -0.46734,0.587963 -0.22302,0.291042 -0.43428,0.555625 -0.46947,0.587963 -0.11362,0.104431 -1.71629,2.275621 -2.10374,2.850019 -0.20663,0.30633 -0.68851,1.095269 -1.07083,1.753199 -0.53811,0.926023 -0.6699,1.243387 -0.58341,1.404981 0.16468,0.307719 0.13593,0.576986 -0.0616,0.576986 -0.0953,0 -0.55846,-0.152988 -1.02916,-0.339973 -0.80245,-0.318764 -1.51027,-0.512417 -3.01042,-0.823616 -0.78836,-0.163541 -3.87538,-0.169131 -4.99546,-0.009 -2.0371,0.291146 -3.01771,0.474375 -5.96108,1.113838 -4.34589,0.944167 -5.39659,1.073354 -6.82109,0.838672 -1.23003,-0.202644 -1.60072,-0.354277 -2.84253,-1.162746 -1.33695,-0.870411 -1.42433,-0.910648 -1.9776,-0.910648 -0.48102,0 -1.62662,0.454843 -1.85827,0.737799 -0.0649,0.07928 -0.18069,0.567479 -0.2573,1.084886 -0.15569,1.051543 -0.32454,1.780072 -0.48338,2.085673 -0.0584,0.112305 -0.10613,0.262994 -0.10613,0.334865 0,0.22045 -0.95226,2.106302 -1.62791,3.223906 -0.71256,1.178656 -1.89534,3.547247 -1.90813,3.821161 -0.005,0.115505 -0.0404,0.09529 -0.10064,-0.0582 -0.0508,-0.129352 -0.0533,-0.367477 -0.005,-0.529167 0.0478,-0.16169 0.15795,-0.532106 0.24477,-0.823148 0.21348,-0.715639 0.63706,-1.574562 1.53678,-3.116203 0.98479,-1.68741 1.50668,-2.771239 1.84429,-3.830108 0.19586,-0.614318 0.18202,-0.637035 -0.39816,-0.653131 -1.09482,-0.03037 -2.15157,-0.449302 -3.23092,-1.280844 -0.35572,-0.274049 -0.79041,-0.531761 -0.96599,-0.572692 -0.83349,-0.194306 -1.28975,-1.407846 -1.05173,-2.797344 0.22709,-1.325642 0.27138,-1.468717 0.55792,-1.80219 0.15536,-0.1808 0.3335,-0.513548 0.39587,-0.739441 0.30023,-1.087336 1.17355,-1.282525 2.21284,-0.494577 0.34087,0.258426 0.67623,0.469865 0.74525,0.469865 0.069,0 0.46483,0.189762 0.87956,0.421695 0.54826,0.306606 0.75406,0.374722 0.75406,0.249583 0,-0.09466 -0.0775,-0.236425 -0.17221,-0.315032 -0.31067,-0.257829 -0.97394,-1.345821 -1.12201,-1.840473 -0.24765,-0.827327 0.13331,-1.57318 0.80354,-1.57318 0.12668,0 0.26235,-0.08344 0.30148,-0.185418 0.048,-0.1252 0.19535,-0.176522 0.45356,-0.158027 0.21032,0.01506 0.6099,-0.03653 0.88795,-0.114653 0.27805,-0.07812 0.59555,-0.115513 0.70555,-0.08309 0.13414,0.03954 0.27798,-0.06495 0.43678,-0.31729 0.30053,-0.477559 0.63976,-0.520177 1.60355,-0.201455 1.30718,0.43228 3.37607,0.430437 6.80274,-0.0061 2.91655,-0.371517 11.44743,-0.6114 12.6706,-0.35629 0.33955,0.07082 0.92163,0.189567 1.29352,0.263886 0.87647,0.175157 1.58362,0.357017 3.028,0.778722 l 1.17593,0.343325 0.23519,-0.247923 c 0.24458,-0.257833 2.01618,-1.701229 3.3676,-2.74373 1.1088,-0.855346 4.40395,-3.086815 4.55821,-3.086815 0.0711,0 0.12928,-0.05292 0.12928,-0.117593 0,-0.06468 0.0566,-0.117593 0.1258,-0.117593 0.0692,0 0.35654,-0.15875 0.63855,-0.352777 0.28201,-0.194028 0.54796,-0.352778 0.591,-0.352778 0.043,0 0.21871,-0.09796 0.39039,-0.217686 0.28636,-0.199713 1.14513,-0.678339 2.84984,-1.588328 0.38217,-0.204007 0.71357,-0.477071 0.79354,-0.653855 0.36315,-0.80278 2.60249,-3.075109 3.85627,-3.913065 1.77631,-1.187188 3.89977,-1.623708 6.14568,-1.263365 1.64299,0.263607 2.04627,0.399786 3.3349,1.126114 0.72335,0.407711 1.60811,0.853827 1.96613,0.99137 0.35803,0.137542 0.75679,0.293418 0.88614,0.34639 1.34785,0.551975 4.64556,0.990477 6.58519,0.875642 1.74872,-0.103532 2.72832,-0.408445 3.83407,-1.193409 0.29782,-0.211417 0.57184,-0.35405 0.60892,-0.316962 0.0991,0.09907 2.76799,-1.665282 3.14173,-2.076917 0.0323,-0.03562 0.244,-0.191952 0.47037,-0.34741 0.22636,-0.155457 0.43803,-0.316118 0.47037,-0.357024 0.1625,-0.205555 2.27193,-1.525838 2.93981,-1.84002 1.78866,-0.841409 2.94412,-1.095398 5.46806,-1.201969 2.574905,-0.108724 2.703561,-0.163485 3.137289,-1.335361 0.173288,-0.4682 0.379733,-1.301065 0.458767,-1.85081 0.227555,-1.582833 0.567929,-2.159835 2.370522,-4.018502 0.857641,-0.88432 1.744555,-1.700014 1.970921,-1.812653 0.305761,-0.152146 0.688553,-0.202792 1.488921,-0.196995 l 1.077347,0.0078 0.745338,0.412904 c 0.528767,0.292928 1.018687,0.454503 1.686079,0.556067 1.973155,0.300274 3.172404,1.296011 3.713577,3.083381 0.183638,0.606515 0.324644,0.820688 0.838721,1.273929 l 0.617971,0.544838 -5.97e-4,0.985956 c -7.2e-4,1.187735 -0.210635,1.633345 -1.018404,2.161882 l -0.539154,0.352777 -0.261341,0.940741 c -0.143737,0.517407 -0.330967,1.099638 -0.416066,1.293846 -0.25179,0.57462 -0.848537,1.331274 -1.265484,1.604589 -0.394749,0.258765 -0.669686,0.853625 -0.669686,1.448951 0,0.16178 -0.06552,0.539133 -0.145609,0.838562 -0.170025,0.635704 -0.456074,0.800099 -1.19847,0.68877 l -0.482769,-0.0724 -0.402068,0.441842 c -0.273082,0.300097 -0.329001,0.411388 -0.174307,0.346912 0.537219,-0.223915 0.79265,-0.199936 1.49744,0.140572 1.123161,0.542638 1.350309,0.617888 1.865135,0.617888 0.452276,0 0.902242,-0.276845 1.81485,-1.116601 0.0706,-0.06497 0.304931,-0.250412 0.520729,-0.412102 0.215799,-0.16169 0.536088,-0.413044 0.711755,-0.558565 0.34407,-0.285024 0.582318,-0.326482 0.9044,-0.157373 0.112306,0.05897 0.521692,0.169845 0.909747,0.246399 0.388056,0.07655 0.827108,0.187059 0.975672,0.245567 0.148564,0.05851 0.423254,0.106379 0.610421,0.106379 0.187168,0 0.373009,0.05292 0.412981,0.117593 0.03997,0.06468 0.251639,0.117592 0.470371,0.117592 0.218731,0 0.426785,0.04707 0.46234,0.1046 0.03556,0.05753 0.250345,0.136905 0.47731,0.176389 0.226966,0.03948 0.598363,0.104094 0.825328,0.143578 0.226966,0.03948 0.441755,0.118859 0.477311,0.176389 0.03555,0.05753 0.171255,0.1046 0.301556,0.1046 0.331077,0 1.628699,0.447613 3.731304,1.287108 1.749401,0.698474 3.043144,1.141133 4.83735,1.655117 0.48507,0.138957 0.973831,0.301094 1.086136,0.360304 0.112306,0.05921 0.258403,0.107656 0.324662,0.107656 0.466735,0 2.314136,1.146173 2.91138,1.806292 0.396996,0.438789 0.851896,1.17245 0.851896,1.373933 0,0.183178 0.512856,0.92396 0.686886,0.992156 0.273952,0.107351 0.893633,-0.281927 1.077003,-0.676565 0.09701,-0.208787 0.271535,-0.397212 0.387825,-0.418721 0.388308,-0.07182 0.552916,0.203151 0.552916,0.923634 0,0.583106 -0.05904,0.767067 -0.416749,1.298627 -0.229212,0.340608 -0.513634,0.90627 -0.632049,1.257027 -0.274883,0.814231 -0.450676,0.981882 -1.107155,1.055877 -1.344635,0.15156 -2.095681,-0.23901 -2.775318,-1.44326 -0.199323,-0.353182 -0.387337,-0.642149 -0.417807,-0.642149 -0.03047,0 -0.163216,0.211335 -0.294991,0.469634 -0.162348,0.31823 -0.376255,0.526736 -0.66351,0.646759 -1.227921,0.513058 -1.712194,-0.128694 -0.991835,-1.314367 l 0.344105,-0.566378 -0.134887,-0.555255 -0.134888,-0.555255 -0.532597,-0.225549 c -0.834611,-0.35345 -2.514518,-0.684332 -5.412689,-1.066108 -1.615412,-0.212798 -2.604607,-0.365646 -3.263854,-0.50432 -0.339911,-0.0715 -0.652738,-0.09528 -0.695172,-0.05285 -0.04243,0.04243 -0.0085,0.30231 0.07535,0.577504 0.480665,1.577031 0.591081,2.301172 0.591081,3.876468 0,0.779842 -0.05711,1.635701 -0.126902,1.901908 -0.0698,0.266207 -0.181662,0.69568 -0.248589,0.954384 -0.266203,1.028991 -0.885772,2.261993 -1.647872,3.279421 -0.891895,1.19071 -2.640311,2.86957 -3.817975,3.666089 -1.115871,0.754724 -3.077728,2.256201 -3.493613,2.67378 -0.14159,0.142168 -0.439281,0.52307 -0.661535,0.846449 l -0.404099,0.587963 0.0073,0.857525 c 0.0061,0.711979 -0.02349,0.851595 -0.174128,0.822585 -0.334952,-0.0645 -0.839067,-1.382597 -0.839067,-2.193876 v -0.497069 l -0.499769,0.341855 c -0.536718,0.367131 -1.767914,0.845369 -2.176352,0.845369 -0.137398,0 -0.2788,0.0469 -0.314228,0.104223 -0.09147,0.147999 0.353006,0.245081 1.13061,0.246949 0.822552,0.002 1.201581,0.137934 1.45261,0.521053 0.159877,0.244003 0.170081,0.36461 0.05926,0.700406 -0.140475,0.425645 -0.309486,0.544035 -0.776651,0.544035 h -0.282139 l 0.400482,0.734954 c 0.473096,0.868211 0.618615,1.656442 0.418017,2.26426 -0.110865,0.335925 -0.248712,0.475619 -0.631056,0.639511 -0.269063,0.115333 -0.561081,0.296302 -0.648929,0.402153 -0.08785,0.10585 -0.202091,0.192455 -0.253873,0.192455 -0.05178,0 -0.252898,0.15875 -0.446926,0.352778 -0.194028,0.194028 -0.475911,0.352976 -0.626407,0.353217 -0.150495,2.42e-4 -0.446887,0.106075 -0.658647,0.235185 -0.304952,0.18593 -0.592616,0.234746 -1.383308,0.234746 -1.279164,0 -1.852129,-0.297719 -1.788089,-0.929111 0.04219,-0.415996 0.536716,-0.719865 1.299676,-0.798609 0.437966,-0.0452 0.66924,-0.122274 0.66924,-0.223025 0,-0.168388 -0.560879,-0.622848 -1.11713,-0.90517 -0.491515,-0.249465 -0.77759,-0.524486 -1.217655,-1.170607 -0.512422,-0.752358 -1.455218,-1.380319 -4.105132,-2.734273 -1.515421,-0.774293 -1.956751,-0.85965 -3.335661,-0.645143 -2.01896,0.314074 -3.45152,1.083666 -4.31869,2.320059 -0.14742,0.210197 -0.32424,0.382176 -0.39292,0.382176 -0.20534,0 -0.0373,-0.963696 0.29443,-1.688215 l 0.30382,-0.663637 -1.31641,-2e-5 c -1.60217,-2.4e-5 -2.5678,-0.169404 -4.73495,-0.830549 -0.51367,-0.156709 -1.53556,-0.13632 -1.84533,0.03682 -0.14464,0.08085 -0.4042,0.271834 -0.57681,0.42442 -0.45663,0.403679 -0.60848,0.240318 -0.50992,-0.548577 0.0829,-0.663329 0.24299,-1.202582 0.39013,-1.313958 0.0445,-0.03365 0.13876,-0.167023 0.20956,-0.296375 0.0708,-0.129352 0.35012,-0.405181 0.62072,-0.612953 0.2706,-0.207772 0.47726,-0.415838 0.45924,-0.462368 -0.0457,-0.117978 -3.88019,-1.390454 -4.72066,-1.566543 -0.54075,-0.113297 -0.80747,-0.113876 -1.23472,-0.0027 -0.90904,0.236585 -2.13158,0.816449 -3.60577,1.710257 -1.10811,0.671846 -2.28458,1.207593 -3.18525,1.450507 -0.57352,0.15468 -3.09214,0.17494 -3.4792,0.02799 -0.14857,-0.0564 -0.48179,-0.165736 -0.74049,-0.242958 -0.67867,-0.202582 -0.78927,-0.251493 -2.40618,-1.06406 l -1.46545,-0.736447 -0.71002,0.06667 c -0.39051,0.03667 -1.66252,0.252832 -2.82668,0.480366 -1.16417,0.227535 -2.42443,0.471516 -2.80058,0.542182 -0.37614,0.07067 -1.60235,0.11916 -2.7249,0.107766 l -2.04099,-0.02072 -0.3913,0.27522 c -0.21522,0.151371 -0.44829,0.329878 -0.51795,0.396682 -0.0696,0.06681 -0.30777,0.281865 -0.52916,0.477911 -0.22139,0.196046 -0.85232,0.852668 -1.40207,1.459159 -1.75779,1.939233 -2.86136,2.405787 -5.07426,2.145241 -1.8064,-0.212685 -3.76878,-0.360217 -6.56741,-0.493737 -1.4552,-0.06943 -3.175,-0.175547 -3.82175,-0.235825 -0.64676,-0.06028 -2.09997,-0.197602 -3.22936,-0.305167 -1.51025,-0.143839 -2.5834,-0.175498 -4.05694,-0.119683 -1.10194,0.04174 -3.09772,0.109801 -4.43508,0.151248 -1.33736,0.04145 -2.4781,0.107299 -2.53497,0.146337 -0.0569,0.03904 -0.44277,0.52077 -0.85755,1.070516 -1.00025,1.325723 -1.2538,1.614347 -2.63997,3.005195 -1.29938,1.303751 -2.46382,2.324552 -2.71867,2.383288 -0.10547,0.02431 -0.16432,-0.0605 -0.16316,-0.235186 z m 78.81533,-6.711399 c 1.0873,-0.826933 2.5783,-1.381713 3.71342,-1.381713 0.48505,0 0.58706,-0.0338 0.53234,-0.176389 -0.0372,-0.09701 -0.12,-0.176388 -0.18394,-0.176388 -0.0639,0 -0.28011,-0.116673 -0.48037,-0.259273 -0.38151,-0.271658 -1.08798,-0.323726 -1.55182,-0.114371 -0.98313,0.443744 -0.93088,0.411847 -1.68333,1.027563 -0.33645,0.275308 -1.07401,1.462747 -0.90856,1.462747 0.0329,0 0.28589,-0.171979 0.56226,-0.382176 z m 17.079626,0.200755 c -0.403322,-0.18378 -1.11713,-0.224395 -1.11713,-0.06356 0,0.156306 0.217909,0.210077 0.881945,0.217627 l 0.587963,0.0067 z m -15.800256,-2.424441 c 0.34695,-0.172043 0.72342,-0.342362 0.8366,-0.378485 0.32687,-0.104324 0.24549,-0.217675 -0.53289,-0.742225 -0.40218,-0.271026 -0.83775,-0.588526 -0.96794,-0.705555 -0.5937,-0.533669 -0.64252,-0.555133 -0.7959,-0.349927 -0.28146,0.376548 -1.82917,0.55851 -4.55304,0.535294 -2.76537,-0.02357 -2.86802,-0.0046 -3.85116,0.709968 -0.39191,0.284868 -0.49977,0.437746 -0.49977,0.708368 0,0.189805 -0.0529,0.377804 -0.11759,0.417776 -0.22475,0.138906 -0.12088,0.411574 0.15679,0.411574 0.15091,0 0.31223,-0.03784 0.35848,-0.08409 0.0463,-0.04625 0.31771,-0.14341 0.60324,-0.21591 0.48637,-0.123494 1.43408,-0.02864 2.05649,0.205825 0.097,0.03655 0.41451,0.13174 0.70556,0.211543 0.29104,0.0798 0.68494,0.202543 0.87533,0.272755 0.19039,0.07021 1.12902,0.130221 2.08584,0.133353 1.37595,0.0045 1.75287,0.04 1.80277,0.169777 0.0444,0.115339 0.23291,-0.0069 0.63474,-0.411574 0.3144,-0.316612 0.85551,-0.71642 1.20245,-0.888464 z m 14.674777,0.472424 c 0.681967,-0.218211 1.875815,-0.825215 2.183063,-1.109963 0.15687,-0.145382 0.318175,-0.414362 0.358454,-0.597734 0.175804,-0.800336 0.835507,-1.882692 1.639762,-2.690307 0.453615,-0.45551 0.983505,-0.941088 1.177533,-1.079062 0.194028,-0.137973 0.776111,-0.550643 1.293519,-0.917044 1.855494,-1.313964 2.757849,-2.458263 3.39891,-4.310237 0.534956,-1.545448 0.909544,-1.543772 0.468231,0.0021 -0.534864,1.873563 -1.827732,3.523409 -3.979349,5.078103 -1.79907,1.299953 -3.121589,2.794837 -3.121589,3.528427 0,0.119423 -0.05292,0.249837 -0.117592,0.289809 -0.06468,0.03997 -0.113415,0.42674 -0.108309,0.859486 0.0051,0.432745 0.03845,0.713221 0.07411,0.623279 0.250584,-0.632133 1.614581,-1.865651 3.339511,-3.020058 2.402096,-1.6076 4.673124,-3.942432 5.596223,-5.753447 0.386696,-0.758655 0.666636,-1.465585 0.838188,-2.116667 0.413229,-1.568311 0.450556,-2.721274 0.138959,-4.292129 -0.07056,-0.355718 -0.158393,-0.819229 -0.195183,-1.030025 -0.03679,-0.210796 -0.113961,-0.412357 -0.171491,-0.447912 -0.05753,-0.03556 -0.1046,-0.156807 -0.1046,-0.269448 0,-0.112641 -0.06615,-0.34723 -0.146991,-0.521309 -0.114426,-0.246389 -0.23012,-0.316711 -0.522226,-0.317425 -0.20638,-5.05e-4 -0.407941,-0.05383 -0.447913,-0.11851 -0.03997,-0.06468 -0.22518,-0.117593 -0.411574,-0.117593 -0.186393,0 -0.371602,-0.05292 -0.411574,-0.117593 -0.03997,-0.06467 -0.176104,-0.117592 -0.302517,-0.117592 -0.126412,0 -0.321727,-0.04674 -0.434032,-0.103873 -0.112305,-0.05713 -0.362941,-0.169137 -0.556969,-0.248905 -0.194028,-0.07977 -0.444664,-0.191775 -0.556969,-0.248905 -0.335128,-0.17048 -0.615244,-0.119189 -0.798785,0.146263 -1.38186,1.998565 -2.971374,3.913757 -4.634118,5.583608 -1.940188,1.94848 -2.959526,2.439876 -5.063832,2.441136 -0.705424,4.23e-4 -1.281789,-0.05682 -1.440509,-0.143077 -0.145521,-0.07908 -0.263356,-0.102233 -0.261855,-0.05145 0.0045,0.153354 0.73423,0.904578 1.173198,1.207806 0.226365,0.156368 0.438032,0.313398 0.47037,0.348955 0.07085,0.07791 0.498835,0.277426 1.058333,0.493379 0.498295,0.19233 3.324572,0.204815 3.835301,0.01694 0.18658,-0.06863 0.577361,-0.195061 0.868403,-0.280949 0.291042,-0.08589 0.860656,-0.330151 1.265809,-0.542805 0.814401,-0.427457 0.96845,-0.463387 0.96845,-0.225881 0,0.41458 -1.913209,1.297216 -3.476117,1.603665 -0.705483,0.138328 -2.781198,0.102374 -3.538215,-0.06129 l -0.370351,-0.08007 -1.099557,0.874991 c -2.223656,1.769514 -4.52477,3.128922 -6.332426,3.74095 -0.420394,0.142335 -0.777917,0.269968 -0.794496,0.283628 -0.06383,0.05259 0.506,0.59955 2.151311,2.064977 0.256228,0.228214 0.651078,0.544276 0.877444,0.70236 0.226366,0.158083 0.505045,0.372977 0.619287,0.477543 0.138931,0.127164 0.656608,0.241825 1.563329,0.346263 0.745589,0.08588 1.382846,0.200201 1.416125,0.254049 0.09056,0.14652 2.142521,0.118023 2.625317,-0.03646 z m -6.929614,-1.967904 c 0,-0.204875 0.310569,-0.340447 1.234722,-0.538993 3.611639,-0.775927 6.500962,-1.94563 9.960257,-4.032274 1.074676,-0.648242 1.269836,-0.718643 1.269836,-0.458069 0,0.159294 -1.538232,1.251975 -1.76248,1.251975 -0.06545,0 -0.119414,0.03969 -0.119919,0.08819 -5.05e-4,0.04851 -0.119567,0.145369 -0.264583,0.21525 -0.145017,0.06988 -0.769781,0.392573 -1.388365,0.717095 -1.952415,1.024275 -4.543139,1.974018 -6.998261,2.565517 -1.262937,0.304273 -1.931207,0.370471 -1.931207,0.191304 z m -29.897183,0.509604 c 0.27528,-0.04316 0.52976,-0.125802 0.56551,-0.183646 0.0358,-0.05784 0.14183,-0.105171 0.23573,-0.105171 0.25822,0 1.14478,-0.436714 2.56005,-1.261068 0.70111,-0.408379 1.6969,-0.953161 2.21287,-1.210627 l 0.93812,-0.46812 h 0.95378 c 0.52458,0 1.11628,0.05303 1.3149,0.117856 0.19862,0.06482 1.23642,0.406906 2.30621,0.76019 2.30317,0.760591 3.76062,1.020794 5.75724,1.027862 1.30598,0.0046 3.18482,-0.181864 3.44747,-0.342184 0.0528,-0.03226 -0.2382,-0.411513 -0.64676,-0.842791 -1.05532,-1.113989 -1.40233,-1.522744 -1.8599,-2.19084 -0.22148,-0.32338 -0.50701,-0.673033 -0.63451,-0.777008 l -0.23182,-0.189045 0.147,-1.045677 c 0.0808,-0.575122 0.19386,-1.230885 0.25115,-1.457251 0.0573,-0.226366 0.13313,-0.557095 0.16854,-0.734954 0.15505,-0.778812 0.20531,-0.983972 0.29528,-1.205324 0.31765,-0.781539 0.67095,-2.122411 0.56905,-2.159729 -0.0647,-0.02369 -0.23143,0.01202 -0.37057,0.07934 -0.13915,0.06732 -0.41174,0.155212 -0.60577,0.195317 -0.19403,0.0401 -0.56444,0.123602 -0.82315,0.18555 -3.76042,0.90046 -10.76267,1.332225 -13.34676,0.822974 -1.75087,-0.345049 -2.43846,-0.505077 -3.64537,-0.84841 -0.22636,-0.0644 -0.55774,-0.145286 -0.73639,-0.179757 -0.17865,-0.03447 -0.35375,-0.109491 -0.38911,-0.16671 -0.0354,-0.05722 -0.19035,-0.104034 -0.3444,-0.104034 -0.15406,0 -0.31281,-0.05292 -0.35278,-0.117593 -0.04,-0.06468 -0.19872,-0.117592 -0.35278,-0.117592 -0.15405,0 -0.3128,-0.05292 -0.35278,-0.117593 -0.04,-0.06468 -0.1761,-0.117593 -0.30251,-0.117593 -0.12642,0 -0.33496,-0.05292 -0.46343,-0.117592 -0.12848,-0.06468 -0.33871,-0.170509 -0.46718,-0.235185 -0.12848,-0.06468 -0.33702,-0.117593 -0.46343,-0.117593 -0.12642,0 -0.25864,-0.0466 -0.29384,-0.103552 -0.0352,-0.05695 -0.20113,-0.129765 -0.36873,-0.161804 -0.31881,-0.06094 -0.75708,0.275692 -0.75708,0.581511 0,0.08482 -0.0529,0.154215 -0.11759,0.154215 -0.0647,0 -0.1176,0.05163 -0.1176,0.114731 0,0.155725 -1.43379,2.363948 -2.10156,3.236658 -0.79208,1.035183 -2.35611,2.629993 -3.90687,3.983759 -1.2794,1.116878 -1.67411,1.449527 -2.69342,2.269924 -0.22636,0.182191 -0.51169,0.42162 -0.63405,0.532063 -0.12237,0.110444 -0.69093,0.530893 -1.26346,0.934332 -0.6997,0.493042 -0.993,0.763991 -0.89465,0.826451 0.4385,0.278463 2.94619,0.0057 6.66431,-0.724946 1.32123,-0.259626 2.61307,-0.472047 2.87075,-0.472047 0.35129,0 0.83886,0.196019 1.94869,0.783432 0.81409,0.430887 1.82413,0.931586 2.24452,1.112664 l 0.76436,0.329232 1.41111,-0.04707 c 0.77611,-0.02589 1.63634,-0.08239 1.91161,-0.125549 z m -56.063,-1.365345 c 0,-0.334211 0.262,-0.937396 0.52916,-1.218244 0.50264,-0.528385 0.94552,-0.697958 1.8305,-0.700879 1.01241,-0.0033 1.12582,0.04116 2.57923,1.012132 1.38562,0.925687 2.02506,1.093766 3.8186,1.003737 1.38162,-0.06935 3.40053,-0.387685 5.76519,-0.909028 1.47158,-0.324442 2.77522,-0.575706 4.29213,-0.827265 1.47681,-0.244908 3.33057,-0.358198 4.83876,-0.295715 1.71565,0.07108 2.16154,0.152027 3.78265,0.686715 0.81815,0.269848 1.07224,0.312425 1.20533,0.201974 0.0928,-0.07698 0.16863,-0.184769 0.16863,-0.239542 0,-0.18219 1.19959,-2.145397 2.21129,-3.618911 l 0.99846,-1.454239 -0.86992,0.06715 c -0.92562,0.07145 -1.98089,0.233399 -2.7514,0.422238 -0.25871,0.0634 -0.68204,0.167097 -0.94074,0.230429 -0.25871,0.06333 -0.65558,0.168602 -0.88195,0.233931 -0.22636,0.06533 -0.59678,0.170317 -0.82315,0.233306 -0.46496,0.129381 -1.46984,0.436864 -2.93981,0.899549 -0.54975,0.173037 -1.15829,0.358142 -1.35232,0.411344 -4.50286,1.23468 -7.71167,1.677036 -13.31736,1.835891 -1.79733,0.05093 -2.49884,0.03411 -2.49884,-0.05992 0,-0.07196 -0.19238,-0.130726 -0.42796,-0.130726 -0.28211,0 -0.91329,-0.235508 -1.85208,-0.691061 -0.78327,-0.380083 -1.60933,-0.759602 -1.8357,-0.843376 -0.47816,-0.176956 -2.13197,-1.005635 -3.03387,-1.520187 -0.34277,-0.195559 -0.68673,-0.355806 -0.76435,-0.356105 -0.0776,-3e-4 -0.30218,-0.14582 -0.49902,-0.32338 -0.40772,-0.367789 -0.8131,-0.616817 -1.00408,-0.616817 -0.23902,0 -0.8135,0.48359 -0.81275,0.684165 4.1e-4,0.108779 0.16008,0.28845 0.35482,0.399269 0.72569,0.41296 0.55665,0.996232 -0.18607,0.642051 -0.4399,-0.209773 -0.63986,-0.178644 -0.63986,0.09961 0,0.0929 0.20541,0.220227 0.47037,0.291574 0.39527,0.106436 0.47037,0.17534 0.47037,0.431589 v 0.304933 l -0.44098,-0.06815 c -0.24253,-0.03748 -0.57326,-0.106544 -0.73495,-0.153468 l -0.29398,-0.08532 0.16622,0.202603 c 0.0914,0.111431 0.39569,0.307138 0.67616,0.434905 0.35097,0.159888 0.50993,0.3047 0.50993,0.464549 0,0.127736 -0.0661,0.23834 -0.14699,0.245788 -0.29339,0.02703 -0.61981,-0.03624 -0.72907,-0.141301 -0.16837,-0.161912 -0.41745,-0.128947 -0.41745,0.05525 0,0.158066 0.21803,0.267987 0.82314,0.414981 0.19118,0.04644 0.29398,0.153251 0.29398,0.305444 0,0.181599 -0.0922,0.242816 -0.41157,0.273245 l -0.41157,0.03921 0.39567,0.166572 c 0.21763,0.09161 0.4916,0.166573 0.60883,0.166573 0.11723,0 0.30959,0.120677 0.42747,0.268171 0.34378,0.430153 1.02315,0.897116 1.58245,1.087688 0.66887,0.227907 2.01624,0.508846 2.13025,0.444176 0.0485,-0.02751 0.0882,-0.210718 0.0882,-0.407119 z m 83.632196,-1.730655 c 0.148565,-0.0564 0.481784,-0.165735 0.740487,-0.242958 0.790606,-0.235994 2.554694,-1.050166 2.626235,-1.212075 0.02156,-0.04879 0.09009,-0.08871 0.152301,-0.08871 0.224987,0 3.366297,-2.222279 3.910332,-2.766314 l 0.18857,-0.18857 -0.547604,-0.417996 c -0.643571,-0.491249 -0.871928,-0.717634 -1.520738,-1.507609 -0.589733,-0.718044 -0.752151,-1.01677 -0.752151,-1.383384 0,-0.443296 0.103062,-0.448441 0.648161,-0.03236 1.254092,0.95727 3.761761,0.936992 5.233775,-0.04232 1.276378,-0.84916 3.872234,-3.695491 6.150187,-6.74362 0.374589,-0.501239 0.728643,-0.911343 0.786787,-0.911343 0.05814,0 0.43882,0.154677 0.845948,0.343726 0.933891,0.43365 2.091332,0.8322 2.416818,0.8322 0.137398,0 0.279064,0.04733 0.314813,0.105171 0.03575,0.05784 0.263769,0.13453 0.506709,0.170413 0.24294,0.03588 0.732751,0.120759 1.088468,0.188614 0.622815,0.118805 1.333447,0.229761 3.028009,0.472785 0.436563,0.06261 1.137709,0.168882 1.558102,0.236163 0.420394,0.06728 1.25626,0.172368 1.857481,0.233527 1.968929,0.200288 2.842183,0.514117 3.327643,1.195882 0.132082,0.185493 0.302693,0.337804 0.379134,0.338469 0.202928,0.0018 1.338897,1.114979 1.429694,1.401055 0.0426,0.134217 0.118309,0.244032 0.168245,0.244032 0.04994,0 0.150309,0.130623 0.223051,0.290274 0.210952,0.46299 0.755525,1.021413 1.165836,1.195487 0.597956,0.253681 0.592596,0.199939 -0.04556,-0.456826 -0.63076,-0.649152 -0.903636,-1.065697 -0.779471,-1.189863 0.164486,-0.164485 0.432949,-0.05465 0.75265,0.307918 0.185343,0.210197 0.337832,0.32658 0.338865,0.258629 0.0029,-0.190536 -0.281223,-0.756449 -0.380297,-0.75748 -0.128391,-0.0013 -0.108244,-0.680201 0.02259,-0.761058 0.06093,-0.03766 0.201939,0.131199 0.313355,0.375235 0.111417,0.244037 0.308915,0.562765 0.438885,0.708286 0.233977,0.261971 0.748235,0.353046 0.965545,0.170996 0.06144,-0.05147 0.321436,-0.164813 0.577765,-0.251866 0.256329,-0.08705 0.525784,-0.21801 0.598789,-0.291015 0.240161,-0.240161 0.424331,-0.672418 0.359015,-0.842628 -0.08871,-0.231182 -0.306727,-0.210337 -0.306727,0.02933 0,0.256304 -0.337908,0.625597 -0.57679,0.63036 -0.103159,0.0021 -0.29028,0.08143 -0.415824,0.176389 -0.125545,0.09496 -0.289579,0.172649 -0.364521,0.172649 -0.134401,0 -0.994717,-1.344487 -0.994717,-1.554526 0,-0.140592 -0.686457,-1.139597 -0.995241,-1.448381 -0.632734,-0.632734 -2.156617,-1.448084 -3.41448,-1.82691 -0.258704,-0.07791 -0.576204,-0.181213 -0.705556,-0.229555 -0.129352,-0.04834 -0.446852,-0.145235 -0.705556,-0.215318 -1.450159,-0.392849 -2.694992,-0.791981 -3.527777,-1.131116 -1.482035,-0.603528 -3.810859,-1.362482 -5.232871,-1.705369 -0.483071,-0.116482 -1.740697,-0.431257 -2.410648,-0.603367 -0.258703,-0.06646 -0.632877,-0.170169 -0.831497,-0.230463 -0.198619,-0.06029 -0.579142,-0.109624 -0.845606,-0.109624 -0.266464,0 -0.517184,-0.05292 -0.557156,-0.117593 -0.127392,-0.206124 -0.774086,-0.126537 -1.157773,0.142486 -0.204012,0.143043 -0.609056,0.481509 -0.900097,0.752146 -0.291042,0.270638 -0.926042,0.820561 -1.411111,1.222051 -0.48507,0.401491 -1.093611,0.92292 -1.352315,1.158733 -0.258704,0.235813 -0.946621,0.825626 -1.528704,1.310695 -0.582083,0.485069 -1.117522,0.934861 -1.189863,0.999537 -0.448492,0.400968 -4.666258,3.523658 -5.130739,3.798623 -0.177858,0.10529 -0.323379,0.232943 -0.323379,0.283675 0,0.178604 -0.478678,0.08982 -0.552467,-0.102466 -0.07416,-0.19326 0.0023,-0.277021 0.73514,-0.804832 0.513942,-0.370179 0.664936,-0.551743 0.552417,-0.664262 -0.05917,-0.05917 -0.266232,-0.04634 -0.485506,0.0301 -0.534912,0.186472 -1.331823,0.05412 -2.494156,-0.414243 -1.223104,-0.492848 -2.172249,-0.683753 -3.15813,-0.635208 l -0.75779,0.03731 -0.68241,1.5875 c -0.37533,0.873125 -0.9152,2.06375 -1.19971,2.645833 -0.28451,0.582084 -0.61262,1.27 -0.72913,1.528704 -0.11651,0.258704 -0.24636,0.496829 -0.28855,0.529166 -0.0422,0.03234 -0.14123,0.181242 -0.22008,0.330897 -0.15014,0.284982 -0.15873,0.263658 0.36264,0.900123 0.71436,0.872072 1.68895,2.048411 1.90291,2.296828 0.13929,0.161728 0.54429,0.63575 0.90001,1.053383 1.04675,1.228943 1.10509,1.28368 1.37618,1.291206 0.14248,0.004 0.380599,-0.03896 0.529163,-0.09536 z m -73.695626,-1.08025 c 5.14168,-0.227464 8.14695,-0.723744 12.48281,-2.061369 3.66498,-1.13066 3.73017,-1.149997 4.56812,-1.355133 0.2587,-0.06333 0.68203,-0.168962 0.94074,-0.234732 0.72007,-0.183065 1.55733,-0.332104 2.52824,-0.450049 2.28933,-0.278104 2.14914,-0.24002 2.56509,-0.696821 0.2143,-0.235338 0.49571,-0.573409 0.62537,-0.751268 l 0.23574,-0.323379 -1.56611,0.0023 c -1.55178,0.0023 -4.24224,0.244575 -5.03509,0.453378 -0.88611,0.233361 -2.38812,0.774315 -3.52778,1.27054 -0.22637,0.09856 -0.53064,0.226727 -0.67616,0.284808 -0.14552,0.05808 -0.38364,0.155047 -0.52916,0.215478 -0.64385,0.267373 -2.10341,0.699751 -3.2044,0.949265 -0.32338,0.07329 -0.79963,0.181107 -1.05834,0.239601 -1.47674,0.3339 -2.89493,0.597587 -4.37271,0.81303 -1.72201,0.251049 -5.5114,0.592858 -6.57257,0.592858 h -0.60251 l -0.75249,-0.570396 c -1.48575,-1.126217 -2.67611,-2.484336 -3.41808,-3.89981 l -0.38445,-0.733422 -0.0952,0.367555 c -0.0524,0.202156 -0.11883,0.367555 -0.14766,0.367555 -0.0288,0 -0.1345,-0.15875 -0.23484,-0.352777 -0.1954,-0.377856 -0.46976,-0.488837 -0.36339,-0.146991 0.0352,0.113183 0.0177,0.279639 -0.039,0.369902 -0.0789,0.125751 -0.15376,0.07077 -0.32002,-0.235185 l -0.21699,-0.3993 -0.0595,0.56145 c -0.0682,0.643599 -0.27708,0.795806 -0.33085,0.241057 -0.0199,-0.20538 -0.11379,-0.437817 -0.20863,-0.516526 -0.25664,-0.212988 -0.29836,-0.08415 -0.0979,0.302261 0.19042,0.367029 0.18384,1.058054 -0.0101,1.058054 -0.0647,0 -0.13393,-0.114688 -0.15389,-0.254863 -0.0449,-0.315277 -0.53711,-0.862267 -0.7759,-0.862267 -0.10761,0 -0.20582,0.155324 -0.25121,0.397289 -0.0874,0.465721 0.0523,0.76812 0.82115,1.778174 0.2954,0.388056 0.59867,0.872639 0.67394,1.076852 0.10354,0.280898 0.28238,0.43522 0.73454,0.633847 0.32872,0.144403 1.23267,0.566261 2.00878,0.937464 1.24084,0.593475 1.76957,0.785005 2.70463,0.979742 0.38591,0.08037 1.50579,0.06725 4.11574,-0.04821 z m 0.32913,-1.942585 c 0.69843,-0.04017 1.41281,-0.112547 1.5875,-0.160849 l 0.31763,-0.08782 -0.52917,-0.08367 c -0.672,-0.106257 -1.68683,-0.294562 -2.29305,-0.425483 -0.25871,-0.05587 -0.69088,-0.130968 -0.96039,-0.166885 l -0.49002,-0.0653 -0.37076,0.468116 c -0.20391,0.257463 -0.335,0.525961 -0.29131,0.596662 0.0518,0.08387 0.37147,0.105905 0.91958,0.0634 0.46206,-0.03583 1.41156,-0.09801 2.10999,-0.138169 z m -3.4536,-0.779984 c 0.006,-0.292518 0.0955,-0.518751 0.27285,-0.686203 0.33505,-0.316345 0.84327,-0.284388 3.67477,0.231077 1.19559,0.217654 2.13521,0.375317 2.82222,0.473555 0.38806,0.05549 0.7885,0.134499 0.88988,0.175577 0.19651,0.07963 2.24595,-0.261867 3.87262,-0.645284 0.29104,-0.0686 0.74083,-0.17076 0.99954,-0.227021 0.2587,-0.05626 0.65558,-0.156218 0.88194,-0.222125 0.22637,-0.06591 0.59679,-0.169633 0.82315,-0.230501 0.44253,-0.118993 0.72847,-0.21467 1.14653,-0.383624 0.14552,-0.05881 0.38364,-0.154451 0.52917,-0.212533 0.14552,-0.05808 0.44979,-0.18563 0.67615,-0.28344 1.09395,-0.472684 2.46902,-0.993007 2.99861,-1.134659 0.32338,-0.0865 0.63008,-0.194223 0.68155,-0.239393 0.084,-0.0737 -1.72022,-0.616026 -3.09219,-0.929484 -1.23092,-0.28123 -3.10823,-0.39806 -5.2061,-0.323992 -3.8058,0.13437 -7.09705,0.34476 -11.35345,0.72576 l -2.15445,0.19285 -1.14214,-0.244538 c -0.62818,-0.134496 -1.28336,-0.244538 -1.45595,-0.244538 h -0.31382 l 0.62667,1.106549 c 0.79462,1.403137 1.62844,2.357289 3.00642,3.440318 0.71674,0.563331 0.79961,0.528974 0.81603,-0.338351 z m 28.04022,-4.248942 c 0.52135,-0.570964 1.92764,-2.05613 4.20047,-4.436079 2.11212,-2.211668 2.3398,-2.496418 2.3398,-2.926295 v -0.245114 l -0.85255,0.454838 c -1.07674,0.574449 -1.51761,0.825619 -2.45378,1.397956 -0.41284,0.252391 -0.88017,0.535065 -1.03852,0.628164 -0.44243,0.260128 -3.93764,2.612399 -4.00422,2.69484 -0.0323,0.04004 -0.24401,0.199992 -0.47037,0.35545 -0.22637,0.155458 -0.43804,0.314208 -0.47037,0.352778 -0.0323,0.03857 -0.24401,0.19732 -0.47037,0.352778 -0.22637,0.155457 -0.43804,0.3144 -0.47037,0.353205 -0.0323,0.03881 -0.44245,0.378045 -0.91135,0.753865 -0.4689,0.37582 -0.85254,0.700586 -0.85254,0.721701 0,0.02112 1.15093,0.01019 2.55764,-0.02427 l 2.55763,-0.06267 z m 86.353793,-0.853767 c -0.03908,-0.03907 -0.140499,-0.04325 -0.225386,-0.0093 -0.09381,0.03754 -0.06594,0.0654 0.07105,0.07105 0.123962,0.0051 0.193415,-0.02269 0.15434,-0.06176 z m -4.232905,-0.433357 c 0.453589,-0.411764 0.457465,-0.669175 0.01589,-1.055589 l -0.396049,-0.346579 -0.06094,0.51232 c -0.03352,0.281776 -0.15258,0.643154 -0.264583,0.803062 -0.112004,0.159907 -0.203643,0.332891 -0.203643,0.384409 0,0.160232 0.633292,-0.04705 0.909321,-0.297623 z m 3.088827,0.210421 c 0,-0.03234 -0.02646,-0.0588 -0.0588,-0.0588 -0.03234,0 -0.0588,0.02646 -0.0588,0.0588 0,0.03234 0.02646,0.0588 0.0588,0.0588 0.03234,0 0.0588,-0.02646 0.0588,-0.0588 z m -29.011819,-3.548817 c 0.919348,-0.690668 1.698,-1.289048 1.730338,-1.329732 0.03234,-0.04069 0.170289,-0.150279 0.306559,-0.243544 0.395379,-0.270603 2.287061,-1.879126 3.150616,-2.679011 l 0.458565,-0.424755 -0.435612,-0.09051 c -0.239586,-0.04978 -0.736982,-0.23123 -1.105324,-0.403225 -0.645955,-0.301625 -1.337508,-0.411995 -1.508716,-0.240786 -0.04537,0.04537 -0.01392,0.210626 0.0699,0.367236 0.08623,0.161126 0.119371,0.416305 0.07633,0.587785 -0.06171,0.245895 -0.03399,0.303042 0.147024,0.303042 0.122695,0 0.299351,-0.114866 0.392567,-0.255257 0.176071,-0.265177 0.447165,-0.215933 0.447165,0.08123 0,0.544095 -1.070618,0.850426 -1.46174,0.41824 -0.417176,-0.460974 -1.593187,0.07015 -1.595084,0.720396 -6.91e-4,0.237142 -0.242916,0.799283 -0.344408,0.799283 -0.03899,0 -0.347155,-0.186049 -0.684814,-0.413441 l -0.613924,-0.413441 -0.237052,0.237052 c -0.130639,0.130639 -0.392931,0.237052 -0.584297,0.237052 -0.375843,0 -0.9525,0.216184 -1.091464,0.40918 -0.120111,0.166814 -0.111432,1.131661 0.01388,1.542948 0.05713,0.18751 0.172824,0.579052 0.257097,0.870094 0.186081,0.642645 0.534513,1.175926 0.768319,1.175926 0.09489,0 0.924729,-0.565093 1.844075,-1.255762 z m -3.040674,0.864952 c 0.165342,-0.1209 0.186033,-0.206172 0.09273,-0.382175 -0.341551,-0.644311 -0.571658,-2.304764 -0.386783,-2.791022 0.150142,-0.394904 0.7738,-0.785899 1.254475,-0.786479 0.372177,-4.5e-4 0.678399,-0.245014 0.92181,-0.736203 0.145535,-0.293682 0.799074,-0.426582 1.054654,-0.214469 0.110188,0.09145 0.221972,0.0471 0.424391,-0.168366 0.211739,-0.225386 0.398279,-0.294409 0.812868,-0.300778 0.856425,-0.01315 1.008438,-0.115623 1.008438,-0.679759 0,-0.555658 -0.225925,-0.652764 -0.587963,-0.252716 -0.117062,0.129351 -0.317562,0.235185 -0.445555,0.235185 -0.374321,0 -1.17502,0.26024 -1.512876,0.491708 -0.171674,0.117616 -0.399197,0.213847 -0.505608,0.213847 -0.472183,0 -1.710498,-0.910577 -1.710498,-1.25779 0,-0.08433 -0.04151,-0.153321 -0.09224,-0.153321 -0.08921,0 -0.285662,-0.286853 -0.799592,-1.167538 l -0.245071,-0.419962 -0.636513,-0.03655 c -0.674857,-0.03875 -1.521852,0.137508 -1.96015,0.407909 -0.221287,0.136519 -0.264583,0.266594 -0.264583,0.794891 0,1.032599 -0.623746,2.692983 -2.107486,5.610042 l -0.21683,0.426293 1.2092,0.18705 c 0.751382,0.11623 1.669996,0.364599 2.426277,0.656001 1.278248,0.492521 1.912635,0.583249 2.266901,0.324202 z m 2.88953,-4.298495 c 0,-0.148227 -0.34519,-0.413961 -0.428943,-0.330209 -0.120421,0.120422 0.05929,0.433403 0.248864,0.433403 0.09904,0 0.180079,-0.04644 0.180079,-0.103194 z m 1.411111,-2.283935 c 0,-0.160559 -0.227146,-0.435093 -0.359989,-0.435093 -0.04277,0 -0.05248,0.132292 -0.02157,0.293982 0.05726,0.299523 0.381558,0.419459 0.381559,0.141111 z m 0.31358,-0.395895 c -0.04312,-0.04312 -0.113672,-0.04312 -0.15679,0 -0.04312,0.04312 -0.0078,0.0784 0.0784,0.0784 0.08624,0 0.121513,-0.03528 0.0784,-0.0784 z m -4.664506,-9.152623 c 0,-0.03234 -0.02646,-0.0588 -0.0588,-0.0588 -0.03234,0 -0.0588,0.02646 -0.0588,0.0588 0,0.03234 0.02646,0.0588 0.0588,0.0588 0.03234,0 0.0588,-0.02646 0.0588,-0.0588 z m 1.224909,-0.571132 c -0.04078,-0.106271 -0.187546,-0.189865 -0.326147,-0.185766 l -0.252002,0.0075 0.264583,0.106349 c 0.145521,0.05849 0.264583,0.169791 0.264583,0.247331 0,0.07754 0.0277,0.113276 0.06156,0.07942 0.03386,-0.03386 0.0282,-0.148513 -0.01258,-0.254784 z m 0.844083,-1.233558 c -0.103736,-0.167848 0.550898,-0.704085 1.093061,-0.895371 0.628454,-0.221732 1.424396,-0.240727 1.423229,-0.03397 -4.8e-4,0.08492 -0.360469,0.233749 -0.852547,0.352456 -0.468444,0.113007 -0.995094,0.311444 -1.170334,0.440973 -0.357393,0.264166 -0.405886,0.277524 -0.493409,0.135908 z"
       id="path7" /></g></svg>
