<?xml version="1.0" encoding="UTF-8" standalone="no"?>
<!-- Created with Inkscape (http://www.inkscape.org/) -->

<svg
   width="130.83395mm"
   height="80.329941mm"
   viewBox="0 0 130.83397 80.329941"
   version="1.1"
   id="svg1"
   xml:space="preserve"
   xmlns="http://www.w3.org/2000/svg"
   xmlns:svg="http://www.w3.org/2000/svg"><defs
     id="defs1" /><g
     id="layer1"
     transform="translate(-132.91761,-858.86665)"><path
       style="fill:#4d4d4d"
       d="m 192.27504,938.94943 c -0.14601,-0.16792 -0.35356,-0.30532 -0.46123,-0.30532 -0.21583,0 -0.4976,-0.2831 -0.64374,-0.64676 -0.052,-0.12935 -0.10887,-1.10831 -0.12643,-2.17546 -0.0176,-1.06715 -0.0889,-2.12514 -0.15855,-2.35108 -0.15721,-0.51001 -0.16411,-2.93581 -0.009,-3.17577 0.0627,-0.097 0.11592,-0.12348 0.11828,-0.0588 0.0481,1.32205 0.37823,4.59982 0.49834,4.94843 0.10899,0.31636 0.12856,0.59253 0.0606,0.85492 -0.1337,0.51599 -0.0647,1.69269 0.10246,1.74778 0.079,0.026 0.16581,-0.17584 0.21405,-0.49753 0.0972,-0.6482 0.37643,-0.6667 0.32495,-0.0215 -0.0368,0.46073 0.24164,1.2582 0.43925,1.2582 0.13945,0 0.15352,-0.0885 0.12577,-0.79123 -0.0231,-0.58587 0.0879,-1.00356 0.24148,-0.90863 0.06,0.0371 0.10912,0.26786 0.10912,0.51281 0,0.59984 0.30312,1.18705 0.61275,1.18705 0.23256,0 0.23934,-0.0419 0.16175,-0.99816 -0.0684,-0.84326 -0.0547,-0.98806 0.0885,-0.9331 0.11084,0.0425 0.19833,0.33393 0.2527,0.84166 0.0816,0.76169 0.29465,1.1766 0.52966,1.03136 0.15512,-0.0959 0.15271,-1.24757 -0.003,-1.65835 -0.0856,-0.22509 -0.0841,-0.35863 0.005,-0.44764 0.18309,-0.18309 0.31462,0.0809 0.40644,0.81576 0.092,0.73637 0.51773,1.25298 0.82346,0.99925 0.35772,-0.29688 0.43033,-0.96715 0.24117,-2.22652 -0.0979,-0.65212 -0.17808,-1.45363 -0.17808,-1.78114 0,-0.3275 -0.0544,-0.84379 -0.12095,-1.1473 -0.0665,-0.30351 -0.17494,-0.81642 -0.24093,-1.1398 -0.21087,-1.03326 -0.36724,-1.62478 -0.66835,-2.52824 -0.51863,-1.5561 -0.66263,-2.37056 -0.85243,-4.8213 -0.18842,-2.43292 -0.23674,-2.86185 -0.35103,-3.1162 -0.0581,-0.12936 -0.13254,-0.63206 -0.16538,-1.11713 -0.30123,-4.44922 -0.39633,-5.39322 -0.56494,-5.60753 -0.069,-0.0877 -0.061,-0.23055 0.0217,-0.38499 0.0961,-0.17951 0.0971,-0.50559 0.004,-1.21284 -0.0701,-0.53203 -0.18119,-1.39066 -0.24683,-1.90807 -0.30774,-2.42561 -1.0047,-5.44768 -1.46018,-6.33145 -0.1614,-0.31318 -0.29346,-0.67504 -0.29346,-0.80413 0,-0.12909 -0.16099,-0.58253 -0.35775,-1.00763 -0.19677,-0.42511 -0.34229,-0.85262 -0.32338,-0.95002 0.0878,-0.45263 0.33623,-0.18643 0.74401,0.79738 0.24254,0.58515 0.4503,1.06391 0.46169,1.06391 0.0114,0 0.30812,-0.0853 0.65941,-0.18951 0.82693,-0.24535 1.65425,-0.66781 2.39652,-1.22376 1.21114,-0.90713 1.79098,-1.061 4.23205,-1.12303 l 1.63895,-0.0417 0.30092,-0.61163 c 0.16551,-0.33641 0.65483,-0.9906 1.08737,-1.45376 0.74879,-0.8018 0.78183,-0.8614 0.69012,-1.24499 -0.23946,-1.00152 -0.93255,-2.54472 -1.28501,-2.86115 -0.317,-0.28458 -0.32968,-0.65793 -0.0224,-0.65793 0.34583,0 0.64774,0.50348 1.28688,2.14606 0.0566,0.14553 0.16246,0.4126 0.23519,0.5935 0.0727,0.1809 0.13223,0.42913 0.13223,0.55163 0,0.34148 0.2037,0.39253 0.55937,0.1402 0.90174,-0.63974 2.39114,-1.35153 3.9456,-1.8856 0.60735,-0.20867 0.69104,-0.21435 0.75367,-0.0511 0.11157,0.29075 -0.10599,0.5162 -0.67476,0.6992 -0.28982,0.0932 -0.65923,0.22693 -0.82092,0.29709 -0.16169,0.0702 -0.42627,0.17989 -0.58796,0.24387 -1.3681,0.54129 -2.85012,1.51168 -3.89263,2.54879 -1.31829,1.31147 -1.56826,2.0609 -1.76465,5.29036 -0.21361,3.51268 0.0609,7.44175 0.71146,10.18112 0.0614,0.25871 0.22293,0.94662 0.35888,1.52871 0.13595,0.58208 0.29759,1.25677 0.35919,1.4993 0.0616,0.24254 0.16241,0.63941 0.22402,0.88195 0.0616,0.24253 0.14382,0.59972 0.18271,0.79375 0.0389,0.19402 0.1232,0.5909 0.18737,0.88194 0.44028,1.99692 0.56307,2.89664 0.69005,5.05648 0.24791,4.21666 0.556,8.12338 0.70014,8.87824 0.19154,1.00306 0.25606,1.18683 0.5405,1.53951 0.25353,0.31435 0.29133,0.32676 0.46799,0.15361 0.14907,-0.14611 0.19135,-0.41552 0.18843,-1.20087 -0.006,-1.52136 0.29991,-1.43004 0.6154,0.18391 0.0955,0.48858 0.18472,0.67616 0.32158,0.67616 0.29227,0 0.46991,-0.50432 0.33873,-0.96171 -0.14624,-0.50991 -0.14191,-0.91978 0.01,-0.91978 0.13051,0 0.13588,0.013 0.35287,0.85255 0.0805,0.31144 0.21306,0.55857 0.29963,0.55857 0.29735,0 0.36562,-0.35383 0.19643,-1.01811 -0.0909,-0.35702 -0.13704,-0.67741 -0.10247,-0.71198 0.14483,-0.14484 0.42577,0.0983 0.42577,0.36855 0,0.43178 0.23727,0.88298 0.42621,0.81048 0.18591,-0.0713 0.22015,-0.69249 0.0442,-0.80126 -0.15137,-0.0936 -0.15395,-0.64676 -0.003,-0.64676 0.13806,0 0.47339,0.62061 0.47339,0.87611 0,0.10022 0.0794,0.18223 0.17639,0.18223 0.22299,0 0.22992,-0.42731 0.0155,-0.95578 -0.0885,-0.2181 -0.19467,-0.94021 -0.23596,-1.6047 -0.0413,-0.66449 -0.12114,-1.29949 -0.17745,-1.41111 -0.0563,-0.11162 -0.16619,-0.41462 -0.24416,-0.67332 -0.078,-0.25871 -0.21677,-0.64235 -0.30842,-0.85255 -0.0916,-0.2102 -0.25152,-0.58061 -0.35526,-0.82315 -0.10374,-0.24253 -0.29566,-0.67909 -0.42647,-0.97014 -0.96708,-2.15155 -1.15863,-3.33038 -1.08915,-6.70277 0.055,-2.66743 0.0611,-2.72585 0.90423,-8.64306 0.19064,-1.33784 0.20282,-6.11323 0.0178,-6.99676 -0.0745,-0.35571 -0.25322,-1.08536 -0.39723,-1.62143 -0.14401,-0.53608 -0.22988,-1.00664 -0.19083,-1.0457 0.12863,-0.12862 0.42948,0.22103 0.42948,0.49913 0,0.14995 0.0473,0.30189 0.10517,0.33764 0.0579,0.0358 0.13453,0.26377 0.17041,0.50671 0.0359,0.24294 0.11688,0.70629 0.18,1.02967 0.0631,0.32338 0.15215,0.81286 0.19785,1.08773 0.0828,0.49779 0.0851,0.49977 0.58984,0.49977 0.2787,0 0.53944,-0.0529 0.57942,-0.11759 0.04,-0.0647 0.19935,-0.11759 0.35418,-0.11759 0.15483,0 0.42952,-0.0595 0.61042,-0.13224 0.1809,-0.0727 0.43475,-0.17186 0.5641,-0.22029 1.35227,-0.50629 2.40182,-1.411 2.93328,-2.52849 0.47333,-0.99526 0.6343,-2.59267 0.43253,-4.29213 -0.40456,-3.4074 -0.36449,-4.36533 0.26564,-6.35 0.45008,-1.41761 1.9206,-3.66703 3.17784,-4.86105 1.53901,-1.46163 2.18654,-1.89182 2.18654,-1.45263 0,0.22557 -0.18987,0.43152 -1.24137,1.34645 l -0.94738,0.82435 -0.0281,1.75038 c -0.0217,1.35493 0.0126,1.84767 0.15186,2.18099 0.248,0.59355 0.46952,0.71481 0.35956,0.19682 -0.0463,-0.21829 -0.0875,-0.42334 -0.0915,-0.45568 -0.0356,-0.28867 0.23371,-1.30599 0.42159,-1.5926 0.28431,-0.43372 0.97618,-0.94881 1.42613,-1.06174 l 0.32816,-0.0824 -0.0829,-1.36568 c -0.0456,-0.75112 -0.1309,-1.62425 -0.18949,-1.94029 -0.13549,-0.73083 -0.13803,-1.83604 -0.004,-1.83604 0.1088,0 0.19404,0.4892 0.37394,2.14607 0.0615,0.56591 0.16638,1.51841 0.23317,2.11667 0.15405,1.37973 0.30926,3.10856 0.46715,5.20347 0.1535,2.03655 0.25983,2.84619 0.71429,5.43866 0.27262,1.55513 0.33282,1.92741 0.49538,3.06326 0.0953,0.66615 0.19274,1.2293 0.21647,1.25143 0.0237,0.0221 0.65886,0.24865 1.4114,0.50337 l 1.36827,0.46313 0.0735,-0.89141 c 0.0404,-0.49027 0.0221,-1.52641 -0.0407,-2.30252 -0.11392,-1.40802 -0.19043,-2.0122 -0.5361,-4.23333 -0.36083,-2.31852 -0.65605,-11.37166 -0.39197,-12.01958 0.22567,-0.55365 0.19286,-3.05918 -0.0482,-3.68375 -0.234,-0.60619 -1.1298,-1.52985 -1.70084,-1.75373 -0.42305,-0.16587 -1.82451,-0.10937 -2.79677,0.11274 -0.32338,0.0739 -1.02453,0.16232 -1.55811,0.19653 l -0.97013,0.0622 v -0.35226 c 0,-0.36356 0.16428,-0.49502 0.61863,-0.49502 0.26926,0 0.86814,-0.17767 1.47167,-0.43661 0.6267,-0.26887 1.1692,-0.90079 1.36401,-1.58881 0.30815,-1.0883 0.42624,-1.5832 0.42624,-1.78626 0,-0.10881 0.10583,-0.41688 0.23519,-0.68461 0.28094,-0.58148 0.28974,-0.67778 0.0619,-0.67778 -0.55573,0 -2.05852,-1.35742 -2.06044,-1.86111 -3.2e-4,-0.0858 -0.14549,0.02 -0.3226,0.23519 -0.41647,0.50594 -0.92652,0.99299 -1.44188,1.37683 -0.22636,0.1686 -0.43803,0.33585 -0.47037,0.37168 -0.0323,0.0358 -0.244,0.19284 -0.47037,0.34894 -1.8018,1.24247 -2.82851,2.94981 -3.00466,4.99652 -0.0948,1.10164 -0.21619,1.3361 -0.53998,1.04308 -0.12007,-0.10867 -0.21832,-0.26876 -0.21832,-0.35575 0,-0.087 -0.04,-0.15816 -0.0889,-0.15816 -0.15263,0 -0.75614,-1.4797 -0.96016,-2.35413 -0.14808,-0.63471 -0.12038,-2.33465 0.0538,-3.30314 0.0677,-0.37656 0.0453,-0.43271 -0.19917,-0.49816 -0.15154,-0.0406 -0.41792,-0.0745 -0.59196,-0.0754 -0.17404,-8.9e-4 -0.34532,-0.0483 -0.38062,-0.10546 -0.0353,-0.0571 -0.35371,-0.14002 -0.70758,-0.18423 -1.16245,-0.14524 -1.56371,0.19208 -2.84004,2.38752 -0.32962,0.56698 -0.74864,1.28569 -0.93115,1.59713 l -0.33185,0.56625 0.28327,-0.15161 c 0.1558,-0.0834 0.4666,-0.32456 0.69067,-0.53595 0.43154,-0.40714 0.59439,-0.41678 0.59439,-0.0352 0,0.36043 -0.98182,1.19353 -1.88148,1.59649 -0.85035,0.38088 -1.39659,0.6096 -1.79299,0.75077 -0.52665,0.18755 -1.44474,0.86647 -1.77438,1.31214 -0.34031,0.4601 -0.52683,1.52743 -0.40527,2.31906 0.32914,2.1433 2.36637,2.89702 5.08282,1.8805 0.92836,-0.34739 1.79797,-1.19495 1.85113,-1.80418 0.0205,-0.23514 0.0902,-0.43965 0.15489,-0.45447 0.22643,-0.0519 0.18733,0.7167 -0.0636,1.25055 -0.64172,1.3652 -2.54133,2.2935 -4.41243,2.15627 l -0.83066,-0.0609 -0.14712,0.66544 c -0.0809,0.36598 -0.13535,1.02233 -0.12096,1.45854 l 0.0262,0.79311 -0.64208,0.6768 c -1.02946,1.08512 -1.88972,2.52431 -2.14422,3.58721 -0.0639,0.26702 -0.14129,0.32338 -0.44381,0.32338 -1.25153,0 -5.01176,0.91832 -6.54036,1.59729 -1.70339,0.7566 -2.06096,0.98975 -1.51795,0.98975 0.66083,0 1.65043,0.62206 1.77422,1.11527 0.0408,0.16271 0.12616,0.29584 0.1896,0.29584 0.21505,0 0.12413,0.82356 -0.11983,1.08542 -0.12935,0.13885 -0.23519,0.36656 -0.23519,0.50603 0,0.13947 -0.10583,0.34936 -0.23518,0.46642 -0.12936,0.11706 -0.23519,0.2726 -0.23519,0.34565 0,0.38906 -1.42073,0.87594 -2.57921,0.88388 -0.83243,0.006 -1.91659,0.3351 -2.60796,0.79234 -0.47446,0.31379 -0.68915,0.82438 -1.17708,2.79943 -0.58067,2.35043 -0.78488,3.82115 -0.58899,4.24192 0.0731,0.15696 0.18579,0.41768 0.25046,0.57937 0.0647,0.16169 0.16517,0.41305 0.22332,0.55857 0.0581,0.14552 0.16932,0.44979 0.24705,0.67615 0.0777,0.22637 0.18559,0.51741 0.23969,0.64676 0.10424,0.24925 1.23649,3.78683 1.65604,5.17408 0.13692,0.45273 0.28953,0.92898 0.33913,1.05833 0.0496,0.12935 0.15429,0.47331 0.23265,0.76435 0.0784,0.29104 0.19021,0.62106 0.24858,0.73336 0.0584,0.11231 0.10614,0.285 0.10614,0.38377 0,0.0988 0.0474,0.27147 0.10546,0.38377 0.058,0.11231 0.38183,1.07732 0.71961,2.14447 0.33777,1.06716 0.6547,2.04611 0.70428,2.17547 0.0496,0.12935 0.15522,0.47331 0.23477,0.76435 0.0796,0.29104 0.1895,0.66146 0.24434,0.82315 0.40105,1.18248 0.57394,2.25363 0.50169,3.10835 -0.0963,1.139 -0.2702,1.26937 -0.29427,0.22058 -0.0101,-0.44038 -0.0354,-0.93299 -0.0562,-1.09467 -0.0994,-0.77247 -0.19572,-1.18374 -0.29121,-1.24276 -0.0575,-0.0355 -0.1046,-0.21715 -0.1046,-0.40354 0,-0.1864 -0.0529,-0.3716 -0.1176,-0.41158 -0.0647,-0.04 -0.11759,-0.20256 -0.11759,-0.36131 0,-0.15875 -0.0475,-0.38052 -0.10551,-0.49283 -0.058,-0.1123 -0.22222,-0.60106 -0.36486,-1.08613 -0.14264,-0.48507 -0.30682,-0.97383 -0.36486,-1.08614 -0.058,-0.1123 -0.10551,-0.30762 -0.10551,-0.43403 0,-0.12641 -0.0529,-0.26255 -0.11759,-0.30252 -0.0647,-0.04 -0.1176,-0.19872 -0.1176,-0.35278 0,-0.15405 -0.0529,-0.3128 -0.11759,-0.35277 -0.0647,-0.04 -0.11759,-0.17611 -0.11759,-0.30252 0,-0.12641 -0.0482,-0.32173 -0.10723,-0.43403 -0.059,-0.11231 -0.32155,-0.89211 -0.5835,-1.7329 -0.26195,-0.84079 -0.64104,-2.05787 -0.84241,-2.70463 -0.20137,-0.64676 -0.43256,-1.38759 -0.51374,-1.64629 l -0.14761,-0.47037 -1.10599,-0.0342 c -1.05369,-0.0326 -2.10878,0.14447 -2.10878,0.35383 0,0.0506 -0.0801,0.0919 -0.17798,0.0919 -0.0979,0 -0.26988,0.0467 -0.38218,0.10387 -0.11231,0.0571 -0.33648,0.15589 -0.49817,0.21945 -0.16169,0.0636 -0.42628,0.17078 -0.58797,0.23825 -1.05913,0.44192 -2.20692,0.6686 -5.43865,1.07411 -1.86676,0.23423 -2.86939,0.53976 -5.56657,1.69627 -0.96447,0.41355 -1.96524,0.81876 -2.22394,0.90048 -0.25871,0.0817 -0.59193,0.19472 -0.74049,0.25113 -0.35482,0.13471 -2.87576,0.13253 -3.22273,-0.003 -0.14856,-0.0579 -0.50824,-0.17336 -0.79928,-0.25649 -0.66462,-0.18984 -1.68539,-0.6897 -2.41763,-1.18388 -0.63129,-0.42605 -2.08312,-1.82453 -2.546,-2.45243 -0.16687,-0.22636 -0.33535,-0.38076 -0.3744,-0.34309 -0.0391,0.0377 -0.10407,0.56683 -0.14449,1.17592 -0.0799,1.20378 -0.26606,2.08324 -0.58823,2.77886 -0.24307,0.52484 -1.28094,2.10146 -1.45361,2.20818 -0.0805,0.0498 -0.0811,0.14627 -0.002,0.29435 0.0649,0.12118 0.11791,0.34551 0.11791,0.49851 0,0.15301 0.0593,0.3375 0.13179,0.40998 0.0814,0.0814 0.13699,0.68563 0.14541,1.58162 0.0111,1.18645 -0.0245,1.52019 -0.19621,1.83707 -0.87135,1.60793 -2.43284,-0.46448 -2.43284,-3.22887 v -1.09771 h -0.45122 c -0.49014,0 -2.34471,-0.27733 -3.19415,-0.47765 -0.29104,-0.0686 -0.67533,-0.15409 -0.85398,-0.1899 -0.17865,-0.0358 -0.35376,-0.11194 -0.38912,-0.16916 -0.0354,-0.0572 -0.16773,-0.10403 -0.29414,-0.10403 -0.12641,0 -0.32172,-0.0467 -0.43403,-0.10388 -0.43592,-0.22175 -0.83426,-0.3693 -1.96808,-0.729 -0.64676,-0.20518 -1.28176,-0.41189 -1.41111,-0.45935 -0.12935,-0.0475 -0.44685,-0.15033 -0.70556,-0.22859 -1.86466,-0.56408 -2.59484,-1.04483 -4.62319,-3.04389 -1.43912,-1.41835 -1.71331,-1.78833 -1.44719,-1.9528 0.0568,-0.0351 0.705,0.5189 1.44051,1.23108 2.47185,2.39346 2.71037,2.52762 6.68774,3.76163 0.48507,0.1505 0.93222,0.31702 0.99366,0.37005 0.0614,0.053 0.2303,0.0964 0.37524,0.0964 0.14493,0 0.29622,0.0529 0.3362,0.1176 0.04,0.0647 0.19872,0.11759 0.35277,0.11759 0.15406,0 0.31281,0.0529 0.35278,0.11759 0.04,0.0647 0.19872,0.11759 0.35278,0.11759 0.15406,0 0.31281,0.0529 0.35278,0.1176 0.04,0.0647 0.19872,0.11759 0.35277,0.11759 0.15406,0 0.30936,0.0473 0.34511,0.10517 0.13267,0.21466 2.75011,0.51121 3.84798,0.43596 0.74386,-0.051 0.91268,-0.03 0.97052,0.12076 0.0909,0.23685 -0.008,0.3869 -0.33719,0.51209 -0.49826,0.18944 -0.54895,1.21914 -0.1257,2.55351 0.51506,1.62387 1.19104,2.25221 1.60002,1.48726 0.19446,-0.36373 0.20698,-2.31741 0.0182,-2.83402 -0.46666,-1.27675 -0.46614,-1.6408 0.003,-2.14555 0.635,-0.68312 1.30379,-1.86567 1.52858,-2.7028 0.12031,-0.44804 0.35412,-2.67176 0.33872,-3.22146 -0.005,-0.18625 -0.093,-0.46601 -0.19496,-0.6217 -0.16107,-0.24583 -2.19502,-1.64921 -3.31998,-2.29073 -0.2102,-0.11986 -0.58061,-0.33299 -0.82315,-0.47361 -1.69101,-0.98044 -1.91266,-1.0557 -2.8794,-0.97774 -0.89892,0.0725 -2.53757,-0.0987 -2.93984,-0.30709 -0.1123,-0.0582 -0.2645,-0.10579 -0.33823,-0.10579 -0.23716,0 -1.54778,-0.71383 -2.42865,-1.32278 -1.43385,-0.99122 -2.29188,-2.06208 -2.71567,-3.38927 -0.17007,-0.53262 -0.17517,-3.39426 -0.007,-4.03496 0.30017,-1.14487 0.38986,-1.43108 0.4815,-1.53646 0.0534,-0.0615 0.0971,-0.21644 0.0971,-0.34443 0,-0.128 0.0508,-0.39523 0.11292,-0.59384 0.0621,-0.19862 0.17949,-0.61249 0.26085,-0.9197 0.0814,-0.30721 0.18931,-0.55856 0.23986,-0.55856 0.0506,0 0.0924,-0.0661 0.0931,-0.14699 0.002,-0.25401 0.78822,-1.15035 1.53428,-1.74911 0.39434,-0.31647 1.15332,-0.78661 1.68663,-1.04475 1.26133,-0.61052 1.76493,-0.61791 3.12794,-0.0459 1.18915,0.49901 2.39423,0.86195 2.8777,0.86669 0.19221,0.002 0.71,0.11721 1.15065,0.25628 0.64052,0.20215 0.87396,0.34475 1.16412,0.7111 l 0.36294,0.45825 1.45117,-0.0349 c 1.3695,-0.033 1.46606,-0.0201 1.7155,0.22819 0.23748,0.23641 0.25159,0.31084 0.13894,0.7329 -0.14532,0.54441 0.0424,0.94424 0.4432,0.94424 0.36424,0 0.69115,0.21978 0.69115,0.46466 0,0.12876 0.13656,0.28163 0.32681,0.36584 0.23269,0.103 0.37706,0.2979 0.50133,0.67678 0.12877,0.39261 0.28083,0.59151 0.57997,0.75863 0.223,0.12458 0.47196,0.31394 0.55326,0.42081 0.18607,0.24459 0.19557,0.87446 0.0214,1.42068 -0.42071,1.31952 -0.51517,1.39393 -3.94964,3.11124 -0.27333,0.13667 -0.49822,0.28289 -0.49977,0.32493 -0.005,0.14679 0.79442,0.87211 1.20625,1.09389 l 0.41519,0.2236 0.60894,-0.54749 c 1.39309,-1.2525 2.86454,-2.20796 4.69652,-3.04959 1.809,-0.83108 2.00283,-0.91305 2.15892,-0.91305 0.0848,0 0.20442,-0.0421 0.26586,-0.0936 0.0614,-0.0515 0.32338,-0.1608 0.58208,-0.24295 0.25871,-0.0822 0.57621,-0.19249 0.70556,-0.24519 0.12935,-0.0527 0.63206,-0.21426 1.11713,-0.35901 0.48507,-0.14475 0.98778,-0.30539 1.11713,-0.35697 0.12935,-0.0516 0.36748,-0.12822 0.52917,-0.17032 0.16168,-0.0421 0.47918,-0.12941 0.70555,-0.19402 0.22637,-0.0646 0.61001,-0.16687 0.85255,-0.22725 0.24253,-0.0604 0.63941,-0.16027 0.88194,-0.22199 3.37043,-0.85769 7.55433,-1.41439 10.64213,-1.41601 0.73148,-3.8e-4 0.91134,-0.0353 0.91134,-0.17687 0,-0.097 0.04,-0.17638 0.0889,-0.17638 0.0489,0 0.15916,-0.17198 0.24504,-0.38218 0.0859,-0.2102 0.20192,-0.48801 0.25786,-0.61736 0.0559,-0.12935 0.21784,-0.5852 0.35979,-1.013 0.31859,-0.96012 0.57115,-1.32009 0.85089,-1.21275 0.30873,0.11847 0.54939,0.67881 0.54939,1.27917 0,0.52756 0.15099,0.68255 0.41745,0.42849 0.2468,-0.2353 1.01684,-0.59904 1.26819,-0.59904 0.14706,0 0.50264,-0.14793 0.79018,-0.32873 0.82811,-0.52072 2.47069,-1.27591 3.72236,-1.71138 1.61639,-0.56236 4.15664,-1.13489 5.03536,-1.13489 0.48178,0 0.52711,-0.0282 0.70912,-0.44097 0.57481,-1.30361 1.00039,-2.04939 1.60407,-2.81093 0.36869,-0.46511 0.74569,-0.88943 0.83779,-0.94294 0.11384,-0.0661 0.19056,-0.41726 0.23966,-1.09683 0.0397,-0.54974 0.10089,-1.18474 0.13594,-1.41111 0.0598,-0.38618 0.0316,-0.43078 -0.45705,-0.72297 -0.32688,-0.19545 -0.64531,-0.52383 -0.85522,-0.88194 -0.29974,-0.51134 -0.3389,-0.70073 -0.37744,-1.82496 -0.0548,-1.59901 0.13394,-2.22856 0.9041,-3.01563 0.46764,-0.47791 1.88273,-1.31561 2.22241,-1.31561 0.18427,0 0.73456,-0.29209 0.73549,-0.39039 5.1e-4,-0.053 0.15202,-0.3176 0.33669,-0.58796 0.18468,-0.27036 0.69799,-1.12656 1.1407,-1.90267 0.4427,-0.77611 0.84723,-1.42875 0.89894,-1.45031 0.0517,-0.0216 0.094,-0.10778 0.094,-0.1916 0,-0.23769 0.9006,-1.10696 1.23338,-1.19048 0.4622,-0.116 2.96233,0.13369 3.19067,0.31865 0.0909,0.0736 0.30234,-0.23201 0.67992,-0.98275 0.3014,-0.59929 0.70586,-1.3542 0.89879,-1.67758 0.32627,-0.54688 1.14813,-2.19386 2.43524,-4.88009 0.95713,-1.99756 2.50659,-3.98357 3.78763,-4.85477 0.29325,-0.19942 0.55963,-0.39253 0.59197,-0.42914 0.0969,-0.10964 0.72301,-0.4575 1.41111,-0.78392 1.46181,-0.69348 1.97872,-0.81287 3.46898,-0.80127 1.35044,0.0105 1.94843,0.17395 2.76569,0.75589 0.21319,0.15181 0.51776,0.23358 0.87003,0.23358 0.2981,0 0.63389,0.0467 0.7462,0.10387 0.1123,0.0571 0.3622,0.17619 0.55532,0.26458 1.00058,0.45796 1.92746,1.53881 2.35631,2.74775 0.18648,0.52569 0.40849,1.9239 0.40862,2.57348 2.9e-4,1.45011 -0.54029,3.86306 -1.20171,5.36402 -0.52787,1.19788 -0.75771,1.58557 -1.38282,2.3325 -0.36073,0.43104 -0.77261,0.97384 -0.91527,1.20623 -0.14267,0.23239 -0.42137,0.62634 -0.61934,0.87545 -0.58,0.72983 -1.05292,2.01376 -1.05659,2.8685 -0.001,0.31422 -0.0304,0.37532 -0.11579,0.24324 -0.14978,-0.23176 -0.14921,-1.19504 9.3e-4,-1.58995 0.0652,-0.17146 0.0778,-0.29397 0.0279,-0.27224 -0.0498,0.0217 -0.39363,0.19096 -0.76403,0.37608 -0.67144,0.33556 -0.678,0.33631 -2.2034,0.25146 -1.49378,-0.0831 -1.52996,-0.0915 -1.52996,-0.35576 0,-0.23058 0.11757,-0.30845 0.79375,-0.5257 1.85533,-0.59612 3.57034,-1.9056 4.1753,-3.18802 0.46739,-0.99077 0.5578,-1.36784 0.5578,-2.32628 v -0.89254 l -0.51215,0.76344 c -0.46396,0.6916 -0.8052,1.05022 -1.76118,1.85087 -0.41843,0.35043 -2.01428,1.14846 -2.60676,1.30354 -0.25871,0.0677 -0.76142,0.16583 -1.11713,0.21804 -0.50691,0.0744 -0.67186,0.15215 -0.76284,0.35952 -0.0638,0.14552 -0.15645,0.26458 -0.20579,0.26458 -0.0493,0 -0.0897,0.10271 -0.0897,0.22825 0,0.12553 -0.0471,0.25733 -0.1046,0.29289 -0.0575,0.0355 -0.1347,0.23711 -0.17149,0.44791 -0.31508,1.80534 -0.43201,2.19692 -0.84017,2.8137 l -0.29818,0.45059 h 1.18343 c 1.37581,0 1.59316,0.0834 2.36356,0.90702 0.77909,0.83291 1.04245,1.62241 1.04245,3.12498 0,1.08885 -0.20888,2.578 -0.40645,2.89768 -0.0428,0.0692 -0.0326,0.12587 0.0226,0.12587 0.15998,0 0.90619,-1.04852 1.33902,-1.88148 0.21845,-0.42039 0.43687,-0.78199 0.48537,-0.80355 0.0485,-0.0216 0.0882,-0.11488 0.0882,-0.20738 0,-0.0925 0.0529,-0.2733 0.11759,-0.40178 0.0647,-0.12847 0.17051,-0.3387 0.23519,-0.46718 0.0647,-0.12847 0.11759,-0.36347 0.11759,-0.52222 0,-0.15875 0.0471,-0.31773 0.1046,-0.35329 0.0575,-0.0355 0.13439,-0.23711 0.17081,-0.44791 0.0364,-0.2108 0.098,-0.56847 0.13696,-0.79484 0.0389,-0.22636 0.1004,-0.54386 0.13664,-0.70555 0.0618,-0.27561 0.0719,-0.27928 0.16175,-0.0588 0.22027,0.54045 -0.0236,2.12038 -0.49908,3.2338 -0.0691,0.16169 -0.16388,0.39981 -0.21072,0.52916 -0.35696,0.98581 -1.43799,2.75931 -2.0606,3.38058 l -0.32387,0.32317 0.19234,2.08748 c 0.10579,1.14811 0.19397,2.98706 0.19595,4.08655 0.002,1.16704 0.0776,2.48851 0.18132,3.175 0.0977,0.64676 0.22734,1.53651 0.28798,1.97722 0.0606,0.44071 0.13481,0.84103 0.16482,0.88959 0.03,0.0486 0.0847,1.06381 0.12158,2.25611 0.0369,1.1923 0.1001,2.47209 0.14055,2.84398 0.0659,0.60594 0.10164,0.67615 0.34413,0.67615 0.14882,0 0.30329,0.0529 0.34326,0.1176 0.04,0.0647 0.22518,0.11759 0.41158,0.11759 0.18639,0 0.3716,0.0529 0.41157,0.11759 0.04,0.0647 0.22518,0.1176 0.41158,0.1176 0.18639,0 0.3716,0.0529 0.41157,0.11759 0.04,0.0647 0.20256,0.11759 0.36131,0.11759 0.15875,0 0.38053,0.0468 0.49283,0.10404 0.11231,0.0572 0.57461,0.22123 1.02734,0.36445 1.55226,0.49108 2.50207,1.04591 3.6414,2.12715 1.0465,0.99313 2.041,1.75529 2.29041,1.75529 0.0701,0 0.23252,0.0529 0.36099,0.11759 0.12847,0.0647 0.33871,0.17051 0.46718,0.23518 0.12847,0.0647 0.33702,0.1176 0.46343,0.1176 0.12641,0 0.26255,0.0529 0.30252,0.11759 0.04,0.0647 0.22518,0.11759 0.41157,0.11759 0.1864,0 0.3716,0.0529 0.41158,0.11759 0.04,0.0647 0.18002,0.1176 0.31122,0.1176 0.2038,0 2.01538,0.54491 2.74618,0.82603 0.40257,0.15486 2.88048,0.90871 4.17454,1.27 3.14201,0.87724 4.79913,1.14112 6.52885,1.03965 1.05981,-0.0622 1.62985,-0.14152 2.70217,-0.37613 0.19403,-0.0425 0.90219,-0.34113 1.57371,-0.66373 1.02868,-0.49418 1.3666,-0.73182 2.14606,-1.50919 0.50883,-0.50746 0.92514,-1.00139 0.92514,-1.09762 0,-0.0962 0.0422,-0.19261 0.0937,-0.21417 0.12822,-0.0536 0.61182,-1.11027 0.61182,-1.3368 0,-0.31168 0.57707,-1.9699 0.85795,-2.46536 0.21712,-0.38298 0.33141,-0.47037 0.61519,-0.47037 0.30185,0 0.3697,0.063 0.50669,0.47037 0.15083,0.44857 0.13547,2.02039 -0.0408,4.17454 -0.0291,0.35572 -0.0236,0.56738 0.0122,0.47037 0.56103,-1.52033 1.21027,-2.58704 1.57458,-2.58704 0.35527,0 0.65991,0.57841 0.82515,1.56667 0.16336,0.97704 0.11205,1.79132 -0.35331,5.60648 -0.0592,0.48507 -0.16557,1.43757 -0.23645,2.11667 -0.54322,5.20459 -0.68598,6.17413 -0.99558,6.76157 -0.17555,0.33309 -0.315,0.46196 -0.4778,0.44155 -0.58607,-0.0735 -1.81176,-0.27576 -2.31717,-0.38244 -1.49303,-0.31516 -2.87175,-0.64699 -3.90995,-0.94105 -0.2587,-0.0733 -0.65558,-0.17911 -0.88195,-0.23519 -0.22636,-0.0561 -0.59678,-0.15226 -0.82314,-0.21375 -3.94778,-1.07233 -6.80633,-1.30716 -11.1125,-0.91291 -4.18429,0.3831 -6.34781,0.16945 -8.30413,-0.82003 -0.71366,-0.36097 -2.02362,-1.22065 -2.08322,-1.36714 -0.0216,-0.053 -0.10975,-0.0964 -0.19599,-0.0964 -0.0862,0 -0.17443,-0.0428 -0.19598,-0.095 -0.0473,-0.11455 -0.98071,-0.73947 -1.39152,-0.93157 -0.86098,-0.40262 -3.14309,-1.00819 -4.98801,-1.32359 -2.09494,-0.35815 -4.97173,-0.60344 -9.76986,-0.83304 -2.89549,-0.13856 -4.23236,-0.2936 -4.93889,-0.57278 -0.12935,-0.0511 -0.986,-0.47046 -1.90366,-0.93189 -0.91767,-0.46142 -1.71848,-0.83895 -1.77958,-0.83895 -0.13633,0 -0.24558,0.40993 -0.37607,1.41112 -0.0548,0.42039 -0.16492,1.21414 -0.24472,1.76388 -0.18144,1.24993 -0.1937,6.09669 -0.0173,6.82037 0.26647,1.09291 0.60307,2.18825 0.85824,2.79283 0.0614,0.14552 0.15788,0.38364 0.21436,0.52917 0.0565,0.14552 0.22194,0.52916 0.36768,0.85254 0.6826,1.51462 0.93692,2.4267 1.01647,3.64537 0.038,0.58209 0.14333,1.21398 0.23407,1.4042 0.43195,0.90554 0.29316,1.78544 -0.30035,1.90414 -0.19096,0.0382 -0.37538,0.14288 -0.40982,0.23264 -0.0344,0.0898 -0.19049,0.16319 -0.34677,0.16319 -0.17333,0 -0.35927,0.11465 -0.47677,0.29398 -0.11805,0.18016 -0.30333,0.29398 -0.47855,0.29398 -0.15726,0 -0.4215,0.13558 -0.58721,0.30129 -0.21105,0.21105 -0.37286,0.27856 -0.54027,0.22543 -0.13895,-0.0441 -0.3579,0.002 -0.52307,0.11029 -0.4036,0.26444 -0.69033,0.23188 -1.11661,-0.12681 -0.61739,-0.5195 -0.7534,-1.07891 -0.93889,-3.86159 -0.0603,-0.90546 -0.16618,-2.49296 -0.23517,-3.52777 -0.069,-1.03482 -0.17504,-2.64878 -0.23567,-3.58658 -0.10611,-1.64122 -0.20889,-2.44312 -0.4748,-3.70417 -0.0682,-0.32338 -0.15167,-0.74671 -0.18552,-0.94074 -0.0339,-0.19402 -0.10725,-0.45861 -0.16311,-0.58796 -0.0559,-0.12935 -0.12661,-0.39393 -0.15721,-0.58796 -0.0306,-0.19403 -0.17069,-0.77611 -0.3113,-1.29352 -0.27512,-1.01236 -0.43118,-1.65784 -0.54733,-2.26366 -0.0722,-0.37641 -0.32306,-0.50178 -0.57754,-0.28859 -0.29542,0.24749 -1.13297,0.40681 -2.12098,0.40346 -1.19207,-0.004 -1.64196,-0.1115 -3.01654,-0.72051 -0.3065,-0.1358 -0.58937,-0.2469 -0.6286,-0.2469 -0.0392,0 -0.21179,-0.0972 -0.38346,-0.21605 -0.17167,-0.11883 -0.41173,-0.25215 -0.53347,-0.29626 -0.20317,-0.0736 -0.21503,-0.0342 -0.14448,0.48063 0.0423,0.30846 0.1283,1.27522 0.19119,2.14834 0.11202,1.55541 0.22554,2.52591 0.46078,3.93935 0.10879,0.65366 0.20921,1.43049 0.47883,3.70417 0.22812,1.92372 0.39,2.75733 0.87838,4.52328 0.36448,1.31798 0.4898,2.0019 0.64712,3.53181 0.0599,0.58209 0.17623,1.42875 0.25862,1.88148 0.0824,0.45274 0.15108,1.2295 0.15266,1.72616 0.002,0.73001 -0.0433,0.96481 -0.23822,1.22563 -0.36552,0.48913 -0.5968,0.60128 -0.87794,0.42571 -0.20224,-0.1263 -0.27612,-0.11295 -0.49295,0.089 -0.27064,0.25214 -0.7359,0.31674 -0.85803,0.11913 -0.045,-0.0729 -0.14503,-0.0467 -0.25965,0.0679 -0.11687,0.11687 -0.2786,0.1579 -0.43348,0.10998 -0.31051,-0.0961 -0.41951,-0.0958 -0.73774,0.002 -0.18923,0.0582 -0.32435,-5.3e-4 -0.52097,-0.22667 z m 69.54552,-15.35717 c 0.057,-0.22637 0.14973,-0.75553 0.20602,-1.17593 0.0563,-0.42039 0.15635,-1.10831 0.22235,-1.5287 0.066,-0.42039 0.17283,-1.34644 0.23739,-2.05787 0.26774,-2.95032 0.35357,-3.81222 0.47427,-4.7625 0.30727,-2.41924 0.35957,-5.05648 0.10027,-5.05648 -0.33429,0 -0.99674,0.97911 -1.27297,1.88148 -0.0891,0.29104 -0.20571,0.57944 -0.25914,0.64088 -0.0534,0.0614 -0.0971,0.19991 -0.0971,0.3077 0,0.18137 -0.0873,0.42679 -0.72905,2.05003 -0.65367,1.65336 -2.4746,3.85105 -3.46682,4.18412 -0.57121,0.19174 -3.19558,0.19288 -4.38839,0.002 -0.48507,-0.0777 -1.38465,-0.22231 -1.99908,-0.32142 -0.61442,-0.0991 -2.04317,-0.36708 -3.175,-0.59548 -2.01395,-0.40641 -2.26204,-0.45603 -3.70416,-0.74087 -0.78883,-0.1558 -1.43553,-0.29236 -2.26366,-0.47797 -0.30721,-0.0689 -0.75733,-0.15383 -1.00027,-0.18881 -0.24294,-0.035 -0.47096,-0.11094 -0.50671,-0.16879 -0.0357,-0.0578 -0.19489,-0.10517 -0.35364,-0.10517 -0.15875,0 -0.38052,-0.047 -0.49283,-0.10448 -0.21414,-0.10957 -2.10238,-0.71134 -2.90882,-0.92702 -1.25483,-0.33561 -1.46385,-0.37961 -1.80335,-0.37961 -0.59287,0 -1.18229,-0.41188 -2.45089,-1.71264 -0.65826,-0.67495 -1.28003,-1.22718 -1.38171,-1.22718 -0.10169,0 -0.18488,-0.0414 -0.18488,-0.0919 0,-0.20273 -1.53082,-0.47494 -3.15747,-0.56146 -0.34608,-0.0184 -0.79587,-0.0959 -0.99954,-0.17228 -0.20367,-0.0764 -0.47614,-0.17905 -0.60549,-0.22824 -0.22782,-0.0866 -0.47047,-0.15924 -1.5875,-0.475 -1.79966,-0.50873 -3.59725,-1.18425 -4.85085,-1.8229 -2.25359,-1.1481 -2.96439,-1.52171 -3.02785,-1.59152 -0.0564,-0.062 -1.81373,-0.92956 -2.73403,-1.34973 -0.4513,-0.20605 -0.60219,-0.59043 -0.28027,-0.71396 0.13541,-0.052 3.42645,1.51492 3.60226,1.71505 0.0323,0.0368 0.96666,0.525 2.07628,1.08486 1.95865,0.98825 2.30973,1.11882 6.33159,2.35477 0.64676,0.19876 1.2262,0.4058 1.28764,0.4601 0.0614,0.0543 0.61093,0.0987 1.22108,0.0987 0.61015,0 1.32717,0.0571 1.59338,0.1269 1.40835,0.36925 1.39059,0.35812 2.75484,1.7275 1.36513,1.37028 2.01164,1.79097 2.75236,1.79097 0.19733,0 0.57659,0.0569 0.8428,0.12646 0.9948,0.25994 2.13702,0.60672 2.3345,0.70876 0.1123,0.058 0.30762,0.10552 0.43403,0.10552 0.12641,0 0.26254,0.0529 0.30252,0.11759 0.04,0.0647 0.19872,0.11759 0.35277,0.11759 0.15406,0 0.3092,0.0471 0.34475,0.1046 0.0356,0.0575 0.23712,0.1344 0.44791,0.17081 0.2108,0.0364 0.56848,0.0988 0.79484,0.1386 0.22637,0.0398 0.51741,0.11842 0.64676,0.17468 0.12936,0.0562 0.4204,0.12909 0.64676,0.16185 0.22637,0.0327 0.6497,0.11051 0.94074,0.17279 0.29105,0.0623 0.84667,0.17595 1.23473,0.2526 0.38805,0.0766 0.91722,0.18272 1.17592,0.23572 0.25871,0.053 0.73496,0.14811 1.05833,0.21135 0.32338,0.0632 1.27588,0.2541 2.11667,0.42414 3.74336,0.75702 7.21585,1.07541 8.33624,0.76433 0.55319,-0.1536 1.77393,-1.28549 2.39728,-2.22281 0.52566,-0.79041 1.46421,-3.0233 1.38099,-3.28549 -0.0333,-0.10495 -0.009,-1.22096 0.0534,-2.48003 0.1091,-2.19059 0.0738,-3.17221 -0.11407,-3.17221 -0.0912,0 -0.58861,1.12084 -0.58861,1.32626 0,0.0654 -0.17832,0.49494 -0.39627,0.95445 -0.21795,0.45952 -0.43209,0.98685 -0.47587,1.17185 -0.5044,2.13143 -2.99421,3.97437 -6.30101,4.66397 -0.75319,0.15708 -4.20718,0.0892 -5.11528,-0.10048 -0.32338,-0.0676 -0.74671,-0.15507 -0.94074,-0.19447 -0.80759,-0.164 -2.65593,-0.69106 -4.58611,-1.30774 -0.90546,-0.28929 -2.49296,-0.79322 -3.52778,-1.11984 -1.03481,-0.32661 -1.97336,-0.64201 -2.08567,-0.70087 -0.1123,-0.0589 -0.30762,-0.10702 -0.43403,-0.10702 -0.12641,0 -0.26255,-0.0529 -0.30252,-0.11759 -0.04,-0.0647 -0.1761,-0.1176 -0.30252,-0.1176 -0.12641,0 -0.32172,-0.0494 -0.43403,-0.10989 -0.1123,-0.0604 -0.37617,-0.17919 -0.58636,-0.26389 -0.2102,-0.0847 -0.38218,-0.194 -0.38218,-0.24288 0,-0.0489 -0.0749,-0.0889 -0.16647,-0.0889 -0.0916,0 -0.6344,-0.46302 -1.2063,-1.02894 -1.13255,-1.12069 -1.8596,-1.55259 -3.50732,-2.0835 -0.51741,-0.16671 -1.03263,-0.35482 -1.14494,-0.41802 -0.1123,-0.0632 -0.30762,-0.11491 -0.43403,-0.11491 -0.12641,0 -0.26254,-0.0529 -0.30251,-0.11759 -0.04,-0.0647 -0.19873,-0.1176 -0.35278,-0.1176 -0.15406,0 -0.31281,-0.0529 -0.35278,-0.11759 -0.04,-0.0647 -0.19872,-0.11759 -0.35278,-0.11759 -0.15405,0 -0.3128,-0.0529 -0.35278,-0.11759 -0.04,-0.0647 -0.19872,-0.1176 -0.35277,-0.1176 -0.15406,0 -0.31281,-0.0529 -0.35278,-0.11759 -0.04,-0.0647 -0.17611,-0.11759 -0.30252,-0.11759 -0.12641,0 -0.32173,-0.0479 -0.43403,-0.10637 -0.11231,-0.0585 -1.95044,-0.67007 -4.08475,-1.35904 -2.1343,-0.68897 -3.97244,-1.30256 -4.08474,-1.36354 -0.11231,-0.061 -0.30762,-0.11087 -0.43404,-0.11087 -0.12641,0 -0.26254,-0.0529 -0.30251,-0.11759 -0.04,-0.0647 -0.19873,-0.11759 -0.35278,-0.11759 -0.15406,0 -0.31281,-0.0529 -0.35278,-0.11759 -0.04,-0.0647 -0.19872,-0.1176 -0.35278,-0.1176 -0.15405,0 -0.3128,-0.0529 -0.35278,-0.11759 -0.04,-0.0647 -0.17114,-0.11759 -0.29149,-0.11759 -0.17551,0 -0.25698,0.16873 -0.41165,0.85254 -0.27587,1.21972 -0.69411,1.99773 -1.42954,2.65919 -1.07359,0.96559 -2.47391,1.54872 -4.4231,1.84186 l -0.44097,0.0663 -6.6e-4,1.90555 c -3.6e-4,1.04806 -0.0482,2.09076 -0.10642,2.31713 -0.0582,0.22637 -0.13291,0.81823 -0.16608,1.31526 l -0.0603,0.90368 1.78364,0.87702 c 0.981,0.48236 1.88948,0.91577 2.01883,0.96313 0.78981,0.28919 2.29282,0.44564 6.17361,0.64261 6.56126,0.33301 9.43045,0.73588 12.5869,1.76736 0.96118,0.3141 2.08563,0.99364 3.01039,1.81929 0.79516,0.70993 1.96264,1.29629 3.18621,1.60023 1.02939,0.25571 3.34927,0.46887 4.28895,0.39409 7.88642,-0.6276 8.92575,-0.56332 14.38079,0.88951 0.51741,0.1378 1.12595,0.30333 1.35231,0.36783 0.42499,0.12111 0.87168,0.23676 1.73449,0.44906 1.05004,0.25836 1.51991,0.36246 2.13272,0.47249 0.34837,0.0626 0.66377,0.14411 0.70088,0.18122 0.0371,0.0371 0.35867,0.0519 0.71456,0.033 0.6317,-0.0337 0.64955,-0.0443 0.75075,-0.4461 z m -93.47759,-5.4697 c 0.29653,-0.0892 1.37183,-0.5172 2.38957,-0.95103 1.01773,-0.43382 2.03731,-0.83649 2.26572,-0.89482 0.22841,-0.0583 0.6005,-0.15997 0.82687,-0.22588 0.87528,-0.25484 1.91706,-0.44114 3.88055,-0.69394 1.92398,-0.24773 2.80222,-0.43457 3.82176,-0.81307 0.38806,-0.14407 0.79973,-0.29035 0.91482,-0.32508 0.17776,-0.0536 0.63739,-0.8896 1.03695,-1.88597 0.0584,-0.14552 0.15368,-0.38365 0.21183,-0.52917 0.26498,-0.66314 0.6837,-2.16146 0.89548,-3.2044 0.15301,-0.75348 0.28971,-1.43625 0.40613,-2.02847 0.0668,-0.33955 0.17097,-0.86871 0.23159,-1.17592 0.0606,-0.30721 0.17028,-0.79669 0.24368,-1.08774 0.0734,-0.29104 0.16194,-0.70163 0.19675,-0.91243 0.0348,-0.21079 0.11036,-0.41235 0.16789,-0.44791 0.0575,-0.0356 0.1046,-0.16793 0.1046,-0.29417 0,-0.47991 0.47116,-1.24207 0.91494,-1.48006 0.78603,-0.42151 0.9041,-0.48175 1.20173,-0.61308 0.16169,-0.0714 0.95544,-0.19658 1.76389,-0.2783 0.86286,-0.0872 1.45442,-0.19715 1.4324,-0.26617 -0.0527,-0.16533 -1.53361,-0.43028 -1.97468,-0.3533 -0.46186,0.0806 -0.73403,-0.17628 -0.4683,-0.44201 0.10499,-0.10499 0.14578,-0.27931 0.10334,-0.44162 -0.048,-0.18359 -0.002,-0.31823 0.14705,-0.42696 0.27133,-0.19839 1.41811,-0.20655 2.51819,-0.0179 0.75063,0.12872 1.10071,0.0916 0.91236,-0.0968 -0.19211,-0.1921 -2.69497,-0.39449 -3.31706,-0.26823 -0.16904,0.0343 -0.24513,-0.0222 -0.27069,-0.20104 -0.028,-0.19563 0.0836,-0.30479 0.52248,-0.51108 0.57714,-0.27128 0.80659,-0.25515 1.78216,0.12533 0.14856,0.0579 0.4105,0.10534 0.58208,0.10534 0.23787,0 0.27935,-0.0326 0.17463,-0.13733 -0.27929,-0.27929 -1.05416,-0.45749 -2.02943,-0.46671 -1.03389,-0.01 -1.53968,0.15731 -2.1724,0.71767 -0.12935,0.11456 -0.38071,0.2427 -0.55857,0.28476 -0.36698,0.0868 -0.3646,0.0945 -0.32687,-1.0614 0.0132,-0.40559 -0.0308,-0.75541 -0.10051,-0.79849 -0.12458,-0.077 -0.48396,0.63149 -0.48396,0.95411 0,0.40334 -1.62591,3.29569 -2.00392,3.5648 -0.40648,0.28938 -2.6913,4.32991 -3.32655,5.88276 -0.11836,0.28932 -0.3235,0.76416 -0.45587,1.0552 -0.22495,0.49459 -0.28293,0.63458 -0.54792,1.32292 -0.45352,1.17802 -0.63022,1.50472 -0.89303,1.65112 -0.13191,0.0735 -0.92775,0.17212 -1.76854,0.21921 -2.60674,0.14599 -5.38165,0.49541 -7.40833,0.93287 -0.72751,0.15703 -4.07893,0.32686 -4.21562,0.21363 -0.0549,-0.0455 -0.0659,-0.18984 -0.0243,-0.32074 0.0696,-0.21912 0.19882,-0.24252 1.62858,-0.29479 0.85417,-0.0312 1.84408,-0.11673 2.1998,-0.19001 2.22834,-0.45906 4.15887,-0.71436 7.11435,-0.94082 2.43435,-0.18653 2.4339,-0.18637 2.7349,-0.94709 0.064,-0.16169 0.23557,-0.55856 0.38131,-0.88194 0.14574,-0.32338 0.30592,-0.6938 0.35595,-0.82315 0.05,-0.12935 0.19426,-0.47331 0.32049,-0.76435 0.12623,-0.29105 0.32994,-0.7658 0.45269,-1.05501 0.72214,-1.70144 2.55979,-4.87972 3.18581,-5.50995 0.0853,-0.0859 0.21414,-0.26644 0.28627,-0.40123 l 0.13116,-0.24506 -1.98401,0.0773 c -2.78871,0.10868 -6.0113,0.57163 -8.74559,1.25637 -0.29104,0.0729 -0.70163,0.161 -0.91243,0.19582 -0.21079,0.0348 -0.41235,0.11036 -0.44791,0.16789 -0.0356,0.0575 -0.21715,0.1046 -0.40354,0.1046 -0.1864,0 -0.37161,0.0529 -0.41158,0.11759 -0.04,0.0647 -0.20256,0.11759 -0.36131,0.11759 -0.15875,0 -0.38052,0.0471 -0.49283,0.10473 -0.11231,0.0576 -0.89211,0.32437 -1.7329,0.59281 -0.84078,0.26845 -1.63453,0.53174 -1.76388,0.58509 -0.12936,0.0534 -0.65852,0.27108 -1.17593,0.48384 -1.19826,0.49272 -2.91448,1.35476 -3.54897,1.78261 -0.27035,0.18231 -0.54816,0.33148 -0.61736,0.33148 -0.0692,0 -0.1258,0.0415 -0.1258,0.0922 0,0.0507 -0.14552,0.17836 -0.32338,0.28362 -0.63946,0.37845 -1.79329,1.46373 -1.79329,1.68675 0,0.47402 -1.0438,-0.12227 -2.02602,-1.1574 -0.63203,-0.66607 -0.6924,-0.70149 -0.97568,-0.57242 -0.16607,0.0757 -0.69139,0.13758 -1.16736,0.13758 -0.77957,0 -0.85984,0.0213 -0.80933,0.21442 0.0308,0.11793 -0.0477,0.39574 -0.17459,0.61736 -0.12686,0.22162 -0.30027,0.69398 -0.38534,1.0497 -0.15983,0.66827 -0.51891,1.35452 -0.85448,1.63302 -0.29585,0.24553 -0.23262,0.41822 0.24859,0.67891 0.83857,0.45429 1.38296,0.7739 1.69385,0.99443 0.17167,0.12178 0.34529,0.22142 0.38582,0.22142 0.0405,0 0.60091,0.35528 1.2453,0.78951 1.07047,0.72136 1.23175,0.88124 1.86818,1.85209 1.35607,2.06858 2.97525,3.37038 5.1256,4.12092 1.19956,0.41869 3.38066,0.47355 4.57201,0.115 z m 31.24679,-2.18544 c 0.63849,-0.20639 1.16407,-0.46186 1.16407,-0.56581 0,-0.0528 -0.0549,-0.38106 -0.12202,-0.72944 -0.27228,-1.4134 -0.40214,-3.90015 -0.40457,-7.74776 -0.001,-2.23132 0.035,-4.26253 0.0808,-4.51381 l 0.0834,-0.45687 -0.73014,0.0805 c -3.08552,0.34004 -3.05779,0.33279 -4.89178,1.27842 -0.88022,0.45385 -1.86498,0.91874 -2.18836,1.03309 -0.3262,0.11534 -0.60516,0.29201 -0.62658,0.39682 -0.0212,0.1039 0.0714,0.52934 0.20579,0.9454 0.13442,0.41607 0.2444,0.88036 0.2444,1.03176 0,0.1514 0.0475,0.32555 0.10554,0.38699 0.0581,0.0614 0.13536,0.32338 0.17179,0.58208 0.0364,0.25871 0.12333,0.78787 0.19311,1.17593 0.17833,0.99174 0.34007,2.12298 0.4119,2.88102 0.12985,1.37029 0.34416,2.651 0.46324,2.7683 0.18419,0.18144 2.13201,1.11225 2.3275,1.11225 0.0925,0 0.20758,0.0393 0.25561,0.0873 0.32285,0.32285 2.51432,0.49367 3.25631,0.25382 z m -15.1813,-2.47859 c 0.29104,-0.0602 0.8599,-0.0759 1.26412,-0.035 0.55291,0.056 0.73495,0.0377 0.73495,-0.0741 0,-0.14265 -0.38043,-1.32243 -0.58381,-1.81047 -0.0539,-0.12935 -0.1616,-0.42039 -0.23933,-0.64676 -0.0777,-0.22637 -0.19599,-0.54387 -0.26279,-0.70556 -0.22336,-0.54063 -0.30766,-0.76314 -0.35129,-0.92728 -0.0413,-0.15553 -0.13156,0.10092 -0.45031,1.28006 -0.2355,0.87119 -0.58729,1.90869 -0.82693,2.43877 -0.2821,0.62401 -0.28682,0.78704 -0.0196,0.67555 0.11318,-0.0472 0.44391,-0.13509 0.73495,-0.19527 z m -31.55217,-4.55354 c 0.31861,-0.23365 0.65729,-0.84587 0.85221,-1.54051 0.0817,-0.29104 0.22458,-0.70671 0.31757,-0.92371 0.20125,-0.4696 0.12586,-0.79121 -0.20581,-0.87794 -0.3213,-0.084 -0.24905,-0.50717 0.0774,-0.45345 2.00858,0.33046 2.47723,0.28764 3.93484,-0.35954 1.68515,-0.7482 2.81371,-1.37459 3.2338,-1.79487 0.77658,-0.77693 0.98186,-2.01798 0.38218,-2.31048 -0.11319,-0.0552 -0.29839,-0.14439 -0.41158,-0.19819 -0.11318,-0.0538 -0.2587,-0.21725 -0.32338,-0.36322 -0.11591,-0.26161 -0.3738,-0.28703 -1.11713,-0.11012 -0.14115,0.0336 -0.18335,-0.11758 -0.21127,-0.75676 -0.0325,-0.74291 -0.0568,-0.80708 -0.34827,-0.9179 -0.22316,-0.0848 -0.38915,-0.0786 -0.57657,0.0217 -0.20622,0.11037 -0.34149,0.10842 -0.62492,-0.009 -0.45518,-0.18854 -0.90802,-0.78935 -0.72949,-0.96787 0.0888,-0.0888 0.21616,-0.0176 0.43648,0.24424 0.43616,0.51834 0.69285,0.49624 0.59022,-0.0508 -0.0867,-0.46243 0.0811,-0.78229 0.35529,-0.67707 0.20682,0.0794 0.22146,-0.12316 0.0208,-0.28768 -0.18981,-0.15563 -0.39636,-0.17439 -1.67569,-0.15219 l -1.05834,0.0184 -0.26347,0.56268 c -0.25039,0.53473 -0.76072,0.97093 -0.93363,0.79801 -0.0442,-0.0442 0.0935,-0.25972 0.30603,-0.47896 0.34929,-0.36038 0.37866,-0.44418 0.30615,-0.87341 -0.22884,-1.35448 -1.11325,-0.67176 -1.23632,0.95437 -0.082,1.08357 -0.28682,1.06579 -0.33051,-0.0287 -0.0344,-0.86258 0.0582,-1.22793 0.42371,-1.67118 0.24908,-0.30207 0.10961,-0.39579 -0.82425,-0.55385 -0.47184,-0.0799 -1.0685,-0.2004 -1.3259,-0.26787 -0.39567,-0.10371 -0.48655,-0.0925 -0.58796,0.0727 -0.066,0.10745 -0.39945,0.56874 -0.74106,1.02508 -0.76696,1.02457 -0.9664,1.48866 -0.9664,2.24881 0,0.82693 0.39777,1.46383 1.26487,2.02526 0.66375,0.42977 0.96939,0.82446 0.96939,1.25181 0,0.27619 -0.24449,0.8113 -0.49892,1.092 -0.11365,0.12538 -0.20663,0.37064 -0.20663,0.54504 0,0.21394 -0.10226,0.38408 -0.31437,0.52306 -0.30016,0.19667 -0.30446,0.21323 -0.0951,0.3663 0.12059,0.0882 0.31497,0.16032 0.43196,0.16032 0.1485,0 0.21271,0.0888 0.21271,0.29398 0,0.27714 0.0362,0.29398 0.63236,0.29398 0.63964,0 0.8341,-0.10775 0.91309,-0.50597 0.0709,-0.35746 0.27511,-0.28041 0.31368,0.11837 0.0568,0.58757 -0.14143,0.82053 -0.88143,1.03565 -0.89229,0.2594 -1.888,0.0637 -2.47029,-0.48543 -0.33931,-0.32002 -0.38889,-0.44169 -0.38889,-0.95439 0,-0.72585 0.27383,-1.11279 0.97773,-1.38161 0.37008,-0.14133 0.54122,-0.28924 0.64121,-0.55413 0.17904,-0.47433 0.068,-0.67728 -0.85611,-1.56461 -1.11055,-1.06637 -1.39962,-2.01612 -1.05586,-3.46899 0.0568,-0.23987 0.0101,-0.32103 -0.25372,-0.44097 -0.38588,-0.17545 -1.92269,-0.19895 -1.92269,-0.0294 0,0.0647 -0.10584,0.1176 -0.23519,0.1176 -0.32628,0 -0.29371,-0.16979 0.0795,-0.41431 0.36263,-0.23761 1.7346,-0.28094 2.13363,-0.0674 0.41401,0.22157 0.54422,0.15053 1.17515,-0.64107 l 0.61369,-0.76999 -0.61926,-0.27158 c -0.34059,-0.14938 -0.88727,-0.33498 -1.21484,-0.41245 -0.53287,-0.12603 -0.66904,-0.11365 -1.29351,0.11755 -0.87164,0.32271 -2.19065,1.16124 -2.83166,1.80016 -0.46329,0.46177 -1.21768,1.74815 -1.21768,2.07638 0,0.0844 -0.0493,0.316 -0.10962,0.51462 -0.0603,0.19861 -0.17566,0.59925 -0.25637,0.89029 -0.0807,0.29104 -0.18386,0.58208 -0.22922,0.64676 -0.24398,0.34787 -0.3736,3.22108 -0.18036,3.99815 0.1212,0.48735 0.5304,1.46649 0.66346,1.5875 0.0356,0.0323 0.18199,0.22687 0.3254,0.43231 0.53472,0.76593 2.6966,2.27708 3.85084,2.69173 0.85119,0.30578 1.68836,0.3828 3.403,0.3131 1.1405,-0.0464 1.59387,-0.10994 1.78533,-0.25034 z m -6.19505,-2.5661 c -0.69089,-0.2596 -1.76389,-1.50202 -1.76389,-2.04237 0,-0.47422 0.13049,-0.42813 0.44613,0.15755 0.36752,0.68196 0.5782,0.9154 1.22956,1.36244 0.69333,0.47583 0.74271,0.76832 0.0882,0.52238 z m 3.56185,-2.03182 c -0.0338,-0.12935 -0.0818,-0.23518 -0.10658,-0.23518 -0.0248,0 -0.0451,0.10583 -0.0451,0.23518 0,0.12936 0.048,0.23519 0.10659,0.23519 0.0586,0 0.0789,-0.10583 0.0451,-0.23519 z m 70.71651,-2.22279 c -0.0654,-0.72634 -0.26512,-1.76396 -0.64741,-3.36285 -0.0618,-0.25871 -0.1744,-0.73496 -0.2501,-1.05834 -0.0757,-0.32338 -0.18581,-1.43463 -0.24468,-2.46944 -0.21923,-3.85342 -0.30535,-4.99588 -0.38242,-5.07295 -0.13278,-0.13277 -0.97903,0.31343 -1.381,0.72817 -0.33385,0.34444 -0.38077,0.47291 -0.39241,1.07448 -0.0124,0.64232 0.22515,1.44761 0.42707,1.44761 0.16126,0 0.0924,0.4764 -0.0783,0.54192 -0.34468,0.13226 -1.15154,-0.47589 -1.41872,-1.06932 -0.22967,-0.51011 -0.2704,-1.14283 -0.15494,-2.40672 0.13438,-1.47096 0.0757,-1.60168 -0.45075,-1.00411 -1.70119,1.93102 -2.3945,3.8242 -2.3945,6.53857 0,0.75114 0.0549,1.65075 0.1219,1.99912 0.067,0.34838 0.12576,1.20227 0.13047,1.89753 l 0.009,1.26412 h 0.33295 c 0.18313,0 0.36567,0.0529 0.40564,0.1176 0.04,0.0647 0.19872,0.11759 0.35278,0.11759 0.15405,0 0.3128,0.0529 0.35278,0.11759 0.04,0.0647 0.19872,0.1176 0.35277,0.1176 0.15406,0 0.31281,0.0529 0.35278,0.11759 0.04,0.0647 0.19872,0.11759 0.35278,0.11759 0.15405,0 0.3128,0.0529 0.35278,0.11759 0.04,0.0647 0.1761,0.1176 0.30251,0.1176 0.12642,0 0.32173,0.0481 0.43404,0.10698 0.1123,0.0588 0.94502,0.3463 1.85048,0.6388 l 1.6463,0.53182 0.0389,-0.30395 c 0.0214,-0.16718 0.0123,-0.60016 -0.0203,-0.96219 z m -60.54208,-2.82634 c 0.0294,-0.0882 -0.0147,-0.13229 -0.10289,-0.10289 -0.0849,0.0283 -0.17749,0.1209 -0.20579,0.20579 -0.0294,0.0882 0.0147,0.13229 0.1029,0.10289 0.0849,-0.0283 0.17749,-0.1209 0.20578,-0.20579 z m 31.65446,0.004 c 0,-0.19879 -1.75367,-0.51092 -2.33677,-0.41591 -0.51265,0.0835 -0.47026,0.0973 0.72995,0.23687 0.70082,0.0815 1.30495,0.17894 1.34252,0.21651 0.10415,0.10415 0.2643,0.0814 0.2643,-0.0375 z m 20.41493,-20.54436 c 0.15945,-1.90907 0.92742,-3.25153 2.54863,-4.45517 0.40224,-0.29864 0.82456,-0.6194 0.93848,-0.71281 0.11392,-0.0934 0.25503,-0.16984 0.31358,-0.16984 0.0585,0 0.12409,-0.0406 0.14564,-0.0902 0.0216,-0.0496 0.29478,-0.29758 0.60716,-0.55103 0.67717,-0.54944 1.3056,-1.41558 1.17747,-1.62289 -0.0962,-0.15574 -0.23575,-0.92918 -0.35271,-1.95565 -0.0399,-0.35012 -0.006,-0.98209 0.0751,-1.41365 0.22722,-1.20421 0.13369,-1.37014 -0.35542,-0.63049 -0.23935,0.36195 -0.49454,0.61611 -0.61985,0.61736 -0.18663,0.002 -0.20349,-0.067 -0.13623,-0.55646 0.10361,-0.75391 0.31218,-1.43911 0.68174,-2.23972 0.54841,-1.18805 2.6946,-2.56683 4.68914,-3.01243 0.98894,-0.22095 2.46592,-0.33421 2.66283,-0.20421 0.0872,0.0576 0.13951,0.20418 0.11623,0.32578 -0.0364,0.19003 -0.19679,0.23298 -1.14167,0.30571 -2.02044,0.15552 -4.07634,0.9498 -5.29659,2.04629 -0.56657,0.50912 -1.06847,1.31443 -1.06847,1.7144 0,0.21135 0.0344,0.20011 0.32338,-0.10561 0.96085,-1.01655 2.91402,-1.88296 4.7331,-2.09958 2.36036,-0.28108 3.4175,-0.61384 4.23045,-1.33164 0.33277,-0.29381 0.42655,-0.32897 0.50474,-0.18923 0.0536,0.0958 0.0407,0.27505 -0.0292,0.40565 -0.0827,0.15442 -0.0865,0.30497 -0.0112,0.44253 0.22933,0.41917 0.58446,1.54669 0.77281,2.45362 0.24497,1.17962 0.35731,5.57038 0.16669,6.51553 -0.32556,1.61425 -1.53989,3.22856 -2.99203,3.97754 l -0.70199,0.36207 0.50368,0.006 c 1.1814,0.0133 2.86647,-1.40474 3.68897,-3.10433 0.24874,-0.51399 0.45226,-1.00347 0.45226,-1.08773 0,-0.0843 0.0494,-0.15321 0.10978,-0.15321 0.0604,0 0.13314,-0.11906 0.1617,-0.26459 0.0286,-0.14552 0.0335,-0.0264 0.011,0.26459 l -0.0409,0.52916 0.28136,-0.34287 c 0.15475,-0.18857 0.35167,-0.47962 0.43761,-0.64675 0.0859,-0.16714 0.18287,-0.33035 0.21541,-0.36269 0.0634,-0.063 0.27904,-0.52122 0.47037,-0.99954 0.0647,-0.16169 0.16652,-0.41304 0.22633,-0.55856 0.34093,-0.82959 0.49413,-2.4459 0.41517,-4.38033 -0.0947,-2.31979 -0.30653,-3.0226 -1.1719,-3.88798 -0.62835,-0.62835 -1.73095,-1.15516 -2.24359,-1.07197 -0.24774,0.0402 -0.47811,-0.0149 -0.70755,-0.16912 -0.18712,-0.12581 -0.52543,-0.31185 -0.75179,-0.41344 -0.22637,-0.10159 -0.53867,-0.24546 -0.69401,-0.31971 -0.4434,-0.21194 -2.6641,-0.15472 -3.36294,0.0866 -2.0688,0.71455 -4.01783,2.16969 -5.61397,4.1914 -0.36304,0.45983 -1.45321,2.577 -2.14783,4.17121 -0.60941,1.39864 -1.34371,2.79349 -1.83576,3.48713 -0.12178,0.17168 -0.22142,0.36571 -0.22142,0.43118 0,0.0655 -0.0399,0.13668 -0.0887,0.15823 -0.12914,0.0571 -0.79733,1.47949 -0.98511,2.09707 -0.20486,0.67375 -0.20881,3.5857 -0.005,3.78937 0.076,0.076 0.13822,0.21866 0.13822,0.31698 0,0.29569 0.52191,1.29431 0.62413,1.19421 0.0522,-0.0511 0.12101,-0.40479 0.15284,-0.78589 z m 17.12456,-9.04198 c 0.003,-0.9971 0.008,-1.01909 0.0903,-0.37998 0.0478,0.37309 0.0463,0.84934 -0.003,1.05833 -0.0629,0.26474 -0.0892,0.059 -0.0869,-0.67835 z m -0.29976,-3.02062 c -0.0895,-0.65448 -0.55618,-2.2919 -0.93555,-3.2827 -0.19788,-0.5168 -0.26119,-0.8314 -0.18933,-0.94074 0.0883,-0.13432 0.13438,-0.12148 0.25281,0.0704 0.22581,0.36581 0.67344,1.62012 0.67374,1.8879 1.4e-4,0.13259 0.0478,0.29134 0.10581,0.35278 0.0983,0.10399 0.14683,0.35714 0.32247,1.68063 0.0373,0.28082 0.0164,0.56196 -0.0464,0.62475 -0.0738,0.0738 -0.13868,-0.065 -0.18354,-0.39299 z m -6.48927,6.58592 c 2.17569,-0.58765 4.26791,-2.51817 4.75602,-4.38845 0.15895,-0.60902 0.15897,-2.38644 4e-5,-3.09353 -0.24192,-1.07635 -0.57761,-2.12137 -0.75295,-2.34397 -0.0122,-0.0155 -0.30671,0.11352 -0.6544,0.28679 -0.64041,0.31912 -1.08742,0.43278 -2.46676,0.6272 -0.4204,0.0593 -1.02894,0.16495 -1.35232,0.23488 -0.32338,0.0699 -0.76043,0.15651 -0.97123,0.19241 -0.21079,0.0359 -0.41235,0.11233 -0.44791,0.16986 -0.0356,0.0575 -0.14423,0.1046 -0.2415,0.1046 -0.19724,0 -1.53296,0.63169 -1.80943,0.85572 -0.28837,0.23367 -0.47732,1.20977 -0.55139,2.84853 -0.0624,1.38061 -0.0421,1.62906 0.19931,2.44236 0.27182,0.91562 0.7949,1.69676 1.33368,1.99165 0.57477,0.31459 1.93781,0.34773 2.95884,0.072 z m -1.94028,-0.76718 c 0,-0.0532 -0.21166,-0.22759 -0.47037,-0.38747 -0.48585,-0.30028 -0.56652,-0.41873 -0.33723,-0.49516 0.0921,-0.0307 0.0739,-0.15889 -0.0588,-0.41553 -0.34461,-0.6664 -0.28071,-0.75587 0.51655,-0.72333 0.83504,0.0341 1.13659,-0.14489 0.72724,-0.43161 -0.45002,-0.31521 -0.29887,-0.90884 0.25717,-1.01001 0.31096,-0.0566 0.38854,0.25389 0.0834,0.33369 -0.25,0.0654 -0.3482,0.2725 -0.12921,0.2725 0.0651,0 0.2334,0.13229 0.37399,0.29398 0.14059,0.16169 0.34878,0.29398 0.46265,0.29398 0.11387,0 0.23974,0.0529 0.27972,0.1176 0.13267,0.21467 0.29398,0.1217 0.29398,-0.16945 0,-0.15788 0.0529,-0.31975 0.11759,-0.35972 0.0699,-0.0432 0.11759,0.0954 0.11759,0.3417 0,0.50742 -0.29618,0.71824 -0.76084,0.54158 -0.41977,-0.1596 -0.50063,0.0935 -0.24431,0.76466 0.25825,0.67622 0.17092,0.80538 -0.47866,0.70797 -0.41425,-0.0621 -0.51526,-0.0426 -0.51526,0.0994 0,0.0972 -0.0529,0.20936 -0.11759,0.24933 -0.0647,0.04 -0.1176,0.0291 -0.1176,-0.0241 z m 0.58797,-0.74025 c 0,-0.0647 -0.0661,-0.11766 -0.14699,-0.11774 -0.0809,-8e-5 -0.30075,-0.13237 -0.48866,-0.29398 -0.49176,-0.42291 -0.71392,-0.40899 -0.33449,0.021 0.36885,0.41796 0.97014,0.66015 0.97014,0.39076 z m 0.23518,-0.47037 c 0,-0.0647 -0.0627,-0.1176 -0.13941,-0.1176 -0.0767,0 -0.25797,-0.11137 -0.40287,-0.2475 -0.1449,-0.13613 -0.32406,-0.21005 -0.39814,-0.16427 -0.0864,0.0534 0.005,0.18227 0.25588,0.35933 0.41722,0.29494 0.68454,0.36134 0.68454,0.17004 z m -0.0373,-0.72761 c -0.0375,-0.0938 -0.0654,-0.0659 -0.0711,0.0711 -0.005,0.12396 0.0227,0.19341 0.0618,0.15434 0.0391,-0.0391 0.0433,-0.1405 0.009,-0.22539 z m 3.19558,-1.08925 c -0.4173,-0.28356 -0.57128,-0.50959 -0.57128,-0.83859 0,-0.28763 0.2226,-0.18267 0.49549,0.23362 0.19199,0.29288 0.38708,0.42707 0.72656,0.49977 0.59661,0.12775 0.70962,0.39335 0.16736,0.39335 -0.22446,0 -0.5766,-0.12402 -0.81813,-0.28815 z m 1.18837,-0.53913 c -0.21343,-0.20864 -0.61729,-0.48075 -0.89747,-0.60468 -0.49628,-0.21954 -0.6952,-0.56711 -0.32456,-0.56711 0.52643,0 1.88371,1.10841 1.70714,1.39412 -0.0743,0.12026 -0.18787,0.0682 -0.48511,-0.22233 z m -4.40548,-1.54388 c -0.37378,-0.20622 -0.88195,-0.71594 -0.88195,-0.88463 0,-0.24866 0.21095,-0.1796 0.60671,0.19861 0.20317,0.19416 0.5731,0.40786 0.82208,0.47491 0.24898,0.067 0.45269,0.17277 0.45269,0.23495 0,0.15367 -0.70842,0.13677 -0.99953,-0.0238 z m 0.75425,-0.9661 c -0.28549,-0.2186 -0.7209,-0.4333 -0.96759,-0.47712 -0.60115,-0.10677 -0.51136,-0.37453 0.10685,-0.31863 0.54419,0.0492 0.81692,0.17606 1.25301,0.58281 0.31131,0.29035 0.42933,0.61039 0.22509,0.61039 -0.0541,0 -0.33188,-0.17885 -0.61736,-0.39745 z m -74.07324,56.43404 c -0.84586,-0.1858 -1.33694,-0.34553 -2.79737,-0.90989 -1.40234,-0.54192 -3.72526,-1.71242 -3.9054,-1.96791 -0.0323,-0.0459 -0.40276,-0.31184 -0.82315,-0.59107 -1.47971,-0.98281 -3.65731,-3.44912 -3.33232,-3.77411 0.13572,-0.13572 0.2489,-0.0422 0.86268,0.71287 0.56989,0.70107 1.02765,1.15712 1.94047,1.93323 0.60163,0.51151 1.98637,1.47695 2.11843,1.47695 0.0404,0 0.30419,0.15875 0.5862,0.35278 0.28201,0.19403 0.55692,0.35278 0.6109,0.35278 0.054,0 0.42802,0.16093 0.83118,0.35762 0.98881,0.4824 2.943,1.10389 4.04631,1.28683 0.79115,0.13118 2.89751,0.11882 4.62457,-0.0271 0.28495,-0.0241 0.35984,0.0198 0.38951,0.22827 0.0303,0.21266 -0.0422,0.27702 -0.41158,0.36573 -1.60181,0.38466 -3.53644,0.46753 -4.74043,0.20306 z m -14.94626,-5.97539 c -0.33,-0.22168 -0.40575,-0.3524 -0.43506,-0.75076 -0.0319,-0.43398 0.009,-0.51908 0.40896,-0.84871 0.24446,-0.2015 0.51179,-0.36636 0.59407,-0.36636 0.0823,0 0.14959,-0.0529 0.14959,-0.11759 0,-0.0647 0.0952,-0.1176 0.21167,-0.1176 0.11641,0 0.26194,-0.0437 0.32338,-0.0971 0.2321,-0.20184 1.07227,-0.38907 1.58162,-0.35247 0.43809,0.0315 0.52916,0.0785 0.52916,0.27322 0,0.18854 -0.10495,0.25099 -0.52916,0.31487 -0.93864,0.14135 -1.22149,0.22658 -1.96689,0.59264 -0.79939,0.39259 -1.02883,0.73267 -0.67088,0.99441 0.1173,0.0858 0.3487,0.15595 0.51422,0.15595 0.41283,0 2.35414,-0.43694 2.84333,-0.63996 0.1194,-0.0496 0.21687,-0.0107 0.26089,0.10404 0.11122,0.28984 -0.0395,0.53222 -0.37628,0.60529 -0.17073,0.037 -0.4427,0.11259 -0.60439,0.16788 -1.19466,0.40857 -2.30074,0.44069 -2.83423,0.0823 z m 3.884,-1.92955 c -0.12556,-0.33024 -0.0659,-1.24845 0.13983,-2.15295 0.15874,-0.69781 0.29712,-1.32701 0.46554,-2.11667 0.0759,-0.35571 0.17814,-0.77905 0.22729,-0.94074 0.0491,-0.16169 0.15762,-0.5321 0.24104,-0.82314 0.0834,-0.29105 0.1954,-0.57944 0.24883,-0.64088 0.0534,-0.0614 0.0971,-0.18919 0.0971,-0.28387 0,-0.62975 2.84095,-5.89562 3.1807,-5.89562 0.23816,0 0.0941,0.61123 -0.28349,1.20304 -0.42534,0.6666 -1.30915,2.36971 -1.72509,3.32427 -0.34858,0.79998 -0.58505,1.35425 -0.72746,1.70509 -0.0656,0.16169 -0.16606,0.38587 -0.22319,0.49818 -0.0571,0.1123 -0.10387,0.30762 -0.10387,0.43403 0,0.12641 -0.0471,0.25893 -0.1046,0.29448 -0.10363,0.064 -0.18087,0.39245 -0.30613,1.30155 -0.17016,1.23499 -0.49921,2.62219 -0.66806,2.81635 -0.0534,0.0614 -0.0971,0.44508 -0.0971,0.85254 0,0.78297 -0.15554,0.96563 -0.36134,0.42434 z m 67.27152,-21.54133 c 0,-0.54232 0.25363,-0.83104 0.52917,-0.60236 0.21145,0.17549 0.23239,0.72011 0.0353,0.91722 -0.0776,0.0776 -0.23636,0.14111 -0.35278,0.14111 -0.16744,0 -0.21167,-0.0953 -0.21167,-0.45597 z m 7.70232,-4.14996 c -1.05501,-0.35543 -1.70817,-0.88641 -2.07305,-1.68527 -0.26318,-0.57619 -0.29143,-1.99315 -0.0551,-2.76343 0.23466,-0.76485 0.44277,-1.17763 0.55785,-1.1065 0.12879,0.0796 0.13069,0.67208 0.003,0.8184 -0.16098,0.18394 -0.3726,1.04885 -0.3726,1.52283 0,2.19771 2.49762,3.36133 4.8306,2.25053 0.74957,-0.35689 1.75459,-1.61038 1.75459,-2.18837 0,-0.12357 0.0529,-0.25738 0.11759,-0.29735 0.16105,-0.0995 0.14839,-1.29983 -0.0191,-1.81433 -0.23941,-0.73525 -0.38853,-1.06669 -0.47994,-1.06669 -0.0489,0 -0.0889,-0.13229 -0.0889,-0.29398 0,-0.68488 0.42447,-0.21062 0.92587,1.03447 0.17228,0.42779 0.17113,2.32861 -0.002,2.75236 -0.38078,0.93384 -0.52001,1.16218 -1.02364,1.6789 -0.59105,0.60639 -1.02816,0.86821 -1.8823,1.12744 -0.62649,0.19013 -1.67638,0.20497 -2.19281,0.031 z m 1.20532,-1.31682 c -0.31718,-0.24536 -0.25185,-0.71587 0.15604,-1.12376 0.199,-0.199 0.40706,-0.36182 0.46236,-0.36182 0.0553,0 0.21931,0.1668 0.36448,0.37067 l 0.26394,0.37066 -0.22654,0.42309 c -0.24965,0.46626 -0.66407,0.59672 -1.02028,0.32116 z m -12.2539,-5.63533 c -0.25815,-0.47935 -0.21053,-0.75751 0.17947,-1.04839 0.2535,-0.18908 0.35087,-0.20321 0.60444,-0.0877 0.16624,0.0757 0.36883,0.26211 0.4502,0.41415 0.1303,0.24346 0.11008,0.32608 -0.16945,0.69257 -0.41433,0.54321 -0.78246,0.55335 -1.06466,0.0293 z"
       id="path51" /></g></svg>
