<?xml version="1.0" encoding="UTF-8" standalone="no"?>
<!-- Created with Inkscape (http://www.inkscape.org/) -->

<svg
   width="130.17212mm"
   height="55.587898mm"
   viewBox="0 0 130.17213 55.587898"
   version="1.1"
   id="svg1"
   xml:space="preserve"
   xmlns="http://www.w3.org/2000/svg"
   xmlns:svg="http://www.w3.org/2000/svg"><defs
     id="defs1" /><g
     id="layer1"
     transform="translate(386.18437,27.3705)"><path
       style="fill:#4d4d4d"
       d="m -385.30318,28.163668 c -0.16169,-0.0556 -0.42594,-0.2989 -0.58721,-0.54057 l -0.29323,-0.4394 -7.5e-4,-1.29352 c -8e-4,-1.35846 0.1744,-2.26069 0.6736,-3.46898 0.0668,-0.16169 0.16022,-0.39981 0.20759,-0.52916 0.28026,-0.76534 0.60938,-1.48515 0.83336,-1.82269 0.1073,-0.16169 0.22968,-0.50565 0.27197,-0.76435 0.0423,-0.25871 0.1265,-0.73496 0.18715,-1.05833 0.0607,-0.32338 0.16892,-0.93193 0.2406,-1.35232 0.14851,-0.87101 0.29404,-1.69828 0.47059,-2.67523 0.0672,-0.37189 0.14926,-0.88783 0.18234,-1.14653 0.15781,-1.234269 0.42947,-2.766627 0.59325,-3.3463653 0.54643,-1.934264 1.52073,-2.827245 3.08471,-2.827245 0.9081,0 1.41484,0.139383 2.72941,0.750757 1.26735,0.589414 6.03647,0.691737 9.1631,0.196596 0.94884,-0.150261 1.99268,-0.341715 2.52824,-0.46371 1.53796,-0.350335 1.72247,-0.387824 3.58657,-0.728738 2.03072,-0.371387 5.78644,-0.6238211 7.66104,-0.514923 l 1.25224,0.07274 0.0792,-0.4690391 c 0.0436,-0.257972 0.1828,-0.562758 0.30937,-0.677303 0.25588,-0.231563 1.65847,-0.44889 3.80969,-0.590301 l 1.29352,-0.08503 -0.64646,-0.284691 c -2.09593,-0.9230179 -2.97691,-1.4391759 -3.61306,-2.1168659 -0.62685,-0.667788 -0.66291,-1.60501502 -0.0765,-1.98922802156 l 0.30513,-0.19992899844 1.19231,0.139404 c 0.65577,0.07667 2.03898,0.220243 3.07379,0.319047 1.03482,0.0988 2.3485,0.284121 2.9193,0.411815 0.5708,0.127694 1.40424,0.232171 1.85208,0.232171 h 0.81427 l 0.44097,-0.449828 c 0.4407,-0.449547 0.68355,-0.86912 1.27108,-2.19600498 0.5681,-1.283034 0.61908,-1.407332 0.77165,-1.881482 0.0832,-0.258703 0.19346,-0.520641 0.24493,-0.582083 0.0515,-0.06144 0.0936,-0.230298 0.0936,-0.375236 0,-0.144938 0.0468,-0.292457 0.10404,-0.32782 0.0572,-0.03536 0.13224,-0.210465 0.16671,-0.389116 0.0345,-0.17865 0.11994,-0.523256 0.18994,-0.765791 0.28893,-1.001077 0.35734,-1.247105 0.59676,-2.146065 0.1378,-0.517407 0.32839,-1.25504 0.42353,-1.639183 0.63046,-2.5455397 1.61902,-5.6934197 2.06052,-6.5613047 0.0571,-0.112305 0.10387,-0.308253 0.10387,-0.435439 0,-0.22321 0.0763,-0.446429 0.43731,-1.279025 0.22116,-0.510099 0.739,-0.995682 1.42243,-1.333833 0.48476,-0.239851 0.72035,-0.272296 1.96202,-0.270201 0.77611,0.0013 1.70216,0.07109 2.05787,0.155078 4.22711,0.998007 6.80364,1.787667 8.14169,2.495276 0.11231,0.05939 0.30226,0.107984 0.42212,0.107984 0.19098,0 1.91657,0.826453 2.71606,1.300827 0.4598,0.272816 4.28944,2.789411 4.42476,2.90767 0.068,0.05941 1.09987,0.757559 2.29306,1.551434 1.19319,0.793875 2.28115,1.5447627 2.41768,1.6686397 l 0.24824,0.225232 0.7725,-0.290769 c 1.23769,-0.4658667 2.58775,-1.2824267 3.31415,-2.0045037 0.19965,-0.198465 0.52012,-0.475922 0.71216,-0.616572 0.91119,-0.667362 1.25522,-0.998017 2.29185,-2.202724 1.80809,-2.101241 2.48559,-2.754619 4.34851,-4.193695 1.43504,-1.10854 1.84935,-1.3834 3.32199,-2.203825 1.02702,-0.572166 2.46777,-0.963011 3.54989,-0.963011 1.87407,0 4.77863,0.948811 5.90398,1.928609 1.81783,1.582712 2.04807,1.705093 2.93659,1.560907 0.78388,-0.127207 1.2715,-0.450443 1.36142,-0.902479 0.17654,-0.887429 0.23338,-1.125847 0.3224,-1.352315 0.0508,-0.129351 0.1565,-0.446851 0.23479,-0.705555 0.0783,-0.258704 0.3602,-0.920162 0.62645,-1.469908 0.38789,-0.800929 0.67356,-1.186462 1.43766,-1.940277 0.52447,-0.517408 1.16272,-1.050563 1.41833,-1.18479 0.25561,-0.134227 0.57057,-0.300033 0.69993,-0.368457 0.87373,-0.462181 2.08617,-0.794094 3.32291,-0.909663 0.72288,-0.06755 0.86455,-0.05089 0.92587,0.108918 0.0398,0.103769 0.0526,0.206805 0.0285,0.228967 -0.0242,0.02216 -0.57309,0.122132 -1.21985,0.222153 -1.41154,0.218294 -1.90566,0.339804 -2.41492,0.593858 -0.21155,0.105536 -0.45589,0.191884 -0.54296,0.191884 -0.0871,0 -0.15833,0.05292 -0.15833,0.117592 0,0.06468 -0.0566,0.117593 -0.1258,0.117593 -0.21199,0 -1.12334,0.676493 -1.70403,1.264902 -0.63462,0.643051 -1.20951,1.490699 -1.57767,2.326218 -0.1414,0.32088 -0.30568,0.675303 -0.36507,0.787609 -0.0594,0.112305 -0.10798,0.30762 -0.10798,0.434032 0,0.126412 -0.0471,0.258932 -0.1046,0.294487 -0.0575,0.03556 -0.13691,0.250345 -0.17639,0.477311 -0.0395,0.226965 -0.10404,0.597872 -0.14345,0.824238 -0.0463,0.266109 -0.0255,0.411574 0.0588,0.411574 0.0717,0 0.13046,0.15875 0.13046,0.352777 0,0.221249 -0.0604,0.352778 -0.16199,0.352778 -0.0891,0 -0.22987,0.08178 -0.31282,0.181741 -0.083,0.09996 -0.22693,0.15254 -0.31994,0.116851 -0.093,-0.03569 -0.40387,0.01482 -0.69082,0.112241 -1.08303,0.367698 -1.81357,0.133246 -2.97478,-0.954692 -0.83923,-0.786278 -1.64249,-1.34675 -2.24243,-1.564651 -0.22637,-0.08222 -0.51741,-0.191029 -0.64676,-0.241806 -0.12935,-0.05078 -0.44685,-0.14708 -0.70556,-0.214007 -0.2587,-0.06693 -0.68817,-0.178793 -0.95438,-0.248589 -0.73586,-0.192935 -2.94524,-0.157223 -3.57293,0.05775 -2.77649,0.95091 -6.52082,3.734347 -8.89099,6.609334 -0.80953,0.981943 -2.86871,2.976891 -3.7823,3.664311 -1.28117,0.9639997 -2.86529,1.6983387 -4.78921,2.2201027 -1.50905,0.409252 -3.22196,0.605319 -7.40833,0.847989 -4.59705,0.266476 -6.03391,0.518012 -7.79269,1.364182 -2.04483,0.9838 -4.58696,3.164929 -6.76883,5.80760798 -1.54148,1.86704002 -1.79539,2.15706602 -2.3884,2.72809102 -0.80065,0.770973 -1.09848,1.021875 -1.57264,1.324866 -0.6712,0.4288889 -0.76157,0.6011789 -0.72305,1.3783899 0.0242,0.488997 -0.0215,0.785054 -0.15216,0.9844261 l -0.18682,0.285119 h 0.85194 c 0.49445,0 1.17406,-0.09462 1.61961,-0.225495 0.42222,-0.124022 1.05871,-0.2793221 1.41443,-0.3451121 0.35571,-0.06579 0.9286,-0.175983 1.27309,-0.244875 0.34448,-0.06889 0.78274,-0.125258 0.97391,-0.125258 0.69256,0 1.0802,-0.277466 1.49914,-1.073037 2.40213,-4.56167692 6.39377,-7.3936299 10.42131,-7.3936299 0.94419,0 1.12811,0.0314 1.22307,0.208823 0.0692,0.129296 0.0702,0.283162 0.002,0.40402 -0.0912,0.163028 -0.32486,0.196167 -1.41758,0.201084 -0.71959,0.0032 -1.47293,0.05839 -1.67408,0.122563 -2.0488,0.653599 -2.72538,0.982031 -4.01111,1.94712998 -1.64785,1.23691402 -2.88206,2.67767402 -4.11913,4.80847892 l -0.33542,0.577747 0.40459,-0.08548 c 0.65653,-0.138699 3.10289,-0.366343 8.57728,-0.79815 2.5251,-0.199174 6.94226,-0.195514 8.17268,0.0068 0.83318,0.136977 1.38228,0.26436 2.41065,0.559231 0.40606,0.116433 1.06476,0.48904 1.38171,0.781593 0.14552,0.134319 0.26459,0.190115 0.26459,0.12399 0,-0.06613 0.27781,-0.212582 0.61736,-0.32546 0.73217,-0.243399 2.0037,-0.634485 2.49884,-0.768572 0.19403,-0.05254 1.67569,-0.471282 3.29259,-0.9305299 1.6169,-0.459248 3.15148,-0.894281 3.41019,-0.96674 0.2587,-0.07246 0.60266,-0.172386 0.76435,-0.22206 0.16169,-0.04967 0.53211,-0.156888 0.82315,-0.238253 1.78136,-0.498007 2.93439,-0.93397 4.44364,-1.68014602 1.24116,-0.613634 1.16028,-0.394158 1.2727,-3.45360898 0.1374,-3.739373 0.12662,-5.242278 -0.0517,-7.206558 -0.14812,-1.6319377 -0.11868,-2.4732857 0.0865,-2.4732857 0.0529,0 0.1303,0.621771 0.17208,1.381713 0.0418,0.759942 0.13545,1.7521297 0.20817,2.2048607 0.16665,1.037633 0.16663,1.219684 -5.2e-4,6.408797 -0.17129,5.317822 -0.17251,5.610254 -0.0307,7.3495369 0.13114,1.6082871 0.24689,2.2139301 0.70277,3.6769431 0.15618,0.50121 0.70552,1.6449133 0.98739,2.0556963 0.23306,0.339656 0.70961,0.43152 1.11882,0.215673 0.1123,-0.05924 0.3992,-0.192387 0.63754,-0.295885 0.23835,-0.103497 0.84689,-0.50139 1.35232,-0.8842063 1.99244,-1.509091 4.22051,-3.203671 4.38794,-3.337289 0.097,-0.07742 0.3616,-0.269752 0.58796,-0.4274051 0.22637,-0.157652 0.43804,-0.318198 0.47037,-0.356768 0.0323,-0.03857 0.24401,-0.199123 0.47037,-0.356784 0.91042,-0.634098 1.11688,-0.940139 0.83423,-1.2365959 -0.0586,-0.06144 -0.21235,-0.3029 -0.34172,-0.536574 -0.44512,-0.804035 -0.5517,-0.977591 -0.69829,-1.137093 -0.0808,-0.08796 -0.14699,-0.200977 -0.14699,-0.251137 0,-0.05016 -0.11184,-0.21836 -0.24852,-0.373777 -0.13669,-0.155417 -0.37869,-0.451406 -0.53779,-0.657754 -0.33665,-0.43663502 -0.39186,-0.42699602 -1.38916,0.242525 -0.7866,0.528077 -1.2013,0.88337 -2.61542,2.24078 l -0.97115,0.9322019 v 0.632624 c 0,0.347944 -0.0576,0.880953 -0.12805,1.1844661 -0.20426,0.880226 -0.21514,0.902446 -0.36742,0.750167 -0.10158,-0.10158 -0.10045,-0.404703 0.005,-1.2249871 0.24669,-1.9269739 0.17184,-3.1802359 -0.32845,-5.49972892 -0.64749,-3.00197598 -0.71918,-3.49891498 -0.78789,-5.46140198 -0.0878,-2.506906 0.26043,-3.911075 1.29742,-5.2319887 0.55028,-0.700938 1.01539,-1.498097 1.01539,-1.740284 0,-0.240909 -0.4095,-0.170366 -0.67251,0.115851 -0.30888,0.33614 -1.32657,1.916659 -1.32657,2.0602357 0,0.128313 -0.3892,0.497403 -0.52451,0.497403 -0.22084,0 0.0642,-0.9805837 0.48282,-1.6608917 l 0.45327,-0.736645 -0.0181,-1.143262 c -0.01,-0.628794 -0.0724,-1.240286 -0.13872,-1.35887 l -0.12067,-0.215609 -0.13896,0.352778 c -0.0764,0.194027 -0.18498,1.029059 -0.24122,1.855625 -0.1,1.469674 -0.22063,1.966134 -0.47778,1.966134 -0.0859,0 -0.10371,-0.240085 -0.0545,-0.734954 0.28885,-2.904606 0.29127,-4.310461 0.008,-4.400148 -0.33889,-0.107137 -0.40932,0.209455 -0.52924,2.378918 -0.13243,2.395995 -0.15021,2.520999 -0.35853,2.520999 -0.10119,0 -0.12531,-0.562693 -0.0919,-2.143639 0.0397,-1.878918 0.0225,-2.148137 -0.1396,-2.180069 -0.11869,-0.02338 -0.28185,0.152006 -0.45548,0.489608 l -0.27055,0.526039 0.0439,1.614454 c 0.0303,1.113312 0.003,1.628067 -0.0865,1.658307 -0.15291,0.05141 -0.28116,-0.744535 -0.28116,-1.745002 0,-0.728764 -0.0524,-0.79341 -0.41849,-0.516494 -0.37763,0.28562 -0.4363,0.210584 -0.37868,-0.484252 0.0563,-0.678584 0.3185,-1.055387 0.64681,-0.929404 0.10634,0.04081 0.15036,-0.07732 0.15036,-0.403447 0,-0.545966 0.1696,-0.962643 0.46756,-1.148723 0.17946,-0.112073 0.27671,-0.07631 0.5796,0.213148 l 0.36395,0.347816 v -0.276779 c 0,-0.382479 0.37577,-0.692086 0.78335,-0.645424 0.26056,0.02983 0.38538,0.146914 0.56897,0.53372 0.12935,0.272529 0.31959,0.497425 0.42275,0.499768 0.42037,0.0096 0.60379,0.430324 0.66642,1.528883 0.0333,0.584329 0.10616,1.062416 0.16186,1.062416 0.0557,0 0.10128,-0.04442 0.10128,-0.09872 0,-0.113502 0.52363,-0.371653 0.75385,-0.371653 0.23239,0 0.77486,0.588618 0.77486,0.840779 0,0.12141 -0.0467,0.312632 -0.10388,0.424937 -0.0571,0.112306 -0.17249,0.35081 -0.25636,0.530009 -0.0839,0.1792 -0.38944,0.602534 -0.67905,0.940741 -1.18647,1.3855777 -1.73586,3.2366497 -1.61344,5.4362197 0.0763,1.370137 0.34925,3.497033 0.47496,3.700439 0.0412,0.06673 0.1547,0.12132 0.25214,0.12132 0.2117,0 1.77294,-0.72251 2.09012,-0.967269 l 0.2233,-0.172308 -0.49279,-0.50779 c -0.49014,-0.505051 -0.58201,-0.847256 -0.24488,-0.91218 0.15421,-0.0297 3.26237,3.01238698 4.1286,4.04082798 0.32107,0.381201 1.74813,2.47030602 1.74813,2.55913402 0,0.1922 3.68577,5.798155 3.99255,6.072548 0.0361,0.03234 0.29933,0.376297 0.58485,0.764352 0.70262,0.9549583 2.37135,2.8747523 2.96496,3.4110523 0.53927,0.48719 1.59338,0.99867 2.05818,0.99867 0.48457,0 1.16681,-0.45639 1.45876,-0.97585 0.21218,-0.37751 0.26947,-0.66451 0.27305,-1.367848 l 0.005,-0.890098 -0.85892,-1.9990743 c -1.61116,-3.7498341 -4.23688,-9.20431002 -4.8487,-10.07232 -0.121,-0.171674 -0.21925,-0.356882 -0.21833,-0.411574 9.2e-4,-0.05469 -0.15449,-0.41694 -0.34536,-0.804995 -0.52729,-1.072045 -0.83224,-1.801537 -0.83224,-1.990853 0,-0.0939 -0.0466,-0.19953 -0.10355,-0.234729 -0.057,-0.0352 -0.13265,-0.183843 -0.16821,-0.330319 -0.0356,-0.146477 -0.12567,-0.477988 -0.20024,-0.736692 -0.0746,-0.258704 -0.18081,-0.708495 -0.23611,-0.999537 -0.31634,-1.665143 -0.44157,-2.107405 -0.86573,-3.057407 -0.0722,-0.16169 -0.43553,-0.6024857 -0.80741,-0.9795467 -0.65269,-0.661771 -0.7958,-0.931707 -0.56844,-1.072225 0.33648,-0.207953 1.42192,0.727464 1.88188,1.621772 l 0.2815,0.5473267 0.164,-0.234143 c 0.28658,-0.4091577 0.5607,-0.4867207 1.15675,-0.3273027 l 0.54587,0.1459987 0.1654,-0.2261927 c 0.091,-0.124407 0.1654,-0.397685 0.1654,-0.607285 0,-0.286133 0.0848,-0.441484 0.34038,-0.623464 l 0.34038,-0.242372 0.45337,0.187528 c 0.24935,0.10314 0.71795,0.307605 1.04133,0.454367 0.32338,0.146762 0.81421,0.305009 1.09073,0.351661 l 0.50276,0.08482 0.48751,-0.487514 c 0.27846,-0.278456 0.88229,-0.671882 1.40812,-0.917452 0.94818,-0.442819 1.18038,-0.733384 0.58605,-0.733384 -0.184,0 -0.42595,-0.100998 -0.53767,-0.22444 -0.11171,-0.123442 -0.35804,-0.288612 -0.54739,-0.367044 -0.18935,-0.07843 -0.34428,-0.189101 -0.34428,-0.24593 0,-0.189496 0.61403,-0.106399 1.0066,0.136222 0.46598,0.287988 0.89696,0.217445 1.11062,-0.181784 0.3322,-0.620707 -0.21123,-0.888301 -1.3333,-0.656542 -1.07225,0.22147 -1.21763,-0.159562 -0.16487,-0.432108 0.73391,-0.189998 1.14277,-0.183038 1.64799,0.02805 0.4497,0.1879 0.50591,0.15735 0.7512,-0.408279 0.3384,-0.780376 0.39195,-0.996823 0.39195,-1.584403 v -0.632596 l -0.61736,-0.353824 c -0.68846,-0.394573 -1.05421,-0.706733 -1.34114,-1.144657 -0.13504,-0.206093 -0.23031,-0.257559 -0.31676,-0.171113 -0.22664,0.226641 -0.42937,0.132001 -0.42937,-0.200442 0,-0.424107 -0.46686,-0.636826 -1.388,-0.632421 -0.53465,0.0026 -0.84558,0.08597 -1.42398,0.382002 -0.9064,0.463904 -1.92982,1.378239 -2.12156,1.895414 -0.35335,0.953127 -0.47501,1.148522 -0.71512,1.148522 -0.16302,0 -0.28267,-0.113203 -0.3629,-0.34335 -0.0658,-0.188843 -0.19537,-0.37239 -0.28786,-0.407884 -0.0925,-0.03549 -0.16817,-0.162049 -0.16817,-0.281236 0,-0.264667 -0.41565,-0.731419 -0.65134,-0.731419 -0.23573,0 -0.21763,0.06108 0.11739,0.396101 0.35291,0.352911 0.48545,0.825143 0.32823,1.16949 l -0.11738,0.257094 -0.21405,-0.443164 c -0.11773,-0.243739 -0.26993,-0.424788 -0.33822,-0.402331 -0.0683,0.02246 -0.14028,0.317934 -0.15998,0.656613 -0.0378,0.649489 -0.24074,0.77379 -0.3902,0.23896 -0.0659,-0.235664 -0.0818,-0.207902 -0.0914,0.159672 -0.009,0.347837 0.0649,0.519857 0.33948,0.788245 0.21546,0.210617 0.32422,0.413612 0.2814,0.525203 -0.17895,0.466339 -0.89369,-0.0338 -1.04052,-0.7281 -0.0443,-0.209455 -0.12242,-0.406711 -0.17361,-0.438346 -0.0512,-0.03164 -0.37785,0.145513 -0.72591,0.393663 -0.34806,0.248151 -0.79604,0.534833 -0.99551,0.637072 l -0.36268,0.185888 -0.35575,-0.216341 c -0.19566,-0.118988 -0.53516,-0.439011 -0.75445,-0.711164 -0.52989,-0.657631 -1.28366,-1.410222 -1.41242,-1.410222 -0.0569,0 -0.10341,-0.105833 -0.10341,-0.235185 0,-0.543507 0.65683,-0.07778 1.82475,1.293824 0.64027,0.751943 0.69767,0.772209 1.29288,0.456452 0.29025,-0.153981 0.52774,-0.319743 0.52774,-0.368361 0,-0.04862 0.0794,-0.0884 0.17638,-0.0884 0.097,0 0.17639,-0.04317 0.17639,-0.09594 0,-0.05277 0.19844,-0.207775 0.44098,-0.344463 0.42704,-0.240676 0.71798,-0.792325 0.74354,-1.409829 0.0147,-0.355994 0.40784,-0.908284 0.72663,-1.020884 0.22456,-0.07932 0.38069,-0.05802 0.5926,0.08083 0.3059,0.200438 1.02403,1.37253 1.02403,1.671379 0,0.354643 0.18431,0.165977 0.38222,-0.391248 0.11123,-0.31318 0.40877,-0.802659 0.66118,-1.087731 0.77722,-0.87777 2.49402,-1.753036 3.4385,-1.753036 0.49725,0 1.2347,0.279355 1.31159,0.496845 0.0846,0.239294 0.31995,-0.738227 0.32067,-1.331843 8.5e-4,-0.701311 -0.19047,-1.246528 -0.60591,-1.726732 -0.37269,-0.43079 -0.42451,-0.703579 -0.15341,-0.807611 0.24825,-0.09526 0.57895,0.232085 0.8787,0.869784 0.21983,0.467658 0.24744,0.70826 0.21874,1.906387 l -0.0328,1.371181 0.24777,0.345949 c 0.63295,0.883776 1.94626,1.621919 2.3884,1.342393 0.1171,-0.07403 0.12654,-0.111498 0.0284,-0.1127 -0.24355,-0.003 -0.16692,-0.329105 0.19458,-0.828139 0.63669,-0.878928 0.72177,-1.876042 0.24112,-2.825941 -0.19556,-0.386497 -1.85392,-2.67297 -2.19782,-3.03027 -0.0827,-0.08589 -0.20414,-0.256756 -0.26994,-0.379706 -0.13971,-0.261053 -1.43804,-1.169226 -1.67154,-1.169226 -0.0876,0 -0.20959,-0.04326 -0.27103,-0.09613 -0.14539,-0.125109 -1.11541,-0.341003 -1.93541,-0.430759 -0.35628,-0.039 -0.72669,-0.122614 -0.82315,-0.185816 -0.30789,-0.201741 0.16592,-0.448121 0.74203,-0.385853 2.11407,0.228501 3.61202,1.008926 4.75886,2.479359 0.34089,0.437064 0.82464,1.059246 1.07501,1.382626 0.99922,1.290598 1.51464,2.806696 1.29336,3.804367 -0.1235,0.556777 -0.38882,1.138534 -0.66108,1.449474 -0.1,0.114166 -0.14155,0.295837 -0.0987,0.430976 0.0506,0.159485 -0.001,0.286553 -0.16403,0.400439 -0.16762,0.117407 -0.28767,0.425157 -0.40526,1.038932 -0.22289,1.163376 -0.48604,1.809503 -1.0301,2.529267 -0.24895,0.329353 -0.45264,0.683418 -0.45264,0.78681 0,0.103391 -0.0529,0.220689 -0.11759,0.260661 -0.31196,0.192804 -0.0492,0.278744 0.65209,0.213258 0.46043,-0.043 1.03922,-0.01265 1.44051,0.07553 1.10337,0.242454 1.54399,0.446589 2.90509,1.345909 1.97235,1.3031927 3.42251,3.0635477 4.17503,5.0680787 0.33371,0.88894 0.38946,2.997218 0.11815,4.468518 -0.0716,0.388056 -0.15983,0.87802598 -0.19616,1.08882198 -0.0363,0.210796 -0.11313,0.412357 -0.17066,0.447912 -0.0575,0.03556 -0.1046,0.168075 -0.1046,0.294487 0,0.126413 -0.0469,0.321727 -0.10412,0.434033 -0.52996,1.03930902 -0.83662,1.74193702 -0.83662,1.91683802 0,0.228851 -3.2964,3.622796 -4.05695,4.177005 -0.2587,0.188516 -0.53952,0.408129 -0.62404,0.48803 -0.66612,0.629705 -2.7873,1.542502 -3.99194,1.717825 l -0.85302,0.124149 0.0715,0.241098 c 0.0393,0.132604 0.15832,0.37339 0.26442,0.53508 0.64229,0.9788333 0.61585,2.9441453 -0.054,4.0149053 -0.43588,0.69675 -0.8529,0.92398 -1.69569,0.92398 -1.48449,0 -2.49406,-0.82509 -5.26595,-4.303706 -0.14954,-0.187659 -0.36067,-0.4888973 -0.46919,-0.6694183 -0.10852,-0.180521 -0.31864,-0.358674 -0.46694,-0.395895 -0.63109,-0.158393 -2.86199,0.372887 -4.37437,1.0417423 -0.50843,0.224853 -0.92072,0.408575 -2.03175,0.90539 -2.36581,1.057907 -4.66379,1.488907 -7.40628,1.389067 -2.15434,-0.0784 -2.48676,-0.15588 -2.5381,-0.59138 -0.0316,-0.26803 0.007,-0.315611 0.25618,-0.315611 0.16137,0 0.36332,-0.06866 0.44879,-0.152582 0.26568,-0.260884 1.24955,-0.905752 1.3819,-0.905752 0.19607,0 0.20044,-0.464033 0.008,-0.8819443 -0.30362,-0.660407 -0.61054,-1.857838 -0.67159,-2.620159 -0.0377,-0.470949 -0.11373,-0.884176 -0.16891,-0.918283 -0.0552,-0.03411 -0.10034,-0.215777 -0.10034,-0.4037131 0,-0.491604 -0.27494,-0.58516 -1.71968,-0.58516 -3.44981,0 -6.91339,1.3617451 -9.80439,3.8547051 -0.48507,0.418283 -1.57409,1.4146423 -2.42005,2.2141293 -0.84596,0.79949 -1.66617,1.56547 -1.82269,1.70219 -1.16829,1.02048 -1.62226,1.39892 -2.15023,1.79248 -0.33209,0.24755 -0.75399,0.56505 -0.93757,0.70556 -0.90162,0.6901 -2.74781,1.60572 -4.18396,2.07503 -1.6133,0.5272 -3.3078,0.74667 -5.23893,0.67855 -2.17417,-0.0767 -3.1577,-0.38058 -5.17759,-1.59975 -0.38806,-0.23422 -0.73202,-0.45534 -0.76435,-0.49138 -0.0323,-0.036 -0.24401,-0.19272 -0.47037,-0.34818 -0.22637,-0.15546 -0.43804,-0.31166 -0.47037,-0.34711 -0.25229,-0.2766 -0.47106,-0.36204 -0.66695,-0.26047 -0.2095,0.10862 -0.85223,0.39951 -1.68491,0.76256 -2.58265,1.12606 -7.30555,2.66911 -9.58379,3.1312 -0.38806,0.0787 -0.91722,0.18863 -1.17593,0.24426 -0.2587,0.0556 -0.68204,0.13611 -0.94074,0.17885 -1.25887,0.20793 -1.6877,0.28558 -2.17546,0.39389 -0.29104,0.0646 -0.68792,0.1508 -0.88195,0.19149 -0.19402,0.0407 -0.45861,0.11892 -0.58796,0.17385 -0.23785,0.10101 -0.4647,0.15457 -1.5287,0.36092 -0.7844,0.15212 -1.65938,0.0254 -2.17329,-0.31465 -0.36576,-0.24204 -0.64621,-0.29345 -2.18063,-0.39976 -0.9685,-0.0671 -4.45965,-0.1719 -7.75812,-0.2329 -3.29848,-0.061 -7.53181,-0.15768 -9.40741,-0.21486 -7.38348,-0.22512 -9.04199,0.20969 -14.05232,3.68409 -0.54974,0.38122 -1.06946,0.76166 -1.15492,0.84542 -0.0855,0.0838 -0.20075,0.15229 -0.25619,0.15229 -0.0554,0 -0.17233,0.0662 -0.25976,0.14699 -0.19175,0.17731 -0.65293,0.45198 -1.45617,0.86727 l -0.5988,0.3096 -0.15052,0.77858 c -0.26797,1.38615 -0.80959,2.00749 -1.53289,1.75855 z m 1.05833,-2.69332 c 0,-0.24648 0.13389,-0.35851 0.94343,-0.78937 1.05658,-0.56236 1.95571,-1.14085 3.87787,-2.49498 1.88949,-1.33112 3.38514,-2.15503 4.6449,-2.55875 2.3155,-0.74205 3.60144,-0.89675 6.70278,-0.80635 1.35819,0.0396 5.56507,0.12349 9.34861,0.18644 8.48674,0.14119 11.79289,0.32986 12.34723,0.70461 0.55036,0.37207 1.03131,0.49877 1.66853,0.43956 0.69858,-0.0649 1.027,-0.14223 2.88818,-0.67993 0.43765,-0.12643 0.84799,-0.20939 2.20486,-0.44574 1.06412,-0.18536 2.66608,-0.54648 4.17454,-0.94104 1.9394,-0.50728 6.1603,-1.92174 6.40292,-2.14567 0.0614,-0.0567 0.18108,-0.10311 0.26586,-0.10311 0.0848,0 0.40493,-0.11199 0.71144,-0.24887 0.3065,-0.13688 0.74249,-0.32828 0.96885,-0.42533 0.22637,-0.0971 0.72908,-0.32283 1.11713,-0.50173 0.38806,-0.1789 0.91722,-0.41943 1.17593,-0.53452 0.2587,-0.11509 0.62912,-0.32499 0.82315,-0.46645 0.19402,-0.14146 0.8993,-0.49502 1.56728,-0.78569 l 1.2145,-0.52849 -1.62608,-0.0849 c -0.89434,-0.0467 -3.29295,-0.134293 -5.33024,-0.194737 -7.13416,-0.211663 -12.32336,-0.514901 -16.16898,-0.944857 -1.38449,-0.154791 -3.79757,-0.177214 -4.91913,-0.04571 -0.58698,0.06882 -0.72254,0.04705 -0.94074,-0.151122 -0.18622,-0.169117 -0.5244,-0.258287 -1.25448,-0.330773 -1.81093,-0.179797 -3.62431,-0.02102 -6.17362,0.54055 -0.32338,0.07124 -0.76043,0.158887 -0.97123,0.194781 -0.21079,0.03589 -0.41235,0.112332 -0.44791,0.169862 -0.0356,0.05753 -0.19133,0.1046 -0.34615,0.1046 -0.15483,0 -0.40307,0.04741 -0.55163,0.105346 -0.14856,0.05794 -0.50824,0.171404 -0.79928,0.252139 -0.29104,0.08074 -0.76729,0.224821 -1.05834,0.320181 -0.29104,0.0954 -0.70114,0.22003 -0.91134,0.27703 -0.2102,0.057 -0.55415,0.15182 -0.76435,0.2107 -3.44497,0.96509 -5.45965,1.30487 -7.72303,1.3025 -2.28671,-0.002 -3.62193,-0.33853 -6.29989,-1.586 -1.01102,-0.470959 -1.18498,-0.542026 -1.83103,-0.74801 -1.5737,-0.501751 -2.57749,0.378326 -2.57965,2.26172 -0.001,1.11686 -0.1981,2.81171 -0.41379,3.56334 -0.0997,0.34752 -0.57776,1.21863 -1.11466,2.0312 -0.51702,0.78251 -0.94003,1.47442 -0.94003,1.53759 0,0.0632 -0.0529,0.11486 -0.1176,0.11486 -0.0647,0 -0.11759,0.0801 -0.11759,0.17798 0,0.0979 -0.0467,0.26987 -0.10387,0.38218 -0.184,0.36169 -0.34757,0.78091 -0.49261,1.26252 -0.0779,0.25871 -0.19944,0.59551 -0.27006,0.74846 -0.1686,0.36517 -0.14628,2.4603 0.0281,2.63465 0.0731,0.0731 0.13291,0.21758 0.13291,0.32106 0,0.10348 0.0611,0.24928 0.13584,0.32399 0.10274,0.10274 0.23172,-0.0547 0.52917,-0.64589 0.21633,-0.42996 0.39332,-0.87091 0.39332,-0.97988 z m 1.15918,-7.77309 c 0.37743,-0.88138 0.62186,-2.08561 0.72836,-3.58843 0.10391,-1.46615 0.33067,-2.268812 0.7818,-2.767307 0.29461,-0.325545 0.85109,-0.56217 1.31748,-0.560217 0.41433,0.0017 1.22156,0.228528 1.38104,0.388009 0.0443,0.04433 0.15173,0.08059 0.23867,0.08059 0.0869,0 0.40885,0.111107 0.71535,0.246904 0.30651,0.135798 0.66312,0.289152 0.79247,0.340788 0.12935,0.05164 0.42737,0.178171 0.66227,0.28119 0.80285,0.352102 2.55507,0.882822 3.51749,1.065392 2.06241,0.39123 4.82604,0.0917 9.167,-0.99353 0.2587,-0.06468 0.66881,-0.166994 0.91134,-0.22737 0.24254,-0.06038 0.65264,-0.169891 0.91134,-0.243367 0.25871,-0.07348 0.60267,-0.160355 0.76436,-0.193065 0.16169,-0.03271 0.39981,-0.104417 0.52916,-0.15935 0.12936,-0.05493 0.39394,-0.13269 0.58797,-0.172794 0.42912,-0.0887 1.01783,-0.237161 1.64629,-0.415169 0.86285,-0.244397 2.0963,-0.540901 2.99861,-0.720828 0.35572,-0.07093 1.49866,-0.1528873 2.53987,-0.1821223 l 1.89311,-0.05316 -0.054,-0.282708 c -0.0297,-0.155489 -0.12756,-0.34372 -0.21741,-0.41829 -0.0899,-0.07457 -0.16337,-0.311189 -0.16337,-0.525818 0,-0.21463 -0.0499,-0.421051 -0.1108,-0.458713 -0.0609,-0.03766 -0.1464,-0.305888 -0.18991,-0.596057 -0.10268,-0.684682 -0.16938,-0.701661 -2.7567,-0.701661 -3.21656,0 -6.60481,0.388483 -9.58379,1.09884 -3.28774,0.783982 -5.4035,1.005145 -8.74335,0.913954 -1.46473,-0.03999 -2.79542,-0.0859 -2.95711,-0.102013 -0.16169,-0.01611 -0.74378,-0.248842 -1.29352,-0.517173 -1.69537,-0.827506 -2.35517,-0.917722 -3.32971,-0.455274 -1.41605,0.671962 -1.89076,2.147003 -3.02829,9.4098133 -0.0608,0.38806 -0.14189,0.89077 -0.18025,1.11713 l -0.0697,0.41158 0.18804,-0.25543 c 0.10343,-0.14048 0.28612,-0.48444 0.40598,-0.76435 z m 67.69129,-0.16892 c 0.78533,-0.0865 2.10071,-0.39801 2.73402,-0.64739 0.14552,-0.0573 0.38365,-0.15156 0.52917,-0.20946 2.34949,-0.93478 4.97254,-2.84742 8.05585,-5.874058 1.77665,-1.7439923 2.88189,-2.7371383 3.55642,-3.1957303 0.22636,-0.1539 0.43803,-0.308825 0.47037,-0.344279 0.0323,-0.03545 0.18511,-0.135584 0.33949,-0.22251 0.15438,-0.08693 0.47188,-0.267551 0.70555,-0.401386 0.80638,-0.461849 1.90483,-0.9514911 2.77672,-1.2377461 1.2076,-0.396474 2.09758,-0.586424 3.46898,-0.740393 0.85743,-0.09627 1.46246,-0.103361 1.98003,-0.02322 0.8792,0.136131 0.9598,0.05472 0.74414,-0.7516169 -0.0754,-0.281997 -0.13713,-1.041129 -0.13713,-1.68696 0,-0.645831 -0.04,-1.174238 -0.0888,-1.174238 -0.0488,0 -0.61769,0.263467 -1.26412,0.585483 -0.64644,0.322015 -1.2422,0.586598 -1.32393,0.587963 -0.0817,0.0014 -0.24047,0.04922 -0.35277,0.106353 -0.45632,0.232131 -1.4242,0.563799 -2.49725,0.855744 -0.22637,0.06159 -0.57033,0.158926 -0.76435,0.216309 -0.46548,0.137662 -1.07954,0.312919 -1.5875,0.453085 -1.34095,0.3700179 -6.33906,1.8027319 -6.58519,1.8876529 -0.16169,0.05579 -0.5321,0.165642 -0.82315,0.244122 -0.29104,0.07848 -0.62105,0.1904511 -0.73335,0.2488231 -0.11231,0.05837 -0.30431,0.106132 -0.42667,0.106132 h -0.22248 l 0.003,1.028935 c 0.002,0.850268 -0.0429,1.110612 -0.26032,1.499306 -0.47946,0.857004 -0.92653,1.2257043 -2.06417,1.7023263 -0.19403,0.08129 -0.44466,0.194541 -0.55697,0.251671 -0.1123,0.05713 -0.30762,0.103873 -0.43403,0.103873 -0.12641,0 -0.26255,0.05292 -0.30252,0.117593 -0.04,0.06468 -0.22518,0.117592 -0.41157,0.117592 -0.1864,0 -0.36799,0.04707 -0.40355,0.1046 -0.0356,0.05753 -0.23711,0.133968 -0.44791,0.169862 -0.2108,0.03589 -0.62139,0.116498 -0.91243,0.17912 -1.30781,0.281394 -2.8419,0.471606 -4.93889,0.612375 -1.61114,0.10815 -2.04002,0.17692 -2.52824,0.40538 -0.82146,0.38439 -2.29808,1.11402 -3.41019,1.68505 -0.5174,0.26567 -1.00688,0.48437 -1.08773,0.48601 -0.26884,0.005 -0.1518,0.3022 0.20151,0.51091 0.19168,0.11322 0.41818,0.27015 0.50335,0.34873 0.47901,0.44196 2.33203,1.31623 3.4257,1.61627 1.51485,0.41559 3.0545,0.49991 5.07106,0.27772 z m 30.63287,-5.806989 c 0.35571,-0.07066 0.83196,-0.161771 1.05833,-0.202479 l 0.41157,-0.07402 -0.29398,-0.07338 c -0.36285,-0.09057 -0.40657,-0.512178 -0.0588,-0.566995 0.12935,-0.02039 0.34102,-0.08199 0.47037,-0.136882 1.55144,-0.658423 2.09566,-1.0039143 3.3431,-2.1223243 0.46889,-0.420393 0.94039,-0.812746 1.04777,-0.871895 0.10739,-0.05915 0.2217,-0.138523 0.25404,-0.176388 0.12087,-0.141528 1.0879,-0.59817 1.27523,-0.60218 0.10707,-0.0023 0.31197,-0.06935 0.45533,-0.149026 l 0.26066,-0.144859 -0.48165,-0.7329191 c -0.26491,-0.403105 -0.54096,-0.731707 -0.61344,-0.730228 -0.13124,0.0027 -5.41755,3.9205391 -6.91648,5.1260294 -0.43311,0.348325 -0.8388,0.633318 -0.90154,0.633318 -0.0627,0 -0.13171,0.03969 -0.15327,0.08819 -0.0492,0.110644 -0.96838,0.556335 -1.49026,0.722571 -0.43519,0.138628 -0.98827,-0.0567 -1.11803,-0.394842 -0.10228,-0.266536 -0.27172,-0.224007 -0.80257,0.201438 l -0.47685,0.382176 0.86593,0.0588 c 1.0038,0.06816 2.93029,-0.04855 3.86453,-0.23411 z m -30.51528,-0.459272 c 1.09202,-0.146861 2.01595,-0.303998 2.76342,-0.469987 0.29105,-0.06463 0.68792,-0.150798 0.88195,-0.191484 0.19403,-0.04069 0.45861,-0.116872 0.58796,-0.169304 0.12935,-0.05243 0.47331,-0.163812 0.76435,-0.24751 0.29105,-0.0837 0.58209,-0.1864503 0.64676,-0.2283393 0.0647,-0.04189 0.35572,-0.166162 0.64676,-0.276162 0.65995,-0.24943 0.97659,-0.510956 1.28634,-1.062432 0.41333,-0.735906 0.26734,-1.816409 -0.31533,-2.333691 -1.19604,-1.0618421 -4.04255,-1.4150791 -9.32008,-1.1565751 -6.25019,0.306147 -9.40168,0.590145 -13.11158,1.1815561 -1.76534,0.281422 -2.03413,0.334122 -2.58703,0.507237 -1.152,0.360692 -2.19265,0.458911 -4.23334,0.399551 -2.0583,-0.05987 -3.48796,-0.244466 -4.23333,-0.546599 -0.12935,-0.05243 -0.47331,-0.163811 -0.76435,-0.247509 -0.29104,-0.0837 -0.58208,-0.185723 -0.64676,-0.226723 -0.0647,-0.041 -0.51447,-0.1959891 -0.99954,-0.3444221 -0.48507,-0.148432 -0.98778,-0.309704 -1.11713,-0.358382 -0.12935,-0.04868 -0.68497,-0.153635 -1.23472,-0.233236 -0.83741,-0.121256 -1.28564,-0.114078 -2.76343,0.04425 -2.73056,0.292554 -2.93129,0.331417 -2.9782,0.576603 -0.0808,0.4225961 0.30855,0.5419831 1.78069,0.5459461 l 1.38952,0.0037 -0.0372,0.322822 c -0.0443,0.38407 -0.31119,0.465458 -1.59531,0.486414 -0.70286,0.01147 -0.85254,0.04746 -0.85254,0.205 0,0.156338 0.0695,0.174114 0.38217,0.09775 0.2102,-0.05134 0.6203,-0.09764 0.91135,-0.102894 l 0.52916,-0.0096 v 0.352778 0.352778 l -0.63763,0.0588 c -0.40108,0.03699 -0.65776,0.119942 -0.6919,0.223619 -0.0409,0.124318 0.0146,0.144486 0.22606,0.08207 0.98418,-0.290548 1.51505,-0.186594 1.51505,0.296677 0,0.160272 -0.0886,0.223263 -0.32338,0.229824 -0.17786,0.005 -0.53505,0.08337 -0.79375,0.174232 l -0.47037,0.165195 0.58796,-0.07265 c 1.09752,-0.135603 1.28401,-0.117694 1.33276,0.127982 0.0559,0.281763 -0.27394,0.536939 -0.69408,0.536939 -0.17375,0 -0.38853,0.08775 -0.47729,0.1949913 l -0.16139,0.19499 0.99954,-0.09643 c 1.39533,-0.134614 2.67371,-0.119478 4.11574,0.04873 2.64511,0.308548 5.79085,0.54741 9.25636,0.702852 1.37214,0.06155 2.53931,0.139416 2.59372,0.173046 0.0544,0.03363 1.41885,0.07232 3.03207,0.08599 1.61322,0.01367 3.19771,0.06403 3.52109,0.111923 0.86636,0.128309 10.19205,0.03711 11.28889,-0.110402 z m 32.54599,-0.08931 c -0.0796,-0.03221 -0.23837,-0.03417 -0.35278,-0.0044 -0.11442,0.02981 -0.0493,0.05617 0.14475,0.05857 0.19403,0.0024 0.28764,-0.022 0.20803,-0.05421 z m 0.79151,-0.275644 c 0,-0.06468 0.0778,-0.117593 0.1729,-0.117593 0.0951,0 0.45229,-0.126366 0.79375,-0.280813 2.39694,-1.0841513 3.07056,-1.3449603 4.14863,-1.6062223 0.5174,-0.125391 1.08626,-0.228354 1.26412,-0.228807 0.17785,-4.54e-4 0.32338,-0.04122 0.32338,-0.09059 0,-0.04937 -0.18662,-0.366871 -0.4147,-0.705556 -0.36746,-0.545645 -0.46141,-0.615791 -0.82475,-0.615791 -0.22552,0 -0.50193,0.04626 -0.61423,0.102809 -1.04667,0.52699 -1.33892,0.704108 -1.85049,1.121504 -0.32338,0.263847 -0.64668,0.532876 -0.71845,0.597843 -0.72898,0.659899 -1.00174,0.881636 -1.45701,1.1844543 -0.51251,0.340887 -0.92825,0.559334 -1.29352,0.679674 -0.097,0.03196 -0.0309,0.06229 0.14699,0.0674 0.17786,0.0051 0.32338,-0.04363 0.32338,-0.108309 z m 15.70641,-2.7120233 c 0.38376,-0.06874 0.88296,-0.186645 1.10933,-0.262006 0.71609,-0.238398 2.12062,-0.99887 2.80696,-1.519809 0.98655,-0.7487991 3.13235,-2.866945 3.78644,-3.737644 1.84555,-2.45670902 2.73233,-6.131844 1.98897,-8.243019 -0.14579,-0.414048 -0.36375,-0.893275 -0.48437,-1.064949 -0.12061,-0.171674 -0.2193,-0.347672 -0.2193,-0.391108 0,-0.327115 -2.1429,-2.59989 -3.05641,-3.2416487 -0.62583,-0.439656 -1.66291,-1.052794 -1.78073,-1.052794 -0.0577,0 -0.19682,-0.04642 -0.30913,-0.103157 -0.51612,-0.260745 -1.12496,-0.367213 -2.0999,-0.367213 -0.58073,0 -1.10614,0.04844 -1.16758,0.107635 -0.0614,0.0592 -0.244,0.125345 -0.40569,0.146991 -0.16169,0.02164 0.44873,0.044 1.3565,0.04968 2.00883,0.01256 2.28887,0.06845 2.28887,0.456771 0,0.2121 -0.10774,0.337349 -0.41602,0.48364 -0.70089,0.332591 -1.40641,1.2827457 -2.34754,3.1615207 -0.48743,0.973063 -1.08495,2.032112 -1.32781,2.353443 -0.49913,0.660404 -1.33924,1.334791 -2.1334,1.712561 -0.29524,0.140443 -0.62869,0.302476 -0.741,0.360074 -0.1123,0.0576 -0.30762,0.104723 -0.43403,0.104723 -0.12641,0 -0.25821,0.0459 -0.29288,0.101995 -0.0605,0.09785 -0.47514,0.178452 -1.7937,0.348667 l -0.60815,0.07851 0.15208,0.359773 c 0.1277,0.302108 0.25517,0.384507 0.79533,0.514089 1.11372,0.267177 2.76484,0.04642 3.93509,-0.526129 1.20155,-0.587864 1.71072,-1.18041 2.89905,-3.373778 0.29521,-0.544885 1.21184,-1.50127 1.43887,-1.50127 0.27307,0 0.19284,0.427411 -0.11854,0.631431 -0.39322,0.25765 -0.96731,1.104682 -1.75948,2.596009 -0.38935,0.732974 -1.46673,1.761972 -2.1879,2.089638 -1.22491,0.55654398 -1.53496,0.62012998 -3.02687,0.62074998 -0.79228,3.29e-4 -1.44051,0.01058 -1.44051,0.02279 0,0.0122 0.33053,0.668006 0.7345,1.457336 l 0.7345,1.43514702 1.53324,-0.0693 c 0.84329,-0.03812 1.79599,-0.133503 2.11712,-0.211968 0.60894,-0.148787 3.11926,-0.97972302 4.07805,-1.34987002 0.3049,-0.117706 0.59407,-0.174302 0.6426,-0.125769 0.16342,0.16342 -0.15523,0.478732 -0.67794,0.670821 -0.74664,0.27438602 -0.9599,0.35577602 -1.22457,0.46736402 -0.12935,0.05454 -0.44685,0.162067 -0.70555,0.238957 -0.25871,0.07689 -0.56226,0.186222 -0.67457,0.242958 -0.1123,0.05674 -0.33407,0.103158 -0.49283,0.103158 -0.15875,0 -0.31788,0.04733 -0.35363,0.105171 -0.0963,0.155824 -0.8854,0.255432 -2.56054,0.32322 l -1.49452,0.06048 0.10708,0.196537 c 0.26338,0.483391 2.00002,4.218484 2.00002,4.301553 0,0.0226 0.13617,0.338537 0.30261,0.70207 0.33838,0.739138 0.3571,0.745702 1.52788,0.535984 z m -1.98249,-2.3821031 c -0.0868,-0.226209 0.01,-0.315133 0.34225,-0.315133 0.45459,0 1.58228,-0.334342 2.331,-0.691102 1.10075,-0.524499 2.73522,-1.8547429 4.66677,-3.79815292 0.95663,-0.9625 1.62796,-2.12319398 2.06244,-3.56583798 0.30268,-1.005052 0.29903,-3.282391 -0.007,-4.174537 -0.46763,-1.36455 -1.12859,-2.28175 -2.35614,-3.2695687 -0.24953,-0.200793 -0.30244,-0.305231 -0.20436,-0.403318 0.17399,-0.173985 0.53749,0.02084 1.3022,0.6979357 0.72421,0.641227 1.38146,1.618344 1.7626,2.6204 0.25388,0.667453 0.29233,0.963012 0.29861,2.294828 0.009,1.986877 -0.35456,3.221423 -1.39588,4.73523598 -0.23062,0.335257 -0.4193,0.687516 -0.4193,0.782797 0,0.09528 -0.19844,0.32145302 -0.44097,0.50260402 -0.51418,0.384042 -1.05271,0.855144 -2.20285,1.927031 -1.96633,1.8325609 -3.29454,2.5705419 -4.95402,2.7525459 -0.57835,0.06343 -0.73174,0.04474 -0.78564,-0.09573 z m -71.05043,0.3596081 c -1.18736,-0.6641471 -1.64027,-0.8019931 -2.35792,-0.7176471 -0.97095,0.114116 -0.91713,0.155339 0.82934,0.6352631 0.75688,0.207989 1.3083,0.319227 1.64629,0.332107 l 0.35278,0.01344 z m 2.40535,0.01973 c 0.79076,-0.4444311 0.84254,-0.6434581 0.76283,-2.931823 -0.0785,-2.25219802 0.005,-2.83606802 0.55153,-3.87746302 0.29771,-0.56686598 1.11098,-1.67214398 1.90441,-2.58819898 1.58479,-1.829732 2.59975,-3.48006 3.14523,-5.114117 0.0864,-0.258703 0.19914,-0.520641 0.25061,-0.582083 0.0515,-0.06144 0.0936,-0.230298 0.0936,-0.375236 0,-0.144938 0.0471,-0.292614 0.1046,-0.328169 0.0575,-0.03556 0.13397,-0.237116 0.16986,-0.4479117 0.0359,-0.210797 0.12502,-0.64785 0.19806,-0.971229 0.14905,-0.659919 0.33961,-2.829672 0.27316,-3.110259 -0.0238,-0.100284 0.005,-0.255259 0.0628,-0.34439 0.20137,-0.307938 0.36745,0.002 0.36745,0.685727 0,0.606781 0.0427,0.73184 0.36882,1.080791 0.20285,0.217037 0.55991,0.632737 0.79345,0.923779 1.2135,1.512234 2.6823,2.7309277 4.04119,3.3530477 0.99469,0.455383 2.4323,0.685355 3.36809,0.538786 1.03908,-0.162747 3.63613,-0.366034 4.65762,-0.364581 1.94711,0.0028 6.22035,-0.539072 6.56804,-0.832816 0.0552,-0.04667 -0.39455,-0.416392 -0.99954,-0.821595 -0.60499,-0.4052037 -1.11762,-0.7806917 -1.13918,-0.8344177 -0.0216,-0.05373 -0.10418,-0.09768 -0.18361,-0.09768 -0.0794,0 -0.26084,-0.108463 -0.40313,-0.241029 -0.21007,-0.195709 -3.8262,-2.601534 -5.54767,-3.690883 -0.22637,-0.143245 -0.70273,-0.446705 -1.05859,-0.674356 -0.35585,-0.227652 -0.85856,-0.482329 -1.11713,-0.56595 -0.25856,-0.08362 -0.57595,-0.189835 -0.7053,-0.236032 -0.12935,-0.0462 -0.49977,-0.178262 -0.82315,-0.293476 -2.51694,-0.896744 -5.41429,-1.745952 -7.70231,-2.257531 -0.48654,-0.108785 -1.40916,-0.199806 -2.05787,-0.20302 -0.98273,-0.0049 -1.27253,0.03831 -1.76389,0.262771 -0.68503,0.312937 -1.23473,0.80007 -1.23473,1.094196 0,0.113434 -0.0529,0.238949 -0.11759,0.278921 -0.0647,0.03997 -0.11731,0.162157 -0.11696,0.271523 6.1e-4,0.191058 -0.60887,1.862739 -0.83291,2.28452 -0.0597,0.112305 -0.10846,0.30762 -0.10846,0.434032 0,0.126413 -0.0466,0.25864 -0.10355,0.29384 -0.0569,0.0352 -0.13265,0.183843 -0.16821,0.330319 -0.0356,0.146477 -0.11667,0.45153 -0.18024,0.677895 -0.40079,1.427148 -1.10429,4.0266947 -1.60706,5.9384257 -0.15309,0.582084 -0.39249,1.42875 -0.532,1.881482 -0.13952,0.452731 -0.28138,0.942993 -0.31525,1.089469 -0.0339,0.146477 -0.10819,0.295121 -0.16514,0.33032 -0.057,0.0352 -0.10355,0.167427 -0.10355,0.293839 0,0.126413 -0.0467,0.321727 -0.10387,0.434032 -0.0571,0.112306 -0.15589,0.336484 -0.21946,0.498173 -0.0636,0.16169 -0.16796,0.426274 -0.232,0.587963 -0.064,0.16169 -0.44773,0.965044 -0.85268,1.78523198 l -0.73626,1.49125002 -0.63212,0.256558 c -0.80996,0.32874 -1.6424,0.278261 -4.10278,-0.248789 -0.32338,-0.06927 -1.46109,-0.168013 -2.52824,-0.219421 -1.90923,-0.09198 -2.3812,-0.16140102 -2.67807,-0.39394102 -0.21645,-0.169549 -0.29882,-0.03217 -0.31036,0.51768202 -0.0109,0.520127 -0.008,0.52276 0.8596,0.882024 0.28434,0.117698 0.57539,0.268609 0.64675,0.335358 0.29282,0.273859 1.40215,0.889175 1.9201,1.065025 0.70686,0.239985 2.01952,0.4824 3.44254,0.6357489 1.86488,0.200967 2.91823,0.458826 3.88055,0.949959 1.00834,0.514617 1.56846,0.826274 1.73553,0.96566 0.14954,0.1247641 0.67751,0.3995031 0.8355,0.4347711 0.0235,0.0053 0.23996,-0.101271 0.48096,-0.236719 z m -7.28532,-1.2236381 c 0,-0.03234 -0.0265,-0.0588 -0.0588,-0.0588 -0.0323,0 -0.0588,0.02646 -0.0588,0.0588 0,0.03234 0.0265,0.0588 0.0588,0.0588 0.0323,0 0.0588,-0.02646 0.0588,-0.0588 z m 60.44454,-2.6809249 c 0.66201,-0.633721 1.51447,-1.36329702 1.89437,-1.62128002 0.37989,-0.257982 0.69072,-0.506849 0.69072,-0.553038 0,-0.09975 -1.59312,-1.78873898 -1.68721,-1.78873898 -0.0357,0 -0.31203,0.166788 -0.61408,0.37064 -0.30205,0.203852 -0.92363,0.51632798 -1.38129,0.69438998 l -0.8321,0.32375 0.0327,0.616882 c 0.018,0.339286 0.0813,0.74463002 0.14067,0.90076602 0.0594,0.156135 0.10793,0.595448 0.10793,0.97625 0,0.671078 0.18794,1.331207 0.36016,1.265043 0.0464,-0.01784 0.62609,-0.550942 1.28809,-1.184664 z m -49.91508,-0.517482 c 0.48025,-0.480175 1.08088,-1.17883202 3.11128,-3.619053 1.85477,-2.22914 4.77823,-4.60993 6.29244,-5.124399 0.25802,-0.08767 0.5194,-0.201507 0.58084,-0.25298 0.0614,-0.05147 0.2202,-0.09479 0.35278,-0.09627 0.17372,-0.0019 0.12608,-0.05468 -0.17051,-0.188829 -1.57137,-0.710721 -2.58799,-1.44573 -3.66797,-2.6519347 -0.47264,-0.527874 -1.10955,-1.228527 -1.41537,-1.557007 l -0.55603,-0.597237 -0.002,0.462022 c -0.001,0.254112 -0.0519,0.624528 -0.11216,0.823148 -0.0603,0.19862 -0.17226,0.599252 -0.24882,0.890293 -0.15127,0.5750347 -0.31733,1.1004437 -0.46458,1.4699077 -0.38847,0.974682 -0.85238,1.949467 -1.27316,2.675231 -0.14062,0.242535 -0.36744,0.63941 -0.50405,0.881945 -0.26001,0.46162 -1.74185,2.632279 -1.86642,2.734028 -0.0396,0.03234 -0.20029,0.244004 -0.35711,0.47037 -0.15682,0.226366 -0.37637,0.511154 -0.48789,0.632864 -0.30026,0.32768698 -0.78847,1.37722398 -0.97289,2.09148798 -0.1316,0.50972202 -0.25235,1.96657602 -0.19609,2.36590902 0.0216,0.153558 1.35436,-0.80571 1.95825,-1.409501 z m 62.75239,-5.108035 c 0.10893,-0.05579 0.3307,-0.101429 0.49283,-0.101429 0.16212,0 0.32747,-0.05292 0.36745,-0.117592 0.04,-0.06468 0.15345,-0.117593 0.25218,-0.117593 0.35545,0 1.70965,-0.766613 2.32843,-1.318126 0.55842,-0.497708 1.71393,-2.047811 1.71008,-2.294053 -0.004,-0.252653 1.38165,-2.7807397 1.72162,-3.1411697 l 0.39095,-0.414483 -0.22469,-0.120251 c -0.30104,-0.161112 -1.67579,-0.153217 -2.0867,0.01198 -0.8007,0.32191 -0.8529,0.363272 -0.73543,0.582758 0.19792,0.369832 0.12758,1.3722457 -0.1356,1.9321217 -0.39741,0.845465 -0.72011,0.615937 -0.40193,-0.285884 0.37286,-1.056791 0.13303,-1.6188927 -0.63215,-1.4815807 -0.44402,0.07968 -0.71686,0.3275937 -0.71686,0.6513687 0,0.105902 0.16597,0.443113 0.36882,0.749358 0.267,0.4031 0.3333,0.592322 0.24017,0.685455 -0.16502,0.165016 -0.39515,-0.02015 -0.8541,-0.6872 -0.22165,-0.322162 -0.34285,-0.646717 -0.34285,-0.918106 0,-0.2889957 -0.0533,-0.4197847 -0.17111,-0.4197847 -0.0941,0 -0.65212,-0.211666 -1.24,-0.47037 -0.58789,-0.258704 -1.14022,-0.470371 -1.22742,-0.470371 -0.19538,0 -0.33288,0.319373 -0.17856,0.414749 0.15521,0.09592 0.14169,0.8024997 -0.0184,0.9625977 -0.072,0.07198 -0.0953,0.188392 -0.0519,0.258704 0.11402,0.184481 0.48243,0.157094 0.6531,-0.04855 0.18568,-0.223731 0.47037,-0.228815 0.47037,-0.0084 0,0.233812 -0.31361,0.523253 -0.66156,0.610584 -0.21808,0.05473 -0.40267,-0.01511 -0.72673,-0.274958 -0.70495,-0.565269 -0.99513,-0.55783 -1.6207,0.04155 l -0.5357,0.51328 0.0778,0.676103 c 0.0428,0.371857 0.12594,0.848082 0.18484,1.058279 0.0589,0.210197 0.15286,0.554155 0.20879,0.764352 0.24813,0.932455 0.41663,1.448626 0.50671,1.552222 0.0534,0.06144 0.0971,0.176118 0.0971,0.254834 0,0.07872 0.10374,0.385136 0.23053,0.680931 l 0.23054,0.537809 0.91599,-0.07385 c 0.5038,-0.04062 1.00512,-0.119496 1.11405,-0.175282 z m 4.29741,-7.9335857 c -0.0391,-0.03908 -0.1405,-0.04325 -0.22539,-0.0093 -0.0938,0.03754 -0.0659,0.0654 0.071,0.07104 0.12397,0.0051 0.19342,-0.02269 0.15434,-0.06176 z m -10.99758,-8.72451 c 0.065,-0.676637 0.57329,-1.834284 1.01131,-2.303354 0.40953,-0.438565 1.30244,-1.013128 1.57447,-1.013128 0.15483,0 0.21217,0.09051 0.21217,0.334919 0,0.273228 -0.0812,0.371589 -0.44098,0.534007 -0.94242,0.425481 -1.6969,1.368256 -1.91608,2.394269 -0.09,0.421323 -0.18954,0.617361 -0.31348,0.617361 -0.14604,0 -0.17099,-0.110471 -0.12741,-0.564074 z"
       id="path12" /></g></svg>
