<?xml version="1.0" encoding="UTF-8" standalone="no"?>
<!-- Created with Inkscape (http://www.inkscape.org/) -->

<svg
   width="124.58147mm"
   height="92.088501mm"
   viewBox="0 0 124.58149 92.088501"
   version="1.1"
   id="svg1"
   xml:space="preserve"
   xmlns="http://www.w3.org/2000/svg"
   xmlns:svg="http://www.w3.org/2000/svg"><defs
     id="defs1" /><g
     id="layer1"
     transform="translate(-317.15176,-1366.8608)"><path
       style="fill:#4d4d4d"
       d="m 323.90302,1458.7883 c -3.1274,-0.4704 -4.03194,-1.3258 -4.03194,-3.813 0,-0.8921 -0.42432,-2.1807 -1.19833,-3.6392 -0.71108,-1.34 -1.29824,-3.0578 -1.44404,-4.2247 -0.36867,-2.9508 0.60986,-7.5241 2.45446,-11.4714 1.29283,-2.7666 1.99768,-3.7482 4.47713,-6.2352 3.19759,-3.2073 5.20856,-4.5335 8.75059,-5.7712 2.03256,-0.7103 3.20265,-1.543 2.1681,-1.543 -0.57003,0 -1.44957,-1.944 -1.44957,-3.204 0,-2.4002 2.28744,-4.5666 6.47605,-6.1333 1.19185,-0.4458 2.83717,-0.9217 3.65626,-1.0576 l 1.48926,-0.247 -0.0666,-2.9632 c -0.0431,-1.918 0.0828,-3.1126 0.35695,-3.3867 0.23297,-0.233 0.5079,-0.3393 0.61096,-0.2362 0.10306,0.103 0.26537,1.7593 0.36068,3.6806 0.0953,1.9213 0.35023,4.2609 0.56647,5.1991 0.51584,2.238 0.22281,4.2056 -0.87292,5.8614 -0.79574,1.2024 -1.71874,1.8103 -4.63957,3.0555 -1.19701,0.5103 2.95657,0.5558 4.91087,0.054 l 1.73587,-0.4459 0.60442,-2.525 c 0.33243,-1.3888 0.69367,-2.6695 0.80276,-2.846 0.48315,-0.7818 1.64747,-5.8654 1.64747,-7.1932 0,-0.9834 -0.41836,-2.2896 -1.27316,-3.9752 -1.71665,-3.3851 -1.72554,-3.3938 -3.06443,-3.0098 -1.53527,0.4403 -1.7682,0.409 -1.53239,-0.2055 0.11151,-0.2906 -0.092,-1.0446 -0.45229,-1.6757 -0.85228,-1.4929 -1.34464,-3.9202 -1.59234,-7.8501 -0.11007,-1.7463 -0.38917,-4.3232 -0.62023,-5.7264 -0.38186,-2.3192 -0.34731,-2.8338 0.37961,-5.6534 0.63109,-2.4479 0.81274,-4.1945 0.86149,-8.284 0.0502,-4.2094 0.16713,-5.2873 0.62302,-5.7432 0.43847,-0.4384 1.53808,-0.5889 5.02708,-0.6881 2.88963,-0.082 4.46586,2e-4 4.46586,0.2336 0,0.2107 0.2565,0.2487 0.61736,0.091 1.07003,-0.4664 4.974,-0.4535 5.15459,0.017 0.39897,1.0397 -1.06162,9.2959 -2.0383,11.5218 -0.18043,0.4112 -0.0498,0.6512 0.43897,0.8063 1.90755,0.6055 5.00673,3.0685 6.31338,5.0175 1.92665,2.8739 2.38657,5.132 2.05138,10.0721 -0.14852,2.1888 -0.24755,4.4424 -0.22008,5.0079 0.13781,2.8358 3.96758,6.0118 7.14551,5.9257 3.26661,-0.088 5.18946,-1.4994 11.77978,-8.6438 2.9678,-3.2174 4.86159,-4.222 7.6552,-4.061 1.36019,0.078 1.84804,0.2462 1.84804,0.6356 0,0.3728 -0.31272,0.5026 -1.05833,0.4391 -1.28826,-0.1097 -4.3341,0.5643 -4.61676,1.0216 -0.12039,0.1948 0.17098,0.2372 0.70664,0.1027 1.39208,-0.3494 1.11457,0.4089 -0.55368,1.5129 -1.05643,0.6991 -1.74527,1.5617 -2.46916,3.0918 -0.55219,1.1672 -1.00411,2.3273 -1.00426,2.5779 -5.8e-4,0.95 -2.15153,5.0061 -2.85415,5.3821 -0.40389,0.2161 -0.64729,0.48 -0.54089,0.5864 0.33332,0.3334 7.3738,0.082 9.0392,-0.3226 3.32184,-0.8071 6.8897,-3.3826 7.54463,-5.4461 0.11473,-0.3615 0.52787,-0.8566 0.9181,-1.1003 1.13365,-0.708 0.91501,0.5896 -0.43703,2.5937 -1.33557,1.9797 -3.71362,3.7807 -6.34262,4.8037 -2.2047,0.8579 -8.20447,1.112 -13.85391,0.5867 -4.07215,-0.3786 -6.25916,-1.0789 -7.75806,-2.4841 -1.26457,-1.1854 -1.45054,-1.2135 -1.94333,-0.2927 -0.20768,0.3881 -0.52043,0.7056 -0.695,0.7056 -0.17457,0 -0.72768,0.156 -1.22913,0.3466 -0.81819,0.3111 -0.86579,0.4244 -0.46394,1.1044 0.36151,0.6118 0.36161,0.789 5.2e-4,0.9196 -0.246,0.089 -0.64287,0.355 -0.88194,0.591 -0.23907,0.2361 -0.75218,0.5579 -1.14023,0.7152 -0.4684,0.1898 -0.55334,0.3426 -0.25272,0.4545 0.24905,0.093 0.67866,-0.019 0.95468,-0.2478 0.51144,-0.4244 1.23832,-0.2166 1.23832,0.3541 0,0.1735 -0.71625,0.6323 -1.59167,1.0195 -0.87542,0.3873 -1.68062,0.99 -1.78934,1.3395 -0.40574,1.3041 -0.77822,1.7141 -2.28302,2.5132 -1.93307,1.0266 -6.69431,5.8067 -7.4943,7.524 -0.70551,1.5146 -0.78357,3.7951 -0.15904,4.646 0.96526,1.3151 3.19194,3.6785 9.43883,10.0183 6.2553,6.3483 9.1702,10.0878 9.1702,11.7643 0,0.8015 -1.10345,1.2187 -6.06295,2.2923 -2.38919,0.5172 -4.89962,1.0641 -5.57871,1.2153 -0.6791,0.1512 -2.50473,0.5291 -4.05695,0.8397 -2.22951,0.4461 -2.95806,0.7503 -3.46901,1.4483 -0.76413,1.044 -1.29349,1.1397 -1.29349,0.2339 0,-0.3573 1.47094,-2.1496 3.26876,-3.9828 3.71414,-3.7873 5.49515,-6.7773 6.38135,-10.7133 l 0.55602,-2.4694 -2.89042,-2.9104 c -2.93379,-2.9542 -3.43515,-3.3059 -3.43515,-2.4099 0,0.2753 -0.23773,0.95 -0.52827,1.4993 -0.29055,0.5493 -1.4199,3.6181 -2.50967,6.8196 -3.17869,9.3382 -5.25967,13.3137 -7.83477,14.9677 -0.94847,0.6091 -2.20083,0.9381 -4.64952,1.2214 -4.36742,0.5052 -14.14718,0.7434 -16.42917,0.4002 z m 0.025,-2.6466 c -0.77611,-0.6689 -1.51948,-1.2222 -1.65192,-1.2295 -0.13245,-0.01 -0.34232,-0.333 -0.46637,-0.7239 -0.33149,-1.0444 -0.88032,-0.4909 -0.88032,0.8879 0,1.5036 1.03326,2.2942 2.98891,2.287 l 1.42081,-0.01 z m 4.05694,0.2806 c 0,-0.3264 0.6406,-2.1556 1.42355,-4.0649 3.57642,-8.7217 8.06324,-13.5017 15.52349,-16.5376 3.0387,-1.2366 3.64616,-1.2955 3.33768,-0.3236 -0.15118,0.4763 -0.0634,0.7056 0.27021,0.7056 0.31648,0 0.49415,-0.3898 0.49415,-1.0841 0,-0.8804 -0.12242,-1.0521 -0.65138,-0.9138 -1.24561,0.3257 -1.39016,-0.8915 -0.41677,-3.5096 1.37596,-3.7008 1.38547,-3.7561 0.61883,-3.5994 -0.37727,0.077 -0.62668,0.3824 -0.57327,0.7015 0.052,0.3107 -0.0631,0.9796 -0.25585,1.4865 -0.28475,0.749 -0.57945,0.9216 -1.57303,0.9216 -0.67245,0 -1.32075,0.1588 -1.44066,0.3528 -0.11992,0.194 -0.50423,0.3528 -0.85403,0.3528 -1.75398,0 -7.39863,3.6023 -10.77947,6.8792 -2.88447,2.7958 -5.4402,7.4929 -6.20055,11.3958 -0.41069,2.1081 -0.29087,6.6914 0.1955,7.4783 0.34432,0.5571 0.8816,0.4102 0.8816,-0.2411 z m 18.09538,-1.9886 c 1.55701,-2.0413 4.73124,-8.9285 4.30946,-9.3503 -0.23792,-0.2379 -0.20991,-0.2848 -1.65719,2.7774 -0.69228,1.4647 -1.99142,3.8063 -2.88697,5.2035 -1.02605,1.6007 -1.4489,2.5402 -1.14329,2.5402 0.26674,0 0.88684,-0.5268 1.37799,-1.1708 z m 24.69423,-5.091 c -0.86452,-2.3497 -6.68123,-9.1257 -7.5774,-8.827 -0.24558,0.082 0.5681,1.1272 1.87843,2.4132 1.27142,1.2478 3.00483,3.3403 3.85201,4.6499 1.46519,2.2651 2.33806,3.0987 1.84696,1.7639 z m -19.00218,-14.7397 c 0.32188,-0.4912 0.73813,-0.7987 0.92501,-0.6832 0.18687,0.1155 0.39395,0 0.46018,-0.2533 0.0662,-0.2549 0.30074,-1.0092 0.52114,-1.6764 0.31821,-0.9633 0.30167,-1.3265 -0.0804,-1.7639 -1.40275,-1.6061 -2.02013,-4.1417 -1.28961,-5.2965 0.61418,-0.9709 -0.0374,-1.0914 -1.09397,-0.2023 -0.58242,0.49 -1.22488,0.891 -1.42769,0.891 -0.21064,0 -0.14498,0.337 0.15315,0.786 0.4675,0.7041 0.44845,1.0075 -0.18274,2.9105 -0.38755,1.1684 -0.86727,2.3308 -1.06605,2.5832 -0.2685,0.3409 -0.16511,0.5101 0.40216,0.6585 0.69953,0.1829 0.92365,0.5408 0.80059,1.2782 -0.0728,0.4361 0.65969,1.6614 0.99316,1.6614 0.16488,0 0.56315,-0.4019 0.88503,-0.8932 z m 3.48591,-1.6288 c 0.19038,-0.126 0.23177,-0.5228 0.092,-0.882 -0.21639,-0.5559 -0.32889,-0.4765 -0.75696,0.5341 -0.59636,1.4079 -0.6522,2.2893 -0.0813,1.2824 0.22005,-0.3881 0.55586,-0.8086 0.74623,-0.9345 z m -9.99263,-4.4454 c -0.003,-0.1455 -0.15369,-0.499 -0.33493,-0.7857 -0.22692,-0.3588 -0.14286,-0.7314 0.26999,-1.1965 0.5786,-0.6518 0.57169,-0.6583 -0.19818,-0.1853 -0.99528,0.6115 -1.37958,1.7123 -0.73937,2.118 0.59474,0.3768 1.00959,0.3973 1.00249,0.049 z m -6.60918,-3.4891 c 1.02038,-0.2882 0.69665,-0.8288 -0.52917,-0.8837 -1.59986,-0.072 -3.55546,0.086 -3.93399,0.3175 -0.17492,0.1069 -0.0162,0.4153 0.35277,0.6853 0.62844,0.4601 2.22375,0.4138 4.11039,-0.1191 z m 9.34453,-0.5725 c 0.37235,-0.337 1.05344,-0.6127 1.51353,-0.6127 0.62305,0 0.73455,-0.1019 0.4369,-0.3996 -0.2371,-0.2371 -0.66032,-0.2854 -1.04069,-0.1186 -0.85769,0.3758 -0.79797,0.3593 -2.40496,0.6646 -0.77612,0.1474 -1.72862,0.357 -2.11667,0.4658 -0.62619,0.1755 -0.63751,0.2217 -0.10068,0.4102 1.1581,0.4066 3.04004,0.1989 3.71257,-0.4097 z m 4.49122,-3.1947 c 1.50971,-4.9396 2.06287,-9.0836 1.27734,-9.5691 -0.59694,-0.369 -1.44787,0.2293 -1.6581,1.1657 -0.11498,0.5122 -0.66256,2.4394 -1.21684,4.2827 -1.37317,4.5665 -1.38028,4.6724 -0.3319,4.9444 1.17282,0.3044 1.64654,0.1021 1.9295,-0.8237 z m -12.48772,0.3229 c 4.54233,-1.0865 5.97589,-2.5456 5.96671,-6.0728 -0.008,-2.9426 -0.13935,-3.0623 -2.66032,-2.4181 -7.39151,1.8889 -10.28904,5.2036 -7.22615,8.2665 0.83595,0.8359 1.26129,0.8603 3.91976,0.2244 z m 19.51835,-6.758 c 0.13438,-0.7644 0.54621,-2.6598 0.91518,-4.212 2.29996,-9.6757 2.90867,-12.1999 3.36034,-13.9348 0.90583,-3.4792 1.58212,-7.553 1.37491,-8.2822 -0.74784,-2.6318 -2.82029,-5.0603 -5.79112,-6.7859 -0.87312,-0.5072 -1.68245,-1.065 -1.79849,-1.2396 -0.11605,-0.1746 -0.72604,0.1159 -1.35553,0.6456 -2.21252,1.8617 -5.33671,1.0993 -7.59043,-1.8523 -1.41161,-1.8487 -1.52447,-1.5737 -0.60067,1.4634 0.35417,1.1644 0.56802,2.355 0.47522,2.6459 -0.34234,1.0729 -2.20208,3.0969 -3.24101,3.5273 -1.0167,0.4211 -1.06215,0.5259 -0.89948,2.0739 0.0942,0.8967 0.2631,3.0591 0.37527,4.8053 0.28214,4.3923 1.09061,7.1966 2.1959,7.6168 1.01144,0.3846 1.50311,0.1596 1.50311,-0.6879 0,-0.3378 0.1802,-0.7943 0.40043,-1.0146 0.29872,-0.2987 0.29872,-0.8043 0,-1.9906 -0.4983,-1.979 -0.52188,-4.8056 -0.0401,-4.8056 0.56152,0 0.99057,1.373 1.23266,3.9447 0.16895,1.7947 0.42231,2.5735 1.0615,3.2632 1.02176,1.1025 2.88128,1.2163 4.07534,0.2494 0.69723,-0.5645 0.8082,-0.9722 0.79233,-2.9104 -0.0102,-1.2396 -0.35742,-3.5141 -0.7717,-5.0543 -1.1877,-4.4158 -0.88739,-7.1599 0.96412,-8.8097 1.11433,-0.9929 1.32188,-0.4199 0.46696,1.2892 -1.19657,2.3921 -1.22129,3.0789 -0.26087,7.2493 0.83178,3.6118 0.89257,4.408 0.72557,9.504 -0.11075,3.3797 -0.38193,6.185 -0.69113,7.1496 -0.27987,0.8731 -0.76521,3.3337 -1.07853,5.468 -0.31332,2.1343 -0.86523,4.788 -1.22647,5.897 l -0.65679,2.0163 2.91957,-2.9195 c 2.35845,-2.3585 2.96654,-3.1867 3.1639,-4.3095 z m 2.73348,-0.6049 c 0.25664,-0.4796 0.25087,-0.7996 -0.0193,-1.0697 -0.74362,-0.7436 -0.37122,-1.5238 1.20204,-2.5182 0.87312,-0.5519 1.5875,-1.0595 1.5875,-1.1281 0,-0.069 -0.67469,-0.065 -1.49931,0.01 -1.34385,0.1177 -1.54069,0.2548 -1.89851,1.3223 -0.21956,0.655 -0.51721,2.0603 -0.66143,3.1228 -0.24215,1.7839 -0.21685,1.8942 0.33027,1.4402 0.32587,-0.2705 0.75729,-0.7997 0.9587,-1.176 z m -9.22417,-3.7627 c 0,-0.4162 -0.68804,-0.8615 -0.94074,-0.6088 -0.2527,0.2527 0.19256,0.9408 0.60879,0.9408 0.18257,0 0.33195,-0.1494 0.33195,-0.332 z m 0.743,-1.9617 c -1.38265,-1.9253 -3.21179,-5.7609 -3.21216,-6.7357 -1.5e-4,-0.4065 -0.29293,-1.0039 -0.65062,-1.3276 -0.62475,-0.5654 -0.64112,-0.5294 -0.41599,0.9154 0.1289,0.8272 0.65968,2.2965 1.17951,3.2651 0.51983,0.9686 0.94515,1.9414 0.94515,2.1617 0,0.2203 0.25972,0.6161 0.57715,0.8796 0.31743,0.2634 0.97909,1.1157 1.47036,1.8939 0.53533,0.848 0.95578,1.2272 1.04939,0.9464 0.0859,-0.2577 -0.33836,-1.1572 -0.94279,-1.9988 z m 1.89328,-2.557 c 0.44746,-4.7786 0.43761,-4.8226 -0.92125,-4.1199 -0.65835,0.3404 -1.50918,0.4921 -2.09882,0.3742 l -0.99162,-0.1983 0.68153,1.5899 c 0.92214,2.1513 2.45881,4.7353 2.81599,4.7353 0.16015,0 0.39152,-1.0716 0.51417,-2.3812 z m 25.1857,1.8766 c 1.3925,-0.7201 2.73772,-2.8322 3.9034,-6.1285 0.55579,-1.5717 1.36551,-3.3562 1.79939,-3.9655 1.34687,-1.8915 -0.31505,-0.5634 -1.95115,1.5593 -1.8493,2.3992 -5.40714,5.6389 -7.19349,6.5502 -0.7818,0.3989 -1.90404,0.7252 -2.49385,0.7252 -0.58981,0 -1.07239,0.1557 -1.07239,0.3461 0,0.4002 0.76249,0.6124 3.70417,1.0307 1.16417,0.1656 2.16424,0.3204 2.22238,0.3441 0.0581,0.024 0.54483,-0.1841 1.08154,-0.4616 z m -15.34995,-1.0559 c 1.52385,-0.2685 2.9189,-0.6365 3.1001,-0.8177 0.20408,-0.2041 -0.27496,-0.9152 -1.25888,-1.8688 -1.73072,-1.6773 -2.14369,-2.7853 -2.01229,-5.3993 0.0567,-1.1284 -0.0406,-1.6305 -0.2867,-1.4784 -0.20492,0.1266 -0.37259,0.5023 -0.37259,0.8349 0,0.3325 -0.41429,2.1885 -0.92065,4.1243 -1.15086,4.3998 -1.3106,5.1089 -1.14895,5.1002 0.0711,0 1.37611,-0.2266 2.89996,-0.4952 z m -9.84929,-27.1027 c 0.91613,-0.9205 1.28999,-1.7724 1.89648,-4.3215 1.27726,-5.3684 1.07169,-7.232 -0.79776,-7.232 -0.96276,0 -3.28111,1.5447 -5.83812,3.8899 -1.06715,0.9787 -2.29747,1.8705 -2.73403,1.9817 -0.66088,0.1683 -0.79375,0.4438 -0.79375,1.6456 0,1.0694 0.10285,1.3405 0.397,1.0464 0.29414,-0.2941 0.68258,0.023 1.4993,1.2227 1.15726,1.7004 2.98755,2.9137 4.39528,2.9137 0.47227,0 1.32985,-0.4977 1.9756,-1.1465 z m -9.68369,-6.7028 c -0.004,-0.7795 -0.10276,-0.9928 -0.30954,-0.6665 -0.27739,0.4378 -0.14108,1.8131 0.1797,1.8131 0.0744,0 0.13281,-0.516 0.12984,-1.1466 z m 31.65104,76.0474 c -1.80519,-0.9494 -3.25063,-3.3944 -6.42713,-10.8717 -0.24728,-0.582 -0.76046,-1.7727 -1.1404,-2.6458 -0.37994,-0.8731 -0.79256,-1.8256 -0.91693,-2.1167 -0.37062,-0.8672 -1.03357,-1.8453 -2.43406,-3.591 -0.72839,-0.908 -1.31998,-1.8605 -1.31466,-2.1167 0.005,-0.2562 0.7594,-0.8427 1.6757,-1.3033 2.28329,-1.1477 8.17945,-4.9211 9.2198,-5.9004 0.99691,-0.9384 1.40052,-3.9055 0.75767,-5.5699 l -0.3935,-1.0187 -5.67379,0.2542 c -4.53623,0.2032 -5.64367,0.1638 -5.5235,-0.1967 0.22532,-0.676 1.78829,-0.9827 6.27794,-1.2321 3.8557,-0.2142 4.23193,-0.1717 7.58472,0.8566 7.5177,2.3057 12.26808,2.2667 19.57917,-0.1606 3.68827,-1.2246 9.64277,-5.5456 10.63064,-7.7144 1.19094,-2.6147 0.55399,-5.3794 -1.94591,-8.4464 -2.42414,-2.9741 -2.56972,-4.1715 -0.73074,-6.0105 1.05507,-1.0551 1.15836,-1.2869 0.65883,-1.4785 -0.32582,-0.1251 -0.90759,-0.031 -1.29281,0.2101 -0.96822,0.6046 -1.44349,0.037 -0.98312,-1.1736 0.45571,-1.1986 0.47402,-3.761 0.0351,-4.9154 -0.18191,-0.4785 -0.98514,-1.2378 -1.78495,-1.6873 -1.04631,-0.5881 -1.4081,-0.9936 -1.28986,-1.4457 0.58433,-2.2345 -2.2748,0.3154 -3.65296,3.2578 -0.45275,0.9666 -0.9548,1.7575 -1.11566,1.7575 -0.54817,0 -0.29432,-1.7884 0.46519,-3.2772 0.98061,-1.9223 5.08916,-6.2015 6.55114,-6.8233 4.8094,-2.0454 10.62005,2.676 10.4427,8.4852 -0.0893,2.9251 -1.22318,4.4441 -4.87512,6.5308 -2.3802,1.36 -2.84035,1.7711 -2.93799,2.6248 -0.1578,1.3798 0.2679,1.693 1.7175,1.2635 6.39196,-1.8938 14.39533,-1.8018 19.38519,0.2229 4.49754,1.825 8.82922,5.6977 10.84759,9.6984 2.28464,4.5284 2.74029,6.6262 2.71414,12.4958 -0.0196,4.4058 -0.16159,5.7936 -0.84804,8.2902 -1.5589,5.6698 -4.62681,11.3985 -7.01173,13.0929 -4.56948,3.2465 -17.97094,6.3386 -39.56527,9.1288 -7.43467,0.9606 -10.9514,1.4607 -12.45278,1.7706 -2.16412,0.4466 -3.0116,0.3978 -4.23213,-0.2442 z m 6.98353,-8.7503 c 4.75312,-1.2398 11.52703,-5.5145 14.34701,-9.0537 0.5178,-0.6498 2.11008,-2.6103 3.53839,-4.3566 1.42832,-1.7462 3.37676,-4.3656 4.32987,-5.8208 2.25171,-3.4379 5.125,-8.1164 5.125,-8.3448 0,-0.3628 4.23202,-5.9906 5.01328,-6.6667 3.33483,-2.8861 6.25002,-4.0411 10.17965,-4.0332 2.77427,0.01 4.80862,0.5278 5.89828,1.5139 0.3631,0.3286 0.78099,0.5975 0.92863,0.5975 0.36207,0 1.49614,1.3482 2.22557,2.6458 1.48156,2.6356 1.88503,4.5401 2.09261,9.8778 0.22418,5.7648 -0.2685,9.868 -1.68649,14.0456 -0.4074,1.2002 -0.7673,2.3409 -0.79979,2.5349 -0.0325,0.1941 -0.18957,0.5618 -0.34907,0.8173 -0.15949,0.2554 -0.21,0.5444 -0.11224,0.6422 0.22752,0.2275 2.51866,-4.4918 3.19195,-6.5747 1.79385,-5.5497 2.33937,-11.2667 1.51541,-15.8817 -0.2951,-1.6528 -0.71485,-3.4785 -0.93277,-4.0569 -0.67738,-1.798 -2.25451,-4.9264 -2.5458,-5.0499 -0.15265,-0.065 -0.27755,-0.3254 -0.27755,-0.5793 0,-0.6503 -4.09595,-4.3694 -4.84739,-4.4015 -0.34137,-0.014 -1.33504,-0.1044 -2.20817,-0.1998 -3.2847,-0.3586 -5.31661,-0.1388 -7.52331,0.814 -3.80136,1.6414 -6.49189,3.6976 -8.63686,6.6009 -1.23372,1.6699 -3.59538,5.1921 -3.59538,5.3622 0,0.1173 -0.48098,0.8637 -1.06885,1.6588 -0.58787,0.7951 -2.12144,3.0332 -3.40794,4.9734 -5.41125,8.1612 -11.11148,14.2449 -15.66164,16.7153 -1.47176,0.799 -2.95006,1.4528 -3.2851,1.4528 -0.33505,0 -1.39612,0.2574 -2.35795,0.572 -1.36094,0.4451 -2.47094,0.5209 -5.00517,0.3417 -6.13563,-0.4339 -6.6078,-0.4442 -6.6078,-0.1436 0,0.1657 0.42012,1.2428 0.9336,2.3936 0.89236,2.0001 0.99751,2.0993 2.38125,2.2479 2.41354,0.2591 6.96644,-0.06 9.20877,-0.6444 z m 50.44722,-36.5172 c -0.11992,-0.194 -0.0499,-0.3528 0.15557,-0.3528 0.20547,0 0.37359,0.1588 0.37359,0.3528 0,0.194 -0.07,0.3528 -0.15557,0.3528 -0.0856,0 -0.25368,-0.1588 -0.37359,-0.3528 z m -0.64676,-1.2935 c -0.12935,-0.1294 -0.23519,-0.3992 -0.23519,-0.5997 0,-0.2211 0.16432,-0.2003 0.41746,0.053 0.2296,0.2296 0.33543,0.4994 0.23518,0.5997 -0.10025,0.1002 -0.2881,0.076 -0.41745,-0.053 z m -58.15498,31.9756 c 6.32175,-0.8376 8.69948,-2.7193 12.15185,-9.617 1.70306,-3.4026 3.69108,-5.6431 6.81036,-7.6754 1.24778,-0.813 2.26869,-1.5997 2.26869,-1.7482 0,-0.1486 -0.67468,-0.012 -1.4993,0.3026 -2.14146,0.8179 -11.24301,0.8126 -14.19931,-0.01 -1.16416,-0.3232 -2.33336,-0.6407 -2.5982,-0.7056 -0.72861,-0.1783 -0.77264,4.666 -0.0476,5.2402 0.4624,0.3663 0.44015,0.4853 -0.17639,0.9429 -0.38805,0.2881 -1.12187,0.6074 -1.6307,0.7096 -0.50883,0.1022 -2.73133,1.3573 -4.93889,2.789 -2.20756,1.4318 -4.29155,2.7048 -4.6311,2.829 -0.82901,0.3031 -0.7787,1.051 0.12573,1.8689 0.4087,0.3696 1.04693,1.2674 1.41828,1.995 0.5774,1.1313 0.84646,1.3229 1.85771,1.3229 1.5886,0 6.42842,-1.5977 8.03862,-2.6536 1.78758,-1.1723 3.04271,-2.5947 3.49274,-3.9583 0.40604,-1.2303 0.92412,-1.4831 1.25775,-0.6137 0.50235,1.3091 -1.60334,4.0959 -4.3682,5.7812 -1.8741,1.1423 -5.97163,2.5027 -7.53827,2.5027 -0.61579,0 -1.02117,0.1867 -1.02117,0.4704 0,0.9353 -0.0976,0.9311 5.22743,0.2256 z m 6.44979,0.31 c 3.05774,-1.0331 5.96167,-4.2799 5.96167,-6.6656 0,-0.6977 -0.22716,-0.5032 -1.26299,1.0815 -1.40427,2.1484 -2.88002,3.5777 -4.73423,4.5854 -0.6791,0.369 -1.47285,0.8334 -1.76389,1.032 -0.46357,0.3163 -0.45916,0.3617 0.0356,0.3664 0.3106,0 1.10435,-0.1769 1.76389,-0.3997 z m 9.99588,-13.3097 c 0.40056,-0.3641 2.21442,-1.6738 4.0308,-2.9104 4.32257,-2.9429 4.62847,-3.1652 5.64186,-4.1005 1.52842,-1.4106 0.49229,-0.855 -4.09574,2.1961 -4.55943,3.0321 -5.52202,3.7647 -6.39113,4.8643 -0.64481,0.8158 -0.10133,0.7828 0.81421,-0.049 z m 11.53301,-8.422 c 0.43881,-0.5595 0.42633,-0.572 -0.13319,-0.1332 -0.33955,0.2663 -0.61736,0.5441 -0.61736,0.6174 0,0.2903 0.28969,0.1035 0.75055,-0.4842 z m -7.14465,-18.9618 c -0.0242,-0.097 -0.0819,-0.6129 -0.12813,-1.1465 -0.0462,-0.5336 -0.29446,-1.4733 -0.55167,-2.0882 -0.34902,-0.8345 -0.37073,-1.3267 -0.0856,-1.9403 0.36722,-0.7903 0.39137,-0.7948 0.62152,-0.1167 0.1317,0.3881 0.47172,1.2389 0.7556,1.8908 l 0.51614,1.1852 3.21966,-0.1269 c 3.43024,-0.1351 4.46803,0.3339 2.36271,1.0678 -1.38833,0.484 -2.80657,0.5016 -3.99543,0.05 -0.77155,-0.2934 -0.98619,-0.2164 -1.47465,0.5291 -0.52121,0.7955 -1.12992,1.1371 -1.24018,0.6961 z"
       id="path89" /></g></svg>
