<?xml version="1.0" encoding="UTF-8" standalone="no"?>
<!-- Created with Inkscape (http://www.inkscape.org/) -->

<svg
   width="126.32478mm"
   height="97.382095mm"
   viewBox="0 0 126.3248 97.382096"
   version="1.1"
   id="svg1"
   xml:space="preserve"
   xmlns="http://www.w3.org/2000/svg"
   xmlns:svg="http://www.w3.org/2000/svg"><defs
     id="defs1" /><g
     id="layer1"
     transform="translate(-131.93738,-1404.947)"><path
       style="fill:#333333;stroke-width:1.15975"
       d="m 192.15326,1501.2669 c -1.26216,-0.9047 -6.93725,-1.1307 -29.87468,-1.1895 -21.19788,-0.054 -28.60713,-0.3193 -29.47248,-1.0542 -0.90809,-0.7713 -1.05227,-2.1234 -0.67241,-6.3059 1.05452,-11.6106 5.33179,-20.0023 12.88301,-25.2754 4.62709,-3.2311 11.02991,-4.1426 16.18081,-2.3035 2.73885,0.978 3.333,0.9908 3.67475,0.08 0.22422,-0.5979 1.30579,-1.087 2.40349,-1.087 1.71532,0 3.49948,-1.8705 2.62725,-2.7544 -0.85079,-0.8621 -9.70478,-1.1655 -12.39326,-0.4248 -3.77602,1.0405 -5.6666,0.2264 -2.99434,-1.2894 1.13049,-0.6412 4.53094,-1.0646 8.68846,-1.0817 6.71741,-0.028 6.84506,-0.065 7.67629,-2.2199 1.53174,-3.9714 1.95737,-4.5668 4.41512,-6.1762 2.4174,-1.5831 2.4342,-1.6414 2.464,-8.5671 0.0165,-3.8352 -0.25348,-6.9732 -0.59994,-6.9732 -0.34646,0 -1.3102,0.5265 -2.14164,1.17 -2.22938,1.7256 -2.67694,1.4992 -2.70724,-1.3692 -0.015,-1.4245 -0.52841,-4.9211 -1.14081,-7.7702 -2.36911,-11.0217 -0.82354,-18.4656 4.06443,-19.5754 1.19119,-0.2705 3.18687,-0.9641 4.43483,-1.5413 2.74487,-1.2698 4.93201,-0.5758 6.96418,2.2094 2.15313,2.9511 1.2267,4.774 -2.1016,4.1349 -2.47237,-0.4745 -2.74207,-0.2964 -4.68284,3.0924 -2.23335,3.8998 -2.55328,6.5111 -1.17657,9.6031 0.65974,1.4817 0.65561,2.9062 -0.0164,5.6371 -0.65259,2.6521 -0.66687,4.0986 -0.0521,5.2741 0.46591,0.8909 0.87591,4.1986 0.9111,7.3506 0.0564,5.0475 -0.27486,6.4409 -2.77766,11.6855 -1.56291,3.275 -2.84165,6.3388 -2.84165,6.8086 0,0.4698 1.9322,1.2689 4.29376,1.7757 2.36157,0.507 7.18026,2.2804 10.7082,3.9411 4.91041,2.3114 7.37312,3.0115 10.50303,2.9862 2.24873,-0.018 4.08859,0.074 4.08859,0.2059 0,0.1314 -1.13897,0.7488 -2.53103,1.3717 -1.39207,0.623 -2.10164,1.162 -1.57683,1.1977 1.92626,0.1312 -1.38755,5.992 -7.87399,13.9257 l -3.0259,3.7011 2.0126,4.5678 c 2.20869,5.0129 3.51216,6.2936 5.57926,5.4819 1.41793,-0.5568 1.36565,-1.2017 -0.47845,-5.9021 -1.30403,-3.3237 -0.11344,-5.7049 6.47192,-12.9431 7.12121,-7.8271 9.21021,-11.0213 9.21021,-14.083 0,-3.1077 -0.75678,-3.5507 -8.56656,-5.0142 -5.81223,-1.0893 -8.7353,-2.9365 -3.18311,-2.0117 6.75943,1.126 10.79091,0.68 15.46386,-1.711 5.55293,-2.8412 7.19844,-5.4547 5.80796,-9.2244 -0.58024,-1.5731 -0.66852,-2.7203 -0.22108,-2.8729 1.41571,-0.4829 4.79757,-3.5188 4.38737,-3.9385 -0.22637,-0.2317 -0.86986,-0.032 -1.42999,0.4436 -0.57259,0.4864 -1.4696,0.5796 -2.0491,0.2131 -1.28387,-0.8119 -0.4219,-4.0386 1.07889,-4.0386 1.25826,0 4.28732,-3.7358 4.28732,-5.2876 0,-0.7865 -1.17892,-1.0879 -4.25588,-1.0879 -3.38023,0 -4.41839,0.3108 -5.0457,1.5102 -0.85494,1.6348 0.68816,3.7949 1.90501,2.6668 0.3505,-0.3249 0.41364,-0.1896 0.1403,0.3007 -0.27335,0.4903 -1.88998,1.1195 -3.59252,1.398 -3.79174,0.6205 -4.75745,2.1463 -3.78833,5.9857 0.40011,1.585 0.90339,3.6044 1.11841,4.4874 0.23149,0.9506 -0.26705,2.3817 -1.22235,3.5089 -0.88731,1.0469 -1.61329,2.3654 -1.61329,2.9299 0,1.9156 -1.51816,1.9969 -11.33476,0.6066 -8.18779,-1.1596 -9.91068,-1.2108 -10.45453,-0.3104 -1.00413,1.6627 -0.0977,3.0888 2.19106,3.4478 1.14165,0.179 0.27336,0.3792 -1.92955,0.4448 -4.14202,0.1235 -4.95068,-0.5044 -4.95068,-3.844 0,-2.3751 3.81453,-2.6174 19.12585,-1.2145 5.36831,0.492 5.51881,0.4553 6.41817,-1.5646 0.83822,-1.8827 0.7421,-2.1381 -1.06994,-2.843 -1.095,-0.426 -2.26423,-0.7747 -2.59828,-0.7747 -0.33406,0 -1.20138,-0.6716 -1.92738,-1.4925 -1.24755,-1.4107 -1.23285,-1.516 0.26792,-1.9175 0.87334,-0.2338 1.78416,-0.1 2.02403,0.2972 0.66998,1.1093 3.45931,0.8562 3.45931,-0.314 0,-1.5786 -1.67097,-2.9487 -3.59656,-2.9487 -0.95012,0 -2.27981,-0.2168 -2.95488,-0.4819 -2.33362,-0.9163 -0.34999,-1.9088 3.81516,-1.9088 3.589,0 4.40927,-0.2972 5.79488,-2.0998 0.88774,-1.1549 1.61407,-2.5269 1.61407,-3.0489 0,-0.5219 0.88666,-1.8014 1.97034,-2.8431 1.72665,-1.66 2.74115,-1.899 8.20266,-1.9321 4.7211,-0.029 6.4121,0.2521 6.9737,1.1576 1.27383,2.054 0.8426,4.2132 -1.29807,6.4998 l -2.06328,2.2037 2.99621,-0.8466 c 1.64792,-0.4655 5.31249,-0.7126 8.14348,-0.5489 4.28704,0.2479 5.70377,0.7165 8.47741,2.8037 7.34141,5.5249 10.39398,12.5699 10.46679,24.1566 0.0714,11.3622 -3.36065,21.2481 -10.19507,29.3668 l -2.91808,3.4664 -22.97113,0.4309 c -17.53787,0.329 -23.33446,0.6872 -24.50727,1.5145 -1.95869,1.3815 -3.55575,1.3719 -5.51627,-0.034 z m -15.17925,-4.4352 c 1.53091,-1.1156 2.37281,-2.4166 2.37281,-3.6671 0,-1.6597 -0.36767,-1.9381 -2.5595,-1.9381 -2.17447,0 -3.00982,0.6173 -5.5533,4.1036 l -2.99381,4.1037 3.1805,-0.4367 c 1.74928,-0.2401 4.24827,-1.2146 5.5533,-2.1654 z m 0.81091,-11.383 c -0.002,-0.9862 -0.37061,-3.1427 -0.81828,-4.7923 -0.44765,-1.6496 -0.63045,-3.303 -0.4062,-3.6744 0.22426,-0.3712 2.25712,-0.1779 4.51747,0.4295 2.26036,0.6074 6.03722,1.3128 8.39302,1.5675 3.64067,0.3936 4.6046,0.2025 6.42493,-1.2734 1.1779,-0.9551 2.14164,-2.4354 2.14164,-3.2897 0,-0.9512 -0.83001,-1.8918 -2.14164,-2.4269 -1.1779,-0.4805 -4.77002,-2.0554 -7.98248,-3.4997 -9.36946,-4.2124 -11.63207,-4.539 -18.66763,-2.6937 l -3.91694,1.0272 0.0141,3.6348 c 0.009,2.4942 0.7034,4.8851 2.21075,7.6195 5.10005,9.2514 5.01842,9.1544 7.70457,9.1597 2.10832,0 2.5303,-0.2944 2.52668,-1.7881 z m 11.71078,-33.0729 c 0.0136,-0.3286 0.5393,-1.2937 1.16817,-2.1446 0.62887,-0.8508 1.1434,-1.7617 1.1434,-2.0242 0,-0.2624 -1.72673,-1.5091 -3.83718,-2.7705 -3.54486,-2.1186 -5.2249,-4.5457 -4.25647,-6.1491 0.63841,-1.0571 1.86342,-0.7588 1.86342,0.4536 0,0.6118 1.75263,2.2633 3.89473,3.6699 3.10954,2.0418 4.52257,2.4963 7.009,2.2536 1.71286,-0.1672 3.11428,-0.086 3.11428,0.1815 0,0.6202 -5.30851,4.9851 -7.54189,6.2013 -1.98016,1.0783 -2.59178,1.1569 -2.55746,0.3285 z m 3.90266,-10.8056 c -3.12504,-1.5721 -3.68286,-2.302 -5.59718,-7.3246 -1.16942,-3.0682 -2.14824,-6.2501 -2.17517,-7.0708 -0.088,-2.6826 1.92132,-0.045 3.92127,5.1475 1.93307,5.0188 4.07391,7.1597 5.59889,5.5992 0.59461,-0.6084 -0.0467,-2.1204 -2.22525,-5.2465 -1.68333,-2.4154 -3.76149,-5.4571 -4.61815,-6.7593 -0.97917,-1.4885 -2.5045,-2.5613 -4.10763,-2.889 -1.40255,-0.2867 -3.05913,-1.2652 -3.6813,-2.1741 -1.42048,-2.0754 -0.90083,-2.6679 1.36518,-1.5566 3.51066,1.7215 4.44185,1.7622 5.24381,0.2288 0.52159,-0.9974 0.53221,-2.208 0.0311,-3.5566 -0.58603,-1.5773 -0.5161,-2.0445 0.30596,-2.0445 1.58102,0 2.09835,2.1307 1.54804,6.3759 -0.45417,3.5035 -0.29365,4.0096 2.17926,6.8716 5.15527,5.9666 6.19316,7.991 5.64095,11.0031 -0.47275,2.5788 -0.32495,2.8557 2.10266,3.9399 l 2.61115,1.1661 -2.33634,0.017 c -1.28498,0.012 -3.89827,-0.7677 -5.8073,-1.7281 z"
       id="path69" /></g></svg>
