<?xml version="1.0" encoding="UTF-8" standalone="no"?>
<!-- Created with Inkscape (http://www.inkscape.org/) -->

<svg
   width="126.20214mm"
   height="80.525742mm"
   viewBox="0 0 126.20215 80.525742"
   version="1.1"
   id="svg1"
   xml:space="preserve"
   xmlns="http://www.w3.org/2000/svg"
   xmlns:svg="http://www.w3.org/2000/svg"><defs
     id="defs1" /><g
     id="layer1"
     transform="translate(-77.481988,-163.07892)"><path
       style="fill:#4d4d4d"
       d="m 188.61369,243.06861 c -0.7364,-0.73091 -2.75216,-2.931 -4.07376,-4.4463 -0.3192,-0.36598 -1.00712,-1.00663 -1.52871,-1.42367 -0.52159,-0.41705 -1.04507,-0.83758 -1.1633,-0.93453 -0.11822,-0.0969 -0.34312,-0.23465 -0.49976,-0.30603 -0.15665,-0.0714 -0.28482,-0.17419 -0.28482,-0.22849 0,-0.0543 -0.058,-0.0987 -0.12884,-0.0987 -0.0709,0 -0.2693,-0.0996 -0.44097,-0.22129 -0.74269,-0.52654 -1.78992,-1.06531 -7.1913,-3.69972 -1.47801,-0.72087 -2.20995,-1.11091 -2.35184,-1.25325 -0.0323,-0.0324 -0.20432,-0.13399 -0.38218,-0.22566 -0.17786,-0.0917 -0.32338,-0.21065 -0.32338,-0.2644 0,-0.0537 -0.0557,-0.0977 -0.12387,-0.0977 -0.34334,0 -2.98164,-2.39131 -3.69972,-3.35337 -0.19228,-0.25761 -0.38274,-0.49485 -0.42323,-0.52718 -0.1703,-0.136 -1.24353,-1.87728 -1.50592,-2.4433 -0.15657,-0.33776 -0.32541,-0.61411 -0.3752,-0.61411 -0.1015,0 -1.61623,1.20346 -2.1669,1.72162 -0.93008,0.87516 -2.23711,1.97084 -3.745,3.13943 -0.65413,0.50694 -1.29516,1.00966 -1.42451,1.11716 -0.12935,0.1075 -0.57914,0.44975 -0.99954,0.76055 -0.42039,0.3108 -0.84372,0.62828 -0.94074,0.70552 -0.47549,0.37858 -2.12466,1.58598 -3.77749,2.7656 -1.57391,1.12329 -3.57261,2.25493 -3.98267,2.25493 -0.0669,0 -0.21362,0.0467 -0.32592,0.10387 -0.11231,0.0571 -0.33649,0.15626 -0.49818,0.22029 -0.89959,0.35624 -1.41344,0.70143 -1.94027,1.30341 -1.65768,1.89415 -4.1007,3.58625 -6.20169,4.29546 -1.92059,0.64831 -4.09877,0.71478 -5.67517,0.17319 -0.86944,-0.29871 -2.71468,-1.29597 -2.99861,-1.62061 -0.0323,-0.037 -0.27046,-0.22352 -0.52916,-0.41454 -0.60765,-0.44868 -3.08087,-2.92137 -3.53257,-3.53181 -0.1914,-0.25865 -0.44336,-0.57586 -0.55992,-0.70492 -0.11656,-0.12905 -0.72069,-0.97576 -1.34251,-1.88157 -1.70529,-2.48411 -1.9978,-2.85077 -3.18999,-3.99879 -0.60449,-0.58208 -1.47537,-1.50812 -1.9353,-2.05787 -0.45993,-0.54974 -0.86748,-1.02599 -0.90568,-1.05833 -0.0382,-0.0323 -0.19663,-0.244 -0.35209,-0.47037 -0.15546,-0.22637 -0.31515,-0.43803 -0.35487,-0.47037 -0.11824,-0.0962 -0.82105,-1.15317 -0.82105,-1.23472 0,-0.0414 -0.14992,-0.29642 -0.33314,-0.56678 -0.52176,-0.76987 -1.68033,-3.24093 -2.54609,-5.43044 -0.43475,-1.0995 -0.84499,-2.13137 -0.91163,-2.29306 -0.0666,-0.16169 -0.17318,-0.42627 -0.23675,-0.58796 -0.0636,-0.16169 -0.16232,-0.38587 -0.21945,-0.49818 -0.0571,-0.1123 -0.10387,-0.30762 -0.10387,-0.43403 0,-0.12641 -0.0529,-0.26254 -0.11759,-0.30252 -0.0647,-0.04 -0.1176,-0.19872 -0.1176,-0.35277 0,-0.15406 -0.0468,-0.30904 -0.10403,-0.3444 -0.0572,-0.0354 -0.13224,-0.21047 -0.16671,-0.38912 -0.0345,-0.17865 -0.12347,-0.53648 -0.19777,-0.79519 -0.1651,-0.57488 -0.30073,-1.10867 -0.47804,-1.88148 -0.49999,-2.17922 -0.61309,-2.8611 -1.16619,-7.03096 -0.0668,-0.50388 -0.12151,-1.2844 -0.12151,-1.73449 0,-0.6502 -0.0364,-0.81834 -0.17697,-0.81834 -0.0973,0 -0.82493,0.1786 -1.6169,0.39689 -0.79196,0.21829 -1.70451,0.45976 -2.02789,0.53659 -1.46949,0.34914 -2.00757,0.48859 -3.2338,0.83808 -0.48507,0.13825 -0.98778,0.29288 -1.11713,0.34362 -0.12935,0.0507 -0.47331,0.16042 -0.76435,0.24371 -0.291042,0.0833 -0.579442,0.19516 -0.640882,0.24859 -0.0614,0.0534 -0.20768,0.0971 -0.32498,0.0971 -0.11729,0 -0.30515,0.0467 -0.41745,0.10387 -0.11231,0.0571 -0.33648,0.15588 -0.49817,0.21945 -0.42501,0.16709 -0.81061,0.32785 -1.41111,0.58831 -0.29105,0.12623 -0.7673,0.32849 -1.05834,0.44948 -0.67377,0.28008 -5.17896,2.53981 -5.87963,2.94913 -0.29104,0.17002 -0.68791,0.40026 -0.88194,0.51165 -0.19403,0.11138 -0.63095,0.37661 -0.97094,0.5894 l -0.61816,0.38689 -0.5549,-0.28266 c -0.54179,-0.27598 -2.69224,-2.34656 -5.97393,-5.75207 -0.77834,-0.8077 -1.77856,-1.78425 -2.22271,-2.1701 -0.96418,-0.83763 -1.27118,-1.42293 -1.21893,-2.32394 0.0302,-0.52106 0.0817,-0.63802 0.34632,-0.78597 0.27018,-0.15109 0.37783,-0.15218 0.82315,-0.008 0.28178,0.091 0.75045,0.30234 1.04149,0.46971 0.29104,0.16736 0.71437,0.37319 0.94074,0.45739 0.22636,0.0842 0.51741,0.19689 0.64676,0.25044 0.23897,0.0989 1.56655,0.5698 2.52824,0.89673 0.86246,0.2932 3.64192,1.29336 4.5006,1.6195 0.99008,0.37604 1.23957,0.37712 1.96699,0.009 0.31908,-0.16169 0.66528,-0.29398 0.76932,-0.29398 0.2935,0 3.80618,-2.14078 4.05198,-2.46945 0.25521,-0.34125 5.475292,-3.53378 7.114352,-4.35104 0.19403,-0.0967 0.37923,-0.20244 0.41157,-0.23488 0.0323,-0.0324 0.34984,-0.21103 0.70556,-0.39686 0.35572,-0.18584 0.88488,-0.47136 1.17592,-0.63449 0.29105,-0.16313 1.29646,-0.69351 2.23426,-1.17863 0.9378,-0.48511 1.7506,-0.92244 1.80622,-0.97183 0.0556,-0.0494 -0.0518,-0.31946 -0.23878,-0.60015 -0.18695,-0.2807 -0.41061,-0.66911 -0.49702,-0.86313 -0.0864,-0.19403 -0.20386,-0.44467 -0.26099,-0.55697 -0.20882,-0.41049 -0.1192,-1.68515 0.15454,-2.19798 0.23418,-0.43873 1.15219,-1.41959 1.32863,-1.41959 0.19443,0 1.61798,-1.06105 2.31148,-1.72287 1.0414,-0.99382 1.3723,-1.01254 2.01769,-0.11418 l 0.15864,0.22082 0.30902,-0.52731 c 0.61675,-1.0524 1.14205,-2.66534 1.14205,-3.50664 0,-0.40942 -0.0329,-0.46463 -0.27659,-0.46463 -0.65451,0 -1.46147,-0.91264 -1.75129,-1.98064 -0.11025,-0.40629 -0.2504,-2.75821 -0.39401,-6.61222 -0.10153,-2.72489 0.32492,-4.02655 1.75854,-5.36764 0.7576,-0.70869 2.17112,-1.51682 3.1328,-1.79104 0.29104,-0.083 0.68258,-0.19764 0.87009,-0.25477 0.18751,-0.0571 1.00772,-0.10307 1.82269,-0.10207 2.23533,0.003 3.7316,0.43123 6.53824,1.87243 2.0756,1.06582 2.01786,1.02872 2.88102,1.85105 l 0.76435,0.72819 1.02722,-0.98647 c 2.16651,-2.08057 3.85769,-2.87905 6.09788,-2.87905 2.41288,0 4.09278,0.72257 6.38251,2.74528 0.40707,0.35959 0.85191,0.74891 0.98853,0.86515 0.60983,0.51883 1.86224,2.29349 2.34831,3.32754 0.28881,0.61442 0.57248,1.20901 0.63038,1.32132 0.0579,0.1123 0.10526,0.30762 0.10526,0.43403 0,0.12641 0.0529,0.26254 0.11759,0.30252 0.0647,0.04 0.1176,0.22518 0.1176,0.41157 0,0.18639 0.0473,0.36815 0.10517,0.4039 0.0578,0.0358 0.13514,0.26377 0.17178,0.50671 0.0366,0.24294 0.12228,0.75921 0.19031,1.14726 0.23853,1.36071 0.34253,3.07833 0.32752,5.40926 -0.008,1.29352 -0.0321,2.06081 -0.0528,1.70509 -0.0207,-0.35571 -0.0961,-1.28176 -0.16757,-2.05787 -0.0715,-0.77611 -0.17433,-1.94028 -0.22859,-2.58703 -0.15753,-1.87751 -0.41752,-3.29405 -0.84172,-4.58612 -0.3656,-1.11356 -1.26842,-2.95654 -1.58179,-3.22902 -0.14613,-0.12706 -0.39422,-0.48438 -0.5513,-0.79405 -0.375,-0.73924 -1.29763,-1.69489 -2.54588,-2.63697 -0.22594,-0.17053 -0.54309,-0.42723 -0.70478,-0.57046 -0.96177,-0.85194 -3.15128,-1.53014 -4.93994,-1.53014 -2.18388,0 -3.58314,0.69104 -5.84889,2.88857 -0.40439,0.39221 -0.73525,0.7653 -0.73525,0.8291 0,0.22282 0.29503,0.74902 0.42048,0.74993 0.0696,5e-4 0.25478,-0.13883 0.41157,-0.30964 0.39541,-0.43073 1.2809,-0.98296 1.57615,-0.98296 0.14392,0 0.58444,-0.32889 1.06471,-0.79491 1.20773,-1.17188 2.91269,-1.93146 3.71084,-1.65322 0.61491,0.21436 0.42416,0.44905 -0.36497,0.44905 -0.38894,0 -0.79904,0.0468 -0.91135,0.10388 -0.1123,0.0571 -0.36294,0.17457 -0.55697,0.26098 -0.61232,0.27271 -1.39139,0.8397 -1.97708,1.43888 -0.91148,0.93247 -0.93917,0.99865 -0.77859,1.86069 0.18422,0.98895 0.45172,1.67486 0.80581,2.06623 0.10339,0.11427 0.47858,0.54994 0.83374,0.96816 0.35517,0.41821 0.74174,0.868 0.85905,0.99953 0.29255,0.328 0.84676,1.53735 0.99878,2.17943 0.34931,1.4754 0.27224,2.85929 -0.21085,3.78612 l -0.23282,0.44667 0.23761,-0.14672 c 0.13068,-0.0807 0.37178,-0.4113 0.53577,-0.73468 0.16399,-0.32338 0.37814,-0.73683 0.4759,-0.91879 0.22287,-0.41481 0.38632,-1.51987 0.39459,-2.66779 l 0.006,-0.88194 0.22721,0.47037 c 0.40518,0.83882 0.26273,2.5673 -0.31218,3.78807 -0.11533,0.2449 -0.5682,0.98267 -1.00638,1.6395 -0.85697,1.28462 -1.38607,2.25782 -1.38607,2.54947 0,0.1 -0.0458,0.21006 -0.10173,0.24464 -0.0559,0.0346 -0.13256,0.26259 -0.17026,0.5067 -0.0377,0.24412 -0.10308,0.55971 -0.14531,0.70132 l -0.0768,0.25748 2.27552,0.0555 c 2.351,0.0573 3.22941,0.14249 3.34152,0.3239 0.0357,0.0578 0.19105,0.10517 0.3451,0.10517 0.15406,0 0.31281,0.0529 0.35278,0.11759 0.04,0.0647 0.14762,0.11759 0.23922,0.11759 0.13127,0 0.14162,-0.0655 0.0489,-0.30943 -0.31421,-0.82643 -0.38573,-1.56779 -0.40123,-4.15908 l -0.0165,-2.76343 -0.26249,-0.7384 c -0.14437,-0.40611 -0.3747,-0.93528 -0.51184,-1.17592 -0.32055,-0.56246 -0.69353,-1.31328 -0.8015,-1.61346 -0.25101,-0.69777 -0.35238,-1.11258 -0.35238,-1.44191 0,-0.37683 0.2021,-0.63495 0.28095,-0.35883 0.27209,0.9529 0.44791,1.39637 0.99363,2.5063 0.34979,0.71143 0.74633,1.58456 0.8812,1.94028 l 0.24521,0.64676 0.0252,2.70463 c 0.0274,2.94194 0.0571,3.26498 0.40645,4.41646 0.17881,0.5894 0.3128,0.81769 0.56863,0.96881 1.20106,0.70948 2.44338,2.31628 3.01886,3.90454 0.13677,0.37747 0.41237,-2.20958 0.36956,-3.46898 -0.0456,-1.34215 -0.3617,-2.14474 -1.1958,-3.03645 -0.5201,-0.55604 -0.67284,-0.9817 -0.41044,-1.14387 0.20863,-0.12894 1.28249,1.09255 1.6436,1.86956 0.51291,1.10366 0.61566,2.02181 0.39798,3.5564 -0.10006,0.70543 -0.20947,1.67947 -0.24314,2.16454 -0.0762,1.09802 -0.12996,1.29802 -0.28362,1.05504 -0.0747,-0.11815 -0.11004,0.0509 -0.11128,0.53246 -0.002,0.65972 -0.24504,2.22366 -0.41482,2.66605 -0.0415,0.10812 -0.0189,0.30231 0.0503,0.43153 0.12579,0.23503 0.288,1.19902 0.47508,2.82332 0.12153,1.05514 0.35653,1.40707 0.36113,0.54082 0.003,-0.50023 0.29699,-1.87148 0.71811,-3.34551 0.19879,-0.69583 0.37846,-1.45094 0.6925,-2.91042 0.0661,-0.30721 0.1677,-0.9819 0.22576,-1.49931 0.0581,-0.5174 0.14353,-1.16877 0.18993,-1.44747 0.0798,-0.47939 0.0411,-0.64492 -0.31441,-1.34375 -0.0571,-0.11231 -0.10553,-0.27106 -0.10756,-0.35278 -0.002,-0.0817 -0.16078,-0.46474 -0.35278,-0.85115 -0.3729,-0.75049 -0.44816,-1.23772 -0.19119,-1.23772 0.14052,0 0.5095,0.63909 0.79774,1.38172 0.0565,0.14552 0.15027,0.38364 0.20842,0.52916 0.0581,0.14552 0.17201,0.4498 0.25303,0.67616 0.45181,1.26239 1.65219,3.31992 1.83197,3.14014 0.0258,-0.0258 -0.0889,-0.29009 -0.25499,-0.58724 -0.55507,-0.99311 -0.86777,-2.27737 -1.06949,-4.39238 -0.0413,-0.43317 -0.0181,-0.80978 0.058,-0.94074 0.10838,-0.1865 0.12722,-0.15828 0.12899,0.19318 0.002,0.38623 0.22642,1.5794 0.49778,2.64584 0.24031,0.94436 0.74287,2.01001 1.15919,2.45796 l 0.42648,0.45889 0.68566,0.032 c 0.75058,0.035 0.93887,0.19116 0.81685,0.67731 -0.13725,0.54688 -1.2776,0.81409 -2.11286,0.4951 -0.60388,-0.23062 -1.14937,-0.83517 -1.68226,-1.86437 -0.41364,-0.79889 -0.45009,-0.75292 -0.61881,0.78044 -0.0581,0.52845 -0.16177,1.25185 -0.23028,1.60756 -0.0685,0.35572 -0.15391,0.84553 -0.18979,1.08847 -0.0359,0.24294 -0.11257,0.47096 -0.17041,0.50671 -0.0579,0.0358 -0.10517,0.21751 -0.10517,0.4039 0,0.18639 -0.0468,0.36783 -0.10404,0.40319 -0.0572,0.0354 -0.13191,0.21047 -0.16598,0.38912 -0.0341,0.17865 -0.146,0.69522 -0.24874,1.14792 -0.22114,0.97442 -0.24368,2.73432 -0.046,3.59077 0.11038,0.47819 0.23747,0.68774 0.58796,0.9694 0.24593,0.19763 0.44715,0.45318 0.44715,0.56789 0,0.11472 0.0529,0.24127 0.11759,0.28125 0.0647,0.04 0.11759,0.20184 0.11759,0.35971 0,0.87339 -1.46391,-0.53632 -2.17902,-2.09834 -0.25782,-0.56316 -0.34977,-1.04963 -0.6382,-3.37665 -0.0521,-0.4204 -0.14351,-0.88786 -0.20311,-1.0388 -0.0955,-0.24188 -0.14045,-0.17211 -0.37878,0.58796 -0.14873,0.47433 -0.3179,0.9543 -0.37593,1.0666 -0.058,0.11231 -0.10551,0.30762 -0.10551,0.43404 0,0.12641 -0.0529,0.26254 -0.1176,0.30251 -0.0647,0.04 -0.11759,0.19872 -0.11759,0.35278 0,0.15406 -0.0471,0.30919 -0.1046,0.34475 -0.11073,0.0684 -0.17862,0.39923 -0.37814,1.84246 -0.12427,0.89891 -0.049,1.87604 0.24834,3.22205 0.0714,0.32338 0.15923,0.76043 0.19512,0.97123 0.0359,0.21079 0.11234,0.41235 0.16987,0.44791 0.0575,0.0356 0.1046,0.15637 0.1046,0.26848 0,0.11211 0.50612,0.83659 1.12471,1.60996 1.17454,1.4684 2.75584,3.71534 2.75584,3.91588 0,0.0641 0.0416,0.13412 0.0925,0.15567 0.24447,0.10358 1.31859,2.7454 1.31859,3.24309 0,0.15426 0.0719,0.26509 0.17204,0.26509 0.16069,0 0.95502,-0.28846 1.76824,-0.64214 0.19403,-0.0844 0.53799,-0.21789 0.76435,-0.29668 0.22637,-0.0788 0.54387,-0.1979 0.70556,-0.2647 0.16169,-0.0668 0.39981,-0.16492 0.52916,-0.21805 0.12936,-0.0531 0.76436,-0.26446 1.41111,-0.46964 0.64676,-0.20518 1.28176,-0.41319 1.41112,-0.46224 0.12935,-0.049 0.47331,-0.15427 0.76435,-0.23382 0.29104,-0.0795 0.66146,-0.18527 0.82315,-0.23495 0.51581,-0.15846 1.20735,-0.33532 2.23425,-0.57138 3.62346,-0.83293 4.64171,-0.99139 5.99723,-0.93326 1.35926,0.0583 1.96463,0.29966 2.70767,1.07963 1.38072,1.44932 2.25379,2.29014 2.8538,2.74839 0.36058,0.27538 1.21313,1.18411 1.89455,2.01939 0.68141,0.83529 1.33768,1.58894 1.45837,1.67477 0.97629,0.69438 4.18398,3.8191 6.25631,6.0945 2.93562,3.22326 4.46301,4.54687 6.49608,5.62938 l 0.9117,0.48543 h 2.94633 c 1.62048,0 3.45917,-0.0543 4.08598,-0.12072 2.78006,-0.2945 4.37346,-0.55341 4.37346,-0.71066 0,-0.0515 0.24084,-0.32778 0.53521,-0.61389 1.13002,-1.09832 2.27367,-0.92082 2.28327,0.35438 0.0134,1.77719 -2.39509,3.48593 -10.21426,7.24671 l -0.5166,0.24848 0.39901,0.0967 c 0.21946,0.0532 0.61068,0.14967 0.86938,0.21446 0.25871,0.0648 0.68204,0.161 0.94075,0.21379 0.2587,0.0528 0.86724,0.18049 1.35231,0.28377 1.33345,0.28391 4.2762,0.78331 4.61573,0.78331 0.16489,0 0.58287,-0.13178 0.92884,-0.29283 0.81373,-0.37881 1.39657,-0.38235 1.82781,-0.0111 0.29055,0.25014 0.3277,0.35849 0.31124,0.90778 -0.0103,0.34305 -0.0764,0.64297 -0.147,0.66649 -0.0706,0.0235 -0.12829,0.10699 -0.12829,0.18549 0,0.16183 -0.70529,0.85667 -1.23472,1.21643 -0.85093,0.57822 -2.88922,0.96271 -5.13889,0.96937 -1.22123,0.004 -2.0026,0.10357 -2.975,0.38057 -0.45018,0.12823 -2.7092,1.19067 -3.82176,1.7974 -0.75794,0.41334 -0.97571,0.37798 -1.62187,-0.26336 z m 1.97465,-0.73653 c 3.12265,-1.71058 3.57413,-1.84523 6.70278,-1.99894 3.23588,-0.15899 4.27302,-0.40943 5.06202,-1.22233 0.25566,-0.2634 0.46483,-0.52895 0.46483,-0.59013 0,-0.0612 0.11036,-0.22869 0.24524,-0.37227 l 0.24524,-0.26104 -0.25685,-0.0815 c -0.38541,-0.12233 -1.23694,0.041 -1.56682,0.30044 -0.16942,0.13326 -0.47323,0.22922 -0.72575,0.22922 -0.44364,0 -5.02656,-0.80453 -6.40773,-1.12487 -1.21859,-0.28263 -3.14203,-0.81455 -3.58657,-0.99186 -0.12935,-0.0516 -0.42039,-0.15739 -0.64676,-0.23513 -0.66783,-0.22932 -0.85489,-0.30604 -1.39283,-0.57126 -0.28098,-0.13854 -0.58025,-0.25188 -0.66504,-0.25188 -0.1526,0 -1.12137,-0.46741 -1.23472,-0.59573 -0.0323,-0.0366 -0.32338,-0.24607 -0.64676,-0.46548 -0.92965,-0.63076 -3.6917,-3.4455 -5.30517,-5.40639 -0.18626,-0.22636 -0.52401,-0.61737 -0.75054,-0.86891 -0.22654,-0.25154 -0.4648,-0.51613 -0.52948,-0.58797 -0.0647,-0.0718 -0.40812,-0.47457 -0.76322,-0.89497 -1.55412,-1.83989 -2.61329,-2.89584 -4.71719,-4.70281 -0.4136,-0.35522 -1.32519,-1.20189 -2.02577,-1.88148 -0.70056,-0.67959 -1.3706,-1.27188 -1.48895,-1.31619 -0.11836,-0.0443 -0.25315,-0.20017 -0.29954,-0.34633 -0.15264,-0.48092 -0.79797,-1.44415 -1.38025,-2.06015 -1.64285,-1.73802 -3.81335,-1.98013 -7.55192,-0.84238 -0.45273,0.13778 -0.87342,0.29504 -0.93486,0.34946 -0.0614,0.0544 -0.18108,0.099 -0.26586,0.099 -0.0848,0 -0.40493,0.1111 -0.71144,0.2469 -0.30651,0.1358 -0.66312,0.28785 -0.79247,0.33788 -0.12935,0.05 -0.47331,0.19801 -0.76435,0.32883 -0.29104,0.13081 -0.7276,0.32273 -0.97014,0.42647 -1.0163,0.43471 -1.28399,0.55016 -1.66068,0.71618 -0.75563,0.33304 -4.9556,1.9705 -5.32438,2.07584 -0.20376,0.0582 -0.40054,0.18417 -0.43728,0.27992 -0.0397,0.10358 -0.21934,0.17409 -0.44341,0.17409 -0.20714,0 -0.47406,0.0882 -0.59317,0.19598 -0.1191,0.10779 -0.3606,0.21134 -0.53667,0.23011 -0.17607,0.0188 -0.43997,0.0893 -0.58645,0.1568 -0.14649,0.0675 -0.3854,0.16888 -0.53092,0.22536 -0.14552,0.0565 -0.50271,0.21052 -0.79375,0.34231 -0.29104,0.13178 -0.86777,0.38984 -1.28162,0.57346 -2.18836,0.97093 -6.34588,3.20778 -6.45989,3.47558 -0.0216,0.0506 -0.10094,0.0922 -0.17639,0.0923 -0.0755,1.5e-4 -0.3224,0.15878 -0.54877,0.3525 -0.53514,0.45798 -0.82315,0.46401 -0.82315,0.0173 0,-0.28507 0.12448,-0.4183 0.82766,-0.88588 0.45521,-0.3027 0.8009,-0.59366 0.76819,-0.64657 -0.0327,-0.0529 -0.31254,-0.19051 -0.62187,-0.30576 -0.75212,-0.28022 -2.07544,-0.9395 -2.47444,-1.23278 -0.26564,-0.19526 -0.3945,-0.21766 -0.7338,-0.1276 -0.22636,0.0601 -0.80844,0.16958 -1.29351,0.24331 -0.48507,0.0737 -1.09361,0.17888 -1.35232,0.23365 -0.2587,0.0548 -1.27735,0.16594 -2.26366,0.24705 -2.93287,0.24117 -6.65335,-0.17664 -8.43726,-0.9475 -0.78693,-0.34005 -1.44722,-0.49918 -2.40272,-0.57906 l -0.87401,-0.0731 -0.095,-0.35278 c -0.0522,-0.19403 -0.15447,-0.77611 -0.22715,-1.29352 -0.0727,-0.51741 -0.17903,-1.23178 -0.23635,-1.5875 -0.0573,-0.35572 -0.15869,-1.01717 -0.22529,-1.46991 -0.0666,-0.45273 -0.16869,-1.14064 -0.22688,-1.5287 -0.16197,-1.08016 -0.3643,-2.50417 -0.47616,-3.35139 -0.0555,-0.42039 -0.16111,-1.21414 -0.23468,-1.76389 -0.45032,-3.36518 -0.88506,-7.24268 -1.17304,-10.4625 -0.17036,-1.90468 -0.1065,-1.81395 -0.97694,-1.38804 -0.78352,0.38339 -0.83473,0.40479 -1.90639,0.79684 -0.38806,0.14196 -0.81139,0.30315 -0.94074,0.3582 -0.12936,0.0551 -0.59238,0.2187 -1.02894,0.36366 -0.52789,0.17528 -0.7938,0.32501 -0.7939,0.44701 -8e-5,0.10089 0.0546,0.63324 0.12141,1.18298 0.0669,0.54975 0.17592,1.44933 0.24235,1.99908 0.0664,0.54974 0.17055,1.3038 0.23137,1.67569 0.20928,1.27969 0.3617,2.14712 0.45975,2.61644 0.054,0.2587 0.15855,0.76141 0.23224,1.11713 0.1556,0.75119 0.32043,1.40853 0.70767,2.82222 0.0797,0.29104 0.19271,0.62105 0.25108,0.73336 0.0584,0.1123 0.10613,0.30762 0.10613,0.43403 0,0.12641 0.0529,0.26254 0.11759,0.30251 0.0647,0.04 0.1176,0.17611 0.1176,0.30252 0,0.12641 0.049,0.32173 0.10897,0.43403 0.0599,0.11231 0.30218,0.7069 0.53833,1.32132 2.04778,5.32797 4.00617,8.97709 5.76922,10.74999 0.19828,0.19938 0.53323,0.58713 0.74433,0.86165 0.21111,0.27452 0.97709,1.09473 1.70218,1.82268 0.93173,0.93541 1.6065,1.75462 2.30092,2.79346 0.85866,1.28455 1.8246,2.64298 2.00679,2.82222 0.0329,0.0323 0.21478,0.27047 0.40425,0.52917 0.53792,0.7345 3.09879,3.24088 3.9463,3.86235 0.4204,0.30826 0.84373,0.62502 0.94074,0.70391 0.26175,0.21283 1.72347,0.9018 1.91327,0.9018 0.0903,0 0.20307,0.0389 0.25056,0.0864 0.32062,0.32061 2.89926,0.49127 3.92831,0.25997 0.79328,-0.1783 1.45264,-0.35741 1.75717,-0.47733 0.87573,-0.34485 1.48125,-0.61438 1.5581,-0.69355 0.0323,-0.0333 0.30838,-0.18633 0.61343,-0.34003 0.99926,-0.5035 3.47006,-2.64175 4.05708,-3.51104 0.0987,-0.14624 0.37152,-0.34912 0.60614,-0.45085 0.23463,-0.10174 0.51848,-0.23344 0.63078,-0.29268 0.11231,-0.0592 0.30762,-0.10771 0.43404,-0.10771 0.12641,0 0.26254,-0.0529 0.30251,-0.11759 0.04,-0.0647 0.17611,-0.11759 0.30252,-0.11759 0.12641,0 0.32173,-0.0463 0.43403,-0.10281 1.27377,-0.64133 1.7031,-0.91051 3.67317,-2.303 0.4204,-0.29714 1.08186,-0.75977 1.46991,-1.02807 0.38806,-0.2683 0.73202,-0.5208 0.76435,-0.56111 0.0323,-0.0403 0.24401,-0.20227 0.47037,-0.35993 0.22637,-0.15765 0.49095,-0.35008 0.58797,-0.42763 0.097,-0.0775 0.44097,-0.33806 0.76435,-0.57893 1.30372,-0.97106 2.949,-2.23093 3.09698,-2.37149 0.0865,-0.0821 0.35103,-0.29371 0.58797,-0.47022 0.23693,-0.17652 0.45725,-0.35056 0.48959,-0.38677 0.0323,-0.0362 0.50838,-0.4264 1.05787,-0.86709 0.5495,-0.4407 1.36971,-1.13273 1.82269,-1.53785 0.45298,-0.40512 1.00881,-0.88751 1.23518,-1.07196 0.22636,-0.18446 0.43803,-0.36666 0.47037,-0.40489 0.2229,-0.26353 1.57622,-1.05832 1.7128,-1.00591 0.29243,0.11221 0.1838,0.5159 -0.2135,0.79338 -0.54837,0.38301 -0.56762,0.44615 -0.29767,0.97644 0.65144,1.27968 1.82305,2.84346 3.2079,4.28168 1.74858,1.81594 1.92188,1.92286 7.82009,4.82436 3.27465,1.61089 4.26654,2.13266 4.33132,2.27842 0.0216,0.0485 0.0897,0.0882 0.15151,0.0882 0.15493,0 2.14908,1.34219 2.8667,1.92948 0.6771,0.55411 1.39047,1.27035 2.24863,2.25765 0.33128,0.38113 0.80753,0.90645 1.05833,1.16738 0.2508,0.26092 0.87823,0.9418 1.39429,1.51306 1.26555,1.40092 1.54648,1.49554 2.64829,0.89197 z m 1.14812,-6.93304 c 0.11231,-0.0628 0.68045,-0.33134 1.26253,-0.59667 1.36154,-0.62065 3.87907,-1.88883 4.91559,-2.47619 0.44479,-0.25205 0.85689,-0.45827 0.91577,-0.45827 0.0589,0 0.10706,-0.0467 0.10706,-0.10387 0,-0.0571 0.0926,-0.13325 0.20579,-0.16914 0.27512,-0.0872 0.90147,-0.46913 0.95054,-0.57953 0.0216,-0.0485 0.10575,-0.0882 0.18708,-0.0882 0.0813,0 0.39276,-0.22489 0.69206,-0.49976 0.29929,-0.27488 0.77073,-0.69102 1.04764,-0.92478 0.27691,-0.23375 0.56521,-0.59143 0.64066,-0.79485 0.12126,-0.32689 0.11034,-0.38423 -0.094,-0.49356 -0.3817,-0.20428 -0.97949,0.0796 -1.58168,0.75113 -0.58009,0.64689 -0.65611,0.67806 -2.22452,0.91201 -1.95215,0.29119 -3.25279,0.37501 -6.4088,0.41301 -2.25699,0.0272 -3.44739,-0.002 -3.64537,-0.0885 -0.71462,-0.31313 -1.30187,-0.65255 -2.23426,-1.29134 -1.67754,-1.14931 -2.71366,-2.13908 -5.88088,-5.61784 -1.41705,-1.55643 -2.07867,-2.2179 -3.24072,-3.23991 -1.64482,-1.44661 -3.10369,-2.91334 -4.02918,-4.05089 -0.49584,-0.60946 -1.32487,-1.45558 -1.84227,-1.88025 -0.5174,-0.42468 -1.44344,-1.28035 -2.05787,-1.90149 -0.91553,-0.92556 -1.23994,-1.17512 -1.79769,-1.38294 -1.16276,-0.43326 -2.97473,-0.29935 -6.1986,0.45809 -0.29104,0.0684 -0.74084,0.17145 -0.99954,0.22906 -0.66891,0.14894 -1.33697,0.31608 -1.88148,0.47073 -0.2587,0.0735 -0.60266,0.16036 -0.76435,0.19307 -0.16169,0.0327 -0.39982,0.10165 -0.52917,0.1532 -0.12935,0.0515 -0.76435,0.26194 -1.41111,0.46753 -1.41217,0.4489 -1.84193,0.60607 -4.07556,1.49054 l -1.72372,0.68254 -0.006,1.53439 c -0.003,0.84391 -0.0602,1.71609 -0.12636,1.93817 -0.0661,0.22208 -0.0962,0.42786 -0.0668,0.45728 0.0425,0.0425 2.41134,-0.83121 3.79364,-1.39912 0.14552,-0.0598 0.4101,-0.1687 0.58796,-0.24203 0.17786,-0.0733 0.44244,-0.17916 0.58796,-0.23518 0.14553,-0.056 0.39688,-0.15478 0.55857,-0.21946 0.16169,-0.0647 0.41304,-0.16496 0.55856,-0.22286 0.14553,-0.0579 0.55563,-0.23811 0.91135,-0.40047 1.38425,-0.63182 1.83893,-0.82491 3.10198,-1.31728 2.30974,-0.90042 3.43808,-1.15217 5.18829,-1.15761 l 1.52871,-0.005 0.88194,0.41649 c 1.02212,0.48269 1.93645,1.36868 2.62039,2.53918 0.44623,0.76368 1.59193,1.95069 4.73893,4.90981 2.27918,2.14311 3.70527,3.56935 4.57729,4.57777 1.13075,1.30764 1.40833,1.63036 1.77229,2.06054 1.02232,1.20836 2.40021,2.72771 2.97852,3.28432 1.63299,1.57171 3.3076,2.83617 3.75612,2.83617 0.12679,0 0.46042,0.11335 0.7414,0.25188 0.28099,0.13854 0.64318,0.30346 0.80487,0.3665 0.16169,0.063 0.38587,0.16136 0.49817,0.21849 0.11231,0.0571 0.30762,0.10387 0.43403,0.10387 0.12642,0 0.26255,0.0529 0.30252,0.11759 0.0929,0.15029 0.70533,0.1524 0.97173,0.003 z m -51.58239,-12.01418 c 0.38094,-0.20303 0.69261,-0.40315 0.69261,-0.44469 0,-0.0815 -0.62702,-0.26206 -1.62586,-0.46807 -0.72264,-0.14905 -2.43801,-0.15847 -2.78386,-0.0153 -0.19555,0.081 -0.0767,0.16956 0.70556,0.52582 0.51741,0.23565 1.09949,0.50224 1.29352,0.59241 0.55007,0.25563 0.96851,0.20932 1.71803,-0.19018 z m -9.18516,-0.91568 c 0.74634,-0.10221 1.75346,-0.26484 3.0574,-0.49371 0.84957,-0.14912 1.96138,-0.29398 3.08544,-0.402 1.37876,-0.13249 3.37294,0.21967 4.48152,0.79143 0.16366,0.0844 0.42535,0.0117 1.05834,-0.294 0.4625,-0.22338 1.15841,-0.55014 1.54646,-0.72614 0.38806,-0.17601 0.81326,-0.37024 0.94489,-0.43163 0.15594,-0.0727 0.23788,-0.22208 0.23518,-0.42865 l -0.004,-0.31703 0.66896,-5e-4 c 0.5824,-4.3e-4 0.71659,-0.0461 1.0371,-0.35278 0.20248,-0.19375 0.4483,-0.53748 0.54625,-0.76385 0.098,-0.22636 0.22658,-0.50346 0.28582,-0.61576 0.0592,-0.11231 0.1077,-0.30762 0.1077,-0.43404 0,-0.12641 0.0529,-0.26254 0.1176,-0.30251 0.14593,-0.0902 0.15656,-0.64676 0.0123,-0.64676 -0.16512,0 -0.61229,0.50783 -0.89035,1.01114 -0.18502,0.3349 -0.4547,0.56619 -0.99878,0.85664 l -0.74531,0.39787 -0.79898,-0.26193 c -0.5816,-0.19067 -1.0064,-0.25127 -1.56141,-0.22272 -0.41933,0.0216 -0.7991,0.003 -0.84391,-0.0423 -0.18654,-0.18654 0.10761,-0.69743 0.85632,-1.48731 0.4376,-0.46166 0.85792,-0.83938 0.93404,-0.83938 0.14766,0 0.62585,-0.55121 0.62585,-0.72142 0,-0.30597 -1.2234,0.12688 -2.67559,0.94666 -0.81333,0.45914 -2.33095,1.4905 -2.51,1.70578 -0.15128,0.18189 -0.38784,0.23642 -1.21377,0.27977 -1.28574,0.0675 -2.66546,-0.14327 -5.2717,-0.80527 -0.24254,-0.0616 -0.63941,-0.16241 -0.88195,-0.22401 -0.24253,-0.0616 -0.59972,-0.14383 -0.79375,-0.18271 -0.19403,-0.0389 -0.5909,-0.12371 -0.88194,-0.1885 -0.29104,-0.0648 -0.71438,-0.14461 -0.94074,-0.17736 -0.22637,-0.0328 -0.51741,-0.1062 -0.64676,-0.16319 -0.12936,-0.057 -0.44686,-0.13155 -0.70556,-0.16568 -0.2587,-0.0341 -0.81433,-0.11634 -1.23472,-0.18268 -0.42039,-0.0663 -1.18769,-0.16699 -1.70509,-0.22364 -1.41014,-0.1544 -1.57051,-0.27858 -1.163,-0.90052 0.10413,-0.15892 0.16076,-0.36336 0.12586,-0.45432 -0.0349,-0.091 -0.0171,-1.00418 0.0395,-2.02938 0.0566,-1.0252 0.11788,-2.52546 0.13611,-3.3339 l 0.0332,-1.46991 -0.47901,-0.99954 c -0.26345,-0.54974 -0.94272,-2.1637 -1.5095,-3.58657 -0.56677,-1.42287 -1.13727,-2.82516 -1.26777,-3.11621 -0.1305,-0.29104 -0.2781,-0.635 -0.32798,-0.76435 -0.085,-0.22036 -0.18654,-0.46141 -0.65639,-1.5581 -0.10391,-0.24253 -0.35164,-0.77503 -0.55051,-1.18332 -0.41512,-0.85224 -0.38073,-0.84734 -1.70492,-0.24309 -2.39652,1.09358 -2.92306,1.41568 -2.75503,1.68538 0.0422,0.0678 0.11706,0.65237 0.16631,1.29913 0.26772,3.51518 1.05553,10.09709 1.84384,15.40463 0.0672,0.45273 0.17684,1.19357 0.24355,1.6463 0.0667,0.45273 0.17282,1.14065 0.23578,1.5287 0.063,0.38806 0.17045,1.07597 0.23886,1.5287 0.19067,1.26196 0.17246,1.23473 0.82573,1.23473 0.31521,0 0.6058,0.0529 0.64578,0.11759 0.04,0.0647 0.1761,0.11759 0.30251,0.11759 0.12642,0 0.33496,0.0529 0.46343,0.11759 0.12848,0.0647 0.33871,0.17051 0.46718,0.23519 0.12848,0.0647 0.33702,0.11759 0.46343,0.11759 0.12642,0 0.25894,0.0471 0.29449,0.1046 0.0356,0.0575 0.23712,0.1347 0.44791,0.17149 0.2108,0.0368 0.67431,0.12068 1.03003,0.18641 0.35572,0.0657 1.17592,0.17648 1.82268,0.2461 0.64676,0.0696 1.22885,0.14973 1.29352,0.17801 0.18459,0.0807 4.14769,-0.056 4.99769,-0.17238 z m 17.3743,-3.14924 c 0.0808,-0.17408 0.14699,-0.40121 0.14699,-0.50473 0,-0.10352 0.0579,-0.2461 0.12862,-0.31684 0.0707,-0.0707 0.11043,-0.22183 0.0882,-0.33575 -0.0412,-0.21088 -0.18833,0.0245 -0.48146,0.77011 -0.0636,0.16169 -0.16277,0.38659 -0.22044,0.49977 -0.0727,0.1426 -0.0594,0.2055 0.0431,0.20487 0.0814,-5.1e-4 0.21414,-0.14335 0.29498,-0.31743 z m 1.1131,-0.87546 c 0.29567,-1.30788 0.19572,-4.10302 -0.16105,-4.50356 -0.0547,-0.0614 -0.0995,-0.20768 -0.0995,-0.32497 0,-0.11729 -0.0464,-0.30515 -0.1032,-0.41745 -0.0568,-0.11231 -0.33022,-0.68045 -0.60768,-1.26253 -0.68731,-1.44189 -2.47501,-4.0544 -3.88367,-5.67551 -0.40411,-0.46506 -0.48048,-0.65464 -0.65065,-1.61523 -0.0344,-0.19403 -0.10782,-0.45861 -0.16322,-0.58796 -0.0554,-0.12935 -0.12748,-0.36748 -0.16019,-0.52917 -0.0327,-0.16169 -0.12054,-0.50565 -0.19517,-0.76435 -0.33267,-1.15313 -0.3844,-2.6417 -0.12056,-3.46898 0.0516,-0.16169 0.31818,-1.00836 0.59247,-1.88148 0.27429,-0.87313 0.53796,-1.69334 0.58594,-1.82269 0.13024,-0.35115 0.26659,-0.83588 0.69847,-2.48309 0.2617,-0.99813 0.10804,-3.33925 -0.2457,-3.74344 -0.0538,-0.0614 -0.0978,-0.1842 -0.0978,-0.27279 0,-0.28703 -0.7173,-1.24421 -1.47955,-1.97433 -0.72792,-0.69724 -1.9896,-1.46292 -2.41058,-1.46292 -0.11645,0 -0.24098,-0.0473 -0.27673,-0.10517 -0.11372,-0.18401 -1.00492,-0.27161 -3.29846,-0.32421 -1.57134,-0.036 -2.30871,-0.0104 -2.48999,0.0866 -0.28041,0.15007 -2.25477,0.0829 -3.74422,-0.12743 -1.78958,-0.25267 -5.93071,-0.54435 -9.44033,-0.66492 -1.70405,-0.0585 -2.22796,0.054 -3.59287,0.77202 -1.17416,0.61764 -4.19412,2.59499 -4.19412,2.74613 0,0.0544 0.14552,0.28134 0.32338,0.50425 0.34648,0.43423 0.67897,0.50595 1.37337,0.29622 0.19861,-0.06 0.758,-0.22821 1.24307,-0.37382 0.48507,-0.14562 1.01423,-0.38379 1.17592,-0.52926 0.91744,-0.82544 2.59826,-1.20555 3.68837,-0.83411 0.63556,0.21656 1.42902,0.74401 2.08182,1.38388 0.25945,0.25431 0.54968,0.46238 0.64495,0.46238 0.0953,0 0.26512,0.0467 0.37743,0.10387 0.39667,0.20179 0.79623,0.34965 1.14493,0.4237 1.54152,0.32733 2.20099,0.41655 4.70371,0.63634 2.76441,0.24277 3.83011,0.45031 5.93842,1.15645 1.96299,0.65746 2.67459,1.07761 2.51769,1.48649 -0.10192,0.2656 -0.28446,0.24198 -1.13303,-0.1466 -0.67237,-0.30789 -2.52704,-0.93867 -3.27696,-1.1145 -0.32212,-0.0755 -0.38216,-0.004 -0.69156,0.82158 -0.1414,0.37738 -0.11081,2.1276 0.049,2.80628 0.1724,0.73195 0.59274,1.60769 1.07477,2.23918 0.34627,0.45364 0.6369,0.98765 0.6369,1.17026 0,0.0235 -0.0784,0.12119 -0.17431,0.21706 -0.15403,0.15403 -0.24163,0.14077 -0.75264,-0.11388 -1.11406,-0.55516 -1.99254,-1.79011 -2.37321,-3.33623 -0.19609,-0.79642 -0.19733,-2.81787 -0.002,-3.51334 0.0851,-0.30315 0.10115,-0.55801 0.0391,-0.62004 -0.0579,-0.0579 -0.83743,-0.15764 -1.73223,-0.22158 -1.3603,-0.0972 -1.66927,-0.0885 -1.88544,0.0531 -0.3716,0.24348 -0.76266,1.15178 -0.76266,1.7714 0,0.44906 0.057,0.57883 0.37478,0.85383 1.04274,0.90226 2.25911,2.20401 2.99507,3.2053 1.65104,2.24629 2.91474,3.94078 2.98168,3.99815 0.0377,0.0323 0.19579,0.24401 0.35125,0.47037 0.15546,0.22637 0.31421,0.43803 0.35278,0.47037 0.0386,0.0323 0.19732,0.24401 0.35278,0.47037 0.15546,0.22637 0.31421,0.43803 0.35278,0.47037 0.0386,0.0323 0.19732,0.24401 0.35277,0.47037 0.15546,0.22637 0.31196,0.43804 0.34778,0.47037 0.13401,0.12097 1.03015,1.36211 1.1613,1.60838 0.15198,0.28536 0.0631,0.65811 -0.14185,0.59508 -0.0729,-0.0224 -0.48688,-0.51413 -0.92,-1.0927 -0.43313,-0.57858 -0.83143,-1.10488 -0.88513,-1.16955 -0.0537,-0.0647 -0.22594,-0.3028 -0.38276,-0.52917 -0.15683,-0.22637 -0.31669,-0.43803 -0.35526,-0.47037 -0.0386,-0.0323 -0.19732,-0.244 -0.35278,-0.47037 -0.15546,-0.22637 -0.31398,-0.43803 -0.35226,-0.47037 -0.0383,-0.0323 -0.69829,-0.90546 -1.46667,-1.94028 -2.16507,-2.9158 -2.68273,-3.52881 -4.41893,-5.23287 -0.8896,-0.87312 -1.89404,-1.93146 -2.2321,-2.35185 -2.0002,-2.48735 -2.79892,-3.27246 -3.98797,-3.91998 -0.57974,-0.31572 -0.76665,-0.35636 -1.65318,-0.35952 -1.10614,-0.004 -1.61855,0.18431 -2.34253,0.8606 -0.21283,0.19882 -0.51055,0.36149 -0.66158,0.36149 -0.15103,0 -0.30354,0.0468 -0.3389,0.10404 -0.0354,0.0572 -0.21047,0.13334 -0.38912,0.16915 -0.17865,0.0358 -0.56294,0.12419 -0.85398,0.19638 -0.49398,0.12253 -0.72471,0.17535 -2.02847,0.46437 -0.92169,0.20432 -1.5547,0.35525 -2.02848,0.48365 -0.2587,0.0701 -0.59021,0.15657 -0.73669,0.19214 -0.14647,0.0356 -0.29512,0.11125 -0.33032,0.1682 -0.0352,0.057 -0.13868,0.10355 -0.22996,0.10355 -0.28077,0 -3.57789,1.57215 -5.34701,2.54959 -0.80152,0.44284 -1.58329,0.87029 -2.61643,1.4306 -1.76459,0.95698 -4.116712,2.31463 -4.754292,2.74419 -0.27036,0.18215 -0.54817,0.33118 -0.61736,0.33118 -0.0692,0 -0.12581,0.0529 -0.12581,0.11759 0,0.0647 -0.0694,0.11759 -0.15421,0.11759 -0.0848,0 -0.26782,0.10584 -0.40666,0.23519 -0.13884,0.12935 -0.29759,0.23518 -0.35278,0.23518 -0.0552,0 -0.20292,0.0947 -0.32829,0.21049 -0.97666,0.90179 -5.17043,3.43489 -5.68677,3.43489 -0.1268,0 -0.26326,0.0529 -0.30323,0.11759 -0.13187,0.21337 -0.9468,0.12257 -1.71422,-0.191 -0.70244,-0.28701 -1.99633,-0.75204 -5.9881,-2.15214 -1.6673,-0.5848 -2.33529,-0.86495 -2.82222,-1.18361 -0.41559,-0.27198 -1.24184,-0.51639 -1.46116,-0.43223 -0.52178,0.20023 0.008,1.01182 1.38199,2.11688 0.59549,0.47895 1.36784,1.20842 1.71635,1.62104 0.88954,1.05322 5.1355,5.22521 5.759,5.65868 0.42698,0.29685 0.55497,0.33592 0.73496,0.22434 0.11986,-0.0743 0.337,-0.20126 0.48252,-0.2821 0.14552,-0.0808 0.29104,-0.17345 0.32338,-0.20579 0.0323,-0.0323 0.18511,-0.12992 0.33949,-0.21684 0.15438,-0.0869 0.47188,-0.26693 0.70556,-0.4 1.49205,-0.8497 2.03514,-1.13542 3.77625,-1.98669 1.92874,-0.94301 2.75716,-1.33069 3.26319,-1.52711 0.3584,-0.1391 0.7868,-0.31077 1.17593,-0.4712 0.17785,-0.0733 0.45567,-0.18625 0.61736,-0.25092 0.16169,-0.0647 0.39981,-0.16141 0.52916,-0.21496 0.8706,-0.36042 3.222722,-1.05434 5.564602,-1.64166 1.50831,-0.37827 3.12227,-0.803 3.58658,-0.94385 1.2153,-0.36866 2.91726,-0.92532 3.22544,-1.05493 0.46398,-0.19514 0.78295,-0.31893 1.20533,-0.46775 0.81108,-0.28579 1.37558,-0.54149 3.64063,-1.64905 1.26379,-0.61796 2.483,-1.19215 2.70937,-1.27598 0.22636,-0.0838 0.5174,-0.19397 0.64676,-0.24474 0.56666,-0.22245 1.24472,-0.38528 1.66001,-0.39866 0.34971,-0.0113 0.4586,0.0337 0.49316,0.20382 0.0642,0.31591 -0.10357,0.43283 -0.93852,0.65412 -0.86198,0.22846 -0.86149,0.22621 -0.30991,1.42066 0.19413,0.42039 0.39543,0.87019 0.44734,0.99954 0.0519,0.12935 0.20549,0.48596 0.34129,0.79247 0.1358,0.3065 0.2469,0.58489 0.2469,0.61864 0,0.0337 0.0999,0.28568 0.22208,0.55985 0.12214,0.27416 0.44859,1.08057 0.72543,1.792 0.44888,1.15356 1.23285,3.02137 1.90022,4.52732 0.12898,0.29104 0.3138,0.71437 0.41072,0.94074 0.0969,0.22636 0.27182,0.62324 0.38869,0.88194 0.11686,0.2587 0.36271,0.81024 0.54633,1.22563 0.7835,1.77247 2.16951,4.39864 2.9028,5.50012 0.67681,1.01665 0.84444,1.1962 1.16848,1.25161 0.20807,0.0356 0.62966,0.12053 0.93687,0.1888 0.30722,0.0683 0.78347,0.17414 1.05834,0.23528 0.27487,0.0611 0.71143,0.16455 0.97014,0.22981 2.97383,0.75012 3.46521,0.84194 4.89281,0.91424 l 1.24743,0.0632 0.75164,-0.39461 c 0.4134,-0.21704 0.76927,-0.4343 0.79083,-0.48281 0.0216,-0.0485 0.10419,-0.0882 0.18362,-0.0882 0.0794,0 0.24699,-0.0954 0.37237,-0.21204 0.35549,-0.33064 1.94034,-1.36578 2.46222,-1.60818 0.25871,-0.12016 0.71323,-0.24193 1.01006,-0.27061 0.47944,-0.0463 0.56805,-0.0161 0.79375,0.27085 0.13974,0.17764 0.25406,0.42549 0.25406,0.55077 0,0.3676 -0.57419,1.24151 -0.98085,1.49284 -0.20651,0.12763 -0.50033,0.36496 -0.65293,0.5274 l -0.27747,0.29535 0.33827,0.0701 c 0.18604,0.0386 0.52961,0.12063 0.76348,0.18236 0.56576,0.14935 1.11996,0.14186 1.4346,-0.0194 0.14126,-0.0724 0.66255,-0.55259 1.15842,-1.06709 0.76663,-0.79545 0.95143,-0.92975 1.23472,-0.89731 0.28479,0.0326 0.33875,0.097 0.37173,0.44348 0.0212,0.22292 0.12111,0.46567 0.222,0.53944 0.14899,0.10895 0.17293,0.3155 0.12751,1.10009 -0.0489,0.84506 -0.0345,0.94457 0.11506,0.79499 0.094,-0.094 0.22299,-0.40106 0.28657,-0.68226 z m -20.8313,-25.72003 c -0.0691,-0.12903 -0.12555,-0.32007 -0.12555,-0.42455 0,-0.31253 0.34589,-0.88384 0.5351,-0.88384 0.49233,0 0.46249,1.43505 -0.0313,1.50645 -0.15816,0.0229 -0.29965,-0.0512 -0.37823,-0.19806 z m -0.36073,23.20402 c 0,-0.0354 -0.18743,-0.35744 -0.4165,-0.71553 -0.39382,-0.61564 -1.84434,-3.43347 -2.2922,-4.45289 -0.11366,-0.25871 -0.29295,-0.66656 -0.39842,-0.90635 -0.10547,-0.23979 -0.24327,-0.46781 -0.30621,-0.50671 -0.13021,-0.0805 -0.16133,4.28144 -0.0389,5.45275 l 0.0755,0.7228 h 0.35834 c 0.35713,0 1.41342,0.16655 2.19519,0.34612 0.52326,0.12019 0.82315,0.14198 0.82315,0.0598 z m 5.98348,-18.99831 c -0.58811,-1.19177 -0.74653,-1.8851 -0.74869,-3.27666 -10e-4,-0.76588 0.0624,-1.43189 0.16686,-1.74666 0.14664,-0.44204 0.14664,-0.52277 0,-0.61556 -0.39945,-0.25276 -0.54878,-0.12229 -0.74245,0.64872 -0.34479,1.37261 -0.20979,2.78836 0.39179,4.10893 0.23784,0.52209 1.04416,1.54081 1.14206,1.44291 0.0249,-0.0249 -0.0694,-0.27765 -0.20957,-0.56168 z m -6.45954,-4.86734 c 0.006,-0.19402 0.1102,-0.57157 0.23163,-0.83898 l 0.22079,-0.48621 -0.72314,-0.14133 c -0.39772,-0.0777 -1.01417,-0.20902 -1.36989,-0.29174 -0.35572,-0.0827 -0.66454,-0.10415 -0.68628,-0.0476 -0.0465,0.12095 0.71671,1.07888 1.55744,1.95474 0.63916,0.66587 0.74503,0.64539 0.76945,-0.14885 z m -18.09957,-1.58964 c 0.17576,-0.0941 0.20154,-0.17812 0.12022,-0.39199 -0.18399,-0.48394 0.0298,-0.61592 0.51356,-0.31697 0.23459,0.14498 0.51124,0.23109 0.61479,0.19136 0.14595,-0.056 0.0792,-0.15126 -0.29697,-0.42375 -0.47146,-0.34152 -0.62555,-0.71979 -0.36007,-0.88387 0.0688,-0.0426 0.41199,0.11308 0.76255,0.34584 0.35055,0.23275 0.6911,0.42319 0.75678,0.42319 0.0657,0 0.1194,0.0529 0.1194,0.11759 0,0.0647 0.0794,0.1176 0.17639,0.1176 0.50467,0 -0.23123,-0.86376 -0.99954,-1.1732 -0.45368,-0.18272 -0.58346,-0.31723 -0.58616,-0.60751 -0.005,-0.52174 0.88326,-0.25489 1.74484,0.52427 0.99532,0.9001 1.00078,0.90332 1.36615,0.80561 l 0.339,-0.0907 -0.74508,-0.523 c -0.4098,-0.28765 -0.78135,-0.60238 -0.82568,-0.69939 -0.0443,-0.097 -0.14173,-0.29474 -0.21646,-0.43938 -0.0747,-0.14464 -0.13587,-0.31883 -0.13587,-0.38709 0,-0.0683 -0.10788,-0.2399 -0.23974,-0.38143 -0.49065,-0.52665 -0.439,-0.74529 0.34323,-1.45318 0.60366,-0.54628 0.71966,-0.71368 0.71966,-1.03856 0,-0.21302 -0.0752,-0.44974 -0.16718,-0.52605 -0.22906,-0.1901 -0.54206,0.004 -1.31296,0.8155 -0.33805,0.35572 -1.09629,0.93593 -1.68498,1.28935 -1.31437,0.78908 -1.65618,1.23562 -1.65618,2.16361 0,0.70972 0.10982,1.02198 0.701,1.99319 0.41458,0.68107 0.55292,0.76107 0.9493,0.54893 z m 15.63581,-0.40943 c 0,-0.0323 -0.0265,-0.0588 -0.0588,-0.0588 -0.0323,0 -0.0588,0.0265 -0.0588,0.0588 0,0.0323 0.0265,0.0588 0.0588,0.0588 0.0323,0 0.0588,-0.0265 0.0588,-0.0588 z m -11.68723,-2.77757 c 0.69436,-0.55733 3.11145,-2.1574 3.54395,-2.34603 0.21019,-0.0917 0.38217,-0.20668 0.38217,-0.25557 0,-0.0489 0.0778,-0.0889 0.17281,-0.0889 0.095,0 0.36124,-0.10583 0.59154,-0.23518 0.2303,-0.12935 0.51983,-0.23519 0.6434,-0.23519 0.12357,0 0.25376,-0.0471 0.28931,-0.1046 0.0758,-0.12264 0.63105,-0.23071 1.76453,-0.34344 0.72548,-0.0721 0.79616,-0.10064 0.63873,-0.25751 -1.12898,-1.12495 -1.91978,-2.93216 -2.16116,-4.93889 -0.0514,-0.4274 -0.12951,-0.56688 -0.40612,-0.72528 -0.9949,-0.56973 -1.27441,-2.99085 -0.45325,-3.92609 0.4859,-0.55342 0.90237,-0.54752 1.36969,0.0194 0.22086,0.26795 0.37988,0.62577 0.43114,0.97014 0.22612,1.51923 0.99218,1.06026 2.81287,-1.68528 0.9467,-1.42759 1.39435,-1.87432 2.13739,-2.13296 0.5394,-0.18777 1.41371,-0.21419 1.51773,-0.0459 0.04,0.0647 0.20257,0.1176 0.36132,0.1176 0.15875,0 0.38052,0.0468 0.49282,0.10412 0.93499,0.47676 1.73134,0.83662 1.85138,0.83662 0.31851,0 1.23383,-1.79341 1.23383,-2.41747 0,-0.81015 -1.46267,-2.54615 -2.70865,-3.21482 -3.73864,-2.00637 -5.37591,-2.58316 -7.62504,-2.68622 -1.47325,-0.0675 -2.1951,0.0441 -3.42282,0.5294 -1.59811,0.63165 -2.87391,1.69522 -3.4423,2.86965 -0.43251,0.89367 -0.51181,1.19549 -0.67646,2.57474 -0.12592,1.05485 -0.11817,1.49234 0.0551,3.10907 0.11091,1.03481 0.24358,2.35773 0.29483,2.93981 0.18934,2.15066 0.48075,2.63202 1.6809,2.7765 l 0.77491,0.0933 0.5674,-0.28787 c 0.98948,-0.50202 2.50623,-0.32471 2.03893,0.23835 -0.10029,0.12085 -0.34854,0.1692 -0.80815,0.15741 -0.47453,-0.0122 -0.80432,0.0553 -1.15846,0.23714 -0.2723,0.13979 -0.57345,0.25417 -0.66922,0.25417 -0.25036,0 -0.32759,0.17633 -0.43187,0.98616 -0.26826,2.08304 -1.0709,3.77872 -2.53952,5.365 -0.33954,0.36675 -0.57504,0.71495 -0.52333,0.7738 0.0517,0.0588 0.16413,0.29219 0.24982,0.51855 0.16173,0.42723 0.44527,0.82315 0.5895,0.82315 0.0458,0 0.28891,-0.16511 0.54034,-0.36692 z m 0.61924,-14.42035 c -0.074,-0.18973 -0.10443,-0.80937 -0.0737,-1.4993 0.0447,-1.00535 0.10646,-1.29423 0.42545,-1.99145 0.52382,-1.14494 1.56379,-2.49263 1.80733,-2.34211 0.18289,0.11303 0.0686,0.35728 -0.56976,1.21735 -0.67264,0.9063 -0.95769,1.44045 -1.28815,2.41378 -0.18397,0.54188 -0.18108,0.98182 0.0137,2.08414 0.0934,0.5287 -0.12309,0.60956 -0.31487,0.11759 z m 12.4791,-2.4919 c 0,-0.19021 0.0529,-0.37854 0.1176,-0.41851 0.0647,-0.04 0.11759,-0.25982 0.11759,-0.48856 0,-0.45931 -0.30362,-0.96155 -0.91424,-1.51229 -0.27482,-0.24786 -0.36955,-0.41593 -0.31481,-0.55856 0.11193,-0.2917 0.20984,-0.25887 0.70656,0.23695 0.80813,0.80668 1.07052,1.80392 0.70488,2.67901 -0.20829,0.49851 -0.41758,0.52957 -0.41758,0.062 z m 6.58519,14.08605 c 0,-0.0746 0.20059,-0.30741 0.44576,-0.51726 0.66933,-0.57292 0.94789,-1.21344 1.16075,-2.66902 0.0686,-0.46929 -0.0752,-0.56269 -0.52038,-0.33781 -0.61658,0.3115 -1.28144,0.40828 -2.96761,0.43198 -1.00248,0.0141 -2.12655,0.0642 -2.49793,0.11146 l -0.67524,0.0858 -0.11719,0.43519 c -0.0644,0.23936 -0.25007,0.56004 -0.41249,0.71262 -0.16241,0.15258 -0.2953,0.38991 -0.2953,0.52739 0,0.33286 -0.2157,0.53139 -0.58208,0.53576 -0.24499,0.003 -0.26501,0.0239 -0.10941,0.11486 0.10476,0.0612 0.92496,0.16538 1.82269,0.2315 2.19283,0.1615 3.43942,0.30094 3.53375,0.39526 0.13859,0.13859 1.21468,0.0874 1.21468,-0.0578 z m 1.40183,-0.30526 c -0.005,-0.24253 -0.0383,-0.36159 -0.0738,-0.26458 -0.0355,0.097 -0.1728,0.29545 -0.30519,0.44097 l -0.24072,0.26458 h 0.31448 0.31448 z m -8.54528,-0.4285 c 0.15693,-0.11911 0.18805,-0.25147 0.13045,-0.55482 -0.0416,-0.21912 -0.12866,-0.46582 -0.19345,-0.54822 -0.1814,-0.23073 -0.01,-0.31539 0.768,-0.37934 l 0.71536,-0.0588 0.14171,-0.41158 c 0.11753,-0.34133 0.11084,-0.46514 -0.0392,-0.72544 -0.33193,-0.57584 0.11099,-1.42863 0.63632,-1.22517 l 0.22177,0.0859 -0.32338,0.23661 c -0.57675,0.42201 -0.26692,0.90858 0.32965,0.51769 0.33672,-0.22063 0.75808,-0.14659 0.75808,0.13321 0,0.14921 0.0325,0.15592 0.17639,0.0365 0.25678,-0.21311 0.21776,-0.58756 -0.14249,-1.3675 -0.17538,-0.3797 -0.34736,-0.92646 -0.38218,-1.21503 l -0.0633,-0.52465 -0.38058,-0.0775 c -0.40049,-0.0816 -1.20692,-0.6291 -1.20692,-0.81942 0,-0.16662 0.24987,-0.13476 0.46418,0.0592 0.1038,0.0939 0.399,0.20434 0.65602,0.24535 0.36736,0.0586 0.52388,0.0254 0.73188,-0.15518 0.67692,-0.58779 0.0509,-1.02901 -1.33398,-0.94013 -0.47899,0.0307 -0.87088,0.0336 -0.87088,0.006 0,-0.0272 0.0892,-0.13836 0.19827,-0.24692 0.1561,-0.15539 0.40744,-0.19497 1.18141,-0.18603 0.55845,0.006 1.0405,0.0687 1.11596,0.14419 0.0967,0.0967 0.17517,0.0977 0.28851,0.004 0.20435,-0.16959 0.20589,-1.86084 0.002,-2.54138 -0.16087,-0.53776 -0.24824,-0.61782 -1.2944,-1.186 l -0.6834,-0.37116 h -1.3239 -1.32391 l -0.46214,0.3959 c -0.25417,0.21775 -0.77523,0.9189 -1.1579,1.55811 -0.9246,1.54446 -1.63436,2.45711 -2.08613,2.68248 -0.46249,0.23072 -0.47583,0.23027 -0.75311,-0.0253 -0.12538,-0.11558 -0.39534,-0.27884 -0.5999,-0.3628 -0.23997,-0.0985 -0.3998,-0.26362 -0.45043,-0.46536 -0.14583,-0.58103 -0.64754,-0.86988 -0.64754,-0.37281 0,0.31675 -0.18569,0.29855 -0.29988,-0.0294 -0.0753,-0.21621 -0.10093,-0.16784 -0.14028,0.26458 -0.0645,0.70948 0.1353,1.32541 0.56017,1.72642 0.1927,0.18188 0.35036,0.39514 0.35036,0.47392 0,0.0788 0.10584,0.19988 0.23519,0.2691 0.1807,0.0967 0.23518,0.24622 0.23518,0.64537 0,0.28572 0.0474,0.64105 0.10535,0.78961 0.0579,0.14856 0.17455,0.50824 0.25913,0.79928 0.14166,0.48741 0.2905,0.80783 0.7122,1.53314 0.46388,0.79787 1.70321,2.02592 2.2082,2.1881 0.60685,0.1949 2.71871,0.19164 2.97723,-0.005 z m 0.72852,-0.70797 c -0.29026,-0.21224 -0.34407,-0.15843 -0.16889,0.16889 0.10065,0.18806 0.17315,0.22274 0.26779,0.1281 0.0946,-0.0946 0.0679,-0.17505 -0.0989,-0.29699 z m 8.79577,-2.1075 0.2367,-0.33356 -0.27983,0.0396 c -0.24377,0.0345 -0.28241,0.10779 -0.29975,0.56874 -0.011,0.29104 0.008,0.42333 0.0431,0.29398 0.0347,-0.12935 0.16956,-0.38529 0.29975,-0.56874 z m -6.53578,0.19636 c -0.0431,-0.0431 -0.11367,-0.0431 -0.15679,0 -0.0431,0.0431 -0.008,0.0784 0.0784,0.0784 0.0862,0 0.12151,-0.0353 0.0784,-0.0784 z m 2.74383,-0.39947 c 1.62208,-0.0912 2.03307,-0.16702 2.46944,-0.45542 0.16169,-0.10686 0.54001,-0.31658 0.84071,-0.46605 0.66201,-0.32906 0.87471,-0.70957 1.03801,-1.85698 0.21193,-1.48909 0.15714,-2.65219 -0.15804,-3.35491 -0.28953,-0.64554 -0.39514,-0.78434 -1.41172,-1.85544 -0.33762,-0.35571 -0.72297,-0.80551 -0.85634,-0.99953 -0.39804,-0.57908 -0.72906,-1.62492 -0.81521,-2.57557 -0.0546,-0.60225 -0.12972,-0.89342 -0.23057,-0.89342 -0.23139,0 -1.27165,0.86696 -1.42254,1.18554 -0.0741,0.15641 -0.20217,0.59111 -0.28467,0.96601 -0.0825,0.3749 -0.19388,0.70875 -0.2475,0.74189 -0.22584,0.13958 -0.0583,0.35691 0.46609,0.60467 0.37122,0.17539 0.66724,0.43057 0.87987,0.75849 0.31958,0.49287 0.42583,1.03507 0.20284,1.03507 -0.0647,0 -0.11759,-0.0434 -0.11759,-0.0964 0,-0.26478 -0.8493,-1.05049 -1.29422,-1.19733 -0.58111,-0.19178 -0.86262,-0.0726 -0.9179,0.38845 -0.0659,0.54994 0.15937,0.78771 0.74635,0.78771 0.28876,0 0.52502,0.044 0.52502,0.0979 0,0.12334 -0.82784,0.38349 -0.96014,0.30172 -0.054,-0.0334 -0.0982,0.32233 -0.0982,0.79045 0,0.94187 -0.10563,1.35877 -0.60395,2.38366 -0.42513,0.87436 -0.42257,1.24241 0.016,2.30594 0.19403,0.47052 0.35278,1.03908 0.35278,1.26347 0,0.34544 0.0315,0.39379 0.20578,0.3154 0.11319,-0.0509 0.86725,-0.12979 1.6757,-0.17526 z m -11.9986,-6.23494 c -0.0763,-0.18421 -0.24286,-0.36797 -0.37013,-0.40837 -0.25557,-0.0811 -0.48216,0.065 -0.23648,0.15252 0.31967,0.11384 0.61145,0.56071 0.62958,0.96421 l 0.0188,0.4188 0.0485,-0.39612 c 0.0267,-0.21786 -0.014,-0.54683 -0.0903,-0.73104 z m 17.83147,-2.89497 c -0.0911,-0.60964 -0.0134,-0.96716 0.1695,-0.78001 0.0529,0.0541 0.057,0.38948 0.009,0.7452 l -0.0871,0.64676 z"
       id="path27" /></g></svg>
