<?xml version="1.0" encoding="UTF-8" standalone="no"?>
<!-- Created with Inkscape (http://www.inkscape.org/) -->

<svg
   width="130.50612mm"
   height="86.518066mm"
   viewBox="0 0 130.50613 86.518066"
   version="1.1"
   id="svg1"
   xml:space="preserve"
   xmlns="http://www.w3.org/2000/svg"
   xmlns:svg="http://www.w3.org/2000/svg"><defs
     id="defs1" /><g
     id="layer1"
     transform="translate(199.6341,-53.314332)"><path
       style="fill:#4d4d4d"
       d="m -107.82131,139.48557 c -0.40312,-0.43155 -0.45311,-1.02338 -0.13895,-1.6452 0.29619,-0.58626 0.39334,-1.50719 0.46397,-4.39839 0.0605,-2.47576 -0.001,-3.37667 -0.31931,-4.6449 -0.0567,-0.22637 -0.18866,-0.75554 -0.29317,-1.17593 -0.10451,-0.42039 -0.24364,-0.94956 -0.30919,-1.17593 -0.0655,-0.22636 -0.14743,-0.59678 -0.18197,-0.82314 -0.16812,-1.10187 -1.65199,-2.40007 -5.06954,-4.4352 -0.81777,-0.48698 -1.67155,-1.03766 -1.89728,-1.22373 -0.22573,-0.18606 -0.45418,-0.3383 -0.50767,-0.3383 -0.0535,0 -0.40895,-0.21166 -0.7899,-0.47037 -0.38096,-0.2587 -0.74848,-0.47037 -0.8167,-0.47037 -0.0682,0 -0.12446,-0.0397 -0.12496,-0.0882 -5.1e-4,-0.0485 -0.11957,-0.14589 -0.26459,-0.2164 -0.14501,-0.0705 -1.24262,-0.69918 -2.43913,-1.39703 -3.01185,-1.75665 -2.92301,-1.70856 -3.15694,-1.70856 -0.28798,0 -1.55399,-1.23417 -1.93003,-1.88148 -0.27483,-0.47309 -0.38904,-0.77219 -0.78576,-2.05787 -0.0599,-0.19403 -0.13128,-0.98778 -0.15867,-1.76389 -0.0274,-0.77611 -0.0281,-1.09361 -0.002,-0.70556 0.0265,0.38806 0.0983,0.75583 0.15959,0.81727 0.0613,0.0614 0.11138,0.24812 0.11138,0.41484 0,0.43892 0.55639,2.09105 0.90921,2.69982 0.53014,0.91472 1.19449,1.52694 2.14282,1.97471 0.48803,0.23043 0.90496,0.46414 0.92652,0.51936 0.0216,0.0552 0.0847,0.10039 0.14021,0.10039 0.0556,0 0.88459,0.45648 1.84229,1.0144 0.9577,0.55792 1.92648,1.11974 2.15284,1.24849 0.22637,0.12875 0.55204,0.33373 0.72371,0.45551 0.17167,0.12178 0.34542,0.22141 0.3861,0.22141 0.0407,0 0.61459,0.3624 1.27536,0.80533 0.66077,0.44293 1.88932,1.21692 2.73011,1.71998 1.99177,1.19171 2.64774,1.67792 3.64537,2.70194 0.82322,0.84501 1.44446,1.81927 1.30448,2.04577 -0.07,0.11318 -0.004,0.46361 0.26822,1.42884 0.85274,3.0217 0.9383,3.96211 0.66999,7.36383 -0.32623,4.13608 -0.32767,4.16118 -0.25507,4.45044 0.0375,0.1495 0.15189,0.30393 0.25414,0.34317 0.57301,0.21988 1.10544,-0.6862 1.82327,-3.10281 0.0865,-0.29105 0.28108,-0.74084 0.4325,-0.99954 0.15141,-0.2587 0.30561,-0.56298 0.34265,-0.67616 0.037,-0.11318 0.10767,-0.20579 0.15695,-0.20579 0.0493,0 0.15537,-0.15875 0.23574,-0.35277 0.0804,-0.19403 0.19262,-0.35278 0.24945,-0.35278 0.0568,0 0.10333,-0.0566 0.10333,-0.1258 0,-0.0692 0.15181,-0.34701 0.33736,-0.61737 1.08277,-1.57764 2.35646,-5.15142 2.40289,-6.74214 0.024,-0.8214 -0.0876,-1.00496 -0.93713,-1.54164 -0.28005,-0.17691 -0.50928,-0.36135 -0.50939,-0.40986 -1.2e-4,-0.0485 -0.0496,-0.0882 -0.10999,-0.0882 -0.10051,0 -1.28225,-0.68525 -1.41893,-0.82278 -0.0323,-0.0325 -0.19109,-0.13366 -0.35277,-0.22471 -0.16169,-0.091 -0.8856,-0.60729 -1.60868,-1.1472 -2.09504,-1.56432 -4.17873,-3.73648 -5.73451,-5.978 -0.65038,-0.93704 -1.39848,-1.94705 -1.8276,-2.46745 -0.63953,-0.77556 -2.79878,-2.85991 -3.35283,-3.23652 -0.32338,-0.21981 -0.65788,-0.46832 -0.74335,-0.55224 -0.0855,-0.0839 -0.20075,-0.15258 -0.25618,-0.15258 -0.0554,0 -0.17072,-0.0673 -0.25619,-0.14946 -0.0855,-0.0822 -0.5258,-0.34423 -0.97854,-0.5823 l -0.82314,-0.43286 0.0276,-1.49715 c 0.0302,-1.63857 0.3114,-3.7579 0.73117,-5.51092 0.0619,-0.2587 0.14545,-0.62912 0.18555,-0.82315 0.0401,-0.19402 0.11555,-0.458605 0.16765,-0.587955 0.0521,-0.12935 0.2164,-0.63206 0.3651,-1.11713 0.1487,-0.48507 0.31375,-0.93221 0.36678,-0.99366 0.053,-0.0614 0.0964,-0.20768 0.0964,-0.32497 0,-0.11729 0.0486,-0.30515 0.10798,-0.41745 0.15956,-0.30172 0.59757,-1.30984 0.59757,-1.37536 0,-0.0311 0.12667,-0.33597 0.28148,-0.67743 1.40498,-3.09887 1.95278,-5.064804 1.95278,-7.007974 0,-2.56944 -0.95274,-4.95858 -2.6689,-6.69263 l -0.37584,-0.37977 -0.054,1.55569 c -0.0591,1.70042 -0.16025,2.55301 -0.32344,2.72574 -0.0581,0.0614 -0.10555,0.2303 -0.10555,0.37523 0,0.14494 -0.0529,0.29623 -0.11759,0.3362 -0.0647,0.04 -0.11893,0.16216 -0.12057,0.27153 -0.003,0.1846 -0.54833,1.32908 -1.15986,2.4331 -0.41542,0.74999 -1.44076,1.956814 -2.07498,2.442234 -0.49306,0.37738 -2.48896,1.43255 -3.28857,1.73857 -0.48515,0.18566 -0.73257,0.27519 -1.76389,0.63826 l -1.05833,0.37259 0.0118,1.10834 c 0.015,1.4031 0.17339,2.41754 0.87552,5.606245 0.54411,2.47107 0.79426,4.63642 0.64817,5.61065 -0.0458,0.30531 -0.1053,0.53307 -0.13225,0.50612 -0.0269,-0.0269 -0.10556,-0.60065 -0.17471,-1.27489 -0.17567,-1.71311 -0.36422,-3.00054 -0.70051,-4.78308 -0.0641,-0.33955 -0.16215,-0.868715 -0.21797,-1.175925 -0.0558,-0.30721 -0.18505,-0.95544 -0.28716,-1.44051 -0.17282,-0.82101 -0.39883,-2.5465 -0.46481,-3.54867 l -0.0285,-0.43247 -0.82315,0.29616 c -0.45273,0.1629 -1.37877,0.49205 -2.05787,0.73146 -1.84585,0.65073 -1.71306,0.51125 -1.82745,1.91942 -0.14374,1.76955 -0.1204,5.966595 0.0407,7.325305 0.0767,0.64676 0.17102,1.46697 0.20958,1.82268 0.0386,0.35572 0.11814,0.69703 0.17686,0.75847 0.0587,0.0615 0.10675,0.23094 0.10675,0.37665 0,0.14571 0.0595,0.41294 0.13223,0.59384 0.13354,0.33215 0.2537,0.63874 0.44,1.12266 0.056,0.14552 0.15477,0.39688 0.21945,0.55857 0.0647,0.16169 0.17026,0.42627 0.23462,0.58796 0.3008,0.75558 0.38481,1.20056 0.38481,2.0381 0,0.92994 -0.22895,1.65024 -0.68311,2.14914 -0.11139,0.12236 -0.32429,0.37963 -0.47311,0.5717 -0.4624,0.59677 -2.04987,2.33098 -2.60869,2.84984 -0.29288,0.27193 -1.00757,0.85953 -1.5882,1.30576 l -1.05569,0.81134 0.0205,0.45812 c 0.0208,0.46527 0.16868,1.60238 0.38828,2.98637 0.13694,0.86311 0.26862,1.91161 0.48736,3.88056 0.1857,1.67158 0.19114,5.3217 0.009,6.35 -0.0743,0.42039 -0.16875,0.96328 -0.20994,1.20641 -0.0412,0.24313 -0.12198,0.47115 -0.17951,0.50671 -0.0575,0.0356 -0.1046,0.19069 -0.1046,0.34475 0,0.15405 -0.0529,0.3128 -0.11759,0.35277 -0.0647,0.04 -0.11759,0.48989 -0.11759,0.99981 0,0.81151 -0.0311,0.94893 -0.24945,1.10186 -0.17013,0.11916 -0.33272,0.14306 -0.51133,0.0752 -0.19802,-0.0753 -0.31033,-0.043 -0.46054,0.13245 -0.1346,0.15721 -0.27642,0.20733 -0.43986,0.15546 -0.1697,-0.0539 -0.29238,-0.004 -0.41381,0.16987 -0.20278,0.2895 -0.60674,0.32533 -0.7075,0.0628 -0.0585,-0.15252 -0.12581,-0.13065 -0.39685,0.12902 -0.23367,0.22388 -0.3963,0.29049 -0.57259,0.23453 -0.13542,-0.043 -0.24622,-0.12749 -0.24622,-0.18781 0,-0.0603 -0.10583,-0.004 -0.23518,0.12552 -0.12936,0.12935 -0.35826,0.23518 -0.50867,0.23518 -0.85273,0 -1.72161,-2.41634 -1.09044,-3.03249 l 0.20621,-0.20131 -0.0745,0.52917 c -0.11812,0.83864 0.059,1.4227 0.527,1.73811 0.22105,0.14896 0.50984,0.25539 0.64177,0.23651 l 0.23986,-0.0343 0.0206,-1.03973 c 0.0113,-0.57185 0.0475,-1.06663 0.0804,-1.09951 0.18649,-0.18648 0.31061,0.19549 0.31061,0.95585 0,0.87299 0.14668,1.20706 0.44816,1.02073 0.16121,-0.0996 0.40706,-1.41189 0.35139,-1.87557 -0.0194,-0.16121 0.0235,-0.31287 0.0952,-0.33704 0.14164,-0.0477 0.28115,0.72713 0.28115,1.56159 0,0.48055 0.15677,0.75519 0.3312,0.58023 0.0442,-0.0443 0.0711,-0.52519 0.0597,-1.06857 -0.0121,-0.57837 0.0299,-1.01923 0.10134,-1.06336 0.17212,-0.10638 0.32697,0.18357 0.32909,0.61619 0.003,0.60417 0.13885,1.10243 0.30068,1.10243 0.22714,0 0.26944,-0.21743 0.2002,-1.02894 -0.0365,-0.4271 -0.0162,-0.73495 0.0484,-0.73495 0.22644,0 0.3934,0.29424 0.39704,0.69968 0.004,0.47728 0.26353,0.89575 0.47427,0.76551 0.0975,-0.0603 0.11988,-0.3119 0.0727,-0.81741 -0.0454,-0.48634 -0.0198,-0.80495 0.0767,-0.95365 0.26943,-0.41537 0.51014,-1.34184 0.79375,-3.05506 0.23589,-1.42495 -0.0563,-5.98236 -0.59117,-9.22148 -0.17038,-1.03175 -0.30943,-2.04874 -0.8843,-6.46759 -0.6532,-5.02094 -0.90859,-6.79041 -1.12866,-7.81991 -0.0691,-0.32338 -0.15431,-0.78673 -0.1893,-1.02967 -0.035,-0.24294 -0.11094,-0.47096 -0.16878,-0.50671 -0.0578,-0.0357 -0.10518,-0.2175 -0.10518,-0.40389 0,-0.1864 -0.0529,-0.37161 -0.11759,-0.41158 -0.0647,-0.04 -0.11759,-0.19126 -0.11759,-0.3362 0,-0.14493 -0.0437,-0.31379 -0.0971,-0.37523 -0.0534,-0.0615 -0.17104,-0.34984 -0.26135,-0.64088 -0.15462,-0.49828 -0.68055,-1.58501 -1.28046,-2.64584 -0.41552,-0.73477 -1.17439,-1.68448 -1.97702,-2.4742 -0.73324,-0.721445 -0.88665,-1.075255 -0.57749,-1.331835 0.0866,-0.0719 1.15816,-0.45189 2.38125,-0.84447 1.22308,-0.39259 2.31568,-0.7636 2.42798,-0.82446 0.11231,-0.0609 0.30762,-0.11067 0.43403,-0.11067 0.12642,0 0.26255,-0.0529 0.30252,-0.1176 0.04,-0.0647 0.19872,-0.11759 0.35278,-0.11759 0.15405,0 0.30633,-0.0424 0.33838,-0.0943 0.0321,-0.0519 0.32958,-0.16818 0.66116,-0.25847 0.33157,-0.0903 0.62909,-0.2066 0.66115,-0.25847 0.0321,-0.0519 0.18433,-0.0943 0.33838,-0.0943 0.15406,0 0.30633,-0.0424 0.33839,-0.0943 0.0321,-0.0519 0.32957,-0.16818 0.66115,-0.25847 0.33158,-0.0903 0.62909,-0.20661 0.66115,-0.25847 0.0321,-0.0519 0.17863,-0.0943 0.32573,-0.0943 0.14709,0 0.30205,-0.0346 0.34436,-0.0769 0.0774,-0.0774 1.02065,-0.4168 3.19607,-1.15009 2.70197,-0.91077 4.35777,-1.50686 4.46264,-1.60658 0.0614,-0.0584 0.18108,-0.10622 0.26587,-0.10622 0.14341,0 0.42676,-0.11543 1.79788,-0.73241 0.29104,-0.13097 0.66146,-0.29627 0.82315,-0.36734 0.64329,-0.28276 1.97316,-1.25707 2.54824,-1.866934 0.65667,-0.69638 1.24,-1.56851 1.67307,-2.50137 0.15012,-0.32338 0.32007,-0.67985 0.37767,-0.79216 0.0576,-0.1123 0.10472,-0.30762 0.10472,-0.43403 0,-0.12641 0.0529,-0.26254 0.1176,-0.30251 0.0647,-0.04 0.11759,-0.18486 0.11759,-0.32198 0,-0.13711 0.0492,-0.4118 0.10927,-0.61042 0.23731,-0.7843 0.35025,-2.54892 0.22522,-3.51903 -0.0679,-0.52681 -0.17093,-1.04972 -0.22897,-1.16203 -0.058,-0.1123 -0.10552,-0.40599 -0.10552,-0.65263 0,-0.24665 -0.0421,-0.49872 -0.0936,-0.56016 -0.0515,-0.0614 -0.16092,-0.32338 -0.24323,-0.58209 -0.53683,-1.68748 -1.58895,-2.80453 -2.95396,-3.13629 -1.58066,-0.38417 -4.19703,-0.87904 -6.05783,-1.14579 -0.38806,-0.0556 -0.80658,-0.14246 -0.93004,-0.19294 l -0.22448,-0.0918 0.088,0.57832 c 0.0484,0.31807 0.11153,1.39853 0.14031,2.401 0.0288,1.00248 0.10313,2.0079 0.16523,2.23426 0.0621,0.22637 0.11322,0.63903 0.11358,0.91702 6e-4,0.46599 0.1604,0.91396 0.59573,1.67002 0.0931,0.16169 0.20158,0.32044 0.24106,0.35278 0.11266,0.0923 0.49292,0.84115 0.65153,1.28312 0.35538,0.99024 0.25688,3.30485 -0.18811,4.42012 -0.56259,1.41002 -1.0543,1.99176 -1.60762,1.90197 -0.29184,-0.0474 -0.42468,7.6e-4 -0.61895,0.22419 -0.27134,0.31207 -0.48186,0.35728 -0.69078,0.14836 -0.10311,-0.10311 -0.17855,-0.10092 -0.31103,0.009 -0.25021,0.20766 -0.68985,0.11116 -0.83614,-0.18352 -0.11094,-0.22345 -0.15024,-0.23339 -0.3488,-0.0882 -0.58491,0.4277 -1.07578,-6.2e-4 -0.92424,-0.80646 0.0622,-0.33084 0.53779,-1.48389 0.87236,-2.11512 0.15217,-0.28709 0.13009,-0.4266 -0.16673,-1.05329 l -0.2614,-0.55193 -0.33215,0.52501 c -0.52176,0.82473 -1.18629,1.02084 -1.55457,0.45877 -0.27943,-0.42646 -0.16612,-0.97662 0.48388,-2.34937 0.78099,-1.64941 0.94535,-2.06565 1.34781,-3.41347 0.20221,-0.67719 0.0223,-3.01471 -0.24475,-3.17974 -0.0575,-0.0356 -0.1047,-0.15413 -0.10483,-0.2635 -1.3e-4,-0.10936 -0.28395,-0.75447 -0.63072,-1.43357 -0.34676,-0.67909 -1.00811,-1.97135 -1.46967,-2.87168 -0.46155,-0.90033 -0.83919,-1.73754 -0.83919,-1.86046 0,-0.18091 -0.0751,-0.14385 -0.39424,0.19452 -0.21683,0.22991 -0.75922,0.58253 -1.20532,0.78361 -1.67442,0.75475 -2.5736,1.2113 -2.7987,1.42102 -0.12771,0.11898 -0.27126,0.21633 -0.319,0.21633 -0.0477,0 -0.16865,0.16404 -0.26867,0.36453 -0.15266,0.30602 -0.18112,0.95032 -0.17728,4.01395 0.003,2.43197 -0.0372,3.69121 -0.12074,3.77472 -0.0689,0.0689 -0.13103,0.1015 -0.13801,0.0724 -0.007,-0.0291 -0.0563,-1.16417 -0.10967,-2.52236 -0.0533,-1.3582 -0.13362,-2.91924 -0.17843,-3.46898 l -0.0815,-0.99954 -1.71975,-0.004 -1.71975,-0.004 -0.7626,-0.37815 c -0.41943,-0.20798 -0.80307,-0.37814 -0.85254,-0.37814 -0.0495,0 -0.0899,0.36159 -0.0899,0.80355 0,0.84708 -0.0651,1.03273 -0.29503,0.84188 -0.10065,-0.0835 -0.11168,-0.29082 -0.039,-0.73393 0.19783,-1.20657 -0.16395,-2.60681 -0.89794,-3.47548 -0.43193,-0.51117 -1.51546,-1.22781 -2.17819,-1.44063 -0.68072,-0.2186 -2.92643,-0.22487 -3.64537,-0.0102 -0.85822,0.25628 -2.37494,1.03032 -2.90064,1.48029 -0.56684,0.4852 -0.89757,0.5478 -0.84111,0.15921 0.0795,-0.54717 2.574,-2.0723 3.91813,-2.39554 0.61875,-0.14879 3.13815,-0.19316 3.27367,-0.0576 0.0686,0.0686 0.21501,0.12476 0.32531,0.12476 0.70435,0 2.35455,1.46924 2.80062,2.49351 0.14916,0.34248 0.31808,0.71458 0.37538,0.82689 0.0573,0.1123 0.10419,0.2616 0.10419,0.33178 0,0.2705 0.78868,0.76483 1.65465,1.03709 0.46251,0.14542 3.39058,0.17981 3.57841,0.042 0.0648,-0.0475 0.18848,-0.22389 0.2749,-0.39193 0.40796,-0.7933 1.03004,-1.25124 2.65033,-1.95102 0.65468,-0.28275 1.49589,-0.65799 1.86936,-0.83386 0.74435,-0.35053 0.74014,-0.33732 0.4389,-1.37811 -0.18354,-0.63415 -0.34827,-1.40633 -0.45154,-2.11666 -0.047,-0.32338 -0.11846,-0.64088 -0.15876,-0.70556 -0.0485,-0.0778 -1.06198,-0.0825 -2.99509,-0.0139 -2.1557,0.0765 -3.69264,0.061 -5.86162,-0.0588 -4.05313,-0.22396 -4.43563,-0.21566 -4.87033,0.10572 -0.38667,0.28588 -0.54648,0.32146 -0.65502,0.14584 -0.14717,-0.23812 0.21709,-0.62202 0.861,-0.90744 l 0.6662,-0.29531 1.5287,0.0685 c 0.84079,0.0377 1.92558,0.11928 2.41065,0.18131 0.99565,0.12732 5.28743,0.14287 7.56357,0.0274 1.71925,-0.0872 2.02855,-0.0279 1.90669,0.36567 -0.10692,0.34532 -0.0841,1.12778 0.0436,1.49813 0.0558,0.16169 0.16651,0.53211 0.24605,0.82315 0.0795,0.29104 0.18637,0.635 0.23736,0.76435 0.051,0.12935 0.21286,0.55269 0.35968,0.94074 0.36423,0.96266 2.30356,5.14873 2.81853,6.08382 0.0618,0.11231 0.11245,0.30762 0.11245,0.43403 0,0.12642 0.0529,0.26255 0.11759,0.30252 0.0647,0.04 0.11759,0.25164 0.11759,0.47037 0,0.21873 0.0529,0.4304 0.11759,0.47037 0.0667,0.0413 0.1176,0.62607 0.1176,1.35232 0,0.72624 -0.0508,1.31106 -0.1176,1.35231 -0.0647,0.04 -0.11759,0.21772 -0.11759,0.395 0,0.17727 -0.0421,0.37259 -0.0936,0.43403 -0.0515,0.0614 -0.16443,0.32338 -0.25101,0.58208 -0.16749,0.50044 -0.40571,1.06041 -0.97551,2.29306 -0.69263,1.49837 -0.35484,2.07748 0.48791,0.83648 0.26368,-0.38829 0.47942,-0.72868 0.47942,-0.75642 0,-0.0277 0.13786,-0.29709 0.30635,-0.59855 0.23006,-0.41163 0.34309,-0.51762 0.45392,-0.42564 0.15543,0.129 0.10777,0.66732 -0.0687,0.77642 -0.18603,0.11497 -0.10895,0.73896 0.14738,1.19307 0.28576,0.50626 0.37109,1.68751 0.12776,1.76862 -0.0789,0.0263 -0.14351,0.10141 -0.14351,0.16688 0,0.0655 -0.10038,0.26001 -0.22306,0.4323 -0.29741,0.41767 -0.37625,1.19295 -0.12132,1.19295 0.22638,0 0.98628,-0.94838 1.41335,-1.76389 0.22331,-0.42642 0.27417,-0.69469 0.26194,-1.38171 -0.008,-0.4689 0.0309,-0.85255 0.0872,-0.85255 0.23805,0 0.37239,0.54038 0.31905,1.28334 -0.0574,0.79977 -0.29853,1.40237 -0.93008,2.32442 -0.18517,0.27036 -0.33668,0.57851 -0.33668,0.68478 0,0.39842 0.39824,0.097 0.85504,-0.64717 0.87552,-1.4263 1.02644,-1.80345 1.02644,-2.5651 0,-0.75037 0.0757,-1.08027 0.24777,-1.08027 0.0578,0 0.10501,0.10507 0.10501,0.2335 0,0.12842 0.0628,0.46819 0.13949,0.75503 0.17556,0.65643 0.0234,1.1665 -0.69021,2.31315 -0.27919,0.44863 -0.50762,0.86824 -0.50762,0.93247 0,0.2891 0.21182,0.052 0.64676,-0.72396 0.99197,-1.76972 0.99276,-1.77175 0.99623,-2.54005 0.003,-0.57342 0.0421,-0.73495 0.1797,-0.73495 0.12589,0 0.18228,0.14307 0.19697,0.49976 0.0497,1.20639 -0.11516,1.80413 -0.74362,2.69638 -0.14518,0.20611 -0.17876,0.34182 -0.0971,0.3923 0.15397,0.0952 0.46735,-0.1499 0.46735,-0.36547 0,-0.0871 0.0951,-0.332 0.21123,-0.54417 0.38905,-0.71046 0.72951,-2.19078 0.72951,-3.17191 0,-0.88566 -0.15684,-1.36785 -0.72233,-2.22071 -1.07489,-1.62116 -1.11704,-1.85084 -1.2176,-6.63479 -0.0299,-1.42288 -0.0865,-2.71933 -0.12586,-2.88102 -0.0393,-0.16169 -0.12024,-0.69086 -0.17986,-1.17593 -0.16826,-1.36916 -0.37795,-2.52831 -0.70196,-3.88055 -0.0697,-0.29105 -0.15528,-0.70164 -0.19009,-0.91244 -0.0348,-0.21079 -0.11036,-0.41235 -0.16789,-0.44791 -0.0575,-0.0355 -0.1046,-0.19453 -0.1046,-0.35328 0,-0.15875 -0.0478,-0.38053 -0.10613,-0.49283 -0.0584,-0.11231 -0.17341,-0.44232 -0.25563,-0.73336 -0.0822,-0.29104 -0.19322,-0.57944 -0.24665,-0.64088 -0.0534,-0.0614 -0.0971,-0.20768 -0.0971,-0.32497 0,-0.1173 -0.0467,-0.30515 -0.10387,-0.41746 -0.1856,-0.36484 -0.34596,-0.78025 -0.54279,-1.40604 -0.34124,-1.08493 -1.30996,-1.62792 -3.35149,-1.87856 -0.75496,-0.0927 -3.93204,-0.11139 -7.81991,-0.046 -2.16232,0.0363 -5.95884,-0.24401 -7.02134,-0.51849 -0.32784,-0.0847 -1.76025,0.107 -2.38606,0.31931 -1.24087,0.42098 -2.42181,1.17012 -3.26132,2.06884 -0.69116,0.73991 -1.266,1.63311 -1.266,1.96715 0,0.46284 -0.35375,0.64197 -1.26784,0.64197 -0.46077,0 -0.95931,-0.0474 -1.10787,-0.10535 -0.14857,-0.0579 -0.50825,-0.16893 -0.79929,-0.24665 -0.29104,-0.0777 -0.62105,-0.18906 -0.73336,-0.24743 -0.50102,-0.26041 -0.51468,-0.20665 -0.48832,1.92123 0.0172,1.38788 -0.0217,2.16337 -0.12345,2.45855 l -0.14855,0.43118 0.282,0.12849 c 0.15511,0.0707 0.35961,0.12849 0.45446,0.12849 0.0949,0 0.26434,0.0471 0.37664,0.10473 0.11231,0.0576 0.46864,0.22957 0.79185,0.38217 0.59695,0.28184 0.72691,0.36972 1.42787,0.9655 0.48438,0.4117 1.04804,1.57919 1.14391,2.36936 0.19344,1.59425 0.21785,2.41065 0.0721,2.41065 -0.2094,0 -0.58078,-0.46105 -0.65683,-0.81543 -0.13982,-0.65158 -0.58941,-1.26034 -1.10477,-1.4959 -0.83512,-0.38172 -1.05923,-0.40896 -2.89599,-0.35189 -1.88344,0.0585 -2.28568,0.0933 -3.70652,0.32084 l -0.78168,0.12517 -0.0806,0.55004 c -0.1032,0.70438 -0.46212,1.52273 -0.8417,1.91912 l -0.29757,0.31074 0.36267,0.50065 c 0.19947,0.27536 0.36267,0.55086 0.36267,0.61223 0,0.0614 0.0852,0.29112 0.18934,0.51057 0.21005,0.44266 0.15778,0.72018 -0.15728,0.83494 -0.11464,0.0418 -0.42965,0.22576 -0.70001,0.4089 -0.27035,0.18314 -0.62505,0.33298 -0.78821,0.33298 -0.16317,0 -0.41822,0.0481 -0.56678,0.10694 -0.14856,0.0588 -0.57445,0.19605 -0.94642,0.30497 -0.37197,0.10892 -0.64666,0.24601 -0.61042,0.30464 0.11356,0.18374 2.5197,0.12136 3.227,-0.0837 1.05408,-0.30554 1.39848,-0.33226 1.48187,-0.11495 0.0402,0.10484 0.004,0.27378 -0.0802,0.37542 -0.17031,0.20521 -1.61556,0.95966 -2.16599,1.13069 -1.63989,0.50954 -3.4068,0.58072 -4.95495,0.1996 l -0.99847,-0.2458 -0.66866,0.25726 c -0.36776,0.1415 -0.77449,0.29968 -0.90384,0.35153 -0.12935,0.0518 -0.4204,0.15786 -0.64676,0.23559 -0.22637,0.0777 -0.51741,0.18287 -0.64676,0.23365 -0.21571,0.0847 -0.73412,0.23605 -1.6463,0.48073 -0.19403,0.052 -0.65768,0.15933 -1.03034,0.23841 -0.71128,0.15093 -0.65259,0.16301 -1.71039,-0.35192 -0.21388,-0.10411 -0.73832,-0.51998 -1.16543,-0.92415 -0.42711,-0.40417 -1.36337,-1.18008 -2.08057,-1.72424 -0.71721,-0.54416 -1.56859,-1.23946 -1.89197,-1.5451 -0.32338,-0.30564 -0.77317,-0.6936 -0.99954,-0.86213 -0.22636,-0.16853 -0.43803,-0.33509 -0.47037,-0.37013 -0.0323,-0.035 -0.48213,-0.32241 -0.99954,-0.63859 -1.1303,-0.69073 -1.71538,-1.12176 -2.38125,-1.75428 l -0.49976,-0.47474 v -0.58453 c 0,-0.32149 -0.0491,-0.74703 -0.10907,-0.94565 -0.81521,-2.69916 -0.94927,-2.85184 -0.94927,-1.08108 0,0.68701 -0.022,1.24912 -0.0489,1.24912 -0.16563,0 -1.96114,-1.90535 -2.16087,-2.29306 -0.23934,-0.46461 -0.68106,-0.98131 -1.18119,-1.38171 -0.41209,-0.32991 -0.54752,-0.23699 -0.1714,0.11759 0.90214,0.85049 1.64254,2.38125 1.15176,2.38125 -0.097,0 -0.17639,-0.0558 -0.17639,-0.12404 0,-0.28212 -0.99412,-1.55903 -1.50641,-1.93493 -0.9945,-0.72973 -1.05209,-0.51147 -0.15814,0.59934 0.96857,1.20354 1.13501,1.49204 1.02408,1.77508 -0.0728,0.18584 -0.13673,0.15237 -0.48989,-0.25665 -0.22337,-0.25871 -0.48983,-0.60266 -0.59213,-0.76435 -0.17838,-0.28193 -1.31259,-1.11986 -1.39894,-1.03351 -0.0911,0.0911 1.1933,1.83044 1.72871,2.34096 0.57037,0.54387 0.66977,0.73341 0.45441,0.86651 -0.15813,0.0977 -0.39835,-0.0459 -1.35474,-0.80968 -0.78336,-0.62564 -1.11713,-0.79005 -1.11713,-0.5503 0,0.14187 0.83828,0.85711 1.25865,1.07391 0.18087,0.0933 0.35531,0.19614 0.38764,0.22858 0.0323,0.0325 0.1611,0.11544 0.28613,0.18444 0.12503,0.069 0.26441,0.20129 0.30975,0.29398 0.0453,0.0927 0.14857,0.31061 0.22942,0.48425 0.29097,0.62499 0.87308,1.18559 2.00045,1.92659 0.63093,0.4147 1.22505,0.78389 1.32025,0.82042 0.0952,0.0365 0.4566,0.4202 0.8031,0.85259 1.0077,1.25751 1.73413,2.02211 4.86154,5.11704 4.57572,4.5282 4.92358,4.73873 7.64137,4.62484 1.89696,-0.0795 2.74496,-0.20682 4.30262,-0.64604 0.51366,-0.14484 1.78741,-0.46426 2.41065,-0.60453 0.7199,-0.16203 1.87173,-0.33059 3.2338,-0.47324 4.43311,-0.46429 7.64352,-1.11065 7.64352,-1.53889 0,-0.0747 -0.17497,-0.3803 -0.38881,-0.67907 -0.50925,-0.71147 -0.58182,-0.91815 -0.35318,-1.00589 0.23857,-0.0916 0.38259,0.10235 1.10456,1.48719 0.46544,0.89278 0.76365,1.29709 1.36601,1.85208 0.42381,0.39049 0.84326,0.70999 0.93211,0.70999 0.0888,0 0.16153,0.0467 0.16153,0.10387 0,0.0571 0.0926,0.137 0.20579,0.17749 2.50378,0.89551 3.40931,0.86923 4.99338,-0.14494 0.99716,-0.63842 1.32929,-2.41018 0.95983,-5.12019 -0.063,-0.46193 -0.0462,-0.56375 0.0858,-0.52137 0.30021,0.0964 0.61004,1.27146 0.66588,2.5254 0.0587,1.31728 -0.10058,2.02757 -0.62922,2.80657 -0.32145,0.47368 -0.28784,0.64354 0.12737,0.64354 0.15405,0 0.3128,0.0529 0.35278,0.11759 0.04,0.0647 0.17538,0.11759 0.30092,0.11759 0.12553,0 0.22824,0.0529 0.22824,0.1176 0,0.0647 0.0688,0.11759 0.15295,0.11759 0.21633,0 0.78578,0.27657 0.78687,0.38217 5.1e-4,0.0485 0.0575,0.0882 0.12673,0.0882 0.11321,0 1.14097,0.652 1.2853,0.81539 0.0323,0.0366 0.31774,0.27475 0.63422,0.52921 0.60708,0.48811 2.07041,2.252774 2.07041,2.496754 0,0.0789 0.96573,-0.82255 2.14607,-2.003244 1.18033,-1.18068 2.56554,-2.51382 3.07824,-2.96254 1.33339,-1.16698 1.36088,-1.19758 1.36088,-1.51446 0,-0.37928 0.19014,-0.48588 0.27664,-0.1551 l 0.0682,0.26078 0.38615,-0.3662 c 0.32011,-0.30359 1.61921,-1.39562 2.32823,-1.95715 0.28195,-0.22329 1.43632,-1.17438 1.76092,-1.45082 1.54072,-1.31214 2.15647,-1.80651 2.25005,-1.80651 0.19612,0 0.25148,0.35021 0.0867,0.54872 -0.1299,0.15651 -1.82857,1.60352 -2.57263,2.19148 -0.37279,0.29458 -1.47067,1.19861 -1.52689,1.25729 -0.0323,0.0337 -0.69379,0.58736 -1.46991,1.23025 -0.77611,0.64289 -1.43757,1.19842 -1.4699,1.2345 -0.0323,0.0361 -0.40276,0.35632 -0.82315,0.71164 -2.53017,2.13849 -4.77394,4.463824 -7.03432,7.290004 -0.75005,0.9378 -1.45227,1.80095 -1.5605,1.9181 -0.2528,0.27367 -0.88679,1.56311 -0.99381,2.02125 -0.28849,1.23509 -0.15518,2.858755 0.31801,3.873235 0.1188,0.25469 0.21599,0.51438 0.21599,0.57711 0,0.0627 0.20986,0.38606 0.46636,0.71853 1.00223,1.29907 3.42618,5.6774 4.23452,7.64871 0.053,0.12935 0.17779,0.42119 0.27722,0.64853 1.00875,2.30639 2.68293,7.57307 2.98089,9.37733 0.0348,0.2108 0.11036,0.41236 0.16789,0.44791 0.0575,0.0356 0.1046,0.24361 0.1046,0.46234 0,0.21874 0.0473,0.42695 0.10517,0.4627 0.0578,0.0358 0.13473,0.26377 0.17085,0.50671 0.0361,0.24294 0.12966,0.7634 0.20787,1.15659 0.23312,1.17189 -0.0535,6.14385 -0.48248,8.36914 -0.0654,0.33955 -0.16592,0.86872 -0.22327,1.17593 -0.18404,0.98595 -0.48045,1.92444 -0.66662,2.1106 -0.35408,0.35408 -0.34342,0.18885 0.0964,-1.49324 0.58604,-2.24153 0.8829,-4.40286 0.97717,-7.11435 0.0704,-2.02496 0.023,-2.66313 -0.2968,-3.99815 -0.062,-0.2587 -0.16303,-0.68204 -0.22458,-0.94074 -0.53329,-2.24185 -1.72349,-6.31774 -2.12896,-7.29074 -0.0539,-0.12935 -0.16161,-0.4204 -0.23934,-0.64676 -0.14113,-0.41102 -0.23478,-0.65455 -0.4861,-1.26412 -0.0733,-0.17786 -0.17377,-0.42921 -0.2232,-0.55857 -0.20772,-0.54359 -0.79611,-1.87006 -1.33011,-2.99861 -0.53668,-1.1342 -2.64517,-4.79836 -2.97008,-5.16143 -0.0227,-0.0254 -0.11964,0.0189 -0.21539,0.0983 -0.26298,0.21826 -0.41956,0.0447 -0.41956,-0.46515 0,-0.43679 -0.0403,-0.57591 -0.44205,-1.52729 -0.0956,-0.22637 -0.24071,-0.57033 -0.32247,-0.76435 -0.38873,-0.92254 -0.45374,-1.21156 -0.45985,-2.044575 -0.007,-0.88828 0.0777,-1.22865 0.55646,-2.24755 0.27274,-0.58052 1.22148,-2.03847 1.5687,-2.41065 0.12068,-0.12935 0.67135,-0.79124 1.22373,-1.47085 l 1.00431,-1.23565 -0.51869,-0.64582 c -1.27265,-1.584574 -2.7346,-2.774774 -4.31524,-3.513114 -0.32338,-0.15106 -0.67985,-0.32178 -0.79215,-0.37938 -0.11231,-0.0576 -0.30762,-0.10472 -0.43403,-0.10472 -0.12642,0 -0.26255,-0.0529 -0.30252,-0.11759 -0.10825,-0.17516 -0.44355,-0.14279 -0.89328,0.0862 -0.75985,0.38695 -1.22649,0.49821 -2.09698,0.49997 -1.91318,0.004 -3.8883,-1.07754 -4.87242,-2.66775 l -0.30575,-0.49407 -0.56069,0.16435 c -2.034,0.59621 -3.46889,0.87045 -5.91116,1.12977 -3.04437,0.32325 -3.8765,0.43705 -5.11528,0.69958 -0.32337,0.0685 -0.76043,0.15398 -0.97122,0.18987 -0.2108,0.0359 -0.41236,0.11234 -0.44792,0.16987 -0.0356,0.0575 -0.21715,0.1046 -0.40354,0.1046 -0.18639,0 -0.36799,0.0471 -0.40354,0.1046 -0.0356,0.0575 -0.26358,0.13832 -0.50671,0.17953 -0.24314,0.0412 -0.73311,0.12644 -1.08882,0.18939 -2.32939,0.41222 -4.34373,0.3981 -5.29053,-0.0371 -1.07209,-0.49277 -1.70685,-0.98969 -3.41153,-2.6707 -0.62307,-0.61443 -1.73781,-1.70149 -2.4772,-2.41571 -1.49643,-1.44547 -2.80977,-2.82443 -3.69595,-3.88061 -0.88366,-1.05318 -1.18744,-1.31755 -2.4697,-2.14929 -1.3629,-0.88405 -1.68184,-1.18617 -2.17537,-2.06066 -0.31779,-0.5631 -1.08176,-1.25299 -1.38752,-1.25299 -0.20362,0 -1.0549,-0.82655 -1.19188,-1.15726 -0.0783,-0.18896 -0.12526,-0.52181 -0.10442,-0.73968 0.0294,-0.30703 0.0974,-0.40457 0.30248,-0.4337 0.32318,-0.0459 0.32619,-0.10224 0.0294,-0.55038 -0.1285,-0.19403 -0.23399,-0.4901 -0.23441,-0.65793 -8.5e-4,-0.3324 0.34755,-0.72473 0.59488,-0.66989 0.0851,0.0189 0.17679,-0.0715 0.20376,-0.20089 0.0833,-0.39927 0.2821,-0.55392 0.62425,-0.48549 0.20291,0.0406 0.37167,0.001 0.46195,-0.10746 0.21523,-0.25932 0.54805,-0.20761 1.0918,0.16964 0.62431,0.43314 0.97905,0.82241 1.61195,1.76886 0.49496,0.74016 1.01027,1.28913 1.2171,1.29657 0.0568,0.002 0.0682,-0.21505 0.0255,-0.48243 -0.0912,-0.57051 0.0957,-1.23221 0.39297,-1.39133 0.26369,-0.14112 0.67624,0.2131 0.78663,0.67541 0.042,0.17607 0.11495,0.37304 0.16203,0.43772 0.0471,0.0647 0.122,0.27634 0.16649,0.47037 0.0445,0.19402 0.13518,0.5909 0.20153,0.88194 0.0663,0.29104 0.14849,0.78798 0.18254,1.1043 0.0884,0.82124 0.24335,0.96045 4.03511,3.62494 0.4204,0.29541 0.87637,0.63542 1.01326,0.75556 0.1369,0.12014 0.4231,0.35073 0.63599,0.51242 0.21289,0.16169 0.44484,0.34804 0.51544,0.41411 0.0706,0.0661 0.49879,0.38224 0.95152,0.70262 0.45273,0.32037 1.29156,1.02046 1.86406,1.55574 0.96383,0.90116 1.41231,1.20614 2.01649,1.37126 0.3009,0.0822 1.91626,-0.17349 2.46945,-0.39092 0.12935,-0.0508 0.44685,-0.15647 0.70555,-0.23473 0.4141,-0.12527 0.8069,-0.26441 2.08493,-0.73853 l 0.32104,-0.1191 -0.73261,-0.46585 c -0.76081,-0.48378 -2.62275,-2.30351 -2.98582,-2.91815 -0.11448,-0.19381 -0.26744,-0.35237 -0.33989,-0.35237 -0.0725,0 -0.48643,-0.36739 -0.91993,-0.81642 -0.55726,-0.57722 -0.90745,-1.07454 -1.19522,-1.69739 -0.22387,-0.48453 -0.40703,-0.96068 -0.40703,-1.05812 0,-0.0974 -0.0529,-0.20986 -0.1176,-0.24983 -0.0647,-0.04 -0.11759,-0.17611 -0.11759,-0.30252 0,-0.12641 -0.0529,-0.33495 -0.11759,-0.46343 -0.0647,-0.12847 -0.17051,-0.3387 -0.23519,-0.46718 -0.0647,-0.12847 -0.11814,-0.30045 -0.11882,-0.38217 -6.8e-4,-0.0817 -0.23812,-0.46413 -0.52765,-0.84979 -0.37039,-0.49339 -0.48914,-0.73734 -0.40066,-0.82315 0.28838,-0.27969 1.22991,1.28858 1.76062,2.93259 0.14563,0.45116 0.41811,1.11984 0.60549,1.48596 0.34868,0.68127 1.13321,1.68957 1.23522,1.58756 0.0312,-0.0312 -0.0215,-0.31158 -0.11714,-0.62299 -0.0957,-0.3114 -0.23705,-0.8043 -0.31418,-1.09534 -0.47688,-1.79945 -0.8136,-2.62951 -1.3537,-3.33708 -0.62989,-0.8252 -0.51009,-1.41588 0.14004,-0.69047 0.57126,0.63741 1.05516,1.87473 1.28811,3.29368 0.0346,0.2108 0.10999,0.41236 0.16752,0.44791 0.0575,0.0356 0.1046,0.16808 0.1046,0.29449 0,0.12641 0.0485,0.32173 0.10771,0.43403 0.0592,0.11231 0.19868,0.41586 0.30987,0.67456 0.90025,2.09454 2.7845,4.05207 4.70287,4.88578 1.50866,0.65565 3.07005,0.89675 4.5067,0.69589 0.55824,-0.078 1.17373,-0.20601 1.36776,-0.28436 l 0.35277,-0.14246 -1.35231,-0.0728 c -1.88377,-0.1014 -3.25859,-0.54398 -4.7625,-1.53314 -0.87331,-0.57439 -1.72989,-1.38282 -2.20285,-2.07901 -0.19772,-0.29104 -0.50257,-0.68791 -0.67745,-0.88194 -0.22301,-0.24743 -0.31982,-0.48549 -0.32419,-0.79719 -0.003,-0.24443 -0.0557,-0.50902 -0.11613,-0.58797 -0.0605,-0.0789 -0.23488,-0.46105 -0.38762,-0.8491 -0.6,-1.52437 -1.60057,-3.15424 -2.0244,-3.29762 -0.11318,-0.0383 -0.20579,-0.17189 -0.20579,-0.29688 0,-0.19227 0.0848,-0.22726 0.55074,-0.22726 1.14448,0 2.44057,-0.65277 3.72143,-1.8743 0.37708,-0.35961 0.8434,-0.75375 1.03627,-0.87587 0.50134,-0.31742 0.28052,-0.44337 -0.76775,-0.4379 -1.44751,0.008 -2.49156,0.39805 -3.96562,1.48319 -0.94771,0.69766 -1.87112,1.11692 -2.46003,1.11692 h -0.46689 v -0.29399 c 0,-0.24848 0.0548,-0.29398 0.35406,-0.29398 0.49655,0 1.27211,-0.38463 2.68967,-1.33393 1.51554,-1.01491 2.53367,-1.37037 3.92811,-1.37142 0.85854,-6.4e-4 0.93305,-0.0174 0.67168,-0.1508 -0.16169,-0.0825 -0.53211,-0.22002 -0.82315,-0.30551 -0.29104,-0.0855 -0.65072,-0.20283 -0.79928,-0.26077 -0.38498,-0.15014 -2.41973,-0.13052 -2.81116,0.0271 -1.32692,0.53436 -2.13566,1.20743 -3.09059,2.57218 -0.15839,0.22636 -0.35241,0.47803 -0.43115,0.55926 -0.0787,0.0812 -0.17664,0.2532 -0.21758,0.38217 -0.0409,0.12897 -0.11439,0.23449 -0.16324,0.23449 -0.0489,0 -0.21518,0.25136 -0.3696,0.55857 -0.24403,0.48545 -0.28132,0.72787 -0.28491,1.85208 l -0.004,1.29352 0.49555,0.99953 c 0.55189,1.11319 1.43686,2.16762 2.54435,3.03154 0.80388,0.62708 2.08715,1.31939 2.44565,1.31939 0.12839,0 0.3143,0.0808 0.41311,0.17967 0.27803,0.27802 -0.0101,0.55722 -0.47978,0.46492 -0.34184,-0.0672 -1.82297,-0.7376 -1.95094,-0.88307 -0.0323,-0.0368 -0.24401,-0.19074 -0.47037,-0.34218 -1.19067,-0.79656 -2.79971,-2.90209 -3.25905,-4.26466 -0.27997,-0.83048 -0.27511,-2.26779 0.0112,-3.30636 0.18352,-0.66574 1.14248,-2.40491 1.47048,-2.66684 0.0405,-0.0323 0.22749,-0.26503 0.41554,-0.51709 0.41401,-0.55495 0.92021,-1.05389 1.5031,-1.48156 l 0.43525,-0.31934 -0.49404,-0.14816 c -0.27172,-0.0815 -0.62633,-0.1888 -0.78802,-0.23848 -0.16169,-0.0497 -0.53211,-0.1555 -0.82315,-0.23518 -0.29104,-0.0797 -0.66146,-0.18551 -0.82315,-0.23519 -0.16169,-0.0497 -0.53211,-0.15488 -0.82315,-0.23379 -0.29104,-0.0789 -0.65381,-0.19229 -0.80615,-0.25195 -0.29717,-0.11638 -0.82771,0.0215 -1.51988,0.39513 -0.21216,0.11451 -0.48685,0.20821 -0.61042,0.20821 -0.12357,0 -0.25351,0.0467 -0.28877,0.10371 -0.10461,0.16926 -1.5125,0.27502 -1.86698,0.14024 -0.58381,-0.22196 -0.67412,-1.0009 -0.17781,-1.53363 0.13045,-0.14002 0.21863,-0.26835 0.19596,-0.28518 -0.42514,-0.3156 -1.10696,-0.59625 -2.03312,-0.83689 -0.62965,-0.1636 -1.30124,-0.37834 -1.49244,-0.47721 -0.47002,-0.24306 -0.65694,-0.6696 -0.48873,-1.11523 0.11442,-0.30315 0.0901,-0.39136 -0.21254,-0.77224 -0.18794,-0.23649 -0.34171,-0.5468 -0.34171,-0.68957 0,-0.32179 0.34547,-0.64882 0.68542,-0.64882 0.16978,0 0.25532,-0.0727 0.25532,-0.21696 0,-0.31877 0.37769,-0.60619 0.79659,-0.60619 0.28404,0 0.4012,-0.0728 0.52073,-0.32338 0.24354,-0.51066 0.69866,-0.47961 2.08175,0.142 0.97357,0.43756 1.39111,0.55719 2.25747,0.64682 1.17891,0.12197 1.45556,0.25273 2.85292,1.34837 0.44393,0.34808 0.94664,0.6612 1.11713,0.69582 0.41154,0.0836 1.14133,0.26597 1.7211,0.43019 0.2587,0.0733 0.65557,0.17844 0.88194,0.2337 1.50358,0.36704 2.26861,0.58915 2.39738,0.69603 0.19632,0.16292 0.42484,-0.0633 0.42484,-0.4206 0,-0.35136 0.4779,-1.37075 0.96401,-2.05627 2.21611,-3.12523 2.91852,-3.84634 4.21007,-4.32218 0.22636,-0.0834 0.5174,-0.1913 0.64676,-0.23978 0.79843,-0.29923 1.16388,-0.37674 2.07023,-0.43908 1.6194,-0.1114 2.14505,0.10514 3.4599,1.42532 1.69085,1.69771 2.44608,2.56347 2.74215,3.14352 0.1518,0.29738 0.40705,0.61083 0.56723,0.69656 0.3111,0.16649 0.62669,0.7852 0.62669,1.22859 0,0.14843 0.10583,0.51677 0.23518,0.81854 0.42999,1.0031 0.21586,1.87079 -0.40305,1.63329 -0.26289,-0.10088 -0.22919,-0.48626 0.0503,-0.57496 0.27916,-0.0886 0.28828,-0.16475 0.0701,-0.58525 l -0.16506,-0.31815 -0.0781,0.24591 c -0.0429,0.13526 -0.11417,0.24551 -0.15832,0.245 -0.0967,-10e-4 -0.37425,-0.57641 -0.37425,-0.77587 0,-0.084 -0.0959,-0.11685 -0.23519,-0.0804 -0.20729,0.0542 -0.23683,6.1e-4 -0.2491,-0.45198 -0.0122,-0.45213 -0.0229,-0.4715 -0.0891,-0.16215 -0.0747,0.349 -0.43922,0.55117 -0.58845,0.32635 -0.0401,-0.0604 -0.36393,-0.26948 -0.71964,-0.46462 -0.62241,-0.34145 -1.02088,-0.56686 -1.96968,-1.11422 -1.05537,-0.60884 -1.0511,-0.60781 -1.67435,-0.40395 -0.31609,0.10338 -0.86189,0.18797 -1.2129,0.18797 -0.78049,0 -1.00948,0.16155 -1.72535,1.21721 -0.33417,0.49279 -0.56718,0.735 -0.63848,0.6637 -0.0713,-0.0713 -0.0671,-0.20969 0.0116,-0.37923 0.43296,-0.93334 0.6708,-1.36638 0.91826,-1.67187 l 0.28074,-0.34658 1.03542,-0.0108 c 0.56969,-0.006 1.15095,-0.0748 1.29227,-0.15319 0.48416,-0.26845 0.91653,-0.16276 1.86379,0.45562 0.86953,0.56763 2.37338,1.40104 2.52814,1.40104 0.0396,0 0.20406,-0.20179 0.36553,-0.44842 0.23328,-0.35631 0.26777,-0.49463 0.16788,-0.67337 -0.84498,-1.51199 -2.77534,-3.52094 -3.89811,-4.05679 -0.60681,-0.2896 -0.87748,-0.34827 -1.60673,-0.34827 -0.48234,0 -1.0304,0.0482 -1.21791,0.10721 -0.18751,0.059 -0.59228,0.17635 -0.89949,0.26086 -0.30721,0.0845 -0.55856,0.19501 -0.55856,0.24556 0,0.0506 -0.10584,0.0919 -0.23519,0.0919 -0.12935,0 -0.23518,0.0529 -0.23518,0.1176 0,0.0647 -0.10584,0.11759 -0.23519,0.11759 -0.12935,0 -0.23519,0.044 -0.23519,0.0977 0,0.0538 -0.14552,0.1719 -0.32337,0.26256 -0.43659,0.22256 -1.97486,1.7025 -2.37563,2.28555 -0.70217,1.02156 -0.9052,1.48647 -1.28983,2.95346 -0.22273,0.84948 -0.10312,1.80093 0.35305,2.80858 0.11712,0.2587 0.22902,0.57053 0.24867,0.69295 0.0397,0.24753 0.17174,0.33012 0.85887,0.53731 0.25871,0.078 0.69469,0.24321 0.96886,0.36713 0.27417,0.12391 0.59668,0.22529 0.7167,0.22529 0.12002,0 0.5307,0.10454 0.91263,0.2323 0.38192,0.12776 0.75552,0.23359 0.83022,0.23518 0.0747,0.002 0.26975,-0.22563 0.43344,-0.50495 0.34368,-0.58645 0.99244,-1.25604 1.21696,-1.25604 0.27656,0 0.16235,0.31571 -0.23919,0.66119 -0.7345,0.63194 -0.90371,1.37057 -0.36123,1.57682 0.16712,0.0635 0.3527,0.0853 0.41241,0.0484 0.19921,-0.12312 0.43599,-0.69596 0.52043,-1.25906 0.084,-0.56047 0.33989,-0.75794 0.48661,-0.37559 0.0895,0.23323 -0.27784,1.40757 -0.49726,1.58967 -0.28853,0.23946 -0.19134,0.34988 0.62604,0.71121 0.43657,0.19299 0.89959,0.39918 1.02894,0.45821 0.46009,0.20996 1.74811,0.58726 2.00478,0.58726 0.28966,0 0.40165,-0.26369 0.40426,-0.95191 0.001,-0.27346 -0.0806,-0.49713 -0.23113,-0.63337 l -0.23273,-0.21062 -0.0791,0.22179 c -0.2187,0.61306 -0.70094,0.79506 -1.19313,0.45032 -0.19494,-0.13655 -0.26135,-0.30089 -0.26135,-0.64676 0,-0.47834 0.0869,-0.56495 0.32648,-0.32537 0.10604,0.10604 0.18917,0.0923 0.35615,-0.0588 0.11981,-0.10842 0.35586,-0.19713 0.52456,-0.19713 h 0.30672 l -0.0666,-0.41058 c -0.0405,-0.24965 -0.009,-0.4801 0.0806,-0.58796 0.12672,-0.15269 0.0865,-0.17738 -0.28855,-0.17738 -0.5572,0 -0.50012,-0.20798 0.11512,-0.41949 0.39944,-0.13732 0.50148,-0.13522 0.73083,0.0151 0.29847,0.19556 0.35975,0.72879 0.12666,1.10203 -0.10973,0.1757 -0.10662,0.26416 0.0144,0.40998 0.19271,0.2322 0.32884,0.23459 0.55371,0.01 0.0969,-0.0969 0.31804,-0.20594 0.49137,-0.24229 0.17334,-0.0363 0.40705,-0.11579 0.51935,-0.17656 0.48152,-0.26055 0.55044,-0.15769 0.47747,0.71266 -0.0598,0.71351 -0.0433,0.82314 0.12443,0.82314 0.26721,0 0.24224,0.10417 -0.0871,0.36319 -0.15428,0.12136 -0.31542,0.40679 -0.3581,0.63429 -0.0749,0.39923 -0.34891,0.56728 -0.44669,0.27394 -0.0335,-0.10054 -0.12075,-0.0877 -0.31129,0.0457 l -0.26472,0.18542 0.44848,0.0678 c 1.15168,0.17418 2.3259,0.29114 2.40877,0.23992 0.20146,-0.12451 0.45035,-1.3159 0.4502,-2.15504 -9e-5,-0.4895 -0.086,-1.33979 -0.19093,-1.88953 -0.25109,-1.31555 -0.32042,-1.88149 -0.2305,-1.88149 0.0404,0 0.28305,0.1323 0.53918,0.29399 0.25613,0.16169 0.52038,0.29398 0.58722,0.29398 0.0668,0 0.21341,0.0478 0.32572,0.10613 0.1123,0.0584 0.44231,0.16779 0.73336,0.24315 0.29104,0.0754 0.69167,0.18635 0.89029,0.24665 0.19862,0.0603 0.59737,0.10962 0.8861,0.10962 h 0.52498 l 0.36793,-0.74613 c 0.68806,-1.3953 1.98222,-2.69228 3.44551,-3.453 0.63369,-0.32944 1.02883,-0.46717 2.13993,-0.7459 0.6018,-0.15096 2.39084,-0.0889 3.7985,0.13179 0.45273,0.071 3.25731,0.17433 6.2324,0.22967 2.9751,0.0553 5.85905,0.15377 6.4088,0.21871 1.67144,0.19746 2.11929,0.27582 2.1851,0.38231 0.0347,0.0561 0.14995,0.102 0.25616,0.102 0.26122,0 1.20411,1.01411 1.20411,1.29506 0,0.20628 0.34146,1.25768 0.59145,1.82114 0.0574,0.12935 0.23127,0.62412 0.38642,1.09949 0.19429,0.59531 0.30105,0.79172 0.34305,0.6311 0.0432,-0.16531 0.19361,-0.2521 0.51656,-0.29813 0.25057,-0.0357 0.72016,-0.12421 1.04354,-0.19666 0.32338,-0.0725 0.77317,-0.15853 0.99954,-0.19128 0.22636,-0.0328 0.5174,-0.1056 0.64676,-0.16185 0.12935,-0.0563 0.39393,-0.12999 0.58796,-0.16384 0.19403,-0.0339 0.5909,-0.11193 0.88194,-0.17352 1.35904,-0.28758 2.58695,-0.5186 3.88056,-0.73009 0.42039,-0.0687 1.82268,-0.15234 3.1162,-0.18581 2.97075,-0.0769 4.45444,0.1736 6.08542,1.02724 0.44682,0.23386 0.73768,0.40467 0.79375,0.46615 0.0323,0.0354 0.244,0.19332 0.47037,0.35083 1.15848,0.80606 2.20703,2.29416 2.93888,4.17081 0.34549,0.88593 0.64866,2.97359 0.55857,3.84643 -0.0691,0.66964 -0.0406,0.75501 0.56147,1.68043 0.38964,0.59891 1.40476,2.55866 1.76642,3.41018 0.39179,0.92244 0.52716,1.24058 0.71304,1.6757 0.26085,0.61063 0.32503,0.77318 0.75442,1.91088 0.20749,0.54974 0.47711,1.22385 0.59917,1.49802 0.12205,0.27417 0.22192,0.5527 0.22192,0.61896 0,0.0662 0.05,0.21235 0.11119,0.32466 0.18709,0.34353 0.77386,1.99696 1.34529,3.79076 0.29875,0.9378 0.59596,1.8676 0.66048,2.06622 0.0645,0.19862 0.1173,0.523094 0.1173,0.721054 v 0.35992 l 1.499302,0.0718 c 1.48369,0.071 2.25314,0.15621 3.85116,0.42641 0.93997,0.15894 1.93876,0.29978 3.29259,0.46429 2.10849,0.2562 3.33033,0.4899 4.90949,0.93901 0.24254,0.069 0.61295,0.17354 0.82315,0.23238 0.2102,0.0588 0.77905,0.21901 1.26412,0.35597 2.97368,0.83962 5.67596,1.16485 7.9375,0.95531 0.84079,-0.0779 1.63259,-0.16229 1.75955,-0.18753 0.26362,-0.0524 0.6511,0.24972 0.6511,0.50769 0,0.0953 0.91485,1.07928 2.03299,2.18663 2.18089,2.15984 2.46823,2.56901 2.86413,4.078445 0.16807,0.64079 0.26941,0.81025 0.64408,1.077 0.61503,0.43788 0.86331,0.94209 0.69775,1.41701 -0.0859,0.24646 -0.0885,0.40364 -0.008,0.48409 0.18446,0.18446 0.14183,0.4819 -0.11605,0.80974 -0.12935,0.16445 -0.23518,0.45085 -0.23518,0.63646 0,0.1856 -0.0916,0.46823 -0.20354,0.62805 -0.11195,0.15983 -0.20972,0.34358 -0.21728,0.40834 -0.008,0.0648 -0.0218,0.19781 -0.0316,0.29565 -0.01,0.0978 -0.13666,0.23014 -0.28181,0.29399 -0.14514,0.0638 -0.28016,0.22191 -0.30004,0.35126 -0.0663,0.43156 -0.28988,0.75204 -0.59945,0.85936 -0.53899,0.18686 -0.83021,-0.0204 -1.95146,-1.38853 -0.45053,-0.54974 -1.50653,-1.66099 -2.34667,-2.46944 -0.84014,-0.80845 -2.48176,-2.42241 -3.64805,-3.58658 l -2.12052,-2.116655 -2.76343,0.004 c -1.51988,0.002 -3.4778,0.0693 -4.35092,0.14926 -2.29763,0.21046 -5.81502,0.3763 -9.5838,0.45186 -4.893012,0.0981 -6.453482,-0.16365 -7.929282,-1.33005 -0.50586,-0.39981 -0.79227,-0.68459 -2.2865,-2.27352 -0.33451,-0.35572 -1.92989,-2.04563 -3.54529,-3.75535 l -2.93708,-3.108604 -0.0291,0.34517 c -0.1339,1.587324 -0.89462,3.967994 -2.34605,7.341934 -0.0974,0.22636 -0.22457,0.53063 -0.28265,0.67615 -0.2826,0.70804 -0.34897,0.87194 -0.45234,1.11713 -0.0614,0.14552 -0.22705,0.635 -0.36821,1.08773 -0.14116,0.45273 -0.29864,0.92898 -0.34996,1.058335 -0.0513,0.12935 -0.12612,0.39393 -0.16622,0.58796 -0.0401,0.19403 -0.12678,0.56444 -0.19261,0.82315 -0.31403,1.23404 -0.54661,2.70465 -0.68146,4.30888 -0.0579,0.68832 -0.13926,1.35883 -0.1809,1.49002 -0.0935,0.29446 -0.0294,0.35127 1.25765,1.11565 2.66798,1.58451 4.54214,3.42397 6.91196,6.784 1.54858,2.19563 3.14937,3.93145 5.06449,5.49169 0.93666,0.76309 3.90947,2.80273 4.51542,3.09803 0.19403,0.0945 0.60413,0.42075 0.91134,0.72488 l 0.55857,0.55296 v 0.70563 c 0,0.38809 -0.0471,0.82717 -0.10477,0.97573 -0.0576,0.14857 -0.22043,0.667 -0.36179,1.15206 -0.78344,2.68823 -1.20949,3.74063 -2.17798,5.37987 -0.74924,1.26813 -0.9021,1.54418 -1.22087,2.20486 -0.47581,0.98616 -0.69487,1.49901 -1.19992,2.80923 -0.56527,1.46642 -1.52569,1.99676 -2.23703,1.23528 z m -28.75089,-21.50681 c 1.17836,-0.90228 1.18925,-0.91235 2.09783,-1.94048 0.45725,-0.51741 1.19344,-1.32903 1.63598,-1.80361 l 0.80462,-0.86286 v -1.18666 c 0,-1.18237 -0.0767,-1.57878 -0.48857,-2.52499 -0.11934,-0.27417 -0.21698,-0.5527 -0.21698,-0.61895 0,-0.0663 -0.0478,-0.21236 -0.10614,-0.32467 -0.19248,-0.37033 -0.51407,-1.75115 -0.70483,-3.02641 -0.37253,-2.49039 -0.42325,-5.08229 -0.172,-8.790045 l 0.0777,-1.14652 h -0.24598 c -0.13529,0 -0.27868,0.0529 -0.31865,0.11759 -0.04,0.0647 -0.19127,0.11759 -0.3362,0.11759 -0.14494,0 -0.3138,0.0421 -0.37524,0.0936 -0.0614,0.0515 -0.32338,0.1608 -0.58208,0.24296 -0.25871,0.0822 -0.57621,0.19531 -0.70556,0.25147 -0.12935,0.0562 -0.57914,0.21488 -0.99954,0.35272 -0.73227,0.24011 -1.15655,0.40191 -1.52066,0.57994 -0.12518,0.0612 -0.16047,0.27558 -0.1376,0.83596 0.0169,0.4145 0.0624,0.80482 0.10106,0.86738 0.0387,0.0625 0.11565,0.5666 0.17108,1.120085 0.0554,0.5535 0.16063,1.58844 0.23377,2.29987 0.14986,1.45759 0.17814,8.31001 0.0389,9.43681 -0.0865,0.70016 -0.20503,0.91088 -0.32968,0.58604 -0.0314,-0.0819 0.0193,-0.88888 0.11269,-1.79329 0.24348,-2.35731 0.11239,-6.56623 -0.30574,-9.81706 -0.0624,-0.48507 -0.16793,-1.331725 -0.23453,-1.881475 -0.0666,-0.54974 -0.15296,-1.10943 -0.19193,-1.24374 l -0.0708,-0.2442 -2.31406,0.75708 c -1.27274,0.41639 -2.35149,0.79124 -2.39722,0.83299 -0.0457,0.0418 0.1693,0.34013 0.47783,0.66306 1.16885,1.223325 2.13617,2.750455 2.86717,4.526475 0.25523,0.62009 0.3162,0.78527 0.5426,1.46991 0.47838,1.44666 1.21055,5.26962 1.55396,8.11389 0.25521,2.11374 0.34667,2.89822 0.44324,3.80195 0.12321,1.15299 0.19606,1.28824 0.53136,0.9864 0.13869,-0.12486 0.61759,-0.50682 1.06421,-0.8488 z m 65.400652,-11.34948 c 0.0951,-0.50711 0.003,-0.77239 -0.4232,-1.21836 -0.34515,-0.36117 -0.47032,-0.83792 -0.22,-0.83792 0.16075,0 0.74813,0.62073 1.01518,1.0728 0.10991,0.18607 0.26888,0.33831 0.35327,0.33831 0.24117,0 -0.2612,-0.88894 -0.67546,-1.19522 -0.35293,-0.26093 -0.45862,-0.60637 -0.22896,-0.74831 0.0676,-0.0418 0.36558,0.16677 0.66223,0.46343 0.60056,0.60056 0.62602,0.61511 0.62602,0.35794 0,-0.0998 -0.24425,-0.44255 -0.54277,-0.7617 -0.34077,-0.3643 -0.5172,-0.6469 -0.47406,-0.75931 0.11664,-0.30397 0.40106,-0.19985 0.79578,0.29132 0.40836,0.50814 0.57382,0.58581 0.57382,0.26934 0,-0.11056 -0.23812,-0.41964 -0.52916,-0.68685 -0.29104,-0.2672 -0.52917,-0.54882 -0.52917,-0.62581 0,-0.27383 0.3654,-0.27933 0.65228,-0.01 0.15814,0.14857 0.32743,0.23014 0.37619,0.18127 0.0488,-0.0489 -0.0701,-0.21907 -0.26412,-0.3782 -0.86397,-0.70858 -0.89809,-0.74803 -0.83069,-0.96041 0.0789,-0.24862 -0.40136,-1.501435 -0.85558,-2.231865 -0.17204,-0.27665 -0.6795,-0.83228 -1.12768,-1.23472 -1.26945,-1.13989 -2.40237,-2.32676 -2.74919,-2.88007 -0.17407,-0.2777 -0.42509,-0.53282 -0.55783,-0.56691 -0.13274,-0.0341 -0.8976,0.0236 -1.6997,0.12833 -1.62176,0.21164 -2.91091,0.138 -5.30824,-0.30321 -1.09333,-0.20122 -1.94364,-0.41594 -4.92155,-1.24279 -1.97541,-0.54848 -2.08337,-0.56861 -5.29167,-0.98709 -0.48507,-0.0633 -1.19944,-0.16391 -1.5875,-0.22365 -3.47105,-0.5343 -4.19909,-0.6176 -5.703242,-0.65254 -1.1951,-0.0278 -1.35722,-0.0561 -1.3945,-0.24362 -0.0232,-0.11671 0.0393,-0.27177 0.13885,-0.34458 0.16025,-0.11718 0.13588,-0.28686 -0.21223,-1.477684 -0.43645,-1.49302 -0.75768,-2.48946 -1.05919,-3.28558 -0.11023,-0.29104 -0.30626,-0.82021 -0.43563,-1.17593 -0.12938,-0.35571 -0.28298,-0.76582 -0.34135,-0.91134 -0.26371,-0.65742 -0.34802,-0.86995 -0.44318,-1.11713 -0.056,-0.14552 -0.15706,-0.39687 -0.22452,-0.55856 -0.0675,-0.16169 -0.3701,-0.92898 -0.67252,-1.7051 -0.30241,-0.77611 -0.62071,-1.56986 -0.70732,-1.76388 -0.74237,-1.66301 -1.07554,-2.34158 -1.60749,-3.27396 -0.69442,-1.21716 -0.91962,-1.50658 -0.91962,-1.18191 0,0.22809 -0.20707,0.93287 -0.36721,1.24987 -0.0567,0.11231 -0.10316,0.25864 -0.10316,0.32519 0,0.0665 -0.19422,0.41351 -0.4316,0.77103 -0.69668,1.04928 -2.13853,1.99753 -3.97812,2.61627 -0.55493,0.18665 -1.6379,0.35401 -3.2632,0.50428 -0.82462,0.0763 -1.4993,0.18964 -1.4993,0.25198 0,0.0623 0.33073,0.47126 0.73495,0.90871 1.06542,1.15299 1.9264,2.71654 2.30093,4.17854 0.0663,0.2587 0.1776,0.68817 0.2474,0.95438 0.0698,0.26621 0.12839,0.74246 0.1302,1.05833 l 0.003,0.57432 0.89635,0.94074 c 1.70135,1.785624 2.80644,2.959764 4.3231,4.593274 3.30167,3.55605 4.1312,4.28188 5.41608,4.73905 1.18416,0.42132 5.010682,0.52637 9.995372,0.2744 2.84734,-0.14393 4.08987,-0.22348 7.9375,-0.50817 1.67305,-0.1238 4.20792,-0.0801 5.13492,0.0885 0.25828,0.047 0.39295,0.14952 0.43939,0.33456 0.0368,0.14674 1.00277,1.18648 2.14654,2.310535 3.46433,3.40461 5.71325,5.65751 6.30681,6.31796 0.62647,0.69707 0.83643,0.6879 0.97346,-0.0425 z M -171.7562,79.067671 c 0.14856,-0.0579 0.50824,-0.16981 0.79928,-0.24859 0.52623,-0.14245 0.69994,-0.20189 1.32845,-0.45457 0.18091,-0.0727 0.43828,-0.13224 0.57196,-0.13224 0.25544,0 1.09998,-0.41927 1.38025,-0.68522 0.37697,-0.35772 -0.50975,-1.41192 -1.07601,-1.27925 -0.1454,0.0341 -0.63479,0.19145 -1.08752,0.34975 -1.6307,0.57016 -4.5224,0.48262 -6.08541,-0.18422 -0.65991,-0.28154 -0.57058,-0.004 0.24184,0.75211 0.96363,0.89652 1.28494,1.12216 2.1982,1.54368 0.25871,0.11941 0.54975,0.26502 0.64676,0.32358 0.23155,0.13978 0.74401,0.14686 1.0822,0.015 z m 54.6831,-0.0768 c 1.55142,-0.12941 3.45336,-0.43478 4.14813,-0.666 1.35645,-0.45144 3.05036,-1.7187 3.42464,-2.56205 0.43789,-0.98669 0.59656,-1.57092 0.68667,-2.52824 0.0365,-0.38806 0.077,-0.78493 0.0899,-0.88195 0.0382,-0.28738 -0.14132,-2.02871 -0.24858,-2.41065 -0.45706,-1.62765 -0.79327,-2.31498 -1.73164,-3.5401 -1.38778,-1.81187 -2.72963,-2.63527 -5.05549,-3.10223 -0.78184,-0.15696 -3.96891,-0.0964 -5.33817,0.10149 -1.22122,0.17647 -3.12299,0.50036 -4.17454,0.71095 -0.32337,0.0648 -0.77317,0.14838 -0.99953,0.18582 -0.22637,0.0374 -0.59678,0.11487 -0.82315,0.17207 -0.22637,0.0572 -0.72907,0.16516 -1.11713,0.23991 -0.38806,0.0748 -0.91722,0.18182 -1.17593,0.23792 -0.2587,0.0561 -0.67419,0.13459 -0.92332,0.17442 l -0.45295,0.0724 0.0599,0.3746 c 0.0569,0.35569 0.18296,0.88747 0.44426,1.8739 0.10105,0.38145 0.16289,0.44097 0.45812,0.44097 0.18772,0 0.37024,-0.0468 0.40561,-0.10403 0.0354,-0.0572 0.21046,-0.13224 0.38911,-0.16671 0.17865,-0.0345 0.53649,-0.12347 0.79519,-0.19777 2.4371,-0.69993 5.49377,-1.00645 5.98441,-0.60011 0.24326,0.20147 0.20427,0.68242 -0.0488,0.60161 -0.39729,-0.12686 -2.34144,-0.13008 -2.99582,-0.005 -1.44517,0.27633 -2.37774,0.50309 -3.42562,0.83297 -0.39655,0.12483 -0.79607,0.22697 -0.88783,0.22697 -0.32761,0 -0.40876,0.22412 -0.30945,0.8547 0.13516,0.85818 0.32756,2.26568 0.40772,2.98267 l 0.0675,0.60358 0.54514,0.0817 c 0.29983,0.0449 0.86265,0.12624 1.2507,0.18072 2.45014,0.34397 4.17968,0.65615 5.11528,0.92328 1.0846,0.30968 1.29488,0.39714 1.75343,0.72932 0.50337,0.36463 1.267,1.42582 1.53233,2.12942 0.21952,0.58209 0.37442,0.95601 0.49092,1.18503 0.0571,0.11231 0.10388,0.28776 0.10388,0.38991 0,0.39637 0.24294,0.66417 0.53584,0.59066 0.15473,-0.0388 0.61341,-0.0983 1.01927,-0.13217 z m -53.88382,-2.57654 c 1.48304,-0.37435 2.08112,-0.66027 2.74286,-1.3113 0.74786,-0.73575 0.93206,-1.22144 0.88251,-2.32698 -0.0562,-1.25427 -0.45037,-2.06634 -1.55884,-3.21158 -0.6859,-0.70866 -1.02433,-0.94748 -2.06095,-1.4544 -1.60665,-0.78565 -1.95816,-0.92246 -2.9779,-1.15897 -0.76028,-0.17634 -0.89785,-0.0986 -2.56736,1.45111 -0.90562,0.84063 -2.09432,1.48098 -2.74919,1.48098 -0.43351,0 -0.45616,0.18786 -0.0885,0.73396 0.38241,0.568 0.93975,1.71784 1.43968,2.9702 0.28487,0.71362 0.64187,1.44871 0.83747,1.72443 0.24825,0.34993 1.39504,0.84694 2.51726,1.09096 0.94679,0.20587 2.78967,0.21183 3.58296,0.0116 z m -4.91537,-1.73337 c -0.0801,-0.0801 -0.14111,-0.46357 -0.14111,-0.88662 0,-0.88415 0.33468,-1.67689 0.70795,-1.67689 0.28581,0 0.28767,-0.0348 -0.0318,0.59527 -0.201,0.39643 -0.26242,0.71263 -0.25559,1.31561 0.009,0.80939 -0.0304,0.90173 -0.27946,0.65263 z m 0.79963,-0.0679 c 0,-0.0503 0.0734,-0.19625 0.16316,-0.32437 0.31155,-0.4448 0.46572,-1.17912 0.32956,-1.56971 -0.15078,-0.43254 0.0265,-0.61892 0.27572,-0.28993 0.42522,0.56128 -0.0834,2.26145 -0.68024,2.27363 -0.0485,9.9e-4 -0.0882,-0.0393 -0.0882,-0.0896 z m 4.66161,-0.46714 c -0.12811,-0.455 -0.23637,-1.03471 -0.21109,-1.13034 0.0278,-0.10521 -0.32696,-0.41746 -0.48177,-0.42402 -0.0485,-0.002 -0.0882,0.0921 -0.0882,0.20927 0,0.23195 -0.40732,0.72773 -0.59789,0.72773 -0.18517,0 -0.69563,-0.55697 -0.69563,-0.75901 0,-0.23314 0.0269,-0.22922 0.34997,0.051 0.29733,0.25788 0.47318,0.21786 0.47318,-0.10769 0,-0.11762 0.072,-0.27358 0.15994,-0.34659 0.088,-0.073 0.13585,-0.25876 0.1064,-0.41279 -0.0294,-0.15403 0.006,-0.39182 0.0794,-0.52842 l 0.13292,-0.24836 h -0.41571 c -0.48054,0 -0.55403,-0.17498 -0.11931,-0.28408 0.42954,-0.10781 0.74096,0.10551 0.78389,0.53696 0.0618,0.62114 0.34107,0.67397 0.94533,0.17883 l 0.52577,-0.43083 0.19421,0.2146 c 0.10682,0.11804 0.19422,0.2741 0.19422,0.34681 0,0.0727 0.0612,0.26656 0.13604,0.43079 0.10567,0.2319 0.17133,0.26932 0.29399,0.16752 0.21445,-0.17797 0.20793,0.0208 -0.0185,0.56263 -0.097,0.23218 -0.17639,0.5184 -0.17639,0.63604 0,0.33317 -0.2251,0.39058 -0.34632,0.0883 -0.06,-0.14968 -0.1125,-0.21227 -0.1166,-0.1391 -0.0102,0.18264 -0.72353,0.8665 -0.9038,0.8665 -0.0804,0 -0.17221,-0.0926 -0.20408,-0.20579 z m 0.98385,-1.14889 c 0.28075,-0.65497 0.28516,-0.7278 0.0578,-0.95518 -0.15679,-0.15679 -0.17639,-0.12396 -0.17639,0.29544 0,0.25951 -0.0529,0.50454 -0.11759,0.54451 -0.0647,0.04 -0.11759,0.19872 -0.11759,0.35278 0,0.15405 -0.0529,0.3128 -0.1176,0.35277 -0.0647,0.04 -0.11759,0.12625 -0.11759,0.19173 0,0.23202 0.35813,-0.24352 0.58898,-0.78205 z m -0.47555,-0.63852 c 0.003,-0.29935 -0.0303,-0.37118 -0.12749,-0.27404 -0.15089,0.15089 -0.33901,1.05181 -0.24025,1.15057 0.11917,0.11918 0.36349,-0.46318 0.36774,-0.87653 z m -0.70139,0.0599 c 0,-0.0285 -0.0529,-0.0846 -0.11759,-0.12453 -0.0647,-0.04 -0.11759,-0.0166 -0.11759,0.0518 0,0.0685 0.0529,0.12453 0.11759,0.12453 0.0647,0 0.11759,-0.0233 0.11759,-0.0519 z m -4.11065,-2.2905 c -0.13164,-0.24596 -0.0354,-1.27043 0.12893,-1.37196 0.0556,-0.0344 0.10117,-0.15534 0.10117,-0.26877 0,-0.11344 0.15718,-0.35684 0.3493,-0.5409 0.30449,-0.29172 0.35912,-0.30907 0.42583,-0.13522 0.0454,0.11834 -0.0103,0.29535 -0.13688,0.43527 -0.29528,0.32628 -0.51678,1.01249 -0.51889,1.6075 -0.002,0.53057 -0.15002,0.64675 -0.34946,0.27408 z m 0.76078,0.11055 c -0.0383,-0.0619 0.0954,-0.2851 0.29693,-0.49601 l 0.36648,-0.38349 -0.0385,-0.66732 -0.0385,-0.66733 0.20579,0.11045 c 0.26964,0.14471 0.28349,1.16778 0.0212,1.56804 -0.23879,0.36445 -0.72244,0.68293 -0.81346,0.53566 z m 15.56747,1.92877 c -0.40397,-1.14429 -1.22575,-1.9845 -2.33982,-2.39228 -0.22637,-0.0829 -0.51741,-0.19423 -0.64676,-0.24751 -0.40679,-0.16755 -1.23416,-0.31656 -3.2338,-0.58241 -2.01727,-0.2682 -3.67189,-0.6896 -4.91351,-1.25135 -0.24032,-0.10873 -0.75445,-0.34052 -1.14251,-0.51508 -0.38805,-0.17456 -0.89076,-0.40072 -1.11712,-0.50257 -0.57469,-0.25856 -1.63749,-0.63497 -2.05788,-0.72883 -0.48643,-0.1086 -0.24034,0.1054 0.33145,0.28823 0.27792,0.0889 0.42724,0.20035 0.39186,0.29256 -0.0359,0.0936 0.12485,0.20591 0.43291,0.30224 1.45962,0.45644 3.31649,1.5876 4.35901,2.65539 0.6508,0.66657 1.18239,1.57712 1.31873,2.25882 l 0.0744,0.37198 0.83795,-0.0644 c 0.46088,-0.0354 1.18192,-0.12307 1.60231,-0.19482 0.42039,-0.0717 1.53164,-0.13029 2.46944,-0.1301 1.50554,3e-4 1.77391,0.0309 2.29306,0.26122 0.63337,0.28102 1.4599,1.00387 1.48592,1.29953 0.009,0.10006 0.0395,0.0585 0.0683,-0.0924 0.0287,-0.15089 -0.0675,-0.61359 -0.21389,-1.02822 z m -6.92161,-4.66899 c 0.3874,-0.30711 0.70123,-0.89622 0.70123,-1.31633 0,-0.35379 -0.0272,-0.40332 -0.15145,-0.27583 -0.0833,0.0855 -0.24847,0.36705 -0.36706,0.62576 -0.11858,0.2587 -0.35137,0.61589 -0.51731,0.79375 l -0.3017,0.32338 0.22779,-0.004 c 0.12528,-0.002 0.30911,-0.0682 0.4085,-0.14699 z m -0.21011,-1.03465 c 0.5011,-0.80955 0.54886,-0.9973 0.20718,-0.81444 -0.12859,0.0688 -0.26895,0.26912 -0.31192,0.44511 -0.043,0.17599 -0.17588,0.44618 -0.29537,0.60043 -0.11949,0.15424 -0.21725,0.32622 -0.21725,0.38217 0,0.25316 0.21048,0.0441 0.61736,-0.61327 z m -2.26366,-0.0493 c 0,-0.0323 -0.0265,-0.0588 -0.0588,-0.0588 -0.0323,0 -0.0588,0.0265 -0.0588,0.0588 0,0.0323 0.0265,0.0588 0.0588,0.0588 0.0323,0 0.0588,-0.0265 0.0588,-0.0588 z m 1.70575,-0.17745 c 0.1294,-0.20938 -0.0676,-0.58691 -0.30625,-0.58691 -0.32444,0 -0.41736,0.32872 -0.15013,0.53108 0.2654,0.20097 0.35956,0.21249 0.45638,0.0558 z m -11.14873,-2.11561 c -0.32434,-0.5383 -0.9056,-1.94641 -0.90697,-2.19715 -0.002,-0.39978 -0.16229,-0.68289 -0.32822,-0.58033 -0.0666,0.0412 -0.42973,-0.009 -0.8069,-0.11177 -1.2838,-0.34941 -2.44863,-0.65689 -2.92002,-0.7708 -0.2587,-0.0625 -0.65558,-0.16174 -0.88194,-0.22051 -0.22637,-0.0588 -0.64657,-0.15691 -0.93378,-0.21812 -0.2872,-0.0612 -0.58906,-0.20914 -0.67078,-0.32875 -0.25808,-0.37771 -0.66961,-0.74399 -1.27362,-1.13359 -0.51697,-0.33346 -0.71234,-0.38571 -1.67765,-0.44871 l -1.09254,-0.0713 -1.08577,-0.54608 c -1.07874,-0.54254 -1.55997,-0.67512 -1.46992,-0.40497 0.0259,0.0776 0.41392,0.27686 0.86235,0.44283 1.09817,0.40644 1.34448,0.55874 1.34448,0.83135 0,0.1627 -0.08,0.23105 -0.27046,0.23105 -0.14875,0 -0.32073,-0.0475 -0.38217,-0.10561 -0.17973,-0.16991 -2.22675,-0.83513 -2.56986,-0.83513 -0.59404,0 -0.12117,0.44115 1.08013,1.00768 1.54255,0.72746 1.49036,0.69591 1.53603,0.92829 0.0795,0.40443 -0.16762,0.42413 -0.87183,0.0695 -1.85836,-0.93584 -2.87276,-1.27546 -2.87276,-0.9618 0,0.22825 0.97737,0.91381 1.50015,1.05225 0.30674,0.0812 0.72023,0.1985 0.91885,0.2606 0.19861,0.0621 0.46584,0.11292 0.59384,0.11292 0.28633,0 0.51494,0.21491 0.51494,0.48409 0,0.2526 -0.20238,0.32459 -0.58556,0.20831 -0.16301,-0.0495 -0.53451,-0.14971 -0.82556,-0.22275 -0.29104,-0.0731 -0.69167,-0.18214 -0.89029,-0.24243 -0.19862,-0.0603 -0.48966,-0.10842 -0.64676,-0.10695 l -0.28563,0.003 0.35278,0.1589 c 0.19403,0.0874 0.5909,0.22206 0.88194,0.29927 1.03479,0.2745 1.36286,0.39297 2.22649,0.80397 l 0.87417,0.41601 0.50923,-0.1362 c 0.64505,-0.17252 0.93997,-0.1724 1.04679,4.4e-4 0.1006,0.16278 -0.36232,0.56892 -0.64847,0.56892 -0.21811,0 -1.40373,0.56039 -1.60701,0.75957 -0.0699,0.0685 -0.10515,0.19015 -0.0784,0.27042 0.0579,0.17369 1.33635,0.20278 1.64754,0.0375 0.11231,-0.0597 0.64086,-0.27731 1.17457,-0.48368 0.97733,-0.37791 1.14495,-0.38863 2.02824,-0.12972 0.22636,0.0664 0.61001,0.17654 0.85254,0.24487 0.24254,0.0683 0.63941,0.18012 0.88195,0.24844 0.24253,0.0683 0.62618,0.17908 0.85254,0.24613 0.22637,0.067 0.58405,0.14928 0.79484,0.18275 0.2108,0.0335 0.41236,0.10792 0.44791,0.16545 0.0356,0.0575 0.21715,0.1046 0.40355,0.1046 0.18639,0 0.36678,0.0451 0.40085,0.10024 0.0341,0.0551 0.69863,0.0948 1.47678,0.0882 0.77815,-0.007 1.39887,-0.0385 1.37939,-0.0709 z m 13.9006,-4.54768 c -0.1476,-0.27579 -0.45947,-0.37835 -0.45947,-0.15111 0,0.0674 0.10583,0.23611 0.23519,0.37495 0.12935,0.13885 0.24365,0.38799 0.254,0.55365 0.0139,0.2227 0.0316,0.19628 0.0678,-0.10134 0.0269,-0.2214 -0.017,-0.52567 -0.0975,-0.67615 z m 36.69979,47.939339 c 0,-0.0862 0.0353,-0.12152 0.0784,-0.0784 0.0431,0.0431 0.0431,0.11367 0,0.15679 -0.0431,0.0431 -0.0784,0.008 -0.0784,-0.0784 z m -31.16204,-21.435659 c -0.51366,-0.25849 -0.41506,-1.50222 0.13289,-1.67613 0.66074,-0.20971 1.16063,0.24698 1.16063,1.06032 0,0.69182 -0.58707,0.97131 -1.29352,0.61581 z m 16.88682,-2.37683 c -0.0507,-0.19403 -0.13971,-0.51153 -0.19777,-0.70556 -0.0581,-0.19403 -0.0652,-0.50248 -0.0158,-0.68544 l 0.0898,-0.33267 0.1538,0.69327 c 0.0846,0.3813 0.13317,0.8485 0.10796,1.03822 l -0.0458,0.34495 z m -10.07806,-12.77124 c -0.64897,-0.69472 -0.33334,-1.39403 0.55405,-1.22755 0.70874,0.13296 0.95393,0.90275 0.44852,1.40816 -0.28324,0.28324 -0.62715,0.22129 -1.00257,-0.18061 z m -25.50598,-6.93392 c 0,-0.13252 0.28788,-0.46197 0.40367,-0.46197 0.0372,0 0.44704,-0.29104 0.91069,-0.64676 1.19828,-0.91935 1.36372,-0.82885 0.32246,0.17639 -0.96312,0.9298 -1.63682,1.31354 -1.63682,0.93234 z m 7.29074,-1.09478 c 0,-0.0893 0.19844,-0.31231 0.44097,-0.4955 0.63308,-0.47817 0.66601,-0.52114 0.84754,-1.10595 0.22873,-0.73688 0.26528,-0.78266 0.37913,-0.47489 0.19653,0.53128 -0.33184,1.57774 -1.00746,1.9953 -0.45896,0.28365 -0.66018,0.30835 -0.66018,0.081 z m -0.76101,-0.42012 c -0.17067,-0.27616 0.33506,-1.34444 0.85776,-1.81185 0.25546,-0.22845 1.28244,-0.78059 1.45189,-0.78059 0.26181,0 0.0495,0.34885 -0.31869,0.52355 -0.87667,0.41601 -1.58273,1.29047 -1.58273,1.96025 0,0.22907 -0.28665,0.30536 -0.40823,0.10864 z m -5.76748,-0.43799 c -0.59699,-0.40158 -0.87984,-0.72194 -0.87984,-0.99652 0,-0.31679 0.293,-0.26554 0.44984,0.0787 0.0742,0.16273 0.37368,0.44016 0.66563,0.61651 0.50704,0.30626 0.69908,0.61632 0.38173,0.61632 -0.082,0 -0.35981,-0.14175 -0.61736,-0.31499 z m 1.5896,0.021 c 0,-0.0323 0.0265,-0.0588 0.0588,-0.0588 0.0323,0 0.0588,0.0265 0.0588,0.0588 0,0.0323 -0.0265,0.0588 -0.0588,0.0588 -0.0323,0 -0.0588,-0.0265 -0.0588,-0.0588 z m 0.47527,-0.50761 c -0.003,-0.0852 0.13771,-0.34975 0.312,-0.58797 0.47852,-0.65404 0.50625,-0.67691 0.50625,-0.41744 0,0.26148 -0.81029,1.2571 -0.81825,1.00541 z m 7.79813,-3.93294 c -0.24942,-0.22308 -0.57255,-0.46802 -0.71807,-0.5443 -0.31165,-0.16337 -0.33861,-0.31204 -0.0749,-0.41323 0.41424,-0.15895 1.64664,0.96299 1.36603,1.2436 -0.081,0.081 -0.26579,-0.0113 -0.57302,-0.28607 z m -6.66363,-1.3e-4 c -0.11711,-0.14466 -0.24301,-0.40965 -0.27977,-0.58885 -0.0368,-0.17921 -0.11294,-0.35431 -0.16926,-0.38912 -0.16674,-0.10305 -0.11164,-1.37966 0.0699,-1.61928 0.27252,-0.35972 0.39378,-0.13692 0.26899,0.49422 l -0.11407,0.57691 0.36555,0.76595 c 0.20106,0.42128 0.36556,0.82454 0.36556,0.89613 0,0.21807 -0.28142,0.14259 -0.5069,-0.13596 z"
       id="path19" /></g></svg>
