<?xml version="1.0" encoding="UTF-8" standalone="no"?>
<!-- Created with Inkscape (http://www.inkscape.org/) -->

<svg
   width="168.43877mm"
   height="157.21191mm"
   viewBox="0 0 168.43877 157.21191"
   version="1.1"
   id="svg1"
   xml:space="preserve"
   xmlns="http://www.w3.org/2000/svg"
   xmlns:svg="http://www.w3.org/2000/svg"><defs
     id="defs1" /><g
     id="layer1"
     transform="translate(227.36564,-664.20632)"><path
       style="fill:#4d4d4d"
       d="m -195.96013,820.89143 c -0.62672,-0.79674 -0.65819,-0.99076 -0.27646,-1.70403 0.36949,-0.6904 0.94973,-0.64469 1.44683,0.11397 0.30531,0.46597 0.34481,0.7972 0.15471,1.29722 -0.37935,0.99776 -0.71265,1.07142 -1.32508,0.29284 z m 11.99197,-0.50294 c -0.0923,-0.36762 -0.0469,-1.1447 0.10091,-1.72684 l 0.26866,-1.05845 -0.96584,0.17384 c -0.53122,0.0956 -1.08491,0.26242 -1.23043,0.37068 -0.14552,0.10826 -0.62177,0.26525 -1.05833,0.34885 -0.43657,0.0836 -1.62719,0.3323 -2.64584,0.55268 -2.25482,0.48781 -3.96061,0.55316 -3.22164,0.12344 0.46676,-0.27143 1.30011,-0.56166 2.95706,-1.02982 0.43656,-0.12335 1.44859,-0.4192 2.24896,-0.65744 0.80036,-0.23823 2.16958,-0.5289 3.04271,-0.64592 1.48573,-0.19911 4.89403,-1.10946 6.08541,-1.62539 0.29105,-0.12603 1.64086,-0.41624 2.99958,-0.64491 1.35873,-0.22867 2.66842,-0.51259 2.91042,-0.63092 0.85065,-0.41597 3.10493,-1.03114 4.93792,-1.34752 1.01865,-0.17581 2.33231,-0.48599 2.91926,-0.68928 0.58695,-0.20329 1.27318,-0.36961 1.52495,-0.36961 0.25177,0 0.66451,-0.10445 0.91719,-0.23211 0.84751,-0.42816 2.29832,-0.80916 4.03131,-1.05868 0.94588,-0.1362 2.25557,-0.42759 2.91042,-0.64754 2.61924,-0.87978 4.22844,-1.27918 7.05239,-1.75037 0.75011,-0.12516 1.76214,-0.3587 2.24895,-0.51897 3.55165,-1.1693 5.24616,-1.61391 6.16944,-1.61875 0.58612,-0.003 1.89911,-0.3002 2.91776,-0.6603 1.01864,-0.3601 2.11295,-0.65524 2.43178,-0.65588 0.31883,-6.3e-4 0.64467,-0.10629 0.72409,-0.23478 0.0794,-0.1285 1.12487,-0.377 2.32323,-0.55222 1.19835,-0.17523 2.65845,-0.47775 3.24466,-0.67227 2.11435,-0.70162 4.74279,-1.35349 6.88666,-1.70794 0.7276,-0.12029 1.97776,-0.4179 2.77812,-0.66136 2.97756,-0.90569 3.34749,-0.9957 5.15938,-1.25534 1.01864,-0.14596 2.0902,-0.35877 2.38125,-0.47291 0.97378,-0.38188 3.36381,-1.05891 3.73814,-1.05891 0.20354,0 0.57682,-0.10881 0.82951,-0.24178 0.5184,-0.27282 2.68355,-0.71682 4.75891,-0.97591 0.76398,-0.0954 1.38906,-0.26361 1.38906,-0.37387 0,-0.11026 0.327416,-0.26784 0.727596,-0.35019 0.40019,-0.0823 1.50151,-0.34583 2.4474,-0.58553 0.94588,-0.23969 2.37463,-0.53286 3.175,-0.65148 1.30071,-0.19278 2.55042,-0.49699 5.55625,-1.35252 0.50932,-0.14497 2.23573,-0.54685 3.83646,-0.89308 1.60073,-0.34622 3.62479,-0.82837 4.49791,-1.07144 0.87313,-0.24308 2.03474,-0.50088 2.58135,-0.5729 0.54662,-0.072 1.05966,-0.23744 1.1401,-0.36759 0.0804,-0.13015 0.61697,-0.23663 1.19231,-0.23663 0.57534,0 1.90776,-0.24921 2.96095,-0.5538 4.35443,-1.25933 5.63257,-1.56287 6.58089,-1.56287 0.5487,0 1.27112,-0.11819 1.60539,-0.26264 1.04437,-0.45133 3.65047,-0.75344 3.65047,-0.42318 0,0.34593 -1.66882,0.90227 -3.70416,1.23487 -1.49937,0.24502 -3.5226,0.79855 -5.49011,1.50203 -1.70856,0.6109 -1.52624,1.55034 0.42273,2.17809 2.04932,0.66007 3.53643,0.50271 6.258,-0.66221 0.43656,-0.18686 1.01985,-0.38126 1.29619,-0.432 0.3636,-0.0668 0.62283,-0.5309 0.93813,-1.67975 0.23963,-0.87313 0.63499,-1.98548 0.87858,-2.47191 0.34921,-0.69736 0.39335,-1.14503 0.20871,-2.11667 -0.12879,-0.67774 -0.43065,-2.48241 -0.6708,-4.01038 -0.39932,-2.54075 -1.49372,-5.55625 -2.01649,-5.55625 -0.099,0 -0.36184,-0.44648 -0.5841,-0.99219 -0.22227,-0.5457 -0.72055,-1.22406 -1.10729,-1.50745 -0.38674,-0.2834 -0.87572,-0.84895 -1.08661,-1.25677 -0.2109,-0.40783 -0.52922,-0.74167 -0.70738,-0.74187 -0.17817,-2e-4 -0.85972,-0.47629 -1.51456,-1.05797 -0.65485,-0.58168 -1.31717,-1.05776 -1.47184,-1.05797 -0.15467,-2e-4 -0.92442,-0.31066 -1.71057,-0.68991 -1.90523,-0.91911 -4.06234,-0.91062 -6.17642,0.0243 -0.8273,0.36587 -1.65795,0.66522 -1.84588,0.66522 -0.18794,0 -0.80963,0.39974 -1.38152,0.88831 -0.5719,0.48858 -1.32595,0.97864 -1.67568,1.08904 -0.34973,0.11039 -0.88551,0.42598 -1.19063,0.70131 -1.08029,0.97483 -2.2218,1.81925 -2.45928,1.81925 -0.13234,0 -0.65094,0.42454 -1.15243,0.94343 -0.50149,0.51888 -1.28151,1.11958 -1.73339,1.33489 -0.45188,0.2153 -0.96906,0.667 -1.14929,1.00378 -0.18024,0.33677 -0.73326,0.80571 -1.22893,1.04208 -0.49568,0.23637 -0.90123,0.547 -0.90123,0.69028 0,0.2615 -2.73155,2.39388 -3.06652,2.39388 -0.0983,0 -0.37126,0.2205 -0.60661,0.49 -0.23535,0.26951 -0.83881,0.70166 -1.34101,0.96035 -0.50221,0.2587 -1.08597,0.64321 -1.29724,0.85449 -0.21128,0.21127 -1.1696,0.74253 -2.12961,1.18057 -0.959996,0.43804 -2.458066,1.14271 -3.329026,1.56593 -0.87095,0.42322 -1.89039,0.76949 -2.2654,0.76949 -0.37502,0 -1.16739,0.23459 -1.76083,0.52131 -1.86691,0.90199 -3.29732,1.16788 -6.29645,1.17038 -2.90405,0.002 -4.80724,-0.34295 -6.74688,-1.22437 -0.50932,-0.23144 -1.34276,-0.49101 -1.85208,-0.57681 -0.50933,-0.0858 -1.61662,-0.57252 -2.46065,-1.08159 -0.84403,-0.50907 -1.70723,-0.92559 -1.91823,-0.92559 -0.21099,0 -0.38362,-0.09 -0.38362,-0.19999 0,-0.11 -0.36606,-0.36203 -0.81347,-0.56007 -0.4474,-0.19804 -1.11963,-0.64382 -1.49384,-0.99063 -0.37421,-0.3468 -0.82543,-0.63056 -1.0027,-0.63056 -0.35548,0 -3.89471,-2.75637 -4.80587,-3.74283 -2.38176,-2.57859 -3.26121,-3.62384 -3.26121,-3.87604 0,-0.16043 -0.41205,-0.60598 -0.91566,-0.99011 -0.50362,-0.38413 -0.99153,-0.93741 -1.08424,-1.22952 -0.0927,-0.29211 -0.60339,-0.97318 -1.13485,-1.5135 -0.53146,-0.54031 -1.50207,-1.66966 -2.15691,-2.50966 -0.65485,-0.84 -1.66688,-2.07017 -2.24896,-2.73372 -0.58209,-0.66354 -1.22953,-1.45751 -1.43877,-1.76438 -0.20923,-0.30687 -0.77478,-0.9369 -1.25677,-1.40007 -0.48198,-0.46317 -0.87634,-0.96411 -0.87634,-1.1132 0,-0.14909 -0.42249,-0.60357 -0.93888,-1.00996 -0.51639,-0.40638 -1.12526,-1.12583 -1.35306,-1.59878 -0.2278,-0.47294 -0.57772,-0.85989 -0.77759,-0.85989 -0.19988,0 -0.66406,-0.47625 -1.03151,-1.05834 -0.36745,-0.58208 -0.77235,-1.05833 -0.89978,-1.05833 -0.12743,0 -0.77515,-0.53578 -1.43939,-1.19062 -0.66424,-0.65485 -1.32389,-1.19063 -1.46589,-1.19063 -0.142,0 -0.41552,-0.15334 -0.60781,-0.34077 -0.1923,-0.18742 -0.79106,-0.54779 -1.33058,-0.80083 -0.53952,-0.25303 -1.05256,-0.57594 -1.14009,-0.71756 -0.0875,-0.14163 -0.44275,-0.25751 -0.78938,-0.25751 -0.34662,0 -0.69741,-0.1087 -0.77952,-0.24156 -0.0821,-0.13286 -0.62429,-0.32181 -1.20485,-0.41989 -0.58056,-0.0981 -1.12274,-0.28704 -1.20485,-0.4199 -0.0821,-0.13286 -0.41611,-0.24156 -0.74222,-0.24156 -0.32611,0 -0.70604,-0.10733 -0.84429,-0.2385 -0.13824,-0.13118 -1.6801,-0.37278 -3.42635,-0.5369 -3.34954,-0.3148 -11.28372,0.003 -11.87444,0.47556 -0.16302,0.13042 -0.71311,0.3046 -1.22243,0.38707 -1.64915,0.26701 -3.92781,0.84196 -4.12722,1.04137 -0.10687,0.10687 -0.58416,0.19431 -1.06064,0.19431 -0.47648,0 -0.93992,0.11907 -1.02985,0.26459 -0.0899,0.14552 -0.38612,0.26458 -0.65818,0.26458 -0.27206,0 -0.65416,0.14883 -0.84912,0.33073 -0.19497,0.1819 -0.76902,0.55906 -1.27567,0.83812 -2.19614,1.20963 -5.00665,3.95403 -6.0424,5.90027 -0.17176,0.32275 -0.6078,0.90568 -0.96898,1.2954 -0.36118,0.38972 -0.6567,0.86031 -0.6567,1.04575 0,0.27506 -1.09247,2.67486 -2.10464,4.62321 -0.11641,0.22408 -0.29696,1.02762 -0.40121,1.78564 -0.10425,0.75801 -0.29746,1.4449 -0.42935,1.52641 -0.13189,0.0815 -0.2398,0.44045 -0.2398,0.79763 0,0.35719 -0.11425,0.85618 -0.25389,1.10887 -1.47139,2.66257 -1.8899,16.99801 -0.63907,21.89068 0.22321,0.87313 0.52351,2.06375 0.66733,2.64583 0.14382,0.58209 0.38145,1.44876 0.52806,1.92594 0.14661,0.47718 0.33327,1.54874 0.4148,2.38125 0.0815,0.8325 0.23352,1.63271 0.33777,1.77823 0.10424,0.14552 0.40014,0.91943 0.65755,1.71979 0.25741,0.80037 0.57047,1.65837 0.69568,1.90668 0.12521,0.2483 0.30129,0.96268 0.39129,1.5875 0.09,0.62481 0.56849,1.99779 1.06331,3.05106 0.49482,1.05326 0.89967,2.13078 0.89967,2.39448 0,0.26369 0.14288,0.62232 0.3175,0.79695 0.24695,0.24694 0.24695,0.38805 0,0.635 -0.24694,0.24694 -0.3175,0.19305 -0.3175,-0.24254 0,-0.30801 -0.0893,-0.59972 -0.19843,-0.64822 -0.30494,-0.13553 -1.65365,-2.94952 -1.65365,-3.45022 0,-0.24376 -0.11906,-0.51679 -0.26458,-0.60673 -0.14552,-0.0899 -0.26459,-0.45011 -0.26459,-0.80039 0,-0.35027 -0.19278,-1.08739 -0.42841,-1.63803 -0.23563,-0.55064 -0.58606,-1.37797 -0.77873,-1.83852 -0.19266,-0.46055 -0.4908,-1.59164 -0.66253,-2.51354 -0.17172,-0.9219 -0.40364,-1.91431 -0.51537,-2.20535 -0.42314,-1.10222 -1.05454,-3.3858 -1.05454,-3.81393 0,-0.24522 -0.10687,-0.55897 -0.23748,-0.69722 -0.57921,-0.61304 -1.39868,-9.95558 -1.20462,-13.73357 0.28468,-5.54224 0.82968,-10.44939 1.20462,-10.84622 0.13061,-0.13825 0.23821,-0.49543 0.23911,-0.79375 9e-4,-0.29832 0.17949,-0.88343 0.39688,-1.30025 0.21738,-0.41681 0.39524,-0.97533 0.39524,-1.24115 0,-0.26582 0.11906,-0.55689 0.26458,-0.64683 0.14553,-0.0899 0.26459,-0.4669 0.26459,-0.83768 0,-0.71237 1.42535,-3.92567 1.86068,-4.19472 0.14079,-0.087 0.25598,-0.40244 0.25598,-0.70094 0,-0.29851 0.59532,-1.36122 1.32292,-2.36159 0.72761,-1.00036 1.32292,-1.88618 1.32292,-1.96849 0,-0.3205 3.42799,-3.52329 3.94752,-3.68818 0.30272,-0.0961 0.55039,-0.28572 0.55039,-0.42144 0,-0.13571 0.13759,-0.24675 0.30576,-0.24675 0.16816,0 0.696,-0.29766 1.17297,-0.66146 0.47697,-0.3638 1.04673,-0.66146 1.26613,-0.66146 0.2194,0 0.4725,-0.11906 0.56244,-0.26458 0.0899,-0.14552 0.40201,-0.26459 0.6935,-0.26459 0.50449,0 2.67312,-0.60018 3.80441,-1.05289 1.77044,-0.70848 6.86925,-1.30441 11.64167,-1.36062 2.11121,-0.0249 8.29871,0.55239 8.99855,0.83951 0.43507,0.17849 1.41937,0.60566 2.18733,0.94927 0.76796,0.3436 1.56461,0.62473 1.77032,0.62473 0.20572,0 0.44761,0.11907 0.53755,0.26459 0.0899,0.14552 0.36485,0.26574 0.61093,0.26715 0.24607,10e-4 0.97018,0.41813 1.60912,0.92604 0.63894,0.50791 1.26237,0.92347 1.38539,0.92347 0.26872,0 5.52269,5.22963 5.52269,5.49711 0,0.10283 0.4214,0.60469 0.93645,1.11524 2.11492,2.09645 3.56146,3.76727 3.56146,4.11363 0,0.20235 0.22487,0.48825 0.49971,0.63534 0.27484,0.14709 0.94019,0.88055 1.47854,1.6299 1.05,1.46152 1.24756,1.69921 3.29793,3.96768 0.73613,0.81443 1.33851,1.58833 1.33864,1.71979 1.3e-4,0.13146 0.47638,0.70092 1.05833,1.26547 0.58196,0.56454 1.0581,1.13009 1.0581,1.25677 0,0.43312 5.21233,5.78579 5.6371,5.78887 0.17381,0.001 0.75456,0.41798 1.29055,0.92604 0.53599,0.50806 1.0818,0.92375 1.21291,0.92375 0.13111,0 0.91825,0.47625 1.7492,1.05833 0.83096,0.58208 1.71985,1.05833 1.97533,1.05833 0.25547,0 0.57761,0.10454 0.71585,0.2323 0.68518,0.63324 3.33953,1.83393 4.74927,2.14832 0.87313,0.19472 1.70656,0.44024 1.85209,0.5456 0.14552,0.10536 1.3677,0.34066 2.71595,0.52288 1.91814,0.25924 2.86479,0.26303 4.35198,0.0174 1.04534,-0.17263 2.02582,-0.40793 2.17884,-0.52288 0.15302,-0.11495 0.9926,-0.36002 1.86573,-0.54461 0.87312,-0.18459 2.55812,-0.79989 3.74444,-1.36733 1.18633,-0.56744 2.28085,-1.03171 2.43228,-1.03171 0.32131,0 2.010336,-0.94715 2.920926,-1.63796 0.34705,-0.26329 0.80934,-0.4787 1.0273,-0.4787 0.21797,0 0.58887,-0.21591 0.82422,-0.47981 0.23535,-0.26389 1.14228,-1.00678 2.01541,-1.65086 0.87312,-0.64408 1.82941,-1.4402 2.12509,-1.76915 0.29567,-0.32896 0.65408,-0.5981 0.79645,-0.5981 0.33334,0 1.70867,-1.27101 1.70867,-1.57906 0,-0.12911 0.47537,-0.44447 1.05639,-0.70082 0.58102,-0.25634 1.11909,-0.66361 1.19571,-0.90503 0.0766,-0.24142 0.41317,-0.56372 0.74787,-0.71623 0.3347,-0.1525 1.16265,-0.75684 1.83988,-1.34298 0.67723,-0.58613 1.50242,-1.15032 1.83376,-1.25374 0.33133,-0.10343 0.66196,-0.27182 0.73472,-0.3742 0.32825,-0.46192 3.01762,-2.12377 3.43688,-2.12377 0.25689,0 0.6153,-0.1786 0.79645,-0.39688 0.18116,-0.21828 0.4751,-0.39687 0.65321,-0.39687 0.1781,0 0.71112,-0.19321 1.18448,-0.42935 1.22231,-0.60977 4.56212,-0.39176 5.83523,0.38091 0.50932,0.30911 1.31453,0.73869 1.78935,0.95461 1.86285,0.84714 5.43863,4.26809 6.19467,5.92645 l 0.4434,0.97259 0.0196,-1.14091 c 0.0108,-0.62751 -0.14987,-1.69907 -0.35703,-2.38125 -0.20716,-0.68219 -0.53259,-1.81192 -0.72318,-2.5105 -0.19058,-0.69859 -0.79499,-1.81288 -1.34313,-2.47621 -0.54814,-0.66332 -0.99662,-1.36492 -0.99662,-1.55911 0,-0.19418 -0.21578,-0.50864 -0.47951,-0.69879 -0.26373,-0.19015 -0.75903,-0.72816 -1.10065,-1.19556 -0.34162,-0.46741 -1.01375,-1.03614 -1.49362,-1.26385 -0.47987,-0.22772 -0.9502,-0.53976 -1.04517,-0.69343 -0.24903,-0.40293 -2.42904,-1.29394 -3.16588,-1.29394 -0.34451,0 -0.72159,0.16122 -0.83796,0.35825 -0.28452,0.48175 -1.24267,0.96467 -1.91398,0.96467 -0.30061,0 -0.54656,0.0931 -0.54656,0.20682 0,0.11375 -0.56555,0.36271 -1.25677,0.55323 -1.90983,0.52642 -3.26688,1.07433 -4.06049,1.63942 -0.39465,0.28102 -0.78766,0.51095 -0.87333,0.51095 -0.35953,0 -2.27608,0.93432 -2.27608,1.10959 0,0.10506 -0.56555,0.516 -1.25677,0.9132 -0.69122,0.3972 -1.67349,1.0612 -2.18281,1.47556 -0.50933,0.41436 -1.06985,0.86831 -1.24561,1.00877 -0.17576,0.14046 -0.40622,0.25538 -0.51213,0.25538 -0.10592,0 -0.75409,0.47347 -1.44038,1.05216 -0.68629,0.57868 -1.55716,1.19311 -1.93526,1.36538 -0.3781,0.17228 -0.68746,0.40943 -0.68746,0.527 0,0.11757 -0.68461,0.71521 -1.52135,1.32809 -0.83674,0.61288 -1.58089,1.19243 -1.65365,1.28788 -0.0728,0.0955 -0.8211,0.611 -1.66298,1.14566 -0.84187,0.53466 -1.59457,1.1386 -1.67265,1.34208 -0.0781,0.20348 -0.520366,0.52169 -0.982856,0.70714 -0.46248,0.18545 -1.17748,0.6131 -1.58888,0.95034 -0.4114,0.33725 -1.03647,0.68558 -1.38906,0.77407 -0.35258,0.0885 -0.64106,0.26705 -0.64106,0.3968 0,0.12974 -0.16761,0.2359 -0.37246,0.2359 -0.31559,0 -1.8285,0.66755 -3.65885,1.61441 -0.5876,0.30398 -4.17078,0.31215 -4.17078,0.01 0,-0.12549 0.68461,-0.30543 1.52136,-0.39987 0.83674,-0.0944 1.87854,-0.33824 2.3151,-0.54178 0.43656,-0.20353 1.38906,-0.6376 2.11667,-0.9646 0.7276,-0.32699 1.50151,-0.69835 1.71979,-0.82524 0.21828,-0.1269 0.60524,-0.30068 0.8599,-0.38619 0.25466,-0.0855 0.46301,-0.26065 0.46301,-0.38919 0,-0.12855 0.1786,-0.23373 0.39688,-0.23373 0.21828,0 0.39687,-0.11679 0.39687,-0.25954 0,-0.14275 0.28333,-0.33065 0.62961,-0.41757 0.34629,-0.0869 1.02449,-0.56543 1.50711,-1.06337 0.48263,-0.49794 1.015976,-0.90535 1.185226,-0.90535 0.16924,0 0.84877,-0.47625 1.51005,-1.05834 0.66128,-0.58208 1.27855,-1.05833 1.37171,-1.05833 0.0932,0 0.4904,-0.29766 0.88274,-0.66146 0.39235,-0.3638 0.8165,-0.66146 0.94256,-0.66146 0.12607,0 0.46335,-0.29765 0.74951,-0.66145 0.28617,-0.36381 0.67042,-0.66146 0.85388,-0.66146 0.18347,0 0.68084,-0.35872 1.10528,-0.79714 0.42443,-0.43843 1.13014,-0.97425 1.56825,-1.19071 0.4381,-0.21647 1.09294,-0.66752 1.4552,-1.00235 0.36227,-0.33482 1.07538,-0.8408 1.58471,-1.12439 0.50932,-0.28359 0.98557,-0.58567 1.05833,-0.6713 0.30394,-0.35765 2.99166,-2.09328 3.24157,-2.09328 0.14948,0 0.85228,-0.35719 1.56179,-0.79375 0.7095,-0.43656 1.50253,-0.79375 1.76228,-0.79375 0.25975,0 0.58539,-0.10024 0.72363,-0.22275 0.13825,-0.12252 1.0564,-0.43377 2.04035,-0.69167 0.98394,-0.2579 1.85417,-0.57438 1.93384,-0.70329 0.0797,-0.1289 0.48799,-0.23437 0.90737,-0.23437 0.41939,0 0.83611,-0.11907 0.92605,-0.26459 0.0899,-0.14552 -0.076,-0.26458 -0.36881,-0.26458 -0.29279,0 -0.80583,-0.10872 -1.1401,-0.2416 -0.74331,-0.29549 -4.42523,-0.77218 -7.02414,-0.9094 -1.61609,-0.0853 -2.01224,-0.0198 -2.51354,0.41591 -0.79744,0.69309 -2.32948,1.31527 -2.79696,1.13588 -0.22534,-0.0865 -0.84645,0.33725 -1.53922,1.05004 -0.63879,0.65725 -1.32965,1.195 -1.53524,1.195 -0.20559,0 -0.5908,0.27558 -0.85602,0.61239 -0.26522,0.33681 -0.83046,0.84039 -1.25607,1.11906 -0.42562,0.27867 -1.15202,0.89607 -1.61423,1.37199 -0.46221,0.47592 -0.92162,0.86531 -1.02092,0.86531 -0.0993,0 -1.33743,1.13102 -2.7514,2.51338 -1.41397,1.38235 -2.649946,2.51345 -2.746626,2.51354 -0.0967,9e-5 -0.69199,0.47323 -1.32292,1.05143 -0.63092,0.57819 -1.33704,1.05444 -1.56915,1.05833 -0.23211,0.004 -0.6334,0.24065 -0.89175,0.52613 -0.54874,0.60635 -2.36528,1.59761 -2.92772,1.59761 -0.2138,0 -0.38872,0.11906 -0.38872,0.26458 0,0.14553 -0.1786,0.26459 -0.39688,0.26459 -0.21828,0 -0.39687,0.11941 -0.39687,0.26537 0,0.14595 -0.47547,0.47135 -1.0566,0.72312 -0.79319,0.34363 -1.02014,0.57259 -0.91038,0.91841 0.15333,0.48309 -0.54852,2.21465 -1.01435,2.50255 -0.14913,0.0922 -1.59317,0.19213 -3.20898,0.22213 -2.25946,0.0419 -3.1211,-0.0428 -3.73157,-0.36682 -1.08362,-0.57526 -1.98437,-1.37936 -1.98437,-1.77146 0,-0.17868 -0.32742,-0.45644 -0.72761,-0.61725 -1.08568,-0.43627 -2.86588,-1.43164 -3.41694,-1.91053 -0.26711,-0.23213 -0.87536,-0.4955 -1.35165,-0.58527 -0.4763,-0.0898 -1.30534,-0.46175 -1.84232,-0.82664 -1.18895,-0.80791 -2.78082,-2.76464 -2.61041,-3.20872 0.0683,-0.1779 -0.1471,-0.39152 -0.47858,-0.47472 -0.33148,-0.0832 -1.16773,-0.77872 -1.85834,-1.54561 -0.69061,-0.7669 -1.64069,-1.81107 -2.11129,-2.3204 -0.47059,-0.50932 -1.02155,-1.30588 -1.22434,-1.77014 -0.20279,-0.46425 -0.57949,-0.89921 -0.8371,-0.96658 -0.25761,-0.0674 -0.57872,-0.41268 -0.71356,-0.76735 -0.13485,-0.35468 -0.70183,-1.18097 -1.25996,-1.8362 -0.55813,-0.65523 -1.27708,-1.52656 -1.59768,-1.93628 -0.32059,-0.40972 -1.45231,-1.64878 -2.51493,-2.75347 -1.06263,-1.10468 -2.22907,-2.39439 -2.59211,-2.86601 -0.36303,-0.47162 -0.80889,-0.85858 -0.99079,-0.8599 -0.1819,-10e-4 -0.33073,-0.13079 -0.33073,-0.28771 0,-0.15693 -0.52227,-0.78201 -1.1606,-1.38907 -0.63833,-0.60706 -1.29403,-1.36541 -1.45711,-1.68522 -0.16308,-0.31982 -0.65285,-0.79197 -1.08836,-1.04924 -0.43551,-0.25726 -0.79184,-0.61495 -0.79184,-0.79487 0,-0.17991 -0.50602,-0.67918 -1.12448,-1.10949 -0.61847,-0.4303 -1.60073,-1.2256 -2.18282,-1.76734 -0.58208,-0.54174 -1.5105,-1.27205 -2.06316,-1.6229 -0.55265,-0.35085 -1.06691,-0.79971 -1.1428,-0.99748 -0.0759,-0.19776 -0.57622,-0.43564 -1.11184,-0.52861 -1.02791,-0.17843 -2.02006,-0.50123 -3.3951,-1.10462 -0.45855,-0.20122 -0.91642,-0.36585 -1.01749,-0.36585 -0.10106,0 -0.49979,-0.2216 -0.88605,-0.49244 -0.38627,-0.27084 -1.25707,-0.55266 -1.93512,-0.62626 -0.67804,-0.0736 -1.74961,-0.3686 -2.38125,-0.65555 -2.20138,-1.0001 -3.50584,-1.2154 -8.0276,-1.32493 -2.47386,-0.0599 -4.61103,-0.22056 -4.74927,-0.35697 -0.13825,-0.13641 -1.27393,-0.24802 -2.52375,-0.24802 -1.7604,0 -2.50854,-0.12073 -3.32052,-0.53583 -1.48849,-0.76096 -4.35482,-1.14452 -7.00126,-0.93687 -2.34719,0.18418 -2.4963,0.2171 -5.98519,1.32162 -1.18181,0.37414 -2.37944,0.68025 -2.66141,0.68025 -0.28197,0 -0.74379,0.17481 -1.02626,0.38846 -0.28248,0.21365 -0.72195,0.39225 -0.97661,0.39688 -0.25467,0.005 -0.46303,0.10542 -0.46303,0.22399 0,0.22984 -1.6912,1.10734 -2.13417,1.10734 -0.14528,0 -1.06398,0.52073 -2.04155,1.15719 -0.97757,0.63646 -1.93758,1.20579 -2.13335,1.26518 -0.86384,0.26206 -7.44926,6.67098 -7.44926,7.24959 0,0.17852 -0.47625,0.90091 -1.05833,1.60532 -0.58209,0.7044 -1.05834,1.4341 -1.05834,1.62156 0,0.18746 -0.29765,0.81236 -0.66145,1.38866 -0.36381,0.5763 -0.66146,1.16924 -0.66146,1.31766 0,0.14841 -0.11574,0.26984 -0.25719,0.26984 -0.14146,0 -0.44648,0.68461 -0.67783,1.52135 -0.23134,0.83675 -0.52993,1.75948 -0.66352,2.05052 -0.71644,1.56077 -1.54411,4.42633 -1.68126,5.82084 -0.71495,7.2695 -0.74601,10.1667 -0.14588,13.60849 0.13787,0.79071 0.25068,1.89365 0.25068,2.45098 0,0.55733 0.10709,1.22008 0.23798,1.47276 0.13088,0.25269 0.45828,1.20357 0.72755,2.11308 0.26926,0.9095 0.56943,1.65364 0.66704,1.65364 0.0976,0 0.2539,0.38696 0.34732,0.8599 0.191,0.96691 0.69218,2.37914 0.9155,2.57969 0.22351,0.20072 0.74289,1.08496 1.24329,2.11667 0.24702,0.50932 0.82576,1.40229 1.28608,1.98437 0.46032,0.58208 0.94924,1.26383 1.08648,1.51499 0.33844,0.61934 2.11255,2.69167 3.43755,4.01539 0.59689,0.59631 1.15973,1.29526 1.25077,1.55323 0.091,0.25796 0.37658,0.54596 0.63454,0.64001 0.25796,0.0941 0.70715,0.46821 0.99819,0.83147 0.29104,0.36326 0.76288,0.84916 1.04854,1.07978 0.28566,0.23061 1.00003,0.90172 1.5875,1.49134 0.58747,0.58963 1.27919,1.15248 1.53715,1.25077 0.25796,0.0983 0.54895,0.38979 0.64665,0.64775 0.0977,0.25796 0.30336,0.58963 0.45702,0.73703 0.3773,0.36194 1.7346,1.22397 1.7346,1.10166 0,-0.36303 -0.88516,-1.75059 -1.40518,-2.20274 -0.34487,-0.29987 -0.90831,-1.12807 -1.25206,-1.84045 -0.34376,-0.71238 -0.89854,-1.59167 -1.23285,-1.95398 -0.33431,-0.36232 -0.60783,-0.8088 -0.60783,-0.99219 0,-0.18339 -0.11906,-0.33343 -0.26458,-0.33343 -0.14552,0 -0.26459,-0.27385 -0.26459,-0.60855 0,-0.33469 -0.10435,-0.72165 -0.2319,-0.85989 -0.61708,-0.66882 -1.63294,-2.89605 -1.77641,-3.89469 -0.0884,-0.61554 -0.38065,-1.77401 -0.64939,-2.57437 -1.53622,-4.57535 -1.53218,-14.67266 0.009,-21.56355 0.16269,-0.7276 0.40759,-2.26849 0.54422,-3.42418 0.13664,-1.1557 0.36846,-2.22131 0.51518,-2.36802 0.14671,-0.14672 0.26675,-0.51679 0.26675,-0.82238 0,-0.30559 0.10243,-0.66874 0.22762,-0.80698 0.1252,-0.13824 0.43867,-0.9062 0.69661,-1.70656 0.8727,-2.7079 3.56919,-7.94645 4.63051,-8.99584 0.0736,-0.0728 0.3544,-0.52858 0.62403,-1.01293 0.5137,-0.92278 1.63915,-2.28273 2.90458,-3.50975 0.41193,-0.39943 0.88818,-0.86521 1.05833,-1.03505 1.68954,-1.68654 5.11782,-4.43349 5.80373,-4.65032 0.32508,-0.10276 0.94823,-0.45809 1.3848,-0.78962 0.43656,-0.33154 1.12117,-0.6845 1.52135,-0.78437 0.40018,-0.0999 0.7276,-0.28773 0.7276,-0.41747 0,-0.12975 0.33338,-0.2359 0.74084,-0.2359 0.40746,0 0.85394,-0.10443 0.99219,-0.23206 0.13824,-0.12764 0.90619,-0.43379 1.70656,-0.68035 0.80036,-0.24656 1.69333,-0.55311 1.98437,-0.68122 0.29104,-0.12811 1.16036,-0.26844 1.93182,-0.31184 1.33338,-0.075 1.37632,-0.0576 0.86946,0.35264 -0.29326,0.23735 -1.09078,0.51516 -1.77227,0.61735 -0.68149,0.1022 -1.42993,0.28107 -1.66321,0.39748 -0.93146,0.46486 -1.80246,0.79354 -2.93767,1.10853 -0.65485,0.18171 -1.93686,0.78251 -2.84893,1.33513 -0.91207,0.55261 -1.80583,1.00475 -1.98614,1.00475 -0.1803,0 -0.92235,0.53392 -1.64898,1.18648 -0.72664,0.65256 -1.42161,1.18834 -1.54438,1.19062 -0.33382,0.006 -5.20074,4.85355 -5.20074,5.17982 0,0.15487 -0.34854,0.6155 -0.77452,1.02362 -0.42599,0.40813 -0.92747,1.11501 -1.11441,1.57086 -0.18693,0.45585 -0.61469,1.12647 -0.95057,1.49027 -0.33588,0.3638 -0.75713,1.01592 -0.93612,1.44914 -0.17898,0.43322 -0.77191,1.64941 -1.31761,2.70264 -0.5457,1.05323 -0.99219,2.11372 -0.99219,2.35664 0,0.24293 -0.40317,1.58658 -0.89593,2.9859 -1.18346,3.36074 -1.1776,3.33467 -1.64176,7.30672 -0.22107,1.89177 -0.52567,4.45162 -0.6769,5.68854 -0.51712,4.22953 -0.33207,11.7133 0.31075,12.56771 0.10949,0.14552 0.28129,1.03849 0.38179,1.98438 0.20841,1.96152 0.53621,3.07646 1.39236,4.73576 0.33029,0.64014 0.60053,1.32475 0.60053,1.52135 0,0.19661 0.11906,0.35747 0.26458,0.35747 0.14552,0 0.26458,0.18451 0.26458,0.41002 0,0.51193 0.73021,1.94548 1.26169,2.47697 0.21963,0.21962 0.55254,0.76123 0.73981,1.20356 0.18727,0.44233 0.76605,1.39918 1.28617,2.12631 0.52012,0.72714 0.94567,1.52089 0.94567,1.76389 0,0.243 0.0893,0.48151 0.19844,0.53002 0.39525,0.17566 1.62644,2.01157 1.46037,2.17765 -0.25632,0.25631 2.90438,3.04 5.58486,4.9187 0.97136,0.68081 2.80555,2.64913 2.4686,2.64913 -0.49896,0 -5.49001,-3.78548 -7.41295,-5.62239 -0.57126,-0.54571 -1.1383,-0.99219 -1.26009,-0.99219 -0.29823,0 -1.5684,-1.28532 -1.5684,-1.58711 0,-0.13208 -0.39218,-0.42625 -0.87152,-0.65371 -0.47934,-0.22746 -1.0771,-0.76158 -1.32836,-1.18694 -0.25127,-0.42535 -0.67242,-0.84179 -0.9359,-0.92542 -0.26348,-0.0836 -0.81509,-0.57351 -1.2258,-1.08864 -0.41071,-0.51513 -1.08565,-1.11186 -1.49987,-1.32606 -0.41422,-0.2142 -0.75313,-0.50547 -0.75313,-0.64725 0,-0.33504 -0.84664,-1.17827 -1.39386,-1.38826 -0.23507,-0.0902 -0.64269,-0.49601 -0.90583,-0.9018 -0.26314,-0.40578 -0.86539,-1.07936 -1.33833,-1.49683 -0.47295,-0.41748 -0.8599,-0.86591 -0.8599,-0.99652 0,-0.13061 -0.44648,-0.69685 -0.99219,-1.25832 -1.27095,-1.30769 -2.72187,-3.26609 -3.64577,-4.92096 -0.39983,-0.71616 -0.9486,-1.54001 -1.2195,-1.83078 -0.2709,-0.29078 -0.49254,-0.69156 -0.49254,-0.89064 0,-0.19908 -0.42964,-1.39702 -0.95475,-2.66209 -1.58396,-3.81596 -1.97519,-5.57173 -2.51781,-11.29933 -0.57947,-6.11653 0.84288,-15.81529 2.7451,-18.71845 0.25458,-0.38854 0.46288,-0.89608 0.46288,-1.12785 0,-0.46009 1.15277,-2.65339 1.7461,-3.32221 0.20381,-0.22974 0.37056,-0.65999 0.37056,-0.95611 0,-0.29612 0.27956,-0.82252 0.62124,-1.16979 0.34168,-0.34726 0.96655,-1.16717 1.38859,-1.82202 0.94541,-1.46687 0.82161,-1.32397 3.5335,-4.07867 1.22982,-1.24923 2.33656,-2.27133 2.45942,-2.27133 0.12287,0 0.52105,-0.29765 0.88485,-0.66145 0.3638,-0.36381 0.78892,-0.66146 0.94471,-0.66146 0.15579,0 0.85134,-0.41702 1.54567,-0.9267 0.69432,-0.50968 1.63301,-1.00081 2.08597,-1.0914 0.45295,-0.0906 0.82355,-0.2689 0.82355,-0.39623 0,-0.12733 0.12538,-0.23151 0.27862,-0.23151 0.15325,0 0.71667,-0.29765 1.25205,-0.66145 0.53538,-0.36381 1.24344,-0.66146 1.57346,-0.66146 0.33002,0 0.60004,-0.11907 0.60004,-0.26459 0,-0.14552 0.36858,-0.26458 0.81907,-0.26458 0.45049,0 1.1351,-0.16792 1.52136,-0.37315 2.00935,-1.06764 8.52987,-2.13114 9.18452,-1.498 0.13696,0.13246 1.06111,0.28023 2.05369,0.32839 l 1.80467,0.0875 -0.15229,-0.66146 c -0.80602,-3.50075 0.0515,-9.82813 1.54984,-11.43646 0.79674,-0.8552 0.88736,-3.22225 0.18259,-4.76931 -0.55431,-1.21677 -0.70867,-1.32528 -2.35837,-1.65776 -1.05814,-0.21326 -2.93492,-2.06804 -3.14709,-3.1102 -0.0821,-0.40321 -0.25294,-0.79719 -0.37966,-0.87551 -0.12673,-0.0783 -0.23041,-0.45253 -0.23041,-0.83157 0,-0.85625 -0.78347,-5.30856 -1.06048,-6.02648 -0.5492,-1.42337 -0.7646,-2.97342 -0.9192,-6.61458 -0.0927,-2.18282 -0.26832,-4.20688 -0.39032,-4.49792 -0.86154,-2.0553 -1.0778,-9.92187 -0.27277,-9.92187 0.24558,0 0.42386,1.21239 0.77813,5.29166 0.14534,1.67349 0.45616,4.3524 0.69071,5.95313 0.23455,1.60073 0.52268,3.86291 0.6403,5.02708 0.11762,1.16417 0.41466,3.00964 0.66009,4.10104 0.24544,1.09141 0.53484,3.05594 0.64313,4.36563 0.30889,3.73596 1.34132,5.44592 4.01168,6.6443 1.68418,0.75581 2.62706,1.86656 2.62706,3.09475 0,0.37442 0.11906,0.75434 0.26459,0.84428 0.14552,0.0899 0.26458,0.50666 0.26458,0.92604 0,0.41939 -0.11906,0.83611 -0.26458,0.92604 -0.14553,0.0899 -0.26496,0.36486 -0.2654,0.61093 -4.5e-4,0.24608 -0.43248,1.28085 -0.96007,2.29949 -0.94124,1.81729 -0.96254,1.92665 -1.13379,5.82083 -0.096,2.18282 -0.12747,4.11758 -0.07,4.29948 0.0597,0.1889 0.53962,0.33073 1.11899,0.33073 0.55793,0 1.088,0.11907 1.17793,0.26459 0.25263,0.40875 2.77813,0.33659 2.77813,-0.0794 0,-0.18918 -0.12116,-0.46511 -0.26923,-0.61319 -0.39005,-0.39005 -0.46987,-4.64944 -0.0896,-4.78285 0.19874,-0.0697 0.36853,0.55657 0.49466,1.82472 0.21885,2.20037 0.76965,3.68226 1.56561,4.21219 0.4032,0.26844 1.85541,0.38742 5.50848,0.45131 2.78872,0.0488 4.96094,0.19359 4.96094,0.33073 0,0.13418 0.32742,0.24785 0.72761,0.2526 0.66702,0.008 3.00969,0.70947 3.63802,1.08947 0.14552,0.088 0.97896,0.35777 1.85208,0.59947 1.75487,0.4858 1.95046,0.56194 4.23333,1.64814 l 1.5875,0.75533 5.80478,-0.0403 c 5.46629,-0.038 7.06578,-0.21127 8.41299,-0.9115 0.25269,-0.13134 0.60987,-0.23953 0.79375,-0.24043 0.18387,-8.9e-4 0.63197,-0.1541 0.99578,-0.34046 0.3638,-0.18636 1.43536,-0.56558 2.38125,-0.84271 0.94588,-0.27712 2.13438,-0.77876 2.6411,-1.11474 0.50673,-0.33598 1.1318,-0.61087 1.38907,-0.61087 0.25726,0 0.46774,-0.11907 0.46774,-0.26459 0,-0.14552 0.20836,-0.26496 0.46302,-0.26542 0.25467,-4.7e-4 1.1774,-0.47634 2.05052,-1.05749 0.87313,-0.58116 1.68702,-1.05703 1.80865,-1.05749 0.51928,-0.002 3.07388,-2.03381 3.20295,-2.5475 0.14844,-0.59078 0.0215,-0.56292 4.82137,-1.05807 0.89698,-0.0925 1.96562,-0.0842 2.37475,0.0185 l 0.74388,0.1867 -0.65496,0.50328 c -0.36023,0.27679 -0.9559,0.50591 -1.3237,0.50915 -1.06271,0.009 -1.75619,0.66835 -1.94485,1.84819 -0.0939,0.58746 -0.28845,1.06811 -0.43225,1.06811 -0.1438,0 -0.26146,0.18021 -0.26146,0.40047 0,0.22025 -0.11329,0.6072 -0.25177,0.85989 -0.7093,1.29437 -1.04686,2.48688 -1.17857,4.1636 -0.08,1.01864 -0.24694,2.68564 -0.37095,3.70444 -0.21665,1.77989 -0.12348,2.98017 0.52371,6.7466 0.33255,1.9353 0.35098,3.67072 0.0998,9.39271 -0.1884,4.29097 -0.53992,5.65021 -1.60925,6.22249 -0.33969,0.1818 -0.74851,0.64654 -0.90848,1.03276 -0.15998,0.38622 -0.58455,0.92276 -0.94349,1.19231 -0.99282,0.74558 -0.86595,1.89302 0.35319,3.19411 0.54541,0.58208 1.40544,1.28749 1.91115,1.56757 0.50572,0.28008 0.97902,0.57774 1.05178,0.66146 0.0728,0.0837 0.78714,0.37601 1.5875,0.64953 0.80037,0.27352 2.0826,0.89859 2.84941,1.38906 0.76681,0.49046 1.49726,0.89175 1.62322,0.89175 0.12596,0 0.41885,0.28973 0.65088,0.64384 0.23202,0.35412 0.82274,0.94961 1.3127,1.32332 0.79897,0.60941 0.9809,0.64809 1.76404,0.37509 0.65769,-0.22928 0.99333,-0.22938 1.35997,-4.1e-4 0.93974,0.58688 1.30568,0.35065 0.61361,-0.3961 -0.66545,-0.71803 -0.85493,-1.41657 -0.38424,-1.41657 0.14552,0 0.26458,-0.18662 0.26458,-0.41471 0,-0.2943 0.15364,-0.36594 0.52917,-0.24675 0.29104,0.0924 0.52916,0.0647 0.52916,-0.0616 0,-0.3738 -0.60243,-0.86449 -1.06136,-0.86449 -0.80082,0 -1.5418,-1.03841 -2.21169,-3.09946 -0.99598,-3.06434 -1.29723,-3.81565 -1.95247,-4.86927 -1.05566,-1.69753 -0.76061,-7.96264 0.48744,-10.35008 0.13209,-0.25269 0.24017,-0.81233 0.24017,-1.24364 0,-0.43132 0.43167,-1.95098 0.95928,-3.37703 0.52761,-1.42605 1.05441,-3.06906 1.17067,-3.65115 0.11626,-0.58208 0.33228,-1.47505 0.48003,-1.98437 0.14776,-0.50933 0.40503,-1.46183 0.57171,-2.11667 0.16668,-0.65484 0.40299,-1.42875 0.52513,-1.71979 0.33683,-0.80264 0.5435,-1.90639 0.78816,-4.20927 0.23639,-2.22514 0.7282,-4.35874 1.10027,-4.77334 0.12407,-0.13824 0.22631,-0.4359 0.22721,-0.66145 9e-4,-0.22556 0.17949,-0.75114 0.39688,-1.16796 0.21738,-0.41681 0.39524,-1.01808 0.39524,-1.33614 0,-0.31807 0.14108,-0.71938 0.31351,-0.89181 0.2073,-0.2073 0.29546,-1.20151 0.26023,-2.93466 -0.0293,-1.44163 0.0631,-2.92725 0.20534,-3.30138 0.15143,-0.39828 0.16603,-0.98593 0.0352,-1.41774 -0.12287,-0.40563 -0.37631,-1.24626 -0.56321,-1.86807 -0.25747,-0.85662 -0.50474,-1.17197 -1.02043,-1.3014 -0.37435,-0.094 -0.83956,-0.32976 -1.03381,-0.52401 -0.19425,-0.19425 -0.8999,-0.72934 -1.56812,-1.18908 -1.8245,-1.25529 -4.25017,-1.42281 -13.42977,-0.92747 -4.07459,0.21988 -8.00365,0.52118 -8.73125,0.66958 -3.82418,0.77995 -8.11818,1.54451 -10.45104,1.86085 -0.94589,0.12826 -2.37464,0.46415 -3.175,0.74643 -3.22495,1.13737 -4.22301,1.39879 -5.34041,1.39879 -0.64259,0 -1.29299,0.12465 -1.44533,0.27699 -0.15234,0.15234 -0.7417,0.29392 -1.30969,0.31462 -1.2657,0.0461 -3.19693,-1.08795 -3.4293,-2.01378 -0.0867,-0.34546 -0.45174,-0.7621 -0.8112,-0.92588 -0.95191,-0.43372 -1.37048,-0.36426 -0.68753,0.1141 0.55627,0.38962 0.8178,1.17764 0.3896,1.17388 -0.10914,-9.6e-4 -0.55562,-0.2383 -0.99219,-0.52743 -0.43656,-0.28912 -1.11414,-0.52646 -1.50574,-0.52742 -0.39159,-9.6e-4 -0.78557,-0.12081 -0.87551,-0.26633 -0.0899,-0.14552 -0.62571,-0.26458 -1.19062,-0.26458 -0.56491,0 -1.10069,-0.11906 -1.19063,-0.26458 -0.0899,-0.14552 -0.39046,-0.26459 -0.66782,-0.26459 -1.10899,0 -4.22697,-1.22229 -4.22697,-1.65703 0,-0.25944 2.20489,-0.0513 3.57188,0.33725 0.43656,0.12408 1.32953,0.36417 1.98437,0.53353 0.65485,0.16937 1.58162,0.4751 2.0595,0.67939 0.47788,0.2043 1.10969,0.37145 1.40402,0.37145 0.52242,0 0.52399,-0.0189 0.0663,-0.79375 -0.25788,-0.43657 -0.6137,-0.79375 -0.79069,-0.79375 -0.39541,0 -1.41618,-1.39086 -1.41618,-1.92963 0,-0.24046 -0.36443,-0.4611 -0.93995,-0.56907 -0.52803,-0.0991 -1.00897,-0.37285 -1.09746,-0.62476 -0.0866,-0.24663 -0.41022,-0.80561 -0.71907,-1.24217 -0.69515,-0.98257 -1.08328,-1.80857 -1.49187,-3.175 -0.17406,-0.58208 -0.45699,-1.23693 -0.62873,-1.45521 -0.56802,-0.72193 -1.00271,-1.96353 -1.25053,-3.57187 -0.13453,-0.87313 -0.34563,-2.24235 -0.46911,-3.04271 -0.12348,-0.80037 -0.40304,-1.92555 -0.62124,-2.50042 l -0.39673,-1.0452 -0.12985,1.30979 c -0.0714,0.72038 -0.26571,2.1353 -0.43178,3.14426 -0.46683,2.83628 -2.40701,6.28778 -2.40701,4.28197 0,-0.60168 0.42042,-1.81069 1.09063,-3.13629 0.12776,-0.25269 0.23228,-0.75168 0.23228,-1.10886 0,-0.35719 0.10251,-0.71279 0.22779,-0.79022 0.12528,-0.0774 0.29026,-0.91905 0.36661,-1.87027 0.0764,-0.95122 0.28676,-1.90773 0.46756,-2.12558 0.26268,-0.31652 0.25547,-0.64825 -0.0359,-1.65108 -0.44275,-1.52395 -0.48423,-7.40015 -0.0586,-8.30376 0.16169,-0.34328 0.51118,-1.33851 0.77666,-2.21163 0.26547,-0.87313 0.65494,-1.79586 0.86549,-2.05052 0.35346,-0.42752 0.3022,-0.46302 -0.66851,-0.46302 -1.12265,0 -3.76001,-0.68343 -4.17684,-1.08236 -0.13824,-0.13231 -0.57015,-0.24056 -0.95979,-0.24056 -0.7535,0 -1.50999,-0.63422 -1.07623,-0.9023 0.22159,-0.13695 1.16095,-0.0219 4.47264,0.54783 0.47429,0.0816 0.9278,0.25426 1.0078,0.3837 0.08,0.12944 0.39477,0.23535 0.69949,0.23535 0.55226,0 0.55217,-0.002 -0.0289,-0.50554 -0.50224,-0.43558 -0.5719,-0.72882 -0.5035,-2.11935 0.0899,-1.8279 0.5025,-2.1464 0.82368,-0.63585 0.11832,0.55648 0.35514,1.36897 0.52626,1.80553 0.40389,1.03037 0.36967,4.48173 -0.0571,5.76189 -0.18326,0.54966 -0.48207,2.08782 -0.66403,3.41812 -0.33849,2.47468 -0.20495,3.63041 0.92641,8.01791 0.46901,1.81882 0.77541,3.36067 1.13045,5.68854 0.18865,1.23693 0.43289,2.48709 0.54274,2.77813 0.43206,1.14473 2.94029,6.09056 3.13089,6.17361 0.11131,0.0485 0.20239,0.30151 0.20239,0.56224 0,0.32156 0.27215,0.52847 0.84607,0.64326 0.46533,0.0931 1.1302,0.35538 1.47748,0.58293 0.58073,0.38051 0.59528,0.44014 0.18121,0.74291 -0.40324,0.29486 -0.30208,0.45334 0.96992,1.51951 1.89315,1.58681 3.26242,2.34325 4.24165,2.34325 1.26637,0 4.5153,0.83833 5.27812,1.36192 0.38023,0.26099 0.74599,0.41986 0.81281,0.35304 0.359,-0.359 4.00604,-1.52497 5.37503,-1.71842 2.18311,-0.30848 5.15938,-1.06698 5.15938,-1.31487 0,-0.11241 -0.17859,-0.3526 -0.39688,-0.53376 -0.21828,-0.18115 -0.39687,-0.46772 -0.39687,-0.63681 0,-0.43761 -1.41292,-1.21527 -2.20802,-1.21527 -0.36914,0 -0.73626,-0.10532 -0.81582,-0.23405 -0.0796,-0.12873 -0.6798,-0.31431 -1.33388,-0.41239 -1.20468,-0.18066 -4.31278,-1.6205 -4.95137,-2.29375 -0.91015,-0.95955 -1.80341,-2.36813 -1.80341,-2.84379 0,-0.29019 -0.28149,-0.74904 -0.62554,-1.01966 -0.76834,-0.60438 -1.57869,-2.10685 -1.2469,-2.3119 0.13325,-0.0824 0.43047,0.0385 0.66048,0.26846 0.23002,0.23002 0.41821,0.31257 0.41821,0.18345 0,-0.58766 2.0873,-1.39048 3.6079,-1.38767 2.46881,0.005 4.22344,0.64644 6.38902,2.33725 0.92286,0.72053 1.20545,0.82509 1.52136,0.56291 0.51918,-0.43088 1.18172,0.10365 1.18172,0.95341 0,0.4492 0.26159,0.74079 0.96332,1.07378 0.52983,0.25142 1.01996,0.67372 1.08919,0.93845 0.0692,0.26473 0.22043,0.48133 0.336,0.48133 0.11556,0 0.45629,0.50852 0.75716,1.13005 0.30088,0.62153 1.02588,1.64354 1.61111,2.27115 0.58523,0.6276 1.06405,1.32342 1.06405,1.54627 0,0.33893 0.24874,0.37406 1.52136,0.21488 7.35781,-0.92035 12.74838,-1.2718 16.51351,-1.07666 2.82575,0.14646 3.23375,0.23565 4.83952,1.05798 0.96449,0.49392 1.99549,1.20553 2.29111,1.58135 0.29562,0.37583 0.74852,0.68332 1.00645,0.68332 0.67202,0 1.21031,0.72199 1.73112,2.32189 0.33082,1.01626 0.38642,1.59186 0.20444,2.11666 -0.13748,0.39645 -0.15643,0.95895 -0.0421,1.24999 0.32986,0.83984 0.28809,6.06881 -0.0512,6.40809 -0.16292,0.16292 -0.38954,0.75228 -0.50361,1.30969 -0.11407,0.55741 -0.40521,1.72784 -0.64698,2.60097 -0.24178,0.87312 -0.55782,2.12328 -0.70232,2.77812 -0.1445,0.65485 -0.38099,1.72641 -0.52554,2.38125 -0.14455,0.65485 -0.38107,2.14313 -0.52561,3.3073 -0.14454,1.16416 -0.50889,2.77151 -0.80967,3.57187 -0.30078,0.80037 -0.63721,1.75769 -0.74764,2.12739 l -0.20077,0.67219 2.54533,-0.10546 c 2.1889,-0.0907 6.09165,-0.77516 4.70187,-0.82462 -0.72499,-0.0258 -3.61176,-1.8841 -3.61176,-2.325 0,-0.54548 1.49294,-0.18608 2.56204,0.61677 0.46323,0.34786 0.96925,0.63248 1.12448,0.63248 0.15523,0 0.28223,0.11906 0.28223,0.26458 0,0.48311 0.80688,0.27383 1.5302,-0.39687 0.39235,-0.3638 0.97544,-0.66146 1.29576,-0.66146 0.32032,0 0.65598,-0.11906 0.74592,-0.26458 0.2066,-0.3343 3.30729,-0.35101 3.30729,-0.0178 0,0.27295 -0.22859,0.35983 -2.51051,0.95419 -2.15451,0.56118 -3.01837,1.30928 -4.22868,3.66198 -0.57047,1.10893 -1.12009,2.01624 -1.22138,2.01624 -0.10128,0 -0.25958,0.30055 -0.35178,0.66789 -0.0922,0.36733 -0.58135,1.20989 -1.08701,1.87235 -0.50567,0.66245 -0.91939,1.37393 -0.91939,1.58107 0,0.20713 -0.0893,0.37797 -0.19844,0.37964 -0.10914,0.002 -0.42595,0.47792 -0.70402,1.05834 -0.27807,0.58041 -0.59105,1.05529 -0.69551,1.05529 -0.10445,0 -0.34873,0.38696 -0.54284,0.8599 -0.32585,0.79394 -1.75327,3.06753 -2.11793,3.37344 -0.0867,0.0728 -0.23615,0.453 -0.33203,0.84499 -0.0959,0.39198 -0.53093,1.10312 -0.96678,1.58032 -0.43585,0.47719 -0.79245,1.0296 -0.79245,1.22758 0,0.19797 -0.14883,0.3092 -0.33073,0.24717 -0.39423,-0.13445 -0.28402,-1.22424 0.18034,-1.7834 0.18128,-0.21828 0.76319,-1.26495 1.29313,-2.32594 0.52994,-1.06098 1.26353,-2.32238 1.63019,-2.8031 0.36666,-0.48071 0.66665,-1.05177 0.66665,-1.269 0,-0.21724 0.47625,-1.06005 1.05834,-1.87292 0.58208,-0.81287 1.05833,-1.60262 1.05833,-1.75499 0,-0.15237 0.59531,-1.15444 1.32292,-2.22682 0.7276,-1.07239 1.32291,-2.07339 1.32291,-2.22445 0,-0.15105 0.1786,-0.42287 0.39688,-0.60403 0.54053,-0.4486 0.50105,-0.86067 -0.0662,-0.69046 -0.25466,0.0764 -1.862,0.1682 -3.57187,0.20396 -3.02308,0.0632 -3.10886,0.0814 -3.10886,0.65703 0,0.32559 -0.10556,0.65724 -0.23459,0.73698 -0.12902,0.0797 -0.31576,0.57767 -0.41497,1.10652 -0.0992,0.52884 -0.2913,1.185 -0.42687,1.45813 -0.13557,0.27313 -0.35041,0.70886 -0.47742,0.9683 -0.12702,0.25944 -0.31021,0.88452 -0.40708,1.38906 -0.31563,1.64377 -0.7627,3.29288 -0.966,3.56319 -0.16538,0.2199 -0.37161,5.50508 -0.27617,7.07761 0.0155,0.25466 0.2067,0.46302 0.42498,0.46302 0.21828,0 0.39687,0.12737 0.39687,0.28306 0,0.15568 0.34763,0.78831 0.7725,1.40585 0.42488,0.61753 0.8551,1.56303 0.95604,2.10111 0.10094,0.53808 0.2891,1.04357 0.41812,1.12331 0.12903,0.0797 0.23459,0.47967 0.23459,0.88873 0,0.66558 0.13209,0.77768 1.25677,1.0666 0.69123,0.17756 1.71025,0.56177 2.2645,0.85379 0.86326,0.45484 1.1193,0.48474 1.78594,0.20861 0.42802,-0.17729 0.77821,-0.43304 0.77821,-0.56833 0,-0.13529 0.44649,-0.43188 0.99219,-0.65909 0.5457,-0.22722 1.05172,-0.49017 1.12448,-0.58435 0.0728,-0.0942 0.57877,-0.40553 1.12448,-0.69189 0.5457,-0.28636 0.99218,-0.61264 0.99218,-0.72507 0,-0.11243 0.18793,-0.20442 0.41763,-0.20442 0.22969,0 0.88913,-0.47625 1.46543,-1.05833 0.57629,-0.58208 1.15913,-1.05833 1.2952,-1.05833 0.13607,0 0.77879,-0.50602 1.42828,-1.12448 0.649476,-0.61846 1.306316,-1.24354 1.459636,-1.38906 0.15332,-0.14552 0.58815,-0.65154 0.96627,-1.12448 0.37813,-0.47295 0.78163,-0.8599 0.89667,-0.8599 0.11503,0 0.69234,-0.44648 1.2829,-0.99219 1.6106,-1.48827 3.81576,-3.21269 4.68509,-3.66371 1.11377,-0.57783 3.0319,-2.53789 3.03423,-3.10056 0.002,-0.59832 0.4721,-1.50396 0.77988,-1.50396 0.12655,0 0.16622,0.47625 0.0881,1.05834 -0.0781,0.58208 -0.0626,1.05833 0.0345,1.05833 0.20117,0 1.54523,-0.82987 1.74532,-1.07763 0.13203,-0.16349 1.60137,-0.61797 1.85208,-0.57287 0.0728,0.0131 0.32257,0.0979 0.55514,0.18858 0.26322,0.10258 0.66274,-0.0881 1.05833,-0.50499 0.67445,-0.71085 1.95142,-0.9148 2.18005,-0.34819 0.0734,0.1819 0.14285,0.0764 0.15434,-0.23444 0.0218,-0.59036 -1.2879,-1.4133 -2.26805,-1.42509 -0.26905,-0.003 -0.78684,-0.23872 -1.15064,-0.52329 -0.36381,-0.28457 -1.04841,-0.52004 -1.52136,-0.52328 -0.47294,-0.003 -0.85989,-0.12495 -0.85989,-0.27047 0,-0.14552 -0.16932,-0.26458 -0.37626,-0.26458 -0.20694,0 -0.78391,-0.47625 -1.28215,-1.05833 -0.80367,-0.93891 -1.03806,-1.05834 -2.07712,-1.05834 h -1.17123 l -0.32475,1.39681 c -0.17861,0.76825 -0.32474,1.67692 -0.32474,2.01928 0,0.90597 -1.55665,2.23938 -3.22802,2.76509 -1.22101,0.38406 -1.48266,0.58406 -1.75714,1.34313 -0.17738,0.49054 -0.49242,0.95709 -0.70009,1.03678 -0.20766,0.0797 -0.69764,0.65659 -1.08883,1.282 -0.39119,0.62542 -0.87185,1.23196 -1.06813,1.34787 -0.19628,0.11591 -0.8373,0.9182 -1.42449,1.78288 -0.587186,0.86468 -1.281096,1.78187 -1.542006,2.03821 -0.26092,0.25635 -0.72362,0.82754 -1.02822,1.26932 -0.30461,0.44178 -0.86154,0.96791 -1.23762,1.16918 -0.37608,0.20128 -0.68378,0.52887 -0.68378,0.72799 0,0.19912 -0.50602,0.89432 -1.12448,1.54488 -0.61847,0.65056 -1.44431,1.53909 -1.83521,1.9745 -0.3909,0.43542 -0.83739,0.79167 -0.99219,0.79167 -0.42978,0 -0.33504,-0.71657 0.11771,-0.89031 0.21954,-0.0842 0.54421,-0.48394 0.72149,-0.8882 0.17728,-0.40427 0.50367,-0.91363 0.72532,-1.13191 0.22164,-0.21828 1.11563,-1.23031 1.98665,-2.24896 0.87102,-1.01864 1.6456,-1.91161 1.72129,-1.98437 0.0757,-0.0728 0.48991,-0.60432 0.92048,-1.18123 0.43057,-0.57692 0.99544,-1.26153 1.25527,-1.52136 0.25983,-0.25983 0.47241,-0.59619 0.47241,-0.74747 0,-0.15129 0.476246,-0.74188 1.058336,-1.31244 0.58208,-0.57056 1.05833,-1.2326 1.05833,-1.47119 0,-0.2386 0.4105,-0.84431 0.91222,-1.34604 0.50173,-0.50172 0.986,-1.14466 1.07617,-1.42875 0.0902,-0.28409 0.27497,-0.51652 0.41069,-0.51652 0.13571,0 0.24675,-0.18776 0.24675,-0.41723 0,-0.22948 0.34303,-0.76025 0.76228,-1.1795 0.41925,-0.41926 0.83615,-1.05661 0.92644,-1.41636 0.0903,-0.35974 0.32397,-0.81388 0.51928,-1.0092 0.77894,-0.77893 1.68634,-2.51699 1.83686,-3.51834 0.0875,-0.58208 0.40382,-2.2307 0.70295,-3.6636 0.75785,-3.63036 0.75456,-3.69352 -0.38029,-7.29418 -0.47896,-1.51965 -1.96811,-3.35897 -3.24532,-4.00846 -0.39893,-0.20286 -1.09375,-0.63915 -1.54405,-0.96953 -0.45029,-0.33038 -1.00523,-0.60069 -1.23319,-0.60069 -0.22796,0 -1.16923,-0.24867 -2.0917,-0.55261 -2.707216,-0.89197 -3.886066,-1.09591 -7.035016,-1.21702 -2.93503,-0.11289 -3.76586,-0.38761 -2.14974,-0.71084 2.09705,-0.41941 8.19397,0.0257 8.817226,0.64373 0.13825,0.13709 0.45206,0.24924 0.69736,0.24924 0.24531,0 0.78704,0.17786 1.20386,0.39525 0.41681,0.21738 0.96258,0.39598 1.21282,0.39687 0.63747,0.002 2.34778,0.97127 3.0122,1.70659 0.30622,0.33889 0.78565,0.68881 1.06541,0.7776 0.27976,0.0888 0.65211,0.37021 0.82745,0.62538 2.31007,3.36174 2.54094,4.1816 2.38506,8.4699 -0.0965,2.6561 -0.24894,3.69768 -0.71851,4.91073 -0.64769,1.67321 -0.60936,1.97804 0.18625,1.48117 0.86587,-0.54074 2.85367,0.20491 4.18226,1.56884 0.83215,0.85428 1.38213,1.18425 2.13861,1.28309 0.56011,0.0732 1.20635,0.29981 1.43609,0.50361 0.22974,0.20381 0.65309,0.37056 0.94078,0.37056 1.21844,0 3.19094,2.17898 2.91784,3.22329 -0.1407,0.53803 0.77719,0.88252 2.95273,1.10817 1.39275,0.14446 2.9233,0.54285 3.8137,0.99268 0.25269,0.12766 0.71852,0.23211 1.03517,0.23211 0.85498,0 3.0805,1.50349 4.65696,3.14609 0.76399,0.79604 1.38907,1.54355 1.38907,1.66114 0,0.2115 0.56153,0.95613 1.3154,1.74431 0.45984,0.48078 1.06585,1.60172 1.06585,1.97153 0,0.14327 0.16463,0.63568 0.36585,1.09423 0.86553,1.97244 1.03395,2.71142 1.2603,5.5301 0.13148,1.63711 0.27103,3.33374 0.31013,3.77031 0.0391,0.43656 0.20538,1.03632 0.36951,1.33279 0.36145,0.65287 0.86921,4.98952 0.86921,7.42367 0,2.20083 -0.52096,5.14739 -0.99566,5.63141 -0.19685,0.20073 -0.8868,0.42457 -1.53321,0.49743 -0.64642,0.0729 -1.1753,0.23605 -1.1753,0.36265 0,0.12659 -0.2311,0.23017 -0.51355,0.23017 -0.28245,0 -0.58148,0.1099 -0.66449,0.24423 -0.083,0.13432 -0.53262,0.32806 -0.99912,0.43052 -0.4665,0.10246 -1.04673,0.31029 -1.2894,0.46184 -0.46078,0.28775 -1.75058,-0.17736 -3.14802,-1.13521 -0.3638,-0.24936 -0.98888,-0.53254 -1.38907,-0.62929 -0.63873,-0.15443 -0.7276,-0.30149 -0.7276,-1.20404 v -1.02811 l -1.12448,0.12019 c -1.11107,0.11876 -2.65637,0.52497 -5.4901,1.44318 -0.80037,0.25934 -1.93146,0.54602 -2.51354,0.63706 -1.62858,0.25473 -3.67472,0.73909 -3.96875,0.93948 -0.14553,0.0992 -0.74084,0.26603 -1.32292,0.37079 -0.58208,0.10475 -1.1774,0.28391 -1.32292,0.39813 -0.2672,0.20973 -0.9176,0.35513 -3.57718,0.79973 -0.80328,0.13428 -2.31347,0.53273 -3.35597,0.88543 -1.04251,0.3527 -2.70699,0.78469 -3.69886,0.95996 -1.91453,0.33832 -3.214096,0.65694 -5.053796,1.23905 -0.62355,0.1973 -1.34387,0.35873 -1.60072,0.35873 -0.25685,0 -0.58012,0.10102 -0.71836,0.22449 -0.13824,0.12347 -1.44198,0.43813 -2.89719,0.69925 -1.45521,0.26111 -2.76489,0.56083 -2.91041,0.66604 -0.14553,0.10521 -0.56224,0.25742 -0.92605,0.33825 -0.3638,0.0808 -1.59927,0.39447 -2.74548,0.69697 -1.14621,0.3025 -2.31447,0.55 -2.59612,0.55 -0.28165,0 -1.07025,0.16754 -1.75243,0.37231 -0.68219,0.20478 -2.12704,0.63725 -3.21078,0.96104 -1.08374,0.3238 -2.63155,0.68199 -3.43958,0.79599 -0.80803,0.11399 -1.88587,0.32711 -2.39519,0.4736 -0.50932,0.14649 -1.87854,0.51847 -3.04271,0.82663 -1.16417,0.30816 -2.47385,0.66397 -2.91042,0.79069 -0.43656,0.12672 -1.47648,0.30889 -2.31093,0.40484 -0.83445,0.0959 -1.58562,0.28516 -1.66926,0.4205 -0.0836,0.13534 -0.47843,0.24607 -0.8773,0.24607 -0.39887,0 -0.83832,0.10287 -0.97657,0.22861 -0.3373,0.30678 -2.53335,0.84444 -4.48469,1.09799 -0.87312,0.11345 -2.24234,0.40542 -3.0427,0.64882 -2.64675,0.8049 -3.28083,0.96345 -6.35,1.58775 -2.74736,0.55883 -5.89132,1.34008 -8.08858,2.00995 -0.4469,0.13624 -1.21034,0.24771 -1.69654,0.24771 -0.85457,0 -1.9217,0.2632 -5.56072,1.37152 -0.94588,0.28808 -2.4937,0.62276 -3.43958,0.74374 -0.94589,0.12097 -2.19604,0.36028 -2.77813,0.53181 -0.58208,0.17152 -1.67534,0.45163 -2.42947,0.62246 -0.75413,0.17083 -1.45858,0.39804 -1.56545,0.50491 -0.10687,0.10687 -0.56738,0.19431 -1.02334,0.19431 -1.00742,0 -1.46403,0.41074 -1.46403,1.31696 0,0.91949 -1.19424,2.65179 -1.82814,2.65179 -0.15314,0 -0.35393,-0.30078 -0.4462,-0.66839 z m -21.24074,-11.573 c -0.26131,-0.25936 -0.2917,-0.22897 -0.14812,0.14811 0.0994,0.26094 0.24731,0.40778 0.32877,0.32632 0.0815,-0.0815 1.7e-4,-0.29495 -0.18065,-0.47443 z m 75.25615,-41.06991 c 0.50106,-0.53128 0.91102,-1.12239 0.91102,-1.31357 0,-0.19118 0.2737,-0.52695 0.60823,-0.74614 1.06458,-0.69754 1.29908,-2.04018 1.43801,-8.23328 0.15441,-6.88337 -0.2092,-8.77068 -1.45057,-7.5293 -0.3694,0.3694 -0.94467,0.0158 -2.82432,-1.73583 -0.71643,-0.66766 -1.3867,-1.21392 -1.48948,-1.21392 -0.27646,0 -1.95675,2.11719 -2.46732,3.10886 -0.2435,0.47294 -0.55301,0.85989 -0.6878,0.85989 -0.1348,0 -0.59615,0.50602 -1.02523,1.12448 -0.94879,1.36755 -3.10455,3.63644 -4.00777,4.2181 l -0.66146,0.42596 0.81143,0.75375 c 0.44629,0.41457 1.15999,1.23001 1.586,1.81209 0.426,0.58208 0.84309,1.11786 0.92685,1.19062 0.0838,0.0728 0.65374,0.81691 1.26662,1.65365 0.61288,0.83674 1.19987,1.52272 1.30442,1.52439 0.10455,0.002 0.41761,0.47792 0.69568,1.05833 0.27808,0.58042 0.614,1.0553 0.74651,1.0553 0.33171,0 0.99686,0.69356 0.99686,1.03944 0,0.15591 0.11907,0.28348 0.26459,0.28348 0.14552,0 0.26458,0.12074 0.26458,0.26831 0,0.36881 1.70003,1.86636 1.80096,1.58646 0.0446,-0.12381 0.49112,-0.65979 0.99219,-1.19107 z m -10.99523,-12.65892 c 1.00743,-0.9576 2.38348,-2.56821 3.08867,-3.61514 0.24505,-0.3638 0.79411,-1.06698 1.22013,-1.56262 0.42602,-0.49564 0.89262,-1.23978 1.0369,-1.65365 0.14427,-0.41386 0.36973,-0.75248 0.50101,-0.75248 0.13129,0 0.2387,-0.12426 0.2387,-0.27613 0,-0.15187 0.29766,-0.59714 0.66146,-0.98948 0.3638,-0.39235 0.66146,-0.84511 0.66146,-1.00614 0,-0.44598 0.75676,-1.86609 1.18288,-2.21974 0.55676,-0.46207 2.17388,-4.02479 2.91903,-6.43098 0.69119,-2.23197 1.04353,-2.23337 0.83627,-0.003 -0.16595,1.78555 -1.15693,4.59798 -1.74909,4.96395 -0.15327,0.0947 -0.27867,0.45373 -0.27867,0.79778 0,0.34405 -0.26789,0.96254 -0.59532,1.37443 -1.22109,1.5361 -1.55438,2.46671 -0.88341,2.46671 0.20534,0 0.65743,0.32743 1.00463,0.72761 1.67112,1.92612 3.70414,2.49628 3.21303,0.90109 -0.28408,-0.92273 -0.22429,-3.53982 0.11881,-5.20057 0.15032,-0.72761 0.41667,-2.15636 0.59188,-3.175 0.17521,-1.01865 0.41108,-2.09021 0.52416,-2.38125 0.46694,-1.20181 1.14191,-2.65445 1.29085,-2.77813 0.29245,-0.24282 0.82078,-1.31135 0.82078,-1.65998 0,-0.2211 -0.39881,-0.36014 -1.11492,-0.3887 -1.10172,-0.0439 -1.90996,0.38263 -3.51002,1.85248 -0.28815,0.2647 -0.79416,0.5491 -1.12448,0.632 -0.33032,0.0829 -0.60058,0.25689 -0.60058,0.38664 0,0.12974 -0.13759,0.2359 -0.30575,0.2359 -0.16817,0 -0.696,0.29765 -1.17297,0.66146 -0.47697,0.3638 -0.99423,0.66145 -1.14946,0.66145 -0.15523,0 -0.28223,0.11907 -0.28223,0.26459 0,0.14552 -0.29766,0.26458 -0.66146,0.26458 -0.3638,0 -0.66146,0.11104 -0.66146,0.24675 0,0.13572 -0.26789,0.33036 -0.59531,0.43254 -0.32742,0.10218 -0.65485,0.25903 -0.72761,0.34856 -0.30768,0.37859 -1.84444,1.08882 -2.35592,1.08882 -0.55494,0 -0.6624,0.22281 -0.56158,1.16433 0.0571,0.53347 -0.43496,1.64642 -0.9851,2.228 -0.1819,0.1923 -0.33073,0.45217 -0.33073,0.57749 0,0.12532 -0.23813,0.30343 -0.52917,0.3958 -0.40919,0.12987 -0.52916,0.40033 -0.52916,1.19284 0,0.56369 0.11906,1.09848 0.26458,1.18841 0.14552,0.0899 0.26458,1.01125 0.26458,2.04735 0,1.64563 -0.14555,2.46295 -0.74269,4.17036 -0.18457,0.52777 -0.62088,-2.89277 -0.4556,-3.57187 0.17338,-0.71244 -0.34117,-3.76623 -0.81005,-4.80753 -0.20773,-0.46132 -0.45277,-1.2142 -0.54454,-1.67305 -0.13633,-0.68162 -0.26903,-0.81019 -0.72522,-0.70264 -0.30709,0.0724 -1.39179,0.21466 -2.41044,0.31613 -1.01864,0.10146 -1.98218,0.28812 -2.14119,0.41478 -0.19086,0.15204 -0.2187,0.65813 -0.0819,1.48922 0.11396,0.69241 0.21429,2.0443 0.22296,3.00421 0.0182,2.0141 0.45555,3.05996 1.5936,3.81096 0.44105,0.29104 0.80225,0.62518 0.80267,0.74252 4.1e-4,0.11735 0.59607,0.78414 1.32367,1.48176 0.72761,0.69762 1.32292,1.37961 1.32292,1.51553 0,0.13593 0.35719,0.45813 0.79375,0.71602 0.43656,0.25788 0.79375,0.58121 0.79375,0.7185 0,0.4456 0.37875,0.26432 1.32292,-0.63315 z m 48.352596,0.34129 c 0.78694,-0.33703 0.8599,-0.46861 0.8599,-1.55078 v -1.18251 l -0.52917,0.56799 c -0.29104,0.3124 -0.52917,0.69204 -0.52917,0.84364 0,0.15161 -0.093,0.27565 -0.20657,0.27565 -0.11362,0 -0.3442,0.36459 -0.5124,0.81021 -0.1682,0.44561 -0.22407,0.76383 -0.12415,0.70714 0.0999,-0.0567 0.56862,-0.26878 1.04156,-0.47134 z m -57.592256,-8.89256 c -0.15532,-0.55935 -0.28306,-1.7016 -0.28387,-2.53835 l -0.001,-1.52135 h -2.69573 -2.69572 l 0.56799,0.52916 c 0.3124,0.29105 0.6493,0.52917 0.74867,0.52917 0.0994,0 0.6909,0.52498 1.31452,1.16662 0.62362,0.64164 1.35497,1.2368 1.62523,1.32258 0.27026,0.0858 0.70733,0.52154 0.97128,0.96836 0.61457,1.0404 0.80965,0.84225 0.4491,-0.45619 z m 8.91351,-4.32402 c 0.27807,-0.44528 0.23573,-0.57648 -0.29914,-0.92694 -0.34269,-0.22454 -0.81844,-0.33328 -1.05722,-0.24165 -0.52501,0.20147 -0.52311,0.11497 -0.0245,1.11446 0.43701,0.876 0.8573,0.89248 1.38086,0.0541 z m 1.1199,-2.01587 c 0,-0.21828 -0.11907,-0.32329 -0.26459,-0.23335 -0.14552,0.0899 -0.26458,0.34211 -0.26458,0.56039 0,0.21828 0.11906,0.32329 0.26458,0.23336 0.14552,-0.0899 0.26459,-0.34212 0.26459,-0.5604 z m -17.46277,-19.27115 0.6612,-0.36593 -0.6612,-0.13673 c -0.36365,-0.0752 -1.07791,-0.19933 -1.58723,-0.27586 -0.50933,-0.0765 -1.2237,-0.21325 -1.5875,-0.30384 -0.63125,-0.15719 -0.622,-0.12745 0.20261,0.65116 0.94775,0.89488 1.88783,1.03127 2.97212,0.4312 z m 14.78177,-5.14383 c -0.69151,-0.87471 -1.02317,-1.01858 -1.02317,-0.44383 0,0.39813 1.31596,1.56957 1.52658,1.35894 0.0676,-0.0676 -0.15895,-0.47938 -0.50341,-0.91511 z m 2.11511,0.10454 c -1.05307,-1.11645 -1.25505,-1.15364 -1.07778,-0.19844 0.15692,0.84558 0.47757,1.1148 1.33443,1.12043 0.59651,0.004 0.58806,-0.0264 -0.25665,-0.92199 z m 1.61834,0.44741 c -0.003,-0.10056 -0.23739,-0.48048 -0.52033,-0.84428 l -0.51444,-0.66146 0.29708,0.98225 c 0.1634,0.54024 0.39755,0.92016 0.52033,0.84428 0.12278,-0.0759 0.22059,-0.22024 0.21736,-0.32079 z m -3.3386,-2.42349 c -0.45761,-0.77468 -1.09593,-1.21233 -1.36937,-0.93889 -0.12447,0.12448 1.48413,1.72435 1.73375,1.72435 0.0548,0 -0.10919,-0.35346 -0.36438,-0.78546 z m -2.21177,-0.008 c 0,-0.14552 -0.11906,-0.26459 -0.26458,-0.26459 -0.14552,0 -0.26459,0.11907 -0.26459,0.26459 0,0.14552 0.11907,0.26458 0.26459,0.26458 0.14552,0 0.26458,-0.11906 0.26458,-0.26458 z m -3.0144,-0.6831 c -0.0883,-0.23018 -0.1606,-0.51353 -0.1606,-0.62966 0,-0.11613 -0.68461,-0.28295 -1.52135,-0.37071 -0.83675,-0.0878 -1.99761,-0.21722 -2.57969,-0.2877 -0.92929,-0.11251 -0.96155,-0.10004 -0.26459,0.10227 1.05388,0.3059 2.46284,0.81549 3.43959,1.24402 1.04668,0.45921 1.28039,0.44669 1.08664,-0.0582 z m 1.95607,-0.11065 c -0.20986,-0.1297 -0.44109,-0.17628 -0.51385,-0.10352 -0.0728,0.0728 0.0394,0.2384 0.24926,0.3681 0.20986,0.1297 0.44108,0.17628 0.51384,0.10352 0.0728,-0.0728 -0.0394,-0.23841 -0.24925,-0.3681 z m 3.86361,-0.49917 c -0.23322,-0.2577 -0.42403,-0.59176 -0.42403,-0.74236 0,-0.60558 -1.31959,-1.59615 -1.96257,-1.47323 l -0.64069,0.12247 0.83948,0.70083 c 0.46171,0.38546 1.07721,0.82963 1.36778,0.98706 0.29056,0.15742 0.64669,0.54638 0.79139,0.86435 0.1447,0.31797 0.30575,0.45017 0.35788,0.29378 0.0521,-0.1564 -0.096,-0.4952 -0.32924,-0.7529 z m -2.82733,-0.65424 c -0.31172,-0.26882 -1.59365,-0.4292 -1.43971,-0.18012 0.0935,0.15136 0.48055,0.27519 0.86001,0.27519 0.37947,0 0.64033,-0.0428 0.5797,-0.0951 z m -3.15295,-1.22784 c -0.21828,-0.14107 -0.70309,-0.25831 -1.07735,-0.26054 -0.37426,-0.002 -1.20769,-0.17272 -1.85208,-0.37887 -0.64439,-0.20615 -1.46927,-0.4391 -1.83307,-0.51767 -0.3638,-0.0786 -0.89958,-0.3348 -1.19063,-0.5694 -0.49475,-0.39881 -0.4014,-0.41636 1.43553,-0.26991 1.08058,0.0861 2.09262,0.25694 2.24896,0.37955 0.66583,0.52212 1.8396,0.50032 2.58117,-0.048 0.93496,-0.69125 0.93896,-0.89682 0.0182,-0.93629 -0.40018,-0.0172 -1.72281,-0.10697 -2.93917,-0.19958 -1.54773,-0.11786 -2.39627,-0.0696 -2.82689,0.16091 -0.33842,0.18112 -0.86127,0.26499 -1.16187,0.18638 -0.8368,-0.21883 -0.69516,0.67655 0.25776,1.62947 0.76219,0.76219 0.93196,0.80888 3.24115,0.89149 1.34026,0.0479 2.67496,0.11005 2.966,0.13803 0.43256,0.0416 0.45671,0.004 0.13229,-0.20562 z m 2.75648,-0.68977 c 0.23019,-0.0883 0.41852,-0.38225 0.41852,-0.65315 0,-0.51279 -0.29985,-0.49616 -1.51232,0.0839 -1.03089,0.49316 -0.045,1.00628 1.0938,0.56928 z m -8.97027,-2.79036 c 0.73064,-0.39477 1.52614,-0.5708 2.59065,-0.57326 1.52442,-0.004 1.52979,-0.006 0.69723,-0.35634 -1.63776,-0.68862 -5.27617,-0.30051 -5.27617,0.56282 0,0.31263 0.52257,0.93649 0.78443,0.93649 0.0822,0 0.62393,-0.25637 1.20386,-0.56971 z m -42.03294,108.71612 c -0.10016,-0.39907 -0.2989,-0.72557 -0.44165,-0.72557 -0.14274,0 -0.25519,-0.32743 -0.24988,-0.72761 0.009,-0.66258 0.0575,-0.62549 0.54517,0.41501 0.29453,0.62844 0.48893,1.28237 0.43199,1.45318 -0.0569,0.17081 -0.18547,-0.0159 -0.28563,-0.41501 z m 79.86444,-38.65491 c -0.14552,-0.16663 -0.40561,-0.69664 -0.57798,-1.17781 -0.26633,-0.7435 -0.25066,-0.89892 0.10441,-1.03518 0.54086,-0.20754 1.13503,0.60287 1.13503,1.54811 0,0.83105 -0.27497,1.10743 -0.66146,0.66488 z m -7.90919,-4.55793 c -0.25075,-0.65344 -0.21781,-0.67453 0.76544,-0.49007 0.6114,0.1147 0.92604,0.0728 0.92604,-0.12319 0,-0.1633 0.25124,-0.83139 0.5583,-1.48465 0.37198,-0.79134 0.72519,-1.18774 1.05834,-1.18774 0.65978,0 0.6388,0.14892 -0.29168,2.06978 -0.76931,1.58815 -0.8209,1.63438 -1.82378,1.63438 -0.69703,0 -1.0842,-0.13585 -1.19266,-0.41851 z m -0.28342,-2.47657 c -0.0847,-0.13709 0.26168,-0.44653 0.76979,-0.68765 0.55875,-0.26515 1.29996,-1.00504 1.8756,-1.87229 0.8925,-1.34461 1.44618,-1.62925 1.44618,-0.74348 0,0.355 -0.37487,1.14551 -0.86278,1.81941 -1.16388,1.60753 -1.32227,1.73326 -2.18352,1.73326 -0.49017,0 -0.96055,-0.11216 -1.04527,-0.24925 z m 1.3939,-4.38869 c -0.0831,-0.0831 -0.0337,-0.59158 0.10974,-1.12999 0.14343,-0.53842 0.32072,-1.42617 0.39397,-1.97279 0.0733,-0.54662 0.23967,-1.05966 0.36982,-1.14009 0.13015,-0.0804 0.23664,-0.35949 0.23664,-0.62011 0,-0.26062 0.35718,-0.96693 0.79375,-1.56959 0.43656,-0.60266 0.79375,-1.21745 0.79375,-1.36621 0,-0.14875 0.10517,-0.4772 0.23371,-0.72989 0.22637,-0.44498 0.38808,-0.82258 1.13181,-2.6427 0.19335,-0.47319 0.47123,-0.81857 0.61749,-0.76752 0.42913,0.14978 0.15534,1.78566 -0.54255,3.24174 -0.35569,0.74211 -0.64671,1.53876 -0.64671,1.77033 0,0.23157 -0.1152,0.49222 -0.25599,0.57924 -0.32248,0.1993 -1.85931,3.3968 -1.86466,3.8796 -0.002,0.19747 -0.16829,0.83113 -0.3691,1.40812 -0.35375,1.01646 -0.68965,1.37187 -1.00167,1.05986 z m 0.43268,-9.78947 c 0.17581,-0.93712 0.89356,-2.35705 1.78629,-3.53379 0.26328,-0.34705 0.4787,-0.83061 0.4787,-1.07459 0,-0.24398 0.20836,-0.67766 0.46302,-0.96373 0.25466,-0.28607 0.69013,-0.96337 0.9677,-1.5051 0.27758,-0.54173 0.605,-0.98496 0.72761,-0.98496 0.1226,0 0.22292,-0.29362 0.22292,-0.65248 0,-0.35887 0.16866,-1.04348 0.3748,-1.52136 0.20614,-0.47788 0.56455,-1.30616 0.79646,-1.84062 0.23192,-0.53446 0.61088,-1.80963 0.84215,-2.83372 0.55841,-2.4727 1.11036,-2.97654 0.97076,-0.88612 -0.0557,0.83412 -0.17324,1.81424 -0.26119,2.17805 -0.0879,0.3638 -0.18812,0.79556 -0.2226,0.95947 -0.22056,1.04824 -1.18109,3.4272 -1.98808,4.92392 -0.13625,0.25268 -0.24772,0.63964 -0.24772,0.85989 0,0.22026 -0.11906,0.40047 -0.26458,0.40047 -0.14552,0 -0.26459,0.127 -0.26459,0.28223 0,0.15523 -0.29765,0.67249 -0.66145,1.14946 -0.36381,0.47697 -0.66146,1.04976 -0.66146,1.27286 0,0.22311 -0.1786,0.55387 -0.39688,0.73503 -0.21828,0.18116 -0.39687,0.49339 -0.39687,0.69386 0,0.20046 -0.11907,0.36447 -0.26459,0.36447 -0.14552,0 -0.26458,0.1786 -0.26458,0.39688 0,0.21828 -0.10098,0.39687 -0.2244,0.39687 -0.12342,0 -0.43916,0.47625 -0.70164,1.05834 -0.59401,1.31728 -1.04659,1.38696 -0.80978,0.12467 z m -10.509,-23.57019 c -0.0892,-0.0892 0.33744,-0.42471 0.94809,-0.74557 2.18336,-1.14722 2.96366,-1.60872 3.05055,-1.80423 0.0485,-0.10914 0.37593,-0.19843 0.7276,-0.19843 0.35168,0 0.63941,-0.11907 0.63941,-0.26459 0,-0.14552 0.12701,-0.26458 0.28224,-0.26458 0.15523,0 0.66125,-0.28269 1.12448,-0.6282 0.46323,-0.34551 1.49709,-0.82811 2.29745,-1.07245 0.80036,-0.24434 1.63859,-0.54237 1.86273,-0.6623 0.65995,-0.35311 3.69352,-0.6334 3.69352,-0.34126 0,0.39589 -0.57799,0.76938 -1.45521,0.94034 -2.39028,0.46583 -3.80578,0.90102 -4.66144,1.43314 -0.5265,0.32742 -1.03749,0.59531 -1.13554,0.59531 -0.0981,0 -0.43387,0.23813 -0.74626,0.52917 -0.3124,0.29104 -0.83618,0.52917 -1.16395,0.52917 -0.32777,0 -0.6638,0.10977 -0.74671,0.24393 -0.0829,0.13417 -0.90303,0.61042 -1.82247,1.05834 -1.60797,0.78335 -2.55089,0.99581 -2.89449,0.65221 z m -49.49908,-8.72487 c -0.65639,-1.37819 -1.49152,-4.01023 -1.49152,-4.70076 0,-0.30486 -0.31175,-1.39068 -0.69277,-2.41293 -0.38102,-1.02225 -0.78125,-2.09676 -0.88938,-2.3878 -0.47153,-1.26912 -0.7991,-2.45347 -0.7991,-2.88921 0,-0.25872 -0.17119,-0.84558 -0.38043,-1.30414 -0.70966,-1.55523 -1.73624,-4.83887 -1.73624,-5.55357 0,-0.39121 -0.10424,-0.91804 -0.23165,-1.17073 -0.12741,-0.25269 -0.43694,-1.17381 -0.68783,-2.04693 -0.25089,-0.87313 -0.5669,-1.7999 -0.70223,-2.0595 -0.71207,-1.3659 -1.15044,-15.85283 -0.56295,-18.60422 0.15844,-0.74202 0.7148,-2.01622 1.23637,-2.83156 0.52156,-0.81534 0.94829,-1.59756 0.94829,-1.73828 0,-0.38165 0.89561,-1.88263 1.12448,-1.88456 0.10914,-9.2e-4 0.19844,-0.18027 0.19844,-0.39855 0,-0.21828 0.098,-0.39688 0.21769,-0.39688 0.11972,0 0.49084,-0.54695 0.82471,-1.21545 0.59877,-1.19892 2.07825,-3.01788 2.45463,-3.01788 0.10638,0 -0.18075,0.62508 -0.63806,1.38906 -0.4573,0.76399 -1.06646,1.86532 -1.35368,2.4474 -0.28722,0.58208 -0.78809,1.41552 -1.11305,1.85208 -0.32495,0.43657 -0.79493,1.27 -1.04439,1.85209 -0.24946,0.58208 -0.6425,1.41552 -0.87341,1.85208 -0.42714,0.80754 -0.55823,1.07588 -1.0987,2.24896 -0.33282,0.72237 -0.25888,12.85322 0.0887,14.55208 0.44057,2.15339 1.02571,4.46763 1.49954,5.93068 0.27878,0.86078 0.5076,1.93234 0.50849,2.38125 9e-4,0.44891 0.1795,1.15723 0.39688,1.57405 0.21738,0.41681 0.39524,0.95855 0.39524,1.20385 0,0.2453 0.10826,0.55912 0.24057,0.69736 0.3611,0.37731 1.08235,3.00989 1.08235,3.95063 0,0.4538 0.10243,0.93821 0.22763,1.07645 0.12519,0.13825 0.44741,0.9062 0.71605,1.70657 0.26863,0.80036 0.57526,1.57724 0.6814,1.7264 0.10614,0.14916 0.27601,0.92307 0.37749,1.71979 0.10148,0.79673 0.27277,1.56766 0.38065,1.71318 0.10787,0.14552 0.26261,0.62177 0.34386,1.05833 0.0812,0.43657 0.33705,1.4486 0.56846,2.24896 0.56997,1.97133 0.44236,2.81511 -0.21652,1.4317 z m 28.27411,-4.70025 c -0.43656,-0.16602 -1.09015,-0.57003 -1.45242,-0.89781 -0.36226,-0.32778 -1.03145,-0.77287 -1.48709,-0.98908 -0.98063,-0.46534 -2.74903,-2.34657 -2.74903,-2.92442 0,-0.53701 0.55867,-0.23275 2.15726,1.17488 0.67718,0.59628 1.34327,1.08415 1.4802,1.08415 0.13694,0 0.57869,0.28331 0.98167,0.62958 0.40298,0.34627 1.26781,0.89683 1.92184,1.22348 0.87011,0.43455 1.09275,0.65498 0.82982,0.82157 -0.44057,0.27916 -0.67037,0.26244 -1.68225,-0.12235 z m -9.72955,-13.73093 c -0.064,-0.1819 -0.0171,-0.59916 0.10415,-0.92724 0.44029,-1.19108 0.53512,-4.77606 0.2222,-8.39932 -0.52848,-6.11904 -0.57387,-7.03116 -0.39691,-7.97448 0.35027,-1.86706 0.82362,-0.49439 1.19886,3.47656 0.12376,1.30969 0.36343,3.7555 0.53259,5.43513 0.26411,2.62232 0.2467,3.3514 -0.1232,5.15937 -0.60339,2.94919 -1.19747,4.19707 -1.53769,3.22998 z m 4.63705,-0.52916 c -0.63414,-0.79897 -0.91519,-2.40133 -0.72389,-4.12722 0.32311,-2.91524 0.25912,-9.26575 -0.12117,-12.02386 -0.25345,-1.83823 -0.27739,-2.76082 -0.0824,-3.175 0.1512,-0.3211 0.39944,-1.41726 0.55165,-2.4359 0.15221,-1.01865 0.41773,-2.58543 0.59004,-3.48173 0.35395,-1.84113 -0.0584,-5.30581 -0.8609,-7.2339 -0.50444,-1.21196 -0.64284,-1.41792 -1.14368,-1.70211 -0.2736,-0.15524 -0.80021,-0.55015 -1.17024,-0.87758 -0.37003,-0.32742 -0.82283,-0.59531 -1.00622,-0.59531 -0.18339,0 -0.33343,-0.0987 -0.33343,-0.21935 0,-0.12065 -0.59767,-0.49929 -1.32815,-0.84143 -1.38465,-0.64854 -1.47329,-1.32475 -0.10116,-0.77175 1.73458,0.69908 3.54598,1.64496 3.54598,1.85166 0,0.12135 0.41684,0.41843 0.92632,0.6602 0.64339,0.30531 0.99056,0.68746 1.13663,1.25118 0.29379,1.13376 0.76694,1.2003 0.63727,0.0896 -0.11936,-1.0224 0.39577,-1.56637 0.79973,-0.84453 0.23608,0.42185 0.30141,0.41282 0.86869,-0.12012 0.41386,-0.38879 0.78965,-0.52034 1.1551,-0.40435 0.29793,0.0946 0.78431,0.0421 1.08085,-0.11662 0.46614,-0.24948 0.53916,-0.54753 0.53916,-2.20088 0,-1.71031 -0.0611,-1.93991 -0.5782,-2.1735 -0.74961,-0.33861 -0.91168,-0.87518 -0.33159,-1.09778 0.28884,-0.11084 0.58419,-0.002 0.80223,0.29652 0.23576,0.32242 0.54273,0.42234 0.9689,0.31538 l 0.6238,-0.15657 -0.11072,2.43959 c -0.13273,2.92466 -0.40485,3.36564 -2.07689,3.36564 -0.80304,0 -1.14962,0.11047 -1.14962,0.36642 0,0.20154 -0.47813,0.8305 -1.06251,1.39771 l -1.06251,1.03127 0.28646,1.71115 c 0.52443,3.13273 0.58086,4.00074 0.27964,4.30195 -0.16124,0.16124 -0.29705,0.53724 -0.3018,0.83556 -0.009,0.59449 -0.86908,3.2281 -1.14309,3.50211 -0.0942,0.0942 -0.17119,0.50293 -0.17119,0.90839 0,0.40546 -0.13863,1.04148 -0.30808,1.41337 -0.22522,0.49432 -0.23058,0.83567 -0.0199,1.26922 0.15848,0.32618 0.34478,0.89071 0.41399,1.25452 0.0692,0.3638 0.3317,1.37583 0.58331,2.24895 0.55728,1.93378 0.66931,6.7148 0.18915,8.07253 -0.40846,1.15502 -0.5332,4.03407 -0.23201,5.35508 0.23023,1.00978 -0.0346,1.32285 -0.55955,0.66146 z m -36.80427,-21.0704 c -0.65097,-0.41252 -0.45182,-3.23592 0.35104,-4.97676 1.27406,-2.76255 1.54169,-3.25545 1.7676,-3.25545 0.1226,0 0.22292,-0.12409 0.22292,-0.27575 0,-0.15166 0.12116,-0.41955 0.26925,-0.59531 0.14809,-0.17576 0.62509,-0.82558 1.05999,-1.44404 0.43491,-0.61847 0.96057,-1.12448 1.16813,-1.12448 0.20756,0 0.45299,-0.23821 0.54539,-0.52935 0.0924,-0.29113 0.60645,-0.85668 1.14231,-1.25677 0.53587,-0.40008 1.09337,-0.86329 1.23889,-1.02934 0.14552,-0.16605 1.1564,-0.93031 2.2464,-1.69834 1.09,-0.76803 2.1403,-1.5549 2.334,-1.7486 0.1937,-0.1937 0.55204,-0.35597 0.79631,-0.3606 0.24427,-0.005 0.67524,-0.18322 0.95771,-0.39687 0.61598,-0.4659 0.94162,-0.49596 0.94162,-0.0869 0,0.37444 -0.80006,1.00163 -1.29213,1.01294 -0.20135,0.005 -0.61807,0.28826 -0.92605,0.63029 -0.30797,0.34203 -1.09573,0.98341 -1.75057,1.4253 -0.65485,0.44188 -1.60735,1.17217 -2.11667,1.62285 -0.50932,0.45069 -1.01123,0.82134 -1.11536,0.82366 -0.20903,0.005 -1.79506,1.50206 -1.79506,1.69475 0,0.0665 -0.32742,0.46187 -0.7276,0.87867 -1.15968,1.20784 -1.91823,2.17694 -1.91823,2.4507 0,0.13935 -0.34015,0.64446 -0.7559,1.12246 -0.41574,0.47801 -0.90925,1.34536 -1.09667,1.92744 -0.18743,0.58208 -0.4148,1.11786 -0.50526,1.19063 -0.33504,0.26946 -0.75752,2.54169 -0.62723,3.37343 0.14573,0.93027 0.12219,0.96576 -0.41483,0.62544 z"
       id="path21" /></g></svg>
