<?xml version="1.0" encoding="UTF-8" standalone="no"?>
<!-- Created with Inkscape (http://www.inkscape.org/) -->

<svg
   width="116.26156mm"
   height="65.261917mm"
   viewBox="0 0 116.26157 65.261918"
   version="1.1"
   id="svg1"
   xml:space="preserve"
   xmlns="http://www.w3.org/2000/svg"
   xmlns:svg="http://www.w3.org/2000/svg"><defs
     id="defs1" /><g
     id="layer1"
     transform="translate(-279.7466,-1724.1492)"><path
       style="fill:#333333;stroke-width:2.5"
       d="m 372.05827,1789.034 c -0.2345,-0.3793 -0.86635,-3.0043 -1.4042,-5.8328 -0.53787,-2.8287 -1.15955,-5.7245 -1.38152,-6.4352 -0.368,-1.178 -0.31133,-1.1998 0.64242,-0.245 0.57535,0.5752 1.38958,3.0185 1.8094,5.4295 0.8095,4.6482 1.7019,6.0792 2.23083,3.577 1.17602,-5.5635 1.5623,-8.153 1.2835,-8.604 -0.176,-0.285 0.12625,-0.518 0.672,-0.518 1.53777,0 1.68397,0.7765 0.68542,3.6397 -1.20972,3.4688 -0.9872,7.568 0.38485,7.0888 1.71525,-0.5988 3.3809,-2.3323 6.15258,-6.4028 3.29892,-4.8447 4.0642,-3.8622 0.87495,1.1235 -2.3817,3.723 -3.97055,5.079 -7.35825,6.2798 -1.0914,0.3867 -2.47518,0.903 -3.07503,1.1467 -0.59985,0.245 -1.28247,0.1325 -1.51695,-0.245 z m -79.74397,-3.6458 c 0,-1.9305 0.75785,-2.8817 2.03062,-2.5487 1.92655,0.5037 3.10145,-0.8788 3.14033,-3.6953 0.02,-1.412 1.2112,-5.248 2.71122,-8.7272 1.79995,-4.175 2.45793,-6.4268 2.00915,-6.8755 -1.4951,-1.495 -2.913,0.8902 -5.11765,8.6095 -1.2396,4.3402 -2.55957,8.2635 -2.93327,8.7182 -0.45523,0.554 -2.71873,0.8268 -6.85905,0.8268 -7.2071,0 -7.54905,-0.2805 -7.54905,-6.1933 v -3.6347 l 3.5036,-1.0185 c 3.85422,-1.1205 11.52787,-5.7688 12.13492,-7.3505 0.2115,-0.5513 0.0643,-1.388 -0.32712,-1.8595 -0.39138,-0.4715 -0.7671,-2.7078 -0.83498,-4.9693 -0.18075,-6.0232 1.68228,-7.5865 10.7512,-9.0215 1.9044,-0.3015 3.49358,-1.492 7.60678,-5.6985 8.81615,-9.0162 17.97722,-12.308 26.89787,-9.6655 1.89035,0.56 5.44618,1.1798 7.90185,1.3773 l 4.46483,0.3592 v -3.9062 c 0,-4.6048 1.2697,-5.9658 5.56577,-5.9658 2.21998,0 3.01468,0.4173 5.14448,2.7013 2.01812,2.1642 2.51892,3.2102 2.51892,5.2605 0,1.4077 -0.36657,3.3637 -0.8146,4.3472 -0.7483,1.6423 -0.65967,1.9005 1.08883,3.173 1.0469,0.7618 4.62455,4.064 7.95035,7.3383 3.3258,3.2742 7.57707,7.3255 9.44727,9.003 4.00245,3.59 4.69308,5.8895 3.44448,11.4687 -0.90428,4.0408 -2.46393,6.1518 -1.68898,2.286 1.67805,-8.3705 1.25843,-9.8035 -4.1075,-14.0267 -2.05937,-1.621 -4.6651,-3.9508 -5.79047,-5.1775 -9.99368,-10.8943 -10.54615,-11.372 -11.75368,-10.1643 -1.42355,1.4235 -2.09472,0.8945 -1.13657,-0.8957 0.91912,-1.7175 0.91415,-5.2848 -0.01,-7.939 -0.6819,-1.9563 -0.9247,-2.0833 -3.98293,-2.0833 -2.84757,0 -3.35317,0.2125 -4.02397,1.684 -0.6649,1.4593 -0.47305,2.2575 1.43832,5.984 1.21308,2.365 2.75533,4.5945 3.42725,4.954 1.465,0.784 1.59953,2.3053 0.24975,2.823 -0.69385,0.2665 -1.56345,-0.8662 -3.03887,-3.9577 -2.28578,-4.7893 -4.34688,-6.1955 -9.08118,-6.1955 -3.67472,0 -14.33575,3.831 -27.2569,9.7947 -2.36472,1.0915 -5.60812,2.371 -7.20757,2.8433 -1.7514,0.517 -3.03103,1.3287 -3.21713,2.0405 -0.17,0.65 -0.57285,1.0185 -0.8953,0.8192 -0.32242,-0.2 -0.58625,-0.097 -0.58625,0.2275 0,0.3238 -0.81855,0.9963 -1.81902,1.4945 -2.33573,1.1633 -6.11848,4.6433 -6.11848,5.6288 0,0.418 0.5209,1.2282 1.15755,1.8002 1.47525,1.3258 6.43023,0.5573 7.71238,-1.196 1.10527,-1.5117 0.61467,-3.4477 -1.00385,-3.9612 -0.68833,-0.2175 -1.2515,-0.6485 -1.2515,-0.9558 0,-0.6825 1.30527,-0.5265 2.64585,0.3163 0.5457,0.343 1.49557,0.7022 2.11085,0.7982 0.61527,0.095 2.5339,1.072 4.26362,2.1688 3.58605,2.2742 4.89848,2.44 7.22933,0.9127 0.90805,-0.595 1.78627,-0.9465 1.9516,-0.7812 0.16525,0.165 -0.152,2.3637 -0.70495,4.8852 -1.65915,7.5645 -1.79673,8.6975 -1.10768,9.1235 0.36268,0.225 0.95105,0.037 1.3075,-0.412 0.85385,-1.0797 4.132,-11.0725 4.132,-12.5957 0,-2.5678 2.05415,-4.9808 6.41748,-7.5385 9.5091,-5.5743 11.98937,-5.4413 14.79015,0.7937 l 1.18852,2.6458 0.0467,-2.4428 c 0.0333,-1.7402 0.46955,-2.7392 1.5166,-3.4725 1.39048,-0.974 1.52025,-0.9315 2.40238,0.7893 1.25577,2.4495 1.2544,2.4485 2.33602,1.5507 0.7606,-0.6312 1.15698,-0.4897 2.00035,0.7145 0.57848,0.8258 1.05178,2.3568 1.05178,3.402 0,1.0453 0.63682,2.7948 1.41515,3.8878 1.3308,1.869 1.34065,1.9737 0.16525,1.7557 -0.73965,-0.1375 -2.0228,-1.7555 -3.14368,-3.9655 -1.97547,-3.8945 -2.53587,-4.1645 -5.10447,-2.459 -1.51248,1.0043 -1.52315,1.0778 -0.40423,2.7853 0.6321,0.9647 0.89253,1.754 0.57873,1.754 -0.3138,0 -0.92713,-0.7825 -1.36293,-1.739 -1.19907,-2.6318 -1.56267,-1.471 -0.67502,2.1547 1.41462,5.7785 4.42367,10.829 6.45175,10.829 1.22202,0 8.03247,4.0305 8.03247,4.7538 0,0.7465 -2.63217,-0.3858 -6.29322,-2.7078 -1.77628,-1.1265 -3.40973,-1.8242 -3.62988,-1.5507 -0.22025,0.2732 -1.06147,2.6247 -1.86962,5.2252 -0.80815,2.6005 -1.83403,5.0168 -2.27973,5.369 -0.4457,0.3525 -7.32715,0.831 -15.29212,1.0633 -12.69145,0.37 -14.5901,0.565 -15.35788,1.5762 -0.48185,0.6348 -0.88555,1.3773 -0.89712,1.65 -0.0125,0.273 -0.74448,0.496 -1.62868,0.496 -1.1636,0 -1.66602,-0.411 -1.81902,-1.4882 -0.206,-1.4505 -0.44203,-1.4928 -9.30643,-1.6723 -8.71917,-0.1775 -9.09505,-0.13 -9.09505,1.1405 0,0.798 -0.7761,1.726 -1.95152,2.3338 -2.44243,1.2632 -4.0016,1.2907 -4.0016,0.072 z m 29.10087,-8.7795 c 0.005,-2.6502 -0.92997,-3.2577 -2.96252,-1.9257 -1.3398,0.8777 -1.53105,1.4232 -1.23745,3.5295 0.62137,4.4572 0.84207,4.669 2.59727,2.4915 0.93988,-1.1663 1.60078,-2.855 1.6027,-4.0953 z m -5.28837,-9.9182 c 0,-1.198 -3.052,-3.5108 -4.58015,-3.4705 l -1.7037,0.045 1.65365,0.7672 c 0.9095,0.422 2.0426,1.2948 2.51797,1.9398 0.85733,1.1627 2.11223,1.5897 2.11223,0.7187 z m 61.51562,16.4065 c 0,-0.3638 0.29768,-0.8453 0.66148,-1.0703 0.3638,-0.225 0.66145,-0.11 0.66145,0.2528 0,0.3637 -0.29765,0.8455 -0.66145,1.0702 -0.3638,0.225 -0.66148,0.11 -0.66148,-0.2527 z m 12.49155,-0.5323 c -0.042,-0.2957 -0.0295,-1.0222 0.0278,-1.614 0.0573,-0.592 -0.35,-1.2505 -0.90485,-1.4632 -0.55817,-0.215 -0.84162,-0.823 -0.6345,-1.3628 0.52198,-1.3602 2.05218,-0.611 2.51453,1.2313 0.39682,1.581 2.0421,2.6272 3.10165,1.9725 1.03425,-0.6393 0.6595,-2.6825 -0.72115,-3.932 -0.7276,-0.6583 -1.3229,-1.9845 -1.3229,-2.9468 0,-0.9622 -0.3572,-2.1067 -0.79375,-2.5432 -0.61738,-0.6173 -0.57558,-0.7938 0.188,-0.7938 0.55165,0 1.82367,1.7728 2.90342,4.0463 1.77833,3.7445 1.84908,4.1762 0.94888,5.7877 -0.6791,1.2158 -1.61548,1.804 -3.10185,1.9488 -1.171,0.115 -2.16338,-0.035 -2.20528,-0.3308 z m -10.82607,-1.511 c -0.24525,-0.3967 0.50707,-2.4237 1.67175,-4.5042 2.59675,-4.6393 2.56522,-4.6048 3.22555,-3.5363 0.43727,0.7075 0.91862,0.673 2.57702,-0.185 2.26038,-1.1687 3.42793,-1.3397 3.42793,-0.5015 0,0.3043 -1.73238,1.3008 -3.84973,2.2143 -3.18597,1.3747 -4.0874,2.1415 -5.22822,4.4472 -0.78093,1.5785 -1.57175,2.4735 -1.8243,2.065 z m -6.90493,-6.7545 c -0.0288,-0.6122 -0.60235,-1.2875 -1.27475,-1.501 -0.6724,-0.2125 -1.55897,-1.1265 -1.9702,-2.029 -0.5879,-1.2902 -1.24052,-1.641 -3.0545,-1.641 -2.31897,0 -6.8904,-1.744 -7.8018,-2.9765 -0.26902,-0.3637 -0.34007,-1.0665 -0.158,-1.5617 0.217,-0.5898 -0.01,-0.7693 -0.66045,-0.52 -0.54547,0.21 -0.96007,0.1675 -0.92137,-0.092 0.0387,-0.2598 8.2e-4,-0.77 -0.0842,-1.1338 -0.085,-0.3637 -0.19475,-1.108 -0.24375,-1.6537 -0.049,-0.5455 -0.4329,-0.927 -0.85315,-0.8475 -0.9356,0.1775 -1.7172,-1.6175 -0.91935,-2.1105 0.673,-0.416 3.7282,2.6695 4.86385,4.912 1.7747,3.5042 6.2877,5.1735 10.21412,3.7777 1.22498,-0.4355 1.48828,-0.294 1.48828,0.7993 0,0.7307 -0.33588,1.5362 -0.7464,1.7897 -1.33838,0.8273 1.24347,1.7358 2.70685,0.9525 3.07152,-1.6437 2.9093,-4.152 -0.3068,-4.744 -1.15948,-0.2125 -1.34718,-0.8477 -1.5193,-5.1335 -0.1125,-2.7985 0.0998,-5.186 0.49607,-5.5822 0.48235,-0.4825 0.6925,0.561 0.6925,3.4385 0,4.2407 0.8304,5.7647 4.20098,7.709 1.0772,0.6215 1.06487,0.8297 -0.20375,3.4395 -0.74265,1.528 -1.7534,3.0162 -2.2461,3.3072 -0.49268,0.2913 -1.06478,0.9758 -1.2713,1.5215 -0.3073,0.812 -0.38498,0.79 -0.42773,-0.12 z m -8.07407,-11.5557 c -1.16365,-1.4013 -1.68938,-11.9498 -0.6475,-12.9915 0.53485,-0.535 0.75972,-0.2958 0.8354,0.8885 0.21925,3.4337 0.37255,5.1305 0.82105,9.0947 0.25522,2.2558 0.33685,4.1015 0.1815,4.1015 -0.1555,0 -0.6911,-0.492 -1.1904,-1.0932 z m -18.43648,-18.624 c 0,-0.6583 0.42523,-1.7745 0.94495,-2.4805 0.85465,-1.1613 0.98593,-1.1785 1.37385,-0.1775 0.4735,1.221 -0.67487,3.855 -1.6806,3.855 -0.351,0 -0.6382,-0.5383 -0.6382,-1.1963 z"
       id="path88" /></g></svg>
