<?xml version="1.0" encoding="UTF-8" standalone="no"?>
<!-- Created with Inkscape (http://www.inkscape.org/) -->

<svg
   width="121.33846mm"
   height="163.00299mm"
   viewBox="0 0 121.33847 163.00299"
   version="1.1"
   id="svg1"
   xml:space="preserve"
   xmlns="http://www.w3.org/2000/svg"
   xmlns:svg="http://www.w3.org/2000/svg"><defs
     id="defs1" /><g
     id="layer1"
     transform="translate(-138.16008,-634.73895)"><path
       style="fill:#4d4d4d"
       d="m 199.82791,796.88861 c -0.44749,-0.46922 -1.7132,-1.80428 -2.81269,-2.9668 -1.0995,-1.16251 -2.50179,-2.63863 -3.11621,-3.28026 -0.61442,-0.64164 -1.22296,-1.28097 -1.35231,-1.42075 -0.48461,-0.52368 -5.36813,-5.6729 -7.58795,-8.00081 -0.61673,-0.64676 -1.59591,-1.67782 -2.17595,-2.29124 -0.58004,-0.61342 -1.61343,-1.69821 -2.29642,-2.41065 -0.68299,-0.71243 -2.71847,-2.85637 -4.5233,-4.76431 -1.80483,-1.90794 -3.73711,-3.94524 -4.29396,-4.52732 -0.55685,-0.58208 -1.51116,-1.5853 -2.12068,-2.22938 -1.57613,-1.66548 -3.07207,-3.24006 -4.30584,-4.53219 -0.58667,-0.61443 -1.21846,-1.3017 -1.40398,-1.52728 -0.18551,-0.22558 -0.54896,-0.62661 -0.80766,-0.89118 -0.25871,-0.26458 -0.91462,-0.95314 -1.4576,-1.53014 -0.54297,-0.577 -1.46901,-1.55288 -2.05787,-2.16863 -1.81018,-1.89285 -4.96057,-5.20789 -5.36181,-5.64203 -0.20921,-0.22637 -1.2374,-1.31116 -2.28487,-2.41065 -1.04747,-1.09949 -2.29824,-2.41728 -2.7795,-2.92842 -0.48126,-0.51115 -1.11314,-1.17675 -1.40419,-1.47912 -0.29104,-0.30237 -1.32291,-1.38817 -2.29305,-2.41288 -0.97014,-1.02471 -2.35009,-2.47577 -3.06655,-3.22458 -0.71646,-0.74882 -1.69542,-1.77969 -2.17546,-2.29083 -0.48004,-0.51114 -1.12416,-1.18936 -1.43137,-1.50715 -0.44708,-0.46246 -0.55857,-0.65888 -0.55857,-0.98405 0,-0.50554 -0.0415,-0.4878 2.58704,-1.1059 3.63307,-0.85433 4.51872,-1.06471 4.93889,-1.17324 0.22637,-0.0585 0.67616,-0.1659 0.99954,-0.23874 0.7906,-0.17809 1.45329,-0.34582 1.88983,-0.47834 0.19862,-0.0603 0.49976,-0.10962 0.66921,-0.10962 0.16945,0 0.3408,-0.0529 0.38077,-0.1176 0.04,-0.0647 0.21132,-0.11759 0.38077,-0.11759 0.16945,0 0.4706,-0.0493 0.66922,-0.10962 0.19862,-0.0603 0.58602,-0.16613 0.86089,-0.23519 0.27487,-0.0691 0.69821,-0.17596 0.94074,-0.23757 0.24254,-0.0616 0.91722,-0.22286 1.49931,-0.35836 0.58208,-0.13549 1.24354,-0.2954 1.4699,-0.35536 0.59039,-0.15636 4.16718,-1.00661 4.97278,-1.1821 1.10194,-0.24004 1.08673,-0.14859 0.37984,-2.2843 -0.34251,-1.03481 -0.78739,-2.23999 -0.98861,-2.67817 -0.20122,-0.43819 -0.36586,-0.82334 -0.36586,-0.8559 0,-0.0326 -0.17889,-0.44133 -0.39754,-0.90839 -1.46968,-3.13941 -1.79857,-4.59149 -1.67515,-7.39593 0.0699,-1.58909 0.1188,-2.09311 0.42558,-4.38939 0.27026,-2.02294 0.30649,-2.54346 0.18249,-2.62132 -0.0676,-0.0424 -1.07538,-0.40193 -2.23954,-0.79889 -2.45672,-0.83768 -4.3812,-1.53756 -4.67271,-1.69934 -0.11231,-0.0623 -0.25841,-0.11332 -0.32467,-0.11332 -0.0662,0 -0.37124,-0.1111 -0.67775,-0.2469 -0.3065,-0.1358 -0.67634,-0.29455 -0.82186,-0.35278 -0.14553,-0.0582 -0.38365,-0.15352 -0.52917,-0.21175 -0.14552,-0.0582 -0.51375,-0.21622 -0.81828,-0.35109 -0.82413,-0.36498 -1.44416,-0.47771 -2.64517,-0.4809 -1.417,-0.004 -1.70227,-0.14184 -1.94947,-0.94361 -0.0737,-0.23914 0.11661,-4.06393 0.26041,-5.23287 0.11952,-0.97155 0.27893,-2.06757 0.47891,-3.2926 0.98075,-6.00794 1.13353,-7.47702 1.41249,-13.58194 0.17305,-3.78697 0.31861,-5.29747 0.6516,-6.76158 0.13875,-0.6101 0.94407,-2.23738 1.43838,-2.90651 0.26104,-0.35336 0.86191,-1.02291 1.33527,-1.48791 l 0.86066,-0.84544 -0.35071,-0.32365 c -0.19289,-0.17801 -0.53592,-0.4517 -0.76229,-0.6082 -0.22636,-0.1565 -0.43803,-0.31611 -0.47037,-0.35468 -0.0323,-0.0386 -0.244,-0.19732 -0.47037,-0.35277 -0.22636,-0.15546 -0.43803,-0.31369 -0.47037,-0.35163 -0.21887,-0.25676 -2.95202,-2.05345 -3.24994,-2.13641 -0.2029,-0.0565 -0.59058,-0.34322 -0.86151,-0.63714 -0.80364,-0.87185 -1.00694,-1.62684 -0.661,-2.45478 0.18812,-0.45023 0.48811,-0.6519 0.97236,-0.65365 0.27285,-9.8e-4 0.36483,-0.0815 0.52273,-0.45763 0.14359,-0.34205 0.29831,-0.49502 0.61736,-0.61039 0.23416,-0.0847 0.42574,-0.2145 0.42574,-0.28849 0,-0.30056 0.46431,-0.55372 0.99596,-0.54305 0.38622,0.008 0.53275,-0.0351 0.53275,-0.15587 0,-0.31941 0.26314,-0.74058 0.54213,-0.8677 0.28981,-0.13205 0.82525,0.0137 1.01417,0.2761 0.0494,0.0686 0.0872,0.0294 0.0882,-0.0914 0.003,-0.34385 0.57479,-0.78814 1.01442,-0.78814 0.51232,0 1.12926,0.53971 1.33722,1.16981 0.0865,0.26207 0.20177,0.47649 0.25619,0.47649 0.20146,0 3.12504,2.39811 4.44414,3.64537 0.98595,0.93225 3.41557,4.10416 3.41557,4.45908 0,0.0699 0.0404,0.12703 0.0897,0.12703 0.0493,0 0.14195,0.11751 0.20579,0.26114 0.0705,0.15863 0.26398,0.29085 0.49287,0.33682 0.34616,0.0695 0.68687,0.20692 1.61095,0.64959 0.1878,0.09 0.39946,0.16291 0.47037,0.1621 0.18546,-0.002 0.58446,-0.67565 0.76539,-1.29206 0.0854,-0.29104 0.20207,-0.68258 0.2592,-0.87009 0.16151,-0.53011 0.12284,-4.19919 -0.0473,-4.48582 -0.0786,-0.13235 -0.36395,-0.52923 -0.63422,-0.88195 -0.85938,-1.12153 -1.31851,-2.19794 -1.86264,-4.36688 -0.51306,-2.04509 -0.7645,-3.01362 -0.87976,-3.38878 -0.67894,-2.20995 -1.05833,-4.04133 -1.05833,-5.10871 0,-0.64247 0.0576,-0.95847 0.38674,-2.12323 0.35029,-1.23945 1.41321,-2.60842 2.71505,-3.49682 0.57626,-0.39325 2.26397,-1.24608 3.18942,-1.61168 0.60647,-0.23958 0.8611,-0.34705 1.35231,-0.57074 0.65235,-0.29708 0.97973,-0.37136 2.17546,-0.49366 1.17041,-0.1197 1.81261,-0.22631 2.11667,-0.3514 0.72233,-0.29716 1.60293,-0.58864 2.14606,-0.71035 0.64084,-0.14361 1.37547,-0.0414 2.21276,0.30782 0.50568,0.21093 1.68833,1.11889 2.24745,1.72547 l 0.47037,0.51028 0.15622,-0.53548 c 0.0859,-0.29451 0.21297,-0.62808 0.28233,-0.74127 0.15662,-0.25557 0.57772,-0.26721 0.78156,-0.0216 0.13337,0.16071 0.18393,0.11948 0.39657,-0.32337 0.29912,-0.62296 0.7592,-0.74965 1.12567,-0.30997 0.17642,0.21167 0.22823,0.23026 0.23126,0.083 0.002,-0.10437 0.14603,-0.33187 0.31973,-0.50557 0.45454,-0.45454 1.04936,-0.39238 1.33337,0.13934 0.20446,0.38279 0.20587,0.38329 0.27766,0.0973 0.0397,-0.15812 0.20917,-0.45033 0.37663,-0.64934 0.57545,-0.68388 1.45291,-0.42489 2.00623,0.59214 0.27159,0.49919 0.29557,2.11415 0.0501,3.37616 -0.13497,0.69404 -0.14213,1.07774 -0.0369,1.97725 0.27326,2.33516 -0.20722,5.54513 -1.68734,11.2727 -0.2975,1.15122 -0.51331,3.28725 -0.63561,6.29121 -0.14647,3.59744 -0.40215,5.85533 -0.93544,8.26088 -0.29475,1.32954 -0.34601,1.57084 -0.38091,1.79328 -0.0337,0.2151 0.0485,0.24135 0.96263,0.30733 1.71879,0.12405 2.84592,0.58083 3.79819,1.53923 1.59878,1.60908 2.26093,4.44902 2.85486,12.24448 0.049,0.64287 0.13367,1.0592 0.22239,1.09325 0.0788,0.0302 0.56168,-0.0614 1.07304,-0.20374 0.63807,-0.17755 1.28024,-0.26162 2.04689,-0.26795 1.57651,-0.013 1.84978,0.16337 3.05608,1.97256 0.34023,0.51025 0.76654,1.08255 0.94737,1.27177 0.54218,0.56734 0.81785,1.29021 0.81785,2.14459 0,0.41806 -0.0597,0.90811 -0.13275,1.08902 -0.28468,0.70537 -0.84514,1.79469 -1.0277,1.99747 -0.10553,0.11721 -0.33411,0.39828 -0.50797,0.62459 -0.17386,0.22631 -0.55608,0.67606 -0.84937,0.99944 -0.29329,0.32338 -0.53469,0.63721 -0.53644,0.69741 -0.002,0.0602 0.2614,0.49217 0.58478,0.95995 0.32338,0.46779 0.58797,0.90802 0.58797,0.9783 0,0.0703 0.0467,0.12777 0.10387,0.12777 0.0571,0 0.13417,0.0926 0.17119,0.20579 0.037,0.11318 0.22826,0.47037 0.42498,0.79375 0.65215,1.07207 1.85202,3.62738 2.29148,4.88009 0.23823,0.6791 0.48181,1.36701 0.54127,1.5287 0.1074,0.29202 0.39577,1.32847 0.58893,2.11667 0.0555,0.22636 0.15951,0.6497 0.23119,0.94074 0.22326,0.90644 0.59596,2.93631 0.88523,4.8213 0.0347,0.22636 0.11057,0.59678 0.16851,0.82314 0.0579,0.22637 0.16762,0.67616 0.24374,0.99954 0.66288,2.81637 1.92786,4.99533 3.75701,6.4716 0.70877,0.57202 2.84358,1.71381 4.35191,2.32759 0.2905,0.11821 0.63402,0.25858 0.76337,0.31192 0.12935,0.0533 0.55269,0.21313 0.94074,0.3551 0.38806,0.14196 0.83785,0.31295 0.99954,0.37997 0.36444,0.15107 0.61884,0.24954 1.29352,0.50069 1.21792,0.45336 1.30902,0.5242 1.27025,0.98772 -0.0379,0.4528 -0.1771,0.49681 -0.77048,0.2436 -0.44698,-0.19074 -0.75584,-0.31146 -1.79329,-0.70087 -0.54975,-0.20636 -1.13183,-0.43014 -1.29352,-0.49731 -0.16169,-0.0672 -0.41304,-0.16796 -0.55856,-0.22398 -0.14552,-0.056 -0.41011,-0.16186 -0.58797,-0.23519 -0.17785,-0.0733 -0.42921,-0.17496 -0.55856,-0.22585 -0.78775,-0.30991 -2.81872,-1.342 -3.45832,-1.75743 -1.74748,-1.13499 -3.11825,-2.84423 -4.00808,-4.99774 -0.0802,-0.19403 -0.19251,-0.44467 -0.24964,-0.55697 -0.0571,-0.11231 -0.10387,-0.30762 -0.10387,-0.43404 0,-0.12641 -0.0471,-0.25893 -0.1046,-0.29448 -0.0575,-0.0356 -0.13308,-0.23712 -0.16789,-0.44791 -0.0348,-0.2108 -0.12329,-0.6214 -0.19662,-0.91244 -0.0733,-0.29104 -0.15869,-0.68791 -0.1897,-0.88194 -0.031,-0.19403 -0.10343,-0.53799 -0.16094,-0.76435 -0.0575,-0.22637 -0.16411,-0.80845 -0.23689,-1.29352 -0.52487,-3.49781 -1.09174,-5.8496 -1.94158,-8.0551 -0.52074,-1.35142 -1.4801,-3.38251 -2.03043,-4.29871 -0.177,-0.29466 -0.47802,-0.79737 -0.66894,-1.11713 -0.19093,-0.31976 -0.37747,-0.60784 -0.41454,-0.64017 -0.0371,-0.0323 -0.32991,-0.44703 -0.65073,-0.92154 -0.32083,-0.47451 -0.62468,-0.8883 -0.67523,-0.91954 -0.0506,-0.0312 -0.32221,0.14591 -0.60369,0.39368 -0.28147,0.24776 -0.6642,0.52221 -0.8505,0.60988 -0.18631,0.0877 -0.43062,0.20614 -0.54293,0.26327 -0.1123,0.0571 -0.28614,0.10388 -0.38631,0.10388 -0.25635,0 -0.76181,-0.35052 -0.76181,-0.5283 0,-0.18889 -0.3163,-0.4579 -0.37074,-0.3153 -0.0225,0.0588 -0.15252,0.14163 -0.28903,0.18401 -0.38309,0.11895 -0.75458,-0.25606 -0.83303,-0.84092 -0.0629,-0.46905 -0.0892,-0.49857 -0.44474,-0.49857 -0.40221,0 -0.71478,-0.25735 -0.78555,-0.64676 -0.0243,-0.13362 -0.15257,-0.2509 -0.29708,-0.27157 -0.41756,-0.0598 -0.86039,-0.59113 -0.86039,-1.03245 0,-0.60961 0.48221,-1.68763 1.15631,-2.58505 0.63273,-0.84236 2.37147,-3.34712 2.37147,-3.41626 0,-0.0324 -0.0926,-0.0449 -0.20579,-0.0277 -0.56532,0.0859 -1.63606,-0.53326 -2.14606,-1.24088 -0.37042,-0.51395 -2.86721,-2.9896 -3.88056,-3.84771 -0.42039,-0.35599 -1.21414,-0.98378 -1.76389,-1.39507 -0.54974,-0.4113 -1.18474,-0.88752 -1.41111,-1.05826 -0.74622,-0.56287 -1.86655,-1.29399 -1.98282,-1.29399 -0.0628,0 -0.13188,-0.0397 -0.15344,-0.0882 -0.12438,-0.27987 -3.56075,-2.14627 -3.94943,-2.14507 -0.17771,5.5e-4 -1.09039,-0.37537 -2.0282,-0.83538 -1.70955,-0.83856 -2.55974,-1.23561 -2.99861,-1.40038 -2.66978,-1.00236 -8.34283,-4.91098 -9.00513,-6.20437 -0.0906,-0.17683 -0.3181,-0.5861 -0.50567,-0.90948 -0.18757,-0.32338 -0.4345,-0.75269 -0.54873,-0.95403 -0.46334,-0.81661 -0.53203,-0.92483 -0.72959,-1.14943 -0.11318,-0.12867 -0.20578,-0.27628 -0.20578,-0.32802 0,-0.0517 -0.0762,-0.18728 -0.16933,-0.3012 -0.0931,-0.11393 -0.49869,-0.65693 -0.90125,-1.20667 -0.40256,-0.54975 -1.21272,-1.47755 -1.80035,-2.06178 -1.17571,-1.16889 -1.29885,-1.27586 -2.83231,-2.4601 -0.58209,-0.44952 -1.0848,-0.84739 -1.11713,-0.88414 -0.0323,-0.0367 -0.20432,-0.13076 -0.38218,-0.2089 -0.19007,-0.0835 -0.32338,-0.23453 -0.32338,-0.36634 0,-0.30035 -0.2747,-0.81355 -0.54508,-1.01834 -0.1206,-0.0913 -0.39125,-0.16775 -0.60145,-0.16981 -0.34143,-0.003 -0.38217,0.0315 -0.38217,0.32686 0,0.18184 0.10583,0.44421 0.23518,0.58305 0.23734,0.25475 0.31836,0.78495 0.13707,0.897 -0.054,0.0333 -0.33177,-0.17944 -0.61736,-0.47287 -0.56226,-0.57769 -1.10571,-0.91855 -1.28642,-0.80687 -0.0624,0.0386 -0.16828,0.17251 -0.23524,0.29761 -0.10104,0.18881 -0.0412,0.31482 0.35215,0.74155 0.30378,0.32957 0.47388,0.62546 0.47388,0.82433 0,0.42461 -0.14342,0.39087 -0.71342,-0.16785 -0.26825,-0.26294 -0.62551,-0.53046 -0.79391,-0.59448 -0.31333,-0.11913 -0.84453,-0.0517 -0.84453,0.10718 0,0.0487 0.37042,0.37725 0.82315,0.73019 0.66677,0.5198 0.82315,0.70363 0.82315,0.96762 0,0.17925 -0.0548,0.3259 -0.12186,0.3259 -0.067,0 -0.47356,-0.26957 -0.90342,-0.59904 -0.84951,-0.65111 -1.23205,-0.84096 -1.49285,-0.74088 -0.37331,0.14325 -0.29477,0.39915 0.19953,0.65003 0.59397,0.30147 1.52017,0.91891 1.64064,1.09371 0.11297,0.16391 0.10926,0.32448 -0.0119,0.51557 -0.0776,0.12246 -0.20701,0.0921 -0.61556,-0.14463 -1.47495,-0.85451 -2.18543,-1.1623 -2.50046,-1.08323 -0.3843,0.0965 -0.60418,0.5272 -0.49373,0.96725 0.10624,0.42331 0.95993,1.2227 1.30574,1.2227 0.14831,0 0.28729,0.0397 0.30885,0.0882 0.0216,0.0485 0.46253,0.37508 0.97994,0.72572 0.80975,0.54875 1.73127,1.2126 3.16656,2.28112 0.18939,0.141 0.50617,0.38864 0.70396,0.55033 0.1978,0.16169 0.45987,0.37336 0.58239,0.47037 1.04509,0.82753 3.16186,2.78421 5.21575,4.8213 0.94385,0.93613 2.44859,2.71125 3.09013,3.64537 0.15546,0.22637 0.31421,0.43803 0.35278,0.47037 0.0386,0.0323 0.19912,0.24401 0.35677,0.47037 0.15765,0.22637 0.35059,0.49095 0.42875,0.58797 0.0782,0.097 0.3953,0.52034 0.70475,0.94074 0.62256,0.84577 3.11266,3.39528 4.21297,4.31349 0.38806,0.32383 1.28764,1.02413 1.99908,1.55622 0.71143,0.53209 1.38672,1.04304 1.50065,1.13544 0.11392,0.0924 0.24946,0.16799 0.3012,0.16799 0.0517,0 0.19667,0.0956 0.32207,0.21241 0.12539,0.11682 0.70422,0.53413 1.28629,0.92735 0.92186,0.62276 1.67779,1.16565 3.04894,2.18966 0.34142,0.25497 0.73693,0.57257 1.4186,1.1391 0.43838,0.36434 2.40614,2.33224 2.6484,2.64858 0.54186,0.70756 1.00544,1.29792 1.05976,1.34957 0.89308,0.8492 2.13131,3.32857 2.70145,5.40926 0.0797,0.29104 0.18565,0.66146 0.23532,0.82315 0.0497,0.16169 0.1554,0.53211 0.23495,0.82315 0.0795,0.29104 0.18549,0.635 0.23542,0.76435 0.0499,0.12935 0.15489,0.47331 0.23324,0.76435 0.0784,0.29104 0.19022,0.62105 0.24859,0.73336 0.0584,0.1123 0.10613,0.285 0.10613,0.38377 0,0.0988 0.0517,0.27147 0.11491,0.38377 0.0632,0.11231 0.24508,0.60107 0.40416,1.08614 0.15909,0.48507 0.44534,1.30528 0.63611,1.82268 0.19077,0.51741 0.63867,1.73449 0.99533,2.70463 0.35666,0.97014 0.79101,2.13431 0.96523,2.58704 0.17422,0.45273 0.36983,0.96565 0.43469,1.13983 0.0807,0.21666 0.21642,0.32807 0.42982,0.35277 0.25276,0.0293 0.3186,0.10487 0.34729,0.3989 0.0432,0.44263 -0.0874,0.54889 -0.91735,0.74648 -0.84155,0.20036 -2.30561,0.95787 -2.85764,1.47856 -0.51571,0.48644 -0.63238,0.50471 -0.80489,0.1261 -0.10642,-0.23357 -0.0869,-0.34482 0.10889,-0.61975 0.19865,-0.27897 0.21369,-0.36913 0.0899,-0.53847 -0.0863,-0.11804 -0.30368,-0.2034 -0.51794,-0.2034 -0.43318,0 -0.44822,0.0426 -0.13403,0.37987 0.29178,0.31318 0.29965,0.88183 0.0173,1.24893 -0.15879,0.20645 -0.34943,0.28509 -0.75267,0.31047 -0.36272,0.0228 -0.6721,0.13475 -0.94235,0.34088 -0.41532,0.31677 -1.06544,0.4072 -1.46948,0.20439 -0.1123,-0.0564 -0.54815,-0.27452 -0.96854,-0.48477 -1.29144,-0.64589 -2.68964,-1.76931 -5.05648,-4.06276 -1.36608,-1.32372 -1.5434,-1.45482 -2.51029,-1.856 -0.5722,-0.23742 -1.07932,-0.40761 -1.12692,-0.37819 -0.0949,0.0586 -0.0535,0.56816 0.10552,1.29857 0.40522,1.86136 0.73536,3.96805 0.68299,4.35835 -0.0292,0.21798 -0.0714,0.28029 -0.11423,0.16896 -0.0807,-0.20973 -0.42833,-1.62784 -0.56209,-2.29305 -0.052,-0.25871 -0.1591,-0.76142 -0.23795,-1.11713 -0.29915,-1.34965 -0.37166,-1.71962 -0.43184,-2.20349 -0.0583,-0.46855 -0.0912,-0.50623 -0.55003,-0.62928 -0.26842,-0.072 -0.6997,-0.19699 -0.9584,-0.27778 -2.50919,-0.78358 -3.67771,-1.16378 -3.84957,-1.25252 -0.1123,-0.058 -0.30762,-0.10545 -0.43403,-0.10545 -0.12641,0 -0.26254,-0.0529 -0.30251,-0.11759 -0.04,-0.0647 -0.17611,-0.1176 -0.30252,-0.1176 -0.12641,0 -0.32173,-0.0478 -0.43403,-0.10624 -0.23194,-0.12067 -2.10966,-0.7169 -2.25776,-0.7169 -0.0534,0 -0.0975,0.11906 -0.0982,0.26458 -0.001,0.27894 -0.20548,1.97499 -0.39303,3.26319 -0.18977,1.30347 -0.25789,5.15782 -0.10391,5.87963 0.23581,1.1054 0.4646,1.91786 0.72025,2.55764 0.0582,0.14552 0.15337,0.38365 0.2116,0.52917 0.11925,0.298 0.48624,1.13212 1.31411,2.98679 0.35734,0.80055 1.51983,4.33765 1.51983,4.62438 0,0.34359 0.28485,0.41574 0.98522,0.24953 0.33126,-0.0786 1.05208,-0.24814 1.60182,-0.37673 0.54975,-0.12859 1.19798,-0.2842 1.44051,-0.34581 0.94492,-0.24001 1.34465,-0.33723 1.91088,-0.46478 0.32338,-0.0728 0.7864,-0.18202 1.02894,-0.24261 0.24253,-0.0606 0.63941,-0.1589 0.88194,-0.21845 1.62347,-0.39865 1.55268,-0.33146 1.24865,-1.18524 -0.52946,-1.48681 -1.0803,-4.29608 -0.77127,-3.93347 0.0524,0.0614 0.2664,0.64088 0.47565,1.28764 0.20924,0.64676 0.43806,1.30822 0.50849,1.46991 0.0704,0.16169 0.16754,0.39981 0.21582,0.52916 0.12872,0.34493 1.09926,2.34184 1.17162,2.41065 0.034,0.0323 0.13115,0.19371 0.21588,0.35859 0.31994,0.62263 1.33422,1.86357 2.17929,2.6663 1.47845,1.40439 3.09849,2.3905 5.83897,3.55418 1.87809,0.79748 2.23376,0.94717 2.55764,1.07644 0.14552,0.0581 0.38365,0.15426 0.52917,0.21373 0.67452,0.27565 3.36819,1.61392 3.75617,1.86614 0.2388,0.15525 0.49327,0.24575 0.56547,0.20112 0.0722,-0.0446 0.33145,0.0576 0.57609,0.22711 0.48504,0.33614 2.26866,2.13866 3.01391,3.04587 0.70056,0.85278 2.74879,3.73884 2.82591,3.98183 0.0371,0.11682 0.11677,0.2124 0.17708,0.2124 0.0603,0 0.10967,0.0543 0.10967,0.12069 0,0.27056 3.41615,5.17642 4.43948,6.37544 1.45907,1.70959 3.50687,3.42931 4.96296,4.16785 l 0.53414,0.27091 0.11298,-0.67555 c 0.13065,-0.78115 0.13363,-2.92801 0.006,-3.99754 -0.10262,-0.85689 0.0599,-0.98619 0.36952,-0.29398 0.15821,0.35374 0.19697,0.81318 0.19589,2.32245 -7.3e-4,1.03482 -0.0592,2.0842 -0.13001,2.33197 -0.0899,0.31466 -0.0918,0.53133 -0.006,0.71865 0.0938,0.2058 0.0742,0.36085 -0.084,0.66665 -0.11342,0.21916 -0.25158,0.79535 -0.30704,1.28042 -0.3843,3.3617 -0.70719,7.18223 -0.90935,10.75972 -0.0976,1.72752 -0.17357,2.17546 -0.36884,2.17546 -0.16798,0 -0.25271,-0.4614 -0.2115,-1.15164 l 0.0398,-0.66588 -1.11713,-0.54841 c -0.61442,-0.30162 -1.30234,-0.62793 -1.52871,-0.72512 -0.22636,-0.0972 -0.64969,-0.28257 -0.94074,-0.41194 -0.29104,-0.12937 -1.40229,-0.59021 -2.46944,-1.0241 -1.06715,-0.43389 -2.21966,-0.9157 -2.56112,-1.07071 -0.34147,-0.155 -0.64417,-0.28183 -0.67268,-0.28183 -0.0738,0 -1.26676,-0.53916 -2.2353,-1.01024 -0.4533,-0.22047 -0.88986,-0.40087 -0.97014,-0.40087 -0.0803,0 -0.14595,-0.0529 -0.14595,-0.11759 0,-0.0647 -0.0801,-0.11759 -0.17798,-0.11759 -0.16323,0 -0.6223,-0.21232 -0.76276,-0.35278 -0.0323,-0.0323 -0.27046,-0.17086 -0.52916,-0.30782 -0.89604,-0.47439 -1.88215,-1.10845 -2.02848,-1.30429 -0.0808,-0.1082 -0.14713,-0.49089 -0.14732,-0.85041 -1.8e-4,-0.35953 -0.0534,-1.12993 -0.11824,-1.71202 -0.34432,-3.09052 -0.91275,-4.01704 -2.76244,-4.50277 -0.25871,-0.0679 -0.68818,-0.18062 -0.95439,-0.25042 -0.8875,-0.23269 -1.26198,-0.16965 -1.67255,0.28154 -0.20442,0.22464 -0.37168,0.44 -0.37168,0.47858 0,0.12575 -0.73712,1.15821 -1.21372,1.70002 -0.25601,0.29104 -0.59969,0.82021 -0.76373,1.17592 -0.16404,0.35572 -0.45227,0.89821 -0.64052,1.20554 -0.5038,0.82248 -0.79221,1.70607 -0.79221,2.42707 0,1.13529 0.51716,1.51956 2.29305,1.7038 1.26368,0.13111 2.09438,0.53615 4.8801,2.37948 1.97028,1.30375 3.99252,2.6844 4.63456,3.1642 1.05222,0.7863 11.75947,7.93473 11.88502,7.93473 0.0406,0 0.38557,0.21167 0.76653,0.47037 0.38096,0.2587 0.72707,0.47037 0.76914,0.47037 0.0421,0 0.21696,0.0996 0.38863,0.22122 0.17168,0.12167 0.72913,0.43917 1.23879,0.70556 1.08124,0.56513 1.69781,0.62239 2.68491,0.24936 0.63108,-0.23849 1.48206,-0.93808 1.94416,-1.59829 1.00468,-1.43542 1.89619,-4.00223 2.61025,-7.51535 0.21999,-1.08232 0.33141,-1.57896 0.54085,-2.41065 0.10586,-0.42039 0.23714,-0.94956 0.29172,-1.17592 0.0945,-0.39175 0.19013,-0.73936 0.47734,-1.7345 0.07,-0.24253 0.15547,-0.58714 0.18995,-0.76579 0.0345,-0.17865 0.10949,-0.35375 0.16671,-0.38911 0.0572,-0.0354 0.10403,-0.24326 0.10403,-0.46199 0,-0.21874 0.0468,-0.42663 0.10403,-0.46199 0.0572,-0.0354 0.13334,-0.21047 0.16916,-0.38912 0.0877,-0.43759 0.23712,-1.05043 0.58083,-2.38269 0.15852,-0.61442 0.35296,-1.46109 0.43209,-1.88148 0.0791,-0.4204 0.19255,-1.01831 0.25203,-1.32871 0.0595,-0.31039 0.10816,-0.72049 0.10816,-0.91134 0,-0.26859 0.0531,-0.34699 0.23518,-0.34699 0.27576,0 0.29911,0.31189 0.11447,1.52871 -0.29736,1.95968 -0.30704,1.76388 0.0872,1.76388 0.36295,0 0.44651,-0.0211 1.90076,-0.481 l 0.86769,-0.27439 -0.10125,-0.88642 c -0.14965,-1.31007 -0.12181,-5.42333 0.0454,-6.70726 0.14107,-1.08318 0.20989,-1.48345 0.48162,-2.80134 0.19701,-0.95551 0.92241,-3.01936 1.38205,-3.93207 0.22618,-0.44914 0.39461,-0.83158 0.37429,-0.84986 -0.0203,-0.0183 -0.35444,0.07 -0.7425,0.1961 -1.27383,0.41407 -2.37775,0.56704 -4.03789,0.55955 -0.8836,-0.004 -1.95051,-0.0724 -2.3709,-0.15207 l -0.76435,-0.14482 -0.10955,-0.68644 c -0.0973,-0.60981 -0.085,-0.70442 0.11067,-0.84747 0.12112,-0.0886 0.37832,-0.16103 0.57157,-0.16103 0.33687,0 0.85722,-0.13482 1.48518,-0.3848 0.16169,-0.0644 0.39981,-0.15535 0.52916,-0.20219 0.5367,-0.19435 1.8423,-0.8976 2.46945,-1.33016 0.96051,-0.66248 2.62713,-2.25705 3.55694,-3.40316 0.80794,-0.99589 1.44074,-1.90508 1.44074,-2.07001 0,-0.0638 0.0439,-0.13364 0.0976,-0.1552 0.0537,-0.0216 0.37221,-0.58694 0.70781,-1.2564 l 0.61018,-1.2172 -0.26184,-0.42909 c -0.70743,-1.15932 -2.09921,-2.27118 -3.53502,-2.82403 -1.94771,-0.74996 -4.27788,-0.29584 -5.80623,1.13157 -0.59587,0.55652 -1.33752,1.54591 -1.33752,1.78432 0,0.0692 -0.0529,0.1258 -0.11759,0.1258 -0.0647,0 -0.11759,0.0953 -0.11759,0.21167 0,0.11641 -0.0437,0.26193 -0.0971,0.32338 -0.0534,0.0614 -0.16544,0.34983 -0.2489,0.64087 -0.0835,0.29105 -0.1985,0.68259 -0.25563,0.8701 -0.0571,0.18751 -0.11014,0.61084 -0.11779,0.94074 -0.0181,0.78125 -0.12888,1.27479 -0.29876,1.33129 -0.23635,0.0786 -0.29972,-0.63765 -0.15591,-1.76223 0.30207,-2.3621 0.89582,-3.79762 2.05057,-4.95768 0.86986,-0.87387 1.02681,-0.99329 1.7697,-1.3466 1.86925,-0.88899 3.04298,-0.93891 4.99739,-0.21257 1.20269,0.44698 2.9182,1.82104 3.49713,2.80109 0.10942,0.18523 0.23821,0.33679 0.2862,0.33679 0.0836,0 0.56759,-1.48071 0.56759,-1.73656 0,-0.22569 0.67565,-2.19203 0.98537,-2.86774 0.33414,-0.72897 0.98552,-1.6369 1.46871,-2.04714 0.17014,-0.14446 0.4681,-0.40025 0.66212,-0.56843 0.19403,-0.16817 0.41893,-0.30583 0.49977,-0.30591 0.0808,-8e-5 0.14699,-0.0406 0.14699,-0.09 0,-0.14095 1.34575,-0.69671 2.29306,-0.94696 1.24416,-0.32868 1.87299,-0.42923 4.58611,-0.73335 0.64676,-0.0725 1.39831,-0.19042 1.67011,-0.26205 1.11668,-0.2943 6.29704,0.44982 6.90827,0.99232 0.0614,0.0545 0.18146,0.0992 0.26671,0.0992 0.17077,0 1.45656,0.75778 1.90359,1.12187 1.22152,0.99491 2.45511,2.81744 3.20044,4.72837 0.0568,0.14552 0.15339,0.38364 0.21475,0.52916 0.0613,0.14552 0.22705,0.635 0.36821,1.08773 0.14116,0.45274 0.29864,0.92899 0.34995,1.05834 0.0513,0.12935 0.12612,0.39393 0.16623,0.58796 0.0401,0.19403 0.12088,0.53799 0.1795,0.76435 0.0586,0.22637 0.16728,0.67616 0.24148,0.99954 0.73439,3.20084 0.74479,3.28081 0.7493,5.76204 0.004,2.13813 -0.12957,3.97267 -0.41432,5.69544 -0.0581,0.35142 -0.10561,2.06511 -0.10561,3.8082 0,2.91317 -0.0777,4.03073 -0.35698,5.13663 -0.0572,0.22637 -0.19159,0.75554 -0.2987,1.17593 -0.10712,0.42039 -0.22093,0.93682 -0.2529,1.14762 -0.032,0.21079 -0.10521,0.41236 -0.16274,0.44791 -0.0575,0.0356 -0.1046,0.23615 -0.1046,0.44576 0,0.20962 -0.0478,0.43139 -0.1062,0.49283 -0.12703,0.13364 -0.2298,0.89787 -0.32052,2.38352 -0.0502,0.82162 -0.11112,1.11285 -0.24354,1.16367 -0.27035,0.10374 -0.3843,-0.18891 -0.38628,-0.99208 -0.002,-0.73358 -0.31615,-1.66003 -0.74925,-2.20821 -0.22898,-0.28983 -0.22941,-0.26174 -0.0169,1.11713 0.0947,0.61442 0.17312,1.92245 0.17428,2.90673 0.002,1.58352 0.0235,1.78137 0.18824,1.71817 0.19799,-0.076 0.5597,0.27573 2.93007,2.84906 0.71144,0.77236 1.3729,1.48434 1.46991,1.58218 0.097,0.0978 0.46743,0.49531 0.82315,0.88324 0.35572,0.38794 1.30822,1.41821 2.11667,2.28948 0.80844,0.87128 1.73449,1.873 2.05787,2.22606 0.32338,0.35305 0.73605,0.80108 0.91704,0.99561 0.25427,0.27328 0.3211,0.44756 0.29398,0.76658 l -0.0351,0.41289 -1.70509,0.73082 c -0.9378,0.40194 -1.91676,0.81917 -2.17546,0.92716 -0.25871,0.10799 -0.65558,0.27699 -0.88195,0.37554 -0.56379,0.24547 -1.18769,0.50933 -1.46991,0.62166 -0.22031,0.0877 -0.5248,0.21652 -1.5287,0.64676 -0.22637,0.097 -0.58355,0.24949 -0.79375,0.33883 -0.38774,0.16481 -1.12985,0.48344 -1.5581,0.669 -1.09432,0.47416 -4.43527,1.87319 -4.47326,1.87319 -0.0651,0 -1.57148,0.66836 -1.92117,0.85239 -0.18304,0.0963 -0.39242,0.43145 -0.60623,0.9703 -0.21527,0.5425 -0.38458,0.81274 -0.49661,0.79262 -0.13639,-0.0245 -0.18516,0.23116 -0.24674,1.29352 -0.0422,0.72822 -0.13163,1.90613 -0.1987,2.61756 -0.0671,0.71144 -0.17444,1.84915 -0.23859,2.52824 -0.0642,0.6791 -0.14602,1.56832 -0.18192,1.97604 -0.0812,0.92193 -0.32598,0.93112 -0.36747,0.0138 -0.0486,-1.07428 -0.16328,-1.40253 -1.31151,-3.75372 -0.94466,-1.93435 -1.29356,-3.11976 -1.00356,-3.40967 0.15724,-0.15719 0.18937,-0.15725 0.28849,-5.1e-4 0.0614,0.097 0.11235,0.28585 0.11334,0.41963 0.004,0.47744 0.37993,1.50256 1.06753,2.90741 0.38399,0.78455 0.69816,1.5052 0.69816,1.60146 0,0.13977 0.0296,0.14551 0.14699,0.0285 0.29216,-0.29126 0.55077,-6.44938 0.33126,-7.88822 -0.26035,-1.7065 -0.72453,-3.48863 -1.18145,-4.53589 -0.62142,-1.42428 -2.00688,-5.19139 -1.9789,-5.38068 0.0199,-0.13494 0.1033,-0.26743 0.18524,-0.29441 0.16116,-0.0531 0.2016,0.0306 1.32177,2.73527 0.40179,0.97014 0.77542,1.86973 0.83029,1.99908 0.13612,0.32094 0.70007,2.02193 0.83821,2.52824 0.21918,0.80336 0.35435,1.49375 0.58312,2.97833 0.11352,0.73671 0.13556,0.78006 0.26738,0.52597 0.079,-0.15229 0.17506,-0.38129 0.21345,-0.50889 0.0384,-0.12759 0.31563,-0.9199 0.61609,-1.76069 1.75003,-4.89701 2.00079,-8.15502 1.01368,-13.17037 -0.36011,-1.8297 -0.60027,-3.66347 -0.6309,-4.81745 -0.0232,-0.87569 0.003,-1.06086 0.15543,-1.09205 0.15395,-0.0315 0.20583,0.22284 0.32298,1.58366 0.0768,0.89166 0.22151,2.071 0.32167,2.62075 0.10016,0.54974 0.23263,1.27735 0.29438,1.6169 0.0618,0.33954 0.17087,0.92163 0.24249,1.29351 0.24209,1.25703 0.33802,1.96587 0.4142,3.06047 0.0827,1.18794 0.0762,1.18586 0.63545,0.20273 0.51717,-0.90906 0.89242,-1.65144 1.09964,-2.17546 0.11508,-0.29105 0.2823,-0.68792 0.37159,-0.88195 0.26813,-0.58266 0.85443,-2.74728 1.06699,-3.93935 0.14146,-0.79334 0.19883,-1.76472 0.19791,-3.35139 -0.001,-2.48338 -0.12701,-3.4117 -0.81927,-6.05602 -0.81905,-3.12862 -0.89137,-3.58291 -0.90769,-5.70149 -0.0118,-1.53791 0.0107,-1.76682 0.17701,-1.79898 0.2649,-0.0512 0.33649,0.32233 0.19099,0.99664 -0.16787,0.77805 0.0516,2.70133 0.49385,4.32837 0.0527,0.19403 0.21233,0.80257 0.35465,1.35231 0.29034,1.12152 0.37486,1.32851 0.53808,1.31775 0.30281,-0.02 1.21594,1.30499 1.23946,1.79846 0.0226,0.4741 0.34441,-0.77358 0.53856,-2.08801 0.0359,-0.24294 0.11257,-0.47096 0.17041,-0.50671 0.0579,-0.0358 0.10517,-0.27042 0.10517,-0.52149 0,-0.25107 0.0463,-0.48509 0.10285,-0.52005 0.0566,-0.035 0.13642,-0.34236 0.17744,-0.6831 0.041,-0.34074 0.12914,-0.98995 0.19581,-1.44268 0.0667,-0.45273 0.16826,-2.27836 0.22573,-4.05694 0.0575,-1.77859 0.15827,-3.68359 0.22399,-4.23334 0.48837,-4.08537 0.55139,-5.49096 0.32162,-7.17315 -0.1016,-0.74377 -0.24151,-1.59044 -0.31093,-1.88148 -0.20573,-0.86251 -0.35734,-1.5625 -0.42686,-1.97076 -0.0359,-0.2108 -0.11233,-0.41236 -0.16986,-0.44792 -0.0575,-0.0355 -0.1046,-0.21715 -0.1046,-0.40354 0,-0.18639 -0.0529,-0.3716 -0.11759,-0.41157 -0.0647,-0.04 -0.1176,-0.22518 -0.1176,-0.41158 0,-0.18639 -0.0529,-0.3716 -0.11759,-0.41157 -0.0647,-0.04 -0.11759,-0.17611 -0.11759,-0.30252 0,-0.12641 -0.0612,-0.34819 -0.13595,-0.49283 -0.27296,-0.52802 -0.33442,-0.67377 -0.33442,-0.7931 0,-0.24781 -0.93268,-2.11106 -1.4491,-2.89495 -0.62341,-0.94627 -1.75866,-2.06353 -2.64506,-2.60315 -0.34384,-0.20932 -0.66463,-0.38058 -0.71286,-0.38058 -0.0482,0 -0.30675,-0.10584 -0.57447,-0.23519 -0.26773,-0.12935 -0.59205,-0.23518 -0.72071,-0.23518 -0.12866,0 -0.26317,-0.0473 -0.29892,-0.10517 -0.0358,-0.0579 -0.26377,-0.13568 -0.50671,-0.17297 -0.24294,-0.0373 -0.78567,-0.12251 -1.20606,-0.18938 -0.42039,-0.0669 -1.50606,-0.15407 -2.41259,-0.19379 -1.42181,-0.0623 -1.72874,-0.0428 -2.23426,0.14224 -0.3424,0.1253 -1.12377,0.24952 -1.87954,0.29879 -1.51558,0.0988 -2.28486,0.22614 -3.82176,0.63254 -0.5473,0.14472 -1.86951,0.75087 -2.374,1.08832 -0.6302,0.42154 -1.74174,1.56602 -1.74174,1.79335 0,0.0639 -0.0404,0.11625 -0.0899,0.11625 -0.36258,0 -1.88853,5.04106 -1.72417,5.6959 0.0901,0.35914 -0.044,0.79969 -0.22443,0.73718 -0.0763,-0.0264 -0.36386,0.40053 -0.64902,0.96367 -0.2816,0.55612 -0.57265,1.12977 -0.64676,1.27479 -0.0741,0.14501 -0.17444,0.26408 -0.22295,0.26458 -0.0485,5.1e-4 -0.0882,0.0703 -0.0882,0.15513 0,0.0848 -0.094,0.2568 -0.20898,0.38218 -0.11494,0.12538 -0.33729,0.41317 -0.49411,0.63954 -0.15681,0.22636 -0.31443,0.43803 -0.35025,0.47037 -0.0358,0.0323 -0.20646,0.244 -0.37921,0.47037 -1.72283,2.25764 -4.33342,4.17559 -7.08106,5.2023 l -0.45852,0.17134 0.87009,0.0777 c 1.81068,0.16177 4.54786,-0.31138 5.84196,-1.00985 0.21216,-0.11451 0.46352,-0.2082 0.55856,-0.2082 0.095,0 0.17282,-0.0468 0.17282,-0.10388 0,-0.0571 0.0926,-0.13324 0.20578,-0.16914 0.20281,-0.0643 0.85557,-0.43492 0.97014,-0.5508 0.0323,-0.0327 0.27046,-0.21436 0.52917,-0.40368 0.2587,-0.18933 1.18479,-1.03569 2.05796,-1.88082 2.45984,-2.38082 3.21877,-2.98383 4.49654,-3.57278 0.63025,-0.29049 0.91975,-0.3203 1.12429,-0.11575 0.3514,0.3514 0.0644,0.75469 -0.72889,1.0244 -0.47901,0.16285 -1.70999,0.84886 -1.97493,1.10061 -0.0845,0.0803 -0.33888,0.29826 -0.56525,0.48434 -0.22637,0.18608 -1.21816,1.12277 -2.20398,2.08155 -0.98583,0.95877 -2.12354,1.9643 -2.52825,2.23451 -0.91551,0.61126 -1.10951,0.81182 -1.63874,1.69413 -1.28175,2.13687 -1.95782,4.14398 -2.436,7.23194 -0.28134,1.81688 -0.23623,5.69998 0.0943,8.11389 0.0575,0.42039 0.14386,1.06862 0.19179,1.44051 0.0479,0.37188 0.12942,0.67616 0.18108,0.67616 0.0517,0 0.12711,-0.25136 0.16766,-0.55857 0.48092,-3.64388 1.71061,-6.3904 4.11523,-9.19138 1.67353,-1.9494 3.31167,-3.56272 3.56817,-3.51412 0.41342,0.0783 0.28882,0.60696 -0.28657,1.21575 -3.06172,3.23941 -4.41797,5.00457 -5.37214,6.99183 -0.40732,0.84832 -0.41908,0.90885 -0.30853,1.5875 0.44874,2.75472 0.56132,3.70808 0.65044,5.50827 0.047,0.94853 0.0274,1.43407 -0.0614,1.52283 -0.0953,0.0953 -0.13094,-0.0417 -0.13267,-0.51059 -10e-4,-0.35248 -0.0565,-0.98483 -0.12275,-1.40523 -0.0662,-0.42039 -0.16674,-1.08185 -0.22341,-1.46991 -0.12588,-0.86208 -0.35663,-2.30421 -0.47038,-2.93981 l -0.0842,-0.47037 -0.18341,0.41157 c -0.55281,1.24045 -0.88632,4.47034 -0.63444,6.14422 0.0957,0.63615 0.0875,0.67615 -0.13907,0.67615 -0.28461,0 -0.27142,0.0408 -0.66525,-2.05787 -0.16991,-0.90546 -0.35916,-1.86816 -0.42054,-2.13934 -0.0614,-0.27117 -0.11161,-0.68128 -0.11161,-0.91134 0,-0.48821 -0.12595,-0.51814 -0.94074,-0.22357 -0.5809,0.21001 -1.317,0.37667 -2.08607,0.47232 -0.5418,0.0674 -0.49798,-0.008 -0.86305,1.47902 -0.10177,0.41442 -0.19382,0.77861 -0.48301,1.91088 -0.0661,0.2587 -0.16755,0.59192 -0.22549,0.74048 -0.0579,0.14857 -0.10534,0.3968 -0.10534,0.55163 0,0.15483 -0.0471,0.3106 -0.1046,0.34615 -0.0575,0.0356 -0.13198,0.23712 -0.16545,0.44792 -0.0567,0.35685 -0.14535,0.69661 -0.45308,1.73558 -0.0671,0.22636 -0.14928,0.58404 -0.18275,0.79484 -0.0335,0.21079 -0.10792,0.41235 -0.16545,0.44791 -0.0575,0.0355 -0.1046,0.17683 -0.1046,0.31394 0,0.13711 -0.0493,0.4118 -0.10962,0.61042 -0.1563,0.51489 -0.33129,1.20961 -0.47602,1.88983 -0.74288,3.49164 -1.70821,6.08884 -2.79469,7.51905 -1.01662,1.33827 -2.36168,2.05192 -3.5926,1.90614 -0.56785,-0.0673 -2.19982,-0.89007 -3.4552,-1.74205 -0.27036,-0.18348 -0.52461,-0.3336 -0.56502,-0.3336 -0.0404,0 -0.38515,-0.21167 -0.76611,-0.47037 -0.38096,-0.25871 -0.74847,-0.47037 -0.81669,-0.47037 -0.0682,0 -0.12405,-0.0529 -0.12405,-0.1176 0,-0.0647 -0.0531,-0.11759 -0.11801,-0.11759 -0.1142,0 -5.29022,-3.36083 -5.40884,-3.51201 -0.0323,-0.0412 -0.20432,-0.14994 -0.38218,-0.24161 -0.17785,-0.0917 -0.32338,-0.21065 -0.32338,-0.2644 0,-0.0537 -0.0627,-0.0977 -0.13941,-0.0977 -0.0767,0 -0.24865,-0.098 -0.38217,-0.2177 -0.13352,-0.11973 -1.32756,-0.94958 -2.65342,-1.8441 -1.32585,-0.89452 -2.4371,-1.6601 -2.46944,-1.70129 -0.0323,-0.0412 -0.6938,-0.50929 -1.46991,-1.04024 -0.77611,-0.53095 -1.92699,-1.32308 -2.5575,-1.76028 -1.81897,-1.2613 -2.47367,-1.5473 -4.08648,-1.78515 -1.46452,-0.21599 -1.88666,-0.37281 -2.46235,-0.91477 l -0.53419,-0.50289 0.026,-1.36373 c 0.0294,-1.54231 0.13403,-1.93908 0.76028,-2.88322 0.24319,-0.36663 0.50139,-0.92226 0.57379,-1.23472 0.0724,-0.31246 0.16683,-0.72302 0.20984,-0.91235 0.051,-0.22454 0.26,-0.47225 0.60099,-0.71235 0.39398,-0.27741 0.63975,-0.59662 0.99758,-1.29566 0.40136,-0.78407 0.55498,-0.96947 0.99307,-1.19853 0.91054,-0.47609 2.51866,-0.31949 3.95982,0.3856 1.46974,0.71908 2.14424,2.26253 2.15972,4.94205 0.003,0.58923 0.0401,1.31875 0.0815,1.62117 l 0.0754,0.54984 1.24755,0.7064 c 2.18071,1.23477 4.56058,2.3563 7.42117,3.49726 2.45538,0.97934 4.66479,1.93642 6.2912,2.72525 l 0.94074,0.45627 0.0775,-1.31561 c 0.17339,-2.94472 0.52117,-6.7523 0.87472,-9.57648 0.0489,-0.391 0.0334,-0.61736 -0.0424,-0.61736 -0.19983,0 -2.27462,-1.39767 -3.02645,-2.03875 -1.88578,-1.60799 -3.35135,-3.43758 -6.32647,-7.89783 -1.80704,-2.70908 -3.25102,-4.77637 -3.49083,-4.99768 -0.035,-0.0323 -0.30046,-0.34984 -0.58984,-0.70556 -0.77665,-0.95472 -2.27061,-2.36016 -2.44094,-2.29631 -0.0814,0.0305 -0.47832,-0.15811 -0.88194,-0.41921 -0.63361,-0.40987 -2.72592,-1.47814 -3.43849,-1.75558 -0.12936,-0.0504 -0.48597,-0.20268 -0.79247,-0.33847 -0.30651,-0.1358 -0.6115,-0.24691 -0.67776,-0.24691 -0.0662,0 -0.21235,-0.0467 -0.32466,-0.10387 -0.25,-0.12718 -0.36626,-0.17429 -2.49724,-1.01188 -2.41498,-0.94921 -3.44641,-1.59439 -5.0405,-3.1529 -1.29195,-1.26311 -3.19099,-3.68764 -3.19099,-4.07397 0,-0.1876 -0.63131,-0.1959 -1.17592,-0.0154 -0.16169,0.0536 -0.58502,0.1591 -0.94074,0.2345 -0.60575,0.12841 -0.85223,0.188 -1.96968,0.47619 -0.24253,0.0625 -0.9966,0.2452 -1.67569,0.4059 -0.6791,0.1607 -1.81488,0.42993 -2.52396,0.59828 -0.70908,0.16835 -1.35531,0.36093 -1.43606,0.42795 -0.0807,0.067 -0.40018,0.13782 -0.70984,0.15735 -0.47293,0.0298 -2.19257,0.40568 -4.06139,0.88768 -0.81143,0.20929 -1.3185,0.33308 -1.91088,0.46652 -1.0732,0.24174 -2.27146,0.5438 -2.83057,0.71352 -0.19862,0.0603 -0.45945,0.10962 -0.57962,0.10962 -0.12017,0 -0.38099,0.0493 -0.57961,0.10963 -0.54683,0.166 -1.63128,0.44049 -3.24215,0.82065 -0.54974,0.12974 -1.97849,0.47179 -3.175,0.76013 -1.1965,0.28833 -2.67817,0.63905 -3.29259,0.77938 -0.61442,0.14033 -1.27055,0.30349 -1.45806,0.36259 -0.18751,0.0591 -0.46532,0.10744 -0.61736,0.10744 -0.42905,0 -0.33607,0.21242 0.45914,1.04892 1.44582,1.5209 4.90056,5.1651 7.14359,7.53534 1.2547,1.32586 2.83944,2.99355 3.52165,3.70598 0.68222,0.71244 1.71497,1.79723 2.29502,2.41065 0.58004,0.61342 1.5596,1.64448 2.1768,2.29124 1.04307,1.09302 3.92818,4.13359 6.41117,6.75663 0.58208,0.61491 1.58773,1.67456 2.23478,2.35477 0.64705,0.68021 1.434,1.52779 1.74878,1.88351 0.50212,0.56741 1.62161,1.75288 5.43843,5.75889 0.52543,0.55147 1.16043,1.21958 1.41111,1.48469 0.25068,0.2651 1.28244,1.34989 2.2928,2.41064 1.01036,1.06076 2.00844,2.11386 2.21796,2.34022 0.20952,0.22637 0.83807,0.88901 1.39678,1.47253 0.84323,0.88069 3.4676,3.64244 5.19037,5.46209 1.62514,1.71653 4.02808,4.2458 4.46852,4.70346 0.29104,0.30242 1.27,1.3349 2.17547,2.29439 0.90546,0.9595 2.23249,2.35795 2.94895,3.10766 2.06246,2.15818 2.98907,3.14727 3.38544,3.6137 2.80552,3.30145 4.18565,4.62071 4.8369,4.62358 0.31862,10e-4 1.45573,-0.51279 2.88102,-1.30278 0.43998,-0.24387 1.82397,-0.86518 4.35093,-1.95327 0.22636,-0.0975 0.67615,-0.2975 0.99953,-0.44452 0.32338,-0.14701 0.79963,-0.35786 1.05834,-0.46856 0.2587,-0.11069 0.68203,-0.29608 0.94074,-0.41198 0.2587,-0.1159 0.65558,-0.29001 0.88194,-0.38693 0.41122,-0.17606 1.27447,-0.55609 1.94028,-0.85416 0.19403,-0.0869 1.09361,-0.48307 1.99907,-0.88046 0.90547,-0.39739 1.88442,-0.82903 2.17547,-0.9592 0.29104,-0.13016 0.70114,-0.31045 0.91134,-0.40064 0.2102,-0.0902 0.55415,-0.23777 0.76435,-0.32796 0.50519,-0.21676 2.10219,-0.92415 3.05741,-1.35427 0.30721,-0.13834 0.55856,-0.3015 0.55856,-0.36259 0,-0.0611 -0.11398,-0.31113 -0.25329,-0.55563 -0.52461,-0.92075 -0.83949,-1.61176 -0.97955,-2.14964 -0.0421,-0.16169 -0.12695,-0.47919 -0.18855,-0.70556 -0.21003,-0.77179 -0.46009,-2.62363 -0.45911,-3.39994 0.001,-0.81113 0.26031,-2.86836 0.47557,-3.77321 0.31434,-1.32133 0.36932,-1.29763 -0.78652,-0.33902 -0.57575,0.47751 -1.57498,1.26392 -2.22051,1.74758 -0.64553,0.48366 -1.25927,0.97314 -1.36387,1.08773 -0.1046,0.11459 -0.25012,0.20834 -0.32338,0.20834 -0.16071,0 -0.18048,-0.84555 -0.0235,-1.00541 0.17307,-0.17625 1.19349,-2.12988 1.80886,-3.4631 0.80177,-1.7371 2.07959,-5.9608 2.07959,-6.87389 0,-0.16459 0.0529,-0.29926 0.1176,-0.29926 0.14804,0 0.15346,1.0679 0.008,1.63265 -0.0601,0.23387 -0.17298,0.74272 -0.25079,1.13077 -0.34289,1.71001 -1.64374,5.59236 -2.0075,5.99135 -0.12613,0.13835 -0.13382,0.41745 -0.0115,0.41745 0.0497,0 0.35397,-0.21458 0.67616,-0.47685 0.3222,-0.26227 0.666,-0.54009 0.76401,-0.61737 2.05102,-1.61716 4.65213,-4.37462 5.29055,-5.60856 0.0837,-0.16169 0.18387,-0.32044 0.2227,-0.35278 0.0652,-0.0543 0.53052,-0.88421 0.72527,-1.29352 0.97136,-2.0415 1.87503,-5.12799 2.63381,-8.99583 0.51696,-2.6352 0.61583,-3.14378 0.75435,-3.88055 0.13934,-0.74116 0.33784,-1.77504 0.42898,-2.23426 0.19251,-0.97007 0.3067,-1.56442 0.36736,-1.91197 0.074,-0.42407 0.23593,-0.58588 0.41104,-0.41077 0.11832,0.11832 -0.0506,1.461 -0.36622,2.9107 -0.0563,0.2587 -0.15644,0.76141 -0.22249,1.11713 -0.47639,2.5656 -0.57139,3.06395 -0.96392,5.05648 -0.57804,2.93418 -1.4586,6.22145 -2.01595,7.52593 -0.0691,0.16169 -0.16497,0.39981 -0.21307,0.52916 -0.61774,1.66109 -2.15685,4.04661 -3.5058,5.43375 -1.10301,1.13426 -1.71919,3.18864 -1.86197,6.20792 -0.0938,1.98423 0.22167,3.73454 0.94209,5.22661 l 0.25248,0.5229 0.0785,-0.81688 c 0.21055,-2.1913 0.45028,-3.06529 2.2238,-8.10763 0.43716,-1.2429 0.79567,-2.56891 0.93413,-3.45506 0.11033,-0.70614 0.27317,-0.96109 0.48107,-0.75319 0.13787,0.13788 0.0983,0.61668 -0.13414,1.62121 -0.17065,0.73761 -0.17324,1.11198 -0.0138,1.99908 0.29286,1.62937 0.42928,2.25204 0.72138,3.29259 0.0726,0.2587 0.1766,0.62912 0.23107,0.82315 0.58268,2.0756 1.86309,5.02623 3.13827,7.23194 0.63957,1.10628 0.64967,1.10628 0.58706,0 -0.19426,-3.43241 -0.3019,-9.68181 -0.19863,-11.53217 0.10752,-1.92664 0.1664,-2.39935 0.47135,-3.78426 0.91919,-4.17451 1.21136,-6.43478 1.159,-8.96644 -0.0311,-1.50572 -0.0106,-1.76389 0.13992,-1.76389 0.26454,0 0.38137,1.41186 0.30652,3.70417 -0.0788,2.41298 -0.32646,4.09234 -1.03184,6.99676 -0.13742,0.56581 -0.29153,1.45544 -0.45836,2.64583 -0.18493,1.31962 -0.27651,6.11278 -0.11978,6.26951 0.0701,0.0701 0.12753,0.19923 0.12753,0.28685 0,0.2748 0.88686,1.47323 1.54482,2.08755 0.34686,0.32385 1.09226,0.97354 1.65645,1.44377 0.56419,0.47022 1.22363,1.09161 1.46541,1.38086 0.24178,0.28925 0.48194,0.52591 0.53369,0.52591 0.0983,0 0.0202,-0.74643 -0.14151,-1.35232 -0.4474,-1.67623 -0.43239,-2.27501 0.1297,-5.17407 0.4824,-2.48809 0.40646,-5.26781 -0.25059,-9.17222 -0.0762,-0.45274 -0.18231,-1.08774 -0.23582,-1.41112 -0.20724,-1.25231 -0.3743,-2.26038 -0.47747,-2.88101 -0.43294,-2.60438 -0.56683,-3.96412 -0.64265,-6.52639 -0.0672,-2.27118 -0.0169,-2.62934 0.34931,-2.48879 0.1673,0.0642 0.18267,0.22966 0.11904,1.28125 -0.11866,1.96102 0.15353,4.96301 0.75989,8.38069 0.7265,4.09489 0.78614,4.48159 1.01556,6.58518 0.21234,1.94704 0.20935,3.59865 -0.01,5.52685 -0.29156,2.56289 -0.38571,4.41161 -0.27847,5.46806 0.2462,2.42553 0.35114,4.66507 0.23313,4.97547 -0.19551,0.51421 -0.36123,0.36574 -0.36123,-0.32362 0,-0.3519 -0.0529,-0.67253 -0.11759,-0.7125 -0.0647,-0.04 -0.11759,-0.28194 -0.11759,-0.5377 0,-0.25577 -0.0661,-0.58161 -0.147,-0.72409 -0.30222,-0.53266 -1.24021,-1.44037 -2.32245,-2.24749 -1.21966,-0.9096 -2.13378,-1.77479 -2.63641,-2.49527 l -0.32303,-0.46304 0.0668,0.82315 c 0.0367,0.45273 0.10133,1.83918 0.14355,3.08101 0.0671,1.97388 0.052,2.31011 -0.1204,2.67334 -0.17327,0.36514 -0.22418,0.3986 -0.42017,0.2762 -0.12266,-0.0766 -0.24961,-0.22127 -0.28211,-0.32149 -0.0639,-0.19688 -0.44399,-0.85064 -0.55039,-0.94656 -0.0359,-0.0323 -0.3211,-0.56151 -0.63385,-1.17593 -0.31274,-0.61442 -0.58734,-1.13885 -0.61022,-1.16541 -0.0229,-0.0266 -0.13451,0.0297 -0.24809,0.12507 -0.20094,0.16866 -1.29609,0.67613 -3.44031,1.59415 -0.22636,0.0969 -0.63647,0.27654 -0.91134,0.39916 -0.27487,0.12263 -0.73789,0.32879 -1.02894,0.45814 -0.29104,0.12935 -0.75406,0.33551 -1.02893,0.45814 -0.27487,0.12262 -0.68498,0.30225 -0.91134,0.39916 -0.40615,0.17389 -0.96448,0.4197 -1.99908,0.88011 -0.29104,0.12951 -1.13771,0.49936 -1.88148,0.82189 -0.74377,0.32252 -1.6169,0.70498 -1.94028,0.84992 -0.32338,0.14493 -0.74671,0.33115 -0.94074,0.41381 -0.19403,0.0827 -0.61736,0.2673 -0.94074,0.4103 -0.32338,0.14301 -0.77317,0.34012 -0.99954,0.43803 -0.22636,0.0979 -0.67615,0.299 -0.99953,0.44686 -0.32338,0.14786 -0.83932,0.37967 -1.14653,0.51512 -0.30721,0.13546 -0.78346,0.34597 -1.05833,0.4678 -0.27488,0.12183 -1.31998,0.57777 -2.32246,1.01321 -1.00247,0.43544 -2.04758,0.89139 -2.32245,1.01322 -0.27487,0.12183 -0.75112,0.33292 -1.05833,0.4691 -0.30721,0.13618 -0.74378,0.32689 -0.97014,0.42381 -0.65583,0.28079 -1.45246,0.6389 -1.6741,0.75258 -0.11231,0.0576 -0.46055,0.10472 -0.77388,0.10472 -0.55407,0 -0.59198,-0.0234 -1.38331,-0.85314 z m 25.49424,-10.59637 c 0.34146,-0.15302 1.38813,-0.61167 2.32594,-1.01923 0.9378,-0.40756 1.7248,-0.75628 1.7489,-0.77494 0.0241,-0.0186 -0.15096,-0.52056 -0.38902,-1.11534 -0.92798,-2.31855 -1.85464,-5.64211 -1.97753,-7.09256 -0.0359,-0.42377 -0.3231,-0.56249 -0.3231,-0.15606 0,0.1563 -0.0346,0.31879 -0.0769,0.3611 -0.12172,0.12172 -1.458,3.94749 -1.81459,5.19515 -0.54321,1.90066 -0.68506,4.88009 -0.23234,4.88009 0.0648,0 0.39718,-0.12519 0.73865,-0.27821 z m 18.82178,-9.52652 c 0.3738,-0.16953 0.70011,-0.30823 0.72512,-0.30823 0.0384,0 2.44939,-1.01397 3.82811,-1.60996 0.22637,-0.0978 0.51741,-0.22003 0.64676,-0.27152 0.12935,-0.0515 0.43362,-0.17839 0.67616,-0.28199 0.24253,-0.10361 0.61295,-0.26148 0.82314,-0.35082 0.68605,-0.2916 1.97628,-0.84569 2.38125,-1.02264 0.12936,-0.0565 1.18769,-0.50353 2.35186,-0.99336 2.62526,-1.1046 2.88127,-1.22242 2.87999,-1.32546 -5.6e-4,-0.0455 -0.17254,-0.26845 -0.38217,-0.4955 -2.35258,-2.548 -3.63872,-3.93563 -4.78225,-5.15963 -0.74852,-0.80119 -1.45782,-1.56848 -1.57622,-1.70509 -0.11841,-0.13661 -0.77986,-0.84922 -1.46991,-1.58358 -0.69005,-0.73436 -1.29757,-1.41016 -1.35005,-1.50178 -0.16741,-0.29225 -0.29072,-0.0651 -0.37489,0.6907 -0.10479,0.94095 -0.4551,2.4826 -0.82869,3.64692 -0.33764,1.05229 -1.17708,3.06592 -1.45784,3.49704 -0.1053,0.16169 -0.26883,0.45273 -0.36341,0.64676 -0.0946,0.19403 -0.19859,0.37924 -0.23114,0.41158 -0.0325,0.0323 -0.13417,0.20431 -0.22584,0.38217 -0.0917,0.17786 -0.26357,0.32338 -0.38199,0.32338 -0.18106,0 -0.21568,0.0982 -0.21763,0.61736 -0.002,0.56472 -0.12918,1.4036 -0.44973,2.96922 -0.0662,0.32338 -0.3123,1.1965 -0.54686,1.94027 -0.52717,1.67163 -0.59178,1.93287 -0.45866,1.85442 0.0579,-0.0341 0.41109,-0.20073 0.78489,-0.37026 z M 178.46253,713.592 c -0.0391,-0.0391 -0.14049,-0.0433 -0.22538,-0.009 -0.0938,0.0375 -0.0659,0.0654 0.071,0.0711 0.12397,0.005 0.19342,-0.0227 0.15434,-0.0618 z m -0.43852,-0.16414 c 0,-0.0647 -0.0513,-0.1176 -0.11392,-0.1176 -0.0627,0 -0.486,-0.24068 -0.94074,-0.53486 -0.76102,-0.4923 -0.82682,-0.56716 -0.82682,-0.94074 0,-0.52458 0.17939,-0.52402 1.00347,0.003 1.42498,0.91155 2.9542,1.47058 3.15113,1.15195 0.0367,-0.0593 -0.56562,-0.42135 -1.33841,-0.80449 -0.77279,-0.38314 -1.40508,-0.73655 -1.40508,-0.78535 0,-0.0488 -0.10931,-0.0887 -0.24291,-0.0887 -0.46326,0 -0.69783,-0.2188 -0.69783,-0.6509 0,-0.38619 0.0212,-0.40743 0.40604,-0.40743 0.22332,0 0.5276,0.0469 0.67616,0.10435 0.14856,0.0574 0.54793,0.16322 0.88748,0.23518 0.33955,0.072 0.89517,0.18971 1.23472,0.26167 0.33955,0.072 0.74326,0.17978 0.89714,0.23959 0.15388,0.0598 0.29932,0.0892 0.3232,0.0653 0.0612,-0.0612 -0.66621,-0.38981 -1.48492,-0.67094 -0.22637,-0.0777 -0.53064,-0.1889 -0.67616,-0.24705 -0.68047,-0.27191 -0.92647,-0.37605 -1.11554,-0.47222 -0.1123,-0.0571 -0.27373,-0.10388 -0.35873,-0.10388 -0.085,0 -0.29697,-0.0661 -0.47105,-0.14699 -0.26089,-0.12116 -0.31667,-0.22447 -0.31742,-0.58796 -0.001,-0.54051 0.0483,-0.54539 1.47407,-0.14575 0.57929,0.16237 1.26492,0.35116 1.52362,0.41954 0.25871,0.0684 0.63288,0.17365 0.8315,0.23395 0.52858,0.16045 0.99557,0.14027 0.92638,-0.04 -0.0649,-0.16913 -0.62624,-0.43064 -1.9843,-0.92443 -1.29136,-0.46953 -2.62716,-1.21236 -3.16281,-1.7588 -0.31537,-0.32173 -0.55128,-0.45971 -0.78596,-0.45971 -0.43226,0 -0.72733,-0.29899 -0.68189,-0.69094 0.0407,-0.35097 -0.11377,-0.34166 3.06379,-0.18479 1.3913,0.0687 1.6169,0.0553 1.6169,-0.0958 0,-0.23793 -0.19654,-0.36916 -0.82315,-0.54964 -0.29104,-0.0838 -0.66145,-0.1938 -0.82314,-0.24439 -0.66104,-0.20682 -3.18208,-0.5415 -4.9151,-0.65251 -1.18237,-0.0757 -1.22537,-0.0886 -1.82269,-0.54646 -2.07514,-1.5906 -3.72425,-2.76432 -4.56029,-3.24572 -0.22131,-0.12743 -1.14322,-0.6779 -2.04868,-1.22328 -2.40641,-1.44941 -3.54059,-2.05568 -5.87963,-3.14292 -1.78919,-0.83165 -4.08575,-2.02065 -4.69873,-2.43267 -0.45756,-0.30755 -0.61436,-0.4981 -0.7288,-0.88571 -0.0802,-0.27161 -0.11515,-0.54347 -0.0777,-0.60412 0.0375,-0.0607 0.11409,-0.28925 0.17024,-0.50799 0.10312,-0.40177 0.25191,-0.93795 0.4693,-1.69122 0.0653,-0.22637 0.1706,-0.62324 0.23394,-0.88194 0.0633,-0.25871 0.16854,-0.68204 0.23379,-0.94075 0.72081,-2.8576 1.37184,-6.93895 1.61296,-10.11164 0.0692,-0.91102 0.11129,-1.06294 0.30452,-1.0999 0.21236,-0.0406 0.22055,0.0214 0.15517,1.17461 -0.038,0.66962 -0.16099,2.00262 -0.27337,2.96222 -0.142,1.21239 -0.16628,1.76851 -0.0796,1.82268 0.18509,0.11567 1.19759,3.87305 1.62123,6.01639 0.29172,1.47594 0.4197,2.14853 0.5258,2.76342 0.0558,0.32338 0.15846,0.90865 0.22813,1.3006 0.0697,0.39195 0.12668,0.89999 0.12668,1.12898 0,0.52379 0.21536,1.1569 0.39368,1.15732 0.26833,6.4e-4 4.75824,2.3285 6.41794,3.32748 0.93298,0.56156 1.7035,1.00827 1.71226,0.99268 0.0886,-0.15771 -0.18352,-8.43661 -0.29661,-9.02419 -0.19631,-1.01997 -0.22729,-6.9035 -0.038,-7.22378 0.15235,-0.25781 0.10945,-0.31834 -0.54572,-0.77001 -1.21441,-0.83719 -2.93047,-2.38313 -4.24511,-3.82426 -0.41854,-0.45881 -2.3532,-2.82552 -3.31782,-4.05876 -1.26137,-1.61263 -3.17154,-3.77212 -4.15905,-4.70189 -0.44649,-0.42039 -0.93001,-0.93328 -1.07448,-1.13975 -0.14447,-0.20647 -0.81771,-0.88257 -1.49607,-1.50245 -1.09813,-1.00344 -1.26027,-1.11267 -1.4784,-0.99593 -0.13476,0.0721 -0.78978,0.66884 -1.45562,1.32606 -0.94658,0.93433 -1.30341,1.38089 -1.63613,2.04755 -0.83662,1.67629 -0.98222,2.63249 -1.13252,7.43767 -0.12687,4.05597 -0.19079,4.79053 -0.93628,10.75972 -0.0566,0.45273 -0.16212,1.2994 -0.23462,1.88148 -0.28003,2.24836 -0.41146,3.16215 -0.71034,4.93889 -0.21718,1.29103 -0.2758,3.54671 -0.10315,3.96891 0.29069,0.7108 0.67794,0.90661 1.82723,0.92388 0.85811,0.0129 1.12015,0.081 2.21949,0.57645 0.2587,0.1166 1.10537,0.45987 1.88148,0.76282 0.77611,0.30296 1.51694,0.59379 1.6463,0.6463 0.12935,0.0525 0.52622,0.20132 0.88194,0.33069 0.35572,0.12937 0.88488,0.32673 1.17593,0.43856 1.16853,0.44903 7.54495,2.52415 7.75617,2.52415 0.12443,0 0.25895,0.0529 0.29892,0.11759 0.04,0.0647 0.19935,0.1176 0.35418,0.1176 0.15483,0 0.40306,0.0474 0.55163,0.10534 0.14856,0.0579 0.50824,0.16991 0.79928,0.24882 0.29104,0.0789 0.66146,0.18412 0.82315,0.2338 0.16169,0.0497 0.53211,0.1554 0.82315,0.23495 0.29104,0.0796 0.635,0.18419 0.76435,0.23253 0.12935,0.0483 0.44685,0.15164 0.70555,0.22955 0.25871,0.0779 0.57621,0.18592 0.70556,0.24002 0.12935,0.0541 0.55269,0.21826 0.94074,0.36481 1.88751,0.71282 2.64139,1.20004 4.11574,2.65995 2.33737,2.31448 4.38817,3.85438 5.67384,4.26039 0.0162,0.005 0.0294,-0.0436 0.0294,-0.10831 z m 5.97118,-2.18458 c 0.34139,-0.15668 0.67212,-0.28487 0.73495,-0.28487 0.14594,0 0.14708,-0.29614 0.002,-0.56016 -0.0941,-0.17148 -0.68789,-1.75436 -1.89618,-5.05488 -0.1243,-0.33955 -0.32932,-0.89518 -0.45558,-1.23473 -0.12627,-0.33954 -0.45041,-1.30527 -0.72032,-2.14606 -0.2699,-0.84079 -0.53098,-1.63454 -0.58017,-1.76389 -0.0492,-0.12935 -0.15451,-0.47331 -0.23406,-0.76435 -0.0796,-0.29104 -0.18528,-0.66146 -0.23495,-0.82315 -0.0497,-0.16169 -0.15689,-0.53211 -0.23825,-0.82315 -0.54797,-1.96005 -1.60318,-4.46852 -1.87973,-4.46852 -0.14651,0 -0.14809,0.3435 -0.004,0.97687 0.0615,0.27117 0.22311,1.10158 0.35918,1.84536 0.46076,2.51851 1.19816,6.3522 1.41367,7.34953 0.17834,0.82528 0.24575,1.16204 0.35312,1.76389 0.0577,0.32338 0.16256,0.87901 0.23306,1.23472 0.0705,0.35572 0.15742,0.84427 0.19315,1.08566 0.0493,0.33329 0.15815,0.49647 0.45223,0.67822 0.75984,0.46961 0.98867,1.26527 0.53115,1.8469 -0.23256,0.29565 -0.23256,0.29732 0,0.59297 0.14845,0.18873 0.23322,0.47594 0.23322,0.7902 0,0.27154 0.0339,0.52757 0.0752,0.56896 0.0414,0.0414 0.29275,-0.0597 0.55857,-0.22471 0.26582,-0.16497 0.76264,-0.42814 1.10403,-0.58481 z m -3.50173,-3.85389 c 0,-0.21672 -0.0592,-0.56392 -0.13161,-0.77156 -0.10084,-0.28926 -0.17645,-0.35631 -0.32338,-0.28678 -0.10548,0.0499 -0.7474,0.11929 -1.4265,0.15419 l -1.23472,0.0634 1.46991,0.61364 c 0.80845,0.3375 1.50959,0.61531 1.5581,0.61736 0.0485,0.002 0.0882,-0.17359 0.0882,-0.3903 z m -0.70556,-3.54915 c 0,-0.0991 -0.23854,-1.4088 -0.53009,-2.91042 -0.29154,-1.50161 -0.58612,-3.0477 -0.65461,-3.43576 -0.0685,-0.38806 -0.17038,-0.91722 -0.22641,-1.17593 -0.056,-0.2587 -0.16075,-0.81432 -0.23272,-1.23472 -0.19378,-1.13204 -0.32972,-1.86313 -0.5521,-2.96921 -0.0358,-0.17786 -0.11193,-0.32338 -0.16927,-0.32338 -0.0573,0 -0.10443,-0.0662 -0.10466,-0.14699 -6.2e-4,-0.21824 -0.72477,-1.05939 -2.05221,-2.38378 -1.80996,-1.80581 -2.53435,-2.3919 -5.47181,-4.42712 -0.80927,-0.56071 -1.52556,-1.06342 -1.59177,-1.11713 -0.24653,-0.20003 -1.21331,-0.86202 -1.2589,-0.86202 -0.026,0 -0.0414,1.36261 -0.0342,3.02801 0.012,2.77052 0.16389,5.19926 0.35607,5.69485 0.0421,0.10857 0.0906,1.77545 0.10786,3.70417 0.0307,3.44314 0.0897,4.19439 0.34923,4.45006 0.0714,0.0704 0.47386,0.35922 0.89425,0.64185 0.4204,0.28263 0.79081,0.54685 0.82315,0.58716 0.0323,0.0403 0.24401,0.19975 0.47037,0.35431 0.22637,0.15455 0.70781,0.52507 1.06987,0.82336 l 0.6583,0.54235 2.04633,0.20242 c 2.52699,0.24997 4.38332,0.57469 5.33893,0.9339 0.62442,0.23472 0.76435,0.23912 0.76435,0.024 z m 11.67693,-9.10669 c 1.14833,-0.72825 3.53251,-3.41544 4.00691,-4.51614 0.3629,-0.84203 0.42635,-1.03931 0.42635,-1.32573 0,-0.3504 -0.59074,-1.63819 -0.90871,-1.98095 -0.12,-0.12936 -0.38163,-0.47331 -0.58141,-0.76436 -0.86523,-1.26046 -1.58411,-1.69273 -2.80706,-1.68791 -0.9554,0.004 -3.07124,0.48135 -2.89838,0.65421 0.0707,0.0707 0.27921,0.0653 0.56687,-0.0145 0.5821,-0.16163 0.5806,-0.16174 0.79945,0.0571 0.29058,0.29058 0.23462,1.10067 -0.10501,1.5203 -0.42321,0.52288 -2.88481,4.05471 -3.13745,4.5015 -0.25533,0.45155 -0.28763,0.96656 -0.0606,0.96656 0.21706,0 1.50914,-1.5138 2.9553,-3.46244 0.18932,-0.25511 0.55615,-0.66951 0.81518,-0.92088 0.44269,-0.42961 0.48042,-0.44412 0.62858,-0.24173 0.21871,0.29875 0.0913,0.69057 -0.37669,1.15857 -0.2187,0.2187 -0.73115,0.83677 -1.13878,1.37349 -0.40763,0.53672 -0.99405,1.29071 -1.30315,1.67552 -0.55101,0.68597 -0.7589,1.36412 -0.41502,1.35379 0.20736,-0.006 0.91662,-0.66397 1.39006,-1.2891 0.59929,-0.79131 1.11933,-1.37196 2.13039,-2.3787 0.97019,-0.96605 1.27145,-1.06552 1.27145,-0.41985 0,0.28589 -0.19195,0.54076 -1.03111,1.36913 -1.09419,1.08012 -1.44513,1.47339 -1.90517,2.13498 -0.1574,0.22636 -0.31775,0.43803 -0.35632,0.47037 -0.24112,0.20216 -0.58796,0.84585 -0.58796,1.09118 0,0.232 0.0748,0.3055 0.37156,0.36484 0.20436,0.0409 0.37634,0.0607 0.38218,0.0441 0.006,-0.0166 0.1429,-0.2944 0.30459,-0.61729 0.40307,-0.8049 3.40706,-3.89414 3.68353,-3.78805 0.2657,0.10196 0.25509,0.68562 -0.0182,1.00071 -0.18413,0.21231 -2.31443,2.52185 -2.66967,2.89429 -0.40927,0.4291 -0.62603,0.86152 -0.49667,0.99088 0.21426,0.21426 0.47127,0.16265 1.06497,-0.21386 z m -33.48564,-0.73787 c -0.0459,-0.2102 -0.13163,-0.72613 -0.19046,-1.14653 -0.16683,-1.19191 -0.4583,-2.82041 -0.68404,-3.82176 -0.0583,-0.2587 -0.16187,-0.73495 -0.23011,-1.05833 -0.0682,-0.32338 -0.31856,-1.3288 -0.55627,-2.23426 -0.2377,-0.90546 -0.45811,-1.76614 -0.48978,-1.91262 -0.0811,-0.37498 -0.24822,-0.44018 -0.30932,-0.12066 -0.0283,0.14817 -0.14163,0.74564 -0.25178,1.32773 -0.21007,1.11011 -0.33558,1.72706 -0.52032,2.55763 -0.10262,0.46138 -0.16261,0.70955 -0.46898,1.94028 -0.0604,0.24254 -0.16621,0.63941 -0.23519,0.88195 -0.069,0.24253 -0.17223,0.61295 -0.22945,0.82314 -0.0572,0.2102 -0.14049,0.47018 -0.18504,0.57773 -0.0887,0.21424 0.53942,0.62536 2.87384,1.88083 1.48806,0.80029 1.5897,0.82127 1.4769,0.30487 z m 30.04019,-9.33437 c 0,-0.73041 -0.95347,-8.37971 -1.19271,-9.56864 -0.66439,-3.30175 -2.30615,-4.85496 -5.40016,-5.1089 l -1.00723,-0.0827 -0.13706,0.44972 c -0.0754,0.24735 -0.43265,1.4816 -0.79391,2.74278 -0.36127,1.26118 -0.73269,2.5198 -0.82539,2.79693 -0.0927,0.27713 -0.16854,0.54827 -0.16854,0.60254 0,0.0543 0.43175,0.38211 0.95945,0.72855 0.5277,0.34644 1.01718,0.68559 1.08773,0.75365 0.0706,0.0681 0.31349,0.25355 0.53986,0.41219 1.7774,1.24562 5.39407,4.5954 6.43501,5.96014 0.26988,0.35384 0.50295,0.49921 0.50295,0.31371 z m -9.62521,-9.54822 c 0.61999,-2.10789 1.16622,-4.10307 1.5026,-5.48847 0.20414,-0.84079 0.41974,-1.71392 0.47911,-1.94028 0.0594,-0.22637 0.13857,-0.59679 0.176,-0.82315 0.0374,-0.22637 0.11848,-0.67616 0.18009,-0.99954 0.51806,-2.71922 0.74088,-4.88838 0.93615,-9.11342 0.0583,-1.26118 0.15907,-2.61056 0.22396,-2.99862 0.0649,-0.38805 0.14933,-0.89076 0.18765,-1.11713 0.0383,-0.22636 0.11707,-0.59678 0.17501,-0.82314 0.0579,-0.22637 0.15929,-0.6497 0.22521,-0.94074 0.25337,-1.1186 0.47963,-2.09538 0.70975,-3.06409 0.63893,-2.68962 0.92914,-5.59468 0.72918,-7.29926 -0.0943,-0.80418 -0.0842,-1.14577 0.0491,-1.64629 0.21573,-0.81055 0.21794,-2.114 0.004,-2.62495 -0.30543,-0.73101 -1.03589,-0.87573 -1.51946,-0.30104 -0.34465,0.40959 -0.66596,1.4214 -0.66596,2.09712 0,0.58539 -0.0939,0.84406 -0.30656,0.84406 -0.19124,0 -0.19199,-0.0208 -0.0424,-1.17384 0.0628,-0.48392 0.0817,-1.05277 0.0421,-1.26412 -0.0621,-0.33118 -0.12017,-0.38426 -0.42018,-0.38426 -0.19145,0 -0.41247,0.0661 -0.49116,0.14699 -0.18822,0.19338 -0.42809,1.26586 -0.42809,1.91406 0,0.63143 -0.22011,1.70191 -0.34994,1.70191 -0.18763,0 -0.20522,-0.31171 -0.0846,-1.49836 0.13147,-1.2929 0.0226,-1.79423 -0.38964,-1.79423 -0.3014,0 -0.43683,0.43423 -0.60034,1.92489 -0.1121,1.02194 -0.19161,1.3677 -0.31453,1.3677 -0.13261,0 -0.15667,-0.22614 -0.12409,-1.16617 0.0349,-1.00724 0.0126,-1.18353 -0.16378,-1.29352 -0.32614,-0.2034 -0.38548,-0.15842 -0.53667,0.40689 -0.13778,0.51513 -0.1262,0.56877 0.32378,1.49931 0.41181,0.8516 0.48149,1.12265 0.59271,2.30542 0.0693,0.7372 0.15954,1.39458 0.2005,1.46085 0.041,0.0663 0.11491,0.30977 0.16434,0.54112 0.0494,0.23135 0.30523,1.18328 0.56845,2.1154 0.4087,1.4473 0.47858,1.8595 0.47858,2.823 0,0.62053 -0.0511,1.30631 -0.11349,1.52395 -0.0624,0.21764 -0.16903,1.14333 -0.23693,2.05709 -0.11397,1.53387 -0.74306,5.16902 -1.11308,6.43185 -0.27325,0.93255 -0.65643,1.65085 -1.12642,2.11153 -0.47809,0.46863 -1.53312,0.93791 -2.10857,0.93791 -0.59153,0 -0.69973,0.11243 -0.94518,0.98219 -0.13046,0.46227 -0.28269,0.99925 -0.33828,1.19328 -0.0556,0.19402 -0.16728,0.5909 -0.2482,0.88194 -0.184,0.6618 -0.3437,1.14984 -0.50023,1.5287 -0.0668,0.16169 -0.16189,0.39982 -0.21132,0.52917 -0.0494,0.12935 -0.17464,0.43362 -0.27825,0.67616 -0.10361,0.24253 -0.2616,0.61295 -0.35109,0.82315 -0.0895,0.21019 -0.27469,0.63295 -0.41157,0.93945 -0.13688,0.30651 -0.24887,0.63412 -0.24887,0.72802 0,0.0939 -0.0466,0.19953 -0.10355,0.23473 -0.057,0.0352 -0.1309,0.18384 -0.16432,0.33032 -0.0334,0.14647 -0.1925,0.70346 -0.3535,1.23775 -0.21008,0.69714 -0.255,0.99548 -0.15906,1.05661 0.62197,0.39634 2.65897,1.32335 2.90792,1.32335 0.33577,0 1.54846,0.61001 3.16418,1.59167 1.13611,0.69026 1.06733,0.71496 1.42849,-0.51292 z m -8.01368,-2.9545 c 0,-0.49794 0.55625,-2.28076 1.13,-3.62171 0.44709,-1.04493 0.54948,-1.28678 0.6596,-1.5581 0.0656,-0.16169 0.16607,-0.38587 0.2232,-0.49817 0.14345,-0.282 0.13005,-0.64769 -0.0273,-0.74493 -0.0877,-0.0542 -0.10141,-0.26094 -0.0413,-0.62431 0.11068,-0.6692 0.10876,-1.86287 -0.005,-3.21169 l -0.0863,-1.02215 -0.72101,-0.68294 c -0.83379,-0.78976 -1.36054,-1.20506 -2.4252,-1.91208 -0.4204,-0.27918 -0.99292,-0.72537 -1.27227,-0.99154 -0.50092,-0.47729 -1.07959,-1.51901 -1.07959,-1.94348 0,-0.20132 -0.0335,-0.2059 -0.44097,-0.0605 -0.24253,0.0866 -0.56003,0.1597 -0.70555,0.16254 -0.21851,0.004 -0.26504,0.0717 -0.26717,0.38733 -0.001,0.2102 -0.10427,0.59385 -0.22855,0.85255 -0.2739,0.57014 -1.25966,1.6429 -1.61033,1.75245 -0.50021,0.15627 -0.54701,0.33393 -0.40504,1.53765 0.18627,1.57941 -0.0138,3.34658 -0.55022,4.85864 -0.205,0.57792 -0.17268,0.62663 0.56246,0.84783 0.29104,0.0876 0.59532,0.20908 0.67616,0.27003 0.19511,0.14708 0.18869,0.77895 -0.009,0.85468 -0.20902,0.0802 -1.90023,-0.46214 -2.99058,-0.95903 -0.4847,-0.22088 -0.90112,-0.4016 -0.92538,-0.4016 -0.2716,0 0.80991,1.11801 2.13134,2.20328 1.52697,1.25407 4.92753,3.32052 6.82037,4.1446 0.45274,0.19711 0.90253,0.4074 0.99954,0.46731 0.30758,0.18996 0.58796,0.13909 0.58796,-0.10668 z m 3.17329,-9.21986 c 0.20277,-0.70214 0.35226,-1.28602 0.33219,-1.29749 -0.14806,-0.0847 -0.91031,-0.3069 -1.0527,-0.3069 -0.14551,0 -0.16098,0.10795 -0.0884,0.61736 0.0484,0.33955 0.0943,1.19944 0.10213,1.91088 0.0163,1.48457 0.008,1.49512 0.70681,-0.92385 z m 2.25713,-2.33018 c 1.3398,-0.40141 2.19347,-2.06663 2.79282,-5.44782 0.37655,-2.12425 0.60813,-5.3268 0.37476,-5.18257 -0.078,0.0482 -0.47795,0.0851 -0.88876,0.0819 -0.71373,-0.005 -0.74395,0.006 -0.68006,0.25439 0.0368,0.14308 0.16223,0.41888 0.27878,0.61291 0.53533,0.89112 0.68834,1.25449 0.68834,1.63467 0,0.22513 -0.0529,0.44203 -0.11759,0.482 -0.0647,0.04 -0.1176,0.20532 -0.1176,0.36745 0,0.43145 -0.17987,0.69823 -0.58346,0.86541 -0.31822,0.13181 -0.35728,0.20228 -0.35728,0.64466 0,0.34733 0.0707,0.56067 0.23519,0.70952 0.25394,0.22981 0.33824,1.15714 0.11759,1.29351 -0.0647,0.04 -0.11759,0.2971 -0.11759,0.57139 0,0.5879 -0.15559,0.78093 -0.62948,0.78093 h -0.34725 l 0.27117,0.23518 c 0.14915,0.12936 0.31599,0.23519 0.37077,0.23519 0.10766,0 0.13856,0.39222 0.0388,0.49201 -0.0335,0.0335 -0.31127,-0.0619 -0.61736,-0.21191 -0.30608,-0.15001 -0.65621,-0.2744 -0.77806,-0.27642 -0.3316,-0.006 -1.13077,0.25437 -1.13077,0.36771 0,0.13926 -0.32367,0.12363 -0.41238,-0.0199 -0.0787,-0.12739 0.47578,-0.74098 0.76629,-0.84793 0.23317,-0.0859 -0.0502,-0.30624 -1.03007,-0.80113 -1.03202,-0.52122 -0.99128,-0.67467 0.35278,-1.32874 1.48497,-0.72264 1.53684,-0.76914 1.56349,-1.40146 l 0.0224,-0.53139 -0.56577,-0.0544 c -1.1844,-0.11381 -1.47922,-0.72961 -0.83441,-1.74285 0.47746,-0.75027 0.9541,-1.03927 1.32998,-0.80641 0.12162,0.0753 0.0409,0.20591 -0.33639,0.54416 -0.51034,0.45751 -0.73062,0.87756 -0.64963,1.23877 0.0658,0.29331 0.35818,0.25496 0.4029,-0.0528 0.0703,-0.48413 1.55008,-1.01438 1.70489,-0.61094 0.0758,0.19754 -0.38831,0.75197 -0.62948,0.75197 -0.21594,0 -0.19584,0.1947 0.029,0.28098 0.2498,0.0959 0.48587,-0.0492 1.09061,-0.67017 l 0.51117,-0.52488 -0.24385,-0.5131 c -0.25541,-0.53743 -0.54439,-1.05119 -0.87562,-1.55672 -0.10827,-0.16523 -0.19685,-0.39818 -0.19685,-0.51766 0,-0.11948 -0.10583,-0.43629 -0.23518,-0.70401 -0.33939,-0.70246 -0.3131,-1.44649 0.0645,-1.82405 0.32905,-0.32906 1.06994,-0.54405 2.02196,-0.58673 0.33909,-0.0152 0.61771,-0.0806 0.61917,-0.14523 0.006,-0.28585 -0.74848,-3.24552 -0.86784,-3.40232 -0.10129,-0.13306 -0.60547,-0.20154 -2.13174,-0.28955 -1.09949,-0.0634 -2.31657,-0.0893 -2.70463,-0.0576 -1.26306,0.10316 -3.63365,0.53345 -4.13242,0.75007 -0.83543,0.36285 -1.48606,1.23241 -1.10045,1.47073 0.24752,0.15298 0.0403,4.32163 -0.25723,5.17408 -0.43423,1.24423 -0.79365,1.61686 -1.59448,1.65308 -0.30741,0.0139 -0.6189,-0.023 -0.69219,-0.082 -0.0861,-0.0693 -0.15762,-0.0437 -0.2021,0.0722 -0.0408,0.10621 -0.21427,0.17939 -0.42531,0.17939 -0.40266,0 -0.47146,0.24965 -0.17633,0.63984 0.22364,0.29569 0.22159,0.65368 -0.004,0.65368 -0.097,0 -0.17639,0.0794 -0.17639,0.17639 0,0.21322 0.88085,1.11738 1.08773,1.11651 0.31467,-0.001 0.83994,-0.43583 0.96079,-0.79478 0.22662,-0.67304 0.36083,-0.48154 0.39266,0.56022 0.0168,0.54974 0.0959,1.13183 0.17583,1.29351 0.23237,0.47016 0.87349,1.0071 2.01905,1.69097 0.67484,0.40286 1.3698,0.94766 1.89033,1.48188 0.88528,0.90856 1.5546,1.42138 2.11666,1.62173 0.48068,0.17134 1.98638,0.17517 2.5494,0.006 z m -3.19616,-10.70275 c -0.73525,-0.30944 -0.89496,-0.39015 -1.08773,-0.54966 -0.46304,-0.38317 -0.0555,-0.67418 0.44911,-0.32072 0.13027,0.0912 0.53713,0.22141 0.90413,0.28926 0.69004,0.12756 1.17444,0.0414 1.67154,-0.29716 0.63595,-0.43319 0.76632,0.23958 0.13912,0.71796 -0.32318,0.24651 -0.51704,0.29855 -1.08773,0.29201 -0.38195,-0.004 -0.82675,-0.0636 -0.98844,-0.13169 z m -2.17784,-1.3929 c -0.0729,-0.11798 0.15422,-0.42927 0.78918,-1.08161 0.10936,-0.11235 0.38878,-0.31096 0.62094,-0.44135 0.86309,-0.48477 3.07738,-0.20234 3.3174,0.42314 0.1426,0.37161 -0.1496,0.42243 -0.98997,0.17216 -1.36088,-0.40529 -2.08069,-0.30365 -2.87769,0.40636 -0.69782,0.62166 -0.77057,0.66576 -0.85986,0.5213 z m -6.57127,8.49991 c 0.41231,-0.43656 0.83505,-1.01373 0.93943,-1.28259 l 0.18977,-0.48884 -0.4605,-0.68709 c -0.73826,-1.10152 -0.97422,-1.71128 -0.97422,-2.51753 0,-0.63445 0.0391,-0.75499 0.34374,-1.05962 0.51187,-0.51187 1.35792,-0.40925 1.94139,0.23547 0.13495,0.14912 0.28104,0.20035 0.42169,0.14786 0.36627,-0.13667 0.8076,-0.58475 0.97339,-0.98827 0.27774,-0.676 0.43897,-2.32832 0.41626,-4.2661 -0.0273,-2.33312 0.0223,-2.46307 1.16203,-3.0406 1.22251,-0.6195 3.45812,-0.96357 5.9128,-0.91002 1.06715,0.0233 2.25778,0.0486 2.64583,0.0562 l 0.70556,0.0139 -0.0284,-0.64676 c -0.0751,-1.71058 -1.18586,-3.52097 -2.86532,-4.66999 -1.00644,-0.68856 -2.47173,-1.0333 -3.18618,-0.7496 -0.14856,0.059 -0.58761,0.2229 -0.97567,0.36424 -0.38805,0.14134 -0.81139,0.30077 -0.94074,0.35428 -0.12935,0.0535 -0.57914,0.13292 -0.99953,0.17647 -2.65576,0.27512 -2.41868,0.23199 -3.2338,0.5882 -0.19403,0.0848 -0.9084,0.37393 -1.5875,0.64252 -1.62021,0.64081 -2.85354,1.31032 -3.62024,1.96523 -0.62557,0.53434 -1.55384,1.76681 -1.55384,2.06303 0,0.0876 -0.0444,0.2096 -0.0987,0.27104 -0.37386,0.42333 -0.45832,2.8307 -0.15243,4.34504 0.17486,0.86566 0.29092,1.31991 0.71353,2.79283 0.14971,0.52178 0.17864,0.63653 0.6005,2.38125 0.46655,1.92958 0.73725,2.72966 1.27317,3.76296 0.38916,0.75034 1.36718,1.94028 1.59474,1.94028 0.0514,0 0.43088,-0.35719 0.84319,-0.79375 z m -2.1904,-9.79186 c -0.1358,-0.0841 -0.1728,-0.39236 -0.17211,-1.43411 0.001,-1.50697 0.21476,-2.15945 0.89501,-2.73184 0.51125,-0.43019 0.7227,-0.21695 0.29219,0.29467 -0.64025,0.7609 -0.71429,1.01483 -0.72667,2.49231 -0.006,0.7602 -0.035,1.40555 -0.0635,1.43412 -0.0286,0.0286 -0.12977,0.004 -0.22491,-0.0552 z m 8.77854,-5.35284 c -0.0403,-0.10503 -0.0733,-0.38654 -0.0733,-0.62556 0,-0.66979 -0.38615,-1.14678 -1.25925,-1.55547 -0.62251,-0.2914 -0.7124,-0.43304 -0.33494,-0.52778 0.38507,-0.0966 1.23577,0.39212 1.66736,0.95797 0.259,0.33956 0.31833,0.54474 0.32737,1.13213 0.0108,0.69851 -0.16739,1.0353 -0.32725,0.61871 z m 6.5119,15.69935 c 0.14855,-0.0993 0.12161,-0.16631 -0.17074,-0.42456 -0.32217,-0.28461 -0.40248,-0.30143 -1.11713,-0.23391 -0.4235,0.04 -0.92875,0.0756 -1.12278,0.0791 -0.32794,0.006 -0.30724,0.0304 0.29398,0.34807 0.6807,0.35961 1.7499,0.47643 2.11667,0.23127 z m 0.23338,-1.14261 c -0.005,-0.22268 -0.21449,-0.35271 -0.68924,-0.42689 -0.39658,-0.062 -0.58543,-0.0324 -0.82315,0.12913 l -0.30849,0.20956 0.70555,0.0684 c 0.38806,0.0376 0.79816,0.0773 0.91135,0.0882 0.11318,0.0109 0.20497,-0.0199 0.20398,-0.0684 z m -0.44505,-1.11125 c -0.0776,-0.0776 -0.14111,-0.3422 -0.14111,-0.58797 0,-0.3188 -0.0505,-0.44685 -0.17639,-0.44685 -0.10849,0 -0.17639,0.11021 -0.17639,0.28633 0,0.45449 0.21138,0.8896 0.43219,0.8896 0.15774,0 0.17146,-0.0314 0.0617,-0.14111 z m -12.60592,-3.25946 c 0,-0.0594 0.0308,-0.20491 0.0684,-0.32338 0.0626,-0.19711 0.0526,-0.19602 -0.11759,0.0129 -0.21299,0.2614 -0.23866,0.41849 -0.0684,0.41849 0.0647,0 0.1176,-0.0486 0.1176,-0.10797 z m 14.65708,-2.8229 c 0.31536,-0.19229 0.37715,-0.3087 0.42108,-0.79331 0.0283,-0.31237 0.0309,-0.60763 0.006,-0.65614 -0.0252,-0.0485 -0.48955,-0.0882 -1.03187,-0.0882 -0.8578,0 -1.02395,0.0344 -1.27753,0.26458 -0.22978,0.20858 -0.27846,0.34323 -0.22995,0.63613 0.0338,0.20434 0.14883,0.3993 0.25553,0.43324 0.1067,0.0339 0.40566,0.14223 0.66437,0.24066 0.61808,0.23515 0.75334,0.23096 1.19273,-0.037 z m 43.11291,117.46606 c 0,-0.29104 0.0229,-0.4101 0.051,-0.26458 0.028,0.14552 0.028,0.38365 0,0.52917 -0.028,0.14552 -0.051,0.0265 -0.051,-0.26459 z m 0.22608,-2.76342 c 0.002,-0.19403 0.0288,-0.25917 0.0586,-0.14475 0.0298,0.11441 0.0279,0.27316 -0.004,0.35277 -0.0322,0.0796 -0.0566,-0.014 -0.0542,-0.20802 z m -0.0136,-2.24406 c 0.006,-0.13699 0.0335,-0.16485 0.071,-0.0711 0.034,0.0849 0.0298,0.18631 -0.009,0.22539 -0.0391,0.0391 -0.0669,-0.0304 -0.0618,-0.15434 z m -20.3173,-17.55398 c -1.9011,-1.59289 -2.92177,-3.35833 -3.32371,-5.74895 -0.17984,-1.06963 -0.0134,-2.29842 0.47785,-3.52778 0.7476,-1.87092 2.41061,-3.19389 4.77491,-3.79857 2.72777,-0.69765 5.28923,0.24558 6.2568,2.30399 0.3082,0.65566 0.38587,1.64157 0.12933,1.64157 -0.0961,0 -0.19158,-0.10583 -0.21212,-0.23519 -0.0766,-0.48242 -0.55937,-1.27135 -1.03325,-1.68848 -0.95868,-0.84386 -2.03396,-1.19253 -3.67769,-1.19253 -1.98472,0 -3.38036,0.52137 -4.54475,1.6978 -0.62088,0.62729 -0.82397,0.9428 -1.39213,2.16277 -0.18481,0.39683 -0.16805,2.67991 0.0243,3.31257 0.16099,0.52947 0.83173,2.00588 0.96162,2.11667 0.0379,0.0323 0.23092,0.29692 0.42891,0.58796 0.34684,0.50986 1.0436,1.19419 1.98011,1.94481 0.38112,0.30547 0.43418,0.40356 0.36577,0.67616 -0.11771,0.46898 -0.43267,0.4035 -1.21597,-0.2528 z m -0.57029,-9.2645 c -0.42412,-0.45764 -0.39335,-1.06553 0.0784,-1.54801 0.73838,-0.75524 1.63234,-0.33725 1.63234,0.76323 0,1.00658 -1.05613,1.49107 -1.71071,0.78478 z m 15.55724,-8.45796 c -0.27034,-0.14667 -0.32338,-0.25324 -0.32338,-0.64979 0,-0.79856 0.37328,-1.27455 0.99954,-1.27455 0.43975,0 0.67244,0.17837 0.87229,0.66868 0.12641,0.31013 0.12786,0.44956 0.008,0.73964 -0.27727,0.66938 -0.89555,0.8744 -1.55616,0.51602 z m 1.0512,-1.07927 c -0.0296,-0.11319 -0.0538,-0.0206 -0.0538,0.20578 0,0.22637 0.0242,0.31897 0.0538,0.20579 0.0296,-0.11318 0.0296,-0.29839 0,-0.41157 z m -24.93367,-3.77222 c -0.49701,-0.54919 -0.0306,-1.23386 0.66127,-0.97079 0.24571,0.0934 0.32004,0.20005 0.32004,0.45914 0,0.35678 -0.30969,0.72669 -0.60839,0.72669 -0.0981,0 -0.26588,-0.0968 -0.37292,-0.21504 z m -23.27216,-4.64527 c -0.13891,-0.33928 -0.11269,-0.73807 0.0386,-0.58679 0.0697,0.0697 0.10942,0.27875 0.0882,0.46449 -0.0317,0.27717 -0.0544,0.2991 -0.12679,0.1223 z m -0.28389,-1.08602 c -0.0389,-0.10136 -0.0108,-0.24423 0.0625,-0.3175 0.0992,-0.0992 0.13321,-0.0522 0.13321,0.18429 0,0.35381 -0.0881,0.41374 -0.1957,0.13321 z"
       id="path45" /></g></svg>
