<?xml version="1.0" encoding="UTF-8" standalone="no"?>
<!-- Created with Inkscape (http://www.inkscape.org/) -->

<svg
   width="127.9548mm"
   height="108.27013mm"
   viewBox="0 0 127.95482 108.27013"
   version="1.1"
   id="svg1"
   xml:space="preserve"
   xmlns="http://www.w3.org/2000/svg"
   xmlns:svg="http://www.w3.org/2000/svg"><defs
     id="defs1" /><g
     id="layer1"
     transform="translate(405.28413,-1337.959)"><path
       style="fill:#4d4d4d"
       d="m -307.44408,1446.1019 c -0.0776,-0.078 -0.14111,-0.2099 -0.14111,-0.294 0,-0.2087 -0.072,-0.1936 -0.46568,0.097 -0.56795,0.4199 -1.18062,0.045 -1.18062,-0.7226 0,-0.2113 -0.028,-0.2071 -0.42798,0.064 -0.51013,0.3462 -0.76186,0.3647 -1.0237,0.075 -0.2543,-0.281 -0.24635,-0.7278 0.0239,-1.3443 0.44046,-1.0048 0.48702,-1.1665 0.48702,-1.6912 0,-0.6067 -0.22415,-0.9949 -1.02955,-1.7833 -0.61083,-0.598 -0.58219,-0.611 -1.44666,0.6587 -0.87041,1.2784 -1.26259,1.6705 -1.671,1.6705 -0.34948,0 -0.51028,-0.1184 -0.76228,-0.5615 -0.34046,-0.5986 -0.0864,-1.2524 1.48028,-3.8094 0.69445,-1.1335 0.97494,-2.0614 1.04249,-3.449 0.0555,-1.141 -0.0795,-3.0264 -0.32016,-4.4685 -0.0648,-0.3881 -0.1735,-1.1289 -0.24166,-1.6463 -0.0682,-0.5174 -0.17398,-1.3112 -0.23517,-1.7639 -0.11598,-0.8582 -0.28511,-2.2011 -0.46651,-3.7042 -0.0585,-0.485 -0.16363,-1.3052 -0.23354,-1.8227 -0.19732,-1.4604 -0.26609,-3.5676 -0.13392,-4.1032 0.11093,-0.4496 0.17889,-0.865 0.49258,-3.0106 0.22381,-1.5308 0.35886,-2.4088 0.47037,-3.0579 0.0611,-0.3557 0.19592,-1.1759 0.29957,-1.8227 0.1582,-0.9871 0.7643,-4.2592 1.11089,-5.9972 0.0516,-0.2587 0.15148,-0.7614 0.22197,-1.1171 0.0705,-0.3558 0.17603,-0.8585 0.23451,-1.1172 0.3337,-1.4761 0.34309,-1.5922 0.14474,-1.7908 -0.23511,-0.2354 -2.26457,-1.2078 -2.52079,-1.2078 -0.10188,0 -0.21795,-0.053 -0.25792,-0.1176 -0.04,-0.065 -0.1761,-0.1176 -0.30251,-0.1176 -0.12642,0 -0.32173,-0.046 -0.43404,-0.1031 -0.35908,-0.1814 -1.03485,-0.3672 -1.33555,-0.3672 -0.16033,0 -0.34178,-0.047 -0.40322,-0.1056 -0.0614,-0.058 -0.32338,-0.1347 -0.58208,-0.1704 -0.25871,-0.036 -0.76142,-0.1207 -1.11713,-0.1889 -0.65392,-0.1255 -1.35705,-0.2365 -3.175,-0.5012 -1.30345,-0.1898 -4.20278,-0.1876 -5.17408,0 -0.42039,0.083 -0.93682,0.1804 -1.14762,0.2167 -0.21079,0.036 -0.41235,0.113 -0.44791,0.1705 -0.0356,0.057 -0.16575,0.1046 -0.28931,0.1046 -0.12357,0 -0.4131,0.1058 -0.6434,0.2352 -0.2303,0.1293 -0.49649,0.2352 -0.59154,0.2352 -0.0951,0 -0.17281,0.053 -0.17281,0.1175 0,0.065 -0.0541,0.1176 -0.12011,0.1176 -0.0661,0 -0.32348,0.1346 -0.57204,0.2991 -0.40642,0.269 -0.45832,0.3607 -0.51542,0.9114 -0.0844,0.8141 -0.28646,1.2239 -0.69193,1.4034 -0.18412,0.082 -0.33476,0.2129 -0.33476,0.2919 0,0.2235 -0.80561,0.9748 -1.04524,0.9748 -0.13939,0 -0.25133,0.1293 -0.32035,0.3699 -0.10991,0.3833 -0.19677,0.455 -0.83927,0.693 -0.2102,0.078 -0.38218,0.2186 -0.38218,0.3127 0,0.253 -0.65083,0.8587 -0.92267,0.8587 -0.34591,0 -0.95881,-0.5619 -0.95881,-0.879 0,-0.1485 -0.0694,-0.4039 -0.15432,-0.5675 -0.14777,-0.2849 -0.16031,-0.2879 -0.29498,-0.072 -0.0774,0.1239 -0.24292,0.2252 -0.3679,0.2252 -0.12499,0 -0.25605,0.047 -0.29125,0.1036 -0.0352,0.057 -0.18384,0.131 -0.33032,0.1646 -0.14648,0.034 -0.58382,0.1508 -0.97188,0.2604 -1.31022,0.3699 -3.92201,0.2659 -5.99722,-0.2387 -0.48034,-0.1168 -0.59471,-0.1145 -0.6248,0.013 -0.0318,0.1346 1.29643,2.8069 2.18763,4.4012 0.16268,0.2911 0.43827,0.7938 0.61242,1.1172 0.17415,0.3234 0.44002,0.7996 0.59083,1.0583 0.15081,0.2587 0.67782,1.2641 1.17115,2.2343 0.80021,1.5736 1.12626,2.2811 2.13789,4.6387 0.42101,0.9813 1.63745,3.3595 2.28876,4.4747 0.61722,1.0569 1.46325,2.9167 1.68499,3.7042 0.22576,0.8017 0.47534,2.3252 0.47551,2.9027 2.1e-4,0.7211 -0.27615,2.0151 -0.6005,2.8118 -0.14231,0.3495 -0.29027,0.8471 -0.32881,1.1058 l -0.0701,0.4704 -1.17593,0.1298 c -6.11539,0.6752 -11.91462,0.838 -33.45509,0.9393 -10.36414,0.049 -15.56352,0.033 -15.76696,-0.047 -0.27817,-0.1095 -0.31507,-0.088 -0.4415,0.2621 -0.0759,0.2098 -0.25679,0.4408 -0.40202,0.5133 -0.15429,0.077 -1.24169,0.1571 -2.61591,0.1926 -1.29351,0.033 -2.93393,0.1122 -3.64537,0.1752 -3.04527,0.2697 -4.17703,0.3769 -5.17407,0.4903 -1.7764,0.2021 -4.27736,0.2599 -4.64575,0.1073 -0.53809,-0.2229 -0.85076,-0.6406 -0.86423,-1.1545 -0.0241,-0.917 0.48075,-1.1743 2.55261,-1.3011 1.4566,-0.089 1.62657,-0.1251 2.43795,-0.5162 0.89317,-0.4304 4.48616,-2.7337 4.55677,-2.9211 0.0215,-0.057 0.0871,-0.104 0.14564,-0.104 0.0585,0 0.19966,-0.076 0.31358,-0.1681 1.27836,-1.0374 3.15189,-2.3121 3.32992,-2.2655 0.16236,0.042 0.25981,-0.061 0.40707,-0.431 0.10649,-0.2677 0.27404,-0.672 0.37234,-0.8984 0.0983,-0.2263 0.22625,-0.5306 0.28433,-0.6761 0.21156,-0.5301 0.34303,-0.8581 0.44772,-1.1171 0.27011,-0.6684 0.31178,-0.6365 -0.93887,-0.7185 -3.56851,-0.2339 -7.44557,-0.3274 -10.60895,-0.2559 -3.38725,0.076 -3.52004,0.071 -4.0059,-0.1641 -1.19431,-0.5782 -1.35365,-2.2698 -0.2628,-2.79 0.37197,-0.1773 0.51546,-0.1813 1.42558,-0.04 1.16967,0.182 1.64993,0.1032 3.99466,-0.655 1.89791,-0.6137 6.11948,-2.4243 6.40879,-2.7486 0.10135,-0.1136 0.75483,-0.4889 0.97014,-0.5572 0.11318,-0.036 0.20579,-0.112 0.20579,-0.1692 0,-0.057 0.0541,-0.1038 0.12011,-0.1038 0.49923,0 1.71912,-1.3806 2.20797,-2.4989 0.41249,-0.9436 0.71442,-1.8934 0.90645,-2.8516 0.0389,-0.194 0.12077,-0.5777 0.18197,-0.8525 0.0612,-0.2749 0.1613,-0.7247 0.22244,-0.9996 0.0611,-0.2749 0.16345,-0.7114 0.22737,-0.9701 0.10789,-0.4368 0.16955,-0.6612 0.48461,-1.7639 0.0647,-0.2264 0.16499,-0.5836 0.22291,-0.7938 0.0579,-0.2102 0.29304,-0.9642 0.52248,-1.6757 0.46166,-1.4314 0.86136,-2.8647 1.24613,-4.4685 0.13965,-0.5821 0.30097,-1.2435 0.3585,-1.4699 0.0575,-0.2263 0.1659,-0.6761 0.24084,-0.9995 0.0749,-0.3234 0.17798,-0.7203 0.22897,-0.882 0.051,-0.1616 0.15892,-0.5321 0.23984,-0.8231 0.27545,-0.9907 0.38301,-1.3521 0.47254,-1.5875 0.0492,-0.1294 0.15303,-0.4204 0.23076,-0.6468 0.20039,-0.5835 0.25679,-0.7116 1.03557,-2.3518 0.4744,-0.9992 0.72085,-1.6771 0.76951,-2.1167 0.17533,-1.5842 0.82498,-2.6584 1.84029,-3.0429 0.22636,-0.086 0.51741,-0.1998 0.64676,-0.2535 0.32886,-0.1367 0.86599,-0.2208 2.29305,-0.3594 3.00678,-0.292 9.53648,-0.6203 12.52361,-0.6297 2.04049,-0.01 2.11667,0 2.11667,0.2286 0,0.2087 -0.10586,0.2444 -0.94074,0.3176 -0.51741,0.045 -2.34303,0.1416 -4.05695,0.214 -8.30915,0.351 -10.61072,0.5309 -11.90328,0.93 -0.98192,0.3033 -1.90013,1.3278 -2.01537,2.2487 -0.21672,1.7319 -0.1607,1.5511 -1.07307,3.4628 -0.30867,0.6468 -0.60722,1.295 -0.66345,1.4405 -0.20283,0.525 -0.3668,0.9152 -0.46873,1.1156 -0.0571,0.1123 -0.10387,0.285 -0.10387,0.3837 0,0.099 -0.0478,0.2715 -0.10613,0.3838 -0.0584,0.1123 -0.17035,0.4423 -0.24883,0.7334 -0.0785,0.291 -0.18333,0.6614 -0.23301,0.8231 -0.0965,0.3142 -0.27925,0.9995 -0.47037,1.7639 -0.0647,0.2587 -0.16796,0.6688 -0.22953,0.9113 -0.0616,0.2426 -0.35187,1.42 -0.64512,2.6165 -0.29326,1.1965 -0.66852,2.5988 -0.83393,3.1162 -0.29344,0.9179 -0.68275,2.2891 -0.88477,3.1162 -0.0553,0.2264 -0.15875,0.6497 -0.22992,0.9407 -0.0712,0.2911 -0.17653,0.7409 -0.23413,0.9996 -0.0576,0.2587 -0.1638,0.7085 -0.23599,0.9995 -0.0722,0.291 -0.15807,0.6879 -0.19084,0.8819 -0.0328,0.1941 -0.10285,0.4587 -0.15575,0.588 -0.0529,0.1294 -0.16375,0.4733 -0.24635,0.7644 -0.32156,1.133 -1.08421,2.5115 -1.77284,3.2044 -0.36961,0.3718 -0.75562,0.6761 -0.85781,0.6761 -0.10219,0 -0.18579,0.047 -0.18579,0.1039 0,0.057 -0.0926,0.1342 -0.20579,0.1712 -0.11318,0.037 -0.44391,0.2096 -0.73495,0.3835 -1.32705,0.7929 -3.68541,1.8442 -6.17362,2.7522 -0.38805,0.1417 -0.81138,0.3018 -0.94074,0.3559 -0.12935,0.054 -0.44685,0.1612 -0.70555,0.2381 -0.25871,0.077 -0.56226,0.1862 -0.67456,0.243 -0.11231,0.057 -0.31784,0.1031 -0.45673,0.1031 -0.1389,0 -0.46052,0.062 -0.71473,0.1385 -0.35754,0.1071 -0.55152,0.1062 -0.85672,0 -0.21699,-0.078 -0.6589,-0.154 -0.98203,-0.1678 -0.49027,-0.021 -0.62765,0.021 -0.83017,0.2545 -0.28676,0.3306 -0.24368,0.4339 0.27043,0.6487 0.30153,0.126 1.38258,0.1623 5.01904,0.1686 2.5491,0 5.24327,0.061 5.98704,0.1256 0.74378,0.065 2.19533,0.1302 3.22568,0.1456 1.5318,0.023 1.88843,0 1.95604,-0.141 0.35584,-0.727 2.69677,-7.0641 3.47235,-9.3999 0.16106,-0.4851 0.34003,-0.9878 0.39772,-1.1172 0.0577,-0.1293 0.17211,-0.4468 0.25426,-0.7055 0.0822,-0.2587 0.19148,-0.5207 0.24296,-0.5821 0.0515,-0.062 0.0936,-0.2303 0.0936,-0.3752 0,-0.145 0.0529,-0.2963 0.1176,-0.3362 0.0647,-0.04 0.11759,-0.1988 0.11759,-0.3528 0,-0.1541 0.0529,-0.3128 0.11759,-0.3528 0.0647,-0.04 0.1176,-0.1761 0.1176,-0.3025 0,-0.1264 0.0517,-0.3217 0.11495,-0.434 0.0632,-0.1124 0.7293,-2.0828 1.48016,-4.3788 0.75086,-2.296 1.41003,-4.2803 1.46482,-4.4097 0.0548,-0.1294 0.21367,-0.5695 0.35305,-0.9782 0.58747,-1.7224 1.42835,-2.8317 2.56587,-3.3849 0.78935,-0.3839 1.02019,-0.4734 1.48559,-0.5756 0.36674,-0.081 1.23741,-0.8989 1.23741,-1.163 0,-0.2781 0.36687,-0.8951 0.53224,-0.8951 0.0892,0 0.31026,0.059 0.49116,0.1323 0.63254,0.2543 0.80317,0.3123 1.32845,0.452 0.29104,0.077 0.71482,0.1935 0.94173,0.258 0.6061,0.1724 2.72762,0.017 4.05595,-0.2964 0.12936,-0.03 0.55269,-0.1169 0.94074,-0.1919 1.2412,-0.2398 1.5875,-0.3728 1.5875,-0.6096 0,-0.1198 0.0485,-0.3098 0.10771,-0.4221 0.0592,-0.1123 0.18669,-0.3894 0.28322,-0.6158 2.20667,-5.1747 2.13203,-4.9486 2.3674,-7.1731 0.10847,-1.0252 0.15995,-3.5691 0.17015,-8.4079 0.009,-4.312 0.0619,-7.205 0.13965,-7.6435 0.29533,-1.6665 0.36865,-2.0102 0.47003,-2.2033 0.059,-0.1123 0.10721,-0.3076 0.10721,-0.434 0,-0.1264 0.0529,-0.2626 0.1176,-0.3025 0.0647,-0.04 0.11759,-0.1761 0.11759,-0.3025 0,-0.1265 0.0492,-0.3218 0.10935,-0.4341 0.0601,-0.1123 0.32924,-0.654 0.598,-1.2037 0.80082,-1.6381 2.19338,-3.4025 3.76764,-4.7739 0.90156,-0.7854 2.96704,-2.0476 4.86643,-2.9739 1.79314,-0.8745 3.3915,-1.7944 3.76687,-2.1681 0.0764,-0.076 0.34145,-0.3158 0.58892,-0.5327 0.32279,-0.2829 0.47696,-0.5322 0.54551,-0.8819 0.10799,-0.551 0.0318,-1.9737 -0.15031,-2.8083 -0.2588,-1.1859 0.55201,-3.5075 1.95551,-5.5994 0.63655,-0.9488 1.25939,-1.561 2.35532,-2.3153 0.86534,-0.5955 2.92766,-1.6201 3.52778,-1.7526 1.97021,-0.4349 2.42699,-0.4778 3.21577,-0.3018 0.95996,0.2142 1.93189,0.5583 2.54551,0.9013 0.79677,0.4453 2.29111,1.9085 3.00939,2.9467 0.62401,0.9019 1.75298,2.9949 1.75479,3.2531 5.1e-4,0.073 0.44492,0.541 0.98757,1.0407 2.18522,2.012 2.15702,3.4593 -0.11382,5.8407 -0.61972,0.6499 -1.15048,1.3312 -1.32105,1.6959 -0.15682,0.3353 -0.34543,0.7407 -0.41914,0.9008 -0.20495,0.4454 -1.60938,1.8241 -2.08667,2.0484 -0.54961,0.2583 -0.79099,0.7509 -1.10089,2.2465 -0.13323,0.643 -0.2424,0.8809 -0.49879,1.0871 -0.4189,0.337 -1.07393,0.3508 -1.41827,0.03 -0.35249,-0.3284 -0.78334,-0.2985 -1.07689,0.075 -0.13404,0.1704 -0.24372,0.363 -0.24372,0.428 0,0.1961 -0.3915,0.4303 -0.7259,0.4343 -0.18858,0 -0.45484,0.1443 -0.66555,0.355 -0.34327,0.3432 -0.36067,0.3472 -0.76962,0.1764 -0.59491,-0.2486 -0.73759,-0.225 -1.43326,0.2367 -0.71901,0.4773 -1.04821,0.5076 -1.73087,0.1593 -0.79145,-0.4038 -1.29978,-1.1029 -1.84992,-2.5444 -0.16807,-0.4403 -0.0218,-0.5006 -1.46543,0.6041 -1.09899,0.8411 -1.19708,1.0538 -0.9569,2.075 1.01553,4.318 1.22645,9.1668 0.7046,16.1984 -0.0577,0.7773 -0.04,0.9703 0.0889,0.9709 0.0885,5e-4 0.27883,0.1724 0.42296,0.3822 0.14413,0.2098 0.39892,0.5401 0.56619,0.7341 1.83466,2.1282 2.36869,2.7209 3.14834,3.4948 0.31152,0.3092 0.61472,0.5622 0.67377,0.5622 0.15738,0 1.44962,-0.4882 1.90383,-0.7193 0.11231,-0.057 0.30016,-0.1039 0.41745,-0.1039 0.1173,0 0.26354,-0.044 0.32498,-0.097 0.0614,-0.053 0.34984,-0.1644 0.64088,-0.2466 0.29104,-0.082 0.62105,-0.1973 0.73336,-0.2557 0.1123,-0.058 0.285,-0.1061 0.38377,-0.1061 0.0988,0 0.27146,-0.048 0.38377,-0.1061 0.11231,-0.058 0.44232,-0.1719 0.73336,-0.2522 0.29104,-0.08 0.76729,-0.2216 1.05833,-0.314 0.99904,-0.3173 2.76503,-0.7328 4.23333,-0.996 1.24737,-0.2236 1.89718,-0.2641 4.29213,-0.2677 2.49368,0 2.96909,0.027 4.08382,0.2622 0.69388,0.1466 1.39847,0.3186 1.56576,0.3822 0.44478,0.1691 0.52404,0.1457 0.52404,-0.1548 0,-0.1488 0.0421,-0.3207 0.0936,-0.3822 0.0515,-0.061 0.16406,-0.3234 0.25018,-0.5821 0.21033,-0.6318 1.05153,-1.799 1.61197,-2.2368 0.2502,-0.1954 0.69304,-0.4671 0.98408,-0.6037 1.44055,-0.6763 2.43956,-0.6778 3.78087,-0.01 1.07265,0.5374 2.66011,2.1158 4.39506,4.37 1.59637,2.0742 2.70041,3.1447 3.77747,3.6627 0.4684,0.2253 0.88095,0.4999 0.91678,0.6103 0.0435,0.1338 0.48593,0.3345 1.3292,0.6029 0.69522,0.2213 1.31696,0.4414 1.38164,0.4891 0.0647,0.048 0.44665,0.1974 0.84884,0.3326 0.77743,0.2614 2.43988,0.3426 2.82752,0.1382 0.11231,-0.059 0.40263,-0.194 0.64517,-0.2995 0.24253,-0.1055 0.44097,-0.2144 0.44097,-0.2419 0,-0.057 -0.55401,-1.3061 -0.71563,-1.613 -0.0591,-0.1123 -0.10829,-0.2975 -0.10923,-0.4116 -9.4e-4,-0.114 -0.089,-0.4455 -0.19558,-0.7365 -0.35681,-0.974 -0.6304,-3.5703 -0.40044,-3.8002 0.07,-0.07 0.12736,-0.1985 0.12736,-0.2854 0,-0.087 0.13144,-0.2998 0.29208,-0.473 0.25774,-0.278 0.38128,-0.3154 1.05054,-0.3183 0.66484,0 0.80014,-0.043 1.09607,-0.3266 0.35462,-0.3397 0.8273,-0.4205 1.06557,-0.1823 0.10975,0.1098 0.17247,0.1098 0.28222,0 0.17061,-0.1706 0.99179,-0.1882 1.09361,-0.024 0.1149,0.1859 0.20371,0.1472 0.80871,-0.3528 0.3229,-0.2668 0.6943,-0.4703 0.85828,-0.4703 0.20707,0 0.61208,0.3176 1.42771,1.1196 0.62625,0.6158 1.24447,1.1402 1.37382,1.1652 0.12935,0.025 0.68498,0.1305 1.23472,0.2343 1.59123,0.3005 3.84101,0.9265 4.58611,1.276 0.56523,0.2651 1.59045,1.0101 1.94028,1.41 0.38878,0.4443 0.57364,0.7343 0.9172,1.4389 0.12616,0.2587 0.27567,0.5622 0.33225,0.6745 0.0566,0.1123 0.10287,0.3076 0.10287,0.4341 0,0.1264 0.0459,0.2582 0.10199,0.2928 0.50951,0.3149 0.3009,6.42 -0.34188,10.005 -0.0696,0.3881 -0.15548,0.9044 -0.19091,1.1473 -0.0354,0.2429 -0.11174,0.471 -0.16959,0.5067 -0.0578,0.036 -0.10517,0.1772 -0.10517,0.3143 0,0.2648 -0.19557,0.9536 -0.36721,1.2933 -0.0567,0.1123 -0.10316,0.285 -0.10316,0.3838 0,0.099 -0.0467,0.2715 -0.10387,0.3838 -0.18186,0.3575 -0.33557,0.777 -0.48409,1.3213 -0.0794,0.291 -0.1848,0.635 -0.23419,0.7644 -0.11867,0.3108 -0.25911,0.9699 -0.77671,3.6453 -0.40842,2.1111 -0.84861,3.7029 -1.32854,4.8042 -0.51222,1.1755 -0.62542,2.5943 -0.28903,3.6227 0.15947,0.4876 0.16603,0.6095 0.0371,0.6892 -0.20029,0.1238 -0.69594,-0.2671 -1.08515,-0.8559 l -0.29197,-0.4416 -0.074,1.3236 c -0.11463,2.05 -0.25222,3.0259 -0.53476,3.793 -0.77952,2.1165 -0.79196,2.1879 -0.64974,3.7336 0.0597,0.6492 0.0456,0.9113 -0.0492,0.9113 -0.074,0 -0.13306,-0.1849 -0.13306,-0.4162 0,-0.5744 -0.38309,-1.2718 -0.91026,-1.6573 -0.24313,-0.1777 -0.699,-0.5909 -1.01305,-0.9181 l -0.571,-0.595 0.0471,-1.0831 c 0.0477,-1.0987 0.12161,-1.3483 0.33566,-1.1343 0.0799,0.08 0.0718,0.3925 -0.0249,0.9562 l -0.14361,0.8375 0.5748,0.5352 c 0.31614,0.2944 0.63574,0.5353 0.71022,0.5353 0.0745,0 0.2312,0.1058 0.34826,0.2352 0.24625,0.2721 0.41157,0.3033 0.41157,0.078 0,-0.087 0.15853,-0.6291 0.35228,-1.2053 0.6199,-1.8437 0.68271,-2.1951 0.9409,-5.2632 0.086,-1.0223 0.0732,-1.3843 -0.0647,-1.8227 -0.32695,-1.0398 -0.38688,-1.2567 -0.62237,-2.2522 -0.38273,-1.6178 -0.52211,-2.4475 -0.44496,-2.6486 0.11113,-0.2896 0.27736,-0.106 0.34796,0.3843 0.0913,0.6339 0.38509,1.9187 0.65897,2.8817 0.069,0.2425 0.17223,0.613 0.22945,0.8232 0.15159,0.5568 0.2411,0.7917 0.52423,1.3759 l 0.25368,0.5233 0.0795,-0.7585 c 0.10385,-0.9904 0.21691,-1.5106 0.34559,-1.5901 0.0572,-0.035 0.10403,-0.1935 0.10403,-0.3513 0,-0.1579 0.0414,-0.2871 0.0919,-0.2871 0.0506,0 0.16408,-0.2513 0.25228,-0.5585 0.0882,-0.3072 0.19605,-0.6115 0.23968,-0.6762 0.0747,-0.1107 0.27066,-0.7318 0.48238,-1.5287 0.2628,-0.9891 0.34583,-1.3616 0.47188,-2.1167 0.28132,-1.6852 1.31186,-5.5686 1.74752,-6.5852 0.41828,-0.976 1.06527,-3.6994 1.06527,-4.4842 0,-0.2251 0.0523,-0.6312 0.11625,-0.9023 0.10169,-0.4313 0.21114,-2.5884 0.26368,-5.1968 0.0346,-1.7161 -0.5499,-3.5065 -1.51144,-4.6298 -0.46784,-0.5466 -1.45035,-1.245 -2.30679,-1.6397 -0.61591,-0.2839 -0.79503,-0.3153 -0.79503,-0.1393 0,0.065 0.0496,0.1176 0.11022,0.1176 0.0606,0 0.40459,0.347 0.76436,0.7711 0.60619,0.7145 0.82752,1.228 0.52933,1.228 -0.0686,0 -0.64503,-0.5428 -1.28088,-1.2062 -0.63584,-0.6634 -1.38647,-1.3291 -1.66807,-1.4794 -0.49169,-0.2625 -0.51799,-0.2648 -0.66349,-0.058 -1.27701,1.8149 -1.58228,2.167 -1.74102,2.0082 -0.0282,-0.028 0.23934,-0.4961 0.59463,-1.0397 0.70047,-1.0717 0.7717,-1.3267 0.42283,-1.5134 -0.38122,-0.204 -1.24002,-0.1491 -1.45941,0.093 -0.24441,0.2701 -0.25307,1.0275 -0.0182,1.5897 0.15815,0.3785 0.1577,0.415 -0.004,0.3528 -0.45705,-0.1753 -0.70663,-1.5169 -0.37963,-2.0405 0.12571,-0.2013 0.10595,-0.2586 -0.14699,-0.4269 -0.16072,-0.1068 -0.60972,-0.5218 -0.99778,-0.922 -0.90086,-0.9292 -1.4603,-1.3258 -1.58525,-1.1236 -0.0501,0.081 -0.0658,0.2436 -0.0351,0.3612 0.0347,0.1327 -0.0378,0.2725 -0.1908,0.3681 -0.28609,0.1786 -0.33148,0.5679 -0.0662,0.5679 0.0993,0 0.30605,-0.082 0.45948,-0.1828 0.19908,-0.1305 0.30243,-0.1448 0.36096,-0.05 0.11653,0.1885 -0.40417,0.7032 -0.71145,0.7032 -0.27594,0 -0.87748,-0.5249 -0.87748,-0.7657 0,-0.08 -0.15886,-0.1774 -0.35302,-0.2162 -0.30863,-0.062 -0.41584,0 -0.85255,0.4685 -0.27474,0.2965 -0.51716,0.5863 -0.53872,0.6439 -0.089,0.2378 -0.48195,0.079 -0.69416,-0.2807 l -0.22741,-0.3855 -0.93073,0.045 c -1.05601,0.051 -1.23226,0.1539 -1.46353,0.8546 -0.12583,0.3813 -0.12952,0.5836 -0.0183,0.9996 0.0767,0.2868 0.13949,0.7809 0.13949,1.098 0,0.3171 0.10583,0.8234 0.23518,1.1252 0.12935,0.3018 0.23519,0.6595 0.23519,0.7949 0,0.3466 0.8555,2.0601 1.28514,2.5741 0.36863,0.4409 1.45197,1.0323 2.31508,1.2637 0.61907,0.166 2.40149,0.1677 3.03012,0 0.2662,-0.07 0.69568,-0.1818 0.95438,-0.2488 1.17552,-0.3047 1.90322,-0.6068 3.05741,-1.2691 0.81295,-0.4665 2.21513,-1.1403 2.70463,-1.2997 1.16142,-0.378 2.55938,-0.087 2.72359,0.5676 0.10226,0.4074 -0.0136,0.4339 -0.63005,0.1441 -0.89879,-0.4224 -1.89487,-0.2346 -3.91623,0.7387 -0.54974,0.2647 -1.02599,0.512 -1.05833,0.5496 -0.0606,0.07 -1.99171,1.0179 -2.41065,1.1829 -1.35228,0.5324 -4.68406,0.5195 -5.28579,-0.021 -0.0614,-0.055 -0.1842,-0.1003 -0.27279,-0.1003 -0.0886,0 -0.39923,-0.1638 -0.6903,-0.3641 -0.29107,-0.2003 -0.558,-0.3353 -0.59317,-0.3002 -0.10902,0.109 0.41449,0.8552 0.9212,1.3129 1.18865,1.0739 2.99638,1.4384 5.27833,1.0642 1.50419,-0.2467 3.68752,-0.8675 4.36606,-1.2416 0.26819,-0.1478 0.54533,0.1761 0.37783,0.4417 -0.20976,0.3325 -2.66558,1.0705 -4.59651,1.3812 -3.52915,0.5679 -6.08092,-0.4021 -6.71248,-2.5514 -0.11039,-0.3757 -0.25873,-0.6832 -0.32964,-0.6833 -0.0709,-10e-5 -0.29917,0.085 -0.50725,0.1886 -0.39228,0.1957 -1.66273,0.5263 -1.77138,0.461 -0.034,-0.02 -0.38851,-0.07 -0.78772,-0.1094 -0.39922,-0.04 -0.95484,-0.185 -1.23473,-0.3229 -0.75146,-0.3704 -1.59018,-0.6801 -2.53735,-0.9369 -0.2102,-0.057 -0.58062,-0.1571 -0.82315,-0.2223 -2.23299,-0.6009 -5.3676,-0.6431 -7.37894,-0.099 -1.68247,0.4548 -3.35341,1.5527 -4.17031,2.74 -0.5196,0.7552 -0.82737,1.3468 -0.82737,1.5903 0,0.1236 -0.0529,0.2574 -0.11759,0.2973 -0.0647,0.04 -0.1176,0.2032 -0.1176,0.3628 0,0.2716 0.0485,0.2489 0.76334,-0.3576 0.92281,-0.7828 1.85879,-1.271 3.0779,-1.6055 1.28058,-0.3513 2.99761,-0.2773 4.33145,0.1868 2.68951,0.9357 5.3893,2.7657 5.94534,4.03 0.0925,0.2102 0.20809,0.3821 0.25697,0.3821 0.0489,0 0.0889,0.08 0.0889,0.178 0,0.098 0.0551,0.2699 0.12236,0.3822 0.0673,0.1123 0.24099,0.5391 0.38597,0.9484 0.14498,0.4093 0.30845,0.7532 0.36326,0.7643 0.0548,0.011 0.18041,-0.2328 0.2791,-0.5421 0.0987,-0.3092 0.23736,-0.5422 0.30813,-0.5176 0.15532,0.054 0.13936,0.4453 -0.044,1.0799 -0.60975,2.1101 -0.55819,3.916 0.2283,7.9963 0.0623,0.3234 0.2218,1.3288 0.35437,2.2343 0.25311,1.7287 0.64451,4.0248 0.82189,4.8213 0.0576,0.2587 0.16363,0.8143 0.23559,1.2347 0.072,0.4204 0.17966,1.0289 0.23932,1.3523 0.0597,0.3234 0.13925,0.9187 0.17684,1.3229 0.0555,0.5963 0.0361,0.735 -0.10284,0.735 -0.1187,0 -0.19393,-0.1893 -0.24535,-0.6174 -0.0408,-0.3395 -0.12319,-0.829 -0.18311,-1.0877 -0.50905,-2.1975 -0.87672,-4.136 -1.18209,-6.2324 -0.34692,-2.3816 -0.47873,-3.2111 -0.71009,-4.4686 -0.20809,-1.1309 -0.36231,-2.3618 -0.44939,-3.5865 -0.0483,-0.6791 -0.0968,-1.0924 -0.10782,-0.9183 -0.011,0.174 -0.0729,0.3491 -0.13763,0.3891 -0.0647,0.04 -0.11759,0.1761 -0.11759,0.3025 0,0.1264 -0.0467,0.3217 -0.10388,0.4341 -0.0571,0.1123 -0.15736,0.3364 -0.22274,0.4981 -0.0654,0.1617 -0.88095,1.855 -1.81238,3.763 l -1.69352,3.469 0.0772,4.2921 c 0.0425,2.3607 0.0336,6.5146 -0.0198,9.231 -0.14311,7.2814 -0.14305,7.2864 0.0793,7.064 0.11129,-0.1113 0.38803,-0.1848 0.69581,-0.1848 0.5694,0 1.24684,-0.2577 2.09778,-0.7979 0.66215,-0.4204 1.3067,-0.5596 1.77214,-0.3826 0.18163,0.069 0.68747,0.482 1.12408,0.9176 0.43662,0.4356 0.93386,0.9167 1.10499,1.069 0.37462,0.3334 0.39009,0.5261 0.0681,0.8481 -0.18689,0.1868 -0.21231,0.2801 -0.11001,0.4033 0.0732,0.088 0.11641,0.3618 0.0961,0.608 -0.0289,0.3498 -0.11654,0.4993 -0.40098,0.6843 -0.3324,0.2162 -0.35914,0.28 -0.30819,0.7356 0.0341,0.3048 -0.001,0.5678 -0.0914,0.6761 -0.17197,0.2072 -0.62144,0.2311 -0.95816,0.051 -0.21124,-0.1131 -0.22337,-0.1022 -0.11412,0.1019 0.18374,0.3433 0.13843,1.5288 -0.0663,1.7335 -0.0949,0.095 -0.35451,0.1726 -0.57687,0.1726 -0.33841,0 -0.45681,-0.076 -0.72656,-0.466 -0.17724,-0.2562 -0.40428,-0.4679 -0.50453,-0.4703 -0.10024,0 -0.23254,-0.052 -0.29398,-0.1107 -0.0614,-0.058 -0.34984,-0.1358 -0.64088,-0.172 -0.29104,-0.036 -0.87312,-0.1202 -1.29352,-0.1867 -0.42039,-0.066 -1.10831,-0.1725 -1.5287,-0.2357 -2.1769,-0.3272 -2.72627,-0.4578 -2.9228,-0.6947 -0.13672,-0.1649 -0.1498,-0.1003 -0.0921,0.4546 0.037,0.3557 0.10016,1.0172 0.14032,1.4699 0.0559,0.6299 0.18552,1.0508 0.55232,1.7933 0.26362,0.5335 0.51998,0.9701 0.56969,0.9701 0.0497,0 0.12389,0.1055 0.16482,0.2345 0.0409,0.129 0.14041,0.3009 0.22107,0.3822 0.28365,0.2856 1.5604,2.2707 1.81484,2.8216 0.14155,0.3065 0.25737,0.7087 0.25737,0.8938 0,0.9523 -1.09433,3.195 -1.64418,3.3696 -0.12791,0.041 -0.31859,0.026 -0.42375,-0.033 -0.13906,-0.078 -0.26649,-0.032 -0.46739,0.1692 -0.3024,0.3024 -0.63178,0.3547 -0.85135,0.1351 z m 0.47549,-0.6527 c 0.22134,-0.2493 0.67702,-1.0506 1.02451,-1.8015 0.0769,-0.1662 0.14667,-0.5935 0.15501,-0.9496 0.0119,-0.5073 -0.0379,-0.7043 -0.2298,-0.9103 -0.42161,-0.4526 -1.03442,-1.7682 -0.8906,-1.912 0.18412,-0.1841 0.35248,-0.036 0.61555,0.5414 0.12778,0.2805 0.35928,0.661 0.51445,0.8455 0.36763,0.437 0.78132,1.1778 0.78132,1.3989 0,0.096 -0.0468,0.2663 -0.10388,0.3786 -0.0571,0.1123 -0.15545,0.3365 -0.21848,0.4982 -0.063,0.1617 -0.22797,0.5238 -0.3665,0.8048 -0.27047,0.5486 -0.31929,0.8415 -0.14028,0.8415 0.14067,0 0.71154,-0.7401 0.71154,-0.9225 0,-0.075 0.0529,-0.1359 0.1176,-0.1359 0.0647,0 0.11759,-0.095 0.11759,-0.2116 0,-0.1165 0.0602,-0.2719 0.13375,-0.3455 0.18992,-0.1899 0.18235,-1.3131 -0.0121,-1.7977 -0.0902,-0.2247 -0.31322,-0.6298 -0.4956,-0.9002 -0.18237,-0.2703 -0.33159,-0.5437 -0.33159,-0.6075 0,-0.064 -0.0426,-0.1337 -0.0946,-0.1552 -0.12302,-0.051 -1.32004,-1.7886 -1.69412,-2.4592 -0.77618,-1.3915 -0.99209,-3.4857 -0.85681,-8.3104 0.0503,-1.7947 0.10277,-5.4124 0.11656,-8.0393 0.0138,-2.6269 0.0596,-5.0361 0.10168,-5.3537 0.0883,-0.6656 0.52675,-2.0997 0.89762,-2.936 0.36848,-0.831 5.66299,-11.6616 6.24424,-12.7735 0.0587,-0.1123 0.10674,-0.3076 0.10674,-0.434 0,-0.1265 0.0471,-0.259 0.1046,-0.2945 0.24116,-0.1491 0.46628,-2.6004 0.25795,-2.8088 -0.07,-0.07 -0.12737,-0.2172 -0.12737,-0.327 0,-0.2206 -0.55704,-1.326 -0.96182,-1.9086 -0.3767,-0.5422 -1.13533,-1.2777 -1.74339,-1.6903 -0.49159,-0.3335 -0.79337,-0.5138 -1.7927,-1.0713 -0.49984,-0.2788 -2.13594,-0.9189 -2.73403,-1.0696 -2.33373,-0.5881 -4.89401,0.1357 -6.67766,1.8878 -1.02018,1.0021 -1.19891,0.9944 -1.08455,-0.047 0.0444,-0.4039 0.1586,-0.9724 0.25389,-1.2634 0.18207,-0.5561 0.74489,-1.7811 0.86446,-1.8815 0.0385,-0.032 0.19741,-0.244 0.35313,-0.4704 1.00001,-1.4537 2.99313,-2.5245 5.48816,-2.9485 0.81297,-0.1382 3.32872,-0.091 4.23334,0.08 0.35721,0.067 0.33681,0.033 -0.47102,-0.7942 -0.87697,-0.898 -1.44921,-1.5455 -3.2037,-3.6255 -1.19743,-1.4195 -2.05048,-2.2939 -2.63707,-2.7029 -0.22636,-0.1578 -0.43803,-0.3189 -0.47037,-0.3579 -0.14419,-0.1742 -1.17719,-0.5729 -1.67926,-0.6482 -0.80961,-0.1214 -0.9414,-0.042 -0.70849,0.4244 0.13513,0.2709 0.1574,0.4608 0.08,0.6822 -0.2351,0.6728 -1.49694,0.3499 -1.59582,-0.4083 -0.035,-0.2683 -0.0446,-0.2704 -0.41687,-0.089 -0.67111,0.327 -1.62783,1.3738 -2.04118,2.2335 -0.3296,0.6855 -0.39435,0.9649 -0.43653,1.8837 -0.0384,0.8371 -0.0847,1.0653 -0.20649,1.0186 -0.0955,-0.037 -0.17074,-0.2962 -0.19215,-0.6626 l -0.0352,-0.6022 -0.82315,-0.2131 c -3.33137,-0.8622 -7.38536,-0.811 -11.43588,0.1445 -0.82633,0.195 -1.35636,0.3302 -1.85208,0.4726 -0.25871,0.074 -0.61654,0.1633 -0.79519,0.1977 -0.17865,0.034 -0.35376,0.1095 -0.38912,0.1667 -0.0354,0.057 -0.2168,0.1041 -0.40319,0.1041 -0.1864,0 -0.37161,0.053 -0.41158,0.1176 -0.04,0.065 -0.1761,0.1176 -0.30252,0.1176 -0.12641,0 -0.32172,0.048 -0.43403,0.1061 -0.1123,0.058 -0.44231,0.1734 -0.73336,0.2556 -0.29104,0.082 -0.57943,0.1932 -0.64088,0.2467 -0.0614,0.053 -0.22283,0.097 -0.35865,0.097 -0.13582,0 -0.29722,0.042 -0.35866,0.094 -0.0614,0.052 -0.32338,0.1608 -0.58208,0.243 -0.57561,0.1827 -1.0011,0.3735 -1.23473,0.5535 -0.097,0.075 -0.35662,0.17 -0.5769,0.2116 -0.42139,0.08 -3.33519,1.4761 -4.25252,2.0381 -0.29551,0.1811 -0.7011,0.4305 -0.90132,0.5544 -0.28991,0.1794 -0.61926,0.615 -0.61926,0.8191 0,0.019 0.75688,0.5713 1.68195,1.2283 0.92507,0.657 1.78496,1.2876 1.91088,1.4012 0.12591,0.1137 0.50423,0.4345 0.8407,0.7128 l 0.61176,0.506 1.6225,-0.06 c 0.89237,-0.033 2.03182,-0.093 2.53212,-0.1331 0.80028,-0.064 0.95057,-0.044 1.25031,0.1698 0.37556,0.2674 0.83867,1.1426 0.83867,1.5849 0,0.3048 0.31337,0.6647 1.27199,1.4608 0.56062,0.4656 1.40439,1.5575 1.58512,2.0513 0.0957,0.2613 0.26052,0.2599 0.65252,-0.01 0.95898,-0.6501 2.37035,-1.1807 4.13389,-1.5542 0.75047,-0.1589 4.66943,-0.089 5.87963,0.1055 1.2442,0.1996 2.13431,0.3512 2.82222,0.4807 0.35572,0.067 0.87287,0.1551 1.14923,0.1959 0.27636,0.041 0.53084,0.12 0.56551,0.1761 0.0347,0.056 0.18971,0.102 0.34454,0.102 0.15483,0 0.40306,0.047 0.55163,0.1053 0.14856,0.058 0.50824,0.173 0.79928,0.2557 0.29104,0.083 0.57944,0.194 0.64088,0.2474 0.0614,0.053 0.19373,0.098 0.29398,0.099 0.10025,0 0.71143,0.2618 1.35819,0.579 0.64676,0.3173 1.21515,0.539 1.26309,0.4927 0.0479,-0.046 0.13389,-0.32 0.191,-0.6084 0.14585,-0.7364 0.3475,-1.198 0.48597,-1.1124 0.14634,0.09 0.15428,0.8951 0.0124,1.2587 -0.058,0.1485 -0.17161,0.6405 -0.25255,1.0932 -0.0809,0.4528 -0.18721,0.929 -0.23617,1.0584 -0.049,0.1293 -0.15092,0.5527 -0.22659,0.9407 -0.0757,0.3881 -0.18449,0.8908 -0.24184,1.1171 -0.19878,0.7848 -1.26833,6.5812 -1.6382,8.8783 -0.38872,2.4142 -0.68878,4.4176 -0.74853,4.9977 -0.0233,0.2263 -0.13672,0.9531 -0.25202,1.6151 -0.19913,1.1433 -0.19966,1.2875 -0.0105,2.881 0.1095,0.9226 0.24812,1.9685 0.30803,2.3242 0.19124,1.1354 0.34401,2.151 0.4599,3.0574 0.062,0.4851 0.17133,1.3318 0.24292,1.8815 0.0716,0.5498 0.20398,1.6346 0.2942,2.4107 0.0902,0.7761 0.22455,1.9138 0.29851,2.5282 0.24172,2.008 -0.0398,4.2729 -0.6074,4.8877 -0.12329,0.1335 -0.22416,0.2751 -0.22416,0.3147 0,0.04 -0.26458,0.5031 -0.58796,1.03 -0.32338,0.5269 -0.58797,1.0071 -0.58797,1.067 0,0.06 -0.0397,0.1094 -0.0882,0.1099 -0.13878,0 -0.38256,0.603 -0.37844,0.9338 0.004,0.2986 0.23761,0.7116 0.40302,0.7116 0.1406,0 0.76882,-0.7166 0.97101,-1.1076 0.20922,-0.4046 1.38357,-1.931 1.65551,-2.1519 0.24942,-0.2025 0.38388,-0.076 0.35276,0.3328 -0.0219,0.2873 0.072,0.4349 0.52083,0.8186 0.55454,0.474 0.91443,1.0303 0.91443,1.4136 0,0.1156 0.0529,0.2429 0.11759,0.2829 0.14671,0.091 0.15572,1.1477 0.0111,1.2994 -0.42611,0.4469 -0.79787,1.6992 -0.50443,1.6992 0.13927,0 0.87734,-0.7099 1.16143,-1.1171 0.13536,-0.1941 0.3126,-0.5751 0.39387,-0.8468 0.17578,-0.5877 0.0303,-1.2472 -0.49669,-2.252 -0.32047,-0.611 -0.41366,-1.0706 -0.25021,-1.234 0.10657,-0.1066 0.8859,1.2495 1.19899,2.0863 0.40328,1.0779 0.31282,1.6535 -0.40912,2.6035 -0.25295,0.3328 -0.26057,0.3884 -0.11251,0.819 0.0873,0.2541 0.21445,0.4806 0.28243,0.5032 0.2133,0.071 1.42979,-2.047 1.42979,-2.4895 0,-0.1466 -0.15367,-0.5005 -0.3415,-0.7865 -0.3452,-0.5256 -0.98447,-2.3885 -0.86173,-2.5113 0.18797,-0.1879 0.35112,0 0.49119,0.5509 0.18235,0.7236 0.52662,1.455 0.85254,1.8111 0.42397,0.4633 0.40478,1.0759 -0.0682,2.1771 -0.54412,1.2669 -0.56502,1.8907 -0.0437,1.3034 z m 7.47377,-10.401 c 0.22039,-0.2204 0.16609,-0.6639 -0.10885,-0.889 -0.13748,-0.1125 -0.36238,-0.3116 -0.49977,-0.4424 -0.48819,-0.4646 -0.96961,-0.7427 -1.4297,-0.8259 -1.18762,-0.2149 -1.2006,-0.731 -0.0229,-0.9121 0.57136,-0.088 1.04811,0.084 1.78514,0.6428 0.55321,0.4196 1.27946,0.6863 1.43769,0.5281 0.0378,-0.038 -0.32183,-0.4415 -0.79923,-0.8971 l -0.868,-0.8283 -0.58796,0.054 c -0.32338,0.03 -0.74526,0.07 -0.93751,0.089 -0.47111,0.047 -0.53971,-0.2892 -0.1156,-0.5671 0.23008,-0.1507 0.553,-0.2051 1.21252,-0.2039 0.97296,0 1.40192,0.1554 1.88956,0.6774 0.15679,0.1678 0.37857,0.3051 0.49283,0.3051 0.40697,0 0.3403,-0.2315 -0.15622,-0.5424 -0.27725,-0.1736 -0.65217,-0.4388 -0.83313,-0.5893 -0.76151,-0.6335 -1.15503,-0.707 -2.40356,-0.4493 -0.48241,0.1 -0.75417,3e-4 -0.66135,-0.2416 0.18218,-0.4748 1.72984,-0.6971 2.52703,-0.3631 0.2181,0.091 0.55529,0.3071 0.74932,0.4793 0.45366,0.4027 0.87815,0.6924 0.9298,0.6346 0.0223,-0.025 0.074,-0.1547 0.11503,-0.2884 0.0595,-0.1941 -0.11289,-0.4255 -0.85383,-1.1466 -0.8075,-0.7858 -0.98327,-0.9034 -1.35027,-0.9034 -0.2418,0 -0.63662,0.1277 -0.92485,0.2992 -0.2766,0.1645 -0.59552,0.3294 -0.70871,0.3665 -0.11318,0.037 -0.20578,0.1141 -0.20578,0.1712 0,0.057 -0.10271,0.1039 -0.22825,0.1039 -0.12553,0 -0.26095,0.053 -0.30092,0.1176 -0.04,0.065 -0.20894,0.1175 -0.37547,0.1175 -0.16654,0 -0.51379,0.063 -0.77166,0.1405 -0.41858,0.1254 -0.48625,0.1167 -0.631,-0.081 -0.15644,-0.214 -0.16215,-0.213 -0.16215,0.029 0,0.278 -0.18011,0.4489 -0.28839,0.2737 -0.0382,-0.062 -0.0685,-4.7061 -0.0673,-10.3207 l 0.002,-10.2083 -0.42474,0.882 c -0.40652,0.8441 -0.7245,1.5242 -1.37443,2.9398 -1.19051,2.593 -1.16897,2.459 -1.20011,7.4671 -0.0149,2.393 -0.0585,4.7743 -0.097,5.2917 -0.24865,3.3446 -0.20063,7.3622 0.0852,7.1256 0.0799,-0.066 0.33669,-0.064 0.65997,0.01 1.22817,0.2663 2.52177,0.4804 4.11574,0.6814 1.86189,0.2348 1.86721,0.2367 2.45181,0.8433 0.57822,0.6001 0.70796,0.6602 0.93486,0.4333 z m -100.31854,-1.0493 c 2.14801,-0.1223 3.1662,-0.2012 5.85641,-0.4537 0.71144,-0.067 2.08727,-0.17 3.05741,-0.2296 2.96455,-0.1818 3.87162,-0.276 4.01235,-0.4168 0.47918,-0.4791 0.7613,-1.4693 1.05578,-3.7052 0.23602,-1.7922 0.6405,-3.0492 1.5519,-4.8228 2.09737,-4.0817 3.52612,-6.2508 5.38333,-8.1727 1.26369,-1.3077 2.40099,-2.576 2.95879,-3.2996 0.44084,-0.5719 1.32083,-2.2639 1.32293,-2.5437 8.2e-4,-0.1094 0.0544,-0.2316 0.11908,-0.2715 0.0647,-0.04 0.1176,-0.1987 0.1176,-0.3528 0,-0.1541 0.0473,-0.3094 0.10517,-0.3451 0.0578,-0.036 0.13453,-0.2638 0.17041,-0.5067 0.0359,-0.243 0.12148,-0.7328 0.19023,-1.0885 0.14491,-0.7499 0.29597,-1.8336 0.47537,-3.4102 0.0699,-0.6144 0.16512,-1.3552 0.21159,-1.6463 l 0.0845,-0.5291 1.23346,0.059 c 5.01396,0.239 11.33726,-0.1763 19.57791,-1.2857 2.58363,-0.3478 2.55496,-0.3474 2.95091,-0.048 0.20013,0.1514 0.45221,0.2752 0.56016,0.2752 0.10796,0 0.28817,0.048 0.40048,0.1062 0.1123,0.058 0.44231,0.1702 0.73336,0.2486 0.29104,0.078 0.635,0.1849 0.76435,0.2368 0.24231,0.097 0.50234,0.1709 1.26412,0.3583 0.24253,0.06 0.66587,0.1651 0.94074,0.2343 2.11483,0.5323 5.19879,0.5826 6.11322,0.1 0.1123,-0.059 0.285,-0.1078 0.38377,-0.1078 0.0988,0 0.27146,-0.047 0.38377,-0.1039 0.11231,-0.057 0.34971,-0.1719 0.52757,-0.2551 0.17786,-0.083 0.32338,-0.1848 0.32338,-0.2259 0,-0.2119 -0.90516,-0.9944 -2.04138,-1.7647 -1.59197,-1.0793 -2.67783,-2.1151 -3.12957,-2.9851 -0.66006,-1.2713 -2.43445,-2.1276 -6.52951,-3.1514 -1.3472,-0.3368 -1.82782,-0.477 -2.35185,-0.6862 -0.12936,-0.052 -0.4204,-0.1614 -0.64676,-0.244 -1.17752,-0.4297 -3.7668,-1.6995 -4.79509,-2.3517 -0.29844,-0.1892 -0.61652,-0.3441 -0.70684,-0.3441 -0.0903,0 -0.29593,-0.1036 -0.45692,-0.2302 l -0.2927,-0.2303 -0.78418,0.3979 c -0.89825,0.4557 -2.39379,1.0635 -3.25362,1.3224 -0.32338,0.097 -0.6938,0.2201 -0.82315,0.2729 -0.12935,0.053 -0.39394,0.1287 -0.58797,0.1688 -0.19402,0.04 -0.56444,0.1264 -0.82314,0.1917 -0.45005,0.1136 -0.78667,0.1906 -2.02848,0.4641 -0.70027,0.1542 -1.47816,0.303 -2.08726,0.3994 -0.25871,0.041 -0.73496,0.1224 -1.05834,0.1811 -0.32338,0.059 -0.98484,0.1644 -1.46991,0.2351 -3.08209,0.449 -3.80534,0.5926 -5.1737,1.0271 -1.54735,0.4913 -2.52793,1.465 -3.17163,3.1496 -0.0494,0.1293 -0.14356,0.3674 -0.20919,0.5291 -0.0656,0.1617 -0.23106,0.6644 -0.36762,1.1172 -1.07753,3.5721 -2.96076,9.3711 -3.09131,9.5191 -0.0542,0.061 -0.0986,0.2303 -0.0986,0.3752 0,0.145 -0.0424,0.2898 -0.0943,0.3218 -0.0519,0.032 -0.16818,0.3296 -0.25847,0.6612 -0.0903,0.3315 -0.2066,0.6291 -0.25847,0.6611 -0.0519,0.032 -0.0943,0.1769 -0.0943,0.3218 0,0.145 -0.0421,0.3138 -0.0936,0.3753 -0.0515,0.061 -0.16081,0.3233 -0.24296,0.582 -0.0822,0.2588 -0.19613,0.5763 -0.25327,0.7056 -0.0571,0.1294 -0.18214,0.4733 -0.27777,0.7644 -0.0956,0.291 -0.47337,1.3229 -0.83941,2.293 -0.36604,0.9702 -0.81328,2.1608 -0.99388,2.6458 -0.35496,0.9535 -1.44053,3.6828 -1.73057,4.351 -0.0983,0.2263 -0.22617,0.5306 -0.28425,0.6761 -0.0581,0.1455 -0.15325,0.3837 -0.21148,0.5292 -0.0582,0.1455 -0.21698,0.5154 -0.35278,0.8219 -0.13579,0.3065 -0.2469,0.5849 -0.2469,0.6186 0,0.034 -0.11236,0.3004 -0.2497,0.5926 -0.18992,0.404 -0.29918,0.5155 -0.45644,0.4656 -0.11927,-0.038 -0.23357,0 -0.27014,0.099 -0.0695,0.1811 -2.38081,1.9585 -2.54673,1.9585 -0.0565,0 -0.1204,0.043 -0.14196,0.096 -0.0216,0.053 -0.38315,0.3271 -0.80355,0.6092 -0.42039,0.282 -0.78199,0.5562 -0.80355,0.6092 -0.0216,0.053 -0.0897,0.096 -0.1515,0.096 -0.0618,0 -0.57329,0.3086 -1.13673,0.6857 -2.90438,1.944 -3.62672,2.2541 -5.24992,2.2541 -1.34708,0 -1.47774,0.064 -1.47774,0.7193 0,0.3983 0.16435,0.6153 0.376,0.4965 0.0451,-0.025 1.07698,-0.1027 2.29305,-0.1719 z m 43.60363,-1.7472 c 9.11287,-0.1206 12.74722,-0.2407 16.40417,-0.5421 3.63446,-0.2996 3.66108,-0.3032 3.73053,-0.5069 0.0352,-0.1034 0.21492,-0.5054 0.39931,-0.8935 0.4144,-0.8721 0.69145,-2.1679 0.69145,-3.2338 0,-1.6562 -0.50394,-3.1448 -1.77016,-5.229 -0.97596,-1.6065 -1.3924,-2.393 -1.93224,-3.6492 -1.24512,-2.8975 -1.91023,-4.3481 -2.57989,-5.6267 -0.4116,-0.7859 -0.87303,-1.667 -1.0254,-1.9581 -0.15236,-0.291 -0.30349,-0.5556 -0.33582,-0.5879 -0.0323,-0.032 -0.16981,-0.2705 -0.30549,-0.5292 -0.13568,-0.2587 -0.37868,-0.7085 -0.54,-0.9995 -1.35564,-2.4458 -2.37591,-4.4393 -2.65539,-5.1885 -0.25335,-0.6792 -0.29835,-0.7176 -1.08523,-0.9264 -0.29105,-0.077 -0.62106,-0.1882 -0.73336,-0.2466 -0.11231,-0.058 -0.30762,-0.1061 -0.43403,-0.1061 -0.12642,0 -0.26255,-0.053 -0.30252,-0.1176 -0.04,-0.065 -0.18862,-0.1178 -0.33032,-0.118 -0.14171,-3e-4 -0.43877,-0.1109 -0.66015,-0.2459 -0.29616,-0.1805 -0.4981,-0.2237 -0.76435,-0.1635 -0.19902,0.045 -0.73227,0.1261 -1.185,0.1801 -0.45273,0.054 -1.25971,0.1543 -1.79328,0.2228 -4.37541,0.5615 -6.32727,0.7654 -9.00346,0.9403 -0.95816,0.063 -1.84352,0.1461 -1.96746,0.1854 -0.20055,0.064 -0.13313,0.2099 0.61253,1.3285 1.53678,2.3053 2.69305,3.6396 6.85268,7.9079 2.70972,2.7806 3.92807,4.1012 5.07414,5.5003 0.12367,0.151 0.3227,0.3891 0.44229,0.5292 0.1196,0.14 0.38418,0.4632 0.58797,0.7182 0.20378,0.2549 0.58594,0.6782 0.84923,0.9407 0.26329,0.2625 0.50882,0.5566 0.54562,0.6536 0.0804,0.2119 1.69401,2.2338 2.27036,2.8448 0.22521,0.2387 0.40948,0.4901 0.40948,0.5585 0,0.069 0.0529,0.1245 0.11759,0.1245 0.0647,0 0.11759,0.075 0.11759,0.1666 0,0.092 0.0397,0.1842 0.0882,0.2058 0.0485,0.021 0.31675,0.3155 0.59609,0.6532 0.37446,0.4526 0.49805,0.6974 0.47037,0.9316 -0.061,0.5168 -0.27601,0.4476 -0.85551,-0.2755 -0.94575,-1.1801 -1.52009,-1.8151 -1.75565,-1.9412 -0.35875,-0.192 -1.53618,-0.406 -3.08359,-0.5605 -1.89546,-0.1893 -4.3878,0.017 -7.04278,0.5828 -0.32338,0.069 -0.78769,0.1576 -1.0318,0.1971 -0.24411,0.04 -0.47213,0.1176 -0.50671,0.1736 -0.0346,0.056 -0.18955,0.1017 -0.34438,0.1017 -0.15483,0 -0.40306,0.047 -0.55162,0.1047 -0.14857,0.058 -0.66699,0.2219 -1.15206,0.3649 -0.48507,0.1431 -0.97383,0.3076 -1.08614,0.3656 -0.1123,0.058 -0.30016,0.1055 -0.41745,0.1055 -0.1173,0 -0.26354,0.042 -0.32498,0.094 -0.0614,0.052 -0.32338,0.1608 -0.58208,0.243 -0.25871,0.082 -0.57621,0.194 -0.70556,0.2487 -0.12935,0.055 -1.5581,0.6096 -3.175,1.2334 -1.6169,0.6237 -3.0317,1.184 -3.144,1.2452 -0.11231,0.061 -0.30762,0.1111 -0.43404,0.1111 -0.12641,0 -0.26254,0.053 -0.30251,0.1176 -0.04,0.065 -0.21772,0.1176 -0.395,0.1176 -0.17727,0 -0.37259,0.047 -0.43403,0.1056 -0.27786,0.2625 -3.4898,0.4581 -4.19806,0.2557 -0.24253,-0.069 -0.66265,-0.1908 -0.93359,-0.2699 -0.66943,-0.1953 -1.67188,-0.8611 -2.65492,-1.7632 -0.82434,-0.7565 -1.54463,-1.1065 -1.98483,-0.9645 -0.11995,0.039 -0.70618,0.3159 -1.30274,0.616 -1.1445,0.5757 -1.17457,0.6107 -1.43283,1.6675 -0.10709,0.4382 -0.71632,3.8948 -0.71632,4.0642 0,0.099 20.80523,0.054 29.69213,-0.064 z m -17.93287,-3.9407 c 1.99231,-0.3332 2.49271,-0.5026 7.81991,-2.6467 0.46299,-0.1864 1.53708,-0.5738 1.99907,-0.7212 0.25871,-0.082 0.52064,-0.1921 0.58209,-0.2436 0.0614,-0.051 0.23029,-0.093 0.37523,-0.093 0.14494,0 0.29623,-0.053 0.3362,-0.1176 0.04,-0.065 0.19872,-0.1176 0.35278,-0.1176 0.15406,0 0.31281,-0.053 0.35278,-0.1176 0.04,-0.065 0.19872,-0.1176 0.35278,-0.1176 0.15405,0 0.3128,-0.053 0.35277,-0.1176 0.04,-0.065 0.20257,-0.1176 0.36132,-0.1176 0.15875,0 0.38052,-0.05 0.49282,-0.1107 0.20767,-0.1127 2.00527,-0.5561 3.57177,-0.8811 2.02245,-0.4197 5.48755,-0.5349 7.38734,-0.2458 0.61177,0.093 1.12931,0.1523 1.15009,0.1315 0.10208,-0.1021 -1.4759,-1.9556 -1.73324,-2.0359 -0.45346,-0.1416 -4.24324,-0.1017 -5.82084,0.061 -1.54677,0.1597 -2.65417,0.3132 -3.46898,0.4808 -0.29104,0.06 -0.82021,0.1637 -1.17593,0.2308 -1.44424,0.2724 -5.57477,1.4691 -6.52638,1.8908 -0.12936,0.057 -0.7379,0.2987 -1.35232,0.5365 -0.61442,0.2377 -1.30234,0.5125 -1.5287,0.6106 -0.42604,0.1847 -0.82872,0.3527 -1.23472,0.5152 -0.35067,0.1404 -1.58057,0.5312 -2.11667,0.6725 -0.25871,0.068 -0.68818,0.1812 -0.95439,0.251 -0.2662,0.07 -0.95487,0.1269 -1.53036,0.1269 -1.77946,0 -2.8238,-0.568 -3.21307,-1.7475 -0.26388,-0.7996 -0.84986,-1.3116 -1.497,-1.3082 -0.36347,0 -0.96005,0.1932 -1.50703,0.4832 -1.24912,0.6621 -1.28808,0.6969 -1.6757,1.4956 -0.47261,0.9738 -0.49385,1.1771 -0.0957,0.9162 0.66095,-0.4331 1.09377,-0.6285 1.55357,-0.7015 0.89217,-0.1417 1.20433,10e-5 2.15809,0.9807 1.27658,1.3125 2.03963,1.7303 3.76297,2.0605 1.01549,0.1946 1.29182,0.1943 2.46944,0 z m -0.41157,-3.133 c 0.32338,-0.066 0.75047,-0.1686 0.94909,-0.2283 0.19862,-0.06 0.47331,-0.1086 0.61042,-0.1086 0.13711,0 0.282,-0.053 0.32197,-0.1175 0.04,-0.065 0.19872,-0.1176 0.35278,-0.1176 0.15405,0 0.3128,-0.053 0.35277,-0.1176 0.04,-0.065 0.17611,-0.1176 0.30252,-0.1176 0.12641,0 0.32173,-0.047 0.43403,-0.1039 0.11231,-0.057 0.36295,-0.1691 0.55697,-0.2489 0.19403,-0.08 0.44467,-0.1918 0.55697,-0.2489 0.11231,-0.057 0.25841,-0.1039 0.32466,-0.1039 0.0663,0 0.34479,-0.101 0.61896,-0.2245 1.82057,-0.82 5.36053,-1.944 7.84802,-2.4919 2.95191,-0.6503 4.27864,-0.8057 7.74191,-0.9073 l 2.74422,-0.08 -0.25559,-0.294 c -0.14057,-0.1617 -0.47589,-0.5541 -0.74514,-0.872 -0.26926,-0.3179 -0.54248,-0.6361 -0.60715,-0.7071 -0.0647,-0.071 -0.48772,-0.5517 -0.94008,-1.0683 -0.75131,-0.8579 -1.74555,-1.9123 -3.82242,-4.0538 -4.29258,-4.426 -5.20673,-5.4887 -6.95243,-8.0822 -0.55807,-0.8291 -0.80869,-1.3119 -0.80869,-1.5581 v -0.3567 l -3.76296,-0.018 c -2.06963,-0.01 -3.82911,-0.023 -3.90995,-0.029 -0.14792,-0.012 -0.19947,0.2712 -0.4369,2.3989 -0.22667,2.0311 -0.60102,4.2059 -0.81979,4.7625 -0.0508,0.1293 -0.15654,0.4468 -0.23488,0.7055 -0.2623,0.8662 -1.06592,2.3474 -1.71649,3.1637 -0.66039,0.8287 -1.22258,1.4596 -2.68783,3.0166 -1.5715,1.6699 -2.18514,2.4728 -3.54525,4.6382 -0.51741,0.8238 -0.87761,1.4534 -0.87761,1.534 0,0.031 0.32198,-0.1056 0.71551,-0.3043 0.91557,-0.4621 1.6728,-0.5533 2.21422,-0.2664 0.37632,0.1993 0.55523,0.4674 1.08361,1.6238 0.30454,0.6665 0.87387,1.0703 1.6311,1.157 0.56536,0.065 2.05196,-0.029 2.76343,-0.1734 z m 39.28852,-22.1586 c 0.22304,-0.8887 -0.31776,-2.2519 -1.12973,-2.8477 -0.77096,-0.5658 -1.07265,-0.8639 -1.02349,-1.0116 0.0913,-0.2742 0.40026,-0.1743 1.05407,0.3408 0.80009,0.6302 1.31019,1.2981 1.58733,2.0784 0.20015,0.5636 0.35297,0.6602 0.78312,0.4951 0.58303,-0.2237 -0.18708,-1.9552 -1.42833,-3.2113 -0.47393,-0.4797 -0.8426,-0.9294 -0.81926,-0.9996 0.21057,-0.6325 1.97671,1.1339 2.44635,2.4467 0.26776,0.7485 0.84486,0.9482 1.24763,0.4318 0.44933,-0.5762 -0.12306,-1.7057 -1.57606,-3.1101 -1.00951,-0.9757 -1.26197,-1.3665 -0.99094,-1.534 0.10551,-0.065 1.09414,0.779 1.90742,1.6289 0.41627,0.435 0.70353,0.9216 1.06409,1.8025 0.1757,0.4293 0.24153,0.4592 0.45247,0.205 0.36496,-0.4398 -0.24023,-2.5434 -0.96629,-3.3588 -0.36103,-0.4055 -1.49364,-1.1595 -2.51015,-1.671 -0.8764,-0.441 -1.17967,-0.7005 -1.05475,-0.9026 0.12466,-0.2018 0.43833,-0.138 1.09091,0.2218 0.69491,0.3832 0.76243,0.3022 0.36649,-0.4396 -0.35059,-0.6568 -0.67856,-0.8114 -1.34394,-0.6334 -0.3093,0.083 -1.34469,0.1404 -2.51852,0.1404 h -1.9933 l -0.44506,-0.3819 c -0.24479,-0.2101 -0.47152,-0.4104 -0.50386,-0.445 -0.24492,-0.2627 -2.95183,-2.1745 -5.84528,-4.1285 -1.90312,-1.2851 -3.87722,-2.6541 -4.38689,-3.0421 -0.50966,-0.388 -1.06176,-0.7568 -1.22688,-0.8195 -0.50205,-0.1909 -0.41405,-0.849 0.30395,-2.2731 0.6766,-1.342 0.71595,-1.4315 0.99137,-2.2566 0.40008,-1.1985 0.90717,-3.3153 1.16908,-4.8801 0.0379,-0.2264 0.11573,-0.6232 0.17299,-0.882 0.0573,-0.2587 0.16754,-0.8143 0.24508,-1.2347 0.18687,-1.0131 0.79728,-3.371 0.99665,-3.8499 0.1111,-0.2669 0.21337,-0.36 0.34149,-0.3108 0.24412,0.094 0.23048,0.4469 -0.0478,1.2388 -0.1269,0.361 -0.35955,1.2059 -0.517,1.8774 -0.2608,1.1123 -0.34519,1.5179 -0.65772,3.1612 -0.36164,1.9015 -0.49575,2.5061 -0.71918,3.2421 -0.0603,0.1987 -0.10962,0.4733 -0.10962,0.6105 0,0.1371 -0.0529,0.282 -0.1176,0.3219 -0.0647,0.04 -0.11759,0.2252 -0.11759,0.4116 0,0.1864 -0.0529,0.3716 -0.11759,0.4116 -0.0647,0.04 -0.1176,0.1761 -0.1176,0.3025 0,0.1264 -0.0483,0.3217 -0.10737,0.434 -0.0591,0.1123 -0.25242,0.5217 -0.42969,0.9098 -0.17728,0.388 -0.47235,1.0072 -0.65571,1.3758 l -0.33338,0.6703 1.32164,0.9878 c 0.72691,0.5434 1.9831,1.4278 2.79155,1.9654 0.80845,0.5377 1.48755,1.0218 1.50911,1.0759 0.0216,0.054 0.10418,0.098 0.18361,0.098 0.0794,0 0.24858,0.093 0.3759,0.2058 0.12731,0.1132 0.39473,0.2971 0.59425,0.4088 l 0.36278,0.2031 0.0736,-0.7323 c 0.0405,-0.4027 0.12739,-1.2084 0.19314,-1.7905 0.18629,-1.6492 0.33165,-3.3169 0.52277,-5.9972 0.67129,-9.4148 0.55589,-12.6187 -0.66141,-18.3624 -0.1138,-0.537 -0.0999,-0.6641 0.12179,-1.1172 0.14549,-0.2972 0.43515,-0.6298 0.69219,-0.7946 0.2431,-0.1559 0.76511,-0.5485 1.16003,-0.8725 l 0.71804,-0.5891 0.072,-1.3431 c 0.0903,-1.6856 0.32813,-2.4884 1.17003,-3.9501 0.31459,-0.5462 0.31964,-0.5789 0.11801,-0.7644 -0.50912,-0.4681 -0.5903,-1.0109 -0.32795,-2.1927 0.24301,-1.0948 1.06308,-1.9232 2.00933,-2.0299 0.66864,-0.075 1.01981,0.1541 1.21059,0.7908 0.1244,0.4152 0.117,0.5791 -0.0486,1.0778 -0.20892,0.629 -0.20656,0.6547 0.0638,0.6932 0.37239,0.053 0.54528,-0.024 1.03493,-0.4597 0.56226,-0.5005 1.14507,-0.7189 1.91853,-0.7191 0.28354,-10e-5 1.06758,-0.1365 1.74231,-0.3031 1.60878,-0.3972 1.86621,-0.3477 2.47449,0.4757 0.60462,0.8184 1.44759,1.709 1.61767,1.709 0.0734,0 0.41341,0.2727 0.7556,0.606 l 0.62216,0.606 0.80783,-0.8706 c 1.19728,-1.2903 1.25516,-1.408 1.25567,-2.554 2.5e-4,-0.5378 -0.059,-1.089 -0.13166,-1.2247 -0.0727,-0.1358 -0.54493,-0.6553 -1.04949,-1.1544 -0.68772,-0.6804 -0.9551,-1.0362 -1.06809,-1.4212 -0.0829,-0.2824 -0.29854,-0.7672 -0.47922,-1.0772 -0.18068,-0.3101 -0.3285,-0.5944 -0.3285,-0.6319 0,-0.1752 -1.18379,-1.7101 -1.87481,-2.4309 -0.94798,-0.9888 -2.05762,-1.7391 -3.05411,-2.0651 -0.58547,-0.1916 -1.05156,-0.2468 -2.08173,-0.2468 -0.73005,0 -1.44891,0.047 -1.59748,0.1053 -0.14856,0.058 -0.50824,0.1738 -0.79928,0.2574 -1.04085,0.299 -2.52983,1.0972 -3.74177,2.0058 -0.40874,0.3064 -0.78051,0.5736 -0.82616,0.5936 -0.15604,0.069 -1.38354,2.0343 -1.74839,2.7999 -0.68535,1.4382 -0.68252,1.4213 -0.65178,3.8743 0.0185,1.4768 -0.0191,2.4347 -0.10627,2.7046 -0.55046,1.7047 -1.51443,2.4906 -5.5506,4.5252 -2.92694,1.4754 -3.93984,2.153 -5.36722,3.5904 -1.52612,1.537 -3.03617,3.9262 -3.53322,5.5902 -0.0773,0.2587 -0.18692,0.5623 -0.24366,0.6746 -0.0567,0.1123 -0.10315,0.3407 -0.10315,0.5075 0,0.1668 -0.061,0.4174 -0.13566,0.5568 -0.16211,0.3029 -0.21533,2.1363 -0.32503,11.1963 -0.0446,3.6865 -0.12125,6.8351 -0.17025,6.9968 -0.049,0.1617 -0.1453,0.5321 -0.21399,0.8231 -0.24932,1.0564 -1.18037,3.3911 -2.11028,5.2917 -0.18862,0.3855 -0.1888,0.4137 -0.003,0.4456 0.52095,0.089 5.07459,-1.6633 5.07459,-1.953 0,-0.061 -0.23232,-0.2896 -0.51627,-0.5074 -0.28395,-0.2177 -0.72888,-0.6836 -0.98874,-1.0352 -0.57645,-0.7801 -0.66645,-1.3373 -0.48553,-3.006 0.0701,-0.6468 0.17505,-1.758 0.23318,-2.4695 0.12312,-1.5069 0.28456,-3.0257 0.46246,-4.3509 0.42199,-3.1434 0.58048,-4.7564 0.69904,-7.1144 0.0602,-1.1965 0.14423,-2.5458 0.18683,-2.9986 0.19469,-2.0694 0.85018,-4.6449 1.18219,-4.6449 0.31863,0 0.32207,0.3635 0.0121,1.2748 -0.62315,1.8317 -0.78539,3.1625 -1.02729,8.4266 -0.11601,2.5247 -0.18049,3.1953 -0.45792,4.7625 -0.29366,1.6589 -0.52362,3.5856 -0.65263,5.4681 -0.0355,0.5174 -0.12453,1.2979 -0.19792,1.7344 -0.23508,1.3981 0.10602,2.0106 2.01711,3.6216 0.4183,0.3527 0.89455,0.7632 1.05833,0.9123 0.67182,0.6117 3.23678,1.9765 5.14848,2.7395 0.67242,0.2684 0.92618,0.3758 1.11554,0.4721 0.1123,0.057 0.30762,0.1039 0.43403,0.1039 0.12641,0 0.26254,0.053 0.30252,0.1176 0.04,0.065 0.19872,0.1176 0.35277,0.1176 0.15406,0 0.31281,0.053 0.35278,0.1175 0.04,0.065 0.20257,0.1176 0.36132,0.1176 0.15875,0 0.38052,0.047 0.49282,0.1049 0.11231,0.058 0.7069,0.221 1.32133,0.363 2.00109,0.4626 3.1809,0.9192 4.14541,1.6045 0.30736,0.2184 0.60914,0.3971 0.67064,0.3971 0.0615,0 0.19905,0.1984 0.3057,0.441 0.38746,0.8812 0.46165,0.9931 1.04587,1.5773 0.59915,0.5991 1.91109,1.5642 2.887,2.1237 0.85663,0.4912 1.44945,1.1518 1.62158,1.807 0.27603,1.0508 0.41165,1.399 0.60138,1.5438 0.31206,0.2381 0.58852,0.1757 0.67066,-0.1516 z m -9.91877,-50.8706 c -0.50611,-0.2625 -0.73405,-0.6168 -0.5288,-0.822 0.0722,-0.072 0.26864,-0.025 0.54443,0.1294 0.36893,0.2072 0.63558,0.2424 1.83903,0.2424 1.33639,0 1.40753,0.012 1.40753,0.2388 0,0.3045 -0.0491,0.3173 -1.5287,0.4006 -1.12051,0.063 -1.28086,0.045 -1.73349,-0.1892 z m -27.2786,40.8763 c 0.66546,-0.08 0.67336,-0.085 0.36873,-0.2428 -0.17122,-0.089 -0.4005,-0.1615 -0.50953,-0.1615 -0.10902,0 -0.25499,-0.057 -0.32438,-0.1262 -0.0694,-0.069 -0.30071,-0.1091 -0.51406,-0.088 -0.2985,0.029 -0.4384,0.1287 -0.60702,0.4318 l -0.21912,0.3938 0.56267,-0.063 c 0.30947,-0.034 0.86869,-0.099 1.24271,-0.1441 z m 28.24554,-6.2912 c 0.4324,-0.2627 1.52241,-0.8316 2.42225,-1.2641 0.89984,-0.4326 1.63512,-0.813 1.63396,-0.8453 -10e-4,-0.032 -0.38463,-0.4616 -0.85214,-0.9538 -0.8966,-0.9441 -1.05152,-1.1179 -2.08474,-2.3389 -0.35572,-0.4203 -0.67505,-0.7907 -0.70961,-0.8231 -0.0346,-0.032 -0.17797,-0.2087 -0.31867,-0.392 l -0.25581,-0.3332 -0.0552,0.2744 c -0.0304,0.1509 -0.1144,1.0682 -0.18671,2.0383 -0.13171,1.7671 -0.26537,3.1738 -0.42182,4.4392 -0.046,0.3718 -0.0553,0.6761 -0.0206,0.6761 0.0346,0 0.41675,-0.2149 0.84916,-0.4776 z m 51.42737,-7.0179 c -0.0224,-0.1942 -0.1189,-0.3379 -0.24259,-0.3613 -0.14172,-0.027 -0.18728,0.018 -0.14699,0.146 0.0321,0.1017 0.0832,0.2643 0.11349,0.3613 0.0959,0.3068 0.31498,0.191 0.27609,-0.146 z m -46.62203,-18.1659 c 0.20401,-0.1437 0.47351,-0.3554 0.59889,-0.4703 0.12538,-0.115 0.3786,-0.209 0.5627,-0.209 0.29451,0 0.32011,-0.027 0.21301,-0.2275 -0.1546,-0.2889 -0.15744,-0.7949 -0.005,-0.8891 0.0642,-0.04 0.45541,0.09 0.86935,0.287 0.96535,0.4607 1.29314,0.4656 1.47684,0.022 0.0768,-0.1853 0.26767,-0.4055 0.42419,-0.4893 0.24782,-0.1326 0.2754,-0.2098 0.21348,-0.5969 -0.0656,-0.4102 -0.0404,-0.4636 0.32503,-0.6893 0.46238,-0.2855 1.21927,-0.288 1.21927,0 0,0.1075 -0.1148,0.1797 -0.29398,0.1849 -0.83857,0.024 -1.12082,0.4408 -0.38218,0.5644 0.66201,0.1107 0.82701,0.2482 0.64676,0.5391 -0.19913,0.3213 -0.18786,0.3579 0.11002,0.3579 0.38063,0 0.80133,-0.4512 0.80133,-0.8594 0,-0.3429 0.17133,-1.0914 0.35506,-1.5512 0.22976,-0.575 0.2236,-0.6474 -0.0715,-0.8408 -0.42755,-0.2802 -1.01135,-1.1761 -0.96747,-1.4848 0.0486,-0.342 0.26164,-0.3369 0.31048,0.01 0.021,0.1478 0.2424,0.4835 0.49206,0.7459 0.40475,0.4255 0.49618,0.4689 0.84382,0.4005 0.51094,-0.1004 0.8919,-0.293 0.96697,-0.4886 0.0852,-0.2221 -1.57594,-1.3382 -1.99178,-1.3382 -0.24673,0 -0.21398,-0.197 0.044,-0.2645 0.25827,-0.068 0.7704,0.1714 1.70924,0.7976 l 0.6913,0.461 0.34502,-0.4089 c 0.18976,-0.2248 0.47471,-0.6999 0.63322,-1.0556 0.15851,-0.3557 0.33078,-0.7227 0.38283,-0.8156 0.15506,-0.2766 -0.1117,-0.6615 -0.79162,-1.1422 -0.6229,-0.4403 -1.89325,-1.665 -1.89325,-1.8251 0,-0.044 -0.137,-0.2424 -0.30443,-0.4414 -0.36298,-0.4314 -0.63412,-0.4516 -1.67572,-0.1251 -0.46176,0.1447 -1.0758,0.2337 -1.61355,0.2337 -0.98998,0 -1.82587,0.3109 -2.51048,0.9337 -0.52039,0.4734 -0.89339,0.5663 -1.1913,0.2967 -0.12674,-0.1147 -0.23045,-0.3031 -0.23045,-0.4186 0,-0.229 -0.19334,-0.3923 -0.47037,-0.3972 -0.18192,0 -0.19531,-0.2085 -0.0518,-0.7954 0.0583,-0.2383 0.0294,-0.3408 -0.11138,-0.3948 -0.337,-0.1293 -0.78807,0.069 -0.9912,0.4358 -0.41286,0.7456 -0.46258,0.7839 -0.59391,0.4574 -0.11793,-0.2933 -0.11826,-0.2933 -0.12569,-0.022 -0.004,0.1498 -0.0554,0.3619 -0.11404,0.4714 -0.0728,0.1361 -0.0356,0.3452 0.11759,0.6601 0.1233,0.2535 0.22499,0.5969 0.22598,0.7632 0.001,0.2013 0.0338,0.2519 0.0976,0.1514 0.10959,-0.1727 0.48876,-0.068 0.4882,0.1342 -2.1e-4,0.074 -0.21374,0.4519 -0.47451,0.84 -0.61213,0.9109 -0.77794,1.2787 -1.16611,2.587 -0.14342,0.4834 -0.11178,2.7856 0.0493,3.5866 0.18174,0.9038 0.87022,1.8924 1.6505,2.3702 0.46131,0.2824 0.70721,0.2729 1.15777,-0.045 z m 2.38177,-0.5808 c 0.0913,-0.1478 -0.38793,-0.6047 -0.53741,-0.5123 -0.0493,0.031 -0.064,0.1889 -0.0328,0.3522 0.0597,0.3125 0.41452,0.4121 0.57025,0.1601 z m 48.69523,68.0308 c -0.0454,-0.045 -0.0825,-0.1792 -0.0825,-0.2976 0,-0.1183 -0.54924,-0.7909 -1.22053,-1.4946 -1.50825,-1.5811 -2.22021,-2.6268 -2.79251,-4.1012 -0.0565,-0.1456 -0.15077,-0.3837 -0.20953,-0.5292 -0.0588,-0.1455 -0.18096,-0.5513 -0.27157,-0.9016 l -0.16474,-0.6371 -0.15113,0.4019 c -0.5245,1.3946 -1.2947,2.6949 -1.59622,2.6949 -0.18171,0 -0.25551,-0.4722 -0.0984,-0.6294 0.50501,-0.505 0.52062,-3.5929 0.0231,-4.5725 -0.057,-0.1123 -0.1037,-0.3076 -0.1037,-0.434 0,-0.1264 -0.0529,-0.2626 -0.1176,-0.3025 -0.0647,-0.04 -0.11759,-0.1988 -0.11759,-0.3528 0,-0.1541 -0.0424,-0.3063 -0.0943,-0.3384 -0.0519,-0.032 -0.16818,-0.3296 -0.25847,-0.6612 -0.0903,-0.3315 -0.2066,-0.629 -0.25847,-0.6611 -0.0519,-0.032 -0.0943,-0.1843 -0.0943,-0.3384 0,-0.154 -0.0529,-0.3128 -0.1176,-0.3528 -0.0647,-0.04 -0.11759,-0.1987 -0.11759,-0.3527 0,-0.1541 -0.0529,-0.3128 -0.11759,-0.3528 -0.0647,-0.04 -0.11947,-0.2151 -0.12176,-0.3891 -0.002,-0.1741 -0.0798,-0.4488 -0.17222,-0.6105 -0.16777,-0.2934 -0.16807,-0.2932 -0.17223,0.1568 -0.003,0.3076 -0.0509,0.435 -0.15115,0.4009 -0.17586,-0.06 -0.16795,-0.7005 0.025,-2.0276 0.18535,-1.2747 0.33993,-2.4073 0.47746,-3.4983 0.0632,-0.5013 0.17156,-1.348 0.24084,-1.8815 0.24924,-1.9197 0.33378,-2.6288 0.40307,-3.3808 0.0996,-1.0814 0.15758,-1.2935 0.35335,-1.2935 0.1397,0 0.16047,0.1392 0.10965,0.7349 -0.0345,0.4042 -0.0918,0.8937 -0.12741,1.0878 -0.0356,0.194 -0.1124,0.7628 -0.17068,1.2641 -0.11725,1.0082 -0.27596,2.2883 -0.46655,3.7629 -0.069,0.5336 -0.16954,1.3141 -0.2235,1.7345 -0.0539,0.4204 -0.13718,0.9922 -0.18495,1.2707 -0.0507,0.2955 -0.0367,0.6138 0.0337,0.7644 0.0663,0.1419 0.17513,0.4696 0.24184,0.7284 0.29461,1.1424 0.4092,1.5438 0.50354,1.7638 0.0555,0.1294 0.36319,1.031 0.68382,2.0035 0.56118,1.7022 0.95125,3.4498 0.95204,4.2653 5.7e-4,0.5941 0.1887,0.3504 0.50609,-0.6556 0.59607,-1.8892 0.84954,-4.2571 0.72961,-6.816 -0.0593,-1.2655 -0.0464,-1.7958 0.0436,-1.7958 0.0703,0 0.16564,0.1456 0.21196,0.3234 0.14188,0.5448 0.10117,4.486 -0.0592,5.7326 -0.21391,1.6627 -0.19296,2.3614 0.0917,3.0575 0.0529,0.1293 0.1669,0.4733 0.25334,0.7643 0.25854,0.8705 1.21213,2.6313 1.6965,3.1327 0.0712,0.074 0.26276,0.2853 0.42562,0.4703 0.16286,0.185 0.61845,0.6484 1.01241,1.0298 l 0.71631,0.6935 -0.0908,-0.3995 c -0.05,-0.2197 -0.2049,-0.6223 -0.3443,-0.8946 -0.13941,-0.2723 -0.25346,-0.5557 -0.25346,-0.6299 0,-0.074 -0.16185,-0.474 -0.35967,-0.8885 -0.72431,-1.5176 -0.88293,-2.5984 -0.6796,-4.6305 0.0744,-0.7437 0.14662,-1.985 0.16043,-2.7583 0.015,-0.8402 0.074,-1.4223 0.14657,-1.4465 0.1784,-0.059 0.26895,1.7526 0.23364,4.6752 -0.0315,2.6053 0.0647,3.372 0.55301,4.4097 0.25853,0.5494 1.00683,1.194 1.62542,1.4001 0.5812,0.1936 1.49804,0.2546 1.49146,0.099 -0.002,-0.048 -0.18726,-0.2708 -0.41157,-0.4941 -0.22431,-0.2232 -0.40784,-0.4979 -0.40784,-0.6104 0,-0.1125 -0.0529,-0.2372 -0.1176,-0.2772 -0.14169,-0.088 -0.15758,-0.7257 -0.0202,-0.8106 0.0536,-0.033 0.19461,0.1601 0.31342,0.4294 0.11882,0.2693 0.32634,0.5986 0.46116,0.7318 0.37359,0.3691 1.10802,0.7665 1.28858,0.6972 0.1826,-0.07 0.33293,0.2226 0.23946,0.4662 -0.21003,0.5473 -2.26463,0.8074 -3.09425,0.3917 -0.53326,-0.2672 -0.64398,-0.2541 -0.54149,0.064 0.0469,0.1455 0.12375,0.5556 0.17083,0.9113 0.0471,0.3558 0.1075,0.723 0.13427,0.8162 0.0513,0.1786 -0.2572,0.3087 -0.39804,0.1678 z m 1.15762,-5.3055 c -0.0989,-0.5508 -0.22326,-2.9315 -0.14897,-2.8516 0.0301,0.032 0.0891,0.4292 0.13114,0.8819 0.042,0.4528 0.1094,1.1804 0.1497,1.6169 0.0789,0.8549 -0.003,1.0729 -0.13187,0.3528 z m -0.76971,-17.7842 c 0,-0.3224 0.0583,-0.8384 0.12951,-1.1465 0.25553,-1.1054 0.36543,-1.5042 0.46992,-1.7052 0.0584,-0.1123 0.10613,-0.285 0.10613,-0.3838 0,-0.099 0.0473,-0.2714 0.10523,-0.3837 0.0579,-0.1123 0.28222,-0.5746 0.49853,-1.0274 0.21631,-0.4527 0.82259,-1.4846 1.34729,-2.293 1.01408,-1.5625 1.47098,-2.5605 1.69582,-3.7042 0.0763,-0.388 0.18979,-0.9172 0.25222,-1.1759 0.0624,-0.2587 0.14283,-0.6166 0.17864,-0.7952 0.0757,-0.3779 0.26069,-0.5324 0.38886,-0.3251 0.0844,0.1366 0.0279,0.4594 -0.24771,1.4143 -0.0653,0.2263 -0.16466,0.5967 -0.22073,0.8231 -0.0561,0.2264 -0.15482,0.5968 -0.21943,0.8232 -0.0646,0.2263 -0.15192,0.5438 -0.19403,0.7055 -0.1798,0.6905 -0.73462,1.8084 -1.60496,3.2338 -0.88874,1.4555 -1.62696,2.923 -1.62696,3.2341 0,0.066 -0.0477,0.2124 -0.10613,0.3247 -0.0584,0.1123 -0.16779,0.4423 -0.24315,0.7333 -0.0754,0.2911 -0.18635,0.6917 -0.24665,0.8903 -0.0603,0.1987 -0.10962,0.5823 -0.10962,0.8526 0,0.3584 -0.0477,0.4914 -0.17639,0.4914 -0.1332,0 -0.17639,-0.1435 -0.17639,-0.5863 z m -8.49606,-10.0326 c -0.34763,-0.097 -0.44098,-0.1813 -0.44098,-0.3967 0,-0.3214 0.0817,-0.3297 1.36756,-0.1384 2.2219,0.3304 4.9996,-0.6215 6.83275,-2.3418 0.38065,-0.3572 0.5266,-0.4328 0.61939,-0.321 0.26192,0.3156 -0.26556,0.9342 -1.56717,1.8379 -1.4994,1.041 -3.11193,1.5163 -5.07706,1.4965 -0.71144,-0.01 -1.49196,-0.069 -1.73449,-0.1365 z"
       id="path66" /></g></svg>
