<?xml version="1.0" encoding="UTF-8" standalone="no"?>
<!-- Created with Inkscape (http://www.inkscape.org/) -->

<svg
   width="127.56517mm"
   height="111.56625mm"
   viewBox="0 0 127.56518 111.56626"
   version="1.1"
   id="svg1"
   xml:space="preserve"
   xmlns="http://www.w3.org/2000/svg"
   xmlns:svg="http://www.w3.org/2000/svg"><defs
     id="defs1" /><g
     id="layer1"
     transform="translate(199.36768,-1169.0827)"><path
       style="fill:#000000"
       d="m -82.275109,1280.5738 c -0.170914,-0.041 -0.480816,-0.2066 -0.688671,-0.3683 -0.874393,-0.6801 -4.135958,-1.7165 -6.232521,-1.9804 -0.549745,-0.069 -1.42287,-0.1814 -1.940278,-0.2493 -0.517407,-0.068 -1.311157,-0.125 -1.763889,-0.1266 -0.473344,0 -0.905391,-0.066 -1.01668,-0.1502 -0.267887,-0.2039 -0.688412,-0.9783 -0.688412,-1.2677 0,-0.1317 -0.05776,-0.3473 -0.128357,-0.4792 -0.07288,-0.1362 -0.09445,-0.4206 -0.0499,-0.658 l 0.07845,-0.4182 0.2762,0.7904 c 0.425238,1.217 0.520694,1.3181 1.38547,1.4687 0.41275,0.072 1.057518,0.1307 1.432819,0.1307 0.375301,0 1.032425,0.056 1.460275,0.1239 0.427851,0.068 1.148327,0.1779 1.601058,0.2441 1.200191,0.1755 1.726537,0.3113 3.233796,0.834 0.743774,0.258 1.484607,0.4965 1.646297,0.53 0.16169,0.034 0.452731,0.2032 0.646759,0.3772 0.339184,0.3041 0.88843,0.5955 1.122663,0.5955 0.199958,0 0.118453,-0.4282 -0.123126,-0.6468 -0.227518,-0.2059 -0.308136,-0.5346 -0.165981,-0.6768 0.03806,-0.038 0.313006,0.085 0.610986,0.2744 0.297979,0.189 0.650483,0.3413 0.783341,0.3386 0.199592,0 0.154731,-0.081 -0.258207,-0.4442 -0.572386,-0.503 -0.655583,-0.8443 -0.205787,-0.8443 0.16169,0 0.293981,0.041 0.293981,0.091 0,0.167 1.024722,0.653 1.219281,0.5783 0.296159,-0.1136 0.230023,-0.2892 -0.218288,-0.5796 -0.266768,-0.1728 -0.410627,-0.3582 -0.411574,-0.5303 -0.002,-0.3634 0.26258,-0.3369 0.880489,0.088 0.561153,0.3861 0.823228,0.4402 0.919288,0.1899 0.09484,-0.2471 -0.199947,-0.5879 -0.667203,-0.7712 -0.44353,-0.1741 -0.581595,-0.3652 -0.47132,-0.6526 0.09145,-0.2383 0.553733,-0.1166 1.181163,0.311 0.270356,0.1842 0.562595,0.3349 0.649418,0.3349 0.174458,0 0.507033,-1.218 0.386031,-1.4138 -0.146322,-0.2368 -0.967578,-0.5598 -2.232562,-0.8781 -0.711436,-0.1791 -1.663936,-0.4889 -2.116667,-0.6886 -1.049095,-0.4626 -3.430773,-1.685 -3.586574,-1.8408 -0.03234,-0.032 -0.177859,-0.1249 -0.32338,-0.2057 -0.145521,-0.081 -0.383646,-0.2132 -0.529166,-0.294 -0.145521,-0.081 -0.291042,-0.1759 -0.32338,-0.2113 -0.03234,-0.035 -0.411484,-0.2377 -0.842546,-0.4497 -1.146886,-0.5639 -2.227313,-1.9479 -2.949456,-3.7781 -0.0638,-0.1617 -0.162736,-0.3859 -0.219866,-0.4982 -0.05713,-0.1123 -0.103873,-0.3076 -0.103873,-0.434 0,-0.1265 -0.04682,-0.2588 -0.104034,-0.2942 -0.05722,-0.035 -0.133339,-0.2104 -0.169154,-0.3891 -0.08474,-0.4227 -0.238463,-1.0464 -0.543819,-2.2063 -0.136208,-0.5174 -0.292701,-1.1524 -0.347762,-1.4111 -0.05506,-0.2587 -0.295574,-1.3435 -0.53447,-2.4107 -0.238897,-1.0671 -0.486526,-2.1784 -0.550287,-2.4694 -0.117282,-0.5353 -0.246207,-1.1182 -0.448673,-2.0285 -0.06114,-0.2748 -0.167291,-0.7379 -0.235891,-1.0289 -0.211192,-0.896 -0.372118,-1.6848 -0.437974,-2.1468 -0.03463,-0.243 -0.110291,-0.471 -0.168135,-0.5067 -0.05784,-0.036 -0.105171,-0.2172 -0.105171,-0.4032 0,-0.186 -0.04973,-0.469 -0.110513,-0.6289 -0.06078,-0.1598 -0.138194,-0.6263 -0.172027,-1.0365 -0.03383,-0.4103 -0.03181,-0.6401 0.0045,-0.5108 0.0363,0.1294 0.162048,0.5262 0.279435,0.882 0.276771,0.8387 0.913604,3.4514 1.949023,7.9963 0.30206,1.3258 0.598223,2.6223 0.658141,2.881 0.05992,0.2587 0.156071,0.682 0.213674,0.9407 0.0576,0.2587 0.164852,0.7085 0.238331,0.9996 0.07348,0.291 0.161337,0.7279 0.195241,0.9708 0.0339,0.243 0.108969,0.471 0.166813,0.5067 0.05784,0.036 0.105171,0.2214 0.105171,0.4125 0,0.1911 0.04776,0.4393 0.106131,0.5516 0.05837,0.1123 0.173738,0.4423 0.256367,0.7334 0.08263,0.291 0.184088,0.582 0.225465,0.6467 0.04138,0.065 0.149352,0.3522 0.239946,0.639 0.146285,0.463 0.172261,0.4893 0.232135,0.2351 0.09589,-0.407 0.519457,-0.4598 4.643196,-0.5787 1.940278,-0.056 4.189236,-0.1587 4.997685,-0.2284 3.463669,-0.2987 4.099846,-0.3596 4.880093,-0.4675 0.452732,-0.063 1.095017,-0.1503 1.4273,-0.1949 0.463873,-0.062 0.723262,-0.1845 1.11713,-0.527 0.435308,-0.3785 0.493178,-0.4787 0.382211,-0.6614 -0.115057,-0.1894 -0.305773,-0.216 -1.5875,-0.2217 -0.801203,0 -1.721317,-0.067 -2.044697,-0.1414 -0.323379,-0.074 -0.905462,-0.1943 -1.293518,-0.2669 -0.763802,-0.1429 -1.44226,-0.31 -1.999074,-0.4925 -0.548932,-0.1799 -2.293056,-1.0751 -2.293056,-1.177 0,-0.05 -0.06288,-0.091 -0.139728,-0.091 -0.283474,0 -2.426768,-1.7437 -3.685889,-2.9986 l -1.297808,-1.2936 -0.542876,-1.4111 c -0.298582,-0.7761 -0.898831,-2.4959 -1.333887,-3.8217 -0.435056,-1.3259 -0.831126,-2.5165 -0.880156,-2.6459 -0.04903,-0.1293 -0.154125,-0.4733 -0.233544,-0.7643 -0.07942,-0.291 -0.185254,-0.635 -0.235186,-0.7644 -0.04993,-0.1293 -0.155765,-0.4733 -0.235185,-0.7643 -0.07942,-0.2911 -0.185253,-0.635 -0.235185,-0.7644 -0.04993,-0.1293 -0.155765,-0.4733 -0.235185,-0.7643 -0.07942,-0.2911 -0.184984,-0.635 -0.234586,-0.7644 -0.0496,-0.1293 -0.201382,-0.6056 -0.337287,-1.0583 -0.33991,-1.1323 -2.058521,-6.347 -2.305915,-6.9968 -0.458175,-1.2032 -0.651314,-1.6843 -1.062215,-2.6458 -0.833293,-1.9498 -2.158936,-4.5714 -2.494775,-4.9336 -0.153271,-0.1653 -0.437406,-0.7897 -0.631411,-1.3876 -0.991454,-3.0556 -2.243402,-4.6157 -4.173837,-5.2014 -0.31791,-0.096 -0.74672,-0.1759 -0.95291,-0.1766 -0.35291,0 -1.68408,0.2691 -2.08717,0.4238 -0.25935,0.099 -0.2284,0.4835 0.051,0.6331 0.22163,0.1186 0.70594,0.9164 0.70594,1.1628 0,0.2481 -0.75721,0.4837 -1.55469,0.4837 -0.73639,0 -0.80653,0.02 -0.74423,0.2167 0.11457,0.361 -0.45509,1.0041 -1.28765,1.4537 -1.07452,0.5802 -4.1752,0.1568 -5.48621,-0.7492 -0.39506,-0.273 -0.55818,-0.2706 -1.11726,0.016 -0.24865,0.1276 -0.74313,0.3598 -1.09885,0.516 -0.72209,0.317 -1.51424,0.6686 -2.26366,1.0048 -0.27487,0.1233 -0.80404,0.3586 -1.17592,0.5227 -0.37189,0.1642 -0.67616,0.3414 -0.67616,0.3938 0,0.052 0.33073,0.2182 0.73495,0.3684 0.40423,0.1502 0.84079,0.3159 0.97014,0.3681 0.23268,0.094 0.67294,0.2165 1.71072,0.4759 1.10191,0.2754 3.13731,0.039 5.05086,-0.5866 1.79059,-0.5854 2.90888,-0.6129 3.71989,-0.091 0.0733,0.047 0.52312,0.035 0.99954,-0.027 1.82749,-0.2373 3.43821,-0.092 4.48416,0.4043 0.23441,0.1112 0.65998,0.4521 0.94572,0.7576 0.45883,0.4906 0.65901,0.8259 1.024954,1.7169 0.15879,0.3867 0.26617,1.2275 0.304757,2.3865 0.02766,0.8306 0.08897,1.1692 0.255529,1.4111 0.33306,0.4836 1.468932,2.9187 1.848859,3.9636 0.117585,0.3233 0.257962,0.6382 0.311948,0.6996 0.05399,0.062 0.09816,0.2303 0.09816,0.3753 0,0.1449 0.05292,0.2962 0.117593,0.3362 0.06468,0.04 0.117593,0.1489 0.117593,0.2421 0,0.093 -0.05292,0.1694 -0.117593,0.1694 -0.06468,0 -0.117593,-0.1058 -0.117593,-0.2351 0,-0.1294 -0.05292,-0.2352 -0.117592,-0.2352 -0.06468,0 -0.117593,-0.069 -0.117593,-0.1538 0,-0.085 -0.600069,-1.3468 -1.333488,-2.8049 l -1.333488,-2.651 -0.07124,-1.417 c -0.0615,-1.2224 -0.11815,-1.5205 -0.41267,-2.17 -0.38307,-0.8449 -1.09957,-1.6462 -1.6893,-1.8894 -1.04663,-0.4317 -2.67667,-0.5337 -3.52323,-0.2205 -0.20445,0.076 -0.18146,0.1068 0.18437,0.2504 0.22987,0.09 0.41794,0.207 0.41794,0.2596 0,0.053 0.0767,0.096 0.1704,0.096 0.0937,0 0.30539,0.177 0.47037,0.3933 0.33496,0.4392 0.40522,1.0179 0.12358,1.0179 -0.097,0 -0.17639,-0.077 -0.17639,-0.1708 0,-0.2896 -1.08154,-0.9262 -3.08552,-1.816 -0.30651,-0.1361 -0.62665,-0.2475 -0.71144,-0.2475 -0.0848,0 -0.21719,-0.063 -0.29424,-0.1401 -0.17212,-0.1721 -1.19791,0.046 -2.31759,0.4929 -1.15139,0.4595 -2.72934,0.7569 -3.88056,0.7315 -0.68677,-0.015 -1.7103,-0.1744 -1.773,-0.2759 -0.035,-0.057 -0.17575,-0.1028 -0.31286,-0.1028 -0.26477,0 -0.95359,-0.1956 -1.29333,-0.3673 -0.11231,-0.057 -0.2584,-0.1031 -0.32466,-0.1031 -0.24441,0 -3.45631,-1.5307 -4.76282,-2.2698 -0.38805,-0.2196 -0.91722,-0.5192 -1.17592,-0.666 -0.25871,-0.1467 -0.61083,-0.3664 -0.78251,-0.4882 -0.17167,-0.1217 -0.37011,-0.2214 -0.44097,-0.2214 -0.0709,0 -0.12884,-0.053 -0.12884,-0.1176 0,-0.065 -0.0694,-0.1176 -0.15421,-0.1176 -0.0848,0 -0.2568,-0.093 -0.38218,-0.2058 -0.12538,-0.1131 -0.37348,-0.2808 -0.55134,-0.3726 -0.17786,-0.092 -0.32338,-0.2108 -0.32338,-0.2646 0,-0.054 -0.0545,-0.098 -0.12106,-0.098 -0.0666,0 -0.76772,-0.4331 -1.5581,-0.9624 -1.36471,-0.9139 -2.67176,-2.0067 -2.67176,-2.2338 0,-0.058 -0.0926,-0.2458 -0.20579,-0.4183 -0.24521,-0.3738 -0.48735,-1.2354 -0.49458,-1.7598 -0.003,-0.2072 -0.0526,-0.4982 -0.11054,-0.6468 -0.0579,-0.1486 -0.1698,-0.5082 -0.24858,-0.7993 -0.0788,-0.291 -0.18572,-0.635 -0.23762,-0.7643 -0.0519,-0.1294 -0.11858,-0.3411 -0.14816,-0.4704 -0.0296,-0.1294 -0.18687,-0.7379 -0.34953,-1.3523 -0.29872,-1.1284 -0.55132,-2.2944 -0.77699,-3.5866 -0.0678,-0.388 -0.15549,-0.8643 -0.19493,-1.0583 -0.0751,-0.3697 -0.18081,-0.9784 -0.40828,-2.3519 -0.51951,-3.1367 -1.02031,-5.6925 -1.41704,-7.2319 -0.17607,-0.6832 -0.20303,-1.4048 -0.0529,-1.4153 0.0647,0 0.13355,0.087 0.15305,0.2037 0.0195,0.1166 0.082,0.3179 0.13898,0.4472 0.0569,0.1294 0.13033,0.394 0.16309,0.588 0.0328,0.194 0.11588,0.5909 0.18471,0.8819 0.14507,0.6135 0.34352,1.5948 0.47566,2.3519 0.0508,0.291 0.33453,1.9314 0.63053,3.6454 0.62511,3.6195 0.91674,5.103 1.25989,6.4088 0.13597,0.5174 0.27332,1.073 0.30521,1.2347 0.0319,0.1617 0.10088,0.3998 0.15331,0.5291 0.0524,0.1294 0.16144,0.4734 0.24223,0.7644 0.25987,0.9362 0.38096,1.347 0.46788,1.5875 0.26098,0.7221 0.35277,1.1237 0.35277,1.5434 0,0.5611 0.44366,1.3141 1.14665,1.9461 0.54141,0.4867 4.67129,3.2721 4.85156,3.2721 0.0641,0 0.11661,0.053 0.11661,0.1176 0,0.065 0.058,0.1176 0.12884,0.1176 0.0709,0 0.26929,0.1 0.44097,0.2212 0.50146,0.3556 1.2668,0.7818 2.91299,1.6223 l 1.54252,0.7876 1.2797,-0.5665 c 0.70383,-0.3115 1.51783,-0.6704 1.80887,-0.7975 0.29104,-0.127 0.82021,-0.364 1.17592,-0.5265 1.41331,-0.6456 1.59313,-0.7244 1.74162,-0.7636 0.23075,-0.061 -0.45356,-0.4209 -6.7981,-3.5774 -3.20146,-1.5928 -5.91879,-2.9819 -6.03853,-3.087 -0.20983,-0.1841 -0.21519,-0.1634 -0.1484,0.5729 0.12877,1.4197 0.21584,4.2304 0.13739,4.4349 -0.16546,0.4312 -0.29687,-0.1495 -0.29851,-1.3191 -0.002,-1.1087 -0.062,-1.7807 -0.37577,-4.1745 -0.19939,-1.5214 -0.55036,-3.0918 -0.71424,-3.1959 -0.0807,-0.051 -0.22826,-0.094 -0.32798,-0.095 -0.19865,0 -2.1636,-1.0933 -2.49391,-1.3851 -0.27476,-0.2428 -0.26103,-0.4982 0.0268,-0.4982 0.12791,0 0.79762,0.2911 1.48824,0.6468 1.08692,0.5598 1.34406,0.6464 1.91349,0.6442 0.39586,0 0.85887,-0.094 1.16268,-0.2317 1.16919,-0.5307 2.73593,-2.526 2.40256,-3.0598 -0.17956,-0.2875 -0.18435,-0.722 -0.0121,-1.1 0.11599,-0.2546 0.05,-0.4429 -0.54822,-1.5637 -1.15525,-2.1645 -1.93341,-3.5985 -2.28672,-4.214 -0.14849,-0.2587 -0.40227,-0.7085 -0.56394,-0.9995 -0.78016,-1.4044 -2.72107,-4.4762 -3.01232,-4.7675 -0.12599,-0.126 -0.17912,0.091 -0.29836,1.2194 -0.0798,0.7549 -0.19886,1.6107 -0.26459,1.9018 -0.22957,1.0164 -0.35457,1.4714 -0.45992,1.6741 -0.0584,0.1123 -0.10613,0.285 -0.10613,0.3837 0,0.099 -0.0476,0.2715 -0.10585,0.3838 -0.0582,0.1123 -0.25314,0.5702 -0.43315,1.0176 -0.18001,0.4473 -0.42341,0.8956 -0.5409,0.9962 -0.11749,0.1006 -0.21362,0.2206 -0.21362,0.2667 0,0.046 -0.0566,0.2328 -0.12586,0.4149 -0.11031,0.2901 -0.13988,0.306 -0.23932,0.1283 -0.0774,-0.1383 -0.0383,-0.6058 0.12286,-1.4699 0.38904,-2.0862 0.38743,-3.8392 -0.005,-5.6181 -0.33622,-1.5235 -1.06172,-3.0832 -1.791,-3.8504 -0.4987,-0.5246 -1.61605,-1.3204 -2.25365,-1.6052 -0.19403,-0.087 -0.44467,-0.2043 -0.55697,-0.2614 -0.29566,-0.1504 -2.37229,-0.1276 -2.75949,0.03 -0.88043,0.359 -1.11982,0.4913 -1.76123,0.9734 -0.67983,0.5111 -1.59831,1.4928 -2.15434,2.3026 -0.15541,0.2264 -0.31413,0.4381 -0.3527,0.4704 -0.39162,0.3283 -1.46297,2.3843 -1.90713,3.6598 -0.36755,1.0555 -0.38398,1.1782 -0.38384,2.8666 1.2e-4,1.5071 0.0384,1.8809 0.2629,2.5677 0.14451,0.4421 0.30036,0.8647 0.34633,0.939 0.046,0.074 0.0697,0.2958 0.0528,0.4921 -0.0169,0.1962 0.0287,0.5938 0.10128,0.8836 0.38268,1.5272 0.50642,2.0665 0.71449,3.1139 0.51007,2.5676 0.75156,4.5896 0.91987,7.7023 0.177,3.2732 0.16328,4.5861 -0.0479,4.5861 -0.13422,0 -0.17671,-0.1476 -0.17775,-0.6174 -0.004,-1.8184 -0.14804,-5.2866 -0.24265,-5.8424 -0.0598,-0.3514 -0.10877,-0.8509 -0.10877,-1.11 0,-0.2591 -0.0513,-0.7654 -0.11404,-1.125 -0.0627,-0.3596 -0.17261,-1.0507 -0.24418,-1.5358 -0.0716,-0.485 -0.17639,-1.0936 -0.23291,-1.3523 -0.48695,-2.2288 -0.74613,-3.2338 -0.83398,-3.2338 -0.057,0 -0.10363,0.093 -0.10368,0.2058 -1.7e-4,0.3692 -0.66982,1.6322 -1.08601,2.0484 -0.52097,0.521 -1.22475,0.8661 -1.42588,0.6992 -0.10579,-0.088 -0.23318,-0.041 -0.45843,0.1676 -0.36295,0.3365 -0.65079,0.3715 -0.75805,0.092 -0.0501,-0.1305 0.0143,-0.257 0.19017,-0.3738 0.65335,-0.4338 0.92195,-0.7911 0.98792,-1.3143 0.33537,-2.6598 0.33107,-3.404 -0.0316,-5.4641 -0.0569,-0.3234 -0.17255,-0.9849 -0.25695,-1.4699 -0.19627,-1.128 -0.19693,-4.093 -0.001,-4.9389 0.0823,-0.3557 0.1788,-0.8192 0.21433,-1.03 0.0355,-0.2108 0.11169,-0.4124 0.16922,-0.4479 0.0575,-0.036 0.1046,-0.1907 0.1046,-0.3448 0,-0.1541 0.0529,-0.3128 0.11759,-0.3528 0.0647,-0.04 0.11759,-0.1761 0.11759,-0.3025 0,-0.1264 0.0468,-0.3217 0.10388,-0.434 0.0571,-0.1123 0.15728,-0.3365 0.22257,-0.4982 0.0653,-0.1617 0.27668,-0.6379 0.46976,-1.0583 0.19308,-0.4204 0.33352,-0.784 0.31209,-0.8079 -0.0214,-0.024 -0.34977,0.1902 -0.72963,0.4757 -1.69768,1.2762 -3.46105,1.7977 -4.49772,1.3302 -0.37064,-0.1671 -0.467,-0.2737 -0.46678,-0.5161 2.3e-4,-0.2498 0.11498,-0.3655 0.62951,-0.6343 0.59125,-0.3089 1.76633,-1.3426 2.43852,-2.1451 0.85996,-1.0267 1.95819,-3.0353 2.76232,-5.0521 0.1947,-0.4883 0.19015,0.4217 -0.005,1.0425 -0.36276,1.1526 -1.48824,3.4714 -1.73907,3.5828 -0.0485,0.022 -0.0882,0.102 -0.0882,0.1787 0,0.309 -1.55203,1.9369 -2.44005,2.5593 -0.27487,0.1927 -0.49977,0.3806 -0.49977,0.4176 0,0.037 0.30502,0.045 0.67781,0.018 0.6823,-0.049 2.1921,-0.6854 2.68789,-1.1323 0.12159,-0.1096 0.43236,-0.3573 0.6906,-0.5505 1.24654,-0.9324 2.44713,-2.4941 3.30084,-4.2937 0.16875,-0.3557 0.35514,-0.7386 0.4142,-0.8509 0.059,-0.1123 0.10737,-0.2825 0.10737,-0.3781 0,-0.096 0.10054,-0.2276 0.22343,-0.2934 0.26778,-0.1433 0.42166,0.118 0.25875,0.4393 -0.0561,0.1107 -0.15458,0.3335 -0.21888,0.4952 -0.36487,0.9174 -0.98223,2.067 -1.61036,2.9986 -0.77263,1.1459 -2.4159,4.4916 -2.4159,4.9188 0,0.082 -0.0437,0.1997 -0.0971,0.2611 -0.0534,0.062 -0.1653,0.3499 -0.24859,0.6409 -0.0833,0.291 -0.19472,0.635 -0.24762,0.7644 -0.0529,0.1293 -0.12818,0.4203 -0.16731,0.6467 -0.0391,0.2264 -0.13298,0.7555 -0.20857,1.1759 -0.26324,1.464 -0.16889,3.3849 0.26859,5.4681 0.28652,1.3643 0.36388,1.8154 0.47389,2.7634 0.12235,1.0544 0.0398,2.7786 -0.13832,2.8886 -0.0579,0.036 -0.1053,0.1678 -0.1053,0.2934 0,0.8513 1.30086,-0.774 1.69976,-2.1236 0.2031,-0.6873 0.19146,-0.8335 -0.24747,-3.1099 -0.10711,-0.5556 -0.18008,-1.5807 -0.17995,-2.5283 1.9e-4,-1.3781 0.0423,-1.737 0.31142,-2.6521 0.30542,-1.0387 1.14721,-2.7677 1.85935,-3.8191 1.20666,-1.7814 2.57285,-3.0616 3.98183,-3.7314 0.91427,-0.4345 1.45533,-0.5544 2.4668,-0.5464 0.65355,0.01 0.91981,0.076 1.661,0.4423 2.43862,1.2049 3.86238,3.1957 4.46522,6.2435 0.064,0.3233 0.15057,1.5404 0.19246,2.7046 l 0.0762,2.1167 0.27398,-0.7056 c 0.15069,-0.3881 0.32267,-0.7974 0.38218,-0.9097 0.0595,-0.1123 0.10819,-0.3077 0.10819,-0.4341 0,-0.1264 0.0471,-0.2589 0.1046,-0.2945 0.0575,-0.035 0.1318,-0.2371 0.16505,-0.4479 0.0332,-0.2108 0.14755,-0.769 0.25402,-1.2405 0.1473,-0.6523 0.18251,-1.2707 0.1473,-2.587 -0.0254,-0.9514 -0.0835,-1.8886 -0.12902,-2.0826 -0.3038,-1.2951 -0.68138,-2.0839 -1.6794,-3.5082 -1.00675,-1.4367 -1.33199,-2.2426 -1.33199,-3.3005 0,-0.8583 -0.009,-0.8843 -0.45062,-1.3255 -0.53127,-0.5306 -1.03933,-1.2801 -1.42094,-2.0963 -0.6414,-1.3719 -0.77481,-1.9966 -0.76683,-3.5908 0.007,-1.3528 0.008,-1.3594 0.51378,-2.4039 0.84958,-1.7553 2.79875,-3.477 4.67797,-4.1323 0.42825,-0.1493 0.50404,-0.1118 0.50404,0.2497 0,0.1989 -0.14767,0.3177 -0.66878,0.538 -1.33147,0.5628 -2.91335,1.8978 -3.75121,3.1656 -0.67428,1.0204 -0.87167,1.6861 -0.87167,2.9399 0,1.118 0.12971,1.6374 0.71938,2.881 0.32675,0.689 0.57414,0.9997 0.57414,0.7209 0,-0.098 -0.0529,-0.2106 -0.1176,-0.2506 -0.16217,-0.1002 -0.14935,-2.4706 0.0162,-2.9902 0.41038,-1.2882 1.49651,-2.7308 2.39664,-3.1832 0.19283,-0.097 0.37707,-0.2028 0.40941,-0.2354 0.0965,-0.097 1.08296,-0.5355 2.11666,-0.9407 2.58095,-1.0117 3.41019,-1.8667 3.41019,-3.5161 0,-0.8104 0.15421,-1.169 0.32421,-0.7541 0.0481,0.1173 0.0799,0.6381 0.0708,1.1574 -0.0196,1.121 -0.32018,1.8787 -0.95148,2.3991 -0.41882,0.3452 -2.01589,1.1841 -2.25435,1.1841 -0.0727,0 -0.22408,0.047 -0.33638,0.1039 -0.11231,0.057 -0.33648,0.1562 -0.49817,0.2202 -1.17177,0.4641 -2.25383,1.1016 -2.92165,1.7214 -1.36424,1.2662 -1.86805,3.1658 -1.3002,4.9024 0.26812,0.82 0.42662,1.0822 0.59226,0.9798 0.0587,-0.036 0.1802,0.1098 0.26998,0.3247 0.26245,0.628 0.62325,1.0088 1.54559,1.6312 0.47644,0.3215 1.0704,0.7847 1.31992,1.0292 0.99952,0.9798 2.35535,1.583 3.12411,1.3901 0.45868,-0.1151 0.77963,-0.5273 0.78391,-1.0068 0.002,-0.2303 0.0829,-0.5235 0.17953,-0.6514 0.1629,-0.2155 0.14439,-0.2589 -0.25213,-0.5918 l -0.42793,-0.3593 0.68874,-0.4371 c 0.37881,-0.2404 0.75161,-0.4371 0.82844,-0.4371 0.24025,0 0.30469,-0.4635 0.10649,-0.7659 -0.26584,-0.4058 -0.24131,-1.1468 0.0466,-1.4073 0.2238,-0.2026 0.23589,-0.2024 0.31513,0 0.0489,0.1274 0.026,0.2336 -0.0563,0.261 -0.17096,0.057 -0.18608,0.7322 -0.0164,0.7322 0.0673,0 0.28168,-0.1178 0.47641,-0.2618 0.29301,-0.2166 0.37174,-0.2331 0.45664,-0.096 0.085,0.1374 0.1345,0.1395 0.28795,0.012 0.246,-0.2042 0.23371,-0.5253 -0.0498,-1.301 -0.12935,-0.3539 -0.23519,-0.7262 -0.23519,-0.8274 0,-0.4105 -0.29205,-0.8171 -0.58796,-0.8184 -0.31343,0 -1.05833,-0.4006 -1.05833,-0.5671 0,-0.2172 0.16572,-0.2396 0.55846,-0.076 0.22605,0.095 0.47068,0.1716 0.54363,0.1715 0.22257,-5e-4 0.89698,-0.6409 0.89698,-0.8517 0,-0.5174 -1.11338,-0.5984 -1.7891,-0.1301 -0.50756,0.3517 -0.68412,0.3028 -0.4111,-0.1138 0.38652,-0.5899 1.36308,-0.8272 2.01191,-0.4888 0.18748,0.098 0.37269,0.1457 0.41157,0.1065 0.0389,-0.039 0.0685,-0.5826 0.0659,-1.2075 -0.007,-1.5503 -0.4616,-2.834 -1.59878,-4.5105 -0.45448,-0.67 -0.58373,-1.1543 -0.30729,-1.1514 0.14459,0 1.15535,1.4619 1.49802,2.1644 0.12921,0.2649 0.18523,0.3064 0.21374,0.1583 0.0938,-0.487 -0.73384,-1.7327 -2.30522,-3.4697 -0.45396,-0.5018 -1.05824,-1.2035 -1.34285,-1.5592 -0.89114,-1.1137 -1.92017,-1.7719 -3.79633,-2.428 -1.1625,-0.4065 -4.9362,-0.3529 -6.58518,0.094 -1.19354,0.3232 -2.76754,0.9766 -2.86142,1.1878 -0.0216,0.049 -0.10093,0.089 -0.17639,0.09 -0.38855,0.01 -2.21516,1.7493 -2.89337,2.7613 -0.59317,0.8851 -1.30077,2.2846 -1.30077,2.5727 0,0.097 -0.0529,0.2096 -0.11759,0.2495 -0.0647,0.04 -0.11759,0.1988 -0.11759,0.3528 0,0.1541 -0.0529,0.3128 -0.11759,0.3528 -0.0647,0.04 -0.1176,0.2177 -0.1176,0.395 0,0.1773 -0.0475,0.3726 -0.10554,0.434 -0.0581,0.062 -0.13253,0.3234 -0.1655,0.5821 -0.033,0.2587 -0.14311,1.1054 -0.24477,1.8815 -0.10165,0.7761 -0.18593,2.0562 -0.18728,2.8447 -0.001,0.7884 -0.0503,1.4631 -0.10874,1.4992 -0.15844,0.098 -0.28805,-2.2602 -0.19184,-3.4901 0.0461,-0.5892 0.15953,-1.4192 0.25209,-1.8445 0.0926,-0.4252 0.19984,-0.9319 0.23841,-1.126 0.3789,-1.9063 1.28436,-4.0836 2.20983,-5.3138 0.68444,-0.9098 2.37597,-2.5061 2.65561,-2.5061 0.0639,0 0.11625,-0.047 0.11625,-0.1039 0,-0.057 0.0926,-0.1341 0.20579,-0.1712 0.11318,-0.037 0.41745,-0.1918 0.67616,-0.3439 0.2587,-0.1521 0.65558,-0.3449 0.88194,-0.4286 0.22637,-0.084 0.51741,-0.1936 0.64676,-0.2444 0.12935,-0.051 0.44685,-0.1468 0.70556,-0.2133 0.2587,-0.067 0.68203,-0.1821 0.94074,-0.2567 0.2587,-0.075 1.32932,-0.1658 2.37915,-0.2028 1.56992,-0.055 2.06052,-0.031 2.76343,0.136 2.53068,0.6012 3.54298,1.1992 4.95394,2.9267 0.20307,0.2486 0.44859,0.546 0.54561,0.6609 0.097,0.1149 0.30868,0.3831 0.47037,0.596 0.16169,0.2129 0.34765,0.4449 0.41324,0.5155 0.75139,0.8088 1.39758,1.6758 1.71041,2.2949 0.34561,0.684 0.3903,0.8953 0.47252,2.2342 0.05,0.8134 0.12713,1.5721 0.17152,1.686 0.0444,0.1139 0.0122,0.7449 -0.0716,1.4022 -0.12762,1.0014 -0.20321,1.2538 -0.46621,1.5568 -0.48789,0.5621 -0.61102,0.855 -0.47012,1.1183 0.0669,0.1251 0.12173,0.3544 0.12173,0.5095 0,0.1552 0.0363,0.3184 0.0806,0.3627 0.17595,0.176 0.38633,0.9873 0.38801,1.4962 0.001,0.4119 -0.0621,0.5981 -0.27039,0.7938 -0.14969,0.1406 -0.3555,0.2557 -0.45735,0.2557 -0.33666,0 -0.71106,0.4068 -0.70989,0.7714 6.1e-4,0.1902 -0.0743,0.4928 -0.1665,0.6725 -0.0922,0.1798 -0.13736,0.3758 -0.1004,0.4356 0.13356,0.2161 -0.0823,0.6809 -0.38993,0.8394 -0.41398,0.2134 -0.60008,0.4546 -0.60466,0.7836 -0.006,0.4146 -0.35917,0.8611 -0.85847,1.0846 -0.39434,0.1766 -0.5473,0.1848 -1.18086,0.063 -0.89633,-0.1716 -1.31461,-0.3815 -2.39953,-1.2039 -0.46937,-0.3558 -0.94087,-0.6255 -1.05515,-0.6035 -0.25334,0.049 -0.73756,0.8744 -0.7402,1.262 -0.001,0.1624 0.29941,0.6982 0.70362,1.2546 0.38805,0.5341 0.70555,1.0283 0.70555,1.0982 0,0.07 0.0404,0.1272 0.0899,0.1272 0.10319,0 0.4734,0.8046 0.64925,1.4111 0.0656,0.2263 0.1421,0.8608 0.16992,1.41 0.0278,0.5491 0.0928,1.0254 0.14449,1.0583 0.10423,0.066 2.59185,3.8268 2.59185,3.9179 0,0.032 0.21167,0.4057 0.47037,0.8316 0.25871,0.4258 0.47037,0.8237 0.47037,0.8841 0,0.061 0.0397,0.1276 0.0882,0.1492 0.0485,0.022 0.21435,0.2773 0.36855,0.5683 0.15419,0.2911 0.43201,0.807 0.61736,1.1465 0.64683,1.185 1.00923,1.8612 1.68578,3.1456 0.37474,0.7115 0.8331,1.4889 1.01859,1.7276 0.33139,0.4266 0.44264,0.9569 0.2285,1.0892 -0.20417,0.1262 -1.1997,2.1172 -1.07877,2.1575 0.28193,0.094 3.83235,2.5314 4.71531,3.2372 0.097,0.078 0.3616,0.27 0.58797,0.4276 0.22636,0.1577 0.43803,0.3182 0.47037,0.3568 0.0323,0.039 0.244,0.1991 0.47037,0.3567 0.22636,0.1577 0.49095,0.3504 0.58796,0.4283 0.94032,0.7548 3.82269,2.7489 4.66506,3.2273 1.33792,0.7598 1.65637,0.9092 1.75398,0.823 0.059,-0.052 0.39977,-0.1836 0.75717,-0.2922 0.3574,-0.1086 0.90877,-0.3286 1.22525,-0.4888 0.70482,-0.3569 1.33897,-0.378 1.68441,-0.056 0.16417,0.153 0.41499,0.2352 0.71728,0.2352 0.47318,0 0.69707,0.1746 1.19785,0.9339 0.18275,0.2771 0.18333,0.2771 0.5236,0.054 0.48176,-0.316 1.28597,-0.5062 2.16612,-0.5122 2.44941,-0.017 4.383268,1.8574 5.668808,5.4939 0.199729,0.565 0.459699,1.1124 0.577712,1.2165 0.265868,0.2345 1.931529,3.5247 2.464003,4.8673 0.0513,0.1293 0.173598,0.4203 0.271766,0.6467 0.09817,0.2264 0.32009,0.782 0.49316,1.2347 0.173071,0.4528 0.360466,0.929 0.416434,1.0584 0.221913,0.5129 1.436168,4.1332 1.873401,5.5856 0.146026,0.4851 0.306086,0.9878 0.355689,1.1171 0.0496,0.1294 0.155166,0.4734 0.234586,0.7644 0.07942,0.291 0.185253,0.635 0.235185,0.7643 0.04993,0.1294 0.155766,0.4734 0.235186,0.7644 0.07942,0.291 0.185253,0.635 0.235185,0.7644 0.04993,0.1293 0.155765,0.4733 0.235185,0.7643 0.07942,0.291 0.184953,0.635 0.234519,0.7644 0.04957,0.1293 0.263802,0.7908 0.476083,1.4699 0.9329,2.9844 2.122029,6.3833 2.478118,7.0833 0.05713,0.1123 0.103873,0.2875 0.103873,0.3893 0,0.3498 3.430484,3.4343 4.497173,4.0436 0.17745,0.1013 0.32297,0.2239 0.323379,0.2724 4.09e-4,0.048 0.05736,0.088 0.126547,0.088 0.06919,0 0.347005,0.1472 0.617361,0.327 0.270357,0.1798 0.650308,0.3977 0.844336,0.4841 0.194028,0.086 0.444664,0.2038 0.556969,0.261 0.112305,0.057 0.30762,0.1038 0.434032,0.1038 0.126413,0 0.258932,0.047 0.294487,0.1046 0.03556,0.058 0.237116,0.1347 0.447913,0.1715 0.422845,0.074 1.159907,0.2138 2.323543,0.4411 0.420394,0.082 1.417389,0.1529 2.215545,0.1571 l 1.451193,0.01 0.282714,0.3528 c 0.379842,0.4739 0.363708,0.9652 -0.04836,1.4725 -0.182732,0.2249 -0.364003,0.4956 -0.402824,0.6015 -0.04191,0.1144 -0.253302,0.2181 -0.520306,0.2552 -0.247348,0.034 -0.846598,0.1208 -1.331668,0.1919 -2.614891,0.3833 -5.361837,0.5914 -9.407407,0.7129 -4.902696,0.1471 -5.879629,0.2191 -5.879629,0.4336 0,0.3903 1.514011,2.3312 1.916756,2.4572 0.142289,0.044 0.906347,0.4706 1.697908,0.9468 0.79156,0.4762 1.488296,0.8659 1.548302,0.8659 0.06001,0 0.12674,0.042 0.148299,0.094 0.02156,0.051 0.621281,0.372 1.332716,0.7123 0.711435,0.3402 1.372894,0.658 1.469907,0.7061 0.170748,0.085 0.681509,0.2471 2.852212,0.9076 1.455685,0.4429 2.087503,1.0919 2.086093,2.1427 -8.44e-4,0.629 -0.401142,1.0847 -0.985005,1.1215 -0.406504,0.026 -0.47081,0.073 -0.587963,0.4332 -0.09365,0.2879 -0.233149,0.4385 -0.484318,0.5229 -0.194028,0.065 -0.393633,0.1828 -0.443567,0.2613 -0.217015,0.3413 -0.47857,0.5072 -0.799555,0.5072 -0.224042,0 -0.344378,0.06 -0.344378,0.1722 0,0.2329 -0.425395,0.4459 -0.709997,0.3556 -0.177039,-0.056 -0.230744,-0.018 -0.230744,0.1632 0,0.13 -0.117607,0.3188 -0.26135,0.4195 -0.27652,0.1936 -0.322859,0.1982 -0.813754,0.081 z m -25.971191,-53.6704 c 0.63776,-0.2273 1.15981,-0.578 1.09845,-0.7379 -0.0405,-0.1055 -0.46098,-0.1404 -1.54716,-0.1281 -1.46396,0.016 -1.49227,0.012 -1.52921,-0.2484 -0.0245,-0.1722 0.0374,-0.2929 0.17638,-0.3446 0.11772,-0.044 0.29895,-0.175 0.40274,-0.2917 0.28107,-0.3161 1.52722,-1.0388 1.79128,-1.0388 0.12647,0 0.5,0.176 0.83007,0.391 0.7779,0.5069 1.26113,0.6945 1.66616,0.6469 0.53238,-0.062 0.45736,-0.291 -0.14542,-0.4428 -0.35702,-0.09 -0.73993,-0.3076 -1.06045,-0.6031 -0.60293,-0.5557 -0.82483,-0.5706 -1.81386,-0.1212 -0.41301,0.1877 -0.79061,0.3168 -0.83912,0.287 -0.0485,-0.03 -0.0882,-0.1706 -0.0882,-0.313 0,-0.1984 0.17183,-0.3483 0.73495,-0.6415 1.03296,-0.5377 1.49841,-0.5176 2.10103,0.091 0.54054,0.546 0.84123,0.6318 0.43766,0.125 -0.15127,-0.19 -0.37011,-0.4811 -0.48631,-0.6468 -0.26338,-0.3756 -0.38813,-0.375 -1.46535,0.01 -0.59279,0.2104 -0.90783,0.2703 -0.98985,0.1882 -0.19457,-0.1945 -0.01,-0.5434 0.37879,-0.7154 0.19851,-0.088 0.33788,-0.1828 0.30973,-0.211 -0.0281,-0.028 -0.38837,0.1006 -0.8005,0.2861 -0.96259,0.4333 -1.32586,0.5636 -2.02244,0.7253 -0.52997,0.123 -0.60786,0.1095 -1.17592,-0.2041 -1.39538,-0.7702 -2.58704,-1.5281 -3.84216,-2.4437 -0.92745,-0.6765 -4.52047,-3.3475 -4.70371,-3.4967 -0.68634,-0.5587 -4.09478,-2.7863 -4.26325,-2.7863 -0.0319,0 -0.28569,0.2082 -0.56404,0.4626 -0.55605,0.5083 -1.19883,0.8619 -1.95907,1.0776 l -0.49516,0.1406 0.0641,0.5413 c 0.0352,0.2977 0.11254,0.6947 0.17178,0.8823 0.0592,0.1875 0.1077,0.5646 0.1077,0.8381 0,0.464 0.22149,0.8533 0.38975,0.685 0.0696,-0.07 11.31054,5.4868 12.83942,6.3466 0.38805,0.2182 0.89674,0.5056 1.13041,0.6387 1.0321,0.5877 1.25999,0.6782 2.69134,1.0686 0.60006,0.1636 1.99326,0.1557 2.46945,-0.014 z m 1.6463,-1.2608 c 0,-0.065 -0.0529,-0.1176 -0.1176,-0.1176 -0.0647,0 -0.11759,0.053 -0.11759,0.1176 0,0.065 0.0529,0.1176 0.11759,0.1176 0.0647,0 0.1176,-0.053 0.1176,-0.1176 z m -0.68411,-0.5292 c -0.48838,-0.4109 -1.02772,-0.3628 -1.52673,0.1362 -0.13203,0.132 0.008,0.1578 0.85914,0.1578 h 1.01696 z m -16.79467,-13.8759 c 0.0372,-0.097 0.0221,-0.1764 -0.0336,-0.1764 -0.0557,0 -0.13178,0.079 -0.16901,0.1764 -0.0372,0.097 -0.0221,0.1764 0.0336,0.1764 0.0557,0 0.13178,-0.079 0.169,-0.1764 z m -9.42256,-20.8387 c 0.21983,-0.3751 0.21959,-0.3789 -0.0374,-0.5879 -0.14226,-0.1158 -0.36493,-0.3277 -0.49482,-0.471 -0.1299,-0.1433 -0.28703,-0.2292 -0.3492,-0.1907 -0.14908,0.092 -0.011,1.1063 0.23406,1.7187 0.18777,0.4692 0.19459,0.4735 0.30902,0.1942 0.0644,-0.1572 0.2166,-0.4556 0.33831,-0.6633 z m 6.50386,-0.7317 c -0.0426,-0.069 -0.1294,-0.1254 -0.1928,-0.1254 -0.0634,0 -0.0471,0.074 0.0363,0.1645 0.16883,0.1832 0.27712,0.1561 0.15647,-0.039 z m 0.17155,86.1684 c -0.81755,-0.1338 -1.72013,-0.325 -2.17546,-0.4607 -0.44146,-0.1317 -2.84285,-0.695 -4.70371,-1.1035 -0.77611,-0.1703 -1.62277,-0.3563 -1.88148,-0.4133 -1.30641,-0.2877 -1.57777,-0.3463 -2.17546,-0.4695 -0.35572,-0.073 -1.20239,-0.2079 -1.88148,-0.2989 -0.6791,-0.091 -1.52577,-0.2203 -1.88148,-0.2872 -0.35572,-0.067 -0.96426,-0.1768 -1.35232,-0.2441 -0.38805,-0.067 -0.97014,-0.1694 -1.29352,-0.2271 -0.64459,-0.1149 -1.75765,-0.3066 -2.76342,-0.4758 -0.73046,-0.1229 -1.78589,-0.2866 -2.99861,-0.4649 -0.45274,-0.067 -1.00836,-0.1491 -1.23473,-0.1834 -0.22636,-0.034 -0.80845,-0.117 -1.29352,-0.1839 -0.48506,-0.067 -1.19944,-0.1681 -1.5875,-0.2252 -0.38805,-0.057 -1.20826,-0.1637 -1.82268,-0.237 -0.61442,-0.073 -1.51179,-0.1876 -1.99416,-0.2538 -0.48237,-0.066 -1.19674,-0.1192 -1.5875,-0.1175 -0.91016,0 -6.07387,-0.7512 -8.70677,-1.273 -0.32338,-0.064 -0.879,-0.17 -1.23472,-0.2352 -0.67557,-0.124 -1.37934,-0.2681 -2.32245,-0.4758 -0.30721,-0.068 -0.79669,-0.171 -1.08773,-0.2298 -0.29105,-0.059 -0.79375,-0.1646 -1.11713,-0.2352 -2.00752,-0.4383 -3.17359,-0.5946 -5.23287,-0.7011 -1.00248,-0.052 -2.03436,-0.1592 -2.29306,-0.2386 -0.2587,-0.079 -0.62489,-0.1567 -0.81375,-0.1719 -0.89453,-0.072 -0.56514,-1.8141 0.47811,-2.529 0.59955,-0.4108 1.11883,-0.4998 3.51064,-0.6016 2.33213,-0.099 3.71775,-0.2765 4.46852,-0.5716 0.12935,-0.051 0.44685,-0.1588 0.70556,-0.24 0.78125,-0.245 2.30681,-1.0122 4.14172,-2.083 0.95585,-0.5578 2.0554,-1.1706 2.44346,-1.3619 0.38806,-0.1912 0.79744,-0.3945 0.90975,-0.4518 0.1123,-0.057 0.56852,-0.1041 1.01381,-0.1041 0.77027,0 0.83338,0.021 1.29843,0.441 0.26885,0.2425 0.63651,0.732 0.81702,1.0877 l 0.3282,0.6468 1.78868,0.6043 c 0.98377,0.3324 1.90615,0.633 2.04973,0.668 0.14357,0.035 0.47271,0.1237 0.73142,0.1972 0.2587,0.073 0.66881,0.183 0.91134,0.2434 0.24253,0.06 0.66587,0.166 0.94074,0.2347 1.95962,0.49 4.86032,0.8633 6.73218,0.8665 1.41568,0 5.05114,-0.3398 6.87916,-0.6475 0.4204,-0.071 1.6223,-0.1541 2.6709,-0.1853 l 1.90654,-0.057 -1.18597,-1.3738 c -0.65229,-0.7556 -1.43086,-1.6493 -1.73016,-1.9859 l -0.54418,-0.6121 -0.56595,0.1234 c -0.64222,0.14 -2.43567,0.069 -3.3146,-0.1308 -0.32338,-0.074 -0.76044,-0.1632 -0.97123,-0.1991 -0.2108,-0.036 -0.41236,-0.1123 -0.44791,-0.1699 -0.0356,-0.057 -0.1907,-0.1046 -0.34475,-0.1046 -0.15406,0 -0.31281,-0.053 -0.35278,-0.1176 -0.04,-0.065 -0.19126,-0.1176 -0.3362,-0.1176 -0.14494,0 -0.31379,-0.042 -0.37523,-0.093 -0.0615,-0.052 -0.32338,-0.1609 -0.58209,-0.243 -0.2587,-0.082 -0.5762,-0.1938 -0.70555,-0.248 -0.12936,-0.054 -0.66462,-0.2655 -1.18949,-0.4694 -1.20358,-0.4677 -2.3333,-1.126 -3.39239,-1.9767 -0.99768,-0.8014 -2.06211,-1.882 -2.06211,-2.0935 0,-0.3481 0.27849,-0.2775 0.80489,0.2041 1.84146,1.6844 3.32974,2.6506 5.13354,3.3327 0.45273,0.1712 0.91504,0.3602 1.02734,0.4201 0.11231,0.06 0.30016,0.1089 0.41745,0.1089 0.1173,0 0.26354,0.043 0.32498,0.096 0.0935,0.081 1.16659,0.4346 2.94228,0.9706 0.19862,0.06 0.48648,0.109 0.63968,0.109 0.15321,0 0.57279,0.058 0.9324,0.129 0.51413,0.1014 0.78622,0.094 1.27339,-0.036 l 0.61955,-0.1648 -1.56029,-1.538 c -0.85816,-0.8459 -1.79811,-1.7426 -2.08877,-1.9926 -1.16411,-1.0014 -2.877,-2.7311 -3.41767,-3.4512 -0.52454,-0.6986 -0.89473,-1.3535 -1.19775,-2.1187 -0.064,-0.1617 -0.16316,-0.3859 -0.22029,-0.4982 -0.0571,-0.1123 -0.10387,-0.3337 -0.10387,-0.4921 0,-0.1583 -0.0535,-0.4286 -0.11892,-0.6007 l -0.11892,-0.3127 -0.54407,0.746 c -0.66852,0.9168 -3.33355,3.5925 -4.45096,4.4688 -1.03184,0.8092 -2.72143,1.9406 -3.64537,2.441 -0.38806,0.2101 -0.75583,0.4306 -0.81727,0.49 -0.16832,0.1626 -1.34509,0.1272 -1.95819,-0.059 -0.83653,-0.2539 -2.95766,-1.2262 -3.02578,-1.387 -0.0216,-0.051 -0.10916,-0.092 -0.19467,-0.092 -0.0855,0 -0.38538,-0.1133 -0.66636,-0.2519 -0.28099,-0.1385 -0.61672,-0.2902 -0.74607,-0.337 -0.12935,-0.047 -0.36747,-0.14 -0.52916,-0.207 -0.16169,-0.067 -0.58503,-0.2273 -0.94074,-0.3561 -1.26726,-0.4588 -4.18423,-1.5927 -4.7625,-1.8513 -0.32338,-0.1446 -0.85255,-0.3795 -1.17593,-0.5219 -0.84362,-0.3715 -3.31689,-1.6017 -3.93935,-1.9594 -2.72692,-1.567 -4.51424,-3.2842 -4.75628,-4.5696 -0.0365,-0.194 -0.035,-0.2859 0.003,-0.2041 0.19801,0.4213 1.47573,1.729 2.28358,2.3372 0.99724,0.7507 2.47163,1.6009 4.70355,2.7123 0.61442,0.3059 1.13477,0.5976 1.15632,0.6482 0.0216,0.051 0.14063,0.092 0.26459,0.092 0.12396,0 0.22538,0.053 0.22538,0.1176 0,0.065 0.0744,0.1176 0.16528,0.1176 0.0909,0 0.36871,0.1043 0.61736,0.2319 1.0516,0.5395 1.93596,0.8983 6.44931,2.617 0.51741,0.197 1.57574,0.6619 2.35185,1.033 1.93254,0.9242 2.28414,1.0773 2.7616,1.2028 0.95932,0.2522 1.05669,0.2438 1.8604,-0.1604 0.43299,-0.2178 0.8049,-0.4359 0.82646,-0.4847 0.0216,-0.049 0.0897,-0.089 0.1515,-0.089 0.18075,0 2.19716,-1.3825 3.21948,-2.2074 1.23891,-0.9996 3.86004,-3.6613 4.52732,-4.5973 0.29104,-0.4082 0.64816,-0.8831 0.7936,-1.0551 0.14545,-0.1721 0.26451,-0.379 0.26459,-0.4599 8e-5,-0.081 0.0531,-0.147 0.11773,-0.147 0.0647,0 0.1176,-0.057 0.1176,-0.1258 0,-0.069 0.15055,-0.347 0.33455,-0.6173 0.18401,-0.2704 0.80112,-1.3383 1.37137,-2.3731 0.57025,-1.0348 1.13907,-2.0667 1.26403,-2.293 0.12497,-0.2264 0.27514,-0.4619 0.33372,-0.5233 0.0586,-0.062 0.10818,-0.1937 0.11023,-0.294 0.007,-0.366 0.56686,-0.8027 1.88381,-1.4707 0.74045,-0.3755 1.58439,-0.8175 1.87544,-0.9822 0.56361,-0.3189 1.82921,-1.5327 2.10787,-2.0215 0.50924,-0.8933 0.83425,-1.5806 0.79835,-1.6882 -0.0453,-0.1361 -0.78956,0.8933 -0.78956,1.092 0,0.069 -0.0529,0.1258 -0.11759,0.1258 -0.0647,0 -0.11759,0.081 -0.11759,0.1806 0,0.2566 -0.35822,0.7707 -0.48324,0.6934 -0.13422,-0.083 -0.13467,-0.4655 -8.5e-4,-0.7286 0.0571,-0.1123 0.1761,-0.3629 0.26439,-0.5569 0.0883,-0.1941 0.18707,-0.3793 0.21951,-0.4116 0.0727,-0.072 0.34138,-0.5382 0.55885,-0.9686 0.0894,-0.1771 0.12552,-0.382 0.0802,-0.4554 -0.05,-0.081 -0.1572,0.027 -0.27245,0.2739 -0.32646,0.6999 -1.83034,2.9113 -1.95387,2.8731 -0.29692,-0.092 -0.15721,-0.5861 0.39833,-1.4094 0.64581,-0.957 1.03788,-1.6251 1.44271,-2.4581 0.0546,-0.1123 0.0988,-0.3769 0.0982,-0.5879 l -0.001,-0.3838 -0.38115,0.4116 c -0.20964,0.2263 -0.55863,0.7496 -0.77554,1.1627 -0.33928,0.6463 -0.63296,1.0936 -1.5913,2.4238 -0.132,0.1833 -0.20141,0.2042 -0.31417,0.095 -0.20273,-0.1967 0.0149,-0.6818 0.79156,-1.7643 0.83508,-1.1639 0.86153,-1.2226 0.86153,-1.9093 0,-0.9689 -0.41368,-0.7023 -1.11964,0.7216 -0.74652,1.5057 -1.90295,2.7941 -2.22175,2.4753 -0.1112,-0.1112 -0.0787,-2.2439 0.0352,-2.3143 0.12832,-0.079 0.24001,-0.7727 0.12447,-0.7727 -0.15761,0 -0.92871,0.9355 -1.09074,1.3233 -0.20035,0.4795 -0.5849,1.6166 -0.78526,2.322 -0.0827,0.2911 -0.22204,0.7559 -0.30973,1.0331 -0.0877,0.2771 -0.15944,0.575 -0.15944,0.6619 0,0.1983 -1.42865,1.5542 -2.18822,2.0768 -0.93153,0.6409 -1.50382,1.1371 -3.09273,2.6816 -0.84565,0.822 -2.48056,2.2399 -3.47378,3.0128 -0.24934,0.1941 -0.72309,0.5675 -1.05278,0.8299 -0.32969,0.2624 -1.04922,0.8124 -1.59897,1.2223 -0.54975,0.4099 -1.26412,0.9982 -1.5875,1.3073 l -0.58796,0.5621 -0.52917,-0.1768 c -1.20839,-0.4038 -3.31682,-1.2986 -4.52731,-1.9213 -1.36823,-0.7039 -2.5609,-1.4119 -2.62624,-1.5589 -0.0216,-0.049 -0.0871,-0.088 -0.14568,-0.088 -0.19682,0 -1.57173,-1.1076 -2.40717,-1.9391 -0.97181,-0.9673 -1.63056,-1.8817 -1.53498,-2.1308 0.0959,-0.25 0.29419,-0.1033 0.97981,0.725 0.92336,1.1155 2.40342,2.3481 3.97406,3.3097 2.34857,1.4378 6.87547,3.3389 6.87547,2.8874 0,-0.063 0.51578,-0.5051 1.14616,-0.9832 0.63039,-0.4782 1.2257,-0.9336 1.32292,-1.0121 0.0972,-0.078 0.89113,-0.7071 1.76426,-1.3969 1.71351,-1.3537 2.86432,-2.3511 4.16893,-3.613 0.45581,-0.4409 1.08011,-1.0196 1.38732,-1.2861 0.52823,-0.4581 0.55866,-0.5168 0.56033,-1.0798 0.002,-0.6094 0.13989,-1.1117 0.49997,-1.8188 0.1121,-0.2202 0.20382,-0.4715 0.20382,-0.5586 0,-0.087 0.0529,-0.1583 0.11759,-0.1583 0.0647,0 0.11759,-0.1058 0.11759,-0.2352 0,-0.1293 0.04,-0.2352 0.0889,-0.2352 0.0489,0 0.16354,-0.172 0.25477,-0.3822 0.22775,-0.5246 0.97837,-1.6386 1.73219,-2.5707 0.6813,-0.8424 0.75738,-1.0452 0.392,-1.0452 -0.13023,0 -0.32867,-0.047 -0.44097,-0.1045 -0.11231,-0.058 -0.73336,-0.2724 -1.38012,-0.4775 -1.97048,-0.6252 -3.99361,-1.7093 -5.36962,-2.8775 -0.35991,-0.3056 -2.35685,-1.6202 -3.08384,-2.0302 -1.15544,-0.6516 -2.82221,-1.425 -3.80506,-1.7657 -1.32703,-0.46 -2.61799,-0.4452 -3.67527,0.042 -0.64715,0.2983 -2.51429,1.6024 -3.03819,2.1221 -0.0865,0.086 -0.35099,0.3007 -0.58787,0.4775 -0.23688,0.1769 -0.53332,0.4142 -0.65875,0.5274 -0.12543,0.1132 -0.29305,0.2058 -0.37248,0.2058 -0.0794,0 -0.16205,0.04 -0.18361,0.088 -0.0488,0.1097 -0.9554,0.539 -1.51745,0.7185 -0.66558,0.2125 -1.57689,0.164 -2.17185,-0.1157 -0.56716,-0.2666 -1.22999,-0.9665 -1.22999,-1.2988 0,-0.2697 0.24301,-0.4072 0.35796,-0.2024 0.52975,0.9434 1.81564,1.4197 2.78211,1.0305 1.24978,-0.5032 2.2506,-1.1156 3.6215,-2.2157 1.35576,-1.0879 1.99707,-1.5191 2.84222,-1.9109 0.72855,-0.3377 0.91239,-0.3728 1.97908,-0.3777 0.72986,0 1.33205,0.056 1.5875,0.1558 2.19571,0.8599 4.68382,2.1131 6.17361,3.1095 0.38806,0.2596 0.73202,0.5049 0.76435,0.5452 0.0323,0.04 0.24401,0.2005 0.47037,0.3559 0.22637,0.1555 0.43804,0.3163 0.47037,0.3573 0.17563,0.2231 2.15867,1.4891 2.76343,1.7642 1.2147,0.5527 3.96426,1.3705 4.71087,1.4012 0.14993,0.01 0.36148,-0.8286 0.47551,-1.8764 0.0809,-0.7435 0.0862,-0.7531 0.19385,-0.3528 0.11031,0.4103 0.061,1.5058 -0.0979,2.1755 -0.0803,0.3386 -0.0747,0.3449 0.1392,0.1576 0.41594,-0.3642 0.83505,-0.3227 0.99521,0.098 0.12308,0.3238 0.0828,0.5941 -0.29097,1.9545 -0.10305,0.375 -0.18736,0.766 -0.18736,0.8687 0,0.3423 1.28479,-1.4201 1.98764,-2.7265 0.61088,-1.1355 0.989,-1.279 1.4771,-0.5607 0.16402,0.2414 0.29822,0.382 0.29822,0.3125 0,-0.07 0.18922,-0.2273 0.42048,-0.3507 l 0.42049,-0.2243 0.23733,0.2913 c 0.17169,0.2107 0.22009,0.3975 0.17501,0.6753 -0.0403,0.2486 -0.003,0.4436 0.10654,0.5529 0.0929,0.093 0.16885,0.3513 0.16885,0.5744 0,0.2267 0.0822,0.4738 0.18635,0.5602 0.27931,0.2318 0.11702,1.056 -0.41788,2.1221 -0.522,1.0404 -0.65797,1.227 -1.54403,2.1194 -0.51671,0.5204 -1.01623,0.8446 -2.32066,1.5065 -1.7389,0.8824 -2.15034,1.1968 -2.56041,1.957 -1.23098,2.282 -3.22063,5.7224 -3.72313,6.4378 -0.20387,0.2902 -0.21713,0.3919 -0.10145,0.778 0.0732,0.2442 0.13306,0.5577 0.13306,0.6966 0,0.1389 0.0485,0.3444 0.10779,0.4567 0.0593,0.1124 0.176,0.387 0.25939,0.6104 0.0834,0.2234 0.45052,0.8584 0.81586,1.4111 0.687,1.0394 2.74137,3.129 4.88895,4.9727 1.12765,0.9682 1.77964,1.6317 2.62954,2.6762 0.28944,0.3558 0.55377,0.6733 0.5874,0.7056 0.0336,0.032 0.35153,0.4028 0.70644,0.8231 0.35492,0.4204 0.67209,0.7909 0.70483,0.8232 0.0327,0.032 0.42947,0.4821 0.88163,0.9995 0.93023,1.0645 3.45059,3.5839 4.02859,4.0271 0.40557,0.3109 0.53588,0.853 0.20505,0.853 -0.0974,0 -0.7721,-0.5744 -1.4993,-1.2764 -1.15138,-1.1115 -1.39054,-1.289 -1.85135,-1.3738 -0.79217,-0.1458 -2.99044,-0.1217 -4.05695,0.045 -0.89391,0.1393 -1.61921,0.2344 -3.76296,0.4932 -2.68043,0.3237 -6.1204,0.2692 -8.29028,-0.1313 -1.91099,-0.3528 -2.96385,-0.5857 -3.2028,-0.7086 -0.1123,-0.058 -0.30825,-0.1051 -0.43544,-0.1051 -0.12718,0 -0.3528,-0.047 -0.50136,-0.1053 -0.14857,-0.058 -0.50824,-0.1714 -0.79928,-0.2522 -1.2289,-0.3409 -2.16083,-0.6414 -2.85716,-0.9214 -0.1809,-0.073 -0.51329,-0.1322 -0.73864,-0.1322 -0.28611,0 -0.4301,-0.062 -0.47723,-0.2058 -0.21111,-0.6436 -0.65299,-1.4266 -0.9789,-1.7345 -0.34038,-0.3215 -0.4429,-0.3521 -1.15912,-0.3459 -0.90879,0.01 -1.3027,0.172 -3.19636,1.3313 -2.20075,1.3473 -2.92347,1.7259 -4.32153,2.2642 -0.14552,0.056 -0.38365,0.1487 -0.52917,0.206 -0.42039,0.1656 -1.68216,0.5083 -2.61643,0.7107 -0.32338,0.07 -1.69921,0.1805 -3.05741,0.2454 -1.46231,0.07 -2.65471,0.1827 -2.92371,0.2767 -1.04977,0.3669 -1.49075,1.2911 -0.72166,1.5124 0.65865,0.1896 1.87657,0.3397 3.64537,0.4495 1.90327,0.1182 2.70376,0.2341 4.7919,0.6939 0.30721,0.068 0.80992,0.1783 1.11713,0.246 0.30721,0.068 0.82315,0.1751 1.14653,0.2389 0.32338,0.064 0.85254,0.1689 1.17592,0.2336 1.44137,0.2882 1.99981,0.3925 3.76297,0.7028 1.00132,0.1761 2.67928,0.4413 4.52731,0.7153 0.42039,0.062 1.2622,0.1382 1.87069,0.1685 1.00314,0.05 3.22045,0.3004 5.71403,0.6453 0.51741,0.072 1.2847,0.1769 1.70509,0.234 1.39119,0.1892 3.42313,0.4961 4.64491,0.7015 0.32338,0.054 0.95838,0.1599 1.41111,0.2345 1.51954,0.2504 2.23046,0.3699 2.85162,0.4796 0.57948,0.1024 0.89258,0.1589 2.58704,0.4673 0.37189,0.068 1.09949,0.1711 1.6169,0.2299 0.51741,0.059 1.19209,0.1621 1.4993,0.2297 0.30721,0.068 0.78346,0.17 1.05834,0.2276 0.47119,0.099 1.27323,0.2737 2.20486,0.481 0.22636,0.05 0.83491,0.1816 1.35231,0.2918 0.51741,0.1101 2.02554,0.4657 3.35139,0.7902 3.28688,0.8044 5.48204,1.0348 6.66844,0.6999 0.71145,-0.2009 1.44064,-0.8061 1.78997,-1.4856 0.29576,-0.5754 0.30222,-0.6397 0.30123,-2.9987 -9.5e-4,-2.2488 -0.1013,-3.2501 -0.40658,-4.0569 -0.0489,-0.1294 -0.15273,-0.4469 -0.23065,-0.7056 -0.0779,-0.2587 -0.19108,-0.5894 -0.25148,-0.7349 -0.0604,-0.1455 -0.15734,-0.3837 -0.21542,-0.5292 -0.0581,-0.1455 -0.19037,-0.463 -0.29398,-0.7055 -0.10361,-0.2426 -0.2616,-0.613 -0.35109,-0.8232 -0.0895,-0.2102 -0.27469,-0.6329 -0.41157,-0.9394 -0.13688,-0.3065 -0.24887,-0.5828 -0.24887,-0.6139 0,-0.031 -0.12621,-0.336 -0.28047,-0.6775 -0.15427,-0.3414 -0.55534,-1.2823 -0.89129,-2.0907 -0.33594,-0.8085 -0.6666,-1.6022 -0.73479,-1.7639 -0.0682,-0.1617 -0.16275,-0.3998 -0.21011,-0.5292 -0.0474,-0.1293 -0.15321,-0.3939 -0.23519,-0.5879 -0.18983,-0.4493 -0.2715,-0.6624 -0.5859,-1.5287 -0.14082,-0.3881 -0.30111,-0.7917 -0.35619,-0.8969 -0.0551,-0.1052 -0.12818,-0.3963 -0.16242,-0.6468 -0.0343,-0.2505 -0.0318,-0.3496 0.006,-0.2202 0.0373,0.1293 0.10261,0.2616 0.14513,0.294 0.0425,0.032 0.17038,0.205 0.28413,0.3837 l 0.20683,0.325 0.27569,-0.2662 c 0.3594,-0.347 1.41255,-1.1566 2.59399,-1.9941 0.51951,-0.3682 0.99753,-0.7152 1.06226,-0.771 0.0647,-0.056 0.62035,-0.4381 1.23472,-0.8496 0.61437,-0.4115 1.13467,-0.7922 1.15623,-0.8459 0.0216,-0.054 0.10975,-0.098 0.19599,-0.098 0.0862,0 0.17443,-0.044 0.19599,-0.097 0.0216,-0.053 0.43607,-0.3637 0.92114,-0.6895 0.48507,-0.3258 1.43757,-1.0251 2.11667,-1.5539 0.67909,-0.5289 1.38865,-1.0785 1.57678,-1.2214 0.34942,-0.2654 1.6328,-1.2727 1.95099,-1.5312 0.6076,-0.4937 3.76652,-2.8011 4.21604,-3.0796 0.10439,-0.065 0.41188,-0.2631 0.6833,-0.4409 0.27143,-0.1779 0.55011,-0.3234 0.6193,-0.3234 0.0692,0 0.12581,-0.053 0.12581,-0.1176 0,-0.065 0.058,-0.1176 0.12884,-0.1176 0.0709,0 0.26929,-0.099 0.44097,-0.2198 0.17167,-0.1208 0.43119,-0.2567 0.57672,-0.3019 0.22424,-0.07 0.26458,-0.039 0.26458,0.2031 0,0.2153 -0.15835,0.3904 -0.64495,0.7135 -0.35472,0.2355 -0.67592,0.4282 -0.71377,0.4282 -0.1012,0 -1.15362,0.7278 -1.26415,0.8742 -0.093,0.1233 -0.043,0.9096 0.15389,2.4184 0.33881,2.5964 0.98019,4.0602 3.36436,7.6785 0.80106,1.2157 1.45647,2.2564 1.45647,2.3127 0,0.056 0.0471,0.1198 0.10471,0.1414 0.10583,0.04 2.30599,3.3552 2.97562,4.4842 1.062709,1.7917 1.752025,3.0805 2.30821,4.3156 0.658766,1.463 0.736718,1.646 1.038256,2.4376 0.306695,0.8051 0.988651,2.8712 1.233138,3.7361 0.07313,0.2587 0.1855,0.6555 0.249705,0.8819 0.06421,0.2264 0.162885,0.5331 0.219289,0.6817 0.0564,0.1486 0.102554,0.3968 0.102554,0.5516 0,0.1548 0.05292,0.3142 0.117592,0.3542 0.06468,0.04 0.117593,0.2318 0.117593,0.4262 0,0.1945 0.04568,0.4427 0.1015,0.5517 0.05582,0.1089 0.131841,0.5949 0.168925,1.08 0.03708,0.485 0.03958,0.8025 0.0056,0.7055 -0.03403,-0.097 -0.136505,-0.3431 -0.227722,-0.5469 -0.09122,-0.2038 -0.165849,-0.4382 -0.165849,-0.5208 0,-0.083 -0.04933,-0.3128 -0.109624,-0.5114 -0.06029,-0.1986 -0.169713,-0.5993 -0.243154,-0.8903 -0.670094,-2.6556 -1.671959,-5.6894 -2.471468,-7.4842 -0.318832,-0.7158 -1.586694,-3.2741 -1.85637,-3.7459 -1.012015,-1.7705 -2.621995,-4.3274 -3.072745,-4.8801 -0.13188,-0.1617 -0.24049,-0.3601 -0.24135,-0.441 -8.7e-4,-0.081 -0.0456,-0.147 -0.0993,-0.147 -0.0537,0 -0.17273,-0.1455 -0.2644,-0.3233 -0.0917,-0.1779 -0.19801,-0.3499 -0.23631,-0.3822 -0.0383,-0.032 -0.54437,-0.7732 -1.12461,-1.6463 -1.83744,-2.765 -2.86904,-4.5932 -3.21812,-5.7033 -0.0814,-0.2587 -0.18951,-0.5762 -0.24035,-0.7055 -0.18724,-0.4764 -0.42006,-2.0323 -0.5411,-3.616 -0.0383,-0.5012 -0.10254,-0.9104 -0.14273,-0.9093 -0.0592,0 -3.41185,2.4388 -3.83605,2.7885 -0.0647,0.053 -0.35441,0.2807 -0.64386,0.5053 -0.28944,0.2246 -0.59699,0.474 -0.68344,0.5542 -0.15328,0.1423 -1.47801,1.1718 -2.35213,1.828 -0.23997,0.1801 -0.51569,0.3925 -0.6127,0.472 -0.097,0.08 -0.3616,0.2735 -0.58796,0.4312 -0.22637,0.1576 -0.43804,0.3201 -0.47037,0.361 -0.0323,0.041 -0.56151,0.4097 -1.17593,0.8195 -1.8705,1.2477 -5.41798,3.7804 -5.82083,4.1558 -0.12935,0.1205 -0.35425,0.299 -0.49977,0.3967 -0.32804,0.2202 -0.32773,0.2392 0.0162,0.9997 0.5343,1.1812 0.75469,1.6865 1.47614,3.3842 0.39852,0.9378 0.79711,1.8639 0.88575,2.0579 0.0887,0.194 0.27526,0.6438 0.4147,0.9995 0.13945,0.3557 0.33418,0.832 0.43274,1.0584 0.0986,0.2263 0.22673,0.5306 0.28481,0.6761 0.0581,0.1455 0.15372,0.3837 0.21253,0.5292 0.0588,0.1455 0.13653,0.3572 0.1727,0.4704 0.0362,0.1131 0.15445,0.2057 0.26284,0.2057 0.10838,0 0.73,0.2443 1.38137,0.5429 2.31545,1.0614 4.89382,1.809 6.23877,1.809 0.77332,0 1.73986,-0.393 2.20373,-0.8962 0.34618,-0.3754 0.6595,-1.0243 1.02965,-2.1323 0.45514,-1.3624 0.2678,-2.7341 -0.59175,-4.3329 -0.20513,-0.3815 -0.43135,-0.8123 -0.50272,-0.9574 -0.0714,-0.145 -0.16945,-0.264 -0.21795,-0.2645 -0.0485,-5e-4 -0.0882,-0.07 -0.0882,-0.1552 0,-0.085 -0.094,-0.2568 -0.20898,-0.3822 -0.11494,-0.1253 -0.33888,-0.4131 -0.49764,-0.6395 -0.15877,-0.2264 -0.42191,-0.5649 -0.58477,-0.7522 -1.72769,-1.9876 -3.14155,-3.3878 -5.05861,-5.0098 -0.42039,-0.3558 -0.82881,-0.7262 -0.9076,-0.8232 -0.18293,-0.2252 -0.19208,-0.5879 -0.0148,-0.5879 0.1272,0 0.70255,0.3976 1.06098,0.7331 0.0874,0.082 0.63403,0.5721 1.21475,1.0895 3.39426,3.0243 5.35627,5.5674 6.53208,8.4667 0.36091,0.89 0.58382,2.3247 0.47502,3.0574 -0.10504,0.7075 -1.07556,2.7191 -1.58551,3.2863 -0.66012,0.7343 -1.09479,0.8883 -2.50738,0.8883 -0.6887,0 -1.4147,-0.049 -1.61332,-0.1097 -0.19862,-0.06 -0.59925,-0.1732 -0.89029,-0.2509 -1.04884,-0.2801 -1.96392,-0.6211 -3.29259,-1.2268 -1.05425,-0.4807 -1.36123,-0.5783 -1.39274,-0.4429 -0.0222,0.096 0.0174,0.2316 0.0882,0.3024 0.0707,0.071 0.12862,0.2472 0.12862,0.3921 0,0.145 0.0468,0.2925 0.10404,0.3278 0.0572,0.035 0.13223,0.2105 0.16671,0.3892 0.0345,0.1786 0.12038,0.5364 0.19091,0.7951 0.77422,2.8397 0.6163,5.3481 -0.43812,6.9592 -0.42601,0.6509 -1.08051,1.1731 -1.77248,1.4142 -0.48801,0.17 -2.77603,0.1793 -3.77791,0.015 z m -22.22012,-38.6188 c 1.11841,-0.852 1.44712,-1.3021 1.80157,-2.467 0.71271,-2.3422 0.83859,-2.7146 1.04574,-3.0937 0.41314,-0.7561 0.12716,-0.6423 -0.63729,0.2536 -0.42304,0.4958 -0.98753,1.2332 -1.25443,1.6387 -0.2669,0.4056 -0.52605,0.7929 -0.57588,0.8609 -0.29972,0.4088 -0.99174,1.7557 -1.17936,2.2954 -0.0803,0.231 -0.14597,0.5913 -0.14597,0.8007 0,0.4356 -0.008,0.4382 0.94562,-0.2886 z m 21.28866,13.7573 c 0.006,-0.137 0.0335,-0.1649 0.071,-0.071 0.034,0.085 0.0298,0.1864 -0.009,0.2254 -0.0391,0.039 -0.0669,-0.03 -0.0618,-0.1543 z m -0.23518,-0.4704 c 0.006,-0.137 0.0335,-0.1648 0.071,-0.071 0.034,0.085 0.0298,0.1863 -0.009,0.2254 -0.0391,0.039 -0.0669,-0.03 -0.0618,-0.1544 z m -0.23519,-0.5879 c 0.006,-0.137 0.0335,-0.1649 0.071,-0.071 0.034,0.085 0.0298,0.1863 -0.009,0.2254 -0.0391,0.039 -0.0669,-0.03 -0.0618,-0.1543 z m 33.287989,-1.6953 c 0,-0.1617 0.02669,-0.2279 0.05931,-0.147 0.03262,0.081 0.03262,0.2131 0,0.294 -0.03262,0.081 -0.05931,0.015 -0.05931,-0.147 z m -34.308979,-0.5007 c -0.3918,-0.7962 -1.30109,-2.4041 -1.5891,-2.8101 -0.12178,-0.1717 -0.22141,-0.3701 -0.22141,-0.441 0,-0.071 -0.0529,-0.1288 -0.1176,-0.1288 -0.0647,0 -0.11759,-0.069 -0.11759,-0.1542 0,-0.085 -0.0948,-0.2568 -0.21066,-0.3822 -0.11587,-0.1254 -0.37533,-0.4661 -0.57658,-0.7571 -0.20126,-0.2911 -0.66209,-0.8692 -1.02406,-1.2848 -0.36198,-0.4156 -0.65814,-0.8521 -0.65814,-0.9701 0,-1.2771 3.22678,3.2345 4.38818,6.1354 0.11652,0.2911 0.26164,0.6211 0.32248,0.7334 0.13367,0.2467 0.13911,0.3253 0.0224,0.3241 -0.0485,-5e-4 -0.14659,-0.1196 -0.21796,-0.2646 z m 33.842966,-1.2044 c 0.0024,-0.1941 0.02875,-0.2592 0.05857,-0.1448 0.02981,0.1144 0.02785,0.2732 -0.0044,0.3528 -0.03221,0.08 -0.05661,-0.014 -0.05421,-0.208 z m -0.235185,-0.7056 c 0.0024,-0.194 0.02875,-0.2592 0.05857,-0.1447 0.02981,0.1144 0.02785,0.2731 -0.0044,0.3527 -0.03221,0.08 -0.05661,-0.014 -0.05421,-0.208 z m -0.25811,-0.731 c 0,-0.2016 -0.0581,-0.3859 -0.12912,-0.4096 -0.07102,-0.024 -0.109601,-0.1736 -0.08574,-0.3331 0.03614,-0.2417 0.07744,-0.1931 0.247366,0.2913 0.136745,0.3897 0.16501,0.6204 0.08574,0.6996 -0.07927,0.079 -0.118246,0 -0.118246,-0.2482 z m -0.461086,-1.2779 c 0.0056,-0.137 0.03351,-0.1648 0.07104,-0.071 0.03397,0.085 0.02979,0.1863 -0.0093,0.2254 -0.03907,0.039 -0.06687,-0.03 -0.06176,-0.1544 z m -86.543835,-1.0432 c -0.15735,-0.6249 -0.17198,-1.2791 -0.0266,-1.1893 0.0575,0.036 0.13439,0.2372 0.17081,0.448 0.0364,0.2108 0.10026,0.5489 0.14189,0.7515 0.11914,0.5797 -0.13989,0.5705 -0.28611,-0.01 z m 51.42476,-0.1024 c -0.035,-0.091 0.0533,-0.3714 0.19631,-0.6224 1.6866,-2.9604 2.57552,-6.0412 2.57552,-8.9261 v -0.9855 l -0.44097,-0.1941 c -1.59429,-0.7019 -2.53509,-1.1429 -2.61644,-1.2264 -0.0323,-0.033 -0.27046,-0.1713 -0.52917,-0.3069 -1.96003,-1.0271 -4.40699,-2.7894 -4.68248,-3.3724 -0.47399,-1.0029 -1.23872,-3.2494 -1.73033,-5.083 -0.13872,-0.5174 -0.30392,-1.1259 -0.36711,-1.3523 -0.0632,-0.2264 -0.1667,-0.6232 -0.23003,-0.8819 -0.0633,-0.2587 -0.16947,-0.6821 -0.23586,-0.9408 -0.0664,-0.2587 -0.1492,-0.6428 -0.18401,-0.8536 -0.0348,-0.2108 -0.11036,-0.4124 -0.16789,-0.4479 -0.0575,-0.036 -0.1046,-0.1914 -0.1046,-0.3462 0,-0.1548 -0.0474,-0.403 -0.10535,-0.5516 -0.0579,-0.1486 -0.16893,-0.5083 -0.24664,-0.7993 -0.0777,-0.291 -0.18906,-0.621 -0.24743,-0.7334 -0.0584,-0.1123 -0.10614,-0.3114 -0.10614,-0.4425 0,-0.1311 -0.0474,-0.3303 -0.10544,-0.4426 -0.058,-0.1123 -0.27905,-0.7598 -0.49123,-1.4389 -0.72695,-2.3266 -2.58827,-7.9374 -2.70092,-8.1417 -0.0619,-0.1123 -0.11259,-0.3076 -0.11259,-0.434 0,-0.1264 -0.0529,-0.2626 -0.11759,-0.3025 -0.17602,-0.1088 -0.14281,-0.6468 0.0399,-0.6468 0.21016,0 0.22909,0.049 1.41956,3.7042 0.56881,1.7462 1.08166,3.2669 1.13967,3.3792 0.058,0.1123 0.10548,0.3076 0.10548,0.434 0,0.1264 0.0529,0.2625 0.11759,0.3025 0.0647,0.04 0.11759,0.1761 0.11759,0.3025 0,0.1264 0.0475,0.3217 0.10551,0.4341 0.058,0.1123 0.22309,0.601 0.36678,1.0861 0.1437,0.4851 0.30186,0.9878 0.35146,1.1171 0.0496,0.1294 0.15527,0.4733 0.23482,0.7644 0.0795,0.291 0.18528,0.6614 0.23495,0.8231 0.0852,0.2774 0.20932,0.7335 0.49597,1.8227 0.16455,0.6253 0.28484,1.0777 0.43769,1.6463 0.0695,0.2587 0.31141,1.1662 0.53747,2.0168 0.47544,1.7887 1.25995,4.2276 1.59207,4.9493 0.12616,0.2741 0.22939,0.5507 0.22939,0.6146 0,0.064 0.14552,0.2087 0.32338,0.3217 0.17786,0.113 0.40276,0.2887 0.49977,0.3905 0.097,0.1018 0.59972,0.4807 1.11713,0.8421 1.78648,1.2477 3.66018,2.2751 5.76204,3.1594 1.42512,0.5997 7.51877,2.1585 9.58379,2.4517 0.48507,0.069 1.26256,0.1791 1.72775,0.2449 0.46519,0.066 1.01215,0.1196 1.21547,0.1196 0.20332,0 0.74875,0.102 1.21207,0.2267 1.3646,0.3671 2.53771,0.4883 3.38703,0.3497 0.83596,-0.1364 0.83439,-0.1358 2.20209,-0.8024 1.08157,-0.5272 1.54928,-0.5849 2.74272,-0.3384 0.50552,0.1044 0.71759,0.1068 0.81533,0.01 0.0977,-0.098 -0.0475,-0.2224 -0.55855,-0.4793 -0.90504,-0.4549 -1.3058,-0.5319 -1.93509,-0.3718 -0.97294,0.2477 -1.18922,0.2661 -1.28597,0.1096 -0.17654,-0.2857 0.0244,-0.4575 0.83396,-0.713 0.96736,-0.3053 1.38515,-0.262 2.3587,0.2447 0.93895,0.4887 1.21331,0.5844 1.37996,0.4814 0.0913,-0.056 -0.0707,-0.2189 -0.4586,-0.46 -0.32985,-0.2051 -0.62452,-0.3728 -0.65484,-0.3728 -0.0303,0 -0.19641,-0.093 -0.36909,-0.2057 -0.40798,-0.2674 -1.07016,-0.4959 -1.4433,-0.4981 -0.1626,-10e-4 -0.58052,0.1024 -0.92871,0.2296 -0.68343,0.2498 -0.83352,0.2293 -0.83352,-0.1138 0,-0.6365 2.11534,-0.9687 2.99503,-0.4704 0.93892,0.5319 1.19867,0.6826 1.59108,0.923 0.22637,0.1386 0.49817,0.2523 0.60402,0.2525 0.12081,3e-4 0.20868,0.1208 0.23608,0.3239 0.08,0.593 -0.0154,0.8235 -0.4058,0.9798 -0.20653,0.083 -0.5154,0.3127 -0.68639,0.5112 l -0.31089,0.361 -1.50482,-0.035 -1.50483,-0.035 -1.00651,0.4902 c -0.55358,0.2696 -1.11538,0.5402 -1.24844,0.6014 -0.41579,0.1912 -3.38047,0 -3.9914,-0.2526 -0.24127,-0.1012 -1.51389,-0.3185 -2.35185,-0.4016 -0.25871,-0.026 -0.96759,-0.1094 -1.57531,-0.186 -0.60772,-0.077 -1.24272,-0.1048 -1.41111,-0.063 -0.4044,0.101 -2.29428,1.02 -2.34445,1.1401 -0.0215,0.052 -0.089,0.094 -0.14994,0.094 -0.29067,0 -4.04632,2.663 -5.98447,4.2433 -0.16169,0.1319 -0.42627,0.3207 -0.58796,0.4196 -0.17472,0.1068 -0.50318,0.6065 -0.80964,1.2318 -0.51248,1.0455 -0.89127,1.4618 -1.02145,1.1225 z m 3.59498,-4.4642 c 0.48507,-0.3786 0.96634,-0.7564 1.06949,-0.8396 0.10315,-0.083 0.52649,-0.3811 0.94074,-0.662 0.41426,-0.281 0.85577,-0.606 0.98115,-0.7223 0.12538,-0.1164 0.29736,-0.2116 0.38218,-0.2116 0.0848,0 0.15421,-0.053 0.15421,-0.1175 0,-0.065 0.0566,-0.1176 0.12581,-0.1176 0.0692,0 0.347,-0.1479 0.61736,-0.3286 0.27036,-0.1807 0.85175,-0.5076 1.29199,-0.7265 0.56909,-0.283 0.75203,-0.4251 0.63296,-0.4917 -0.0921,-0.052 -1.25273,-0.3372 -2.57915,-0.6346 l -2.41167,-0.5409 -0.77636,0.3322 c -0.42699,0.1827 -0.80713,0.4109 -0.84475,0.5071 -0.0376,0.096 -0.0937,0.5196 -0.12455,0.9408 -0.0837,1.1421 -0.45492,2.9458 -0.85713,4.165 l -0.21419,0.6492 0.36498,-0.2565 c 0.20074,-0.1411 0.76186,-0.5663 1.24693,-0.9449 z m 0.0915,-5.7466 c -0.25864,-0.1642 -0.44431,-0.1083 -0.44431,0.1336 0,0.2062 0.0338,0.2173 0.29732,0.097 0.21568,-0.098 0.25604,-0.1616 0.14699,-0.2308 z m -55.17745,8.25 c 0.0718,-0.5726 0.44543,-1.603 0.63966,-1.7639 0.0391,-0.032 0.2002,-0.244 0.35809,-0.4703 0.15789,-0.2264 0.56094,-0.7026 0.89568,-1.0584 1.08333,-1.1512 1.32203,-1.4617 1.49151,-1.9402 0.0916,-0.2587 0.28926,-0.7478 0.43919,-1.0869 0.21087,-0.477 0.24741,-0.6856 0.1614,-0.9215 -0.11074,-0.3036 -0.2214,-0.3759 -2.22785,-1.4555 -0.51741,-0.2784 -0.99102,-0.5521 -1.05246,-0.6084 -0.20886,-0.1912 -0.71572,-0.1031 -1.41998,0.2468 -0.38641,0.192 -0.83486,0.351 -0.99655,0.3532 -0.16168,0 -0.47065,0.1119 -0.68658,0.2435 -0.25151,0.1534 -0.48225,0.2109 -0.64205,0.1602 -0.13719,-0.043 -1.62739,-0.1118 -3.31156,-0.1516 l -3.06212,-0.073 -0.76435,-0.3672 c -1.18652,-0.57 -2.53232,-1.6217 -2.81444,-2.1993 -0.13183,-0.27 -0.38816,-0.6496 -0.5696,-0.8436 -1.29096,-1.3805 -2.34098,-3.4672 -2.73193,-5.4292 -0.34227,-1.7177 0.20129,-5.2467 1.08368,-7.0356 0.24453,-0.4958 3.4432,-3.7042 3.69292,-3.7042 0.0791,0 0.16148,-0.043 0.18304,-0.096 0.0457,-0.1124 1.29296,-0.9475 1.79263,-1.2004 0.43358,-0.2194 2.8074,-0.228 3.65583,-0.013 1.64119,0.4154 2.5041,0.6852 2.82222,0.8824 0.12935,0.08 0.47331,0.2143 0.76435,0.2981 0.29104,0.084 0.62105,0.2001 0.73336,0.2585 0.11231,0.058 0.285,0.1061 0.38377,0.1061 0.0988,0 0.27147,0.047 0.38377,0.1047 0.11231,0.058 0.46878,0.229 0.79216,0.3808 0.39027,0.1833 1.02287,0.7115 1.88148,1.571 1.36634,1.3678 1.7486,1.5889 2.74721,1.5889 0.9986,0 1.75092,0.5716 2.54446,1.9332 0.28338,0.4863 0.72561,1.0221 1.11245,1.3478 0.86548,0.7289 1.44413,1.3094 1.62157,1.6269 0.16837,0.3012 0.19842,1.6969 0.0431,2.0022 -0.0571,0.1123 -0.17619,0.362 -0.26458,0.5549 -0.30492,0.6654 -1.51437,1.741 -2.48317,2.2083 -1.149,0.5543 -2.4935,1.1815 -3.02801,1.4127 -0.22636,0.098 -0.66939,0.2937 -0.9845,0.4351 -0.82262,0.3691 -1.93222,0.7085 -2.31647,0.7085 -0.43635,0 -0.51887,0.165 -0.35908,0.7181 0.0727,0.2518 0.19552,0.6751 0.27282,0.9407 0.0773,0.2656 0.22281,0.5131 0.32337,0.55 0.10057,0.037 0.2093,0.097 0.24164,0.1345 0.0323,0.037 0.34984,0.2194 0.70556,0.4053 2.36277,1.2347 2.50558,1.367 2.42781,2.2491 -0.074,0.8393 -0.23437,1.4551 -0.5273,2.0246 -0.22993,0.447 -0.55629,0.8309 -2.22323,2.6152 -0.27452,0.2938 -0.49941,0.5702 -0.49977,0.614 -3.6e-4,0.044 -0.0668,0.1498 -0.14765,0.2352 -0.19385,0.205 -0.67595,1.1401 -0.67693,1.3131 -4.3e-4,0.075 -0.10987,0.2946 -0.24321,0.4886 l -0.24243,0.3528 z m -2.59325,-9.1722 c 0.04,-0.065 0.22581,-0.1176 0.41298,-0.1176 0.37786,0 0.65324,-0.099 1.73796,-0.6232 0.56258,-0.272 0.72133,-0.4022 0.66261,-0.5434 -0.0747,-0.1795 -0.23478,-0.7355 -0.36449,-1.2655 -0.0383,-0.1566 -0.23005,-0.3227 -0.49158,-0.426 -0.36694,-0.1448 -0.55597,-0.1464 -1.31072,-0.011 -0.92428,0.1656 -1.56635,0.1311 -2.4999,-0.1344 -1.22823,-0.3494 -1.77714,-0.9603 -1.78549,-1.9872 -0.006,-0.7562 0.2191,-1.1989 0.83862,-1.6484 0.27092,-0.1966 0.49455,-0.3839 0.49696,-0.4162 0.002,-0.032 -0.31189,-0.4023 -0.69844,-0.8221 -0.70774,-0.7687 -1.11595,-1.4661 -1.46614,-2.5049 -0.21144,-0.6272 -0.18895,-0.7543 0.3269,-1.8471 0.19844,-0.4204 0.53269,-1.4334 0.74278,-2.2511 0.21008,-0.8176 0.49171,-1.7275 0.62584,-2.022 0.13413,-0.2944 0.24387,-0.5528 0.24387,-0.5741 0,-0.021 -0.56879,-0.018 -1.26398,0.01 -1.00514,0.037 -1.39342,0.1041 -1.89611,0.3264 -0.78739,0.3482 -0.83806,0.3475 -0.83806,-0.012 0,-0.2309 0.11703,-0.3505 0.55857,-0.5709 0.68044,-0.3397 0.97296,-0.3986 2.48691,-0.5004 0.7294,-0.049 1.24132,-0.035 1.333,0.037 0.10767,0.084 0.28353,-0.021 0.63578,-0.3801 0.51369,-0.5237 0.52223,-0.6846 0.0422,-0.7959 -0.16169,-0.038 -0.50565,-0.1291 -0.76435,-0.2037 -1.43249,-0.4129 -3.58557,-0.5814 -4.34204,-0.3398 -0.58499,0.1868 -2.42237,1.3952 -3.00395,1.9755 -0.23356,0.2331 -0.84613,0.7991 -1.36126,1.2578 -1.01519,0.904 -1.42265,1.529 -1.79448,2.7526 -0.44501,1.4643 -0.52632,2.0438 -0.44746,3.1891 0.0418,0.6066 0.0723,1.2088 0.0678,1.3382 -0.0682,1.9718 -0.0515,2.0977 0.39379,2.9716 0.59091,1.1594 1.27999,2.1165 2.28244,3.1702 0.20851,0.2191 0.49464,0.5673 0.63586,0.7737 0.30808,0.4503 0.75901,0.9044 0.898,0.9044 0.0553,0 0.20314,0.095 0.32852,0.2102 0.12537,0.1156 0.59837,0.3902 1.0511,0.6102 0.81312,0.3952 0.84825,0.401 2.88102,0.4752 3.39849,0.1241 4.56726,0.1236 4.64491,0 z m -8.6187,-5.3798 c -0.42185,-1.1204 -0.46359,-1.5307 -0.23485,-2.3089 0.1503,-0.5112 1.35632,-1.8363 1.67138,-1.8363 0.0912,0 0.18345,-0.04 0.20501,-0.088 0.0652,-0.1466 1.04506,-0.6173 1.28503,-0.6173 0.15681,0 0.22407,0.083 0.22407,0.2763 0,0.2228 -0.15252,0.3539 -0.78633,0.6756 -0.43248,0.2195 -1.06667,0.6553 -1.40931,0.9684 -0.85631,0.7827 -0.98186,1.327 -0.62846,2.7246 0.058,0.2291 4.4e-4,0.5291 -0.10144,0.5291 -0.0568,0 -0.15813,-0.1455 -0.2251,-0.3233 z m 13.20481,1.5908 c 0.38806,-0.1334 1.15535,-0.452 1.70509,-0.708 0.54975,-0.256 1.23767,-0.5722 1.52871,-0.7027 0.29104,-0.1306 0.7326,-0.3369 0.98125,-0.4586 0.24865,-0.1217 0.49897,-0.2213 0.55628,-0.2213 0.18364,0 1.33275,-0.7873 1.65576,-1.1344 0.38085,-0.4092 0.70388,-0.9932 0.91732,-1.6584 0.25476,-0.794 0.0246,-1.3008 -1.0147,-2.2347 -0.47107,-0.4233 -1.13392,-1.1718 -1.47299,-1.6634 -1.02427,-1.485 -1.31082,-1.6705 -2.85764,-1.849 -0.36811,-0.043 -0.42645,-0.027 -0.26832,0.072 0.28216,0.1764 0.59672,0.8834 0.51192,1.1506 -0.0978,0.3082 0.8929,0.8486 1.40852,0.7682 0.30763,-0.048 0.43719,0.025 0.91128,0.5126 0.30397,0.3126 0.5527,0.6432 0.55274,0.7345 8e-5,0.2147 -0.53851,1.1435 -0.92978,1.6033 -0.16768,0.1971 -0.40997,0.5013 -0.5384,0.676 -0.25717,0.3497 -0.93858,0.7234 -1.11755,0.6128 -0.13573,-0.084 -0.0591,-2.0246 0.10665,-2.7021 0.0629,-0.2569 0.10399,-0.4736 0.0914,-0.4816 -0.0126,-0.01 -0.23362,-0.1551 -0.49117,-0.3267 -0.56247,-0.3749 -0.61148,-0.38 -0.70886,-0.073 -0.10268,0.3235 -0.517,0.737 -0.91014,0.9085 -0.39145,0.1706 -0.81534,0.016 -1.02387,-0.3737 -0.19578,-0.3658 -0.11485,-1.303 0.11253,-1.303 0.12409,0 0.17639,0.1254 0.17639,0.4228 0,0.4787 0.22027,0.8119 0.53662,0.8119 0.31163,0 0.34165,-0.113 0.23602,-0.8886 -0.11381,-0.8357 -0.0686,-0.9929 0.28569,-0.9929 0.2455,0 0.41158,-0.1959 0.41158,-0.4856 0,-0.062 -0.14002,-0.2433 -0.31116,-0.4019 -0.27239,-0.2525 -0.42028,-0.2884 -1.18722,-0.2884 -0.48184,0 -1.15473,-0.081 -1.49531,-0.18 -0.85992,-0.25 -1.06119,-0.6907 -0.97842,-2.1424 l 0.059,-1.035 -0.89507,-0.2737 c -0.49229,-0.1505 -1.04643,-0.33 -1.23142,-0.3988 -0.30904,-0.1149 -0.3717,-0.088 -0.77167,0.3355 -0.97171,1.0282 -1.53291,2.062 -2.06925,3.812 -0.14866,0.4851 -0.46032,1.2886 -0.69258,1.7856 -0.57823,1.2373 -0.55444,1.7951 0.13229,3.1021 0.25692,0.489 0.55239,0.8257 1.42122,1.6192 0.73269,0.6692 0.63696,1.3264 -0.22289,1.53 -0.16772,0.04 -0.44554,0.2128 -0.61736,0.3846 -0.35884,0.3589 -0.42312,1.0107 -0.13959,1.4155 0.37495,0.5353 2.28478,1.0982 3.16555,0.9329 0.43953,-0.082 0.44121,-0.085 0.25227,-0.3733 -0.38298,-0.5845 0.0562,-0.6875 0.79791,-0.1872 1.14241,0.7706 1.9606,0.8536 3.43137,0.3479 z m -6.23241,-0.3317 c -0.52576,-0.2579 -0.99953,-0.7376 -0.99953,-1.012 0,-0.099 0.10245,-0.3109 0.22767,-0.4701 0.21851,-0.2778 0.23254,-0.2803 0.34864,-0.063 0.0665,0.1243 0.09,0.257 0.0522,0.2948 -0.0378,0.038 -0.0378,0.1923 8e-5,0.3432 0.0706,0.2814 0.62111,0.5597 1.10732,0.5597 0.3652,0 0.42303,0.1922 0.12138,0.4035 -0.32028,0.2244 -0.28186,0.2268 -0.85775,-0.056 z m 10.84318,-4.8897 c -0.14848,-0.1484 -0.0891,-0.4973 0.16215,-0.952 0.34721,-0.6285 0.52316,-0.7847 0.77421,-0.6874 0.20707,0.08 0.20686,0.089 -0.006,0.2456 -0.12127,0.089 -0.36153,0.4582 -0.53391,0.8198 -0.17238,0.3616 -0.35097,0.6199 -0.39686,0.574 z m -9.61136,-0.9338 c -0.16081,-0.423 -0.13546,-2.0591 0.0365,-2.354 0.32479,-0.5571 1.48674,-1.6953 1.73066,-1.6953 0.29158,0 0.0639,0.4399 -0.52074,1.0061 -0.94176,0.9122 -1.04986,1.1807 -0.95134,2.3634 0.0576,0.692 0.0431,0.9814 -0.0493,0.9814 -0.0721,0 -0.18267,-0.1357 -0.24574,-0.3016 z m 0.89893,-0.028 c -0.0322,-0.052 0.14721,-0.2945 0.39875,-0.5387 0.63191,-0.6133 1.00101,-1.4046 0.97979,-2.1005 -0.0145,-0.4764 0.0158,-0.5586 0.20652,-0.5586 0.19618,0 0.22355,0.091 0.22355,0.7463 0,0.8902 -0.19788,1.3393 -0.89912,2.0405 -0.48252,0.4826 -0.78172,0.6178 -0.90949,0.411 z m 7.79901,0.4476 c 0.19627,-0.1759 0.79808,-1.0467 0.92745,-1.3419 0.12738,-0.2908 0.12214,-0.3703 -0.0347,-0.5272 -0.27471,-0.2747 -0.5361,-0.048 -0.73775,0.6393 -0.0941,0.3207 -0.27172,0.7865 -0.39477,1.0351 -0.28786,0.5817 -0.30478,0.9534 -0.0248,0.5443 0.10943,-0.16 0.2285,-0.3172 0.26458,-0.3496 z m -0.31377,-1.1759 c 0.0365,-0.1617 0.10352,-0.4138 0.14888,-0.5603 0.0629,-0.2032 0.0425,-0.251 -0.0859,-0.2017 -0.20597,0.079 -0.4479,0.7157 -0.4479,1.1787 0,0.3227 0.009,0.3286 0.15928,0.1092 0.0876,-0.1276 0.18916,-0.3642 0.22569,-0.5259 z m 0.4617,-1.3171 c -0.10975,-0.1097 -0.14111,-0.078 -0.14111,0.1412 0,0.2195 0.0314,0.2508 0.14111,0.1411 0.10975,-0.1098 0.10975,-0.1725 0,-0.2823 z m -0.85647,0.1028 c -0.29711,-0.2327 -0.93094,-0.5434 -0.93094,-0.4563 0,0.1116 0.66522,0.4868 0.87215,0.492 0.0593,0 0.0857,-0.015 0.0588,-0.036 z m -2.50744,-3.4894 c -0.60586,-0.573 -0.89294,-0.7206 -0.89294,-0.4591 0,0.071 -0.11334,0.288 -0.25185,0.4825 -0.33271,0.4672 -0.18024,0.5604 0.92097,0.5627 h 0.8455 z m -1.66225,-0.1437 c 0.13325,-0.1556 0.22702,-0.4491 0.23192,-0.7259 0.007,-0.4145 -0.0476,-0.5076 -0.50885,-0.8621 -0.58634,-0.4507 -0.70566,-0.4061 -0.80026,0.2992 -0.0824,0.6144 0.0215,1.0136 0.34139,1.3116 0.32645,0.3042 0.45938,0.3 0.7358,-0.023 z m 18.48079,24.2654 c -0.41692,-0.4607 0.28777,-1.1365 0.72704,-0.6973 0.19069,0.1907 0.178,0.5444 -0.0269,0.7493 -0.22836,0.2283 -0.46219,0.211 -0.70016,-0.052 z m 3.73152,-1.4538 c -0.26099,-0.4193 0.47034,-1.9095 1.54361,-3.1453 1.59864,-1.8408 2.33196,-2.4554 3.58931,-3.0078 0.4204,-0.1848 0.90485,-0.437 1.07656,-0.5605 0.31558,-0.227 0.56974,-0.1898 0.56974,0.084 0,0.2596 -0.4957,0.6188 -1.6463,1.1928 -0.96699,0.4824 -1.27702,0.7191 -2.30687,1.7612 -0.65436,0.6621 -1.28754,1.3694 -1.40707,1.5718 -0.11952,0.2023 -0.25883,0.3679 -0.30956,0.3679 -0.0507,0 -0.0922,0.075 -0.0922,0.1666 0,0.092 -0.0397,0.1842 -0.0882,0.2057 -0.12458,0.055 -0.61736,1.0287 -0.61736,1.2193 0,0.2266 -0.20222,0.3205 -0.31163,0.1448 z m 4.51556,-8.5662 c -0.43283,-0.2521 -0.1056,-0.9098 0.37653,-0.7567 0.29693,0.094 0.33806,0.7036 0.0548,0.8123 -0.22236,0.085 -0.17995,0.091 -0.43136,-0.056 z m 12.25903,-36.0846 c 0,-0.1902 0.048,-0.3755 0.10671,-0.4118 0.14877,-0.092 0.82534,-1.7443 1.00982,-2.4662 0.27066,-1.0592 0.34225,-2.2881 0.34787,-5.9715 0.004,-2.7247 0.0416,-3.6459 0.1525,-3.7571 0.27528,-0.276 0.3946,0.04 0.25312,0.6706 -0.0718,0.3198 -0.18619,1.2311 -0.25429,2.0251 -0.10663,1.2435 -0.0968,1.5409 0.071,2.1443 0.21606,0.7771 0.27969,4.0357 0.0909,4.6553 -0.0571,0.1875 -0.17491,0.5791 -0.26173,0.8701 -0.30627,1.0267 -1.15446,2.587 -1.4063,2.587 -0.0603,0 -0.10958,-0.1556 -0.10958,-0.3458 z m -4.58611,-7.4153 c 0,-0.065 0.0529,-0.1176 0.11759,-0.1176 0.0647,0 0.11759,0.053 0.11759,0.1176 0,0.065 -0.0529,0.1176 -0.11759,0.1176 -0.0647,0 -0.11759,-0.053 -0.11759,-0.1176 z m 7.05555,-12.5788 c 0,-0.5882 1.03146,-1.8286 1.7916,-2.1546 1.06592,-0.4572 1.72641,-0.5403 2.45359,-0.3087 0.68751,0.2189 0.92889,0.3753 0.92889,0.6018 0,0.2665 -0.31835,0.4107 -0.5018,0.2272 -0.2133,-0.2133 -2.09158,-0.1694 -2.56694,0.06 -0.66932,0.3229 -1.12087,0.7126 -1.47442,1.2722 -0.35399,0.5603 -0.63092,0.6929 -0.63092,0.3021 z"
       id="path61" /></g></svg>
