<?xml version="1.0" encoding="UTF-8" standalone="no"?>
<!-- Created with Inkscape (http://www.inkscape.org/) -->

<svg
   width="123.94242mm"
   height="114.29241mm"
   viewBox="0 0 123.94243 114.29241"
   version="1.1"
   id="svg1"
   xml:space="preserve"
   xmlns="http://www.w3.org/2000/svg"
   xmlns:svg="http://www.w3.org/2000/svg"><defs
     id="defs1" /><g
     id="layer1"
     transform="translate(17.906271,-145.11284)"><path
       style="fill:#4d4d4d"
       d="m 2.5534865,259.01783 c -0.12815,-0.2102 -0.23321,-0.42373 -0.23345,-0.47451 -2.4e-4,-0.0508 -0.10728,-0.0352 -0.23786,0.0347 -0.33328,0.17836 -0.86564,-0.15558 -1.00609,-0.63112 -0.0918,-0.311 -0.18094005,-0.37989 -0.57189005,-0.44228 -0.53234,-0.0849 -0.84787,-0.4104 -0.95584,-0.98593 -0.0478,-0.2546 -0.12783,-0.37444 -0.22521,-0.33707 -0.0831,0.0319 -0.33896995,-0.0205 -0.56858995,-0.11646 -0.41609,-0.17385 -0.68279,-0.5474 -0.83042,-1.1631 -0.0427,-0.17786 -0.14335,-0.32338 -0.22378,-0.32338 -0.31102,0 -0.90407,-1.11851 -0.90407,-1.7051 0,-0.30821 0.23724,-0.9649 0.51621,-1.4289 0.44177,-0.73477 0.9957,-0.8905 5.15409,-1.44903 2.46624,-0.33126 5.59966,-0.88657 8.5548595,-1.51613 0.29104,-0.062 0.74083,-0.15115 0.99954,-0.1981 0.2587,-0.047 0.52328,-0.12443 0.58796,-0.17215 0.0647,-0.0477 0.75259,-0.14867 1.5287,-0.22433 2.66138,-0.25945 4.57296,-0.9307 7.05556,-2.47759 0.72118,-0.44936 1.43612,-0.82392 4.11574,-2.15627 2.1316,-1.05986 3.31471,-1.69632 5.23287,-2.81502 0.22637,-0.13202 0.68939,-0.39061 1.02894,-0.57464 0.33954,-0.18403 0.92163,-0.50136 1.29351,-0.70518 1.03921,-0.56957 3.32915,-1.72468 5.06952,-2.55722 1.77794,-0.85051 3.42764,-1.89065 4.27969,-2.69836 0.31763,-0.3011 0.6721,-0.5829 0.7877,-0.62622 0.1156,-0.0433 0.49485,-0.41265 0.84277,-0.82071 0.69044,-0.80979 1.66038,-1.80406 2.07625,-2.12833 0.28858,-0.22502 1.47936,-1.00257 2.49569,-1.62963 0.56852,-0.35076 3.01693,-2.2428 3.86767,-2.98879 0.26827,-0.23523 2.60328,-2.21801 4.31292,-3.66233 0.54398,-0.45956 1.06826,-0.90676 1.65398,-1.41082 0.13793,-0.11869 0.68032,-0.58173 1.20533,-1.02898 0.525,-0.44724 0.95455,-0.85378 0.95455,-0.90342 0,-0.0496 -0.10381,-0.12319 -0.23068,-0.16345 -0.15251,-0.0484 -0.44143,0.0615 -0.85255,0.32441 -1.05794,0.67647 -3.66788,1.96721 -3.97779,1.96721 -0.0639,0 -0.20813,0.0467 -0.32044,0.10387 -0.1123,0.0571 -0.33648,0.15589 -0.49817,0.21946 -0.16169,0.0636 -0.42627,0.17041 -0.58796,0.23744 -0.16169,0.067 -0.61149,0.23801 -0.99954,0.37997 -0.38806,0.14196 -0.81139,0.30053 -0.94074,0.35238 -0.12935,0.0518 -0.4204,0.16189 -0.64676,0.24455 -0.89254,0.32592 -5.19462,2.29032 -5.64445,2.57733 -0.16169,0.10317 -0.55856,0.31681 -0.88194,0.47475 -0.32338,0.15795 -0.61442,0.31434 -0.64676,0.34755 -0.11231,0.11535 -0.76553,0.48683 -0.97014,0.55172 -0.11318,0.0359 -0.20579,0.10559 -0.20579,0.15487 0,0.0493 -0.15875,0.15537 -0.35277,0.23574 -0.19403,0.0804 -0.35278,0.18121 -0.35278,0.2241 0,0.0429 -0.15388,0.16887 -0.34196,0.27997 -0.39432,0.23293 -1.13211,0.83372 -1.8923,1.54091 -0.29104,0.27075 -0.71437,0.6212 -0.94074,0.77877 -0.22637,0.15758 -1.6022,1.48148 -3.05741,2.94201 -1.45521,1.46052 -2.8575,2.81093 -3.1162,3.00091 -0.25871,0.18998 -0.49683,0.37919 -0.52917,0.42048 -0.16727,0.21353 -2.69476,1.76208 -3.65631,2.24016 -1.33391,0.66321 -2.17854,1.03751 -2.34122,1.03751 -0.0663,0 -0.23882,0.0612 -0.38346,0.13595 -0.56475,0.29194 -0.6792,0.33442 -0.90121,0.33442 -0.12642,0 -0.26255,0.0529 -0.30252,0.11759 -0.04,0.0647 -0.1761,0.11759 -0.30252,0.11759 -0.12641,0 -0.32172,0.0478 -0.43403,0.10613 -0.1123,0.0584 -0.44232,0.17024 -0.73336,0.24859 -0.29104,0.0784 -0.635,0.18536 -0.76435,0.23779 -0.12935,0.0524 -0.36748,0.12134 -0.52917,0.15313 -0.16169,0.0318 -1.24648,0.29441 -2.41064,0.58361 -1.16417,0.28921 -3.14855,0.7718 -4.40973,1.07243 -1.26118,0.30063 -2.42534,0.59147 -2.58703,0.64632 -0.16169,0.0549 -0.53211,0.16394 -0.82315,0.24242 -0.29104,0.0785 -0.62105,0.19045 -0.73336,0.24882 -0.11231,0.0584 -0.30762,0.10613 -0.43403,0.10613 -0.12641,0 -0.26255,0.0529 -0.30252,0.11759 -0.04,0.0647 -0.1761,0.1176 -0.30252,0.1176 -0.1264095,0 -0.3217195,0.0471 -0.4340295,0.10472 -0.1123,0.0576 -0.45554,0.21635 -0.76275,0.35278 -2.28161,1.01324 -3.87483,1.97437 -6.4382,3.88391 -1.68887005,1.2581 -1.99959005,1.53007 -2.12686005,1.8616 -0.12385,0.32261 -0.5983,0.35364 -1.15567,0.0756 -0.35915995,-0.17917 -0.99432995,-0.9329 -1.32717995,-1.57489 -0.0838,-0.16169 -0.18151,-0.32044 -0.21706,-0.35278 -0.0356,-0.0323 -0.18899,-0.244 -0.34096,-0.47037 -0.34875,-0.51949 -1.53603,-1.67268 -2.16933,-2.10704 -0.51777,-0.35513 -1.23562,-0.73259 -2.36433,-1.2432 -0.69149,-0.31282 -1.05296,-0.49317 -1.99987,-0.99785 -0.25915,-0.13812 -0.8676905,-0.54522 -1.3523205,-0.90468 -1.27748,-0.94753 -2.91053,-2.03797 -3.05209,-2.03797 -0.0672,0 -0.12211,-0.0467 -0.12211,-0.10388 0,-0.0571 -0.0926,-0.13416 -0.20578,-0.17119 -0.11319,-0.037 -0.47037,-0.22723 -0.79375,-0.4227 -0.32338,-0.19546 -0.87901,-0.49904 -1.23473,-0.67462 -0.77118,-0.38063 -1.19918,-0.79086 -1.46782,-1.40684 -0.10903,-0.25001 -0.24671,-0.54645 -0.30595,-0.65876 -0.37771,-0.71606 0.29141,-2.02887 1.18428,-2.32354 0.49721,-0.16409 0.87631,-0.10201 1.62569,0.26621 0.2054,0.10093 0.32715,0.099 0.49817,-0.008 0.27393,-0.17107 1.12781,-0.18757 1.22906,-0.0238 0.11354,0.18372 0.56113,0.13882 1.06648,-0.10699 0.39756,-0.19338 0.51106,-0.20397 0.81675,-0.0763 0.21004,0.0878 0.62375,0.12605 1.01313,0.0938 0.5053705,-0.0419 0.7338805,-0.005 0.9846105,0.15936 0.17958,0.11767 0.5253,0.22415 0.76827,0.23664 0.31996,0.0165 0.69149,0.19616 1.34755,0.65184 2.51561,1.74728 5.58583,2.7964 8.20082995,2.80229 1.46277005,0.003 2.44915005,-0.23503 4.49960005,-1.08716 1.83147,-0.76112 10.5231695,-5.06651 11.8180595,-5.85401 0.54974,-0.33433 1.18448,-0.71437 1.41052,-0.84452 0.22604,-0.13015 0.62292,-0.3792 0.88195,-0.55344 0.5248,-0.35301 1.15614,-0.72009 2.29364,-1.33359 0.98784,-0.53278 2.52497,-1.38466 3.0868,-1.71072 0.24254,-0.14075 0.63915,-0.36813 0.88136,-0.50527 0.24221,-0.13715 0.66185,-0.40173 0.93253,-0.58797 0.27068,-0.18623 0.54876,-0.3386 0.61795,-0.3386 0.0692,0 0.1258,-0.04 0.1258,-0.0889 0,-0.0489 0.14552,-0.1555 0.32338,-0.23691 0.17786,-0.0814 0.90547,-0.55736 1.6169,-1.05764 1.35904,-0.95569 1.71254,-1.40169 1.88603,-2.37952 0.0587,-0.33104 0.88333,-2.59202 1.35093,-3.70417 0.0544,-0.12935 0.1661,-0.44685 0.24825,-0.70556 0.0821,-0.2587 0.19149,-0.52064 0.24296,-0.58208 0.0515,-0.0614 0.0936,-0.20768 0.0936,-0.32497 0,-0.1173 0.0529,-0.31838 0.1176,-0.44686 0.0647,-0.12847 0.1705,-0.3387 0.23518,-0.46717 0.0647,-0.12848 0.11759,-0.31441 0.11759,-0.41317 0,-0.0988 0.0475,-0.27147 0.10552,-0.38378 0.058,-0.1123 0.22317,-0.60106 0.36699,-1.08613 0.14381,-0.48507 0.3016,-1.01424 0.35064,-1.17593 0.40324,-1.32941 0.84767,-2.92911 1.16796,-4.20393 0.44639,-1.77677 0.55215,-2.29732 0.87802,-4.32153 0.16659,-1.03482 0.35648,-2.17571 0.42197,-2.53532 0.0655,-0.35961 0.12035,-0.88878 0.12189,-1.17593 0.001,-0.28714 0.0521,-0.73375 0.11235,-0.99245 0.0602,-0.25871 0.11718,-1.16352 0.12651,-2.0107 0.009,-0.84717 0.0613,-1.98488 0.11555,-2.52824 0.0542,-0.54335 0.12038,-1.53226 0.14699,-2.19756 l 0.0484,-1.20965 -0.33965,-0.37785 c -0.97326,-1.08272 -2.20144,-3.6247 -2.75347,-5.69892 -0.0781,-0.29365 -0.23066,-0.12495 -0.62373,0.68998 -0.22046,0.45706 -0.48504,0.86255 -0.58796,0.90108 -0.10292,0.0385 -0.2495,0.15271 -0.32572,0.25373 l -0.1386,0.18368 -0.0803,-0.20723 c -0.0442,-0.11398 -0.0419,-0.37856 0.005,-0.58796 0.047,-0.20941 0.10918,-0.9195 0.13814,-1.57798 0.0568,-1.2918 -0.0385,-1.73237 -0.64397,-2.97729 -0.33568,-0.69017 -1.50403,-1.94285 -2.08369,-2.23407 -0.19289,-0.0969 -0.37717,-0.20275 -0.40951,-0.23519 -0.0323,-0.0324 -0.29692,-0.18672 -0.58796,-0.34285 -0.73613,-0.3949 -1.37197,-0.88946 -2.04241,-1.58858 -0.9607,-1.00179 -1.45494,-1.80912 -2.34696,-3.83368 -0.10044,-0.22796 -0.32087,-0.57192 -0.48986,-0.76435 -0.16898,-0.19244 -0.54552,-0.66739 -0.83676,-1.05545 -0.29124,-0.38805 -0.59272,-0.78561 -0.66996,-0.88345 -0.99807,-1.26428 -1.82593,-3.19537 -2.0759,-4.84232 -0.21998,-1.44932 0.18239,-3.66644 0.88511,-4.87711 0.35655,-0.61427 1.133,-1.383 1.58672,-1.57094 0.26682,-0.11052 0.34558,-0.2187 0.34558,-0.47471 0,-0.18236 0.0529,-0.36427 0.11759,-0.40425 0.0647,-0.04 0.11759,-0.17038 0.11759,-0.28981 0,-0.23679 0.44053,-1.14518 0.67616,-1.39428 0.0808,-0.0855 0.14699,-0.19132 0.14699,-0.23524 0,-0.0439 0.19844,-0.29462 0.44097,-0.55713 1.21667,-1.31685 3.01673,-1.98391 5.73264,-2.1244 2.90359,-0.15019 5.09243,0.41541 7.98711,2.06386 2.73659,1.55843 3.91766,3.04016 5.86515,7.3583 0.35003,0.77611 0.77636,1.61693 0.9474,1.86849 0.17105,0.25156 0.31099,0.52526 0.31099,0.60822 0,0.083 0.21706,0.57419 0.48236,1.09163 0.56544,1.1028 1.44599,2.00917 2.86903,2.95314 0.90505,0.60036 2.34354,1.92846 2.61469,2.41403 l 0.13048,0.23365 0.50889,-0.24752 c 0.49596,-0.24122 1.56236,-1.05012 2.27279,-1.72399 0.51274,-0.48635 1.58094,-1.18464 2.06622,-1.35071 1.17375,-0.40166 3.40402,0.17003 4.80409,1.23146 0.10189,0.0772 0.51362,0.38423 0.91498,0.6822 0.40135,0.29797 1.60283,1.44369 2.66996,2.54604 l 1.94022,2.00427 0.37612,-0.18763 c 0.20686,-0.1032 0.48329,-0.18763 0.61428,-0.18763 0.131,0 0.40068,-0.0493 0.5993,-0.10963 0.19862,-0.0603 0.59925,-0.17328 0.89029,-0.25108 0.9036,-0.24155 1.34793,-0.38918 1.46403,-0.48645 0.0614,-0.0515 0.1842,-0.0936 0.27279,-0.0936 0.0886,0 0.39182,-0.15875 0.67383,-0.35278 0.28201,-0.19403 0.54796,-0.35278 0.591,-0.35278 0.043,0 0.21871,-0.0966 0.39038,-0.21465 0.17168,-0.11806 0.49735,-0.28529 0.72371,-0.37163 0.69031,-0.26328 0.62898,-0.0604 0.89435,-2.95879 l 0.0716,-0.78164 -0.39476,-0.0836 c -0.70256,-0.14878 -0.8682,-0.35952 -2.86479,-3.64478 -0.5896,-0.97014 -1.14816,-1.89618 -1.24126,-2.05787 -0.0931,-0.16169 -0.19572,-0.32044 -0.22806,-0.35278 -0.32947,-0.32946 -0.97036,-1.78231 -1.18369,-2.6833 -0.11763,-0.4968 -0.26782,-1.08848 -0.33377,-1.31485 -0.0659,-0.22636 -0.26001,-0.9672 -0.43126,-1.64629 -0.5777,-2.29086 -0.85734,-3.1044 -1.19418,-3.4741 -0.76803,-0.84295 -1.11786,-1.69608 -1.13367,-2.76468 -0.0168,-1.1387 0.33229,-1.91188 1.29258,-2.86253 0.38956,-0.38566 0.74291,-0.65888 0.85211,-0.65888 0.0548,0 0.33204,-0.20265 0.61602,-0.45034 0.28398,-0.24769 0.9132,-0.71648 1.39827,-1.04175 2.38434,-1.59885 3.79908,-1.91033 6.87916,-1.51458 3.00945,0.38668 4.18479,0.79099 5.20269,1.78969 0.59612,0.58488 1.3237,1.57247 1.3237,1.79673 0,0.0692 0.0529,0.12581 0.11759,0.12581 0.0647,0 0.1176,0.0694 0.1176,0.1543 0,0.0849 0.10583,0.37335 0.23518,0.64108 0.12935,0.26772 0.23519,0.56558 0.23519,0.6619 0,0.0963 0.0468,0.20407 0.10403,0.23943 0.0572,0.0354 0.13047,0.21047 0.16278,0.38912 0.0323,0.17865 0.17812,0.64231 0.32401,1.03037 0.1459,0.38806 0.3053,0.89076 0.35424,1.11713 0.48563,2.24645 0.50958,2.46137 0.51116,4.58611 0.001,1.64978 -0.0523,2.45962 -0.22144,3.35139 -0.16422,0.86577 -0.21212,1.54811 -0.18159,2.58704 0.0567,1.92981 0.0558,1.99591 -0.0531,4.02754 l -0.0961,1.79329 h 0.25648 c 0.33567,0 1.60743,-0.64564 3.29938,-1.67501 1.68726,-1.02652 3.31039,-1.86709 4.00678,-2.075 0.29105,-0.0869 0.68259,-0.20473 0.8701,-0.26186 0.47646,-0.14517 1.52454,-0.12954 1.9172,0.0286 1.21908,0.49093 1.64322,0.82994 2.62597,2.09891 0.22416,0.28944 0.48349,0.60694 0.57628,0.70555 0.0928,0.0986 0.4813,0.60054 0.86335,1.11539 1.483484,1.99915 1.904254,3.35485 1.808054,5.82548 -0.034,0.87312 -0.12659,2.14312 -0.20577,2.82222 -0.19231,1.6494 -0.18531,3.95274 0.0177,5.82083 0.18523,1.70458 0.24194,9.10455 0.0797,10.4036 -0.14154,1.13344 -0.32383,1.88543 -0.58519,2.414 -0.23147,0.4681 -1.198874,1.8006 -1.789924,2.46543 -0.17053,0.19183 -0.41746,0.52256 -0.54873,0.73496 -0.13127,0.2124 -0.28829,0.38618 -0.34892,0.38618 -0.11183,0 -0.0225,0.54894 0.12446,0.76435 0.0879,0.12891 0.31403,0.88812 0.40277,1.35232 0.0658,0.34422 0.16068,0.68554 0.65375,2.35185 0.39961,1.35049 0.95248,3.53566 1.175204,4.64491 0.0779,0.38805 0.19085,0.8969 0.25097,1.13077 0.0601,0.23387 0.10961,0.60428 0.10997,0.82315 3.6e-4,0.21886 0.0625,0.60959 0.13818,0.8683 0.0988,0.33775 0.14253,2.9239 0.15525,9.17222 0.017,8.36457 0.0503,9.37361 0.40659,12.34722 0.19294,1.61012 0.26024,1.85992 0.69727,2.58791 0.2336,0.38915 0.48561,0.83919 0.56001,1.00009 0.43711,0.94535 0.62908,1.42685 0.62908,1.57786 0,0.0939 0.0466,0.19953 0.10355,0.23472 0.057,0.0352 0.12889,0.18385 0.15987,0.33032 0.031,0.14648 0.19144,0.76903 0.35659,1.38345 0.16516,0.61443 0.49268,2.01672 0.72783,3.11621 0.7295,3.41089 0.70993,3.3459 1.33758,4.4427 0.1895,0.33114 0.25439,0.64059 0.25439,1.21305 0,0.99825 -0.30341,1.56226 -0.8459,1.57245 -0.10952,0.002 -0.29392,0.1642 -0.40976,0.36031 -0.12448,0.21073 -0.35558,0.39412 -0.56504,0.4484 -0.21356,0.0553 -0.37118,0.18234 -0.39663,0.31959 -0.0636,0.34281 -0.25087,0.52174 -0.54615,0.52174 -0.14588,0 -0.33902,0.11112 -0.4292,0.24694 -0.12055,0.18155 -0.28704,0.24695 -0.62871,0.24695 -0.31901,0 -0.56992,0.0885 -0.80018,0.28225 -0.40661,0.34214 -0.80215,0.4533 -1.23083,0.34589 -0.17667,-0.0443 -0.495074,-0.10917 -0.707564,-0.14424 -0.68551,-0.11313 -1.78911,-1.50909 -1.78911,-2.26309 0,-0.12624 -0.0529,-0.26223 -0.11759,-0.3022 -0.0647,-0.04 -0.1176,-0.22518 -0.1176,-0.41157 0,-0.1864 -0.0529,-0.37161 -0.11759,-0.41158 -0.0647,-0.04 -0.11759,-0.22518 -0.11759,-0.41157 0,-0.1864 -0.0468,-0.36783 -0.10404,-0.4032 -0.0572,-0.0354 -0.13157,-0.21046 -0.16522,-0.38911 -0.0337,-0.17865 -0.17624,-0.74816 -0.31685,-1.26556 -0.756,-2.78194 -0.90656,-4.09614 -1.00368,-8.76065 -0.037,-1.77859 -0.10191,-3.36609 -0.14417,-3.52778 -0.0423,-0.16169 -0.0837,-1.08773 -0.0921,-2.05787 -0.0288,-3.33566 -0.76399,-5.60975 -3.47432,-10.74668 l -0.52049,-0.98649 -0.0918,0.57492 c -0.0505,0.3162 -0.1431,0.87919 -0.20579,1.25107 -0.42181,2.5023 -0.55459,3.53649 -0.69827,5.43866 -0.0684,0.90546 -0.14581,1.74139 -0.17204,1.85761 -0.0786,0.34809 0.16311,3.31918 0.35407,4.35294 0.0978,0.52943 0.22589,1.46531 0.28466,2.07973 0.22424,2.34435 0.60284,5.11564 0.94785,6.93796 0.0673,0.35572 0.1518,0.84553 0.18769,1.08847 0.0359,0.24294 0.11256,0.47096 0.17041,0.50671 0.0578,0.0357 0.10517,0.2175 0.10517,0.4039 0,0.18639 0.0529,0.3716 0.11759,0.41157 0.0647,0.04 0.11759,0.20691 0.11759,0.37096 0,0.16406 0.0975,0.43875 0.21672,0.61042 0.11919,0.17168 0.29086,0.48412 0.38148,0.69432 0.0906,0.21019 0.20477,0.38217 0.25366,0.38217 0.0489,0 0.0889,0.058 0.0889,0.12884 0,0.0709 0.11856,0.29534 0.26347,0.49885 0.2262,0.31767 0.26363,0.5213 0.26458,1.43955 0.002,1.63274 -0.30998,2.00266 -1.66304,1.97377 -0.52114,-0.0111 -0.7465,0.0277 -0.7465,0.12876 0,0.39804 -0.84016,0.70507 -1.13166,0.41356 -0.0821,-0.0821 -0.18885,-0.0447 -0.33573,0.1176 -0.23871,0.26377 -0.98103,0.32953 -1.20391,0.10665 -0.0967,-0.0967 -0.20176,-0.0657 -0.39847,0.1176 -0.14694,0.13689 -0.38226,0.2489 -0.52294,0.2489 -0.24836,0 -0.8758,-0.51696 -0.8758,-0.7216 0,-0.0558 -0.10584,0.004 -0.23519,0.13363 -0.42121,0.42121 -0.96147,0.23824 -1.17098,-0.39659 -0.0723,-0.21911 -0.11727,-0.76192 -0.0999,-1.20622 0.0311,-0.79647 -0.0582,-1.13667 -0.68277,-2.60112 -0.0897,-0.2102 -0.24778,-0.58062 -0.35139,-0.82315 -0.54136,-1.26726 -0.58943,-1.40456 -0.7515,-2.14607 -0.16008,-0.73248 -0.0984,-2.79342 0.1196,-3.99814 0.165,-0.91172 0.1651,-0.98954 0.003,-2.64584 -0.2443,-2.49948 0.0674,-4.31198 0.96649,-5.61916 l 0.22524,-0.3275 -0.0625,-1.67157 c -0.0597,-1.59678 -0.13789,-2.24131 -0.43113,-3.55306 -0.0723,-0.32338 -0.16006,-0.78674 -0.19504,-1.02968 -0.035,-0.24294 -0.11094,-0.47096 -0.16879,-0.5067 -0.0578,-0.0358 -0.10517,-0.21751 -0.10517,-0.4039 0,-0.1864 -0.0529,-0.3716 -0.11759,-0.41158 -0.0647,-0.04 -0.11759,-0.18485 -0.11759,-0.32197 0,-0.26476 -0.19558,-0.95359 -0.36722,-1.29333 -0.0567,-0.1123 -0.10316,-0.33408 -0.10316,-0.49283 0,-0.15875 -0.0471,-0.31772 -0.1046,-0.35328 -0.0575,-0.0356 -0.13198,-0.23712 -0.16544,-0.44791 -0.0335,-0.2108 -0.12221,-0.59494 -0.1972,-0.85364 -0.69538,-2.39882 -1.38078,-6.96728 -0.94387,-6.2912 0.0627,0.097 0.11481,0.39816 0.1158,0.66921 9.9e-4,0.27106 0.0479,0.52131 0.10419,0.55612 0.0563,0.0348 0.13431,0.31574 0.17332,0.6243 0.0661,0.52303 0.14243,0.91541 0.42352,2.17791 0.0612,0.27488 0.14456,0.65852 0.18525,0.85255 0.0407,0.19403 0.11892,0.45861 0.17385,0.58796 0.0549,0.12935 0.13032,0.38071 0.16753,0.55857 0.0372,0.17786 0.0981,0.4689 0.13531,0.64676 0.0372,0.17786 0.10925,0.42921 0.16009,0.55856 0.20747,0.52784 0.36022,1.08941 0.36022,1.32433 0,0.13711 0.0471,0.27838 0.1046,0.31394 0.0575,0.0356 0.13198,0.23711 0.16545,0.44791 0.0335,0.2108 0.12209,0.59493 0.19694,0.85364 0.12699,0.43891 0.22053,0.82422 0.48527,1.99907 0.2451,1.08769 0.44325,2.66376 0.47308,3.76296 0.0195,0.7184 0.0916,1.26618 0.18523,1.40788 0.22056,0.33369 0.1958,0.4466 -0.20983,0.95703 -0.42375,0.53321 -0.80106,1.29843 -1.00827,2.04482 -0.21108,0.76033 -0.203,3.50724 0.0118,4.0214 0.13135,0.31436 0.14411,0.56052 0.0572,1.1021 -0.39769,2.477 -0.39109,4.33099 0.0199,5.58287 0.11953,0.36408 0.42342,1.10711 0.67532,1.65118 0.2519,0.54406 0.52119,1.18477 0.59842,1.4238 0.0873,0.27005 0.19742,0.41272 0.29096,0.37682 0.0828,-0.0318 0.22098,0.0271 0.30707,0.13084 0.13221,0.15931 0.11687,0.27023 -0.0988,0.71405 -0.43371,0.89271 -0.28303,1.55473 0.30329,1.33255 l 0.26458,-0.10026 0.006,-0.85633 c 0.007,-0.96725 0.29773,-1.89076 0.61393,-1.95165 0.28055,-0.054 0.26628,0.39061 -0.0324,1.00875 -0.41834,0.86587 -0.23403,1.98343 0.3713,2.25137 0.30884,0.13671 0.36747,0.12941 0.51862,-0.0646 0.0961,-0.12338 0.14389,-0.34687 0.10956,-0.51271 -0.0335,-0.16169 -0.095,-0.92287 -0.13663,-1.6915 -0.0635,-1.17063 -0.049,-1.38862 0.0893,-1.34266 0.11965,0.0398 0.20786,0.48826 0.32083,1.63128 0.0857,0.86702 0.21123,1.6432 0.27898,1.72483 0.17267,0.20805 0.74072,0.18507 0.92539,-0.0374 0.12701,-0.15304 0.12727,-0.32439 0.002,-0.97014 -0.23948,-1.22958 -0.28141,-1.794 -0.14352,-1.93189 0.0902,-0.0902 0.13964,-0.0787 0.17248,0.0402 0.0253,0.0917 0.1129,0.37348 0.1946,0.62627 0.0817,0.2528 0.21178,0.83483 0.28905,1.29342 0.11045,0.65556 0.18742,0.84284 0.36004,0.87609 0.12076,0.0232 0.28807,-0.0514 0.37179,-0.16591 0.16439,-0.22481 0.13626,-0.42827 -0.2091,-1.5125 -0.2416,-0.75847 -0.29032,-1.5411 -0.10314,-1.65679 0.0651,-0.0402 0.13798,-0.004 0.16189,0.0813 0.0239,0.0849 0.21693,0.69443 0.42894,1.35442 0.34053,1.06008 0.42106,1.20764 0.69066,1.2657 0.33614,0.0724 0.99953,-0.0857 1.25732,-0.29967 0.32006,-0.26563 0.13064,-2.10268 -0.21719,-2.10629 -0.0485,-5.1e-4 -0.0883,-0.0671 -0.0885,-0.14791 -1.5e-4,-0.0808 -0.15878,-0.3322 -0.3525,-0.55857 -0.19372,-0.22636 -0.35235,-0.50489 -0.3525,-0.61895 -1.5e-4,-0.11406 -0.048,-0.29927 -0.10641,-0.41158 -0.0584,-0.1123 -0.17034,-0.44231 -0.24882,-0.73336 -0.0785,-0.29104 -0.18381,-0.66145 -0.23406,-0.82314 -0.0503,-0.16169 -0.14836,-0.58503 -0.21802,-0.94074 -0.0697,-0.35572 -0.17916,-0.91135 -0.24333,-1.23473 -0.15639,-0.78806 -0.29858,-1.81364 -0.7255,-5.23287 -0.19784,-1.58456 -0.42107,-3.27789 -0.49606,-3.76296 -0.27823,-1.79986 -0.14682,-6.12845 0.26775,-8.81944 0.0648,-0.4204 0.16968,-1.10831 0.23314,-1.52871 0.0635,-0.42039 0.16287,-1.05539 0.22091,-1.41111 0.23727,-1.4542 0.59275,-4.01315 0.71468,-5.14468 0.0714,-0.66292 0.18791,-1.72126 0.25883,-2.35185 0.15062,-1.33931 0.0692,-9.75659 -0.10944,-11.31828 -0.32459,-2.83713 -0.64637,-4.75811 -0.89783,-5.35995 -0.0926,-0.22173 -0.20253,-0.73364 -0.24419,-1.13757 -0.1599,-1.55044 -0.52377,-2.44109 -1.32362,-3.23979 -0.30406,-0.30363 -0.65987,-0.63142 -0.79071,-0.72843 -0.40083,-0.29723 -1.24257,-0.70556 -1.45445,-0.70556 -0.11031,0 -0.26003,-0.0595 -0.33273,-0.13217 -0.17797,-0.17798 -2.78119,-0.16802 -3.58689,0.0137 -1.32384,0.2986 -2.38889,0.57289 -2.73677,0.70481 -0.12935,0.049 -0.76435,0.25706 -1.41111,0.46224 -0.64676,0.20519 -1.28176,0.42094 -1.41111,0.47946 -0.12935,0.0585 -0.49621,0.19109 -0.81524,0.2946 -1.43784,0.46654 -6.63146,2.80929 -6.88708,3.10663 -0.0323,0.0376 -0.1851,0.13952 -0.33949,0.22644 -0.15438,0.0869 -0.46281,0.26034 -0.6854,0.38537 -0.98245,0.5518 -3.85855,2.57324 -4.04568,2.84346 -0.13141,0.18976 -0.51426,0.0266 -0.55168,-0.2351 -0.0275,-0.19251 0.13286,-0.3903 0.64676,-0.79754 0.92668,-0.73436 3.40074,-2.41303 3.55638,-2.41303 0.0691,0 0.1256,-0.0468 0.1256,-0.10388 0,-0.0571 0.0926,-0.13417 0.20578,-0.17119 0.11319,-0.037 0.47037,-0.2294 0.79375,-0.42751 0.32338,-0.19811 0.71295,-0.41306 0.86572,-0.47766 0.20466,-0.0866 0.26084,-0.18213 0.21349,-0.36318 -0.173,-0.66156 0.38849,-1.04583 0.85154,-0.58277 l 0.22566,0.22565 1.77915,-0.7821 1.77915,-0.78211 -0.85828,-0.83612 c -0.90551,-0.88215 -1.87439,-1.48951 -2.59031,-1.62382 -0.48328,-0.0907 -0.51136,-0.14737 -0.61841,-1.24846 -0.1039,-1.06872 -0.35002,-1.74142 -1.20467,-3.29259 l -0.22677,-0.41158 -0.87248,-0.0606 c -1.19644,-0.0831 -1.70926,-0.38252 -2.15183,-1.2565 -0.20726,-0.40931 -0.25752,-1.09357 -0.0803,-1.09357 0.0606,0 0.25132,0.2592 0.42375,0.576 0.43411,0.79761 0.85192,1.00304 1.88811,0.92838 0.56142,-0.0405 1.00529,-0.15676 1.43965,-0.37722 0.72521,-0.36809 1.64388,-1.17368 1.79665,-1.5755 0.11738,-0.30872 0.36883,-2.8356 0.36722,-3.6902 -0.002,-1.04575 -0.79161,-2.17395 -1.92275,-2.74714 -0.94794,-0.48036 -2.17284,-0.73833 -4.16168,-0.87648 -3.20343,-0.22252 -3.66679,-0.4078 -4.86828,-1.94664 -0.34762,-0.44523 -0.48674,-1.13794 -0.25704,-1.2799 0.0592,-0.0366 0.22079,0.11676 0.3592,0.34071 0.39674,0.64195 1.31903,1.40097 1.89563,1.56007 0.92771,0.25599 1.9189,0.40457 2.43834,0.36551 l 0.50859,-0.0382 -0.97896,-1.05834 c -0.78274,-0.84619 -2.25939,-2.26631 -3.30723,-3.18059 -0.99028,-0.86406 -3.17466,-1.81709 -4.16482,-1.81709 -0.4727,0 -1.59431,0.37036 -1.79719,0.59344 -0.0323,0.0356 -0.24401,0.19413 -0.47037,0.35239 -0.22637,0.15825 -0.62324,0.4948 -0.88195,0.74788 -0.46036,0.45035 -1.79679,1.37 -2.20486,1.51725 -0.24833,0.0896 -0.25652,0.22446 -0.0432,0.71062 0.57978,1.32118 0.95299,3.2765 0.94607,4.95666 -0.005,1.16915 -0.0504,1.52431 -0.26573,2.07127 -0.48194,1.22409 -0.9912,1.36841 -1.12836,0.31977 -0.0451,-0.34493 -0.11061,-0.83882 -0.14554,-1.09752 -0.0349,-0.25871 -0.111,-0.52064 -0.16906,-0.58209 -0.0581,-0.0614 -0.10554,-0.20768 -0.10554,-0.32497 0,-0.11729 -0.0467,-0.30515 -0.10388,-0.41745 -0.0571,-0.11231 -0.17476,-0.36295 -0.26141,-0.55697 -0.31259,-0.69996 -1.09246,-1.77673 -1.74597,-2.41065 -0.83046,-0.80558 -1.43359,-1.28859 -1.61251,-1.29138 -0.0755,-10e-4 -0.15483,-0.0418 -0.17639,-0.0903 -0.0216,-0.0485 -0.96524,-0.54871 -2.09707,-1.11157 -1.54071,-0.76618 -2.20967,-1.16867 -2.66194,-1.60157 l -0.60407,-0.57822 -0.0696,0.60204 c -0.13778,1.19234 -0.41366,2.43024 -0.63273,2.83907 -0.25077,0.46799 -1.14983,1.11437 -1.55,1.11437 -0.12642,0 -0.25894,0.0471 -0.29449,0.1046 -0.0356,0.0575 -0.23712,0.13141 -0.44791,0.16418 -0.2108,0.0328 -0.74237,0.15376 -1.18127,0.26886 l -0.79801,0.20926 0.38643,0.23237 c 1.88805,1.1353 3.08928,2.16271 3.72838,3.18889 l 0.36222,0.58158 v 0.92513 c 0,1.06915 -0.22631,1.63123 -1.48878,3.69763 -0.87479,1.43187 -1.52001,2.76394 -1.81108,3.73907 -0.0772,0.2587 -0.18655,0.59192 -0.24296,0.74049 -0.0564,0.14856 -0.10255,0.582 -0.10255,0.9632 0,0.38119 -0.0466,0.72188 -0.10355,0.75708 -0.22832,0.14111 -0.35977,1.45353 -0.6074,6.06469 -0.16547,3.08134 -0.46228,5.20931 -1.17274,8.40787 -0.0718,0.32338 -0.15905,0.79963 -0.19383,1.05834 -0.0348,0.2587 -0.11073,0.52064 -0.16878,0.58208 -0.058,0.0614 -0.10555,0.24289 -0.10555,0.40323 0,0.16033 -0.0512,0.45401 -0.11382,0.65263 -0.0626,0.19862 -0.30318,1.14038 -0.53462,2.0928 -0.23144,0.95241 -0.52473,2.06366 -0.65176,2.46944 -0.12703,0.40578 -0.34168,1.1082 -0.477,1.56093 -0.13532,0.45273 -0.29352,0.91503 -0.35155,1.02734 -0.058,0.1123 -0.10551,0.30762 -0.10551,0.43403 0,0.12641 -0.0424,0.25607 -0.0943,0.28812 -0.0519,0.0321 -0.16818,0.32958 -0.25847,0.66116 -0.0903,0.33157 -0.20661,0.62909 -0.25848,0.66115 -0.0519,0.032 -0.0943,0.16171 -0.0943,0.28812 0,0.12641 -0.0487,0.32173 -0.10819,0.43403 -0.0595,0.11231 -0.22342,0.5217 -0.36424,0.90975 -0.14083,0.38806 -0.29982,0.81139 -0.35332,0.94074 -0.0535,0.12935 -0.12091,0.36748 -0.1498,0.52917 -0.0289,0.16169 -0.0915,0.38658 -0.13903,0.49977 -0.27262,0.64856 0.68744,-0.22153 1.58495,-1.43644 1.09774,-1.48593 1.71414,-2.13683 2.82223,-2.98021 0.35571,-0.27074 0.67321,-0.52281 0.70555,-0.56017 0.0323,-0.0374 0.40276,-0.2981 0.82315,-0.57943 0.42039,-0.28134 0.79081,-0.54471 0.82315,-0.58527 0.0323,-0.0406 0.73706,-0.539 1.56604,-1.10763 0.82898,-0.56863 1.53399,-1.1215 1.56669,-1.22859 0.0327,-0.10709 0.10849,-0.2866 0.16845,-0.39891 0.06,-0.1123 0.109,-0.30762 0.109,-0.43403 0,-0.12641 0.0529,-0.26255 0.1176,-0.30252 0.0647,-0.04 0.11759,-0.19872 0.11759,-0.35277 0,-0.15406 0.0529,-0.31281 0.11759,-0.35278 0.0647,-0.04 0.11759,-0.19872 0.11759,-0.35278 0,-0.15406 0.0468,-0.30904 0.10404,-0.3444 0.0572,-0.0354 0.13224,-0.21046 0.16671,-0.38911 0.0345,-0.17866 0.12293,-0.53649 0.19658,-0.79519 0.0736,-0.25871 0.17925,-0.62912 0.23467,-0.82315 0.41946,-1.46841 1.9665,-7.29611 2.31003,-8.70185 0.0948,-0.38806 0.21785,-0.89077 0.27337,-1.11713 0.2839,-1.1575 0.35997,-1.56752 0.35997,-1.94028 0,-0.60162 0.26634,-1.64661 0.58442,-2.29306 0.10492,-0.21322 1.49928,-0.31519 1.69082,-0.12365 0.068,0.068 0.19302,0.12365 0.27781,0.12365 0.52799,0 4.55434,2.30289 5.25984,3.00839 l 0.18972,0.18972 0.43729,-0.33493 c 1.12329,-0.86036 2.48177,-1.56966 3.0063,-1.56966 0.42518,0 0.61186,0.14411 0.68553,0.52917 0.0372,0.19462 0.12151,0.22842 0.48865,0.19595 0.27218,-0.0241 0.55739,0.0353 0.73794,0.15358 l 0.29428,0.19282 -0.025,0.69331 c -0.0155,0.42933 0.033,0.76322 0.12739,0.87695 0.0838,0.101 0.16871,0.51365 0.18863,0.91699 0.0199,0.40335 0.0705,0.92239 0.1123,1.15344 0.10828,0.59795 -0.26917,1.32806 -1.18803,2.29803 -0.50972,0.53806 -0.83359,1.00387 -0.99158,1.42613 -0.12904,0.3449 -0.23462,0.67641 -0.23462,0.73669 0,0.17135 -0.45508,0.95451 -0.83153,1.43099 -0.18784,0.23776 -0.40094,0.56268 -0.47354,0.72204 -0.0726,0.15936 -0.25823,0.35728 -0.41248,0.43984 l -0.28047,0.1501 0.0744,1.53851 c 0.0409,0.84619 0.12004,1.62764 0.17586,1.73657 0.0558,0.10893 0.1015,0.3578 0.1015,0.55304 0,0.19523 0.0474,0.47652 0.10535,0.62509 0.0579,0.14856 0.17297,0.50824 0.25563,0.79928 0.0827,0.29104 0.194,0.57944 0.24743,0.64088 0.0534,0.0614 0.0971,0.17767 0.0971,0.25828 0,0.32365 0.84965,1.55381 1.54989,2.24399 1.46386,1.44286 1.96868,1.75017 2.66151,1.62019 0.36592,-0.0686 1.00861,-0.41723 1.19786,-0.64969 0.0912,-0.11203 1.05883,-0.7579 1.6463,-1.09886 0.85621,-0.49694 2.6373,-1.3433 4.52731,-2.15134 0.97014,-0.41477 1.89618,-0.81226 2.05787,-0.88332 0.30358,-0.13341 0.687,-0.28932 1.14653,-0.46623 0.14552,-0.056 0.39688,-0.15478 0.55857,-0.21946 1.65454,-0.66181 2.09551,-0.82314 2.24994,-0.82314 0.24549,0 0.19467,-0.20225 -0.19207,-0.76436 -0.19403,-0.28201 -0.35278,-0.54659 -0.35278,-0.58796 0,-0.0414 -0.14961,-0.29642 -0.33247,-0.56677 -0.54269,-0.80238 -0.96105,-1.7454 -0.96105,-2.16629 0,-0.4167 0.42726,-0.97111 0.7484,-0.97111 0.14691,0 0.1502,-0.09 0.0233,-0.63612 -0.18387,-0.79102 -0.0119,-1.31211 0.49101,-1.48741 l 0.32921,-0.11476 -0.0431,-0.85243 -0.043,-0.85242 0.32149,-0.32149 c 0.38692,-0.38692 0.89047,-0.42016 1.42525,-0.0941 l 0.37149,0.22652 0.0669,-0.26665 c 0.10738,-0.42785 0.53673,-0.89282 0.82442,-0.89282 0.29383,0 0.77632,0.44687 0.77632,0.71901 0,0.0961 0.0546,0.22934 0.12144,0.29614 0.0668,0.0668 0.0906,0.20193 0.0528,0.3003 -0.0555,0.14455 -0.13751,0.1145 -0.42787,-0.15673 -0.74247,-0.69357 -1.10555,-0.25178 -0.97515,1.18658 0.099,1.09201 0.24633,1.46372 0.93477,2.3584 0.56926,0.73979 0.88195,1.36383 0.88195,1.76011 0,0.36984 -0.32103,0.28223 -0.52473,-0.14321 -0.10065,-0.2102 -0.42412,-0.69968 -0.71882,-1.08773 -0.75078,-0.98859 -0.94948,-1.41435 -1.14613,-2.45581 -0.18849,-0.99828 -0.3752,-1.23844 -0.96759,-1.24462 -0.7886,-0.008 -0.83279,0.62187 -0.13914,1.984 0.1121,0.22014 0.20382,0.49339 0.20382,0.60722 0,0.40986 0.74607,1.65405 1.26658,2.11222 0.29173,0.25679 0.57588,0.4669 0.63145,0.4669 0.0556,0 0.10104,0.15875 0.10104,0.35277 0,0.55504 -0.39432,0.4575 -1.10128,-0.27242 -0.5243,-0.54133 -1.48576,-2.17072 -1.48576,-2.51793 0,-0.1473 -0.48883,-0.36291 -0.67615,-0.29822 -0.17182,0.0593 -0.19431,0.53261 -0.0393,0.82651 0.0592,0.11231 0.19042,0.39506 0.29152,0.62835 0.1011,0.23329 0.4636,0.68308 0.80556,0.99954 0.34196,0.31646 0.73336,0.73413 0.86978,0.92816 0.27093,0.38532 0.45401,1.0439 0.34103,1.22671 -0.0874,0.14146 -0.41652,0.0301 -0.41652,-0.14093 0,-0.0681 -0.27926,-0.41961 -0.62058,-0.78117 -0.34132,-0.36157 -0.72588,-0.79439 -0.85457,-0.96183 -0.25129,-0.32694 -0.86147,-0.51946 -0.94572,-0.29839 -0.16984,0.44565 1.83125,3.76266 3.02786,5.01898 1.35438,1.42196 2.72335,1.84555 4.00136,1.2381 0.76077,-0.36161 1.22006,-0.006 0.66277,0.51326 -0.6814,0.63482 -2.2883,0.74335 -3.36548,0.22729 -0.53835,-0.25792 -2.01802,-1.63002 -2.39315,-2.21918 -0.16326,-0.2564 -0.22143,-0.27619 -0.46685,-0.15886 -0.1542,0.0737 -0.46557,0.19764 -0.69194,0.27537 -0.77253,0.26527 -1.59034,0.59257 -2.61515,1.04661 -0.30651,0.1358 -0.5836,0.24691 -0.61576,0.24691 -0.0729,0 -3.18338,1.32305 -4.05983,1.72684 -1.55987,0.71864 -2.20704,1.0474 -2.66702,1.35482 -0.27036,0.18069 -0.52739,0.32852 -0.57118,0.32852 -0.21774,0 -3.85331,2.87869 -5.27425,4.1762 -0.0718,0.0656 -0.47456,0.40955 -0.89495,0.76436 -0.4204,0.3548 -0.79081,0.67169 -0.82315,0.70421 -0.0323,0.0325 -0.61442,0.53333 -1.29352,1.11291 -0.6791,0.57959 -1.26118,1.08226 -1.29352,1.11705 -0.0323,0.0348 -0.53505,0.45991 -1.11713,0.94472 -0.58208,0.4848 -1.08479,0.91174 -1.11713,0.94876 -0.41358,0.47345 -3.98516,3.04938 -4.22802,3.04938 -0.0676,0 -0.1229,0.04 -0.1229,0.0889 0,0.0489 -0.14553,0.15448 -0.32338,0.23465 -0.74522,0.33592 -1.97045,1.41058 -2.85865,2.50736 -0.87512,1.08062 -1.57623,1.75448 -1.82676,1.75576 -0.0586,3e-4 -0.27233,0.15599 -0.47502,0.34598 -0.20269,0.18999 -0.84321,0.65713 -1.42338,1.03809 -0.96917,0.63639 -1.85833,1.09719 -5.85161,3.03254 -0.77611,0.37614 -1.43757,0.71356 -1.46991,0.74981 -0.0323,0.0362 -0.29692,0.19206 -0.58796,0.34626 -0.94642,0.50142 -1.68384,0.91199 -2.88102,1.60407 -0.64676,0.37388 -2.60468,1.40284 -4.35093,2.28658 -1.74625,0.88373 -3.70416,1.91697 -4.35092,2.29608 -1.90264,1.11525 -3.37782,1.74473 -5.05648,2.15765 -0.57164,0.14061 -2.34225,0.3711 -2.85079,0.3711 -0.20302,0 -0.3975,0.0459 -0.43217,0.10199 -0.0347,0.0561 -0.28914,0.13463 -0.5655,0.17452 -0.27636,0.0399 -0.75382,0.12628 -1.06103,0.19199 -1.18857,0.2542 -1.6987595,0.3578 -2.3224595,0.47159 -0.35572,0.0649 -0.9378,0.17362 -1.29352,0.24159 -2.31703,0.44274 -5.20698,0.87902 -6.58518,0.99413 -2.71567,0.22681 -3.64379,0.74119 -3.64493,2.02012 -3.7e-4,0.40884 0.0571,0.53276 0.34109,0.73495 0.41808,0.2977 0.46422,0.29864 1.02907,0.0209 2.68529,-1.32037 2.99693,-1.45444 3.11244,-1.33892 0.2514,0.2514 0.0501,0.64196 -0.48489,0.94071 -0.29104,0.16253 -0.66146005,0.38584 -0.82315005,0.49623 -0.34785,0.2375 -1.36085,0.71224 -1.51977,0.71224 -0.0611999,0 -0.25393995,0.0543 -0.42836995,0.12058 l -0.31716,0.12058 0.22131,0.24492 c 0.18417,0.20383 0.31325,0.23406 0.76931995,0.18019 0.49456,-0.0584 1.65548,-0.573 2.46520005,-1.0927 0.16972,-0.10893 0.39461,-0.16504 0.49977,-0.12469 0.22636,0.0869 0.25276,0.47141 0.0442,0.64384 -0.14372,0.11881 -1.42138005,0.84811 -1.93381005,1.10384 -0.47902,0.23905 -0.46306,0.74984 0.0273,0.8729 0.25661,0.0644 0.81687005,-0.20496 2.13849005,-1.02816 0.42941,-0.26747 0.62059,-0.21059 0.62059,0.18462 0,0.20132 -0.18673,0.39669 -0.72393,0.75741 -0.39816,0.26736 -0.76292,0.48611 -0.81057,0.48611 -0.18213,0 -0.2042,0.3364 -0.0377,0.57415 l 0.17397,0.24837 0.31693,-0.16604 c 0.17431,-0.0913 0.50214,-0.36265 0.72851,-0.60294 0.48908,-0.51917 1.37471,-1.11187 1.66139,-1.11187 0.2249,0 0.3802,0.34032 0.27747,0.60804 -0.0361,0.094 -0.23569,0.23346 -0.44364,0.31004 -0.20795,0.0766 -0.63362,0.37567 -0.94593,0.66466 -0.43904,0.40627 -0.5506,0.57975 -0.49184,0.76487 0.0418,0.13168 0.15019,0.23942 0.24087,0.23942 0.2167,0 0.94936,-0.4074 1.46581,-0.81507 0.32497,-0.25652 0.58536,-0.34133 1.23472,-0.40211 3.23734,-0.30306 4.2606795,-0.45724 5.8205895,-0.87701 0.92697,-0.24943 2.00022,-0.75361 3.88056,-1.82293 1.18505,-0.67393 2.0081,-1.10259 3.88055,-2.02107 1.13183,-0.55518 2.19016,-1.08913 2.35185,-1.18655 0.68469,-0.41251 3.48735,-1.45704 4.90949,-1.82973 0.2102,-0.0551 0.55416,-0.15009 0.76436,-0.21112 0.72878,-0.2116 1.32496,-0.37555 1.73449,-0.477 0.22636,-0.0561 0.62324,-0.16191 0.88194,-0.23518 0.2587,-0.0733 0.66881,-0.18263 0.91134,-0.24301 0.24254,-0.0604 0.63941,-0.15917 0.88195,-0.21955 0.24253,-0.0604 0.65264,-0.16972 0.91134,-0.243 0.2587,-0.0733 0.65558,-0.17737 0.88194,-0.23131 1.09901,-0.2619 2.92552,-0.79805 7.29075,-2.14013 0.42039,-0.12924 0.9231,-0.27727 1.11712,-0.32893 0.19403,-0.0517 0.59091,-0.17171 0.88195,-0.26677 0.29104,-0.095 0.92604,-0.29284 1.41111,-0.43953 0.48507,-0.14669 0.98778,-0.30599 1.11713,-0.354 0.12935,-0.048 0.44685,-0.15104 0.70556,-0.22896 1.34524,-0.40514 3.11135,-1.39898 3.75179,-2.11124 0.1232,-0.13702 0.30938,-0.24913 0.41373,-0.24913 0.21985,0 0.93047,-0.5707 2.41966,-1.94323 1.5541,-1.43237 2.17835,-1.9615 3.01394,-2.55471 0.6692,-0.47508 2.35968,-1.3918 2.98328,-1.61778 0.34213,-0.12397 0.9095,-0.36342 1.14494,-0.48318 0.1123,-0.0571 0.30761,-0.10388 0.43403,-0.10388 0.12641,0 0.26254,-0.0529 0.30251,-0.11759 0.04,-0.0647 0.17611,-0.11759 0.30252,-0.11759 0.12641,0 0.32173,-0.0512 0.43403,-0.11389 0.11231,-0.0626 0.44232,-0.19204 0.73336,-0.28756 1.14125,-0.37455 1.97263,-0.69223 2.70463,-1.03347 0.84054,-0.39182 3.13295,-1.43824 4.05695,-1.85186 0.32338,-0.14476 0.86577,-0.3905 1.20532,-0.54608 0.33955,-0.15559 0.89517,-0.41018 1.23472,-0.56576 0.33955,-0.15559 0.86872,-0.39371 1.17593,-0.52917 3.27824,-1.44547 9.54814,-4.46206 10.45094,-5.02819 0.64565,-0.40486 0.97393,0.21347 0.34943,0.65815 -0.18785,0.13376 -0.3951,0.2432 -0.46058,0.2432 -0.0655,0 -0.13667,0.0397 -0.15823,0.0882 -0.0216,0.0485 -0.27732,0.2146 -0.56837,0.3691 -0.29104,0.15449 -1.05833,0.56508 -1.70509,0.9124 -2.1786,1.16997 -5.97107,2.99711 -7.40833,3.5692 -0.12935,0.0515 -0.44685,0.18466 -0.70556,0.29594 -0.2587,0.11128 -0.62912,0.26915 -0.82315,0.35082 -0.19402,0.0817 -0.53798,0.22885 -0.76435,0.32707 -0.22636,0.0982 -0.86316,0.3641 -1.4151,0.59083 -0.55194,0.22673 -1.55004,0.65786 -2.218,0.95806 -0.66796,0.30021 -1.44668,0.64915 -1.7305,0.77544 -0.28381,0.12629 -0.75358,0.33545 -1.04391,0.4648 -0.29034,0.12935 -0.60472,0.23518 -0.69862,0.23518 -0.0939,0 -0.19696,0.0424 -0.22901,0.0943 -0.0321,0.0519 -0.32958,0.16818 -0.66115,0.25847 -0.33158,0.0903 -0.6291,0.20661 -0.66115,0.25847 -0.0321,0.0519 -0.17687,0.0943 -0.32181,0.0943 -0.14494,0 -0.3138,0.0421 -0.37524,0.0936 -0.0614,0.0515 -0.32338,0.1608 -0.58208,0.24296 -0.56076,0.17807 -0.92821,0.32191 -1.99908,0.78254 -1.64375,0.70706 -2.38269,1.15026 -3.79624,2.27689 -0.62846,0.50089 -1.59244,1.33696 -2.14218,1.85794 -2.09463,1.98503 -2.42559,2.26951 -2.93982,2.52702 -0.29104,0.14575 -0.74083,0.40301 -0.99953,0.57171 -0.53354,0.3479 -1.30739,0.71385 -1.99908,0.94534 -0.2587,0.0866 -0.52064,0.19954 -0.58208,0.25102 -0.0614,0.0515 -0.20768,0.0936 -0.32498,0.0936 -0.11729,0 -0.30515,0.048 -0.41745,0.10674 -0.19742,0.10321 -1.12531,0.40475 -1.85049,0.60137 -0.19403,0.0526 -0.69673,0.20139 -1.11713,0.33064 -0.42039,0.12925 -1.74331,0.53622 -2.93981,0.90437 -1.19651,0.36815 -2.33422,0.71028 -2.52824,0.76028 -0.19403,0.05 -0.59091,0.16894 -0.88195,0.2643 -0.29104,0.0954 -0.76729,0.24109 -1.05833,0.32384 -1.16881,0.33229 -1.36162,0.3899 -1.5875,0.47432 -0.12935,0.0483 -0.47331,0.15298 -0.76435,0.23253 -0.29105,0.0795 -0.66146,0.18527 -0.82315,0.23495 -0.31655,0.0972 -1.13481,0.32678 -1.70509,0.47829 -0.19403,0.0515 -0.59091,0.15739 -0.88195,0.23519 -0.78006,0.20852 -1.18003,0.31459 -1.70509,0.45214 -2.11032,0.55285 -3.96933,1.12637 -4.57198,1.41048 -0.39583,0.18661 -0.98427,0.45515 -1.30765,0.59676 -0.82537,0.36143 -4.20943,2.04378 -5.05648,2.51378 -0.38806,0.21532 -1.25784,0.69851 -1.93286,1.07375 -1.25772,0.69919 -2.33643,1.18399 -3.06483,1.37743 -1.32692,0.35238 -2.2242695,0.51059 -3.8805495,0.68419 -2.73717,0.28689 -2.6369,0.26241 -3.50509,0.85563 -1.01101,0.69079 -1.44549,0.73228 -1.78787,0.17074 z m 98.4892235,-5.92256 c 0.33673,-0.22063 0.38801,-0.74497 0.12628,-1.29132 -0.59128,-1.23433 -0.6609,-1.55632 -0.35827,-1.65706 0.13757,-0.0458 0.66627,1.0799 0.94927,2.02117 0.14448,0.48055 0.63404,0.55117 0.86244,0.12441 0.13404,-0.25046 0.13431,-0.37883 0.002,-0.79936 -0.0869,-0.27554 -0.19665,-0.5539 -0.24389,-0.61857 -0.0472,-0.0647 -0.12297,-0.31603 -0.16829,-0.55857 -0.0667,-0.35676 -0.0473,-0.44097 0.10155,-0.44097 0.16923,0 0.27729,0.18206 0.64884,1.09327 0.0738,0.1809 0.13412,0.51163 0.13412,0.73495 0,0.28253 0.0537,0.40604 0.17639,0.40604 0.31509,0 0.14025,-1.60404 -0.21339,-1.95768 -0.14214,-0.14213 -0.0875,-0.74695 0.0675,-0.74695 0.21866,0 0.39996,0.35024 0.57664,1.11397 0.16492,0.71283 0.33743,0.89072 0.62907,0.64868 0.2479,-0.20574 0.21664,-0.86702 -0.0673,-1.42358 -0.24886,-0.4878 -0.26737,-0.9352 -0.0418,-1.00936 0.14491,-0.0476 0.50374,0.68496 0.62436,1.27474 0.10765,0.52633 0.41484,0.57351 0.65907,0.10122 0.15962,-0.30867 0.16712,-0.43653 0.047,-0.80106 -0.0786,-0.23858 -0.24595,-0.57337 -0.3719,-0.74398 -0.24547,-0.33253 -0.36476,-0.76937 -0.91077,-3.33517 -0.19269,-0.90546 -0.40358,-1.87119 -0.46866,-2.14606 -0.0651,-0.27487 -0.17631,-0.75112 -0.24716,-1.05833 -0.0709,-0.30721 -0.17056,-0.69086 -0.22155,-0.85255 -0.051,-0.16169 -0.16097,-0.53211 -0.24439,-0.82315 -0.0834,-0.29104 -0.19539,-0.57944 -0.24882,-0.64088 -0.0534,-0.0614 -0.0971,-0.18108 -0.0971,-0.26586 0,-0.14726 -0.35695,-1.02149 -0.60863,-1.49062 -0.32358,-0.60317 -0.6145,-1.09981 -0.79993,-1.3656 -0.1128,-0.16169 -0.24018,-0.55857 -0.28307,-0.88195 -0.0429,-0.32338 -0.13179,-0.95838 -0.19756,-1.41111 -0.62581,-4.30781 -0.75946,-8.61201 -0.52792,-17.00184 0.10801,-3.91346 0.051,-4.77923 -0.483214,-7.33982 -0.32726,-1.5686 -0.51312,-2.28839 -1.22217,-4.73311 -0.24306,-0.83805 -0.36535,-1.2763 -0.42705,-1.53044 -0.0356,-0.14647 -0.11125,-0.29512 -0.1682,-0.33032 -0.057,-0.0352 -0.10356,-0.29587 -0.10356,-0.57928 0,-0.28341 -0.0529,-0.54799 -0.11759,-0.58796 -0.0647,-0.04 -0.11722,-0.16216 -0.11677,-0.27153 4.6e-4,-0.10936 -0.27038,-0.75447 -0.60184,-1.43357 -0.33147,-0.67909 -0.64588,-1.34055 -0.69868,-1.4699 -0.135,-0.33073 -0.34635,-1.69401 -0.34787,-2.2439 -0.003,-1.2567 -0.78432,-2.61403 -1.76343,-3.0653 -1.15482,-0.53226 -2.9153,-0.60301 -5.20256,-0.20908 l -0.44087,0.0759 0.44087,0.32065 c 0.60956,0.44334 1.31256,1.24666 1.51501,1.73121 0.21949,0.5253 0.83574,3.52449 0.99408,4.83797 0.0678,0.56208 0.17444,1.39238 0.23707,1.84511 0.89544,6.47211 0.83303,12.4338 -0.19356,18.49031 -0.051,0.30109 -0.036,0.55732 0.0379,0.64676 0.37943,0.45895 1.68667,3.06311 2.55359,5.087 0.86155,2.01136 1.39157,4.1723 1.52864,6.23241 0.0387,0.58208 0.12277,1.37583 0.18675,1.76389 0.064,0.38805 0.1652,2.71639 0.22493,5.17407 0.1158,4.76467 0.16357,5.26186 0.70608,7.34954 0.0588,0.22637 0.13977,0.57032 0.17987,0.76435 0.0401,0.19403 0.11787,0.45861 0.1728,0.58796 0.0939,0.22103 0.14282,0.41801 0.29956,1.20533 0.15649,0.78601 0.35579,1.42731 0.64868,2.08727 0.2381,0.53648 1.05999,1.35231 1.36236,1.35231 0.1444,0 0.29526,0.0529 0.33523,0.11759 0.11354,0.18371 0.859054,0.13802 1.180064,-0.0723 z M 0.08204645,249.02246 c 0.97956005,-0.85709 2.98521005,-2.36079 4.48203005,-3.36034 1.04316,-0.6966 3.53652,-2.04384 4.3995,-2.37718 1.8109495,-0.69951 3.1941095,-1.11668 5.6444395,-1.70239 2.23891,-0.53517 3.6202,-0.86059 4.29213,-1.0112 0.72618,-0.16276 1.40088,-0.33392 1.83104,-0.4645 0.19862,-0.0603 0.47331,-0.10963 0.61042,-0.10963 0.13711,0 0.282,-0.0529 0.32197,-0.11759 0.04,-0.0647 0.20256,-0.11759 0.36131,-0.11759 0.15875,0 0.38053,-0.0478 0.49283,-0.10613 0.11231,-0.0584 0.44232,-0.16937 0.73336,-0.24665 0.29104,-0.0773 0.62105,-0.18827 0.73336,-0.24665 0.1123,-0.0584 0.30762,-0.10613 0.43403,-0.10613 0.12641,0 0.26255,-0.0529 0.30252,-0.11759 0.04,-0.0647 0.19126,-0.11759 0.3362,-0.11759 0.14493,0 0.31379,-0.0421 0.37523,-0.0936 0.0614,-0.0515 0.32338,-0.16346 0.58209,-0.24885 1.34419,-0.4437 5.88897,-2.90511 6.2912,-3.40726 0.0323,-0.0404 0.27046,-0.23016 0.52917,-0.42176 0.2587,-0.1916 1.74037,-1.62075 3.29259,-3.17589 3.39519,-3.40157 5.31878,-4.98857 7.83792,-6.46643 0.83225,-0.48824 5.09133,-2.56716 6.50837,-3.17683 0.25871,-0.11131 0.7085,-0.30941 0.99954,-0.44023 0.29104,-0.13081 0.635,-0.27866 0.76435,-0.32855 0.12936,-0.0499 0.4204,-0.17105 0.64676,-0.26924 0.22637,-0.0982 1.36408,-0.55802 2.52824,-1.02183 1.16417,-0.46381 2.53037,-1.05809 3.03599,-1.32062 l 0.91933,-0.47732 -0.56655,-0.59198 c -0.76118,-0.79535 -0.81479,-0.85654 -1.18568,-1.35337 -0.17689,-0.23693 -0.38644,-0.4994 -0.46568,-0.58327 -0.13149,-0.13915 -0.35741,-0.5994 -0.63227,-1.28803 -0.0581,-0.14552 -0.15453,-0.38364 -0.21433,-0.52917 -0.0598,-0.14552 -0.14203,-0.42333 -0.18271,-0.61736 -0.0407,-0.19402 -0.12543,-0.5909 -0.18832,-0.88194 -0.11622,-0.53788 -0.13464,-0.69235 -0.3609,-3.02801 -0.0961,-0.99185 -0.1692,-1.32292 -0.29216,-1.32292 -0.34008,0 -0.97974,-0.54862 -1.43654,-1.23209 -0.48644,-0.72783 -1.07601,-2.05741 -1.07601,-2.42661 0,-0.11439 -0.0473,-0.23722 -0.10517,-0.27297 -0.14238,-0.088 -0.23596,-0.76794 -0.3652,-2.65351 -0.14515,-2.11763 -0.21761,-2.53469 -0.48199,-2.77394 -0.12296,-0.11128 -0.22357,-0.2735 -0.22357,-0.36049 0,-0.087 -0.0502,-0.15816 -0.11144,-0.15816 -0.0613,0 -0.12744,-0.27439 -0.14699,-0.60974 l -0.0355,-0.60974 -0.64676,-0.38409 c -0.78725,-0.46752 -2.25929,-1.06002 -2.82921,-1.13877 l -0.41855,-0.0578 -0.14643,0.54754 c -0.0805,0.30114 -0.2026,0.7592 -0.27124,1.0179 -0.0686,0.25871 -0.16653,0.60267 -0.21752,0.76436 -0.051,0.16168 -0.15403,0.55856 -0.22898,0.88194 -0.17505,0.75538 -0.30672,1.29421 -0.45976,1.88148 -0.0674,0.2587 -0.20015,0.78787 -0.29496,1.17593 -0.22211,0.90903 -1.56463,5.97123 -1.83998,6.93796 -0.0553,0.19403 -0.1534,0.53799 -0.21807,0.76435 -0.23455,0.82092 -0.35165,1.24042 -0.42672,1.52871 -0.0421,0.16169 -0.11928,0.39981 -0.17151,0.52916 -0.18989,0.47026 -0.47511,1.50736 -0.42762,1.55486 0.041,0.041 0.57196,-0.32588 1.36806,-0.94517 1.68322,-1.30941 5.38121,-3.89813 5.87693,-4.11407 0.097,-0.0423 0.44097,-0.23563 0.76435,-0.42971 1.03535,-0.62137 1.81491,-0.97415 1.99768,-0.90401 0.0978,0.0375 0.17779,0.19759 0.17779,0.3557 0,0.24166 -0.14526,0.35886 -0.91135,0.73532 -1.64266,0.8072 -5.15139,3.09866 -6.96736,4.55018 -0.097,0.0776 -0.36159,0.26998 -0.58796,0.42763 -0.22637,0.15766 -0.43803,0.3182 -0.47037,0.35677 -0.0323,0.0386 -0.244,0.19912 -0.47037,0.35677 -0.64268,0.4476 -0.84661,0.61446 -1.25255,1.02495 -0.20788,0.21019 -0.43101,0.38217 -0.49587,0.38217 -0.10335,0 -3.19382,2.05214 -3.66084,2.43088 -0.097,0.0787 -0.52035,0.39658 -0.94074,0.70644 -1.36506,1.00617 -2.35264,1.96905 -3.05387,2.9775 -0.1574,0.22636 -0.31775,0.43803 -0.35632,0.47037 -0.16491,0.13826 -0.58796,0.81201 -0.58796,0.93639 0,0.1719 -0.66511,1.02503 -1.0789,1.38389 -0.66484,0.57659 -3.40842,2.50101 -3.56561,2.50101 -0.038,0 -0.18262,0.10584 -0.32147,0.23519 -0.13884,0.12935 -0.32184,0.23518 -0.40666,0.23518 -0.0848,0 -0.15421,0.0529 -0.15421,0.1176 0,0.0647 -0.0566,0.11759 -0.1258,0.11759 -0.0692,0 -0.34701,0.14943 -0.61737,0.33206 -0.27035,0.18264 -1.12655,0.69718 -1.90266,1.14343 -0.77611,0.44625 -1.5137,0.90536 -1.63908,1.02025 -0.12537,0.11489 -0.28412,0.21023 -0.35277,0.21186 -0.26535,0.006 -2.43704,1.16731 -3.32042,1.77509 -0.27068,0.18623 -0.54876,0.3386 -0.61795,0.3386 -0.0692,0 -0.12622,0.0397 -0.12672,0.0882 -5e-4,0.0485 -0.11957,0.147 -0.26458,0.21888 -0.14502,0.0719 -0.71346,0.40351 -1.26321,0.73695 -1.4385,0.87252 -11.1211995,5.67183 -12.3472195,6.12 -0.22636,0.0828 -0.51741,0.192 -0.64676,0.24277 -0.29781,0.11691 -0.99286,0.29782 -1.82268,0.47441 -0.7111,0.15133 -2.96749005,0.0937 -3.93935,-0.10054 -2.38348,-0.47647 -4.79144,-1.58764 -6.55714,-3.02584 -0.26259,-0.21389 -0.37461,-0.21235 -0.55722,0.008 -0.20747,0.24999 -0.28207,0.22728 -0.77242,-0.23518 -0.48439,-0.45683 -0.7562805,-0.52542 -0.7562805,-0.19079 0,0.12143 -0.0797,0.28697 -0.17722,0.36787 -0.14692,0.12193 -0.27082,0.0742 -0.72485,-0.27959 -0.55389,-0.43153 -0.79341,-0.50371 -1.07629,-0.32435 -0.12577,0.0797 -0.11854,0.13585 0.0376,0.29198 0.20275,0.20276 0.2025,0.6767 -4e-4,0.74332 -0.0652,0.0214 -0.26022,-0.0925 -0.43345,-0.25315 -0.44438,-0.41205 -1.11088,-0.76686 -1.44051,-0.76686 h -0.28023 l 0.12661,0.33543 c 0.0696,0.18449 0.0913,0.42737 0.0482,0.53974 -0.067,0.17464 -0.16082,0.13021 -0.64613,-0.30604 -0.64643,-0.58108 -1.41017,-0.85072 -1.89233,-0.6681 -0.92347,0.34978 -1.13098,1.27678 -0.44962,2.00857 0.49169,0.52808 0.78942,0.67743 1.35046,0.67743 0.4788,0 0.73497,0.1609 0.73955,0.46449 0.002,0.10358 0.40655,0.41074 0.938,0.71144 0.51438,0.29104 0.93647,0.56885 0.93799,0.61736 0.001,0.0485 0.053,0.0882 0.11437,0.0882 0.0614,0 1.00067,0.59714 2.08727,1.32696 1.1768405,0.79044 2.7601505,1.71878 3.9159205,2.29601 1.06715,0.53298 2.12549,1.11182 2.35185,1.28631 0.55457,0.42749 2.11667,2.02525 2.11667,2.16499 0,0.15405 0.93314,1.51549 1.23646,1.80397 0.22749995,0.21639 0.64217995,0.50577 0.74835995,0.52226 0.0245,0.004 0.2411,-0.16507 0.48133,-0.37526 z M 55.990996,206.88233 c 0.1023,-0.0393 0.18601,-0.15869 0.18601,-0.2654 0,-0.10671 0.1783,-0.35767 0.39624,-0.55768 0.49463,-0.45396 0.91204,-1.17403 1.25382,-2.16295 0.20484,-0.59268 0.43216,-0.94313 1.01214,-1.56031 0.41139,-0.43777 0.7463,-0.83465 0.74424,-0.88194 -0.002,-0.0473 -0.0731,-0.17731 -0.15787,-0.28893 l -0.15412,-0.20293 -0.51829,0.33173 c -0.28506,0.18245 -0.91966,0.72985 -1.41021,1.21643 -0.49055,0.48658 -1.02916,0.97462 -1.1969,1.08453 l -0.30499,0.19984 -0.13483,-0.25194 -0.13484,-0.25194 1.23123,-1.19658 c 1.54294,-1.49952 1.92397,-1.84527 2.40238,-2.17995 0.25312,-0.17707 0.38218,-0.36393 0.38218,-0.55333 0,-0.34962 -0.15276,-0.36068 -0.59841,-0.0434 -0.1874,0.13344 -0.3968,0.20797 -0.46533,0.16561 -0.0685,-0.0424 -0.53192,0.33794 -1.02974,0.84511 -1.39971,1.42599 -2.49806,2.40256 -2.61847,2.32814 -0.0601,-0.0372 -0.10935,-0.20191 -0.10935,-0.36609 0,-0.22874 0.41561,-0.71052 1.77817,-2.06129 0.97799,-0.96954 1.93925,-1.85278 2.13612,-1.96277 0.79494,-0.44409 0.71802,-0.98694 -0.0841,-0.59372 -0.25408,0.12456 -0.50913,0.22647 -0.56678,0.22647 -0.0576,0 -0.326,0.14905 -0.59636,0.33122 -0.27036,0.18218 -0.6827,0.41933 -0.91633,0.527 -0.5006,0.23071 -0.59116,0.33962 -0.80207,0.96446 -0.23226,0.68807 -0.8133,1.49049 -1.04704,1.44596 -0.31153,-0.0593 -0.29092,-0.48565 0.0418,-0.86327 0.33312,-0.37813 0.76222,-1.14016 0.76222,-1.3536 0,-0.27025 0.495,-0.81713 0.91751,-1.01366 0.23914,-0.11124 0.46127,-0.23146 0.49361,-0.26717 0.0323,-0.0357 0.21754,-0.15398 0.41157,-0.26283 0.40177,-0.2254 0.62147,-0.51334 0.49113,-0.64368 -0.0885,-0.0885 -2.10254,0.88067 -2.17662,1.04737 -0.0216,0.0485 -0.11064,0.0882 -0.19795,0.0882 -0.29848,0 -1.35864,1.16559 -1.66114,1.82635 -0.16496,0.36031 -0.36095,0.63341 -0.43554,0.60689 -0.23026,-0.0819 -0.0998,-0.88743 0.24389,-1.50597 0.27993,-0.50378 0.30109,-0.60269 0.14966,-0.69924 -1.17509,-0.74918 -1.70857,-1.04075 -1.73873,-0.95028 -0.02,0.06 0.17784,0.44042 0.43961,0.84545 l 0.47597,0.73641 v 2.09269 c 0,1.48517 0.0515,2.29067 0.17731,2.7746 0.52075,2.00263 1.9772,3.62169 2.92927,3.25635 z m 41.85523,-7.57214 c 0.19764,-0.29105 0.67346,-0.92561 1.05737,-1.41016 0.38392,-0.48454 0.81338,-1.06662 0.95438,-1.29351 0.595474,-0.95828 1.002034,-2.50244 1.083894,-4.1167 0.0553,-1.09083 -0.14682,-6.12616 -0.31391,-7.81991 -0.22109,-2.24111 -0.27801,-5.77214 -0.1085,-6.73114 0.0908,-0.51356 0.16094,-1.7091 0.16052,-2.73506 -0.001,-2.59342 -0.30177,-3.46191 -1.836324,-5.30384 -0.40969,-0.49176 -0.87719,-1.07005 -1.03888,-1.28508 -0.54646,-0.72675 -0.87639,-1.11201 -1.26518,-1.47736 -0.35361,-0.3323 -0.53347,-0.44225 -1.27466,-0.77925 -0.40174,-0.18266 -2.14075,-0.0172 -2.84002,0.27012 -0.14552,0.0598 -0.4101,0.16862 -0.58796,0.2418 -0.76311,0.31399 -1.40959,0.67374 -3.55718,1.97951 -2.19782,1.3363 -3.73667,2.00317 -4.62245,2.00317 h -0.44893 l 0.0368,-0.38218 c 0.0317,-0.32878 0.0861,-0.38694 0.38962,-0.41632 0.19403,-0.0188 0.4983,-0.0914 0.67616,-0.16126 l 0.32338,-0.12711 v -3.5723 -3.57231 h -0.27181 c -0.36034,0 -0.75251,-0.3806 -0.98126,-0.95231 -0.14916,-0.37278 -0.21781,-0.43799 -0.34766,-0.33023 -0.089,0.0739 -0.29857,0.10814 -0.46573,0.0762 -0.34441,-0.0658 -0.3259,-0.104 -0.52798,1.08875 -0.33799,1.99494 -1.00309,3.47319 -2.00752,4.4619 -1.0563,1.03977 -3.68023,2.60688 -4.57026,2.72954 l -0.29398,0.0405 -0.0786,0.99954 c -0.0432,0.54974 -0.11282,1.44933 -0.15462,1.99907 -0.0894,1.17525 -0.22952,1.5287 -0.60619,1.5287 -0.23794,0 -0.94178,0.32402 -1.27723,0.58797 -0.11426,0.0899 -0.73982,0.44802 -1.18921,0.68078 -0.59312,0.3072 -1.0176,0.44332 -3.02748,0.97086 l -0.57133,0.14996 1.0417,0.31192 c 1.27868,0.38288 1.68418,0.59153 2.35963,1.21414 1.62481,1.49769 2.07652,5.08753 0.89593,7.12014 -0.36586,0.62988 -1.09492,1.34915 -1.7664,1.74267 -0.27845,0.16318 -0.50627,0.3392 -0.50627,0.39117 0,0.052 0.15402,0.38727 0.34227,0.74513 0.45905,0.87267 0.79771,1.87982 0.89639,2.66582 0.0867,0.6908 0.21645,0.94074 0.48824,0.94074 0.49486,0 1.58501,0.72715 2.70637,1.80521 l 1.20498,1.15845 0.67926,-0.20676 c 0.37359,-0.11371 0.72952,-0.25136 0.79097,-0.3059 0.0614,-0.0545 0.2303,-0.0992 0.37523,-0.0992 0.14494,0 0.29623,-0.0529 0.3362,-0.11759 0.04,-0.0647 0.17611,-0.11759 0.30252,-0.11759 0.12641,0 0.32173,-0.0478 0.43403,-0.10613 0.11231,-0.0584 0.44232,-0.17035 0.73336,-0.24883 0.29104,-0.0785 0.66146,-0.18333 0.82315,-0.23301 0.67541,-0.2075 1.93389,-0.52019 2.80179,-0.69616 0.75601,-0.15328 2.55855,-0.16702 3.03089,-0.0231 0.18751,0.0571 0.57905,0.1725 0.8701,0.25637 0.29104,0.0839 0.59696,0.20373 0.67983,0.26635 0.1046,0.079 0.1975,0.0498 0.30387,-0.0957 0.22097,-0.3022 1.06019,-0.43403 3.14435,-0.49392 l 1.83499,-0.0527 0.0992,-1.37385 c 0.2724,-3.77198 -0.01,-11.86291 -0.42922,-12.30409 -0.0584,-0.0614 -0.10619,-0.23093 -0.10619,-0.37664 0,-0.14572 -0.0595,-0.41294 -0.13224,-0.59385 -0.51705,-1.28608 -0.63694,-1.78223 -0.47082,-1.94836 0.16676,-0.16675 0.32839,0.02 0.43481,0.50232 0.0357,0.16169 0.11458,0.38587 0.17535,0.49817 0.0608,0.11231 0.11049,0.30762 0.11049,0.43404 0,0.12641 0.0529,0.26254 0.11759,0.30251 0.0647,0.04 0.11759,0.19873 0.11759,0.35278 0,0.15406 0.0473,0.30935 0.10518,0.3451 0.42719,0.26402 0.74471,9.77526 0.43843,13.133 l -0.10316,1.13088 0.6697,0.21064 c 0.82084,0.25819 1.7013,1.01377 2.05287,1.76171 0.18562,0.39488 0.28129,0.93474 0.37014,2.08857 0.0659,0.85581 0.17568,1.74124 0.24394,1.9676 0.19719,0.65392 0.62814,1.52485 0.67947,1.37316 0.0258,-0.0761 0.20854,-0.37656 0.40618,-0.6676 z m -21.5315,-11.13584 c -0.0808,-0.0303 -0.14699,-0.1836 -0.14699,-0.3407 0,-0.21909 0.15756,-0.38665 0.67616,-0.71913 0.83699,-0.53659 2.52583,-1.37693 3.11621,-1.55056 0.24253,-0.0713 0.6167,-0.18262 0.83149,-0.24729 0.49788,-0.14992 2.85952,-0.15295 3.51774,-0.005 0.2758,0.0622 0.84542,0.18539 1.26581,0.27376 l 0.76435,0.16067 v 0.34361 c 0,0.30574 -0.0389,0.34243 -0.35277,0.33299 -0.19403,-0.006 -0.69674,-0.0795 -1.11713,-0.16375 -1.14533,-0.22945 -3.10294,-0.28437 -3.93222,-0.11032 -1.15546,0.24252 -2.37037,0.79747 -4.24047,1.93698 -0.12935,0.0788 -0.30133,0.11853 -0.38218,0.0882 z m -38.25115,1.79557 c 0.004,-0.2099 0.14858,-0.73438 0.35925,-1.30186 0.18758,-0.50534 1.07656,-2.28079 1.58973,-3.175 0.29693,-0.51741 0.7543,-1.36408 1.01638,-1.88148 0.26207,-0.51741 0.52323,-1.03263 0.58034,-1.14494 0.2194,-0.43144 0.11473,-1.1487 -0.24363,-1.66957 -0.70509,-1.02482 -2.94513,-2.84961 -2.94513,-2.39919 0,0.0779 0.10082,0.43612 0.22403,0.79614 0.24688,0.72137 0.47911,1.98678 0.46541,2.53607 -0.009,0.37348 -0.29858,0.80177 -0.46997,0.69585 -0.056,-0.0346 -0.10187,-0.34821 -0.10187,-0.69683 v -0.63387 l -0.49977,-0.51067 c -0.7173,-0.73294 -1.33124,-0.99426 -2.93982,-1.2513 -0.55066,-0.088 -0.70401,0.007 -0.46142,0.28604 0.48009,0.55207 0.58776,3.45983 0.17246,4.65726 -0.15174,0.43748 -0.18239,0.64647 -0.0896,0.61087 0.0903,-0.0346 0.25686,0.3174 0.46303,0.97867 0.41054,1.31675 1.28053,3.03423 2.14663,4.23776 l 0.4409,0.61266 0.14445,-0.25988 c 0.0795,-0.14294 0.14632,-0.36197 0.14861,-0.48673 z m -4.47453,-4.30047 c 0.14329,-0.11678 0.59311,-1.13317 0.82825,-1.87151 0.36497,-1.14594 0.29078,-3.2248 -0.13234,-3.70826 -0.0538,-0.0614 -0.0978,-0.3128 -0.0978,-0.55857 0,-0.38069 -0.0379,-0.44685 -0.25623,-0.44685 -0.37287,0 -0.97813,-0.20933 -1.97803,-0.68412 -0.66845,-0.31741 -1.11293,-0.64823 -1.83614,-1.36664 -0.80446,-0.79911 -1.69164,-1.90231 -1.69164,-2.10355 0,-0.0302 -0.20346,-0.39112 -0.45213,-0.80196 -0.78959,-1.30448 -1.43648,-2.77957 -1.73516,-3.95662 l -0.2896,-1.14128 0.0331,-2.9103 c 0.0207,-1.81791 0.076,-2.89604 0.14747,-2.8723 0.0629,0.0209 0.14438,0.16637 0.18108,0.32327 0.0557,0.23806 0.14864,0.29124 0.5618,0.32142 0.2922,0.0213 0.49509,0.0951 0.49509,0.18001 0,0.22662 0.68589,0.43955 1.64629,0.51107 0.81814,0.0609 1.62409,-0.0245 2.93982,-0.31144 1.05348,-0.22979 4.55481,-0.81708 5.72759,-0.96072 1.86616,-0.22855 3.22794,0.1134 4.05022,1.01704 0.42086,0.46248 0.52976,0.4991 0.60687,0.20404 0.0296,-0.11319 0.0599,0.17408 0.0674,0.63836 0.01,0.60799 -0.0357,0.89349 -0.16275,1.02053 -0.20073,0.20074 -0.22458,0.45644 -0.0703,0.75335 0.25823,0.49682 0.3796,1.2356 0.40053,2.43795 l 0.0225,1.29302 0.47174,0.47534 c 0.7006,0.70593 1.34102,1.10977 3.32333,2.09559 2.63959,1.31271 3.69842,2.11477 4.63103,3.50798 0.64258,0.95993 1.39004,2.80203 1.39467,3.43711 9.8e-4,0.13484 0.0686,0.46843 0.15022,0.74131 l 0.14843,0.49614 0.22667,-0.49614 c 0.28219,-0.61766 0.38273,-2.5521 0.18159,-3.49399 -0.55781,-2.61212 -1.07706,-3.70874 -2.33894,-4.93965 -0.90699,-0.88474 -0.99292,-0.95423 -2.14871,-1.73758 -0.85186,-0.57736 -1.87935,-1.57492 -2.2105,-2.14611 -0.19584,-0.33778 -0.36977,-0.69258 -0.66142,-1.34919 -0.11491,-0.2587 -0.27809,-0.55242 -0.36262,-0.65272 -0.0845,-0.10029 -0.47684,-0.9205 -0.87182,-1.82268 -0.67452,-1.54074 -1.60828,-3.44928 -1.75182,-3.58061 -0.0353,-0.0323 -0.14363,-0.19901 -0.24064,-0.37038 -0.55244,-0.97584 -1.72147,-2.1576 -2.88268,-2.91407 -1.22277,-0.79657 -3.27932,-1.78418 -4.71677,-2.26511 l -0.80842,-0.27047 -2.17547,-4e-4 c -3.03133,-5.7e-4 -4.32953,0.27936 -5.76759,1.24366 -1.05807,0.70949 -1.83994,1.87574 -2.31684,3.45586 -0.0659,0.2185 -0.32198,0.50055 -0.68475,0.75434 -0.71704,0.50162 -0.93996,0.74969 -1.28798,1.4333 -0.91773,1.80269 -0.84823,4.52429 0.16783,6.57217 0.38106,0.76802 1.01441,1.7547 1.44782,2.25553 0.14786,0.17084 0.39296,0.46189 0.54469,0.64676 l 0.27586,0.33612 -0.0751,-0.47037 c -0.23109,-1.44796 -0.30228,-3.65231 -0.18228,-5.64444 0.23857,-3.96055 0.26292,-4.14237 0.50975,-3.8074 0.10469,0.14208 0.11252,0.48712 0.0307,1.35231 -0.15845,1.67472 -0.14757,6.9059 0.016,7.68796 0.282,1.34846 0.35839,1.6337 0.61406,2.29305 0.4029,1.03903 1.13271,2.25103 1.76239,2.9268 0.52283,0.56109 2.17941,1.86967 3.35796,2.65253 0.93559,0.62147 1.84165,1.64301 2.32535,2.62171 0.24094,0.48752 0.43808,0.98749 0.43808,1.11106 0,0.12356 0.0565,0.28121 0.12565,0.35032 0.072,0.072 0.13477,0.70925 0.14699,1.49298 0.0117,0.75202 0.0425,1.30137 0.0684,1.22077 0.0259,-0.0806 0.0795,-0.173 0.11918,-0.20533 z m 8.47684,-21.87088 c 0,-0.39193 -0.14606,-0.6072 -0.99953,-1.47315 -0.6123,-0.62125 -1.57437,-1.1571 -2.52824,-1.40817 -2.90952,-0.76581 -6.53226,-0.37309 -9.23102,1.00069 -1.29205,0.65771 -2.06851,0.9355 -2.70463,0.96764 l -0.58796,0.0297 v -0.29398 -0.29398 l 0.52916,-0.0368 c 0.29104,-0.0203 0.57944,-0.0864 0.64088,-0.14699 0.0614,-0.0606 0.18695,-0.11017 0.2789,-0.11017 0.0919,0 0.70314,-0.25989 1.3582,-0.57755 1.26421,-0.61305 2.23044,-0.96808 3.19008,-1.17218 0.32338,-0.0688 0.83629,-0.17947 1.1398,-0.24599 0.81295,-0.17817 4.01029,-0.15108 4.91626,0.0417 1.79974,0.38288 3.06342,1.21338 3.75964,2.47088 0.24273,0.4384 0.47042,1.59986 0.31364,1.59986 -0.0413,0 -0.0752,-0.15814 -0.0752,-0.35143 z m -3.6168,15.95025 c -0.45063,-0.97974 -0.68359,-1.39789 -0.97735,-1.75427 -0.34682,-0.42075 -1.6087,-1.14455 -1.99543,-1.14455 -0.30089,0 -1.35426,-0.2837 -1.99467,-0.53722 -0.62614,-0.24786 -1.78037,-0.99313 -2.33469,-1.50747 -0.72544,-0.67311 -1.6808,-2.25749 -2.52513,-4.18772 -0.19557,-0.44708 -0.79175,-2.24254 -0.99568,-2.99861 -0.14106,-0.52294 -0.28782,-1.17851 -0.49965,-2.23188 -0.12807,-0.63684 -0.34854,-0.98804 -0.62663,-0.99817 -0.0571,-0.002 -0.0764,1.1045 -0.0435,2.4951 0.0741,3.13064 0.19756,3.67478 1.39443,6.14421 0.81626,1.68413 1.21355,2.25253 2.38521,3.41251 1.44821,1.43374 2.98283,2.123 5.36229,2.40839 1.38607,0.16624 2.07923,0.43443 2.55718,0.98938 0.33809,0.39255 0.49357,0.34505 0.29361,-0.0897 z m -0.82232,-3.7259 c 1.00667,-0.20484 1.5517,-0.32926 1.96968,-0.44963 0.22637,-0.0652 0.54387,-0.15584 0.70556,-0.20144 0.46348,-0.13074 1.03426,-0.60927 1.22077,-1.02348 0.44044,-0.97813 0.73829,-2.88498 0.61339,-3.92691 -0.0452,-0.3772 -0.12846,-1.18852 -0.18499,-1.80294 -0.11701,-1.27164 -0.22853,-1.76606 -0.53052,-2.35185 -0.24087,-0.46725 -1.02404,-1.51185 -1.57844,-2.10533 l -0.37278,-0.39907 -1.15667,0.0705 c -0.97488,0.0594 -3.56261,0.49582 -5.3603,0.90403 -2.67389,0.60717 -3.45892,0.66719 -4.86111,0.37167 l -0.51018,-0.10752 0.0599,0.54468 c 0.0651,0.5924 0.21944,1.33551 0.43066,2.07338 0.074,0.25871 0.16452,0.60266 0.20104,0.76435 0.0365,0.16169 0.10268,0.3469 0.14702,0.41158 0.0444,0.0647 0.15388,0.35572 0.2434,0.64676 0.2053,0.66747 1.3647,2.95538 1.88319,3.7162 0.60983,0.89485 1.18592,1.37347 2.31029,1.91939 0.57012,0.27682 1.12847,0.5508 1.24077,0.60885 0.11231,0.0581 0.30192,0.10556 0.42137,0.10556 0.11945,0 0.25673,0.0397 0.30506,0.0882 0.0483,0.0485 0.36142,0.14968 0.69575,0.22482 0.62012,0.13938 1.11482,0.12018 2.10719,-0.0818 z m 1.30378,-2.31852 c 0.0549,-0.29101 0.0307,-0.38218 -0.10139,-0.38218 -0.0954,0 -0.17345,0.0465 -0.17345,0.10333 0,0.12178 -0.49389,0.32101 -1.01868,0.41093 -0.57383,0.0983 -0.63537,-0.10318 -0.31867,-1.04342 0.15249,-0.45273 0.25165,-0.93638 0.22035,-1.07476 -0.0902,-0.39903 -0.41665,-0.44621 -0.73225,-0.10585 -0.52948,0.57102 -1.20816,0.25467 -1.20816,-0.56314 0,-0.23745 0.0529,-0.43172 0.11759,-0.43172 0.0647,0 0.1176,0.12852 0.1176,0.28559 0,0.28439 0.27094,0.65515 0.47877,0.65515 0.0601,0 0.10919,-0.10749 0.10919,-0.23887 0,-0.22654 0.13952,-0.33769 0.49059,-0.39085 0.25318,-0.0383 0.45765,-0.2009 0.43934,-0.34928 -0.047,-0.38083 0.0374,-0.56563 0.30479,-0.66729 0.16169,-0.0615 0.29398,-0.1734 0.29398,-0.24871 0,-0.20019 -0.37098,-0.44879 -0.67615,-0.45311 -0.14552,-0.002 -0.26459,-0.0567 -0.26459,-0.12133 0,-0.17215 0.61202,-0.13646 0.85791,0.05 0.11613,0.0881 0.24142,0.34664 0.27841,0.5746 0.054,0.33281 0.0205,0.44364 -0.17002,0.56264 -0.14169,0.0885 -0.20951,0.22054 -0.16835,0.3278 0.11352,0.29583 0.41258,0.5941 0.52562,0.52424 0.19298,-0.11927 1.53155,-0.39931 1.59679,-0.33406 0.10255,0.10254 0.0128,1.28215 -0.10694,1.40508 -0.25277,0.25958 -0.11559,0.43759 0.27339,0.3548 l 0.38217,-0.0813 -0.4329,0.37406 c -0.23809,0.20573 -0.60257,0.56886 -0.80995,0.80695 l -0.37705,0.43291 z m -0.50344,-0.45561 c 0.62489,-0.32675 1.28693,-1.13166 1.28693,-1.56465 0,-0.36011 -0.21224,-0.29572 -0.47104,0.1429 -0.12535,0.21247 -0.52044,0.63885 -0.87798,0.94752 -0.56885,0.49112 -0.78838,0.78285 -0.58909,0.78285 0.0335,0 0.32656,-0.13888 0.65118,-0.30862 z m 0.46269,-1.47343 c 0.28002,-0.3469 0.31281,-0.4428 0.17012,-0.49756 -0.25721,-0.0987 -1.34495,0.96029 -1.34495,1.30939 v 0.27469 l 0.41397,-0.32839 c 0.22769,-0.18062 0.57007,-0.52178 0.76086,-0.75813 z m -0.78433,-0.2633 c 0.0346,-0.0901 -0.0684,-0.28718 -0.2288,-0.43789 -0.24424,-0.22946 -0.30892,-0.24613 -0.39767,-0.10253 -0.0733,0.11865 -0.0289,0.25356 0.14429,0.43789 0.2896,0.30826 0.39466,0.3306 0.48218,0.10253 z m -6.38772,-0.25914 c 0,-0.0386 0.26431,-0.30787 0.58736,-0.59832 0.56298,-0.50617 0.88076,-1.00273 0.96436,-1.50691 0.052,-0.31346 0.26203,-0.2536 0.30558,0.0871 0.0413,0.32329 -0.22325,0.99462 -0.52401,1.32961 -0.46294,0.51562 -1.33329,0.96509 -1.33329,0.68854 z m -1.17593,-0.58393 c 0,-0.84711 1.21105,-2.3822 1.92377,-2.43852 0.46613,-0.0368 0.38313,0.13242 -0.35639,0.72673 -0.50758,0.4079 -0.77698,0.74056 -1.03821,1.28198 -0.37941,0.78633 -0.52917,0.90797 -0.52917,0.42981 z m 4.90289,-3.77196 c -0.11891,-0.11892 0.0297,-0.27758 0.26006,-0.27758 0.54868,0 1.11578,-0.46794 1.5729,-1.29787 0.26843,-0.48736 0.37051,-0.38584 0.2103,0.20915 -0.13847,0.51422 -0.35506,0.7962 -0.90828,1.18249 -0.35205,0.24582 -0.97249,0.34629 -1.13498,0.18381 z m -0.78715,-0.79727 c 0,-0.45828 1.47977,-1.94976 1.93444,-1.94976 0.18072,0 0.016,0.27074 -0.39765,0.65343 -0.25425,0.23524 -0.61129,0.64748 -0.79342,0.91608 -0.50026,0.73778 -0.74337,0.86214 -0.74337,0.38025 z m 40.94508,2.71185 c 0.44939,-0.13525 1.26941,-0.55697 2.67722,-1.37685 0.15919,-0.0927 0.36141,-0.2347 0.44938,-0.31555 0.088,-0.0808 0.20717,-0.14699 0.26489,-0.14699 0.0577,0 0.42519,-0.29855 0.81658,-0.66345 0.93185,-0.86878 1.45402,-1.91556 1.76821,-3.54465 0.1283,-0.66522 0.23327,-1.31868 0.23327,-1.45214 0,-0.13345 0.0881,-0.42829 0.19577,-0.6552 l 0.19577,-0.41255 0.19731,0.26158 c 0.37048,0.49115 0.84023,0.0527 1.16657,-1.08891 0.0693,-0.24254 0.17898,-0.61671 0.24365,-0.8315 0.45456,-1.50958 -0.62329,-2.5685 -1.63261,-1.60393 -0.20569,0.19657 -0.41876,0.32972 -0.4735,0.29589 -0.0547,-0.0338 -0.13109,0.0964 -0.16969,0.28936 -0.1091,0.54552 -0.28116,0.41589 -0.43175,-0.32528 -0.2234,-1.09948 -0.45547,-1.52744 -1.0662,-1.96621 -0.45105,-0.32405 -0.64418,-0.5821 -0.98806,-1.32025 -1.02364,-2.19729 -1.05807,-2.2353 -2.21397,-2.44434 -0.71713,-0.12969 -1.49185,-0.0675 -2.49042,0.20004 -0.85999,0.23039 -3.26551,0.98741 -3.64537,1.14721 -0.12935,0.0544 -0.47331,0.18758 -0.76435,0.29592 -1.23907,0.46124 -2.35185,0.98864 -2.35185,1.11466 0,0.0619 0.0985,0.36595 0.21902,0.67556 0.12046,0.3096 0.28453,0.84089 0.36459,1.18064 0.0801,0.33975 0.18345,0.64113 0.22974,0.66974 0.0463,0.0286 0.46301,-0.004 0.92606,-0.0729 0.98936,-0.14684 1.73192,-0.059 2.14114,0.25318 l 0.29398,0.2243 -0.0322,1.15307 c -0.0215,0.76758 -0.1084,1.3693 -0.26007,1.79983 -0.12531,0.35572 -0.26226,0.86645 -0.30433,1.13496 l -0.0765,0.48821 0.77487,0.38564 0.77487,0.38563 0.31429,-0.1682 0.31429,-0.1682 -0.43721,-0.0711 c -0.24046,-0.0391 -0.52621,-0.1601 -0.635,-0.26892 -0.17368,-0.17373 -0.17629,-0.21146 -0.0214,-0.3094 0.20338,-0.12861 0.8632,-0.14829 1.39641,-0.0416 0.25478,0.051 0.36747,0.14111 0.36747,0.29398 0,0.27152 0.30014,0.2921 0.40166,0.0275 0.14135,-0.36834 -0.068,-0.63045 -0.7609,-0.95284 -0.80793,-0.37589 -0.9078,-0.61809 -0.25488,-0.61809 0.5823,0 1.31818,0.51395 1.66576,1.16341 0.11491,0.2147 0.10555,0.31759 -0.0506,0.55588 -0.10538,0.16083 -0.28112,0.3199 -0.39054,0.35348 -0.10941,0.0336 -0.29082,0.11011 -0.40312,0.17007 -0.11231,0.06 -0.28668,0.10901 -0.38751,0.10901 -0.14737,0 -0.16794,0.0865 -0.10492,0.44097 0.0431,0.24253 0.11165,0.47656 0.15232,0.52005 0.10597,0.11336 1.48144,0.45674 2.29578,0.57314 0.38123,0.0545 0.75001,0.15594 0.81952,0.22545 0.1402,0.1402 10e-4,0.28795 -1.14127,1.21232 l -0.68694,0.55585 h 0.3677 c 0.41229,0 0.94738,0.30021 0.94738,0.53154 0,0.11301 -0.17248,0.13694 -0.67616,0.0938 -0.74217,-0.0636 -1.38234,0.13656 -1.77084,0.55357 l -0.22294,0.23929 -0.15286,-0.18419 c -0.1293,-0.1558 -0.10139,-0.23792 0.18104,-0.53272 0.33623,-0.35095 0.24162,-0.45682 -0.19798,-0.22156 -0.29269,0.15664 -0.62698,-0.10193 -0.74542,-0.57659 -0.0432,-0.1731 -0.16702,-0.41346 -0.27516,-0.53414 -0.15155,-0.16911 -0.19662,-0.45146 -0.19662,-1.23174 v -1.01234 l -0.44427,-0.0732 c -0.42682,-0.0703 -0.77886,-0.36613 -0.78672,-0.66105 -0.002,-0.0772 -0.11823,-0.22052 -0.25817,-0.31853 -0.20655,-0.14468 -0.25078,-0.28425 -0.23504,-0.74163 0.0107,-0.30987 0.071,-0.6957 0.13404,-0.85739 0.18739,-0.48057 0.33746,-1.29352 0.23878,-1.29352 -0.0504,0 -0.24322,0.0791 -0.42847,0.17567 -0.18525,0.0966 -0.56637,0.17599 -0.84693,0.17639 l -0.5101,7.2e-4 0.0786,0.49977 c 0.11161,0.70979 0.31673,1.36262 0.69278,2.20486 0.0722,0.16169 0.3913,0.71732 0.70913,1.23472 0.31783,0.51741 0.97929,1.64204 1.46991,2.49917 1.0131,1.76994 1.40599,2.30337 1.93338,2.62495 0.43804,0.2671 0.79182,0.28272 1.50975,0.0667 z m 7.52327,-10.48029 c 0.0337,-0.50088 -0.16343,-0.67805 -0.57882,-0.52012 -0.33452,0.12718 -0.50116,0.0519 -0.49598,-0.22393 0.0121,-0.64096 0.89638,-0.88871 1.3044,-0.36543 0.3003,0.38512 0.26632,1.43802 -0.0483,1.49786 -0.17453,0.0332 -0.20522,-0.0326 -0.18126,-0.38838 z m -9.51346,0.21409 c -0.14423,-0.0306 -0.37065,-0.19341 -0.50314,-0.36185 -0.31484,-0.40025 -0.14619,-0.59066 0.3435,-0.38783 0.19624,0.0813 0.55485,0.11823 0.8003,0.0824 0.83757,-0.12213 1.20908,-0.22251 1.20908,-0.3267 0,-0.0573 0.0712,-0.10425 0.15816,-0.10425 0.087,0 0.25394,-0.10583 0.37101,-0.23518 0.21676,-0.23952 0.64675,-0.3237 0.64675,-0.12662 0,0.0597 -0.13781,0.27236 -0.30626,0.47254 -0.52761,0.62704 -1.96223,1.14796 -2.7194,0.98745 z m -1.13962,-1.88082 c -0.0872,-0.22724 0.29763,-0.68338 0.79464,-0.9419 0.61204,-0.31835 1.83835,-0.51153 2.4199,-0.3812 0.7121,0.15959 1.89175,0.89196 1.61052,0.99988 -0.11785,0.0452 -0.42997,-0.0392 -0.74636,-0.20196 -0.99419,-0.51133 -2.30151,-0.32297 -3.45935,0.49842 -0.38389,0.27233 -0.52281,0.27834 -0.61935,0.0268 z m 2.2838,9.66087 c 0,-0.0323 -0.0265,-0.0588 -0.0588,-0.0588 -0.0323,0 -0.0588,0.0265 -0.0588,0.0588 0,0.0323 0.0265,0.0588 0.0588,0.0588 0.0323,0 0.0588,-0.0265 0.0588,-0.0588 z m -32.94548,-1.10682 c -0.15838,-0.30801 -0.79321,-0.94571 -0.94489,-0.94917 -0.0454,-0.001 0.16629,0.41153 0.47037,0.9168 0.46852,0.7785 0.55883,0.87427 0.59193,0.62766 0.0215,-0.16005 -0.0314,-0.42793 -0.11741,-0.59529 z m 32.88669,0.51803 c 0.19402,-0.083 0.53798,-0.31763 0.76435,-0.5214 l 0.41157,-0.37048 -0.41157,0.0586 c -0.46508,0.0662 -1.11608,0.17606 -1.47762,0.24932 -0.37909,0.0768 -0.79507,0.49142 -0.71152,0.70915 0.0588,0.15316 0.17028,0.17419 0.5725,0.10796 0.27473,-0.0452 0.65826,-0.15015 0.85229,-0.23315 z m -0.64676,-1.11222 0.52916,-0.1562 -0.35277,-0.10014 c -0.57996,-0.16464 -1.70589,0.44746 -1.39499,0.75836 0.0412,0.0412 0.21319,-0.0197 0.38218,-0.13546 0.16899,-0.1157 0.54538,-0.28066 0.83642,-0.36656 z m -0.76007,-0.86121 c 0.0838,-0.33401 -0.14706,-0.98777 -0.29585,-0.83771 -0.12765,0.12874 -0.0142,1.10688 0.12842,1.10688 0.0549,0 0.13027,-0.12113 0.16743,-0.26917 z m -1.47419,-1.08315 c 0,-0.0323 -0.0265,-0.0588 -0.0588,-0.0588 -0.0323,0 -0.0588,0.0265 -0.0588,0.0588 0,0.0323 0.0265,0.0588 0.0588,0.0588 0.0323,0 0.0588,-0.0265 0.0588,-0.0588 z m 12.95301,-1.23472 c 0.33325,-1.21016 0.47398,-5.02268 0.22704,-6.15094 -0.0593,-0.27117 -0.16985,-0.81054 -0.24557,-1.1986 -0.0757,-0.38805 -0.1859,-0.79744 -0.24486,-0.90974 -0.059,-0.11231 -0.10721,-0.31075 -0.10721,-0.44097 0,-0.13023 -0.0529,-0.23679 -0.1176,-0.23679 -0.0647,0 -0.11759,-0.10655 -0.11759,-0.23678 0,-0.13023 -0.0464,-0.32866 -0.10316,-0.44097 -0.0567,-0.1123 -0.16642,-0.41586 -0.24374,-0.67456 -0.0773,-0.2587 -0.36163,-0.91995 -0.63179,-1.46943 -0.7664,-1.55874 -1.96914,-2.64328 -3.37224,-3.04082 -1.76458,-0.49997 -4.98197,-0.82425 -6.1913,-0.62402 -0.88111,0.14588 -2.16204,0.64219 -2.82572,1.09484 -0.27035,0.1844 -0.54817,0.33526 -0.61736,0.33526 -0.0692,0 -0.1258,0.044 -0.1258,0.0977 0,0.0538 -0.1382,0.17169 -0.30712,0.26209 -0.16892,0.0904 -0.35285,0.28463 -0.40873,0.43162 -0.0622,0.16368 -0.36478,0.39166 -0.78061,0.58822 -0.78442,0.3708 -1.50557,1.05187 -1.88433,1.77959 -0.46247,0.88857 -0.32196,2.46879 0.26267,2.95399 0.13487,0.11193 0.3089,0.0758 0.8501,-0.17634 0.37429,-0.1744 0.78635,-0.35738 0.9157,-0.40663 0.12936,-0.0492 0.38071,-0.14953 0.55857,-0.22286 0.17786,-0.0733 0.45567,-0.18624 0.61736,-0.25092 0.16169,-0.0647 0.41304,-0.16703 0.55857,-0.22746 0.32417,-0.13462 1.48917,-0.51158 2.20486,-0.71342 1.21718,-0.34328 1.36453,-0.38735 1.62243,-0.48527 0.14856,-0.0564 0.37346,-0.10255 0.49977,-0.10255 0.17782,0 0.22965,-0.0813 0.22965,-0.36018 0,-0.93209 1.3381,-2.72428 2.14739,-2.87611 0.43735,-0.0821 0.96813,0.10731 0.84757,0.30238 -0.038,0.0614 -0.25455,0.11169 -0.4813,0.11169 -0.70476,0 -1.85734,1.35367 -1.94991,2.29011 l -0.0346,0.34984 0.44932,-0.0362 c 0.61515,-0.0495 1.58024,0.19765 2.09248,0.53594 0.23405,0.15458 0.53138,0.50308 0.66154,0.77539 0.92402,1.93332 1.03509,2.11372 1.58476,2.57393 0.64805,0.54258 0.86228,0.89643 1.03757,1.71376 l 0.12246,0.57102 0.47047,-0.44755 c 0.39948,-0.38001 0.54899,-0.44755 0.99077,-0.44755 0.43877,0 0.5854,0.0651 0.93579,0.4155 l 0.41549,0.41549 v 0.81754 c 0,0.80023 -0.16007,1.73544 -0.36667,2.14224 -0.057,0.1123 -0.1037,0.285 -0.1037,0.38377 0,0.0988 -0.0636,0.28143 -0.14134,0.40591 -0.1408,0.22545 -0.0219,0.61217 0.31773,1.03348 0.20224,0.25088 0.69203,0.12272 0.78218,-0.20467 z m -2.1374,-8.41552 c -0.0631,-0.1659 -0.11469,-0.37933 -0.11469,-0.47428 0,-0.2822 -0.53486,-1.25246 -1.04894,-1.90282 -0.54481,-0.68923 -0.56025,-0.73145 -0.26764,-0.73145 0.22165,0 0.75798,0.51453 1.16445,1.11713 0.28434,0.42154 0.7401,1.6755 0.7401,2.0363 0,0.35802 -0.33207,0.32653 -0.47328,-0.0449 z m -13.28092,-1.45453 c -0.22158,-0.41402 -0.14703,-1.70199 0.12838,-2.21795 0.31388,-0.58805 1.10314,-1.43515 1.33717,-1.43515 0.25456,0 0.21714,0.27985 -0.0723,0.54034 -0.13688,0.12321 -0.41469,0.46214 -0.61736,0.75318 l -0.36849,0.52917 0.0134,1.02893 c 0.0102,0.78389 -0.0238,1.02894 -0.14285,1.02894 -0.0859,0 -0.211,-0.10236 -0.27795,-0.22746 z m 1.32244,7.04044 c 0.64234,-0.42547 0.78172,-0.73535 0.48045,-1.06824 -0.18086,-0.19986 -0.32084,-0.22751 -0.92194,-0.18213 -0.87012,0.0657 -1.53185,0.23011 -1.53185,0.38064 0,0.062 0.10584,0.36392 0.23519,0.67089 l 0.23519,0.55813 0.4796,4.4e-4 c 0.33885,3.1e-4 0.6392,-0.10527 1.02336,-0.35973 z m 10.78546,53.61001 c 0,-0.26948 0.0383,-0.45171 0.085,-0.40496 0.12983,0.12983 0.15198,0.89493 0.0259,0.89493 -0.061,0 -0.11092,-0.22048 -0.11092,-0.48997 z m -0.0846,-4.30642 c 0.0696,-0.28839 -0.37344,-0.84805 -0.67138,-0.84805 -0.0866,0 -0.35564,-0.2249 -0.59797,-0.49977 -0.24234,-0.27487 -0.83524,-0.9098 -1.31757,-1.41096 l -0.87695,-0.91119 0.076,-0.44963 0.076,-0.44964 0.59452,0.53768 c 0.32699,0.29572 0.75797,0.7758 0.95774,1.06684 0.41041,0.59791 0.39912,0.58622 1.21294,1.25692 l 0.59768,0.49256 0.0645,-1.08053 c 0.11395,-1.9075 1.07003,-5.68082 1.47346,-5.8153 0.21937,-0.0731 0.17404,0.62999 -0.0887,1.37556 -0.60965,1.73005 -0.99856,3.58338 -1.16945,5.57292 -0.0562,0.6548 -0.16347,1.21523 -0.2475,1.29352 -0.11716,0.10916 -0.13464,0.0817 -0.0833,-0.13093 z m -27.86409,-13.35448 c -0.26996,-0.0751 -0.53013,-0.17579 -0.57817,-0.22383 -0.048,-0.048 -0.16079,-0.0873 -0.25058,-0.0873 -0.27112,0 -1.4806,-0.88085 -1.96021,-1.42758 -0.91994,-1.04872 -1.37291,-2.3667 -1.37845,-4.01089 -0.005,-1.39887 0.49756,-3.14579 0.90448,-3.14579 0.22228,0 0.34567,0.31089 0.19895,0.50126 -0.22307,0.28943 -0.52827,1.21882 -0.62702,1.90938 -0.20591,1.43997 0.30704,3.11912 1.25941,4.12271 0.48082,0.50668 1.46813,1.22776 1.68107,1.22776 0.0701,0 0.21929,0.0478 0.3316,0.10613 0.73687,0.383 2.04995,0.44932 3.11423,0.15729 1.45547,-0.39936 3.29158,-1.78409 3.82241,-2.88273 0.48791,-1.00979 0.53568,-1.24349 0.46342,-2.26739 -0.0693,-0.98182 -0.0272,-1.12671 0.24774,-0.85182 0.17391,0.17391 0.19467,2.28135 0.0235,2.38713 -0.0647,0.04 -0.1176,0.19872 -0.1176,0.35278 0,0.15405 -0.0529,0.3128 -0.11759,0.35277 -0.0647,0.04 -0.11759,0.15184 -0.11759,0.24858 0,0.27582 -0.85677,1.46256 -1.46629,2.03101 -0.59888,0.55853 -1.99408,1.33633 -2.65168,1.47827 -0.70516,0.1522 -2.2694,0.16474 -2.78165,0.0223 z m 0.29216,-2.85014 c -0.35923,-0.18822 -0.80087,-0.89048 -0.80087,-1.27347 0,-0.40041 0.5449,-0.89126 0.9894,-0.89126 0.51127,0 0.82098,0.25142 1.00808,0.81834 0.13862,0.42001 0.13495,0.53346 -0.0283,0.87583 -0.23718,0.49737 -0.73469,0.69775 -1.1683,0.47056 z m 0.58329,-1.12844 c -0.0256,-0.0768 -0.10942,-0.1606 -0.18627,-0.18622 -0.0859,-0.0286 -0.11221,0.0251 -0.0683,0.13964 0.082,0.21375 0.32508,0.25823 0.25453,0.0466 z m 16.24355,-7.35689 c -0.50855,-0.63344 -0.59234,-1.16597 -0.23441,-1.48989 0.34622,-0.31333 0.83931,-0.19839 1.10455,0.25747 0.26068,0.44803 0.20185,0.84681 -0.17701,1.19977 -0.31381,0.29235 -0.4784,0.30011 -0.69313,0.0326 z"
       id="path26" /></g></svg>
