<?xml version="1.0" encoding="UTF-8" standalone="no"?>
<!-- Created with Inkscape (http://www.inkscape.org/) -->

<svg
   width="86.409714mm"
   height="159.22995mm"
   viewBox="0 0 86.409723 159.22995"
   version="1.1"
   id="svg1"
   xml:space="preserve"
   xmlns="http://www.w3.org/2000/svg"
   xmlns:svg="http://www.w3.org/2000/svg"><defs
     id="defs1" /><g
     id="layer1"
     transform="translate(191.06965,-285.8861)"><path
       style="fill:#4d4d4d"
       d="m -172.25831,444.88179 c -0.87622,-0.2937 -1.20429,-0.36584 -2.23426,-0.49133 -1.32327,-0.16122 -2.17444,-0.30384 -3.41019,-0.57141 -1.30847,-0.28331 -1.66618,-0.40261 -2.93981,-0.98044 -0.35572,-0.16139 -0.95898,-0.40729 -1.34058,-0.54645 l -0.69382,-0.25302 -2.95155,0.03 c -3.21775,0.0327 -3.36106,0.009 -4.1763,-0.6765 -0.78171,-0.65776 -1.06475,-1.51478 -1.06483,-3.22414 -6e-5,-1.55528 0.0568,-1.76267 1.04755,-3.82023 0.37412,-0.77695 0.8683,-1.88889 1.09818,-2.47098 1.11204,-2.81576 1.06724,-2.61464 1.27045,-5.70324 0.066,-1.00247 0.16851,-2.53706 0.22789,-3.41018 0.0594,-0.87313 0.15865,-2.40771 0.22062,-3.41019 0.062,-1.00247 0.14328,-2.1931 0.18068,-2.64583 0.0374,-0.45273 0.14712,-2.04023 0.24382,-3.52778 0.29112,-4.47819 0.57821,-6.19686 1.49288,-8.93703 0.28485,-0.85336 1.36764,-3.12632 1.85659,-3.89732 0.19479,-0.30715 0.35462,-0.64069 0.35518,-0.74121 5.6e-4,-0.10053 0.18079,-0.3724 0.40051,-0.60417 0.72426,-0.76397 1.32683,-1.8316 1.70469,-3.02035 0.45422,-1.42899 0.50861,-2.73241 0.42069,-10.0814 -0.0765,-6.39752 -0.0322,-8.76742 0.2423,-12.93518 0.18975,-2.88152 0.19004,-2.99596 0.009,-3.785 -0.10084,-0.44061 -0.42464,-1.48903 -0.71954,-2.32982 -0.9972,-2.84309 -1.24033,-4.21083 -1.01113,-5.6881 0.23852,-1.53726 0.44567,-2.03717 2.44272,-5.89477 0.51898,-1.00247 0.98017,-1.95497 1.02488,-2.11666 0.0447,-0.16169 0.15916,-0.57789 0.25433,-0.9249 l 0.17304,-0.63091 -0.79117,-1.36816 c -1.34373,-2.32371 -2.51491,-4.72948 -2.75553,-5.66029 -0.20053,-0.77571 -0.2187,-1.12273 -0.15087,-2.88102 0.0947,-2.45501 0.0345,-2.95485 -0.80062,-6.64398 l -0.38598,-1.70509 v -2.46945 c 0,-2.31326 0.0865,-3.25852 0.41693,-4.55671 0.25986,-1.02093 0.35557,-1.36483 0.59723,-2.14606 0.22679,-0.73315 0.25669,-1.11886 0.27347,-3.52778 0.0126,-1.80565 0.0683,-2.86098 0.16764,-3.175 0.36085,-1.14056 0.90118,-1.99073 1.9017,-2.99214 1.24607,-1.24719 1.1806,-1.19789 2.62332,-1.97546 1.43474,-0.77327 2.45097,-1.72992 2.67643,-2.5195 0.19436,-0.68068 0.1968,-3.58825 0.004,-4.62494 -0.16369,-0.87957 -0.26266,-1.19126 -0.67213,-2.11667 -1.53522,-3.46956 -2.2871,-6.45554 -2.28341,-9.06818 0.004,-2.96864 1.03019,-5.00558 3.31185,-6.57509 0.88801,-0.61084 2.15967,-1.19585 3.18117,-1.46345 0.80391,-0.2106 1.27365,-0.23818 4.05699,-0.23818 3.3472,0 4.1348,0.0871 5.29109,0.58507 0.74946,0.32277 1.43914,1.04551 1.84555,1.93402 0.23894,0.52236 0.30321,0.84752 0.30321,1.53393 v 0.87106 l 0.57674,1.15393 c 0.52392,1.04824 0.81255,1.81696 1.18384,3.15301 0.11066,0.39819 0.0939,0.56935 -0.10937,1.11547 -0.13206,0.3548 -0.2401,0.71256 -0.2401,0.79503 0,0.31764 0.50138,1.19349 1.01582,1.77449 0.51359,0.58005 0.80368,0.72145 1.04793,0.51079 0.12225,-0.10543 1.35226,-0.57421 2.46357,-0.93889 2.89197,-0.94904 5.11299,-0.96815 8.17268,-0.0703 0.82372,0.24171 1.70017,1.075 2.11675,2.01249 0.45105,1.01508 0.94009,2.64096 0.87379,2.90508 -0.0359,0.14318 0.0541,0.54478 0.20147,0.89865 0.22831,0.54825 0.26867,0.8669 0.28211,2.22728 0.0153,1.55517 0.0521,1.81694 0.32153,2.29305 0.50736,0.8964 0.90806,1.8769 0.90806,2.22199 0,0.44401 -0.42487,0.89422 -0.84388,0.89422 h -0.2242 l 0.002,0.91134 c 0.001,0.50124 0.002,1.10913 0.002,1.35087 -1.5e-4,0.35449 -0.0701,0.49099 -0.36162,0.70555 -0.45029,0.33144 -0.69129,0.78306 -0.69129,1.29546 0,0.52875 -0.58515,1.09479 -1.23472,1.19441 -0.63263,0.097 -2.30676,-0.21477 -2.99397,-0.5576 -0.21646,-0.10798 -0.45736,-0.19633 -0.53533,-0.19633 -0.36638,0 -0.97724,2.9499 -0.81437,3.93262 0.0493,0.29721 0.3941,0.96483 0.91454,1.77062 0.45951,0.71144 0.86372,1.31998 0.89824,1.35232 0.0345,0.0323 0.28191,0.34983 0.54974,0.70555 0.69054,0.91715 1.64574,1.86254 3.86141,3.82176 3.65753,3.23419 4.06804,3.62828 4.62959,4.44447 0.1966,0.28575 0.42077,0.77848 0.49816,1.09495 0.0774,0.31647 0.21234,0.71829 0.29991,0.89294 0.29283,0.58403 0.14963,2.68148 -0.18304,2.68096 -0.0381,-6e-5 -0.0757,-0.69385 -0.0835,-1.54174 -0.008,-0.8479 -0.0608,-1.57546 -0.11778,-1.61679 -0.057,-0.0413 -0.1731,-0.21035 -0.25802,-0.37559 -0.20129,-0.39169 -0.63,-0.84494 -1.55125,-1.64005 -6.07839,-5.2461 -7.07393,-6.28138 -9.12464,-9.48884 l -0.86982,-1.36045 v -0.8823 c 0,-1.0192 0.15534,-2.07868 0.4831,-3.29505 0.127,-0.47132 0.20551,-0.89804 0.17447,-0.94827 -0.031,-0.0502 -0.30033,-0.21676 -0.5984,-0.37007 -0.66926,-0.34421 -1.90663,-1.6421 -2.27019,-2.38123 -0.1747,-0.35515 -0.45839,-0.67707 -0.79965,-0.90738 -0.29089,-0.19632 -0.54561,-0.35695 -0.56604,-0.35695 -0.0204,0 0.14653,0.53646 0.37101,1.19212 0.47559,1.38905 0.59124,2.00165 0.74066,3.92316 0.12289,1.58025 0.2545,2.47971 0.46456,3.175 0.13961,0.46211 0.57752,1.35438 0.72139,1.46991 0.0403,0.0323 0.28172,0.38239 0.53654,0.77789 0.42993,0.66729 0.55899,0.95921 0.98184,2.22072 0.0993,0.29634 0.1546,0.99245 0.14939,1.88148 -0.007,1.19416 -0.0543,1.54372 -0.30777,2.27364 -0.44745,1.28867 -0.96354,2.07015 -2.16546,3.27904 -0.89158,0.89673 -1.1484,1.0913 -1.44051,1.0913 -0.53557,0 -0.45984,-0.37722 0.21024,-1.0473 1.21217,-1.21217 1.83403,-3.20624 1.56467,-5.01729 -0.24428,-1.64244 -0.96146,-2.74684 -3.07372,-4.73328 -0.61584,-0.57916 -1.19792,-1.20026 -1.29352,-1.38023 l -0.17381,-0.32722 -0.0588,0.46122 -0.0588,0.46123 -0.82315,0.13782 c -1.35194,0.22635 -2.33801,0.55652 -3.29975,1.10486 -0.25477,0.14525 -0.56905,0.3244 -0.6984,0.3981 -0.12935,0.0737 -1.10831,0.71052 -2.17546,1.41516 -1.06715,0.70464 -2.25778,1.46273 -2.64583,1.68464 -0.38806,0.2219 -0.88099,0.50386 -1.09541,0.62657 -0.21442,0.1227 -1.32567,0.70414 -2.46944,1.29208 -1.14378,0.58794 -2.43251,1.25267 -2.86385,1.47718 l -0.78426,0.4082 0.0613,4.89992 c 0.0337,2.69495 0.008,7.40608 -0.058,10.46918 l -0.11931,5.56926 -0.51008,0.46682 c -0.28054,0.25676 -0.74163,0.63455 -1.02463,0.83954 -0.70048,0.50738 -1.28401,1.4128 -1.93596,3.00384 -0.60362,1.4731 -0.68886,2.10448 -0.31559,2.33759 0.20629,0.12883 0.25587,0.10218 0.4396,-0.23629 0.1139,-0.20983 0.26063,-0.66837 0.32606,-1.01898 0.1322,-0.70841 0.36137,-0.90246 0.48484,-0.41052 0.0861,0.34291 -0.0752,1.14193 -0.42819,2.12081 l -0.21721,0.60244 0.28765,0.2501 c 0.39833,0.34635 0.46445,0.31776 0.4782,-0.2068 0.007,-0.25129 0.14847,-0.82015 0.31528,-1.26412 0.16682,-0.44397 0.31928,-0.96188 0.33881,-1.15092 0.0195,-0.18904 0.10165,-0.36543 0.1825,-0.39198 0.25762,-0.0846 0.18812,1.50217 -0.0947,2.16195 -0.24602,0.57392 -0.23268,0.96214 0.0426,1.24074 0.0844,0.0854 0.27923,0.38011 0.43305,0.65499 0.15382,0.27487 0.35607,0.49976 0.44944,0.49976 0.20711,0 0.13047,-0.61322 -0.21832,-1.74687 -0.29211,-0.94942 -0.28903,-1.35097 0.0179,-2.337 0.13633,-0.43792 0.26696,-0.86236 0.29029,-0.94321 0.0233,-0.0808 0.0934,-0.14699 0.15577,-0.14699 0.20509,0 0.25648,0.43453 0.11313,0.95661 -0.19221,0.70001 -0.16937,1.70056 0.0707,3.09696 0.21725,1.2636 0.47678,1.77787 0.95819,1.8987 0.3476,0.0872 0.48039,-0.008 0.30502,-0.21972 -0.0697,-0.084 -0.15128,-0.75999 -0.18122,-1.50215 -0.0299,-0.74216 -0.0894,-1.53459 -0.13205,-1.76096 -0.0645,-0.34184 0.008,-0.57909 0.42905,-1.40037 0.35497,-0.69276 0.61228,-1.0457 0.85944,-1.17884 0.19402,-0.10452 0.49115,-0.28274 0.66028,-0.39604 0.25056,-0.16785 0.37023,-0.18215 0.64624,-0.0772 0.61584,0.23414 1.11217,0.71209 1.38863,1.33722 0.46124,1.04295 1.31091,1.50047 1.38374,0.74511 0.0623,-0.64564 0.2711,-0.30808 0.28774,0.46507 l 0.0157,0.72967 0.42527,0.49683 c 0.2339,0.27325 0.42527,0.56108 0.42527,0.63961 0,0.24409 0.6694,0.87321 0.92912,0.87321 0.20903,0 0.2468,-0.0711 0.2468,-0.46463 0,-1.26117 0.79311,-3.29391 2.38806,-6.12055 1.05576,-1.87108 1.62401,-2.98622 2.00741,-3.93935 0.18211,-0.45273 0.37666,-0.92898 0.43233,-1.05834 0.25151,-0.58435 0.6936,-2.09564 0.91156,-3.1162 0.45069,-2.11028 0.49305,-2.37142 0.49261,-3.03698 l -4.4e-4,-0.66719 -0.21594,0.35278 c -0.58561,0.95671 -2.003,1.98823 -3.29911,2.40096 -0.52115,0.16595 -1.60398,0.16314 -1.93046,-0.005 -0.57029,-0.29372 -0.78602,-0.59827 -0.78602,-1.10969 V 342.945 l 0.62446,-0.51067 c 0.73094,-0.59775 1.31646,-1.31837 1.80416,-2.22044 0.53796,-0.99504 0.68788,-1.67711 0.68494,-3.1162 -0.003,-1.45542 -0.23888,-2.3092 -0.94155,-3.40766 -0.62684,-0.97991 -0.51432,-0.97085 -2.41926,-0.19462 l -1.69303,0.68987 -0.0791,0.69185 c -0.0435,0.38052 -0.13624,1.11519 -0.20609,1.6326 -0.0699,0.5174 -0.17788,1.36407 -0.24005,1.88148 -0.0622,0.51741 -0.16849,1.39053 -0.23624,1.94028 -0.45296,3.67528 -0.75952,6.61536 -1.01903,9.77313 -0.10811,1.31549 0.172,2.26949 1.50851,5.13772 0.14705,0.31556 0.20804,0.61588 0.16219,0.79856 -0.10345,0.41216 -0.25666,0.26153 -0.33806,-0.33236 -0.0567,-0.41339 -0.20077,-0.642 -0.79887,-1.26733 -1.31873,-1.37878 -1.49016,-2.12445 -1.04209,-4.53264 0.13168,-0.70775 0.29304,-1.92181 0.35857,-2.69792 0.0655,-0.77611 0.16793,-1.88736 0.22755,-2.46944 0.0596,-0.58209 0.15977,-1.56104 0.22255,-2.17546 0.13846,-1.35506 0.42978,-3.83408 0.60112,-5.11528 0.0692,-0.51741 0.17294,-1.37705 0.23054,-1.91031 0.0576,-0.53326 0.13534,-1.01909 0.17274,-1.07961 0.0374,-0.0605 0.0142,-0.14327 -0.0515,-0.1839 -0.0657,-0.0406 -0.11951,-0.247 -0.11951,-0.45862 0,-0.39146 0.0369,-0.42504 0.82314,-0.74956 0.16169,-0.0667 0.47919,-0.19836 0.70556,-0.29249 0.22636,-0.0941 0.72907,-0.28989 1.11713,-0.43503 0.96331,-0.36028 1.1304,-0.42515 1.46991,-0.57069 0.6375,-0.2733 2.48502,-0.83288 3.52777,-1.06849 1.24382,-0.28105 3.01662,-0.34716 3.57869,-0.13347 0.26755,0.10172 0.31105,0.17985 0.27993,0.50269 l -0.0369,0.38226 -1.4699,0.0131 c -1.18396,0.0105 -2.2836,0.15923 -2.56287,0.34651 -0.019,0.0128 0.11872,0.36042 0.30615,0.77255 0.42796,0.94103 1.04148,2.85361 1.25883,3.92432 0.27317,1.3457 0.34873,2.27564 0.34873,4.29213 0,2.90157 -0.2241,4.36134 -1.11334,7.25216 -0.52909,1.72 -1.41461,3.6516 -2.63227,5.74182 -1.39707,2.39816 -2.01638,3.71168 -2.36688,5.01999 -0.40998,1.53028 -0.40093,1.62399 0.15685,1.62399 0.73163,0 1.81583,0.25379 2.19507,0.51383 0.43135,0.29576 0.58864,0.48342 0.8506,1.01487 0.11158,0.22637 0.5347,0.74696 0.94026,1.15688 l 0.73738,0.7453 v 0.47832 c 0,0.84998 -0.80917,1.61765 -1.70509,1.61765 -0.53206,0 -0.99708,-0.23863 -1.68077,-0.86252 -0.55975,-0.51079 -0.60495,-0.37283 -0.11398,0.34788 0.36772,0.53979 0.64202,0.6651 1.58919,0.72597 l 0.85277,0.0548 0.4525,-0.29945 c 0.7075,-0.4682 1.33654,-0.61977 1.80462,-0.43482 0.72968,0.28831 0.91743,0.55304 0.91743,1.29355 0,0.50504 -0.054,0.71573 -0.22271,0.86838 l -0.22271,0.20156 0.17764,0.35608 c 0.23063,0.46232 0.12751,1.1027 -0.24164,1.50048 -0.22481,0.24225 -0.27154,0.39517 -0.22707,0.74307 0.0308,0.24093 -0.002,0.605 -0.0733,0.80906 l -0.12934,0.37102 1.55732,-0.0649 c 1.39013,-0.0579 3.21394,-0.34722 4.26195,-0.67602 1.36768,-0.42908 3.67595,-1.19692 3.82176,-1.2713 0.097,-0.0495 1.12889,-0.39876 2.29306,-0.77615 1.16416,-0.3774 2.2225,-0.72547 2.35185,-0.77349 0.35994,-0.13363 2.9248,-0.82974 3.64537,-0.98936 0.19403,-0.043 0.57768,-0.12822 0.85256,-0.18942 2.51622,-0.56024 4.04212,-0.7394 6.37939,-0.74905 2.51229,-0.0104 2.82222,0.0412 2.82222,0.46973 v 0.29785 l 0.57467,-0.68226 c 0.31607,-0.37525 0.82083,-0.92019 1.12169,-1.21099 0.44975,-0.43471 0.5668,-0.49744 0.65825,-0.35278 0.22505,0.35598 0.10719,0.68914 -0.44373,1.25436 -2.40023,2.46254 -3.77354,5.06573 -4.98329,9.44613 -0.299,1.08266 -0.32741,1.20734 -0.85729,3.76296 -0.86642,4.17875 -0.96364,4.57554 -1.47838,6.03389 -0.45085,1.27735 -1.4901,3.35971 -2.32921,4.66704 -0.35286,0.54974 -0.68061,1.02599 -0.72833,1.05833 -0.0477,0.0323 -0.60213,0.82506 -1.23201,1.7616 -1.51485,2.25237 -2.23695,3.64931 -2.60272,5.03511 -0.32001,1.21241 -0.13222,2.68547 0.3547,2.78231 0.13485,0.0268 2.01789,0.0793 4.18455,0.1167 2.16663,0.0374 4.23038,0.11721 4.5861,0.17742 0.35572,0.0602 1.04364,0.17508 1.52871,0.25526 0.48507,0.0802 1.89544,0.15487 3.13415,0.16597 l 2.25222,0.0202 0.31077,0.31077 c 0.31306,0.31306 0.58666,0.39541 0.7007,0.2109 0.034,-0.0549 -0.0702,-0.17047 -0.23142,-0.25675 -0.30702,-0.16432 -0.4773,-0.57728 -0.36196,-0.87784 0.0749,-0.19519 0.54554,-0.24614 0.54554,-0.0591 0,0.21832 0.32482,0.11959 0.38685,-0.11759 0.0338,-0.12935 0.14583,-0.23519 0.2489,-0.23519 0.12912,0 0.18739,-0.10788 0.18739,-0.34693 0,-0.19082 0.0724,-0.38925 0.16099,-0.44097 0.0885,-0.0517 0.19572,-0.20612 0.23818,-0.3431 l 0.0772,-0.24905 -0.72689,-0.0822 c -0.73549,-0.0832 -1.62065,-0.37383 -2.84665,-0.93461 -0.37002,-0.16925 -0.70224,-0.30773 -0.73827,-0.30773 -0.0843,0 -3.51942,-1.69824 -3.98446,-1.96982 -0.19403,-0.11332 -0.53822,-0.32129 -0.76488,-0.46216 -0.22665,-0.14088 -0.51769,-0.24662 -0.64676,-0.23499 -0.17532,0.0158 -0.24409,-0.0609 -0.27198,-0.30345 -0.0281,-0.24436 0.15921,-0.60769 0.7578,-1.46991 0.43732,-0.62992 0.83776,-1.16295 0.88987,-1.18451 0.0521,-0.0216 0.0948,-0.0823 0.0948,-0.13487 0,-0.0526 0.3378,-0.59061 0.75065,-1.19553 1.15014,-1.68518 2.89472,-4.43933 2.89472,-4.56988 0,-0.0641 0.0529,-0.11654 0.11759,-0.11654 0.0647,0 0.1176,-0.0486 0.1176,-0.10788 0,-0.0593 0.22893,-0.49589 0.50873,-0.97014 1.3545,-2.29574 2.85709,-5.27765 3.78242,-7.50624 0.17455,-0.4204 0.38549,-0.9231 0.46876,-1.11713 0.0833,-0.19403 0.21586,-0.53799 0.29465,-0.76435 0.0788,-0.22637 0.18646,-0.51741 0.23927,-0.64676 0.0528,-0.12935 0.23614,-0.65852 0.40739,-1.17593 0.17124,-0.51741 0.35545,-1.04657 0.40934,-1.17592 0.0539,-0.12936 0.21364,-0.63206 0.35497,-1.11713 0.63146,-2.16715 0.89964,-2.93096 1.27992,-3.64537 0.41172,-0.77346 1.01724,-1.97957 1.21026,-2.41065 0.20117,-0.4493 0.35329,-1.53678 0.41418,-2.9609 l 0.0612,-1.4322 -0.33524,-0.61718 c -0.35407,-0.65184 -1.48702,-1.65815 -1.75224,-1.55637 -0.0818,0.0314 -0.44367,-0.13872 -0.8041,-0.37803 -0.81341,-0.54007 -2.46601,-1.01492 -4.71686,-1.35532 -4.48984,-0.67901 -17.64839,-0.6599 -18.93241,0.0275 -0.26106,0.13976 -0.40329,0.1564 -0.54706,0.064 -3.3075,0.067 -2.01805,-0.85514 0.0179,-1.11605 0.34287,-0.069 0.50377,-0.2203 0.96385,-0.90603 0.30374,-0.45273 0.5551,-0.93843 0.55856,-1.07933 0.003,-0.1409 0.0802,-0.33012 0.17061,-0.42049 0.47104,-0.47104 1.44074,-3.5536 1.76619,-5.61453 0.097,-0.61442 0.23153,-1.46719 0.29888,-1.89504 0.0674,-0.42785 0.12247,-1.78319 0.12247,-3.01186 v -2.23396 l -0.77097,-0.37955 c -0.5786,-0.28484 -0.90104,-0.54526 -1.29222,-1.04367 -0.67907,-0.8652 -1.12848,-1.99175 -1.15223,-2.8883 -0.0243,-0.91911 0.19355,-0.97775 0.38793,-0.1044 0.31112,1.3979 1.16198,2.59174 2.20884,3.09921 0.8214,0.39819 2.24028,0.39671 3.0177,-0.003 0.5346,-0.27495 1.71669,-1.42499 1.71669,-1.67014 0,-0.15914 0.34828,-0.49619 0.42915,-0.41531 0.0735,0.0735 -0.25826,1.14666 -0.50593,1.63665 -0.21814,0.43155 -0.89784,1.09904 -1.36559,1.34104 -0.48324,0.25002 -1.45139,0.5096 -1.90902,0.51185 l -0.35278,0.002 -0.008,2.38091 c -0.008,2.41506 -0.14003,3.56803 -0.64445,5.6147 -0.0558,0.22637 -0.24119,0.99366 -0.412,1.70509 -0.17081,0.71144 -0.42113,1.62333 -0.55626,2.02643 -0.13512,0.40311 -0.21405,0.76455 -0.17538,0.80322 0.0387,0.0387 0.67018,0.009 1.40336,-0.0668 1.60149,-0.16466 8.91835,-0.0919 10.50527,0.10454 2.14555,0.26552 4.02718,0.62022 5.11527,0.96426 1.85096,0.58525 2.51255,0.95056 3.82176,2.11028 0.65084,0.57652 1.78879,1.40757 1.92738,1.40757 0.24065,0 1.61286,1.50945 1.87684,2.06454 0.15204,0.31971 0.32724,0.67833 0.38932,0.79693 0.0621,0.11861 0.11818,0.80652 0.12465,1.52871 0.01,1.07422 -0.0361,1.45209 -0.25124,2.07741 -0.37072,1.07743 -0.80875,2.1323 -1.36724,3.2926 -0.26462,0.54974 -0.54908,1.18474 -0.63214,1.41111 -0.0831,0.22636 -0.1955,0.5174 -0.24986,0.64676 -0.0544,0.12935 -0.23665,0.81726 -0.40509,1.5287 -0.29092,1.22871 -0.63068,2.35213 -0.9069,2.99861 -0.0691,0.16169 -0.16687,0.39982 -0.2173,0.52917 -0.40721,1.04444 -0.8897,2.21912 -1.12443,2.73751 -0.15461,0.34147 -0.28112,0.64187 -0.28112,0.66757 0,0.16357 -2.59233,5.4712 -2.81677,5.76714 -0.049,0.0647 -0.2487,0.40863 -0.44368,0.76435 -0.75787,1.38266 -1.78162,3.0866 -2.237,3.72331 -0.14552,0.20347 -0.26459,0.40167 -0.26459,0.44046 0,0.073 -2.81981,4.31635 -2.93756,4.42049 -0.13774,0.12182 -0.47262,0.70214 -0.47262,0.81901 0,0.067 0.058,0.12173 0.12884,0.12173 0.0709,0 0.26973,0.10032 0.44193,0.22294 0.31179,0.22202 3.3429,1.77613 3.46412,1.77613 0.035,0 0.45119,0.17847 0.92481,0.3966 0.47362,0.21812 1.25801,0.54717 1.74308,0.73122 l 0.88194,0.33464 1.62496,-0.0231 c 1.83153,-0.026 2.09815,0.0597 2.39503,0.77024 0.19185,0.45917 0.0538,1.07982 -0.33541,1.50759 l -0.2258,0.24819 1.21043,0.0799 c 1.37759,0.0909 6.71609,0.27949 11.51774,0.40685 2.45629,0.0652 3.29862,0.12513 3.44327,0.24518 0.1599,0.13271 0.18605,0.37442 0.15842,1.4644 l -0.0331,1.30545 -3.99814,0.0588 -3.99815,0.0588 -0.0604,18.69722 c -0.0332,10.28347 -0.0763,18.72368 -0.0956,18.75602 -0.0194,0.0323 -0.098,-0.0735 -0.17477,-0.23519 -0.10502,-0.22126 -0.15408,-4.86089 -0.19833,-18.75602 l -0.0588,-18.46203 -0.91134,-0.0344 -0.91135,-0.0343 -0.002,19.55471 c -9.9e-4,10.75509 -0.0463,19.62494 -0.10073,19.71077 -0.0673,0.10622 -0.12268,0.0123 -0.1733,-0.29398 -0.0409,-0.24752 -0.0749,-9.11533 -0.0756,-19.70623 l -0.001,-19.2562 -16.43356,0.0298 -16.43356,0.0298 -0.0608,18.63842 c -0.0334,10.25114 -0.0739,18.66488 -0.09,18.69722 -0.22076,0.44431 -0.25738,-2.21036 -0.259,-18.77283 l -0.002,-18.47885 -0.186,-0.0714 c -0.2409,-0.0924 -1.38616,-0.0924 -1.62706,0 l -0.18601,0.0714 -0.0139,19.36079 c -0.0122,16.98536 -0.0508,20.26717 -0.23522,20.00756 -0.023,-0.0323 -0.0689,-8.92234 -0.10211,-19.75556 l -0.0603,-19.69675 -3.58658,-0.0302 -3.58657,-0.0301 -0.14699,-0.19811 c -0.21592,-0.291 -0.2,-2.62276 0.02,-2.92351 l 0.16694,-0.22826 7.67093,0.0434 7.67092,0.0434 -0.091,-0.2198 c -0.45051,-1.08776 -0.53285,-1.45793 -0.53285,-2.39527 0,-1.07806 0.17397,-1.71477 0.75504,-2.76342 0.2864,-0.51686 1.51698,-2.25188 1.70978,-2.41065 0.0393,-0.0323 0.28127,-0.32331 0.53778,-0.6466 0.25651,-0.3233 0.53718,-0.66246 0.62371,-0.75369 0.0865,-0.0912 0.37727,-0.46173 0.64609,-0.82331 0.26882,-0.36158 0.51988,-0.68388 0.55791,-0.71622 0.11184,-0.0951 0.86255,-1.42428 1.13301,-2.0061 0.3279,-0.70537 0.77736,-2.09188 1.04199,-3.21439 0.1572,-0.66681 0.24045,-0.85293 0.31883,-0.71286 0.18356,0.328 -0.32408,2.75997 -0.87637,4.19847 -0.57352,1.49379 -1.47003,2.95711 -2.51661,4.10771 -1.04199,1.14557 -2.54886,3.14712 -2.86894,3.81078 -0.48297,1.00143 -0.65069,1.91813 -0.4802,2.62476 0.1833,0.75975 0.85292,2.0335 0.99043,1.88397 0.0254,-0.0276 -0.0313,-0.34125 -0.12593,-0.69697 -0.20305,-0.76305 -0.14814,-1.80005 0.1401,-2.64583 0.50483,-1.48131 1.38729,-2.99358 4.11421,-7.05053 0.82412,-1.22608 1.5276,-2.31087 1.56329,-2.41065 0.0357,-0.0998 0.15208,-0.3137 0.25865,-0.47539 0.85305,-1.2943 1.75966,-4.15256 2.46173,-7.76112 0.39066,-2.0079 0.85017,-4.23514 0.95832,-4.6449 0.0683,-0.25871 0.16664,-0.62912 0.21858,-0.82315 0.48784,-1.82232 1.73307,-4.66546 2.60778,-5.95411 l 0.44966,-0.66245 -0.32921,-0.0658 c -0.18106,-0.0362 -0.86322,-0.10262 -1.5159,-0.14757 -1.34048,-0.0923 -1.25206,-0.13351 -1.91419,0.89154 -0.69293,1.07273 -1.24013,2.37364 -1.70647,4.05695 -0.18931,0.68332 -0.25769,1.02449 -0.53025,2.64583 -0.33553,1.99599 -0.31688,1.92906 -0.40961,1.46991 -0.0561,-0.27779 0.24897,-3.15258 0.42428,-3.99815 0.35781,-1.72578 1.08125,-3.7005 1.66936,-4.55671 l 0.22212,-0.32338 -0.68416,6.2e-4 c -0.61564,5.7e-4 -2.40139,0.26101 -3.97676,0.57999 -0.50139,0.10153 -1.44238,0.33644 -2.64583,0.66052 -1.51895,0.40903 -6.57607,2.03221 -7.11435,2.28348 -0.21069,0.0983 -2.26966,0.78164 -3.175,1.05366 -1.83746,0.55207 -4.41574,0.89883 -5.72093,0.76942 l -0.78205,-0.0775 -0.0831,0.39293 c -0.0748,0.35389 -0.72532,2.22532 -1.00515,2.89178 -0.0611,0.14552 -0.15783,0.38364 -0.21495,0.52917 -0.4112,1.04752 -0.79246,1.98937 -0.98774,2.44004 -0.40308,0.93024 -0.52555,1.21846 -0.84944,1.99908 -0.17443,0.42039 -0.44405,1.04373 -0.59917,1.38519 -0.15511,0.34147 -0.28202,0.64205 -0.28202,0.66796 0,0.0259 -0.15296,0.38152 -0.33992,0.79026 -0.67984,1.48631 -0.9536,2.1034 -0.9536,2.14955 0,0.0259 -0.15309,0.38153 -0.3402,0.79027 -0.52537,1.14766 -0.78394,1.73544 -1.12873,2.56584 -0.29798,0.71766 -0.4,0.95733 -0.81344,1.91088 -0.0911,0.2102 -0.33311,0.83197 -0.53771,1.38171 -0.20461,0.54975 -0.41575,1.10537 -0.46919,1.23472 -0.15175,0.36727 -0.32235,0.87095 -0.59743,1.76389 -0.28396,0.92171 -0.29802,0.97263 -0.81183,2.93982 -0.44369,1.6987 -0.83451,2.39526 -1.93695,3.45226 -2.23748,2.14526 -2.22214,2.1265 -2.92452,3.57555 -0.36881,0.76085 -0.67055,1.40965 -0.67055,1.44179 0,0.0321 -0.11199,0.3092 -0.24887,0.61571 -0.13688,0.3065 -0.31791,0.71603 -0.4023,0.91006 -0.21956,0.50481 -0.74721,1.90776 -0.95087,2.52824 -0.0955,0.29104 -0.21863,0.635 -0.27356,0.76435 -0.0549,0.12935 -0.29525,0.87019 -0.53406,1.6463 -0.23881,0.77611 -0.47612,1.5434 -0.52734,1.70509 -0.47254,1.4916 -0.93192,3.88744 -1.40921,7.34954 -0.0624,0.45273 -0.166,1.11419 -0.2302,1.4699 -0.0642,0.35572 -0.14842,0.83197 -0.18718,1.05834 -0.14041,0.82017 -0.18997,0.97291 -0.28212,0.86955 -0.17149,-0.19233 0.24132,-4.16099 0.69592,-6.69039 0.0581,-0.32338 0.16783,-0.93192 0.24379,-1.35231 0.12295,-0.68046 0.66756,-2.99663 0.92627,-3.93935 0.19035,-0.69363 1.02808,-3.27557 1.18276,-3.64537 0.0541,-0.12936 0.26622,-0.68498 0.47137,-1.23473 0.20514,-0.54974 0.47916,-1.23766 0.60892,-1.5287 0.12977,-0.29104 0.31731,-0.71437 0.41676,-0.94074 0.3027,-0.68904 1.09129,-2.37482 1.40923,-3.01254 0.16505,-0.33104 0.43807,-0.68559 0.60673,-0.78789 0.16865,-0.10229 0.46539,-0.3214 0.65942,-0.48689 0.19403,-0.16549 0.60684,-0.51897 0.91735,-0.78551 1.11092,-0.95359 1.65273,-2.03687 2.02092,-4.0406 0.0951,-0.5174 0.22692,-1.13917 0.29299,-1.38171 0.0661,-0.24253 0.16695,-0.61295 0.22417,-0.82315 0.10824,-0.39761 0.20528,-0.68845 0.36292,-1.08773 0.36823,-0.9327 0.5727,-1.41429 0.96602,-2.27533 0.24668,-0.54 0.4485,-0.99916 0.4485,-1.02035 0,-0.0212 0.18521,-0.43949 0.41157,-0.92956 0.22637,-0.49007 0.41158,-0.9157 0.41158,-0.94584 0,-0.0302 0.13624,-0.36066 0.30276,-0.73446 0.16651,-0.3738 0.3726,-0.83839 0.45796,-1.03242 0.0854,-0.19403 0.26113,-0.5909 0.39061,-0.88195 0.12948,-0.29104 0.36853,-0.84666 0.53123,-1.23472 0.16269,-0.38805 0.4541,-1.04951 0.64756,-1.4699 0.19347,-0.4204 0.48456,-1.08186 0.64686,-1.46991 0.1623,-0.38806 0.47582,-1.10243 0.69669,-1.5875 0.22088,-0.48507 0.47198,-1.06715 0.55799,-1.29352 0.086,-0.22637 0.25692,-0.64024 0.37978,-0.91972 0.78561,-1.7872 2.23041,-5.68315 2.14084,-5.77286 -0.24554,-0.24591 -2.98074,-0.16841 -3.25268,0.0922 -0.0478,0.0458 -0.24876,0.66333 -0.44649,1.3722 -0.48454,1.73704 -0.60192,2.11255 -1.2299,3.93469 -0.23404,0.6791 -0.47158,1.34056 -0.52785,1.46991 -0.0563,0.12935 -0.26974,0.68498 -0.47435,1.23472 -0.34824,0.93565 -0.43998,1.16179 -0.87063,2.14607 -0.092,0.21019 -0.27151,0.64675 -0.39898,0.97013 -0.22117,0.56109 -0.45018,1.07985 -1.21055,2.74224 -0.18696,0.40873 -0.33993,0.76925 -0.33993,0.80116 0,0.0319 -0.15207,0.38539 -0.33794,0.78554 -0.63313,1.36303 -0.95557,2.0862 -0.95557,2.14315 0,0.0313 -0.11199,0.30764 -0.24887,0.61415 -0.45001,1.00768 -0.55233,1.25384 -0.86713,2.08599 -0.67272,1.77829 -1.1409,3.28783 -1.58647,5.11527 -0.67465,2.76698 -1.22282,3.89121 -2.63905,5.41234 -0.70746,0.75987 -1.4102,1.99009 -1.94624,3.40711 -0.13456,0.35572 -0.28903,0.75259 -0.34327,0.88194 -0.0542,0.12935 -0.15153,0.36748 -0.21621,0.52917 -0.0647,0.16169 -0.17613,0.42627 -0.24768,0.58796 -0.21504,0.48599 -0.61726,1.5533 -0.79767,2.11667 -0.0932,0.29104 -0.21012,0.60854 -0.25981,0.70555 -0.0497,0.097 -0.34557,0.97014 -0.65749,1.94028 -0.31192,0.97014 -0.60751,1.86972 -0.65688,1.99908 -0.0494,0.12935 -0.15485,0.47331 -0.23439,0.76435 -0.0795,0.29104 -0.18718,0.66146 -0.23918,0.82315 -0.052,0.16168 -0.18359,0.61148 -0.29241,0.99953 -0.10883,0.38806 -0.23922,0.83785 -0.28976,0.99954 -0.0505,0.16169 -0.15094,0.51888 -0.22311,0.79375 -0.0722,0.27487 -0.18435,0.69821 -0.24928,0.94074 -0.17301,0.64634 -0.66163,2.80957 -0.80348,3.55718 -0.28665,1.51087 -0.36449,1.99672 -0.48255,3.01193 -0.16296,1.40132 -0.15913,3.47841 0.008,4.08877 0.55923,2.04791 1.97151,3.74896 3.98357,4.7981 1.38296,0.72111 2.49735,0.94478 4.55957,0.91514 0.8416,-0.0121 1.79234,0.0426 2.17261,0.1249 0.51956,0.11249 0.83048,0.11541 1.34253,0.0126 0.91419,-0.18359 1.37049,-0.16807 1.8553,0.0631 l 0.413,0.19694 0.23775,-0.21517 c 0.33146,-0.29996 0.30969,-0.83172 -0.0435,-1.06315 -0.24231,-0.15876 -0.42563,-0.16621 -1.32292,-0.0537 -0.5729,0.0718 -1.18153,0.17326 -1.35252,0.22546 -0.41566,0.12689 -2.69892,-0.25422 -3.98124,-0.66452 -2.68943,-0.86054 -4.17127,-2.05462 -4.62499,-3.72685 -0.36382,-1.3409 -0.53857,-3.78597 -0.32437,-4.53849 l 0.0837,-0.29399 0.13978,0.25686 c 0.0769,0.14127 0.13928,0.45877 0.13865,0.70555 -0.002,0.63632 0.22756,2.68141 0.38629,3.44732 0.21783,1.05104 1.25342,1.90518 3.43661,2.83448 0.50993,0.21707 2.10068,0.69329 2.31579,0.69329 0.12535,0 0.32307,0.0509 0.43939,0.11318 0.3158,0.16902 1.99334,0.1443 3.7824,-0.0557 0.63735,-0.0713 0.83068,-0.0506 1.08496,0.11602 0.41701,0.27324 0.66773,0.81273 0.66773,1.43679 0,0.54723 -0.36844,1.41543 -0.64585,1.52188 -0.0907,0.0348 -0.22679,0.36294 -0.30249,0.72922 -0.0757,0.36628 -0.23725,0.80643 -0.359,0.9781 -0.14506,0.20455 -0.22136,0.51321 -0.22136,0.89549 0,0.3914 -0.0723,0.67562 -0.21986,0.86379 -0.12092,0.15424 -0.25911,0.46565 -0.30707,0.69201 -0.0974,0.45948 -0.36728,0.82315 -0.61095,0.82315 -0.0884,0 -0.22096,0.13229 -0.29463,0.29398 -0.0737,0.16169 -0.17195,0.29398 -0.2184,0.29398 -0.0464,0 -0.15095,0.16055 -0.23222,0.35677 -0.24894,0.60098 -0.63921,0.81969 -1.45472,0.81522 -0.3955,-0.002 -1.01014,-0.10149 -1.36585,-0.22073 z m 1.88049,-0.83057 c 0.25429,-0.16076 -0.004,-0.38427 -0.62103,-0.53788 l -0.49511,-0.12322 v -0.46475 c 0,-0.37044 0.0418,-0.46143 0.20578,-0.44841 0.1775,0.0141 0.20579,-0.0941 0.20579,-0.78681 0,-0.44173 0.0454,-0.8312 0.10089,-0.86549 0.0555,-0.0343 0.57142,-0.003 1.14653,0.0692 1.37477,0.173 1.62747,0.17877 1.66478,0.038 0.0171,-0.0647 -0.22098,-0.13002 -0.52917,-0.14521 -0.90287,-0.0445 -1.78155,-0.28566 -2.09322,-0.57451 -0.33497,-0.31044 -0.34924,-0.38877 -0.1263,-0.69366 0.14563,-0.19916 0.20026,-0.20662 0.49977,-0.0682 0.18494,0.0855 0.76079,0.18267 1.27966,0.21604 l 0.9434,0.0607 0.37952,-0.31935 c 0.74067,-0.62323 0.29184,-1.36535 -0.7107,-1.17511 -0.58943,0.11185 -1.88741,0.11551 -4.14266,0.0117 -3.62406,-0.16685 -5.56307,-0.91618 -7.31149,-2.82551 -1.35431,-1.47895 -2.03875,-3.36979 -2.03522,-5.62252 0.002,-1.09211 0.31041,-3.90093 0.57902,-5.26845 0.38487,-1.95936 0.82433,-3.80374 1.31687,-5.52685 0.0647,-0.22637 0.14441,-0.54387 0.17712,-0.70556 0.0327,-0.16169 0.10239,-0.39981 0.15484,-0.52917 0.0525,-0.12935 0.24058,-0.76435 0.41806,-1.41111 0.17748,-0.64676 0.42163,-1.49342 0.54256,-1.88148 0.4479,-1.43734 1.2929,-4.00562 1.39283,-4.23333 0.0568,-0.12935 0.32274,-0.81727 0.59106,-1.5287 0.49825,-1.32112 0.75916,-1.95823 0.95044,-2.32086 0.0592,-0.11231 0.10771,-0.25424 0.10771,-0.3154 0,-0.0612 0.26206,-0.65853 0.58236,-1.32749 0.61551,-1.28554 1.56856,-2.7403 2.03623,-3.10817 0.74878,-0.58899 1.58159,-2.59633 2.09104,-5.04012 0.27466,-1.31749 0.3689,-1.67869 0.69885,-2.67851 0.19683,-0.59645 0.40455,-1.19029 0.46159,-1.31964 0.057,-0.12935 0.21482,-0.48596 0.35062,-0.79247 0.13579,-0.3065 0.2469,-0.58303 0.2469,-0.61449 0,-0.0315 0.26458,-0.61542 0.58796,-1.29767 0.32338,-0.68225 0.58797,-1.2609 0.58797,-1.2859 0,-0.025 0.17905,-0.43381 0.39789,-0.90848 0.21884,-0.47466 0.59608,-1.31282 0.83832,-1.86256 0.24223,-0.54975 0.53394,-1.21121 0.64825,-1.46991 0.11431,-0.2587 0.35066,-0.81433 0.52521,-1.23472 0.33421,-0.80493 0.50458,-1.20586 0.79949,-1.88148 0.0988,-0.22637 0.34706,-0.86137 0.55167,-1.41111 0.2046,-0.54975 0.42816,-1.13183 0.49679,-1.29352 0.30865,-0.72724 0.47832,-1.2211 1.15133,-3.35139 0.34884,-1.10417 0.70586,-2.35611 0.70586,-2.47518 0,-0.0292 -0.17198,-0.0554 -0.38217,-0.0582 -0.78292,-0.0106 -1.60137,-0.46755 -2.77099,-1.54717 -1.58926,-1.46697 -2.33299,-2.51426 -3.99163,-5.62082 -1.48783,-2.78666 -1.58584,-2.93982 -1.88117,-2.93982 -0.36369,0 -1.08947,-0.33998 -1.16918,-0.54768 -0.0333,-0.0868 -0.18408,-0.15787 -0.33504,-0.15787 -0.15095,0 -0.30716,-0.0529 -0.34713,-0.11759 -0.04,-0.0647 -0.20533,-0.1176 -0.36745,-0.1176 -0.42377,0 -0.70477,-0.18156 -1.03645,-0.66968 -0.1602,-0.23574 -0.54087,-0.61807 -0.84594,-0.84961 -0.31297,-0.23754 -0.60489,-0.5747 -0.66991,-0.77376 -0.0634,-0.19403 -0.29227,-0.56074 -0.50863,-0.81492 -0.33212,-0.39017 -0.39338,-0.55376 -0.39338,-1.0505 0,-0.54553 0.31715,-1.71895 0.60467,-2.2372 0.11202,-0.2019 -0.0178,-0.66287 -0.25204,-0.89507 -0.10417,-0.10325 -0.87951,-1.3402 -1.05205,-1.67839 -0.22274,-0.43658 -0.37876,-0.35434 -0.54204,0.28574 -0.16896,0.66233 -1.46981,3.30887 -1.92722,3.92089 -0.15277,0.20441 -0.94706,2.25875 -0.94706,2.44947 0,0.10037 -0.0471,0.21158 -0.1046,0.24713 -0.10983,0.0679 -0.15493,0.27552 -0.3721,1.71313 -0.15216,1.00728 -0.0722,3.3283 0.13716,3.97946 0.20596,0.64068 0.65968,1.82903 0.93934,2.46027 0.70424,1.58956 0.86683,2.46717 0.68055,3.67323 -0.56896,3.68368 -0.68342,7.58552 -0.51399,17.52129 0.12211,7.16104 -0.003,7.85611 -1.90299,10.58334 -0.33796,0.48507 -0.65854,0.93486 -0.71239,0.99953 -0.3454,0.41483 -1.30535,2.2445 -1.72748,3.2926 -0.60123,1.49279 -0.66328,1.69383 -1.05245,3.41018 -0.65017,2.86743 -0.72001,3.59667 -1.49217,15.58102 -0.0688,1.06715 -0.17485,2.42555 -0.23575,3.01865 -0.0609,0.59311 -0.11073,1.63893 -0.11073,2.32405 0,0.68512 -0.049,1.33756 -0.10887,1.44987 -0.0599,0.1123 -0.23967,0.54815 -0.39952,0.96854 -0.15984,0.42039 -0.42367,1.05539 -0.58627,1.41111 -0.74877,1.63808 -1.88386,4.47695 -2.04527,5.11528 -0.14407,0.5697 -0.15423,0.86566 -0.0528,1.53708 0.18555,1.22798 0.50207,1.88545 1.00984,2.09761 0.63696,0.26614 2.46927,0.42727 3.91688,0.34445 1.76562,-0.10103 2.66973,0.0703 4.41083,0.83598 0.82407,0.36238 2.62671,0.89843 3.79174,1.12753 1.02913,0.20239 2.08264,0.347 3.30138,0.45317 0.73762,0.0643 1.33671,0.18332 1.5875,0.31548 0.63133,0.33271 1.78675,0.49096 2.10689,0.28855 z m 0.82414,-1.06143 c 0,-0.0647 -0.0926,-0.11678 -0.20579,-0.11579 -0.17587,0.002 -0.18014,0.0184 -0.0294,0.11579 0.22192,0.14342 0.23519,0.14342 0.23519,0 z m -0.47037,-0.29398 c 0,-0.0323 -0.0265,-0.0588 -0.0588,-0.0588 -0.0323,0 -0.0588,0.0265 -0.0588,0.0588 0,0.0323 0.0265,0.0588 0.0588,0.0588 0.0323,0 0.0588,-0.0265 0.0588,-0.0588 z m 1.38176,-0.49977 c 0.0324,-0.0972 -0.0787,-0.14699 -0.32803,-0.14699 -0.32641,0 -0.35678,0.0243 -0.2264,0.18144 0.17057,0.20552 0.48096,0.18623 0.55443,-0.0344 z m 27.58342,-39.4213 15.97121,-0.002 -0.25652,-0.36025 c -0.1766,-0.24801 -0.31648,-0.33631 -0.44898,-0.28343 -0.642,0.25622 -3.01335,0.16934 -4.83737,-0.17722 -1.67541,-0.31833 -3.29338,-0.37521 -14.93427,-0.52504 -6.82331,-0.0878 -12.4457,-0.13529 -12.49421,-0.10548 -0.0485,0.0298 -0.0882,0.36505 -0.0882,0.74499 v 0.69081 l 0.32338,0.0513 c 0.17786,0.0282 0.42921,0.0325 0.55856,0.009 0.12935,-0.0231 7.42223,-0.0426 16.20639,-0.0435 z m 35.77916,-0.002 c 0.21946,0 0.23904,-1.05484 0.0198,-1.06543 -0.0808,-0.004 -1.76095,-0.0526 -3.73357,-0.1082 -9.34947,-0.26353 -12.53297,-0.38925 -12.6706,-0.50037 -0.0808,-0.0653 -0.14699,-0.20793 -0.14699,-0.317 0,-0.10907 -0.0746,-0.30029 -0.16572,-0.42494 l -0.16572,-0.22664 0.0166,0.7233 c 0.0183,0.79607 -0.21094,1.21044 -0.67355,1.21746 -0.1355,0.002 -0.34908,0.0814 -0.47462,0.17639 -0.12555,0.095 -0.3013,0.17265 -0.39058,0.17265 -0.0893,0 -0.24136,0.079 -0.33798,0.17567 -0.15583,0.15583 0.86433,0.17907 9.03363,0.20579 5.06512,0.0166 9.27978,0.0169 9.36591,7.2e-4 0.0861,-0.0162 0.23166,-0.0294 0.32338,-0.0294 z m -18.29527,-1.46991 c 0,-0.0323 -0.0265,-0.0588 -0.0588,-0.0588 -0.0323,0 -0.0588,0.0264 -0.0588,0.0588 0,0.0323 0.0265,0.0588 0.0588,0.0588 0.0323,0 0.0588,-0.0265 0.0588,-0.0588 z m 0.82315,-0.38805 c 0,-0.12367 -0.2554,-0.3763 -0.38043,-0.3763 -0.054,0 -0.0416,0.10583 0.0277,0.23519 0.12429,0.23223 0.35278,0.32363 0.35278,0.14111 z m 1.15705,-1.85174 c 0.0751,-0.16473 0.13647,-0.32348 0.13647,-0.35278 0,-0.0835 -0.85784,-0.0462 -1.0959,0.0476 -0.1807,0.0712 -0.14415,0.12315 0.23519,0.33412 0.57835,0.32166 0.56424,0.32222 0.72424,-0.0289 z m -39.84502,-27.6395 0.29399,-0.1562 -0.47248,-0.005 c -0.58533,-0.006 -1.15635,-0.3769 -2.04792,-1.33082 -0.69752,-0.74631 -0.86425,-1.03744 -0.75587,-1.31985 0.12626,-0.32905 0.39133,-0.17795 1.22858,0.70031 1.16922,1.22649 1.43195,1.2864 2.87083,0.65458 0.48102,-0.21122 0.7125,-0.24438 1.27263,-0.18231 l 0.68466,0.0759 0.57042,-0.36604 c 0.31373,-0.20132 0.6405,-0.45048 0.72615,-0.55368 l 0.15574,-0.18765 -0.58767,0.0875 c -0.32322,0.0481 -0.64058,0.12959 -0.70526,0.18101 -0.14136,0.1124 -1.04612,0.29255 -2.43183,0.48421 -1.16153,0.16066 -1.62519,0.0529 -2.03669,-0.47321 -0.2947,-0.37681 -0.94866,-1.0275 -1.45323,-1.44596 -0.29281,-0.24284 -0.3767,-0.39647 -0.3482,-0.63769 0.0207,-0.17478 0.10836,-0.34105 0.19491,-0.3695 0.0865,-0.0284 0.52002,0.32115 0.96327,0.77687 0.44325,0.45573 0.91135,0.88503 1.04023,0.954 0.28396,0.15197 1.91635,0.16027 2.92173,0.0148 0.55705,-0.0806 0.83855,-0.19556 1.17949,-0.4818 0.24631,-0.20678 0.65789,-0.49357 0.91463,-0.6373 0.34261,-0.19181 0.4668,-0.33674 0.4668,-0.54477 0,-0.25112 -0.0499,-0.28194 -0.43782,-0.2703 -0.25346,0.008 -0.79524,0.19752 -1.28662,0.45101 -0.66652,0.34385 -0.92605,0.421 -1.20848,0.35926 -0.19782,-0.0433 -0.67717,-0.1053 -1.06523,-0.1379 -0.84486,-0.071 -1.14679,-0.30424 -1.35464,-1.04662 -0.0802,-0.28646 -0.19187,-0.52083 -0.24814,-0.52083 -0.0563,0 -0.10231,-0.0519 -0.10231,-0.11542 0,-0.23173 -0.77011,-1.16375 -0.96743,-1.17082 -0.11169,-0.004 -0.28743,-0.13602 -0.39053,-0.29337 -0.2498,-0.38125 -0.053,-0.80314 0.33373,-0.7154 0.14293,0.0324 0.52293,0.11512 0.84444,0.18377 0.47135,0.10064 0.72559,0.26024 1.31274,0.82405 l 0.72818,0.69923 h 0.53169 c 1.28159,0 1.52098,-0.39342 0.71204,-1.1702 -0.31714,-0.30454 -0.74497,-0.79723 -0.95074,-1.09487 -0.60557,-0.87597 -0.91871,-1.01432 -2.83747,-1.25362 -0.53754,-0.067 -1.12029,-0.20634 -1.29502,-0.30955 -0.17472,-0.10321 -0.57863,-0.58644 -0.89758,-1.07384 -0.31894,-0.4874 -0.91521,-1.18455 -1.32504,-1.54923 -0.48374,-0.43044 -0.85632,-0.88993 -1.06207,-1.3098 -0.33487,-0.68339 -0.59711,-0.96397 -1.10142,-1.17849 -0.27067,-0.11513 -0.37582,-0.0837 -0.8581,0.2562 -0.35147,0.24774 -0.67445,0.61788 -0.89586,1.02668 l -0.34625,0.63927 0.13379,0.44656 c 0.0996,0.33238 0.0999,0.6152 10e-4,1.10613 l -0.13246,0.65956 0.29166,0.71778 c 0.16041,0.39478 0.29166,0.81165 0.29166,0.92639 0,0.11474 0.17792,0.51572 0.39539,0.89107 0.21746,0.37535 0.65989,1.18517 0.98318,1.79959 1.82141,3.46165 3.03552,5.06726 4.88257,6.45698 1.08875,0.81917 1.84745,0.96916 2.67589,0.529 z m 3.24192,-0.17235 c 0.0926,-0.0768 0.16827,-0.24549 0.16827,-0.37484 0,-0.19683 -0.0291,-0.21105 -0.17828,-0.0872 -0.12202,0.10126 -0.37792,0.12449 -0.81092,0.0736 -0.44811,-0.0527 -0.81381,-0.0158 -1.2538,0.12626 l -0.62117,0.20062 0.63833,0.14221 c 0.73807,0.16444 1.81304,0.12231 2.05757,-0.0806 z m 34.6229,-14.98393 c 0,-0.0769 -0.90912,-0.54835 -1.39489,-0.7233 -1.52445,-0.54902 -3.51186,-0.93127 -6.48381,-1.24707 -1.57647,-0.16751 -7.54586,-0.19233 -9.95035,-0.0414 l -1.66006,0.10423 -0.32919,0.6292 c -0.18105,0.34606 -0.30274,0.65565 -0.27041,0.68797 0.0323,0.0323 0.3454,0.009 0.69573,-0.0515 2.84328,-0.49227 10.28535,-0.49754 14.3365,-0.0102 1.80758,0.21747 3.01876,0.39298 3.70417,0.53677 0.74903,0.15714 1.35231,0.20855 1.35231,0.11523 z m -51.69319,-3.01445 c 0.23629,-0.49113 0.54258,-0.8793 0.9939,-1.25957 0.3588,-0.30231 0.8773,-0.76133 1.15223,-1.02003 l 0.49986,-0.47038 0.079,-1.71141 c 0.0644,-1.39391 0.0482,-1.74297 -0.0869,-1.88149 -0.0913,-0.0935 -0.32246,-0.38172 -0.51377,-0.64043 -0.19132,-0.2587 -0.37461,-0.49683 -0.40731,-0.52917 -0.0327,-0.0323 -0.32405,-0.37584 -0.64743,-0.76333 -0.32338,-0.3875 -0.66734,-0.79939 -0.76435,-0.9153 -0.22961,-0.27434 -0.2361,-0.91389 -0.0385,-3.78942 0.15597,-2.26957 0.28429,-3.54401 0.44398,-4.40972 0.14778,-0.80111 0.66673,-3.71333 0.77659,-4.35801 0.0613,-0.35961 0.11399,-1.25919 0.11712,-1.99907 0.007,-1.76022 0.23938,-3.45914 0.56368,-4.12906 0.3746,-0.77382 0.98873,-1.44972 1.2323,-1.35625 0.2839,0.10894 0.25218,0.70305 -0.0521,0.97625 -0.69488,0.62382 -1.04399,2.12453 -1.04399,4.48773 0,1.48572 -0.0284,1.69601 -0.60703,4.49693 -0.19528,0.94523 -0.30518,1.56136 -0.55584,3.1162 -0.13554,0.84079 -0.29976,1.8523 -0.36493,2.24782 -0.0652,0.39551 -0.1185,1.43656 -0.1185,2.31345 v 1.59433 l 1.08774,1.36305 1.08773,1.36304 0.0588,-8.31549 0.0588,-8.3155 1.35231,-0.69179 c 3.17879,-1.62614 5.01808,-2.59726 5.30982,-2.80352 0.17168,-0.12137 0.3406,-0.22067 0.37539,-0.22067 0.0498,0 1.50471,-0.86803 1.71351,-1.02234 0.027,-0.02 -0.008,-0.15533 -0.0769,-0.30075 -0.0694,-0.14542 -0.32328,-0.89941 -0.56426,-1.67552 -0.24098,-0.77611 -0.47974,-1.51694 -0.5306,-1.64629 -0.0508,-0.12936 -0.12691,-0.36748 -0.16901,-0.52917 -0.0421,-0.16169 -0.12575,-0.47919 -0.18587,-0.70556 -0.46343,-1.74468 -0.5191,-2.21765 -0.5191,-4.40972 0,-2.37797 0.0367,-2.63598 0.74778,-5.26227 0.0819,-0.30241 0.46462,-1.52995 0.89365,-2.86617 0.0233,-0.0727 -0.0989,-0.2049 -0.27157,-0.29382 -0.85914,-0.44238 -1.77984,-1.01811 -2.26897,-1.41882 -0.80347,-0.65824 -1.5126,-1.82887 -1.8209,-3.00591 -0.0234,-0.0894 -0.24059,-0.14699 -0.5543,-0.14699 h -0.5158 l -0.5834,-0.61736 c -0.68999,-0.73015 -0.98583,-1.16246 -1.18337,-1.72922 -0.23603,-0.67721 -0.21618,-0.81592 0.28162,-1.96825 0.18312,-0.42391 0.64562,-0.8297 1.06585,-0.93517 0.6274,-0.15747 1.70599,0.64423 2.08403,1.54902 0.11771,0.28171 0.22426,0.38504 0.34805,0.33753 0.26056,-0.1 0.34,-0.45439 0.35314,-1.57544 0.0129,-1.10323 0.1491,-1.40022 0.85367,-1.86208 0.6858,-0.44955 1.33241,-1.6579 1.33241,-2.48992 0,-0.49314 0.4163,-1.12264 0.88194,-1.33361 0.19403,-0.0879 0.73643,-0.22044 1.20533,-0.29452 2.32524,-0.36734 2.51011,-0.41214 2.79682,-0.67785 0.76154,-0.70578 0.0191,-2.60639 -1.26284,-3.23271 -1.36728,-0.66802 -2.48916,-0.88446 -5.14995,-0.99356 -1.97864,-0.0811 -3.71287,0.0518 -4.64491,0.356 -2.46864,0.80577 -4.6936,2.71302 -5.31948,4.55991 -0.64533,1.90426 -0.66256,3.53714 -0.0726,6.88077 0.0372,0.2108 0.11469,0.41236 0.17222,0.44792 0.0575,0.0356 0.1046,0.16807 0.1046,0.29448 0,0.12642 0.0496,0.32173 0.11029,0.43404 0.0606,0.1123 0.25011,0.60106 0.421,1.08613 0.17089,0.48507 0.35939,1.00101 0.41888,1.14653 0.0595,0.14552 0.16108,0.39687 0.22576,0.55856 0.0647,0.16169 0.16601,0.41305 0.2252,0.55857 0.0592,0.14552 0.19999,0.55562 0.3129,0.91134 0.11291,0.35572 0.25753,0.78081 0.32138,0.94464 l 0.1161,0.29789 0.8679,-0.0829 c 0.89916,-0.0859 1.62526,-0.40443 2.08837,-0.91616 0.12507,-0.1382 0.34665,-0.60562 0.4924,-1.03871 0.27157,-0.80698 0.45724,-1.01986 0.58931,-0.6757 0.16137,0.42054 -0.4429,1.93324 -0.99137,2.48171 -0.59693,0.59693 -1.80776,1.06387 -2.49658,0.96277 l -0.37883,-0.0556 0.0932,0.65793 c 0.19228,1.35665 0.11966,2.36801 -0.28369,3.95052 -0.0659,0.2587 -0.15035,0.61589 -0.18758,0.79375 -0.0372,0.17786 -0.1372,0.32338 -0.22216,0.32338 -0.0849,0 -0.31881,0.2045 -0.51967,0.45445 -0.35744,0.44478 -1.43727,1.21504 -3.20195,2.28398 -1.39618,0.84573 -2.19825,1.80683 -2.76862,3.31759 -0.19088,0.50559 -0.30147,1.63075 -0.39875,4.05694 -0.0788,1.96649 -0.15315,2.69807 -0.33446,3.29259 -0.7844,2.57213 -1.01244,4.27802 -0.92746,6.93797 0.0759,2.37555 0.16855,3.11885 0.601,4.82129 0.61159,2.40764 0.65331,2.70598 0.65331,4.67258 0,1.90983 0.0679,2.41395 0.50353,3.73529 0.358,1.08602 2.21118,4.57617 3.59024,6.76158 0.26528,0.42039 0.68078,1.09508 0.92334,1.4993 0.24256,0.40423 0.49616,0.73291 0.56357,0.73041 0.0674,-0.003 0.27625,-0.32401 0.46409,-0.71446 z m 1.61323,-56.89376 c -0.13732,-0.3192 -0.24967,-0.77528 -0.24967,-1.0135 0,-0.78568 0.8929,-3.27645 1.30981,-3.65375 l 0.21889,-0.1981 v 0.21601 c 0,0.11881 -0.21954,0.74878 -0.48786,1.39994 -0.58245,1.41344 -0.72995,2.59231 -0.40337,3.22384 0.18554,0.35878 0.16842,0.60592 -0.042,0.60592 -0.0529,0 -0.20852,-0.26116 -0.34583,-0.58036 z m 10.05638,-5.26987 c -0.0319,-0.11318 -0.0949,-0.391 -0.14013,-0.61736 -0.0452,-0.22637 -0.18182,-0.55255 -0.30358,-0.72486 -0.24348,-0.34455 -1.09177,-0.80384 -1.48466,-0.80384 -0.2948,0 -0.45682,-0.20679 -0.29153,-0.37208 0.24207,-0.24207 1.69718,0.37575 2.15592,0.91539 0.25355,0.29825 0.50112,1.25494 0.40397,1.56103 -0.0955,0.30094 -0.26127,0.32128 -0.33999,0.0417 z m 2.25368,52.5185 c 0.30352,-0.0735 0.60211,-0.1793 0.66356,-0.23518 0.0614,-0.0559 0.20696,-0.10161 0.32338,-0.10161 0.11641,0 0.21166,-0.04 0.21166,-0.0889 0,-0.0489 0.15192,-0.15613 0.3376,-0.23832 0.55163,-0.24417 1.70369,-1.45645 2.04046,-2.14711 l 0.31299,-0.64188 -0.0888,-1.05834 -0.0888,-1.05833 -0.0906,0.47037 c -0.42376,2.19965 -0.96922,3.29595 -2.01273,4.04534 -0.62209,0.44675 -0.8523,0.45894 -0.9548,0.0506 -0.0598,-0.23808 -0.0206,-0.3587 0.16241,-0.49977 0.13265,-0.10227 0.42391,-0.32753 0.64725,-0.50058 0.22334,-0.17306 0.5892,-0.59639 0.81302,-0.94075 0.66058,-1.01635 0.91405,-2.08464 0.91817,-3.86987 0.003,-1.50602 -0.14974,-2.07687 -1.1099,-4.13516 -0.18453,-0.39559 -0.39085,-0.67616 -0.49722,-0.67616 -0.33588,0 -1.6826,0.51369 -1.6826,0.64181 0,0.0697 0.12376,0.31101 0.27501,0.53622 0.29749,0.44295 0.78523,1.71713 1.00138,2.61602 0.16935,0.70424 0.17447,2.31637 0.009,2.95388 -0.47767,1.84471 -0.97614,2.78999 -2.06774,3.92119 l -0.84076,0.87126 0.2528,0.10198 c 0.35624,0.14373 0.82419,0.1384 1.46484,-0.0167 z m 12.05987,-14.38831 c 0.47936,-1.20896 0.54525,-1.51631 0.54394,-2.53738 -0.002,-1.49787 -0.40437,-2.62002 -1.60598,-4.47798 -0.96457,-1.49145 -1.18028,-2.21272 -1.26075,-4.21553 -0.0654,-1.62735 -0.25613,-2.91569 -0.6062,-4.09445 -0.20702,-0.69704 -0.29827,-0.92972 -0.80523,-2.05324 -0.16867,-0.37381 -0.30668,-0.78284 -0.30668,-0.90897 0,-0.12612 -0.0718,-0.42882 -0.15954,-0.67267 -0.36463,-1.01331 -0.42842,-1.32044 -0.42842,-2.06286 0,-0.97329 0.24932,-1.99532 0.72716,-2.98085 0.4418,-0.91119 1.16962,-1.59797 2.40474,-2.26913 1.79222,-0.97388 2.34645,-1.36671 2.7445,-1.94526 0.20202,-0.29362 0.41934,-0.53386 0.48294,-0.53386 0.21866,0 0.25145,0.35527 0.0679,0.73591 -0.36188,0.75054 -1.05153,1.32941 -2.48792,2.08828 -1.73577,0.91703 -2.5083,1.59509 -3.0122,2.64386 -0.39909,0.83063 -0.43892,1.59439 -0.15943,3.05741 0.23879,1.24999 0.40409,1.69491 0.78484,2.11241 0.39069,0.42841 0.50328,0.3454 0.33815,-0.2493 -0.31299,-1.12716 0.0102,-2.95512 0.68782,-3.89057 0.18986,-0.2621 0.54726,-0.62722 0.79422,-0.81137 0.24695,-0.18416 0.47792,-0.37373 0.51325,-0.42127 0.0634,-0.0853 1.5692,-0.89992 3.04564,-1.64766 1.0005,-0.5067 2.05198,-1.48363 2.30229,-2.13905 l 0.19442,-0.50909 -0.20211,-0.39083 c -0.33772,-0.65309 -0.72897,-0.92162 -1.89326,-1.29943 -0.65637,-0.213 -1.08034,-0.26208 -2.2765,-0.26357 -1.5296,-0.002 -2.22007,0.15272 -3.45098,0.7728 -0.53146,0.26772 -0.8144,0.20446 -0.7612,-0.17018 0.0408,-0.28755 0.62601,-0.62398 1.8308,-1.05256 1.06036,-0.37721 2.99984,-0.42792 4.25236,-0.11118 0.54139,0.1369 1.20178,0.3764 1.46756,0.53222 0.60962,0.35741 1.60035,1.31329 1.60035,1.54406 0,0.0961 0.0397,0.17583 0.0882,0.17725 0.0485,0.001 0.24695,0.23943 0.44098,0.52891 0.37953,0.56625 0.58664,0.69333 0.42134,0.25854 -0.8833,-2.32324 -2.05719,-3.10678 -5.30144,-3.53854 -1.56658,-0.20849 -4.13827,0.21836 -5.96782,0.99054 -0.14552,0.0614 -0.38365,0.15931 -0.52917,0.21754 -1.31032,0.52433 -1.54642,0.68306 -2.6922,1.80996 -0.44232,0.43503 -0.59377,0.92335 -0.33581,1.08278 0.0647,0.04 0.1176,0.30455 0.1176,0.58796 0,0.28341 -0.0529,0.54799 -0.1176,0.58797 -0.0647,0.04 -0.11759,0.28122 -0.11759,0.5361 0,0.46047 -0.30636,0.9338 -0.6044,0.9338 -0.26172,0 -0.4465,0.42001 -0.45019,1.02328 -0.003,0.54325 -0.0502,0.65682 -0.41897,1.01496 -0.22838,0.2218 -0.57895,0.43602 -0.77905,0.47604 -0.63877,0.12775 -1.93874,0.0782 -2.34854,-0.0895 -0.81221,-0.33244 -0.9257,-0.3432 -0.9257,-0.0878 0,0.12989 -0.0529,0.26887 -0.11759,0.30885 -0.0647,0.04 -0.1176,0.1761 -0.1176,0.30251 0,0.12642 -0.0524,0.32173 -0.11643,0.43403 -0.13155,0.23071 -0.77696,2.39753 -0.95399,3.20281 -0.6019,2.73792 -0.59636,5.04441 0.0177,7.34953 0.0689,0.25871 0.16926,0.6406 0.223,0.84866 0.26258,1.01667 1.37074,4.26467 1.45535,4.26558 0.22547,0.002 1.1382,-0.73289 1.13693,-0.91595 -0.001,-0.18206 -0.30984,-1.46101 -0.60154,-2.49319 -0.73272,-2.59275 -0.58375,-4.61246 0.57678,-7.81991 0.16381,-0.45273 0.43988,-1.14065 0.6135,-1.5287 0.17361,-0.38806 0.38998,-0.87754 0.48082,-1.08774 0.17558,-0.40628 0.39188,-0.4955 0.50249,-0.20726 0.0611,0.15916 -0.0683,0.49459 -0.85246,2.20993 -0.63521,1.38954 -1.10485,3.01031 -1.30228,4.49432 -0.14546,1.0934 0.0199,2.44616 0.52478,4.29213 0.16804,0.61443 0.33646,1.31557 0.37428,1.55811 0.0378,0.24253 0.0958,0.44097 0.12876,0.44097 0.033,0 0.38322,-0.19971 0.77827,-0.4438 0.39504,-0.24409 0.85055,-0.51163 1.01224,-0.59454 0.56614,-0.29028 0.71581,-0.46889 0.94909,-1.13261 0.49599,-1.41117 0.66063,-2.89154 0.75906,-6.82488 0.0589,-2.35373 0.10603,-2.92555 0.31982,-3.88056 0.1519,-0.67853 0.27063,-0.86464 0.44219,-0.69309 0.0793,0.0793 0.0765,0.30977 -0.009,0.69968 -0.30431,1.39439 -0.36451,2.04681 -0.46055,4.99109 -0.1018,3.12041 -0.21352,4.39155 -0.47848,5.4438 -0.0779,0.30934 -0.11329,0.59077 -0.0787,0.6254 0.0346,0.0346 0.22214,-0.0193 0.41669,-0.11996 0.27577,-0.1426 0.37871,-0.30006 0.46709,-0.71447 0.10674,-0.50047 0.69178,-1.60247 1.08252,-2.03906 0.26607,-0.2973 0.82523,-1.1779 1.20032,-1.89033 0.77661,-1.47506 1.22003,-3.63623 1.02649,-5.00291 -0.1843,-1.30133 0.11897,-1.57922 0.35548,-0.32574 0.37006,1.96121 -0.33967,5.16102 -1.4856,6.69782 -0.22791,0.30564 -0.26898,0.46401 -0.20659,0.79659 0.12815,0.68308 0.87886,1.68298 2.33797,3.11405 1.9352,1.898 2.5117,2.80206 3.00068,4.7056 0.14168,0.55157 0.10603,2.88303 -0.0557,3.64347 l -0.0875,0.41158 0.30756,-0.35199 c 0.16916,-0.19359 0.4336,-0.66984 0.58765,-1.05833 z m -6.53302,-8.42601 c 0.66327,-0.16219 0.67731,-0.17195 0.52061,-0.36199 -0.0679,-0.0824 -0.22789,-0.45963 -0.35543,-0.83827 l -0.23189,-0.68845 -0.35034,0.51206 c -0.41109,0.60083 -0.7362,1.21385 -0.7362,1.38816 0,0.16139 0.46515,0.15675 1.15325,-0.0115 z m 12.55163,-4.26944 c 0.18141,-0.1814 0.28864,-0.42308 0.28864,-0.65053 0,-0.19905 0.0829,-0.55864 0.18432,-0.7991 l 0.18432,-0.43719 -0.49937,-0.43293 c -0.42761,-0.37072 -0.47738,-0.45944 -0.34631,-0.61737 0.0842,-0.10143 0.26065,-0.18443 0.39215,-0.18443 0.13149,0 0.41605,-0.13498 0.63236,-0.29996 0.55021,-0.41967 0.54387,-0.91577 -0.0183,-1.43171 -0.30045,-0.27574 -0.41158,-0.47605 -0.41158,-0.74187 0,-0.44873 0.18695,-0.81905 0.41347,-0.81905 0.13259,0 0.15479,0.11098 0.10087,0.50433 -0.1038,0.75731 0.1496,0.90585 0.65528,0.38413 0.21368,-0.22046 0.46025,-0.37189 0.54968,-0.33757 0.33275,0.12769 0.19153,-0.28272 -0.71515,-2.07841 l -0.26659,-0.52798 -0.84353,0.039 c -0.8042,0.0372 -1.18754,-0.0757 -1.18754,-0.34972 0,-0.0568 0.36221,-0.10319 0.80492,-0.10319 0.94326,0 1.17621,-0.16976 1.27839,-0.93162 l 0.0643,-0.47949 h -0.50137 c -0.55414,0 -1.13042,0.29709 -1.48049,0.76325 -0.12188,0.16229 -0.28841,0.29508 -0.37007,0.29508 -0.28871,0 -0.14249,-0.35885 0.33505,-0.82229 0.43944,-0.42647 0.67517,-0.53397 1.65024,-0.75257 l 0.31109,-0.0697 -0.11534,-0.50061 c -0.17713,-0.76881 -0.24189,-0.89261 -1.32756,-2.53764 l -0.5683,-0.8611 -0.35164,0.65532 c -0.1934,0.36043 -0.59905,0.88022 -0.90145,1.15509 -0.60475,0.5497 -1.04304,0.91133 -1.10453,0.91133 -0.0219,0 -0.52255,0.29104 -1.11261,0.64676 -0.59005,0.35571 -1.10017,0.64676 -1.13359,0.64676 -0.18625,0 -1.73104,1.0988 -2.15997,1.53638 -0.84069,0.85762 -1.19789,1.88752 -0.964,2.7794 0.2545,0.97041 0.39965,1.38112 0.55537,1.57143 0.0828,0.10119 0.31934,0.52452 0.52563,0.94074 0.47032,0.94888 1.46572,1.94612 2.92045,2.92582 1.3011,0.87625 2.33302,1.26072 3.44501,1.28353 0.70351,0.0144 0.83362,-0.0181 1.08773,-0.27224 z m 1.18989,-2.46688 c -0.0808,-0.21059 -0.54847,-0.25345 -0.54847,-0.0503 0,0.19811 0.39407,0.45527 0.51538,0.33633 0.0571,-0.056 0.072,-0.1847 0.0331,-0.28606 z m 0.11789,-0.73306 c -0.0431,-0.0431 -0.11368,-0.0431 -0.15679,0 -0.0431,0.0431 -0.008,0.0784 0.0784,0.0784 0.0862,0 0.12151,-0.0353 0.0784,-0.0784 z m -10.42655,-1.50911 c 0,-0.0323 -0.0264,-0.0588 -0.0588,-0.0588 -0.0323,0 -0.0588,0.0265 -0.0588,0.0588 0,0.0323 0.0265,0.0588 0.0588,0.0588 0.0323,0 0.0588,-0.0265 0.0588,-0.0588 z m -7.64276,-4.64529 c 0.5778,-0.29477 0.69286,-0.50863 0.68691,-1.27682 -0.003,-0.33644 0.056,-0.68495 0.13035,-0.77448 0.10807,-0.13021 0.028,-0.23644 -0.40026,-0.5311 -0.60027,-0.41299 -0.66477,-0.62529 -0.25836,-0.85038 1.37419,-0.76108 1.60449,-0.94295 1.60449,-1.26706 0,-0.17977 0.0337,-0.49529 0.0749,-0.70114 0.0627,-0.31341 0.0353,-0.38464 -0.16852,-0.43793 -0.36243,-0.0948 -0.66258,-0.80536 -0.53221,-1.25995 0.0578,-0.20145 0.18958,-0.38255 0.29289,-0.40244 0.15555,-0.03 0.17796,0.0516 0.13032,0.47418 -0.0866,0.76815 0.16355,0.90918 0.67558,0.3809 0.3851,-0.39732 0.8206,-0.5443 0.8206,-0.27696 0,0.0912 0.0545,0.0868 0.17639,-0.0144 0.26082,-0.21645 0.21499,-0.48611 -0.1499,-0.88194 -0.6786,-0.73616 -1.17282,-1.42253 -1.24643,-1.73106 l -0.0763,-0.31994 -0.30026,0.11416 c -0.64411,0.24489 -1.93125,0.039 -1.93125,-0.30892 0,-0.0907 0.0167,-0.16489 0.0372,-0.16489 0.0205,0 0.3309,0.0543 0.68986,0.12065 1.01347,0.18735 1.51256,-0.11804 1.69658,-1.03814 l 0.0752,-0.37603 h -0.54029 c -0.53619,0 -1.01937,0.20366 -1.73043,0.72937 -0.35301,0.261 -0.54162,0.23228 -0.42751,-0.0651 0.18813,-0.49024 1.43669,-1.12031 2.23819,-1.12948 l 0.45131,-0.005 -0.0824,-0.48779 c -0.11705,-0.69282 -0.72784,-2.11907 -1.31325,-3.06658 l -0.27072,-0.43818 -0.30209,0.11486 c -0.49629,0.18869 -1.95762,0.46718 -2.46192,0.46918 -0.59639,0.002 -1.32464,0.25362 -1.65405,0.57068 -0.16699,0.16071 -0.28288,0.46004 -0.33515,0.86559 -0.15546,1.20614 -0.40488,1.6954 -1.44348,2.83149 l -0.62427,0.68286 -6.8e-4,0.55186 c -3.7e-4,0.30353 -0.0526,0.86937 -0.11598,1.25742 -0.0987,0.60416 -0.18387,0.76893 -0.5924,1.14653 -0.26239,0.24253 -0.49535,0.44097 -0.51768,0.44097 -0.0223,0 -0.0774,-0.19844 -0.12236,-0.44097 -0.091,-0.4906 -0.40087,-1.04986 -0.76377,-1.37828 l -0.23898,-0.21627 v 0.4298 c 0,0.38299 -0.0329,0.4298 -0.30171,0.4298 -0.49834,0 -0.78052,0.20599 -0.64052,0.46757 0.15086,0.28189 0.15519,1.02494 0.007,1.11683 -0.29961,0.18517 -0.69436,-1.42002 -0.48478,-1.97127 0.0643,-0.16908 0.29114,-0.39787 0.50412,-0.5084 0.21297,-0.11054 0.32467,-0.22212 0.24821,-0.24796 -0.24221,-0.0819 -0.84972,0.31086 -1.03492,0.66901 -0.0981,0.18972 -0.17838,0.58164 -0.17838,0.87094 0,0.42419 0.0831,0.63487 0.42934,1.08847 0.81656,1.06975 0.92197,1.149 1.53629,1.15508 l 0.56261,0.006 0.24062,0.70555 c 0.38677,1.13415 0.60673,1.50333 1.35265,2.27037 1.39102,1.4304 2.63,2.14475 4.69793,2.70867 0.6919,0.18867 1.38991,0.15184 1.88224,-0.0993 z m 1.64554,-2.88773 v -0.30108 l -0.43188,0.0365 c -0.50907,0.043 -0.61669,0.22137 -0.24472,0.40555 0.46924,0.23235 0.6766,0.18915 0.6766,-0.14097 z m 0.0784,-0.83565 c -0.0431,-0.0431 -0.11368,-0.0431 -0.15679,0 -0.0431,0.0431 -0.008,0.0784 0.0784,0.0784 0.0862,0 0.12151,-0.0353 0.0784,-0.0784 z m 7.35345,141.51876 c -0.15402,-0.15402 -0.18442,-0.54992 -0.066,-0.85867 0.0598,-0.15585 0.095,-0.16382 0.17224,-0.039 0.0686,0.1109 0.39107,0.15685 1.1007,0.15685 h 1.00362 l 0.0118,-1.11713 c 0.006,-0.61442 0.0516,-1.24942 0.10025,-1.41111 l 0.0885,-0.29399 0.1056,0.47037 c 0.16146,0.71921 0.11652,2.83171 -0.0649,3.0503 -0.19225,0.23165 -2.22738,0.26684 -2.45183,0.0424 z m 35.53164,-0.0362 c -0.0374,-0.0975 -0.031,-0.37465 0.0143,-0.61588 0.0692,-0.36912 0.10389,-0.40914 0.2187,-0.25262 0.10657,0.14527 0.34873,0.18355 1.10644,0.1749 l 0.97001,-0.0111 10e-4,-0.70556 c 0.002,-1.04385 0.13246,-1.98668 0.24985,-1.80154 0.14166,0.22342 0.12504,2.89114 -0.0197,3.16159 -0.10789,0.20159 -0.2554,0.22745 -1.29721,0.22745 -0.939,0 -1.18917,-0.0357 -1.24351,-0.17727 z m -62.80935,-18.40236 c 0,-0.22636 0.0242,-0.31897 0.0538,-0.20578 0.0296,0.11318 0.0296,0.29839 0,0.41157 -0.0296,0.11318 -0.0538,0.0206 -0.0538,-0.20579 z m 42.10611,-44.3324 c 0,-0.35572 0.022,-0.50124 0.049,-0.32338 0.0269,0.17786 0.0269,0.4689 0,0.64676 -0.0269,0.17786 -0.049,0.0323 -0.049,-0.32338 z m 0.0906,-2.02154 c 0.004,-0.73142 0.0537,-1.43569 0.10932,-1.56504 0.0639,-0.14865 0.10411,0.31389 0.10933,1.25718 0.005,0.87739 -0.0402,1.52232 -0.10933,1.56505 -0.0759,0.0469 -0.11466,-0.39856 -0.10932,-1.25719 z m 0.22692,-2.153 c 0,-0.0323 0.0265,-0.0588 0.0588,-0.0588 0.0323,0 0.0588,0.0265 0.0588,0.0588 0,0.0323 -0.0265,0.0588 -0.0588,0.0588 -0.0323,0 -0.0588,-0.0265 -0.0588,-0.0588 z m -2.40398,-42.88866 c -0.26528,-0.37875 -0.22495,-0.83503 0.10531,-1.19139 0.55957,-0.60379 1.09031,-0.24485 0.96953,0.65569 -0.099,0.7381 -0.71725,1.04623 -1.07484,0.5357 z"
       id="path31" /></g></svg>
