<?xml version="1.0" encoding="UTF-8" standalone="no"?>
<!-- Created with Inkscape (http://www.inkscape.org/) -->

<svg
   width="127.40592mm"
   height="80.180061mm"
   viewBox="0 0 127.40594 80.180061"
   version="1.1"
   id="svg1"
   xml:space="preserve"
   xmlns="http://www.w3.org/2000/svg"
   xmlns:svg="http://www.w3.org/2000/svg"><defs
     id="defs1" /><g
     id="layer1"
     transform="translate(13.967681,43.03504)"><path
       style="fill:#4d4d4d"
       d="m 87.129387,36.990633 c -0.144246,-0.0798 -0.726329,-0.62282 -1.293519,-1.20663 -1.402662,-1.44378 -2.670074,-2.27043 -4.382642,-2.85849 -0.411015,-0.14114 -0.654549,-0.23479 -1.26412,-0.48611 -0.177859,-0.0733 -0.442442,-0.17916 -0.587963,-0.23518 -0.318866,-0.12276 -0.123796,-0.0453 -3.674768,-1.46014 -3.060977,-1.21965 -3.470969,-1.39757 -6.702778,-2.9086 -0.48507,-0.22679 -1.252361,-0.58395 -1.705093,-0.79369 -1.773191,-0.82147 -4.851034,-2.35903 -5.409259,-2.70223 -0.323379,-0.19882 -0.680567,-0.39178 -0.79375,-0.4288 -0.113183,-0.037 -0.205787,-0.11406 -0.205787,-0.17119 0,-0.0571 -0.05531,-0.10388 -0.122903,-0.10388 -0.11225,0 -1.856814,-1.12414 -1.993764,-1.28471 -0.03234,-0.0379 -0.244004,-0.20749 -0.47037,-0.37683 -0.226366,-0.16933 -0.7482,-0.60907 -1.159632,-0.97719 -0.90341,-0.80831 -2.094121,-1.38602 -3.544072,-1.71949 -0.226365,-0.0521 -0.62324,-0.15509 -0.881944,-0.22894 -0.258704,-0.0739 -0.695266,-0.18321 -0.970139,-0.24301 -0.274873,-0.0598 -0.724664,-0.15764 -0.999537,-0.21744 -0.456499,-0.0993 -0.775397,-0.18399 -1.793287,-0.47617 -2.156508,-0.61903 -5.886468,-1.87539 -6.823237,-2.29828 -0.386479,-0.17447 -0.887897,-0.39661 -1.114263,-0.49366 -0.226365,-0.097 -0.861365,-0.38872 -1.411111,-0.64816 -0.549745,-0.25944 -1.131828,-0.53009 -1.293518,-0.60144 -0.38659,-0.1706 -1.480044,-0.8981 -2.634889,-1.75305 -0.511388,-0.37859 -1.106115,-0.76201 -1.321617,-0.85205 -0.215502,-0.09 -0.617302,-0.31527 -0.892889,-0.5005 -0.744094,-0.50014 -1.226359,-0.60532 -3.617272,-0.78891 -2.295282,-0.1762597 -2.833717,-0.2462397 -3.263194,-0.4241097 -0.145521,-0.0603 -0.383646,-0.15579 -0.529167,-0.21227 -1.28414,-0.49843 -2.293475,-1.2851 -3.018307,-2.35247 -0.421838,-0.62118 -0.6585,-1.22418 -1.117764,-2.84797 -0.197529,-0.69839 -1.057842,-2.01673 -1.741914,-2.66929 l -0.406419,-0.38771 -0.08462,1.09326 c -0.04654,0.60129 -0.130027,1.54305 -0.18553,2.0928 -0.233805,2.31577 -0.373858,3.91246 -0.469314,5.35046 -0.130722,1.9692797 -0.280145,2.7187597 -0.59783,2.9986097 -0.119646,0.1054 -0.815574,1.15748 -0.815574,1.23296 0,0.18179 -0.953738,1.45314 -1.221933,1.62887 -0.965035,0.63231 -1.563112,-0.35367 -0.94141,-1.552 0.08547,-0.16475 0.132756,-0.32221 0.10507,-0.34989 -0.02769,-0.0277 -0.380687,0.0228 -0.784446,0.11222 -0.638523,0.1414 -0.818953,0.24732 -1.385741,0.81353 -0.358398,0.35803 -0.747302,0.79538 -0.864232,0.97189 -0.489711,0.73924 -1.374901,0.89111 -1.374901,0.23589 v -0.31224 l -0.264583,0.23962 c -0.627948,0.56871 -1.043805,0.57687 -1.2879676,0.0253 -0.0825,-0.18639 -0.20349,-0.33112 -0.268864,-0.32164 -0.316432,0.0459 -0.530437,-0.17953 -0.530437,-0.55875 0,-0.21789 -0.100979,-0.5622 -0.224399,-0.76515 -0.371441,-0.61079 -0.05417,-1.22262 1.4018816,-2.70346 0.421249,-0.42843 0.947862,-0.87304 1.17025,-0.98804 0.563537,-0.29142 1.797292,-0.5312997 2.73257,-0.5312997 0.433543,0 0.92947,-0.0643 1.10206,-0.14298 l 0.3138,-0.14297 -0.07485,-1.17994 c -0.08777,-1.38359 -0.246705,-3.24924 -0.431114,-5.0605 -0.07243,-0.71144 -0.16663,-1.7149 -0.209327,-2.22993 l -0.07763,-0.93640997 -0.411574,-0.10187 c -0.226366,-0.056 -0.584044,-0.12998 -0.79484,-0.16432 -0.210796,-0.0343 -0.412357,-0.10951 -0.447912,-0.16704 -0.03556,-0.0575 -0.191325,-0.1046 -0.346155,-0.1046 -0.15483,0 -0.403061,-0.0482 -0.551625,-0.10714004 -0.148564,-0.0589 -0.719908,-0.22467 -1.269653,-0.36832 C 6.8239664,-1.7754967 4.0187064,-2.5678867 3.4011414,-2.8285367 c -0.145521,-0.0614 -0.383646,-0.15897 -0.529167,-0.21679 -0.722332,-0.28698 -2.62813198,-1.25855 -2.79282398,-1.42377 -0.03234,-0.0324 -0.200559,-0.13197 -0.373825,-0.22119 -0.173266,-0.0892 -0.696263,-0.449 -1.16221602,-0.79953 -0.465954,-0.35053 -1.117941,-0.7736 -1.448861,-0.94015 -0.883241,-0.44454 -2.172301,-1.82167 -2.694572,-2.87866 -0.637937,-1.2910903 -0.862374,-2.4147603 -0.686808,-3.4385803 0.07674,-0.44753 0.283592,-1.0831 0.459662,-1.41238 0.384417,-0.7189 1.921458,-2.27727 2.968148,-3.00932 0.41613,-0.29104 1.035855,-0.81054 1.377166,-1.15443 l 0.62056602,-0.62527 v -0.80413 c 0,-0.60857 -0.06435,-0.92475 -0.26458402,-1.3001 -0.244588,-0.45849 -1.081029,-1.17255 -1.373502,-1.17255 -0.06919,0 -0.125803,-0.0529 -0.125803,-0.1176 0,-0.0647 -0.06944,-0.11759 -0.154302,-0.11759 -0.08487,0 -0.362678,-0.0975 -0.617361,-0.21668 -0.254683,-0.11918 -0.859935,-0.28011 -1.345004,-0.35763 -1.504992,-0.24051 -2.966988,-0.61719 -3.733739,-0.96199 -1.377296,-0.61937 -3.2319434,-1.97025 -4.3425364,-3.16299 -0.335578,-0.3604 -0.508202,-0.65694 -1.02265,-1.75671 -0.182968,-0.39114 -0.162701,-2.99057 0.02897,-3.71576 0.488235,-1.84724 1.107586,-2.95331 2.310019,-4.12537 0.796889,-0.77676 1.417909,-1.12248 2.3853994,-1.32794 1.603427,-0.34051 3.194984,0.005 4.69172,1.01792 0.375294,0.25403 0.89402,0.53352 1.152723,0.62108 0.258704,0.0876 0.523287,0.19339 0.587963,0.23517 0.06468,0.0418 0.375709,0.14981 0.691184,0.24006 0.431189,0.12335 0.733368,0.32917 1.21717402,0.82905 0.447743,0.46262 0.935188,0.80729 1.601872,1.13269 0.75913798,0.37052 1.14350898,0.66 1.84954598,1.3929 0.490191,0.50885 1.019357,1.16331 1.175926,1.45435 0.156568,0.29104 0.324356,0.54681 0.372863,0.56836 0.04851,0.0216 0.08819,0.0866 0.08819,0.14461 0,0.058 0.211484,0.38429 0.469966,0.72515 0.541953,0.71468 0.668857,1.19548 0.472543,1.79032 -0.158559,0.48044 -1.006178,1.3982 -1.739605,1.88355 -0.273032,0.18069 -0.496423,0.39048 -0.496423,0.46622 0,0.43696 1.542552,1.35975 2.272974,1.35975 0.562006,0 1.490954,-0.37313 2.386455,-0.95858 1.210349,-0.79128 1.525106,-0.95966 2.160941,-1.15598 0.2910416,-0.0899 0.5449886,-0.17379 0.5643276,-0.1865 0.04976,-0.0327 -0.38926,-0.79956 -0.6444876,-1.12576 -0.281461,-0.35973 -1.129288,-1.19342 -2.643483,-2.59941 -0.678889,-0.63037 -1.309442,-1.29183 -1.401228,-1.4699 -0.09179,-0.17808 -0.19351,-0.35023 -0.226055,-0.38257 -0.03254,-0.0323 -0.132312,-0.21755 -0.221707,-0.41158 -0.537426,-1.16645 -0.659678,-2.01815 -0.479224,-3.33864 0.08106,-0.59316 0.192553,-1.10638 0.247766,-1.14051 0.05521,-0.0341 0.100388,-0.15938 0.100388,-0.27834 0,-0.27137 0.534995,-1.29545 1.149443,-2.20027 0.540923,-0.79654 2.207139,-2.54395 2.554723,-2.67921 0.885192,-0.34446 3.3496696,-0.88892 3.9981476,-0.88328 1.346325,0.0117 3.000674,0.73306 4.527315,1.97403 1.758599,1.42954 2.875259,2.83365 3.165179,3.97996 0.416309,1.64605 0.524789,2.0381 0.742865,2.68478 0.255138,0.75659 1.298633,2.91756 1.526761,3.16177 0.169564,0.18152 0.306128,0.0808 1.314568,-0.96951 0.719656,-0.74954 1.394374,-1.19272 1.815841,-1.19272 0.453077,0 1.092517,0.37117 1.822775,1.05806 0.93482,0.8793 1.370071,1.22775 2.83264,2.26776 l 1.167388,0.8301 1.199782,-0.0276 c 0.833775,-0.0191 1.320665,0.0239 1.596038,0.14115 0.603845,0.25709 1.253999,0.99021 1.699422,1.91628 0.729233,1.51614 0.497576,2.91571 -0.70245,4.24391 l -0.551794,0.61074 0.190426,0.73488 c 0.692611,2.67287 1.297809,3.54398 2.759263,3.97163 0.291041,0.0852 0.635,0.19775 0.764352,0.25018 0.129351,0.0524 0.367476,0.12087 0.529166,0.15208 0.16169,0.0312 0.63794,0.14409 1.058334,0.25083 0.420393,0.10674 1.214143,0.304 1.763888,0.43837 0.549746,0.13436 1.207914,0.34298 1.462597,0.46359 0.254683,0.12061 0.537076,0.21929 0.627542,0.21929 0.169205,0 1.935846,-1.16506 2.006003,-1.32292 0.02156,-0.0485 0.09061,-0.0882 0.153443,-0.0882 0.06283,0 0.425938,-0.21167 0.806897,-0.47037 0.380958,-0.25871 0.744061,-0.47037 0.806896,-0.47037 0.06284,0 0.131884,-0.0397 0.153443,-0.0882 0.117679,-0.26478 4.729939,-2.55248 6.389198,-3.16907 0.258703,-0.0961 0.576203,-0.21929 0.705555,-0.27368 0.129352,-0.0544 0.446852,-0.1661 0.705556,-0.24825 0.258704,-0.0822 0.520641,-0.19149 0.582083,-0.24296 0.06144,-0.0515 0.207681,-0.0936 0.324975,-0.0936 0.117295,0 0.305149,-0.0478 0.417454,-0.10613 0.112305,-0.0584 0.442316,-0.17023 0.733358,-0.24859 0.291042,-0.0784 0.635,-0.18535 0.764352,-0.23778 0.371705,-0.15067 0.888497,-0.25152 1.5875,-0.30978 1.188814,-0.0991 1.969974,0.4724 2.707246,1.98061 0.242495,0.49606 0.499135,0.97231 0.570311,1.05833 0.07118,0.086 0.457811,0.65911 0.85919,1.27353 0.401379,0.61442 0.76184,1.14359 0.801025,1.17593 0.03918,0.0323 0.200233,0.244 0.357885,0.47037 0.157652,0.22636 0.349919,0.49095 0.427259,0.58796 0.892153,1.1191 2.806257,3.48235 2.8573,3.52778 0.03634,0.0323 0.30347,0.34983 0.593623,0.70555 0.290152,0.35572 0.624222,0.7526 0.742377,0.88195 0.118155,0.12935 0.700239,0.86477 1.293519,1.6342703 1.759508,2.28212 1.929401,2.44096 3.345669,3.12806 0.69344,0.33642 1.73705,0.79641 2.319133,1.02219 0.582083,0.22578 1.164166,0.45514 1.293518,0.50968 0.129352,0.0545 0.579144,0.21194 0.999537,0.34978 0.420394,0.13784 0.870186,0.29403 0.999537,0.34709 0.129352,0.0531 0.473311,0.16145 0.764352,0.24087 0.291042,0.0794 0.635,0.18525 0.764352,0.23519 0.129352,0.0499 0.47331,0.15576 0.764352,0.23518 0.291042,0.0794 0.635,0.18526 0.764352,0.23519 0.129352,0.0499 0.47331,0.15587 0.764352,0.23542 0.291041,0.0796 0.661458,0.18721 0.823148,0.23925 0.906533,0.29179 3.247648,0.78794 4.174537,0.88471 0.388055,0.0405 1.008575,0.14923 1.378934,0.24159 1.591541,0.39688 3.137078,0.53132 6.852547,0.59607 5.072434,0.0884 6.573644,-0.11366 7.389424,-0.99463 0.20443,-0.22077 0.62036,-0.65852 0.92429,-0.9728 0.30394,-0.31427 0.68945,-0.87056 0.85669,-1.2362 0.34387,-0.75178 0.53112,-0.97604 0.8564,-1.02568 0.12424,-0.019 0.39838,-0.23091 0.60918,-0.47101 0.21081,-0.2401 0.47336,-0.43654 0.58344,-0.43654 0.11009,0 0.37947,-0.13229 0.59863,-0.29398 0.21916,-0.16169 0.49589,-0.29398 0.61495,-0.29398 0.11906,0 0.33788,-0.0796 0.48627,-0.17678 0.14838,-0.0972 0.49663,-0.19862 0.77387,-0.22532 0.27725,-0.0267 0.56144,-0.10591 0.63154,-0.17601 0.3304,-0.3304 1.13946,-0.0405 1.43893,0.51557 0.47737,0.88642 0.0121,2.01334 -2.19899,5.32546 -0.91286,1.36745999 -3.64242,5.1335 -3.85614,5.32041 -0.037,0.0323 -0.20645,0.24401 -0.37661,0.47037 -0.17015,0.22637 -0.42421,0.5422 -0.56456,0.70185 -0.284,0.32303 -0.48765,0.75157 -0.71929,1.51356 -0.19797,0.65125 -0.81786,1.27212 -1.4364,1.43868 l -0.48296,0.13004 -1.67105,-0.83373 c -0.91908,-0.45855 -1.72989,-0.83373 -1.80181,-0.83373 -0.0719,0 -0.22264,-0.0478 -0.334946,-0.10613 -0.112305,-0.0584 -0.442316,-0.17024 -0.733358,-0.24859 -0.291042,-0.0784 -0.635,-0.18201 -0.764352,-0.23035 -0.585472,-0.21881 -1.095076,-0.35567 -1.324325,-0.35567 -0.137112,0 -0.278386,-0.0471 -0.313941,-0.1046 -0.03556,-0.0575 -0.237116,-0.13397 -0.447912,-0.16986 -0.210797,-0.0359 -0.647849,-0.12355 -0.971229,-0.19478 -1.066283,-0.23489 -1.745252,-0.34352 -3.351389,-0.53619 -1.588251,-0.19053 -2.417448,-0.17644 -3.410185,0.058 -1.071339,0.25295 -2.260158,0.47186 -3.527778,0.64962 -1.167333,0.16369 -1.746411,0.38029 -2.704629,1.01164 -1.695818,1.11734 -3.013219,1.45774 -3.523197,0.91034 -0.131872,-0.14154 -0.239766,-0.31862 -0.239766,-0.3935 0,-0.0749 -0.0743,-0.2898 -0.165111,-0.4776 -0.09081,-0.1878 -0.281514,-0.60603 -0.423786,-0.92941 -0.142271,-0.32338 -0.410785,-0.91063 -0.596697,-1.305 l -0.338021,-0.71703 -0.961428,-0.0183 c -1.508191,-0.0287 -2.866664,-0.46033 -4.159526,-1.32173 -1.037688,-0.69138997 -2.437026,-1.42461997 -3.05682,-1.60172997 -0.961684,-0.27480004 -1.799621,-0.39317004 -2.261025,-0.31939004 l -0.475054,0.076 -0.06938,2.25081001 c -0.105952,3.43716 -0.325623,5.2548 -1.12472,9.3063697 -0.109125,0.55328 -0.197742,0.96616 -0.479541,2.23426 -0.06468,0.29104 -0.172799,0.78052 -0.240273,1.08773 -0.06747,0.30721 -0.15241,0.85179 -0.188747,1.21018 l -0.06607,0.65162 3.216756,2.12591 c 3.275729,2.1649 5.944727,3.88178 6.685738,4.30073 0.226366,0.12798 0.464491,0.27433 0.529167,0.32522 0.06468,0.0509 0.31603,0.204 0.558564,0.34025 0.242535,0.13624 0.63941,0.36157 0.881945,0.50072 1.495017,0.85777 2.017247,1.13432 3.498379,1.85258 2.014555,0.97695 2.25619,1.0857 3.292593,1.4819 0.452732,0.17307 0.928982,0.35739 1.058333,0.40959 0.887655,0.35828 0.85918,0.35625 8.172685,0.58033 1.778588,0.0545 3.313172,0.12799 3.410186,0.16333 0.09701,0.0353 1.049513,0.0928 2.116666,0.12767 2.348354,0.0768 2.734304,0.13813 3.061724,0.48664 0.21647,0.23043 0.244,0.36224 0.1874,0.89712 -0.1637,1.54679 -0.21277,1.73128 -0.5559,2.09033 -0.187753,0.19647 -0.341372,0.43301 -0.341372,0.52565 0,0.28878 -0.577649,0.87109 -0.943919,0.95153 -0.262269,0.0576 -0.349599,0.14334 -0.349599,0.3432 0,0.35525 -0.353034,0.65659 -0.806592,0.68849 -0.202877,0.0143 -0.368972,0.0883 -0.369101,0.16457 -1.28e-4,0.0762 -0.183407,0.33283 -0.407286,0.57021 l -0.407052,0.43161 -0.621883,-0.0689 c -0.342035,-0.0379 -0.701258,-0.0757 -0.798272,-0.084 -0.09701,-0.008 -0.573263,0.1199 -1.058333,0.28501 -1.226505,0.41747 -1.718842,0.53767 -3.704167,0.90434 -0.388055,0.0717 -0.868062,0.18005 -1.066682,0.24084 -0.498266,0.15249 -1.70012,0.11813 -2.017805,-0.0577 z m 2.73171,-0.77251 c 0.194027,-0.0569 0.670277,-0.16441 1.058333,-0.23889 1.4718,-0.28246 2.724264,-0.62313 3.261336,-0.88708 l 0.556706,-0.27359 0.580419,0.17237 c 0.458721,0.13622 0.644029,0.14338 0.883803,0.0341 0.365076,-0.16634 0.373142,-0.22367 0.0682,-0.48477 -0.129352,-0.11075 -0.235185,-0.30772 -0.235185,-0.43771 v -0.23633 h 0.93705 c 0.767729,0 0.925296,-0.0306 0.872002,-0.16952 -0.03578,-0.0932 -0.174233,-0.18583 -0.30768,-0.20578 -0.300145,-0.0449 -0.505162,-0.35153 -0.406648,-0.60826 0.08057,-0.20995 0.61076,-0.26441 0.727961,-0.0748 0.113569,0.18376 0.952471,0.13961 1.11713,-0.0588 0.127787,-0.15398 0.04024,-0.17639 -0.688917,-0.17639 h -0.835306 l -0.07695,-0.30661 c -0.111303,-0.44346 0.114425,-0.53806 1.138547,-0.47711 0.825701,0.0491 1.285777,-0.043 1.285777,-0.25764 0,-0.0748 -1.277576,-0.29161 -2.351852,-0.39913 -0.33711,-0.0337 -0.488216,-0.514 -0.196895,-0.62579 0.149268,-0.0573 1.96468,0.0966 2.420988,0.20526 0.206217,0.0491 0.624294,-0.6386 0.532944,-0.87664 -0.11224,-0.2925 -0.618383,-0.41574 -1.992685,-0.48517 -1.447896,-0.0732 -2.271397,-0.13222 -4.409722,-0.31626 -0.80845,-0.0696 -3.370522,-0.16164 -5.693495,-0.20459 -3.217869,-0.0595 -4.235241,-0.11308 -4.272531,-0.22507 -0.02692,-0.0808 -0.124627,-0.14699 -0.217129,-0.14699 -0.0925,0 -0.260071,-0.0468 -0.372376,-0.10388 -0.112305,-0.0571 -0.349712,-0.16296 -0.527571,-0.23518 -0.177859,-0.0722 -0.442442,-0.18012 -0.587963,-0.23976 -0.145521,-0.0597 -0.501783,-0.20517 -0.791693,-0.32338 -0.684156,-0.27897 -4.20664,-2.02774 -5.117335,-2.54055 -1.177669,-0.66315 -1.291308,-0.72958 -1.352315,-0.79059 -0.116315,-0.11631 -0.768654,-0.48623 -0.970139,-0.55013 -0.113182,-0.0359 -0.205787,-0.112 -0.205787,-0.16914 0,-0.0571 -0.05355,-0.10388 -0.119002,-0.10388 -0.06545,0 -0.475555,-0.23006 -0.911342,-0.51126 -0.435788,-0.2812 -1.89242,-1.22047 -3.236962,-2.08727 -1.344542,-0.8668 -2.546183,-1.66861 -2.670314,-1.78179 -0.124132,-0.11318 -0.258274,-0.20579 -0.298093,-0.20579 -0.03982,0 -0.610887,-0.36821 -1.269037,-0.81825 -1.105089,-0.75565 -2.047322,-1.54251 -3.735473,-3.11949 -0.671974,-0.62772 -2.005057,-1.58911 -2.203501,-1.58911 -0.06068,0 -0.43084,-0.43656 -0.822571,-0.97014 -1.170119,-1.59382 -2.602959,-2.9955097 -4.48926,-4.3916597 -1.119069,-0.82828 -3.830304,-2.6345 -3.954538,-2.6345 -0.03636,0 -0.206561,-0.0996 -0.378235,-0.22141 -0.171674,-0.12178 -0.510572,-0.33345 -0.753107,-0.47037 -2.827269,-1.59615 -5.688517,-3.34667 -6.089181,-3.72537997 l -0.297747,-0.28142 -0.645516,0.33995 C 39.275708,2.2715633 37.037094,2.4768433 34.768972,1.5789733 c -1.21162,-0.47964 -2.664312,-1.67445997 -3.416122,-2.80972 -0.280021,-0.42284 -0.565219,-0.76892 -0.633773,-0.76905 -0.166521,-3.4e-4 -4.39037,1.62858999 -4.914945,1.89544003 -0.112305,0.0571 -0.30762,0.10388000039 -0.434032,0.10388000039 -0.126413,0 -0.262545,0.0528999996 -0.302517,0.11758999961 -0.03997,0.0647 -0.198722,0.11759 -0.352778,0.11759 -0.154056,0 -0.309035,0.0468 -0.344398,0.10404 -0.03536,0.0572 -0.210466,0.13422 -0.389116,0.17112 -0.178651,0.0369 -0.589403,0.1274 -0.912782,0.20111 -0.32338,0.0737 -0.997305,0.16868 -1.497612,0.21105 l -0.909648,0.077 0.674463,0.95152997 c 0.795203,1.12187 0.99623,1.51537 1.556408,3.04662 0.4415,1.20685 0.910684,2.03641 1.465612,2.59134 0.631215,0.63121 1.859254,1.28157 2.94411,1.55916 0.896319,0.22935 2.185061,0.37682 3.293088,0.37682 0.612292,0 1.365373,0.0601 1.673512,0.1335 0.547106,0.13038 1.56014,0.5541297 1.677382,0.7016597 0.03234,0.0407 0.27414,0.18313 0.537337,0.31653 0.263198,0.1334 0.71299,0.43906 0.999537,0.67926 1.107322,0.92819 1.757249,1.33392 3.460811,2.16047 2.162297,1.04912 2.833707,1.35283 4.233333,1.91495 0.761839,0.30597 5.813604,1.98019 6.585185,2.18242 1.035132,0.27131 1.440968,0.36598 2.116667,0.49377 0.388055,0.0734 0.868062,0.18317 1.066682,0.24395 0.19862,0.0608 0.459446,0.11053 0.579614,0.11053 0.235554,0 0.844583,0.18126 1.411111,0.41999 0.194028,0.0818 0.590903,0.24132 0.881945,0.35457 0.645009,0.25099 1.106351,0.57393 2.301032,1.6107 0.935505,0.81186 3.230737,2.43603 3.442519,2.43603 0.06406,0 0.134118,0.0397 0.155677,0.0882 0.02156,0.0485 0.197947,0.18087 0.391975,0.29414 0.539375,0.31488 4.135013,2.10907 4.997685,2.49379 0.420394,0.18749 1.319977,0.59894 1.999074,0.91434 1.956618,0.90873 2.748185,1.2676 3.704167,1.6793 1.755439,0.75601 3.124622,1.32046 3.998148,1.64824 0.452732,0.16988 0.981898,0.37824 1.175926,0.46301 0.194028,0.0848 0.934861,0.37662 1.646296,0.64853 1.282437,0.49016 1.576293,0.60522 2.087269,0.81731 0.145521,0.0604 0.47625,0.17704 0.734953,0.25919 0.258704,0.0821 0.520642,0.19149 0.582084,0.24296 0.06144,0.0515 0.198761,0.0936 0.305154,0.0936 0.106393,0 0.28873,0.10529 0.405195,0.23398 0.116464,0.12869 0.534769,0.4718 0.929568,0.76246 0.394798,0.29065 1.10162,0.94899 1.570715,1.46297 0.469096,0.51398 0.971804,0.96024 1.11713,0.9917 0.358486,0.0776 2.061977,-0.0305 2.498488,-0.1585 z M 63.594484,15.335843 c 0.06753,-0.4198 0.200136,-1.05055 0.455339,-2.16589 0.194386,-0.84955 0.357779,-1.60753 0.481625,-2.23426 0.07029,-0.35572 0.176042,-0.88488 0.235,-1.1759297 1.128371,-5.57007 1.128148,-10.14259001 -7.96e-4,-16.28657 -0.05942,-0.32338 -0.170012,-0.93192 -0.245759,-1.35232 -0.243875,-1.3535 -0.335385,-1.81197 -0.469434,-2.3518503 -0.450529,-1.8145 -0.513264,-2.47403 -0.370045,-3.89025 0.196037,-1.93848 -0.06094,-2.52978 -1.2496,-2.87534 -0.560013,-0.1628 -0.880732,-0.1697 -2.481427,-0.0534 -1.011059,0.0735 -1.946638,0.15443 -2.079063,0.17995 -0.132426,0.0255 -0.349707,0.24651 -0.482848,0.4911 -0.767177,1.40936 -1.039727,1.88796 -1.234601,2.16796 -0.119482,0.17167 -0.217241,0.34417 -0.217241,0.38333 0,0.16414 -2.660122,4.1751603 -3.591044,5.4146903 -1.047846,1.39521 -1.049347,1.39694 -2.641363,3.03922 -1.794558,1.85123 -4.249496,3.94376 -6.150394,5.24246003 -0.478335,0.3268 -0.542056,0.41318 -0.416453,0.56452 0.105818,0.1275 0.267575,0.15822 0.564746,0.10726 0.229049,-0.0393 0.601661,-0.1013 0.828027,-0.1378 0.226366,-0.0365 0.517407,-0.10966 0.646759,-0.16256 0.129352,-0.0529 0.47331,-0.16465 0.764352,-0.24835 0.291042,-0.0837 0.582083,-0.18669 0.646759,-0.22888 0.06468,-0.0422 0.302801,-0.14975004 0.529167,-0.23902004 0.226365,-0.0893 1.073032,-0.52772999 1.881481,-0.97433999 0.808449,-0.44661 1.813866,-1.00064 2.234259,-1.23119 0.420394,-0.23054 1.028936,-0.57564 1.352315,-0.76689 0.32338,-0.19125 0.773172,-0.45211 0.999537,-0.57971 0.706063,-0.39797 2.143956,-1.52174 2.892884,-2.26089 1.18227,-1.16684 1.337493,-1.43539 1.433106,-2.47938 0.04605,-0.50285 0.136649,-0.9318 0.201325,-0.95322 0.0766,-0.0254 0.117593,1.16001 0.117593,3.40066 0,3.30122 0.06802,4.2411 0.478708,6.61462003 0.03357,0.19403 0.106676,0.61736 0.162451,0.94073997 0.137632,0.79797 0.354638,1.99236 0.4914,2.70463 0.494891,2.57745 0.817081,5.45182 0.862002,7.6902297 l 0.02926,1.45782 0.585826,0.54125 c 1.925422,1.77893 2.459226,2.23793 2.564431,2.2051 0.06468,-0.0202 0.15095,-0.24405 0.19172,-0.49749 z m -52.638016,-0.16682 c 0.18589,-0.19402 0.397728,-0.35277 0.470749,-0.35277 0.07302,0 0.288018,-0.33073 0.477768,-0.73496 0.491693,-1.04745 1.85256,-2.44005 2.384451,-2.44005 0.148494,0 0.26129,0.31352 0.18465,0.51324 -0.03387,0.0883 -0.177726,0.21355 -0.319689,0.27844 -0.633855,0.2897 -1.515806,1.2583 -1.972123,2.16587 -0.414453,0.82431 -0.440092,0.92301 -0.239763,0.92301 0.215237,0 0.954235,-0.72261 0.954235,-0.93307 0,-0.1779 0.802207,-0.91174 1.202204,-1.09975 0.211913,-0.0996 0.637301,-0.21824 0.945306,-0.26364 0.308006,-0.0454 0.588942,-0.12934 0.624302,-0.18655 0.03536,-0.0572 0.191597,-0.10403 0.347194,-0.10403 0.173877,0 0.336374,-0.10196 0.421649,-0.26458 0.255784,-0.48777 0.828361,-1.14653 0.996541,-1.14653 0.277772,0 0.18712,0.45846 -0.181567,0.91824 -0.478865,0.59718 -1.415815,2.26386 -1.415815,2.5185 0,0.47581 0.757731,0.0442 1.256157,-0.71546 0.196957,-0.3002 0.629896,-0.95412 0.962085,-1.45316 0.33936,-0.50981 0.603981,-1.04128 0.603981,-1.21305 0,-0.16814 0.05536,-0.40917 0.123034,-0.53561 0.06767,-0.12644 0.147732,-0.98285 0.17792,-1.9031397 0.05954,-1.81504 0.198061,-3.58986 0.424294,-5.43623 0.268958,-2.19506 0.146926,-4.55470001 -0.486518,-9.4074 -0.121489,-0.93071 -0.227898,-1.86 -0.467908,-4.08635 -0.06798,-0.6305903 -0.179449,-1.6624603 -0.247709,-2.2930503 -0.527297,-4.87124 -0.533253,-4.96829 -0.304894,-4.96829 0.155279,0 0.193818,0.12207 0.193818,0.61392 0,0.7745 0.246224,1.85553 0.422631,1.85553 0.115299,0 0.47781,0.13051 1.635239,0.58871 0.129352,0.0512 0.420394,0.1567 0.646759,0.23443 0.226366,0.0777 0.530637,0.18891 0.676158,0.24706 0.145521,0.0582 0.383646,0.15135 0.529166,0.20713 0.769174,0.29479 2.810154,1.39021 3.322863,1.78343 0.684428,0.52491 2.001268,1.8708303 2.412815,2.4660903 0.156503,0.22636 0.378593,0.51415 0.493534,0.63953 0.11494,0.12538 0.208983,0.29736 0.208983,0.38218 0,0.0848 0.04257,0.15421 0.09459,0.15421 0.05203,0 0.299126,0.39759 0.549111,0.88354 l 0.454518,0.88353 0.362231,-0.0618 c 0.469031,-0.08 2.415326,-0.29194 2.692732,-0.29319 0.26946,-0.001 1.139798,-0.90176 1.762489,-1.82365 0.698228,-1.03373 1.116212,-1.3647 1.445657,-1.14473 0.327594,0.21874 0.426029,0.63098 0.277415,1.16177 -0.0799,0.28538 -0.121253,0.54289 -0.0919,0.57225 0.05558,0.0556 0.6476,-0.11949 1.155,-0.34154 0.348016,-0.15231 0.74687,-0.57499 0.944141,-1.00055 0.0779,-0.16804 0.194763,-0.41137 0.2597,-0.54072 0.07671,-0.15281 -0.02273,-0.10132 -0.283901,0.14699 -0.468449,0.44538 -0.684755,0.48508 -0.684755,0.12567 0,-0.27045 3.21528,-3.5600503 4.468519,-4.5718203 0.355717,-0.28717 0.752592,-0.62027 0.881944,-0.74022 0.129352,-0.11994 0.354248,-0.29801 0.499769,-0.3957 0.145521,-0.0977 0.264583,-0.22715 0.264583,-0.28768 0,-0.20672 -1.182288,-0.58877 -3.175,-1.026 -2.864758,-0.62856 -3.518358,-0.93199 -4.295033,-1.99394 -0.352626,-0.48215 -1.052099,-2.36208 -1.281446,-3.44408 l -0.0657,-0.30993 -0.771614,0.0619 c -0.751561,0.0603 -0.916546,0.0227 -1.700101,-0.38816 -0.173701,-0.0911 -0.309205,-0.27787 -0.33119,-0.45657 -0.04349,-0.35351 0.09143,-0.37779 0.607028,-0.10926 0.71014,0.36984 0.781393,0.39478 1.128145,0.39478 0.756371,0 1.717935,-0.73238 2.194936,-1.67179 0.379011,-0.74642 0.394616,-1.99228 0.03398,-2.71322 -0.371683,-0.74303 -1.011729,-1.34679 -1.653827,-1.56006 -0.479668,-0.15932 -0.750568,-0.16883 -1.800206,-0.0632 -1.342727,0.13514 -2.217534,0.0703 -2.425007,-0.17966 -0.19867,-0.23939 -0.04315,-0.49318 0.328312,-0.53578 l 0.330325,-0.0379 -0.444091,-0.2761 c -0.244251,-0.15185 -0.508834,-0.33706 -0.587963,-0.41157 -0.07913,-0.0745 -0.329081,-0.27366 -0.555446,-0.44256 -0.226366,-0.1689 -0.676158,-0.55822 -0.999537,-0.86516 -1.21615,-1.15434 -1.98226,-1.47594 -2.656415,-1.11515 -0.269886,0.14444 -1.988493,1.81022 -1.988493,1.92738 0,0.077 0.689678,1.00441 0.836139,1.12437 0.11244,0.0921 0.4922,0.83967 0.657087,1.29352 0.598812,1.6482 -0.62071,3.52778 -2.288925,3.52778 -0.632225,0 -0.726705,-0.19486 -0.459404,-0.94746 0.497713,-1.40134 0.101641,-2.18125 -1.8611,-3.6647 -0.388056,-0.2933 -0.800304,-0.63885 -0.916108,-0.7679 l -0.210552,-0.23464 -0.847781,0.4261 -0.847782,0.42609 h -1.37741 -1.37741 l 0.565664,0.58797 c 1.124029,1.16834 1.427714,1.96219 1.13181,2.9586 -0.23194,0.78103 -0.64935,1.16879 -2.005103,1.86269 -2.185601,1.11864 -3.111162,2.31037 -3.111162,4.00585 0,0.85911 0.396373,2.49753 0.650413,2.6885 0.0922,0.0693 0.299034,0.62873 0.45962,1.24315 0.160585,0.61443 0.511013,1.72568 0.778729,2.46945 0.267716,0.74377 0.514208,1.47216 0.547761,1.61864 0.03355,0.14647 0.107602,0.29512 0.164555,0.33031 0.05695,0.0352 0.103552,0.19005 0.103552,0.3441 0,0.15406 0.05292,0.31281 0.117593,0.35278 0.06468,0.04 0.117592,0.17611 0.117592,0.30252 0,0.12641 0.04642,0.32173 0.103158,0.43403 0.101319,0.2005503 0.203271,0.5325903 0.468909,1.5271103 0.07342,0.27487 0.193388,0.70693 0.266599,0.96013 0.09008,0.31153 0.103794,0.89125 0.04242,1.79328 -0.235229,3.4575 -0.09297,6.39844003 0.545131,11.26951 0.08049,0.61442 0.149703,1.98892 0.15381,3.05444 l 0.0075,1.9373097 -0.293981,0.0882 c -0.16169,0.0485 -0.836378,0.14839 -1.499306,0.22198 -0.920133,0.10214 -1.205324,0.17461 -1.205324,0.3063 0,0.12834 0.08551,0.15372 0.33404,0.0991 0.423542,-0.093 0.719289,0.18891 0.489108,0.46626 -0.08051,0.097 -0.219133,0.17639 -0.308041,0.17639 -0.281547,0 -1.110762,0.84512 -1.728094,1.76125 -0.327842,0.48652 -0.744418,1.04333 -0.925723,1.23736 -0.346796,0.37113 -0.437517,0.76435 -0.176346,0.76435 0.08491,0 0.306481,-0.15875 0.492371,-0.35278 z m 26.757003,-28.15778 c -0.241369,-0.29083 -0.09953,-0.59361 0.278088,-0.59361 0.374921,0 0.617726,0.27557 0.503981,0.57198 -0.09145,0.23831 -0.59078,0.25212 -0.782069,0.0216 z m -14.880151,-1.95465 c -0.71638,-0.35722 -1.52587,-1.22872 -1.944845,-2.09384 -0.561543,-1.1595 -0.607764,-1.29723 -0.779419,-2.32266 -0.113087,-0.67556 0.178505,-0.55271 0.375831,0.15833 0.643239,2.31787 1.461955,3.3811 2.888468,3.75113 1.394932,0.36184 3.167867,-0.52388 3.976664,-1.98665 0.20399,-0.36893 0.245801,-0.64755 0.245801,-1.63795 0,-0.65637 -0.06353,-1.3691 -0.141188,-1.58385 -0.106987,-0.29586 -0.108194,-0.42344 -0.005,-0.52665 0.194121,-0.19412 0.452091,0.0476 0.557179,0.52201 0.164153,0.7411 0.197258,2.33797 0.05626,2.71356 -0.547925,1.45954 -1.310004,2.3739 -2.420122,2.90371 -0.910443,0.43451 -2.060111,0.4766 -2.809642,0.10286 z m 0.818628,-1.68676 c -0.117598,-0.17948 -0.172819,-0.47227 -0.149702,-0.79375 l 0.03663,-0.50937 0.369535,-0.0359 c 0.296895,-0.0288 0.41825,0.0325 0.617361,0.31214 0.310728,0.43637 0.314695,0.77403 0.01264,1.07608 -0.315686,0.31569 -0.659903,0.29659 -0.886464,-0.0492 z m 10.594521,-8.44364 c -0.100681,-0.14374 -0.183057,-0.34364 -0.183057,-0.44421 0,-0.35498 0.353887,-0.70555 0.712224,-0.70555 0.360533,0 0.411337,0.10081 0.355584,0.70555 -0.03058,0.33172 -0.322102,0.70556 -0.550198,0.70556 -0.08332,0 -0.233872,-0.11761 -0.334553,-0.26135 z m -23.934751,39.41968 c 0.04094,-0.0323 0.303534,-0.40275 0.583539,-0.82314 0.280005,-0.4204 0.743146,-1.04217 1.029202,-1.38172 0.343387,-0.4076 0.458763,-0.61736 0.339572,-0.61736 -0.181343,0 -0.818589,0.5764 -1.366359,1.23589 -0.16169,0.19466 -0.518878,0.62534 -0.79375,0.95706 -0.4973426,0.60019 -0.6329916,1.03472 -0.3527776,1.13006 0.08085,0.0275 0.223298,-0.0607 0.3165626,-0.19599 0.09326,-0.1353 0.20307,-0.27246 0.244011,-0.3048 z m -0.05976,-1.70792 c 0.323953,-0.3865 0.667911,-0.80399 0.764351,-0.92776 l 0.175346,-0.22504 -0.240282,0.12797 c -0.387607,0.20645 -1.5824026,1.58344 -1.5824026,1.82371 0,0.25678 -0.0076,0.2637 0.8829876,-0.79888 z m 49.591826,-0.49694 c 0.109134,-1.18888 -0.28114,-5.5030497 -0.741988,-8.2020797 -0.05522,-0.32338 -0.159041,-0.93192 -0.230723,-1.35232 -0.07168,-0.42039 -0.182582,-1.05539 -0.246443,-1.41111 -0.06386,-0.35570997 -0.144562,-0.92938997 -0.179334,-1.27481997 l -0.06322,-0.62807004 -0.25308,0.0774 c -0.888664,0.27193 -1.180181,0.33346 -2.096047,0.44237004 -1.013412,0.12052 -1.420001,0.10104 -5.645128,-0.27053004 l -1.490874,-0.13111 -1.15496,0.55272004 c -0.635227,0.304 -1.260792,0.5924 -1.390144,0.64089 -0.549218,0.20587 -1.088954,0.35593 -1.2802,0.35593 -0.112843,0 -0.312862,0.0576 -0.444488,0.12807997 l -0.239318,0.12808 0.404512,0.27487 c 0.222483,0.15118 0.585009,0.37743 0.805615,0.50278 0.220606,0.12535 1.009643,0.58618 1.753416,1.02406 0.743773,0.43788 1.537523,0.90102 1.763889,1.0292 0.226365,0.12818 0.552034,0.3327 0.723708,0.45447 0.171674,0.12178 0.370112,0.22142 0.440972,0.22142 0.07086,0 0.128838,0.0529 0.128838,0.11759 0,0.0647 0.05455,0.1176 0.121215,0.1176 0.205124,0 3.284715,2.09519 4.442072,3.02215 1.39883,1.12037 2.693288,2.4292597 3.581885,3.6218297 0.99976,1.34176 1.209593,1.43263 1.289828,0.55856 z m -48.47574,-0.79375 c 0,-0.0323 -0.02646,-0.0588 -0.0588,-0.0588 -0.03234,0 -0.0588,0.0265 -0.0588,0.0588 0,0.0323 0.02646,0.0588 0.0588,0.0588 0.03234,0 0.0588,-0.0265 0.0588,-0.0588 z M 104.65289,6.4844833 c 0.4057,-0.37756 0.67163,-0.89497 0.67163,-1.30672 0,-0.1719 0.0926,-0.41533 0.20579,-0.54095 0.11318,-0.12563 0.44391,-0.53652 0.73496,-0.9131 0.29104,-0.37657 0.96842,-1.24949 1.50529,-1.93982 0.84216,-1.08288997 2.17697,-2.93181 2.55165,-3.53445 0.0647,-0.10402 0.20881,-0.32787 0.3203,-0.49745 0.11149,-0.16957 0.39505,-0.67251 0.63012,-1.11763 0.60535,-1.14625 0.80496,-1.50636 0.87227,-1.57367 0.20377,-0.20377 0.63114,-0.90439 0.81899,-1.34262 l 0.22085,-0.51523 -0.26292,-0.247 c -0.27949,-0.26258 -0.77183,-0.32094 -1.12281,-0.1331 -0.11705,0.0626 -0.38354,0.37994 -0.59219,0.7051 -0.4097,0.63845 -0.59063,0.66921 -0.59063,0.1004 0,-0.28717 -0.0319,-0.3338 -0.15705,-0.22989 -0.15437,0.12811 -0.57795,0.92783 -0.71315,1.34641 -0.11989,0.37119 -0.32973,0.0734 -0.28426,-0.40339 0.0239,-0.25113 0.007,-0.45661 -0.0365,-0.45661 -0.044,0 -0.20146,0.2929 -0.34983,0.65089 -0.1864,0.44972 -0.32616,0.63836 -0.45222,0.61038 -0.19137,-0.0425 -0.19315,-0.0614 -0.0568,-0.60484 0.14649,-0.58366 -0.17384,-0.23167 -0.54791,0.60205 -0.34792,0.77545 -0.65708,0.94822 -0.61359,0.3429 0.0317,-0.44158 -0.13271,-0.29019 -0.49983,0.46017 -0.27006,0.55199 -0.7377,1.15879 -1.81678,2.35744 -0.26365,0.29287 -1.14789,0.60267 -2.3508,0.82363999 -1.89411,0.34793 -8.957858,0.15992 -11.288892,-0.30045999 -0.355718,-0.0703 -1.413626,-0.26013 -2.350908,-0.42194 -1.706746,-0.29466 -3.262993,-0.64009 -4.164764,-0.92444 -0.264598,-0.0834 -0.719213,-0.21987 -1.010254,-0.3032 -0.799114,-0.22879 -2.028109,-0.60767 -2.293056,-0.70691 -0.129352,-0.0484 -0.79081,-0.26274 -1.469907,-0.4762 -0.679097,-0.21345 -1.284993,-0.43145 -1.346435,-0.48444 -0.06144,-0.053 -0.207681,-0.0963 -0.324975,-0.0963 -0.117295,0 -0.305149,-0.0468 -0.417454,-0.10388 -0.112305,-0.0571 -0.336483,-0.15588 -0.498173,-0.21945 -0.16169,-0.0636 -0.452732,-0.18265 -0.646759,-0.26464 -0.194028,-0.082 -0.458611,-0.1931 -0.587963,-0.24694 -0.129352,-0.0538 -0.539456,-0.22905 -0.911343,-0.38937 -0.371886,-0.16032 -0.676157,-0.25112 -0.676157,-0.20177 0,0.14117 1.624455,1.67497 2.483989,2.34537 1.238863,0.96626 4.154958,2.33773 5.747492,2.70311999 2.436884,0.55912 4.11362,0.67898 5.212502,0.3726 l 0.567595,-0.15824 0.431942,0.2113 c 0.237569,0.11622 0.523829,0.25835 0.636134,0.31586004 0.112305,0.0575 0.355458,0.10456 0.540339,0.10456 0.186807,0 0.430707,0.10448 0.548988,0.23518 0.117062,0.12935 0.325248,0.23519 0.462636,0.23519 0.137388,0 0.326077,0.10583 0.419308,0.23518 0.114839,0.15933 0.304411,0.23519 0.587758,0.23519 1.126446,0 1.425185,1.27180997 0.513002,2.18398997 -0.441805,0.4418 -0.426057,0.46265 0.427944,0.56634 0.291042,0.0353 0.740833,0.11369 0.999537,0.17411 0.258704,0.0604 0.734954,0.17055 1.058333,0.24475 0.958483,0.21991 2.137146,0.51715 2.822223,0.71172 0.258703,0.0735 0.602662,0.16036 0.764352,0.19307 0.161689,0.0327 0.399814,0.1021 0.529166,0.1542 0.129352,0.0521 0.62186,0.21682 1.09445,0.36603 0.4726,0.14921 0.88583,0.31426 0.91828,0.36678 0.0325,0.0525 0.13818,0.0955 0.23492,0.0955 0.0967,0 0.47847,0.20547 0.84828,0.4566 1.00166,0.68021 1.44745,0.71249 2.05327,0.14867 z m -24.291503,-0.4435 c 0.309471,-0.10505 0.783876,-0.34318 1.054232,-0.52917 0.270357,-0.18598 0.54376,-0.33816 0.607562,-0.33816 0.0638,0 0.133643,-0.0397 0.155202,-0.0882 0.03605,-0.0811 0.892901,-0.51881 1.450308,-0.74084 0.129352,-0.0515 0.446852,-0.12432 0.705556,-0.16176 0.864418,-0.12514 2.226492,-0.36949 3.64537,-0.65399 0.258704,-0.0519 0.777223,-0.17927 1.152265,-0.2831 0.375042,-0.10383 0.905354,-0.18878 1.178471,-0.18878 0.600986,0 1.953607,-0.36117 2.366971,-0.63202 0.40654,-0.26638 0.409499,-0.74713 0.0052,-0.84859 -0.386805,-0.0971 -1.056132,0.034 -1.605971,0.3145 -0.594287,0.30318 -0.803904,0.28912 -0.803904,-0.0539 0,-0.19806 0.111158,-0.33409 0.382176,-0.46769 0.327774,-0.16158 0.344513,-0.18878 0.117592,-0.19108 -0.185295,-0.002 -0.264583,-0.0731 -0.264583,-0.23785997 0,-0.17563 -0.0784,-0.23519 -0.309587,-0.23519 -0.170272,0 -0.407036,-0.11236 -0.526142,-0.24969 -0.142515,-0.16432 -0.300459,-0.22775 -0.461959,-0.18551 -0.151423,0.0396 -0.269982,1.2e-4 -0.309586,-0.10309 -0.09103,-0.23721 -0.666372,-0.20717 -1.141312,0.0596 -0.222138,0.12477 -0.43253,0.1982 -0.467539,0.1632 -0.03501,-0.035 -0.556015,-0.11023 -1.157791,-0.16715 -2.853287,-0.26989 -4.393637,-0.68913004 -6.692472,-1.82150003 -2.594958,-1.27824 -4.490792,-3.02504 -7.454445,-6.86844 -0.84271,-1.09287 -2.597882,-3.2584003 -2.763676,-3.4098103 -0.296743,-0.27102 -3.378608,-4.1448 -3.880343,-4.87744 -0.22046,-0.32192 -0.468516,-0.66588 -0.551235,-0.76435 -0.512681,-0.61034 -1.621711,-2.31025 -1.992466,-3.05403 -0.563865,-1.13119 -1.253665,-1.83293 -1.910898,-1.94397 -0.509864,-0.0861 -1.549236,10e-4 -1.95416,0.16434 -0.129352,0.0521 -0.446852,0.15846 -0.705555,0.23637 -0.258704,0.0779 -0.576204,0.1876 -0.705556,0.24376 -0.129352,0.0562 -0.579143,0.21488 -0.999537,0.35272 -0.420393,0.13784 -0.870185,0.29414 -0.999537,0.34733 -0.129352,0.0532 -0.737893,0.29572 -1.352315,0.53897 -1.235916,0.48929 -4.315887,1.97763 -5.23287,2.52869 -0.32338,0.19433 -0.667338,0.38803 -0.764352,0.43044 -0.449248,0.19641 -4.549142,3.02598 -4.821296,3.32746 -0.03234,0.0358 -0.295756,0.24898 -0.585374,0.47367 -0.697319,0.541 -1.37153,1.14382 -2.603175,2.32753 l -1.01787,0.97825 0.276035,0.27603 c 0.16532,0.16532 0.363774,0.25309 0.494788,0.21883 0.287337,-0.0751 1.083744,0.8786103 1.083744,1.2978503 0,0.17911 0.09452,0.35004 0.235185,0.42532 0.129352,0.0692 0.235186,0.24594 0.235186,0.39269 0,0.6365 -1.36912,2.24066 -2.407864,2.82122 -0.669067,0.37395 -1.80839,0.78424 -2.177728,0.78424 -0.319076,0 -0.910118,0.17685 -1.58802,0.47516 -0.258703,0.11384 -0.78787,0.32417 -1.175925,0.4674 -0.388056,0.14322 -0.929875,0.36016 -1.204043,0.48207 -0.274168,0.12192 -0.534199,0.22167 -0.577848,0.22167 -0.188153,0 -0.981535,0.40758 -0.981535,0.50424 0,0.35132 1.383606,1.83196999 2.234259,2.39098003 0.993994,0.65319 1.781684,0.95449997 3.204966,1.22594997 1.388201,0.26477 3.925863,-0.40357 5.459277,-1.43778997 0.270356,-0.18234 0.548169,-0.33153004 0.617361,-0.33153004 0.06919,0 0.125803,-0.0415 0.125803,-0.0922 0,-0.0507 0.162756,-0.18838 0.361681,-0.30589 0.318792,-0.18831 2.660083,-2.00244999 2.813319,-2.17987999 0.03234,-0.0375 0.455671,-0.41198 0.940741,-0.8323 1.33223,-1.15441 2.931408,-2.7768 4.253357,-4.3151 0.718414,-0.836 3.507754,-4.8422803 3.507754,-5.0381303 0,-0.0388 0.166118,-0.31192 0.369152,-0.60702 0.203034,-0.2951 0.566299,-0.91318 0.807257,-1.3735 0.240957,-0.46033 0.511401,-0.96992 0.600986,-1.13243 0.30191,-0.54765 0.867149,-1.28405 1.044827,-1.36119 0.341387,-0.14823 4.89988,-0.20668 4.988086,-0.064 0.04525,0.0732 0.159938,0.13312 0.254858,0.13312 0.09492,0 0.350347,0.16176 0.567615,0.35947 0.545771,0.49664 0.706837,1.14246 0.606469,2.43174 -0.103095,1.3243 -0.100628,1.4778 0.03735,2.32407 0.06327,0.38805 0.170061,1.04951 0.237312,1.46991 0.06725,0.42039 0.172292,1.0553903 0.233425,1.4111103 0.06113,0.35572 0.148995,0.87224 0.19525,1.14784 l 0.0841,0.50107 1.8735,1.82101 c 2.166175,2.10548 2.40348,2.28185 4.535366,3.37071 1.978468,1.0105 3.140298,1.80073999 4.211213,2.86433003 1.121996,1.11432997 1.569023,1.84292997 2.811577,4.58253997 0.176004,0.38805 0.380522,0.83785 0.454486,0.99954 0.07396,0.16168 0.187481,0.33285 0.25226,0.38037 0.19392,0.14224 0.721397,0.10185 1.318994,-0.10101 z m -4.064984,-4.24812 c -0.971288,-1.34255997 -2.474761,-2.46908001 -5.132526,-3.8457 -2.355432,-1.22003 -2.331865,-1.2023 -4.683876,-3.52297 -0.75949,-0.74937 -1.321437,-1.22071 -1.350699,-1.13293 -0.02756,0.0827 0.0068,0.34265 0.07644,0.57771 0.0696,0.23505 0.159213,0.69195 0.19913,1.01533 0.03992,0.32338 0.120427,0.90546 0.17891,1.29352 0.05848,0.38805 0.141414,1.16857 0.184291,1.73449 l 0.07796,1.02893 1.189014,10e-4 c 1.593644,0.002 2.483241,0.27646999 3.844038,1.18729003 2.086148,1.39631997 3.49423,1.96396997 4.908306,1.97869997 l 0.742961,0.008 z M 22.480544,0.13401333 c 0.32338,-0.0632 0.79963,-0.17651 1.058333,-0.2519 0.258704,-0.0754 0.616539,-0.16528004 0.79519,-0.19975004 0.17865,-0.0345 0.353752,-0.10949 0.389115,-0.16671 0.03536,-0.0572 0.167726,-0.10404 0.294138,-0.10404 0.126413,0 0.321727,-0.0494 0.434032,-0.10989 0.112306,-0.0604 1.6594,-0.67653999 3.437988,-1.36911999 1.778588,-0.69257 3.445463,-1.35123 3.704167,-1.46368 0.258704,-0.11246 0.655579,-0.26899 0.881944,-0.34785 0.589103,-0.20522 0.81481,-0.29503 1.411111,-0.56149 0.572294,-0.25573 1.105769,-0.41303 2.116667,-0.62411 0.355718,-0.0743 0.738645,-0.18232 0.850951,-0.2401 0.112305,-0.0578 0.271055,-0.10531 0.352778,-0.10564 0.08172,-3.2e-4 0.307336,-0.13071 0.501364,-0.28975 0.270705,-0.22189 0.304902,-0.29015 0.14699,-0.2934 -0.113182,-0.002 -0.205787,-0.0836 -0.205787,-0.18061 0,-0.097 -0.05292,-0.17639 -0.117592,-0.17639 -0.06468,0 -0.117593,-0.16058 -0.117593,-0.35683 v -0.35684 l -0.354536,0.36269 c -0.194995,0.19948 -0.406662,0.33047 -0.47037,0.29109 -0.139295,-0.0861 -0.154724,-0.49244 -0.02079,-0.54767 0.231456,-0.0955 1.551256,-2.24011 1.551256,-2.52076 0,-0.30085 -0.203706,-0.0737 -0.550672,0.61413 -0.478421,0.9484 -1.044196,1.57283 -1.428167,1.57624 -0.490896,0.004 -1.647256,0.52895 -1.91429,0.86843 -0.436555,0.55499 -0.657823,-0.0242 -0.236063,-0.61789 0.285381,-0.40173 0.601414,-1.16033 0.601414,-1.44362 0,-0.42224 -0.297813,-0.20898 -0.94074,0.67365 -0.838605,1.15126 -1.566952,1.90651 -1.905449,1.97585 -0.148508,0.0304 -0.799181,0.11281 -1.44594,0.18311 -1.05398,0.11455 -1.890654,0.20718 -3.762963,0.41664 -1.251783,0.14003 -2.682983,0.31791 -5.232871,0.65038 -0.485069,0.0633 -1.268673,0.15993 -1.741342,0.21486 -0.472668,0.0549 -0.914946,0.15542 -0.98284,0.22331 -0.07146,0.0715 -0.09653,0.36323 -0.05953,0.69283 0.03515,0.31316 0.120519,1.24956 0.189699,2.0809 0.06918,0.83132999 0.158284,1.56411003 0.198011,1.62839003 0.08163,0.13208 1.646353,0.0564 2.572387,-0.12446 z m -7.914806,-2.75178003 -0.04215,-2.08819 -0.607634,-0.2583 c -0.638528,-0.27143 -5.2174536,-2.55178 -5.7229106,-2.85006 -0.477145,-0.28157 -1.32556,-0.65277 -1.491995,-0.65277 -0.08487,0 -0.154301,-0.0529 -0.154301,-0.11759 0,-0.0647 -0.06115,-0.11759 -0.135891,-0.11759 -0.07474,0 -0.310977,-0.13355 -0.524971,-0.29677 -0.397958,-0.30354 -0.670726,-0.78158 -0.803586,-1.4083303 -0.04113,-0.19402 -0.129875,-0.56444 -0.197211,-0.82315 -0.332489,-1.27742 -0.04624,-1.6366 0.353119,-0.44308 0.521006,1.5571 0.764963,1.8754503 1.896503,2.4748003 0.820952,0.43484 1.31012,0.71406 2.247999,1.28317 1.0517716,0.63822 2.3637776,1.25387 3.4470076,1.6175 0.507726,0.17044 1.160692,0.4491 1.451035,0.61926 l 0.527897,0.30936 -0.06911,-0.40226 c -0.193421,-1.12585 -0.395278,-2.03243 -0.659049,-2.9599 -0.06898,-0.24254 -0.172817,-0.61295 -0.230758,-0.82315 -0.15368,-0.5575203 -0.493721,-1.6388603 -0.600901,-1.9108803 -0.181141,-0.45973 -0.93479,-2.95457 -1.172251,-3.88056 -0.132685,-0.5174 -0.353305,-1.20532 -0.490267,-1.5287 -0.611898,-1.44475 -0.688641,-1.79562 -0.688641,-3.14842 0,-0.68763 0.06035,-1.39825 0.134118,-1.57915 0.371448,-0.91094 0.501453,-1.13341 0.91862,-1.57194 l 0.452135,-0.47529 -0.46026,-0.53179 c -0.253144,-0.29249 -0.578511,-0.7389 -0.723039,-0.99202 -0.189308,-0.33155 -0.344972,-0.46396 -0.55676,-0.47359 -0.9321226,-0.0424 -1.3387626,0.11269 -2.6082366,0.99463 -1.27013,0.88239 -1.69955,1.05387 -2.624633,1.04809 -1.049202,-0.007 -1.557376,-0.22732 -2.422288,-1.05231 l -0.680237,-0.64883 -0.389015,0.12806 c -1.88820598,0.62158 -3.989647,0.79185 -3.356934,0.272 0.08013,-0.0658 0.46319602,-0.14259 0.85125202,-0.17056 1.83340598,-0.13215 3.62337498,-0.94248 4.88625998,-2.21202 0.649505,-0.65294 0.776456,-1.03057 0.52476,-1.56099 -0.218696,-0.46086 -0.857943,-1.25504 -1.010209,-1.25504 -0.06016,0 -0.201081,0.21167 -0.31316,0.47037 -0.112079,0.25871 -0.244213,0.47037 -0.293632,0.47037 -0.132599,0 -0.109299,-0.44447 0.02774,-0.52916 0.06468,-0.04 0.117593,-0.12247 0.117593,-0.18333 0,-0.0609 -0.05292,-0.11065 -0.117593,-0.11065 -0.06468,0 -0.117592,0.052 -0.117592,0.11562 0,0.21442 -1.098158,1.29549 -1.315959,1.29549 h -0.215844 l 0.06938,-1.18576 c 0.06196,-1.05894 0.0464,-1.20317 -0.145441,-1.34857 -0.265149,-0.20097 -0.62639298,-0.21878 -0.62639298,-0.0309 0,0.22515 -0.492148,0.68374 -0.733784,0.68374 -0.538871,0 -0.903391,-0.53132 -0.732949,-1.06834 0.106992,-0.3371 0.290807,-0.27131 0.290807,0.10408 0,0.35136 0.185087,0.61148 0.435093,0.61148 0.10877,0 0.15287,-0.2075 0.15287,-0.71927 v -0.71927 l 0.235186,0.0615 c 0.179454,0.0469 0.235185,0.004 0.235185,-0.18281 0,-0.4756 -0.329523,-0.67441 -1.117808,-0.67441 -0.94128402,0 -1.43335602,-0.17749 -1.64919102,-0.59487 -0.204002,-0.3945 -0.226519,-1.20173 -0.04308,-1.54448 0.146276,-0.27332 0.02502,-0.40265 -0.482511,-0.51463 -0.16169,-0.0357 -0.385867,-0.11458 -0.498173,-0.17535 -0.112305,-0.0608 -0.363659,-0.11049 -0.558564,-0.11049 -0.275979,0 -0.354374,0.052 -0.354374,0.23519 0,0.24142 -0.107751,0.27502 -0.770146,0.24012 -0.414497,-0.0218 -0.490532,0.0944 -0.875394,1.33772 -0.286189,0.92458 -0.636528,1.47067 -1.590434,2.4791 -0.777421,0.82186 -1.350137,1.61354 -1.350137,1.86633 0,0.0977 -0.05292,0.21037 -0.117593,0.25034 -0.06467,0.04 -0.117083,0.26799 -0.116462,0.50671 8.81e-4,0.33829 0.136134,0.61561 0.613135,1.25718 0.691991,0.93073 0.895828,1.13555 1.561198,1.56873 0.397093,0.25852 0.607766,0.30728 1.352315,0.31297 0.485069,0.004 0.974548,0.0505 1.087731,0.10403 0.285534,0.13501 0.262027,0.54982 -0.03557,0.62764 -0.386565,0.10109 -0.242533,0.51761 0.234256,0.67743 0.222462,0.0746 0.425309,0.19809 0.450772,0.27448 0.0484,0.1452 0.813121,0.19072 1.13421,0.0675 0.102303,-0.0393 0.186006,-0.19801 0.186006,-0.35278 0,-0.29979 0.07806,-0.34008 0.338882,-0.17488 0.212317,0.13447 0.08634,0.8498 -0.194403,1.10387 -0.112035,0.10139 -0.437711,0.20126 -0.723724,0.22193 l -0.520024,0.0376 0.343848,0.17279 c 1.738175,0.87349 2.63690202,1.97572 2.63690202,3.23399 0,1.24001 -0.626303,2.12722 -2.54997602,3.61224 -1.943307,1.50018 -2.529681,2.20862 -2.852804,3.44672 -0.503664,1.92986 0.93487,4.7516603 2.971363,5.8285703 0.399479,0.21125 1.017367,0.6023 1.373084,0.869 1.08155402,0.81091 1.60306002,1.12581 2.998611,1.81063 1.867167,0.91625 2.870248,1.26495 6.114815,2.1257 0.711435,0.18874 1.716852,0.45732 2.2342586,0.59685 0.517408,0.13953 1.337616,0.35887 1.822685,0.48742 0.48507,0.12855 1.040695,0.27999999 1.234723,0.33655999 0.194027,0.0566 0.555407,0.15411 0.803066,0.21678 0.247658,0.0627 0.482255,0.14591 0.521327,0.18498 0.175466,0.17547004 0.207624,-0.24465 0.168208,-2.19744999 z M -3.7457736,-29.638887 c -0.04302,-0.0696 -0.08636,-0.52347 -0.09632,-1.00859 l -0.0181,-0.88203 0.608619,-0.58083 c 0.33474,-0.31945 0.665469,-0.58082 0.734954,-0.58082 0.245937,0 0.120445,0.25946 -0.351473,0.72668 -0.604771,0.59876 -0.735087,0.94458 -0.641391,1.70207 0.07127,0.57615 -0.05676,0.914 -0.236286,0.62352 z m 0.723244,-0.20656 c -0.0322,-0.0521 0.08425,-0.25069 0.25879,-0.44129 0.414107,-0.45223 0.608636,-0.90615 0.608636,-1.42022 0,-0.28036 0.04789,-0.39991 0.146991,-0.36694 0.232746,0.0774 0.298379,0.69683 0.121329,1.14502 -0.245621,0.62177 -0.985098,1.32718 -1.135746,1.08343 z M 56.807977,-1.0019867 c 0.423138,-0.0981 0.907944,-0.23112 1.077348,-0.29553 l 0.308006,-0.1171 -0.07072,-0.55702 c -0.0389,-0.30636 -0.126765,-1.43015 -0.195263,-2.4973 -0.0685,-1.06715 -0.144923,-2.00331 -0.169833,-2.08034 -0.02491,-0.077 -0.431794,0.24335 -0.904186,0.71197 -0.472393,0.46862 -1.070562,1.0076 -1.329266,1.19773 -0.258704,0.19013 -0.496829,0.37642 -0.529167,0.41398 -0.08557,0.0994 -1.506108,1.05018 -1.569029,1.05018 -0.02928,0 -0.40164,0.21166 -0.827475,0.47037 -0.425835,0.2587 -0.795792,0.47037 -0.822127,0.47037 -0.154033,0 -1.601048,0.92771 -1.522079,0.97584 0.05269,0.0321 0.704345,0.12199 1.448118,0.19973 0.743773,0.0777 1.374363,0.16253999 1.401312,0.18843999 0.135708,0.13045 3.015886,0.0283 3.704361,-0.13131999 z m -35.297572,-4.16777 c 0.501238,-0.0673 1.294988,-0.17148 1.763889,-0.23155 0.4689,-0.0601 1.302338,-0.1678 1.852083,-0.23939 0.549746,-0.0716 1.475787,-0.1817 2.057871,-0.2447 0.582083,-0.063 1.226502,-0.14565 1.432042,-0.18368 l 0.373708,-0.0692 -0.21566,-0.38397 c -0.385301,-0.686 -0.529306,-0.92441 -0.672195,-1.11289 -0.07724,-0.10188 -0.377075,-0.5041 -0.666299,-0.89382 -0.683629,-0.92116 -1.859348,-2.0849603 -2.609038,-2.5825703 -0.569702,-0.37815 -2.05498,-1.15763 -2.610845,-1.37018 -0.730729,-0.27942 -1.473773,-0.58599 -1.703497,-0.70285 -0.112306,-0.0571 -0.285003,-0.10388 -0.383772,-0.10388 -0.09877,0 -0.271466,-0.0467 -0.383771,-0.10387 -0.112306,-0.0571 -0.362942,-0.16914 -0.55697,-0.2489 -0.194027,-0.0798 -0.450535,-0.19544 -0.570015,-0.25706 -0.322642,-0.16637 -0.363892,-0.045 -0.217015,0.63857 0.07304,0.33991 0.163541,0.98844 0.201122,1.44117 0.06384,0.76904 0.114907,1.26271 0.404478,3.9099603 0.08708,0.79611 0.307922,2.65238 0.351479,2.95437 0.0069,0.0478 0.727612,-0.0244 2.152405,-0.21561 z m 18.997072,-1.99714 c 0.458233,-0.61979 0.07927,-0.39139 -0.520753,0.31386 l -0.572849,0.67331 0.413924,-0.31386 c 0.227658,-0.17262 0.533513,-0.47561 0.679678,-0.67331 z m 70.343893,0.4049 c 0,-0.0323 -0.0265,-0.0588 -0.0588,-0.0588 -0.0323,0 -0.0588,0.0265 -0.0588,0.0588 0,0.0323 0.0265,0.0588 0.0588,0.0588 0.0323,0 0.0588,-0.0265 0.0588,-0.0588 z m -70.528933,-1.50638 c 0.111654,-0.19858 0.1778,-0.38627 0.146991,-0.41708 -0.03081,-0.0308 -0.07313,-0.034 -0.09405,-0.007 -0.740234,0.95366 -1.13742,1.5332 -1.135593,1.65696 0.0027,0.18402 0.790206,-0.71274 1.08265,-1.23287 z m -0.382461,-0.93466 c 0.0055,-0.36967 -0.38454,5.5e-4 -0.693565,0.65834 -0.156781,0.33373 -0.381677,0.74724 -0.499768,0.91891 -0.118092,0.17168 -0.214712,0.35278 -0.214712,0.40245 0,0.0497 0.31612,-0.32892 0.702489,-0.84131 0.38637,-0.51238 0.70387,-1.02466 0.705556,-1.13839 z M -5.3985956,-24.136297 c -0.04639,-0.14552 -0.07802,-0.43657 -0.0703,-0.64676 0.01135,-0.30904 -0.03119,-0.38218 -0.222252,-0.38218 -1.034202,0 -3.40192,-2.5076 -3.40192,-3.6029 v -0.30315 l -0.323379,0.0769 c -0.508458,0.12084 -0.8818234,0.45252 -1.1780584,1.04654 -0.308307,0.61823 -0.498886,0.70486 -0.495054,0.22502 0.007,-0.8739 0.80485,-1.82795 1.6478204,-1.97037 0.29363,-0.0496 0.506731,-0.15754 0.544157,-0.27561 0.147469,-0.46521 0.575094,-1.22698 0.854058,-1.52141 1.339738,-1.41402 2.077085,-2.53214 2.295042,-3.48022 0.06835,-0.29732 0.0061,-0.40828 -0.505657,-0.90156 -0.511649,-0.49317 -0.665431,-0.57275 -1.24732,-0.64545 l -0.66372,-0.0829 0.03582,-0.30903 c 0.02911,-0.25107 0.105147,-0.31576 0.405426,-0.34494 0.522134,-0.0507 1.402869,0.39879 1.835071,0.93661 0.248574,0.30932 0.404838,0.41738 0.48607,0.33615 0.06585,-0.0658 0.351042,-0.11972 0.633768,-0.11972 0.562992,0 0.545409,-0.0643 -0.149511,-0.54655 -0.797794,-0.55367 -1.793971,-0.80121 -3.233796,-0.80356 -1.186019,-0.002 -1.414212,0.0309 -1.8556644,0.2666 -1.538138,0.8214 -2.716017,2.41258 -3.419709,4.61964 -0.17296,0.54247 -0.172835,2.38121 2e-4,2.92311 0.149041,0.46676 0.590484,1.44567 0.693141,1.53706 0.03633,0.0323 0.194639,0.244 0.351806,0.47037 1.061506,1.52887 3.8662044,3.18691 6.1606444,3.64195 0.839002,0.1664 0.917743,0.15266 0.823314,-0.14357 z m 18.8161086,-0.15539 c 0.223451,-0.22345 0.239933,-0.92564 0.0378,-1.61035 -0.16554,-0.56075 -1.191757,-1.67191 -1.829247,-1.98065 -0.212075,-0.10272 -0.926211,-0.68948 -1.586968,-1.30392 -1.2256946,-1.13979 -1.8980226,-2.09088 -1.8246716,-2.58122 0.03069,-0.20514 0.120081,-0.12974 0.497274,0.41945 0.424174,0.61759 1.4029986,1.59703 1.5960336,1.59703 0.117964,0 0.152674,-1.55109 0.03659,-1.63515 -0.263225,-0.19061 -0.7712666,-1.5101 -0.9551036,-2.48059 -0.06738,-0.35572 -0.178879,-0.92861 -0.247771,-1.27309 -0.06889,-0.34448 -0.125585,-0.79428 -0.125983,-0.99954 l -7.25e-4,-0.3732 -0.183806,0.35251 c -0.101094,0.19389 -0.257997,0.4345 -0.348673,0.53469 -0.207842,0.22967 -0.388042,1.82018 -0.315821,2.78757 0.03288,0.44045 0.0085,0.73495 -0.06076,0.73495 -0.214325,0 -0.533442,-1.27547 -0.450827,-1.8019 0.09588,-0.61094 0.321199,-1.25551 0.438891,-1.25551 0.04875,0 0.125258,-0.19518 0.170012,-0.43374 0.04475,-0.23856 0.212624,-0.7545 0.373045,-1.14653 0.828457,-2.02456 1.036399,-2.88825 0.695371,-2.88825 -0.205564,0 -0.739611,-0.5795 -0.839862,-0.91134 -0.04396,-0.14552 -0.130448,-0.26458 -0.192191,-0.26458 -0.207785,0 -1.406485,1.31279 -1.971597,2.15925 -0.603521,0.90399 -0.924923,1.5353 -1.114878,2.18985 -0.138219,0.47629 -0.155496,2.01075 -0.02849,2.53006 0.10626,0.43448 0.54382,1.35632 0.743552,1.5665 0.08122,0.0855 0.147665,0.19133 0.147665,0.23524 0,0.13623 0.839066,0.98314 1.822686,1.83974 1.350432,1.17603 2.4106476,2.29027 2.4106476,2.53348 0,0.0639 0.0446,0.11625 0.09911,0.11625 0.05451,0 0.226419,0.25135 0.382025,0.55856 0.155607,0.30721 0.375593,0.66115 0.488858,0.78653 0.113266,0.12538 0.205938,0.30242 0.205938,0.39342 0,0.38877 1.208655,1.78927 1.544169,1.78927 0.111606,0 0.286075,-0.0832 0.387709,-0.18479 z m -7.3064896,-10.47787 c -0.04072,-0.10612 -0.01226,-0.49206 0.06325,-0.85764 0.07551,-0.36558 0.13729,-0.80391 0.13729,-0.97406 0,-0.17015 0.05292,-0.34206 0.117592,-0.38203 0.06468,-0.04 0.117593,-0.15044 0.117593,-0.24548 0,-0.095 0.285868,-0.59021 0.635262,-1.10038 0.349395,-0.51018 0.673005,-1.10398 0.719134,-1.31957 0.139783,-0.65328 0.527085,-0.95484 0.527085,-0.41039 0,0.50945 -0.466995,1.63886 -0.932678,2.25566 -0.610151,0.80814 -0.817114,1.33291 -0.906966,2.29968 -0.07375,0.79347 -0.313419,1.16195 -0.47756,0.73421 z m -10.905354,9.86571 c -0.09814,-0.0981 -0.300516,0.10919 -0.29685,0.30412 0.0033,0.17458 0.02466,0.17119 0.175174,-0.0278 0.09429,-0.12463 0.149043,-0.24899 0.121676,-0.27636 z m 19.6901506,-0.0288 c 0.559398,-0.28214 0.788134,-0.56274 0.885228,-1.08594 0.163663,-0.88191 -0.02265,-1.45898 -0.687957,-2.13084 -1.05437,-1.06476 -1.668678,-1.48946 -2.298392,-1.58901 -0.316137,-0.05 -0.845839,-0.23258 -1.177115,-0.4058 l -0.60232,-0.31495 v 0.70231 0.7023 l 0.734954,0.49164 c 1.527008,1.02147 2.204861,2.03193 2.204861,3.28673 v 0.71476 l 0.264583,-0.0818 c 0.145521,-0.045 0.449792,-0.17522 0.676158,-0.28939 z m 8.749906,-0.61672 c 0.620982,-0.35485 0.794717,-0.8543 0.603275,-1.73426 -0.22569,-1.03739 -0.613171,-1.84907 -1.458987,-3.0562 -0.95292,-1.35999 -2.24975,-4.31203 -2.24975,-5.12122 0,-0.15051 -0.05292,-0.30637 -0.117592,-0.34634 -0.06468,-0.04 -0.117593,-0.25227 -0.117593,-0.47178 0,-0.85722 -0.823574,-2.09457 -2.338598,-3.51354 -0.283753,-0.26576 -0.574794,-0.53926 -0.64676,-0.60779 -0.371664,-0.35389 -1.982979,-1.33821 -2.60029,-1.58846 -0.599673,-0.2431 -0.89085,-0.28466 -1.940278,-0.27693 -1.194644,0.009 -1.580912,0.0805 -3.1749996,0.58968 -1.073654,0.34292 -1.152668,0.49213 -0.57401,1.084 0.487417,0.49854 1.0912086,0.51324 1.7875446,0.0435 0.855648,-0.5772 1.216166,-0.66851 2.608224,-0.6606 1.083431,0.006 1.378277,0.0491 1.815375,0.26458 0.28702,0.14148 0.591291,0.25724 0.676157,0.25724 0.08487,0 0.154302,0.04 0.154302,0.0889 0,0.0489 0.171979,0.16466 0.382176,0.25727 0.487932,0.21498 1.953364,1.70311 2.272521,2.30772 0.134227,0.25428 0.300032,0.56816 0.368456,0.69751 0.2816,0.53235 0.43245,0.97123 0.732222,2.13031 0.272702,1.05441 0.134683,3.44302 -0.242033,4.18869 -0.25152,0.49787 -0.185605,0.59267 0.991633,1.42622 1.701914,1.20504 2.125598,1.9037 2.059821,3.39668 l -0.04015,0.91134 0.294853,-0.002 c 0.162169,-0.001 0.501686,-0.12012 0.754482,-0.26458 z m -20.6183976,-4.55478 c 0.04675,-0.0323 0.103677,-0.19109 0.126512,-0.35277 0.03152,-0.22323 -0.0112,-0.29399 -0.177523,-0.29399 -0.164854,0 -0.273513,0.17454 -0.43924,0.70556 -0.295075,0.94546 -0.280418,1.02105 0.0908,0.46827 0.172953,-0.25755 0.352708,-0.49473 0.399455,-0.52707 z m 14.8719116,-0.13726 c 0.756621,-0.36142 1.225379,-0.92052 1.547918,-1.84624 0.174368,-0.50046 0.200665,-2.13282 0.04274,-2.65306 -0.06029,-0.19862 -0.177119,-0.59925 -0.259613,-0.89029 -0.22887,-0.80747 -1.000236,-2.24974 -1.527977,-2.85697 -0.490289,-0.56413 -1.963443,-1.61155 -2.266589,-1.61155 -0.09528,0 -0.202333,-0.0471 -0.237889,-0.1046 -0.08131,-0.13155 -0.712992,-0.24819 -1.767362,-0.32634 -0.772045,-0.0572 -1.599418,0.0897 -1.880158,0.3338 -0.06144,0.0534 -0.182815,0.0971 -0.269716,0.0971 -0.0869,0 -0.300673,0.13229 -0.475048,0.29398 -0.174376,0.16169 -0.399608,0.29399 -0.500516,0.29399 -0.290359,0 -0.4656926,0.25027 -0.4656926,0.66474 0,0.21039 -0.05951,0.53053 -0.132234,0.71144 -0.07273,0.1809 -0.178562,0.44797 -0.235185,0.59349 -0.05662,0.14552 -0.163844,0.39507 -0.238269,0.55456 -0.09368,0.20074 -0.09797,0.33644 -0.01394,0.44097 0.06676,0.0831 0.1516,0.33621 0.188534,0.56257 0.399207,2.44677 0.427499,2.55765 0.9151296,3.58658 0.53456,1.12794 1.359679,1.79051 2.573367,2.06641 0.226365,0.0515 0.649699,0.15531 0.94074,0.23079 1.653232,0.42873 2.963674,0.38311 4.061754,-0.14141 z m -1.12221,-0.74436 c 0.128066,-0.1543 0.0572,-0.16676 -0.573564,-0.10084 l -0.719683,0.0752 v -0.25349 c 0,-0.24456 0.04022,-0.3558 0.334418,-0.9249 0.278786,-0.53929 0.0026,-1.08382 -0.340219,-0.67076 -0.180669,0.21769 -0.630559,0.21807 -0.810972,6.9e-4 -0.163627,-0.19716 -0.120331,-0.96004 0.05242,-0.92365 0.06468,0.0136 0.144425,0.19883 0.17722,0.41157 l 0.05963,0.3868 0.23109,-0.26458 c 0.127099,-0.14552 0.351621,-0.26458 0.498937,-0.26458 0.181662,0 0.267848,-0.0696 0.267848,-0.21631 0,-0.11897 0.131249,-0.27611 0.291664,-0.3492 0.35185,-0.16032 0.283837,-0.46196 -0.127433,-0.56518 -0.154109,-0.0387 -0.250983,-0.1176 -0.215275,-0.17537 0.126933,-0.20539 0.507997,-0.10041 0.749355,0.20643 l 0.245011,0.31148 -0.240141,0.40701 c -0.333587,0.56538 -0.167718,0.73392 0.722329,0.73392 0.568716,0 0.691157,0.035 0.691157,0.19743 0,0.2765 -0.268886,1.01795 -0.410947,1.13319 -0.06502,0.0527 8.43e-4,0.0624 0.146363,0.0215 0.406997,-0.11448 0.316505,0.0834 -0.257581,0.56328 -0.527421,0.44087 -1.074668,0.62556 -0.771625,0.26041 z m -0.587692,-0.3531 c 0,-0.0323 -0.02646,-0.0588 -0.0588,-0.0588 -0.03234,0 -0.0588,0.0265 -0.0588,0.0588 0,0.0323 0.02646,0.0588 0.0588,0.0588 0.03234,0 0.0588,-0.0265 0.0588,-0.0588 z m 0.972745,-0.53773 c 0.241101,-0.19873 0.438366,-0.43686 0.438366,-0.52916 0,-0.24827 -0.10382,-0.20745 -0.47037,0.18495 -0.181249,0.19402 -0.374459,0.35446 -0.429355,0.35651 -0.0549,0.002 -0.20253,0.0814 -0.328074,0.17639 l -0.228263,0.17265 h 0.289665 c 0.159315,0 0.486929,-0.1626 0.728031,-0.36134 z m -0.122068,-0.66759 c 0.219098,-0.23314 0.224504,-0.26459 0.04548,-0.26459 -0.25799,0 -1.013744,0.5967 -1.013749,0.8004 -4e-6,0.19045 0.595351,-0.13901 0.968266,-0.53581 z m -0.733084,-0.55857 c -0.08311,-0.10014 -0.177565,-0.15561 -0.209903,-0.12327 -0.03234,0.0323 0.0092,0.14072 0.09231,0.24086 0.08311,0.10014 0.177565,0.15562 0.209903,0.12328 0.03234,-0.0323 -0.0092,-0.14073 -0.09231,-0.24087 z m -4.857297,-0.60436 c -0.114017,-0.11402 0.026,-0.27758 0.237628,-0.27758 0.309252,0 0.987655,-0.59121 1.164743,-1.01504 0.198212,-0.47439 0.397518,-0.5164 0.397518,-0.0838 0,0.72274 -1.390339,1.78596 -1.799889,1.37641 z m -0.784232,-0.54217 c 0.0075,-0.68097 1.653435,-2.12425 2.012753,-1.76493 0.172736,0.17274 0.08307,0.28362 -0.44783,0.55379 -0.631553,0.32139 -0.853799,0.52813 -1.112371,1.03476 -0.252643,0.49501 -0.45694,0.57464 -0.452552,0.17638 z m 4.308813,-2.28325 c -0.154639,-0.15464 -0.0705,-0.22537 0.451394,-0.37947 0.488957,-0.14437 0.928479,-0.52055 1.222909,-1.04667 0.06113,-0.10923 0.148694,-0.16105 0.194588,-0.11516 0.100239,0.10024 -0.151996,0.77301 -0.398169,1.062 -0.352984,0.41439 -1.244948,0.70507 -1.470722,0.4793 z m -0.666358,-0.62729 c 0,-0.29146 0.797592,-1.08107 1.363011,-1.34938 0.400155,-0.18989 0.988841,-0.16974 0.988841,0.0338 0,0.05 -0.228215,0.152 -0.507143,0.2266 -0.360764,0.0965 -0.667596,0.30718 -1.063046,0.72995 -0.601209,0.64274 -0.781663,0.72561 -0.781663,0.35899 z m -11.8823616,6.35013 c -0.0011,-0.0323 -0.07966,0.0439 -0.174619,0.16946 -0.09496,0.12555 -0.170326,0.36367 -0.167487,0.52917 0.0043,0.24926 0.03425,0.22017 0.174618,-0.16947 0.0932,-0.2587 0.168571,-0.49682 0.167488,-0.52916 z m 1.243032,0.54316 c 0.200923,-0.20092 0.07831,-0.35529 -0.138971,-0.17497 -0.159433,0.13232 -0.214507,0.33736 -0.09061,0.33736 0.03696,0 0.140271,-0.0731 0.229585,-0.16239 z m -1.002337,-0.83714 c 0,-0.0323 -0.02646,-0.0588 -0.0588,-0.0588 -0.03234,0 -0.0588,0.0265 -0.0588,0.0588 0,0.0323 0.02646,0.0588 0.0588,0.0588 0.03234,0 0.0588,-0.0265 0.0588,-0.0588 z m -0.94074,-0.23519 c 0,-0.0323 -0.02646,-0.0588 -0.0588,-0.0588 -0.03234,0 -0.0588,0.0265 -0.0588,0.0588 0,0.0323 0.02646,0.0588 0.0588,0.0588 0.03234,0 0.0588,-0.0265 0.0588,-0.0588 z m 1.194891,-0.38218 c -0.733726,-0.91508 -1.727622,-1.75588 -2.44431798,-2.06779 -0.849677,-0.36978 -0.934412,-0.37864 -1.02999,-0.10767 -0.03992,0.11318 -0.103421,0.27193 -0.141107,0.35278 -0.0491,0.10534 0.07588,0.14772 0.441048,0.14957 0.962802,0.005 1.89296998,0.66851 1.70930498,1.21951 -0.08116,0.24347 0.708035,0.70961 1.007105,0.59484 0.08347,-0.032 0.256073,0.0206 0.383569,0.11701 0.406775,0.30752 0.43882,0.19627 0.07439,-0.25825 z m -3.78192798,-2.53258 c 0,-0.31118 -0.44981302,-1.02459 -0.64601402,-1.02459 -0.391204,0 -0.306334,1.28685 0.102367,1.55215 0.174899,0.11353 0.54364702,-0.24431 0.54364702,-0.52756 z"
       id="path14" /></g></svg>
