<?xml version="1.0" encoding="UTF-8" standalone="no"?>
<!-- Created with Inkscape (http://www.inkscape.org/) -->

<svg
   width="130.7397mm"
   height="96.267067mm"
   viewBox="0 0 130.73971 96.267067"
   version="1.1"
   id="svg1"
   xml:space="preserve"
   xmlns="http://www.w3.org/2000/svg"
   xmlns:svg="http://www.w3.org/2000/svg"><defs
     id="defs1" /><g
     id="layer1"
     transform="translate(30.310008,-1012.0979)"><path
       style="fill:#4d4d4d"
       d="m 34.953884,1108.3287 c -0.383877,-0.068 -1.172109,-0.2854 -1.469907,-0.4048 -0.838933,-0.3365 -0.999537,-0.4161 -0.999537,-0.4955 0,-0.049 -0.07132,-0.089 -0.158489,-0.089 -0.278174,0 -1.424138,-1.3272 -1.776879,-2.0579 -0.450793,-0.9338 -0.468151,-0.9854 -0.880833,-2.6164 -0.234282,-0.926 -0.29305,-2.0861 -0.28445,-5.6151 0.0084,-3.4648 0.04908,-4.1609 0.274574,-4.7037 0.05374,-0.1293 0.165949,-0.4204 0.249349,-0.6467 0.460875,-1.251 2.083229,-3.0885 3.208354,-3.6339 1.154673,-0.5597 1.566697,-0.6469 3.07254,-0.6504 1.357972,0 1.440204,0.011 2.183647,0.3787 1.754892,0.8675 3.367178,3.1368 4.320596,6.081 0.817695,2.5252 0.916579,5.6896 0.259056,8.2903 -0.07358,0.291 -0.163091,0.6753 -0.198906,0.854 -0.03582,0.1786 -0.111935,0.3537 -0.169154,0.3891 -0.05722,0.035 -0.104035,0.1431 -0.104035,0.2394 0,0.096 -0.105833,0.3942 -0.235185,0.6619 -0.129352,0.2678 -0.235185,0.5327 -0.235185,0.5888 0,0.2225 -0.959106,1.4963 -1.455824,1.9335 -0.470226,0.4139 -1.337835,0.9015 -2.365935,1.3295 -0.351612,0.1464 -2.675197,0.2664 -3.233797,0.1671 z m 2.34222,-0.7622 c 1.148976,-0.1867 1.725063,-0.4046 2.596669,-0.982 0.914999,-0.6061 1.535855,-1.4769 2.144783,-3.008 0.0643,-0.1617 0.163659,-0.3859 0.220789,-0.4982 0.05713,-0.1123 0.103873,-0.334 0.103873,-0.4928 0,-0.1587 0.04707,-0.3177 0.1046,-0.3533 0.05753,-0.035 0.13603,-0.2636 0.174444,-0.5067 0.03842,-0.2431 0.134278,-0.8389 0.213031,-1.324 0.241564,-1.4879 0.174924,-3.8202 -0.145316,-5.0859 -0.367935,-1.4542 -0.379752,-1.4913 -0.75776,-2.3812 -0.62353,-1.468 -1.318502,-2.5107 -2.351281,-3.5278 -0.941247,-0.927 -1.994067,-1.3523 -3.347239,-1.3523 -0.798615,0 -1.165513,0.06 -2.239553,0.3684 -1.187079,0.3405 -2.203773,1.1769 -2.933734,2.4136 -0.223021,0.3778 -0.498251,0.7792 -0.611623,0.892 -0.113371,0.1127 -0.264506,0.4038 -0.335856,0.6467 -0.07135,0.243 -0.217301,0.7328 -0.324337,1.0885 -0.155086,0.5154 -0.193771,1.1483 -0.190481,3.1162 0.0098,5.8677 0.698578,8.5231 2.577369,9.9366 0.572392,0.4307 1.685408,0.8158 2.994587,1.0362 0.916679,0.1543 1.230686,0.1564 2.107035,0.014 z m 6.506623,-7.3604 c -0.180604,-0.038 -0.264584,-0.1412 -0.264584,-0.3243 0,-0.2562 0.0525,-0.2715 1.188185,-0.346 2.302477,-0.1508 4.107792,-0.7925 6.278945,-2.2317 2.361026,-1.565 3.992622,-3.1733 7.05743,-6.9568 0.83826,-1.0348 1.630554,-1.991 1.760654,-2.1249 0.809563,-0.8333 2.052804,-2.4385 2.643733,-3.4135 0.469494,-0.7747 0.575023,-1.3206 0.584414,-3.0234 0.0045,-0.8157 0.04913,-1.245 0.124602,-1.1984 0.06488,0.04 0.117593,0.5673 0.117593,1.176 0,0.6086 0.05272,1.1358 0.117592,1.1759 0.465172,0.2875 -0.599715,2.6303 -1.790582,3.9394 -0.147091,0.1616 -0.504801,0.585 -0.794913,0.9407 -0.290111,0.3557 -0.556028,0.6732 -0.590926,0.7056 -0.0349,0.032 -0.245926,0.2969 -0.468949,0.5879 -0.223023,0.2911 -0.43369,0.5556 -0.468147,0.588 -0.03446,0.032 -0.482438,0.5879 -0.995512,1.2347 -0.513073,0.6468 -0.962498,1.2024 -0.998721,1.2347 -0.03622,0.032 -0.356902,0.4028 -0.71262,0.8232 -1.298377,1.5344 -2.595395,2.809 -4.088483,4.0176 -1.226659,0.993 -3.496121,2.2533 -4.817124,2.6752 -1.195815,0.3819 -3.242268,0.656 -3.882587,0.5201 z m -16.678793,-1.2095 c -1.378949,-0.6965 -1.911365,-0.9912 -2.275163,-1.259 -0.101331,-0.075 -0.964606,-0.7228 -1.918389,-1.4405 -0.953782,-0.7177 -1.785184,-1.3049 -1.84756,-1.3049 -0.302279,0 -3.589597,-3.5577 -4.99808,-5.4092 -0.319804,-0.4204 -0.612937,-0.7908 -0.651408,-0.8232 -0.03847,-0.032 -0.19714,-0.244 -0.352598,-0.4703 -0.155457,-0.2264 -0.314207,-0.4381 -0.352777,-0.4704 -0.03857,-0.032 -0.197321,-0.244 -0.352778,-0.4704 -0.155458,-0.2263 -0.315922,-0.438 -0.356587,-0.4703 -0.201403,-0.1602 -1.328883,-1.956 -1.672675,-2.6643 -0.494401,-1.0185 -0.952957,-2.4649 -0.859034,-2.7096 0.03955,-0.1031 0.122888,-0.5104 0.185198,-0.9052 0.06231,-0.3947 0.159725,-0.9426 0.216478,-1.2175 0.07693,-0.3726 0.06645,-0.4997 -0.04117,-0.4997 -0.331626,0 -2.5061647,1.2402 -3.2315954,1.8432 -0.098475,0.082 -0.761128,0.6024 -1.4725632,1.1568 -0.7114351,0.5544 -1.3902475,1.0881 -1.5084718,1.1861 -0.1182243,0.098 -0.3431201,0.2366 -0.4997685,0.3079 -0.1566484,0.071 -0.2848152,0.1678 -0.2848152,0.2143 0,0.046 -0.15875,0.1502 -0.3527778,0.2305 -0.1940277,0.08 -0.3527777,0.1865 -0.3527777,0.2358 0,0.049 -0.092604,0.1199 -0.2057871,0.1569 -0.1131828,0.037 -0.4703703,0.2311 -0.79375,0.4312 -1.5751499,0.9749 -4.4274465,2.1422 -6.0560184,2.4784 -0.9642236,0.1991 -1.8134048,0.3554 -2.587037,0.4762 -2.5528247,0.3987 -3.6186349,0.5986 -4.9388889,0.9261 -0.291042,0.072 -0.675335,0.1605 -0.853986,0.1963 -0.17865,0.036 -0.353752,0.112 -0.389115,0.1692 -0.03536,0.057 -0.167726,0.104 -0.294138,0.104 -0.126413,0 -0.321727,0.047 -0.434032,0.1039 -0.218317,0.1111 -0.482045,0.2231 -1.321322,0.5616 -0.840725,0.339 -5.682605,2.7575 -5.901129,2.9475 -0.343238,0.2985 -0.89572,0.072 -1.616761,-0.6633 -0.725523,-0.7397 -0.775965,-0.8012 -1.553649,-1.8913 -0.548545,-0.769 -1.178735,-1.3997 -2.57708,-2.5792 -1.302769,-1.0988 -4.46939,-4.4085 -4.74331,-4.9576 -0.103744,-0.2079 -0.188626,-0.604 -0.188626,-0.8801 0,-0.4039 0.07078,-0.5729 0.361823,-0.8639 0.435468,-0.4355 0.785159,-0.4573 1.375189,-0.086 0.241148,0.1519 0.835326,0.5031 1.320395,0.7805 0.48507,0.2774 1.12007,0.6436 1.411112,0.8137 0.493926,0.2887 3.298205,1.683 3.821759,1.9001 0.665385,0.276 2.443928,0.7988 3.116203,0.916 0.769522,0.1342 1.801222,0.028 3.292593,-0.3376 0.291042,-0.071 0.675335,-0.1592 0.853986,-0.195 0.17865,-0.036 0.353752,-0.1119 0.389115,-0.1691 0.03536,-0.057 0.167726,-0.1041 0.294138,-0.1041 0.126413,0 0.334956,-0.053 0.463431,-0.1176 0.128474,-0.065 0.338705,-0.1705 0.467179,-0.2352 0.128474,-0.065 0.287801,-0.1176 0.354059,-0.1176 0.06626,0 0.371247,-0.1111 0.677753,-0.2469 0.306506,-0.1358 0.663117,-0.2915 0.792469,-0.346 1.302272,-0.5488 8.6024748,-4.1748 8.7606477,-4.3514 0.032338,-0.036 0.2440046,-0.1569 0.4703703,-0.2685 0.2263658,-0.1115 0.5703241,-0.2953 0.7643519,-0.4083 0.1940277,-0.113 0.74965273,-0.4352 1.23472217,-0.7161 0.99705002,-0.5774 1.28699753,-0.7574 2.73287383,-1.6968 0.5652797,-0.3673 1.0812172,-0.6678 1.1465278,-0.6678 0.065311,0 0.1187465,-0.053 0.1187465,-0.1176 0,-0.065 0.079375,-0.1176 0.1763889,-0.1176 0.097014,0 0.1763888,-0.053 0.1763888,-0.1176 0,-0.065 0.069397,-0.1176 0.1542155,-0.1176 0.084818,0 0.2567977,-0.094 0.3821759,-0.209 0.1253783,-0.1149 0.4131688,-0.3372 0.6395346,-0.4941 0.2263657,-0.1568 0.4380324,-0.3155 0.4703703,-0.3526 0.032338,-0.037 0.2969213,-0.2496 0.587963,-0.4723 0.5567019,-0.4258 3.1916989,-2.5932 3.2925925,-2.7082 0.4612793,-0.5261 4.9372863,-4.0559 5.7572023,-4.5403 0.272955,-0.1612 0.567169,-0.6418 1.294905,-2.1152 0.953088,-1.9295 1.134518,-2.1764 2.371015,-3.2258 1.024546,-0.8695 1.354426,-1.0582 1.979864,-1.1322 0.528839,-0.063 0.622203,-0.038 0.865549,0.2241 0.201745,0.2177 0.447314,0.3161 0.943124,0.3781 0.653394,0.082 0.691397,0.07 1.501926,-0.4483 0.457364,-0.2926 0.879419,-0.548 0.9379,-0.5675 0.06122,-0.02 0.0533,-0.21 -0.01867,-0.4469 -0.395042,-1.3005 -0.46337,-1.752 -0.46337,-3.0614 0,-0.772 0.04991,-1.6294 0.11091,-1.9052 0.061,-0.2758 0.163972,-0.766 0.228825,-1.0894 0.06485,-0.3234 0.231144,-1.0642 0.369534,-1.6463 0.602053,-2.5323 0.729146,-3.2678 0.833081,-4.8213 0.06058,-0.9054 0.15713,-2.0696 0.214556,-2.587 0.05743,-0.5174 0.188378,-2.052 0.291004,-3.4102 0.102625,-1.3582 0.244542,-2.7605 0.31537,-3.1162 0.321615,-1.6152 0.372707,-1.8349 0.471482,-2.0269 0.05778,-0.1123 0.105053,-0.3341 0.105053,-0.4928 0,-0.1588 0.05292,-0.3214 0.117592,-0.3613 0.06468,-0.04 0.117593,-0.1761 0.117593,-0.3025 0,-0.1265 0.04674,-0.3218 0.103873,-0.4341 0.05713,-0.1123 0.175199,-0.3629 0.262376,-0.5569 0.722623,-1.6084 1.71607,-2.0251 3.531318,-1.4812 0.411037,0.1231 0.99085,0.2575 1.288472,0.2985 l 0.541132,0.075 0.10157,-0.7983 c 0.260778,-2.0497 0.04296,-4.8707 -0.547418,-7.0896 -0.184018,-0.6916 -0.271469,-3.003 -0.128515,-3.3968 0.06137,-0.169 0.176668,-0.5455 0.256217,-0.8365 0.07955,-0.2911 0.186179,-0.635 0.236955,-0.7644 0.05078,-0.1293 0.155919,-0.4204 0.23365,-0.6467 1.079884,-3.1449 2.716481,-4.9266 5.253005,-5.719 0.891701,-0.2786 1.08641,-0.2966 2.704629,-0.2502 1.571394,0.045 1.853087,0.087 2.849861,0.4222 1.417817,0.477 2.40434,1.043 3.404904,1.9535 0.788281,0.7173 1.780193,2.2694 1.780193,2.7855 0,0.1134 0.05292,0.2388 0.117593,0.2788 0.06468,0.04 0.117592,0.2314 0.117592,0.4255 0,0.2052 -0.04918,0.3224 -0.117592,0.2801 -0.06468,-0.04 -0.117593,-0.1722 -0.117593,-0.2937 0,-0.2757 -0.624067,-1.4366 -1.099259,-2.0448 -0.677966,-0.8679 -2.832678,-2.424 -3.356322,-2.424 -0.08609,0 -0.128787,0.3503 -0.125409,1.0289 0.0057,1.1488 0.123713,1.9178 0.331543,2.1606 0.291795,0.341 1.041336,1.6054 1.385547,2.3373 0.360177,0.7659 0.492194,1.2125 0.747365,2.5283 0.07525,0.388 0.183519,0.92 0.240587,1.1821 0.290045,1.3321 0.2513,4.1446 -0.08172,5.9318 -0.120333,0.6458 0.193977,0.2899 0.699207,-0.7917 0.680013,-1.4558 1.002849,-2.967 1.106173,-5.178 0.08751,-1.8726 -0.383773,-3.4678 -1.516276,-5.1323 -0.463267,-0.6809 -1.471304,-1.9241 -1.867379,-2.303 -0.273516,-0.2616 -0.350224,-0.5547 -0.181797,-0.6944 0.111717,-0.093 0.330673,0.076 0.877903,0.675 0.400986,0.4392 0.817276,0.9274 0.925087,1.085 0.107812,0.1576 0.237189,0.3152 0.287505,0.3501 0.233172,0.162 1.295229,2.1013 1.472582,2.6889 0.298349,0.9886 0.389845,0.9773 0.389845,-0.048 0,-0.6646 0.0361,-0.8929 0.126875,-0.8021 0.161027,0.161 0.156213,3.9044 -0.0059,4.5651 -0.06347,0.2587 -0.119323,0.7085 -0.124126,0.9995 -0.0048,0.291 -0.100758,0.9525 -0.213232,1.4699 -0.248627,1.1437 -0.220406,1.2682 0.719986,3.175 0.382757,0.7761 0.743522,1.5302 0.801701,1.6757 0.05818,0.1455 0.169451,0.4003 0.247274,0.5661 0.07782,0.1658 0.143968,0.7188 0.14699,1.2289 0.005,0.8504 0.02789,0.9375 0.275612,1.0508 0.148564,0.068 0.374595,0.1234 0.50229,0.1234 0.34312,0 1.133739,0.5638 1.404105,1.0013 0.375515,0.6075 0.459818,1.3354 0.268015,2.314 -0.204683,1.0442 -0.226843,1.2217 -0.503856,4.0343 -0.280035,2.8432 -0.593475,4.3829 -1.172993,5.762 -0.05436,0.1293 -0.320437,0.8173 -0.591288,1.5287 -0.644208,1.6921 -0.649361,1.7054 -0.823149,2.1167 -0.08198,0.194 -0.201069,0.485 -0.264638,0.6467 -0.06357,0.1617 -0.162322,0.3859 -0.219452,0.4982 -0.05713,0.1123 -0.103872,0.3002 -0.103872,0.4175 0,0.1172 -0.04453,0.2635 -0.09896,0.3249 -0.05443,0.062 -0.215965,0.5086 -0.358976,0.9937 -0.143012,0.4851 -0.513251,1.5302 -0.822754,2.3226 l -0.562732,1.4407 0.230339,0.382 c 0.126687,0.2101 0.82224,0.9735 1.545673,1.6965 0.992126,0.9916 1.357054,1.2882 1.485119,1.2072 0.09338,-0.059 0.354995,-0.11 0.581361,-0.1131 0.226365,0 0.702615,-0.108 1.058333,-0.2331 0.852799,-0.3 1.495611,-0.2922 2.428539,0.029 0.699414,0.2411 0.853373,0.3602 1.734947,1.3429 0.827264,0.9221 1.003572,1.1946 1.216939,1.8814 0.327327,1.0537 0.499204,2.0635 0.499204,2.9329 0,0.3874 0.06615,0.848 0.146991,1.0234 0.09482,0.2058 0.822206,0.7776 2.049309,1.611 1.046274,0.7105 1.959087,1.2919 2.028472,1.2919 0.06938,0 0.126154,0.053 0.126154,0.1176 0,0.065 0.06615,0.1186 0.146991,0.1198 0.317299,0 2.128911,1.6815 2.830979,2.6204 0.200827,0.2686 0.464923,0.4708 0.668013,0.5114 0.184732,0.037 0.432146,0.1565 0.549808,0.2656 0.218614,0.2029 3.761811,2.5831 4.506061,3.0272 0.226366,0.135 1.038575,0.6492 1.804908,1.1427 0.766334,0.4934 1.417467,0.8972 1.446962,0.8972 0.02949,0 0.354994,0.1998 0.723332,0.4441 0.368338,0.2443 0.807753,0.5138 0.976478,0.599 0.305016,0.1539 0.512009,0.3048 2.493002,1.817 1.806609,1.3792 2.607738,2.0013 2.668281,2.0721 0.03234,0.038 0.34889,0.3061 0.70345,0.5962 0.35456,0.2902 0.804351,0.6783 0.999537,0.8626 0.44203,0.4172 1.905355,1.5188 2.281214,1.7174 0.908143,0.4796 3.021414,0.7141 4.372674,0.4852 0.351427,-0.06 1.2475,-0.1679 1.991273,-0.2407 2.861946,-0.2803 3.803229,-0.5246 4.721641,-1.2255 0.626961,-0.4785 1.426996,-0.895 1.719093,-0.895 0.119733,0 0.332868,0.1073 0.473628,0.2384 0.6224,0.5799 0.41417,1.4936 -0.561985,2.4662 -0.612612,0.6104 -1.491603,1.3569 -1.840278,1.5629 -0.08654,0.051 -0.593964,0.6332 -1.127611,1.2935 -2.241577,2.7736 -3.860094,4.3119 -4.717017,4.4833 -0.264313,0.053 -0.566421,-0.032 -1.18672,-0.3349 -0.457677,-0.2231 -0.937973,-0.5015 -1.067325,-0.6185 -0.129352,-0.117 -0.380706,-0.2878 -0.558565,-0.3795 -0.177859,-0.092 -0.32338,-0.2044 -0.32338,-0.2503 0,-0.046 -0.15875,-0.1493 -0.352777,-0.2296 -0.194028,-0.08 -0.352778,-0.1927 -0.352778,-0.2495 0,-0.057 -0.05661,-0.1033 -0.125804,-0.1033 -0.06919,0 -0.347004,-0.1517 -0.617361,-0.3372 -1.72717,-1.1846 -6.316838,-3.6713 -8.576048,-4.6465 -0.242535,-0.1047 -0.612951,-0.2648 -0.823148,-0.3558 -0.210197,-0.091 -1.599259,-0.6509 -3.086806,-1.2443 -1.487546,-0.5933 -2.969213,-1.2007 -3.292592,-1.3498 -1.685667,-0.777 -2.531388,-1.1719 -3.116204,-1.4549 -0.676848,-0.3275 -2.011862,-1.5634 -2.941852,-2.7235 -0.816016,-1.018 -1.840507,-1.9949 -2.288277,-2.1819 -0.401705,-0.1679 -0.643356,-0.6001 -0.48172,-0.8616 0.191444,-0.3098 1.687794,0.8883 2.773156,2.2203 1.801319,2.2107 2.429512,2.6874 5.114156,3.8806 0.291042,0.1293 0.780521,0.3477 1.087732,0.4852 0.30721,0.1376 0.664398,0.2909 0.79375,0.3408 0.129351,0.05 0.425536,0.1741 0.658188,0.2761 0.232652,0.1019 1.449736,0.5896 2.70463,1.0838 2.96317,1.1667 3.108852,1.231 5.333048,2.3516 3.298399,1.6618 4.741053,2.4987 7.726353,4.482 1.057224,0.7024 2.070236,1.3416 2.251138,1.4205 0.736772,0.321 1.249012,0.096 2.199328,-0.966 0.291041,-0.3253 0.849004,-0.9364 1.239917,-1.358 0.390914,-0.4216 1.052025,-1.1634 1.469136,-1.6484 0.417112,-0.4851 1.43342,-1.5493 2.258462,-2.3649 1.168256,-1.1549 1.500077,-1.5516 1.500077,-1.7933 0,-0.2679 -0.04928,-0.3104 -0.360508,-0.3104 -0.440539,0 -0.679435,0.122 -1.560266,0.7969 -0.81205,0.6222 -1.414114,0.8287 -2.841726,0.9749 -0.582083,0.06 -1.42875,0.1615 -1.881481,0.2265 -1.901304,0.2729 -3.111043,0.3536 -4.056945,0.2705 -0.549745,-0.048 -1.118126,-0.074 -1.263069,-0.057 -0.337566,0.039 -2.205292,-1.165 -3.113466,-2.008 -0.08604,-0.08 -0.499129,-0.4348 -0.917965,-0.7888 -0.418835,-0.3541 -0.787977,-0.6717 -0.820314,-0.7059 -0.03234,-0.034 -0.376297,-0.3 -0.764352,-0.5907 -0.388056,-0.2908 -0.732014,-0.5602 -0.764352,-0.5987 -0.134879,-0.1608 -3.938723,-2.9586 -4.10776,-3.0214 -0.101403,-0.038 -0.528328,-0.2906 -0.948722,-0.5622 -0.420393,-0.2717 -1.875601,-1.1957 -3.233796,-2.0534 -1.358194,-0.8578 -2.495903,-1.5916 -2.528241,-1.6309 -0.03234,-0.039 -0.204317,-0.1463 -0.382175,-0.238 -0.177859,-0.092 -0.32338,-0.2106 -0.32338,-0.2644 0,-0.054 -0.06615,-0.098 -0.146991,-0.098 -0.08084,-10e-5 -0.332199,-0.1588 -0.558565,-0.3525 -0.226365,-0.1937 -0.47772,-0.3523 -0.558564,-0.3525 -0.08084,-10e-5 -0.146991,-0.045 -0.146991,-0.099 0,-0.094 -0.774674,-0.5131 -1.196342,-0.6472 -0.108243,-0.034 -0.404423,-0.3436 -0.658178,-0.687 -0.568028,-0.7689 -2.027685,-2.141 -2.499986,-2.3501 -0.192059,-0.085 -0.349198,-0.1945 -0.349198,-0.2434 0,-0.049 -0.06615,-0.091 -0.146991,-0.095 -0.08084,0 -0.834823,-0.475 -1.675508,-1.0487 -0.840685,-0.5737 -1.55073,-1.0208 -1.577878,-0.9937 -0.02715,0.027 0.01246,0.1816 0.08801,0.3432 0.07555,0.1616 0.190285,0.4261 0.254961,0.5878 0.287785,0.7194 0.38689,0.9538 0.48409,1.1449 0.05713,0.1123 0.103873,0.285 0.103873,0.3838 0,0.099 0.04776,0.2714 0.106131,0.3837 0.100095,0.1926 0.223991,0.6251 0.471122,1.6447 0.385104,1.5889 0.594342,3.1153 0.398949,2.9105 -0.1022,-0.1072 -0.176381,-0.3261 -0.538022,-1.5875 -0.06489,-0.2264 -0.157544,-0.5175 -0.205886,-0.6468 -0.04834,-0.1294 -0.152,-0.4733 -0.230352,-0.7644 -0.07835,-0.291 -0.190216,-0.621 -0.248589,-0.7333 -0.05837,-0.1123 -0.106131,-0.3076 -0.106131,-0.434 0,-0.1265 -0.05292,-0.2626 -0.117593,-0.3026 -0.06468,-0.04 -0.117592,-0.1987 -0.117592,-0.3527 0,-0.1541 -0.05292,-0.3128 -0.117593,-0.3528 -0.06468,-0.04 -0.117592,-0.1761 -0.117592,-0.3025 0,-0.1265 -0.04748,-0.3218 -0.105514,-0.4341 -0.05803,-0.1123 -0.221684,-0.601 -0.36367,-1.0861 -0.141985,-0.4851 -0.333153,-1.0407 -0.424816,-1.2347 -0.09166,-0.1941 -0.217221,-0.882 -0.279017,-1.5287 -0.130853,-1.3696 -0.304654,-2.3438 -0.468095,-2.624 -0.06691,-0.1147 -0.117132,-0.1363 -0.119201,-0.051 -0.007,0.2869 -0.352972,0.1419 -0.420714,-0.1764 -0.09063,-0.4257 -0.54249,-1.4405 -0.641426,-1.4405 -0.04269,0 -0.152708,-0.1455 -0.244482,-0.3233 -0.171733,-0.3329 -0.460843,-0.6875 -0.460843,-0.5654 0,0.069 0.0834,0.2539 0.332207,0.7366 0.07356,0.1427 0.168916,0.4794 0.211908,0.7483 0.07554,0.4724 0.06969,0.4843 -0.174178,0.3538 -0.13879,-0.074 -0.252345,-0.2133 -0.252345,-0.3089 0,-0.096 -0.04674,-0.2658 -0.103872,-0.3781 -0.05713,-0.1123 -0.176193,-0.3629 -0.264584,-0.5569 -0.236971,-0.5202 -0.856102,-1.1483 -1.084414,-1.1001 -0.165866,0.035 -0.131238,0.1399 0.216104,0.6544 0.22749,0.337 0.413618,0.6634 0.413618,0.7252 0,0.062 0.03969,0.1301 0.08819,0.1516 0.04851,0.022 0.207257,0.2581 0.352778,0.5256 0.277192,0.5096 0.339545,0.9233 0.15622,1.0366 -0.09756,0.06 -0.230858,-0.1397 -0.641988,-0.9635 -0.07238,-0.145 -0.171281,-0.2641 -0.219788,-0.2646 -0.04851,-5e-4 -0.08819,-0.057 -0.08819,-0.1267 0,-0.1624 -0.696278,-1.183 -0.934455,-1.3698 -0.239049,-0.1874 -1.927919,-0.1939 -2.438352,-0.01 l -0.390893,0.1413 0.558933,0.1475 c 0.307413,0.081 0.806447,0.1497 1.108963,0.1526 0.683118,0.01 0.92951,0.2765 1.148099,1.2582 0.106039,0.4763 0.275004,0.8227 0.55036,1.1286 0.402986,0.4475 0.525814,0.911 0.241454,0.911 -0.08574,0 -0.284178,-0.1377 -0.440973,-0.306 -0.525605,-0.5641 -2.457978,-1.946 -2.665372,-1.9061 -0.486197,0.094 -0.248048,0.4661 1.250183,1.9551 0.841655,0.8365 1.612222,1.5524 1.712371,1.5908 0.122104,0.047 0.182089,0.2238 0.182089,0.537 0,0.2569 0.05292,0.4998 0.117593,0.5398 0.06468,0.04 0.117592,0.2252 0.117592,0.4116 0,0.1864 0.05292,0.3716 0.117593,0.4116 0.06468,0.04 0.117592,0.1987 0.117592,0.3527 0,0.1541 0.04707,0.3092 0.1046,0.3448 0.05753,0.035 0.133968,0.2371 0.169862,0.4479 0.03589,0.2108 0.12207,0.6479 0.191503,0.9712 0.196333,0.9144 0.331067,1.978 0.469237,3.7042 0.06989,0.8731 0.179101,2.0433 0.242694,2.6004 0.06359,0.557 0.115623,1.708 0.115623,2.5576 0,1.4373 0.01549,1.5448 0.222604,1.5448 0.122432,0 0.255904,0.087 0.296604,0.1928 0.05384,0.1403 -0.511303,0.787 -2.074688,2.374 -1.181778,1.1997 -2.451375,2.4891 -2.821328,2.8654 -0.547942,0.5573 -0.962278,0.8254 -2.234981,1.4462 -1.61845,0.7894 -2.329436,1.2785 -2.668253,1.8356 -0.252246,0.4148 -0.550966,0.286 -0.432395,-0.1864 0.149485,-0.5956 1.118116,-1.4007 2.460035,-2.0448 0.690349,-0.3313 1.25518,-0.6385 1.25518,-0.6826 0,-0.085 -0.207551,-0.759 -0.355669,-1.1553 -0.04834,-0.1294 -0.157781,-0.4733 -0.243198,-0.7644 -0.287174,-0.9785 -1.051626,-2.7568 -1.534433,-3.5695 -0.625239,-1.0524 -1.574948,-1.9672 -2.510832,-2.4186 -0.867369,-0.4183 -0.982633,-0.5475 -0.721434,-0.8087 0.173757,-0.1738 0.233336,-0.1677 0.733689,0.075 0.299515,0.1455 0.577863,0.2314 0.618549,0.1908 0.04069,-0.041 0.07252,-0.7442 0.07075,-1.5635 -0.0031,-1.4145 -0.111834,-2.3594 -0.408348,-3.5475 -0.07264,-0.2911 -0.160845,-0.6615 -0.196022,-0.8232 -0.0455,-0.2091 -0.333498,-0.4637 -0.997854,-0.8819 -0.513642,-0.3234 -1.024001,-0.6696 -1.13413,-0.7693 -0.110129,-0.1 -0.464818,-0.3589 -0.788198,-0.5762 -0.32338,-0.2172 -0.707726,-0.5027 -0.854104,-0.6344 -0.413122,-0.3718 -0.536899,-0.133 -0.457211,0.882 0.03725,0.4745 0.128043,1.1802 0.201758,1.5682 0.193857,1.0206 0.268236,3.3422 0.117529,3.6685 -0.06881,0.149 -0.189629,0.4164 -0.268497,0.5943 -0.273229,0.6161 -0.781473,1.2816 -1.698587,2.2238 -0.972217,0.9989 -1.46052,1.2562 -1.779068,0.9377 -0.137504,-0.1375 -0.220356,-0.1453 -0.393629,-0.037 -0.330432,0.2064 -0.622947,-0.035 -0.666725,-0.5493 -0.03236,-0.3804 -0.07304,-0.4291 -0.358657,-0.4291 -0.438848,0 -0.604383,-0.1996 -0.604383,-0.729 0,-0.3983 -0.03198,-0.4469 -0.293981,-0.4469 -0.353026,0 -0.350052,-0.033 -0.0588,0.6468 0.262203,0.6117 0.309978,1.4656 0.09407,1.6815 -0.07761,0.078 -0.236361,0.1412 -0.352777,0.1412 -0.168824,0 -0.211667,0.096 -0.211667,0.474 0,0.5748 -0.237857,0.7133 -0.73489,0.4281 -0.464977,-0.2669 -0.525722,-0.2499 -0.469786,0.1312 0.03055,0.2082 -0.03597,0.4316 -0.182325,0.6124 -0.315866,0.3901 -0.61247,0.2367 -1.135957,-0.5874 l -0.410837,-0.6468 -0.003,0.6636 c -0.0022,0.4947 -0.05036,0.6818 -0.189016,0.735 -0.608495,0.2335 -0.899998,-0.073 -1.176283,-1.2375 -0.09775,-0.412 -0.286324,-1.1113 -0.419043,-1.554 -0.257029,-0.8575 -0.255379,-0.5535 -0.02835,-5.2253 0.06388,-1.3144 0.04674,-1.5018 -0.190856,-2.0872 -0.143569,-0.3538 -0.297827,-0.6432 -0.342796,-0.6432 -0.04497,0 -0.19536,0.1059 -0.334203,0.2352 -0.138843,0.1294 -0.303161,0.2352 -0.365152,0.2352 -0.06199,0 -0.130349,0.045 -0.151908,0.1 -0.03431,0.087 -1.042929,0.7677 -2.008873,1.3553 -0.178589,0.1086 -0.32338,0.3015 -0.32338,0.4308 0,0.1287 -0.05292,0.3392 -0.117592,0.4676 -0.06468,0.1285 -0.170509,0.3387 -0.235185,0.4672 -0.06468,0.1285 -0.117593,0.3144 -0.117593,0.4132 0,0.099 -0.04776,0.2715 -0.106131,0.3838 -0.09804,0.1886 -0.173347,0.4489 -0.475768,1.6447 -0.218357,0.8633 -0.327663,2.2164 -0.19016,2.3539 0.0241,0.024 0.273814,-0.034 0.554926,-0.1297 0.355195,-0.1206 0.555955,-0.1366 0.658105,-0.053 0.242335,0.1993 0.167235,0.4431 -0.176389,0.5726 -0.358451,0.1351 -0.760283,0.3303 -1.205324,0.5856 -0.460852,0.2644 -1.920901,1.7535 -2.355884,2.4029 -0.216618,0.3234 -0.436619,0.6056 -0.488891,0.6272 -0.05227,0.022 -0.09504,0.09 -0.09504,0.1523 0,0.062 -0.264584,0.5052 -0.587963,0.9844 -0.32338,0.4792 -0.587963,0.9058 -0.587963,0.9479 0,0.077 0.633247,0.9175 0.90553,1.2024 0.07951,0.083 0.2372,0.3081 0.350425,0.4998 0.113225,0.1917 0.247371,0.3485 0.298102,0.3485 0.05073,0 0.09224,0.075 0.09224,0.1666 0,0.092 0.04068,0.1842 0.0904,0.2058 0.04972,0.022 0.334946,0.3831 0.633839,0.8035 0.298894,0.4204 0.842886,1.0489 1.208872,1.3967 0.634804,0.6031 0.775268,0.9345 0.443035,1.0451 -0.168945,0.056 -1.356605,-1.0946 -1.791719,-1.7362 -0.153511,-0.2264 -0.312091,-0.4381 -0.352399,-0.4704 -0.04031,-0.032 -0.301757,-0.3977 -0.580998,-0.812 -0.27924,-0.4142 -0.592768,-0.8623 -0.696729,-0.9958 -0.352003,-0.4517 -2.535495,-2.6084 -3.47339,-3.4306 -1.561112,-1.3687 -1.540412,-1.3154 -1.117336,-2.8755 0.13155,-0.485 0.278386,-1.0671 0.326304,-1.2935 0.07128,-0.3367 0.09931,-0.3671 0.154124,-0.1671 0.06577,0.2401 -0.02864,0.958 -0.274975,2.091 -0.14063,0.6468 -0.292094,0.4353 1.317097,1.8391 0.481908,0.4204 1.115196,0.9889 1.407306,1.2634 0.29211,0.2745 0.565013,0.4994 0.606452,0.4998 0.04144,4e-4 0.408597,-0.4888 0.815908,-1.0871 0.40731,-0.5982 0.773773,-1.1142 0.814362,-1.1465 0.04059,-0.032 0.253138,-0.3222 0.472332,-0.6442 0.524944,-0.7711 0.758319,-1.0538 1.498278,-1.8152 0.59514,-0.6124 0.623281,-0.6708 0.735507,-1.5287 0.312827,-2.3913 0.441406,-3.0194 0.876986,-4.2839 0.10793,-0.3134 0.170541,-0.5954 0.139135,-0.6269 -0.03141,-0.031 -0.551145,0.227 -1.154976,0.5743 -0.966442,0.5557 -3.742074,1.9488 -4.390468,2.2035 -0.129352,0.051 -0.367477,0.1472 -0.529166,0.2143 -0.16169,0.067 -0.611482,0.2407 -0.999537,0.3861 -0.388056,0.1453 -0.763705,0.3348 -0.834776,0.4212 -0.07107,0.086 -0.163675,0.1225 -0.205787,0.08 -0.214815,-0.2148 0.02828,-2.6671 0.288433,-2.9097 0.101806,-0.095 0.116756,0.131 0.06026,0.911 -0.07508,1.0365 -0.07494,1.0372 0.190774,0.9599 0.693093,-0.2017 1.098679,-0.3482 1.200772,-0.4337 0.06144,-0.052 0.207681,-0.094 0.324975,-0.094 0.117294,0 0.305148,-0.047 0.417453,-0.1039 0.195057,-0.099 0.539734,-0.2445 1.115535,-0.4702 0.949928,-0.3723 3.077606,-1.5136 4.378494,-2.3485 0.841793,-0.5403 1.556992,-1.0205 1.58933,-1.0672 0.03234,-0.047 0.402754,-0.3133 0.823148,-0.5925 0.420393,-0.2793 0.883313,-0.6152 1.028711,-0.7465 l 0.264359,-0.2386 -0.369512,-0.6559 c -0.203232,-0.3607 -0.626464,-1.0371 -0.940517,-1.5031 -0.314052,-0.466 -0.571004,-0.9025 -0.571004,-0.9701 0,-0.068 -0.04675,-0.1229 -0.103878,-0.1229 -0.05713,0 -0.134168,-0.093 -0.171189,-0.2058 -0.03702,-0.1132 -0.227524,-0.4704 -0.423339,-0.7938 -0.622869,-1.0286 -1.975471,-3.8578 -2.487274,-5.2024 -0.09063,-0.2381 -0.131872,-0.25 -0.426995,-0.1227 -0.616285,0.2657 -1.326214,0.8092 -1.326214,1.0152 0,0.3341 0.277697,0.8246 0.499729,0.8827 0.276323,0.072 0.262041,0.5078 -0.02163,0.6597 -0.1251,0.067 -0.490516,0.1217 -0.812036,0.1217 -0.988599,0 -1.782732,0.5774 -1.782732,1.2961 0,0.1959 0.04185,0.2109 0.30699,0.1101 0.168845,-0.064 0.535981,-0.2812 0.815858,-0.4822 0.497886,-0.3576 1.063906,-0.4761 1.21298,-0.254 0.04115,0.061 0.167425,0.1457 0.280607,0.1874 0.417104,0.1539 0.09663,1.1903 -0.561388,1.8156 -0.373785,0.3552 -1.071335,0.7372 -1.346128,0.7372 -0.123568,0 -0.257373,0.053 -0.297345,0.1176 -0.03997,0.065 -0.173777,0.1176 -0.297344,0.1176 -0.245894,0 -0.988515,0.3829 -1.32868,0.6851 -0.436337,0.3877 -0.820651,1.4878 -0.972554,2.7838 -0.03032,0.2587 -0.08614,0.6556 -0.124047,0.882 -0.05869,0.3505 -0.08306,0.3767 -0.164187,0.1764 -0.131,-0.3234 -0.135717,-2.1031 -0.0065,-2.4345 0.05794,-0.1486 0.17339,-0.4985 0.256555,-0.7776 0.186171,-0.6249 0.87143,-1.4182 1.477421,-1.7105 0.249553,-0.1203 0.545619,-0.2658 0.657924,-0.3233 0.112305,-0.058 0.274381,-0.1046 0.360168,-0.1046 0.257493,0 1.330097,-0.5567 1.65789,-0.8605 0.625271,-0.5795 0.237371,-0.957 -0.48075,-0.4679 -0.24639,0.1678 -0.621569,0.4031 -0.833733,0.5228 -0.470495,0.2655 -1.181648,0.2893 -1.276266,0.043 -0.03693,-0.096 0.05734,-0.5814 0.209477,-1.0781 0.252667,-0.8249 0.321877,-0.932 0.799406,-1.2361 0.394691,-0.2515 0.666727,-0.3331 1.110207,-0.3331 0.541745,0 0.569669,-0.013 0.359154,-0.1726 -0.281961,-0.2133 -0.798382,-0.2238 -1.36113,-0.028 -0.567413,0.1977 -0.746884,0.3593 -1.294528,1.1657 -0.254312,0.3745 -0.514992,0.6809 -0.579288,0.6809 -0.241185,0 -0.243142,-0.365 -0.0041,-0.7701 0.319749,-0.5419 0.312685,-0.6257 -0.02592,-0.3076 -0.302067,0.2837 -0.432248,0.2337 -0.432248,-0.1663 0,-0.1648 0.26512,-0.5334 0.704788,-0.98 0.885646,-0.8995 0.739855,-0.9436 -0.184199,-0.056 -0.377802,0.363 -0.805913,0.738 -0.951358,0.8333 -0.289384,0.1896 -0.509972,0.122 -0.509972,-0.1563 0,-0.202 0.07561,-0.2829 0.852546,-0.9126 0.527323,-0.4274 0.687774,-0.6596 0.455808,-0.6596 -0.05652,0 -0.426691,0.2778 -0.822612,0.6174 -0.39592,0.3395 -0.905046,0.7679 -1.13139,0.9518 -0.293754,0.2387 -0.630457,0.7834 -1.176462,1.903 -0.42071,0.8627 -0.764927,1.645 -0.764927,1.7385 0,0.1584 -0.137423,0.5304 -0.540371,1.4627 -0.177815,0.4114 -0.406453,0.9443 -0.706341,1.6463 -0.103608,0.2425 -0.22882,0.5468 -0.278248,0.6762 -0.04943,0.1293 -0.144707,0.3674 -0.211731,0.5291 -0.06703,0.1617 -0.238013,0.6115 -0.379976,0.9996 -0.141962,0.388 -0.302397,0.8114 -0.356523,0.9407 -0.221209,0.5287 -0.707899,2.1331 -0.92743,3.0574 -0.242471,1.0209 -0.495281,3.0138 -0.423673,3.3399 0.05133,0.2337 0.02348,0.3761 -0.08652,0.4426 -0.273448,0.1653 -0.734496,2.0089 -0.730305,2.9203 0.0033,0.7161 0.06661,0.9555 0.487066,1.8412 0.590837,1.2447 2.099946,3.5974 2.628094,4.0972 0.03417,0.032 0.245973,0.2968 0.470667,0.5876 0.224695,0.2908 0.495992,0.6348 0.602882,0.7643 0.10689,0.1296 0.619695,0.7676 1.139566,1.4178 1.232618,1.5417 3.361902,3.7753 3.826889,4.0143 0.334054,0.1717 2.511034,1.7795 2.869172,2.119 0.0832,0.079 0.308094,0.236 0.499768,0.3493 0.191675,0.1132 0.348499,0.2473 0.348499,0.2981 0,0.051 0.05798,0.092 0.128838,0.092 0.07086,0 0.285682,0.1117 0.47738,0.2482 0.191698,0.1365 0.993476,0.5761 1.78173,0.9769 1.38339,0.7034 1.688912,0.9775 1.405398,1.261 -0.06729,0.067 -0.64747,-0.1626 -1.510333,-0.5984 z m -46.360278,-7.3586 c 1.515051,-0.8435 4.813093,-2.4311 5.859673,-2.8207 0.291042,-0.1083 0.648229,-0.2449 0.79375,-0.3036 0.661819,-0.2668 0.826227,-0.3239 1.322917,-0.4597 0.291042,-0.08 0.661458,-0.1857 0.823148,-0.236 0.4904651,-0.1524 2.1998824,-0.4811 3.6453704,-0.701 2.4978665,-0.3799 4.5020089,-0.8166 5.82083324,-1.2682 1.54305166,-0.5285 3.64341276,-1.554 4.66306016,-2.2769 0.1716739,-0.1217 0.3701114,-0.2213 0.4409722,-0.2213 0.070861,0 0.1288379,-0.044 0.1288379,-0.099 0,-0.054 0.1214494,-0.1541 0.2698876,-0.2217 0.3090255,-0.1408 1.151698,-0.7419 2.3615786,-1.6844 2.0807521,-1.621 2.4256886,-1.8758 2.5392366,-1.8758 0.06653,0 0.1209639,-0.045 0.1209639,-0.1005 0,-0.1087 1.8594344,-1.078 2.0647934,-1.0764 0.386774,0 0.52836,-0.3573 0.92369,-2.3509 0.338718,-1.708 1.040607,-4.2102 1.467895,-5.2328 0.291222,-0.697 0.523561,-1.2711 0.701962,-1.7345 0.227542,-0.5911 0.679305,-1.6518 0.90149,-2.1167 0.085,-0.1778 0.128454,-0.3234 0.09656,-0.3234 -0.207713,0 -4.18875,3.0812 -4.862869,3.7637 -0.03234,0.033 -0.402755,0.3499 -0.823148,0.7049 -0.4203936,0.3549 -0.7908103,0.6742 -0.8231482,0.7096 -0.1450426,0.1586 -2.5705148,2.097 -2.9398148,2.3493 -0.2263657,0.1547 -0.4971559,0.3764 -0.601756,0.4927 -0.1046001,0.1162 -0.2368918,0.2114 -0.2939815,0.2116 -0.05709,10e-5 -0.2890079,0.1588 -0.5153736,0.3525 -0.2263657,0.1937 -0.4733102,0.3523 -0.5487654,0.3525 -0.075455,10e-5 -0.1548303,0.041 -0.1763889,0.09 -0.021559,0.049 -0.4096142,0.3224 -0.8623457,0.6067 -1.5499625,0.9732 -2.70075543,1.6783 -3.17300111,1.9441 -0.6461137,0.3636 -1.19756639,0.6792 -1.82468399,1.0442 -0.2910417,0.1694 -0.8202083,0.4522 -1.1759259,0.6284 -0.3557176,0.1763 -0.6732176,0.3539 -0.7055556,0.3946 -0.1029072,0.1297 -7.1582243,3.5781 -7.9375003,3.8795 -0.129351,0.05 -0.485962,0.2021 -0.792468,0.3379 -0.306506,0.1358 -0.611495,0.2469 -0.677753,0.2469 -0.06626,0 -0.212356,0.05 -0.324661,0.112 -0.885981,0.4862 -4.305811,1.2395 -5.07554,1.1181 -1.299804,-0.205 -2.675292,-0.5975 -3.771707,-1.0764 -0.994754,-0.4345 -3.421373,-1.6545 -4.174537,-2.0988 -1.646419,-0.9713 -2.970431,-1.7003 -3.08818,-1.7003 -0.143229,0 -0.263209,0.2786 -0.263209,0.6112 0,0.6647 2.790048,3.8407 4.880093,5.5552 1.032341,0.8468 2.881018,2.7359 2.881018,2.944 0,0.099 0.05292,0.1794 0.117593,0.1794 0.06468,0 0.117592,0.052 0.117592,0.1163 0,0.2734 1.317873,1.6476 1.580123,1.6476 0.09069,0 0.49986,-0.1865 0.909278,-0.4144 z m 71.899041,-6.3683 c 0.200149,-0.1824 0.67211,-0.7189 1.048804,-1.1921 0.376694,-0.4733 1.187983,-1.32 1.802864,-1.8815 1.739335,-1.5884 1.671887,-1.494 1.737799,-2.4321 0.03181,-0.4527 -0.0062,-1.6822 -0.08438,-2.7321 -0.117171,-1.5727 -0.167949,-1.8737 -0.288347,-1.7091 -0.132084,0.1807 -0.206676,0.1846 -0.775891,0.041 -0.584767,-0.1476 -0.925308,-0.279 -2.158461,-0.8324 -0.258704,-0.1161 -0.655579,-0.2748 -0.881945,-0.3527 -0.226365,-0.078 -0.530636,-0.1892 -0.676157,-0.2473 -0.145521,-0.058 -0.383646,-0.1527 -0.529167,-0.2102 -0.935558,-0.3694 -1.959091,-0.8316 -3.073551,-1.3881 l -1.280263,-0.6392 0.07468,0.5073 c 0.04108,0.2791 0.131113,0.7984 0.200082,1.1541 0.06897,0.3557 0.154041,1.5457 0.189049,2.6443 l 0.06365,1.9976 0.528613,0.5286 c 0.290737,0.2907 0.704479,0.7941 0.919426,1.1186 0.396903,0.5993 1.231784,2.3157 1.231784,2.5324 0,0.065 0.05292,0.2238 0.117592,0.3523 0.06468,0.1285 0.170509,0.3387 0.235185,0.4672 0.06468,0.1285 0.117593,0.3296 0.117593,0.4469 0,0.1172 0.04211,0.2635 0.09359,0.3249 0.09719,0.116 0.24316,0.5452 0.505077,1.4852 0.170381,0.6114 0.22823,0.6125 0.882371,0.016 z m -17.827678,-5.4763 c -0.0034,-0.3961 -0.376019,-1.2977 -0.753259,-1.8228 -0.231767,-0.3226 -0.421394,-0.6236 -0.421394,-0.6689 0,-0.045 -0.163295,-0.3197 -0.362877,-0.6098 -0.337539,-0.4906 -0.388282,-0.8673 -0.116833,-0.8673 0.11837,0 0.832488,0.9702 0.832488,1.131 0,0.1407 1.059754,1.4753 1.506338,1.8971 0.42129,0.3978 0.610328,0.4751 0.610328,0.2497 0,-0.1838 -0.633798,-1.413 -1.122398,-2.1768 -0.223468,-0.3493 -0.406306,-0.6582 -0.406306,-0.6865 0,-0.028 -0.158749,-0.3206 -0.352777,-0.6496 -0.342072,-0.5802 -0.456569,-1.0584 -0.253411,-1.0584 0.153017,0 0.399118,0.3317 0.95982,1.2935 0.665613,1.1419 1.518466,2.3231 1.738076,2.4074 0.446047,0.1712 -0.325266,-1.6936 -1.141678,-2.7601 l -0.495068,-0.6468 0.06316,-0.8819 c 0.09197,-1.2842 0.230556,-2.1197 0.356535,-2.1495 0.06067,-0.014 0.38974,0.3444 0.731271,0.7972 0.34153,0.4527 0.80783,1.0138 1.036222,1.2468 0.485395,0.4953 0.524089,0.6934 0.135434,0.6934 -0.285238,0 -0.945993,-0.6495 -1.341053,-1.3183 -0.286247,-0.4846 -0.432562,-0.3415 -0.47164,0.4611 -0.03161,0.6493 0.0044,0.7741 0.411574,1.4259 0.4458,0.7135 0.622609,0.8721 0.622609,0.5584 0,-0.1913 0.528476,-0.7135 1.292981,-1.2774 0.290746,-0.2145 0.541167,-0.4933 0.556491,-0.6196 0.01532,-0.1263 -0.0021,-0.1635 -0.03866,-0.083 -0.03659,0.081 -0.18591,0.147 -0.331829,0.147 -0.347663,0 -0.537734,-0.4262 -0.540043,-1.2109 -0.0012,-0.4128 -0.03655,-0.5569 -0.108631,-0.443 -0.13194,0.2085 -0.38595,0.03 -0.635865,-0.4458 -0.08977,-0.171 -0.385446,-0.7078 -0.657063,-1.1929 -0.468923,-0.8374 -0.737815,-1.3786 -2.687752,-5.4093 -2.47296,-5.1118 -2.764397,-5.8211 -3.796181,-9.2393 -0.141683,-0.4694 -0.139881,-3.0465 0.0025,-3.5783 0.06061,-0.2263 0.126458,-0.9329 0.146335,-1.5701 l 0.03614,-1.1586 -0.764684,-0.1944 c -0.887682,-0.2257 -1.413579,-0.5658 -1.888219,-1.221 -0.334587,-0.4619 -0.340304,-0.4644 -0.445773,-0.1904 -0.05876,0.1527 -0.193646,0.8332 -0.299743,1.5123 -0.106097,0.6791 -0.358356,1.8697 -0.560577,2.6458 -0.321792,1.2351 -0.369187,1.6166 -0.379802,3.0574 -0.0078,1.0612 0.04488,1.8553 0.148266,2.2343 0.512795,1.8798 1.303039,3.8126 2.524098,6.1736 0.45156,0.8731 0.878945,1.7062 0.949744,1.8512 0.0708,0.145 0.168414,0.2641 0.216921,0.2646 0.04851,5e-4 0.08819,0.056 0.08819,0.1238 0,0.068 0.256623,0.5041 0.570273,0.9701 0.853,1.2673 1.598638,2.6364 1.897973,3.4849 0.290936,0.8247 0.337278,2.1087 0.172753,4.7863 l -0.08044,1.3092 0.277821,-0.05 c 0.245391,-0.044 0.3295,0.057 0.720519,0.8663 0.243484,0.5038 0.601877,1.1805 0.796428,1.5039 0.194552,0.3233 0.389545,0.6673 0.433318,0.7643 0.190467,0.4222 0.622147,0.6475 0.61934,0.3234 z m -2.228257,-2.2547 c -0.196629,-0.3738 -0.357507,-0.7536 -0.357507,-0.844 0,-0.091 -0.05042,-0.1645 -0.112053,-0.1645 -0.209098,0 0.04255,1.6511 0.376375,2.4694 0.369013,0.9047 0.380618,0.9058 0.416564,0.04 0.0301,-0.7247 -0.0081,-0.9018 -0.323379,-1.5013 z m 7.575077,-1.0749 c 0.736262,-0.748 1.412808,-1.4716 1.503436,-1.6081 0.174632,-0.263 0.56118,-0.2256 0.55721,0.054 -0.0033,0.235 -0.556952,0.8919 -1.582106,1.8774 -1.002659,0.9639 -1.153496,1.3827 -0.213749,0.5935 0.877835,-0.7372 1.597038,-1.5607 1.916902,-2.195 0.277541,-0.5503 0.291694,-0.6749 0.273839,-2.4106 -0.01036,-1.0067 -0.0765,-1.9793 -0.146991,-2.1614 -0.152154,-0.393 -0.172814,-3.0519 -0.02599,-3.3453 0.881614,-1.762 0.819487,-1.6487 2.305242,-4.2023 0.564446,-0.9702 1.068257,-1.8169 1.119581,-1.8815 0.05132,-0.065 0.204788,-0.3161 0.341032,-0.5586 0.136244,-0.2425 0.363571,-0.6394 0.505172,-0.8819 0.660697,-1.1317 2.097841,-4.0804 2.478722,-5.0859 0.232746,-0.6144 0.692592,-1.9374 1.021879,-2.9398 0.329288,-1.0025 0.650309,-1.9146 0.71338,-2.0269 0.06307,-0.1123 0.114674,-0.285 0.114674,-0.3838 0,-0.099 0.04674,-0.2714 0.103873,-0.3838 0.109796,-0.2158 0.32998,-0.7331 0.499824,-1.1743 0.05602,-0.1455 0.147695,-0.3836 0.203718,-0.5292 0.05602,-0.1455 0.168936,-0.4233 0.250919,-0.6173 0.307304,-0.7273 0.346946,-0.8423 0.567455,-1.6463 0.195986,-0.7146 0.329713,-1.3084 0.567519,-2.5201 0.067,-0.3414 0.255999,-1.8207 0.399169,-3.1244 0.05682,-0.5174 0.158668,-1.2317 0.226323,-1.5875 0.201032,-1.0569 0.168083,-2.2565 -0.07606,-2.769 -0.377092,-0.7915 -0.899599,-0.9561 -3.509101,-1.1051 -2.088543,-0.1193 -3.203064,-0.2598 -3.760956,-0.4742 -0.694125,-0.2668 -1.408218,-0.6763 -1.929269,-1.1066 l -0.58552,-0.4835 -0.0039,-1.1759 c -0.0022,-0.6468 0.04481,-1.3861 0.104369,-1.643 0.05956,-0.2569 0.08508,-0.4903 0.05672,-0.5186 -0.02836,-0.028 -0.27679,0.056 -0.552066,0.1876 -0.911573,0.4356 -1.152778,0.5041 -1.77611,0.5041 -0.595676,0 -1.249818,-0.1997 -1.251716,-0.3822 -5.04e-4,-0.048 -0.08029,-0.088 -0.177306,-0.088 -0.09701,0 -0.176389,-0.053 -0.176389,-0.1176 0,-0.065 -0.05513,-0.1176 -0.12251,-0.1176 -0.06738,0 -0.236108,-0.1058 -0.374951,-0.2352 -0.379318,-0.3533 -0.532234,-0.2877 -0.615998,0.2646 -0.08543,0.5633 -0.151249,0.7482 -0.533677,1.4993 -0.148181,0.2911 -0.327674,0.6478 -0.398873,0.7929 -0.0712,0.145 -0.169142,0.264 -0.217649,0.2645 -0.04851,6e-4 -0.08819,0.056 -0.08819,0.1235 0,0.067 -0.105833,0.2361 -0.235185,0.3749 -0.129352,0.1389 -0.235185,0.3452 -0.235185,0.4585 0,0.1134 -0.05292,0.2388 -0.117593,0.2788 -0.06468,0.04 -0.117592,0.1913 -0.117592,0.3362 0,0.1449 -0.04545,0.3138 -0.101005,0.3752 -0.05555,0.062 -0.162804,0.5009 -0.238336,0.9766 -0.136458,0.8594 -0.11054,1.0775 0.236787,1.9923 0.0564,0.1486 0.102554,0.3785 0.102554,0.511 0,0.1325 0.09644,0.3814 0.214303,0.553 0.117867,0.1717 0.304387,0.5081 0.414489,0.7477 0.110101,0.2395 0.26676,0.5041 0.348131,0.5879 0.08137,0.084 0.277059,0.3377 0.434862,0.5641 0.157803,0.2263 0.387178,0.5174 0.509722,0.6467 0.271906,0.287 0.547937,0.9071 0.547937,1.231 0,0.195 -0.07621,0.2389 -0.414927,0.2389 -1.354511,0 -3.781741,-2.2457 -4.57548,-4.2333 -0.4647,-1.1637 -0.759898,-2.6729 -0.767459,-3.9237 -0.0041,-0.6703 -0.01244,-0.6882 -0.296113,-0.634 -0.160568,0.031 -0.570672,-0.021 -0.911342,-0.1147 -1.922952,-0.5292 -1.975215,-0.5379 -2.420198,-0.4028 -0.756973,0.2298 -1.384662,0.9485 -1.659676,1.9002 -0.0841,0.291 -0.195807,0.635 -0.24824,0.7644 -0.05243,0.1293 -0.128619,0.3939 -0.169305,0.5879 -0.04068,0.194 -0.125214,0.5909 -0.187842,0.882 -0.139618,0.6488 -0.306759,2.0702 -0.46323,3.9393 -0.06497,0.7761 -0.160084,1.7154 -0.211363,2.0873 -0.05128,0.3719 -0.06399,0.6736 -0.02824,0.6705 0.03575,0 0.262443,-0.2809 0.503771,-0.6174 0.241329,-0.3364 0.558862,-0.744 0.705631,-0.9057 0.926834,-1.021 1.342486,-1.6553 1.8639,-2.8443 0.318046,-0.7252 0.578265,-1.3345 0.578265,-1.3538 0,-0.019 0.105834,-0.035 0.235185,-0.035 0.330315,0 0.301314,0.2426 -0.176618,1.4773 -0.468265,1.2097 -0.875089,1.7951 -2.355493,3.3896 -0.0668,0.072 -0.249463,0.316 -0.405908,0.5424 -0.156445,0.2263 -0.3174,0.438 -0.357677,0.4703 -0.113266,0.091 -0.554931,0.9375 -0.81804,1.5679 -0.513985,1.2315 -0.225593,2.8235 0.681224,3.7606 0.719719,0.7437 1.509464,0.9749 2.679547,0.7845 0.565162,-0.092 1.875603,-0.618 2.046484,-0.8214 0.03234,-0.038 0.244004,-0.1986 0.47037,-0.3558 0.55701,-0.3867 0.821547,-0.6608 1.274065,-1.3198 0.398549,-0.5804 0.569062,-0.6777 0.680179,-0.3882 0.08332,0.2171 -0.637572,1.3085 -1.21643,1.8416 -0.910657,0.8387 -2.192793,1.5142 -3.148462,1.6589 -0.260479,0.039 -0.27235,0.1068 -0.528616,2.9988 -0.226048,2.5509 -0.124295,3.2604 0.839545,5.854 0.537563,1.4464 0.763482,1.9796 1.34579,3.176 0.220633,0.4533 0.401151,0.8899 0.401151,0.9701 0,0.08 0.05292,0.146 0.117593,0.146 0.06468,0 0.117593,0.066 0.117593,0.147 0,0.081 0.369583,0.8879 0.821295,1.7933 0.451713,0.9055 0.82213,1.7059 0.823148,1.7789 0.0038,0.2709 0.347404,0.4394 0.623223,0.3055 0.442652,-0.2148 0.921314,-0.292 2.142056,-0.3454 1.120903,-0.049 1.884664,0.069 2.258506,0.3501 0.07801,0.059 0.193165,0.075 0.255897,0.036 0.06273,-0.039 0.409194,-0.9826 0.769916,-2.0974 0.360723,-1.1148 0.708591,-2.1188 0.773039,-2.2311 0.06445,-0.1123 0.117179,-0.285 0.117179,-0.3838 0,-0.099 0.05292,-0.2847 0.117592,-0.4131 0.06468,-0.1285 0.17051,-0.3387 0.235186,-0.4672 0.06468,-0.1285 0.117592,-0.3296 0.117592,-0.4469 0,-0.1173 0.04211,-0.2635 0.09359,-0.325 0.05147,-0.061 0.160804,-0.3233 0.242958,-0.582 0.153417,-0.4831 0.228387,-0.6824 0.486603,-1.2936 0.165173,-0.3909 0.195242,-0.4675 0.645851,-1.6462 0.173071,-0.4528 0.386549,-0.9819 0.474396,-1.176 0.08785,-0.194 0.39822,-0.8895 0.689719,-1.5456 0.513075,-1.1547 1.63273,-3.3769 1.826255,-3.6245 0.05224,-0.067 0.128779,-0.3332 0.17009,-0.5919 0.04131,-0.2587 0.10732,-0.642 0.146689,-0.8517 l 0.07158,-0.3813 -0.539097,0.3014 c -0.436066,0.2437 -0.694997,0.3008 -1.354815,0.2987 -1.240675,0 -1.974182,-0.4354 -2.953816,-1.7374 -0.407608,-0.5418 -1.058333,-1.7607 -1.058333,-1.9825 0,-0.3536 0.371223,-0.1254 0.672577,0.4134 0.771726,1.3799 1.510009,2.1541 2.356033,2.4706 0.787114,0.2945 1.153132,0.2941 1.945295,0 0.831918,-0.3113 1.103225,-0.6214 1.182183,-1.3511 0.03499,-0.3234 0.119389,-0.8923 0.187559,-1.2642 0.06817,-0.3718 0.174787,-0.9539 0.236928,-1.2935 0.06214,-0.3395 0.170177,-0.9084 0.240083,-1.2641 0.294054,-1.4963 0.381033,-1.258 -0.883657,-2.4209 -1.17052,-1.0763 -1.519632,-1.5423 -1.396273,-1.8638 0.09888,-0.2576 0.190033,-0.231 0.458445,0.1339 0.128533,0.1748 0.520036,0.5849 0.870005,0.9114 0.349969,0.3265 0.779032,0.7391 0.953472,0.917 0.382905,0.3904 0.46809,0.4026 0.46809,0.067 0,-0.1409 0.05004,-0.4187 0.1112,-0.6174 0.06116,-0.1986 0.19722,-0.7609 0.302356,-1.2496 0.221334,-1.0289 0.35592,-1.3113 0.510619,-1.0716 0.05891,0.091 0.03435,0.4589 -0.05892,0.8819 -0.08797,0.399 -0.212359,0.9636 -0.276423,1.2546 -0.349941,1.5898 -0.759216,3.5884 -0.951151,4.6449 -0.0705,0.3881 -0.17635,0.9701 -0.23522,1.2935 -0.153056,0.8408 -0.324342,1.8803 -0.455344,2.7635 -0.06236,0.4203 -0.15053,1.0024 -0.195937,1.2935 -0.04541,0.291 -0.205498,0.7408 -0.355757,0.9995 -0.772996,1.3309 -2.506169,5.1313 -3.324917,7.2907 -0.147131,0.3881 -0.309929,0.8114 -0.361773,0.9408 -0.05184,0.1293 -0.157858,0.4204 -0.235588,0.6467 -0.170953,0.4979 -0.34438,0.9291 -0.48409,1.2038 -0.05713,0.1123 -0.103873,0.3076 -0.103873,0.434 0,0.1264 -0.05292,0.2626 -0.117593,0.3025 -0.06468,0.04 -0.117592,0.1913 -0.117592,0.3362 0,0.145 -0.04439,0.3138 -0.09864,0.3753 -0.05425,0.061 -0.430987,1.1353 -0.837193,2.3863 -0.636325,1.9599 -0.825729,2.4013 -1.368336,3.189 -0.34638,0.5028 -0.807195,1.2489 -1.024034,1.6579 -0.216839,0.409 -0.456284,0.7644 -0.5321,0.7896 -0.162018,0.054 -0.183481,-0.3575 -0.03397,-0.6514 0.05713,-0.1123 0.176193,-0.3629 0.264584,-0.5569 0.08839,-0.1941 0.412373,-0.7497 0.71996,-1.2348 0.497896,-0.7852 0.538381,-0.8973 0.369026,-1.0221 -0.292091,-0.2152 -1.379027,-0.3111 -2.536837,-0.2236 -1.270784,0.096 -1.658955,0.243 -1.555269,0.5892 0.09519,0.3179 1.5454,3.0908 1.828836,3.4969 0.119826,0.1717 0.217865,0.3766 0.217865,0.4554 0,0.2405 0.333248,-0.1012 0.375116,-0.3847 0.02005,-0.1357 0.105572,-0.2696 0.190045,-0.2974 0.117083,-0.039 0.147345,0.1224 0.127322,0.6772 -0.02562,0.7101 0.07748,0.9382 0.424646,0.9392 0.206051,6e-4 0.646759,-0.8031 0.646759,-1.1794 0,-0.3938 0.227325,-0.6988 0.520768,-0.6988 0.226328,0 0.227774,0.06 0.0188,0.7802 -0.0913,0.3147 -0.229109,0.9945 -0.306253,1.5108 -0.201348,1.3476 -0.448116,1.794 -1.292201,2.3374 -0.702567,0.4524 -0.868776,0.6632 -0.52277,0.6632 0.399259,0 1.447414,-0.753 2.816383,-2.0233 0.194027,-0.1801 0.445382,-0.3277 0.558564,-0.328 0.358862,-9e-4 0.229408,0.4401 -0.231087,0.7873 -0.240282,0.1811 -0.7345,0.6207 -1.098264,0.9768 -0.363764,0.3561 -0.855087,0.7518 -1.091829,0.8793 -0.301255,0.1622 -0.43044,0.312 -0.43044,0.499 0,0.147 0.06615,0.2668 0.146991,0.2663 0.189712,0 2.490731,-1.9652 2.754524,-2.3509 0.385678,-0.5639 0.726806,-0.5342 0.580041,0.051 -0.06831,0.2722 -0.370644,0.5932 -2.021199,2.146 -0.409037,0.3848 -0.782988,1.096 -0.576282,1.096 0.03597,0 0.667804,-0.6119 1.404065,-1.3599 z m -3.55814,-17.8312 c -0.236393,-0.2364 -0.176263,-0.8902 0.08963,-0.9746 0.317144,-0.1007 0.709998,0.1329 0.709998,0.422 0,0.5728 -0.460926,0.8913 -0.79963,0.5526 z m -8.50934,-10.882 c -0.217085,-0.049 -0.568808,-0.7036 -0.568808,-1.0591 0,-0.2881 0.35614,-0.6178 0.667424,-0.6178 0.314198,0 0.688364,0.3397 0.778957,0.7072 0.136939,0.5555 -0.345955,1.0891 -0.877573,0.9697 z m 16.839033,-0.7284 c -0.180743,-0.3377 -0.147411,-1.0947 0.06133,-1.3927 0.420134,-0.5998 1.345647,-0.031 1.345647,0.8276 0,0.6425 -1.123931,1.094 -1.406974,0.5651 z m 12.054119,27.3031 c -0.100467,-0.6651 -0.256969,-1.9224 -0.366181,-2.9417 -0.04342,-0.4052 -0.125443,-0.7655 -0.182271,-0.8006 -0.05683,-0.035 -0.103323,-0.2202 -0.103323,-0.4113 0,-0.1911 -0.04642,-0.4394 -0.103158,-0.5517 -0.171636,-0.3397 -0.367212,-1.0285 -0.367212,-1.2933 0,-0.1371 -0.04535,-0.2773 -0.100786,-0.3116 -0.05543,-0.034 -0.131031,-0.3553 -0.167999,-0.7135 -0.05798,-0.5618 -0.137005,-0.7256 -0.575372,-1.1929 -0.931763,-0.9932 -1.463004,-1.5106 -1.960766,-1.9096 -0.271358,-0.2176 -0.631433,-0.6311 -0.800167,-0.919 -0.262679,-0.4483 -0.297305,-0.6154 -0.240827,-1.1626 0.05761,-0.5583 0.03957,-0.6391 -0.142503,-0.6391 -0.32947,0 -0.636815,-0.4161 -0.553259,-0.749 0.06119,-0.2438 -0.05591,-0.4118 -0.761842,-1.0925 -0.458782,-0.4424 -1.100918,-1.1328 -1.42697,-1.5341 l -0.592822,-0.7297 -0.319681,0.6121 c -0.175825,0.3367 -0.520486,0.9825 -0.765913,1.4353 -0.245427,0.4527 -0.504346,0.9418 -0.575375,1.0868 -0.07103,0.145 -0.168832,0.2641 -0.217339,0.2646 -0.04851,5e-4 -0.08819,0.055 -0.08819,0.1205 0,0.066 -0.23104,0.5023 -0.513422,0.9701 -0.726622,1.2038 -2.160741,3.6722 -2.577922,4.4371 -0.19399,0.3558 -0.392843,0.6997 -0.441894,0.7644 -0.04905,0.065 -0.107577,0.2481 -0.130057,0.4076 -0.03452,0.2449 0.10536,0.3966 0.899869,0.9759 1.464598,1.0678 2.978203,2.0855 3.101893,2.0855 0.06177,0 0.129943,0.04 0.151502,0.088 0.105878,0.2382 2.892655,1.6342 4.625309,2.317 0.776111,0.3058 1.502997,0.6041 1.615302,0.6629 0.112305,0.059 0.26116,0.1069 0.330789,0.1069 0.112822,0 1.371048,0.5503 1.90347,0.8325 0.112306,0.059 0.439912,0.1082 0.728014,0.1082 0.288102,0 0.556527,0.053 0.596499,0.1176 0.157662,0.2551 0.203075,0.092 0.122608,-0.441 z m -2.533257,-11.9604 c 0,-0.3078 -0.491245,-0.6514 -0.93134,-0.6514 h -0.416623 l 0.585787,0.4051 c 0.661377,0.4574 0.762176,0.49 0.762176,0.2463 z m -31.071736,-1.5585 c -0.1767,-0.027 -0.4942,-0.027 -0.705555,0 -0.211355,0.026 -0.06678,0.048 0.321273,0.049 0.388056,6e-4 0.560983,-0.021 0.384282,-0.048 z m 15.232783,-20.9736 c -0.116839,-0.1987 -0.305039,-0.461 -0.418222,-0.583 -0.113183,-0.122 -0.205787,-0.2769 -0.205787,-0.3443 0,-0.067 -0.03969,-0.1229 -0.08819,-0.1234 -0.04851,-5e-4 -0.147163,-0.1196 -0.219236,-0.2646 -0.07207,-0.145 -0.303934,-0.6076 -0.515248,-1.028 -0.664459,-1.3219 -0.823618,-1.9063 -0.823618,-3.0241 0,-1.1463 0.271605,-1.9339 1.228019,-3.5611 0.171059,-0.2911 0.341322,-0.6218 0.378362,-0.735 0.03704,-0.1132 0.114091,-0.2058 0.171223,-0.2058 0.05713,0 0.103878,-0.069 0.103878,-0.1543 0,-0.085 0.105833,-0.3733 0.235185,-0.641 0.129352,-0.2678 0.235185,-0.5927 0.235185,-0.7222 0,-0.1294 0.06201,-0.3714 0.137809,-0.5377 0.122956,-0.2699 0.09945,-0.3434 -0.218138,-0.6817 -0.487685,-0.5196 -1.095597,-1.4412 -1.095597,-1.6609 0,-0.1083 -0.06728,-0.1551 -0.167635,-0.1166 -0.100691,0.039 -0.252937,-0.069 -0.381239,-0.2682 -0.117482,-0.183 -0.299513,-0.4276 -0.404514,-0.5436 -0.184046,-0.2034 -0.531588,-0.87 -0.784933,-1.5056 -0.213344,-0.5352 -0.285684,-1.5645 -0.158361,-2.2532 0.337962,-1.8282 1.10525,-2.6203 3.843266,-3.9673 1.877532,-0.9238 2.348284,-1.0536 2.265708,-0.6248 -0.03912,0.2031 -0.588366,0.5082 -2.818416,1.5656 -0.968131,0.459 -1.363019,0.7195 -1.741848,1.1491 -0.679279,0.7702 -0.667172,0.7513 -0.889954,1.3924 -0.282623,0.8133 -0.267285,1.973 0.03481,2.6321 l 0.242559,0.5291 0.0099,-0.972 c 0.0055,-0.5345 0.07605,-1.1945 0.156899,-1.4666 0.16191,-0.5448 1.105451,-1.5935 1.646297,-1.8298 0.895644,-0.3913 1.410224,-0.5332 2.675231,-0.7379 2.224872,-0.36 3.252799,-0.798 3.712093,-1.5818 0.280175,-0.478 0.301099,-0.6157 0.294614,-1.9378 -0.0038,-0.7827 -0.05707,-1.5167 -0.118281,-1.6311 -0.166568,-0.3113 -1.630058,-0.635 -3.135312,-0.6937 -1.075531,-0.042 -1.464404,-0.01 -2.21347,0.1985 -2.428905,0.6664 -3.889165,2.0597 -4.878739,4.655 -0.14796,0.3881 -0.310744,0.8114 -0.361743,0.9408 -0.653748,1.6581 -0.698422,4.1498 -0.114901,6.4088 0.24537,0.9498 0.31375,2.4913 0.200838,4.5273 -0.116181,2.0949 -0.04452,4.3763 0.162535,5.174 0.672693,2.592 1.350206,3.8329 2.64881,4.8517 0.493876,0.3874 1.147298,0.7209 1.428954,0.7294 0.11308,0 0.09756,-0.091 -0.0588,-0.3567 z m 12.899139,-7.5375 c 0,-0.8147 -0.03145,-0.9075 -0.926575,-2.7341 -0.509616,-1.0399 -0.95213,-1.9701 -0.983365,-2.0671 -0.03428,-0.1065 -0.188336,0.1032 -0.388681,0.5292 -0.685992,1.4583 -1.640555,2.6211 -2.792481,3.4018 -0.755959,0.5122 -0.994504,0.3362 -0.593946,-0.4384 0.149952,-0.29 0.207625,-0.8281 0.251447,-2.346 0.03128,-1.0834 0.01953,-1.9698 -0.0261,-1.9698 -0.04563,0 -0.402613,0.3308 -0.793297,0.735 -0.703289,0.7277 -0.71131,0.7437 -0.808901,1.6169 -0.05421,0.4851 -0.101422,1.2039 -0.104909,1.5973 l -0.0063,0.7154 0.723008,0.5347 c 1.174575,0.8687 2.590006,1.2266 4.950834,1.2521 l 1.499306,0.016 z m -4.841691,-1.9842 c 0.201878,-0.2167 0.602169,-0.9622 0.849582,-1.5823 0.221818,-0.5559 0.270907,-1.0667 0.312261,-3.2488 0.03783,-1.9962 0.01928,-2.3175 -0.13728,-2.3776 -0.137405,-0.053 -0.18102,0.013 -0.18102,0.2727 0,0.1882 -0.05292,0.3748 -0.117593,0.4148 -0.06468,0.04 -0.117593,0.1617 -0.117593,0.2705 0,0.1088 -0.198437,0.5952 -0.440972,1.0808 l -0.440972,0.883 v 2.2634 c 0,1.2449 0.01117,2.2636 0.02482,2.2637 0.01365,10e-5 0.125596,-0.108 0.24877,-0.2402 z m -4.306831,-1.915 c 0.304077,-0.08 0.590709,-0.1837 0.63696,-0.23 0.04625,-0.046 0.158343,-0.084 0.249094,-0.084 0.382687,0 1.760905,-1.1607 2.443648,-2.0579 0.368842,-0.4847 0.925239,-1.4872 1.386597,-2.4984 0.174413,-0.3822 0.149735,-2.9347 -0.03383,-3.4988 -0.264496,-0.8129 -0.620449,-1.5038 -1.166233,-2.2637 -0.502315,-0.6993 -0.717717,-0.8832 -0.717717,-0.6126 0,0.2466 -0.534504,0.835 -1.071755,1.1798 -0.77887,0.4998 -1.236793,0.6289 -3.279171,0.9249 -1.452963,0.2105 -2.418906,0.5971 -3.064267,1.2265 -0.344445,0.3359 -0.345918,0.3433 -0.345918,1.7328 0,1.5836 0.128241,2.2864 0.60931,3.3391 0.388555,0.8503 1.540411,1.9376 2.882713,2.7212 0.51966,0.3033 0.718164,0.3197 1.470566,0.1211 z m 0.211485,-1.0344 c -0.16169,-0.065 -0.465961,-0.085 -0.676158,-0.046 -0.331427,0.062 -0.382176,0.039 -0.382176,-0.1728 0,-0.1343 -0.0926,-0.277 -0.205787,-0.3171 -0.292265,-0.1037 -0.617361,-0.4018 -0.617361,-0.5662 0,-0.077 0.251354,-0.2663 0.558565,-0.4211 0.307211,-0.1548 0.597442,-0.3351 0.644959,-0.4007 0.18228,-0.2514 0.08105,-0.4132 -0.258646,-0.4132 -0.607575,0 -0.75333,-0.6519 -0.247994,-1.1092 0.17024,-0.1541 0.24132,-0.1659 0.311799,-0.052 0.05178,0.084 0.03138,0.1677 -0.04712,0.1939 -0.07613,0.025 -0.134235,0.1872 -0.129129,0.3597 0.0051,0.1725 0.03597,0.2474 0.0686,0.1666 0.07494,-0.1858 0.419575,-0.1905 0.601781,-0.01 0.106585,0.1066 0.206483,0.1025 0.431084,-0.018 0.244998,-0.1311 0.324177,-0.1301 0.488854,0.01 0.178731,0.1483 0.191865,0.1234 0.145214,-0.2762 -0.05266,-0.4511 0.156834,-0.6277 0.300477,-0.2534 0.181892,0.474 -0.107483,0.9899 -0.555243,0.9899 -0.395607,0 -0.224156,0.5154 0.273842,0.8232 0.258704,0.1599 0.470371,0.323 0.470371,0.3625 0,0.1336 -0.410094,0.5352 -0.629834,0.6169 -0.164008,0.061 -0.199988,0.1539 -0.144751,0.374 0.0802,0.3195 0.03842,0.3362 -0.401341,0.1605 z m 0.170856,-0.7096 c 0.472937,-0.2155 0.358153,-0.2762 -0.494356,-0.2613 -1.057795,0.019 -1.074154,0.023 -0.734834,0.2115 0.371499,0.2062 0.843942,0.2253 1.22919,0.05 z m 0.123125,-0.6867 c -0.03997,-0.065 -0.304555,-0.1176 -0.587963,-0.1176 -0.283407,0 -0.547991,0.053 -0.587963,0.1176 -0.04516,0.073 0.177481,0.1176 0.587963,0.1176 0.410482,0 0.63312,-0.045 0.587963,-0.1176 z m -0.47037,-0.4704 c 0.03997,-0.065 0.01664,-0.1176 -0.05186,-0.1176 -0.06849,0 -0.124532,0.053 -0.124532,0.1176 0,0.065 0.02334,0.1176 0.05186,0.1176 0.02852,0 0.08456,-0.053 0.124532,-0.1176 z m -2.851621,-3.204 c -0.259684,-0.083 -0.382175,-0.1966 -0.382175,-0.3534 0,-0.1758 0.049,-0.2092 0.205787,-0.1403 0.39695,0.1744 1.122463,0.1961 1.573896,0.047 0.250659,-0.083 0.488239,-0.1179 0.527955,-0.078 0.193378,0.1934 -0.772726,0.6848 -1.296251,0.6594 -0.135869,-0.01 -0.419015,-0.067 -0.629212,-0.1346 z m 4.350926,-0.087 c -0.652008,-0.3975 -0.407933,-0.655 0.28054,-0.296 0.396222,0.2067 0.730678,0.2228 1.168623,0.056 0.432116,-0.1642 0.523146,-0.03 0.165979,0.2439 -0.384879,0.2958 -1.126458,0.2939 -1.615142,0 z m 1.381713,-0.8511 c -0.327081,-0.1725 -0.552661,-0.2015 -1.098825,-0.1412 -0.627602,0.069 -0.683629,0.057 -0.645512,-0.1427 0.03532,-0.185 0.17208,-0.2239 0.889424,-0.2531 0.877263,-0.036 1.442876,0.1648 1.442876,0.5115 0,0.2506 -0.149111,0.2571 -0.587963,0.026 z m -6.305815,-0.1146 c -0.101289,-0.1639 0.116347,-0.3452 0.628195,-0.5235 0.581142,-0.2023 1.004224,-0.198 1.515323,0.015 0.63544,0.2656 0.396766,0.4585 -0.469709,0.3797 -0.453653,-0.041 -0.881481,-0.01 -1.160768,0.089 -0.278232,0.097 -0.46855,0.1116 -0.513041,0.04 z m -1.956428,1.0566 c -0.02383,-0.3418 -0.04358,-0.092 -0.04388,0.5546 -3.06e-4,0.6467 0.01919,0.9263 0.04333,0.6213 0.02413,-0.3051 0.02438,-0.8342 5.56e-4,-1.1759 z m -17.927271,54.7648 c 8.82e-4,-0.3234 0.02372,-0.4417 0.05075,-0.263 0.02703,0.1788 0.02631,0.4433 -0.0016,0.588 -0.02791,0.1446 -0.05003,0 -0.04914,-0.325 z m 0.459661,-5.5269 c 0.0024,-0.194 0.02875,-0.2591 0.05857,-0.1447 0.02981,0.1144 0.02785,0.2731 -0.0044,0.3527 -0.03221,0.08 -0.0566,-0.014 -0.05421,-0.208 z"
       id="path56" /></g></svg>
