<?xml version="1.0" encoding="UTF-8" standalone="no"?>
<!-- Created with Inkscape (http://www.inkscape.org/) -->

<svg
   width="183.56589mm"
   height="100.25863mm"
   viewBox="0 0 183.56589 100.25863"
   version="1.1"
   id="svg1"
   xml:space="preserve"
   xmlns="http://www.w3.org/2000/svg"
   xmlns:svg="http://www.w3.org/2000/svg"><defs
     id="defs1" /><g
     id="layer1"
     transform="translate(258.44559,-169.54845)"><path
       style="fill:#4d4d4d"
       d="m -99.743348,269.1405 c -0.701702,-0.65031 -0.776512,-0.66247 -2.109182,-0.34277 -0.75993,0.18231 -1.72102,0.24938 -2.13576,0.14905 -0.41475,-0.10033 -1.23034,-0.27513 -1.81242,-0.38843 -1.3158,-0.25614 -6.56499,-2.1741 -8.13235,-2.97142 -0.25268,-0.12854 -0.63964,-0.23371 -0.85989,-0.23371 -0.22026,0 -0.60883,-0.20836 -0.86349,-0.46302 -0.25466,-0.25467 -0.75716,-0.46303 -1.11666,-0.46303 -0.89152,0 -1.32201,-0.94666 -1.32683,-2.91771 -0.003,-1.26504 0.16233,-1.91519 0.80003,-3.1443 l 0.80393,-1.54951 -2.0607,0.16103 c -5.83157,0.45567 -39.80008,0.83342 -75.0506,0.8346 l -39.12323,10e-4 0.1738,2.14173 c 0.13701,1.68828 0.0942,2.20779 -0.2022,2.45378 -0.26471,0.21969 -1.72991,0.29058 -4.95072,0.23952 l -4.57474,-0.0725 -0.32928,-1.5875 c -0.1811,-0.87312 -0.41451,-2.84846 -0.51869,-4.38963 l -0.1894,-2.80213 -1.88324,-1.99315 c -4.0684,-4.30584 -4.954,-5.3156 -5.36719,-6.11968 -0.47776,-0.92977 -1.11999,-1.80415 -2.41033,-3.28161 -1.10238,-1.26226 -2.94079,-5.03661 -3.23505,-6.64174 -0.12406,-0.67671 -0.36076,-1.70664 -0.52599,-2.28872 -2.27815,-8.02558 -2.26905,-16.43985 0.0251,-23.16866 0.27618,-0.81005 0.50215,-1.62423 0.50215,-1.80929 0,-0.18506 0.35718,-1.10817 0.79375,-2.05137 0.43656,-0.94319 0.79375,-1.76521 0.79375,-1.82671 0,-0.11212 0.90144,-1.20944 1.52135,-1.85194 0.1819,-0.18853 0.33073,-0.4125 0.33073,-0.49771 0,-0.0852 0.52504,-0.79954 1.16676,-1.5874 0.64173,-0.78786 1.24506,-1.67915 1.34075,-1.98064 0.0957,-0.30149 0.35024,-0.54816 0.56566,-0.54816 0.21542,0 0.65388,-0.27022 0.97436,-0.6005 0.32047,-0.33028 1.15426,-1.01489 1.85286,-1.52135 0.69861,-0.50647 1.59604,-1.23214 1.9943,-1.61259 0.94965,-0.90718 2.23217,-1.55723 3.07238,-1.55723 0.37103,0 0.6746,-0.0908 0.6746,-0.20184 0,-0.11101 0.22048,-0.31937 0.48996,-0.46302 2.24879,-1.19874 3.66196,-1.87865 5.59545,-2.69209 3.90466,-1.64274 5.25972,-1.89664 10.34847,-1.93904 7.07873,-0.059 8.96612,-0.004 8.96612,0.25925 0,0.1532 -2.34922,0.29055 -5.88698,0.3442 -5.43072,0.0824 -6.08179,0.14423 -8.40052,0.79827 l -2.51355,0.70899 2.64584,-0.12516 c 4.30299,-0.20356 9.45797,0.57721 12.4754,1.88951 0.45855,0.19943 1.00029,0.3626 1.20385,0.3626 0.20357,0 0.48323,0.0984 0.62148,0.21858 0.13824,0.12022 0.78713,0.37156 1.44198,0.55853 2.667,0.76151 9.1021,4.3928 9.4809,5.35002 0.10919,0.27593 0.84005,0.29739 0.83196,0.0244 -0.0176,-0.59242 -3.51571,-3.67298 -5.0212,-4.42179 -1.19718,-0.59547 -3.13985,-2.71376 -3.34553,-3.648 -0.0881,-0.40018 -0.32627,-0.7276 -0.52926,-0.7276 -0.59918,0 -2.42224,-1.26307 -2.56342,-1.77601 -0.0716,-0.26012 -0.20549,-0.91943 -0.29755,-1.46514 -0.13604,-0.80642 -0.0873,-0.99219 0.26038,-0.99219 0.35462,0 0.36798,-0.0599 0.0781,-0.35031 -0.19229,-0.19267 -0.64076,-0.97276 -0.9966,-1.73354 l -0.64698,-1.38323 0.46642,-1.77219 c 0.25653,-0.9747 0.72952,-2.1889 1.0511,-2.69823 0.98197,-1.55528 1.23165,-2.08774 1.23165,-2.62662 0,-0.71583 0.39843,-0.89307 0.82991,-0.36917 0.31626,0.384 0.37701,0.26165 0.493,-0.99281 0.10336,-1.11787 0.23881,-1.45099 0.61934,-1.52323 0.26788,-0.0509 0.71162,-0.31704 0.98609,-0.59151 1.25977,-1.25977 4.15761,-1.75044 5.42673,-0.91888 0.38029,0.24917 0.88838,0.80668 1.12911,1.23891 0.42879,0.76988 0.47608,0.78438 2.32486,0.71288 1.30149,-0.0503 2.02278,0.0396 2.32413,0.28964 0.3509,0.29123 0.55549,0.2992 1.03888,0.0405 0.33107,-0.17718 1.12563,-0.28443 1.76569,-0.23832 1.04162,0.075 1.21842,0.18795 1.68457,1.07601 0.40627,0.77396 0.67837,0.99219 1.23714,0.99219 0.50406,0 0.75917,0.16384 0.86091,0.55289 0.1081,0.41335 0.2794,0.5101 0.67878,0.38334 0.34042,-0.10805 0.71335,0.003 1.02806,0.307 0.94031,0.90737 2.05679,1.3347 4.29571,1.64418 1.23693,0.17097 2.59996,0.36689 3.02895,0.43538 0.98074,0.15656 2.85101,-0.42093 5.57001,-1.71989 4.48417,-2.14224 5.32287,-2.39312 8.00724,-2.39518 1.057,-8.1e-4 2.1377,-0.13629 2.40155,-0.30107 0.39136,-0.24441 0.90377,-0.0925 2.78131,0.82482 1.26585,0.61844 2.44734,1.32623 2.62552,1.57287 0.60655,0.83959 1.9088,1.55213 3.10231,1.69746 0.65497,0.0798 1.72654,0.43358 2.38125,0.78627 0.65472,0.3527 1.6041,0.86506 2.10973,1.13858 0.97398,0.52688 2.37464,1.90563 2.38671,2.34939 0.004,0.14552 1.04765,0.97896 2.31933,1.85208 1.27167,0.87313 2.84791,2.07213 3.50276,2.66445 0.65484,0.59231 1.57045,1.33949 2.03468,1.66038 0.94027,0.64995 3.25699,3.96417 3.25699,4.65934 0,0.41415 0.58358,1.20229 0.89024,1.20229 0.0739,0 0.6354,-0.71437 1.24786,-1.5875 0.61246,-0.87312 1.18561,-1.59012 1.27367,-1.59332 0.0881,-0.003 0.50505,-0.50921 0.92666,-1.12447 0.4216,-0.61527 1.64858,-1.89257 2.7266,-2.83846 1.07803,-0.94588 2.55672,-2.28534 3.28598,-2.97656 0.72926,-0.69123 1.48808,-1.25677 1.68626,-1.25677 0.19819,0 0.51768,-0.15046 0.70997,-0.33434 1.22429,-1.17077 6.75915,-4.42175 7.54314,-4.43058 0.11815,-0.001 0.81014,-0.29526 1.53774,-0.65319 1.33086,-0.65467 2.63025,-0.85605 2.88315,-0.44684 0.0749,0.12126 0.50035,0.16703 0.94535,0.10172 1.25145,-0.18367 4.32675,1.12689 5.5762,2.37634 1.40295,1.40295 1.32057,5.10269 -0.18236,8.1909 -0.70306,1.44461 -0.88796,2.15176 -0.88796,3.39582 0,0.86419 -0.163,2.08143 -0.36222,2.70498 -0.19922,0.62355 -0.57437,1.8481 -0.83366,2.72123 -0.2593,0.87312 -0.73914,2.18281 -1.06632,2.91042 -0.32718,0.7276 -0.74991,1.85869 -0.93939,2.51354 -0.18949,0.65484 -0.42129,1.25015 -0.51511,1.32291 -0.0938,0.0728 -0.24671,0.44377 -0.33976,0.82446 -0.15967,0.6533 -0.1028,0.70127 1.01253,0.85414 1.14473,0.15691 3.03399,1.13951 3.04065,1.58145 0.002,0.11953 0.17868,0.39274 0.39307,0.60713 0.21439,0.21439 0.52401,0.89049 0.68804,1.50246 0.65393,2.43962 0.45309,2.30328 3.39309,2.30328 h 2.63018 l 1.49183,1.36345 c 1.56861,1.43362 2.51957,2.94834 2.51957,4.01328 0,0.53538 0.10428,0.61537 0.662974,0.50857 0.364639,-0.0697 0.811123,-0.0104 0.992188,0.13175 0.181065,0.14217 0.699332,0.32843 1.151706,0.41392 1.315834,0.24865 4.283629,1.70641 4.572357,2.2459 0.145445,0.27177 1.312822,1.13281 2.594171,1.91343 1.281348,0.78062 2.522284,1.63418 2.757634,1.89679 0.23535,0.26262 0.511646,0.47749 0.61399,0.47749 0.102345,0 0.743223,0.4529 1.424174,1.00645 0.680951,0.55354 1.53575,1.15425 1.899552,1.3349 0.363802,0.18066 0.915355,0.68865 1.225673,1.12887 0.310318,0.44023 0.986137,1.29804 1.50182,1.90624 0.515682,0.60821 1.434193,1.69197 2.041134,2.40835 0.969004,1.14373 1.705907,2.45581 2.389025,4.25374 0.405203,1.06646 1.044431,3.7571 1.044431,4.39621 0,0.36153 0.105497,0.77044 0.234439,0.90868 0.128941,0.13825 0.363699,1.56104 0.521684,3.16177 0.299686,3.03647 0.08759,6.03163 -0.521837,7.36917 -0.244156,0.53586 -0.247018,0.8591 -0.01217,1.37453 0.36771,0.80704 0.400985,1.88264 0.06467,2.0905 -0.13331,0.0824 -0.493873,-0.65473 -0.80125,-1.63803 -0.307378,-0.98331 -0.674556,-2.15348 -0.815952,-2.60037 -0.141396,-0.44689 -0.257083,-1.06232 -0.257083,-1.36762 0,-0.48768 -0.690536,-2.084 -1.059753,-2.44985 -0.07354,-0.0729 -0.490259,-0.8271 -0.926041,-1.67606 -0.435782,-0.84896 -1.353578,-2.20794 -2.039546,-3.01996 -0.685969,-0.81201 -1.449189,-1.90201 -1.696046,-2.42223 -0.411598,-0.86737 -1.564577,-2.08634 -5.034709,-5.32285 -0.705346,-0.65786 -1.818228,-1.42848 -2.473072,-1.71249 -0.654843,-0.28401 -1.250156,-0.59359 -1.322916,-0.68795 -0.07276,-0.0944 -0.549011,-0.23162 -1.058334,-0.30503 -1.584689,-0.22839 -4.076419,-0.76506 -4.630208,-0.99727 -0.291042,-0.12203 -1.064948,-0.28226 -1.719792,-0.35606 -0.654843,-0.0738 -1.518043,-0.20388 -1.918233,-0.28908 -0.57843,-0.12315 -0.72714,-0.0589 -0.72538,0.31329 0.002,0.49124 -0.67286,3.58902 -1.08836,4.99338 -0.1336,0.45155 -0.42612,2.11843 -0.65005,3.70416 -0.22393,1.58574 -0.51421,3.12128 -0.64507,3.41232 -0.44294,0.98515 -1.05832,3.05837 -1.05832,3.56551 0,0.27737 -0.10591,0.56976 -0.23535,0.64976 -0.40789,0.25208 -0.61547,2.00524 -0.73432,6.20166 l -0.11518,4.06692 1.27003,-0.23046 c 1.51413,-0.27477 15.26621,-0.25238 18.011074,0.0293 2.314159,0.23749 2.705826,0.62969 2.705826,2.7095 v 1.39633 h 3.699126 c 4.160593,0 3.710076,0.24622 4.115091,-2.24896 0.447491,-2.75686 1.60962,-3.85244 1.333106,-1.25677 -0.08914,0.83675 -0.229489,2.19991 -0.311893,3.02926 -0.0824,0.82934 -0.304043,1.63588 -0.492532,1.79232 -0.223202,0.18524 -1.945163,0.25913 -4.938115,0.21189 l -4.595408,-0.0725 -0.07726,-2.20822 -0.07726,-2.20822 -3.097744,0.20726 c -3.851163,0.25766 -7.464979,0.2609 -12.755031,0.0114 l -4.10105,-0.19339 0.99219,0.54824 c 0.5457,0.30153 0.99219,0.69443 0.99219,0.8731 0,0.31968 1.20928,1.00874 3.32411,1.89411 0.591336,0.24756 1.292623,0.73969 1.558417,1.09362 0.289699,0.38577 0.752323,0.64352 1.15502,0.64352 0.369467,0 1.037399,0.11138 1.484293,0.24751 0.446894,0.13613 1.299137,0.37322 1.893873,0.52686 1.125305,0.29071 1.887176,0.84709 2.386604,1.7429 0.161118,0.28899 0.518306,0.56802 0.79375,0.62006 1.320772,0.24953 1.512335,1.20294 0.454287,2.26099 -0.696644,0.69664 -1.604286,0.82487 -1.474834,0.20836 0.03638,-0.17326 -0.05292,-0.31501 -0.198437,-0.31501 -0.145521,0 -0.264583,0.28491 -0.264583,0.63315 0,0.66975 -0.435756,0.95435 -1.461233,0.95435 -0.343312,0 -0.690582,0.1074 -0.771711,0.23867 -0.08113,0.13127 -1.032108,0.24214 -2.113287,0.24638 -1.745766,0.007 -2.047205,-0.0678 -2.693283,-0.66652 z m 0.954097,-1.40603 c -0.296957,-0.58209 -0.709069,-1.05834 -0.915804,-1.05834 -0.454185,0 -0.761185,-0.43489 -0.549175,-0.77794 0.24173,-0.39113 1.700826,0.22987 2.043192,0.86959 0.724055,1.35291 2.596787,2.62249 2.596787,1.76044 0,-0.14552 -0.112331,-0.26459 -0.249625,-0.26459 -0.137293,0 -0.46369,-0.36238 -0.725326,-0.8053 -0.261636,-0.44291 -0.881182,-1.04453 -1.376768,-1.33694 -0.628032,-0.37054 -0.817074,-0.61563 -0.623876,-0.80883 0.456225,-0.45622 2.118135,0.31114 2.780235,1.28374 0.325729,0.47848 0.673027,0.87078 0.771774,0.87177 0.09875,10e-4 0.372306,0.19458 0.607911,0.43019 0.753045,0.75304 0.726838,0.19185 -0.04298,-0.92028 -0.409461,-0.59153 -0.923068,-1.08382 -1.141349,-1.09397 -0.419192,-0.0195 -1.322917,-0.61595 -1.322917,-0.87312 0,-0.0834 0.301358,-0.18937 0.669684,-0.23541 0.923194,-0.11541 0.909117,-0.56559 -0.02634,-0.84245 -0.426598,-0.12626 -0.982376,-0.33462 -1.235063,-0.46302 -0.252687,-0.1284 -0.690036,-0.23346 -0.971887,-0.23346 -0.281851,0 -0.866201,-0.29766 -1.298555,-0.66146 -0.432357,-0.3638 -0.917737,-0.66146 -1.078637,-0.66146 -0.16089,0 -0.29253,-0.11906 -0.29253,-0.26458 0,-0.14552 -0.18999,-0.26458 -0.4222,-0.26458 -0.61683,0 -2.01061,-0.82942 -2.62051,-1.55942 -0.29104,-0.34835 -0.96497,-1.0422 -1.49762,-1.54189 -0.58213,-0.54611 -1.13623,-1.42149 -1.38906,-2.19447 -0.56265,-1.72021 -0.57114,-6.90036 -0.0147,-8.951 0.8703,-3.20713 0.99422,-3.65513 1.3652,-4.93551 0.21082,-0.72761 0.48649,-1.56105 0.61259,-1.85209 0.26252,-0.60586 0.44067,-1.71201 0.78833,-4.89479 0.13511,-1.23693 0.36964,-2.75497 0.52117,-3.37344 0.3947,-1.6109 0.75698,-3.23085 0.96153,-4.29948 0.0975,-0.50932 0.44826,-1.52135 0.77948,-2.24895 0.84888,-1.86472 1.00565,-3.35358 0.67078,-6.37057 -0.44811,-4.03717 -0.89099,-5.2116 -2.58616,-6.85793 l -0.8576,-0.83289 -7.3499,-0.31469 c -9.04336,-0.3872 -17.53744,-0.45623 -17.764,-0.14437 -0.36807,0.50663 -2.23261,1.15899 -3.31256,1.15899 -1.00866,0 -2.8098,0.61537 -2.8098,0.95998 0,0.0701 0.65484,0.41707 1.45521,0.77103 1.59051,0.70341 1.95765,1.50341 0.85989,1.87374 -0.81077,0.27351 -1.49092,0.15113 -2.53813,-0.45671 -0.77306,-0.44871 -1.33011,-0.50551 -4.42211,-0.4509 -3.24657,0.0573 -3.60019,0.0162 -4.29798,-0.49966 -0.44289,-0.32745 -0.89799,-0.47708 -1.09003,-0.35839 -0.18134,0.11207 -1.14746,0.14525 -2.14695,0.0737 -1.26989,-0.0909 -2.21462,-5e-5 -3.13652,0.30149 -0.7256,0.23733 -1.50526,0.43151 -1.73258,0.43151 -0.22731,0 -0.4133,0.11906 -0.4133,0.26458 0,0.14552 -0.13005,0.26459 -0.289,0.26459 -0.15895,0 -0.58966,0.2365 -0.95714,0.52556 -0.64459,0.50704 -1.13511,0.50284 -1.13511,-0.01 0,-0.13567 0.37484,-0.60489 0.83299,-1.04272 l 0.83299,-0.79605 h -1.35375 c -1.26606,0 -1.44218,-0.0857 -2.71908,-1.32292 -0.75094,-0.7276 -1.42539,-1.32291 -1.49877,-1.32291 -0.0734,0 -1.08078,0.7739 -2.23864,1.71979 -1.15787,0.94588 -2.25631,1.71979 -2.44099,1.71979 -0.18468,0 -2.12429,0.89297 -4.31025,1.98438 -2.18596,1.0914 -4.16029,1.98437 -4.38741,1.98437 -0.22712,0 -0.48653,0.11906 -0.57647,0.26458 -0.0899,0.14552 -0.46541,0.26459 -0.83439,0.26459 -0.62713,0 -0.59592,0.0605 0.47863,0.92792 1.56709,1.26499 1.54992,1.25314 2.67087,1.84422 0.5457,0.28776 0.99219,0.61518 0.99219,0.72761 0,0.11243 0.127,0.20441 0.28223,0.20441 0.15523,0 0.67249,0.29766 1.14946,0.66146 0.47696,0.3638 0.99119,0.66146 1.14272,0.66146 0.15153,0 0.61655,0.17786 1.03336,0.39525 0.41682,0.21738 0.97868,0.39597 1.24859,0.39687 0.43673,0.001 1.56817,0.50982 3.61403,1.62381 1.1187,0.60914 2.46288,1.59153 3.44246,2.51592 0.65785,0.62078 1.35947,0.96723 2.38125,1.17581 0.79673,0.16264 1.92485,0.4102 2.50694,0.55013 3.94672,0.94876 9.54236,0.94172 12.0348,-0.0151 0.79831,-0.30648 1.75081,-0.55846 2.11667,-0.55997 0.36585,-10e-4 1.20097,-0.29065 1.85582,-0.64254 3.21539,-1.72788 3.0894,-1.69741 5.95312,-1.43992 1.45521,0.13084 3.59833,0.16926 4.7625,0.0854 2.17481,-0.15669 5.35092,-0.79846 5.82083,-1.17616 0.64064,-0.51492 2.90114,-1.58652 3.3467,-1.58652 0.26937,0 0.48976,-0.11907 0.48976,-0.26459 0,-0.14552 0.34261,-0.26458 0.76136,-0.26458 0.41874,0 0.88926,-0.15412 1.0456,-0.34249 0.15633,-0.18838 0.70669,-0.50826 1.22302,-0.71085 0.51632,-0.20259 0.93877,-0.52471 0.93877,-0.71583 0,-0.19113 0.23813,-0.3475 0.52917,-0.3475 0.29104,0 0.52917,0.10933 0.52917,0.24295 0,0.13362 0.0709,0.42773 0.15757,0.65358 0.10102,0.26324 -0.25707,0.83725 -0.99763,1.59918 -1.40946,1.45014 -1.69308,2.37539 -2.11414,6.897 -0.40716,4.37235 -0.40062,7.70235 0.0223,11.37709 0.18424,1.60072 0.35374,5.23213 0.37665,8.06979 l 0.0417,5.15937 -1.12075,1.98438 c -0.86671,1.53455 -1.12161,2.26192 -1.12448,3.20875 -0.004,1.34501 0.31588,1.77373 1.31919,1.76752 0.88914,-0.006 3.47788,0.46286 5.42396,0.98134 0.87312,0.23261 1.88516,0.4942 2.24896,0.58129 0.3638,0.0871 1.07817,0.41457 1.5875,0.72773 2.05126,1.2612 2.89282,1.51293 4.7683,1.42628 1.55879,-0.072 1.900462,-0.004 2.425632,0.4846 0.926985,0.86198 1.075708,0.72341 0.478983,-0.44626 z m -15.498709,-7.81367 c -0.40373,-0.96626 -0.21659,-2.02951 0.6039,-3.43113 0.53256,-0.90974 0.86551,-0.16594 0.58645,1.31014 -0.13622,0.72057 -0.17401,1.70284 -0.084,2.18281 0.23272,1.2405 -0.58124,1.19503 -1.10638,-0.0618 z m 10.60399,-34.42802 c -0.21832,-0.52251 -0.39695,-1.05898 -0.39695,-1.19216 0,-0.13318 -0.53578,-0.76286 -1.19062,-1.3993 -1.57282,-1.5286 -1.66003,-2.60696 -0.12502,-1.54591 1.47907,1.02238 2.52775,2.53413 2.68353,3.86852 0.15522,1.32954 -0.45694,1.49904 -0.97094,0.26885 z m 12.567636,41.44794 c 0,-0.14552 -0.12609,-0.26459 -0.280199,-0.26459 -0.154109,0 -0.206613,0.11907 -0.116676,0.26459 0.08994,0.14552 0.216026,0.26458 0.280198,0.26458 0.06417,0 0.116677,-0.11906 0.116677,-0.26458 z M -233.7899,259.66467 c 0.11558,-2.21153 0.19897,-2.37507 1.24221,-2.43605 0.51568,-0.0301 1.2055,-0.0711 1.53292,-0.091 14.82583,-0.90129 111.25849,-1.76569 113.40747,-1.01655 1.61214,0.562 1.66624,0.33911 1.6355,-6.73798 -0.0177,-4.08374 -0.13348,-6.50431 -0.33379,-6.98075 -0.18618,-0.44283 -0.31227,-2.3663 -0.32098,-4.89652 -0.008,-2.29195 -0.0482,-4.16719 -0.0896,-4.16719 -0.0414,0 -0.54678,0.29766 -1.12308,0.66146 -0.5763,0.3638 -1.12824,0.66146 -1.22654,0.66146 -0.0983,0 -0.54715,0.27443 -0.99744,0.60984 -0.4503,0.33541 -1.35451,0.76429 -2.00935,0.95305 -0.65485,0.18877 -2.39125,0.92637 -3.85868,1.63912 -1.46743,0.71275 -2.80266,1.29591 -2.96717,1.29591 -0.16452,0 -0.80937,0.28478 -1.43299,0.63285 -1.47529,0.82342 -5.03196,2.01298 -6.01862,2.01298 -0.42491,0 -0.84615,0.11906 -0.93608,0.26458 -0.0899,0.14552 -0.44713,0.26459 -0.79375,0.26459 -0.34663,0 -0.69533,0.10533 -0.7749,0.23407 -0.0796,0.12875 -0.47355,0.29381 -0.87551,0.36682 -0.40197,0.073 -1.85354,0.38439 -3.22572,0.69196 -2.77818,0.62273 -4.37486,0.68454 -7.61171,0.29465 -1.2081,-0.14552 -3.23834,-0.38959 -4.51165,-0.54238 -2.40929,-0.2891 -5.63521,-0.94099 -6.54843,-1.32331 -0.29105,-0.12184 -1.27331,-0.29938 -2.18282,-0.39453 -0.9095,-0.0951 -1.65364,-0.28036 -1.65364,-0.4116 0,-0.13123 -0.23974,-0.2386 -0.53276,-0.2386 -0.29301,0 -0.7395,-0.1114 -0.99219,-0.24756 -0.25268,-0.13617 -0.84638,-0.43382 -1.31932,-0.66146 -1.55157,-0.74682 -2.57744,-1.29588 -2.71198,-1.4515 -0.0728,-0.0842 -0.8169,-0.49504 -1.65365,-0.91306 -0.83674,-0.41802 -1.52135,-0.86451 -1.52135,-0.99219 0,-0.12768 -0.15992,-0.23215 -0.35538,-0.23215 -0.5691,0 -4.15943,-2.59208 -5.54142,-4.00068 -0.69662,-0.71004 -1.42108,-1.29098 -1.60991,-1.29098 -0.18883,0 -0.63949,-0.32742 -1.00148,-0.72761 -0.36199,-0.40018 -1.03258,-1.03275 -1.4902,-1.40571 -0.45762,-0.37295 -1.25815,-1.23616 -1.77895,-1.91823 -0.52079,-0.68206 -1.10578,-1.24012 -1.29997,-1.24012 -0.19418,0 -1.11146,-0.84321 -2.0384,-1.8738 -0.92693,-1.03059 -2.87798,-3.08442 -4.33566,-4.56406 -1.45768,-1.47965 -2.88374,-3.13675 -3.16902,-3.68245 -0.28528,-0.54571 -0.65505,-0.99219 -0.82171,-0.99219 -0.3143,0 -1.58811,-1.32022 -3.41311,-3.53748 -0.58208,-0.70719 -1.46482,-1.65908 -1.96164,-2.11531 -0.49682,-0.45622 -1.847,-1.75224 -3.0004,-2.88002 -1.1534,-1.12779 -2.2078,-2.05052 -2.3431,-2.05052 -0.1353,0 -0.74729,-0.31645 -1.35998,-0.70323 -2.78359,-1.7572 -4.72222,-2.5724 -8.4005,-3.53243 -4.37627,-1.1422 -14.45822,-0.70147 -18.12396,0.79229 -1.75352,0.71455 -3.02164,1.34314 -3.15944,1.56609 -0.0871,0.14095 -0.48343,0.42357 -0.88072,0.62804 -3.22126,1.6579 -3.90515,2.19964 -4.66661,3.69663 -0.27758,0.54571 -0.605,0.99219 -0.72761,0.99219 -0.1226,0 -0.22291,0.16014 -0.22291,0.35587 0,0.19573 -0.25338,0.58268 -0.56306,0.85989 -0.64312,0.5757 -1.8165,2.99472 -2.49044,5.13424 -0.25211,0.80037 -0.56525,1.69333 -0.69586,1.98438 -0.13061,0.29104 -0.19216,3.62479 -0.13678,7.40833 0.0922,6.29819 0.31958,8.95744 0.95027,11.1125 0.12776,0.43656 0.43851,1.74625 0.69055,2.91042 0.49998,2.30942 1.11748,4.47354 2.15162,7.54062 0.36799,1.09141 0.72635,2.40109 0.79636,2.91042 0.07,0.50932 0.20001,1.10463 0.28891,1.32291 0.20194,0.49587 0.31088,1.00447 0.39668,1.85209 0.0368,0.3638 0.24555,0.73791 0.46383,0.83135 0.21828,0.0935 0.59527,0.5697 0.83775,1.05834 0.51375,1.03529 1.8097,6.36896 1.80874,7.44413 l -6.6e-4,0.73487 3.77031,-0.0734 3.77032,-0.0734 z m -11.24992,-9.79349 c -0.07,-0.36595 -0.23204,-0.73017 -0.36019,-0.80936 -0.12815,-0.0792 -0.23299,-0.33751 -0.23299,-0.57402 0,-0.23651 -0.23737,-0.92036 -0.5275,-1.51967 -0.71287,-1.47261 -1.78032,-4.92559 -2.90472,-9.39616 -0.3111,-1.23693 -0.67629,-2.66568 -0.81153,-3.175 -0.43946,-1.65498 -1.11559,-11.11734 -0.95287,-13.33529 0.36362,-4.95637 0.65837,-7.36771 0.93433,-7.64367 0.16145,-0.16145 0.29354,-0.46622 0.29354,-0.67728 0,-0.73226 1.42722,-3.35731 2.89856,-5.33126 0.81351,-1.09141 1.66868,-2.28308 1.90039,-2.64815 0.2317,-0.36508 0.76477,-0.83891 1.1846,-1.05296 0.41983,-0.21405 1.13175,-0.65949 1.58205,-0.98987 0.4503,-0.33038 0.95631,-0.60069 1.12448,-0.60069 0.16816,0 0.30575,-0.11906 0.30575,-0.26458 0,-0.14552 0.16586,-0.26459 0.36857,-0.26459 0.20271,0 0.4371,-0.17859 0.52086,-0.39687 0.0838,-0.21828 0.39416,-0.39688 0.68977,-0.39688 0.29561,0 0.53747,-0.11765 0.53747,-0.26145 0,-0.1438 0.47889,-0.33804 1.0642,-0.43163 0.5853,-0.0936 1.12811,-0.2736 1.20624,-0.4 0.0781,-0.12641 0.42564,-0.22983 0.77227,-0.22983 0.34662,0 0.69461,-0.10417 0.77329,-0.23149 0.75152,-1.21598 17.28433,-1.21069 18.03614,0.006 0.0767,0.12414 0.41559,0.22572 0.75304,0.22572 1.06682,0 3.85763,1.29084 6.68471,3.09191 0.757,0.48226 1.45902,0.87684 1.56006,0.87684 0.10104,0 0.73715,0.50601 1.41357,1.12448 0.67642,0.61846 1.58173,1.43005 2.01181,1.80353 0.43008,0.37349 1.79399,1.79745 3.03092,3.16437 1.23693,1.36692 2.87403,3.10742 3.63802,3.86776 0.76398,0.76035 1.38906,1.4662 1.38906,1.56855 0,0.17497 0.90114,1.23697 2.81222,3.3142 0.45532,0.4949 1.31852,1.29349 1.91823,1.77465 0.59971,0.48116 1.09039,1.03166 1.09039,1.22334 0,0.19168 0.98226,1.25307 2.18281,2.35864 1.20054,1.10557 2.3614,2.19172 2.57969,2.41366 3.48732,3.54579 4.36571,4.37432 4.63758,4.37432 0.17719,0 0.66473,0.38835 1.08343,0.86301 0.72044,0.81672 2.28845,2.12822 3.23869,2.70886 0.23815,0.14552 0.90925,0.63449 1.49134,1.08658 0.58208,0.4521 1.35599,0.91464 1.71979,1.02785 0.3638,0.11322 0.72099,0.29506 0.79375,0.40409 0.0728,0.10903 0.7276,0.49376 1.45521,0.85496 0.7276,0.3612 1.85869,0.94976 2.51354,1.30793 0.65484,0.35816 2.08359,0.98543 3.175,1.39393 1.0914,0.4085 2.09748,0.84577 2.23573,0.97171 0.13824,0.12595 0.79309,0.23418 1.45521,0.24052 0.66212,0.006 1.73963,0.13447 2.39447,0.28474 3.74498,0.85938 9.67357,1.37186 13.96242,1.20693 1.78574,-0.0687 3.39308,-0.24143 3.57188,-0.38391 0.17879,-0.14248 0.68227,-0.32964 1.11883,-0.41591 4.58959,-0.90693 6.30738,-1.41129 9.39271,-2.75778 0.80036,-0.3493 1.69333,-0.73218 1.98437,-0.85086 1.89162,-0.77135 2.76824,-1.15674 3.68443,-1.61977 0.57122,-0.28869 1.58325,-0.59759 2.24895,-0.68645 0.66571,-0.0889 1.26999,-0.23254 1.34287,-0.31931 0.0729,-0.0868 0.54912,-0.38355 1.05833,-0.65952 0.50921,-0.27598 1.62185,-0.90104 2.47253,-1.38902 0.85068,-0.48798 1.64102,-0.82895 1.75631,-0.7577 0.11528,0.0713 0.27515,-0.19666 0.35525,-0.59535 0.0801,-0.3987 0.27962,-1.26069 0.44336,-1.91553 0.16374,-0.65485 0.39647,-1.87748 0.51719,-2.71698 0.12072,-0.83949 0.36584,-1.70269 0.54472,-1.91822 0.37099,-0.44703 0.19762,-0.5021 -0.47076,-0.14955 -0.25268,0.13329 -0.87615,0.43092 -1.38547,0.66141 -0.50932,0.23048 -1.52135,0.77071 -2.24896,1.2005 -2.55604,1.50983 -5.08772,2.39367 -6.85647,2.39367 -0.38207,0 -1.16618,0.29766 -1.74248,0.66146 -0.5763,0.3638 -1.19902,0.66541 -1.38381,0.67025 -0.18479,0.005 -0.81224,0.35149 -1.39432,0.77034 -0.58208,0.41885 -1.77271,1.1174 -2.64583,1.55233 -4.45051,2.21694 -5.70379,2.70467 -7.32655,2.85121 -0.91811,0.0829 -1.90741,0.25039 -2.19845,0.37216 -0.29104,0.12177 -1.77933,0.35657 -3.3073,0.52177 -2.29618,0.24826 -3.3748,0.2271 -6.2177,-0.12198 -1.89177,-0.23229 -4.50204,-0.53013 -5.80059,-0.66186 -2.45879,-0.24943 -3.10478,-0.43148 -6.10566,-1.72074 -2.37225,-1.01917 -4.09149,-1.91693 -5.59859,-2.92348 -0.41328,-0.27601 -1.28719,-0.75653 -1.94204,-1.06782 -0.65484,-0.31129 -2.14312,-1.48609 -3.30729,-2.61066 -1.16417,-1.12458 -2.45428,-2.22091 -2.86692,-2.4363 -0.78843,-0.41154 -2.55704,-2.10868 -2.55704,-2.45371 0,-0.23363 -2.91275,-3.19046 -3.14912,-3.19678 -0.32962,-0.009 -1.77782,-1.49311 -2.44828,-2.50931 -0.38404,-0.58209 -1.09743,-1.43534 -1.58532,-1.89613 -2.33003,-2.2006 -2.97006,-2.90787 -3.26398,-3.6069 -0.17482,-0.41578 -1.0095,-1.46105 -1.85483,-2.32282 -0.94774,-0.96617 -1.37544,-1.56686 -1.11563,-1.56686 0.23174,0 0.4988,0.12532 0.59347,0.27849 0.21615,0.34974 1.71119,-1.1712 1.71119,-1.74083 0,-0.32188 -0.21001,-0.26612 -0.98746,0.26217 -0.5431,0.36905 -1.15104,0.671 -1.35098,0.671 -0.19994,0 -0.58045,0.27577 -0.84557,0.61282 -0.26512,0.33705 -0.95819,0.76997 -1.54016,0.96203 -0.90193,0.29767 -1.2074,0.28991 -2.06957,-0.0526 -0.65676,-0.26087 -1.04098,-0.59718 -1.09562,-0.95901 -0.0734,-0.48628 0.0144,-0.53754 0.68953,-0.40252 1.58056,0.31612 1.24018,-1.38281 -0.71015,-3.54448 -0.5631,-0.62412 -1.09433,-1.48732 -1.18051,-1.91823 -0.10653,-0.53262 -0.3149,-0.78347 -0.65081,-0.78347 -0.29333,0 -0.69678,-0.37631 -0.99283,-0.92604 -0.27428,-0.50932 -0.56824,-0.92604 -0.65323,-0.92604 -0.085,0 -0.42297,-0.2501 -0.75107,-0.55577 -0.32811,-0.30567 -0.66331,-0.48902 -0.7449,-0.40743 -0.20155,0.20155 -1.5886,-0.52987 -2.77962,-1.46576 -1.52588,-1.19901 -6.53666,-3.66552 -8.01059,-3.94315 -0.73127,-0.13773 -1.8291,-0.48432 -2.43961,-0.77018 -0.61052,-0.28586 -1.62255,-0.59798 -2.24896,-0.6936 -0.62641,-0.0956 -1.25799,-0.26255 -1.40351,-0.37096 -1.27467,-0.9496 -11.95831,-0.95006 -13.22917,-5.7e-4 -0.14552,0.10872 -0.7758,0.2757 -1.40062,0.37107 -0.62482,0.0954 -1.33919,0.28574 -1.5875,0.42306 -0.2483,0.13732 -1.34443,0.55414 -2.43584,0.92627 -2.20934,0.75331 -4.7625,1.99007 -4.7625,2.30698 0,0.19251 -0.55107,0.63526 -3.77992,3.03695 -0.69651,0.51807 -1.42944,1.2551 -1.62874,1.63784 -0.19929,0.38273 -0.67107,1.05306 -1.0484,1.48963 -0.37732,0.43656 -0.68619,0.8789 -0.68636,0.98298 -1.8e-4,0.10407 -0.33752,0.58032 -0.74964,1.05833 -0.41212,0.47801 -1.21579,1.8216 -1.78594,2.98577 -0.57014,1.16417 -1.12592,2.15635 -1.23506,2.20486 -0.10914,0.0485 -0.19844,0.46796 -0.19844,0.93211 0,0.46415 -0.30465,2.03181 -0.677,3.48368 -1.09131,4.25525 -1.15836,11.71858 -0.14614,16.26581 0.14577,0.65484 0.38543,1.7264 0.53257,2.38125 0.14714,0.65484 0.27271,1.62585 0.27905,2.15781 0.006,0.53195 0.2423,1.42492 0.52437,1.98437 0.28206,0.55946 0.89501,1.85063 1.3621,2.86928 0.46708,1.01864 1.15904,2.22204 1.53767,2.67421 1.51796,1.81278 1.74848,2.13249 2.34399,3.25088 0.34047,0.63943 0.94069,1.4831 1.33382,1.87483 0.39313,0.39173 1.28778,1.38661 1.9881,2.21084 1.3997,1.64735 1.76114,1.83931 1.56882,0.83324 z m 169.022344,-3.48026 c -0.01511,-1.86725 -0.120336,-3.7418 -0.23384,-4.16567 -0.117448,-0.43859 -0.174212,0.81548 -0.131736,2.91042 0.04105,2.0246 0.0766,3.96882 0.07901,4.3205 0.0024,0.35167 0.07405,0.56973 0.159205,0.48458 0.08516,-0.0852 0.14247,-1.68258 0.127361,-3.54983 z m -1.25724,-2.66739 c -0.08555,-1.27331 -0.244518,-2.4937 -0.353269,-2.71198 -0.108752,-0.21828 -0.281449,-0.90227 -0.383771,-1.51997 -0.102321,-0.6177 -0.294742,-1.19027 -0.4276,-1.27238 -0.132859,-0.0821 -0.241562,-0.34548 -0.241562,-0.58526 0,-0.8449 -2.646754,-5.76723 -3.568596,-6.63674 -0.511126,-0.48211 -0.92932,-1.01902 -0.92932,-1.19314 0,-0.17411 -0.258222,-0.53767 -0.573826,-0.8079 -0.962847,-0.82441 -4.351285,-3.06586 -4.634724,-3.06586 -0.14652,0 -0.612115,-0.1712 -1.034654,-0.38045 -1.927256,-0.95442 -5.305581,-2.26538 -5.837837,-2.26538 -0.323251,0 -0.651649,-0.10343 -0.729772,-0.22983 -0.07812,-0.12641 -0.591166,-0.30389 -1.140094,-0.39441 -0.548928,-0.0905 -1.325474,-0.33722 -1.725656,-0.54823 -0.400182,-0.21101 -0.742799,-0.30142 -0.761371,-0.2009 -0.01857,0.10051 -0.07443,0.42087 -0.124134,0.71191 -0.248737,1.45655 -0.472028,2.21467 -0.959498,3.25762 -0.29329,0.62753 -0.62181,1.53359 -0.73005,2.01348 l -0.19678,0.87251 2.278886,0.17491 c 1.253386,0.0962 2.933728,0.34569 3.734093,0.55443 5.748696,1.49927 6.458687,1.84814 9.566023,4.70055 2.953412,2.71111 3.000068,2.75991 3.400276,3.55697 0.452088,0.90039 2.026901,3.1358 2.786625,3.95555 0.303146,0.3271 0.782049,1.07652 1.064229,1.66538 0.282181,0.58886 0.592892,1.07202 0.69047,1.07369 0.09758,0.002 0.255867,0.36022 0.351752,0.79678 0.353066,1.6075 0.631171,0.72635 0.48016,-1.52135 z m 0.356527,-5.15938 c -0.0734,-0.1819 -0.133452,-0.0331 -0.133452,0.33073 0,0.36381 0.06005,0.51263 0.133452,0.33073 0.0734,-0.1819 0.0734,-0.47955 0,-0.66146 z m -1.535793,-4.39275 c -0.629877,-1.25839 -1.287298,-2.4368 -1.460935,-2.6187 -0.484689,-0.50776 -0.752444,-0.3924 -0.307035,0.13229 0.510338,0.60117 1.805618,3.40593 1.805618,3.90983 0,0.21431 0.116794,0.38965 0.259542,0.38965 0.142748,0 0.345647,0.32742 0.450885,0.7276 0.148725,0.56555 0.214262,0.61844 0.294249,0.23745 0.0566,-0.26958 -0.412447,-1.51974 -1.042324,-2.77812 z m -65.049858,1.81511 c 2.22281,-0.2519 3.32107,-0.46485 4.10105,-0.79517 0.29104,-0.12326 1.0986,-0.42961 1.79457,-0.68078 0.69598,-0.25117 1.32809,-0.55807 1.40468,-0.68201 0.0766,-0.12393 0.30214,-0.22533 0.50121,-0.22533 0.56367,0 4.22349,-1.75443 4.59591,-2.20317 0.18318,-0.22072 0.80244,-0.4806 1.37615,-0.57753 1.25744,-0.21244 1.38934,-0.65441 0.18321,-0.61387 -0.47295,0.0159 -1.6947,-0.0565 -2.71501,-0.16087 -1.69503,-0.17338 -1.95758,-0.13119 -3.0427,0.48903 -0.65319,0.37333 -1.37579,0.68022 -1.60579,0.68197 -0.22999,0.002 -1.0039,0.30034 -1.71979,0.66354 -0.71588,0.36319 -1.48616,0.66085 -1.71171,0.66146 -0.22556,6.1e-4 -0.52322,0.10149 -0.66146,0.22419 -0.13825,0.1227 -0.95324,0.43687 -1.81109,0.69816 -1.32959,0.40497 -2.14946,0.45104 -5.55625,0.31226 -3.6309,-0.14791 -6.17541,-0.54608 -6.67363,-1.0443 -0.10406,-0.10406 -0.37772,-0.19254 -0.60813,-0.19662 -0.98965,-0.0175 -6.54818,-3.06779 -6.85712,-3.7629 -0.0485,-0.10914 -0.20528,-0.19844 -0.34838,-0.19844 -0.1431,0 -0.65044,-0.29765 -1.12741,-0.66145 -0.47696,-0.36381 -0.9985,-0.66146 -1.15897,-0.66146 -0.16046,0 -0.85157,-0.29766 -1.53578,-0.66146 -0.68422,-0.3638 -1.50938,-0.66146 -1.83369,-0.66146 -0.32431,0 -0.73787,-0.17859 -0.91903,-0.39687 -0.18116,-0.21829 -0.43264,-0.39688 -0.55886,-0.39688 -0.51709,0 -4.08909,-2.50608 -5.30484,-3.72183 -0.71789,-0.71789 -1.43717,-1.30525 -1.59841,-1.30525 -0.37085,0 -1.88799,-1.15114 -2.81167,-2.13335 -2.1471,-2.2832 -2.64034,-2.74905 -3.48455,-3.2911 -0.50933,-0.32703 -1.28323,-1.03341 -1.7198,-1.56975 -1.36751,-1.68006 -3.2432,-3.58914 -3.52637,-3.58914 -0.14936,0 -0.60765,-0.40273 -1.01843,-0.89496 l -0.74686,-0.89497 -0.99669,0.63708 -0.99668,0.63708 0.66899,0.72091 c 0.36795,0.3965 0.97826,1.20988 1.35624,1.80751 0.37798,0.59763 1.16686,1.4906 1.75306,1.98437 1.56845,1.32115 3.37411,3.20804 3.37675,3.52864 0.003,0.34407 1.79512,2.26393 2.11351,2.26393 0.2076,0 1.26146,1.0245 4.17992,4.06351 0.53917,0.56145 1.63516,1.50846 2.43552,2.10447 0.80037,0.59601 1.6662,1.3494 1.92409,1.6742 0.59555,0.7501 3.87406,3.14348 4.63825,3.38603 0.31805,0.10094 0.72781,0.3266 0.91057,0.50147 0.40852,0.39085 4.82357,2.55782 5.21139,2.55782 0.15416,0 0.28029,0.0908 0.28029,0.20174 0,0.11096 0.80367,0.42309 1.78593,0.69362 0.98227,0.27053 2.32172,0.66548 2.97656,0.87766 2.2304,0.72271 10.96894,1.07632 15.08125,0.61027 z m 60.655735,-7.86552 c -0.181901,-0.065 -0.330729,-0.26711 -0.330729,-0.44921 0,-0.42932 -1.214356,-1.47322 -2.459054,-2.11387 -0.539292,-0.27758 -0.98053,-0.605 -0.98053,-0.72761 0,-0.1226 -0.122235,-0.22292 -0.271634,-0.22292 -0.149399,0 -0.674158,-0.36628 -1.166132,-0.81397 -0.491974,-0.44769 -1.352004,-1.05792 -1.911178,-1.35608 -0.559174,-0.29815 -1.076212,-0.61715 -1.148972,-0.70888 -0.07276,-0.0917 -0.608542,-0.51557 -1.190625,-0.94185 -0.582084,-0.42629 -1.315342,-1.02092 -1.629462,-1.32141 -0.676486,-0.64713 -1.543279,-1.08742 -4.522101,-2.29701 -0.400182,-0.1625 -0.947558,-0.40887 -1.21639,-0.5475 -0.268832,-0.13862 -0.528648,-0.21218 -0.577378,-0.16345 -0.10386,0.10386 0.363795,4.15905 0.535609,4.64442 0.06439,0.18191 0.442481,0.33073 0.840202,0.33073 0.804198,0 5.435486,1.07401 5.643478,1.30874 0.07276,0.0821 0.608542,0.30933 1.190625,0.50492 0.582083,0.1956 1.83224,0.71137 2.778125,1.14616 0.945885,0.4348 2.017448,0.92656 2.38125,1.0928 0.813103,0.37155 2.251912,1.39733 3.297713,2.35106 0.431294,0.39332 0.848013,0.64491 0.926042,0.55909 0.07803,-0.0858 -0.007,-0.2092 -0.188859,-0.27416 z m -90.289065,-10.39277 c 0.3638,-0.28457 0.75648,-0.52005 0.87261,-0.52329 0.11613,-0.003 0.89003,-0.4474 1.71979,-0.98704 1.98268,-1.28947 3.74413,-2.19384 4.27293,-2.19384 0.23411,0 0.7922,-0.26789 1.24021,-0.59531 1.90591,-1.39292 5.00155,-3.74887 5.12363,-3.89937 0.0728,-0.0897 0.58815,-0.37529 1.14531,-0.63463 0.9754,-0.45402 0.99598,-0.49036 0.5543,-0.9784 -0.58054,-0.64149 -0.63887,-0.63679 -1.45181,0.11702 -0.37006,0.34314 -1.26182,0.95251 -1.98168,1.35417 -0.71985,0.40165 -1.69993,1.0734 -2.17793,1.49277 -0.47801,0.41938 -1.04356,0.7625 -1.25677,0.7625 -0.21322,0 -0.38904,0.0893 -0.39071,0.19844 -0.002,0.10914 -0.50768,0.4297 -1.12448,0.71235 -0.61679,0.28266 -1.3298,0.61427 -1.58446,0.73692 -0.80735,0.38883 -0.54997,-0.71973 0.26458,-1.13956 0.40018,-0.20626 0.78714,-0.43864 0.8599,-0.51641 0.0728,-0.0778 0.78713,-0.55233 1.5875,-1.05458 0.80036,-0.50226 1.68602,-1.12343 1.96812,-1.38038 0.2821,-0.25696 0.67324,-0.4672 0.8692,-0.4672 0.37512,0 1.55067,-0.68767 2.14251,-1.25334 0.1923,-0.18378 0.46019,-0.33416 0.59532,-0.33416 0.58236,0 0.15919,-0.52957 -0.93609,-1.17144 l -1.18176,-0.69256 -2.04307,0.53513 c -1.12368,0.29432 -2.3708,0.53512 -2.77136,0.53512 -0.40057,0 -0.79263,0.10408 -0.87125,0.23129 -0.16807,0.27194 -4.54673,0.83474 -6.17214,0.79332 -0.73101,-0.0186 -1.12448,-0.14889 -1.12448,-0.37229 0,-0.189 0.14883,-0.39821 0.33073,-0.4649 0.26458,-0.097 0.26458,-0.19138 0,-0.47184 -0.1819,-0.19282 -0.33073,-0.62551 -0.33073,-0.96153 0,-0.33603 -0.68435,-1.65167 -1.52078,-2.92365 -0.83642,-1.27198 -1.56565,-2.43175 -1.62051,-2.57727 -0.0548,-0.14552 -0.37086,-0.56224 -0.70225,-0.92604 -0.61099,-0.67077 -1.44813,-2.79508 -1.44813,-3.67478 0,-0.26471 -0.29134,-0.79565 -0.64743,-1.17987 -0.35608,-0.38423 -1.38572,-1.74107 -2.28807,-3.0152 -0.90236,-1.27414 -1.75918,-2.39372 -1.90406,-2.48796 -0.14487,-0.0943 -0.4758,-0.63003 -0.73541,-1.19063 l -0.47201,-1.01927 -0.2997,0.78665 c -0.16484,0.43266 -0.46806,0.96844 -0.67382,1.19063 -1.74963,1.88925 -1.92704,2.24009 -1.78226,3.52457 0.0779,0.69145 0.24497,1.321 0.37119,1.39901 0.31983,0.19766 0.28882,3.2177 -0.0351,3.41789 -0.45602,0.28183 -0.29033,1.35616 0.39368,2.55268 0.36205,0.63332 0.65971,1.46114 0.66146,1.83961 0.002,0.37847 0.13449,1.06478 0.29498,1.52515 0.23179,0.66491 0.20465,1.05482 -0.13198,1.89613 -0.41819,1.04518 -0.4131,1.078 0.38716,2.49598 0.72482,1.28431 4.26906,5.00299 7.6091,7.9836 0.62953,0.56179 1.6072,1.46332 2.1726,2.00341 1.54004,1.47111 3.13903,1.85062 4.22341,1.0024 z m -2.16404,-3.18125 c -1.73534,-1.48747 -2.88491,-3.43334 -2.02832,-3.43334 0.29166,0 1.6124,1.27569 2.75363,2.65973 0.29368,0.35616 0.76021,0.77513 1.03675,0.93105 0.75264,0.42437 0.80241,0.90739 0.0933,0.90543 -0.33955,-9.4e-4 -1.17446,-0.47923 -1.85536,-1.06287 z m 22.14008,-0.7875 c 0.0899,-0.14552 0.0445,-0.26459 -0.10106,-0.26459 -0.14552,0 -0.33817,0.11907 -0.4281,0.26459 -0.0899,0.14552 -0.0445,0.26458 0.10106,0.26458 0.14552,0 0.33817,-0.11906 0.4281,-0.26458 z m 14.37327,0.0133 c 0.53326,-0.15294 1.12374,-0.15706 1.50914,-0.0105 0.59592,0.22657 0.61615,0.20348 0.34433,-0.39309 -0.25132,-0.5516 -0.18992,-0.72007 0.47349,-1.29895 0.7374,-0.64345 2.54528,-1.2015 4.01644,-1.23979 0.39302,-0.0102 0.95271,-0.11681 1.24375,-0.23685 0.32833,-0.13543 -0.51009,-0.22224 -2.20906,-0.22874 -2.10239,-0.008 -2.84448,-0.10663 -3.19583,-0.4246 -0.5422,-0.49068 -2.86981,-0.55392 -5.1145,-0.13897 -1.36913,0.2531 -1.59044,0.22154 -2.76057,-0.39365 -0.69967,-0.36784 -1.68884,-1.02716 -2.19817,-1.46516 -0.50932,-0.43799 -1.01533,-0.79663 -1.12447,-0.79698 -0.10914,-3.4e-4 -0.19844,-0.17921 -0.19844,-0.39749 0,-0.21828 -0.12448,-0.39688 -0.27661,-0.39688 -0.15214,0 -0.57245,-0.29583 -0.93402,-0.65741 -0.36158,-0.36157 -1.21937,-0.96892 -1.90621,-1.34966 -0.68683,-0.38073 -1.66551,-1.09144 -2.17483,-1.57934 -0.50932,-0.4879 -1.46182,-1.31663 -2.11667,-1.84162 -0.65484,-0.52499 -1.40901,-1.13321 -1.67593,-1.35161 -0.8582,-0.70221 -3.87889,-2.48073 -4.2157,-2.48213 -0.67188,-0.003 -2.30505,-1.22839 -3.09598,-2.32334 -0.45055,-0.62374 -1.09088,-1.25787 -1.42295,-1.40917 -0.33208,-0.1513 -0.77469,-0.55443 -0.98358,-0.89585 -0.2089,-0.34141 -0.94536,-1.21674 -1.63658,-1.94517 -0.69123,-0.72843 -1.25677,-1.43015 -1.25677,-1.55938 0,-0.12923 -0.50602,-0.51836 -1.12448,-0.86473 -0.61847,-0.34638 -1.91097,-1.4101 -2.87223,-2.36383 -1.34625,-1.3357 -1.82357,-2.01695 -2.07782,-2.96552 -0.2328,-0.86853 -0.2493,-1.3754 -0.056,-1.71979 0.26269,-0.46799 0.28134,-0.46629 0.44817,0.0408 0.0957,0.29104 0.27486,0.76729 0.39804,1.05833 0.12318,0.29104 0.29516,0.78497 0.38219,1.09762 0.087,0.31265 0.65713,0.96749 1.26689,1.45521 0.60977,0.48771 1.60117,1.33324 2.2031,1.87894 0.60194,0.5457 1.19715,0.99219 1.3227,0.99219 0.23568,0 1.203,1.02374 3.11067,3.29213 1.89743,2.2562 2.58604,2.79208 3.60616,2.80626 0.71822,0.01 1.17355,0.2492 1.97642,1.03832 l 1.04321,1.02535 0.74273,-1.47249 c 0.4085,-0.80986 0.74273,-1.58653 0.74273,-1.72593 0,-1.11558 3.4178,-6.28653 4.15517,-6.28655 0.17528,-1e-5 0.62276,0.30406 0.9944,0.67569 0.37164,0.37164 0.79509,0.60192 0.941,0.51175 0.34083,-0.21065 1.84693,1.28565 1.84693,1.83491 0,0.22947 0.16015,0.41722 0.35587,0.41722 0.62424,0 1.26919,0.94755 1.10439,1.62254 -0.1224,0.50131 0.007,0.71644 0.64861,1.07714 1.09435,0.61535 1.01675,1.31875 -0.25678,2.32741 -0.58209,0.46102 -1.05834,0.94964 -1.05834,1.08582 0,0.13619 -0.29765,0.71913 -0.66145,1.29543 -0.36381,0.5763 -0.66275,1.3776 -0.66433,1.78068 -0.002,0.40307 -0.18257,1.32533 -0.40222,2.04946 -0.21965,0.72413 -0.35103,1.44255 -0.29195,1.5965 0.0591,0.15394 0.67297,0.57078 1.36422,0.9263 0.69125,0.35553 1.98478,1.34735 2.87451,2.20405 0.88972,0.85671 2.25292,2.04227 3.02933,2.63458 1.39323,1.06289 1.42692,1.07285 2.58348,0.76351 0.67035,-0.17929 2.97396,-0.31342 5.38281,-0.31342 h 4.21097 l 1.9368,-2.52307 c 2.91097,-3.79213 3.8354,-5.18202 4.1652,-6.2624 0.16458,-0.53914 0.57233,-1.31305 0.90612,-1.71979 0.33379,-0.40674 1.18655,-1.67858 1.89503,-2.82631 0.70847,-1.14773 1.48775,-2.27883 1.73174,-2.51354 0.24398,-0.23472 0.64216,-0.84348 0.88483,-1.3528 0.24267,-0.50933 0.5861,-1.1116 0.76317,-1.33839 0.64139,-0.82148 3.3092,-2.82366 3.9901,-2.99456 0.38361,-0.0963 0.69748,-0.30035 0.69748,-0.45349 0,-0.42154 0.73906,-1.07236 0.90777,-0.79938 0.26012,0.42088 -0.46678,1.45395 -2.16454,3.07624 -0.90951,0.86907 -1.65365,1.67539 -1.65365,1.79182 0,0.11643 -0.29765,0.53269 -0.66146,0.92504 -0.3638,0.39234 -0.66145,0.85348 -0.66145,1.02474 0,0.17126 -0.0893,0.35107 -0.19844,0.39957 -0.10914,0.0485 -0.43231,0.56445 -0.71815,1.14653 -0.28584,0.58209 -0.89215,1.65639 -1.34736,2.38735 -0.77004,1.2365 -0.83915,1.54963 -0.99267,4.49792 -0.16667,3.20071 -0.67637,6.53629 -1.20043,7.85589 -0.15688,0.39503 -0.19517,0.7739 -0.0851,0.84193 0.11008,0.068 1.34678,0.0553 2.74821,-0.0283 l 2.54807,-0.15202 0.26875,-1.35137 c 0.53628,-2.69661 1.78983,-6.17608 2.75667,-7.65166 0.24958,-0.3809 0.45377,-0.9679 0.45377,-1.30444 0,-0.33655 0.15602,-0.84675 0.34671,-1.13379 0.1907,-0.28704 0.50338,-1.05768 0.69486,-1.71252 0.19147,-0.65484 0.5883,-1.905 0.88183,-2.77812 0.5144,-1.5301 0.77192,-2.61721 1.22221,-5.15938 0.19688,-1.11155 0.45246,-1.84665 1.18682,-3.41349 0.16378,-0.34945 0.29778,-1.70019 0.29778,-3.00164 0,-2.31066 -0.0187,-2.38132 -0.79375,-3.00597 -2.45789,-1.98082 -5.13404,-2.33293 -7.38722,-0.97196 -0.66993,0.40465 -1.28419,0.9441 -1.36501,1.19877 -0.0808,0.25467 -0.24062,0.46304 -0.35509,0.46304 -0.11446,0 -0.50775,0.26789 -0.87396,0.59531 -1.34559,1.20304 -1.88941,1.59063 -2.82625,2.01433 -0.52666,0.23819 -1.33161,0.70096 -1.78878,1.02838 -0.45716,0.32742 -0.96166,0.59531 -1.12109,0.59531 -0.15944,0 -0.28989,0.0934 -0.28989,0.20754 0,0.11415 -0.38695,0.43203 -0.85989,0.70642 -0.47295,0.27438 -1.43204,1.07395 -2.13132,1.77683 -0.69928,0.70288 -1.39618,1.27796 -1.54865,1.27796 -0.30027,0 -3.40893,3.1574 -4.40995,4.47909 -0.33849,0.44692 -0.75521,0.81923 -0.92604,0.82735 -0.17083,0.008 -0.82918,0.67152 -1.463,1.47422 -0.63382,0.8027 -1.34819,1.52804 -1.5875,1.61186 -0.23931,0.0838 -0.79229,0.41532 -1.22886,0.73667 -0.9697,0.71377 -1.98437,1.06528 -1.98437,0.68743 0,-0.59191 1.65397,-2.1437 2.28487,-2.1437 h 0.64255 l -0.70717,-1.25677 c -0.38895,-0.69122 -0.9724,-1.75102 -1.29657,-2.35511 -0.72823,-1.35706 -1.01324,-1.71814 -2.51118,-3.18139 -1.73428,-1.69413 -2.21916,-2.09334 -4.87501,-4.01368 -2.36359,-1.70901 -3.78559,-2.96145 -4.27092,-3.76166 -0.34577,-0.57012 -1.46569,-1.31234 -4.14938,-2.74999 l -2.31511,-1.2402 v 1.09046 c 0,1.31657 -0.45308,2.22012 -1.71993,3.42992 -1.9396,1.85226 -6.62766,2.82003 -9.8825,2.04009 -1.90855,-0.45734 -2.11501,-0.5838 -1.67369,-1.02512 0.24312,-0.24313 0.58575,-0.24213 1.50751,0.004 1.43689,0.3843 2.52116,0.40369 3.80042,0.0679 0.5262,-0.13811 1.70549,-0.40182 2.62062,-0.58602 1.41497,-0.28481 1.82324,-0.50492 2.72905,-1.47135 0.65746,-0.70147 1.12182,-1.48563 1.2132,-2.04873 0.12825,-0.79032 0.016,-1.05163 -0.83952,-1.95447 -0.54317,-0.5732 -1.48067,-1.25952 -2.08334,-1.52514 -0.60268,-0.26563 -1.1553,-0.54578 -1.22806,-0.62255 -0.0728,-0.0768 -0.3929,-0.35981 -0.71141,-0.62897 -0.53614,-0.45305 -0.62396,-0.45796 -1.18335,-0.0661 -0.36679,0.2569 -1.14789,0.42322 -1.98767,0.42322 -1.23714,0 -3.24063,0.39838 -4.71653,0.93786 -0.69459,0.25389 -3.84067,1.66489 -4.42818,1.98602 -0.25269,0.13812 -0.66543,0.25112 -0.9172,0.25112 -0.25177,0 -0.96261,0.1928 -1.57965,0.42845 -0.97841,0.37366 -1.45326,0.38819 -3.71301,0.11357 -1.42512,-0.17318 -3.72222,-0.41397 -5.10467,-0.53509 -1.38245,-0.12111 -2.87073,-0.30091 -3.30729,-0.39955 -0.43657,-0.0986 -0.67469,-0.0804 -0.52917,0.0405 0.52408,0.43545 1.19063,1.90396 1.19063,2.62313 0,0.874 0.54986,2.54659 0.92463,2.81258 0.42894,0.30444 0.32518,2.57122 -0.13088,2.85952 -0.31893,0.20161 -0.27996,0.25168 0.19843,0.25493 0.32742,0.002 0.59532,-0.11501 0.59532,-0.26053 0,-0.14552 0.35718,-0.26458 0.79375,-0.26458 0.50006,0 0.79375,0.13565 0.79375,0.36663 0,0.20165 0.1725,0.69913 0.38333,1.10551 0.21083,0.40638 0.32287,0.83671 0.24897,0.95628 -0.3609,0.58395 0.47477,0.12441 0.86961,-0.4782 0.45262,-0.69078 0.44899,-0.70106 -0.5229,-1.48074 -0.53828,-0.43182 -0.9122,-0.8927 -0.83094,-1.02418 0.30896,-0.49991 2.04731,-0.24182 2.93581,0.43587 0.48667,0.37121 0.88487,0.54516 0.88487,0.38657 0,-0.52202 1.01144,0.64253 1.19546,1.37642 0.099,0.39497 0.37682,0.78057 0.6173,0.8569 0.24048,0.0763 1.61664,1.27122 3.05813,2.65531 1.44149,1.3841 2.74144,2.51654 2.88879,2.51654 0.14734,0 1.46802,0.76227 2.93484,1.69392 1.46681,0.93165 3.26225,2.01981 3.98985,2.41812 0.7276,0.39831 2.12477,1.30292 3.1048,2.01025 1.68704,1.21759 2.54049,1.66613 1.84291,0.96855 -0.39977,-0.39977 -0.41525,-1.27 -0.0226,-1.27 0.44763,0 3.40926,2.95673 3.40926,3.40362 0,0.50567 0.77292,1.35888 1.23101,1.35888 0.38106,0 2.31255,1.31645 4.45828,3.03864 0.72801,0.58432 1.8591,1.32036 2.51354,1.63566 6.78189,3.26736 9.5368,4.68415 10.58963,5.44601 0.72595,0.52532 4.22589,0.65384 5.76725,0.21178 z m -6.57482,-1.27961 c -1.26115,-0.61316 -1.91836,-1.12241 -2.45393,-1.90146 -0.876,-1.27425 -0.28479,-1.86454 0.73248,-0.73132 0.62863,0.70029 2.64496,2.04696 3.06486,2.04696 0.35345,0 0.22414,0.85084 -0.14602,0.96077 -0.14552,0.0432 -0.68435,-0.12551 -1.19739,-0.37495 z m -44.28996,-29.39144 c -0.24004,-0.3884 3.70491,-3.95998 4.41078,-3.99333 0.40847,-0.0193 0.17661,0.76972 -0.44234,1.50529 -0.35242,0.41884 -0.67984,1.17114 -0.7276,1.67178 -0.10029,1.05144 -1.01287,1.51914 -1.01287,0.5191 v -0.56658 l -0.76845,0.54718 c -0.8302,0.59116 -1.23548,0.67906 -1.45952,0.31656 z m 41.12172,29.42521 c 0,-0.0506 -0.50151,-0.3 -1.11447,-0.55423 -0.61297,-0.25423 -1.99863,-0.90872 -3.07926,-1.45442 -1.08063,-0.5457 -2.17944,-0.99219 -2.44179,-0.99219 -0.26235,0 -0.55058,-0.11906 -0.64052,-0.26458 -0.4055,-0.65611 -1.72427,-0.17627 -3.09048,1.12448 -0.62407,0.59417 -0.67764,0.72958 -0.29208,0.73836 0.25968,0.006 0.86576,0.34757 1.34684,0.75923 l 0.87471,0.74848 4.21852,-0.007 c 2.32019,-0.004 4.21853,-0.048 4.21853,-0.0986 z m 23.28522,-3.33157 c 0.001,-0.47294 0.0778,-1.66365 0.17057,-2.64601 l 0.16868,-1.78613 -1.29504,0.17037 c -1.15256,0.15162 -1.477,0.35709 -2.9487,1.86745 -0.9095,0.93339 -1.65364,1.73626 -1.65364,1.78415 0,0.0479 0.54936,0.16945 1.22081,0.27014 0.88923,0.13335 1.25694,0.32117 1.35378,0.6915 0.11038,0.42209 0.37484,0.50843 1.55731,0.50843 h 1.42435 z m 13.85011,-0.13229 c -0.35905,-1.44332 -1.73029,-3.50573 -2.33088,-3.50573 -0.45466,0 -1.7271,-0.63266 -1.72947,-0.85989 -0.001,-0.10914 -0.21042,-0.19751 -0.46508,-0.19637 -0.43275,0.002 -1.12448,1.06019 -1.12448,1.7203 0,0.16168 -0.28881,1.03091 -0.6418,1.93163 l -0.6418,1.63767 h 3.55726 3.55725 z m -76.01106,-0.56997 c -0.30095,-0.42264 -0.55097,-0.86913 -0.5556,-0.99218 -0.005,-0.12306 -0.16814,-0.43423 -0.36335,-0.69149 -0.33292,-0.43872 -0.38149,-0.42721 -0.783,0.18556 -0.42005,0.64108 -0.40706,0.66818 0.69408,1.44814 1.42179,1.00707 1.69918,1.02083 1.00787,0.05 z m -7.69268,-2.08513 c -0.001,-0.79957 -0.19048,-1.53245 -0.52742,-2.04121 -0.35844,-0.54123 -0.52624,-0.65141 -0.52742,-0.34634 -9.6e-4,0.24607 0.11731,0.52099 0.26284,0.61092 0.14552,0.0899 0.26458,0.74478 0.26458,1.45521 0,0.71043 -0.11906,1.36527 -0.26458,1.45521 -0.51774,0.31998 -0.27423,0.68524 0.26458,0.39687 0.41476,-0.22197 0.52879,-0.55289 0.52742,-1.53066 z m 2.11539,-0.24793 c 0.2927,-0.25062 0.53219,-0.60781 0.53219,-0.79375 0,-0.18594 0.0931,-0.33807 0.20682,-0.33807 0.17765,0 0.4129,-0.68135 1.02772,-2.97656 0.20954,-0.78225 -0.26429,-0.49933 -1.23454,0.73711 -0.97592,1.24366 -1.25332,1.90677 -1.29654,3.09934 -0.0309,0.85207 0.0523,0.88165 0.76435,0.27193 z m 23.34982,-0.37931 c 0.39029,-0.20271 0.41043,-0.32769 0.1323,-0.82125 -0.42132,-0.74766 -0.813,-1.05003 -2.51087,-1.93836 -1.46951,-0.76885 -1.65223,-1.0103 -0.96433,-1.27427 0.77469,-0.29728 3.34341,1.23908 4.20548,2.5153 0.88235,1.30625 0.46105,1.2501 4.16972,0.55578 1.28059,-0.23974 1.96751,-0.58346 1.16604,-0.58346 -0.24253,0 -0.44097,-0.09 -0.44097,-0.2 0,-0.11 -0.36127,-0.35991 -0.80283,-0.55536 -1.21382,-0.53729 -3.90206,-2.38905 -4.84382,-3.3366 -0.4596,-0.46243 -1.72861,-1.26674 -2.82002,-1.78736 -1.0914,-0.52063 -2.34156,-1.25695 -2.77812,-1.63627 -0.43657,-0.37933 -1.00211,-0.75652 -1.25677,-0.83821 -0.25467,-0.0817 -0.46302,-0.25957 -0.46302,-0.39528 0,-0.13572 -0.1201,-0.24676 -0.26688,-0.24676 -0.14678,0 -0.76954,-0.36413 -1.38392,-0.80918 -1.26699,-0.9178 -1.51735,-0.72412 -0.77423,0.59896 0.28034,0.49911 0.58939,1.27029 0.68678,1.71372 0.0974,0.44344 0.38035,1.03069 0.6288,1.30502 0.71171,0.78586 2.69695,3.94194 2.69695,4.28753 0,0.17176 0.11366,0.31229 0.25259,0.31229 0.24706,0 0.44339,0.78531 0.66148,2.64583 0.0597,0.50932 0.11658,0.93793 0.1264,0.95245 0.0924,0.1367 4.22974,-0.28299 4.57924,-0.46452 z m -26.99444,-0.68637 c -0.0741,-0.40018 -0.45836,-1.20385 -0.85398,-1.78593 -0.39561,-0.58209 -1.02579,-1.71318 -1.40039,-2.51355 -0.65043,-1.38972 -0.68179,-1.41675 -0.69683,-0.60066 -0.0213,1.15385 0.7194,2.92541 1.61479,3.86234 0.40404,0.42279 0.8058,0.99297 0.89279,1.26706 0.24436,0.76992 0.59502,0.5887 0.44362,-0.22926 z m 5.94505,-0.11575 c -0.0845,-0.21107 -0.14716,-0.14837 -0.15985,0.15985 -0.0115,0.27892 0.051,0.43519 0.13896,0.34727 0.0879,-0.0879 0.0973,-0.31613 0.0209,-0.50712 z m 2.03863,-2.2066 c -0.01,-1.09169 -0.14489,-2.25103 -0.30066,-2.57632 -0.15578,-0.32529 -0.35746,-0.8197 -0.44819,-1.09869 -0.1045,-0.32138 -0.25732,-0.4149 -0.41701,-0.25521 -0.15969,0.15969 -0.0596,0.7587 0.27326,1.63458 0.57858,1.5227 0.67726,3.31923 0.24546,4.46848 -0.26807,0.71347 -0.25998,0.72519 0.19236,0.27843 0.37359,-0.36898 0.46857,-0.88094 0.45478,-2.45127 z m -4.44223,-0.9906 c 0.42221,-0.4652 0.88326,-0.93053 1.02457,-1.03408 0.14131,-0.10354 0.20076,-0.24442 0.13211,-0.31307 -0.19684,-0.19684 -1.79917,1.33206 -2.35649,2.2485 -0.40714,0.66949 -0.44496,0.92762 -0.19489,1.33038 0.27944,0.45007 0.32601,0.40604 0.46866,-0.44309 0.0871,-0.51855 0.50383,-1.32344 0.92604,-1.78864 z m 2.96224,0.70403 -0.0864,-1.29368 -0.12806,1.50893 c -0.0704,0.82991 -0.0316,1.41207 0.0864,1.29368 0.11794,-0.11838 0.17557,-0.7974 0.12806,-1.50893 z m 65.50427,0.62455 c 0.24206,-0.90323 0.1975,-2.36533 -0.0671,-2.2018 -0.2191,0.13541 -1.35364,2.36648 -1.35364,2.66194 0,0.0743 0.28377,0.13517 0.6306,0.13517 0.4303,0 0.68128,-0.18909 0.79014,-0.59531 z m -72.38646,-1.71979 c -0.17084,-0.40019 -0.39316,-0.84667 -0.49404,-0.99219 -0.10087,-0.14552 -0.33463,-0.949 -0.51946,-1.78551 -0.61986,-2.80551 0.38548,-4.53474 3.12637,-5.37746 0.91223,-0.28047 1.98379,-0.7863 2.38125,-1.12406 l 0.72265,-0.61412 -1.05834,0.52873 c -0.58208,0.2908 -1.35599,0.58819 -1.71979,0.66086 -3.52387,0.70393 -4.32153,1.37721 -4.32153,3.64767 0,0.85395 0.12466,1.82001 0.27701,2.1468 0.15235,0.3268 0.49246,1.12995 0.7558,1.7848 0.46028,1.1446 0.86767,1.85208 1.06649,1.85208 0.0518,0 -0.0456,-0.32742 -0.21641,-0.7276 z m 4.73684,-2.47914 c 0.58671,-0.52678 1.15272,-1.30033 1.2578,-1.71899 0.18077,-0.72026 0.12446,-0.69365 -1.04717,0.49477 -0.68103,0.69078 -1.39641,1.25596 -1.58974,1.25596 -0.53077,0 -1.44825,1.30545 -1.44825,2.06064 0,0.66519 0.002,0.66478 0.8803,-0.23411 0.48416,-0.49527 1.36034,-1.33149 1.94706,-1.85827 z m 39.7665,0.89948 c 0.004,-1.20241 0.98443,-3.63884 2.01822,-5.01727 0.7637,-1.0183 0.77716,-1.14214 0.12414,-1.14214 -0.91692,0 -1.31479,0.29875 -1.61686,1.21403 -0.16385,0.49645 -0.40773,0.90264 -0.54197,0.90264 -0.13423,0 -0.24768,0.20836 -0.25211,0.46302 -0.007,0.42229 -0.0304,0.42469 -0.26247,0.0273 -0.4135,-0.70821 0.40868,-2.55016 1.72657,-3.86805 0.65438,-0.65438 1.18978,-1.29318 1.18978,-1.41955 0,-1.10735 -2.87055,1.51008 -3.67723,3.35298 -0.13002,0.29702 -0.42598,0.69738 -0.6577,0.88969 -0.35103,0.29133 -0.44528,0.28718 -0.56502,-0.0249 -0.20936,-0.54558 0.54904,-2.193 1.53253,-3.329 0.46963,-0.54246 1.00271,-1.25257 1.18461,-1.57801 0.39678,-0.7099 0.43459,-1.65724 0.0661,-1.65724 -0.14552,0 -0.26458,0.18676 -0.26458,0.41501 0,0.22826 -0.53578,0.96626 -1.19062,1.64 -0.65485,0.67374 -1.19063,1.357 -1.19063,1.51836 0,0.37011 -1.32239,1.98288 -1.62587,1.98288 -0.45113,0 -0.20122,-0.76003 1.12304,-3.41543 1.41638,-2.84015 1.51006,-3.69666 0.23395,-2.13913 -0.70103,0.85564 -3.1707,5.46101 -3.1707,5.91264 0,0.10954 -0.29358,0.6312 -0.6524,1.15925 l -0.65239,0.96008 0.83355,0.54723 c 0.45845,0.30098 1.13898,0.74689 1.51229,0.99092 1.09708,0.71715 1.24238,0.54732 0.33377,-0.39013 -0.82115,-0.84722 -1.07321,-1.60148 -0.62728,-1.87708 0.12011,-0.0742 1.04284,0.69596 2.05052,1.71154 1.69606,1.70935 1.78745,1.8582 1.2304,2.00397 -0.58005,0.1518 -0.56574,0.18866 0.39687,1.02234 1.14289,0.98981 1.38529,0.8407 1.39145,-0.85596 z m -48.76051,-0.79656 c -0.0671,-0.25743 -0.12638,-0.11087 -0.13177,0.3257 -0.005,0.43656 0.0495,0.64718 0.12197,0.46805 0.0725,-0.17913 0.0769,-0.53632 0.01,-0.79375 z m 6.74923,-0.75953 c 2.11663,-1.32345 3.76642,-3.50942 3.26317,-4.32369 -0.29517,-0.4776 -0.60822,-0.31052 -0.88024,0.46981 -0.26134,0.74968 -0.79129,1.24447 -2.89937,2.70705 -1.03119,0.71545 -1.12309,0.87331 -1.10771,1.90299 0.0138,0.92503 0.0582,1.01995 0.25186,0.53886 0.1293,-0.32118 0.74683,-0.90394 1.37229,-1.29502 z m 39.3695,1.10084 c 0,-0.0642 -0.11906,-0.19026 -0.26459,-0.2802 -0.14552,-0.0899 -0.26458,-0.0374 -0.26458,0.11668 0,0.15411 0.11906,0.2802 0.26458,0.2802 0.14553,0 0.26459,-0.0525 0.26459,-0.11668 z m -46.12134,-2.31418 c -0.0845,-0.21107 -0.14716,-0.14837 -0.15986,0.15985 -0.0115,0.27892 0.0511,0.43519 0.13897,0.34727 0.0879,-0.0879 0.0973,-0.31613 0.0209,-0.50712 z m 6.26346,-1.46813 c 1.45644,-0.87113 2.20424,-1.56367 1.95625,-1.81167 -0.0779,-0.0779 -0.59911,0.10358 -1.15827,0.40327 -0.55915,0.29969 -1.15859,0.54489 -1.33208,0.54489 -0.55725,0 -1.41294,1.36445 -1.3913,2.21849 0.0206,0.81411 0.0239,0.81604 0.26639,0.15735 0.1405,-0.38167 0.85001,-1.02845 1.65901,-1.51233 z m 33.28013,-0.0786 c -0.34354,-0.28621 -0.80848,-0.52037 -1.0332,-0.52037 -0.34493,0 -0.33397,0.0824 0.0703,0.52917 0.26339,0.29104 0.72833,0.5252 1.0332,0.52036 0.53966,-0.009 0.53781,-0.0225 -0.0703,-0.52916 z m -41.31183,-0.0926 c 0,-0.0558 -0.23829,-0.16374 -0.52954,-0.2399 -0.29124,-0.0762 -0.46281,-0.0305 -0.38126,0.10143 0.14242,0.23043 0.9108,0.34725 0.9108,0.13847 z m 63.76458,-1.35377 c 0.45054,-0.65484 0.96228,-1.19086 1.13719,-1.19114 0.17491,-2.8e-4 0.73474,-0.61418 1.24406,-1.36423 1.1099,-1.63449 2.68371,-3.23336 4.02352,-4.0876 0.53944,-0.34394 1.10348,-0.85456 1.25341,-1.1347 0.29631,-0.55366 3.80662,-3.20254 4.24402,-3.20254 0.14775,0 0.26891,-0.0893 0.26926,-0.19844 3.5e-4,-0.10914 0.62812,-0.52628 1.39505,-0.92698 1.36736,-0.7144 3.17155,-2.05379 4.89643,-3.63499 0.47748,-0.43771 0.83467,-0.79481 0.79375,-0.79356 -0.3424,0.0105 -5.35577,2.7366 -5.80871,3.15858 -0.32075,0.29882 -0.66127,0.54331 -0.75672,0.54331 -0.0954,0 -0.51948,0.30073 -0.9423,0.66829 -0.42281,0.36757 -1.06619,0.74508 -1.42973,0.83892 -0.36354,0.0938 -1.19697,0.68626 -1.85208,1.31649 -2.51778,2.42218 -3.86351,3.58785 -4.56455,3.95381 -0.40018,0.2089 -0.7276,0.5371 -0.7276,0.72932 0,0.19222 -0.39046,0.75471 -0.8677,1.24998 -0.47723,0.49526 -1.22137,1.36968 -1.65364,1.94315 -0.43228,0.57348 -1.05384,1.3122 -1.38127,1.64162 -0.59369,0.59732 -0.75327,1.1706 -0.41892,1.50495 0.26543,0.26542 0.26713,0.26392 1.14653,-1.01424 z m -65.21768,0.66488 c -0.0888,-0.14364 -0.66243,-0.60588 -1.2748,-1.0272 -0.65473,-0.45046 -1.39456,-1.2966 -1.79589,-2.05394 -0.37537,-0.70835 -1.11842,-2.04349 -1.65122,-2.96697 -0.53281,-0.92349 -0.96874,-1.91278 -0.96874,-2.19843 0,-0.28565 -0.11907,-0.44578 -0.26459,-0.35584 -0.14552,0.0899 -0.26458,0.44712 -0.26458,0.79375 0,0.34663 -0.11906,0.70381 -0.26458,0.79375 -0.14553,0.0899 -0.26459,0.51565 -0.26459,0.94603 0,0.6002 0.38482,1.1822 1.65164,2.49793 0.9084,0.94348 1.79287,1.71541 1.96548,1.71541 0.17261,0 0.48564,0.17181 0.69561,0.38178 0.4152,0.4152 2.30676,1.73489 2.48668,1.73489 0.0611,0 0.0384,-0.11752 -0.0504,-0.26116 z m 3.91101,-0.79717 c 0.10803,-0.41314 0.008,-0.52917 -0.45568,-0.52917 -1.04649,0 -3.85432,-2.90641 -3.85432,-3.98965 0,-0.31922 -0.40576,-1.28355 -1.63395,-3.88325 -0.48326,-1.02289 -0.71801,-1.85674 -0.61452,-2.18281 0.11868,-0.37392 0.0466,-0.52762 -0.24724,-0.52762 -0.26903,0 -0.4147,-0.23899 -0.4147,-0.68036 0,-0.61047 -0.0416,-0.6388 -0.40451,-0.27585 -0.48794,0.48794 -0.59677,2.17743 -0.1679,2.60631 0.1693,0.1693 0.31155,0.49236 0.3161,0.71792 0.005,0.22556 0.30111,1.00542 0.65904,1.73302 0.35792,0.7276 0.65185,1.4139 0.65318,1.52509 0.001,0.1112 0.50843,0.8303 1.1269,1.59802 0.61846,0.76771 1.35571,1.71136 1.63834,2.097 0.28262,0.38564 0.78389,0.76894 1.11393,0.85178 0.33004,0.0828 0.81318,0.44344 1.07364,0.80136 0.57737,0.79338 1.02695,0.84466 1.21169,0.13821 z m -2.45791,0.1416 c 0,-0.0676 -0.2679,-0.26573 -0.59532,-0.44019 -0.53981,-0.28764 -0.56145,-0.27617 -0.23218,0.12298 0.33809,0.40984 0.8275,0.59745 0.8275,0.31721 z m -2.71744,-2.41465 c -0.54923,-0.78081 -0.8839,-1.07006 -0.9369,-0.80977 -0.0831,0.40792 1.17534,2.02448 1.57595,2.02448 0.11847,0 -0.1691,-0.54662 -0.63905,-1.21471 z m 5.88915,-0.94803 c -0.44213,-0.48398 -0.94384,-1.26692 -1.1149,-1.73986 -0.17107,-0.47294 -0.40618,-0.8599 -0.52247,-0.8599 -0.11628,0 -0.21143,-0.1305 -0.21143,-0.29 0,-0.86872 -0.87582,-3.14958 -1.2094,-3.14958 -0.20795,0 -0.3781,-0.11906 -0.3781,-0.26458 0,-0.14552 -0.11751,-0.26459 -0.26114,-0.26459 -0.14363,0 -0.007,0.56555 0.3033,1.25678 1.26543,2.81758 1.80993,4.40469 1.80993,5.27565 0,0.35479 0.32549,0.97534 0.72331,1.37899 l 0.72331,0.73393 0.47073,-0.59844 c 0.45963,-0.58432 0.45178,-0.61918 -0.33314,-1.4784 z m 2.94234,1.15805 c -0.19159,-0.0639 -0.60383,0.14087 -0.91609,0.45495 l -0.56776,0.57105 0.9161,-0.45494 c 0.52664,-0.26154 0.768,-0.5043 0.56775,-0.57106 z m 6.76117,-0.38437 c -0.0734,-0.1819 -0.13345,-0.0331 -0.13345,0.33073 0,0.3638 0.0601,0.51263 0.13345,0.33073 0.0734,-0.1819 0.0734,-0.47956 0,-0.66146 z m -3.7471,-0.26488 c 1.04176,-0.39102 2.86241,-1.52497 2.70355,-1.68383 -0.0685,-0.0685 -0.76437,0.16621 -1.54635,0.52159 -0.78198,0.35539 -1.9278,0.79608 -2.54626,0.97931 -0.61847,0.18322 -1.12448,0.44281 -1.12448,0.57686 0,0.26932 1.28172,0.0684 2.51354,-0.39393 z m -9.04444,-1.85178 c -0.36891,-0.90951 -0.73147,-1.9233 -0.80568,-2.25287 -0.0742,-0.32958 -0.23978,-0.66402 -0.36793,-0.74322 -0.12815,-0.0792 -0.23299,-0.34797 -0.23299,-0.59727 0,-0.57574 -1.5102,-2.42592 -1.98015,-2.42592 -0.21336,0 0.10988,0.69195 0.81327,1.74087 0.64206,0.95748 1.2397,2.02905 1.3281,2.38125 0.0884,0.35221 0.26688,0.64038 0.39663,0.64038 0.12974,0 0.2359,0.25384 0.2359,0.56409 0,0.49124 0.94286,2.34633 1.19254,2.34633 0.0501,0 -0.21078,-0.74414 -0.57969,-1.65364 z m 4.9434,1.13692 c 0,-0.24847 -0.25101,-0.9163 -0.96906,-2.57827 -0.20104,-0.46532 -0.71627,-1.09578 -1.14494,-1.40103 l -0.77941,-0.55499 0.40363,0.96603 c 0.222,0.53132 0.50263,1.16178 0.62362,1.40103 0.121,0.23925 0.43886,0.88148 0.70637,1.42718 0.44194,0.90154 1.15979,1.35959 1.15979,0.74005 z m 1.45758,-1.25106 c 0.26396,-0.36099 0.2254,-0.68522 -0.20455,-1.71979 -0.29141,-0.70121 -0.63302,-1.27493 -0.75914,-1.27493 -0.12612,0 -0.22931,-0.11171 -0.22931,-0.24825 0,-0.4455 -1.43724,-1.82795 -2.20003,-2.11616 -0.40966,-0.15478 -1.10277,-0.28142 -1.54026,-0.28142 -0.72311,0 -0.75762,0.0378 -0.37965,0.41577 0.22868,0.22868 0.41578,0.58586 0.41578,0.79375 0,0.21805 0.25755,0.37798 0.6087,0.37798 1.5584,0 3.36005,1.96557 3.36005,3.66576 0,0.91047 0.41827,1.08495 0.92841,0.38729 z m 2.11429,0.18028 c 0.0899,-0.14552 0.34686,-0.26458 0.57094,-0.26458 0.52141,0 2.20088,-0.76467 2.8025,-1.27599 0.55612,-0.47265 0.61362,-1.36985 0.0878,-1.36985 -0.66819,0 -1.21227,0.31213 -1.21227,0.69544 0,0.20583 -0.32742,0.51809 -0.7276,0.69391 -0.40018,0.17582 -0.78714,0.38573 -0.8599,0.46647 -0.0728,0.0807 -0.47577,0.41059 -0.89558,0.73299 -0.50401,0.38708 -0.62166,0.58619 -0.34634,0.58619 0.22932,0 0.49053,-0.11906 0.58046,-0.26458 z m -13.31295,-0.85108 c -0.18985,-0.18985 -0.31309,-0.20547 -0.31309,-0.0397 0,0.15037 0.0794,0.35278 0.17639,0.44979 0.097,0.097 0.23791,0.11487 0.31309,0.0397 0.0752,-0.0752 -0.004,-0.2776 -0.17639,-0.4498 z m 17.81087,-0.20725 c 0.0899,-0.14552 0.0374,-0.26459 -0.11668,-0.26459 -0.15411,0 -0.28019,0.11907 -0.28019,0.26459 0,0.14552 0.0525,0.26458 0.11667,0.26458 0.0642,0 0.19026,-0.11906 0.2802,-0.26458 z m -21.96611,-2.16843 c 0.2545,-1.04711 0.59751,-2.14844 0.76223,-2.44739 0.4738,-0.85989 2.89455,-3.32168 3.2663,-3.32168 0.18521,0 0.56655,-0.19677 0.84743,-0.43727 0.4609,-0.39463 0.47078,-0.4772 0.1013,-0.84667 -0.22517,-0.22517 -0.8072,-0.4094 -1.29342,-0.4094 -1.06232,0 -1.40281,-0.60354 -0.64136,-1.13687 0.56509,-0.39581 0.74529,-1.77115 0.27051,-2.06458 -0.62487,-0.38619 -0.22671,-2.13372 0.76861,-3.37344 0.3353,-0.41764 0.3041,-0.46302 -0.31828,-0.46302 -0.74027,0 -2.06375,0.50121 -2.33687,0.88498 -0.0917,0.12887 -0.14916,0.75637 -0.12769,1.39445 0.0423,1.25521 -0.17645,1.41463 -0.96351,0.70236 -0.4933,-0.44644 -0.50404,-0.41855 -0.4326,1.12372 0.0608,1.31177 -0.003,1.59624 -0.37487,1.66782 -0.30136,0.058 -0.44813,-0.0882 -0.44813,-0.44665 0,-0.29312 -0.11906,-0.60654 -0.26458,-0.69647 -0.14552,-0.0899 -0.26458,0.0578 -0.26458,0.32834 0,0.27053 -0.10564,0.60497 -0.23475,0.74322 -0.2561,0.27423 -1.08817,3.45661 -1.08817,4.16188 0,0.24043 0.16866,0.82814 0.3748,1.30602 0.20614,0.47788 0.57427,1.32663 0.81806,1.88612 0.24379,0.55948 0.37963,1.26054 0.30187,1.5579 -0.10432,0.39892 0.46629,1.69502 0.7846,1.78216 0.0167,0.005 0.2386,-0.84841 0.4931,-1.89553 z m 16.94041,1.63702 c 0.0907,-0.14675 -0.11064,-0.371 -0.44741,-0.49832 -0.76357,-0.2887 -0.90229,-0.18139 -0.44056,0.3408 0.42312,0.47852 0.66325,0.52112 0.88797,0.15752 z m -13.60206,-0.89324 c -0.15909,-0.19169 -0.3678,-0.92154 -0.46379,-1.62188 l -0.17453,-1.27336 -0.51808,0.63859 c -0.45628,0.56242 -0.46706,0.64879 -0.0904,0.72414 0.23522,0.0471 0.42768,0.23711 0.42768,0.42237 0,0.5635 0.88085,2.14118 0.99846,1.78834 0.0604,-0.18132 -0.0203,-0.48651 -0.17935,-0.6782 z m 21.05746,-0.74163 c -0.0845,-0.21106 -0.14716,-0.14837 -0.15985,0.15985 -0.0115,0.27892 0.051,0.43519 0.13896,0.34727 0.0879,-0.0879 0.0973,-0.31612 0.0209,-0.50712 z m -9.3145,-3.03653 c -0.19439,-0.19439 -0.86796,-0.3459 -1.49682,-0.33667 -0.85657,0.0126 -1.01064,0.0709 -0.61421,0.23265 0.64581,0.26346 1.9742,1.56413 2.01145,1.96947 0.0149,0.16206 0.12292,-0.11185 0.24005,-0.60868 0.15093,-0.64016 0.11,-1.0063 -0.14047,-1.25677 z m 2.66146,0.85906 c 0.29421,-0.44902 0.36609,-0.922 0.24124,-1.5875 -0.14508,-0.77332 -0.29425,-0.94792 -0.80985,-0.94792 -0.72128,0 -0.81408,-0.31326 -0.23513,-0.79375 0.54544,-0.45267 0.5017,-0.83317 -0.26054,-2.26676 -0.36158,-0.68004 -0.58723,-1.35 -0.50145,-1.4888 0.0858,-0.1388 -0.084,-0.51144 -0.37726,-0.82809 -0.29328,-0.31665 -0.66918,-1.08787 -0.83534,-1.71383 -0.16616,-0.62596 -0.46629,-1.20111 -0.66696,-1.27811 -0.52509,-0.2015 -1.98866,0.96518 -1.98866,1.58524 0,0.2886 -0.19358,0.73863 -0.43018,1.00007 -0.33783,0.3733 -0.54272,0.41511 -0.95445,0.19476 -0.37238,-0.1993 -0.60802,-0.19683 -0.81336,0.009 -0.159,0.159 -0.91798,0.28909 -1.68662,0.28909 h -1.39753 l 0.0297,1.32038 c 0.0165,0.7315 -0.12224,1.5035 -0.31104,1.731 -0.38085,0.45889 -0.17691,0.77541 0.82392,1.27875 0.32818,0.16504 0.64578,0.44891 0.70578,0.63081 0.17639,0.53478 -1.45719,0.39605 -2.02522,-0.17198 -0.52238,-0.52238 -1.08479,-0.3029 -1.08479,0.42334 0,0.18917 -0.11906,0.34395 -0.26458,0.34395 -0.14553,0 -0.26459,0.1105 -0.26459,0.24555 0,0.13505 0.68461,0.32154 1.52136,0.41442 0.83674,0.0929 1.79698,0.30431 2.13387,0.46983 0.42358,0.20812 0.66842,0.21533 0.79375,0.0234 0.0997,-0.15267 0.59795,-0.3546 1.10727,-0.44874 0.50932,-0.0941 1.46182,-0.28276 2.11667,-0.41918 0.73943,-0.15404 1.61725,-0.15428 2.31642,-6.4e-4 0.78926,0.17344 1.27312,0.15539 1.6186,-0.0604 0.83391,-0.52079 1.35665,-0.10065 1.35665,1.09037 0,0.77173 -0.10973,1.06663 -0.39688,1.06663 -0.21828,0 -0.39687,0.11907 -0.39687,0.26459 0,0.47986 0.5097,0.27566 0.93603,-0.375 z m -9.33806,-4.73468 c -0.94367,-0.63414 -1.02919,-1.32826 -0.17872,-1.45053 0.70304,-0.10106 1.96616,0.89619 1.96616,1.55233 0,0.67257 -0.69392,0.63306 -1.78744,-0.1018 z m -2.18131,-1.48929 c 0,-0.28245 -0.11906,-0.58714 -0.26458,-0.67707 -0.36573,-0.22603 -0.33221,-1.28175 0.0529,-1.66688 0.17462,-0.17462 0.82946,-0.3175 1.4552,-0.3175 0.95379,0 1.13771,-0.0839 1.13771,-0.51886 0,-0.28537 0.24488,-0.747 0.54418,-1.02584 0.54065,-0.50369 0.53127,-0.50819 -1.44366,-0.69326 -3.00256,-0.28136 -3.06927,-0.23414 -3.06927,2.17259 0,1.70536 0.0886,2.10991 0.57529,2.62801 0.70195,0.74719 1.01221,0.77748 1.01221,0.0988 z m 4.7625,-3.83646 c 0,-0.0642 -0.11906,-0.19026 -0.26458,-0.2802 -0.14552,-0.0899 -0.26458,-0.0374 -0.26458,0.11668 0,0.15411 0.11906,0.2802 0.26458,0.2802 0.14552,0 0.26458,-0.0525 0.26458,-0.11668 z"
       id="path6" /></g></svg>
