<?xml version="1.0" encoding="UTF-8" standalone="no"?>
<!-- Created with Inkscape (http://www.inkscape.org/) -->

<svg
   width="130.41963mm"
   height="57.183243mm"
   viewBox="0 0 130.41965 57.183244"
   version="1.1"
   id="svg1"
   xml:space="preserve"
   xmlns="http://www.w3.org/2000/svg"
   xmlns:svg="http://www.w3.org/2000/svg"><defs
     id="defs1" /><g
     id="layer1"
     transform="translate(475.70928,168.12335)"><path
       style="fill:#4d4d4d"
       d="m -456.56684,-111.07006 c -0.12935,-0.0748 -0.39393,-0.28784 -0.58796,-0.47343 -0.19403,-0.18559 -0.51145,-0.42199 -0.70538,-0.52533 l -0.3526,-0.18788 -0.47055,0.0149 c -0.2588,0.008 -0.80192,0.0791 -1.20694,0.15758 l -0.7364,0.1427 -0.61592,-0.1534 -0.61591,-0.15339 -0.99954,-0.48019 c -0.54975,-0.26411 -1.01718,-0.52242 -1.03873,-0.57403 -0.0216,-0.0516 -0.0891,-0.0938 -0.1501,-0.0938 -0.061,0 -0.83711,-0.48482 -1.72469,-1.07737 l -1.61379,-1.07738 -1.9853,-2.00943 c -1.09191,-1.10518 -2.11116,-2.17395 -2.26499,-2.37505 l -0.27969,-0.36561 -0.52578,0.17309 -0.52579,0.1731 -0.28822,-0.0723 -0.28823,-0.0723 -0.25203,-0.35394 -0.25203,-0.35395 -0.0204,-0.532 -0.0204,-0.53199 0.17639,-0.11152 c 0.097,-0.0613 0.32361,-0.11233 0.50355,-0.11332 l 0.32715,-0.002 0.42216,0.17639 c 0.23219,0.097 0.44216,0.17639 0.46659,0.17639 0.0244,0 0.0444,-0.31501 0.0444,-0.70002 v -0.70002 l 0.13213,-0.32891 c 0.0727,-0.18091 0.2711,-0.61306 0.44097,-0.96035 l 0.30885,-0.63144 0.80806,-0.75028 0.80807,-0.75027 h 0.15227 0.15228 l 0.0532,0.14699 0.0532,0.14699 0.15545,-0.35278 c 0.0855,-0.19403 0.26041,-0.47184 0.38869,-0.61736 l 0.23324,-0.26458 h 0.61187 0.61186 l 0.13402,0.16148 0.13402,0.16148 -0.0772,0.2013 -0.0772,0.2013 -0.39515,-0.0741 -0.39516,-0.0741 -0.0253,1.09306 c -0.0139,0.60119 -0.0171,1.30473 -0.007,1.56343 l 0.0183,0.47037 0.62439,0.56961 c 1.06412,0.97076 3.10423,2.31141 3.51735,2.31141 h 0.10565 v -0.9338 -0.9338 l -0.11759,-0.0727 -0.1176,-0.0727 v -0.32232 -0.32232 l -0.12678,-0.12678 -0.12679,-0.12679 0.0386,-0.3377 0.0386,-0.33771 0.11396,0.02 0.11396,0.02 0.16731,0.50916 c 0.092,0.28004 0.21253,0.615 0.26779,0.74435 l 0.10049,0.23519 0.0534,1.17592 0.0534,1.17593 0.50554,0.31413 c 0.27804,0.17278 0.59502,0.3183 0.70438,0.32338 0.10937,0.005 0.23156,0.0622 0.27153,0.12684 l 0.0727,0.11759 h 0.21443 0.21443 l 0.0816,-0.87034 0.0816,-0.87034 -0.0851,-0.56776 -0.0851,-0.56777 -0.27659,-0.4954 c -0.15215,-0.27247 -0.27662,-0.57949 -0.27662,-0.68225 v -0.18685 l -0.16355,-0.0628 -0.16355,-0.0628 -0.74945,-1.13887 c -0.41219,-0.62638 -0.80776,-1.27117 -0.87904,-1.43286 -0.0713,-0.16169 -0.186,-0.42627 -0.25492,-0.58796 -0.39994,-0.93825 -0.40008,-3.0582 -2.7e-4,-3.99815 0.25138,-0.59097 0.60883,-1.23677 0.7287,-1.31652 l 0.12296,-0.0818 -0.0655,-0.0655 -0.0655,-0.0655 -0.46027,0.37721 c -0.25315,0.20747 -0.73702,0.66108 -1.07526,1.00802 l -0.61498,0.63081 -0.44335,0.89688 -0.44335,0.89687 -0.0134,1.09764 c -0.007,0.6037 -0.0448,1.129 -0.0831,1.16734 l -0.0697,0.0697 -0.18146,-0.0696 -0.18146,-0.0696 1.6e-4,-0.56226 c 9e-5,-0.30924 0.0765,-0.99613 0.16985,-1.52643 l 0.16968,-0.96418 0.32992,-0.67891 0.32993,-0.6789 0.88194,-0.89813 c 0.48507,-0.49397 1.06715,-1.02284 1.29352,-1.17527 0.22636,-0.15243 0.47287,-0.3364 0.54779,-0.40883 0.0749,-0.0724 0.39242,-0.29538 0.70556,-0.49544 l 0.56933,-0.36375 0.82315,-0.19714 0.82315,-0.19714 1.23472,1.6e-4 1.23472,1.5e-4 1.01822,-0.51677 1.01822,-0.51677 h 0.47442 0.47442 l 0.18306,0.26135 0.18305,0.26135 v 0.26782 0.26782 h 0.29879 c 0.16434,0 0.64211,0.11091 1.06171,0.24647 l 0.7629,0.24647 0.23421,0.45908 0.23421,0.45909 h 0.50871 0.50871 l 0.37084,0.185 0.37085,0.185 v 0.27843 0.27843 l 0.11759,0.0727 0.11759,0.0727 v 0.54327 0.54328 l -0.13388,0.41992 c -0.26002,0.81553 -0.81396,1.65565 -1.78036,2.70013 l -0.43761,0.47298 v 0.16565 c 0,0.0911 0.11482,0.31162 0.25515,0.49001 l 0.25514,0.32437 0.69224,-0.0628 0.69224,-0.0628 0.66882,-0.32722 0.66881,-0.32722 2.11737,-2.12855 2.11736,-2.12855 0.58797,-0.27228 c 0.32337,-0.14975 0.67984,-0.3194 0.79215,-0.377 0.1123,-0.0576 0.29376,-0.10472 0.40322,-0.10472 0.10947,0 0.37477,-0.0636 0.58956,-0.14122 l 0.39053,-0.14122 v -0.13454 c 0,-0.17517 0.30296,-0.43952 0.85612,-0.74702 l 0.44455,-0.24712 h 1.05635 1.05635 l 0.2042,0.10771 c 0.1123,0.0592 0.40016,0.19284 0.63967,0.2969 0.23952,0.10405 0.50694,0.25402 0.59428,0.33326 0.0873,0.0792 0.31475,0.28688 0.50538,0.46141 l 0.34659,0.31734 0.41145,-0.18308 c 0.2263,-0.10069 0.51728,-0.22318 0.64663,-0.2722 0.12935,-0.049 0.38071,-0.14912 0.55857,-0.22245 0.17786,-0.0733 0.45567,-0.18625 0.61736,-0.25092 0.16169,-0.0647 0.41304,-0.16343 0.55856,-0.21945 0.97482,-0.37529 1.71878,-0.71832 1.7829,-0.82208 l 0.0584,-0.0945 -1.7291,-0.84671 c -0.951,-0.46568 -2.09951,-1.06 -2.55224,-1.32071 -0.45274,-0.2607 -0.91576,-0.50338 -1.02894,-0.53928 -0.11318,-0.0359 -0.20579,-0.11201 -0.20579,-0.16914 0,-0.0571 -0.0566,-0.10388 -0.1258,-0.10388 -0.0692,0 -0.34822,-0.15303 -0.62007,-0.34006 -0.74266,-0.51098 -2.65217,-1.50515 -3.25228,-1.69329 -0.29104,-0.0912 -0.89958,-0.28415 -1.35232,-0.42869 l -0.82314,-0.2628 -0.31981,-0.27517 c -0.1759,-0.15135 -0.41403,-0.42679 -0.52917,-0.61208 l -0.20936,-0.3369 -1.05833,-0.93133 c -0.58208,-0.51223 -1.08479,-0.96211 -1.11713,-0.99972 -0.0323,-0.0376 -0.66734,-0.59514 -1.41111,-1.23894 -0.74377,-0.64379 -1.41223,-1.22363 -1.48547,-1.28852 -1.60366,-1.42098 -2.16376,-1.94071 -3.10319,-2.87956 -0.61582,-0.61544 -1.40801,-1.46293 -1.76042,-1.88333 -0.35241,-0.42039 -1.01272,-1.13751 -1.46736,-1.59359 l -0.82662,-0.82924 -0.99953,-0.73445 c -0.54975,-0.40395 -1.07892,-0.79883 -1.17593,-0.87753 -0.097,-0.0787 -0.36088,-0.2739 -0.58638,-0.4338 -0.2255,-0.15989 -0.64883,-0.53242 -0.94074,-0.82783 l -0.53075,-0.53711 -1.11713,-0.76163 c -1.27586,-0.86986 -2.56278,-1.65025 -3.41018,-2.06794 -0.22637,-0.11158 -0.43804,-0.23216 -0.47037,-0.26798 -0.0323,-0.0358 -0.21755,-0.13734 -0.41158,-0.22563 -0.19403,-0.0883 -0.44466,-0.20727 -0.55697,-0.2644 -0.1123,-0.0571 -0.28428,-0.10387 -0.38217,-0.10387 h -0.17799 v -0.11759 -0.11759 h -0.28704 -0.28704 l -0.0727,-0.11759 -0.0727,-0.11759 h -0.2801 -0.28011 l -0.0643,-0.10404 c -0.0354,-0.0572 -0.21046,-0.13224 -0.38911,-0.16671 -0.17865,-0.0345 -0.51003,-0.11536 -0.73639,-0.17976 -1.3499,-0.38401 -1.86177,-0.50005 -2.90104,-0.65767 -0.63575,-0.0964 -1.4223,-0.2556 -1.7479,-0.35373 l -0.592,-0.17844 -0.25913,-0.24142 -0.25913,-0.24141 -0.0771,-0.30724 -0.0771,-0.30724 0.10508,-0.30687 0.10509,-0.30687 0.49551,-0.23518 0.49551,-0.23519 0.004,-0.19139 0.004,-0.19138 0.18266,-0.15159 0.18265,-0.15159 0.37591,0.001 0.37591,0.001 0.19019,-0.2167 0.19018,-0.2167 h 0.28362 0.28363 l 0.16951,-0.23518 0.16952,-0.23519 h 0.28624 0.28625 l -0.18643,-0.206 c -0.10254,-0.1133 -0.24097,-0.34944 -0.30762,-0.52477 l -0.1212,-0.31876 0.11864,-0.34032 0.11863,-0.34032 0.29427,-0.15748 0.29427,-0.15749 0.67024,0.15403 c 1.0652,0.2448 1.88578,0.34155 3.0221,0.35633 1.01573,0.0132 1.76436,0.0932 3.29259,0.35169 0.38806,0.0656 1.18181,0.17755 1.76389,0.24869 l 1.05834,0.12934 1.67109,0.03 1.6711,0.03 0.55196,0.34315 0.55197,0.34314 0.33838,0.66919 0.33838,0.66918 0.19998,1.4083 0.19997,1.40831 0.47238,0.13883 c 0.25981,0.0764 0.56426,0.1866 0.67657,0.24497 0.11231,0.0584 0.285,0.10613 0.38377,0.10613 0.17421,0 0.29864,0.0489 0.85095,0.33442 0.14465,0.0748 0.3438,0.13595 0.44257,0.13595 0.0988,0 0.27147,0.0471 0.38377,0.10472 0.11231,0.0576 0.44232,0.20991 0.73336,0.33847 2.6116,1.15355 4.94351,2.62446 6.31791,3.98516 0.14404,0.1426 0.46154,0.40783 0.70555,0.5894 0.24402,0.18156 0.52304,0.41153 0.62006,0.51104 0.097,0.0995 0.75847,0.65354 1.46991,1.23119 0.71143,0.57765 1.37289,1.13278 1.4699,1.23362 0.097,0.10084 0.4669,0.42052 0.82197,0.71038 0.35507,0.28987 0.81179,0.68579 1.01493,0.87982 0.20314,0.19402 0.78576,0.67351 1.2947,1.06553 2.27269,1.75055 3.11121,2.12867 5.33507,2.40573 2.02575,0.25238 2.54812,0.33668 4.40972,0.71166 1.61467,0.32523 2.0088,0.38232 4.45103,0.64472 l 0.80565,0.0866 -0.0417,-0.21642 -0.0417,-0.21641 -0.61853,-0.4768 -0.61852,-0.4768 -0.27331,-0.41157 c -0.15034,-0.22635 -0.33485,-0.59144 -0.41006,-0.81128 l -0.13673,-0.39973 0.003,-0.7762 0.003,-0.7762 0.26127,-0.50024 0.26127,-0.50023 0.7065,-0.73449 c 0.38858,-0.40397 0.89129,-0.96813 1.11713,-1.2537 0.22585,-0.28557 0.66816,-0.76991 0.98293,-1.07631 l 0.57229,-0.55709 0.54484,-0.25948 c 0.29965,-0.14271 0.63671,-0.30661 0.74902,-0.3642 l 0.20419,-0.10473 h 0.4576 0.45761 l 0.4059,-0.16959 c 0.22324,-0.0933 0.48106,-0.26116 0.57292,-0.37306 0.0919,-0.11191 0.55294,-0.45597 1.0246,-0.76458 l 0.85758,-0.56111 0.67113,-0.252 c 0.36912,-0.1386 0.98355,-0.30739 1.36541,-0.3751 l 0.69428,-0.12311 0.89806,0.12701 0.89807,0.127 0.56198,0.24089 0.56198,0.2409 0.81489,0.83286 0.81488,0.83287 v 0.21916 0.21917 l -0.11655,0.072 -0.11655,0.072 -0.6812,-0.7005 -0.6812,-0.7005 -0.47765,-0.24897 -0.47766,-0.24897 -0.81859,-0.15598 c -0.86445,-0.16471 -0.90483,-0.1652 -1.92226,-0.0232 l -0.64676,0.0903 -0.94074,0.43727 c -0.96377,0.44797 -2.12087,1.20287 -2.37913,1.55214 l -0.14486,0.19592 -0.4431,0.0668 c -0.2437,0.0368 -0.65476,0.0987 -0.91347,0.1377 -0.2587,0.039 -0.70849,0.18316 -0.99953,0.32042 l -0.52917,0.24956 -0.88195,0.90947 c -1.16797,1.20443 -2.26271,2.43379 -2.41994,2.71752 l -0.12688,0.22898 0.0905,0.54893 c 0.0498,0.30192 0.0936,0.85237 0.0975,1.22324 l 0.007,0.6743 0.33516,0.37511 0.33517,0.37511 0.45858,-0.27413 c 0.25223,-0.15077 0.62494,-0.42949 0.82825,-0.61938 l 0.36966,-0.34525 -0.34026,-0.32517 -0.34026,-0.32517 v -0.18612 c 0,-0.10236 -0.0459,-0.21451 -0.10209,-0.24921 l -0.1021,-0.0631 -0.0771,-0.58151 -0.0771,-0.58151 0.0733,-0.45847 0.0733,-0.45846 0.22618,-0.14126 0.22618,-0.14125 0.0747,0.19463 0.0747,0.19463 -0.13615,0.21801 -0.13615,0.21801 v 0.64836 0.64835 h 0.11759 0.1176 v 0.1332 c 0,0.0733 0.11393,0.23201 0.25317,0.35278 l 0.25318,0.21958 h 0.22188 c 0.12203,0 0.42933,-0.10583 0.68288,-0.23518 l 0.461,-0.23519 h 0.43201 c 0.23761,0 0.6403,-0.0624 0.89487,-0.13867 l 0.46284,-0.13868 0.37754,-0.36109 c 0.35388,-0.33848 0.54913,-0.65737 0.71163,-1.1623 l 0.0686,-0.21324 0.11842,0.0732 0.11843,0.0732 v 0.34226 0.34226 l -0.24602,0.44455 c -0.13531,0.2445 -0.40236,0.60837 -0.59345,0.80858 l -0.34743,0.36404 0.40903,0.31198 c 0.22496,0.17159 0.54837,0.36496 0.71869,0.42971 l 0.30967,0.11774 0.7273,-0.001 0.7273,-0.001 0.61536,-0.16382 c 0.33845,-0.0901 0.85112,-0.29559 1.13927,-0.45664 l 0.5239,-0.29282 0.0661,0.0661 c 0.0363,0.0363 0.0661,0.18909 0.0661,0.33945 v 0.27338 l -0.23519,0.14688 c -0.30737,0.19196 -0.29962,0.24825 0.1176,0.85465 l 0.35277,0.51275 v 0.1846 0.1846 h 0.1176 0.11759 l 0.003,0.26458 0.003,0.26459 0.22581,0.29392 0.22581,0.29393 0.37298,-0.22032 0.37298,-0.22032 0.10235,0.16158 c 0.1445,0.22812 0.1354,0.26881 -0.13777,0.61609 l -0.24372,0.30984 h -0.38122 -0.38123 l -0.257,-0.48148 c -0.14135,-0.26482 -0.257,-0.58232 -0.257,-0.70556 v -0.22406 h -0.11759 c -0.0647,0 -0.11759,-0.0558 -0.11759,-0.12405 0,-0.0682 -0.21039,-0.43385 -0.46752,-0.8125 l -0.46752,-0.68845 -0.56142,0.17105 -0.56141,0.17105 -0.94075,0.0181 -0.94074,0.0181 -0.41157,-0.21298 c -0.22667,-0.11714 -0.58385,-0.37619 -0.79405,-0.57566 l -0.38218,-0.36269 v -0.15332 -0.15332 l -0.32338,0.001 c -0.79097,0.003 -1.94695,0.52279 -2.50084,1.12425 -0.16059,0.17438 -0.54809,0.52165 -0.8611,0.7717 l -0.56913,0.45463 h 0.12815 0.12816 v 0.22825 0.22824 l 0.11759,0.0727 0.11759,0.0727 0.002,0.61042 0.002,0.61042 0.16206,0.46564 0.16206,0.46564 0.3131,0.26931 c 0.1722,0.14813 0.38595,0.26932 0.475,0.26932 h 0.16191 l 0.0716,-0.22549 c 0.0394,-0.12402 0.18427,-0.36877 0.32203,-0.5439 l 0.25046,-0.31841 0.59611,-0.27618 0.5961,-0.27618 0.1642,0.1642 0.16421,0.16421 -0.0698,0.18179 -0.0698,0.18179 -0.44449,0.18572 c -0.47386,0.19799 -0.92642,0.57001 -1.11178,0.91392 l -0.11333,0.21026 0.20555,0.4659 0.20556,0.46589 h 0.33787 0.33788 l 0.25685,-0.1317 c 0.36105,-0.18513 1.02121,-0.82777 1.02121,-0.9941 0,-0.0764 0.0816,-0.20666 0.18137,-0.28945 l 0.18137,-0.15052 0.13907,0.13906 0.13906,0.13906 -0.14405,0.23066 c -0.0792,0.12686 -0.14404,0.30122 -0.14404,0.38747 v 0.15682 l -0.42074,0.49153 -0.42074,0.49154 h 0.24595 c 0.13527,0 0.35106,0.0529 0.47953,0.11759 0.12847,0.0647 0.3387,0.17051 0.46718,0.23519 0.12847,0.0647 0.2878,0.11759 0.35406,0.11759 0.35075,0 2.59942,1.13169 3.69994,1.86208 l 0.94528,0.62735 0.62771,0.60737 c 0.68579,0.66356 1.58906,1.8642 1.71759,2.28306 l 0.0812,0.26458 h 0.10665 c 0.0587,0 0.17797,-0.14552 0.26515,-0.32337 0.14919,-0.30436 0.24789,-0.62055 0.56898,-1.82269 0.0734,-0.27487 0.17608,-0.65852 0.22812,-0.85255 0.052,-0.19402 0.15657,-0.64616 0.23227,-1.00475 l 0.13764,-0.65198 -0.0605,-0.58274 c -0.0962,-0.92599 -0.20437,-1.33342 -0.54806,-2.06437 l -0.14373,-0.3057 0.11852,-0.42926 c 0.0652,-0.23609 0.0998,-0.42925 0.0769,-0.42925 -0.0229,0 -0.17011,0.0488 -0.3271,0.10852 l -0.28593,0.10853 -0.36897,-0.22439 -0.36898,-0.22439 v -0.22997 -0.22997 l 0.10878,-0.0672 0.10878,-0.0672 0.3038,0.13842 0.3038,0.13842 0.29297,-0.1568 0.29298,-0.1568 -0.004,-0.4211 -0.004,-0.4211 -0.17265,-0.22826 -0.17265,-0.22827 v 0.24327 0.24326 l -0.17123,0.14211 -0.17124,0.14212 -0.12275,-0.0759 -0.12274,-0.0759 v -0.38657 -0.38657 l -0.1961,-0.39413 -0.19662,-0.39413 -0.11533,0.25847 c -0.0634,0.14216 -0.15915,0.25847 -0.21271,0.25847 h -0.0974 l -0.0717,-0.28549 -0.0717,-0.28549 0.0773,-0.2434 0.0773,-0.2434 0.2893,-0.0726 0.28931,-0.0726 -0.13516,-0.16285 -0.13515,-0.16285 h -0.2162 -0.21621 l -0.23319,0.25031 -0.2332,0.2503 -0.0789,0.63164 -0.0789,0.63164 h -0.15751 -0.15751 l -0.0781,-0.41627 -0.0781,-0.41627 0.14655,-0.52342 0.14655,-0.52343 0.29503,-0.29503 0.29503,-0.29502 h 0.38651 0.38652 l 0.3324,0.27972 0.3324,0.27972 0.26459,0.49574 c 0.14552,0.27266 0.26458,0.54424 0.26458,0.60351 0,0.0593 0.0983,0.33208 0.21853,0.60625 0.41721,0.9517 0.48702,1.1578 0.48702,1.43782 v 0.28151 l -0.11759,0.0727 -0.11759,0.0727 v 0.34583 0.34584 h 0.1577 c 0.0867,0 0.39547,-0.0716 0.68609,-0.15902 l 0.52838,-0.15902 0.60848,-0.39834 0.60847,-0.39834 0.16709,-0.47158 c 0.0919,-0.25936 0.16863,-0.55094 0.17051,-0.64796 0.002,-0.097 0.064,-0.41451 0.13799,-0.70555 l 0.13458,-0.52917 0.0586,-1.17516 0.0586,-1.17515 -0.14536,-0.64753 c -0.22598,-1.00674 -0.45227,-1.64637 -0.83938,-2.37267 l -0.35643,-0.66873 -0.81124,-0.83574 -0.81123,-0.83573 v -0.22405 -0.22405 l 0.12436,-0.0769 0.12436,-0.0769 0.61059,0.62849 c 1.15648,1.19036 1.83729,2.33071 2.27077,3.80348 l 0.20767,0.70556 0.007,1.46991 0.007,1.46991 -0.0852,0.47208 -0.0852,0.47209 0.46548,0.14527 c 0.25602,0.0799 0.56649,0.14528 0.68994,0.14528 h 0.22446 l 0.0644,-0.16781 0.0644,-0.1678 1.09472,-0.52727 c 3.06981,-1.47859 6.34057,-2.12792 13.26555,-2.63354 2.29793,-0.16779 10.66851,0.0246 11.03921,0.25367 0.055,0.034 0.96717,0.0657 2.02696,0.0705 1.05978,0.005 2.6148,0.0617 3.45559,0.12667 l 1.5287,0.11807 0.86999,0.17488 c 1.14933,0.23104 2.14758,0.57252 3.00588,1.02823 l 0.70088,0.37213 0.6079,0.59337 0.60791,0.59338 0.3091,0.60997 c 0.17,0.33549 0.38803,0.91302 0.4845,1.28342 l 0.17541,0.67344 v 0.56325 0.56326 h -0.11759 -0.11759 v -0.18603 c 0,-0.10232 -0.13979,-0.59103 -0.31063,-1.08602 l -0.31101,-0.89997 -0.30583,-0.47209 c -0.16821,-0.25965 -0.53598,-0.69361 -0.81726,-0.96435 l -0.51143,-0.49227 -0.90477,-0.47071 c -1.0985,-0.5715 -1.67767,-0.76725 -3.36584,-1.13759 -0.19403,-0.0426 -1.51694,-0.11883 -2.93982,-0.16948 -1.42287,-0.0506 -3.67182,-0.16422 -4.99768,-0.25239 l -2.41065,-0.1603 -4.05694,6.3e-4 -4.05695,6.3e-4 -1.5287,0.15394 c -0.84079,0.0847 -1.79329,0.17763 -2.11667,0.20659 -1.17232,0.10497 -2.49185,0.30819 -4.29213,0.66101 -2.38953,0.46831 -5.43465,1.66305 -5.99151,2.35074 l -0.19786,0.24434 -0.24897,-0.13325 -0.24897,-0.13324 h -0.35749 -0.35749 l -0.19237,0.38217 c -0.41599,0.82646 -1.15061,1.42853 -2.18078,1.78729 l -0.51391,0.17897 -0.42137,0.002 c -0.23176,9.4e-4 -0.4529,0.0332 -0.49144,0.0718 l -0.0701,0.0701 0.22685,0.40388 c 0.12477,0.22214 0.22685,0.49753 0.22685,0.61198 0,0.11445 0.0567,0.26475 0.12591,0.334 l 0.1259,0.1259 0.0395,1.16173 0.0395,1.16174 0.39312,0.18979 c 0.21622,0.10439 0.58997,0.22555 0.83057,0.26925 l 0.43744,0.0795 0.17825,-0.42661 c 0.21884,-0.52376 0.82666,-1.30597 1.14874,-1.47834 l 0.23868,-0.12774 0.10084,0.15913 c 0.15131,0.23879 0.13328,0.29423 -0.23203,0.71361 -0.43137,0.49521 -0.7184,1.05893 -0.91518,1.79738 l -0.15667,0.58796 0.002,0.70556 c 0.001,0.38805 0.0564,1.07597 0.1224,1.5287 0.066,0.45273 0.1511,1.08225 0.18916,1.39892 l 0.0692,0.57577 -0.12065,-0.0746 c -0.0663,-0.041 -0.14818,-0.22073 -0.18184,-0.39938 -0.0336,-0.17865 -0.17194,-0.74815 -0.3073,-1.26556 l -0.24612,-0.94074 -0.047,-0.99145 -0.047,-0.99146 -0.77883,-0.25235 -0.77883,-0.25235 -0.0994,0.12667 c -0.0547,0.0697 -0.12923,0.25897 -0.16575,0.42066 -0.0365,0.16169 -0.12299,0.49242 -0.19217,0.73496 -0.0692,0.24253 -0.18221,0.63941 -0.25118,0.88194 -0.069,0.24254 -0.16864,0.64452 -0.22148,0.89331 l -0.0961,0.45234 -0.22592,0.31201 -0.22592,0.31202 0.0999,0.52916 0.0999,0.52917 -0.0715,0.99954 c -0.0393,0.54974 -0.0954,1.08348 -0.12465,1.18607 l -0.0532,0.18654 2.32427,1.57183 c 1.27835,0.8645 2.3942,1.64046 2.47966,1.72434 0.0855,0.0839 0.18378,0.15251 0.21848,0.15251 h 0.0631 l -0.071,-1.20532 -0.071,-1.20533 0.23136,0.64676 0.23135,0.64676 0.003,0.68456 0.003,0.68456 0.14715,0.13859 c 0.0809,0.0762 0.41086,0.35026 0.73317,0.60896 0.32231,0.2587 0.78777,0.67777 1.03435,0.93126 l 0.44832,0.46089 -0.035,0.24467 -0.035,0.24466 h -0.13658 -0.13658 l -0.74537,-0.70726 c -0.40994,-0.389 -0.93057,-0.83705 -1.15693,-0.99567 -0.22637,-0.15862 -0.47965,-0.35443 -0.56285,-0.43514 -0.0832,-0.0807 -0.30809,-0.23938 -0.49976,-0.35261 -0.19168,-0.11322 -0.3485,-0.24737 -0.3485,-0.2981 0,-0.0507 -0.0515,-0.0922 -0.11438,-0.0922 -0.15742,0 -1.76721,-1.08225 -2.91986,-1.96301 -1.2024,-0.91878 -3.03302,-2.15273 -3.19366,-2.15273 -0.0672,0 -0.1221,-0.04 -0.1221,-0.0889 0,-0.0489 -0.17198,-0.1646 -0.38218,-0.25714 -0.64633,-0.28454 -1.72751,-0.94855 -2.15351,-1.32258 l -0.40503,-0.35562 -0.16215,-0.3696 c -0.26822,-0.61136 -0.40635,-1.0365 -0.59767,-1.83951 -0.41436,-1.73908 -0.56741,-2.05219 -1.39637,-2.85663 l -0.45957,-0.44599 -0.1702,0.24299 -0.1702,0.24299 0.15492,0.34999 c 0.0852,0.19249 0.19492,0.34999 0.24381,0.34999 h 0.0889 v 1.23472 1.23472 h -0.11936 c -0.1525,0 -1.10464,-0.94637 -1.27796,-1.27023 l -0.13006,-0.24301 v -0.87993 -0.87992 l 0.23519,-0.54867 c 0.12935,-0.30176 0.23518,-0.59606 0.23518,-0.65399 v -0.10531 l -0.32338,0.1431 c -0.37051,0.16396 -0.49571,0.28026 -0.71573,0.66486 l -0.15717,0.27474 -0.0644,0.85179 -0.0644,0.85179 0.21006,0.66786 0.21007,0.66785 -0.13048,0.13048 -0.13048,0.13048 -0.17936,-0.14885 -0.17936,-0.14886 -0.11895,-0.42824 -0.11895,-0.42824 -6.6e-4,-0.97392 -6.5e-4,-0.97392 0.17638,-0.42215 c 0.097,-0.23219 0.17639,-0.50116 0.17639,-0.59771 v -0.17556 l -0.32338,0.21048 c -0.17786,0.11576 -0.38784,0.29383 -0.46663,0.3957 l -0.14325,0.18522 -0.004,1.31739 -0.004,1.31738 0.13792,0.30271 0.13792,0.3027 -0.13293,0.13294 -0.13294,0.13293 -0.16858,-0.1399 -0.16858,-0.13991 -0.0836,-0.3784 c -0.046,-0.20811 -0.0998,-0.98566 -0.11966,-1.72787 l -0.0361,-1.34948 0.16869,-0.32621 0.1687,-0.32622 h -0.0994 c -0.15845,0 -0.84734,0.65385 -0.84734,0.80424 v 0.1365 h -0.1176 -0.11759 v 0.78011 0.7801 l 0.14053,0.48402 0.14052,0.48401 0.32985,0.28164 0.32984,0.28164 v 0.21119 0.21119 l -0.11607,0.0717 -0.11607,0.0717 -0.25888,-0.24119 c -0.14238,-0.13265 -0.30313,-0.24118 -0.35721,-0.24118 -0.16384,0 -0.36464,-0.606 -0.44811,-1.35231 l -0.0789,-0.70556 -0.0179,0.77166 -0.0179,0.77167 0.23519,0.48677 c 0.12935,0.26773 0.23518,0.59356 0.23518,0.72407 v 0.23729 l 0.23745,0.42276 c 0.27569,0.49085 0.59782,0.82777 1.17366,1.22758 0.22637,0.15717 0.43803,0.31477 0.47037,0.35022 0.12372,0.13564 0.61352,0.39128 2.29306,1.1968 0.45273,0.21713 0.92573,0.48775 1.05111,0.60136 0.12537,0.11362 0.2627,0.20658 0.30516,0.20658 0.0425,0 0.32809,0.34173 0.63474,0.75941 l 0.55754,0.7594 0.56124,0.50472 c 0.30869,0.27759 0.91954,0.82221 1.35745,1.21027 0.4379,0.38805 1.1465,1.07477 1.57466,1.52603 0.42816,0.45126 1.46639,1.51091 2.30717,2.35476 l 1.52871,1.53429 0.99953,0.65891 c 0.54975,0.3624 1.29058,0.81655 1.6463,1.00922 0.97388,0.52749 1.56996,0.88879 1.74289,1.05643 0.0855,0.0828 0.20075,0.15063 0.25618,0.15063 0.0554,0 0.17277,0.0661 0.26073,0.14699 0.19072,0.17528 0.56967,0.39885 1.20918,0.71339 0.49947,0.24567 0.69146,0.32107 1.36066,0.53444 l 0.41993,0.13389 h 0.61435 0.61436 l 0.26852,-0.26852 c 0.33771,-0.33771 0.91165,-1.38966 1.13665,-2.08333 l 0.17164,-0.52917 -0.0129,-2.76343 -0.0129,-2.76342 -0.13407,-0.33104 -0.13406,-0.33103 v -2.2854 -2.2854 h 0.1046 0.1046 l 0.0647,1.44051 c 0.0356,0.79228 0.0677,1.67863 0.0714,1.96967 0.007,0.53684 0.14017,1.48452 0.3892,2.76343 l 0.13739,0.70555 6.1e-4,1.46991 6.2e-4,1.46991 -0.14259,0.55856 c -0.0784,0.30721 -0.2039,0.80992 -0.27885,1.11713 -0.16291,0.6677 -0.50699,1.45164 -0.90663,2.06557 l -0.29205,0.44866 -0.34974,0.18086 -0.34973,0.18085 -0.88505,-0.0829 c -0.48678,-0.0456 -0.9683,-0.12429 -1.07006,-0.17483 -0.10175,-0.0505 -0.3173,-0.14347 -0.47899,-0.20651 -0.55323,-0.21569 -1.7415,-0.8297 -1.88148,-0.97222 -0.1035,-0.10538 -1.44631,-0.89335 -2.17546,-1.27657 -0.38806,-0.20395 -0.97014,-0.58103 -1.29352,-0.83795 -0.32338,-0.25692 -0.72,-0.52464 -0.88137,-0.59493 l -0.29342,-0.12781 -1.81638,-1.81498 -1.81638,-1.81499 -0.62288,0.6329 -0.62287,0.63289 -0.71706,0.36699 -0.71705,0.367 h -0.2181 c -0.11996,0 -0.24659,0.0461 -0.28139,0.10239 l -0.0633,0.1024 -0.61981,0.0931 -0.61981,0.0931 -1.88148,3e-5 -1.88149,4e-5 -1.4699,-0.1577 -1.46991,-0.15769 -1.6463,-0.002 -1.64629,-0.002 -0.67961,0.0987 -0.6796,0.0987 -0.0623,0.10078 -0.0623,0.10079 h -0.34584 -0.34584 v 0.11759 0.11759 h -0.15832 c -0.21377,0 -0.90001,0.34831 -0.90001,0.45681 0,0.0477 -0.0956,0.1894 -0.2124,0.3148 -0.11683,0.12539 -0.53952,0.71447 -0.93932,1.30906 l -0.72691,1.08107 -0.50119,0.33361 c -0.27566,0.18348 -0.65995,0.4043 -0.85397,0.49072 -0.19403,0.0864 -0.44467,0.20386 -0.55697,0.26099 -0.11231,0.0571 -0.30762,0.10387 -0.43403,0.10387 h -0.22985 l -0.0727,0.11759 -0.0727,0.11759 h -0.33889 -0.3389 l -0.065,0.10517 -0.065,0.10518 -0.44171,0.0652 c -0.79435,0.11732 -2.45311,0.46564 -3.08754,0.64835 -0.52209,0.15034 -0.87276,0.23848 -1.49931,0.37682 -0.27487,0.0607 -0.73789,0.16327 -1.02893,0.22795 -0.29104,0.0647 -0.76729,0.17051 -1.05834,0.23518 -1.34072,0.29794 -1.70364,0.38289 -2.52824,0.59182 l -0.88194,0.22345 -1.38136,0.12376 -1.38136,0.12376 -1.26448,-0.12093 -1.26447,-0.12092 -0.61116,-0.16301 -0.61116,-0.163 -0.38632,0.28502 c -0.21248,0.15677 -0.7691,0.47415 -1.23693,0.70531 l -0.85059,0.42029 -0.29369,0.29369 c -0.16153,0.16153 -0.43224,0.5301 -0.60157,0.81904 l -0.30787,0.52534 0.18493,0.46218 0.18493,0.46219 0.0763,0.64901 0.0763,0.64902 -0.21104,0.23319 c -0.24045,0.2657 -0.37108,0.28242 -0.70375,0.0901 z m 0.41158,-0.90966 c 0,-0.29965 -0.20051,-0.74734 -0.66667,-1.48852 l -0.37802,-0.60105 -0.59478,-0.50865 -0.59479,-0.50865 v -0.27202 -0.27201 h 0.21167 c 0.11641,0 0.27223,0.0606 0.34626,0.1346 l 0.13461,0.1346 0.0741,-0.2952 0.0741,-0.2952 -0.13658,-0.51556 -0.13657,-0.51556 -0.31318,-0.33254 -0.31319,-0.33255 -0.62084,-0.28481 c -0.34147,-0.15665 -0.67292,-0.28482 -0.73655,-0.28482 -0.0636,0 -0.20759,-0.0474 -0.3199,-0.10524 -0.1123,-0.0579 -0.57461,-0.28171 -1.02734,-0.49739 -0.45273,-0.21569 -0.8496,-0.42306 -0.88194,-0.46082 -0.0323,-0.0378 -0.79963,-0.42864 -1.70509,-0.8686 l -1.6463,-0.79994 -0.77015,-0.5153 c -1.00941,-0.67539 -2.34557,-2.02399 -2.34591,-2.36776 l -1.4e-4,-0.14699 h -0.1176 -0.11759 v -0.22824 c 0,-0.12554 -0.0471,-0.25734 -0.1046,-0.2929 -0.0575,-0.0356 -0.13439,-0.23711 -0.17081,-0.44791 -0.0364,-0.21079 -0.0999,-0.54634 -0.14103,-0.74566 l -0.0748,-0.36241 -0.36184,0.30361 c -1.34456,1.12815 -1.75247,1.6201 -2.05554,2.47907 l -0.14522,0.41157 -0.002,0.78961 -0.002,0.78962 0.23518,0.12586 0.23519,0.12587 0.003,0.31924 0.003,0.31925 0.42036,0.47037 c 1.6281,1.82177 3.25602,3.36452 4.27788,4.05403 0.4204,0.28367 0.78199,0.55912 0.80355,0.61212 0.0216,0.053 0.10975,0.0964 0.19599,0.0964 0.0862,0 0.17443,0.0428 0.19599,0.095 0.0545,0.13226 1.11404,0.8457 1.25591,0.8457 0.0638,0 0.13364,0.0459 0.1552,0.10193 0.0216,0.0561 0.51545,0.33388 1.09753,0.61736 l 1.05833,0.51543 h 1.88148 1.88148 l 0.52917,0.31219 c 0.29104,0.1717 0.65745,0.44952 0.81425,0.61736 l 0.28508,0.30517 h 0.15589 0.15589 z m -6.94683,-4.19593 -1.81265,-0.8978 -0.86654,-0.58474 c -1.11373,-0.75153 -1.15678,-0.78702 -2.38,-1.96181 l -1.03162,-0.99076 -0.0732,-0.2916 -0.0732,-0.2916 0.13831,-0.0855 0.13831,-0.0855 1.01504,1.02732 1.01504,1.02732 1.28549,0.84698 1.28549,0.84698 1.59553,0.77054 c 0.87754,0.4238 1.6749,0.80977 1.77191,0.85772 l 0.17639,0.0872 0.0372,0.31152 0.0372,0.31152 h -0.22305 -0.22305 z m 7.06511,1.25058 c 0.0382,-0.0323 0.18955,-0.23077 0.33636,-0.44097 l 0.26693,-0.38218 -0.27259,-6.5e-4 c -0.14993,-3.6e-4 -0.47103,-0.0558 -0.71357,-0.12312 l -0.44097,-0.12247 v -0.28507 -0.28507 l 1.38172,0.026 1.38171,0.026 0.38217,-0.16125 c 0.49648,-0.20949 0.48227,-0.2559 -0.17961,-0.58649 -0.30544,-0.15256 -0.77571,-0.4436 -1.04505,-0.64676 l -0.48971,-0.36939 -0.38488,-0.58518 -0.38489,-0.58518 -0.68142,-0.63088 -0.68143,-0.63088 -0.36406,-0.73953 c -0.20024,-0.40673 -0.41583,-0.9443 -0.47909,-1.19458 -0.26092,-1.03234 -0.30907,-1.18439 -0.51701,-1.63281 l -0.21727,-0.46855 -0.87965,-0.90954 c -0.98658,-1.0201 -1.14054,-1.2299 -1.72283,-2.34757 l -0.41036,-0.78767 v -0.23433 -0.23433 l 0.11578,-0.0716 0.11578,-0.0716 0.2076,0.3581 c 0.11418,0.19695 0.3928,0.68325 0.61917,1.08067 l 0.41157,0.72258 0.62429,0.62438 0.62428,0.62438 0.64425,0.24105 0.64425,0.24104 h 0.51125 0.51126 l 0.36823,-0.15483 0.36824,-0.15483 -0.0803,-0.0804 c -0.0442,-0.0442 -0.21706,-0.0811 -0.38414,-0.0821 -0.66658,-0.004 -1.64034,-0.48778 -2.33165,-1.15868 l -0.48776,-0.47335 -0.27821,-0.62361 c -0.43432,-0.97352 -0.79273,-2.54272 -0.79273,-3.47072 v -0.35055 l -0.19879,-0.40025 c -0.24847,-0.50027 -0.43743,-0.69422 -0.67635,-0.69422 -0.10251,0 -0.28823,-0.0636 -0.41272,-0.14135 l -0.22633,-0.14134 -0.30361,0.16249 -0.30362,0.16248 0.11997,0.11997 c 0.066,0.066 0.11941,0.20199 0.11872,0.30224 l -10e-4,0.18227 -0.46787,0.58796 -0.46787,0.58797 10e-4,2.05787 0.001,2.05787 0.22995,0.29398 c 0.12648,0.16169 0.23306,0.3469 0.23685,0.41157 0.004,0.0647 0.26809,0.46082 0.58733,0.88031 l 0.58044,0.76272 0.0755,0.34397 0.0756,0.34397 0.33098,0.2785 0.33097,0.27849 0.18039,0.5551 c 0.0992,0.3053 0.21575,0.8341 0.25898,1.17511 l 0.0786,0.62003 -0.14764,0.69572 -0.14764,0.69573 0.0687,0.27175 0.0687,0.27175 0.38678,0.15685 c 0.21273,0.0863 0.49262,0.19978 0.62197,0.25226 0.12935,0.0525 0.54362,0.23918 0.9206,0.41489 l 0.68542,0.31949 0.38261,0.38261 0.38262,0.38262 0.14605,0.52166 0.14606,0.52166 -0.0999,0.69944 -0.0999,0.69945 0.40487,0.44191 0.40487,0.44192 0.18104,-0.38312 c 0.0996,-0.21072 0.2123,-0.40958 0.25049,-0.44192 z m 8.52477,-2.04836 1.52871,-0.15617 1.94027,-0.42715 c 1.06716,-0.23493 2.33716,-0.51156 2.82223,-0.61472 0.48507,-0.10316 1.01423,-0.229 1.17592,-0.27963 0.16169,-0.0506 0.50565,-0.14675 0.76435,-0.21359 1.19285,-0.30819 1.54756,-0.40796 1.79882,-0.50596 0.14857,-0.0579 0.3968,-0.10534 0.55163,-0.10534 h 0.28151 l 0.0727,-0.1176 0.0727,-0.11759 h 0.3389 0.33889 l 0.065,-0.10517 0.065,-0.10517 0.44171,-0.0618 c 0.59212,-0.0828 1.09693,-0.19591 1.38245,-0.30984 0.53959,-0.21529 1.31023,-0.61718 1.54294,-0.80465 l 0.24942,-0.20092 1.72025,-2.54739 c 0.94615,-1.40106 1.72026,-2.60491 1.72026,-2.67523 v -0.12785 h 0.11759 0.1176 v -0.17638 -0.17639 h 0.11759 0.11759 v -0.12884 c 0,-0.0709 0.0996,-0.2693 0.22142,-0.44097 0.12178,-0.17168 0.32847,-0.50333 0.45931,-0.737 0.50701,-0.90547 0.55601,-0.98804 0.62021,-1.04504 0.1448,-0.12858 1.532,-3.08456 1.93604,-4.12553 0.2364,-0.60904 0.4735,-1.21318 0.52688,-1.34253 0.0534,-0.12935 0.13151,-0.36748 0.17362,-0.52917 0.0421,-0.16169 0.1303,-0.47919 0.19601,-0.70555 0.13649,-0.47026 0.28379,-1.25037 0.4431,-2.34662 l 0.11031,-0.75913 -0.0696,-0.58728 -0.0695,-0.58729 -0.1565,-0.29989 -0.15651,-0.29989 -7.2e-4,1.09754 -7.2e-4,1.09753 -0.14274,-0.0476 -0.14274,-0.0476 -0.004,-1.24064 -0.004,-1.24063 -0.4999,-0.48548 c -0.55935,-0.54321 -0.82687,-0.66353 -0.36039,-0.16209 l 0.30083,0.32338 0.0839,0.35277 0.0839,0.35278 -0.0118,1.27519 -0.0118,1.27518 -0.12171,0.22742 -0.12171,0.22741 -0.11183,-0.0691 -0.11184,-0.0691 0.0758,-0.98672 0.0759,-0.98672 -0.15093,-0.56435 -0.15092,-0.56435 -0.45418,-0.44098 c -0.2498,-0.24253 -0.50699,-0.44097 -0.57153,-0.44097 h -0.11736 v 0.16199 c 0,0.0891 0.0783,0.22696 0.17395,0.30636 0.0957,0.0794 0.25833,0.31077 0.36146,0.51416 l 0.18751,0.36981 0.0676,1.32291 0.0676,1.32292 h -0.13283 -0.13283 l -0.0544,-0.26458 c -0.0299,-0.14552 -0.0882,-0.65983 -0.12949,-1.14292 l -0.0751,-0.87832 -0.11985,-0.23881 c -0.15547,-0.30978 -0.93214,-1.00315 -1.12367,-1.00315 -0.20827,0 -0.19299,0.0357 0.20735,0.48384 0.1956,0.21896 0.43746,0.56527 0.53749,0.76958 l 0.18186,0.37148 -0.0532,1.09843 c -0.0293,0.60414 -0.10358,1.34697 -0.16512,1.65074 l -0.11188,0.55231 -0.15051,0.18135 -0.15051,0.18135 -0.10427,-0.0644 c -0.0573,-0.0354 -0.10427,-0.16554 -0.10427,-0.28911 0,-0.12357 -0.10282,-0.40774 -0.2285,-0.6315 l -0.2285,-0.40682 -0.13459,-0.74328 -0.13459,-0.74328 -0.12168,-0.14699 c -0.17597,-0.21258 -0.30134,-0.18126 -0.38978,0.0974 l -0.0776,0.24438 0.14188,1.01974 0.14188,1.01975 0.44529,0.88194 c 0.24491,0.48507 0.50718,1.04742 0.5828,1.24968 l 0.13751,0.36773 0.1975,-0.0149 0.19751,-0.0149 v 0.25341 0.25342 l -2.41065,2.46487 c -3.11646,3.18655 -6.93796,7.26992 -6.93796,7.41338 v 0.11204 l -0.32338,0.078 c -0.17786,0.0429 -0.93192,0.13082 -1.67569,0.19543 -3.55646,0.30894 -5.71688,0.544 -6.4088,0.6973 -0.32338,0.0717 -0.78673,0.15889 -1.02967,0.19388 l -0.44171,0.0636 -0.065,0.10517 -0.065,0.10517 h -0.66129 -0.66087 l -0.41992,-0.13388 c -0.23096,-0.0736 -0.52576,-0.17364 -0.65511,-0.22224 -0.44479,-0.16709 -1.20359,-0.34943 -1.45415,-0.34943 h -0.25094 v -0.29398 -0.29398 h 0.69862 0.69861 l 0.0727,0.11759 0.0727,0.11759 h 0.32232 0.32232 l 0.12664,0.12665 0.12665,0.12664 0.9846,-0.0547 c 0.54154,-0.0301 1.24919,-0.11726 1.57257,-0.19374 0.90228,-0.21341 2.71464,-0.43571 5.76204,-0.70677 0.71144,-0.0633 1.64958,-0.149 2.08477,-0.19049 l 0.79126,-0.0754 0.49514,-0.54502 c 1.12932,-1.24308 5.56001,-5.91049 7.13587,-7.51712 l 0.62926,-0.64154 -0.33528,-0.14826 c -0.1844,-0.0815 -0.65131,-0.29158 -1.03757,-0.46676 l -0.70229,-0.31851 -0.44937,0.0719 c -0.24716,0.0395 -0.53967,0.11822 -0.65003,0.17488 -0.31581,0.16216 -1.81587,0.84951 -2.14093,0.98102 -0.60807,0.24599 -0.88884,0.35664 -1.11713,0.44024 -0.12935,0.0474 -0.36747,0.13953 -0.52916,0.20481 -0.16169,0.0653 -0.44628,0.18014 -0.63243,0.25526 l -0.33844,0.13657 -0.20691,-0.15133 c -0.1138,-0.0832 -0.38484,-0.29156 -0.6023,-0.46295 -0.52481,-0.41362 -1.23986,-0.80551 -1.46973,-0.80551 h -0.18523 l -0.34938,0.29398 -0.34938,0.29398 h 0.18184 c 0.26635,0 1.0158,0.43941 1.43986,0.84421 l 0.36893,0.35217 0.20925,0.46405 0.20926,0.46404 -0.11894,0.11894 -0.11894,0.11894 -0.63719,-0.62261 -0.63718,-0.62261 -0.35123,-0.16071 c -0.19317,-0.0884 -0.44311,-0.20745 -0.55541,-0.26458 -0.11231,-0.0571 -0.35206,-0.10388 -0.53279,-0.10388 h -0.32859 l -0.13316,0.35278 -0.13316,0.35278 -0.56878,-0.002 -0.56878,-0.002 -0.12938,-0.0864 c -0.0712,-0.0475 -0.19268,-0.20655 -0.27003,-0.35341 l -0.14063,-0.26701 0.0835,-0.13515 0.0835,-0.13514 -0.22508,0.0921 c -0.12379,0.0507 -0.33091,0.1171 -0.46026,0.14763 -0.25657,0.0606 -1.25758,0.52282 -1.35231,0.62449 -0.0323,0.0347 -0.20232,0.15439 -0.37773,0.26596 -0.38047,0.24202 -1.43159,1.20376 -2.73193,2.49964 -1.5138,1.5086 -2.58522,2.2706 -3.46401,2.46361 l -0.38268,0.084 -0.43018,-0.0807 -0.43018,-0.0807 -0.43987,-0.47646 -0.43987,-0.47647 -0.1497,0.1217 c -0.34002,0.27644 -1.04136,0.6083 -1.44599,0.68421 l -0.4321,0.0811 -0.46142,0.50057 -0.46141,0.50058 -0.59886,0.25762 -0.59885,0.25762 -0.81791,-0.0385 -0.8179,-0.0385 0.0671,0.26458 c 0.0369,0.14552 0.1007,0.41011 0.14172,0.58797 0.041,0.17786 0.12887,0.39193 0.19523,0.47572 l 0.12065,0.15234 0.14935,-0.0573 0.14934,-0.0573 0.46204,0.3347 0.46203,0.33469 0.24234,0.39342 0.24234,0.39342 0.24158,0.94862 c 0.13287,0.52174 0.32191,1.14087 0.42008,1.37584 l 0.17851,0.42722 0.44184,0.45892 c 0.24302,0.25241 0.65455,0.59797 0.91453,0.76792 l 0.47267,0.309 0.87964,0.30883 0.87964,0.30882 1.23472,0.1511 c 1.57107,0.19226 1.3366,0.19152 3.11621,0.01 z m -24.91367,-3.88934 c 0.18525,-0.0966 0.29713,-0.18261 0.24863,-0.19109 -0.0485,-0.008 -0.12788,-0.0222 -0.17639,-0.0305 -0.0485,-0.008 -0.31468,-0.0901 -0.5915,-0.18168 l -0.5033,-0.16656 -0.1348,0.1348 -0.1348,0.1348 0.21536,0.23797 0.21535,0.23796 h 0.26231 c 0.14428,0 0.41389,-0.079 0.59914,-0.17566 z m 15.55784,-0.93057 -0.25558,-0.54371 -0.32772,-0.23336 c -0.18025,-0.12835 -0.3809,-0.23336 -0.44589,-0.23336 h -0.11817 l 0.23907,0.49977 c 0.13148,0.27487 0.43095,0.76375 0.66548,1.08641 l 0.42642,0.58664 0.036,-0.30934 0.036,-0.30933 z m 28.16262,-2.64374 c 0.0801,-0.12966 0.60129,-0.22148 2.16819,-0.38201 l 1.21942,-0.12492 1.77919,0.1299 c 0.97855,0.0714 2.41419,0.18385 3.1903,0.24978 l 1.41111,0.11987 1.29352,-0.0693 1.29352,-0.0693 0.41157,-0.12621 c 0.61213,-0.1877 0.82377,-0.27119 1.46648,-0.57849 l 0.58453,-0.27948 0.58139,-0.55254 0.58139,-0.55254 -0.16638,-0.20813 c -0.31841,-0.39829 -1.35804,-1.39404 -1.87766,-1.79841 -0.86531,-0.67338 -1.64468,-1.44346 -2.02783,-2.00366 -0.40844,-0.59717 -0.89251,-1.05797 -1.11159,-1.05819 l -0.147,-1.4e-4 v -0.11759 -0.1176 h -0.17798 c -0.0979,0 -0.26987,-0.0471 -0.38218,-0.10472 -0.1123,-0.0576 -0.46877,-0.22958 -0.79215,-0.38217 -0.32338,-0.1526 -0.6056,-0.31714 -0.62716,-0.36565 -0.0216,-0.0485 -0.0906,-0.0882 -0.15344,-0.0882 -0.17282,0 -1.38948,-0.86355 -1.94188,-1.37827 l -0.48821,-0.45492 -0.24674,-0.4393 -0.24674,-0.4393 -0.004,-0.3198 -0.004,-0.3198 -0.16806,-0.29398 -0.16805,-0.29398 -0.004,0.34443 c -0.002,0.18943 -0.0539,0.50693 -0.11468,0.70555 -0.0608,0.19862 -0.25308,0.83629 -0.42732,1.41705 -0.17425,0.58076 -0.41091,1.27545 -0.52592,1.54376 l -0.20911,0.48783 0.25426,0.12952 c 0.13984,0.0712 0.51884,0.17125 0.84222,0.22225 l 0.58796,0.0927 0.0372,0.32126 0.0372,0.32127 h -0.53858 -0.53857 l -0.23359,-0.11759 c -0.12847,-0.0647 -0.33794,-0.17004 -0.46548,-0.23413 l -0.2319,-0.11654 -0.53186,1.08668 c -0.54482,1.11315 -1.13367,2.2166 -1.23879,2.32139 -0.0325,0.0323 -0.1374,0.21755 -0.23324,0.41158 -0.18724,0.37907 -0.55341,0.97879 -1.51191,2.47626 -0.33359,0.52116 -0.60652,0.98418 -0.60652,1.02893 0,0.11857 0.32756,0.0997 0.40355,-0.0232 z m -26.46149,-2.54123 c 0.23826,-0.16169 0.51023,-0.29398 0.60437,-0.29398 h 0.17117 v 0.23757 0.23758 l 0.4723,-0.24095 0.47231,-0.24096 0.69566,-0.70217 c 0.38262,-0.3862 0.74076,-0.70218 0.79586,-0.70218 0.0551,0 0.19283,-0.15683 0.30606,-0.3485 0.11322,-0.19168 0.27267,-0.41657 0.35432,-0.49977 0.0816,-0.0832 0.31,-0.38939 0.50743,-0.68044 l 0.35897,-0.52916 0.0793,-0.50887 0.0793,-0.50886 -0.0736,-0.55491 -0.0736,-0.55491 -0.60883,-0.14155 c -0.33486,-0.0778 -0.72801,-0.14155 -0.87366,-0.14155 h -0.26483 l -0.0677,-0.17639 c -0.0943,-0.24584 -0.20485,-0.22251 -0.62643,0.13222 -0.43074,0.36245 -0.40392,0.37809 -0.60854,-0.35483 l -0.16064,-0.57539 -0.21277,-0.13017 -0.21277,-0.13016 -0.23891,0.29131 -0.23891,0.2913 h -0.47071 -0.47071 l -0.1694,-0.23165 -0.16939,-0.23166 0.0338,-0.23484 0.0338,-0.23484 0.20579,-0.0392 0.20578,-0.0392 v 0.30261 0.3026 h 0.29398 0.29399 v -0.22539 -0.22538 l -0.14151,-0.0472 -0.14151,-0.0472 0.0123,-0.433 0.0123,-0.433 h -0.0912 c -0.23597,0 -1.13975,0.38561 -1.71664,0.73243 l -0.6399,0.3847 0.0652,0.41313 0.0652,0.41313 -0.1836,0.43941 -0.1836,0.43942 h -0.17584 -0.17584 l 0.073,-0.6214 0.073,-0.6214 -0.1602,-0.12597 c -0.0881,-0.0693 -0.2734,-0.15358 -0.41176,-0.18734 l -0.25157,-0.0614 -0.11126,0.0738 c -0.0612,0.0406 -0.16566,0.17336 -0.23214,0.29506 l -0.12089,0.22127 0.13094,0.36669 c 0.072,0.20168 0.22382,0.46959 0.33736,0.59535 l 0.20644,0.22866 -0.12816,0.12412 -0.12816,0.12412 -0.4107,-0.47037 -0.41069,-0.47037 0.0384,-0.55864 0.0384,-0.55864 -0.36868,7e-5 -0.36867,8e-5 -0.60147,0.19425 -0.60146,0.19425 v 0.0962 c 0,0.0529 0.16454,0.21686 0.36564,0.36431 l 0.36565,0.26811 0.11728,0.29398 c 0.18911,0.474 0.44495,1.78462 0.44495,2.27937 0,0.56344 0.18239,1.25824 0.51293,1.95396 l 0.25142,0.52917 0.35278,0.35472 c 0.51632,0.51917 0.99026,0.82877 1.5875,1.03703 l 0.52916,0.18452 0.65975,0.006 0.65975,0.006 z m 44.56619,-5.53647 c 0.0393,-0.1023 0.0714,-0.58803 0.0714,-1.07938 v -0.89338 l -0.13389,-0.41992 c -0.46219,-1.44963 -0.92556,-2.23359 -1.97657,-3.34413 l -0.65297,-0.68995 -0.70555,-0.49432 c -0.61495,-0.43084 -2.36427,-1.3437 -3.05741,-1.59546 -0.34399,-0.12495 -0.91042,-0.3641 -1.14493,-0.4834 -0.11231,-0.0571 -0.24772,-0.10387 -0.30092,-0.10387 h -0.0967 l -0.009,0.60841 -0.009,0.60842 0.11016,-0.19684 0.11015,-0.19684 h 0.33386 0.33385 l 0.47231,0.54344 c 0.60764,0.69916 0.86452,1.23207 1.32516,2.74915 0.55296,1.82111 1.02129,2.5617 1.97691,3.1262 0.20214,0.11941 0.36752,0.25219 0.36752,0.29508 0,0.0429 0.15875,0.14372 0.35278,0.22409 0.19403,0.0804 0.35278,0.19263 0.35278,0.24945 v 0.10333 h 0.15421 c 0.0848,0 0.26782,0.10583 0.40666,0.23519 0.13884,0.12935 0.29434,0.23735 0.34555,0.24 0.0512,0.003 0.30478,0.15923 0.56349,0.34796 0.2587,0.18873 0.53085,0.34531 0.60478,0.34796 l 0.13441,0.005 z m -29.4098,-0.51599 -0.19833,-0.23163 -0.30029,0.0728 c -0.16516,0.04 -0.40467,0.14426 -0.53224,0.23163 l -0.23195,0.15884 h 0.73057 0.73057 z m 12.41237,-1.2671 c -0.0831,-0.24285 -0.2867,-0.65322 -0.45239,-0.91192 -0.3486,-0.54427 -0.51797,-0.89911 -0.69596,-1.45806 l -0.12728,-0.39972 0.003,-1.24657 0.003,-1.24658 0.21421,-0.27854 0.21421,-0.27855 0.28294,0.15076 c 0.40624,0.21646 0.53343,0.43127 0.69046,1.16611 0.0766,0.35823 0.20127,0.863 0.27715,1.1217 l 0.13796,0.47037 0.075,-0.52916 0.075,-0.52917 -0.0601,-0.82315 -0.0601,-0.82315 -0.32396,-0.35277 c -0.17818,-0.19403 -0.38323,-0.46836 -0.45567,-0.60963 l -0.1317,-0.25686 v -0.42221 -0.42222 l 0.30284,-0.11514 0.30285,-0.11514 0.25006,0.17515 0.25007,0.17516 0.20999,-0.45805 0.20998,-0.45805 0.23664,0.0619 0.23664,0.0619 v 0.10388 c 0,0.0571 0.0468,0.10388 0.10388,0.10388 h 0.10388 l 0.0607,-0.23208 0.0607,-0.23207 -0.37035,-0.0539 c -0.20438,-0.0297 -0.84729,-0.11437 -1.42938,-0.18822 -2.6328,-0.33402 -5.79292,-0.92986 -7.7611,-1.46333 -1.74454,-0.47286 -3.70417,-1.26335 -3.70417,-1.49422 v -0.0991 h -0.17639 -0.17639 v -0.11759 -0.11759 h -0.16659 c -0.0916,0 -0.18423,-0.0397 -0.20579,-0.0882 -0.0215,-0.0485 -0.33004,-0.32632 -0.68552,-0.61737 -0.35549,-0.29104 -1.01694,-0.8808 -1.46991,-1.31058 -1.0408,-0.98752 -1.41962,-1.33671 -2.08642,-1.92321 -0.77399,-0.68078 -0.91319,-0.7906 -1.56204,-1.23231 -0.32191,-0.21916 -0.61176,-0.42842 -0.6441,-0.46502 -0.0744,-0.0842 -0.79689,-0.58245 -2.29305,-1.58126 -0.64676,-0.43177 -1.23154,-0.82322 -1.29951,-0.86989 -0.12229,-0.084 -0.39258,-0.24095 -0.90536,-0.52583 -0.14552,-0.0808 -0.29104,-0.17416 -0.32338,-0.20737 -0.0323,-0.0332 -0.32338,-0.19125 -0.64675,-0.35119 -0.32338,-0.15995 -0.61443,-0.32105 -0.64676,-0.358 -0.0703,-0.0803 -1.41819,-0.71458 -1.99908,-0.94067 -2.17089,-0.84494 -4.54908,-2.88195 -5.27958,-4.52217 -0.0864,-0.19402 -0.20386,-0.44466 -0.26099,-0.55696 -0.0571,-0.11231 -0.10387,-0.27929 -0.10387,-0.37107 0,-0.0918 -0.11594,-0.38407 -0.25764,-0.64954 l -0.25763,-0.48266 -0.25924,-0.16987 -0.25925,-0.16986 -2.04076,-0.0501 c -2.07347,-0.0509 -2.87322,-0.13819 -2.98953,-0.32638 l -0.0647,-0.1046 -0.37524,-0.003 -0.37523,-0.003 -0.29398,-0.22996 -0.29399,-0.22995 -0.25764,-0.003 -0.25764,-0.003 -0.0727,-0.1176 -0.0727,-0.11759 h -1.0504 -1.0504 l -0.14687,-0.23518 -0.14688,-0.23519 h -0.28619 -0.28619 l 0.25568,0.27216 0.25568,0.27217 v 0.1982 0.19821 l -0.20578,-0.005 -0.20579,-0.005 -0.40713,-0.348 c -0.22392,-0.1914 -0.45804,-0.34799 -0.52027,-0.34799 h -0.11313 l 0.25568,0.27216 0.25568,0.27216 v 0.25006 0.25007 l -0.11383,0.0703 -0.11383,0.0704 -0.37398,-0.3574 c -0.20569,-0.19656 -0.4411,-0.35739 -0.52313,-0.35739 -0.082,0 -0.16872,-0.0587 -0.19264,-0.13049 l -0.0435,-0.13048 -0.14757,0.1778 -0.14756,0.17781 0.35765,0.25467 0.35765,0.25467 v 0.28597 0.28598 h -0.21915 -0.21915 l -0.31002,-0.31002 -0.31001,-0.31002 v -0.16035 -0.16035 h -0.35278 -0.35278 v 0.15651 0.15652 l 0.32338,0.15109 c 0.17786,0.0831 0.40275,0.19032 0.49977,0.23826 l 0.17639,0.0872 0.0404,0.20568 0.0404,0.20567 -0.11694,0.11694 -0.11694,0.11694 -0.42326,-0.15305 c -0.23279,-0.0842 -0.42325,-0.19534 -0.42325,-0.24703 v -0.094 h -0.47406 -0.47407 l -0.0712,0.18551 -0.0712,0.18551 0.16307,0.14639 0.16307,0.14639 0.64004,0.15515 c 0.35202,0.0853 0.90764,0.17357 1.23472,0.19609 0.32708,0.0225 0.7799,0.0914 1.00627,0.15308 0.69807,0.1902 1.33387,0.36844 1.76388,0.49449 0.22637,0.0663 0.55775,0.14885 0.7364,0.18332 0.17865,0.0345 0.35375,0.10949 0.38911,0.16671 l 0.0643,0.10403 h 0.2801 0.28011 l 0.0727,0.11759 0.0727,0.1176 h 0.22984 c 0.22201,0 0.33646,0.0425 0.90121,0.33441 0.14464,0.0748 0.34308,0.13596 0.44097,0.13596 h 0.17799 v 0.11759 0.11759 h 0.16444 c 0.68743,0 5.23622,2.89432 6.65593,4.23506 0.35571,0.33593 0.96426,0.82618 1.35231,1.08945 0.38806,0.26327 0.73201,0.51085 0.76435,0.55017 0.0323,0.0393 0.32338,0.26327 0.64676,0.49764 l 0.58796,0.42614 1.05834,1.10077 c 0.58208,0.60542 1.29558,1.39087 1.58555,1.74544 0.58839,0.71949 1.84772,1.97116 3.17306,3.15378 0.48294,0.43092 1.04447,0.94225 1.24784,1.13627 0.20338,0.19403 0.59546,0.53522 0.87128,0.75821 0.27583,0.22298 0.56165,0.46111 0.63516,0.52917 0.0735,0.0681 0.55598,0.49415 1.07217,0.94688 0.51618,0.45273 1.24018,1.12742 1.60887,1.49931 0.3687,0.37189 0.72499,0.67616 0.79175,0.67616 0.0668,0 0.21388,0.14552 0.32691,0.32338 0.47457,0.74674 1.19772,1.16022 2.62213,1.4993 1.19755,0.28508 1.68827,0.52563 3.46898,1.70054 0.84079,0.55474 1.68746,1.08689 1.88148,1.18256 0.19403,0.0957 0.37924,0.20368 0.41158,0.24003 0.06,0.0675 1.95388,0.99798 3.77715,1.85585 0.55756,0.26233 1.1661,0.51326 1.35232,0.55761 0.18622,0.0444 0.41796,0.14245 0.51497,0.21798 0.097,0.0755 0.44098,0.26007 0.76435,0.41008 0.32338,0.15 0.77318,0.36196 0.99954,0.471 l 0.41158,0.19827 0.15481,-0.15319 0.15481,-0.15318 z m -25.02933,0.264 c 0,-0.0323 -0.0265,-0.0588 -0.0588,-0.0588 -0.0323,0 -0.0588,0.0265 -0.0588,0.0588 0,0.0323 0.0265,0.0588 0.0588,0.0588 0.0323,0 0.0588,-0.0265 0.0588,-0.0588 z m 34.33703,-3.99457 v -0.40799 l -0.23519,-0.41873 -0.23518,-0.41873 v -0.48639 -0.48639 l -0.0649,0.0649 c -0.0357,0.0357 -0.0805,0.49757 -0.0995,1.02633 l -0.0345,0.96139 0.22558,0.28678 c 0.12407,0.15773 0.27466,0.28678 0.33464,0.28678 h 0.10906 z m -4.19409,-3.32556 0.59948,-0.61737 h 0.26068 0.26067 l 0.0747,0.23519 0.0746,0.23518 h 0.16153 c 0.0888,0 0.19423,-0.0529 0.2342,-0.11759 l 0.0727,-0.11759 h 0.2801 0.2801 l 0.0769,0.12448 0.0769,0.12447 0.37098,-0.0781 c 0.20404,-0.0429 0.42125,-0.12541 0.4827,-0.18327 l 0.11171,-0.1052 h -0.31056 -0.31056 l -0.0629,-0.10173 -0.0629,-0.10172 -0.50264,-0.0851 c -0.89646,-0.1517 -1.89698,-0.30542 -2.67809,-0.41146 -0.4204,-0.0571 -1.02161,-0.14214 -1.33603,-0.18904 l -0.57168,-0.0853 0.13134,0.2454 c 0.0722,0.13498 0.18181,0.27661 0.24351,0.31474 l 0.11218,0.0693 0.23703,-0.14803 0.23704,-0.14803 0.12295,0.12296 c 0.17494,0.17493 0.58672,1.34063 0.59775,1.69218 l 0.009,0.29564 0.0634,-0.17639 c 0.0348,-0.097 0.33314,-0.4542 0.66286,-0.79375 z m 0.95925,-1.91256 c -0.0405,-0.0656 -0.28002,-0.22453 -0.53217,-0.35317 l -0.45846,-0.23389 -0.14743,-0.26419 c -0.0811,-0.14531 -0.21435,-0.44941 -0.29614,-0.67578 l -0.14872,-0.41157 -0.0178,-0.64676 -0.0178,-0.64676 -0.0523,0.27447 -0.0523,0.27447 -1.31344,-0.0625 c -0.72239,-0.0344 -1.6574,-0.11692 -2.07779,-0.1834 -0.4204,-0.0665 -1.00248,-0.15163 -1.29352,-0.18922 -0.29104,-0.0376 -0.635,-0.11526 -0.76435,-0.1726 -0.12936,-0.0573 -0.44686,-0.13101 -0.70556,-0.16373 -0.25858,-0.0327 -0.76129,-0.11638 -1.11701,-0.1859 -0.35572,-0.0695 -1.09655,-0.17395 -1.64629,-0.23207 -3.11827,-0.32968 -4.79357,-1.07639 -7.41461,-3.30485 -0.33843,-0.28774 -0.7211,-0.59757 -0.85038,-0.68851 -0.12928,-0.0909 -0.45244,-0.36207 -0.71814,-0.6025 -0.26569,-0.24043 -1.16684,-1.03915 -2.00255,-1.77493 -0.83571,-0.73578 -1.68311,-1.49653 -1.8831,-1.69056 -0.2,-0.19403 -0.55676,-0.4975 -0.7928,-0.67438 -0.23605,-0.17688 -0.4999,-0.3904 -0.58635,-0.47449 -0.66148,-0.64346 -3.1454,-2.43771 -3.37471,-2.43771 -0.0628,0 -0.13189,-0.0399 -0.15344,-0.0887 -0.0371,-0.084 -1.38067,-0.76193 -1.95008,-0.98402 -0.55633,-0.21698 -0.91869,-0.36955 -1.11553,-0.46968 -0.11231,-0.0571 -0.30762,-0.10388 -0.43404,-0.10388 h -0.22984 l -0.0727,-0.11759 -0.0727,-0.11759 h -0.22984 c -0.12641,0 -0.32173,-0.0464 -0.43403,-0.10316 -0.29892,-0.15102 -1.01679,-0.36722 -1.2193,-0.36722 h -0.17527 l -0.23408,-0.21807 -0.23407,-0.21808 -0.15015,-1.16364 -0.15014,-1.16363 -0.24114,-0.62124 -0.24115,-0.62123 -0.45924,-0.3931 -0.45925,-0.39309 -0.55446,-0.069 c -0.30495,-0.0379 -1.32175,-0.10225 -2.25955,-0.14292 l -1.7051,-0.0739 -1.05833,-0.16143 c -0.58208,-0.0888 -1.48167,-0.2406 -1.99907,-0.33736 l -0.94074,-0.17593 -1.29352,0.0668 -1.29352,0.0667 -0.56831,-0.24784 -0.56832,-0.24784 h -0.46431 -0.46431 l -0.068,0.1773 -0.068,0.17729 0.19203,0.29308 0.19203,0.29307 h 0.25077 0.25077 l 0.39366,0.30026 0.39365,0.30025 1.08696,0.058 1.08696,0.058 0.11211,0.11211 c 0.0617,0.0617 0.23069,0.1121 0.37562,0.1121 0.14494,0 0.29008,0.043 0.32254,0.0955 0.09,0.1456 1.55596,0.5769 2.50808,0.73789 l 0.84812,0.14342 1.12235,-0.0737 1.12235,-0.0737 0.35905,0.0718 0.35905,0.0718 0.31723,0.31722 0.31722,0.31723 0.27654,0.578 c 0.1521,0.3179 0.32367,0.66989 0.38127,0.7822 0.0576,0.1123 0.10472,0.285 0.10472,0.38377 0,0.0988 0.0485,0.27147 0.10771,0.38377 0.0592,0.11231 0.19437,0.40339 0.3003,0.64686 l 0.19259,0.44266 0.43465,0.45331 c 0.60282,0.6287 1.81917,1.41822 3.29827,2.14088 2.6378,1.28879 3.54299,1.75116 3.66277,1.87094 0.11632,0.11632 0.76866,0.48624 0.97014,0.55014 0.11319,0.0359 0.20579,0.112 0.20579,0.16913 0,0.0571 0.0577,0.10388 0.12818,0.10388 0.11543,0 4.08141,2.64031 4.22275,2.81125 0.0323,0.0391 0.244,0.20905 0.47037,0.37765 0.22636,0.1686 0.577,0.45934 0.77919,0.64609 0.20219,0.18675 0.8345,0.76288 1.40514,1.28029 0.57063,0.51741 1.19968,1.09949 1.39789,1.29352 0.1982,0.19403 0.5535,0.4975 0.78954,0.67438 0.23605,0.17688 0.4999,0.39169 0.58635,0.47736 1.52276,1.50918 5.68229,2.85949 11.15208,3.6203 2.14546,0.29842 2.53891,0.35248 3.38078,0.46449 0.50124,0.0667 1.32252,0.16476 1.82506,0.21795 0.50254,0.0532 0.94792,0.13092 0.98973,0.17273 0.0418,0.0418 0.33492,0.076 0.65134,0.076 h 0.5753 z m 11.46632,-4.29045 c 0,-0.0323 -0.0265,-0.0588 -0.0588,-0.0588 -0.0323,0 -0.0588,0.0265 -0.0588,0.0588 0,0.0323 0.0265,0.0588 0.0588,0.0588 0.0323,0 0.0588,-0.0265 0.0588,-0.0588 z m -0.11759,-0.23519 c 0,-0.0323 -0.0265,-0.0588 -0.0588,-0.0588 -0.0323,0 -0.0588,0.0265 -0.0588,0.0588 0,0.0323 0.0264,0.0588 0.0588,0.0588 0.0323,0 0.0588,-0.0265 0.0588,-0.0588 z m -0.15679,-0.37238 -0.0784,-0.0784 v 0.15679 0.15679 l 0.0784,-0.0784 0.0784,-0.0784 z m -0.19599,-0.33318 c 0,-0.0323 -0.0265,-0.0588 -0.0588,-0.0588 -0.0323,0 -0.0588,0.0265 -0.0588,0.0588 0,0.0323 0.0265,0.0588 0.0588,0.0588 0.0323,0 0.0588,-0.0265 0.0588,-0.0588 z m 16.81498,32.28689 c -0.16211,-0.0493 -0.45315,-0.17171 -0.64676,-0.27199 l -0.35202,-0.18234 -0.41157,-0.45864 c -0.5799,-0.64621 -0.80961,-1.06402 -1.29455,-2.35463 l -0.14235,-0.37887 0.007,-1.29652 0.007,-1.29652 0.38027,-0.55887 c 0.20915,-0.30738 0.41278,-0.58533 0.4525,-0.61767 0.0397,-0.0323 0.19942,-0.24401 0.35487,-0.47037 0.15546,-0.22637 0.31166,-0.43803 0.34712,-0.47037 0.0354,-0.0323 0.24412,-0.40276 0.46371,-0.82315 0.62613,-1.19869 1.28341,-2.08512 3.05133,-4.11516 1.43298,-1.64542 6.41009,-6.5196 7.7455,-7.5853 0.16209,-0.12935 0.4029,-0.32779 0.53513,-0.44098 l 0.24042,-0.20578 h -0.45061 c -0.24784,0 -0.61313,0.0493 -0.81175,0.10962 -0.19862,0.0603 -0.59925,0.17216 -0.89029,0.24859 -0.29104,0.0764 -0.635,0.17852 -0.76435,0.22686 -0.12935,0.0483 -0.44685,0.15164 -0.70556,0.22955 -0.2587,0.0779 -0.5762,0.18684 -0.70555,0.24205 -0.77771,0.33194 -5.15458,2.00737 -5.64445,2.16063 -0.32338,0.10118 -1.01129,0.29701 -1.5287,0.43517 l -0.94074,0.25121 -1.41111,0.0482 -1.41111,0.0482 -0.0637,0.38117 -0.0637,0.38117 -0.0877,-0.54002 c -0.0483,-0.29701 -0.11179,-0.67268 -0.14119,-0.83482 -0.0294,-0.16213 -0.0632,-0.68642 -0.0751,-1.16507 l -0.0216,-0.87027 0.0954,-0.50264 c 0.1039,-0.54745 0.17779,-0.64439 0.3908,-0.51274 l 0.13953,0.0862 -0.163,1.00694 -0.163,1.00694 0.0811,0.39837 0.0811,0.39837 0.93626,0.0379 0.93626,0.0379 0.64676,-0.13566 c 1.77873,-0.37309 2.54994,-0.6113 4.94303,-1.52682 2.13381,-0.81633 2.58149,-0.99617 2.96347,-1.19049 0.11231,-0.0571 0.30762,-0.10387 0.43404,-0.10387 h 0.22984 l 0.0727,-0.1176 0.0727,-0.11759 h 0.2801 0.2801 l 0.0727,-0.11759 0.0727,-0.11759 h 0.28011 0.2801 l 0.0727,-0.1176 0.0727,-0.11759 h 0.39769 0.3977 l 0.063,-0.10199 0.063,-0.102 0.56127,-0.0841 c 0.30869,-0.0463 0.91304,-0.11955 1.34298,-0.16288 l 0.78173,-0.0788 0.27114,-0.23489 c 0.14912,-0.1292 0.43235,-0.37534 0.62938,-0.54699 0.19704,-0.17165 0.7803,-0.66156 1.29614,-1.08868 l 0.93789,-0.77659 0.12044,0.0401 0.12045,0.0401 v 0.27621 0.27621 l -0.76435,0.64144 c -0.4204,0.35279 -0.92326,0.77971 -1.11748,0.94871 -0.19421,0.169 -0.64383,0.5454 -0.99914,0.83644 -0.35531,0.29104 -0.75715,0.635 -0.89299,0.76435 -0.13583,0.12935 -0.42705,0.38998 -0.64715,0.57917 -0.53291,0.45807 -2.15169,1.89124 -2.79921,2.47824 -3.35821,3.04435 -7.69393,7.9555 -8.58889,9.7288 -0.0892,0.17677 -0.25957,0.42591 -0.37858,0.55365 -0.11901,0.12774 -0.2165,0.27415 -0.21665,0.32536 -1.5e-4,0.0512 -0.15891,0.27832 -0.35279,0.50469 -0.19388,0.22636 -0.44106,0.59678 -0.54928,0.82315 l -0.19677,0.41157 -0.0525,0.8933 -0.0525,0.8933 0.26582,0.753 0.26582,0.75299 0.32371,0.47037 c 0.40438,0.58758 0.74731,0.90323 1.34824,1.24098 l 0.47037,0.26438 0.88454,-0.007 0.88454,-0.007 1.05574,-0.31252 c 0.58065,-0.17189 1.32032,-0.38469 1.6437,-0.47289 l 0.58796,-0.16037 3.58658,-0.0627 3.58657,-0.0627 1.5287,-0.18131 c 1.60663,-0.19056 2.70735,-0.34185 3.88056,-0.53336 2.94451,-0.48067 3.58471,-0.57191 4.93889,-0.70383 1.7828,-0.17368 3.0662,-0.38933 3.52778,-0.59277 l 0.23518,-0.10365 1.5875,-0.058 c 2.02459,-0.074 5.19355,-0.26579 5.87963,-0.35582 0.29104,-0.0382 2.19604,-0.0931 4.23333,-0.12204 l 3.70417,-0.0526 1.23472,-0.12537 c 0.6791,-0.069 1.55222,-0.17231 1.94028,-0.22967 0.38806,-0.0574 1.09192,-0.16075 1.56414,-0.22976 0.47221,-0.069 0.93938,-0.17068 1.03815,-0.22595 l 0.17957,-0.1005 -0.2738,-0.17266 c -0.45927,-0.28961 -1.48765,-0.55239 -2.74325,-0.70097 -1.93116,-0.22852 -2.76048,-0.42921 -3.92511,-0.94984 l -0.51494,-0.23019 -0.5582,-0.57309 c -0.30701,-0.31519 -0.73675,-0.68193 -0.95497,-0.81497 l -0.39678,-0.2419 -0.35602,-4.4e-4 -0.35603,-4.4e-4 -0.93014,0.47568 -0.93013,0.47568 -0.16102,0.22987 -0.16101,0.22988 h -0.26379 -0.2638 l -0.13021,0.13021 -0.13021,0.13021 -2.42294,-0.007 -2.42293,-0.006 -0.14128,-0.0873 c -0.0777,-0.048 -0.60625,-0.13013 -1.17454,-0.18247 -1.52605,-0.14054 -3.77617,-0.40148 -5.73696,-0.66531 -1.35684,-0.18256 -2.78047,-0.36528 -3.88056,-0.49805 l -0.99954,-0.12063 -1.24743,-0.004 c -1.70444,-0.006 -2.91299,0.1575 -4.5146,0.60924 -0.25871,0.073 -0.61654,0.16088 -0.79519,0.19535 -0.17865,0.0345 -0.35375,0.10949 -0.38912,0.16671 l -0.0643,0.10403 h -0.2801 -0.2801 l -0.0727,0.11759 -0.0727,0.1176 h -0.2801 -0.2801 l -0.0727,0.11759 -0.0727,0.11759 h -0.22984 c -0.12641,0 -0.32172,0.0467 -0.43403,0.10387 -0.26899,0.13684 -0.69695,0.30963 -1.20373,0.48601 -0.22636,0.0788 -0.58355,0.21642 -0.79375,0.30585 -0.21019,0.0894 -0.55415,0.23582 -0.76435,0.32531 -0.2102,0.0895 -0.63295,0.2747 -0.93946,0.41158 -0.3065,0.13687 -0.63889,0.24886 -0.73864,0.24886 h -0.18136 l -0.0694,-0.18077 -0.0694,-0.18076 0.18596,-0.20549 0.18597,-0.20549 0.44566,-0.15874 c 0.24511,-0.0873 0.68378,-0.26272 0.97482,-0.38981 0.29104,-0.12709 0.66146,-0.2849 0.82315,-0.35067 0.16169,-0.0658 0.38587,-0.16634 0.49817,-0.22347 0.11231,-0.0571 0.31075,-0.10387 0.44098,-0.10387 h 0.23678 v -0.0963 -0.0963 l 0.59541,-0.16214 c 0.32748,-0.0892 0.62165,-0.20457 0.6537,-0.25644 0.0321,-0.0519 0.17687,-0.0943 0.32181,-0.0943 0.14494,0 0.31379,-0.0434 0.37523,-0.0964 0.0615,-0.053 0.50859,-0.21721 0.99366,-0.36486 0.48507,-0.14764 0.97383,-0.31592 1.08614,-0.37395 0.1123,-0.058 0.29751,-0.10631 0.41157,-0.10728 0.11406,-9.8e-4 0.40456,-0.0704 0.64555,-0.15439 l 0.43816,-0.15261 0.79899,-0.75696 c 1.12858,-1.0692 1.673,-1.54398 2.14644,-1.87187 0.22637,-0.15677 0.49095,-0.37067 0.58797,-0.47532 0.097,-0.10465 0.52034,-0.42069 0.94074,-0.7023 0.42039,-0.28162 0.79081,-0.54522 0.82315,-0.58577 0.0323,-0.0405 0.91981,-0.61827 1.97216,-1.28383 1.05235,-0.66555 1.98784,-1.28458 2.07886,-1.3756 0.091,-0.091 0.22221,-0.16551 0.2915,-0.16551 0.0693,0 0.12599,-0.0415 0.12599,-0.0922 0,-0.0507 0.17198,-0.19368 0.38218,-0.31765 l 0.38218,-0.22542 1.13109,-1.12286 1.13109,-1.12285 0.34625,-0.52917 c 0.65007,-0.99349 1.0976,-2.0901 1.69022,-4.14162 l 0.16033,-0.55504 0.0927,0.14347 0.0927,0.14347 -0.0721,0.52917 c -0.36725,2.69427 -1.7184,4.9746 -4.21115,7.10715 l -0.67886,0.58076 0.51161,0.13926 c 0.28139,0.0766 0.90849,0.20279 1.39356,0.28045 0.48507,0.0777 1.8609,0.32859 3.0574,0.55761 l 2.17547,0.41642 1.5287,0.0593 1.5287,0.0593 0.48973,-0.13348 0.48972,-0.13347 0.60421,-0.59163 c 0.33232,-0.3254 0.78824,-0.69499 1.01316,-0.82132 l 0.40895,-0.22969 h 0.68391 0.68391 l 0.35937,0.17928 0.35938,0.17927 0.0694,0.18096 0.0694,0.18095 0.10107,-0.0625 0.10106,-0.0625 0.53788,0.57686 0.53787,0.57686 0.44962,0.11689 c 0.2473,0.0643 1.01442,0.17509 1.70472,0.24622 l 1.2551,0.12932 0.86157,0.44464 c 0.47386,0.24456 1.05602,0.57286 1.29369,0.72957 l 0.43211,0.28491 0.36458,0.63474 0.36457,0.63474 -0.0657,0.20709 -0.0657,0.20708 -0.43698,0.0865 -0.43699,0.0865 -5.76203,0.0923 c -8.86296,0.14193 -16.68623,0.52237 -23.02091,1.11948 l -0.91351,0.0861 0.0619,0.0619 c 0.034,0.034 0.73615,0.10514 1.56027,0.15802 0.82411,0.0529 1.8688,0.14921 2.32154,0.21407 0.45273,0.0649 1.24648,0.17262 1.76388,0.23946 0.51741,0.0668 1.33762,0.17459 1.82269,0.23944 2.21899,0.29666 2.82893,0.3719 3.76296,0.46421 0.54975,0.0543 1.55516,0.16589 2.23426,0.24791 l 1.23472,0.14913 1.41112,-0.003 1.41111,-0.003 0.58796,-0.0924 0.58796,-0.0924 0.26934,-0.28019 c 0.14814,-0.15411 0.31634,-0.28019 0.37378,-0.28019 0.0574,0 0.17641,-0.0661 0.26437,-0.14699 0.19206,-0.17651 0.58543,-0.41051 1.1741,-0.69844 l 0.43529,-0.2129 h 0.41988 0.41989 l 0.55593,0.49976 c 0.30577,0.27488 0.5824,0.52972 0.61474,0.56633 0.11441,0.12952 1.12127,0.76558 1.41111,0.89144 0.67738,0.29416 0.89713,0.3787 1.17592,0.45243 1.19455,0.31587 1.82734,0.43629 3.33674,0.635 0.50935,0.067 1.20358,0.20259 1.54272,0.30118 l 0.61663,0.17926 0.15871,0.19124 c 0.34022,0.40993 0.56643,1.37779 0.35288,1.50977 -0.16855,0.10416 -1.67794,0.36185 -4.18499,0.71447 -0.2587,0.0364 -2.21662,0.11632 -4.35093,0.17763 -2.1343,0.0613 -4.80659,0.16422 -5.93842,0.22868 -3.2979,0.18782 -5.62672,0.33428 -6.73562,0.4236 l -1.03237,0.0831 -0.0623,0.10081 -0.0623,0.1008 h -0.4987 -0.49871 l -0.11172,0.10478 -0.11171,0.10478 -0.99954,0.0748 c -1.73658,0.12996 -2.8567,0.27476 -5.11527,0.66122 -2.03223,0.34774 -3.17111,0.50832 -5.05648,0.71297 l -1.17593,0.12764 -3.64537,0.0914 -3.64537,0.0914 -0.47037,0.12172 c -0.25871,0.0669 -1.05246,0.25844 -1.76389,0.42554 l -1.29352,0.30383 -0.64676,-0.009 c -0.35572,-0.005 -0.77939,-0.0494 -0.9415,-0.0987 z m 18.45997,-10.64364 c 3.89447,-0.36306 6.68128,-0.52133 13.70236,-0.77822 1.94028,-0.071 3.68653,-0.15874 3.88056,-0.19499 0.19403,-0.0363 2.59083,-0.0784 5.32622,-0.0936 l 4.97343,-0.0277 0.0648,-0.0648 0.0648,-0.0648 -0.34215,-0.31814 c -0.3756,-0.34925 -1.21453,-0.86629 -2.02348,-1.24708 l -0.52068,-0.2451 -1.32892,-0.0992 -1.32892,-0.0992 -0.44346,-0.22882 -0.44345,-0.22883 -0.41158,-0.49819 c -0.22636,-0.27401 -0.43803,-0.53239 -0.47037,-0.57417 -0.0842,-0.10881 -1.29473,-0.59397 -1.48201,-0.59397 -0.2429,0 -0.91648,0.40987 -1.63397,0.99428 -0.83612,0.68102 -1.20714,0.86831 -2.01665,1.01795 l -0.65826,0.12169 -1.44883,-0.13097 c -0.79686,-0.072 -1.80901,-0.20976 -2.24923,-0.30606 -1.32387,-0.2896 -2.72024,-0.5532 -3.9754,-0.75046 -0.38805,-0.061 -0.97014,-0.16896 -1.29352,-0.23994 -0.32338,-0.071 -0.73348,-0.15915 -0.91134,-0.19594 l -0.32338,-0.0669 v -0.10525 -0.10524 l -0.26458,0.14799 c -0.14552,0.0814 -0.29104,0.17784 -0.32338,0.21433 -0.13817,0.1559 -4.14727,2.81467 -4.24418,2.81467 -0.0587,0 -0.10675,0.0415 -0.10675,0.0922 0,0.0507 -0.15682,0.18488 -0.3485,0.29811 -0.19167,0.11322 -0.41657,0.27189 -0.49976,0.3526 -0.0832,0.0807 -0.33648,0.2756 -0.56285,0.43308 -0.22636,0.15749 -0.57032,0.43332 -0.76435,0.61295 l -0.35278,0.3266 0.46754,5.5e-4 c 0.25715,3e-4 1.28902,-0.076 2.29306,-0.16964 z m -30.31314,-4.59232 0.004,-0.35278 0.0542,0.20803 c 0.0298,0.11441 0.0279,0.27316 -0.004,0.35278 l -0.0586,0.14475 z m -0.49329,-1.64629 c 0,-0.0323 0.0265,-0.0588 0.0588,-0.0588 0.0323,0 0.0588,0.0265 0.0588,0.0588 0,0.0323 -0.0265,0.0588 -0.0588,0.0588 -0.0323,0 -0.0588,-0.0265 -0.0588,-0.0588 z m -0.23339,-0.97014 0.002,-0.32338 0.11399,0.17639 c 0.0627,0.097 0.1148,0.24253 0.11579,0.32338 l 0.002,0.14699 h -0.11759 -0.1176 z m -1.17772,-13.41144 c 0,-0.0517 0.0661,-0.16029 0.14699,-0.24123 l 0.14699,-0.14716 -0.007,-1.20913 -0.007,-1.20914 -0.13018,-0.34292 c -0.0716,-0.18861 -0.1572,-0.53822 -0.19023,-0.77693 l -0.06,-0.43401 0.16787,0.0644 0.16786,0.0644 v 0.20824 c 0,0.11454 0.0735,0.38669 0.16335,0.60478 0.0898,0.2181 0.19985,0.66864 0.24447,1.00122 l 0.0811,0.60468 -0.12688,0.0784 -0.12688,0.0784 -0.004,0.66922 -0.004,0.66921 -0.15622,0.20579 c -0.16503,0.2174 -0.30667,0.269 -0.30667,0.11171 z m -13.28796,-7.01134 v -0.16745 l 0.67615,-0.31893 c 0.37189,-0.17541 0.76805,-0.36464 0.88035,-0.42051 0.11231,-0.0559 0.35628,-0.10158 0.54216,-0.10158 h 0.33796 l 0.44195,-0.29992 0.44195,-0.29991 0.16564,0.0353 0.16563,0.0353 -0.19147,0.272 -0.19147,0.27201 -0.31151,0.12145 c -0.17133,0.0668 -0.60255,0.19642 -0.95827,0.28805 -0.64886,0.16714 -0.96658,0.28823 -1.54685,0.58952 -0.39191,0.20349 -0.45222,0.20277 -0.45222,-0.005 z m 9.99537,-0.38599 -0.29399,-0.29344 -0.52916,-0.23504 c -0.29104,-0.12927 -0.63712,-0.28568 -0.76907,-0.34757 l -0.23989,-0.11253 -0.93603,-0.0227 -0.93603,-0.0227 v -0.17639 -0.17639 l 0.99954,0.0129 0.99953,0.0129 0.69325,0.29476 c 0.75787,0.32223 1.40717,0.78949 1.60141,1.15243 l 0.12427,0.2322 -0.20993,-0.0124 -0.20992,-0.0124 z"
       id="path200-2-6" /></g></svg>
