<?xml version="1.0" encoding="UTF-8" standalone="no"?>
<!-- Created with Inkscape (http://www.inkscape.org/) -->

<svg
   width="128.04778mm"
   height="118.58755mm"
   viewBox="0 0 128.04779 118.58755"
   version="1.1"
   id="svg1"
   xml:space="preserve"
   xmlns="http://www.w3.org/2000/svg"
   xmlns:svg="http://www.w3.org/2000/svg"><defs
     id="defs1" /><g
     id="layer1"
     transform="translate(364.93214,-1176.1616)"><path
       style="fill:#4d4d4d"
       d="m -261.35564,1294.5529 c -0.163,-0.19 -0.56542,-1.4509 -0.56542,-1.7716 0,-0.186 0.34895,-0.1793 0.4014,0.01 0.28827,1.0275 0.35038,1.1465 0.59808,1.1465 0.16226,0 0.30769,-0.1128 0.3964,-0.3075 0.11871,-0.2605 0.10272,-0.3708 -0.10478,-0.7225 -0.24105,-0.4086 -0.24084,-0.7339 4.6e-4,-0.7339 0.20909,0 0.58902,0.7435 0.58948,1.1537 4.3e-4,0.3778 0.0134,0.3882 0.44141,0.3527 0.56029,-0.046 0.63996,-0.381 0.21184,-0.8898 -0.29174,-0.3467 -0.40715,-0.8518 -0.19462,-0.8518 0.058,0 0.26964,0.1871 0.47037,0.4157 0.25804,0.2939 0.36496,0.5351 0.36496,0.8232 0,0.4457 0.0249,0.4653 0.36051,0.2857 0.31891,-0.1707 0.30817,-0.9545 -0.0191,-1.3972 -0.25077,-0.3392 -0.26859,-0.7201 -0.0373,-0.7971 0.0702,-0.023 0.30139,0.2997 0.51369,0.7179 0.37123,0.7314 0.61128,0.9681 0.83914,0.8272 0.13616,-0.084 0.14106,-1.1954 0.006,-1.2477 -0.0558,-0.022 -0.13843,-0.2906 -0.18359,-0.5978 -0.0615,-0.4184 -0.0443,-0.5586 0.0685,-0.5586 0.16813,0 0.66785,0.5362 1.12349,1.2054 0.16513,0.2425 0.34064,0.4409 0.39002,0.4409 0.15529,0 0.81322,-0.8151 0.8833,-1.0943 0.15634,-0.623 -0.68348,-1.8385 -1.88628,-2.7302 -0.2587,-0.1917 -0.49683,-0.3754 -0.52917,-0.4081 -0.0323,-0.033 -0.32338,-0.2413 -0.64675,-0.4635 -0.90305,-0.6204 -2.29676,-1.7821 -4.22472,-3.5213 -0.45747,-0.4127 -0.98028,-0.8831 -1.1618,-1.0452 -0.6268,-0.56 -1.48446,-2.0086 -1.82627,-3.0846 -0.36059,-1.1352 -0.624,-3.9012 -0.38554,-4.0485 0.0572,-0.035 0.13481,0.2658 0.17249,0.6692 0.21497,2.3017 0.63982,3.6947 1.53277,5.0256 0.19527,0.2911 0.41124,0.5821 0.47994,0.6468 0.0687,0.065 0.60039,0.5403 1.18152,1.0571 0.58113,0.5167 1.13605,1.0194 1.23315,1.1171 0.33152,0.3335 1.58611,1.3677 2.41049,1.9869 0.45273,0.3401 0.90488,0.6807 1.00478,0.7568 0.0999,0.076 0.44385,0.3214 0.76435,0.5448 1.45241,1.0126 2.523,2.4468 2.523,3.3799 0,0.6777 -1.03852,1.9171 -1.60634,1.9171 -0.12882,0 -0.28149,-0.1441 -0.37388,-0.3528 -0.21778,-0.492 -0.33112,-0.4408 -0.40123,0.1812 -0.0795,0.7049 -0.37511,1.0332 -0.85013,0.9441 -0.29321,-0.055 -0.37894,-0.019 -0.47406,0.1969 -0.14329,0.3257 -0.52418,0.4136 -0.70729,0.1632 -0.12024,-0.1644 -0.15439,-0.1527 -0.2892,0.099 -0.0841,0.1571 -0.30284,0.3185 -0.48615,0.3588 -0.38025,0.083 -0.80894,-0.021 -0.80894,-0.1964 0,-0.065 -0.137,0.044 -0.30444,0.2431 -0.34331,0.408 -0.63423,0.4587 -0.89403,0.156 z m -38.70781,-0.111 c -0.0414,-0.041 -0.0752,-0.186 -0.0752,-0.3213 0,-0.33 -0.25989,-0.4717 -1.21038,-0.66 -0.64748,-0.1282 -1.01503,-0.1314 -1.94027,-0.017 -0.62782,0.078 -1.43252,0.1398 -1.78824,0.138 -1.82919,-0.01 -4.7162,-0.854 -6.50217,-1.9023 -0.31005,-0.182 -0.61432,-0.3309 -0.67615,-0.3309 -0.0618,0 -0.11242,-0.04 -0.11242,-0.089 0,-0.049 -0.14552,-0.1545 -0.32338,-0.2348 -0.17786,-0.08 -1.13177,-0.7546 -2.11979,-1.4986 -0.98803,-0.744 -1.84351,-1.3527 -1.90108,-1.3527 -0.0576,0 -0.12231,-0.042 -0.14387,-0.093 -0.0216,-0.051 -0.33806,-0.2374 -0.70334,-0.4144 -1.34729,-0.6528 -1.46957,-0.6659 -5.98481,-0.637 -3.01156,0.019 -4.33286,-0.014 -4.75753,-0.1195 -0.32338,-0.081 -1.06421,-0.2559 -1.64629,-0.3898 -0.58209,-0.1339 -1.82563,-0.427 -2.76343,-0.6513 -3.22808,-0.7722 -3.50444,-0.8219 -6.46759,-1.162 -0.56833,-0.065 -1.49135,-0.23 -2.04997,-0.3658 -0.18968,-0.046 -0.93051,-0.3733 -1.64629,-0.7269 -2.34294,-1.1577 -3.09268,-1.3509 -6.06393,-1.5626 -1.97384,-0.1406 -3.52516,-0.3051 -4.29213,-0.4552 -1.13511,-0.222 -2.22817,-0.477 -2.99861,-0.6993 -0.22636,-0.065 -0.59678,-0.1684 -0.82315,-0.2291 -0.61125,-0.1637 -1.43918,-0.4498 -2.85162,-0.9852 -1.20087,-0.4552 -1.26412,-0.496 -1.26412,-0.8156 0,-0.397 0.0464,-0.4053 0.65407,-0.1159 0.46662,0.2222 3.10073,1.1479 3.75566,1.3199 0.19402,0.051 0.56444,0.152 0.82314,0.2247 1.12999,0.3172 1.35232,0.3349 1.35232,0.1075 0,-0.1168 0.0529,-0.2451 0.11759,-0.2851 0.0647,-0.04 0.11759,-0.2252 0.11759,-0.4116 0,-0.1864 0.0473,-0.3681 0.10517,-0.4039 0.0579,-0.036 0.13515,-0.2638 0.17179,-0.5067 0.0366,-0.2429 0.12138,-0.7592 0.18832,-1.1473 0.35973,-2.0855 0.41639,-3.1033 0.40916,-7.3495 -0.004,-2.4253 -0.0516,-5.4284 -0.10553,-6.6734 -0.0706,-1.6298 -0.0617,-2.2636 0.0316,-2.2636 0.1736,0 0.21798,0.3684 0.36833,3.0574 0.36023,6.4429 0.2565,10.69 -0.33173,13.5819 -0.2013,0.9897 -0.5141,2.2056 -0.65445,2.5439 -0.0631,0.1521 0.0136,0.2079 0.36862,0.2678 0.24656,0.042 0.73933,0.1289 1.09505,0.194 0.58994,0.108 1.71589,0.2091 4.46852,0.4014 1.36537,0.095 2.6404,0.3439 3.64537,0.7107 0.36413,0.1328 2.66391,1.1941 3.2028,1.4779 0.47217,0.2487 0.65172,0.1362 0.72003,-0.451 0.0357,-0.3072 0.118,-0.8761 0.1828,-1.2641 0.0648,-0.3881 0.17105,-1.0231 0.23609,-1.4111 0.55717,-3.3244 0.82223,-5.8993 0.82916,-8.0551 0.007,-2.0956 0.42203,-6.7794 0.68225,-7.6947 0.054,-0.1898 0.16721,-0.3681 0.25166,-0.3963 0.11839,-0.039 0.13751,0.08 0.0835,0.5215 -0.33426,2.733 -0.38609,3.389 -0.54241,6.8639 -0.0684,1.5199 -0.17368,3.1868 -0.23402,3.7042 -0.308,2.641 -0.42138,3.4329 -0.88723,6.1968 -0.16021,0.9505 -0.2913,1.8566 -0.2913,2.0135 0,0.3144 -0.0186,0.3099 2.29306,0.5542 1.22573,0.1296 2.23659,0.283 3.02801,0.4595 0.30721,0.069 0.78346,0.1746 1.05833,0.2358 0.27487,0.061 0.71144,0.1628 0.97014,0.226 6.66334,1.6281 7.53628,1.7302 11.1713,1.3062 1.97217,-0.23 3.67773,0.035 4.66306,0.7251 0.17167,0.1202 0.37011,0.2185 0.44097,0.2185 0.0709,0 0.12884,0.053 0.12884,0.1176 0,0.065 0.0694,0.1176 0.15421,0.1176 0.0848,0 0.2568,0.093 0.38218,0.2058 0.71954,0.6496 3.27308,2.4972 4.1091,2.9731 2.93083,1.6687 5.36142,2.2584 8.32368,2.0196 1.33319,-0.1075 2.00766,-0.073 3.00705,0.1553 l 0.39521,0.09 -0.0688,-1.2226 c -0.0378,-0.6725 -0.0981,-2.2281 -0.13388,-3.4569 -0.0358,-1.2289 -0.095,-2.8428 -0.13166,-3.5866 -0.0366,-0.7438 -0.10229,-3.4161 -0.14592,-5.9384 -0.0436,-2.5224 -0.11656,-4.6448 -0.16205,-4.7166 -0.0754,-0.1188 -1.6578,-0.8526 -4.02866,-1.8682 -2.19114,-0.9385 -4.43593,-1.5496 -7.34954,-2.0007 -1.68194,-0.2604 -3.54033,-0.6193 -4.33707,-0.8377 -0.36334,-0.099 -0.81936,-0.2229 -1.01339,-0.2741 -0.44957,-0.1186 -3.56859,-1.1554 -3.88056,-1.29 -0.62519,-0.2696 -3.18004,-0.944 -5.17407,-1.3657 -0.51741,-0.1094 -1.15241,-0.2456 -1.41111,-0.3027 -0.25871,-0.057 -0.76141,-0.1614 -1.11713,-0.2319 -0.35572,-0.071 -0.85843,-0.1739 -1.11713,-0.2298 -0.2587,-0.056 -0.73495,-0.1565 -1.05833,-0.2236 -0.32338,-0.067 -0.82609,-0.1795 -1.11713,-0.2498 -0.29105,-0.07 -0.72794,-0.1557 -0.97088,-0.1896 -0.24294,-0.034 -0.47096,-0.1089 -0.50671,-0.1668 -0.0358,-0.058 -0.19168,-0.1051 -0.34651,-0.1051 -0.15483,0 -0.40306,-0.047 -0.55162,-0.1054 -0.14857,-0.058 -0.48178,-0.1618 -0.74049,-0.2309 -0.99634,-0.2658 -6.12576,-1.835 -6.58518,-2.0145 -0.12935,-0.051 -0.47331,-0.156 -0.76435,-0.2343 -0.29105,-0.078 -0.62106,-0.1903 -0.73336,-0.2486 -0.11231,-0.058 -0.33408,-0.1062 -0.49283,-0.1062 -0.15875,0 -0.31773,-0.047 -0.35328,-0.1046 -0.0356,-0.058 -0.23712,-0.1313 -0.44792,-0.1639 -0.21079,-0.033 -0.8066,-0.1719 -1.324,-0.3094 -1.60349,-0.4261 -4.09828,-0.8857 -7.11436,-1.3108 -3.33938,-0.4707 -4.84959,-0.7128 -5.85191,-0.9383 -0.27581,-0.062 -0.65633,-0.1128 -0.84561,-0.1128 -0.18928,0 -0.37686,-0.053 -0.41683,-0.1176 -0.04,-0.065 -0.21131,-0.1176 -0.38076,-0.1176 -0.16945,0 -0.4706,-0.049 -0.66922,-0.1096 -0.19862,-0.06 -0.59925,-0.1722 -0.89029,-0.2488 -0.29105,-0.077 -0.66146,-0.1799 -0.82315,-0.2295 -0.16169,-0.05 -0.53211,-0.1589 -0.82315,-0.2428 -0.6526,-0.1879 -0.82315,-0.3112 -0.82315,-0.5948 0,-0.27 0.27466,-0.2843 0.96603,-0.05 1.69506,0.574 4.65368,1.2245 7.20666,1.5845 0.38805,0.055 0.91722,0.1335 1.17592,0.1752 0.45053,0.072 0.84059,0.1296 2.93982,0.4301 2.74336,0.3928 5.80637,0.9916 7.46713,1.4597 0.35571,0.1003 0.85842,0.2403 1.11713,0.3112 0.2587,0.071 0.5762,0.1696 0.70555,0.2196 0.12935,0.05 0.47331,0.1549 0.76435,0.2332 0.29104,0.078 0.62106,0.1902 0.73336,0.2486 0.11231,0.058 0.285,0.1061 0.38377,0.1061 0.0988,0 0.27147,0.048 0.38377,0.1068 0.11231,0.059 0.49524,0.1945 0.85095,0.3018 0.35572,0.1073 1.50287,0.4558 2.54923,0.7745 1.93953,0.5907 2.92623,0.8731 3.71258,1.0625 0.24254,0.059 0.66587,0.1621 0.94074,0.2303 0.58563,0.1453 1.34609,0.3144 2.08727,0.4639 0.29104,0.059 0.79375,0.1646 1.11713,0.2352 0.32338,0.071 0.82609,0.1762 1.11713,0.2346 0.8018,0.1608 1.65202,0.34 2.17546,0.4584 0.25871,0.059 0.73496,0.1618 1.05834,0.2294 1.61887,0.3386 5.75859,1.5845 6.319,1.9018 0.11231,0.064 0.285,0.1156 0.38377,0.1156 0.0988,0 0.27147,0.048 0.38377,0.1062 0.11231,0.058 0.44232,0.1697 0.73336,0.2474 0.29104,0.078 0.65072,0.1887 0.79929,0.2467 0.14856,0.058 0.37417,0.1053 0.50136,0.1053 0.12719,0 0.32313,0.048 0.43544,0.1062 0.1123,0.058 0.57461,0.168 1.02734,0.2436 0.45273,0.076 1.08773,0.1857 1.41111,0.2448 0.32338,0.059 1.24942,0.2162 2.05787,0.3493 1.99721,0.3287 3.86718,0.7869 4.7625,1.1668 0.12935,0.055 0.42039,0.1634 0.64676,0.2412 0.22636,0.078 0.53064,0.1889 0.67616,0.247 0.14552,0.058 0.38364,0.1533 0.52916,0.2113 0.65725,0.2624 1.69871,0.7232 3.22911,1.4288 0.73616,0.3395 0.97909,0.5103 1.0229,0.7195 0.0316,0.1509 0.0865,1.5708 0.12208,3.1554 0.10052,4.4808 0.17838,7.325 0.24789,9.0546 0.0351,0.8731 0.10589,2.7781 0.15733,4.2334 0.0515,1.4552 0.13034,2.7252 0.17531,2.8222 0.11867,0.2559 1.06785,0.7055 1.48954,0.7055 0.51867,0 1.54526,-0.5204 2.0346,-1.0314 0.70691,-0.7382 0.93402,-1.0388 1.59444,-2.1104 1.282,-2.0803 1.5403,-2.4553 2.09279,-3.0385 0.65571,-0.6922 1.4334,-1.2449 2.07498,-1.4746 0.5053,-0.1809 0.50015,-0.1336 0.20356,-1.8701 -0.0607,-0.3557 -0.10753,-1.0965 -0.10395,-1.6463 l 0.007,-0.9995 0.10574,0.7056 c 0.2099,1.4005 0.47877,2.6409 0.69238,3.1943 0.0966,0.2503 0.11183,0.2517 0.89909,0.086 0.44046,-0.093 1.09188,-0.2237 1.4476,-0.291 0.35572,-0.067 0.80927,-0.1721 1.00789,-0.2329 0.19862,-0.061 0.45069,-0.1105 0.56016,-0.1105 0.10947,0 0.29092,-0.047 0.40322,-0.1047 0.11231,-0.058 0.46161,-0.2278 0.77622,-0.3782 0.79502,-0.3801 1.7155,-1.327 2.95575,-3.0405 1.13457,-1.5676 2.15229,-2.6444 2.85575,-3.0217 0.24027,-0.1288 0.54268,-0.292 0.67203,-0.3627 0.33606,-0.1837 1.33616,-0.6181 1.42283,-0.6181 0.0402,0 0.46534,-0.1939 0.94479,-0.4309 0.84644,-0.4183 1.21189,-0.7433 2.15969,-1.9205 0.22637,-0.2812 0.46449,-0.5733 0.52917,-0.6492 0.22539,-0.2644 0.8283,-0.6214 1.11867,-0.6624 0.26993,-0.038 0.29502,-0.095 0.32592,-0.7468 0.0184,-0.388 -0.0757,-1.7109 -0.2092,-2.9398 -0.22809,-2.0999 -0.32837,-2.8044 -0.60261,-4.2333 -0.46985,-2.4483 -0.75245,-4.1298 -0.92885,-5.5269 -0.20107,-1.5925 -0.27097,-4.2841 -0.13277,-5.1128 0.27845,-1.6698 0.27982,-1.6487 -0.10772,-1.6487 -0.27415,0 -0.34538,0.052 -0.34538,0.2508 0,0.1379 -0.11907,0.3533 -0.26459,0.4787 -0.14552,0.1253 -0.39739,0.3432 -0.55972,0.4841 -0.16233,0.141 -0.58567,0.4937 -0.94074,0.7838 -0.35508,0.2902 -0.67206,0.5572 -0.7044,0.5934 -0.0602,0.067 -2.26741,1.9012 -2.58885,2.1508 -0.36071,0.2802 -1.46991,1.1956 -1.52689,1.2602 -0.0323,0.037 -0.58796,0.4834 -1.23472,0.9928 -0.64676,0.5095 -1.20239,0.9591 -1.23472,0.9991 -0.0323,0.04 -0.24401,0.1999 -0.47037,0.3553 -0.22637,0.1555 -0.43804,0.3157 -0.47037,0.356 -0.0323,0.04 -0.48213,0.4038 -0.99954,0.8078 -0.51741,0.404 -1.02012,0.7977 -1.11713,0.8748 -0.097,0.077 -0.3616,0.2692 -0.58796,0.4269 -0.22637,0.1576 -0.43804,0.3166 -0.47037,0.3532 -0.1109,0.1256 -2.29335,1.7375 -3.76592,2.7813 -1.90123,1.3477 -6.84811,4.6306 -6.97763,4.6306 -0.0247,0 -0.52999,0.291 -1.12285,0.6468 -1.17395,0.7043 -1.57977,0.8097 -1.51794,0.3941 0.0207,-0.1389 0.11695,-0.297 0.21397,-0.3514 0.097,-0.054 0.61683,-0.3641 1.15516,-0.6882 0.53832,-0.3241 1.00197,-0.5893 1.03034,-0.5893 0.0284,0 0.43459,-0.2483 0.90271,-0.5519 0.46813,-0.3036 1.27447,-0.8226 1.79188,-1.1534 0.51741,-0.3309 1.09368,-0.7043 1.28061,-0.8298 0.18693,-0.1256 0.42506,-0.2812 0.52917,-0.3459 0.10411,-0.065 0.21575,-0.1475 0.24809,-0.1841 0.0323,-0.037 0.32338,-0.244 0.64676,-0.4608 0.58336,-0.391 3.24576,-2.2852 3.58576,-2.551 0.0975,-0.076 0.97095,-0.7341 1.94109,-1.4619 0.97014,-0.7278 2.05493,-1.555 2.41065,-1.8384 0.88377,-0.7039 0.92819,-0.7388 1.52909,-1.2031 0.29083,-0.2247 0.55524,-0.4367 0.58757,-0.4711 0.0323,-0.034 0.58797,-0.4825 1.23473,-0.9956 0.64676,-0.513 1.20238,-0.9638 1.23472,-1.0016 0.0323,-0.038 0.64088,-0.5423 1.35231,-1.1211 0.71144,-0.5788 1.36425,-1.1207 1.45069,-1.2042 0.0865,-0.083 0.34985,-0.2966 0.58536,-0.4734 0.2355,-0.1769 0.56903,-0.4539 0.74118,-0.6156 0.17215,-0.1617 0.58131,-0.5057 0.90924,-0.7644 0.32793,-0.2587 0.59835,-0.5023 0.60095,-0.5414 0.003,-0.039 -0.72289,-0.1071 -1.61218,-0.151 -0.8893,-0.044 -1.9344,-0.1332 -2.32246,-0.1983 -1.8595,-0.3122 -3.27519,-0.6195 -4.29213,-0.932 -0.16169,-0.05 -0.5321,-0.1554 -0.82315,-0.2349 -0.29104,-0.08 -0.635,-0.1848 -0.76435,-0.2338 -0.57182,-0.2169 -2.52048,-0.8248 -2.64374,-0.8248 -0.15647,0 -1.21715,0.703 -1.27601,0.8457 -0.0216,0.052 -0.11416,0.095 -0.20579,0.095 -0.0916,0 -0.16659,0.044 -0.16659,0.098 0,0.054 -0.14552,0.1728 -0.32338,0.2646 -0.17786,0.092 -0.42596,0.2594 -0.55134,0.3726 -0.12538,0.1132 -0.29294,0.2058 -0.37237,0.2058 -0.0794,0 -0.16206,0.04 -0.18362,0.088 -0.0395,0.089 -1.58594,1.0439 -2.56744,1.5856 -0.29104,0.1606 -0.74083,0.4128 -0.99953,0.5605 -0.25871,0.1476 -0.7085,0.4005 -0.99954,0.5619 -1.02008,0.5657 -2.18587,1.2412 -3.35139,1.9419 -1.02072,0.6136 -1.64361,1.0245 -3.24598,2.1411 -0.72547,0.5055 -0.24828,1.4392 1.69174,3.3102 0.92151,0.8887 1.32724,1.198 1.73164,1.3199 1.11254,0.3353 1.66901,0.6843 1.93211,1.2117 0.44948,0.901 0.0316,1.8605 -0.81038,1.8605 -0.22945,0 -0.41718,0.053 -0.41718,0.1176 0,0.2199 -0.46224,0.5837 -0.65008,0.5116 -0.10703,-0.041 -0.29998,0.037 -0.4577,0.1851 -0.19552,0.1837 -0.35566,0.2354 -0.56604,0.1826 -0.20735,-0.052 -0.31422,-0.019 -0.36443,0.1115 -0.0776,0.2022 -0.61923,0.2486 -0.89132,0.076 -0.11515,-0.073 -0.22858,-0.028 -0.36955,0.146 -0.18158,0.2243 -0.23469,0.2345 -0.49502,0.095 -0.16038,-0.086 -0.40163,-0.3518 -0.53609,-0.5911 -0.177,-0.3149 -0.41642,-0.5115 -0.86754,-0.7122 -1.34597,-0.5988 -2.67139,-1.6388 -3.90311,-3.0624 -0.2518,-0.2911 -0.86545,-0.9525 -1.36367,-1.4699 -1.71266,-1.7786 -2.13716,-2.5007 -2.1433,-3.6454 -0.008,-1.4321 0.7849,-2.2452 3.59936,-3.6927 2.66024,-1.3682 4.68852,-2.8982 7.5705,-5.7106 1.34487,-1.3124 1.42486,-1.4152 1.17593,-1.5113 -0.31031,-0.1197 -1.28199,-0.3559 -2.20739,-0.5365 -3.73638,-0.7293 -4.96921,-1.0766 -6.24471,-1.7596 -1.36324,-0.7299 -1.64699,-0.8948 -1.84279,-1.0708 -0.11163,-0.1003 -0.39678,-0.3271 -0.63367,-0.504 -0.52311,-0.3906 -0.56635,-0.4291 -1.53402,-1.3668 l -0.77157,-0.7476 -1.12188,0.535 c -1.7805,0.8489 -2.20811,0.8541 -4.90228,0.06 -0.22637,-0.067 -0.58405,-0.1486 -0.79484,-0.1821 -0.2108,-0.034 -0.41236,-0.1079 -0.44792,-0.1655 -0.0356,-0.058 -0.21715,-0.1046 -0.40354,-0.1046 -0.18639,0 -0.3716,-0.053 -0.41157,-0.1176 -0.04,-0.065 -0.22518,-0.1175 -0.41158,-0.1175 -0.18639,0 -0.3716,-0.053 -0.41157,-0.1176 -0.04,-0.065 -0.22518,-0.1176 -0.41158,-0.1176 -0.18639,0 -0.3716,-0.053 -0.41157,-0.1176 -0.04,-0.065 -0.22518,-0.1176 -0.41157,-0.1176 -0.1864,0 -0.36799,-0.047 -0.40355,-0.1046 -0.0356,-0.058 -0.23712,-0.1314 -0.44791,-0.1641 -0.2108,-0.033 -1.01305,-0.2233 -1.78278,-0.4234 -1.39983,-0.3641 -3.06416,-0.692 -4.83289,-0.9522 -2.6281,-0.3866 -3.60536,-0.6964 -4.89657,-1.5525 -0.83223,-0.5518 -1.41318,-1.2255 -1.84861,-2.1437 -0.45353,-0.9564 -0.58272,-1.6203 -0.49397,-2.5382 l 0.0739,-0.7644 0.0962,0.853 c 0.0529,0.4692 0.14374,0.8824 0.20183,0.9183 0.0581,0.036 0.10561,0.1626 0.10561,0.2816 0,0.3952 0.71135,1.5841 1.31658,2.2004 0.54997,0.56 1.51712,1.1368 2.38759,1.4239 0.86599,0.2857 2.34,0.614 2.75614,0.614 0.18817,0 0.59751,0.05 0.90966,0.1105 0.31214,0.061 0.93795,0.1714 1.39068,0.2459 0.45273,0.074 1.82856,0.3946 3.05741,0.7113 2.2041,0.568 2.99311,0.7822 5.11527,1.3885 0.85969,0.2456 1.3659,0.3851 1.76389,0.4861 0.22637,0.057 0.6497,0.1662 0.94074,0.2417 0.76779,0.1992 2.2356,0.2719 2.38912,0.1184 0.07,-0.07 0.22262,-0.1274 0.33903,-0.1274 0.11642,0 0.21167,-0.053 0.21167,-0.1176 0,-0.065 0.0761,-0.1176 0.16915,-0.1176 0.093,0 0.45021,-0.151 0.79375,-0.3357 0.34353,-0.1846 1.15377,-0.6152 1.80052,-0.9568 1.88903,-0.9978 2.68481,-1.4349 2.99862,-1.6469 0.16169,-0.1092 0.46596,-0.2728 0.67615,-0.3634 0.2102,-0.091 0.38218,-0.2047 0.38218,-0.2536 0,-0.049 0.0468,-0.089 0.104,-0.089 0.10948,0 3.12487,-1.8663 4.38824,-2.7159 1.98768,-1.3368 3.63913,-2.5748 4.06297,-3.0457 0.297,-0.3301 0.7346,-1.201 0.7346,-1.4621 0,-0.094 0.0473,-0.2 0.10517,-0.2358 0.0579,-0.036 0.13453,-0.2637 0.17042,-0.5067 0.18514,-1.2535 0.38003,-2.0394 0.77223,-3.114 0.13514,-0.3703 0.2457,-0.7539 0.2457,-0.8525 0,-0.3111 -0.20086,-0.1948 -0.35038,0.2028 -0.21454,0.5705 -0.30852,0.8003 -0.56236,1.3749 -0.20718,0.4691 -0.24319,0.4991 -0.35281,0.294 -0.11581,-0.2167 -0.0123,-0.7177 0.31429,-1.5219 0.34535,-0.8502 0.4985,-1.9201 0.25315,-1.7685 -0.17856,0.1104 -0.47781,0.7831 -0.47781,1.0741 0,0.1479 -0.0471,0.298 -0.1046,0.3336 -0.0575,0.036 -0.1344,0.2371 -0.17081,0.4479 -0.16192,0.9373 -0.23159,1.1549 -0.35605,1.1121 -0.22023,-0.076 -0.1421,-0.7031 0.29576,-2.3751 0.0677,-0.2587 0.14942,-0.735 0.18148,-1.0584 0.0467,-0.4711 0.0289,-0.5595 -0.0899,-0.4447 -0.16679,0.1612 -0.457,0.9331 -0.4597,1.2226 -9.7e-4,0.1045 -0.0969,0.3162 -0.21321,0.4704 -0.1163,0.1543 -0.28194,0.5715 -0.3681,0.9272 -0.18114,0.7479 -0.32281,1.0583 -0.48293,1.0583 -0.17908,0 -0.13732,-0.3146 0.23964,-1.8058 0.36225,-1.433 0.43654,-2.1265 0.24077,-2.2475 -0.15867,-0.098 -0.32812,0.2657 -0.7867,1.6886 -0.32396,1.0052 -0.84108,2.2501 -1.07988,2.5997 -0.0885,0.1296 -0.37358,-0.4184 -0.37358,-0.7181 0,-0.3697 -0.38848,-1.3332 -0.63825,-1.583 -0.13398,-0.134 -0.19014,-0.1386 -0.2656,-0.022 -0.0526,0.081 -0.097,1.2856 -0.0985,2.6761 -0.002,1.7246 -0.0471,2.607 -0.14205,2.7759 -0.0766,0.1362 -0.12822,0.3966 -0.11476,0.5788 0.0249,0.3369 -0.15284,0.4458 -1.62184,0.9945 -0.12935,0.048 -0.36748,0.1427 -0.52917,0.2097 -0.61656,0.2556 -4.01467,1.4886 -4.82129,1.7494 -0.54042,0.1748 -0.9577,0.3408 -1.32132,0.5258 -0.11231,0.057 -0.30762,0.1039 -0.43404,0.1039 -0.12641,0 -0.26254,0.053 -0.30251,0.1176 -0.04,0.065 -0.17611,0.1176 -0.30252,0.1176 -0.12641,0 -0.32173,0.052 -0.43403,0.1164 -0.36163,0.2062 -3.80255,1.2947 -4.09275,1.2947 -0.15434,0 -0.63901,-0.1362 -1.07705,-0.3026 -0.43804,-0.1665 -1.03456,-0.3808 -1.3256,-0.4763 -0.29104,-0.096 -0.635,-0.2205 -0.76435,-0.2776 -0.12935,-0.057 -0.44685,-0.1711 -0.70555,-0.2533 -0.25871,-0.082 -0.52065,-0.1915 -0.58209,-0.2429 -0.0614,-0.052 -0.20768,-0.094 -0.32497,-0.094 -0.1173,0 -0.30515,-0.05 -0.41746,-0.1121 -0.39347,-0.2159 -5.30221,-1.7216 -6.04733,-1.855 -0.46839,-0.084 -0.72279,-0.4033 -0.53053,-0.6663 0.11921,-0.163 0.21144,-0.1823 0.44003,-0.092 0.15906,0.063 0.50086,0.172 0.75957,0.2429 1.58785,0.435 5.5002,1.65 5.73104,1.7798 0.11231,0.063 0.285,0.1149 0.38377,0.1149 0.0988,0 0.2847,0.053 0.41317,0.1176 0.12848,0.065 0.33871,0.1705 0.46718,0.2352 0.12848,0.065 0.3144,0.1176 0.41317,0.1176 0.0988,0 0.2847,0.053 0.41317,0.1176 0.12847,0.065 0.33871,0.1705 0.46718,0.2352 0.12847,0.065 0.3144,0.1175 0.41317,0.1175 0.0988,0 0.27147,0.047 0.38377,0.1039 0.31881,0.1622 0.75478,0.3386 1.20373,0.4871 0.35189,0.1164 0.49399,0.1005 0.97989,-0.1098 0.31257,-0.1353 0.66663,-0.246 0.78681,-0.246 0.12017,0 0.2512,-0.053 0.29117,-0.1176 0.04,-0.065 0.19872,-0.1176 0.35278,-0.1176 0.15405,0 0.3128,-0.053 0.35278,-0.1175 0.04,-0.065 0.19126,-0.1176 0.33619,-0.1176 0.14494,0 0.3138,-0.044 0.37524,-0.097 0.0614,-0.053 0.34984,-0.1688 0.64088,-0.2564 0.29104,-0.088 0.58208,-0.1915 0.64676,-0.2311 0.0647,-0.04 0.3028,-0.1317 0.52917,-0.2048 0.92941,-0.3003 4.18722,-1.4615 4.35092,-1.5508 0.13232,-0.072 0.16818,-0.2693 0.14351,-0.7889 -0.0181,-0.3809 0.0208,-0.772 0.0864,-0.869 0.0938,-0.1386 0.12108,-0.1009 0.12772,0.1764 0.005,0.194 0.0728,0.538 0.15157,0.7644 0.14809,0.4258 0.30867,0.4719 0.84313,0.2423 0.12935,-0.056 0.42039,-0.1646 0.64676,-0.2423 0.49784,-0.171 0.92909,-0.3444 1.20372,-0.4841 0.11231,-0.057 0.28321,-0.1039 0.37979,-0.1039 0.25437,0 0.61717,-0.7875 0.77173,-1.675 0.1197,-0.6874 0.11463,-1.3558 -0.0324,-4.278 -0.0294,-0.5846 0.17594,-0.8674 0.62993,-0.8674 0.26489,0 0.40006,0.1001 0.63236,0.4681 0.16251,0.2574 0.29546,0.5423 0.29546,0.6332 0,0.091 0.0679,0.3268 0.15093,0.5242 l 0.15093,0.3589 0.15291,-0.3748 c 0.0841,-0.2062 0.19867,-0.4807 0.25461,-0.61 0.0559,-0.1294 0.21486,-0.6056 0.35318,-1.0584 0.40247,-1.3173 0.71155,-1.8758 1.06064,-1.9165 0.22139,-0.026 0.34234,0.043 0.45939,0.2619 0.13906,0.2598 0.17574,0.2738 0.29404,0.112 0.0773,-0.1056 0.25687,-0.1674 0.41928,-0.1442 0.22988,0.033 0.3029,0.1359 0.38251,0.5403 0.0726,0.3687 0.15447,0.4998 0.31225,0.4998 0.29025,0 0.47589,0.2496 0.5569,0.7488 0.0372,0.2293 0.16696,0.5069 0.2883,0.6167 0.28988,0.2623 0.28453,0.8615 -0.0163,1.8194 -0.24595,0.7834 -0.41842,1.4031 -0.58629,2.1067 -0.21776,0.9128 -0.38109,1.4803 -0.48183,1.6741 -0.0584,0.1123 -0.10613,0.2793 -0.10613,0.3711 0,0.6433 -1.27246,2.1246 -2.58704,3.0117 -0.42039,0.2837 -0.82724,0.5779 -0.90412,0.6537 -0.0769,0.076 -0.85739,0.6044 -1.73449,1.1747 -0.87709,0.5703 -1.59472,1.0748 -1.59472,1.1212 0,0.047 0.43656,0.4916 0.97014,0.9893 1.54206,1.4382 3.25781,2.4951 5.43866,3.35 0.21521,0.084 0.72007,0.2319 1.64629,0.4809 0.61148,0.1643 1.62803,0.3379 2.12664,0.3631 0.34501,0.017 0.59348,-0.055 0.88194,-0.2579 0.22089,-0.1552 0.41925,-0.3238 0.44081,-0.3746 0.0216,-0.051 0.11416,-0.092 0.20578,-0.092 0.0916,0 0.16659,-0.047 0.16659,-0.1038 0,-0.057 0.0926,-0.1342 0.20579,-0.1712 0.11318,-0.037 0.47037,-0.2285 0.79375,-0.4256 0.32338,-0.197 0.74671,-0.4315 0.94074,-0.5211 1.14967,-0.5309 2.37902,-1.0219 3.41019,-1.362 0.64676,-0.2134 1.28176,-0.4276 1.41111,-0.4762 0.43284,-0.1624 1.17294,-0.3548 1.4699,-0.3821 0.23879,-0.022 0.29399,0.026 0.29399,0.2529 0,0.2337 -0.097,0.3092 -0.58797,0.4577 -3.92687,1.188 -6.09122,2.096 -7.95438,3.3371 -1.56099,1.0399 -2.52642,2.0076 -5.61351,5.6268 -0.83249,0.9759 -3.18098,3.3285 -3.97766,3.9845 -0.33672,0.2773 -1.0511,0.8141 -1.5875,1.193 -0.5364,0.3789 -1.03919,0.7448 -1.11731,0.8131 -0.0781,0.068 -0.17578,0.1242 -0.21703,0.1242 -0.0412,0 -0.21547,0.1 -0.38714,0.2214 -0.45618,0.3236 -1.1176,0.6899 -2.30663,1.2774 -2.28095,1.127 -3.00319,1.8517 -3.00319,3.0133 0,0.3564 0.0529,0.6808 0.11759,0.7207 0.0647,0.04 0.1176,0.1555 0.1176,0.2566 0,0.4495 1.6504,2.4162 3.86859,4.6101 0.88096,0.8713 2.30545,1.8385 2.97237,2.018 0.36175,0.098 0.53213,0.2389 0.77775,0.6455 0.38363,0.6351 0.68074,0.8055 0.55954,0.3208 -0.2114,-0.8454 -0.002,-1.3203 0.28088,-0.6372 0.2245,0.542 0.94827,1.0842 0.94827,0.7104 0,-0.072 -0.11201,-0.3303 -0.24891,-0.5739 -0.17744,-0.3157 -0.21708,-0.4998 -0.13803,-0.641 0.0951,-0.17 0.17336,-0.1219 0.55077,0.3386 0.24193,0.2953 0.51571,0.5369 0.6084,0.5369 0.2164,0 0.21228,-0.1114 -0.0215,-0.5799 -0.14603,-0.2927 -0.15781,-0.4125 -0.0509,-0.5178 0.10628,-0.1048 0.24102,-0.019 0.57213,0.3645 0.23822,0.2759 0.4728,0.5008 0.52131,0.4998 0.1977,0 0.0627,-0.2699 -0.38217,-0.7526 -0.78842,-0.8553 -0.50085,-1.0793 0.47037,-0.3664 0.67328,0.4943 1.12414,0.5363 1.31272,0.1225 0.21729,-0.477 -0.0956,-0.8239 -1.10694,-1.2276 -1.48801,-0.5939 -2.2144,-1.1812 -3.79612,-3.0694 -0.46812,-0.5588 -0.99578,-1.6167 -0.99578,-1.9965 0,-0.3482 0.88427,-1.1873 2.11667,-2.0085 1.2591,-0.8391 4.42351,-2.6978 4.59289,-2.6978 0.061,0 0.11081,-0.04 0.11081,-0.089 0,-0.049 0.16573,-0.1622 0.36828,-0.2519 0.20255,-0.09 0.7043,-0.3671 1.115,-0.6166 0.41071,-0.2495 0.77193,-0.4537 0.80272,-0.4537 0.16052,0 4.39365,-2.6386 4.53438,-2.8263 0.0818,-0.1092 4.43034,-3.0533 4.50978,-3.0533 0.0355,0 0.29208,-0.1527 0.5702,-0.3394 0.69794,-0.4685 3.03907,-1.8949 3.11,-1.8949 0.0319,0 0.28865,-0.1587 0.57066,-0.3527 0.28201,-0.1941 0.54372,-0.3528 0.58156,-0.3528 0.0378,0 0.34582,-0.1797 0.68437,-0.3993 0.33856,-0.2196 1.13678,-0.702 1.77384,-1.0721 1.39863,-0.8125 1.55132,-1.0602 1.45378,-2.3583 -0.0815,-1.0852 -0.38864,-1.7129 -1.29433,-2.6458 -0.70437,-0.7254 -2.3945,-1.9912 -2.65885,-1.9912 -0.0697,0 -0.27273,-0.1491 -0.45115,-0.3313 -0.53245,-0.5437 -2.44805,-1.7568 -3.85247,-2.4397 -0.7229,-0.3516 -1.36582,-0.6392 -1.4287,-0.6392 -0.0629,0 -0.33338,-0.1058 -0.60111,-0.2352 -0.26773,-0.1293 -0.56559,-0.2351 -0.66191,-0.2351 -0.0963,0 -0.20783,-0.053 -0.2478,-0.1176 -0.04,-0.065 -0.17611,-0.1176 -0.30252,-0.1176 -0.12641,0 -0.32173,-0.048 -0.43403,-0.1062 -0.11231,-0.058 -0.44232,-0.1703 -0.73336,-0.2488 -0.29104,-0.078 -0.66146,-0.1865 -0.82315,-0.24 -0.16169,-0.053 -0.79669,-0.2092 -1.41111,-0.346 -1.47972,-0.3295 -2.93445,-0.786 -3.3924,-1.0645 -0.25771,-0.1567 -0.37056,-0.3154 -0.37056,-0.521 0,-0.1627 0.0321,-0.2958 0.0714,-0.2958 0.0393,0 0.39645,0.1521 0.79375,0.3379 0.80919,0.3784 2.17055,0.767 2.46438,0.7034 0.1611,-0.035 0.10978,-0.2054 -0.3134,-1.0413 -0.53042,-1.0476 -1.20985,-2.1888 -1.97395,-3.3155 -0.24981,-0.3683 -0.4542,-0.7255 -0.4542,-0.7937 0,-0.068 -0.0397,-0.1245 -0.0882,-0.125 -0.0485,-5e-4 -0.14638,-0.1196 -0.21751,-0.2646 -0.0711,-0.145 -0.3668,-0.7399 -0.65705,-1.322 -0.29025,-0.5821 -0.70012,-1.5081 -0.91082,-2.0579 -0.2107,-0.5497 -0.42747,-1.1053 -0.4817,-1.2347 -0.0542,-0.1293 -0.16584,-0.4468 -0.24799,-0.7055 -0.0821,-0.2587 -0.19149,-0.5207 -0.24296,-0.5821 -0.0515,-0.062 -0.0936,-0.2303 -0.0936,-0.3753 0,-0.1449 -0.0529,-0.2962 -0.11759,-0.3362 -0.0647,-0.04 -0.11788,-0.1621 -0.11823,-0.2715 -6.8e-4,-0.2122 -1.05093,-2.3027 -1.12144,-2.2321 -0.023,0.023 -0.1523,0.5693 -0.28728,1.2139 -0.37701,1.8007 -0.70948,3.15 -0.83175,3.3754 -0.0609,0.1123 -0.11074,0.285 -0.11074,0.3838 0,0.099 -0.0468,0.2715 -0.10388,0.3838 -0.0571,0.1123 -0.15626,0.3364 -0.22028,0.4981 -0.26549,0.6705 -0.68764,1.5025 -1.01427,1.9991 -0.29046,0.4416 -2.1956,2.7478 -2.42865,2.9398 -0.37073,0.3056 -1.99496,2.7005 -1.99496,2.9416 0,0.064 -0.0529,0.1158 -0.11759,0.1158 -0.0647,0 -0.1176,0.1164 -0.1176,0.2587 0,0.1694 -0.0399,0.2188 -0.11549,0.1432 -0.24048,-0.2404 0.84086,-2.5496 1.57503,-3.3633 0.13514,-0.1498 0.48356,-0.5634 0.77427,-0.9191 0.29071,-0.3557 0.59495,-0.7167 0.67608,-0.8022 0.0811,-0.085 0.14752,-0.1676 0.14752,-0.1826 0,-0.015 -0.78052,-0.03 -1.73449,-0.034 -1.91397,-0.01 -3.13452,-0.1857 -5.14103,-0.7492 -1.6993,-0.4771 -2.49345,-0.8732 -4.63158,-2.31 -0.99315,-0.6674 -1.87165,-1.2134 -1.95224,-1.2134 -0.0806,0 -0.3019,-0.1485 -0.49181,-0.33 -0.49061,-0.4688 -1.40507,-1.0811 -1.61472,-1.0811 -0.0977,0 -0.21036,-0.053 -0.25033,-0.1176 -0.0405,-0.066 -0.58687,-0.1176 -1.23472,-0.1176 -0.64785,0 -1.19421,0.052 -1.23473,0.1176 -0.04,0.065 -0.17001,0.1176 -0.28898,0.1176 -0.19099,0 -0.86842,0.3186 -1.76889,0.8319 -0.16169,0.092 -0.73702,0.5063 -1.27852,0.9202 -0.5415,0.4139 -1.18717,0.8505 -1.43483,0.9702 -0.83851,0.4051 -1.80472,0.2098 -2.98734,-0.6039 -0.28341,-0.195 -0.54309,-0.3545 -0.57708,-0.3545 -0.034,0 -0.2511,0.1285 -0.48248,0.2855 -0.23139,0.157 -0.59093,0.3193 -0.79898,0.3605 -0.55473,0.1101 -1.84464,0.5142 -2.31854,0.7263 -0.39444,0.1766 -0.96909,0.4231 -1.46991,0.6306 -0.12935,0.053 -0.50304,0.1614 -0.83041,0.2397 -0.55128,0.1318 -0.63808,0.121 -1.17592,-0.1466 -0.39097,-0.1946 -0.59299,-0.3729 -0.61828,-0.5457 -0.0461,-0.3153 0.0667,-0.3207 0.44915,-0.022 0.31736,0.2482 1.25024,0.3217 1.61849,0.1275 0.1123,-0.059 0.41586,-0.1978 0.67456,-0.308 0.25871,-0.1101 0.62912,-0.2706 0.82315,-0.3566 0.19403,-0.086 0.72319,-0.2705 1.17593,-0.4101 1.59725,-0.4925 1.86172,-0.5933 2.2226,-0.8469 0.52311,-0.3675 0.65841,-0.5167 0.65841,-0.7258 0,-0.1016 0.0468,-0.1847 0.10389,-0.1847 0.10221,0 0.15106,-0.1523 0.36815,-1.1477 0.14838,-0.6803 0.0253,-0.944 -0.85017,-1.8208 -0.40645,-0.407 -1.00358,-1.0378 -1.32696,-1.4017 -0.59407,-0.6684 -0.87957,-0.8112 -1.95681,-0.9785 -0.23546,-0.036 -0.65879,-0.2498 -0.94074,-0.4739 -0.28195,-0.2242 -0.5749,-0.4081 -0.65101,-0.4087 -0.1103,-9e-4 -0.50838,0.6109 -0.50838,0.7813 0,0.022 0.23023,0.041 0.51162,0.041 0.28139,0 0.66503,0.057 0.85254,0.1276 0.45441,0.1701 1.04258,0.8873 1.01371,1.2361 -0.0262,0.3169 0.29329,0.5336 0.88246,0.5985 0.49931,0.055 1.48161,0.9763 1.36498,1.2802 -0.0639,0.1665 -0.0303,0.1929 0.17603,0.1389 0.422,-0.1103 0.4126,0.1247 -0.0214,0.534 -0.25884,0.2441 -0.4391,0.546 -0.49092,0.8222 -0.045,0.2401 -0.12326,0.4366 -0.17382,0.4366 -0.11587,0 -0.23468,-0.3026 -0.23468,-0.5976 0,-0.2898 -0.28607,-0.2891 -0.69457,0 -0.17562,0.125 -0.46141,0.263 -0.63509,0.3066 l -0.31577,0.079 0.0745,-0.8812 c 0.0884,-1.0458 0.0206,-1.3832 -0.32001,-1.5938 -0.22873,-0.1414 -0.29256,-0.1187 -0.65566,0.2332 -0.3831,0.3714 -0.41699,0.3816 -0.71149,0.2155 -0.60549,-0.3416 -0.95748,-1.413 -0.49326,-1.5014 0.13671,-0.026 0.21694,0.102 0.29412,0.4692 0.0883,0.4201 0.15553,0.5094 0.39998,0.5313 0.16161,0.014 0.2277,0 0.14686,-0.039 -0.28052,-0.1251 -0.0914,-1.3395 0.20855,-1.3395 0.0694,0 0.2056,0.172 0.30266,0.3822 l 0.17648,0.3822 -0.0568,-0.5251 c -0.0699,-0.6462 -0.29436,-0.8272 -1.02609,-0.8272 -0.64994,0 -1.92938,-0.3006 -2.30947,-0.5426 -0.4802,-0.3057 -0.26144,-1.4764 0.39934,-2.1372 0.16319,-0.1632 0.15382,-0.1966 -0.0944,-0.3359 -0.24414,-0.1371 -2.35984,-0.8649 -2.51414,-0.8649 -0.0332,0 -0.11091,0.1191 -0.17276,0.2646 -0.0619,0.1455 -0.27455,0.5292 -0.47266,0.8525 -0.19811,0.3234 -0.39049,0.6806 -0.42751,0.7938 -0.037,0.1132 -0.11406,0.2058 -0.17119,0.2058 -0.19522,0 -0.10109,-0.4114 0.30913,-1.3511 0.47457,-1.0871 0.48011,-1.1184 0.19847,-1.1184 -0.11641,0 -0.27622,-0.064 -0.35513,-0.1434 -0.0958,-0.096 -0.5629,-0.1418 -1.40523,-0.1383 -1.15113,0 -1.32959,0.036 -2.03532,0.3621 -1.30322,0.6014 -2.05809,1.1256 -3.44017,2.3891 -1.38977,1.2705 -2.03267,2.7698 -1.92094,4.4797 0.0686,1.0499 0.26529,2.2061 0.56824,3.3402 0.37409,1.4004 0.62852,1.8985 1.32112,2.586 1.01789,1.0104 2.33412,1.5231 4.65688,1.814 0.54974,0.069 1.2112,0.1528 1.4699,0.1864 1.39915,0.182 2.45487,0.1993 2.92107,0.048 0.26902,-0.087 0.82239,-0.4398 1.22972,-0.7831 0.40733,-0.3434 0.79098,-0.5932 0.85255,-0.5551 0.20022,0.1237 0.11812,0.5828 -0.13218,0.7391 -0.19613,0.1225 -0.21642,0.1859 -0.1032,0.3223 0.0775,0.093 0.24976,0.1698 0.38277,0.1698 0.22461,0 0.75793,0.1447 1.31687,0.3572 0.12935,0.049 0.42039,0.1578 0.64676,0.2415 0.59136,0.2184 1.25125,0.6716 1.47491,1.013 0.10616,0.162 0.19645,0.5221 0.20065,0.8004 0.007,0.4369 -0.066,0.5913 -0.53335,1.1341 -0.29755,0.3456 -0.97207,1.0491 -1.49893,1.5632 -0.98131,0.9578 -1.54354,1.6747 -1.69673,2.1638 -0.063,0.2012 -0.12181,0.2412 -0.21609,0.1469 -0.34422,-0.3442 0.55746,-1.7639 2.20369,-3.4696 0.93915,-0.9731 1.12418,-1.2262 1.12418,-1.5376 0,-0.6706 -0.5341,-0.9855 -2.88102,-1.6988 -0.81369,-0.2473 -1.33104,-0.2649 -1.76319,-0.06 -0.36443,0.1729 -0.64117,0.1907 -1.91837,0.1234 -3.99506,-0.2108 -5,-0.3926 -6.65144,-1.2032 -0.70957,-0.3483 -1.95543,-1.4714 -1.95543,-1.7627 0,-0.09 -0.04,-0.1636 -0.0889,-0.1636 -0.0793,0 -0.19629,-0.2373 -0.49264,-0.9996 -0.15463,-0.3977 -0.33084,-1.0281 -0.47658,-1.7051 -0.17083,-0.7935 -0.29556,-1.3218 -0.46129,-1.9539 -0.51628,-1.9691 0.47095,-4.4893 2.51869,-6.4295 0.50286,-0.4764 1.77127,-1.3387 2.35209,-1.5989 0.19403,-0.087 0.44467,-0.2048 0.55697,-0.262 0.11231,-0.057 0.30016,-0.1038 0.41746,-0.1038 0.11729,0 0.27715,-0.064 0.35524,-0.142 0.18943,-0.1894 2.93745,-0.2032 3.32682,-0.017 0.75785,0.363 1.41161,0.629 1.54575,0.629 0.21943,0 1.60403,0.5163 2.19979,0.8202 0.28437,0.1451 0.8915,0.6325 1.34917,1.0831 0.96003,0.9453 1.26239,1.1732 1.83167,1.3808 0.91913,0.3351 1.91676,0.9109 2.15411,1.2433 0.13857,0.194 0.65089,0.7496 1.13849,1.2347 1.26537,1.2588 1.44803,1.5453 1.37136,2.1509 -0.097,0.766 -0.21609,1.3066 -0.31633,1.4357 -0.0502,0.065 -0.10974,0.244 -0.13222,0.3985 -0.0345,0.237 0.0696,0.3427 0.66469,0.6748 0.81459,0.4546 1.69027,0.531 2.32829,0.2032 0.40895,-0.2102 1.75099,-1.0946 1.84624,-1.2167 0.14686,-0.1883 1.1873,-0.8218 1.88148,-1.1457 1.12229,-0.5235 2.16376,-0.6985 3.02124,-0.5077 0.77169,0.1718 1.54153,0.5049 1.87156,0.8098 0.27673,0.2557 1.29856,0.9601 1.39268,0.9601 0.0382,0 0.72171,0.4481 1.51885,0.9958 1.45222,0.9977 3.60433,2.1763 3.97739,2.1782 0.10937,6e-4 0.22794,0.048 0.2635,0.1056 0.0356,0.058 0.23711,0.1331 0.44791,0.1679 0.21079,0.035 0.62139,0.1202 0.91243,0.1897 1.78902,0.4274 2.61848,0.5283 4.38034,0.5327 1.51004,0 1.85209,0.035 1.85208,0.1699 -2e-5,0.2706 0.43739,-0.1897 1.05106,-1.106 0.5709,-0.8524 1.06559,-1.8235 1.06559,-2.0918 0,-0.085 0.0437,-0.2044 0.0971,-0.2659 0.0534,-0.061 0.1654,-0.3498 0.24882,-0.6409 0.0834,-0.291 0.19189,-0.6614 0.24104,-0.8231 0.0844,-0.2776 0.20133,-0.7969 0.47006,-2.0873 0.064,-0.3072 0.19941,-0.9184 0.30095,-1.3582 l 0.18461,-0.7996 -0.71774,-1.4346 c -0.39476,-0.7891 -0.80935,-1.5934 -0.92132,-1.7874 -0.70336,-1.2189 -1.35062,-2.4697 -1.67343,-3.2338 -0.35788,-0.8472 -0.62941,-1.4687 -1.02752,-2.3519 -0.10204,-0.2264 -0.33458,-0.6328 -0.51676,-0.9031 -0.18217,-0.2704 -0.33123,-0.5304 -0.33123,-0.5778 0,-0.047 -0.28806,-0.5689 -0.64013,-1.1589 -0.80322,-1.346 -1.04788,-1.9185 -1.24399,-2.9105 -0.30777,-1.5569 0.26357,-2.4545 2.2369,-3.5141 0.69727,-0.3745 1.47114,-1.0961 1.65722,-1.5453 0.13715,-0.3311 0.12607,-0.3786 -0.13662,-0.5858 -1.60436,-1.2654 -2.73896,-3.0198 -3.40153,-5.2597 -0.23667,-0.8001 -0.2527,-1.0394 -0.18903,-2.8222 0.0898,-2.5133 0.21218,-3.7183 0.37479,-3.689 0.0761,0.014 0.18513,-0.4175 0.27031,-1.0685 0.39136,-2.9914 1.48223,-4.7004 3.8953,-6.1026 1.09546,-0.6365 3.11442,-0.6658 4.58667,-0.066 1.53237,0.6238 3.24703,2.2162 4.05204,3.7631 0.24742,0.4754 0.69595,1.2878 0.99674,1.8052 0.5281,0.9084 0.73677,1.3252 1.13316,2.2636 0.10245,0.2426 0.23475,0.5329 0.29399,0.6452 0.0592,0.1123 0.1077,0.3076 0.1077,0.434 0,0.1264 0.0468,0.2588 0.10404,0.2941 0.0572,0.035 0.13334,0.2105 0.16915,0.3892 0.0358,0.1786 0.12071,0.5629 0.18866,0.854 0.18659,0.7992 0.44764,2.3238 0.53357,3.1162 0.0702,0.647 0.29759,1.8555 0.54218,2.881 0.054,0.2263 0.13098,0.5703 0.17109,0.7643 0.0401,0.1941 0.11786,0.4586 0.17279,0.588 0.0939,0.2211 0.15611,0.4721 0.31616,1.2757 l 0.0667,0.335 1.19028,-0.1 c 0.65465,-0.055 1.62029,-0.094 2.14587,-0.086 1.56649,0.023 2.12074,0.4746 2.86616,2.3382 0.0647,0.1616 0.16517,0.413 0.22332,0.5585 0.12576,0.3147 0.28235,0.787 0.48794,1.4715 0.15757,0.5246 0.2295,3.1236 0.0903,3.2633 -0.23529,0.2361 -0.3312,-0.1708 -0.3312,-1.4053 0,-2.2382 -0.48489,-3.8279 -1.47378,-4.8317 -0.77395,-0.7856 -1.54718,-0.8884 -4.31766,-0.5739 l -0.67615,0.077 v 1.8652 c 0,1.6784 -0.0926,2.5195 -0.35442,3.2209 -0.29688,0.7953 -0.56199,1.3274 -0.80565,1.617 -0.42755,0.5083 -1.24407,1.0215 -1.68045,1.0563 -0.32956,0.026 -0.39922,-0.011 -0.43076,-0.233 -0.0274,-0.1925 0.0423,-0.2948 0.25609,-0.3761 0.63551,-0.2416 1.10845,-2.1791 0.7889,-3.2318 -0.0603,-0.1986 -0.17791,-0.5992 -0.26136,-0.8902 -0.19587,-0.6832 -0.8619,-1.9828 -1.50923,-2.9451 -0.52238,-0.7766 -0.75639,-1.0699 -1.80925,-2.2682 -0.33147,-0.3772 -0.62939,-0.7915 -0.66204,-0.9207 -0.0587,-0.2322 -0.0626,-0.232 -0.34751,0.015 -0.8407,0.7291 -2.02579,1.0254 -2.85222,0.7132 -0.84016,-0.3175 -1.82147,-0.8524 -2.18215,-1.1895 l -0.37958,-0.3547 v 0.3452 c 0,0.2471 0.0919,0.4051 0.32338,0.556 1.27509,0.8314 2.62426,3.2993 2.27817,4.1672 -0.0792,0.1986 -0.11962,0.2285 -0.12465,0.092 -0.004,-0.111 -0.0942,-0.4021 -0.20015,-0.6468 -0.10598,-0.2447 -0.24988,-0.5773 -0.31978,-0.7389 -0.22605,-0.5229 -0.74213,-1.2204 -1.37032,-1.8521 -0.63543,-0.639 -0.82184,-0.74 -0.82184,-0.4451 0,0.1917 -0.39742,0.4494 -0.5137,0.3331 -0.0408,-0.041 -0.0743,-0.1807 -0.0743,-0.3109 0,-0.4992 -0.67196,-2.1127 -1.21991,-2.9291 -0.65059,-0.9693 -1.34727,-2.2679 -1.59271,-2.9686 -0.23374,-0.6674 -0.21093,-2.6633 0.0389,-3.3982 0.52054,-1.5316 0.99763,-2.2877 2.35954,-3.7394 0.41758,-0.4451 0.85177,-0.9659 0.96486,-1.1574 0.23023,-0.3897 0.36361,-0.4364 0.46822,-0.1638 0.0752,0.1959 -0.11024,0.6173 -0.42245,0.9603 -1.61434,1.7735 -2.07535,2.3778 -2.49178,3.2664 -0.25106,0.5358 -0.45647,1.0884 -0.45647,1.2281 0,0.1397 -0.0611,0.4967 -0.13581,0.7933 -0.29491,1.1712 0.33571,3.1058 1.65971,5.0917 0.45908,0.6886 0.81052,1.3875 0.93873,1.8669 0.0431,0.1613 0.14169,0.3143 0.21901,0.3401 0.31909,0.1063 0.0203,-1.1733 -0.38424,-1.6458 -0.39065,-0.4563 -0.88716,-1.3143 -1.11875,-1.9332 -0.24177,-0.6462 -0.59069,-2.6952 -0.59069,-3.4688 0,-0.9379 0.6316,-2.0666 1.93031,-3.4495 1.17407,-1.2502 1.53886,-1.9665 1.53804,-3.0202 -5.2e-4,-0.6559 0.0326,-0.8014 0.17639,-0.7742 0.10082,0.019 0.19144,0.1849 0.21051,0.3852 0.0418,0.439 0.54495,1.4404 0.95247,1.8956 0.35127,0.3924 1.14049,0.9653 2.24784,1.6316 0.92434,0.5563 2.23948,1.8239 2.56226,2.4697 0.12948,0.2591 0.29733,0.701 0.37301,0.982 0.0757,0.2811 0.16043,0.4882 0.18835,0.4602 0.0997,-0.1 -0.20865,-1.4395 -0.44897,-1.9507 -0.31467,-0.6695 -1.39473,-1.7732 -2.72958,-2.7895 -1.61757,-1.2315 -1.95251,-1.625 -2.12303,-2.4941 -0.0597,-0.304 -0.0363,-0.3822 0.11443,-0.3822 0.10418,0 0.21902,0.093 0.25519,0.2058 0.23762,0.7435 0.67717,1.2571 1.63195,1.9068 0.32338,0.2201 0.61442,0.4303 0.64676,0.467 0.0323,0.037 0.29569,0.2255 0.58523,0.4194 0.94289,0.6312 1.83654,1.6257 2.13048,2.3708 0.23078,0.585 0.2716,0.9068 0.2766,2.1806 0.005,1.2892 -0.0223,1.5153 -0.19921,1.6463 -0.12109,0.09 -0.25692,0.4409 -0.33164,0.8575 -0.21165,1.18 -0.68495,2.4527 -1.18926,3.1979 l -0.3338,0.4932 0.26575,0.277 c 0.94483,0.9847 2.27007,2.6552 2.57261,3.2428 0.0892,0.1733 0.19174,0.3415 0.22784,0.3738 0.20089,0.18 1.05547,2.1778 1.23237,2.881 0.22999,0.9143 0.28788,2.3366 0.12444,3.0574 -0.10068,0.4441 -0.0949,0.4607 0.10419,0.2958 0.52931,-0.4386 1.06956,-1.7003 1.33806,-3.1251 0.16882,-0.8958 0.17409,-2.9466 0.009,-3.6744 -0.25259,-1.1165 -0.38155,-1.6322 -0.65255,-2.6097 -0.15241,-0.5497 -0.43581,-1.8197 -0.62977,-2.8222 -0.62111,-3.2101 -0.63904,-3.2941 -0.96058,-4.4979 -0.23317,-0.873 -0.38214,-1.3197 -0.47848,-1.4346 -0.0515,-0.062 -0.0939,-0.1938 -0.0943,-0.294 -7.1e-4,-0.1743 -1.00633,-2.2352 -1.69551,-3.4749 -1.22197,-2.198 -2.63496,-3.5355 -4.41856,-4.1827 -0.62149,-0.2255 -0.99582,-0.2773 -2.00279,-0.2772 -1.30351,2e-4 -1.26952,-0.01 -2.69448,0.7655 -1.10149,0.599 -2.17084,1.8103 -2.53472,2.8713 -0.54865,1.5996 -0.57057,4.2646 -0.0517,6.2882 0.0653,0.2547 0.0616,0.4518 -0.01,0.5233 -0.0745,0.074 -0.11469,0.024 -0.11469,-0.1456 0,-0.1432 -0.0501,-0.3522 -0.11132,-0.4645 -0.10837,-0.1988 -0.36616,-1.0205 -0.54367,-1.7329 l -0.0879,-0.3528 -0.0878,0.4704 c -0.19284,1.033 -0.25447,3.201 -0.11562,4.0667 0.19399,1.2094 0.30095,1.5356 0.92233,2.8124 0.44501,0.9145 0.71519,1.2891 1.48914,2.0646 0.52002,0.521 1.40753,1.2483 1.97224,1.6161 1.26515,0.8241 1.39019,0.9225 2.20181,1.7327 0.6125,0.6114 1.10828,1.401 1.21572,1.9362 0.0432,0.215 0.0578,0.21 0.17094,-0.059 0.17296,-0.411 0.29035,-0.091 0.24251,0.6617 -0.0293,0.4605 -0.0781,0.573 -0.24863,0.573 -0.15687,0 -0.28077,-0.2037 -0.47512,-0.7813 -0.4395,-1.3059 -0.94257,-1.884 -2.62822,-3.0199 -0.40067,-0.27 -0.77929,-0.4909 -0.84137,-0.4909 -0.0621,0 -0.24817,0.2308 -0.41353,0.513 -0.37494,0.6398 -0.89559,1.1013 -1.92113,1.703 -2.23252,1.3099 -2.32623,2.6461 -0.40394,5.7595 0.33237,0.5383 0.60431,1.0511 0.60431,1.1396 0,0.088 0.0471,0.1899 0.10476,0.2256 0.12293,0.076 0.89327,1.6318 1.46458,2.9581 0.56552,1.3128 0.96374,2.132 1.36682,2.8118 0.48353,0.8155 2.01985,3.8379 2.42082,4.7625 0.18231,0.4204 0.42096,0.8967 0.53031,1.0584 0.10936,0.1616 0.36688,0.7966 0.57227,1.4111 0.20539,0.6144 0.41817,1.2229 0.47285,1.3523 0.0547,0.1293 0.16387,0.4204 0.24265,0.6467 0.0788,0.2264 0.21097,0.5704 0.29374,0.7644 0.0828,0.194 0.32482,0.7761 0.53789,1.2935 0.5998,1.4565 1.06408,2.2986 2.36642,4.2921 1.24162,1.9006 2.0917,3.5698 2.0917,4.1072 0,0.1441 0.19256,0.237 0.73496,0.3548 0.40422,0.088 1.35599,0.3632 2.11504,0.6122 0.75905,0.249 1.43374,0.4527 1.49931,0.4527 0.14746,0 0.15448,-0.3689 0.0139,-0.7294 -0.0579,-0.1486 -0.16893,-0.5083 -0.24664,-0.7993 -0.0777,-0.2911 -0.18906,-0.6211 -0.24743,-0.7334 -0.0584,-0.1123 -0.10614,-0.3076 -0.10614,-0.434 0,-0.1264 -0.0529,-0.2625 -0.11759,-0.3025 -0.0647,-0.04 -0.11759,-0.1761 -0.11759,-0.3025 0,-0.1264 -0.0487,-0.3218 -0.1082,-0.4341 -0.0595,-0.1123 -0.22428,-0.5217 -0.36616,-0.9097 -0.14188,-0.3881 -0.32603,-0.8643 -0.40922,-1.0583 -0.0832,-0.1941 -0.33609,-0.8026 -0.562,-1.3524 -0.72906,-1.7741 -1.39464,-3.1985 -3.30154,-7.0659 -0.75223,-1.5256 -1.3677,-2.8586 -1.3677,-2.9623 0,-0.1036 -0.0529,-0.2211 -0.11759,-0.2611 -0.0647,-0.04 -0.11759,-0.1761 -0.11759,-0.3025 0,-0.1264 -0.0474,-0.3218 -0.10544,-0.4341 -0.058,-0.1123 -0.27704,-0.7598 -0.48675,-1.4389 -0.20972,-0.6791 -0.47518,-1.5257 -0.58991,-1.8815 -0.11473,-0.3557 -0.40052,-1.2553 -0.63508,-1.999 -0.23457,-0.7438 -0.47194,-1.4582 -0.52751,-1.5875 -0.0556,-0.1294 -0.16462,-0.4204 -0.24235,-0.6468 -0.0777,-0.2264 -0.1889,-0.5306 -0.24705,-0.6762 -0.17559,-0.4394 -0.33505,-0.8379 -0.44701,-1.1171 -0.0584,-0.1455 -0.27326,-0.6251 -0.47755,-1.0658 -0.2043,-0.4407 -0.35499,-0.8861 -0.33488,-0.9898 0.0716,-0.3691 0.27539,-0.2542 0.5218,0.294 0.60572,1.3477 0.9168,2.0867 1.10037,2.6142 0.0788,0.2263 0.18892,0.5174 0.24475,0.6467 0.11712,0.2714 1.01063,2.988 1.4155,4.3038 0.23405,0.7606 0.3084,0.8848 0.49973,0.8347 0.26365,-0.069 0.65753,0.3767 0.66154,0.7484 10e-4,0.1333 -0.10054,0.3531 -0.22662,0.4884 -0.19601,0.2104 -0.21078,0.3031 -0.10191,0.6396 0.23446,0.7245 0.25901,0.7443 0.97402,0.7819 0.5859,0.031 0.75887,-0.014 1.28135,-0.331 0.36888,-0.2239 0.75279,-0.5921 0.98619,-0.9456 0.32155,-0.4872 0.38218,-0.6881 0.38218,-1.2663 0,-0.378 -0.0605,-1.0004 -0.13444,-1.3831 -0.11216,-0.5805 -0.21839,-0.7768 -0.64107,-1.1845 -0.27865,-0.2689 -0.70763,-0.5544 -0.95329,-0.6344 -0.52878,-0.1725 -0.647,-0.3175 -0.49312,-0.605 0.15297,-0.2859 0.40248,-0.2671 0.98478,0.074 1.11291,0.6522 1.8251,1.9162 1.8251,3.2392 0,0.7755 -0.0404,0.9472 -0.43933,1.8664 -0.23713,0.5463 -1.18347,1.4991 -1.70584,1.7173 -0.23887,0.1 -0.67414,0.1815 -0.96725,0.1815 -0.60816,0 -0.68265,0.165 -0.31046,0.6877 0.12237,0.1719 0.63102,1.159 1.13032,2.1936 1.95934,4.0601 2.16542,4.4916 2.47092,5.1738 0.65722,1.4676 1.35035,3.131 1.35035,3.2406 0,0.063 0.0467,0.2058 0.10387,0.3182 0.13971,0.2746 0.31314,0.7058 0.48409,1.2037 0.0777,0.2263 0.1841,0.5174 0.23639,0.6467 0.0523,0.1294 0.12466,0.3278 0.16083,0.441 0.1006,0.3148 0.23601,0.2512 0.62588,-0.294 1.07425,-1.5021 1.79781,-3.6277 2.39174,-7.0261 0.32262,-1.846 0.3776,-2.5367 0.42593,-5.3505 0.0597,-3.474 -0.002,-3.9179 -0.59281,-4.2837 -0.93004,-0.5757 -1.36648,-1.3659 -1.36648,-2.4741 0,-0.5392 0.0406,-0.7093 0.16945,-0.7093 0.24497,0 0.31605,0.1738 0.19971,0.4883 -0.21167,0.5722 0.36551,1.5463 1.20913,2.0407 1.15861,0.679 2.36466,0.6447 3.1554,-0.09 1.25159,-1.1625 1.58733,-3.8876 0.65046,-5.2796 -0.11554,-0.1717 -0.21008,-0.343 -0.21008,-0.3808 0,-0.359 -1.9802,-2.0705 -2.39549,-2.0705 -0.0977,0 -0.21037,-0.053 -0.25034,-0.1176 -0.04,-0.065 -0.16921,-0.1176 -0.28721,-0.1176 -0.29233,0 -0.36571,-0.362 -0.27967,-1.3798 0.0965,-1.1415 0.39049,-1.1309 0.39049,0.014 0,0.4068 0.069,0.5623 0.38218,0.8615 0.2102,0.2007 0.57616,0.4723 0.81326,0.6034 1.26256,0.6984 1.78761,1.2694 2.27865,2.4778 0.37383,0.92 0.52707,2.9711 0.2879,3.8533 -0.18905,0.6973 -0.51269,1.3612 -0.85625,1.7564 -0.2485,0.2858 -0.25842,0.3823 -0.22608,2.2003 0.0186,1.0458 0.0835,2.3777 0.1441,2.9598 0.3338,3.2036 0.38465,4.2814 0.30905,6.5509 -0.0437,1.3124 -0.10871,2.5184 -0.14445,2.6801 l -0.065,0.294 3.62419,-0.084 c 1.9933,-0.046 4.6296,-0.1168 5.85844,-0.1569 2.09384,-0.068 2.28273,-0.057 3.00544,0.1846 0.42415,0.1416 1.01916,0.4374 1.32225,0.6573 0.63132,0.4582 1.36834,1.4015 1.37264,1.7568 0.002,0.1326 0.0602,0.2984 0.13028,0.3684 0.14464,0.1447 0.0861,1.571 -0.0968,2.3572 -0.0636,0.2734 -0.24337,0.7552 -0.39948,1.0707 l -0.28385,0.5735 0.29698,0.1183 c 0.16334,0.065 0.5351,0.1847 0.82614,0.2659 0.29104,0.081 0.66146,0.1882 0.82315,0.2378 0.16169,0.05 0.50565,0.1483 0.76435,0.2192 0.90002,0.2466 3.53233,1.0612 4.23334,1.31 0.85463,0.3034 3.34921,1.5113 3.56557,1.7265 0.0855,0.085 0.19301,0.1545 0.23898,0.1545 0.19322,0 1.239,1.1583 1.48709,1.6471 0.67583,1.3316 0.84787,2.1616 0.92599,4.4677 0.0405,1.1965 0.0896,2.6258 0.10895,3.1762 0.0194,0.5503 3.7e-4,1.2912 -0.0423,1.6463 -0.0608,0.5059 -0.0855,0.3149 -0.11424,-0.8831 -0.0396,-1.6504 -0.0415,-1.6792 -0.15208,-2.2931 -0.0408,-0.2263 -0.0974,-0.9226 -0.12571,-1.5472 -0.0284,-0.6247 -0.10174,-1.2332 -0.16307,-1.3524 -0.0613,-0.1191 -0.14046,-0.5076 -0.17582,-0.8633 -0.17249,-1.7349 -1.13209,-3.0182 -2.96634,-3.9672 -0.75304,-0.3896 -1.57226,-0.7365 -1.73909,-0.7365 -0.0848,0 -0.20442,-0.042 -0.26586,-0.094 -0.0614,-0.052 -0.32338,-0.1608 -0.58208,-0.243 -0.25871,-0.082 -0.57621,-0.1933 -0.70556,-0.2469 -0.12935,-0.054 -1.18769,-0.3998 -2.35185,-0.7691 -2.94563,-0.9346 -3.83821,-1.232 -4.04609,-1.3483 -0.13224,-0.074 -0.37183,0.079 -0.90926,0.5821 -0.48514,0.4538 -1.07758,0.8492 -1.76773,1.1799 -0.57092,0.2735 -1.12992,0.5437 -1.24222,0.6005 -0.11231,0.057 -0.30762,0.1032 -0.43404,0.1032 -0.12641,0 -0.26254,0.053 -0.30251,0.1176 -0.04,0.065 -0.24418,0.1176 -0.4538,0.1176 -0.20961,0 -0.43138,0.048 -0.49282,0.1055 -0.0614,0.058 -0.32338,0.1337 -0.58209,0.1682 -0.2587,0.034 -0.8937,0.1248 -1.41111,0.2007 -0.51741,0.076 -1.94157,0.1721 -3.16481,0.2139 l -2.22407,0.076 0.51898,0.4262 c 1.7226,1.4144 2.70099,2.7185 2.88014,3.8389 l 0.0743,0.4649 1.1929,0.076 c 1.24413,0.08 3.02856,0.2195 5.72021,0.4489 1.75033,0.1492 5.76607,0.1683 7.89086,0.037 1.22088,-0.075 1.37251,-0.063 1.44089,0.1151 0.12454,0.3246 0.0129,0.3756 -1.00864,0.4605 -1.99999,0.1663 -2.38735,0.2363 -2.34396,0.4236 0.0224,0.097 0.0892,0.5991 0.14854,1.1165 0.13985,1.2203 0.43444,3.1 0.69108,4.4098 0.33103,1.6893 0.73452,3.5896 0.94882,4.4685 0.0552,0.2263 0.14871,0.6232 0.2078,0.8819 0.10518,0.4605 1.1206,4.3597 1.31681,5.0565 0.0546,0.194 0.13377,0.4851 0.17588,0.6468 0.0421,0.1617 0.11901,0.3998 0.17092,0.5291 0.0519,0.1294 0.15848,0.4733 0.23683,0.7644 0.0784,0.291 0.19022,0.621 0.24859,0.7333 0.0584,0.1123 0.10613,0.3341 0.10613,0.4929 0,0.1587 0.0529,0.3213 0.11759,0.3613 0.0647,0.04 0.1176,0.1761 0.1176,0.3025 0,0.1264 0.0476,0.3217 0.10579,0.434 0.0582,0.1123 0.47919,1.3419 0.93557,2.7325 1.03144,3.1427 1.48706,4.4491 1.58635,4.5484 0.0423,0.042 0.0769,0.1972 0.0769,0.3443 0,0.1471 0.0468,0.2964 0.10403,0.3318 0.20282,0.1253 0.46245,1.8419 0.5584,3.6921 0.0679,1.3086 -0.0318,3.1597 -0.16298,3.0285 -0.0368,-0.037 -0.10988,-0.7947 -0.16253,-1.6844 -0.12845,-2.1708 -0.34087,-3.4339 -0.92468,-5.4982 -0.0732,-0.2587 -0.17018,-0.6027 -0.2156,-0.7644 -0.28511,-1.015 -1.94291,-5.8796 -2.00367,-5.8795 -0.0407,10e-5 -0.59604,0.4698 -1.23409,1.0437 -0.68641,0.6175 -1.56825,1.2709 -2.15968,1.6002 -1.1957,0.6658 -1.19573,0.6658 -2.57818,1.9868 -0.60106,0.5744 -1.22648,1.1137 -1.38981,1.1984 l -0.29695,0.1541 0.005,-0.6104 c 0.003,-0.3357 0.0576,-1.0073 0.12166,-1.4924 0.26442,-2.0016 0.34141,-2.5701 0.46189,-3.4101 0.12505,-0.8719 0.23019,-1.6376 0.47636,-3.469 0.0695,-0.5174 0.17278,-1.2847 0.22942,-1.7051 0.0566,-0.4204 0.15747,-1.2142 0.22408,-1.7639 0.0666,-0.5498 0.18047,-1.4493 0.25301,-1.9991 0.0725,-0.5497 0.17267,-1.5287 0.22251,-2.1754 0.0498,-0.6468 0.15828,-1.3876 0.24098,-1.6463 0.22437,-0.7019 0.28389,-2.1528 0.10328,-2.5174 -0.47543,-0.96 -1.12656,-1.4724 -3.45548,-2.7191 -2.26381,-1.2119 -6.33264,-3.2123 -7.90949,-3.8887 -0.21095,-0.091 -0.41296,-0.2571 -0.44889,-0.3704 -0.0749,-0.2359 -0.28414,-0.279 -0.28575,-0.059 -6e-4,0.081 -0.12453,0.4019 -0.27541,0.7134 -0.27938,0.5769 -0.46454,0.711 -3.1925,2.3117 -0.53448,0.3136 -2.80139,1.7092 -4.03979,2.487 -0.60499,0.38 -1.14739,0.6909 -1.20533,0.6909 -0.0579,0 -0.10534,0.053 -0.10534,0.1176 0,0.065 -0.0547,0.1176 -0.12152,0.1176 -0.22585,0 -2.60897,1.6676 -2.50742,1.7545 0.0987,0.085 1.72745,0.6395 2.48195,0.8457 0.21019,0.057 0.58061,0.1608 0.82314,0.2298 0.731,0.2079 1.43938,0.3767 2.93982,0.7008 1.70706,0.3686 6.1208,0.614 6.58414,0.366 0.14685,-0.079 0.34844,-0.4792 0.55299,-1.0989 0.32871,-0.9959 0.47529,-1.2692 0.68064,-1.2692 0.16791,0 0.0435,0.6174 -0.35554,1.7638 -0.63721,1.831 -0.90449,3.6516 -0.80673,5.4952 0.11496,2.1678 0.23818,3.0836 0.89025,6.6169 0.15403,0.8346 0.82467,4.9146 0.95232,5.7936 0.14133,0.9732 0.15143,8.3141 0.0118,8.5345 -0.17791,0.2807 -0.23906,-0.3058 -0.24223,-2.3231 -0.002,-1.0602 -0.0331,-1.9577 -0.0699,-1.9945 -0.11881,-0.1188 -1.04452,0.4508 -1.36651,0.8409 -1.49509,1.8111 -1.57102,1.8832 -2.45082,2.3249 -0.48507,0.2436 -1.09361,0.5321 -1.35231,0.6412 -2.29521,0.9677 -3.17442,1.6947 -4.70207,3.8878 -1.23796,1.7773 -2.07901,2.6296 -3.04583,3.0866 -0.87964,0.4158 -1.40638,0.5494 -3.07062,0.7788 -2.16206,0.2981 -2.9794,0.6098 -4.14695,1.5814 -0.8345,0.6945 -1.71356,1.8427 -2.78759,3.641 -0.89007,1.4903 -1.79393,2.5363 -2.53213,2.9303 -0.59444,0.3173 -1.91238,0.3649 -2.28567,0.083 -0.30695,-0.2322 -0.41849,-0.2174 -0.41849,0.056 0,0.2454 -0.15498,0.4007 -0.27758,0.2781 z m 39.29512,-28.2316 c 1.1823,-0.6073 1.44817,-0.7961 2.41264,-1.7136 0.26146,-0.2487 0.59203,-0.5286 0.73461,-0.622 0.28405,-0.1862 0.27366,-0.326 -0.11241,-1.5128 -0.70954,-2.1812 -1.95591,-6.7593 -2.14495,-7.8787 -0.0328,-0.194 -0.10528,-0.4586 -0.16114,-0.588 -0.0559,-0.1293 -0.12926,-0.3939 -0.16311,-0.5879 -0.0338,-0.1941 -0.11683,-0.6042 -0.1844,-0.9114 -0.0676,-0.3072 -0.1782,-0.8099 -0.24585,-1.1171 -0.41474,-1.8835 -0.68494,-3.4396 -1.04646,-6.0266 -0.332,-2.3758 -0.27522,-2.2228 -0.79967,-2.155 -0.41731,0.054 -3.86304,-0.1166 -6.43875,-0.3187 -0.64676,-0.051 -1.83738,-0.1271 -2.64583,-0.1697 l -1.46991,-0.077 0.58796,0.2914 c 0.32338,0.1602 1.85797,0.9075 3.41019,1.6605 3.01629,1.4633 4.1332,2.023 4.71614,2.3632 l 0.36521,0.2132 0.39626,-0.3703 c 0.55754,-0.5211 1.50967,-1.0234 1.65825,-0.8748 0.21998,0.22 0.0394,0.5186 -0.49188,0.8134 -0.29104,0.1615 -0.64898,0.4042 -0.79542,0.5393 l -0.26626,0.2457 0.34128,0.3601 c 0.44138,0.4657 0.65878,0.9117 0.83777,1.7186 0.1767,0.7965 0.12361,1.7353 -0.28558,5.0503 -0.17164,1.3905 -0.36426,2.9516 -0.42805,3.469 -0.0638,0.5174 -0.16904,1.3376 -0.23389,1.8227 -0.0648,0.485 -0.1724,1.3052 -0.23902,1.8226 -0.0666,0.5175 -0.1702,1.2847 -0.2302,1.7051 -0.11608,0.8134 -0.27263,1.9322 -0.46482,3.322 -0.23297,1.6847 -0.32845,2.2682 -0.41627,2.5436 -0.0559,0.1754 0.41225,-0.2199 1.25346,-1.0583 1.18427,-1.1804 1.48516,-1.4114 2.5501,-1.9584 z m -34.35047,-19.6915 c 0.76392,-0.8556 1.56092,-1.7305 1.77112,-1.9442 0.44981,-0.4574 0.48007,-0.6159 0.11755,-0.6159 -0.61871,0 -2.88613,-0.5944 -3.80738,-0.998 -2.14374,-0.9394 -3.71588,-1.9841 -5.20044,-3.456 l -0.99347,-0.985 -0.48209,0.2453 c -0.52843,0.2688 -1.15406,0.6328 -1.24644,0.7251 -0.0323,0.032 -0.18511,0.13 -0.33949,0.2169 -0.15438,0.087 -0.44542,0.2529 -0.64676,0.3688 -1.33662,0.7697 -2.68529,1.5171 -3.18828,1.7669 -0.95034,0.4719 -0.95005,0.4692 -0.13816,1.2605 1.04831,1.0218 2.26381,1.8979 3.45166,2.4878 1.76706,0.8776 2.29195,1.0387 5.38835,1.6542 1.29352,0.2571 2.61643,0.5423 2.93981,0.6338 0.32338,0.091 0.67731,0.1728 0.78652,0.1808 0.11678,0.01 0.77055,-0.626 1.5875,-1.541 z m 20.32135,-10.4332 c 2.81473,-0.2651 4.43725,-0.5751 6.35,-1.2133 0.81812,-0.273 2.07045,-1.0557 2.60558,-1.6286 0.84701,-0.9068 1.394,-2.3427 1.38324,-3.6311 -0.006,-0.7594 -0.0526,-0.9507 -0.33181,-1.3727 -0.39365,-0.5948 -0.95604,-0.9818 -1.89312,-1.3026 -1.33875,-0.4584 -2.20427,-0.4954 -6.46759,-0.2765 -3.25351,0.1671 -6.04856,0.071 -6.07199,-0.2091 -0.0187,-0.2238 -0.16385,1.0199 -0.34134,2.9255 -0.0693,0.7438 -0.1784,1.9079 -0.24249,2.587 -0.22483,2.3821 -0.29667,3.3525 -0.25683,3.469 0.0221,0.065 0.29004,0.2901 0.5954,0.5008 l 0.55521,0.3833 1.46991,-0.06 c 0.80845,-0.033 1.99907,-0.1103 2.64583,-0.1712 z m -5.56485,-2.0728 c 0.0438,-0.577 0.13946,-1.6311 0.21264,-2.3426 0.5145,-5.002 0.63848,-6.7559 0.63593,-8.9958 -10e-4,-1.1318 -0.0645,-2.5077 -0.14057,-3.0574 -0.076,-0.5497 -0.20495,-1.5022 -0.28651,-2.1167 -0.0835,-0.6286 -0.13699,-2.0297 -0.12242,-3.2044 0.0142,-1.148 0.0104,-2.0872 -0.008,-2.0872 -0.0189,0 -0.28711,0.086 -0.59605,0.1914 -0.37932,0.1292 -0.75225,0.1688 -1.14852,0.1219 l -0.58681,-0.069 0.0653,0.5542 c 0.33005,2.8027 0.0702,6.9948 -0.63947,10.3145 -0.0691,0.3233 -0.15431,0.7867 -0.1893,1.0296 -0.035,0.243 -0.11094,0.471 -0.16878,0.5067 -0.0578,0.036 -0.10517,0.2175 -0.10517,0.4039 0,0.1864 -0.0529,0.3716 -0.1176,0.4116 -0.0647,0.04 -0.11759,0.1987 -0.11759,0.3528 0,0.1541 -0.0461,0.3086 -0.1024,0.3434 -0.10277,0.063 -0.29766,0.7493 -0.26372,0.9279 0.10715,0.5638 0.44848,3.7485 0.55368,5.1658 l 0.0763,1.0278 0.52667,0.2631 c 0.28967,0.1446 0.90499,0.5109 1.36738,0.8138 0.46239,0.303 0.89363,0.5381 0.9583,0.5225 0.0647,-0.016 0.15341,-0.5004 0.19719,-1.0773 z m -3.54028,-2.4602 c -0.0751,-0.6467 -0.19176,-1.6521 -0.2592,-2.2342 -0.0674,-0.5821 -0.1466,-1.1346 -0.17595,-1.2278 -0.0324,-0.1028 -0.21706,0.1051 -0.47005,0.5292 -0.22918,0.3842 -0.54104,0.8166 -0.693,0.9608 l -0.2763,0.2623 0.23069,0.7961 c 0.12688,0.4378 0.28392,1.0277 0.34898,1.3107 0.15046,0.6547 0.31185,0.9553 0.51288,0.9553 0.0874,0 0.31038,0.079 0.49563,0.1758 0.32103,0.1676 0.33884,0.1635 0.37987,-0.088 0.0237,-0.1452 -0.0184,-0.7932 -0.0935,-1.44 z m -46.69242,-13.0081 c 0.25863,-0.2665 0.47024,-0.5487 0.47024,-0.6272 0,-0.4882 -0.59072,-0.1919 -0.88381,0.4433 -0.12485,0.2706 -0.24606,0.5317 -0.26936,0.5802 -0.12311,0.2564 0.27211,0.027 0.68293,-0.3963 z m -0.36854,-0.9389 c 0.1531,-0.1937 0.24549,-0.385 0.20533,-0.4251 -0.0993,-0.099 -0.66007,0.4396 -0.66007,0.6343 0,0.2437 0.15192,0.1738 0.45474,-0.2092 z m -0.80752,-0.6207 c 0,-0.025 -0.10583,-0.073 -0.23518,-0.1066 -0.12936,-0.034 -0.23519,-0.014 -0.23519,0.045 0,0.059 0.10583,0.1066 0.23519,0.1066 0.12935,0 0.23518,-0.02 0.23518,-0.045 z m -2.96367,-2.7714 c 0.4823,-0.4823 0.53964,-0.8904 0.17617,-1.2539 l -0.28896,-0.2889 -0.35586,0.4451 c -0.43414,0.5431 -0.59443,0.9342 -0.5021,1.2251 0.10499,0.3307 0.57416,0.2692 0.97075,-0.1274 z m 40.60853,-20.8305 c 1.37664,-0.9802 2.43955,-3.359 2.45003,-5.4831 0.008,-1.6614 -0.67691,-2.574 -3.15542,-4.2031 -1.3023,-0.8559 -2.23596,-1.7244 -2.53791,-2.3607 -0.10623,-0.2239 -0.23035,-0.4069 -0.27583,-0.4066 -0.0455,2e-4 -0.18215,0.2423 -0.30373,0.5379 -0.19325,0.4699 -0.87019,1.4407 -1.33317,1.9119 -0.0849,0.086 -0.29914,0.351 -0.47602,0.5879 -0.17689,0.237 -0.38949,0.5025 -0.47246,0.5901 -0.71821,0.7582 -0.95123,2.7243 -0.5016,4.2323 0.49551,1.6619 1.36739,2.8493 2.97961,4.0579 0.61531,0.4612 1.15586,0.7373 1.6122,0.8233 0.56473,0.1066 1.68538,-0.054 2.0143,-0.2878 z m -1.42634,-0.9162 c 0,-0.072 -0.10271,-0.1313 -0.22825,-0.1313 -0.12553,0 -0.26095,-0.053 -0.30092,-0.1176 -0.04,-0.065 -0.20184,-0.1176 -0.35971,-0.1176 -0.16333,0 -0.28705,-0.069 -0.28705,-0.1596 0,-0.2456 1.15134,-1.3466 1.27689,-1.2211 0.0652,0.065 0.13588,0.062 0.17912,-0.01 0.0668,-0.1081 0.36133,-0.065 1.10163,0.1597 0.2596,0.079 0.378,0.4058 0.14699,0.4058 -0.0647,0 -0.11759,0.06 -0.11759,0.1332 0,0.073 -0.11906,0.2391 -0.26458,0.3686 -0.17947,0.1597 -0.2173,0.2524 -0.1176,0.2882 0.24967,0.09 0.16285,0.2386 -0.17638,0.3028 -0.17786,0.034 -0.44245,0.099 -0.58797,0.1446 -0.16627,0.053 -0.26458,0.035 -0.26458,-0.048 z m 0.403,-0.5307 c 0.41839,-0.1457 0.84057,-0.5129 0.72384,-0.6296 -0.0257,-0.026 -0.20769,0.037 -0.40452,0.1384 -0.19682,0.1018 -0.51738,0.1851 -0.71234,0.1851 -0.23413,0 -0.39722,0.08 -0.48035,0.2351 -0.10887,0.2035 -0.0896,0.235 0.14285,0.2335 0.1478,-10e-4 0.47653,-0.074 0.73052,-0.1625 z m 0.23907,-0.7054 c 0.1739,-0.09 0.26759,-0.194 0.2082,-0.2307 -0.1285,-0.079 -0.97884,0.1358 -1.13837,0.2881 -0.18034,0.1722 0.57783,0.1254 0.93017,-0.057 z m -1.88002,-0.8978 c -0.16897,-0.1867 -0.19216,-0.3064 -0.10642,-0.549 0.18001,-0.5093 0.40328,-0.4778 0.31916,0.045 -0.0651,0.4043 -0.0533,0.4332 0.11891,0.2914 0.11966,-0.099 0.31909,-0.1293 0.53342,-0.082 0.28078,0.062 0.35366,0.032 0.40539,-0.1659 0.0431,-0.165 0.15944,-0.2412 0.36805,-0.2412 0.22218,0 0.305,-0.061 0.305,-0.2254 0,-0.124 -0.0662,-0.249 -0.147,-0.2779 -0.0808,-0.029 -0.10675,-0.096 -0.0576,-0.1482 0.12324,-0.1319 0.43145,0.3008 0.43602,0.6122 0.003,0.1719 -0.11103,0.3056 -0.34904,0.4109 -0.19403,0.086 -0.35278,0.1962 -0.35278,0.2451 0,0.049 -0.18208,0.089 -0.40463,0.089 -0.22255,0 -0.43734,0.053 -0.47731,0.1176 -0.11552,0.187 -0.3572,0.1374 -0.59119,-0.1211 z m -2.38076,-1.7821 c 0.0282,-0.085 0.20578,-0.2014 0.39452,-0.2585 0.49651,-0.1504 0.90842,-0.345 1.08652,-0.5135 0.27076,-0.2561 0.38694,-0.1588 0.18264,0.153 -0.23308,0.3557 -0.64017,0.5788 -1.26172,0.6915 -0.34849,0.063 -0.44144,0.046 -0.40196,-0.072 z m -0.70512,-0.8239 c 0.0257,-0.077 0.23556,-0.2929 0.46638,-0.4798 0.50216,-0.4064 1.29079,-0.6163 1.63115,-0.4342 0.33983,0.1819 0.16573,0.3485 -0.3641,0.3485 -0.40887,0 -1.15203,0.3048 -1.46067,0.5991 -0.15969,0.1522 -0.3278,0.1315 -0.27276,-0.034 z m 4.64721,-0.523 c -0.39154,-0.1136 -0.2037,-0.2776 0.31785,-0.2776 0.52766,0 1.10811,-0.1874 1.26785,-0.4092 0.0572,-0.08 0.087,-0.077 0.0882,0.01 9.9e-4,0.071 -0.0971,0.243 -0.21789,0.3823 -0.22191,0.2559 -1.0283,0.4195 -1.456,0.2955 z m -0.55857,-0.8474 c 0,-0.2873 1.49734,-0.9473 1.76871,-0.7796 0.2373,0.1467 0.0903,0.2762 -0.53772,0.4737 -0.35777,0.1126 -0.67839,0.2498 -0.71249,0.305 -0.0804,0.13 -0.5185,0.1308 -0.5185,9e-4 z m 32.38934,106.0336 c -0.71063,-0.4243 -2.5971,-1.8509 -3.2822,-2.4819 -0.28457,-0.2622 -1.15987,-0.6766 -2.17843,-1.0314 -1.12756,-0.3927 -1.89557,-0.7628 -2.29306,-1.1049 -0.19403,-0.167 -0.39042,-0.3038 -0.43644,-0.3038 -0.22863,-4e-4 -0.40039,-1.6043 -0.32743,-3.0576 l 0.0266,-0.5292 0.0973,0.4704 c 0.0535,0.2587 0.10034,0.7024 0.10407,0.9859 0.0156,1.1904 0.37146,1.7592 1.40926,2.253 0.29579,0.1407 0.62968,0.303 0.74198,0.3606 0.11231,0.058 0.30762,0.1047 0.43404,0.1047 0.12641,0 0.26254,0.053 0.30251,0.1176 0.04,0.065 0.17611,0.1176 0.30252,0.1176 0.12641,0 0.32173,0.047 0.43403,0.1047 0.11231,0.058 0.4542,0.224 0.75977,0.3697 0.30556,0.1458 1.07659,0.7469 1.71339,1.3358 0.63681,0.5889 1.31284,1.1501 1.5023,1.247 0.18946,0.097 0.37093,0.2057 0.40327,0.2417 0.0323,0.036 0.32338,0.183 0.64676,0.3265 0.87568,0.3887 0.93744,0.4334 0.97832,0.7081 0.0597,0.4014 -0.41204,0.3187 -1.33852,-0.2345 z m 23.52594,-6.0365 c -1.01736,-0.288 -3.38133,-1.0633 -3.76296,-1.2342 -0.12935,-0.058 -0.44685,-0.1726 -0.70556,-0.2547 -0.2587,-0.082 -0.52064,-0.1915 -0.58208,-0.243 -0.0614,-0.051 -0.20768,-0.094 -0.32498,-0.094 -0.11729,0 -0.30514,-0.05 -0.41745,-0.112 -0.21525,-0.1181 -1.25459,-0.4618 -2.14447,-0.7091 -0.29104,-0.081 -0.68258,-0.1938 -0.87009,-0.2509 -0.18751,-0.057 -0.49079,-0.1039 -0.67396,-0.1039 -0.467,0 -2.91034,-0.581 -3.33604,-0.7932 -0.83086,-0.4143 -1.11803,-0.9631 -1.11533,-2.1316 0.002,-0.9249 0.16273,-1.3105 0.28169,-0.6763 0.18681,0.9957 0.73542,1.8117 1.46579,2.18 0.44823,0.2261 1.66112,0.5558 2.37937,0.6468 0.82019,0.1039 4.69835,1.271 5.69033,1.7124 0.12935,0.058 0.44685,0.1719 0.70556,0.254 0.2587,0.082 0.52064,0.1915 0.58208,0.243 0.0614,0.052 0.22284,0.094 0.35866,0.094 0.13582,0 0.29721,0.044 0.35865,0.099 0.10582,0.094 0.93037,0.3597 2.42844,0.7832 1.28255,0.3626 2.33622,0.064 1.81338,-0.5135 -0.11601,-0.1282 -0.49445,-0.3673 -0.84097,-0.5314 -0.67767,-0.3208 -0.99585,-0.7076 -0.76885,-0.9346 0.0968,-0.097 0.19784,-0.09 0.3838,0.026 0.7533,0.4704 1.26424,0.706 1.32344,0.6102 0.0809,-0.1309 -0.17507,-0.3996 -0.64523,-0.6774 -0.22448,-0.1326 -0.3485,-0.3014 -0.3485,-0.4745 0,-0.3502 0.21459,-0.3395 0.77734,0.039 l 0.45739,0.3075 -0.28319,-0.3055 c -0.15575,-0.1681 -0.38064,-0.3365 -0.49977,-0.3743 -0.13024,-0.041 -0.21658,-0.18 -0.21658,-0.3479 0,-0.3304 0.20218,-0.4906 0.38654,-0.3062 0.072,0.072 0.18037,0.1308 0.24088,0.1308 0.0605,0 -0.0642,-0.152 -0.277,-0.3379 -0.23925,-0.2088 -0.36108,-0.4054 -0.31911,-0.5148 0.0922,-0.2402 -0.13226,-0.4405 -0.4958,-0.4423 -0.30069,0 -1.90358,-0.7615 -2.31484,-1.0976 -1.33404,-1.0902 -1.71278,-1.3846 -2.21836,-1.7242 -0.32338,-0.2172 -0.61442,-0.4275 -0.64676,-0.4672 -0.0323,-0.04 -0.244,-0.1977 -0.47037,-0.3512 -0.56345,-0.3819 -2.35106,-2.1556 -2.70765,-2.6866 -0.16003,-0.2383 -0.38356,-0.5358 -0.49674,-0.6612 -0.11319,-0.1254 -0.20579,-0.293 -0.20579,-0.3724 0,-0.079 -0.0416,-0.162 -0.0925,-0.1836 -0.0509,-0.022 -0.24932,-0.3445 -0.44097,-0.7176 -0.19165,-0.3732 -0.44258,-0.8567 -0.55762,-1.0746 -0.42799,-0.8105 -0.86838,-3.5975 -0.56846,-3.5975 0.0724,0 0.13087,0.1934 0.13087,0.4327 0,0.2379 0.0513,0.5951 0.11404,0.7937 0.0627,0.1986 0.22643,0.7315 0.36379,1.1841 0.13735,0.4527 0.28575,0.8496 0.32977,0.882 0.044,0.032 0.30938,0.5181 0.5897,1.0794 0.28031,0.5612 0.59653,1.1169 0.70271,1.2348 0.10617,0.1179 0.3491,0.423 0.53984,0.6781 0.6859,0.9172 2.28546,2.3355 3.65135,3.2375 0.51741,0.3417 1.15241,0.8207 1.41111,1.0645 0.2587,0.2437 0.76141,0.6261 1.11713,0.8497 0.64871,0.4079 0.77061,0.4566 2.29306,0.9179 0.45273,0.1371 0.89235,0.3065 0.97693,0.3763 0.45283,0.374 0.61792,1.5966 0.36107,2.674 -0.0694,0.291 -0.12797,0.9503 -0.13019,1.465 -0.004,0.8649 -0.0289,0.9607 -0.3323,1.2641 -0.41283,0.4128 -1.04222,0.4225 -2.40422,0.037 z m 2.14362,-4.9539 c -0.0391,-0.039 -0.1405,-0.043 -0.22539,-0.01 -0.0938,0.037 -0.0659,0.065 0.071,0.071 0.12396,0.01 0.19341,-0.023 0.15434,-0.062 z m -80.475,4.0144 c -0.0814,-0.2122 0.008,-1.2317 0.18763,-2.1501 0.29003,-1.479 0.34589,-1.8033 0.52155,-3.028 0.13573,-0.9464 0.18717,-2.2719 0.19163,-4.9389 0.006,-3.797 0.1237,-5.0565 0.47104,-5.0565 0.20181,0 0.19904,0.071 -0.0662,1.7051 -0.16858,1.0382 -0.18439,1.5716 -0.0993,3.3514 0.17701,3.7035 0.12265,4.6372 -0.3899,6.6985 -0.22447,0.9028 -0.503,2.6016 -0.50564,3.0841 -0.002,0.4157 -0.19853,0.6269 -0.31075,0.3344 z m 27.47259,-4.8395 c 0,-0.3711 -0.0506,-0.8372 -0.11256,-1.0358 -0.0619,-0.1986 -0.22537,-0.9962 -0.36326,-1.7723 -0.13788,-0.7761 -0.29578,-1.5963 -0.35087,-1.8227 -0.0551,-0.2263 -0.15955,-0.6761 -0.23213,-0.9995 -0.15098,-0.6727 -0.32402,-1.3703 -0.4667,-1.8815 -0.23039,-0.8253 -0.25533,-1.2347 -0.0752,-1.2347 0.19827,0 0.17175,-0.077 0.65428,1.9086 0.51303,2.1115 0.78369,3.4274 0.9498,4.6178 0.21402,1.5337 0.26839,2.727 0.1282,2.8136 -0.0911,0.056 -0.13152,-0.1259 -0.13152,-0.5935 z m 19.07728,0.073 c 0,-0.2264 0.0242,-0.319 0.0538,-0.2058 0.0296,0.1131 0.0296,0.2984 0,0.4115 -0.0296,0.1132 -0.0538,0.021 -0.0538,-0.2057 z m -9.36785,-2.1461 c -0.0849,-1.4689 -0.21479,-2.4251 -0.5551,-4.0864 -0.22956,-1.1206 -0.72379,-3.0953 -0.91238,-3.6453 -0.0554,-0.1617 -0.165,-0.5321 -0.24348,-0.8232 -0.0785,-0.291 -0.19045,-0.621 -0.24882,-0.7333 -0.0584,-0.1123 -0.10614,-0.3341 -0.10614,-0.4929 0,-0.1587 -0.0529,-0.3213 -0.11759,-0.3613 -0.0647,-0.04 -0.11759,-0.2113 -0.11759,-0.3807 0,-0.1695 -0.0489,-0.4706 -0.10857,-0.6693 -0.17463,-0.5808 -0.34061,-1.4818 -0.41857,-2.272 -0.06,-0.6079 -0.0419,-0.7349 0.1044,-0.7349 0.1747,0 0.23068,0.1961 0.3524,1.2347 0.0303,0.2587 0.11441,0.735 0.18685,1.0583 0.0724,0.3234 0.1611,0.7605 0.19699,0.9713 0.0359,0.2108 0.11233,0.4123 0.16986,0.4479 0.0575,0.035 0.1046,0.1945 0.1046,0.3533 0,0.1587 0.0485,0.3805 0.10766,0.4928 0.0592,0.1123 0.22157,0.6011 0.3608,1.0861 0.13922,0.4851 0.30015,1.0143 0.35761,1.176 0.20601,0.5796 0.68495,2.5437 0.81725,3.3513 0.0742,0.4528 0.18455,1.0786 0.2453,1.3907 0.14044,0.7216 0.14512,3.9598 0.006,3.9598 -0.0576,0 -0.13915,-0.5953 -0.1812,-1.3229 z m 15.45538,-3.4396 c 0,-0.097 0.0529,-0.1764 0.11759,-0.1764 0.0647,0 0.1176,0.079 0.1176,0.1764 0,0.097 -0.0529,0.1764 -0.1176,0.1764 -0.0647,0 -0.11759,-0.079 -0.11759,-0.1764 z m 15.78469,-7.4671 c 0,-0.2264 0.0242,-0.319 0.0538,-0.2058 0.0296,0.1132 0.0296,0.2984 0,0.4116 -0.0296,0.1131 -0.0538,0.02 -0.0538,-0.2058 z m -0.28924,-2.4695 c -0.14227,-0.7268 -0.21293,-1.2122 -0.32951,-2.2636 -0.0628,-0.5659 -0.17017,-1.5184 -0.23872,-2.1167 -0.28185,-2.46 -0.32963,-2.9088 -0.44413,-4.1725 -0.0658,-0.7265 -0.1555,-1.4338 -0.19928,-1.5717 -0.0758,-0.2389 0.0379,-1.8161 0.12468,-1.7293 0.0385,0.038 0.17725,1.1354 0.41347,3.2696 0.11532,1.0418 0.30413,2.7223 0.46243,4.1157 0.24524,2.1587 0.3679,3.7558 0.33064,4.305 -0.0381,0.5622 -0.0408,0.5659 -0.11958,0.1635 z m -1.35468,-12.5236 c 0.001,-0.2587 0.0254,-0.3507 0.0535,-0.2044 0.0281,0.1463 0.0271,0.3579 -0.002,0.4704 -0.0294,0.1124 -0.0525,-0.01 -0.0511,-0.266 z m 0.004,-1.0583 c 8.9e-4,-0.3234 0.0237,-0.4417 0.0508,-0.263 0.027,0.1788 0.0263,0.4434 -0.002,0.588 -0.0279,0.1446 -0.05,0 -0.0492,-0.325 z m -53.76416,-19.883 c 0.006,-0.1369 0.0335,-0.1648 0.0711,-0.071 0.034,0.085 0.0298,0.1863 -0.009,0.2254 -0.0391,0.039 -0.0669,-0.03 -0.0618,-0.1544 z m -10.98561,-0.7163 c -0.14793,-0.148 -0.0708,-0.5691 0.15781,-0.8614 0.12647,-0.1617 0.23328,-0.3469 0.23735,-0.4115 0.004,-0.065 0.28392,-0.5143 0.62189,-0.999 0.54781,-0.7858 0.70924,-0.9293 1.48731,-1.3222 0.48004,-0.2424 1.02192,-0.5836 1.20418,-0.7582 0.38786,-0.3716 0.64331,-0.2571 0.46528,0.2086 -0.15462,0.4045 -0.45609,0.6435 -1.43823,1.1403 -0.93209,0.4715 -1.4307,1.0088 -2.06786,2.2285 -0.35634,0.6821 -0.54342,0.8992 -0.66773,0.7749 z m -26.69804,-7.3788 c -0.62976,-0.6298 -0.84106,-0.9727 -1.14255,-1.8541 -0.12163,-0.3556 -0.11918,-0.5256 0.0135,-0.9407 0.20826,-0.6514 0.45253,-1.0359 0.65811,-1.0359 0.22218,0 0.20509,0.4142 -0.032,0.7761 -0.23966,0.3658 -0.24161,1.1908 -0.004,1.6488 0.0966,0.1862 0.44548,0.5935 0.77521,0.9051 0.5656,0.5346 0.74032,0.92 0.48778,1.0761 -0.0614,0.038 -0.40172,-0.221 -0.75616,-0.5754 z m 3.42513,-0.028 c -0.45416,-0.2392 -0.71573,-0.7958 -0.63985,-1.3615 0.068,-0.5067 0.32063,-0.8476 0.81944,-1.1055 l 0.32675,-0.169 -0.49101,-0.3776 c -0.3924,-0.3017 -0.52169,-0.4986 -0.64374,-0.9804 -0.14305,-0.5647 -0.52266,-1.3724 -0.76399,-1.6255 -0.0586,-0.062 -0.10651,-0.3928 -0.10651,-0.7362 0,-0.6478 0.27027,-1.371 0.71582,-1.9155 l 0.24055,-0.294 -0.0785,0.7055 c -0.0432,0.3881 -0.12607,0.7947 -0.1842,0.9037 -0.16063,0.301 -0.12636,0.9548 0.0643,1.227 0.0935,0.1335 0.23235,0.4904 0.30856,0.793 0.16843,0.6689 0.68625,1.4118 1.13234,1.6246 0.24831,0.1184 0.33871,0.2546 0.36733,0.5534 0.0209,0.218 -0.0188,0.4531 -0.0882,0.5225 -0.0694,0.069 -0.12616,0.246 -0.12616,0.3925 0,0.1464 -0.10583,0.3229 -0.23518,0.3921 -0.37691,0.2018 -0.27534,0.3743 0.19639,0.3337 0.26764,-0.023 0.45004,0.018 0.48017,0.1085 0.0579,0.1736 0.71514,0.1921 1.13632,0.032 0.24351,-0.092 0.32117,-0.073 0.41545,0.1028 0.14725,0.2752 -0.1764,0.5991 -0.59861,0.5991 -0.16062,0 -0.51108,0.1058 -0.77881,0.2352 -0.5599,0.2705 -1.00747,0.2826 -1.46867,0.04 z m 1.39015,-5.9771 c -0.29508,-0.7062 -0.19289,-1.3156 0.31449,-1.8753 0.11365,-0.1254 0.20663,-0.2595 0.20663,-0.2981 0,-0.1496 0.69435,-0.4704 0.87134,-0.4025 0.27925,0.1072 0.23705,0.1901 -0.3435,0.6754 -0.67922,0.5678 -0.94443,1.1568 -0.77449,1.7201 0.17658,0.5853 -0.0446,0.7307 -0.27447,0.1804 z m 0.8646,-0.042 c 0.0743,-0.1389 0.17995,-0.2526 0.23467,-0.2526 0.24811,0 0.84298,-0.7855 0.9094,-1.2009 0.11166,-0.6983 0.51153,-0.528 0.51153,0.2179 0,0.414 -0.89037,1.3153 -1.39516,1.4122 -0.3763,0.072 -0.38902,0.064 -0.26044,-0.1766 z m -6.87534,-1.224 c -0.11348,-0.2957 0.18332,-0.8602 0.57345,-1.0906 0.67468,-0.3986 2.66582,0 2.66582,0.5402 0,0.2286 -0.0442,0.2465 -0.44097,0.1788 -0.24254,-0.042 -0.79031,-0.1057 -1.21728,-0.1428 -0.76298,-0.066 -0.78257,-0.061 -1.14069,0.3225 -0.30829,0.3298 -0.37608,0.3594 -0.44033,0.1919 z m 0.99967,-3.5623 c -0.20234,-0.2438 0.36591,-0.7081 1.07476,-0.8782 0.75088,-0.1801 1.8104,-0.057 2.11259,0.2449 0.25867,0.2586 0.18055,0.6329 -0.10893,0.5219 -0.55171,-0.2118 -1.6225,-0.1951 -2.2739,0.035 -0.56328,0.1993 -0.69216,0.2115 -0.80452,0.076 z m 62.85304,-2.7677 c -0.18103,-0.3501 -0.17629,-0.3804 0.12833,-0.8199 0.26502,-0.3825 0.3522,-0.4372 0.53773,-0.338 0.31109,0.1665 0.33915,1.0677 0.0425,1.3643 -0.25512,0.2552 -0.50796,0.1815 -0.70855,-0.2064 z m -8.20192,-12.4247 c -0.0268,-0.048 -0.0592,-0.4057 -0.0721,-0.7938 -0.0459,-1.3851 -0.76633,-2.8603 -2.35433,-4.8213 -0.48517,-0.5991 -0.61064,-0.9995 -0.3132,-0.9995 0.33679,0 1.76607,1.9662 2.39966,3.3012 0.38087,0.8024 0.82427,2.8622 0.69094,3.2096 -0.0767,0.1999 -0.26693,0.2562 -0.351,0.1038 z m -14.42911,-6.8862 c 0,-0.4189 -0.0831,-1.1635 -0.18473,-1.6548 -0.22116,-1.0694 -0.18493,-1.6973 0.0551,-0.9546 0.41418,1.2816 0.5757,3.2209 0.27664,3.3215 -0.10755,0.036 -0.14699,-0.1549 -0.14699,-0.7121 z"
       id="path60" /></g></svg>
