<?xml version="1.0" encoding="UTF-8" standalone="no"?>
<!-- Created with Inkscape (http://www.inkscape.org/) -->

<svg
   width="130.71033mm"
   height="122.71333mm"
   viewBox="0 0 130.71034 122.71333"
   version="1.1"
   id="svg1"
   xml:space="preserve"
   xmlns="http://www.w3.org/2000/svg"
   xmlns:svg="http://www.w3.org/2000/svg"><defs
     id="defs1" /><g
     id="layer1"
     transform="translate(174.05462,-1380.1522)"><path
       style="fill:#4d4d4d"
       d="m -173.96914,1502.795 c -0.17489,-0.1749 -0.0659,-0.5081 0.18619,-0.569 0.14552,-0.035 11.12573,-0.049 24.40046,-0.032 l 24.13588,0.032 v -7.045 -7.0451 l -3.67477,0.078 c -2.02112,0.043 -6.24123,0.1056 -9.37801,0.1389 -3.13678,0.033 -9.80428,0.111 -14.81666,0.1727 -5.01239,0.062 -11.75926,0.1269 -14.99306,0.1447 l -5.87963,0.033 v -0.294 -0.294 l 6.58519,-0.076 c 22.00577,-0.2535 32.13465,-0.4047 40.83412,-0.6096 0.46895,-0.011 0.8526,-0.065 0.85254,-0.1196 -5e-5,-0.055 -0.10004,-0.2399 -0.22219,-0.4115 -0.12216,-0.1717 -0.5643,-0.8943 -0.98253,-1.6057 -0.41824,-0.7114 -1.02306,-1.7168 -1.34405,-2.2343 -0.32098,-0.5174 -0.65936,-1.0703 -0.75195,-1.2287 -0.0926,-0.1584 -0.20947,-0.3436 -0.25971,-0.4116 -0.13846,-0.1872 -1.42731,-2.2408 -2.79837,-4.4586 -0.67431,-1.0907 -1.33596,-2.0566 -1.47033,-2.1463 -0.44335,-0.296 -1.46827,-0.4074 -2.76225,-0.3001 -0.67472,0.056 -3.13177,0.062 -5.4601,0.013 -4.15444,-0.087 -4.23717,-0.084 -4.43912,0.1485 -0.11318,0.1304 -0.20579,0.4172 -0.20579,0.6373 0,0.22 -0.0467,0.492 -0.10387,0.6043 -0.0571,0.1123 -0.17619,0.3629 -0.26458,0.557 -0.37454,0.8221 -1.31599,1.5082 -2.26476,1.6505 -0.53327,0.08 -0.54179,0.088 -0.54179,0.5224 0,0.274 -0.0962,0.5635 -0.25406,0.7642 -0.22879,0.2908 -0.31067,0.3175 -0.82315,0.2683 -0.56255,-0.054 -0.56908,-0.051 -0.56908,0.2875 0,0.1883 0.059,0.5765 0.13105,0.8627 0.0721,0.2863 0.0964,0.705 0.0541,0.9306 -0.1079,0.5751 -0.59585,1.1226 -1.00055,1.1226 -0.18006,0 -0.42357,0.1099 -0.54792,0.2473 -0.18772,0.2074 -0.32376,0.239 -0.84322,0.1959 -0.42596,-0.035 -0.66004,0 -0.74954,0.1055 -0.16398,0.1976 -0.73566,0.2029 -1.04728,0.01 -0.17205,-0.1066 -0.2604,-0.111 -0.32178,-0.016 -0.0465,0.072 -0.20513,0.1687 -0.35244,0.2147 -0.37073,0.1157 -0.86234,-0.4311 -1.06103,-1.1803 -0.0841,-0.3172 -0.20318,-0.768 -0.26458,-1.0019 -0.0614,-0.2339 -0.11165,-0.9054 -0.11165,-1.4924 0,-0.5869 -0.0529,-1.0998 -0.11759,-1.1398 -0.16062,-0.099 -0.14882,-1.6494 0.0165,-2.1671 0.61786,-1.935 1.85924,-3.0158 3.05747,-2.662 0.70387,0.2078 1.40954,0.7812 2.11863,1.7215 1.07469,1.4251 1.58905,1.7553 2.73413,1.7553 1.24003,0 2.01534,-0.4823 2.52026,-1.5679 l 0.26435,-0.5683 -0.009,-6.546 c -0.005,-3.6003 -0.059,-6.89 -0.12043,-7.3104 -0.15568,-1.0649 -0.14429,-4.701 0.0168,-5.3782 0.17613,-0.7402 0.3512,-1.1045 0.50536,-1.0517 0.15751,0.054 0.13347,0.6809 -0.0527,1.3734 -0.0782,0.2911 -0.16721,0.8599 -0.19775,1.2641 -0.0524,0.6939 -0.0412,0.735 0.20093,0.735 0.14106,0 0.39693,0.1 0.5686,0.2214 0.17168,0.1218 0.51057,0.3335 0.75311,0.4704 0.24253,0.1369 0.63941,0.3611 0.88194,0.4982 1.18983,0.6727 2.57456,1.7371 3.18105,2.4453 1.69917,1.9841 2.75355,2.8478 3.75137,3.0729 0.32551,0.073 0.39116,0.05 0.45587,-0.1656 0.22055,-0.7333 0.43022,-1.0157 0.754,-1.0157 0.39911,0 0.5795,0.2033 0.66884,0.7538 0.0377,0.2321 0.11122,0.4221 0.16345,0.4221 0.24795,0 1.49632,-0.7927 1.92768,-1.2241 1.29226,-1.2923 2.28724,-3.4818 2.35601,-5.1847 0.0377,-0.9327 0.0334,-0.917 0.23079,-0.8412 0.35859,0.1376 7.29549,-2.9218 7.8246,-3.4509 0.0323,-0.032 0.18511,-0.13 0.33949,-0.2169 0.15438,-0.087 0.46895,-0.2638 0.69903,-0.393 1.64297,-0.9228 4.72162,-3.1841 6.12357,-4.4977 1.72465,-1.6161 3.20728,-3.2497 4.00922,-4.4174 0.15545,-0.2264 0.31173,-0.4381 0.34729,-0.4704 0.0356,-0.032 0.13965,-0.2043 0.23132,-0.3822 0.0917,-0.1779 0.21065,-0.3234 0.2644,-0.3234 0.0537,0 0.0977,-0.058 0.0977,-0.1288 0,-0.071 0.0978,-0.2693 0.21724,-0.441 0.20332,-0.2921 0.78359,-1.3143 1.16099,-2.0451 0.0914,-0.1771 0.26769,-0.6767 0.39168,-1.1103 0.28684,-1.003 0.78383,-1.5287 2.0507,-2.1692 0.51804,-0.2619 0.99795,-0.5226 1.06648,-0.5793 0.0685,-0.057 0.19807,-0.3729 0.28787,-0.7027 0.0898,-0.3298 0.20572,-0.6258 0.25758,-0.6579 0.0519,-0.032 0.0943,-0.1843 0.0943,-0.3384 0,-0.154 0.0466,-0.3089 0.10355,-0.3441 0.057,-0.035 0.13127,-0.1838 0.16514,-0.3303 0.0339,-0.1465 0.16786,-0.6103 0.29775,-1.0307 0.69321,-2.2436 1.18068,-3.9365 1.14409,-3.9731 -0.0227,-0.023 -0.14433,0.023 -0.27022,0.1016 -0.35024,0.2188 -0.72262,0.062 -1.5579,-0.6564 -0.7711,-0.6631 -1.72144,-1.2341 -2.05396,-1.2341 -0.0992,0 -0.1803,-0.047 -0.1803,-0.1047 0,-0.1697 -0.77421,-0.2705 -2.52824,-0.3289 -1.56422,-0.052 -2.12292,0 -3.41019,0.3384 -2.59481,0.6756 -4.1566,2.0186 -4.76008,4.0934 -0.31937,1.0979 -0.49195,1.5947 -0.63322,1.8226 -0.0802,0.1294 -0.21679,0.4734 -0.3036,0.7644 -0.73753,2.4726 -1.08832,3.0945 -2.5872,4.5869 -1.3415,1.3357 -1.34315,1.3371 -2.47562,2.118 -0.42039,0.2899 -0.79081,0.5595 -0.82315,0.5991 -0.10782,0.1321 -1.7032,1.1233 -2.60207,1.6166 -0.92714,0.5088 -2.72408,1.2683 -3.63034,1.5342 -0.29104,0.085 -0.635,0.1982 -0.76435,0.2507 -0.12935,0.052 -0.39393,0.1286 -0.58796,0.1693 -0.19403,0.041 -0.5909,0.1268 -0.88194,0.1914 -1.04062,0.231 -2.08429,0.36 -3.82176,0.4723 -2.44559,0.1581 -3.42245,0.1559 -4.17454,-0.01 -1.02775,-0.2258 -2.10265,-0.2739 -2.69142,-0.1205 -0.8951,0.2333 -1.89469,0.6354 -1.89469,0.7622 0,0.065 0.15532,0.1877 0.34517,0.2717 0.68007,0.301 1.13294,0.9127 2.25508,3.0459 0.45113,0.8576 0.77333,1.3122 1.24669,1.7586 0.41816,0.3944 1.27004,0.7446 1.81151,0.7446 0.17869,0 0.35759,0.053 0.39757,0.1176 0.04,0.065 0.17906,0.1175 0.3091,0.1175 0.41252,0 0.2208,0.4892 -0.3091,0.7887 -0.38127,0.2155 -0.65284,0.2662 -1.43357,0.2677 -0.52976,0 -0.99591,-0.051 -1.03588,-0.1156 -0.04,-0.065 -0.1479,-0.1176 -0.23984,-0.1176 -0.31904,0 -1.52934,-0.8701 -2.52358,-1.8143 -1.28275,-1.2181 -2.01991,-1.8301 -2.20486,-1.8307 -0.0808,-2e-4 -0.147,-0.053 -0.147,-0.118 0,-0.065 -0.10583,-0.1176 -0.23518,-0.1176 -0.12935,0 -0.23519,-0.041 -0.23519,-0.092 0,-0.2163 -1.0624,-0.3959 -1.9585,-0.3311 -1.66174,0.1202 -1.59075,0.1029 -1.49644,0.3642 0.12083,0.3348 0.19394,2.492 0.1047,3.0891 -0.13051,0.8733 -0.29506,0.4119 -0.2969,-0.8323 -0.002,-1.3845 -0.15825,-1.9444 -0.72209,-2.5881 -0.2163,-0.247 -0.39327,-0.5108 -0.39327,-0.5864 0,-0.2812 0.42385,-0.2052 0.76656,0.1375 l 0.35427,0.3543 0.26898,-0.269 c 0.19433,-0.1943 0.46921,-0.2916 0.99041,-0.3506 1.88406,-0.2132 3.14118,0.3416 5.10478,2.2528 1.85836,1.8088 2.81782,2.3848 3.9496,2.3711 l 0.67744,-0.01 -0.57687,-0.1771 c -0.80871,-0.2482 -1.74398,-1.2235 -2.40815,-2.5111 -1.2221,-2.3693 -1.69304,-2.7984 -3.61537,-3.294 -1.81131,-0.4671 -2.39624,-0.7082 -3.48317,-1.4361 -0.40412,-0.2706 -0.67616,-0.5377 -0.67616,-0.664 0,-0.341 0.12869,-0.3761 0.47525,-0.1293 0.17897,0.1275 0.37897,0.2317 0.44444,0.2317 0.0655,0 0.13668,0.042 0.15824,0.092 0.0496,0.117 1.26203,0.7077 1.77152,0.8631 1.39033,0.4239 1.6611,0.4688 1.76035,0.2914 0.0532,-0.095 0.40031,-0.3141 0.77144,-0.487 1.5334,-0.7142 1.88216,-0.7881 3.35001,-0.7098 0.69527,0.037 1.82678,0.097 2.51449,0.1341 0.81614,0.043 1.29393,0.023 1.37583,-0.059 0.069,-0.069 0.24717,-0.1255 0.39593,-0.1255 0.14875,0 0.27046,-0.053 0.27046,-0.1176 0,-0.065 0.0694,-0.1176 0.15422,-0.1176 0.17752,0 0.71208,-0.4664 0.62936,-0.5491 -0.0303,-0.03 -0.27259,0.01 -0.53839,0.09 -0.38597,0.1156 -0.82835,0.1132 -2.1973,-0.012 l -1.71404,-0.1568 0.0488,-0.3326 c 0.0387,-0.2638 0.003,-0.3327 -0.17068,-0.3327 -0.46165,0 -1.73884,-0.802 -1.73884,-1.0919 0,-0.061 -0.20096,-0.3556 -0.44657,-0.6557 -0.24562,-0.3 -0.76142,-0.9884 -1.14623,-1.5297 -0.77381,-1.0887 -2.07358,-2.3683 -3.14381,-3.095 -0.91029,-0.6182 -1.93433,-1.1536 -2.20635,-1.1536 -0.11897,0 -0.24901,-0.053 -0.28898,-0.1176 -0.04,-0.065 -0.2781,-0.1176 -0.52917,-0.1176 -0.25107,0 -0.48305,-0.043 -0.51551,-0.095 -0.0534,-0.087 -0.71595,-0.3128 -2.18912,-0.7478 -0.71799,-0.212 -4.05542,-0.2098 -4.99769,0 -1.29045,0.2919 -1.9833,0.5663 -3.29259,1.304 -1.03167,0.5813 -2.5968,1.9535 -3.29324,2.8874 -0.19294,0.2587 -0.38359,0.4968 -0.42368,0.5292 -0.1857,0.1498 -1.04558,2.1094 -1.04558,2.3829 0,0.1693 -0.0529,0.3405 -0.11759,0.3805 -0.17137,0.1059 -0.13417,1.6668 0.056,2.3518 l 0.16326,0.588 0.0333,-0.8231 c 0.0183,-0.4528 0.0215,-1.0565 0.007,-1.3417 -0.0422,-0.8296 0.69751,-2.7211 1.45982,-3.733 0.67234,-0.8925 1.44401,-1.5521 2.32759,-1.9897 0.76005,-0.3765 1.23427,-0.4916 1.38869,-0.3372 0.0978,0.098 -0.0366,0.5224 -0.16543,0.5224 -0.0614,0 -0.51268,0.1853 -1.0029,0.4118 -1.14684,0.5299 -2.27057,1.6501 -2.84139,2.8325 -0.21578,0.4469 -0.43606,0.8987 -0.48952,1.0039 -0.0535,0.1053 -0.13287,0.3815 -0.17647,0.6139 -0.0716,0.3815 -0.0352,0.4667 0.37413,0.8756 0.24937,0.2491 0.61216,0.5115 0.80619,0.5832 0.52124,0.1926 1.80424,0.3819 2.58832,0.3819 0.37816,0 0.85008,0.049 1.0487,0.1096 0.19862,0.06 0.59925,0.1724 0.89029,0.2491 0.48304,0.1273 1.9765,0.7857 2.11667,0.9331 0.0323,0.034 0.25211,0.2058 0.48838,0.3818 0.50946,0.3795 1.62554,1.828 1.62715,2.1118 6.3e-4,0.1094 0.0541,0.2315 0.11873,0.2715 0.0647,0.04 0.11759,0.1798 0.11759,0.3107 0,0.1389 0.0612,0.2171 0.14699,0.1877 0.0809,-0.028 0.13932,-0.2041 0.12993,-0.392 -0.0367,-0.7361 -0.19799,-1.7039 -0.29373,-1.7631 -0.0554,-0.034 -0.10078,-0.1391 -0.10078,-0.233 0,-0.4692 -0.91391,-2.031 -1.63373,-2.792 -0.60546,-0.6401 -1.01055,-0.8608 -2.43864,-1.3286 -1.53957,-0.5044 -1.68967,-0.5814 -1.68967,-0.8661 0,-0.2756 0.19675,-0.4124 0.38733,-0.2692 0.078,0.059 0.37996,0.176 0.671,0.261 1.82353,0.5325 2.39268,0.7827 3.00666,1.3218 0.7021,0.6164 2.04983,2.8728 2.04983,3.4318 0,0.097 0.0459,0.2052 0.10199,0.2399 0.10126,0.063 0.18031,0.4817 0.36781,1.9499 0.0537,0.4204 0.15153,0.976 0.21744,1.2347 0.0659,0.2587 0.25742,1.1319 0.42561,1.9403 0.6681,3.2116 0.99489,4.3264 1.68547,5.7502 0.45164,0.9311 1.52128,2.1432 2.25816,2.5588 0.85509,0.4823 1.50822,0.5798 0.98717,0.1474 -0.23475,-0.1948 -0.99824,-1.3386 -1.20985,-1.8124 -0.0867,-0.194 -0.20428,-0.4447 -0.26141,-0.557 -0.0571,-0.1123 -0.10388,-0.3076 -0.10388,-0.434 0,-0.1264 -0.0529,-0.2626 -0.11759,-0.3025 -0.13178,-0.082 -0.13949,-1.1062 -0.015,-1.9991 0.0781,-0.5605 0.0862,-0.5358 0.17234,0.5292 0.0497,0.6144 0.14049,1.1674 0.20172,1.2288 0.0612,0.061 0.11134,0.197 0.11134,0.3013 0,0.5811 1.02035,2.1189 2.01936,3.0433 0.3769,0.3488 0.68527,0.7073 0.68527,0.7967 0,0.089 -0.13557,0.2141 -0.30126,0.2771 -0.64108,0.2437 -2.31337,-0.444 -3.28909,-1.3527 -0.28987,-0.2699 -0.53989,-0.4779 -0.55561,-0.4622 -0.0157,0.016 0.0134,0.6018 0.0647,1.3025 0.20418,2.7887 0.31315,4.6885 0.4204,7.33 0.0617,1.5199 0.15005,3.2192 0.1963,3.7762 0.0547,0.6588 0.0417,1.039 -0.0372,1.0878 -0.22309,0.1379 -1.13291,-0.4466 -1.89423,-1.2168 -0.41454,-0.4194 -0.82806,-0.7634 -0.91895,-0.7644 -0.0909,-10e-4 -0.26522,-0.1341 -0.38743,-0.2958 -0.18651,-0.2468 -0.31943,-0.294 -0.828,-0.294 -0.53203,0 -0.64022,0.043 -0.88808,0.3528 -0.41236,0.5154 -0.38748,1.331 0.0694,2.2741 0.19402,0.4005 0.35277,0.8301 0.35277,0.9546 0,0.245 -0.18246,0.4207 -0.27739,0.2671 -0.0322,-0.052 -0.5253,-0.059 -1.09586,-0.015 -0.57057,0.044 -4.37114,0.099 -8.44573,0.1221 l -7.40833,0.042 -0.0362,-0.2545 c -0.033,-0.2318 0.03,-0.2609 0.70555,-0.3261 0.408,-0.04 4.16351,-0.1101 8.34558,-0.1571 l 7.60377,-0.086 -0.20685,-0.425 c -0.4055,-0.8331 -0.49084,-1.4293 -0.29769,-2.0797 0.28402,-0.9564 0.98047,-1.4131 1.95556,-1.2823 l 0.47537,0.064 -0.0683,-1.3721 c -0.0376,-0.7547 -0.12241,-1.8087 -0.18849,-2.3423 -0.62378,-5.0365 -0.79493,-6.8713 -0.90048,-9.6533 -0.0474,-1.249 -0.0283,-1.8441 0.062,-1.9344 0.0717,-0.072 0.1304,-0.224 0.1304,-0.3385 0,-0.2512 0.40366,-1 0.72954,-1.3533 0.24655,-0.2672 0.24785,-0.5085 0.01,-1.8017 -0.11342,-0.6161 -0.21793,-0.4618 -0.33754,0.4983 -0.0796,0.6391 -0.571,1.8113 -1.08824,2.5962 -0.5248,0.7962 -1.365,1.0114 -2.05879,0.5271 -0.20401,-0.1424 -0.39739,-0.2932 -0.42973,-0.3352 -0.17433,-0.2261 -0.60078,-0.348 -0.81541,-0.2332 -0.36582,0.1958 -0.81528,0.1435 -0.97577,-0.1134 -0.0808,-0.1294 -0.21361,-0.2352 -0.29517,-0.2352 -0.0816,0 -0.33838,-0.2646 -0.57071,-0.588 -0.41099,-0.572 -0.43845,-0.5879 -1.01577,-0.5879 -0.69845,0 -0.90391,-0.1914 -0.90954,-0.8471 -0.004,-0.4674 -0.0975,-0.7473 -0.5704,-1.707 -0.17985,-0.3651 -0.42963,-0.6754 -0.61632,-0.7658 -0.50165,-0.243 -0.80269,-0.6614 -1.8418,-2.5598 -0.41252,-0.7536 -0.56219,-1.5349 -0.55194,-2.881 0.0107,-1.4087 0.16255,-2.4396 0.45168,-3.067 0.10187,-0.2211 0.2743,-0.6004 0.38317,-0.8429 0.52064,-1.1599 1.97246,-2.7748 3.27104,-3.6383 2.07364,-1.379 4.58758,-2.1534 6.98896,-2.153 1.61701,2e-4 3.4374,0.3901 4.43304,0.9493 0.22177,0.1245 0.61014,0.2264 0.86306,0.2264 0.25292,0 0.49256,0.053 0.53253,0.1176 0.04,0.065 0.14951,0.1176 0.24341,0.1176 0.21733,0 1.27246,0.4874 1.32449,0.6118 0.0216,0.052 0.0961,0.094 0.16571,0.094 0.19944,0 1.36489,0.9103 2.24804,1.7559 0.44366,0.4248 1.29878,1.4338 1.90028,2.2422 1.23631,1.6617 2.13835,2.5639 2.72549,2.7261 0.843,0.2327 1.5505,-0.3095 1.91607,-1.4684 0.17481,-0.5542 0.43913,-0.5408 0.71772,0.036 0.34126,0.7071 0.49458,1.3781 0.4281,1.8737 -0.0352,0.2627 -0.0154,0.5076 0.0441,0.5444 0.21068,0.1302 1.464,-0.2308 1.95671,-0.5637 0.35468,-0.2395 0.49977,-0.4192 0.49977,-0.6189 0,-0.3468 0.20925,-0.4997 0.31318,-0.2289 0.13818,0.3601 -0.41525,2.0075 -0.76778,2.2854 -0.041,0.032 -0.1804,0.1857 -0.30975,0.3407 l -0.23519,0.2818 0.70556,-0.085 c 0.38805,-0.047 1.10243,-0.131 1.5875,-0.1873 1.20434,-0.1398 2.18464,-0.3386 3.46898,-0.7034 0.2587,-0.073 0.59021,-0.1627 0.73669,-0.1982 0.14648,-0.036 0.29512,-0.1113 0.33032,-0.1683 0.0352,-0.057 0.15055,-0.1035 0.25634,-0.1035 0.58632,0 5.58247,-2.8321 6.34977,-3.5994 0.0919,-0.092 0.361,-0.3118 0.59794,-0.4887 0.98492,-0.7353 2.13017,-1.8605 2.60078,-2.5552 0.52405,-0.7736 1.00418,-1.7742 1.10071,-2.2937 0.0795,-0.4278 0.67693,-2.0149 0.87111,-2.314 0.0914,-0.1408 0.26082,-0.6439 0.37643,-1.1178 0.11561,-0.474 0.33099,-1.0986 0.47863,-1.3879 0.39473,-0.7738 1.576,-1.8831 2.47026,-2.3198 2.38185,-1.1631 5.62272,-1.5693 7.62292,-0.9553 0.21504,0.066 0.41969,0.091 0.45477,0.056 0.0351,-0.035 0.13887,-1.773 0.23062,-3.862 0.2017,-4.5921 0.33027,-5.9945 0.75249,-8.2079 0.0679,-0.3557 0.15256,-0.8584 0.18824,-1.1171 0.0357,-0.2587 0.11236,-0.5206 0.17041,-0.5821 0.058,-0.061 0.10555,-0.2832 0.10555,-0.4928 0,-0.2096 0.0529,-0.4138 0.11759,-0.4538 0.0647,-0.04 0.11759,-0.2252 0.11759,-0.4116 0,-0.1864 0.0529,-0.3716 0.1176,-0.4116 0.0647,-0.04 0.11759,-0.1987 0.11759,-0.3527 0,-0.1541 0.0529,-0.3128 0.11759,-0.3528 0.0647,-0.04 0.11759,-0.1761 0.11759,-0.3025 0,-0.1264 0.0468,-0.3218 0.10388,-0.4341 0.0571,-0.1123 0.15705,-0.3364 0.22205,-0.4981 0.74247,-1.8469 1.8951,-4.1674 2.77454,-5.5857 0.32082,-0.5174 0.64081,-1.0594 0.7111,-1.2044 0.0703,-0.145 0.16747,-0.2641 0.21598,-0.2646 0.0485,-5e-4 0.0882,-0.056 0.0882,-0.123 0,-0.067 0.32352,-0.6032 0.71893,-1.1913 0.39541,-0.5881 0.878715,-1.4107 1.074006,-1.828 0.324368,-0.6931 0.343142,-0.7986 0.217088,-1.2193 -0.07589,-0.2533 -0.1605,-0.4606 -0.188016,-0.4606 -0.02751,0 -0.386973,0.1852 -0.798798,0.4116 -0.41182,0.2264 -0.81109,0.4116 -0.88727,0.4116 -0.0762,0 -0.36283,0.098 -0.63699,0.2185 -1.36398,0.5979 -1.45141,0.6056 -2.16169,0.1893 -0.57097,-0.3346 -0.74745,-0.5903 -0.74745,-1.0832 0,-0.3844 -0.15326,-0.6063 -0.61736,-0.8937 -0.17786,-0.1101 -0.32338,-0.3011 -0.32338,-0.4243 0,-0.1233 -0.0918,-0.3159 -0.20405,-0.4282 -0.30455,-0.3045 -0.48372,-0.9054 -0.33859,-1.1355 0.22257,-0.3529 -0.12684,-0.774 -0.71532,-0.8623 -1.04976,-0.1574 -1.12073,-0.6759 -0.27074,-1.978 0.70419,-1.0787 0.75156,-1.491 0.25553,-2.2245 -0.53224,-0.787 -0.66921,-1.8398 -0.53019,-4.0747 0.10992,-1.7671 0.13622,-1.9058 0.4602,-2.4267 0.18899,-0.3038 0.53149,-0.7038 0.76111,-0.8888 0.4857,-0.3914 1.53994,-0.8041 2.0503,-0.8027 0.29049,8e-4 2.20362,-0.8372 2.41231,-1.0567 0.0784,-0.082 0.56345,-0.3028 0.99953,-0.4541 1.09318,-0.3793 5.239248,-0.1923 6.996761,0.3156 0.367401,0.1062 0.603075,0.185 1.322917,0.4425 0.113183,0.041 0.205787,0.1203 0.205787,0.1775 0,0.057 0.0752,0.1038 0.167105,0.1038 0.323608,0 1.222012,1.0448 1.471241,1.7109 0.330443,0.8832 0.33523,3.1878 0.0096,4.6391 -0.38732,1.7266 -0.427662,1.8495 -0.528911,1.6118 -0.04941,-0.116 -0.05109,-0.407 -0.0037,-0.6467 0.36784,-1.8619 0.491706,-3.8396 0.295413,-4.7168 -0.329796,-1.4737 -1.328266,-2.4356 -2.880654,-2.7753 -1.568332,-0.3432 -5.889129,-0.5307 -6.700959,-0.2908 -0.60305,0.1782 -2.69816,1.2307 -2.97943,1.4968 -0.0855,0.081 -0.38789,0.147 -0.67205,0.147 -1.13491,0 -2.32093,0.7122 -2.70682,1.6255 -0.0908,0.215 -0.19983,0.7295 -0.24223,1.1434 -0.0767,0.7483 -0.0752,0.7533 0.26219,0.887 0.54508,0.2158 1.08831,0.1668 2.74995,-0.2482 0.29104,-0.073 0.70114,-0.1606 0.91134,-0.1953 0.29227,-0.048 0.38228,-0.1224 0.38261,-0.3149 9.9e-4,-0.562 0.76675,-1.4944 1.46813,-1.7874 0.74264,-0.3103 2.184103,-0.1561 2.340076,0.2504 0.104984,0.2736 -0.05332,0.5439 -0.266639,0.4553 -1.144907,-0.4754 -2.335907,-0.1838 -2.924637,0.7162 -0.32438,0.4959 -0.33264,0.643 -0.0361,0.643 0.59904,0 1.32106,0.686 1.8926,1.7982 0.27215,0.5297 1.782694,2.1081 2.28173,2.3843 0.348667,0.193 0.769218,-0.048 0.77036,-0.442 5.04e-4,-0.1741 0.05383,-0.3492 0.11851,-0.3891 0.06468,-0.04 0.117592,-0.1699 0.117592,-0.2888 0,-0.2327 0.736981,-0.946 0.977464,-0.946 0.268199,0 0.670449,0.3642 0.83365,0.7548 0.458886,1.0983 0.366365,2.3516 -0.216638,2.9346 -0.527739,0.5277 -0.649061,1.3376 -0.255729,1.7072 0.280585,0.2636 1.383843,0.7183 1.742822,0.7183 0.261401,0 1.031641,0.4314 1.278638,0.7162 0.184104,0.2123 0.194886,0.2097 0.325748,-0.078 0.07444,-0.1634 0.135342,-0.3973 0.135342,-0.5197 0,-0.1225 0.05292,-0.2555 0.117592,-0.2954 0.06468,-0.04 0.117593,-0.2252 0.117593,-0.4116 0,-0.4259 0.205491,-0.5708 0.296293,-0.2091 0.05962,0.2376 -1.1e-4,0.5391 -0.367588,1.8554 -0.04514,0.1617 -0.179855,0.4344 -0.299369,0.6061 -0.241872,0.3474 -0.266139,0.548 -0.114525,0.9465 0.05653,0.1485 0.197824,0.5611 0.313996,0.9168 0.116172,0.3558 0.334507,0.8442 0.485189,1.0854 0.150681,0.2413 0.273967,0.4627 0.273967,0.492 0,0.1149 0.795346,1.3383 1.370133,2.1074 0.689492,0.9226 1.115277,1.7363 1.427047,2.7269 0.134223,0.4266 0.08945,3.1798 -0.07836,4.8184 -0.294729,2.878 -0.671713,4.1737 -1.934218,6.6482 -0.477284,0.9355 -1.01503,2.1507 -1.19499,2.7004 -0.409157,1.2499 -0.467051,1.4092 -0.855074,2.3519 -0.261133,0.6344 -0.755931,1.6255 -1.203523,2.4106 -1.084891,1.9031 -1.09722,1.9355 -1.152806,3.028 l -0.05235,1.029 0.396559,0.012 c 1.207641,0.036 3.072957,0.2618 4.629893,0.5607 0.757907,0.1455 1.943496,0.3604 2.763426,0.5007 1.142567,0.1956 3.865188,0.2601 4.577048,0.1083 0.835621,-0.1781 2.972499,-0.8409 3.119387,-0.9676 0.06144,-0.053 0.230299,-0.096 0.375236,-0.096 0.144938,0 0.296228,-0.053 0.3362,-0.1176 0.03997,-0.065 0.198722,-0.1176 0.352777,-0.1176 0.154056,0 0.309193,-0.047 0.344748,-0.1046 0.03556,-0.058 0.237116,-0.1347 0.447913,-0.1715 0.210796,-0.037 0.674307,-0.1233 1.030025,-0.1922 0.355717,-0.069 1.096551,-0.1538 1.646296,-0.1886 0.549745,-0.035 1.111203,-0.1179 1.247684,-0.1847 0.296682,-0.145 4.395165,-0.054 5.631482,0.1248 1.077015,0.1559 2.413108,0.3548 3.292593,0.4901 1.338949,0.2059 2.473894,0.3388 3.821759,0.4474 0.743773,0.06 1.5047,0.1481 1.690947,0.1959 0.55045,0.1413 2.395363,-0.1656 3.365535,-0.5598 0.502955,-0.2043 1.408526,-0.7002 1.881481,-1.0302 0.16169,-0.1128 0.707096,-0.4306 1.212014,-0.7061 0.760023,-0.4147 0.99088,-0.4891 1.341273,-0.4323 0.49327,0.08 1.030295,0.5513 1.294339,1.1359 0.903389,1.9999 1.139327,2.2948 2.619967,3.2751 0.355717,0.2356 0.972616,0.7459 1.370886,1.1342 0.39827,0.3883 0.913904,0.8535 1.145854,1.0338 0.312299,0.2428 0.440776,0.447 0.495142,0.787 0.05976,0.3737 0.147544,0.4943 0.472046,0.6482 0.674398,0.3201 0.874494,0.6163 0.788508,1.1676 -0.04115,0.2637 -0.132921,0.5218 -0.203947,0.5734 -0.278636,0.2024 -3.121459,-0.1379 -4.715249,-0.5645 -1.32204,-0.3539 -3.46491,-1.1461 -4.319932,-1.5971 -0.112305,-0.059 -0.284284,-0.1077 -0.382176,-0.1077 -0.09789,0 -0.177984,-0.056 -0.177984,-0.1242 0,-0.1572 -2.749428,-0.076 -3.586574,0.1063 -0.736011,0.1601 -1.704911,0.3492 -2.469445,0.482 -0.888135,0.1542 -1.937155,0.3476 -2.52824,0.4662 -0.291042,0.058 -0.820209,0.1639 -1.175926,0.2344 -0.355718,0.071 -0.884884,0.1814 -1.175926,0.2464 -0.291042,0.065 -0.79375,0.1679 -1.11713,0.2287 -0.323379,0.061 -0.879004,0.1678 -1.234722,0.2377 -1.564826,0.3077 -4.588755,0.5957 -6.702778,0.6385 -2.479801,0.05 -3.933282,0.2683 -5.23287,0.7851 -0.129352,0.051 -0.446852,0.161 -0.705556,0.2434 -0.258703,0.082 -0.523287,0.1822 -0.587962,0.2218 -0.06468,0.04 -0.355718,0.1435 -0.64676,0.2311 -0.291041,0.088 -0.579437,0.2029 -0.640879,0.2563 -0.06144,0.053 -0.230299,0.097 -0.375236,0.097 -0.144938,0 -0.296228,0.053 -0.3362,0.1176 -0.03997,0.065 -0.22518,0.1176 -0.411574,0.1176 -0.186393,0 -0.371602,0.053 -0.411574,0.1176 -0.03997,0.065 -0.22518,0.1176 -0.411574,0.1176 -0.186394,0 -0.367988,0.047 -0.403544,0.1046 -0.03556,0.057 -0.237116,0.1319 -0.447912,0.1654 -0.210796,0.034 -0.568474,0.1157 -0.79484,0.1828 -0.226366,0.067 -0.610012,0.1778 -0.852546,0.2461 -0.242535,0.068 -0.612952,0.1741 -0.823148,0.2351 -1.805737,0.5237 -2.963639,0.8491 -5.08588,1.4293 -0.452732,0.1237 -1.206794,0.316 -1.675694,0.4272 -0.468901,0.1112 -0.852547,0.2611 -0.852547,0.3332 0,0.072 -0.256459,0.6554 -0.56991,1.2964 -1.224159,2.5035 -1.367588,3.2381 -1.277823,6.5448 0.09163,3.3754 -0.05874,5.6748 -0.509525,7.7911 -0.06888,0.3234 -0.154608,0.7604 -0.190502,0.9712 -0.03589,0.2108 -0.112332,0.4124 -0.169862,0.4479 -0.05753,0.036 -0.1046,0.2172 -0.1046,0.4036 0,0.1864 -0.05292,0.3716 -0.117593,0.4115 -0.06468,0.04 -0.117592,0.2252 -0.117592,0.4116 0,0.1864 -0.04707,0.368 -0.1046,0.4036 -0.05753,0.036 -0.138321,0.2635 -0.179535,0.5067 -0.04121,0.2431 -0.131466,0.7331 -0.200559,1.0888 -0.06909,0.3557 -0.150327,1.1515 -0.180519,1.7685 -0.05003,1.0223 -0.03341,1.1411 0.187566,1.3411 0.133354,0.1207 0.242462,0.2825 0.242462,0.3595 0,0.077 0.0736,0.2938 0.163564,0.4816 0.08996,0.1878 0.254216,0.5531 0.365011,0.8118 0.110796,0.2587 0.29627,0.682 0.412165,0.9407 1.962351,4.3804 2.833287,7.1465 3.184242,10.113 0.208771,1.7647 0.137998,3.6569 -0.237505,6.35 -0.05411,0.388 -0.161982,1.1553 -0.239722,1.7051 -0.478505,3.3837 -0.669401,7.275 -0.492035,10.0298 0.07582,1.1776 0.18918,2.4585 0.251913,2.8466 0.292799,1.8112 0.291948,2.0206 -0.0089,2.1815 -0.368779,0.1974 -0.953945,0.3473 -1.811272,0.4639 -0.388056,0.053 -1.075973,0.1591 -1.528704,0.2363 -1.539956,0.2624 -2.232881,0.3547 -3.468984,0.4623 -1.61406,0.1404 -2.11285,0.2356 -2.46944,0.4713 -0.64591,0.4269 -0.89594,0.4772 -1.15794,0.2331 -0.13383,-0.1246 -0.37343,-0.2267 -0.53244,-0.2267 -0.159,0 -0.30978,-0.062 -0.33505,-0.1378 -0.0253,-0.076 -0.27843,-0.142 -0.56256,-0.147 -0.44848,-0.01 -0.52568,-0.047 -0.58549,-0.2988 -0.0431,-0.1811 -0.17757,-0.3152 -0.35859,-0.3576 -0.18981,-0.044 -0.33064,-0.1929 -0.40846,-0.4305 -0.0653,-0.1995 -0.29022,-0.5228 -0.49977,-0.7186 -0.30418,-0.2841 -0.38024,-0.4471 -0.37726,-0.8085 0.002,-0.2489 0.0811,-0.5549 0.17576,-0.68 0.15114,-0.1998 0.15069,-0.2599 -0.004,-0.4956 -0.54,-0.8241 0.30828,-1.8694 1.19076,-1.4673 0.59176,0.2696 1.66928,0.15 3.27839,-0.3638 1.54542,-0.4934 3.05995,-1.4243 3.1587,-1.9415 0.07763,-0.4065 0.0129,-1.8432 -0.15253,-3.3831 -0.19658,-1.8302 -0.41636,-3.1304 -0.96404,-5.7032 -0.062,-0.291 -0.16483,-0.7938 -0.22862,-1.1171 -0.60551,-3.0701 -1.05512,-5.1145 -1.38359,-6.2912 -0.0632,-0.2264 -0.22343,-0.8085 -0.3561,-1.2936 -0.71644,-2.6194 -1.31167,-4.4876 -1.58681,-4.9804 -0.17033,-0.3051 -0.30969,-0.6064 -0.30969,-0.6695 0,-0.1306 -0.48209,-1.1986 -0.58142,-1.288 -0.1371,-0.1234 -0.76953,-1.336 -0.95058,-1.8227 -0.13954,-0.3751 -0.33438,-1.1408 -0.40394,-1.5875 -0.23132,-1.4856 -0.48914,-3.337 -0.64681,-4.6449 -0.0624,-0.5174 -0.16823,-1.3773 -0.23523,-1.9109 -0.067,-0.5336 -0.17231,-1.3802 -0.23401,-1.8815 -0.0617,-0.5012 -0.19914,-1.5992 -0.30544,-2.44 -0.33022,-2.6118 -0.41828,-3.5824 -0.50145,-5.5269 -0.0787,-1.8412 -0.002,-4.4131 0.14821,-4.9977 0.0738,-0.2861 0.0588,-0.2941 -0.55811,-0.2998 -0.58955,-0.01 -0.65162,0.021 -0.88719,0.3805 -0.13931,0.2125 -0.25329,0.4401 -0.25329,0.5057 0,0.065 -0.0529,0.1192 -0.1176,0.1192 -0.0647,0 -0.1183,0.066 -0.11917,0.147 -8.6e-4,0.081 -0.10719,0.2793 -0.23627,0.441 -0.12908,0.1617 -0.56295,0.7437 -0.96414,1.2935 -0.65723,0.9006 -3.18011,3.5463 -4.38366,4.5972 -1.20801,1.0547 -4.83558,3.6343 -5.11076,3.6343 -0.0672,0 -0.12211,0.047 -0.12211,0.1038 0,0.057 -0.0926,0.1342 -0.20578,0.1712 -0.11319,0.037 -0.47038,0.2273 -0.79375,0.4227 -0.8665,0.5238 -3.83961,2.0078 -5.05649,2.524 -1.38838,0.5889 -1.4616,0.6182 -2.52824,1.0087 l -0.52916,0.1938 -0.0714,0.8747 c -0.2057,2.5207 -1.73402,4.9961 -3.70118,5.995 -0.68114,0.3458 -0.9448,0.4126 -1.76558,0.4475 -0.88467,0.038 -1.0318,0.01 -1.7703,-0.3357 -0.69091,-0.3231 -1.05627,-0.632 -2.56933,-2.1721 -2.12333,-2.1612 -2.39608,-2.3704 -5.01097,-3.8427 -0.15439,-0.087 -0.30716,-0.1845 -0.33949,-0.2169 -0.0323,-0.032 -0.22416,-0.1504 -0.42627,-0.2625 l -0.36748,-0.2038 -0.0611,0.439 c -0.0778,0.559 -0.0314,1.4653 0.13988,2.732 0.0743,0.5497 0.19425,1.4328 0.26647,1.9624 0.0911,0.668 0.102,2.0184 0.0356,4.4097 -0.13083,4.7083 -0.13007,5.1264 0.01,5.266 0.0804,0.08 2.14557,0.1245 6.0898,0.1301 6.50831,0.01 6.45539,0 7.10255,0.6891 0.33182,0.3512 0.62241,0.8104 2.05112,3.2413 0.45616,0.7761 0.98145,1.6323 1.16731,1.9026 0.18587,0.2704 0.33794,0.5482 0.33794,0.6174 0,0.069 0.0529,0.1258 0.11759,0.1258 0.0647,0 0.11759,0.056 0.11759,0.1241 0,0.068 0.21167,0.4357 0.47037,0.8167 0.25871,0.3809 0.47037,0.7242 0.47037,0.7628 0,0.039 0.0557,0.1341 0.12378,0.2123 0.0681,0.078 0.49776,0.7505 0.95484,1.4943 1.42666,2.3215 2.07378,3.3394 2.34348,3.6864 l 0.26037,0.3349 -0.0784,5.2507 c -0.0844,5.654 -0.18472,9.3955 -0.25824,9.631 -0.0365,0.117 -5.03741,0.147 -24.48923,0.147 -13.44384,0 -24.47862,-0.035 -24.52174,-0.078 z m 70.61435,-2.4792 c 0.0216,-0.049 0.27732,-0.2043 0.56836,-0.3463 0.40261,-0.1963 0.82449,-0.273 1.76389,-0.3206 0.6791,-0.034 1.552225,-0.1122 1.940281,-0.1728 0.388056,-0.061 1.075972,-0.168 1.528704,-0.2386 0.452731,-0.071 1.193564,-0.1785 1.646296,-0.2398 1.009898,-0.1368 1.698603,-0.3041 1.841953,-0.4475 0.06575,-0.066 0.04063,-0.5877 -0.0641,-1.332 -0.497723,-3.5375 -0.519638,-7.0031 -0.07021,-11.1017 0.217291,-1.9817 0.357943,-3.1739 0.464742,-3.9394 0.550599,-3.9466 0.391166,-6.8901 -0.531842,-9.819 -0.233408,-0.7406 -1.116924,-3.1207 -1.375017,-3.7041 -0.128754,-0.2911 -0.307315,-0.7012 -0.396804,-0.9114 -0.08949,-0.2102 -0.247476,-0.5806 -0.351084,-0.8231 -0.103608,-0.2426 -0.230505,-0.5468 -0.281992,-0.6762 -0.167991,-0.422 -0.492505,-1.1686 -0.659584,-1.5174 -0.08996,-0.1878 -0.163564,-0.4127 -0.163564,-0.4997 0,-0.087 -0.04569,-0.1584 -0.101524,-0.1584 -0.05584,0 -0.167998,-0.3132 -0.249243,-0.696 -0.216651,-1.0209 -0.05728,-3.2428 0.354939,-4.9484 0.07034,-0.291 0.154699,-0.6879 0.187465,-0.8819 0.03277,-0.1941 0.104899,-0.4587 0.160296,-0.588 0.0554,-0.1294 0.133535,-0.3939 0.173639,-0.588 0.0401,-0.194 0.126359,-0.5644 0.191677,-0.8231 0.06532,-0.2587 0.171212,-0.7085 0.235321,-0.9996 0.06411,-0.291 0.177315,-0.7937 0.251569,-1.1171 0.08846,-0.3852 0.137645,-2.1691 0.142655,-5.1741 0.0087,-5.2306 -0.02662,-5.0083 1.129072,-7.1031 0.319848,-0.5798 0.581541,-1.0898 0.581541,-1.1334 0,-0.044 -0.145521,-0.04 -0.323379,0.01 -0.542827,0.1461 -1.359862,0.3296 -2.851621,0.6406 -1.375529,0.2867 -3.473466,0.6042 -4.174536,0.6317 -0.39674,0.016 -0.47594,-0.021 -0.50594,-0.2308 -0.042,-0.2944 0.12073,-0.3554 1.38789,-0.5202 1.700686,-0.2211 3.354911,-0.5249 4.997679,-0.9176 0.258704,-0.062 0.708495,-0.1637 0.999537,-0.2264 0.886755,-0.1908 6.799574,-1.7758 7.996296,-2.1435 0.16169,-0.05 0.532107,-0.1555 0.823148,-0.2352 0.291042,-0.08 0.661459,-0.1855 0.823148,-0.2351 0.16169,-0.05 0.532107,-0.1555 0.823149,-0.2352 0.291041,-0.08 0.661458,-0.1855 0.823148,-0.2352 0.16169,-0.05 0.532106,-0.1555 0.823148,-0.2352 1.004195,-0.2749 2.006708,-0.582 2.293055,-0.7024 0.4597,-0.1933 1.30355,-0.502 1.999074,-0.7314 2.071276,-0.6832 2.129819,-0.6923 5.115278,-0.8014 3.418628,-0.125 5.978566,-0.4286 8.878241,-1.053 1.325714,-0.2855 2.288033,-0.476 3.586574,-0.7099 0.420393,-0.076 1.028935,-0.1863 1.352315,-0.2455 0.323379,-0.059 0.826088,-0.138 1.117129,-0.175 0.291042,-0.037 0.635,-0.1129 0.764352,-0.1688 0.41305,-0.1786 1.13432,-0.2585 2.817814,-0.3122 0.903039,-0.029 1.749705,0 1.881482,0.057 1.337463,0.6095 1.443865,0.6547 2.415056,1.0238 2.219891,0.8439 5.836367,1.5717 6.515146,1.3113 0.19821,-0.076 0.131707,-0.4322 -0.08071,-0.4322 -0.217326,0 -2.023726,-0.9264 -2.289826,-1.1743 -0.139823,-0.1302 -0.280628,-0.2368 -0.312901,-0.2368 -0.11909,0 -2.380497,-1.7525 -2.852543,-2.2106 -0.436254,-0.4234 -0.639834,-0.7604 -0.991158,-1.6406 -0.205733,-0.5154 -0.400972,-0.9129 -0.508273,-1.0347 -0.113954,-0.1294 -1.436213,-0.01 -1.890385,0.1742 -0.636092,0.2545 -0.905762,0.3748 -1.940278,0.8658 -2.403608,1.1408 -2.850477,1.273 -5.073047,1.5012 -1.456492,0.1495 -4.944793,-0.016 -6.56862,-0.3113 -1.881144,-0.3423 -2.412244,-0.4149 -3.821759,-0.5223 -2.421992,-0.1845 -6.051383,0.053 -7.353734,0.4805 -1.480252,0.4863 -4.549688,0.983 -7.261523,1.175 -2.23956,0.1585 -3.434293,0.07 -7.256965,-0.5381 -1.358194,-0.216 -3.037553,-0.4291 -3.731908,-0.4734 -1.168898,-0.075 -1.267581,-0.064 -1.331501,0.1391 -0.03797,0.1208 -0.11809,0.3116 -0.178045,0.4239 -0.05996,0.1123 -0.109009,0.3115 -0.109009,0.4426 0,0.1311 -0.04642,0.3302 -0.103157,0.4425 -0.05674,0.1123 -0.169692,0.4159 -0.251011,0.6746 -0.215831,0.6866 -0.55418,1.3913 -1.252481,2.6083 -0.505858,0.8817 -1.667685,2.6117 -1.920585,2.8598 -0.38278,0.3755 -1.10464,1.5013 -1.18525,1.8485 -0.0568,0.2445 -0.10446,1.0903 -0.106,1.8795 -0.002,0.7892 -0.0624,1.583 -0.13526,1.7639 -0.5425,1.3471 -0.94325,1.8061 -1.3752,1.5749 -0.19431,-0.104 -0.27168,-0.062 -0.49974,0.2707 -0.40358,0.589 -0.64824,0.7078 -0.91291,0.4431 -0.21062,-0.2106 -0.22466,-0.2106 -0.48402,-6e-4 -0.35661,0.2887 -0.97062,0.2794 -1.24059,-0.019 -0.34417,-0.3803 -0.4512,-0.2867 -0.36979,0.3234 0.10083,0.7556 0.29012,1.9603 0.42035,2.6752 0.28567,1.5682 0.36025,1.9368 0.7138,3.5278 0.28828,1.2972 0.36719,1.6685 0.42485,1.999 0.0338,0.1941 0.10725,0.4586 0.16311,0.588 0.0559,0.1294 0.12837,0.3939 0.16114,0.588 0.0328,0.194 0.11333,0.5644 0.17903,0.8231 0.23268,0.9163 0.3554,1.4581 0.75903,3.3514 0.0896,0.4204 0.22707,1.3729 0.30545,2.1167 0.49484,4.6959 0.60794,5.2398 1.40621,6.7615 0.23748,0.4528 0.5011,1.0613 0.58581,1.3524 0.0847,0.291 0.20179,0.621 0.26016,0.7333 0.0584,0.1123 0.10613,0.3076 0.10613,0.434 0,0.1265 0.0529,0.2626 0.1176,0.3026 0.0647,0.04 0.11759,0.1987 0.11759,0.3527 0,0.1541 0.0468,0.3091 0.10403,0.3444 0.0572,0.035 0.13224,0.2105 0.16671,0.3892 0.0345,0.1786 0.12347,0.5364 0.19777,0.7951 0.24375,0.8488 0.54403,2.1337 0.65952,2.8223 0.0326,0.194 0.10955,0.5776 0.17113,0.8525 0.0616,0.2749 0.16821,0.7511 0.23697,1.0583 0.0688,0.3073 0.17392,0.7438 0.233684,0.9702 0.440956,1.67 0.955566,4.0262 1.296995,5.9384 0.06929,0.3881 0.17171,0.9437 0.227608,1.2347 0.78007,4.0616 0.773919,6.9821 -0.01933,9.1765 -0.106492,0.2946 -0.77531,1.0645 -1.222182,1.4069 -0.418025,0.3202 -1.982215,1.0439 -2.934855,1.3578 -1.34657,0.4436 -1.89977,0.5365 -3.03028,0.5091 -0.68967,-0.017 -1.19857,0.022 -1.27331,0.097 -0.0685,0.069 -0.10715,0.2764 -0.0859,0.4622 0.0362,0.3172 0.0713,0.3377 0.57859,0.3377 0.59616,0 0.7688,0.1016 1.08376,0.6381 l 0.21265,0.3622 -0.38585,0.3524 c -0.21222,0.1938 -0.32426,0.3524 -0.24899,0.3524 0.0753,0 0.16957,-0.053 0.20954,-0.1176 0.04,-0.065 0.17538,-0.1176 0.30092,-0.1176 0.12553,0 0.22825,-0.042 0.22825,-0.094 0,-0.052 0.19286,-0.1637 0.42859,-0.2489 0.37716,-0.1364 0.44153,-0.1319 0.53639,0.038 0.0593,0.106 0.15481,0.1636 0.21227,0.1281 0.0575,-0.035 0.15783,0.035 0.22305,0.157 0.0912,0.1704 0.0643,0.2798 -0.11628,0.4737 l -0.23485,0.2521 h 0.28876 c 0.15882,0 0.3064,-0.04 0.32796,-0.088 z m -2.78302,-1.2054 c 0.04,-0.065 -0.0363,-0.1176 -0.16945,-0.1176 -0.13317,0 -0.24213,0.053 -0.24213,0.1176 0,0.065 0.0763,0.1176 0.16945,0.1176 0.0932,0 0.20215,-0.053 0.24213,-0.1176 z m 2.82222,-2.6999 c 0.2587,-0.083 0.56225,-0.1976 0.67456,-0.2543 0.1123,-0.057 0.285,-0.1032 0.38377,-0.1032 0.0988,0 0.27147,-0.047 0.38377,-0.1052 0.11231,-0.058 0.56503,-0.2793 1.00605,-0.4921 1.038514,-0.501 1.799765,-1.1722 1.964309,-1.7319 0.07021,-0.2388 0.212831,-0.7252 0.316948,-1.081 0.23593,-0.806 0.268331,-4.2398 0.0516,-5.468 -0.206974,-1.1729 -0.332667,-1.9137 -0.610821,-3.6 -0.319136,-1.9348 -0.619647,-3.2907 -1.410896,-6.366 -0.21312,-0.8283 -0.33378,-1.3228 -0.46624,-1.9109 -0.0728,-0.3233 -0.18638,-0.7996 -0.25231,-1.0583 -0.0659,-0.2587 -0.16842,-0.6688 -0.22776,-0.9113 -0.16115,-0.6587 -0.35893,-1.4034 -0.46067,-1.7345 -0.0497,-0.1617 -0.15453,-0.5321 -0.23301,-0.8232 -0.0785,-0.291 -0.19045,-0.621 -0.24882,-0.7333 -0.0584,-0.1123 -0.10613,-0.3002 -0.10613,-0.4175 0,-0.1173 -0.0421,-0.2635 -0.0936,-0.325 -0.0515,-0.061 -0.16449,-0.3233 -0.25115,-0.582 -0.0867,-0.2588 -0.24863,-0.6027 -0.35995,-0.7644 -0.26437,-0.384 -0.77287,-1.6737 -0.99273,-2.5178 -0.20621,-0.7917 -0.46927,-2.8043 -0.65457,-5.0081 -0.0734,-0.8732 -0.17964,-1.7992 -0.23605,-2.0579 -0.0564,-0.2587 -0.13761,-0.6556 -0.18045,-0.8819 -0.0428,-0.2264 -0.12827,-0.6233 -0.18984,-0.882 -0.0616,-0.2587 -0.15907,-0.682 -0.21667,-0.9407 -0.0576,-0.2587 -0.16344,-0.7085 -0.23519,-0.9996 -0.0717,-0.291 -0.17758,-0.7408 -0.23518,-0.9995 -0.0576,-0.2587 -0.15534,-0.682 -0.2172,-0.9407 -0.32416,-1.3559 -0.49445,-2.1313 -0.72308,-3.2926 -0.48638,-2.4707 -0.59691,-3.1541 -0.68656,-4.2448 -0.0452,-0.5502 -0.14999,-1.0385 -0.24822,-1.1568 -0.15922,-0.1918 -0.17667,-0.1874 -0.27585,0.07 -0.17734,0.4605 -0.23411,4.1716 -0.0905,5.9193 0.15482,1.8849 0.26609,2.7898 0.70857,5.7621 0.19172,1.2878 0.36703,2.6177 0.48441,3.6747 0.57198,5.1506 0.65051,5.4665 1.9808,7.9669 0.17204,0.3234 0.38533,0.7732 0.47396,0.9996 0.0886,0.2263 0.23275,0.4961 0.32025,0.5995 0.0875,0.1033 0.47567,1.294 0.86261,2.6458 0.38694,1.3519 0.75151,2.6167 0.81015,2.8107 0.0586,0.194 0.17093,0.6438 0.24955,0.9995 0.0786,0.3557 0.18576,0.7526 0.23811,0.882 0.0523,0.1293 0.12198,0.3939 0.15475,0.5879 0.0328,0.1941 0.11864,0.5909 0.19083,0.882 0.1637,0.6599 0.32989,1.4126 0.48034,2.1754 0.0638,0.3234 0.16549,0.8261 0.22602,1.1172 0.0605,0.291 0.15935,0.7937 0.21961,1.1171 0.10549,0.5661 0.27173,1.412 0.49683,2.5282 0.597107,2.9608 0.925054,5.606 0.925764,7.4672 2.71e-4,0.7114 -0.03838,1.3464 -0.0859,1.4111 -0.164239,0.2235 -1.153754,0.8602 -1.912184,1.2302 -0.41868,0.2043 -0.85313,0.4212 -0.96543,0.482 -0.11231,0.061 -0.30762,0.1105 -0.43404,0.1105 -0.12641,0 -0.25909,0.047 -0.29484,0.1051 -0.10331,0.1672 -0.95862,0.2768 -2.41832,0.3099 -0.74377,0.017 -1.41846,0.036 -1.49931,0.043 -0.19631,0.016 -0.1862,0.2445 0.021,0.4734 0.13854,0.1532 0.45281,0.1839 1.79328,0.1754 0.97298,-0.01 1.81409,-0.071 2.09568,-0.1614 z m -52.50299,-14.0645 c 0.11451,-0.409 0.11562,-0.6304 0.005,-1.0249 -0.15896,-0.5678 -0.12699,-1.4991 0.0515,-1.5017 0.12896,0 0.26333,0.6931 0.36892,1.9082 0.0545,0.6272 0.12592,0.8395 0.35471,1.0544 0.22479,0.2112 0.32966,0.2421 0.48698,0.1432 0.27968,-0.1756 0.33236,-1.5011 0.0882,-2.2202 -0.22502,-0.6627 -0.22917,-0.8797 -0.0168,-0.8797 0.22202,0 0.42307,0.6162 0.42307,1.2967 0,0.5616 0.24632,1.3282 0.47146,1.4673 0.0672,0.042 0.27538,0.042 0.46254,9e-4 l 0.34029,-0.075 -0.0452,-0.9041 c -0.0249,-0.4973 -0.0149,-0.7983 0.0221,-0.6689 0.15106,0.5273 0.53468,1.2505 0.6962,1.3125 0.39398,0.1512 0.52207,-0.183 0.52207,-1.3622 0,-0.6259 -0.0475,-1.1883 -0.10555,-1.2497 -0.21694,-0.2296 -0.38297,-2.1454 -0.19043,-2.1972 0.0636,-0.017 0.14639,0.154 0.18402,0.3804 0.0915,0.5503 0.27507,0.8664 0.6433,1.1077 0.37751,0.2474 0.80445,0.201 0.8606,-0.093 0.0288,-0.1509 -0.25031,-0.5029 -0.88587,-1.1171 -0.51034,-0.4932 -1.22524,-1.2672 -1.58866,-1.7199 -0.73779,-0.9191 -1.12432,-1.2422 -1.76194,-1.4727 -0.38363,-0.1388 -0.49027,-0.1315 -0.92084,0.063 -0.50396,0.2272 -1.40871,1.1445 -1.40871,1.4281 0,0.089 -0.0464,0.2534 -0.10315,0.3657 -0.43619,0.8634 -0.48361,1.8033 -0.10372,2.0555 0.23695,0.1573 0.24787,0.2042 0.10839,0.4648 -0.10732,0.2005 -0.1388,0.5949 -0.10217,1.2799 0.0678,1.2676 0.13366,1.554 0.58401,2.5388 0.16905,0.3696 0.39194,0.2181 0.55949,-0.3803 z m 2.64741,-2.5908 c -0.0848,-0.6791 -0.049,-0.8313 0.16488,-0.6991 0.15095,0.093 0.16912,1.1986 0.0212,1.29 -0.0573,0.035 -0.14105,-0.2304 -0.18609,-0.5909 z m 0.36376,-10.4545 c -0.0731,-2.7126 -0.199,-4.9293 -0.43088,-7.5847 -0.0762,-0.8731 -0.1525,-1.8786 -0.16946,-2.2343 -0.0222,-0.4645 -0.16353,-0.9283 -0.50186,-1.6463 -0.25906,-0.5497 -0.55981,-1.317 -0.66833,-1.7051 -0.10852,-0.388 -0.24732,-0.868 -0.30845,-1.0666 -0.0611,-0.1987 -0.11302,-0.4632 -0.11531,-0.588 -0.002,-0.1248 -0.0722,-0.3495 -0.15539,-0.4994 -0.16848,-0.3036 -0.25731,-0.2389 -0.53519,0.3902 -0.0857,0.194 -0.20259,0.4446 -0.25972,0.5569 -0.0571,0.1123 -0.10387,0.3208 -0.10387,0.4633 0,0.1425 -0.0599,0.5533 -0.1331,0.913 -0.15355,0.7543 0.0982,4.0276 0.59981,7.7975 0.30876,2.3207 0.36705,2.8131 0.46983,3.9688 0.0604,0.6791 0.11251,1.4642 0.11581,1.7447 0.006,0.4841 0.061,0.5647 1.09045,1.5875 1.00364,0.9972 1.08786,1.0556 1.12991,0.7835 0.025,-0.1617 0.0141,-1.4581 -0.0242,-2.881 z m -5.05884,-14.7311 c 0.37433,-0.3073 0.92241,-1.1967 1.10347,-1.7906 0.0887,-0.2911 0.19742,-0.5821 0.24156,-0.6468 0.0441,-0.065 0.11101,-0.3914 0.14861,-0.726 0.0508,-0.452 0.0247,-0.6447 -0.10143,-0.7494 -0.0971,-0.081 -0.17055,-0.3486 -0.17156,-0.6263 -0.005,-1.4535 -1.22934,-2.9027 -3.23203,-3.8265 -0.32338,-0.1491 -0.67985,-0.3183 -0.79215,-0.3759 -0.11231,-0.058 -0.30762,-0.1047 -0.43404,-0.1047 -0.12641,0 -0.25909,-0.047 -0.29484,-0.1052 -0.0766,-0.1239 -0.65288,-0.2192 -2.18314,-0.3612 -1.67529,-0.1555 -2.26264,-0.3279 -2.78662,-0.8182 -0.36391,-0.3404 -0.42999,-0.1513 -0.33989,0.9729 0.12858,1.6044 0.39354,2.5304 0.89204,3.1178 0.22426,0.2643 0.25458,0.2693 0.61779,0.1022 0.56655,-0.2607 1.22604,-0.3498 1.50074,-0.2028 0.30332,0.1623 0.18752,0.3744 -0.15721,0.2878 -0.26635,-0.067 -1.14305,0.2346 -1.13145,0.3891 0.004,0.048 0.16955,0.2156 0.36882,0.3734 l 0.36232,0.2868 0.33966,-0.3801 c 0.34517,-0.3863 0.61699,-0.4102 0.48754,-0.043 -0.10376,0.2945 -0.52286,0.7312 -0.70168,0.7312 -0.11668,0 -0.0974,0.1441 0.0793,0.5923 0.12841,0.3258 0.23347,0.7956 0.23347,1.044 0,0.5887 0.24171,0.8067 0.60908,0.5494 0.14652,-0.1026 0.36232,-0.1866 0.47956,-0.1866 0.17671,0 0.19164,-0.04 0.0873,-0.2352 -0.0692,-0.1293 -0.22984,-0.2352 -0.35692,-0.2352 -0.12708,0 -0.23105,-0.053 -0.23105,-0.1176 0,-0.19 0.6626,-0.1346 0.83203,0.07 0.0854,0.1029 0.16108,0.3807 0.16818,0.6174 0.007,0.2366 0.0798,0.5529 0.16152,0.7028 0.13386,0.2455 0.22066,0.2696 0.87515,0.2423 l 0.72655,-0.03 0.0368,0.3751 c 0.0278,0.2835 0.0939,0.3751 0.27042,0.3751 0.31395,0 0.80768,0.2765 1.14558,0.6415 0.32345,0.3495 0.78672,0.3862 1.14649,0.091 z m -3.16577,-0.7544 c -0.0375,-0.094 -0.0654,-0.066 -0.0711,0.071 -0.005,0.1239 0.0227,0.1934 0.0618,0.1543 0.0391,-0.039 0.0433,-0.1405 0.009,-0.2254 z m 55.12149,-9.9853 c 0.16884,-0.2007 0.41015,-0.5913 0.53624,-0.8681 0.23562,-0.5172 0.52664,-0.745 0.62486,-0.489 0.0306,0.08 -0.0444,0.3503 -0.16665,0.6015 -0.12221,0.2513 -0.2222,0.5652 -0.2222,0.6977 0,0.2292 0.0141,0.2268 0.29002,-0.05 0.1595,-0.1603 0.44005,-0.6583 0.62342,-1.1067 0.49033,-1.1991 0.86352,-1.1526 0.43762,0.054 -0.19461,0.5516 -0.15101,0.701 0.14934,0.5116 0.22291,-0.1407 0.49786,-0.6193 0.70123,-1.2207 0.21206,-0.6271 0.2446,-2.8344 0.0473,-3.205 -0.1458,-0.2737 -0.13476,-0.3424 0.11193,-0.6954 0.15053,-0.2154 0.30525,-0.4182 0.34382,-0.4505 0.0386,-0.032 0.19732,-0.244 0.35278,-0.4704 0.15546,-0.2263 0.31778,-0.438 0.36071,-0.4703 0.0429,-0.032 0.51391,-0.7197 1.04662,-1.5275 1.513521,-2.295 2.634863,-4.8189 3.056797,-6.8804 0.07943,-0.3881 0.192282,-0.8271 0.25079,-0.9757 0.05851,-0.1485 0.106379,-0.4232 0.106379,-0.6104 0,-0.1872 0.04707,-0.3694 0.1046,-0.4049 0.05753,-0.036 0.13313,-0.2372 0.167999,-0.448 0.102756,-0.6211 0.209011,-1.0729 0.311412,-1.324 0.05276,-0.1293 0.176931,-0.4997 0.275937,-0.8231 0.09901,-0.3234 0.316438,-0.9582 0.483181,-1.4106 0.166742,-0.4525 0.303167,-0.9761 0.303167,-1.1636 0,-0.2661 1.259072,-3.8215 1.88889,-5.3339 0.21302,-0.5115 0.3248,-0.8002 0.580555,-1.4993 0.141962,-0.3881 0.305871,-0.8246 0.364242,-0.9702 0.284498,-0.7092 0.376889,-0.9273 0.472626,-1.1155 0.05713,-0.1123 0.103873,-0.3002 0.103873,-0.4174 0,-0.1173 0.04371,-0.2636 0.09714,-0.325 0.05343,-0.062 0.165295,-0.3499 0.248589,-0.6409 0.08329,-0.291 0.194342,-0.635 0.246774,-0.7644 0.196365,-0.4844 0.464582,-1.9503 0.543276,-2.9692 0.07111,-0.9207 0.217357,-1.1047 0.343519,-0.4322 0.161886,0.8629 -0.530075,4.0772 -1.238565,5.7533 -0.05468,0.1293 -0.163008,0.4204 -0.240738,0.6468 -0.07773,0.2263 -0.188904,0.5306 -0.247053,0.6761 -0.05815,0.1455 -0.151562,0.3837 -0.207584,0.5292 -0.05602,0.1455 -0.156516,0.3969 -0.223318,0.5585 -0.0668,0.1617 -0.185056,0.4792 -0.262786,0.7056 -0.07773,0.2264 -0.195984,0.5439 -0.262786,0.7056 -0.0668,0.1616 -0.164713,0.3998 -0.21758,0.5291 -0.318946,0.7804 -1.278952,3.4674 -1.344451,3.763 -0.105531,0.4763 -0.488347,1.7831 -0.878415,2.9986 -0.316099,0.985 -0.46782,1.5153 -0.714922,2.4988 -0.06906,0.2749 -0.174891,0.6623 -0.235185,0.8609 -0.06029,0.1987 -0.109624,0.4998 -0.109624,0.6693 0,0.1694 -0.05292,0.3407 -0.117593,0.3807 -0.209764,0.1297 -0.133373,0.5292 0.10118,0.5292 0.120325,0 0.457647,0.033 0.749603,0.073 l 0.530831,0.073 -0.01076,-1.2781 c -0.01422,-1.6902 -0.01141,-1.699 1.622439,-5.041 1.083901,-2.2171 1.240186,-2.553 1.490956,-3.2044 0.05602,-0.1455 0.154776,-0.3969 0.219452,-0.5586 0.06468,-0.1617 0.170509,-0.4263 0.235185,-0.588 0.06468,-0.1616 0.170509,-0.4262 0.235185,-0.5879 0.06468,-0.1617 0.16343,-0.4131 0.219452,-0.5586 0.25696,-0.6674 0.50102,-1.2361 1.021912,-2.3812 0.639688,-1.4063 0.818124,-1.9002 1.083312,-2.9986 0.401763,-1.6642 0.479119,-2.2083 0.618659,-4.351 0.180095,-2.7654 0.01903,-3.3947 -1.339239,-5.2328 -0.781911,-1.0582 -1.251318,-1.7857 -1.251318,-1.9394 0,-0.067 -0.05292,-0.2268 -0.117593,-0.3553 -0.06468,-0.1285 -0.170509,-0.3387 -0.235185,-0.4672 -0.06468,-0.1284 -0.117592,-0.2905 -0.117592,-0.3602 0,-0.07 -0.163922,-0.4804 -0.36427,-0.9129 -0.200348,-0.4325 -0.411122,-0.8922 -0.468387,-1.0215 -0.05727,-0.1294 -0.118239,-0.5431 -0.135499,-0.9194 -0.02874,-0.6266 -0.06109,-0.6999 -0.384159,-0.8703 -0.642347,-0.339 -0.759341,-0.3858 -0.968543,-0.3876 -0.363804,0 -1.078443,-0.2997 -1.360581,-0.5648 -0.309657,-0.2909 -0.551895,-0.3333 -0.551895,-0.097 0,0.31 -0.747483,1.6042 -1.262478,2.1858 -0.286698,0.3238 -0.772023,0.7728 -1.078499,0.9978 l -0.557229,0.409 0.05166,0.9842 c 0.03959,0.7543 0.0073,1.0701 -0.138397,1.3518 -0.10453,0.2021 -0.190055,0.4715 -0.190055,0.5986 0,0.1271 -0.423333,0.8717 -0.940743,1.6548 -0.51741,0.7831 -0.94074,1.4755 -0.94074,1.5387 0,0.063 -0.0529,0.1148 -0.11759,0.1148 -0.0647,0 -0.1176,0.058 -0.1176,0.1289 0,0.071 -0.0996,0.2693 -0.22141,0.441 -0.42209,0.595 -1.4378,2.435 -2.08715,3.7811 -2.26165,4.6881 -3.02872,8.5463 -3.16788,15.9338 l -0.0642,3.4101 0.68307,0.448 c 0.37569,0.2464 0.95475,0.6763 1.28679,0.9554 l 0.60372,0.5075 0.56624,-0.1438 c 0.62823,-0.1595 0.69167,-0.2735 0.98359,-1.7671 0.0758,-0.388 0.18763,-0.868 0.24842,-1.0666 0.0608,-0.1987 0.11052,-0.4595 0.11052,-0.5796 0,-0.1202 0.0493,-0.381 0.10962,-0.5797 0.0603,-0.1986 0.1705,-0.5992 0.24489,-0.8903 0.28782,-1.1259 0.3954,-1.4738 0.48908,-1.5816 0.0534,-0.061 0.0971,-0.2077 0.0971,-0.3249 0,-0.1173 0.0467,-0.3052 0.10387,-0.4175 0.31964,-0.6283 0.38627,-0.8907 0.60433,-2.3797 0.0521,-0.3557 0.15054,-0.9907 0.21878,-1.4111 0.0682,-0.4204 0.1763,-1.1083 0.24014,-1.5287 0.0639,-0.4204 0.17364,-1.1083 0.24399,-1.5287 0.0703,-0.4204 0.17381,-1.0818 0.22991,-1.4699 0.897864,-6.2109 1.694231,-9.3916 2.263323,-9.0399 0.129067,0.08 0.11796,0.5912 -0.01823,0.8394 -0.181475,0.3308 -0.556675,1.5407 -0.810863,2.6149 -0.215924,0.9124 -0.364864,1.7956 -1.080792,6.4088 -0.313238,2.0183 -0.459968,2.9329 -0.584828,3.6453 -0.0567,0.3234 -0.16122,0.9849 -0.23231,1.4699 -0.24993,1.7054 -0.40731,2.2525 -0.955,3.3204 -0.0576,0.1123 -0.10473,0.3077 -0.10473,0.4341 0,0.1264 -0.0529,0.2625 -0.11759,0.3025 -0.0647,0.04 -0.11759,0.2252 -0.11759,0.4116 0,0.1864 -0.0529,0.3716 -0.11759,0.4115 -0.0647,0.04 -0.1176,0.2442 -0.1176,0.4538 0,0.2096 -0.0475,0.4314 -0.10555,0.4929 -0.058,0.061 -0.134,0.3233 -0.16878,0.582 -0.0348,0.2587 -0.11957,0.7218 -0.18843,1.029 -0.13944,0.6221 -0.30762,1.3768 -0.42583,1.9109 -0.2885,1.3035 -2.03316,7.0325 -2.40824,7.9081 -0.19213,0.4484 -0.32431,0.7846 -0.39298,0.9995 -0.0362,0.1132 -0.16003,0.2065 -0.27525,0.2073 -0.20116,0 -1.65755,0.775 -2.041,1.084 -0.31359,0.2526 -0.54611,0.7089 -0.69953,1.3725 -0.0808,0.3495 -0.30734,0.8935 -0.50346,1.209 -0.26786,0.4309 -0.32308,0.6071 -0.22191,0.7083 0.1873,0.1873 0.47939,-0.099 1.28307,-1.2553 0.74605,-1.0739 1.00742,-1.3561 1.25594,-1.3561 0.32947,0 0.33108,0.2547 0.004,0.5964 -0.21955,0.2291 -0.35515,0.5269 -0.4107,0.9018 -0.0456,0.3078 -0.19702,0.8685 -0.33649,1.2461 -0.13946,0.3776 -0.22049,0.7907 -0.18007,0.918 0.0828,0.2608 0.39417,0.2508 0.52779,-0.017 0.0484,-0.097 0.20793,-0.4277 0.35448,-0.7349 0.27186,-0.5699 0.58225,-0.7442 0.58225,-0.327 0,0.1274 -0.10584,0.4201 -0.23519,0.6504 -0.12935,0.2303 -0.23518,0.5758 -0.23518,0.7679 0,0.2906 0.0475,0.3492 0.28352,0.3492 0.17276,0 0.40347,-0.1425 0.59052,-0.3648 z m -33.73512,-0.1938 c 0.19101,-0.4538 0.15717,-0.9966 -0.0799,-1.2823 -0.20494,-0.2469 -0.30874,-0.1906 -0.45271,0.2456 -0.13175,0.3992 -0.92444,1.226 -1.20822,1.2602 -0.17455,0.021 0.77335,0.1746 1.23348,0.1998 0.26735,0.015 0.35321,-0.057 0.5074,-0.4233 z m 31.78003,-1.7376 c -0.0362,-0.036 -0.10196,0.029 -0.14612,0.1451 -0.0638,0.1676 -0.0503,0.1811 0.0658,0.066 0.0804,-0.08 0.1165,-0.1747 0.0803,-0.2109 z m 61.862669,-10.9352 c -0.477509,-0.4669 -1.397364,-1.2294 -2.044123,-1.6944 -1.195463,-0.8595 -1.695645,-1.3866 -2.016454,-2.1251 -0.09833,-0.2264 -0.227249,-0.5035 -0.286488,-0.6158 -0.05924,-0.1123 -0.107707,-0.2731 -0.107707,-0.3572 0,-0.2758 -0.63868,-0.9119 -1.023326,-1.0191 -0.390357,-0.1088 -0.497318,-0.071 -1.622507,0.5723 -0.258704,0.1479 -0.523287,0.3105 -0.587963,0.3614 -0.423606,0.3334 -2.174278,1.2255 -2.704629,1.3783 -1.283828,0.37 -1.615058,0.4093 -2.902105,0.3445 -2.018242,-0.1016 -3.481204,-0.2743 -7.622432,-0.8997 -3.498218,-0.5284 -5.750767,-0.5319 -9.172222,-0.014 -0.420394,0.064 -1.002477,0.1755 -1.293519,0.2486 -0.291042,0.073 -0.675335,0.1623 -0.853986,0.1982 -0.17865,0.036 -0.353752,0.1119 -0.389115,0.1691 -0.03536,0.057 -0.167726,0.104 -0.294138,0.104 -0.22201,0 -0.336467,0.043 -0.901212,0.3345 -0.144643,0.075 -0.366416,0.1359 -0.492828,0.1359 -0.126413,0 -0.258775,0.047 -0.294138,0.104 -0.03536,0.057 -0.210465,0.1318 -0.389116,0.1657 -0.17865,0.034 -0.642319,0.1401 -1.030374,0.2362 -1.718556,0.4255 -3.823986,0.3429 -7.055556,-0.2766 -2.666954,-0.5113 -3.471266,-0.6177 -4.760634,-0.6295 -1.342311,-0.012 -1.414229,0.028 -1.244761,0.7035 0.05807,0.2314 0.146345,0.2847 0.471351,0.2847 0.219946,0 1.555083,0.1951 2.966973,0.4336 2.436315,0.4116 2.698844,0.4333 5.154108,0.4271 3.010632,-0.01 4.564321,-0.1859 7.643519,-0.8774 0.582083,-0.1308 1.164166,-0.2815 1.293518,-0.335 0.528797,-0.2189 0.779382,-0.2583 2.469445,-0.3881 3.392666,-0.2607 4.707859,-0.179 9.054629,0.5624 1.706168,0.291 6.345866,0.3065 7.611328,0.025 1.050768,-0.2334 1.982261,-0.5302 2.142978,-0.6828 0.06144,-0.058 0.206963,-0.1061 0.323379,-0.1061 0.116417,0 0.211667,-0.053 0.211667,-0.1176 0,-0.065 0.105833,-0.1176 0.235185,-0.1176 0.129352,0 0.235185,-0.053 0.235185,-0.1175 0,-0.065 0.105834,-0.1176 0.235185,-0.1176 0.129352,0 0.235186,-0.053 0.235186,-0.1176 0,-0.065 0.07776,-0.1176 0.172812,-0.1176 0.09505,0 0.346401,-0.095 0.558565,-0.2113 0.212163,-0.1161 0.623877,-0.2804 0.914919,-0.365 0.291042,-0.085 0.650719,-0.2012 0.799283,-0.2591 0.148564,-0.058 0.471537,-0.1054 0.717717,-0.1054 0.598396,0 0.963442,0.3778 1.582825,1.6378 0.412678,0.8396 0.621908,1.1073 1.368886,1.7518 0.484964,0.4185 1.040502,0.9009 1.23453,1.0722 0.325449,0.2871 1.453936,1.0617 2.001865,1.3739 0.537574,0.3064 0.274087,-0.1561 -0.545705,-0.9578 z m -55.773709,-32.5667 c 0.45836,-0.2193 0.98753,-0.524 1.17593,-0.677 0.1884,-0.1531 0.656056,-0.4612 1.039237,-0.6847 0.785356,-0.4581 2.537104,-2.1126 2.537104,-2.3963 0,-0.1021 0.05292,-0.1856 0.117593,-0.1856 0.06468,0 0.117592,-0.1058 0.117592,-0.2352 0,-0.1293 0.05292,-0.2351 0.117593,-0.2351 0.06468,0 0.117593,-0.1292 0.117593,-0.2871 0,-0.1579 0.05292,-0.3197 0.117592,-0.3597 0.06468,-0.04 0.117593,-0.2249 0.117593,-0.4109 0,-0.186 0.05622,-0.486 0.124929,-0.6667 0.08818,-0.232 0.08818,-0.3409 0,-0.3703 -0.165317,-0.055 -0.161762,-0.61 0.0039,-0.61 0.228649,0 0.811903,-0.4807 0.811903,-0.6691 0,-0.1485 -0.03283,-0.1556 -0.174998,-0.038 -0.141808,0.1177 -0.188926,0.109 -0.24844,-0.046 -0.04039,-0.1053 -0.04449,-0.3022 -0.0091,-0.4375 0.159165,-0.6086 -0.354645,-1.052 -0.698791,-0.603 -0.137887,0.18 -0.172561,0.1836 -0.275746,0.029 -0.08825,-0.1318 -0.118481,-0.051 -0.119827,0.3218 -0.0017,0.4608 -0.03379,0.5116 -0.427736,0.6762 -0.234264,0.098 -0.498835,0.178 -0.587935,0.178 -0.252535,0 -2.418686,-2.2091 -2.969486,-3.0283 -0.53034,-0.7888 -0.811,-1.0223 -1.36711,-1.1374 -0.41163,-0.085 -1.46741,0.06 -2.46944,0.3388 -0.70767,0.1971 -1.90862,0.2051 -2.32246,0.015 -0.18005,-0.082 -0.20578,-0.026 -0.20578,0.4542 0,0.4667 0.12853,1.2341 0.30178,1.8019 0.036,0.1178 0.13678,0.1116 0.47427,-0.029 0.23573,-0.098 0.55184,-0.1791 0.70248,-0.1791 0.44088,0 1.61509,0.3387 1.71073,0.4934 0.139,0.2249 -0.007,0.342 -0.25824,0.2074 -0.34853,-0.1865 -1.64469,-0.1934 -2.07682,-0.011 l -0.38051,0.1606 0.21439,0.3098 c 0.11791,0.1704 0.24779,0.4024 0.28863,0.5156 0.0543,0.1505 0.20392,0.2058 0.55734,0.2058 0.38,0 0.55841,-0.075 0.83589,-0.3528 0.39404,-0.3941 0.56987,-0.4449 0.56987,-0.1648 0,0.4896 -1.21369,1.1684 -1.74055,0.9735 -0.19453,-0.072 -0.25852,-0.052 -0.25852,0.082 0,0.098 -0.26459,0.57 -0.58797,1.0493 -0.32338,0.4792 -0.58796,0.9813 -0.58796,1.1158 0,0.2241 0.0472,0.2383 0.56367,0.1698 0.43898,-0.058 0.59823,-0.033 0.71995,0.1135 0.19948,0.2404 0.59786,0.2448 0.59786,0.01 0,-0.1 -0.13229,-0.314 -0.29398,-0.4757 -0.37206,-0.3721 -0.36874,-0.4253 0.0237,-0.3793 0.43953,0.052 0.82379,0.7021 0.64563,1.0931 -0.0692,0.1518 -0.23776,0.3116 -0.37463,0.355 -0.20293,0.064 -0.24223,0.1573 -0.21296,0.5033 0.035,0.4134 0.0577,0.4317 0.88845,0.7188 0.4689,0.162 0.85255,0.3583 0.85255,0.4361 0,0.078 -0.18521,0.2508 -0.41158,0.3843 -0.47584,0.2808 -0.49781,0.3599 -0.17639,0.6351 0.15834,0.1355 0.23519,0.3469 0.23519,0.6467 0,1.229 0.98141,1.4796 2.65606,0.6783 z m -3.24402,-2.0033 c 0.1223,-0.1474 0.10532,-0.1764 -0.1032,-0.1764 -0.14346,0 -0.24958,0.075 -0.24958,0.1764 0,0.097 0.0464,0.1764 0.10319,0.1764 0.0568,0 0.16907,-0.079 0.24959,-0.1764 z m -0.50222,-0.6002 c -0.0391,-0.039 -0.1405,-0.043 -0.22539,-0.01 -0.0938,0.038 -0.0659,0.065 0.071,0.071 0.12396,0.01 0.19341,-0.023 0.15434,-0.062 z m -40.77278,48.7338 c -0.38967,-0.2263 -0.9912,-0.6912 -1.6463,-1.2723 -1.27732,-1.1329 -2.82958,-1.7499 -4.7037,-1.8696 -1.02338,-0.065 -1.12013,-0.092 -1.15283,-0.3216 -0.0269,-0.1887 0.0437,-0.2702 0.28719,-0.3313 0.37122,-0.093 1.98587,0.02 2.33554,0.1641 0.12935,0.053 0.47331,0.1671 0.76435,0.2531 0.98986,0.2925 1.9968,0.8896 2.93982,1.7432 0.8541,0.7732 1.46946,1.1197 2.44005,1.3739 0.0808,0.021 0.14699,0.146 0.14699,0.2774 0,0.2039 -0.0731,0.2376 -0.49977,0.2305 -0.27514,0 -0.68476,-0.1158 -0.91134,-0.2474 z m 54.806408,-53.631 c 0.0045,-0.1456 0.05374,-0.3705 0.109328,-0.4998 0.07827,-0.1822 0.102926,-0.1225 0.109327,0.2646 0.0045,0.2748 -0.04465,0.4997 -0.109327,0.4997 -0.06468,0 -0.113874,-0.119 -0.109328,-0.2645 z m -1.850099,-2.8592 c -0.03881,-0.1011 -0.01069,-0.3153 0.06249,-0.4759 0.182918,-0.4014 0.172511,-2.5655 -0.01394,-2.8985 -0.08084,-0.1444 -0.266053,-0.4123 -0.411574,-0.5954 -0.322397,-0.4056 -0.339586,-0.6676 -0.0438,-0.6676 0.250933,0 0.349929,0.1036 0.73084,0.7644 0.244523,0.4242 0.270355,0.6125 0.263213,1.9189 -0.005,0.9111 -0.0573,1.4979 -0.141009,1.5816 -0.0732,0.073 -0.13309,0.2283 -0.13309,0.3448 0,0.2601 -0.216587,0.2793 -0.31313,0.028 z"
       id="path67" /></g></svg>
