<?xml version="1.0" encoding="UTF-8" standalone="no"?>
<!-- Created with Inkscape (http://www.inkscape.org/) -->

<svg
   width="120.96139mm"
   height="73.789543mm"
   viewBox="0 0 120.9614 73.789544"
   version="1.1"
   id="svg1"
   xml:space="preserve"
   xmlns="http://www.w3.org/2000/svg"
   xmlns:svg="http://www.w3.org/2000/svg"><defs
     id="defs1" /><g
     id="layer1"
     transform="translate(540.62303,-1733.1524)"><path
       style="fill:#333333;stroke-width:2.5"
       d="m -445.21388,1806.1391 c -0.63105,-0.7605 6.5563,-7.2565 7.2216,-6.527 0.202,0.2225 -0.005,0.5358 -0.45942,0.698 -0.45475,0.1625 -0.82683,0.697 -0.82683,1.1878 0,0.491 -0.56782,1.0727 -1.26182,1.293 -0.694,0.22 -1.42878,0.8357 -1.63288,1.3675 -0.94542,2.4637 7.76325,0.088 9.6645,-2.636 0.7371,-1.0563 0.74628,-1.0375 -2.96642,-6.0935 -1.90995,-2.6013 -4.1858,-5.9223 -5.0574,-7.3805 -0.88505,-1.4805 -1.95068,-2.5108 -2.41355,-2.333 -0.45585,0.175 -1.02533,0 -1.2655,-0.3885 -0.24425,-0.3953 0.0585,-0.7065 0.68675,-0.7065 0.6179,0 2.5174,-0.8578 4.22115,-1.9063 1.70375,-1.0482 4.04312,-2.1135 5.19862,-2.3675 1.8874,-0.4145 4.08695,-2.4655 4.08695,-3.811 0,-0.283 -0.62377,-0.5142 -1.38615,-0.5142 -0.7624,0 -2.24457,-0.6113 -3.2937,-1.3583 -1.04915,-0.7472 -2.51007,-1.4745 -3.24652,-1.6162 -1.75948,-0.3388 -2.65695,-0.9215 -2.65695,-1.7248 0,-1.0002 4.70507,0 6.75317,1.4538 2.10413,1.4805 2.50368,1.5495 2.51748,0.4342 0.005,-0.4547 -1.14725,-1.8687 -2.56198,-3.142 -2.1848,-1.9662 -2.9799,-3.5107 -5.2786,-10.2525 -1.4885,-4.3657 -2.90167,-9.3662 -3.14042,-11.1122 -0.88615,-6.4813 -3.72798,-6.6995 -15.6695,-1.203 -2.46478,1.1345 -4.64355,2.0625 -4.84175,2.0625 -0.19825,0 -1.66125,0.8952 -3.25125,1.989 l -2.8909,1.989 1.51797,3.4397 c 0.8349,1.8918 1.9733,3.7268 2.5298,4.0778 1.42468,0.8987 7.0779,-1.9235 12.28818,-6.1345 2.29785,-1.857 4.56935,-3.3765 5.04777,-3.3765 0.47843,0 1.19663,1.2977 1.59605,2.884 0.3994,1.586 1.92075,5.2197 3.3808,8.0747 1.69535,3.315 2.42525,5.4203 2.01985,5.8255 -0.40537,0.4055 -0.78767,0.235 -1.05795,-0.468 -0.70705,-1.8425 -1.56912,-1.2347 -1.48532,1.047 0.12775,3.477 -0.58383,4.7278 -4.7863,8.412 -5.1375,4.504 -6.30028,6.6208 -5.00878,9.1183 1.20258,2.3255 2.27243,3.2112 8.44898,6.9952 2.78135,1.7038 5.21687,3.5148 5.41232,4.024 0.38343,0.9993 -0.70185,0.5593 -4.18545,-1.6967 -0.9095,-0.589 -3.29075,-1.9595 -5.29167,-3.0458 -4.74745,-2.577 -7.08178,-6.3312 -5.9913,-9.6352 0.3985,-1.2075 1.74502,-3.1845 2.99225,-4.3935 l 2.2677,-2.198 -3.8541,-1.8225 c -2.11978,-1.0025 -4.0761,-2.182 -4.34738,-2.621 -0.75715,-1.225 2.1031,-0.215 5.90045,2.0862 l 3.25148,1.9693 1.69672,-1.6968 c 2.34835,-2.3482 2.8331,-9.9885 0.90993,-14.3412 -0.7035,-1.5923 -1.48395,-3.7138 -1.7343,-4.7143 -0.25035,-1.0002 -0.67278,-1.8125 -0.93868,-1.8045 -0.26592,0 -2.2224,1.6453 -4.3477,3.638 -2.1253,1.993 -4.41457,3.6235 -5.08727,3.6235 -0.67268,0 -1.40703,0.2978 -1.63185,0.6615 -0.2385,0.386 0.4341,0.6615 1.6146,0.6615 1.11287,0 2.0234,-0.2652 2.0234,-0.5897 0,-0.3243 0.75632,-0.7795 1.6807,-1.0115 0.9244,-0.2325 1.50215,-0.7108 1.28387,-1.064 -0.21825,-0.353 -0.1135,-0.642 0.233,-0.642 0.81995,0 1.43168,1.6422 1.4368,3.8575 0.002,0.9707 0.45405,2.6277 1.004,3.6822 1.12623,2.1595 0.9957,2.602 -0.5884,1.994 -0.6009,-0.23 -1.26367,-1.205 -1.47282,-2.1652 -0.57393,-2.6353 -1.06278,-3.8065 -1.28113,-3.069 -0.10775,0.3637 -0.37592,1.4782 -0.59602,2.4765 -0.36865,1.672 -3.13968,3.5415 -6.19765,4.1815 -2.0118,0.421 -2.7783,1.8455 -2.77843,5.1637 -1.2e-4,4.209 -1.56382,12.5668 -3.04262,16.2628 -0.68973,1.7237 -1.7191,3.0075 -2.71515,3.3862 -0.88235,0.3355 -8.81795,0.61 -17.63465,0.61 -10.71108,0 -16.2702,0.24 -16.7531,0.7228 -0.52268,0.5225 -1.11815,0.511 -2.1512,-0.043 -0.9898,-0.5298 -6.30188,-0.7203 -17.29875,-0.6203 -11.312,0.1025 -16.09025,-0.075 -16.63608,-0.6215 -0.42117,-0.4212 -0.88605,-2.655 -1.03307,-4.964 l -0.26733,-4.198 3.1591,-0.433 c 3.18775,-0.437 7.97628,-2.7877 10.69465,-5.2505 l 1.47535,-1.3365 -1.6407,-1.6407 c -2.88692,-2.887 -1.87932,-6.8285 2.17905,-8.5243 2.20443,-0.921 2.45753,-0.9067 3.25405,0.1825 0.47503,0.6498 0.86825,1.794 0.87383,2.543 0.0175,2.5113 1.1043,3.3438 4.43057,3.3975 1.74135,0.027 4.2115,0.2713 5.48923,0.5403 1.89555,0.399 2.77647,0.18 4.78577,-1.1823 l 2.4626,-1.6712 3.45503,1.7925 c 3.30242,1.7132 3.86647,1.7895 12.76982,1.7245 9.8936,-0.072 12.35615,-0.6583 11.7944,-2.8065 -0.2715,-1.038 -1.21062,-1.3063 -5.81735,-1.6603 -5.73705,-0.441 -12.99965,-2.387 -15.19805,-4.0722 -1.6004,-1.2268 -0.27822,-1.3448 2.85025,-0.254 1.75123,0.6105 2.37708,0.529 3.8196,-0.4963 4.87455,-3.4645 5.08675,-3.5342 10.78093,-3.5377 4.8519,0 5.42332,-0.12 4.36137,-0.897 -1.22815,-0.8983 -1.53607,-3.6993 -0.69717,-6.3423 0.2235,-0.7042 0.0638,-1.8292 -0.35525,-2.5 -0.67653,-1.0832 -1.49483,-1.19 -7.32503,-0.956 -6.38507,0.2565 -6.60705,0.2175 -8.16795,-1.4675 -0.88247,-0.9522 -2.09412,-1.7315 -2.69257,-1.7315 -1.36808,0 -9.69908,7.967 -12.36805,11.8278 -1.93853,2.804 -1.9683,2.9572 -0.9198,4.7322 0.59597,1.0088 1.0836,2.607 1.0836,3.5513 0,1.8812 -2.06925,4.3627 -3.63803,4.3627 -1.21955,0 -1.22,0.045 0.0292,-2.9442 0.56173,-1.3445 0.82665,-3.058 0.58868,-3.8078 -0.39623,-1.2482 -0.8027,-1.3322 -4.82473,-0.9955 l -4.39207,0.3675 2.7004,-1.1967 c 1.71092,-0.7583 3.60635,-2.4308 5.17277,-4.5648 3.61483,-4.9242 10.00075,-10.4322 14.8802,-12.8345 3.65215,-1.798 4.9944,-2.1027 9.27905,-2.1077 3.97498,0 5.6082,0.3115 7.91018,1.5305 3.40815,1.805 4.25542,1.1862 3.17887,-2.3218 -0.64385,-2.0977 -0.5398,-2.4362 1.32023,-4.2965 l 2.01917,-2.019 3.8286,0.8568 c 3.01993,0.6757 4.051,1.245 4.88155,2.695 0.5791,1.011 1.49943,1.9495 2.04513,2.0857 0.69475,0.1725 0.5185,0.441 -0.588,0.8928 -1.28445,0.5247 -1.8906,0.358 -3.23853,-0.8913 -1.98905,-1.8435 -4.81895,-1.99 -6.32357,-0.3272 -1.34563,1.4867 -1.41413,2.759 -0.1485,2.759 0.5204,0 1.0413,0.6392 1.15755,1.4207 0.3797,2.5523 2.19412,3.045 5.33962,1.4503 4.53858,-2.301 10.48865,-4.8983 14.246,-6.2188 3.903,-1.3712 5.58665,-1.0587 8.78245,1.6303 1.0148,0.854 2.9826,1.7505 4.37285,1.9925 3.97188,0.6915 9.47305,2.496 9.47305,3.1077 0,0.9925 -2.91282,2.4408 -5.62237,2.7953 -5.15433,0.6742 -5.736,1.0422 -5.27093,3.3337 1.19455,5.886 2.65933,9.1055 5.5486,12.196 5.529,5.9138 5.55038,5.952 4.62818,8.2915 -1.2147,3.0815 -2.98335,4.768 -5.9243,5.6493 -1.4437,0.4325 -3.07795,1.4777 -3.63165,2.323 -0.9372,1.4302 -0.8493,1.865 1.273,6.2935 1.25385,2.6162 3.19637,5.83 4.3167,7.1417 3.03645,3.5548 2.72362,4.4548 -2.45455,7.0625 -4.54148,2.287 -8.81855,2.8893 -10.0428,1.4143 z m -58.41742,-17.056 c -0.19725,-2.175 -0.67615,-4.272 -1.06428,-4.6602 -0.49997,-0.4998 -0.52262,-0.067 -0.0778,1.484 0.3644,1.2707 0.38535,2.643 0.05,3.2697 -0.73675,1.3768 -0.10675,4.8238 0.78123,4.2748 0.39852,-0.2475 0.52435,-2.014 0.31087,-4.3683 z m 38.0908,-17.4872 c 1.79985,-0.907 2.75255,-1.6055 6.34142,-4.6488 1.67033,-1.4165 1.68065,-1.468 0.29728,-1.4882 -0.78823,0 -1.55808,-0.393 -1.71078,-0.8478 -0.21725,-0.6472 -0.65542,-0.6255 -2.01692,0.1 -0.9566,0.5095 -1.61305,1.1308 -1.45873,1.3805 0.68403,1.1068 -1.7845,3.168 -4.27002,3.5655 -2.29585,0.367 -2.67028,0.6595 -2.67028,2.0853 0,1.474 0.20225,1.61 1.819,1.2225 1.00045,-0.24 2.65153,-0.8558 3.66903,-1.3688 z m -0.1965,-6.8238 c 0,-0.73 -0.73398,-1.9655 -1.63108,-2.7455 -0.8971,-0.78 -1.4745,-1.6715 -1.28312,-1.9812 0.36562,-0.5915 -2.8397,-2.062 -3.79238,-1.7398 -0.30417,0.1025 -0.128,1.0055 0.3917,2.006 0.51963,1.0005 0.75043,1.819 0.51288,1.819 -0.8008,0 4.14012,3.9148 4.97517,3.942 0.45478,0.025 0.82683,-0.5705 0.82683,-1.3005 z m -5.1285,-9.8085 c 0.2561,-0.9792 0.0125,-1.1555 -1.26045,-0.9122 -1.255,0.24 -1.42295,0.4882 -0.82075,1.214 1.0313,1.2425 1.7028,1.1452 2.0812,-0.3018 z m 0.0587,-3.1972 c 0.8314,-0.8315 -1.74638,-2.865 -3.63175,-2.865 -2.1643,0 -2.31708,0.4072 -0.78715,2.0977 1.08147,1.195 3.56067,1.6255 4.4189,0.7673 z m 36.39485,-1.1125 c 5.10257,-0.558 4.8162,-0.9945 -1.31695,-2.0075 -1.13993,-0.1875 -2.85145,-0.538 -3.8034,-0.7768 -1.38113,-0.3467 -1.7308,-0.1975 -1.7308,0.7428 0,1.6712 2.00962,3.7367 2.9116,2.9922 0.39952,-0.3297 2.17232,-0.7575 3.93955,-0.9507 z m -15.24195,48.8732 c -2.25318,-0.98 -4.1112,-3.9137 -3.68088,-5.8117 0.4315,-1.9035 1.48833,-1.3095 1.48833,0.8365 0,1.54 0.48965,2.2925 2.14975,3.3047 2.44557,1.4913 4.49697,1.6805 5.65547,0.522 0.59073,-0.5907 0.79375,-0.5967 0.79375,-0.025 0,0.8628 -2.09417,2.1538 -3.42917,2.114 -0.47868,-0.025 -1.81843,-0.4382 -2.97725,-0.9422 z m 24.2658,-1.3905 c 0,-2.8135 -1.15718,-4.2482 -3.49593,-4.3342 -1.16957,-0.043 -3.01945,-0.3055 -4.11085,-0.5833 -1.50035,-0.3817 -0.82995,-0.524 2.74843,-0.583 l 4.7328,-0.078 0.8896,2.811 c 0.65595,2.073 1.28047,2.8668 2.37787,3.0228 1.94568,0.2762 1.9377,-1.081 -0.0363,-6.1885 l -1.5246,-3.9448 -4.59387,-0.3795 -4.59388,-0.3792 5.00458,-0.1175 5.0046,-0.1175 1.39202,3.4725 c 2.2824,5.694 2.3872,6.4235 1.1236,7.8197 -0.63487,0.7015 -2.00115,1.2755 -3.03617,1.2755 -1.5792,0 -1.88185,-0.273 -1.88185,-1.6972 z m -79.21148,-27.5667 c 0.11025,-0.3305 0.48305,-0.601 0.82865,-0.601 0.34563,0 0.71853,0.2705 0.82868,0.601 0.11025,0.3302 -0.26275,0.6007 -0.82868,0.6007 -0.5659,0 -0.9388,-0.2705 -0.82865,-0.6007 z m 73.77463,-3.161 c -3.92588,-6.2145 -6.4774,-10.8768 -6.27875,-11.4725 0.2425,-0.7278 4.74152,5.5722 6.69922,9.381 1.37233,2.67 1.02775,4.384 -0.42047,2.0915 z m -67.98503,-9.3173 c 0,-0.4022 0.91798,-1.8905 2.03995,-3.3072 1.6076,-2.0298 2.4877,-2.5755 4.15248,-2.5755 1.2629,0 2.54882,0.5095 3.19737,1.267 1.3553,1.5827 0.92098,2.0402 -1.93742,2.0402 -1.3798,0 -3.08688,0.639 -4.41703,1.6535 -2.39035,1.8233 -3.03535,2.0193 -3.03535,0.922 z m 39.02813,-16.6315 c -0.002,-1.3985 2.419,-1.5372 4.13202,-0.2375 1.67075,1.2683 1.46835,1.4625 -1.48617,1.4265 -2.06378,-0.025 -2.6442,-0.2862 -2.64585,-1.1897 z m 9.16242,-1.693 c -5.6553,-4.9437 -10.48742,-6.932 -10.48742,-4.3152 0,0.6062 -0.193,0.9095 -0.42895,0.6735 -0.236,-0.235 -0.98005,0.2075 -1.65365,0.983 -0.67358,0.7767 -1.2247,1.046 -1.2247,0.5987 0,-0.4475 0.9049,-1.7185 2.01087,-2.8245 1.6442,-1.6442 2.3736,-1.9382 3.99998,-1.613 2.24492,0.449 6.74925,3.3868 9.15017,5.9678 2.28075,2.452 1.27758,2.841 -1.3663,0.5297 z"
       id="path83" /></g></svg>
