<?xml version="1.0" encoding="UTF-8" standalone="no"?>
<!-- Created with Inkscape (http://www.inkscape.org/) -->

<svg
   width="133.32446mm"
   height="77.424881mm"
   viewBox="0 0 133.32448 77.424881"
   version="1.1"
   id="svg1"
   xml:space="preserve"
   xmlns="http://www.w3.org/2000/svg"
   xmlns:svg="http://www.w3.org/2000/svg"><defs
     id="defs1" /><g
     id="layer1"
     transform="translate(222.61424,-1820.4087)"><path
       style="fill:#4d4d4d"
       d="m -171.04628,1897.6644 c -1.15326,-0.3162 -1.94028,-1.225 -1.94028,-2.2408 0,-0.972 2.0374,-3.1731 5.02709,-5.4311 1.59418,-1.204 1.68713,-1.6761 0.27435,-1.3936 -0.57671,0.1154 -2.12452,0.095 -3.43958,-0.046 -2.17815,-0.2326 -2.5088,-0.379 -3.71394,-1.6445 -0.7276,-0.764 -1.32292,-1.6206 -1.32292,-1.9035 0,-1.0531 -0.58567,-0.4601 -1.18121,1.1961 -1.06286,2.9557 -4.07501,4.993 -7.38079,4.9919 -1.66142,-5e-4 -7.40979,-1.328 -10.66438,-2.4629 -3.88178,-1.3535 -7.73668,-2.1839 -10.14089,-2.1844 -2.17886,-5e-4 -2.52641,0.1071 -4.11655,1.2743 -1.8341,1.3464 -3.91062,3.5189 -3.91062,4.0913 0,0.5461 -1.6347,0.3921 -2.12638,-0.2003 -0.82587,-0.9951 -0.84483,-3.7831 -0.0381,-5.6068 0.47159,-1.0661 0.58131,-1.6186 0.3044,-1.5328 -0.70338,0.2179 -1.60593,2.4021 -1.99056,4.8172 -0.60028,3.7691 -2.10591,4.5928 -3.89099,2.1286 -1.38468,-1.9115 -1.66282,-3.9303 -0.90205,-6.5473 0.39718,-1.3662 0.52497,-2.612 0.38001,-3.7047 -0.27856,-2.0999 0.28037,-3.3517 1.70108,-3.8098 0.62259,-0.2007 6.40091,-0.3873 13.40076,-0.4328 l 12.30621,-0.08 0.44267,-1.0767 c 0.24347,-0.5922 0.62629,-3.2992 0.85072,-6.0156 0.59223,-7.1681 1.32177,-12.4613 1.9812,-14.3745 0.38545,-1.1184 1.10363,-2.138 2.16215,-3.0697 2.11133,-1.8585 3.54502,-2.0948 11.04946,-1.8209 2.02003,0.074 3.27162,-0.1035 5.29166,-0.7492 2.45565,-0.785 2.6389,-0.9115 2.54938,-1.7603 -0.13206,-1.2522 2.11504,-3.1516 3.62423,-3.0635 0.58209,0.034 2.09021,-0.4136 3.35139,-0.9946 1.26118,-0.581 2.76842,-1.1707 3.34942,-1.3103 1.39895,-0.3363 1.94225,-0.8263 1.94225,-1.7519 0,-1.3861 2.1693,-2.1749 5.56732,-2.0244 1.34914,0.06 1.9194,0.9802 1.01639,1.6405 -0.73935,0.5406 -0.74908,0.8802 -0.0252,0.8802 0.30871,0 1.19035,-0.5384 1.95921,-1.1965 1.82751,-1.5643 5.78283,-2.8487 8.53803,-2.7726 1.64565,0.045 2.32322,0.2526 3.35139,1.0243 0.70878,0.532 1.39427,1.1219 1.52329,1.311 0.13884,0.2034 1.8667,-0.3517 4.23333,-1.3599 6.57587,-2.8016 9.9256,-4.5969 10.80028,-5.7884 0.5867,-0.7992 1.0878,-1.0956 1.85208,-1.0956 1.25604,0 1.30079,0.1953 0.25403,1.1086 l -0.79375,0.6925 0.76785,-0.2106 c 1.16763,-0.3202 3.28909,0.6935 3.28909,1.5716 0,0.7025 -1.80114,2.1253 -2.69416,2.1282 -0.6856,0 -3.9593,2.2624 -4.18204,2.8872 -0.11624,0.3261 -0.66845,0.6933 -1.22715,0.816 -0.55869,0.1227 -2.26212,1.3018 -3.7854,2.6203 -2.92441,2.5313 -4.5809,3.5613 -5.30917,3.3014 -0.87068,-0.3107 -0.36711,-1.0028 1.69532,-2.3299 1.15338,-0.7421 2.09705,-1.5017 2.09705,-1.6881 0,-0.3838 -0.67138,-0.069 -3.61598,1.6962 -1.67283,1.0028 -2.02847,1.3839 -2.02847,2.1738 0,0.6768 -0.49174,1.4404 -1.67569,2.602 -1.9379,1.9013 -4.28335,3.073 -6.17361,3.0841 -0.72761,0 -1.32292,0.098 -1.32292,0.2078 0,0.1101 0.55562,0.7241 1.23472,1.3646 1.4738,1.39 1.65974,2.6687 0.38806,2.6687 -0.73754,0 -0.84667,0.1643 -0.84667,1.275 0,1.552 -0.60166,2.2116 -2.26331,2.4812 -1.07089,0.1738 -1.29778,0.092 -1.49864,-0.541 -0.13019,-0.4102 -0.38614,-0.7458 -0.56878,-0.7458 -0.18263,0 -1.2699,-0.8621 -2.41614,-1.9159 -3.27187,-3.0079 -4.93642,-3.6033 -7.03704,-2.517 -1.90699,0.9861 -1.96591,1.2198 -1.86502,7.3972 0.13191,8.0773 -0.69769,16.1366 -2.03712,19.7899 -0.5691,1.5522 -1.12496,3.2479 -1.23525,3.7681 -0.21597,1.0188 -2.5902,3.5579 -7.08071,7.5723 -3.27305,2.9261 -3.25824,3.4185 0.10139,3.3709 2.87758,-0.041 5.62189,-1.3169 8.01073,-3.7249 2.48431,-2.5042 2.64096,-3.0977 2.65282,-10.0504 0.001,-0.6493 0.85356,-3.1893 1.89435,-5.6444 2.24082,-5.2859 3.06635,-8.3823 3.25194,-12.1975 0.0751,-1.5447 0.28996,-2.9619 0.47736,-3.1493 0.59789,-0.5979 1.38528,0.4514 1.49823,1.9966 l 0.10713,1.4656 2.29306,0.398 c 2.19056,0.3802 2.81954,0.5516 4.40972,1.2015 5.21898,2.1332 7.9952,2.9669 11.18419,3.3584 1.73621,0.2131 2.14114,0.1454 2.95436,-0.4943 0.73148,-0.5754 1.23841,-0.6939 2.26505,-0.5298 0.80139,0.1282 2.11486,-0.019 3.33275,-0.3728 1.65386,-0.4808 2.39635,-0.9816 4.18965,-2.8256 2.20447,-2.267 3.72912,-4.4271 3.12464,-4.4271 -0.18124,0 -0.5379,0.2511 -0.79258,0.5579 -1.1853,1.4282 -7.22931,3.7377 -11.02184,4.2115 -2.37377,0.2966 -7.45993,-0.3949 -8.17669,-1.1117 -0.26551,-0.2655 -0.85563,-0.4827 -1.31139,-0.4827 -0.45576,0 -1.20375,-0.2627 -1.66221,-0.5839 -0.45845,-0.3211 -1.31535,-0.6823 -1.9042,-0.8028 -0.58885,-0.1204 -1.13543,-0.4133 -1.21461,-0.6509 -0.17806,-0.5341 2.36912,-0.5893 4.11342,-0.089 2.68882,0.7711 6.21367,-0.794 13.4403,-5.9677 2.61937,-1.8752 5.55625,-3.8492 6.52638,-4.3865 1.84798,-1.0236 5.35295,-2.0959 5.84881,-1.7894 0.66106,0.4085 1.20006,-1.5595 1.21246,-4.427 0.0104,-2.4005 0.11665,-2.9986 0.5328,-2.9986 0.29255,0 0.73966,0.6358 1.02261,1.4542 0.45171,1.3066 0.43531,1.7007 -0.16143,3.8806 -0.71538,2.6132 -0.8147,5.9746 -0.19485,6.5944 0.69155,0.6916 0.40431,1.4001 -1.18488,2.9228 -0.86216,0.8261 -1.91318,2.188 -2.3356,3.0264 -0.91686,1.8197 -2.49647,3.8127 -4.97993,6.2831 -2.00605,1.9955 -3.6444,2.956 -5.66901,3.3234 -1.08415,0.1968 -1.32292,0.3893 -1.32292,1.067 0,0.4547 -0.30148,1.1991 -0.66995,1.6542 -0.4745,0.586 -0.61541,1.1634 -0.48301,1.9794 0.11877,0.7318 0.0415,1.152 -0.21199,1.152 -0.21942,0 -0.3982,0.1984 -0.39731,0.4409 9e-4,0.2426 0.4852,-0.075 1.07622,-0.7055 1.07749,-1.1497 1.74437,-1.4531 1.74437,-0.7938 0,0.1941 0.37879,0.3528 0.84174,0.3528 0.66559,0 1.14254,-0.5063 2.2791,-2.4194 1.02901,-1.7321 2.28079,-3.1355 4.40626,-4.94 4.19341,-3.5602 9.79814,-9.517 10.69131,-11.363 0.41575,-0.8593 1.10852,-2.5148 1.5395,-3.679 1.57171,-4.2456 1.51203,-4.1472 1.98265,-3.2678 0.38974,0.7282 0.43102,0.6958 0.79853,-0.628 0.55976,-2.0162 0.51034,-4.7472 -0.0859,-4.7472 -0.3566,0 -0.43722,-0.424 -0.31864,-1.6757 0.13491,-1.4242 -0.0346,-2.0395 -1.12954,-4.0986 -1.74049,-3.2735 -1.62017,-4.0033 0.86723,-5.2607 3.14183,-1.5882 4.47179,-3.4289 2.47748,-3.4289 -2.41437,0 -2.30149,-1.2843 0.36324,-4.1329 1.174346,-1.2554 2.077575,-2.4553 2.007179,-2.6665 -0.0704,-0.2112 -0.674036,-0.5677 -1.34142,-0.7923 -1.670649,-0.5622 -1.843259,-1.5789 -0.269149,-1.5854 0.644813,0 1.503499,-0.094 1.908187,-0.2024 0.838411,-0.2251 2.96837,1.3507 2.96837,2.196 0,0.2832 0.665814,1.4994 1.479587,2.7027 l 1.479586,2.1877 0.06107,5.6445 c 0.05694,5.2626 0.253513,6.9052 1.583176,13.2291 0.831805,3.9561 1.476007,10.8682 1.48208,15.9023 0.007,5.8304 -0.287272,7.4666 -1.678767,9.3327 -0.438688,0.5883 -0.855602,1.3701 -0.926477,1.7372 -0.09239,0.4787 -0.631623,0.7809 -1.905349,1.0677 -0.977068,0.22 -1.935429,0.4983 -2.129691,0.6183 -0.429941,0.2658 -6.808062,1.2082 -10.204932,1.5079 -1.35819,0.1199 -4.53319,0.5993 -7.05556,1.0654 -12.72086,2.3505 -11.60884,2.2504 -11.37445,1.0242 0.16829,-0.8804 0.13275,-0.8992 -1.28179,-0.6809 -2.56638,0.3961 -3.5547,0.8616 -4.31158,2.0307 -0.73836,1.1405 -0.75673,1.1462 -8.11389,2.4909 -4.05561,0.7413 -8.56447,1.5711 -10.01968,1.844 -1.45521,0.2729 -3.83646,0.6995 -5.29167,0.9479 l -2.64583,0.4518 -0.21622,1.7686 c -0.43806,3.5834 -3.01435,6.7877 -7.12547,8.8622 -2.38769,1.2049 -5.71554,1.7847 -7.47498,1.3025 z m -47.82844,-9.0941 c 0.25637,-1.4429 0.76277,-3.1112 1.12532,-3.7073 0.95108,-1.564 2.7025,-2.5573 4.07798,-2.313 0.88893,0.158 1.16246,0.063 1.32898,-0.4617 0.35987,-1.1339 1.87192,-2.2694 3.62698,-2.7238 l 1.68585,-0.4365 -1.38207,-0.2674 c -1.56954,-0.3038 -10.27003,-0.01 -11.26932,0.3869 -0.57402,0.2252 -0.62815,0.5121 -0.42887,2.2735 0.1631,1.4417 0.0648,2.4967 -0.34527,3.7045 -0.58311,1.7175 -0.47371,4.2105 0.24359,5.5509 0.5834,1.0902 0.86058,0.6743 1.33683,-2.0061 z m 9.97983,-3.265 c 1.92013,-1.0409 5.65576,-0.7685 10.68472,0.7792 8.48597,2.6115 9.92063,2.9879 12.25328,3.2147 4.33401,0.4214 6.57434,-1.0764 7.85879,-5.2542 0.539,-1.7532 0.59712,-2.9206 0.42156,-8.4667 -0.112,-3.5382 -0.39325,-7.465 -0.625,-8.7262 -0.70121,-3.8159 -0.79936,-3.5977 1.6749,-3.7248 2.20904,-0.1135 3.66113,-0.6907 9.63731,-3.8309 1.26118,-0.6627 3.28524,-1.406 4.49791,-1.6518 1.21268,-0.2458 2.20486,-0.5662 2.20486,-0.7121 0,-0.1458 -1.38906,-0.1771 -3.0868,-0.07 -2.958,0.1874 -3.12729,0.1577 -4.05695,-0.7116 -1.78978,-1.6737 -1.05554,-5.0628 1.82625,-8.4295 l 1.2373,-1.4455 -1.53186,0.2449 c -1.91558,0.3063 -2.8546,0.7966 -2.8546,1.4905 0,0.2956 0.15875,0.4394 0.35278,0.3195 0.5354,-0.3309 1.05391,0.1302 0.82302,0.7319 -0.42332,1.1032 -2.42836,1.8536 -10.34802,3.8731 -2.61938,0.6679 -5.63563,1.6513 -6.70278,2.1853 -1.65682,0.829 -2.07871,1.2543 -2.88785,2.9111 -0.66706,1.3659 -0.99081,2.6713 -1.09364,4.4097 -0.15339,2.5933 0.5029,8.6576 1.16444,10.7597 2.0395,6.4809 2.19966,8.4182 0.78858,9.5385 -0.88004,0.6987 -1.26503,0.7539 -4.14514,0.5948 -1.74625,-0.096 -5.16886,-0.6583 -7.60579,-1.2486 -6.23581,-1.5106 -8.42655,-1.7142 -10.38715,-0.9654 -0.96165,0.3672 -1.8109,0.9953 -2.17163,1.6059 -0.32582,0.5516 -0.96782,1.2038 -1.42667,1.4494 -0.45885,0.2455 -1.12612,0.9327 -1.48283,1.5269 -0.66531,1.1084 -1.24879,3.8915 -0.92552,4.4146 0.0995,0.1609 1.20821,-0.7147 2.46384,-1.9458 1.25563,-1.2312 2.80484,-2.5214 3.44269,-2.8671 z m -4.28048,1.0966 c 0.0169,-0.411 0.10052,-0.4946 0.21314,-0.2131 0.1019,0.2546 0.0894,0.5589 -0.0279,0.6761 -0.11722,0.1172 -0.2006,-0.091 -0.18528,-0.463 z m 39.68379,-6.2427 c 1.39201,-5.3306 6.24467,-11.397 11.05411,-13.819 2.46422,-1.2409 2.50369,-1.2827 2.50369,-2.6467 0,-1.659 -0.32705,-1.929 -1.64926,-1.3615 -4.08439,1.753 -10.34518,6.4701 -10.34518,7.7944 0,0.2059 -0.22449,0.625 -0.49887,0.9313 -0.93312,1.0417 -1.92992,4.8005 -2.08865,7.8758 -0.1418,2.7475 -0.0318,3.7083 0.3778,3.2987 0.0782,-0.078 0.36904,-1.011 0.64636,-2.073 z m -13.94753,0.7829 c 0.30411,-0.5683 0.2199,-1.2415 -0.38609,-3.0868 -1.74974,-5.3282 -2.13674,-7.3294 -2.33252,-12.0615 -0.16123,-3.8969 -0.0863,-5.14 0.41227,-6.8394 0.81536,-2.7791 2.80603,-4.7858 5.86654,-5.9136 1.9646,-0.724 2.1198,-0.8437 1.22619,-0.9457 -1.39031,-0.1586 -4.00706,0.5373 -5.19143,1.3806 -1.89963,1.3527 -2.74792,5.15 -3.50048,15.6695 -0.40857,5.7111 -0.54288,6.5626 -1.25988,7.9874 -0.67156,1.3346 -2.04862,1.6747 -6.00961,1.4845 -1.91213,-0.092 -4.19098,-0.016 -5.0641,0.169 -1.32436,0.2803 -1.41207,0.3437 -0.52917,0.3826 0.58208,0.026 3.43958,0.5862 6.35,1.2455 6.38643,1.4469 9.83299,1.6215 10.41828,0.5279 z m 40.20533,-24.6733 c 0,-0.3881 0.21045,-0.7056 0.46767,-0.7056 0.68677,0 2.19718,-1.7194 1.80308,-2.0526 -2.38338,-2.0149 -2.89065,-2.1962 -6.58064,-2.3526 -11.08155,-0.4697 -12.62344,-0.6058 -12.62344,-1.1135 0,-0.8607 1.39298,-1.0765 5.84291,-0.905 l 4.30319,0.1657 1.65028,-1.1354 c 0.90765,-0.6245 1.80971,-1.5547 2.00457,-2.0673 0.44845,-1.1795 0.98828,-1.5149 1.76726,-1.098 0.33725,0.1805 0.90143,0.3255 1.25373,0.3222 0.46062,0 0.31849,-0.2122 -0.50597,-0.7402 -1.18839,-0.761 -1.45407,-1.6274 -0.72319,-2.3583 0.62726,-0.6272 0.12421,-0.5144 -1.20618,0.2705 -1.16821,0.6893 -1.18287,0.6893 -2.22503,0 -0.67295,-0.4436 -1.65574,-0.6924 -2.74117,-0.6939 -1.49721,0 -1.75958,0.1153 -2.27788,1.0184 -0.34244,0.5966 -1.37616,1.4083 -2.48848,1.9538 -2.49981,1.226 -5.46789,4.0699 -6.58287,6.3073 -1.04361,2.0943 -1.11229,2.9444 -0.30955,3.8314 1.11017,1.2267 5.85839,0.5512 7.74041,-1.1013 0.65398,-0.5742 1.82146,-1.2334 2.5944,-1.465 2.02791,-0.6076 4.25889,0.308 6.54385,2.6856 1.98989,2.0706 2.29305,2.2334 2.29305,1.2314 z m 7.15991,-6.4409 c 1.14217,-0.483 1.65694,-0.8968 1.58438,-1.2736 -0.21015,-1.0912 -1.66659,-1.4296 -5.22105,-1.213 -2.34392,0.1428 -3.63278,0.074 -4.18762,-0.2227 -0.72388,-0.3874 -0.91707,-0.2982 -1.99417,0.921 -0.65595,0.7425 -1.19924,1.4691 -1.20732,1.6146 -0.008,0.1455 0.53157,0.2646 1.19922,0.2646 0.66764,0 1.31361,0.1613 1.43549,0.3585 0.32395,0.5242 0.87838,0.062 0.87838,-0.7321 0,-0.8041 1.00402,-0.9295 1.2458,-0.1556 0.0909,0.2911 0.22996,0.7419 0.30897,1.0019 0.20659,0.6798 3.82753,0.3373 5.95792,-0.5636 z m 41.670178,-4.777 c 0.404358,-0.472 1.166699,-1.3557 1.694092,-1.9638 2.039006,-2.3513 3.686768,-6.5211 2.794767,-7.0724 -0.201655,-0.1247 -0.722016,0.254 -1.156358,0.8415 -0.434342,0.5875 -0.907221,1.0682 -1.050843,1.0682 -0.143622,0 -1.286989,1.0208 -2.540817,2.2684 l -2.279689,2.2685 -0.0103,3.2534 -0.0103,3.2534 0.91212,-1.5296 c 0.501671,-0.8413 1.242964,-1.9157 1.647322,-2.3876 z m -35.268948,-1.8012 c 0.34092,-0.5516 3.76019,-2.3197 7.55542,-3.9069 2.00974,-0.8404 4.07349,-1.881 4.58611,-2.3122 0.51263,-0.4313 1.64041,-1.0236 2.50618,-1.3162 0.86577,-0.2926 1.63446,-0.713 1.70821,-0.9343 0.28282,-0.8485 -3.01501,0.092 -6.9865,1.9916 -5.74624,2.749 -8.67143,3.9749 -9.48485,3.9749 -0.93308,0 -1.14027,0.4084 -0.87643,1.7276 0.21677,1.0839 0.61085,1.392 0.99186,0.7755 z m 31.46664,-8.7457 c -0.0437,-0.044 -0.42967,0.012 -0.85776,0.1241 -0.47339,0.1238 -0.77834,0.4784 -0.77834,0.905 0,0.666 0.0433,0.6597 0.85775,-0.1241 0.47177,-0.4541 0.82203,-0.8613 0.77835,-0.905 z m 2.0774,-1.0976 c -0.10862,-0.1086 -0.39328,-3e-4 -0.63258,0.2408 -0.34582,0.3485 -0.3053,0.389 0.19748,0.1975 0.34792,-0.1325 0.54371,-0.3297 0.4351,-0.4383 z m 0.167049,-5.3598 c 0,-0.1941 -0.149379,-0.3528 -0.331959,-0.3528 -0.18258,0 -0.43007,0.1587 -0.54998,0.3528 -0.11992,0.194 0.0295,0.3528 0.33195,0.3528 0.3025,0 0.549989,-0.1588 0.549989,-0.3528 z m -112.359729,63.8528 c 0.11992,-0.1941 0.36741,-0.3528 0.54999,-0.3528 0.18258,0 0.33196,0.1587 0.33196,0.3528 0,0.194 -0.2475,0.3527 -0.54999,0.3527 -0.30249,0 -0.45187,-0.1587 -0.33196,-0.3527 z m 97.27847,-58.7948 c -0.82461,-0.2919 -1.4993,-0.7556 -1.4993,-1.0305 0,-0.5976 1.30455,-0.6569 2.70871,-0.1231 0.87193,0.3315 1.08478,0.2674 1.77478,-0.5348 1.02632,-1.1931 1.61884,-3.4674 1.33738,-5.1333 -0.19708,-1.1666 -0.0803,-1.4963 0.94282,-2.6615 1.03072,-1.1739 3.75967,-2.808 4.10791,-2.4597 0.2737,0.2737 -0.35788,1.5932 -0.76258,1.5932 -0.63494,0 -2.70068,1.9952 -2.70068,2.6084 0,0.2924 0.22169,0.6585 0.49263,0.8137 0.60119,0.3442 3.38793,3.6904 3.38793,4.068 0,0.694 -1.09527,0.1393 -2.25109,-1.1401 -0.70117,-0.7761 -1.35464,-1.4111 -1.45216,-1.4111 -0.0975,0 -0.17731,0.3658 -0.17731,0.8129 0,1.5857 -2.87345,5.2467 -4.04725,5.1565 -0.19937,-0.015 -1.03717,-0.2667 -1.86179,-0.5586 z"
       id="path107" /></g></svg>
