<?xml version="1.0" encoding="UTF-8" standalone="no"?>
<!-- Created with Inkscape (http://www.inkscape.org/) -->

<svg
   width="112.53377mm"
   height="121.53924mm"
   viewBox="0 0 112.53378 121.53924"
   version="1.1"
   id="svg1"
   xml:space="preserve"
   xmlns="http://www.w3.org/2000/svg"
   xmlns:svg="http://www.w3.org/2000/svg"><defs
     id="defs1" /><g
     id="layer1"
     transform="translate(189.06147,-150.50176)"><path
       style="fill:#4d4d4d"
       d="m -169.22081,271.83261 c -0.26702,-0.21003 -0.32334,-0.34638 -0.32334,-0.7827 0,-0.63931 -0.003,-0.63356 1.34936,-2.68836 1.50175,-2.28199 1.9136,-3.3067 2.64668,-6.58519 0.0579,-0.2587 0.16706,-1.18474 0.2427,-2.05787 0.14103,-1.62789 0.0306,-3.24047 -0.24378,-3.56152 -0.0671,-0.0784 -0.33774,-0.51306 -0.60149,-0.96579 -0.26375,-0.45274 -0.67982,-1.16711 -0.92459,-1.5875 -0.24476,-0.4204 -0.57891,-1.01044 -0.74254,-1.31121 -0.16362,-0.30078 -0.43378,-0.76275 -0.60035,-1.0266 -0.16656,-0.26386 -0.30285,-0.5098 -0.30285,-0.54653 0,-0.0367 -0.1852,-0.3563 -0.41157,-0.71017 -0.22637,-0.35387 -0.41157,-0.67137 -0.41157,-0.70556 0,-0.0342 -0.18521,-0.35169 -0.41158,-0.70555 -0.22636,-0.35387 -0.41157,-0.66606 -0.41157,-0.69376 0,-0.1556 -3.58276,-5.6157 -3.91864,-5.97197 -0.0761,-0.0807 -0.42902,-0.49067 -0.78433,-0.91106 -0.35532,-0.4204 -0.67383,-0.79081 -0.70781,-0.82315 -0.034,-0.0323 -0.40472,-0.45396 -0.82388,-0.93694 -0.41916,-0.48297 -0.88329,-1.01214 -1.03141,-1.17592 -0.14812,-0.16378 -0.51854,-0.66821 -0.82315,-1.12094 -0.30461,-0.45273 -0.59352,-0.84078 -0.64203,-0.86234 -0.0485,-0.0216 -0.0882,-0.0826 -0.0882,-0.1357 0,-0.0531 -0.17388,-0.40585 -0.38639,-0.78395 -0.21252,-0.3781 -0.50907,-0.97849 -0.659,-1.33421 -0.14993,-0.35572 -0.34236,-0.80551 -0.42763,-0.99954 -0.0853,-0.19403 -0.27338,-0.6871 -0.41801,-1.09573 -0.14464,-0.40862 -0.43856,-0.93779 -0.65315,-1.17593 -0.2146,-0.23813 -0.3914,-0.46887 -0.3929,-0.51276 -0.001,-0.0439 -0.07,-0.14972 -0.15213,-0.23519 -0.35874,-0.37311 -1.01663,-1.38571 -1.31185,-2.01915 -0.43721,-0.93809 -0.45894,-1.95927 -0.0584,-2.74469 0.35471,-0.69554 2.68681,-3.06342 2.85323,-2.897 0.0886,0.0886 2.61989,-0.94737 2.99697,-1.22651 l 0.3912,-0.28962 -0.62639,-0.55903 c -0.5978,-0.53351 -1.15556,-1.36419 -1.15556,-1.72098 0,-0.0918 -0.0485,-0.25876 -0.10783,-0.37107 -0.0593,-0.1123 -0.1972,-0.68044 -0.30643,-1.26252 -0.10923,-0.58209 -0.24301,-1.21709 -0.29729,-1.41111 -0.0543,-0.19403 -0.18625,-0.67028 -0.29326,-1.05834 -0.26627,-0.96555 -0.42229,-1.48553 -0.52928,-1.76389 -0.0497,-0.12935 -0.28432,-0.81726 -0.52134,-1.5287 -0.55759,-1.67371 -0.97316,-2.82275 -1.23334,-3.41019 -0.11458,-0.2587 -0.24501,-0.60266 -0.28985,-0.76435 -0.0793,-0.28608 -0.13993,-0.44953 -0.39236,-1.05833 -0.067,-0.16169 -0.26641,-0.6644 -0.44305,-1.11713 -0.17664,-0.45273 -0.41991,-1.04747 -0.5406,-1.32163 -0.12069,-0.27417 -0.21944,-0.53076 -0.21944,-0.5702 0,-0.0394 -0.0848,-0.26491 -0.18838,-0.50105 -0.19607,-0.44687 -0.23923,-0.55432 -0.57397,-1.42888 -0.11139,-0.29104 -0.25002,-0.62105 -0.30805,-0.73336 -0.058,-0.1123 -0.10553,-0.285 -0.10553,-0.38377 0,-0.0988 -0.0503,-0.27147 -0.11177,-0.38377 -0.14177,-0.25899 -0.62676,-1.86795 -0.84136,-2.79123 -0.20704,-0.89073 -0.2072,-2.90706 -3e-4,-3.59321 0.39239,-1.30128 0.58391,-1.75725 0.73812,-1.75725 0.13495,0 0.12256,0.50731 -0.0216,0.88663 -0.0657,0.17269 -0.20051,0.81816 -0.29967,1.43437 -0.14381,0.89369 -0.15474,1.30164 -0.054,2.01613 0.16745,1.18785 0.48468,2.63212 0.60871,2.77134 0.0548,0.0614 0.0995,0.19261 0.0995,0.29149 0,0.0989 0.13653,0.55131 0.30341,1.00541 0.30354,0.82602 0.34753,0.93871 0.66649,1.70759 0.0939,0.22637 0.23694,0.59678 0.31784,0.82315 0.0809,0.22637 0.18934,0.51741 0.24096,0.64676 0.0516,0.12935 0.16005,0.42039 0.24096,0.64676 0.0809,0.22636 0.21251,0.57032 0.29246,0.76435 0.0799,0.19403 0.26497,0.67028 0.41116,1.05833 0.14619,0.38806 0.33222,0.86431 0.4134,1.05834 0.0812,0.19402 0.29136,0.74965 0.46706,1.23472 0.17571,0.48507 0.36187,0.98778 0.41371,1.11713 0.48933,1.22108 1.52421,4.3745 1.52421,4.64447 0,0.10372 0.0433,0.23885 0.0961,0.3003 0.0529,0.0614 0.15656,0.37629 0.23041,0.69967 0.0739,0.32338 0.21775,0.95838 0.31976,1.41111 0.6725,2.98455 1.20329,3.9252 2.47512,4.38632 0.32051,0.1162 0.87379,0.36598 1.22951,0.55505 2.82456,1.50133 4.27992,1.87208 9.70139,2.4714 0.97014,0.10725 1.97555,0.23837 2.23426,0.29138 0.2587,0.053 0.78787,0.16072 1.17592,0.23935 0.93543,0.18952 1.78617,0.42071 2.99861,0.81486 0.54975,0.17871 1.23767,0.36397 1.52871,0.41169 0.29104,0.0477 0.99028,0.31456 1.55386,0.59299 2.12267,1.04869 3.28688,1.34946 5.22341,1.34946 h 1.35342 l -0.19067,-0.19066 c -0.3846,-0.3846 -0.17895,-0.56932 0.70414,-0.63248 0.88144,-0.0631 1.54703,-0.36844 2.36143,-1.08349 0.4208,-0.36947 0.79737,-0.96403 0.73141,-1.15483 -0.0201,-0.0581 -0.33891,0.15983 -0.70847,0.48437 -1.07326,0.94253 -1.91918,1.40117 -2.58435,1.40117 -0.47398,0 -0.56548,-0.0356 -0.56548,-0.2199 0,-0.16367 0.14284,-0.25685 0.55857,-0.36437 0.83852,-0.21686 1.26132,-0.45935 2.21879,-1.27253 1.33626,-1.13488 1.80634,-2.02376 1.07027,-2.02376 -0.32883,0 -0.65916,0.28774 -1.03447,0.90108 -0.47037,0.7687 -0.94034,1.1062 -1.93121,1.38688 -0.38806,0.10992 -0.86807,0.24864 -1.06669,0.30826 -0.6065,0.18207 -0.99118,0.13841 -0.99118,-0.11251 0,-0.24564 0.29184,-0.38981 1.31779,-0.65102 0.86145,-0.21933 1.72543,-0.60244 2.05336,-0.91051 0.29155,-0.2739 0.44931,-0.98062 0.33505,-1.50088 -0.094,-0.42811 -0.26195,-0.37799 -0.6488,0.19366 -0.42164,0.62306 -0.9346,1.08644 -1.28459,1.16043 -0.1666,0.0352 -0.42446,0.11329 -0.57302,0.17349 -0.45208,0.18319 -0.86159,0.12664 -2.08498,-0.28793 -1.43851,-0.48746 -1.53988,-0.67528 -0.67974,-1.2594 0.31096,-0.21117 0.86966,-0.62051 1.24155,-0.90963 l 0.67615,-0.52569 v -0.43862 c 0,-0.45549 -0.24412,-0.78364 -0.47625,-0.64018 -0.0736,0.0455 -0.30079,0.23532 -0.50492,0.42188 -0.36195,0.3308 -3.3655,1.86754 -3.65008,1.86754 -0.0787,0 -0.20711,0.0641 -0.28545,0.14245 -0.19965,0.19965 -2.29476,0.19338 -2.962,-0.009 -0.99972,-0.30301 -3.70442,-1.21651 -4.05694,-1.37021 -0.19403,-0.0846 -0.66676,-0.26719 -1.05051,-0.40576 -0.38375,-0.13857 -0.98063,-0.38135 -1.3264,-0.53951 -0.34577,-0.15816 -0.65647,-0.28756 -0.69044,-0.28756 -0.034,0 -0.28375,-0.10035 -0.55508,-0.223 -0.27132,-0.12266 -0.83727,-0.3659 -1.25767,-0.54054 -0.42039,-0.17465 -1.09877,-0.47117 -1.50751,-0.65894 -0.40873,-0.18778 -0.7657,-0.34141 -0.79325,-0.34141 -0.0275,0 -0.45106,-0.18521 -0.94112,-0.41157 -0.49007,-0.22637 -0.93295,-0.41158 -0.98418,-0.41158 -0.0512,0 -0.22398,-0.10291 -0.3839,-0.2287 -0.21843,-0.17182 -0.34089,-0.45697 -0.49236,-1.14653 -0.1109,-0.5048 -0.24926,-1.10303 -0.30749,-1.3294 -0.0582,-0.22636 -0.13769,-0.57032 -0.17657,-0.76435 -0.0389,-0.19403 -0.1165,-0.56444 -0.17248,-0.82315 -0.29895,-1.38157 -0.63506,-3.32401 -0.81391,-4.7037 -0.18972,-1.4635 -0.36276,-2.54873 -0.47814,-2.99861 -0.25038,-0.97626 -0.63222,-2.204 -0.79516,-2.55669 -0.0969,-0.20967 -0.14189,-0.47042 -0.10005,-0.57944 0.27196,-0.70873 1.07096,1.75313 1.4758,4.54724 0.23218,1.60242 0.36262,2.44342 0.5289,3.41018 0.23556,1.36957 0.26324,1.50505 1.12327,5.49914 0.14596,0.67788 0.29959,0.93692 0.61409,1.03549 0.14559,0.0456 0.53913,0.20796 0.87454,0.36074 0.3354,0.15278 0.6381,0.27778 0.67267,0.27778 0.0346,0 0.34223,0.12645 0.68369,0.281 0.34147,0.15454 0.898,0.3989 1.23675,0.54302 l 0.6159,0.26202 0.79521,-0.32157 c 0.43737,-0.17686 0.90104,-0.3658 1.0304,-0.41987 0.35768,-0.14951 1.82175,-0.5932 2.35185,-0.71273 1.29407,-0.29181 2.97616,-0.57261 3.4301,-0.57261 0.28009,0 0.50925,-0.0551 0.50925,-0.1224 0,-0.0673 -0.10144,-0.45097 -0.22541,-0.85255 -0.12398,-0.40158 -0.31359,-1.04764 -0.42135,-1.4357 -0.10776,-0.38805 -0.24445,-0.79744 -0.30375,-0.90974 -0.0593,-0.11231 -0.10782,-0.26793 -0.10782,-0.34583 0,-0.0779 -0.13548,-0.59456 -0.30106,-1.14812 -0.16559,-0.55357 -0.34552,-1.16524 -0.39985,-1.35927 -0.0543,-0.19403 -0.18784,-0.67028 -0.29667,-1.05833 -0.10884,-0.38806 -0.24641,-0.79744 -0.30571,-0.90975 -0.0593,-0.1123 -0.10783,-0.2655 -0.10783,-0.34044 0,-0.0749 -0.18395,-0.51871 -0.40879,-0.98616 -0.22484,-0.46746 -0.45781,-0.97886 -0.51773,-1.13645 -0.0875,-0.2302 -0.26725,-0.32717 -0.91412,-0.49324 -0.44286,-0.11368 -0.96394,-0.25079 -1.15797,-0.30468 -1.07713,-0.29918 -2.61053,-0.68268 -2.76342,-0.69112 -0.91014,-0.0503 -1.88614,-0.17688 -2.17547,-0.28224 -0.19402,-0.0707 -0.71442,-0.4238 -1.15643,-0.78478 -1.66422,-1.35913 -1.90228,-1.52454 -2.3913,-1.66145 -0.33158,-0.0928 -0.83848,-0.1124 -1.49522,-0.0577 l -0.99357,0.0828 -0.24493,-0.24493 c -0.13472,-0.13471 -0.24493,-0.3213 -0.24493,-0.41465 0,-0.0933 -0.0974,-0.23886 -0.21653,-0.32338 -0.27139,-0.19259 -0.52165,-0.6525 -0.43306,-0.79583 0.0368,-0.0595 -0.0429,-0.21044 -0.17714,-0.33546 -0.13419,-0.12501 -0.24207,-0.3266 -0.23975,-0.44798 0.0134,-0.69595 0.0772,-1.44539 0.12703,-1.49074 0.20017,-0.18222 0.86166,-0.43512 1.13939,-0.43561 0.18107,-3.2e-4 0.77901,-0.16515 1.32876,-0.36629 0.54974,-0.20114 1.22797,-0.41161 1.50716,-0.46771 0.2792,-0.0561 0.55903,-0.13376 0.62186,-0.17259 0.19869,-0.1228 1.32119,0.21807 1.81033,0.54974 0.50047,0.33936 0.59065,0.43595 1.23472,1.32252 0.22637,0.31159 0.6274,0.80004 0.89119,1.08544 l 0.47961,0.51891 h 1.25488 c 0.69018,0 1.25488,-0.0442 1.25488,-0.0982 0,-0.094 -0.59801,-1.38874 -1.04093,-2.2537 -0.77707,-1.5175 -1.30695,-2.33406 -2.36558,-3.64537 -0.49602,-0.61442 -1.00281,-1.27588 -1.12621,-1.46991 -0.12339,-0.19403 -0.25655,-0.37923 -0.29591,-0.41157 -0.0821,-0.0675 -0.85267,-1.3981 -1.36192,-2.35185 -0.56154,-1.0517 -0.6888,-1.59662 -0.68654,-2.93982 0.002,-1.28916 0.16764,-1.85091 0.80397,-2.72941 0.45451,-0.62749 0.59494,-0.0342 0.16409,0.69327 -0.76447,1.29079 -0.75198,2.75496 0.0395,4.63392 0.47366,1.12437 1.98641,3.34936 3.03061,4.45745 0.75468,0.80087 2.14844,3.29218 3.1388,5.61053 0.15354,0.35942 0.29436,0.51068 0.51431,0.55245 0.16659,0.0316 1.48028,0.0929 2.91932,0.13617 l 2.61644,0.0786 v -2.24581 c 0,-1.2352 0.051,-2.60399 0.11339,-3.04175 0.0624,-0.43776 0.15772,-1.12666 0.21189,-1.53089 l 0.0985,-0.73495 h -0.39556 c -0.9808,0 -2.3515,-1.05272 -2.86818,-2.20281 -0.63043,-1.40327 -0.72851,-1.91945 -0.85017,-4.47414 -0.0224,-0.47086 -0.0773,-0.89266 -0.12199,-0.93733 -0.10956,-0.10956 -0.27751,0.17017 -0.42745,0.71192 -0.0681,0.24611 -0.33247,0.65588 -0.58793,0.91134 -0.48866,0.48866 -0.77985,0.5596 -1.45536,0.35454 -0.19862,-0.0603 -0.59925,-0.17568 -0.89029,-0.25643 -0.59506,-0.16508 -1.40246,-0.57573 -1.96183,-0.99779 -0.20588,-0.15535 -0.4121,-0.28245 -0.45826,-0.28245 -0.11217,0 -1.14228,-0.83486 -1.25727,-1.01896 -0.0499,-0.0799 -0.15775,-0.21411 -0.23959,-0.29815 -0.89925,-0.92342 -1.53639,-3.7667 -1.14774,-5.12186 l 0.10938,-0.3814 h -0.44393 c -0.79552,0 -1.18594,-0.77577 -1.18594,-2.35646 0,-1.67876 0.48463,-2.46483 1.51961,-2.46483 0.64562,0 1.37505,0.67574 1.48732,1.37786 0.0553,0.34552 0.14409,0.50067 0.31179,0.54452 0.28637,0.0749 0.79581,-0.43037 0.7996,-0.79303 0.003,-0.29427 0.36567,-1.12457 0.59756,-1.36832 0.25314,-0.26609 0.73923,-0.96087 0.91657,-1.31007 0.0878,-0.17287 0.36452,-0.56227 0.61497,-0.86535 0.25044,-0.30307 0.45535,-0.59326 0.45535,-0.64488 0,-0.0516 0.2742,-0.32366 0.60933,-0.60455 l 0.60933,-0.51072 0.94877,-0.0588 0.94878,-0.0588 0.0301,-0.88195 0.0301,-0.88194 -0.40511,-0.82315 c -0.43926,-0.89256 -0.39099,-1.25881 0.0827,-0.62731 0.67459,0.89936 0.82638,1.37094 0.75877,2.35731 l -0.0628,0.91583 h 0.46792 c 0.25735,0 0.862,0.13229 1.34367,0.29398 0.48166,0.16169 0.94634,0.29399 1.03261,0.29399 0.19987,0 0.76835,-0.68125 0.85432,-1.02379 0.0712,-0.28357 -8.7e-4,-1.17675 -0.14032,-1.73964 -0.10438,-0.42135 -0.65388,-1.25056 -1.13064,-1.70618 -0.722,-0.68998 -2.1164,-1.17484 -3.3787,-1.17484 -0.60727,0 -0.71361,-0.0355 -0.88366,-0.29504 -0.25381,-0.38736 -1.28045,-1.06258 -2.07855,-1.36706 -0.96864,-0.36955 -2.97195,-0.56341 -4.51676,-0.4371 -2.2134,0.18099 -3.34404,0.68767 -3.8757,1.73685 -0.16436,0.32434 -0.29884,0.64846 -0.29884,0.72026 0,0.0718 -0.16215,0.2927 -0.36034,0.49089 -0.32746,0.32747 -1.38336,2.37056 -1.74917,3.38453 -0.0817,0.22637 -0.19076,0.51741 -0.24244,0.64676 -0.0517,0.12935 -0.18021,0.55269 -0.28562,0.94074 -0.10541,0.38806 -0.29451,1.02306 -0.42023,1.41112 l -0.22858,0.70555 0.065,-0.88194 c 0.0692,-0.93925 0.0984,-1.06698 0.5769,-2.52824 0.68031,-2.07732 2.3212,-5.12931 3.24152,-6.0291 0.33176,-0.32435 0.86245,-0.62676 1.67178,-0.95262 0.18068,-0.0728 0.96406,-0.19447 1.74084,-0.27048 1.44568,-0.14147 3.31986,-0.0231 4.24541,0.26809 0.76373,0.24029 2.04176,0.93108 2.45768,1.3284 0.23286,0.22245 0.5239,0.42181 0.64676,0.44304 l 0.22338,0.0386 0.0663,-1.29352 c 0.051,-0.9942 0.12544,-1.41358 0.32193,-1.81238 0.16624,-0.33741 0.21695,-0.56548 0.14499,-0.65218 -0.13842,-0.16679 0.0734,-0.79874 0.74626,-2.2263 1.0809,-2.2933 2.34977,-3.82097 3.74311,-4.50656 3.15858,-1.55417 7.6994,-1.39591 11.49917,0.40077 3.08733,1.45982 5.76227,4.20018 7.43878,7.62073 0.4414,0.90056 0.72624,1.56256 1.26494,2.93981 0.20015,0.51169 0.48943,1.44715 0.83638,2.70463 0.0714,0.2587 0.1706,0.60266 0.22049,0.76435 0.0499,0.16169 0.18295,0.63794 0.29569,1.05834 0.83161,3.10121 1.83495,4.96141 3.73527,6.92526 0.72054,0.74462 1.47212,1.12747 2.00958,1.02364 0.42853,-0.0828 1.13221,-0.43537 1.13221,-0.56731 0,-0.05 0.0739,-0.0908 0.16415,-0.0908 0.0903,0 0.37659,-0.25136 0.63624,-0.55857 0.50265,-0.59473 0.68006,-0.61279 0.55795,-0.0568 -0.0811,0.36901 -0.50775,0.85142 -1.45933,1.64984 -1.37101,1.15034 -2.54231,1.1502 -4.29337,-5.2e-4 -0.47958,-0.31516 -0.66256,-0.38961 -0.59963,-0.24398 0.59883,1.38581 0.97636,3.64897 0.64306,3.85496 -0.069,0.0427 -0.11759,-0.0824 -0.11759,-0.30279 0,-0.20651 -0.0571,-0.59328 -0.1269,-0.85949 -0.0698,-0.26621 -0.18207,-0.69568 -0.24949,-0.95438 -0.33394,-1.28135 -0.94691,-2.58665 -1.49768,-3.18929 -1.72942,-1.89225 -2.40356,-3.20328 -3.77184,-7.33525 -1.0084,-3.04519 -1.61696,-4.22681 -2.90895,-5.64818 -0.50034,-0.55045 -0.64039,-0.937 -0.33947,-0.937 0.51144,0 2.08114,2.3217 2.6634,3.93935 0.0466,0.12935 0.13925,0.36747 0.20598,0.52916 0.0667,0.16169 0.39883,1.1595 0.73799,2.21735 0.33917,1.05785 0.70801,2.11618 0.81967,2.35185 0.11165,0.23567 0.30003,0.64016 0.41862,0.89886 0.59219,1.29183 2.32365,3.56829 3.41712,4.49267 0.89251,0.7545 1.88547,1.30065 2.52453,1.38854 0.72603,0.0999 0.83904,0.0199 0.32143,-0.22747 -1.00652,-0.48097 -2.56206,-2.30795 -3.4638,-4.06824 -0.77184,-1.50671 -1.1115,-2.42754 -1.97286,-5.34846 -1.22497,-4.15391 -1.96906,-5.99482 -3.18921,-7.89024 -0.37063,-0.57574 -0.70719,-1.07326 -0.74791,-1.1056 -0.0407,-0.0323 -0.35613,-0.3888 -0.70092,-0.79215 -2.12807,-2.48953 -5.60036,-4.3775 -8.91918,-4.84959 -1.10671,-0.15743 -3.40075,-0.15369 -4.37757,0.007 -0.96003,0.15806 -2.22372,0.59278 -2.93756,1.01055 -1.19543,0.69962 -2.39419,2.17268 -3.23668,3.9773 -0.18116,0.38806 -0.37636,0.79745 -0.43378,0.90975 -0.3223,0.63045 0.005,0.43847 0.79558,-0.46723 0.49499,-0.56676 1.51363,-1.63909 2.26366,-2.38294 1.0881,-1.07914 1.48251,-1.39414 1.95165,-1.55868 0.7685,-0.26955 1.48719,-0.26519 1.82837,0.0111 0.41004,0.33203 0.19581,0.47733 -0.69148,0.46898 -1.23938,-0.0117 -1.951,0.46511 -3.53481,2.36825 l -0.62678,0.75316 0.0805,0.83076 c 0.0443,0.45692 0.1295,0.88103 0.18943,0.94248 0.0599,0.0614 0.10897,0.1818 0.10897,0.26746 0,0.0857 0.21518,0.49647 0.47818,0.9129 0.52905,0.8377 1.69977,1.98404 3.11932,3.05437 2.58727,1.9508 3.76186,3.18082 4.22777,4.42728 0.10609,0.28385 0.25412,0.64322 0.32895,0.79859 0.0812,0.16858 0.13598,0.88788 0.13586,1.78368 -1e-4,0.82565 0.008,1.49227 0.0188,1.48139 0.13776,-0.14343 1.21614,-2.50755 1.32318,-2.90081 0.0792,-0.29104 0.19337,-0.69168 0.25366,-0.8903 0.17608,-0.58001 0.12759,-1.368 -0.13301,-2.16184 -0.30559,-0.93086 -0.58011,-1.35928 -1.62345,-2.53351 -1.32359,-1.48964 -1.68593,-2.42015 -1.63642,-4.20237 0.0428,-1.54004 0.24588,-1.54211 0.33588,-0.003 0.0574,0.98091 0.124,1.26523 0.45688,1.94964 0.21435,0.4407 0.45038,0.86403 0.52452,0.94075 0.29398,0.30417 1.58016,2.16625 1.80205,2.60892 0.37307,0.74429 0.61836,1.73981 0.61836,2.50964 0,1.26382 -0.51624,3.02642 -1.3118,4.47885 l -0.34973,0.63849 0.27065,0.52624 c 0.21507,0.41815 0.26938,0.7097 0.26442,1.41938 -0.007,1.01023 -0.20982,1.69513 -0.83879,2.83342 -1.24769,2.25799 -1.48376,2.86141 -1.74661,4.46435 -0.19797,1.20728 -0.20931,1.97207 -0.0459,3.09772 0.24456,1.68507 0.50875,2.76832 0.85156,3.49163 0.37985,0.80149 1.7981,3.17471 2.16423,3.62153 0.4249,0.51853 0.62256,0.59458 0.39737,0.15288 -0.0692,-0.13565 -0.1728,-0.34237 -0.23032,-0.45939 -0.64147,-1.30499 -0.6156,-5.17259 0.0509,-7.61122 0.10545,-0.38582 0.2431,-0.91235 0.30588,-1.17007 0.15419,-0.63293 1.16325,-2.6941 1.65271,-3.37593 1.19355,-1.66263 2.95401,-3.01307 4.44508,-3.4098 0.81561,-0.21701 1.94209,-0.42253 2.02847,-0.37008 0.0485,0.0295 0.0882,0.1724 0.0882,0.31766 v 0.26411 l -0.85255,0.14369 c -2.33862,0.39413 -4.22056,1.61114 -5.48577,3.54755 -0.23243,0.35571 -0.45214,0.67321 -0.48827,0.70555 -0.0826,0.0739 -0.51247,1.0055 -1.05818,2.29306 -0.16818,0.3968 -0.42772,1.26325 -0.56358,1.88148 -0.0711,0.32338 -0.18363,0.83629 -0.25015,1.1398 -0.1602,0.73095 -0.15444,2.88762 0.01,3.59161 0.3906,1.67641 0.98264,3.14792 1.35141,3.35892 0.24897,0.14246 0.21131,0.67032 -0.0478,0.67032 -0.36109,0 -1.24174,-0.63866 -1.79903,-1.30468 -1.91178,-2.28478 -3.04529,-5.77748 -3.04529,-9.38353 0,-1.60289 0.18473,-2.4007 0.89094,-3.84785 0.35077,-0.71878 0.63812,-1.32732 0.63856,-1.35231 4.4e-4,-0.025 -0.47403,0.41282 -1.05438,0.97289 -1.59537,1.53965 -4.68998,3.53092 -6.3429,4.08142 -0.21985,0.0732 -0.67437,0.13313 -1.01006,0.13313 -0.53987,0 -0.62609,0.0346 -0.74676,0.29943 -0.075,0.16468 -0.29486,0.38958 -0.48851,0.49977 l -0.35207,0.20034 -7.4e-4,1.21205 c -4.1e-4,0.66662 0.0537,1.46037 0.1202,1.76388 0.0665,0.30352 0.178,0.81643 0.24773,1.13981 0.27725,1.28573 1.08046,2.49096 1.97879,2.96921 0.74641,0.39737 1.97027,0.37472 2.69868,-0.0499 0.29673,-0.17299 0.68619,-0.47726 0.86548,-0.67615 0.32277,-0.35807 1.02634,-1.68559 1.02634,-1.93654 0,-0.0716 0.0529,-0.13018 0.11759,-0.13018 0.22807,0 0.11343,0.77271 -0.21808,1.4699 -0.40357,0.84874 -1.31638,1.74038 -2.12629,2.07696 l -0.57353,0.23835 -0.0671,0.54744 c -0.36558,2.98153 -0.46138,5.52283 -0.2445,6.48587 l 0.11918,0.52916 1.173,0.083 c 2.84368,0.20132 6.60774,0.5209 7.37007,0.62574 l 0.5645,0.0776 v -0.32077 c 0,-0.17642 0.0492,-0.51212 0.10936,-0.74599 0.0601,-0.23387 0.17072,-0.92792 0.24574,-1.54234 0.075,-0.61442 0.18732,-1.46109 0.24959,-1.88148 0.56763,-3.83269 0.9003,-7.29982 0.98125,-10.22671 0.0233,-0.84332 0.0857,-1.3646 0.16642,-1.39152 0.25012,-0.0834 0.11465,4.23453 -0.22063,7.03211 -0.0581,0.48507 -0.15952,1.33174 -0.22531,1.88149 -0.11498,0.96074 -0.40761,3.11475 -0.60708,4.46851 -0.0524,0.35572 -0.14916,1.09237 -0.21498,1.63699 -0.0658,0.54462 -0.18293,1.1429 -0.26023,1.32951 l -0.14054,0.33929 -0.95313,-0.0689 c -0.52423,-0.0379 -1.42939,-0.12014 -2.01148,-0.18272 -2.98181,-0.32057 -7.86355,-0.59277 -11.92337,-0.66483 -3.94955,-0.0701 -3.84909,-0.0465 -4.69696,-1.1054 -1.16514,-1.45519 -1.67093,-1.96619 -2.18558,-2.2081 -0.75229,-0.35362 -1.44632,-0.32567 -2.47835,0.0998 -0.73272,0.30209 -1.26899,0.47162 -1.49188,0.47162 -0.13882,0 -0.21809,0.0343 -0.17614,0.0763 0.0419,0.0419 0.57968,-0.045 1.19498,-0.19321 0.8733,-0.21036 1.22847,-0.24632 1.61903,-0.16393 0.42683,0.09 0.50031,0.14864 0.50031,0.399 0,0.30468 -0.0423,0.3148 -0.68597,0.16397 -0.18325,-0.0429 -0.52721,-0.0198 -0.76435,0.0514 -0.23714,0.0712 -0.90741,0.26913 -1.48949,0.43987 -1.55995,0.45757 -1.73863,0.5337 -1.59342,0.6789 0.0879,0.088 0.30672,0.0673 0.74149,-0.0701 0.94705,-0.29927 1.24209,-0.35056 2.33491,-0.40591 0.83857,-0.0425 1.04663,-0.0173 1.21057,0.14668 0.37106,0.37106 0.16194,0.46434 -1.05706,0.47148 -1.07036,0.006 -1.49752,0.0858 -2.43024,0.45259 -0.33765,0.13277 -0.42875,0.36685 -0.17639,0.45325 0.0808,0.0277 0.25282,-0.0179 0.38217,-0.10135 0.37447,-0.2415 1.80815,-0.42297 2.6681,-0.33771 0.86882,0.0861 1.23198,0.26981 1.11845,0.56567 -0.0766,0.19969 -0.44557,0.18422 -1.18766,-0.0498 -0.85559,-0.26983 -2.19171,0.0383 -2.28586,0.52721 l -0.0428,0.22239 1.10236,-0.0809 c 1.42522,-0.10462 1.68633,0.005 3.05529,1.28599 0.5853,0.54755 1.23076,1.07016 1.43437,1.16134 0.38441,0.17215 1.28796,0.32717 1.89889,0.32578 0.29785,-6.8e-4 1.35304,0.24508 2.93982,0.6847 0.82566,0.22876 2.7366,0.73091 3.1162,0.81887 2.8062,0.65028 3.48973,0.78294 5.82084,1.12973 0.64675,0.0962 1.49342,0.22636 1.88148,0.28921 2.15022,0.34826 3.16422,0.46321 5.11708,0.58007 2.06565,0.12361 4.77826,-0.0164 5.00482,-0.25837 0.15126,-0.16154 1.16739,-2.64594 1.55213,-3.79491 0.37175,-1.1102 0.68568,-2.60584 1.02433,-4.88009 0.17473,-1.17344 0.31201,-1.89975 0.53341,-2.82222 0.0543,-0.22637 0.18573,-0.83491 0.292,-1.35232 0.38122,-1.85613 0.44107,-2.11996 0.53357,-2.35185 0.0516,-0.12935 0.1227,-0.42039 0.15802,-0.64676 0.055,-0.3523 0.2979,-1.28466 0.79667,-3.05741 0.57769,-2.05326 0.85057,-4.91261 0.52781,-5.53063 -0.33403,-0.63959 -0.8159,-1.47167 -1.20002,-2.07215 -0.22281,-0.34829 -0.4051,-0.65361 -0.4051,-0.67848 0,-0.0249 -0.18587,-0.37405 -0.41304,-0.77595 -0.38537,-0.6818 -0.7647,-1.68245 -1.11346,-2.93723 -0.55699,-2.00399 -1.22461,-3.01409 -2.87967,-4.35692 -0.69896,-0.56709 -0.89904,-0.88201 -0.69195,-1.08909 0.18745,-0.18745 2.23558,1.65181 2.87614,2.58284 0.39464,0.57359 0.79002,1.62803 1.11768,2.98076 0.25732,1.06233 0.98085,2.55 2.08224,4.28133 1.75989,2.76646 2.43224,4.84226 2.43224,7.50922 0,1.25719 -0.0397,1.59494 -0.43165,3.67288 -0.15132,0.80221 -1.01342,3.60803 -1.33684,4.35092 -0.26494,0.60858 -0.46577,1.58069 -0.46577,2.25458 v 0.74199 l 1.26412,-1.2635 c 1.07401,-1.07348 1.33707,-1.41377 1.74917,-2.26264 0.5699,-1.17392 0.8894,-2.07776 1.16374,-3.29218 0.10958,-0.48507 0.24388,-1.06716 0.29844,-1.29352 0.29166,-1.21008 0.36407,-3.88893 0.17403,-6.4382 -0.0676,-0.90751 -0.0599,-1.32291 0.0248,-1.32291 0.13133,0 0.17169,0.27334 0.3819,2.58703 0.19454,2.14115 -0.0251,4.64794 -0.59233,6.76158 -0.0694,0.2587 -0.17742,0.68203 -0.23997,0.94074 -0.0625,0.2587 -0.17071,0.62912 -0.24037,0.82315 -0.0697,0.19402 -0.16471,0.45861 -0.21122,0.58796 -0.0465,0.12935 -0.28784,0.65852 -0.53628,1.17592 -0.38034,0.79212 -0.64377,1.12878 -1.66745,2.13096 l -1.21575,1.19022 v 0.89705 c 0,0.49338 -0.0483,0.89705 -0.10739,0.89705 -0.0591,0 -0.2266,-0.35719 -0.37229,-0.79375 -0.19779,-0.59269 -0.2652,-1.06898 -0.26612,-1.88031 l -0.001,-1.08657 -0.44571,0.6162 c -0.299,0.41337 -0.47133,0.80004 -0.52357,1.17476 -0.0498,0.35692 -0.13608,0.55856 -0.23911,0.55856 -0.2212,0 -0.20582,-0.53283 0.0359,-1.24213 0.16416,-0.48177 1.09091,-2.08272 1.32312,-2.28565 0.24498,-0.2141 1.302,-3.19091 1.302,-3.66674 0,-0.10996 0.0468,-0.22887 0.10403,-0.26423 0.0572,-0.0354 0.12941,-0.21046 0.16041,-0.38912 0.031,-0.17865 0.15532,-0.74815 0.27624,-1.26555 0.16666,-0.71308 0.21858,-1.38185 0.21453,-2.76343 -0.006,-1.87934 -0.11581,-2.54346 -0.60849,-3.66346 l -0.22482,-0.51108 -0.087,0.86599 c -0.0819,0.81548 -0.3039,2.02764 -0.54129,2.95577 -0.0579,0.22637 -0.15925,0.67616 -0.22522,0.99954 -0.066,0.32338 -0.17438,0.7864 -0.24093,1.02893 -0.21144,0.77064 -0.33685,1.28878 -0.64749,2.67524 -0.16664,0.74377 -0.35311,1.53752 -0.41436,1.76388 -0.10097,0.37311 -0.28154,1.25787 -0.58799,2.88102 -0.13055,0.6915 -0.20358,1.13724 -0.35643,2.17547 -0.0619,0.42039 -0.19561,1.16122 -0.29717,1.64629 -0.10156,0.48507 -0.2291,1.09361 -0.28344,1.35232 -0.1568,0.74658 -0.43688,1.67423 -0.71007,2.35185 -0.43549,1.08015 -0.56515,3.51611 -0.24097,4.52731 0.1486,0.46354 0.84956,1.71801 1.05131,1.88149 0.0399,0.0323 0.48904,0.57627 0.99808,1.20875 0.64283,0.79872 0.98403,1.13308 1.11713,1.09473 0.5806,-0.16733 1.22263,-0.30911 1.9555,-0.43183 0.45273,-0.0758 1.03482,-0.17822 1.29352,-0.22758 2.97795,-0.56813 6.85339,-1.14311 9.58814,-1.42256 0.67671,-0.0692 1.65371,-0.17248 2.17112,-0.22962 2.16339,-0.2389 2.79553,-0.25899 3.62398,-0.11516 1.66281,0.28868 2.47949,0.77628 3.25926,1.94595 0.21559,0.32338 0.43336,0.61643 0.48393,0.65123 0.0506,0.0348 0.45095,0.40631 0.88971,0.82558 0.43876,0.41928 1.14171,1.05193 1.5621,1.40591 0.42039,0.35398 0.79081,0.67218 0.82315,0.70711 0.0534,0.0577 0.89339,0.73521 1.45387,1.17267 0.1243,0.097 0.39042,0.31178 0.59138,0.47726 1.8055,1.4867 8.45363,6.05875 10.71354,7.36791 2.992951,1.73381 5.483011,2.68395 9.172231,3.49989 1.51941,0.33605 1.99529,0.4274 2.718,0.5218 0.39541,0.0516 0.78698,0.13596 0.87015,0.18736 0.0832,0.0514 0.33557,0.11001 0.56088,0.13022 l 0.40965,0.0368 1.13215,-1.14231 c 0.66379,-0.66976 1.27332,-1.40987 1.47341,-1.78907 0.59911,-1.13538 2.25181,-3.53679 3.56091,-5.17408 1.41029,-1.76385 2.12389,-2.35185 2.85422,-2.35185 0.48198,0 0.99966,0.32733 1.12067,0.70862 0.0434,0.13676 0.17911,0.23286 0.33033,0.23392 0.58558,0.004 0.87716,0.53052 0.63916,1.15396 -0.18642,0.48834 -0.17169,1.86551 0.022,2.05923 0.0685,0.0686 0.12464,0.37552 0.12464,0.68214 0,0.30663 0.0529,0.59021 0.11759,0.63018 0.0647,0.04 0.1176,0.25846 0.1176,0.48553 0,0.46447 -0.4072,1.1228 -1.31347,2.12354 -0.31241,0.34497 -0.56802,0.72191 -0.56802,0.83764 0,0.11573 -0.0421,0.2607 -0.0936,0.32214 -0.0515,0.0614 -0.16339,0.32338 -0.24872,0.58208 -0.24866,0.75396 -0.70385,1.80508 -1.27139,2.93585 -0.39782,0.79263 -1.15712,1.98697 -1.47104,2.3139 -0.69706,0.72593 -1.65071,2.51147 -2.15778,4.04007 -0.46846,1.41222 -0.31064,1.32356 -2.81257,1.58006 -1.15526,0.11844 -2.18463,0.0536 -3.64537,-0.22959 -1.31837,-0.2556 -3.10917,-0.46641 -3.93935,-0.46373 -1.69775,0.005 -4.61829,0.51617 -7.349541,1.28515 -6.52107,1.83598 -11.05979,2.26393 -16.11019,1.51899 -0.79839,-0.11776 -2.52056,-0.50818 -4.93888,-1.11966 -3.34251,-0.84515 -3.91496,-0.86984 -9.17222,-0.39567 -7.27072,0.65578 -8.12343,0.70729 -12.99399,0.78483 -4.7333,0.0753 -6.14956,-0.032 -10.34814,-0.78461 -2.5478,-0.45668 -3.13815,-0.52798 -4.35093,-0.52546 l -1.35231,0.003 -1.26065,0.49462 c -1.64032,0.64358 -2.84052,0.89106 -3.97222,0.81905 -0.48507,-0.0309 -0.97455,-0.0949 -1.08773,-0.14232 -0.15419,-0.0646 -0.20579,-0.03 -0.20579,0.13805 0,0.12333 0.044,0.27452 0.0977,0.33596 0.0537,0.0614 0.19498,0.45567 0.31386,0.87606 0.11888,0.4204 0.26012,0.81463 0.31386,0.87607 0.0537,0.0614 0.0977,0.22284 0.0977,0.35865 0,0.13582 0.0422,0.29722 0.0939,0.35866 0.0516,0.0614 0.18842,0.40276 0.30397,0.75847 0.11555,0.35572 0.25852,0.76583 0.31771,0.91135 0.10914,0.26837 0.15268,0.37887 0.5212,1.32291 0.11362,0.29105 0.30516,0.75349 0.42565,1.02766 0.1205,0.27417 0.21909,0.52616 0.21909,0.55999 0,0.0961 0.73334,1.64103 2.1802,4.59313 1.57761,3.21888 1.982,3.7962 4.56692,6.51983 0.46068,0.48541 1.03245,1.11252 1.27061,1.39358 0.23815,0.28106 0.48796,0.47706 0.55512,0.43555 0.20054,-0.12394 0.27951,0.47665 0.12581,0.95684 -0.24078,0.75228 -0.96323,1.58115 -2.18345,2.50509 -0.64061,0.48507 -1.19121,0.91128 -1.22355,0.94713 -0.0889,0.0986 -2.81399,2.24894 -3.35138,2.64458 -0.25871,0.19047 -0.49683,0.37586 -0.52917,0.41199 -0.0323,0.0361 -0.26941,0.22163 -0.52683,0.41224 -0.53395,0.39536 -0.76771,0.577 -1.28324,0.99707 -0.20097,0.16375 -0.56641,0.44623 -0.81209,0.62772 -0.24569,0.18149 -0.75837,0.72524 -1.13929,1.20834 -0.8227,1.04339 -1.16068,1.32817 -1.67542,1.4117 -0.28224,0.0458 -0.46975,-0.005 -0.70738,-0.19202 z m 1.42498,-1.0328 c 0.23493,-0.24352 0.50651,-0.57425 0.60353,-0.73496 0.28844,-0.47781 1.04721,-1.14977 2.23426,-1.97862 0.61442,-0.42902 1.1965,-0.84295 1.29352,-0.91984 0.097,-0.0769 0.91722,-0.72676 1.82268,-1.44415 0.90546,-0.71739 1.72567,-1.37022 1.82269,-1.45072 0.097,-0.0805 0.68803,-0.532 1.31338,-1.00332 1.26618,-0.95432 2.15111,-1.79272 2.39978,-2.27358 l 0.16475,-0.31859 -0.68611,-0.91974 c -0.37735,-0.50586 -1.37281,-1.60766 -2.21212,-2.44845 -1.71859,-1.72162 -2.08722,-2.27349 -3.65243,-5.46805 -0.93715,-1.91271 -1.67818,-3.49874 -1.67818,-3.59184 0,-0.0262 -0.15875,-0.39425 -0.35278,-0.81789 -0.19402,-0.42363 -0.35277,-0.8006 -0.35277,-0.83772 0,-0.0371 -0.0848,-0.26068 -0.18838,-0.49682 -0.4523,-1.03086 -0.75614,-1.88423 -1.93229,-5.42703 -1.27421,-3.83815 -1.65495,-4.8445 -2.49147,-6.58519 -1.0547,-2.1947 -2.26913,-3.95525 -3.70436,-5.37016 -0.32564,-0.32103 -0.47664,-0.55878 -0.43079,-0.67827 0.0949,-0.24744 0.18739,-0.23265 0.56294,0.09 0.37672,0.32371 1.57049,0.48819 4.95055,0.6821 4.6559,0.26711 6.09799,0.26393 7.8787,-0.0173 1.71486,-0.27088 2.3451,-0.38181 3.2338,-0.56916 0.29104,-0.0614 0.97896,-0.20123 1.5287,-0.31082 0.54975,-0.10959 1.23766,-0.24996 1.52871,-0.31194 0.29104,-0.062 0.70702,-0.14268 0.92439,-0.17934 0.28077,-0.0474 0.34888,-0.096 0.23519,-0.16806 -0.088,-0.0558 -0.2721,-0.10222 -0.40906,-0.10321 -0.37069,-0.003 -2.22711,-0.6369 -3.25777,-1.11297 -0.49716,-0.22964 -1.0605,-0.41753 -1.25186,-0.41753 -0.19136,0 -0.6277,-0.11098 -0.96964,-0.24662 -2.18733,-0.86764 -4.77892,-1.39556 -9.20598,-1.87528 -1.32313,-0.14338 -2.96877,-0.41104 -3.58657,-0.58336 -1.91266,-0.53347 -3.58417,-1.22472 -4.52731,-1.87228 -0.47714,-0.32759 -0.58832,-0.31004 -1.06676,0.16839 -0.42675,0.42676 -1.24327,0.87616 -2.46102,1.35451 -1.0648,0.41827 -1.70988,0.79666 -2.27422,1.334 -1.46876,1.39849 -1.72172,2.62408 -0.86484,4.19008 0.41941,0.76649 1.31373,2.00544 1.49888,2.07649 0.0874,0.0335 0.21806,0.25473 0.29037,0.49155 0.1434,0.46965 0.20413,0.62399 0.57374,1.45823 0.13579,0.3065 0.2469,0.58746 0.2469,0.62434 0,0.0369 0.22303,0.52693 0.49561,1.08901 0.87952,1.81358 2.16459,3.66303 3.69246,5.31409 0.26932,0.29104 0.64091,0.71437 0.82575,0.94074 0.18484,0.22636 0.45938,0.54386 0.61009,0.70555 0.63698,0.68341 3.24894,4.57532 4.38674,6.53639 0.15329,0.2642 1.38995,2.38086 2.74815,4.7037 l 2.46944,4.22334 0.0393,1.89552 c 0.0382,1.84557 -0.11457,3.4921 -0.4679,5.04244 -0.13588,0.59624 -0.61718,2.1569 -0.79782,2.58704 -0.41965,0.99924 -0.98201,2.03988 -1.5885,2.93946 -1.01625,1.50737 -1.21039,2.04278 -0.86569,2.38748 0.23534,0.23534 0.45429,0.16209 0.90166,-0.30164 z m 58.51788,-31.01596 c 2.08624,-0.23417 2.35444,-0.28143 4.99769,-0.8808 0.22636,-0.0513 0.72907,-0.18057 1.11713,-0.2872 2.62269,-0.72064 2.60409,-0.71589 4.292131,-1.09628 3.27043,-0.73696 5.25649,-0.80311 8.29027,-0.27614 2.12444,0.36902 2.41876,0.39453 3.76297,0.32616 0.77611,-0.0395 1.67539,-0.14228 1.99839,-0.22844 l 0.58729,-0.15666 0.30155,-0.87444 c 0.51006,-1.47905 1.3543,-3.08563 2.32298,-4.42057 0.32119,-0.44263 0.70276,-1.01645 0.84794,-1.27516 0.38655,-0.6888 1.17379,-2.25966 1.17379,-2.34216 0,-0.0391 0.10065,-0.29537 0.22367,-0.56953 0.12301,-0.27417 0.36875,-0.88994 0.54607,-1.36838 0.23343,-0.62981 0.48463,-1.04261 0.91019,-1.4957 0.52145,-0.55519 1.0247,-1.24286 1.0247,-1.40022 0,-0.19723 -0.37898,0.0206 -0.82315,0.47322 -0.55816,0.56872 -0.67673,0.62352 -0.778,0.35959 -0.0378,-0.0985 0.18434,-0.46926 0.53042,-0.88512 0.75961,-0.91277 0.89742,-1.16473 0.72907,-1.33307 -0.0926,-0.0926 -0.23608,-0.0238 -0.51626,0.24781 -0.4741,0.45952 -0.55348,0.46709 -0.55217,0.0527 6.5e-4,-0.20738 0.14828,-0.47873 0.41157,-0.75649 0.43128,-0.455 0.57539,-0.91454 0.31562,-1.00648 -0.0846,-0.0299 -0.36025,0.16268 -0.61265,0.42801 -0.51267,0.53893 -0.70352,0.60224 -0.70352,0.2334 0,-0.23075 0.6477,-0.98191 1.06115,-1.23066 0.0986,-0.0593 0.27547,-0.259 0.39313,-0.44377 0.51467,-0.8083 -0.5497,-0.62087 -1.40585,0.24756 -0.36916,0.37447 -0.56638,0.49942 -0.65244,0.41336 -0.0861,-0.0861 -0.0802,-0.20713 0.0193,-0.40054 0.20566,-0.39981 0.83857,-1.04156 1.0272,-1.04156 0.25054,0 0.13298,-0.63597 -0.12667,-0.68524 -0.11736,-0.0223 -0.5074,0.10337 -0.86677,0.27919 -0.81175,0.39715 -1.56953,1.12726 -2.559,2.46555 -0.19061,0.25781 -0.37829,0.4952 -0.41707,0.52753 -0.23418,0.19529 -2.35257,3.32611 -2.35257,3.47692 0,0.0342 -0.18521,0.35169 -0.41158,0.70555 -0.22636,0.35387 -0.41157,0.67661 -0.41157,0.7172 0,0.1194 -0.842,1.12395 -1.29102,1.54025 -0.22774,0.21114 -0.9697,0.73273 -1.6488,1.1591 -0.67909,0.42636 -1.29764,0.85463 -1.37455,0.95171 -0.19994,0.25237 -4.82061,0.96451 -7.53308,1.161 -0.59826,0.0433 -1.08779,0.11166 -1.08785,0.15182 -7e-5,0.0402 -0.85997,0.0888 -1.910881,0.10798 -1.05092,0.0192 -2.25472,0.0843 -2.67512,0.14466 -0.42039,0.0603 -4.36692,0.11076 -8.77007,0.11204 l -8.00572,0.002 -1.1077,-0.58893 c -0.60924,-0.32392 -1.45167,-0.75695 -1.87206,-0.96231 l -0.76435,-0.37337 -3.05741,-0.0835 c -1.68157,-0.0459 -3.16324,-0.11109 -3.29259,-0.14484 -0.12935,-0.0337 -0.55269,-0.12445 -0.94074,-0.20156 -1.08972,-0.21651 -2.28683,-0.48312 -2.99861,-0.66782 -1.63168,-0.4234 -2.8933,-0.76675 -3.3375,-0.9083 -0.26634,-0.0849 -0.80176,-0.24504 -1.18982,-0.3559 -0.38805,-0.11086 -1.04951,-0.30344 -1.46991,-0.42796 -0.42039,-0.12452 -0.97601,-0.28501 -1.23472,-0.35665 -0.86904,-0.24063 -1.10359,-0.35999 -1.13985,-0.58003 l -0.0361,-0.21887 -0.35278,0.16722 c -0.35256,0.16711 -1.85549,0.6194 -2.41065,0.72546 -0.16169,0.0309 -0.39981,0.0993 -0.52917,0.15192 -0.49953,0.2034 -1.52577,0.35692 -2.39022,0.35757 -0.84333,6.4e-4 -1.531,0.0877 -2.66626,0.33736 -2.22617,0.48967 -3.48264,0.76023 -3.88056,0.83562 -0.2587,0.049 -1.02599,0.20223 -1.70509,0.34048 -0.6791,0.13825 -1.52576,0.30646 -1.88148,0.3738 -0.35572,0.0673 -0.88489,0.17041 -1.17593,0.22906 -1.2675,0.25542 -2.38441,0.36221 -3.85068,0.36818 -1.87038,0.008 -6.3524,-0.21739 -7.46086,-0.37453 -0.43285,-0.0614 -0.9798,-0.11157 -1.21545,-0.11157 h -0.42844 l 0.5799,0.73495 c 0.84917,1.0762 1.32553,1.86903 2.14382,3.56804 0.8413,1.74679 0.82292,1.70404 1.23376,2.87015 0.17089,0.48507 0.35144,0.96132 0.40122,1.05834 0.0498,0.097 0.16351,0.42646 0.25272,0.7321 0.20564,0.70456 0.44418,0.7966 2.06462,0.7966 1.38422,0 2.29735,-0.20792 4.10393,-0.93446 0.12935,-0.052 0.37974,-0.15252 0.55643,-0.22333 0.56644,-0.227 1.76111,-0.28632 2.67888,-0.13302 0.48424,0.0809 1.14501,0.1903 1.46839,0.24313 0.32338,0.0528 0.87901,0.1479 1.23472,0.21125 1.01002,0.17987 2.92174,0.48962 3.76297,0.60969 2.02137,0.28853 5.53988,0.3805 9.14884,0.23915 4.50505,-0.17644 6.54949,-0.32242 11.90024,-0.84969 1.94843,-0.192 4.93143,-0.25729 5.58564,-0.12225 0.32338,0.0667 1.09068,0.23448 1.7051,0.37274 0.61442,0.13825 1.24942,0.27791 1.41111,0.31035 0.16169,0.0324 0.39981,0.1018 0.52916,0.15414 0.21541,0.0872 2.25106,0.57583 3.2338,0.77629 1.91604,0.39083 6.49843,0.50558 8.99583,0.22526 z m 8.17269,-9.02022 1.352311,-0.15816 -0.679281,-0.44215 c -0.38475,-0.25045 -1.04757,-0.53876 -1.5287,-0.66495 -1.90737,-0.50028 -2.28607,-0.60361 -2.8485,-0.77722 -0.32338,-0.0998 -0.6938,-0.22639 -0.82315,-0.28126 -0.12935,-0.0549 -0.63206,-0.24054 -1.11713,-0.4126 -0.94721,-0.33599 -1.11991,-0.40322 -1.78166,-0.69357 -0.23614,-0.10361 -0.46161,-0.18838 -0.50105,-0.18838 -0.0394,0 -0.29602,-0.0987 -0.57019,-0.21944 -0.27417,-0.12069 -0.8689,-0.36396 -1.32164,-0.5406 -0.45273,-0.17664 -0.92898,-0.36711 -1.05833,-0.42326 -0.3119,-0.1354 -1.67232,-0.58714 -2.11667,-0.70285 -4.99225,-1.30003 -5.61958,-1.75138 -9.11698,-6.55939 l -0.71171,-0.97842 -0.34288,0.0753 c -0.18858,0.0414 -0.54359,0.17047 -0.78889,0.28678 -0.24531,0.11631 -0.65768,0.30395 -0.91638,0.41699 -1.06672,0.46606 -2.78503,1.38037 -5.40926,2.87825 -0.19403,0.11075 -0.67028,0.3774 -1.05834,0.59256 -0.38805,0.21515 -0.89076,0.49511 -1.11713,0.62212 -1.75454,0.98442 -5.04913,2.43529 -5.53,2.43529 -0.10606,0 -0.22974,0.0369 -0.27485,0.082 -0.11553,0.11553 -1.60336,0.49913 -1.95038,0.50285 -0.38931,0.004 -0.16537,0.22402 0.36192,0.35529 0.2181,0.0543 0.8728,0.23904 1.45489,0.41055 0.58208,0.17151 1.21708,0.35671 1.41111,0.41157 0.19403,0.0549 0.82903,0.24061 1.41111,0.41277 0.58208,0.17216 1.24354,0.35652 1.46991,0.40969 0.35636,0.0837 1.01907,0.24825 2.82222,0.70075 2.142,0.53753 3.67557,0.71252 6.26054,0.71437 1.8541,10e-4 2.49988,0.0425 2.91168,0.18569 0.4868,0.16924 1.38941,0.61405 1.5287,0.75334 0.0323,0.0323 0.16463,0.11648 0.29399,0.18697 0.12935,0.0705 0.47879,0.26356 0.77654,0.42904 0.29775,0.16547 0.6417,0.3227 0.76435,0.34938 0.12265,0.0267 4.08591,0.0351 8.80725,0.0187 6.2735,-0.0218 8.94829,-0.0724 9.93658,-0.188 z m 5.526851,-0.50205 c 1.00247,-0.10129 2.08727,-0.2332 2.41065,-0.29313 0.32338,-0.0599 1.1136,-0.18985 1.75606,-0.28868 0.64245,-0.0988 1.19808,-0.22353 1.23472,-0.2771 0.0366,-0.0536 0.3217,-0.27097 0.63345,-0.48314 0.31176,-0.21216 0.53716,-0.41542 0.5009,-0.45168 -0.0363,-0.0363 -0.29134,-0.10376 -0.56683,-0.15 -0.75908,-0.1274 -2.81403,-0.58274 -3.14673,-0.69726 -0.16169,-0.0556 -0.84961,-0.24573 -1.5287,-0.42239 -0.6791,-0.17665 -1.285,-0.36665 -1.34644,-0.42221 -0.0614,-0.0556 -0.19261,-0.10102 -0.29149,-0.10102 -0.19775,0 -1.5457,-0.48296 -2.32954,-0.83466 -0.27417,-0.12302 -0.5304,-0.22367 -0.56939,-0.22367 -0.30657,0 -3.724751,-1.82244 -5.293381,-2.82222 -0.82303,-0.52457 -4.88118,-3.29695 -5.49937,-3.75696 -0.39698,-0.29541 -1.11866,-0.82317 -1.60373,-1.17279 -0.48507,-0.34962 -0.9084,-0.66699 -0.94074,-0.70526 -0.0323,-0.0383 -0.27046,-0.22522 -0.52916,-0.41547 -0.25871,-0.19024 -0.49683,-0.37514 -0.52917,-0.4109 -0.0323,-0.0358 -0.48213,-0.4085 -0.99954,-0.82832 -1.09372,-0.88744 -1.51546,-1.2496 -2.40715,-2.06712 -0.35764,-0.32789 -0.87515,-0.79941 -1.15002,-1.04782 -0.27487,-0.24841 -0.49977,-0.51509 -0.49977,-0.59261 0,-0.24096 -0.93891,-1.2214 -1.46481,-1.52959 -1.32309,-0.77539 -3.16191,-0.88886 -6.59028,-0.40669 -0.45273,0.0637 -1.22003,0.16466 -1.7051,0.22443 -2.87511,0.35422 -5.64597,0.75791 -7.64351,1.11359 -0.54975,0.0979 -1.21121,0.20965 -1.46991,0.24838 -0.2587,0.0387 -0.65558,0.11741 -0.88195,0.17485 -0.22636,0.0575 -0.73791,0.16685 -1.13678,0.24311 l -0.72521,0.13865 0.53677,0.83741 c 1.42069,2.21642 1.701,5.05785 0.77308,7.83644 -0.38801,1.16189 -0.95806,2.20251 -1.82872,3.33832 l -0.71111,0.92767 0.40151,-0.0753 c 1.88252,-0.35317 5.21205,-1.80902 8.68769,-3.79875 3.18349,-1.82248 4.25082,-2.38921 6.2912,-3.34051 0.88292,-0.41166 1.69982,-0.69142 1.84955,-0.63343 0.0822,0.0319 0.27442,0.24086 0.42707,0.46445 0.15265,0.22359 0.40394,0.55349 0.55842,0.73311 0.15448,0.17962 0.28094,0.3625 0.28102,0.40638 8e-5,0.0439 0.0674,0.14972 0.14955,0.23519 0.0822,0.0855 0.35823,0.44643 0.61348,0.80215 0.25524,0.35572 0.49228,0.67322 0.52675,0.70555 0.0345,0.0323 0.37265,0.41738 0.75149,0.85564 1.04836,1.21277 2.31412,2.03715 4.01489,2.61489 0.32338,0.10985 0.6938,0.24101 0.82315,0.29147 0.12935,0.0505 0.44685,0.14929 0.70555,0.21962 1.37047,0.37255 1.90407,0.52458 2.11667,0.6031 0.12935,0.0478 0.52623,0.18155 0.88195,0.29729 0.35571,0.11574 0.85842,0.30109 1.11712,0.41189 0.25871,0.1108 0.84079,0.34686 1.29352,0.52456 0.45273,0.17771 0.9819,0.39245 1.17593,0.47721 0.19403,0.0848 0.67028,0.26772 1.05833,0.40657 0.38806,0.13885 0.81139,0.2997 0.94074,0.35743 0.49077,0.21903 2.73404,0.91076 3.41019,1.05156 2.22823,0.46399 2.60618,0.62325 3.562041,1.50093 l 0.62223,0.57134 0.73009,-0.0902 c 0.40154,-0.0496 1.55029,-0.17304 2.55277,-0.27432 z m -50.911641,-3.93322 c 0.54647,-0.12595 1.20525,-0.28771 1.46396,-0.35945 0.2587,-0.0717 0.66562,-0.17991 0.90426,-0.24036 0.61508,-0.15582 1.7581,-0.5928 1.95254,-0.74646 1.35208,-1.06857 2.46608,-2.61118 3.06593,-4.24554 0.50462,-1.37489 0.65942,-4.1164 0.30257,-5.35852 -0.4288,-1.49254 -1.29562,-2.8882 -2.88157,-4.6396 -1.78189,-1.96776 -2.20784,-2.76383 -2.31085,-4.31878 -0.0375,-0.56592 -0.11324,-1.02894 -0.16835,-1.02894 -0.0551,0 -0.10038,0.0661 -0.10062,0.14699 -2.4e-4,0.0808 -0.1096,0.32604 -0.24301,0.54487 -0.17407,0.28553 -0.27851,0.36192 -0.36989,0.27054 -0.0866,-0.0866 -0.75152,-0.10621 -2.07945,-0.0613 -1.8017,0.0609 -3.59503,-0.0363 -5.65629,-0.30683 -1.64561,-0.21596 -5.92539,-0.87653 -6.55398,-1.01159 -0.28847,-0.062 -0.39729,-0.0376 -0.45042,0.10085 -0.0719,0.18734 0.21245,2.96829 0.41109,4.02063 0.31884,1.68909 1.3094,5.27078 1.51843,5.49034 0.0425,0.0446 0.8974,0.15949 1.89988,0.25532 1.95866,0.18723 2.18051,0.23587 2.28198,0.50029 0.0948,0.24707 -0.17981,0.31296 -0.95522,0.22917 -1.53357,-0.16571 -4.74502,-0.20601 -4.91888,-0.0617 -0.13206,0.1096 -0.20906,0.11006 -0.33921,0.002 -0.1248,-0.10357 -0.28456,-0.10747 -0.61736,-0.0151 -0.24695,0.0686 -0.61175,0.12497 -0.81067,0.12533 -0.19893,3.6e-4 -0.99268,0.13713 -1.76389,0.30393 -2.09559,0.45323 -4.94651,1.46062 -4.13358,1.46062 0.10819,0 0.47596,0.12796 0.81727,0.28437 0.68923,0.31583 4.44703,1.81255 4.91111,1.95607 0.16257,0.0503 0.69245,0.23388 1.17752,0.408 1.76271,0.63274 2.99935,0.84977 3.72645,0.65398 0.2562,-0.069 0.75287,-0.32587 1.10371,-0.57085 0.35085,-0.24499 0.77019,-0.50755 0.93188,-0.58348 0.16169,-0.0759 0.63794,-0.29854 1.05833,-0.49469 0.4204,-0.19615 0.99337,-0.54258 1.27327,-0.76984 0.609,-0.49446 0.98846,-0.52256 1.37818,-0.10204 0.21533,0.23235 0.28837,0.4423 0.28837,0.82899 0,0.82395 -0.38557,1.35604 -1.61931,2.23466 l -0.50218,0.35763 0.38459,0.14544 c 0.21152,0.08 0.54853,0.22685 0.7489,0.32637 0.20037,0.0995 0.49142,0.15205 0.64676,0.11675 0.56289,-0.1279 1.57869,-0.56151 1.69355,-0.72293 0.0647,-0.0909 0.19697,-0.2823 0.29399,-0.42536 0.4335,-0.63925 0.62113,-0.82085 0.84811,-0.82085 0.33995,0 0.55486,0.33209 0.55926,0.86416 l 0.004,0.45259 0.41829,-0.2468 c 0.52327,-0.30874 0.6187,-0.30785 0.95584,0.009 0.20913,0.19647 0.2713,0.3803 0.26843,0.79375 -0.002,0.29594 -0.0814,0.64079 -0.17639,0.76633 -0.095,0.12554 -0.17265,0.41045 -0.17265,0.63312 0,0.73026 -0.26288,1.33797 -0.79449,1.83669 -0.60529,0.56782 -0.88778,0.97035 -0.79096,1.12701 0.087,0.14081 -0.0474,0.15456 1.12103,-0.11475 z m -12.09286,-11.60266 0.52833,-0.0724 -0.20983,-0.4343 c -0.24578,-0.50871 -0.814,-2.47664 -0.814,-2.81915 0,-0.12982 -0.0478,-0.35758 -0.10622,-0.50614 -0.0584,-0.14857 -0.19331,-0.79928 -0.29976,-1.44604 -0.10646,-0.64676 -0.24387,-1.47016 -0.30537,-1.82977 -0.0615,-0.35961 -0.1118,-1.11055 -0.1118,-1.66875 0,-0.55821 -0.052,-1.04708 -0.11564,-1.08639 -0.10666,-0.0659 -0.94726,-0.26934 -2.22632,-0.53877 -0.2856,-0.0602 -0.53933,-0.0893 -0.56383,-0.0648 -0.0245,0.0245 0.0872,0.32881 0.24821,0.67625 0.31114,0.67136 0.89369,2.40428 0.89369,2.6585 0,0.0835 0.0464,0.24373 0.10316,0.35604 0.10239,0.20268 0.15675,0.37519 0.54607,1.73289 0.11127,0.38806 0.29654,0.9966 0.41171,1.35232 0.11517,0.35571 0.30149,0.96426 0.41404,1.35231 0.32749,1.12909 0.66944,2.22698 0.72336,2.32246 0.0605,0.10705 0.2001,0.10954 0.8842,0.0158 z m 14.67394,-9.74656 c 0,-0.0323 -0.0265,-0.0588 -0.0588,-0.0588 -0.0323,0 -0.0588,0.0265 -0.0588,0.0588 0,0.0323 0.0265,0.0588 0.0588,0.0588 0.0323,0 0.0588,-0.0265 0.0588,-0.0588 z m -32.60499,-8.59651 c -0.0391,-0.0391 -0.1405,-0.0433 -0.22539,-0.009 -0.0938,0.0375 -0.0659,0.0654 0.071,0.071 0.12396,0.005 0.19341,-0.0227 0.15434,-0.0618 z m 11.53692,-11.99633 c 0.193,-0.23414 0.38345,-0.59919 0.42323,-0.81122 0.0398,-0.21203 0.17676,-0.51829 0.30441,-0.68057 0.27775,-0.3531 0.28777,-0.52181 0.0583,-0.98179 -0.0956,-0.19161 -0.18819,-0.47708 -0.20578,-0.63439 l -0.032,-0.28602 0.52917,-0.065 c 0.29104,-0.0358 0.68432,-0.14205 0.87396,-0.23621 0.30549,-0.15169 0.3488,-0.24019 0.37997,-0.77648 0.0311,-0.53449 0.001,-0.62765 -0.2566,-0.79646 -0.50885,-0.33342 -0.30023,-1.47928 0.26933,-1.47928 0.17299,0 0.16189,0.27995 -0.0291,0.7342 -0.14488,0.34457 0.37583,0.45322 0.8451,0.17634 0.41596,-0.24542 0.73957,-0.20809 0.73957,0.0853 0,0.23187 0.10517,0.22777 0.37292,-0.0145 0.2759,-0.24968 0.27215,-0.59224 -0.0116,-1.05755 -0.12416,-0.20363 -0.33978,-0.79284 -0.47916,-1.30937 l -0.2534,-0.93913 -0.45729,-0.0731 c -0.43865,-0.0701 -0.82536,-0.36344 -1.069,-0.81079 l -0.11439,-0.21004 0.44738,0.19677 c 0.82989,0.365 1.03006,0.34739 1.61569,-0.14213 0.29524,-0.24679 0.53513,-0.50365 0.5331,-0.5708 -0.005,-0.15445 -0.41276,-0.44366 -0.90765,-0.64325 -0.41835,-0.16872 -0.83319,-0.0648 -1.45866,0.36531 -0.35163,0.24181 -0.56981,0.27576 -0.56981,0.0887 0,-0.18826 0.25299,-0.40628 0.78841,-0.67943 0.41269,-0.21054 0.5708,-0.22989 1.13214,-0.13853 0.35885,0.0584 0.78737,0.19459 0.95226,0.30263 0.36902,0.24179 0.37921,0.2203 0.52417,-1.10532 0.0639,-0.58457 0.0645,-1.1318 0.002,-1.35154 -0.0582,-0.20309 -0.1059,-0.62261 -0.1059,-0.93228 0,-0.35136 -0.0553,-0.5776 -0.14699,-0.60178 -0.0808,-0.0213 -0.49095,-0.13099 -0.91134,-0.24371 -0.88538,-0.2374 -1.81112,-0.38477 -3.06441,-0.48783 -0.75988,-0.0625 -0.95846,-0.0376 -1.36764,0.17111 -0.65043,0.33182 -1.43432,1.13965 -1.85292,1.9095 -0.1906,0.35054 -0.57337,0.92954 -0.85059,1.28668 -0.36222,0.46662 -0.55932,0.87331 -0.70046,1.44526 -0.23068,0.93477 -0.63908,1.37438 -1.27681,1.37438 -0.21611,0 -0.48263,0.0344 -0.59227,0.0765 -0.17367,0.0666 -0.18935,0.0174 -0.12177,-0.3826 0.10222,-0.60501 -0.18246,-1.17698 -0.71132,-1.42918 -0.51779,-0.24691 -0.94329,-0.10635 -1.30563,0.43132 -0.22302,0.33094 -0.26822,0.55459 -0.26822,1.3272 0,1.00286 0.18919,1.55529 0.5745,1.67759 0.12336,0.0392 0.26946,0.0631 0.32467,0.0532 0.0552,-0.01 0.23649,-0.0117 0.40286,-0.004 l 0.30249,0.0139 -0.005,1.67569 c -0.007,2.5327 0.31045,3.32894 1.92192,4.82092 0.83442,0.77254 1.70687,1.29557 3.00457,1.80123 1.0341,0.40294 1.37867,0.37633 1.80369,-0.13929 z m -8.0978,-9.28334 c -0.17152,-0.45112 -0.13847,-1.14077 0.0688,-1.43675 0.10094,-0.14412 0.33895,-0.3424 0.52891,-0.44063 l 0.34537,-0.1786 0.27612,0.18092 c 0.32002,0.20969 0.54756,0.65229 0.54756,1.0651 0,0.38673 -0.12772,0.35676 -0.41315,-0.0969 -0.29275,-0.46533 -0.51575,-0.51702 -0.85739,-0.19873 -0.23052,0.21476 -0.25445,0.32042 -0.18728,0.82675 0.085,0.64104 -0.1058,0.8133 -0.30898,0.27889 z m 10.11587,6.83027 c 0,-0.0958 -0.13475,-0.20797 -0.29946,-0.24931 -0.35456,-0.089 -0.43811,-0.032 -0.33748,0.23024 0.0935,0.24377 0.63694,0.26004 0.63694,0.0191 z m 2.82222,-1.20973 c 0.84652,-0.34246 3.57325,-2.02556 4.58403,-2.82953 0.35686,-0.28385 1.05895,-0.94576 1.56019,-1.4709 0.50124,-0.52515 0.91134,-0.88977 0.91134,-0.81026 0,0.0795 0.0794,0.14457 0.17639,0.14457 0.097,0 0.17639,-0.0952 0.17639,-0.21167 0,-0.11641 0.0459,-0.26194 0.10196,-0.32338 0.44311,-0.48548 0.62972,-2.3737 0.29799,-3.0152 l -0.188,-0.36356 -0.39933,0.44885 c -0.21963,0.24687 -0.47408,0.55863 -0.56545,0.69279 l -0.16611,0.24393 -0.0837,-0.2096 c -0.0521,-0.13034 0.0485,-0.50827 0.26602,-0.99953 0.19236,-0.43447 0.3847,-0.9487 0.42742,-1.14272 l 0.0777,-0.35278 -0.17824,0.23518 c -1.13163,1.49317 -2.05838,2.29238 -3.40964,2.94046 -1.19907,0.57508 -2.38108,0.87216 -3.39988,0.85452 -0.5556,-0.01 -0.72573,0.0326 -0.85831,0.21318 -0.26145,0.35606 -0.0787,1.59453 0.38049,2.57783 0.50859,1.08921 0.45612,1.36832 -0.34342,1.8269 -0.33136,0.19005 -0.71305,0.34605 -0.84819,0.34666 -0.4312,0.002 -0.58443,0.689 -0.33505,1.50227 0.0655,0.21351 0.88261,0.0794 1.81548,-0.29801 z m -2.44004,0.24767 c -0.0808,-0.0326 -0.21314,-0.0326 -0.29398,0 -0.0808,0.0326 -0.0147,0.0593 0.14699,0.0593 0.16169,0 0.22783,-0.0267 0.14699,-0.0593 z m 4.34143,-7.28547 c 2.25616,-0.57643 4.24276,-2.15868 5.30385,-4.2243 0.15877,-0.30909 0.16303,-0.44457 0.0314,-0.99954 -0.20334,-0.85718 -0.36992,-1.216 -0.95313,-2.05309 -0.48263,-0.69273 -1.43918,-1.65601 -2.56899,-2.58704 -1.43952,-1.18625 -2.17242,-1.83501 -2.73676,-2.42256 -0.86192,-0.89735 -1.32644,-1.44188 -1.32863,-1.55744 -0.001,-0.0547 -0.0973,-0.2399 -0.21402,-0.41157 -0.30958,-0.45549 -0.57264,-1.15531 -0.73855,-1.96473 l -0.1459,-0.71186 -0.85863,0.91814 c -1.1379,1.21676 -1.6909,2.33005 -1.68834,3.39893 9.9e-4,0.41361 0.0407,0.81222 0.0882,0.88579 0.0475,0.0736 0.43329,0.18754 0.85728,0.25324 0.42398,0.0657 1.02586,0.2393 1.3375,0.38579 0.60221,0.28308 1.83097,1.42859 1.83097,1.70693 0,0.0914 0.0425,0.1661 0.0944,0.1661 0.12677,0 0.45043,0.94974 0.6276,1.84161 l 0.14391,0.72448 -0.27739,0.86302 -0.2774,0.86302 0.0304,1.76389 c 0.0181,1.0496 -0.0244,1.97817 -0.10485,2.29305 -0.0744,0.29105 -0.16422,0.64823 -0.19963,0.79375 l -0.0644,0.26459 h 0.53338 c 0.29335,0 0.86838,-0.0856 1.27783,-0.1902 z m -22.99363,46.49228 c -0.12488,-1.06637 -0.19364,-1.53991 -0.3116,-2.14606 -0.12877,-0.66164 -0.56472,-2.72443 -0.70829,-3.35139 -0.0895,-0.39098 -0.55536,-2.00571 -0.79721,-2.76343 -0.29461,-0.92299 -1.24207,-3.22175 -1.84682,-4.4808 -2.23128,-4.64537 -2.21271,-4.60464 -2.99596,-6.5729 -0.22959,-0.57696 -0.5571,-1.67781 -0.82214,-2.76343 -0.60273,-2.46879 -0.41683,-5.59924 0.47136,-7.9375 0.44658,-1.17566 1.22562,-2.55692 2.51707,-4.46282 1.97596,-2.91609 3.46559,-5.59649 4.47978,-8.06079 0.4154,-1.00934 0.67603,-1.57417 0.75965,-1.6463 0.0605,-0.0522 0.29437,-0.58952 0.6037,-1.38724 0.0576,-0.14857 0.10555,-0.41315 0.10654,-0.58797 9.9e-4,-0.17481 0.0531,-0.39722 0.11579,-0.49423 0.15844,-0.24517 0.15002,0.97163 -0.011,1.5875 -0.0676,0.2587 -0.15122,0.5858 -0.18575,0.72688 l -0.0628,0.25651 1.15869,0.0482 c 1.40032,0.0582 1.80755,0.16424 2.97892,0.77552 l 0.90419,0.47185 0.40168,-0.24417 c 0.22093,-0.1343 0.47083,-0.34279 0.55534,-0.46331 0.0845,-0.12053 0.23577,-0.21915 0.33613,-0.21915 0.31114,0 0.0785,0.60617 -0.39498,1.02894 -0.52775,0.47128 -1.05817,0.50089 -1.76209,0.0984 -1.10366,-0.63109 -1.78371,-0.80702 -3.24391,-0.83916 l -1.38341,-0.0305 -0.29228,0.639 c -0.16076,0.35144 -0.29228,0.67142 -0.29228,0.71105 0,0.15468 -2.06256,4.24764 -2.43136,4.82481 -0.21498,0.33644 -0.39087,0.63928 -0.39087,0.67298 0,0.0769 -1.36984,2.22505 -2.38658,3.74262 -0.42257,0.63072 -0.98987,1.60968 -1.26068,2.17547 -0.2708,0.56578 -0.53117,1.10807 -0.57859,1.20509 -0.0474,0.097 -0.17791,0.5468 -0.28997,0.99953 -0.11207,0.45274 -0.2531,1.0145 -0.31341,1.24837 -0.27393,1.06223 -0.10312,3.57666 0.37453,5.51321 0.2997,1.21507 1.24623,3.68004 2.09969,5.46805 0.82727,1.73313 1.89393,3.9958 1.99566,4.23334 0.0554,0.12935 0.21317,0.48879 0.35059,0.79875 0.13742,0.30996 0.33282,0.78621 0.43423,1.05833 0.1014,0.27212 0.23054,0.6006 0.28697,0.72996 0.13501,0.3095 0.58679,1.66907 0.70334,2.11666 0.0505,0.19403 0.19524,0.74965 0.32157,1.23472 0.12634,0.48507 0.29378,1.19945 0.37208,1.5875 0.0783,0.38806 0.18897,0.89077 0.24593,1.11713 0.35868,1.42557 0.59278,3.99815 0.36383,3.99815 -0.0567,0 -0.13556,-0.27781 -0.17532,-0.61736 z m 1.68947,-48.23542 c 0,-0.23018 0.0529,-0.41851 0.11759,-0.41851 0.0647,0 0.11759,0.15562 0.11759,0.34583 0,0.19021 -0.0529,0.37854 -0.11759,0.41852 -0.07,0.0433 -0.11759,-0.0968 -0.11759,-0.34584 z m 0.23518,-0.83009 c 0,-0.0323 0.0265,-0.0588 0.0588,-0.0588 0.0323,0 0.0588,0.0265 0.0588,0.0588 0,0.0323 -0.0265,0.0588 -0.0588,0.0588 -0.0323,0 -0.0588,-0.0265 -0.0588,-0.0588 z m 3.12629,-3.1162 c 0.16798,-0.6198 0.98983,-2.07753 1.41415,-2.50833 0.54731,-0.55565 1.57438,-1.11074 1.57438,-0.85089 0,0.0949 -0.0778,0.21608 -0.17292,0.2693 -0.53277,0.29815 -1.52515,1.43092 -2.02594,2.31255 -0.0775,0.13651 -0.30486,0.43341 -0.50516,0.65977 l -0.36418,0.41158 z"
       id="path25" /></g></svg>
