<?xml version="1.0" encoding="UTF-8" standalone="no"?>
<!-- Created with Inkscape (http://www.inkscape.org/) -->

<svg
   width="60.312595mm"
   height="54.911121mm"
   viewBox="0 0 60.312602 54.911121"
   version="1.1"
   id="svg1"
   xml:space="preserve"
   xmlns="http://www.w3.org/2000/svg"
   xmlns:svg="http://www.w3.org/2000/svg"><defs
     id="defs1" /><g
     id="layer1"
     transform="translate(-32.343165,-2114.352)"><path
       style="fill:#ff2a2a"
       d="m 61.300867,2168.9182 c -0.442652,-0.2613 -1.752339,-1.4885 -2.910417,-2.7271 -3.891178,-4.1619 -8.492425,-9.1124 -9.95684,-10.7125 -0.799077,-0.8731 -3.467099,-3.7898 -5.928937,-6.4816 -2.461838,-2.6918 -4.694218,-5.1325 -4.960846,-5.424 -1.282089,-1.4013 -2.975805,-3.8671 -3.67729,-5.3536 -1.15478,-2.4471 -1.519841,-4.1411 -1.523334,-7.0688 -0.01105,-9.2608 7.33526,-16.7853 16.401026,-16.7988 1.091407,0 2.520157,0.1162 3.175,0.2618 3.278515,0.7291 6.723342,2.727 9.066989,5.2584 l 1.444461,1.5602 1.898061,-1.9109 c 2.191523,-2.2062 4.040001,-3.4045 6.722516,-4.3578 1.609777,-0.5721 2.370303,-0.6776 4.945057,-0.6857 4.864155,-0.015 8.065255,1.305 11.515895,4.7499 3.432,3.4263 5.1625,7.4759 5.14343,12.0362 -0.022,5.255 -1.89626,9.1194 -7.12135,14.6825 -0.95302,1.0147 -2.57141,2.7411 -3.59642,3.8364 -1.02502,1.0954 -2.5906,2.7655 -3.47909,3.7114 -0.888485,0.9459 -1.999064,2.1365 -2.467954,2.6459 -0.468889,0.5093 -2.356113,2.5321 -4.193831,4.4951 -1.837718,1.9631 -4.174742,4.4659 -5.193388,5.5619 -1.018646,1.0959 -2.115316,2.2005 -2.437045,2.4546 -0.896971,0.7085 -1.950783,0.8064 -2.865693,0.2665 z"
       id="path76-0" /></g></svg>
