<?xml version="1.0" encoding="UTF-8" standalone="no"?>
<!-- Created with Inkscape (http://www.inkscape.org/) -->

<svg
   width="152.24615mm"
   height="76.338966mm"
   viewBox="0 0 152.24615 76.338966"
   version="1.1"
   id="svg1"
   xmlns="http://www.w3.org/2000/svg"
   xmlns:svg="http://www.w3.org/2000/svg">
  <defs
     id="defs1" />
  <g
     id="layer1"
     transform="translate(-11.205876,-68.087047)">
    <path
       style="font-weight:500;font-size:53.7574px;font-family:Montserrat;display:inline;fill:#4d4d4d;stroke-width:1.42241"
       d="M 65.804755,112.706 V 68.08704 h 6.9514 V 112.706 Z m 27.80556,0.50992 q -4.309879,0 -8.063639,-1.65728 -3.75376,-1.65724 -6.1172,-4.7806 l 4.0318,-4.3344 q 2.01592,2.54968 4.5184,3.95196 2.572,1.33856 5.63064,1.33856 8.341644,0 8.341644,-9.05128 V 73.63252 H 84.364956 V 68.08704 H 108.83384 V 98.3642 q 0,7.45772 -3.89276,11.15472 -3.82328,3.697 -11.330765,3.697 z"
       id="text4-5"
       aria-label="IJ" />
    <path
       style="font-weight:500;font-size:10.3346px;font-family:Montserrat;display:inline;fill:#4d4d4d;stroke-width:1.31298"
       d="m 11.205875,144.33548 v -7.91796 h 1.23356 v 7.91796 z m 5.79776,0 v -7.91796 h 1.01156 l 5.71144,6.50404 h -0.53044 v -6.50404 h 1.2336 v 7.91796 h -1.01156 l -5.71144,-6.50404 h 0.53044 v 6.50404 z m 15.88844,0.0904 q -0.98684,0 -1.83804,-0.3052 -0.8388,-0.3052 -1.4556,-0.84836 -0.6168,-0.55424 -0.9622,-1.28948 -0.3456,-0.73524 -0.3456,-1.60624 0,-0.87096 0.3456,-1.6062 0.3452,-0.73524 0.9622,-1.2782 0.6168,-0.55424 1.4556,-0.85964 0.83884,-0.3056 1.83804,-0.3056 0.98688,0 1.81336,0.3056 0.83884,0.294 1.4556,0.84836 0.62916,0.54292 0.9622,1.27816 0.3456,0.73524 0.3456,1.61752 0,0.88228 -0.3456,1.61752 -0.3332,0.73524 -0.9622,1.28952 -0.61676,0.54296 -1.4556,0.84836 -0.82648,0.294 -1.81336,0.294 z m 0,-1.00672 q 0.71548,0 1.31992,-0.2264 0.6168,-0.2264 1.06088,-0.63344 0.4564,-0.41852 0.70312,-0.97276 0.2592,-0.55424 0.2592,-1.21032 0,-0.65604 -0.2592,-1.21032 -0.2468,-0.55424 -0.70312,-0.96144 -0.44408,-0.41852 -1.06088,-0.64476 -0.60444,-0.226 -1.31992,-0.226 -0.7278,0 -1.3446,0.226 -0.60444,0.2264 -1.06088,0.64476 -0.4564,0.4072 -0.71548,0.96144 -0.2468,0.55428 -0.2468,1.21032 0,0.65608 0.2468,1.21032 0.2592,0.55424 0.71548,0.97276 0.45644,0.40724 1.06088,0.63344 0.6168,0.2264 1.3446,0.2264 z m 10.658081,0.91624 -3.799401,-7.91796 h 1.33224 l 3.49104,7.30712 h -0.764839 l 3.51568,-7.30712 h 1.23356 l -3.78704,7.91796 z m 6.50092,0 3.91044,-7.91796 h 1.221239 l 3.922761,7.91796 h -1.29528 l -3.491,-7.28452 h 0.493439 l -3.491,7.28452 z m 1.66532,-1.97948 0.3332,-0.90492 h 4.86028 l 0.3576,0.90492 z m 10.64576,1.97948 v -7.91796 h 1.01152 l 5.71144,6.50404 h -0.53044 v -6.50404 h 1.23356 v 7.91796 h -1.01152 l -5.71144,-6.50404 h 0.53044 v 6.50404 z m 11.99032,0 v -7.91796 h 3.63904 q 1.381599,0 2.430119,0.49772 1.06088,0.49768 1.64068,1.39128 0.59212,0.8936 0.59212,2.06996 0,1.1764 -0.59212,2.07 -0.5798,0.8936 -1.64068,1.39128 -1.04852,0.49772 -2.430119,0.49772 z m 1.23356,-0.98408 h 2.33148 q 1.0732,0 1.85032,-0.3732 0.78948,-0.3732 1.22128,-1.04064 0.43172,-0.67872 0.43172,-1.561 0,-0.89356 -0.43172,-1.56096 -0.4318,-0.66736 -1.22128,-1.04064 -0.77712,-0.3732 -1.85032,-0.3732 h -2.33148 z m 14.82756,1.07456 q -0.98688,0 -1.83804,-0.3052 -0.83884,-0.3052 -1.45564,-0.84836 -0.61676,-0.55424 -0.96216,-1.28948 -0.3456,-0.73524 -0.3456,-1.60624 0,-0.87096 0.3456,-1.6062 0.3452,-0.73524 0.96216,-1.2782 0.6168,-0.55424 1.45564,-0.85964 0.83884,-0.3056 1.83804,-0.3056 0.98684,0 1.81332,0.3056 0.83884,0.294 1.45564,0.84836 0.62912,0.54292 0.9622,1.27816 0.3452,0.73524 0.3452,1.61752 0,0.88228 -0.3452,1.61752 -0.3332,0.73524 -0.9622,1.28952 -0.6168,0.54296 -1.45564,0.84836 -0.82648,0.294 -1.81332,0.294 z m 0,-1.00672 q 0.71544,0 1.31992,-0.2264 0.61676,-0.2264 1.06084,-0.63344 0.45644,-0.41852 0.70316,-0.97276 0.2592,-0.55424 0.2592,-1.21032 0,-0.65604 -0.2592,-1.21032 -0.2468,-0.55424 -0.70316,-0.96144 -0.44408,-0.41852 -1.06084,-0.64476 -0.60448,-0.226 -1.31992,-0.226 -0.72784,0 -1.3446,0.226 -0.60448,0.2264 -1.06088,0.64476 -0.45644,0.4072 -0.71548,0.96144 -0.246801,0.55428 -0.246801,1.21032 0,0.65608 0.246801,1.21032 0.259199,0.55424 0.71548,0.97276 0.4564,0.40724 1.06088,0.63344 0.61676,0.2264 1.3446,0.2264 z m 14.839844,1.00672 q -0.7648,0 -1.43096,-0.294 -0.66612,-0.294 -1.08552,-0.84836 l 0.71548,-0.7692 q 0.3576,0.45248 0.8018,0.70132 0.45644,0.2376 0.9992,0.2376 1.48028,0 1.48028,-1.60624 v -4.44536 h -3.12092 v -0.98408 h 4.34216 v 5.37288 q 0,1.32344 -0.6908,1.97952 -0.67848,0.65604 -2.01072,0.65604 z m 10.76912,0 q -1.70232,0 -2.67688,-0.8936 -0.97452,-0.8936 -0.97452,-2.61292 v -4.50192 h 1.2336 v 4.45668 q 0,1.32344 0.62912,1.93424 0.64144,0.6108 1.801,0.6108 1.17188,0 1.801,-0.6108 0.64148,-0.6108 0.64148,-1.93424 v -4.45668 h 1.19656 v 4.50192 q 0,1.71932 -0.97452,2.61292 -0.9622,0.8936 -2.67684,0.8936 z m 8.15388,-0.0904 v -7.91796 h 1.01156 l 5.71144,6.50404 H 130.369 v -6.50404 h 1.2336 v 7.91796 h -1.01156 l -5.71144,-6.50404 h 0.53044 v 6.50404 z m 13.705,0 v -6.93388 h -2.96056 v -0.98408 h 7.1424 v 0.98408 h -2.9606 v 6.93388 z m 11.27364,0.0904 q -0.98688,0 -1.83804,-0.3052 -0.83884,-0.3052 -1.4556,-0.84836 -0.6168,-0.55424 -0.9622,-1.28948 -0.3452,-0.73524 -0.3452,-1.60624 0,-0.87096 0.3452,-1.6062 0.3456,-0.73524 0.9622,-1.2782 0.61676,-0.55424 1.4556,-0.85964 0.83884,-0.3056 1.83804,-0.3056 0.98684,0 1.81336,0.3056 0.8388,0.294 1.4556,0.84836 0.62912,0.54292 0.9622,1.27816 0.3456,0.73524 0.3456,1.61752 0,0.88228 -0.3456,1.61752 -0.3332,0.73524 -0.9622,1.28952 -0.6168,0.54296 -1.4556,0.84836 -0.82652,0.294 -1.81336,0.294 z m 0,-1.00672 q 0.71548,0 1.31992,-0.2264 0.6168,-0.2264 1.06088,-0.63344 0.45644,-0.41852 0.70312,-0.97276 0.2592,-0.55424 0.2592,-1.21032 0,-0.65604 -0.2592,-1.21032 -0.2468,-0.55424 -0.70312,-0.96144 -0.44408,-0.41852 -1.06088,-0.64476 -0.60444,-0.226 -1.31992,-0.226 -0.7278,0 -1.3446,0.226 -0.60444,0.2264 -1.06088,0.64476 -0.4564,0.4072 -0.71544,0.96144 -0.2468,0.55428 -0.2468,1.21032 0,0.65608 0.2468,1.21032 0.2592,0.55424 0.71544,0.97276 0.45644,0.40724 1.06088,0.63344 0.6168,0.2264 1.3446,0.2264 z m 10.95412,1.00672 q -0.98688,0 -1.88736,-0.2716 -0.90052,-0.2828 -1.4186,-0.72392 l 0.4564,-0.88228 q 0.49344,0.396 1.25824,0.65604 0.76484,0.26 1.59132,0.26 0.75248,0 1.22124,-0.1584 0.46876,-0.1584 0.6908,-0.42988 0.222,-0.2828 0.222,-0.6334 0,-0.4072 -0.296,-0.65608 -0.2836,-0.2488 -0.75248,-0.396 -0.45644,-0.1584 -1.01152,-0.2716 -0.55512,-0.1132 -1.12256,-0.26 -0.55512,-0.1584 -1.02388,-0.396 -0.45644,-0.2376 -0.74012,-0.63344 -0.2836,-0.4072 -0.2836,-1.04068 0,-0.6108 0.3452,-1.1198 0.3576,-0.52032 1.08556,-0.82572 0.74016,-0.3168 1.87504,-0.3168 0.75248,0 1.49264,0.1808 0.74012,0.1808 1.28288,0.52032 l -0.40708,0.90492 q -0.55508,-0.3392 -1.17188,-0.4864 -0.6168,-0.1584 -1.19656,-0.1584 -0.7278,0 -1.1966,0.1696 -0.46872,0.1696 -0.69076,0.45244 -0.2096,0.2828 -0.2096,0.63344 0,0.41852 0.2836,0.6674 0.296,0.2488 0.75248,0.396 0.46876,0.1472 1.02388,0.2716 0.55508,0.1132 1.1102,0.26 0.56744,0.1472 1.02388,0.3844 0.46876,0.2376 0.75248,0.6334 0.2836,0.396 0.2836,1.01804 0,0.59948 -0.3576,1.1198 -0.3576,0.50904 -1.1102,0.82576 -0.74016,0.3052 -1.87504,0.3052 z"
       id="text5-6"
       aria-label="INOVANDO JUNTOS" />
  </g>
</svg>
