<?xml version="1.0" encoding="UTF-8" standalone="no"?>
<!-- Created with Inkscape (http://www.inkscape.org/) -->

<svg
   width="115.0306mm"
   height="94.92289mm"
   viewBox="0 0 115.03061 94.922889"
   version="1.1"
   id="svg1"
   xml:space="preserve"
   xmlns="http://www.w3.org/2000/svg"
   xmlns:svg="http://www.w3.org/2000/svg"><defs
     id="defs1" /><g
     id="layer1"
     transform="translate(582.30475,-1935.8407)"><path
       style="fill:#666666;stroke-width:0.421583"
       d="m -575.86193,2030.5905 c -0.7196,-0.2181 -1.15179,-0.7687 -1.31762,-1.6788 -0.20943,-1.1493 -0.0976,-1.0829 -1.91264,-1.1367 -1.75971,-0.052 -1.99496,-0.1289 -2.64265,-0.8602 -0.80987,-0.9145 -0.75646,-2.5133 0.15937,-4.7712 0.28299,-0.6976 1.01603,-2.0468 1.11211,-2.0468 0.0241,0 0.0102,0.062 -0.031,0.1368 -0.0468,0.086 -0.0287,0.1047 0.048,0.051 0.0676,-0.047 0.0945,-0.1376 0.0598,-0.2012 -0.0935,-0.1708 0.68791,-1.198 0.856,-1.1252 0.078,0.034 0.17418,0 0.21381,-0.07 0.042,-0.077 0.0246,-0.098 -0.0418,-0.052 -0.0626,0.044 -0.1395,0.033 -0.17075,-0.024 -0.0825,-0.1507 1.39895,-1.6976 1.53489,-1.6027 0.0642,0.045 0.0847,0.026 0.0467,-0.044 -0.0848,-0.1549 0.62774,-0.7827 0.77326,-0.6811 0.0588,0.042 0.094,0.01 0.0781,-0.07 -0.0436,-0.2181 1.905,-1.6662 2.70039,-2.0068 0.1732,-0.074 0.61113,-0.2944 0.97317,-0.4894 1.47809,-0.7964 1.08196,-0.7609 8.36923,-0.7482 6.31055,0.011 8.16325,0.074 13.64619,0.4622 5.04459,0.3573 7.78575,0.3393 9.09787,-0.059 0.4584,-0.1394 0.97833,-0.6008 1.18459,-1.0512 0.24569,-0.5364 0.36116,-1.9235 0.26448,-3.1769 -0.12372,-1.6039 -0.21428,-2.2031 -1.09792,-7.2638 -0.42686,-2.4446 -0.87288,-5.0582 -0.99114,-5.8079 -0.62969,-3.9916 -1.06351,-8.3773 -1.06875,-10.8043 -0.006,-2.8171 0.78601,-4.1045 2.86976,-4.6644 0.82609,-0.222 3.38748,-0.1592 5.05905,0.1241 l 1.14688,0.1944 1.14074,1.0264 c 2.53619,2.282 4.27797,2.8543 5.95136,1.9556 0.3225,-0.1732 0.6253,-0.3052 0.67289,-0.2932 0.0476,0.012 0.0548,-0.036 0.0159,-0.1072 -0.0388,-0.071 4e-4,-0.2189 0.0874,-0.3289 0.29658,-0.3754 0.41105,-1.1592 0.27705,-1.897 -0.0673,-0.3705 -0.17593,-0.748 -0.24148,-0.839 -0.10127,-0.1407 0.0463,-0.1525 0.98235,-0.079 2.65532,0.208 5.73762,1.0376 7.67919,2.0667 0.38461,0.2039 0.754,0.3707 0.82087,0.3707 0.15162,0 1.84762,-1.1543 3.46595,-2.3589 1.47492,-1.098 3.00803,-2.3998 3.17565,-2.6965 0.14434,-0.2557 1.38162,-1.3079 1.99544,-1.6971 0.33267,-0.2109 0.67759,-0.352 0.76649,-0.3135 0.10533,0.046 0.13545,0.022 0.0865,-0.067 -0.0519,-0.095 -0.0142,-0.1109 0.12256,-0.051 0.10875,0.047 0.16294,0.046 0.12045,0 -0.10359,-0.117 0.43309,-0.3621 1.33682,-0.6105 1.11931,-0.3076 3.97055,-0.273 5.30752,0.065 1.28867,0.3254 2.15946,0.6752 2.12306,0.853 -0.0158,0.078 0.0182,0.108 0.0757,0.068 0.31981,-0.2232 1.66308,1.1024 2.07357,2.0463 0.25618,0.5891 0.29396,0.8137 0.29396,1.7482 0,0.9886 -0.0284,1.1354 -0.36388,1.8824 -0.25352,0.5645 -0.55025,0.9941 -0.97853,1.4169 -0.33807,0.3336 -0.65851,0.5933 -0.71209,0.577 -0.0536,-0.016 -0.0974,0.014 -0.0974,0.069 0,0.1826 -1.14101,0.9914 -1.27082,0.9009 -0.0757,-0.053 -0.0989,-0.038 -0.0579,0.037 0.0591,0.108 -0.22501,0.3436 -1.13805,0.9433 -0.11547,0.076 -0.56422,0.3772 -0.99722,0.6697 -3.37313,2.2783 -10.87895,6.3731 -11.32637,6.1791 -0.0888,-0.038 -0.12775,-0.032 -0.0865,0.015 0.0887,0.1002 -0.4685,0.3906 -1.32388,0.69 -0.73354,0.2568 -1.15054,0.1651 -1.47423,-0.3245 -0.48292,-0.7303 -0.16185,-1.7383 0.94648,-2.9715 0.63752,-0.7093 1.01167,-1.0067 0.8154,-0.6481 -0.0468,0.085 -0.0287,0.1046 0.048,0.051 0.0676,-0.047 0.0981,-0.1311 0.0678,-0.1866 -0.0756,-0.1381 0.69207,-0.8377 0.82073,-0.7479 0.0568,0.039 0.073,0.017 0.0362,-0.05 -0.0369,-0.067 0.15658,-0.3138 0.4299,-0.5475 0.27332,-0.2339 0.56779,-0.4996 0.6544,-0.5907 0.14472,-0.1521 3.50631,-2.9672 4.44705,-3.7241 0.22313,-0.1795 0.45931,-0.3086 0.52486,-0.2868 0.0655,0.022 0.0838,0 0.0406,-0.05 -0.0432,-0.049 0.52361,-0.5884 1.25965,-1.1991 0.73603,-0.6108 1.35399,-1.162 1.37324,-1.2249 0.0478,-0.1566 -0.26794,-0.1459 -0.35433,0.012 -0.0382,0.07 -0.13783,0.097 -0.22159,0.061 -0.0838,-0.036 -0.12649,-0.019 -0.095,0.038 0.0738,0.1347 -0.2402,0.2733 -0.38703,0.1709 -0.0658,-0.046 -0.081,-0.022 -0.0368,0.059 0.0412,0.075 0.0203,0.1368 -0.0463,0.1368 -0.0666,0 -0.24658,0.1 -0.39983,0.2214 -0.15325,0.1217 -0.56206,0.3918 -0.90846,0.6002 -1.40968,0.8481 -4.49626,3.1607 -5.82116,4.3613 -0.19948,0.1808 -0.42335,0.3214 -0.49748,0.3124 -0.0742,-0.01 -0.1122,0.025 -0.0846,0.075 0.0789,0.1443 -0.23898,0.386 -0.37899,0.2883 -0.0758,-0.053 -0.0983,-0.038 -0.0566,0.038 0.0388,0.071 -0.44301,0.6085 -1.09934,1.2263 -1.18483,1.1151 -1.83245,1.9193 -2.19904,2.7307 -0.24729,0.5474 -0.26799,1.5916 -0.0435,2.1981 0.0874,0.2361 0.1367,0.4542 0.10965,0.4848 -0.17412,0.1965 -2.07839,0.6192 -2.79016,0.6192 -1.37246,0 -3.64636,-0.6187 -6.3853,-1.7373 -1.31637,-0.5376 -8.59927,-3.7906 -9.92532,-4.4332 -0.39866,-0.1932 -0.74595,-0.3275 -0.77175,-0.2983 -0.0258,0.029 0.0328,0.6831 0.13012,1.4533 0.1295,1.0244 0.20181,2.848 0.26937,6.7934 0.1461,8.5314 0.29869,10.5268 1.05976,13.8584 0.75831,3.3194 0.77628,3.5868 0.29829,4.4378 -0.3704,0.6596 -0.61472,0.7965 -2.2554,1.2645 -3.33483,0.9513 -7.32709,1.1407 -14.43347,0.6846 -3.16922,-0.2034 -10.5153,-0.2035 -11.96666,-3e-4 -1.80656,0.2531 -4.58624,0.9272 -5.92035,1.4357 -0.68703,0.2619 -1.3011,0.4428 -1.36462,0.4019 -0.0635,-0.041 -0.0851,-0.036 -0.0479,0.011 0.0372,0.047 -0.45925,0.3909 -1.10313,0.7642 -1.48494,0.8609 -2.13674,1.3532 -3.07295,2.3207 -0.77818,0.8043 -1.41626,1.7725 -1.69374,2.5701 -0.24243,0.6969 -0.0585,1.2754 0.52559,1.653 l 0.44802,0.2898 h 51.22573 c 28.17415,0 51.44581,-0.027 51.71482,-0.059 0.269,-0.032 0.48326,-0.084 0.47611,-0.1169 -0.0257,-0.1173 0.76152,-0.9149 0.83263,-0.8435 0.0401,0.04 0.0401,0.01 1.6e-4,-0.07 -0.04,-0.078 -0.002,-0.3334 0.0839,-0.5662 0.38687,-1.0454 0.90965,-4.3392 1.11439,-7.0212 0.16283,-2.1329 0.0759,-6.7388 -0.1583,-8.3896 -0.76318,-5.3791 -2.28468,-9.6138 -4.72707,-13.1567 -0.65129,-0.9448 -2.10902,-2.6845 -2.53257,-3.0225 -0.12253,-0.098 -0.50042,-0.4172 -0.83976,-0.7099 -1.68051,-1.4495 -3.99655,-2.5521 -6.39037,-3.0424 -1.34568,-0.2757 -4.33725,-0.2716 -5.98333,0.01 -1.52757,0.2595 -3.55392,0.8222 -5.34264,1.4836 -0.73154,0.2705 -1.38302,0.4549 -1.44773,0.4097 -0.0647,-0.045 -0.0898,-0.031 -0.0558,0.031 0.034,0.062 -0.30118,0.2653 -0.74482,0.4514 -1.06028,0.4449 -3.47156,1.6556 -4.82644,2.4233 -0.59434,0.3368 -1.13305,0.5758 -1.19713,0.5311 -0.0641,-0.045 -0.0884,-0.03 -0.0541,0.033 0.0343,0.062 -0.48914,0.4576 -1.16327,0.8776 -0.67415,0.42 -1.3073,0.8169 -1.407,0.8821 -1.03864,0.6791 -2.18119,1.4451 -2.39336,1.6046 -0.14432,0.1085 -0.66393,0.4822 -1.15468,0.8305 -0.49073,0.3484 -1.62442,1.1792 -2.51929,1.8464 -2.28995,1.7072 -3.50412,2.6563 -7.5579,5.9074 -1.09209,0.8758 -1.34248,1.0318 -1.19653,0.7454 0.0438,-0.086 0.0354,-0.1068 -0.02,-0.05 -0.0526,0.054 -0.0956,0.1597 -0.0956,0.2341 0,0.1281 -1.95116,1.6533 -3.2016,2.5027 -0.31754,0.2157 -0.9009,0.6165 -1.29636,0.8907 -1.49215,1.0345 -3.89363,2.4518 -5.57923,3.2927 -0.57733,0.288 -1.09694,0.5473 -1.15468,0.5762 -0.067,0.034 -0.0922,-0.3232 -0.0698,-0.9858 0.0307,-0.9054 -0.0189,-1.275 -0.38708,-2.8837 -0.46721,-2.0413 -0.70294,-3.479 -0.80522,-4.9109 -0.0373,-0.5216 -0.0833,-1.0628 -0.10246,-1.2026 -0.0191,-0.1399 -0.0687,-1.1607 -0.11021,-2.2686 l -0.0755,-2.0142 0.40771,-0.074 c 0.22423,-0.041 1.16349,-0.1818 2.08722,-0.314 3.48074,-0.4978 7.73193,-1.3748 9.75284,-2.0118 0.40933,-0.129 1.45279,-0.4492 2.3188,-0.7115 3.36651,-1.0197 7.97022,-2.8665 11.08039,-4.4449 1.34536,-0.6828 5.20713,-2.8592 6.2742,-3.5361 0.44295,-0.2811 0.87621,-0.5475 0.96281,-0.5923 0.0866,-0.045 0.58259,-0.3757 1.10219,-0.7354 1.3156,-0.9107 1.92908,-1.2194 4.09386,-2.0602 4.87484,-1.8935 8.49562,-2.446 12.38655,-1.89 1.49229,0.2132 3.56764,0.8641 3.44863,1.0816 -0.0423,0.078 -0.0198,0.092 0.0575,0.038 0.24184,-0.1688 2.59001,1.0312 2.46497,1.2596 -0.0462,0.084 -0.025,0.1 0.0585,0.041 0.0766,-0.054 0.25619,0.013 0.43185,0.1595 0.16538,0.138 0.32835,0.251 0.36216,0.251 0.10622,0 1.65538,1.2062 2.19683,1.7105 0.64118,0.5972 2.28386,2.4554 2.8217,3.1919 0.22017,0.3015 0.37017,0.6032 0.33335,0.6705 -0.0368,0.067 -0.008,0.1077 0.0642,0.09 0.14869,-0.037 1.78969,2.6283 1.70902,2.7756 -0.0288,0.053 -0.0142,0.096 0.0326,0.097 0.0467,0 0.13724,0.1205 0.20119,0.2667 0.0639,0.1461 0.35398,0.801 0.64452,1.4552 2.0013,4.5064 3.06686,10.1258 3.06952,16.1874 0.002,4.3059 -0.33739,7.77 -1.10703,11.3027 -0.45848,2.1045 -0.65936,2.4817 -1.62108,3.0441 -0.41529,0.2428 -0.65252,0.2816 -1.96316,0.3204 l -1.49079,0.044 -0.11725,0.6684 c -0.17141,0.9775 -0.21078,1.0953 -0.3365,1.0076 -0.0642,-0.045 -0.0836,-0.025 -0.0446,0.047 0.12589,0.23 -0.0554,0.5055 -0.54752,0.8321 -0.48406,0.3213 -0.49676,0.323 -2.73804,0.3515 -2.10623,0.027 -2.28134,0.013 -2.70992,-0.2218 -0.57228,-0.3128 -0.92133,-0.9027 -1.06438,-1.799 -0.0604,-0.3787 -0.13724,-0.7384 -0.1707,-0.7996 -0.0377,-0.069 -16.86502,-0.1114 -44.23886,-0.112 h -44.17804 l -0.11372,0.5988 c -0.0626,0.3293 -0.11372,0.7019 -0.11372,0.8279 0,0.3637 -0.83415,1.2573 -1.31214,1.4056 -0.60148,0.1865 -4.0671,0.1554 -4.71991,-0.042 z m -3.62526,-11.131 c 0,-0.025 -0.0827,-0.118 -0.18371,-0.2075 -0.16649,-0.1474 -0.1702,-0.1432 -0.0396,0.045 0.13713,0.1975 0.22333,0.2602 0.22333,0.1627 z m 102.1918,-31.9351 c -0.0323,-0.037 -0.11702,-2e-4 -0.18823,0.081 -0.10289,0.1171 -0.0908,0.1307 0.0588,0.066 0.10352,-0.044 0.16179,-0.1108 0.12947,-0.1472 z m -74.5845,24.5725 c -5.39344,-0.4066 -11.75672,-0.5913 -14.90789,-0.4328 -2.71714,0.1368 -3.21255,0.092 -3.84128,-0.3467 -0.33187,-0.2316 -0.73274,-0.7542 -0.97526,-1.2714 -0.22471,-0.4792 -0.32854,-1.5721 -0.22099,-2.3263 0.10696,-0.75 0.61036,-1.8107 0.83262,-1.7545 0.0708,0.018 0.10342,-0.014 0.0726,-0.07 -0.0754,-0.1379 0.47008,-0.5817 1.01546,-0.8263 0.39717,-0.1781 1.24928,-0.2016 8.3675,-0.2311 10.03447,-0.042 9.78799,-0.034 9.82202,-0.2983 0.0148,-0.1144 -0.006,-0.1847 -0.0474,-0.1563 -0.11302,0.079 -2.2388,-5.2669 -2.17226,-5.4628 0.032,-0.094 0.0129,-0.1394 -0.0425,-0.1008 -0.12517,0.087 -0.44844,-0.7569 -0.37386,-0.9764 0.03,-0.088 0.0148,-0.1328 -0.0338,-0.099 -0.10139,0.07 -0.075,0.1326 -1.1866,-2.775 -0.46122,-1.2063 -0.9792,-2.5605 -1.15106,-3.0093 -0.17186,-0.4487 -0.28675,-0.8915 -0.25533,-0.984 0.0314,-0.092 0.0138,-0.1379 -0.0391,-0.1009 -0.12648,0.088 -0.25164,-0.3656 -0.15376,-0.5576 0.0418,-0.082 0.0371,-0.1093 -0.0105,-0.061 -0.12251,0.1255 -0.86539,-1.8118 -1.1018,-2.8732 -0.42652,-1.915 -0.33445,-4.3344 0.24886,-6.5384 0.37525,-1.418 0.25883,-0.8929 4.581,-20.6648 0.95497,-4.3685 1.26651,-5.4996 1.7628,-6.4005 1.29179,-2.3448 3.92271,-3.4704 6.19185,-2.6491 0.83784,0.3033 1.84953,0.9929 1.74277,1.188 -0.041,0.075 -0.0274,0.1023 0.0304,0.062 0.12492,-0.087 0.73104,0.6214 1.09536,1.2805 0.28851,0.522 1.35399,3.2893 2.19058,5.6895 0.2954,0.8474 0.62117,1.7542 0.72395,2.0149 0.10278,0.2608 0.4192,1.1307 0.70315,1.933 0.36566,1.0332 0.6634,1.6646 1.02048,2.1643 0.28486,0.3986 0.47188,0.7645 0.42991,0.8411 -0.043,0.078 -0.0282,0.1035 0.0352,0.059 0.0985,-0.069 0.43218,0.3399 0.86767,1.0623 0.0866,0.1436 0.50295,0.772 0.92521,1.3963 0.44699,0.6609 0.73626,1.1928 0.69234,1.2729 -0.0442,0.081 -0.0298,0.1061 0.0349,0.061 0.10904,-0.076 2.10986,2.8578 2.70386,3.9648 0.0578,0.1075 0.3161,0.5087 0.57415,0.8913 1.06833,1.5844 1.57313,2.4462 1.50809,2.5746 -0.0379,0.075 -0.0325,0.099 0.0122,0.054 0.0743,-0.075 0.69477,0.79 0.86629,1.2085 0.0401,0.098 0.15523,0.278 0.2559,0.4004 0.26989,0.3281 0.8925,1.7168 1.02859,2.2942 0.0971,0.4118 0.089,0.5658 -0.045,0.8582 -0.27732,0.6056 -0.58638,0.7527 -1.44715,0.6888 -0.77931,-0.058 -1.83071,-0.5332 -2.26554,-1.0242 -0.10377,-0.1171 -0.27071,-0.2486 -0.371,-0.292 -0.10445,-0.046 -0.15014,-0.1378 -0.10697,-0.2167 0.0486,-0.089 0.0294,-0.1055 -0.0543,-0.047 -0.14656,0.1022 -0.7683,-0.5035 -0.68082,-0.6634 0.0298,-0.054 -0.007,-0.072 -0.0829,-0.039 -0.18156,0.078 -3.36303,-3.1204 -3.27081,-3.2889 0.0434,-0.079 0.0212,-0.094 -0.0575,-0.039 -0.14822,0.1035 -3.7229,-3.9125 -5.19133,-5.8321 -0.82917,-1.084 -0.91473,-1.2387 -0.78714,-1.4224 0.12621,-0.1818 0.12351,-0.1889 -0.0227,-0.06 -0.13767,0.1211 -0.21192,0.091 -0.43643,-0.1779 -0.86289,-1.0327 -3.86939,-6.4784 -5.11541,-9.2656 -0.28093,-0.6284 -0.52802,-0.9188 -0.52802,-0.6206 0,0.2088 0.51816,2.0222 0.82721,2.8951 0.68231,1.927 1.92722,4.5594 2.91307,6.1599 0.30994,0.5031 0.56281,0.9831 0.56194,1.0667 -0.003,0.3151 -0.28004,1.0393 -0.36419,0.9531 -0.0482,-0.05 -0.0572,-0.03 -0.0198,0.044 0.0374,0.074 -0.42211,1.8074 -1.02109,3.8522 -0.59898,2.0448 -1.3824,4.758 -1.74092,6.0292 -0.35853,1.2712 -0.7121,2.5246 -0.7857,2.7854 -0.43339,1.5352 -0.43489,1.6046 -0.0662,3.0475 0.18807,0.7359 0.45355,1.7969 0.58996,2.3577 0.1364,0.5607 0.4839,1.8942 0.77223,2.9632 0.28832,1.069 0.66619,2.5037 0.8397,3.1882 0.17352,0.6844 0.65431,2.4979 1.06841,4.03 0.41411,1.5319 0.78893,2.9454 0.83292,3.1409 0.044,0.1956 0.17803,0.6757 0.29786,1.0668 0.11983,0.3911 0.31059,1.1112 0.42391,1.6002 0.11332,0.4889 0.31185,1.2889 0.44118,1.7778 0.31347,1.1851 0.34195,2.9477 0.0574,3.5559 -0.26046,0.5568 -0.596,0.9576 -0.72583,0.8671 -0.0609,-0.042 -0.0735,-0.014 -0.0296,0.066 0.0499,0.091 -0.13504,0.2513 -0.53487,0.4628 -0.58211,0.308 -0.69369,0.3242 -2.34323,0.3417 -0.95261,0.01 -3.36168,-0.1045 -5.35351,-0.2547 z m 7.30672,-60.0914 c -0.0125,-0.096 -0.052,-0.2075 -0.0878,-0.2479 -0.0505,-0.057 -0.0406,0.1835 0.016,0.3926 0.031,0.1144 0.09,-0.01 0.0718,-0.1447 z m 9.64615,44.5493 c 0.13283,-4.5692 0.18202,-5.8531 0.22427,-5.8531 0.0246,0 0.554,0.2413 1.17666,0.5363 l 1.13211,0.5363 -0.18658,1.7453 c -0.10262,0.96 -0.21924,2.4245 -0.25916,3.2544 -0.083,1.7258 0.0273,1.5789 -1.27666,1.7007 l -0.86881,0.081 z m 54.53222,-12.8012 c -1.45666,-0.778 -2.74864,-1.2296 -4.36201,-1.5244 -0.83698,-0.1531 -1.52308,-0.4612 -2.03812,-0.9156 -0.31496,-0.2778 -0.84194,-1.1528 -0.84201,-1.398 -2e-5,-0.098 0.25614,-0.4012 0.56926,-0.6743 1.16732,-1.0179 2.15794,-2.6978 2.51917,-4.2719 0.28217,-1.2295 0.19049,-3.0537 -0.20678,-4.1144 -0.0666,-0.1777 0.0278,-0.1377 0.4141,0.1755 1.55949,1.2647 2.18105,2.8821 2.47263,6.4346 0.21609,2.6329 0.85002,4.2611 1.97168,5.0643 0.40496,0.29 0.59853,0.3494 1.13845,0.3494 0.50624,0 0.66518,0.043 0.71662,0.1945 0.15583,0.4586 -0.60064,1.1148 -1.27367,1.1051 -0.16063,-0.01 -0.64632,-0.1936 -1.07932,-0.4248 z m -12.1503,-3.8953 c -0.96485,-0.3062 -2.15044,-1.0971 -2.09806,-1.3995 0.0137,-0.079 -0.0314,-0.1311 -0.10003,-0.1161 -0.19436,0.042 -0.86052,-0.9002 -1.19205,-1.6867 -1.33307,-3.1624 -0.529,-6.3944 2.02416,-8.1362 0.4091,-0.2791 0.77735,-0.4532 0.87193,-0.4122 0.0901,0.039 0.13762,0.023 0.10572,-0.035 -0.12415,-0.2268 0.95251,-0.5128 2.14923,-0.571 2.00496,-0.097 3.21054,0.3934 4.46691,1.8186 0.64491,0.7315 0.77334,0.9509 0.97151,1.6596 0.77436,2.7692 -0.24274,5.9372 -2.50937,7.816 -0.2908,0.2411 -0.56679,0.3883 -0.63659,0.3395 -0.0827,-0.058 -0.095,-0.034 -0.0373,0.071 0.0629,0.1149 0.0377,0.1361 -0.0942,0.079 -0.0991,-0.043 -0.15349,-0.03 -0.12094,0.03 0.0326,0.059 -0.21299,0.2258 -0.54565,0.3697 -0.78606,0.3399 -2.45093,0.4285 -3.25526,0.1732 z m -51.16872,-30.5871 c -0.0311,-0.035 -0.31231,-0.085 -0.62479,-0.1107 -0.62365,-0.051 -1.67771,-0.4517 -1.92541,-0.7313 -0.0866,-0.098 -0.15739,-0.1409 -0.15739,-0.096 0,0.1096 -0.69288,-0.474 -1.17657,-0.9911 -0.21411,-0.2288 -0.36033,-0.4689 -0.32493,-0.5337 0.0354,-0.065 0.0138,-0.082 -0.0478,-0.039 -0.1853,0.1293 -0.97892,-1.472 -1.25203,-2.5264 -0.26786,-1.034 -0.24117,-2.6134 0.0618,-3.6583 0.36869,-1.2714 1.13336,-2.5038 2.05907,-3.3185 0.29548,-0.26 1.42655,-0.9568 1.5984,-0.9845 0.0436,-0.01 0.17904,-0.056 0.30089,-0.1079 0.55471,-0.2382 1.58146,-0.3789 2.32905,-0.3192 1.03686,0.083 1.87617,0.3156 1.6832,0.467 -0.0965,0.075 -0.0687,0.087 0.0895,0.037 0.2789,-0.088 1.51437,0.5809 1.47593,0.7994 -0.0142,0.081 0.048,0.1333 0.13817,0.1169 0.15276,-0.028 0.76124,0.5737 0.73851,0.7299 -0.006,0.038 0.01,0.057 0.0338,0.041 0.10509,-0.07 0.58679,0.5669 0.53761,0.7116 -0.0299,0.088 -0.009,0.1285 0.046,0.09 0.12858,-0.09 0.79444,1.4884 0.95204,2.2565 0.16423,0.8004 0.16422,2.2279 0,3.0165 -0.0746,0.3585 -0.30281,1.0154 -0.50698,1.4598 -0.43783,0.9528 -1.60297,2.4166 -1.80911,2.2728 -0.0794,-0.055 -0.11001,-0.048 -0.0737,0.019 0.0794,0.1451 -0.86985,0.7853 -1.54483,1.042 -0.74946,0.2848 -2.45696,0.5199 -2.6004,0.358 z"
       id="path65" /></g></svg>
