<?xml version="1.0" encoding="UTF-8" standalone="no"?>
<!-- Created with Inkscape (http://www.inkscape.org/) -->

<svg
   width="99.827316mm"
   height="83.512215mm"
   viewBox="0 0 99.827326 83.512214"
   version="1.1"
   id="svg1"
   xml:space="preserve"
   xmlns="http://www.w3.org/2000/svg"
   xmlns:svg="http://www.w3.org/2000/svg"><defs
     id="defs1" /><g
     id="layer1"
     transform="translate(389.5675,-1944.0947)"><path
       style="fill:#666666;stroke-width:0.405419"
       d="m -388.80971,2027.5493 c -0.0962,-0.029 -0.1497,-0.1013 -0.1189,-0.1592 0.0308,-0.058 -0.005,-0.079 -0.0795,-0.045 -0.0745,0.033 -0.22197,-0.051 -0.3277,-0.1872 -0.17825,-0.23 -0.19437,-0.4713 -0.22172,-3.3204 -0.0328,-3.4239 -0.0213,-3.494 0.6295,-3.8116 0.51404,-0.251 73.43516,-0.2472 73.35274,0 -0.0327,0.1001 -0.007,0.1478 0.0639,0.118 0.0655,-0.027 0.23065,0.058 0.36711,0.1898 0.13646,0.132 0.18539,0.2013 0.10872,0.154 -0.0897,-0.055 -0.11511,-0.04 -0.0713,0.042 0.0374,0.071 0.12654,0.1025 0.19792,0.071 0.0714,-0.032 0.18792,0.024 0.25897,0.1237 0.11089,0.156 0.10265,0.1717 -0.0585,0.1107 -0.14448,-0.055 -0.1555,-0.045 -0.0478,0.045 0.0769,0.064 0.19499,0.092 0.26236,0.061 0.0674,-0.031 0.43876,0.1311 0.82529,0.3585 0.38654,0.2275 0.77353,0.4135 0.85999,0.4135 0.0864,0 0.12992,0.052 0.0966,0.1143 -0.0334,0.064 0.002,0.086 0.0789,0.052 0.0767,-0.034 0.5698,0.019 1.09578,0.1166 1.21278,0.228 3.30423,0.2294 9.22872,0 7.60124,-0.2868 8.61445,-0.3655 9.54411,-0.7411 0.43669,-0.1765 0.87945,-0.3646 0.98392,-0.4182 0.13444,-0.07 0.1692,-0.058 0.1189,0.036 -0.0472,0.09 -0.0166,0.1095 0.0913,0.061 0.12992,-0.059 0.1359,-0.093 0.03,-0.1709 -0.12028,-0.09 -0.0462,-0.1498 0.14054,-0.1154 0.041,0.012 0.0633,-0.029 0.0497,-0.084 -0.0422,-0.1658 0.56031,-0.6833 0.75507,-0.6483 0.28825,0.052 0.64981,0.5138 0.758,0.9688 0.0542,0.228 0.0978,1.5361 0.0969,2.907 -0.001,2.1848 -0.0245,2.5517 -0.1872,2.9701 -0.10208,0.2626 -0.28967,0.5626 -0.41689,0.6667 -0.21324,0.1744 -4.05955,0.1882 -49.26076,0.1758 -26.9662,-0.012 -49.10816,-0.038 -49.20435,-0.067 z m 74.40898,-6.4111 c 0.0348,-0.066 -0.005,-0.085 -0.0934,-0.046 -0.17194,0.077 -0.2034,0.1602 -0.0607,0.1602 0.0514,0 0.12068,-0.052 0.15402,-0.1143 z m 2.95329,-1.5124 c -0.62892,-0.1329 -1.5111,-0.5405 -2.08288,-0.9622 -0.62775,-0.4632 -1.35059,-1.31 -1.26162,-1.4782 0.0441,-0.084 0.0341,-0.1119 -0.0242,-0.071 -0.12704,0.092 -0.66739,-0.5595 -0.5883,-0.7089 0.0326,-0.061 -0.007,-0.1763 -0.0873,-0.2545 -0.0807,-0.078 -0.11794,-0.1966 -0.0829,-0.2629 0.0383,-0.073 0.0154,-0.086 -0.0572,-0.033 -0.0908,0.066 -0.0763,0.1498 0.0576,0.3367 0.0982,0.1372 0.0357,0.098 -0.13888,-0.087 -0.17461,-0.1851 -0.28982,-0.3887 -0.25603,-0.4527 0.0339,-0.064 0.0119,-0.08 -0.0488,-0.036 -0.13343,0.097 -0.46005,-0.4477 -0.37045,-0.617 0.0364,-0.068 0.003,-0.093 -0.076,-0.058 -0.0825,0.036 -0.26723,-0.1166 -0.45292,-0.378 -0.17246,-0.2424 -0.41352,-0.5696 -0.5357,-0.7273 -0.12217,-0.1577 -0.21096,-0.3273 -0.19732,-0.3769 0.0136,-0.049 -0.0145,-0.076 -0.0627,-0.061 -0.10483,0.034 -3.38609,-4.2954 -3.38609,-4.4686 0,-0.066 -0.0249,-0.092 -0.0555,-0.055 -0.11124,0.1299 0.27222,1.5175 0.82236,2.9758 0.12974,0.3439 0.21176,0.6989 0.18225,0.7886 -0.0295,0.09 -0.0114,0.1326 0.041,0.095 0.12368,-0.09 0.62573,1.0692 0.53646,1.2378 -0.0448,0.085 -0.023,0.097 0.0629,0.034 0.0962,-0.07 0.11399,-0.041 0.066,0.1036 -0.0374,0.1143 -0.0251,0.1698 0.0292,0.1306 0.0521,-0.038 0.20609,0.1815 0.34237,0.4868 0.13629,0.3052 0.34324,0.7246 0.45988,0.9317 l 0.21209,0.3769 h -2.86302 c -4.82875,0 -15.63999,0.4394 -19.7842,0.8009 -0.62771,0.054 -10.54223,0.092 -22.03225,0.084 l -20.89094,-0.016 -0.70742,-0.3874 c -1.65415,-0.906 -2.58912,-3.0079 -2.23324,-5.0208 0.1408,-0.7963 0.40354,-1.5083 0.52439,-1.421 0.045,0.032 0.0571,-0.017 0.0269,-0.1084 -0.0737,-0.2243 0.92345,-1.3892 1.11543,-1.3031 0.0786,0.035 0.11682,0.015 0.0849,-0.046 -0.0637,-0.1206 0.34417,-0.3953 0.96969,-0.6531 0.388,-0.16 1.25006,-0.2259 10.44151,-0.7987 10.1129,-0.6302 16.04478,-1.0768 16.87155,-1.27 0.85752,-0.2005 1.76441,-0.6179 2.43149,-1.1194 0.71364,-0.5364 1.80284,-1.1344 1.95902,-1.0757 0.11618,0.044 0.13453,0.032 0.0547,-0.035 -0.15372,-0.1305 0.97021,-0.7508 2.19012,-1.2088 1.01905,-0.3826 0.99058,-0.3761 0.90084,-0.2065 -0.0372,0.071 0.0383,0.049 0.16782,-0.047 0.72882,-0.5426 3.62823,-0.6428 5.94207,-0.2055 2.61099,0.4934 3.5276,0.5963 5.32271,0.5974 1.63739,0 4.97607,-0.1739 5.60002,-0.2934 0.18982,-0.037 0.46555,0.1266 1.0917,0.6451 0.737,0.6101 1.44738,1.2393 1.13317,1.0037 -0.065,-0.048 -0.11352,-0.019 -0.11352,0.071 0,0.086 0.0919,0.1468 0.20675,0.1359 0.29916,-0.028 0.38164,0.051 0.24905,0.2372 -0.12855,0.1809 0.0114,0.228 0.16116,0.054 0.0592,-0.068 0.29403,0.038 0.63125,0.2868 0.51952,0.383 0.52919,0.3995 0.29773,0.5076 -0.13158,0.061 -0.18047,0.1155 -0.10861,0.1192 0.0719,0 0.20922,-0.041 0.30533,-0.1013 0.11947,-0.075 0.42344,-0.034 0.9611,0.1283 1.05086,0.3175 2.10554,0.2512 3.07062,-0.1933 0.38119,-0.1754 0.78528,-0.4167 0.89796,-0.5362 0.25368,-0.2688 0.414,-0.286 0.22906,-0.025 -0.12441,0.1758 -0.11721,0.1787 0.0831,0.033 0.15578,-0.1131 0.18454,-0.1855 0.0992,-0.2487 -0.1125,-0.084 -0.0237,-0.141 0.1602,-0.1037 0.045,0.012 0.0576,-0.029 0.0279,-0.085 -0.0297,-0.056 0.0515,-0.2177 0.18043,-0.3591 0.17718,-0.1946 0.24884,-0.2199 0.29375,-0.1037 0.0326,0.085 0.0365,0.044 0.008,-0.091 -0.0308,-0.1475 0.0153,-0.3085 0.11629,-0.4058 0.092,-0.088 0.25408,-0.3901 0.36021,-0.6698 0.14364,-0.3784 0.2156,-0.4675 0.28148,-0.3478 0.058,0.1048 0.0705,0.041 0.0363,-0.1871 -0.088,-0.5867 0.033,-0.6606 1.4581,-0.8894 2.4851,-0.3989 3.26486,-0.4503 4.186,-0.2762 0.86418,0.1635 2.08846,0.7096 1.99342,0.8892 -0.0291,0.055 0.0165,0.068 0.10117,0.031 0.0847,-0.038 0.15403,-0.012 0.15403,0.059 0,0.071 0.0601,0.1283 0.13347,0.1283 0.18163,0 0.48049,0.4014 0.38777,0.5208 -0.0411,0.053 -0.0217,0.061 0.0429,0.018 0.24782,-0.166 1.42065,1.6152 1.26157,1.9159 -0.041,0.078 -0.0261,0.1001 0.0358,0.055 0.0851,-0.061 0.71881,0.9422 0.71881,1.1386 0,0.028 0.13467,0.318 0.29928,0.6441 0.1646,0.3261 0.26935,0.6495 0.23278,0.7186 -0.0366,0.069 -0.0215,0.093 0.0335,0.054 0.12604,-0.091 0.95013,1.7465 0.85983,1.9171 -0.0371,0.071 -0.0209,0.093 0.0364,0.052 0.14601,-0.106 0.83698,1.4695 0.76239,1.7377 -0.0482,0.1733 -0.0398,0.1816 0.0438,0.043 0.0894,-0.1478 0.11181,-0.1446 0.16703,0.024 0.035,0.1072 0.0306,0.2568 -0.0103,0.3335 -0.0459,0.087 -0.0318,0.1095 0.0371,0.059 0.0663,-0.048 0.19083,0.1036 0.31012,0.3765 0.231,0.529 -0.1416,0.4383 3.62916,0.8828 1.36461,0.1608 2.87189,0.3446 3.34951,0.4082 0.4776,0.063 1.25915,0.1681 1.73676,0.2322 0.47762,0.064 1.67228,0.2241 2.6548,0.3558 0.98252,0.1316 2.16601,0.2801 2.62998,0.3298 0.65507,0.071 0.96554,0.1684 1.38941,0.4396 0.45274,0.2895 0.54085,0.3963 0.51659,0.6262 -0.0208,0.1968 -0.003,0.232 0.0611,0.1214 0.16159,-0.2783 0.50809,0.462 0.57706,1.2327 0.08,0.8943 -0.14532,1.6137 -0.68339,2.1816 -0.76333,0.8057 -0.57947,0.7789 -7.12078,1.0349 -5.9088,0.2313 -11.12846,0.3049 -11.78522,0.1661 z m 19.03005,-1.5033 c 0,-0.064 -0.0197,-0.1154 -0.0437,-0.1154 -0.024,0 -0.0714,0.052 -0.10506,0.1154 -0.0338,0.064 -0.0141,0.1166 0.0438,0.1166 0.0578,0 0.10506,-0.052 0.10506,-0.1166 z m -21.933,-1.2299 c 0,-0.095 -0.19272,-0.1501 -0.23689,-0.067 -0.0286,0.054 0.0129,0.099 0.0924,0.099 0.0795,0 0.1445,-0.014 0.1445,-0.032 z m -71.65445,-1.7845 c 0,-0.064 -0.0473,-0.1166 -0.10506,-0.1166 -0.0578,0 -0.0775,0.052 -0.0437,0.1166 0.0338,0.064 0.081,0.1166 0.10506,0.1166 0.024,0 0.0437,-0.052 0.0437,-0.1166 z m 93.28973,-0.1518 c 0,-0.084 -0.0599,-0.2472 -0.13288,-0.364 -0.10941,-0.1748 -0.16638,-0.188 -0.32255,-0.074 -0.17257,0.1253 -0.16842,0.1309 0.0461,0.061 0.15991,-0.052 0.21388,-0.034 0.16782,0.053 -0.0373,0.071 -0.0206,0.1283 0.0372,0.1283 0.0578,0 0.10506,0.078 0.10506,0.1739 0,0.095 0.0223,0.174 0.0497,0.174 0.0274,0 0.0497,-0.068 0.0497,-0.1518 z m -26.58519,-0.4588 c -0.098,-0.1142 -0.10941,-0.1001 -0.0555,0.065 0.0373,0.1142 0.0928,0.1786 0.12332,0.1429 0.0305,-0.035 6e-5,-0.1291 -0.0678,-0.2078 z m 20.35948,-0.9726 c -0.0672,-0.032 -0.20117,-0.034 -0.29773,0 -0.0966,0.029 -0.0415,0.055 0.12217,0.058 0.16375,0 0.24276,-0.022 0.17556,-0.053 z m -0.84753,-0.2259 c -0.033,-0.039 -0.11857,-0.042 -0.19021,-0.012 -0.0792,0.036 -0.0556,0.065 0.06,0.07 0.1046,0 0.16323,-0.022 0.13026,-0.061 z m -8.70662,-1.7395 c 0,-0.095 -0.19271,-0.1502 -0.23689,-0.067 -0.0286,0.054 0.0129,0.099 0.0924,0.099 0.0795,0 0.14451,-0.014 0.14451,-0.032 z m -76.76291,-2.5737 c -0.0306,-0.036 -0.11066,-10e-5 -0.17796,0.079 -0.0973,0.1142 -0.0859,0.1278 0.0555,0.065 0.0978,-0.044 0.15295,-0.1084 0.12241,-0.1441 z m 3.39442,-0.9041 c -0.0329,-0.039 -0.11857,-0.042 -0.19021,-0.012 -0.0792,0.038 -0.0556,0.065 0.06,0.071 0.1046,0 0.16324,-0.022 0.13026,-0.061 z m 2.33432,-0.3545 c -0.0682,-0.032 -0.17988,-0.032 -0.24812,0 -0.0682,0.032 -0.0125,0.059 0.12406,0.059 0.13646,0 0.19229,-0.026 0.12406,-0.059 z m 68.78579,-0.45 c -0.0324,-0.099 -0.0801,-0.154 -0.10609,-0.1236 -0.026,0.031 -0.0179,0.1107 0.0181,0.179 0.0978,0.1849 0.15507,0.149 0.088,-0.055 z m -32.71253,-4.6446 c -0.033,-0.039 -0.11858,-0.042 -0.19022,-0.012 -0.0792,0.037 -0.0556,0.065 0.06,0.07 0.1046,0 0.16324,-0.022 0.13026,-0.061 z m 0,-0.2318 c -0.033,-0.039 -0.11858,-0.042 -0.19022,-0.012 -0.0792,0.037 -0.0556,0.065 0.06,0.07 0.1046,0 0.16324,-0.022 0.13026,-0.061 z m 0.79395,0 c -0.033,-0.039 -0.11857,-0.042 -0.19021,-0.012 -0.0792,0.037 -0.0556,0.065 0.06,0.07 0.1046,0 0.16324,-0.022 0.13026,-0.061 z m 22.10876,-0.9734 c 0.13088,-0.066 0.14779,-0.1013 0.0497,-0.106 -0.0819,0 -0.21586,0.045 -0.29773,0.106 -0.18142,0.137 -0.0247,0.137 0.24811,0 z m 21.73452,9.4416 c -0.087,-0.041 -2.2664,-0.3136 -6.00428,-0.7506 -0.62773,-0.073 -1.23957,-0.155 -1.35965,-0.1813 -0.29712,-0.065 -1.44161,-1.3179 -1.37872,-1.5094 0.0276,-0.084 3.8e-4,-0.1883 -0.0601,-0.2321 -0.0667,-0.048 -0.0823,-0.027 -0.0395,0.054 0.0389,0.073 0.0347,0.1326 -0.009,0.131 -0.12973,0 -0.89077,-1.3827 -1.21711,-2.2042 -0.53953,-1.3581 -0.73237,-2.5233 -0.67044,-4.0508 0.10895,-2.688 0.97538,-4.9394 2.56831,-6.6736 1.63379,-1.7788 4.02308,-2.6792 6.30518,-2.3763 1.02384,0.1359 2.33438,0.564 2.2448,0.7333 -0.0342,0.065 -0.0148,0.084 0.0434,0.041 0.13559,-0.098 1.01907,0.4199 1.60482,0.9404 1.51616,1.3474 2.34467,2.6559 2.9061,4.5898 0.26821,0.9239 0.31367,1.2627 0.35246,2.626 0.0374,1.3163 0.0116,1.7219 -0.16274,2.5506 -0.24266,1.1537 -0.9954,2.9803 -1.45705,3.5356 -0.17776,0.2138 -0.3032,0.4122 -0.27875,0.4407 0.0664,0.078 -0.93107,1.1004 -1.51999,1.5588 -0.30133,0.2346 -0.56478,0.3645 -0.63561,0.3133 -0.0755,-0.054 -0.0953,-0.039 -0.0528,0.041 0.14249,0.2693 -0.79341,0.6038 -1.17884,0.4214 z m -63.42264,-7.5309 c -0.12615,-0.9827 0.0229,-4.5391 0.2393,-5.7117 0.25605,-1.3872 0.79907,-3.2916 0.91475,-3.2081 0.0493,0.035 0.0643,-0.013 0.0332,-0.1072 -0.0943,-0.2869 1.04833,-2.8114 1.19985,-2.651 0.045,0.047 0.0484,0.019 0.008,-0.064 -0.0408,-0.082 -0.0306,-0.2129 0.0228,-0.2898 0.26447,-0.3822 1.09203,-2.2874 1.62182,-3.7339 0.32696,-0.8928 0.66612,-1.8163 0.75368,-2.0525 0.0876,-0.2361 0.1957,-0.4029 0.24029,-0.3708 0.0446,0.032 0.0577,-0.013 0.0291,-0.1001 -0.0587,-0.1788 0.28929,-1.1638 0.37557,-1.063 0.0307,0.035 0.0532,0 0.0501,-0.087 -0.015,-0.4002 0.0327,-0.5669 0.14013,-0.4893 0.0699,0.051 0.0877,0.032 0.0455,-0.048 -0.038,-0.072 0.008,-0.3015 0.10334,-0.5106 0.0948,-0.2091 0.18062,-0.4324 0.19076,-0.4962 0.069,-0.4342 0.78636,-2.2386 0.86682,-2.1806 0.0545,0.04 0.0692,0.015 0.0328,-0.053 -0.0364,-0.069 0.12812,-0.6638 0.36568,-1.3222 0.23754,-0.6584 0.55743,-1.5493 0.71087,-1.9797 0.15342,-0.4303 0.30742,-0.7826 0.3422,-0.7826 0.0348,0 0.0692,-0.091 0.0766,-0.2027 0.007,-0.1119 0.23444,-0.803 0.5047,-1.5363 0.27025,-0.7332 0.92523,-2.5333 1.45551,-3.9998 1.25234,-3.4638 1.77507,-4.7463 2.07954,-5.1019 0.13621,-0.1591 0.21788,-0.2892 0.18146,-0.2892 -0.0364,0 0.15457,-0.262 0.42438,-0.5819 0.26981,-0.32 0.54583,-0.5571 0.61337,-0.5268 0.0675,0.031 0.15346,0 0.19094,-0.074 0.0444,-0.084 0.0197,-0.097 -0.0713,-0.038 -0.0767,0.051 0.0169,-0.071 0.20797,-0.2677 0.19105,-0.1972 0.4055,-0.3351 0.47657,-0.3064 0.0711,0.029 0.1062,0.012 0.078,-0.045 -0.0281,-0.053 0.18167,-0.216 0.46626,-0.3617 0.2846,-0.1457 0.6164,-0.3181 0.73736,-0.3832 0.16278,-0.087 0.26592,-0.077 0.39698,0.044 0.1594,0.1462 0.16413,0.143 0.0474,-0.032 -0.11686,-0.1746 -0.0727,-0.2029 0.4466,-0.2866 0.84494,-0.136 2.11393,-0.077 2.8287,0.1315 0.90475,0.2638 2.56651,0.9982 2.50821,1.1083 -0.0274,0.052 0.002,0.1317 0.0665,0.1779 0.0726,0.052 0.0896,0.034 0.0454,-0.05 -0.103,-0.1946 0.19644,-0.1665 0.36859,0.034 0.0793,0.093 0.16626,0.1425 0.19329,0.1107 0.0785,-0.092 0.76528,0.3285 0.70942,0.4341 -0.0278,0.053 0.0261,0.061 0.11976,0.019 0.12469,-0.055 0.14855,-0.035 0.089,0.078 -0.0543,0.1024 -0.0429,0.1258 0.0342,0.071 0.14635,-0.106 0.53124,0.031 0.46105,0.1636 -0.0677,0.1279 0.31222,0.2709 0.45196,0.1699 0.0585,-0.042 0.19008,0.012 0.29237,0.1199 0.10231,0.1084 0.22993,0.1649 0.28366,0.126 0.0537,-0.039 0.41678,-0.012 0.80679,0.072 0.61609,0.1234 0.68624,0.1615 0.53469,0.291 -0.0959,0.082 -0.12385,0.1489 -0.062,0.1489 0.0618,0 0.14347,-0.059 0.18151,-0.1307 0.0487,-0.092 0.40907,-0.1083 1.2216,-0.054 1.51739,0.1013 2.09571,0.2421 2.97157,0.7238 0.6526,0.3591 0.71387,0.4205 0.59547,0.5971 -0.11902,0.1777 -0.11476,0.1813 0.0434,0.036 0.15712,-0.144 0.22986,-0.095 0.69931,0.4638 0.83045,0.9898 1.0932,1.5343 1.89882,3.9345 0.41633,1.2403 0.83349,2.4621 0.92701,2.7151 0.0935,0.2529 0.17161,0.4877 0.17354,0.5217 0.002,0.034 0.055,0.1697 0.11798,0.3017 0.27225,0.5708 0.71967,2.0483 0.65821,2.1736 -0.037,0.075 -0.0295,0.097 0.0166,0.048 0.0943,-0.1001 0.35331,0.5377 0.30781,0.7579 -0.0163,0.079 -0.009,0.099 0.0153,0.045 0.0451,-0.099 0.17142,0.2287 0.86556,2.2427 0.20878,0.6058 0.50894,1.4341 0.66702,1.8407 0.15807,0.4065 0.26297,0.8137 0.23311,0.9046 -0.0299,0.091 -0.0134,0.1356 0.0367,0.099 0.11796,-0.085 0.23909,0.3582 0.14595,0.5343 -0.0477,0.091 -0.0277,0.1036 0.0601,0.04 0.0962,-0.069 0.11399,-0.041 0.066,0.1037 -0.0368,0.1119 -0.0248,0.1697 0.0278,0.1316 0.12379,-0.09 0.32994,0.3716 0.24121,0.5393 -0.0458,0.087 -0.0247,0.099 0.0619,0.036 0.0962,-0.07 0.11399,-0.041 0.0661,0.1036 -0.0441,0.1341 -0.0279,0.1719 0.0497,0.1155 0.0775,-0.057 0.0936,-0.018 0.0497,0.1165 -0.0441,0.1341 -0.0279,0.1719 0.0497,0.1155 0.0775,-0.057 0.0936,-0.018 0.0497,0.1165 -0.0381,0.1166 -0.0253,0.17 0.0308,0.1295 0.12121,-0.087 1.11499,2.2398 1.02725,2.4057 -0.0363,0.068 -0.0176,0.088 0.0422,0.045 0.14898,-0.1072 3.11559,6.8032 3.03911,7.0796 -0.0426,0.154 -0.033,0.1678 0.0373,0.053 0.0766,-0.125 0.10712,-0.1178 0.15855,0.039 0.0351,0.1071 0.0344,0.2496 -0.001,0.3175 -0.0372,0.071 -0.0185,0.089 0.0435,0.045 0.1407,-0.1013 1.09091,2.1505 1.15532,2.7383 0.0261,0.2381 0.0754,0.6073 0.10964,0.8204 0.0492,0.3063 0.0294,0.3873 -0.0947,0.3873 -0.0863,0 -0.15748,-0.056 -0.15832,-0.1256 -0.001,-0.087 -0.024,-0.086 -0.0744,0 -0.0401,0.071 -0.77729,0.2201 -1.6382,0.3309 -1.32095,0.17 -1.59207,0.1771 -1.73678,0.045 -0.15494,-0.1418 -0.15834,-0.1374 -0.0352,0.046 0.11594,0.1727 0.11522,0.2029 -0.005,0.2029 -0.14166,0 -0.43952,-0.7367 -0.4133,-1.0222 0.008,-0.084 -0.0103,-0.1249 -0.0389,-0.091 -0.0903,0.106 -0.63294,-0.8594 -0.56046,-0.9963 0.0376,-0.071 0.0244,-0.098 -0.0295,-0.059 -0.12595,0.091 -1.05446,-1.0047 -0.95244,-1.1239 0.0422,-0.049 0.0264,-0.072 -0.0352,-0.051 -0.17107,0.059 -0.74662,-0.4765 -0.66928,-0.6227 0.0389,-0.073 0.0225,-0.095 -0.0385,-0.052 -0.13029,0.094 -0.74061,-0.4848 -0.66393,-0.6297 0.0302,-0.058 -0.008,-0.075 -0.0863,-0.041 -0.17331,0.078 -0.88801,-0.8612 -0.81793,-1.0745 0.0268,-0.081 0.008,-0.1358 -0.0414,-0.1206 -0.12985,0.04 -1.20467,-2.1172 -1.12761,-2.2629 0.0359,-0.068 0.0175,-0.088 -0.0414,-0.046 -0.1246,0.09 -1.04869,-1.6229 -1.03694,-1.9222 0.005,-0.1107 -0.0451,-0.1884 -0.10987,-0.1739 -0.0648,0.014 -0.11101,-0.068 -0.10288,-0.1841 0.008,-0.1154 -0.0103,-0.1806 -0.042,-0.1441 -0.0644,0.075 -0.77444,-1.337 -0.73972,-1.4713 0.0124,-0.048 -0.0222,-0.087 -0.0768,-0.087 -0.0546,0 -0.0992,-0.046 -0.0992,-0.1013 0,-0.055 -0.24579,-0.608 -0.54619,-1.2277 -0.30041,-0.6197 -0.51681,-1.1823 -0.48088,-1.2501 0.0359,-0.068 0.0212,-0.092 -0.0327,-0.053 -0.0539,0.039 -0.44302,-0.6703 -0.86471,-1.5762 -0.42169,-0.9059 -0.96472,-2.057 -1.20672,-2.5581 -0.242,-0.5011 -0.41572,-0.957 -0.38602,-1.0132 0.0297,-0.057 -0.0144,-0.072 -0.0981,-0.034 -0.0835,0.038 -0.24604,0.2459 -0.36098,0.463 -0.11493,0.2173 -0.25672,0.3606 -0.31507,0.3185 -0.0639,-0.046 -0.077,-0.021 -0.0331,0.061 0.0809,0.1528 -0.45375,1.2228 -0.77943,1.56 -0.11319,0.1165 -0.14529,0.1759 -0.0714,0.1306 0.0898,-0.055 0.0766,0.02 -0.0401,0.2288 -0.13447,0.2396 -0.19585,0.2761 -0.26776,0.1591 -0.0668,-0.1084 -0.0762,-0.091 -0.0333,0.064 0.0554,0.199 -0.5036,1.5438 -0.59658,1.4351 -0.0694,-0.081 -0.87049,-1.9977 -0.8596,-2.0566 0.006,-0.032 0.0397,-0.1623 0.0752,-0.2898 0.0611,-0.2196 0.0582,-0.2205 -0.0534,-0.015 -0.10529,0.1928 -0.16436,0.1179 -0.54958,-0.6957 -0.26904,-0.5681 -0.41192,-0.9989 -0.37928,-1.1434 0.0342,-0.1514 0.0225,-0.1821 -0.0335,-0.088 -0.0594,0.099 -0.20447,-0.099 -0.46876,-0.6377 -0.21056,-0.4295 -0.53462,-1.0551 -0.72012,-1.3901 -0.1916,-0.3461 -0.30656,-0.6716 -0.26616,-0.7537 0.0391,-0.079 0.0344,-0.106 -0.0103,-0.058 -0.11216,0.1188 -0.57225,-0.696 -0.48557,-0.8598 0.0383,-0.073 0.0282,-0.1013 -0.0227,-0.065 -0.10712,0.078 -0.89747,-1.2996 -0.84801,-1.4771 0.0182,-0.065 10e-4,-0.081 -0.038,-0.035 -0.10506,0.1227 -0.46668,-0.4637 -0.38318,-0.6215 0.0428,-0.081 0.0283,-0.1037 -0.0364,-0.058 -0.13024,0.094 -0.43602,-0.3799 -0.35002,-0.5424 0.0334,-0.064 0.0136,-0.081 -0.0441,-0.04 -0.0577,0.041 -0.20494,-0.1199 -0.32724,-0.359 -0.44834,-0.8762 -0.28052,-0.1368 0.40326,1.7766 0.38574,1.0795 0.74146,2.067 0.79051,2.1945 0.44769,1.164 0.83589,2.348 0.8172,2.4927 -0.005,0.032 0.05,0.1362 0.12043,0.2318 0.1987,0.2702 0.75951,2.0932 0.68642,2.2315 -0.0358,0.067 -0.0224,0.092 0.0299,0.054 0.0523,-0.038 0.24442,0.3845 0.42704,0.9384 0.18261,0.554 0.52781,1.5595 0.7671,2.2344 0.26633,0.7512 0.41094,1.3132 0.37289,1.4493 -0.051,0.182 -0.0429,0.1907 0.0449,0.048 0.0631,-0.1024 0.10769,-0.1183 0.10861,-0.039 7.4e-4,0.074 0.22501,0.3267 0.49817,0.5609 0.27435,0.2353 0.46739,0.4812 0.43126,0.5495 -0.0359,0.068 -0.0228,0.093 0.0292,0.055 0.12018,-0.087 1.58494,1.4258 1.54048,1.5908 -0.0182,0.067 -0.001,0.085 0.0379,0.04 0.039,-0.046 0.32035,0.163 0.62516,0.4636 0.30481,0.3008 0.65469,0.6459 0.77751,0.767 0.12282,0.1212 0.20298,0.2589 0.17815,0.3059 -0.0248,0.047 0.0141,0.078 0.0866,0.07 0.15093,-0.018 1.40199,1.3009 1.40882,1.4855 0.002,0.067 0.0639,0.1071 0.13648,0.088 0.16636,-0.042 0.51803,0.3195 0.44476,0.458 -0.0301,0.057 0.002,0.088 0.0722,0.072 0.0698,-0.018 0.12896,0.028 0.13144,0.1037 0.002,0.074 0.0452,0.1786 0.0949,0.2318 0.0533,0.057 0.0579,0.031 0.0114,-0.064 -0.0546,-0.1095 -0.0364,-0.1418 0.0585,-0.1012 0.0759,0.032 0.12298,0.1302 0.10483,0.2179 -0.0182,0.088 3e-5,0.1208 0.0405,0.073 0.0967,-0.1131 0.35424,0.139 0.28185,0.2758 -0.0308,0.058 -0.002,0.092 0.0624,0.074 0.065,-0.018 0.132,0.065 0.1488,0.1817 0.0168,0.1177 0.0633,0.2478 0.10345,0.2898 0.0401,0.042 0.0449,-0.015 0.0103,-0.1266 -0.0989,-0.322 0.0103,-0.2479 0.72351,0.4907 0.5714,0.5919 0.66412,0.7408 0.63143,1.0145 l -0.0383,0.3208 0.10815,-0.2899 0.10815,-0.2898 0.31231,0.4058 c 0.17175,0.2232 0.35282,0.3906 0.40233,0.3721 0.0496,-0.019 0.0627,0.049 0.0294,0.1509 -0.0365,0.1108 -0.0199,0.1553 0.0418,0.1108 0.12879,-0.093 0.40883,0.1672 0.3334,0.3097 -0.0308,0.058 -0.0133,0.092 0.0388,0.074 0.15909,-0.053 0.72439,0.4925 0.65184,0.6295 -0.0372,0.071 -0.0241,0.097 0.0292,0.058 0.10609,-0.077 0.49166,0.3815 0.45058,0.5354 -0.014,0.053 0.02,0.062 0.0756,0.022 0.13759,-0.099 0.81128,0.5147 0.73108,0.6662 -0.0355,0.067 -0.0166,0.087 0.0427,0.044 0.0586,-0.042 0.21935,0.091 0.35711,0.2969 0.18735,0.2796 0.22333,0.412 0.14277,0.5255 -0.0817,0.1154 -0.0727,0.1357 0.0375,0.086 0.43626,-0.1956 0.51406,1.7187 0.10723,2.6369 -0.28158,0.6355 -0.87566,1.2931 -1.08388,1.1998 -0.0787,-0.035 -0.11814,-0.016 -0.0875,0.041 0.10483,0.1982 -0.65735,0.3855 -1.33749,0.3286 -0.68302,-0.058 -1.53636,-0.4726 -1.53636,-0.748 0,-0.073 -0.0406,-0.1765 -0.0903,-0.2297 -0.0525,-0.056 -0.0604,-0.035 -0.0189,0.048 0.11795,0.2395 -0.0291,0.1657 -0.44139,-0.2213 -0.31824,-0.2987 -0.36828,-0.3972 -0.27145,-0.5334 0.14511,-0.2042 0.19481,-0.5181 0.0675,-0.4261 -0.0507,0.036 -0.0696,0.1095 -0.042,0.1613 0.0276,0.052 -0.0212,0.164 -0.10838,0.2484 -0.13437,0.1304 -0.1802,0.1191 -0.30092,-0.074 -0.0783,-0.1251 -0.17396,-0.222 -0.21255,-0.2155 -0.0386,0.012 -0.48489,-0.329 -0.99179,-0.7459 -0.59413,-0.4887 -0.9031,-0.8143 -0.86952,-0.9165 0.0286,-0.087 0.012,-0.1297 -0.0371,-0.094 -0.13742,0.099 -0.41183,-0.061 -0.33927,-0.1983 0.0354,-0.067 0.0207,-0.091 -0.0326,-0.052 -0.12153,0.088 -1.0848,-0.7063 -1.04765,-0.8635 0.015,-0.064 -0.0217,-0.08 -0.0818,-0.036 -0.06,0.044 -0.20622,-0.021 -0.32499,-0.1438 -0.11878,-0.1225 -0.3402,-0.3129 -0.49204,-0.423 -0.15571,-0.1131 -0.24639,-0.2566 -0.20797,-0.3292 0.0408,-0.078 0.023,-0.097 -0.0445,-0.047 -0.14573,0.1048 -1.22646,-0.8447 -1.14221,-1.004 0.0375,-0.071 0.0158,-0.086 -0.0526,-0.036 -0.12325,0.088 -0.77489,-0.4815 -0.73402,-0.6425 0.0129,-0.052 -0.0338,-0.067 -0.10403,-0.036 -0.0702,0.032 -0.23376,-0.074 -0.36347,-0.2361 -0.12971,-0.1614 -0.2925,-0.2933 -0.36178,-0.2933 -0.0692,0 -0.19546,-0.1166 -0.28043,-0.2576 -0.0849,-0.1417 -0.15449,-0.2179 -0.15449,-0.1694 0,0.048 -0.0559,0.033 -0.12406,-0.033 -0.0682,-0.067 -0.24854,-0.2308 -0.40071,-0.3642 -0.23626,-0.207 -0.25799,-0.2703 -0.14887,-0.4335 0.11477,-0.1716 0.10964,-0.1744 -0.0501,-0.027 -0.14603,0.1339 -0.19934,0.136 -0.29773,0.012 -0.0951,-0.12 -0.0911,-0.132 0.0196,-0.059 0.0942,0.062 0.11609,0.05 0.0676,-0.042 -0.0395,-0.074 -0.11159,-0.1072 -0.16013,-0.072 -0.12895,0.093 -2.08803,-1.5767 -2.01401,-1.7166 0.0344,-0.065 0.0205,-0.088 -0.0309,-0.051 -0.0514,0.038 -0.31221,-0.1896 -0.57954,-0.504 -0.26734,-0.3142 -0.45345,-0.5711 -0.41357,-0.5711 0.0398,0 -0.0412,-0.1329 -0.18014,-0.2952 -0.13893,-0.1624 -0.25193,-0.358 -0.2511,-0.4347 10e-4,-0.088 0.0404,-0.075 0.10678,0.034 0.0936,0.1545 0.10025,0.1545 0.0605,0 -0.0246,-0.095 -0.0914,-0.1623 -0.14854,-0.148 -0.14558,0.036 -0.64098,-0.9859 -0.5558,-1.1468 0.0385,-0.073 0.0269,-0.1013 -0.0256,-0.064 -0.13205,0.095 -1.85748,-3.4641 -1.76445,-3.64 0.05,-0.094 0.0315,-0.1083 -0.0578,-0.045 -0.0962,0.069 -0.11398,0.041 -0.066,-0.1036 0.0359,-0.1096 0.0284,-0.1723 -0.0167,-0.1397 -0.0452,0.032 -0.17416,-0.1343 -0.28668,-0.3707 -0.1125,-0.2366 -0.30663,-0.6388 -0.43138,-0.8939 -0.12473,-0.2551 -0.34625,-0.7246 -0.49225,-1.0434 -0.146,-0.3189 -0.42802,-0.9232 -0.62671,-1.343 -0.19869,-0.4197 -0.33892,-0.798 -0.31161,-0.8405 0.0274,-0.042 0.0191,-0.051 -0.0182,-0.018 -0.0373,0.033 -0.33567,-0.5256 -0.66307,-1.2412 -0.3274,-0.7157 -0.61137,-1.2448 -0.63105,-1.1758 -0.0565,0.1981 0.43481,2.6158 0.87369,4.2993 0.22029,0.845 0.36871,1.5964 0.32981,1.67 -0.0389,0.073 -0.0286,0.1037 0.0228,0.066 0.0514,-0.038 0.22275,0.3852 0.38071,0.9385 0.15796,0.5533 0.48124,1.5436 0.7184,2.2005 0.23716,0.6571 0.40078,1.252 0.36361,1.3223 -0.0372,0.071 -0.0245,0.097 0.0281,0.059 0.0526,-0.038 0.2646,0.3322 0.47101,0.8226 0.20642,0.4905 0.59425,1.2927 0.86184,1.7828 0.31475,0.5763 0.46592,0.9652 0.42816,1.1013 -0.0486,0.1756 -0.0406,0.1816 0.0487,0.036 0.0962,-0.1561 0.15339,-0.088 0.12189,0.145 -0.007,0.048 0.0228,0.074 0.0649,0.058 0.12229,-0.046 0.82066,0.9121 0.7403,1.0158 -0.0399,0.052 -0.0228,0.06 0.0381,0.02 0.13175,-0.088 0.46743,0.3079 0.36386,0.429 -0.0394,0.046 -0.005,0.053 0.0781,0.016 0.0893,-0.04 0.26083,0.068 0.42533,0.2691 0.26329,0.321 0.26941,0.3537 0.13572,0.7275 -0.2001,0.5597 -0.44693,1.9312 -0.6095,3.3865 -0.0771,0.6909 -0.16311,1.2827 -0.19102,1.3154 -0.0279,0.032 -0.60105,-0.022 -1.27365,-0.1222 -4.17299,-0.6185 -6.80127,-0.1838 -10.14359,1.6779 -0.21212,0.1182 -0.43116,0.182 -0.48674,0.1419 -0.0556,-0.04 -0.0721,-0.019 -0.0367,0.048 0.0354,0.067 -0.005,0.1526 -0.089,0.1904 -0.10288,0.046 -0.13057,0.021 -0.0841,-0.074 0.0381,-0.079 -0.0283,-0.026 -0.1475,0.1166 -0.29098,0.3499 -0.98299,0.753 -1.12123,0.6532 -0.0637,-0.046 -0.0837,-0.028 -0.0468,0.041 0.0531,0.1001 -0.11032,0.2549 -0.33145,0.313 -0.0273,0.012 -0.16665,0.1048 -0.3097,0.2163 -0.72447,0.5667 -1.92259,0.8066 -4.769,0.9552 l -1.45628,0.076 z m 44.10994,-5.3228 c -0.0261,-0.031 -0.10655,0.06 -0.17885,0.2 -0.12555,0.2443 -0.12343,0.2468 0.0475,0.055 0.0984,-0.1095 0.1575,-0.2251 0.13138,-0.2556 z m -7.09653,-0.085 c -0.0282,-0.053 0.026,-0.097 0.12015,-0.097 0.20098,0 0.10426,-0.1491 -0.12189,-0.1878 -0.0853,-0.014 -0.12905,0 -0.0973,0.041 0.0318,0.038 0.0143,0.1288 -0.0389,0.2038 -0.0665,0.093 -0.0522,0.1363 0.0461,0.1363 0.0786,0 0.11993,-0.044 0.0918,-0.097 z m 7.21756,-0.2908 c -0.117,-0.2351 -0.14524,-0.1598 -0.0494,0.1317 0.034,0.1036 0.0827,0.164 0.10838,0.1341 0.0255,-0.029 -7.6e-4,-0.1494 -0.0588,-0.2658 z m 0.0221,-0.5643 c -0.0324,-0.099 -0.0801,-0.1542 -0.10609,-0.1238 -0.026,0.031 -0.0179,0.1107 0.0181,0.179 0.0978,0.1849 0.15506,0.149 0.088,-0.055 z m -9.56369,-1.9689 c -0.069,-0.096 -0.15139,-0.1465 -0.18296,-0.1095 -0.0316,0.036 0.008,0.1154 0.0886,0.1749 0.21009,0.1552 0.23754,0.1363 0.0944,-0.065 z m -0.49424,-0.3382 c 0,-0.028 -0.0446,-0.084 -0.0992,-0.1227 -0.0546,-0.04 -0.0992,-0.017 -0.0992,0.051 0,0.067 0.0446,0.1229 0.0992,0.1229 0.0546,0 0.0992,-0.024 0.0992,-0.051 z m 4.11441,-0.056 c 0.0314,-0.059 0.0192,-0.1353 -0.0272,-0.1688 -0.0464,-0.034 -0.0843,0.015 -0.0843,0.1084 0,0.1955 0.0312,0.2125 0.11158,0.061 z m -4.561,-0.4718 c -0.0338,-0.064 -0.11453,-0.1154 -0.17954,-0.1142 -0.071,0 -0.0588,0.047 0.0307,0.1142 0.19066,0.144 0.22502,0.144 0.14887,0 z m 3.26761,-0.3328 c -0.10506,-0.1193 -0.2133,-0.1934 -0.2405,-0.1645 -0.0272,0.029 0.0372,0.1266 0.14302,0.2169 0.27165,0.2321 0.3235,0.2042 0.0975,-0.052 z m -18.60088,-3.2157 c 0,-0.097 -0.1927,-0.1503 -0.23688,-0.067 -0.0286,0.054 0.0129,0.099 0.0923,0.099 0.0794,0 0.1445,-0.014 0.1445,-0.032 z m 10.81764,-1.0311 c -0.068,-0.095 -0.17128,-0.1738 -0.22961,-0.1738 -0.0584,0 -0.0193,0.077 0.0866,0.1702 0.24895,0.22 0.29757,0.2213 0.14302,0 z m -0.59547,-0.4569 c 0,-0.028 -0.0446,-0.084 -0.0992,-0.1227 -0.0546,-0.04 -0.0992,-0.016 -0.0992,0.051 0,0.067 0.0446,0.1229 0.0992,0.1229 0.0546,0 0.0992,-0.024 0.0992,-0.051 z m 4.84381,-2.4446 c -0.0306,-0.035 -0.0861,0.028 -0.12331,0.1431 -0.0539,0.1652 -0.0425,0.1785 0.0555,0.065 0.0679,-0.079 0.0983,-0.1723 0.0678,-0.208 z m 5.568,-1.8133 c -0.0536,-0.1165 -0.10861,-0.2125 -0.12224,-0.2125 -0.0137,0 -0.0248,0.095 -0.0248,0.2125 0,0.1166 0.0551,0.2126 0.12224,0.2126 0.0878,0 0.0948,-0.06 0.0248,-0.2126 z m -6.82669,-0.3594 c -0.098,-0.1142 -0.10941,-0.1001 -0.0555,0.065 0.0373,0.1142 0.0928,0.1786 0.12332,0.143 0.0306,-0.035 6e-5,-0.1292 -0.0677,-0.2079 z m -0.44074,-1.7298 c -0.0317,-0.093 -0.0552,-0.065 -0.06,0.069 -0.005,0.1223 0.0191,0.1907 0.0521,0.1522 0.033,-0.039 0.0365,-0.1385 0.008,-0.2222 z m -14.45823,-0.2103 c 0.0584,-0.1274 0.0839,-0.2317 0.0566,-0.2317 -0.0274,0 -0.0974,0.1048 -0.15586,0.2317 -0.0585,0.1276 -0.0839,0.2319 -0.0566,0.2319 0.0274,0 0.0974,-0.1048 0.15585,-0.2319 z m 15.26273,-14.7704 c -0.0704,-0.09 -0.1436,-0.1448 -0.16271,-0.1236 -0.0588,0.065 0.0903,0.2858 0.19338,0.2858 0.0536,0 0.0397,-0.073 -0.0307,-0.1622 z m -0.17758,-0.3452 c 0,-0.025 -0.0782,-0.1155 -0.17368,-0.203 -0.15741,-0.1441 -0.16092,-0.1401 -0.0375,0.044 0.12966,0.1932 0.21115,0.2546 0.21115,0.1591 z m -20.35477,-1.1656 c -0.0261,-0.031 -0.10666,0.06 -0.17886,0.2001 -0.12554,0.2443 -0.12342,0.2467 0.0475,0.055 0.0984,-0.1096 0.1575,-0.2251 0.1314,-0.2556 z m 0.4096,-0.9999 c 0.15081,-0.3293 0.048,-0.2756 -0.1507,0.079 -0.0939,0.1672 -0.12153,0.2687 -0.0616,0.2254 0.06,-0.044 0.15547,-0.1802 0.21227,-0.3041 z m 1.99931,-1.8941 c 0.069,0.049 0.0852,0.029 0.0418,-0.053 -0.0945,-0.1787 -0.18232,-0.1688 -0.41229,0.046 -0.18466,0.1727 -0.18331,0.175 0.0327,0.053 0.12394,-0.071 0.27599,-0.091 0.33788,-0.046 z m 7.27637,-0.1851 c 0.0348,-0.066 -0.005,-0.085 -0.0934,-0.046 -0.17193,0.078 -0.20339,0.1601 -0.0607,0.1601 0.0514,0 0.12068,-0.052 0.15402,-0.1142 z m 4.81407,-0.7065 c -0.3548,-0.038 -0.91306,-0.1593 -1.24056,-0.2716 -0.79055,-0.2708 -2.35015,-1.2144 -2.26703,-1.3715 0.0356,-0.067 0.0188,-0.089 -0.0375,-0.048 -0.24542,0.1772 -1.54082,-1.2712 -2.24438,-2.5095 -0.46763,-0.823 -0.91879,-2.1457 -1.12202,-3.2896 -0.19375,-1.0906 -0.13615,-3.1108 0.11671,-4.0937 0.37235,-1.4471 1.2278,-3.3382 1.44059,-3.1846 0.0506,0.036 0.068,-0.012 0.0387,-0.095 -0.0696,-0.212 1.6183,-2.089 1.80377,-2.0058 0.0743,0.033 0.12437,0 0.11135,-0.08 -0.0129,-0.078 0.0323,-0.1277 0.10048,-0.1119 0.0682,0.015 0.12406,-0.026 0.12406,-0.094 0,-0.1712 1.12829,-0.7517 2.0555,-1.0575 1.03603,-0.3417 2.91859,-0.3653 3.97918,-0.051 0.83604,0.2485 2.75985,1.3408 2.72483,1.5471 -0.0131,0.077 0.039,0.1107 0.11666,0.077 0.0817,-0.036 0.21035,0.062 0.30797,0.236 0.0922,0.1645 0.21568,0.299 0.27436,0.299 0.19907,0 1.16442,1.3291 1.5999,2.2028 1.06462,2.1358 1.38793,4.5777 0.89743,6.7777 -0.33481,1.5016 -1.13368,3.3976 -1.36211,3.2326 -0.0634,-0.046 -0.0748,-0.019 -0.0292,0.067 0.0855,0.1615 -0.32252,0.733 -0.45496,0.6375 -0.046,-0.033 -0.0596,0.013 -0.0302,0.1024 0.0316,0.097 -0.10106,0.3153 -0.32368,0.5348 -0.20745,0.2047 -0.50214,0.5009 -0.6549,0.6582 -0.15275,0.1573 -0.32713,0.2505 -0.38749,0.2069 -0.0641,-0.046 -0.0818,-0.027 -0.0428,0.047 0.0937,0.1773 -1.90174,1.3321 -2.19033,1.2676 -0.12203,-0.027 -0.20163,-0.012 -0.17687,0.035 0.11713,0.2213 -2.02375,0.4511 -3.12758,0.3356 z m 6.69048,-3.1191 c -0.0643,-0.075 -0.0978,-0.037 -0.0978,0.1142 0,0.1501 0.0335,0.1894 0.0978,0.1142 0.0643,-0.075 0.0643,-0.1534 0,-0.2286 z m -0.27075,-12.52 c -0.0165,-0.1259 -0.0575,-0.2611 -0.0912,-0.3005 -0.0337,-0.04 -0.0457,0.025 -0.0267,0.1419 0.019,0.1178 0.038,0.2527 0.0421,0.3005 0.005,0.048 0.0296,0.087 0.0566,0.087 0.0269,0 0.0356,-0.1024 0.0191,-0.2289 z"
       id="path69" /></g></svg>
