<?xml version="1.0" encoding="UTF-8" standalone="no"?>
<!-- Created with Inkscape (http://www.inkscape.org/) -->

<svg
   width="55.159mm"
   height="68.577316mm"
   viewBox="0 0 55.159006 68.577316"
   version="1.1"
   id="svg1"
   xml:space="preserve"
   sodipodi:docname="roleta.svg"
   inkscape:version="1.4.2 (f4327f4, 2025-05-13)"
   xmlns:inkscape="http://www.inkscape.org/namespaces/inkscape"
   xmlns:sodipodi="http://sodipodi.sourceforge.net/DTD/sodipodi-0.dtd"
   xmlns="http://www.w3.org/2000/svg"
   xmlns:svg="http://www.w3.org/2000/svg"><sodipodi:namedview
     id="namedview1"
     pagecolor="#ffffff"
     bordercolor="#000000"
     borderopacity="0.25"
     inkscape:showpageshadow="2"
     inkscape:pageopacity="0.0"
     inkscape:pagecheckerboard="0"
     inkscape:deskcolor="#d1d1d1"
     inkscape:document-units="mm"
     inkscape:zoom="0.48900232"
     inkscape:cx="-209.61046"
     inkscape:cy="7.1574302"
     inkscape:window-width="1920"
     inkscape:window-height="1009"
     inkscape:window-x="-8"
     inkscape:window-y="125"
     inkscape:window-maximized="1"
     inkscape:current-layer="svg1" /><defs
     id="defs1" /><g
     id="layer1"
     transform="translate(76.949463,-1964.7595)" /><path
     style="fill:#4d4d4d;stroke-width:0.729"
     d="m 12.752922,68.460643 c -0.536048,-0.168126 -1.098395,-0.72133 -1.282499,-1.261646 -0.176241,-0.517239 -0.205818,-3.565569 -0.04094,-4.220325 0.126659,-0.50301 0.613386,-1.094451 1.097566,-1.333692 0.305417,-0.150913 0.660484,-0.183699 2.435636,-0.224902 l 2.078095,-0.04824 0.731554,-1.984747 c 0.402353,-1.091612 0.732488,-2.007025 0.733631,-2.034253 0.0012,-0.02723 -0.327534,-0.169414 -0.73039,-0.31597 -0.40286,-0.146559 -1.455484,-0.620702 -2.33917,-1.053654 C 6.771865,51.738121 0.97578204,43.329661 0.07188444,33.693688 c -0.141422,-1.507623 -0.06399,-4.912002 0.143266,-6.298852 C 1.129954,21.273475 3.788732,15.951286 8.065571,11.680315 12.106489,7.6449364 17.190203,4.9916095 22.772737,4.0042519 L 23.682267,3.8433835 23.561249,3.4507149 C 23.494694,3.2347486 23.326291,2.7014487 23.18703,2.2656015 23.011368,1.7158261 22.952219,1.3751353 22.993879,1.1530673 c 0.08422,-0.44896187 0.557426,-0.95408597 1.007251,-1.07520937 0.239787,-0.064589 1.59597,-0.090258 3.812324,-0.072244 3.319695,0.027046 3.449472,0.034919 3.706815,0.2257349 0.372809,0.276393 0.691982,0.77491967 0.691982,1.08081537 0,0.1420092 -0.16331,0.76814 -0.362911,1.3914058 l -0.362911,1.1332086 1.302331,0.2494201 c 9.215078,1.7648843 16.839222,8.0498843 20.445182,16.8541053 0.874435,2.134993 1.538367,4.855657 1.810742,7.42006 0.187898,1.769057 0.137038,5.162246 -0.100274,6.689903 -0.858429,5.525966 -2.990779,10.168165 -6.577086,14.318536 -2.820327,3.263915 -6.785095,6.054296 -10.757183,7.570845 -0.525711,0.200717 -0.954998,0.386927 -0.95397,0.4138 0.0011,0.02687 0.332356,0.941996 0.736281,2.033609 l 0.734411,1.984747 2.075445,0.04824 c 2.336958,0.05431 2.535214,0.103294 3.103022,0.76665 0.466858,0.545417 0.531869,0.893356 0.531869,2.846531 0,2.279536 -0.143241,2.698276 -1.134141,3.315452 l -0.330792,0.20603 -14.602074,0.01806 c -12.17781,0.01506 -14.671007,-0.0036 -15.01727,-0.112161 z m 29.005017,-3.450402 v -1.512497 l -14.153144,0.02394 -14.153143,0.02394 -0.02603,1.488561 -0.02603,1.488562 h 14.179171 14.179172 z m -5.859732,-3.633656 c 0,-0.05667 -1.230057,-3.392817 -1.263162,-3.425923 -0.01421,-0.01421 -0.490727,0.07856 -1.058923,0.206165 -4.038099,0.906852 -8.70278,0.870788 -12.434245,-0.09613 -0.316521,-0.08202 -0.590103,-0.134516 -0.607959,-0.116661 -0.03752,0.03752 -1.269791,3.368641 -1.269791,3.432551 0,0.02338 3.742668,0.04252 8.317041,0.04252 4.574371,0 8.317039,-0.01913 8.317039,-0.04252 z m -5.11443,-4.834833 c 0.591851,-0.07581 1.570048,-0.242195 2.173771,-0.369749 1.05267,-0.222406 2.940659,-0.766264 2.940659,-0.847093 0,-0.03476 -1.332358,-3.647779 -3.119989,-8.46063 -0.357188,-0.961657 -1.027159,-2.769198 -1.488822,-4.016751 -2.915083,-7.87742 -3.381599,-9.105989 -3.434865,-9.045679 -0.03257,0.03689 -0.124464,0.258445 -0.204211,0.492359 -0.07975,0.233915 -0.638294,1.754375 -1.241215,3.378798 -0.602922,1.624424 -1.580631,4.261304 -2.17269,5.859732 -0.592058,1.598434 -1.80967,4.883898 -2.705803,7.301038 -0.896133,2.41714 -1.649305,4.466331 -1.673714,4.553759 -0.04972,0.17809 0.229399,0.278585 1.893379,0.6817 2.80948,0.680623 6.075156,0.85144 9.0335,0.472516 z M 18.90382,51.963188 c 1.908628,-5.162761 4.588498,-12.403054 5.787756,-15.636971 0.655407,-1.767374 1.18028,-3.259105 1.166385,-3.314953 -0.02524,-0.101463 -1.07702,0.277902 -11.791983,4.253249 -3.040917,1.128207 -6.538448,2.420622 -7.772292,2.872034 -1.441295,0.527307 -2.243817,0.867364 -2.244654,0.951148 -0.0021,0.210083 1.262628,2.66889 1.86922,3.634013 2.538035,4.038164 6.019162,7.193353 10.316382,9.350461 0.80403,0.403606 1.501998,0.720455 1.551036,0.704109 0.04904,-0.01634 0.552207,-1.282238 1.11815,-2.81309 z m 20.388945,1.931228 c 4.944622,-2.599908 8.815228,-6.561342 11.239321,-11.503058 0.843412,-1.719368 0.866382,-1.561671 -0.287083,-1.970961 -0.535356,-0.189962 -2.015367,-0.734176 -3.288914,-1.209374 -2.461183,-0.918336 -6.386916,-2.373865 -7.797224,-2.89096 -0.467834,-0.171525 -2.743146,-1.01301 -5.056249,-1.869958 -2.313102,-0.856946 -4.21833,-1.545399 -4.233839,-1.529893 -0.01551,0.01553 0.547958,1.585648 1.252148,3.489198 0.70419,1.90355 1.858123,5.023984 2.564296,6.934306 0.706173,1.910323 1.679359,4.536567 2.162635,5.836104 0.483275,1.299537 1.124037,3.032648 1.423913,3.851356 0.376237,1.027183 0.589632,1.488561 0.688481,1.488561 0.07879,0 0.678419,-0.281395 1.332515,-0.625321 z M 4.856613,38.460714 c 4.07365,-1.51164 10.390511,-3.849987 11.146857,-4.126293 0.467834,-0.170907 2.360433,-0.870295 4.205776,-1.554206 1.845343,-0.683905 3.707079,-1.37337 4.13719,-1.532147 0.430111,-0.158776 0.769405,-0.301295 0.753987,-0.316714 -0.01542,-0.01538 -0.941487,-0.366716 -2.057931,-0.780657 C 8.37799,24.71356 3.543042,22.944897 3.446003,22.982134 c -0.126834,0.0487 -0.599479,1.674229 -0.898314,3.089546 -0.450663,2.134395 -0.621292,5.573467 -0.383527,7.730068 0.195111,1.769721 0.941603,5.218051 1.129596,5.218051 0.03091,0 0.734196,-0.251585 1.562855,-0.559085 z m 47.412043,-0.676417 c 0.144286,-0.542041 0.37902,-1.644741 0.521634,-2.450461 0.242242,-1.368588 0.259139,-1.638959 0.256936,-4.111261 -0.0021,-2.272475 -0.03165,-2.82365 -0.209724,-3.901506 -0.29927,-1.811463 -0.906674,-4.179255 -1.072096,-4.179255 -0.113845,0 -20.718221,7.61536 -20.956384,7.745458 -0.127975,0.06991 0.274923,0.233076 3.624253,1.467746 6.158544,2.270245 17.045238,6.306054 17.201149,6.376643 0.103962,0.0471 0.230169,0.07491 0.280459,0.06189 0.05028,-0.01305 0.209487,-0.467194 0.353773,-1.009235 z M 23.468251,22.243956 c -1.328913,-3.586724 -2.644872,-7.138003 -2.924352,-7.891739 -1.96821,-5.3080666 -2.408168,-6.4932386 -2.464701,-6.6394536 -0.03517,-0.09096 -0.11256,-0.164711 -0.171975,-0.163872 -0.207695,0.0029 -2.951201,1.388453 -3.841245,1.939905 -2.219299,1.3750316 -4.912826,3.7570756 -6.461212,5.7140256 -1.196364,1.512048 -2.562763,3.72589 -3.216139,5.21079 l -0.234288,0.532461 2.569396,0.949932 c 7.976086,2.948841 17.78628,6.585217 18.400125,6.820435 0.480299,0.184044 0.717182,0.235701 0.734718,0.160227 0.01423,-0.06124 -1.061414,-3.045988 -2.390327,-6.632711 z m 10.161673,5.36665 c 6.137135,-2.275282 12.561094,-4.652507 14.932865,-5.526009 1.273548,-0.469039 2.357697,-0.892632 2.409223,-0.941315 0.133398,-0.126044 -1.093999,-2.515254 -2.007876,-3.908453 -2.532031,-3.860077 -6.10877,-7.018367 -10.181438,-8.9902896 -0.570762,-0.276349 -1.064688,-0.471838 -1.097615,-0.434418 -0.03292,0.0374 -0.104004,0.195627 -0.157952,0.351575 -0.05395,0.15594 -0.650599,1.772096 -1.325893,3.5914466 -0.675294,1.819351 -2.235281,6.029851 -3.466637,9.356671 -1.231357,3.326813 -2.384251,6.437413 -2.561989,6.912437 -0.373866,0.999196 -0.377598,1.021284 -0.157765,0.933404 0.09097,-0.03638 1.717752,-0.641637 3.615077,-1.345049 z m -5.478761,-0.09762 c 0.113042,-0.29889 0.49463,-1.330251 0.847974,-2.291911 0.934163,-2.542409 3.641374,-9.853813 4.72434,-12.759096 C 35.37198,8.0395304 35.71942,7.0470477 35.642632,6.9798047 35.434566,6.7976058 32.875443,6.1801865 31.156326,5.8974293 l -0.347081,-0.057081 -0.948551,2.9104521 c -0.864877,2.6537056 -0.978539,2.9395096 -1.288497,3.2399306 -0.321413,0.311524 -0.375439,0.329486 -0.991029,0.329486 -0.614655,0 -0.669963,-0.0183 -0.988496,-0.327029 -0.306846,-0.29741 -0.423245,-0.590694 -1.284915,-3.2375466 l -0.947503,-2.9105109 -0.39792,0.058174 c -0.739519,0.108169 -3.041148,0.6055293 -3.49318,0.7548431 -0.246913,0.081561 -0.448931,0.1863105 -0.448931,0.232777 0,0.046437 0.273678,0.8192208 0.608175,1.7172398 2.009423,5.3946936 6.902497,18.6220406 7.028242,18.9993126 0.0823,0.246913 0.180987,0.448933 0.219312,0.448933 0.03832,0 0.162171,-0.24455 0.275211,-0.543447 z M 28.721437,5.5862483 c 0.594418,-1.8063599 1.094509,-3.3374494 1.111316,-3.4024252 0.02382,-0.092102 -0.473218,-0.1181418 -2.254768,-0.1181418 -1.78855,0 -2.275829,0.025661 -2.24164,0.1181418 0.02402,0.064954 0.525981,1.5960653 1.115456,3.4024252 0.589475,1.8063531 1.098121,3.2842831 1.130325,3.2842831 0.0322,0 0.544895,-1.47793 1.139311,-3.2842831 z"
     id="path1" /></svg>
