<?xml version="1.0" encoding="UTF-8" standalone="no"?>
<!-- Created with Inkscape (http://www.inkscape.org/) -->

<svg
   width="75.609566mm"
   height="77.188057mm"
   viewBox="0 0 75.609574 77.188057"
   version="1.1"
   id="svg1"
   xml:space="preserve"
   xmlns="http://www.w3.org/2000/svg"
   xmlns:svg="http://www.w3.org/2000/svg"><defs
     id="defs1" /><g
     id="layer1"
     transform="translate(86.668928,-1962.0469)"><path
       style="fill:#666666;stroke-width:0.823426"
       d="m -55.820856,2038.7765 c -7.114463,-1.2928 -14.234254,-5.0992 -19.521311,-10.4367 -8.193489,-8.2717 -12.333053,-20.0173 -11.118026,-31.5461 0.970648,-9.2102 4.935623,-17.5728 11.331845,-23.8999 14.620002,-14.4623 37.779682,-14.4623 52.399685,0 4.942563,4.8893 8.65861,11.3731 10.290328,17.955 0.52356,2.1118 1.030935,4.9728 1.104851,6.2302 0.02862,0.4868 0.102011,-7.2293 0.163092,-17.1467 0.07119,-11.5667 0.111053,-4.1498 0.111061,20.6866 8e-6,24.2296 -0.04087,32.012 -0.109155,20.7972 -0.09647,-15.8363 -0.140543,-17.6507 -0.378792,-15.5979 -1.030521,8.8793 -5.567373,17.6741 -12.28493,23.8148 -5.034789,4.6024 -11.852817,8.0087 -18.306138,9.1457 -3.455946,0.6088 -10.325738,0.6078 -13.68251,0 z m 24.897926,-24.8746 c 0.690252,-0.3681 0.873477,-0.7362 0.873477,-1.7546 0,-1.0609 -0.58558,-1.5393 -3.153689,-2.5763 -10.037265,-4.0534 -21.599802,-4.0645 -31.572281,-0.03 -1.105191,0.4471 -2.23954,1.0322 -2.520788,1.3002 -1.053029,1.0034 -0.415912,3.1633 0.933091,3.1633 0.313276,0 1.540409,-0.3908 2.72696,-0.8684 9.634999,-3.8785 21.157513,-3.6809 30.583227,0.5246 1.443586,0.6441 1.386828,0.6377 2.130003,0.2414 z m -35.586677,-8.32 c 10.570004,-4.321 21.950872,-4.6343 32.491263,-0.8946 1.651916,0.5862 3.445397,1.2448 3.985497,1.4637 1.246407,0.5052 2.009432,0.3221 2.563665,-0.6153 1.037827,-1.7553 0.267018,-2.8543 -2.896685,-4.13 -4.503137,-1.8157 -9.477575,-3.036 -14.455572,-3.546 -7.207824,-0.7385 -15.543477,0.5315 -22.613985,3.4455 -2.448688,1.0092 -2.833812,1.2645 -3.170027,2.1015 -0.50757,1.2638 0.438202,3.0227 1.648794,3.0664 0.134965,0.01 1.236134,-0.3962 2.44705,-0.8912 z m -4.348607,-8.4723 c 5.455955,-2.3232 10.105287,-3.5719 15.875896,-4.2642 3.623271,-0.4347 10.564134,-0.313 14.098868,0.2472 3.542382,0.5615 8.508087,1.9345 11.976714,3.3116 1.701061,0.6752 3.354031,1.2278 3.673251,1.2278 0.702301,0 1.7489,-1.0089 1.964162,-1.8933 0.08988,-0.3693 0.02887,-0.9885 -0.149908,-1.5218 -0.269005,-0.8023 -0.474593,-0.9879 -1.910452,-1.7237 -3.754327,-1.9242 -11.513838,-4.1021 -17.270047,-4.8474 -3.594137,-0.4654 -10.59308,-0.3523 -14.481098,0.234 -5.439511,0.8202 -11.092695,2.4559 -15.385922,4.4517 -1.405153,0.6532 -2.203555,1.599 -2.20512,2.6122 -0.0016,1.2687 1.138549,2.6548 2.204641,2.6795 0.210048,0.01 0.934104,-0.2263 1.609015,-0.5136 z"
       id="path71" /></g></svg>
